<?xml version="1.0" encoding="utf-8"?>
<!-- Generator: Adobe Illustrator 23.1.1, SVG Export Plug-In . SVG Version: 6.00 Build 0)  -->
<svg version="1.1" xmlns="http://www.w3.org/2000/svg" xmlns:xlink="http://www.w3.org/1999/xlink" x="0px" y="0px"
	 viewBox="0 0 792 612" style="enable-background:new 0 0 792 612;" xml:space="preserve">
<style type="text/css">
	.st0{display:none;}
	.st1{display:inline;}
	.st2{display:inline;fill:#FFD600;}
	.st3{display:inline;fill:#FFFFFF;}
	.st4{fill:#FFFFFF;stroke:#000000;stroke-width:13.497;stroke-linecap:round;stroke-linejoin:round;stroke-miterlimit:10;}
	.st5{fill:#FFFFFF;}
	.st6{stroke:#000000;stroke-width:18.3348;stroke-linecap:round;stroke-miterlimit:10;}
	.st7{fill:none;stroke:#000000;stroke-width:13.497;stroke-linecap:round;stroke-linejoin:round;stroke-miterlimit:10;}
	.st8{stroke:#000000;stroke-width:18.3348;stroke-linecap:round;stroke-linejoin:round;stroke-miterlimit:10;}
	.st9{fill:#FFFFFF;stroke:#000000;stroke-width:13.497;stroke-miterlimit:10;}
	.st10{fill:none;stroke:#000000;stroke-width:13.497;stroke-miterlimit:10;}
	.st11{fill:none;stroke:#000000;stroke-width:30.5612;stroke-linecap:round;stroke-linejoin:round;stroke-miterlimit:10;}
	.st12{fill:#FFFFFF;stroke:#000000;stroke-width:16.2993;stroke-linecap:round;stroke-linejoin:round;stroke-miterlimit:10;}
	.st13{fill:#FFFFFF;stroke:#000000;stroke-width:16;stroke-linecap:round;stroke-linejoin:round;stroke-miterlimit:10;}
	.st14{font-family:'FoundersGrotesk-Bold';}
	.st15{font-size:225px;}
	.st16{letter-spacing:5;}
	.st17{font-size:154.2821px;}
	.st18{font-size:138.089px;}
	.st19{fill:#FFFFFF;stroke:#000000;stroke-width:11.7326;stroke-linecap:round;stroke-linejoin:round;stroke-miterlimit:10;}
	.st20{fill:#FFFFFF;stroke:#000000;stroke-width:13.2623;stroke-linecap:round;stroke-linejoin:round;stroke-miterlimit:10;}
	.st21{fill:#FFFFFF;stroke:#000000;stroke-width:13.2623;stroke-linecap:round;stroke-miterlimit:10;}
	.st22{stroke:#000000;stroke-width:4.5213;stroke-miterlimit:10;}
	.st23{fill:#FFFFFF;stroke:#000000;stroke-width:14;stroke-linecap:round;stroke-linejoin:round;stroke-miterlimit:10;}
	.st24{fill:#FFFFFF;stroke:#000000;stroke-width:16.6693;stroke-miterlimit:10;}
	.st25{stroke:#000000;stroke-width:16.6693;stroke-linecap:round;stroke-miterlimit:10;}
	.st26{fill:#FFFFFF;stroke:#000000;stroke-width:13.497;stroke-linecap:round;stroke-miterlimit:10;}
	.st27{fill:none;stroke:#000000;stroke-width:13.497;stroke-linecap:round;stroke-miterlimit:10;}
	.st28{fill:#FFFFFF;stroke:#000000;stroke-width:15.2362;stroke-linecap:round;stroke-linejoin:round;stroke-miterlimit:10;}
	.st29{fill:#FFFFFF;stroke:#000000;stroke-width:14.8467;stroke-linecap:round;stroke-linejoin:round;stroke-miterlimit:10;}
	.st30{stroke:#000000;stroke-width:20.1683;stroke-linecap:round;stroke-miterlimit:10;}
	.st31{fill:none;stroke:#000000;stroke-width:14.8467;stroke-linecap:round;stroke-linejoin:round;stroke-miterlimit:10;}
	.st32{fill:#FFFFFF;stroke:#000000;stroke-width:12.2439;stroke-linecap:round;stroke-linejoin:round;stroke-miterlimit:10;}
	.st33{font-size:30px;}
	.st34{font-size:28px;}
	.st35{font-size:15px;}
	.st36{fill:none;stroke:#000000;stroke-width:11.5;stroke-linecap:round;stroke-linejoin:round;stroke-miterlimit:10;}
	.st37{fill:#FFFFFF;stroke:#000000;stroke-width:11.5;stroke-linecap:round;stroke-linejoin:round;stroke-miterlimit:10;}
	.st38{fill:#FFFFFF;stroke:#000000;stroke-width:15.3;stroke-linecap:round;stroke-linejoin:round;stroke-miterlimit:10;}
	
		.st39{display:inline;fill:#FFFFFF;stroke:#000000;stroke-width:15.3;stroke-linecap:round;stroke-linejoin:round;stroke-miterlimit:10;}
	.st40{fill:#FFFFFF;stroke:#FFFFFF;stroke-width:3;stroke-miterlimit:10;}
	.st41{fill:#FFFFFF;stroke:#000000;stroke-width:13.3058;stroke-linecap:round;stroke-linejoin:round;stroke-miterlimit:10;}
	.st42{fill:#06F6FC;}
	.st43{display:inline;fill:#FF9C1A;}
	.st44{fill:#FFFFFF;stroke:#000000;stroke-width:15.2517;stroke-linecap:round;stroke-linejoin:round;stroke-miterlimit:10;}
	.st45{stroke:#000000;stroke-width:3;stroke-miterlimit:10;}
	.st46{fill:#06DCFF;}
	.st47{fill:#FFD600;}
	.st48{fill:#F9415C;}
	.st49{fill:#7D7DFF;}
	.st50{fill:#A8D600;}
	.st51{fill:#FF9C1A;}
	.st52{fill:#FF00A9;}
	
		.st53{display:inline;fill:#FFFFFF;stroke:#000000;stroke-width:14;stroke-linecap:round;stroke-linejoin:round;stroke-miterlimit:10;}
	.st54{fill:none;stroke:#000000;stroke-width:10;stroke-linecap:round;stroke-linejoin:round;stroke-miterlimit:10;}
	.st55{fill:#FFFFFF;stroke:#000000;stroke-width:12.3365;stroke-linecap:round;stroke-linejoin:round;stroke-miterlimit:10;}
	.st56{fill:none;stroke:#000000;stroke-width:13.3073;stroke-linecap:round;stroke-linejoin:round;stroke-miterlimit:10;}
	.st57{fill:#FFFFFF;stroke:#000000;stroke-width:13.3073;stroke-linecap:round;stroke-linejoin:round;stroke-miterlimit:10;}
	.st58{stroke:#000000;stroke-width:13.3073;stroke-linecap:round;stroke-linejoin:round;stroke-miterlimit:10;}
	.st59{stroke:#FFFFFF;stroke-width:13.3073;stroke-linecap:round;stroke-linejoin:round;stroke-miterlimit:10;}
	.st60{fill:#FFFFFF;stroke:#000000;stroke-width:10;stroke-linecap:round;stroke-linejoin:round;stroke-miterlimit:10;}
	.st61{fill:#FFFFFF;stroke:#000000;stroke-width:15;stroke-linecap:round;stroke-linejoin:round;stroke-miterlimit:10;}
	.st62{fill:none;stroke:#000000;stroke-width:15;stroke-linecap:round;stroke-linejoin:round;stroke-miterlimit:10;}
	.st63{display:inline;fill:none;stroke:#000000;stroke-width:15;stroke-linecap:round;stroke-linejoin:round;stroke-miterlimit:10;}
	
		.st64{display:inline;fill:#FFFFFF;stroke:#000000;stroke-width:15;stroke-linecap:round;stroke-linejoin:round;stroke-miterlimit:10;}
	.st65{stroke:#FFFFFF;stroke-width:15;stroke-linecap:round;stroke-linejoin:round;stroke-miterlimit:10;}
	
		.st66{display:inline;fill:none;stroke:#000000;stroke-width:13.7295;stroke-linecap:round;stroke-linejoin:round;stroke-miterlimit:10;}
	.st67{fill:#FFFFFF;stroke:#000000;stroke-width:12.7279;stroke-linecap:round;stroke-linejoin:round;stroke-miterlimit:10;}
	.st68{fill:#FFFFFF;stroke:#000000;stroke-width:13.7295;stroke-linecap:round;stroke-linejoin:round;stroke-miterlimit:10;}
	.st69{fill:none;stroke:#000000;stroke-width:12.7279;stroke-linecap:round;stroke-linejoin:round;stroke-miterlimit:10;}
	.st70{clip-path:url(#SVGID_4_);}
	.st71{stroke:#FFFFFF;stroke-width:13.7894;stroke-linecap:round;stroke-linejoin:round;stroke-miterlimit:10;}
	.st72{fill:none;}
	.st73{fill:none;stroke:#000000;stroke-width:13.7295;stroke-linecap:round;stroke-linejoin:round;stroke-miterlimit:10;}
	.st74{clip-path:url(#SVGID_6_);}
</style>
<g id="Layer_1" class="st0">
</g>
<g id="Layer_2" class="st0">
	<g class="st1">
		<g>
			<text transform="matrix(1 0 0 1 32.693 367.4136)" class="st14 st15 st16">WON’T</text>
		</g>
		<g>
			<text transform="matrix(1 0 0 1 38.5143 164.7349)" class="st14 st17">Capitalism</text>
		</g>
		<g>
			<text transform="matrix(1 0 0 1 131.4005 502.9014)" class="st14 st18">Save Us</text>
		</g>
	</g>
	<g class="st1">
		<text transform="matrix(1 0 0 1 232.7173 575.0923)"><tspan x="0" y="0" class="st14 st33">Capitalism</tspan><tspan x="140.91" y="0" class="st14 st34"> </tspan><tspan x="145.95" y="0" class="st14 st33">Is</tspan><tspan x="167.76" y="0" class="st14 st34"> </tspan><tspan x="172.8" y="0" class="st14 st33">A</tspan><tspan x="193.56" y="0" class="st14 st35"> </tspan><tspan x="196.26" y="0" class="st14 st33">Virus</tspan><tspan x="265.68" y="0" class="st14 st35"> </tspan><tspan x="268.38" y="0" class="st14 st33">.</tspan><tspan x="275.34" y="0" class="st14 st35"> </tspan><tspan x="278.04" y="0" class="st14 st33">org</tspan></text>
	</g>
</g>
<g id="Layer_2_copy">
	<g>
		<path class="st72" d="M431.77,144.37c0,3.55,2.78,5.86,6.94,5.86c7.1,0,12.81-5.25,12.81-14.19v-1.08l-10.18,1.85
			C435.32,138.04,431.77,139.9,431.77,144.37z"/>
		<path class="st72" d="M247.67,489.92c6.35,0,11.46-4.7,11.46-12.7v-0.97l-9.11,1.66c-5.39,1.1-8.56,2.76-8.56,6.77
			C241.45,487.85,243.94,489.92,247.67,489.92z"/>
		<path class="st72" d="M318.45,336.36c20.93,0,34.2-15.75,34.2-39.83s-13.27-39.83-34.2-39.83s-34.2,15.75-34.2,39.83
			S297.52,336.36,318.45,336.36z"/>
		<path class="st72" d="M274.85,568.49c0,1.95,1.05,3.21,2.7,3.21c1.89,0,2.76-1.35,2.76-3.3c0-1.92-0.87-3.27-2.76-3.27
			c-1.65,0-2.7,1.26-2.7,3.18V568.49z"/>
		<path class="st72" d="M168.57,144.37c0,3.55,2.78,5.86,6.94,5.86c7.1,0,12.81-5.25,12.81-14.19v-1.08l-10.18,1.85
			C172.12,138.04,168.57,139.9,168.57,144.37z"/>
		<polygon class="st72" points="415.76,562.04 413.6,567.62 418.04,567.62 415.88,562.04 		"/>
		<path class="st72" d="M268.7,147.3c9.72,0,14.19-6.94,14.19-16.97c0-9.87-4.47-16.82-14.19-16.82c-8.49,0-13.89,6.48-13.89,16.35
			v0.93C254.82,140.82,260.21,147.3,268.7,147.3z"/>
		<path class="st72" d="M258.08,571.13c0,0.69,0.54,1.14,1.35,1.14c1.38,0,2.49-1.02,2.49-2.76v-0.21l-1.98,0.36
			C258.77,569.9,258.08,570.26,258.08,571.13z"/>
		<path class="st72" d="M309.26,571.13c0,0.69,0.54,1.14,1.35,1.14c1.38,0,2.49-1.02,2.49-2.76v-0.21l-1.98,0.36
			C309.95,569.9,309.26,570.26,309.26,571.13z"/>
		<path class="st72" d="M545.54,577.73c2.25,0,3.9-0.45,3.9-1.26c0-0.57-0.42-0.78-1.23-0.78h-4.92c-0.54,0-0.9,0.3-0.9,0.81
			C542.39,577.46,543.74,577.73,545.54,577.73z"/>
		<path class="st72" d="M382.31,465.89h21.68c-0.28-5.52-3.87-10.22-10.5-10.22C386.31,455.67,383.14,460.09,382.31,465.89z"/>
		<path class="st72" d="M545.9,567.89c0.81,0,1.41-0.75,1.41-1.95c0-1.17-0.6-1.92-1.41-1.92c-0.81,0-1.41,0.75-1.41,1.92
			C544.49,567.14,545.09,567.89,545.9,567.89z"/>
		<path class="st72" d="M516.32,568.4c0,2.01,0.72,3.39,2.43,3.39c1.68,0,2.43-1.38,2.43-3.39c0-2.01-0.75-3.39-2.43-3.39
			C517.04,565.01,516.32,566.39,516.32,568.4z"/>
		<polygon points="110.99,367.41 134.62,277.86 135.52,277.86 159.15,367.41 199.87,367.41 237,225.66 200.1,225.66 177.6,314.54 
			176.7,314.54 153.29,225.66 118.87,225.66 95.47,314.54 94.57,314.54 72.07,225.66 33.82,225.66 70.94,367.41 		"/>
		<path d="M244.87,296.54c0,43.65,32.4,73.58,73.58,73.58s73.58-29.93,73.58-73.58s-32.4-73.58-73.58-73.58
			S244.87,252.89,244.87,296.54z M318.45,256.71c20.93,0,34.2,15.75,34.2,39.83s-13.27,39.83-34.2,39.83s-34.2-15.75-34.2-39.83
			S297.52,256.71,318.45,256.71z"/>
		<polygon points="504.74,304.19 449.39,225.66 412.94,225.66 412.94,367.41 448.04,367.41 448.04,283.49 509.24,367.41 
			539.84,367.41 539.84,225.66 504.74,225.66 		"/>
		<path d="M601.04,257.16v-31.5h-38.03v33.75h17.1c-0.23,9-6.3,11.93-17.1,12.38v17.33C588.21,288.44,601.04,279.21,601.04,257.16z"
			/>
		<polygon points="754.94,225.66 619.03,225.66 619.03,257.16 667.64,257.16 667.64,367.41 705.66,367.41 705.66,257.16 
			754.94,257.16 		"/>
		<path d="M91.43,166.59c29.78,0,45.67-18.82,47.52-43.04l-25.15-1.08c-1.54,10.8-7.41,20.83-22.53,20.83
			c-14.35,0-22.68-10.65-22.68-27.15s8.33-27.15,22.68-27.15c15.12,0,20.98,10.03,22.53,20.83l25.15-0.93
			c-1.85-24.22-17.74-43.2-47.52-43.2c-28.39,0-49.83,20.52-49.83,50.45S63.04,166.59,91.43,166.59z"/>
		<path d="M169.04,126.01c-14.96,2.62-24.53,8.33-24.53,21.6c0,11.73,8.79,18.67,22.22,18.67c10.95,0,18.82-4.17,22.83-12.19
			c2.31,7.87,8.95,12.19,17.43,12.19c7.1,0,12.03-2.01,15.58-4.47v-13.27c-2.01,0.77-3.55,1.08-5.55,1.08
			c-2.62,0-4.17-1.54-4.17-5.09v-23.45c0-19.13-13.42-27-31.63-27c-20.67,0-31.94,10.49-34.1,25.61l23.14,1.54
			c1.08-5.09,3.86-8.64,9.41-8.64c6.02,0,8.64,3.39,8.64,9.1v1.08L169.04,126.01z M188.32,136.04c0,8.95-5.71,14.19-12.81,14.19
			c-4.17,0-6.94-2.31-6.94-5.86c0-4.47,3.55-6.33,9.57-7.56l10.18-1.85V136.04z"/>
		<path d="M254.82,153.01c3.39,8.02,11.11,13.58,22.68,13.58c20.21,0,30.55-15.89,30.55-36.26c0-20.21-10.34-36.26-30.55-36.26
			c-11.57,0-19.29,5.55-22.68,13.73V95.93h-24.99v93.49h24.99V153.01z M254.82,129.87c0-9.87,5.4-16.35,13.89-16.35
			c9.72,0,14.19,6.94,14.19,16.82c0,10.03-4.47,16.97-14.19,16.97c-8.49,0-13.89-6.48-13.89-16.51V129.87z"/>
		<rect x="317.76" y="67.54" width="25.3" height="21.91"/>
		<rect x="317.92" y="95.93" width="24.99" height="68.81"/>
		<path d="M358.96,145.6c0,16.2,10.95,20.98,22.53,20.98c9.41,0,15.43-2.31,20.67-6.17v-16.2c-4.17,1.7-7.56,2.31-10.65,2.31
			c-5.09,0-7.87-2.31-7.87-8.18v-25.15h17.9V95.93h-17.9V76.95H367.9l-2.31,8.95c-1.7,6.33-3.86,10.03-10.8,11.11l-5.09,0.77v15.43
			h9.26V145.6z"/>
		<path d="M432.24,126.01c-14.97,2.62-24.53,8.33-24.53,21.6c0,11.73,8.79,18.67,22.22,18.67c10.95,0,18.82-4.17,22.83-12.19
			c2.31,7.87,8.95,12.19,17.43,12.19c7.1,0,12.03-2.01,15.58-4.47v-13.27c-2.01,0.77-3.55,1.08-5.55,1.08
			c-2.62,0-4.17-1.54-4.17-5.09v-23.45c0-19.13-13.42-27-31.63-27c-20.67,0-31.94,10.49-34.1,25.61l23.14,1.54
			c1.08-5.09,3.86-8.64,9.41-8.64c6.02,0,8.64,3.39,8.64,9.1v1.08L432.24,126.01z M451.52,136.04c0,8.95-5.71,14.19-12.81,14.19
			c-4.17,0-6.94-2.31-6.94-5.86c0-4.47,3.55-6.33,9.57-7.56l10.18-1.85V136.04z"/>
		<rect x="493.02" y="67.54" width="24.99" height="97.2"/>
		<rect x="531.44" y="67.54" width="25.3" height="21.91"/>
		<rect x="531.59" y="95.93" width="24.99" height="68.81"/>
		<path d="M600.1,151c-7.56,0-12.19-3.24-13.11-8.95l-21.75,0.31c1.39,16.66,15.58,24.22,34.56,24.22
			c19.59,0,31.94-8.33,31.94-22.83c0-13.42-8.95-20.36-24.38-22.83l-13.42-2.31c-2.31-0.31-4.17-1.54-4.17-3.86
			c0-3.09,2.78-4.94,7.56-4.94c7.71,0,12.03,3.09,12.96,8.02l20.52-0.62c-1.39-14.35-13.11-23.14-33.02-23.14
			c-19.29,0-31.17,9.72-31.17,23.3c0,14.04,8.79,19.44,25.46,22.06l10.18,1.54c4.78,0.77,6.33,2.62,6.33,5.25
			C608.58,149,605.65,151,600.1,151z"/>
		<path d="M666.28,130.95c0-10.34,2.93-17.12,11.11-17.12c7.56,0,9.41,4.94,9.41,14.35v36.56h24.99v-33.79
			c0-10.34,2.78-17.12,11.11-17.12c7.56,0,9.26,4.94,9.26,14.35v36.56h24.99v-43.2c0-14.35-5.55-27.46-24.53-27.46
			c-11.57,0-19.75,5.86-23.45,13.58c-2.93-8.02-9.26-13.58-21.45-13.58c-10.34,0-17.74,4.63-21.44,12.19V95.93h-24.99v68.81h24.99
			V130.95z"/>
		<path d="M176.97,486.05c-9.67,0-18.09-3.73-18.92-14.64l-21.54,0.69c0,20.99,16.85,32.45,40.46,32.45
			c20.3,0,36.32-9.25,36.32-27.76c0-14.22-8.29-23.75-26.51-26.93l-16.43-2.9c-5.39-0.97-8.7-2.49-8.7-6.49
			c0-4.83,4.42-7.87,12.15-7.87c8.98,0,15.47,4.14,16.16,13.12l21.54-0.41c-0.41-19.33-13.39-31.07-37.42-31.07
			c-21.68,0-35.49,10.63-35.49,28.31c0,15.19,9.94,23.2,24.17,25.82l15.88,2.76c6.63,1.24,11.74,2.07,11.74,7.18
			C190.36,483.15,185.12,486.05,176.97,486.05z"/>
		<path d="M260.24,493.37c2.07,7.04,8.01,10.91,15.6,10.91c6.35,0,10.77-1.79,13.95-4V488.4c-1.8,0.69-3.18,0.97-4.97,0.97
			c-2.35,0-3.73-1.38-3.73-4.56v-20.99c0-17.12-12.01-24.17-28.31-24.17c-18.5,0-28.58,9.39-30.52,22.92l20.71,1.38
			c0.97-4.56,3.45-7.73,8.42-7.73c5.39,0,7.73,3.04,7.73,8.15v0.97l-17.26,2.9c-13.4,2.35-21.96,7.46-21.96,19.33
			c0,10.5,7.87,16.71,19.89,16.71C249.6,504.28,256.65,500.55,260.24,493.37z M250.02,477.91l9.11-1.66v0.97
			c0,8.01-5.11,12.7-11.46,12.7c-3.73,0-6.21-2.07-6.21-5.25C241.45,480.67,244.63,479.01,250.02,477.91z"/>
		<polygon points="337.43,441.31 324.03,479.56 323.48,479.56 310.09,441.31 286.61,441.31 309.53,502.9 336.19,502.9 
			359.11,441.31 		"/>
		<path d="M360.21,473.07c0,19.61,14.09,31.49,33.83,31.49c16.29,0,27.62-7.87,30.79-21.96l-17.95-1.66
			c-2.07,4.83-5.94,6.9-12.01,6.9c-6.77,0-12.29-3.59-12.84-11.19h43.22v-6.21c0-16.71-10.91-30.79-31.48-30.79
			C374.57,439.66,360.21,453.6,360.21,473.07z M403.99,465.89h-21.68c0.83-5.8,4-10.22,11.19-10.22
			C400.12,455.67,403.71,460.37,403.99,465.89z"/>
		<path d="M538.35,468.38V415.9h-23.48v48.61c0,13.26-4,20.3-16.16,20.3c-12.01,0-16.16-7.04-16.16-20.3V415.9h-23.34v52.48
			c0,25.41,17.12,36.18,39.49,36.18S538.35,493.79,538.35,468.38z"/>
		<path d="M574.66,453.74c6.9,0,10.77,2.76,11.6,7.18l18.37-0.55c-1.24-12.84-11.74-20.71-29.55-20.71
			c-17.26,0-27.89,8.7-27.89,20.85c0,12.57,7.87,17.4,22.79,19.75l9.11,1.38c4.28,0.69,5.66,2.35,5.66,4.69
			c0,2.49-2.62,4.28-7.6,4.28c-6.77,0-10.91-2.9-11.74-8.01l-19.47,0.28c1.24,14.91,13.95,21.68,30.93,21.68
			c17.54,0,28.58-7.46,28.58-20.44c0-12.01-8.01-18.23-21.82-20.44l-12.01-2.07c-2.07-0.28-3.73-1.38-3.73-3.45
			C567.89,455.4,570.38,453.74,574.66,453.74z"/>
		<path d="M243.05,560.36c2.94,0,4.08,1.95,4.38,4.05l4.89-0.18c-0.36-4.71-3.45-8.4-9.24-8.4c-5.52,0-9.69,3.99-9.69,9.81
			s4.17,9.81,9.69,9.81c5.79,0,8.88-3.66,9.24-8.37l-4.89-0.21c-0.3,2.1-1.44,4.05-4.38,4.05c-2.79,0-4.41-2.07-4.41-5.28
			S240.26,560.36,243.05,560.36z"/>
		<path d="M258.17,567.56c-2.91,0.51-4.77,1.62-4.77,4.2c0,2.28,1.71,3.63,4.32,3.63c2.13,0,3.66-0.81,4.44-2.37
			c0.45,1.53,1.74,2.37,3.39,2.37c1.38,0,2.34-0.39,3.03-0.87v-2.58c-0.39,0.15-0.69,0.21-1.08,0.21c-0.51,0-0.81-0.3-0.81-0.99
			v-4.56c0-3.72-2.61-5.25-6.15-5.25c-4.02,0-6.21,2.04-6.63,4.98l4.5,0.3c0.21-0.99,0.75-1.68,1.83-1.68
			c1.17,0,1.68,0.66,1.68,1.77v0.21L258.17,567.56z M261.92,569.51c0,1.74-1.11,2.76-2.49,2.76c-0.81,0-1.35-0.45-1.35-1.14
			c0-0.87,0.69-1.23,1.86-1.47l1.98-0.36V569.51z"/>
		<path d="M269.99,561.71v18.18h4.86v-7.08c0.66,1.56,2.16,2.64,4.41,2.64c3.93,0,5.94-3.09,5.94-7.05c0-3.93-2.01-7.05-5.94-7.05
			c-2.25,0-3.75,1.08-4.41,2.67v-2.31H269.99z M277.55,565.13c1.89,0,2.76,1.35,2.76,3.27c0,1.95-0.87,3.3-2.76,3.3
			c-1.65,0-2.7-1.26-2.7-3.21v-0.18C274.85,566.39,275.9,565.13,277.55,565.13z"/>
		<rect x="287.09" y="556.19" width="4.92" height="4.26"/>
		<rect x="287.12" y="561.71" width="4.86" height="13.38"/>
		<path d="M299.48,575.45c1.83,0,3-0.45,4.02-1.2v-3.15c-0.81,0.33-1.47,0.45-2.07,0.45c-0.99,0-1.53-0.45-1.53-1.59v-4.89h3.48
			v-3.36h-3.48v-3.69h-3.06l-0.45,1.74c-0.33,1.23-0.75,1.95-2.1,2.16l-0.99,0.15v3h1.8v6.3
			C295.1,574.52,297.23,575.45,299.48,575.45z"/>
		<path d="M309.35,567.56c-2.91,0.51-4.77,1.62-4.77,4.2c0,2.28,1.71,3.63,4.32,3.63c2.13,0,3.66-0.81,4.44-2.37
			c0.45,1.53,1.74,2.37,3.39,2.37c1.38,0,2.34-0.39,3.03-0.87v-2.58c-0.39,0.15-0.69,0.21-1.08,0.21c-0.51,0-0.81-0.3-0.81-0.99
			v-4.56c0-3.72-2.61-5.25-6.15-5.25c-4.02,0-6.21,2.04-6.63,4.98l4.5,0.3c0.21-0.99,0.75-1.68,1.83-1.68
			c1.17,0,1.68,0.66,1.68,1.77v0.21L309.35,567.56z M313.1,569.51c0,1.74-1.11,2.76-2.49,2.76c-0.81,0-1.35-0.45-1.35-1.14
			c0-0.87,0.69-1.23,1.86-1.47l1.98-0.36V569.51z"/>
		<rect x="321.17" y="556.19" width="4.86" height="18.9"/>
		<rect x="328.64" y="556.19" width="4.92" height="4.26"/>
		<rect x="328.67" y="561.71" width="4.86" height="13.38"/>
		<path d="M341.99,572.42c-1.47,0-2.37-0.63-2.55-1.74l-4.23,0.06c0.27,3.24,3.03,4.71,6.72,4.71c3.81,0,6.21-1.62,6.21-4.44
			c0-2.61-1.74-3.96-4.74-4.44l-2.61-0.45c-0.45-0.06-0.81-0.3-0.81-0.75c0-0.6,0.54-0.96,1.47-0.96c1.5,0,2.34,0.6,2.52,1.56
			l3.99-0.12c-0.27-2.79-2.55-4.5-6.42-4.5c-3.75,0-6.06,1.89-6.06,4.53c0,2.73,1.71,3.78,4.95,4.29l1.98,0.3
			c0.93,0.15,1.23,0.51,1.23,1.02C343.64,572.03,343.07,572.42,341.99,572.42z"/>
		<path d="M372.53,575.09v-8.4c0-2.79-1.08-5.34-4.77-5.34c-2.25,0-3.84,1.14-4.56,2.64c-0.57-1.56-1.8-2.64-4.17-2.64
			c-2.01,0-3.45,0.9-4.17,2.37v-2.01H350v13.38h4.86v-6.57c0-2.01,0.57-3.33,2.16-3.33c1.47,0,1.83,0.96,1.83,2.79v7.11h4.86v-6.57
			c0-2.01,0.54-3.33,2.16-3.33c1.47,0,1.8,0.96,1.8,2.79v7.11H372.53z"/>
		<rect x="380.18" y="556.19" width="5.1" height="18.9"/>
		<path d="M393.86,572.42c-1.47,0-2.37-0.63-2.55-1.74l-4.23,0.06c0.27,3.24,3.03,4.71,6.72,4.71c3.81,0,6.21-1.62,6.21-4.44
			c0-2.61-1.74-3.96-4.74-4.44l-2.61-0.45c-0.45-0.06-0.81-0.3-0.81-0.75c0-0.6,0.54-0.96,1.47-0.96c1.5,0,2.34,0.6,2.52,1.56
			l3.99-0.12c-0.27-2.79-2.55-4.5-6.42-4.5c-3.75,0-6.06,1.89-6.06,4.53c0,2.73,1.71,3.78,4.95,4.29l1.98,0.3
			c0.93,0.15,1.23,0.51,1.23,1.02C395.51,572.03,394.94,572.42,393.86,572.42z"/>
		<path d="M413.12,556.19l-7.53,18.9h5.13l1.41-3.66h7.38l1.41,3.66h5.43l-7.53-18.9H413.12z M413.6,567.62l2.16-5.58h0.12
			l2.16,5.58H413.6z"/>
		<polygon points="439.19,568.76 439.07,568.76 434.39,556.19 429.05,556.19 436.31,575.09 441.68,575.09 448.94,556.19 
			443.87,556.19 		"/>
		<rect x="450.23" y="556.19" width="4.92" height="4.26"/>
		<rect x="450.26" y="561.71" width="4.86" height="13.38"/>
		<path d="M457.76,561.71v13.38h4.86v-6.12c0-2.25,1.11-3.09,2.91-3.09c0.93,0,1.65,0.18,2.31,0.57l0.3-4.59
			c-0.33-0.27-1.05-0.51-1.86-0.51c-1.77,0-3.18,1.23-3.66,2.73v-2.37H457.76z"/>
		<path d="M483.32,575.09v-13.38h-4.86v6.57c0,2.04-0.6,3.36-2.13,3.36c-1.47,0-1.98-0.99-1.98-2.79v-7.14h-4.86v8.43
			c0,2.79,1.11,5.31,4.77,5.31c2.01,0,3.48-0.87,4.2-2.37v2.01H483.32z"/>
		<path d="M491.78,572.42c-1.47,0-2.37-0.63-2.55-1.74l-4.23,0.06c0.27,3.24,3.03,4.71,6.72,4.71c3.81,0,6.21-1.62,6.21-4.44
			c0-2.61-1.74-3.96-4.74-4.44l-2.61-0.45c-0.45-0.06-0.81-0.3-0.81-0.75c0-0.6,0.54-0.96,1.47-0.96c1.5,0,2.34,0.6,2.52,1.56
			l3.99-0.12c-0.27-2.79-2.55-4.5-6.42-4.5c-3.75,0-6.06,1.89-6.06,4.53c0,2.73,1.71,3.78,4.95,4.29l1.98,0.3
			c0.93,0.15,1.23,0.51,1.23,1.02C493.43,572.03,492.86,572.42,491.78,572.42z"/>
		<rect x="502.07" y="569.93" width="5.16" height="5.16"/>
		<path d="M511.43,568.4c0,4.17,2.94,7.05,7.32,7.05c4.35,0,7.32-2.88,7.32-7.05c0-4.14-2.97-7.05-7.32-7.05
			C514.37,561.35,511.43,564.26,511.43,568.4z M521.18,568.4c0,2.01-0.75,3.39-2.43,3.39c-1.71,0-2.43-1.38-2.43-3.39
			c0-2.01,0.72-3.39,2.43-3.39C520.43,565.01,521.18,566.39,521.18,568.4z"/>
		<path d="M532.85,568.97c0-2.25,1.11-3.09,2.91-3.09c0.93,0,1.65,0.18,2.31,0.57l0.3-4.59c-0.33-0.27-1.05-0.51-1.86-0.51
			c-1.77,0-3.18,1.23-3.66,2.73v-2.37h-4.86v13.38h4.86V568.97z"/>
		<path d="M538.4,576.98c0,2.52,3.3,3.27,7.11,3.27c4.35,0,8.4-1.53,8.4-4.86c0-2.25-1.53-3.84-4.56-3.84h-5.55
			c-0.81,0-1.14-0.36-1.14-0.81c0-0.27,0.09-0.48,0.27-0.63c0.87,0.27,1.83,0.39,2.91,0.39c3.78,0,6.51-1.74,6.51-4.56
			c0-0.63-0.15-1.2-0.42-1.71c0.66-0.15,1.38-0.21,1.95-0.21v-3.66c-1.47,0-2.94,0.96-3.75,2.07c-1.14-0.69-2.67-1.08-4.29-1.08
			c-3.75,0-6.45,1.74-6.45,4.59c0,1.47,0.72,2.61,1.92,3.39c-1.44,0.54-2.28,1.53-2.28,2.82c0,1.14,0.72,2.22,1.92,2.61
			C539.45,574.88,538.4,575.81,538.4,576.98z M545.9,564.02c0.81,0,1.41,0.75,1.41,1.92c0,1.2-0.6,1.95-1.41,1.95
			c-0.81,0-1.41-0.75-1.41-1.95C544.49,564.77,545.09,564.02,545.9,564.02z M543.29,575.69h4.92c0.81,0,1.23,0.21,1.23,0.78
			c0,0.81-1.65,1.26-3.9,1.26c-1.8,0-3.15-0.27-3.15-1.23C542.39,575.99,542.75,575.69,543.29,575.69z"/>
	</g>
</g>
</svg>
