<?xml version="1.0" encoding="utf-8"?>
<!-- Generator: Adobe Illustrator 23.1.1, SVG Export Plug-In . SVG Version: 6.00 Build 0)  -->
<svg version="1.1" xmlns="http://www.w3.org/2000/svg" xmlns:xlink="http://www.w3.org/1999/xlink" x="0px" y="0px"
	 viewBox="0 0 792 612" style="enable-background:new 0 0 792 612;" xml:space="preserve">
<style type="text/css">
	.st0{display:none;}
	.st1{display:inline;}
	.st2{display:inline;fill:#FFD600;}
	.st3{display:inline;fill:#FFFFFF;}
	.st4{fill:#FFFFFF;stroke:#000000;stroke-width:13.497;stroke-linecap:round;stroke-linejoin:round;stroke-miterlimit:10;}
	.st5{fill:#FFFFFF;}
	.st6{stroke:#000000;stroke-width:18.3348;stroke-linecap:round;stroke-miterlimit:10;}
	.st7{fill:none;stroke:#000000;stroke-width:13.497;stroke-linecap:round;stroke-linejoin:round;stroke-miterlimit:10;}
	.st8{stroke:#000000;stroke-width:18.3348;stroke-linecap:round;stroke-linejoin:round;stroke-miterlimit:10;}
	.st9{fill:#FFFFFF;stroke:#000000;stroke-width:13.497;stroke-miterlimit:10;}
	.st10{fill:none;stroke:#000000;stroke-width:13.497;stroke-miterlimit:10;}
	.st11{fill:none;stroke:#000000;stroke-width:30.5612;stroke-linecap:round;stroke-linejoin:round;stroke-miterlimit:10;}
	.st12{fill:#FFFFFF;stroke:#000000;stroke-width:16.2993;stroke-linecap:round;stroke-linejoin:round;stroke-miterlimit:10;}
	.st13{fill:#FFFFFF;stroke:#000000;stroke-width:16;stroke-linecap:round;stroke-linejoin:round;stroke-miterlimit:10;}
	.st14{fill:#FFFFFF;stroke:#000000;stroke-width:11.7326;stroke-linecap:round;stroke-linejoin:round;stroke-miterlimit:10;}
	.st15{fill:#FFFFFF;stroke:#000000;stroke-width:13.2623;stroke-linecap:round;stroke-linejoin:round;stroke-miterlimit:10;}
	.st16{fill:#FFFFFF;stroke:#000000;stroke-width:13.2623;stroke-linecap:round;stroke-miterlimit:10;}
	.st17{stroke:#000000;stroke-width:4.5213;stroke-miterlimit:10;}
	.st18{fill:#FFFFFF;stroke:#000000;stroke-width:14;stroke-linecap:round;stroke-linejoin:round;stroke-miterlimit:10;}
	.st19{fill:#FFFFFF;stroke:#000000;stroke-width:16.6693;stroke-miterlimit:10;}
	.st20{stroke:#000000;stroke-width:16.6693;stroke-linecap:round;stroke-miterlimit:10;}
	.st21{fill:#FFFFFF;stroke:#000000;stroke-width:13.497;stroke-linecap:round;stroke-miterlimit:10;}
	.st22{fill:none;stroke:#000000;stroke-width:13.497;stroke-linecap:round;stroke-miterlimit:10;}
	.st23{fill:#FFFFFF;stroke:#000000;stroke-width:15.2362;stroke-linecap:round;stroke-linejoin:round;stroke-miterlimit:10;}
	.st24{fill:#FFFFFF;stroke:#000000;stroke-width:14.8467;stroke-linecap:round;stroke-linejoin:round;stroke-miterlimit:10;}
	.st25{stroke:#000000;stroke-width:20.1683;stroke-linecap:round;stroke-miterlimit:10;}
	.st26{fill:none;stroke:#000000;stroke-width:14.8467;stroke-linecap:round;stroke-linejoin:round;stroke-miterlimit:10;}
	.st27{fill:#FFFFFF;stroke:#000000;stroke-width:12.2439;stroke-linecap:round;stroke-linejoin:round;stroke-miterlimit:10;}
	.st28{fill:none;stroke:#000000;stroke-width:11.5;stroke-linecap:round;stroke-linejoin:round;stroke-miterlimit:10;}
	.st29{fill:#FFFFFF;stroke:#000000;stroke-width:11.5;stroke-linecap:round;stroke-linejoin:round;stroke-miterlimit:10;}
	.st30{font-family:'FoundersGrotesk-Bold';}
	.st31{font-size:30px;}
	.st32{font-size:28px;}
	.st33{font-size:15px;}
	.st34{fill:#FFFFFF;stroke:#000000;stroke-width:15.3;stroke-linecap:round;stroke-linejoin:round;stroke-miterlimit:10;}
	
		.st35{display:inline;fill:#FFFFFF;stroke:#000000;stroke-width:15.3;stroke-linecap:round;stroke-linejoin:round;stroke-miterlimit:10;}
	.st36{fill:#FFFFFF;stroke:#FFFFFF;stroke-width:3;stroke-miterlimit:10;}
	.st37{fill:#FFFFFF;stroke:#000000;stroke-width:13.3058;stroke-linecap:round;stroke-linejoin:round;stroke-miterlimit:10;}
	.st38{fill:#06F6FC;}
	.st39{display:inline;fill:#FF9C1A;}
	.st40{fill:#FFFFFF;stroke:#000000;stroke-width:15.2517;stroke-linecap:round;stroke-linejoin:round;stroke-miterlimit:10;}
	.st41{stroke:#000000;stroke-width:3;stroke-miterlimit:10;}
	.st42{fill:#06DCFF;}
	.st43{fill:#FFD600;}
	.st44{fill:#F9415C;}
	.st45{fill:#7D7DFF;}
	.st46{fill:#A8D600;}
	.st47{fill:#FF9C1A;}
	.st48{fill:#FF00A9;}
	
		.st49{display:inline;fill:#FFFFFF;stroke:#000000;stroke-width:14;stroke-linecap:round;stroke-linejoin:round;stroke-miterlimit:10;}
	.st50{fill:none;stroke:#000000;stroke-width:10;stroke-linecap:round;stroke-linejoin:round;stroke-miterlimit:10;}
	.st51{fill:#FFFFFF;stroke:#000000;stroke-width:12.3365;stroke-linecap:round;stroke-linejoin:round;stroke-miterlimit:10;}
	.st52{fill:none;stroke:#000000;stroke-width:13.3073;stroke-linecap:round;stroke-linejoin:round;stroke-miterlimit:10;}
	.st53{fill:#FFFFFF;stroke:#000000;stroke-width:13.3073;stroke-linecap:round;stroke-linejoin:round;stroke-miterlimit:10;}
	.st54{stroke:#000000;stroke-width:13.3073;stroke-linecap:round;stroke-linejoin:round;stroke-miterlimit:10;}
	.st55{stroke:#FFFFFF;stroke-width:13.3073;stroke-linecap:round;stroke-linejoin:round;stroke-miterlimit:10;}
	.st56{fill:#FFFFFF;stroke:#000000;stroke-width:10;stroke-linecap:round;stroke-linejoin:round;stroke-miterlimit:10;}
	.st57{fill:#FFFFFF;stroke:#000000;stroke-width:15;stroke-linecap:round;stroke-linejoin:round;stroke-miterlimit:10;}
	.st58{fill:none;stroke:#000000;stroke-width:15;stroke-linecap:round;stroke-linejoin:round;stroke-miterlimit:10;}
	.st59{display:inline;fill:none;stroke:#000000;stroke-width:15;stroke-linecap:round;stroke-linejoin:round;stroke-miterlimit:10;}
	
		.st60{display:inline;fill:#FFFFFF;stroke:#000000;stroke-width:15;stroke-linecap:round;stroke-linejoin:round;stroke-miterlimit:10;}
	.st61{stroke:#FFFFFF;stroke-width:15;stroke-linecap:round;stroke-linejoin:round;stroke-miterlimit:10;}
	
		.st62{display:inline;fill:none;stroke:#000000;stroke-width:13.7295;stroke-linecap:round;stroke-linejoin:round;stroke-miterlimit:10;}
	.st63{fill:#FFFFFF;stroke:#000000;stroke-width:12.7279;stroke-linecap:round;stroke-linejoin:round;stroke-miterlimit:10;}
	.st64{fill:#FFFFFF;stroke:#000000;stroke-width:13.7295;stroke-linecap:round;stroke-linejoin:round;stroke-miterlimit:10;}
	.st65{fill:none;stroke:#000000;stroke-width:12.7279;stroke-linecap:round;stroke-linejoin:round;stroke-miterlimit:10;}
	.st66{clip-path:url(#SVGID_4_);}
	.st67{stroke:#FFFFFF;stroke-width:13.7894;stroke-linecap:round;stroke-linejoin:round;stroke-miterlimit:10;}
	.st68{fill:none;}
	.st69{fill:none;stroke:#000000;stroke-width:13.7295;stroke-linecap:round;stroke-linejoin:round;stroke-miterlimit:10;}
	.st70{clip-path:url(#SVGID_6_);}
</style>
<g id="Layer_1" class="st0">
</g>
<g id="Layer_2" class="st0">
	<g class="st1">
		<g>
			<path class="st5" d="M514.14,309.81l-16.39,28.96l-22.71-37.47l-36.19-3.62l-67.2,21.11c0,0-44.75,18.3-74.29,36.78
				c-29.54,18.48-33.87,12.13-33.87,12.13L50.5,352.51c0,0-2.09,141.24,5.38,142.26c11.66,1.59,168.44-5.47,175.74-2.12
				c2.3,0.95,24.45,32.56,93.12,23.3c43.2-8.05,68.67-9.26,68.67-9.26l42.92-3.54l76.46-68.02l18.19-42.26
				c0,0,43.46-100.03,40.04-109.21c-3.42-9.18-20.21-28.29-31.38-13.45C532.12,277.45,514.14,309.81,514.14,309.81z"/>
			<path class="st7" d="M358.07,412.95c-17.86,7.9-37.03,15-57.6,21.03"/>
			<path class="st7" d="M577.24,193.93c0,0-19.17,69.78-87.17,135.99"/>
			<path class="st4" d="M500.9,427.41c21.4-16.62,28.03-30.34,36.84-48.44c8.81-18.1,30-60.19,38.04-78.85
				c13.89-32.24-24.63-47.36-37.94-20.68c-11.53,23.1-52.19,88.39-52.19,88.39"/>
			<path class="st4" d="M389,506.36c13.61,3.92,37.83-0.7,64.4-13.59c13.18-6.39,36-16.61,48.82-33.31
				c13.03-16.98,13.56-37.47,11.77-46.05c-3.55-17.03-10.36-53.81-14.65-74.72c-6.13-29.87-47.55-28.16-41.91,11.94
				c3.92,27.91,8.8,63.46,8.8,63.46"/>
			<path class="st4" d="M352.84,512.36c36.15,0.82,104.47-45.32,112.79-64.49c8.32-19.17-6.18-57.83-16.02-79.37
				c-9.84-21.54-21.26-31.56-38.07-44.47c-24.04-18.47-51.59,10.62-27.62,32.91l17.79,22.19l13.42,30.07"/>
			<path class="st7" d="M50.5,352.51c0,0,203.83,15.87,222,15.36c25.99-24.32,188.89-91.04,202.54-66.57
				c2.14,3.84,2.77,8.31,2.15,13.13"/>
			<path class="st7" d="M345.32,441.94c14.39-12.8,24.38-16.25,24.38-16.25l-7.59-19.01c-32.76-16.8-14.19-51.3,18-38.4
				c23.84,9.55,38.38,43.88,41.09,61.17c2.62,16.71-22.57,61.89-68.36,82.91c-26.26,12.05-74.54,8.98-121.22-19.71L50.5,494.97"/>
			<path d="M525.2,281.52c0,0,19.89-46.96-10.58-75.69c-30.47-28.73-68.32-15.05-71.78-54.15c-38.14,44.24-6.52,99,21.42,113.37
				C489.08,277.8,509.65,270.22,525.2,281.52z"/>
			<g>
				<path class="st4" d="M666.89,84.73c0.26-8.83-2.7-15.25-7.93-17.88l-6.89-1.66c-6.07-23.98-32.01-29.69-44.74-11.15
					c0.1,0.17,0.21,0.3,0.31,0.46c0,0-9.69-11.19-8.81-15.06c-11.8-4.22-23.57-3.36-30.59,5.58l-2.71-0.65
					c0,0-22.14,0.85-41.65,23.71c-14.81,17.34-23.71,49.33-15.08,70.34l-0.02,0.01c0,0,31.54,104.19,128.3,64.57
					c29.89-12.24,40.96-33.57,42.77-65.97C681.51,107.05,669.37,87.06,666.89,84.73z"/>
				<path class="st4" d="M658.96,66.85c13.13,6.6,12.35,36.84-19.51,70.28c-51.09,53.63-116.77,17.2-116.77,17.2
					c-27.65-15.05-18.32-63.39,1.2-86.25s41.65-23.71,41.65-23.71"/>
				<path class="st4" d="M654.45,67.79c0,0-34.19,5.46-49.59-20.86C615.31,21.84,661.57,31.72,654.45,67.79z"/>
				<path class="st7" d="M658.93,96.09c-26.43,10.78-48.81,1.19-56.9-13.83c-8.54-15.87-5.93-30.92-3.2-42.82
					c-17.59-6.29-35.37-1.75-36.93,24.88c-1.56,26.63,23.02,79.24,81.66,67.84"/>
				<path class="st7" d="M508.77,138.44c0,0,31.93,106.15,128.3,64.57c65.36-28.2,37.81-109.2,32.4-115.52"/>
			</g>
		</g>
	</g>
	<g class="st1">
		<text transform="matrix(1 0 0 1 235.3669 575.0923)"><tspan x="0" y="0" class="st30 st31">Capitalism</tspan><tspan x="140.91" y="0" class="st30 st32"> </tspan><tspan x="145.95" y="0" class="st30 st31">Is</tspan><tspan x="167.76" y="0" class="st30 st32"> </tspan><tspan x="172.8" y="0" class="st30 st31">A</tspan><tspan x="193.56" y="0" class="st30 st33"> </tspan><tspan x="196.26" y="0" class="st30 st31">Virus</tspan><tspan x="265.68" y="0" class="st30 st33"> </tspan><tspan x="268.38" y="0" class="st30 st31">.</tspan><tspan x="275.34" y="0" class="st30 st33"> </tspan><tspan x="278.04" y="0" class="st30 st31">org</tspan></text>
	</g>
</g>
<g id="Layer_2_copy">
	<g>
		<path class="st68" d="M503.11,326.38c-0.26,0.27-0.52,0.53-0.77,0.8c0.05,0.09,0.09,0.17,0.14,0.25
			C502.68,327.08,502.89,326.73,503.11,326.38z"/>
		<path class="st68" d="M311.91,571.13c0,0.69,0.54,1.14,1.35,1.14c1.38,0,2.49-1.02,2.49-2.76v-0.21l-1.98,0.36
			C312.6,569.9,311.91,570.26,311.91,571.13z"/>
		<polygon class="st68" points="418.41,562.04 416.25,567.62 420.69,567.62 418.53,562.04 		"/>
		<path class="st68" d="M280.2,565.13c-1.65,0-2.7,1.26-2.7,3.18v0.18c0,1.95,1.05,3.21,2.7,3.21c1.89,0,2.76-1.35,2.76-3.3
			C282.96,566.48,282.09,565.13,280.2,565.13z"/>
		<path class="st68" d="M521.4,565.01c-1.71,0-2.43,1.38-2.43,3.39c0,2.01,0.72,3.39,2.43,3.39c1.68,0,2.43-1.38,2.43-3.39
			C523.83,566.39,523.08,565.01,521.4,565.01z"/>
		<path class="st68" d="M548.55,567.89c0.81,0,1.41-0.75,1.41-1.95c0-1.17-0.6-1.92-1.41-1.92c-0.81,0-1.41,0.75-1.41,1.92
			C547.14,567.14,547.74,567.89,548.55,567.89z"/>
		<path class="st68" d="M260.73,571.13c0,0.69,0.54,1.14,1.35,1.14c1.38,0,2.49-1.02,2.49-2.76v-0.21l-1.98,0.36
			C261.42,569.9,260.73,570.26,260.73,571.13z"/>
		<path class="st68" d="M550.86,575.69h-4.92c-0.54,0-0.9,0.3-0.9,0.81c0,0.96,1.35,1.23,3.15,1.23c2.25,0,3.9-0.45,3.9-1.26
			C552.09,575.9,551.67,575.69,550.86,575.69z"/>
		<path d="M674.61,83.1c-0.28-0.33-0.59-0.62-0.91-0.88c-0.06-1.65-0.22-3.26-0.5-4.82c-0.63-3.65-1.86-6.89-3.6-9.61c0,0,0,0,0,0
			c-0.25-0.39-0.51-0.78-0.79-1.15c-0.04-0.05-0.07-0.11-0.11-0.16c-0.26-0.35-0.54-0.69-0.82-1.02c-0.03-0.04-0.06-0.08-0.1-0.12
			c-0.3-0.34-0.6-0.67-0.92-0.99c-0.13-0.13-0.27-0.26-0.4-0.38c-0.19-0.18-0.39-0.37-0.59-0.54c-0.15-0.13-0.31-0.26-0.47-0.39
			c-0.2-0.16-0.4-0.32-0.61-0.48c-0.15-0.12-0.31-0.23-0.47-0.34c-0.24-0.17-0.49-0.33-0.75-0.49c-0.13-0.08-0.25-0.17-0.38-0.24
			c-0.39-0.24-0.79-0.46-1.21-0.67c-0.02-0.01-0.04-0.02-0.05-0.02c0.13-17.59-11.33-29.07-24.18-32.97
			c-14.06-4.27-26.05,0.08-33.39,7.77c-0.16-0.23-0.34-0.45-0.53-0.66c-0.03-0.03-0.05-0.06-0.08-0.09
			c-0.22-0.23-0.45-0.45-0.7-0.65c-0.04-0.03-0.08-0.06-0.11-0.09c-0.25-0.2-0.52-0.38-0.81-0.54c-0.03-0.02-0.07-0.03-0.1-0.05
			c-0.3-0.16-0.62-0.31-0.95-0.43c-0.83-0.3-1.66-0.57-2.48-0.82c-0.27-0.08-0.53-0.15-0.79-0.23c-0.55-0.16-1.1-0.31-1.65-0.45
			c-0.31-0.08-0.62-0.15-0.93-0.22c-0.51-0.12-1.01-0.23-1.51-0.33c-0.3-0.06-0.59-0.11-0.88-0.17c-0.55-0.1-1.09-0.18-1.63-0.26
			c-0.22-0.03-0.44-0.06-0.66-0.09c-0.71-0.09-1.42-0.16-2.12-0.21c-0.03,0-0.07-0.01-0.1-0.01c-7.29-0.52-13.88,0.99-19.23,4.53
			c-1.14,0.75-2.33,1.68-3.52,2.81c-0.11,0-0.21-0.01-0.32,0c-1.02,0.04-25.33,1.26-46.52,26.07
			c-15.04,17.61-23.07,45.97-19.1,67.44c0.65,3.5,1.6,6.76,2.84,9.79c1.86,5.87,17.72,52.32,57.73,70.94
			c0.92,0.43,1.84,0.83,2.77,1.22c-6.63,15.57-18.01,38.4-36.04,63.61c4.09-12.7,12.26-47.71-12.31-70.87
			c-30.47-28.73-68.32-15.05-71.78-54.15c-38.14,44.24-6.52,99,21.42,113.37c24.19,12.43,44.35,5.55,59.75,15.67
			c-8.67,11.77-18.79,24-30.53,36.19c-2.91-2.13-6.1-3.64-9.37-4.52c0.23-5.31-0.82-10.13-3.19-14.37
			c-2.47-4.42-7.15-7.2-13.93-8.26c-25.5-3.98-82.37,16.68-105.64,25.75c-33.69,13.13-75.58,32.59-91.39,45.61
			c-22.87-0.44-151.46-10.09-218.95-15.34c-3.72-0.3-6.96,2.49-7.25,6.2c-0.29,3.72,2.49,6.96,6.2,7.25
			c0.11,0.01,0.26,0.02,0.44,0.03c12.91,1,197.96,15.36,221.23,15.36c0.39,0,0.74,0,1.04-0.01c1.65-0.05,3.22-0.69,4.42-1.82
			c10.55-9.87,47.93-28.63,88.87-44.61c1.64-0.64,3.27-1.27,4.89-1.89c-2.26,4.4-3.25,9.33-2.81,14.36
			c0.62,7.03,3.97,13.8,9.72,19.7c-18.12-5.19-32.33,2.54-37.45,13.78c-4.62,10.15-2.42,23.89,11.53,34.14
			c-17.1,7.39-35,13.86-53.29,19.22c-3.58,1.05-5.63,4.8-4.58,8.38c0.86,2.94,3.55,4.85,6.47,4.85c0.63,0,1.27-0.09,1.9-0.27
			c19.79-5.81,39.16-12.86,57.59-20.97l1.13,2.83c-4.76,2.59-11.86,7.12-20.25,14.58c-2.78,2.48-3.03,6.74-0.56,9.53
			c2.48,2.78,6.74,3.03,9.53,0.56c12.98-11.55,22.05-14.9,22.1-14.91c1.74-0.6,3.17-1.89,3.93-3.57s0.81-3.6,0.13-5.31l-7.59-19.01
			c-0.6-1.51-1.74-2.76-3.19-3.5c-13.23-6.78-15.04-15.52-12.58-20.94c3.84-8.44,15.48-9,24.99-5.19
			c12.65,5.07,22.48,18.52,28.87,31.81l2.5,5.6c0,0.01,0.01,0.01,0.01,0.02c2.9,7.01,4.79,13.63,5.56,18.53
			c2,12.75-20.84,55.58-64.31,75.64c-0.14,0.06-0.29,0.12-0.43,0.19c-23.08,10.44-68.68,8.82-114.64-19.43c-1.09-0.67-2.36-1-3.62-1
			l-178.06,2.28l-3.06,0.04c-3.73,0.05-6.71,3.11-6.66,6.83c0.05,3.7,3.06,6.66,6.75,6.66c0.03,0,0.06,0,0.09,0l179.19-2.3
			c31.29,18.83,62.22,26.37,87.55,26.37c14.47,0,27.1-2.46,36.93-6.68c9.83-0.09,20.82-2.99,31.29-6.95
			c0.49,0.29,1.01,0.53,1.58,0.69c3.77,1.08,8.1,1.62,12.89,1.62c15.35,0,35.37-5.46,56.32-15.62c0.87-0.42,1.79-0.87,2.75-1.32
			c14.15-6.8,35.54-17.09,48.48-33.95c12.28-16,14.49-34.48,13.77-45.67c10.58-11.58,16-22.7,22.36-35.76l0.1-0.21
			c2.18-4.48,5.12-10.43,8.43-17.13c9.97-20.18,23.62-47.81,29.74-62.01c8.78-20.38-0.16-35.67-12.18-41.25
			c-4.79-2.22-10.01-3.01-15.15-2.34c9.83-16.44,16.7-30.92,21.29-41.9c6.08,1.41,12.35,2.13,18.8,2.13
			c14.11,0,29.09-3.38,44.81-10.14c0.02-0.01,0.05-0.02,0.07-0.03c23.52-9.63,37.5-25.08,43.59-48.83c0.33-1.18,0.64-2.38,0.93-3.59
			c1.42-6.1,2.15-12.31,2.37-18.4c0.02-0.34,0.05-0.67,0.07-1.01c0.88-15.88-1.9-29.45-5.42-39.5
			C678.91,90.54,676.41,85.2,674.61,83.1z M503.11,326.38c-0.21,0.35-0.42,0.7-0.63,1.05c-0.05-0.09-0.09-0.17-0.14-0.25
			C502.59,326.91,502.85,326.64,503.11,326.38z M464.71,303.06c3.65,0.54,4.43,1.52,4.43,1.53c1.18,2.11,1.67,4.68,1.48,7.66
			c-12.51,3.25-23.11,16.29-19.87,39.32c0.27,1.89,0.54,3.82,0.81,5.76c-9.73-17.66-21.26-27.4-35.9-38.65
			c-2.84-2.18-5.72-3.82-8.59-4.99C433.53,305.47,454.28,301.53,464.71,303.06z M390.42,495.51c25.6-22.92,39.87-51.71,37.45-67.11
			c-0.86-5.51-2.98-13.33-6.55-21.88c-0.01-0.02-0.02-0.05-0.03-0.07l-0.03-0.08c-0.7-1.67-1.46-3.37-2.27-5.09l-11.11-24.91
			c-0.23-0.53-0.54-1.02-0.9-1.47l-17.79-22.19c-0.21-0.26-0.43-0.5-0.67-0.72c-5.84-5.43-10.39-14.47-3.97-22.05
			c4.48-5.3,13.56-7.73,22.89-0.57c15.72,12.08,26.72,21.52,36.04,41.92c11.91,26.06,22.35,59.15,15.96,73.88
			C454.57,456.42,421.45,481.44,390.42,495.51z M496.86,455.35c-10.99,14.32-30.63,23.76-43.63,30.01c-0.97,0.47-1.9,0.91-2.79,1.34
			c-13.62,6.6-27.09,11.12-38.44,13.12c4.49-2.45,8.32-4.7,11.18-6.45c18.86-11.52,42.92-29.65,48.63-42.81
			c2.47-5.68,4.67-16.42,1.02-35.15c0.14-0.72,0.18-1.47,0.07-2.23c-0.05-0.36-4.92-35.89-8.81-63.49
			c-1.89-13.47,2.36-23.12,10.85-24.59c6.89-1.18,15.45,3.65,17.77,14.95c2.12,10.34,4.87,24.62,7.53,38.43
			c2.74,14.24,5.33,27.68,7.13,36.31C508.6,420.66,509.11,439.4,496.86,455.35z M564.11,273.77c6.02,2.8,11.07,10.68,5.47,23.67
			c-5.98,13.88-19.54,41.33-29.45,61.37c-3.32,6.73-6.28,12.7-8.47,17.2l-0.1,0.22c-4.35,8.93-8.09,16.6-13.35,24.03
			c-1.41-7.18-3.04-15.61-4.71-24.34c-2.05-10.65-4.15-21.56-5.98-30.78c12.75-20.94,29.48-48.92,36.36-62.7
			C548.91,272.37,557.89,270.89,564.11,273.77z M633.84,40.74c7.68,2.33,15.01,8.96,14.58,20.78c-8.45,0.25-25.56-1.12-35.72-14.94
			C617.35,39.93,626.41,38.49,633.84,40.74z M603.01,56.14c12.96,16.28,32.59,18.89,43.83,18.89c4.91,0,8.23-0.5,8.67-0.57
			c0.62-0.1,1.21-0.3,1.77-0.55c1.64,1.65,2.34,4.22,2.62,5.81c0.53,3.05,0.45,6.31-0.13,9.69c-1.12-0.14-2.28-0.01-3.4,0.44
			c-22.93,9.36-41.71,1.66-48.4-10.78C603.7,71.12,602.63,63.48,603.01,56.14z M568.64,64.72c0.51-8.6,2.84-14.62,6.95-17.93
			l0.28,0.07c4.41-3.49,10.16-3.55,15.03-2.62c-1.98,10.43-3.23,25.58,5.19,41.22c8.8,16.35,31.17,27.38,58.34,19.34
			c-3.68,7.39-8.72,14.69-13.99,21.05c-19.73,3.41-36.48-0.74-49.78-12.37C575.13,99.89,567.82,78.66,568.64,64.72z M515.17,136.32
			c-0.1-0.3-0.22-0.59-0.36-0.87c-0.81-2.07-1.45-4.32-1.9-6.76c-3.24-17.51,3.68-41.68,16.09-56.22
			c10.02-11.74,20.62-17.03,27.86-19.41c-0.85,3.15-1.46,6.75-1.7,10.88c-0.98,16.69,6.93,42.49,26.62,59.71
			c9.13,7.99,23.61,16.38,44.25,16.82c-17.87,14.83-38.99,21.14-62.94,18.72c-21.28-2.14-36.99-10.67-37.18-10.78
			C521.07,145.77,517.48,141.72,515.17,136.32z M673.04,137.64c-0.4,6.36-1.17,12.14-2.36,17.4c-0.17,0.69-0.35,1.38-0.54,2.07
			c-5.2,18.35-17.22,31.7-35.73,39.69c-25.96,10.6-49.21,11.2-69.1,1.76c-16.54-7.85-28.42-21.51-36.45-34.02
			c7.46,2.96,18.82,6.58,32.34,8.01c3.55,0.37,7.34,0.6,11.35,0.6c21.2,0,48-6.39,71.79-31.37c11.53-12.11,19.97-24.75,24.78-36.66
			C671.39,113.64,673.44,125.28,673.04,137.64z"/>
		<path d="M245.7,560.36c2.94,0,4.08,1.95,4.38,4.05l4.89-0.18c-0.36-4.71-3.45-8.4-9.24-8.4c-5.52,0-9.69,3.99-9.69,9.81
			s4.17,9.81,9.69,9.81c5.79,0,8.88-3.66,9.24-8.37l-4.89-0.21c-0.3,2.1-1.44,4.05-4.38,4.05c-2.79,0-4.41-2.07-4.41-5.28
			S242.91,560.36,245.7,560.36z"/>
		<path d="M269.34,571.16v-4.56c0-3.72-2.61-5.25-6.15-5.25c-4.02,0-6.21,2.04-6.63,4.98l4.5,0.3c0.21-0.99,0.75-1.68,1.83-1.68
			c1.17,0,1.68,0.66,1.68,1.77v0.21l-3.75,0.63c-2.91,0.51-4.77,1.62-4.77,4.2c0,2.28,1.71,3.63,4.32,3.63
			c2.13,0,3.66-0.81,4.44-2.37c0.45,1.53,1.74,2.37,3.39,2.37c1.38,0,2.34-0.39,3.03-0.87v-2.58c-0.39,0.15-0.69,0.21-1.08,0.21
			C269.64,572.15,269.34,571.85,269.34,571.16z M264.57,569.51c0,1.74-1.11,2.76-2.49,2.76c-0.81,0-1.35-0.45-1.35-1.14
			c0-0.87,0.69-1.23,1.86-1.47l1.98-0.36V569.51z"/>
		<path d="M281.91,561.35c-2.25,0-3.75,1.08-4.41,2.67v-2.31h-4.86v18.18h4.86v-7.08c0.66,1.56,2.16,2.64,4.41,2.64
			c3.93,0,5.94-3.09,5.94-7.05C287.85,564.47,285.84,561.35,281.91,561.35z M280.2,571.7c-1.65,0-2.7-1.26-2.7-3.21v-0.18
			c0-1.92,1.05-3.18,2.7-3.18c1.89,0,2.76,1.35,2.76,3.27C282.96,570.35,282.09,571.7,280.2,571.7z"/>
		<rect x="289.74" y="556.19" width="4.92" height="4.26"/>
		<rect x="289.77" y="561.71" width="4.86" height="13.38"/>
		<path d="M302.55,569.96v-4.89h3.48v-3.36h-3.48v-3.69h-3.06l-0.45,1.74c-0.33,1.23-0.75,1.95-2.1,2.16l-0.99,0.15v3h1.8v6.3
			c0,3.15,2.13,4.08,4.38,4.08c1.83,0,3-0.45,4.02-1.2v-3.15c-0.81,0.33-1.47,0.45-2.07,0.45
			C303.09,571.55,302.55,571.1,302.55,569.96z"/>
		<path d="M320.52,571.16v-4.56c0-3.72-2.61-5.25-6.15-5.25c-4.02,0-6.21,2.04-6.63,4.98l4.5,0.3c0.21-0.99,0.75-1.68,1.83-1.68
			c1.17,0,1.68,0.66,1.68,1.77v0.21l-3.75,0.63c-2.91,0.51-4.77,1.62-4.77,4.2c0,2.28,1.71,3.63,4.32,3.63
			c2.13,0,3.66-0.81,4.44-2.37c0.45,1.53,1.74,2.37,3.39,2.37c1.38,0,2.34-0.39,3.03-0.87v-2.58c-0.39,0.15-0.69,0.21-1.08,0.21
			C320.82,572.15,320.52,571.85,320.52,571.16z M315.75,569.51c0,1.74-1.11,2.76-2.49,2.76c-0.81,0-1.35-0.45-1.35-1.14
			c0-0.87,0.69-1.23,1.86-1.47l1.98-0.36V569.51z"/>
		<rect x="323.82" y="556.19" width="4.86" height="18.9"/>
		<rect x="331.32" y="561.71" width="4.86" height="13.38"/>
		<rect x="331.29" y="556.19" width="4.92" height="4.26"/>
		<path d="M346.05,566.57l-2.61-0.45c-0.45-0.06-0.81-0.3-0.81-0.75c0-0.6,0.54-0.96,1.47-0.96c1.5,0,2.34,0.6,2.52,1.56l3.99-0.12
			c-0.27-2.79-2.55-4.5-6.42-4.5c-3.75,0-6.06,1.89-6.06,4.53c0,2.73,1.71,3.78,4.95,4.29l1.98,0.3c0.93,0.15,1.23,0.51,1.23,1.02
			c0,0.54-0.57,0.93-1.65,0.93c-1.47,0-2.37-0.63-2.55-1.74l-4.23,0.06c0.27,3.24,3.03,4.71,6.72,4.71c3.81,0,6.21-1.62,6.21-4.44
			C350.79,568.4,349.05,567.05,346.05,566.57z"/>
		<path d="M370.41,561.35c-2.25,0-3.84,1.14-4.56,2.64c-0.57-1.56-1.8-2.64-4.17-2.64c-2.01,0-3.45,0.9-4.17,2.37v-2.01h-4.86v13.38
			h4.86v-6.57c0-2.01,0.57-3.33,2.16-3.33c1.47,0,1.83,0.96,1.83,2.79v7.11h4.86v-6.57c0-2.01,0.54-3.33,2.16-3.33
			c1.47,0,1.8,0.96,1.8,2.79v7.11h4.86v-8.4C375.18,563.9,374.1,561.35,370.41,561.35z"/>
		<rect x="382.83" y="556.19" width="5.1" height="18.9"/>
		<path d="M397.92,566.57l-2.61-0.45c-0.45-0.06-0.81-0.3-0.81-0.75c0-0.6,0.54-0.96,1.47-0.96c1.5,0,2.34,0.6,2.52,1.56l3.99-0.12
			c-0.27-2.79-2.55-4.5-6.42-4.5c-3.75,0-6.06,1.89-6.06,4.53c0,2.73,1.71,3.78,4.95,4.29l1.98,0.3c0.93,0.15,1.23,0.51,1.23,1.02
			c0,0.54-0.57,0.93-1.65,0.93c-1.47,0-2.37-0.63-2.55-1.74l-4.23,0.06c0.27,3.24,3.03,4.71,6.72,4.71c3.81,0,6.21-1.62,6.21-4.44
			C402.66,568.4,400.92,567.05,397.92,566.57z"/>
		<path d="M415.77,556.19l-7.53,18.9h5.13l1.41-3.66h7.38l1.41,3.66H429l-7.53-18.9H415.77z M416.25,567.62l2.16-5.58h0.12
			l2.16,5.58H416.25z"/>
		<polygon points="441.84,568.76 441.72,568.76 437.04,556.19 431.7,556.19 438.96,575.09 444.33,575.09 451.59,556.19 
			446.52,556.19 		"/>
		<rect x="452.91" y="561.71" width="4.86" height="13.38"/>
		<rect x="452.88" y="556.19" width="4.92" height="4.26"/>
		<path d="M465.27,564.08v-2.37h-4.86v13.38h4.86v-6.12c0-2.25,1.11-3.09,2.91-3.09c0.93,0,1.65,0.18,2.31,0.57l0.3-4.59
			c-0.33-0.27-1.05-0.51-1.86-0.51C467.16,561.35,465.75,562.58,465.27,564.08z"/>
		<path d="M481.11,568.28c0,2.04-0.6,3.36-2.13,3.36c-1.47,0-1.98-0.99-1.98-2.79v-7.14h-4.86v8.43c0,2.79,1.11,5.31,4.77,5.31
			c2.01,0,3.48-0.87,4.2-2.37v2.01h4.86v-13.38h-4.86V568.28z"/>
		<path d="M495.84,566.57l-2.61-0.45c-0.45-0.06-0.81-0.3-0.81-0.75c0-0.6,0.54-0.96,1.47-0.96c1.5,0,2.34,0.6,2.52,1.56l3.99-0.12
			c-0.27-2.79-2.55-4.5-6.42-4.5c-3.75,0-6.06,1.89-6.06,4.53c0,2.73,1.71,3.78,4.95,4.29l1.98,0.3c0.93,0.15,1.23,0.51,1.23,1.02
			c0,0.54-0.57,0.93-1.65,0.93c-1.47,0-2.37-0.63-2.55-1.74l-4.23,0.06c0.27,3.24,3.03,4.71,6.72,4.71c3.81,0,6.21-1.62,6.21-4.44
			C500.58,568.4,498.84,567.05,495.84,566.57z"/>
		<rect x="504.72" y="569.93" width="5.16" height="5.16"/>
		<path d="M521.4,561.35c-4.38,0-7.32,2.91-7.32,7.05c0,4.17,2.94,7.05,7.32,7.05c4.35,0,7.32-2.88,7.32-7.05
			C528.72,564.26,525.75,561.35,521.4,561.35z M521.4,571.79c-1.71,0-2.43-1.38-2.43-3.39c0-2.01,0.72-3.39,2.43-3.39
			c1.68,0,2.43,1.38,2.43,3.39C523.83,570.41,523.08,571.79,521.4,571.79z"/>
		<path d="M535.5,564.08v-2.37h-4.86v13.38h4.86v-6.12c0-2.25,1.11-3.09,2.91-3.09c0.93,0,1.65,0.18,2.31,0.57l0.3-4.59
			c-0.33-0.27-1.05-0.51-1.86-0.51C537.39,561.35,535.98,562.58,535.5,564.08z"/>
		<path d="M552,571.55h-5.55c-0.81,0-1.14-0.36-1.14-0.81c0-0.27,0.09-0.48,0.27-0.63c0.87,0.27,1.83,0.39,2.91,0.39
			c3.78,0,6.51-1.74,6.51-4.56c0-0.63-0.15-1.2-0.42-1.71c0.66-0.15,1.38-0.21,1.95-0.21v-3.66c-1.47,0-2.94,0.96-3.75,2.07
			c-1.14-0.69-2.67-1.08-4.29-1.08c-3.75,0-6.45,1.74-6.45,4.59c0,1.47,0.72,2.61,1.92,3.39c-1.44,0.54-2.28,1.53-2.28,2.82
			c0,1.14,0.72,2.22,1.92,2.61c-1.5,0.12-2.55,1.05-2.55,2.22c0,2.52,3.3,3.27,7.11,3.27c4.35,0,8.4-1.53,8.4-4.86
			C556.56,573.14,555.03,571.55,552,571.55z M548.55,564.02c0.81,0,1.41,0.75,1.41,1.92c0,1.2-0.6,1.95-1.41,1.95
			c-0.81,0-1.41-0.75-1.41-1.95C547.14,564.77,547.74,564.02,548.55,564.02z M548.19,577.73c-1.8,0-3.15-0.27-3.15-1.23
			c0-0.51,0.36-0.81,0.9-0.81h4.92c0.81,0,1.23,0.21,1.23,0.78C552.09,577.28,550.44,577.73,548.19,577.73z"/>
	</g>
</g>
</svg>
