<?xml version="1.0" encoding="utf-8"?>
<!-- Generator: Adobe Illustrator 23.1.1, SVG Export Plug-In . SVG Version: 6.00 Build 0)  -->
<svg version="1.1" xmlns="http://www.w3.org/2000/svg" xmlns:xlink="http://www.w3.org/1999/xlink" x="0px" y="0px"
	 viewBox="0 0 792 612" style="enable-background:new 0 0 792 612;" xml:space="preserve">
<style type="text/css">
	.st0{display:none;}
	.st1{display:inline;}
	.st2{display:inline;fill:#FFD600;}
	.st3{display:inline;fill:#FFFFFF;}
	.st4{fill:#FFFFFF;stroke:#000000;stroke-width:13.497;stroke-linecap:round;stroke-linejoin:round;stroke-miterlimit:10;}
	.st5{fill:#FFFFFF;}
	.st6{stroke:#000000;stroke-width:18.3348;stroke-linecap:round;stroke-miterlimit:10;}
	.st7{fill:none;stroke:#000000;stroke-width:13.497;stroke-linecap:round;stroke-linejoin:round;stroke-miterlimit:10;}
	.st8{stroke:#000000;stroke-width:18.3348;stroke-linecap:round;stroke-linejoin:round;stroke-miterlimit:10;}
	.st9{fill:#FFFFFF;stroke:#000000;stroke-width:13.497;stroke-miterlimit:10;}
	.st10{fill:none;stroke:#000000;stroke-width:13.497;stroke-miterlimit:10;}
	.st11{fill:none;stroke:#000000;stroke-width:30.5612;stroke-linecap:round;stroke-linejoin:round;stroke-miterlimit:10;}
	.st12{fill:#FFFFFF;stroke:#000000;stroke-width:16.2993;stroke-linecap:round;stroke-linejoin:round;stroke-miterlimit:10;}
	.st13{fill:#FFFFFF;stroke:#000000;stroke-width:16;stroke-linecap:round;stroke-linejoin:round;stroke-miterlimit:10;}
	.st14{font-family:'FoundersGrotesk-Bold';}
	.st15{font-size:116px;}
	.st16{font-size:250.9245px;}
	.st17{letter-spacing:6;}
	.st18{fill:#FFFFFF;stroke:#000000;stroke-width:11.7326;stroke-linecap:round;stroke-linejoin:round;stroke-miterlimit:10;}
	.st19{fill:#FFFFFF;stroke:#000000;stroke-width:13.2623;stroke-linecap:round;stroke-linejoin:round;stroke-miterlimit:10;}
	.st20{fill:#FFFFFF;stroke:#000000;stroke-width:13.2623;stroke-linecap:round;stroke-miterlimit:10;}
	.st21{stroke:#000000;stroke-width:4.5213;stroke-miterlimit:10;}
	.st22{fill:#FFFFFF;stroke:#000000;stroke-width:14;stroke-linecap:round;stroke-linejoin:round;stroke-miterlimit:10;}
	.st23{fill:#FFFFFF;stroke:#000000;stroke-width:16.6693;stroke-miterlimit:10;}
	.st24{stroke:#000000;stroke-width:16.6693;stroke-linecap:round;stroke-miterlimit:10;}
	.st25{fill:#FFFFFF;stroke:#000000;stroke-width:13.497;stroke-linecap:round;stroke-miterlimit:10;}
	.st26{fill:none;stroke:#000000;stroke-width:13.497;stroke-linecap:round;stroke-miterlimit:10;}
	.st27{fill:#FFFFFF;stroke:#000000;stroke-width:15.2362;stroke-linecap:round;stroke-linejoin:round;stroke-miterlimit:10;}
	.st28{fill:#FFFFFF;stroke:#000000;stroke-width:14.8467;stroke-linecap:round;stroke-linejoin:round;stroke-miterlimit:10;}
	.st29{stroke:#000000;stroke-width:20.1683;stroke-linecap:round;stroke-miterlimit:10;}
	.st30{fill:none;stroke:#000000;stroke-width:14.8467;stroke-linecap:round;stroke-linejoin:round;stroke-miterlimit:10;}
	.st31{font-size:30px;}
	.st32{font-size:28px;}
	.st33{font-size:15px;}
	.st34{fill:#FFFFFF;stroke:#000000;stroke-width:12.2439;stroke-linecap:round;stroke-linejoin:round;stroke-miterlimit:10;}
	.st35{fill:none;stroke:#000000;stroke-width:11.5;stroke-linecap:round;stroke-linejoin:round;stroke-miterlimit:10;}
	.st36{fill:#FFFFFF;stroke:#000000;stroke-width:11.5;stroke-linecap:round;stroke-linejoin:round;stroke-miterlimit:10;}
	.st37{fill:#FFFFFF;stroke:#000000;stroke-width:15.3;stroke-linecap:round;stroke-linejoin:round;stroke-miterlimit:10;}
	
		.st38{display:inline;fill:#FFFFFF;stroke:#000000;stroke-width:15.3;stroke-linecap:round;stroke-linejoin:round;stroke-miterlimit:10;}
	.st39{fill:#FFFFFF;stroke:#FFFFFF;stroke-width:3;stroke-miterlimit:10;}
	.st40{fill:#FFFFFF;stroke:#000000;stroke-width:13.3058;stroke-linecap:round;stroke-linejoin:round;stroke-miterlimit:10;}
	.st41{fill:#06F6FC;}
	.st42{display:inline;fill:#FF9C1A;}
	.st43{fill:#FFFFFF;stroke:#000000;stroke-width:15.2517;stroke-linecap:round;stroke-linejoin:round;stroke-miterlimit:10;}
	.st44{stroke:#000000;stroke-width:3;stroke-miterlimit:10;}
	.st45{fill:#06DCFF;}
	.st46{fill:#FFD600;}
	.st47{fill:#F9415C;}
	.st48{fill:#7D7DFF;}
	.st49{fill:#A8D600;}
	.st50{fill:#FF9C1A;}
	.st51{fill:#FF00A9;}
	
		.st52{display:inline;fill:#FFFFFF;stroke:#000000;stroke-width:14;stroke-linecap:round;stroke-linejoin:round;stroke-miterlimit:10;}
	.st53{fill:none;stroke:#000000;stroke-width:10;stroke-linecap:round;stroke-linejoin:round;stroke-miterlimit:10;}
	.st54{fill:#FFFFFF;stroke:#000000;stroke-width:12.3365;stroke-linecap:round;stroke-linejoin:round;stroke-miterlimit:10;}
	.st55{fill:none;stroke:#000000;stroke-width:13.3073;stroke-linecap:round;stroke-linejoin:round;stroke-miterlimit:10;}
	.st56{fill:#FFFFFF;stroke:#000000;stroke-width:13.3073;stroke-linecap:round;stroke-linejoin:round;stroke-miterlimit:10;}
	.st57{stroke:#000000;stroke-width:13.3073;stroke-linecap:round;stroke-linejoin:round;stroke-miterlimit:10;}
	.st58{stroke:#FFFFFF;stroke-width:13.3073;stroke-linecap:round;stroke-linejoin:round;stroke-miterlimit:10;}
	.st59{fill:#FFFFFF;stroke:#000000;stroke-width:10;stroke-linecap:round;stroke-linejoin:round;stroke-miterlimit:10;}
	.st60{fill:#FFFFFF;stroke:#000000;stroke-width:15;stroke-linecap:round;stroke-linejoin:round;stroke-miterlimit:10;}
	.st61{fill:none;stroke:#000000;stroke-width:15;stroke-linecap:round;stroke-linejoin:round;stroke-miterlimit:10;}
	.st62{display:inline;fill:none;stroke:#000000;stroke-width:15;stroke-linecap:round;stroke-linejoin:round;stroke-miterlimit:10;}
	
		.st63{display:inline;fill:#FFFFFF;stroke:#000000;stroke-width:15;stroke-linecap:round;stroke-linejoin:round;stroke-miterlimit:10;}
	.st64{stroke:#FFFFFF;stroke-width:15;stroke-linecap:round;stroke-linejoin:round;stroke-miterlimit:10;}
	
		.st65{display:inline;fill:none;stroke:#000000;stroke-width:13.7295;stroke-linecap:round;stroke-linejoin:round;stroke-miterlimit:10;}
	.st66{fill:#FFFFFF;stroke:#000000;stroke-width:12.7279;stroke-linecap:round;stroke-linejoin:round;stroke-miterlimit:10;}
	.st67{fill:#FFFFFF;stroke:#000000;stroke-width:13.7295;stroke-linecap:round;stroke-linejoin:round;stroke-miterlimit:10;}
	.st68{fill:none;stroke:#000000;stroke-width:12.7279;stroke-linecap:round;stroke-linejoin:round;stroke-miterlimit:10;}
	.st69{clip-path:url(#SVGID_4_);}
	.st70{stroke:#FFFFFF;stroke-width:13.7894;stroke-linecap:round;stroke-linejoin:round;stroke-miterlimit:10;}
	.st71{fill:none;}
	.st72{fill:none;stroke:#000000;stroke-width:13.7295;stroke-linecap:round;stroke-linejoin:round;stroke-miterlimit:10;}
	.st73{clip-path:url(#SVGID_6_);}
</style>
<g id="Layer_1" class="st0">
</g>
<g id="Layer_2" class="st0">
	<g class="st1">
		<text transform="matrix(1 0 0 1 46.1495 361.6824)" class="st14 st15">for SOMEONE</text>
	</g>
	<text transform="matrix(1 0 0 1 -4.9048 493.1426)" class="st1 st14 st15">You Don’t Know</text>
	<text transform="matrix(1 0 0 1 22.3896 227.1787)" class="st1 st14 st16 st17">FIGHT</text>
	<g class="st1">
		<text transform="matrix(1 0 0 1 235.3669 575.0923)"><tspan x="0" y="0" class="st14 st31">Capitalism</tspan><tspan x="140.91" y="0" class="st14 st32"> </tspan><tspan x="145.95" y="0" class="st14 st31">Is</tspan><tspan x="167.76" y="0" class="st14 st32"> </tspan><tspan x="172.8" y="0" class="st14 st31">A</tspan><tspan x="193.56" y="0" class="st14 st33"> </tspan><tspan x="196.26" y="0" class="st14 st31">Virus</tspan><tspan x="265.68" y="0" class="st14 st33"> </tspan><tspan x="268.38" y="0" class="st14 st31">.</tspan><tspan x="275.34" y="0" class="st14 st33"> </tspan><tspan x="278.04" y="0" class="st14 st31">org</tspan></text>
	</g>
</g>
<g id="Layer_2_copy">
	<g>
		<path class="st71" d="M550.86,575.69h-4.92c-0.54,0-0.9,0.3-0.9,0.81c0,0.96,1.35,1.23,3.15,1.23c2.25,0,3.9-0.45,3.9-1.26
			C552.09,575.9,551.67,575.69,550.86,575.69z"/>
		<path class="st71" d="M548.55,567.89c0.81,0,1.41-0.75,1.41-1.95c0-1.17-0.6-1.92-1.41-1.92c-0.81,0-1.41,0.75-1.41,1.92
			C547.14,567.14,547.74,567.89,548.55,567.89z"/>
		<path class="st71" d="M521.4,565.01c-1.71,0-2.43,1.38-2.43,3.39c0,2.01,0.72,3.39,2.43,3.39c1.68,0,2.43-1.38,2.43-3.39
			C523.83,566.39,523.08,565.01,521.4,565.01z"/>
		<path class="st71" d="M668.58,454.17c-6.61,0-9.4,5.34-9.4,13.11c0,7.77,2.78,13.11,9.4,13.11c6.5,0,9.4-5.34,9.4-13.11
			C677.98,459.5,675.08,454.17,668.58,454.17z"/>
		<path class="st71" d="M260.73,571.13c0,0.69,0.54,1.14,1.35,1.14c1.38,0,2.49-1.02,2.49-2.76v-0.21l-1.98,0.36
			C261.42,569.9,260.73,570.26,260.73,571.13z"/>
		<path class="st71" d="M263.75,456.49c0-13.22-7.54-20.88-20.3-20.88h-7.77v41.99h7.77C256.21,477.6,263.75,469.94,263.75,456.49z"
			/>
		<path class="st71" d="M323.56,304.61c-10.79,0-17.63,8.12-17.63,20.53c0,12.41,6.84,20.53,17.63,20.53
			c10.79,0,17.63-8.12,17.63-20.53C341.19,312.73,334.35,304.61,323.56,304.61z"/>
		<path class="st71" d="M95.78,454.17c-6.61,0-9.4,5.34-9.4,13.11c0,7.77,2.78,13.11,9.4,13.11c6.5,0,9.4-5.34,9.4-13.11
			C105.18,459.5,102.28,454.17,95.78,454.17z"/>
		<path class="st71" d="M317.57,480.38c6.5,0,9.4-5.34,9.4-13.11c0-7.77-2.9-13.11-9.4-13.11c-6.61,0-9.4,5.34-9.4,13.11
			C308.17,475.05,310.96,480.38,317.57,480.38z"/>
		<path class="st71" d="M311.91,571.13c0,0.69,0.54,1.14,1.35,1.14c1.38,0,2.49-1.02,2.49-2.76v-0.21l-1.98,0.36
			C312.6,569.9,311.91,570.26,311.91,571.13z"/>
		<path class="st71" d="M280.2,565.13c-1.65,0-2.7,1.26-2.7,3.18v0.18c0,1.95,1.05,3.21,2.7,3.21c1.89,0,2.76-1.35,2.76-3.3
			C282.96,566.48,282.09,565.13,280.2,565.13z"/>
		<polygon class="st71" points="418.41,562.04 416.25,567.62 420.69,567.62 418.53,562.04 		"/>
		<path class="st71" d="M115.57,348.92c6.5,0,9.4-5.34,9.4-13.11c0-7.77-2.9-13.11-9.4-13.11c-6.61,0-9.4,5.34-9.4,13.11
			C106.18,343.59,108.96,348.92,115.57,348.92z"/>
		<path class="st71" d="M561.59,345.67c10.79,0,17.63-8.12,17.63-20.53c0-12.41-6.84-20.53-17.63-20.53s-17.63,8.12-17.63,20.53
			C543.96,337.55,550.8,345.67,561.59,345.67z"/>
		<path d="M77.06,300.67c2.44,0,3.83,1.28,4.99,3.6l11.48-3.6c-2.09-8.58-8.82-13.46-18.56-13.46c-12.41,0-20.76,7.08-20.76,20.53
			v2.2h-7.42v12.99h7.42v38.74h18.56v-38.74h13.11v-12.99H72.77v-3.48C72.77,303.22,73.93,300.67,77.06,300.67z"/>
		<path d="M115.57,363.07c16.82,0,28.3-11.14,28.3-27.26c0-16.01-11.48-27.26-28.3-27.26c-16.94,0-28.3,11.25-28.3,27.26
			C87.27,351.94,98.64,363.07,115.57,363.07z M115.57,322.71c6.5,0,9.4,5.34,9.4,13.11c0,7.77-2.9,13.11-9.4,13.11
			c-6.61,0-9.4-5.34-9.4-13.11C106.18,328.04,108.96,322.71,115.57,322.71z"/>
		<path d="M170.09,319.11v-9.16H151.3v51.74h18.79v-23.66c0-8.7,4.29-11.95,11.25-11.95c3.6,0,6.38,0.7,8.93,2.2l1.16-17.75
			c-1.28-1.04-4.06-1.97-7.19-1.97C177.4,308.56,171.95,313.31,170.09,319.11z"/>
		<path d="M249.32,347.53c-8.12,0-15.2-3.13-15.89-12.29l-18.1,0.58c0,17.63,14.15,27.26,33.99,27.26
			c17.05,0,30.51-7.77,30.51-23.32c0-11.95-6.96-19.95-22.27-22.62l-13.8-2.44c-4.52-0.81-7.31-2.09-7.31-5.45
			c0-4.06,3.71-6.61,10.21-6.61c7.54,0,12.99,3.48,13.57,11.02l18.1-0.35c-0.35-16.24-11.25-26.1-31.44-26.1
			c-18.21,0-29.81,8.93-29.81,23.78c0,12.76,8.35,19.49,20.3,21.69l13.34,2.32c5.57,1.04,9.86,1.74,9.86,6.03
			C260.57,345.09,256.16,347.53,249.32,347.53z"/>
		<path d="M323.56,287.21c-21.23,0-37.93,15.43-37.93,37.93c0,22.5,16.7,37.93,37.93,37.93s37.93-15.43,37.93-37.93
			C361.49,302.64,344.79,287.21,323.56,287.21z M323.56,345.67c-10.79,0-17.63-8.12-17.63-20.53c0-12.41,6.84-20.53,17.63-20.53
			c10.79,0,17.63,8.12,17.63,20.53C341.19,337.55,334.35,345.67,323.56,345.67z"/>
		<polygon points="451.16,361.68 451.16,288.6 421.34,288.6 411.02,334.54 410.67,334.54 399.89,288.6 369.38,288.6 369.38,361.68 
			387.47,361.68 387.47,310.3 387.94,310.3 401.05,361.68 417.86,361.68 430.97,310.3 431.44,310.3 431.44,361.68 		"/>
		<polygon points="519.83,345.44 481.67,345.44 481.67,332.8 510.32,332.8 510.32,316.79 481.67,316.79 481.67,304.84 
			518.78,304.84 518.78,288.6 462.29,288.6 462.29,361.68 519.83,361.68 		"/>
		<path d="M561.59,363.07c21.23,0,37.93-15.43,37.93-37.93c0-22.5-16.7-37.93-37.93-37.93s-37.93,15.43-37.93,37.93
			C523.66,347.65,540.36,363.07,561.59,363.07z M561.59,304.61c10.79,0,17.63,8.12,17.63,20.53c0,12.41-6.84,20.53-17.63,20.53
			s-17.63-8.12-17.63-20.53C543.96,312.73,550.8,304.61,561.59,304.61z"/>
		<polygon points="654.73,329.09 626.2,288.6 607.41,288.6 607.41,361.68 625.5,361.68 625.5,318.42 657.05,361.68 672.83,361.68 
			672.83,288.6 654.73,288.6 		"/>
		<polygon points="740.46,304.84 740.46,288.6 683.97,288.6 683.97,361.68 741.5,361.68 741.5,345.44 703.34,345.44 703.34,332.8 
			731.99,332.8 731.99,316.79 703.34,316.79 703.34,304.84 		"/>
		<polygon points="54.95,420.06 39.29,446.4 22.82,420.06 0.89,420.06 28.97,465.42 28.97,493.14 48.11,493.14 48.11,465.42 
			76.18,420.06 		"/>
		<path d="M95.78,440.02c-16.94,0-28.3,11.25-28.3,27.26c0,16.12,11.37,27.26,28.3,27.26c16.82,0,28.3-11.14,28.3-27.26
			C124.09,451.27,112.6,440.02,95.78,440.02z M95.78,480.38c-6.61,0-9.4-5.34-9.4-13.11c0-7.77,2.78-13.11,9.4-13.11
			c6.5,0,9.4,5.34,9.4,13.11C105.18,475.05,102.28,480.38,95.78,480.38z"/>
		<path d="M165.61,466.81c0,7.89-2.32,12.99-8.24,12.99c-5.68,0-7.66-3.83-7.66-10.79v-27.61h-18.79V474
			c0,10.79,4.29,20.53,18.44,20.53c7.77,0,13.46-3.36,16.24-9.16v7.77h18.79v-51.73h-18.79V466.81z"/>
		<path d="M284.05,456.6c0-22.85-14.96-36.54-39.21-36.54h-28.88v73.08h28.88C269.08,493.14,284.05,479.46,284.05,456.6z
			 M235.68,477.6v-41.99h7.77c12.76,0,20.3,7.66,20.3,20.88c0,13.46-7.54,21.11-20.3,21.11H235.68z"/>
		<path d="M317.57,494.53c16.82,0,28.3-11.14,28.3-27.26c0-16.01-11.48-27.26-28.3-27.26c-16.94,0-28.3,11.25-28.3,27.26
			C289.27,483.4,300.63,494.53,317.57,494.53z M317.57,454.17c6.5,0,9.4,5.34,9.4,13.11c0,7.77-2.9,13.11-9.4,13.11
			c-6.61,0-9.4-5.34-9.4-13.11C308.17,459.5,310.96,454.17,317.57,454.17z"/>
		<path d="M388.79,440.02c-7.77,0-13.92,3.48-16.7,9.16v-7.77H353.3v51.73h18.79v-25.4c0-7.77,2.55-12.88,8.93-12.88
			c5.68,0,7.66,3.71,7.66,10.79v27.49h18.79v-32.48C407.47,449.88,402.95,440.02,388.79,440.02z"/>
		<path d="M433.92,420.06h-19.6v17.4h8.82c-0.12,4.64-3.25,6.15-8.82,6.38v8.93c12.99-0.35,19.6-5.1,19.6-16.47V420.06z"/>
		<path d="M461.29,494.53c7.08,0,11.6-1.74,15.54-4.64v-12.18c-3.13,1.28-5.68,1.74-8,1.74c-3.83,0-5.92-1.74-5.92-6.15V454.4h13.46
			v-12.99h-13.46v-14.27h-11.83l-1.74,6.73c-1.28,4.76-2.9,7.54-8.12,8.35l-3.83,0.58v11.6h6.96v24.36
			C444.36,490.94,452.59,494.53,461.29,494.53z"/>
		<polygon points="573.92,420.06 551.31,420.06 525.09,449.64 525.09,420.06 505.37,420.06 505.37,493.14 525.09,493.14 
			525.09,470.99 531.47,464.03 551.77,493.14 575.32,493.14 545.74,451.15 		"/>
		<path d="M614.76,440.02c-7.77,0-13.92,3.48-16.7,9.16v-7.77h-18.79v51.73h18.79v-25.4c0-7.77,2.55-12.88,8.93-12.88
			c5.68,0,7.66,3.71,7.66,10.79v27.49h18.79v-32.48C633.43,449.88,628.91,440.02,614.76,440.02z"/>
		<path d="M668.58,440.02c-16.94,0-28.3,11.25-28.3,27.26c0,16.12,11.37,27.26,28.3,27.26c16.82,0,28.3-11.14,28.3-27.26
			C696.88,451.27,685.4,440.02,668.58,440.02z M668.58,480.38c-6.61,0-9.4-5.34-9.4-13.11c0-7.77,2.78-13.11,9.4-13.11
			c6.5,0,9.4,5.34,9.4,13.11C677.98,475.05,675.08,480.38,668.58,480.38z"/>
		<polygon points="757.9,470.75 757.44,470.75 749.9,441.41 734.93,441.41 727.39,470.75 726.93,470.75 717.65,441.41 
			698.97,441.41 715.33,493.14 733.77,493.14 741.31,463.91 741.78,463.91 749.32,493.14 767.76,493.14 784.11,441.41 
			767.18,441.41 		"/>
		<polygon points="153.88,69.09 34.43,69.09 34.43,227.18 77.09,227.18 77.09,169.21 134.81,169.21 134.81,134.59 77.09,134.59 
			77.09,104.22 153.88,104.22 		"/>
		<rect x="178.46" y="69.09" width="42.66" height="158.09"/>
		<path d="M404.3,227.18v-82.05h-75.28v30.61h34.88c-6.27,12.55-19.82,18.32-33.62,18.32c-27.35,0-41.91-18.32-41.91-45.92
			c0-26.85,13.8-44.16,38.64-44.16c20.33,0,32.37,11.04,34.63,28.35l41.4-1.51c-3.51-39.4-30.61-64.74-77.04-64.74
			c-45.67,0-81.55,33.37-81.55,82.05c0,48.93,33.12,82.05,76.78,82.05c20.33,0,37.14-6.02,45.92-20.58v17.56H404.3z"/>
		<polygon points="539.04,227.18 581.7,227.18 581.7,69.09 539.04,69.09 539.04,130.07 476.06,130.07 476.06,69.09 433.4,69.09 
			433.4,227.18 476.06,227.18 476.06,164.7 539.04,164.7 		"/>
		<polygon points="757.85,69.09 606.29,69.09 606.29,104.22 660.49,104.22 660.49,227.18 702.9,227.18 702.9,104.22 757.85,104.22 
					"/>
		<path d="M245.7,560.36c2.94,0,4.08,1.95,4.38,4.05l4.89-0.18c-0.36-4.71-3.45-8.4-9.24-8.4c-5.52,0-9.69,3.99-9.69,9.81
			s4.17,9.81,9.69,9.81c5.79,0,8.88-3.66,9.24-8.37l-4.89-0.21c-0.3,2.1-1.44,4.05-4.38,4.05c-2.79,0-4.41-2.07-4.41-5.28
			S242.91,560.36,245.7,560.36z"/>
		<path d="M269.34,571.16v-4.56c0-3.72-2.61-5.25-6.15-5.25c-4.02,0-6.21,2.04-6.63,4.98l4.5,0.3c0.21-0.99,0.75-1.68,1.83-1.68
			c1.17,0,1.68,0.66,1.68,1.77v0.21l-3.75,0.63c-2.91,0.51-4.77,1.62-4.77,4.2c0,2.28,1.71,3.63,4.32,3.63
			c2.13,0,3.66-0.81,4.44-2.37c0.45,1.53,1.74,2.37,3.39,2.37c1.38,0,2.34-0.39,3.03-0.87v-2.58c-0.39,0.15-0.69,0.21-1.08,0.21
			C269.64,572.15,269.34,571.85,269.34,571.16z M264.57,569.51c0,1.74-1.11,2.76-2.49,2.76c-0.81,0-1.35-0.45-1.35-1.14
			c0-0.87,0.69-1.23,1.86-1.47l1.98-0.36V569.51z"/>
		<path d="M281.91,561.35c-2.25,0-3.75,1.08-4.41,2.67v-2.31h-4.86v18.18h4.86v-7.08c0.66,1.56,2.16,2.64,4.41,2.64
			c3.93,0,5.94-3.09,5.94-7.05C287.85,564.47,285.84,561.35,281.91,561.35z M280.2,571.7c-1.65,0-2.7-1.26-2.7-3.21v-0.18
			c0-1.92,1.05-3.18,2.7-3.18c1.89,0,2.76,1.35,2.76,3.27C282.96,570.35,282.09,571.7,280.2,571.7z"/>
		<rect x="289.74" y="556.19" width="4.92" height="4.26"/>
		<rect x="289.77" y="561.71" width="4.86" height="13.38"/>
		<path d="M302.55,569.96v-4.89h3.48v-3.36h-3.48v-3.69h-3.06l-0.45,1.74c-0.33,1.23-0.75,1.95-2.1,2.16l-0.99,0.15v3h1.8v6.3
			c0,3.15,2.13,4.08,4.38,4.08c1.83,0,3-0.45,4.02-1.2v-3.15c-0.81,0.33-1.47,0.45-2.07,0.45
			C303.09,571.55,302.55,571.1,302.55,569.96z"/>
		<path d="M320.52,571.16v-4.56c0-3.72-2.61-5.25-6.15-5.25c-4.02,0-6.21,2.04-6.63,4.98l4.5,0.3c0.21-0.99,0.75-1.68,1.83-1.68
			c1.17,0,1.68,0.66,1.68,1.77v0.21l-3.75,0.63c-2.91,0.51-4.77,1.62-4.77,4.2c0,2.28,1.71,3.63,4.32,3.63
			c2.13,0,3.66-0.81,4.44-2.37c0.45,1.53,1.74,2.37,3.39,2.37c1.38,0,2.34-0.39,3.03-0.87v-2.58c-0.39,0.15-0.69,0.21-1.08,0.21
			C320.82,572.15,320.52,571.85,320.52,571.16z M315.75,569.51c0,1.74-1.11,2.76-2.49,2.76c-0.81,0-1.35-0.45-1.35-1.14
			c0-0.87,0.69-1.23,1.86-1.47l1.98-0.36V569.51z"/>
		<rect x="323.82" y="556.19" width="4.86" height="18.9"/>
		<rect x="331.29" y="556.19" width="4.92" height="4.26"/>
		<rect x="331.32" y="561.71" width="4.86" height="13.38"/>
		<path d="M346.05,566.57l-2.61-0.45c-0.45-0.06-0.81-0.3-0.81-0.75c0-0.6,0.54-0.96,1.47-0.96c1.5,0,2.34,0.6,2.52,1.56l3.99-0.12
			c-0.27-2.79-2.55-4.5-6.42-4.5c-3.75,0-6.06,1.89-6.06,4.53c0,2.73,1.71,3.78,4.95,4.29l1.98,0.3c0.93,0.15,1.23,0.51,1.23,1.02
			c0,0.54-0.57,0.93-1.65,0.93c-1.47,0-2.37-0.63-2.55-1.74l-4.23,0.06c0.27,3.24,3.03,4.71,6.72,4.71c3.81,0,6.21-1.62,6.21-4.44
			C350.79,568.4,349.05,567.05,346.05,566.57z"/>
		<path d="M370.41,561.35c-2.25,0-3.84,1.14-4.56,2.64c-0.57-1.56-1.8-2.64-4.17-2.64c-2.01,0-3.45,0.9-4.17,2.37v-2.01h-4.86v13.38
			h4.86v-6.57c0-2.01,0.57-3.33,2.16-3.33c1.47,0,1.83,0.96,1.83,2.79v7.11h4.86v-6.57c0-2.01,0.54-3.33,2.16-3.33
			c1.47,0,1.8,0.96,1.8,2.79v7.11h4.86v-8.4C375.18,563.9,374.1,561.35,370.41,561.35z"/>
		<rect x="382.83" y="556.19" width="5.1" height="18.9"/>
		<path d="M397.92,566.57l-2.61-0.45c-0.45-0.06-0.81-0.3-0.81-0.75c0-0.6,0.54-0.96,1.47-0.96c1.5,0,2.34,0.6,2.52,1.56l3.99-0.12
			c-0.27-2.79-2.55-4.5-6.42-4.5c-3.75,0-6.06,1.89-6.06,4.53c0,2.73,1.71,3.78,4.95,4.29l1.98,0.3c0.93,0.15,1.23,0.51,1.23,1.02
			c0,0.54-0.57,0.93-1.65,0.93c-1.47,0-2.37-0.63-2.55-1.74l-4.23,0.06c0.27,3.24,3.03,4.71,6.72,4.71c3.81,0,6.21-1.62,6.21-4.44
			C402.66,568.4,400.92,567.05,397.92,566.57z"/>
		<path d="M415.77,556.19l-7.53,18.9h5.13l1.41-3.66h7.38l1.41,3.66H429l-7.53-18.9H415.77z M416.25,567.62l2.16-5.58h0.12
			l2.16,5.58H416.25z"/>
		<polygon points="441.84,568.76 441.72,568.76 437.04,556.19 431.7,556.19 438.96,575.09 444.33,575.09 451.59,556.19 
			446.52,556.19 		"/>
		<rect x="452.88" y="556.19" width="4.92" height="4.26"/>
		<rect x="452.91" y="561.71" width="4.86" height="13.38"/>
		<path d="M465.27,564.08v-2.37h-4.86v13.38h4.86v-6.12c0-2.25,1.11-3.09,2.91-3.09c0.93,0,1.65,0.18,2.31,0.57l0.3-4.59
			c-0.33-0.27-1.05-0.51-1.86-0.51C467.16,561.35,465.75,562.58,465.27,564.08z"/>
		<path d="M481.11,568.28c0,2.04-0.6,3.36-2.13,3.36c-1.47,0-1.98-0.99-1.98-2.79v-7.14h-4.86v8.43c0,2.79,1.11,5.31,4.77,5.31
			c2.01,0,3.48-0.87,4.2-2.37v2.01h4.86v-13.38h-4.86V568.28z"/>
		<path d="M495.84,566.57l-2.61-0.45c-0.45-0.06-0.81-0.3-0.81-0.75c0-0.6,0.54-0.96,1.47-0.96c1.5,0,2.34,0.6,2.52,1.56l3.99-0.12
			c-0.27-2.79-2.55-4.5-6.42-4.5c-3.75,0-6.06,1.89-6.06,4.53c0,2.73,1.71,3.78,4.95,4.29l1.98,0.3c0.93,0.15,1.23,0.51,1.23,1.02
			c0,0.54-0.57,0.93-1.65,0.93c-1.47,0-2.37-0.63-2.55-1.74l-4.23,0.06c0.27,3.24,3.03,4.71,6.72,4.71c3.81,0,6.21-1.62,6.21-4.44
			C500.58,568.4,498.84,567.05,495.84,566.57z"/>
		<rect x="504.72" y="569.93" width="5.16" height="5.16"/>
		<path d="M521.4,561.35c-4.38,0-7.32,2.91-7.32,7.05c0,4.17,2.94,7.05,7.32,7.05c4.35,0,7.32-2.88,7.32-7.05
			C528.72,564.26,525.75,561.35,521.4,561.35z M521.4,571.79c-1.71,0-2.43-1.38-2.43-3.39c0-2.01,0.72-3.39,2.43-3.39
			c1.68,0,2.43,1.38,2.43,3.39C523.83,570.41,523.08,571.79,521.4,571.79z"/>
		<path d="M535.5,564.08v-2.37h-4.86v13.38h4.86v-6.12c0-2.25,1.11-3.09,2.91-3.09c0.93,0,1.65,0.18,2.31,0.57l0.3-4.59
			c-0.33-0.27-1.05-0.51-1.86-0.51C537.39,561.35,535.98,562.58,535.5,564.08z"/>
		<path d="M552,571.55h-5.55c-0.81,0-1.14-0.36-1.14-0.81c0-0.27,0.09-0.48,0.27-0.63c0.87,0.27,1.83,0.39,2.91,0.39
			c3.78,0,6.51-1.74,6.51-4.56c0-0.63-0.15-1.2-0.42-1.71c0.66-0.15,1.38-0.21,1.95-0.21v-3.66c-1.47,0-2.94,0.96-3.75,2.07
			c-1.14-0.69-2.67-1.08-4.29-1.08c-3.75,0-6.45,1.74-6.45,4.59c0,1.47,0.72,2.61,1.92,3.39c-1.44,0.54-2.28,1.53-2.28,2.82
			c0,1.14,0.72,2.22,1.92,2.61c-1.5,0.12-2.55,1.05-2.55,2.22c0,2.52,3.3,3.27,7.11,3.27c4.35,0,8.4-1.53,8.4-4.86
			C556.56,573.14,555.03,571.55,552,571.55z M548.55,564.02c0.81,0,1.41,0.75,1.41,1.92c0,1.2-0.6,1.95-1.41,1.95
			c-0.81,0-1.41-0.75-1.41-1.95C547.14,564.77,547.74,564.02,548.55,564.02z M548.19,577.73c-1.8,0-3.15-0.27-3.15-1.23
			c0-0.51,0.36-0.81,0.9-0.81h4.92c0.81,0,1.23,0.21,1.23,0.78C552.09,577.28,550.44,577.73,548.19,577.73z"/>
	</g>
</g>
</svg>
