<?xml version="1.0" encoding="utf-8"?>
<!-- Generator: Adobe Illustrator 23.1.1, SVG Export Plug-In . SVG Version: 6.00 Build 0)  -->
<svg version="1.1" xmlns="http://www.w3.org/2000/svg" xmlns:xlink="http://www.w3.org/1999/xlink" x="0px" y="0px"
	 viewBox="0 0 792 612" style="enable-background:new 0 0 792 612;" xml:space="preserve">
<style type="text/css">
	.st0{display:none;}
	.st1{display:inline;}
	.st2{display:inline;fill:#FFD600;}
	.st3{display:inline;fill:#FFFFFF;}
	.st4{fill:#FFFFFF;stroke:#000000;stroke-width:13.497;stroke-linecap:round;stroke-linejoin:round;stroke-miterlimit:10;}
	.st5{fill:#FFFFFF;}
	.st6{stroke:#000000;stroke-width:18.3348;stroke-linecap:round;stroke-miterlimit:10;}
	.st7{fill:none;stroke:#000000;stroke-width:13.497;stroke-linecap:round;stroke-linejoin:round;stroke-miterlimit:10;}
	.st8{stroke:#000000;stroke-width:18.3348;stroke-linecap:round;stroke-linejoin:round;stroke-miterlimit:10;}
	.st9{fill:#FFFFFF;stroke:#000000;stroke-width:13.497;stroke-miterlimit:10;}
	.st10{fill:none;stroke:#000000;stroke-width:13.497;stroke-miterlimit:10;}
	.st11{fill:none;stroke:#000000;stroke-width:30.5612;stroke-linecap:round;stroke-linejoin:round;stroke-miterlimit:10;}
	.st12{fill:#FFFFFF;stroke:#000000;stroke-width:16.2993;stroke-linecap:round;stroke-linejoin:round;stroke-miterlimit:10;}
	.st13{fill:#FFFFFF;stroke:#000000;stroke-width:16;stroke-linecap:round;stroke-linejoin:round;stroke-miterlimit:10;}
	.st14{fill:#FFFFFF;stroke:#000000;stroke-width:11.7326;stroke-linecap:round;stroke-linejoin:round;stroke-miterlimit:10;}
	.st15{fill:#FFFFFF;stroke:#000000;stroke-width:13.2623;stroke-linecap:round;stroke-linejoin:round;stroke-miterlimit:10;}
	.st16{fill:#FFFFFF;stroke:#000000;stroke-width:13.2623;stroke-linecap:round;stroke-miterlimit:10;}
	.st17{stroke:#000000;stroke-width:4.5213;stroke-miterlimit:10;}
	.st18{fill:#FFFFFF;stroke:#000000;stroke-width:14;stroke-linecap:round;stroke-linejoin:round;stroke-miterlimit:10;}
	.st19{fill:#FFFFFF;stroke:#000000;stroke-width:16.6693;stroke-miterlimit:10;}
	.st20{stroke:#000000;stroke-width:16.6693;stroke-linecap:round;stroke-miterlimit:10;}
	.st21{fill:#FFFFFF;stroke:#000000;stroke-width:13.497;stroke-linecap:round;stroke-miterlimit:10;}
	.st22{fill:none;stroke:#000000;stroke-width:13.497;stroke-linecap:round;stroke-miterlimit:10;}
	.st23{fill:#FFFFFF;stroke:#000000;stroke-width:15.2362;stroke-linecap:round;stroke-linejoin:round;stroke-miterlimit:10;}
	.st24{fill:#FFFFFF;stroke:#000000;stroke-width:14.8467;stroke-linecap:round;stroke-linejoin:round;stroke-miterlimit:10;}
	.st25{stroke:#000000;stroke-width:20.1683;stroke-linecap:round;stroke-miterlimit:10;}
	.st26{fill:none;stroke:#000000;stroke-width:14.8467;stroke-linecap:round;stroke-linejoin:round;stroke-miterlimit:10;}
	.st27{font-family:'FoundersGrotesk-Bold';}
	.st28{font-size:30px;}
	.st29{font-size:28px;}
	.st30{font-size:15px;}
	.st31{fill:#FFFFFF;stroke:#000000;stroke-width:12.2439;stroke-linecap:round;stroke-linejoin:round;stroke-miterlimit:10;}
	.st32{fill:none;stroke:#000000;stroke-width:11.5;stroke-linecap:round;stroke-linejoin:round;stroke-miterlimit:10;}
	.st33{fill:#FFFFFF;stroke:#000000;stroke-width:11.5;stroke-linecap:round;stroke-linejoin:round;stroke-miterlimit:10;}
	.st34{fill:#FFFFFF;stroke:#000000;stroke-width:15.3;stroke-linecap:round;stroke-linejoin:round;stroke-miterlimit:10;}
	
		.st35{display:inline;fill:#FFFFFF;stroke:#000000;stroke-width:15.3;stroke-linecap:round;stroke-linejoin:round;stroke-miterlimit:10;}
	.st36{fill:#FFFFFF;stroke:#FFFFFF;stroke-width:3;stroke-miterlimit:10;}
	.st37{fill:#FFFFFF;stroke:#000000;stroke-width:13.3058;stroke-linecap:round;stroke-linejoin:round;stroke-miterlimit:10;}
	.st38{fill:#06F6FC;}
	.st39{display:inline;fill:#FF9C1A;}
	.st40{fill:#FFFFFF;stroke:#000000;stroke-width:15.2517;stroke-linecap:round;stroke-linejoin:round;stroke-miterlimit:10;}
	.st41{stroke:#000000;stroke-width:3;stroke-miterlimit:10;}
	.st42{fill:#06DCFF;}
	.st43{fill:#FFD600;}
	.st44{fill:#F9415C;}
	.st45{fill:#7D7DFF;}
	.st46{fill:#A8D600;}
	.st47{fill:#FF9C1A;}
	.st48{fill:#FF00A9;}
	
		.st49{display:inline;fill:#FFFFFF;stroke:#000000;stroke-width:14;stroke-linecap:round;stroke-linejoin:round;stroke-miterlimit:10;}
	.st50{fill:none;stroke:#000000;stroke-width:10;stroke-linecap:round;stroke-linejoin:round;stroke-miterlimit:10;}
	.st51{fill:#FFFFFF;stroke:#000000;stroke-width:12.3365;stroke-linecap:round;stroke-linejoin:round;stroke-miterlimit:10;}
	.st52{fill:none;stroke:#000000;stroke-width:13.3073;stroke-linecap:round;stroke-linejoin:round;stroke-miterlimit:10;}
	.st53{fill:#FFFFFF;stroke:#000000;stroke-width:13.3073;stroke-linecap:round;stroke-linejoin:round;stroke-miterlimit:10;}
	.st54{stroke:#000000;stroke-width:13.3073;stroke-linecap:round;stroke-linejoin:round;stroke-miterlimit:10;}
	.st55{stroke:#FFFFFF;stroke-width:13.3073;stroke-linecap:round;stroke-linejoin:round;stroke-miterlimit:10;}
	.st56{fill:#FFFFFF;stroke:#000000;stroke-width:10;stroke-linecap:round;stroke-linejoin:round;stroke-miterlimit:10;}
	.st57{fill:#FFFFFF;stroke:#000000;stroke-width:15;stroke-linecap:round;stroke-linejoin:round;stroke-miterlimit:10;}
	.st58{fill:none;stroke:#000000;stroke-width:15;stroke-linecap:round;stroke-linejoin:round;stroke-miterlimit:10;}
	.st59{display:inline;fill:none;stroke:#000000;stroke-width:15;stroke-linecap:round;stroke-linejoin:round;stroke-miterlimit:10;}
	
		.st60{display:inline;fill:#FFFFFF;stroke:#000000;stroke-width:15;stroke-linecap:round;stroke-linejoin:round;stroke-miterlimit:10;}
	.st61{stroke:#FFFFFF;stroke-width:15;stroke-linecap:round;stroke-linejoin:round;stroke-miterlimit:10;}
	
		.st62{display:inline;fill:none;stroke:#000000;stroke-width:13.7295;stroke-linecap:round;stroke-linejoin:round;stroke-miterlimit:10;}
	.st63{fill:#FFFFFF;stroke:#000000;stroke-width:12.7279;stroke-linecap:round;stroke-linejoin:round;stroke-miterlimit:10;}
	.st64{fill:#FFFFFF;stroke:#000000;stroke-width:13.7295;stroke-linecap:round;stroke-linejoin:round;stroke-miterlimit:10;}
	.st65{fill:none;stroke:#000000;stroke-width:12.7279;stroke-linecap:round;stroke-linejoin:round;stroke-miterlimit:10;}
	.st66{clip-path:url(#SVGID_4_);}
	.st67{stroke:#FFFFFF;stroke-width:13.7894;stroke-linecap:round;stroke-linejoin:round;stroke-miterlimit:10;}
	.st68{fill:none;}
	.st69{fill:none;stroke:#000000;stroke-width:13.7295;stroke-linecap:round;stroke-linejoin:round;stroke-miterlimit:10;}
	.st70{clip-path:url(#SVGID_6_);}
</style>
<g id="Layer_1" class="st0">
	<g class="st1">
		<g>
			<defs>
				<rect id="SVGID_1_" x="0" transform="matrix(-1 -8.979896e-11 8.979896e-11 -1 792 612)" width="792" height="612"/>
			</defs>
			<clipPath id="SVGID_2_">
				<use xlink:href="#SVGID_1_"  style="overflow:visible;"/>
			</clipPath>
		</g>
	</g>
</g>
<g id="Layer_2" class="st0">
	<g class="st1">
		<text transform="matrix(1 0 0 1 248.3669 42.0923)"><tspan x="0" y="0" class="st27 st28">Capitalism</tspan><tspan x="140.91" y="0" class="st27 st29"> </tspan><tspan x="145.95" y="0" class="st27 st28">Is</tspan><tspan x="167.76" y="0" class="st27 st29"> </tspan><tspan x="172.8" y="0" class="st27 st28">A</tspan><tspan x="193.56" y="0" class="st27 st30"> </tspan><tspan x="196.26" y="0" class="st27 st28">Virus</tspan><tspan x="265.68" y="0" class="st27 st30"> </tspan><tspan x="268.38" y="0" class="st27 st28">.</tspan><tspan x="275.34" y="0" class="st27 st30"> </tspan><tspan x="278.04" y="0" class="st27 st28">org</tspan></text>
	</g>
	<g class="st1">
		<g>
			<path class="st34" d="M537.92,213.88c-43.09,43.09-100.88,100.88-100.88,100.88c-8.06,8.06-8.06,21.13,0,29.18
				s21.13,8.06,29.18,0c0,0,46.61-46.61,89.7-89.7"/>
			<path class="st34" d="M587.65,283.32c-44.89,44.89-90.42,90.42-90.42,90.42c-8.39,8.39-8.39,22,0,30.4s22,8.39,30.4,0
				c0,0,48.55-48.55,93.44-93.44"/>
			<path class="st34" d="M546.63,263.54c-44.89,44.89-96.02,96.02-96.02,96.02c-8.39,8.39-8.39,22,0,30.4c8.39,8.39,22,8.39,30.4,0
				c0,0,48.55-48.55,93.44-93.44"/>
			<path class="st34" d="M771.55,176.37c-14.92,13.43-26.15,23.07-34.57,30.9c-5.78,5.38-9.16,13.09-8.26,20.93
				c2,17.5-4.32,35.07-21.25,54.49c-26.58,30.49-85.85,85.85-85.85,85.85"/>
			<path class="st34" d="M609.11,216.9c-34.1,12.74-59.99-5.58-59.99-5.58s-29.36,6.64-60.95,10.44
				c-18.5,2.23-31.01-16.44-28.55-28.64c1.34-6.67,8.46-6.58,18.1-10.67c15.74-6.68,52.37-21.84,52.37-21.84s17.97-6.54,45.72-20.91
				c18.46-9.55,59.4-3.96,59.4-3.96c19.91-19.91,48.49-52.98,111.51-117.8"/>
			<path class="st34" d="M621.07,310.7c-43.09,43.09-46.15,46.15-46.15,46.15c-8.06,8.06-8.06,21.13,0,29.18s21.13,8.06,29.18,0
				c0,0,23.37-21.63,66.46-64.72"/>
		</g>
	</g>
	<g class="st1">
		<g>
			<path class="st34" d="M191.14,353.91c43.09-43.09,100.88-100.88,100.88-100.88c8.06-8.06,21.13-8.06,29.18,0
				c8.06,8.06,8.06,21.13,0,29.18c0,0-46.61,46.61-89.7,89.7"/>
			<path class="st34" d="M260.58,403.64c44.89-44.89,90.42-90.42,90.42-90.42c8.39-8.39,22-8.39,30.4,0c8.39,8.39,8.39,22,0,30.4
				c0,0-48.55,48.55-93.44,93.44"/>
			<path class="st34" d="M240.8,362.62c44.89-44.89,96.02-96.02,96.02-96.02c8.39-8.39,22-8.39,30.4,0c8.39,8.39,8.39,22,0,30.4
				c0,0-48.55,48.55-93.44,93.44"/>
			<path class="st34" d="M153.63,587.54c13.43-14.92,23.07-26.15,30.9-34.57c5.38-5.78,13.09-9.16,20.93-8.26
				c17.5,2,35.07-4.32,54.49-21.25c30.49-26.58,85.85-85.85,85.85-85.85"/>
			<path class="st34" d="M194.16,425.1c12.74-34.1-5.58-59.99-5.58-59.99s6.64-29.36,10.44-60.95c2.23-18.5-16.44-31.01-28.64-28.55
				c-6.67,1.34-6.58,8.46-10.67,18.1c-6.68,15.74-21.84,52.37-21.84,52.37s-6.54,17.97-20.91,45.72c-9.55,18.46-3.96,59.4-3.96,59.4
				c-17.67,17.67-45.71,42.17-97.11,91.52"/>
			<path class="st34" d="M287.96,437.06c43.09-43.09,46.15-46.15,46.15-46.15c8.06-8.06,21.13-8.06,29.18,0s8.06,21.13,0,29.18
				c0,0-21.63,23.37-64.72,66.46"/>
		</g>
	</g>
</g>
<g id="Layer_2_copy">
	<g>
		<path class="st68" d="M273.73,38.13c0,0.69,0.54,1.14,1.35,1.14c1.38,0,2.49-1.02,2.49-2.76V36.3l-1.98,0.36
			C274.42,36.9,273.73,37.26,273.73,38.13z"/>
		<path class="st68" d="M290.5,35.49c0,1.95,1.05,3.21,2.7,3.21c1.89,0,2.76-1.35,2.76-3.3c0-1.92-0.87-3.27-2.76-3.27
			c-1.65,0-2.7,1.26-2.7,3.18V35.49z"/>
		<path class="st68" d="M324.91,38.13c0,0.69,0.54,1.14,1.35,1.14c1.38,0,2.49-1.02,2.49-2.76V36.3l-1.98,0.36
			C325.6,36.9,324.91,37.26,324.91,38.13z"/>
		<polygon class="st68" points="431.53,29.04 431.41,29.04 429.25,34.62 433.69,34.62 		"/>
		<path class="st68" d="M561.55,34.89c0.81,0,1.41-0.75,1.41-1.95c0-1.17-0.6-1.92-1.41-1.92c-0.81,0-1.41,0.75-1.41,1.92
			C560.14,34.14,560.74,34.89,561.55,34.89z"/>
		<path class="st68" d="M561.19,44.73c2.25,0,3.9-0.45,3.9-1.26c0-0.57-0.42-0.78-1.23-0.78h-4.92c-0.54,0-0.9,0.3-0.9,0.81
			C558.04,44.46,559.39,44.73,561.19,44.73z"/>
		<path class="st68" d="M531.97,35.4c0,2.01,0.72,3.39,2.43,3.39c1.68,0,2.43-1.38,2.43-3.39c0-2.01-0.75-3.39-2.43-3.39
			C532.69,32.01,531.97,33.39,531.97,35.4z"/>
		<path d="M258.7,27.36c2.94,0,4.08,1.95,4.38,4.05l4.89-0.18c-0.36-4.71-3.45-8.4-9.24-8.4c-5.52,0-9.69,3.99-9.69,9.81
			s4.17,9.81,9.69,9.81c5.79,0,8.88-3.66,9.24-8.37l-4.89-0.21c-0.3,2.1-1.44,4.05-4.38,4.05c-2.79,0-4.41-2.07-4.41-5.28
			S255.91,27.36,258.7,27.36z"/>
		<path d="M273.82,34.56c-2.91,0.51-4.77,1.62-4.77,4.2c0,2.28,1.71,3.63,4.32,3.63c2.13,0,3.66-0.81,4.44-2.37
			c0.45,1.53,1.74,2.37,3.39,2.37c1.38,0,2.34-0.39,3.03-0.87v-2.58c-0.39,0.15-0.69,0.21-1.08,0.21c-0.51,0-0.81-0.3-0.81-0.99
			V33.6c0-3.72-2.61-5.25-6.15-5.25c-4.02,0-6.21,2.04-6.63,4.98l4.5,0.3c0.21-0.99,0.75-1.68,1.83-1.68c1.17,0,1.68,0.66,1.68,1.77
			v0.21L273.82,34.56z M277.57,36.51c0,1.74-1.11,2.76-2.49,2.76c-0.81,0-1.35-0.45-1.35-1.14c0-0.87,0.69-1.23,1.86-1.47l1.98-0.36
			V36.51z"/>
		<path d="M285.64,28.71v18.18h4.86v-7.08c0.66,1.56,2.16,2.64,4.41,2.64c3.93,0,5.94-3.09,5.94-7.05c0-3.93-2.01-7.05-5.94-7.05
			c-2.25,0-3.75,1.08-4.41,2.67v-2.31H285.64z M293.2,32.13c1.89,0,2.76,1.35,2.76,3.27c0,1.95-0.87,3.3-2.76,3.3
			c-1.65,0-2.7-1.26-2.7-3.21v-0.18C290.5,33.39,291.55,32.13,293.2,32.13z"/>
		<rect x="302.77" y="28.71" width="4.86" height="13.38"/>
		<rect x="302.74" y="23.19" width="4.92" height="4.26"/>
		<path d="M312.49,25.02l-0.45,1.74c-0.33,1.23-0.75,1.95-2.1,2.16l-0.99,0.15v3h1.8v6.3c0,3.15,2.13,4.08,4.38,4.08
			c1.83,0,3-0.45,4.02-1.2V38.1c-0.81,0.33-1.47,0.45-2.07,0.45c-0.99,0-1.53-0.45-1.53-1.59v-4.89h3.48v-3.36h-3.48v-3.69H312.49z"
			/>
		<path d="M325,34.56c-2.91,0.51-4.77,1.62-4.77,4.2c0,2.28,1.71,3.63,4.32,3.63c2.13,0,3.66-0.81,4.44-2.37
			c0.45,1.53,1.74,2.37,3.39,2.37c1.38,0,2.34-0.39,3.03-0.87v-2.58c-0.39,0.15-0.69,0.21-1.08,0.21c-0.51,0-0.81-0.3-0.81-0.99
			V33.6c0-3.72-2.61-5.25-6.15-5.25c-4.02,0-6.21,2.04-6.63,4.98l4.5,0.3c0.21-0.99,0.75-1.68,1.83-1.68c1.17,0,1.68,0.66,1.68,1.77
			v0.21L325,34.56z M328.75,36.51c0,1.74-1.11,2.76-2.49,2.76c-0.81,0-1.35-0.45-1.35-1.14c0-0.87,0.69-1.23,1.86-1.47l1.98-0.36
			V36.51z"/>
		<rect x="336.82" y="23.19" width="4.86" height="18.9"/>
		<rect x="344.32" y="28.71" width="4.86" height="13.38"/>
		<rect x="344.29" y="23.19" width="4.92" height="4.26"/>
		<path d="M357.64,39.42c-1.47,0-2.37-0.63-2.55-1.74l-4.23,0.06c0.27,3.24,3.03,4.71,6.72,4.71c3.81,0,6.21-1.62,6.21-4.44
			c0-2.61-1.74-3.96-4.74-4.44l-2.61-0.45c-0.45-0.06-0.81-0.3-0.81-0.75c0-0.6,0.54-0.96,1.47-0.96c1.5,0,2.34,0.6,2.52,1.56
			l3.99-0.12c-0.27-2.79-2.55-4.5-6.42-4.5c-3.75,0-6.06,1.89-6.06,4.53c0,2.73,1.71,3.78,4.95,4.29l1.98,0.3
			c0.93,0.15,1.23,0.51,1.23,1.02C359.29,39.03,358.72,39.42,357.64,39.42z"/>
		<path d="M365.65,28.71v13.38h4.86v-6.57c0-2.01,0.57-3.33,2.16-3.33c1.47,0,1.83,0.96,1.83,2.79v7.11h4.86v-6.57
			c0-2.01,0.54-3.33,2.16-3.33c1.47,0,1.8,0.96,1.8,2.79v7.11h4.86v-8.4c0-2.79-1.08-5.34-4.77-5.34c-2.25,0-3.84,1.14-4.56,2.64
			c-0.57-1.56-1.8-2.64-4.17-2.64c-2.01,0-3.45,0.9-4.17,2.37v-2.01H365.65z"/>
		<rect x="395.83" y="23.19" width="5.1" height="18.9"/>
		<path d="M410.92,33.57l-2.61-0.45c-0.45-0.06-0.81-0.3-0.81-0.75c0-0.6,0.54-0.96,1.47-0.96c1.5,0,2.34,0.6,2.52,1.56l3.99-0.12
			c-0.27-2.79-2.55-4.5-6.42-4.5c-3.75,0-6.06,1.89-6.06,4.53c0,2.73,1.71,3.78,4.95,4.29l1.98,0.3c0.93,0.15,1.23,0.51,1.23,1.02
			c0,0.54-0.57,0.93-1.65,0.93c-1.47,0-2.37-0.63-2.55-1.74l-4.23,0.06c0.27,3.24,3.03,4.71,6.72,4.71c3.81,0,6.21-1.62,6.21-4.44
			C415.66,35.4,413.92,34.05,410.92,33.57z"/>
		<path d="M427.78,38.43h7.38l1.41,3.66H442l-7.53-18.9h-5.7l-7.53,18.9h5.13L427.78,38.43z M431.41,29.04h0.12l2.16,5.58h-4.44
			L431.41,29.04z"/>
		<polygon points="454.84,35.76 454.72,35.76 450.04,23.19 444.7,23.19 451.96,42.09 457.33,42.09 464.59,23.19 459.52,23.19 		"/>
		<rect x="465.88" y="23.19" width="4.92" height="4.26"/>
		<rect x="465.91" y="28.71" width="4.86" height="13.38"/>
		<path d="M473.41,28.71v13.38h4.86v-6.12c0-2.25,1.11-3.09,2.91-3.09c0.93,0,1.65,0.18,2.31,0.57l0.3-4.59
			c-0.33-0.27-1.05-0.51-1.86-0.51c-1.77,0-3.18,1.23-3.66,2.73v-2.37H473.41z"/>
		<path d="M498.97,42.09V28.71h-4.86v6.57c0,2.04-0.6,3.36-2.13,3.36c-1.47,0-1.98-0.99-1.98-2.79v-7.14h-4.86v8.43
			c0,2.79,1.11,5.31,4.77,5.31c2.01,0,3.48-0.87,4.2-2.37v2.01H498.97z"/>
		<path d="M507.43,39.42c-1.47,0-2.37-0.63-2.55-1.74l-4.23,0.06c0.27,3.24,3.03,4.71,6.72,4.71c3.81,0,6.21-1.62,6.21-4.44
			c0-2.61-1.74-3.96-4.74-4.44l-2.61-0.45c-0.45-0.06-0.81-0.3-0.81-0.75c0-0.6,0.54-0.96,1.47-0.96c1.5,0,2.34,0.6,2.52,1.56
			l3.99-0.12c-0.27-2.79-2.55-4.5-6.42-4.5c-3.75,0-6.06,1.89-6.06,4.53c0,2.73,1.71,3.78,4.95,4.29l1.98,0.3
			c0.93,0.15,1.23,0.51,1.23,1.02C509.08,39.03,508.51,39.42,507.43,39.42z"/>
		<rect x="517.72" y="36.93" width="5.16" height="5.16"/>
		<path d="M527.08,35.4c0,4.17,2.94,7.05,7.32,7.05c4.35,0,7.32-2.88,7.32-7.05c0-4.14-2.97-7.05-7.32-7.05
			C530.02,28.35,527.08,31.26,527.08,35.4z M536.83,35.4c0,2.01-0.75,3.39-2.43,3.39c-1.71,0-2.43-1.38-2.43-3.39
			c0-2.01,0.72-3.39,2.43-3.39C536.08,32.01,536.83,33.39,536.83,35.4z"/>
		<path d="M543.64,28.71v13.38h4.86v-6.12c0-2.25,1.11-3.09,2.91-3.09c0.93,0,1.65,0.18,2.31,0.57l0.3-4.59
			c-0.33-0.27-1.05-0.51-1.86-0.51c-1.77,0-3.18,1.23-3.66,2.73v-2.37H543.64z"/>
		<path d="M554.05,43.98c0,2.52,3.3,3.27,7.11,3.27c4.35,0,8.4-1.53,8.4-4.86c0-2.25-1.53-3.84-4.56-3.84h-5.55
			c-0.81,0-1.14-0.36-1.14-0.81c0-0.27,0.09-0.48,0.27-0.63c0.87,0.27,1.83,0.39,2.91,0.39c3.78,0,6.51-1.74,6.51-4.56
			c0-0.63-0.15-1.2-0.42-1.71c0.66-0.15,1.38-0.21,1.95-0.21v-3.66c-1.47,0-2.94,0.96-3.75,2.07c-1.14-0.69-2.67-1.08-4.29-1.08
			c-3.75,0-6.45,1.74-6.45,4.59c0,1.47,0.72,2.61,1.92,3.39c-1.44,0.54-2.28,1.53-2.28,2.82c0,1.14,0.72,2.22,1.92,2.61
			C555.1,41.88,554.05,42.81,554.05,43.98z M561.55,31.02c0.81,0,1.41,0.75,1.41,1.92c0,1.2-0.6,1.95-1.41,1.95
			c-0.81,0-1.41-0.75-1.41-1.95C560.14,31.77,560.74,31.02,561.55,31.02z M558.94,42.69h4.92c0.81,0,1.23,0.21,1.23,0.78
			c0,0.81-1.65,1.26-3.9,1.26c-1.8,0-3.15-0.27-3.15-1.23C558.04,42.99,558.4,42.69,558.94,42.69z"/>
		<path d="M766.43,170.68c-6.54,5.88-12.39,11.06-17.56,15.64c-6.61,5.84-12.31,10.89-17.1,15.34c-7.81,7.26-11.79,17.5-10.65,27.4
			c0.47,4.09,0.4,8.14-0.21,12.21c-1.75,11.73-8.02,23.55-19.21,36.38c-10.17,11.67-25.34,27.16-40.07,41.74l0.03,0.01
			c-40.25,40.16-62.52,60.81-62.74,61.02c-0.07,0.07-0.14,0.13-0.21,0.2c-5.06,5.06-13.3,5.06-18.37,0c-5.06-5.06-5.06-13.3,0-18.37
			l46.15-46.15c1.08-1.08,1.77-2.41,2.07-3.81c0.52-2.45-0.16-5.11-2.07-7.01c-2.99-2.99-7.83-2.99-10.82,0l-0.54,0.54l-92.9,92.9
			c-5.4,5.4-14.18,5.4-19.58,0c-5.4-5.4-5.4-14.18,0-19.58l77.22-77.22l13.2-13.2c0.18-0.18,0.35-0.37,0.51-0.56
			c2.47-3,2.3-7.45-0.51-10.26c-2.99-2.99-7.83-2.99-10.82,0l-12.74,12.74l0.02,0.03c-0.16,0.14-0.33,0.28-0.48,0.43l-93.44,93.44
			c-2.61,2.62-6.09,4.06-9.79,4.06c-3.7,0-7.17-1.44-9.79-4.06c-5.4-5.4-5.4-14.18,0-19.58l95.56-95.56l0.46-0.46c0,0,0,0,0-0.01
			l9.29-9.29c2.99-2.99,2.99-7.83,0-10.82c-2.31-2.31-5.71-2.82-8.52-1.57c-0.83,0.37-1.61,0.89-2.29,1.57l-89.7,89.7
			c-5.06,5.06-13.3,5.06-18.37,0c-5.06-5.06-5.06-13.3,0-18.37l98.81-98.81l0.71-0.71c2.35-0.48,4.3-0.89,5.77-1.21
			c8.39,4.8,33.15,16.16,64.06,4.61c3.96-1.48,5.97-5.89,4.49-9.84c-0.57-1.52-1.57-2.75-2.82-3.61c-1.99-1.37-4.59-1.79-7.03-0.88
			c-29.66,11.08-51.99-4.03-52.9-4.66c-1.77-1.25-3.99-1.7-6.1-1.22c-0.29,0.07-29.37,6.6-60.18,10.31
			c-7.52,0.91-12.63-3.27-15-5.83c-4.45-4.82-5.79-10.48-5.14-13.7c0-0.02,0.01-0.04,0.01-0.05c0.79-0.61,3.53-1.51,5.55-2.17
			c2.36-0.77,5.04-1.65,8.03-2.92c15.04-6.38,49.64-20.71,52.16-21.76c2-0.74,19.66-7.38,46.46-21.24
			c13.35-6.91,44.12-4.63,54.85-3.17c2.37,0.32,4.75-0.48,6.44-2.17c8.32-8.33,17.89-18.64,31.13-32.93
			c12.36-13.34,27.81-30,47.83-51.04c9.74-10.23,20.55-21.49,32.63-33.91c2.95-3.03,2.88-7.87-0.15-10.82
			c-3.03-2.95-7.87-2.88-10.82,0.15c-37.05,38.11-62.29,65.34-80.71,85.22c-11.74,12.67-20.57,22.19-28.11,29.87
			c-11.39-1.25-42.92-3.69-60.12,5.21c-26.92,13.93-44.65,20.45-44.83,20.51c-0.1,0.04-0.21,0.08-0.31,0.12
			c-0.37,0.15-36.84,15.25-52.43,21.87c-2.39,1.02-4.64,1.75-6.81,2.46c-6.21,2.03-13.95,4.56-15.8,13.74
			c-1.76,8.71,1.74,19.35,8.9,27.1c6.49,7.03,15.15,10.87,24.21,10.87c1.28,0,2.57-0.08,3.86-0.23c9.22-1.11,18.21-2.45,26.35-3.8
			l-83.8,83.8c-11.03,11.03-11.03,28.97,0,40c3.29,3.29,7.25,5.67,11.57,7.01c-9.32,11.44-8.65,28.35,2,39
			c5.5,5.5,12.82,8.54,20.61,8.54c6.9,0,13.43-2.39,18.66-6.76c1.33,4.54,3.77,8.83,7.35,12.4c5.68,5.68,13.14,8.52,20.61,8.52
			c7.46,0,14.93-2.84,20.61-8.52l29.51-29.51c1.35,4.26,3.71,8.16,6.96,11.41c5.51,5.52,12.76,8.27,20,8.27
			c7.19,0,14.39-2.72,19.89-8.16c1.73-1.61,24.79-23.08,65.19-63.46c14.2-14.1,28.61-28.9,38.63-40.39
			c17.85-20.47,25.4-40.22,23.09-60.38c-0.26-2.27,0.04-4.61,0.82-6.85c0.97-2.78,2.69-5.41,5.05-7.61
			c0.99-0.92,2.04-1.88,3.12-2.87c3.99-3.63,8.56-7.68,13.7-12.22c5.19-4.59,11.08-9.8,17.66-15.73c3.14-2.83,3.39-7.66,0.57-10.8
			C774.4,168.11,769.57,167.86,766.43,170.68z"/>
		<path d="M374.41,300.45c9.54-11.44,8.95-28.52-1.79-39.26c-10.65-10.65-27.56-11.32-39-2c-1.34-4.32-3.72-8.28-7.01-11.57
			c-5.34-5.34-12.45-8.29-20-8.29s-14.66,2.94-20,8.29l-83.8,83.8c1.35-8.14,2.69-17.12,3.8-26.35
			c1.26-10.43-2.62-20.66-10.64-28.07c-7.75-7.16-18.39-10.65-27.1-8.9c-9.17,1.85-11.7,9.58-13.74,15.8
			c-0.71,2.17-1.44,4.42-2.46,6.81c-6.62,15.59-21.72,52.06-21.87,52.43c-0.04,0.1-0.08,0.2-0.12,0.31
			c-0.06,0.18-6.59,17.91-20.52,44.83c-8.9,17.2-6.46,48.74-5.21,60.12c-7.68,7.54-17.21,16.37-29.88,28.12
			c-16.47,15.26-36.96,34.26-64.48,60.68c-3.05,2.93-3.15,7.77-0.22,10.82c1.5,1.56,3.51,2.35,5.52,2.35c1.91,0,3.81-0.71,5.3-2.13
			c11.5-11.04,21.75-20.76,31.02-29.48c12.83-12.07,23.73-22.18,33.27-31.02c14.28-13.24,24.6-22.8,32.93-31.13
			c1.69-1.69,2.49-4.07,2.17-6.44c-1.46-10.73-3.73-41.51,3.17-54.85c13.87-26.79,20.5-44.46,21.24-46.46
			c1.04-2.52,15.37-37.12,21.76-52.16c1.27-2.99,2.15-5.67,2.92-8.03c0.66-2.02,1.56-4.75,2.17-5.55c0.02,0,0.03-0.01,0.05-0.01
			c3.22-0.65,8.87,0.68,13.7,5.14c2.57,2.37,6.74,7.48,5.83,15c-3.71,30.81-10.24,59.89-10.31,60.18c-0.47,2.09-0.02,4.31,1.2,6.07
			c0.65,0.94,15.77,23.26,4.68,52.93c-0.89,2.38-0.51,4.92,0.79,6.89c0.86,1.31,2.12,2.37,3.7,2.96c3.96,1.48,8.36-0.53,9.84-4.49
			c11.55-30.9,0.19-55.67-4.61-64.06c0.31-1.46,0.73-3.42,1.21-5.77l0.71-0.71l98.81-98.81c2.45-2.45,5.71-3.8,9.18-3.8
			s6.73,1.35,9.18,3.8c2.45,2.45,3.8,5.71,3.8,9.18s-1.35,6.73-3.8,9.18l-80.41,80.41c0,0,0,0,0,0l-9.29,9.29
			c-0.68,0.68-1.2,1.46-1.57,2.29c-1.25,2.81-0.73,6.22,1.57,8.52c1.49,1.49,3.45,2.24,5.41,2.24s3.92-0.75,5.41-2.24l9.76-9.76l0,0
			l95.56-95.56c5.4-5.4,14.18-5.4,19.58,0c5.4,5.4,5.4,14.18,0,19.58l-93.44,93.44c-0.15,0.15-0.3,0.32-0.43,0.48l-0.02-0.02
			l-12.74,12.74c-2.99,2.99-2.99,7.83,0,10.82c2.81,2.81,7.25,2.98,10.26,0.51c0.19-0.16,0.38-0.33,0.56-0.51l90.42-90.42
			c2.61-2.62,6.09-4.06,9.79-4.06s7.18,1.44,9.79,4.06c2.61,2.62,4.06,6.09,4.06,9.79c0,3.7-1.44,7.17-4.06,9.79L328.7,385.5
			l-45.61,45.61l-0.54,0.54c-2.99,2.99-2.99,7.83,0,10.82c0.32,0.32,0.67,0.61,1.04,0.86c1.77,1.24,3.94,1.64,5.98,1.21
			c1.39-0.3,2.72-0.98,3.81-2.07l46.15-46.15c2.45-2.45,5.71-3.8,9.18-3.8s6.73,1.35,9.18,3.8c5.06,5.06,5.06,13.3,0,18.37
			c-0.07,0.07-0.14,0.14-0.2,0.21c-0.21,0.23-20.86,22.49-61.02,62.74l-0.01-0.03c-14.58,14.73-30.07,29.9-41.74,40.07
			c-12.83,11.19-24.65,17.46-36.38,19.21c-4.07,0.61-8.13,0.68-12.21,0.21c-9.9-1.14-20.15,2.85-27.4,10.65
			c-4.45,4.79-9.5,10.49-15.34,17.1c-4.57,5.17-9.76,11.03-15.64,17.56c-2.83,3.14-2.57,7.98,0.57,10.8
			c1.46,1.32,3.29,1.96,5.12,1.96c2.09,0,4.18-0.85,5.69-2.53c5.93-6.59,11.14-12.47,15.73-17.66c4.54-5.14,8.59-9.71,12.22-13.7
			c0.98-1.08,1.94-2.13,2.86-3.12c2.19-2.36,4.83-4.08,7.61-5.05c2.24-0.78,4.58-1.08,6.85-0.82c20.17,2.31,39.91-5.24,60.38-23.09
			c11.48-10.01,26.28-24.42,40.37-38.61c40.38-40.42,61.87-63.48,63.48-65.21c5.27-5.33,8.18-12.39,8.18-19.89
			c0-7.56-2.94-14.66-8.28-20c-3.25-3.25-7.15-5.6-11.41-6.96l29.51-29.51c5.5-5.5,8.54-12.82,8.54-20.61
			c0-7.79-3.03-15.1-8.54-20.61C383.3,304.3,379.05,301.8,374.41,300.45z"/>
	</g>
</g>
</svg>
