<?xml version="1.0" encoding="utf-8"?>
<!-- Generator: Adobe Illustrator 23.1.1, SVG Export Plug-In . SVG Version: 6.00 Build 0)  -->
<svg version="1.1" xmlns="http://www.w3.org/2000/svg" xmlns:xlink="http://www.w3.org/1999/xlink" x="0px" y="0px"
	 viewBox="0 0 792 612" style="enable-background:new 0 0 792 612;" xml:space="preserve">
<style type="text/css">
	.st0{display:none;}
	.st1{display:inline;}
	.st2{display:inline;fill:#FFD600;}
	.st3{display:inline;fill:#FFFFFF;}
	.st4{fill:#FFFFFF;stroke:#000000;stroke-width:13.497;stroke-linecap:round;stroke-linejoin:round;stroke-miterlimit:10;}
	.st5{fill:#FFFFFF;}
	.st6{stroke:#000000;stroke-width:18.3348;stroke-linecap:round;stroke-miterlimit:10;}
	.st7{fill:none;stroke:#000000;stroke-width:13.497;stroke-linecap:round;stroke-linejoin:round;stroke-miterlimit:10;}
	.st8{stroke:#000000;stroke-width:18.3348;stroke-linecap:round;stroke-linejoin:round;stroke-miterlimit:10;}
	.st9{fill:#FFFFFF;stroke:#000000;stroke-width:13.497;stroke-miterlimit:10;}
	.st10{fill:none;stroke:#000000;stroke-width:13.497;stroke-miterlimit:10;}
	.st11{fill:none;stroke:#000000;stroke-width:30.5612;stroke-linecap:round;stroke-linejoin:round;stroke-miterlimit:10;}
	.st12{fill:#FFFFFF;stroke:#000000;stroke-width:16.2993;stroke-linecap:round;stroke-linejoin:round;stroke-miterlimit:10;}
	.st13{fill:#FFFFFF;stroke:#000000;stroke-width:16;stroke-linecap:round;stroke-linejoin:round;stroke-miterlimit:10;}
	.st14{fill:#FFFFFF;stroke:#000000;stroke-width:11.7326;stroke-linecap:round;stroke-linejoin:round;stroke-miterlimit:10;}
	.st15{fill:#FFFFFF;stroke:#000000;stroke-width:13.2623;stroke-linecap:round;stroke-linejoin:round;stroke-miterlimit:10;}
	.st16{fill:#FFFFFF;stroke:#000000;stroke-width:13.2623;stroke-linecap:round;stroke-miterlimit:10;}
	.st17{stroke:#000000;stroke-width:4.5213;stroke-miterlimit:10;}
	.st18{fill:#FFFFFF;stroke:#000000;stroke-width:14;stroke-linecap:round;stroke-linejoin:round;stroke-miterlimit:10;}
	.st19{fill:#FFFFFF;stroke:#000000;stroke-width:16.6693;stroke-miterlimit:10;}
	.st20{stroke:#000000;stroke-width:16.6693;stroke-linecap:round;stroke-miterlimit:10;}
	.st21{fill:#FFFFFF;stroke:#000000;stroke-width:13.497;stroke-linecap:round;stroke-miterlimit:10;}
	.st22{fill:none;stroke:#000000;stroke-width:13.497;stroke-linecap:round;stroke-miterlimit:10;}
	.st23{fill:#FFFFFF;stroke:#000000;stroke-width:15.2362;stroke-linecap:round;stroke-linejoin:round;stroke-miterlimit:10;}
	.st24{fill:#FFFFFF;stroke:#000000;stroke-width:14.8467;stroke-linecap:round;stroke-linejoin:round;stroke-miterlimit:10;}
	.st25{stroke:#000000;stroke-width:20.1683;stroke-linecap:round;stroke-miterlimit:10;}
	.st26{fill:none;stroke:#000000;stroke-width:14.8467;stroke-linecap:round;stroke-linejoin:round;stroke-miterlimit:10;}
	.st27{font-family:'FoundersGrotesk-Bold';}
	.st28{font-size:30px;}
	.st29{font-size:28px;}
	.st30{font-size:15px;}
	.st31{fill:#FFFFFF;stroke:#000000;stroke-width:12.2439;stroke-linecap:round;stroke-linejoin:round;stroke-miterlimit:10;}
	.st32{fill:none;stroke:#000000;stroke-width:11.5;stroke-linecap:round;stroke-linejoin:round;stroke-miterlimit:10;}
	.st33{fill:#FFFFFF;stroke:#000000;stroke-width:11.5;stroke-linecap:round;stroke-linejoin:round;stroke-miterlimit:10;}
	.st34{fill:#FFFFFF;stroke:#000000;stroke-width:15.3;stroke-linecap:round;stroke-linejoin:round;stroke-miterlimit:10;}
	
		.st35{display:inline;fill:#FFFFFF;stroke:#000000;stroke-width:15.3;stroke-linecap:round;stroke-linejoin:round;stroke-miterlimit:10;}
	.st36{fill:#FFFFFF;stroke:#FFFFFF;stroke-width:3;stroke-miterlimit:10;}
	.st37{fill:#FFFFFF;stroke:#000000;stroke-width:13.3058;stroke-linecap:round;stroke-linejoin:round;stroke-miterlimit:10;}
	.st38{fill:#06F6FC;}
	.st39{display:inline;fill:#FF9C1A;}
	.st40{fill:#FFFFFF;stroke:#000000;stroke-width:15.2517;stroke-linecap:round;stroke-linejoin:round;stroke-miterlimit:10;}
	.st41{stroke:#000000;stroke-width:3;stroke-miterlimit:10;}
	.st42{fill:#06DCFF;}
	.st43{fill:#FFD600;}
	.st44{fill:#F9415C;}
	.st45{fill:#7D7DFF;}
	.st46{fill:#A8D600;}
	.st47{fill:#FF9C1A;}
	.st48{fill:#FF00A9;}
	
		.st49{display:inline;fill:#FFFFFF;stroke:#000000;stroke-width:14;stroke-linecap:round;stroke-linejoin:round;stroke-miterlimit:10;}
	.st50{fill:none;stroke:#000000;stroke-width:10;stroke-linecap:round;stroke-linejoin:round;stroke-miterlimit:10;}
	.st51{fill:#FFFFFF;stroke:#000000;stroke-width:12.3365;stroke-linecap:round;stroke-linejoin:round;stroke-miterlimit:10;}
	.st52{fill:none;stroke:#000000;stroke-width:13.3073;stroke-linecap:round;stroke-linejoin:round;stroke-miterlimit:10;}
	.st53{fill:#FFFFFF;stroke:#000000;stroke-width:13.3073;stroke-linecap:round;stroke-linejoin:round;stroke-miterlimit:10;}
	.st54{stroke:#000000;stroke-width:13.3073;stroke-linecap:round;stroke-linejoin:round;stroke-miterlimit:10;}
	.st55{stroke:#FFFFFF;stroke-width:13.3073;stroke-linecap:round;stroke-linejoin:round;stroke-miterlimit:10;}
	.st56{fill:#FFFFFF;stroke:#000000;stroke-width:10;stroke-linecap:round;stroke-linejoin:round;stroke-miterlimit:10;}
	.st57{fill:#FFFFFF;stroke:#000000;stroke-width:15;stroke-linecap:round;stroke-linejoin:round;stroke-miterlimit:10;}
	.st58{fill:none;stroke:#000000;stroke-width:15;stroke-linecap:round;stroke-linejoin:round;stroke-miterlimit:10;}
	.st59{display:inline;fill:none;stroke:#000000;stroke-width:15;stroke-linecap:round;stroke-linejoin:round;stroke-miterlimit:10;}
	
		.st60{display:inline;fill:#FFFFFF;stroke:#000000;stroke-width:15;stroke-linecap:round;stroke-linejoin:round;stroke-miterlimit:10;}
	.st61{stroke:#FFFFFF;stroke-width:15;stroke-linecap:round;stroke-linejoin:round;stroke-miterlimit:10;}
	
		.st62{display:inline;fill:none;stroke:#000000;stroke-width:13.7295;stroke-linecap:round;stroke-linejoin:round;stroke-miterlimit:10;}
	.st63{fill:#FFFFFF;stroke:#000000;stroke-width:12.7279;stroke-linecap:round;stroke-linejoin:round;stroke-miterlimit:10;}
	.st64{fill:#FFFFFF;stroke:#000000;stroke-width:13.7295;stroke-linecap:round;stroke-linejoin:round;stroke-miterlimit:10;}
	.st65{fill:none;stroke:#000000;stroke-width:12.7279;stroke-linecap:round;stroke-linejoin:round;stroke-miterlimit:10;}
	.st66{clip-path:url(#SVGID_4_);}
	.st67{stroke:#FFFFFF;stroke-width:13.7894;stroke-linecap:round;stroke-linejoin:round;stroke-miterlimit:10;}
	.st68{fill:none;}
	.st69{fill:none;stroke:#000000;stroke-width:13.7295;stroke-linecap:round;stroke-linejoin:round;stroke-miterlimit:10;}
	.st70{clip-path:url(#SVGID_6_);}
</style>
<g id="Layer_1" class="st0">
</g>
<g id="Layer_2" class="st0">
	<g class="st1">
		<text transform="matrix(1 0 0 1 232.7173 575.0923)"><tspan x="0" y="0" class="st27 st28">Capitalism</tspan><tspan x="140.91" y="0" class="st27 st29"> </tspan><tspan x="145.95" y="0" class="st27 st28">Is</tspan><tspan x="167.76" y="0" class="st27 st29"> </tspan><tspan x="172.8" y="0" class="st27 st28">A</tspan><tspan x="193.56" y="0" class="st27 st30"> </tspan><tspan x="196.26" y="0" class="st27 st28">Virus</tspan><tspan x="265.68" y="0" class="st27 st30"> </tspan><tspan x="268.38" y="0" class="st27 st28">.</tspan><tspan x="275.34" y="0" class="st27 st30"> </tspan><tspan x="278.04" y="0" class="st27 st28">org</tspan></text>
	</g>
	<g class="st1">
		<g>
			<path class="st18" d="M62.34,453.88c74.08-17.12,172.53-51.07,189.67-58.52c42.92,18.32,106.03-2.18,106.03-2.18l55.13-91.48
				l-56.39-57.63L255.88,268.5c0,0-112.17,14.42-186.47,33.18"/>
			<g>
				<polygon class="st19" points="347.75,513.65 529.95,113.37 487.28,92 284.94,482.72 				"/>
				<path class="st20" d="M327.53,67.64c70.12-32.07,108.06-28.33,167.99,1.19c28.13,13.85,58.79,28.95,58.91,29.01
					c0,0-5.56,22.17,15.99,32.79s43.78,11.57,43.78,11.57l-33.67,68.38c0,0-6.68-21.65-31.93-34.08
					c-25.25-12.43-40.2,14.82-40.2,14.82l-58.91-29.01C449.5,162.31,439.05,99.09,327.53,67.64z"/>
				
					<rect x="541.97" y="155.55" transform="matrix(-0.4418 0.8971 -0.8971 -0.4418 1022.1534 -280.8927)" class="st20" width="112.99" height="44.04"/>
			</g>
			<path class="st18" d="M444.48,306.96c9.84,4.69,21.84,0.05,26.8-10.36c4.96-10.41,1-22.65-8.85-27.34l-65.27-31.08
				c-9.84-4.69-21.84-0.05-26.8,10.36c-4.96,10.41-1,22.65,8.85,27.34L444.48,306.96z"/>
			<path class="st18" d="M389.82,419.63c9.83,4.68,21.81,0.05,26.76-10.34s0.99-22.61-8.84-27.29l-57.6-27.74
				c-9.83-4.68-21.81-0.05-26.76,10.34s-0.99,22.61,8.84,27.29L389.82,419.63z"/>
			<path class="st18" d="M413.48,384.23c9.84,4.69,21.84,0.05,26.8-10.36c4.96-10.41,1-22.65-8.85-27.34l-65.27-31.08
				c-9.84-4.69-21.84-0.05-26.8,10.36c-4.96,10.41-1,22.65,8.85,27.34L413.48,384.23z"/>
			<path class="st18" d="M434.68,347.42c9.84,4.69,21.84,0.05,26.8-10.36s1-22.65-8.85-27.34l-65.15-31.03
				c-9.84-4.69-21.84-0.05-26.8,10.36c-4.96,10.41-1,22.65,8.85,27.34L434.68,347.42z"/>
			<path class="st18" d="M255.88,268.5c13.58-2.72,63.06-61.47,101.54-59.35c24.08,1.33,43.7,0.62,60.85,1.63
				c11.53,0.68,18.29,1.16,29.07,9.78c8.65,6.93,26.69,20.9,36.06,32.48c6.24,7.7-0.12,15.07-4.69,17.77
				c-10.67,6.31-28.43,9.99-44.86,0.68c-12.65-7.16-16.91-10.42-16.91-10.42l-55.73,17.45c0,0-3.77,21.7-31.31,45.68"/>
		</g>
	</g>
</g>
<g id="Layer_2_copy">
	<g>
		<path class="st68" d="M274.85,568.49c0,1.95,1.05,3.21,2.7,3.21c1.89,0,2.76-1.35,2.76-3.3c0-1.92-0.87-3.27-2.76-3.27
			c-1.65,0-2.7,1.26-2.7,3.18V568.49z"/>
		<path class="st68" d="M258.08,571.13c0,0.69,0.54,1.14,1.35,1.14c1.38,0,2.49-1.02,2.49-2.76v-0.21l-1.98,0.36
			C258.77,569.9,258.08,570.26,258.08,571.13z"/>
		<polygon class="st68" points="415.76,562.04 413.6,567.62 418.04,567.62 415.88,562.04 		"/>
		<path class="st68" d="M545.9,567.89c0.81,0,1.41-0.75,1.41-1.95c0-1.17-0.6-1.92-1.41-1.92c-0.81,0-1.41,0.75-1.41,1.92
			C544.49,567.14,545.09,567.89,545.9,567.89z"/>
		<path class="st68" d="M518.75,565.01c-1.71,0-2.43,1.38-2.43,3.39c0,2.01,0.72,3.39,2.43,3.39c1.68,0,2.43-1.38,2.43-3.39
			C521.18,566.39,520.43,565.01,518.75,565.01z"/>
		<path class="st68" d="M545.54,577.73c2.25,0,3.9-0.45,3.9-1.26c0-0.57-0.42-0.78-1.23-0.78h-4.92c-0.54,0-0.9,0.3-0.9,0.81
			C542.39,577.46,543.74,577.73,545.54,577.73z"/>
		<path class="st68" d="M309.26,571.13c0,0.69,0.54,1.14,1.35,1.14c1.38,0,2.49-1.02,2.49-2.76v-0.21l-1.98,0.36
			C309.95,569.9,309.26,570.26,309.26,571.13z"/>
		<path d="M243.05,560.36c2.94,0,4.08,1.95,4.38,4.05l4.89-0.18c-0.36-4.71-3.45-8.4-9.24-8.4c-5.52,0-9.69,3.99-9.69,9.81
			s4.17,9.81,9.69,9.81c5.79,0,8.88-3.66,9.24-8.37l-4.89-0.21c-0.3,2.1-1.44,4.05-4.38,4.05c-2.79,0-4.41-2.07-4.41-5.28
			S240.26,560.36,243.05,560.36z"/>
		<path d="M258.17,567.56c-2.91,0.51-4.77,1.62-4.77,4.2c0,2.28,1.71,3.63,4.32,3.63c2.13,0,3.66-0.81,4.44-2.37
			c0.45,1.53,1.74,2.37,3.39,2.37c1.38,0,2.34-0.39,3.03-0.87v-2.58c-0.39,0.15-0.69,0.21-1.08,0.21c-0.51,0-0.81-0.3-0.81-0.99
			v-4.56c0-3.72-2.61-5.25-6.15-5.25c-4.02,0-6.21,2.04-6.63,4.98l4.5,0.3c0.21-0.99,0.75-1.68,1.83-1.68
			c1.17,0,1.68,0.66,1.68,1.77v0.21L258.17,567.56z M261.92,569.51c0,1.74-1.11,2.76-2.49,2.76c-0.81,0-1.35-0.45-1.35-1.14
			c0-0.87,0.69-1.23,1.86-1.47l1.98-0.36V569.51z"/>
		<path d="M269.99,561.71v18.18h4.86v-7.08c0.66,1.56,2.16,2.64,4.41,2.64c3.93,0,5.94-3.09,5.94-7.05c0-3.93-2.01-7.05-5.94-7.05
			c-2.25,0-3.75,1.08-4.41,2.67v-2.31H269.99z M277.55,565.13c1.89,0,2.76,1.35,2.76,3.27c0,1.95-0.87,3.3-2.76,3.3
			c-1.65,0-2.7-1.26-2.7-3.21v-0.18C274.85,566.39,275.9,565.13,277.55,565.13z"/>
		<rect x="287.12" y="561.71" width="4.86" height="13.38"/>
		<rect x="287.09" y="556.19" width="4.92" height="4.26"/>
		<path d="M299.48,575.45c1.83,0,3-0.45,4.02-1.2v-3.15c-0.81,0.33-1.47,0.45-2.07,0.45c-0.99,0-1.53-0.45-1.53-1.59v-4.89h3.48
			v-3.36h-3.48v-3.69h-3.06l-0.45,1.74c-0.33,1.23-0.75,1.95-2.1,2.16l-0.99,0.15v3h1.8v6.3
			C295.1,574.52,297.23,575.45,299.48,575.45z"/>
		<path d="M309.35,567.56c-2.91,0.51-4.77,1.62-4.77,4.2c0,2.28,1.71,3.63,4.32,3.63c2.13,0,3.66-0.81,4.44-2.37
			c0.45,1.53,1.74,2.37,3.39,2.37c1.38,0,2.34-0.39,3.03-0.87v-2.58c-0.39,0.15-0.69,0.21-1.08,0.21c-0.51,0-0.81-0.3-0.81-0.99
			v-4.56c0-3.72-2.61-5.25-6.15-5.25c-4.02,0-6.21,2.04-6.63,4.98l4.5,0.3c0.21-0.99,0.75-1.68,1.83-1.68
			c1.17,0,1.68,0.66,1.68,1.77v0.21L309.35,567.56z M313.1,569.51c0,1.74-1.11,2.76-2.49,2.76c-0.81,0-1.35-0.45-1.35-1.14
			c0-0.87,0.69-1.23,1.86-1.47l1.98-0.36V569.51z"/>
		<rect x="321.17" y="556.19" width="4.86" height="18.9"/>
		<rect x="328.64" y="556.19" width="4.92" height="4.26"/>
		<rect x="328.67" y="561.71" width="4.86" height="13.38"/>
		<path d="M341.99,572.42c-1.47,0-2.37-0.63-2.55-1.74l-4.23,0.06c0.27,3.24,3.03,4.71,6.72,4.71c3.81,0,6.21-1.62,6.21-4.44
			c0-2.61-1.74-3.96-4.74-4.44l-2.61-0.45c-0.45-0.06-0.81-0.3-0.81-0.75c0-0.6,0.54-0.96,1.47-0.96c1.5,0,2.34,0.6,2.52,1.56
			l3.99-0.12c-0.27-2.79-2.55-4.5-6.42-4.5c-3.75,0-6.06,1.89-6.06,4.53c0,2.73,1.71,3.78,4.95,4.29l1.98,0.3
			c0.93,0.15,1.23,0.51,1.23,1.02C343.64,572.03,343.07,572.42,341.99,572.42z"/>
		<path d="M372.53,575.09v-8.4c0-2.79-1.08-5.34-4.77-5.34c-2.25,0-3.84,1.14-4.56,2.64c-0.57-1.56-1.8-2.64-4.17-2.64
			c-2.01,0-3.45,0.9-4.17,2.37v-2.01H350v13.38h4.86v-6.57c0-2.01,0.57-3.33,2.16-3.33c1.47,0,1.83,0.96,1.83,2.79v7.11h4.86v-6.57
			c0-2.01,0.54-3.33,2.16-3.33c1.47,0,1.8,0.96,1.8,2.79v7.11H372.53z"/>
		<rect x="380.18" y="556.19" width="5.1" height="18.9"/>
		<path d="M393.86,572.42c-1.47,0-2.37-0.63-2.55-1.74l-4.23,0.06c0.27,3.24,3.03,4.71,6.72,4.71c3.81,0,6.21-1.62,6.21-4.44
			c0-2.61-1.74-3.96-4.74-4.44l-2.61-0.45c-0.45-0.06-0.81-0.3-0.81-0.75c0-0.6,0.54-0.96,1.47-0.96c1.5,0,2.34,0.6,2.52,1.56
			l3.99-0.12c-0.27-2.79-2.55-4.5-6.42-4.5c-3.75,0-6.06,1.89-6.06,4.53c0,2.73,1.71,3.78,4.95,4.29l1.98,0.3
			c0.93,0.15,1.23,0.51,1.23,1.02C395.51,572.03,394.94,572.42,393.86,572.42z"/>
		<path d="M413.12,556.19l-7.53,18.9h5.13l1.41-3.66h7.38l1.41,3.66h5.43l-7.53-18.9H413.12z M413.6,567.62l2.16-5.58h0.12
			l2.16,5.58H413.6z"/>
		<polygon points="439.19,568.76 439.07,568.76 434.39,556.19 429.05,556.19 436.31,575.09 441.68,575.09 448.94,556.19 
			443.87,556.19 		"/>
		<rect x="450.23" y="556.19" width="4.92" height="4.26"/>
		<rect x="450.26" y="561.71" width="4.86" height="13.38"/>
		<path d="M457.76,561.71v13.38h4.86v-6.12c0-2.25,1.11-3.09,2.91-3.09c0.93,0,1.65,0.18,2.31,0.57l0.3-4.59
			c-0.33-0.27-1.05-0.51-1.86-0.51c-1.77,0-3.18,1.23-3.66,2.73v-2.37H457.76z"/>
		<path d="M483.32,575.09v-13.38h-4.86v6.57c0,2.04-0.6,3.36-2.13,3.36c-1.47,0-1.98-0.99-1.98-2.79v-7.14h-4.86v8.43
			c0,2.79,1.11,5.31,4.77,5.31c2.01,0,3.48-0.87,4.2-2.37v2.01H483.32z"/>
		<path d="M491.78,572.42c-1.47,0-2.37-0.63-2.55-1.74l-4.23,0.06c0.27,3.24,3.03,4.71,6.72,4.71c3.81,0,6.21-1.62,6.21-4.44
			c0-2.61-1.74-3.96-4.74-4.44l-2.61-0.45c-0.45-0.06-0.81-0.3-0.81-0.75c0-0.6,0.54-0.96,1.47-0.96c1.5,0,2.34,0.6,2.52,1.56
			l3.99-0.12c-0.27-2.79-2.55-4.5-6.42-4.5c-3.75,0-6.06,1.89-6.06,4.53c0,2.73,1.71,3.78,4.95,4.29l1.98,0.3
			c0.93,0.15,1.23,0.51,1.23,1.02C493.43,572.03,492.86,572.42,491.78,572.42z"/>
		<rect x="502.07" y="569.93" width="5.16" height="5.16"/>
		<path d="M518.75,561.35c-4.38,0-7.32,2.91-7.32,7.05c0,4.17,2.94,7.05,7.32,7.05c4.35,0,7.32-2.88,7.32-7.05
			C526.07,564.26,523.1,561.35,518.75,561.35z M518.75,571.79c-1.71,0-2.43-1.38-2.43-3.39c0-2.01,0.72-3.39,2.43-3.39
			c1.68,0,2.43,1.38,2.43,3.39C521.18,570.41,520.43,571.79,518.75,571.79z"/>
		<path d="M527.99,561.71v13.38h4.86v-6.12c0-2.25,1.11-3.09,2.91-3.09c0.93,0,1.65,0.18,2.31,0.57l0.3-4.59
			c-0.33-0.27-1.05-0.51-1.86-0.51c-1.77,0-3.18,1.23-3.66,2.73v-2.37H527.99z"/>
		<path d="M538.4,576.98c0,2.52,3.3,3.27,7.11,3.27c4.35,0,8.4-1.53,8.4-4.86c0-2.25-1.53-3.84-4.56-3.84h-5.55
			c-0.81,0-1.14-0.36-1.14-0.81c0-0.27,0.09-0.48,0.27-0.63c0.87,0.27,1.83,0.39,2.91,0.39c3.78,0,6.51-1.74,6.51-4.56
			c0-0.63-0.15-1.2-0.42-1.71c0.66-0.15,1.38-0.21,1.95-0.21v-3.66c-1.47,0-2.94,0.96-3.75,2.07c-1.14-0.69-2.67-1.08-4.29-1.08
			c-3.75,0-6.45,1.74-6.45,4.59c0,1.47,0.72,2.61,1.92,3.39c-1.44,0.54-2.28,1.53-2.28,2.82c0,1.14,0.72,2.22,1.92,2.61
			C539.45,574.88,538.4,575.81,538.4,576.98z M545.9,564.02c0.81,0,1.41,0.75,1.41,1.92c0,1.2-0.6,1.95-1.41,1.95
			c-0.81,0-1.41-0.75-1.41-1.95C544.49,564.77,545.09,564.02,545.9,564.02z M543.29,575.69h4.92c0.81,0,1.23,0.21,1.23,0.78
			c0,0.81-1.65,1.26-3.9,1.26c-1.8,0-3.15-0.27-3.15-1.23C542.39,575.99,542.75,575.69,543.29,575.69z"/>
		<path d="M62.33,460.89c0.52,0,1.05-0.06,1.58-0.18c71.69-16.57,164.79-48.36,188.13-57.77c19.51,7.51,42.13,8.03,61.64,6.16
			l-40.05,77.35l78.15,38.48l43.96-96.57c0.71,0.06,1.43,0.1,2.14,0.1c10.21,0,20.19-6,25.02-16.15c2.93-6.16,3.59-13.01,1.9-19.44
			c2.17-0.27,4.33-0.81,6.44-1.62c6.74-2.6,12.19-7.7,15.36-14.36c3.17-6.66,3.69-14.11,1.47-20.98c-0.02-0.06-0.04-0.12-0.06-0.18
			c1.49-0.3,2.97-0.73,4.43-1.29c6.74-2.6,12.19-7.7,15.36-14.36c3.17-6.66,3.69-14.11,1.47-20.98c-0.8-2.48-1.94-4.78-3.34-6.85
			c5.04-2.85,9.11-7.22,11.68-12.62c3.17-6.66,3.69-14.11,1.47-20.98c-0.01-0.02-0.01-0.03-0.02-0.05c1.12-0.56,2.2-1.14,3.23-1.74
			c4.28-2.53,9.28-7.59,10.47-14.2c0.62-3.43,0.44-8.64-3.9-14c-2.17-2.68-4.76-5.46-7.55-8.23l19.77-43.42l10.83,5.33l3.84-6.99
			c0.03-0.05,3.12-5.44,8.38-9.45c6.6-5.04,13.22-5.64,20.83-1.9c4.97,2.45,9.09,5.28,12.52,8.2l-14.86,30.17l54.49,26.78
			l57.28-116.33l-54.49-26.78l-11.26,22.87c-4.66-1.45-9.6-3.33-14.5-5.74c-14.81-7.29-11.95-21.73-11.59-23.28l1.64-6.53
			l-64.95-31.98c-33.73-16.61-58.75-23.95-83.66-24.54c-26.72-0.63-54.92,6.53-91.48,23.25l-20.64,9.44l21.84,6.16
			c30.22,8.52,71.73,25.06,97.82,55.44c13.51,15.73,17.3,28.84,18.04,31.89l-21.17,40.88c-0.42-0.03-0.84-0.05-1.27-0.08
			c-8.21-0.49-16.99-0.59-26.29-0.69c-10.29-0.12-21.95-0.25-34.6-0.95c-28.39-1.59-59.68,24.67-82.53,43.83
			c-7.85,6.58-17.59,14.75-20.71,15.62c-7.58,0.99-115.29,15.2-186.87,33.28c-3.75,0.95-6.02,4.75-5.07,8.5
			c0.77,3.06,3.46,5.14,6.46,5.28c0.67,0.03,1.35-0.03,2.04-0.2c73.03-18.44,184.53-32.88,185.65-33.02
			c0.07-0.01,0.14-0.03,0.21-0.04c0.09-0.01,0.18-0.02,0.27-0.04c0.05-0.01,0.11-0.03,0.16-0.04c0.04-0.01,0.07-0.01,0.11-0.02
			l5.59-1.35l-0.74-0.56c5.21-2.78,11.86-8.25,21.89-16.67c19.87-16.66,49.89-41.85,72.76-40.58c12.95,0.72,24.78,0.85,35.21,0.97
			c9.12,0.1,17.74,0.2,25.61,0.67c10.97,0.65,15.97,0.95,25.11,8.26l2.41,1.92c9.16,7.29,24.49,19.5,32.59,29.5
			c1.22,1.51,1.07,2.35,1,2.71c-0.3,1.66-2.17,3.66-3.81,4.63c-8.79,5.2-23.97,8.47-37.85,0.62c-11.86-6.72-16.09-9.87-16.11-9.89
			c-1.81-1.38-4.17-1.8-6.34-1.12l-55.73,17.45c-2.5,0.78-4.35,2.9-4.8,5.48c-0.03,0.19-4.05,19.86-29.01,41.6
			c-2.92,2.54-3.22,6.96-0.68,9.88c1.38,1.59,3.33,2.4,5.28,2.4c0.21,0,0.41-0.04,0.62-0.05c-0.78,5.53,0.09,11.08,2.39,15.91
			c-6.67,2.43-12.5,7.47-15.85,14.51c-5.23,10.99-2.89,23.58,4.91,31.48l-0.48,0.93c-20.44,2.87-46.29,3.66-66.74-5.07
			c-1.77-0.76-3.77-0.75-5.54,0.02c-15.18,6.6-112.41,40.34-186.54,57.67c-0.64,0.15-1.28,0.3-1.91,0.45
			c-3.77,0.87-6.11,4.63-5.24,8.4C56.26,458.7,59.15,460.89,62.33,460.89z M468.33,228.63c-5.22-4.43-10.28-8.47-14.24-11.62
			l-2.39-1.9c-5.36-4.29-9.98-6.83-14.44-8.41l16.96-32.76l31.86,15.69L468.33,228.63z M415.77,268.79
			c2.68,1.77,7.29,4.66,14.63,8.81c12.07,6.84,24.61,7.69,35.38,5.51c1.06,3.41,0.77,7.13-0.83,10.49
			c-1.62,3.41-4.39,6.01-7.77,7.32c-1.62,0.63-3.29,0.92-4.93,0.87l-56.28-26.8L415.77,268.79z M367,292.06
			c3.29-6.91,11.13-10.07,17.47-7.05l65.15,31.03c3.01,1.43,5.25,4.05,6.33,7.36c1.12,3.45,0.84,7.24-0.79,10.65
			s-4.39,6.01-7.77,7.32c-3.25,1.25-6.69,1.16-9.7-0.27l-65.15-31.03C366.19,307.05,363.71,298.97,367,292.06z M345.68,328.82
			c2.44-5.13,7.39-8.19,12.38-8.19c1.73,0,3.46,0.37,5.09,1.15l65.27,31.08c3.01,1.43,5.25,4.05,6.33,7.36
			c1.12,3.45,0.84,7.24-0.79,10.65s-4.39,6.01-7.77,7.32c-3.25,1.25-6.69,1.16-9.7-0.27l-65.27-31.08
			C344.88,343.8,342.39,335.72,345.68,328.82z M329.7,367.61c3.28-6.89,11.1-10.05,17.4-7.04l57.63,27.75
			c3,1.43,5.24,4.04,6.31,7.34c1.12,3.45,0.84,7.22-0.78,10.62c-3.28,6.89-11.09,10.04-17.42,7.04l-57.61-27.74
			C328.9,382.56,326.42,374.5,329.7,367.61z M336.31,401.64L380,422.67l-36.28,79.7L296.25,479L336.31,401.64z"/>
	</g>
</g>
</svg>
