<?xml version="1.0" encoding="utf-8"?>
<!-- Generator: Adobe Illustrator 23.1.1, SVG Export Plug-In . SVG Version: 6.00 Build 0)  -->
<svg version="1.1" xmlns="http://www.w3.org/2000/svg" xmlns:xlink="http://www.w3.org/1999/xlink" x="0px" y="0px"
	 viewBox="0 0 792 612" style="enable-background:new 0 0 792 612;" xml:space="preserve">
<style type="text/css">
	.st0{display:none;}
	.st1{display:inline;}
	.st2{display:inline;fill:#FFD600;}
	.st3{display:inline;fill:#FFFFFF;}
	.st4{fill:#FFFFFF;stroke:#000000;stroke-width:13.497;stroke-linecap:round;stroke-linejoin:round;stroke-miterlimit:10;}
	.st5{fill:#FFFFFF;}
	.st6{stroke:#000000;stroke-width:18.3348;stroke-linecap:round;stroke-miterlimit:10;}
	.st7{fill:none;stroke:#000000;stroke-width:13.497;stroke-linecap:round;stroke-linejoin:round;stroke-miterlimit:10;}
	.st8{font-family:'FoundersGrotesk-Bold';}
	.st9{font-size:167.7947px;}
	.st10{font-size:210.8534px;}
	.st11{stroke:#000000;stroke-width:18.3348;stroke-linecap:round;stroke-linejoin:round;stroke-miterlimit:10;}
	.st12{fill:#FFFFFF;stroke:#000000;stroke-width:13.497;stroke-miterlimit:10;}
	.st13{fill:none;stroke:#000000;stroke-width:13.497;stroke-miterlimit:10;}
	.st14{fill:none;stroke:#000000;stroke-width:30.5612;stroke-linecap:round;stroke-linejoin:round;stroke-miterlimit:10;}
	.st15{fill:#FFFFFF;stroke:#000000;stroke-width:16.2993;stroke-linecap:round;stroke-linejoin:round;stroke-miterlimit:10;}
	.st16{fill:#FFFFFF;stroke:#000000;stroke-width:16;stroke-linecap:round;stroke-linejoin:round;stroke-miterlimit:10;}
	.st17{fill:#FFFFFF;stroke:#000000;stroke-width:11.7326;stroke-linecap:round;stroke-linejoin:round;stroke-miterlimit:10;}
	.st18{fill:#FFFFFF;stroke:#000000;stroke-width:13.2623;stroke-linecap:round;stroke-linejoin:round;stroke-miterlimit:10;}
	.st19{fill:#FFFFFF;stroke:#000000;stroke-width:13.2623;stroke-linecap:round;stroke-miterlimit:10;}
	.st20{stroke:#000000;stroke-width:4.5213;stroke-miterlimit:10;}
	.st21{fill:#FFFFFF;stroke:#000000;stroke-width:14;stroke-linecap:round;stroke-linejoin:round;stroke-miterlimit:10;}
	.st22{fill:#FFFFFF;stroke:#000000;stroke-width:16.6693;stroke-miterlimit:10;}
	.st23{stroke:#000000;stroke-width:16.6693;stroke-linecap:round;stroke-miterlimit:10;}
	.st24{fill:#FFFFFF;stroke:#000000;stroke-width:13.497;stroke-linecap:round;stroke-miterlimit:10;}
	.st25{fill:none;stroke:#000000;stroke-width:13.497;stroke-linecap:round;stroke-miterlimit:10;}
	.st26{fill:#FFFFFF;stroke:#000000;stroke-width:15.2362;stroke-linecap:round;stroke-linejoin:round;stroke-miterlimit:10;}
	.st27{fill:#FFFFFF;stroke:#000000;stroke-width:14.8467;stroke-linecap:round;stroke-linejoin:round;stroke-miterlimit:10;}
	.st28{stroke:#000000;stroke-width:20.1683;stroke-linecap:round;stroke-miterlimit:10;}
	.st29{fill:none;stroke:#000000;stroke-width:14.8467;stroke-linecap:round;stroke-linejoin:round;stroke-miterlimit:10;}
	.st30{font-size:30px;}
	.st31{font-size:28px;}
	.st32{font-size:15px;}
	.st33{fill:#FFFFFF;stroke:#000000;stroke-width:12.2439;stroke-linecap:round;stroke-linejoin:round;stroke-miterlimit:10;}
	.st34{fill:none;stroke:#000000;stroke-width:11.5;stroke-linecap:round;stroke-linejoin:round;stroke-miterlimit:10;}
	.st35{fill:#FFFFFF;stroke:#000000;stroke-width:11.5;stroke-linecap:round;stroke-linejoin:round;stroke-miterlimit:10;}
	.st36{fill:#FFFFFF;stroke:#000000;stroke-width:15.3;stroke-linecap:round;stroke-linejoin:round;stroke-miterlimit:10;}
	
		.st37{display:inline;fill:#FFFFFF;stroke:#000000;stroke-width:15.3;stroke-linecap:round;stroke-linejoin:round;stroke-miterlimit:10;}
	.st38{fill:#FFFFFF;stroke:#FFFFFF;stroke-width:3;stroke-miterlimit:10;}
	.st39{fill:#FFFFFF;stroke:#000000;stroke-width:13.3058;stroke-linecap:round;stroke-linejoin:round;stroke-miterlimit:10;}
	.st40{fill:#06F6FC;}
	.st41{display:inline;fill:#FF9C1A;}
	.st42{fill:#FFFFFF;stroke:#000000;stroke-width:15.2517;stroke-linecap:round;stroke-linejoin:round;stroke-miterlimit:10;}
	.st43{stroke:#000000;stroke-width:3;stroke-miterlimit:10;}
	.st44{fill:#06DCFF;}
	.st45{fill:#FFD600;}
	.st46{fill:#F9415C;}
	.st47{fill:#7D7DFF;}
	.st48{fill:#A8D600;}
	.st49{fill:#FF9C1A;}
	.st50{fill:#FF00A9;}
	
		.st51{display:inline;fill:#FFFFFF;stroke:#000000;stroke-width:14;stroke-linecap:round;stroke-linejoin:round;stroke-miterlimit:10;}
	.st52{fill:none;stroke:#000000;stroke-width:10;stroke-linecap:round;stroke-linejoin:round;stroke-miterlimit:10;}
	.st53{fill:#FFFFFF;stroke:#000000;stroke-width:12.3365;stroke-linecap:round;stroke-linejoin:round;stroke-miterlimit:10;}
	.st54{fill:none;stroke:#000000;stroke-width:13.3073;stroke-linecap:round;stroke-linejoin:round;stroke-miterlimit:10;}
	.st55{fill:#FFFFFF;stroke:#000000;stroke-width:13.3073;stroke-linecap:round;stroke-linejoin:round;stroke-miterlimit:10;}
	.st56{stroke:#000000;stroke-width:13.3073;stroke-linecap:round;stroke-linejoin:round;stroke-miterlimit:10;}
	.st57{stroke:#FFFFFF;stroke-width:13.3073;stroke-linecap:round;stroke-linejoin:round;stroke-miterlimit:10;}
	.st58{fill:#FFFFFF;stroke:#000000;stroke-width:10;stroke-linecap:round;stroke-linejoin:round;stroke-miterlimit:10;}
	.st59{fill:#FFFFFF;stroke:#000000;stroke-width:15;stroke-linecap:round;stroke-linejoin:round;stroke-miterlimit:10;}
	.st60{fill:none;stroke:#000000;stroke-width:15;stroke-linecap:round;stroke-linejoin:round;stroke-miterlimit:10;}
	.st61{display:inline;fill:none;stroke:#000000;stroke-width:15;stroke-linecap:round;stroke-linejoin:round;stroke-miterlimit:10;}
	
		.st62{display:inline;fill:#FFFFFF;stroke:#000000;stroke-width:15;stroke-linecap:round;stroke-linejoin:round;stroke-miterlimit:10;}
	.st63{stroke:#FFFFFF;stroke-width:15;stroke-linecap:round;stroke-linejoin:round;stroke-miterlimit:10;}
	
		.st64{display:inline;fill:none;stroke:#000000;stroke-width:13.7295;stroke-linecap:round;stroke-linejoin:round;stroke-miterlimit:10;}
	.st65{fill:#FFFFFF;stroke:#000000;stroke-width:12.7279;stroke-linecap:round;stroke-linejoin:round;stroke-miterlimit:10;}
	.st66{fill:#FFFFFF;stroke:#000000;stroke-width:13.7295;stroke-linecap:round;stroke-linejoin:round;stroke-miterlimit:10;}
	.st67{fill:none;stroke:#000000;stroke-width:12.7279;stroke-linecap:round;stroke-linejoin:round;stroke-miterlimit:10;}
	.st68{clip-path:url(#SVGID_4_);}
	.st69{stroke:#FFFFFF;stroke-width:13.7894;stroke-linecap:round;stroke-linejoin:round;stroke-miterlimit:10;}
	.st70{fill:none;}
	.st71{fill:none;stroke:#000000;stroke-width:13.7295;stroke-linecap:round;stroke-linejoin:round;stroke-miterlimit:10;}
	.st72{clip-path:url(#SVGID_6_);}
</style>
<g id="Layer_1" class="st0">
</g>
<g id="Layer_2" class="st0">
	<g class="st1">
		<text transform="matrix(1 0 0 1 218.0391 346.2732)"><tspan x="0" y="0" class="st8 st9">Over</tspan><tspan x="-157.3" y="167.35" class="st8 st9">PROFIT$</tspan></text>
		<text transform="matrix(1 0 0 1 18.6848 193.6404)" class="st8 st10">PEOPLE</text>
	</g>
	<g class="st1">
		<text transform="matrix(1 0 0 1 235.3669 575.0923)"><tspan x="0" y="0" class="st8 st30">Capitalism</tspan><tspan x="140.91" y="0" class="st8 st31"> </tspan><tspan x="145.95" y="0" class="st8 st30">Is</tspan><tspan x="167.76" y="0" class="st8 st31"> </tspan><tspan x="172.8" y="0" class="st8 st30">A</tspan><tspan x="193.56" y="0" class="st8 st32"> </tspan><tspan x="196.26" y="0" class="st8 st30">Virus</tspan><tspan x="265.68" y="0" class="st8 st32"> </tspan><tspan x="268.38" y="0" class="st8 st30">.</tspan><tspan x="275.34" y="0" class="st8 st32"> </tspan><tspan x="278.04" y="0" class="st8 st30">org</tspan></text>
	</g>
</g>
<g id="Layer_2_copy">
	<g>
		<path class="st70" d="M234.74,443.82c0-8.56-6.04-13.09-18.12-13.09h-20.3v25.84h20.3C228.7,456.57,234.74,453.55,234.74,443.82z"
			/>
		<path class="st70" d="M465.7,288.89c-8.73,0-12.58,5.37-13.59,12.42h26.34C478.12,294.59,473.76,288.89,465.7,288.89z"/>
		<path class="st70" d="M109.24,106.56c0-11.17-6.11-17.08-22.14-17.08H66.02v33.95H87.1C103.13,123.43,109.24,117.74,109.24,106.56
			z"/>
		<path class="st70" d="M548.19,577.73c2.25,0,3.9-0.45,3.9-1.26c0-0.57-0.42-0.78-1.23-0.78h-4.92c-0.54,0-0.9,0.3-0.9,0.81
			C545.04,577.46,546.39,577.73,548.19,577.73z"/>
		<path class="st70" d="M276.27,263.71c-15.61,0-25.51,11.75-25.51,29.7s9.9,29.7,25.51,29.7s25.51-11.75,25.51-29.7
			S291.87,263.71,276.27,263.71z"/>
		<path class="st70" d="M260.73,571.13c0,0.69,0.54,1.14,1.35,1.14c1.38,0,2.49-1.02,2.49-2.76v-0.21l-1.98,0.36
			C261.42,569.9,260.73,570.26,260.73,571.13z"/>
		<path class="st70" d="M277.5,568.49c0,1.95,1.05,3.21,2.7,3.21c1.89,0,2.76-1.35,2.76-3.3c0-1.92-0.87-3.27-2.76-3.27
			c-1.65,0-2.7,1.26-2.7,3.18V568.49z"/>
		<polygon class="st70" points="418.53,562.04 418.41,562.04 416.25,567.62 420.69,567.62 		"/>
		<path class="st70" d="M523.83,568.4c0-2.01-0.75-3.39-2.43-3.39c-1.71,0-2.43,1.38-2.43,3.39c0,2.01,0.72,3.39,2.43,3.39
			C523.08,571.79,523.83,570.41,523.83,568.4z"/>
		<path class="st70" d="M299.84,460.77c0,17.96,9.9,29.7,25.51,29.7s25.51-11.75,25.51-29.7s-9.9-29.7-25.51-29.7
			S299.84,442.81,299.84,460.77z"/>
		<path class="st70" d="M311.91,571.13c0,0.69,0.54,1.14,1.35,1.14c1.38,0,2.49-1.02,2.49-2.76v-0.21l-1.98,0.36
			C312.6,569.9,311.91,570.26,311.91,571.13z"/>
		<path class="st70" d="M498.05,106.56c0-11.17-6.11-17.08-22.14-17.08h-21.08v33.95h21.08
			C491.93,123.43,498.05,117.74,498.05,106.56z"/>
		<path class="st70" d="M335.91,164.54c19.61,0,32.05-14.76,32.05-37.32S355.52,89.9,335.91,89.9c-19.61,0-32.05,14.76-32.05,37.32
			S316.3,164.54,335.91,164.54z"/>
		<path class="st70" d="M548.55,567.89c0.81,0,1.41-0.75,1.41-1.95c0-1.17-0.6-1.92-1.41-1.92c-0.81,0-1.41,0.75-1.41,1.92
			C547.14,567.14,547.74,567.89,548.55,567.89z"/>
		<path class="st70" d="M97.15,430.73v27.02h16.78c12.75,0,17.62-4.53,17.62-13.42s-4.87-13.59-17.62-13.59H97.15z"/>
		<path class="st70" d="M700.19,483.76c0-5.71-5.2-7.72-12.75-9.06v19.13C695.49,492.99,700.19,489.63,700.19,483.76z"/>
		<path class="st70" d="M674.02,427.54c-7.22,1.01-11.07,4.2-11.07,10.24c0,5.54,4.7,7.38,11.07,8.56V427.54z"/>
		<path d="M276.27,238.54c-30.71,0-54.87,22.32-54.87,54.87s24.16,54.87,54.87,54.87s54.87-22.32,54.87-54.87
			S306.97,238.54,276.27,238.54z M276.27,323.12c-15.61,0-25.51-11.75-25.51-29.7s9.9-29.7,25.51-29.7s25.51,11.75,25.51,29.7
			S291.87,323.12,276.27,323.12z"/>
		<polygon points="381.3,317.92 380.63,317.92 364.35,271.43 335.83,271.43 363.68,346.27 396.07,346.27 423.92,271.43 
			397.58,271.43 		"/>
		<path d="M466.04,269.42c-23.32,0-40.78,16.95-40.78,40.61c0,23.83,17.12,38.26,41.11,38.26c19.8,0,33.56-9.57,37.42-26.68
			l-21.81-2.01c-2.52,5.87-7.22,8.39-14.6,8.39c-8.22,0-14.93-4.36-15.61-13.59h52.52v-7.55
			C504.3,286.54,491.04,269.42,466.04,269.42z M452.11,301.3c1.01-7.05,4.87-12.42,13.59-12.42c8.05,0,12.42,5.71,12.75,12.42
			H452.11z"/>
		<path d="M515.37,271.43v74.84h27.18v-34.23c0-12.58,6.21-17.28,16.28-17.28c5.2,0,9.23,1.01,12.92,3.19l1.68-25.67
			c-1.85-1.51-5.87-2.85-10.4-2.85c-9.9,0-17.79,6.88-20.47,15.27v-13.26H515.37z"/>
		<path d="M68.79,407.91v105.71h28.36v-33.06h18.12c27.69,0,43.8-12.92,43.8-36.41c0-23.32-16.11-36.25-43.8-36.25H68.79z
			 M131.55,444.33c0,8.89-4.87,13.42-17.62,13.42H97.15v-27.02h16.78C126.68,430.73,131.55,435.43,131.55,444.33z"/>
		<path d="M230.88,493.32c0.84,10.91,2.18,17.45,4.36,20.3h28.86c-3.52-3.86-4.03-8.56-5.54-24.33
			c-1.17-12.25-7.55-18.46-18.46-20.64c12.92-1.68,22.49-11.75,22.49-27.18c0-20.64-13.59-33.56-40.94-33.56h-53.36v105.71h28.02
			v-35.07h18.96C224.84,478.56,230.04,481.24,230.88,493.32z M196.31,456.57v-25.84h20.3c12.08,0,18.12,4.53,18.12,13.09
			c0,9.73-6.04,12.75-18.12,12.75H196.31z"/>
		<path d="M270.47,460.77c0,32.55,24.16,54.87,54.87,54.87s54.87-22.32,54.87-54.87s-24.16-54.87-54.87-54.87
			S270.47,428.22,270.47,460.77z M350.85,460.77c0,17.96-9.9,29.7-25.51,29.7s-25.51-11.75-25.51-29.7s9.9-29.7,25.51-29.7
			S350.85,442.81,350.85,460.77z"/>
		<polygon points="391.62,513.63 420.15,513.63 420.15,474.86 458.74,474.86 458.74,451.71 420.15,451.71 420.15,431.4 
			471.49,431.4 471.49,407.91 391.62,407.91 		"/>
		<rect x="483.74" y="407.91" width="28.53" height="105.71"/>
		<polygon points="625.86,407.91 524.51,407.91 524.51,431.4 560.76,431.4 560.76,513.63 589.11,513.63 589.11,431.4 625.86,431.4 
					"/>
		<path d="M659.25,475.37l-25.51,0.84c0,22.82,16.28,36.41,40.27,38.93v15.27h13.42v-14.93c22.49-1.34,39.6-12.42,39.6-33.56
			c0-17.28-10.07-28.02-32.22-31.88l-7.38-1.34v-20.14c6.88,2.35,11.75,7.72,12.42,15.61l25-0.5c-0.5-21.14-13.42-34.9-37.42-37.25
			v-13.09h-13.42v12.92c-23.32,1.68-37.76,14.09-37.76,34.06c0,18.46,12.08,27.85,29.37,30.71l8.39,1.51v20.3
			C666.13,490.64,659.92,485.1,659.25,475.37z M687.44,474.7c7.55,1.34,12.75,3.36,12.75,9.06c0,5.87-4.7,9.23-12.75,10.07V474.7z
			 M662.94,437.78c0-6.04,3.86-9.23,11.07-10.24v18.79C667.64,445.16,662.94,443.32,662.94,437.78z"/>
		<path d="M66.02,152.1h22.77c34.79,0,55.03-16.24,55.03-45.75c0-29.31-20.24-45.54-55.03-45.54h-58.4v132.83h35.63V152.1z
			 M66.02,89.48H87.1c16.02,0,22.14,5.9,22.14,17.08c0,11.18-6.11,16.87-22.14,16.87H66.02V89.48z"/>
		<polygon points="260,164.12 190.63,164.12 190.63,141.14 242.71,141.14 242.71,112.04 190.63,112.04 190.63,90.33 258.1,90.33 
			258.1,60.81 155.42,60.81 155.42,193.64 260,193.64 		"/>
		<path d="M335.91,196.17c38.58,0,68.95-28.04,68.95-68.95s-30.36-68.95-68.95-68.95s-68.95,28.04-68.95,68.95
			S297.32,196.17,335.91,196.17z M335.91,89.9c19.61,0,32.05,14.76,32.05,37.32s-12.44,37.32-32.05,37.32
			c-19.61,0-32.05-14.76-32.05-37.32S316.3,89.9,335.91,89.9z"/>
		<path d="M454.83,152.1h22.77c34.79,0,55.03-16.24,55.03-45.75c0-29.31-20.24-45.54-55.03-45.54h-58.4v132.83h35.63V152.1z
			 M454.83,89.48h21.08c16.02,0,22.14,5.9,22.14,17.08c0,11.18-6.11,16.87-22.14,16.87h-21.08V89.48z"/>
		<polygon points="645.85,164.12 580.07,164.12 580.07,60.81 544.23,60.81 544.23,193.64 645.85,193.64 		"/>
		<polygon points="765.83,164.12 696.46,164.12 696.46,141.14 748.54,141.14 748.54,112.04 696.46,112.04 696.46,90.33 
			763.93,90.33 763.93,60.81 661.25,60.81 661.25,193.64 765.83,193.64 		"/>
		<path d="M245.73,575.45c5.79,0,8.88-3.66,9.24-8.37l-4.89-0.21c-0.3,2.1-1.44,4.05-4.38,4.05c-2.79,0-4.41-2.07-4.41-5.28
			s1.62-5.28,4.41-5.28c2.94,0,4.08,1.95,4.38,4.05l4.89-0.18c-0.36-4.71-3.45-8.4-9.24-8.4c-5.52,0-9.69,3.99-9.69,9.81
			S240.21,575.45,245.73,575.45z"/>
		<path d="M260.82,567.56c-2.91,0.51-4.77,1.62-4.77,4.2c0,2.28,1.71,3.63,4.32,3.63c2.13,0,3.66-0.81,4.44-2.37
			c0.45,1.53,1.74,2.37,3.39,2.37c1.38,0,2.34-0.39,3.03-0.87v-2.58c-0.39,0.15-0.69,0.21-1.08,0.21c-0.51,0-0.81-0.3-0.81-0.99
			v-4.56c0-3.72-2.61-5.25-6.15-5.25c-4.02,0-6.21,2.04-6.63,4.98l4.5,0.3c0.21-0.99,0.75-1.68,1.83-1.68
			c1.17,0,1.68,0.66,1.68,1.77v0.21L260.82,567.56z M264.57,569.51c0,1.74-1.11,2.76-2.49,2.76c-0.81,0-1.35-0.45-1.35-1.14
			c0-0.87,0.69-1.23,1.86-1.47l1.98-0.36V569.51z"/>
		<path d="M272.64,561.71v18.18h4.86v-7.08c0.66,1.56,2.16,2.64,4.41,2.64c3.93,0,5.94-3.09,5.94-7.05c0-3.93-2.01-7.05-5.94-7.05
			c-2.25,0-3.75,1.08-4.41,2.67v-2.31H272.64z M280.2,565.13c1.89,0,2.76,1.35,2.76,3.27c0,1.95-0.87,3.3-2.76,3.3
			c-1.65,0-2.7-1.26-2.7-3.21v-0.18C277.5,566.39,278.55,565.13,280.2,565.13z"/>
		<rect x="289.77" y="561.71" width="4.86" height="13.38"/>
		<rect x="289.74" y="556.19" width="4.92" height="4.26"/>
		<path d="M302.13,575.45c1.83,0,3-0.45,4.02-1.2v-3.15c-0.81,0.33-1.47,0.45-2.07,0.45c-0.99,0-1.53-0.45-1.53-1.59v-4.89h3.48
			v-3.36h-3.48v-3.69h-3.06l-0.45,1.74c-0.33,1.23-0.75,1.95-2.1,2.16l-0.99,0.15v3h1.8v6.3
			C297.75,574.52,299.88,575.45,302.13,575.45z"/>
		<path d="M312,567.56c-2.91,0.51-4.77,1.62-4.77,4.2c0,2.28,1.71,3.63,4.32,3.63c2.13,0,3.66-0.81,4.44-2.37
			c0.45,1.53,1.74,2.37,3.39,2.37c1.38,0,2.34-0.39,3.03-0.87v-2.58c-0.39,0.15-0.69,0.21-1.08,0.21c-0.51,0-0.81-0.3-0.81-0.99
			v-4.56c0-3.72-2.61-5.25-6.15-5.25c-4.02,0-6.21,2.04-6.63,4.98l4.5,0.3c0.21-0.99,0.75-1.68,1.83-1.68
			c1.17,0,1.68,0.66,1.68,1.77v0.21L312,567.56z M315.75,569.51c0,1.74-1.11,2.76-2.49,2.76c-0.81,0-1.35-0.45-1.35-1.14
			c0-0.87,0.69-1.23,1.86-1.47l1.98-0.36V569.51z"/>
		<rect x="323.82" y="556.19" width="4.86" height="18.9"/>
		<rect x="331.29" y="556.19" width="4.92" height="4.26"/>
		<rect x="331.32" y="561.71" width="4.86" height="13.38"/>
		<path d="M344.64,572.42c-1.47,0-2.37-0.63-2.55-1.74l-4.23,0.06c0.27,3.24,3.03,4.71,6.72,4.71c3.81,0,6.21-1.62,6.21-4.44
			c0-2.61-1.74-3.96-4.74-4.44l-2.61-0.45c-0.45-0.06-0.81-0.3-0.81-0.75c0-0.6,0.54-0.96,1.47-0.96c1.5,0,2.34,0.6,2.52,1.56
			l3.99-0.12c-0.27-2.79-2.55-4.5-6.42-4.5c-3.75,0-6.06,1.89-6.06,4.53c0,2.73,1.71,3.78,4.95,4.29l1.98,0.3
			c0.93,0.15,1.23,0.51,1.23,1.02C346.29,572.03,345.72,572.42,344.64,572.42z"/>
		<path d="M375.18,575.09v-8.4c0-2.79-1.08-5.34-4.77-5.34c-2.25,0-3.84,1.14-4.56,2.64c-0.57-1.56-1.8-2.64-4.17-2.64
			c-2.01,0-3.45,0.9-4.17,2.37v-2.01h-4.86v13.38h4.86v-6.57c0-2.01,0.57-3.33,2.16-3.33c1.47,0,1.83,0.96,1.83,2.79v7.11h4.86
			v-6.57c0-2.01,0.54-3.33,2.16-3.33c1.47,0,1.8,0.96,1.8,2.79v7.11H375.18z"/>
		<rect x="382.83" y="556.19" width="5.1" height="18.9"/>
		<path d="M396.51,572.42c-1.47,0-2.37-0.63-2.55-1.74l-4.23,0.06c0.27,3.24,3.03,4.71,6.72,4.71c3.81,0,6.21-1.62,6.21-4.44
			c0-2.61-1.74-3.96-4.74-4.44l-2.61-0.45c-0.45-0.06-0.81-0.3-0.81-0.75c0-0.6,0.54-0.96,1.47-0.96c1.5,0,2.34,0.6,2.52,1.56
			l3.99-0.12c-0.27-2.79-2.55-4.5-6.42-4.5c-3.75,0-6.06,1.89-6.06,4.53c0,2.73,1.71,3.78,4.95,4.29l1.98,0.3
			c0.93,0.15,1.23,0.51,1.23,1.02C398.16,572.03,397.59,572.42,396.51,572.42z"/>
		<path d="M408.24,575.09h5.13l1.41-3.66h7.38l1.41,3.66H429l-7.53-18.9h-5.7L408.24,575.09z M418.41,562.04h0.12l2.16,5.58h-4.44
			L418.41,562.04z"/>
		<polygon points="441.72,568.76 437.04,556.19 431.7,556.19 438.96,575.09 444.33,575.09 451.59,556.19 446.52,556.19 
			441.84,568.76 		"/>
		<rect x="452.91" y="561.71" width="4.86" height="13.38"/>
		<rect x="452.88" y="556.19" width="4.92" height="4.26"/>
		<path d="M460.41,561.71v13.38h4.86v-6.12c0-2.25,1.11-3.09,2.91-3.09c0.93,0,1.65,0.18,2.31,0.57l0.3-4.59
			c-0.33-0.27-1.05-0.51-1.86-0.51c-1.77,0-3.18,1.23-3.66,2.73v-2.37H460.41z"/>
		<path d="M485.97,575.09v-13.38h-4.86v6.57c0,2.04-0.6,3.36-2.13,3.36c-1.47,0-1.98-0.99-1.98-2.79v-7.14h-4.86v8.43
			c0,2.79,1.11,5.31,4.77,5.31c2.01,0,3.48-0.87,4.2-2.37v2.01H485.97z"/>
		<path d="M494.43,572.42c-1.47,0-2.37-0.63-2.55-1.74l-4.23,0.06c0.27,3.24,3.03,4.71,6.72,4.71c3.81,0,6.21-1.62,6.21-4.44
			c0-2.61-1.74-3.96-4.74-4.44l-2.61-0.45c-0.45-0.06-0.81-0.3-0.81-0.75c0-0.6,0.54-0.96,1.47-0.96c1.5,0,2.34,0.6,2.52,1.56
			l3.99-0.12c-0.27-2.79-2.55-4.5-6.42-4.5c-3.75,0-6.06,1.89-6.06,4.53c0,2.73,1.71,3.78,4.95,4.29l1.98,0.3
			c0.93,0.15,1.23,0.51,1.23,1.02C496.08,572.03,495.51,572.42,494.43,572.42z"/>
		<rect x="504.72" y="569.93" width="5.16" height="5.16"/>
		<path d="M528.72,568.4c0-4.14-2.97-7.05-7.32-7.05c-4.38,0-7.32,2.91-7.32,7.05c0,4.17,2.94,7.05,7.32,7.05
			C525.75,575.45,528.72,572.57,528.72,568.4z M518.97,568.4c0-2.01,0.72-3.39,2.43-3.39c1.68,0,2.43,1.38,2.43,3.39
			c0,2.01-0.75,3.39-2.43,3.39C519.69,571.79,518.97,570.41,518.97,568.4z"/>
		<path d="M530.64,561.71v13.38h4.86v-6.12c0-2.25,1.11-3.09,2.91-3.09c0.93,0,1.65,0.18,2.31,0.57l0.3-4.59
			c-0.33-0.27-1.05-0.51-1.86-0.51c-1.77,0-3.18,1.23-3.66,2.73v-2.37H530.64z"/>
		<path d="M541.05,576.98c0,2.52,3.3,3.27,7.11,3.27c4.35,0,8.4-1.53,8.4-4.86c0-2.25-1.53-3.84-4.56-3.84h-5.55
			c-0.81,0-1.14-0.36-1.14-0.81c0-0.27,0.09-0.48,0.27-0.63c0.87,0.27,1.83,0.39,2.91,0.39c3.78,0,6.51-1.74,6.51-4.56
			c0-0.63-0.15-1.2-0.42-1.71c0.66-0.15,1.38-0.21,1.95-0.21v-3.66c-1.47,0-2.94,0.96-3.75,2.07c-1.14-0.69-2.67-1.08-4.29-1.08
			c-3.75,0-6.45,1.74-6.45,4.59c0,1.47,0.72,2.61,1.92,3.39c-1.44,0.54-2.28,1.53-2.28,2.82c0,1.14,0.72,2.22,1.92,2.61
			C542.1,574.88,541.05,575.81,541.05,576.98z M548.55,564.02c0.81,0,1.41,0.75,1.41,1.92c0,1.2-0.6,1.95-1.41,1.95
			c-0.81,0-1.41-0.75-1.41-1.95C547.14,564.77,547.74,564.02,548.55,564.02z M545.94,575.69h4.92c0.81,0,1.23,0.21,1.23,0.78
			c0,0.81-1.65,1.26-3.9,1.26c-1.8,0-3.15-0.27-3.15-1.23C545.04,575.99,545.4,575.69,545.94,575.69z"/>
	</g>
</g>
</svg>
