<?xml version="1.0" encoding="utf-8"?>
<!-- Generator: Adobe Illustrator 23.1.1, SVG Export Plug-In . SVG Version: 6.00 Build 0)  -->
<svg version="1.1" xmlns="http://www.w3.org/2000/svg" xmlns:xlink="http://www.w3.org/1999/xlink" x="0px" y="0px"
	 viewBox="0 0 792 612" style="enable-background:new 0 0 792 612;" xml:space="preserve">
<style type="text/css">
	.st0{display:none;}
	.st1{display:inline;}
	.st2{display:inline;fill:#FFD600;}
	.st3{display:inline;fill:#FFFFFF;}
	.st4{fill:#FFFFFF;stroke:#000000;stroke-width:13.497;stroke-linecap:round;stroke-linejoin:round;stroke-miterlimit:10;}
	.st5{fill:#FFFFFF;}
	.st6{stroke:#000000;stroke-width:18.3348;stroke-linecap:round;stroke-miterlimit:10;}
	.st7{fill:none;stroke:#000000;stroke-width:13.497;stroke-linecap:round;stroke-linejoin:round;stroke-miterlimit:10;}
	.st8{stroke:#000000;stroke-width:1.5213;stroke-miterlimit:10;}
	.st9{font-family:'FoundersGrotesk-Semibold';}
	.st10{font-size:137.7381px;}
	.st11{letter-spacing:-4;}
	.st12{stroke:#000000;stroke-width:18.3348;stroke-linecap:round;stroke-linejoin:round;stroke-miterlimit:10;}
	.st13{fill:#FFFFFF;stroke:#000000;stroke-width:13.497;stroke-miterlimit:10;}
	.st14{fill:none;stroke:#000000;stroke-width:13.497;stroke-miterlimit:10;}
	.st15{fill:none;stroke:#000000;stroke-width:30.5612;stroke-linecap:round;stroke-linejoin:round;stroke-miterlimit:10;}
	.st16{fill:#FFFFFF;stroke:#000000;stroke-width:16.2993;stroke-linecap:round;stroke-linejoin:round;stroke-miterlimit:10;}
	.st17{fill:#FFFFFF;stroke:#000000;stroke-width:16;stroke-linecap:round;stroke-linejoin:round;stroke-miterlimit:10;}
	.st18{fill:#FFFFFF;stroke:#000000;stroke-width:11.7326;stroke-linecap:round;stroke-linejoin:round;stroke-miterlimit:10;}
	.st19{fill:#FFFFFF;stroke:#000000;stroke-width:13.2623;stroke-linecap:round;stroke-linejoin:round;stroke-miterlimit:10;}
	.st20{fill:#FFFFFF;stroke:#000000;stroke-width:13.2623;stroke-linecap:round;stroke-miterlimit:10;}
	.st21{stroke:#000000;stroke-width:4.5213;stroke-miterlimit:10;}
	.st22{fill:#FFFFFF;stroke:#000000;stroke-width:14;stroke-linecap:round;stroke-linejoin:round;stroke-miterlimit:10;}
	.st23{fill:#FFFFFF;stroke:#000000;stroke-width:16.6693;stroke-miterlimit:10;}
	.st24{stroke:#000000;stroke-width:16.6693;stroke-linecap:round;stroke-miterlimit:10;}
	.st25{fill:#FFFFFF;stroke:#000000;stroke-width:13.497;stroke-linecap:round;stroke-miterlimit:10;}
	.st26{fill:none;stroke:#000000;stroke-width:13.497;stroke-linecap:round;stroke-miterlimit:10;}
	.st27{fill:#FFFFFF;stroke:#000000;stroke-width:15.2362;stroke-linecap:round;stroke-linejoin:round;stroke-miterlimit:10;}
	.st28{fill:#FFFFFF;stroke:#000000;stroke-width:14.8467;stroke-linecap:round;stroke-linejoin:round;stroke-miterlimit:10;}
	.st29{stroke:#000000;stroke-width:20.1683;stroke-linecap:round;stroke-miterlimit:10;}
	.st30{fill:none;stroke:#000000;stroke-width:14.8467;stroke-linecap:round;stroke-linejoin:round;stroke-miterlimit:10;}
	.st31{fill:#FFFFFF;stroke:#000000;stroke-width:12.2439;stroke-linecap:round;stroke-linejoin:round;stroke-miterlimit:10;}
	.st32{font-family:'FoundersGrotesk-Bold';}
	.st33{font-size:30px;}
	.st34{font-size:28px;}
	.st35{font-size:15px;}
	.st36{fill:none;stroke:#000000;stroke-width:11.5;stroke-linecap:round;stroke-linejoin:round;stroke-miterlimit:10;}
	.st37{fill:#FFFFFF;stroke:#000000;stroke-width:11.5;stroke-linecap:round;stroke-linejoin:round;stroke-miterlimit:10;}
	.st38{fill:#FFFFFF;stroke:#000000;stroke-width:15.3;stroke-linecap:round;stroke-linejoin:round;stroke-miterlimit:10;}
	
		.st39{display:inline;fill:#FFFFFF;stroke:#000000;stroke-width:15.3;stroke-linecap:round;stroke-linejoin:round;stroke-miterlimit:10;}
	.st40{fill:#FFFFFF;stroke:#FFFFFF;stroke-width:3;stroke-miterlimit:10;}
	.st41{fill:#FFFFFF;stroke:#000000;stroke-width:13.3058;stroke-linecap:round;stroke-linejoin:round;stroke-miterlimit:10;}
	.st42{fill:#06F6FC;}
	.st43{display:inline;fill:#FF9C1A;}
	.st44{fill:#FFFFFF;stroke:#000000;stroke-width:15.2517;stroke-linecap:round;stroke-linejoin:round;stroke-miterlimit:10;}
	.st45{stroke:#000000;stroke-width:3;stroke-miterlimit:10;}
	.st46{fill:#06DCFF;}
	.st47{fill:#FFD600;}
	.st48{fill:#F9415C;}
	.st49{fill:#7D7DFF;}
	.st50{fill:#A8D600;}
	.st51{fill:#FF9C1A;}
	.st52{fill:#FF00A9;}
	
		.st53{display:inline;fill:#FFFFFF;stroke:#000000;stroke-width:14;stroke-linecap:round;stroke-linejoin:round;stroke-miterlimit:10;}
	.st54{fill:none;stroke:#000000;stroke-width:10;stroke-linecap:round;stroke-linejoin:round;stroke-miterlimit:10;}
	.st55{fill:#FFFFFF;stroke:#000000;stroke-width:12.3365;stroke-linecap:round;stroke-linejoin:round;stroke-miterlimit:10;}
	.st56{fill:none;stroke:#000000;stroke-width:13.3073;stroke-linecap:round;stroke-linejoin:round;stroke-miterlimit:10;}
	.st57{fill:#FFFFFF;stroke:#000000;stroke-width:13.3073;stroke-linecap:round;stroke-linejoin:round;stroke-miterlimit:10;}
	.st58{stroke:#000000;stroke-width:13.3073;stroke-linecap:round;stroke-linejoin:round;stroke-miterlimit:10;}
	.st59{stroke:#FFFFFF;stroke-width:13.3073;stroke-linecap:round;stroke-linejoin:round;stroke-miterlimit:10;}
	.st60{fill:#FFFFFF;stroke:#000000;stroke-width:10;stroke-linecap:round;stroke-linejoin:round;stroke-miterlimit:10;}
	.st61{fill:#FFFFFF;stroke:#000000;stroke-width:15;stroke-linecap:round;stroke-linejoin:round;stroke-miterlimit:10;}
	.st62{fill:none;stroke:#000000;stroke-width:15;stroke-linecap:round;stroke-linejoin:round;stroke-miterlimit:10;}
	.st63{display:inline;fill:none;stroke:#000000;stroke-width:15;stroke-linecap:round;stroke-linejoin:round;stroke-miterlimit:10;}
	
		.st64{display:inline;fill:#FFFFFF;stroke:#000000;stroke-width:15;stroke-linecap:round;stroke-linejoin:round;stroke-miterlimit:10;}
	.st65{stroke:#FFFFFF;stroke-width:15;stroke-linecap:round;stroke-linejoin:round;stroke-miterlimit:10;}
	
		.st66{display:inline;fill:none;stroke:#000000;stroke-width:13.7295;stroke-linecap:round;stroke-linejoin:round;stroke-miterlimit:10;}
	.st67{fill:#FFFFFF;stroke:#000000;stroke-width:12.7279;stroke-linecap:round;stroke-linejoin:round;stroke-miterlimit:10;}
	.st68{fill:#FFFFFF;stroke:#000000;stroke-width:13.7295;stroke-linecap:round;stroke-linejoin:round;stroke-miterlimit:10;}
	.st69{fill:none;stroke:#000000;stroke-width:12.7279;stroke-linecap:round;stroke-linejoin:round;stroke-miterlimit:10;}
	.st70{clip-path:url(#SVGID_4_);}
	.st71{stroke:#FFFFFF;stroke-width:13.7894;stroke-linecap:round;stroke-linejoin:round;stroke-miterlimit:10;}
	.st72{fill:none;}
	.st73{fill:none;stroke:#000000;stroke-width:13.7295;stroke-linecap:round;stroke-linejoin:round;stroke-miterlimit:10;}
	.st74{clip-path:url(#SVGID_6_);}
</style>
<g id="Layer_1" class="st0">
</g>
<g id="Layer_2" class="st0">
	<g class="st1">
		<path class="st4" d="M445.49,72.17c0,0,64.79,58.94,70.07,70.52c5.38,11.8,2.59,19.38-2.27,29.28
			c-4.75,9.66-33.01,67.64-33.01,67.64c-4.65,9.68-19.25,12.28-29.49,7.37c-10.23-4.92-16.82-17.77-12.17-27.44l26.04-54.2"/>
		<path class="st4" d="M404.84,197.15c1.84,9.49,11.46,15.61,21.49,13.67c10.03-1.94,16.68-11.21,14.85-20.7l-12.17-62.92
			c-1.84-9.49-11.46-15.61-21.49-13.67s-16.68,11.21-14.85,20.7L404.84,197.15z"/>
		<path class="st4" d="M235.24,38.25c0,0,172.94,1.67,185.82,3.22c12.88,1.55,31.09,14.67,34.62,29.42
			c2.61,10.91,16.23,52.3,20.96,79.46c1.67,9.57,2.6,16.97,0.08,23.79c-3.72,10.09-25.69,70.74-25.69,70.74
			c-3.6,10.11-17.85,14.25-28.54,10.44s-18.6-15.89-15-26.01l23.88-67.05l-14.8-33.1c-2.03-4.91-34.1-7.67-48.17,10.04"/>
		<path class="st5" d="M372.77,134.91c-3.64,3.06-11.17,11.31-13.38,17.29c-4.68,12.7,29.03,46.3,61.31,80.32
			c23.34,24.59,10.46,49.36,1.54,61.19c-3.42,4.54-9.34,4.08-14.46-1.04c-18.35-18.33-62.97-62.71-86.89-84.7
			c-76.17-22.67-112.5-70.04-112.5-70.04L29.41,162.26V28.51l205.82,9.73l132.71,2.81"/>
		<polyline class="st4" points="36.42,29.53 235.24,38.25 414.15,41.05 		"/>
		<g>
			<path class="st6" d="M144.01,527.11c19.47,33.91,56.09,56.67,97.98,56.38c41.89-0.29,78.18-23.57,97.18-57.75L144.01,527.11z"/>
			<g>
				<g>
					<g>
						<path d="M239.44,505.98c-5.1,0-7.61-2.51-8.31-8.03c-0.42-3.26-5.84-49.14-5.84-49.14h-3.01c-4.98,0-9.7-3.24-8.87-9.4
							c0.64-4.76,4.3-36.03,4.77-40.45c0.48-4.41,4.04-8.17,9.02-8.17h14.4h14.39c4.98,0,8.55,3.76,9.02,8.17
							c0.48,4.42,4.14,35.69,4.77,40.45c0.83,6.16-3.88,9.4-8.87,9.4h-3c0,0-5.42,45.88-5.84,49.14c-0.72,5.51-3.83,8.03-8.51,8.03
							h-1.93H239.44z"/>
					</g>
				</g>
				<circle cx="241.59" cy="366.41" r="15.51"/>
			</g>
			<polyline class="st7" points="144.01,527.11 241.84,235.89 339.17,525.74 			"/>
		</g>
		<g>
			<path class="st6" d="M493.43,451.89c19.47,33.91,56.09,56.67,97.98,56.38s78.18-23.57,97.18-57.75L493.43,451.89z"/>
			<polyline class="st7" points="493.43,451.89 591.26,160.67 688.59,450.52 			"/>
			<g>
				<text transform="matrix(1 0 0 1 548.7017 404.7361)" class="st8 st9 st10 st11">$</text>
			</g>
		</g>
		<line class="st4" x1="205.71" y1="254.19" x2="626.86" y2="160.17"/>
		<path class="st4" d="M372.77,134.91c-3.64,3.06-11.17,11.31-13.38,17.29c-4.68,12.7,29.03,46.3,61.31,80.32
			c23.34,24.59,10.46,49.36,1.54,61.19c-3.42,4.54-9.34,4.08-14.46-1.04c-18.35-18.33-62.97-62.71-86.89-84.7
			c-76.17-22.67-112.5-70.04-112.5-70.04S80.79,162.05,36.42,162.28"/>
	</g>
	<g class="st1">
		<text transform="matrix(0 -1 1 0 760.0337 478.6772)"><tspan x="0" y="0" class="st32 st33">Capitalism</tspan><tspan x="140.91" y="0" class="st32 st34"> </tspan><tspan x="145.95" y="0" class="st32 st33">Is</tspan><tspan x="167.76" y="0" class="st32 st34"> </tspan><tspan x="172.8" y="0" class="st32 st33">A</tspan><tspan x="193.56" y="0" class="st32 st35"> </tspan><tspan x="196.26" y="0" class="st32 st33">Virus</tspan><tspan x="265.68" y="0" class="st32 st35"> </tspan><tspan x="268.38" y="0" class="st32 st33">.</tspan><tspan x="275.34" y="0" class="st32 st35"> </tspan><tspan x="278.04" y="0" class="st32 st33">org</tspan></text>
	</g>
</g>
<g id="Layer_2_copy">
	<g>
		<path class="st72" d="M761.44,169.01c0.96,0,1.23-1.35,1.23-3.15c0-2.25-0.45-3.9-1.26-3.9c-0.57,0-0.78,0.42-0.78,1.23v4.92
			C760.63,168.65,760.93,169.01,761.44,169.01z"/>
		<path class="st72" d="M750.88,166.91c1.2,0,1.95-0.6,1.95-1.41c0-0.81-0.75-1.41-1.95-1.41c-1.17,0-1.92,0.6-1.92,1.41
			C748.96,166.31,749.71,166.91,750.88,166.91z"/>
		<path class="st72" d="M754.45,449.47h-0.21l0.36,1.98c0.24,1.17,0.6,1.86,1.47,1.86c0.69,0,1.14-0.54,1.14-1.35
			C757.21,450.58,756.19,449.47,754.45,449.47z"/>
		<path class="st72" d="M754.45,398.29h-0.21l0.36,1.98c0.24,1.17,0.6,1.86,1.47,1.86c0.69,0,1.14-0.54,1.14-1.35
			C757.21,399.4,756.19,398.29,754.45,398.29z"/>
		<path class="st72" d="M753.34,431.08c-1.92,0-3.27,0.87-3.27,2.76c0,1.65,1.26,2.7,3.18,2.7h0.18c1.95,0,3.21-1.05,3.21-2.7
			C756.64,431.95,755.29,431.08,753.34,431.08z"/>
		<path class="st72" d="M753.34,195.08c2.01,0,3.39-0.72,3.39-2.43c0-1.68-1.38-2.43-3.39-2.43c-2.01,0-3.39,0.75-3.39,2.43
			C749.95,194.36,751.33,195.08,753.34,195.08z"/>
		<polygon class="st72" points="746.98,295.63 752.56,297.79 752.56,293.35 746.98,295.51 		"/>
		<path class="st72" d="M583.62,333.14c-6.3,0.83-9.36,3.75-9.36,8.93c0,4.73,3.56,6.54,9.36,7.75V333.14z"/>
		<path class="st72" d="M606.07,380.63c0-4.36-2.99-6.65-10.6-8.05v16.98C602.22,388.72,606.07,385.5,606.07,380.63z"/>
		<path class="st72" d="M154.24,517.87L329,516.64l-87.16-259.56L154.24,517.87z M265,398.97c0.48,4.42,4.14,35.69,4.77,40.45
			c0.83,6.16-3.88,9.4-8.87,9.4h-3c0,0-5.42,45.88-5.84,49.14c-0.72,5.51-3.83,8.03-8.51,8.03h-1.93h-2.18
			c-5.1,0-7.61-2.51-8.31-8.03c-0.42-3.26-5.84-49.14-5.84-49.14h-3.01c-4.98,0-9.7-3.24-8.87-9.4c0.64-4.76,4.3-36.03,4.77-40.45
			c0.48-4.41,4.04-8.17,9.02-8.17h14.4h14.39C260.96,390.8,264.53,394.56,265,398.97z M257.1,366.41c0,8.57-6.94,15.51-15.51,15.51
			c-8.57,0-15.51-6.94-15.51-15.51c0-8.57,6.94-15.51,15.51-15.51C250.16,350.9,257.1,357.84,257.1,366.41z"/>
		<path class="st72" d="M678.41,441.43l-87.16-259.56l-87.61,260.79L678.41,441.43z M577.22,369.4
			c-15.5-2.64-24.04-11.71-24.04-25.54c0-16.16,11.36-26.63,30.44-28.12V304.8h11.85v11.24c18.81,2.27,29.75,13.62,30.03,31.24
			l0.01,0.75l-19.81,0.6l-0.04-0.74c-0.36-6.71-4.05-11.71-10.19-13.87v17.88l5.44,0.99c18,3.23,26.38,11.61,26.38,26.37
			c0,15.86-12.17,26.44-31.82,27.71v12.44h-11.85v-12.75c-20.46-2.27-32.65-14.48-32.65-32.78v-0.73l20.21-0.74l0.04,0.74
			c0.46,7.82,4.85,13.32,12.39,15.57v-18.2L577.22,369.4z"/>
		<path class="st72" d="M386.05,135.51c-0.04-0.18-0.06-0.37-0.09-0.55c-2.86,1.06-5.62,2.47-8.05,4.32c-0.24,0.28-0.5,0.56-0.8,0.8
			c-1.02,0.86-2.28,2.09-3.6,3.5c-0.12,0.14-0.25,0.28-0.38,0.42c-3.07,3.36-6.32,7.63-7.4,10.54c-0.05,0.17-1.1,4.78,13.05,22.34
			c5.49,6.81,12.2,14.31,19.6,22.27c-0.05-0.24-0.11-0.47-0.16-0.72L386.05,135.51z"/>
		<path d="M241.59,390.8h-14.4c-4.98,0-8.55,3.76-9.02,8.17c-0.47,4.42-4.12,35.69-4.77,40.45c-0.83,6.16,3.89,9.4,8.87,9.4h3.01
			c0,0,5.42,45.88,5.84,49.14c0.71,5.51,3.21,8.03,8.31,8.03h2.18h1.93c4.67,0,7.79-2.51,8.51-8.03c0.42-3.26,5.84-49.14,5.84-49.14
			h3c4.99,0,9.7-3.24,8.87-9.4c-0.63-4.76-4.29-36.03-4.77-40.45c-0.47-4.41-4.04-8.17-9.02-8.17H241.59z"/>
		<path d="M226.08,366.41c0,8.57,6.94,15.51,15.51,15.51c8.57,0,15.51-6.94,15.51-15.51c0-8.57-6.94-15.51-15.51-15.51
			C233.03,350.9,226.08,357.84,226.08,366.41z"/>
		<path d="M571.22,373.15l-0.04-0.74l-20.21,0.74v0.73c0,18.29,12.19,30.51,32.65,32.78v12.75h11.85v-12.44
			c19.65-1.28,31.82-11.85,31.82-27.71c0-14.76-8.38-23.13-26.38-26.37l-5.44-0.99v-17.88c6.13,2.16,9.83,7.16,10.19,13.87
			l0.04,0.74l19.81-0.6l-0.01-0.75c-0.28-17.62-11.21-28.98-30.03-31.24V304.8h-11.85v10.93c-19.08,1.49-30.44,11.96-30.44,28.12
			c0,13.83,8.54,22.91,24.04,25.54l6.4,1.13v18.2C576.07,386.47,571.68,380.97,571.22,373.15z M595.47,372.58
			c7.61,1.39,10.6,3.69,10.6,8.05c0,4.86-3.85,8.09-10.6,8.93V372.58z M574.26,342.06c0-5.17,3.06-8.1,9.36-8.93v16.68
			C577.81,348.6,574.26,346.79,574.26,342.06z"/>
		<path d="M427.63,297.77c5.11-6.78,13.21-20.04,13.04-35.8c0.3-0.09,0.61-0.17,0.91-0.27c4.38-1.49,8.14-3.87,10.99-6.86
			c2.97,0.86,6.11,1.31,9.25,1.31c2.45,0,4.9-0.27,7.28-0.8c7.9-1.79,14.19-6.46,17.23-12.78c0.2-0.41,14.26-29.25,24.15-49.5
			l67.86-15.15l-88.97,264.84l-11.72,0.08l7.82,13.62c21.64,37.67,61.86,60.98,105.15,60.98c0.28,0,0.57,0,0.85,0
			c43.6-0.31,83.88-24.24,105.13-62.46l7.63-13.73l-11.61,0.08l-90.25-268.78l25.96-5.8c3.64-0.81,5.93-4.42,5.12-8.06
			c-0.81-3.64-4.42-5.93-8.06-5.12l-27.34,6.1l-0.39-1.16c-0.92-2.75-3.5-4.6-6.4-4.6h0c-2.9,0-5.47,1.85-6.4,4.6l-1.49,4.44
			l-65.3,14.58c0.52-1.06,0.95-1.95,1.27-2.6c5.21-10.59,8.98-20.54,2.36-35.05c-4.14-9.08-35.6-39.26-56.01-58.29
			c-1.61-5.48-2.86-9.79-3.45-12.29c-4.18-17.5-24.77-32.68-40.38-34.55c-1.2-0.14-3.7-0.29-7.24-0.43
			c-0.12-0.01-0.24-0.02-0.36-0.02l-0.4-0.01c-36.04-1.41-170.78-2.73-178.45-2.8l-198.7-8.71c-3.49-0.16-6.47,2.36-6.97,5.74
			c-0.03,0.23-0.06,0.47-0.07,0.71c-0.16,3.72,2.72,6.87,6.45,7.04l198.82,8.71c0.06,0,0.13,0,0.19,0.01l178.92,2.81
			c0.04,0,0.07,0,0.11,0c0.01,0,0.02,0,0.03,0c2.99,0.12,5.07,0.24,6.06,0.36c10.68,1.28,26.1,12.74,28.86,24.29
			c0.83,3.46,2.63,9.56,4.9,17.28c5.07,17.19,12.74,43.17,15.98,61.77c1.43,8.23,2.37,14.94,0.4,20.29
			c-1.03,2.81-3.5,9.56-6.51,17.84l-38.14,8.51l11.98-33.64c0.58-1.64,0.51-3.43-0.2-5.02l-14.77-33.05
			c-1.66-3.85-6.02-6.23-13.31-7.25c-7.16-1.01-15.56-0.46-23.04,1.5c-5.24,1.37-9.96,3.42-14.05,6.04l0.07,1.44
			c-1.42,0.07-2.82,0.58-3.99,1.56c-3.6,3.02-12.48,12.29-15.37,20.12c-5.45,14.77,15.86,38.12,53.99,78.1
			c2.91,3.05,5.84,6.12,8.76,9.2c18.71,19.72,10.9,39.42,1.05,52.48c-0.32,0.42-0.48,0.43-0.56,0.44c-0.5,0.04-1.94-0.38-3.75-2.19
			c-18.17-18.16-63.04-62.78-87.09-84.89c-0.76-0.69-1.66-1.21-2.64-1.5c-72.96-21.71-108.72-67.23-109.07-67.68
			c-1.55-2.02-4.11-3-6.61-2.52c-1.27,0.24-127.51,24.01-170.75,24.23c-3.7,0.02-6.68,3.01-6.71,6.69c0,0.03,0,0.06,0,0.09
			c0.02,3.72,3.04,6.71,6.75,6.71c0.01,0,0.02,0,0.03,0c29.83-0.15,95.23-10.67,136.63-17.87c14.95-2.6,26.76-4.77,32.65-5.86
			c0.74,0.85,1.64,1.86,2.67,2.99c12.75,13.86,48.28,47.24,109.05,65.7c2.24,2.07,4.66,4.33,7.2,6.73L249.5,237.5l-1.26-3.76
			c-0.92-2.75-3.5-4.6-6.4-4.6h0c-2.9,0-5.47,1.85-6.4,4.6l-2.5,7.46l-28.7,6.41c-3.64,0.81-5.93,4.42-5.12,8.06
			c0.7,3.14,3.49,5.28,6.58,5.28c0.49,0,0.98-0.05,1.48-0.16l20.74-4.63l-87.95,261.83l-11.72,0.08l7.82,13.62
			c21.64,37.67,61.86,60.98,105.15,60.98c0.28,0,0.57,0,0.85,0c43.6-0.31,83.88-24.24,105.13-62.46l7.63-13.73l-11.61,0.08
			l-89.38-266.18l82.59-18.44c23.67,22.76,52.82,51.76,66.59,65.52c3.99,3.98,8.65,6.14,13.22,6.14c0.34,0,0.67-0.01,1.01-0.04
			C421.35,303.26,425.04,301.21,427.63,297.77z M591.26,181.87l87.16,259.56l-174.76,1.23L591.26,181.87z M509.42,145.49
			c4.08,8.95,2.47,14.03-2.19,23.5c-1.04,2.12-3.24,6.61-6.02,12.32l-21.7,4.84c1.61-4.43,2.87-7.88,3.54-9.68
			c3.13-8.49,1.96-17.38,0.23-27.28c-2.17-12.48-6.19-27.89-10.14-41.96C492.23,125.56,507.49,141.27,509.42,145.49z M474.04,201.2
			l19.59-4.37c-9.11,18.68-19.26,39.49-19.44,39.86c-2.1,4.37-8.76,6.62-15.11,5.77C462.09,234.15,468.52,216.4,474.04,201.2z
			 M378.77,176.88c-14.16-17.56-13.1-22.17-13.05-22.34c1.07-2.9,4.32-7.17,7.4-10.54c0.13-0.13,0.26-0.27,0.38-0.42
			c1.32-1.41,2.58-2.65,3.6-3.5c0.3-0.25,0.56-0.52,0.8-0.8c2.43-1.85,5.19-3.26,8.05-4.32c0.03,0.18,0.06,0.37,0.09,0.55
			l12.17,62.92c0.05,0.24,0.1,0.48,0.16,0.72C390.98,191.19,384.26,183.69,378.77,176.88z M411.79,197.09
			c-0.13-0.4-0.25-0.8-0.33-1.22l-12.17-62.92c-0.04-0.22-0.07-0.45-0.09-0.67c5.25-0.32,9.7,0.21,11.82,1l13.08,29.25
			L411.79,197.09z M425.6,227.88c-2.53-2.67-5.07-5.33-7.6-7.98l2.39-6.72l38.02-8.49c-6.7,18.46-13.62,37.56-13.75,37.92
			c-0.87,2.44-3.12,4.53-6.25,5.86C436.2,241.74,432.17,234.79,425.6,227.88z M329,516.64l-174.76,1.23l87.61-260.79L329,516.64z"/>
		<path d="M750.58,478c5.82,0,9.81-4.17,9.81-9.69c0-5.79-3.66-8.88-8.37-9.24l-0.21,4.89c2.1,0.3,4.05,1.44,4.05,4.38
			c0,2.79-2.07,4.41-5.28,4.41s-5.28-1.62-5.28-4.41c0-2.94,1.95-4.08,4.05-4.38l-0.18-4.89c-4.71,0.36-8.4,3.45-8.4,9.24
			C740.77,473.83,744.76,478,750.58,478z"/>
		<path d="M760.33,445.84c0-1.38-0.39-2.34-0.87-3.03h-2.58c0.15,0.39,0.21,0.69,0.21,1.08c0,0.51-0.3,0.81-0.99,0.81h-4.56
			c-3.72,0-5.25,2.61-5.25,6.15c0,4.02,2.04,6.21,4.98,6.63l0.3-4.5c-0.99-0.21-1.68-0.75-1.68-1.83c0-1.17,0.66-1.68,1.77-1.68
			h0.21l0.63,3.75c0.51,2.91,1.62,4.77,4.2,4.77c2.28,0,3.63-1.71,3.63-4.32c0-2.13-0.81-3.66-2.37-4.44
			C759.49,448.78,760.33,447.49,760.33,445.84z M756.07,453.31c-0.87,0-1.23-0.69-1.47-1.86l-0.36-1.98h0.21
			c1.74,0,2.76,1.11,2.76,2.49C757.21,452.77,756.76,453.31,756.07,453.31z"/>
		<path d="M764.83,436.54h-7.08c1.56-0.66,2.64-2.16,2.64-4.41c0-3.93-3.09-5.94-7.05-5.94c-3.93,0-7.05,2.01-7.05,5.94
			c0,2.25,1.08,3.75,2.67,4.41h-2.31v4.86h18.18V436.54z M753.43,436.54h-0.18c-1.92,0-3.18-1.05-3.18-2.7
			c0-1.89,1.35-2.76,3.27-2.76c1.95,0,3.3,0.87,3.3,2.76C756.64,435.49,755.38,436.54,753.43,436.54z"/>
		<rect x="746.65" y="419.41" width="13.38" height="4.86"/>
		<rect x="741.13" y="419.38" width="4.26" height="4.92"/>
		<path d="M742.96,414.55l1.74,0.45c1.23,0.33,1.95,0.75,2.16,2.1l0.15,0.99h3v-1.8h6.3c3.15,0,4.08-2.13,4.08-4.38
			c0-1.83-0.45-3-1.2-4.02h-3.15c0.33,0.81,0.45,1.47,0.45,2.07c0,0.99-0.45,1.53-1.59,1.53h-4.89v-3.48h-3.36v3.48h-3.69V414.55z"
			/>
		<path d="M756.1,393.52h-4.56c-3.72,0-5.25,2.61-5.25,6.15c0,4.02,2.04,6.21,4.98,6.63l0.3-4.5c-0.99-0.21-1.68-0.75-1.68-1.83
			c0-1.17,0.66-1.68,1.77-1.68h0.21l0.63,3.75c0.51,2.91,1.62,4.77,4.2,4.77c2.28,0,3.63-1.71,3.63-4.32c0-2.13-0.81-3.66-2.37-4.44
			c1.53-0.45,2.37-1.74,2.37-3.39c0-1.38-0.39-2.34-0.87-3.03h-2.58c0.15,0.39,0.21,0.69,0.21,1.08
			C757.09,393.22,756.79,393.52,756.1,393.52z M757.21,400.78c0,0.81-0.45,1.35-1.14,1.35c-0.87,0-1.23-0.69-1.47-1.86l-0.36-1.98
			h0.21C756.19,398.29,757.21,399.4,757.21,400.78z"/>
		<rect x="741.13" y="385.36" width="18.9" height="4.86"/>
		<rect x="746.65" y="377.86" width="13.38" height="4.86"/>
		<rect x="741.13" y="377.83" width="4.26" height="4.92"/>
		<path d="M750.82,375.91c2.73,0,3.78-1.71,4.29-4.95l0.3-1.98c0.15-0.93,0.51-1.23,1.02-1.23c0.54,0,0.93,0.57,0.93,1.65
			c0,1.47-0.63,2.37-1.74,2.55l0.06,4.23c3.24-0.27,4.71-3.03,4.71-6.72c0-3.81-1.62-6.21-4.44-6.21c-2.61,0-3.96,1.74-4.44,4.74
			l-0.45,2.61c-0.06,0.45-0.3,0.81-0.75,0.81c-0.6,0-0.96-0.54-0.96-1.47c0-1.5,0.6-2.34,1.56-2.52l-0.12-3.99
			c-2.79,0.27-4.5,2.55-4.5,6.42C746.29,373.6,748.18,375.91,750.82,375.91z"/>
		<path d="M746.29,352.36c0,2.01,0.9,3.45,2.37,4.17h-2.01v4.86h13.38v-4.86h-6.57c-2.01,0-3.33-0.57-3.33-2.16
			c0-1.47,0.96-1.83,2.79-1.83h7.11v-4.86h-6.57c-2.01,0-3.33-0.54-3.33-2.16c0-1.47,0.96-1.8,2.79-1.8h7.11v-4.86h-8.4
			c-2.79,0-5.34,1.08-5.34,4.77c0,2.25,1.14,3.84,2.64,4.56C747.37,348.76,746.29,349.99,746.29,352.36z"/>
		<rect x="741.13" y="326.11" width="18.9" height="5.1"/>
		<path d="M755.62,320.08l0.06,4.23c3.24-0.27,4.71-3.03,4.71-6.72c0-3.81-1.62-6.21-4.44-6.21c-2.61,0-3.96,1.74-4.44,4.74
			l-0.45,2.61c-0.06,0.45-0.3,0.81-0.75,0.81c-0.6,0-0.96-0.54-0.96-1.47c0-1.5,0.6-2.34,1.56-2.52l-0.12-3.99
			c-2.79,0.27-4.5,2.55-4.5,6.42c0,3.75,1.89,6.06,4.53,6.06c2.73,0,3.78-1.71,4.29-4.95l0.3-1.98c0.15-0.93,0.51-1.23,1.02-1.23
			c0.54,0,0.93,0.57,0.93,1.65C757.36,319,756.73,319.9,755.62,320.08z"/>
		<path d="M760.03,300.67l-3.66-1.41v-7.38l3.66-1.41v-5.43l-18.9,7.53v5.7l18.9,7.53V300.67z M752.56,297.79l-5.58-2.16v-0.12
			l5.58-2.16V297.79z"/>
		<polygon points="760.03,269.72 741.13,262.46 741.13,267.53 753.7,272.21 753.7,272.33 741.13,277 741.13,282.34 760.03,275.08 		
			"/>
		<rect x="741.13" y="256.25" width="4.26" height="4.92"/>
		<rect x="746.65" y="256.28" width="13.38" height="4.86"/>
		<path d="M749.02,248.78h-2.37v4.86h13.38v-4.86h-6.12c-2.25,0-3.09-1.11-3.09-2.91c0-0.93,0.18-1.65,0.57-2.31l-4.59-0.3
			c-0.27,0.33-0.51,1.05-0.51,1.86C746.29,246.89,747.52,248.3,749.02,248.78z"/>
		<path d="M753.79,237.05h-7.14v4.86h8.43c2.79,0,5.31-1.11,5.31-4.77c0-2.01-0.87-3.48-2.37-4.2h2.01v-4.86h-13.38v4.86h6.57
			c2.04,0,3.36,0.6,3.36,2.13C756.58,236.54,755.59,237.05,753.79,237.05z"/>
		<path d="M750.82,226.13c2.73,0,3.78-1.71,4.29-4.95l0.3-1.98c0.15-0.93,0.51-1.23,1.02-1.23c0.54,0,0.93,0.57,0.93,1.65
			c0,1.47-0.63,2.37-1.74,2.55l0.06,4.23c3.24-0.27,4.71-3.03,4.71-6.72c0-3.81-1.62-6.21-4.44-6.21c-2.61,0-3.96,1.74-4.44,4.74
			l-0.45,2.61c-0.06,0.45-0.3,0.81-0.75,0.81c-0.6,0-0.96-0.54-0.96-1.47c0-1.5,0.6-2.34,1.56-2.52l-0.12-3.99
			c-2.79,0.27-4.5,2.55-4.5,6.42C746.29,223.82,748.18,226.13,750.82,226.13z"/>
		<rect x="754.87" y="204.17" width="5.16" height="5.16"/>
		<path d="M753.34,199.97c4.17,0,7.05-2.94,7.05-7.32c0-4.35-2.88-7.32-7.05-7.32c-4.14,0-7.05,2.97-7.05,7.32
			C746.29,197.03,749.2,199.97,753.34,199.97z M753.34,190.22c2.01,0,3.39,0.75,3.39,2.43c0,1.71-1.38,2.43-3.39,2.43
			c-2.01,0-3.39-0.72-3.39-2.43C749.95,190.97,751.33,190.22,753.34,190.22z"/>
		<path d="M746.8,173.03c-0.27,0.33-0.51,1.05-0.51,1.86c0,1.77,1.23,3.18,2.73,3.66h-2.37v4.86h13.38v-4.86h-6.12
			c-2.25,0-3.09-1.11-3.09-2.91c0-0.93,0.18-1.65,0.57-2.31L746.8,173.03z"/>
		<path d="M747.37,161.27c-0.69,1.14-1.08,2.67-1.08,4.29c0,3.75,1.74,6.45,4.59,6.45c1.47,0,2.61-0.72,3.39-1.92
			c0.54,1.44,1.53,2.28,2.82,2.28c1.14,0,2.22-0.72,2.61-1.92c0.12,1.5,1.05,2.55,2.22,2.55c2.52,0,3.27-3.3,3.27-7.11
			c0-4.35-1.53-8.4-4.86-8.4c-2.25,0-3.84,1.53-3.84,4.56v5.55c0,0.81-0.36,1.14-0.81,1.14c-0.27,0-0.48-0.09-0.63-0.27
			c0.27-0.87,0.39-1.83,0.39-2.91c0-3.78-1.74-6.51-4.56-6.51c-0.63,0-1.2,0.15-1.71,0.42c-0.15-0.66-0.21-1.38-0.21-1.95h-3.66
			C745.3,158.99,746.26,160.46,747.37,161.27z M760.63,163.19c0-0.81,0.21-1.23,0.78-1.23c0.81,0,1.26,1.65,1.26,3.9
			c0,1.8-0.27,3.15-1.23,3.15c-0.51,0-0.81-0.36-0.81-0.9V163.19z M750.88,164.09c1.2,0,1.95,0.6,1.95,1.41
			c0,0.81-0.75,1.41-1.95,1.41c-1.17,0-1.92-0.6-1.92-1.41C748.96,164.69,749.71,164.09,750.88,164.09z"/>
	</g>
</g>
</svg>
