<?xml version="1.0" encoding="utf-8"?>
<!-- Generator: Adobe Illustrator 23.1.1, SVG Export Plug-In . SVG Version: 6.00 Build 0)  -->
<svg version="1.1" xmlns="http://www.w3.org/2000/svg" xmlns:xlink="http://www.w3.org/1999/xlink" x="0px" y="0px"
	 viewBox="0 0 792 612" style="enable-background:new 0 0 792 612;" xml:space="preserve">
<style type="text/css">
	.st0{display:none;}
	.st1{display:inline;}
	.st2{display:inline;fill:#FFD600;}
	.st3{display:inline;fill:#FFFFFF;}
	.st4{fill:#FFFFFF;stroke:#000000;stroke-width:13.497;stroke-linecap:round;stroke-linejoin:round;stroke-miterlimit:10;}
	.st5{fill:#FFFFFF;}
	.st6{stroke:#000000;stroke-width:18.3348;stroke-linecap:round;stroke-miterlimit:10;}
	.st7{fill:none;stroke:#000000;stroke-width:13.497;stroke-linecap:round;stroke-linejoin:round;stroke-miterlimit:10;}
	.st8{stroke:#000000;stroke-width:18.3348;stroke-linecap:round;stroke-linejoin:round;stroke-miterlimit:10;}
	.st9{fill:#FFFFFF;stroke:#000000;stroke-width:13.497;stroke-miterlimit:10;}
	.st10{fill:none;stroke:#000000;stroke-width:13.497;stroke-miterlimit:10;}
	.st11{fill:none;stroke:#000000;stroke-width:30.5612;stroke-linecap:round;stroke-linejoin:round;stroke-miterlimit:10;}
	.st12{fill:#FFFFFF;stroke:#000000;stroke-width:16.2993;stroke-linecap:round;stroke-linejoin:round;stroke-miterlimit:10;}
	.st13{fill:#FFFFFF;stroke:#000000;stroke-width:16;stroke-linecap:round;stroke-linejoin:round;stroke-miterlimit:10;}
	.st14{font-family:'FoundersGrotesk-Bold';}
	.st15{font-size:296.0664px;}
	.st16{letter-spacing:7;}
	.st17{font-size:157.2215px;}
	.st18{font-size:30px;}
	.st19{font-size:28px;}
	.st20{font-size:15px;}
	.st21{fill:#FFFFFF;stroke:#000000;stroke-width:11.7326;stroke-linecap:round;stroke-linejoin:round;stroke-miterlimit:10;}
	.st22{fill:#FFFFFF;stroke:#000000;stroke-width:13.2623;stroke-linecap:round;stroke-linejoin:round;stroke-miterlimit:10;}
	.st23{fill:#FFFFFF;stroke:#000000;stroke-width:13.2623;stroke-linecap:round;stroke-miterlimit:10;}
	.st24{stroke:#000000;stroke-width:4.5213;stroke-miterlimit:10;}
	.st25{fill:#FFFFFF;stroke:#000000;stroke-width:14;stroke-linecap:round;stroke-linejoin:round;stroke-miterlimit:10;}
	.st26{fill:#FFFFFF;stroke:#000000;stroke-width:16.6693;stroke-miterlimit:10;}
	.st27{stroke:#000000;stroke-width:16.6693;stroke-linecap:round;stroke-miterlimit:10;}
	.st28{fill:#FFFFFF;stroke:#000000;stroke-width:13.497;stroke-linecap:round;stroke-miterlimit:10;}
	.st29{fill:none;stroke:#000000;stroke-width:13.497;stroke-linecap:round;stroke-miterlimit:10;}
	.st30{fill:#FFFFFF;stroke:#000000;stroke-width:15.2362;stroke-linecap:round;stroke-linejoin:round;stroke-miterlimit:10;}
	.st31{fill:#FFFFFF;stroke:#000000;stroke-width:14.8467;stroke-linecap:round;stroke-linejoin:round;stroke-miterlimit:10;}
	.st32{stroke:#000000;stroke-width:20.1683;stroke-linecap:round;stroke-miterlimit:10;}
	.st33{fill:none;stroke:#000000;stroke-width:14.8467;stroke-linecap:round;stroke-linejoin:round;stroke-miterlimit:10;}
	.st34{fill:#FFFFFF;stroke:#000000;stroke-width:12.2439;stroke-linecap:round;stroke-linejoin:round;stroke-miterlimit:10;}
	.st35{fill:none;stroke:#000000;stroke-width:11.5;stroke-linecap:round;stroke-linejoin:round;stroke-miterlimit:10;}
	.st36{fill:#FFFFFF;stroke:#000000;stroke-width:11.5;stroke-linecap:round;stroke-linejoin:round;stroke-miterlimit:10;}
	.st37{fill:#FFFFFF;stroke:#000000;stroke-width:15.3;stroke-linecap:round;stroke-linejoin:round;stroke-miterlimit:10;}
	
		.st38{display:inline;fill:#FFFFFF;stroke:#000000;stroke-width:15.3;stroke-linecap:round;stroke-linejoin:round;stroke-miterlimit:10;}
	.st39{fill:#FFFFFF;stroke:#FFFFFF;stroke-width:3;stroke-miterlimit:10;}
	.st40{fill:#FFFFFF;stroke:#000000;stroke-width:13.3058;stroke-linecap:round;stroke-linejoin:round;stroke-miterlimit:10;}
	.st41{fill:#06F6FC;}
	.st42{display:inline;fill:#FF9C1A;}
	.st43{fill:#FFFFFF;stroke:#000000;stroke-width:15.2517;stroke-linecap:round;stroke-linejoin:round;stroke-miterlimit:10;}
	.st44{stroke:#000000;stroke-width:3;stroke-miterlimit:10;}
	.st45{fill:#06DCFF;}
	.st46{fill:#FFD600;}
	.st47{fill:#F9415C;}
	.st48{fill:#7D7DFF;}
	.st49{fill:#A8D600;}
	.st50{fill:#FF9C1A;}
	.st51{fill:#FF00A9;}
	
		.st52{display:inline;fill:#FFFFFF;stroke:#000000;stroke-width:14;stroke-linecap:round;stroke-linejoin:round;stroke-miterlimit:10;}
	.st53{fill:none;stroke:#000000;stroke-width:10;stroke-linecap:round;stroke-linejoin:round;stroke-miterlimit:10;}
	.st54{fill:#FFFFFF;stroke:#000000;stroke-width:12.3365;stroke-linecap:round;stroke-linejoin:round;stroke-miterlimit:10;}
	.st55{fill:none;stroke:#000000;stroke-width:13.3073;stroke-linecap:round;stroke-linejoin:round;stroke-miterlimit:10;}
	.st56{fill:#FFFFFF;stroke:#000000;stroke-width:13.3073;stroke-linecap:round;stroke-linejoin:round;stroke-miterlimit:10;}
	.st57{stroke:#000000;stroke-width:13.3073;stroke-linecap:round;stroke-linejoin:round;stroke-miterlimit:10;}
	.st58{stroke:#FFFFFF;stroke-width:13.3073;stroke-linecap:round;stroke-linejoin:round;stroke-miterlimit:10;}
	.st59{fill:#FFFFFF;stroke:#000000;stroke-width:10;stroke-linecap:round;stroke-linejoin:round;stroke-miterlimit:10;}
	.st60{fill:#FFFFFF;stroke:#000000;stroke-width:15;stroke-linecap:round;stroke-linejoin:round;stroke-miterlimit:10;}
	.st61{fill:none;stroke:#000000;stroke-width:15;stroke-linecap:round;stroke-linejoin:round;stroke-miterlimit:10;}
	.st62{display:inline;fill:none;stroke:#000000;stroke-width:15;stroke-linecap:round;stroke-linejoin:round;stroke-miterlimit:10;}
	
		.st63{display:inline;fill:#FFFFFF;stroke:#000000;stroke-width:15;stroke-linecap:round;stroke-linejoin:round;stroke-miterlimit:10;}
	.st64{stroke:#FFFFFF;stroke-width:15;stroke-linecap:round;stroke-linejoin:round;stroke-miterlimit:10;}
	
		.st65{display:inline;fill:none;stroke:#000000;stroke-width:13.7295;stroke-linecap:round;stroke-linejoin:round;stroke-miterlimit:10;}
	.st66{fill:#FFFFFF;stroke:#000000;stroke-width:12.7279;stroke-linecap:round;stroke-linejoin:round;stroke-miterlimit:10;}
	.st67{fill:#FFFFFF;stroke:#000000;stroke-width:13.7295;stroke-linecap:round;stroke-linejoin:round;stroke-miterlimit:10;}
	.st68{fill:none;stroke:#000000;stroke-width:12.7279;stroke-linecap:round;stroke-linejoin:round;stroke-miterlimit:10;}
	.st69{clip-path:url(#SVGID_4_);}
	.st70{stroke:#FFFFFF;stroke-width:13.7894;stroke-linecap:round;stroke-linejoin:round;stroke-miterlimit:10;}
	.st71{fill:none;}
	.st72{fill:none;stroke:#000000;stroke-width:13.7295;stroke-linecap:round;stroke-linejoin:round;stroke-miterlimit:10;}
	.st73{clip-path:url(#SVGID_6_);}
</style>
<g id="Layer_1" class="st0">
</g>
<g id="Layer_2" class="st0">
	<g class="st1">
		<text transform="matrix(1 0 0 1 107.562 225.6812)"><tspan x="0" y="0" class="st14 st15 st16">END</tspan><tspan x="-88.7" y="147.83" class="st14 st17">Healthcare</tspan><tspan x="43.92" y="295.66" class="st14 st17">GREED</tspan></text>
	</g>
	<g class="st1">
		<text transform="matrix(1 0 0 1 235.3669 575.0923)"><tspan x="0" y="0" class="st14 st18">Capitalism</tspan><tspan x="140.91" y="0" class="st14 st19"> </tspan><tspan x="145.95" y="0" class="st14 st18">Is</tspan><tspan x="167.76" y="0" class="st14 st19"> </tspan><tspan x="172.8" y="0" class="st14 st18">A</tspan><tspan x="193.56" y="0" class="st14 st20"> </tspan><tspan x="196.26" y="0" class="st14 st18">Virus</tspan><tspan x="265.68" y="0" class="st14 st20"> </tspan><tspan x="268.38" y="0" class="st14 st18">.</tspan><tspan x="275.34" y="0" class="st14 st20"> </tspan><tspan x="278.04" y="0" class="st14 st18">org</tspan></text>
	</g>
</g>
<g id="Layer_2_copy">
	<g>
		<path class="st71" d="M623.3,132.12c0-33.75-19.24-53.29-51.81-53.29h-19.84v107.18h19.84
			C604.06,186.01,623.3,166.47,623.3,132.12z"/>
		<path class="st71" d="M579.35,352.76c0,3.62,2.83,5.97,7.08,5.97c7.23,0,13.05-5.35,13.05-14.46v-1.1l-10.38,1.89
			C582.97,346.31,579.35,348.2,579.35,352.76z"/>
		<path class="st71" d="M235.52,352.76c0,3.62,2.83,5.97,7.08,5.97c7.23,0,13.05-5.35,13.05-14.46v-1.1l-10.38,1.89
			C239.13,346.31,235.52,348.2,235.52,352.76z"/>
		<path class="st71" d="M311.91,571.13c0,0.69,0.54,1.14,1.35,1.14c1.38,0,2.49-1.02,2.49-2.76v-0.21l-1.98,0.36
			C312.6,569.9,311.91,570.26,311.91,571.13z"/>
		<path class="st71" d="M331.34,455.93c0-8.02-5.66-12.26-16.98-12.26h-19.02v24.21h19.02
			C325.68,467.88,331.34,465.05,331.34,455.93z"/>
		<polygon class="st71" points="418.41,562.04 416.25,567.62 420.69,567.62 418.53,562.04 		"/>
		<path class="st71" d="M260.73,571.13c0,0.69,0.54,1.14,1.35,1.14c1.38,0,2.49-1.02,2.49-2.76v-0.21l-1.98,0.36
			C261.42,569.9,260.73,570.26,260.73,571.13z"/>
		<path class="st71" d="M280.2,565.13c-1.65,0-2.7,1.26-2.7,3.18v0.18c0,1.95,1.05,3.21,2.7,3.21c1.89,0,2.76-1.35,2.76-3.3
			C282.96,566.48,282.09,565.13,280.2,565.13z"/>
		<path class="st71" d="M521.4,565.01c-1.71,0-2.43,1.38-2.43,3.39c0,2.01,0.72,3.39,2.43,3.39c1.68,0,2.43-1.38,2.43-3.39
			C523.83,566.39,523.08,565.01,521.4,565.01z"/>
		<path class="st71" d="M736.89,319.74c-8.18,0-11.79,5.03-12.74,11.63h24.68C748.52,325.08,744.44,319.74,736.89,319.74z"/>
		<path class="st71" d="M168.54,319.74c-8.18,0-11.79,5.03-12.74,11.63h24.68C180.18,325.08,176.09,319.74,168.54,319.74z"/>
		<path class="st71" d="M548.55,567.89c0.81,0,1.41-0.75,1.41-1.95c0-1.17-0.6-1.92-1.41-1.92c-0.81,0-1.41,0.75-1.41,1.92
			C547.14,567.14,547.74,567.89,548.55,567.89z"/>
		<path class="st71" d="M550.86,575.69h-4.92c-0.54,0-0.9,0.3-0.9,0.81c0,0.96,1.35,1.23,3.15,1.23c2.25,0,3.9-0.45,3.9-1.26
			C552.09,575.9,551.67,575.69,550.86,575.69z"/>
		<path class="st71" d="M586.35,443.35h-10.53v56.92h10.53c17.29,0,27.51-10.38,27.51-28.62
			C613.87,453.73,603.65,443.35,586.35,443.35z"/>
		<polygon points="268.62,184.23 171.22,184.23 171.22,151.96 244.34,151.96 244.34,111.1 171.22,111.1 171.22,80.61 265.96,80.61 
			265.96,39.16 121.77,39.16 121.77,225.68 268.62,225.68 		"/>
		<polygon points="344.71,115.25 425.24,225.68 465.5,225.68 465.5,39.16 419.32,39.16 419.32,142.49 346.48,39.16 298.52,39.16 
			298.52,225.68 344.71,225.68 		"/>
		<path d="M675.12,132.42c0-58.33-38.19-93.26-100.07-93.26h-73.72v186.52h73.72C636.92,225.68,675.12,190.75,675.12,132.42z
			 M551.66,186.01V78.83h19.84c32.57,0,51.81,19.54,51.81,53.29c0,34.34-19.24,53.88-51.81,53.88H551.66z"/>
		<polygon points="93.23,312.66 53.77,312.66 53.77,274.46 27.04,274.46 27.04,373.51 53.77,373.51 53.77,334.36 93.23,334.36 
			93.23,373.51 119.96,373.51 119.96,274.46 93.23,274.46 		"/>
		<path d="M204.23,350.4l-20.44-1.89c-2.36,5.5-6.76,7.86-13.68,7.86c-7.7,0-13.99-4.09-14.62-12.74h49.21v-7.08
			c0-19.02-12.42-35.06-35.85-35.06c-21.85,0-38.21,15.88-38.21,38.05c0,22.33,16.04,35.85,38.52,35.85
			C187.72,375.4,200.62,366.44,204.23,350.4z M168.54,319.74c7.55,0,11.63,5.35,11.95,11.63h-24.68
			C156.75,324.77,160.37,319.74,168.54,319.74z"/>
		<path d="M213.66,327.6l23.58,1.57c1.1-5.19,3.93-8.8,9.59-8.8c6.13,0,8.8,3.46,8.8,9.28v1.1l-19.65,3.3
			c-15.25,2.67-25,8.49-25,22.01c0,11.95,8.96,19.02,22.64,19.02c11.16,0,19.18-4.25,23.27-12.42c2.36,8.02,9.12,12.42,17.77,12.42
			c7.23,0,12.26-2.04,15.88-4.56V357c-2.04,0.79-3.62,1.1-5.66,1.1c-2.67,0-4.25-1.57-4.25-5.19v-23.9
			c0-19.5-13.68-27.51-32.23-27.51C227.34,301.5,215.86,312.19,213.66,327.6z M255.64,344.27c0,9.12-5.82,14.46-13.05,14.46
			c-4.25,0-7.08-2.36-7.08-5.97c0-4.56,3.62-6.45,9.75-7.7l10.38-1.89V344.27z"/>
		<rect x="297.93" y="274.46" width="25.47" height="99.05"/>
		<path d="M362.71,375.4c9.59,0,15.72-2.36,21.07-6.29V352.6c-4.25,1.73-7.7,2.36-10.85,2.36c-5.19,0-8.02-2.36-8.02-8.33V321h18.24
			v-17.61h-18.24v-19.34h-16.04l-2.36,9.12c-1.73,6.45-3.93,10.22-11.01,11.32l-5.19,0.79V321h9.43v33.02
			C339.75,370.52,350.91,375.4,362.71,375.4z"/>
		<path d="M466.94,329.49c0-14.62-6.13-27.99-25.31-27.99c-10.54,0-18.87,4.72-22.64,12.42v-39.46h-25.47v99.05h25.47v-34.43
			c0-10.53,3.46-17.45,12.11-17.45c7.71,0,10.38,5.03,10.38,14.62v37.26h25.47V329.49z"/>
		<path d="M514.58,375.4c21.07,0,32.86-13.52,34.59-30.5l-20.91-1.57c-1.73,8.65-5.97,12.89-13.36,12.89
			c-7.7,0-13.05-5.19-13.05-17.77s5.35-17.77,13.05-17.77c7.39,0,11.63,4.09,13.36,12.74l20.91-1.42
			c-1.73-16.82-13.52-30.5-34.59-30.5c-22.17,0-38.36,14.78-38.36,36.95C476.22,360.77,492.41,375.4,514.58,375.4z"/>
		<path d="M579.83,334.05c-15.25,2.67-25,8.49-25,22.01c0,11.95,8.96,19.02,22.64,19.02c11.16,0,19.18-4.25,23.27-12.42
			c2.36,8.02,9.12,12.42,17.77,12.42c7.23,0,12.26-2.04,15.88-4.56V357c-2.04,0.79-3.62,1.1-5.66,1.1c-2.67,0-4.25-1.57-4.25-5.19
			v-23.9c0-19.5-13.68-27.51-32.23-27.51c-21.07,0-32.55,10.69-34.75,26.1l23.58,1.57c1.1-5.19,3.93-8.8,9.59-8.8
			c6.13,0,8.8,3.46,8.8,9.28v1.1L579.83,334.05z M599.48,344.27c0,9.12-5.82,14.46-13.05,14.46c-4.25,0-7.08-2.36-7.08-5.97
			c0-4.56,3.62-6.45,9.75-7.7l10.38-1.89V344.27z"/>
		<path d="M667.24,315.81v-12.42h-25.47v70.12h25.47v-32.07c0-11.79,5.82-16.19,15.25-16.19c4.87,0,8.65,0.94,12.11,2.99l1.57-24.06
			c-1.73-1.42-5.5-2.67-9.75-2.67C677.14,301.5,669.75,307.95,667.24,315.81z"/>
		<path d="M737.2,301.5c-21.85,0-38.21,15.88-38.21,38.05c0,22.33,16.04,35.85,38.52,35.85c18.55,0,31.45-8.96,35.06-25l-20.44-1.89
			c-2.36,5.5-6.76,7.86-13.68,7.86c-7.7,0-13.99-4.09-14.62-12.74h49.21v-7.08C773.05,317.54,760.63,301.5,737.2,301.5z
			 M724.15,331.37c0.94-6.6,4.56-11.63,12.74-11.63c7.55,0,11.63,5.35,11.95,11.63H724.15z"/>
		<path d="M254.78,521.34v-51.41h-47.17v19.18h21.85c-3.93,7.86-12.42,11.48-21.07,11.48c-17.14,0-26.26-11.48-26.26-28.77
			c0-16.82,8.65-27.67,24.21-27.67c12.74,0,20.28,6.92,21.7,17.77l25.94-0.94c-2.2-24.68-19.18-40.56-48.27-40.56
			c-28.62,0-51.1,20.91-51.1,51.41c0,30.66,20.75,51.41,48.11,51.41c12.74,0,23.27-3.77,28.77-12.89v11.01H254.78z"/>
		<path d="M327.73,502.31c0.79,10.22,2.04,16.35,4.09,19.02h27.04c-3.3-3.62-3.77-8.02-5.19-22.8c-1.1-11.48-7.08-17.29-17.29-19.34
			c12.11-1.57,21.07-11.01,21.07-25.47c0-19.34-12.74-31.45-38.36-31.45h-50v99.05h26.26v-32.86h17.77
			C322.07,488.48,326.94,490.99,327.73,502.31z M295.34,443.67h19.02c11.32,0,16.98,4.25,16.98,12.26c0,9.12-5.66,11.95-16.98,11.95
			h-19.02V443.67z"/>
		<polygon points="447.21,499.33 395.49,499.33 395.49,482.19 434.32,482.19 434.32,460.49 395.49,460.49 395.49,444.3 445.8,444.3 
			445.8,422.29 369.23,422.29 369.23,521.34 447.21,521.34 		"/>
		<polygon points="537.14,499.33 485.42,499.33 485.42,482.19 524.25,482.19 524.25,460.49 485.42,460.49 485.42,444.3 
			535.73,444.3 535.73,422.29 459.16,422.29 459.16,521.34 537.14,521.34 		"/>
		<path d="M588.24,422.29h-39.15v99.05h39.15c32.86,0,53.14-18.55,53.14-49.53S621.1,422.29,588.24,422.29z M586.35,500.27h-10.53
			v-56.92h10.53c17.29,0,27.51,10.38,27.51,28.3C613.87,489.89,603.65,500.27,586.35,500.27z"/>
		<path d="M245.7,560.36c2.94,0,4.08,1.95,4.38,4.05l4.89-0.18c-0.36-4.71-3.45-8.4-9.24-8.4c-5.52,0-9.69,3.99-9.69,9.81
			s4.17,9.81,9.69,9.81c5.79,0,8.88-3.66,9.24-8.37l-4.89-0.21c-0.3,2.1-1.44,4.05-4.38,4.05c-2.79,0-4.41-2.07-4.41-5.28
			S242.91,560.36,245.7,560.36z"/>
		<path d="M269.34,571.16v-4.56c0-3.72-2.61-5.25-6.15-5.25c-4.02,0-6.21,2.04-6.63,4.98l4.5,0.3c0.21-0.99,0.75-1.68,1.83-1.68
			c1.17,0,1.68,0.66,1.68,1.77v0.21l-3.75,0.63c-2.91,0.51-4.77,1.62-4.77,4.2c0,2.28,1.71,3.63,4.32,3.63
			c2.13,0,3.66-0.81,4.44-2.37c0.45,1.53,1.74,2.37,3.39,2.37c1.38,0,2.34-0.39,3.03-0.87v-2.58c-0.39,0.15-0.69,0.21-1.08,0.21
			C269.64,572.15,269.34,571.85,269.34,571.16z M264.57,569.51c0,1.74-1.11,2.76-2.49,2.76c-0.81,0-1.35-0.45-1.35-1.14
			c0-0.87,0.69-1.23,1.86-1.47l1.98-0.36V569.51z"/>
		<path d="M281.91,561.35c-2.25,0-3.75,1.08-4.41,2.67v-2.31h-4.86v18.18h4.86v-7.08c0.66,1.56,2.16,2.64,4.41,2.64
			c3.93,0,5.94-3.09,5.94-7.05C287.85,564.47,285.84,561.35,281.91,561.35z M280.2,571.7c-1.65,0-2.7-1.26-2.7-3.21v-0.18
			c0-1.92,1.05-3.18,2.7-3.18c1.89,0,2.76,1.35,2.76,3.27C282.96,570.35,282.09,571.7,280.2,571.7z"/>
		<rect x="289.77" y="561.71" width="4.86" height="13.38"/>
		<rect x="289.74" y="556.19" width="4.92" height="4.26"/>
		<path d="M302.55,569.96v-4.89h3.48v-3.36h-3.48v-3.69h-3.06l-0.45,1.74c-0.33,1.23-0.75,1.95-2.1,2.16l-0.99,0.15v3h1.8v6.3
			c0,3.15,2.13,4.08,4.38,4.08c1.83,0,3-0.45,4.02-1.2v-3.15c-0.81,0.33-1.47,0.45-2.07,0.45
			C303.09,571.55,302.55,571.1,302.55,569.96z"/>
		<path d="M320.52,571.16v-4.56c0-3.72-2.61-5.25-6.15-5.25c-4.02,0-6.21,2.04-6.63,4.98l4.5,0.3c0.21-0.99,0.75-1.68,1.83-1.68
			c1.17,0,1.68,0.66,1.68,1.77v0.21l-3.75,0.63c-2.91,0.51-4.77,1.62-4.77,4.2c0,2.28,1.71,3.63,4.32,3.63
			c2.13,0,3.66-0.81,4.44-2.37c0.45,1.53,1.74,2.37,3.39,2.37c1.38,0,2.34-0.39,3.03-0.87v-2.58c-0.39,0.15-0.69,0.21-1.08,0.21
			C320.82,572.15,320.52,571.85,320.52,571.16z M315.75,569.51c0,1.74-1.11,2.76-2.49,2.76c-0.81,0-1.35-0.45-1.35-1.14
			c0-0.87,0.69-1.23,1.86-1.47l1.98-0.36V569.51z"/>
		<rect x="323.82" y="556.19" width="4.86" height="18.9"/>
		<rect x="331.29" y="556.19" width="4.92" height="4.26"/>
		<rect x="331.32" y="561.71" width="4.86" height="13.38"/>
		<path d="M346.05,566.57l-2.61-0.45c-0.45-0.06-0.81-0.3-0.81-0.75c0-0.6,0.54-0.96,1.47-0.96c1.5,0,2.34,0.6,2.52,1.56l3.99-0.12
			c-0.27-2.79-2.55-4.5-6.42-4.5c-3.75,0-6.06,1.89-6.06,4.53c0,2.73,1.71,3.78,4.95,4.29l1.98,0.3c0.93,0.15,1.23,0.51,1.23,1.02
			c0,0.54-0.57,0.93-1.65,0.93c-1.47,0-2.37-0.63-2.55-1.74l-4.23,0.06c0.27,3.24,3.03,4.71,6.72,4.71c3.81,0,6.21-1.62,6.21-4.44
			C350.79,568.4,349.05,567.05,346.05,566.57z"/>
		<path d="M370.41,561.35c-2.25,0-3.84,1.14-4.56,2.64c-0.57-1.56-1.8-2.64-4.17-2.64c-2.01,0-3.45,0.9-4.17,2.37v-2.01h-4.86v13.38
			h4.86v-6.57c0-2.01,0.57-3.33,2.16-3.33c1.47,0,1.83,0.96,1.83,2.79v7.11h4.86v-6.57c0-2.01,0.54-3.33,2.16-3.33
			c1.47,0,1.8,0.96,1.8,2.79v7.11h4.86v-8.4C375.18,563.9,374.1,561.35,370.41,561.35z"/>
		<rect x="382.83" y="556.19" width="5.1" height="18.9"/>
		<path d="M397.92,566.57l-2.61-0.45c-0.45-0.06-0.81-0.3-0.81-0.75c0-0.6,0.54-0.96,1.47-0.96c1.5,0,2.34,0.6,2.52,1.56l3.99-0.12
			c-0.27-2.79-2.55-4.5-6.42-4.5c-3.75,0-6.06,1.89-6.06,4.53c0,2.73,1.71,3.78,4.95,4.29l1.98,0.3c0.93,0.15,1.23,0.51,1.23,1.02
			c0,0.54-0.57,0.93-1.65,0.93c-1.47,0-2.37-0.63-2.55-1.74l-4.23,0.06c0.27,3.24,3.03,4.71,6.72,4.71c3.81,0,6.21-1.62,6.21-4.44
			C402.66,568.4,400.92,567.05,397.92,566.57z"/>
		<path d="M415.77,556.19l-7.53,18.9h5.13l1.41-3.66h7.38l1.41,3.66H429l-7.53-18.9H415.77z M416.25,567.62l2.16-5.58h0.12
			l2.16,5.58H416.25z"/>
		<polygon points="441.84,568.76 441.72,568.76 437.04,556.19 431.7,556.19 438.96,575.09 444.33,575.09 451.59,556.19 
			446.52,556.19 		"/>
		<rect x="452.91" y="561.71" width="4.86" height="13.38"/>
		<rect x="452.88" y="556.19" width="4.92" height="4.26"/>
		<path d="M465.27,564.08v-2.37h-4.86v13.38h4.86v-6.12c0-2.25,1.11-3.09,2.91-3.09c0.93,0,1.65,0.18,2.31,0.57l0.3-4.59
			c-0.33-0.27-1.05-0.51-1.86-0.51C467.16,561.35,465.75,562.58,465.27,564.08z"/>
		<path d="M481.11,568.28c0,2.04-0.6,3.36-2.13,3.36c-1.47,0-1.98-0.99-1.98-2.79v-7.14h-4.86v8.43c0,2.79,1.11,5.31,4.77,5.31
			c2.01,0,3.48-0.87,4.2-2.37v2.01h4.86v-13.38h-4.86V568.28z"/>
		<path d="M495.84,566.57l-2.61-0.45c-0.45-0.06-0.81-0.3-0.81-0.75c0-0.6,0.54-0.96,1.47-0.96c1.5,0,2.34,0.6,2.52,1.56l3.99-0.12
			c-0.27-2.79-2.55-4.5-6.42-4.5c-3.75,0-6.06,1.89-6.06,4.53c0,2.73,1.71,3.78,4.95,4.29l1.98,0.3c0.93,0.15,1.23,0.51,1.23,1.02
			c0,0.54-0.57,0.93-1.65,0.93c-1.47,0-2.37-0.63-2.55-1.74l-4.23,0.06c0.27,3.24,3.03,4.71,6.72,4.71c3.81,0,6.21-1.62,6.21-4.44
			C500.58,568.4,498.84,567.05,495.84,566.57z"/>
		<rect x="504.72" y="569.93" width="5.16" height="5.16"/>
		<path d="M521.4,561.35c-4.38,0-7.32,2.91-7.32,7.05c0,4.17,2.94,7.05,7.32,7.05c4.35,0,7.32-2.88,7.32-7.05
			C528.72,564.26,525.75,561.35,521.4,561.35z M521.4,571.79c-1.71,0-2.43-1.38-2.43-3.39c0-2.01,0.72-3.39,2.43-3.39
			c1.68,0,2.43,1.38,2.43,3.39C523.83,570.41,523.08,571.79,521.4,571.79z"/>
		<path d="M535.5,564.08v-2.37h-4.86v13.38h4.86v-6.12c0-2.25,1.11-3.09,2.91-3.09c0.93,0,1.65,0.18,2.31,0.57l0.3-4.59
			c-0.33-0.27-1.05-0.51-1.86-0.51C537.39,561.35,535.98,562.58,535.5,564.08z"/>
		<path d="M552,571.55h-5.55c-0.81,0-1.14-0.36-1.14-0.81c0-0.27,0.09-0.48,0.27-0.63c0.87,0.27,1.83,0.39,2.91,0.39
			c3.78,0,6.51-1.74,6.51-4.56c0-0.63-0.15-1.2-0.42-1.71c0.66-0.15,1.38-0.21,1.95-0.21v-3.66c-1.47,0-2.94,0.96-3.75,2.07
			c-1.14-0.69-2.67-1.08-4.29-1.08c-3.75,0-6.45,1.74-6.45,4.59c0,1.47,0.72,2.61,1.92,3.39c-1.44,0.54-2.28,1.53-2.28,2.82
			c0,1.14,0.72,2.22,1.92,2.61c-1.5,0.12-2.55,1.05-2.55,2.22c0,2.52,3.3,3.27,7.11,3.27c4.35,0,8.4-1.53,8.4-4.86
			C556.56,573.14,555.03,571.55,552,571.55z M548.55,564.02c0.81,0,1.41,0.75,1.41,1.92c0,1.2-0.6,1.95-1.41,1.95
			c-0.81,0-1.41-0.75-1.41-1.95C547.14,564.77,547.74,564.02,548.55,564.02z M548.19,577.73c-1.8,0-3.15-0.27-3.15-1.23
			c0-0.51,0.36-0.81,0.9-0.81h4.92c0.81,0,1.23,0.21,1.23,0.78C552.09,577.28,550.44,577.73,548.19,577.73z"/>
	</g>
</g>
</svg>
