<?xml version="1.0" encoding="utf-8"?>
<!-- Generator: Adobe Illustrator 23.1.1, SVG Export Plug-In . SVG Version: 6.00 Build 0)  -->
<svg version="1.1" xmlns="http://www.w3.org/2000/svg" xmlns:xlink="http://www.w3.org/1999/xlink" x="0px" y="0px"
	 viewBox="0 0 792 612" style="enable-background:new 0 0 792 612;" xml:space="preserve">
<style type="text/css">
	.st0{display:none;}
	.st1{display:inline;}
	.st2{display:inline;fill:#FFD600;}
	.st3{display:inline;fill:#FFFFFF;}
	.st4{fill:#FFFFFF;stroke:#000000;stroke-width:13.497;stroke-linecap:round;stroke-linejoin:round;stroke-miterlimit:10;}
	.st5{fill:#FFFFFF;}
	.st6{stroke:#000000;stroke-width:18.3348;stroke-linecap:round;stroke-miterlimit:10;}
	.st7{fill:none;stroke:#000000;stroke-width:13.497;stroke-linecap:round;stroke-linejoin:round;stroke-miterlimit:10;}
	.st8{stroke:#000000;stroke-width:18.3348;stroke-linecap:round;stroke-linejoin:round;stroke-miterlimit:10;}
	.st9{fill:#FFFFFF;stroke:#000000;stroke-width:13.497;stroke-miterlimit:10;}
	.st10{fill:none;stroke:#000000;stroke-width:13.497;stroke-miterlimit:10;}
	.st11{fill:none;stroke:#000000;stroke-width:30.5612;stroke-linecap:round;stroke-linejoin:round;stroke-miterlimit:10;}
	.st12{fill:#FFFFFF;stroke:#000000;stroke-width:16.2993;stroke-linecap:round;stroke-linejoin:round;stroke-miterlimit:10;}
	.st13{fill:#FFFFFF;stroke:#000000;stroke-width:16;stroke-linecap:round;stroke-linejoin:round;stroke-miterlimit:10;}
	.st14{font-family:'FoundersGrotesk-Semibold';}
	.st15{font-size:124.9913px;}
	.st16{fill:#FFFFFF;stroke:#000000;stroke-width:11.7326;stroke-linecap:round;stroke-linejoin:round;stroke-miterlimit:10;}
	.st17{fill:#FFFFFF;stroke:#000000;stroke-width:13.2623;stroke-linecap:round;stroke-linejoin:round;stroke-miterlimit:10;}
	.st18{fill:#FFFFFF;stroke:#000000;stroke-width:13.2623;stroke-linecap:round;stroke-miterlimit:10;}
	.st19{stroke:#000000;stroke-width:4.5213;stroke-miterlimit:10;}
	.st20{fill:#FFFFFF;stroke:#000000;stroke-width:14;stroke-linecap:round;stroke-linejoin:round;stroke-miterlimit:10;}
	.st21{fill:#FFFFFF;stroke:#000000;stroke-width:16.6693;stroke-miterlimit:10;}
	.st22{stroke:#000000;stroke-width:16.6693;stroke-linecap:round;stroke-miterlimit:10;}
	.st23{fill:#FFFFFF;stroke:#000000;stroke-width:13.497;stroke-linecap:round;stroke-miterlimit:10;}
	.st24{fill:none;stroke:#000000;stroke-width:13.497;stroke-linecap:round;stroke-miterlimit:10;}
	.st25{fill:#FFFFFF;stroke:#000000;stroke-width:15.2362;stroke-linecap:round;stroke-linejoin:round;stroke-miterlimit:10;}
	.st26{fill:#FFFFFF;stroke:#000000;stroke-width:14.8467;stroke-linecap:round;stroke-linejoin:round;stroke-miterlimit:10;}
	.st27{stroke:#000000;stroke-width:20.1683;stroke-linecap:round;stroke-miterlimit:10;}
	.st28{fill:none;stroke:#000000;stroke-width:14.8467;stroke-linecap:round;stroke-linejoin:round;stroke-miterlimit:10;}
	.st29{fill:#FFFFFF;stroke:#000000;stroke-width:12.2439;stroke-linecap:round;stroke-linejoin:round;stroke-miterlimit:10;}
	.st30{fill:none;stroke:#000000;stroke-width:11.5;stroke-linecap:round;stroke-linejoin:round;stroke-miterlimit:10;}
	.st31{fill:#FFFFFF;stroke:#000000;stroke-width:11.5;stroke-linecap:round;stroke-linejoin:round;stroke-miterlimit:10;}
	.st32{font-family:'FoundersGrotesk-Bold';}
	.st33{font-size:30px;}
	.st34{font-size:28px;}
	.st35{font-size:15px;}
	.st36{fill:#FFFFFF;stroke:#000000;stroke-width:15.3;stroke-linecap:round;stroke-linejoin:round;stroke-miterlimit:10;}
	
		.st37{display:inline;fill:#FFFFFF;stroke:#000000;stroke-width:15.3;stroke-linecap:round;stroke-linejoin:round;stroke-miterlimit:10;}
	.st38{fill:#FFFFFF;stroke:#FFFFFF;stroke-width:3;stroke-miterlimit:10;}
	.st39{fill:#FFFFFF;stroke:#000000;stroke-width:13.3058;stroke-linecap:round;stroke-linejoin:round;stroke-miterlimit:10;}
	.st40{fill:#06F6FC;}
	.st41{display:inline;fill:#FF9C1A;}
	.st42{fill:#FFFFFF;stroke:#000000;stroke-width:15.2517;stroke-linecap:round;stroke-linejoin:round;stroke-miterlimit:10;}
	.st43{stroke:#000000;stroke-width:3;stroke-miterlimit:10;}
	.st44{fill:#06DCFF;}
	.st45{fill:#FFD600;}
	.st46{fill:#F9415C;}
	.st47{fill:#7D7DFF;}
	.st48{fill:#A8D600;}
	.st49{fill:#FF9C1A;}
	.st50{fill:#FF00A9;}
	
		.st51{display:inline;fill:#FFFFFF;stroke:#000000;stroke-width:14;stroke-linecap:round;stroke-linejoin:round;stroke-miterlimit:10;}
	.st52{fill:none;stroke:#000000;stroke-width:10;stroke-linecap:round;stroke-linejoin:round;stroke-miterlimit:10;}
	.st53{fill:#FFFFFF;stroke:#000000;stroke-width:12.3365;stroke-linecap:round;stroke-linejoin:round;stroke-miterlimit:10;}
	.st54{fill:none;stroke:#000000;stroke-width:13.3073;stroke-linecap:round;stroke-linejoin:round;stroke-miterlimit:10;}
	.st55{fill:#FFFFFF;stroke:#000000;stroke-width:13.3073;stroke-linecap:round;stroke-linejoin:round;stroke-miterlimit:10;}
	.st56{stroke:#000000;stroke-width:13.3073;stroke-linecap:round;stroke-linejoin:round;stroke-miterlimit:10;}
	.st57{stroke:#FFFFFF;stroke-width:13.3073;stroke-linecap:round;stroke-linejoin:round;stroke-miterlimit:10;}
	.st58{fill:#FFFFFF;stroke:#000000;stroke-width:10;stroke-linecap:round;stroke-linejoin:round;stroke-miterlimit:10;}
	.st59{fill:#FFFFFF;stroke:#000000;stroke-width:15;stroke-linecap:round;stroke-linejoin:round;stroke-miterlimit:10;}
	.st60{fill:none;stroke:#000000;stroke-width:15;stroke-linecap:round;stroke-linejoin:round;stroke-miterlimit:10;}
	.st61{display:inline;fill:none;stroke:#000000;stroke-width:15;stroke-linecap:round;stroke-linejoin:round;stroke-miterlimit:10;}
	
		.st62{display:inline;fill:#FFFFFF;stroke:#000000;stroke-width:15;stroke-linecap:round;stroke-linejoin:round;stroke-miterlimit:10;}
	.st63{stroke:#FFFFFF;stroke-width:15;stroke-linecap:round;stroke-linejoin:round;stroke-miterlimit:10;}
	
		.st64{display:inline;fill:none;stroke:#000000;stroke-width:13.7295;stroke-linecap:round;stroke-linejoin:round;stroke-miterlimit:10;}
	.st65{fill:#FFFFFF;stroke:#000000;stroke-width:12.7279;stroke-linecap:round;stroke-linejoin:round;stroke-miterlimit:10;}
	.st66{fill:#FFFFFF;stroke:#000000;stroke-width:13.7295;stroke-linecap:round;stroke-linejoin:round;stroke-miterlimit:10;}
	.st67{fill:none;stroke:#000000;stroke-width:12.7279;stroke-linecap:round;stroke-linejoin:round;stroke-miterlimit:10;}
	.st68{clip-path:url(#SVGID_4_);}
	.st69{stroke:#FFFFFF;stroke-width:13.7894;stroke-linecap:round;stroke-linejoin:round;stroke-miterlimit:10;}
	.st70{fill:none;}
	.st71{fill:none;stroke:#000000;stroke-width:13.7295;stroke-linecap:round;stroke-linejoin:round;stroke-miterlimit:10;}
	.st72{clip-path:url(#SVGID_6_);}
</style>
<g id="Layer_1" class="st0">
</g>
<g id="Layer_2" class="st0">
	<g class="st1">
		<path class="st4" d="M758.29,175.73c0,0-83.86,30.45-113.54,39.56c-20.1,40.6-79.58,65.3-79.58,65.3l-98.4-32.69l5.23-78.1
			l137.37-61.8L763.3,22.74"/>
		<g>
			<g>
				<polygon class="st8" points="626.2,335.47 314.39,191.33 324.56,168.32 645.39,290.77 				"/>
				<path class="st9" d="M370.49,60.65c-51.5,14.74-69.84,33.85-88.15,76.51c-8.59,20.02-17.96,41.84-18,41.93
					c0,0,12.95,9.19,6.37,24.53s-17.88,25.88-17.88,25.88l48.67,20.89c0,0-6.25-14.45,1.46-32.42
					c7.71-17.97,27.91-10.33,27.91-10.33l18-41.93C348.86,165.71,325.82,127.62,370.49,60.65z"/>
				
					<rect x="237.86" y="225.76" transform="matrix(0.9189 0.3945 -0.3945 0.9189 117.5708 -89.7665)" class="st9" width="78.51" height="30.6"/>
			</g>
		</g>
		<path class="st4" d="M443.22,262.81c-4.09,9.2-15.3,13.15-25.03,8.82c-9.73-4.33-14.3-15.3-10.2-24.5l27.14-61
			c4.09-9.2,15.3-13.15,25.03-8.82c9.73,4.33,14.3,15.3,10.2,24.5L443.22,262.81z"/>
		<path class="st4" d="M549.23,309.06c-4.09,9.19-15.27,13.13-24.99,8.81c-9.71-4.32-14.27-15.27-10.19-24.46l23.77-54.05
			c4.09-9.19,15.27-13.13,24.99-8.81s14.27,15.27,10.19,24.46L549.23,309.06z"/>
		<path class="st4" d="M511.36,298.42c-4.09,9.2-15.3,13.15-25.03,8.82c-9.73-4.33-14.3-15.3-10.2-24.5l27.14-61
			c4.09-9.2,15.3-13.15,25.03-8.82c9.73,4.33,14.3,15.3,10.2,24.5L511.36,298.42z"/>
		<path class="st4" d="M473.4,287.51c-4.09,9.2-15.3,13.15-25.03,8.82c-9.73-4.33-14.3-15.3-10.2-24.5l27.14-61
			c4.09-9.2,15.3-13.15,25.03-8.82c9.73,4.33,14.3,15.3,10.2,24.5L473.4,287.51z"/>
		<path class="st4" d="M763.3,22.74c0,0-95.46,46.88-153.94,85.27c-11.73,6.56-54.78-1.63-82.58,5.52
			c-27.8,7.15-44.67,15.06-72.97,35.41S409,181.9,399.73,188.21c-9.27,6.31-9.59,11.71-9.37,21.42c0.16,6.94-2.04,33.24-3.31,47.64
			c-0.45,5.13,4.06,9.36,9.14,8.47c11.86-2.08,30.01-9.82,36.26-27.05c4.81-13.27,5.9-18.36,5.9-18.36l52.12-22.3
			c0,0,34.84,28.81,112.18,3.6"/>
		<g>
			<g>
				<path class="st10" d="M565.84,409.36c25.3-35.22,99.12-6.54,71.23,21.35c-27.89,27.89-46.53-50.63-14.15-57.72
					c35.7-7.82,41.37,17.81,41.37,17.81"/>
			</g>
		</g>
		<path class="st4" d="M577.98,589.26c19.08-20.71,30.15-46.17,30.15-75.36c0-79.64-46.25-147.07-183.81-147.22
			c-52.87-0.06-98.71,20.18-123.43,40.91l-51.94-38.23l-6.19,68.11c-42.94,15.12-51.73,47.2-51.73,47.2l-38.33,0.26
			c0,0,0,12.29,0,34.01c0,21.72,17.41,27.35,40.74,28.96c9.44,15.74,22.98,29.18,39.79,41.35"/>
		<g>
			<text transform="matrix(1 0 0 1 370.6909 537.0729)" class="st14 st15">$</text>
		</g>
	</g>
	<g class="st1">
		<text transform="matrix(0 1 -1 0 32.0327 154.4106)"><tspan x="0" y="0" class="st32 st33">Capitalism</tspan><tspan x="140.91" y="0" class="st32 st34"> </tspan><tspan x="145.95" y="0" class="st32 st33">Is</tspan><tspan x="167.76" y="0" class="st32 st34"> </tspan><tspan x="172.8" y="0" class="st32 st33">A</tspan><tspan x="193.56" y="0" class="st32 st35"> </tspan><tspan x="196.26" y="0" class="st32 st33">Virus</tspan><tspan x="265.68" y="0" class="st32 st35"> </tspan><tspan x="268.38" y="0" class="st32 st33">.</tspan><tspan x="275.34" y="0" class="st32 st35"> </tspan><tspan x="278.04" y="0" class="st32 st33">org</tspan></text>
	</g>
</g>
<g id="Layer_2_copy">
	<g>
		<polygon class="st70" points="45.08,337.45 39.5,335.29 39.5,339.73 45.08,337.57 		"/>
		<path class="st70" d="M30.62,464.08c-0.96,0-1.23,1.35-1.23,3.15c0,2.25,0.45,3.9,1.26,3.9c0.57,0,0.78-0.42,0.78-1.23v-4.92
			C31.43,464.44,31.13,464.08,30.62,464.08z"/>
		<path class="st70" d="M41.18,466.18c-1.2,0-1.95,0.6-1.95,1.41c0,0.81,0.75,1.41,1.95,1.41c1.17,0,1.92-0.6,1.92-1.41
			C43.1,466.78,42.35,466.18,41.18,466.18z"/>
		<path class="st70" d="M38.72,202c1.92,0,3.27-0.87,3.27-2.76c0-1.65-1.26-2.7-3.18-2.7h-0.18c-1.95,0-3.21,1.05-3.21,2.7
			C35.42,201.13,36.77,202,38.72,202z"/>
		<path class="st70" d="M37.61,183.62h0.21l-0.36-1.98c-0.24-1.17-0.6-1.86-1.47-1.86c-0.69,0-1.14,0.54-1.14,1.35
			C34.85,182.5,35.87,183.62,37.61,183.62z"/>
		<path class="st70" d="M38.72,438.01c-2.01,0-3.39,0.72-3.39,2.43c0,1.68,1.38,2.43,3.39,2.43s3.39-0.75,3.39-2.43
			C42.11,438.73,40.73,438.01,38.72,438.01z"/>
		<path class="st70" d="M37.61,234.79h0.21l-0.36-1.98c-0.24-1.17-0.6-1.86-1.47-1.86c-0.69,0-1.14,0.54-1.14,1.35
			C34.85,233.68,35.87,234.79,37.61,234.79z"/>
		<path class="st70" d="M623.29,429.44c0.92,0.45,3.71,1.8,9.01-3.5c5.43-5.43,4.24-9.06,3.85-10.26
			c-2.07-6.34-11.77-12.32-23.58-14.75C612.33,414.06,617.76,426.76,623.29,429.44z"/>
		<path d="M770.02,22.18c-0.01-0.11-0.02-0.21-0.03-0.32c-0.01-0.11-0.03-0.22-0.05-0.33c-0.02-0.11-0.04-0.22-0.07-0.33
			c-0.02-0.11-0.05-0.21-0.08-0.32c-0.03-0.11-0.07-0.22-0.1-0.33c-0.04-0.1-0.07-0.2-0.11-0.31c-0.04-0.11-0.09-0.22-0.14-0.33
			c-0.02-0.05-0.04-0.11-0.07-0.16c-0.02-0.05-0.06-0.1-0.08-0.15c-0.03-0.05-0.05-0.1-0.07-0.15c-0.03-0.05-0.06-0.1-0.09-0.15
			c-0.06-0.1-0.12-0.21-0.19-0.3c-0.06-0.09-0.12-0.18-0.18-0.27c-0.07-0.1-0.14-0.19-0.22-0.28c-0.07-0.08-0.14-0.16-0.21-0.24
			c-0.08-0.09-0.16-0.17-0.24-0.25c-0.08-0.08-0.16-0.15-0.23-0.22c-0.08-0.07-0.17-0.15-0.25-0.22c-0.08-0.07-0.17-0.14-0.26-0.2
			c-0.09-0.06-0.18-0.13-0.27-0.19c-0.09-0.06-0.18-0.12-0.28-0.18c-0.09-0.06-0.19-0.11-0.28-0.16c-0.09-0.05-0.19-0.1-0.29-0.15
			c-0.1-0.05-0.2-0.09-0.3-0.14c-0.1-0.04-0.19-0.08-0.29-0.11c-0.11-0.04-0.21-0.08-0.32-0.11c-0.1-0.03-0.19-0.06-0.29-0.08
			c-0.11-0.03-0.23-0.06-0.34-0.08c-0.1-0.02-0.19-0.04-0.29-0.05c-0.12-0.02-0.23-0.03-0.35-0.05c-0.1-0.01-0.2-0.02-0.29-0.03
			c-0.12-0.01-0.24-0.01-0.35-0.01c-0.1,0-0.2,0-0.3,0c-0.12,0-0.23,0.01-0.35,0.02c-0.1,0.01-0.21,0.02-0.31,0.03
			c-0.11,0.01-0.22,0.03-0.34,0.05c-0.11,0.02-0.22,0.04-0.32,0.07c-0.11,0.02-0.21,0.05-0.32,0.08c-0.11,0.03-0.22,0.07-0.33,0.1
			c-0.1,0.04-0.21,0.07-0.31,0.11c-0.11,0.04-0.21,0.09-0.32,0.14c-0.05,0.02-0.11,0.04-0.16,0.07
			c-0.96,0.47-96.02,47.26-154.22,85.39l-1.2,0.54c-5.13,1.74-17.84,1.46-29.17,1.22c-16.59-0.36-35.4-0.76-50.64,3.15
			c-29.25,7.52-46.83,16.04-75.23,36.47c-13.73,9.88-24.64,17.89-33.4,24.34c-9.21,6.77-15.86,11.66-20.54,14.84
			c-1.01,0.69-1.93,1.37-2.78,2.05l-38.74-14.79l0.65-1.52l1.4-3.14l-1.79-2.97c-0.05-0.09-5.06-8.9-5-25.12
			c0.06-15.2,4.69-40.16,26.43-72.77l10.2-15.29l-17.67,5.06c-50.68,14.5-72.29,33.27-92.5,80.34l-2.57,6
			c-7.79,18.15-15.4,35.87-15.43,35.95l-2.19,4.96l4.43,3.15c1.41,1.05,8.26,6.78,4.13,16.41c-1.35,3.15-2.93,6.08-4.57,8.75
			l-16.39-7.04l-17.43,40.51l84.54,36.29l17.43-40.51l-21.66-9.3c0.5-2.81,1.35-5.85,2.72-9.02c2.12-4.94,5.52-7.42,10.69-7.81
			c4.55-0.34,8.63,1.12,8.63,1.12l6.04,2.28l1.97-4.59l45.82,21.18c-0.52,6.78-1.18,14.79-1.98,23.86c-0.4,4.58,1.31,8.99,4.7,12.1
			c2.72,2.5,6.19,3.84,9.79,3.84c0.84,0,1.69-0.07,2.54-0.22c2.68-0.47,5.46-1.15,8.26-2.05c2.61,3.17,5.95,5.73,9.83,7.46
			c3.56,1.58,7.27,2.33,10.9,2.33c1.2,0,2.4-0.08,3.57-0.25c0.12,2.91,0.76,5.82,1.93,8.63c2.59,6.23,7.48,11.19,13.77,13.99
			c3.56,1.58,7.27,2.33,10.9,2.33c5,0,9.85-1.43,13.94-4.05c2.71,5.58,7.31,10.03,13.12,12.62c3.56,1.58,7.27,2.33,10.9,2.33
			c5.03,0,9.9-1.44,14-4.09c2.72,5.47,7.27,9.83,13,12.38c3.5,1.56,7.22,2.34,10.92,2.34c2.93,0,5.86-0.49,8.67-1.48
			c6.18-2.18,11.06-6.52,13.88-12.25l67.38,31.15c1.22,0.56,2.53,0.85,3.85,0.85c1.11,0,2.22-0.2,3.28-0.61
			c2.31-0.89,4.17-2.67,5.14-4.94l19.19-44.7c0.99-2.29,0.99-4.89,0.02-7.19c-0.97-2.3-2.84-4.1-5.17-4.99l-42.99-16.41
			c20.53-13.99,35.23-29.07,43.78-44.89c31.46-9.9,107.82-37.62,111.15-38.83c3.5-1.27,5.31-5.14,4.04-8.65
			c-0.97-2.67-3.45-4.35-6.12-4.44c-0.84-0.03-1.69,0.1-2.52,0.4c-0.84,0.3-84.04,30.5-113.22,39.45c-1.77,0.54-3.25,1.79-4.07,3.46
			c-10.08,20.37-31.22,36.73-48.68,47.53l-10.16-3.88c4.28-12.17-1.84-26.01-14.32-31.57c-6.28-2.79-13.24-3.1-19.59-0.86
			c-0.05,0.02-0.1,0.05-0.16,0.06c-0.27-0.96-0.6-1.91-0.99-2.84c-0.29-0.68-0.61-1.35-0.95-2c16.52-0.03,36.74-2.83,60.87-10.7
			c3.54-1.16,5.48-4.96,4.32-8.51c-1.16-3.54-4.96-5.48-8.51-4.32c-20.92,6.82-51.88,13.69-80.53,7.7
			c-16.96-3.55-25.21-10.05-25.26-10.08c-1.95-1.61-4.63-2-6.95-1l-52.12,22.3c-2,0.86-3.47,2.65-3.94,4.77
			c-0.01,0.05-1.14,5.05-5.65,17.49c-4.93,13.6-19.83,20.73-31.08,22.7c-0.32,0.06-0.62-0.03-0.87-0.26
			c-0.2-0.18-0.42-0.49-0.38-0.97c1.61-18.29,3.49-41.52,3.34-48.39c-0.2-8.83,0.01-11.32,6.42-15.68
			c4.88-3.32,11.62-8.27,20.94-15.13c8.74-6.42,19.61-14.42,33.28-24.25c27.14-19.53,43-27.23,70.7-34.35
			c13.45-3.46,31.27-3.07,46.99-2.73c16.72,0.36,29.93,0.65,37.21-3.43c0.14-0.08,0.28-0.16,0.41-0.25
			c43.57-28.6,108.61-62.34,137.92-77.19l-1.46,1.63l13.53-7.49l3.53-1.95c0.05-0.03,0.09-0.06,0.14-0.09
			c0.11-0.06,0.21-0.13,0.31-0.19c0.09-0.06,0.17-0.12,0.26-0.18c0.1-0.07,0.19-0.15,0.29-0.22c0.08-0.07,0.16-0.13,0.24-0.2
			c0.09-0.08,0.17-0.16,0.25-0.24c0.08-0.08,0.15-0.15,0.22-0.23c0.08-0.08,0.15-0.17,0.22-0.25c0.07-0.08,0.14-0.17,0.2-0.26
			c0.06-0.09,0.13-0.17,0.19-0.26c0.06-0.09,0.12-0.18,0.18-0.28c0.05-0.09,0.11-0.18,0.16-0.28c0.05-0.1,0.1-0.19,0.15-0.29
			c0.05-0.1,0.09-0.19,0.13-0.29c0.04-0.1,0.08-0.2,0.12-0.3c0.04-0.1,0.07-0.21,0.11-0.31c0.03-0.1,0.06-0.2,0.09-0.3
			c0.03-0.11,0.05-0.22,0.08-0.33c0.02-0.1,0.04-0.2,0.06-0.3c0.02-0.11,0.03-0.22,0.05-0.34c0.01-0.1,0.02-0.2,0.03-0.31
			c0.01-0.11,0.01-0.23,0.01-0.34c0-0.1,0-0.21,0-0.31C770.04,22.41,770.03,22.3,770.02,22.18z M310.36,246.03l-6.76,15.71
			l-59.74-25.65l6.76-15.71L310.36,246.03z M326.94,199.68c-9.86-1.59-23.65,0.41-30.19,15.63c-1.32,3.07-2.27,6.06-2.96,8.92
			l-21.34-9.16c1.59-2.72,3.11-5.66,4.46-8.79c5.43-12.64,0.7-22.97-4.5-28.88c2.73-6.37,8.1-18.87,13.56-31.58l2.57-6
			c9.67-22.52,18.34-35.95,29.94-46.36c9.26-8.32,20.95-14.97,36.77-20.79c-27.97,50.44-18.22,83.11-13.81,93.24L326.94,199.68z
			 M543.99,242.1c1.21-2.73,3.51-4.81,6.46-5.85c1.35-0.48,2.76-0.71,4.18-0.71c1.83,0,3.68,0.39,5.44,1.17
			c6.3,2.8,9.33,9.78,6.75,15.58l-23.76,54.04c-1.22,2.72-3.51,4.8-6.46,5.84c-3.08,1.09-6.5,0.92-9.62-0.46
			c-3.12-1.39-5.52-3.81-6.78-6.83c-1.2-2.89-1.2-5.98,0.03-8.74L543.99,242.1z M520.11,217.92c1.8,0,3.66,0.38,5.45,1.17
			c3.12,1.39,5.54,3.82,6.8,6.85c1.21,2.9,1.2,6-0.02,8.74l-27.14,61c-2.57,5.79-9.8,8.21-16.12,5.4c-3.12-1.39-5.54-3.82-6.8-6.85
			c-1.21-2.9-1.2-6,0.02-8.74l27.14-61C511.28,220.33,515.53,217.92,520.11,217.92z M471.53,213.48l14.02-6
			c0.69,0.18,1.37,0.4,2.04,0.7c3.12,1.39,5.54,3.82,6.8,6.85c1.21,2.9,1.2,6-0.02,8.74l-27.14,61c-2.57,5.79-9.8,8.21-16.12,5.4
			c-3.12-1.39-5.54-3.82-6.8-6.85c-1.21-2.9-1.2-6,0.02-8.74l27.14-61C471.49,213.55,471.51,213.52,471.53,213.48z M438.79,240.99
			c2.8-7.71,4.38-12.76,5.24-15.75l9.24-3.95l-18.86,42.38c-3.41,3.05-8.71,3.92-13.48,1.79c-0.72-0.32-1.4-0.7-2.04-1.13
			C427.47,259.13,434.99,251.49,438.79,240.99z"/>
		<path d="M621.48,366.4c-9.71,2.13-16.79,9.2-20.18,19.87c-0.01,0-0.02,0-0.02,0c-14.24,0-26.84,4.68-35.8,13.28
			c-32.37-26.22-79.79-39.54-141.15-39.6c-0.08,0-0.15,0-0.23,0c-53.61,0-98,19.63-123.38,39.15l-47.77-35.15
			c-1.96-1.44-4.55-1.72-6.77-0.72c-2.22,1-3.73,3.12-3.95,5.54l-5.81,63.88c-32.92,12.97-45.82,35.39-50.09,45.32l-33.68,0.23
			c-3.71,0.03-6.7,3.04-6.7,6.75v34.01c0,12.57,5.02,21.93,14.92,27.82c6.84,4.07,15.76,6.45,28.64,7.6
			c9.33,14.53,22.37,27.76,39.76,40.35c1.2,0.87,2.58,1.28,3.95,1.28c2.09,0,4.15-0.97,5.47-2.79c0.87-1.2,1.28-2.58,1.28-3.96
			c0-2.09-0.96-4.15-2.78-5.47c-17.07-12.36-29.49-25.24-37.96-39.35c-1.13-1.89-3.12-3.11-5.32-3.26
			c-28.7-1.98-34.46-9.98-34.46-22.23v-27.31l31.63-0.22c3.02-0.02,5.66-2.05,6.46-4.96c0.08-0.29,8.31-28.83,47.46-42.62
			c2.49-0.88,4.24-3.12,4.48-5.75l5.11-56.19l42.31,31.14c2.51,1.85,5.95,1.74,8.34-0.26c21.65-18.16,65.75-39.33,118.87-39.33
			c0.07,0,0.14,0,0.21,0c62.37,0.07,109.1,14.19,138.89,41.99c25.33,23.63,38.18,56.77,38.18,98.48c0,26.54-9.54,50.36-28.37,70.78
			c-1.2,1.3-1.78,2.94-1.78,4.57c0,1.82,0.72,3.63,2.17,4.96c2.74,2.53,7.01,2.35,9.54-0.39c20.89-22.68,31.94-50.31,31.94-79.93
			c0-43.85-13.22-79.23-39.28-105.26c4.41-3.89,11.93-8.39,23.5-8.86c-0.5,16.41,5.83,35.75,18.29,41.8
			c1.92,0.93,4.66,1.85,7.96,1.85c4.62,0,10.35-1.81,16.49-7.95c9.82-9.82,8.68-19.25,7.13-23.99
			c-3.67-11.22-16.75-20.35-33.78-23.8c1.7-3.73,4.51-7.09,9.17-8.11c27.86-6.1,32.88,10.8,33.34,12.68l13.18-2.91
			C670.81,389.02,663.29,357.24,621.48,366.4z M636.15,415.68c0.39,1.19,1.58,4.83-3.85,10.26c-5.3,5.3-8.09,3.94-9.01,3.5
			c-5.53-2.68-10.96-15.38-10.72-28.51C624.37,403.36,634.07,409.35,636.15,415.68z"/>
		<path d="M417.94,490.7l-5.5-1v-17.75c6,1.75,10.25,6.5,10.62,13.5l16.62-0.5c-0.25-15.75-9.87-25.87-27.25-27.75v-10.12h-9.37
			v9.87c-17.12,1.12-27.62,10.37-27.62,24.87c0,13.37,8.75,20.37,21.25,22.5l6.38,1.12v18c-6.88-1.75-12.12-6.5-12.62-15l-17,0.62
			c0,17.12,12,27.37,29.62,29.12v11.5h9.37v-11.25c16.5-0.88,28.87-9.12,28.87-24.5C441.31,501.08,433.93,493.58,417.94,490.7z
			 M403.06,488.08c-5.88-1.12-9.88-2.87-9.88-7.87c0-5.37,3.5-8.25,9.88-8.87V488.08z M412.44,524.07v-17c6.75,1.12,11,3,11,8.12
			C423.43,520.32,419.19,523.45,412.44,524.07z"/>
		<path d="M41.48,155.09c-5.82,0-9.81,4.17-9.81,9.69c0,5.79,3.66,8.88,8.37,9.24l0.21-4.89c-2.1-0.3-4.05-1.44-4.05-4.38
			c0-2.79,2.07-4.41,5.28-4.41s5.28,1.62,5.28,4.41c0,2.94-1.95,4.08-4.05,4.38l0.18,4.89c4.71-0.36,8.4-3.45,8.4-9.24
			C51.29,159.26,47.3,155.09,41.48,155.09z"/>
		<path d="M31.73,187.25c0,1.38,0.39,2.34,0.87,3.03h2.58c-0.15-0.39-0.21-0.69-0.21-1.08c0-0.51,0.3-0.81,0.99-0.81h4.56
			c3.72,0,5.25-2.61,5.25-6.15c0-4.02-2.04-6.21-4.98-6.63l-0.3,4.5c0.99,0.21,1.68,0.75,1.68,1.83c0,1.17-0.66,1.68-1.77,1.68
			h-0.21l-0.63-3.75c-0.51-2.91-1.62-4.77-4.2-4.77c-2.28,0-3.63,1.71-3.63,4.32c0,2.13,0.81,3.66,2.37,4.44
			C32.57,184.3,31.73,185.59,31.73,187.25z M35.99,179.78c0.87,0,1.23,0.69,1.47,1.86l0.36,1.98h-0.21c-1.74,0-2.76-1.11-2.76-2.49
			C34.85,180.32,35.3,179.78,35.99,179.78z"/>
		<path d="M31.67,200.95c0,3.93,3.09,5.94,7.05,5.94c3.93,0,7.05-2.01,7.05-5.94c0-2.25-1.08-3.75-2.67-4.41h2.31v-4.86H27.23v4.86
			h7.08C32.75,197.21,31.67,198.71,31.67,200.95z M38.63,196.54h0.18c1.92,0,3.18,1.05,3.18,2.7c0,1.89-1.35,2.76-3.27,2.76
			c-1.95,0-3.3-0.87-3.3-2.76C35.42,197.59,36.68,196.54,38.63,196.54z"/>
		<rect x="46.67" y="208.79" width="4.26" height="4.92"/>
		<rect x="32.03" y="208.81" width="13.38" height="4.86"/>
		<path d="M49.1,218.54l-1.74-0.45c-1.23-0.33-1.95-0.75-2.16-2.1L45.05,215h-3v1.8h-6.3c-3.15,0-4.08,2.13-4.08,4.38
			c0,1.83,0.45,3,1.2,4.02h3.15c-0.33-0.81-0.45-1.47-0.45-2.07c0-0.99,0.45-1.53,1.59-1.53h4.89v3.48h3.36v-3.48h3.69V218.54z"/>
		<path d="M35.96,239.56h4.56c3.72,0,5.25-2.61,5.25-6.15c0-4.02-2.04-6.21-4.98-6.63l-0.3,4.5c0.99,0.21,1.68,0.75,1.68,1.83
			c0,1.17-0.66,1.68-1.77,1.68h-0.21l-0.63-3.75c-0.51-2.91-1.62-4.77-4.2-4.77c-2.28,0-3.63,1.71-3.63,4.32
			c0,2.13,0.81,3.66,2.37,4.44c-1.53,0.45-2.37,1.74-2.37,3.39c0,1.38,0.39,2.34,0.87,3.03h2.58c-0.15-0.39-0.21-0.69-0.21-1.08
			C34.97,239.86,35.27,239.56,35.96,239.56z M34.85,232.3c0-0.81,0.45-1.35,1.14-1.35c0.87,0,1.23,0.69,1.47,1.86l0.36,1.98h-0.21
			C35.87,234.79,34.85,233.68,34.85,232.3z"/>
		<rect x="32.03" y="242.86" width="18.9" height="4.86"/>
		<rect x="32.03" y="250.36" width="13.38" height="4.86"/>
		<rect x="46.67" y="250.33" width="4.26" height="4.92"/>
		<path d="M41.24,257.17c-2.73,0-3.78,1.71-4.29,4.95l-0.3,1.98c-0.15,0.93-0.51,1.23-1.02,1.23c-0.54,0-0.93-0.57-0.93-1.65
			c0-1.47,0.63-2.37,1.74-2.55l-0.06-4.23c-3.24,0.27-4.71,3.03-4.71,6.72c0,3.81,1.62,6.21,4.44,6.21c2.61,0,3.96-1.74,4.44-4.74
			l0.45-2.61c0.06-0.45,0.3-0.81,0.75-0.81c0.6,0,0.96,0.54,0.96,1.47c0,1.5-0.6,2.34-1.56,2.52l0.12,3.99
			c2.79-0.27,4.5-2.55,4.5-6.42C45.77,259.48,43.88,257.17,41.24,257.17z"/>
		<path d="M45.77,280.72c0-2.01-0.9-3.45-2.37-4.17h2.01v-4.86H32.03v4.86h6.57c2.01,0,3.33,0.57,3.33,2.16
			c0,1.47-0.96,1.83-2.79,1.83h-7.11v4.86h6.57c2.01,0,3.33,0.54,3.33,2.16c0,1.47-0.96,1.8-2.79,1.8h-7.11v4.86h8.4
			c2.79,0,5.34-1.08,5.34-4.77c0-2.25-1.14-3.84-2.64-4.56C44.69,284.32,45.77,283.09,45.77,280.72z"/>
		<rect x="32.03" y="301.87" width="18.9" height="5.1"/>
		<path d="M36.44,313l-0.06-4.23c-3.24,0.27-4.71,3.03-4.71,6.72c0,3.81,1.62,6.21,4.44,6.21c2.61,0,3.96-1.74,4.44-4.74l0.45-2.61
			c0.06-0.45,0.3-0.81,0.75-0.81c0.6,0,0.96,0.54,0.96,1.47c0,1.5-0.6,2.34-1.56,2.52l0.12,3.99c2.79-0.27,4.5-2.55,4.5-6.42
			c0-3.75-1.89-6.06-4.53-6.06c-2.73,0-3.78,1.71-4.29,4.95l-0.3,1.98c-0.15,0.93-0.51,1.23-1.02,1.23c-0.54,0-0.93-0.57-0.93-1.65
			C34.7,314.08,35.33,313.18,36.44,313z"/>
		<path d="M32.03,332.41l3.66,1.41v7.38l-3.66,1.41v5.43l18.9-7.53v-5.7l-18.9-7.53V332.41z M39.5,335.29l5.58,2.16v0.12l-5.58,2.16
			V335.29z"/>
		<polygon points="32.03,363.37 50.93,370.63 50.93,365.56 38.36,360.88 38.36,360.76 50.93,356.08 50.93,350.74 32.03,358 		"/>
		<rect x="32.03" y="371.95" width="13.38" height="4.86"/>
		<rect x="46.67" y="371.92" width="4.26" height="4.92"/>
		<path d="M43.04,384.31h2.37v-4.86H32.03v4.86h6.12c2.25,0,3.09,1.11,3.09,2.91c0,0.93-0.18,1.65-0.57,2.31l4.59,0.3
			c0.27-0.33,0.51-1.05,0.51-1.86C45.77,386.2,44.54,384.79,43.04,384.31z"/>
		<path d="M38.27,396.04h7.14v-4.86h-8.43c-2.79,0-5.31,1.11-5.31,4.77c0,2.01,0.87,3.48,2.37,4.2h-2.01v4.86h13.38v-4.86h-6.57
			c-2.04,0-3.36-0.6-3.36-2.13C35.48,396.55,36.47,396.04,38.27,396.04z"/>
		<path d="M41.24,406.96c-2.73,0-3.78,1.71-4.29,4.95l-0.3,1.98c-0.15,0.93-0.51,1.23-1.02,1.23c-0.54,0-0.93-0.57-0.93-1.65
			c0-1.47,0.63-2.37,1.74-2.55l-0.06-4.23c-3.24,0.27-4.71,3.03-4.71,6.72c0,3.81,1.62,6.21,4.44,6.21c2.61,0,3.96-1.74,4.44-4.74
			l0.45-2.61c0.06-0.45,0.3-0.81,0.75-0.81c0.6,0,0.96,0.54,0.96,1.47c0,1.5-0.6,2.34-1.56,2.52l0.12,3.99
			c2.79-0.27,4.5-2.55,4.5-6.42C45.77,409.27,43.88,406.96,41.24,406.96z"/>
		<rect x="32.03" y="423.76" width="5.16" height="5.16"/>
		<path d="M38.72,433.12c-4.17,0-7.05,2.94-7.05,7.32c0,4.35,2.88,7.32,7.05,7.32c4.14,0,7.05-2.97,7.05-7.32
			C45.77,436.06,42.86,433.12,38.72,433.12z M38.72,442.87c-2.01,0-3.39-0.75-3.39-2.43c0-1.71,1.38-2.43,3.39-2.43
			s3.39,0.72,3.39,2.43C42.11,442.12,40.73,442.87,38.72,442.87z"/>
		<path d="M45.26,460.06c0.27-0.33,0.51-1.05,0.51-1.86c0-1.77-1.23-3.18-2.73-3.66h2.37v-4.86H32.03v4.86h6.12
			c2.25,0,3.09,1.11,3.09,2.91c0,0.93-0.18,1.65-0.57,2.31L45.26,460.06z"/>
		<path d="M44.69,471.82c0.69-1.14,1.08-2.67,1.08-4.29c0-3.75-1.74-6.45-4.59-6.45c-1.47,0-2.61,0.72-3.39,1.92
			c-0.54-1.44-1.53-2.28-2.82-2.28c-1.14,0-2.22,0.72-2.61,1.92c-0.12-1.5-1.05-2.55-2.22-2.55c-2.52,0-3.27,3.3-3.27,7.11
			c0,4.35,1.53,8.4,4.86,8.4c2.25,0,3.84-1.53,3.84-4.56v-5.55c0-0.81,0.36-1.14,0.81-1.14c0.27,0,0.48,0.09,0.63,0.27
			c-0.27,0.87-0.39,1.83-0.39,2.91c0,3.78,1.74,6.51,4.56,6.51c0.63,0,1.2-0.15,1.71-0.42c0.15,0.66,0.21,1.38,0.21,1.95h3.66
			C46.76,474.1,45.8,472.63,44.69,471.82z M31.43,469.9c0,0.81-0.21,1.23-0.78,1.23c-0.81,0-1.26-1.65-1.26-3.9
			c0-1.8,0.27-3.15,1.23-3.15c0.51,0,0.81,0.36,0.81,0.9V469.9z M41.18,469c-1.2,0-1.95-0.6-1.95-1.41c0-0.81,0.75-1.41,1.95-1.41
			c1.17,0,1.92,0.6,1.92,1.41C43.1,468.4,42.35,469,41.18,469z"/>
	</g>
</g>
</svg>
