<?xml version="1.0" encoding="UTF-8" standalone="no"?>
<!-- Generator: Adobe Illustrator 23.1.1, SVG Export Plug-In . SVG Version: 6.00 Build 0)  -->

<svg
   xmlns:dc="http://purl.org/dc/elements/1.1/"
   xmlns:cc="http://creativecommons.org/ns#"
   xmlns:rdf="http://www.w3.org/1999/02/22-rdf-syntax-ns#"
   xmlns:svg="http://www.w3.org/2000/svg"
   xmlns="http://www.w3.org/2000/svg"
   xmlns:sodipodi="http://sodipodi.sourceforge.net/DTD/sodipodi-0.dtd"
   xmlns:inkscape="http://www.inkscape.org/namespaces/inkscape"
   version="1.1"
   x="0px"
   y="0px"
   viewBox="0 0 792 612"
   style="enable-background:new 0 0 792 612;"
   xml:space="preserve"
   id="svg356"
   sodipodi:docname="7.svg"
   inkscape:version="0.92.4 (5da689c313, 2019-01-14)"><metadata
   id="metadata362"><rdf:RDF><cc:Work
       rdf:about=""><dc:format>image/svg+xml</dc:format><dc:type
         rdf:resource="http://purl.org/dc/dcmitype/StillImage" /><dc:title></dc:title></cc:Work></rdf:RDF></metadata><defs
   id="defs360">
	

		
		
		
		
		
		
		
		
		
		
		
		
		
		
		
		
		
		
		
		
		
		
		
		
		
		
		
		
		
		
		
		
		
		
		
		
		
		
		
		
		
		
		
		
		
		
		
		
		
		
		
		
		
		
		
		
		
		
		
	</defs><sodipodi:namedview
   pagecolor="#ffffff"
   bordercolor="#666666"
   borderopacity="1"
   objecttolerance="10"
   gridtolerance="10"
   guidetolerance="10"
   inkscape:pageopacity="0"
   inkscape:pageshadow="2"
   inkscape:window-width="1920"
   inkscape:window-height="1001"
   id="namedview358"
   showgrid="false"
   inkscape:zoom="10.562092"
   inkscape:cx="559.78567"
   inkscape:cy="64.420277"
   inkscape:window-x="-9"
   inkscape:window-y="-9"
   inkscape:window-maximized="1"
   inkscape:current-layer="svg356"
   inkscape:pagecheckerboard="true" />
<style
   type="text/css"
   id="style187">
	.st0{display:none;}
	.st1{display:inline;}
	.st2{display:inline;fill:#FFD600;}
	.st3{display:inline;fill:#FFFFFF;}
	.st4{fill:#FFFFFF;stroke:#000000;stroke-width:13.497;stroke-linecap:round;stroke-linejoin:round;stroke-miterlimit:10;}
	.st5{fill:#FFFFFF;}
	.st6{stroke:#000000;stroke-width:18.3348;stroke-linecap:round;stroke-miterlimit:10;}
	.st7{fill:none;stroke:#000000;stroke-width:13.497;stroke-linecap:round;stroke-linejoin:round;stroke-miterlimit:10;}
	.st8{stroke:#000000;stroke-width:18.3348;stroke-linecap:round;stroke-linejoin:round;stroke-miterlimit:10;}
	.st9{fill:#FFFFFF;stroke:#000000;stroke-width:13.497;stroke-miterlimit:10;}
	.st10{fill:none;stroke:#000000;stroke-width:13.497;stroke-miterlimit:10;}
	.st11{fill:none;stroke:#000000;stroke-width:30.5612;stroke-linecap:round;stroke-linejoin:round;stroke-miterlimit:10;}
	.st12{fill:#FFFFFF;stroke:#000000;stroke-width:16.2993;stroke-linecap:round;stroke-linejoin:round;stroke-miterlimit:10;}
	.st13{font-family:'FoundersGrotesk-Bold';}
	.st14{font-size:159.1737px;}
	.st15{font-size:95.1573px;}
	.st16{font-size:258.7306px;}
	.st17{fill:#FFFFFF;stroke:#000000;stroke-width:16;stroke-linecap:round;stroke-linejoin:round;stroke-miterlimit:10;}
	.st18{fill:#FFFFFF;stroke:#000000;stroke-width:11.7326;stroke-linecap:round;stroke-linejoin:round;stroke-miterlimit:10;}
	.st19{fill:#FFFFFF;stroke:#000000;stroke-width:13.2623;stroke-linecap:round;stroke-linejoin:round;stroke-miterlimit:10;}
	.st20{fill:#FFFFFF;stroke:#000000;stroke-width:13.2623;stroke-linecap:round;stroke-miterlimit:10;}
	.st21{stroke:#000000;stroke-width:4.5213;stroke-miterlimit:10;}
	.st22{fill:#FFFFFF;stroke:#000000;stroke-width:14;stroke-linecap:round;stroke-linejoin:round;stroke-miterlimit:10;}
	.st23{fill:#FFFFFF;stroke:#000000;stroke-width:16.6693;stroke-miterlimit:10;}
	.st24{stroke:#000000;stroke-width:16.6693;stroke-linecap:round;stroke-miterlimit:10;}
	.st25{fill:#FFFFFF;stroke:#000000;stroke-width:13.497;stroke-linecap:round;stroke-miterlimit:10;}
	.st26{fill:none;stroke:#000000;stroke-width:13.497;stroke-linecap:round;stroke-miterlimit:10;}
	.st27{fill:#FFFFFF;stroke:#000000;stroke-width:15.2362;stroke-linecap:round;stroke-linejoin:round;stroke-miterlimit:10;}
	.st28{fill:#FFFFFF;stroke:#000000;stroke-width:14.8467;stroke-linecap:round;stroke-linejoin:round;stroke-miterlimit:10;}
	.st29{stroke:#000000;stroke-width:20.1683;stroke-linecap:round;stroke-miterlimit:10;}
	.st30{fill:none;stroke:#000000;stroke-width:14.8467;stroke-linecap:round;stroke-linejoin:round;stroke-miterlimit:10;}
	.st31{font-size:30px;}
	.st32{font-size:28px;}
	.st33{font-size:15px;}
	.st34{fill:#FFFFFF;stroke:#000000;stroke-width:12.2439;stroke-linecap:round;stroke-linejoin:round;stroke-miterlimit:10;}
	.st35{fill:none;stroke:#000000;stroke-width:11.5;stroke-linecap:round;stroke-linejoin:round;stroke-miterlimit:10;}
	.st36{fill:#FFFFFF;stroke:#000000;stroke-width:11.5;stroke-linecap:round;stroke-linejoin:round;stroke-miterlimit:10;}
	.st37{fill:#FFFFFF;stroke:#000000;stroke-width:15.3;stroke-linecap:round;stroke-linejoin:round;stroke-miterlimit:10;}
	
		.st38{display:inline;fill:#FFFFFF;stroke:#000000;stroke-width:15.3;stroke-linecap:round;stroke-linejoin:round;stroke-miterlimit:10;}
	.st39{fill:#FFFFFF;stroke:#FFFFFF;stroke-width:3;stroke-miterlimit:10;}
	.st40{fill:#FFFFFF;stroke:#000000;stroke-width:13.3058;stroke-linecap:round;stroke-linejoin:round;stroke-miterlimit:10;}
	.st41{fill:#06F6FC;}
	.st42{display:inline;fill:#FF9C1A;}
	.st43{fill:#FFFFFF;stroke:#000000;stroke-width:15.2517;stroke-linecap:round;stroke-linejoin:round;stroke-miterlimit:10;}
	.st44{stroke:#000000;stroke-width:3;stroke-miterlimit:10;}
	.st45{fill:#06DCFF;}
	.st46{fill:#FFD600;}
	.st47{fill:#F9415C;}
	.st48{fill:#7D7DFF;}
	.st49{fill:#A8D600;}
	.st50{fill:#FF9C1A;}
	.st51{fill:#FF00A9;}
	
		.st52{display:inline;fill:#FFFFFF;stroke:#000000;stroke-width:14;stroke-linecap:round;stroke-linejoin:round;stroke-miterlimit:10;}
	.st53{fill:none;stroke:#000000;stroke-width:10;stroke-linecap:round;stroke-linejoin:round;stroke-miterlimit:10;}
	.st54{fill:#FFFFFF;stroke:#000000;stroke-width:12.3365;stroke-linecap:round;stroke-linejoin:round;stroke-miterlimit:10;}
	.st55{fill:none;stroke:#000000;stroke-width:13.3073;stroke-linecap:round;stroke-linejoin:round;stroke-miterlimit:10;}
	.st56{fill:#FFFFFF;stroke:#000000;stroke-width:13.3073;stroke-linecap:round;stroke-linejoin:round;stroke-miterlimit:10;}
	.st57{stroke:#000000;stroke-width:13.3073;stroke-linecap:round;stroke-linejoin:round;stroke-miterlimit:10;}
	.st58{stroke:#FFFFFF;stroke-width:13.3073;stroke-linecap:round;stroke-linejoin:round;stroke-miterlimit:10;}
	.st59{fill:#FFFFFF;stroke:#000000;stroke-width:10;stroke-linecap:round;stroke-linejoin:round;stroke-miterlimit:10;}
	.st60{fill:#FFFFFF;stroke:#000000;stroke-width:15;stroke-linecap:round;stroke-linejoin:round;stroke-miterlimit:10;}
	.st61{fill:none;stroke:#000000;stroke-width:15;stroke-linecap:round;stroke-linejoin:round;stroke-miterlimit:10;}
	.st62{display:inline;fill:none;stroke:#000000;stroke-width:15;stroke-linecap:round;stroke-linejoin:round;stroke-miterlimit:10;}
	
		.st63{display:inline;fill:#FFFFFF;stroke:#000000;stroke-width:15;stroke-linecap:round;stroke-linejoin:round;stroke-miterlimit:10;}
	.st64{stroke:#FFFFFF;stroke-width:15;stroke-linecap:round;stroke-linejoin:round;stroke-miterlimit:10;}
	
		.st65{display:inline;fill:none;stroke:#000000;stroke-width:13.7295;stroke-linecap:round;stroke-linejoin:round;stroke-miterlimit:10;}
	.st66{fill:#FFFFFF;stroke:#000000;stroke-width:12.7279;stroke-linecap:round;stroke-linejoin:round;stroke-miterlimit:10;}
	.st67{fill:#FFFFFF;stroke:#000000;stroke-width:13.7295;stroke-linecap:round;stroke-linejoin:round;stroke-miterlimit:10;}
	.st68{fill:none;stroke:#000000;stroke-width:12.7279;stroke-linecap:round;stroke-linejoin:round;stroke-miterlimit:10;}
	.st69{clip-path:url(#SVGID_4_);}
	.st70{stroke:#FFFFFF;stroke-width:13.7894;stroke-linecap:round;stroke-linejoin:round;stroke-miterlimit:10;}
	.st71{fill:none;}
	.st72{fill:none;stroke:#000000;stroke-width:13.7295;stroke-linecap:round;stroke-linejoin:round;stroke-miterlimit:10;}
	.st73{clip-path:url(#SVGID_6_);}
</style>
<g
   id="Layer_1"
   class="st0">
</g>
<g
   id="Layer_2"
   class="st0">
	<rect
   y="-1.82"
   class="st3"
   width="792"
   height="613.82"
   id="rect190" />
	<g
   class="st1"
   id="g206">
		<g
   id="g194">
			<text
   transform="matrix(1 0 0 1 22.1836 169.7847)"
   class="st13 st14"
   id="text192">Capitalism</text>


		</g>
		<g
   id="g200">
			<g
   id="g198">
				<text
   transform="matrix(1 0 0 1 328.5342 278.1138)"
   class="st13 st15"
   id="text196">is a</text>


			</g>
		</g>
		<g
   id="g204">
			<text
   transform="matrix(1 0 0 1 29.6426 493.5386)"
   class="st13 st16"
   id="text202">VIRUS</text>


		</g>
	</g>
	<g
   class="st1"
   id="g232">
		<text
   transform="matrix(1 0 0 1 235.3667 575.0923)"
   id="text230"><tspan
     x="0"
     y="0"
     class="st13 st31"
     id="tspan208">Capitalism</tspan><tspan
     x="140.91"
     y="0"
     class="st13 st32"
     id="tspan210"> </tspan><tspan
     x="145.95"
     y="0"
     class="st13 st31"
     id="tspan212">Is</tspan><tspan
     x="167.76"
     y="0"
     class="st13 st32"
     id="tspan214"> </tspan><tspan
     x="172.8"
     y="0"
     class="st13 st31"
     id="tspan216">A</tspan><tspan
     x="193.56"
     y="0"
     class="st13 st33"
     id="tspan218"> </tspan><tspan
     x="196.26"
     y="0"
     class="st13 st31"
     id="tspan220">Virus</tspan><tspan
     x="265.68"
     y="0"
     class="st13 st33"
     id="tspan222"> </tspan><tspan
     x="268.38"
     y="0"
     class="st13 st31"
     id="tspan224">.</tspan><tspan
     x="275.34"
     y="0"
     class="st13 st33"
     id="tspan226"> </tspan><tspan
     x="278.04"
     y="0"
     class="st13 st31"
     id="tspan228">org</tspan></text>


	</g>
</g>
<path
   d="m 76.78,171.69 c 30.72,0 47.12,-19.42 49.03,-44.41 l -25.95,-1.11 c -1.59,11.14 -7.64,21.49 -23.24,21.49 -14.8,0 -23.4,-10.98 -23.4,-28.02 0,-17.04 8.6,-28.02 23.4,-28.02 15.6,0 21.65,10.35 23.24,21.49 l 25.95,-0.96 C 123.9,87.16 107.5,67.58 76.78,67.58 c -29.29,0 -51.42,21.17 -51.42,52.05 0,30.88 22.13,52.06 51.42,52.06 z"
   id="path261"
   inkscape:connector-curvature="0" /><path
   d="m 156.84,129.83 c -15.44,2.71 -25.31,8.6 -25.31,22.29 0,12.1 9.07,19.26 22.92,19.26 11.3,0 19.42,-4.3 23.56,-12.58 2.39,8.12 9.23,12.58 17.99,12.58 7.32,0 12.42,-2.07 16.08,-4.62 v -13.69 c -2.07,0.8 -3.66,1.11 -5.73,1.11 -2.71,0 -4.3,-1.59 -4.3,-5.25 v -24.2 c 0,-19.74 -13.85,-27.86 -32.63,-27.86 -21.33,0 -32.95,10.82 -35.18,26.42 l 23.88,1.59 c 1.11,-5.25 3.98,-8.91 9.71,-8.91 6.21,0 8.91,3.5 8.91,9.39 v 1.11 z m 19.9,10.35 c 0,9.23 -5.89,14.64 -13.21,14.64 -4.3,0 -7.16,-2.39 -7.16,-6.05 0,-4.62 3.66,-6.53 9.87,-7.8 l 10.51,-1.91 v 1.12 z"
   id="path263"
   inkscape:connector-curvature="0" /><path
   d="m 245.34,157.69 c 3.5,8.28 11.46,14.01 23.4,14.01 20.85,0 31.52,-16.4 31.52,-37.41 0,-20.85 -10.67,-37.41 -31.52,-37.41 -11.94,0 -19.9,5.73 -23.4,14.17 V 98.79 h -25.79 v 96.46 h 25.79 z m 0,-23.88 c 0,-10.19 5.57,-16.87 14.33,-16.87 10.03,0 14.64,7.16 14.64,17.35 0,10.35 -4.62,17.51 -14.64,17.51 -8.75,0 -14.33,-6.69 -14.33,-17.03 z"
   id="path265"
   inkscape:connector-curvature="0" /><rect
   x="310.44"
   y="98.790001"
   width="25.790001"
   height="70.989998"
   id="rect267" /><rect
   x="310.29001"
   y="69.5"
   width="26.110001"
   height="22.6"
   id="rect269" /><path
   d="m 352.79,150.05 c 0,16.71 11.3,21.65 23.24,21.65 9.71,0 15.92,-2.39 21.33,-6.37 v -16.71 c -4.3,1.75 -7.8,2.39 -10.98,2.39 -5.25,0 -8.12,-2.39 -8.12,-8.44 v -25.95 h 18.46 V 98.79 H 378.26 V 79.21 h -16.24 l -2.39,9.23 c -1.75,6.53 -3.98,10.35 -11.14,11.46 l -5.25,0.8 v 15.92 h 9.55 z"
   id="path271"
   inkscape:connector-curvature="0" /><path
   d="m 428.39,129.83 c -15.44,2.71 -25.31,8.6 -25.31,22.29 0,12.1 9.07,19.26 22.92,19.26 11.3,0 19.42,-4.3 23.56,-12.58 2.39,8.12 9.23,12.58 17.99,12.58 7.32,0 12.42,-2.07 16.08,-4.62 v -13.69 c -2.07,0.8 -3.66,1.11 -5.73,1.11 -2.71,0 -4.3,-1.59 -4.3,-5.25 v -24.2 c 0,-19.74 -13.85,-27.86 -32.63,-27.86 -21.33,0 -32.95,10.82 -35.18,26.42 l 23.88,1.59 c 1.11,-5.25 3.98,-8.91 9.71,-8.91 6.21,0 8.91,3.5 8.91,9.39 v 1.11 z m 19.9,10.35 c 0,9.23 -5.89,14.64 -13.21,14.64 -4.3,0 -7.16,-2.39 -7.16,-6.05 0,-4.62 3.66,-6.53 9.87,-7.8 l 10.51,-1.91 v 1.12 z"
   id="path273"
   inkscape:connector-curvature="0" /><rect
   x="491.10001"
   y="69.5"
   width="25.790001"
   height="100.28"
   id="rect275" /><rect
   x="530.90002"
   y="98.790001"
   width="25.790001"
   height="70.989998"
   id="rect277" /><rect
   x="530.73999"
   y="69.5"
   width="26.110001"
   height="22.6"
   id="rect279" /><path
   d="m 601.57,155.62 c -7.8,0 -12.58,-3.34 -13.53,-9.23 l -22.44,0.32 c 1.43,17.19 16.08,24.99 35.66,24.99 20.22,0 32.95,-8.6 32.95,-23.56 0,-13.85 -9.23,-21.01 -25.15,-23.56 l -13.85,-2.39 c -2.39,-0.32 -4.3,-1.59 -4.3,-3.98 0,-3.18 2.87,-5.09 7.8,-5.09 7.96,0 12.42,3.18 13.37,8.28 l 21.17,-0.64 c -1.43,-14.8 -13.53,-23.88 -34.06,-23.88 -19.9,0 -32.15,10.03 -32.15,24.04 0,14.49 9.07,20.06 26.26,22.76 l 10.51,1.59 c 4.93,0.8 6.53,2.71 6.53,5.41 -0.01,2.87 -3.04,4.94 -8.77,4.94 z"
   id="path281"
   inkscape:connector-curvature="0" /><path
   d="m 669.86,134.92 c 0,-10.67 3.02,-17.67 11.46,-17.67 7.8,0 9.71,5.09 9.71,14.8 v 37.73 h 25.79 v -34.86 c 0,-10.67 2.87,-17.67 11.46,-17.67 7.8,0 9.55,5.09 9.55,14.8 v 37.73 h 25.79 v -44.57 c 0,-14.8 -5.73,-28.33 -25.31,-28.33 -11.94,0 -20.38,6.05 -24.2,14.01 -3.02,-8.28 -9.55,-14.01 -22.13,-14.01 -10.67,0 -18.31,4.78 -22.13,12.58 V 98.79 h -25.79 v 70.99 h 25.79 v -34.86 z"
   id="path283"
   inkscape:connector-curvature="0" /><rect
   x="332.63"
   y="218.17"
   width="15.61"
   height="13.51"
   id="rect285" /><rect
   x="332.72"
   y="235.67999"
   width="15.42"
   height="42.439999"
   id="rect287" /><path
   d="m 374.97,269.65 c -4.66,0 -7.52,-2 -8.09,-5.52 l -13.42,0.19 c 0.86,10.28 9.61,14.94 21.31,14.94 12.08,0 19.7,-5.14 19.7,-14.08 0,-8.28 -5.52,-12.56 -15.03,-14.08 l -8.28,-1.43 c -1.43,-0.19 -2.57,-0.95 -2.57,-2.38 0,-1.9 1.71,-3.04 4.66,-3.04 4.76,0 7.42,1.9 7.99,4.95 l 12.66,-0.38 c -0.86,-8.85 -8.09,-14.27 -20.36,-14.27 -11.89,0 -19.22,5.99 -19.22,14.37 0,8.66 5.42,11.99 15.7,13.61 l 6.28,0.95 c 2.95,0.48 3.9,1.62 3.9,3.24 0,1.69 -1.8,2.93 -5.23,2.93 z"
   id="path289"
   inkscape:connector-curvature="0" /><path
   d="m 430.16,254.23 c -9.23,1.62 -15.13,5.14 -15.13,13.32 0,7.23 5.42,11.51 13.7,11.51 6.76,0 11.61,-2.57 14.08,-7.52 1.43,4.85 5.52,7.52 10.75,7.52 4.38,0 7.42,-1.24 9.61,-2.76 v -8.18 c -1.24,0.48 -2.19,0.67 -3.42,0.67 -1.62,0 -2.57,-0.95 -2.57,-3.14 v -14.46 c 0,-11.8 -8.28,-16.65 -19.51,-16.65 -12.75,0 -19.7,6.47 -21.03,15.8 l 14.27,0.95 c 0.67,-3.14 2.38,-5.33 5.8,-5.33 3.71,0 5.33,2.09 5.33,5.61 v 0.67 z m 11.89,6.19 c 0,5.52 -3.52,8.75 -7.9,8.75 -2.57,0 -4.28,-1.43 -4.28,-3.62 0,-2.76 2.19,-3.9 5.9,-4.66 l 6.28,-1.14 z"
   id="path291"
   inkscape:connector-curvature="0" /><polygon
   points="92.25,493.54 138.57,493.54 201.18,330.54 157.45,330.54 117.09,438.95 116.06,438.95 75.7,330.54 29.64,330.54 "
   id="polygon293" /><rect
   x="213.60001"
   y="330.54001"
   width="43.98"
   height="163"
   id="rect295" /><path
   d="m 393.15,424.2 c 19.92,-2.59 34.67,-18.11 34.67,-41.91 0,-31.82 -20.96,-51.75 -63.13,-51.75 h -82.28 v 163 h 43.21 v -54.07 h 29.24 c 14.75,0 22.77,4.14 24.06,22.77 1.29,16.82 3.36,26.91 6.73,31.31 h 44.5 c -5.43,-5.95 -6.21,-13.2 -8.54,-37.52 -1.81,-18.89 -11.64,-28.47 -28.46,-31.83 z m -36.22,-18.63 h -31.31 v -39.84 h 31.31 c 18.63,0 27.94,6.99 27.94,20.18 0.01,15 -9.31,19.66 -27.94,19.66 z"
   id="path297"
   inkscape:connector-curvature="0" /><path
   d="m 446.19,330.54 v 98.32 c 0,47.61 32.08,67.79 74,67.79 41.92,0 74.25,-20.18 74.25,-67.79 v -98.32 h -43.98 v 91.07 c 0,24.84 -7.5,38.03 -30.27,38.03 -22.51,0 -30.27,-13.19 -30.27,-38.03 v -91.07 z"
   id="path299"
   inkscape:connector-curvature="0" /><path
   d="m 704.92,394.19 -30.79,-5.43 c -10.09,-1.81 -16.3,-4.66 -16.3,-12.16 0,-9.06 8.28,-14.75 22.77,-14.75 16.82,0 28.98,7.76 30.27,24.58 l 40.36,-0.78 c -0.78,-36.22 -25.1,-58.21 -70.12,-58.21 -40.62,0 -66.49,19.92 -66.49,53.04 0,28.46 18.63,43.47 45.28,48.38 l 29.75,5.17 c 12.42,2.33 21.99,3.88 21.99,13.45 0,9.06 -9.83,14.49 -25.1,14.49 -18.11,0 -33.89,-6.99 -35.45,-27.42 l -40.36,1.29 c 0,39.33 31.56,60.8 75.81,60.8 38.03,0 68.05,-17.33 68.05,-52 0.01,-26.65 -15.52,-44.5 -49.67,-50.45 z"
   id="path301"
   inkscape:connector-curvature="0" /><path
   d="m 245.7,560.36 c 2.94,0 4.08,1.95 4.38,4.05 l 4.89,-0.18 c -0.36,-4.71 -3.45,-8.4 -9.24,-8.4 -5.52,0 -9.69,3.99 -9.69,9.81 0,5.82 4.17,9.81 9.69,9.81 5.79,0 8.88,-3.66 9.24,-8.37 l -4.89,-0.21 c -0.3,2.1 -1.44,4.05 -4.38,4.05 -2.79,0 -4.41,-2.07 -4.41,-5.28 0,-3.21 1.62,-5.28 4.41,-5.28 z"
   id="path303"
   inkscape:connector-curvature="0" /><path
   d="m 269.34,571.16 v -4.56 c 0,-3.72 -2.61,-5.25 -6.15,-5.25 -4.02,0 -6.21,2.04 -6.63,4.98 l 4.5,0.3 c 0.21,-0.99 0.75,-1.68 1.83,-1.68 1.17,0 1.68,0.66 1.68,1.77 v 0.21 l -3.75,0.63 c -2.91,0.51 -4.77,1.62 -4.77,4.2 0,2.28 1.71,3.63 4.32,3.63 2.13,0 3.66,-0.81 4.44,-2.37 0.45,1.53 1.74,2.37 3.39,2.37 1.38,0 2.34,-0.39 3.03,-0.87 v -2.58 c -0.39,0.15 -0.69,0.21 -1.08,0.21 -0.51,0 -0.81,-0.3 -0.81,-0.99 z m -4.77,-1.65 c 0,1.74 -1.11,2.76 -2.49,2.76 -0.81,0 -1.35,-0.45 -1.35,-1.14 0,-0.87 0.69,-1.23 1.86,-1.47 l 1.98,-0.36 z"
   id="path305"
   inkscape:connector-curvature="0" /><path
   d="m 281.91,561.35 c -2.25,0 -3.75,1.08 -4.41,2.67 v -2.31 h -4.86 v 18.18 h 4.86 v -7.08 c 0.66,1.56 2.16,2.64 4.41,2.64 3.93,0 5.94,-3.09 5.94,-7.05 0,-3.93 -2.01,-7.05 -5.94,-7.05 z m -1.71,10.35 c -1.65,0 -2.7,-1.26 -2.7,-3.21 v -0.18 c 0,-1.92 1.05,-3.18 2.7,-3.18 1.89,0 2.76,1.35 2.76,3.27 0,1.95 -0.87,3.3 -2.76,3.3 z"
   id="path307"
   inkscape:connector-curvature="0" /><rect
   x="289.73999"
   y="556.19"
   width="4.9200001"
   height="4.2600002"
   id="rect309" /><rect
   x="289.76999"
   y="561.71002"
   width="4.8600001"
   height="13.38"
   id="rect311" /><path
   d="m 302.55,569.96 v -4.89 h 3.48 v -3.36 h -3.48 v -3.69 h -3.06 l -0.45,1.74 c -0.33,1.23 -0.75,1.95 -2.1,2.16 l -0.99,0.15 v 3 h 1.8 v 6.3 c 0,3.15 2.13,4.08 4.38,4.08 1.83,0 3,-0.45 4.02,-1.2 v -3.15 c -0.81,0.33 -1.47,0.45 -2.07,0.45 -0.99,0 -1.53,-0.45 -1.53,-1.59 z"
   id="path313"
   inkscape:connector-curvature="0" /><path
   d="m 320.52,571.16 v -4.56 c 0,-3.72 -2.61,-5.25 -6.15,-5.25 -4.02,0 -6.21,2.04 -6.63,4.98 l 4.5,0.3 c 0.21,-0.99 0.75,-1.68 1.83,-1.68 1.17,0 1.68,0.66 1.68,1.77 v 0.21 l -3.75,0.63 c -2.91,0.51 -4.77,1.62 -4.77,4.2 0,2.28 1.71,3.63 4.32,3.63 2.13,0 3.66,-0.81 4.44,-2.37 0.45,1.53 1.74,2.37 3.39,2.37 1.38,0 2.34,-0.39 3.03,-0.87 v -2.58 c -0.39,0.15 -0.69,0.21 -1.08,0.21 -0.51,0 -0.81,-0.3 -0.81,-0.99 z m -4.77,-1.65 c 0,1.74 -1.11,2.76 -2.49,2.76 -0.81,0 -1.35,-0.45 -1.35,-1.14 0,-0.87 0.69,-1.23 1.86,-1.47 l 1.98,-0.36 z"
   id="path315"
   inkscape:connector-curvature="0" /><rect
   x="323.82001"
   y="556.19"
   width="4.8600001"
   height="18.9"
   id="rect317" /><rect
   x="331.29001"
   y="556.19"
   width="4.9200001"
   height="4.2600002"
   id="rect319" /><rect
   x="331.32001"
   y="561.71002"
   width="4.8600001"
   height="13.38"
   id="rect321" /><path
   d="m 346.05,566.57 -2.61,-0.45 c -0.45,-0.06 -0.81,-0.3 -0.81,-0.75 0,-0.6 0.54,-0.96 1.47,-0.96 1.5,0 2.34,0.6 2.52,1.56 l 3.99,-0.12 c -0.27,-2.79 -2.55,-4.5 -6.42,-4.5 -3.75,0 -6.06,1.89 -6.06,4.53 0,2.73 1.71,3.78 4.95,4.29 l 1.98,0.3 c 0.93,0.15 1.23,0.51 1.23,1.02 0,0.54 -0.57,0.93 -1.65,0.93 -1.47,0 -2.37,-0.63 -2.55,-1.74 l -4.23,0.06 c 0.27,3.24 3.03,4.71 6.72,4.71 3.81,0 6.21,-1.62 6.21,-4.44 0,-2.61 -1.74,-3.96 -4.74,-4.44 z"
   id="path323"
   inkscape:connector-curvature="0" /><path
   d="m 370.41,561.35 c -2.25,0 -3.84,1.14 -4.56,2.64 -0.57,-1.56 -1.8,-2.64 -4.17,-2.64 -2.01,0 -3.45,0.9 -4.17,2.37 v -2.01 h -4.86 v 13.38 h 4.86 v -6.57 c 0,-2.01 0.57,-3.33 2.16,-3.33 1.47,0 1.83,0.96 1.83,2.79 v 7.11 h 4.86 v -6.57 c 0,-2.01 0.54,-3.33 2.16,-3.33 1.47,0 1.8,0.96 1.8,2.79 v 7.11 h 4.86 v -8.4 c 0,-2.79 -1.08,-5.34 -4.77,-5.34 z"
   id="path325"
   inkscape:connector-curvature="0" /><rect
   x="382.82999"
   y="556.19"
   width="5.0999999"
   height="18.9"
   id="rect327" /><path
   d="m 397.92,566.57 -2.61,-0.45 c -0.45,-0.06 -0.81,-0.3 -0.81,-0.75 0,-0.6 0.54,-0.96 1.47,-0.96 1.5,0 2.34,0.6 2.52,1.56 l 3.99,-0.12 c -0.27,-2.79 -2.55,-4.5 -6.42,-4.5 -3.75,0 -6.06,1.89 -6.06,4.53 0,2.73 1.71,3.78 4.95,4.29 l 1.98,0.3 c 0.93,0.15 1.23,0.51 1.23,1.02 0,0.54 -0.57,0.93 -1.65,0.93 -1.47,0 -2.37,-0.63 -2.55,-1.74 l -4.23,0.06 c 0.27,3.24 3.03,4.71 6.72,4.71 3.81,0 6.21,-1.62 6.21,-4.44 0,-2.61 -1.74,-3.96 -4.74,-4.44 z"
   id="path329"
   inkscape:connector-curvature="0" /><path
   d="m 415.77,556.19 -7.53,18.9 h 5.13 l 1.41,-3.66 h 7.38 l 1.41,3.66 H 429 l -7.53,-18.9 z m 0.48,11.43 2.16,-5.58 h 0.12 l 2.16,5.58 z"
   id="path331"
   inkscape:connector-curvature="0" /><polygon
   points="438.96,575.09 444.33,575.09 451.59,556.19 446.52,556.19 441.84,568.76 441.72,568.76 437.04,556.19 431.7,556.19 "
   id="polygon333" /><rect
   x="452.91"
   y="561.71002"
   width="4.8600001"
   height="13.38"
   id="rect335" /><rect
   x="452.88"
   y="556.19"
   width="4.9200001"
   height="4.2600002"
   id="rect337" /><path
   d="m 465.27,564.08 v -2.37 h -4.86 v 13.38 h 4.86 v -6.12 c 0,-2.25 1.11,-3.09 2.91,-3.09 0.93,0 1.65,0.18 2.31,0.57 l 0.3,-4.59 c -0.33,-0.27 -1.05,-0.51 -1.86,-0.51 -1.77,0 -3.18,1.23 -3.66,2.73 z"
   id="path339"
   inkscape:connector-curvature="0" /><path
   d="m 481.11,568.28 c 0,2.04 -0.6,3.36 -2.13,3.36 -1.47,0 -1.98,-0.99 -1.98,-2.79 v -7.14 h -4.86 v 8.43 c 0,2.79 1.11,5.31 4.77,5.31 2.01,0 3.48,-0.87 4.2,-2.37 v 2.01 h 4.86 v -13.38 h -4.86 z"
   id="path341"
   inkscape:connector-curvature="0" /><path
   d="m 495.84,566.57 -2.61,-0.45 c -0.45,-0.06 -0.81,-0.3 -0.81,-0.75 0,-0.6 0.54,-0.96 1.47,-0.96 1.5,0 2.34,0.6 2.52,1.56 l 3.99,-0.12 c -0.27,-2.79 -2.55,-4.5 -6.42,-4.5 -3.75,0 -6.06,1.89 -6.06,4.53 0,2.73 1.71,3.78 4.95,4.29 l 1.98,0.3 c 0.93,0.15 1.23,0.51 1.23,1.02 0,0.54 -0.57,0.93 -1.65,0.93 -1.47,0 -2.37,-0.63 -2.55,-1.74 l -4.23,0.06 c 0.27,3.24 3.03,4.71 6.72,4.71 3.81,0 6.21,-1.62 6.21,-4.44 0,-2.61 -1.74,-3.96 -4.74,-4.44 z"
   id="path343"
   inkscape:connector-curvature="0" /><rect
   x="504.72"
   y="569.92999"
   width="5.1599998"
   height="5.1599998"
   id="rect345" /><path
   d="m 521.4,561.35 c -4.38,0 -7.32,2.91 -7.32,7.05 0,4.17 2.94,7.05 7.32,7.05 4.35,0 7.32,-2.88 7.32,-7.05 0,-4.14 -2.97,-7.05 -7.32,-7.05 z m 0,10.44 c -1.71,0 -2.43,-1.38 -2.43,-3.39 0,-2.01 0.72,-3.39 2.43,-3.39 1.68,0 2.43,1.38 2.43,3.39 0,2.01 -0.75,3.39 -2.43,3.39 z"
   id="path347"
   inkscape:connector-curvature="0" /><path
   d="m 535.5,564.08 v -2.37 h -4.86 v 13.38 h 4.86 v -6.12 c 0,-2.25 1.11,-3.09 2.91,-3.09 0.93,0 1.65,0.18 2.31,0.57 l 0.3,-4.59 c -0.33,-0.27 -1.05,-0.51 -1.86,-0.51 -1.77,0 -3.18,1.23 -3.66,2.73 z"
   id="path349"
   inkscape:connector-curvature="0" /><path
   d="m 552,571.55 h -5.55 c -0.81,0 -1.14,-0.36 -1.14,-0.81 0,-0.27 0.09,-0.48 0.27,-0.63 0.87,0.27 1.83,0.39 2.91,0.39 3.78,0 6.51,-1.74 6.51,-4.56 0,-0.63 -0.15,-1.2 -0.42,-1.71 0.66,-0.15 1.38,-0.21 1.95,-0.21 v -3.66 c -1.47,0 -2.94,0.96 -3.75,2.07 -1.14,-0.69 -2.67,-1.08 -4.29,-1.08 -3.75,0 -6.45,1.74 -6.45,4.59 0,1.47 0.72,2.61 1.92,3.39 -1.44,0.54 -2.28,1.53 -2.28,2.82 0,1.14 0.72,2.22 1.92,2.61 -1.5,0.12 -2.55,1.05 -2.55,2.22 0,2.52 3.3,3.27 7.11,3.27 4.35,0 8.4,-1.53 8.4,-4.86 0,-2.25 -1.53,-3.84 -4.56,-3.84 z m -3.45,-7.53 c 0.81,0 1.41,0.75 1.41,1.92 0,1.2 -0.6,1.95 -1.41,1.95 -0.81,0 -1.41,-0.75 -1.41,-1.95 0,-1.17 0.6,-1.92 1.41,-1.92 z m -0.36,13.71 c -1.8,0 -3.15,-0.27 -3.15,-1.23 0,-0.51 0.36,-0.81 0.9,-0.81 h 4.92 c 0.81,0 1.23,0.21 1.23,0.78 0,0.81 -1.65,1.26 -3.9,1.26 z"
   id="path351"
   inkscape:connector-curvature="0" />
</svg>