<?xml version="1.0" encoding="UTF-8" standalone="no"?>
<!-- Generator: Adobe Illustrator 23.1.1, SVG Export Plug-In . SVG Version: 6.00 Build 0)  -->

<svg
   xmlns:dc="http://purl.org/dc/elements/1.1/"
   xmlns:cc="http://creativecommons.org/ns#"
   xmlns:rdf="http://www.w3.org/1999/02/22-rdf-syntax-ns#"
   xmlns:svg="http://www.w3.org/2000/svg"
   xmlns="http://www.w3.org/2000/svg"
   xmlns:sodipodi="http://sodipodi.sourceforge.net/DTD/sodipodi-0.dtd"
   xmlns:inkscape="http://www.inkscape.org/namespaces/inkscape"
   version="1.1"
   x="0px"
   y="0px"
   viewBox="0 0 792 612"
   style="enable-background:new 0 0 792 612;"
   xml:space="preserve"
   id="svg958"
   sodipodi:docname="8.svg"
   inkscape:version="0.92.4 (5da689c313, 2019-01-14)"><metadata
   id="metadata964"><rdf:RDF><cc:Work
       rdf:about=""><dc:format>image/svg+xml</dc:format><dc:type
         rdf:resource="http://purl.org/dc/dcmitype/StillImage" /></cc:Work></rdf:RDF></metadata><defs
   id="defs962">
	
</defs><sodipodi:namedview
   pagecolor="#ffffff"
   bordercolor="#666666"
   borderopacity="1"
   objecttolerance="10"
   gridtolerance="10"
   guidetolerance="10"
   inkscape:pageopacity="0"
   inkscape:pageshadow="2"
   inkscape:window-width="1920"
   inkscape:window-height="1001"
   id="namedview960"
   showgrid="false"
   inkscape:zoom="12.339869"
   inkscape:cx="49.70161"
   inkscape:cy="123.76439"
   inkscape:window-x="-9"
   inkscape:window-y="-9"
   inkscape:window-maximized="1"
   inkscape:current-layer="svg958" />
<style
   type="text/css"
   id="style809">
	.st0{display:none;}
	.st1{display:inline;}
	.st2{display:inline;fill:#FFD600;}
	.st3{display:inline;fill:#FFFFFF;}
	.st4{fill:#FFFFFF;stroke:#000000;stroke-width:13.497;stroke-linecap:round;stroke-linejoin:round;stroke-miterlimit:10;}
	.st5{fill:#FFFFFF;}
	.st6{stroke:#000000;stroke-width:18.3348;stroke-linecap:round;stroke-miterlimit:10;}
	.st7{fill:none;stroke:#000000;stroke-width:13.497;stroke-linecap:round;stroke-linejoin:round;stroke-miterlimit:10;}
	.st8{stroke:#000000;stroke-width:18.3348;stroke-linecap:round;stroke-linejoin:round;stroke-miterlimit:10;}
	.st9{fill:#FFFFFF;stroke:#000000;stroke-width:13.497;stroke-miterlimit:10;}
	.st10{fill:none;stroke:#000000;stroke-width:13.497;stroke-miterlimit:10;}
	.st11{fill:none;stroke:#000000;stroke-width:30.5612;stroke-linecap:round;stroke-linejoin:round;stroke-miterlimit:10;}
	.st12{fill:#FFFFFF;stroke:#000000;stroke-width:16.2993;stroke-linecap:round;stroke-linejoin:round;stroke-miterlimit:10;}
	.st13{fill:#FFFFFF;stroke:#000000;stroke-width:16;stroke-linecap:round;stroke-linejoin:round;stroke-miterlimit:10;}
	.st14{fill:#FFFFFF;stroke:#000000;stroke-width:11.7326;stroke-linecap:round;stroke-linejoin:round;stroke-miterlimit:10;}
	.st15{fill:#FFFFFF;stroke:#000000;stroke-width:13.2623;stroke-linecap:round;stroke-linejoin:round;stroke-miterlimit:10;}
	.st16{fill:#FFFFFF;stroke:#000000;stroke-width:13.2623;stroke-linecap:round;stroke-miterlimit:10;}
	.st17{stroke:#000000;stroke-width:4.5213;stroke-miterlimit:10;}
	.st18{fill:#FFFFFF;stroke:#000000;stroke-width:14;stroke-linecap:round;stroke-linejoin:round;stroke-miterlimit:10;}
	.st19{fill:#FFFFFF;stroke:#000000;stroke-width:16.6693;stroke-miterlimit:10;}
	.st20{stroke:#000000;stroke-width:16.6693;stroke-linecap:round;stroke-miterlimit:10;}
	.st21{fill:#FFFFFF;stroke:#000000;stroke-width:13.497;stroke-linecap:round;stroke-miterlimit:10;}
	.st22{fill:none;stroke:#000000;stroke-width:13.497;stroke-linecap:round;stroke-miterlimit:10;}
	.st23{fill:#FFFFFF;stroke:#000000;stroke-width:15.2362;stroke-linecap:round;stroke-linejoin:round;stroke-miterlimit:10;}
	.st24{fill:#FFFFFF;stroke:#000000;stroke-width:14.8467;stroke-linecap:round;stroke-linejoin:round;stroke-miterlimit:10;}
	.st25{stroke:#000000;stroke-width:20.1683;stroke-linecap:round;stroke-miterlimit:10;}
	.st26{fill:none;stroke:#000000;stroke-width:14.8467;stroke-linecap:round;stroke-linejoin:round;stroke-miterlimit:10;}
	.st27{font-family:'FoundersGrotesk-Bold';}
	.st28{font-size:30px;}
	.st29{font-size:28px;}
	.st30{font-size:15px;}
	.st31{fill:#FFFFFF;stroke:#000000;stroke-width:12.2439;stroke-linecap:round;stroke-linejoin:round;stroke-miterlimit:10;}
	.st32{fill:none;stroke:#000000;stroke-width:11.5;stroke-linecap:round;stroke-linejoin:round;stroke-miterlimit:10;}
	.st33{fill:#FFFFFF;stroke:#000000;stroke-width:11.5;stroke-linecap:round;stroke-linejoin:round;stroke-miterlimit:10;}
	.st34{fill:#FFFFFF;stroke:#000000;stroke-width:15.3;stroke-linecap:round;stroke-linejoin:round;stroke-miterlimit:10;}
	
		.st35{display:inline;fill:#FFFFFF;stroke:#000000;stroke-width:15.3;stroke-linecap:round;stroke-linejoin:round;stroke-miterlimit:10;}
	.st36{fill:#FFFFFF;stroke:#FFFFFF;stroke-width:3;stroke-miterlimit:10;}
	.st37{fill:#FFFFFF;stroke:#000000;stroke-width:13.3058;stroke-linecap:round;stroke-linejoin:round;stroke-miterlimit:10;}
	.st38{fill:#06F6FC;}
	.st39{display:inline;fill:#FF9C1A;}
	.st40{fill:#FFFFFF;stroke:#000000;stroke-width:15.2517;stroke-linecap:round;stroke-linejoin:round;stroke-miterlimit:10;}
	.st41{stroke:#000000;stroke-width:3;stroke-miterlimit:10;}
	.st42{fill:#06DCFF;}
	.st43{fill:#FFD600;}
	.st44{fill:#F9415C;}
	.st45{fill:#7D7DFF;}
	.st46{fill:#A8D600;}
	.st47{fill:#FF9C1A;}
	.st48{fill:#FF00A9;}
	
		.st49{display:inline;fill:#FFFFFF;stroke:#000000;stroke-width:14;stroke-linecap:round;stroke-linejoin:round;stroke-miterlimit:10;}
	.st50{fill:none;stroke:#000000;stroke-width:10;stroke-linecap:round;stroke-linejoin:round;stroke-miterlimit:10;}
	.st51{fill:#FFFFFF;stroke:#000000;stroke-width:12.3365;stroke-linecap:round;stroke-linejoin:round;stroke-miterlimit:10;}
	.st52{fill:none;stroke:#000000;stroke-width:13.3073;stroke-linecap:round;stroke-linejoin:round;stroke-miterlimit:10;}
	.st53{fill:#FFFFFF;stroke:#000000;stroke-width:13.3073;stroke-linecap:round;stroke-linejoin:round;stroke-miterlimit:10;}
	.st54{stroke:#000000;stroke-width:13.3073;stroke-linecap:round;stroke-linejoin:round;stroke-miterlimit:10;}
	.st55{stroke:#FFFFFF;stroke-width:13.3073;stroke-linecap:round;stroke-linejoin:round;stroke-miterlimit:10;}
	.st56{fill:#FFFFFF;stroke:#000000;stroke-width:10;stroke-linecap:round;stroke-linejoin:round;stroke-miterlimit:10;}
	.st57{fill:#FFFFFF;stroke:#000000;stroke-width:15;stroke-linecap:round;stroke-linejoin:round;stroke-miterlimit:10;}
	.st58{fill:none;stroke:#000000;stroke-width:15;stroke-linecap:round;stroke-linejoin:round;stroke-miterlimit:10;}
	.st59{display:inline;fill:none;stroke:#000000;stroke-width:15;stroke-linecap:round;stroke-linejoin:round;stroke-miterlimit:10;}
	
		.st60{display:inline;fill:#FFFFFF;stroke:#000000;stroke-width:15;stroke-linecap:round;stroke-linejoin:round;stroke-miterlimit:10;}
	.st61{stroke:#FFFFFF;stroke-width:15;stroke-linecap:round;stroke-linejoin:round;stroke-miterlimit:10;}
	
		.st62{display:inline;fill:none;stroke:#000000;stroke-width:13.7295;stroke-linecap:round;stroke-linejoin:round;stroke-miterlimit:10;}
	.st63{fill:#FFFFFF;stroke:#000000;stroke-width:12.7279;stroke-linecap:round;stroke-linejoin:round;stroke-miterlimit:10;}
	.st64{fill:#FFFFFF;stroke:#000000;stroke-width:13.7295;stroke-linecap:round;stroke-linejoin:round;stroke-miterlimit:10;}
	.st65{fill:none;stroke:#000000;stroke-width:12.7279;stroke-linecap:round;stroke-linejoin:round;stroke-miterlimit:10;}
	.st66{clip-path:url(#SVGID_4_);}
	.st67{stroke:#FFFFFF;stroke-width:13.7894;stroke-linecap:round;stroke-linejoin:round;stroke-miterlimit:10;}
	.st68{fill:none;}
	.st69{fill:none;stroke:#000000;stroke-width:13.7295;stroke-linecap:round;stroke-linejoin:round;stroke-miterlimit:10;}
	.st70{clip-path:url(#SVGID_6_);}
</style>
<g
   id="Layer_1"
   class="st0">
</g>
<g
   id="Layer_2"
   class="st0">
	<rect
   x="-0.98"
   y="-1.82"
   class="st3"
   width="792"
   height="613.82"
   id="rect812" />
	<g
   class="st1"
   id="g858">
		<g
   id="g856">
			<g
   id="g852">
				<path
   class="st11"
   d="M658.3,509.72l35.3-11.21c8-2.54,11.44-14.21,7.68-26.06l-29.46-92.81      c-22.39-70.53-71.22-131.74-126.73-114.12s-60.1,95.78-37.71,166.31l29.46,92.81c3.76,11.85,13.3,19.4,21.3,16.86l34.75-11.03"
   id="path814" />
				<path
   class="st11"
   d="M545.09,265.53C418.91,4.49,212.26,116.98,190.64,370.25"
   id="path816" />
				<g
   id="g832">
					<path
   class="st5"
   d="M400.86,121.65c0,0,70.1-27.03,83.5,48.94s-14,104.56-31.8,118.19s5.32,248.19,6.35,300.49H300.36"
   id="path818" />
					<g
   id="g828">
						<path
   class="st12"
   d="M469.37,207.27c-6.22,10.27-20.07,13.27-30.93,6.69s-14.63-20.24-8.41-30.51l41.23-68.11        c6.22-10.27,20.07-13.27,30.93-6.69c10.86,6.58,14.63,20.24,8.41,30.51L469.37,207.27z"
   id="path820" />
						<path
   class="st12"
   d="M430.04,183.46c-6.22,10.27-20.07,13.27-30.93,6.69c-10.86-6.58-14.63-20.24-8.41-30.51l47.96-79.23        c6.22-10.27,20.07-13.27,30.93-6.69c10.86,6.58,14.63,20.24,8.41,30.51L430.04,183.46z"
   id="path822" />
						<path
   class="st12"
   d="M351.55,135.94c-6.22,10.27-20.07,13.27-30.93,6.69c-10.86-6.58-14.63-20.24-8.41-30.51l47.96-79.23        c6.22-10.27,20.07-13.27,30.93-6.69c10.86,6.58,14.63,20.24,8.41,30.51L351.55,135.94z"
   id="path824" />
						<path
   class="st12"
   d="M390.89,159.76c-6.22,10.27-20.07,13.27-30.93,6.69s-14.63-20.24-8.41-30.51l54.69-90.34        c6.22-10.27,20.07-13.27,30.93-6.69s14.63,20.24,8.41,30.51L390.89,159.76z"
   id="path826" />
					</g>
					<path
   class="st5"
   d="M391.51,256.78c0,0,17.8-68.6-48.96-96.32c3.22-5.54,7.04-12.13,7.04-12.13s16.98,7.28,32.92-3.12       c15.94-10.39,18.36-23.56,18.36-23.56s-58.55-28.06-68.6-32.22s-20.79,0-31.53,13.86c-10.74,13.86-45.39,57.17-44,84.19       c1.39,27.03,41.58,67.56,48.16,86.27c6.58,18.71,12.13,73.11,6.24,108.45h91.39"
   id="path830" />
				</g>
				<g
   id="g848">
					<path
   class="st12"
   d="M400.86,121.65c0,0,70.1-27.03,83.5,48.94S471.65,284,453.88,301.88c-20.96,26.46,5.02,151.88,5.02,280"
   id="path834" />
					<g
   id="g844">
						<path
   class="st12"
   d="M469.37,207.27c-6.22,10.27-20.07,13.27-30.93,6.69s-14.63-20.24-8.41-30.51l41.23-68.11        c6.22-10.27,20.07-13.27,30.93-6.69c10.86,6.58,14.63,20.24,8.41,30.51L469.37,207.27z"
   id="path836" />
						<path
   class="st12"
   d="M430.04,183.46c-6.22,10.27-20.07,13.27-30.93,6.69c-10.86-6.58-14.63-20.24-8.41-30.51l47.96-79.23        c6.22-10.27,20.07-13.27,30.93-6.69c10.86,6.58,14.63,20.24,8.41,30.51L430.04,183.46z"
   id="path838" />
						<path
   class="st12"
   d="M351.55,135.94c-6.22,10.27-20.07,13.27-30.93,6.69c-10.86-6.58-14.63-20.24-8.41-30.51l47.96-79.23        c6.22-10.27,20.07-13.27,30.93-6.69c10.86,6.58,14.63,20.24,8.41,30.51L351.55,135.94z"
   id="path840" />
						<path
   class="st12"
   d="M390.89,159.76c-6.22,10.27-20.07,13.27-30.93,6.69s-14.63-20.24-8.41-30.51l54.69-90.34        c6.22-10.27,20.07-13.27,30.93-6.69s14.63,20.24,8.41,30.51L390.89,159.76z"
   id="path842" />
					</g>
					<path
   class="st12"
   d="M391.51,256.78c0,0,17.8-68.6-48.96-96.32c3.22-5.54,7.04-12.13,7.04-12.13s16.98,7.28,32.92-3.12       c15.94-10.39,18.36-23.56,18.36-23.56s-58.55-28.06-68.6-32.22s-20.79,0-31.53,13.86c-10.74,13.86-45.39,57.17-44,84.19       c1.39,27.03,44.51,66.78,48.16,86.27c13.24,70.67-4.53,122.24-4.53,315.52"
   id="path846" />
				</g>
				<circle
   class="st12"
   cx="190.64"
   cy="420.03"
   r="61.45"
   id="circle850" />
			</g>
			<line
   class="st12"
   x1="363.47"
   y1="161.31"
   x2="384.69"
   y2="155.44"
   id="line854" />
		</g>
	</g>
	<g
   class="st1"
   id="g884">
		<text
   transform="matrix(0 1 -1 0 32.0327 154.4106)"
   id="text882"><tspan
     x="0"
     y="0"
     class="st27 st28"
     id="tspan860">Capitalism</tspan><tspan
     x="140.91"
     y="0"
     class="st27 st29"
     id="tspan862"> </tspan><tspan
     x="145.95"
     y="0"
     class="st27 st28"
     id="tspan864">Is</tspan><tspan
     x="167.76"
     y="0"
     class="st27 st29"
     id="tspan866"> </tspan><tspan
     x="172.8"
     y="0"
     class="st27 st28"
     id="tspan868">A</tspan><tspan
     x="193.56"
     y="0"
     class="st27 st30"
     id="tspan870"> </tspan><tspan
     x="196.26"
     y="0"
     class="st27 st28"
     id="tspan872">Virus</tspan><tspan
     x="265.68"
     y="0"
     class="st27 st30"
     id="tspan874"> </tspan><tspan
     x="268.38"
     y="0"
     class="st27 st28"
     id="tspan876">.</tspan><tspan
     x="275.34"
     y="0"
     class="st27 st30"
     id="tspan878"> </tspan><tspan
     x="278.04"
     y="0"
     class="st27 st28"
     id="tspan880">org</tspan></text>

	</g>
</g>
<g
   id="g955">
		
		
		<path
   style="fill:#ffffff"
   inkscape:connector-curvature="0"
   id="path891"
   d="m 37.61,234.79 h 0.21 l -0.36,-1.98 c -0.24,-1.17 -0.6,-1.86 -1.47,-1.86 -0.69,0 -1.14,0.54 -1.14,1.35 0,1.38 1.02,2.49 2.76,2.49 z"
   class="st5" />
		
		
		<path
   style="fill:#ffffff"
   inkscape:connector-curvature="0"
   id="path897"
   d="m 37.61,183.62 h 0.21 l -0.36,-1.98 c -0.24,-1.17 -0.6,-1.86 -1.47,-1.86 -0.69,0 -1.14,0.54 -1.14,1.35 0,1.37 1.02,2.49 2.76,2.49 z"
   class="st5" />
		<polygon
   style="fill:#ffffff"
   id="polygon899"
   points="39.5,339.73 45.08,337.57 45.08,337.45 39.5,335.29 "
   class="st5" />
		
		<path
   inkscape:connector-curvature="0"
   id="path903"
   d="M 686.38,375.03 C 673.89,335.69 654.46,301.49 631.67,278.73 607.74,254.83 580.39,244.22 553.44,248.02 537.68,217.21 520.39,191 501.73,169.57 l 15.85,-26.18 c 4.18,-6.9 5.28,-15.08 3.09,-23.03 -2.14,-7.78 -7.2,-14.41 -14.25,-18.67 -5.49,-3.33 -11.58,-4.81 -17.49,-4.64 0.47,-3.81 0.19,-7.74 -0.88,-11.62 -2.14,-7.78 -7.2,-14.41 -14.25,-18.67 -5.43,-3.29 -11.44,-4.78 -17.29,-4.64 0.45,-3.78 0.17,-7.67 -0.89,-11.5 -2.14,-7.78 -7.2,-14.41 -14.25,-18.67 -10.95,-6.63 -24.25,-5.96 -33.84,0.66 -2.58,-5.32 -6.72,-10.03 -12.22,-13.36 -14.69,-8.89 -33.59,-4.66 -42.12,9.45 l -30.94,51.1 c -8.22,0.74 -17.88,5.47 -27.97,18.49 l -1.43,1.84 c -14.31,18.4 -29.96,40.11 -38.3,60.16 -7.8,8.76 -15.18,18.39 -22.05,28.86 -28.79,43.86 -47.78,99.79 -55.32,162.6 -31.96,6.29 -56.15,34.51 -56.15,68.28 0,38.38 31.22,69.6 69.6,69.6 38.38,0 69.6,-31.22 69.6,-69.6 0,-32.43 -22.3,-59.75 -52.37,-67.44 6.94,-54.96 23.19,-103.8 47.48,-142.46 5.72,11.36 14.29,23.05 22.69,34.51 8.65,11.81 17.6,24.01 18.83,30.61 7.07,37.71 5.06,69.95 1.74,123.36 -2.7,43.47 -6.41,103 -6.41,190.66 0,4.5 3.65,8.15 8.15,8.15 4.5,0 8.15,-3.65 8.15,-8.15 0,-87.16 3.68,-146.4 6.38,-189.65 3.4,-54.67 5.45,-87.67 -1.99,-127.38 -1.92,-10.24 -11.09,-22.75 -21.7,-37.24 -11.43,-15.6 -25.66,-35.02 -26.33,-47.95 -1.17,-22.89 30.46,-63.56 40.86,-76.92 l 1.44,-1.86 c 7.95,-10.26 15.35,-14.06 21.97,-11.32 7.7,3.19 45.59,21.24 61.33,28.76 -2.07,3.59 -5.81,8.35 -12.42,12.67 -11.93,7.78 -24.77,2.65 -25.25,2.45 -3.79,-1.62 -8.2,-0.16 -10.26,3.41 0,0 -3.81,6.58 -7.03,12.11 -1.18,2.03 -1.43,4.47 -0.68,6.7 0.75,2.23 2.43,4.02 4.6,4.92 59.2,24.58 44.85,84.17 44.19,86.76 -1.12,4.35 1.49,8.79 5.85,9.92 4.36,1.13 8.8,-1.48 9.94,-5.84 0.2,-0.77 4.86,-19.17 0.68,-41.33 -1.26,-6.66 -3.42,-14.06 -7,-21.57 0.59,0.41 1.19,0.81 1.81,1.19 5.21,3.15 10.93,4.65 16.55,4.65 2.78,0 5.53,-0.38 8.17,-1.1 1.77,8.08 6.83,15.55 14.62,20.26 5.2,3.15 10.93,4.65 16.55,4.65 10.23,0 20.06,-4.99 25.57,-14.1 l 3.51,-5.8 c 0.93,37.91 -9.69,68.24 -31.75,90.43 -0.21,0.22 -0.42,0.44 -0.61,0.68 -14.51,18.31 -10.57,66.07 -4.6,138.36 3.69,44.7 7.87,95.37 7.87,146.7 0,3.29 1.95,6.11 4.75,7.4 1.04,0.48 2.18,0.75 3.4,0.75 4.5,0 8.15,-3.65 8.15,-8.15 0,-52 -4.21,-103.02 -7.92,-148.04 -4.78,-58 -9.3,-112.8 0.9,-126.59 23.75,-24.1 35.85,-56 36.18,-95.15 9.79,13.72 19.18,29.09 28.07,46.07 -22.06,12.99 -36.86,36.56 -42.31,68.08 -5.49,31.74 -1.64,70.89 10.85,110.23 l 29.46,92.81 c 2.73,8.61 7.75,16.13 14.14,21.18 5.67,4.49 12.14,6.83 18.53,6.83 2.64,0 5.27,-0.4 7.82,-1.21 l 34.75,-11.03 c 8.04,-2.55 12.5,-11.14 9.94,-19.19 -2.55,-8.04 -11.14,-12.5 -19.19,-9.94 l -33.02,10.48 c -1.08,-0.91 -2.77,-3.01 -3.84,-6.37 l -29.46,-92.81 c -11.03,-34.76 -14.54,-68.77 -9.86,-95.77 4.79,-27.67 17.45,-44.95 37.63,-51.35 20.19,-6.41 40.49,0.41 60.36,20.25 19.39,19.36 36.14,49.17 47.18,83.93 l 29.46,92.81 c 1.06,3.35 0.9,6.05 0.54,7.42 l -33.57,10.66 c -8.04,2.55 -12.5,11.14 -9.94,19.19 2.55,8.04 11.14,12.5 19.19,9.94 l 35.3,-11.21 c 16.29,-5.17 24.03,-25.04 17.62,-45.24 z m -442.44,45 c 0,29.39 -23.91,53.3 -53.3,53.3 -29.39,0 -53.3,-23.91 -53.3,-53.3 0,-29.39 23.91,-53.3 53.3,-53.3 29.39,0 53.3,23.92 53.3,53.3 z M 339.07,83.51 367.15,37.12 c 2.45,-4.05 6.89,-6.25 11.59,-6.25 2.74,0 5.57,0.75 8.15,2.31 7,4.24 9.54,12.9 5.66,19.32 l -26.4,43.61 c -10.74,-5.08 -21.1,-9.92 -27.08,-12.6 z m 41.88,19.61 32.27,-53.3 c 2.45,-4.05 6.89,-6.25 11.59,-6.25 2.74,0 5.57,0.75 8.14,2.31 3.46,2.1 5.94,5.32 6.97,9.06 0.99,3.58 0.52,7.22 -1.32,10.26 l -31.22,51.58 c -0.77,-1.03 -1.78,-1.88 -3,-2.47 -0.98,-0.48 -11.13,-5.34 -23.43,-11.19 z m 42.11,76.12 c -3.88,6.41 -12.74,8.18 -19.74,3.94 -6.41,-3.88 -9.06,-11.47 -6.48,-17.65 0.35,-0.5 0.69,-1.02 1.02,-1.55 l 49.11,-81.11 c 2.56,-2.9 6.31,-4.48 10.26,-4.48 2.74,0 5.57,0.75 8.15,2.31 3.46,2.1 5.94,5.32 6.97,9.06 0.99,3.58 0.52,7.22 -1.32,10.26 z m 39.34,23.81 c -3.88,6.41 -12.74,8.18 -19.74,3.94 -7,-4.24 -9.54,-12.9 -5.66,-19.32 l 41.24,-68.11 c 2.45,-4.05 6.89,-6.25 11.59,-6.25 2.74,0 5.57,0.75 8.15,2.31 3.46,2.1 5.94,5.32 6.97,9.06 0.99,3.58 0.52,7.22 -1.32,10.26 z" />
		<path
   inkscape:connector-curvature="0"
   id="path905"
   d="m 41.48,155.09 c -5.82,0 -9.81,4.17 -9.81,9.69 0,5.79 3.66,8.88 8.37,9.24 l 0.21,-4.89 c -2.1,-0.3 -4.05,-1.44 -4.05,-4.38 0,-2.79 2.07,-4.41 5.28,-4.41 3.21,0 5.28,1.62 5.28,4.41 0,2.94 -1.95,4.08 -4.05,4.38 l 0.18,4.89 c 4.71,-0.36 8.4,-3.45 8.4,-9.24 0,-5.52 -3.99,-9.69 -9.81,-9.69 z" />
		<path
   inkscape:connector-curvature="0"
   id="path907"
   d="m 31.73,187.25 c 0,1.38 0.39,2.34 0.87,3.03 h 2.58 c -0.15,-0.39 -0.21,-0.69 -0.21,-1.08 0,-0.51 0.3,-0.81 0.99,-0.81 h 4.56 c 3.72,0 5.25,-2.61 5.25,-6.15 0,-4.02 -2.04,-6.21 -4.98,-6.63 l -0.3,4.5 c 0.99,0.21 1.68,0.75 1.68,1.83 0,1.17 -0.66,1.68 -1.77,1.68 h -0.21 l -0.63,-3.75 c -0.51,-2.91 -1.62,-4.77 -4.2,-4.77 -2.28,0 -3.63,1.71 -3.63,4.32 0,2.13 0.81,3.66 2.37,4.44 -1.53,0.44 -2.37,1.73 -2.37,3.39 z m 4.26,-7.47 c 0.87,0 1.23,0.69 1.47,1.86 l 0.36,1.98 h -0.21 c -1.74,0 -2.76,-1.11 -2.76,-2.49 0,-0.81 0.45,-1.35 1.14,-1.35 z" />
		<path
   inkscape:connector-curvature="0"
   id="path909"
   d="m 31.67,200.95 c 0,3.93 3.09,5.94 7.05,5.94 3.93,0 7.05,-2.01 7.05,-5.94 0,-2.25 -1.08,-3.75 -2.67,-4.41 h 2.31 v -4.86 H 27.23 v 4.86 h 7.08 c -1.56,0.67 -2.64,2.17 -2.64,4.41 z m 6.96,-4.41 h 0.18 c 1.92,0 3.18,1.05 3.18,2.7 0,1.89 -1.35,2.76 -3.27,2.76 -1.95,0 -3.3,-0.87 -3.3,-2.76 0,-1.65 1.26,-2.7 3.21,-2.7 z" />
		<rect
   id="rect911"
   height="4.8600001"
   width="13.38"
   y="208.81"
   x="32.029999" />
		<rect
   id="rect913"
   height="4.9200001"
   width="4.2600002"
   y="208.78999"
   x="46.669998" />
		<path
   inkscape:connector-curvature="0"
   id="path915"
   d="m 49.1,218.54 -1.74,-0.45 c -1.23,-0.33 -1.95,-0.75 -2.16,-2.1 L 45.05,215 h -3 v 1.8 h -6.3 c -3.15,0 -4.08,2.13 -4.08,4.38 0,1.83 0.45,3 1.2,4.02 h 3.15 c -0.33,-0.81 -0.45,-1.47 -0.45,-2.07 0,-0.99 0.45,-1.53 1.59,-1.53 h 4.89 v 3.48 h 3.36 v -3.48 h 3.69 z" />
		<path
   inkscape:connector-curvature="0"
   id="path917"
   d="m 35.96,239.56 h 4.56 c 3.72,0 5.25,-2.61 5.25,-6.15 0,-4.02 -2.04,-6.21 -4.98,-6.63 l -0.3,4.5 c 0.99,0.21 1.68,0.75 1.68,1.83 0,1.17 -0.66,1.68 -1.77,1.68 h -0.21 l -0.63,-3.75 c -0.51,-2.91 -1.62,-4.77 -4.2,-4.77 -2.28,0 -3.63,1.71 -3.63,4.32 0,2.13 0.81,3.66 2.37,4.44 -1.53,0.45 -2.37,1.74 -2.37,3.39 0,1.38 0.39,2.34 0.87,3.03 h 2.58 c -0.15,-0.39 -0.21,-0.69 -0.21,-1.08 0,-0.51 0.3,-0.81 0.99,-0.81 z m -1.11,-7.26 c 0,-0.81 0.45,-1.35 1.14,-1.35 0.87,0 1.23,0.69 1.47,1.86 l 0.36,1.98 h -0.21 c -1.74,0 -2.76,-1.11 -2.76,-2.49 z" />
		<rect
   id="rect919"
   height="4.8600001"
   width="18.9"
   y="242.86"
   x="32.029999" />
		<rect
   id="rect921"
   height="4.9200001"
   width="4.2600002"
   y="250.33"
   x="46.669998" />
		<rect
   id="rect923"
   height="4.8600001"
   width="13.38"
   y="250.36"
   x="32.029999" />
		<path
   inkscape:connector-curvature="0"
   id="path925"
   d="m 41.24,257.17 c -2.73,0 -3.78,1.71 -4.29,4.95 l -0.3,1.98 c -0.15,0.93 -0.51,1.23 -1.02,1.23 -0.54,0 -0.93,-0.57 -0.93,-1.65 0,-1.47 0.63,-2.37 1.74,-2.55 l -0.06,-4.23 c -3.24,0.27 -4.71,3.03 -4.71,6.72 0,3.81 1.62,6.21 4.44,6.21 2.61,0 3.96,-1.74 4.44,-4.74 L 41,262.48 c 0.06,-0.45 0.3,-0.81 0.75,-0.81 0.6,0 0.96,0.54 0.96,1.47 0,1.5 -0.6,2.34 -1.56,2.52 l 0.12,3.99 c 2.79,-0.27 4.5,-2.55 4.5,-6.42 0,-3.75 -1.89,-6.06 -4.53,-6.06 z" />
		<path
   inkscape:connector-curvature="0"
   id="path927"
   d="m 45.77,280.72 c 0,-2.01 -0.9,-3.45 -2.37,-4.17 h 2.01 v -4.86 H 32.03 v 4.86 h 6.57 c 2.01,0 3.33,0.57 3.33,2.16 0,1.47 -0.96,1.83 -2.79,1.83 h -7.11 v 4.86 h 6.57 c 2.01,0 3.33,0.54 3.33,2.16 0,1.47 -0.96,1.8 -2.79,1.8 h -7.11 v 4.86 h 8.4 c 2.79,0 5.34,-1.08 5.34,-4.77 0,-2.25 -1.14,-3.84 -2.64,-4.56 1.56,-0.57 2.64,-1.8 2.64,-4.17 z" />
		<rect
   id="rect929"
   height="5.0999999"
   width="18.9"
   y="301.87"
   x="32.029999" />
		<path
   inkscape:connector-curvature="0"
   id="path931"
   d="m 36.44,313 -0.06,-4.23 c -3.24,0.27 -4.71,3.03 -4.71,6.72 0,3.81 1.62,6.21 4.44,6.21 2.61,0 3.96,-1.74 4.44,-4.74 L 41,314.35 c 0.06,-0.45 0.3,-0.81 0.75,-0.81 0.6,0 0.96,0.54 0.96,1.47 0,1.5 -0.6,2.34 -1.56,2.52 l 0.12,3.99 c 2.79,-0.27 4.5,-2.55 4.5,-6.42 0,-3.75 -1.89,-6.06 -4.53,-6.06 -2.73,0 -3.78,1.71 -4.29,4.95 l -0.3,1.98 c -0.15,0.93 -0.51,1.23 -1.02,1.23 -0.54,0 -0.93,-0.57 -0.93,-1.65 0,-1.47 0.63,-2.37 1.74,-2.55 z" />
		<path
   inkscape:connector-curvature="0"
   id="path933"
   d="m 32.03,332.41 3.66,1.41 v 7.38 l -3.66,1.41 v 5.43 l 18.9,-7.53 v -5.7 l -18.9,-7.53 z m 7.47,2.88 5.58,2.16 v 0.12 l -5.58,2.16 z" />
		<polygon
   id="polygon935"
   points="50.93,365.56 38.36,360.88 38.36,360.76 50.93,356.08 50.93,350.74 32.03,358 32.03,363.37 50.93,370.63 " />
		<rect
   id="rect937"
   height="4.8600001"
   width="13.38"
   y="371.95001"
   x="32.029999" />
		<rect
   id="rect939"
   height="4.9200001"
   width="4.2600002"
   y="371.92001"
   x="46.669998" />
		<path
   inkscape:connector-curvature="0"
   id="path941"
   d="m 43.04,384.31 h 2.37 v -4.86 H 32.03 v 4.86 h 6.12 c 2.25,0 3.09,1.11 3.09,2.91 0,0.93 -0.18,1.65 -0.57,2.31 l 4.59,0.3 c 0.27,-0.33 0.51,-1.05 0.51,-1.86 0,-1.77 -1.23,-3.18 -2.73,-3.66 z" />
		<path
   inkscape:connector-curvature="0"
   id="path943"
   d="m 38.27,396.04 h 7.14 v -4.86 h -8.43 c -2.79,0 -5.31,1.11 -5.31,4.77 0,2.01 0.87,3.48 2.37,4.2 h -2.01 v 4.86 h 13.38 v -4.86 h -6.57 c -2.04,0 -3.36,-0.6 -3.36,-2.13 0,-1.47 0.99,-1.98 2.79,-1.98 z" />
		<path
   inkscape:connector-curvature="0"
   id="path945"
   d="m 41.24,406.96 c -2.73,0 -3.78,1.71 -4.29,4.95 l -0.3,1.98 c -0.15,0.93 -0.51,1.23 -1.02,1.23 -0.54,0 -0.93,-0.57 -0.93,-1.65 0,-1.47 0.63,-2.37 1.74,-2.55 l -0.06,-4.23 c -3.24,0.27 -4.71,3.03 -4.71,6.72 0,3.81 1.62,6.21 4.44,6.21 2.61,0 3.96,-1.74 4.44,-4.74 L 41,412.27 c 0.06,-0.45 0.3,-0.81 0.75,-0.81 0.6,0 0.96,0.54 0.96,1.47 0,1.5 -0.6,2.34 -1.56,2.52 l 0.12,3.99 c 2.79,-0.27 4.5,-2.55 4.5,-6.42 0,-3.75 -1.89,-6.06 -4.53,-6.06 z" />
		<rect
   id="rect947"
   height="5.1599998"
   width="5.1599998"
   y="423.76001"
   x="32.029999" />
		<path
   inkscape:connector-curvature="0"
   id="path949"
   d="m 38.72,433.12 c -4.17,0 -7.05,2.94 -7.05,7.32 0,4.35 2.88,7.32 7.05,7.32 4.14,0 7.05,-2.97 7.05,-7.32 0,-4.38 -2.91,-7.32 -7.05,-7.32 z m 0,9.75 c -2.01,0 -3.39,-0.75 -3.39,-2.43 0,-1.71 1.38,-2.43 3.39,-2.43 2.01,0 3.39,0.72 3.39,2.43 0,1.68 -1.38,2.43 -3.39,2.43 z" />
		<path
   inkscape:connector-curvature="0"
   id="path951"
   d="m 45.26,460.06 c 0.27,-0.33 0.51,-1.05 0.51,-1.86 0,-1.77 -1.23,-3.18 -2.73,-3.66 h 2.37 v -4.86 H 32.03 v 4.86 h 6.12 c 2.25,0 3.09,1.11 3.09,2.91 0,0.93 -0.18,1.65 -0.57,2.31 z" />
		<path
   inkscape:connector-curvature="0"
   id="path953"
   d="m 44.69,471.82 c 0.69,-1.14 1.08,-2.67 1.08,-4.29 0,-3.75 -1.74,-6.45 -4.59,-6.45 -1.47,0 -2.61,0.72 -3.39,1.92 -0.54,-1.44 -1.53,-2.28 -2.82,-2.28 -1.14,0 -2.22,0.72 -2.61,1.92 -0.12,-1.5 -1.05,-2.55 -2.22,-2.55 -2.52,0 -3.27,3.3 -3.27,7.11 0,4.35 1.53,8.4 4.86,8.4 2.25,0 3.84,-1.53 3.84,-4.56 v -5.55 c 0,-0.81 0.36,-1.14 0.81,-1.14 0.27,0 0.48,0.09 0.63,0.27 -0.27,0.87 -0.39,1.83 -0.39,2.91 0,3.78 1.74,6.51 4.56,6.51 0.63,0 1.2,-0.15 1.71,-0.42 0.15,0.66 0.21,1.38 0.21,1.95 h 3.66 c 0,-1.47 -0.96,-2.94 -2.07,-3.75 z M 31.43,469.9 c 0,0.81 -0.21,1.23 -0.78,1.23 -0.81,0 -1.26,-1.65 -1.26,-3.9 0,-1.8 0.27,-3.15 1.23,-3.15 0.51,0 0.81,0.36 0.81,0.9 z m 9.75,-0.9 c -1.2,0 -1.95,-0.6 -1.95,-1.41 0,-0.81 0.75,-1.41 1.95,-1.41 1.17,0 1.92,0.6 1.92,1.41 0,0.81 -0.75,1.41 -1.92,1.41 z" />
	</g>
</svg>