<?xml version="1.0" encoding="utf-8"?>
<!-- Generator: Adobe Illustrator 23.1.1, SVG Export Plug-In . SVG Version: 6.00 Build 0)  -->
<svg version="1.1" xmlns="http://www.w3.org/2000/svg" xmlns:xlink="http://www.w3.org/1999/xlink" x="0px" y="0px"
	 viewBox="0 0 792 612" style="enable-background:new 0 0 792 612;" xml:space="preserve">
<style type="text/css">
	.st0{display:none;}
	.st1{display:inline;}
	.st2{display:inline;fill:#FFD600;}
	.st3{display:inline;fill:#FFFFFF;}
	.st4{fill:#FFFFFF;stroke:#000000;stroke-width:13.497;stroke-linecap:round;stroke-linejoin:round;stroke-miterlimit:10;}
	.st5{fill:#FFFFFF;}
	.st6{stroke:#000000;stroke-width:18.3348;stroke-linecap:round;stroke-miterlimit:10;}
	.st7{fill:none;stroke:#000000;stroke-width:13.497;stroke-linecap:round;stroke-linejoin:round;stroke-miterlimit:10;}
	.st8{stroke:#000000;stroke-width:18.3348;stroke-linecap:round;stroke-linejoin:round;stroke-miterlimit:10;}
	.st9{fill:#FFFFFF;stroke:#000000;stroke-width:13.497;stroke-miterlimit:10;}
	.st10{fill:none;stroke:#000000;stroke-width:13.497;stroke-miterlimit:10;}
	.st11{fill:none;stroke:#000000;stroke-width:30.5612;stroke-linecap:round;stroke-linejoin:round;stroke-miterlimit:10;}
	.st12{fill:#FFFFFF;stroke:#000000;stroke-width:16.2993;stroke-linecap:round;stroke-linejoin:round;stroke-miterlimit:10;}
	.st13{fill:#FFFFFF;stroke:#000000;stroke-width:16;stroke-linecap:round;stroke-linejoin:round;stroke-miterlimit:10;}
	.st14{font-family:'FoundersGrotesk-Bold';}
	.st15{font-size:273.3028px;}
	.st16{font-size:134.2032px;}
	.st17{font-size:122.8135px;}
	.st18{fill:#FFFFFF;stroke:#000000;stroke-width:11.7326;stroke-linecap:round;stroke-linejoin:round;stroke-miterlimit:10;}
	.st19{fill:#FFFFFF;stroke:#000000;stroke-width:13.2623;stroke-linecap:round;stroke-linejoin:round;stroke-miterlimit:10;}
	.st20{fill:#FFFFFF;stroke:#000000;stroke-width:13.2623;stroke-linecap:round;stroke-miterlimit:10;}
	.st21{stroke:#000000;stroke-width:4.5213;stroke-miterlimit:10;}
	.st22{fill:#FFFFFF;stroke:#000000;stroke-width:14;stroke-linecap:round;stroke-linejoin:round;stroke-miterlimit:10;}
	.st23{fill:#FFFFFF;stroke:#000000;stroke-width:16.6693;stroke-miterlimit:10;}
	.st24{stroke:#000000;stroke-width:16.6693;stroke-linecap:round;stroke-miterlimit:10;}
	.st25{fill:#FFFFFF;stroke:#000000;stroke-width:13.497;stroke-linecap:round;stroke-miterlimit:10;}
	.st26{fill:none;stroke:#000000;stroke-width:13.497;stroke-linecap:round;stroke-miterlimit:10;}
	.st27{fill:#FFFFFF;stroke:#000000;stroke-width:15.2362;stroke-linecap:round;stroke-linejoin:round;stroke-miterlimit:10;}
	.st28{fill:#FFFFFF;stroke:#000000;stroke-width:14.8467;stroke-linecap:round;stroke-linejoin:round;stroke-miterlimit:10;}
	.st29{stroke:#000000;stroke-width:20.1683;stroke-linecap:round;stroke-miterlimit:10;}
	.st30{fill:none;stroke:#000000;stroke-width:14.8467;stroke-linecap:round;stroke-linejoin:round;stroke-miterlimit:10;}
	.st31{fill:#FFFFFF;stroke:#000000;stroke-width:12.2439;stroke-linecap:round;stroke-linejoin:round;stroke-miterlimit:10;}
	.st32{fill:none;stroke:#000000;stroke-width:11.5;stroke-linecap:round;stroke-linejoin:round;stroke-miterlimit:10;}
	.st33{fill:#FFFFFF;stroke:#000000;stroke-width:11.5;stroke-linecap:round;stroke-linejoin:round;stroke-miterlimit:10;}
	.st34{font-size:30px;}
	.st35{font-size:28px;}
	.st36{font-size:15px;}
	.st37{fill:#FFFFFF;stroke:#000000;stroke-width:15.3;stroke-linecap:round;stroke-linejoin:round;stroke-miterlimit:10;}
	
		.st38{display:inline;fill:#FFFFFF;stroke:#000000;stroke-width:15.3;stroke-linecap:round;stroke-linejoin:round;stroke-miterlimit:10;}
	.st39{fill:#FFFFFF;stroke:#FFFFFF;stroke-width:3;stroke-miterlimit:10;}
	.st40{fill:#FFFFFF;stroke:#000000;stroke-width:13.3058;stroke-linecap:round;stroke-linejoin:round;stroke-miterlimit:10;}
	.st41{fill:#06F6FC;}
	.st42{display:inline;fill:#FF9C1A;}
	.st43{fill:#FFFFFF;stroke:#000000;stroke-width:15.2517;stroke-linecap:round;stroke-linejoin:round;stroke-miterlimit:10;}
	.st44{stroke:#000000;stroke-width:3;stroke-miterlimit:10;}
	.st45{fill:#06DCFF;}
	.st46{fill:#FFD600;}
	.st47{fill:#F9415C;}
	.st48{fill:#7D7DFF;}
	.st49{fill:#A8D600;}
	.st50{fill:#FF9C1A;}
	.st51{fill:#FF00A9;}
	
		.st52{display:inline;fill:#FFFFFF;stroke:#000000;stroke-width:14;stroke-linecap:round;stroke-linejoin:round;stroke-miterlimit:10;}
	.st53{fill:none;stroke:#000000;stroke-width:10;stroke-linecap:round;stroke-linejoin:round;stroke-miterlimit:10;}
	.st54{fill:#FFFFFF;stroke:#000000;stroke-width:12.3365;stroke-linecap:round;stroke-linejoin:round;stroke-miterlimit:10;}
	.st55{fill:none;stroke:#000000;stroke-width:13.3073;stroke-linecap:round;stroke-linejoin:round;stroke-miterlimit:10;}
	.st56{fill:#FFFFFF;stroke:#000000;stroke-width:13.3073;stroke-linecap:round;stroke-linejoin:round;stroke-miterlimit:10;}
	.st57{stroke:#000000;stroke-width:13.3073;stroke-linecap:round;stroke-linejoin:round;stroke-miterlimit:10;}
	.st58{stroke:#FFFFFF;stroke-width:13.3073;stroke-linecap:round;stroke-linejoin:round;stroke-miterlimit:10;}
	.st59{fill:#FFFFFF;stroke:#000000;stroke-width:10;stroke-linecap:round;stroke-linejoin:round;stroke-miterlimit:10;}
	.st60{fill:#FFFFFF;stroke:#000000;stroke-width:15;stroke-linecap:round;stroke-linejoin:round;stroke-miterlimit:10;}
	.st61{fill:none;stroke:#000000;stroke-width:15;stroke-linecap:round;stroke-linejoin:round;stroke-miterlimit:10;}
	.st62{display:inline;fill:none;stroke:#000000;stroke-width:15;stroke-linecap:round;stroke-linejoin:round;stroke-miterlimit:10;}
	
		.st63{display:inline;fill:#FFFFFF;stroke:#000000;stroke-width:15;stroke-linecap:round;stroke-linejoin:round;stroke-miterlimit:10;}
	.st64{stroke:#FFFFFF;stroke-width:15;stroke-linecap:round;stroke-linejoin:round;stroke-miterlimit:10;}
	
		.st65{display:inline;fill:none;stroke:#000000;stroke-width:13.7295;stroke-linecap:round;stroke-linejoin:round;stroke-miterlimit:10;}
	.st66{fill:#FFFFFF;stroke:#000000;stroke-width:12.7279;stroke-linecap:round;stroke-linejoin:round;stroke-miterlimit:10;}
	.st67{fill:#FFFFFF;stroke:#000000;stroke-width:13.7295;stroke-linecap:round;stroke-linejoin:round;stroke-miterlimit:10;}
	.st68{fill:none;stroke:#000000;stroke-width:12.7279;stroke-linecap:round;stroke-linejoin:round;stroke-miterlimit:10;}
	.st69{clip-path:url(#SVGID_4_);}
	.st70{stroke:#FFFFFF;stroke-width:13.7894;stroke-linecap:round;stroke-linejoin:round;stroke-miterlimit:10;}
	.st71{fill:none;}
	.st72{fill:none;stroke:#000000;stroke-width:13.7295;stroke-linecap:round;stroke-linejoin:round;stroke-miterlimit:10;}
	.st73{clip-path:url(#SVGID_6_);}
</style>
<g id="Layer_1" class="st0">
</g>
<g id="Layer_2" class="st0">
	<g class="st1">
		<g>
			<text transform="matrix(1 0 0 1 53.5563 221.4258)" class="st14 st15">HEAL</text>
		</g>
		<text transform="matrix(1 0 0 1 10.7096 504.0596)" class="st14 st16">TAX the Rich</text>
		<text transform="matrix(1 0 0 1 180.2213 362.7773)" class="st14 st17">the Sick</text>
	</g>
	<g class="st1">
		<text transform="matrix(1 0 0 1 235.3669 575.0923)"><tspan x="0" y="0" class="st14 st34">Capitalism</tspan><tspan x="140.91" y="0" class="st14 st35"> </tspan><tspan x="145.95" y="0" class="st14 st34">Is</tspan><tspan x="167.76" y="0" class="st14 st35"> </tspan><tspan x="172.8" y="0" class="st14 st34">A</tspan><tspan x="193.56" y="0" class="st14 st36"> </tspan><tspan x="196.26" y="0" class="st14 st34">Virus</tspan><tspan x="265.68" y="0" class="st14 st36"> </tspan><tspan x="268.38" y="0" class="st14 st34">.</tspan><tspan x="275.34" y="0" class="st14 st36"> </tspan><tspan x="278.04" y="0" class="st14 st34">org</tspan></text>
	</g>
</g>
<g id="Layer_2_copy">
	<g>
		<polygon class="st71" points="418.41,562.04 416.25,567.62 420.69,567.62 418.53,562.04 		"/>
		<path class="st71" d="M311.91,571.13c0,0.69,0.54,1.14,1.35,1.14c1.38,0,2.49-1.02,2.49-2.76v-0.21l-1.98,0.36
			C312.6,569.9,311.91,570.26,311.91,571.13z"/>
		<polygon class="st71" points="490.29,102.54 470.61,153.37 511.06,153.37 491.38,102.54 		"/>
		<path class="st71" d="M324.4,320.77c-6.39,0-9.21,3.93-9.95,9.09h19.28C333.49,324.95,330.3,320.77,324.4,320.77z"/>
		<path class="st71" d="M280.2,565.13c-1.65,0-2.7,1.26-2.7,3.18v0.18c0,1.95,1.05,3.21,2.7,3.21c1.89,0,2.76-1.35,2.76-3.3
			C282.96,566.48,282.09,565.13,280.2,565.13z"/>
		<path class="st71" d="M260.73,571.13c0,0.69,0.54,1.14,1.35,1.14c1.38,0,2.49-1.02,2.49-2.76v-0.21l-1.98,0.36
			C261.42,569.9,260.73,570.26,260.73,571.13z"/>
		<polygon class="st71" points="138.27,445.68 128.61,470.64 148.47,470.64 138.81,445.68 		"/>
		<path class="st71" d="M521.4,565.01c-1.71,0-2.43,1.38-2.43,3.39c0,2.01,0.72,3.39,2.43,3.39c1.68,0,2.43-1.38,2.43-3.39
			C523.83,566.39,523.08,565.01,521.4,565.01z"/>
		<path class="st71" d="M548.55,567.89c0.81,0,1.41-0.75,1.41-1.95c0-1.17-0.6-1.92-1.41-1.92c-0.81,0-1.41,0.75-1.41,1.92
			C547.14,567.14,547.74,567.89,548.55,567.89z"/>
		<path class="st71" d="M457.4,458.16c-6.98,0-10.06,4.29-10.87,9.93h21.07C467.33,462.73,463.84,458.16,457.4,458.16z"/>
		<path class="st71" d="M560.46,437.76h-16.24v20.67h16.24c9.66,0,14.49-2.42,14.49-10.2C574.96,441.39,570.12,437.76,560.46,437.76
			z"/>
		<path class="st71" d="M550.86,575.69h-4.92c-0.54,0-0.9,0.3-0.9,0.81c0,0.96,1.35,1.23,3.15,1.23c2.25,0,3.9-0.45,3.9-1.26
			C552.09,575.9,551.67,575.69,550.86,575.69z"/>
		<polygon points="228.19,49.25 181.73,49.25 181.73,115.66 113.14,115.66 113.14,49.25 66.67,49.25 66.67,221.43 113.14,221.43 
			113.14,153.37 181.73,153.37 181.73,221.43 228.19,221.43 		"/>
		<polygon points="389.99,183.16 300.07,183.16 300.07,153.37 367.58,153.37 367.58,115.66 300.07,115.66 300.07,87.51 
			387.53,87.51 387.53,49.25 254.43,49.25 254.43,221.43 389.99,221.43 		"/>
		<path d="M537.3,221.43h49.47l-68.6-172.18h-51.93l-68.6,172.18h46.73l12.85-33.34h67.23L537.3,221.43z M470.61,153.37l19.68-50.83
			h1.09l19.68,50.83H470.61z"/>
		<polygon points="731.61,183.16 646.34,183.16 646.34,49.25 599.88,49.25 599.88,221.43 731.61,221.43 		"/>
		<polygon points="100.83,419.51 19.77,419.51 19.77,438.3 48.75,438.3 48.75,504.06 71.44,504.06 71.44,438.3 100.83,438.3 		"/>
		<path d="M276.36,504.06l-32.48-44.55l30.06-39.99h-25.1l-17.04,23.75l-17.04-23.75h-26.71l30.06,41.33l-32.48,43.21l-33.68-84.55
			h-25.5l-33.68,84.55h22.95l6.31-16.37h33.01l6.31,16.37h24.29h0h25.1l19.32-26.97l19.59,26.97H276.36z M128.61,470.64l9.66-24.96
			h0.54l9.66,24.96H128.61z"/>
		<path d="M316.35,427.7l-2.01,7.78c-1.48,5.5-3.35,8.72-9.39,9.66l-4.43,0.67v13.42h8.05v28.18c0,14.09,9.53,18.25,19.59,18.25
			c8.19,0,13.42-2.01,17.98-5.37v-14.09c-3.62,1.48-6.58,2.01-9.26,2.01c-4.43,0-6.84-2.01-6.84-7.11v-21.88h15.57v-15.03h-15.57
			V427.7H316.35z"/>
		<path d="M395.4,472.25v31.81h21.74v-37.58c0-12.48-5.23-23.89-21.61-23.89c-8.99,0-16.1,4.03-19.32,10.6v-33.68h-21.74v84.55
			h21.74v-29.39c0-8.99,2.95-14.9,10.33-14.9C393.11,459.77,395.4,464.07,395.4,472.25z"/>
		<path d="M487.86,484.33l-17.45-1.61c-2.01,4.7-5.77,6.71-11.68,6.71c-6.58,0-11.94-3.49-12.48-10.87h42v-6.04
			c0-16.24-10.6-29.93-30.6-29.93c-18.65,0-32.61,13.55-32.61,32.48c0,19.06,13.69,30.6,32.88,30.6
			C473.77,505.67,484.77,498.02,487.86,484.33z M457.4,458.16c6.44,0,9.93,4.56,10.2,9.93h-21.07
			C447.33,462.46,450.42,458.16,457.4,458.16z"/>
		<path d="M579.25,468.09c10.33-1.34,17.98-9.39,17.98-21.74c0-16.51-10.87-26.84-32.75-26.84h-42.68v84.55h22.41v-28.05h15.17
			c7.65,0,11.81,2.15,12.48,11.81c0.67,8.72,1.74,13.96,3.49,16.24h23.08c-2.82-3.09-3.22-6.84-4.43-19.46
			C593.07,474.8,587.97,469.84,579.25,468.09z M560.46,458.43h-16.24v-20.67h16.24c9.66,0,14.49,3.62,14.49,10.47
			C574.96,456.02,570.12,458.43,560.46,458.43z"/>
		<rect x="606.63" y="419.51" width="22.01" height="19.06"/>
		<rect x="606.76" y="444.21" width="21.74" height="59.85"/>
		<path d="M670.1,458.97c6.31,0,9.93,3.49,11.41,10.87l17.85-1.21c-1.48-14.36-11.54-26.04-29.52-26.04
			c-18.92,0-32.75,12.61-32.75,31.54c0,19.06,13.82,31.54,32.75,31.54c17.98,0,28.05-11.54,29.52-26.04l-17.85-1.34
			c-1.48,7.38-5.1,11-11.41,11c-6.58,0-11.14-4.43-11.14-15.17S663.53,458.97,670.1,458.97z"/>
		<path d="M748.75,442.6c-8.99,0-16.1,4.03-19.32,10.6v-33.68h-21.74v84.55h21.74v-29.39c0-8.99,2.95-14.9,10.33-14.9
			c6.58,0,8.86,4.29,8.86,12.48v31.81h21.74v-37.58C770.35,454,765.12,442.6,748.75,442.6z"/>
		<path d="M206.14,364.25c7.49,0,12.28-1.84,16.46-4.91v-12.9c-3.32,1.35-6.02,1.84-8.47,1.84c-4.05,0-6.26-1.84-6.26-6.51v-20.02
			h14.25V308h-14.25v-15.11h-12.53l-1.84,7.12c-1.35,5.04-3.07,7.98-8.6,8.84l-4.05,0.61v12.28h7.37v25.79
			C188.2,360.44,196.92,364.25,206.14,364.25z"/>
		<path d="M287.56,362.78v-34.39c0-11.42-4.79-21.86-19.77-21.86c-8.23,0-14.74,3.68-17.69,9.7V285.4h-19.9v77.38h19.9v-26.9
			c0-8.23,2.7-13.63,9.46-13.63c6.02,0,8.11,3.93,8.11,11.42v29.11H287.56z"/>
		<path d="M324.65,306.53c-17.07,0-29.84,12.41-29.84,29.72c0,17.44,12.53,28,30.09,28c14.49,0,24.56-7,27.39-19.53l-15.97-1.47
			c-1.84,4.3-5.28,6.14-10.69,6.14c-6.02,0-10.93-3.19-11.42-9.95h38.44v-5.53C352.65,319.05,342.95,306.53,324.65,306.53z
			 M314.45,329.86c0.74-5.16,3.56-9.09,9.95-9.09c5.9,0,9.09,4.18,9.33,9.09H314.45z"/>
		<path d="M415.9,347.79c-8.6,0-16.09-3.32-16.83-13.02l-19.16,0.61c0,18.67,14.98,28.86,35.99,28.86c18.05,0,32.3-8.23,32.3-24.69
			c0-12.65-7.37-21.12-23.58-23.95L410,313.04c-4.79-0.86-7.74-2.21-7.74-5.77c0-4.3,3.93-7,10.81-7c7.98,0,13.76,3.68,14.37,11.67
			l19.16-0.37c-0.37-17.19-11.91-27.63-33.28-27.63c-19.28,0-31.56,9.46-31.56,25.18c0,13.51,8.84,20.63,21.49,22.97l14.12,2.46
			c5.9,1.11,10.44,1.84,10.44,6.39C427.81,345.21,423.14,347.79,415.9,347.79z"/>
		<rect x="455.93" y="285.4" width="20.14" height="17.44"/>
		<rect x="456.05" y="308" width="19.9" height="54.78"/>
		<path d="M540.8,340.42l-16.33-1.23c-1.35,6.75-4.67,10.07-10.44,10.07c-6.02,0-10.19-4.05-10.19-13.88
			c0-9.83,4.18-13.88,10.19-13.88c5.77,0,9.09,3.19,10.44,9.95l16.33-1.11c-1.35-13.14-10.56-23.83-27.02-23.83
			c-17.32,0-29.97,11.54-29.97,28.86c0,17.44,12.65,28.86,29.97,28.86C530.23,364.25,539.45,353.69,540.8,340.42z"/>
		<polygon points="568.31,345.46 573.1,340.55 588.82,362.78 611.17,362.78 587.83,329.49 610.43,308 587.1,308 568.31,326.91 
			568.31,285.4 548.41,285.4 548.41,362.78 568.31,362.78 		"/>
		<path d="M245.7,560.36c2.94,0,4.08,1.95,4.38,4.05l4.89-0.18c-0.36-4.71-3.45-8.4-9.24-8.4c-5.52,0-9.69,3.99-9.69,9.81
			s4.17,9.81,9.69,9.81c5.79,0,8.88-3.66,9.24-8.37l-4.89-0.21c-0.3,2.1-1.44,4.05-4.38,4.05c-2.79,0-4.41-2.07-4.41-5.28
			S242.91,560.36,245.7,560.36z"/>
		<path d="M269.34,571.16v-4.56c0-3.72-2.61-5.25-6.15-5.25c-4.02,0-6.21,2.04-6.63,4.98l4.5,0.3c0.21-0.99,0.75-1.68,1.83-1.68
			c1.17,0,1.68,0.66,1.68,1.77v0.21l-3.75,0.63c-2.91,0.51-4.77,1.62-4.77,4.2c0,2.28,1.71,3.63,4.32,3.63
			c2.13,0,3.66-0.81,4.44-2.37c0.45,1.53,1.74,2.37,3.39,2.37c1.38,0,2.34-0.39,3.03-0.87v-2.58c-0.39,0.15-0.69,0.21-1.08,0.21
			C269.64,572.15,269.34,571.85,269.34,571.16z M264.57,569.51c0,1.74-1.11,2.76-2.49,2.76c-0.81,0-1.35-0.45-1.35-1.14
			c0-0.87,0.69-1.23,1.86-1.47l1.98-0.36V569.51z"/>
		<path d="M281.91,561.35c-2.25,0-3.75,1.08-4.41,2.67v-2.31h-4.86v18.18h4.86v-7.08c0.66,1.56,2.16,2.64,4.41,2.64
			c3.93,0,5.94-3.09,5.94-7.05C287.85,564.47,285.84,561.35,281.91,561.35z M280.2,571.7c-1.65,0-2.7-1.26-2.7-3.21v-0.18
			c0-1.92,1.05-3.18,2.7-3.18c1.89,0,2.76,1.35,2.76,3.27C282.96,570.35,282.09,571.7,280.2,571.7z"/>
		<rect x="289.77" y="561.71" width="4.86" height="13.38"/>
		<rect x="289.74" y="556.19" width="4.92" height="4.26"/>
		<path d="M302.55,569.96v-4.89h3.48v-3.36h-3.48v-3.69h-3.06l-0.45,1.74c-0.33,1.23-0.75,1.95-2.1,2.16l-0.99,0.15v3h1.8v6.3
			c0,3.15,2.13,4.08,4.38,4.08c1.83,0,3-0.45,4.02-1.2v-3.15c-0.81,0.33-1.47,0.45-2.07,0.45
			C303.09,571.55,302.55,571.1,302.55,569.96z"/>
		<path d="M320.52,571.16v-4.56c0-3.72-2.61-5.25-6.15-5.25c-4.02,0-6.21,2.04-6.63,4.98l4.5,0.3c0.21-0.99,0.75-1.68,1.83-1.68
			c1.17,0,1.68,0.66,1.68,1.77v0.21l-3.75,0.63c-2.91,0.51-4.77,1.62-4.77,4.2c0,2.28,1.71,3.63,4.32,3.63
			c2.13,0,3.66-0.81,4.44-2.37c0.45,1.53,1.74,2.37,3.39,2.37c1.38,0,2.34-0.39,3.03-0.87v-2.58c-0.39,0.15-0.69,0.21-1.08,0.21
			C320.82,572.15,320.52,571.85,320.52,571.16z M315.75,569.51c0,1.74-1.11,2.76-2.49,2.76c-0.81,0-1.35-0.45-1.35-1.14
			c0-0.87,0.69-1.23,1.86-1.47l1.98-0.36V569.51z"/>
		<rect x="323.82" y="556.19" width="4.86" height="18.9"/>
		<rect x="331.32" y="561.71" width="4.86" height="13.38"/>
		<rect x="331.29" y="556.19" width="4.92" height="4.26"/>
		<path d="M346.05,566.57l-2.61-0.45c-0.45-0.06-0.81-0.3-0.81-0.75c0-0.6,0.54-0.96,1.47-0.96c1.5,0,2.34,0.6,2.52,1.56l3.99-0.12
			c-0.27-2.79-2.55-4.5-6.42-4.5c-3.75,0-6.06,1.89-6.06,4.53c0,2.73,1.71,3.78,4.95,4.29l1.98,0.3c0.93,0.15,1.23,0.51,1.23,1.02
			c0,0.54-0.57,0.93-1.65,0.93c-1.47,0-2.37-0.63-2.55-1.74l-4.23,0.06c0.27,3.24,3.03,4.71,6.72,4.71c3.81,0,6.21-1.62,6.21-4.44
			C350.79,568.4,349.05,567.05,346.05,566.57z"/>
		<path d="M370.41,561.35c-2.25,0-3.84,1.14-4.56,2.64c-0.57-1.56-1.8-2.64-4.17-2.64c-2.01,0-3.45,0.9-4.17,2.37v-2.01h-4.86v13.38
			h4.86v-6.57c0-2.01,0.57-3.33,2.16-3.33c1.47,0,1.83,0.96,1.83,2.79v7.11h4.86v-6.57c0-2.01,0.54-3.33,2.16-3.33
			c1.47,0,1.8,0.96,1.8,2.79v7.11h4.86v-8.4C375.18,563.9,374.1,561.35,370.41,561.35z"/>
		<rect x="382.83" y="556.19" width="5.1" height="18.9"/>
		<path d="M397.92,566.57l-2.61-0.45c-0.45-0.06-0.81-0.3-0.81-0.75c0-0.6,0.54-0.96,1.47-0.96c1.5,0,2.34,0.6,2.52,1.56l3.99-0.12
			c-0.27-2.79-2.55-4.5-6.42-4.5c-3.75,0-6.06,1.89-6.06,4.53c0,2.73,1.71,3.78,4.95,4.29l1.98,0.3c0.93,0.15,1.23,0.51,1.23,1.02
			c0,0.54-0.57,0.93-1.65,0.93c-1.47,0-2.37-0.63-2.55-1.74l-4.23,0.06c0.27,3.24,3.03,4.71,6.72,4.71c3.81,0,6.21-1.62,6.21-4.44
			C402.66,568.4,400.92,567.05,397.92,566.57z"/>
		<path d="M415.77,556.19l-7.53,18.9h5.13l1.41-3.66h7.38l1.41,3.66H429l-7.53-18.9H415.77z M416.25,567.62l2.16-5.58h0.12
			l2.16,5.58H416.25z"/>
		<polygon points="441.84,568.76 441.72,568.76 437.04,556.19 431.7,556.19 438.96,575.09 444.33,575.09 451.59,556.19 
			446.52,556.19 		"/>
		<rect x="452.91" y="561.71" width="4.86" height="13.38"/>
		<rect x="452.88" y="556.19" width="4.92" height="4.26"/>
		<path d="M465.27,564.08v-2.37h-4.86v13.38h4.86v-6.12c0-2.25,1.11-3.09,2.91-3.09c0.93,0,1.65,0.18,2.31,0.57l0.3-4.59
			c-0.33-0.27-1.05-0.51-1.86-0.51C467.16,561.35,465.75,562.58,465.27,564.08z"/>
		<path d="M481.11,568.28c0,2.04-0.6,3.36-2.13,3.36c-1.47,0-1.98-0.99-1.98-2.79v-7.14h-4.86v8.43c0,2.79,1.11,5.31,4.77,5.31
			c2.01,0,3.48-0.87,4.2-2.37v2.01h4.86v-13.38h-4.86V568.28z"/>
		<path d="M495.84,566.57l-2.61-0.45c-0.45-0.06-0.81-0.3-0.81-0.75c0-0.6,0.54-0.96,1.47-0.96c1.5,0,2.34,0.6,2.52,1.56l3.99-0.12
			c-0.27-2.79-2.55-4.5-6.42-4.5c-3.75,0-6.06,1.89-6.06,4.53c0,2.73,1.71,3.78,4.95,4.29l1.98,0.3c0.93,0.15,1.23,0.51,1.23,1.02
			c0,0.54-0.57,0.93-1.65,0.93c-1.47,0-2.37-0.63-2.55-1.74l-4.23,0.06c0.27,3.24,3.03,4.71,6.72,4.71c3.81,0,6.21-1.62,6.21-4.44
			C500.58,568.4,498.84,567.05,495.84,566.57z"/>
		<rect x="504.72" y="569.93" width="5.16" height="5.16"/>
		<path d="M521.4,561.35c-4.38,0-7.32,2.91-7.32,7.05c0,4.17,2.94,7.05,7.32,7.05c4.35,0,7.32-2.88,7.32-7.05
			C528.72,564.26,525.75,561.35,521.4,561.35z M521.4,571.79c-1.71,0-2.43-1.38-2.43-3.39c0-2.01,0.72-3.39,2.43-3.39
			c1.68,0,2.43,1.38,2.43,3.39C523.83,570.41,523.08,571.79,521.4,571.79z"/>
		<path d="M535.5,564.08v-2.37h-4.86v13.38h4.86v-6.12c0-2.25,1.11-3.09,2.91-3.09c0.93,0,1.65,0.18,2.31,0.57l0.3-4.59
			c-0.33-0.27-1.05-0.51-1.86-0.51C537.39,561.35,535.98,562.58,535.5,564.08z"/>
		<path d="M552,571.55h-5.55c-0.81,0-1.14-0.36-1.14-0.81c0-0.27,0.09-0.48,0.27-0.63c0.87,0.27,1.83,0.39,2.91,0.39
			c3.78,0,6.51-1.74,6.51-4.56c0-0.63-0.15-1.2-0.42-1.71c0.66-0.15,1.38-0.21,1.95-0.21v-3.66c-1.47,0-2.94,0.96-3.75,2.07
			c-1.14-0.69-2.67-1.08-4.29-1.08c-3.75,0-6.45,1.74-6.45,4.59c0,1.47,0.72,2.61,1.92,3.39c-1.44,0.54-2.28,1.53-2.28,2.82
			c0,1.14,0.72,2.22,1.92,2.61c-1.5,0.12-2.55,1.05-2.55,2.22c0,2.52,3.3,3.27,7.11,3.27c4.35,0,8.4-1.53,8.4-4.86
			C556.56,573.14,555.03,571.55,552,571.55z M548.55,564.02c0.81,0,1.41,0.75,1.41,1.92c0,1.2-0.6,1.95-1.41,1.95
			c-0.81,0-1.41-0.75-1.41-1.95C547.14,564.77,547.74,564.02,548.55,564.02z M548.19,577.73c-1.8,0-3.15-0.27-3.15-1.23
			c0-0.51,0.36-0.81,0.9-0.81h4.92c0.81,0,1.23,0.21,1.23,0.78C552.09,577.28,550.44,577.73,548.19,577.73z"/>
	</g>
</g>
</svg>
