<?xml version="1.0" encoding="utf-8"?>
<!-- Generator: Adobe Illustrator 23.1.1, SVG Export Plug-In . SVG Version: 6.00 Build 0)  -->
<svg version="1.1" xmlns="http://www.w3.org/2000/svg" xmlns:xlink="http://www.w3.org/1999/xlink" x="0px" y="0px"
	 viewBox="0 0 792 612" style="enable-background:new 0 0 792 612;" xml:space="preserve">
<style type="text/css">
	.st0{display:none;}
	.st1{display:inline;}
	
		.st2{display:inline;fill:#FFFFFF;stroke:#000000;stroke-width:16;stroke-linecap:round;stroke-linejoin:round;stroke-miterlimit:10;}
	.st3{fill:#FFFFFF;stroke:#000000;stroke-width:16;stroke-linecap:round;stroke-linejoin:round;stroke-miterlimit:10;}
	.st4{font-family:'FoundersGrotesk-Bold';}
	.st5{font-size:98.7009px;}
	.st6{letter-spacing:4;}
	.st7{display:inline;fill:none;stroke:#000000;stroke-width:24;stroke-linejoin:round;stroke-miterlimit:10;}
	.st8{display:inline;fill:#FFFFFF;}
	.st9{fill:#FFFFFF;stroke:#000000;stroke-width:17;stroke-linecap:round;stroke-miterlimit:10;}
	.st10{fill:#FFFFFF;stroke:#000000;stroke-width:17;stroke-miterlimit:10;}
	.st11{stroke:#000000;stroke-width:16.0572;stroke-linecap:round;stroke-miterlimit:10;}
	.st12{fill:#FFFFFF;}
	.st13{fill:#FFFFFF;stroke:#000000;stroke-width:17.1072;stroke-linecap:round;stroke-linejoin:round;stroke-miterlimit:10;}
	.st14{stroke:#000000;stroke-width:17.1072;stroke-linecap:round;stroke-linejoin:round;stroke-miterlimit:10;}
	.st15{fill:#FFFFFF;stroke:#000000;stroke-width:14.7375;stroke-linecap:round;stroke-linejoin:round;stroke-miterlimit:10;}
	.st16{fill:none;stroke:#000000;stroke-width:14.7375;stroke-linecap:round;stroke-linejoin:round;stroke-miterlimit:10;}
	.st17{stroke:#000000;stroke-width:14.7375;stroke-linecap:round;stroke-linejoin:round;stroke-miterlimit:10;}
	.st18{fill:#FFFFFF;stroke:#000000;stroke-width:14.2911;stroke-linecap:round;stroke-linejoin:round;stroke-miterlimit:10;}
	.st19{fill:none;stroke:#000000;stroke-width:13.497;stroke-miterlimit:10;}
	.st20{fill:#FFFFFF;stroke:#000000;stroke-width:13.497;stroke-linecap:round;stroke-linejoin:round;stroke-miterlimit:10;}
	.st21{fill:#FFFFFF;stroke:#000000;stroke-width:13.497;stroke-miterlimit:10;}
	.st22{fill:#FFFFFF;stroke:#000000;stroke-width:14.7439;stroke-linecap:round;stroke-miterlimit:10;}
	.st23{fill:#FFFFFF;stroke:#000000;stroke-width:14.7439;stroke-miterlimit:10;}
	.st24{stroke:#000000;stroke-width:13.9262;stroke-linecap:round;stroke-miterlimit:10;}
	
		.st25{display:inline;fill:#FFFFFF;stroke:#000000;stroke-width:14.6942;stroke-linecap:round;stroke-linejoin:round;stroke-miterlimit:10;}
	.st26{fill:#FFFFFF;stroke:#000000;stroke-width:14.6942;stroke-linecap:round;stroke-linejoin:round;stroke-miterlimit:10;}
	.st27{fill:none;stroke:#000000;stroke-width:24;stroke-linejoin:round;stroke-miterlimit:10;}
	.st28{fill:none;stroke:#000000;stroke-width:30.5612;stroke-linecap:round;stroke-linejoin:round;stroke-miterlimit:10;}
	.st29{fill:#FFFFFF;stroke:#000000;stroke-width:16.2993;stroke-linecap:round;stroke-linejoin:round;stroke-miterlimit:10;}
	.st30{display:inline;fill:#FFFFFF;stroke:#000000;stroke-width:13.497;stroke-linecap:round;stroke-miterlimit:10;}
	
		.st31{display:inline;fill:none;stroke:#000000;stroke-width:13.497;stroke-linecap:round;stroke-linejoin:round;stroke-miterlimit:10;}
	
		.st32{display:inline;fill:#FFFFFF;stroke:#000000;stroke-width:13.497;stroke-linecap:round;stroke-linejoin:round;stroke-miterlimit:10;}
	
		.st33{display:inline;fill:url(#);stroke:#000000;stroke-width:13.497;stroke-linecap:round;stroke-linejoin:round;stroke-miterlimit:10;}
	.st34{fill:#FFFFFF;stroke:#000000;stroke-width:15.2362;stroke-linecap:round;stroke-linejoin:round;stroke-miterlimit:10;}
	.st35{fill:#FFFFFF;stroke:#000000;stroke-width:14.8467;stroke-linecap:round;stroke-linejoin:round;stroke-miterlimit:10;}
	.st36{stroke:#000000;stroke-width:20.1683;stroke-linecap:round;stroke-miterlimit:10;}
	.st37{fill:none;stroke:#000000;stroke-width:14.8467;stroke-linecap:round;stroke-linejoin:round;stroke-miterlimit:10;}
	.st38{fill:#FFFFFF;stroke:#FFFFFF;stroke-width:3;stroke-miterlimit:10;}
	.st39{display:inline;fill:none;stroke:#000000;stroke-width:15;stroke-linecap:round;stroke-linejoin:round;stroke-miterlimit:10;}
	
		.st40{display:inline;fill:#FFFFFF;stroke:#000000;stroke-width:15;stroke-linecap:round;stroke-linejoin:round;stroke-miterlimit:10;}
	.st41{fill:#FFFFFF;stroke:#000000;stroke-width:15;stroke-linecap:round;stroke-linejoin:round;stroke-miterlimit:10;}
	.st42{fill:#FFFFFF;stroke:#000000;stroke-width:11.7326;stroke-linecap:round;stroke-linejoin:round;stroke-miterlimit:10;}
	.st43{fill:#FFFFFF;stroke:#000000;stroke-width:13.2623;stroke-linecap:round;stroke-linejoin:round;stroke-miterlimit:10;}
	.st44{fill:none;stroke:#000000;stroke-width:16;stroke-linecap:round;stroke-miterlimit:10;}
	.st45{fill:url(#);stroke:#000000;stroke-width:16;stroke-linecap:round;stroke-linejoin:round;stroke-miterlimit:10;}
	.st46{fill:#FFFFFF;stroke:#000000;stroke-width:16;stroke-linecap:round;stroke-miterlimit:10;}
	.st47{fill:#FFFFFF;stroke:#000000;stroke-width:13.2623;stroke-linecap:round;stroke-miterlimit:10;}
	.st48{stroke:#000000;stroke-width:4.5213;stroke-miterlimit:10;}
	.st49{fill:none;stroke:#000000;stroke-width:15.2344;stroke-linecap:round;stroke-linejoin:round;stroke-miterlimit:10;}
	.st50{fill:#FFFFFF;stroke:#000000;stroke-width:15.2344;stroke-linecap:round;stroke-linejoin:round;stroke-miterlimit:10;}
	.st51{stroke:#000000;stroke-width:18.3348;stroke-linecap:round;stroke-miterlimit:10;}
	.st52{fill:none;stroke:#000000;stroke-width:13.497;stroke-linecap:round;stroke-linejoin:round;stroke-miterlimit:10;}
	.st53{fill:#FFFFFF;stroke:#000000;stroke-width:15;stroke-linecap:square;stroke-linejoin:round;stroke-miterlimit:10;}
	.st54{fill:#FFFFFF;stroke:#000000;stroke-width:15;stroke-linejoin:round;stroke-miterlimit:10;}
	.st55{fill:none;stroke:#000000;stroke-width:15;stroke-linecap:round;stroke-linejoin:round;stroke-miterlimit:10;}
	.st56{fill:url(#);stroke:#000000;stroke-width:13.497;stroke-linecap:round;stroke-linejoin:round;stroke-miterlimit:10;}
	.st57{font-size:20.6105px;}
	.st58{font-size:10.3052px;}
	.st59{font-size:19.2364px;}
	.st60{font-size:10px;}
	.st61{display:inline;fill:none;stroke:#000000;stroke-width:16;stroke-linecap:round;stroke-linejoin:round;stroke-miterlimit:10;}
	.st62{fill:#FFFFFF;stroke:#000000;stroke-width:13.3058;stroke-linecap:round;stroke-linejoin:round;stroke-miterlimit:10;}
	.st63{fill:#FFFFFF;stroke:#000000;stroke-width:17;stroke-linecap:round;stroke-linejoin:round;stroke-miterlimit:10;}
	.st64{fill:#FFFFFF;stroke:#000000;stroke-width:15.2517;stroke-linecap:round;stroke-linejoin:round;stroke-miterlimit:10;}
	.st65{stroke:#000000;stroke-width:3;stroke-miterlimit:10;}
	.st66{fill:none;}
	.st67{fill:#06A6FF;}
	.st68{fill:#FF0303;}
	.st69{fill:#3DFF06;}
	.st70{fill:none;stroke:#000000;stroke-width:0;stroke-linecap:round;stroke-linejoin:round;}
</style>
<g id="Layer_1" class="st0">
	<path class="st2" d="M527.45,408.41l-45.44-64.35c-6.85-9.71-20.73-11.7-30.99-4.45c-10.26,7.25-13.03,20.99-6.17,30.7l45.44,64.35
		"/>
	<path class="st2" d="M582.14,426.66c0,0-9.95-89.1-16.37-100.43c-6.55-11.55-14.51-13.79-25.63-15.7
		c-10.85-1.87-75.89-13.26-75.89-13.26c-10.81-1.96-21.74,8.58-23.81,20.02s4.62,24.61,15.44,26.57l60.56,10.97"/>
	<g class="st1">
		<path class="st3" d="M349.59,45.62c-26.5,7.44-74.43,44.94-111.49,70.29s-56.21,61.26-45.72,98.6s20.28,82.23,29.92,95.76
			c9.65,13.53,87.06,82.53,214.72,46.68S594.86,221.88,596.05,205.3c1.19-16.58-13.82-60-24.3-97.34s-45.53-58.03-90.37-60.38
			C436.54,45.24,376.09,38.18,349.59,45.62z"/>
	</g>
	<path class="st2" d="M359.66,78.38c-36.94,10.14-137.77,96.53-123.34,149.07s80.78,126.89,190.82,96.67
		c110.04-30.21,129.12-128.02,114.69-180.56C527.4,91.02,396.59,68.24,359.66,78.38z"/>
	<path class="st2" d="M437.25,291.29l-35.57,9.77c-11.57,3.18-23.53-3.63-26.7-15.2l-9.77-35.57c-3.18-11.57,3.63-23.53,15.2-26.7
		l35.57-9.77c11.57-3.18,23.53,3.63,26.7,15.2l9.77,35.57C455.62,276.16,448.82,288.11,437.25,291.29z"/>
	<text transform="matrix(0.9643 -0.2648 0.2648 0.9643 300.0066 218.4101)" class="st1 st4 st5 st6">N95</text>
	<path class="st7" d="M176.44,148.56l42.95,17.94"/>
	<path class="st7" d="M521.05,79.1l17.94-42.95"/>
	<path class="st7" d="M611.48,246.81l-44.2-14.6"/>
	<path class="st7" d="M292.65,333.6l-14.6,44.2"/>
	<polyline class="st8" points="468.03,464.06 535.69,395.68 570.48,446.12 557.92,471.9 	"/>
	<path class="st2" d="M582.14,475.72c10.11-19.76,7.17-36.63-3.6-58.81c-5.02-10.34-19.52-42.4-33.4-69.24
		c-7.36-14.24-11.88-21.03-21.56-29.84c-8.15-7.42-54.42-56.23-54.42-56.23c-9.87-10.33-24.4-16.57-36-7.71
		c-11.6,8.86-9.8,24.57-1.15,37.11L486,353.09l20.68,59.88"/>
	<path class="st2" d="M506.67,412.97c0,0-9.39,27.38-30.28,27.38c-14.96,0-32.15-15.82-32.15-15.82s-3.16-28.84-10.34-53.58
		c-9.9-34.14-26.63-38.8-45.21-34.2c-10.41,2.57-10.44,11.21-9.44,21.13c3.24,32.14,7.17,58.84,10.77,89.69
		c-11.13,65.99,18.64,122.06,18.64,122.06l-2.54,26.14"/>
	<path class="st2" d="M582.14,475.72c-18.7,41.07-63.61,108.79-63.61,108.79l0.73,11.27"/>
	<text transform="matrix(8.979319e-11 -1 1 8.979319e-11 26.8613 443.1503)" class="st1"><tspan x="0" y="0" class="st4 st57">www</tspan><tspan x="45.14" y="0" class="st4 st58"> </tspan><tspan x="46.99" y="0" class="st4 st57">.</tspan><tspan x="51.77" y="0" class="st4 st58"> </tspan><tspan x="53.63" y="0" class="st4 st57">Capitalism</tspan><tspan x="150.43" y="0" class="st4 st59"> </tspan><tspan x="153.9" y="0" class="st4 st57">Is</tspan><tspan x="168.88" y="0" class="st4 st59"> </tspan><tspan x="172.34" y="0" class="st4 st57">A</tspan><tspan x="186.6" y="0" class="st4 st58"> </tspan><tspan x="188.46" y="0" class="st4 st57">Virus</tspan><tspan x="236.15" y="0" class="st4 st58"> </tspan><tspan x="238.01" y="0" class="st4 st57">.</tspan><tspan x="242.79" y="0" class="st4 st58"> </tspan><tspan x="244.64" y="0" class="st4 st57">org</tspan></text>
	<text transform="matrix(0 1 -1 0 761.9292 209.1802)" class="st1"><tspan x="0" y="0" class="st4 st57">#</tspan><tspan x="12.7" y="0" class="st4 st60"> </tspan><tspan x="14.5" y="0" class="st4 st57">Capitalism</tspan><tspan x="111.3" y="0" class="st4 st60"> </tspan><tspan x="113.1" y="0" class="st4 st57">Is</tspan><tspan x="128.09" y="0" class="st4 st60"> </tspan><tspan x="129.89" y="0" class="st4 st57">A</tspan><tspan x="144.15" y="0" class="st4 st60"> </tspan><tspan x="145.95" y="0" class="st4 st57">Virus</tspan></text>
</g>
<g id="Layer_1_copy">
	<path class="st66" d="M451.81,420.5c5.46,4.47,16.24,11.85,24.58,11.85c0.79,0,1.56-0.07,2.34-0.19l-32.9-46.59
		C449.13,400.61,451.05,414.45,451.81,420.5z"/>
	<path class="st66" d="M23.03,369.46h-0.14l0.25,1.36c0.17,0.8,0.41,1.28,1.01,1.28c0.47,0,0.78-0.37,0.78-0.93
		C24.92,370.22,24.22,369.46,23.03,369.46z"/>
	<path class="st66" d="M23.03,334.3h-0.14l0.25,1.36c0.17,0.8,0.41,1.28,1.01,1.28c0.47,0,0.78-0.37,0.78-0.93
		C24.92,335.06,24.22,334.3,23.03,334.3z"/>
	<path class="st66" d="M27.83,176.77c0.66,0,0.85-0.93,0.85-2.16c0-1.55-0.31-2.68-0.87-2.68c-0.39,0-0.54,0.29-0.54,0.85v3.38
		C27.27,176.53,27.48,176.77,27.83,176.77z"/>
	<path class="st66" d="M20.57,175.33c0.82,0,1.34-0.41,1.34-0.97c0-0.56-0.52-0.97-1.34-0.97c-0.8,0-1.32,0.41-1.32,0.97
		C19.25,174.92,19.77,175.33,20.57,175.33z"/>
	<path class="st66" d="M22.26,194.68c1.38,0,2.33-0.49,2.33-1.67c0-1.15-0.95-1.67-2.33-1.67s-2.33,0.52-2.33,1.67
		C19.93,194.19,20.88,194.68,22.26,194.68z"/>
	<polygon class="st66" points="17.89,263.77 21.73,265.25 21.73,262.2 17.89,263.69 	"/>
	<path class="st66" d="M22.26,356.82c-1.32,0-2.25,0.6-2.25,1.9c0,1.13,0.87,1.86,2.18,1.86h0.12c1.34,0,2.21-0.72,2.21-1.86
		C24.53,357.42,23.6,356.82,22.26,356.82z"/>
	<polygon class="st66" points="767.41,216.17 769.43,216.66 769.43,214.89 767.41,214.4 	"/>
	<path class="st66" d="M765.76,243.69h0.14l-0.25-1.36c-0.16-0.8-0.41-1.28-1.01-1.28c-0.47,0-0.78,0.37-0.78,0.93
		C763.87,242.93,764.57,243.69,765.76,243.69z"/>
	<polygon class="st66" points="767.06,347.62 770.9,346.14 770.9,346.05 767.06,344.57 	"/>
	<path class="st66" d="M766.53,256.32c1.32,0,2.25-0.6,2.25-1.9c0-1.13-0.87-1.86-2.19-1.86h-0.12c-1.34,0-2.21,0.72-2.21,1.86
		C764.26,255.73,765.19,256.32,766.53,256.32z"/>
	<path class="st66" d="M765.76,278.85h0.14l-0.25-1.36c-0.16-0.8-0.41-1.28-1.01-1.28c-0.47,0-0.78,0.37-0.78,0.93
		C763.87,278.09,764.57,278.85,765.76,278.85z"/>
	<polygon points="326.94,146.54 336.06,179.75 303.53,152.96 288.11,157.2 304.57,217.16 319.42,213.08 309.67,177.58 
		345.31,205.97 358.25,202.42 341.79,142.46 	"/>
	<path d="M376.12,131.8c-13.61,3.74-21.27,14.23-17.72,27.18c3.14,11.42,13.13,17.27,26.27,13.67c5.81-1.59,10.18-5.05,12-9.23
		c1.83,8.91-0.42,15.98-7.08,17.81c-4.47,1.23-7.81-0.11-9.41-4.07l-14.96,4.41c4.43,11.68,14.67,16.14,27.61,12.58
		c17.42-4.78,22.66-20.35,17.64-38.62C405.25,136.5,392.97,127.18,376.12,131.8z M384.17,159.99c-5.33,1.46-9.24-0.84-10.54-5.6
		c-1.25-4.57,0.93-8.54,6.26-10.01c5.14-1.41,9.07,0.99,10.3,5.46C391.49,154.6,389.31,158.58,384.17,159.99z"/>
	<path d="M442.6,135.35c-5.23,1.44-8.1,3.66-9.75,5.85c-0.15-2.41-0.44-5.71-0.96-8.33l25.7-7.06l-3.87-14.09l-37.59,10.32
		c2.43,9.98,4.58,26.38,5.4,34.95l15.83-3.12c0.9-2.7,2.67-4.83,6.47-5.87c5.33-1.46,9.19,1.78,10.47,6.44
		c1.41,5.14-1.08,9.1-5.94,10.43c-5.04,1.38-9-0.7-10.5-5.82l-15.8,3.21c3.31,13.93,13.99,20.01,29.88,15.64
		c13.23-3.63,20.86-14.22,17.2-27.55C465.93,138.67,456.5,131.53,442.6,135.35z"/>
	<path d="M181.07,137.48l-9.25,22.15l14.79,6.18c-5.98,16.56-6.68,33.97-1.94,50.86c2.59,9.22,5.17,19.03,7.66,28.52
		c8.24,31.32,15.35,58.36,23.45,69.72c6.35,8.91,26.9,26.83,57.01,40.54l-6.14,18.59l22.79,7.53l5.76-17.43
		c18.85,6.1,42.68,10.95,70.87,10.95c2.29,0,4.62-0.04,6.96-0.11c1.56,13.81,3.22,26.9,4.85,39.65c1.34,10.55,2.73,21.45,4.06,32.75
		c-9.86,60.76,13.01,112.46,18.53,123.78L398.15,595c-0.43,4.4,2.79,8.31,7.19,8.74c0.26,0.03,0.52,0.04,0.78,0.04
		c4.07,0,7.55-3.09,7.95-7.23l1.8-18.52l0.74-7.62c0.15-1.56-0.16-3.14-0.9-4.52c-0.29-0.54-28.37-54.4-17.82-116.98
		c0.13-0.75,0.15-1.51,0.06-2.26c-1.38-11.78-2.82-23.1-4.21-34.04c-2.34-18.37-4.55-35.73-6.55-55.53
		c-1.15-11.44,0.47-11.84,3.4-12.57c12.32-3.05,26.25-3.6,35.61,28.67c6.89,23.75,10.04,51.94,10.07,52.22
		c0.21,1.92,1.11,3.7,2.54,5.01c1.99,1.84,19.99,17.93,37.57,17.93c26.3,0,37.39-31.45,37.85-32.78c0.03-0.08,0.04-0.15,0.07-0.23
		c0.05-0.15,0.09-0.29,0.13-0.44c0.03-0.11,0.05-0.23,0.07-0.34c0.03-0.14,0.06-0.28,0.08-0.42c0.02-0.12,0.03-0.25,0.04-0.37
		c0.01-0.14,0.03-0.27,0.03-0.41c0.01-0.13,0.01-0.25,0.01-0.38c0-0.13,0-0.27-0.01-0.4c-0.01-0.13-0.02-0.25-0.03-0.38
		c-0.01-0.13-0.03-0.27-0.05-0.4c-0.02-0.12-0.04-0.25-0.07-0.37c-0.03-0.14-0.05-0.27-0.09-0.41c-0.03-0.12-0.06-0.23-0.1-0.35
		c-0.03-0.1-0.05-0.2-0.09-0.31l-20.68-59.88c-0.33-0.97-0.85-1.87-1.53-2.64l-53.68-61.73c-9.18-13.59-4.55-22.64-0.33-25.86
		c1.81-1.38,11.55-7.56,25.34,6.85c1.9,2,46.56,49.11,54.84,56.65c8.93,8.13,12.96,14.3,19.84,27.6
		c10.04,19.42,20.42,41.61,27.29,56.3c2.59,5.53,4.63,9.9,6.02,12.75c10.45,21.53,11.7,34.89,4.47,50.06
		c-0.26,0.54-0.52,1.08-0.8,1.62c-0.03,0.05-0.05,0.11-0.07,0.17c-0.03,0.06-0.06,0.11-0.08,0.16
		c-18.22,40.01-62.55,107.01-62.99,107.68c-0.97,1.46-1.43,3.19-1.32,4.94l0.73,11.27c0.27,4.23,3.79,7.49,7.98,7.49
		c0.17,0,0.35-0.01,0.52-0.02c4.41-0.28,7.75-4.09,7.47-8.5l-0.55-8.59c8.08-12.3,45.63-70.11,62.69-107.55
		c10.4-20.51,8.17-38.09,0.3-57.01c-2.81-24.7-10.58-88.6-16.95-99.83c-6.78-11.96-15.22-16.09-24.74-18.34
		c9.04-8.75,16.42-17.35,22.36-25.23c6.95-9.21,12.69-18.42,17.35-27.12l20.02,6.61l7.53-22.79l-17.48-5.78
		c3.9-10.28,5.89-18.67,6.26-23.76c1-13.92-7.01-40.71-16.28-71.74c-2.81-9.4-5.71-19.12-8.3-28.34
		c-5.57-19.83-17.9-36.38-35.66-47.86c-0.23-0.15-0.47-0.29-0.71-0.44l6.98-16.72l-22.15-9.25l-6.51,15.6
		c-11.99-4.21-25.35-6.78-39.61-7.53c-10.22-0.54-21.09-1.31-32.6-2.12c-39.34-2.79-80.01-5.67-101.77,0.44h0
		c-21.75,6.11-54.98,29.75-87.12,52.61c-9.4,6.69-18.28,13-26.73,18.78c-14.94,10.22-27.15,22.18-35.94,35.1L181.07,137.48z
		 M476.39,432.35c-8.33,0-19.11-7.39-24.58-11.85c-0.76-6.04-2.68-19.89-5.98-34.93l32.9,46.59
		C477.96,432.28,477.18,432.35,476.39,432.35z M477.91,355.98l1.03,1.19l19.19,55.58c-1.02,2.3-2.83,5.94-5.45,9.5
		c-0.24,0.32-0.47,0.62-0.71,0.93l-40.59-57.49c-0.91-1.29-1.52-2.7-1.89-4.16c6.89-2.2,13.48-4.58,19.76-7.12L477.91,355.98z
		 M463.54,339.46c-8.91,3.61-18.45,6.9-28.69,9.78c-0.32,0.09-0.63,0.17-0.95,0.25c-3.68-6.71-7.99-11.88-12.97-15.55
		c2.74-0.64,5.5-1.33,8.31-2.1c7.63-2.09,14.76-4.49,21.46-7.13L463.54,339.46z M428.3,247.53c-11.79,9.01-14.42,24.63-7.46,39.96
		l-21.29,5.85c-7.3,2-14.87-2.3-16.87-9.6l-9.77-35.57c-0.97-3.54-0.51-7.24,1.31-10.42s4.76-5.48,8.29-6.45l35.57-9.77
		c1.21-0.33,2.43-0.49,3.63-0.49c6.03,0,11.57,4.01,13.24,10.09l3.16,11.49C434.66,243.57,431.36,245.2,428.3,247.53z
		 M495.65,277.81c-7.66-8.01-15.15-15.88-20.71-21.75c-6.29-6.58-13.21-10.96-20.12-13.04l-4.43-16.13
		c-4.34-15.81-20.73-25.13-36.54-20.79l-35.57,9.77c-7.66,2.1-14.04,7.06-17.96,13.96c-3.93,6.9-4.93,14.92-2.83,22.57l9.77,35.57
		c3.62,13.18,15.62,21.86,28.67,21.86c2.6,0,5.24-0.34,7.86-1.06l26.69-7.33l9.03,10.39c-4.61,1.65-9.43,3.2-14.49,4.59
		c-58.66,16.11-100.2,0.05-124.72-16.25c-32.22-21.43-50.2-52.7-56.27-74.83c-5.46-19.87,9.3-50.05,40.49-82.8
		c28.42-29.85,61.6-52.14,77.26-56.44c4.88-1.34,12.12-2.05,20.98-2.05c19.54,0,46.96,3.44,74.27,11.12
		c43.54,12.24,71.64,30.65,77.1,50.52c6.07,22.12,6.59,58.19-10.17,93.07C518.12,250.88,509.2,264.77,495.65,277.81z M558.8,330.17
		c2.07,3.79,5.33,21.72,8.64,44.48c-4.81-10.02-10.03-20.68-15.19-30.65c-5.87-11.34-10.31-18.73-17.35-26.25
		c1.64,0.28,2.96,0.51,3.88,0.67C549.07,320.18,554.07,321.83,558.8,330.17z M212.69,150.69c7.4-10.12,17.42-19.63,29.92-28.18
		c8.57-5.86,17.5-12.22,26.97-18.95c29.58-21.04,63.1-44.88,82.17-50.24c19.07-5.36,60.11-2.45,96.31,0.12
		c11.58,0.82,22.53,1.6,32.89,2.14c12.62,0.66,24.11,2.8,34.3,6.27l-5.28,12.64l22.15,9.25l4.69-11.24
		c13.45,9.24,22.82,21.97,27.22,37.64c2.62,9.34,5.55,19.13,8.38,28.59c8.08,27.05,16.44,55.01,15.65,66.01
		c-0.17,2.42-1.68,9.69-5.56,19.87l-11.46-3.78l-7.53,22.79l8.75,2.89c-3.94,7.12-8.78,14.75-14.7,22.59
		c-8.4,11.14-19.93,23.86-35.32,36.23c-4.15-4.2-9.6-9.81-15.49-15.93c15.12-14.57,25.09-30.12,31.61-43.7
		c15.86-33,20.04-71.97,11.18-104.24c-9.55-34.79-59.36-53.58-88.2-61.68c-39.21-11.02-82.87-14.85-103.81-9.1
		c-20.94,5.75-56.52,31.33-84.61,60.83c-20.66,21.69-53.88,63.29-44.33,98.07c8.86,32.27,32.35,63.64,62.84,83.92
		c18.59,12.37,45.91,24.62,81.83,25.57c-3.29,6.65-2.48,14.72-1.99,19.62c0.01,0.11,0.02,0.22,0.03,0.33
		c-28.52,0.65-52.45-4.04-71.1-10.07l3.82-11.57l-22.79-7.53l-3.41,10.32c-29.69-13.81-46.29-30.69-49.03-34.54
		c-6.4-8.98-13.82-37.21-21-64.5c-2.51-9.55-5.11-19.43-7.73-28.77c-3.82-13.6-3.28-27.26,1.28-40.37l13.41,5.6l9.25-22.15
		L212.69,150.69z"/>
	<polygon points="26.86,404.1 26.86,400.82 17.67,397.92 17.67,400.93 22.88,402.58 22.88,402.66 17.67,404 17.67,406.66 22.88,408 
		22.88,408.08 17.67,409.73 17.67,412.96 17.67,413.05 17.67,415.97 22.88,417.62 22.88,417.7 17.67,419.04 17.67,421.7 
		22.88,423.04 22.88,423.13 17.67,424.78 17.67,428.01 17.67,428.09 17.67,431.02 22.88,432.67 22.88,432.75 17.67,434.09 
		17.67,436.75 22.88,438.09 22.88,438.17 17.67,439.82 17.67,443.14 26.86,440.23 26.86,436.96 21.67,435.62 21.67,435.53 
		26.86,434.19 26.86,430.92 17.8,428.05 26.86,425.19 26.86,421.91 21.67,420.57 21.67,420.49 26.86,419.15 26.86,415.87 
		17.8,413.01 26.86,410.14 26.86,406.86 21.67,405.52 21.67,405.44 	"/>
	<rect x="23.32" y="391.94" width="3.55" height="3.55"/>
	<path d="M20.37,389.06c4,0,6.74-2.87,6.74-6.66c0-3.98-2.51-6.1-5.75-6.35l-0.14,3.36c1.44,0.21,2.78,0.99,2.78,3.01
		c0,1.92-1.42,3.03-3.63,3.03s-3.63-1.11-3.63-3.03c0-2.02,1.34-2.8,2.78-3.01l-0.12-3.36c-3.24,0.25-5.77,2.37-5.77,6.35
		C13.63,386.19,16.37,389.06,20.37,389.06z"/>
	<path d="M27.07,366.96c0-0.95-0.27-1.61-0.6-2.08H24.7c0.1,0.27,0.14,0.47,0.14,0.74c0,0.35-0.21,0.56-0.68,0.56h-3.13
		c-2.56,0-3.61,1.79-3.61,4.23c0,2.76,1.4,4.27,3.42,4.56l0.21-3.09c-0.68-0.14-1.15-0.52-1.15-1.26c0-0.8,0.45-1.15,1.22-1.15h0.14
		l0.43,2.58c0.35,2,1.11,3.28,2.89,3.28c1.57,0,2.49-1.17,2.49-2.97c0-1.46-0.56-2.52-1.63-3.05
		C26.49,368.98,27.07,368.1,27.07,366.96z M24.14,372.1c-0.6,0-0.85-0.47-1.01-1.28l-0.25-1.36h0.14c1.2,0,1.9,0.76,1.9,1.71
		C24.92,371.72,24.61,372.1,24.14,372.1z"/>
	<path d="M30.16,360.57h-4.86c1.07-0.45,1.81-1.48,1.81-3.03c0-2.7-2.12-4.08-4.84-4.08c-2.7,0-4.84,1.38-4.84,4.08
		c0,1.55,0.74,2.58,1.83,3.03h-1.59v3.34h12.49V360.57z M22.33,360.57H22.2c-1.32,0-2.18-0.72-2.18-1.86c0-1.3,0.93-1.9,2.25-1.9
		c1.34,0,2.27,0.6,2.27,1.9C24.53,359.85,23.67,360.57,22.33,360.57z"/>
	<rect x="17.67" y="348.81" width="9.19" height="3.34"/>
	<rect x="13.87" y="348.79" width="2.93" height="3.38"/>
	<path d="M15.13,345.47l1.2,0.31c0.85,0.23,1.34,0.52,1.48,1.44l0.1,0.68h2.06v-1.24h4.33c2.16,0,2.8-1.46,2.8-3.01
		c0-1.26-0.31-2.06-0.82-2.76h-2.16c0.23,0.56,0.31,1.01,0.31,1.42c0,0.68-0.31,1.05-1.09,1.05h-3.36v-2.39h-2.31v2.39h-2.54V345.47
		z"/>
	<path d="M24.16,331.02h-3.13c-2.56,0-3.61,1.79-3.61,4.23c0,2.76,1.4,4.27,3.42,4.56l0.21-3.09c-0.68-0.14-1.15-0.52-1.15-1.26
		c0-0.8,0.45-1.15,1.22-1.15h0.14l0.43,2.58c0.35,2,1.11,3.28,2.89,3.28c1.57,0,2.49-1.17,2.49-2.97c0-1.46-0.56-2.52-1.63-3.05
		c1.05-0.31,1.63-1.2,1.63-2.33c0-0.95-0.27-1.61-0.6-2.08H24.7c0.1,0.27,0.14,0.47,0.14,0.74
		C24.84,330.81,24.63,331.02,24.16,331.02z M24.92,336.01c0,0.56-0.31,0.93-0.78,0.93c-0.6,0-0.85-0.47-1.01-1.28l-0.25-1.36h0.14
		C24.22,334.3,24.92,335.06,24.92,336.01z"/>
	<rect x="13.87" y="325.41" width="12.99" height="3.34"/>
	<rect x="17.67" y="320.26" width="9.19" height="3.34"/>
	<rect x="13.87" y="320.24" width="2.93" height="3.38"/>
	<path d="M20.53,318.92c1.88,0,2.6-1.17,2.95-3.4l0.21-1.36c0.1-0.64,0.35-0.85,0.7-0.85c0.37,0,0.64,0.39,0.64,1.13
		c0,1.01-0.43,1.63-1.2,1.75l0.04,2.91c2.23-0.19,3.24-2.08,3.24-4.62c0-2.62-1.11-4.27-3.05-4.27c-1.79,0-2.72,1.2-3.05,3.26
		l-0.31,1.79c-0.04,0.31-0.21,0.56-0.52,0.56c-0.41,0-0.66-0.37-0.66-1.01c0-1.03,0.41-1.61,1.07-1.73l-0.08-2.74
		c-1.92,0.19-3.09,1.75-3.09,4.41C17.42,317.33,18.72,318.92,20.53,318.92z"/>
	<path d="M17.42,302.74c0,1.38,0.62,2.37,1.63,2.87h-1.38v3.34h9.19v-3.34h-4.51c-1.38,0-2.29-0.39-2.29-1.48
		c0-1.01,0.66-1.26,1.92-1.26h4.89v-3.34h-4.51c-1.38,0-2.29-0.37-2.29-1.48c0-1.01,0.66-1.24,1.92-1.24h4.89v-3.34h-5.77
		c-1.92,0-3.67,0.74-3.67,3.28c0,1.55,0.78,2.64,1.81,3.13C18.16,300.27,17.42,301.11,17.42,302.74z"/>
	<rect x="13.87" y="284.71" width="12.99" height="3.5"/>
	<path d="M23.83,280.57l0.04,2.91c2.23-0.19,3.24-2.08,3.24-4.62c0-2.62-1.11-4.27-3.05-4.27c-1.79,0-2.72,1.2-3.05,3.26l-0.31,1.79
		c-0.04,0.31-0.21,0.56-0.52,0.56c-0.41,0-0.66-0.37-0.66-1.01c0-1.03,0.41-1.61,1.07-1.73l-0.08-2.74
		c-1.92,0.19-3.09,1.75-3.09,4.41c0,2.58,1.3,4.16,3.11,4.16c1.88,0,2.6-1.18,2.95-3.4l0.21-1.36c0.1-0.64,0.35-0.85,0.7-0.85
		c0.37,0,0.64,0.39,0.64,1.13C25.03,279.82,24.59,280.44,23.83,280.57z"/>
	<path d="M26.86,267.23l-2.51-0.97v-5.07l2.51-0.97v-3.73l-12.99,5.17v3.92l12.99,5.17V267.23z M21.73,265.25l-3.83-1.48v-0.08
		l3.83-1.48V265.25z"/>
	<polygon points="26.86,245.96 13.87,240.97 13.87,244.46 22.51,247.67 22.51,247.75 13.87,250.97 13.87,254.64 26.86,249.65 	"/>
	<rect x="17.67" y="236.73" width="9.19" height="3.34"/>
	<rect x="13.87" y="236.71" width="2.93" height="3.38"/>
	<path d="M19.3,231.58h-1.63v3.34h9.19v-3.34h-4.21c-1.55,0-2.12-0.76-2.12-2c0-0.64,0.12-1.13,0.39-1.59l-3.15-0.21
		c-0.19,0.23-0.35,0.72-0.35,1.28C17.42,230.28,18.27,231.25,19.3,231.58z"/>
	<path d="M22.57,223.52h-4.91v3.34h5.79c1.92,0,3.65-0.76,3.65-3.28c0-1.38-0.6-2.39-1.63-2.89h1.38v-3.34h-9.19v3.34h4.51
		c1.4,0,2.31,0.41,2.31,1.46C24.49,223.17,23.81,223.52,22.57,223.52z"/>
	<path d="M20.53,216.02c1.88,0,2.6-1.18,2.95-3.4l0.21-1.36c0.1-0.64,0.35-0.85,0.7-0.85c0.37,0,0.64,0.39,0.64,1.13
		c0,1.01-0.43,1.63-1.2,1.75l0.04,2.91c2.23-0.19,3.24-2.08,3.24-4.62c0-2.62-1.11-4.27-3.05-4.27c-1.79,0-2.72,1.2-3.05,3.26
		l-0.31,1.79c-0.04,0.31-0.21,0.56-0.52,0.56c-0.41,0-0.66-0.37-0.66-1.01c0-1.03,0.41-1.61,1.07-1.73l-0.08-2.74
		c-1.92,0.19-3.09,1.75-3.09,4.41C17.42,214.43,18.72,216.02,20.53,216.02z"/>
	<rect x="23.32" y="200.93" width="3.55" height="3.55"/>
	<path d="M22.26,198.04c2.87,0,4.84-2.02,4.84-5.03c0-2.99-1.98-5.03-4.84-5.03c-2.84,0-4.84,2.04-4.84,5.03
		C17.42,196.02,19.42,198.04,22.26,198.04z M22.26,191.34c1.38,0,2.33,0.52,2.33,1.67c0,1.17-0.95,1.67-2.33,1.67
		s-2.33-0.49-2.33-1.67C19.93,191.86,20.88,191.34,22.26,191.34z"/>
	<path d="M17.77,179.53c-0.19,0.23-0.35,0.72-0.35,1.28c0,1.22,0.85,2.19,1.88,2.52h-1.63v3.34h9.19v-3.34h-4.21
		c-1.55,0-2.12-0.76-2.12-2c0-0.64,0.12-1.13,0.39-1.59L17.77,179.53z"/>
	<path d="M18.16,171.45c-0.47,0.78-0.74,1.83-0.74,2.95c0,2.58,1.2,4.43,3.15,4.43c1.01,0,1.79-0.49,2.33-1.32
		c0.37,0.99,1.05,1.57,1.94,1.57c0.78,0,1.53-0.49,1.79-1.32c0.08,1.03,0.72,1.75,1.53,1.75c1.73,0,2.25-2.27,2.25-4.89
		c0-2.99-1.05-5.77-3.34-5.77c-1.55,0-2.64,1.05-2.64,3.13v3.81c0,0.56-0.25,0.78-0.56,0.78c-0.19,0-0.33-0.06-0.43-0.19
		c0.19-0.6,0.27-1.26,0.27-2c0-2.6-1.2-4.47-3.13-4.47c-0.43,0-0.83,0.1-1.18,0.29c-0.1-0.45-0.14-0.95-0.14-1.34h-2.52
		C16.74,169.89,17.4,170.9,18.16,171.45z M27.27,172.77c0-0.56,0.14-0.85,0.54-0.85c0.56,0,0.87,1.13,0.87,2.68
		c0,1.24-0.19,2.16-0.85,2.16c-0.35,0-0.56-0.25-0.56-0.62V172.77z M20.57,173.39c0.82,0,1.34,0.41,1.34,0.97
		c0,0.56-0.52,0.97-1.34,0.97c-0.8,0-1.32-0.41-1.32-0.97C19.25,173.8,19.77,173.39,20.57,173.39z"/>
	<path d="M765.35,209.59v1.81l-3.42-0.8v2.49l3.42,0.8v1.77l-3.42-0.8v2.49l3.42,0.8v2.04l2.06,0.43v-1.98l2.02,0.49v1.88l2.06,0.43
		v-1.83l3.42,0.82v-2.49l-3.42-0.82v-1.77l3.42,0.83v-2.49l-3.42-0.82v-2.02l-2.06-0.43v1.98l-2.02-0.49v-1.88L765.35,209.59z
		 M769.43,214.89v1.77l-2.02-0.49v-1.77L769.43,214.89z"/>
	<path d="M768.42,224.09c-4,0-6.74,2.87-6.74,6.66c0,3.98,2.52,6.1,5.75,6.35l0.14-3.36c-1.44-0.21-2.78-0.99-2.78-3.01
		c0-1.92,1.42-3.03,3.63-3.03s3.63,1.11,3.63,3.03c0,2.02-1.34,2.8-2.78,3.01l0.12,3.36c3.24-0.25,5.77-2.37,5.77-6.35
		C775.16,226.95,772.42,224.09,768.42,224.09z"/>
	<path d="M761.72,246.18c0,0.95,0.27,1.61,0.6,2.08h1.77c-0.1-0.27-0.14-0.47-0.14-0.74c0-0.35,0.21-0.56,0.68-0.56h3.13
		c2.56,0,3.61-1.79,3.61-4.23c0-2.76-1.4-4.27-3.42-4.56l-0.21,3.09c0.68,0.14,1.15,0.52,1.15,1.26c0,0.8-0.45,1.15-1.22,1.15h-0.14
		l-0.43-2.58c-0.35-2-1.11-3.28-2.89-3.28c-1.57,0-2.49,1.18-2.49,2.97c0,1.46,0.56,2.52,1.63,3.05
		C762.3,244.16,761.72,245.05,761.72,246.18z M764.65,241.05c0.6,0,0.85,0.47,1.01,1.28l0.25,1.36h-0.14c-1.2,0-1.9-0.76-1.9-1.71
		C763.87,241.42,764.18,241.05,764.65,241.05z"/>
	<path d="M758.63,252.57h4.87c-1.07,0.45-1.81,1.48-1.81,3.03c0,2.7,2.12,4.08,4.84,4.08c2.7,0,4.84-1.38,4.84-4.08
		c0-1.55-0.74-2.58-1.83-3.03h1.59v-3.34h-12.49V252.57z M766.46,252.57h0.12c1.32,0,2.19,0.72,2.19,1.86c0,1.3-0.93,1.9-2.25,1.9
		c-1.34,0-2.27-0.6-2.27-1.9C764.26,253.29,765.12,252.57,766.46,252.57z"/>
	<rect x="771.99" y="260.98" width="2.93" height="3.38"/>
	<rect x="761.93" y="261" width="9.19" height="3.34"/>
	<path d="M770.98,265.93l-0.1-0.68h-2.06v1.24h-4.33c-2.16,0-2.8,1.46-2.8,3.01c0,1.26,0.31,2.06,0.82,2.76h2.16
		c-0.23-0.56-0.31-1.01-0.31-1.42c0-0.68,0.31-1.05,1.09-1.05h3.36v2.39h2.31v-2.39h2.54v-2.1l-1.2-0.31
		C771.62,267.14,771.12,266.85,770.98,265.93z"/>
	<path d="M761.72,281.35c0,0.95,0.27,1.61,0.6,2.08h1.77c-0.1-0.27-0.14-0.47-0.14-0.74c0-0.35,0.21-0.56,0.68-0.56h3.13
		c2.56,0,3.61-1.79,3.61-4.23c0-2.76-1.4-4.27-3.42-4.56l-0.21,3.09c0.68,0.14,1.15,0.52,1.15,1.26c0,0.8-0.45,1.15-1.22,1.15h-0.14
		l-0.43-2.58c-0.35-2-1.11-3.28-2.89-3.28c-1.57,0-2.49,1.18-2.49,2.97c0,1.46,0.56,2.51,1.63,3.05
		C762.3,279.33,761.72,280.21,761.72,281.35z M764.65,276.21c0.6,0,0.85,0.47,1.01,1.28l0.25,1.36h-0.14c-1.2,0-1.9-0.76-1.9-1.71
		C763.87,276.58,764.18,276.21,764.65,276.21z"/>
	<rect x="761.93" y="284.39" width="12.99" height="3.34"/>
	<rect x="761.93" y="289.55" width="9.19" height="3.34"/>
	<rect x="771.99" y="289.53" width="2.93" height="3.38"/>
	<path d="M764.73,302.92c1.79,0,2.72-1.2,3.05-3.26l0.31-1.79c0.04-0.31,0.21-0.56,0.52-0.56c0.41,0,0.66,0.37,0.66,1.01
		c0,1.03-0.41,1.61-1.07,1.73l0.08,2.74c1.92-0.19,3.09-1.75,3.09-4.41c0-2.58-1.3-4.16-3.11-4.16c-1.88,0-2.6,1.18-2.95,3.4
		l-0.21,1.36c-0.1,0.64-0.35,0.85-0.7,0.85c-0.37,0-0.64-0.39-0.64-1.13c0-1.01,0.43-1.63,1.2-1.75l-0.04-2.91
		c-2.23,0.19-3.24,2.08-3.24,4.62C761.68,301.28,762.79,302.92,764.73,302.92z"/>
	<path d="M771.37,310.41c0-1.38-0.62-2.37-1.63-2.87h1.38v-3.34h-9.19v3.34h4.51c1.38,0,2.29,0.39,2.29,1.48
		c0,1.01-0.66,1.26-1.92,1.26h-4.89v3.34h4.51c1.38,0,2.29,0.37,2.29,1.48c0,1.01-0.66,1.24-1.92,1.24h-4.89v3.34h5.77
		c1.92,0,3.67-0.74,3.67-3.28c0-1.55-0.78-2.64-1.81-3.13C770.63,312.88,771.37,312.03,771.37,310.41z"/>
	<rect x="761.93" y="323.27" width="12.99" height="3.5"/>
	<path d="M764.96,330.92l-0.04-2.91c-2.23,0.19-3.24,2.08-3.24,4.62c0,2.62,1.11,4.27,3.05,4.27c1.79,0,2.72-1.2,3.05-3.26
		l0.31-1.79c0.04-0.31,0.21-0.56,0.52-0.56c0.41,0,0.66,0.37,0.66,1.01c0,1.03-0.41,1.61-1.07,1.73l0.08,2.74
		c1.92-0.19,3.09-1.75,3.09-4.41c0-2.58-1.3-4.16-3.11-4.16c-1.88,0-2.6,1.18-2.95,3.4l-0.21,1.36c-0.1,0.64-0.35,0.85-0.7,0.85
		c-0.37,0-0.64-0.39-0.64-1.13C763.76,331.66,764.2,331.04,764.96,330.92z"/>
	<path d="M774.92,344.24l-12.99-5.17v3.52l2.52,0.97v5.07l-2.52,0.97v3.73l12.99-5.17V344.24z M770.9,346.14l-3.83,1.48v-3.05
		l3.83,1.48V346.14z"/>
	<polygon points="774.92,358.8 774.92,355.13 761.93,360.12 761.93,363.81 774.92,368.8 774.92,365.31 766.28,362.1 766.28,362.01 	
		"/>
	<rect x="761.93" y="369.7" width="9.19" height="3.34"/>
	<rect x="771.99" y="369.68" width="2.93" height="3.38"/>
	<path d="M769.5,378.19h1.63v-3.34h-9.19v3.34h4.21c1.55,0,2.12,0.76,2.12,2c0,0.64-0.12,1.13-0.39,1.59l3.15,0.21
		c0.19-0.23,0.35-0.72,0.35-1.28C771.37,379.49,770.53,378.52,769.5,378.19z"/>
	<path d="M766.22,386.25h4.91v-3.34h-5.79c-1.92,0-3.65,0.76-3.65,3.28c0,1.38,0.6,2.39,1.63,2.89h-1.38v3.34h9.19v-3.34h-4.51
		c-1.4,0-2.31-0.41-2.31-1.46C764.3,386.6,764.98,386.25,766.22,386.25z"/>
	<path d="M768.2,399.59l0.08,2.74c1.92-0.19,3.09-1.75,3.09-4.41c0-2.58-1.3-4.16-3.11-4.16c-1.88,0-2.6,1.18-2.95,3.4l-0.21,1.36
		c-0.1,0.64-0.35,0.85-0.7,0.85c-0.37,0-0.64-0.39-0.64-1.13c0-1.01,0.43-1.63,1.2-1.75l-0.04-2.91c-2.23,0.19-3.24,2.08-3.24,4.62
		c0,2.62,1.11,4.27,3.05,4.27c1.79,0,2.72-1.2,3.05-3.26l0.31-1.79c0.04-0.31,0.21-0.56,0.52-0.56c0.41,0,0.66,0.37,0.66,1.01
		C769.27,398.88,768.86,399.46,768.2,399.59z"/>
</g>
</svg>
