<?xml version="1.0" encoding="utf-8"?>
<!-- Generator: Adobe Illustrator 23.1.1, SVG Export Plug-In . SVG Version: 6.00 Build 0)  -->
<svg version="1.1" xmlns="http://www.w3.org/2000/svg" xmlns:xlink="http://www.w3.org/1999/xlink" x="0px" y="0px"
	 viewBox="0 0 792 612" style="enable-background:new 0 0 792 612;" xml:space="preserve">
<style type="text/css">
	.st0{display:none;}
	.st1{display:inline;}
	
		.st2{display:inline;fill:#FFFFFF;stroke:#000000;stroke-width:16;stroke-linecap:round;stroke-linejoin:round;stroke-miterlimit:10;}
	.st3{fill:#FFFFFF;stroke:#000000;stroke-width:16;stroke-linecap:round;stroke-linejoin:round;stroke-miterlimit:10;}
	.st4{display:inline;fill:none;stroke:#000000;stroke-width:24;stroke-linejoin:round;stroke-miterlimit:10;}
	.st5{display:inline;fill:#FFFFFF;}
	.st6{fill:#FFFFFF;stroke:#000000;stroke-width:17;stroke-linecap:round;stroke-miterlimit:10;}
	.st7{fill:#FFFFFF;stroke:#000000;stroke-width:17;stroke-miterlimit:10;}
	.st8{stroke:#000000;stroke-width:16.0572;stroke-linecap:round;stroke-miterlimit:10;}
	.st9{fill:#FFFFFF;}
	.st10{fill:#FFFFFF;stroke:#000000;stroke-width:17.1072;stroke-linecap:round;stroke-linejoin:round;stroke-miterlimit:10;}
	.st11{stroke:#000000;stroke-width:17.1072;stroke-linecap:round;stroke-linejoin:round;stroke-miterlimit:10;}
	.st12{fill:#FFFFFF;stroke:#000000;stroke-width:14.7375;stroke-linecap:round;stroke-linejoin:round;stroke-miterlimit:10;}
	.st13{fill:none;stroke:#000000;stroke-width:14.7375;stroke-linecap:round;stroke-linejoin:round;stroke-miterlimit:10;}
	.st14{stroke:#000000;stroke-width:14.7375;stroke-linecap:round;stroke-linejoin:round;stroke-miterlimit:10;}
	.st15{fill:#FFFFFF;stroke:#000000;stroke-width:14.2911;stroke-linecap:round;stroke-linejoin:round;stroke-miterlimit:10;}
	.st16{fill:none;stroke:#000000;stroke-width:13.497;stroke-miterlimit:10;}
	.st17{fill:#FFFFFF;stroke:#000000;stroke-width:13.497;stroke-linecap:round;stroke-linejoin:round;stroke-miterlimit:10;}
	.st18{fill:#FFFFFF;stroke:#000000;stroke-width:13.497;stroke-miterlimit:10;}
	.st19{fill:#FFFFFF;stroke:#000000;stroke-width:14.7439;stroke-linecap:round;stroke-miterlimit:10;}
	.st20{fill:#FFFFFF;stroke:#000000;stroke-width:14.7439;stroke-miterlimit:10;}
	.st21{stroke:#000000;stroke-width:13.9262;stroke-linecap:round;stroke-miterlimit:10;}
	
		.st22{display:inline;fill:#FFFFFF;stroke:#000000;stroke-width:14.6942;stroke-linecap:round;stroke-linejoin:round;stroke-miterlimit:10;}
	.st23{fill:#FFFFFF;stroke:#000000;stroke-width:14.6942;stroke-linecap:round;stroke-linejoin:round;stroke-miterlimit:10;}
	.st24{font-family:'FoundersGrotesk-Bold';}
	.st25{font-size:98.7009px;}
	.st26{letter-spacing:4;}
	.st27{fill:none;stroke:#000000;stroke-width:24;stroke-linejoin:round;stroke-miterlimit:10;}
	.st28{fill:none;stroke:#000000;stroke-width:30.5612;stroke-linecap:round;stroke-linejoin:round;stroke-miterlimit:10;}
	.st29{fill:#FFFFFF;stroke:#000000;stroke-width:16.2993;stroke-linecap:round;stroke-linejoin:round;stroke-miterlimit:10;}
	.st30{display:inline;fill:#FFFFFF;stroke:#000000;stroke-width:13.497;stroke-linecap:round;stroke-miterlimit:10;}
	
		.st31{display:inline;fill:none;stroke:#000000;stroke-width:13.497;stroke-linecap:round;stroke-linejoin:round;stroke-miterlimit:10;}
	
		.st32{display:inline;fill:#FFFFFF;stroke:#000000;stroke-width:13.497;stroke-linecap:round;stroke-linejoin:round;stroke-miterlimit:10;}
	
		.st33{display:inline;fill:url(#);stroke:#000000;stroke-width:13.497;stroke-linecap:round;stroke-linejoin:round;stroke-miterlimit:10;}
	.st34{fill:#FFFFFF;stroke:#000000;stroke-width:15.2362;stroke-linecap:round;stroke-linejoin:round;stroke-miterlimit:10;}
	.st35{fill:#FFFFFF;stroke:#000000;stroke-width:14.8467;stroke-linecap:round;stroke-linejoin:round;stroke-miterlimit:10;}
	.st36{stroke:#000000;stroke-width:20.1683;stroke-linecap:round;stroke-miterlimit:10;}
	.st37{fill:none;stroke:#000000;stroke-width:14.8467;stroke-linecap:round;stroke-linejoin:round;stroke-miterlimit:10;}
	.st38{fill:#FFFFFF;stroke:#FFFFFF;stroke-width:3;stroke-miterlimit:10;}
	.st39{display:inline;fill:none;stroke:#000000;stroke-width:15;stroke-linecap:round;stroke-linejoin:round;stroke-miterlimit:10;}
	
		.st40{display:inline;fill:#FFFFFF;stroke:#000000;stroke-width:15;stroke-linecap:round;stroke-linejoin:round;stroke-miterlimit:10;}
	.st41{fill:#FFFFFF;stroke:#000000;stroke-width:15;stroke-linecap:round;stroke-linejoin:round;stroke-miterlimit:10;}
	.st42{fill:#FFFFFF;stroke:#000000;stroke-width:11.7326;stroke-linecap:round;stroke-linejoin:round;stroke-miterlimit:10;}
	.st43{fill:#FFFFFF;stroke:#000000;stroke-width:13.2623;stroke-linecap:round;stroke-linejoin:round;stroke-miterlimit:10;}
	.st44{fill:none;stroke:#000000;stroke-width:16;stroke-linecap:round;stroke-miterlimit:10;}
	.st45{fill:url(#);stroke:#000000;stroke-width:16;stroke-linecap:round;stroke-linejoin:round;stroke-miterlimit:10;}
	.st46{fill:#FFFFFF;stroke:#000000;stroke-width:16;stroke-linecap:round;stroke-miterlimit:10;}
	.st47{fill:#FFFFFF;stroke:#000000;stroke-width:13.2623;stroke-linecap:round;stroke-miterlimit:10;}
	.st48{stroke:#000000;stroke-width:4.5213;stroke-miterlimit:10;}
	.st49{fill:none;stroke:#000000;stroke-width:15.2344;stroke-linecap:round;stroke-linejoin:round;stroke-miterlimit:10;}
	.st50{fill:#FFFFFF;stroke:#000000;stroke-width:15.2344;stroke-linecap:round;stroke-linejoin:round;stroke-miterlimit:10;}
	.st51{stroke:#000000;stroke-width:18.3348;stroke-linecap:round;stroke-miterlimit:10;}
	.st52{fill:none;stroke:#000000;stroke-width:13.497;stroke-linecap:round;stroke-linejoin:round;stroke-miterlimit:10;}
	.st53{fill:#FFFFFF;stroke:#000000;stroke-width:15;stroke-linecap:square;stroke-linejoin:round;stroke-miterlimit:10;}
	.st54{fill:#FFFFFF;stroke:#000000;stroke-width:15;stroke-linejoin:round;stroke-miterlimit:10;}
	.st55{fill:none;stroke:#000000;stroke-width:15;stroke-linecap:round;stroke-linejoin:round;stroke-miterlimit:10;}
	.st56{fill:url(#);stroke:#000000;stroke-width:13.497;stroke-linecap:round;stroke-linejoin:round;stroke-miterlimit:10;}
	.st57{font-size:20.6105px;}
	.st58{font-size:10.3052px;}
	.st59{font-size:19.2364px;}
	.st60{font-size:10px;}
	.st61{display:inline;fill:none;stroke:#000000;stroke-width:16;stroke-linecap:round;stroke-linejoin:round;stroke-miterlimit:10;}
	.st62{fill:#FFFFFF;stroke:#000000;stroke-width:13.3058;stroke-linecap:round;stroke-linejoin:round;stroke-miterlimit:10;}
	.st63{fill:#FFFFFF;stroke:#000000;stroke-width:17;stroke-linecap:round;stroke-linejoin:round;stroke-miterlimit:10;}
	.st64{fill:#FFFFFF;stroke:#000000;stroke-width:15.2517;stroke-linecap:round;stroke-linejoin:round;stroke-miterlimit:10;}
	.st65{stroke:#000000;stroke-width:3;stroke-miterlimit:10;}
	.st66{fill:none;}
	.st67{fill:#06A6FF;}
	.st68{fill:#FF0303;}
	.st69{fill:#3DFF06;}
	.st70{fill:none;stroke:#000000;stroke-width:0;stroke-linecap:round;stroke-linejoin:round;}
</style>
<g id="Layer_1" class="st0">
	<path class="st22" d="M527.45,408.41l-45.44-64.35c-6.85-9.71-20.73-11.7-30.99-4.45c-10.26,7.25-13.03,20.99-6.17,30.7
		l45.44,64.35"/>
	<path class="st22" d="M582.14,426.66c0,0-9.95-89.1-16.37-100.43c-6.55-11.55-14.51-13.79-25.63-15.7
		c-10.85-1.87-75.89-13.26-75.89-13.26c-10.81-1.96-21.74,8.58-23.81,20.02s4.62,24.61,15.44,26.57l60.56,10.97"/>
	<g class="st1">
		<g>
			<path class="st23" d="M349.59,45.62c-26.5,7.44-74.43,44.94-111.49,70.29s-56.21,61.26-45.72,98.6s20.28,82.23,29.92,95.76
				c9.65,13.53,87.06,82.53,214.72,46.68S594.86,221.88,596.05,205.3c1.19-16.58-13.82-60-24.3-97.34s-45.53-58.03-90.37-60.38
				C436.54,45.24,376.09,38.18,349.59,45.62z"/>
		</g>
		<path class="st23" d="M359.66,78.38c-36.94,10.14-137.77,96.53-123.34,149.07s80.78,126.89,190.82,96.67
			c110.04-30.21,129.12-128.02,114.69-180.56C527.4,91.02,396.59,68.24,359.66,78.38z"/>
		<path class="st23" d="M437.25,291.29l-35.57,9.77c-11.57,3.18-23.53-3.63-26.7-15.2l-9.77-35.57c-3.18-11.57,3.63-23.53,15.2-26.7
			l35.57-9.77c11.57-3.18,23.53,3.63,26.7,15.2l9.77,35.57C455.62,276.16,448.82,288.11,437.25,291.29z"/>
		<text transform="matrix(0.9643 -0.2648 0.2648 0.9643 300.0066 218.4103)" class="st24 st25 st26">N95</text>
		<path class="st27" d="M176.44,148.56l42.95,17.94"/>
		<path class="st27" d="M521.05,79.1l17.94-42.95"/>
		<path class="st27" d="M611.48,246.81l-44.2-14.6"/>
		<path class="st27" d="M292.65,333.6l-14.6,44.2"/>
	</g>
	<polyline class="st5" points="468.03,464.06 535.69,395.68 570.48,446.12 557.92,471.9 	"/>
	<path class="st22" d="M582.14,475.72c10.11-19.76,7.17-36.63-3.6-58.81c-5.02-10.34-19.52-42.4-33.4-69.24
		c-7.36-14.24-11.88-21.03-21.56-29.84c-8.15-7.42-54.42-56.23-54.42-56.23c-9.87-10.33-24.4-16.57-36-7.71
		c-11.6,8.86-9.8,24.57-1.15,37.11L486,353.09l20.68,59.88"/>
	<path class="st22" d="M506.67,412.97c0,0-9.39,27.38-30.28,27.38c-14.96,0-32.15-15.82-32.15-15.82s-3.16-28.84-10.34-53.58
		c-9.9-34.14-26.63-38.8-45.21-34.2c-10.41,2.57-10.44,11.21-9.44,21.13c3.24,32.14,7.17,58.84,10.77,89.69
		c-11.13,65.99,18.64,122.06,18.64,122.06l-2.54,26.14"/>
	<path class="st22" d="M582.14,475.72c-18.7,41.07-63.61,108.79-63.61,108.79l0.73,11.27"/>
	<text transform="matrix(8.979319e-11 -1 1 8.979319e-11 26.8615 443.1503)" class="st1"><tspan x="0" y="0" class="st24 st57">www</tspan><tspan x="45.14" y="0" class="st24 st58"> </tspan><tspan x="46.99" y="0" class="st24 st57">.</tspan><tspan x="51.77" y="0" class="st24 st58"> </tspan><tspan x="53.63" y="0" class="st24 st57">Capitalism</tspan><tspan x="150.43" y="0" class="st24 st59"> </tspan><tspan x="153.9" y="0" class="st24 st57">Is</tspan><tspan x="168.88" y="0" class="st24 st59"> </tspan><tspan x="172.34" y="0" class="st24 st57">A</tspan><tspan x="186.6" y="0" class="st24 st58"> </tspan><tspan x="188.46" y="0" class="st24 st57">Virus</tspan><tspan x="236.15" y="0" class="st24 st58"> </tspan><tspan x="238.01" y="0" class="st24 st57">.</tspan><tspan x="242.79" y="0" class="st24 st58"> </tspan><tspan x="244.64" y="0" class="st24 st57">org</tspan></text>
	<text transform="matrix(0 1 -1 0 761.9292 209.1802)" class="st1"><tspan x="0" y="0" class="st24 st57">#</tspan><tspan x="12.7" y="0" class="st24 st60"> </tspan><tspan x="14.5" y="0" class="st24 st57">Capitalism</tspan><tspan x="111.3" y="0" class="st24 st60"> </tspan><tspan x="113.1" y="0" class="st24 st57">Is</tspan><tspan x="128.09" y="0" class="st24 st60"> </tspan><tspan x="129.89" y="0" class="st24 st57">A</tspan><tspan x="144.15" y="0" class="st24 st60"> </tspan><tspan x="145.95" y="0" class="st24 st57">Virus</tspan></text>
</g>
<g id="Layer_1_copy">
	<polygon class="st66" points="767.06,347.62 770.9,346.14 770.9,346.05 767.06,344.57 	"/>
	<path class="st66" d="M765.76,278.85h0.14l-0.25-1.36c-0.16-0.8-0.41-1.28-1.01-1.28c-0.47,0-0.78,0.37-0.78,0.93
		C763.87,278.09,764.57,278.85,765.76,278.85z"/>
	<polygon class="st66" points="767.41,216.17 769.43,216.66 769.43,214.89 767.41,214.4 	"/>
	<path class="st66" d="M765.76,243.69h0.14l-0.25-1.36c-0.16-0.8-0.41-1.28-1.01-1.28c-0.47,0-0.78,0.37-0.78,0.93
		C763.87,242.93,764.57,243.69,765.76,243.69z"/>
	<path class="st66" d="M22.26,356.82c-1.32,0-2.25,0.6-2.25,1.9c0,1.13,0.87,1.86,2.19,1.86h0.12c1.34,0,2.21-0.72,2.21-1.86
		C24.53,357.42,23.6,356.82,22.26,356.82z"/>
	<polygon class="st66" points="21.73,262.2 17.89,263.69 17.89,263.77 21.73,265.25 	"/>
	<path class="st66" d="M23.03,369.46h-0.14l0.25,1.36c0.16,0.8,0.41,1.28,1.01,1.28c0.47,0,0.78-0.37,0.78-0.93
		C24.92,370.22,24.22,369.46,23.03,369.46z"/>
	<path class="st66" d="M23.03,334.3h-0.14l0.25,1.36c0.16,0.8,0.41,1.28,1.01,1.28c0.47,0,0.78-0.37,0.78-0.93
		C24.92,335.06,24.22,334.3,23.03,334.3z"/>
	<path class="st66" d="M22.26,194.68c1.38,0,2.33-0.49,2.33-1.67c0-1.15-0.95-1.67-2.33-1.67c-1.38,0-2.33,0.52-2.33,1.67
		C19.94,194.19,20.88,194.68,22.26,194.68z"/>
	<path class="st66" d="M27.83,176.77c0.66,0,0.84-0.93,0.84-2.16c0-1.55-0.31-2.68-0.87-2.68c-0.39,0-0.54,0.29-0.54,0.85v3.38
		C27.27,176.53,27.48,176.77,27.83,176.77z"/>
	<path class="st66" d="M20.57,173.39c-0.8,0-1.32,0.41-1.32,0.97c0,0.56,0.52,0.97,1.32,0.97c0.82,0,1.34-0.41,1.34-0.97
		C21.91,173.8,21.4,173.39,20.57,173.39z"/>
	<path class="st66" d="M451.2,420.83c5.47,4.5,16.57,12.16,25.19,12.16c1.19,0,2.34-0.15,3.45-0.4l-35.36-50.08
		C448.27,398.95,450.41,414.54,451.2,420.83z"/>
	<path class="st66" d="M512.01,419.31c-0.08,0.18-0.16,0.35-0.25,0.54l1.22-1.23L512.01,419.31z"/>
	<path class="st66" d="M766.53,256.32c1.32,0,2.25-0.6,2.25-1.9c0-1.13-0.87-1.86-2.19-1.86h-0.12c-1.34,0-2.21,0.72-2.21,1.86
		C764.26,255.73,765.19,256.32,766.53,256.32z"/>
	<polygon points="326.94,146.54 336.06,179.75 303.53,152.96 288.11,157.2 304.57,217.16 319.42,213.08 309.67,177.58 
		345.31,205.97 358.25,202.42 341.79,142.46 	"/>
	<path d="M376.12,131.8c-13.61,3.74-21.27,14.23-17.72,27.18c3.14,11.42,13.13,17.27,26.27,13.67c5.81-1.59,10.18-5.05,12-9.23
		c1.83,8.91-0.42,15.98-7.08,17.81c-4.47,1.23-7.81-0.11-9.41-4.07l-14.96,4.41c4.44,11.68,14.67,16.14,27.61,12.58
		c17.42-4.78,22.66-20.35,17.64-38.62C405.25,136.5,392.97,127.18,376.12,131.8z M384.17,159.99c-5.33,1.46-9.24-0.84-10.54-5.6
		c-1.25-4.57,0.93-8.54,6.26-10.01c5.14-1.41,9.07,0.99,10.3,5.46C391.49,154.6,389.31,158.58,384.17,159.99z"/>
	<path d="M442.6,135.35c-5.23,1.44-8.1,3.66-9.75,5.85c-0.15-2.41-0.44-5.71-0.96-8.33l25.7-7.06l-3.87-14.09l-37.59,10.32
		c2.43,9.98,4.58,26.38,5.4,34.95l15.83-3.12c0.9-2.7,2.67-4.83,6.47-5.87c5.33-1.46,9.19,1.78,10.47,6.44
		c1.41,5.14-1.08,9.1-5.94,10.43c-5.04,1.38-9-0.7-10.5-5.82l-15.8,3.21c3.31,13.93,13.99,20.01,29.88,15.64
		c13.23-3.63,20.86-14.22,17.2-27.55C465.93,138.67,456.5,131.53,442.6,135.35z"/>
	<path d="M181.07,137.48l-9.25,22.15l15.4,6.43c-5.92,16.42-6.62,33.68-1.92,50.43c2.59,9.22,5.17,19.04,7.67,28.53
		c8.22,31.25,15.32,58.25,23.35,69.51c6.31,8.85,26.73,26.65,56.68,40.3l-6.35,19.21l22.79,7.53l5.96-18.05
		c18.8,6.08,42.56,10.92,70.66,10.92c2.48,0,5-0.04,7.55-0.12c1.58,14.03,3.27,27.3,4.91,40.24c1.35,10.58,2.74,21.51,4.07,32.85
		c-9.92,60.93,13.2,112.74,18.54,123.65l-2.33,24.02c-0.39,4.04,2.56,7.63,6.6,8.02c0.24,0.02,0.48,0.04,0.72,0.04
		c3.74,0,6.94-2.84,7.3-6.64l1.65-17.01l0.89-9.14c0.14-1.44-0.15-2.88-0.82-4.16c-0.29-0.54-28.48-54.59-17.88-117.4
		c0.12-0.69,0.13-1.38,0.05-2.08c-1.38-11.78-2.82-23.09-4.21-34.03c-2.34-18.38-4.55-35.73-6.55-55.54
		c-1.21-12,0.71-12.48,3.9-13.27c12.62-3.12,26.87-3.7,36.39,29.12c6.91,23.81,10.06,52.05,10.09,52.34
		c0.19,1.77,1.02,3.4,2.33,4.61c1.97,1.82,19.8,17.76,37.13,17.76c20.18,0,31.27-18.92,35.38-27.84c0.09-0.19,0.16-0.36,0.25-0.54
		c0.99-2.2,1.52-3.69,1.61-3.96c0.02-0.07,0.04-0.14,0.06-0.21c0.04-0.14,0.08-0.27,0.12-0.41c0.03-0.1,0.05-0.21,0.07-0.31
		c0.03-0.13,0.05-0.26,0.07-0.39c0.02-0.11,0.03-0.22,0.04-0.34c0.01-0.12,0.02-0.25,0.03-0.37c0.01-0.12,0.01-0.24,0.01-0.36
		c0-0.12,0-0.24-0.01-0.36c-0.01-0.12-0.02-0.25-0.03-0.37c-0.01-0.11-0.02-0.23-0.04-0.34c-0.02-0.13-0.04-0.26-0.07-0.39
		c-0.02-0.11-0.04-0.21-0.07-0.31c-0.03-0.14-0.08-0.27-0.12-0.41c-0.02-0.07-0.04-0.14-0.06-0.21l-20.68-59.88
		c-0.31-0.89-0.78-1.71-1.4-2.42l-53.71-61.76c-8.29-12.27-6.11-22.27-0.21-26.78c8.36-6.38,19.35-0.25,26.21,6.92
		c1.9,2,46.55,49.09,54.81,56.61c9,8.19,13.06,14.4,19.98,27.78c10.05,19.43,20.43,41.63,27.3,56.32c2.59,5.53,4.63,9.9,6.01,12.75
		c10.59,21.82,11.82,35.33,4.4,50.78c-0.24,0.49-0.48,0.99-0.73,1.48c-0.03,0.05-0.04,0.1-0.07,0.15s-0.05,0.1-0.08,0.15
		c-18.24,40.06-62.6,107.1-63.04,107.77c-0.89,1.34-1.31,2.93-1.21,4.53l0.73,11.27c0.25,3.89,3.48,6.88,7.32,6.88
		c0.16,0,0.32,0,0.48-0.02c4.05-0.26,7.12-3.75,6.86-7.8l-0.57-8.81c7.81-11.89,45.64-70.06,62.77-107.65
		c10.32-20.32,8.09-37.78,0.25-56.57c-2.8-24.6-10.56-88.54-16.88-99.68c-6.93-12.23-15.65-16.13-25.49-18.3
		c9.41-9.01,17.06-17.89,23.17-25.99c6.9-9.15,12.61-18.29,17.25-26.94l20.64,6.82l7.53-22.79l-18.1-5.98
		c3.88-10.21,5.86-18.55,6.22-23.61c0.99-13.8-7-40.54-16.25-71.5c-2.81-9.4-5.72-19.13-8.31-28.35
		c-5.53-19.68-17.76-36.1-35.39-47.49c-0.2-0.13-0.41-0.25-0.61-0.38l7.24-17.33l-22.15-9.25l-6.77,16.2
		c-11.93-4.18-25.21-6.73-39.39-7.48c-10.22-0.54-21.1-1.31-32.61-2.12c-39.28-2.78-79.9-5.66-101.55,0.42h0
		c-21.64,6.08-54.83,29.68-86.92,52.51c-9.4,6.69-18.29,13.01-26.74,18.79c-14.83,10.15-26.96,22.01-35.69,34.82L181.07,137.48z
		 M476.39,433c-8.62,0-19.72-7.66-25.19-12.16c-0.79-6.3-2.93-21.88-6.72-38.32l35.36,50.08C478.73,432.85,477.58,433,476.39,433z
		 M478.25,355.38l1.26,1.45l19.31,55.94c-1.17,2.66-3.49,7.31-6.9,11.48l-41.08-58.18c-1.06-1.5-1.78-3.19-2.15-4.97
		c7.15-2.27,13.98-4.73,20.48-7.36L478.25,355.38z M464.63,339.71c-9.17,3.76-19.01,7.18-29.6,10.15c-0.49,0.14-0.97,0.26-1.46,0.39
		c-3.98-7.37-8.73-12.89-14.26-16.61c3.21-0.72,6.46-1.53,9.76-2.44c7.76-2.13,15.02-4.58,21.83-7.27L464.63,339.71z M428.7,248.05
		c-11.72,8.95-14.16,24.59-6.93,39.87l-22.04,6.05c-3.7,1.02-7.58,0.53-10.92-1.37c-3.34-1.9-5.74-4.99-6.75-8.69l-9.77-35.57
		c-2.1-7.65,2.41-15.57,10.06-17.67l35.57-9.77c1.27-0.35,2.55-0.52,3.8-0.52c6.31,0,12.12,4.2,13.87,10.57l3.33,12.13
		C435.32,243.99,431.87,245.63,428.7,248.05z M495.64,278.74c-11.22-11.73-20.95-21.99-21.17-22.22
		c-6.31-6.6-13.26-10.96-20.18-12.97l-4.53-16.48c-4.25-15.46-20.28-24.58-35.73-20.34l-35.57,9.77
		c-15.46,4.25-24.58,20.27-20.34,35.73l9.77,35.57c3.54,12.89,15.28,21.38,28.04,21.38c2.54,0,5.12-0.34,7.69-1.04l27.08-7.44
		l9.93,11.42c-4.9,1.78-10.04,3.43-15.45,4.92c-58.9,16.17-100.62,0.04-125.25-16.34c-32.37-21.53-50.43-52.96-56.54-75.2
		c-5.52-20.09,9.3-50.5,40.65-83.43c22.38-23.51,57.51-51.11,77.56-56.62c20.05-5.5,64.35,0.29,95.59,9.07
		c43.77,12.3,72.03,30.88,77.55,50.97c6.11,22.24,6.63,58.49-10.21,93.53C518.61,251.36,509.52,265.5,495.64,278.74z M559.37,329.85
		c2.21,3.92,5.78,23.99,9.32,48.93c-5.29-11.09-11.2-23.22-17.03-34.49c-6.21-12-10.82-19.56-18.62-27.54
		c2.56,0.45,4.58,0.8,5.84,1.01C549.39,319.57,554.5,321.26,559.37,329.85z M214.77,177.57l9.25-22.15l-11.95-4.99
		c7.45-10.23,17.56-19.84,30.17-28.46c8.56-5.86,17.5-12.21,26.96-18.94c29.62-21.07,63.19-44.95,82.37-50.34h0
		c19.18-5.39,60.28-2.47,96.54,0.1c11.58,0.82,22.52,1.6,32.88,2.14c12.69,0.67,24.26,2.82,34.52,6.31l-5.53,13.24l22.15,9.25
		l4.95-11.86c13.63,9.33,23.14,22.21,27.59,38.08c2.62,9.34,5.55,19.12,8.37,28.58c8.1,27.1,16.47,55.13,15.68,66.24
		c-0.19,2.6-1.66,9.87-5.53,20.05l-12.14-4.01l-7.53,22.79l9.42,3.11c-3.97,7.14-8.85,14.82-14.84,22.76
		c-8.51,11.29-20.23,24.2-35.9,36.72c-4.38-4.42-10.24-10.47-16.36-16.82c15.32-14.64,25.38-30.31,31.94-43.96
		c15.79-32.86,19.96-71.66,11.13-103.78c-9.47-34.48-59.04-53.16-87.74-61.23c-39.11-10.99-82.62-14.82-103.46-9.1
		c-20.84,5.72-56.29,31.23-84.31,60.65c-20.56,21.6-53.64,62.97-44.17,97.45c8.82,32.12,32.21,63.36,62.57,83.54
		c18.7,12.44,46.26,24.76,82.57,25.49c-3.8,6.67-2.95,15.14-2.44,20.18c0.04,0.35,0.07,0.68,0.11,1.03
		c-28.92,0.74-53.16-3.99-72.03-10.09l4.03-12.19l-22.79-7.53l-3.62,10.96c-30.09-13.93-46.4-30.66-49.35-34.79
		c-6.47-9.07-13.91-37.36-21.1-64.72c-2.51-9.55-5.11-19.42-7.73-28.76c-3.86-13.75-3.32-27.56,1.31-40.8L214.77,177.57z"/>
	<polygon points="17.67,439.82 17.67,443.14 26.86,440.23 26.86,436.96 21.67,435.62 21.67,435.53 26.86,434.19 26.86,430.92 
		17.8,428.05 26.86,425.19 26.86,421.91 21.67,420.57 21.67,420.49 26.86,419.15 26.86,415.87 17.8,413.01 26.86,410.14 
		26.86,406.86 21.67,405.52 21.67,405.44 26.86,404.1 26.86,400.82 17.67,397.92 17.67,400.93 22.88,402.58 22.88,402.66 17.67,404 
		17.67,406.66 22.88,408 22.88,408.08 17.67,409.73 17.67,412.96 17.67,413.05 17.67,415.97 22.88,417.62 22.88,417.71 
		17.67,419.04 17.67,421.7 22.88,423.04 22.88,423.13 17.67,424.78 17.67,428.01 17.67,428.09 17.67,431.02 22.88,432.67 
		22.88,432.75 17.67,434.09 17.67,436.75 22.88,438.09 22.88,438.17 	"/>
	<rect x="23.32" y="391.94" width="3.55" height="3.55"/>
	<path d="M20.37,389.06c4,0,6.74-2.87,6.74-6.66c0-3.98-2.52-6.1-5.75-6.35l-0.14,3.36c1.44,0.21,2.78,0.99,2.78,3.01
		c0,1.92-1.42,3.03-3.63,3.03c-2.21,0-3.63-1.11-3.63-3.03c0-2.02,1.34-2.8,2.78-3.01l-0.12-3.36c-3.24,0.25-5.77,2.37-5.77,6.35
		C13.63,386.19,16.37,389.06,20.37,389.06z"/>
	<path d="M27.07,366.96c0-0.95-0.27-1.61-0.6-2.08H24.7c0.1,0.27,0.14,0.47,0.14,0.74c0,0.35-0.21,0.56-0.68,0.56h-3.13
		c-2.56,0-3.61,1.79-3.61,4.23c0,2.76,1.4,4.27,3.42,4.56l0.21-3.09c-0.68-0.14-1.15-0.52-1.15-1.26c0-0.8,0.45-1.15,1.22-1.15h0.14
		l0.43,2.58c0.35,2,1.11,3.28,2.89,3.28c1.57,0,2.49-1.17,2.49-2.97c0-1.46-0.56-2.52-1.63-3.05
		C26.49,368.98,27.07,368.1,27.07,366.96z M24.14,372.1c-0.6,0-0.85-0.47-1.01-1.28l-0.25-1.36h0.14c1.2,0,1.9,0.76,1.9,1.71
		C24.92,371.72,24.61,372.1,24.14,372.1z"/>
	<path d="M30.16,360.57h-4.86c1.07-0.45,1.81-1.48,1.81-3.03c0-2.7-2.12-4.08-4.84-4.08c-2.7,0-4.84,1.38-4.84,4.08
		c0,1.55,0.74,2.58,1.83,3.03h-1.59v3.34h12.49V360.57z M22.33,360.57H22.2c-1.32,0-2.19-0.72-2.19-1.86c0-1.3,0.93-1.9,2.25-1.9
		c1.34,0,2.27,0.6,2.27,1.9C24.53,359.85,23.67,360.57,22.33,360.57z"/>
	<rect x="17.67" y="348.81" width="9.19" height="3.34"/>
	<rect x="13.87" y="348.79" width="2.93" height="3.38"/>
	<path d="M15.13,345.47l1.2,0.31c0.85,0.23,1.34,0.52,1.48,1.44l0.1,0.68h2.06v-1.24h4.33c2.16,0,2.8-1.46,2.8-3.01
		c0-1.26-0.31-2.06-0.82-2.76h-2.16c0.23,0.56,0.31,1.01,0.31,1.42c0,0.68-0.31,1.05-1.09,1.05h-3.36v-2.39h-2.31v2.39h-2.54V345.47
		z"/>
	<path d="M24.16,331.02h-3.13c-2.56,0-3.61,1.79-3.61,4.23c0,2.76,1.4,4.27,3.42,4.56l0.21-3.09c-0.68-0.14-1.15-0.52-1.15-1.26
		c0-0.8,0.45-1.15,1.22-1.15h0.14l0.43,2.58c0.35,2,1.11,3.28,2.89,3.28c1.57,0,2.49-1.17,2.49-2.97c0-1.46-0.56-2.52-1.63-3.05
		c1.05-0.31,1.63-1.2,1.63-2.33c0-0.95-0.27-1.61-0.6-2.08H24.7c0.1,0.27,0.14,0.47,0.14,0.74
		C24.84,330.81,24.64,331.02,24.16,331.02z M24.92,336.01c0,0.56-0.31,0.93-0.78,0.93c-0.6,0-0.85-0.47-1.01-1.28l-0.25-1.36h0.14
		C24.22,334.3,24.92,335.06,24.92,336.01z"/>
	<rect x="13.87" y="325.41" width="12.99" height="3.34"/>
	<rect x="17.67" y="320.26" width="9.19" height="3.34"/>
	<rect x="13.87" y="320.24" width="2.93" height="3.38"/>
	<path d="M20.53,318.92c1.88,0,2.6-1.17,2.95-3.4l0.21-1.36c0.1-0.64,0.35-0.85,0.7-0.85c0.37,0,0.64,0.39,0.64,1.13
		c0,1.01-0.43,1.63-1.2,1.75l0.04,2.91c2.23-0.19,3.24-2.08,3.24-4.62c0-2.62-1.11-4.27-3.05-4.27c-1.79,0-2.72,1.2-3.05,3.26
		l-0.31,1.79c-0.04,0.31-0.21,0.56-0.52,0.56c-0.41,0-0.66-0.37-0.66-1.01c0-1.03,0.41-1.61,1.07-1.73l-0.08-2.74
		c-1.92,0.19-3.09,1.75-3.09,4.41C17.42,317.33,18.72,318.92,20.53,318.92z"/>
	<path d="M17.42,302.74c0,1.38,0.62,2.37,1.63,2.87h-1.38v3.34h9.19v-3.34h-4.51c-1.38,0-2.29-0.39-2.29-1.48
		c0-1.01,0.66-1.26,1.92-1.26h4.89v-3.34h-4.51c-1.38,0-2.29-0.37-2.29-1.48c0-1.01,0.66-1.24,1.92-1.24h4.89v-3.34h-5.77
		c-1.92,0-3.67,0.74-3.67,3.28c0,1.55,0.78,2.64,1.81,3.13C18.16,300.27,17.42,301.11,17.42,302.74z"/>
	<rect x="13.87" y="284.71" width="12.99" height="3.5"/>
	<path d="M23.83,280.57l0.04,2.91c2.23-0.19,3.24-2.08,3.24-4.62c0-2.62-1.11-4.27-3.05-4.27c-1.79,0-2.72,1.2-3.05,3.26l-0.31,1.79
		c-0.04,0.31-0.21,0.56-0.52,0.56c-0.41,0-0.66-0.37-0.66-1.01c0-1.03,0.41-1.61,1.07-1.73l-0.08-2.74
		c-1.92,0.19-3.09,1.75-3.09,4.41c0,2.58,1.3,4.16,3.11,4.16c1.88,0,2.6-1.18,2.95-3.4l0.21-1.36c0.1-0.64,0.35-0.85,0.7-0.85
		c0.37,0,0.64,0.39,0.64,1.13C25.03,279.82,24.59,280.44,23.83,280.57z"/>
	<path d="M13.87,265.58l12.99,5.17v-3.52l-2.51-0.97v-5.07l2.51-0.97v-3.73l-12.99,5.17V265.58z M17.89,263.69l3.83-1.48v3.05
		l-3.83-1.48V263.69z"/>
	<polygon points="13.87,250.97 13.87,254.64 26.86,249.65 26.86,245.96 13.87,240.97 13.87,244.46 22.51,247.67 22.51,247.75 	"/>
	<rect x="13.87" y="236.71" width="2.93" height="3.38"/>
	<rect x="17.67" y="236.73" width="9.19" height="3.34"/>
	<path d="M19.3,231.58h-1.63v3.34h9.19v-3.34h-4.21c-1.55,0-2.12-0.76-2.12-2c0-0.64,0.12-1.13,0.39-1.59l-3.15-0.21
		c-0.19,0.23-0.35,0.72-0.35,1.28C17.42,230.28,18.27,231.25,19.3,231.58z"/>
	<path d="M22.57,223.52h-4.91v3.34h5.79c1.92,0,3.65-0.76,3.65-3.28c0-1.38-0.6-2.39-1.63-2.89h1.38v-3.34h-9.19v3.34h4.51
		c1.4,0,2.31,0.41,2.31,1.46C24.49,223.17,23.81,223.52,22.57,223.52z"/>
	<path d="M20.53,216.02c1.88,0,2.6-1.18,2.95-3.4l0.21-1.36c0.1-0.64,0.35-0.85,0.7-0.85c0.37,0,0.64,0.39,0.64,1.13
		c0,1.01-0.43,1.63-1.2,1.75l0.04,2.91c2.23-0.19,3.24-2.08,3.24-4.62c0-2.62-1.11-4.27-3.05-4.27c-1.79,0-2.72,1.2-3.05,3.26
		l-0.31,1.79c-0.04,0.31-0.21,0.56-0.52,0.56c-0.41,0-0.66-0.37-0.66-1.01c0-1.03,0.41-1.61,1.07-1.73l-0.08-2.74
		c-1.92,0.19-3.09,1.75-3.09,4.41C17.42,214.43,18.72,216.02,20.53,216.02z"/>
	<rect x="23.32" y="200.93" width="3.55" height="3.55"/>
	<path d="M22.26,198.04c2.87,0,4.84-2.02,4.84-5.03c0-2.99-1.98-5.03-4.84-5.03c-2.84,0-4.84,2.04-4.84,5.03
		C17.42,196.02,19.42,198.04,22.26,198.04z M22.26,191.34c1.38,0,2.33,0.52,2.33,1.67c0,1.17-0.95,1.67-2.33,1.67
		c-1.38,0-2.33-0.49-2.33-1.67C19.94,191.86,20.88,191.34,22.26,191.34z"/>
	<path d="M17.77,179.53c-0.19,0.23-0.35,0.72-0.35,1.28c0,1.22,0.85,2.19,1.88,2.52h-1.63v3.34h9.19v-3.34h-4.21
		c-1.55,0-2.12-0.76-2.12-2c0-0.64,0.12-1.13,0.39-1.59L17.77,179.53z"/>
	<path d="M20.57,169.93c-0.43,0-0.82,0.1-1.18,0.29c-0.1-0.45-0.14-0.95-0.14-1.34h-2.52c0,1.01,0.66,2.02,1.42,2.58
		c-0.47,0.78-0.74,1.83-0.74,2.95c0,2.58,1.2,4.43,3.15,4.43c1.01,0,1.79-0.49,2.33-1.32c0.37,0.99,1.05,1.57,1.94,1.57
		c0.78,0,1.53-0.49,1.79-1.32c0.08,1.03,0.72,1.75,1.53,1.75c1.73,0,2.25-2.27,2.25-4.89c0-2.99-1.05-5.77-3.34-5.77
		c-1.55,0-2.64,1.05-2.64,3.13v3.81c0,0.56-0.25,0.78-0.56,0.78c-0.19,0-0.33-0.06-0.43-0.19c0.19-0.6,0.27-1.26,0.27-2
		C23.71,171.8,22.51,169.93,20.57,169.93z M20.57,175.33c-0.8,0-1.32-0.41-1.32-0.97c0-0.56,0.52-0.97,1.32-0.97
		c0.82,0,1.34,0.41,1.34,0.97C21.91,174.92,21.4,175.33,20.57,175.33z M27.27,172.77c0-0.56,0.14-0.85,0.54-0.85
		c0.56,0,0.87,1.13,0.87,2.68c0,1.24-0.19,2.16-0.84,2.16c-0.35,0-0.56-0.25-0.56-0.62V172.77z"/>
	<path d="M769.43,210.42v1.98l-2.02-0.49v-1.88l-2.06-0.43v1.81l-3.42-0.8v2.49l3.42,0.8v1.77l-3.42-0.8v2.49l3.42,0.8v2.04
		l2.06,0.43v-1.98l2.02,0.49v1.88l2.06,0.43v-1.83l3.42,0.82v-2.49l-3.42-0.82v-1.77l3.42,0.83v-2.49l-3.42-0.82v-2.02
		L769.43,210.42z M769.43,216.66l-2.02-0.49v-1.77l2.02,0.5V216.66z"/>
	<path d="M768.42,224.09c-4,0-6.74,2.87-6.74,6.66c0,3.98,2.52,6.1,5.75,6.35l0.14-3.36c-1.44-0.21-2.78-0.99-2.78-3.01
		c0-1.92,1.42-3.03,3.63-3.03s3.63,1.11,3.63,3.03c0,2.02-1.34,2.8-2.78,3.01l0.12,3.36c3.24-0.25,5.77-2.37,5.77-6.35
		C775.16,226.95,772.42,224.09,768.42,224.09z"/>
	<path d="M761.72,246.18c0,0.95,0.27,1.61,0.6,2.08h1.77c-0.1-0.27-0.14-0.47-0.14-0.74c0-0.35,0.21-0.56,0.68-0.56h3.13
		c2.56,0,3.61-1.79,3.61-4.23c0-2.76-1.4-4.27-3.42-4.56l-0.21,3.09c0.68,0.14,1.15,0.52,1.15,1.26c0,0.8-0.45,1.15-1.22,1.15h-0.14
		l-0.43-2.58c-0.35-2-1.11-3.28-2.89-3.28c-1.57,0-2.49,1.18-2.49,2.97c0,1.46,0.56,2.52,1.63,3.05
		C762.3,244.16,761.72,245.05,761.72,246.18z M764.65,241.05c0.6,0,0.85,0.47,1.01,1.28l0.25,1.36h-0.14c-1.2,0-1.9-0.76-1.9-1.71
		C763.87,241.42,764.18,241.05,764.65,241.05z"/>
	<path d="M758.63,252.57h4.87c-1.07,0.45-1.81,1.48-1.81,3.03c0,2.7,2.12,4.08,4.84,4.08c2.7,0,4.84-1.38,4.84-4.08
		c0-1.55-0.74-2.58-1.83-3.03h1.59v-3.34h-12.49V252.57z M766.46,252.57h0.12c1.32,0,2.19,0.72,2.19,1.86c0,1.3-0.93,1.9-2.25,1.9
		c-1.34,0-2.27-0.6-2.27-1.9C764.26,253.29,765.12,252.57,766.46,252.57z"/>
	<rect x="761.93" y="261" width="9.19" height="3.34"/>
	<rect x="771.99" y="260.98" width="2.93" height="3.38"/>
	<path d="M770.98,265.93l-0.1-0.68h-2.06v1.24h-4.33c-2.16,0-2.8,1.46-2.8,3.01c0,1.26,0.31,2.06,0.82,2.76h2.16
		c-0.23-0.56-0.31-1.01-0.31-1.42c0-0.68,0.31-1.05,1.09-1.05h3.36v2.39h2.31v-2.39h2.54v-2.1l-1.2-0.31
		C771.62,267.14,771.12,266.85,770.98,265.93z"/>
	<path d="M761.72,281.35c0,0.95,0.27,1.61,0.6,2.08h1.77c-0.1-0.27-0.14-0.47-0.14-0.74c0-0.35,0.21-0.56,0.68-0.56h3.13
		c2.56,0,3.61-1.79,3.61-4.23c0-2.76-1.4-4.27-3.42-4.56l-0.21,3.09c0.68,0.14,1.15,0.52,1.15,1.26c0,0.8-0.45,1.15-1.22,1.15h-0.14
		l-0.43-2.58c-0.35-2-1.11-3.28-2.89-3.28c-1.57,0-2.49,1.18-2.49,2.97c0,1.46,0.56,2.51,1.63,3.05
		C762.3,279.33,761.72,280.21,761.72,281.35z M764.65,276.21c0.6,0,0.85,0.47,1.01,1.28l0.25,1.36h-0.14c-1.2,0-1.9-0.76-1.9-1.71
		C763.87,276.58,764.18,276.21,764.65,276.21z"/>
	<rect x="761.93" y="284.39" width="12.99" height="3.34"/>
	<rect x="771.99" y="289.53" width="2.93" height="3.38"/>
	<rect x="761.93" y="289.55" width="9.19" height="3.34"/>
	<path d="M764.73,302.92c1.79,0,2.72-1.2,3.05-3.26l0.31-1.79c0.04-0.31,0.21-0.56,0.52-0.56c0.41,0,0.66,0.37,0.66,1.01
		c0,1.03-0.41,1.61-1.07,1.73l0.08,2.74c1.92-0.19,3.09-1.75,3.09-4.41c0-2.58-1.3-4.16-3.11-4.16c-1.88,0-2.6,1.18-2.95,3.4
		l-0.21,1.36c-0.1,0.64-0.35,0.85-0.7,0.85c-0.37,0-0.64-0.39-0.64-1.13c0-1.01,0.43-1.63,1.2-1.75l-0.04-2.91
		c-2.23,0.19-3.24,2.08-3.24,4.62C761.68,301.28,762.79,302.92,764.73,302.92z"/>
	<path d="M771.37,310.41c0-1.38-0.62-2.37-1.63-2.87h1.38v-3.34h-9.19v3.34h4.51c1.38,0,2.29,0.39,2.29,1.48
		c0,1.01-0.66,1.26-1.92,1.26h-4.89v3.34h4.51c1.38,0,2.29,0.37,2.29,1.48c0,1.01-0.66,1.24-1.92,1.24h-4.89v3.34h5.77
		c1.92,0,3.67-0.74,3.67-3.28c0-1.55-0.78-2.64-1.81-3.13C770.63,312.88,771.37,312.03,771.37,310.41z"/>
	<rect x="761.93" y="323.27" width="12.99" height="3.5"/>
	<path d="M764.96,330.92l-0.04-2.91c-2.23,0.19-3.24,2.08-3.24,4.62c0,2.62,1.11,4.27,3.05,4.27c1.79,0,2.72-1.2,3.05-3.26
		l0.31-1.79c0.04-0.31,0.21-0.56,0.52-0.56c0.41,0,0.66,0.37,0.66,1.01c0,1.03-0.41,1.61-1.07,1.73l0.08,2.74
		c1.92-0.19,3.09-1.75,3.09-4.41c0-2.58-1.3-4.16-3.11-4.16c-1.88,0-2.6,1.18-2.95,3.4l-0.21,1.36c-0.1,0.64-0.35,0.85-0.7,0.85
		c-0.37,0-0.64-0.39-0.64-1.13C763.76,331.66,764.2,331.04,764.96,330.92z"/>
	<path d="M774.92,344.24l-12.99-5.17v3.52l2.52,0.97v5.07l-2.52,0.97v3.73l12.99-5.17V344.24z M770.9,346.14l-3.83,1.48v-3.05
		l3.83,1.48V346.14z"/>
	<polygon points="774.92,358.8 774.92,355.13 761.93,360.12 761.93,363.81 774.92,368.8 774.92,365.31 766.28,362.1 766.28,362.01 	
		"/>
	<rect x="771.99" y="369.68" width="2.93" height="3.38"/>
	<rect x="761.93" y="369.7" width="9.19" height="3.34"/>
	<path d="M769.5,378.19h1.63v-3.34h-9.19v3.34h4.21c1.55,0,2.12,0.76,2.12,2c0,0.64-0.12,1.13-0.39,1.59l3.15,0.21
		c0.19-0.23,0.35-0.72,0.35-1.28C771.37,379.49,770.53,378.52,769.5,378.19z"/>
	<path d="M766.22,386.25h4.91v-3.34h-5.79c-1.92,0-3.65,0.76-3.65,3.28c0,1.38,0.6,2.39,1.63,2.89h-1.38v3.34h9.19v-3.34h-4.51
		c-1.4,0-2.31-0.41-2.31-1.46C764.3,386.6,764.98,386.25,766.22,386.25z"/>
	<path d="M768.2,399.59l0.08,2.74c1.92-0.19,3.09-1.75,3.09-4.41c0-2.58-1.3-4.16-3.11-4.16c-1.88,0-2.6,1.17-2.95,3.4l-0.21,1.36
		c-0.1,0.64-0.35,0.85-0.7,0.85c-0.37,0-0.64-0.39-0.64-1.13c0-1.01,0.43-1.63,1.2-1.75l-0.04-2.91c-2.23,0.19-3.24,2.08-3.24,4.62
		c0,2.62,1.11,4.27,3.05,4.27c1.79,0,2.72-1.2,3.05-3.26l0.31-1.79c0.04-0.31,0.21-0.56,0.52-0.56c0.41,0,0.66,0.37,0.66,1.01
		C769.27,398.88,768.86,399.46,768.2,399.59z"/>
</g>
</svg>
