<?xml version="1.0" encoding="utf-8"?>
<!-- Generator: Adobe Illustrator 23.1.1, SVG Export Plug-In . SVG Version: 6.00 Build 0)  -->
<svg version="1.1" xmlns="http://www.w3.org/2000/svg" xmlns:xlink="http://www.w3.org/1999/xlink" x="0px" y="0px"
	 viewBox="0 0 792 612" style="enable-background:new 0 0 792 612;" xml:space="preserve">
<style type="text/css">
	.st0{display:none;}
	.st1{display:inline;}
	
		.st2{display:inline;fill:#FFFFFF;stroke:#000000;stroke-width:16;stroke-linecap:round;stroke-linejoin:round;stroke-miterlimit:10;}
	.st3{fill:#FFFFFF;stroke:#000000;stroke-width:16;stroke-linecap:round;stroke-linejoin:round;stroke-miterlimit:10;}
	.st4{display:inline;fill:none;stroke:#000000;stroke-width:24;stroke-linejoin:round;stroke-miterlimit:10;}
	.st5{display:inline;fill:#FFFFFF;}
	.st6{fill:#FFFFFF;stroke:#000000;stroke-width:17;stroke-linecap:round;stroke-miterlimit:10;}
	.st7{fill:#FFFFFF;stroke:#000000;stroke-width:17;stroke-miterlimit:10;}
	.st8{stroke:#000000;stroke-width:16.0572;stroke-linecap:round;stroke-miterlimit:10;}
	.st9{fill:#FFFFFF;}
	.st10{fill:#FFFFFF;stroke:#000000;stroke-width:17.1072;stroke-linecap:round;stroke-linejoin:round;stroke-miterlimit:10;}
	.st11{stroke:#000000;stroke-width:17.1072;stroke-linecap:round;stroke-linejoin:round;stroke-miterlimit:10;}
	.st12{fill:#FFFFFF;stroke:#000000;stroke-width:14.7375;stroke-linecap:round;stroke-linejoin:round;stroke-miterlimit:10;}
	.st13{fill:none;stroke:#000000;stroke-width:14.7375;stroke-linecap:round;stroke-linejoin:round;stroke-miterlimit:10;}
	.st14{stroke:#000000;stroke-width:14.7375;stroke-linecap:round;stroke-linejoin:round;stroke-miterlimit:10;}
	.st15{fill:#FFFFFF;stroke:#000000;stroke-width:14.2911;stroke-linecap:round;stroke-linejoin:round;stroke-miterlimit:10;}
	.st16{fill:none;stroke:#000000;stroke-width:13.497;stroke-miterlimit:10;}
	.st17{fill:#FFFFFF;stroke:#000000;stroke-width:13.497;stroke-linecap:round;stroke-linejoin:round;stroke-miterlimit:10;}
	.st18{fill:#FFFFFF;stroke:#000000;stroke-width:13.497;stroke-miterlimit:10;}
	.st19{fill:#FFFFFF;stroke:#000000;stroke-width:14.7439;stroke-linecap:round;stroke-miterlimit:10;}
	.st20{fill:#FFFFFF;stroke:#000000;stroke-width:14.7439;stroke-miterlimit:10;}
	.st21{stroke:#000000;stroke-width:13.9262;stroke-linecap:round;stroke-miterlimit:10;}
	
		.st22{display:inline;fill:#FFFFFF;stroke:#000000;stroke-width:14.6942;stroke-linecap:round;stroke-linejoin:round;stroke-miterlimit:10;}
	.st23{fill:#FFFFFF;stroke:#000000;stroke-width:14.6942;stroke-linecap:round;stroke-linejoin:round;stroke-miterlimit:10;}
	.st24{fill:none;stroke:#000000;stroke-width:24;stroke-linejoin:round;stroke-miterlimit:10;}
	.st25{fill:none;stroke:#000000;stroke-width:30.5612;stroke-linecap:round;stroke-linejoin:round;stroke-miterlimit:10;}
	.st26{fill:#FFFFFF;stroke:#000000;stroke-width:16.2993;stroke-linecap:round;stroke-linejoin:round;stroke-miterlimit:10;}
	.st27{display:inline;fill:#FFFFFF;stroke:#000000;stroke-width:13.497;stroke-linecap:round;stroke-miterlimit:10;}
	
		.st28{display:inline;fill:none;stroke:#000000;stroke-width:13.497;stroke-linecap:round;stroke-linejoin:round;stroke-miterlimit:10;}
	
		.st29{display:inline;fill:#FFFFFF;stroke:#000000;stroke-width:13.497;stroke-linecap:round;stroke-linejoin:round;stroke-miterlimit:10;}
	
		.st30{display:inline;fill:url(#);stroke:#000000;stroke-width:13.497;stroke-linecap:round;stroke-linejoin:round;stroke-miterlimit:10;}
	.st31{fill:#FFFFFF;stroke:#000000;stroke-width:15.2362;stroke-linecap:round;stroke-linejoin:round;stroke-miterlimit:10;}
	.st32{fill:#FFFFFF;stroke:#000000;stroke-width:14.8467;stroke-linecap:round;stroke-linejoin:round;stroke-miterlimit:10;}
	.st33{stroke:#000000;stroke-width:20.1683;stroke-linecap:round;stroke-miterlimit:10;}
	.st34{fill:none;stroke:#000000;stroke-width:14.8467;stroke-linecap:round;stroke-linejoin:round;stroke-miterlimit:10;}
	.st35{fill:#FFFFFF;stroke:#FFFFFF;stroke-width:3;stroke-miterlimit:10;}
	.st36{display:inline;fill:none;stroke:#000000;stroke-width:15;stroke-linecap:round;stroke-linejoin:round;stroke-miterlimit:10;}
	
		.st37{display:inline;fill:#FFFFFF;stroke:#000000;stroke-width:15;stroke-linecap:round;stroke-linejoin:round;stroke-miterlimit:10;}
	.st38{fill:#FFFFFF;stroke:#000000;stroke-width:15;stroke-linecap:round;stroke-linejoin:round;stroke-miterlimit:10;}
	.st39{fill:#FFFFFF;stroke:#000000;stroke-width:11.7326;stroke-linecap:round;stroke-linejoin:round;stroke-miterlimit:10;}
	.st40{fill:#FFFFFF;stroke:#000000;stroke-width:13.2623;stroke-linecap:round;stroke-linejoin:round;stroke-miterlimit:10;}
	.st41{fill:none;stroke:#000000;stroke-width:16;stroke-linecap:round;stroke-miterlimit:10;}
	.st42{fill:url(#);stroke:#000000;stroke-width:16;stroke-linecap:round;stroke-linejoin:round;stroke-miterlimit:10;}
	.st43{fill:#FFFFFF;stroke:#000000;stroke-width:16;stroke-linecap:round;stroke-miterlimit:10;}
	.st44{font-family:'FoundersGrotesk-Bold';}
	.st45{font-size:20.6105px;}
	.st46{font-size:10.3052px;}
	.st47{font-size:19.2364px;}
	.st48{font-size:10px;}
	.st49{fill:#FFFFFF;stroke:#000000;stroke-width:13.2623;stroke-linecap:round;stroke-miterlimit:10;}
	.st50{stroke:#000000;stroke-width:4.5213;stroke-miterlimit:10;}
	.st51{fill:none;stroke:#000000;stroke-width:15.2344;stroke-linecap:round;stroke-linejoin:round;stroke-miterlimit:10;}
	.st52{fill:#FFFFFF;stroke:#000000;stroke-width:15.2344;stroke-linecap:round;stroke-linejoin:round;stroke-miterlimit:10;}
	.st53{stroke:#000000;stroke-width:18.3348;stroke-linecap:round;stroke-miterlimit:10;}
	.st54{fill:none;stroke:#000000;stroke-width:13.497;stroke-linecap:round;stroke-linejoin:round;stroke-miterlimit:10;}
	.st55{fill:#FFFFFF;stroke:#000000;stroke-width:15;stroke-linecap:square;stroke-linejoin:round;stroke-miterlimit:10;}
	.st56{fill:#FFFFFF;stroke:#000000;stroke-width:15;stroke-linejoin:round;stroke-miterlimit:10;}
	.st57{fill:none;stroke:#000000;stroke-width:15;stroke-linecap:round;stroke-linejoin:round;stroke-miterlimit:10;}
	.st58{fill:url(#);stroke:#000000;stroke-width:13.497;stroke-linecap:round;stroke-linejoin:round;stroke-miterlimit:10;}
	.st59{display:inline;fill:none;stroke:#000000;stroke-width:16;stroke-linecap:round;stroke-linejoin:round;stroke-miterlimit:10;}
	.st60{fill:#FFFFFF;stroke:#000000;stroke-width:13.3058;stroke-linecap:round;stroke-linejoin:round;stroke-miterlimit:10;}
	.st61{fill:#FFFFFF;stroke:#000000;stroke-width:17;stroke-linecap:round;stroke-linejoin:round;stroke-miterlimit:10;}
	.st62{fill:#FFFFFF;stroke:#000000;stroke-width:15.2517;stroke-linecap:round;stroke-linejoin:round;stroke-miterlimit:10;}
	.st63{stroke:#000000;stroke-width:3;stroke-miterlimit:10;}
	.st64{fill:none;}
	.st65{fill:#06A6FF;}
	.st66{fill:#FF0303;}
	.st67{fill:#3DFF06;}
	.st68{fill:none;stroke:#000000;stroke-width:0;stroke-linecap:round;stroke-linejoin:round;}
</style>
<g id="Layer_1" class="st0">
	<g class="st1">
		<g>
			<g>
				<path class="st25" d="M673.1,512.72l33.72-10.7c7.64-2.43,10.92-13.57,7.33-24.89l-28.14-88.65
					c-21.39-67.37-68.03-125.83-121.04-109c-53.02,16.83-57.4,91.49-36.02,158.86l28.14,88.65c3.59,11.32,12.7,18.53,20.34,16.1
					l33.19-10.54"/>
				<path class="st25" d="M564.96,279.48C444.44,30.14,247.05,137.59,226.41,379.5"/>
				<g>
					<path class="st9" d="M427.2,142.05c0,0,66.96-25.81,79.76,46.75s-13.37,99.87-30.38,112.89
						c-17.01,13.02,5.08,237.07,6.06,287.02H331.21"/>
					<g>
						<path class="st26" d="M492.64,223.83c-5.94,9.81-19.17,12.68-29.54,6.39c-10.38-6.28-13.97-19.33-8.03-29.14l39.39-65.06
							c5.94-9.81,19.17-12.68,29.54-6.39c10.38,6.28,13.97,19.33,8.03,29.14L492.64,223.83z"/>
						<path class="st26" d="M455.07,201.08c-5.94,9.81-19.17,12.68-29.54,6.39c-10.38-6.28-13.97-19.33-8.03-29.14l45.81-75.67
							c5.94-9.81,19.17-12.68,29.54-6.39c10.38,6.28,13.97,19.33,8.03,29.14L455.07,201.08z"/>
						<path class="st26" d="M380.1,155.7c-5.94,9.81-19.17,12.68-29.54,6.39c-10.38-6.28-13.97-19.33-8.03-29.14l45.81-75.67
							c5.94-9.81,19.17-12.68,29.54-6.39c10.38,6.28,13.97,19.33,8.03,29.14L380.1,155.7z"/>
						<path class="st26" d="M417.67,178.44c-5.94,9.81-19.17,12.68-29.54,6.39c-10.38-6.28-13.97-19.33-8.03-29.14l52.24-86.29
							c5.94-9.81,19.17-12.68,29.54-6.39c10.38,6.28,13.97,19.33,8.03,29.14L417.67,178.44z"/>
					</g>
					<path class="st9" d="M418.27,271.12c0,0,17.01-65.53-46.76-92c3.08-5.3,6.72-11.58,6.72-11.58s16.22,6.95,31.44-2.98
						s17.54-22.5,17.54-22.5s-55.93-26.81-65.53-30.78c-9.6-3.97-19.86,0-30.12,13.24s-43.35,54.61-42.03,80.42s39.71,64.53,46,82.4
						c6.29,17.87,11.58,69.83,5.96,103.58h87.29"/>
				</g>
				<g>
					<path class="st26" d="M427.2,142.05c0,0,66.96-25.81,79.76,46.75s-12.15,108.32-29.11,125.39
						c-20.02,25.27,4.8,145.07,4.8,267.45"/>
					<g>
						<path class="st26" d="M492.64,223.83c-5.94,9.81-19.17,12.68-29.54,6.39c-10.38-6.28-13.97-19.33-8.03-29.14l39.39-65.06
							c5.94-9.81,19.17-12.68,29.54-6.39c10.38,6.28,13.97,19.33,8.03,29.14L492.64,223.83z"/>
						<path class="st26" d="M455.07,201.08c-5.94,9.81-19.17,12.68-29.54,6.39c-10.38-6.28-13.97-19.33-8.03-29.14l45.81-75.67
							c5.94-9.81,19.17-12.68,29.54-6.39c10.38,6.28,13.97,19.33,8.03,29.14L455.07,201.08z"/>
						<path class="st26" d="M380.1,155.7c-5.94,9.81-19.17,12.68-29.54,6.39c-10.38-6.28-13.97-19.33-8.03-29.14l45.81-75.67
							c5.94-9.81,19.17-12.68,29.54-6.39c10.38,6.28,13.97,19.33,8.03,29.14L380.1,155.7z"/>
						<path class="st26" d="M417.67,178.44c-5.94,9.81-19.17,12.68-29.54,6.39c-10.38-6.28-13.97-19.33-8.03-29.14l52.24-86.29
							c5.94-9.81,19.17-12.68,29.54-6.39c10.38,6.28,13.97,19.33,8.03,29.14L417.67,178.44z"/>
					</g>
					<path class="st26" d="M418.27,271.12c0,0,17.01-65.53-46.76-92c3.08-5.3,6.72-11.58,6.72-11.58s16.22,6.95,31.44-2.98
						s17.54-22.5,17.54-22.5s-55.93-26.81-65.53-30.78c-9.6-3.97-19.86,0-30.12,13.24s-43.35,54.61-42.03,80.42s42.51,63.78,46,82.4
						c12.65,67.5-4.32,116.76-4.32,301.38"/>
				</g>
				<circle class="st26" cx="226.41" cy="427.05" r="58.69"/>
			</g>
			<line class="st26" x1="391.49" y1="179.93" x2="411.76" y2="174.32"/>
		</g>
	</g>
	<text transform="matrix(8.979319e-11 -1 1 8.979319e-11 26.8615 443.1503)" class="st1"><tspan x="0" y="0" class="st44 st45">www</tspan><tspan x="45.14" y="0" class="st44 st46"> </tspan><tspan x="46.99" y="0" class="st44 st45">.</tspan><tspan x="51.77" y="0" class="st44 st46"> </tspan><tspan x="53.63" y="0" class="st44 st45">Capitalism</tspan><tspan x="150.43" y="0" class="st44 st47"> </tspan><tspan x="153.9" y="0" class="st44 st45">Is</tspan><tspan x="168.88" y="0" class="st44 st47"> </tspan><tspan x="172.34" y="0" class="st44 st45">A</tspan><tspan x="186.6" y="0" class="st44 st46"> </tspan><tspan x="188.46" y="0" class="st44 st45">Virus</tspan><tspan x="236.15" y="0" class="st44 st46"> </tspan><tspan x="238.01" y="0" class="st44 st45">.</tspan><tspan x="242.79" y="0" class="st44 st46"> </tspan><tspan x="244.64" y="0" class="st44 st45">org</tspan></text>
	<text transform="matrix(0 1 -1 0 761.9292 209.1802)" class="st1"><tspan x="0" y="0" class="st44 st45">#</tspan><tspan x="12.7" y="0" class="st44 st48"> </tspan><tspan x="14.5" y="0" class="st44 st45">Capitalism</tspan><tspan x="111.3" y="0" class="st44 st48"> </tspan><tspan x="113.1" y="0" class="st44 st45">Is</tspan><tspan x="128.09" y="0" class="st44 st48"> </tspan><tspan x="129.89" y="0" class="st44 st45">A</tspan><tspan x="144.15" y="0" class="st44 st48"> </tspan><tspan x="145.95" y="0" class="st44 st45">Virus</tspan></text>
</g>
<g id="Layer_1_copy">
	<polygon class="st64" points="767.41,216.17 769.43,216.66 769.43,214.89 767.41,214.4 	"/>
	<polygon class="st64" points="767.06,347.62 770.9,346.14 770.9,346.05 767.06,344.57 	"/>
	<path class="st64" d="M765.76,278.85h0.14l-0.25-1.36c-0.16-0.8-0.41-1.28-1.01-1.28c-0.47,0-0.78,0.37-0.78,0.93
		C763.87,278.09,764.57,278.85,765.76,278.85z"/>
	<path class="st64" d="M766.53,256.32c1.32,0,2.25-0.6,2.25-1.9c0-1.13-0.87-1.86-2.19-1.86h-0.12c-1.34,0-2.21,0.72-2.21,1.86
		C764.26,255.73,765.19,256.32,766.53,256.32z"/>
	<path class="st64" d="M765.76,243.69h0.14l-0.25-1.36c-0.16-0.8-0.41-1.28-1.01-1.28c-0.47,0-0.78,0.37-0.78,0.93
		C763.87,242.93,764.57,243.69,765.76,243.69z"/>
	<polygon class="st64" points="21.73,262.2 17.89,263.69 17.89,263.77 21.73,265.25 	"/>
	<path class="st64" d="M22.26,356.82c-1.32,0-2.25,0.6-2.25,1.9c0,1.13,0.87,1.86,2.19,1.86h0.12c1.34,0,2.21-0.72,2.21-1.86
		C24.53,357.42,23.6,356.82,22.26,356.82z"/>
	<path class="st64" d="M20.57,173.39c-0.8,0-1.32,0.41-1.32,0.97c0,0.56,0.52,0.97,1.32,0.97c0.82,0,1.34-0.41,1.34-0.97
		C21.91,173.8,21.4,173.39,20.57,173.39z"/>
	<path class="st64" d="M23.03,369.46h-0.14l0.25,1.36c0.16,0.8,0.41,1.28,1.01,1.28c0.47,0,0.78-0.37,0.78-0.93
		C24.92,370.22,24.22,369.46,23.03,369.46z"/>
	<path class="st64" d="M22.26,194.68c1.38,0,2.33-0.49,2.33-1.67c0-1.15-0.95-1.67-2.33-1.67c-1.38,0-2.33,0.52-2.33,1.67
		C19.94,194.19,20.88,194.68,22.26,194.68z"/>
	<path class="st64" d="M23.03,334.3h-0.14l0.25,1.36c0.16,0.8,0.41,1.28,1.01,1.28c0.47,0,0.78-0.37,0.78-0.93
		C24.92,335.06,24.22,334.3,23.03,334.3z"/>
	<path class="st64" d="M27.81,171.93c-0.39,0-0.54,0.29-0.54,0.85v3.38c0,0.37,0.21,0.62,0.56,0.62c0.66,0,0.84-0.93,0.84-2.16
		C28.68,173.06,28.37,171.93,27.81,171.93z"/>
	<path d="M728.71,472.5l-28.14-88.65c-11.96-37.68-30.58-70.45-52.43-92.26c-22.88-22.85-49.02-33.07-74.82-29.59
		c-14.99-29.23-31.42-54.13-49.16-74.52L539,163c4.04-6.68,5.11-14.59,2.99-22.28c-2.07-7.52-6.96-13.93-13.77-18.05
		c-5.07-3.07-10.77-4.61-16.5-4.51c1.18-11.05-4.19-22.53-14.64-28.86c-5.01-3.04-10.65-4.57-16.31-4.51
		c1.13-11.02-4.23-22.44-14.65-28.75c-10.45-6.33-23.11-5.77-32.36,0.4c-2.57-5.12-6.57-9.46-11.64-12.53
		c-6.81-4.12-14.76-5.48-22.38-3.83c-7.79,1.69-14.31,6.29-18.36,12.98l-29.5,48.72c-12.01,1.29-21.47,10.93-26.75,17.74l-1.36,1.75
		c-13.46,17.3-28.16,37.67-36.24,56.61c-7.68,8.56-14.94,18-21.69,28.28c-27.53,41.95-45.7,95.41-52.93,155.43
		c-30.4,6.26-53.33,33.24-53.33,65.47c0,36.86,29.99,66.84,66.84,66.84s66.84-29.98,66.84-66.84c0-30.92-21.11-56.99-49.67-64.6
		c6.59-51.95,21.92-98.15,44.78-134.81c5.47,10.59,13.43,21.45,21.23,32.1c8.24,11.24,16.76,22.87,17.92,29.09
		c6.74,35.98,4.83,66.75,1.66,117.74c-2.58,41.52-6.12,98.39-6.12,182.14c0,4.5,3.65,8.15,8.15,8.15s8.15-3.65,8.15-8.15v0
		c0-83.24,3.52-139.81,6.09-181.12c3.25-52.25,5.21-83.79-1.9-121.76c-1.85-9.86-10.63-21.84-20.8-35.72
		c-10.89-14.87-24.45-33.37-25.08-45.6c-1.11-21.73,29.04-60.5,38.95-73.24l1.38-1.77c7.48-9.65,14.4-13.25,20.56-10.7
		c7.29,3.02,42.96,20.01,58.2,27.29c-1.99,3.35-5.49,7.69-11.55,11.64c-11.23,7.32-23.32,2.5-23.78,2.31
		c-3.79-1.62-8.2-0.16-10.26,3.41c0,0-3.64,6.28-6.71,11.57c-1.18,2.03-1.43,4.47-0.68,6.7s2.43,4.02,4.6,4.92
		c56.28,23.36,42.6,80.05,42,82.45c-1.12,4.35,1.5,8.79,5.85,9.91c4.36,1.13,8.8-1.48,9.94-5.84c0.19-0.74,4.66-18.39,0.65-39.63
		c-1.14-6.03-3.04-12.7-6.15-19.49c0.22,0.14,0.43,0.28,0.65,0.41c4.92,2.98,10.44,4.52,16,4.52c2.13,0,4.27-0.23,6.38-0.68
		c0.39-0.08,0.77-0.18,1.16-0.28c1.79,7.66,6.64,14.72,14.04,19.2c5.03,3.04,10.57,4.5,15.99,4.5c9.89,0,19.41-4.83,24.74-13.64
		c0,0,0,0,0,0l2.69-4.44c0.62,35.51-9.49,63.96-30.24,84.84c-0.21,0.22-0.42,0.44-0.61,0.68c-13.95,17.6-10.18,63.28-4.48,132.42
		c3.52,42.69,7.51,91.08,7.51,140.09c0,3.03,1.66,5.66,4.11,7.07c1.19,0.68,2.57,1.08,4.04,1.08c4.5,0,8.15-3.65,8.15-8.15
		c0-49.69-4.02-98.43-7.57-141.43c-4.56-55.3-8.87-107.56,0.77-120.65c22.41-22.75,33.98-52.74,34.62-89.47
		c8.9,12.6,17.45,26.66,25.56,42.1c-20.94,12.57-34.98,35.12-40.18,65.16c-5.26,30.42-1.58,67.93,10.38,105.61l28.14,88.65
		c2.65,8.35,7.53,15.65,13.73,20.56c5.54,4.38,11.86,6.67,18.12,6.67c2.59,0,5.17-0.39,7.68-1.19l33.19-10.54
		c8.04-2.55,12.49-11.14,9.94-19.19c-2.55-8.04-11.14-12.5-19.19-9.94l-31.16,9.89c-0.95-0.91-2.3-2.75-3.18-5.52l-28.14-88.65
		c-10.51-33.1-13.84-65.47-9.4-91.15c4.53-26.16,16.46-42.48,35.48-48.52c19.01-6.04,38.18,0.41,56.96,19.17
		c18.44,18.42,34.39,46.79,44.89,79.89l28.14,88.65c0.88,2.77,0.83,5.06,0.58,6.34l-31.69,10.06c-8.04,2.55-12.49,11.14-9.94,19.19
		c2.55,8.04,11.14,12.5,19.19,9.94l33.72-10.7c8.56-2.72,15.09-9.77,17.91-19.36C731.59,489.63,731.36,480.85,728.71,472.5z
		 M276.95,427.05c0,27.87-22.67,50.54-50.54,50.54s-50.54-22.67-50.54-50.54c0-27.87,22.67-50.54,50.54-50.54
		S276.95,399.18,276.95,427.05z M368.7,105.45l26.61-43.95c1.7-2.81,4.49-4.76,7.86-5.49c0.96-0.21,1.94-0.31,2.92-0.31
		c2.61,0,5.22,0.73,7.57,2.16c3.23,1.95,5.54,4.95,6.5,8.44c0.92,3.32,0.48,6.7-1.22,9.51l-25.05,41.37
		C383.97,112.49,374.42,108.02,368.7,105.45z M408.7,124.19l30.61-50.56c2.27-3.76,6.39-5.79,10.76-5.79c2.55,0,5.19,0.7,7.59,2.15
		c6.51,3.94,8.88,12,5.28,17.95l-29.55,48.81c-0.72-0.84-1.62-1.55-2.67-2.05C429.79,134.25,420.29,129.7,408.7,124.19z
		 M448.1,196.86c-1.7,2.81-4.49,4.76-7.86,5.49c-3.54,0.77-7.26,0.11-10.49-1.84c-3.23-1.95-5.54-4.95-6.5-8.44
		c-0.75-2.72-0.58-5.48,0.44-7.93c0.33-0.48,0.66-0.97,0.96-1.47l46.92-77.5c1.68-1.88,3.95-3.2,6.58-3.77
		c0.96-0.21,1.94-0.31,2.92-0.31c2.61,0,5.22,0.73,7.57,2.16c6.51,3.94,8.88,12,5.28,17.95L448.1,196.86z M485.67,219.61
		c-3.6,5.95-11.84,7.59-18.35,3.64c-6.51-3.94-8.88-12-5.28-17.95l39.39-65.06c1.7-2.81,4.49-4.76,7.86-5.49
		c0.96-0.21,1.94-0.31,2.92-0.31c2.61,0,5.22,0.73,7.57,2.16c3.23,1.95,5.54,4.95,6.5,8.44c0.92,3.32,0.48,6.7-1.22,9.51
		L485.67,219.61z"/>
	<polygon points="26.86,404.1 26.86,400.82 17.67,397.92 17.67,400.93 22.88,402.58 22.88,402.66 17.67,404 17.67,406.66 22.88,408 
		22.88,408.08 17.67,409.73 17.67,412.96 17.67,413.05 17.67,415.97 22.88,417.62 22.88,417.71 17.67,419.04 17.67,421.7 
		22.88,423.04 22.88,423.13 17.67,424.78 17.67,428.01 17.67,428.09 17.67,431.02 22.88,432.67 22.88,432.75 17.67,434.09 
		17.67,436.75 22.88,438.09 22.88,438.17 17.67,439.82 17.67,443.14 26.86,440.23 26.86,436.96 21.67,435.62 21.67,435.53 
		26.86,434.19 26.86,430.92 17.8,428.05 26.86,425.19 26.86,421.91 21.67,420.57 21.67,420.49 26.86,419.15 26.86,415.87 
		17.8,413.01 26.86,410.14 26.86,406.86 21.67,405.52 21.67,405.44 	"/>
	<rect x="23.32" y="391.94" width="3.55" height="3.55"/>
	<path d="M20.37,389.06c4,0,6.74-2.87,6.74-6.66c0-3.98-2.52-6.1-5.75-6.35l-0.14,3.36c1.44,0.21,2.78,0.99,2.78,3.01
		c0,1.92-1.42,3.03-3.63,3.03c-2.21,0-3.63-1.11-3.63-3.03c0-2.02,1.34-2.8,2.78-3.01l-0.12-3.36c-3.24,0.25-5.77,2.37-5.77,6.35
		C13.63,386.19,16.37,389.06,20.37,389.06z"/>
	<path d="M27.07,366.96c0-0.95-0.27-1.61-0.6-2.08H24.7c0.1,0.27,0.14,0.47,0.14,0.74c0,0.35-0.21,0.56-0.68,0.56h-3.13
		c-2.56,0-3.61,1.79-3.61,4.23c0,2.76,1.4,4.27,3.42,4.56l0.21-3.09c-0.68-0.14-1.15-0.52-1.15-1.26c0-0.8,0.45-1.15,1.22-1.15h0.14
		l0.43,2.58c0.35,2,1.11,3.28,2.89,3.28c1.57,0,2.49-1.17,2.49-2.97c0-1.46-0.56-2.52-1.63-3.05
		C26.49,368.98,27.07,368.1,27.07,366.96z M24.14,372.1c-0.6,0-0.85-0.47-1.01-1.28l-0.25-1.36h0.14c1.2,0,1.9,0.76,1.9,1.71
		C24.92,371.72,24.61,372.1,24.14,372.1z"/>
	<path d="M30.16,360.57h-4.86c1.07-0.45,1.81-1.48,1.81-3.03c0-2.7-2.12-4.08-4.84-4.08c-2.7,0-4.84,1.38-4.84,4.08
		c0,1.55,0.74,2.58,1.83,3.03h-1.59v3.34h12.49V360.57z M22.33,360.57H22.2c-1.32,0-2.19-0.72-2.19-1.86c0-1.3,0.93-1.9,2.25-1.9
		c1.34,0,2.27,0.6,2.27,1.9C24.53,359.85,23.67,360.57,22.33,360.57z"/>
	<rect x="13.87" y="348.79" width="2.93" height="3.38"/>
	<rect x="17.67" y="348.81" width="9.19" height="3.34"/>
	<path d="M17.81,347.22l0.1,0.68h2.06v-1.24h4.33c2.16,0,2.8-1.46,2.8-3.01c0-1.26-0.31-2.06-0.82-2.76h-2.16
		c0.23,0.56,0.31,1.01,0.31,1.42c0,0.68-0.31,1.05-1.09,1.05h-3.36v-2.39h-2.31v2.39h-2.54v2.1l1.2,0.31
		C17.17,346,17.67,346.29,17.81,347.22z"/>
	<path d="M27.07,331.8c0-0.95-0.27-1.61-0.6-2.08H24.7c0.1,0.27,0.14,0.47,0.14,0.74c0,0.35-0.21,0.56-0.68,0.56h-3.13
		c-2.56,0-3.61,1.79-3.61,4.23c0,2.76,1.4,4.27,3.42,4.56l0.21-3.09c-0.68-0.14-1.15-0.52-1.15-1.26c0-0.8,0.45-1.15,1.22-1.15h0.14
		l0.43,2.58c0.35,2,1.11,3.28,2.89,3.28c1.57,0,2.49-1.17,2.49-2.97c0-1.46-0.56-2.52-1.63-3.05
		C26.49,333.82,27.07,332.94,27.07,331.8z M24.14,336.93c-0.6,0-0.85-0.47-1.01-1.28l-0.25-1.36h0.14c1.2,0,1.9,0.76,1.9,1.71
		C24.92,336.56,24.61,336.93,24.14,336.93z"/>
	<rect x="13.87" y="325.41" width="12.99" height="3.34"/>
	<rect x="13.87" y="320.24" width="2.93" height="3.38"/>
	<rect x="17.67" y="320.26" width="9.19" height="3.34"/>
	<path d="M24.06,310.22c-1.79,0-2.72,1.2-3.05,3.26l-0.31,1.79c-0.04,0.31-0.21,0.56-0.52,0.56c-0.41,0-0.66-0.37-0.66-1.01
		c0-1.03,0.41-1.61,1.07-1.73l-0.08-2.74c-1.92,0.19-3.09,1.75-3.09,4.41c0,2.58,1.3,4.16,3.11,4.16c1.88,0,2.6-1.17,2.95-3.4
		l0.21-1.36c0.1-0.64,0.35-0.85,0.7-0.85c0.37,0,0.64,0.39,0.64,1.13c0,1.01-0.43,1.63-1.2,1.75l0.04,2.91
		c2.23-0.19,3.24-2.08,3.24-4.62C27.11,311.87,26,310.22,24.06,310.22z"/>
	<path d="M17.42,302.74c0,1.38,0.62,2.37,1.63,2.87h-1.38v3.34h9.19v-3.34h-4.51c-1.38,0-2.29-0.39-2.29-1.48
		c0-1.01,0.66-1.26,1.92-1.26h4.89v-3.34h-4.51c-1.38,0-2.29-0.37-2.29-1.48c0-1.01,0.66-1.24,1.92-1.24h4.89v-3.34h-5.77
		c-1.92,0-3.67,0.74-3.67,3.28c0,1.55,0.78,2.64,1.81,3.13C18.16,300.27,17.42,301.11,17.42,302.74z"/>
	<rect x="13.87" y="284.71" width="12.99" height="3.5"/>
	<path d="M23.83,280.57l0.04,2.91c2.23-0.19,3.24-2.08,3.24-4.62c0-2.62-1.11-4.27-3.05-4.27c-1.79,0-2.72,1.2-3.05,3.26l-0.31,1.79
		c-0.04,0.31-0.21,0.56-0.52,0.56c-0.41,0-0.66-0.37-0.66-1.01c0-1.03,0.41-1.61,1.07-1.73l-0.08-2.74
		c-1.92,0.19-3.09,1.75-3.09,4.41c0,2.58,1.3,4.16,3.11,4.16c1.88,0,2.6-1.18,2.95-3.4l0.21-1.36c0.1-0.64,0.35-0.85,0.7-0.85
		c0.37,0,0.64,0.39,0.64,1.13C25.03,279.82,24.59,280.44,23.83,280.57z"/>
	<path d="M13.87,265.58l12.99,5.17v-3.52l-2.51-0.97v-5.07l2.51-0.97v-3.73l-12.99,5.17V265.58z M17.89,263.69l3.83-1.48v3.05
		l-3.83-1.48V263.69z"/>
	<polygon points="13.87,250.97 13.87,254.64 26.86,249.65 26.86,245.96 13.87,240.97 13.87,244.46 22.51,247.67 22.51,247.75 	"/>
	<rect x="17.67" y="236.73" width="9.19" height="3.34"/>
	<rect x="13.87" y="236.71" width="2.93" height="3.38"/>
	<path d="M19.3,231.58h-1.63v3.34h9.19v-3.34h-4.21c-1.55,0-2.12-0.76-2.12-2c0-0.64,0.12-1.13,0.39-1.59l-3.15-0.21
		c-0.19,0.23-0.35,0.72-0.35,1.28C17.42,230.28,18.27,231.25,19.3,231.58z"/>
	<path d="M22.57,223.52h-4.91v3.34h5.79c1.92,0,3.65-0.76,3.65-3.28c0-1.38-0.6-2.39-1.63-2.89h1.38v-3.34h-9.19v3.34h4.51
		c1.4,0,2.31,0.41,2.31,1.46C24.49,223.17,23.81,223.52,22.57,223.52z"/>
	<path d="M20.53,216.02c1.88,0,2.6-1.18,2.95-3.4l0.21-1.36c0.1-0.64,0.35-0.85,0.7-0.85c0.37,0,0.64,0.39,0.64,1.13
		c0,1.01-0.43,1.63-1.2,1.75l0.04,2.91c2.23-0.19,3.24-2.08,3.24-4.62c0-2.62-1.11-4.27-3.05-4.27c-1.79,0-2.72,1.2-3.05,3.26
		l-0.31,1.79c-0.04,0.31-0.21,0.56-0.52,0.56c-0.41,0-0.66-0.37-0.66-1.01c0-1.03,0.41-1.61,1.07-1.73l-0.08-2.74
		c-1.92,0.19-3.09,1.75-3.09,4.41C17.42,214.43,18.72,216.02,20.53,216.02z"/>
	<rect x="23.32" y="200.93" width="3.55" height="3.55"/>
	<path d="M22.26,198.04c2.87,0,4.84-2.02,4.84-5.03c0-2.99-1.98-5.03-4.84-5.03c-2.84,0-4.84,2.04-4.84,5.03
		C17.42,196.02,19.42,198.04,22.26,198.04z M22.26,191.34c1.38,0,2.33,0.52,2.33,1.67c0,1.17-0.95,1.67-2.33,1.67
		c-1.38,0-2.33-0.49-2.33-1.67C19.94,191.86,20.88,191.34,22.26,191.34z"/>
	<path d="M17.77,179.53c-0.19,0.23-0.35,0.72-0.35,1.28c0,1.22,0.85,2.19,1.88,2.52h-1.63v3.34h9.19v-3.34h-4.21
		c-1.55,0-2.12-0.76-2.12-2c0-0.64,0.12-1.13,0.39-1.59L17.77,179.53z"/>
	<path d="M27.07,168.86c-1.55,0-2.64,1.05-2.64,3.13v3.81c0,0.56-0.25,0.78-0.56,0.78c-0.19,0-0.33-0.06-0.43-0.19
		c0.19-0.6,0.27-1.26,0.27-2c0-2.6-1.2-4.47-3.13-4.47c-0.43,0-0.82,0.1-1.18,0.29c-0.1-0.45-0.14-0.95-0.14-1.34h-2.52
		c0,1.01,0.66,2.02,1.42,2.58c-0.47,0.78-0.74,1.83-0.74,2.95c0,2.58,1.2,4.43,3.15,4.43c1.01,0,1.79-0.49,2.33-1.32
		c0.37,0.99,1.05,1.57,1.94,1.57c0.78,0,1.53-0.49,1.79-1.32c0.08,1.03,0.72,1.75,1.53,1.75c1.73,0,2.25-2.27,2.25-4.89
		C30.41,171.64,29.36,168.86,27.07,168.86z M20.57,175.33c-0.8,0-1.32-0.41-1.32-0.97c0-0.56,0.52-0.97,1.32-0.97
		c0.82,0,1.34,0.41,1.34,0.97C21.91,174.92,21.4,175.33,20.57,175.33z M27.83,176.77c-0.35,0-0.56-0.25-0.56-0.62v-3.38
		c0-0.56,0.14-0.85,0.54-0.85c0.56,0,0.87,1.13,0.87,2.68C28.68,175.84,28.49,176.77,27.83,176.77z"/>
	<path d="M774.92,216.19v-2.49l-3.42-0.82v-2.02l-2.06-0.43v1.98l-2.02-0.49v-1.88l-2.06-0.43v1.81l-3.42-0.8v2.49l3.42,0.8v1.77
		l-3.42-0.8v2.49l3.42,0.8v2.04l2.06,0.43v-1.98l2.02,0.49v1.88l2.06,0.43v-1.83l3.42,0.82v-2.49l-3.42-0.82v-1.77L774.92,216.19z
		 M769.43,216.66l-2.02-0.49v-1.77l2.02,0.5V216.66z"/>
	<path d="M768.42,224.09c-4,0-6.74,2.87-6.74,6.66c0,3.98,2.52,6.1,5.75,6.35l0.14-3.36c-1.44-0.21-2.78-0.99-2.78-3.01
		c0-1.92,1.42-3.03,3.63-3.03s3.63,1.11,3.63,3.03c0,2.02-1.34,2.8-2.78,3.01l0.12,3.36c3.24-0.25,5.77-2.37,5.77-6.35
		C775.16,226.95,772.42,224.09,768.42,224.09z"/>
	<path d="M761.72,246.18c0,0.95,0.27,1.61,0.6,2.08h1.77c-0.1-0.27-0.14-0.47-0.14-0.74c0-0.35,0.21-0.56,0.68-0.56h3.13
		c2.56,0,3.61-1.79,3.61-4.23c0-2.76-1.4-4.27-3.42-4.56l-0.21,3.09c0.68,0.14,1.15,0.52,1.15,1.26c0,0.8-0.45,1.15-1.22,1.15h-0.14
		l-0.43-2.58c-0.35-2-1.11-3.28-2.89-3.28c-1.57,0-2.49,1.18-2.49,2.97c0,1.46,0.56,2.52,1.63,3.05
		C762.3,244.16,761.72,245.05,761.72,246.18z M764.65,241.05c0.6,0,0.85,0.47,1.01,1.28l0.25,1.36h-0.14c-1.2,0-1.9-0.76-1.9-1.71
		C763.87,241.42,764.18,241.05,764.65,241.05z"/>
	<path d="M761.68,255.6c0,2.7,2.12,4.08,4.84,4.08c2.7,0,4.84-1.38,4.84-4.08c0-1.55-0.74-2.58-1.83-3.03h1.59v-3.34h-12.49v3.34
		h4.87C762.42,253.03,761.68,254.06,761.68,255.6z M766.46,252.57h0.12c1.32,0,2.19,0.72,2.19,1.86c0,1.3-0.93,1.9-2.25,1.9
		c-1.34,0-2.27-0.6-2.27-1.9C764.26,253.29,765.12,252.57,766.46,252.57z"/>
	<rect x="761.93" y="261" width="9.19" height="3.34"/>
	<rect x="771.99" y="260.98" width="2.93" height="3.38"/>
	<path d="M773.66,267.68l-1.2-0.31c-0.85-0.23-1.34-0.52-1.48-1.44l-0.1-0.68h-2.06v1.24h-4.33c-2.16,0-2.8,1.46-2.8,3.01
		c0,1.26,0.31,2.06,0.82,2.76h2.16c-0.23-0.56-0.31-1.01-0.31-1.42c0-0.68,0.31-1.05,1.09-1.05h3.36v2.39h2.31v-2.39h2.54V267.68z"
		/>
	<path d="M764.63,282.13h3.13c2.56,0,3.61-1.79,3.61-4.23c0-2.76-1.4-4.27-3.42-4.56l-0.21,3.09c0.68,0.14,1.15,0.52,1.15,1.26
		c0,0.8-0.45,1.15-1.22,1.15h-0.14l-0.43-2.58c-0.35-2-1.11-3.28-2.89-3.28c-1.57,0-2.49,1.18-2.49,2.97c0,1.46,0.56,2.51,1.63,3.05
		c-1.05,0.31-1.63,1.2-1.63,2.33c0,0.95,0.27,1.61,0.6,2.08h1.77c-0.1-0.27-0.14-0.47-0.14-0.74
		C763.95,282.33,764.16,282.13,764.63,282.13z M763.87,277.14c0-0.56,0.31-0.93,0.78-0.93c0.6,0,0.85,0.47,1.01,1.28l0.25,1.36
		h-0.14C764.57,278.85,763.87,278.09,763.87,277.14z"/>
	<rect x="761.93" y="284.39" width="12.99" height="3.34"/>
	<rect x="771.99" y="289.53" width="2.93" height="3.38"/>
	<rect x="761.93" y="289.55" width="9.19" height="3.34"/>
	<path d="M768.26,294.22c-1.88,0-2.6,1.18-2.95,3.4l-0.21,1.36c-0.1,0.64-0.35,0.85-0.7,0.85c-0.37,0-0.64-0.39-0.64-1.13
		c0-1.01,0.43-1.63,1.2-1.75l-0.04-2.91c-2.23,0.19-3.24,2.08-3.24,4.62c0,2.62,1.11,4.27,3.05,4.27c1.79,0,2.72-1.2,3.05-3.26
		l0.31-1.79c0.04-0.31,0.21-0.56,0.52-0.56c0.41,0,0.66,0.37,0.66,1.01c0,1.03-0.41,1.61-1.07,1.73l0.08,2.74
		c1.92-0.19,3.09-1.75,3.09-4.41C771.37,295.81,770.07,294.22,768.26,294.22z"/>
	<path d="M771.37,310.41c0-1.38-0.62-2.37-1.63-2.87h1.38v-3.34h-9.19v3.34h4.51c1.38,0,2.29,0.39,2.29,1.48
		c0,1.01-0.66,1.26-1.92,1.26h-4.89v3.34h4.51c1.38,0,2.29,0.37,2.29,1.48c0,1.01-0.66,1.24-1.92,1.24h-4.89v3.34h5.77
		c1.92,0,3.67-0.74,3.67-3.28c0-1.55-0.78-2.64-1.81-3.13C770.63,312.88,771.37,312.03,771.37,310.41z"/>
	<rect x="761.93" y="323.27" width="12.99" height="3.5"/>
	<path d="M764.96,330.92l-0.04-2.91c-2.23,0.19-3.24,2.08-3.24,4.62c0,2.62,1.11,4.27,3.05,4.27c1.79,0,2.72-1.2,3.05-3.26
		l0.31-1.79c0.04-0.31,0.21-0.56,0.52-0.56c0.41,0,0.66,0.37,0.66,1.01c0,1.03-0.41,1.61-1.07,1.73l0.08,2.74
		c1.92-0.19,3.09-1.75,3.09-4.41c0-2.58-1.3-4.16-3.11-4.16c-1.88,0-2.6,1.18-2.95,3.4l-0.21,1.36c-0.1,0.64-0.35,0.85-0.7,0.85
		c-0.37,0-0.64-0.39-0.64-1.13C763.76,331.66,764.2,331.04,764.96,330.92z"/>
	<path d="M774.92,344.24l-12.99-5.17v3.52l2.52,0.97v5.07l-2.52,0.97v3.73l12.99-5.17V344.24z M770.9,346.14l-3.83,1.48v-3.05
		l3.83,1.48V346.14z"/>
	<polygon points="774.92,358.8 774.92,355.13 761.93,360.12 761.93,363.81 774.92,368.8 774.92,365.31 766.28,362.1 766.28,362.01 	
		"/>
	<rect x="771.99" y="369.68" width="2.93" height="3.38"/>
	<rect x="761.93" y="369.7" width="9.19" height="3.34"/>
	<path d="M769.5,378.19h1.63v-3.34h-9.19v3.34h4.21c1.55,0,2.12,0.76,2.12,2c0,0.64-0.12,1.13-0.39,1.59l3.15,0.21
		c0.19-0.23,0.35-0.72,0.35-1.28C771.37,379.49,770.53,378.52,769.5,378.19z"/>
	<path d="M766.22,386.25h4.91v-3.34h-5.79c-1.92,0-3.65,0.76-3.65,3.28c0,1.38,0.6,2.39,1.63,2.89h-1.38v3.34h9.19v-3.34h-4.51
		c-1.4,0-2.31-0.41-2.31-1.46C764.3,386.6,764.98,386.25,766.22,386.25z"/>
	<path d="M768.2,399.59l0.08,2.74c1.92-0.19,3.09-1.75,3.09-4.41c0-2.58-1.3-4.16-3.11-4.16c-1.88,0-2.6,1.17-2.95,3.4l-0.21,1.36
		c-0.1,0.64-0.35,0.85-0.7,0.85c-0.37,0-0.64-0.39-0.64-1.13c0-1.01,0.43-1.63,1.2-1.75l-0.04-2.91c-2.23,0.19-3.24,2.08-3.24,4.62
		c0,2.62,1.11,4.27,3.05,4.27c1.79,0,2.72-1.2,3.05-3.26l0.31-1.79c0.04-0.31,0.21-0.56,0.52-0.56c0.41,0,0.66,0.37,0.66,1.01
		C769.27,398.88,768.86,399.46,768.2,399.59z"/>
</g>
</svg>
