<?xml version="1.0" encoding="utf-8"?>
<!-- Generator: Adobe Illustrator 23.1.1, SVG Export Plug-In . SVG Version: 6.00 Build 0)  -->
<svg version="1.1" xmlns="http://www.w3.org/2000/svg" xmlns:xlink="http://www.w3.org/1999/xlink" x="0px" y="0px"
	 viewBox="0 0 792 612" style="enable-background:new 0 0 792 612;" xml:space="preserve">
<style type="text/css">
	.st0{fill:#FFFFFF;stroke:#000000;stroke-width:16;stroke-linecap:round;stroke-linejoin:round;stroke-miterlimit:10;}
	.st1{fill:none;stroke:#000000;stroke-width:24;stroke-linejoin:round;stroke-miterlimit:10;}
	.st2{fill:#FFFFFF;}
	.st3{fill:#FFFFFF;stroke:#000000;stroke-width:17;stroke-linecap:round;stroke-miterlimit:10;}
	.st4{fill:#FFFFFF;stroke:#000000;stroke-width:17;stroke-miterlimit:10;}
	.st5{stroke:#000000;stroke-width:16.0572;stroke-linecap:round;stroke-miterlimit:10;}
	.st6{fill:#FFFFFF;stroke:#000000;stroke-width:17.1072;stroke-linecap:round;stroke-linejoin:round;stroke-miterlimit:10;}
	.st7{stroke:#000000;stroke-width:17.1072;stroke-linecap:round;stroke-linejoin:round;stroke-miterlimit:10;}
	.st8{fill:#FFFFFF;stroke:#000000;stroke-width:14.7375;stroke-linecap:round;stroke-linejoin:round;stroke-miterlimit:10;}
	.st9{fill:none;stroke:#000000;stroke-width:14.7375;stroke-linecap:round;stroke-linejoin:round;stroke-miterlimit:10;}
	.st10{stroke:#000000;stroke-width:14.7375;stroke-linecap:round;stroke-linejoin:round;stroke-miterlimit:10;}
	.st11{fill:#FFFFFF;stroke:#000000;stroke-width:14.2911;stroke-linecap:round;stroke-linejoin:round;stroke-miterlimit:10;}
	.st12{font-family:'FoundersGrotesk-Bold';}
	.st13{font-size:178.0858px;}
	.st14{font-size:20.6105px;}
	.st15{font-size:10.3052px;}
	.st16{font-size:19.2364px;}
	.st17{font-size:10px;}
	.st18{fill:none;stroke:#000000;stroke-width:13.497;stroke-miterlimit:10;}
	.st19{fill:#FFFFFF;stroke:#000000;stroke-width:13.497;stroke-linecap:round;stroke-linejoin:round;stroke-miterlimit:10;}
	.st20{fill:#FFFFFF;stroke:#000000;stroke-width:13.497;stroke-miterlimit:10;}
	.st21{fill:#FFFFFF;stroke:#000000;stroke-width:14.7439;stroke-linecap:round;stroke-miterlimit:10;}
	.st22{fill:#FFFFFF;stroke:#000000;stroke-width:14.7439;stroke-miterlimit:10;}
	.st23{stroke:#000000;stroke-width:13.9262;stroke-linecap:round;stroke-miterlimit:10;}
	.st24{fill:#FFFFFF;stroke:#000000;stroke-width:14.6942;stroke-linecap:round;stroke-linejoin:round;stroke-miterlimit:10;}
	.st25{fill:none;stroke:#000000;stroke-width:30.5612;stroke-linecap:round;stroke-linejoin:round;stroke-miterlimit:10;}
	.st26{fill:#FFFFFF;stroke:#000000;stroke-width:16.2993;stroke-linecap:round;stroke-linejoin:round;stroke-miterlimit:10;}
	.st27{fill:#FFFFFF;stroke:#000000;stroke-width:13.497;stroke-linecap:round;stroke-miterlimit:10;}
	.st28{fill:none;stroke:#000000;stroke-width:13.497;stroke-linecap:round;stroke-linejoin:round;stroke-miterlimit:10;}
	.st29{fill:url(#);stroke:#000000;stroke-width:13.497;stroke-linecap:round;stroke-linejoin:round;stroke-miterlimit:10;}
	.st30{fill:#FFFFFF;stroke:#000000;stroke-width:15.2362;stroke-linecap:round;stroke-linejoin:round;stroke-miterlimit:10;}
	.st31{fill:#FFFFFF;stroke:#000000;stroke-width:14.8467;stroke-linecap:round;stroke-linejoin:round;stroke-miterlimit:10;}
	.st32{stroke:#000000;stroke-width:20.1683;stroke-linecap:round;stroke-miterlimit:10;}
	.st33{fill:none;stroke:#000000;stroke-width:14.8467;stroke-linecap:round;stroke-linejoin:round;stroke-miterlimit:10;}
	.st34{fill:#FFFFFF;stroke:#FFFFFF;stroke-width:3;stroke-miterlimit:10;}
	.st35{fill:none;stroke:#000000;stroke-width:15;stroke-linecap:round;stroke-linejoin:round;stroke-miterlimit:10;}
	.st36{fill:#FFFFFF;stroke:#000000;stroke-width:15;stroke-linecap:round;stroke-linejoin:round;stroke-miterlimit:10;}
	.st37{fill:#FFFFFF;stroke:#000000;stroke-width:11.7326;stroke-linecap:round;stroke-linejoin:round;stroke-miterlimit:10;}
	.st38{fill:#FFFFFF;stroke:#000000;stroke-width:13.2623;stroke-linecap:round;stroke-linejoin:round;stroke-miterlimit:10;}
	.st39{fill:none;stroke:#000000;stroke-width:16;stroke-linecap:round;stroke-miterlimit:10;}
	.st40{fill:url(#);stroke:#000000;stroke-width:16;stroke-linecap:round;stroke-linejoin:round;stroke-miterlimit:10;}
	.st41{fill:#FFFFFF;stroke:#000000;stroke-width:16;stroke-linecap:round;stroke-miterlimit:10;}
	.st42{fill:#FFFFFF;stroke:#000000;stroke-width:13.2623;stroke-linecap:round;stroke-miterlimit:10;}
	.st43{stroke:#000000;stroke-width:4.5213;stroke-miterlimit:10;}
	.st44{fill:none;stroke:#000000;stroke-width:15.2344;stroke-linecap:round;stroke-linejoin:round;stroke-miterlimit:10;}
	.st45{fill:#FFFFFF;stroke:#000000;stroke-width:15.2344;stroke-linecap:round;stroke-linejoin:round;stroke-miterlimit:10;}
	.st46{stroke:#000000;stroke-width:18.3348;stroke-linecap:round;stroke-miterlimit:10;}
	.st47{fill:none;stroke:#000000;stroke-width:16;stroke-linecap:round;stroke-linejoin:round;stroke-miterlimit:10;}
	.st48{fill:#FFFFFF;stroke:#000000;stroke-width:13.3058;stroke-linecap:round;stroke-linejoin:round;stroke-miterlimit:10;}
	.st49{fill:#FFFFFF;stroke:#000000;stroke-width:17;stroke-linecap:round;stroke-linejoin:round;stroke-miterlimit:10;}
	.st50{fill:#FFFFFF;stroke:#000000;stroke-width:15.2517;stroke-linecap:round;stroke-linejoin:round;stroke-miterlimit:10;}
	.st51{stroke:#000000;stroke-width:3;stroke-miterlimit:10;}
	.st52{fill:#FFFFFF;stroke:#000000;stroke-width:16.0686;stroke-linecap:round;stroke-linejoin:round;stroke-miterlimit:10;}
	.st53{fill:#FFFFFF;stroke:#000000;stroke-width:15;stroke-linejoin:round;stroke-miterlimit:10;}
	.st54{display:none;}
	.st55{display:inline;fill:none;}
	.st56{display:inline;}
	.st57{display:inline;fill:#06A6FF;}
	.st58{display:inline;fill:#FF0303;}
	.st59{display:inline;fill:#3DFF06;}
	.st60{display:inline;fill:#FFF808;}
	.st61{display:inline;fill:none;stroke:#000000;stroke-width:0;stroke-linecap:round;stroke-linejoin:round;}
</style>
<g id="Layer_1">
	<g>
		<text transform="matrix(1 0 0 1 16.1475 177.3223)" class="st12 st13">Solidarity</text>
	</g>
	<g>
		<g>
			<text transform="matrix(1 0 0 1 258.9679 599.7979)"><tspan x="0" y="0" class="st12 st14">www</tspan><tspan x="45.14" y="0" class="st12 st15"> </tspan><tspan x="46.99" y="0" class="st12 st14">.</tspan><tspan x="51.77" y="0" class="st12 st15"> </tspan><tspan x="53.63" y="0" class="st12 st14">Capitalism</tspan><tspan x="150.43" y="0" class="st12 st16"> </tspan><tspan x="153.9" y="0" class="st12 st14">Is</tspan><tspan x="168.88" y="0" class="st12 st16"> </tspan><tspan x="172.34" y="0" class="st12 st14">A</tspan><tspan x="186.6" y="0" class="st12 st15"> </tspan><tspan x="188.46" y="0" class="st12 st14">Virus</tspan><tspan x="236.15" y="0" class="st12 st15"> </tspan><tspan x="238.01" y="0" class="st12 st14">.</tspan><tspan x="242.79" y="0" class="st12 st15"> </tspan><tspan x="244.64" y="0" class="st12 st14">org</tspan></text>
		</g>
		<g>
			<text transform="matrix(1 0 0 1 299.1802 22.1245)"><tspan x="0" y="0" class="st12 st14">#</tspan><tspan x="12.7" y="0" class="st12 st17"> </tspan><tspan x="14.5" y="0" class="st12 st14">Capitalism</tspan><tspan x="111.3" y="0" class="st12 st17"> </tspan><tspan x="113.1" y="0" class="st12 st14">Is</tspan><tspan x="128.09" y="0" class="st12 st17"> </tspan><tspan x="129.89" y="0" class="st12 st14">A</tspan><tspan x="144.15" y="0" class="st12 st17"> </tspan><tspan x="145.95" y="0" class="st12 st14">Virus</tspan></text>
		</g>
	</g>
	<text transform="matrix(1 0 0 1 10.9829 349.9146)" class="st12 st13">FOREVER</text>
	<g>
		<text transform="matrix(1 0 0 1 301.9727 522.5078)" class="st12 st13">! ! !</text>
	</g>
</g>
<g id="Layer_1_copy" class="st54">
	<polygon class="st55" points="438.43,590.83 438.35,590.83 436.87,594.67 439.92,594.67 	"/>
	<path class="st55" d="M744.42,275.83c0-9.08-6.41-13.89-19.23-13.89h-21.55v27.43h21.55C738.01,289.37,744.42,286.16,744.42,275.83
		z"/>
	<path class="st55" d="M527.51,601.61c1.55,0,2.68-0.31,2.68-0.87c0-0.39-0.29-0.54-0.85-0.54h-3.38c-0.37,0-0.62,0.21-0.62,0.56
		C525.35,601.43,526.27,601.61,527.51,601.61z"/>
	<path class="st55" d="M527.76,594.85c0.56,0,0.97-0.52,0.97-1.34c0-0.8-0.41-1.32-0.97-1.32c-0.56,0-0.97,0.52-0.97,1.32
		C526.79,594.33,527.2,594.85,527.76,594.85z"/>
	<path class="st55" d="M507.44,595.2c0,1.38,0.49,2.33,1.67,2.33c1.15,0,1.67-0.95,1.67-2.33s-0.52-2.33-1.67-2.33
		C507.93,592.87,507.44,593.82,507.44,595.2z"/>
	<path class="st55" d="M366.21,19.4c0,0.47,0.37,0.78,0.93,0.78c0.95,0,1.71-0.7,1.71-1.9v-0.14l-1.36,0.25
		C366.69,18.56,366.21,18.81,366.21,19.4z"/>
	<path class="st55" d="M439.63,153.81c0,4.1,3.21,6.77,8.01,6.77c8.19,0,14.78-6.05,14.78-16.38v-1.25l-11.75,2.14
		C443.73,146.51,439.63,148.65,439.63,153.81z"/>
	<path class="st55" d="M331.05,19.4c0,0.47,0.37,0.78,0.93,0.78c0.95,0,1.71-0.7,1.71-1.9v-0.14l-1.36,0.25
		C331.53,18.56,331.05,18.81,331.05,19.4z"/>
	<path class="st55" d="M342.57,17.59c0,1.34,0.72,2.21,1.86,2.21c1.3,0,1.9-0.93,1.9-2.27c0-1.32-0.6-2.25-1.9-2.25
		c-1.13,0-1.86,0.87-1.86,2.19V17.59z"/>
	<polygon class="st55" points="436.14,13.16 436.05,13.16 434.57,16.99 437.62,16.99 	"/>
	<polygon class="st55" points="304.4,16.64 306.17,16.64 306.66,14.62 304.89,14.62 	"/>
	<path class="st55" d="M168.32,325.34c16.56,0,27.07-12.47,27.07-31.52s-10.51-31.52-27.07-31.52c-16.56,0-27.07,12.47-27.07,31.52
		S151.76,325.34,168.32,325.34z"/>
	<path class="st55" d="M371.96,137.08c0-11.4-6.23-18.88-15.85-18.88c-11.4,0-16.38,8.01-16.38,19.41
		c0,11.58,4.99,19.59,16.38,19.59c9.62,0,15.85-7.48,15.85-19.06V137.08z"/>
	<path class="st55" d="M343.4,597.47c1.3,0,1.9-0.93,1.9-2.27c0-1.32-0.6-2.25-1.9-2.25c-1.13,0-1.86,0.87-1.86,2.18v0.12
		C341.54,596.6,342.27,597.47,343.4,597.47z"/>
	<path class="st55" d="M156.66,137.61c0,11.93,4.27,20.12,14.42,20.12c9.97,0,14.42-8.19,14.42-20.12s-4.45-20.12-14.42-20.12
		C160.93,117.49,156.66,125.68,156.66,137.61z"/>
	<path class="st55" d="M330.02,597.08c0,0.47,0.37,0.78,0.93,0.78c0.95,0,1.71-0.7,1.71-1.9v-0.14l-1.36,0.25
		C330.5,596.23,330.02,596.48,330.02,597.08z"/>
	<path class="st55" d="M365.18,597.08c0,0.47,0.37,0.78,0.93,0.78c0.95,0,1.71-0.7,1.71-1.9v-0.14l-1.36,0.25
		C365.66,596.23,365.18,596.48,365.18,597.08z"/>
	<path class="st55" d="M289.95,261.94H268.4v27.43h21.55c12.82,0,19.23-3.21,19.23-13.53C309.18,266.75,302.77,261.94,289.95,261.94
		z"/>
	<path class="st56" d="M118.72,143.66c0-18.34-10.69-30.63-34.19-34.73l-21.19-3.74c-6.95-1.25-11.22-3.21-11.22-8.37
		c0-6.23,5.7-10.15,15.67-10.15c11.58,0,19.95,5.34,20.84,16.92l27.78-0.53c-0.53-24.93-17.27-40.07-48.26-40.07
		c-27.96,0-45.77,13.71-45.77,36.51c0,19.59,12.82,29.92,31.17,33.3l20.48,3.56c8.55,1.6,15.14,2.67,15.14,9.26
		c0,6.23-6.77,9.97-17.27,9.97c-12.47,0-23.33-4.81-24.4-18.88l-27.78,0.89c0,27.07,21.73,41.85,52.18,41.85
		C98.07,179.46,118.72,167.53,118.72,143.66z"/>
	<path class="st56" d="M127.63,137.61c0,24.75,17.45,41.85,43.45,41.85c25.82,0,43.45-17.1,43.45-41.85
		c0-24.58-17.63-41.85-43.45-41.85C145.08,95.76,127.63,113.03,127.63,137.61z M185.5,137.61c0,11.93-4.45,20.12-14.42,20.12
		c-10.15,0-14.42-8.19-14.42-20.12s4.27-20.12,14.42-20.12C181.05,117.49,185.5,125.68,185.5,137.61z"/>
	<rect x="225.93" y="65.13" class="st56" width="28.85" height="112.19"/>
	<rect x="270.45" y="97.9" class="st56" width="28.85" height="79.43"/>
	<rect x="270.27" y="65.13" class="st56" width="29.21" height="25.29"/>
	<path class="st56" d="M371.96,163.79v13.53h28.85V65.13h-28.85v46.48c-3.74-9.44-12.82-15.85-26-15.85
		c-23.51,0-35.26,18.52-35.26,41.85c0,23.51,11.75,41.85,35.26,41.85C359.14,179.46,368.22,173.05,371.96,163.79z M356.11,157.2
		c-11.4,0-16.38-8.01-16.38-19.59c0-11.4,4.99-19.41,16.38-19.41c9.62,0,15.85,7.48,15.85,18.88v1.07
		C371.96,149.72,365.73,157.2,356.11,157.2z"/>
	<path class="st56" d="M440.17,132.62c-17.27,3.03-28.32,9.62-28.32,24.93c0,13.53,10.15,21.55,25.64,21.55
		c12.64,0,21.73-4.81,26.36-14.07c2.67,9.08,10.33,14.07,20.12,14.07c8.19,0,13.89-2.31,17.99-5.16v-15.31
		c-2.32,0.89-4.1,1.25-6.41,1.25c-3.03,0-4.81-1.78-4.81-5.88v-27.07c0-22.08-15.49-31.17-36.51-31.17
		c-23.86,0-36.86,12.11-39.36,29.56l26.71,1.78c1.25-5.88,4.45-9.97,10.86-9.97c6.95,0,9.97,3.92,9.97,10.51v1.25L440.17,132.62z
		 M462.43,144.2c0,10.33-6.59,16.38-14.78,16.38c-4.81,0-8.01-2.67-8.01-6.77c0-5.16,4.1-7.3,11.04-8.73l11.75-2.14V144.2z"/>
	<path class="st56" d="M571.95,98.79c-1.96-1.6-6.23-3.03-11.04-3.03c-10.51,0-18.88,7.3-21.73,16.21V97.9h-28.85v79.43h28.85
		v-36.33c0-13.36,6.59-18.34,17.27-18.34c5.52,0,9.79,1.07,13.71,3.38L571.95,98.79z"/>
	<rect x="580.67" y="65.13" class="st56" width="29.21" height="25.29"/>
	<rect x="580.85" y="97.9" class="st56" width="28.85" height="79.43"/>
	<path class="st56" d="M677.37,117.84V97.9h-20.66v-21.9h-18.16l-2.67,10.33c-1.96,7.3-4.45,11.58-12.47,12.82l-5.88,0.89v17.81
		h10.69v37.4c0,18.7,12.64,24.22,26,24.22c10.86,0,17.81-2.67,23.86-7.12v-18.7c-4.81,1.96-8.73,2.67-12.29,2.67
		c-5.88,0-9.08-2.67-9.08-9.44v-29.03H677.37z"/>
	<polygon class="st56" points="730.26,205.82 775.85,97.9 747.54,97.9 729.55,144.38 728.84,144.38 711.21,97.9 680.93,97.9 
		713.35,178.39 701.95,205.82 	"/>
	<polygon class="st56" points="299.46,595.82 298.12,590.6 295.46,590.6 294.12,595.82 294.04,595.82 292.39,590.6 289.15,590.6 
		289.07,590.6 286.15,590.6 284.5,595.82 284.41,595.82 283.07,590.6 280.41,590.6 279.07,595.82 278.99,595.82 277.34,590.6 
		274.11,590.6 274.02,590.6 271.1,590.6 269.45,595.82 269.37,595.82 268.03,590.6 265.37,590.6 264.03,595.82 263.95,595.82 
		262.3,590.6 258.98,590.6 261.88,599.8 265.16,599.8 266.5,594.6 266.58,594.6 267.92,599.8 271.2,599.8 274.07,590.74 
		276.93,599.8 280.21,599.8 281.55,594.6 281.63,594.6 282.97,599.8 286.25,599.8 289.11,590.74 291.98,599.8 295.25,599.8 
		296.59,594.6 296.68,594.6 298.02,599.8 301.29,599.8 304.2,590.6 301.19,590.6 299.54,595.82 	"/>
	<rect x="306.63" y="596.25" class="st56" width="3.55" height="3.55"/>
	<path class="st56" d="M319.7,589.68c2.02,0,2.8,1.34,3.01,2.78l3.36-0.12c-0.25-3.24-2.37-5.77-6.35-5.77
		c-3.79,0-6.66,2.74-6.66,6.74s2.87,6.74,6.66,6.74c3.98,0,6.1-2.51,6.35-5.75l-3.36-0.14c-0.21,1.44-0.99,2.78-3.01,2.78
		c-1.92,0-3.03-1.42-3.03-3.63S317.78,589.68,319.7,589.68z"/>
	<path class="st56" d="M330.08,594.62c-2,0.35-3.28,1.11-3.28,2.89c0,1.57,1.17,2.49,2.97,2.49c1.46,0,2.52-0.56,3.05-1.63
		c0.31,1.05,1.2,1.63,2.33,1.63c0.95,0,1.61-0.27,2.08-0.6v-1.77c-0.27,0.1-0.47,0.14-0.74,0.14c-0.35,0-0.56-0.21-0.56-0.68v-3.13
		c0-2.56-1.79-3.61-4.23-3.61c-2.76,0-4.27,1.4-4.56,3.42l3.09,0.21c0.14-0.68,0.52-1.15,1.26-1.15c0.8,0,1.15,0.45,1.15,1.22v0.14
		L330.08,594.62z M332.66,595.96c0,1.2-0.76,1.9-1.71,1.9c-0.56,0-0.93-0.31-0.93-0.78c0-0.6,0.47-0.85,1.28-1.01l1.36-0.25V595.96z
		"/>
	<path class="st56" d="M341.54,598.23c0.45,1.07,1.48,1.81,3.03,1.81c2.7,0,4.08-2.12,4.08-4.84c0-2.7-1.38-4.84-4.08-4.84
		c-1.55,0-2.58,0.74-3.03,1.83v-1.59h-3.34v12.49h3.34V598.23z M341.54,595.14c0-1.32,0.72-2.18,1.86-2.18c1.3,0,1.9,0.93,1.9,2.25
		c0,1.34-0.6,2.27-1.9,2.27c-1.13,0-1.86-0.87-1.86-2.21V595.14z"/>
	<rect x="349.97" y="590.6" class="st56" width="3.34" height="9.19"/>
	<rect x="349.95" y="586.81" class="st56" width="3.38" height="2.93"/>
	<path class="st56" d="M358.46,600.04c1.26,0,2.06-0.31,2.76-0.82v-2.16c-0.56,0.23-1.01,0.31-1.42,0.31
		c-0.68,0-1.05-0.31-1.05-1.09v-3.36h2.39v-2.31h-2.39v-2.54h-2.1l-0.31,1.2c-0.23,0.85-0.52,1.34-1.44,1.48l-0.68,0.1v2.06h1.24
		v4.33C355.46,599.41,356.92,600.04,358.46,600.04z"/>
	<path class="st56" d="M365.25,594.62c-2,0.35-3.28,1.11-3.28,2.89c0,1.57,1.17,2.49,2.97,2.49c1.46,0,2.52-0.56,3.05-1.63
		c0.31,1.05,1.2,1.63,2.33,1.63c0.95,0,1.61-0.27,2.08-0.6v-1.77c-0.27,0.1-0.47,0.14-0.74,0.14c-0.35,0-0.56-0.21-0.56-0.68v-3.13
		c0-2.56-1.79-3.61-4.23-3.61c-2.76,0-4.27,1.4-4.56,3.42l3.09,0.21c0.14-0.68,0.52-1.15,1.26-1.15c0.8,0,1.15,0.45,1.15,1.22v0.14
		L365.25,594.62z M367.82,595.96c0,1.2-0.76,1.9-1.71,1.9c-0.56,0-0.93-0.31-0.93-0.78c0-0.6,0.47-0.85,1.28-1.01l1.36-0.25V595.96z
		"/>
	<rect x="373.37" y="586.81" class="st56" width="3.34" height="12.99"/>
	<rect x="378.52" y="590.6" class="st56" width="3.34" height="9.19"/>
	<rect x="378.5" y="586.81" class="st56" width="3.38" height="2.93"/>
	<path class="st56" d="M387.67,597.96c-1.01,0-1.63-0.43-1.75-1.2l-2.91,0.04c0.19,2.23,2.08,3.24,4.62,3.24
		c2.62,0,4.27-1.11,4.27-3.05c0-1.79-1.2-2.72-3.26-3.05l-1.79-0.31c-0.31-0.04-0.56-0.21-0.56-0.52c0-0.41,0.37-0.66,1.01-0.66
		c1.03,0,1.61,0.41,1.73,1.07l2.74-0.08c-0.19-1.92-1.75-3.09-4.41-3.09c-2.58,0-4.16,1.3-4.16,3.11c0,1.88,1.17,2.6,3.4,2.95
		l1.36,0.21c0.64,0.1,0.85,0.35,0.85,0.7C388.8,597.7,388.41,597.96,387.67,597.96z"/>
	<path class="st56" d="M408.65,599.8v-5.77c0-1.92-0.74-3.67-3.28-3.67c-1.55,0-2.64,0.78-3.13,1.81c-0.39-1.07-1.24-1.81-2.87-1.81
		c-1.38,0-2.37,0.62-2.87,1.63v-1.38h-3.34v9.19h3.34v-4.51c0-1.38,0.39-2.29,1.48-2.29c1.01,0,1.26,0.66,1.26,1.92v4.89h3.34v-4.51
		c0-1.38,0.37-2.29,1.48-2.29c1.01,0,1.24,0.66,1.24,1.92v4.89H408.65z"/>
	<rect x="413.91" y="586.81" class="st56" width="3.5" height="12.99"/>
	<path class="st56" d="M423.3,597.96c-1.01,0-1.63-0.43-1.75-1.2l-2.91,0.04c0.19,2.23,2.08,3.24,4.62,3.24
		c2.62,0,4.27-1.11,4.27-3.05c0-1.79-1.2-2.72-3.26-3.05l-1.79-0.31c-0.31-0.04-0.56-0.21-0.56-0.52c0-0.41,0.37-0.66,1.01-0.66
		c1.03,0,1.61,0.41,1.73,1.07l2.74-0.08c-0.19-1.92-1.75-3.09-4.41-3.09c-2.58,0-4.16,1.3-4.16,3.11c0,1.88,1.18,2.6,3.4,2.95
		l1.36,0.21c0.64,0.1,0.85,0.35,0.85,0.7C424.44,597.7,424.05,597.96,423.3,597.96z"/>
	<path class="st56" d="M435.86,597.28h5.07l0.97,2.51h3.73l-5.17-12.99h-3.92l-5.17,12.99h3.52L435.86,597.28z M438.35,590.83h0.08
		l1.48,3.83h-3.05L438.35,590.83z"/>
	<polygon class="st56" points="454.36,595.45 451.15,586.81 447.48,586.81 452.47,599.8 456.16,599.8 461.15,586.81 457.66,586.81 
		454.45,595.45 	"/>
	<rect x="462.05" y="590.6" class="st56" width="3.34" height="9.19"/>
	<rect x="462.03" y="586.81" class="st56" width="3.38" height="2.93"/>
	<path class="st56" d="M467.2,590.6v9.19h3.34v-4.21c0-1.55,0.76-2.12,2-2.12c0.64,0,1.13,0.12,1.59,0.39l0.21-3.15
		c-0.23-0.19-0.72-0.35-1.28-0.35c-1.22,0-2.19,0.85-2.52,1.88v-1.63H467.2z"/>
	<path class="st56" d="M484.77,599.8v-9.19h-3.34v4.51c0,1.4-0.41,2.31-1.46,2.31c-1.01,0-1.36-0.68-1.36-1.92v-4.91h-3.34v5.79
		c0,1.92,0.76,3.65,3.28,3.65c1.38,0,2.39-0.6,2.89-1.63v1.38H484.77z"/>
	<path class="st56" d="M490.58,597.96c-1.01,0-1.63-0.43-1.75-1.2l-2.91,0.04c0.19,2.23,2.08,3.24,4.62,3.24
		c2.62,0,4.27-1.11,4.27-3.05c0-1.79-1.2-2.72-3.26-3.05l-1.79-0.31c-0.31-0.04-0.56-0.21-0.56-0.52c0-0.41,0.37-0.66,1.01-0.66
		c1.03,0,1.61,0.41,1.73,1.07l2.74-0.08c-0.19-1.92-1.75-3.09-4.41-3.09c-2.58,0-4.16,1.3-4.16,3.11c0,1.88,1.18,2.6,3.4,2.95
		l1.36,0.21c0.64,0.1,0.85,0.35,0.85,0.7C491.71,597.7,491.32,597.96,490.58,597.96z"/>
	<rect x="497.64" y="596.25" class="st56" width="3.55" height="3.55"/>
	<path class="st56" d="M504.07,595.2c0,2.87,2.02,4.84,5.03,4.84c2.99,0,5.03-1.98,5.03-4.84c0-2.84-2.04-4.84-5.03-4.84
		C506.09,590.36,504.07,592.36,504.07,595.2z M510.77,595.2c0,1.38-0.52,2.33-1.67,2.33c-1.17,0-1.67-0.95-1.67-2.33
		s0.49-2.33,1.67-2.33C510.26,592.87,510.77,593.82,510.77,595.2z"/>
	<path class="st56" d="M515.45,590.6v9.19h3.34v-4.21c0-1.55,0.76-2.12,2-2.12c0.64,0,1.13,0.12,1.59,0.39l0.21-3.15
		c-0.23-0.19-0.72-0.35-1.28-0.35c-1.22,0-2.19,0.85-2.52,1.88v-1.63H515.45z"/>
	<path class="st56" d="M522.6,601.1c0,1.73,2.27,2.25,4.89,2.25c2.99,0,5.77-1.05,5.77-3.34c0-1.55-1.05-2.64-3.13-2.64h-3.81
		c-0.56,0-0.78-0.25-0.78-0.56c0-0.19,0.06-0.33,0.19-0.43c0.6,0.19,1.26,0.27,2,0.27c2.6,0,4.47-1.2,4.47-3.13
		c0-0.43-0.1-0.83-0.29-1.18c0.45-0.1,0.95-0.14,1.34-0.14v-2.52c-1.01,0-2.02,0.66-2.58,1.42c-0.78-0.47-1.83-0.74-2.95-0.74
		c-2.58,0-4.43,1.2-4.43,3.15c0,1.01,0.49,1.79,1.32,2.33c-0.99,0.37-1.57,1.05-1.57,1.94c0,0.78,0.49,1.53,1.32,1.79
		C523.33,599.65,522.6,600.29,522.6,601.1z M527.76,592.19c0.56,0,0.97,0.52,0.97,1.32c0,0.82-0.41,1.34-0.97,1.34
		c-0.56,0-0.97-0.52-0.97-1.34C526.79,592.71,527.2,592.19,527.76,592.19z M525.96,600.21h3.38c0.56,0,0.85,0.14,0.85,0.54
		c0,0.56-1.13,0.87-2.68,0.87c-1.24,0-2.16-0.19-2.16-0.85C525.35,600.42,525.59,600.21,525.96,600.21z"/>
	<path class="st56" d="M311.03,14.62l0.43-2.06h-1.83l0.82-3.42h-2.49l-0.82,3.42h-1.77l0.83-3.42h-2.49l-0.82,3.42h-2.02
		l-0.43,2.06h1.98l-0.49,2.02h-1.88l-0.43,2.06h1.81l-0.8,3.42h2.49l0.8-3.42h1.77l-0.8,3.42h2.49l0.8-3.42h2.04l0.43-2.06h-1.98
		l0.49-2.02H311.03z M306.17,16.64h-1.77l0.5-2.02h1.77L306.17,16.64z"/>
	<path class="st56" d="M320.73,12c2.02,0,2.8,1.34,3.01,2.78l3.36-0.12c-0.25-3.24-2.37-5.77-6.35-5.77c-3.79,0-6.66,2.74-6.66,6.74
		s2.87,6.74,6.66,6.74c3.98,0,6.1-2.52,6.35-5.75l-3.36-0.14c-0.21,1.44-0.99,2.78-3.01,2.78c-1.92,0-3.03-1.42-3.03-3.63
		S318.81,12,320.73,12z"/>
	<path class="st56" d="M331.11,16.95c-2,0.35-3.28,1.11-3.28,2.89c0,1.57,1.18,2.49,2.97,2.49c1.46,0,2.52-0.56,3.05-1.63
		c0.31,1.05,1.2,1.63,2.33,1.63c0.95,0,1.61-0.27,2.08-0.6v-1.77c-0.27,0.1-0.47,0.14-0.74,0.14c-0.35,0-0.56-0.21-0.56-0.68v-3.13
		c0-2.56-1.79-3.61-4.23-3.61c-2.76,0-4.27,1.4-4.56,3.42l3.09,0.21c0.14-0.68,0.52-1.15,1.26-1.15c0.8,0,1.15,0.45,1.15,1.22v0.14
		L331.11,16.95z M333.69,18.29c0,1.2-0.76,1.9-1.71,1.9c-0.56,0-0.93-0.31-0.93-0.78c0-0.6,0.47-0.85,1.28-1.01l1.36-0.25V18.29z"/>
	<path class="st56" d="M339.23,12.93v12.49h3.34v-4.87c0.45,1.07,1.48,1.81,3.03,1.81c2.7,0,4.08-2.12,4.08-4.84
		c0-2.7-1.38-4.84-4.08-4.84c-1.55,0-2.58,0.74-3.03,1.83v-1.59H339.23z M344.43,15.28c1.3,0,1.9,0.93,1.9,2.25
		c0,1.34-0.6,2.27-1.9,2.27c-1.13,0-1.86-0.87-1.86-2.21v-0.12C342.57,16.15,343.29,15.28,344.43,15.28z"/>
	<rect x="351" y="12.93" class="st56" width="3.34" height="9.19"/>
	<rect x="350.98" y="9.14" class="st56" width="3.38" height="2.93"/>
	<path class="st56" d="M357.68,10.39l-0.31,1.2c-0.23,0.85-0.52,1.34-1.44,1.48l-0.68,0.1v2.06h1.24v4.33c0,2.16,1.46,2.8,3.01,2.8
		c1.26,0,2.06-0.31,2.76-0.82v-2.16c-0.56,0.23-1.01,0.31-1.42,0.31c-0.68,0-1.05-0.31-1.05-1.09v-3.36h2.39v-2.31h-2.39v-2.54
		H357.68z"/>
	<path class="st56" d="M366.27,16.95c-2,0.35-3.28,1.11-3.28,2.89c0,1.57,1.18,2.49,2.97,2.49c1.46,0,2.51-0.56,3.05-1.63
		c0.31,1.05,1.2,1.63,2.33,1.63c0.95,0,1.61-0.27,2.08-0.6v-1.77c-0.27,0.1-0.47,0.14-0.74,0.14c-0.35,0-0.56-0.21-0.56-0.68v-3.13
		c0-2.56-1.79-3.61-4.23-3.61c-2.76,0-4.27,1.4-4.56,3.42l3.09,0.21c0.14-0.68,0.52-1.15,1.26-1.15c0.8,0,1.15,0.45,1.15,1.22v0.14
		L366.27,16.95z M368.85,18.29c0,1.2-0.76,1.9-1.71,1.9c-0.56,0-0.93-0.31-0.93-0.78c0-0.6,0.47-0.85,1.28-1.01l1.36-0.25V18.29z"/>
	<rect x="374.39" y="9.14" class="st56" width="3.34" height="12.99"/>
	<rect x="379.53" y="9.14" class="st56" width="3.38" height="2.93"/>
	<rect x="379.55" y="12.93" class="st56" width="3.34" height="9.19"/>
	<path class="st56" d="M388.7,20.29c-1.01,0-1.63-0.43-1.75-1.2l-2.91,0.04c0.19,2.23,2.08,3.24,4.62,3.24
		c2.62,0,4.27-1.11,4.27-3.05c0-1.79-1.2-2.72-3.26-3.05l-1.79-0.31c-0.31-0.04-0.56-0.21-0.56-0.52c0-0.41,0.37-0.66,1.01-0.66
		c1.03,0,1.61,0.41,1.73,1.07l2.74-0.08c-0.19-1.92-1.75-3.09-4.41-3.09c-2.58,0-4.16,1.3-4.16,3.11c0,1.88,1.18,2.6,3.4,2.95
		l1.36,0.21c0.64,0.1,0.85,0.35,0.85,0.7C389.83,20.02,389.44,20.29,388.7,20.29z"/>
	<path class="st56" d="M409.68,22.12v-5.77c0-1.92-0.74-3.67-3.28-3.67c-1.55,0-2.64,0.78-3.13,1.81c-0.39-1.07-1.24-1.81-2.87-1.81
		c-1.38,0-2.37,0.62-2.87,1.63v-1.38h-3.34v9.19h3.34v-4.51c0-1.38,0.39-2.29,1.48-2.29c1.01,0,1.26,0.66,1.26,1.92v4.89h3.34v-4.51
		c0-1.38,0.37-2.29,1.48-2.29c1.01,0,1.24,0.66,1.24,1.92v4.89H409.68z"/>
	<rect x="413.27" y="9.14" class="st56" width="3.5" height="12.99"/>
	<path class="st56" d="M422.67,20.29c-1.01,0-1.63-0.43-1.75-1.2l-2.91,0.04c0.19,2.23,2.08,3.24,4.62,3.24
		c2.62,0,4.27-1.11,4.27-3.05c0-1.79-1.2-2.72-3.26-3.05l-1.79-0.31c-0.31-0.04-0.56-0.21-0.56-0.52c0-0.41,0.37-0.66,1.01-0.66
		c1.03,0,1.61,0.41,1.73,1.07l2.74-0.08c-0.19-1.92-1.75-3.09-4.41-3.09c-2.58,0-4.16,1.3-4.16,3.11c0,1.88,1.18,2.6,3.4,2.95
		l1.36,0.21c0.64,0.1,0.85,0.35,0.85,0.7C423.8,20.02,423.41,20.29,422.67,20.29z"/>
	<path class="st56" d="M438.63,19.61l0.97,2.52h3.73l-5.17-12.99h-3.92l-5.17,12.99h3.52l0.97-2.52H438.63z M436.05,13.16h0.08
		l1.48,3.83h-3.05L436.05,13.16z"/>
	<polygon class="st56" points="458.8,9.14 455.31,9.14 452.1,17.77 452.01,17.77 448.8,9.14 445.13,9.14 450.12,22.12 453.81,22.12 
			"/>
	<rect x="459.7" y="12.93" class="st56" width="3.34" height="9.19"/>
	<rect x="459.68" y="9.14" class="st56" width="3.38" height="2.93"/>
	<path class="st56" d="M464.85,12.93v9.19h3.34v-4.21c0-1.55,0.76-2.12,2-2.12c0.64,0,1.13,0.12,1.59,0.39l0.21-3.15
		c-0.23-0.19-0.72-0.35-1.28-0.35c-1.22,0-2.19,0.85-2.52,1.88v-1.63H464.85z"/>
	<path class="st56" d="M472.91,12.93v5.79c0,1.92,0.76,3.65,3.28,3.65c1.38,0,2.39-0.6,2.89-1.63v1.38h3.34v-9.19h-3.34v4.51
		c0,1.4-0.41,2.31-1.46,2.31c-1.01,0-1.36-0.68-1.36-1.92v-4.91H472.91z"/>
	<path class="st56" d="M488.23,20.29c-1.01,0-1.63-0.43-1.75-1.2l-2.91,0.04c0.19,2.23,2.08,3.24,4.62,3.24
		c2.62,0,4.27-1.11,4.27-3.05c0-1.79-1.2-2.72-3.26-3.05l-1.79-0.31c-0.31-0.04-0.56-0.21-0.56-0.52c0-0.41,0.37-0.66,1.01-0.66
		c1.03,0,1.61,0.41,1.73,1.07l2.74-0.08c-0.19-1.92-1.75-3.09-4.41-3.09c-2.58,0-4.16,1.3-4.16,3.11c0,1.88,1.17,2.6,3.4,2.95
		l1.36,0.21c0.64,0.1,0.85,0.35,0.85,0.7C489.36,20.02,488.97,20.29,488.23,20.29z"/>
	<polygon class="st56" points="106.53,262.65 106.53,237.72 21.76,237.72 21.76,349.91 52.03,349.91 52.03,308.78 92.99,308.78 
		92.99,284.2 52.03,284.2 52.03,262.65 	"/>
	<path class="st56" d="M168.32,352.05c32.59,0,58.23-23.69,58.23-58.23c0-34.55-25.64-58.23-58.23-58.23
		c-32.59,0-58.23,23.69-58.23,58.23C110.09,328.37,135.73,352.05,168.32,352.05z M168.32,262.3c16.56,0,27.07,12.47,27.07,31.52
		s-10.51,31.52-27.07,31.52c-16.56,0-27.07-12.47-27.07-31.52S151.76,262.3,168.32,262.3z"/>
	<path class="st56" d="M334.47,324.09c-1.25-13-8.01-19.59-19.59-21.9c13.71-1.78,23.86-12.47,23.86-28.85
		c0-21.9-14.42-35.62-43.45-35.62h-56.63v112.19h29.74v-37.22h20.12c10.15,0,15.67,2.85,16.56,15.67
		c0.89,11.58,2.31,18.52,4.63,21.55h30.63C336.61,345.82,336.08,340.83,334.47,324.09z M289.95,289.37H268.4v-27.43h21.55
		c12.82,0,19.23,4.81,19.23,13.89C309.18,286.16,302.77,289.37,289.95,289.37z"/>
	<polygon class="st56" points="440.43,324.98 381.84,324.98 381.84,305.57 425.83,305.57 425.83,281 381.84,281 381.84,262.65 
		438.83,262.65 438.83,237.72 352.1,237.72 352.1,349.91 440.43,349.91 	"/>
	<polygon class="st56" points="533.39,237.72 505.61,312.34 504.9,312.34 477.12,237.72 445.42,237.72 488.51,349.91 520.39,349.91 
		563.49,237.72 	"/>
	<polygon class="st56" points="660.37,324.98 601.78,324.98 601.78,305.57 645.76,305.57 645.76,281 601.78,281 601.78,262.65 
		658.76,262.65 658.76,237.72 572.04,237.72 572.04,349.91 660.37,349.91 	"/>
	<path class="st56" d="M673.9,349.91h29.74v-37.22h20.12c10.15,0,15.67,2.85,16.56,15.67c0.89,11.58,2.31,18.52,4.63,21.55h30.63
		c-3.74-4.1-4.27-9.08-5.88-25.82c-1.25-13-8.01-19.59-19.59-21.9c13.71-1.78,23.86-12.47,23.86-28.85
		c0-21.9-14.42-35.62-43.45-35.62H673.9V349.91z M703.64,261.94h21.55c12.82,0,19.23,4.81,19.23,13.89
		c0,10.33-6.41,13.53-19.23,13.53h-21.55V261.94z"/>
	<polygon class="st56" points="337.95,410.31 307.32,410.31 307.32,439.16 313.37,485.11 331.89,485.11 337.95,439.16 	"/>
	<rect x="307.32" y="491.88" class="st56" width="30.63" height="30.63"/>
	<polygon class="st56" points="411.31,410.31 380.68,410.31 380.68,439.16 386.74,485.11 405.26,485.11 411.31,439.16 	"/>
	<rect x="380.68" y="491.88" class="st56" width="30.63" height="30.63"/>
	<rect x="454.05" y="491.88" class="st56" width="30.63" height="30.63"/>
	<polygon class="st56" points="484.68,439.16 484.68,410.31 454.05,410.31 454.05,439.16 460.11,485.11 478.63,485.11 	"/>
</g>
</svg>
