<?xml version="1.0" encoding="utf-8"?>
<!-- Generator: Adobe Illustrator 23.1.1, SVG Export Plug-In . SVG Version: 6.00 Build 0)  -->
<svg version="1.1" xmlns="http://www.w3.org/2000/svg" xmlns:xlink="http://www.w3.org/1999/xlink" x="0px" y="0px"
	 viewBox="0 0 792 612" style="enable-background:new 0 0 792 612;" xml:space="preserve">
<style type="text/css">
	.st0{display:none;}
	.st1{display:inline;}
	
		.st2{display:inline;fill:#FFFFFF;stroke:#000000;stroke-width:16;stroke-linecap:round;stroke-linejoin:round;stroke-miterlimit:10;}
	.st3{fill:#FFFFFF;stroke:#000000;stroke-width:16;stroke-linecap:round;stroke-linejoin:round;stroke-miterlimit:10;}
	.st4{display:inline;fill:none;stroke:#000000;stroke-width:24;stroke-linejoin:round;stroke-miterlimit:10;}
	.st5{display:inline;fill:#FFFFFF;}
	.st6{fill:#FFFFFF;stroke:#000000;stroke-width:17;stroke-linecap:round;stroke-miterlimit:10;}
	.st7{fill:#FFFFFF;stroke:#000000;stroke-width:17;stroke-miterlimit:10;}
	.st8{stroke:#000000;stroke-width:16.0572;stroke-linecap:round;stroke-miterlimit:10;}
	.st9{fill:#FFFFFF;}
	.st10{fill:#FFFFFF;stroke:#000000;stroke-width:17.1072;stroke-linecap:round;stroke-linejoin:round;stroke-miterlimit:10;}
	.st11{stroke:#000000;stroke-width:17.1072;stroke-linecap:round;stroke-linejoin:round;stroke-miterlimit:10;}
	.st12{fill:#FFFFFF;stroke:#000000;stroke-width:14.7375;stroke-linecap:round;stroke-linejoin:round;stroke-miterlimit:10;}
	.st13{fill:none;stroke:#000000;stroke-width:14.7375;stroke-linecap:round;stroke-linejoin:round;stroke-miterlimit:10;}
	.st14{stroke:#000000;stroke-width:14.7375;stroke-linecap:round;stroke-linejoin:round;stroke-miterlimit:10;}
	.st15{fill:#FFFFFF;stroke:#000000;stroke-width:14.2911;stroke-linecap:round;stroke-linejoin:round;stroke-miterlimit:10;}
	.st16{fill:none;stroke:#000000;stroke-width:13.497;stroke-miterlimit:10;}
	.st17{fill:#FFFFFF;stroke:#000000;stroke-width:13.497;stroke-linecap:round;stroke-linejoin:round;stroke-miterlimit:10;}
	.st18{fill:#FFFFFF;stroke:#000000;stroke-width:13.497;stroke-miterlimit:10;}
	.st19{fill:#FFFFFF;stroke:#000000;stroke-width:14.7439;stroke-linecap:round;stroke-miterlimit:10;}
	.st20{fill:#FFFFFF;stroke:#000000;stroke-width:14.7439;stroke-miterlimit:10;}
	.st21{stroke:#000000;stroke-width:13.9262;stroke-linecap:round;stroke-miterlimit:10;}
	
		.st22{display:inline;fill:#FFFFFF;stroke:#000000;stroke-width:14.6942;stroke-linecap:round;stroke-linejoin:round;stroke-miterlimit:10;}
	.st23{fill:#FFFFFF;stroke:#000000;stroke-width:14.6942;stroke-linecap:round;stroke-linejoin:round;stroke-miterlimit:10;}
	.st24{fill:none;stroke:#000000;stroke-width:24;stroke-linejoin:round;stroke-miterlimit:10;}
	.st25{fill:none;stroke:#000000;stroke-width:30.5612;stroke-linecap:round;stroke-linejoin:round;stroke-miterlimit:10;}
	.st26{fill:#FFFFFF;stroke:#000000;stroke-width:16.2993;stroke-linecap:round;stroke-linejoin:round;stroke-miterlimit:10;}
	.st27{display:inline;fill:#FFFFFF;stroke:#000000;stroke-width:13.497;stroke-linecap:round;stroke-miterlimit:10;}
	
		.st28{display:inline;fill:none;stroke:#000000;stroke-width:13.497;stroke-linecap:round;stroke-linejoin:round;stroke-miterlimit:10;}
	
		.st29{display:inline;fill:#FFFFFF;stroke:#000000;stroke-width:13.497;stroke-linecap:round;stroke-linejoin:round;stroke-miterlimit:10;}
	
		.st30{display:inline;fill:url(#);stroke:#000000;stroke-width:13.497;stroke-linecap:round;stroke-linejoin:round;stroke-miterlimit:10;}
	.st31{fill:#FFFFFF;stroke:#000000;stroke-width:15.2362;stroke-linecap:round;stroke-linejoin:round;stroke-miterlimit:10;}
	.st32{fill:#FFFFFF;stroke:#000000;stroke-width:14.8467;stroke-linecap:round;stroke-linejoin:round;stroke-miterlimit:10;}
	.st33{stroke:#000000;stroke-width:20.1683;stroke-linecap:round;stroke-miterlimit:10;}
	.st34{fill:none;stroke:#000000;stroke-width:14.8467;stroke-linecap:round;stroke-linejoin:round;stroke-miterlimit:10;}
	.st35{fill:#FFFFFF;stroke:#FFFFFF;stroke-width:3;stroke-miterlimit:10;}
	.st36{display:inline;fill:none;stroke:#000000;stroke-width:15;stroke-linecap:round;stroke-linejoin:round;stroke-miterlimit:10;}
	
		.st37{display:inline;fill:#FFFFFF;stroke:#000000;stroke-width:15;stroke-linecap:round;stroke-linejoin:round;stroke-miterlimit:10;}
	.st38{fill:#FFFFFF;stroke:#000000;stroke-width:15;stroke-linecap:round;stroke-linejoin:round;stroke-miterlimit:10;}
	.st39{fill:#FFFFFF;stroke:#000000;stroke-width:11.7326;stroke-linecap:round;stroke-linejoin:round;stroke-miterlimit:10;}
	.st40{fill:#FFFFFF;stroke:#000000;stroke-width:13.2623;stroke-linecap:round;stroke-linejoin:round;stroke-miterlimit:10;}
	.st41{fill:none;stroke:#000000;stroke-width:16;stroke-linecap:round;stroke-miterlimit:10;}
	.st42{fill:url(#);stroke:#000000;stroke-width:16;stroke-linecap:round;stroke-linejoin:round;stroke-miterlimit:10;}
	.st43{fill:#FFFFFF;stroke:#000000;stroke-width:16;stroke-linecap:round;stroke-miterlimit:10;}
	.st44{fill:#FFFFFF;stroke:#000000;stroke-width:13.2623;stroke-linecap:round;stroke-miterlimit:10;}
	.st45{stroke:#000000;stroke-width:4.5213;stroke-miterlimit:10;}
	.st46{fill:none;stroke:#000000;stroke-width:15.2344;stroke-linecap:round;stroke-linejoin:round;stroke-miterlimit:10;}
	.st47{fill:#FFFFFF;stroke:#000000;stroke-width:15.2344;stroke-linecap:round;stroke-linejoin:round;stroke-miterlimit:10;}
	.st48{stroke:#000000;stroke-width:18.3348;stroke-linecap:round;stroke-miterlimit:10;}
	.st49{fill:none;stroke:#000000;stroke-width:13.497;stroke-linecap:round;stroke-linejoin:round;stroke-miterlimit:10;}
	.st50{fill:#FFFFFF;stroke:#000000;stroke-width:15;stroke-linecap:square;stroke-linejoin:round;stroke-miterlimit:10;}
	.st51{fill:#FFFFFF;stroke:#000000;stroke-width:15;stroke-linejoin:round;stroke-miterlimit:10;}
	.st52{fill:none;stroke:#000000;stroke-width:15;stroke-linecap:round;stroke-linejoin:round;stroke-miterlimit:10;}
	.st53{fill:url(#);stroke:#000000;stroke-width:13.497;stroke-linecap:round;stroke-linejoin:round;stroke-miterlimit:10;}
	.st54{font-family:'FoundersGrotesk-Bold';}
	.st55{font-size:20.6105px;}
	.st56{font-size:10.3052px;}
	.st57{font-size:19.2364px;}
	.st58{font-size:10px;}
	.st59{display:inline;fill:none;stroke:#000000;stroke-width:16;stroke-linecap:round;stroke-linejoin:round;stroke-miterlimit:10;}
	.st60{fill:#FFFFFF;stroke:#000000;stroke-width:13.3058;stroke-linecap:round;stroke-linejoin:round;stroke-miterlimit:10;}
	.st61{fill:#FFFFFF;stroke:#000000;stroke-width:17;stroke-linecap:round;stroke-linejoin:round;stroke-miterlimit:10;}
	.st62{fill:#FFFFFF;stroke:#000000;stroke-width:15.2517;stroke-linecap:round;stroke-linejoin:round;stroke-miterlimit:10;}
	.st63{stroke:#000000;stroke-width:3;stroke-miterlimit:10;}
	.st64{fill:none;}
	.st65{fill:#06A6FF;}
	.st66{fill:#FF0303;}
	.st67{fill:#3DFF06;}
	.st68{fill:none;stroke:#000000;stroke-width:0;stroke-linecap:round;stroke-linejoin:round;}
</style>
<g id="Layer_1" class="st0">
	<g class="st1">
		<g>
			<g>
				<path class="st3" d="M540.2,217.14c-43.09,43.09-100.88,100.88-100.88,100.88c-8.06,8.06-8.06,21.13,0,29.18
					c8.06,8.06,21.13,8.06,29.18,0c0,0,46.61-46.61,89.7-89.7"/>
				<path class="st3" d="M589.93,286.59C545.04,331.47,499.51,377,499.51,377c-8.39,8.39-8.39,22,0,30.4c8.39,8.39,22,8.39,30.4,0
					c0,0,48.55-48.55,93.44-93.44"/>
				<path class="st3" d="M548.91,266.8c-44.89,44.89-96.02,96.02-96.02,96.02c-8.39,8.39-8.39,22,0,30.4c8.39,8.39,22,8.39,30.4,0
					c0,0,48.55-48.55,93.44-93.44"/>
				<path class="st3" d="M773.83,179.63c-14.92,13.43-26.15,23.07-34.57,30.9c-5.78,5.38-9.16,13.09-8.26,20.93
					c2,17.5-4.32,35.07-21.25,54.49c-26.58,30.49-85.85,85.85-85.85,85.85"/>
				<path class="st3" d="M611.39,220.16c-34.1,12.74-59.99-5.58-59.99-5.58s-29.36,6.64-60.95,10.44
					c-18.5,2.23-31.01-16.44-28.55-28.64c1.34-6.67,8.46-6.58,18.1-10.67c15.74-6.68,52.37-21.84,52.37-21.84
					s17.97-6.54,45.72-20.91c18.46-9.55,59.4-3.96,59.4-3.96C657.39,119.1,685.98,86.02,749,21.2"/>
				<path class="st3" d="M623.35,313.96c-43.09,43.09-46.15,46.15-46.15,46.15c-8.06,8.06-8.06,21.13,0,29.18
					c8.06,8.06,21.13,8.06,29.18,0c0,0,23.37-21.63,66.46-64.72"/>
			</g>
		</g>
		<g>
			<g>
				<path class="st3" d="M193.42,357.17c43.09-43.09,100.88-100.88,100.88-100.88c8.06-8.06,21.13-8.06,29.18,0
					c8.06,8.06,8.06,21.13,0,29.18c0,0-46.61,46.61-89.7,89.7"/>
				<path class="st3" d="M262.86,406.9c44.89-44.89,90.42-90.42,90.42-90.42c8.39-8.39,22-8.39,30.4,0c8.39,8.39,8.39,22,0,30.4
					c0,0-48.55,48.55-93.44,93.44"/>
				<path class="st3" d="M243.08,365.88c44.89-44.89,96.02-96.02,96.02-96.02c8.39-8.39,22-8.39,30.4,0c8.39,8.39,8.39,22,0,30.4
					c0,0-48.55,48.55-93.44,93.44"/>
				<path class="st3" d="M155.91,590.8c13.43-14.92,23.07-26.15,30.9-34.57c5.38-5.78,13.09-9.16,20.93-8.26
					c17.5,2,35.07-4.32,54.49-21.25c30.49-26.58,85.85-85.85,85.85-85.85"/>
				<path class="st3" d="M196.44,428.37c12.74-34.1-5.58-59.99-5.58-59.99s6.64-29.36,10.44-60.95
					c2.23-18.5-16.44-31.01-28.64-28.55c-6.67,1.34-6.58,8.46-10.67,18.1c-6.68,15.74-21.84,52.37-21.84,52.37
					s-6.54,17.97-20.91,45.72c-9.55,18.46-3.96,59.4-3.96,59.4c-17.67,17.67-45.71,42.17-97.11,91.52"/>
				<path class="st3" d="M290.24,440.32c43.09-43.09,46.15-46.15,46.15-46.15c8.06-8.06,21.13-8.06,29.18,0
					c8.06,8.06,8.06,21.13,0,29.18c0,0-21.63,23.37-64.72,66.46"/>
			</g>
		</g>
	</g>
	<g class="st1">
		<text transform="matrix(8.979319e-11 -1 1 8.979319e-11 26.8613 333.9569)"><tspan x="0" y="0" class="st54 st55">www</tspan><tspan x="45.14" y="0" class="st54 st56"> </tspan><tspan x="46.99" y="0" class="st54 st55">.</tspan><tspan x="51.77" y="0" class="st54 st56"> </tspan><tspan x="53.63" y="0" class="st54 st55">Capitalism</tspan><tspan x="150.43" y="0" class="st54 st57"> </tspan><tspan x="153.9" y="0" class="st54 st55">Is</tspan><tspan x="168.88" y="0" class="st54 st57"> </tspan><tspan x="172.34" y="0" class="st54 st55">A</tspan><tspan x="186.6" y="0" class="st54 st56"> </tspan><tspan x="188.46" y="0" class="st54 st55">Virus</tspan><tspan x="236.15" y="0" class="st54 st56"> </tspan><tspan x="238.01" y="0" class="st54 st55">.</tspan><tspan x="242.79" y="0" class="st54 st56"> </tspan><tspan x="244.64" y="0" class="st54 st55">org</tspan></text>
		<text transform="matrix(0 1 -1 0 761.9292 381.0454)"><tspan x="0" y="0" class="st54 st55">#</tspan><tspan x="12.7" y="0" class="st54 st58"> </tspan><tspan x="14.5" y="0" class="st54 st55">Capitalism</tspan><tspan x="111.3" y="0" class="st54 st58"> </tspan><tspan x="113.1" y="0" class="st54 st55">Is</tspan><tspan x="128.09" y="0" class="st54 st58"> </tspan><tspan x="129.89" y="0" class="st54 st55">A</tspan><tspan x="144.15" y="0" class="st54 st58"> </tspan><tspan x="145.95" y="0" class="st54 st55">Virus</tspan></text>
	</g>
</g>
<g id="Layer_1_copy">
	<ellipse class="st64" cx="22.26" cy="83.82" rx="2.33" ry="1.67"/>
	<path class="st64" d="M23.03,260.26h-0.14l0.25,1.36c0.17,0.8,0.41,1.28,1.01,1.28c0.47,0,0.78-0.37,0.78-0.93
		C24.92,261.03,24.22,260.26,23.03,260.26z"/>
	<polygon class="st64" points="17.89,154.57 21.73,156.06 21.73,153.01 17.89,154.49 	"/>
	<path class="st64" d="M22.26,247.63c-1.32,0-2.25,0.6-2.25,1.9c0,1.13,0.87,1.85,2.18,1.85h0.12c1.34,0,2.21-0.72,2.21-1.85
		C24.53,248.23,23.6,247.63,22.26,247.63z"/>
	<path class="st64" d="M23.03,225.1h-0.14l0.25,1.36c0.17,0.8,0.41,1.28,1.01,1.28c0.47,0,0.78-0.37,0.78-0.93
		C24.92,225.87,24.22,225.1,23.03,225.1z"/>
	<path class="st64" d="M27.81,62.73c-0.39,0-0.54,0.29-0.54,0.85v3.38c0,0.37,0.21,0.62,0.56,0.62c0.66,0,0.85-0.93,0.85-2.16
		C28.68,63.87,28.37,62.73,27.81,62.73z"/>
	<path class="st64" d="M20.57,64.2c-0.8,0-1.32,0.41-1.32,0.97c0,0.56,0.52,0.97,1.32,0.97c0.82,0,1.34-0.41,1.34-0.97
		C21.91,64.61,21.4,64.2,20.57,64.2z"/>
	<path class="st64" d="M765.76,415.55h0.14l-0.25-1.36c-0.16-0.8-0.41-1.28-1.01-1.28c-0.47,0-0.78,0.37-0.78,0.93
		C763.87,414.79,764.57,415.55,765.76,415.55z"/>
	<path class="st64" d="M765.76,450.72h0.14l-0.25-1.36c-0.16-0.8-0.41-1.28-1.01-1.28c-0.47,0-0.78,0.37-0.78,0.93
		C763.87,449.95,764.57,450.72,765.76,450.72z"/>
	<path class="st64" d="M766.53,428.19c1.32,0,2.25-0.6,2.25-1.9c0-1.13-0.87-1.86-2.19-1.86h-0.12c-1.34,0-2.21,0.72-2.21,1.86
		C764.26,427.59,765.19,428.19,766.53,428.19z"/>
	<polygon class="st64" points="767.06,519.49 770.9,518 770.9,517.92 767.06,516.44 	"/>
	<polygon class="st64" points="769.43,386.76 767.41,386.26 767.41,388.03 769.43,388.53 	"/>
	<path d="M768.47,173.68c-6.53,5.88-12.39,11.06-17.55,15.63c-6.61,5.85-12.32,10.9-17.11,15.35c-7.89,7.33-11.91,17.69-10.76,27.7
		c0.49,4.27,0.37,8.51-0.32,12.76c-1.87,11.45-8.08,23.02-19.02,35.56c-10.2,11.7-25.44,27.26-40.22,41.88l0.03,0.01
		c-40.15,40.05-62.35,60.64-62.57,60.85c-0.08,0.07-0.15,0.14-0.22,0.21c-2.39,2.39-5.56,3.7-8.94,3.7s-6.55-1.31-8.94-3.7
		c-2.39-2.39-3.7-5.56-3.7-8.93c0-3.38,1.31-6.55,3.7-8.94L629,319.62c1.13-1.13,1.85-2.52,2.16-3.98c0.55-2.56-0.17-5.34-2.16-7.33
		c-3.12-3.12-8.19-3.12-11.31,0l-0.56,0.56l-45.59,45.59c0,0,0,0,0,0l-47.29,47.29c-2.55,2.55-5.94,3.95-9.54,3.95
		c-3.6,0-6.99-1.4-9.54-3.95c-2.55-2.55-3.95-5.94-3.95-9.54c0-3.6,1.4-6.99,3.95-9.54l90.42-90.42c0.19-0.19,0.37-0.39,0.53-0.59
		c2.58-3.14,2.4-7.79-0.53-10.73c-3.12-3.12-8.19-3.12-11.31,0l-12.72,12.72l0.02,0.03c-0.17,0.14-0.34,0.29-0.5,0.45l-93.44,93.44
		c-5.26,5.26-13.82,5.26-19.09,0s-5.26-13.82,0-19.08l95.54-95.54v0l9.78-9.78c3.12-3.12,3.12-8.19,0-11.31
		c-2.41-2.41-5.97-2.95-8.91-1.64c-0.87,0.39-1.69,0.93-2.4,1.64l-9.29,9.29c0,0,0,0-0.01,0.01l-80.41,80.41
		c-4.93,4.92-12.94,4.93-17.87,0c-2.39-2.39-3.7-5.56-3.7-8.94s1.31-6.55,3.7-8.93l98.72-98.72l0.73-0.73
		c2.24-0.46,4.11-0.85,5.54-1.16c8.56,4.87,33.35,16.11,64.24,4.57c4.14-1.55,6.24-6.16,4.69-10.29c-0.59-1.59-1.65-2.88-2.95-3.78
		c-2.08-1.44-4.8-1.87-7.35-0.92c-29.48,11.01-51.67-4-52.57-4.62c-1.85-1.31-4.17-1.77-6.38-1.27c-0.29,0.07-29.36,6.59-60.14,10.3
		c-7.37,0.88-12.37-3.21-14.7-5.72c-4.33-4.69-5.66-10.16-5.07-13.3c0.88-0.58,3.44-1.42,5.34-2.04c2.37-0.77,5.05-1.65,8.06-2.93
		c15.02-6.38,49.58-20.69,52.15-21.75c2.04-0.75,19.71-7.4,46.49-21.26c13.26-6.86,43.94-4.59,54.64-3.14
		c2.48,0.33,4.97-0.5,6.74-2.27c8.33-8.33,17.9-18.65,31.14-32.94c12.04-13,27.01-29.14,46.29-49.42
		c10.13-10.65,21.45-22.45,34.16-35.53c3.08-3.17,3.01-8.23-0.16-11.31c-3.17-3.08-8.23-3.01-11.31,0.16
		c-37.05,38.11-62.29,65.34-80.72,85.22c-11.68,12.6-20.47,22.09-27.99,29.75c-11.56-1.26-42.96-3.63-60.15,5.27
		c-26.89,13.92-44.61,20.43-44.79,20.5c-0.11,0.04-0.22,0.08-0.32,0.13c-0.37,0.15-36.84,15.25-52.43,21.87
		c-2.38,1.01-4.62,1.74-6.78,2.45c-6.3,2.06-14.14,4.63-16.03,14c-1.78,8.82,1.75,19.58,8.98,27.41
		c6.56,7.1,15.31,10.99,24.46,10.99c1.29,0,2.6-0.08,3.9-0.24c8.82-1.06,17.43-2.34,25.29-3.62l-83.03,83.03
		c-5.41,5.41-8.39,12.6-8.39,20.25s2.98,14.84,8.39,20.25c3.27,3.27,7.14,5.57,11.25,6.92c-9.11,11.57-8.34,28.42,2.32,39.09
		c5.75,5.75,13.3,8.62,20.86,8.62c6.55,0,13.09-2.16,18.46-6.48c1.4,4.49,3.88,8.61,7.3,12.04c5.57,5.57,12.98,8.64,20.86,8.64
		s15.29-3.07,20.86-8.64l29.11-29.11c1.39,4.1,3.71,7.86,6.86,11.01c5.41,5.41,12.6,8.39,20.25,8.39c7.6,0,14.74-2.94,20.14-8.27
		c1.77-1.65,24.87-23.17,65.31-63.57c14.17-14.07,28.54-28.83,38.53-40.29c17.91-20.55,25.49-40.39,23.17-60.65
		c-0.3-2.59,0.15-5.26,1.23-7.78c1-2.33,2.53-4.52,4.54-6.38c0.52-0.48,1.05-0.97,1.59-1.47c4.33-3.98,9.43-8.49,15.23-13.62
		c5.19-4.59,11.07-9.8,17.66-15.72c3.28-2.96,3.55-8.01,0.59-11.3C776.81,170.99,771.76,170.73,768.47,173.68z"/>
	<path d="M23.71,551.75c12.11-11.62,22.85-21.8,32.48-30.86c12.2-11.46,22.63-21.13,31.8-29.63c14.29-13.24,24.61-22.81,32.94-31.14
		c1.77-1.77,2.61-4.26,2.27-6.74c-1.45-10.7-3.73-41.38,3.14-54.65c13.86-26.78,20.5-44.45,21.26-46.49
		c1.07-2.58,15.38-37.13,21.75-52.15c1.28-3.01,2.15-5.69,2.93-8.06c0.62-1.9,1.46-4.46,2.04-5.34c3.15-0.59,8.62,0.74,13.3,5.07
		c2.52,2.33,6.61,7.33,5.72,14.7c-3.71,30.79-10.24,59.86-10.3,60.15c-0.49,2.18-0.02,4.51,1.25,6.35
		c0.64,0.93,15.66,23.13,4.64,52.61c-0.93,2.49-0.53,5.14,0.82,7.2c0.9,1.37,2.22,2.48,3.87,3.09c4.14,1.55,8.75-0.56,10.29-4.69
		c11.54-30.89,0.3-55.68-4.57-64.24c0.31-1.43,0.7-3.3,1.16-5.54l0.73-0.73l98.72-98.72c2.39-2.39,5.56-3.7,8.94-3.7
		c3.38,0,6.55,1.31,8.94,3.7c2.39,2.39,3.7,5.56,3.7,8.93s-1.31,6.55-3.7,8.93l-33.41,33.41l-56.3,56.3
		c-0.71,0.71-1.26,1.53-1.64,2.4c-1.31,2.94-0.77,6.5,1.64,8.91c1.56,1.56,3.61,2.34,5.66,2.34s4.09-0.78,5.66-2.34l9.29-9.3
		c0,0,0,0,0,0l0.48-0.48l95.54-95.54c5.26-5.26,13.82-5.26,19.09,0c2.55,2.55,3.95,5.94,3.95,9.54c0,3.61-1.4,6.99-3.95,9.54
		l-93.44,93.44c-0.16,0.16-0.31,0.33-0.45,0.5l-0.03-0.02l-12.72,12.72c-3.12,3.12-3.12,8.19,0,11.31
		c2.94,2.93,7.58,3.11,10.73,0.53c0.2-0.17,0.4-0.34,0.59-0.53l13.19-13.19c0,0,0,0,0.01,0l77.22-77.22
		c5.26-5.26,13.82-5.26,19.08,0c2.55,2.55,3.95,5.94,3.95,9.54c0,3.61-1.4,6.99-3.95,9.54l-92.88,92.88l-0.56,0.56
		c-3.12,3.12-3.12,8.19,0,11.31c1.56,1.56,3.61,2.34,5.66,2.34c0.56,0,1.12-0.06,1.68-0.18v0c1.46-0.31,2.85-1.03,3.98-2.16
		l46.15-46.15c2.39-2.39,5.56-3.7,8.94-3.7c3.38,0,6.55,1.31,8.94,3.7c2.39,2.39,3.7,5.56,3.7,8.93s-1.31,6.55-3.7,8.94
		c-0.07,0.07-0.14,0.15-0.21,0.22c-0.21,0.23-20.8,22.43-60.85,62.57l-0.01-0.03c-14.62,14.78-30.18,30.01-41.88,40.22
		c-12.55,10.94-24.11,17.15-35.56,19.02c-4.25,0.69-8.49,0.81-12.76,0.32c-10.01-1.14-20.37,2.88-27.7,10.76
		c-4.46,4.79-9.5,10.5-15.35,17.11c-4.57,5.17-9.75,11.03-15.63,17.56c-2.96,3.28-2.69,8.34,0.59,11.3
		c1.53,1.38,3.44,2.05,5.35,2.05c2.19,0,4.37-0.89,5.95-2.65c5.93-6.58,11.13-12.47,15.73-17.66c5.13-5.8,9.64-10.9,13.61-15.22
		c0.5-0.54,0.99-1.07,1.47-1.59c1.87-2.01,4.06-3.54,6.39-4.54c2.51-1.08,5.18-1.52,7.77-1.22c20.27,2.32,40.1-5.26,60.65-23.17
		c11.48-10.01,26.27-24.41,40.36-38.6c40.37-40.41,61.87-63.48,63.51-65.25c5.34-5.4,8.27-12.54,8.27-20.13
		c0-7.65-2.98-14.84-8.39-20.25c-3.15-3.15-6.91-5.47-11.01-6.86l29.11-29.11c5.57-5.57,8.64-12.98,8.64-20.86
		c0-7.88-3.07-15.29-8.64-20.86c-3.49-3.49-7.64-5.91-12.05-7.28c4.21-5.22,6.51-11.67,6.51-18.48c0-7.88-3.07-15.29-8.64-20.86
		c-10.66-10.66-27.51-11.43-39.07-2.33c-1.38-4.19-3.73-8.03-6.94-11.24c-5.41-5.41-12.6-8.39-20.25-8.39
		c-7.65,0-14.84,2.98-20.25,8.39l-83.03,83.03c1.29-7.86,2.56-16.46,3.62-25.29c1.27-10.54-2.65-20.88-10.75-28.37
		c-7.83-7.24-18.59-10.77-27.41-8.98c-9.37,1.89-11.94,9.73-14,16.03c-0.71,2.16-1.44,4.4-2.45,6.78
		c-6.62,15.6-21.72,52.07-21.87,52.43c-0.04,0.1-0.09,0.21-0.12,0.32c-0.06,0.18-6.58,17.9-20.5,44.79
		c-8.9,17.2-6.53,48.6-5.27,60.15c-7.66,7.52-17.15,16.31-29.75,27.99c-16.47,15.26-36.96,34.26-64.49,60.68
		c-3.19,3.06-3.29,8.12-0.23,11.31c1.57,1.64,3.67,2.46,5.77,2.46C20.17,553.98,22.16,553.24,23.71,551.75z"/>
	<polygon points="26.86,294.91 26.86,291.63 17.67,288.72 17.67,291.73 22.88,293.38 22.88,293.47 17.67,294.81 17.67,297.46 
		22.88,298.8 22.88,298.89 17.67,300.54 17.67,303.77 17.67,303.86 17.67,306.78 22.88,308.43 22.88,308.51 17.67,309.85 
		17.67,312.51 22.88,313.85 22.88,313.93 17.67,315.58 17.67,318.82 17.67,318.9 17.67,321.83 22.88,323.47 22.88,323.56 
		17.67,324.9 17.67,327.56 22.88,328.9 22.88,328.98 17.67,330.63 17.67,333.95 26.86,331.04 26.86,327.76 21.67,326.42 
		21.67,326.34 26.86,325 26.86,321.72 17.8,318.86 26.86,315.99 26.86,312.72 21.67,311.38 21.67,311.29 26.86,309.95 26.86,306.68 
		17.8,303.81 26.86,300.95 26.86,297.67 21.67,296.33 21.67,296.25 	"/>
	<rect x="23.32" y="282.75" width="3.55" height="3.55"/>
	<path d="M21.36,266.86l-0.14,3.36c1.44,0.21,2.78,0.99,2.78,3.01c0,1.92-1.42,3.03-3.63,3.03s-3.63-1.11-3.63-3.03
		c0-2.02,1.34-2.8,2.78-3.01l-0.12-3.36c-3.24,0.25-5.77,2.37-5.77,6.35c0,3.79,2.74,6.66,6.74,6.66s6.74-2.87,6.74-6.66
		C27.11,269.23,24.59,267.1,21.36,266.86z"/>
	<path d="M24.16,256.99h-3.13c-2.56,0-3.61,1.79-3.61,4.23c0,2.76,1.4,4.27,3.42,4.56l0.21-3.09c-0.68-0.14-1.15-0.52-1.15-1.26
		c0-0.8,0.45-1.15,1.22-1.15h0.14l0.43,2.58c0.35,2,1.11,3.28,2.89,3.28c1.57,0,2.49-1.17,2.49-2.97c0-1.46-0.56-2.51-1.63-3.05
		c1.05-0.31,1.63-1.2,1.63-2.33c0-0.95-0.27-1.61-0.6-2.08H24.7c0.1,0.27,0.14,0.47,0.14,0.74
		C24.84,256.78,24.63,256.99,24.16,256.99z M24.92,261.97c0,0.56-0.31,0.93-0.78,0.93c-0.6,0-0.85-0.47-1.01-1.28l-0.25-1.36h0.14
		C24.22,260.26,24.92,261.03,24.92,261.97z"/>
	<path d="M30.16,251.38h-4.86c1.07-0.45,1.81-1.48,1.81-3.03c0-2.7-2.12-4.08-4.84-4.08c-2.7,0-4.84,1.38-4.84,4.08
		c0,1.55,0.74,2.58,1.83,3.03h-1.59v3.34h12.49V251.38z M22.33,251.38H22.2c-1.32,0-2.18-0.72-2.18-1.85c0-1.3,0.93-1.9,2.25-1.9
		c1.34,0,2.27,0.6,2.27,1.9C24.53,250.66,23.67,251.38,22.33,251.38z"/>
	<rect x="17.67" y="239.61" width="9.19" height="3.34"/>
	<rect x="13.87" y="239.59" width="2.93" height="3.38"/>
	<path d="M26.28,231.7h-2.16c0.23,0.56,0.31,1.01,0.31,1.42c0,0.68-0.31,1.05-1.09,1.05h-3.36v-2.39h-2.31v2.39h-2.54v2.1l1.2,0.31
		c0.85,0.23,1.34,0.52,1.48,1.44l0.1,0.68h2.06v-1.24h4.33c2.16,0,2.8-1.46,2.8-3.01C27.11,233.2,26.8,232.4,26.28,231.7z"/>
	<path d="M27.07,222.61c0-0.95-0.27-1.61-0.6-2.08H24.7c0.1,0.27,0.14,0.47,0.14,0.74c0,0.35-0.21,0.56-0.68,0.56h-3.13
		c-2.56,0-3.61,1.79-3.61,4.23c0,2.76,1.4,4.27,3.42,4.56l0.21-3.09c-0.68-0.14-1.15-0.52-1.15-1.26c0-0.8,0.45-1.15,1.22-1.15h0.14
		l0.43,2.58c0.35,2,1.11,3.28,2.89,3.28c1.57,0,2.49-1.17,2.49-2.97c0-1.46-0.56-2.51-1.63-3.05
		C26.49,224.63,27.07,223.74,27.07,222.61z M24.14,227.74c-0.6,0-0.85-0.47-1.01-1.28l-0.25-1.36h0.14c1.2,0,1.9,0.76,1.9,1.71
		C24.92,227.37,24.61,227.74,24.14,227.74z"/>
	<rect x="13.87" y="216.22" width="12.99" height="3.34"/>
	<rect x="17.67" y="211.07" width="9.19" height="3.34"/>
	<rect x="13.87" y="211.05" width="2.93" height="3.38"/>
	<path d="M24.06,201.03c-1.79,0-2.72,1.2-3.05,3.26l-0.31,1.79c-0.04,0.31-0.21,0.56-0.52,0.56c-0.41,0-0.66-0.37-0.66-1.01
		c0-1.03,0.41-1.61,1.07-1.73l-0.08-2.74c-1.92,0.19-3.09,1.75-3.09,4.41c0,2.58,1.3,4.16,3.11,4.16c1.88,0,2.6-1.17,2.95-3.4
		l0.21-1.36c0.1-0.64,0.35-0.85,0.7-0.85c0.37,0,0.64,0.39,0.64,1.13c0,1.01-0.43,1.63-1.2,1.75l0.04,2.91
		c2.23-0.19,3.24-2.08,3.24-4.62C27.11,202.68,26,201.03,24.06,201.03z"/>
	<path d="M21.98,187.61h4.89v-3.34h-5.77c-1.92,0-3.67,0.74-3.67,3.28c0,1.55,0.78,2.64,1.81,3.13c-1.07,0.39-1.81,1.24-1.81,2.87
		c0,1.38,0.62,2.37,1.63,2.87h-1.38v3.34h9.19v-3.34h-4.51c-1.38,0-2.29-0.39-2.29-1.48c0-1.01,0.66-1.26,1.92-1.26h4.89v-3.34
		h-4.51c-1.38,0-2.29-0.37-2.29-1.48C20.06,187.84,20.72,187.61,21.98,187.61z"/>
	<rect x="13.87" y="175.51" width="12.99" height="3.5"/>
	<path d="M24.06,165.39c-1.79,0-2.72,1.2-3.05,3.26l-0.31,1.79c-0.04,0.31-0.21,0.56-0.52,0.56c-0.41,0-0.66-0.37-0.66-1.01
		c0-1.03,0.41-1.61,1.07-1.73l-0.08-2.74c-1.92,0.19-3.09,1.75-3.09,4.41c0,2.58,1.3,4.16,3.11,4.16c1.88,0,2.6-1.17,2.95-3.4
		l0.21-1.36c0.1-0.64,0.35-0.85,0.7-0.85c0.37,0,0.64,0.39,0.64,1.13c0,1.01-0.43,1.63-1.2,1.75l0.04,2.91
		c2.23-0.19,3.24-2.08,3.24-4.62C27.11,167.04,26,165.39,24.06,165.39z"/>
	<path d="M26.86,151.03v-3.73l-12.99,5.17v3.92l12.99,5.17v-3.53l-2.51-0.97V152L26.86,151.03z M21.73,156.06l-3.83-1.48v-0.08
		l3.83-1.48V156.06z"/>
	<polygon points="13.87,135.26 22.51,138.48 22.51,138.56 13.87,141.78 13.87,145.45 26.86,140.46 26.86,136.77 13.87,131.78 	"/>
	<rect x="13.87" y="127.51" width="2.93" height="3.38"/>
	<rect x="17.67" y="127.53" width="9.19" height="3.34"/>
	<path d="M19.3,122.38h-1.63v3.34h9.19v-3.34h-4.21c-1.55,0-2.12-0.76-2.12-2c0-0.64,0.12-1.13,0.39-1.59l-3.15-0.21
		c-0.19,0.23-0.35,0.72-0.35,1.28C17.42,121.08,18.27,122.05,19.3,122.38z"/>
	<path d="M22.57,114.32h-4.91v3.34h5.79c1.92,0,3.65-0.76,3.65-3.28c0-1.38-0.6-2.39-1.63-2.89h1.38v-3.34h-9.19v3.34h4.51
		c1.4,0,2.31,0.41,2.31,1.46C24.49,113.97,23.81,114.32,22.57,114.32z"/>
	<path d="M20.53,106.82c1.88,0,2.6-1.18,2.95-3.4l0.21-1.36c0.1-0.64,0.35-0.85,0.7-0.85c0.37,0,0.64,0.39,0.64,1.13
		c0,1.01-0.43,1.63-1.2,1.75l0.04,2.91c2.23-0.19,3.24-2.08,3.24-4.62c0-2.62-1.11-4.27-3.05-4.27c-1.79,0-2.72,1.2-3.05,3.26
		l-0.31,1.79c-0.04,0.31-0.21,0.56-0.52,0.56c-0.41,0-0.66-0.37-0.66-1.01c0-1.03,0.41-1.61,1.07-1.73l-0.08-2.74
		c-1.92,0.19-3.09,1.75-3.09,4.41C17.42,105.23,18.72,106.82,20.53,106.82z"/>
	<rect x="23.32" y="91.73" width="3.55" height="3.55"/>
	<path d="M22.26,88.85c2.87,0,4.84-2.02,4.84-5.03c0-2.99-1.98-5.03-4.84-5.03c-2.84,0-4.84,2.04-4.84,5.03
		C17.42,86.83,19.42,88.85,22.26,88.85z M22.26,82.15c1.38,0,2.33,0.52,2.33,1.67c0,1.17-0.95,1.67-2.33,1.67s-2.33-0.5-2.33-1.67
		C19.93,82.67,20.88,82.15,22.26,82.15z"/>
	<path d="M17.77,70.34c-0.19,0.23-0.35,0.72-0.35,1.28c0,1.22,0.85,2.19,1.88,2.51h-1.63v3.34h9.19v-3.34h-4.21
		c-1.55,0-2.12-0.76-2.12-2c0-0.64,0.12-1.13,0.39-1.59L17.77,70.34z"/>
	<path d="M27.07,59.66c-1.55,0-2.64,1.05-2.64,3.13v3.81c0,0.56-0.25,0.78-0.56,0.78c-0.19,0-0.33-0.06-0.43-0.19
		c0.19-0.6,0.27-1.26,0.27-2c0-2.6-1.2-4.47-3.13-4.47c-0.43,0-0.83,0.1-1.18,0.29c-0.1-0.45-0.14-0.95-0.14-1.34h-2.52
		c0,1.01,0.66,2.02,1.42,2.58c-0.47,0.78-0.74,1.83-0.74,2.95c0,2.58,1.2,4.43,3.15,4.43c1.01,0,1.79-0.49,2.33-1.32
		c0.37,0.99,1.05,1.57,1.94,1.57c0.78,0,1.53-0.5,1.79-1.32c0.08,1.03,0.72,1.75,1.53,1.75c1.73,0,2.25-2.27,2.25-4.89
		C30.41,62.45,29.36,59.66,27.07,59.66z M20.57,66.14c-0.8,0-1.32-0.41-1.32-0.97c0-0.56,0.52-0.97,1.32-0.97
		c0.82,0,1.34,0.41,1.34,0.97C21.91,65.72,21.4,66.14,20.57,66.14z M27.83,67.58c-0.35,0-0.56-0.25-0.56-0.62v-3.38
		c0-0.56,0.14-0.85,0.54-0.85c0.56,0,0.87,1.13,0.87,2.68C28.68,66.65,28.49,67.58,27.83,67.58z"/>
	<path d="M761.93,386.74v2.49l3.42,0.8v2.04l2.06,0.43v-1.98l2.02,0.5v1.88l2.06,0.43v-1.83l3.42,0.82v-2.49l-3.42-0.82v-1.77
		l3.42,0.83v-2.49l-3.42-0.83v-2.02l-2.06-0.43v1.98l-2.02-0.5v-1.88l-2.06-0.43v1.81l-3.42-0.8v2.49l3.42,0.8v1.77L761.93,386.74z
		 M767.41,386.26l2.02,0.5v1.77l-2.02-0.5V386.26z"/>
	<path d="M767.43,408.96l0.14-3.36c-1.44-0.21-2.78-0.99-2.78-3.01c0-1.92,1.42-3.03,3.63-3.03s3.63,1.11,3.63,3.03
		c0,2.02-1.34,2.8-2.78,3.01l0.12,3.36c3.24-0.25,5.77-2.37,5.77-6.35c0-3.79-2.74-6.66-6.74-6.66s-6.74,2.87-6.74,6.66
		C761.68,406.59,764.2,408.71,767.43,408.96z"/>
	<path d="M764.63,418.83h3.13c2.56,0,3.61-1.79,3.61-4.23c0-2.76-1.4-4.27-3.42-4.56l-0.21,3.09c0.68,0.14,1.15,0.51,1.15,1.26
		c0,0.8-0.45,1.15-1.22,1.15h-0.14l-0.43-2.58c-0.35-2-1.11-3.28-2.89-3.28c-1.57,0-2.49,1.17-2.49,2.97c0,1.46,0.56,2.51,1.63,3.05
		c-1.05,0.31-1.63,1.2-1.63,2.33c0,0.95,0.27,1.61,0.6,2.08h1.77c-0.1-0.27-0.14-0.47-0.14-0.74
		C763.95,419.04,764.16,418.83,764.63,418.83z M763.87,413.84c0-0.56,0.31-0.93,0.78-0.93c0.6,0,0.85,0.47,1.01,1.28l0.25,1.36
		h-0.14C764.57,415.55,763.87,414.79,763.87,413.84z"/>
	<path d="M758.63,424.44h4.87c-1.07,0.45-1.81,1.48-1.81,3.03c0,2.7,2.12,4.08,4.84,4.08c2.7,0,4.84-1.38,4.84-4.08
		c0-1.55-0.74-2.58-1.83-3.03h1.59v-3.34h-12.49V424.44z M766.46,424.44h0.12c1.32,0,2.19,0.72,2.19,1.86c0,1.3-0.93,1.9-2.25,1.9
		c-1.34,0-2.27-0.6-2.27-1.9C764.26,425.16,765.12,424.44,766.46,424.44z"/>
	<rect x="771.99" y="432.85" width="2.93" height="3.38"/>
	<rect x="761.93" y="432.87" width="9.19" height="3.34"/>
	<path d="M762.51,444.12h2.16c-0.23-0.56-0.31-1.01-0.31-1.42c0-0.68,0.31-1.05,1.09-1.05h3.36v2.39h2.31v-2.39h2.54v-2.1l-1.2-0.31
		c-0.85-0.23-1.34-0.51-1.48-1.44l-0.1-0.68h-2.06v1.24h-4.33c-2.16,0-2.8,1.46-2.8,3.01C761.68,442.62,761.99,443.42,762.51,444.12
		z"/>
	<path d="M764.63,453.99h3.13c2.56,0,3.61-1.79,3.61-4.23c0-2.76-1.4-4.27-3.42-4.56l-0.21,3.09c0.68,0.14,1.15,0.51,1.15,1.26
		c0,0.8-0.45,1.15-1.22,1.15h-0.14l-0.43-2.58c-0.35-2-1.11-3.28-2.89-3.28c-1.57,0-2.49,1.18-2.49,2.97c0,1.46,0.56,2.51,1.63,3.05
		c-1.05,0.31-1.63,1.2-1.63,2.33c0,0.95,0.27,1.61,0.6,2.08h1.77c-0.1-0.27-0.14-0.47-0.14-0.74
		C763.95,454.2,764.16,453.99,764.63,453.99z M763.87,449c0-0.56,0.31-0.93,0.78-0.93c0.6,0,0.85,0.47,1.01,1.28l0.25,1.36h-0.14
		C764.57,450.72,763.87,449.95,763.87,449z"/>
	<rect x="761.93" y="456.26" width="12.99" height="3.34"/>
	<rect x="761.93" y="461.41" width="9.19" height="3.34"/>
	<rect x="771.99" y="461.39" width="2.93" height="3.38"/>
	<path d="M764.73,474.79c1.79,0,2.72-1.2,3.05-3.26l0.31-1.79c0.04-0.31,0.21-0.56,0.52-0.56c0.41,0,0.66,0.37,0.66,1.01
		c0,1.03-0.41,1.61-1.07,1.73l0.08,2.74c1.92-0.19,3.09-1.75,3.09-4.41c0-2.58-1.3-4.16-3.11-4.16c-1.88,0-2.6,1.18-2.95,3.4
		l-0.21,1.36c-0.1,0.64-0.35,0.85-0.7,0.85c-0.37,0-0.64-0.39-0.64-1.13c0-1.01,0.43-1.63,1.2-1.75l-0.04-2.91
		c-2.23,0.19-3.24,2.08-3.24,4.62C761.68,473.14,762.79,474.79,764.73,474.79z"/>
	<path d="M771.37,482.27c0-1.38-0.62-2.37-1.63-2.87h1.38v-3.34h-9.19v3.34h4.51c1.38,0,2.29,0.39,2.29,1.48
		c0,1.01-0.66,1.26-1.92,1.26h-4.89v3.34h4.51c1.38,0,2.29,0.37,2.29,1.48c0,1.01-0.66,1.24-1.92,1.24h-4.89v3.34h5.77
		c1.92,0,3.67-0.74,3.67-3.28c0-1.55-0.78-2.64-1.81-3.13C770.63,484.74,771.37,483.9,771.37,482.27z"/>
	<rect x="761.93" y="495.14" width="12.99" height="3.5"/>
	<path d="M764.96,502.78l-0.04-2.91c-2.23,0.19-3.24,2.08-3.24,4.62c0,2.62,1.11,4.27,3.05,4.27c1.79,0,2.72-1.2,3.05-3.26
		l0.31-1.79c0.04-0.31,0.21-0.56,0.52-0.56c0.41,0,0.66,0.37,0.66,1.01c0,1.03-0.41,1.61-1.07,1.73l0.08,2.74
		c1.92-0.19,3.09-1.75,3.09-4.41c0-2.58-1.3-4.16-3.11-4.16c-1.88,0-2.6,1.18-2.95,3.4l-0.21,1.36c-0.1,0.64-0.35,0.85-0.7,0.85
		c-0.37,0-0.64-0.39-0.64-1.13C763.76,503.53,764.2,502.91,764.96,502.78z"/>
	<path d="M774.92,516.11l-12.99-5.17v3.52l2.52,0.97v5.07l-2.52,0.97v3.73l12.99-5.17V516.11z M770.9,518l-3.83,1.48v-3.05
		l3.83,1.48V518z"/>
	<polygon points="774.92,530.66 774.92,526.99 761.93,531.98 761.93,535.67 774.92,540.66 774.92,537.18 766.28,533.96 
		766.28,533.88 	"/>
	<rect x="761.93" y="541.56" width="9.19" height="3.34"/>
	<rect x="771.99" y="541.54" width="2.93" height="3.38"/>
	<path d="M771.02,553.85c0.19-0.23,0.35-0.72,0.35-1.28c0-1.22-0.85-2.19-1.88-2.52h1.63v-3.34h-9.19v3.34h4.21
		c1.55,0,2.12,0.76,2.12,2c0,0.64-0.12,1.13-0.39,1.59L771.02,553.85z"/>
	<path d="M763.31,560.94h-1.38v3.34h9.19v-3.34h-4.51c-1.4,0-2.31-0.41-2.31-1.46c0-1.01,0.68-1.36,1.92-1.36h4.91v-3.34h-5.79
		c-1.92,0-3.65,0.76-3.65,3.28C761.68,559.44,762.28,560.45,763.31,560.94z"/>
	<path d="M764.73,574.32c1.79,0,2.72-1.2,3.05-3.26l0.31-1.79c0.04-0.31,0.21-0.56,0.52-0.56c0.41,0,0.66,0.37,0.66,1.01
		c0,1.03-0.41,1.61-1.07,1.73l0.08,2.74c1.92-0.19,3.09-1.75,3.09-4.41c0-2.58-1.3-4.16-3.11-4.16c-1.88,0-2.6,1.17-2.95,3.4
		l-0.21,1.36c-0.1,0.64-0.35,0.85-0.7,0.85c-0.37,0-0.64-0.39-0.64-1.13c0-1.01,0.43-1.63,1.2-1.75l-0.04-2.91
		c-2.23,0.19-3.24,2.08-3.24,4.62C761.68,572.67,762.79,574.32,764.73,574.32z"/>
</g>
</svg>
