<?xml version="1.0" encoding="utf-8"?>
<!-- Generator: Adobe Illustrator 23.1.1, SVG Export Plug-In . SVG Version: 6.00 Build 0)  -->
<svg version="1.1" xmlns="http://www.w3.org/2000/svg" xmlns:xlink="http://www.w3.org/1999/xlink" x="0px" y="0px"
	 viewBox="0 0 792 612" style="enable-background:new 0 0 792 612;" xml:space="preserve">
<style type="text/css">
	.st0{display:none;}
	.st1{display:inline;}
	
		.st2{display:inline;fill:#FFFFFF;stroke:#000000;stroke-width:16;stroke-linecap:round;stroke-linejoin:round;stroke-miterlimit:10;}
	.st3{fill:#FFFFFF;stroke:#000000;stroke-width:16;stroke-linecap:round;stroke-linejoin:round;stroke-miterlimit:10;}
	.st4{display:inline;fill:none;stroke:#000000;stroke-width:24;stroke-linejoin:round;stroke-miterlimit:10;}
	.st5{display:inline;fill:#FFFFFF;}
	.st6{fill:#FFFFFF;stroke:#000000;stroke-width:17;stroke-linecap:round;stroke-miterlimit:10;}
	.st7{fill:#FFFFFF;stroke:#000000;stroke-width:17;stroke-miterlimit:10;}
	.st8{stroke:#000000;stroke-width:16.0572;stroke-linecap:round;stroke-miterlimit:10;}
	.st9{fill:#FFFFFF;}
	.st10{fill:#FFFFFF;stroke:#000000;stroke-width:17.1072;stroke-linecap:round;stroke-linejoin:round;stroke-miterlimit:10;}
	.st11{stroke:#000000;stroke-width:17.1072;stroke-linecap:round;stroke-linejoin:round;stroke-miterlimit:10;}
	.st12{fill:#FFFFFF;stroke:#000000;stroke-width:14.7375;stroke-linecap:round;stroke-linejoin:round;stroke-miterlimit:10;}
	.st13{fill:none;stroke:#000000;stroke-width:14.7375;stroke-linecap:round;stroke-linejoin:round;stroke-miterlimit:10;}
	.st14{stroke:#000000;stroke-width:14.7375;stroke-linecap:round;stroke-linejoin:round;stroke-miterlimit:10;}
	.st15{fill:#FFFFFF;stroke:#000000;stroke-width:14.2911;stroke-linecap:round;stroke-linejoin:round;stroke-miterlimit:10;}
	.st16{fill:none;stroke:#000000;stroke-width:13.497;stroke-miterlimit:10;}
	.st17{fill:#FFFFFF;stroke:#000000;stroke-width:13.497;stroke-linecap:round;stroke-linejoin:round;stroke-miterlimit:10;}
	.st18{fill:#FFFFFF;stroke:#000000;stroke-width:13.497;stroke-miterlimit:10;}
	.st19{fill:#FFFFFF;stroke:#000000;stroke-width:14.7439;stroke-linecap:round;stroke-miterlimit:10;}
	.st20{fill:#FFFFFF;stroke:#000000;stroke-width:14.7439;stroke-miterlimit:10;}
	.st21{stroke:#000000;stroke-width:13.9262;stroke-linecap:round;stroke-miterlimit:10;}
	
		.st22{display:inline;fill:#FFFFFF;stroke:#000000;stroke-width:14.6942;stroke-linecap:round;stroke-linejoin:round;stroke-miterlimit:10;}
	.st23{fill:#FFFFFF;stroke:#000000;stroke-width:14.6942;stroke-linecap:round;stroke-linejoin:round;stroke-miterlimit:10;}
	.st24{fill:none;stroke:#000000;stroke-width:24;stroke-linejoin:round;stroke-miterlimit:10;}
	.st25{fill:none;stroke:#000000;stroke-width:30.5612;stroke-linecap:round;stroke-linejoin:round;stroke-miterlimit:10;}
	.st26{fill:#FFFFFF;stroke:#000000;stroke-width:16.2993;stroke-linecap:round;stroke-linejoin:round;stroke-miterlimit:10;}
	.st27{display:inline;fill:#FFFFFF;stroke:#000000;stroke-width:13.497;stroke-linecap:round;stroke-miterlimit:10;}
	
		.st28{display:inline;fill:none;stroke:#000000;stroke-width:13.497;stroke-linecap:round;stroke-linejoin:round;stroke-miterlimit:10;}
	
		.st29{display:inline;fill:#FFFFFF;stroke:#000000;stroke-width:13.497;stroke-linecap:round;stroke-linejoin:round;stroke-miterlimit:10;}
	
		.st30{display:inline;fill:url(#);stroke:#000000;stroke-width:13.497;stroke-linecap:round;stroke-linejoin:round;stroke-miterlimit:10;}
	.st31{fill:#FFFFFF;stroke:#000000;stroke-width:15.2362;stroke-linecap:round;stroke-linejoin:round;stroke-miterlimit:10;}
	.st32{fill:#FFFFFF;stroke:#000000;stroke-width:14.8467;stroke-linecap:round;stroke-linejoin:round;stroke-miterlimit:10;}
	.st33{stroke:#000000;stroke-width:20.1683;stroke-linecap:round;stroke-miterlimit:10;}
	.st34{fill:none;stroke:#000000;stroke-width:14.8467;stroke-linecap:round;stroke-linejoin:round;stroke-miterlimit:10;}
	.st35{fill:#FFFFFF;stroke:#FFFFFF;stroke-width:3;stroke-miterlimit:10;}
	.st36{display:inline;fill:none;stroke:#000000;stroke-width:15;stroke-linecap:round;stroke-linejoin:round;stroke-miterlimit:10;}
	
		.st37{display:inline;fill:#FFFFFF;stroke:#000000;stroke-width:15;stroke-linecap:round;stroke-linejoin:round;stroke-miterlimit:10;}
	.st38{fill:#FFFFFF;stroke:#000000;stroke-width:15;stroke-linecap:round;stroke-linejoin:round;stroke-miterlimit:10;}
	.st39{fill:#FFFFFF;stroke:#000000;stroke-width:11.7326;stroke-linecap:round;stroke-linejoin:round;stroke-miterlimit:10;}
	.st40{fill:#FFFFFF;stroke:#000000;stroke-width:13.2623;stroke-linecap:round;stroke-linejoin:round;stroke-miterlimit:10;}
	.st41{fill:none;stroke:#000000;stroke-width:16;stroke-linecap:round;stroke-miterlimit:10;}
	.st42{fill:url(#);stroke:#000000;stroke-width:16;stroke-linecap:round;stroke-linejoin:round;stroke-miterlimit:10;}
	.st43{fill:#FFFFFF;stroke:#000000;stroke-width:16;stroke-linecap:round;stroke-miterlimit:10;}
	.st44{fill:#FFFFFF;stroke:#000000;stroke-width:13.2623;stroke-linecap:round;stroke-miterlimit:10;}
	.st45{stroke:#000000;stroke-width:4.5213;stroke-miterlimit:10;}
	.st46{fill:none;stroke:#000000;stroke-width:15.2344;stroke-linecap:round;stroke-linejoin:round;stroke-miterlimit:10;}
	.st47{fill:#FFFFFF;stroke:#000000;stroke-width:15.2344;stroke-linecap:round;stroke-linejoin:round;stroke-miterlimit:10;}
	.st48{stroke:#000000;stroke-width:18.3348;stroke-linecap:round;stroke-miterlimit:10;}
	.st49{fill:none;stroke:#000000;stroke-width:13.497;stroke-linecap:round;stroke-linejoin:round;stroke-miterlimit:10;}
	.st50{fill:#FFFFFF;stroke:#000000;stroke-width:15;stroke-linecap:square;stroke-linejoin:round;stroke-miterlimit:10;}
	.st51{fill:#FFFFFF;stroke:#000000;stroke-width:15;stroke-linejoin:round;stroke-miterlimit:10;}
	.st52{fill:none;stroke:#000000;stroke-width:15;stroke-linecap:round;stroke-linejoin:round;stroke-miterlimit:10;}
	.st53{fill:url(#);stroke:#000000;stroke-width:13.497;stroke-linecap:round;stroke-linejoin:round;stroke-miterlimit:10;}
	.st54{font-family:'FoundersGrotesk-Bold';}
	.st55{font-size:20.6105px;}
	.st56{font-size:10.3052px;}
	.st57{font-size:19.2364px;}
	.st58{display:inline;fill:none;stroke:#000000;stroke-width:16;stroke-linecap:round;stroke-linejoin:round;stroke-miterlimit:10;}
	.st59{fill:#FFFFFF;stroke:#000000;stroke-width:13.3058;stroke-linecap:round;stroke-linejoin:round;stroke-miterlimit:10;}
	.st60{fill:#FFFFFF;stroke:#000000;stroke-width:17;stroke-linecap:round;stroke-linejoin:round;stroke-miterlimit:10;}
	.st61{fill:#FFFFFF;stroke:#000000;stroke-width:15.2517;stroke-linecap:round;stroke-linejoin:round;stroke-miterlimit:10;}
	.st62{stroke:#000000;stroke-width:3;stroke-miterlimit:10;}
	.st63{fill:none;}
	.st64{fill:#06A6FF;}
	.st65{fill:#FF0303;}
	.st66{fill:#3DFF06;}
	.st67{fill:none;stroke:#000000;stroke-width:0;stroke-linecap:round;stroke-linejoin:round;}
</style>
<g id="Layer_1" class="st0">
	<g class="st1">
		<g>
			<path class="st6" d="M27.11,431.12c95.37-2.44,208.48-18.23,214.61-16.27C296.31,432.29,348,446.58,348,446.58l49.94-119.13
				l-56.39-57.63L257.38,276c0,0-106.41-17.73-233.19-21.05"/>
			<g>
				<polygon class="st7" points="332.53,539.39 514.73,139.11 472.06,117.75 269.72,508.47 				"/>
				<path class="st8" d="M318.74,77.65c67.54-30.9,104.09-27.29,161.83,1.14c27.1,13.34,56.63,27.88,56.75,27.94
					c0,0-5.36,21.36,15.4,31.58s42.17,11.15,42.17,11.15l-32.44,65.87c0,0-6.43-20.86-30.75-32.83
					c-24.32-11.98-38.72,14.27-38.72,14.27l-56.75-27.94C436.23,168.84,426.17,107.94,318.74,77.65z"/>
				
					<rect x="525.31" y="162.33" transform="matrix(-0.4418 0.8971 -0.8971 -0.4418 1000.4921 -255.4829)" class="st8" width="108.84" height="42.43"/>
			</g>
			<path class="st7" d="M395.92,473.58c13.58,3.09,26.04-5.26,27.45-17.21c1.43-11.98-6.65-22.79-17.72-25.32
				c-22.04-5.09-43.17-13.36-62.73-24.51c-9.86-5.53-23.05-2.92-30.09,6.88c-7.02,9.76-3.53,24.24,8.56,31.06
				C344.65,457.73,369.76,467.54,395.92,473.58z"/>
			<path class="st7" d="M418.1,434.9c13.44,2.97,25.78-5.4,27.2-17.37c1.44-11.99-6.63-22.83-17.74-25.29
				c-24.96-5.48-48.89-14.73-70.99-27.4c-9.85-5.62-23.07-2.99-30.11,6.83c-7.02,9.79-3.62,24.21,8.29,31.03
				C360.71,417.6,388.81,428.46,418.1,434.9z"/>
			<path class="st7" d="M437.33,394.82c13.44,2.97,25.78-5.4,27.21-17.37c1.44-11.99-6.63-22.83-17.74-25.29
				c-24.91-5.47-48.8-14.7-70.86-27.35c-9.85-5.62-23.07-2.99-30.11,6.83c-7.02,9.79-3.62,24.21,8.3,31.04
				C380.03,377.54,408.08,388.38,437.33,394.82z"/>
			<path class="st7" d="M444.39,351.83c13.44,2.97,25.78-5.4,27.2-17.37c1.44-11.99-6.63-22.83-17.74-25.29
				c-24.96-5.48-48.89-14.73-70.99-27.4c-9.85-5.62-23.07-2.99-30.11,6.83c-7.02,9.79-3.62,24.21,8.29,31.03
				C386.99,334.53,415.09,345.39,444.39,351.83z"/>
			<path class="st6" d="M257.38,276c13.58-2.72,43.62-35.11,67.63-39.67c18.98-3.6,50.23-3.33,70.99-1.49
				c11.5,1.02,18.29,1.16,29.07,9.78c8.65,6.93,33.73,22.59,43.11,34.17c6.24,7.7-0.12,15.07-4.69,17.77
				c-10.67,6.31-28.43,9.99-44.86,0.68c-12.65-7.16-16.91-10.42-16.91-10.42c-24.62,18.85-46,18.47-46,18.47
				s-5.78,23.26-41.04,44.66"/>
		</g>
	</g>
	<text transform="matrix(0 1 -1 0 761.9287 303.6926)" class="st1"><tspan x="0" y="0" class="st54 st55">www</tspan><tspan x="45.14" y="0" class="st54 st56"> </tspan><tspan x="46.99" y="0" class="st54 st55">.</tspan><tspan x="51.77" y="0" class="st54 st56"> </tspan><tspan x="53.63" y="0" class="st54 st55">Capitalism</tspan><tspan x="150.43" y="0" class="st54 st57"> </tspan><tspan x="153.9" y="0" class="st54 st55">Is</tspan><tspan x="168.88" y="0" class="st54 st57"> </tspan><tspan x="172.34" y="0" class="st54 st55">A</tspan><tspan x="186.6" y="0" class="st54 st56"> </tspan><tspan x="188.46" y="0" class="st54 st55">Virus</tspan><tspan x="236.15" y="0" class="st54 st56"> </tspan><tspan x="238.01" y="0" class="st54 st55">.</tspan><tspan x="242.79" y="0" class="st54 st56"> </tspan><tspan x="244.64" y="0" class="st54 st55">org</tspan></text>
</g>
<g id="Layer_1_copy">
	<path class="st63" d="M760.98,574.91c0.39,0,0.54-0.29,0.54-0.85v-3.38c0-0.37-0.21-0.62-0.56-0.62c-0.66,0-0.84,0.93-0.84,2.16
		C760.12,573.78,760.42,574.91,760.98,574.91z"/>
	<path class="st63" d="M768.22,573.45c0.8,0,1.32-0.41,1.32-0.97c0-0.56-0.52-0.97-1.32-0.97c-0.82,0-1.34,0.41-1.34,0.97
		C766.88,573.04,767.39,573.45,768.22,573.45z"/>
	<path class="st63" d="M766.53,390.02c1.32,0,2.25-0.6,2.25-1.9c0-1.13-0.87-1.86-2.18-1.86h-0.12c-1.34,0-2.21,0.72-2.21,1.86
		C764.26,389.42,765.19,390.02,766.53,390.02z"/>
	<polygon class="st63" points="767.06,484.64 770.9,483.16 770.9,483.08 767.06,481.59 	"/>
	<path class="st63" d="M765.76,377.39h0.14l-0.25-1.36c-0.17-0.8-0.41-1.28-1.01-1.28c-0.47,0-0.78,0.37-0.78,0.93
		C763.87,376.62,764.57,377.39,765.76,377.39z"/>
	<path class="st63" d="M766.53,552.16c-1.38,0-2.33,0.49-2.33,1.67c0,1.15,0.95,1.67,2.33,1.67c1.38,0,2.33-0.52,2.33-1.67
		C768.86,552.65,767.91,552.16,766.53,552.16z"/>
	<path class="st63" d="M765.76,412.55h0.14l-0.25-1.36c-0.17-0.8-0.41-1.28-1.01-1.28c-0.47,0-0.78,0.37-0.78,0.93
		C763.87,411.78,764.57,412.55,765.76,412.55z"/>
	<path d="M581.08,114.61l-10.84,22.02c-4.51-1.4-9.27-3.2-13.97-5.52c-14.27-7.03-11.51-20.93-11.16-22.43l1.58-6.29l-62.57-30.81
		c-32.49-16-56.59-23.07-80.59-23.64c-25.75-0.62-52.91,6.29-88.12,22.4l-19.88,9.09l21.04,5.93c29.11,8.21,69.09,24.14,94.23,53.41
		c14.84,17.28,17.5,31.28,17.52,31.36l0.67,4.07l3.39,1.67l-26.61,51.38c-2.32-0.3-4.69-0.51-7.18-0.73l-1.84-0.16
		c-21.31-1.89-53.35-2.19-73.33,1.61c-15.68,2.98-32.04,15.19-46.48,25.97c-7.4,5.53-15.69,11.71-20.07,13.35
		c-14.91-2.37-115.71-17.8-232.46-20.86c-4.69-0.12-8.6,3.58-8.72,8.27s3.58,8.6,8.27,8.72c0.12,0,0.24,0.01,0.36,0.01
		c124.52,3.29,230.6,20.75,231.66,20.93l1,0.17l6.64-0.49l-0.7-0.9c6.81-2.63,14.65-8.48,24.18-15.59
		c12.32-9.2,27.65-20.65,39.48-22.89c17.57-3.34,47.84-3.22,68.66-1.37l1.87,0.16c9.93,0.86,14.46,1.25,22.63,7.79
		c2.7,2.17,6.67,4.96,11.27,8.21c10.39,7.33,24.62,17.37,30.55,24.68c0.79,0.97,0.72,1.37,0.69,1.5c-0.19,1.05-1.64,2.74-3.1,3.6
		c-8.44,4.99-23.03,8.15-36.34,0.6c-11.73-6.64-15.93-9.77-15.94-9.78l-5.17-3.95l-5.16,3.95c-21.67,16.59-40.56,16.73-40.69,16.73
		l-6.72-0.31l-1.66,6.66c-0.01,0.05-1.44,5.14-6.67,12.48c-4.87,6.84-14.13,17.09-30.55,27.05c-4.01,2.44-5.29,7.66-2.86,11.68
		c1.6,2.64,4.4,4.09,7.27,4.09c1.5,0,3.02-0.4,4.4-1.24c5.62-3.41,10.55-6.89,14.89-10.34c0.11,0.8,0.24,1.6,0.41,2.4
		c0.42,1.92,1.03,3.79,1.81,5.58c-6.52,1.98-12.46,6.01-16.64,11.85c-4.61,6.43-6.27,14.66-4.54,22.6c0.59,2.7,1.54,5.29,2.83,7.73
		l-0.93,1.81c-4.22,2.25-8,5.48-10.97,9.61c-3.27,4.55-5.04,10.02-5.17,15.65c-16.86-5.01-36.51-10.98-56.46-17.35
		c-3.57-1.14-8.57-0.8-48.66,3.26c-43.53,4.41-109.3,11.08-168.68,12.61c-0.03,0-0.05,0-0.08,0c-4.69,0.12-8.4,4.02-8.28,8.71
		s4.02,8.39,8.71,8.28c60.03-1.54,126.23-8.25,170.03-12.69c19.63-1.99,38.21-3.88,42.49-3.75c19.63,6.26,38.95,12.14,55.6,17.09
		l-37.28,71.99l78.45,38.63l34.32-75.39c7.58,2.44,15.27,4.57,23.06,6.36l0.02,0.01c2.51,0.57,5.04,0.85,7.54,0.85
		c6.62,0,13.04-1.96,18.35-5.71c6.63-4.68,10.96-11.84,11.88-19.63c0.58-4.87-0.03-9.67-1.59-14.1c4.18-0.88,8.14-2.56,11.62-5.03
		c6.62-4.7,10.96-11.89,11.89-19.71c0.66-5.53-0.19-10.96-2.23-15.85c3.42-0.96,6.67-2.46,9.57-4.52
		c6.62-4.7,10.96-11.89,11.89-19.7c0.99-8.2-1.37-16.21-6.01-22.52c0.39-0.25,0.79-0.49,1.17-0.76c6.62-4.7,10.95-11.89,11.89-19.71
		c1.47-12.23-4.48-24.01-14.35-30.4c0.73-0.39,1.45-0.78,2.13-1.19c4.57-2.7,9.9-8.12,11.18-15.23c0.67-3.74,0.49-9.41-4.22-15.21
		c-2.16-2.67-4.95-5.44-8.11-8.24l26.95-59.2l2.66,1.29l3.72-6.63c1.12-1.99,11.41-19.21,28.15-10.97c4.78,2.36,8.76,5.08,12.06,7.9
		l-14.31,29.06l52.49,25.8l55.17-112.05L581.08,114.61z M328.42,527.9l-47.17-23.23l29.7-57.35c1.88,1.73,3.96,3.26,6.24,4.55
		c12.12,6.91,24.71,12.89,37.67,17.93L328.42,527.9z M414.94,455.38c-0.36,3.06-2.07,5.81-4.81,7.74
		c-3.38,2.39-7.87,3.18-12.31,2.17c-25.34-5.85-49.64-15.33-72.24-28.21c-3.91-2.21-6.66-5.76-7.54-9.74
		c-0.72-3.26-0.11-6.44,1.7-8.97c3.48-4.84,9.54-7.04,15.04-5.91c23.19,12.82,47.91,22.5,73.63,28.88
		C412.9,444.34,415.61,449.76,414.94,455.38z M436.86,416.53c-0.37,3.11-2.1,5.91-4.85,7.87c-3.33,2.36-7.73,3.17-12.08,2.21
		l-0.01,0c-28.45-6.26-55.68-16.78-80.94-31.26c-3.82-2.19-6.5-5.7-7.36-9.63c-0.71-3.29-0.1-6.51,1.75-9.08
		c2.87-4,7.48-6.21,12.09-6.21c2.37,0,4.74,0.58,6.88,1.8c20.56,11.78,42.56,20.66,65.5,26.45c3.53,1,7.08,1.94,10.64,2.81
		C434.07,404.04,437.63,410.14,436.86,416.53z M456.09,376.45c-0.37,3.11-2.09,5.91-4.85,7.86c-3.33,2.36-7.73,3.17-12.09,2.21
		l-0.01,0c-28.4-6.25-55.58-16.75-80.8-31.21c-3.82-2.19-6.5-5.7-7.36-9.63c-0.72-3.29-0.1-6.51,1.75-9.08
		c2.5-3.49,6.33-5.61,10.34-6.1c24.97,13.56,51.67,23.52,79.48,29.64c1.05,0.23,2.11,0.4,3.17,0.53
		C452.43,362.57,456.95,369.33,456.09,376.45z M463.15,333.46c-0.37,3.12-2.09,5.91-4.85,7.87c-3.33,2.36-7.73,3.17-12.08,2.21
		l-0.01,0c-28.19-6.2-55.18-16.59-80.25-30.88c7.9-1.52,19.57-5.05,32.54-13.23c17.1,7.93,35.02,13.99,53.51,18.05
		C459.14,319.05,464.04,326.07,463.15,333.46z M452.97,254.28c-4.12-3.04-8.29-5.98-12.15-8.71c-4.37-3.08-8.14-5.74-10.45-7.59
		c-2.89-2.32-5.58-4.11-8.15-5.54l25.41-49.06l30.72,15.13L452.97,254.28z"/>
	<polygon points="761.93,342.74 761.93,346.02 771.12,348.92 771.12,345.92 765.91,344.27 765.91,344.18 771.12,342.84 
		771.12,340.18 765.91,338.84 765.91,338.76 771.12,337.11 771.12,333.88 771.12,333.79 771.12,330.87 765.91,329.22 765.91,329.14 
		771.12,327.8 771.12,325.14 765.91,323.8 765.91,323.72 771.12,322.07 771.12,318.83 771.12,318.75 771.12,315.82 765.91,314.17 
		765.91,314.09 771.12,312.75 771.12,310.09 765.91,308.75 765.91,308.67 771.12,307.02 771.12,303.7 761.93,306.61 761.93,309.89 
		767.12,311.23 767.12,311.31 761.93,312.65 761.93,315.93 770.99,318.79 761.93,321.66 761.93,324.93 767.12,326.27 767.12,326.36 
		761.93,327.7 761.93,330.97 770.99,333.84 761.93,336.7 761.93,339.98 767.12,341.32 767.12,341.4 	"/>
	<rect x="761.93" y="351.35" width="3.55" height="3.55"/>
	<path d="M767.43,370.79l0.14-3.36c-1.44-0.21-2.78-0.99-2.78-3.01c0-1.92,1.42-3.03,3.63-3.03c2.21,0,3.63,1.11,3.63,3.03
		c0,2.02-1.34,2.8-2.78,3.01l0.12,3.36c3.24-0.25,5.77-2.37,5.77-6.35c0-3.79-2.74-6.66-6.74-6.66c-4,0-6.74,2.87-6.74,6.66
		C761.68,368.42,764.2,370.54,767.43,370.79z"/>
	<path d="M764.63,380.66h3.13c2.56,0,3.61-1.79,3.61-4.23c0-2.76-1.4-4.27-3.42-4.56l-0.21,3.09c0.68,0.14,1.15,0.52,1.15,1.26
		c0,0.8-0.45,1.15-1.22,1.15h-0.14l-0.43-2.58c-0.35-2-1.11-3.28-2.89-3.28c-1.57,0-2.49,1.18-2.49,2.97c0,1.46,0.56,2.51,1.63,3.05
		c-1.05,0.31-1.63,1.2-1.63,2.33c0,0.95,0.27,1.61,0.6,2.08h1.77c-0.1-0.27-0.14-0.47-0.14-0.74
		C763.95,380.87,764.16,380.66,764.63,380.66z M763.87,375.67c0-0.56,0.31-0.93,0.78-0.93c0.6,0,0.84,0.47,1.01,1.28l0.25,1.36
		h-0.14C764.57,377.39,763.87,376.62,763.87,375.67z"/>
	<path d="M758.63,386.27h4.86c-1.07,0.45-1.81,1.48-1.81,3.03c0,2.7,2.12,4.08,4.84,4.08c2.7,0,4.84-1.38,4.84-4.08
		c0-1.55-0.74-2.58-1.83-3.03h1.59v-3.34h-12.49V386.27z M766.46,386.27h0.12c1.32,0,2.18,0.72,2.18,1.86c0,1.3-0.93,1.9-2.25,1.9
		c-1.34,0-2.27-0.6-2.27-1.9C764.26,386.99,765.12,386.27,766.46,386.27z"/>
	<rect x="761.93" y="394.7" width="9.19" height="3.34"/>
	<rect x="771.99" y="394.68" width="2.93" height="3.38"/>
	<path d="M762.51,405.95h2.16c-0.23-0.56-0.31-1.01-0.31-1.42c0-0.68,0.31-1.05,1.09-1.05h3.36v2.39h2.31v-2.39h2.54v-2.1l-1.2-0.31
		c-0.85-0.23-1.34-0.52-1.48-1.44l-0.1-0.68h-2.06v1.24h-4.33c-2.16,0-2.8,1.46-2.8,3.01C761.68,404.45,761.99,405.25,762.51,405.95
		z"/>
	<path d="M764.63,415.82h3.13c2.56,0,3.61-1.79,3.61-4.23c0-2.76-1.4-4.27-3.42-4.56l-0.21,3.09c0.68,0.14,1.15,0.52,1.15,1.26
		c0,0.8-0.45,1.15-1.22,1.15h-0.14l-0.43-2.58c-0.35-2-1.11-3.28-2.89-3.28c-1.57,0-2.49,1.18-2.49,2.97c0,1.46,0.56,2.51,1.63,3.05
		c-1.05,0.31-1.63,1.2-1.63,2.33c0,0.95,0.27,1.61,0.6,2.08h1.77c-0.1-0.27-0.14-0.47-0.14-0.74
		C763.95,416.03,764.16,415.82,764.63,415.82z M763.87,410.84c0-0.56,0.31-0.93,0.78-0.93c0.6,0,0.84,0.47,1.01,1.28l0.25,1.36
		h-0.14C764.57,412.55,763.87,411.78,763.87,410.84z"/>
	<rect x="761.93" y="418.09" width="12.99" height="3.34"/>
	<rect x="761.93" y="423.24" width="9.19" height="3.34"/>
	<rect x="771.99" y="423.22" width="2.93" height="3.38"/>
	<path d="M764.73,436.62c1.79,0,2.72-1.2,3.05-3.26l0.31-1.79c0.04-0.31,0.21-0.56,0.51-0.56c0.41,0,0.66,0.37,0.66,1.01
		c0,1.03-0.41,1.61-1.07,1.73l0.08,2.74c1.92-0.19,3.09-1.75,3.09-4.41c0-2.58-1.3-4.16-3.11-4.16c-1.88,0-2.6,1.18-2.95,3.4
		l-0.21,1.36c-0.1,0.64-0.35,0.85-0.7,0.85c-0.37,0-0.64-0.39-0.64-1.13c0-1.01,0.43-1.63,1.2-1.75l-0.04-2.91
		c-2.23,0.19-3.24,2.08-3.24,4.62C761.68,434.97,762.79,436.62,764.73,436.62z"/>
	<path d="M771.37,444.1c0-1.38-0.62-2.37-1.63-2.87h1.38v-3.34h-9.19v3.34h4.51c1.38,0,2.29,0.39,2.29,1.48
		c0,1.01-0.66,1.26-1.92,1.26h-4.89v3.34h4.51c1.38,0,2.29,0.37,2.29,1.48c0,1.01-0.66,1.24-1.92,1.24h-4.89v3.34h5.77
		c1.92,0,3.67-0.74,3.67-3.28c0-1.55-0.78-2.64-1.81-3.13C770.63,446.58,771.37,445.73,771.37,444.1z"/>
	<rect x="761.93" y="458.63" width="12.99" height="3.5"/>
	<path d="M764.96,466.28l-0.04-2.91c-2.23,0.19-3.24,2.08-3.24,4.62c0,2.62,1.11,4.27,3.05,4.27c1.79,0,2.72-1.2,3.05-3.26
		l0.31-1.79c0.04-0.31,0.21-0.56,0.51-0.56c0.41,0,0.66,0.37,0.66,1.01c0,1.03-0.41,1.61-1.07,1.73l0.08,2.74
		c1.92-0.19,3.09-1.75,3.09-4.41c0-2.58-1.3-4.16-3.11-4.16c-1.88,0-2.6,1.18-2.95,3.4l-0.21,1.36c-0.1,0.64-0.35,0.85-0.7,0.85
		c-0.37,0-0.64-0.39-0.64-1.13C763.76,467.02,764.2,466.4,764.96,466.28z"/>
	<path d="M774.92,481.26l-12.99-5.17v3.53l2.51,0.97v5.07l-2.51,0.97v3.73l12.99-5.17V481.26z M770.9,483.16l-3.83,1.48v-3.05
		l3.83,1.48V483.16z"/>
	<polygon points="774.92,495.87 774.92,492.2 761.93,497.19 761.93,500.88 774.92,505.87 774.92,502.39 766.28,499.17 
		766.28,499.09 	"/>
	<rect x="771.99" y="506.76" width="2.93" height="3.38"/>
	<rect x="761.93" y="506.78" width="9.19" height="3.34"/>
	<path d="M769.49,515.27h1.63v-3.34h-9.19v3.34h4.21c1.55,0,2.12,0.76,2.12,2c0,0.64-0.12,1.13-0.39,1.59l3.15,0.21
		c0.19-0.23,0.35-0.72,0.35-1.28C771.37,516.57,770.53,515.6,769.49,515.27z"/>
	<path d="M766.22,523.33h4.91v-3.34h-5.79c-1.92,0-3.65,0.76-3.65,3.28c0,1.38,0.6,2.39,1.63,2.89h-1.38v3.34h9.19v-3.34h-4.51
		c-1.4,0-2.31-0.41-2.31-1.46C764.3,523.68,764.98,523.33,766.22,523.33z"/>
	<path d="M768.26,530.83c-1.88,0-2.6,1.18-2.95,3.4l-0.21,1.36c-0.1,0.64-0.35,0.85-0.7,0.85c-0.37,0-0.64-0.39-0.64-1.13
		c0-1.01,0.43-1.63,1.2-1.75l-0.04-2.91c-2.23,0.19-3.24,2.08-3.24,4.62c0,2.62,1.11,4.27,3.05,4.27c1.79,0,2.72-1.2,3.05-3.26
		l0.31-1.79c0.04-0.31,0.21-0.56,0.51-0.56c0.41,0,0.66,0.37,0.66,1.01c0,1.03-0.41,1.61-1.07,1.73l0.08,2.74
		c1.92-0.19,3.09-1.75,3.09-4.41C771.37,532.42,770.07,530.83,768.26,530.83z"/>
	<rect x="761.93" y="542.37" width="3.55" height="3.55"/>
	<path d="M766.53,548.8c-2.87,0-4.84,2.02-4.84,5.03c0,2.99,1.98,5.03,4.84,5.03c2.85,0,4.84-2.04,4.84-5.03
		C771.37,550.82,769.37,548.8,766.53,548.8z M766.53,555.5c-1.38,0-2.33-0.52-2.33-1.67c0-1.17,0.95-1.67,2.33-1.67
		c1.38,0,2.33,0.49,2.33,1.67C768.86,554.98,767.91,555.5,766.53,555.5z"/>
	<path d="M771.02,567.31c0.19-0.23,0.35-0.72,0.35-1.28c0-1.22-0.84-2.19-1.88-2.51h1.63v-3.34h-9.19v3.34h4.21
		c1.55,0,2.12,0.76,2.12,2c0,0.64-0.12,1.13-0.39,1.59L771.02,567.31z"/>
	<path d="M761.72,577.99c1.55,0,2.64-1.05,2.64-3.13v-3.81c0-0.56,0.25-0.78,0.56-0.78c0.19,0,0.33,0.06,0.43,0.19
		c-0.19,0.6-0.27,1.26-0.27,2c0,2.6,1.2,4.47,3.13,4.47c0.43,0,0.83-0.1,1.17-0.29c0.1,0.45,0.14,0.95,0.14,1.34h2.52
		c0-1.01-0.66-2.02-1.42-2.58c0.47-0.78,0.74-1.83,0.74-2.95c0-2.58-1.2-4.43-3.15-4.43c-1.01,0-1.79,0.49-2.33,1.32
		c-0.37-0.99-1.05-1.57-1.94-1.57c-0.78,0-1.53,0.49-1.79,1.32c-0.08-1.03-0.72-1.75-1.53-1.75c-1.73,0-2.25,2.27-2.25,4.89
		C758.38,575.2,759.43,577.99,761.72,577.99z M768.22,571.51c0.8,0,1.32,0.41,1.32,0.97c0,0.56-0.52,0.97-1.32,0.97
		c-0.82,0-1.34-0.41-1.34-0.97C766.88,571.93,767.39,571.51,768.22,571.51z M760.96,570.07c0.35,0,0.56,0.25,0.56,0.62v3.38
		c0,0.56-0.14,0.85-0.54,0.85c-0.56,0-0.87-1.13-0.87-2.68C760.12,571,760.3,570.07,760.96,570.07z"/>
</g>
</svg>
