<?xml version="1.0" encoding="utf-8"?>
<!-- Generator: Adobe Illustrator 23.1.1, SVG Export Plug-In . SVG Version: 6.00 Build 0)  -->
<svg version="1.1" xmlns="http://www.w3.org/2000/svg" xmlns:xlink="http://www.w3.org/1999/xlink" x="0px" y="0px"
	 viewBox="0 0 792 612" style="enable-background:new 0 0 792 612;" xml:space="preserve">
<style type="text/css">
	.st0{display:none;}
	.st1{display:inline;}
	
		.st2{display:inline;fill:#FFFFFF;stroke:#000000;stroke-width:16;stroke-linecap:round;stroke-linejoin:round;stroke-miterlimit:10;}
	.st3{fill:#FFFFFF;stroke:#000000;stroke-width:16;stroke-linecap:round;stroke-linejoin:round;stroke-miterlimit:10;}
	.st4{display:inline;fill:none;stroke:#000000;stroke-width:24;stroke-linejoin:round;stroke-miterlimit:10;}
	.st5{display:inline;fill:#FFFFFF;}
	.st6{fill:#FFFFFF;stroke:#000000;stroke-width:17;stroke-linecap:round;stroke-miterlimit:10;}
	.st7{fill:#FFFFFF;stroke:#000000;stroke-width:17;stroke-miterlimit:10;}
	.st8{stroke:#000000;stroke-width:16.0572;stroke-linecap:round;stroke-miterlimit:10;}
	.st9{fill:#FFFFFF;}
	.st10{fill:#FFFFFF;stroke:#000000;stroke-width:17.1072;stroke-linecap:round;stroke-linejoin:round;stroke-miterlimit:10;}
	.st11{stroke:#000000;stroke-width:17.1072;stroke-linecap:round;stroke-linejoin:round;stroke-miterlimit:10;}
	.st12{fill:#FFFFFF;stroke:#000000;stroke-width:14.7375;stroke-linecap:round;stroke-linejoin:round;stroke-miterlimit:10;}
	.st13{fill:none;stroke:#000000;stroke-width:14.7375;stroke-linecap:round;stroke-linejoin:round;stroke-miterlimit:10;}
	.st14{stroke:#000000;stroke-width:14.7375;stroke-linecap:round;stroke-linejoin:round;stroke-miterlimit:10;}
	.st15{fill:#FFFFFF;stroke:#000000;stroke-width:14.2911;stroke-linecap:round;stroke-linejoin:round;stroke-miterlimit:10;}
	.st16{fill:none;stroke:#000000;stroke-width:13.497;stroke-miterlimit:10;}
	.st17{fill:#FFFFFF;stroke:#000000;stroke-width:13.497;stroke-linecap:round;stroke-linejoin:round;stroke-miterlimit:10;}
	.st18{fill:#FFFFFF;stroke:#000000;stroke-width:13.497;stroke-miterlimit:10;}
	.st19{fill:#FFFFFF;stroke:#000000;stroke-width:14.7439;stroke-linecap:round;stroke-miterlimit:10;}
	.st20{fill:#FFFFFF;stroke:#000000;stroke-width:14.7439;stroke-miterlimit:10;}
	.st21{stroke:#000000;stroke-width:13.9262;stroke-linecap:round;stroke-miterlimit:10;}
	
		.st22{display:inline;fill:#FFFFFF;stroke:#000000;stroke-width:14.6942;stroke-linecap:round;stroke-linejoin:round;stroke-miterlimit:10;}
	.st23{fill:#FFFFFF;stroke:#000000;stroke-width:14.6942;stroke-linecap:round;stroke-linejoin:round;stroke-miterlimit:10;}
	.st24{fill:none;stroke:#000000;stroke-width:24;stroke-linejoin:round;stroke-miterlimit:10;}
	.st25{fill:none;stroke:#000000;stroke-width:30.5612;stroke-linecap:round;stroke-linejoin:round;stroke-miterlimit:10;}
	.st26{fill:#FFFFFF;stroke:#000000;stroke-width:16.2993;stroke-linecap:round;stroke-linejoin:round;stroke-miterlimit:10;}
	.st27{display:inline;fill:#FFFFFF;stroke:#000000;stroke-width:13.497;stroke-linecap:round;stroke-miterlimit:10;}
	
		.st28{display:inline;fill:none;stroke:#000000;stroke-width:13.497;stroke-linecap:round;stroke-linejoin:round;stroke-miterlimit:10;}
	
		.st29{display:inline;fill:#FFFFFF;stroke:#000000;stroke-width:13.497;stroke-linecap:round;stroke-linejoin:round;stroke-miterlimit:10;}
	
		.st30{display:inline;fill:url(#);stroke:#000000;stroke-width:13.497;stroke-linecap:round;stroke-linejoin:round;stroke-miterlimit:10;}
	.st31{fill:#FFFFFF;stroke:#000000;stroke-width:15.2362;stroke-linecap:round;stroke-linejoin:round;stroke-miterlimit:10;}
	.st32{fill:#FFFFFF;stroke:#000000;stroke-width:14.8467;stroke-linecap:round;stroke-linejoin:round;stroke-miterlimit:10;}
	.st33{stroke:#000000;stroke-width:20.1683;stroke-linecap:round;stroke-miterlimit:10;}
	.st34{fill:none;stroke:#000000;stroke-width:14.8467;stroke-linecap:round;stroke-linejoin:round;stroke-miterlimit:10;}
	.st35{fill:#FFFFFF;stroke:#FFFFFF;stroke-width:3;stroke-miterlimit:10;}
	.st36{display:inline;fill:none;stroke:#000000;stroke-width:15;stroke-linecap:round;stroke-linejoin:round;stroke-miterlimit:10;}
	
		.st37{display:inline;fill:#FFFFFF;stroke:#000000;stroke-width:15;stroke-linecap:round;stroke-linejoin:round;stroke-miterlimit:10;}
	.st38{fill:#FFFFFF;stroke:#000000;stroke-width:15;stroke-linecap:round;stroke-linejoin:round;stroke-miterlimit:10;}
	.st39{fill:#FFFFFF;stroke:#000000;stroke-width:11.7326;stroke-linecap:round;stroke-linejoin:round;stroke-miterlimit:10;}
	.st40{fill:#FFFFFF;stroke:#000000;stroke-width:13.2623;stroke-linecap:round;stroke-linejoin:round;stroke-miterlimit:10;}
	.st41{font-family:'FoundersGrotesk-Bold';}
	.st42{font-size:257.7939px;}
	.st43{font-size:196px;}
	.st44{font-size:144px;}
	.st45{fill:none;stroke:#000000;stroke-width:16;stroke-linecap:round;stroke-miterlimit:10;}
	.st46{fill:url(#);stroke:#000000;stroke-width:16;stroke-linecap:round;stroke-linejoin:round;stroke-miterlimit:10;}
	.st47{fill:#FFFFFF;stroke:#000000;stroke-width:16;stroke-linecap:round;stroke-miterlimit:10;}
	.st48{fill:#FFFFFF;stroke:#000000;stroke-width:13.2623;stroke-linecap:round;stroke-miterlimit:10;}
	.st49{stroke:#000000;stroke-width:4.5213;stroke-miterlimit:10;}
	.st50{fill:none;stroke:#000000;stroke-width:15.2344;stroke-linecap:round;stroke-linejoin:round;stroke-miterlimit:10;}
	.st51{fill:#FFFFFF;stroke:#000000;stroke-width:15.2344;stroke-linecap:round;stroke-linejoin:round;stroke-miterlimit:10;}
	.st52{stroke:#000000;stroke-width:18.3348;stroke-linecap:round;stroke-miterlimit:10;}
	.st53{fill:none;stroke:#000000;stroke-width:13.497;stroke-linecap:round;stroke-linejoin:round;stroke-miterlimit:10;}
	.st54{fill:#FFFFFF;stroke:#000000;stroke-width:15;stroke-linecap:square;stroke-linejoin:round;stroke-miterlimit:10;}
	.st55{fill:#FFFFFF;stroke:#000000;stroke-width:15;stroke-linejoin:round;stroke-miterlimit:10;}
	.st56{fill:none;stroke:#000000;stroke-width:15;stroke-linecap:round;stroke-linejoin:round;stroke-miterlimit:10;}
	.st57{fill:url(#);stroke:#000000;stroke-width:13.497;stroke-linecap:round;stroke-linejoin:round;stroke-miterlimit:10;}
	.st58{font-size:20.6105px;}
	.st59{font-size:10.3052px;}
	.st60{font-size:19.2364px;}
	.st61{font-size:10px;}
	.st62{display:inline;fill:none;stroke:#000000;stroke-width:16;stroke-linecap:round;stroke-linejoin:round;stroke-miterlimit:10;}
	.st63{fill:#FFFFFF;stroke:#000000;stroke-width:13.3058;stroke-linecap:round;stroke-linejoin:round;stroke-miterlimit:10;}
	.st64{fill:#FFFFFF;stroke:#000000;stroke-width:17;stroke-linecap:round;stroke-linejoin:round;stroke-miterlimit:10;}
	.st65{fill:#FFFFFF;stroke:#000000;stroke-width:15.2517;stroke-linecap:round;stroke-linejoin:round;stroke-miterlimit:10;}
	.st66{stroke:#000000;stroke-width:3;stroke-miterlimit:10;}
	.st67{fill:none;}
	.st68{fill:#06A6FF;}
	.st69{fill:#FF0303;}
	.st70{fill:#3DFF06;}
	.st71{fill:none;stroke:#000000;stroke-width:0;stroke-linecap:round;stroke-linejoin:round;}
</style>
<g id="Layer_1" class="st0">
	<g class="st1">
		<g>
			<g>
				<text transform="matrix(1 0 0 1 8.6357 203.5596)" class="st41 st42">People</text>
			</g>
		</g>
	</g>
	<g class="st1">
		<g>
			<g>
				<text transform="matrix(1.0257 0 0 1 9.7305 376.9561)" class="st41 st43">Powered</text>
			</g>
		</g>
	</g>
	<g class="st1">
		<g>
			<g>
				<text transform="matrix(1 0 0 1 12.6592 517.7996)" class="st41 st44">Propaganda</text>
			</g>
		</g>
	</g>
	<g class="st1">
		<g>
			<g>
				<text transform="matrix(1 0 0 1 258.9681 599.7979)"><tspan x="0" y="0" class="st41 st58">www</tspan><tspan x="45.14" y="0" class="st41 st59"> </tspan><tspan x="46.99" y="0" class="st41 st58">.</tspan><tspan x="51.77" y="0" class="st41 st59"> </tspan><tspan x="53.63" y="0" class="st41 st58">Capitalism</tspan><tspan x="150.43" y="0" class="st41 st60"> </tspan><tspan x="153.9" y="0" class="st41 st58">Is</tspan><tspan x="168.88" y="0" class="st41 st60"> </tspan><tspan x="172.34" y="0" class="st41 st58">A</tspan><tspan x="186.6" y="0" class="st41 st59"> </tspan><tspan x="188.46" y="0" class="st41 st58">Virus</tspan><tspan x="236.15" y="0" class="st41 st59"> </tspan><tspan x="238.01" y="0" class="st41 st58">.</tspan><tspan x="242.79" y="0" class="st41 st59"> </tspan><tspan x="244.64" y="0" class="st41 st58">org</tspan></text>
			</g>
			<g>
				<text transform="matrix(1 0 0 1 299.1799 22.1245)"><tspan x="0" y="0" class="st41 st58">#</tspan><tspan x="12.7" y="0" class="st41 st61"> </tspan><tspan x="14.5" y="0" class="st41 st58">Capitalism</tspan><tspan x="111.3" y="0" class="st41 st61"> </tspan><tspan x="113.1" y="0" class="st41 st58">Is</tspan><tspan x="128.09" y="0" class="st41 st61"> </tspan><tspan x="129.89" y="0" class="st41 st58">A</tspan><tspan x="144.15" y="0" class="st41 st61"> </tspan><tspan x="145.95" y="0" class="st41 st58">Virus</tspan></text>
			</g>
		</g>
	</g>
</g>
<g id="Layer_1_copy">
	<path class="st67" d="M725.67,498.79c0,3.31,2.59,5.47,6.48,5.47c6.62,0,11.95-4.9,11.95-13.25v-1.01l-9.5,1.73
		C728.98,492.89,725.67,494.62,725.67,498.79z"/>
	<path class="st67" d="M58.52,446.67h-14.4v23.18h14.4c10.94,0,15.12-3.89,15.12-11.52C73.64,450.7,69.47,446.67,58.52,446.67z"/>
	<path class="st67" d="M482.33,145.3v1.55c0,16.76,9.02,27.58,23.2,27.58c16.24,0,23.72-11.6,23.72-28.36
		c0-16.5-7.48-28.1-23.72-28.1C491.35,117.97,482.33,128.8,482.33,145.3z"/>
	<polygon class="st67" points="436.14,13.16 436.05,13.16 434.57,16.99 437.62,16.99 	"/>
	<path class="st67" d="M433.11,309.92c-10.45,0-15.08,6.27-16.28,14.5h31.56C447.99,316.59,442.76,309.92,433.11,309.92z"/>
	<polygon class="st67" points="306.66,14.62 304.89,14.62 304.4,16.64 306.17,16.64 	"/>
	<path class="st67" d="M614.24,309.92c-10.45,0-15.08,6.27-16.28,14.5h31.56C629.12,316.59,623.89,309.92,614.24,309.92z"/>
	<path class="st67" d="M708.15,115.39c-13.41,0-19.33,8.25-20.88,19.08h40.47C727.23,124.16,720.53,115.39,708.15,115.39z"/>
	<path class="st67" d="M527.76,594.85c0.56,0,0.97-0.52,0.97-1.34c0-0.8-0.41-1.32-0.97-1.32s-0.97,0.52-0.97,1.32
		C526.79,594.33,527.2,594.85,527.76,594.85z"/>
	<path class="st67" d="M527.51,601.61c1.55,0,2.68-0.31,2.68-0.87c0-0.39-0.29-0.54-0.85-0.54h-3.38c-0.37,0-0.62,0.21-0.62,0.56
		C525.35,601.43,526.27,601.61,527.51,601.61z"/>
	<path class="st67" d="M341.54,595.26c0,1.34,0.72,2.21,1.85,2.21c1.3,0,1.9-0.93,1.9-2.27c0-1.32-0.6-2.25-1.9-2.25
		c-1.13,0-1.85,0.87-1.85,2.18V595.26z"/>
	<path class="st67" d="M670.95,485.26c0-9.22-5.04-15.26-12.82-15.26c-9.22,0-13.25,6.48-13.25,15.7c0,9.36,4.03,15.84,13.25,15.84
		c7.78,0,12.82-6.05,12.82-15.41V485.26z"/>
	<path class="st67" d="M507.44,595.2c0,1.38,0.49,2.33,1.67,2.33c1.15,0,1.67-0.95,1.67-2.33c0-1.38-0.52-2.33-1.67-2.33
		C507.93,592.87,507.44,593.82,507.44,595.2z"/>
	<path class="st67" d="M739.08,332.66c0-12.54-7.04-20.78-17.89-20.78c-12.87,0-18.5,8.82-18.5,21.36c0,12.74,5.63,21.56,18.5,21.56
		c10.86,0,17.89-8.23,17.89-20.97V332.66z"/>
	<path class="st67" d="M337.45,498.79c0,3.31,2.59,5.47,6.48,5.47c6.62,0,11.95-4.9,11.95-13.25v-1.01l-9.5,1.73
		C340.76,492.89,337.45,494.62,337.45,498.79z"/>
	<path class="st67" d="M365.18,597.08c0,0.47,0.37,0.78,0.93,0.78c0.95,0,1.71-0.7,1.71-1.9v-0.14l-1.36,0.25
		C365.66,596.23,365.18,596.48,365.18,597.08z"/>
	<path class="st67" d="M425,483.24c3.89,0,6.77-3.6,6.77-9.36c0-5.62-2.88-9.22-6.77-9.22c-3.89,0-6.77,3.6-6.77,9.22
		C418.23,479.64,421.11,483.24,425,483.24z"/>
	<path class="st67" d="M436.08,520.68h-23.62c-2.59,0-4.32,1.44-4.32,3.89c0,4.61,6.48,5.9,15.12,5.9c10.8,0,18.72-2.16,18.72-6.05
		C441.99,521.69,439.97,520.68,436.08,520.68z"/>
	<path class="st67" d="M488.5,498.79c0,3.31,2.59,5.47,6.48,5.47c6.62,0,11.95-4.9,11.95-13.25v-1.01l-9.5,1.73
		C491.81,492.89,488.5,494.62,488.5,498.79z"/>
	<polygon class="st67" points="438.43,590.83 438.35,590.83 436.87,594.67 439.92,594.67 	"/>
	<path class="st67" d="M118.07,97.09c0-13.66-7.48-20.88-27.07-20.88H65.22v41.5H91C110.6,117.71,118.07,110.75,118.07,97.09z"/>
	<path class="st67" d="M181.81,311.1c-11.46,0-16.28,9.02-16.28,22.15s4.83,22.15,16.28,22.15c11.26,0,16.28-9.02,16.28-22.15
		S193.07,311.1,181.81,311.1z"/>
	<path class="st67" d="M192.15,501.96c8.06,0,11.66-6.62,11.66-16.27c0-9.65-3.6-16.27-11.66-16.27c-8.21,0-11.66,6.62-11.66,16.27
		C180.49,495.34,183.94,501.96,192.15,501.96z"/>
	<path class="st67" d="M226.86,115.39c-13.41,0-19.33,8.25-20.88,19.08h40.47C245.94,124.16,239.23,115.39,226.86,115.39z"/>
	<path class="st67" d="M75.27,280.13h-20.1v31.56h20.1c15.28,0,21.11-5.29,21.11-15.68C96.38,285.62,90.55,280.13,75.27,280.13z"/>
	<path class="st67" d="M361.16,175.2c14.44,0,20.88-11.86,20.88-29.13c0-17.27-6.45-29.13-20.88-29.13
		c-14.69,0-20.88,11.86-20.88,29.13C340.28,163.34,346.47,175.2,361.16,175.2z"/>
	<path class="st67" d="M342.57,17.59c0,1.34,0.72,2.21,1.86,2.21c1.3,0,1.9-0.93,1.9-2.27c0-1.32-0.6-2.25-1.9-2.25
		c-1.13,0-1.86,0.87-1.86,2.19V17.59z"/>
	<path class="st67" d="M330.02,597.08c0,0.47,0.37,0.78,0.93,0.78c0.95,0,1.71-0.7,1.71-1.9v-0.14l-1.36,0.25
		C330.5,596.23,330.02,596.48,330.02,597.08z"/>
	<path class="st67" d="M366.21,19.4c0,0.47,0.37,0.78,0.93,0.78c0.95,0,1.71-0.7,1.71-1.9v-0.14l-1.36,0.25
		C366.69,18.56,366.21,18.81,366.21,19.4z"/>
	<path class="st67" d="M331.05,19.4c0,0.47,0.37,0.78,0.93,0.78c0.95,0,1.71-0.7,1.71-1.9v-0.14l-1.36,0.25
		C331.53,18.56,331.05,18.81,331.05,19.4z"/>
	<path class="st67" d="M272.79,469.99c-7.92,0-12.96,6.05-12.96,15.26v0.86c0,9.36,5.04,15.41,12.96,15.41
		c9.07,0,13.25-6.48,13.25-15.84C286.04,476.47,281.86,469.99,272.79,469.99z"/>
	<path d="M93.07,152.77c42.54,0,67.29-19.85,67.29-55.94c0-35.83-24.75-55.68-67.29-55.68H21.66v162.41h43.57v-50.79H93.07z
		 M65.22,76.21H91c19.59,0,27.07,7.22,27.07,20.88c0,13.66-7.48,20.62-27.07,20.62H65.22V76.21z"/>
	<path d="M285.38,165.66l-33.51-3.09c-3.87,9.02-11.08,12.89-22.43,12.89c-12.63,0-22.94-6.7-23.98-20.88h80.69v-11.6
		c0-31.19-20.37-57.49-58.78-57.49c-35.83,0-62.64,26.04-62.64,62.39c0,36.61,26.29,58.78,63.16,58.78
		C258.31,206.65,279.45,191.96,285.38,165.66z M226.86,115.39c12.37,0,19.08,8.77,19.59,19.08h-40.47
		C207.52,123.64,213.45,115.39,226.86,115.39z"/>
	<path d="M298.26,146.07c0,35.83,25.26,60.58,62.9,60.58c37.38,0,62.9-24.75,62.9-60.58c0-35.58-25.52-60.58-62.9-60.58
		C323.52,85.49,298.26,110.5,298.26,146.07z M361.16,116.94c14.44,0,20.88,11.86,20.88,29.13c0,17.27-6.45,29.13-20.88,29.13
		c-14.69,0-20.88-11.86-20.88-29.13C340.28,128.8,346.47,116.94,361.16,116.94z"/>
	<path d="M482.33,108.43V88.58h-41.76v156.22h41.76v-60.84c5.67,13.41,18.56,22.69,37.9,22.69c33.77,0,51.04-26.55,51.04-60.58
		c0-33.77-17.27-60.58-51.04-60.58C500.89,85.49,488,94.77,482.33,108.43z M529.24,146.07c0,16.76-7.48,28.36-23.72,28.36
		c-14.18,0-23.2-10.83-23.2-27.58v-1.55c0-16.5,9.02-27.33,23.2-27.33C521.77,117.97,529.24,129.57,529.24,146.07z"/>
	<rect x="587.76" y="41.15" width="41.76" height="162.41"/>
	<path d="M708.67,85.49c-35.83,0-62.64,26.04-62.64,62.39c0,36.61,26.29,58.78,63.16,58.78c30.42,0,51.56-14.69,57.49-40.99
		l-33.51-3.09c-3.87,9.02-11.08,12.89-22.43,12.89c-12.63,0-22.94-6.7-23.98-20.88h80.69v-11.6
		C767.45,111.78,747.08,85.49,708.67,85.49z M687.27,134.47c1.55-10.83,7.48-19.08,20.88-19.08c12.37,0,19.08,8.77,19.59,19.08
		H687.27z"/>
	<path d="M129.35,295.81c0-27.24-19.3-42.34-52.47-42.34H21.19v123.48h33.97v-38.61h21.71
		C110.05,338.34,129.35,323.25,129.35,295.81z M75.27,311.69h-20.1v-31.56h20.1c15.28,0,21.11,5.49,21.11,15.88
		C96.38,306.4,90.55,311.69,75.27,311.69z"/>
	<path d="M181.81,287.19c-29.35,0-49.05,19.01-49.05,46.06c0,27.24,19.7,46.06,49.05,46.06c29.15,0,49.05-18.82,49.05-46.06
		C230.87,306.2,210.96,287.19,181.81,287.19z M181.81,355.4c-11.46,0-16.28-9.02-16.28-22.15s4.83-22.15,16.28-22.15
		c11.26,0,16.28,9.02,16.28,22.15S193.07,355.4,181.81,355.4z"/>
	<polygon points="353.7,376.96 382.04,289.54 352.69,289.54 336.61,339.13 335.81,339.13 322.74,289.54 296.81,289.54 
		283.74,339.13 282.93,339.13 266.85,289.54 234.48,289.54 262.83,376.96 294.79,376.96 307.86,327.56 308.67,327.56 321.73,376.96 
			"/>
	<path d="M478.74,348.14l-26.13-2.35c-3.02,6.86-8.64,9.8-17.49,9.8c-9.85,0-17.89-5.1-18.7-15.88h62.92v-8.82
		c0-23.72-15.88-43.71-45.84-43.71c-27.94,0-48.85,19.8-48.85,47.43c0,27.83,20.51,44.69,49.25,44.69
		C457.63,379.31,474.12,368.14,478.74,348.14z M433.11,309.92c9.65,0,14.88,6.66,15.28,14.5h-31.56
		C418.03,316.2,422.66,309.92,433.11,309.92z"/>
	<path d="M560.16,320.51l2.01-29.99c-2.21-1.76-7.04-3.33-12.46-3.33c-11.86,0-21.31,8.04-24.53,17.84v-15.48h-32.57v87.42h32.57
		v-39.98c0-14.7,7.44-20.19,19.5-20.19C550.91,316.78,555.74,317.96,560.16,320.51z"/>
	<path d="M659.87,348.14l-26.13-2.35c-3.02,6.86-8.64,9.8-17.49,9.8c-9.85,0-17.89-5.1-18.7-15.88h62.92v-8.82
		c0-23.72-15.88-43.71-45.84-43.71c-27.94,0-48.85,19.8-48.85,47.43c0,27.83,20.51,44.69,49.25,44.69
		C638.76,379.31,655.25,368.14,659.87,348.14z M614.24,309.92c9.65,0,14.88,6.66,15.28,14.5h-31.56
		C599.16,316.2,603.79,309.92,614.24,309.92z"/>
	<path d="M771.64,376.96V253.48h-32.57v51.16c-4.22-10.39-14.47-17.44-29.35-17.44c-26.54,0-39.8,20.38-39.8,46.06
		c0,25.87,13.27,46.06,39.8,46.06c14.88,0,25.13-7.06,29.35-17.25v14.9H771.64z M721.18,354.81c-12.87,0-18.5-8.82-18.5-21.56
		c0-12.54,5.63-21.36,18.5-21.36c10.86,0,17.89,8.23,17.89,20.78v1.18C739.08,346.58,732.04,354.81,721.18,354.81z"/>
	<path d="M97.26,458.18c0-20.02-13.82-31.1-37.58-31.1H19.79v90.72h24.33v-28.37h15.55C83.43,489.43,97.26,478.34,97.26,458.18z
		 M58.52,469.85h-14.4v-23.18h14.4c10.94,0,15.12,4.03,15.12,11.66C73.64,465.96,69.47,469.85,58.52,469.85z"/>
	<path d="M152.98,476.33l1.44-22.03c-1.58-1.3-5.04-2.45-8.93-2.45c-8.5,0-15.26,5.9-17.57,13.1v-11.38H104.6v64.22h23.33v-29.38
		c0-10.8,5.33-14.83,13.97-14.83C146.36,473.59,149.82,474.46,152.98,476.33z"/>
	<path d="M192.15,519.53c20.88,0,35.13-13.82,35.13-33.84c0-19.87-14.26-33.84-35.13-33.84c-21.02,0-35.14,13.97-35.14,33.84
		C157.02,505.7,171.13,519.53,192.15,519.53z M192.15,469.42c8.06,0,11.66,6.62,11.66,16.27c0,9.65-3.6,16.27-11.66,16.27
		c-8.21,0-11.66-6.62-11.66-16.27C180.49,476.04,183.94,469.42,192.15,469.42z"/>
	<path d="M281,451.85c-10.8,0-18,5.18-21.17,12.82v-11.09H236.5v87.26h23.33v-33.98c3.17,7.49,10.37,12.67,21.17,12.67
		c18.86,0,28.51-14.83,28.51-33.84C309.51,466.82,299.86,451.85,281,451.85z M272.79,501.53c-7.92,0-12.96-6.05-12.96-15.41v-0.86
		c0-9.22,5.04-15.26,12.96-15.26c9.07,0,13.25,6.48,13.25,15.7C286.04,495.05,281.86,501.53,272.79,501.53z"/>
	<path d="M387.85,502.68c-1.87,0.72-3.31,1.01-5.18,1.01c-2.45,0-3.89-1.44-3.89-4.75v-21.89c0-17.86-12.53-25.2-29.52-25.2
		c-19.3,0-29.81,9.79-31.82,23.9l21.6,1.44c1.01-4.75,3.6-8.06,8.78-8.06c5.62,0,8.06,3.17,8.06,8.5v1.01l-18,3.02
		c-13.97,2.45-22.9,7.78-22.9,20.16c0,10.94,8.21,17.42,20.74,17.42c10.22,0,17.57-3.89,21.31-11.38
		c2.16,7.34,8.35,11.38,16.27,11.38c6.62,0,11.23-1.87,14.54-4.18V502.68z M355.88,491.02c0,8.35-5.33,13.25-11.95,13.25
		c-3.89,0-6.48-2.16-6.48-5.47c0-4.18,3.31-5.9,8.93-7.06l9.5-1.73V491.02z"/>
	<path d="M441.56,500.81h-26.64c-3.89,0-5.47-1.73-5.47-3.89c0-1.3,0.43-2.3,1.3-3.02c4.18,1.29,8.78,1.87,13.97,1.87
		c18.14,0,31.25-8.35,31.25-21.89c0-3.02-0.72-5.76-2.02-8.21c3.17-0.72,6.62-1.01,9.36-1.01V447.1c-7.06,0-14.11,4.61-18,9.94
		c-5.47-3.31-12.82-5.18-20.59-5.18c-18,0-30.96,8.35-30.96,22.03c0,7.06,3.46,12.53,9.22,16.27c-6.91,2.59-10.94,7.34-10.94,13.54
		c0,5.47,3.46,10.66,9.22,12.53c-7.2,0.58-12.24,5.04-12.24,10.66c0,12.1,15.84,15.7,34.13,15.7c20.88,0,40.32-7.34,40.32-23.33
		C463.44,508.44,456.1,500.81,441.56,500.81z M425,464.66c3.89,0,6.77,3.6,6.77,9.22c0,5.76-2.88,9.36-6.77,9.36
		c-3.89,0-6.77-3.6-6.77-9.36C418.23,468.26,421.11,464.66,425,464.66z M423.27,530.47c-8.64,0-15.12-1.29-15.12-5.9
		c0-2.45,1.73-3.89,4.32-3.89h23.62c3.89,0,5.9,1.01,5.9,3.74C441.99,528.31,434.07,530.47,423.27,530.47z"/>
	<path d="M538.9,502.68c-1.87,0.72-3.31,1.01-5.18,1.01c-2.45,0-3.89-1.44-3.89-4.75v-21.89c0-17.86-12.53-25.2-29.52-25.2
		c-19.3,0-29.81,9.79-31.82,23.9l21.6,1.44c1.01-4.75,3.6-8.06,8.78-8.06c5.62,0,8.06,3.17,8.06,8.5v1.01l-18,3.02
		c-13.97,2.45-22.9,7.78-22.9,20.16c0,10.94,8.21,17.42,20.74,17.42c10.22,0,17.57-3.89,21.31-11.38
		c2.16,7.34,8.35,11.38,16.27,11.38c6.62,0,11.23-1.87,14.54-4.18V502.68z M506.93,491.02c0,8.35-5.33,13.25-11.95,13.25
		c-3.89,0-6.48-2.16-6.48-5.47c0-4.18,3.31-5.9,8.93-7.06l9.5-1.73V491.02z"/>
	<path d="M612.92,517.8v-40.32c0-13.39-5.62-25.63-23.18-25.63c-9.65,0-17.28,4.32-20.74,11.38v-9.65h-23.33v64.22H569v-31.54
		c0-9.65,3.17-15.98,11.09-15.98c7.06,0,9.5,4.61,9.5,13.39v34.13H612.92z"/>
	<path d="M694.27,517.8v-90.72h-23.33v37.58c-3.02-7.63-10.37-12.82-21.02-12.82c-19.01,0-28.51,14.98-28.51,33.84
		c0,19.01,9.5,33.84,28.51,33.84c10.66,0,18-5.18,21.02-12.67v10.94H694.27z M658.13,501.53c-9.22,0-13.25-6.48-13.25-15.84
		c0-9.22,4.03-15.7,13.25-15.7c7.78,0,12.82,6.05,12.82,15.26v0.86C670.95,495.48,665.91,501.53,658.13,501.53z"/>
	<path d="M766.99,498.94v-21.89c0-17.86-12.53-25.2-29.52-25.2c-19.3,0-29.81,9.79-31.82,23.9l21.6,1.44
		c1.01-4.75,3.6-8.06,8.78-8.06c5.62,0,8.06,3.17,8.06,8.5v1.01l-18,3.02c-13.97,2.45-22.9,7.78-22.9,20.16
		c0,10.94,8.21,17.42,20.74,17.42c10.22,0,17.57-3.89,21.31-11.38c2.16,7.34,8.35,11.38,16.27,11.38c6.62,0,11.23-1.87,14.54-4.18
		v-12.38c-1.87,0.72-3.31,1.01-5.18,1.01C768.43,503.69,766.99,502.25,766.99,498.94z M744.1,491.02c0,8.35-5.33,13.25-11.95,13.25
		c-3.89,0-6.48-2.16-6.48-5.47c0-4.18,3.31-5.9,8.93-7.06l9.5-1.73V491.02z"/>
	<polygon points="299.46,595.82 298.12,590.6 295.46,590.6 294.12,595.82 294.04,595.82 292.39,590.6 289.16,590.6 289.07,590.6 
		286.15,590.6 284.5,595.82 284.41,595.82 283.07,590.6 280.41,590.6 279.07,595.82 278.99,595.82 277.34,590.6 274.11,590.6 
		274.02,590.6 271.1,590.6 269.45,595.82 269.37,595.82 268.03,590.6 265.37,590.6 264.03,595.82 263.95,595.82 262.3,590.6 
		258.98,590.6 261.88,599.8 265.16,599.8 266.5,594.6 266.58,594.6 267.92,599.8 271.2,599.8 274.07,590.74 276.93,599.8 
		280.21,599.8 281.55,594.6 281.63,594.6 282.97,599.8 286.25,599.8 289.11,590.74 291.98,599.8 295.25,599.8 296.59,594.6 
		296.68,594.6 298.02,599.8 301.29,599.8 304.2,590.6 301.19,590.6 299.54,595.82 	"/>
	<rect x="306.63" y="596.25" width="3.55" height="3.55"/>
	<path d="M319.7,589.68c2.02,0,2.8,1.34,3.01,2.78l3.36-0.12c-0.25-3.24-2.37-5.77-6.35-5.77c-3.79,0-6.66,2.74-6.66,6.74
		c0,4,2.87,6.74,6.66,6.74c3.98,0,6.1-2.51,6.35-5.75l-3.36-0.14c-0.21,1.44-0.99,2.78-3.01,2.78c-1.92,0-3.03-1.42-3.03-3.63
		C316.67,591.1,317.78,589.68,319.7,589.68z"/>
	<path d="M330.08,594.62c-2,0.35-3.28,1.11-3.28,2.89c0,1.57,1.18,2.49,2.97,2.49c1.46,0,2.51-0.56,3.05-1.63
		c0.31,1.05,1.2,1.63,2.33,1.63c0.95,0,1.61-0.27,2.08-0.6v-1.77c-0.27,0.1-0.47,0.14-0.74,0.14c-0.35,0-0.56-0.21-0.56-0.68v-3.13
		c0-2.56-1.79-3.61-4.23-3.61c-2.76,0-4.27,1.4-4.56,3.42l3.09,0.21c0.14-0.68,0.52-1.15,1.26-1.15c0.8,0,1.15,0.45,1.15,1.22v0.14
		L330.08,594.62z M332.66,595.96c0,1.2-0.76,1.9-1.71,1.9c-0.56,0-0.93-0.31-0.93-0.78c0-0.6,0.47-0.84,1.28-1.01l1.36-0.25V595.96z
		"/>
	<path d="M338.2,590.6v12.49h3.34v-4.86c0.45,1.07,1.48,1.81,3.03,1.81c2.7,0,4.08-2.12,4.08-4.84c0-2.7-1.38-4.84-4.08-4.84
		c-1.55,0-2.58,0.74-3.03,1.83v-1.59H338.2z M343.4,592.95c1.3,0,1.9,0.93,1.9,2.25c0,1.34-0.6,2.27-1.9,2.27
		c-1.13,0-1.85-0.87-1.85-2.21v-0.12C341.54,593.82,342.27,592.95,343.4,592.95z"/>
	<rect x="349.95" y="586.81" width="3.38" height="2.93"/>
	<rect x="349.97" y="590.6" width="3.34" height="9.19"/>
	<path d="M358.46,600.04c1.26,0,2.06-0.31,2.76-0.82v-2.16c-0.56,0.23-1.01,0.31-1.42,0.31c-0.68,0-1.05-0.31-1.05-1.09v-3.36h2.39
		v-2.31h-2.39v-2.54h-2.1l-0.31,1.2c-0.23,0.85-0.52,1.34-1.44,1.48l-0.68,0.1v2.06h1.24v4.33
		C355.46,599.41,356.92,600.04,358.46,600.04z"/>
	<path d="M365.25,594.62c-2,0.35-3.28,1.11-3.28,2.89c0,1.57,1.17,2.49,2.97,2.49c1.46,0,2.51-0.56,3.05-1.63
		c0.31,1.05,1.2,1.63,2.33,1.63c0.95,0,1.61-0.27,2.08-0.6v-1.77c-0.27,0.1-0.47,0.14-0.74,0.14c-0.35,0-0.56-0.21-0.56-0.68v-3.13
		c0-2.56-1.79-3.61-4.23-3.61c-2.76,0-4.27,1.4-4.56,3.42l3.09,0.21c0.14-0.68,0.52-1.15,1.26-1.15c0.8,0,1.15,0.45,1.15,1.22v0.14
		L365.25,594.62z M367.82,595.96c0,1.2-0.76,1.9-1.71,1.9c-0.56,0-0.93-0.31-0.93-0.78c0-0.6,0.47-0.84,1.28-1.01l1.36-0.25V595.96z
		"/>
	<rect x="373.37" y="586.81" width="3.34" height="12.99"/>
	<rect x="378.52" y="590.6" width="3.34" height="9.19"/>
	<rect x="378.5" y="586.81" width="3.38" height="2.93"/>
	<path d="M387.67,597.96c-1.01,0-1.63-0.43-1.75-1.2l-2.91,0.04c0.19,2.23,2.08,3.24,4.62,3.24c2.62,0,4.27-1.11,4.27-3.05
		c0-1.79-1.2-2.72-3.26-3.05l-1.79-0.31c-0.31-0.04-0.56-0.21-0.56-0.51c0-0.41,0.37-0.66,1.01-0.66c1.03,0,1.61,0.41,1.73,1.07
		l2.74-0.08c-0.19-1.92-1.75-3.09-4.41-3.09c-2.58,0-4.16,1.3-4.16,3.11c0,1.88,1.17,2.6,3.4,2.95l1.36,0.21
		c0.64,0.1,0.85,0.35,0.85,0.7C388.8,597.7,388.41,597.96,387.67,597.96z"/>
	<path d="M408.65,599.8v-5.77c0-1.92-0.74-3.67-3.28-3.67c-1.55,0-2.64,0.78-3.13,1.81c-0.39-1.07-1.24-1.81-2.87-1.81
		c-1.38,0-2.37,0.62-2.87,1.63v-1.38h-3.34v9.19h3.34v-4.51c0-1.38,0.39-2.29,1.48-2.29c1.01,0,1.26,0.66,1.26,1.92v4.89h3.34v-4.51
		c0-1.38,0.37-2.29,1.48-2.29c1.01,0,1.24,0.66,1.24,1.92v4.89H408.65z"/>
	<rect x="413.91" y="586.81" width="3.5" height="12.99"/>
	<path d="M423.3,597.96c-1.01,0-1.63-0.43-1.75-1.2l-2.91,0.04c0.19,2.23,2.08,3.24,4.62,3.24c2.62,0,4.27-1.11,4.27-3.05
		c0-1.79-1.2-2.72-3.26-3.05l-1.79-0.31c-0.31-0.04-0.56-0.21-0.56-0.51c0-0.41,0.37-0.66,1.01-0.66c1.03,0,1.61,0.41,1.73,1.07
		l2.74-0.08c-0.19-1.92-1.75-3.09-4.41-3.09c-2.58,0-4.16,1.3-4.16,3.11c0,1.88,1.17,2.6,3.4,2.95l1.36,0.21
		c0.64,0.1,0.84,0.35,0.84,0.7C424.44,597.7,424.05,597.96,423.3,597.96z"/>
	<path d="M431.36,599.8h3.53l0.97-2.51h5.07l0.97,2.51h3.73l-5.17-12.99h-3.92L431.36,599.8z M438.35,590.83h0.08l1.48,3.83h-3.05
		L438.35,590.83z"/>
	<polygon points="454.45,595.45 454.36,595.45 451.15,586.81 447.48,586.81 452.47,599.8 456.16,599.8 461.15,586.81 457.66,586.81 
			"/>
	<rect x="462.03" y="586.81" width="3.38" height="2.93"/>
	<rect x="462.05" y="590.6" width="3.34" height="9.19"/>
	<path d="M467.2,590.6v9.19h3.34v-4.21c0-1.55,0.76-2.12,2-2.12c0.64,0,1.13,0.12,1.59,0.39l0.21-3.15
		c-0.23-0.19-0.72-0.35-1.28-0.35c-1.22,0-2.19,0.84-2.52,1.88v-1.63H467.2z"/>
	<path d="M484.77,599.8v-9.19h-3.34v4.51c0,1.4-0.41,2.31-1.46,2.31c-1.01,0-1.36-0.68-1.36-1.92v-4.91h-3.34v5.79
		c0,1.92,0.76,3.65,3.28,3.65c1.38,0,2.39-0.6,2.89-1.63v1.38H484.77z"/>
	<path d="M490.58,597.96c-1.01,0-1.63-0.43-1.75-1.2l-2.91,0.04c0.19,2.23,2.08,3.24,4.62,3.24c2.62,0,4.27-1.11,4.27-3.05
		c0-1.79-1.2-2.72-3.26-3.05l-1.79-0.31c-0.31-0.04-0.56-0.21-0.56-0.51c0-0.41,0.37-0.66,1.01-0.66c1.03,0,1.61,0.41,1.73,1.07
		l2.74-0.08c-0.19-1.92-1.75-3.09-4.41-3.09c-2.58,0-4.16,1.3-4.16,3.11c0,1.88,1.18,2.6,3.4,2.95l1.36,0.21
		c0.64,0.1,0.84,0.35,0.84,0.7C491.71,597.7,491.32,597.96,490.58,597.96z"/>
	<rect x="497.64" y="596.25" width="3.55" height="3.55"/>
	<path d="M504.08,595.2c0,2.87,2.02,4.84,5.03,4.84c2.99,0,5.03-1.98,5.03-4.84c0-2.85-2.04-4.84-5.03-4.84
		C506.1,590.36,504.08,592.36,504.08,595.2z M510.77,595.2c0,1.38-0.52,2.33-1.67,2.33c-1.18,0-1.67-0.95-1.67-2.33
		c0-1.38,0.49-2.33,1.67-2.33C510.26,592.87,510.77,593.82,510.77,595.2z"/>
	<path d="M515.45,590.6v9.19h3.34v-4.21c0-1.55,0.76-2.12,2-2.12c0.64,0,1.13,0.12,1.59,0.39l0.21-3.15
		c-0.23-0.19-0.72-0.35-1.28-0.35c-1.22,0-2.19,0.84-2.51,1.88v-1.63H515.45z"/>
	<path d="M522.6,601.1c0,1.73,2.27,2.25,4.89,2.25c2.99,0,5.77-1.05,5.77-3.34c0-1.55-1.05-2.64-3.13-2.64h-3.81
		c-0.56,0-0.78-0.25-0.78-0.56c0-0.19,0.06-0.33,0.19-0.43c0.6,0.19,1.26,0.27,2,0.27c2.6,0,4.47-1.2,4.47-3.13
		c0-0.43-0.1-0.83-0.29-1.17c0.45-0.1,0.95-0.14,1.34-0.14v-2.52c-1.01,0-2.02,0.66-2.58,1.42c-0.78-0.47-1.83-0.74-2.95-0.74
		c-2.58,0-4.43,1.2-4.43,3.15c0,1.01,0.5,1.79,1.32,2.33c-0.99,0.37-1.57,1.05-1.57,1.94c0,0.78,0.49,1.53,1.32,1.79
		C523.33,599.65,522.6,600.29,522.6,601.1z M527.76,592.19c0.56,0,0.97,0.52,0.97,1.32c0,0.82-0.41,1.34-0.97,1.34
		s-0.97-0.52-0.97-1.34C526.79,592.71,527.2,592.19,527.76,592.19z M525.96,600.21h3.38c0.56,0,0.85,0.14,0.85,0.54
		c0,0.56-1.13,0.87-2.68,0.87c-1.24,0-2.16-0.18-2.16-0.84C525.35,600.42,525.59,600.21,525.96,600.21z"/>
	<path d="M300.03,16.64l-0.43,2.06h1.81l-0.8,3.42h2.49l0.8-3.42h1.77l-0.8,3.42h2.49l0.8-3.42h2.04l0.43-2.06h-1.98l0.49-2.02h1.88
		l0.43-2.06h-1.83l0.82-3.42h-2.49l-0.82,3.42h-1.77l0.82-3.42h-2.49l-0.82,3.42h-2.02l-0.43,2.06h1.98l-0.49,2.02H300.03z
		 M304.89,14.62h1.77l-0.5,2.02h-1.77L304.89,14.62z"/>
	<path d="M320.73,12c2.02,0,2.8,1.34,3.01,2.78l3.36-0.12c-0.25-3.24-2.37-5.77-6.35-5.77c-3.79,0-6.66,2.74-6.66,6.74
		s2.87,6.74,6.66,6.74c3.98,0,6.1-2.51,6.35-5.75l-3.36-0.14c-0.21,1.44-0.99,2.78-3.01,2.78c-1.92,0-3.03-1.42-3.03-3.63
		S318.81,12,320.73,12z"/>
	<path d="M331.11,16.95c-2,0.35-3.28,1.11-3.28,2.89c0,1.57,1.18,2.49,2.97,2.49c1.46,0,2.51-0.56,3.05-1.63
		c0.31,1.05,1.2,1.63,2.33,1.63c0.95,0,1.61-0.27,2.08-0.6v-1.77c-0.27,0.1-0.47,0.14-0.74,0.14c-0.35,0-0.56-0.21-0.56-0.68v-3.13
		c0-2.56-1.79-3.61-4.23-3.61c-2.76,0-4.27,1.4-4.56,3.42l3.09,0.21c0.14-0.68,0.52-1.16,1.26-1.16c0.8,0,1.15,0.45,1.15,1.22v0.14
		L331.11,16.95z M333.69,18.29c0,1.2-0.76,1.9-1.71,1.9c-0.56,0-0.93-0.31-0.93-0.78c0-0.6,0.47-0.84,1.28-1.01l1.36-0.25V18.29z"/>
	<path d="M339.23,12.93v12.49h3.34v-4.87c0.45,1.07,1.48,1.81,3.03,1.81c2.7,0,4.08-2.12,4.08-4.84c0-2.7-1.38-4.84-4.08-4.84
		c-1.55,0-2.58,0.74-3.03,1.83v-1.59H339.23z M344.43,15.28c1.3,0,1.9,0.93,1.9,2.25c0,1.34-0.6,2.27-1.9,2.27
		c-1.13,0-1.86-0.87-1.86-2.21v-0.12C342.57,16.15,343.29,15.28,344.43,15.28z"/>
	<rect x="351" y="12.93" width="3.34" height="9.19"/>
	<rect x="350.98" y="9.14" width="3.38" height="2.93"/>
	<path d="M357.68,10.39l-0.31,1.2c-0.23,0.85-0.52,1.34-1.44,1.48l-0.68,0.1v2.06h1.24v4.33c0,2.16,1.46,2.8,3.01,2.8
		c1.26,0,2.06-0.31,2.76-0.83v-2.16c-0.56,0.23-1.01,0.31-1.42,0.31c-0.68,0-1.05-0.31-1.05-1.09v-3.36h2.39v-2.31h-2.39v-2.54
		H357.68z"/>
	<path d="M366.27,16.95c-2,0.35-3.28,1.11-3.28,2.89c0,1.57,1.17,2.49,2.97,2.49c1.46,0,2.51-0.56,3.05-1.63
		c0.31,1.05,1.2,1.63,2.33,1.63c0.95,0,1.61-0.27,2.08-0.6v-1.77c-0.27,0.1-0.47,0.14-0.74,0.14c-0.35,0-0.56-0.21-0.56-0.68v-3.13
		c0-2.56-1.79-3.61-4.23-3.61c-2.76,0-4.27,1.4-4.56,3.42l3.09,0.21c0.14-0.68,0.52-1.16,1.26-1.16c0.8,0,1.15,0.45,1.15,1.22v0.14
		L366.27,16.95z M368.85,18.29c0,1.2-0.76,1.9-1.71,1.9c-0.56,0-0.93-0.31-0.93-0.78c0-0.6,0.47-0.84,1.28-1.01l1.36-0.25V18.29z"/>
	<rect x="374.39" y="9.14" width="3.34" height="12.99"/>
	<rect x="379.53" y="9.14" width="3.38" height="2.93"/>
	<rect x="379.55" y="12.93" width="3.34" height="9.19"/>
	<path d="M388.7,20.29c-1.01,0-1.63-0.43-1.75-1.2l-2.91,0.04c0.19,2.23,2.08,3.24,4.62,3.24c2.62,0,4.27-1.11,4.27-3.05
		c0-1.79-1.2-2.72-3.26-3.05l-1.79-0.31c-0.31-0.04-0.56-0.21-0.56-0.52c0-0.41,0.37-0.66,1.01-0.66c1.03,0,1.61,0.41,1.73,1.07
		l2.74-0.08c-0.19-1.92-1.75-3.09-4.41-3.09c-2.58,0-4.16,1.3-4.16,3.11c0,1.88,1.17,2.6,3.4,2.95l1.36,0.21
		c0.64,0.1,0.85,0.35,0.85,0.7C389.83,20.02,389.44,20.29,388.7,20.29z"/>
	<path d="M394.2,12.93v9.19h3.34v-4.52c0-1.38,0.39-2.29,1.48-2.29c1.01,0,1.26,0.66,1.26,1.92v4.89h3.34v-4.52
		c0-1.38,0.37-2.29,1.48-2.29c1.01,0,1.24,0.66,1.24,1.92v4.89h3.34v-5.77c0-1.92-0.74-3.67-3.28-3.67c-1.55,0-2.64,0.78-3.13,1.81
		c-0.39-1.07-1.24-1.81-2.87-1.81c-1.38,0-2.37,0.62-2.87,1.63v-1.38H394.2z"/>
	<rect x="413.27" y="9.14" width="3.5" height="12.99"/>
	<path d="M422.67,20.29c-1.01,0-1.63-0.43-1.75-1.2l-2.91,0.04c0.19,2.23,2.08,3.24,4.62,3.24c2.62,0,4.27-1.11,4.27-3.05
		c0-1.79-1.2-2.72-3.26-3.05l-1.79-0.31c-0.31-0.04-0.56-0.21-0.56-0.52c0-0.41,0.37-0.66,1.01-0.66c1.03,0,1.61,0.41,1.73,1.07
		l2.74-0.08c-0.19-1.92-1.75-3.09-4.41-3.09c-2.58,0-4.16,1.3-4.16,3.11c0,1.88,1.17,2.6,3.4,2.95l1.36,0.21
		c0.64,0.1,0.85,0.35,0.85,0.7C423.8,20.02,423.41,20.29,422.67,20.29z"/>
	<path d="M438.63,19.61l0.97,2.52h3.73l-5.17-12.99h-3.92l-5.17,12.99h3.53l0.97-2.52H438.63z M436.05,13.16h0.08l1.48,3.83h-3.05
		L436.05,13.16z"/>
	<polygon points="458.8,9.14 455.31,9.14 452.1,17.78 452.01,17.78 448.8,9.14 445.13,9.14 450.12,22.12 453.81,22.12 	"/>
	<rect x="459.68" y="9.14" width="3.38" height="2.93"/>
	<rect x="459.7" y="12.93" width="3.34" height="9.19"/>
	<path d="M464.85,12.93v9.19h3.34v-4.21c0-1.55,0.76-2.12,2-2.12c0.64,0,1.13,0.12,1.59,0.39l0.21-3.15
		c-0.23-0.19-0.72-0.35-1.28-0.35c-1.22,0-2.19,0.84-2.52,1.88v-1.63H464.85z"/>
	<path d="M472.91,12.93v5.79c0,1.92,0.76,3.65,3.28,3.65c1.38,0,2.39-0.6,2.89-1.63v1.38h3.34v-9.19h-3.34v4.51
		c0,1.4-0.41,2.31-1.46,2.31c-1.01,0-1.36-0.68-1.36-1.92v-4.91H472.91z"/>
	<path d="M488.22,20.29c-1.01,0-1.63-0.43-1.75-1.2l-2.91,0.04c0.19,2.23,2.08,3.24,4.62,3.24c2.62,0,4.27-1.11,4.27-3.05
		c0-1.79-1.2-2.72-3.26-3.05l-1.79-0.31c-0.31-0.04-0.56-0.21-0.56-0.52c0-0.41,0.37-0.66,1.01-0.66c1.03,0,1.61,0.41,1.73,1.07
		l2.74-0.08c-0.19-1.92-1.75-3.09-4.41-3.09c-2.58,0-4.16,1.3-4.16,3.11c0,1.88,1.18,2.6,3.4,2.95l1.36,0.21
		c0.64,0.1,0.84,0.35,0.84,0.7C489.36,20.02,488.97,20.29,488.22,20.29z"/>
</g>
</svg>
