<?xml version="1.0" encoding="utf-8"?>
<!-- Generator: Adobe Illustrator 23.1.1, SVG Export Plug-In . SVG Version: 6.00 Build 0)  -->
<svg version="1.1" xmlns="http://www.w3.org/2000/svg" xmlns:xlink="http://www.w3.org/1999/xlink" x="0px" y="0px"
	 viewBox="0 0 792 612" style="enable-background:new 0 0 792 612;" xml:space="preserve">
<style type="text/css">
	.st0{display:none;}
	.st1{display:inline;}
	
		.st2{display:inline;fill:#FFFFFF;stroke:#000000;stroke-width:16;stroke-linecap:round;stroke-linejoin:round;stroke-miterlimit:10;}
	.st3{fill:#FFFFFF;stroke:#000000;stroke-width:16;stroke-linecap:round;stroke-linejoin:round;stroke-miterlimit:10;}
	.st4{display:inline;fill:none;stroke:#000000;stroke-width:24;stroke-linejoin:round;stroke-miterlimit:10;}
	.st5{display:inline;fill:#FFFFFF;}
	.st6{fill:#FFFFFF;stroke:#000000;stroke-width:17;stroke-linecap:round;stroke-miterlimit:10;}
	.st7{fill:#FFFFFF;stroke:#000000;stroke-width:17;stroke-miterlimit:10;}
	.st8{stroke:#000000;stroke-width:16.0572;stroke-linecap:round;stroke-miterlimit:10;}
	.st9{fill:#FFFFFF;}
	.st10{fill:#FFFFFF;stroke:#000000;stroke-width:17.1072;stroke-linecap:round;stroke-linejoin:round;stroke-miterlimit:10;}
	.st11{stroke:#000000;stroke-width:17.1072;stroke-linecap:round;stroke-linejoin:round;stroke-miterlimit:10;}
	.st12{fill:#FFFFFF;stroke:#000000;stroke-width:14.7375;stroke-linecap:round;stroke-linejoin:round;stroke-miterlimit:10;}
	.st13{fill:none;stroke:#000000;stroke-width:14.7375;stroke-linecap:round;stroke-linejoin:round;stroke-miterlimit:10;}
	.st14{stroke:#000000;stroke-width:14.7375;stroke-linecap:round;stroke-linejoin:round;stroke-miterlimit:10;}
	.st15{fill:#FFFFFF;stroke:#000000;stroke-width:14.2911;stroke-linecap:round;stroke-linejoin:round;stroke-miterlimit:10;}
	.st16{fill:none;stroke:#000000;stroke-width:13.497;stroke-miterlimit:10;}
	.st17{fill:#FFFFFF;stroke:#000000;stroke-width:13.497;stroke-linecap:round;stroke-linejoin:round;stroke-miterlimit:10;}
	.st18{fill:#FFFFFF;stroke:#000000;stroke-width:13.497;stroke-miterlimit:10;}
	.st19{fill:#FFFFFF;stroke:#000000;stroke-width:14.7439;stroke-linecap:round;stroke-miterlimit:10;}
	.st20{fill:#FFFFFF;stroke:#000000;stroke-width:14.7439;stroke-miterlimit:10;}
	.st21{stroke:#000000;stroke-width:13.9262;stroke-linecap:round;stroke-miterlimit:10;}
	
		.st22{display:inline;fill:#FFFFFF;stroke:#000000;stroke-width:14.6942;stroke-linecap:round;stroke-linejoin:round;stroke-miterlimit:10;}
	.st23{fill:#FFFFFF;stroke:#000000;stroke-width:14.6942;stroke-linecap:round;stroke-linejoin:round;stroke-miterlimit:10;}
	.st24{fill:none;stroke:#000000;stroke-width:24;stroke-linejoin:round;stroke-miterlimit:10;}
	.st25{fill:none;stroke:#000000;stroke-width:30.5612;stroke-linecap:round;stroke-linejoin:round;stroke-miterlimit:10;}
	.st26{fill:#FFFFFF;stroke:#000000;stroke-width:16.2993;stroke-linecap:round;stroke-linejoin:round;stroke-miterlimit:10;}
	.st27{display:inline;fill:#FFFFFF;stroke:#000000;stroke-width:13.497;stroke-linecap:round;stroke-miterlimit:10;}
	
		.st28{display:inline;fill:none;stroke:#000000;stroke-width:13.497;stroke-linecap:round;stroke-linejoin:round;stroke-miterlimit:10;}
	
		.st29{display:inline;fill:#FFFFFF;stroke:#000000;stroke-width:13.497;stroke-linecap:round;stroke-linejoin:round;stroke-miterlimit:10;}
	
		.st30{display:inline;fill:url(#);stroke:#000000;stroke-width:13.497;stroke-linecap:round;stroke-linejoin:round;stroke-miterlimit:10;}
	.st31{fill:#FFFFFF;stroke:#000000;stroke-width:15.2362;stroke-linecap:round;stroke-linejoin:round;stroke-miterlimit:10;}
	.st32{fill:#FFFFFF;stroke:#000000;stroke-width:14.8467;stroke-linecap:round;stroke-linejoin:round;stroke-miterlimit:10;}
	.st33{stroke:#000000;stroke-width:20.1683;stroke-linecap:round;stroke-miterlimit:10;}
	.st34{fill:none;stroke:#000000;stroke-width:14.8467;stroke-linecap:round;stroke-linejoin:round;stroke-miterlimit:10;}
	.st35{fill:#FFFFFF;stroke:#FFFFFF;stroke-width:3;stroke-miterlimit:10;}
	.st36{display:inline;fill:none;stroke:#000000;stroke-width:15;stroke-linecap:round;stroke-linejoin:round;stroke-miterlimit:10;}
	
		.st37{display:inline;fill:#FFFFFF;stroke:#000000;stroke-width:15;stroke-linecap:round;stroke-linejoin:round;stroke-miterlimit:10;}
	.st38{fill:#FFFFFF;stroke:#000000;stroke-width:15;stroke-linecap:round;stroke-linejoin:round;stroke-miterlimit:10;}
	.st39{fill:#FFFFFF;stroke:#000000;stroke-width:11.7326;stroke-linecap:round;stroke-linejoin:round;stroke-miterlimit:10;}
	.st40{fill:#FFFFFF;stroke:#000000;stroke-width:13.2623;stroke-linecap:round;stroke-linejoin:round;stroke-miterlimit:10;}
	.st41{fill:none;stroke:#000000;stroke-width:16;stroke-linecap:round;stroke-miterlimit:10;}
	.st42{fill:url(#);stroke:#000000;stroke-width:16;stroke-linecap:round;stroke-linejoin:round;stroke-miterlimit:10;}
	.st43{fill:#FFFFFF;stroke:#000000;stroke-width:16;stroke-linecap:round;stroke-miterlimit:10;}
	.st44{fill:#FFFFFF;stroke:#000000;stroke-width:13.2623;stroke-linecap:round;stroke-miterlimit:10;}
	.st45{stroke:#000000;stroke-width:4.5213;stroke-miterlimit:10;}
	.st46{font-family:'FoundersGrotesk-Bold';}
	.st47{font-size:368.6871px;}
	.st48{fill:none;stroke:#000000;stroke-width:15.2344;stroke-linecap:round;stroke-linejoin:round;stroke-miterlimit:10;}
	.st49{fill:#FFFFFF;stroke:#000000;stroke-width:15.2344;stroke-linecap:round;stroke-linejoin:round;stroke-miterlimit:10;}
	.st50{stroke:#000000;stroke-width:18.3348;stroke-linecap:round;stroke-miterlimit:10;}
	.st51{fill:none;stroke:#000000;stroke-width:13.497;stroke-linecap:round;stroke-linejoin:round;stroke-miterlimit:10;}
	.st52{fill:#FFFFFF;stroke:#000000;stroke-width:15;stroke-linecap:square;stroke-linejoin:round;stroke-miterlimit:10;}
	.st53{fill:#FFFFFF;stroke:#000000;stroke-width:15;stroke-linejoin:round;stroke-miterlimit:10;}
	.st54{fill:none;stroke:#000000;stroke-width:15;stroke-linecap:round;stroke-linejoin:round;stroke-miterlimit:10;}
	.st55{fill:url(#);stroke:#000000;stroke-width:13.497;stroke-linecap:round;stroke-linejoin:round;stroke-miterlimit:10;}
	.st56{font-size:20.6105px;}
	.st57{font-size:10.3052px;}
	.st58{font-size:19.2364px;}
	.st59{font-size:10px;}
	.st60{display:inline;fill:none;stroke:#000000;stroke-width:16;stroke-linecap:round;stroke-linejoin:round;stroke-miterlimit:10;}
	.st61{fill:#FFFFFF;stroke:#000000;stroke-width:13.3058;stroke-linecap:round;stroke-linejoin:round;stroke-miterlimit:10;}
	.st62{fill:#FFFFFF;stroke:#000000;stroke-width:17;stroke-linecap:round;stroke-linejoin:round;stroke-miterlimit:10;}
	.st63{fill:#FFFFFF;stroke:#000000;stroke-width:15.2517;stroke-linecap:round;stroke-linejoin:round;stroke-miterlimit:10;}
	.st64{stroke:#000000;stroke-width:3;stroke-miterlimit:10;}
	.st65{fill:none;}
	.st66{fill:#06A6FF;}
	.st67{fill:#FF0303;}
	.st68{fill:#3DFF06;}
	.st69{fill:none;stroke:#000000;stroke-width:0;stroke-linecap:round;stroke-linejoin:round;}
</style>
<g id="Layer_1" class="st0">
	<g class="st1">
		<g>
			<g>
				<g>
					<g>
						<g>
							<path class="st9" d="M458.86,505.23c-4.54,7.5-14.66,9.69-22.59,4.89c-7.93-4.8-10.68-14.78-6.14-22.28l30.12-49.75
								c4.54-7.5,14.66-9.69,22.59-4.89c7.93,4.8,10.68,14.78,6.14,22.28L458.86,505.23z"/>
							<path class="st9" d="M430.13,487.83c-4.54,7.5-14.66,9.69-22.59,4.89c-7.93-4.8-10.68-14.78-6.14-22.28l35.03-57.86
								c4.54-7.5,14.66-9.69,22.59-4.89c7.93,4.8,10.68,14.78,6.14,22.28L430.13,487.83z"/>
							<path class="st9" d="M372.8,453.13c-4.54,7.5-14.66,9.69-22.59,4.89c-7.93-4.8-10.68-14.78-6.14-22.28l35.03-57.86
								c4.54-7.5,14.66-9.69,22.59-4.89c7.93,4.8,10.68,14.78,6.14,22.28L372.8,453.13z"/>
							<path class="st9" d="M401.53,470.52c-4.54,7.5-14.66,9.69-22.59,4.89c-7.93-4.8-10.68-14.78-6.14-22.28l39.95-65.98
								c4.54-7.5,14.66-9.69,22.59-4.89c7.93,4.8,10.68,14.78,6.14,22.28L401.53,470.52z"/>
						</g>
						<path class="st9" d="M401.99,541.38c0,0,13-50.11-35.76-70.35c2.36-4.05,5.14-8.86,5.14-8.86s12.4,5.31,24.04-2.28
							c11.64-7.59,13.41-17.21,13.41-17.21s-42.77-20.5-50.11-23.53s-15.18,0-23.03,10.12c-7.84,10.12-33.15,41.75-32.14,61.49
							s30.37,49.35,35.17,63.01c2.05,5.82,2.79-17.4,2.63,48.21l93.33,1.29c0-8.62-1.1-28.56,11.9-38.52
							c13-9.96,33.01-30.84,23.23-86.32s-60.99-35.75-60.99-35.75"/>
					</g>
					<g>
						<path class="st40" d="M408.82,442.69c0,0,51.2-19.74,60.99,35.75s-11.17,75.24-23.23,86.32
							c-15.04,13.82-10.41,34.98-10.41,34.98"/>
						<g>
							<path class="st40" d="M458.86,505.23c-4.54,7.5-14.66,9.69-22.59,4.89c-7.93-4.8-10.68-14.78-6.14-22.28l30.12-49.75
								c4.54-7.5,14.66-9.69,22.59-4.89c7.93,4.8,10.68,14.78,6.14,22.28L458.86,505.23z"/>
							<path class="st40" d="M430.13,487.83c-4.54,7.5-14.66,9.69-22.59,4.89c-7.93-4.8-10.68-14.78-6.14-22.28l35.03-57.86
								c4.54-7.5,14.66-9.69,22.59-4.89c7.93,4.8,10.68,14.78,6.14,22.28L430.13,487.83z"/>
							<path class="st40" d="M372.8,453.13c-4.54,7.5-14.66,9.69-22.59,4.89c-7.93-4.8-10.68-14.78-6.14-22.28l35.03-57.86
								c4.54-7.5,14.66-9.69,22.59-4.89c7.93,4.8,10.68,14.78,6.14,22.28L372.8,453.13z"/>
							<path class="st40" d="M401.53,470.52c-4.54,7.5-14.66,9.69-22.59,4.89c-7.93-4.8-10.68-14.78-6.14-22.28l39.95-65.98
								c4.54-7.5,14.66-9.69,22.59-4.89c7.93,4.8,10.68,14.78,6.14,22.28L401.53,470.52z"/>
						</g>
						<path class="st40" d="M401.99,541.38c0,0,13-50.11-35.76-70.35c2.36-4.05,5.14-8.86,5.14-8.86s12.4,5.31,24.04-2.28
							c11.64-7.59,13.41-17.21,13.41-17.21s-42.77-20.5-50.11-23.53s-15.18,0-23.03,10.12c-7.84,10.12-33.15,41.75-32.14,61.49
							s28.13,50.35,35.17,63.01c8.95,16.08,3.88,33.77,2.63,48.21"/>
					</g>
				</g>
				<line class="st40" x1="383.47" y1="471.66" x2="396.51" y2="467.28"/>
			</g>
			<g>
				<g>
					<g>
						<path class="st9" d="M597.35,306.07c0,0,51.2-19.74,60.99,35.75c9.78,55.49-10.22,76.37-23.23,86.32
							c-13,9.96-6.84,136.79-6.09,174.99h-64.54"/>
						<g>
							<path class="st9" d="M647.39,368.61c-4.54,7.5-14.66,9.69-22.59,4.89s-10.68-14.78-6.14-22.28l30.12-49.75
								c4.54-7.5,14.66-9.69,22.59-4.89c7.93,4.8,10.68,14.78,6.14,22.28L647.39,368.61z"/>
							<path class="st9" d="M618.66,351.21c-4.54,7.5-14.66,9.69-22.59,4.89s-10.68-14.78-6.14-22.28l35.03-57.86
								c4.54-7.5,14.66-9.69,22.59-4.89c7.93,4.8,10.68,14.78,6.14,22.28L618.66,351.21z"/>
							<path class="st9" d="M561.33,316.51c-4.54,7.5-14.66,9.69-22.59,4.89s-10.68-14.78-6.14-22.28l35.03-57.86
								c4.54-7.5,14.66-9.69,22.59-4.89c7.93,4.8,10.68,14.78,6.14,22.28L561.33,316.51z"/>
							<path class="st9" d="M590.06,333.9c-4.54,7.5-14.66,9.69-22.59,4.89s-10.68-14.78-6.14-22.28l39.95-65.98
								c4.54-7.5,14.66-9.69,22.59-4.89c7.93,4.8,10.68,14.78,6.14,22.28L590.06,333.9z"/>
						</g>
					</g>
					<g>
						<path class="st40" d="M597.35,306.07c0,0,51.2-19.74,60.99,35.75c9.78,55.49-11.17,75.24-23.23,86.32
							c-25.56,23.48-4.56,46.93-4.05,172.74"/>
						<g>
							<path class="st40" d="M647.39,368.61c-4.54,7.5-14.66,9.69-22.59,4.89s-10.68-14.78-6.14-22.28l30.12-49.75
								c4.54-7.5,14.66-9.69,22.59-4.89c7.93,4.8,10.68,14.78,6.14,22.28L647.39,368.61z"/>
							<path class="st40" d="M618.66,351.21c-4.54,7.5-14.66,9.69-22.59,4.89s-10.68-14.78-6.14-22.28l35.03-57.86
								c4.54-7.5,14.66-9.69,22.59-4.89c7.93,4.8,10.68,14.78,6.14,22.28L618.66,351.21z"/>
							<path class="st40" d="M561.33,316.51c-4.54,7.5-14.66,9.69-22.59,4.89s-10.68-14.78-6.14-22.28l35.03-57.86
								c4.54-7.5,14.66-9.69,22.59-4.89c7.93,4.8,10.68,14.78,6.14,22.28L561.33,316.51z"/>
							<path class="st40" d="M590.06,333.9c-4.54,7.5-14.66,9.69-22.59,4.89s-10.68-14.78-6.14-22.28l39.95-65.98
								c4.54-7.5,14.66-9.69,22.59-4.89c7.93,4.8,10.68,14.78,6.14,22.28L590.06,333.9z"/>
						</g>
						<path class="st9" d="M521,603.13h81.12l-11.6-198.37c0,0,13-50.11-35.76-70.35c2.36-4.05,5.14-8.86,5.14-8.86
							s12.4,5.32,24.04-2.28c11.64-7.59,13.41-17.21,13.41-17.21s-42.77-20.5-50.11-23.53c-7.34-3.04-15.18,0-23.03,10.12
							s-33.15,41.76-32.14,61.49c1.01,19.74,30.37,49.35,35.17,63.01C530.76,427.12,523.1,507.03,521,603.13z"/>
						<path class="st40" d="M590.52,404.76c0,0,13-50.11-35.76-70.35c2.36-4.05,5.14-8.86,5.14-8.86s12.4,5.31,24.04-2.28
							c11.64-7.59,13.41-17.21,13.41-17.21s-42.77-20.5-50.11-23.53c-7.34-3.04-15.18,0-23.03,10.12
							c-7.84,10.12-33.15,41.75-32.14,61.49c1.01,19.74,28.13,50.35,35.17,63.01c14.78,26.57-8.88,58.19-6.26,183.72"/>
					</g>
				</g>
				<line class="st40" x1="572.4" y1="335.04" x2="582.44" y2="330.46"/>
			</g>
			<g>
				<g>
					<g>
						<path class="st9" d="M227.47,306.07c0,0,51.2-19.74,60.99,35.75s-10.22,76.37-23.23,86.32c-13,9.96-6.84,136.79-6.09,174.99
							H194.6"/>
						<g>
							<path class="st9" d="M277.51,368.61c-4.54,7.5-14.66,9.69-22.59,4.89c-7.93-4.8-10.68-14.78-6.14-22.28l30.12-49.75
								c4.54-7.5,14.66-9.69,22.59-4.89c7.93,4.8,10.68,14.78,6.14,22.28L277.51,368.61z"/>
							<path class="st9" d="M248.78,351.21c-4.54,7.5-14.66,9.69-22.59,4.89c-7.93-4.8-10.68-14.78-6.14-22.28l35.03-57.86
								c4.54-7.5,14.66-9.69,22.59-4.89c7.93,4.8,10.68,14.78,6.14,22.28L248.78,351.21z"/>
							<path class="st9" d="M191.45,316.51c-4.54,7.5-14.66,9.69-22.59,4.89c-7.93-4.8-10.68-14.78-6.14-22.28l35.03-57.86
								c4.54-7.5,14.66-9.69,22.59-4.89c7.93,4.8,10.68,14.78,6.14,22.28L191.45,316.51z"/>
							<path class="st9" d="M220.18,333.9c-4.54,7.5-14.66,9.69-22.59,4.89s-10.68-14.78-6.14-22.28l39.95-65.98
								c4.54-7.5,14.66-9.69,22.59-4.89c7.93,4.8,10.68,14.78,6.14,22.28L220.18,333.9z"/>
						</g>
					</g>
					<g>
						<path class="st40" d="M227.47,306.07c0,0,51.2-19.74,60.99,35.75s-11.17,75.24-23.23,86.32
							c-25.56,23.48-4.56,46.93-4.05,172.74"/>
						<g>
							<path class="st40" d="M277.51,368.61c-4.54,7.5-14.66,9.69-22.59,4.89c-7.93-4.8-10.68-14.78-6.14-22.28l30.12-49.75
								c4.54-7.5,14.66-9.69,22.59-4.89c7.93,4.8,10.68,14.78,6.14,22.28L277.51,368.61z"/>
							<path class="st40" d="M248.78,351.21c-4.54,7.5-14.66,9.69-22.59,4.89c-7.93-4.8-10.68-14.78-6.14-22.28l35.03-57.86
								c4.54-7.5,14.66-9.69,22.59-4.89c7.93,4.8,10.68,14.78,6.14,22.28L248.78,351.21z"/>
							<path class="st40" d="M191.45,316.51c-4.54,7.5-14.66,9.69-22.59,4.89c-7.93-4.8-10.68-14.78-6.14-22.28l35.03-57.86
								c4.54-7.5,14.66-9.69,22.59-4.89c7.93,4.8,10.68,14.78,6.14,22.28L191.45,316.51z"/>
							<path class="st40" d="M220.18,333.9c-4.54,7.5-14.66,9.69-22.59,4.89s-10.68-14.78-6.14-22.28l39.95-65.98
								c4.54-7.5,14.66-9.69,22.59-4.89c7.93,4.8,10.68,14.78,6.14,22.28L220.18,333.9z"/>
						</g>
						<path class="st9" d="M151.12,603.13h81.12l-11.6-198.37c0,0,13-50.11-35.76-70.35c2.36-4.05,5.14-8.86,5.14-8.86
							s12.4,5.32,24.04-2.28c11.64-7.59,13.41-17.21,13.41-17.21s-42.77-20.5-50.11-23.53c-7.34-3.04-15.18,0-23.03,10.12
							s-33.15,41.76-32.14,61.49c1.01,19.74,30.37,49.35,35.17,63.01C160.88,427.12,153.22,507.03,151.12,603.13z"/>
						<path class="st40" d="M220.64,404.76c0,0,13-50.11-35.76-70.35c2.36-4.05,5.14-8.86,5.14-8.86s12.4,5.31,24.04-2.28
							c11.64-7.59,13.41-17.21,13.41-17.21s-42.77-20.5-50.11-23.53c-7.34-3.04-15.18,0-23.03,10.12s-33.15,41.75-32.14,61.49
							s28.13,50.35,35.17,63.01c14.78,26.57-8.88,58.19-6.26,183.72"/>
					</g>
				</g>
				<line class="st40" x1="202.78" y1="335.04" x2="213.32" y2="332.75"/>
			</g>
			<g>
				<circle class="st44" cx="409.3" cy="152.62" r="128.6"/>
				<path class="st45" d="M285.48,120.02c1.88,1.71,3.22,3.7,3.49,6.31c0.27,2.57,1.22,4.84,2.88,6.86
					c2.05,2.48,3.56,5.24,4.32,8.43c0.63,2.63,2.26,4.7,4.72,5.81c2.64,1.19,5.37,2.22,8.14,3.04c7.23,2.16,13.35,5.96,18.14,11.82
					c2.27,2.78,2.86,5.88,1.65,9.29c-0.56,1.58-1.11,3.16-1.7,4.73c-1.28,3.42-1.15,6.77,0.26,10.13c1.68,4.02,4.51,7.18,7.46,10.26
					c4.04,4.21,7.76,8.65,8.64,14.65c0.56,3.76,0.91,7.57,0.97,11.36c0.13,8.34,0.87,16.53,4.04,24.35
					c1.39,3.43,3.52,6.16,6.13,8.87c2.92,3.04,8.02,1.82,7.78,1.81c-2.37-3.34-3.46-6.88-3.96-10.73
					c-0.75-5.74-0.04-10.99,3.55-15.75c2.05-2.72,3.84-5.65,5.64-8.55c3.1-4.99,6.16-10,9.16-15.05c0.85-1.43,1.8-2.96,2.05-4.55
					c0.71-4.49,2.42-8.57,4.23-12.68c2.03-4.63,0.43-8.38-4.2-10.46c-1.22-0.55-2.52-0.91-3.81-1.28c-1.83-0.53-3.69-0.93-5.51-1.48
					c-3.37-1.03-5.42-3.23-5.79-6.83c-0.05-0.45-0.11-0.89-0.2-1.33c-0.69-3.5-0.8-3.59-4.29-3.74c-0.5-0.02-1.01-0.01-1.51-0.09
					c-2.02-0.29-4-0.92-4.83-2.9c-1.46-3.46-4.05-5.05-7.62-5.41c-0.55-0.05-1.09-0.25-1.62-0.44c-2.48-0.91-4.9-0.86-7.35,0.22
					c-2.91,1.29-5.58,0.71-7.94-1.36c-3.39-2.98-6.49-6.19-8.19-10.5c-0.24-0.62-0.6-1.21-1-1.74c-1.26-1.64-2.05-1.72-3.74-0.49
					c-2.24,1.64-4.57,1.4-6.44-0.65c-2.68-2.95-2.33-7.01,0.83-9.64c2.06-1.71,4.48-2.63,7.09-2.73c3.35-0.13,6.71-0.02,10.06,0.15
					c5.53,0.28,9.95-1.74,13.32-6.08c1.13-1.46,2.31-2.9,3.3-4.46c3.51-5.55,8.32-9.19,14.71-10.96c2.59-0.72,5.07-2.08,7.39-3.49
					c2.46-1.49,3.8-3.91,4.07-6.83c0.5-5.51-5.05-12.29-10.52-13.08c-5.33-0.76-9.28,2.8-9.19,7.12c0.04,1.77-0.93,3.2-2.34,4.27
					c-2.14,1.63-4.45,1.1-5.23-1.44c-0.76-2.48-2.16-4.31-4.12-5.94c-2.63-2.18-2.65-3.6-0.42-6.24c2.23-2.64,5.29-3.83,8.53-4.25
					c3.92-0.51,7.66-1.12,10.98-3.57c1.86-1.38,3.44-0.87,5.25,0.9c0.92,0.9,1.77,1.89,2.76,2.7c1.66,1.35,3.99,1.04,5.6-0.63
					c1.31-1.36,1.28-3.14-0.32-4.78c-1.08-1.11-2.28-2.27-3.66-2.86c-2.87-1.23-5.83-2.34-8.85-3.05c-4.18-0.97-8.41-0.91-12.1,1.73
					c-3.02,2.16-5.91,1.99-8.87,0.02c-1.21-0.81-2.34-1.77-3.62-2.44c-1.42-0.74-2.93-1.46-4.48-1.79c-2.88-0.6-6.59-3.39-7.55-0.59
					c-0.65,1.89,1.73-1.98-0.2-1.85c-0.84,0.05-3.32,8.69-4.15,8.62c-2.21-0.19-4.43-0.4-6.64-0.61
					c-11.9,14.22-20.66,31.08-25.54,49.54c0.08,0.07,0.15,0.14,0.23,0.2C285.39,119.95,285.44,119.98,285.48,120.02z"/>
				<path class="st45" d="M502.35,64.01c-3.13,1.09-6.3,2.1-9.52,2.87c-3.12,0.74-5.22,2.23-6.81,4.89
					c-2.11,3.52-3.96,4.42-7.87,3.18c-5.57-1.76-10.75-1.16-15.96,1.24c-1.89,0.87-4.05,1.25-6.12,1.64
					c-1.93,0.36-3.93-0.61-4.32-1.83c-0.37-1.17,0.57-2.49,2.53-3.54c2.61-1.41,2.86-4.32,0.47-6.09c-2.16-1.6-4.65-2.12-7.3-1.98
					c-3.21,0.18-6.13,1.33-8.85,2.93c-4.34,2.55-8.82,4.94-12.31,8.69c-1.48,1.59-2.6,3.39-2.5,5.69c0.05,1.23,0.41,1.95,1.95,1.71
					c3.33-0.53,6.69-0.87,10.3-1.32c-0.59,1.02-0.97,2.13-1.71,2.89c-2.22,2.28-4.35,4.75-6.93,6.55c-3.09,2.17-6.56,3.81-9.95,5.52
					c-2.64,1.34-4.47,3.18-5.42,6.05c-0.58,1.75-1.64,3.35-2.55,5c-0.61,1.12-1.52,2.11-1.95,3.28c-1.51,4.12,1.18,7.35,5.47,6.5
					c1.59-0.31,3.29-1,4.5-2.03c2.02-1.73,3.6-3.97,5.53-5.83c1.67-1.61,3.37-3.38,5.41-4.4c4.03-2,7.62,0.02,8.54,4.39
					c0.13,0.6,0.27,1.2,0.49,1.77c0.55,1.44,1.58,2.24,3.15,2.37c1.78,0.14,3.37-0.32,4.65-1.53c1.09-1.03,2.2-2.12,3.01-3.37
					c3.33-5.17,8.3-7.02,14.1-6.87c1.71,0.04,3.54,0.93,5.05,1.86c1.45,0.89,1.43,2.3,0.08,3.34c-1.07,0.82-2.4,1.38-3.7,1.77
					c-1.59,0.49-3.3,0.6-4.92,1.03c-1.63,0.43-2.93,1.39-3.62,3.01c-0.87,2.03,0.44,4.84,2.43,4.74c1.74-0.08,1.99,0.87,2.2,2.06
					c0.15,0.88,0.27,1.8,0.17,2.67c-0.49,4.54,0.74,8.48,3.71,11.98c2.24,2.65,3.56,5.82,4.24,9.22c0.49,2.47,0.74,4.98,1.25,7.45
					c0.67,3.22,2.63,4.71,5.89,4.41c1.48-0.14,2.97-0.57,4.37-1.1c4.24-1.63,7.93-4.16,11.11-7.38c2.77-2.8,2.73-5.43-0.16-8.11
					c-1.01-0.94-2.26-1.63-3.42-2.4c-1.12-0.74-2.34-1.35-3.37-2.2c-0.63-0.52-1.48-1.61-1.3-2.07c0.27-0.68,1.32-1.33,2.14-1.48
					c6.38-1.18,11.67,1.03,16.11,5.54c3.07,3.12,5.18,6.88,6.85,10.88c1.01,2.43,1.75,4.98,2.86,7.35c1.58,3.34,5.46,3.78,7.62,0.8
					c1.23-1.69,2.08-3.69,2.88-5.64c0.82-2.01,1.31-4.16,2.05-6.21c0.53-1.47,1.37-2.89,3.14-2.88c3.78,0.01,7.28,0.9,9.38,4.44
					c2.8,4.74,2.74,9.78,1.37,14.93c-0.99,3.72-2.33,7.38-1.96,11.35c0.12,1.35,0.48,2.51,0.96,3.57
					c1.32-7.38,2.12-14.93,2.12-22.69C537.9,118.24,524.33,87.08,502.35,64.01z"/>
				<path class="st45" d="M464.46,184.41c2.21-2.89,4.61-5.64,6.83-8.53c1.61-2.1,2.93-4.37,2.49-7.25
					c-1.63-0.22-3.1-0.25-4.48-0.62c-4.91-1.31-7.89-4.95-9.75-9.3c-2.24-5.22-3.85-10.71-5.83-16.06c-0.65-1.76-1.34-3.6-2.42-5.1
					c-1.99-2.77-5.19-2.76-7.69-0.49c-0.88,0.79-2.21,1.49-3.35,1.5c-3.96,0.05-7.93-0.19-11.89-0.35c-2.38-0.1-3.45-1.36-3.11-3.72
					c0.16-1.11,0.53-2.18,0.68-3.29c0.3-2.2-0.46-3.09-2.7-3.29c-3.14-0.29-6.13,0.25-9,1.53c-4.53,2.01-8.32,5.05-11.63,8.68
					c-5.13,5.63-8.59,12.03-8.47,19.88c0.09,6.16,2.14,11.5,7.03,15.52c3.03,2.48,8.42,3.68,11.79,0.16
					c0.6-0.63,1.66-1.04,2.54-1.13c3.76-0.39,8.58,4.35,8,8.06c-0.57,3.62,0.21,6.72,2.32,9.64c1.65,2.28,2.16,4.89,1.63,7.67
					c-0.29,1.54-0.55,3.09-1.02,4.58c-1.42,4.43-1.44,8.59,1.23,12.69c1.06,1.63,1.56,3.72,1.93,5.68
					c0.75,3.95,1.18,7.97,1.86,11.93c0.64,3.72,2.32,4.39,5.49,2.25c2.04-1.38,4.02-2.87,5.94-4.41c5.31-4.25,9.89-9.08,12.22-15.69
					c0.74-2.1,1.98-3.91,3.98-5.05c2.48-1.42,3.04-3.56,2.37-6.18c-0.55-2.16-1.13-4.32-1.69-6.49c-0.64-2.5-0.44-4.95,0.84-7.17
					C461.75,188.11,463.07,186.22,464.46,184.41z"/>
				<path class="st45" d="M471.43,202.58c-2.68,4.15-3.24,8.63-1.41,13.26c0.8,2.04,2.46,2.34,3.93,0.74
					c2.5-2.73,4.13-5.94,4.59-9.66c0.18-2-0.52-3.64-2.03-4.91C474.76,200.53,472.67,200.67,471.43,202.58z"/>
			</g>
		</g>
	</g>
	<g class="st1">
		<text transform="matrix(1 0 0 1 0.7737 -68.2744)" class="st46 st47">FAIR</text>
	</g>
	<g class="st1">
		<text transform="matrix(8.979319e-11 -1 1 8.979319e-11 26.8613 489.8593)"><tspan x="0" y="0" class="st46 st56">www</tspan><tspan x="45.14" y="0" class="st46 st57"> </tspan><tspan x="46.99" y="0" class="st46 st56">.</tspan><tspan x="51.77" y="0" class="st46 st57"> </tspan><tspan x="53.63" y="0" class="st46 st56">Capitalism</tspan><tspan x="150.43" y="0" class="st46 st58"> </tspan><tspan x="153.9" y="0" class="st46 st56">Is</tspan><tspan x="168.88" y="0" class="st46 st58"> </tspan><tspan x="172.34" y="0" class="st46 st56">A</tspan><tspan x="186.6" y="0" class="st46 st57"> </tspan><tspan x="188.46" y="0" class="st46 st56">Virus</tspan><tspan x="236.15" y="0" class="st46 st57"> </tspan><tspan x="238.01" y="0" class="st46 st56">.</tspan><tspan x="242.79" y="0" class="st46 st57"> </tspan><tspan x="244.64" y="0" class="st46 st56">org</tspan></text>
		<text transform="matrix(0 1 -1 0 761.9287 209.1802)"><tspan x="0" y="0" class="st46 st56">#</tspan><tspan x="12.7" y="0" class="st46 st59"> </tspan><tspan x="14.5" y="0" class="st46 st56">Capitalism</tspan><tspan x="111.3" y="0" class="st46 st59"> </tspan><tspan x="113.1" y="0" class="st46 st56">Is</tspan><tspan x="128.09" y="0" class="st46 st59"> </tspan><tspan x="129.89" y="0" class="st46 st56">A</tspan><tspan x="144.15" y="0" class="st46 st59"> </tspan><tspan x="145.95" y="0" class="st46 st56">Virus</tspan></text>
	</g>
</g>
<g id="Layer_1_copy">
	<path class="st65" d="M23.03,381h-0.14l0.25,1.36c0.17,0.8,0.41,1.28,1.01,1.28c0.47,0,0.78-0.37,0.78-0.93
		C24.92,381.77,24.22,381,23.03,381z"/>
	<polygon class="st65" points="17.89,310.48 21.73,311.96 21.73,308.91 17.89,310.39 	"/>
	<ellipse class="st65" cx="22.26" cy="239.72" rx="2.33" ry="1.67"/>
	<path class="st65" d="M23.03,416.17h-0.14l0.25,1.36c0.17,0.8,0.41,1.28,1.01,1.28c0.47,0,0.78-0.37,0.78-0.93
		C24.92,416.93,24.22,416.17,23.03,416.17z"/>
	<polygon class="st65" points="767.41,216.17 769.43,216.66 769.43,214.89 767.41,214.4 	"/>
	<path class="st65" d="M765.76,278.85h0.14l-0.25-1.36c-0.17-0.8-0.41-1.28-1.01-1.28c-0.47,0-0.78,0.37-0.78,0.93
		C763.87,278.09,764.57,278.85,765.76,278.85z"/>
	<path class="st65" d="M765.76,243.69h0.14l-0.25-1.36c-0.17-0.8-0.41-1.28-1.01-1.28c-0.47,0-0.78,0.37-0.78,0.93
		C763.87,242.93,764.57,243.69,765.76,243.69z"/>
	<polygon class="st65" points="770.9,346.05 767.06,344.57 767.06,347.62 770.9,346.14 	"/>
	<path class="st65" d="M766.53,256.32c1.32,0,2.25-0.6,2.25-1.9c0-1.13-0.87-1.86-2.18-1.86h-0.12c-1.34,0-2.21,0.72-2.21,1.86
		C764.26,255.73,765.19,256.32,766.53,256.32z"/>
	<path class="st65" d="M22.26,403.53c-1.32,0-2.25,0.6-2.25,1.9c0,1.13,0.87,1.85,2.18,1.85h0.12c1.34,0,2.21-0.72,2.21-1.85
		C24.53,404.13,23.6,403.53,22.26,403.53z"/>
	<path class="st65" d="M20.57,220.1c-0.8,0-1.32,0.41-1.32,0.97c0,0.56,0.52,0.97,1.32,0.97c0.82,0,1.34-0.41,1.34-0.97
		C21.91,220.51,21.4,220.1,20.57,220.1z"/>
	<path class="st65" d="M27.81,218.64c-0.39,0-0.54,0.29-0.54,0.85v3.38c0,0.37,0.21,0.62,0.56,0.62c0.66,0,0.85-0.93,0.85-2.16
		C28.68,219.77,28.37,218.64,27.81,218.64z"/>
	<path class="st65" d="M404.69,498.72c0.07,0.17,0.15,0.34,0.22,0.5l0.03-0.37C404.85,498.81,404.77,498.77,404.69,498.72z"/>
	<path d="M486.27,427.52c-3.89-2.35-8.17-3.48-12.37-3.49c0.23-2.63-0.01-5.32-0.74-7.98c-1.61-5.85-5.41-10.84-10.71-14.04
		c-3.76-2.28-7.97-3.45-12.22-3.49c0.22-2.6-0.03-5.27-0.75-7.9c-1.61-5.85-5.41-10.84-10.71-14.04c-5.29-3.2-11.47-4.26-17.4-2.98
		c-2.7,0.58-5.18,1.64-7.4,3.06c-1.96-3.72-4.94-7-8.84-9.36c-11.05-6.69-25.27-3.49-31.7,7.13l-22.45,37.09
		c-9.22,1.08-16.48,8.46-20.53,13.69l-1.04,1.34c-15.63,20.09-33.45,45.59-32.48,64.56c0.83,16.11,15.16,36.11,26.69,52.17
		c4.03,5.62,7.51,10.48,9.32,13.72c6.12,11,4.48,23.33,2.9,35.25c-0.42,3.17-0.82,6.17-1.08,9.16c-0.32,3.65,2.38,6.86,6.03,7.18
		c0.2,0.02,0.39,0.03,0.58,0.03c3.4,0,6.3-2.6,6.6-6.06c0.01-0.16,0.03-0.32,0.05-0.48c0.24-2.55,0.59-5.24,0.97-8.08
		c1.7-12.75,3.81-28.61-4.45-43.45c-2.17-3.9-5.86-9.05-10.13-15c-9.39-13.1-23.59-32.9-24.22-45.13
		c-0.84-16.47,22.15-46.02,29.7-55.73l1.05-1.36c5.59-7.22,10.73-9.93,15.25-8.06c5.51,2.28,32.22,15,44.08,20.67
		c-1.53,2.46-4.13,5.56-8.48,8.39c-8.4,5.48-17.47,1.87-17.81,1.74c-3.08-1.32-6.67-0.13-8.35,2.77c0,0-2.78,4.8-5.13,8.84
		c-0.96,1.65-1.16,3.64-0.55,5.45c0.61,1.81,1.97,3.27,3.74,4.01c42.67,17.71,32.36,60.68,31.88,62.57
		c-0.91,3.54,1.22,7.15,4.76,8.07c3.55,0.92,7.16-1.21,8.08-4.75c0.15-0.57,3.59-14.15,0.5-30.48c-0.78-4.15-2.04-8.69-4-13.34
		c-0.07-0.17-0.14-0.33-0.22-0.5c0.08,0.05,0.16,0.09,0.24,0.14c3.61,2,7.59,3.05,11.61,3.05c1.66,0,3.32-0.18,4.97-0.53
		c0.17-0.04,0.33-0.09,0.5-0.14c1.46,5.81,5.19,11.14,10.82,14.55c3.83,2.32,8.11,3.51,12.44,3.51c1.66,0,3.32-0.18,4.97-0.53
		c6.07-1.31,11.14-4.9,14.29-10.11l1.17-1.93c-0.43,31.83-14.48,44.77-23.61,53.15c-17.65,16.21-12.62,40.27-12.4,41.29
		c0.16,0.75,0.45,1.44,0.84,2.06c1.19,1.93,3.32,3.14,5.63,3.14c0.46,0,0.93-0.05,1.4-0.15c3.57-0.76,5.85-4.29,5.1-7.86
		c-0.04-0.18-3.55-17.72,8.41-28.71c11.81-10.85,33.21-30.54,26.7-82.84l16.89-27.89c3.15-5.2,3.98-11.37,2.33-17.35
		C495.36,435.71,491.56,430.73,486.27,427.52z M364.66,414.53l20.11-33.22c1.66-2.75,4.68-4.24,7.89-4.24c1.88,0,3.83,0.51,5.6,1.59
		c4.79,2.9,6.54,8.81,3.91,13.17l-18.97,31.33C375.96,419.74,369.01,416.49,364.66,414.53z M395.24,428.86l23.18-38.29
		c1.24-2.05,3.29-3.48,5.75-4.01c0.71-0.15,1.43-0.23,2.15-0.23c1.92,0,3.85,0.54,5.58,1.59c2.38,1.44,4.08,3.65,4.79,6.22
		c0.67,2.43,0.35,4.9-0.89,6.96l-22.32,36.87c-0.51-0.51-1.12-0.94-1.8-1.27C410.98,436.37,403.92,432.99,395.24,428.86z
		 M424.45,484.4C424.45,484.4,424.45,484.4,424.45,484.4c-1.24,2.05-3.29,3.48-5.75,4.01c-2.6,0.56-5.35,0.08-7.73-1.36
		c-2.38-1.44-4.08-3.65-4.79-6.22c-0.56-2.02-0.42-4.06,0.35-5.87c0.23-0.33,0.47-0.66,0.68-1l0,0l35.86-59.23
		c1.23-1.36,2.88-2.31,4.79-2.73c0.71-0.15,1.43-0.23,2.15-0.23c1.92,0,3.85,0.54,5.58,1.59c2.38,1.44,4.08,3.65,4.79,6.22
		c0.67,2.43,0.35,4.9-0.89,6.96L424.45,484.4z M483.3,452.04l-30.12,49.75c-1.24,2.05-3.29,3.48-5.75,4.01
		c-2.6,0.56-5.35,0.08-7.73-1.36c-4.79-2.9-6.54-8.81-3.9-13.18l30.12-49.75c1.66-2.75,4.68-4.24,7.88-4.24
		c1.88,0,3.83,0.51,5.6,1.59c2.38,1.44,4.08,3.65,4.79,6.22C484.86,447.52,484.55,449.99,483.3,452.04z"/>
	<path d="M674.8,290.9c-3.81-2.31-8.08-3.48-12.38-3.49c0.74-8.47-3.44-17.18-11.43-22.02c-3.84-2.33-8.07-3.45-12.22-3.49
		c0.22-2.6-0.03-5.27-0.75-7.9c-1.61-5.85-5.41-10.84-10.71-14.04c-7.99-4.84-17.65-4.5-24.81,0.08c-2-3.81-5.02-7.05-8.83-9.35
		c-11.05-6.69-25.27-3.49-31.7,7.13l-22.46,37.09c-9.22,1.08-16.48,8.46-20.53,13.69l-1.04,1.34
		c-15.63,20.09-33.45,45.59-32.48,64.55c0.83,16.11,15.16,36.11,26.69,52.18c4.03,5.62,7.51,10.48,9.32,13.72
		c6.16,11.07,4.4,23.73,0.89,48.95c-3.72,26.71-9.33,67.09-7.98,131.69c0.08,3.61,3.03,6.49,6.63,6.49c0.05,0,0.09,0,0.14,0
		c2.82-0.06,5.19-1.88,6.1-4.39c0.27-0.74,0.41-1.54,0.4-2.38c-1.33-63.54,4.2-103.29,7.86-129.58c3.67-26.36,5.88-42.28-2.44-57.22
		c-2.17-3.9-5.86-9.05-10.13-15c-9.39-13.1-23.59-32.9-24.22-45.13c-0.84-16.46,22.15-46.02,29.7-55.73l1.06-1.36
		c5.59-7.22,10.73-9.93,15.25-8.06c5.51,2.28,32.22,15,44.08,20.67c-1.53,2.46-4.13,5.56-8.48,8.39c-8.4,5.48-17.47,1.87-17.81,1.74
		c-3.08-1.32-6.67-0.13-8.35,2.77c0,0-2.78,4.8-5.13,8.84c-0.96,1.65-1.16,3.64-0.55,5.45c0.61,1.81,1.97,3.27,3.74,4.01
		c42.67,17.71,32.36,60.68,31.88,62.57c-0.91,3.54,1.22,7.15,4.76,8.07c3.54,0.92,7.16-1.21,8.08-4.75
		c0.15-0.57,3.59-14.15,0.5-30.48c-0.81-4.3-2.13-9.02-4.22-13.85c3.75,2.13,7.84,3.17,11.85,3.17c1.85,0,3.68-0.22,5.46-0.65
		c0.04,0.17,0.08,0.34,0.13,0.51c1.61,5.85,5.41,10.84,10.71,14.04c3.91,2.37,8.22,3.5,12.44,3.5c7.7,0,15.11-3.76,19.26-10.62
		l1.17-1.93c-0.43,31.83-14.48,44.76-23.61,53.15c-17.8,16.35-16.08,33.16-12.3,70c2.49,24.36,5.91,57.72,6.11,107.65
		c0,0.78,0.15,1.52,0.4,2.22c0.92,2.56,3.36,4.39,6.23,4.39c0.01,0,0.02,0,0.03,0c3.66-0.01,6.62-3,6.6-6.66
		c-0.2-50.59-3.66-84.32-6.18-108.95c-3.82-37.28-4.3-47.5,8.08-58.88c11.81-10.85,33.21-30.54,26.7-82.84l16.89-27.89
		c3.15-5.21,3.98-11.37,2.33-17.35C683.9,299.09,680.09,294.11,674.8,290.9z M553.19,277.91l20.11-33.22
		c1.66-2.75,4.68-4.24,7.88-4.24c1.88,0,3.83,0.51,5.6,1.59c2.38,1.44,4.08,3.65,4.79,6.22c0.67,2.43,0.36,4.9-0.89,6.96
		l-18.97,31.33C564.49,283.12,557.54,279.87,553.19,277.91z M583.77,292.24l23.18-38.28c1.66-2.75,4.68-4.24,7.88-4.24
		c1.88,0,3.83,0.51,5.6,1.59c2.38,1.44,4.08,3.65,4.79,6.22c0.67,2.43,0.36,4.9-0.89,6.96l-22.32,36.87
		c-0.51-0.51-1.12-0.94-1.8-1.27C599.51,299.75,592.45,296.37,583.77,292.24z M612.99,347.78c-2.64,4.36-8.69,5.55-13.48,2.65
		c-2.38-1.44-4.08-3.65-4.79-6.22c-0.56-2.02-0.42-4.06,0.35-5.87c0.23-0.33,0.47-0.65,0.68-1v0l35.83-59.19
		c1.74-1.95,4.27-3,6.95-3c1.88,0,3.83,0.51,5.6,1.59c4.79,2.9,6.54,8.81,3.9,13.18L612.99,347.78z M671.83,315.43l-30.12,49.75
		c-2.64,4.37-8.69,5.56-13.48,2.65c-2.38-1.44-4.08-3.65-4.79-6.22c-0.67-2.43-0.36-4.9,0.89-6.96l30.12-49.75
		c1.24-2.05,3.29-3.48,5.75-4.01c0.71-0.15,1.43-0.23,2.15-0.23c1.92,0,3.85,0.54,5.58,1.59c2.38,1.44,4.08,3.65,4.79,6.22
		C673.39,310.9,673.08,313.37,671.83,315.43z"/>
	<path d="M296.41,350.19l16.89-27.89c3.15-5.21,3.98-11.37,2.33-17.35c-1.61-5.85-5.41-10.84-10.71-14.04
		c-3.8-2.3-8.07-3.48-12.37-3.49c0.23-2.63-0.01-5.32-0.74-7.98c-1.61-5.85-5.41-10.84-10.71-14.04c-3.76-2.28-7.97-3.45-12.22-3.49
		c0.22-2.6-0.02-5.27-0.75-7.9c-1.61-5.85-5.41-10.84-10.71-14.04c-5.29-3.2-11.47-4.26-17.4-2.98c-2.7,0.58-5.18,1.64-7.4,3.06
		c-2-3.81-5.03-7.05-8.84-9.36c-5.29-3.2-11.47-4.26-17.4-2.98c-6.07,1.31-11.14,4.9-14.29,10.11l-22.46,37.09
		c-9.22,1.08-16.48,8.46-20.53,13.69l-1.04,1.34c-15.63,20.09-33.45,45.59-32.48,64.55c0.83,16.11,15.16,36.11,26.69,52.18
		c4.03,5.62,7.51,10.48,9.32,13.72c6.16,11.07,4.4,23.73,0.89,48.95c-3.72,26.72-9.33,67.09-7.98,131.69
		c0.08,3.61,3.03,6.49,6.63,6.49c0.05,0,0.09,0,0.14,0c2.82-0.06,5.19-1.88,6.1-4.39c0.27-0.74,0.41-1.54,0.4-2.38
		c-1.33-63.54,4.2-103.29,7.86-129.58c3.67-26.36,5.88-42.28-2.44-57.22c-2.17-3.9-5.86-9.05-10.13-15
		c-9.39-13.1-23.59-32.9-24.22-45.13c-0.84-16.46,22.15-46.02,29.7-55.73l1.06-1.36c5.59-7.22,10.72-9.93,15.25-8.06
		c5.51,2.28,32.22,15,44.08,20.67c-1.53,2.46-4.13,5.56-8.48,8.39c-8.4,5.48-17.47,1.87-17.81,1.74c-3.08-1.32-6.67-0.13-8.35,2.77
		c0,0-2.78,4.8-5.13,8.84c-0.96,1.65-1.16,3.64-0.55,5.45c0.61,1.81,1.97,3.27,3.74,4.01c42.67,17.71,32.36,60.68,31.88,62.57
		c-0.91,3.54,1.22,7.15,4.76,8.07c3.55,0.92,7.16-1.21,8.08-4.75c0.15-0.57,3.59-14.15,0.5-30.48c-0.81-4.3-2.13-9.02-4.22-13.85
		c3.68,2.09,7.75,3.18,11.85,3.18c1.66,0,3.32-0.18,4.97-0.53c0.17-0.04,0.33-0.09,0.5-0.14c1.46,5.81,5.19,11.14,10.82,14.55
		c3.91,2.37,8.22,3.5,12.44,3.5c7.7,0,15.11-3.76,19.26-10.62c0,0,0,0,0,0l1.17-1.93c-0.43,31.83-14.48,44.76-23.61,53.15
		c-17.8,16.35-16.08,33.16-12.3,70c2.49,24.36,5.91,57.72,6.11,107.65c0,0.78,0.15,1.52,0.4,2.22c0.92,2.56,3.36,4.39,6.23,4.39
		c0.01,0,0.02,0,0.03,0c3.66-0.01,6.62-3,6.6-6.66c-0.2-50.58-3.66-84.32-6.18-108.95c-3.82-37.28-4.3-47.5,8.08-58.88
		C281.52,422.18,302.92,402.49,296.41,350.19z M183.31,277.91l20.11-33.22c1.24-2.05,3.29-3.48,5.75-4.01
		c0.71-0.15,1.43-0.23,2.15-0.23c1.92,0,3.85,0.54,5.58,1.59c2.38,1.44,4.08,3.65,4.79,6.22c0.67,2.43,0.36,4.9-0.89,6.96
		l-18.97,31.33C194.61,283.12,187.66,279.87,183.31,277.91z M213.89,292.24l23.18-38.29c1.24-2.05,3.29-3.48,5.75-4.01
		c0.71-0.15,1.43-0.23,2.15-0.23c1.92,0,3.85,0.54,5.58,1.59c2.38,1.44,4.08,3.65,4.79,6.22c0.67,2.43,0.35,4.9-0.89,6.96
		l-22.32,36.87c-0.51-0.51-1.12-0.94-1.8-1.27C229.63,299.75,222.57,296.37,213.89,292.24z M243.1,347.78
		c-1.24,2.05-3.29,3.48-5.75,4.01c-2.6,0.56-5.35,0.08-7.73-1.36c-2.38-1.44-4.08-3.65-4.79-6.22c-0.56-2.02-0.42-4.06,0.34-5.87
		c0.23-0.33,0.47-0.66,0.68-1l35.86-59.23c1.23-1.36,2.88-2.31,4.79-2.73c0.71-0.15,1.43-0.23,2.15-0.23c1.92,0,3.85,0.54,5.58,1.59
		c2.38,1.44,4.08,3.65,4.79,6.22c0.67,2.43,0.35,4.9-0.89,6.96L243.1,347.78z M271.83,365.17L271.83,365.17
		c-2.64,4.36-8.69,5.56-13.48,2.65c-4.79-2.9-6.54-8.81-3.9-13.18l30.12-49.75c1.24-2.05,3.29-3.48,5.75-4.01
		c0.71-0.15,1.43-0.23,2.15-0.23c1.92,0,3.85,0.54,5.58,1.59c2.38,1.44,4.08,3.65,4.79,6.22c0.67,2.43,0.35,4.91-0.89,6.96
		L271.83,365.17z"/>
	<path d="M475.76,166.62l-1.68-0.22c-0.55-0.07-1.08-0.13-1.6-0.18c-0.98-0.1-1.83-0.18-2.59-0.39c-3.67-0.98-6.37-3.6-8.26-8
		c-1.39-3.25-2.57-6.7-3.71-10.04c-0.66-1.94-1.35-3.94-2.07-5.91c-0.63-1.72-1.42-3.85-2.7-5.64c-1.26-1.75-3.03-2.83-4.98-3.04
		c-2.1-0.22-4.25,0.56-6.06,2.19c-0.62,0.56-1.45,0.92-1.87,0.92c-3.01,0.04-6.1-0.1-9.09-0.23c-0.89-0.04-1.79-0.08-2.68-0.12
		c-0.73-0.03-0.94-0.2-0.94-0.2c0,0-0.13-0.23-0.03-0.93c0.06-0.44,0.18-0.91,0.3-1.4c0.15-0.6,0.3-1.22,0.39-1.9
		c0.09-0.64,0.35-2.57-0.85-4.08c-1.09-1.37-2.74-1.66-3.89-1.77c-3.44-0.32-6.84,0.26-10.12,1.72c-4.49,2-8.54,5.01-12.38,9.23
		c-6.21,6.82-9.17,13.83-9.06,21.44c0.11,7.25,2.75,13.04,7.86,17.23c4.08,3.35,10.76,4.26,14.86-0.02c0.15-0.15,0.65-0.4,1.15-0.45
		c1.09-0.11,2.72,0.71,3.95,2c1.11,1.17,1.73,2.52,1.58,3.45c-0.66,4.17,0.23,7.88,2.72,11.32c1.26,1.75,1.67,3.68,1.24,5.92
		l-0.14,0.75c-0.24,1.26-0.46,2.45-0.81,3.56c-1.79,5.55-1.3,10.33,1.48,14.62c0.84,1.29,1.27,3.1,1.6,4.87
		c0.41,2.14,0.73,4.37,1.03,6.52c0.25,1.76,0.51,3.58,0.82,5.38c0.17,0.98,0.69,3.97,3.12,5.01c0.54,0.23,1.09,0.33,1.63,0.33
		c1.88,0,3.58-1.15,4.24-1.6c1.96-1.33,3.95-2.8,6.08-4.51c4.58-3.67,10.19-8.88,12.94-16.7c0.63-1.8,1.6-3.05,2.97-3.84
		c3.18-1.83,4.4-4.92,3.44-8.7c-0.29-1.15-0.59-2.3-0.9-3.45c-0.27-1.01-0.53-2.03-0.79-3.04c-0.52-2.04-0.31-3.88,0.61-5.48
		c1-1.73,2.21-3.5,3.69-5.43l0,0c1.1-1.43,2.28-2.87,3.41-4.26c1.13-1.38,2.3-2.81,3.41-4.26c1.77-2.31,3.51-5.18,2.93-8.97
		L475.76,166.62z"/>
	<path d="M473.33,203.81L473.33,203.81c-2.32,3.59-2.73,7.36-1.21,11.21c0.02,0.05,0.04,0.1,0.06,0.14c0.03-0.03,0.06-0.06,0.1-0.1
		c2.29-2.5,3.64-5.33,4.01-8.41c0.1-1.17-0.28-2.09-1.25-2.92c-0.35-0.3-0.71-0.47-0.99-0.47c-0.03,0-0.06,0-0.09,0.01
		C473.7,203.32,473.48,203.59,473.33,203.81z"/>
	<path d="M473.31,198.81c-1.52,0.23-2.86,1.13-3.77,2.55c-3.11,4.81-3.67,10.11-1.62,15.32c0.92,2.35,2.53,2.97,3.41,3.13
		c0.2,0.04,0.44,0.06,0.72,0.06c0.94,0,2.26-0.33,3.57-1.75c2.94-3.21,4.67-6.88,5.17-10.98c0.24-2.71-0.73-5.07-2.82-6.84
		C476.56,199.1,474.91,198.57,473.31,198.81z M474.06,203.27c0.27,0,0.63,0.17,0.99,0.47c0.97,0.82,1.35,1.74,1.25,2.92
		c-0.38,3.08-1.73,5.91-4.01,8.41c-0.03,0.04-0.07,0.07-0.1,0.1c-0.02-0.04-0.04-0.09-0.06-0.14c-1.51-3.85-1.11-7.62,1.21-11.21v0
		c0.14-0.22,0.37-0.49,0.64-0.53C474,203.28,474.03,203.27,474.06,203.27z"/>
	<polygon points="17.67,447.64 22.88,449.29 22.88,449.37 17.67,450.71 17.67,453.37 22.88,454.71 22.88,454.79 17.67,456.44 
		17.67,459.67 17.67,459.76 17.67,462.68 22.88,464.33 22.88,464.41 17.67,465.75 17.67,468.41 22.88,469.75 22.88,469.84 
		17.67,471.48 17.67,474.72 17.67,474.8 17.67,477.73 22.88,479.38 22.88,479.46 17.67,480.8 17.67,483.46 22.88,484.8 
		22.88,484.88 17.67,486.53 17.67,489.85 26.86,486.94 26.86,483.67 21.67,482.32 21.67,482.24 26.86,480.9 26.86,477.62 
		17.8,474.76 26.86,471.9 26.86,468.62 21.67,467.28 21.67,467.2 26.86,465.86 26.86,462.58 17.8,459.71 26.86,456.85 26.86,453.57 
		21.67,452.23 21.67,452.15 26.86,450.81 26.86,447.53 17.67,444.63 	"/>
	<rect x="23.32" y="438.65" width="3.55" height="3.55"/>
	<path d="M21.36,422.76l-0.14,3.36c1.44,0.21,2.78,0.99,2.78,3.01c0,1.92-1.42,3.03-3.63,3.03s-3.63-1.11-3.63-3.03
		c0-2.02,1.34-2.8,2.78-3.01l-0.12-3.36c-3.24,0.25-5.77,2.37-5.77,6.35c0,3.79,2.74,6.66,6.74,6.66s6.74-2.87,6.74-6.66
		C27.11,425.13,24.59,423.01,21.36,422.76z"/>
	<path d="M24.16,412.89h-3.13c-2.56,0-3.61,1.79-3.61,4.23c0,2.76,1.4,4.27,3.42,4.56l0.21-3.09c-0.68-0.14-1.15-0.52-1.15-1.26
		c0-0.8,0.45-1.15,1.22-1.15h0.14l0.43,2.58c0.35,2,1.11,3.28,2.89,3.28c1.57,0,2.49-1.17,2.49-2.97c0-1.46-0.56-2.51-1.63-3.05
		c1.05-0.31,1.63-1.2,1.63-2.33c0-0.95-0.27-1.61-0.6-2.08H24.7c0.1,0.27,0.14,0.47,0.14,0.74
		C24.84,412.68,24.63,412.89,24.16,412.89z M24.92,417.88c0,0.56-0.31,0.93-0.78,0.93c-0.6,0-0.85-0.47-1.01-1.28l-0.25-1.36h0.14
		C24.22,416.17,24.92,416.93,24.92,417.88z"/>
	<path d="M27.11,404.25c0-2.7-2.12-4.08-4.84-4.08c-2.7,0-4.84,1.38-4.84,4.08c0,1.55,0.74,2.58,1.83,3.03h-1.59v3.34h12.49v-3.34
		h-4.86C26.37,406.83,27.11,405.8,27.11,404.25z M22.33,407.28H22.2c-1.32,0-2.18-0.72-2.18-1.85c0-1.3,0.93-1.9,2.25-1.9
		c1.34,0,2.27,0.6,2.27,1.9C24.53,406.56,23.67,407.28,22.33,407.28z"/>
	<rect x="13.87" y="395.49" width="2.93" height="3.38"/>
	<rect x="17.67" y="395.52" width="9.19" height="3.34"/>
	<path d="M26.28,387.6h-2.16c0.23,0.56,0.31,1.01,0.31,1.42c0,0.68-0.31,1.05-1.09,1.05h-3.36v-2.39h-2.31v2.39h-2.54v2.1l1.2,0.31
		c0.85,0.23,1.34,0.52,1.48,1.44l0.1,0.68h2.06v-1.24h4.33c2.16,0,2.8-1.46,2.8-3.01C27.11,389.1,26.8,388.3,26.28,387.6z"/>
	<path d="M27.07,378.51c0-0.95-0.27-1.61-0.6-2.08H24.7c0.1,0.27,0.14,0.47,0.14,0.74c0,0.35-0.21,0.56-0.68,0.56h-3.13
		c-2.56,0-3.61,1.79-3.61,4.23c0,2.76,1.4,4.27,3.42,4.56l0.21-3.09c-0.68-0.14-1.15-0.52-1.15-1.26c0-0.8,0.45-1.15,1.22-1.15h0.14
		l0.43,2.58c0.35,2,1.11,3.28,2.89,3.28c1.57,0,2.49-1.17,2.49-2.97c0-1.46-0.56-2.51-1.63-3.05
		C26.49,380.53,27.07,379.64,27.07,378.51z M24.14,383.64c-0.6,0-0.85-0.47-1.01-1.28L22.88,381h0.14c1.2,0,1.9,0.76,1.9,1.71
		C24.92,383.27,24.61,383.64,24.14,383.64z"/>
	<rect x="13.87" y="372.12" width="12.99" height="3.34"/>
	<rect x="13.87" y="366.95" width="2.93" height="3.38"/>
	<rect x="17.67" y="366.97" width="9.19" height="3.34"/>
	<path d="M24.06,356.93c-1.79,0-2.72,1.2-3.05,3.26l-0.31,1.79c-0.04,0.31-0.21,0.56-0.52,0.56c-0.41,0-0.66-0.37-0.66-1.01
		c0-1.03,0.41-1.61,1.07-1.73l-0.08-2.74c-1.92,0.19-3.09,1.75-3.09,4.41c0,2.58,1.3,4.16,3.11,4.16c1.88,0,2.6-1.17,2.95-3.4
		l0.21-1.36c0.1-0.64,0.35-0.85,0.7-0.85c0.37,0,0.64,0.39,0.64,1.13c0,1.01-0.43,1.63-1.2,1.75l0.04,2.91
		c2.23-0.19,3.24-2.08,3.24-4.62C27.11,358.58,26,356.93,24.06,356.93z"/>
	<path d="M21.98,343.51h4.89v-3.34h-5.77c-1.92,0-3.67,0.74-3.67,3.28c0,1.55,0.78,2.64,1.81,3.13c-1.07,0.39-1.81,1.24-1.81,2.87
		c0,1.38,0.62,2.37,1.63,2.87h-1.38v3.34h9.19v-3.34h-4.51c-1.38,0-2.29-0.39-2.29-1.48c0-1.01,0.66-1.26,1.92-1.26h4.89v-3.34
		h-4.51c-1.38,0-2.29-0.37-2.29-1.48C20.06,343.74,20.72,343.51,21.98,343.51z"/>
	<rect x="13.87" y="331.42" width="12.99" height="3.5"/>
	<path d="M24.06,321.3c-1.79,0-2.72,1.2-3.05,3.26l-0.31,1.79c-0.04,0.31-0.21,0.56-0.52,0.56c-0.41,0-0.66-0.37-0.66-1.01
		c0-1.03,0.41-1.61,1.07-1.73l-0.08-2.74c-1.92,0.19-3.09,1.75-3.09,4.41c0,2.58,1.3,4.16,3.11,4.16c1.88,0,2.6-1.17,2.95-3.4
		l0.21-1.36c0.1-0.64,0.35-0.85,0.7-0.85c0.37,0,0.64,0.39,0.64,1.13c0,1.01-0.43,1.63-1.2,1.75l0.04,2.91
		c2.23-0.19,3.24-2.08,3.24-4.62C27.11,322.95,26,321.3,24.06,321.3z"/>
	<path d="M26.86,306.93v-3.73l-12.99,5.17v3.92l12.99,5.17v-3.53l-2.51-0.97v-5.07L26.86,306.93z M21.73,311.96l-3.83-1.48v-0.08
		l3.83-1.48V311.96z"/>
	<polygon points="13.87,291.16 22.51,294.38 22.51,294.46 13.87,297.68 13.87,301.35 26.86,296.36 26.86,292.67 13.87,287.68 	"/>
	<rect x="17.67" y="283.44" width="9.19" height="3.34"/>
	<rect x="13.87" y="283.42" width="2.93" height="3.38"/>
	<path d="M19.3,278.28h-1.63v3.34h9.19v-3.34h-4.21c-1.55,0-2.12-0.76-2.12-2c0-0.64,0.12-1.13,0.39-1.59l-3.15-0.21
		c-0.19,0.23-0.35,0.72-0.35,1.28C17.42,276.99,18.27,277.95,19.3,278.28z"/>
	<path d="M22.57,270.23h-4.91v3.34h5.79c1.92,0,3.65-0.76,3.65-3.28c0-1.38-0.6-2.39-1.63-2.89h1.38v-3.34h-9.19v3.34h4.51
		c1.4,0,2.31,0.41,2.31,1.46C24.49,269.88,23.81,270.23,22.57,270.23z"/>
	<path d="M20.53,262.72c1.88,0,2.6-1.18,2.95-3.4l0.21-1.36c0.1-0.64,0.35-0.85,0.7-0.85c0.37,0,0.64,0.39,0.64,1.13
		c0,1.01-0.43,1.63-1.2,1.75l0.04,2.91c2.23-0.19,3.24-2.08,3.24-4.62c0-2.62-1.11-4.27-3.05-4.27c-1.79,0-2.72,1.2-3.05,3.26
		l-0.31,1.79c-0.04,0.31-0.21,0.56-0.52,0.56c-0.41,0-0.66-0.37-0.66-1.01c0-1.03,0.41-1.61,1.07-1.73l-0.08-2.74
		c-1.92,0.19-3.09,1.75-3.09,4.41C17.42,261.14,18.72,262.72,20.53,262.72z"/>
	<rect x="23.32" y="247.64" width="3.55" height="3.55"/>
	<path d="M22.26,244.75c2.87,0,4.84-2.02,4.84-5.03c0-2.99-1.98-5.03-4.84-5.03c-2.84,0-4.84,2.04-4.84,5.03
		C17.42,242.73,19.42,244.75,22.26,244.75z M22.26,238.05c1.38,0,2.33,0.52,2.33,1.67c0,1.17-0.95,1.67-2.33,1.67
		s-2.33-0.5-2.33-1.67C19.93,238.57,20.88,238.05,22.26,238.05z"/>
	<path d="M17.77,226.24c-0.19,0.23-0.35,0.72-0.35,1.28c0,1.22,0.85,2.19,1.88,2.51h-1.63v3.34h9.19v-3.34h-4.21
		c-1.55,0-2.12-0.76-2.12-2c0-0.64,0.12-1.13,0.39-1.59L17.77,226.24z"/>
	<path d="M27.07,215.57c-1.55,0-2.64,1.05-2.64,3.13v3.81c0,0.56-0.25,0.78-0.56,0.78c-0.19,0-0.33-0.06-0.43-0.19
		c0.19-0.6,0.27-1.26,0.27-2c0-2.6-1.2-4.47-3.13-4.47c-0.43,0-0.83,0.1-1.18,0.29c-0.1-0.45-0.14-0.95-0.14-1.34h-2.52
		c0,1.01,0.66,2.02,1.42,2.58c-0.47,0.78-0.74,1.83-0.74,2.95c0,2.58,1.2,4.43,3.15,4.43c1.01,0,1.79-0.49,2.33-1.32
		c0.37,0.99,1.05,1.57,1.94,1.57c0.78,0,1.53-0.5,1.79-1.32c0.08,1.03,0.72,1.75,1.53,1.75c1.73,0,2.25-2.27,2.25-4.89
		C30.41,218.35,29.36,215.57,27.07,215.57z M20.57,222.04c-0.8,0-1.32-0.41-1.32-0.97c0-0.56,0.52-0.97,1.32-0.97
		c0.82,0,1.34,0.41,1.34,0.97C21.91,221.63,21.4,222.04,20.57,222.04z M27.83,223.48c-0.35,0-0.56-0.25-0.56-0.62v-3.38
		c0-0.56,0.14-0.85,0.54-0.85c0.56,0,0.87,1.13,0.87,2.68C28.68,222.55,28.49,223.48,27.83,223.48z"/>
	<path d="M774.92,216.19v-2.49l-3.42-0.83v-2.02l-2.06-0.43v1.98l-2.02-0.5v-1.88l-2.06-0.43v1.81l-3.42-0.8v2.49l3.42,0.8v1.77
		l-3.42-0.8v2.49l3.42,0.8v2.04l2.06,0.43v-1.98l2.02,0.5v1.88l2.06,0.43v-1.83l3.42,0.82v-2.49l-3.42-0.82v-1.77L774.92,216.19z
		 M769.43,216.66l-2.02-0.5v-1.77l2.02,0.5V216.66z"/>
	<path d="M768.42,224.09c-4,0-6.74,2.87-6.74,6.66c0,3.98,2.51,6.1,5.75,6.35l0.14-3.36c-1.44-0.21-2.78-0.99-2.78-3.01
		c0-1.92,1.42-3.03,3.63-3.03c2.21,0,3.63,1.11,3.63,3.03c0,2.02-1.34,2.8-2.78,3.01l0.12,3.36c3.24-0.25,5.77-2.37,5.77-6.35
		C775.16,226.95,772.42,224.09,768.42,224.09z"/>
	<path d="M761.72,246.18c0,0.95,0.27,1.61,0.6,2.08h1.77c-0.1-0.27-0.14-0.47-0.14-0.74c0-0.35,0.21-0.56,0.68-0.56h3.13
		c2.56,0,3.61-1.79,3.61-4.23c0-2.76-1.4-4.27-3.42-4.56l-0.21,3.09c0.68,0.14,1.15,0.51,1.15,1.26c0,0.8-0.45,1.15-1.22,1.15h-0.14
		l-0.43-2.58c-0.35-2-1.11-3.28-2.89-3.28c-1.57,0-2.49,1.17-2.49,2.97c0,1.46,0.56,2.51,1.63,3.05
		C762.3,244.16,761.72,245.05,761.72,246.18z M764.65,241.05c0.6,0,0.84,0.47,1.01,1.28l0.25,1.36h-0.14c-1.2,0-1.9-0.76-1.9-1.71
		C763.87,241.42,764.18,241.05,764.65,241.05z"/>
	<path d="M761.68,255.6c0,2.7,2.12,4.08,4.84,4.08c2.7,0,4.84-1.38,4.84-4.08c0-1.55-0.74-2.58-1.83-3.03h1.59v-3.34h-12.49v3.34
		h4.86C762.42,253.03,761.68,254.06,761.68,255.6z M766.46,252.57h0.12c1.32,0,2.18,0.72,2.18,1.86c0,1.3-0.93,1.9-2.25,1.9
		c-1.34,0-2.27-0.6-2.27-1.9C764.26,253.29,765.12,252.57,766.46,252.57z"/>
	<rect x="771.99" y="260.98" width="2.93" height="3.38"/>
	<rect x="761.93" y="261" width="9.19" height="3.34"/>
	<path d="M773.66,267.68l-1.2-0.31c-0.85-0.23-1.34-0.51-1.48-1.44l-0.1-0.68h-2.06v1.24h-4.33c-2.16,0-2.8,1.46-2.8,3.01
		c0,1.26,0.31,2.06,0.82,2.76h2.16c-0.23-0.56-0.31-1.01-0.31-1.42c0-0.68,0.31-1.05,1.09-1.05h3.36v2.39h2.31v-2.39h2.54V267.68z"
		/>
	<path d="M764.63,282.13h3.13c2.56,0,3.61-1.79,3.61-4.23c0-2.76-1.4-4.27-3.42-4.56l-0.21,3.09c0.68,0.14,1.15,0.51,1.15,1.26
		c0,0.8-0.45,1.15-1.22,1.15h-0.14l-0.43-2.58c-0.35-2-1.11-3.28-2.89-3.28c-1.57,0-2.49,1.18-2.49,2.97c0,1.46,0.56,2.51,1.63,3.05
		c-1.05,0.31-1.63,1.2-1.63,2.33c0,0.95,0.27,1.61,0.6,2.08h1.77c-0.1-0.27-0.14-0.47-0.14-0.74
		C763.95,282.33,764.16,282.13,764.63,282.13z M763.87,277.14c0-0.56,0.31-0.93,0.78-0.93c0.6,0,0.84,0.47,1.01,1.28l0.25,1.36
		h-0.14C764.57,278.85,763.87,278.09,763.87,277.14z"/>
	<rect x="761.93" y="284.39" width="12.99" height="3.34"/>
	<rect x="761.93" y="289.55" width="9.19" height="3.34"/>
	<rect x="771.99" y="289.53" width="2.93" height="3.38"/>
	<path d="M768.26,294.22c-1.88,0-2.6,1.18-2.95,3.4l-0.21,1.36c-0.1,0.64-0.35,0.85-0.7,0.85c-0.37,0-0.64-0.39-0.64-1.13
		c0-1.01,0.43-1.63,1.2-1.75l-0.04-2.91c-2.23,0.19-3.24,2.08-3.24,4.62c0,2.62,1.11,4.27,3.05,4.27c1.79,0,2.72-1.2,3.05-3.26
		l0.31-1.79c0.04-0.31,0.21-0.56,0.51-0.56c0.41,0,0.66,0.37,0.66,1.01c0,1.03-0.41,1.61-1.07,1.73l0.08,2.74
		c1.92-0.19,3.09-1.75,3.09-4.41C771.37,295.81,770.07,294.22,768.26,294.22z"/>
	<path d="M771.37,310.41c0-1.38-0.62-2.37-1.63-2.87h1.38v-3.34h-9.19v3.34h4.51c1.38,0,2.29,0.39,2.29,1.48
		c0,1.01-0.66,1.26-1.92,1.26h-4.89v3.34h4.51c1.38,0,2.29,0.37,2.29,1.48c0,1.01-0.66,1.24-1.92,1.24h-4.89v3.34h5.77
		c1.92,0,3.67-0.74,3.67-3.28c0-1.55-0.78-2.64-1.81-3.13C770.63,312.88,771.37,312.03,771.37,310.41z"/>
	<rect x="761.93" y="323.27" width="12.99" height="3.5"/>
	<path d="M764.96,330.92l-0.04-2.91c-2.23,0.19-3.24,2.08-3.24,4.62c0,2.62,1.11,4.27,3.05,4.27c1.79,0,2.72-1.2,3.05-3.26
		l0.31-1.79c0.04-0.31,0.21-0.56,0.51-0.56c0.41,0,0.66,0.37,0.66,1.01c0,1.03-0.41,1.61-1.07,1.73l0.08,2.74
		c1.92-0.19,3.09-1.75,3.09-4.41c0-2.58-1.3-4.16-3.11-4.16c-1.88,0-2.6,1.18-2.95,3.4l-0.21,1.36c-0.1,0.64-0.35,0.85-0.7,0.85
		c-0.37,0-0.64-0.39-0.64-1.13C763.76,331.66,764.2,331.04,764.96,330.92z"/>
	<path d="M761.93,342.59l2.51,0.97v5.07l-2.51,0.97v3.73l12.99-5.17v-3.92l-12.99-5.17V342.59z M767.06,344.57l3.83,1.48v0.08
		l-3.83,1.48V344.57z"/>
	<polygon points="761.93,363.81 774.92,368.8 774.92,365.31 766.28,362.1 766.28,362.01 774.92,358.8 774.92,355.13 761.93,360.12 	
		"/>
	<rect x="771.99" y="369.68" width="2.93" height="3.38"/>
	<rect x="761.93" y="369.7" width="9.19" height="3.34"/>
	<path d="M769.49,378.19h1.63v-3.34h-9.19v3.34h4.21c1.55,0,2.12,0.76,2.12,2c0,0.64-0.12,1.13-0.39,1.59l3.15,0.21
		c0.19-0.23,0.35-0.72,0.35-1.28C771.37,379.49,770.53,378.52,769.49,378.19z"/>
	<path d="M766.22,386.25h4.91v-3.34h-5.79c-1.92,0-3.65,0.76-3.65,3.28c0,1.38,0.6,2.39,1.63,2.89h-1.38v3.34h9.19v-3.34h-4.51
		c-1.4,0-2.31-0.41-2.31-1.46C764.3,386.6,764.98,386.25,766.22,386.25z"/>
	<path d="M768.26,393.75c-1.88,0-2.6,1.17-2.95,3.4l-0.21,1.36c-0.1,0.64-0.35,0.85-0.7,0.85c-0.37,0-0.64-0.39-0.64-1.13
		c0-1.01,0.43-1.63,1.2-1.75l-0.04-2.91c-2.23,0.19-3.24,2.08-3.24,4.62c0,2.62,1.11,4.27,3.05,4.27c1.79,0,2.72-1.2,3.05-3.26
		l0.31-1.79c0.04-0.31,0.21-0.56,0.51-0.56c0.41,0,0.66,0.37,0.66,1.01c0,1.03-0.41,1.61-1.07,1.73l0.08,2.74
		c1.92-0.19,3.09-1.75,3.09-4.41C771.37,395.34,770.07,393.75,768.26,393.75z"/>
	<path d="M409.3,17.39c-74.57,0-135.23,60.66-135.23,135.23c0,74.57,60.66,135.23,135.23,135.23s135.23-60.66,135.23-135.23
		C544.53,78.05,483.87,17.39,409.3,17.39z M409.3,274.58c-67.25,0-121.97-54.71-121.97-121.97c0-6.68,0.55-13.24,1.59-19.63
		c0.35,0.56,0.74,1.11,1.18,1.64c1.96,2.38,3.23,4.84,3.87,7.52c0.8,3.35,2.93,5.96,5.99,7.34c2.74,1.24,5.58,2.3,8.43,3.15
		c7.1,2.12,12.68,5.75,17.04,11.09c1.8,2.21,2.21,4.47,1.27,7.1l-0.41,1.17c-0.42,1.18-0.84,2.36-1.27,3.53
		c-1.46,3.9-1.36,7.87,0.29,11.8c1.85,4.42,4.93,7.84,7.92,10.95c3.62,3.78,7.23,7.92,8.04,13.41c0.57,3.87,0.89,7.59,0.94,11.07
		c0.12,7.61,0.71,16.54,4.2,25.17c1.7,4.19,4.42,7.33,6.6,9.59c2.1,2.18,4.95,2.76,7.17,2.76c1.64,0,2.93-0.31,3.32-0.53l1.52-0.83
		l-0.8-3.36l-0.57-0.02c-1.57-2.5-2.49-5.26-2.95-8.8c-0.75-5.8,0.24-10.28,3.11-14.1c1.94-2.58,3.66-5.34,5.31-8l0.44-0.71
		c3.3-5.3,6.3-10.23,9.19-15.09l0.13-0.21c0.89-1.5,1.9-3.2,2.21-5.14c0.66-4.15,2.23-7.95,4.07-12.12
		c2.49-5.68,0.44-10.83-5.34-13.43c-1.29-0.58-2.61-0.96-3.88-1.33l-0.23-0.07c-0.84-0.24-1.69-0.46-2.53-0.67
		c-1.02-0.26-1.99-0.51-2.94-0.8c-2.64-0.81-3.94-2.32-4.2-4.9c-0.05-0.51-0.13-1.03-0.23-1.54c-0.9-4.53-1.86-5.37-6.42-5.56
		l-0.44-0.01c-0.28-0.01-0.56-0.01-0.85-0.05c-2.26-0.32-2.82-0.96-3.06-1.54c-1.7-4.04-4.89-6.32-9.48-6.78
		c-0.29-0.03-0.72-0.19-1.07-0.32c-3.06-1.12-6.1-1.03-9.04,0.28c-1.99,0.88-3.75,0.57-5.53-0.99c-3.01-2.64-6.01-5.63-7.58-9.63
		c-0.31-0.78-0.76-1.57-1.32-2.29c-2-2.59-4.18-2.89-6.86-0.93c-1.31,0.96-2.34,0.86-3.43-0.34c-0.86-0.95-1.28-2.05-1.2-3.17
		c0.08-1.17,0.72-2.31,1.81-3.21c1.67-1.39,3.6-2.13,5.73-2.21c3.49-0.13,6.94,0,9.87,0.15c6.26,0.32,11.39-2.03,15.22-6.96
		l0.61-0.78c0.96-1.22,1.94-2.48,2.81-3.85c3.24-5.12,7.62-8.39,13.4-9.99c2.92-0.81,5.66-2.34,7.96-3.74
		c2.98-1.81,4.81-4.85,5.15-8.56c0.6-6.59-5.8-14.57-12.45-15.52c-3.27-0.46-6.43,0.41-8.68,2.4c-2.02,1.79-3.14,4.34-3.09,7
		c0.01,0.32,0.03,1.3-1.45,2.43c-0.53,0.41-0.98,0.52-1.2,0.45c-0.18-0.06-0.37-0.35-0.5-0.75c-0.84-2.75-2.38-4.98-4.84-7.02
		c-1.16-0.96-1.22-1.33-1.22-1.34c0,0-0.01-0.41,1.08-1.7c1.63-1.92,3.95-3.06,7.1-3.47c4.23-0.55,8.34-1.27,12.03-4
		c0.57-0.42,0.92-0.68,2.33,0.7c0.3,0.29,0.59,0.59,0.88,0.89c0.63,0.65,1.27,1.32,2.03,1.94c2.55,2.08,6.19,1.74,8.66-0.82
		c2.19-2.28,2.06-5.47-0.33-7.93c-1.19-1.22-2.61-2.59-4.39-3.36c-3.55-1.52-6.49-2.53-9.23-3.17c-5.58-1.3-10.14-0.61-13.92,2.1
		c-2.12,1.52-4,1.51-6.29-0.02c-0.39-0.26-0.77-0.54-1.16-0.82c-0.83-0.6-1.68-1.23-2.67-1.75c-1.55-0.81-3.24-1.62-5.06-2
		c-0.5-0.1-1.1-0.32-1.71-0.56c21.6-19.38,50.12-31.18,81.35-31.18c32.59,0,62.24,12.85,84.14,33.75c-0.38,0.1-0.76,0.19-1.13,0.28
		c-3.72,0.88-6.33,2.77-8.23,5.92c-1.63,2.72-2.46,3.07-5.25,2.19c-5.86-1.85-11.61-1.41-17.59,1.34c-1.54,0.71-3.44,1.07-5.27,1.41
		l-0.32,0.06c-0.65,0.12-1.23-0.06-1.56-0.24c0.2-0.22,0.59-0.55,1.26-0.92c1.95-1.05,3.15-2.79,3.29-4.76
		c0.14-1.96-0.79-3.83-2.55-5.14c-2.42-1.79-5.37-2.61-8.77-2.42c-3.24,0.18-6.47,1.24-9.87,3.24l-1.42,0.83
		c-3.96,2.3-8.06,4.68-11.4,8.27c-1.41,1.51-3.26,3.91-3.1,7.33c0.04,0.91,0.22,2.23,1.34,3.14c0.82,0.67,1.91,0.91,3.23,0.7
		c1.69-0.27,3.39-0.49,5.15-0.7c-1.69,1.78-3.3,3.46-5.13,4.74c-2.54,1.78-5.47,3.25-8.3,4.67l-1.37,0.69
		c-3.32,1.68-5.46,4.08-6.55,7.35c-0.37,1.11-1.01,2.22-1.69,3.39c-0.24,0.41-0.47,0.82-0.7,1.23c-0.19,0.34-0.43,0.69-0.69,1.07
		c-0.49,0.72-1.05,1.54-1.41,2.52c-1,2.73-0.63,5.5,0.99,7.39c1.63,1.9,4.19,2.66,7.04,2.1c1.25-0.25,3.63-0.91,5.53-2.54
		c1.27-1.08,2.34-2.31,3.38-3.49c0.76-0.87,1.48-1.69,2.25-2.43l0.55-0.53c1.38-1.34,2.8-2.72,4.3-3.47
		c0.86-0.43,2.13-0.82,3.29-0.26c0.99,0.48,1.72,1.58,2.04,3.1c0.13,0.63,0.31,1.37,0.59,2.11c0.86,2.27,2.67,3.62,5.09,3.82
		c2.48,0.19,4.69-0.54,6.38-2.14c1.18-1.11,2.42-2.32,3.36-3.79c2.62-4.07,6.59-5.98,12.14-5.84c0.92,0.02,2.12,0.47,3.57,1.32
		c-0.69,0.47-1.61,0.89-2.75,1.23c-0.73,0.22-1.53,0.36-2.39,0.51c-0.79,0.14-1.61,0.28-2.45,0.5c-2.41,0.64-4.18,2.13-5.12,4.3
		c-0.79,1.84-0.54,4.11,0.63,5.8c0.93,1.34,2.3,2.1,3.78,2.1c0.01,0,0.03,0,0.04,0c0.01,0.06,0.02,0.12,0.03,0.18
		c0.11,0.66,0.22,1.42,0.15,2.04c-0.55,5.12,0.87,9.72,4.23,13.69c1.83,2.15,3.09,4.91,3.74,8.2c0.23,1.14,0.4,2.29,0.58,3.5
		c0.19,1.29,0.4,2.63,0.67,3.96c0.9,4.35,3.93,6.61,8.31,6.2c1.54-0.14,3.17-0.55,4.97-1.25c4.39-1.69,8.4-4.35,11.91-7.9
		c1.83-1.85,2.74-3.78,2.7-5.75c-0.04-1.96-1.02-3.85-2.92-5.61c-0.9-0.84-1.89-1.47-2.84-2.07c-0.29-0.18-0.58-0.37-0.87-0.56
		c-0.42-0.28-0.86-0.54-1.29-0.8c-0.53-0.32-1.03-0.62-1.48-0.94c5.03-0.75,9.44,0.89,13.49,5c2.52,2.56,4.55,5.79,6.38,10.17
		c0.4,0.97,0.76,1.95,1.14,2.99c0.53,1.46,1.07,2.97,1.77,4.45c1.1,2.32,3.14,3.84,5.47,4.06c2.29,0.2,4.55-0.86,6.02-2.89
		c1.37-1.88,2.27-3.97,3.14-6.12c0.51-1.25,0.89-2.51,1.26-3.73c0.27-0.89,0.52-1.74,0.82-2.56c0.5-1.39,0.83-1.38,1.01-1.39
		c2.09,0,3.69,0.31,4.94,0.96c0.19,2.77,0.29,5.57,0.29,8.39C531.27,219.87,476.56,274.58,409.3,274.58z"/>
</g>
</svg>
