<?xml version="1.0" encoding="utf-8"?>
<!-- Generator: Adobe Illustrator 23.1.1, SVG Export Plug-In . SVG Version: 6.00 Build 0)  -->
<svg version="1.1" xmlns="http://www.w3.org/2000/svg" xmlns:xlink="http://www.w3.org/1999/xlink" x="0px" y="0px"
	 viewBox="0 0 792 612" style="enable-background:new 0 0 792 612;" xml:space="preserve">
<style type="text/css">
	.st0{display:none;}
	.st1{display:inline;}
	
		.st2{display:inline;fill:#FFFFFF;stroke:#000000;stroke-width:16;stroke-linecap:round;stroke-linejoin:round;stroke-miterlimit:10;}
	.st3{fill:#FFFFFF;stroke:#000000;stroke-width:16;stroke-linecap:round;stroke-linejoin:round;stroke-miterlimit:10;}
	.st4{display:inline;fill:none;stroke:#000000;stroke-width:24;stroke-linejoin:round;stroke-miterlimit:10;}
	.st5{display:inline;fill:#FFFFFF;}
	.st6{fill:#FFFFFF;stroke:#000000;stroke-width:17;stroke-linecap:round;stroke-miterlimit:10;}
	.st7{fill:#FFFFFF;stroke:#000000;stroke-width:17;stroke-miterlimit:10;}
	.st8{stroke:#000000;stroke-width:16.0572;stroke-linecap:round;stroke-miterlimit:10;}
	.st9{fill:#FFFFFF;}
	.st10{fill:#FFFFFF;stroke:#000000;stroke-width:17.1072;stroke-linecap:round;stroke-linejoin:round;stroke-miterlimit:10;}
	.st11{stroke:#000000;stroke-width:17.1072;stroke-linecap:round;stroke-linejoin:round;stroke-miterlimit:10;}
	.st12{fill:#FFFFFF;stroke:#000000;stroke-width:14.7375;stroke-linecap:round;stroke-linejoin:round;stroke-miterlimit:10;}
	.st13{fill:none;stroke:#000000;stroke-width:14.7375;stroke-linecap:round;stroke-linejoin:round;stroke-miterlimit:10;}
	.st14{stroke:#000000;stroke-width:14.7375;stroke-linecap:round;stroke-linejoin:round;stroke-miterlimit:10;}
	.st15{fill:#FFFFFF;stroke:#000000;stroke-width:14.2911;stroke-linecap:round;stroke-linejoin:round;stroke-miterlimit:10;}
	.st16{fill:none;stroke:#000000;stroke-width:13.497;stroke-miterlimit:10;}
	.st17{fill:#FFFFFF;stroke:#000000;stroke-width:13.497;stroke-linecap:round;stroke-linejoin:round;stroke-miterlimit:10;}
	.st18{fill:#FFFFFF;stroke:#000000;stroke-width:13.497;stroke-miterlimit:10;}
	.st19{fill:#FFFFFF;stroke:#000000;stroke-width:14.7439;stroke-linecap:round;stroke-miterlimit:10;}
	.st20{fill:#FFFFFF;stroke:#000000;stroke-width:14.7439;stroke-miterlimit:10;}
	.st21{stroke:#000000;stroke-width:13.9262;stroke-linecap:round;stroke-miterlimit:10;}
	
		.st22{display:inline;fill:#FFFFFF;stroke:#000000;stroke-width:14.6942;stroke-linecap:round;stroke-linejoin:round;stroke-miterlimit:10;}
	.st23{fill:#FFFFFF;stroke:#000000;stroke-width:14.6942;stroke-linecap:round;stroke-linejoin:round;stroke-miterlimit:10;}
	.st24{fill:none;stroke:#000000;stroke-width:24;stroke-linejoin:round;stroke-miterlimit:10;}
	.st25{fill:none;stroke:#000000;stroke-width:30.5612;stroke-linecap:round;stroke-linejoin:round;stroke-miterlimit:10;}
	.st26{fill:#FFFFFF;stroke:#000000;stroke-width:16.2993;stroke-linecap:round;stroke-linejoin:round;stroke-miterlimit:10;}
	.st27{display:inline;fill:#FFFFFF;stroke:#000000;stroke-width:13.497;stroke-linecap:round;stroke-miterlimit:10;}
	
		.st28{display:inline;fill:none;stroke:#000000;stroke-width:13.497;stroke-linecap:round;stroke-linejoin:round;stroke-miterlimit:10;}
	
		.st29{display:inline;fill:#FFFFFF;stroke:#000000;stroke-width:13.497;stroke-linecap:round;stroke-linejoin:round;stroke-miterlimit:10;}
	
		.st30{display:inline;fill:url(#);stroke:#000000;stroke-width:13.497;stroke-linecap:round;stroke-linejoin:round;stroke-miterlimit:10;}
	.st31{fill:#FFFFFF;stroke:#000000;stroke-width:15.2362;stroke-linecap:round;stroke-linejoin:round;stroke-miterlimit:10;}
	.st32{fill:#FFFFFF;stroke:#000000;stroke-width:14.8467;stroke-linecap:round;stroke-linejoin:round;stroke-miterlimit:10;}
	.st33{stroke:#000000;stroke-width:20.1683;stroke-linecap:round;stroke-miterlimit:10;}
	.st34{fill:none;stroke:#000000;stroke-width:14.8467;stroke-linecap:round;stroke-linejoin:round;stroke-miterlimit:10;}
	.st35{fill:#FFFFFF;stroke:#FFFFFF;stroke-width:3;stroke-miterlimit:10;}
	.st36{display:inline;fill:none;stroke:#000000;stroke-width:15;stroke-linecap:round;stroke-linejoin:round;stroke-miterlimit:10;}
	
		.st37{display:inline;fill:#FFFFFF;stroke:#000000;stroke-width:15;stroke-linecap:round;stroke-linejoin:round;stroke-miterlimit:10;}
	.st38{fill:#FFFFFF;stroke:#000000;stroke-width:15;stroke-linecap:round;stroke-linejoin:round;stroke-miterlimit:10;}
	.st39{fill:#FFFFFF;stroke:#000000;stroke-width:11.7326;stroke-linecap:round;stroke-linejoin:round;stroke-miterlimit:10;}
	.st40{font-family:'FoundersGrotesk-Bold';}
	.st41{font-size:142.7815px;}
	.st42{font-size:313.0793px;}
	.st43{fill:#FFFFFF;stroke:#000000;stroke-width:13.2623;stroke-linecap:round;stroke-linejoin:round;stroke-miterlimit:10;}
	.st44{fill:none;stroke:#000000;stroke-width:16;stroke-linecap:round;stroke-miterlimit:10;}
	.st45{fill:url(#);stroke:#000000;stroke-width:16;stroke-linecap:round;stroke-linejoin:round;stroke-miterlimit:10;}
	.st46{fill:#FFFFFF;stroke:#000000;stroke-width:16;stroke-linecap:round;stroke-miterlimit:10;}
	.st47{fill:#FFFFFF;stroke:#000000;stroke-width:13.2623;stroke-linecap:round;stroke-miterlimit:10;}
	.st48{stroke:#000000;stroke-width:4.5213;stroke-miterlimit:10;}
	.st49{fill:none;stroke:#000000;stroke-width:15.2344;stroke-linecap:round;stroke-linejoin:round;stroke-miterlimit:10;}
	.st50{fill:#FFFFFF;stroke:#000000;stroke-width:15.2344;stroke-linecap:round;stroke-linejoin:round;stroke-miterlimit:10;}
	.st51{stroke:#000000;stroke-width:18.3348;stroke-linecap:round;stroke-miterlimit:10;}
	.st52{fill:none;stroke:#000000;stroke-width:13.497;stroke-linecap:round;stroke-linejoin:round;stroke-miterlimit:10;}
	.st53{fill:#FFFFFF;stroke:#000000;stroke-width:15;stroke-linecap:square;stroke-linejoin:round;stroke-miterlimit:10;}
	.st54{fill:#FFFFFF;stroke:#000000;stroke-width:15;stroke-linejoin:round;stroke-miterlimit:10;}
	.st55{fill:none;stroke:#000000;stroke-width:15;stroke-linecap:round;stroke-linejoin:round;stroke-miterlimit:10;}
	.st56{fill:url(#);stroke:#000000;stroke-width:13.497;stroke-linecap:round;stroke-linejoin:round;stroke-miterlimit:10;}
	.st57{font-size:20.6105px;}
	.st58{font-size:10.3052px;}
	.st59{font-size:19.2364px;}
	.st60{font-size:10px;}
	.st61{display:inline;fill:none;stroke:#000000;stroke-width:16;stroke-linecap:round;stroke-linejoin:round;stroke-miterlimit:10;}
	.st62{fill:#FFFFFF;stroke:#000000;stroke-width:13.3058;stroke-linecap:round;stroke-linejoin:round;stroke-miterlimit:10;}
	.st63{fill:#FFFFFF;stroke:#000000;stroke-width:17;stroke-linecap:round;stroke-linejoin:round;stroke-miterlimit:10;}
	.st64{fill:#FFFFFF;stroke:#000000;stroke-width:15.2517;stroke-linecap:round;stroke-linejoin:round;stroke-miterlimit:10;}
	.st65{stroke:#000000;stroke-width:3;stroke-miterlimit:10;}
	.st66{fill:none;}
	.st67{fill:#06A6FF;}
	.st68{fill:#FF0303;}
	.st69{fill:#3DFF06;}
	.st70{fill:none;stroke:#000000;stroke-width:0;stroke-linecap:round;stroke-linejoin:round;}
</style>
<g id="Layer_1" class="st0">
	<g class="st1">
		<g>
			<text transform="matrix(1 0 0 1 29.7893 192.6521)" class="st40 st41">WE Keep Us</text>
		</g>
		<text transform="matrix(1 0 0 1 17.3369 474.4636)" class="st40 st42">SAFE</text>
	</g>
	<g class="st1">
		<g>
			<g>
				<text transform="matrix(1 0 0 1 258.9681 599.7979)"><tspan x="0" y="0" class="st40 st57">www</tspan><tspan x="45.14" y="0" class="st40 st58"> </tspan><tspan x="46.99" y="0" class="st40 st57">.</tspan><tspan x="51.77" y="0" class="st40 st58"> </tspan><tspan x="53.63" y="0" class="st40 st57">Capitalism</tspan><tspan x="150.43" y="0" class="st40 st59"> </tspan><tspan x="153.9" y="0" class="st40 st57">Is</tspan><tspan x="168.88" y="0" class="st40 st59"> </tspan><tspan x="172.34" y="0" class="st40 st57">A</tspan><tspan x="186.6" y="0" class="st40 st58"> </tspan><tspan x="188.46" y="0" class="st40 st57">Virus</tspan><tspan x="236.15" y="0" class="st40 st58"> </tspan><tspan x="238.01" y="0" class="st40 st57">.</tspan><tspan x="242.79" y="0" class="st40 st58"> </tspan><tspan x="244.64" y="0" class="st40 st57">org</tspan></text>
			</g>
			<g>
				<text transform="matrix(1 0 0 1 299.1799 22.1245)"><tspan x="0" y="0" class="st40 st57">#</tspan><tspan x="12.7" y="0" class="st40 st60"> </tspan><tspan x="14.5" y="0" class="st40 st57">Capitalism</tspan><tspan x="111.3" y="0" class="st40 st60"> </tspan><tspan x="113.1" y="0" class="st40 st57">Is</tspan><tspan x="128.09" y="0" class="st40 st60"> </tspan><tspan x="129.89" y="0" class="st40 st57">A</tspan><tspan x="144.15" y="0" class="st40 st60"> </tspan><tspan x="145.95" y="0" class="st40 st57">Virus</tspan></text>
			</g>
		</g>
	</g>
</g>
<g id="Layer_1_copy">
	<path class="st66" d="M532.8,161.24c0,9.28,5,15.28,12.85,15.28c9,0,13.14-6.42,13.14-15.71c0-9.14-4.14-15.56-13.14-15.56
		c-7.85,0-12.85,6-12.85,15.13V161.24z"/>
	<path class="st66" d="M393.45,143.82c-7.42,0-10.71,4.57-11.56,10.57h22.42C404.02,148.68,400.3,143.82,393.45,143.82z"/>
	<path class="st66" d="M467.41,143.82c-7.42,0-10.71,4.57-11.56,10.57h22.42C477.97,148.68,474.26,143.82,467.41,143.82z"/>
	<path class="st66" d="M366.21,19.4c0,0.47,0.37,0.78,0.93,0.78c0.95,0,1.71-0.7,1.71-1.9v-0.14l-1.36,0.25
		C366.69,18.56,366.21,18.81,366.21,19.4z"/>
	<path class="st66" d="M331.05,19.4c0,0.47,0.37,0.78,0.93,0.78c0.95,0,1.71-0.7,1.71-1.9v-0.14l-1.36,0.25
		C331.53,18.56,331.05,18.81,331.05,19.4z"/>
	<path class="st66" d="M342.57,17.59c0,1.34,0.72,2.21,1.86,2.21c1.3,0,1.9-0.93,1.9-2.27c0-1.32-0.6-2.25-1.9-2.25
		c-1.13,0-1.86,0.87-1.86,2.19V17.59z"/>
	<polygon class="st66" points="304.4,16.64 306.17,16.64 306.66,14.62 304.89,14.62 	"/>
	<polygon class="st66" points="436.14,13.16 436.05,13.16 434.57,16.99 437.62,16.99 	"/>
	<polygon class="st66" points="438.43,590.83 438.35,590.83 436.87,594.67 439.92,594.67 	"/>
	<polygon class="st66" points="310.06,338.27 287.52,396.51 333.86,396.51 311.32,338.27 	"/>
	<path class="st66" d="M341.54,595.26c0,1.34,0.72,2.21,1.85,2.21c1.3,0,1.9-0.93,1.9-2.27c0-1.32-0.6-2.25-1.9-2.25
		c-1.13,0-1.85,0.87-1.85,2.18V595.26z"/>
	<path class="st66" d="M365.18,597.08c0,0.47,0.37,0.78,0.93,0.78c0.95,0,1.71-0.7,1.71-1.9v-0.14l-1.36,0.25
		C365.66,596.23,365.18,596.48,365.18,597.08z"/>
	<path class="st66" d="M330.02,597.08c0,0.47,0.37,0.78,0.93,0.78c0.95,0,1.71-0.7,1.71-1.9v-0.14l-1.36,0.25
		C330.5,596.23,330.02,596.48,330.02,597.08z"/>
	<path class="st66" d="M527.51,601.61c1.55,0,2.68-0.31,2.68-0.87c0-0.39-0.29-0.54-0.85-0.54h-3.38c-0.37,0-0.62,0.21-0.62,0.56
		C525.35,601.43,526.27,601.61,527.51,601.61z"/>
	<path class="st66" d="M527.76,594.85c0.56,0,0.97-0.52,0.97-1.34c0-0.8-0.41-1.32-0.97-1.32s-0.97,0.52-0.97,1.32
		C526.79,594.33,527.2,594.85,527.76,594.85z"/>
	<path class="st66" d="M507.44,595.2c0,1.38,0.49,2.33,1.67,2.33c1.15,0,1.67-0.95,1.67-2.33c0-1.38-0.52-2.33-1.67-2.33
		C507.93,592.87,507.44,593.82,507.44,595.2z"/>
	<polygon points="121.74,159.1 121.17,159.1 106.32,102.7 84.47,102.7 69.62,159.1 69.05,159.1 54.78,102.7 30.5,102.7 
		54.06,192.65 79.48,192.65 94.47,135.83 95.04,135.83 110.03,192.65 135.87,192.65 159.43,102.7 136.02,102.7 	"/>
	<polygon points="237.11,172.66 190.13,172.66 190.13,157.1 225.4,157.1 225.4,137.4 190.13,137.4 190.13,122.69 235.82,122.69 
		235.82,102.7 166.29,102.7 166.29,192.65 237.11,192.65 	"/>
	<polygon points="297.93,165.38 305.78,156.82 330.77,192.65 359.75,192.65 323.34,140.97 358.04,102.7 330.2,102.7 297.93,139.11 
		297.93,102.7 273.66,102.7 273.66,192.65 297.93,192.65 	"/>
	<path d="M394.02,194.37c16.85,0,28.56-8.14,31.84-22.7l-18.56-1.71c-2.14,5-6.14,7.14-12.42,7.14c-7,0-12.71-3.71-13.28-11.57
		h44.69v-6.42c0-17.28-11.28-31.84-32.55-31.84c-19.85,0-34.69,14.42-34.69,34.55C359.04,182.09,373.6,194.37,394.02,194.37z
		 M393.45,143.82c6.85,0,10.57,4.85,10.85,10.57h-22.42C382.74,148.39,386.03,143.82,393.45,143.82z"/>
	<path d="M500.25,159.1c0-17.28-11.28-31.84-32.55-31.84c-19.85,0-34.69,14.42-34.69,34.55c0,20.27,14.56,32.55,34.98,32.55
		c16.85,0,28.56-8.14,31.84-22.7l-18.56-1.71c-2.14,5-6.14,7.14-12.42,7.14c-7,0-12.71-3.71-13.28-11.57h44.69V159.1z
		 M455.84,154.39c0.86-6,4.14-10.57,11.56-10.57c6.85,0,10.57,4.85,10.85,10.57H455.84z"/>
	<path d="M509.67,128.97v86.52h23.13v-33.7c3.14,7.42,10.28,12.56,20.99,12.56c18.7,0,28.27-14.71,28.27-33.55
		c0-18.7-9.57-33.55-28.27-33.55c-10.71,0-17.85,5.14-20.99,12.71v-10.99H509.67z M545.65,145.25c9,0,13.14,6.42,13.14,15.56
		c0,9.28-4.14,15.71-13.14,15.71c-7.85,0-12.85-6-12.85-15.28v-0.86C532.8,151.25,537.8,145.25,545.65,145.25z"/>
	<path d="M616.9,102.7v54.25c0,26.27,17.7,37.41,40.83,37.41s40.98-11.14,40.98-37.41V102.7h-24.27v50.26
		c0,13.71-4.14,20.99-16.71,20.99c-12.42,0-16.7-7.28-16.7-20.99V102.7H616.9z"/>
	<path d="M745.54,152.1l-12.42-2.14c-2.14-0.29-3.85-1.43-3.85-3.57c0-2.86,2.57-4.57,7-4.57c7.14,0,11.14,2.86,11.99,7.42
		l18.99-0.57c-1.29-13.28-12.14-21.42-30.55-21.42c-17.85,0-28.84,9-28.84,21.56c0,12.99,8.14,17.99,23.56,20.42l9.42,1.43
		c4.43,0.71,5.85,2.43,5.85,4.85c0,2.57-2.71,4.43-7.85,4.43c-7,0-11.28-3-12.14-8.28l-20.13,0.29
		c1.29,15.42,14.42,22.42,31.98,22.42c18.13,0,29.55-7.71,29.55-21.13C768.1,160.81,759.82,154.39,745.54,152.1z"/>
	<path d="M118.46,478.22c46.02,0,82.34-20.98,82.34-62.93c0-32.25-18.78-53.85-60.11-61.05l-37.26-6.57
		c-12.21-2.19-19.72-5.64-19.72-14.71c0-10.96,10.02-17.85,27.55-17.85c20.35,0,35.07,9.39,36.63,29.74l48.84-0.94
		c-0.94-43.83-30.37-70.44-84.84-70.44c-49.15,0-80.46,24.11-80.46,64.18c0,34.44,22.54,52.6,54.79,58.55l36,6.26
		c15.03,2.82,26.61,4.7,26.61,16.28c0,10.96-11.9,17.53-30.37,17.53c-21.92,0-41.01-8.45-42.89-33.19l-48.84,1.57
		C26.73,452.24,64.92,478.22,118.46,478.22z"/>
	<path d="M342,277.22h-59.48l-78.58,197.24h53.54l14.71-38.2h77.02l14.71,38.2h56.67L342,277.22z M287.52,396.51l22.54-58.23h1.25
		l22.54,58.23H287.52z"/>
	<polygon points="584.63,321.05 584.63,277.22 435.6,277.22 435.6,474.46 488.83,474.46 488.83,402.14 560.84,402.14 560.84,358.94 
		488.83,358.94 488.83,321.05 	"/>
	<polygon points="762.77,430.63 659.77,430.63 659.77,396.51 737.1,396.51 737.1,353.3 659.77,353.3 659.77,321.05 759.95,321.05 
		759.95,277.22 607.48,277.22 607.48,474.46 762.77,474.46 	"/>
	<polygon points="299.46,595.82 298.12,590.6 295.46,590.6 294.12,595.82 294.04,595.82 292.39,590.6 289.16,590.6 289.07,590.6 
		286.15,590.6 284.5,595.82 284.41,595.82 283.07,590.6 280.41,590.6 279.07,595.82 278.99,595.82 277.34,590.6 274.11,590.6 
		274.02,590.6 271.1,590.6 269.45,595.82 269.37,595.82 268.03,590.6 265.37,590.6 264.03,595.82 263.95,595.82 262.3,590.6 
		258.98,590.6 261.88,599.8 265.16,599.8 266.5,594.6 266.58,594.6 267.92,599.8 271.2,599.8 274.07,590.74 276.93,599.8 
		280.21,599.8 281.55,594.6 281.63,594.6 282.97,599.8 286.25,599.8 289.11,590.74 291.98,599.8 295.25,599.8 296.59,594.6 
		296.68,594.6 298.02,599.8 301.29,599.8 304.2,590.6 301.19,590.6 299.54,595.82 	"/>
	<rect x="306.63" y="596.25" width="3.55" height="3.55"/>
	<path d="M319.7,589.68c2.02,0,2.8,1.34,3.01,2.78l3.36-0.12c-0.25-3.24-2.37-5.77-6.35-5.77c-3.79,0-6.66,2.74-6.66,6.74
		c0,4,2.87,6.74,6.66,6.74c3.98,0,6.1-2.51,6.35-5.75l-3.36-0.14c-0.21,1.44-0.99,2.78-3.01,2.78c-1.92,0-3.03-1.42-3.03-3.63
		C316.67,591.1,317.78,589.68,319.7,589.68z"/>
	<path d="M330.08,594.62c-2,0.35-3.28,1.11-3.28,2.89c0,1.57,1.18,2.49,2.97,2.49c1.46,0,2.51-0.56,3.05-1.63
		c0.31,1.05,1.2,1.63,2.33,1.63c0.95,0,1.61-0.27,2.08-0.6v-1.77c-0.27,0.1-0.47,0.14-0.74,0.14c-0.35,0-0.56-0.21-0.56-0.68v-3.13
		c0-2.56-1.79-3.61-4.23-3.61c-2.76,0-4.27,1.4-4.56,3.42l3.09,0.21c0.14-0.68,0.52-1.15,1.26-1.15c0.8,0,1.15,0.45,1.15,1.22v0.14
		L330.08,594.62z M332.66,595.96c0,1.2-0.76,1.9-1.71,1.9c-0.56,0-0.93-0.31-0.93-0.78c0-0.6,0.47-0.84,1.28-1.01l1.36-0.25V595.96z
		"/>
	<path d="M338.2,590.6v12.49h3.34v-4.86c0.45,1.07,1.48,1.81,3.03,1.81c2.7,0,4.08-2.12,4.08-4.84c0-2.7-1.38-4.84-4.08-4.84
		c-1.55,0-2.58,0.74-3.03,1.83v-1.59H338.2z M343.4,592.95c1.3,0,1.9,0.93,1.9,2.25c0,1.34-0.6,2.27-1.9,2.27
		c-1.13,0-1.85-0.87-1.85-2.21v-0.12C341.54,593.82,342.27,592.95,343.4,592.95z"/>
	<rect x="349.97" y="590.6" width="3.34" height="9.19"/>
	<rect x="349.95" y="586.81" width="3.38" height="2.93"/>
	<path d="M358.46,600.04c1.26,0,2.06-0.31,2.76-0.82v-2.16c-0.56,0.23-1.01,0.31-1.42,0.31c-0.68,0-1.05-0.31-1.05-1.09v-3.36h2.39
		v-2.31h-2.39v-2.54h-2.1l-0.31,1.2c-0.23,0.85-0.52,1.34-1.44,1.48l-0.68,0.1v2.06h1.24v4.33
		C355.46,599.41,356.92,600.04,358.46,600.04z"/>
	<path d="M365.25,594.62c-2,0.35-3.28,1.11-3.28,2.89c0,1.57,1.17,2.49,2.97,2.49c1.46,0,2.51-0.56,3.05-1.63
		c0.31,1.05,1.2,1.63,2.33,1.63c0.95,0,1.61-0.27,2.08-0.6v-1.77c-0.27,0.1-0.47,0.14-0.74,0.14c-0.35,0-0.56-0.21-0.56-0.68v-3.13
		c0-2.56-1.79-3.61-4.23-3.61c-2.76,0-4.27,1.4-4.56,3.42l3.09,0.21c0.14-0.68,0.52-1.15,1.26-1.15c0.8,0,1.15,0.45,1.15,1.22v0.14
		L365.25,594.62z M367.82,595.96c0,1.2-0.76,1.9-1.71,1.9c-0.56,0-0.93-0.31-0.93-0.78c0-0.6,0.47-0.84,1.28-1.01l1.36-0.25V595.96z
		"/>
	<rect x="373.37" y="586.81" width="3.34" height="12.99"/>
	<rect x="378.52" y="590.6" width="3.34" height="9.19"/>
	<rect x="378.5" y="586.81" width="3.38" height="2.93"/>
	<path d="M387.67,597.96c-1.01,0-1.63-0.43-1.75-1.2l-2.91,0.04c0.19,2.23,2.08,3.24,4.62,3.24c2.62,0,4.27-1.11,4.27-3.05
		c0-1.79-1.2-2.72-3.26-3.05l-1.79-0.31c-0.31-0.04-0.56-0.21-0.56-0.51c0-0.41,0.37-0.66,1.01-0.66c1.03,0,1.61,0.41,1.73,1.07
		l2.74-0.08c-0.19-1.92-1.75-3.09-4.41-3.09c-2.58,0-4.16,1.3-4.16,3.11c0,1.88,1.17,2.6,3.4,2.95l1.36,0.21
		c0.64,0.1,0.85,0.35,0.85,0.7C388.8,597.7,388.41,597.96,387.67,597.96z"/>
	<path d="M396.51,595.28c0-1.38,0.39-2.29,1.48-2.29c1.01,0,1.26,0.66,1.26,1.92v4.89h3.34v-4.51c0-1.38,0.37-2.29,1.48-2.29
		c1.01,0,1.24,0.66,1.24,1.92v4.89h3.34v-5.77c0-1.92-0.74-3.67-3.28-3.67c-1.55,0-2.64,0.78-3.13,1.81
		c-0.39-1.07-1.24-1.81-2.87-1.81c-1.38,0-2.37,0.62-2.87,1.63v-1.38h-3.34v9.19h3.34V595.28z"/>
	<rect x="413.91" y="586.81" width="3.5" height="12.99"/>
	<path d="M427.53,596.99c0-1.79-1.2-2.72-3.26-3.05l-1.79-0.31c-0.31-0.04-0.56-0.21-0.56-0.51c0-0.41,0.37-0.66,1.01-0.66
		c1.03,0,1.61,0.41,1.73,1.07l2.74-0.08c-0.19-1.92-1.75-3.09-4.41-3.09c-2.58,0-4.16,1.3-4.16,3.11c0,1.88,1.17,2.6,3.4,2.95
		l1.36,0.21c0.64,0.1,0.84,0.35,0.84,0.7c0,0.37-0.39,0.64-1.13,0.64c-1.01,0-1.63-0.43-1.75-1.2l-2.91,0.04
		c0.19,2.23,2.08,3.24,4.62,3.24C425.88,600.04,427.53,598.93,427.53,596.99z"/>
	<path d="M435.86,597.28h5.07l0.97,2.51h3.73l-5.17-12.99h-3.92l-5.17,12.99h3.53L435.86,597.28z M438.35,590.83h0.08l1.48,3.83
		h-3.05L438.35,590.83z"/>
	<polygon points="454.36,595.45 451.15,586.81 447.48,586.81 452.47,599.8 456.16,599.8 461.15,586.81 457.66,586.81 454.45,595.45 
			"/>
	<rect x="462.05" y="590.6" width="3.34" height="9.19"/>
	<rect x="462.03" y="586.81" width="3.38" height="2.93"/>
	<path d="M467.2,590.6v9.19h3.34v-4.21c0-1.55,0.76-2.12,2-2.12c0.64,0,1.13,0.12,1.59,0.39l0.21-3.15
		c-0.23-0.19-0.72-0.35-1.28-0.35c-1.22,0-2.19,0.84-2.52,1.88v-1.63H467.2z"/>
	<path d="M484.77,599.8v-9.19h-3.34v4.51c0,1.4-0.41,2.31-1.46,2.31c-1.01,0-1.36-0.68-1.36-1.92v-4.91h-3.34v5.79
		c0,1.92,0.76,3.65,3.28,3.65c1.38,0,2.39-0.6,2.89-1.63v1.38H484.77z"/>
	<path d="M490.58,597.96c-1.01,0-1.63-0.43-1.75-1.2l-2.91,0.04c0.19,2.23,2.08,3.24,4.62,3.24c2.62,0,4.27-1.11,4.27-3.05
		c0-1.79-1.2-2.72-3.26-3.05l-1.79-0.31c-0.31-0.04-0.56-0.21-0.56-0.51c0-0.41,0.37-0.66,1.01-0.66c1.03,0,1.61,0.41,1.73,1.07
		l2.74-0.08c-0.19-1.92-1.75-3.09-4.41-3.09c-2.58,0-4.16,1.3-4.16,3.11c0,1.88,1.18,2.6,3.4,2.95l1.36,0.21
		c0.64,0.1,0.84,0.35,0.84,0.7C491.71,597.7,491.32,597.96,490.58,597.96z"/>
	<rect x="497.64" y="596.25" width="3.55" height="3.55"/>
	<path d="M504.08,595.2c0,2.87,2.02,4.84,5.03,4.84c2.99,0,5.03-1.98,5.03-4.84c0-2.85-2.04-4.84-5.03-4.84
		C506.1,590.36,504.08,592.36,504.08,595.2z M510.77,595.2c0,1.38-0.52,2.33-1.67,2.33c-1.18,0-1.67-0.95-1.67-2.33
		c0-1.38,0.49-2.33,1.67-2.33C510.26,592.87,510.77,593.82,510.77,595.2z"/>
	<path d="M515.45,590.6v9.19h3.34v-4.21c0-1.55,0.76-2.12,2-2.12c0.64,0,1.13,0.12,1.59,0.39l0.21-3.15
		c-0.23-0.19-0.72-0.35-1.28-0.35c-1.22,0-2.19,0.84-2.51,1.88v-1.63H515.45z"/>
	<path d="M522.6,601.1c0,1.73,2.27,2.25,4.89,2.25c2.99,0,5.77-1.05,5.77-3.34c0-1.55-1.05-2.64-3.13-2.64h-3.81
		c-0.56,0-0.78-0.25-0.78-0.56c0-0.19,0.06-0.33,0.19-0.43c0.6,0.19,1.26,0.27,2,0.27c2.6,0,4.47-1.2,4.47-3.13
		c0-0.43-0.1-0.83-0.29-1.17c0.45-0.1,0.95-0.14,1.34-0.14v-2.52c-1.01,0-2.02,0.66-2.58,1.42c-0.78-0.47-1.83-0.74-2.95-0.74
		c-2.58,0-4.43,1.2-4.43,3.15c0,1.01,0.5,1.79,1.32,2.33c-0.99,0.37-1.57,1.05-1.57,1.94c0,0.78,0.49,1.53,1.32,1.79
		C523.33,599.65,522.6,600.29,522.6,601.1z M527.76,592.19c0.56,0,0.97,0.52,0.97,1.32c0,0.82-0.41,1.34-0.97,1.34
		s-0.97-0.52-0.97-1.34C526.79,592.71,527.2,592.19,527.76,592.19z M525.96,600.21h3.38c0.56,0,0.85,0.14,0.85,0.54
		c0,0.56-1.13,0.87-2.68,0.87c-1.24,0-2.16-0.18-2.16-0.84C525.35,600.42,525.59,600.21,525.96,600.21z"/>
	<path d="M311.03,14.62l0.43-2.06h-1.83l0.82-3.42h-2.49l-0.82,3.42h-1.77l0.82-3.42h-2.49l-0.82,3.42h-2.02l-0.43,2.06h1.98
		l-0.49,2.02h-1.88l-0.43,2.06h1.81l-0.8,3.42h2.49l0.8-3.42h1.77l-0.8,3.42h2.49l0.8-3.42h2.04l0.43-2.06h-1.98l0.49-2.02H311.03z
		 M306.17,16.64h-1.77l0.49-2.02h1.77L306.17,16.64z"/>
	<path d="M320.73,12c2.02,0,2.8,1.34,3.01,2.78l3.36-0.12c-0.25-3.24-2.37-5.77-6.35-5.77c-3.79,0-6.66,2.74-6.66,6.74
		s2.87,6.74,6.66,6.74c3.98,0,6.1-2.51,6.35-5.75l-3.36-0.14c-0.21,1.44-0.99,2.78-3.01,2.78c-1.92,0-3.03-1.42-3.03-3.63
		S318.81,12,320.73,12z"/>
	<path d="M331.11,16.95c-2,0.35-3.28,1.11-3.28,2.89c0,1.57,1.18,2.49,2.97,2.49c1.46,0,2.51-0.56,3.05-1.63
		c0.31,1.05,1.2,1.63,2.33,1.63c0.95,0,1.61-0.27,2.08-0.6v-1.77c-0.27,0.1-0.47,0.14-0.74,0.14c-0.35,0-0.56-0.21-0.56-0.68v-3.13
		c0-2.56-1.79-3.61-4.23-3.61c-2.76,0-4.27,1.4-4.56,3.42l3.09,0.21c0.14-0.68,0.52-1.16,1.26-1.16c0.8,0,1.15,0.45,1.15,1.22v0.14
		L331.11,16.95z M333.69,18.29c0,1.2-0.76,1.9-1.71,1.9c-0.56,0-0.93-0.31-0.93-0.78c0-0.6,0.47-0.84,1.28-1.01l1.36-0.25V18.29z"/>
	<path d="M339.23,12.93v12.49h3.34v-4.87c0.45,1.07,1.48,1.81,3.03,1.81c2.7,0,4.08-2.12,4.08-4.84c0-2.7-1.38-4.84-4.08-4.84
		c-1.55,0-2.58,0.74-3.03,1.83v-1.59H339.23z M344.43,15.28c1.3,0,1.9,0.93,1.9,2.25c0,1.34-0.6,2.27-1.9,2.27
		c-1.13,0-1.86-0.87-1.86-2.21v-0.12C342.57,16.15,343.29,15.28,344.43,15.28z"/>
	<rect x="351" y="12.93" width="3.34" height="9.19"/>
	<rect x="350.98" y="9.14" width="3.38" height="2.93"/>
	<path d="M362.17,15.24v-2.31h-2.39v-2.54h-2.1l-0.31,1.2c-0.23,0.85-0.52,1.34-1.44,1.48l-0.68,0.1v2.06h1.24v4.33
		c0,2.16,1.46,2.8,3.01,2.8c1.26,0,2.06-0.31,2.76-0.83v-2.16c-0.56,0.23-1.01,0.31-1.42,0.31c-0.68,0-1.05-0.31-1.05-1.09v-3.36
		H362.17z"/>
	<path d="M366.27,16.95c-2,0.35-3.28,1.11-3.28,2.89c0,1.57,1.17,2.49,2.97,2.49c1.46,0,2.51-0.56,3.05-1.63
		c0.31,1.05,1.2,1.63,2.33,1.63c0.95,0,1.61-0.27,2.08-0.6v-1.77c-0.27,0.1-0.47,0.14-0.74,0.14c-0.35,0-0.56-0.21-0.56-0.68v-3.13
		c0-2.56-1.79-3.61-4.23-3.61c-2.76,0-4.27,1.4-4.56,3.42l3.09,0.21c0.14-0.68,0.52-1.16,1.26-1.16c0.8,0,1.15,0.45,1.15,1.22v0.14
		L366.27,16.95z M368.85,18.29c0,1.2-0.76,1.9-1.71,1.9c-0.56,0-0.93-0.31-0.93-0.78c0-0.6,0.47-0.84,1.28-1.01l1.36-0.25V18.29z"/>
	<rect x="374.39" y="9.14" width="3.34" height="12.99"/>
	<rect x="379.55" y="12.93" width="3.34" height="9.19"/>
	<rect x="379.53" y="9.14" width="3.38" height="2.93"/>
	<path d="M388.7,20.29c-1.01,0-1.63-0.43-1.75-1.2l-2.91,0.04c0.19,2.23,2.08,3.24,4.62,3.24c2.62,0,4.27-1.11,4.27-3.05
		c0-1.79-1.2-2.72-3.26-3.05l-1.79-0.31c-0.31-0.04-0.56-0.21-0.56-0.52c0-0.41,0.37-0.66,1.01-0.66c1.03,0,1.61,0.41,1.73,1.07
		l2.74-0.08c-0.19-1.92-1.75-3.09-4.41-3.09c-2.58,0-4.16,1.3-4.16,3.11c0,1.88,1.17,2.6,3.4,2.95l1.36,0.21
		c0.64,0.1,0.85,0.35,0.85,0.7C389.83,20.02,389.44,20.29,388.7,20.29z"/>
	<path d="M394.2,12.93v9.19h3.34v-4.52c0-1.38,0.39-2.29,1.48-2.29c1.01,0,1.26,0.66,1.26,1.92v4.89h3.34v-4.52
		c0-1.38,0.37-2.29,1.48-2.29c1.01,0,1.24,0.66,1.24,1.92v4.89h3.34v-5.77c0-1.92-0.74-3.67-3.28-3.67c-1.55,0-2.64,0.78-3.13,1.81
		c-0.39-1.07-1.24-1.81-2.87-1.81c-1.38,0-2.37,0.62-2.87,1.63v-1.38H394.2z"/>
	<rect x="413.27" y="9.14" width="3.5" height="12.99"/>
	<path d="M422.67,20.29c-1.01,0-1.63-0.43-1.75-1.2l-2.91,0.04c0.19,2.23,2.08,3.24,4.62,3.24c2.62,0,4.27-1.11,4.27-3.05
		c0-1.79-1.2-2.72-3.26-3.05l-1.79-0.31c-0.31-0.04-0.56-0.21-0.56-0.52c0-0.41,0.37-0.66,1.01-0.66c1.03,0,1.61,0.41,1.73,1.07
		l2.74-0.08c-0.19-1.92-1.75-3.09-4.41-3.09c-2.58,0-4.16,1.3-4.16,3.11c0,1.88,1.17,2.6,3.4,2.95l1.36,0.21
		c0.64,0.1,0.85,0.35,0.85,0.7C423.8,20.02,423.41,20.29,422.67,20.29z"/>
	<path d="M433.56,19.61h5.07l0.97,2.52h3.73l-5.17-12.99h-3.92l-5.17,12.99h3.53L433.56,19.61z M436.05,13.16h0.08l1.48,3.83h-3.05
		L436.05,13.16z"/>
	<polygon points="458.8,9.14 455.31,9.14 452.1,17.78 452.01,17.78 448.8,9.14 445.13,9.14 450.12,22.12 453.81,22.12 	"/>
	<rect x="459.7" y="12.93" width="3.34" height="9.19"/>
	<rect x="459.68" y="9.14" width="3.38" height="2.93"/>
	<path d="M464.85,12.93v9.19h3.34v-4.21c0-1.55,0.76-2.12,2-2.12c0.64,0,1.13,0.12,1.59,0.39l0.21-3.15
		c-0.23-0.19-0.72-0.35-1.28-0.35c-1.22,0-2.19,0.84-2.52,1.88v-1.63H464.85z"/>
	<path d="M472.91,12.93v5.79c0,1.92,0.76,3.65,3.28,3.65c1.38,0,2.39-0.6,2.89-1.63v1.38h3.34v-9.19h-3.34v4.51
		c0,1.4-0.41,2.31-1.46,2.31c-1.01,0-1.36-0.68-1.36-1.92v-4.91H472.91z"/>
	<path d="M488.22,20.29c-1.01,0-1.63-0.43-1.75-1.2l-2.91,0.04c0.19,2.23,2.08,3.24,4.62,3.24c2.62,0,4.27-1.11,4.27-3.05
		c0-1.79-1.2-2.72-3.26-3.05l-1.79-0.31c-0.31-0.04-0.56-0.21-0.56-0.52c0-0.41,0.37-0.66,1.01-0.66c1.03,0,1.61,0.41,1.73,1.07
		l2.74-0.08c-0.19-1.92-1.75-3.09-4.41-3.09c-2.58,0-4.16,1.3-4.16,3.11c0,1.88,1.18,2.6,3.4,2.95l1.36,0.21
		c0.64,0.1,0.84,0.35,0.84,0.7C489.36,20.02,488.97,20.29,488.22,20.29z"/>
</g>
</svg>
