<?xml version="1.0" encoding="utf-8"?>
<!-- Generator: Adobe Illustrator 23.1.1, SVG Export Plug-In . SVG Version: 6.00 Build 0)  -->
<svg version="1.1" xmlns="http://www.w3.org/2000/svg" xmlns:xlink="http://www.w3.org/1999/xlink" x="0px" y="0px"
	 viewBox="0 0 792 612" style="enable-background:new 0 0 792 612;" xml:space="preserve">
<style type="text/css">
	.st0{display:none;}
	.st1{display:inline;}
	
		.st2{display:inline;fill:#FFFFFF;stroke:#000000;stroke-width:16;stroke-linecap:round;stroke-linejoin:round;stroke-miterlimit:10;}
	.st3{fill:#FFFFFF;stroke:#000000;stroke-width:16;stroke-linecap:round;stroke-linejoin:round;stroke-miterlimit:10;}
	.st4{display:inline;fill:none;stroke:#000000;stroke-width:24;stroke-linejoin:round;stroke-miterlimit:10;}
	.st5{display:inline;fill:#FFFFFF;}
	.st6{fill:#FFFFFF;stroke:#000000;stroke-width:17;stroke-linecap:round;stroke-miterlimit:10;}
	.st7{fill:#FFFFFF;stroke:#000000;stroke-width:17;stroke-miterlimit:10;}
	.st8{stroke:#000000;stroke-width:16.0572;stroke-linecap:round;stroke-miterlimit:10;}
	.st9{fill:#FFFFFF;}
	.st10{fill:#FFFFFF;stroke:#000000;stroke-width:17.1072;stroke-linecap:round;stroke-linejoin:round;stroke-miterlimit:10;}
	.st11{stroke:#000000;stroke-width:17.1072;stroke-linecap:round;stroke-linejoin:round;stroke-miterlimit:10;}
	.st12{fill:#FFFFFF;stroke:#000000;stroke-width:14.7375;stroke-linecap:round;stroke-linejoin:round;stroke-miterlimit:10;}
	.st13{fill:none;stroke:#000000;stroke-width:14.7375;stroke-linecap:round;stroke-linejoin:round;stroke-miterlimit:10;}
	.st14{stroke:#000000;stroke-width:14.7375;stroke-linecap:round;stroke-linejoin:round;stroke-miterlimit:10;}
	.st15{fill:#FFFFFF;stroke:#000000;stroke-width:14.2911;stroke-linecap:round;stroke-linejoin:round;stroke-miterlimit:10;}
	.st16{fill:none;stroke:#000000;stroke-width:13.497;stroke-miterlimit:10;}
	.st17{fill:#FFFFFF;stroke:#000000;stroke-width:13.497;stroke-linecap:round;stroke-linejoin:round;stroke-miterlimit:10;}
	.st18{fill:#FFFFFF;stroke:#000000;stroke-width:13.497;stroke-miterlimit:10;}
	.st19{fill:#FFFFFF;stroke:#000000;stroke-width:14.7439;stroke-linecap:round;stroke-miterlimit:10;}
	.st20{fill:#FFFFFF;stroke:#000000;stroke-width:14.7439;stroke-miterlimit:10;}
	.st21{stroke:#000000;stroke-width:13.9262;stroke-linecap:round;stroke-miterlimit:10;}
	
		.st22{display:inline;fill:#FFFFFF;stroke:#000000;stroke-width:14.6942;stroke-linecap:round;stroke-linejoin:round;stroke-miterlimit:10;}
	.st23{fill:#FFFFFF;stroke:#000000;stroke-width:14.6942;stroke-linecap:round;stroke-linejoin:round;stroke-miterlimit:10;}
	.st24{fill:none;stroke:#000000;stroke-width:24;stroke-linejoin:round;stroke-miterlimit:10;}
	.st25{fill:none;stroke:#000000;stroke-width:30.5612;stroke-linecap:round;stroke-linejoin:round;stroke-miterlimit:10;}
	.st26{fill:#FFFFFF;stroke:#000000;stroke-width:16.2993;stroke-linecap:round;stroke-linejoin:round;stroke-miterlimit:10;}
	.st27{display:inline;fill:#FFFFFF;stroke:#000000;stroke-width:13.497;stroke-linecap:round;stroke-miterlimit:10;}
	
		.st28{display:inline;fill:none;stroke:#000000;stroke-width:13.497;stroke-linecap:round;stroke-linejoin:round;stroke-miterlimit:10;}
	
		.st29{display:inline;fill:#FFFFFF;stroke:#000000;stroke-width:13.497;stroke-linecap:round;stroke-linejoin:round;stroke-miterlimit:10;}
	
		.st30{display:inline;fill:url(#);stroke:#000000;stroke-width:13.497;stroke-linecap:round;stroke-linejoin:round;stroke-miterlimit:10;}
	.st31{fill:#FFFFFF;stroke:#000000;stroke-width:15.2362;stroke-linecap:round;stroke-linejoin:round;stroke-miterlimit:10;}
	.st32{fill:#FFFFFF;stroke:#000000;stroke-width:14.8467;stroke-linecap:round;stroke-linejoin:round;stroke-miterlimit:10;}
	.st33{stroke:#000000;stroke-width:20.1683;stroke-linecap:round;stroke-miterlimit:10;}
	.st34{fill:none;stroke:#000000;stroke-width:14.8467;stroke-linecap:round;stroke-linejoin:round;stroke-miterlimit:10;}
	.st35{fill:#FFFFFF;stroke:#FFFFFF;stroke-width:3;stroke-miterlimit:10;}
	.st36{display:inline;fill:none;stroke:#000000;stroke-width:15;stroke-linecap:round;stroke-linejoin:round;stroke-miterlimit:10;}
	
		.st37{display:inline;fill:#FFFFFF;stroke:#000000;stroke-width:15;stroke-linecap:round;stroke-linejoin:round;stroke-miterlimit:10;}
	.st38{fill:#FFFFFF;stroke:#000000;stroke-width:15;stroke-linecap:round;stroke-linejoin:round;stroke-miterlimit:10;}
	.st39{fill:#FFFFFF;stroke:#000000;stroke-width:11.7326;stroke-linecap:round;stroke-linejoin:round;stroke-miterlimit:10;}
	.st40{fill:#FFFFFF;stroke:#000000;stroke-width:13.2623;stroke-linecap:round;stroke-linejoin:round;stroke-miterlimit:10;}
	.st41{fill:none;stroke:#000000;stroke-width:16;stroke-linecap:round;stroke-miterlimit:10;}
	.st42{fill:url(#);stroke:#000000;stroke-width:16;stroke-linecap:round;stroke-linejoin:round;stroke-miterlimit:10;}
	.st43{fill:#FFFFFF;stroke:#000000;stroke-width:16;stroke-linecap:round;stroke-miterlimit:10;}
	.st44{fill:#FFFFFF;stroke:#000000;stroke-width:13.2623;stroke-linecap:round;stroke-miterlimit:10;}
	.st45{stroke:#000000;stroke-width:4.5213;stroke-miterlimit:10;}
	.st46{fill:none;stroke:#000000;stroke-width:15.2344;stroke-linecap:round;stroke-linejoin:round;stroke-miterlimit:10;}
	.st47{fill:#FFFFFF;stroke:#000000;stroke-width:15.2344;stroke-linecap:round;stroke-linejoin:round;stroke-miterlimit:10;}
	.st48{stroke:#000000;stroke-width:18.3348;stroke-linecap:round;stroke-miterlimit:10;}
	.st49{fill:none;stroke:#000000;stroke-width:13.497;stroke-linecap:round;stroke-linejoin:round;stroke-miterlimit:10;}
	.st50{fill:#FFFFFF;stroke:#000000;stroke-width:15;stroke-linecap:square;stroke-linejoin:round;stroke-miterlimit:10;}
	.st51{fill:#FFFFFF;stroke:#000000;stroke-width:15;stroke-linejoin:round;stroke-miterlimit:10;}
	.st52{fill:none;stroke:#000000;stroke-width:15;stroke-linecap:round;stroke-linejoin:round;stroke-miterlimit:10;}
	.st53{fill:url(#);stroke:#000000;stroke-width:13.497;stroke-linecap:round;stroke-linejoin:round;stroke-miterlimit:10;}
	.st54{font-family:'FoundersGrotesk-Bold';}
	.st55{font-size:20.6105px;}
	.st56{font-size:10.3052px;}
	.st57{font-size:19.2364px;}
	.st58{display:inline;fill:none;stroke:#000000;stroke-width:16;stroke-linecap:round;stroke-linejoin:round;stroke-miterlimit:10;}
	.st59{fill:#FFFFFF;stroke:#000000;stroke-width:13.3058;stroke-linecap:round;stroke-linejoin:round;stroke-miterlimit:10;}
	.st60{fill:#FFFFFF;stroke:#000000;stroke-width:17;stroke-linecap:round;stroke-linejoin:round;stroke-miterlimit:10;}
	.st61{fill:#FFFFFF;stroke:#000000;stroke-width:15.2517;stroke-linecap:round;stroke-linejoin:round;stroke-miterlimit:10;}
	.st62{stroke:#000000;stroke-width:3;stroke-miterlimit:10;}
	.st63{fill:none;}
	.st64{fill:#06A6FF;}
	.st65{fill:#FF0303;}
	.st66{fill:#3DFF06;}
	.st67{fill:none;stroke:#000000;stroke-width:0;stroke-linecap:round;stroke-linejoin:round;}
</style>
<g id="Layer_1" class="st0">
	<g class="st1">
		<g>
			<g>
				<g>
					<path class="st9" d="M686.92,175.93c0,0,42.1-16.23,50.14,29.39c8.04,45.62-8.41,62.79-19.1,70.97
						c-10.69,8.19-3.85,298.24-3.23,329.64H659.9"/>
					<g>
						<path class="st9" d="M728.06,227.34c-3.73,6.17-12.05,7.97-18.57,4.02c-6.52-3.95-8.78-12.15-5.05-18.32l24.76-40.9
							c3.73-6.17,12.05-7.97,18.57-4.02c6.52,3.95,8.78,12.15,5.05,18.32L728.06,227.34z"/>
						<path class="st9" d="M704.44,213.04c-3.73,6.17-12.05,7.97-18.57,4.02s-8.78-12.15-5.05-18.32l28.8-47.57
							c3.73-6.17,12.05-7.97,18.57-4.02s8.78,12.15,5.05,18.32L704.44,213.04z"/>
						<path class="st9" d="M657.31,184.51c-3.73,6.17-12.05,7.97-18.57,4.02c-6.52-3.95-8.78-12.15-5.05-18.32l28.8-47.57
							c3.73-6.17,12.05-7.97,18.57-4.02c6.52,3.95,8.78,12.15,5.05,18.32L657.31,184.51z"/>
						<path class="st9" d="M680.93,198.81c-3.73,6.17-12.05,7.97-18.57,4.02s-8.78-12.15-5.05-18.32l32.84-54.25
							c3.73-6.17,12.05-7.97,18.57-4.02c6.52,3.95,8.78,12.15,5.05,18.32L680.93,198.81z"/>
					</g>
				</g>
				<g>
					<path class="st39" d="M686.92,175.93c0,0,42.1-16.23,50.14,29.39c8.04,45.62-9.18,61.86-19.1,70.97
						c-21.01,19.3-1.56,112.7-1.56,327.8"/>
					<g>
						<path class="st39" d="M728.06,227.34c-3.73,6.17-12.05,7.97-18.57,4.02c-6.52-3.95-8.78-12.15-5.05-18.32l24.76-40.9
							c3.73-6.17,12.05-7.97,18.57-4.02c6.52,3.95,8.78,12.15,5.05,18.32L728.06,227.34z"/>
						<path class="st39" d="M704.44,213.04c-3.73,6.17-12.05,7.97-18.57,4.02s-8.78-12.15-5.05-18.32l28.8-47.57
							c3.73-6.17,12.05-7.97,18.57-4.02s8.78,12.15,5.05,18.32L704.44,213.04z"/>
						<path class="st39" d="M657.31,184.51c-3.73,6.17-12.05,7.97-18.57,4.02c-6.52-3.95-8.78-12.15-5.05-18.32l28.8-47.57
							c3.73-6.17,12.05-7.97,18.57-4.02c6.52,3.95,8.78,12.15,5.05,18.32L657.31,184.51z"/>
						<path class="st39" d="M680.93,198.81c-3.73,6.17-12.05,7.97-18.57,4.02s-8.78-12.15-5.05-18.32l32.84-54.25
							c3.73-6.17,12.05-7.97,18.57-4.02c6.52,3.95,8.78,12.15,5.05,18.32L680.93,198.81z"/>
					</g>
					<path class="st9" d="M624.15,605.93h68.46l-11.31-348.86c0,0,10.69-41.19-29.4-57.84c1.94-3.33,4.23-7.28,4.23-7.28
						s10.19,4.37,19.76-1.87s11.03-14.15,11.03-14.15s-35.16-16.85-41.19-19.35s-12.48,0-18.93,8.32s-27.25,34.33-26.42,50.56
						c0.83,16.23,24.97,40.57,28.92,51.8C632.18,275.45,625.88,526.92,624.15,605.93z"/>
					<path class="st39" d="M681.31,257.07c0,0,10.69-41.19-29.4-57.84c1.94-3.33,4.22-7.28,4.22-7.28s10.19,4.37,19.76-1.87
						c9.57-6.24,11.03-14.15,11.03-14.15s-35.16-16.85-41.19-19.35c-6.03-2.5-12.48,0-18.93,8.32
						c-6.45,8.32-27.25,34.33-26.42,50.56c0.83,16.23,23.13,41.4,28.92,51.8c12.15,21.84-5.14,159.77-5.14,336.82"/>
				</g>
			</g>
			<line class="st39" x1="666.41" y1="199.74" x2="674.66" y2="195.98"/>
		</g>
		<g>
			<g>
				<g>
					<path class="st9" d="M122.92,175.93c0,0,42.1-16.23,50.14,29.39c8.04,45.62-8.41,62.79-19.1,70.97s-3.85,298.24-3.23,329.64
						H95.9"/>
					<g>
						<path class="st9" d="M164.06,227.34c-3.73,6.17-12.05,7.97-18.57,4.02c-6.52-3.95-8.78-12.15-5.05-18.32l24.76-40.9
							c3.73-6.17,12.05-7.97,18.57-4.02c6.52,3.95,8.78,12.15,5.05,18.32L164.06,227.34z"/>
						<path class="st9" d="M140.44,213.04c-3.73,6.17-12.05,7.97-18.57,4.02s-8.78-12.15-5.05-18.32l28.8-47.57
							c3.73-6.17,12.05-7.97,18.57-4.02s8.78,12.15,5.05,18.32L140.44,213.04z"/>
						<path class="st9" d="M93.31,184.51c-3.73,6.17-12.05,7.97-18.57,4.02c-6.52-3.95-8.78-12.15-5.05-18.32l28.8-47.57
							c3.73-6.17,12.05-7.97,18.57-4.02c6.52,3.95,8.78,12.15,5.05,18.32L93.31,184.51z"/>
						<path class="st9" d="M116.93,198.81c-3.73,6.17-12.05,7.97-18.57,4.02s-8.78-12.15-5.05-18.32l32.84-54.25
							c3.73-6.17,12.05-7.97,18.57-4.02c6.52,3.95,8.78,12.15,5.05,18.32L116.93,198.81z"/>
					</g>
				</g>
				<g>
					<path class="st39" d="M122.92,175.93c0,0,42.1-16.23,50.14,29.39c8.04,45.62-9.18,61.86-19.1,70.97
						c-21.01,19.3-1.56,112.7-1.56,327.8"/>
					<g>
						<path class="st39" d="M164.06,227.34c-3.73,6.17-12.05,7.97-18.57,4.02c-6.52-3.95-8.78-12.15-5.05-18.32l24.76-40.9
							c3.73-6.17,12.05-7.97,18.57-4.02c6.52,3.95,8.78,12.15,5.05,18.32L164.06,227.34z"/>
						<path class="st39" d="M140.44,213.04c-3.73,6.17-12.05,7.97-18.57,4.02s-8.78-12.15-5.05-18.32l28.8-47.57
							c3.73-6.17,12.05-7.97,18.57-4.02s8.78,12.15,5.05,18.32L140.44,213.04z"/>
						<path class="st39" d="M93.31,184.51c-3.73,6.17-12.05,7.97-18.57,4.02c-6.52-3.95-8.78-12.15-5.05-18.32l28.8-47.57
							c3.73-6.17,12.05-7.97,18.57-4.02c6.52,3.95,8.78,12.15,5.05,18.32L93.31,184.51z"/>
						<path class="st39" d="M116.93,198.81c-3.73,6.17-12.05,7.97-18.57,4.02s-8.78-12.15-5.05-18.32l32.84-54.25
							c3.73-6.17,12.05-7.97,18.57-4.02c6.52,3.95,8.78,12.15,5.05,18.32L116.93,198.81z"/>
					</g>
					<path class="st9" d="M60.15,605.93h68.46l-11.31-348.86c0,0,10.69-41.19-29.4-57.84c1.94-3.33,4.23-7.28,4.23-7.28
						s10.19,4.37,19.76-1.87s11.03-14.15,11.03-14.15s-35.16-16.85-41.19-19.35c-6.03-2.5-12.48,0-18.93,8.32
						s-27.25,34.33-26.42,50.56c0.83,16.23,24.97,40.57,28.92,51.8C68.18,275.45,61.88,526.92,60.15,605.93z"/>
					<path class="st39" d="M117.31,257.07c0,0,10.69-41.19-29.4-57.84c1.94-3.33,4.22-7.28,4.22-7.28s10.19,4.37,19.76-1.87
						s11.03-14.15,11.03-14.15s-35.16-16.85-41.19-19.35c-6.03-2.5-12.48,0-18.93,8.32c-6.45,8.32-27.25,34.33-26.42,50.56
						c0.83,16.23,23.13,41.4,28.92,51.8c12.15,21.84-5.14,159.77-5.14,336.82"/>
				</g>
			</g>
			<line class="st39" x1="102.41" y1="199.74" x2="110.66" y2="195.98"/>
		</g>
		<g>
			<g>
				<g>
					<path class="st9" d="M404.92,175.93c0,0,42.1-16.23,50.14,29.39c8.04,45.62-8.41,62.79-19.1,70.97s-3.85,298.24-3.23,329.64
						H377.9"/>
					<g>
						<path class="st9" d="M446.06,227.34c-3.73,6.17-12.05,7.97-18.57,4.02c-6.52-3.95-8.78-12.15-5.05-18.32l24.76-40.9
							c3.73-6.17,12.05-7.97,18.57-4.02c6.52,3.95,8.78,12.15,5.05,18.32L446.06,227.34z"/>
						<path class="st9" d="M422.44,213.04c-3.73,6.17-12.05,7.97-18.57,4.02s-8.78-12.15-5.05-18.32l28.8-47.57
							c3.73-6.17,12.05-7.97,18.57-4.02s8.78,12.15,5.05,18.32L422.44,213.04z"/>
						<path class="st9" d="M375.31,184.51c-3.73,6.17-12.05,7.97-18.57,4.02c-6.52-3.95-8.78-12.15-5.05-18.32l28.8-47.57
							c3.73-6.17,12.05-7.97,18.57-4.02c6.52,3.95,8.78,12.15,5.05,18.32L375.31,184.51z"/>
						<path class="st9" d="M398.93,198.81c-3.73,6.17-12.05,7.97-18.57,4.02c-6.52-3.95-8.78-12.15-5.05-18.32l32.84-54.25
							c3.73-6.17,12.05-7.97,18.57-4.02c6.52,3.95,8.78,12.15,5.05,18.32L398.93,198.81z"/>
					</g>
				</g>
				<g>
					<path class="st39" d="M404.92,175.93c0,0,42.1-16.23,50.14,29.39c8.04,45.62-9.18,61.86-19.1,70.97
						c-21.01,19.3-1.56,112.7-1.56,327.8"/>
					<g>
						<path class="st39" d="M446.06,227.34c-3.73,6.17-12.05,7.97-18.57,4.02c-6.52-3.95-8.78-12.15-5.05-18.32l24.76-40.9
							c3.73-6.17,12.05-7.97,18.57-4.02c6.52,3.95,8.78,12.15,5.05,18.32L446.06,227.34z"/>
						<path class="st39" d="M422.44,213.04c-3.73,6.17-12.05,7.97-18.57,4.02s-8.78-12.15-5.05-18.32l28.8-47.57
							c3.73-6.17,12.05-7.97,18.57-4.02s8.78,12.15,5.05,18.32L422.44,213.04z"/>
						<path class="st39" d="M375.31,184.51c-3.73,6.17-12.05,7.97-18.57,4.02c-6.52-3.95-8.78-12.15-5.05-18.32l28.8-47.57
							c3.73-6.17,12.05-7.97,18.57-4.02c6.52,3.95,8.78,12.15,5.05,18.32L375.31,184.51z"/>
						<path class="st39" d="M398.93,198.81c-3.73,6.17-12.05,7.97-18.57,4.02c-6.52-3.95-8.78-12.15-5.05-18.32l32.84-54.25
							c3.73-6.17,12.05-7.97,18.57-4.02c6.52,3.95,8.78,12.15,5.05,18.32L398.93,198.81z"/>
					</g>
					<path class="st9" d="M342.15,605.93h68.46l-11.31-348.86c0,0,10.69-41.19-29.4-57.84c1.94-3.33,4.23-7.28,4.23-7.28
						s10.19,4.37,19.76-1.87s11.03-14.15,11.03-14.15s-35.16-16.85-41.19-19.35c-6.03-2.5-12.48,0-18.93,8.32
						s-27.25,34.33-26.42,50.56c0.83,16.23,24.97,40.57,28.92,51.8C350.18,275.45,343.88,526.92,342.15,605.93z"/>
					<path class="st39" d="M399.31,257.07c0,0,10.69-41.19-29.4-57.84c1.94-3.33,4.22-7.28,4.22-7.28s10.19,4.37,19.76-1.87
						s11.03-14.15,11.03-14.15s-35.16-16.85-41.19-19.35c-6.03-2.5-12.48,0-18.93,8.32c-6.45,8.32-27.25,34.33-26.42,50.56
						c0.83,16.23,23.13,41.4,28.92,51.8c12.15,21.84-5.14,159.77-5.14,336.82"/>
				</g>
			</g>
			<line class="st39" x1="384.41" y1="199.74" x2="392.66" y2="195.98"/>
		</g>
		<g>
			<g>
				<g>
					<path class="st9" d="M545.92,295.82c0,0,42.1-16.23,50.14,29.39c8.04,45.62-8.41,62.79-19.1,70.97
						c-10.69,8.19-5.62,183.23-5,214.64H518.9"/>
					<g>
						<path class="st9" d="M587.06,347.24c-3.73,6.17-12.05,7.97-18.57,4.02c-6.52-3.95-8.78-12.15-5.05-18.32l24.76-40.9
							c3.73-6.17,12.05-7.97,18.57-4.02c6.52,3.95,8.78,12.15,5.05,18.32L587.06,347.24z"/>
						<path class="st9" d="M563.44,332.94c-3.73,6.17-12.05,7.97-18.57,4.02s-8.78-12.15-5.05-18.32l28.8-47.57
							c3.73-6.17,12.05-7.97,18.57-4.02s8.78,12.15,5.05,18.32L563.44,332.94z"/>
						<path class="st9" d="M516.31,304.4c-3.73,6.17-12.05,7.97-18.57,4.02c-6.52-3.95-8.78-12.15-5.05-18.32l28.8-47.57
							c3.73-6.17,12.05-7.97,18.57-4.02c6.52,3.95,8.78,12.15,5.05,18.32L516.31,304.4z"/>
						<path class="st9" d="M539.93,318.71c-3.73,6.17-12.05,7.97-18.57,4.02s-8.78-12.15-5.05-18.32l32.84-54.25
							c3.73-6.17,12.05-7.97,18.57-4.02c6.52,3.95,8.78,12.15,5.05,18.32L539.93,318.71z"/>
					</g>
				</g>
				<g>
					<path class="st39" d="M545.92,295.82c0,0,42.1-16.23,50.14,29.39c8.04,45.62-9.18,61.86-19.1,70.97
						c-21.01,19.3-3.75,109.36-3.33,212.79"/>
					<g>
						<path class="st39" d="M587.06,347.24c-3.73,6.17-12.05,7.97-18.57,4.02c-6.52-3.95-8.78-12.15-5.05-18.32l24.76-40.9
							c3.73-6.17,12.05-7.97,18.57-4.02c6.52,3.95,8.78,12.15,5.05,18.32L587.06,347.24z"/>
						<path class="st39" d="M563.44,332.94c-3.73,6.17-12.05,7.97-18.57,4.02s-8.78-12.15-5.05-18.32l28.8-47.57
							c3.73-6.17,12.05-7.97,18.57-4.02s8.78,12.15,5.05,18.32L563.44,332.94z"/>
						<path class="st39" d="M516.31,304.4c-3.73,6.17-12.05,7.97-18.57,4.02c-6.52-3.95-8.78-12.15-5.05-18.32l28.8-47.57
							c3.73-6.17,12.05-7.97,18.57-4.02c6.52,3.95,8.78,12.15,5.05,18.32L516.31,304.4z"/>
						<path class="st39" d="M539.93,318.71c-3.73,6.17-12.05,7.97-18.57,4.02s-8.78-12.15-5.05-18.32l32.84-54.25
							c3.73-6.17,12.05-7.97,18.57-4.02c6.52,3.95,8.78,12.15,5.05,18.32L539.93,318.71z"/>
					</g>
					<path class="st9" d="M483.15,610.82h66.69l-9.54-233.86c0,0,10.69-41.19-29.4-57.84c1.94-3.33,4.23-7.28,4.23-7.28
						s10.19,4.37,19.76-1.87c9.57-6.24,11.03-14.15,11.03-14.15s-35.16-16.85-41.19-19.35c-6.03-2.5-12.48,0-18.93,8.32
						c-6.45,8.32-27.25,34.33-26.42,50.56c0.83,16.23,24.97,40.57,28.92,51.8C491.18,395.35,484.88,531.81,483.15,610.82z"/>
					<path class="st39" d="M540.31,376.96c0,0,10.69-41.19-29.4-57.84c1.94-3.33,4.22-7.28,4.22-7.28s10.19,4.37,19.76-1.87
						c9.57-6.24,11.03-14.15,11.03-14.15s-35.16-16.85-41.19-19.35c-6.03-2.5-12.48,0-18.93,8.32
						c-6.45,8.32-27.25,34.33-26.42,50.56c0.83,16.23,23.13,41.4,28.92,51.8c12.15,21.84-7.3,118.61-5.14,221.82"/>
				</g>
			</g>
			<line class="st39" x1="525.63" y1="319.64" x2="534.29" y2="317.76"/>
		</g>
		<g>
			<g>
				<g>
					<path class="st9" d="M263.92,295.82c0,0,42.1-16.23,50.14,29.39c8.04,45.62-8.41,62.79-19.1,70.97s-5.62,183.23-5,214.64H236.9
						"/>
					<g>
						<path class="st9" d="M305.06,347.24c-3.73,6.17-12.05,7.97-18.57,4.02c-6.52-3.95-8.78-12.15-5.05-18.32l24.76-40.9
							c3.73-6.17,12.05-7.97,18.57-4.02c6.52,3.95,8.78,12.15,5.05,18.32L305.06,347.24z"/>
						<path class="st9" d="M281.44,332.94c-3.73,6.17-12.05,7.97-18.57,4.02s-8.78-12.15-5.05-18.32l28.8-47.57
							c3.73-6.17,12.05-7.97,18.57-4.02s8.78,12.15,5.05,18.32L281.44,332.94z"/>
						<path class="st9" d="M234.31,304.4c-3.73,6.17-12.05,7.97-18.57,4.02s-8.78-12.15-5.05-18.32l28.8-47.57
							c3.73-6.17,12.05-7.97,18.57-4.02c6.52,3.95,8.78,12.15,5.05,18.32L234.31,304.4z"/>
						<path class="st9" d="M257.93,318.71c-3.73,6.17-12.05,7.97-18.57,4.02c-6.52-3.95-8.78-12.15-5.05-18.32l32.84-54.25
							c3.73-6.17,12.05-7.97,18.57-4.02c6.52,3.95,8.78,12.15,5.05,18.32L257.93,318.71z"/>
					</g>
				</g>
				<g>
					<path class="st39" d="M263.92,295.82c0,0,42.1-16.23,50.14,29.39c8.04,45.62-9.18,61.86-19.1,70.97
						c-21.01,19.3-3.75,109.36-3.33,212.79"/>
					<g>
						<path class="st39" d="M305.06,347.24c-3.73,6.17-12.05,7.97-18.57,4.02c-6.52-3.95-8.78-12.15-5.05-18.32l24.76-40.9
							c3.73-6.17,12.05-7.97,18.57-4.02c6.52,3.95,8.78,12.15,5.05,18.32L305.06,347.24z"/>
						<path class="st39" d="M281.44,332.94c-3.73,6.17-12.05,7.97-18.57,4.02s-8.78-12.15-5.05-18.32l28.8-47.57
							c3.73-6.17,12.05-7.97,18.57-4.02s8.78,12.15,5.05,18.32L281.44,332.94z"/>
						<path class="st39" d="M234.31,304.4c-3.73,6.17-12.05,7.97-18.57,4.02s-8.78-12.15-5.05-18.32l28.8-47.57
							c3.73-6.17,12.05-7.97,18.57-4.02c6.52,3.95,8.78,12.15,5.05,18.32L234.31,304.4z"/>
						<path class="st39" d="M257.93,318.71c-3.73,6.17-12.05,7.97-18.57,4.02c-6.52-3.95-8.78-12.15-5.05-18.32l32.84-54.25
							c3.73-6.17,12.05-7.97,18.57-4.02c6.52,3.95,8.78,12.15,5.05,18.32L257.93,318.71z"/>
					</g>
					<path class="st9" d="M201.15,610.82h66.69l-9.54-233.86c0,0,10.69-41.19-29.4-57.84c1.94-3.33,4.23-7.28,4.23-7.28
						s10.19,4.37,19.76-1.87c9.57-6.24,11.03-14.15,11.03-14.15s-35.16-16.85-41.19-19.35c-6.03-2.5-12.48,0-18.93,8.32
						c-6.45,8.32-27.25,34.33-26.42,50.56c0.83,16.23,24.97,40.57,28.92,51.8C209.18,395.35,202.88,531.81,201.15,610.82z"/>
					<path class="st39" d="M258.31,376.96c0,0,10.69-41.19-29.4-57.84c1.94-3.33,4.22-7.28,4.22-7.28s10.19,4.37,19.76-1.87
						c9.57-6.24,11.03-14.15,11.03-14.15s-35.16-16.85-41.19-19.35c-6.03-2.5-12.48,0-18.93,8.32
						c-6.45,8.32-27.25,34.33-26.42,50.56c0.83,16.23,23.13,41.4,28.92,51.8c12.15,21.84-7.3,118.61-5.14,221.82"/>
				</g>
			</g>
			<line class="st39" x1="243.63" y1="319.64" x2="252.29" y2="317.76"/>
		</g>
	</g>
	<text transform="matrix(0 1 -1 0 761.9287 303.6926)" class="st1"><tspan x="0" y="0" class="st54 st55">www</tspan><tspan x="45.14" y="0" class="st54 st56"> </tspan><tspan x="46.99" y="0" class="st54 st55">.</tspan><tspan x="51.77" y="0" class="st54 st56"> </tspan><tspan x="53.63" y="0" class="st54 st55">Capitalism</tspan><tspan x="150.43" y="0" class="st54 st57"> </tspan><tspan x="153.9" y="0" class="st54 st55">Is</tspan><tspan x="168.88" y="0" class="st54 st57"> </tspan><tspan x="172.34" y="0" class="st54 st55">A</tspan><tspan x="186.6" y="0" class="st54 st56"> </tspan><tspan x="188.46" y="0" class="st54 st55">Virus</tspan><tspan x="236.15" y="0" class="st54 st56"> </tspan><tspan x="238.01" y="0" class="st54 st55">.</tspan><tspan x="242.79" y="0" class="st54 st56"> </tspan><tspan x="244.64" y="0" class="st54 st55">org</tspan></text>
</g>
<g id="Layer_1_copy">
	<path class="st63" d="M766.53,390.02c1.32,0,2.25-0.6,2.25-1.9c0-1.13-0.87-1.85-2.18-1.85h-0.12c-1.34,0-2.21,0.72-2.21,1.85
		C764.26,389.42,765.19,390.02,766.53,390.02z"/>
	<path class="st63" d="M765.76,412.55h0.14l-0.25-1.36c-0.17-0.8-0.41-1.28-1.01-1.28c-0.47,0-0.78,0.37-0.78,0.93
		C763.87,411.78,764.57,412.55,765.76,412.55z"/>
	<path class="st63" d="M766.53,552.16c-1.38,0-2.33,0.49-2.33,1.67c0,1.15,0.95,1.67,2.33,1.67c1.38,0,2.33-0.52,2.33-1.67
		C768.86,552.65,767.91,552.16,766.53,552.16z"/>
	<path class="st63" d="M765.76,377.39h0.14l-0.25-1.36c-0.17-0.8-0.41-1.28-1.01-1.28c-0.47,0-0.78,0.37-0.78,0.93
		C763.87,376.62,764.57,377.39,765.76,377.39z"/>
	<path class="st63" d="M768.22,571.51c-0.82,0-1.34,0.41-1.34,0.97s0.52,0.97,1.34,0.97c0.8,0,1.32-0.41,1.32-0.97
		S769.02,571.51,768.22,571.51z"/>
	<path class="st63" d="M760.96,570.07c-0.66,0-0.84,0.93-0.84,2.16c0,1.55,0.31,2.68,0.87,2.68c0.39,0,0.54-0.29,0.54-0.85v-3.38
		C761.52,570.32,761.31,570.07,760.96,570.07z"/>
	<polygon class="st63" points="767.06,484.64 770.9,483.16 770.9,483.08 767.06,481.59 	"/>
	<path d="M657.48,119.6l-18.37,30.35c-4.9,0.62-10.83,3.48-16.94,11.36l-0.85,1.1c-12.9,16.58-27.6,37.62-26.79,53.35
		c0.69,13.37,12.51,29.86,22.02,43.11c3.31,4.61,6.16,8.6,7.64,11.24c5.92,10.64,3.44,61.99,0.3,126.99
		c-2.75,56.98-6.18,127.88-6.18,206.98c0,3.24,2.63,5.87,5.87,5.87c2.6,0,4.79-1.69,5.57-4.02c0.19-0.58,0.3-1.2,0.3-1.84
		c0-78.81,3.42-149.56,6.17-206.41c3.91-80.84,5.46-120.28-1.76-133.26c-1.8-3.23-4.84-7.47-8.35-12.37
		c-7.69-10.73-19.32-26.95-19.83-36.88c-0.69-13.39,18.15-37.59,24.34-45.55l0.87-1.11c4.47-5.77,8.53-7.95,12.05-6.49
		c4.45,1.84,25.85,12.03,35.8,16.78c-1.26,1.91-3.31,4.24-6.59,6.38c-6.71,4.38-13.99,1.5-14.25,1.39c-2.72-1.17-5.9-0.12-7.39,2.45
		c0,0-2.29,3.95-4.22,7.27c-0.85,1.46-1.03,3.22-0.49,4.82c0.54,1.6,1.75,2.9,3.31,3.54c34.77,14.43,26.34,49.48,25.97,50.96
		c-0.8,3.13,1.08,6.32,4.21,7.13c3.14,0.82,6.34-1.07,7.15-4.2c0.12-0.47,2.97-11.73,0.42-25.24c-0.61-3.24-1.57-6.77-3.04-10.39
		c2.86,1.42,5.91,2.1,8.91,2.1c1.42,0,2.82-0.16,4.19-0.46c0,0.01,0,0.02,0.01,0.04c1.35,4.91,4.55,9.1,8.99,11.79
		c3.21,1.94,6.81,2.95,10.44,2.95c1.39,0,2.79-0.15,4.17-0.45c5.1-1.1,9.37-4.12,12.02-8.5l0.16-0.27
		c-0.78,24.88-11.94,35.15-19.24,41.85c-14.5,13.32-12.79,49.05-9.06,127.35c2.37,49.61,5.61,117.55,5.61,204.77
		c0,0.65,0.11,1.26,0.3,1.84c0.77,2.34,2.97,4.02,5.57,4.02c3.24,0,5.87-2.63,5.87-5.87c0-87.5-3.25-155.6-5.62-205.32
		c-3.23-67.69-5.18-108.55,5.28-118.15c9.75-8.96,27.42-25.22,22.1-68.32l13.81-22.81c5.4-8.93,2.25-20.76-7.03-26.38
		c-3.13-1.9-6.57-2.83-9.95-2.91c0.13-2.07-0.06-4.19-0.64-6.28c-1.35-4.91-4.55-9.1-8.99-11.79c-3.03-1.84-6.41-2.81-9.84-2.91
		c0.12-2.05-0.07-4.14-0.64-6.2c-1.35-4.91-4.55-9.1-8.99-11.79c-4.44-2.69-9.63-3.58-14.61-2.5c-2.12,0.46-4.08,1.27-5.86,2.35
		c-1.64-2.96-4.06-5.58-7.19-7.47C674.83,107.98,662.88,110.67,657.48,119.6z M734.22,175.18c1.29-2.13,3.63-3.29,6.13-3.29
		c1.47,0,3,0.4,4.39,1.25c3.75,2.27,5.12,6.87,3.07,10.26l-24.76,40.9c-0.96,1.59-2.55,2.69-4.46,3.11
		c-2.04,0.44-4.19,0.06-6.05-1.07c-1.87-1.13-3.2-2.86-3.75-4.87c-0.52-1.89-0.28-3.8,0.68-5.39c0,0,0,0,0,0v0L734.22,175.18z
		 M715.42,153.18c0.95-1.03,2.22-1.76,3.69-2.08c0.55-0.12,1.12-0.18,1.68-0.18c1.51,0,3.02,0.42,4.38,1.25
		c1.87,1.13,3.2,2.86,3.75,4.87c0.52,1.89,0.28,3.81-0.69,5.4l-28.8,47.57c-2.05,3.39-6.77,4.31-10.52,2.04
		c-3.43-2.08-4.87-6.12-3.5-9.39c0.18-0.27,0.38-0.53,0.55-0.81L715.42,153.18z M695.17,133.3c0.96-1.59,2.55-2.69,4.46-3.11
		c0.55-0.12,1.12-0.18,1.68-0.18c1.51,0,3.02,0.42,4.38,1.25c1.87,1.13,3.2,2.86,3.75,4.87c0.52,1.89,0.28,3.81-0.69,5.4l-18.1,29.9
		c-0.36-0.3-0.75-0.58-1.19-0.79c-0.57-0.27-6.16-2.95-13.1-6.25L695.17,133.3z M678.03,123.64c3.75,2.27,5.12,6.87,3.07,10.26
		l-15.4,25.43c-5.6-2.64-10.95-5.15-14.48-6.74l16.29-26.91c1.29-2.13,3.63-3.29,6.13-3.29
		C675.11,122.39,676.64,122.79,678.03,123.64z"/>
	<path d="M58.16,161.31l-0.85,1.1c-12.9,16.58-27.6,37.62-26.79,53.35c0.69,13.37,12.51,29.86,22.02,43.11
		c3.31,4.61,6.16,8.6,7.64,11.24c5.92,10.64,3.44,61.99,0.3,126.99c-2.75,56.98-6.18,127.88-6.18,206.98c0,3.24,2.63,5.87,5.87,5.87
		c2.6,0,4.79-1.69,5.57-4.02c0.19-0.58,0.3-1.2,0.3-1.84c0-78.81,3.42-149.56,6.17-206.41c3.91-80.84,5.46-120.28-1.76-133.26
		c-1.8-3.23-4.84-7.47-8.35-12.37c-7.69-10.73-19.32-26.95-19.83-36.88c-0.69-13.39,18.15-37.59,24.34-45.55l0.87-1.11
		c4.47-5.77,8.53-7.95,12.05-6.49c4.45,1.84,25.85,12.03,35.8,16.78c-1.26,1.91-3.31,4.24-6.59,6.38
		c-6.71,4.38-13.99,1.5-14.25,1.39c-2.73-1.17-5.9-0.12-7.39,2.45c0,0-2.29,3.95-4.22,7.27c-0.85,1.46-1.03,3.22-0.49,4.82
		c0.54,1.6,1.75,2.9,3.31,3.54c34.77,14.43,26.34,49.48,25.97,50.96c-0.8,3.13,1.08,6.32,4.21,7.13c3.14,0.82,6.34-1.07,7.15-4.2
		c0.12-0.47,2.97-11.73,0.42-25.24c-0.61-3.24-1.57-6.77-3.04-10.39c2.86,1.42,5.91,2.1,8.91,2.1c1.42,0,2.82-0.16,4.19-0.46
		c0,0.01,0,0.02,0.01,0.04c1.35,4.91,4.55,9.1,8.99,11.79c3.21,1.94,6.81,2.95,10.44,2.95c1.39,0,2.79-0.15,4.17-0.45
		c5.1-1.1,9.37-4.12,12.02-8.5l0.16-0.27c-0.78,24.88-11.94,35.15-19.24,41.85c-14.5,13.32-12.79,49.05-9.06,127.35
		c2.37,49.61,5.61,117.55,5.61,204.77c0,0.65,0.11,1.26,0.3,1.84c0.77,2.34,2.97,4.02,5.57,4.02c3.24,0,5.87-2.63,5.87-5.87
		c0-87.5-3.25-155.6-5.62-205.32c-3.23-67.69-5.18-108.55,5.28-118.15c9.75-8.96,27.42-25.22,22.1-68.32l13.81-22.81
		c5.4-8.93,2.25-20.76-7.03-26.38c-3.13-1.9-6.57-2.83-9.95-2.91c0.13-2.07-0.06-4.19-0.64-6.28c-1.35-4.91-4.55-9.1-8.99-11.79
		c-3.03-1.84-6.41-2.81-9.84-2.91c0.12-2.05-0.07-4.14-0.64-6.2c-1.35-4.91-4.55-9.1-8.99-11.79c-4.44-2.69-9.63-3.58-14.61-2.5
		c-2.12,0.46-4.08,1.27-5.86,2.35c-1.64-2.96-4.06-5.58-7.19-7.47c-9.28-5.62-21.22-2.93-26.63,6L75.1,149.95
		C70.2,150.57,64.27,153.43,58.16,161.31z M170.22,175.18c1.29-2.13,3.63-3.29,6.13-3.29c1.47,0,3,0.4,4.39,1.25
		c3.75,2.27,5.12,6.87,3.07,10.26l-24.76,40.9c-0.96,1.59-2.55,2.69-4.46,3.11c-2.04,0.44-4.18,0.06-6.05-1.07
		c-1.87-1.13-3.2-2.86-3.75-4.87c-0.52-1.89-0.28-3.8,0.68-5.39c0,0,0,0,0,0v0L170.22,175.18z M151.42,153.18
		c0.95-1.03,2.22-1.76,3.69-2.08c0.55-0.12,1.12-0.18,1.68-0.18c1.51,0,3.02,0.42,4.38,1.25c1.87,1.13,3.2,2.86,3.75,4.87
		c0.52,1.89,0.28,3.81-0.69,5.4l-28.8,47.57c-2.05,3.39-6.77,4.31-10.52,2.04c-3.43-2.08-4.87-6.12-3.5-9.39
		c0.18-0.27,0.38-0.53,0.55-0.81L151.42,153.18z M131.17,133.3c0.96-1.59,2.55-2.69,4.46-3.11c0.55-0.12,1.12-0.18,1.68-0.18
		c1.51,0,3.02,0.42,4.38,1.25c1.87,1.13,3.2,2.86,3.75,4.87c0.52,1.89,0.28,3.81-0.69,5.4l-18.1,29.9c-0.36-0.3-0.75-0.58-1.19-0.79
		c-0.57-0.27-6.16-2.95-13.1-6.25L131.17,133.3z M103.51,125.68c1.29-2.13,3.63-3.29,6.13-3.29c1.47,0,3,0.4,4.39,1.25
		c3.75,2.27,5.12,6.87,3.07,10.26l-15.4,25.43c-5.6-2.64-10.95-5.15-14.48-6.74L103.51,125.68z"/>
	<path d="M340.16,161.31l-0.85,1.1c-12.9,16.58-27.6,37.62-26.79,53.35c0.69,13.37,12.51,29.86,22.02,43.11
		c3.31,4.61,6.16,8.6,7.64,11.24c5.92,10.64,3.44,61.99,0.3,126.99c-2.75,56.98-6.18,127.88-6.18,206.98c0,3.24,2.63,5.87,5.87,5.87
		c2.6,0,4.79-1.69,5.57-4.02c0.19-0.58,0.3-1.2,0.3-1.84c0-78.81,3.42-149.56,6.17-206.41c3.91-80.84,5.46-120.28-1.76-133.26
		c-1.8-3.23-4.84-7.47-8.35-12.37c-7.69-10.73-19.32-26.95-19.83-36.88c-0.69-13.39,18.15-37.59,24.34-45.55l0.87-1.11
		c4.47-5.77,8.53-7.95,12.05-6.49c4.45,1.84,25.85,12.03,35.8,16.78c-1.26,1.91-3.31,4.24-6.59,6.38
		c-6.71,4.38-13.99,1.5-14.25,1.39c-2.73-1.17-5.9-0.12-7.39,2.45c0,0-2.29,3.95-4.22,7.27c-0.85,1.46-1.03,3.22-0.49,4.82
		c0.54,1.6,1.75,2.9,3.31,3.54c34.77,14.43,26.34,49.48,25.97,50.96c-0.8,3.13,1.08,6.32,4.21,7.13c3.14,0.82,6.34-1.07,7.15-4.2
		c0.12-0.47,2.97-11.73,0.42-25.24c-0.61-3.24-1.57-6.77-3.04-10.39c2.86,1.42,5.91,2.1,8.91,2.1c1.42,0,2.82-0.16,4.19-0.46
		c0,0.01,0,0.02,0.01,0.04c1.35,4.91,4.55,9.1,8.99,11.79c3.21,1.94,6.81,2.95,10.44,2.95c1.39,0,2.79-0.15,4.17-0.45
		c5.1-1.1,9.37-4.12,12.02-8.5l0.16-0.27c-0.78,24.88-11.94,35.15-19.24,41.85c-14.5,13.32-12.79,49.05-9.06,127.35
		c2.37,49.61,5.61,117.55,5.61,204.77c0,0.65,0.11,1.26,0.3,1.84c0.77,2.34,2.97,4.02,5.57,4.02c3.24,0,5.87-2.63,5.87-5.87
		c0-87.5-3.25-155.6-5.62-205.32c-3.23-67.69-5.18-108.55,5.28-118.15c9.75-8.96,27.42-25.22,22.1-68.32l13.81-22.81
		c5.4-8.93,2.25-20.76-7.03-26.38c-3.13-1.9-6.57-2.83-9.95-2.91c0.13-2.07-0.06-4.19-0.64-6.28c-1.35-4.91-4.55-9.1-8.99-11.79
		c-3.03-1.84-6.41-2.81-9.84-2.91c0.12-2.05-0.07-4.14-0.64-6.2c-1.35-4.91-4.55-9.1-8.99-11.79c-4.44-2.69-9.63-3.58-14.61-2.5
		c-2.12,0.46-4.08,1.27-5.86,2.35c-1.64-2.96-4.06-5.58-7.19-7.47c-9.28-5.62-21.22-2.93-26.63,6l-18.37,30.35
		C352.2,150.57,346.27,153.43,340.16,161.31z M452.22,175.18c1.29-2.13,3.63-3.29,6.13-3.29c1.47,0,3,0.4,4.39,1.25
		c3.75,2.27,5.12,6.87,3.07,10.26l-24.76,40.9c-0.96,1.59-2.55,2.69-4.46,3.11c-2.03,0.44-4.19,0.06-6.05-1.07
		c-1.87-1.13-3.2-2.86-3.75-4.87c-0.52-1.89-0.28-3.8,0.68-5.39c0,0,0,0,0,0v0L452.22,175.18z M433.42,153.18
		c0.95-1.03,2.22-1.76,3.69-2.08c0.55-0.12,1.12-0.18,1.68-0.18c1.51,0,3.02,0.42,4.38,1.25c1.87,1.13,3.2,2.86,3.75,4.87
		c0.52,1.89,0.28,3.81-0.69,5.4l-28.8,47.57c-2.05,3.39-6.77,4.31-10.52,2.04c-3.43-2.08-4.87-6.12-3.5-9.39
		c0.18-0.27,0.38-0.53,0.55-0.81L433.42,153.18z M413.17,133.3c0.96-1.59,2.55-2.69,4.46-3.11c0.55-0.12,1.12-0.18,1.68-0.18
		c1.51,0,3.02,0.42,4.38,1.25c1.87,1.13,3.2,2.86,3.75,4.87c0.52,1.89,0.28,3.81-0.69,5.4l-18.1,29.9c-0.36-0.3-0.75-0.58-1.19-0.79
		c-0.57-0.27-6.16-2.95-13.1-6.25L413.17,133.3z M385.51,125.68c1.29-2.13,3.63-3.29,6.13-3.29c1.47,0,3,0.4,4.39,1.25
		c3.75,2.27,5.12,6.87,3.07,10.26l-15.4,25.43c-5.6-2.64-10.95-5.15-14.48-6.74L385.51,125.68z"/>
	<path d="M516.48,239.49l-18.37,30.35c-4.9,0.62-10.83,3.48-16.94,11.36l-0.85,1.1c-12.9,16.58-27.6,37.62-26.79,53.35
		c0.69,13.37,12.51,29.86,22.02,43.11c3.31,4.61,6.16,8.6,7.64,11.24c5.68,10.21,2.92,45.5-0.27,86.37
		c-2.95,37.76-6.62,84.76-5.62,132.72c0.07,3.2,2.68,5.74,5.86,5.74c0.04,0,0.08,0,0.12,0c2.55-0.05,4.68-1.73,5.44-4.02
		c0.21-0.62,0.32-1.28,0.3-1.97c-0.99-47.38,2.66-94.06,5.58-131.56c3.75-47.99,6.22-79.69-1.18-92.99
		c-1.8-3.23-4.84-7.47-8.35-12.37c-7.69-10.73-19.32-26.95-19.83-36.88c-0.69-13.39,18.15-37.59,24.34-45.55l0.87-1.11
		c4.47-5.77,8.53-7.95,12.05-6.49c4.45,1.84,25.85,12.03,35.8,16.78c-1.26,1.91-3.31,4.24-6.59,6.38
		c-6.72,4.38-13.99,1.5-14.25,1.39c-2.72-1.17-5.9-0.12-7.39,2.45c0,0-2.29,3.95-4.22,7.27c-0.85,1.46-1.03,3.22-0.49,4.82
		c0.54,1.6,1.75,2.9,3.31,3.54c34.77,14.43,26.34,49.48,25.97,50.96c-0.8,3.13,1.08,6.32,4.21,7.13c3.14,0.81,6.34-1.07,7.15-4.2
		c0.12-0.47,2.97-11.73,0.42-25.24c-0.61-3.24-1.57-6.77-3.04-10.39c2.86,1.42,5.91,2.1,8.91,2.1c1.42,0,2.82-0.16,4.19-0.46
		c0,0.01,0,0.02,0.01,0.04c1.35,4.91,4.55,9.1,8.99,11.79c3.21,1.94,6.81,2.95,10.44,2.95c1.39,0,2.79-0.15,4.17-0.45
		c5.1-1.1,9.37-4.12,12.02-8.5l0.16-0.27c-0.78,24.88-11.94,35.15-19.24,41.85c-15.86,14.57-13.28,55.72-9.37,118.01
		c1.88,29.9,4,63.79,4.15,99.13c0,0.64,0.11,1.25,0.3,1.82c0.77,2.34,2.97,4.02,5.57,4.02c0.01,0,0.02,0,0.02,0
		c3.24-0.01,5.86-2.65,5.84-5.89c-0.14-35.68-2.28-69.75-4.17-99.82c-3.29-52.51-6.14-97.85,5.6-108.63
		c9.75-8.96,27.42-25.22,22.1-68.32l13.81-22.81c5.4-8.93,2.25-20.76-7.03-26.38c-3.13-1.9-6.57-2.83-9.95-2.91
		c0.13-2.07-0.06-4.19-0.64-6.28c-1.35-4.91-4.55-9.1-8.99-11.79c-3.03-1.84-6.41-2.81-9.84-2.91c0.12-2.05-0.07-4.14-0.64-6.2
		c-1.35-4.91-4.55-9.1-8.99-11.79c-4.44-2.69-9.63-3.58-14.61-2.5c-2.12,0.46-4.08,1.27-5.86,2.35c-1.64-2.96-4.06-5.58-7.19-7.47
		C533.83,227.88,521.88,230.57,516.48,239.49z M593.22,295.08c1.29-2.13,3.63-3.29,6.13-3.29c1.47,0,3,0.4,4.39,1.25
		c3.75,2.27,5.12,6.87,3.07,10.26l-24.76,40.9c-0.96,1.59-2.55,2.69-4.46,3.11c-2.03,0.44-4.19,0.06-6.05-1.07
		c-1.87-1.13-3.2-2.86-3.75-4.87c-0.52-1.89-0.28-3.8,0.68-5.39c0,0,0,0,0,0v0L593.22,295.08z M574.42,273.07
		c0.95-1.03,2.22-1.76,3.69-2.08c0.55-0.12,1.12-0.18,1.68-0.18c1.51,0,3.02,0.42,4.38,1.25c1.87,1.13,3.2,2.86,3.75,4.87
		c0.52,1.89,0.28,3.81-0.69,5.4l-28.8,47.57c-2.05,3.39-6.77,4.31-10.52,2.04c-3.43-2.08-4.87-6.12-3.5-9.39
		c0.18-0.27,0.38-0.53,0.55-0.81L574.42,273.07z M554.17,253.2c0.96-1.59,2.55-2.69,4.46-3.11c0.55-0.12,1.12-0.18,1.68-0.18
		c1.51,0,3.02,0.42,4.38,1.25c1.87,1.13,3.2,2.86,3.75,4.87c0.52,1.89,0.28,3.81-0.69,5.4l-18.1,29.9c-0.36-0.3-0.75-0.58-1.19-0.79
		c-0.57-0.27-6.16-2.95-13.1-6.25L554.17,253.2z M532.64,242.28c1.47,0,3,0.4,4.39,1.25c3.75,2.27,5.12,6.87,3.07,10.26l-15.4,25.43
		c-5.6-2.64-10.95-5.15-14.48-6.74l16.29-26.91C527.8,243.44,530.15,242.28,532.64,242.28z"/>
	<path d="M212.6,477.29c3.75-47.99,6.22-79.69-1.18-92.99c-1.8-3.23-4.84-7.47-8.35-12.37c-7.69-10.73-19.32-26.95-19.83-36.88
		c-0.69-13.39,18.15-37.59,24.34-45.55l0.87-1.11c4.47-5.77,8.53-7.95,12.05-6.49c4.45,1.84,25.85,12.03,35.8,16.78
		c-1.26,1.91-3.31,4.24-6.59,6.38c-6.72,4.38-13.99,1.5-14.25,1.39c-2.73-1.17-5.9-0.12-7.39,2.45c0,0-2.29,3.95-4.22,7.27
		c-0.85,1.46-1.03,3.22-0.49,4.82c0.54,1.6,1.75,2.9,3.31,3.54c34.77,14.43,26.34,49.48,25.97,50.96c-0.8,3.13,1.08,6.32,4.21,7.13
		c3.14,0.81,6.34-1.07,7.15-4.2c0.12-0.47,2.97-11.73,0.42-25.24c-0.61-3.24-1.57-6.77-3.04-10.39c2.86,1.42,5.91,2.1,8.91,2.1
		c1.42,0,2.82-0.16,4.19-0.46c0,0.01,0,0.02,0.01,0.04c1.35,4.91,4.55,9.1,8.99,11.79c3.21,1.94,6.81,2.95,10.44,2.95
		c1.39,0,2.79-0.15,4.17-0.45c5.1-1.1,9.37-4.12,12.02-8.5l0.16-0.27c-0.78,24.88-11.94,35.15-19.24,41.85
		c-15.86,14.57-13.28,55.72-9.37,118.01c1.88,29.9,4,63.79,4.15,99.13c0,0.64,0.11,1.25,0.3,1.82c0.77,2.34,2.97,4.02,5.57,4.02
		c0.01,0,0.02,0,0.02,0c3.24-0.01,5.86-2.65,5.84-5.89c-0.14-35.68-2.28-69.75-4.17-99.82c-3.29-52.51-6.14-97.85,5.6-108.63
		c9.75-8.96,27.42-25.22,22.1-68.32l13.81-22.81c5.4-8.93,2.25-20.76-7.03-26.38c-3.13-1.9-6.57-2.83-9.95-2.91
		c0.13-2.07-0.06-4.19-0.64-6.28c-1.35-4.91-4.55-9.1-8.99-11.79c-3.03-1.84-6.41-2.81-9.84-2.91c0.12-2.05-0.07-4.14-0.64-6.2
		c-1.35-4.91-4.55-9.1-8.99-11.79c-4.44-2.69-9.63-3.58-14.61-2.5c-2.12,0.46-4.08,1.27-5.86,2.35c-1.64-2.96-4.06-5.58-7.19-7.47
		c-9.28-5.62-21.22-2.93-26.63,6l-18.37,30.35c-4.9,0.62-10.83,3.48-16.94,11.36l-0.85,1.1c-12.9,16.58-27.6,37.62-26.79,53.35
		c0.69,13.37,12.51,29.86,22.02,43.11c3.31,4.61,6.16,8.6,7.64,11.24c5.68,10.21,2.92,45.5-0.27,86.37
		c-2.95,37.76-6.62,84.76-5.62,132.72c0.07,3.2,2.68,5.74,5.86,5.74c0.04,0,0.08,0,0.12,0c2.55-0.05,4.68-1.73,5.44-4.02
		c0.21-0.62,0.32-1.28,0.3-1.97C206.03,561.47,209.67,514.8,212.6,477.29z M311.22,295.08c1.29-2.13,3.63-3.29,6.13-3.29
		c1.47,0,3,0.4,4.39,1.25c3.75,2.27,5.12,6.87,3.07,10.26l-24.76,40.9c-0.96,1.59-2.55,2.69-4.46,3.11
		c-2.04,0.44-4.18,0.06-6.05-1.07c-1.87-1.13-3.2-2.86-3.75-4.87c-0.52-1.89-0.28-3.8,0.68-5.39c0,0,0,0,0,0v0L311.22,295.08z
		 M292.42,273.07c0.95-1.03,2.22-1.76,3.69-2.08c0.55-0.12,1.12-0.18,1.68-0.18c1.51,0,3.02,0.42,4.38,1.25
		c1.87,1.13,3.2,2.86,3.75,4.87c0.52,1.89,0.28,3.81-0.69,5.4l-28.8,47.57c-2.05,3.39-6.77,4.31-10.52,2.04
		c-3.43-2.08-4.87-6.12-3.5-9.39c0.18-0.27,0.38-0.53,0.55-0.81L292.42,273.07z M272.17,253.2c0.96-1.59,2.55-2.69,4.46-3.11
		c0.55-0.12,1.12-0.18,1.68-0.18c1.51,0,3.02,0.42,4.38,1.25c1.87,1.13,3.2,2.86,3.75,4.87c0.52,1.89,0.28,3.81-0.69,5.4l-18.1,29.9
		c-0.36-0.3-0.75-0.58-1.19-0.79c-0.57-0.27-6.16-2.95-13.1-6.25L272.17,253.2z M244.51,245.57c1.29-2.13,3.63-3.29,6.13-3.29
		c1.47,0,3,0.4,4.39,1.25c3.75,2.27,5.12,6.87,3.07,10.26l-15.4,25.43c-5.6-2.64-10.95-5.15-14.48-6.74L244.51,245.57z"/>
	<polygon points="771.12,307.02 771.12,303.7 761.93,306.61 761.93,309.89 767.12,311.23 767.12,311.31 761.93,312.65 
		761.93,315.93 770.99,318.79 761.93,321.66 761.93,324.93 767.12,326.27 767.12,326.36 761.93,327.7 761.93,330.97 770.99,333.84 
		761.93,336.7 761.93,339.98 767.12,341.32 767.12,341.4 761.93,342.74 761.93,346.02 771.12,348.92 771.12,345.92 765.91,344.27 
		765.91,344.18 771.12,342.84 771.12,340.18 765.91,338.84 765.91,338.76 771.12,337.11 771.12,333.88 771.12,333.79 771.12,330.87 
		765.91,329.22 765.91,329.14 771.12,327.8 771.12,325.14 765.91,323.8 765.91,323.72 771.12,322.07 771.12,318.83 771.12,318.75 
		771.12,315.82 765.91,314.17 765.91,314.09 771.12,312.75 771.12,310.09 765.91,308.75 765.91,308.67 	"/>
	<rect x="761.93" y="351.35" width="3.55" height="3.55"/>
	<path d="M768.42,357.78c-4,0-6.74,2.87-6.74,6.66c0,3.98,2.51,6.1,5.75,6.35l0.14-3.36c-1.44-0.21-2.78-0.99-2.78-3.01
		c0-1.92,1.42-3.03,3.63-3.03c2.21,0,3.63,1.11,3.63,3.03c0,2.02-1.34,2.8-2.78,3.01l0.12,3.36c3.24-0.25,5.77-2.37,5.77-6.35
		C775.16,360.65,772.42,357.78,768.42,357.78z"/>
	<path d="M761.72,379.88c0,0.95,0.27,1.61,0.6,2.08h1.77c-0.1-0.27-0.14-0.47-0.14-0.74c0-0.35,0.21-0.56,0.68-0.56h3.13
		c2.56,0,3.61-1.79,3.61-4.23c0-2.76-1.4-4.27-3.42-4.56l-0.21,3.09c0.68,0.14,1.15,0.52,1.15,1.26c0,0.8-0.45,1.15-1.22,1.15h-0.14
		l-0.43-2.58c-0.35-2-1.11-3.28-2.89-3.28c-1.57,0-2.49,1.17-2.49,2.97c0,1.46,0.56,2.51,1.63,3.05
		C762.3,377.86,761.72,378.75,761.72,379.88z M764.65,374.75c0.6,0,0.84,0.47,1.01,1.28l0.25,1.36h-0.14c-1.2,0-1.9-0.76-1.9-1.71
		C763.87,375.12,764.18,374.75,764.65,374.75z"/>
	<path d="M758.63,386.27h4.86c-1.07,0.45-1.81,1.48-1.81,3.03c0,2.7,2.12,4.08,4.84,4.08c2.7,0,4.84-1.38,4.84-4.08
		c0-1.55-0.74-2.58-1.83-3.03h1.59v-3.34h-12.49V386.27z M766.46,386.27h0.12c1.32,0,2.18,0.72,2.18,1.85c0,1.3-0.93,1.9-2.25,1.9
		c-1.34,0-2.27-0.6-2.27-1.9C764.26,386.99,765.12,386.27,766.46,386.27z"/>
	<rect x="771.99" y="394.68" width="2.93" height="3.38"/>
	<rect x="761.93" y="394.7" width="9.19" height="3.34"/>
	<path d="M773.66,401.38l-1.2-0.31c-0.85-0.23-1.34-0.52-1.48-1.44l-0.1-0.68h-2.06v1.24h-4.33c-2.16,0-2.8,1.46-2.8,3.01
		c0,1.26,0.31,2.06,0.82,2.76h2.16c-0.23-0.56-0.31-1.01-0.31-1.42c0-0.68,0.31-1.05,1.09-1.05h3.36v2.39h2.31v-2.39h2.54V401.38z"
		/>
	<path d="M764.63,415.82h3.13c2.56,0,3.61-1.79,3.61-4.23c0-2.76-1.4-4.27-3.42-4.56l-0.21,3.09c0.68,0.14,1.15,0.52,1.15,1.26
		c0,0.8-0.45,1.15-1.22,1.15h-0.14l-0.43-2.58c-0.35-2-1.11-3.28-2.89-3.28c-1.57,0-2.49,1.17-2.49,2.97c0,1.46,0.56,2.51,1.63,3.05
		c-1.05,0.31-1.63,1.2-1.63,2.33c0,0.95,0.27,1.61,0.6,2.08h1.77c-0.1-0.27-0.14-0.47-0.14-0.74
		C763.95,416.03,764.16,415.82,764.63,415.82z M763.87,410.84c0-0.56,0.31-0.93,0.78-0.93c0.6,0,0.84,0.47,1.01,1.28l0.25,1.36
		h-0.14C764.57,412.55,763.87,411.78,763.87,410.84z"/>
	<rect x="761.93" y="418.09" width="12.99" height="3.34"/>
	<rect x="771.99" y="423.22" width="2.93" height="3.38"/>
	<rect x="761.93" y="423.24" width="9.19" height="3.34"/>
	<path d="M768.26,427.92c-1.88,0-2.6,1.17-2.95,3.4l-0.21,1.36c-0.1,0.64-0.35,0.85-0.7,0.85c-0.37,0-0.64-0.39-0.64-1.13
		c0-1.01,0.43-1.63,1.2-1.75l-0.04-2.91c-2.23,0.19-3.24,2.08-3.24,4.62c0,2.62,1.11,4.27,3.05,4.27c1.79,0,2.72-1.2,3.05-3.26
		l0.31-1.79c0.04-0.31,0.21-0.56,0.51-0.56c0.41,0,0.66,0.37,0.66,1.01c0,1.03-0.41,1.61-1.07,1.73l0.08,2.74
		c1.92-0.19,3.09-1.75,3.09-4.41C771.37,429.51,770.07,427.92,768.26,427.92z"/>
	<path d="M771.37,444.1c0-1.38-0.62-2.37-1.63-2.87h1.38v-3.34h-9.19v3.34h4.51c1.38,0,2.29,0.39,2.29,1.48
		c0,1.01-0.66,1.26-1.92,1.26h-4.89v3.34h4.51c1.38,0,2.29,0.37,2.29,1.48c0,1.01-0.66,1.24-1.92,1.24h-4.89v3.34h5.77
		c1.92,0,3.67-0.74,3.67-3.28c0-1.55-0.78-2.64-1.81-3.13C770.63,446.58,771.37,445.73,771.37,444.1z"/>
	<rect x="761.93" y="458.63" width="12.99" height="3.5"/>
	<path d="M764.96,466.28l-0.04-2.91c-2.23,0.19-3.24,2.08-3.24,4.62c0,2.62,1.11,4.27,3.05,4.27c1.79,0,2.72-1.2,3.05-3.26
		l0.31-1.79c0.04-0.31,0.21-0.56,0.51-0.56c0.41,0,0.66,0.37,0.66,1.01c0,1.03-0.41,1.61-1.07,1.73l0.08,2.74
		c1.92-0.19,3.09-1.75,3.09-4.41c0-2.58-1.3-4.16-3.11-4.16c-1.88,0-2.6,1.18-2.95,3.4l-0.21,1.36c-0.1,0.64-0.35,0.85-0.7,0.85
		c-0.37,0-0.64-0.39-0.64-1.13C763.76,467.02,764.2,466.4,764.96,466.28z"/>
	<path d="M774.92,481.26l-12.99-5.17v3.53l2.51,0.97v5.07l-2.51,0.97v3.73l12.99-5.17V481.26z M770.9,483.16l-3.83,1.48v-3.05
		l3.83,1.48V483.16z"/>
	<polygon points="774.92,495.87 774.92,492.2 761.93,497.19 761.93,500.88 774.92,505.87 774.92,502.39 766.28,499.17 
		766.28,499.09 	"/>
	<rect x="771.99" y="506.75" width="2.93" height="3.38"/>
	<rect x="761.93" y="506.78" width="9.19" height="3.34"/>
	<path d="M769.49,515.27h1.63v-3.34h-9.19v3.34h4.21c1.55,0,2.12,0.76,2.12,2c0,0.64-0.12,1.13-0.39,1.59l3.15,0.21
		c0.19-0.23,0.35-0.72,0.35-1.28C771.37,516.57,770.53,515.6,769.49,515.27z"/>
	<path d="M766.22,523.33h4.91v-3.34h-5.79c-1.92,0-3.65,0.76-3.65,3.28c0,1.38,0.6,2.39,1.63,2.89h-1.38v3.34h9.19v-3.34h-4.51
		c-1.4,0-2.31-0.41-2.31-1.46C764.3,523.68,764.98,523.33,766.22,523.33z"/>
	<path d="M768.26,530.83c-1.88,0-2.6,1.17-2.95,3.4l-0.21,1.36c-0.1,0.64-0.35,0.84-0.7,0.84c-0.37,0-0.64-0.39-0.64-1.13
		c0-1.01,0.43-1.63,1.2-1.75l-0.04-2.91c-2.23,0.19-3.24,2.08-3.24,4.62c0,2.62,1.11,4.27,3.05,4.27c1.79,0,2.72-1.2,3.05-3.26
		l0.31-1.79c0.04-0.31,0.21-0.56,0.51-0.56c0.41,0,0.66,0.37,0.66,1.01c0,1.03-0.41,1.61-1.07,1.73l0.08,2.74
		c1.92-0.19,3.09-1.75,3.09-4.41C771.37,532.42,770.07,530.83,768.26,530.83z"/>
	<rect x="761.93" y="542.37" width="3.55" height="3.55"/>
	<path d="M766.53,548.8c-2.87,0-4.84,2.02-4.84,5.03c0,2.99,1.98,5.03,4.84,5.03c2.85,0,4.84-2.04,4.84-5.03
		C771.37,550.82,769.37,548.8,766.53,548.8z M766.53,555.5c-1.38,0-2.33-0.52-2.33-1.67c0-1.18,0.95-1.67,2.33-1.67
		c1.38,0,2.33,0.49,2.33,1.67C768.86,554.98,767.91,555.5,766.53,555.5z"/>
	<path d="M771.02,567.31c0.19-0.23,0.35-0.72,0.35-1.28c0-1.22-0.84-2.19-1.88-2.51h1.63v-3.34h-9.19v3.34h4.21
		c1.55,0,2.12,0.76,2.12,2c0,0.64-0.12,1.13-0.39,1.59L771.02,567.31z"/>
	<path d="M772.05,577.97c0-1.01-0.66-2.02-1.42-2.58c0.47-0.78,0.74-1.83,0.74-2.95c0-2.58-1.2-4.43-3.15-4.43
		c-1.01,0-1.79,0.5-2.33,1.32c-0.37-0.99-1.05-1.57-1.94-1.57c-0.78,0-1.53,0.49-1.79,1.32c-0.08-1.03-0.72-1.75-1.53-1.75
		c-1.73,0-2.25,2.27-2.25,4.89c0,2.99,1.05,5.77,3.34,5.77c1.55,0,2.64-1.05,2.64-3.13v-3.81c0-0.56,0.25-0.78,0.56-0.78
		c0.19,0,0.33,0.06,0.43,0.19c-0.19,0.6-0.27,1.26-0.27,2c0,2.6,1.2,4.47,3.13,4.47c0.43,0,0.83-0.1,1.17-0.29
		c0.1,0.45,0.14,0.95,0.14,1.34H772.05z M761.52,574.07c0,0.56-0.14,0.85-0.54,0.85c-0.56,0-0.87-1.13-0.87-2.68
		c0-1.24,0.18-2.16,0.84-2.16c0.35,0,0.56,0.25,0.56,0.62V574.07z M768.22,573.45c-0.82,0-1.34-0.41-1.34-0.97s0.52-0.97,1.34-0.97
		c0.8,0,1.32,0.41,1.32,0.97S769.02,573.45,768.22,573.45z"/>
</g>
</svg>
