<?xml version="1.0" encoding="utf-8"?>
<!-- Generator: Adobe Illustrator 23.1.1, SVG Export Plug-In . SVG Version: 6.00 Build 0)  -->
<svg version="1.1" xmlns="http://www.w3.org/2000/svg" xmlns:xlink="http://www.w3.org/1999/xlink" x="0px" y="0px"
	 viewBox="0 0 792 612" style="enable-background:new 0 0 792 612;" xml:space="preserve">
<style type="text/css">
	.st0{display:none;}
	.st1{display:inline;}
	
		.st2{display:inline;fill:#FFFFFF;stroke:#000000;stroke-width:16;stroke-linecap:round;stroke-linejoin:round;stroke-miterlimit:10;}
	.st3{fill:#FFFFFF;stroke:#000000;stroke-width:16;stroke-linecap:round;stroke-linejoin:round;stroke-miterlimit:10;}
	.st4{display:inline;fill:none;stroke:#000000;stroke-width:24;stroke-linejoin:round;stroke-miterlimit:10;}
	.st5{display:inline;fill:#FFFFFF;}
	.st6{font-family:'FoundersGrotesk-Bold';}
	.st7{font-size:243.0243px;}
	.st8{letter-spacing:6;}
	.st9{font-size:166.6413px;}
	.st10{font-size:149.151px;}
	.st11{fill:#FFFFFF;stroke:#000000;stroke-width:17;stroke-linecap:round;stroke-miterlimit:10;}
	.st12{fill:#FFFFFF;stroke:#000000;stroke-width:17;stroke-miterlimit:10;}
	.st13{stroke:#000000;stroke-width:16.0572;stroke-linecap:round;stroke-miterlimit:10;}
	.st14{fill:#FFFFFF;}
	.st15{fill:#FFFFFF;stroke:#000000;stroke-width:17.1072;stroke-linecap:round;stroke-linejoin:round;stroke-miterlimit:10;}
	.st16{stroke:#000000;stroke-width:17.1072;stroke-linecap:round;stroke-linejoin:round;stroke-miterlimit:10;}
	.st17{fill:#FFFFFF;stroke:#000000;stroke-width:14.7375;stroke-linecap:round;stroke-linejoin:round;stroke-miterlimit:10;}
	.st18{fill:none;stroke:#000000;stroke-width:14.7375;stroke-linecap:round;stroke-linejoin:round;stroke-miterlimit:10;}
	.st19{stroke:#000000;stroke-width:14.7375;stroke-linecap:round;stroke-linejoin:round;stroke-miterlimit:10;}
	.st20{fill:#FFFFFF;stroke:#000000;stroke-width:14.2911;stroke-linecap:round;stroke-linejoin:round;stroke-miterlimit:10;}
	.st21{fill:none;stroke:#000000;stroke-width:13.497;stroke-miterlimit:10;}
	.st22{fill:#FFFFFF;stroke:#000000;stroke-width:13.497;stroke-linecap:round;stroke-linejoin:round;stroke-miterlimit:10;}
	.st23{fill:#FFFFFF;stroke:#000000;stroke-width:13.497;stroke-miterlimit:10;}
	.st24{fill:#FFFFFF;stroke:#000000;stroke-width:14.7439;stroke-linecap:round;stroke-miterlimit:10;}
	.st25{fill:#FFFFFF;stroke:#000000;stroke-width:14.7439;stroke-miterlimit:10;}
	.st26{stroke:#000000;stroke-width:13.9262;stroke-linecap:round;stroke-miterlimit:10;}
	
		.st27{display:inline;fill:#FFFFFF;stroke:#000000;stroke-width:14.6942;stroke-linecap:round;stroke-linejoin:round;stroke-miterlimit:10;}
	.st28{fill:#FFFFFF;stroke:#000000;stroke-width:14.6942;stroke-linecap:round;stroke-linejoin:round;stroke-miterlimit:10;}
	.st29{fill:none;stroke:#000000;stroke-width:24;stroke-linejoin:round;stroke-miterlimit:10;}
	.st30{fill:none;stroke:#000000;stroke-width:30.5612;stroke-linecap:round;stroke-linejoin:round;stroke-miterlimit:10;}
	.st31{fill:#FFFFFF;stroke:#000000;stroke-width:16.2993;stroke-linecap:round;stroke-linejoin:round;stroke-miterlimit:10;}
	.st32{display:inline;fill:#FFFFFF;stroke:#000000;stroke-width:13.497;stroke-linecap:round;stroke-miterlimit:10;}
	
		.st33{display:inline;fill:none;stroke:#000000;stroke-width:13.497;stroke-linecap:round;stroke-linejoin:round;stroke-miterlimit:10;}
	
		.st34{display:inline;fill:#FFFFFF;stroke:#000000;stroke-width:13.497;stroke-linecap:round;stroke-linejoin:round;stroke-miterlimit:10;}
	
		.st35{display:inline;fill:url(#);stroke:#000000;stroke-width:13.497;stroke-linecap:round;stroke-linejoin:round;stroke-miterlimit:10;}
	.st36{fill:#FFFFFF;stroke:#000000;stroke-width:15.2362;stroke-linecap:round;stroke-linejoin:round;stroke-miterlimit:10;}
	.st37{fill:#FFFFFF;stroke:#000000;stroke-width:14.8467;stroke-linecap:round;stroke-linejoin:round;stroke-miterlimit:10;}
	.st38{stroke:#000000;stroke-width:20.1683;stroke-linecap:round;stroke-miterlimit:10;}
	.st39{fill:none;stroke:#000000;stroke-width:14.8467;stroke-linecap:round;stroke-linejoin:round;stroke-miterlimit:10;}
	.st40{fill:#FFFFFF;stroke:#FFFFFF;stroke-width:3;stroke-miterlimit:10;}
	.st41{display:inline;fill:none;stroke:#000000;stroke-width:15;stroke-linecap:round;stroke-linejoin:round;stroke-miterlimit:10;}
	
		.st42{display:inline;fill:#FFFFFF;stroke:#000000;stroke-width:15;stroke-linecap:round;stroke-linejoin:round;stroke-miterlimit:10;}
	.st43{fill:#FFFFFF;stroke:#000000;stroke-width:15;stroke-linecap:round;stroke-linejoin:round;stroke-miterlimit:10;}
	.st44{fill:#FFFFFF;stroke:#000000;stroke-width:11.7326;stroke-linecap:round;stroke-linejoin:round;stroke-miterlimit:10;}
	.st45{fill:#FFFFFF;stroke:#000000;stroke-width:13.2623;stroke-linecap:round;stroke-linejoin:round;stroke-miterlimit:10;}
	.st46{fill:none;stroke:#000000;stroke-width:16;stroke-linecap:round;stroke-miterlimit:10;}
	.st47{fill:url(#);stroke:#000000;stroke-width:16;stroke-linecap:round;stroke-linejoin:round;stroke-miterlimit:10;}
	.st48{fill:#FFFFFF;stroke:#000000;stroke-width:16;stroke-linecap:round;stroke-miterlimit:10;}
	.st49{fill:#FFFFFF;stroke:#000000;stroke-width:13.2623;stroke-linecap:round;stroke-miterlimit:10;}
	.st50{stroke:#000000;stroke-width:4.5213;stroke-miterlimit:10;}
	.st51{fill:none;stroke:#000000;stroke-width:15.2344;stroke-linecap:round;stroke-linejoin:round;stroke-miterlimit:10;}
	.st52{fill:#FFFFFF;stroke:#000000;stroke-width:15.2344;stroke-linecap:round;stroke-linejoin:round;stroke-miterlimit:10;}
	.st53{stroke:#000000;stroke-width:18.3348;stroke-linecap:round;stroke-miterlimit:10;}
	.st54{fill:none;stroke:#000000;stroke-width:13.497;stroke-linecap:round;stroke-linejoin:round;stroke-miterlimit:10;}
	.st55{fill:#FFFFFF;stroke:#000000;stroke-width:15;stroke-linecap:square;stroke-linejoin:round;stroke-miterlimit:10;}
	.st56{fill:#FFFFFF;stroke:#000000;stroke-width:15;stroke-linejoin:round;stroke-miterlimit:10;}
	.st57{fill:none;stroke:#000000;stroke-width:15;stroke-linecap:round;stroke-linejoin:round;stroke-miterlimit:10;}
	.st58{fill:url(#);stroke:#000000;stroke-width:13.497;stroke-linecap:round;stroke-linejoin:round;stroke-miterlimit:10;}
	.st59{font-size:20.6105px;}
	.st60{font-size:10.3052px;}
	.st61{font-size:19.2364px;}
	.st62{font-size:10px;}
	.st63{display:inline;fill:none;stroke:#000000;stroke-width:16;stroke-linecap:round;stroke-linejoin:round;stroke-miterlimit:10;}
	.st64{fill:#FFFFFF;stroke:#000000;stroke-width:13.3058;stroke-linecap:round;stroke-linejoin:round;stroke-miterlimit:10;}
	.st65{fill:#FFFFFF;stroke:#000000;stroke-width:17;stroke-linecap:round;stroke-linejoin:round;stroke-miterlimit:10;}
	.st66{fill:#FFFFFF;stroke:#000000;stroke-width:15.2517;stroke-linecap:round;stroke-linejoin:round;stroke-miterlimit:10;}
	.st67{stroke:#000000;stroke-width:3;stroke-miterlimit:10;}
	.st68{fill:none;}
	.st69{fill:#06A6FF;}
	.st70{fill:#FF0303;}
	.st71{fill:#3DFF06;}
	.st72{fill:none;stroke:#000000;stroke-width:0;stroke-linecap:round;stroke-linejoin:round;}
</style>
<g id="Layer_1" class="st0">
	<g class="st1">
		<text transform="matrix(1 0 0 1 27.9465 380.1699)" class="st6 st7 st8">CAN’T</text>
		<text transform="matrix(1 0 0 1 4.6462 172.4951)" class="st6 st9">Capitalism</text>
		<text transform="matrix(1 0 0 1 137.3762 513.752)" class="st6 st10">Save Us</text>
	</g>
	<g class="st1">
		<g>
			<text transform="matrix(1 0 0 1 258.9679 599.7979)"><tspan x="0" y="0" class="st6 st59">www</tspan><tspan x="45.14" y="0" class="st6 st60"> </tspan><tspan x="46.99" y="0" class="st6 st59">.</tspan><tspan x="51.77" y="0" class="st6 st60"> </tspan><tspan x="53.63" y="0" class="st6 st59">Capitalism</tspan><tspan x="150.43" y="0" class="st6 st61"> </tspan><tspan x="153.9" y="0" class="st6 st59">Is</tspan><tspan x="168.88" y="0" class="st6 st61"> </tspan><tspan x="172.34" y="0" class="st6 st59">A</tspan><tspan x="186.6" y="0" class="st6 st60"> </tspan><tspan x="188.46" y="0" class="st6 st59">Virus</tspan><tspan x="236.15" y="0" class="st6 st60"> </tspan><tspan x="238.01" y="0" class="st6 st59">.</tspan><tspan x="242.79" y="0" class="st6 st60"> </tspan><tspan x="244.64" y="0" class="st6 st59">org</tspan></text>
		</g>
		<g>
			<text transform="matrix(1 0 0 1 299.1802 22.1245)"><tspan x="0" y="0" class="st6 st59">#</tspan><tspan x="12.7" y="0" class="st6 st62"> </tspan><tspan x="14.5" y="0" class="st6 st59">Capitalism</tspan><tspan x="111.3" y="0" class="st6 st62"> </tspan><tspan x="113.1" y="0" class="st6 st59">Is</tspan><tspan x="128.09" y="0" class="st6 st62"> </tspan><tspan x="129.89" y="0" class="st6 st59">A</tspan><tspan x="144.15" y="0" class="st6 st62"> </tspan><tspan x="145.95" y="0" class="st6 st59">Virus</tspan></text>
		</g>
	</g>
</g>
<g id="Layer_1_copy">
	<path class="st68" d="M145.12,150.5c0,3.83,3,6.33,7.5,6.33c7.67,0,13.83-5.67,13.83-15.33v-1.17l-11,2
		C148.96,143.67,145.12,145.67,145.12,150.5z"/>
	<path class="st68" d="M238.27,134.83v1c0,10.83,5.83,17.83,15,17.83c10.5,0,15.33-7.5,15.33-18.33c0-10.67-4.83-18.16-15.33-18.16
		C244.11,117.17,238.27,124.17,238.27,134.83z"/>
	<polygon class="st68" points="306.66,14.62 304.89,14.62 304.4,16.64 306.17,16.64 	"/>
	<path class="st68" d="M420.46,462.74c-7.76,0-11.19,4.77-12.08,11.04h23.42C431.5,467.81,427.62,462.74,420.46,462.74z"/>
	<polygon class="st68" points="438.43,590.83 438.35,590.83 436.87,594.67 439.92,594.67 	"/>
	<path class="st68" d="M365.18,597.08c0,0.47,0.37,0.78,0.93,0.78c0.95,0,1.71-0.7,1.71-1.9v-0.14l-1.36,0.25
		C365.66,596.23,365.18,596.48,365.18,597.08z"/>
	<path class="st68" d="M330.02,597.08c0,0.47,0.37,0.78,0.93,0.78c0.95,0,1.71-0.7,1.71-1.9v-0.14l-1.36,0.25
		C330.5,596.23,330.02,596.48,330.02,597.08z"/>
	<path class="st68" d="M256.25,494.06c0,3.43,2.68,5.67,6.71,5.67c6.86,0,12.38-5.07,12.38-13.72v-1.04l-9.84,1.79
		C259.68,487.95,256.25,489.74,256.25,494.06z"/>
	<path class="st68" d="M341.54,595.26c0,1.34,0.72,2.21,1.86,2.21c1.3,0,1.9-0.93,1.9-2.27c0-1.32-0.6-2.25-1.9-2.25
		c-1.13,0-1.86,0.87-1.86,2.18V595.26z"/>
	<path class="st68" d="M331.05,19.4c0,0.47,0.37,0.78,0.93,0.78c0.95,0,1.71-0.7,1.71-1.9v-0.14l-1.36,0.25
		C331.53,18.56,331.05,18.81,331.05,19.4z"/>
	<path class="st68" d="M507.44,595.2c0,1.38,0.49,2.33,1.67,2.33c1.15,0,1.67-0.95,1.67-2.33s-0.52-2.33-1.67-2.33
		C507.93,592.87,507.44,593.82,507.44,595.2z"/>
	<polygon class="st68" points="436.14,13.16 436.05,13.16 434.57,16.99 437.62,16.99 	"/>
	<path class="st68" d="M527.76,594.85c0.56,0,0.97-0.52,0.97-1.34c0-0.8-0.41-1.32-0.97-1.32c-0.56,0-0.97,0.52-0.97,1.32
		C526.79,594.33,527.2,594.85,527.76,594.85z"/>
	<path class="st68" d="M527.51,601.61c1.55,0,2.68-0.31,2.68-0.87c0-0.39-0.29-0.54-0.85-0.54h-3.38c-0.37,0-0.62,0.21-0.62,0.56
		C525.35,601.43,526.27,601.61,527.51,601.61z"/>
	<path class="st68" d="M429.41,150.5c0,3.83,3,6.33,7.5,6.33c7.67,0,13.83-5.67,13.83-15.33v-1.17l-11,2
		C433.24,143.67,429.41,145.67,429.41,150.5z"/>
	<polygon class="st68" points="275.34,274.45 257.85,319.66 293.81,319.66 276.32,274.45 	"/>
	<path class="st68" d="M342.57,17.59c0,1.34,0.72,2.21,1.86,2.21c1.3,0,1.9-0.93,1.9-2.27c0-1.32-0.6-2.25-1.9-2.25
		c-1.13,0-1.86,0.87-1.86,2.19V17.59z"/>
	<path class="st68" d="M366.21,19.4c0,0.47,0.37,0.78,0.93,0.78c0.95,0,1.71-0.7,1.71-1.9v-0.14l-1.36,0.25
		C366.69,18.56,366.21,18.81,366.21,19.4z"/>
	<path d="M36.45,303.62c0,47.15,33.78,79.47,78.5,79.47c46.9,0,71.94-29.65,74.85-67.8l-39.61-1.7
		c-2.43,17.01-11.67,32.81-35.48,32.81c-22.6,0-35.73-16.77-35.73-42.77s13.12-42.77,35.73-42.77c23.82,0,33.05,15.8,35.48,32.81
		l39.61-1.46c-2.92-38.16-27.95-68.05-74.85-68.05C70.23,224.15,36.45,256.47,36.45,303.62z"/>
	<path d="M253.96,227.06l-61,153.11h41.56l11.42-29.65h59.78l11.42,29.65h43.99l-61-153.11H253.96z M257.85,319.66l17.5-45.2h0.97
		l17.5,45.2H257.85z"/>
	<polygon points="478.02,311.88 418.24,227.06 378.87,227.06 378.87,380.17 416.78,380.17 416.78,289.52 482.88,380.17 
		515.94,380.17 515.94,227.06 478.02,227.06 	"/>
	<path d="M582.03,261.09v-34.02h-41.07v36.45h18.47c-0.24,9.72-6.8,12.88-18.47,13.37v18.71
		C568.18,294.87,582.03,284.9,582.03,261.09z"/>
	<polygon points="695.04,261.09 748.26,261.09 748.26,227.06 601.47,227.06 601.47,261.09 653.97,261.09 653.97,380.17 
		695.04,380.17 	"/>
	<path d="M61.8,174.5c32.16,0,49.33-20.33,51.33-46.49l-27.16-1.17c-1.67,11.66-8,22.5-24.33,22.5c-15.5,0-24.5-11.5-24.5-29.33
		c0-17.83,9-29.33,24.5-29.33c16.33,0,22.66,10.83,24.33,22.5l27.16-1c-2-26.16-19.16-46.66-51.33-46.66
		C31.14,65.51,7.98,87.67,7.98,120C7.98,152.33,31.14,174.5,61.8,174.5z"/>
	<path d="M145.62,130.67c-16.16,2.83-26.5,9-26.5,23.33c0,12.66,9.5,20.16,24,20.16c11.83,0,20.33-4.5,24.66-13.16
		c2.5,8.5,9.67,13.16,18.83,13.16c7.67,0,13-2.17,16.83-4.83V155c-2.17,0.83-3.83,1.17-6,1.17c-2.83,0-4.5-1.67-4.5-5.5v-25.33
		c0-20.66-14.5-29.16-34.16-29.16c-22.33,0-34.5,11.33-36.83,27.66l25,1.67c1.17-5.5,4.17-9.33,10.17-9.33
		c6.5,0,9.33,3.67,9.33,9.83v1.17L145.62,130.67z M166.45,141.5c0,9.67-6.17,15.33-13.83,15.33c-4.5,0-7.5-2.5-7.5-6.33
		c0-4.83,3.83-6.83,10.33-8.17l11-2V141.5z"/>
	<path d="M238.27,111V98.17h-27v100.98h27v-39.33c3.67,8.67,12,14.67,24.5,14.67c21.83,0,33-17.16,33-39.16
		c0-21.83-11.17-39.16-33-39.16C250.27,96.17,241.94,102.17,238.27,111z M268.6,135.33c0,10.83-4.83,18.33-15.33,18.33
		c-9.17,0-15-7-15-17.83v-1c0-10.67,5.83-17.66,15-17.66C263.77,117.17,268.6,124.67,268.6,135.33z"/>
	<rect x="306.43" y="98.17" width="27" height="74.32"/>
	<rect x="306.26" y="67.51" width="27.33" height="23.66"/>
	<path d="M340.76,100.17v16.66h10v34.99c0,17.5,11.83,22.66,24.33,22.66c10.17,0,16.66-2.5,22.33-6.67v-17.5
		c-4.5,1.83-8.17,2.5-11.5,2.5c-5.5,0-8.5-2.5-8.5-8.83v-27.16h19.33V98.17h-19.33v-20.5h-17l-2.5,9.67
		c-1.83,6.83-4.17,10.83-11.67,12L340.76,100.17z"/>
	<path d="M431.24,125.5c1.17-5.5,4.17-9.33,10.17-9.33c6.5,0,9.33,3.67,9.33,9.83v1.17l-20.83,3.5c-16.17,2.83-26.5,9-26.5,23.33
		c0,12.66,9.5,20.16,24,20.16c11.83,0,20.33-4.5,24.66-13.16c2.5,8.5,9.67,13.16,18.83,13.16c7.67,0,13-2.17,16.83-4.83V155
		c-2.17,0.83-3.83,1.17-6,1.17c-2.83,0-4.5-1.67-4.5-5.5v-25.33c0-20.66-14.5-29.16-34.16-29.16c-22.33,0-34.49,11.33-36.83,27.66
		L431.24,125.5z M450.74,141.5c0,9.67-6.17,15.33-13.83,15.33c-4.5,0-7.5-2.5-7.5-6.33c0-4.83,3.83-6.83,10.33-8.17l11-2V141.5z"/>
	<rect x="495.57" y="67.51" width="27" height="104.98"/>
	<rect x="537.06" y="67.51" width="27.33" height="23.66"/>
	<rect x="537.23" y="98.17" width="27" height="74.32"/>
	<path d="M575.05,121.34c0,15.16,9.5,21,27.5,23.83l11,1.67c5.17,0.83,6.83,2.83,6.83,5.67c0,3-3.17,5.17-9.17,5.17
		c-8.17,0-13.16-3.5-14.16-9.67l-23.5,0.33c1.5,18,16.83,26.16,37.33,26.16c21.16,0,34.5-9,34.5-24.66c0-14.5-9.67-22-26.33-24.66
		l-14.5-2.5c-2.5-0.33-4.5-1.67-4.5-4.17c0-3.33,3-5.33,8.17-5.33c8.33,0,13,3.33,14,8.67l22.16-0.67c-1.5-15.5-14.17-25-35.66-25
		C587.88,96.17,575.05,106.67,575.05,121.34z"/>
	<path d="M682.7,136c0-11.17,3.17-18.5,12-18.5c8.17,0,10.17,5.33,10.17,15.5v39.49h27V136c0-11.17,3-18.5,12-18.5
		c8.17,0,10,5.33,10,15.5v39.49h27v-46.66c0-15.5-6-29.66-26.5-29.66c-12.5,0-21.33,6.33-25.33,14.66
		c-3.17-8.67-10-14.66-23.16-14.66c-11.17,0-19.16,5-23.16,13.16V98.17h-27v74.32h27V136z"/>
	<path d="M186.6,495.56c-10.44,0-19.54-4.03-20.43-15.81l-23.27,0.75c0,22.67,18.2,35.05,43.7,35.05c21.93,0,39.23-9.99,39.23-29.98
		c0-15.36-8.95-25.65-28.64-29.08l-17.75-3.13c-5.82-1.04-9.4-2.69-9.4-7.01c0-5.22,4.77-8.5,13.12-8.5
		c9.7,0,16.71,4.47,17.45,14.17l23.27-0.45c-0.45-20.88-14.47-33.56-40.42-33.56c-23.42,0-38.33,11.48-38.33,30.58
		c0,16.41,10.74,25.06,26.1,27.89l17.15,2.98c7.16,1.34,12.68,2.24,12.68,7.76C201.06,492.42,195.4,495.56,186.6,495.56z"/>
	<path d="M308.45,498.09c-1.94,0.75-3.43,1.04-5.37,1.04c-2.54,0-4.03-1.49-4.03-4.92v-22.67c0-18.5-12.98-26.1-30.58-26.1
		c-19.99,0-30.88,10.14-32.96,24.76l22.37,1.49c1.04-4.92,3.73-8.35,9.1-8.35c5.82,0,8.35,3.28,8.35,8.8v1.04l-18.64,3.13
		c-14.47,2.54-23.72,8.05-23.72,20.88c0,11.34,8.5,18.05,21.48,18.05c10.59,0,18.2-4.03,22.08-11.78
		c2.24,7.61,8.65,11.78,16.85,11.78c6.86,0,11.63-1.94,15.06-4.33V498.09z M275.34,486.01c0,8.65-5.52,13.72-12.38,13.72
		c-4.03,0-6.71-2.24-6.71-5.67c0-4.33,3.43-6.12,9.25-7.31l9.84-1.79V486.01z"/>
	<polygon points="359.91,447.23 345.44,488.54 344.84,488.54 330.38,447.23 305.02,447.23 329.78,513.75 358.57,513.75 
		383.33,447.23 	"/>
	<path d="M454.32,491.83l-19.39-1.79c-2.24,5.22-6.41,7.46-12.98,7.46c-7.31,0-13.27-3.88-13.87-12.08h46.69v-6.71
		c0-18.05-11.78-33.26-34.01-33.26c-20.73,0-36.24,15.06-36.24,36.1c0,21.18,15.21,34.01,36.54,34.01
		C438.66,515.54,450.89,507.04,454.32,491.83z M420.46,462.74c7.16,0,11.04,5.07,11.34,11.04h-23.42
		C409.28,467.51,412.71,462.74,420.46,462.74z"/>
	<path d="M516.66,472.29v-52.5h-25.21v56.68c0,27.44,18.5,39.08,42.66,39.08s42.81-11.63,42.81-39.08v-56.68h-25.36v52.5
		c0,14.32-4.33,21.93-17.45,21.93C521.14,494.21,516.66,486.61,516.66,472.29z"/>
	<path d="M618.83,500.48c-7.31,0-11.78-3.13-12.68-8.65l-21.03,0.3c1.34,16.11,15.06,23.42,33.41,23.42
		c18.94,0,30.88-8.05,30.88-22.08c0-12.98-8.65-19.69-23.57-22.07l-12.98-2.24c-2.24-0.3-4.03-1.49-4.03-3.73
		c0-2.98,2.68-4.77,7.31-4.77c7.46,0,11.63,2.98,12.53,7.76l19.84-0.6c-1.34-13.87-12.68-22.37-31.92-22.37
		c-18.64,0-30.13,9.4-30.13,22.52c0,13.57,8.5,18.79,24.61,21.33l9.84,1.49c4.62,0.75,6.12,2.54,6.12,5.07
		C627.03,498.54,624.2,500.48,618.83,500.48z"/>
	<polygon points="299.46,595.82 298.12,590.6 295.46,590.6 294.12,595.82 294.04,595.82 292.39,590.6 289.15,590.6 289.07,590.6 
		286.15,590.6 284.5,595.82 284.41,595.82 283.07,590.6 280.41,590.6 279.07,595.82 278.99,595.82 277.34,590.6 274.11,590.6 
		274.02,590.6 271.1,590.6 269.45,595.82 269.37,595.82 268.03,590.6 265.37,590.6 264.03,595.82 263.95,595.82 262.3,590.6 
		258.98,590.6 261.88,599.8 265.16,599.8 266.5,594.6 266.58,594.6 267.92,599.8 271.2,599.8 274.07,590.74 276.93,599.8 
		280.21,599.8 281.55,594.6 281.63,594.6 282.97,599.8 286.25,599.8 289.11,590.74 291.98,599.8 295.25,599.8 296.59,594.6 
		296.68,594.6 298.02,599.8 301.29,599.8 304.2,590.6 301.19,590.6 299.54,595.82 	"/>
	<rect x="306.63" y="596.25" width="3.55" height="3.55"/>
	<path d="M319.7,589.68c2.02,0,2.8,1.34,3.01,2.78l3.36-0.12c-0.25-3.24-2.37-5.77-6.35-5.77c-3.79,0-6.66,2.74-6.66,6.74
		s2.87,6.74,6.66,6.74c3.98,0,6.1-2.51,6.35-5.75l-3.36-0.14c-0.21,1.44-0.99,2.78-3.01,2.78c-1.92,0-3.03-1.42-3.03-3.63
		S317.78,589.68,319.7,589.68z"/>
	<path d="M330.08,594.62c-2,0.35-3.28,1.11-3.28,2.89c0,1.57,1.17,2.49,2.97,2.49c1.46,0,2.52-0.56,3.05-1.63
		c0.31,1.05,1.2,1.63,2.33,1.63c0.95,0,1.61-0.27,2.08-0.6v-1.77c-0.27,0.1-0.47,0.14-0.74,0.14c-0.35,0-0.56-0.21-0.56-0.68v-3.13
		c0-2.56-1.79-3.61-4.23-3.61c-2.76,0-4.27,1.4-4.56,3.42l3.09,0.21c0.14-0.68,0.52-1.15,1.26-1.15c0.8,0,1.15,0.45,1.15,1.22v0.14
		L330.08,594.62z M332.66,595.96c0,1.2-0.76,1.9-1.71,1.9c-0.56,0-0.93-0.31-0.93-0.78c0-0.6,0.47-0.85,1.28-1.01l1.36-0.25V595.96z
		"/>
	<path d="M338.2,590.6v12.49h3.34v-4.86c0.45,1.07,1.48,1.81,3.03,1.81c2.7,0,4.08-2.12,4.08-4.84c0-2.7-1.38-4.84-4.08-4.84
		c-1.55,0-2.58,0.74-3.03,1.83v-1.59H338.2z M343.4,592.95c1.3,0,1.9,0.93,1.9,2.25c0,1.34-0.6,2.27-1.9,2.27
		c-1.13,0-1.86-0.87-1.86-2.21v-0.12C341.54,593.82,342.27,592.95,343.4,592.95z"/>
	<rect x="349.95" y="586.81" width="3.38" height="2.93"/>
	<rect x="349.97" y="590.6" width="3.34" height="9.19"/>
	<path d="M358.46,600.04c1.26,0,2.06-0.31,2.76-0.82v-2.16c-0.56,0.23-1.01,0.31-1.42,0.31c-0.68,0-1.05-0.31-1.05-1.09v-3.36h2.39
		v-2.31h-2.39v-2.54h-2.1l-0.31,1.2c-0.23,0.85-0.52,1.34-1.44,1.48l-0.68,0.1v2.06h1.24v4.33
		C355.46,599.41,356.92,600.04,358.46,600.04z"/>
	<path d="M365.25,594.62c-2,0.35-3.28,1.11-3.28,2.89c0,1.57,1.17,2.49,2.97,2.49c1.46,0,2.52-0.56,3.05-1.63
		c0.31,1.05,1.2,1.63,2.33,1.63c0.95,0,1.61-0.27,2.08-0.6v-1.77c-0.27,0.1-0.47,0.14-0.74,0.14c-0.35,0-0.56-0.21-0.56-0.68v-3.13
		c0-2.56-1.79-3.61-4.23-3.61c-2.76,0-4.27,1.4-4.56,3.42l3.09,0.21c0.14-0.68,0.52-1.15,1.26-1.15c0.8,0,1.15,0.45,1.15,1.22v0.14
		L365.25,594.62z M367.82,595.96c0,1.2-0.76,1.9-1.71,1.9c-0.56,0-0.93-0.31-0.93-0.78c0-0.6,0.47-0.85,1.28-1.01l1.36-0.25V595.96z
		"/>
	<rect x="373.37" y="586.81" width="3.34" height="12.99"/>
	<rect x="378.52" y="590.6" width="3.34" height="9.19"/>
	<rect x="378.5" y="586.81" width="3.38" height="2.93"/>
	<path d="M387.67,597.96c-1.01,0-1.63-0.43-1.75-1.2l-2.91,0.04c0.19,2.23,2.08,3.24,4.62,3.24c2.62,0,4.27-1.11,4.27-3.05
		c0-1.79-1.2-2.72-3.26-3.05l-1.79-0.31c-0.31-0.04-0.56-0.21-0.56-0.52c0-0.41,0.37-0.66,1.01-0.66c1.03,0,1.61,0.41,1.73,1.07
		l2.74-0.08c-0.19-1.92-1.75-3.09-4.41-3.09c-2.58,0-4.16,1.3-4.16,3.11c0,1.88,1.17,2.6,3.4,2.95l1.36,0.21
		c0.64,0.1,0.85,0.35,0.85,0.7C388.8,597.7,388.41,597.96,387.67,597.96z"/>
	<path d="M408.65,599.8v-5.77c0-1.92-0.74-3.67-3.28-3.67c-1.55,0-2.64,0.78-3.13,1.81c-0.39-1.07-1.24-1.81-2.87-1.81
		c-1.38,0-2.37,0.62-2.87,1.63v-1.38h-3.34v9.19h3.34v-4.51c0-1.38,0.39-2.29,1.48-2.29c1.01,0,1.26,0.66,1.26,1.92v4.89h3.34v-4.51
		c0-1.38,0.37-2.29,1.48-2.29c1.01,0,1.24,0.66,1.24,1.92v4.89H408.65z"/>
	<rect x="413.91" y="586.81" width="3.5" height="12.99"/>
	<path d="M423.3,597.96c-1.01,0-1.63-0.43-1.75-1.2l-2.91,0.04c0.19,2.23,2.08,3.24,4.62,3.24c2.62,0,4.27-1.11,4.27-3.05
		c0-1.79-1.2-2.72-3.26-3.05l-1.79-0.31c-0.31-0.04-0.56-0.21-0.56-0.52c0-0.41,0.37-0.66,1.01-0.66c1.03,0,1.61,0.41,1.73,1.07
		l2.74-0.08c-0.19-1.92-1.75-3.09-4.41-3.09c-2.58,0-4.16,1.3-4.16,3.11c0,1.88,1.18,2.6,3.4,2.95l1.36,0.21
		c0.64,0.1,0.85,0.35,0.85,0.7C424.44,597.7,424.05,597.96,423.3,597.96z"/>
	<path d="M431.36,599.8h3.52l0.97-2.51h5.07l0.97,2.51h3.73l-5.17-12.99h-3.92L431.36,599.8z M438.35,590.83h0.08l1.48,3.83h-3.05
		L438.35,590.83z"/>
	<polygon points="456.16,599.8 461.15,586.81 457.66,586.81 454.45,595.45 454.36,595.45 451.15,586.81 447.48,586.81 452.47,599.8 
			"/>
	<rect x="462.05" y="590.6" width="3.34" height="9.19"/>
	<rect x="462.03" y="586.81" width="3.38" height="2.93"/>
	<path d="M467.2,590.6v9.19h3.34v-4.21c0-1.55,0.76-2.12,2-2.12c0.64,0,1.13,0.12,1.59,0.39l0.21-3.15
		c-0.23-0.19-0.72-0.35-1.28-0.35c-1.22,0-2.19,0.85-2.52,1.88v-1.63H467.2z"/>
	<path d="M484.77,599.8v-9.19h-3.34v4.51c0,1.4-0.41,2.31-1.46,2.31c-1.01,0-1.36-0.68-1.36-1.92v-4.91h-3.34v5.79
		c0,1.92,0.76,3.65,3.28,3.65c1.38,0,2.39-0.6,2.89-1.63v1.38H484.77z"/>
	<path d="M490.58,597.96c-1.01,0-1.63-0.43-1.75-1.2l-2.91,0.04c0.19,2.23,2.08,3.24,4.62,3.24c2.62,0,4.27-1.11,4.27-3.05
		c0-1.79-1.2-2.72-3.26-3.05l-1.79-0.31c-0.31-0.04-0.56-0.21-0.56-0.52c0-0.41,0.37-0.66,1.01-0.66c1.03,0,1.61,0.41,1.73,1.07
		l2.74-0.08c-0.19-1.92-1.75-3.09-4.41-3.09c-2.58,0-4.16,1.3-4.16,3.11c0,1.88,1.18,2.6,3.4,2.95l1.36,0.21
		c0.64,0.1,0.85,0.35,0.85,0.7C491.71,597.7,491.32,597.96,490.58,597.96z"/>
	<rect x="497.64" y="596.25" width="3.55" height="3.55"/>
	<path d="M504.07,595.2c0,2.87,2.02,4.84,5.03,4.84c2.99,0,5.03-1.98,5.03-4.84c0-2.84-2.04-4.84-5.03-4.84
		C506.09,590.36,504.07,592.36,504.07,595.2z M510.77,595.2c0,1.38-0.52,2.33-1.67,2.33c-1.17,0-1.67-0.95-1.67-2.33
		s0.49-2.33,1.67-2.33C510.26,592.87,510.77,593.82,510.77,595.2z"/>
	<path d="M515.45,590.6v9.19h3.34v-4.21c0-1.55,0.76-2.12,2-2.12c0.64,0,1.13,0.12,1.59,0.39l0.21-3.15
		c-0.23-0.19-0.72-0.35-1.28-0.35c-1.22,0-2.19,0.85-2.52,1.88v-1.63H515.45z"/>
	<path d="M522.6,601.1c0,1.73,2.27,2.25,4.89,2.25c2.99,0,5.77-1.05,5.77-3.34c0-1.55-1.05-2.64-3.13-2.64h-3.81
		c-0.56,0-0.78-0.25-0.78-0.56c0-0.19,0.06-0.33,0.19-0.43c0.6,0.19,1.26,0.27,2,0.27c2.6,0,4.47-1.2,4.47-3.13
		c0-0.43-0.1-0.83-0.29-1.18c0.45-0.1,0.95-0.14,1.34-0.14v-2.52c-1.01,0-2.02,0.66-2.58,1.42c-0.78-0.47-1.83-0.74-2.95-0.74
		c-2.58,0-4.43,1.2-4.43,3.15c0,1.01,0.49,1.79,1.32,2.33c-0.99,0.37-1.57,1.05-1.57,1.94c0,0.78,0.49,1.53,1.32,1.79
		C523.33,599.65,522.6,600.29,522.6,601.1z M527.76,592.19c0.56,0,0.97,0.52,0.97,1.32c0,0.82-0.41,1.34-0.97,1.34
		c-0.56,0-0.97-0.52-0.97-1.34C526.79,592.71,527.2,592.19,527.76,592.19z M525.96,600.21h3.38c0.56,0,0.85,0.14,0.85,0.54
		c0,0.56-1.13,0.87-2.68,0.87c-1.24,0-2.16-0.19-2.16-0.85C525.35,600.42,525.59,600.21,525.96,600.21z"/>
	<path d="M300.6,22.12h2.49l0.8-3.42h1.77l-0.8,3.42h2.49l0.8-3.42h2.04l0.43-2.06h-1.98l0.49-2.02h1.88l0.43-2.06h-1.83l0.82-3.42
		h-2.49l-0.82,3.42h-1.77l0.83-3.42h-2.49l-0.82,3.42h-2.02l-0.43,2.06h1.98l-0.49,2.02h-1.88l-0.43,2.06h1.81L300.6,22.12z
		 M304.89,14.62h1.77l-0.49,2.02h-1.77L304.89,14.62z"/>
	<path d="M320.75,22.37c3.98,0,6.1-2.52,6.35-5.75l-3.36-0.14c-0.21,1.44-0.99,2.78-3.01,2.78c-1.92,0-3.03-1.42-3.03-3.63
		s1.11-3.63,3.03-3.63c2.02,0,2.8,1.34,3.01,2.78l3.36-0.12c-0.25-3.24-2.37-5.77-6.35-5.77c-3.79,0-6.66,2.74-6.66,6.74
		S316.95,22.37,320.75,22.37z"/>
	<path d="M331.11,16.95c-2,0.35-3.28,1.11-3.28,2.89c0,1.57,1.18,2.49,2.97,2.49c1.46,0,2.52-0.56,3.05-1.63
		c0.31,1.05,1.2,1.63,2.33,1.63c0.95,0,1.61-0.27,2.08-0.6v-1.77c-0.27,0.1-0.47,0.14-0.74,0.14c-0.35,0-0.56-0.21-0.56-0.68v-3.13
		c0-2.56-1.79-3.61-4.23-3.61c-2.76,0-4.27,1.4-4.56,3.42l3.09,0.21c0.14-0.68,0.52-1.15,1.26-1.15c0.8,0,1.15,0.45,1.15,1.22v0.14
		L331.11,16.95z M333.69,18.29c0,1.2-0.76,1.9-1.71,1.9c-0.56,0-0.93-0.31-0.93-0.78c0-0.6,0.47-0.85,1.28-1.01l1.36-0.25V18.29z"/>
	<path d="M339.23,12.93v12.49h3.34v-4.87c0.45,1.07,1.48,1.81,3.03,1.81c2.7,0,4.08-2.12,4.08-4.84c0-2.7-1.38-4.84-4.08-4.84
		c-1.55,0-2.58,0.74-3.03,1.83v-1.59H339.23z M344.43,15.28c1.3,0,1.9,0.93,1.9,2.25c0,1.34-0.6,2.27-1.9,2.27
		c-1.13,0-1.86-0.87-1.86-2.21v-0.12C342.57,16.15,343.29,15.28,344.43,15.28z"/>
	<rect x="351" y="12.93" width="3.34" height="9.19"/>
	<rect x="350.98" y="9.14" width="3.38" height="2.93"/>
	<path d="M357.68,10.39l-0.31,1.2c-0.23,0.85-0.52,1.34-1.44,1.48l-0.68,0.1v2.06h1.24v4.33c0,2.16,1.46,2.8,3.01,2.8
		c1.26,0,2.06-0.31,2.76-0.82v-2.16c-0.56,0.23-1.01,0.31-1.42,0.31c-0.68,0-1.05-0.31-1.05-1.09v-3.36h2.39v-2.31h-2.39v-2.54
		H357.68z"/>
	<path d="M366.27,16.95c-2,0.35-3.28,1.11-3.28,2.89c0,1.57,1.18,2.49,2.97,2.49c1.46,0,2.51-0.56,3.05-1.63
		c0.31,1.05,1.2,1.63,2.33,1.63c0.95,0,1.61-0.27,2.08-0.6v-1.77c-0.27,0.1-0.47,0.14-0.74,0.14c-0.35,0-0.56-0.21-0.56-0.68v-3.13
		c0-2.56-1.79-3.61-4.23-3.61c-2.76,0-4.27,1.4-4.56,3.42l3.09,0.21c0.14-0.68,0.52-1.15,1.26-1.15c0.8,0,1.15,0.45,1.15,1.22v0.14
		L366.27,16.95z M368.85,18.29c0,1.2-0.76,1.9-1.71,1.9c-0.56,0-0.93-0.31-0.93-0.78c0-0.6,0.47-0.85,1.28-1.01l1.36-0.25V18.29z"/>
	<rect x="374.39" y="9.14" width="3.34" height="12.99"/>
	<rect x="379.53" y="9.14" width="3.38" height="2.93"/>
	<rect x="379.55" y="12.93" width="3.34" height="9.19"/>
	<path d="M388.7,20.29c-1.01,0-1.63-0.43-1.75-1.2l-2.91,0.04c0.19,2.23,2.08,3.24,4.62,3.24c2.62,0,4.27-1.11,4.27-3.05
		c0-1.79-1.2-2.72-3.26-3.05l-1.79-0.31c-0.31-0.04-0.56-0.21-0.56-0.52c0-0.41,0.37-0.66,1.01-0.66c1.03,0,1.61,0.41,1.73,1.07
		l2.74-0.08c-0.19-1.92-1.75-3.09-4.41-3.09c-2.58,0-4.16,1.3-4.16,3.11c0,1.88,1.18,2.6,3.4,2.95l1.36,0.21
		c0.64,0.1,0.85,0.35,0.85,0.7C389.83,20.02,389.44,20.29,388.7,20.29z"/>
	<path d="M394.2,12.93v9.19h3.34v-4.51c0-1.38,0.39-2.29,1.48-2.29c1.01,0,1.26,0.66,1.26,1.92v4.89h3.34v-4.51
		c0-1.38,0.37-2.29,1.48-2.29c1.01,0,1.24,0.66,1.24,1.92v4.89h3.34v-5.77c0-1.92-0.74-3.67-3.28-3.67c-1.55,0-2.64,0.78-3.13,1.81
		c-0.39-1.07-1.24-1.81-2.87-1.81c-1.38,0-2.37,0.62-2.87,1.63v-1.38H394.2z"/>
	<rect x="413.27" y="9.14" width="3.5" height="12.99"/>
	<path d="M422.67,20.29c-1.01,0-1.63-0.43-1.75-1.2l-2.91,0.04c0.19,2.23,2.08,3.24,4.62,3.24c2.62,0,4.27-1.11,4.27-3.05
		c0-1.79-1.2-2.72-3.26-3.05l-1.79-0.31c-0.31-0.04-0.56-0.21-0.56-0.52c0-0.41,0.37-0.66,1.01-0.66c1.03,0,1.61,0.41,1.73,1.07
		l2.74-0.08c-0.19-1.92-1.75-3.09-4.41-3.09c-2.58,0-4.16,1.3-4.16,3.11c0,1.88,1.18,2.6,3.4,2.95l1.36,0.21
		c0.64,0.1,0.85,0.35,0.85,0.7C423.8,20.02,423.41,20.29,422.67,20.29z"/>
	<path d="M438.63,19.61l0.97,2.52h3.73l-5.17-12.99h-3.92l-5.17,12.99h3.52l0.97-2.52H438.63z M436.05,13.16h0.08l1.48,3.83h-3.05
		L436.05,13.16z"/>
	<polygon points="445.13,9.14 450.12,22.12 453.81,22.12 458.8,9.14 455.31,9.14 452.1,17.77 452.01,17.77 448.8,9.14 	"/>
	<rect x="459.68" y="9.14" width="3.38" height="2.93"/>
	<rect x="459.7" y="12.93" width="3.34" height="9.19"/>
	<path d="M468.19,17.92c0-1.55,0.76-2.12,2-2.12c0.64,0,1.13,0.12,1.59,0.39l0.21-3.15c-0.23-0.19-0.72-0.35-1.28-0.35
		c-1.22,0-2.19,0.85-2.52,1.88v-1.63h-3.34v9.19h3.34V17.92z"/>
	<path d="M476.19,22.37c1.38,0,2.39-0.6,2.89-1.63v1.38h3.34v-9.19h-3.34v4.51c0,1.4-0.41,2.31-1.46,2.31
		c-1.01,0-1.36-0.68-1.36-1.92v-4.91h-3.34v5.79C472.91,20.64,473.67,22.37,476.19,22.37z"/>
	<path d="M488.18,22.37c2.62,0,4.27-1.11,4.27-3.05c0-1.79-1.2-2.72-3.26-3.05l-1.79-0.31c-0.31-0.04-0.56-0.21-0.56-0.52
		c0-0.41,0.37-0.66,1.01-0.66c1.03,0,1.61,0.41,1.73,1.07l2.74-0.08c-0.19-1.92-1.75-3.09-4.41-3.09c-2.58,0-4.16,1.3-4.16,3.11
		c0,1.88,1.17,2.6,3.4,2.95l1.36,0.21c0.64,0.1,0.85,0.35,0.85,0.7c0,0.37-0.39,0.64-1.13,0.64c-1.01,0-1.63-0.43-1.75-1.2
		l-2.91,0.04C483.75,21.36,485.65,22.37,488.18,22.37z"/>
</g>
</svg>
