<?xml version="1.0" encoding="utf-8"?>
<!-- Generator: Adobe Illustrator 23.1.1, SVG Export Plug-In . SVG Version: 6.00 Build 0)  -->
<svg version="1.1" xmlns="http://www.w3.org/2000/svg" xmlns:xlink="http://www.w3.org/1999/xlink" x="0px" y="0px"
	 viewBox="0 0 792 612" style="enable-background:new 0 0 792 612;" xml:space="preserve">
<style type="text/css">
	.st0{display:none;}
	.st1{display:inline;fill:#FFFFFF;}
	.st2{display:inline;}
	.st3{fill:#FFFFFF;stroke:#000000;stroke-width:16;stroke-linecap:round;stroke-linejoin:round;stroke-miterlimit:10;}
	.st4{fill:none;stroke:#000000;stroke-width:24;stroke-linejoin:round;stroke-miterlimit:10;}
	.st5{fill:#FFFFFF;}
	.st6{fill:#FFFFFF;stroke:#000000;stroke-width:17;stroke-linecap:round;stroke-miterlimit:10;}
	.st7{fill:#FFFFFF;stroke:#000000;stroke-width:17;stroke-miterlimit:10;}
	.st8{stroke:#000000;stroke-width:16.0572;stroke-linecap:round;stroke-miterlimit:10;}
	.st9{fill:#FFFFFF;stroke:#000000;stroke-width:13.497;stroke-linecap:round;stroke-linejoin:round;stroke-miterlimit:10;}
	.st10{stroke:#000000;stroke-width:18.3348;stroke-linecap:round;stroke-miterlimit:10;}
	.st11{fill:none;stroke:#000000;stroke-width:13.497;stroke-linecap:round;stroke-linejoin:round;stroke-miterlimit:10;}
	.st12{fill:#FFFFFF;stroke:#000000;stroke-width:14.6942;stroke-linecap:round;stroke-linejoin:round;stroke-miterlimit:10;}
	.st13{fill:none;stroke:#000000;stroke-width:13;stroke-linecap:round;stroke-linejoin:round;stroke-miterlimit:10;}
	.st14{fill:none;stroke:#000000;stroke-width:13;stroke-linejoin:round;stroke-miterlimit:10;}
	.st15{fill:url(#);stroke:#000000;stroke-width:13;stroke-linejoin:round;stroke-miterlimit:10;}
	.st16{fill:none;stroke:#000000;stroke-width:30.5612;stroke-linecap:round;stroke-linejoin:round;stroke-miterlimit:10;}
	.st17{fill:#FFFFFF;stroke:#000000;stroke-width:16.2993;stroke-linecap:round;stroke-linejoin:round;stroke-miterlimit:10;}
	.st18{fill:#FFFFFF;stroke:#000000;stroke-width:13.497;stroke-linecap:round;stroke-miterlimit:10;}
	.st19{fill:url(#);stroke:#000000;stroke-width:13.497;stroke-linecap:round;stroke-linejoin:round;stroke-miterlimit:10;}
	.st20{fill:#FFFFFF;stroke:#000000;stroke-width:11.7326;stroke-linecap:round;stroke-linejoin:round;stroke-miterlimit:10;}
	.st21{font-family:'FoundersGrotesk-Bold';}
	.st22{font-size:20.6105px;}
	.st23{font-size:10.3052px;}
	.st24{font-size:19.2364px;}
	.st25{font-size:10px;}
	.st26{fill:#FFFFFF;stroke:#000000;stroke-width:13.2623;stroke-linecap:round;stroke-linejoin:round;stroke-miterlimit:10;}
	.st27{fill:#FFFFFF;stroke:#000000;stroke-width:13.2623;stroke-linecap:round;stroke-miterlimit:10;}
	.st28{stroke:#000000;stroke-width:4.5213;stroke-miterlimit:10;}
	.st29{fill:none;stroke:#000000;stroke-width:16;stroke-linecap:round;stroke-miterlimit:10;}
	.st30{fill:url(#);stroke:#000000;stroke-width:16;stroke-linecap:round;stroke-linejoin:round;stroke-miterlimit:10;}
	.st31{fill:#FFFFFF;stroke:#000000;stroke-width:16;stroke-linecap:round;stroke-miterlimit:10;}
	.st32{fill:none;stroke:#000000;stroke-width:16;stroke-linecap:round;stroke-linejoin:round;stroke-miterlimit:10;}
	.st33{fill:none;stroke:#000000;stroke-width:15.2344;stroke-linecap:round;stroke-linejoin:round;stroke-miterlimit:10;}
	.st34{fill:#FFFFFF;stroke:#000000;stroke-width:15.2344;stroke-linecap:round;stroke-linejoin:round;stroke-miterlimit:10;}
	.st35{fill:#FFFFFF;stroke:#000000;stroke-width:17;stroke-linecap:round;stroke-linejoin:round;stroke-miterlimit:10;}
	.st36{fill:none;stroke:#000000;stroke-width:9.9764;stroke-linecap:round;stroke-linejoin:round;stroke-miterlimit:10;}
	.st37{fill:none;stroke:#000000;stroke-width:9.3127;stroke-linejoin:round;stroke-miterlimit:10;}
	.st38{fill:url(#);}
	.st39{fill:none;stroke:#000000;stroke-width:8.3796;stroke-linecap:round;stroke-linejoin:round;stroke-miterlimit:10;}
	
		.st40{display:inline;fill:none;stroke:#000000;stroke-width:9.9764;stroke-linecap:round;stroke-linejoin:round;stroke-miterlimit:10;}
	.st41{display:inline;fill:none;stroke:#000000;stroke-width:9.3127;stroke-linejoin:round;stroke-miterlimit:10;}
	.st42{display:inline;fill:url(#);stroke:#000000;stroke-width:10;stroke-linejoin:round;stroke-miterlimit:10;}
	.st43{fill:#FFFFFF;stroke:#000000;stroke-width:14.7375;stroke-linecap:round;stroke-linejoin:round;stroke-miterlimit:10;}
	.st44{fill:none;stroke:#000000;stroke-width:14.7375;stroke-linecap:round;stroke-linejoin:round;stroke-miterlimit:10;}
	.st45{stroke:#000000;stroke-width:14.7375;stroke-linecap:round;stroke-linejoin:round;stroke-miterlimit:10;}
	.st46{fill:#FFFFFF;stroke:#000000;stroke-width:14.2911;stroke-linecap:round;stroke-linejoin:round;stroke-miterlimit:10;}
	.st47{fill:none;stroke:#000000;stroke-width:15;stroke-linecap:round;stroke-linejoin:round;stroke-miterlimit:10;}
	.st48{fill:#FFFFFF;stroke:#000000;stroke-width:15;stroke-linecap:round;stroke-linejoin:round;stroke-miterlimit:10;}
	.st49{fill:#FFFFFF;stroke:#000000;stroke-width:14.8467;stroke-linecap:round;stroke-linejoin:round;stroke-miterlimit:10;}
	.st50{stroke:#000000;stroke-width:20.1683;stroke-linecap:round;stroke-miterlimit:10;}
	.st51{fill:none;stroke:#000000;stroke-width:14.8467;stroke-linecap:round;stroke-linejoin:round;stroke-miterlimit:10;}
	.st52{fill:none;stroke:#000000;stroke-width:13.497;stroke-miterlimit:10;}
	.st53{fill:#FFFFFF;stroke:#000000;stroke-width:13.497;stroke-miterlimit:10;}
	.st54{fill:#FFFFFF;stroke:#000000;stroke-width:14.7439;stroke-linecap:round;stroke-miterlimit:10;}
	.st55{fill:#FFFFFF;stroke:#000000;stroke-width:14.7439;stroke-miterlimit:10;}
	.st56{stroke:#000000;stroke-width:13.9262;stroke-linecap:round;stroke-miterlimit:10;}
	.st57{fill:#FFFFFF;stroke:#000000;stroke-width:17.1072;stroke-linecap:round;stroke-linejoin:round;stroke-miterlimit:10;}
	.st58{stroke:#000000;stroke-width:17.1072;stroke-linecap:round;stroke-linejoin:round;stroke-miterlimit:10;}
	.st59{fill:#FFFFFF;stroke:#000000;stroke-width:15;stroke-linecap:square;stroke-linejoin:round;stroke-miterlimit:10;}
	.st60{fill:#FFFFFF;stroke:#000000;stroke-width:15;stroke-linejoin:round;stroke-miterlimit:10;}
	.st61{fill:#FFFFFF;stroke:#000000;stroke-width:14;stroke-linecap:round;stroke-linejoin:round;stroke-miterlimit:10;}
	.st62{fill:#FFFFFF;stroke:#000000;stroke-width:13;stroke-linecap:round;stroke-linejoin:round;stroke-miterlimit:10;}
	.st63{fill:#FFFFFF;stroke:#000000;stroke-width:15.2362;stroke-linecap:round;stroke-linejoin:round;stroke-miterlimit:10;}
	.st64{fill:#FFFFFF;stroke:#FFFFFF;stroke-width:3;stroke-miterlimit:10;}
	.st65{fill:#FFFFFF;stroke:#000000;stroke-width:13.3058;stroke-linecap:round;stroke-linejoin:round;stroke-miterlimit:10;}
	.st66{fill:#FFFFFF;stroke:#000000;stroke-width:15.2517;stroke-linecap:round;stroke-linejoin:round;stroke-miterlimit:10;}
	.st67{stroke:#000000;stroke-width:3;stroke-miterlimit:10;}
</style>
<g id="unexpanded" class="st0">
	<rect x="-11033.75" y="-955.56" class="st1" width="14663.41" height="9108.82"/>
	<g class="st2">
		<rect y="-612" class="st5" width="792" height="1224"/>
		<g>
			<g>
				<g>
					<path class="st3" d="M540.2,217.14c-43.09,43.09-100.88,100.88-100.88,100.88c-8.06,8.06-8.06,21.13,0,29.18
						c8.06,8.06,21.13,8.06,29.18,0c0,0,46.61-46.61,89.7-89.7"/>
					<path class="st3" d="M589.93,286.59C545.04,331.47,499.51,377,499.51,377c-8.39,8.39-8.39,22,0,30.4c8.39,8.39,22,8.39,30.4,0
						c0,0,48.55-48.55,93.44-93.44"/>
					<path class="st3" d="M548.91,266.8c-44.89,44.89-96.02,96.02-96.02,96.02c-8.39,8.39-8.39,22,0,30.4c8.39,8.39,22,8.39,30.4,0
						c0,0,48.55-48.55,93.44-93.44"/>
					<path class="st3" d="M773.83,179.63c-14.92,13.43-26.15,23.07-34.57,30.9c-5.78,5.38-9.16,13.09-8.26,20.93
						c2,17.5-4.32,35.07-21.25,54.49c-26.58,30.49-85.85,85.85-85.85,85.85"/>
					<path class="st3" d="M611.39,220.16c-34.1,12.74-59.99-5.58-59.99-5.58s-29.36,6.64-60.95,10.44
						c-18.5,2.23-31.01-16.44-28.55-28.64c1.34-6.67,8.46-6.58,18.1-10.67c15.74-6.68,52.37-21.84,52.37-21.84
						s17.97-6.54,45.72-20.91c18.46-9.55,59.4-3.96,59.4-3.96C657.39,119.1,685.98,86.02,749,21.2"/>
					<path class="st3" d="M623.35,313.96c-43.09,43.09-46.15,46.15-46.15,46.15c-8.06,8.06-8.06,21.13,0,29.18
						c8.06,8.06,21.13,8.06,29.18,0c0,0,23.37-21.63,66.46-64.72"/>
				</g>
			</g>
			<g>
				<g>
					<path class="st3" d="M193.42,357.17c43.09-43.09,100.88-100.88,100.88-100.88c8.06-8.06,21.13-8.06,29.18,0
						c8.06,8.06,8.06,21.13,0,29.18c0,0-46.61,46.61-89.7,89.7"/>
					<path class="st3" d="M262.86,406.9c44.89-44.89,90.42-90.42,90.42-90.42c8.39-8.39,22-8.39,30.4,0c8.39,8.39,8.39,22,0,30.4
						c0,0-48.55,48.55-93.44,93.44"/>
					<path class="st3" d="M243.08,365.88c44.89-44.89,96.02-96.02,96.02-96.02c8.39-8.39,22-8.39,30.4,0c8.39,8.39,8.39,22,0,30.4
						c0,0-48.55,48.55-93.44,93.44"/>
					<path class="st3" d="M155.91,590.8c13.43-14.92,23.07-26.15,30.9-34.57c5.38-5.78,13.09-9.16,20.93-8.26
						c17.5,2,35.07-4.32,54.49-21.25c30.49-26.58,85.85-85.85,85.85-85.85"/>
					<path class="st3" d="M196.44,428.37c12.74-34.1-5.58-59.99-5.58-59.99s6.64-29.36,10.44-60.95
						c2.23-18.5-16.44-31.01-28.64-28.55c-6.67,1.34-6.58,8.46-10.67,18.1c-6.68,15.74-21.84,52.37-21.84,52.37
						s-6.54,17.97-20.91,45.72c-9.55,18.46-3.96,59.4-3.96,59.4c-17.67,17.67-45.71,42.17-97.11,91.52"/>
					<path class="st3" d="M290.24,440.32c43.09-43.09,46.15-46.15,46.15-46.15c8.06-8.06,21.13-8.06,29.18,0
						c8.06,8.06,8.06,21.13,0,29.18c0,0-21.63,23.37-64.72,66.46"/>
				</g>
			</g>
		</g>
		<g>
			<text transform="matrix(0 -1 1 0 26.8613 333.9574)"><tspan x="0" y="0" class="st21 st22">www</tspan><tspan x="45.14" y="0" class="st21 st23"> </tspan><tspan x="46.99" y="0" class="st21 st22">.</tspan><tspan x="51.77" y="0" class="st21 st23"> </tspan><tspan x="53.63" y="0" class="st21 st22">Capitalism</tspan><tspan x="150.43" y="0" class="st21 st24"> </tspan><tspan x="153.9" y="0" class="st21 st22">Is</tspan><tspan x="168.88" y="0" class="st21 st24"> </tspan><tspan x="172.34" y="0" class="st21 st22">A</tspan><tspan x="186.6" y="0" class="st21 st23"> </tspan><tspan x="188.46" y="0" class="st21 st22">Virus</tspan><tspan x="236.15" y="0" class="st21 st23"> </tspan><tspan x="238.01" y="0" class="st21 st22">.</tspan><tspan x="242.79" y="0" class="st21 st23"> </tspan><tspan x="244.64" y="0" class="st21 st22">org</tspan></text>
			<text transform="matrix(0 1 -1 0 761.9287 381.0449)"><tspan x="0" y="0" class="st21 st22">#</tspan><tspan x="12.7" y="0" class="st21 st25"> </tspan><tspan x="14.5" y="0" class="st21 st22">Capitalism</tspan><tspan x="111.3" y="0" class="st21 st25"> </tspan><tspan x="113.1" y="0" class="st21 st22">Is</tspan><tspan x="128.09" y="0" class="st21 st25"> </tspan><tspan x="129.89" y="0" class="st21 st22">A</tspan><tspan x="144.15" y="0" class="st21 st25"> </tspan><tspan x="145.95" y="0" class="st21 st22">Virus</tspan></text>
		</g>
	</g>
</g>
<g id="exp_trnsp_bg">
	<path d="M733.81,204.67c-7.89,7.33-11.91,17.69-10.76,27.7c0.49,4.27,0.37,8.5-0.32,12.76c-1.87,11.45-8.08,23.02-19.02,35.56
		c-10.2,11.71-25.44,27.26-40.22,41.89l0.03,0.01c-40.15,40.05-62.35,60.64-62.57,60.85c-0.08,0.07-0.15,0.14-0.22,0.21
		c-4.92,4.93-12.94,4.93-17.87,0c-2.39-2.39-3.7-5.56-3.7-8.94c0-3.38,1.31-6.55,3.7-8.94L629,319.62c1.13-1.13,1.85-2.52,2.16-3.98
		c0.55-2.56-0.17-5.34-2.16-7.33c-0.68-0.68-1.46-1.21-2.29-1.59c-2.13-0.99-4.6-0.99-6.73,0c-0.83,0.38-1.61,0.91-2.29,1.59
		l-0.56,0.56l-45.59,45.59v0l-47.29,47.29c-5.26,5.26-13.82,5.26-19.08,0c-5.26-5.26-5.26-13.82,0-19.08l77.22-77.22c0,0,0,0,0,0
		l13.19-13.2c0.19-0.19,0.37-0.39,0.53-0.59c2.58-3.14,2.4-7.79-0.53-10.73c-3.12-3.12-8.19-3.12-11.31,0l-12.72,12.72l0.02,0.03
		c-0.17,0.14-0.34,0.29-0.5,0.45l-93.44,93.44c-2.55,2.55-5.94,3.95-9.54,3.95c-3.6,0-6.99-1.4-9.54-3.95
		c-5.26-5.26-5.26-13.82,0-19.09l95.54-95.54l0.48-0.48c0,0,0,0,0,0l9.29-9.29c3.12-3.12,3.12-8.19,0-11.31
		c-2.41-2.41-5.97-2.95-8.91-1.64c-0.87,0.39-1.69,0.93-2.4,1.64l-64.1,64.1l-25.6,25.6c-2.39,2.39-5.56,3.7-8.93,3.7
		s-6.55-1.31-8.94-3.7c-2.39-2.39-3.7-5.56-3.7-8.94c0-3.38,1.31-6.55,3.7-8.94l98.72-98.72l0.73-0.73
		c2.24-0.46,4.11-0.85,5.54-1.16c8.56,4.87,33.35,16.11,64.24,4.57c4.14-1.55,6.24-6.15,4.69-10.29c-0.6-1.59-1.65-2.88-2.95-3.78
		c-2.08-1.44-4.8-1.87-7.35-0.92c-29.48,11.02-51.67-4-52.57-4.62c-1.85-1.31-4.17-1.77-6.38-1.27c-0.29,0.07-29.36,6.59-60.14,10.3
		c-7.37,0.89-12.37-3.2-14.7-5.72c-4.33-4.69-5.66-10.16-5.07-13.3c0.88-0.58,3.44-1.42,5.34-2.04c2.37-0.77,5.05-1.65,8.06-2.93
		c15.02-6.38,49.58-20.69,52.15-21.75c2.04-0.75,19.71-7.4,46.49-21.26c13.26-6.86,43.94-4.59,54.64-3.14
		c2.48,0.34,4.97-0.5,6.74-2.27c8.33-8.33,17.9-18.66,31.15-32.95c12.04-12.99,27-29.14,46.28-49.41
		c10.13-10.65,21.45-22.45,34.16-35.53c3.08-3.17,3.01-8.23-0.16-11.31c-3.17-3.08-8.23-3.01-11.31,0.16
		c-37.05,38.11-62.28,65.33-80.71,85.21c-11.68,12.61-20.48,22.1-28,29.75c-11.55-1.26-42.96-3.63-60.15,5.27
		c-26.89,13.92-44.61,20.43-44.79,20.5c-0.11,0.04-0.22,0.08-0.32,0.13c-0.37,0.15-36.84,15.25-52.43,21.87
		c-2.38,1.01-4.62,1.74-6.78,2.45c-6.3,2.06-14.14,4.63-16.03,14c-1.78,8.82,1.75,19.58,8.98,27.41
		c6.56,7.1,15.31,10.99,24.46,10.99c1.29,0,2.6-0.08,3.9-0.24c8.82-1.06,17.43-2.34,25.29-3.62l-83.03,83.03
		c-5.41,5.41-8.39,12.6-8.39,20.25c0,7.65,2.98,14.84,8.39,20.25c3.21,3.21,7.05,5.56,11.24,6.94c-9.1,11.57-8.32,28.41,2.33,39.07
		c5.57,5.57,12.98,8.64,20.86,8.64c6.81,0,13.26-2.29,18.48-6.51c1.37,4.41,3.8,8.56,7.28,12.05c5.75,5.75,13.3,8.62,20.86,8.62
		c7.55,0,15.11-2.88,20.86-8.62l29.11-29.11c1.39,4.1,3.71,7.86,6.86,11.01c5.58,5.58,12.92,8.37,20.25,8.37
		c7.28,0,14.57-2.75,20.13-8.26c1.77-1.64,24.85-23.15,65.28-63.54c14.18-14.08,28.56-28.86,38.57-40.33
		c17.92-20.55,25.5-40.39,23.17-60.65c-0.3-2.59,0.15-5.26,1.22-7.77c1-2.33,2.53-4.52,4.54-6.39c0.52-0.48,1.05-0.97,1.59-1.47
		c4.33-3.97,9.42-8.48,15.22-13.61c5.19-4.59,11.08-9.8,17.66-15.73c3.28-2.96,3.55-8.01,0.59-11.3c-2.95-3.28-8.01-3.55-11.3-0.59
		c-6.53,5.88-12.39,11.06-17.56,15.63C744.31,195.16,738.6,200.21,733.81,204.67z"/>
	<path d="M18.18,553.98c1.99,0,3.99-0.74,5.54-2.23c12.1-11.62,22.85-21.8,32.48-30.86c12.2-11.47,22.63-21.13,31.8-29.64
		c14.28-13.24,24.61-22.81,32.93-31.14c1.77-1.77,2.61-4.26,2.27-6.74c-1.46-10.69-3.74-41.35,3.14-54.64
		c13.86-26.78,20.5-44.46,21.26-46.49c1.07-2.58,15.38-37.13,21.75-52.15c1.28-3.01,2.15-5.69,2.93-8.06
		c0.62-1.9,1.46-4.46,2.04-5.34c3.14-0.59,8.61,0.74,13.3,5.07c2.52,2.33,6.61,7.33,5.72,14.7c-3.71,30.79-10.24,59.86-10.3,60.15
		c-0.49,2.18-0.02,4.51,1.25,6.35c0.64,0.93,15.66,23.13,4.64,52.61c-0.93,2.49-0.53,5.14,0.82,7.2c0.9,1.37,2.22,2.48,3.87,3.09
		c4.14,1.55,8.75-0.56,10.29-4.69c11.54-30.89,0.3-55.68-4.57-64.24c0.31-1.43,0.7-3.3,1.16-5.54l0.73-0.73l98.72-98.72
		c2.39-2.39,5.56-3.7,8.93-3.7c3.38,0,6.55,1.31,8.94,3.7c2.39,2.39,3.7,5.56,3.7,8.94c0,3.37-1.31,6.54-3.7,8.93l-31.29,31.29
		l-58.42,58.42c-0.71,0.71-1.26,1.53-1.64,2.4c-1.31,2.94-0.77,6.5,1.64,8.91c1.56,1.56,3.61,2.34,5.66,2.34
		c2.05,0,4.09-0.78,5.66-2.34l9.29-9.29c0,0,0,0,0,0l0.48-0.48l95.54-95.54c5.26-5.26,13.83-5.26,19.09,0
		c5.26,5.26,5.26,13.82,0,19.09l-93.44,93.44c-0.16,0.16-0.31,0.33-0.45,0.5l-0.03-0.02l-12.72,12.72c-3.12,3.12-3.12,8.19,0,11.31
		c2.94,2.94,7.58,3.11,10.73,0.53c0.2-0.17,0.4-0.34,0.59-0.53l90.42-90.42c2.55-2.55,5.94-3.95,9.54-3.95
		c3.61,0,6.99,1.4,9.54,3.95c5.26,5.26,5.26,13.82,0,19.09l-92.88,92.88l-0.56,0.56c-3.12,3.12-3.12,8.19,0,11.31
		c0.98,0.98,2.14,1.65,3.38,2.01c1.29,0.38,2.65,0.43,3.95,0.15c1.46-0.31,2.85-1.03,3.98-2.16l46.15-46.15
		c2.39-2.39,5.56-3.7,8.94-3.7c3.38,0,6.55,1.31,8.93,3.7c2.39,2.39,3.7,5.56,3.7,8.94c0,3.38-1.31,6.55-3.7,8.94
		c-0.07,0.07-0.14,0.15-0.21,0.22c-0.21,0.23-20.77,22.4-60.85,62.57l-0.01-0.03c-14.62,14.78-30.18,30.01-41.88,40.22
		c-12.54,10.94-24.11,17.14-35.56,19.02c-4.25,0.7-8.49,0.81-12.76,0.32c-10.01-1.15-20.37,2.88-27.7,10.76
		c-4.46,4.8-9.51,10.5-15.35,17.11c-4.57,5.17-9.75,11.02-15.63,17.55c-2.96,3.28-2.69,8.34,0.59,11.3
		c1.53,1.38,3.44,2.05,5.35,2.05c2.19,0,4.37-0.89,5.95-2.65c5.93-6.58,11.13-12.47,15.72-17.66c5.13-5.8,9.64-10.9,13.62-15.23
		c0.5-0.54,0.99-1.07,1.47-1.59c1.87-2.01,4.06-3.54,6.39-4.54c2.51-1.07,5.18-1.52,7.77-1.22c20.27,2.32,40.11-5.26,60.66-23.17
		c11.45-9.98,26.18-24.32,40.23-38.47c40.45-40.48,61.99-63.6,63.64-65.37c5.34-5.4,8.27-12.54,8.27-20.14
		c0-7.65-2.98-14.84-8.39-20.25c-3.15-3.15-6.91-5.47-11.01-6.86l29.11-29.11c11.5-11.5,11.5-30.21,0-41.71
		c-3.42-3.42-7.54-5.9-12.04-7.3c9.3-11.57,8.59-28.59-2.14-39.32c-10.66-10.66-27.51-11.43-39.07-2.33
		c-1.38-4.19-3.73-8.03-6.94-11.24c-5.41-5.41-12.6-8.39-20.25-8.39c-7.65,0-14.84,2.98-20.25,8.39l-83.03,83.03
		c1.29-7.86,2.56-16.46,3.62-25.29c1.27-10.54-2.65-20.88-10.75-28.37c-7.83-7.23-18.59-10.76-27.41-8.98
		c-9.37,1.89-11.94,9.73-14,16.03c-0.71,2.16-1.44,4.4-2.45,6.78c-6.62,15.6-21.72,52.07-21.87,52.43c-0.04,0.1-0.09,0.21-0.12,0.32
		c-0.06,0.18-6.58,17.9-20.5,44.79c-8.9,17.2-6.53,48.6-5.27,60.15c-7.66,7.51-17.14,16.31-29.74,27.99
		c-16.47,15.26-36.96,34.26-64.49,60.69c-3.19,3.06-3.29,8.12-0.23,11.31C13.97,553.15,16.07,553.98,18.18,553.98z"/>
	<polygon points="26.86,294.91 26.86,291.63 17.67,288.72 17.67,291.73 22.88,293.38 22.88,293.47 17.67,294.81 17.67,297.46 
		22.88,298.81 22.88,298.89 17.67,300.54 17.67,303.77 17.67,303.86 17.67,306.78 22.88,308.43 22.88,308.51 17.67,309.85 
		17.67,312.51 22.88,313.85 22.88,313.93 17.67,315.58 17.67,318.82 17.67,318.9 17.67,321.83 22.88,323.47 22.88,323.56 
		17.67,324.9 17.67,327.56 22.88,328.9 22.88,328.98 17.67,330.63 17.67,333.95 26.86,331.04 26.86,327.76 21.67,326.42 
		21.67,326.34 26.86,325 26.86,321.72 17.8,318.86 26.86,315.99 26.86,312.72 21.67,311.38 21.67,311.29 26.86,309.95 26.86,306.68 
		17.8,303.81 26.86,300.95 26.86,297.67 21.67,296.33 21.67,296.25 	"/>
	<rect x="23.32" y="282.75" width="3.55" height="3.55"/>
	<path d="M20.37,279.87c4,0,6.74-2.87,6.74-6.66c0-3.98-2.51-6.1-5.75-6.35l-0.14,3.36c1.44,0.21,2.78,0.99,2.78,3.01
		c0,1.92-1.42,3.03-3.63,3.03c-2.21,0-3.63-1.11-3.63-3.03c0-2.02,1.34-2.8,2.78-3.01l-0.12-3.36c-3.24,0.25-5.77,2.37-5.77,6.35
		C13.63,277,16.37,279.87,20.37,279.87z"/>
	<path d="M27.07,257.77c0-0.95-0.27-1.61-0.6-2.08H24.7c0.1,0.27,0.14,0.47,0.14,0.74c0,0.35-0.21,0.56-0.68,0.56h-3.13
		c-2.56,0-3.61,1.79-3.61,4.23c0,2.76,1.4,4.27,3.42,4.56l0.21-3.09c-0.68-0.14-1.15-0.52-1.15-1.26c0-0.8,0.45-1.15,1.22-1.15h0.14
		l0.43,2.58c0.35,2,1.11,3.28,2.89,3.28c1.57,0,2.49-1.17,2.49-2.97c0-1.46-0.56-2.52-1.63-3.05
		C26.49,259.79,27.07,258.9,27.07,257.77z M24.14,262.9c-0.6,0-0.85-0.47-1.01-1.28l-0.25-1.36h0.14c1.2,0,1.9,0.76,1.9,1.71
		C24.92,262.53,24.61,262.9,24.14,262.9z"/>
	<path d="M30.16,251.38h-4.87c1.07-0.45,1.81-1.48,1.81-3.03c0-2.7-2.12-4.08-4.84-4.08c-2.7,0-4.84,1.38-4.84,4.08
		c0,1.55,0.74,2.58,1.83,3.03h-1.59v3.34h12.49V251.38z M22.33,251.38H22.2c-1.32,0-2.18-0.72-2.18-1.86c0-1.3,0.93-1.9,2.25-1.9
		c1.34,0,2.27,0.6,2.27,1.9C24.53,250.66,23.67,251.38,22.33,251.38z"/>
	<rect x="13.87" y="239.59" width="2.93" height="3.38"/>
	<rect x="17.67" y="239.61" width="9.19" height="3.34"/>
	<path d="M15.13,236.27l1.2,0.31c0.84,0.23,1.34,0.52,1.48,1.44l0.1,0.68h2.06v-1.24h4.33c2.17,0,2.8-1.46,2.8-3.01
		c0-1.26-0.31-2.06-0.82-2.76h-2.17c0.23,0.56,0.31,1.01,0.31,1.42c0,0.68-0.31,1.05-1.09,1.05h-3.36v-2.39h-2.31v2.39h-2.54V236.27
		z"/>
	<path d="M24.16,221.83h-3.13c-2.56,0-3.61,1.79-3.61,4.23c0,2.76,1.4,4.27,3.42,4.56l0.21-3.09c-0.68-0.14-1.15-0.52-1.15-1.26
		c0-0.8,0.45-1.15,1.22-1.15h0.14l0.43,2.58c0.35,2,1.11,3.28,2.89,3.28c1.57,0,2.49-1.17,2.49-2.97c0-1.46-0.56-2.52-1.63-3.05
		c1.05-0.31,1.63-1.2,1.63-2.33c0-0.95-0.27-1.61-0.6-2.08H24.7c0.1,0.27,0.14,0.47,0.14,0.74
		C24.84,221.62,24.63,221.83,24.16,221.83z M24.92,226.81c0,0.56-0.31,0.93-0.78,0.93c-0.6,0-0.85-0.47-1.01-1.28l-0.25-1.36h0.14
		C24.22,225.1,24.92,225.87,24.92,226.81z"/>
	<rect x="13.87" y="216.22" width="12.99" height="3.34"/>
	<rect x="13.87" y="211.05" width="2.93" height="3.38"/>
	<rect x="17.67" y="211.07" width="9.19" height="3.34"/>
	<path d="M20.53,209.73c1.88,0,2.6-1.17,2.95-3.4l0.21-1.36c0.1-0.64,0.35-0.85,0.7-0.85c0.37,0,0.64,0.39,0.64,1.13
		c0,1.01-0.43,1.63-1.2,1.75l0.04,2.91c2.23-0.19,3.24-2.08,3.24-4.62c0-2.62-1.11-4.27-3.05-4.27c-1.79,0-2.72,1.2-3.05,3.26
		l-0.31,1.79c-0.04,0.31-0.21,0.56-0.52,0.56c-0.41,0-0.66-0.37-0.66-1.01c0-1.03,0.41-1.61,1.07-1.73l-0.08-2.74
		c-1.92,0.19-3.09,1.75-3.09,4.41C17.42,208.14,18.72,209.73,20.53,209.73z"/>
	<path d="M17.42,193.55c0,1.38,0.62,2.37,1.63,2.87h-1.38v3.34h9.19v-3.34h-4.51c-1.38,0-2.29-0.39-2.29-1.48
		c0-1.01,0.66-1.26,1.92-1.26h4.89v-3.34h-4.51c-1.38,0-2.29-0.37-2.29-1.48c0-1.01,0.66-1.24,1.92-1.24h4.89v-3.34h-5.77
		c-1.92,0-3.67,0.74-3.67,3.28c0,1.55,0.78,2.64,1.81,3.13C18.16,191.07,17.42,191.92,17.42,193.55z"/>
	<rect x="13.87" y="175.51" width="12.99" height="3.5"/>
	<path d="M23.83,171.37l0.04,2.91c2.23-0.19,3.24-2.08,3.24-4.62c0-2.62-1.11-4.27-3.05-4.27c-1.79,0-2.72,1.2-3.05,3.26l-0.31,1.79
		c-0.04,0.31-0.21,0.56-0.52,0.56c-0.41,0-0.66-0.37-0.66-1.01c0-1.03,0.41-1.61,1.07-1.73l-0.08-2.74
		c-1.92,0.19-3.09,1.75-3.09,4.41c0,2.58,1.3,4.16,3.11,4.16c1.88,0,2.6-1.18,2.95-3.4l0.21-1.36c0.1-0.64,0.35-0.85,0.7-0.85
		c0.37,0,0.64,0.39,0.64,1.13C25.03,170.63,24.59,171.25,23.83,171.37z"/>
	<path d="M26.86,158.04l-2.51-0.97V152l2.51-0.97v-3.73l-12.99,5.17v3.92l12.99,5.17V158.04z M21.73,156.06l-3.83-1.48v-0.08
		l3.83-1.48V156.06z"/>
	<polygon points="26.86,136.77 13.87,131.78 13.87,135.26 22.51,138.48 22.51,138.56 13.87,141.78 13.87,145.45 26.86,140.46 	"/>
	<rect x="17.67" y="127.53" width="9.19" height="3.34"/>
	<rect x="13.87" y="127.51" width="2.93" height="3.38"/>
	<path d="M19.3,122.38h-1.63v3.34h9.19v-3.34h-4.21c-1.55,0-2.12-0.76-2.12-2c0-0.64,0.12-1.13,0.39-1.59l-3.15-0.21
		c-0.19,0.23-0.35,0.72-0.35,1.28C17.42,121.08,18.27,122.05,19.3,122.38z"/>
	<path d="M22.57,114.32h-4.91v3.34h5.79c1.92,0,3.65-0.76,3.65-3.28c0-1.38-0.6-2.39-1.63-2.89h1.38v-3.34h-9.19v3.34h4.51
		c1.4,0,2.31,0.41,2.31,1.46C24.49,113.97,23.81,114.32,22.57,114.32z"/>
	<path d="M20.53,106.82c1.88,0,2.6-1.18,2.95-3.4l0.21-1.36c0.1-0.64,0.35-0.85,0.7-0.85c0.37,0,0.64,0.39,0.64,1.13
		c0,1.01-0.43,1.63-1.2,1.75l0.04,2.91c2.23-0.19,3.24-2.08,3.24-4.62c0-2.62-1.11-4.27-3.05-4.27c-1.79,0-2.72,1.2-3.05,3.26
		l-0.31,1.79c-0.04,0.31-0.21,0.56-0.52,0.56c-0.41,0-0.66-0.37-0.66-1.01c0-1.03,0.41-1.61,1.07-1.73l-0.08-2.74
		c-1.92,0.19-3.09,1.75-3.09,4.41C17.42,105.23,18.72,106.82,20.53,106.82z"/>
	<rect x="23.32" y="91.73" width="3.55" height="3.55"/>
	<path d="M22.26,88.85c2.87,0,4.84-2.02,4.84-5.03c0-2.99-1.98-5.03-4.84-5.03c-2.84,0-4.84,2.04-4.84,5.03
		C17.42,86.83,19.42,88.85,22.26,88.85z M22.26,82.15c1.38,0,2.33,0.52,2.33,1.67c0,1.17-0.95,1.67-2.33,1.67
		c-1.38,0-2.33-0.49-2.33-1.67C19.93,82.67,20.88,82.15,22.26,82.15z"/>
	<path d="M17.77,70.34c-0.19,0.23-0.35,0.72-0.35,1.28c0,1.22,0.85,2.19,1.88,2.52h-1.63v3.34h9.19v-3.34h-4.21
		c-1.55,0-2.12-0.76-2.12-2c0-0.64,0.12-1.13,0.39-1.59L17.77,70.34z"/>
	<path d="M18.16,62.26c-0.47,0.78-0.74,1.83-0.74,2.95c0,2.58,1.2,4.43,3.15,4.43c1.01,0,1.79-0.49,2.33-1.32
		c0.37,0.99,1.05,1.57,1.94,1.57c0.78,0,1.53-0.49,1.79-1.32c0.08,1.03,0.72,1.75,1.53,1.75c1.73,0,2.25-2.27,2.25-4.89
		c0-2.99-1.05-5.77-3.34-5.77c-1.55,0-2.64,1.05-2.64,3.13v3.81c0,0.56-0.25,0.78-0.56,0.78c-0.19,0-0.33-0.06-0.43-0.19
		c0.19-0.6,0.27-1.26,0.27-2c0-2.6-1.2-4.47-3.13-4.47c-0.43,0-0.83,0.1-1.18,0.29c-0.1-0.45-0.14-0.95-0.14-1.34h-2.52
		C16.74,60.69,17.4,61.7,18.16,62.26z M27.27,63.58c0-0.56,0.14-0.85,0.54-0.85c0.56,0,0.87,1.13,0.87,2.68
		c0,1.24-0.19,2.16-0.85,2.16c-0.35,0-0.56-0.25-0.56-0.62V63.58z M20.57,64.2c0.82,0,1.34,0.41,1.34,0.97
		c0,0.56-0.52,0.97-1.34,0.97c-0.8,0-1.32-0.41-1.32-0.97C19.25,64.61,19.77,64.2,20.57,64.2z"/>
	<path d="M761.93,386.74v2.49l3.42,0.8v2.04l2.06,0.43v-1.98l2.02,0.49v1.88l2.06,0.43v-1.83l3.42,0.82v-2.49l-3.42-0.82v-1.77
		l3.42,0.82v-2.49l-3.42-0.82v-2.02l-2.06-0.43v1.98l-2.02-0.49v-1.88l-2.06-0.43v1.81l-3.42-0.8v2.49l3.42,0.8v1.77L761.93,386.74z
		 M767.41,386.26l2.02,0.49v1.77l-2.02-0.49V386.26z"/>
	<path d="M768.42,395.95c-4,0-6.74,2.87-6.74,6.66c0,3.98,2.51,6.1,5.75,6.35l0.14-3.36c-1.44-0.21-2.78-0.99-2.78-3.01
		c0-1.92,1.42-3.03,3.63-3.03c2.21,0,3.63,1.11,3.63,3.03c0,2.02-1.34,2.8-2.78,3.01l0.12,3.36c3.24-0.25,5.77-2.37,5.77-6.35
		C775.16,398.82,772.42,395.95,768.42,395.95z"/>
	<path d="M761.72,418.05c0,0.95,0.27,1.61,0.6,2.08h1.77c-0.1-0.27-0.14-0.47-0.14-0.74c0-0.35,0.21-0.56,0.68-0.56h3.13
		c2.56,0,3.61-1.79,3.61-4.23c0-2.76-1.4-4.27-3.42-4.56l-0.21,3.09c0.68,0.14,1.15,0.52,1.15,1.26c0,0.8-0.45,1.15-1.22,1.15h-0.14
		l-0.43-2.58c-0.35-2-1.11-3.28-2.89-3.28c-1.57,0-2.49,1.18-2.49,2.97c0,1.46,0.56,2.51,1.63,3.05
		C762.3,416.03,761.72,416.92,761.72,418.05z M764.65,412.92c0.6,0,0.84,0.47,1.01,1.28l0.25,1.36h-0.14c-1.2,0-1.9-0.76-1.9-1.71
		C763.87,413.29,764.18,412.92,764.65,412.92z"/>
	<path d="M758.63,424.44h4.86c-1.07,0.45-1.81,1.48-1.81,3.03c0,2.7,2.12,4.08,4.84,4.08c2.7,0,4.84-1.38,4.84-4.08
		c0-1.55-0.74-2.58-1.83-3.03h1.59v-3.34h-12.49V424.44z M766.46,424.44h0.12c1.32,0,2.18,0.72,2.18,1.86c0,1.3-0.93,1.9-2.25,1.9
		c-1.34,0-2.27-0.6-2.27-1.9C764.26,425.16,765.12,424.44,766.46,424.44z"/>
	<rect x="761.93" y="432.87" width="9.19" height="3.34"/>
	<rect x="771.99" y="432.85" width="2.93" height="3.38"/>
	<path d="M773.66,439.54l-1.2-0.31c-0.85-0.23-1.34-0.52-1.48-1.44l-0.1-0.68h-2.06v1.24h-4.33c-2.16,0-2.8,1.46-2.8,3.01
		c0,1.26,0.31,2.06,0.82,2.76h2.16c-0.23-0.56-0.31-1.01-0.31-1.42c0-0.68,0.31-1.05,1.09-1.05h3.36v2.39h2.31v-2.39h2.54V439.54z"
		/>
	<path d="M764.63,453.99h3.13c2.56,0,3.61-1.79,3.61-4.23c0-2.76-1.4-4.27-3.42-4.56l-0.21,3.09c0.68,0.14,1.15,0.52,1.15,1.26
		c0,0.8-0.45,1.15-1.22,1.15h-0.14l-0.43-2.58c-0.35-2-1.11-3.28-2.89-3.28c-1.57,0-2.49,1.18-2.49,2.97c0,1.46,0.56,2.51,1.63,3.05
		c-1.05,0.31-1.63,1.2-1.63,2.33c0,0.95,0.27,1.61,0.6,2.08h1.77c-0.1-0.27-0.14-0.47-0.14-0.74
		C763.95,454.2,764.16,453.99,764.63,453.99z M763.87,449.01c0-0.56,0.31-0.93,0.78-0.93c0.6,0,0.84,0.47,1.01,1.28l0.25,1.36h-0.14
		C764.57,450.72,763.87,449.95,763.87,449.01z"/>
	<rect x="761.93" y="456.26" width="12.99" height="3.34"/>
	<rect x="771.99" y="461.39" width="2.93" height="3.38"/>
	<rect x="761.93" y="461.41" width="9.19" height="3.34"/>
	<path d="M768.26,466.09c-1.88,0-2.6,1.18-2.95,3.4l-0.21,1.36c-0.1,0.64-0.35,0.85-0.7,0.85c-0.37,0-0.64-0.39-0.64-1.13
		c0-1.01,0.43-1.63,1.2-1.75l-0.04-2.91c-2.23,0.19-3.24,2.08-3.24,4.62c0,2.62,1.11,4.27,3.05,4.27c1.79,0,2.72-1.2,3.05-3.26
		l0.31-1.79c0.04-0.31,0.21-0.56,0.51-0.56c0.41,0,0.66,0.37,0.66,1.01c0,1.03-0.41,1.61-1.07,1.73l0.08,2.74
		c1.92-0.19,3.09-1.75,3.09-4.41C771.37,467.68,770.07,466.09,768.26,466.09z"/>
	<path d="M771.37,482.27c0-1.38-0.62-2.37-1.63-2.87h1.38v-3.34h-9.19v3.34h4.51c1.38,0,2.29,0.39,2.29,1.48
		c0,1.01-0.66,1.26-1.92,1.26h-4.89v3.34h4.51c1.38,0,2.29,0.37,2.29,1.48c0,1.01-0.66,1.24-1.92,1.24h-4.89v3.34h5.77
		c1.92,0,3.67-0.74,3.67-3.28c0-1.55-0.78-2.64-1.81-3.13C770.63,484.74,771.37,483.9,771.37,482.27z"/>
	<rect x="761.93" y="495.14" width="12.99" height="3.5"/>
	<path d="M764.96,502.78l-0.04-2.91c-2.23,0.19-3.24,2.08-3.24,4.62c0,2.62,1.11,4.27,3.05,4.27c1.79,0,2.72-1.2,3.05-3.26
		l0.31-1.79c0.04-0.31,0.21-0.56,0.51-0.56c0.41,0,0.66,0.37,0.66,1.01c0,1.03-0.41,1.61-1.07,1.73l0.08,2.74
		c1.92-0.19,3.09-1.75,3.09-4.41c0-2.58-1.3-4.16-3.11-4.16c-1.88,0-2.6,1.18-2.95,3.4l-0.21,1.36c-0.1,0.64-0.35,0.85-0.7,0.85
		c-0.37,0-0.64-0.39-0.64-1.13C763.76,503.53,764.2,502.91,764.96,502.78z"/>
	<path d="M761.93,514.46l2.51,0.97v5.07l-2.51,0.97v3.73l12.99-5.17v-3.92l-12.99-5.17V514.46z M767.06,516.44l3.83,1.48V518
		l-3.83,1.48V516.44z"/>
	<polygon points="761.93,535.67 774.92,540.66 774.92,537.18 766.28,533.96 766.28,533.88 774.92,530.66 774.92,526.99 
		761.93,531.98 	"/>
	<rect x="771.99" y="541.54" width="2.93" height="3.38"/>
	<rect x="761.93" y="541.56" width="9.19" height="3.34"/>
	<path d="M769.49,550.06h1.63v-3.34h-9.19v3.34h4.21c1.55,0,2.12,0.76,2.12,2c0,0.64-0.12,1.13-0.39,1.59l3.15,0.21
		c0.19-0.23,0.35-0.72,0.35-1.28C771.37,551.36,770.53,550.39,769.49,550.06z"/>
	<path d="M766.22,558.12h4.91v-3.34h-5.79c-1.92,0-3.65,0.76-3.65,3.28c0,1.38,0.6,2.39,1.63,2.89h-1.38v3.34h9.19v-3.34h-4.51
		c-1.4,0-2.31-0.41-2.31-1.46C764.3,558.47,764.98,558.12,766.22,558.12z"/>
	<path d="M768.26,565.62c-1.88,0-2.6,1.18-2.95,3.4l-0.21,1.36c-0.1,0.64-0.35,0.85-0.7,0.85c-0.37,0-0.64-0.39-0.64-1.13
		c0-1.01,0.43-1.63,1.2-1.75l-0.04-2.91c-2.23,0.19-3.24,2.08-3.24,4.62c0,2.62,1.11,4.27,3.05,4.27c1.79,0,2.72-1.2,3.05-3.26
		l0.31-1.79c0.04-0.31,0.21-0.56,0.51-0.56c0.41,0,0.66,0.37,0.66,1.01c0,1.03-0.41,1.61-1.07,1.73l0.08,2.74
		c1.92-0.19,3.09-1.75,3.09-4.41C771.37,567.2,770.07,565.62,768.26,565.62z"/>
</g>
<g id="exp_white_bg" class="st0">
	<g class="st2">
		<path class="st5" d="M23.03,225.1h-0.14l0.25,1.36c0.17,0.8,0.41,1.28,1.01,1.28c0.47,0,0.78-0.37,0.78-0.93
			C24.92,225.87,24.22,225.1,23.03,225.1z"/>
		<path class="st5" d="M766.53,428.19c1.32,0,2.25-0.6,2.25-1.9c0-1.13-0.87-1.86-2.18-1.86h-0.12c-1.34,0-2.21,0.72-2.21,1.86
			C764.26,427.59,765.19,428.19,766.53,428.19z"/>
		<polygon class="st5" points="17.89,154.57 21.73,156.06 21.73,153.01 17.89,154.49 		"/>
		<polygon class="st5" points="769.43,386.76 767.41,386.26 767.41,388.03 769.43,388.53 		"/>
		<path class="st5" d="M22.26,247.63c-1.32,0-2.25,0.6-2.25,1.9c0,1.13,0.87,1.86,2.18,1.86h0.12c1.34,0,2.21-0.72,2.21-1.86
			C24.53,248.23,23.6,247.63,22.26,247.63z"/>
		<path class="st5" d="M765.76,415.56h0.14l-0.25-1.36c-0.17-0.8-0.41-1.28-1.01-1.28c-0.47,0-0.78,0.37-0.78,0.93
			C763.87,414.79,764.57,415.56,765.76,415.56z"/>
		<path class="st5" d="M22.26,85.49c1.38,0,2.33-0.49,2.33-1.67c0-1.15-0.95-1.67-2.33-1.67c-1.38,0-2.33,0.52-2.33,1.67
			C19.93,85,20.88,85.49,22.26,85.49z"/>
		<polygon class="st5" points="770.9,517.92 767.06,516.44 767.06,519.49 770.9,518 		"/>
		<path class="st5" d="M765.76,450.72h0.14l-0.25-1.36c-0.17-0.8-0.41-1.28-1.01-1.28c-0.47,0-0.78,0.37-0.78,0.93
			C763.87,449.95,764.57,450.72,765.76,450.72z"/>
		<path class="st5" d="M23.03,260.26h-0.14l0.25,1.36c0.17,0.8,0.41,1.28,1.01,1.28c0.47,0,0.78-0.37,0.78-0.93
			C24.92,261.03,24.22,260.26,23.03,260.26z"/>
		<path class="st5" d="M0,612h792V-612H0V612z M409.68-15.01h-3.34v-4.89c0-1.26-0.23-1.92-1.24-1.92c-1.11,0-1.48,0.91-1.48,2.29
			v4.51h-3.34v-4.89c0-1.26-0.25-1.92-1.26-1.92c-1.09,0-1.48,0.91-1.48,2.29v4.51h-3.34v-9.19h3.34v1.38
			c0.5-1.01,1.48-1.63,2.87-1.63c1.63,0,2.47,0.74,2.87,1.81c0.49-1.03,1.59-1.81,3.13-1.81c2.54,0,3.28,1.75,3.28,3.67V-15.01z
			 M388.99-18.18l-1.36-0.21c-2.23-0.35-3.4-1.07-3.4-2.95c0-1.81,1.59-3.11,4.16-3.11c2.66,0,4.23,1.18,4.41,3.09l-2.74,0.08
			c-0.12-0.66-0.7-1.07-1.73-1.07c-0.64,0-1.01,0.25-1.01,0.66c0,0.31,0.25,0.47,0.56,0.52l1.79,0.31c2.06,0.33,3.26,1.26,3.26,3.05
			c0,1.94-1.65,3.05-4.27,3.05c-2.54,0-4.43-1.01-4.62-3.24l2.91-0.04c0.12,0.76,0.74,1.2,1.75,1.2c0.74,0,1.13-0.27,1.13-0.64
			C389.83-17.83,389.63-18.08,388.99-18.18z M363.91-137.54l-14.71-38.2h-77.02l-14.71,38.2h-53.54l78.58-197.24H342l78.58,197.24
			H363.91z M379.53-25.07v-2.93h3.38v2.93H379.53z M382.89-24.2v9.19h-3.34v-9.19H382.89z M377.73-27.99v12.99h-3.34v-12.99H377.73z
			 M367.7-21.97c-0.74,0-1.11,0.47-1.26,1.15l-3.09-0.21c0.29-2.02,1.79-3.42,4.56-3.42c2.43,0,4.23,1.05,4.23,3.61v3.13
			c0,0.47,0.21,0.68,0.56,0.68c0.27,0,0.47-0.04,0.74-0.14v1.77c-0.47,0.33-1.13,0.6-2.08,0.6c-1.13,0-2.02-0.58-2.33-1.63
			c-0.54,1.07-1.59,1.63-3.05,1.63c-1.79,0-2.97-0.93-2.97-2.49c0-1.77,1.28-2.54,3.28-2.89l2.58-0.43v-0.14
			C368.85-21.52,368.5-21.97,367.7-21.97z M355.25-21.89v-2.06l0.68-0.1c0.93-0.14,1.22-0.64,1.44-1.48l0.31-1.2h2.1v2.54h2.39v2.31
			h-2.39v3.36c0,0.78,0.37,1.09,1.05,1.09c0.41,0,0.87-0.08,1.42-0.31v2.16c-0.7,0.52-1.5,0.82-2.76,0.82
			c-1.55,0-3.01-0.64-3.01-2.8v-4.33H355.25z M350.98-25.07v-2.93h3.38v2.93H350.98z M354.34-24.2v9.19H351v-9.19H354.34z
			 M345.6-24.45c2.7,0,4.08,2.14,4.08,4.84c0,2.72-1.38,4.84-4.08,4.84c-1.55,0-2.58-0.74-3.03-1.81v4.87h-3.34V-24.2h3.34v1.59
			C343.03-23.71,344.06-24.45,345.6-24.45z M332.54-21.97c-0.74,0-1.11,0.47-1.26,1.15l-3.09-0.21c0.29-2.02,1.79-3.42,4.56-3.42
			c2.43,0,4.23,1.05,4.23,3.61v3.13c0,0.47,0.21,0.68,0.56,0.68c0.27,0,0.47-0.04,0.74-0.14v1.77c-0.47,0.33-1.13,0.6-2.08,0.6
			c-1.13,0-2.02-0.58-2.33-1.63c-0.54,1.07-1.59,1.63-3.05,1.63c-1.79,0-2.97-0.93-2.97-2.49c0-1.77,1.28-2.54,3.28-2.89l2.58-0.43
			v-0.14C333.69-21.52,333.34-21.97,332.54-21.97z M320.73-17.87c2.02,0,2.8-1.34,3.01-2.78l3.36,0.14
			c-0.25,3.24-2.37,5.75-6.35,5.75c-3.79,0-6.66-2.74-6.66-6.74c0-4,2.87-6.74,6.66-6.74c3.98,0,6.1,2.54,6.35,5.77l-3.36,0.12
			c-0.21-1.44-0.99-2.78-3.01-2.78c-1.92,0-3.03,1.42-3.03,3.63C317.7-19.29,318.81-17.87,320.73-17.87z M310.64-20.49l-0.43,2.06
			h-2.04l-0.8,3.42h-2.49l0.8-3.42h-1.77l-0.8,3.42h-2.49l0.8-3.42h-1.81l0.43-2.06h1.88l0.5-2.02h-1.98l0.43-2.06h2.02l0.83-3.42
			h2.49l-0.83,3.42h1.77l0.82-3.42h2.49l-0.82,3.42h1.83l-0.43,2.06h-1.88l-0.5,2.02H310.64z M330.2-509.3h27.84l-34.7,38.26
			l36.41,51.69h-28.98l-24.99-35.84l-7.85,8.57v27.27h-24.27v-89.95h24.27v36.41L330.2-509.3z M349.97-588.45v-9.19h3.34v9.19
			H349.97z M393.74-484.74c21.27,0,32.55,14.56,32.55,31.84v6.42H381.6c0.57,7.85,6.28,11.56,13.28,11.56
			c6.28,0,10.28-2.14,12.42-7.14l18.56,1.71c-3.28,14.56-14.99,22.7-31.84,22.7c-20.42,0-34.98-12.28-34.98-32.55
			C359.04-470.32,373.89-484.74,393.74-484.74z M378.52-588.45v-9.19h3.34v9.19H378.52z M416.78-15.01h-3.5v-12.99h3.5V-15.01z
			 M418.01-18l2.91-0.04c0.12,0.76,0.74,1.2,1.75,1.2c0.74,0,1.13-0.27,1.13-0.64c0-0.35-0.21-0.6-0.85-0.7l-1.36-0.21
			c-2.23-0.35-3.4-1.07-3.4-2.95c0-1.81,1.59-3.11,4.16-3.11c2.66,0,4.23,1.18,4.41,3.09l-2.74,0.08c-0.12-0.66-0.7-1.07-1.73-1.07
			c-0.64,0-1.01,0.25-1.01,0.66c0,0.31,0.25,0.47,0.56,0.52l1.79,0.31c2.06,0.33,3.26,1.26,3.26,3.05c0,1.94-1.65,3.05-4.27,3.05
			C420.09-14.76,418.2-15.77,418.01-18z M761.72,412.67c0-1.79,0.93-2.97,2.49-2.97c1.77,0,2.54,1.28,2.89,3.28l0.43,2.58h0.14
			c0.76,0,1.22-0.35,1.22-1.15c0-0.74-0.47-1.11-1.15-1.26l0.21-3.09c2.02,0.29,3.42,1.79,3.42,4.56c0,2.43-1.05,4.23-3.61,4.23
			h-3.13c-0.47,0-0.68,0.21-0.68,0.56c0,0.27,0.04,0.47,0.14,0.74h-1.77c-0.33-0.47-0.6-1.13-0.6-2.08c0-1.13,0.58-2.02,1.63-2.33
			C762.28,415.18,761.72,414.13,761.72,412.67z M764.09,455.29h-1.77c-0.33-0.47-0.6-1.13-0.6-2.08c0-1.13,0.58-2.02,1.63-2.33
			c-1.07-0.54-1.63-1.59-1.63-3.05c0-1.79,0.93-2.97,2.49-2.97c1.77,0,2.54,1.28,2.89,3.28l0.43,2.58h0.14
			c0.76,0,1.22-0.35,1.22-1.15c0-0.74-0.47-1.11-1.15-1.26l0.21-3.09c2.02,0.29,3.42,1.79,3.42,4.56c0,2.43-1.05,4.23-3.61,4.23
			h-3.13c-0.47,0-0.68,0.21-0.68,0.56C763.95,454.82,763.99,455.02,764.09,455.29z M771.37,488.27c0,2.54-1.75,3.28-3.67,3.28h-5.77
			v-3.34h4.89c1.26,0,1.92-0.23,1.92-1.24c0-1.11-0.91-1.48-2.29-1.48h-4.51v-3.34h4.89c1.26,0,1.92-0.25,1.92-1.26
			c0-1.09-0.91-1.48-2.29-1.48h-4.51v-3.34h9.19v3.34h-1.38c1.01,0.49,1.63,1.48,1.63,2.87c0,1.63-0.74,2.47-1.81,2.87
			C770.59,485.63,771.37,486.72,771.37,488.27z M768.28,474.67l-0.08-2.74c0.66-0.12,1.07-0.7,1.07-1.73c0-0.64-0.25-1.01-0.66-1.01
			c-0.31,0-0.47,0.25-0.51,0.56l-0.31,1.79c-0.33,2.06-1.26,3.26-3.05,3.26c-1.94,0-3.05-1.65-3.05-4.27c0-2.54,1.01-4.43,3.24-4.62
			l0.04,2.91c-0.76,0.12-1.2,0.74-1.2,1.75c0,0.74,0.27,1.13,0.64,1.13c0.35,0,0.6-0.21,0.7-0.85l0.21-1.36
			c0.35-2.23,1.07-3.4,2.95-3.4c1.81,0,3.11,1.59,3.11,4.16C771.37,472.91,770.2,474.48,768.28,474.67z M764.4,505.67
			c0.35,0,0.6-0.21,0.7-0.85l0.21-1.36c0.35-2.23,1.07-3.4,2.95-3.4c1.81,0,3.11,1.59,3.11,4.16c0,2.66-1.17,4.23-3.09,4.41
			l-0.08-2.74c0.66-0.12,1.07-0.7,1.07-1.73c0-0.64-0.25-1.01-0.66-1.01c-0.31,0-0.47,0.25-0.51,0.56l-0.31,1.79
			c-0.33,2.06-1.26,3.26-3.05,3.26c-1.94,0-3.05-1.65-3.05-4.27c0-2.54,1.01-4.43,3.24-4.62l0.04,2.91c-0.76,0.12-1.2,0.74-1.2,1.75
			C763.76,505.28,764.03,505.67,764.4,505.67z M761.93,541.56h9.19v3.34h-9.19V541.56z M766.61,560.94h4.51v3.34h-9.19v-3.34h1.38
			c-1.03-0.49-1.63-1.5-1.63-2.89c0-2.52,1.73-3.28,3.65-3.28h5.79v3.34h-4.91c-1.24,0-1.92,0.35-1.92,1.36
			C764.3,560.53,765.21,560.94,766.61,560.94z M771.12,464.75h-9.19v-3.34h9.19V464.75z M771.12,441.65v2.39h-2.31v-2.39h-3.36
			c-0.78,0-1.09,0.37-1.09,1.05c0,0.41,0.08,0.87,0.31,1.42h-2.16c-0.52-0.7-0.82-1.5-0.82-2.76c0-1.55,0.64-3.01,2.8-3.01h4.33
			v-1.24h2.06l0.1,0.68c0.14,0.93,0.64,1.22,1.48,1.44l1.2,0.31v2.1H771.12z M761.93,436.21v-3.34h9.19v3.34H761.93z M771.12,421.1
			v3.34h-1.59c1.09,0.45,1.83,1.48,1.83,3.03c0,2.7-2.14,4.08-4.84,4.08c-2.72,0-4.84-1.38-4.84-4.08c0-1.55,0.74-2.58,1.81-3.03
			h-4.86v-3.34H771.12z M768.28,574.19l-0.08-2.74c0.66-0.12,1.07-0.7,1.07-1.73c0-0.64-0.25-1.01-0.66-1.01
			c-0.31,0-0.47,0.25-0.51,0.56l-0.31,1.79c-0.33,2.06-1.26,3.26-3.05,3.26c-1.94,0-3.05-1.65-3.05-4.27c0-2.54,1.01-4.43,3.24-4.62
			l0.04,2.91c-0.76,0.12-1.2,0.74-1.2,1.75c0,0.74,0.27,1.13,0.64,1.13c0.35,0,0.6-0.21,0.7-0.85l0.21-1.36
			c0.35-2.23,1.07-3.4,2.95-3.4c1.81,0,3.11,1.59,3.11,4.16C771.37,572.44,770.2,574.01,768.28,574.19z M771.02,553.85l-3.15-0.21
			c0.27-0.45,0.39-0.95,0.39-1.59c0-1.24-0.58-2-2.12-2h-4.21v-3.34h9.19v3.34h-1.63c1.03,0.33,1.88,1.3,1.88,2.52
			C771.37,553.13,771.21,553.62,771.02,553.85z M774.92,544.93h-2.93v-3.38h2.93V544.93z M774.92,530.66l-8.64,3.22v0.08l8.64,3.22
			v3.48l-12.99-4.99v-3.69l12.99-4.99V530.66z M774.92,520.02l-12.99,5.17v-3.73l2.51-0.97v-5.07l-2.51-0.97v-3.53l12.99,5.17
			V520.02z M774.92,498.64h-12.99v-3.5h12.99V498.64z M774.92,464.77h-2.93v-3.38h2.93V464.77z M774.92,459.6h-12.99v-3.34h12.99
			V459.6z M774.92,436.23h-2.93v-3.38h2.93V436.23z M769.39,408.96l-0.12-3.36c1.44-0.21,2.78-0.99,2.78-3.01
			c0-1.92-1.42-3.03-3.63-3.03c-2.21,0-3.63,1.11-3.63,3.03c0,2.02,1.34,2.8,2.78,3.01l-0.14,3.36c-3.24-0.25-5.75-2.37-5.75-6.35
			c0-3.79,2.74-6.66,6.74-6.66c4,0,6.74,2.87,6.74,6.66C775.16,406.59,772.63,408.71,769.39,408.96z M761.93,384.96v-2.49l3.42,0.8
			v-1.81l2.06,0.43v1.88l2.02,0.49v-1.98l2.06,0.43v2.02l3.42,0.82v2.49l-3.42-0.82V389l3.42,0.82v2.49l-3.42-0.82v1.83l-2.06-0.43
			v-1.88l-2.02-0.49v1.98l-2.06-0.43v-2.04l-3.42-0.8v-2.49l3.42,0.8v-1.77L761.93,384.96z M779.77,174.28
			c2.96,3.28,2.69,8.34-0.59,11.3c-6.58,5.93-12.47,11.13-17.66,15.73c-5.8,5.13-10.9,9.64-15.22,13.61
			c-0.54,0.5-1.07,0.99-1.59,1.47c-2.01,1.87-3.54,4.06-4.54,6.39c-1.08,2.52-1.52,5.19-1.22,7.77c2.32,20.26-5.26,40.1-23.17,60.65
			c-10,11.47-24.39,26.25-38.57,40.33c-40.43,40.39-63.51,61.9-65.28,63.54c-5.57,5.51-12.85,8.26-20.13,8.26
			c-7.33,0-14.67-2.79-20.25-8.37c-3.15-3.15-5.47-6.91-6.86-11.01l-29.11,29.11c-5.75,5.75-13.3,8.62-20.86,8.62
			c-7.55,0-15.11-2.87-20.86-8.62c-3.49-3.49-5.91-7.64-7.28-12.05c-5.22,4.21-11.67,6.51-18.48,6.51c-7.88,0-15.29-3.07-20.86-8.64
			c-10.66-10.66-11.43-27.51-2.33-39.07c-4.19-1.38-8.03-3.73-11.24-6.94c-5.41-5.41-8.39-12.6-8.39-20.25
			c0-7.65,2.98-14.84,8.39-20.25l83.03-83.03c-7.86,1.29-16.46,2.56-25.29,3.62c-1.31,0.16-2.61,0.24-3.9,0.24
			c-9.16,0-17.9-3.89-24.46-10.99c-7.24-7.83-10.76-18.59-8.98-27.41c1.89-9.37,9.73-11.94,16.03-14c2.16-0.71,4.4-1.44,6.78-2.45
			c15.6-6.62,52.07-21.72,52.43-21.87c0.11-0.04,0.21-0.09,0.32-0.13c0.17-0.06,17.89-6.58,44.79-20.5
			c17.2-8.9,48.6-6.53,60.15-5.27c7.52-7.66,16.31-17.15,28-29.75c18.43-19.88,43.66-47.11,80.71-85.21
			c3.08-3.17,8.14-3.24,11.31-0.16c3.17,3.08,3.24,8.14,0.16,11.31c-12.72,13.08-24.04,24.87-34.16,35.53
			c-19.28,20.28-34.24,36.42-46.28,49.41c-13.25,14.29-22.81,24.62-31.15,32.95c-1.77,1.77-4.26,2.61-6.74,2.27
			c-10.7-1.45-41.38-3.72-54.64,3.14c-26.78,13.86-44.45,20.5-46.49,21.26c-2.57,1.06-37.13,15.38-52.15,21.75
			c-3.01,1.28-5.69,2.15-8.06,2.93c-1.9,0.62-4.46,1.46-5.34,2.04c-0.59,3.15,0.74,8.61,5.07,13.3c2.33,2.52,7.33,6.61,14.7,5.72
			c30.79-3.71,59.85-10.24,60.14-10.3c2.21-0.5,4.53-0.04,6.38,1.27c0.9,0.62,23.09,15.64,52.57,4.62c2.54-0.95,5.27-0.52,7.35,0.92
			c1.3,0.9,2.35,2.18,2.95,3.78c1.55,4.14-0.56,8.75-4.69,10.29c-30.88,11.54-55.68,0.3-64.24-4.57c-1.43,0.31-3.3,0.7-5.54,1.16
			l-0.73,0.73l-98.72,98.72c-2.39,2.39-3.7,5.56-3.7,8.94c0,3.38,1.31,6.55,3.7,8.94c2.39,2.39,5.56,3.7,8.94,3.7
			s6.55-1.31,8.93-3.7l25.6-25.6l64.1-64.1c0.71-0.71,1.53-1.26,2.4-1.64c2.94-1.31,6.5-0.77,8.91,1.64c3.12,3.12,3.12,8.19,0,11.31
			l-9.29,9.29c0,0,0,0,0,0l-0.48,0.48l-95.54,95.54c-5.26,5.26-5.26,13.82,0,19.09c2.55,2.55,5.94,3.95,9.54,3.95
			c3.61,0,6.99-1.4,9.54-3.95l93.44-93.44c0.16-0.16,0.33-0.31,0.5-0.45l-0.02-0.03l12.72-12.72c3.12-3.12,8.19-3.12,11.31,0
			c2.94,2.94,3.11,7.58,0.53,10.73c-0.17,0.2-0.34,0.4-0.53,0.59l-13.19,13.2c0,0,0,0,0,0l-77.22,77.22
			c-5.26,5.26-5.26,13.82,0,19.08c5.26,5.26,13.82,5.26,19.08,0l47.29-47.29v0l45.59-45.59l0.56-0.56c0.68-0.68,1.46-1.21,2.29-1.59
			c2.13-0.99,4.6-0.99,6.73,0c0.83,0.38,1.61,0.91,2.29,1.59c1.99,1.99,2.71,4.77,2.16,7.33c-0.31,1.46-1.03,2.85-2.16,3.98
			l-46.15,46.15c-2.39,2.39-3.7,5.56-3.7,8.94c0,3.38,1.31,6.55,3.7,8.94c4.93,4.93,12.95,4.93,17.87,0
			c0.07-0.07,0.15-0.14,0.22-0.21c0.23-0.21,22.43-20.8,62.57-60.85l-0.03-0.01c14.78-14.62,30.01-30.18,40.22-41.89
			c10.94-12.55,17.15-24.11,19.02-35.56c0.69-4.25,0.81-8.49,0.32-12.76c-1.15-10.01,2.88-20.37,10.76-27.7
			c4.79-4.46,10.5-9.5,17.11-15.35c5.17-4.57,11.03-9.75,17.56-15.63C771.76,170.73,776.82,170.99,779.77,174.28z M445.13-27.99
			h3.67l3.22,8.64h0.08l3.22-8.64h3.48l-4.99,12.99h-3.69L445.13-27.99z M459.68-25.07v-2.93h3.38v2.93H459.68z M463.04-24.2v9.19
			h-3.34v-9.19H463.04z M470.71-24.45c0.56,0,1.05,0.17,1.28,0.35l-0.21,3.15c-0.45-0.27-0.95-0.39-1.59-0.39c-1.24,0-2,0.58-2,2.12
			v4.21h-3.34v-9.19h3.34v1.63C468.52-23.6,469.49-24.45,470.71-24.45z M477.61-17.38c1.05,0,1.46-0.91,1.46-2.31v-4.51h3.34v9.19
			h-3.34v-1.38c-0.49,1.03-1.5,1.63-2.89,1.63c-2.51,0-3.28-1.73-3.28-3.65v-5.79h3.34v4.91C476.25-18.06,476.6-17.38,477.61-17.38z
			 M488.51-18.18l-1.36-0.21c-2.23-0.35-3.4-1.07-3.4-2.95c0-1.81,1.59-3.11,4.16-3.11c2.66,0,4.23,1.18,4.41,3.09l-2.74,0.08
			c-0.12-0.66-0.7-1.07-1.73-1.07c-0.64,0-1.01,0.25-1.01,0.66c0,0.31,0.25,0.47,0.56,0.52l1.79,0.31c2.06,0.33,3.26,1.26,3.26,3.05
			c0,1.94-1.65,3.05-4.27,3.05c-2.54,0-4.43-1.01-4.62-3.24l2.91-0.04c0.12,0.76,0.74,1.2,1.75,1.2c0.74,0,1.13-0.27,1.13-0.64
			C489.36-17.83,489.15-18.08,488.51-18.18z M740.83-441.34l-9.42-1.43c-15.42-2.43-23.56-7.42-23.56-20.42
			c0-12.56,10.99-21.56,28.84-21.56c18.42,0,29.27,8.14,30.55,21.42l-18.99,0.57c-0.86-4.57-4.85-7.42-11.99-7.42
			c-4.43,0-7,1.71-7,4.57c0,2.14,1.71,3.28,3.86,3.57l12.42,2.14c14.28,2.28,22.56,8.71,22.56,21.13
			c0,13.42-11.42,21.13-29.55,21.13c-17.56,0-30.7-7-31.98-22.42l20.13-0.29c0.86,5.28,5.14,8.28,12.14,8.28
			c5.14,0,7.85-1.86,7.85-4.43C746.68-438.91,745.25-440.62,740.83-441.34z M616.9-509.3h24.13v50.26c0,13.71,4.28,20.99,16.7,20.99
			c12.56,0,16.71-7.28,16.71-20.99v-50.26h24.27v54.25c0,26.27-17.85,37.41-40.98,37.41c-23.13,0-40.83-11.14-40.83-37.41V-509.3z
			 M607.48-334.78h152.47v43.83H659.77v32.25h77.33v43.21h-77.33v34.13h103v43.83H607.48V-334.78z M584.63-290.95h-95.8v37.88h72.01
			v43.21h-72.01v72.32H435.6v-197.24h149.03V-290.95z M467.69-484.74c21.27,0,32.55,14.56,32.55,31.84v6.42h-44.69
			c0.57,7.85,6.28,11.56,13.28,11.56c6.28,0,10.28-2.14,12.42-7.14l18.56,1.71c-3.28,14.56-14.99,22.7-31.84,22.7
			c-20.42,0-34.98-12.28-34.98-32.55C433-470.32,447.85-484.74,467.69-484.74z M462.05-588.45v-9.19h3.34v9.19H462.05z
			 M553.79-484.74c18.7,0,28.27,14.85,28.27,33.55c0,18.85-9.57,33.55-28.27,33.55c-10.71,0-17.85-5.14-20.99-12.56v33.7h-23.13
			v-86.52h23.13v10.99C535.94-479.6,543.08-484.74,553.79-484.74z M523.04-590.47c0-0.89,0.58-1.57,1.57-1.94
			c-0.82-0.54-1.32-1.32-1.32-2.33c0-1.96,1.86-3.15,4.43-3.15c1.11,0,2.16,0.27,2.95,0.74c0.56-0.76,1.57-1.42,2.58-1.42v2.51
			c-0.39,0-0.89,0.04-1.34,0.14c0.19,0.35,0.29,0.74,0.29,1.17c0,1.94-1.88,3.13-4.47,3.13c-0.74,0-1.4-0.08-2-0.27
			c-0.12,0.1-0.19,0.25-0.19,0.43c0,0.31,0.23,0.56,0.78,0.56h3.81c2.08,0,3.13,1.09,3.13,2.64c0,2.29-2.78,3.34-5.77,3.34
			c-2.62,0-4.89-0.52-4.89-2.25c0-0.8,0.72-1.44,1.75-1.53C523.53-588.94,523.04-589.68,523.04-590.47z M515.45-597.64h3.34v1.63
			c0.33-1.03,1.3-1.88,2.52-1.88c0.56,0,1.05,0.16,1.28,0.35l-0.21,3.15c-0.45-0.27-0.95-0.39-1.59-0.39c-1.24,0-2,0.58-2,2.12v4.21
			h-3.34V-597.64z M509.1-597.89c2.99,0,5.03,2,5.03,4.84c0,2.87-2.04,4.84-5.03,4.84c-3.01,0-5.03-1.98-5.03-4.84
			C504.07-595.89,506.09-597.89,509.1-597.89z M497.64-591.99h3.55v3.55h-3.55V-591.99z M490.87-591.62l-1.36-0.21
			c-2.23-0.35-3.4-1.07-3.4-2.95c0-1.81,1.59-3.11,4.16-3.11c2.66,0,4.23,1.18,4.41,3.09l-2.74,0.08c-0.12-0.66-0.7-1.07-1.73-1.07
			c-0.64,0-1.01,0.25-1.01,0.66c0,0.31,0.25,0.47,0.56,0.52l1.79,0.31c2.06,0.33,3.26,1.26,3.26,3.05c0,1.94-1.65,3.05-4.27,3.05
			c-2.54,0-4.43-1.01-4.62-3.24l2.91-0.04c0.12,0.76,0.74,1.2,1.75,1.2c0.74,0,1.13-0.27,1.13-0.64
			C491.71-591.27,491.5-591.52,490.87-591.62z M475.26-597.64h3.34v4.91c0,1.24,0.35,1.92,1.36,1.92c1.05,0,1.46-0.91,1.46-2.31
			v-4.51h3.34v9.19h-3.34v-1.38c-0.5,1.03-1.5,1.63-2.89,1.63c-2.52,0-3.28-1.73-3.28-3.65V-597.64z M467.2-597.64h3.34v1.63
			c0.33-1.03,1.3-1.88,2.51-1.88c0.56,0,1.05,0.16,1.28,0.35l-0.21,3.15c-0.45-0.27-0.95-0.39-1.59-0.39c-1.24,0-2,0.58-2,2.12v4.21
			h-3.34V-597.64z M462.03-601.43h3.38v2.93h-3.38V-601.43z M451.15-601.43l3.22,8.64h0.08l3.22-8.64h3.48l-4.99,12.99h-3.69
			l-4.99-12.99H451.15z M436.54-601.43h3.92l5.17,12.99h-3.73l-0.97-2.52h-5.07l-0.97,2.52h-3.52L436.54-601.43z M434.24-27.99h3.92
			l5.17,12.99h-3.73l-0.97-2.51h-5.07l-0.97,2.51h-3.52L434.24-27.99z M423.59-591.62l-1.36-0.21c-2.23-0.35-3.4-1.07-3.4-2.95
			c0-1.81,1.59-3.11,4.16-3.11c2.66,0,4.23,1.18,4.41,3.09l-2.74,0.08c-0.12-0.66-0.7-1.07-1.73-1.07c-0.64,0-1.01,0.25-1.01,0.66
			c0,0.31,0.25,0.47,0.56,0.52l1.79,0.31c2.06,0.33,3.26,1.26,3.26,3.05c0,1.94-1.65,3.05-4.27,3.05c-2.54,0-4.43-1.01-4.62-3.24
			l2.91-0.04c0.12,0.76,0.74,1.2,1.75,1.2c0.74,0,1.13-0.27,1.13-0.64C424.44-591.27,424.23-591.52,423.59-591.62z M413.91-601.43
			h3.5v12.99h-3.5V-601.43z M393.17-597.64h3.34v1.38c0.5-1.01,1.48-1.63,2.87-1.63c1.63,0,2.47,0.74,2.87,1.81
			c0.49-1.03,1.59-1.81,3.13-1.81c2.54,0,3.28,1.75,3.28,3.67v5.77h-3.34v-4.89c0-1.26-0.23-1.92-1.24-1.92
			c-1.11,0-1.48,0.91-1.48,2.29v4.51h-3.34v-4.89c0-1.26-0.25-1.92-1.26-1.92c-1.09,0-1.48,0.91-1.48,2.29v4.51h-3.34V-597.64z
			 M387.96-591.62l-1.36-0.21c-2.23-0.35-3.4-1.07-3.4-2.95c0-1.81,1.59-3.11,4.16-3.11c2.66,0,4.23,1.18,4.41,3.09l-2.74,0.08
			c-0.12-0.66-0.7-1.07-1.73-1.07c-0.64,0-1.01,0.25-1.01,0.66c0,0.31,0.25,0.47,0.56,0.52l1.79,0.31c2.06,0.33,3.26,1.26,3.26,3.05
			c0,1.94-1.65,3.05-4.27,3.05c-2.54,0-4.43-1.01-4.62-3.24l2.91-0.04c0.12,0.76,0.74,1.2,1.75,1.2c0.74,0,1.13-0.27,1.13-0.64
			C388.8-591.27,388.6-591.52,387.96-591.62z M378.5-601.43h3.38v2.93h-3.38V-601.43z M373.37-601.43h3.34v12.99h-3.34V-601.43z
			 M366.67-595.41c-0.74,0-1.11,0.47-1.26,1.15l-3.09-0.21c0.29-2.02,1.79-3.42,4.56-3.42c2.43,0,4.23,1.05,4.23,3.61v3.13
			c0,0.47,0.21,0.68,0.56,0.68c0.27,0,0.47-0.04,0.74-0.14v1.77c-0.47,0.33-1.13,0.6-2.08,0.6c-1.13,0-2.02-0.58-2.33-1.63
			c-0.54,1.07-1.59,1.63-3.05,1.63c-1.79,0-2.97-0.93-2.97-2.49c0-1.77,1.28-2.54,3.28-2.89l2.58-0.43v-0.14
			C367.82-594.96,367.47-595.41,366.67-595.41z M354.22-597.39l0.68-0.1c0.93-0.14,1.22-0.64,1.44-1.48l0.31-1.2h2.1v2.54h2.39v2.31
			h-2.39v3.36c0,0.78,0.37,1.09,1.05,1.09c0.41,0,0.87-0.08,1.42-0.31v2.16c-0.7,0.52-1.5,0.82-2.76,0.82
			c-1.55,0-3.01-0.64-3.01-2.8v-4.33h-1.24V-597.39z M349.95-601.43h3.38v2.93h-3.38V-601.43z M338.2-597.64h3.34v1.59
			c0.45-1.09,1.48-1.83,3.03-1.83c2.7,0,4.08,2.14,4.08,4.84c0,2.72-1.38,4.84-4.08,4.84c-1.55,0-2.58-0.74-3.03-1.81v4.87h-3.34
			V-597.64z M331.51-595.41c-0.74,0-1.11,0.47-1.26,1.15l-3.09-0.21c0.29-2.02,1.79-3.42,4.56-3.42c2.43,0,4.23,1.05,4.23,3.61v3.13
			c0,0.47,0.21,0.68,0.56,0.68c0.27,0,0.47-0.04,0.74-0.14v1.77c-0.47,0.33-1.13,0.6-2.08,0.6c-1.13,0-2.02-0.58-2.33-1.63
			c-0.54,1.07-1.59,1.63-3.05,1.63c-1.79,0-2.97-0.93-2.97-2.49c0-1.77,1.28-2.54,3.28-2.89l2.58-0.43v-0.14
			C332.66-594.96,332.31-595.41,331.51-595.41z M319.72-601.68c3.98,0,6.1,2.54,6.35,5.77l-3.36,0.12
			c-0.21-1.44-0.99-2.78-3.01-2.78c-1.92,0-3.03,1.42-3.03,3.63s1.11,3.63,3.03,3.63c2.02,0,2.8-1.34,3.01-2.78l3.36,0.14
			c-0.25,3.24-2.37,5.75-6.35,5.75c-3.79,0-6.66-2.74-6.66-6.74S315.92-601.68,319.72-601.68z M306.63-591.99h3.55v3.55h-3.55
			V-591.99z M262.3-597.64l1.65,5.22h0.08l1.34-5.22h2.66l1.34,5.22h0.08l1.65-5.22h2.92h0.09h3.23l1.65,5.22h0.08l1.34-5.22h2.66
			l1.34,5.22h0.08l1.65-5.22h2.92h0.08h3.23l1.65,5.22h0.08l1.34-5.22h2.66l1.34,5.22h0.08l1.65-5.22h3.01l-2.91,9.19h-3.28
			l-1.34-5.19h-0.08l-1.34,5.19h-3.28l-2.86-9.06l-2.86,9.06h-3.28l-1.34-5.19h-0.08l-1.34,5.19h-3.28l-2.86-9.06l-2.86,9.06h-3.28
			l-1.34-5.19h-0.08l-1.34,5.19h-3.28l-2.91-9.19H262.3z M166.29-509.3h69.53v19.99h-45.69v14.71h35.27v19.7h-35.27v15.56h46.97
			v19.99h-70.82V-509.3z M54.78-509.3l14.28,56.4h0.57l14.85-56.4h21.84l14.85,56.4h0.57l14.28-56.4h23.42l-23.56,89.95h-25.84
			l-14.99-56.83h-0.57l-14.99,56.83H54.06L30.5-509.3H54.78z M75.57-208.92c1.88,24.73,20.98,33.19,42.89,33.19
			c18.47,0,30.37-6.58,30.37-17.53c0-11.58-11.58-13.46-26.61-16.28l-36-6.26c-32.25-5.95-54.79-24.11-54.79-58.55
			c0-40.07,31.31-64.18,80.46-64.18c54.48,0,83.91,26.61,84.84,70.44l-48.84,0.94c-1.57-20.35-16.28-29.74-36.63-29.74
			c-17.53,0-27.55,6.89-27.55,17.85c0,9.08,7.51,12.52,19.72,14.71l37.26,6.57c41.33,7.2,60.11,28.8,60.11,61.05
			c0,41.95-36.32,62.93-82.34,62.93c-53.54,0-91.73-25.99-91.73-73.57L75.57-208.92z M19.25,59.68c0,0.39,0.04,0.89,0.14,1.34
			c0.35-0.19,0.74-0.29,1.18-0.29c1.94,0,3.13,1.88,3.13,4.47c0,0.74-0.08,1.4-0.27,2c0.1,0.12,0.25,0.19,0.43,0.19
			c0.31,0,0.56-0.23,0.56-0.78V62.8c0-2.08,1.09-3.13,2.64-3.13c2.29,0,3.34,2.78,3.34,5.77c0,2.62-0.52,4.89-2.25,4.89
			c-0.8,0-1.44-0.72-1.53-1.75c-0.27,0.82-1.01,1.32-1.79,1.32c-0.89,0-1.57-0.58-1.94-1.57c-0.54,0.82-1.32,1.32-2.33,1.32
			c-1.96,0-3.15-1.86-3.15-4.43c0-1.11,0.27-2.16,0.74-2.95c-0.76-0.56-1.42-1.57-1.42-2.58H19.25z M27.07,263.15
			c0,1.79-0.93,2.97-2.49,2.97c-1.77,0-2.54-1.28-2.89-3.28l-0.43-2.58h-0.14c-0.76,0-1.22,0.35-1.22,1.15
			c0,0.74,0.47,1.11,1.15,1.26l-0.21,3.09c-2.02-0.29-3.42-1.79-3.42-4.56c0-2.43,1.05-4.23,3.61-4.23h3.13
			c0.47,0,0.68-0.21,0.68-0.56c0-0.27-0.04-0.47-0.14-0.74h1.77c0.33,0.47,0.6,1.13,0.6,2.08c0,1.13-0.58,2.02-1.63,2.33
			C26.51,260.63,27.07,261.69,27.07,263.15z M24.7,220.53h1.77c0.33,0.47,0.6,1.13,0.6,2.08c0,1.13-0.58,2.02-1.63,2.33
			c1.07,0.54,1.63,1.59,1.63,3.05c0,1.79-0.93,2.97-2.49,2.97c-1.77,0-2.54-1.28-2.89-3.28l-0.43-2.58h-0.14
			c-0.76,0-1.22,0.35-1.22,1.15c0,0.74,0.47,1.11,1.15,1.26l-0.21,3.09c-2.02-0.29-3.42-1.79-3.42-4.56c0-2.43,1.05-4.23,3.61-4.23
			h3.13c0.47,0,0.68-0.21,0.68-0.56C24.84,221,24.8,220.79,24.7,220.53z M17.42,187.55c0-2.54,1.75-3.28,3.67-3.28h5.77v3.34h-4.89
			c-1.26,0-1.92,0.23-1.92,1.24c0,1.11,0.91,1.48,2.29,1.48h4.51v3.34h-4.89c-1.26,0-1.92,0.25-1.92,1.26
			c0,1.09,0.91,1.48,2.29,1.48h4.51v3.34h-9.19v-3.34h1.38c-1.01-0.49-1.63-1.48-1.63-2.87c0-1.63,0.74-2.47,1.81-2.87
			C18.2,190.19,17.42,189.1,17.42,187.55z M20.51,201.15l0.08,2.74c-0.66,0.12-1.07,0.7-1.07,1.73c0,0.64,0.25,1.01,0.66,1.01
			c0.31,0,0.47-0.25,0.52-0.56l0.31-1.79c0.33-2.06,1.26-3.26,3.05-3.26c1.94,0,3.05,1.65,3.05,4.27c0,2.54-1.01,4.43-3.24,4.62
			l-0.04-2.91c0.76-0.12,1.2-0.74,1.2-1.75c0-0.74-0.27-1.13-0.64-1.13c-0.35,0-0.6,0.21-0.7,0.85l-0.21,1.36
			c-0.35,2.23-1.07,3.4-2.95,3.4c-1.81,0-3.11-1.59-3.11-4.16C17.42,202.91,18.59,201.34,20.51,201.15z M24.39,168.49
			c-0.35,0-0.6,0.21-0.7,0.85l-0.21,1.36c-0.35,2.23-1.07,3.4-2.95,3.4c-1.81,0-3.11-1.59-3.11-4.16c0-2.66,1.17-4.23,3.09-4.41
			l0.08,2.74c-0.66,0.12-1.07,0.7-1.07,1.73c0,0.64,0.25,1.01,0.66,1.01c0.31,0,0.47-0.25,0.52-0.56l0.31-1.79
			c0.33-2.06,1.26-3.26,3.05-3.26c1.94,0,3.05,1.65,3.05,4.27c0,2.54-1.01,4.43-3.24,4.62l-0.04-2.91c0.76-0.12,1.2-0.74,1.2-1.75
			C25.03,168.88,24.76,168.49,24.39,168.49z M22.66,74.13h4.21v3.34h-9.19v-3.34h1.63c-1.03-0.33-1.88-1.3-1.88-2.52
			c0-0.56,0.17-1.05,0.35-1.28l3.15,0.21c-0.27,0.45-0.39,0.95-0.39,1.59C20.53,73.37,21.11,74.13,22.66,74.13z M22.26,78.79
			c2.87,0,4.84,2.04,4.84,5.03c0,3.01-1.98,5.03-4.84,5.03c-2.84,0-4.84-2.02-4.84-5.03C17.42,80.83,19.42,78.79,22.26,78.79z
			 M26.86,91.73v3.55h-3.55v-3.55H26.86z M20.51,98.25l0.08,2.74c-0.66,0.12-1.07,0.7-1.07,1.73c0,0.64,0.25,1.01,0.66,1.01
			c0.31,0,0.47-0.25,0.52-0.56l0.31-1.79c0.33-2.06,1.26-3.26,3.05-3.26c1.94,0,3.05,1.65,3.05,4.27c0,2.54-1.01,4.43-3.24,4.62
			l-0.04-2.91c0.76-0.12,1.2-0.74,1.2-1.75c0-0.74-0.27-1.13-0.64-1.13c-0.35,0-0.6,0.21-0.7,0.85l-0.21,1.36
			c-0.35,2.23-1.07,3.4-2.95,3.4c-1.81,0-3.11-1.59-3.11-4.16C17.42,100,18.59,98.43,20.51,98.25z M22.18,111.5h-4.51v-3.34h9.19
			v3.34h-1.38c1.03,0.49,1.63,1.5,1.63,2.89c0,2.52-1.73,3.28-3.65,3.28h-5.79v-3.34h4.91c1.24,0,1.92-0.35,1.92-1.36
			C24.49,111.91,23.58,111.5,22.18,111.5z M17.77,118.59l3.15,0.21c-0.27,0.45-0.39,0.95-0.39,1.59c0,1.24,0.58,2,2.12,2h4.21v3.34
			h-9.19v-3.34h1.63c-1.03-0.33-1.88-1.3-1.88-2.52C17.42,119.31,17.58,118.82,17.77,118.59z M17.67,127.53h9.19v3.34h-9.19V127.53z
			 M17.67,211.07h9.19v3.34h-9.19V211.07z M17.67,234.17v-2.39h2.31v2.39h3.36c0.78,0,1.09-0.37,1.09-1.05
			c0-0.41-0.08-0.87-0.31-1.42h2.17c0.52,0.7,0.82,1.5,0.82,2.76c0,1.55-0.64,3.01-2.8,3.01h-4.33v1.24h-2.06l-0.1-0.68
			c-0.14-0.93-0.64-1.22-1.48-1.44l-1.2-0.31v-2.1H17.67z M26.86,239.61v3.34h-9.19v-3.34H26.86z M17.67,254.72v-3.34h1.59
			c-1.09-0.45-1.83-1.48-1.83-3.03c0-2.7,2.14-4.08,4.84-4.08c2.72,0,4.84,1.38,4.84,4.08c0,1.55-0.74,2.58-1.81,3.03h4.87v3.34
			H17.67z M13.87,127.51h2.93v3.38h-2.93V127.51z M13.87,141.78l8.64-3.22v-0.08l-8.64-3.22v-3.48l12.99,4.99v3.69l-12.99,4.99
			V141.78z M13.87,152.47l12.99-5.17v3.73L24.35,152v5.07l2.51,0.97v3.52l-12.99-5.17V152.47z M13.87,175.51h12.99v3.5H13.87V175.51
			z M13.87,211.05h2.93v3.38h-2.93V211.05z M13.87,216.22h12.99v3.34H13.87V216.22z M13.87,239.59h2.93v3.38h-2.93V239.59z
			 M19.4,266.86l0.12,3.36c-1.44,0.21-2.78,0.99-2.78,3.01c0,1.92,1.42,3.03,3.63,3.03c2.21,0,3.63-1.11,3.63-3.03
			c0-2.02-1.34-2.8-2.78-3.01l0.14-3.36c3.24,0.25,5.75,2.37,5.75,6.35c0,3.79-2.74,6.66-6.74,6.66c-4,0-6.74-2.87-6.74-6.66
			C13.63,269.23,16.16,267.1,19.4,266.86z M26.86,297.67v3.28l-9.06,2.86l9.06,2.86v3.28l-5.2,1.34v0.08l5.2,1.34v3.28l-9.06,2.86
			l9.06,2.86V325l-5.2,1.34v0.08l5.2,1.34v3.28l-9.19,2.91v-3.32l5.22-1.65v-0.08l-5.22-1.34v-2.66l5.22-1.34v-0.08l-5.22-1.65
			v-2.92v-0.09v-3.23l5.22-1.65v-0.08l-5.22-1.34v-2.66l5.22-1.34v-0.08l-5.22-1.65v-2.92v-0.09v-3.23l5.22-1.65v-0.08l-5.22-1.34
			v-2.66l5.22-1.34v-0.08l-5.22-1.65v-3.01l9.19,2.91v3.28l-5.2,1.34v0.08L26.86,297.67z M23.32,286.3v-3.55h3.55v3.55H23.32z
			 M12.63,540.21c27.53-26.43,48.02-45.42,64.49-60.69c12.6-11.68,22.09-20.47,29.74-27.99c-1.26-11.55-3.63-42.96,5.27-60.15
			c13.92-26.89,20.43-44.61,20.5-44.79c0.04-0.11,0.08-0.21,0.12-0.32c0.15-0.37,15.25-36.84,21.87-52.43
			c1.01-2.38,1.74-4.62,2.45-6.78c2.06-6.3,4.63-14.14,14-16.03c8.82-1.78,19.58,1.75,27.41,8.98c8.1,7.49,12.02,17.83,10.75,28.37
			c-1.06,8.82-2.34,17.43-3.62,25.29l83.03-83.03c5.41-5.41,12.6-8.39,20.25-8.39c7.65,0,14.84,2.98,20.25,8.39
			c3.21,3.21,5.56,7.05,6.94,11.24c11.56-9.1,28.41-8.32,39.07,2.33c10.73,10.73,11.44,27.75,2.14,39.32
			c4.49,1.4,8.61,3.88,12.04,7.3c11.5,11.5,11.5,30.21,0,41.71l-29.11,29.11c4.1,1.39,7.86,3.71,11.01,6.86
			c5.41,5.41,8.39,12.6,8.39,20.25c0,7.6-2.94,14.74-8.27,20.14c-1.65,1.77-23.19,24.89-63.64,65.37
			c-14.05,14.15-28.79,28.49-40.23,38.47c-20.55,17.91-40.39,25.5-60.66,23.17c-2.59-0.3-5.26,0.15-7.77,1.22
			c-2.33,1-4.52,2.53-6.39,4.54c-0.48,0.52-0.97,1.05-1.47,1.59c-3.98,4.33-8.49,9.43-13.62,15.23c-4.59,5.19-9.8,11.07-15.72,17.66
			c-1.58,1.75-3.76,2.65-5.95,2.65c-1.91,0-3.82-0.68-5.35-2.05c-3.28-2.96-3.55-8.01-0.59-11.3c5.88-6.53,11.06-12.39,15.63-17.55
			c5.85-6.61,10.9-12.32,15.35-17.11c7.33-7.89,17.69-11.91,27.7-10.76c4.27,0.49,8.51,0.37,12.76-0.32
			c11.45-1.87,23.02-8.08,35.56-19.02c11.71-10.21,27.26-25.44,41.88-40.22l0.01,0.03c40.08-40.18,60.64-62.35,60.85-62.57
			c0.07-0.08,0.14-0.15,0.21-0.22c2.39-2.39,3.7-5.56,3.7-8.94c0-3.38-1.31-6.55-3.7-8.94c-2.39-2.39-5.56-3.7-8.93-3.7
			c-3.38,0-6.55,1.31-8.94,3.7l-46.15,46.15c-1.13,1.13-2.52,1.85-3.98,2.16c-1.31,0.28-2.67,0.23-3.95-0.15
			c-1.24-0.37-2.4-1.04-3.38-2.01c-3.12-3.12-3.12-8.19,0-11.31l0.56-0.56l92.88-92.88c5.26-5.26,5.26-13.82,0-19.09
			c-2.55-2.55-5.94-3.95-9.54-3.95c-3.6,0-6.99,1.4-9.54,3.95l-90.42,90.42c-0.19,0.19-0.39,0.37-0.59,0.53
			c-3.14,2.58-7.79,2.4-10.73-0.53c-3.12-3.12-3.12-8.19,0-11.31l12.72-12.72l0.03,0.02c0.15-0.17,0.29-0.34,0.45-0.5l93.44-93.44
			c5.26-5.26,5.26-13.82,0-19.09c-5.26-5.26-13.82-5.26-19.09,0l-95.54,95.54l-0.48,0.48c0,0,0,0,0,0l-9.29,9.29
			c-1.56,1.56-3.61,2.34-5.66,2.34c-2.05,0-4.09-0.78-5.66-2.34c-2.41-2.41-2.95-5.97-1.64-8.91c0.39-0.87,0.93-1.69,1.64-2.4
			l58.42-58.42l31.29-31.29c2.38-2.39,3.7-5.56,3.7-8.93c0-3.38-1.31-6.55-3.7-8.94c-2.39-2.39-5.56-3.7-8.94-3.7
			c-3.38,0-6.55,1.31-8.93,3.7l-98.72,98.72l-0.73,0.73c-0.46,2.24-0.85,4.11-1.16,5.54c4.87,8.56,16.11,33.35,4.57,64.24
			c-1.54,4.14-6.15,6.24-10.29,4.69c-1.65-0.62-2.97-1.73-3.87-3.09c-1.36-2.06-1.75-4.71-0.82-7.2c11.01-29.48-4-51.68-4.64-52.61
			c-1.28-1.84-1.74-4.17-1.25-6.35c0.07-0.29,6.59-29.36,10.3-60.15c0.89-7.37-3.21-12.37-5.72-14.7
			c-4.69-4.33-10.16-5.66-13.3-5.07c-0.58,0.88-1.42,3.44-2.04,5.34c-0.78,2.37-1.65,5.05-2.93,8.06
			c-6.38,15.02-20.68,49.57-21.75,52.15c-0.75,2.03-7.4,19.71-21.26,46.49c-6.88,13.3-4.6,43.95-3.14,54.64
			c0.34,2.48-0.5,4.97-2.27,6.74c-8.33,8.33-18.65,17.9-32.93,31.14c-9.17,8.5-19.6,18.17-31.8,29.64
			c-9.64,9.06-20.38,19.24-32.48,30.86c-1.55,1.49-3.55,2.23-5.54,2.23c-2.1,0-4.2-0.82-5.77-2.46
			C9.34,548.33,9.45,543.27,12.63,540.21z"/>
		<path class="st5" d="M20.57,66.14c0.82,0,1.34-0.41,1.34-0.97c0-0.56-0.52-0.97-1.34-0.97c-0.8,0-1.32,0.41-1.32,0.97
			C19.25,65.72,19.77,66.14,20.57,66.14z"/>
		<path class="st5" d="M27.83,67.58c0.66,0,0.85-0.93,0.85-2.16c0-1.55-0.31-2.68-0.87-2.68c-0.39,0-0.54,0.29-0.54,0.85v3.38
			C27.27,67.33,27.48,67.58,27.83,67.58z"/>
		<path d="M733.81,204.67c-7.89,7.33-11.91,17.69-10.76,27.7c0.49,4.27,0.37,8.5-0.32,12.76c-1.87,11.45-8.08,23.02-19.02,35.56
			c-10.2,11.71-25.44,27.26-40.22,41.89l0.03,0.01c-40.15,40.05-62.35,60.64-62.57,60.85c-0.08,0.07-0.15,0.14-0.22,0.21
			c-4.92,4.93-12.94,4.93-17.87,0c-2.39-2.39-3.7-5.56-3.7-8.94c0-3.38,1.31-6.55,3.7-8.94L629,319.62
			c1.13-1.13,1.85-2.52,2.16-3.98c0.55-2.56-0.17-5.34-2.16-7.33c-0.68-0.68-1.46-1.21-2.29-1.59c-2.13-0.99-4.6-0.99-6.73,0
			c-0.83,0.38-1.61,0.91-2.29,1.59l-0.56,0.56l-45.59,45.59v0l-47.29,47.29c-5.26,5.26-13.82,5.26-19.08,0
			c-5.26-5.26-5.26-13.82,0-19.08l77.22-77.22c0,0,0,0,0,0l13.19-13.2c0.19-0.19,0.37-0.39,0.53-0.59c2.58-3.14,2.4-7.79-0.53-10.73
			c-3.12-3.12-8.19-3.12-11.31,0l-12.72,12.72l0.02,0.03c-0.17,0.14-0.34,0.29-0.5,0.45l-93.44,93.44
			c-2.55,2.55-5.94,3.95-9.54,3.95c-3.6,0-6.99-1.4-9.54-3.95c-5.26-5.26-5.26-13.82,0-19.09l95.54-95.54l0.48-0.48c0,0,0,0,0,0
			l9.29-9.29c3.12-3.12,3.12-8.19,0-11.31c-2.41-2.41-5.97-2.95-8.91-1.64c-0.87,0.39-1.69,0.93-2.4,1.64l-64.1,64.1l-25.6,25.6
			c-2.39,2.39-5.56,3.7-8.93,3.7s-6.55-1.31-8.94-3.7c-2.39-2.39-3.7-5.56-3.7-8.94c0-3.38,1.31-6.55,3.7-8.94l98.72-98.72
			l0.73-0.73c2.24-0.46,4.11-0.85,5.54-1.16c8.56,4.87,33.35,16.11,64.24,4.57c4.14-1.55,6.24-6.15,4.69-10.29
			c-0.6-1.59-1.65-2.88-2.95-3.78c-2.08-1.44-4.8-1.87-7.35-0.92c-29.48,11.02-51.67-4-52.57-4.62c-1.85-1.31-4.17-1.77-6.38-1.27
			c-0.29,0.07-29.36,6.59-60.14,10.3c-7.37,0.89-12.37-3.2-14.7-5.72c-4.33-4.69-5.66-10.16-5.07-13.3
			c0.88-0.58,3.44-1.42,5.34-2.04c2.37-0.77,5.05-1.65,8.06-2.93c15.02-6.38,49.58-20.69,52.15-21.75
			c2.04-0.75,19.71-7.4,46.49-21.26c13.26-6.86,43.94-4.59,54.64-3.14c2.48,0.34,4.97-0.5,6.74-2.27
			c8.33-8.33,17.9-18.66,31.15-32.95c12.04-12.99,27-29.14,46.28-49.41c10.13-10.65,21.45-22.45,34.16-35.53
			c3.08-3.17,3.01-8.23-0.16-11.31c-3.17-3.08-8.23-3.01-11.31,0.16c-37.05,38.11-62.28,65.33-80.71,85.21
			c-11.68,12.61-20.48,22.1-28,29.75c-11.55-1.26-42.96-3.63-60.15,5.27c-26.89,13.92-44.61,20.43-44.79,20.5
			c-0.11,0.04-0.22,0.08-0.32,0.13c-0.37,0.15-36.84,15.25-52.43,21.87c-2.38,1.01-4.62,1.74-6.78,2.45
			c-6.3,2.06-14.14,4.63-16.03,14c-1.78,8.82,1.75,19.58,8.98,27.41c6.56,7.1,15.31,10.99,24.46,10.99c1.29,0,2.6-0.08,3.9-0.24
			c8.82-1.06,17.43-2.34,25.29-3.62l-83.03,83.03c-5.41,5.41-8.39,12.6-8.39,20.25c0,7.65,2.98,14.84,8.39,20.25
			c3.21,3.21,7.05,5.56,11.24,6.94c-9.1,11.57-8.32,28.41,2.33,39.07c5.57,5.57,12.98,8.64,20.86,8.64c6.81,0,13.26-2.29,18.48-6.51
			c1.37,4.41,3.8,8.56,7.28,12.05c5.75,5.75,13.3,8.62,20.86,8.62c7.55,0,15.11-2.88,20.86-8.62l29.11-29.11
			c1.39,4.1,3.71,7.86,6.86,11.01c5.58,5.58,12.92,8.37,20.25,8.37c7.28,0,14.57-2.75,20.13-8.26c1.77-1.64,24.85-23.15,65.28-63.54
			c14.18-14.08,28.56-28.86,38.57-40.33c17.92-20.55,25.5-40.39,23.17-60.65c-0.3-2.59,0.15-5.26,1.22-7.77
			c1-2.33,2.53-4.52,4.54-6.39c0.52-0.48,1.05-0.97,1.59-1.47c4.33-3.97,9.42-8.48,15.22-13.61c5.19-4.59,11.08-9.8,17.66-15.73
			c3.28-2.96,3.55-8.01,0.59-11.3c-2.95-3.28-8.01-3.55-11.3-0.59c-6.53,5.88-12.39,11.06-17.56,15.63
			C744.31,195.16,738.6,200.21,733.81,204.67z"/>
		<path d="M18.18,553.98c1.99,0,3.99-0.74,5.54-2.23c12.1-11.62,22.85-21.8,32.48-30.86c12.2-11.47,22.63-21.13,31.8-29.64
			c14.28-13.24,24.61-22.81,32.93-31.14c1.77-1.77,2.61-4.26,2.27-6.74c-1.46-10.69-3.74-41.35,3.14-54.64
			c13.86-26.78,20.5-44.46,21.26-46.49c1.07-2.58,15.38-37.13,21.75-52.15c1.28-3.01,2.15-5.69,2.93-8.06
			c0.62-1.9,1.46-4.46,2.04-5.34c3.14-0.59,8.61,0.74,13.3,5.07c2.52,2.33,6.61,7.33,5.72,14.7c-3.71,30.79-10.24,59.86-10.3,60.15
			c-0.49,2.18-0.02,4.51,1.25,6.35c0.64,0.93,15.66,23.13,4.64,52.61c-0.93,2.49-0.53,5.14,0.82,7.2c0.9,1.37,2.22,2.48,3.87,3.09
			c4.14,1.55,8.75-0.56,10.29-4.69c11.54-30.89,0.3-55.68-4.57-64.24c0.31-1.43,0.7-3.3,1.16-5.54l0.73-0.73l98.72-98.72
			c2.39-2.39,5.56-3.7,8.93-3.7c3.38,0,6.55,1.31,8.94,3.7c2.39,2.39,3.7,5.56,3.7,8.94c0,3.37-1.31,6.54-3.7,8.93l-31.29,31.29
			l-58.42,58.42c-0.71,0.71-1.26,1.53-1.64,2.4c-1.31,2.94-0.77,6.5,1.64,8.91c1.56,1.56,3.61,2.34,5.66,2.34
			c2.05,0,4.09-0.78,5.66-2.34l9.29-9.29c0,0,0,0,0,0l0.48-0.48l95.54-95.54c5.26-5.26,13.83-5.26,19.09,0
			c5.26,5.26,5.26,13.82,0,19.09l-93.44,93.44c-0.16,0.16-0.31,0.33-0.45,0.5l-0.03-0.02l-12.72,12.72c-3.12,3.12-3.12,8.19,0,11.31
			c2.94,2.94,7.58,3.11,10.73,0.53c0.2-0.17,0.4-0.34,0.59-0.53l90.42-90.42c2.55-2.55,5.94-3.95,9.54-3.95
			c3.61,0,6.99,1.4,9.54,3.95c5.26,5.26,5.26,13.82,0,19.09l-92.88,92.88l-0.56,0.56c-3.12,3.12-3.12,8.19,0,11.31
			c0.98,0.98,2.14,1.65,3.38,2.01c1.29,0.38,2.65,0.43,3.95,0.15c1.46-0.31,2.85-1.03,3.98-2.16l46.15-46.15
			c2.39-2.39,5.56-3.7,8.94-3.7c3.38,0,6.55,1.31,8.93,3.7c2.39,2.39,3.7,5.56,3.7,8.94c0,3.38-1.31,6.55-3.7,8.94
			c-0.07,0.07-0.14,0.15-0.21,0.22c-0.21,0.23-20.77,22.4-60.85,62.57l-0.01-0.03c-14.62,14.78-30.18,30.01-41.88,40.22
			c-12.54,10.94-24.11,17.14-35.56,19.02c-4.25,0.7-8.49,0.81-12.76,0.32c-10.01-1.15-20.37,2.88-27.7,10.76
			c-4.46,4.8-9.51,10.5-15.35,17.11c-4.57,5.17-9.75,11.02-15.63,17.55c-2.96,3.28-2.69,8.34,0.59,11.3
			c1.53,1.38,3.44,2.05,5.35,2.05c2.19,0,4.37-0.89,5.95-2.65c5.93-6.58,11.13-12.47,15.72-17.66c5.13-5.8,9.64-10.9,13.62-15.23
			c0.5-0.54,0.99-1.07,1.47-1.59c1.87-2.01,4.06-3.54,6.39-4.54c2.51-1.07,5.18-1.52,7.77-1.22c20.27,2.32,40.11-5.26,60.66-23.17
			c11.45-9.98,26.18-24.32,40.23-38.47c40.45-40.48,61.99-63.6,63.64-65.37c5.34-5.4,8.27-12.54,8.27-20.14
			c0-7.65-2.98-14.84-8.39-20.25c-3.15-3.15-6.91-5.47-11.01-6.86l29.11-29.11c11.5-11.5,11.5-30.21,0-41.71
			c-3.42-3.42-7.54-5.9-12.04-7.3c9.3-11.57,8.59-28.59-2.14-39.32c-10.66-10.66-27.51-11.43-39.07-2.33
			c-1.38-4.19-3.73-8.03-6.94-11.24c-5.41-5.41-12.6-8.39-20.25-8.39c-7.65,0-14.84,2.98-20.25,8.39l-83.03,83.03
			c1.29-7.86,2.56-16.46,3.62-25.29c1.27-10.54-2.65-20.88-10.75-28.37c-7.83-7.23-18.59-10.76-27.41-8.98
			c-9.37,1.89-11.94,9.73-14,16.03c-0.71,2.16-1.44,4.4-2.45,6.78c-6.62,15.6-21.72,52.07-21.87,52.43
			c-0.04,0.1-0.09,0.21-0.12,0.32c-0.06,0.18-6.58,17.9-20.5,44.79c-8.9,17.2-6.53,48.6-5.27,60.15
			c-7.66,7.51-17.14,16.31-29.74,27.99c-16.47,15.26-36.96,34.26-64.49,60.69c-3.19,3.06-3.29,8.12-0.23,11.31
			C13.97,553.15,16.07,553.98,18.18,553.98z"/>
		<polygon points="26.86,294.91 26.86,291.63 17.67,288.72 17.67,291.73 22.88,293.38 22.88,293.47 17.67,294.81 17.67,297.46 
			22.88,298.81 22.88,298.89 17.67,300.54 17.67,303.77 17.67,303.86 17.67,306.78 22.88,308.43 22.88,308.51 17.67,309.85 
			17.67,312.51 22.88,313.85 22.88,313.93 17.67,315.58 17.67,318.82 17.67,318.9 17.67,321.83 22.88,323.47 22.88,323.56 
			17.67,324.9 17.67,327.56 22.88,328.9 22.88,328.98 17.67,330.63 17.67,333.95 26.86,331.04 26.86,327.76 21.67,326.42 
			21.67,326.34 26.86,325 26.86,321.72 17.8,318.86 26.86,315.99 26.86,312.72 21.67,311.38 21.67,311.29 26.86,309.95 
			26.86,306.68 17.8,303.81 26.86,300.95 26.86,297.67 21.67,296.33 21.67,296.25 		"/>
		<rect x="23.32" y="282.75" width="3.55" height="3.55"/>
		<path d="M20.37,279.87c4,0,6.74-2.87,6.74-6.66c0-3.98-2.51-6.1-5.75-6.35l-0.14,3.36c1.44,0.21,2.78,0.99,2.78,3.01
			c0,1.92-1.42,3.03-3.63,3.03c-2.21,0-3.63-1.11-3.63-3.03c0-2.02,1.34-2.8,2.78-3.01l-0.12-3.36c-3.24,0.25-5.77,2.37-5.77,6.35
			C13.63,277,16.37,279.87,20.37,279.87z"/>
		<path d="M27.07,257.77c0-0.95-0.27-1.61-0.6-2.08H24.7c0.1,0.27,0.14,0.47,0.14,0.74c0,0.35-0.21,0.56-0.68,0.56h-3.13
			c-2.56,0-3.61,1.79-3.61,4.23c0,2.76,1.4,4.27,3.42,4.56l0.21-3.09c-0.68-0.14-1.15-0.52-1.15-1.26c0-0.8,0.45-1.15,1.22-1.15
			h0.14l0.43,2.58c0.35,2,1.11,3.28,2.89,3.28c1.57,0,2.49-1.17,2.49-2.97c0-1.46-0.56-2.52-1.63-3.05
			C26.49,259.79,27.07,258.9,27.07,257.77z M24.14,262.9c-0.6,0-0.85-0.47-1.01-1.28l-0.25-1.36h0.14c1.2,0,1.9,0.76,1.9,1.71
			C24.92,262.53,24.61,262.9,24.14,262.9z"/>
		<path d="M30.16,251.38h-4.87c1.07-0.45,1.81-1.48,1.81-3.03c0-2.7-2.12-4.08-4.84-4.08c-2.7,0-4.84,1.38-4.84,4.08
			c0,1.55,0.74,2.58,1.83,3.03h-1.59v3.34h12.49V251.38z M22.33,251.38H22.2c-1.32,0-2.18-0.72-2.18-1.86c0-1.3,0.93-1.9,2.25-1.9
			c1.34,0,2.27,0.6,2.27,1.9C24.53,250.66,23.67,251.38,22.33,251.38z"/>
		<rect x="13.87" y="239.59" width="2.93" height="3.38"/>
		<rect x="17.67" y="239.61" width="9.19" height="3.34"/>
		<path d="M15.13,236.27l1.2,0.31c0.84,0.23,1.34,0.52,1.48,1.44l0.1,0.68h2.06v-1.24h4.33c2.17,0,2.8-1.46,2.8-3.01
			c0-1.26-0.31-2.06-0.82-2.76h-2.17c0.23,0.56,0.31,1.01,0.31,1.42c0,0.68-0.31,1.05-1.09,1.05h-3.36v-2.39h-2.31v2.39h-2.54
			V236.27z"/>
		<path d="M24.16,221.83h-3.13c-2.56,0-3.61,1.79-3.61,4.23c0,2.76,1.4,4.27,3.42,4.56l0.21-3.09c-0.68-0.14-1.15-0.52-1.15-1.26
			c0-0.8,0.45-1.15,1.22-1.15h0.14l0.43,2.58c0.35,2,1.11,3.28,2.89,3.28c1.57,0,2.49-1.17,2.49-2.97c0-1.46-0.56-2.52-1.63-3.05
			c1.05-0.31,1.63-1.2,1.63-2.33c0-0.95-0.27-1.61-0.6-2.08H24.7c0.1,0.27,0.14,0.47,0.14,0.74
			C24.84,221.62,24.63,221.83,24.16,221.83z M24.92,226.81c0,0.56-0.31,0.93-0.78,0.93c-0.6,0-0.85-0.47-1.01-1.28l-0.25-1.36h0.14
			C24.22,225.1,24.92,225.87,24.92,226.81z"/>
		<rect x="13.87" y="216.22" width="12.99" height="3.34"/>
		<rect x="13.87" y="211.05" width="2.93" height="3.38"/>
		<rect x="17.67" y="211.07" width="9.19" height="3.34"/>
		<path d="M20.53,209.73c1.88,0,2.6-1.17,2.95-3.4l0.21-1.36c0.1-0.64,0.35-0.85,0.7-0.85c0.37,0,0.64,0.39,0.64,1.13
			c0,1.01-0.43,1.63-1.2,1.75l0.04,2.91c2.23-0.19,3.24-2.08,3.24-4.62c0-2.62-1.11-4.27-3.05-4.27c-1.79,0-2.72,1.2-3.05,3.26
			l-0.31,1.79c-0.04,0.31-0.21,0.56-0.52,0.56c-0.41,0-0.66-0.37-0.66-1.01c0-1.03,0.41-1.61,1.07-1.73l-0.08-2.74
			c-1.92,0.19-3.09,1.75-3.09,4.41C17.42,208.14,18.72,209.73,20.53,209.73z"/>
		<path d="M17.42,193.55c0,1.38,0.62,2.37,1.63,2.87h-1.38v3.34h9.19v-3.34h-4.51c-1.38,0-2.29-0.39-2.29-1.48
			c0-1.01,0.66-1.26,1.92-1.26h4.89v-3.34h-4.51c-1.38,0-2.29-0.37-2.29-1.48c0-1.01,0.66-1.24,1.92-1.24h4.89v-3.34h-5.77
			c-1.92,0-3.67,0.74-3.67,3.28c0,1.55,0.78,2.64,1.81,3.13C18.16,191.07,17.42,191.92,17.42,193.55z"/>
		<rect x="13.87" y="175.51" width="12.99" height="3.5"/>
		<path d="M23.83,171.37l0.04,2.91c2.23-0.19,3.24-2.08,3.24-4.62c0-2.62-1.11-4.27-3.05-4.27c-1.79,0-2.72,1.2-3.05,3.26
			l-0.31,1.79c-0.04,0.31-0.21,0.56-0.52,0.56c-0.41,0-0.66-0.37-0.66-1.01c0-1.03,0.41-1.61,1.07-1.73l-0.08-2.74
			c-1.92,0.19-3.09,1.75-3.09,4.41c0,2.58,1.3,4.16,3.11,4.16c1.88,0,2.6-1.18,2.95-3.4l0.21-1.36c0.1-0.64,0.35-0.85,0.7-0.85
			c0.37,0,0.64,0.39,0.64,1.13C25.03,170.63,24.59,171.25,23.83,171.37z"/>
		<path d="M26.86,158.04l-2.51-0.97V152l2.51-0.97v-3.73l-12.99,5.17v3.92l12.99,5.17V158.04z M21.73,156.06l-3.83-1.48v-0.08
			l3.83-1.48V156.06z"/>
		<polygon points="26.86,136.77 13.87,131.78 13.87,135.26 22.51,138.48 22.51,138.56 13.87,141.78 13.87,145.45 26.86,140.46 		"/>
		<rect x="17.67" y="127.53" width="9.19" height="3.34"/>
		<rect x="13.87" y="127.51" width="2.93" height="3.38"/>
		<path d="M19.3,122.38h-1.63v3.34h9.19v-3.34h-4.21c-1.55,0-2.12-0.76-2.12-2c0-0.64,0.12-1.13,0.39-1.59l-3.15-0.21
			c-0.19,0.23-0.35,0.72-0.35,1.28C17.42,121.08,18.27,122.05,19.3,122.38z"/>
		<path d="M22.57,114.32h-4.91v3.34h5.79c1.92,0,3.65-0.76,3.65-3.28c0-1.38-0.6-2.39-1.63-2.89h1.38v-3.34h-9.19v3.34h4.51
			c1.4,0,2.31,0.41,2.31,1.46C24.49,113.97,23.81,114.32,22.57,114.32z"/>
		<path d="M20.53,106.82c1.88,0,2.6-1.18,2.95-3.4l0.21-1.36c0.1-0.64,0.35-0.85,0.7-0.85c0.37,0,0.64,0.39,0.64,1.13
			c0,1.01-0.43,1.63-1.2,1.75l0.04,2.91c2.23-0.19,3.24-2.08,3.24-4.62c0-2.62-1.11-4.27-3.05-4.27c-1.79,0-2.72,1.2-3.05,3.26
			l-0.31,1.79c-0.04,0.31-0.21,0.56-0.52,0.56c-0.41,0-0.66-0.37-0.66-1.01c0-1.03,0.41-1.61,1.07-1.73l-0.08-2.74
			c-1.92,0.19-3.09,1.75-3.09,4.41C17.42,105.23,18.72,106.82,20.53,106.82z"/>
		<rect x="23.32" y="91.73" width="3.55" height="3.55"/>
		<path d="M22.26,88.85c2.87,0,4.84-2.02,4.84-5.03c0-2.99-1.98-5.03-4.84-5.03c-2.84,0-4.84,2.04-4.84,5.03
			C17.42,86.83,19.42,88.85,22.26,88.85z M22.26,82.15c1.38,0,2.33,0.52,2.33,1.67c0,1.17-0.95,1.67-2.33,1.67
			c-1.38,0-2.33-0.49-2.33-1.67C19.93,82.67,20.88,82.15,22.26,82.15z"/>
		<path d="M17.77,70.34c-0.19,0.23-0.35,0.72-0.35,1.28c0,1.22,0.85,2.19,1.88,2.52h-1.63v3.34h9.19v-3.34h-4.21
			c-1.55,0-2.12-0.76-2.12-2c0-0.64,0.12-1.13,0.39-1.59L17.77,70.34z"/>
		<path d="M18.16,62.26c-0.47,0.78-0.74,1.83-0.74,2.95c0,2.58,1.2,4.43,3.15,4.43c1.01,0,1.79-0.49,2.33-1.32
			c0.37,0.99,1.05,1.57,1.94,1.57c0.78,0,1.53-0.49,1.79-1.32c0.08,1.03,0.72,1.75,1.53,1.75c1.73,0,2.25-2.27,2.25-4.89
			c0-2.99-1.05-5.77-3.34-5.77c-1.55,0-2.64,1.05-2.64,3.13v3.81c0,0.56-0.25,0.78-0.56,0.78c-0.19,0-0.33-0.06-0.43-0.19
			c0.19-0.6,0.27-1.26,0.27-2c0-2.6-1.2-4.47-3.13-4.47c-0.43,0-0.83,0.1-1.18,0.29c-0.1-0.45-0.14-0.95-0.14-1.34h-2.52
			C16.74,60.69,17.4,61.7,18.16,62.26z M27.27,63.58c0-0.56,0.14-0.85,0.54-0.85c0.56,0,0.87,1.13,0.87,2.68
			c0,1.24-0.19,2.16-0.85,2.16c-0.35,0-0.56-0.25-0.56-0.62V63.58z M20.57,64.2c0.82,0,1.34,0.41,1.34,0.97
			c0,0.56-0.52,0.97-1.34,0.97c-0.8,0-1.32-0.41-1.32-0.97C19.25,64.61,19.77,64.2,20.57,64.2z"/>
		<path d="M761.93,386.74v2.49l3.42,0.8v2.04l2.06,0.43v-1.98l2.02,0.49v1.88l2.06,0.43v-1.83l3.42,0.82v-2.49l-3.42-0.82v-1.77
			l3.42,0.82v-2.49l-3.42-0.82v-2.02l-2.06-0.43v1.98l-2.02-0.49v-1.88l-2.06-0.43v1.81l-3.42-0.8v2.49l3.42,0.8v1.77L761.93,386.74
			z M767.41,386.26l2.02,0.49v1.77l-2.02-0.49V386.26z"/>
		<path d="M768.42,395.95c-4,0-6.74,2.87-6.74,6.66c0,3.98,2.51,6.1,5.75,6.35l0.14-3.36c-1.44-0.21-2.78-0.99-2.78-3.01
			c0-1.92,1.42-3.03,3.63-3.03c2.21,0,3.63,1.11,3.63,3.03c0,2.02-1.34,2.8-2.78,3.01l0.12,3.36c3.24-0.25,5.77-2.37,5.77-6.35
			C775.16,398.82,772.42,395.95,768.42,395.95z"/>
		<path d="M761.72,418.05c0,0.95,0.27,1.61,0.6,2.08h1.77c-0.1-0.27-0.14-0.47-0.14-0.74c0-0.35,0.21-0.56,0.68-0.56h3.13
			c2.56,0,3.61-1.79,3.61-4.23c0-2.76-1.4-4.27-3.42-4.56l-0.21,3.09c0.68,0.14,1.15,0.52,1.15,1.26c0,0.8-0.45,1.15-1.22,1.15
			h-0.14l-0.43-2.58c-0.35-2-1.11-3.28-2.89-3.28c-1.57,0-2.49,1.18-2.49,2.97c0,1.46,0.56,2.51,1.63,3.05
			C762.3,416.03,761.72,416.92,761.72,418.05z M764.65,412.92c0.6,0,0.84,0.47,1.01,1.28l0.25,1.36h-0.14c-1.2,0-1.9-0.76-1.9-1.71
			C763.87,413.29,764.18,412.92,764.65,412.92z"/>
		<path d="M758.63,424.44h4.86c-1.07,0.45-1.81,1.48-1.81,3.03c0,2.7,2.12,4.08,4.84,4.08c2.7,0,4.84-1.38,4.84-4.08
			c0-1.55-0.74-2.58-1.83-3.03h1.59v-3.34h-12.49V424.44z M766.46,424.44h0.12c1.32,0,2.18,0.72,2.18,1.86c0,1.3-0.93,1.9-2.25,1.9
			c-1.34,0-2.27-0.6-2.27-1.9C764.26,425.16,765.12,424.44,766.46,424.44z"/>
		<rect x="761.93" y="432.87" width="9.19" height="3.34"/>
		<rect x="771.99" y="432.85" width="2.93" height="3.38"/>
		<path d="M773.66,439.54l-1.2-0.31c-0.85-0.23-1.34-0.52-1.48-1.44l-0.1-0.68h-2.06v1.24h-4.33c-2.16,0-2.8,1.46-2.8,3.01
			c0,1.26,0.31,2.06,0.82,2.76h2.16c-0.23-0.56-0.31-1.01-0.31-1.42c0-0.68,0.31-1.05,1.09-1.05h3.36v2.39h2.31v-2.39h2.54V439.54z"
			/>
		<path d="M764.63,453.99h3.13c2.56,0,3.61-1.79,3.61-4.23c0-2.76-1.4-4.27-3.42-4.56l-0.21,3.09c0.68,0.14,1.15,0.52,1.15,1.26
			c0,0.8-0.45,1.15-1.22,1.15h-0.14l-0.43-2.58c-0.35-2-1.11-3.28-2.89-3.28c-1.57,0-2.49,1.18-2.49,2.97
			c0,1.46,0.56,2.51,1.63,3.05c-1.05,0.31-1.63,1.2-1.63,2.33c0,0.95,0.27,1.61,0.6,2.08h1.77c-0.1-0.27-0.14-0.47-0.14-0.74
			C763.95,454.2,764.16,453.99,764.63,453.99z M763.87,449.01c0-0.56,0.31-0.93,0.78-0.93c0.6,0,0.84,0.47,1.01,1.28l0.25,1.36
			h-0.14C764.57,450.72,763.87,449.95,763.87,449.01z"/>
		<rect x="761.93" y="456.26" width="12.99" height="3.34"/>
		<rect x="771.99" y="461.39" width="2.93" height="3.38"/>
		<rect x="761.93" y="461.41" width="9.19" height="3.34"/>
		<path d="M768.26,466.09c-1.88,0-2.6,1.18-2.95,3.4l-0.21,1.36c-0.1,0.64-0.35,0.85-0.7,0.85c-0.37,0-0.64-0.39-0.64-1.13
			c0-1.01,0.43-1.63,1.2-1.75l-0.04-2.91c-2.23,0.19-3.24,2.08-3.24,4.62c0,2.62,1.11,4.27,3.05,4.27c1.79,0,2.72-1.2,3.05-3.26
			l0.31-1.79c0.04-0.31,0.21-0.56,0.51-0.56c0.41,0,0.66,0.37,0.66,1.01c0,1.03-0.41,1.61-1.07,1.73l0.08,2.74
			c1.92-0.19,3.09-1.75,3.09-4.41C771.37,467.68,770.07,466.09,768.26,466.09z"/>
		<path d="M771.37,482.27c0-1.38-0.62-2.37-1.63-2.87h1.38v-3.34h-9.19v3.34h4.51c1.38,0,2.29,0.39,2.29,1.48
			c0,1.01-0.66,1.26-1.92,1.26h-4.89v3.34h4.51c1.38,0,2.29,0.37,2.29,1.48c0,1.01-0.66,1.24-1.92,1.24h-4.89v3.34h5.77
			c1.92,0,3.67-0.74,3.67-3.28c0-1.55-0.78-2.64-1.81-3.13C770.63,484.74,771.37,483.9,771.37,482.27z"/>
		<rect x="761.93" y="495.14" width="12.99" height="3.5"/>
		<path d="M764.96,502.78l-0.04-2.91c-2.23,0.19-3.24,2.08-3.24,4.62c0,2.62,1.11,4.27,3.05,4.27c1.79,0,2.72-1.2,3.05-3.26
			l0.31-1.79c0.04-0.31,0.21-0.56,0.51-0.56c0.41,0,0.66,0.37,0.66,1.01c0,1.03-0.41,1.61-1.07,1.73l0.08,2.74
			c1.92-0.19,3.09-1.75,3.09-4.41c0-2.58-1.3-4.16-3.11-4.16c-1.88,0-2.6,1.18-2.95,3.4l-0.21,1.36c-0.1,0.64-0.35,0.85-0.7,0.85
			c-0.37,0-0.64-0.39-0.64-1.13C763.76,503.53,764.2,502.91,764.96,502.78z"/>
		<path d="M761.93,514.46l2.51,0.97v5.07l-2.51,0.97v3.73l12.99-5.17v-3.92l-12.99-5.17V514.46z M767.06,516.44l3.83,1.48V518
			l-3.83,1.48V516.44z"/>
		<polygon points="761.93,535.67 774.92,540.66 774.92,537.18 766.28,533.96 766.28,533.88 774.92,530.66 774.92,526.99 
			761.93,531.98 		"/>
		<rect x="771.99" y="541.54" width="2.93" height="3.38"/>
		<rect x="761.93" y="541.56" width="9.19" height="3.34"/>
		<path d="M769.49,550.06h1.63v-3.34h-9.19v3.34h4.21c1.55,0,2.12,0.76,2.12,2c0,0.64-0.12,1.13-0.39,1.59l3.15,0.21
			c0.19-0.23,0.35-0.72,0.35-1.28C771.37,551.36,770.53,550.39,769.49,550.06z"/>
		<path d="M766.22,558.12h4.91v-3.34h-5.79c-1.92,0-3.65,0.76-3.65,3.28c0,1.38,0.6,2.39,1.63,2.89h-1.38v3.34h9.19v-3.34h-4.51
			c-1.4,0-2.31-0.41-2.31-1.46C764.3,558.47,764.98,558.12,766.22,558.12z"/>
		<path d="M768.26,565.62c-1.88,0-2.6,1.18-2.95,3.4l-0.21,1.36c-0.1,0.64-0.35,0.85-0.7,0.85c-0.37,0-0.64-0.39-0.64-1.13
			c0-1.01,0.43-1.63,1.2-1.75l-0.04-2.91c-2.23,0.19-3.24,2.08-3.24,4.62c0,2.62,1.11,4.27,3.05,4.27c1.79,0,2.72-1.2,3.05-3.26
			l0.31-1.79c0.04-0.31,0.21-0.56,0.51-0.56c0.41,0,0.66,0.37,0.66,1.01c0,1.03-0.41,1.61-1.07,1.73l0.08,2.74
			c1.92-0.19,3.09-1.75,3.09-4.41C771.37,567.2,770.07,565.62,768.26,565.62z"/>
	</g>
</g>
</svg>
