<?xml version="1.0" encoding="utf-8"?>
<!-- Generator: Adobe Illustrator 23.1.1, SVG Export Plug-In . SVG Version: 6.00 Build 0)  -->
<svg version="1.1" xmlns="http://www.w3.org/2000/svg" xmlns:xlink="http://www.w3.org/1999/xlink" x="0px" y="0px"
	 viewBox="0 0 792 612" style="enable-background:new 0 0 792 612;" xml:space="preserve">
<style type="text/css">
	.st0{display:none;}
	.st1{display:inline;fill:#FFFFFF;}
	.st2{display:inline;}
	.st3{fill:#FFFFFF;stroke:#000000;stroke-width:16;stroke-linecap:round;stroke-linejoin:round;stroke-miterlimit:10;}
	.st4{fill:none;stroke:#000000;stroke-width:24;stroke-linejoin:round;stroke-miterlimit:10;}
	.st5{fill:#FFFFFF;}
	.st6{fill:#FFFFFF;stroke:#000000;stroke-width:17;stroke-linecap:round;stroke-miterlimit:10;}
	.st7{fill:#FFFFFF;stroke:#000000;stroke-width:17;stroke-miterlimit:10;}
	.st8{stroke:#000000;stroke-width:16.0572;stroke-linecap:round;stroke-miterlimit:10;}
	.st9{fill:#FFFFFF;stroke:#000000;stroke-width:13.497;stroke-linecap:round;stroke-linejoin:round;stroke-miterlimit:10;}
	.st10{stroke:#000000;stroke-width:18.3348;stroke-linecap:round;stroke-miterlimit:10;}
	.st11{fill:none;stroke:#000000;stroke-width:13.497;stroke-linecap:round;stroke-linejoin:round;stroke-miterlimit:10;}
	.st12{fill:#FFFFFF;stroke:#000000;stroke-width:14.6942;stroke-linecap:round;stroke-linejoin:round;stroke-miterlimit:10;}
	.st13{fill:none;stroke:#000000;stroke-width:13;stroke-linecap:round;stroke-linejoin:round;stroke-miterlimit:10;}
	.st14{fill:none;stroke:#000000;stroke-width:13;stroke-linejoin:round;stroke-miterlimit:10;}
	.st15{fill:url(#);stroke:#000000;stroke-width:13;stroke-linejoin:round;stroke-miterlimit:10;}
	.st16{fill:none;stroke:#000000;stroke-width:30.5612;stroke-linecap:round;stroke-linejoin:round;stroke-miterlimit:10;}
	.st17{fill:#FFFFFF;stroke:#000000;stroke-width:16.2993;stroke-linecap:round;stroke-linejoin:round;stroke-miterlimit:10;}
	.st18{font-family:'FoundersGrotesk-Bold';}
	.st19{font-size:194.6451px;}
	.st20{font-size:140px;}
	.st21{font-size:198.8532px;}
	.st22{font-size:20.6105px;}
	.st23{font-size:10.3052px;}
	.st24{font-size:19.2364px;}
	.st25{font-size:10px;}
	.st26{fill:#FFFFFF;stroke:#000000;stroke-width:13.497;stroke-linecap:round;stroke-miterlimit:10;}
	.st27{fill:url(#);stroke:#000000;stroke-width:13.497;stroke-linecap:round;stroke-linejoin:round;stroke-miterlimit:10;}
	.st28{fill:#FFFFFF;stroke:#000000;stroke-width:11.7326;stroke-linecap:round;stroke-linejoin:round;stroke-miterlimit:10;}
	.st29{fill:#FFFFFF;stroke:#000000;stroke-width:13.2623;stroke-linecap:round;stroke-linejoin:round;stroke-miterlimit:10;}
	.st30{fill:#FFFFFF;stroke:#000000;stroke-width:13.2623;stroke-linecap:round;stroke-miterlimit:10;}
	.st31{stroke:#000000;stroke-width:4.5213;stroke-miterlimit:10;}
	.st32{fill:none;stroke:#000000;stroke-width:16;stroke-linecap:round;stroke-miterlimit:10;}
	.st33{fill:url(#);stroke:#000000;stroke-width:16;stroke-linecap:round;stroke-linejoin:round;stroke-miterlimit:10;}
	.st34{fill:#FFFFFF;stroke:#000000;stroke-width:16;stroke-linecap:round;stroke-miterlimit:10;}
	.st35{fill:none;stroke:#000000;stroke-width:16;stroke-linecap:round;stroke-linejoin:round;stroke-miterlimit:10;}
	.st36{fill:none;stroke:#000000;stroke-width:15.2344;stroke-linecap:round;stroke-linejoin:round;stroke-miterlimit:10;}
	.st37{fill:#FFFFFF;stroke:#000000;stroke-width:15.2344;stroke-linecap:round;stroke-linejoin:round;stroke-miterlimit:10;}
	.st38{fill:#FFFFFF;stroke:#000000;stroke-width:17;stroke-linecap:round;stroke-linejoin:round;stroke-miterlimit:10;}
	.st39{fill:none;stroke:#000000;stroke-width:9.9764;stroke-linecap:round;stroke-linejoin:round;stroke-miterlimit:10;}
	.st40{fill:none;stroke:#000000;stroke-width:9.3127;stroke-linejoin:round;stroke-miterlimit:10;}
	.st41{fill:url(#);}
	.st42{fill:none;stroke:#000000;stroke-width:8.3796;stroke-linecap:round;stroke-linejoin:round;stroke-miterlimit:10;}
	
		.st43{display:inline;fill:none;stroke:#000000;stroke-width:9.9764;stroke-linecap:round;stroke-linejoin:round;stroke-miterlimit:10;}
	.st44{display:inline;fill:none;stroke:#000000;stroke-width:9.3127;stroke-linejoin:round;stroke-miterlimit:10;}
	.st45{display:inline;fill:url(#);stroke:#000000;stroke-width:10;stroke-linejoin:round;stroke-miterlimit:10;}
	.st46{fill:#FFFFFF;stroke:#000000;stroke-width:14.7375;stroke-linecap:round;stroke-linejoin:round;stroke-miterlimit:10;}
	.st47{fill:none;stroke:#000000;stroke-width:14.7375;stroke-linecap:round;stroke-linejoin:round;stroke-miterlimit:10;}
	.st48{stroke:#000000;stroke-width:14.7375;stroke-linecap:round;stroke-linejoin:round;stroke-miterlimit:10;}
	.st49{fill:#FFFFFF;stroke:#000000;stroke-width:14.2911;stroke-linecap:round;stroke-linejoin:round;stroke-miterlimit:10;}
	.st50{fill:none;stroke:#000000;stroke-width:15;stroke-linecap:round;stroke-linejoin:round;stroke-miterlimit:10;}
	.st51{fill:#FFFFFF;stroke:#000000;stroke-width:15;stroke-linecap:round;stroke-linejoin:round;stroke-miterlimit:10;}
	.st52{fill:#FFFFFF;stroke:#000000;stroke-width:14.8467;stroke-linecap:round;stroke-linejoin:round;stroke-miterlimit:10;}
	.st53{stroke:#000000;stroke-width:20.1683;stroke-linecap:round;stroke-miterlimit:10;}
	.st54{fill:none;stroke:#000000;stroke-width:14.8467;stroke-linecap:round;stroke-linejoin:round;stroke-miterlimit:10;}
	.st55{fill:none;stroke:#000000;stroke-width:13.497;stroke-miterlimit:10;}
	.st56{fill:#FFFFFF;stroke:#000000;stroke-width:13.497;stroke-miterlimit:10;}
	.st57{fill:#FFFFFF;stroke:#000000;stroke-width:14.7439;stroke-linecap:round;stroke-miterlimit:10;}
	.st58{fill:#FFFFFF;stroke:#000000;stroke-width:14.7439;stroke-miterlimit:10;}
	.st59{stroke:#000000;stroke-width:13.9262;stroke-linecap:round;stroke-miterlimit:10;}
	.st60{fill:#FFFFFF;stroke:#000000;stroke-width:17.1072;stroke-linecap:round;stroke-linejoin:round;stroke-miterlimit:10;}
	.st61{stroke:#000000;stroke-width:17.1072;stroke-linecap:round;stroke-linejoin:round;stroke-miterlimit:10;}
	.st62{fill:#FFFFFF;stroke:#000000;stroke-width:15;stroke-linecap:square;stroke-linejoin:round;stroke-miterlimit:10;}
	.st63{fill:#FFFFFF;stroke:#000000;stroke-width:15;stroke-linejoin:round;stroke-miterlimit:10;}
	.st64{fill:#FFFFFF;stroke:#000000;stroke-width:14;stroke-linecap:round;stroke-linejoin:round;stroke-miterlimit:10;}
	.st65{fill:#FFFFFF;stroke:#000000;stroke-width:13;stroke-linecap:round;stroke-linejoin:round;stroke-miterlimit:10;}
	.st66{fill:#FFFFFF;stroke:#000000;stroke-width:15.2362;stroke-linecap:round;stroke-linejoin:round;stroke-miterlimit:10;}
	.st67{fill:#FFFFFF;stroke:#FFFFFF;stroke-width:3;stroke-miterlimit:10;}
	.st68{fill:#FFFFFF;stroke:#000000;stroke-width:13.3058;stroke-linecap:round;stroke-linejoin:round;stroke-miterlimit:10;}
	.st69{fill:#FFFFFF;stroke:#000000;stroke-width:15.2517;stroke-linecap:round;stroke-linejoin:round;stroke-miterlimit:10;}
	.st70{stroke:#000000;stroke-width:3;stroke-miterlimit:10;}
</style>
<g id="unexpanded" class="st0">
	<rect x="-7425.75" y="-343.56" class="st1" width="14663.41" height="9108.82"/>
	<g class="st2">
		<rect x="0" class="st5" width="792" height="1224"/>
		<g>
			<text transform="matrix(1 0 0 1 -0.5449 199.4407)" class="st18 st19">Medicare</text>
			<g>
				<text transform="matrix(1 0 0 1 49.8105 338.676)" class="st18 st20">para Todos</text>
			</g>
			<g>
				<text transform="matrix(1 0 0 1 57.5029 523.2063)" class="st18 st21">AHORA</text>
			</g>
		</g>
		<g>
			<g>
				<text transform="matrix(1 0 0 1 258.9679 23.5542)"><tspan x="0" y="0" class="st18 st22">www</tspan><tspan x="45.14" y="0" class="st18 st23"> </tspan><tspan x="46.99" y="0" class="st18 st22">.</tspan><tspan x="51.77" y="0" class="st18 st23"> </tspan><tspan x="53.63" y="0" class="st18 st22">Capitalism</tspan><tspan x="150.43" y="0" class="st18 st24"> </tspan><tspan x="153.9" y="0" class="st18 st22">Is</tspan><tspan x="168.88" y="0" class="st18 st24"> </tspan><tspan x="172.34" y="0" class="st18 st22">A</tspan><tspan x="186.6" y="0" class="st18 st23"> </tspan><tspan x="188.46" y="0" class="st18 st22">Virus</tspan><tspan x="236.15" y="0" class="st18 st23"> </tspan><tspan x="238.01" y="0" class="st18 st22">.</tspan><tspan x="242.79" y="0" class="st18 st23"> </tspan><tspan x="244.64" y="0" class="st18 st22">org</tspan></text>
			</g>
			<g>
				<text transform="matrix(1 0 0 1 299.1802 596.9932)"><tspan x="0" y="0" class="st18 st22">#</tspan><tspan x="12.7" y="0" class="st18 st25"> </tspan><tspan x="14.5" y="0" class="st18 st22">Capitalism</tspan><tspan x="111.3" y="0" class="st18 st25"> </tspan><tspan x="113.1" y="0" class="st18 st22">Is</tspan><tspan x="128.09" y="0" class="st18 st25"> </tspan><tspan x="129.89" y="0" class="st18 st22">A</tspan><tspan x="144.15" y="0" class="st18 st25"> </tspan><tspan x="145.95" y="0" class="st18 st22">Virus</tspan></text>
			</g>
		</g>
	</g>
</g>
<g id="exp_trnsp_bg">
	<polygon points="39.45,113.21 40.23,113.21 62.23,199.44 90.45,199.44 112.44,113.21 113.22,113.21 113.22,199.44 146.31,199.44 
		146.31,76.82 96.29,76.82 78.97,153.9 78.38,153.9 60.28,76.82 9.09,76.82 9.09,199.44 39.45,199.44 	"/>
	<path d="M207.24,201.78c22.97,0,38.93-11.09,43.4-30.95l-25.3-2.34c-2.92,6.81-8.37,9.73-16.93,9.73c-9.54,0-17.32-5.06-18.1-15.77
		h60.92v-8.76c0-23.55-15.38-43.4-44.38-43.4c-27.05,0-47.3,19.66-47.3,47.1C159.55,185.04,179.4,201.78,207.24,201.78z
		 M206.46,132.87c9.34,0,14.4,6.62,14.79,14.4h-30.56C191.86,139.1,196.34,132.87,206.46,132.87z"/>
	<path d="M327.33,127.62c-4.09-10.32-14.01-17.32-28.42-17.32c-25.69,0-38.54,20.24-38.54,45.74c0,25.69,12.85,45.74,38.54,45.74
		c14.4,0,24.33-7.01,28.42-17.13v14.79h31.53V76.82h-31.53V127.62z M327.33,156.62c0,12.65-6.81,20.83-17.32,20.83
		c-12.46,0-17.91-8.76-17.91-21.41c0-12.46,5.45-21.22,17.91-21.22c10.51,0,17.32,8.18,17.32,20.63V156.62z"/>
	<rect x="375.99" y="112.63" width="31.53" height="86.81"/>
	<rect x="375.79" y="76.82" width="31.92" height="27.64"/>
	<path d="M419.98,156.04c0,27.64,20.05,45.74,47.49,45.74c26.08,0,40.68-16.74,42.82-37.76l-25.89-1.95
		c-2.14,10.71-7.4,15.96-16.54,15.96c-9.54,0-16.16-6.42-16.16-21.99s6.62-21.99,16.16-21.99c9.15,0,14.4,5.06,16.54,15.77
		l25.89-1.75c-2.14-20.83-16.74-37.76-42.82-37.76C440.03,110.3,419.98,128.59,419.98,156.04z"/>
	<path d="M520.61,142.61l29.2,1.95c1.36-6.42,4.87-10.9,11.87-10.9c7.59,0,10.9,4.28,10.9,11.48v1.36l-24.33,4.09
		c-18.88,3.31-30.95,10.51-30.95,27.25c0,14.79,11.09,23.55,28.03,23.55c13.82,0,23.75-5.26,28.81-15.38
		c2.92,9.93,11.29,15.38,21.99,15.38c8.95,0,15.18-2.53,19.66-5.64V179c-2.53,0.97-4.48,1.36-7.01,1.36c-3.31,0-5.26-1.95-5.26-6.42
		v-29.59c0-24.14-16.93-34.06-39.9-34.06C537.54,110.3,523.33,123.53,520.61,142.61z M572.58,163.24c0,11.29-7.2,17.91-16.16,17.91
		c-5.25,0-8.76-2.92-8.76-7.4c0-5.65,4.48-7.98,12.07-9.54l12.85-2.34V163.24z"/>
	<path d="M656.47,159.73c0-14.6,7.2-20.05,18.88-20.05c6.03,0,10.71,1.17,14.99,3.7l1.95-29.78c-2.14-1.75-6.81-3.31-12.07-3.31
		c-11.48,0-20.63,7.98-23.75,17.71v-15.38h-31.53v86.81h31.53V159.73z"/>
	<path d="M743.48,201.78c22.97,0,38.93-11.09,43.41-30.95l-25.3-2.34c-2.92,6.81-8.37,9.73-16.93,9.73
		c-9.54,0-17.32-5.06-18.1-15.77h60.92v-8.76c0-23.55-15.38-43.4-44.38-43.4c-27.05,0-47.3,19.66-47.3,47.1
		C695.79,185.04,715.64,201.78,743.48,201.78z M742.7,132.87c9.34,0,14.4,6.62,14.79,14.4h-30.56
		C728.1,139.1,732.58,132.87,742.7,132.87z"/>
	<path d="M63.46,276.24v84.84h22.68v-33.04c3.08,7.28,10.08,12.32,20.58,12.32c18.34,0,27.72-14.42,27.72-32.9
		c0-18.34-9.38-32.9-27.72-32.9c-10.5,0-17.5,5.04-20.58,12.46v-10.78H63.46z M98.74,292.2c8.82,0,12.88,6.3,12.88,15.26
		c0,9.1-4.06,15.4-12.88,15.4c-7.7,0-12.6-5.88-12.6-14.98v-0.84C86.14,298.08,91.04,292.2,98.74,292.2z"/>
	<path d="M163.14,299.2c0.98-4.62,3.5-7.84,8.54-7.84c5.46,0,7.84,3.08,7.84,8.26v0.98l-17.5,2.94
		c-13.58,2.38-22.26,7.56-22.26,19.6c0,10.64,7.98,16.94,20.16,16.94c9.94,0,17.08-3.78,20.72-11.06
		c2.1,7.14,8.12,11.06,15.82,11.06c6.44,0,10.92-1.82,14.14-4.06v-12.04c-1.82,0.7-3.22,0.98-5.04,0.98c-2.38,0-3.78-1.4-3.78-4.62
		v-21.28c0-17.36-12.18-24.5-28.7-24.5c-18.76,0-28.98,9.52-30.94,23.24L163.14,299.2z M179.52,312.64
		c0,8.12-5.18,12.88-11.62,12.88c-3.78,0-6.3-2.1-6.3-5.32c0-4.06,3.22-5.74,8.68-6.86l9.24-1.68V312.64z"/>
	<path d="M239.86,287.3v-11.06h-22.68v62.44h22.68v-28.56c0-10.5,5.18-14.42,13.58-14.42c4.34,0,7.7,0.84,10.78,2.66l1.4-21.42
		c-1.54-1.26-4.9-2.38-8.68-2.38C248.68,274.56,242.1,280.3,239.86,287.3z"/>
	<path d="M289.84,303.54c-13.58,2.38-22.26,7.56-22.26,19.6c0,10.64,7.98,16.94,20.16,16.94c9.94,0,17.08-3.78,20.72-11.06
		c2.1,7.14,8.12,11.06,15.82,11.06c6.44,0,10.92-1.82,14.14-4.06v-12.04c-1.82,0.7-3.22,0.98-5.04,0.98c-2.38,0-3.78-1.4-3.78-4.62
		v-21.28c0-17.36-12.18-24.5-28.7-24.5c-18.76,0-28.98,9.52-30.94,23.24l21,1.4c0.98-4.62,3.5-7.84,8.54-7.84
		c5.46,0,7.84,3.08,7.84,8.26v0.98L289.84,303.54z M307.34,312.64c0,8.12-5.18,12.88-11.62,12.88c-3.78,0-6.3-2.1-6.3-5.32
		c0-4.06,3.22-5.74,8.68-6.86l9.24-1.68V312.64z"/>
	<polygon points="367.54,270.08 397.78,270.08 397.78,338.68 421.44,338.68 421.44,270.08 452.1,270.08 452.1,250.48 367.54,250.48 
			"/>
	<path d="M478.56,274.56c-20.44,0-34.16,13.58-34.16,32.9c0,19.46,13.72,32.9,34.16,32.9c20.3,0,34.16-13.44,34.16-32.9
		C512.72,288.14,498.86,274.56,478.56,274.56z M478.56,323.28c-7.98,0-11.34-6.44-11.34-15.82s3.36-15.82,11.34-15.82
		c7.84,0,11.34,6.44,11.34,15.82S486.4,323.28,478.56,323.28z"/>
	<path d="M589.58,338.68v-88.2H566.9v36.54c-2.94-7.42-10.08-12.46-20.44-12.46c-18.48,0-27.72,14.56-27.72,32.9
		c0,18.48,9.24,32.9,27.72,32.9c10.36,0,17.5-5.04,20.44-12.32v10.64H589.58z M554.44,322.86c-8.96,0-12.88-6.3-12.88-15.4
		c0-8.96,3.92-15.26,12.88-15.26c7.56,0,12.46,5.88,12.46,14.84v0.84C566.9,316.98,562,322.86,554.44,322.86z"/>
	<path d="M666.85,307.46c0-19.32-13.86-32.9-34.16-32.9c-20.44,0-34.16,13.58-34.16,32.9c0,19.46,13.72,32.9,34.16,32.9
		C652.99,340.36,666.85,326.92,666.85,307.46z M621.35,307.46c0-9.38,3.36-15.82,11.34-15.82c7.84,0,11.34,6.44,11.34,15.82
		s-3.5,15.82-11.34,15.82C624.71,323.28,621.35,316.84,621.35,307.46z"/>
	<path d="M702.97,326.22c-6.86,0-11.06-2.94-11.9-8.12l-19.74,0.28c1.26,15.12,14.14,21.98,31.36,21.98
		c17.78,0,28.98-7.56,28.98-20.72c0-12.18-8.12-18.48-22.12-20.72l-12.18-2.1c-2.1-0.28-3.78-1.4-3.78-3.5
		c0-2.8,2.52-4.48,6.86-4.48c7,0,10.92,2.8,11.76,7.28l18.62-0.56c-1.26-13.02-11.9-21-29.96-21c-17.5,0-28.28,8.82-28.28,21.14
		c0,12.74,7.98,17.64,23.1,20.02l9.24,1.4c4.34,0.7,5.74,2.38,5.74,4.76C710.67,324.4,708.01,326.22,702.97,326.22z"/>
	<path d="M145.2,397.93h-37.78L57.5,523.21h34l9.35-24.26h48.92l9.35,24.26h35.99L145.2,397.93z M110.6,473.69l14.32-36.99h0.79
		l14.32,36.99H110.6z"/>
	<polygon points="204.65,397.93 204.65,523.21 238.46,523.21 238.46,473.69 288.37,473.69 288.37,523.21 322.17,523.21 
		322.17,397.93 288.37,397.93 288.37,446.25 238.46,446.25 238.46,397.93 	"/>
	<path d="M335.69,460.57c0,38.58,28.63,65.02,65.03,65.02c36.39,0,65.02-26.45,65.02-65.02c0-38.58-28.63-65.02-65.02-65.02
		C364.33,395.54,335.69,421.99,335.69,460.57z M400.72,425.37c18.49,0,30.23,13.92,30.23,35.2c0,21.28-11.73,35.2-30.23,35.2
		s-30.23-13.92-30.23-35.2C370.49,439.29,382.23,425.37,400.72,425.37z"/>
	<path d="M479.26,523.21h33.21v-41.56h22.47c11.33,0,17.5,3.18,18.49,17.5c0.99,12.93,2.58,20.68,5.17,24.06h34.2
		c-4.18-4.57-4.77-10.14-6.56-28.83c-1.39-14.52-8.95-21.87-21.87-24.46c15.31-1.99,26.65-13.92,26.65-32.21
		c0-24.46-16.11-39.77-48.52-39.77h-63.24V523.21z M512.47,424.97h24.06c14.32,0,21.48,5.37,21.48,15.51
		c0,11.53-7.16,15.11-21.48,15.11h-24.06V424.97z"/>
	<path d="M646.3,397.93l-49.91,125.28h34l9.35-24.26h48.92l9.35,24.26h35.99l-49.91-125.28H646.3z M649.48,473.69l14.32-36.99h0.79
		l14.32,36.99H649.48z"/>
	<polygon points="265.16,23.55 266.5,18.36 266.58,18.36 267.92,23.55 271.2,23.55 274.07,14.5 276.93,23.55 280.21,23.55 
		281.55,18.36 281.63,18.36 282.97,23.55 286.25,23.55 289.11,14.49 291.98,23.55 295.25,23.55 296.59,18.36 296.68,18.36 
		298.02,23.55 301.29,23.55 304.2,14.36 301.19,14.36 299.54,19.58 299.46,19.58 298.12,14.36 295.46,14.36 294.12,19.58 
		294.04,19.58 292.39,14.36 289.15,14.36 289.07,14.36 286.14,14.36 284.5,19.58 284.41,19.58 283.07,14.36 280.41,14.36 
		279.07,19.58 278.99,19.58 277.34,14.36 274.11,14.36 274.02,14.36 271.1,14.36 269.45,19.58 269.37,19.58 268.03,14.36 
		265.37,14.36 264.03,19.58 263.95,19.58 262.3,14.36 258.98,14.36 261.88,23.55 	"/>
	<rect x="306.63" y="20.01" width="3.55" height="3.55"/>
	<path d="M319.72,23.8c3.98,0,6.1-2.52,6.35-5.75l-3.36-0.14c-0.21,1.44-0.99,2.78-3.01,2.78c-1.92,0-3.03-1.42-3.03-3.63
		s1.11-3.63,3.03-3.63c2.02,0,2.8,1.34,3.01,2.78l3.36-0.12c-0.25-3.24-2.37-5.77-6.35-5.77c-3.79,0-6.66,2.74-6.66,6.74
		S315.92,23.8,319.72,23.8z"/>
	<path d="M330.08,18.38c-2,0.35-3.28,1.11-3.28,2.89c0,1.57,1.17,2.49,2.97,2.49c1.46,0,2.51-0.56,3.05-1.63
		c0.31,1.05,1.2,1.63,2.33,1.63c0.95,0,1.61-0.27,2.08-0.6v-1.77c-0.27,0.1-0.47,0.14-0.74,0.14c-0.35,0-0.56-0.21-0.56-0.68v-3.13
		c0-2.56-1.79-3.61-4.23-3.61c-2.76,0-4.27,1.4-4.56,3.42l3.09,0.21c0.14-0.68,0.52-1.15,1.26-1.15c0.8,0,1.15,0.45,1.15,1.22v0.14
		L330.08,18.38z M332.66,19.72c0,1.2-0.76,1.9-1.71,1.9c-0.56,0-0.93-0.31-0.93-0.78c0-0.6,0.47-0.85,1.28-1.01l1.36-0.25V19.72z"/>
	<path d="M341.54,21.99c0.45,1.07,1.48,1.81,3.03,1.81c2.7,0,4.08-2.12,4.08-4.84c0-2.7-1.38-4.84-4.08-4.84
		c-1.55,0-2.58,0.74-3.03,1.83v-1.59h-3.34v12.49h3.34V21.99z M341.54,18.9c0-1.32,0.72-2.19,1.86-2.19c1.3,0,1.9,0.93,1.9,2.25
		c0,1.34-0.6,2.27-1.9,2.27c-1.13,0-1.86-0.87-1.86-2.21V18.9z"/>
	<rect x="349.97" y="14.36" width="3.34" height="9.19"/>
	<rect x="349.95" y="10.57" width="3.38" height="2.93"/>
	<path d="M355.46,21c0,2.16,1.46,2.8,3.01,2.8c1.26,0,2.06-0.31,2.76-0.82v-2.16c-0.56,0.23-1.01,0.31-1.42,0.31
		c-0.68,0-1.05-0.31-1.05-1.09v-3.36h2.39v-2.31h-2.39v-2.54h-2.1l-0.31,1.2c-0.23,0.85-0.52,1.34-1.44,1.48l-0.68,0.1v2.06h1.24V21
		z"/>
	<path d="M365.25,18.38c-2,0.35-3.28,1.11-3.28,2.89c0,1.57,1.17,2.49,2.97,2.49c1.46,0,2.52-0.56,3.05-1.63
		c0.31,1.05,1.2,1.63,2.33,1.63c0.95,0,1.61-0.27,2.08-0.6v-1.77c-0.27,0.1-0.47,0.14-0.74,0.14c-0.35,0-0.56-0.21-0.56-0.68v-3.13
		c0-2.56-1.79-3.61-4.23-3.61c-2.76,0-4.27,1.4-4.56,3.42l3.09,0.21c0.14-0.68,0.52-1.15,1.26-1.15c0.8,0,1.15,0.45,1.15,1.22v0.14
		L365.25,18.38z M367.82,19.72c0,1.2-0.76,1.9-1.71,1.9c-0.56,0-0.93-0.31-0.93-0.78c0-0.6,0.47-0.85,1.28-1.01l1.36-0.25V19.72z"/>
	<rect x="373.37" y="10.57" width="3.34" height="12.99"/>
	<rect x="378.52" y="14.36" width="3.34" height="9.19"/>
	<rect x="378.5" y="10.57" width="3.38" height="2.93"/>
	<path d="M387.67,21.72c-1.01,0-1.63-0.43-1.75-1.2l-2.91,0.04c0.19,2.23,2.08,3.24,4.62,3.24c2.62,0,4.27-1.11,4.27-3.05
		c0-1.79-1.2-2.72-3.26-3.05l-1.79-0.31c-0.31-0.04-0.56-0.21-0.56-0.52c0-0.41,0.37-0.66,1.01-0.66c1.03,0,1.61,0.41,1.73,1.07
		l2.74-0.08c-0.19-1.92-1.75-3.09-4.41-3.09c-2.58,0-4.16,1.3-4.16,3.11c0,1.88,1.17,2.6,3.4,2.95l1.36,0.21
		c0.64,0.1,0.84,0.35,0.84,0.7C388.8,21.45,388.41,21.72,387.67,21.72z"/>
	<path d="M396.51,19.04c0-1.38,0.39-2.29,1.48-2.29c1.01,0,1.26,0.66,1.26,1.92v4.89h3.34v-4.51c0-1.38,0.37-2.29,1.48-2.29
		c1.01,0,1.24,0.66,1.24,1.92v4.89h3.34v-5.77c0-1.92-0.74-3.67-3.28-3.67c-1.55,0-2.64,0.78-3.13,1.81
		c-0.39-1.07-1.24-1.81-2.87-1.81c-1.38,0-2.37,0.62-2.87,1.63v-1.38h-3.34v9.19h3.34V19.04z"/>
	<rect x="413.91" y="10.57" width="3.5" height="12.99"/>
	<path d="M423.3,21.72c-1.01,0-1.63-0.43-1.75-1.2l-2.91,0.04c0.19,2.23,2.08,3.24,4.62,3.24c2.62,0,4.27-1.11,4.27-3.05
		c0-1.79-1.2-2.72-3.26-3.05l-1.79-0.31c-0.31-0.04-0.56-0.21-0.56-0.52c0-0.41,0.37-0.66,1.01-0.66c1.03,0,1.61,0.41,1.73,1.07
		l2.74-0.08c-0.19-1.92-1.75-3.09-4.41-3.09c-2.58,0-4.16,1.3-4.16,3.11c0,1.88,1.17,2.6,3.4,2.95l1.36,0.21
		c0.64,0.1,0.84,0.35,0.84,0.7C424.44,21.45,424.05,21.72,423.3,21.72z"/>
	<path d="M435.86,21.04h5.07l0.97,2.52h3.73l-5.17-12.99h-3.92l-5.17,12.99h3.52L435.86,21.04z M438.35,14.59h0.08l1.48,3.83h-3.05
		L438.35,14.59z"/>
	<polygon points="456.16,23.55 461.15,10.57 457.66,10.57 454.45,19.2 454.36,19.2 451.15,10.57 447.48,10.57 452.47,23.55 	"/>
	<rect x="462.03" y="10.57" width="3.38" height="2.93"/>
	<rect x="462.05" y="14.36" width="3.34" height="9.19"/>
	<path d="M470.54,19.35c0-1.55,0.76-2.12,2-2.12c0.64,0,1.13,0.12,1.59,0.39l0.21-3.15c-0.23-0.19-0.72-0.35-1.28-0.35
		c-1.22,0-2.18,0.85-2.51,1.88v-1.63h-3.34v9.19h3.34V19.35z"/>
	<path d="M478.54,23.8c1.38,0,2.39-0.6,2.89-1.63v1.38h3.34v-9.19h-3.34v4.51c0,1.4-0.41,2.31-1.46,2.31
		c-1.01,0-1.36-0.68-1.36-1.92v-4.91h-3.34v5.79C475.26,22.07,476.02,23.8,478.54,23.8z"/>
	<path d="M490.58,21.72c-1.01,0-1.63-0.43-1.75-1.2l-2.91,0.04c0.19,2.23,2.08,3.24,4.62,3.24c2.62,0,4.27-1.11,4.27-3.05
		c0-1.79-1.2-2.72-3.26-3.05l-1.79-0.31c-0.31-0.04-0.56-0.21-0.56-0.52c0-0.41,0.37-0.66,1.01-0.66c1.03,0,1.61,0.41,1.73,1.07
		l2.74-0.08c-0.19-1.92-1.75-3.09-4.41-3.09c-2.58,0-4.16,1.3-4.16,3.11c0,1.88,1.17,2.6,3.4,2.95l1.36,0.21
		c0.64,0.1,0.84,0.35,0.84,0.7C491.71,21.45,491.32,21.72,490.58,21.72z"/>
	<rect x="497.64" y="20.01" width="3.55" height="3.55"/>
	<path d="M509.1,23.8c2.99,0,5.03-1.98,5.03-4.84c0-2.84-2.04-4.84-5.03-4.84c-3.01,0-5.03,2-5.03,4.84
		C504.07,21.82,506.09,23.8,509.1,23.8z M509.1,16.63c1.15,0,1.67,0.95,1.67,2.33c0,1.38-0.52,2.33-1.67,2.33
		c-1.17,0-1.67-0.95-1.67-2.33C507.43,17.58,507.93,16.63,509.1,16.63z"/>
	<path d="M518.79,19.35c0-1.55,0.76-2.12,2-2.12c0.64,0,1.13,0.12,1.59,0.39l0.21-3.15c-0.23-0.19-0.72-0.35-1.28-0.35
		c-1.22,0-2.19,0.85-2.52,1.88v-1.63h-3.34v9.19h3.34V19.35z"/>
	<path d="M522.6,24.85c0,1.73,2.27,2.25,4.89,2.25c2.99,0,5.77-1.05,5.77-3.34c0-1.55-1.05-2.64-3.13-2.64h-3.81
		c-0.56,0-0.78-0.25-0.78-0.56c0-0.19,0.06-0.33,0.19-0.43c0.6,0.19,1.26,0.27,2,0.27c2.6,0,4.47-1.2,4.47-3.13
		c0-0.43-0.1-0.82-0.29-1.17c0.45-0.1,0.95-0.14,1.34-0.14v-2.51c-1.01,0-2.02,0.66-2.58,1.42c-0.78-0.47-1.83-0.74-2.95-0.74
		c-2.58,0-4.43,1.2-4.43,3.15c0,1.01,0.5,1.79,1.32,2.33c-0.99,0.37-1.57,1.05-1.57,1.94c0,0.78,0.49,1.53,1.32,1.79
		C523.33,23.41,522.6,24.05,522.6,24.85z M527.76,15.95c0.56,0,0.97,0.52,0.97,1.32c0,0.82-0.41,1.34-0.97,1.34
		s-0.97-0.52-0.97-1.34C526.79,16.46,527.2,15.95,527.76,15.95z M525.96,23.97h3.38c0.56,0,0.84,0.14,0.84,0.54
		c0,0.56-1.13,0.87-2.68,0.87c-1.24,0-2.16-0.19-2.16-0.84C525.35,24.17,525.59,23.97,525.96,23.97z"/>
	<path d="M311.03,589.49l0.43-2.06h-1.83l0.82-3.42h-2.49l-0.82,3.42h-1.77l0.83-3.42h-2.49l-0.83,3.42h-2.02l-0.43,2.06h1.98
		l-0.5,2.02h-1.88l-0.43,2.06h1.81l-0.8,3.42h2.49l0.8-3.42h1.77l-0.8,3.42h2.49l0.8-3.42h2.04l0.43-2.06h-1.98l0.5-2.02H311.03z
		 M306.17,591.51h-1.77l0.5-2.02h1.77L306.17,591.51z"/>
	<path d="M320.73,586.87c2.02,0,2.8,1.34,3.01,2.78l3.36-0.12c-0.25-3.24-2.37-5.77-6.35-5.77c-3.79,0-6.66,2.74-6.66,6.74
		c0,4,2.87,6.74,6.66,6.74c3.98,0,6.1-2.52,6.35-5.75l-3.36-0.14c-0.21,1.44-0.99,2.78-3.01,2.78c-1.92,0-3.03-1.42-3.03-3.63
		C317.7,588.29,318.81,586.87,320.73,586.87z"/>
	<path d="M331.11,591.82c-2,0.35-3.28,1.11-3.28,2.89c0,1.57,1.17,2.49,2.97,2.49c1.46,0,2.51-0.56,3.05-1.63
		c0.31,1.05,1.2,1.63,2.33,1.63c0.95,0,1.61-0.27,2.08-0.6v-1.77c-0.27,0.1-0.47,0.14-0.74,0.14c-0.35,0-0.56-0.21-0.56-0.68v-3.13
		c0-2.56-1.79-3.61-4.23-3.61c-2.76,0-4.27,1.4-4.56,3.42l3.09,0.21c0.14-0.68,0.51-1.15,1.26-1.15c0.8,0,1.15,0.45,1.15,1.22v0.14
		L331.11,591.82z M333.69,593.16c0,1.2-0.76,1.9-1.71,1.9c-0.56,0-0.93-0.31-0.93-0.78c0-0.6,0.47-0.85,1.28-1.01l1.36-0.25V593.16z
		"/>
	<path d="M339.23,587.8v12.49h3.34v-4.87c0.45,1.07,1.48,1.81,3.03,1.81c2.7,0,4.08-2.12,4.08-4.84c0-2.7-1.38-4.84-4.08-4.84
		c-1.55,0-2.58,0.74-3.03,1.83v-1.59H339.23z M344.43,590.15c1.3,0,1.9,0.93,1.9,2.25c0,1.34-0.6,2.27-1.9,2.27
		c-1.13,0-1.86-0.87-1.86-2.21v-0.12C342.57,591.02,343.29,590.15,344.43,590.15z"/>
	<rect x="350.98" y="584.01" width="3.38" height="2.93"/>
	<rect x="351" y="587.8" width="3.34" height="9.19"/>
	<path d="M359.49,597.24c1.26,0,2.06-0.31,2.76-0.82v-2.16c-0.56,0.23-1.01,0.31-1.42,0.31c-0.68,0-1.05-0.31-1.05-1.09v-3.36h2.39
		v-2.31h-2.39v-2.54h-2.1l-0.31,1.2c-0.23,0.85-0.51,1.34-1.44,1.48l-0.68,0.1v2.06h1.24v4.33
		C356.48,596.6,357.95,597.24,359.49,597.24z"/>
	<path d="M366.27,591.82c-2,0.35-3.28,1.11-3.28,2.89c0,1.57,1.18,2.49,2.97,2.49c1.46,0,2.51-0.56,3.05-1.63
		c0.31,1.05,1.2,1.63,2.33,1.63c0.95,0,1.61-0.27,2.08-0.6v-1.77c-0.27,0.1-0.47,0.14-0.74,0.14c-0.35,0-0.56-0.21-0.56-0.68v-3.13
		c0-2.56-1.79-3.61-4.23-3.61c-2.76,0-4.27,1.4-4.56,3.42l3.09,0.21c0.14-0.68,0.51-1.15,1.26-1.15c0.8,0,1.15,0.45,1.15,1.22v0.14
		L366.27,591.82z M368.85,593.16c0,1.2-0.76,1.9-1.71,1.9c-0.56,0-0.93-0.31-0.93-0.78c0-0.6,0.47-0.85,1.28-1.01l1.36-0.25V593.16z
		"/>
	<rect x="374.39" y="584.01" width="3.34" height="12.99"/>
	<rect x="379.53" y="584.01" width="3.38" height="2.93"/>
	<rect x="379.55" y="587.8" width="3.34" height="9.19"/>
	<path d="M388.7,595.16c-1.01,0-1.63-0.43-1.75-1.2l-2.91,0.04c0.19,2.23,2.08,3.24,4.62,3.24c2.62,0,4.27-1.11,4.27-3.05
		c0-1.79-1.2-2.72-3.26-3.05l-1.79-0.31c-0.31-0.04-0.56-0.21-0.56-0.52c0-0.41,0.37-0.66,1.01-0.66c1.03,0,1.61,0.41,1.73,1.07
		l2.74-0.08c-0.19-1.92-1.75-3.09-4.41-3.09c-2.58,0-4.16,1.3-4.16,3.11c0,1.88,1.18,2.6,3.4,2.95l1.36,0.21
		c0.64,0.1,0.85,0.35,0.85,0.7C389.83,594.89,389.44,595.16,388.7,595.16z"/>
	<path d="M409.68,596.99v-5.77c0-1.92-0.74-3.67-3.28-3.67c-1.55,0-2.64,0.78-3.13,1.81c-0.39-1.07-1.24-1.81-2.87-1.81
		c-1.38,0-2.37,0.62-2.87,1.63v-1.38h-3.34v9.19h3.34v-4.51c0-1.38,0.39-2.29,1.48-2.29c1.01,0,1.26,0.66,1.26,1.92v4.89h3.34v-4.51
		c0-1.38,0.37-2.29,1.48-2.29c1.01,0,1.24,0.66,1.24,1.92v4.89H409.68z"/>
	<rect x="413.27" y="584.01" width="3.5" height="12.99"/>
	<path d="M422.67,595.16c-1.01,0-1.63-0.43-1.75-1.2l-2.91,0.04c0.19,2.23,2.08,3.24,4.62,3.24c2.62,0,4.27-1.11,4.27-3.05
		c0-1.79-1.2-2.72-3.26-3.05l-1.79-0.31c-0.31-0.04-0.56-0.21-0.56-0.52c0-0.41,0.37-0.66,1.01-0.66c1.03,0,1.61,0.41,1.73,1.07
		l2.74-0.08c-0.19-1.92-1.75-3.09-4.41-3.09c-2.58,0-4.16,1.3-4.16,3.11c0,1.88,1.18,2.6,3.4,2.95l1.36,0.21
		c0.64,0.1,0.85,0.35,0.85,0.7C423.8,594.89,423.41,595.16,422.67,595.16z"/>
	<path d="M429.07,596.99h3.52l0.97-2.51h5.07l0.97,2.51h3.73l-5.17-12.99h-3.92L429.07,596.99z M436.05,588.03h0.08l1.48,3.83h-3.05
		L436.05,588.03z"/>
	<polygon points="452.01,592.64 448.8,584.01 445.13,584.01 450.12,596.99 453.81,596.99 458.8,584.01 455.31,584.01 452.1,592.64 	
		"/>
	<rect x="459.7" y="587.8" width="3.34" height="9.19"/>
	<rect x="459.68" y="584.01" width="3.38" height="2.93"/>
	<path d="M464.85,587.8v9.19h3.34v-4.21c0-1.55,0.76-2.12,2-2.12c0.64,0,1.13,0.12,1.59,0.39l0.21-3.15
		c-0.23-0.19-0.72-0.35-1.28-0.35c-1.22,0-2.19,0.85-2.52,1.88v-1.63H464.85z"/>
	<path d="M482.41,596.99v-9.19h-3.34v4.51c0,1.4-0.41,2.31-1.46,2.31c-1.01,0-1.36-0.68-1.36-1.92v-4.91h-3.34v5.79
		c0,1.92,0.76,3.65,3.28,3.65c1.38,0,2.39-0.6,2.89-1.63v1.38H482.41z"/>
	<path d="M488.22,595.16c-1.01,0-1.63-0.43-1.75-1.2l-2.91,0.04c0.19,2.23,2.08,3.24,4.62,3.24c2.62,0,4.27-1.11,4.27-3.05
		c0-1.79-1.2-2.72-3.26-3.05l-1.79-0.31c-0.31-0.04-0.56-0.21-0.56-0.52c0-0.41,0.37-0.66,1.01-0.66c1.03,0,1.61,0.41,1.73,1.07
		l2.74-0.08c-0.19-1.92-1.75-3.09-4.41-3.09c-2.58,0-4.16,1.3-4.16,3.11c0,1.88,1.17,2.6,3.4,2.95l1.36,0.21
		c0.64,0.1,0.85,0.35,0.85,0.7C489.36,594.89,488.97,595.16,488.22,595.16z"/>
</g>
<g id="exp_white_bg" class="st0">
	<g class="st2">
		<path class="st5" d="M86.14,307.88c0,9.1,4.9,14.98,12.6,14.98c8.82,0,12.88-6.3,12.88-15.4c0-8.96-4.06-15.26-12.88-15.26
			c-7.7,0-12.6,5.88-12.6,14.84V307.88z"/>
		<ellipse class="st5" cx="400.72" cy="460.57" rx="30.23" ry="35.2"/>
		<path class="st5" d="M527.76,18.61c0.56,0,0.97-0.52,0.97-1.34c0-0.8-0.41-1.32-0.97-1.32s-0.97,0.52-0.97,1.32
			C526.79,18.09,527.2,18.61,527.76,18.61z"/>
		<path class="st5" d="M558.01,440.48c0-10.14-7.16-15.51-21.48-15.51h-24.06v30.62h24.06C550.85,455.6,558.01,452.02,558.01,440.48
			z"/>
		<path class="st5" d="M478.56,291.64c-7.98,0-11.34,6.44-11.34,15.82s3.36,15.82,11.34,15.82c7.84,0,11.34-6.44,11.34-15.82
			S486.4,291.64,478.56,291.64z"/>
		<path class="st5" d="M0,1224h792V0H0V1224z M26.86,1016.1l-5.2,1.34v0.08l5.2,1.34v3.28l-9.06,2.86l9.06,2.86v3.28l-5.2,1.34v0.08
			l5.2,1.34v3.28l-9.06,2.86l9.06,2.86v3.28l-5.2,1.34v0.08l5.2,1.34v3.28l-9.19,2.91v-3.32l5.22-1.65v-0.08l-5.22-1.34v-2.66
			l5.22-1.34v-0.08l-5.22-1.65v-2.92v-0.09v-3.23l5.22-1.65v-0.08l-5.22-1.34v-2.66l5.22-1.34v-0.08l-5.22-1.65v-2.92v-0.09v-3.23
			l5.22-1.65V1020l-5.22-1.34V1016l5.22-1.34v-0.08l-5.22-1.65v-3.01l9.19,2.91V1016.1z M26.86,1007.49h-3.55v-3.55h3.55V1007.49z
			 M20.37,1001.06c-4,0-6.74-2.87-6.74-6.66c0-3.98,2.54-6.1,5.77-6.35l0.12,3.36c-1.44,0.21-2.78,0.99-2.78,3.01
			c0,1.92,1.42,3.03,3.63,3.03c2.21,0,3.63-1.11,3.63-3.03c0-2.02-1.34-2.8-2.78-3.01l0.14-3.36c3.24,0.25,5.75,2.37,5.75,6.35
			C27.11,998.19,24.37,1001.06,20.37,1001.06z M13.87,856.46v-3.48l12.99,4.99v3.69l-12.99,4.99v-3.67l8.64-3.22v-0.08L13.87,856.46
			z M13.87,852.09v-3.38h2.93v3.38H13.87z M22.66,795.33h4.21v3.34h-9.19v-3.34h1.63c-1.03-0.33-1.88-1.3-1.88-2.52
			c0-0.56,0.17-1.05,0.35-1.28l3.15,0.21c-0.27,0.45-0.39,0.95-0.39,1.59C20.53,794.56,21.11,795.33,22.66,795.33z M22.26,799.98
			c2.87,0,4.84,2.04,4.84,5.03c0,3.01-1.98,5.03-4.84,5.03c-2.84,0-4.84-2.02-4.84-5.03C17.42,802.02,19.42,799.98,22.26,799.98z
			 M26.86,812.93v3.55h-3.55v-3.55H26.86z M20.51,819.44l0.08,2.74c-0.66,0.12-1.07,0.7-1.07,1.73c0,0.64,0.25,1.01,0.66,1.01
			c0.31,0,0.47-0.25,0.52-0.56l0.31-1.79c0.33-2.06,1.26-3.26,3.05-3.26c1.94,0,3.05,1.65,3.05,4.27c0,2.54-1.01,4.43-3.24,4.62
			l-0.04-2.91c0.76-0.12,1.2-0.74,1.2-1.75c0-0.74-0.27-1.13-0.64-1.13c-0.35,0-0.6,0.21-0.7,0.85l-0.21,1.36
			c-0.35,2.23-1.07,3.4-2.95,3.4c-1.81,0-3.11-1.59-3.11-4.16C17.42,821.19,18.59,819.62,20.51,819.44z M24.3,958.66h-4.33v1.24
			h-2.06l-0.1-0.68c-0.14-0.93-0.64-1.22-1.48-1.44l-1.2-0.31v-2.1h2.54v-2.39h2.31v2.39h3.36c0.78,0,1.09-0.37,1.09-1.05
			c0-0.41-0.08-0.87-0.31-1.42h2.17c0.52,0.7,0.82,1.5,0.82,2.76C27.11,957.2,26.47,958.66,24.3,958.66z M26.86,960.81v3.34h-9.19
			v-3.34H26.86z M24.7,976.88h1.77c0.33,0.47,0.6,1.13,0.6,2.08c0,1.13-0.58,2.02-1.63,2.33c1.07,0.54,1.63,1.59,1.63,3.05
			c0,1.79-0.93,2.97-2.49,2.97c-1.77,0-2.54-1.28-2.89-3.28l-0.43-2.58h-0.14c-0.76,0-1.22,0.35-1.22,1.15
			c0,0.74,0.47,1.11,1.15,1.26l-0.21,3.09c-2.02-0.29-3.42-1.79-3.42-4.56c0-2.43,1.05-4.23,3.61-4.23h3.13
			c0.47,0,0.68-0.21,0.68-0.56C24.84,977.35,24.8,977.15,24.7,976.88z M24.7,941.72h1.77c0.33,0.47,0.6,1.13,0.6,2.08
			c0,1.13-0.58,2.02-1.63,2.33c1.07,0.54,1.63,1.59,1.63,3.05c0,1.79-0.93,2.97-2.49,2.97c-1.77,0-2.54-1.28-2.89-3.28l-0.43-2.58
			h-0.14c-0.76,0-1.22,0.35-1.22,1.15c0,0.74,0.47,1.11,1.15,1.26l-0.21,3.09c-2.02-0.29-3.42-1.79-3.42-4.56
			c0-2.43,1.05-4.23,3.61-4.23h3.13c0.47,0,0.68-0.21,0.68-0.56C24.84,942.19,24.8,941.99,24.7,941.72z M26.86,935.6h-9.19v-3.34
			h9.19V935.6z M23.87,931.11l-0.04-2.91c0.76-0.12,1.2-0.74,1.2-1.75c0-0.74-0.27-1.13-0.64-1.13c-0.35,0-0.6,0.21-0.7,0.85
			l-0.21,1.36c-0.35,2.23-1.07,3.4-2.95,3.4c-1.81,0-3.11-1.59-3.11-4.16c0-2.66,1.17-4.23,3.09-4.41l0.08,2.74
			c-0.66,0.12-1.07,0.7-1.07,1.73c0,0.64,0.25,1.01,0.66,1.01c0.31,0,0.47-0.25,0.52-0.56l0.31-1.79c0.33-2.06,1.26-3.26,3.05-3.26
			c1.94,0,3.05,1.65,3.05,4.27C27.11,929.03,26.1,930.92,23.87,931.11z M17.42,908.74c0-2.54,1.75-3.28,3.67-3.28h5.77v3.34h-4.89
			c-1.26,0-1.92,0.23-1.92,1.24c0,1.11,0.91,1.48,2.29,1.48h4.51v3.34h-4.89c-1.26,0-1.92,0.25-1.92,1.26
			c0,1.09,0.91,1.48,2.29,1.48h4.51v3.34h-9.19v-3.34h1.38c-1.01-0.49-1.63-1.48-1.63-2.87c0-1.63,0.74-2.47,1.81-2.87
			C18.2,911.38,17.42,910.29,17.42,908.74z M24.39,889.68c-0.35,0-0.6,0.21-0.7,0.85l-0.21,1.36c-0.35,2.23-1.07,3.4-2.95,3.4
			c-1.81,0-3.11-1.59-3.11-4.16c0-2.66,1.17-4.23,3.09-4.41l0.08,2.74c-0.66,0.12-1.07,0.7-1.07,1.73c0,0.64,0.25,1.01,0.66,1.01
			c0.31,0,0.47-0.25,0.52-0.56l0.31-1.79c0.33-2.06,1.26-3.26,3.05-3.26c1.94,0,3.05,1.65,3.05,4.27c0,2.54-1.01,4.43-3.24,4.62
			l-0.04-2.91c0.76-0.12,1.2-0.74,1.2-1.75C25.03,890.07,24.76,889.68,24.39,889.68z M26.86,852.07h-9.19v-3.34h9.19V852.07z
			 M22.18,832.69h-4.51v-3.34h9.19v3.34h-1.38c1.03,0.49,1.63,1.5,1.63,2.89c0,2.52-1.73,3.28-3.65,3.28h-5.79v-3.34h4.91
			c1.24,0,1.92-0.35,1.92-1.36C24.49,833.1,23.58,832.69,22.18,832.69z M17.77,839.78l3.15,0.21c-0.27,0.45-0.39,0.95-0.39,1.59
			c0,1.24,0.58,2,2.12,2h4.21v3.34h-9.19v-3.34h1.63c-1.03-0.33-1.88-1.3-1.88-2.52C17.42,840.5,17.58,840.01,17.77,839.78z
			 M26.86,868.49v3.73l-2.51,0.97v5.07l2.51,0.97v3.52l-12.99-5.17v-3.92L26.86,868.49z M26.86,896.71v3.5H13.87v-3.5H26.86z
			 M16.8,932.24v3.38h-2.93v-3.38H16.8z M26.86,937.41v3.34H13.87v-3.34H26.86z M16.8,960.79v3.38h-2.93v-3.38H16.8z M30.16,975.91
			H17.67v-3.34h1.59c-1.09-0.45-1.83-1.48-1.83-3.03c0-2.7,2.14-4.08,4.84-4.08c2.72,0,4.84,1.38,4.84,4.08
			c0,1.55-0.74,2.58-1.81,3.03h4.87V975.91z M28.16,791.51c-0.8,0-1.44-0.72-1.53-1.75c-0.27,0.82-1.01,1.32-1.79,1.32
			c-0.89,0-1.57-0.58-1.94-1.57c-0.54,0.82-1.32,1.32-2.33,1.32c-1.96,0-3.15-1.86-3.15-4.43c0-1.11,0.27-2.16,0.74-2.95
			c-0.76-0.56-1.42-1.57-1.42-2.58h2.52c0,0.39,0.04,0.89,0.14,1.34c0.35-0.19,0.74-0.29,1.18-0.29c1.94,0,3.13,1.88,3.13,4.47
			c0,0.74-0.08,1.4-0.27,2c0.1,0.12,0.25,0.19,0.43,0.19c0.31,0,0.56-0.23,0.56-0.78v-3.81c0-2.08,1.09-3.13,2.64-3.13
			c2.29,0,3.34,2.78,3.34,5.77C30.41,789.25,29.89,791.51,28.16,791.51z M149.77,498.95h-48.92l-9.35,24.26h-34l49.91-125.28h37.78
			l49.91,125.28h-35.99L149.77,498.95z M106.72,274.56c18.34,0,27.72,14.56,27.72,32.9c0,18.48-9.38,32.9-27.72,32.9
			c-10.5,0-17.5-5.04-20.58-12.32v33.04H63.46v-84.84h22.68v10.78C89.22,279.6,96.22,274.56,106.72,274.56z M711.44,1128.58
			l-33.72,10.7c-8.04,2.55-16.63-1.9-19.19-9.94c-2.55-8.04,1.9-16.63,9.94-19.19l31.69-10.06c0.25-1.29,0.3-3.57-0.58-6.34
			l-28.14-88.65c-10.51-33.1-26.45-61.47-44.89-79.89c-18.78-18.76-37.95-25.21-56.96-19.17c-19.01,6.04-30.95,22.36-35.48,48.52
			c-4.44,25.69-1.11,58.06,9.4,91.15l28.14,88.65c0.88,2.77,2.24,4.61,3.18,5.52l31.16-9.89c8.04-2.55,16.63,1.9,19.19,9.94
			c2.55,8.04-1.9,16.63-9.94,19.19l-33.19,10.54c-2.54,0.81-5.12,1.19-7.69,1.19c-13.5,0-26.6-10.72-31.85-27.24l-28.14-88.65
			c-11.96-37.68-15.65-75.19-10.38-105.61c5.2-30.04,19.24-52.59,40.18-65.16c-8.12-15.45-16.66-29.5-25.56-42.1
			c-0.64,36.73-12.21,66.72-34.62,89.47c-9.65,13.09-5.33,65.35-0.77,120.65c3.55,43,7.57,91.75,7.57,141.43
			c0,4.5-3.65,8.15-8.15,8.15c-1.47,0-2.85-0.4-4.04-1.08c-2.45-1.41-4.11-4.04-4.11-7.07c0-49.02-3.99-97.4-7.51-140.09
			c-5.7-69.14-9.47-114.81,4.48-132.42c0.19-0.24,0.39-0.47,0.61-0.68c20.75-20.88,30.86-49.33,30.24-84.84l-2.69,4.44
			c-4.04,6.68-10.56,11.29-18.36,12.98c-2.11,0.46-4.25,0.68-6.38,0.68c-5.56,0-11.08-1.54-16-4.52
			c-6.81-4.12-11.7-10.53-13.77-18.05c-0.11-0.38-0.2-0.77-0.29-1.16c-2.44,0.63-4.97,0.96-7.52,0.96c-5.42,0-10.96-1.45-15.99-4.5
			c-0.22-0.13-0.43-0.28-0.65-0.41c3.11,6.79,5.01,13.46,6.15,19.49c4.01,21.24-0.46,38.89-0.65,39.63
			c-1.13,4.36-5.58,6.97-9.94,5.84c-4.35-1.13-6.96-5.56-5.85-9.92c0.61-2.4,14.28-59.08-42-82.45c-2.17-0.9-3.85-2.7-4.6-4.92
			s-0.5-4.67,0.68-6.7c3.08-5.29,6.71-11.57,6.71-11.57c2.07-3.57,6.47-5.03,10.26-3.41c0.45,0.18,12.55,5.01,23.78-2.31
			c6.06-3.95,9.56-8.29,11.55-11.64c-15.24-7.28-50.91-24.27-58.2-27.29c-6.16-2.55-13.08,1.05-20.56,10.7l-1.38,1.77
			c-9.91,12.74-40.07,51.51-38.96,73.24c0.63,12.23,14.18,30.74,25.08,45.6c10.17,13.88,18.95,25.86,20.8,35.72
			c7.11,37.97,5.15,69.51,1.9,121.76c-2.57,41.31-6.09,97.89-6.09,181.12c0,4.5-3.65,8.15-8.15,8.15s-8.15-3.65-8.15-8.15
			c0-83.74,3.54-140.61,6.12-182.14c3.17-50.99,5.09-81.76-1.66-117.74c-1.16-6.22-9.68-17.84-17.92-29.09
			c-7.81-10.65-15.76-21.52-21.23-32.1c-22.87,36.67-38.19,82.86-44.78,134.81c28.56,7.6,49.67,33.67,49.67,64.6
			c0,36.86-29.99,66.84-66.84,66.84s-66.84-29.99-66.84-66.84c0-32.23,22.93-59.21,53.33-65.47c7.23-60.02,25.4-113.49,52.93-155.43
			c6.75-10.28,14.01-19.72,21.69-28.28c8.07-18.93,22.78-39.31,36.24-56.61l1.36-1.75c5.28-6.81,14.74-16.45,26.75-17.74l29.5-48.72
			c4.04-6.68,10.56-11.29,18.36-12.98c7.62-1.65,15.57-0.29,22.38,3.83c5.18,3.14,9.11,7.54,11.62,12.53
			c2.97-1.99,6.35-3.44,10.01-4.23c7.62-1.65,15.57-0.29,22.38,3.83c10.43,6.31,15.8,17.74,14.65,28.77
			c5.53-0.06,11.19,1.38,16.31,4.49c10.46,6.33,15.83,17.82,14.64,28.88c5.59-0.09,11.32,1.34,16.51,4.49
			c14.2,8.6,19.04,26.69,10.78,40.33l-14.83,24.49c17.73,20.39,34.17,45.28,49.16,74.52c25.8-3.47,51.94,6.74,74.82,29.59
			c21.85,21.82,40.47,54.58,52.43,92.26l28.14,88.65C734.95,1104.16,727.37,1123.52,711.44,1128.58z M288.37,446.25v-48.32h33.8
			v125.28h-33.8v-49.51h-49.91v49.51h-33.8V397.93h33.8v48.32H288.37z M358.86,76.82v122.62h-31.53v-14.79
			c-4.09,10.12-14.01,17.13-28.42,17.13c-25.69,0-38.54-20.05-38.54-45.74c0-25.5,12.85-45.74,38.54-45.74
			c14.4,0,24.33,7.01,28.42,17.32v-50.8H358.86z M349.97,23.55v-9.19h3.34v9.19H349.97z M407.71,76.82v27.64h-31.92V76.82H407.71z
			 M378.52,23.55v-9.19h3.34v9.19H378.52z M407.52,112.63v86.81h-31.53v-86.81H407.52z M452.1,250.48v19.6h-30.66v68.6h-23.66v-68.6
			h-30.24v-19.6H452.1z M467.47,110.3c26.08,0,40.68,16.93,42.82,37.76l-25.89,1.75c-2.14-10.71-7.4-15.77-16.54-15.77
			c-9.54,0-16.16,6.42-16.16,21.99s6.62,21.99,16.16,21.99c9.15,0,14.4-5.26,16.54-15.96l25.89,1.95
			c-2.14,21.02-16.74,37.76-42.82,37.76c-27.45,0-47.49-18.1-47.49-45.74C419.98,128.59,440.03,110.3,467.47,110.3z M462.05,23.55
			v-9.19h3.34v9.19H462.05z M546.46,340.36c-18.48,0-27.72-14.42-27.72-32.9c0-18.34,9.24-32.9,27.72-32.9
			c10.36,0,17.5,5.04,20.44,12.46v-36.54h22.68v88.2H566.9v-10.64C563.96,335.32,556.82,340.36,546.46,340.36z M542.5,397.93
			c32.41,0,48.52,15.31,48.52,39.77c0,18.29-11.33,30.23-26.65,32.21c12.92,2.58,20.48,9.94,21.87,24.46
			c1.79,18.69,2.39,24.26,6.56,28.83h-34.2c-2.58-3.38-4.18-11.14-5.17-24.06c-0.99-14.32-7.16-17.5-18.49-17.5h-22.47v41.56h-33.21
			V397.93H542.5z M488.51,593.82l-1.36-0.21c-2.23-0.35-3.4-1.07-3.4-2.95c0-1.81,1.59-3.11,4.16-3.11c2.66,0,4.23,1.18,4.41,3.09
			l-2.74,0.08c-0.12-0.66-0.7-1.07-1.73-1.07c-0.64,0-1.01,0.25-1.01,0.66c0,0.31,0.25,0.47,0.56,0.52l1.79,0.31
			c2.06,0.33,3.26,1.26,3.26,3.05c0,1.94-1.65,3.05-4.27,3.05c-2.54,0-4.43-1.01-4.62-3.24l2.91-0.04c0.12,0.76,0.74,1.2,1.75,1.2
			c0.74,0,1.13-0.27,1.13-0.64C489.36,594.17,489.15,593.92,488.51,593.82z M476.19,597.24c-2.51,0-3.28-1.73-3.28-3.65v-5.79h3.34
			v4.91c0,1.24,0.35,1.92,1.36,1.92c1.05,0,1.46-0.91,1.46-2.31v-4.51h3.34v9.19h-3.34v-1.38
			C478.58,596.64,477.57,597.24,476.19,597.24z M478.56,340.36c-20.44,0-34.16-13.44-34.16-32.9c0-19.32,13.72-32.9,34.16-32.9
			c20.3,0,34.16,13.58,34.16,32.9C512.72,326.92,498.86,340.36,478.56,340.36z M470.71,587.55c0.56,0,1.05,0.17,1.28,0.35
			l-0.21,3.15c-0.45-0.27-0.95-0.39-1.59-0.39c-1.24,0-2,0.58-2,2.12v4.21h-3.34v-9.19h3.34v1.63
			C468.52,588.4,469.49,587.55,470.71,587.55z M400.72,395.54c36.39,0,65.02,26.45,65.02,65.02c0,38.58-28.63,65.02-65.02,65.02
			c-36.39,0-65.03-26.45-65.03-65.02C335.69,421.99,364.33,395.54,400.72,395.54z M459.68,586.93v-2.93h3.38v2.93H459.68z
			 M463.04,587.8v9.19h-3.34v-9.19H463.04z M458.8,584.01l-4.99,12.99h-3.69l-4.99-12.99h3.67l3.22,8.64h0.08l3.22-8.64H458.8z
			 M443.33,596.99h-3.73l-0.97-2.51h-5.07l-0.97,2.51h-3.52l5.17-12.99h3.92L443.33,596.99z M422.96,593.82l-1.36-0.21
			c-2.23-0.35-3.4-1.07-3.4-2.95c0-1.81,1.59-3.11,4.16-3.11c2.66,0,4.23,1.18,4.41,3.09l-2.74,0.08c-0.12-0.66-0.7-1.07-1.73-1.07
			c-0.64,0-1.01,0.25-1.01,0.66c0,0.31,0.25,0.47,0.56,0.52l1.79,0.31c2.06,0.33,3.26,1.26,3.26,3.05c0,1.94-1.65,3.05-4.27,3.05
			c-2.54,0-4.43-1.01-4.62-3.24l2.91-0.04c0.12,0.76,0.74,1.2,1.75,1.2c0.74,0,1.13-0.27,1.13-0.64
			C423.8,594.17,423.6,593.92,422.96,593.82z M416.78,584.01v12.99h-3.5v-12.99H416.78z M405.11,590.19c-1.11,0-1.48,0.91-1.48,2.29
			v4.51h-3.34v-4.89c0-1.26-0.25-1.92-1.26-1.92c-1.09,0-1.48,0.91-1.48,2.29v4.51h-3.34v-9.19h3.34v1.38
			c0.5-1.01,1.48-1.63,2.87-1.63c1.63,0,2.47,0.74,2.87,1.81c0.49-1.03,1.59-1.81,3.13-1.81c2.54,0,3.28,1.75,3.28,3.67v5.77h-3.34
			v-4.89C406.34,590.85,406.12,590.19,405.11,590.19z M388.99,593.82l-1.36-0.21c-2.23-0.35-3.4-1.07-3.4-2.95
			c0-1.81,1.59-3.11,4.16-3.11c2.66,0,4.23,1.18,4.41,3.09l-2.74,0.08c-0.12-0.66-0.7-1.07-1.73-1.07c-0.64,0-1.01,0.25-1.01,0.66
			c0,0.31,0.25,0.47,0.56,0.52l1.79,0.31c2.06,0.33,3.26,1.26,3.26,3.05c0,1.94-1.65,3.05-4.27,3.05c-2.54,0-4.43-1.01-4.62-3.24
			l2.91-0.04c0.12,0.76,0.74,1.2,1.75,1.2c0.74,0,1.13-0.27,1.13-0.64C389.83,594.17,389.63,593.92,388.99,593.82z M379.53,586.93
			v-2.93h3.38v2.93H379.53z M382.89,587.8v9.19h-3.34v-9.19H382.89z M377.73,584.01v12.99h-3.34v-12.99H377.73z M367.7,590.03
			c-0.74,0-1.11,0.47-1.26,1.15l-3.09-0.21c0.29-2.02,1.79-3.42,4.56-3.42c2.43,0,4.23,1.05,4.23,3.61v3.13
			c0,0.47,0.21,0.68,0.56,0.68c0.27,0,0.47-0.04,0.74-0.14v1.77c-0.47,0.33-1.13,0.6-2.08,0.6c-1.13,0-2.02-0.58-2.33-1.63
			c-0.54,1.07-1.59,1.63-3.05,1.63c-1.79,0-2.97-0.93-2.97-2.49c0-1.77,1.28-2.54,3.28-2.89l2.58-0.43v-0.14
			C368.85,590.48,368.5,590.03,367.7,590.03z M355.25,590.11v-2.06l0.68-0.1c0.93-0.14,1.22-0.64,1.44-1.48l0.31-1.2h2.1v2.54h2.39
			v2.31h-2.39v3.36c0,0.78,0.37,1.09,1.05,1.09c0.41,0,0.87-0.08,1.42-0.31v2.16c-0.7,0.52-1.5,0.82-2.76,0.82
			c-1.55,0-3.01-0.64-3.01-2.8v-4.33H355.25z M350.98,586.93v-2.93h3.38v2.93H350.98z M354.34,587.8v9.19H351v-9.19H354.34z
			 M345.6,587.55c2.7,0,4.08,2.14,4.08,4.84c0,2.72-1.38,4.84-4.08,4.84c-1.55,0-2.58-0.74-3.03-1.81v4.87h-3.34V587.8h3.34v1.59
			C343.03,588.29,344.06,587.55,345.6,587.55z M332.54,590.03c-0.74,0-1.11,0.47-1.26,1.15l-3.09-0.21
			c0.29-2.02,1.79-3.42,4.56-3.42c2.43,0,4.23,1.05,4.23,3.61v3.13c0,0.47,0.21,0.68,0.56,0.68c0.27,0,0.47-0.04,0.74-0.14v1.77
			c-0.47,0.33-1.13,0.6-2.08,0.6c-1.13,0-2.02-0.58-2.33-1.63c-0.54,1.07-1.59,1.63-3.05,1.63c-1.79,0-2.97-0.93-2.97-2.49
			c0-1.77,1.28-2.54,3.28-2.89l2.58-0.43v-0.14C333.69,590.48,333.34,590.03,332.54,590.03z M299.5,291.36
			c-5.04,0-7.56,3.22-8.54,7.84l-21-1.4c1.96-13.72,12.18-23.24,30.94-23.24c16.52,0,28.7,7.14,28.7,24.5v21.28
			c0,3.22,1.4,4.62,3.78,4.62c1.82,0,3.22-0.28,5.04-0.98v12.04c-3.22,2.24-7.7,4.06-14.14,4.06c-7.7,0-13.72-3.92-15.82-11.06
			c-3.64,7.28-10.78,11.06-20.72,11.06c-12.18,0-20.16-6.3-20.16-16.94c0-12.04,8.68-17.22,22.26-19.6l17.5-2.94v-0.98
			C307.34,294.44,304.96,291.36,299.5,291.36z M320.73,594.13c2.02,0,2.8-1.34,3.01-2.78l3.36,0.14c-0.25,3.24-2.37,5.75-6.35,5.75
			c-3.79,0-6.66-2.74-6.66-6.74c0-4,2.87-6.74,6.66-6.74c3.98,0,6.1,2.54,6.35,5.77l-3.36,0.12c-0.21-1.44-0.99-2.78-3.01-2.78
			c-1.92,0-3.03,1.42-3.03,3.63C317.7,592.71,318.81,594.13,320.73,594.13z M310.64,591.51l-0.43,2.06h-2.04l-0.8,3.42h-2.49
			l0.8-3.42h-1.77l-0.8,3.42h-2.49l0.8-3.42h-1.81l0.43-2.06h1.88l0.5-2.02h-1.98l0.43-2.06h2.02l0.83-3.42h2.49l-0.83,3.42h1.77
			l0.82-3.42h2.49l-0.82,3.42h1.83l-0.43,2.06h-1.88l-0.5,2.02H310.64z M698,523.21l-9.35-24.26h-48.92l-9.35,24.26h-34
			l49.91-125.28h37.78l49.91,125.28H698z M598.53,307.46c0-19.32,13.72-32.9,34.16-32.9c20.3,0,34.16,13.58,34.16,32.9
			c0,19.46-13.86,32.9-34.16,32.9C612.25,340.36,598.53,326.92,598.53,307.46z M704.93,317.12l-9.24-1.4
			c-15.12-2.38-23.1-7.28-23.1-20.02c0-12.32,10.78-21.14,28.28-21.14c18.06,0,28.7,7.98,29.96,21l-18.62,0.56
			c-0.84-4.48-4.76-7.28-11.76-7.28c-4.34,0-6.86,1.68-6.86,4.48c0,2.1,1.68,3.22,3.78,3.5l12.18,2.1
			c14,2.24,22.12,8.54,22.12,20.72c0,13.16-11.2,20.72-28.98,20.72c-17.22,0-30.1-6.86-31.36-21.98l19.74-0.28
			c0.84,5.18,5.04,8.12,11.9,8.12c5.04,0,7.7-1.82,7.7-4.34C710.67,319.5,709.27,317.82,704.93,317.12z M761.72,852.8
			c0-1.79,0.93-2.97,2.49-2.97c1.77,0,2.54,1.28,2.89,3.28l0.43,2.58h0.14c0.76,0,1.22-0.35,1.22-1.15c0-0.74-0.47-1.11-1.15-1.26
			l0.21-3.09c2.02,0.29,3.42,1.79,3.42,4.56c0,2.43-1.05,4.23-3.61,4.23h-3.13c-0.47,0-0.68,0.21-0.68,0.56
			c0,0.27,0.04,0.47,0.14,0.74h-1.77c-0.33-0.47-0.6-1.13-0.6-2.08c0-1.13,0.58-2.02,1.63-2.33
			C762.28,855.32,761.72,854.27,761.72,852.8z M764.09,895.43h-1.77c-0.33-0.47-0.6-1.13-0.6-2.08c0-1.13,0.58-2.02,1.63-2.33
			c-1.07-0.54-1.63-1.59-1.63-3.05c0-1.79,0.93-2.97,2.49-2.97c1.77,0,2.54,1.28,2.89,3.28l0.43,2.58h0.14
			c0.76,0,1.22-0.35,1.22-1.15c0-0.74-0.47-1.11-1.15-1.26l0.21-3.09c2.02,0.29,3.42,1.79,3.42,4.56c0,2.43-1.05,4.23-3.61,4.23
			h-3.13c-0.47,0-0.68,0.21-0.68,0.56C763.95,894.95,763.99,895.16,764.09,895.43z M771.37,928.4c0,2.54-1.75,3.28-3.67,3.28h-5.77
			v-3.34h4.89c1.26,0,1.92-0.23,1.92-1.24c0-1.11-0.91-1.48-2.29-1.48h-4.51v-3.34h4.89c1.26,0,1.92-0.25,1.92-1.26
			c0-1.09-0.91-1.48-2.29-1.48h-4.51v-3.34h9.19v3.34h-1.38c1.01,0.5,1.63,1.48,1.63,2.87c0,1.63-0.74,2.47-1.81,2.87
			C770.59,925.77,771.37,926.86,771.37,928.4z M768.28,914.8l-0.08-2.74c0.66-0.12,1.07-0.7,1.07-1.73c0-0.64-0.25-1.01-0.66-1.01
			c-0.31,0-0.47,0.25-0.51,0.56l-0.31,1.79c-0.33,2.06-1.26,3.26-3.05,3.26c-1.94,0-3.05-1.65-3.05-4.27c0-2.54,1.01-4.43,3.24-4.62
			l0.04,2.91c-0.76,0.12-1.2,0.74-1.2,1.75c0,0.74,0.27,1.13,0.64,1.13c0.35,0,0.6-0.21,0.7-0.85l0.21-1.36
			c0.35-2.23,1.07-3.4,2.95-3.4c1.81,0,3.11,1.59,3.11,4.16C771.37,913.05,770.2,914.62,768.28,914.8z M764.4,945.8
			c0.35,0,0.6-0.21,0.7-0.85l0.21-1.36c0.35-2.23,1.07-3.4,2.95-3.4c1.81,0,3.11,1.59,3.11,4.16c0,2.66-1.17,4.23-3.09,4.41
			l-0.08-2.74c0.66-0.12,1.07-0.7,1.07-1.73c0-0.64-0.25-1.01-0.66-1.01c-0.31,0-0.47,0.25-0.51,0.56l-0.31,1.79
			c-0.33,2.06-1.26,3.26-3.05,3.26c-1.94,0-3.05-1.65-3.05-4.27c0-2.54,1.01-4.43,3.24-4.62l0.04,2.91c-0.76,0.12-1.2,0.74-1.2,1.75
			C763.76,945.41,764.03,945.8,764.4,945.8z M761.93,981.7h9.19v3.34h-9.19V981.7z M766.61,1001.07h4.51v3.34h-9.19v-3.34h1.38
			c-1.03-0.49-1.63-1.5-1.63-2.89c0-2.52,1.73-3.28,3.65-3.28h5.79v3.34h-4.91c-1.24,0-1.92,0.35-1.92,1.36
			C764.3,1000.66,765.21,1001.07,766.61,1001.07z M771.12,904.89h-9.19v-3.34h9.19V904.89z M771.12,881.78v2.39h-2.31v-2.39h-3.36
			c-0.78,0-1.09,0.37-1.09,1.05c0,0.41,0.08,0.87,0.31,1.42h-2.16c-0.52-0.7-0.82-1.5-0.82-2.76c0-1.55,0.64-3.01,2.8-3.01h4.33
			v-1.24h2.06l0.1,0.68c0.14,0.93,0.64,1.22,1.48,1.44l1.2,0.31v2.1H771.12z M761.93,876.34V873h9.19v3.34H761.93z M771.12,861.23
			v3.34h-1.59c1.09,0.45,1.83,1.48,1.83,3.03c0,2.7-2.14,4.08-4.84,4.08c-2.72,0-4.84-1.38-4.84-4.08c0-1.55,0.74-2.58,1.81-3.03
			h-4.86v-3.34H771.12z M768.28,1014.33l-0.08-2.74c0.66-0.12,1.07-0.7,1.07-1.73c0-0.64-0.25-1.01-0.66-1.01
			c-0.31,0-0.47,0.25-0.51,0.56l-0.31,1.79c-0.33,2.06-1.26,3.26-3.05,3.26c-1.94,0-3.05-1.65-3.05-4.27c0-2.54,1.01-4.43,3.24-4.62
			l0.04,2.91c-0.76,0.12-1.2,0.74-1.2,1.75c0,0.74,0.27,1.13,0.64,1.13c0.35,0,0.6-0.21,0.7-0.85l0.21-1.36
			c0.35-2.23,1.07-3.4,2.95-3.4c1.81,0,3.11,1.59,3.11,4.16C771.37,1012.58,770.2,1014.14,768.28,1014.33z M771.02,993.99
			l-3.15-0.21c0.27-0.45,0.39-0.95,0.39-1.59c0-1.24-0.58-2-2.12-2h-4.21v-3.34h9.19v3.34h-1.63c1.03,0.33,1.88,1.3,1.88,2.52
			C771.37,993.26,771.21,993.76,771.02,993.99z M774.92,985.06h-2.93v-3.38h2.93V985.06z M774.92,970.8l-8.64,3.22v0.08l8.64,3.22
			v3.48l-12.99-4.99v-3.69l12.99-4.99V970.8z M774.92,960.16l-12.99,5.17v-3.73l2.51-0.97v-5.07l-2.51-0.97v-3.52l12.99,5.17V960.16
			z M774.92,938.78h-12.99v-3.5h12.99V938.78z M774.92,904.91h-2.93v-3.38h2.93V904.91z M774.92,899.73h-12.99v-3.34h12.99V899.73z
			 M774.92,876.36h-2.93v-3.38h2.93V876.36z M769.39,849.1l-0.12-3.36c1.44-0.21,2.78-0.99,2.78-3.01c0-1.92-1.42-3.03-3.63-3.03
			c-2.21,0-3.63,1.11-3.63,3.03c0,2.02,1.34,2.8,2.78,3.01l-0.14,3.36c-3.24-0.25-5.75-2.37-5.75-6.35c0-3.79,2.74-6.66,6.74-6.66
			c4,0,6.74,2.87,6.74,6.66C775.16,846.73,772.63,848.85,769.39,849.1z M761.93,825.1v-2.49l3.42,0.8v-1.81l2.06,0.43v1.88
			l2.02,0.49v-1.98l2.06,0.43v2.02l3.42,0.82v2.49l-3.42-0.83v1.77l3.42,0.82v2.49l-3.42-0.82v1.83l-2.06-0.43v-1.88l-2.02-0.49
			v1.98l-2.06-0.43v-2.04l-3.42-0.8v-2.49l3.42,0.8v-1.77L761.93,825.1z M743.09,110.3c29,0,44.38,19.85,44.38,43.4v8.76h-60.92
			c0.78,10.71,8.56,15.77,18.1,15.77c8.56,0,14.01-2.92,16.93-9.73l25.3,2.34c-4.48,19.85-20.44,30.95-43.41,30.95
			c-27.83,0-47.69-16.74-47.69-44.38C695.79,129.95,716.03,110.3,743.09,110.3z M624.94,112.63h31.53v15.38
			c3.11-9.73,12.26-17.71,23.75-17.71c5.26,0,9.93,1.56,12.07,3.31l-1.95,29.78c-4.28-2.53-8.95-3.7-14.99-3.7
			c-11.68,0-18.88,5.45-18.88,20.05v39.71h-31.53V112.63z M603.53,144.36v29.59c0,4.48,1.95,6.42,5.26,6.42
			c2.53,0,4.48-0.39,7.01-1.36v16.74c-4.48,3.11-10.71,5.64-19.66,5.64c-10.71,0-19.07-5.45-21.99-15.38
			c-5.06,10.12-14.99,15.38-28.81,15.38c-16.93,0-28.03-8.76-28.03-23.55c0-16.74,12.07-23.94,30.95-27.25l24.33-4.09v-1.36
			c0-7.2-3.31-11.48-10.9-11.48c-7.01,0-10.51,4.48-11.87,10.9l-29.2-1.95c2.72-19.08,16.93-32.31,43.02-32.31
			C586.59,110.3,603.53,120.22,603.53,144.36z M523.04,21.53c0-0.89,0.58-1.57,1.57-1.94c-0.82-0.54-1.32-1.32-1.32-2.33
			c0-1.96,1.86-3.15,4.43-3.15c1.11,0,2.16,0.27,2.95,0.74c0.56-0.76,1.57-1.42,2.58-1.42v2.51c-0.39,0-0.89,0.04-1.34,0.14
			c0.19,0.35,0.29,0.74,0.29,1.17c0,1.94-1.88,3.13-4.47,3.13c-0.74,0-1.4-0.08-2-0.27c-0.12,0.1-0.19,0.25-0.19,0.43
			c0,0.31,0.23,0.56,0.78,0.56h3.81c2.08,0,3.13,1.09,3.13,2.64c0,2.29-2.78,3.34-5.77,3.34c-2.62,0-4.89-0.52-4.89-2.25
			c0-0.8,0.72-1.44,1.75-1.53C523.53,23.06,523.04,22.32,523.04,21.53z M515.45,14.36h3.34v1.63c0.33-1.03,1.3-1.88,2.52-1.88
			c0.56,0,1.05,0.16,1.28,0.35l-0.21,3.15c-0.45-0.27-0.95-0.39-1.59-0.39c-1.24,0-2,0.58-2,2.12v4.21h-3.34V14.36z M509.1,14.11
			c2.99,0,5.03,2,5.03,4.84c0,2.87-2.04,4.84-5.03,4.84c-3.01,0-5.03-1.98-5.03-4.84C504.07,16.11,506.09,14.11,509.1,14.11z
			 M497.64,20.01h3.55v3.55h-3.55V20.01z M490.87,20.38l-1.36-0.21c-2.23-0.35-3.4-1.07-3.4-2.95c0-1.81,1.59-3.11,4.16-3.11
			c2.66,0,4.23,1.18,4.41,3.09l-2.74,0.08c-0.12-0.66-0.7-1.07-1.73-1.07c-0.64,0-1.01,0.25-1.01,0.66c0,0.31,0.25,0.47,0.56,0.52
			l1.79,0.31c2.06,0.33,3.26,1.26,3.26,3.05c0,1.94-1.65,3.05-4.27,3.05c-2.54,0-4.43-1.01-4.62-3.24l2.91-0.04
			c0.12,0.76,0.74,1.2,1.75,1.2c0.74,0,1.13-0.27,1.13-0.64C491.71,20.73,491.5,20.48,490.87,20.38z M475.26,14.36h3.34v4.91
			c0,1.24,0.35,1.92,1.36,1.92c1.05,0,1.46-0.91,1.46-2.31v-4.51h3.34v9.19h-3.34v-1.38c-0.5,1.03-1.5,1.63-2.89,1.63
			c-2.52,0-3.28-1.73-3.28-3.65V14.36z M467.2,14.36h3.34v1.63c0.33-1.03,1.3-1.88,2.51-1.88c0.56,0,1.05,0.16,1.28,0.35l-0.21,3.15
			c-0.45-0.27-0.95-0.39-1.59-0.39c-1.24,0-2,0.58-2,2.12v4.21h-3.34V14.36z M462.03,10.57h3.38v2.93h-3.38V10.57z M451.15,10.57
			l3.22,8.64h0.08l3.22-8.64h3.48l-4.99,12.99h-3.69l-4.99-12.99H451.15z M436.54,10.57h3.92l5.17,12.99h-3.73l-0.97-2.52h-5.07
			l-0.97,2.52h-3.52L436.54,10.57z M423.59,20.38l-1.36-0.21c-2.23-0.35-3.4-1.07-3.4-2.95c0-1.81,1.59-3.11,4.16-3.11
			c2.66,0,4.23,1.18,4.41,3.09l-2.74,0.08c-0.12-0.66-0.7-1.07-1.73-1.07c-0.64,0-1.01,0.25-1.01,0.66c0,0.31,0.25,0.47,0.56,0.52
			l1.79,0.31c2.06,0.33,3.26,1.26,3.26,3.05c0,1.94-1.65,3.05-4.27,3.05c-2.54,0-4.43-1.01-4.62-3.24l2.91-0.04
			c0.12,0.76,0.74,1.2,1.75,1.2c0.74,0,1.13-0.27,1.13-0.64C424.44,20.73,424.23,20.48,423.59,20.38z M413.91,10.57h3.5v12.99h-3.5
			V10.57z M393.17,14.36h3.34v1.38c0.5-1.01,1.48-1.63,2.87-1.63c1.63,0,2.47,0.74,2.87,1.81c0.49-1.03,1.59-1.81,3.13-1.81
			c2.54,0,3.28,1.75,3.28,3.67v5.77h-3.34v-4.89c0-1.26-0.23-1.92-1.24-1.92c-1.11,0-1.48,0.91-1.48,2.29v4.51h-3.34v-4.89
			c0-1.26-0.25-1.92-1.26-1.92c-1.09,0-1.48,0.91-1.48,2.29v4.51h-3.34V14.36z M387.96,20.38l-1.36-0.21
			c-2.23-0.35-3.4-1.07-3.4-2.95c0-1.81,1.59-3.11,4.16-3.11c2.66,0,4.23,1.18,4.41,3.09l-2.74,0.08c-0.12-0.66-0.7-1.07-1.73-1.07
			c-0.64,0-1.01,0.25-1.01,0.66c0,0.31,0.25,0.47,0.56,0.52l1.79,0.31c2.06,0.33,3.26,1.26,3.26,3.05c0,1.94-1.65,3.05-4.27,3.05
			c-2.54,0-4.43-1.01-4.62-3.24l2.91-0.04c0.12,0.76,0.74,1.2,1.75,1.2c0.74,0,1.13-0.27,1.13-0.64
			C388.8,20.73,388.6,20.48,387.96,20.38z M378.5,10.57h3.38v2.93h-3.38V10.57z M373.37,10.57h3.34v12.99h-3.34V10.57z
			 M366.67,16.59c-0.74,0-1.11,0.47-1.26,1.15l-3.09-0.21c0.29-2.02,1.79-3.42,4.56-3.42c2.43,0,4.23,1.05,4.23,3.61v3.13
			c0,0.47,0.21,0.68,0.56,0.68c0.27,0,0.47-0.04,0.74-0.14v1.77c-0.47,0.33-1.13,0.6-2.08,0.6c-1.13,0-2.02-0.58-2.33-1.63
			c-0.54,1.07-1.59,1.63-3.05,1.63c-1.79,0-2.97-0.93-2.97-2.49c0-1.77,1.28-2.54,3.28-2.89l2.58-0.43V17.8
			C367.82,17.04,367.47,16.59,366.67,16.59z M354.22,14.61l0.68-0.1c0.93-0.14,1.22-0.64,1.44-1.48l0.31-1.2h2.1v2.54h2.39v2.31
			h-2.39v3.36c0,0.78,0.37,1.09,1.05,1.09c0.41,0,0.87-0.08,1.42-0.31v2.16c-0.7,0.52-1.5,0.82-2.76,0.82
			c-1.55,0-3.01-0.64-3.01-2.8v-4.33h-1.24V14.61z M349.95,10.57h3.38v2.93h-3.38V10.57z M338.2,14.36h3.34v1.59
			c0.45-1.09,1.48-1.83,3.03-1.83c2.7,0,4.08,2.14,4.08,4.84c0,2.72-1.38,4.84-4.08,4.84c-1.55,0-2.58-0.74-3.03-1.81v4.87h-3.34
			V14.36z M331.51,16.59c-0.74,0-1.11,0.47-1.26,1.15l-3.09-0.21c0.29-2.02,1.79-3.42,4.56-3.42c2.43,0,4.23,1.05,4.23,3.61v3.13
			c0,0.47,0.21,0.68,0.56,0.68c0.27,0,0.47-0.04,0.74-0.14v1.77c-0.47,0.33-1.13,0.6-2.08,0.6c-1.13,0-2.02-0.58-2.33-1.63
			c-0.54,1.07-1.59,1.63-3.05,1.63c-1.79,0-2.97-0.93-2.97-2.49c0-1.77,1.28-2.54,3.28-2.89l2.58-0.43V17.8
			C332.66,17.04,332.31,16.59,331.51,16.59z M319.72,10.32c3.98,0,6.1,2.54,6.35,5.77l-3.36,0.12c-0.21-1.44-0.99-2.78-3.01-2.78
			c-1.92,0-3.03,1.42-3.03,3.63s1.11,3.63,3.03,3.63c2.02,0,2.8-1.34,3.01-2.78l3.36,0.14c-0.25,3.24-2.37,5.75-6.35,5.75
			c-3.79,0-6.66-2.74-6.66-6.74S315.92,10.32,319.72,10.32z M306.63,20.01h3.55v3.55h-3.55V20.01z M262.3,14.36l1.65,5.22h0.08
			l1.34-5.22h2.66l1.34,5.22h0.08l1.65-5.22h2.92h0.09h3.23l1.65,5.22h0.08l1.34-5.22h2.66l1.34,5.22h0.08l1.65-5.22h2.92h0.08h3.23
			l1.65,5.22h0.08l1.34-5.22h2.66l1.34,5.22h0.08l1.65-5.22h3.01l-2.91,9.19h-3.28l-1.34-5.19h-0.08l-1.34,5.19h-3.28l-2.86-9.06
			l-2.86,9.06h-3.28l-1.34-5.19h-0.08l-1.34,5.19h-3.28l-2.86-9.06l-2.86,9.06h-3.28l-1.34-5.19h-0.08l-1.34,5.19h-3.28l-2.91-9.19
			H262.3z M265.62,276.94l-1.4,21.42c-3.08-1.82-6.44-2.66-10.78-2.66c-8.4,0-13.58,3.92-13.58,14.42v28.56h-22.68v-62.44h22.68
			v11.06c2.24-7,8.82-12.74,17.08-12.74C260.72,274.56,264.08,275.68,265.62,276.94z M206.85,110.3c29,0,44.38,19.85,44.38,43.4
			v8.76H190.3c0.78,10.71,8.56,15.77,18.1,15.77c8.56,0,14.01-2.92,16.93-9.73l25.3,2.34c-4.48,19.85-20.44,30.95-43.4,30.95
			c-27.83,0-47.69-16.74-47.69-44.38C159.55,129.95,179.79,110.3,206.85,110.3z M173.08,274.56c16.52,0,28.7,7.14,28.7,24.5v21.28
			c0,3.22,1.4,4.62,3.78,4.62c1.82,0,3.22-0.28,5.04-0.98v12.04c-3.22,2.24-7.7,4.06-14.14,4.06c-7.7,0-13.72-3.92-15.82-11.06
			c-3.64,7.28-10.78,11.06-20.72,11.06c-12.18,0-20.16-6.3-20.16-16.94c0-12.04,8.68-17.22,22.26-19.6l17.5-2.94v-0.98
			c0-5.18-2.38-8.26-7.84-8.26c-5.04,0-7.56,3.22-8.54,7.84l-21-1.4C144.1,284.08,154.32,274.56,173.08,274.56z M9.09,76.82h51.19
			l18.1,77.08h0.58l17.32-77.08h50.02v122.62h-33.09v-86.23h-0.78l-21.99,86.23H62.23l-21.99-86.23h-0.78v86.23H9.09V76.82z"/>
		<path class="st5" d="M509.1,21.29c1.15,0,1.67-0.95,1.67-2.33c0-1.38-0.52-2.33-1.67-2.33c-1.17,0-1.67,0.95-1.67,2.33
			C507.43,20.34,507.93,21.29,509.1,21.29z"/>
		<path class="st5" d="M527.51,25.37c1.55,0,2.68-0.31,2.68-0.87c0-0.39-0.29-0.54-0.84-0.54h-3.38c-0.37,0-0.62,0.21-0.62,0.56
			C525.35,25.18,526.27,25.37,527.51,25.37z"/>
		<path class="st5" d="M566.9,307.04c0-8.96-4.9-14.84-12.46-14.84c-8.96,0-12.88,6.3-12.88,15.26c0,9.1,3.92,15.4,12.88,15.4
			c7.56,0,12.46-5.88,12.46-14.98V307.04z"/>
		<path class="st5" d="M310,134.82c-12.46,0-17.91,8.76-17.91,21.22c0,12.65,5.45,21.41,17.91,21.41c10.51,0,17.32-8.17,17.32-20.83
			v-1.17C327.33,143,320.52,134.82,310,134.82z"/>
		<polygon class="st5" points="436.14,588.03 436.05,588.03 434.57,591.86 437.62,591.86 		"/>
		<path class="st5" d="M742.7,132.87c-10.12,0-14.6,6.23-15.77,14.4h30.56C757.1,139.49,752.04,132.87,742.7,132.87z"/>
		<path class="st5" d="M547.66,173.75c0,4.48,3.5,7.4,8.76,7.4c8.95,0,16.16-6.62,16.16-17.91v-1.36l-12.85,2.34
			C552.14,165.77,547.66,168.1,547.66,173.75z"/>
		<polygon class="st5" points="663.8,436.71 649.48,473.69 678.91,473.69 664.59,436.71 		"/>
		<path class="st5" d="M644.03,307.46c0-9.38-3.5-15.82-11.34-15.82c-7.98,0-11.34,6.44-11.34,15.82s3.36,15.82,11.34,15.82
			C640.53,323.28,644.03,316.84,644.03,307.46z"/>
		<path class="st5" d="M366.21,594.27c0,0.47,0.37,0.78,0.93,0.78c0.95,0,1.71-0.7,1.71-1.9v-0.14l-1.36,0.25
			C366.69,593.43,366.21,593.67,366.21,594.27z"/>
		<polygon class="st5" points="304.4,591.51 306.17,591.51 306.66,589.49 304.89,589.49 		"/>
		<path class="st5" d="M331.05,594.27c0,0.47,0.37,0.78,0.93,0.78c0.95,0,1.71-0.7,1.71-1.9v-0.14l-1.36,0.25
			C331.53,593.43,331.05,593.67,331.05,594.27z"/>
		<path class="st5" d="M342.57,592.46c0,1.34,0.72,2.21,1.86,2.21c1.3,0,1.9-0.93,1.9-2.27c0-1.32-0.6-2.25-1.9-2.25
			c-1.13,0-1.86,0.87-1.86,2.19V592.46z"/>
		<path class="st5" d="M289.42,320.2c0,3.22,2.52,5.32,6.3,5.32c6.44,0,11.62-4.76,11.62-12.88v-0.98l-9.24,1.68
			C292.64,314.46,289.42,316.14,289.42,320.2z"/>
		<polygon class="st5" points="438.43,14.59 438.35,14.59 436.87,18.42 439.92,18.42 		"/>
		<path class="st5" d="M343.4,21.22c1.3,0,1.9-0.93,1.9-2.27c0-1.32-0.6-2.25-1.9-2.25c-1.13,0-1.86,0.87-1.86,2.19v0.12
			C341.54,20.36,342.26,21.22,343.4,21.22z"/>
		<path class="st5" d="M365.18,20.83c0,0.47,0.37,0.78,0.93,0.78c0.95,0,1.71-0.7,1.71-1.9v-0.14l-1.36,0.25
			C365.66,19.99,365.18,20.24,365.18,20.83z"/>
		<path class="st5" d="M206.46,132.87c-10.12,0-14.6,6.23-15.77,14.4h30.56C220.86,139.49,215.8,132.87,206.46,132.87z"/>
		<path class="st5" d="M161.6,320.2c0,3.22,2.52,5.32,6.3,5.32c6.44,0,11.62-4.76,11.62-12.88v-0.98l-9.24,1.68
			C164.82,314.46,161.6,316.14,161.6,320.2z"/>
		<path class="st5" d="M330.02,20.83c0,0.47,0.37,0.78,0.93,0.78c0.95,0,1.71-0.7,1.71-1.9v-0.14l-1.36,0.25
			C330.5,19.99,330.02,20.24,330.02,20.83z"/>
		<polygon class="st5" points="124.91,436.71 110.6,473.69 140.03,473.69 125.71,436.71 		"/>
		<polygon points="39.45,113.21 40.23,113.21 62.23,199.44 90.45,199.44 112.44,113.21 113.22,113.21 113.22,199.44 146.31,199.44 
			146.31,76.82 96.29,76.82 78.97,153.9 78.38,153.9 60.28,76.82 9.09,76.82 9.09,199.44 39.45,199.44 		"/>
		<path d="M207.24,201.78c22.97,0,38.93-11.09,43.4-30.95l-25.3-2.34c-2.92,6.81-8.37,9.73-16.93,9.73
			c-9.54,0-17.32-5.06-18.1-15.77h60.92v-8.76c0-23.55-15.38-43.4-44.38-43.4c-27.05,0-47.3,19.66-47.3,47.1
			C159.55,185.04,179.4,201.78,207.24,201.78z M206.46,132.87c9.34,0,14.4,6.62,14.79,14.4h-30.56
			C191.86,139.1,196.34,132.87,206.46,132.87z"/>
		<path d="M327.33,127.62c-4.09-10.32-14.01-17.32-28.42-17.32c-25.69,0-38.54,20.24-38.54,45.74c0,25.69,12.85,45.74,38.54,45.74
			c14.4,0,24.33-7.01,28.42-17.13v14.79h31.53V76.82h-31.53V127.62z M327.33,156.62c0,12.65-6.81,20.83-17.32,20.83
			c-12.46,0-17.91-8.76-17.91-21.41c0-12.46,5.45-21.22,17.91-21.22c10.51,0,17.32,8.18,17.32,20.63V156.62z"/>
		<rect x="375.99" y="112.63" width="31.53" height="86.81"/>
		<rect x="375.79" y="76.82" width="31.92" height="27.64"/>
		<path d="M419.98,156.04c0,27.64,20.05,45.74,47.49,45.74c26.08,0,40.68-16.74,42.82-37.76l-25.89-1.95
			c-2.14,10.71-7.4,15.96-16.54,15.96c-9.54,0-16.16-6.42-16.16-21.99s6.62-21.99,16.16-21.99c9.15,0,14.4,5.06,16.54,15.77
			l25.89-1.75c-2.14-20.83-16.74-37.76-42.82-37.76C440.03,110.3,419.98,128.59,419.98,156.04z"/>
		<path d="M520.61,142.61l29.2,1.95c1.36-6.42,4.87-10.9,11.87-10.9c7.59,0,10.9,4.28,10.9,11.48v1.36l-24.33,4.09
			c-18.88,3.31-30.95,10.51-30.95,27.25c0,14.79,11.09,23.55,28.03,23.55c13.82,0,23.75-5.26,28.81-15.38
			c2.92,9.93,11.29,15.38,21.99,15.38c8.95,0,15.18-2.53,19.66-5.64V179c-2.53,0.97-4.48,1.36-7.01,1.36
			c-3.31,0-5.26-1.95-5.26-6.42v-29.59c0-24.14-16.93-34.06-39.9-34.06C537.54,110.3,523.33,123.53,520.61,142.61z M572.58,163.24
			c0,11.29-7.2,17.91-16.16,17.91c-5.25,0-8.76-2.92-8.76-7.4c0-5.65,4.48-7.98,12.07-9.54l12.85-2.34V163.24z"/>
		<path d="M656.47,159.73c0-14.6,7.2-20.05,18.88-20.05c6.03,0,10.71,1.17,14.99,3.7l1.95-29.78c-2.14-1.75-6.81-3.31-12.07-3.31
			c-11.48,0-20.63,7.98-23.75,17.71v-15.38h-31.53v86.81h31.53V159.73z"/>
		<path d="M743.48,201.78c22.97,0,38.93-11.09,43.41-30.95l-25.3-2.34c-2.92,6.81-8.37,9.73-16.93,9.73
			c-9.54,0-17.32-5.06-18.1-15.77h60.92v-8.76c0-23.55-15.38-43.4-44.38-43.4c-27.05,0-47.3,19.66-47.3,47.1
			C695.79,185.04,715.64,201.78,743.48,201.78z M742.7,132.87c9.34,0,14.4,6.62,14.79,14.4h-30.56
			C728.1,139.1,732.58,132.87,742.7,132.87z"/>
		<path d="M63.46,276.24v84.84h22.68v-33.04c3.08,7.28,10.08,12.32,20.58,12.32c18.34,0,27.72-14.42,27.72-32.9
			c0-18.34-9.38-32.9-27.72-32.9c-10.5,0-17.5,5.04-20.58,12.46v-10.78H63.46z M98.74,292.2c8.82,0,12.88,6.3,12.88,15.26
			c0,9.1-4.06,15.4-12.88,15.4c-7.7,0-12.6-5.88-12.6-14.98v-0.84C86.14,298.08,91.04,292.2,98.74,292.2z"/>
		<path d="M163.14,299.2c0.98-4.62,3.5-7.84,8.54-7.84c5.46,0,7.84,3.08,7.84,8.26v0.98l-17.5,2.94
			c-13.58,2.38-22.26,7.56-22.26,19.6c0,10.64,7.98,16.94,20.16,16.94c9.94,0,17.08-3.78,20.72-11.06
			c2.1,7.14,8.12,11.06,15.82,11.06c6.44,0,10.92-1.82,14.14-4.06v-12.04c-1.82,0.7-3.22,0.98-5.04,0.98c-2.38,0-3.78-1.4-3.78-4.62
			v-21.28c0-17.36-12.18-24.5-28.7-24.5c-18.76,0-28.98,9.52-30.94,23.24L163.14,299.2z M179.52,312.64
			c0,8.12-5.18,12.88-11.62,12.88c-3.78,0-6.3-2.1-6.3-5.32c0-4.06,3.22-5.74,8.68-6.86l9.24-1.68V312.64z"/>
		<path d="M239.86,287.3v-11.06h-22.68v62.44h22.68v-28.56c0-10.5,5.18-14.42,13.58-14.42c4.34,0,7.7,0.84,10.78,2.66l1.4-21.42
			c-1.54-1.26-4.9-2.38-8.68-2.38C248.68,274.56,242.1,280.3,239.86,287.3z"/>
		<path d="M289.84,303.54c-13.58,2.38-22.26,7.56-22.26,19.6c0,10.64,7.98,16.94,20.16,16.94c9.94,0,17.08-3.78,20.72-11.06
			c2.1,7.14,8.12,11.06,15.82,11.06c6.44,0,10.92-1.82,14.14-4.06v-12.04c-1.82,0.7-3.22,0.98-5.04,0.98c-2.38,0-3.78-1.4-3.78-4.62
			v-21.28c0-17.36-12.18-24.5-28.7-24.5c-18.76,0-28.98,9.52-30.94,23.24l21,1.4c0.98-4.62,3.5-7.84,8.54-7.84
			c5.46,0,7.84,3.08,7.84,8.26v0.98L289.84,303.54z M307.34,312.64c0,8.12-5.18,12.88-11.62,12.88c-3.78,0-6.3-2.1-6.3-5.32
			c0-4.06,3.22-5.74,8.68-6.86l9.24-1.68V312.64z"/>
		<polygon points="367.54,270.08 397.78,270.08 397.78,338.68 421.44,338.68 421.44,270.08 452.1,270.08 452.1,250.48 
			367.54,250.48 		"/>
		<path d="M478.56,274.56c-20.44,0-34.16,13.58-34.16,32.9c0,19.46,13.72,32.9,34.16,32.9c20.3,0,34.16-13.44,34.16-32.9
			C512.72,288.14,498.86,274.56,478.56,274.56z M478.56,323.28c-7.98,0-11.34-6.44-11.34-15.82s3.36-15.82,11.34-15.82
			c7.84,0,11.34,6.44,11.34,15.82S486.4,323.28,478.56,323.28z"/>
		<path d="M589.58,338.68v-88.2H566.9v36.54c-2.94-7.42-10.08-12.46-20.44-12.46c-18.48,0-27.72,14.56-27.72,32.9
			c0,18.48,9.24,32.9,27.72,32.9c10.36,0,17.5-5.04,20.44-12.32v10.64H589.58z M554.44,322.86c-8.96,0-12.88-6.3-12.88-15.4
			c0-8.96,3.92-15.26,12.88-15.26c7.56,0,12.46,5.88,12.46,14.84v0.84C566.9,316.98,562,322.86,554.44,322.86z"/>
		<path d="M666.85,307.46c0-19.32-13.86-32.9-34.16-32.9c-20.44,0-34.16,13.58-34.16,32.9c0,19.46,13.72,32.9,34.16,32.9
			C652.99,340.36,666.85,326.92,666.85,307.46z M621.35,307.46c0-9.38,3.36-15.82,11.34-15.82c7.84,0,11.34,6.44,11.34,15.82
			s-3.5,15.82-11.34,15.82C624.71,323.28,621.35,316.84,621.35,307.46z"/>
		<path d="M702.97,326.22c-6.86,0-11.06-2.94-11.9-8.12l-19.74,0.28c1.26,15.12,14.14,21.98,31.36,21.98
			c17.78,0,28.98-7.56,28.98-20.72c0-12.18-8.12-18.48-22.12-20.72l-12.18-2.1c-2.1-0.28-3.78-1.4-3.78-3.5
			c0-2.8,2.52-4.48,6.86-4.48c7,0,10.92,2.8,11.76,7.28l18.62-0.56c-1.26-13.02-11.9-21-29.96-21c-17.5,0-28.28,8.82-28.28,21.14
			c0,12.74,7.98,17.64,23.1,20.02l9.24,1.4c4.34,0.7,5.74,2.38,5.74,4.76C710.67,324.4,708.01,326.22,702.97,326.22z"/>
		<path d="M145.2,397.93h-37.78L57.5,523.21h34l9.35-24.26h48.92l9.35,24.26h35.99L145.2,397.93z M110.6,473.69l14.32-36.99h0.79
			l14.32,36.99H110.6z"/>
		<polygon points="204.65,397.93 204.65,523.21 238.46,523.21 238.46,473.69 288.37,473.69 288.37,523.21 322.17,523.21 
			322.17,397.93 288.37,397.93 288.37,446.25 238.46,446.25 238.46,397.93 		"/>
		<path d="M335.69,460.57c0,38.58,28.63,65.02,65.03,65.02c36.39,0,65.02-26.45,65.02-65.02c0-38.58-28.63-65.02-65.02-65.02
			C364.33,395.54,335.69,421.99,335.69,460.57z M400.72,425.37c18.49,0,30.23,13.92,30.23,35.2c0,21.28-11.73,35.2-30.23,35.2
			s-30.23-13.92-30.23-35.2C370.49,439.29,382.23,425.37,400.72,425.37z"/>
		<path d="M479.26,523.21h33.21v-41.56h22.47c11.33,0,17.5,3.18,18.49,17.5c0.99,12.93,2.58,20.68,5.17,24.06h34.2
			c-4.18-4.57-4.77-10.14-6.56-28.83c-1.39-14.52-8.95-21.87-21.87-24.46c15.31-1.99,26.65-13.92,26.65-32.21
			c0-24.46-16.11-39.77-48.52-39.77h-63.24V523.21z M512.47,424.97h24.06c14.32,0,21.48,5.37,21.48,15.51
			c0,11.53-7.16,15.11-21.48,15.11h-24.06V424.97z"/>
		<path d="M646.3,397.93l-49.91,125.28h34l9.35-24.26h48.92l9.35,24.26h35.99l-49.91-125.28H646.3z M649.48,473.69l14.32-36.99h0.79
			l14.32,36.99H649.48z"/>
		<polygon points="265.16,23.55 266.5,18.36 266.58,18.36 267.92,23.55 271.2,23.55 274.07,14.5 276.93,23.55 280.21,23.55 
			281.55,18.36 281.63,18.36 282.97,23.55 286.25,23.55 289.11,14.49 291.98,23.55 295.25,23.55 296.59,18.36 296.68,18.36 
			298.02,23.55 301.29,23.55 304.2,14.36 301.19,14.36 299.54,19.58 299.46,19.58 298.12,14.36 295.46,14.36 294.12,19.58 
			294.04,19.58 292.39,14.36 289.15,14.36 289.07,14.36 286.14,14.36 284.5,19.58 284.41,19.58 283.07,14.36 280.41,14.36 
			279.07,19.58 278.99,19.58 277.34,14.36 274.11,14.36 274.02,14.36 271.1,14.36 269.45,19.58 269.37,19.58 268.03,14.36 
			265.37,14.36 264.03,19.58 263.95,19.58 262.3,14.36 258.98,14.36 261.88,23.55 		"/>
		<rect x="306.63" y="20.01" width="3.55" height="3.55"/>
		<path d="M319.72,23.8c3.98,0,6.1-2.52,6.35-5.75l-3.36-0.14c-0.21,1.44-0.99,2.78-3.01,2.78c-1.92,0-3.03-1.42-3.03-3.63
			s1.11-3.63,3.03-3.63c2.02,0,2.8,1.34,3.01,2.78l3.36-0.12c-0.25-3.24-2.37-5.77-6.35-5.77c-3.79,0-6.66,2.74-6.66,6.74
			S315.92,23.8,319.72,23.8z"/>
		<path d="M330.08,18.38c-2,0.35-3.28,1.11-3.28,2.89c0,1.57,1.17,2.49,2.97,2.49c1.46,0,2.51-0.56,3.05-1.63
			c0.31,1.05,1.2,1.63,2.33,1.63c0.95,0,1.61-0.27,2.08-0.6v-1.77c-0.27,0.1-0.47,0.14-0.74,0.14c-0.35,0-0.56-0.21-0.56-0.68v-3.13
			c0-2.56-1.79-3.61-4.23-3.61c-2.76,0-4.27,1.4-4.56,3.42l3.09,0.21c0.14-0.68,0.52-1.15,1.26-1.15c0.8,0,1.15,0.45,1.15,1.22v0.14
			L330.08,18.38z M332.66,19.72c0,1.2-0.76,1.9-1.71,1.9c-0.56,0-0.93-0.31-0.93-0.78c0-0.6,0.47-0.85,1.28-1.01l1.36-0.25V19.72z"
			/>
		<path d="M341.54,21.99c0.45,1.07,1.48,1.81,3.03,1.81c2.7,0,4.08-2.12,4.08-4.84c0-2.7-1.38-4.84-4.08-4.84
			c-1.55,0-2.58,0.74-3.03,1.83v-1.59h-3.34v12.49h3.34V21.99z M341.54,18.9c0-1.32,0.72-2.19,1.86-2.19c1.3,0,1.9,0.93,1.9,2.25
			c0,1.34-0.6,2.27-1.9,2.27c-1.13,0-1.86-0.87-1.86-2.21V18.9z"/>
		<rect x="349.97" y="14.36" width="3.34" height="9.19"/>
		<rect x="349.95" y="10.57" width="3.38" height="2.93"/>
		<path d="M355.46,21c0,2.16,1.46,2.8,3.01,2.8c1.26,0,2.06-0.31,2.76-0.82v-2.16c-0.56,0.23-1.01,0.31-1.42,0.31
			c-0.68,0-1.05-0.31-1.05-1.09v-3.36h2.39v-2.31h-2.39v-2.54h-2.1l-0.31,1.2c-0.23,0.85-0.52,1.34-1.44,1.48l-0.68,0.1v2.06h1.24
			V21z"/>
		<path d="M365.25,18.38c-2,0.35-3.28,1.11-3.28,2.89c0,1.57,1.17,2.49,2.97,2.49c1.46,0,2.52-0.56,3.05-1.63
			c0.31,1.05,1.2,1.63,2.33,1.63c0.95,0,1.61-0.27,2.08-0.6v-1.77c-0.27,0.1-0.47,0.14-0.74,0.14c-0.35,0-0.56-0.21-0.56-0.68v-3.13
			c0-2.56-1.79-3.61-4.23-3.61c-2.76,0-4.27,1.4-4.56,3.42l3.09,0.21c0.14-0.68,0.52-1.15,1.26-1.15c0.8,0,1.15,0.45,1.15,1.22v0.14
			L365.25,18.38z M367.82,19.72c0,1.2-0.76,1.9-1.71,1.9c-0.56,0-0.93-0.31-0.93-0.78c0-0.6,0.47-0.85,1.28-1.01l1.36-0.25V19.72z"
			/>
		<rect x="373.37" y="10.57" width="3.34" height="12.99"/>
		<rect x="378.52" y="14.36" width="3.34" height="9.19"/>
		<rect x="378.5" y="10.57" width="3.38" height="2.93"/>
		<path d="M387.67,21.72c-1.01,0-1.63-0.43-1.75-1.2l-2.91,0.04c0.19,2.23,2.08,3.24,4.62,3.24c2.62,0,4.27-1.11,4.27-3.05
			c0-1.79-1.2-2.72-3.26-3.05l-1.79-0.31c-0.31-0.04-0.56-0.21-0.56-0.52c0-0.41,0.37-0.66,1.01-0.66c1.03,0,1.61,0.41,1.73,1.07
			l2.74-0.08c-0.19-1.92-1.75-3.09-4.41-3.09c-2.58,0-4.16,1.3-4.16,3.11c0,1.88,1.17,2.6,3.4,2.95l1.36,0.21
			c0.64,0.1,0.84,0.35,0.84,0.7C388.8,21.45,388.41,21.72,387.67,21.72z"/>
		<path d="M396.51,19.04c0-1.38,0.39-2.29,1.48-2.29c1.01,0,1.26,0.66,1.26,1.92v4.89h3.34v-4.51c0-1.38,0.37-2.29,1.48-2.29
			c1.01,0,1.24,0.66,1.24,1.92v4.89h3.34v-5.77c0-1.92-0.74-3.67-3.28-3.67c-1.55,0-2.64,0.78-3.13,1.81
			c-0.39-1.07-1.24-1.81-2.87-1.81c-1.38,0-2.37,0.62-2.87,1.63v-1.38h-3.34v9.19h3.34V19.04z"/>
		<rect x="413.91" y="10.57" width="3.5" height="12.99"/>
		<path d="M423.3,21.72c-1.01,0-1.63-0.43-1.75-1.2l-2.91,0.04c0.19,2.23,2.08,3.24,4.62,3.24c2.62,0,4.27-1.11,4.27-3.05
			c0-1.79-1.2-2.72-3.26-3.05l-1.79-0.31c-0.31-0.04-0.56-0.21-0.56-0.52c0-0.41,0.37-0.66,1.01-0.66c1.03,0,1.61,0.41,1.73,1.07
			l2.74-0.08c-0.19-1.92-1.75-3.09-4.41-3.09c-2.58,0-4.16,1.3-4.16,3.11c0,1.88,1.17,2.6,3.4,2.95l1.36,0.21
			c0.64,0.1,0.84,0.35,0.84,0.7C424.44,21.45,424.05,21.72,423.3,21.72z"/>
		<path d="M435.86,21.04h5.07l0.97,2.52h3.73l-5.17-12.99h-3.92l-5.17,12.99h3.52L435.86,21.04z M438.35,14.59h0.08l1.48,3.83h-3.05
			L438.35,14.59z"/>
		<polygon points="456.16,23.55 461.15,10.57 457.66,10.57 454.45,19.2 454.36,19.2 451.15,10.57 447.48,10.57 452.47,23.55 		"/>
		<rect x="462.03" y="10.57" width="3.38" height="2.93"/>
		<rect x="462.05" y="14.36" width="3.34" height="9.19"/>
		<path d="M470.54,19.35c0-1.55,0.76-2.12,2-2.12c0.64,0,1.13,0.12,1.59,0.39l0.21-3.15c-0.23-0.19-0.72-0.35-1.28-0.35
			c-1.22,0-2.18,0.85-2.51,1.88v-1.63h-3.34v9.19h3.34V19.35z"/>
		<path d="M478.54,23.8c1.38,0,2.39-0.6,2.89-1.63v1.38h3.34v-9.19h-3.34v4.51c0,1.4-0.41,2.31-1.46,2.31
			c-1.01,0-1.36-0.68-1.36-1.92v-4.91h-3.34v5.79C475.26,22.07,476.02,23.8,478.54,23.8z"/>
		<path d="M490.58,21.72c-1.01,0-1.63-0.43-1.75-1.2l-2.91,0.04c0.19,2.23,2.08,3.24,4.62,3.24c2.62,0,4.27-1.11,4.27-3.05
			c0-1.79-1.2-2.72-3.26-3.05l-1.79-0.31c-0.31-0.04-0.56-0.21-0.56-0.52c0-0.41,0.37-0.66,1.01-0.66c1.03,0,1.61,0.41,1.73,1.07
			l2.74-0.08c-0.19-1.92-1.75-3.09-4.41-3.09c-2.58,0-4.16,1.3-4.16,3.11c0,1.88,1.17,2.6,3.4,2.95l1.36,0.21
			c0.64,0.1,0.84,0.35,0.84,0.7C491.71,21.45,491.32,21.72,490.58,21.72z"/>
		<rect x="497.64" y="20.01" width="3.55" height="3.55"/>
		<path d="M509.1,23.8c2.99,0,5.03-1.98,5.03-4.84c0-2.84-2.04-4.84-5.03-4.84c-3.01,0-5.03,2-5.03,4.84
			C504.07,21.82,506.09,23.8,509.1,23.8z M509.1,16.63c1.15,0,1.67,0.95,1.67,2.33c0,1.38-0.52,2.33-1.67,2.33
			c-1.17,0-1.67-0.95-1.67-2.33C507.43,17.58,507.93,16.63,509.1,16.63z"/>
		<path d="M518.79,19.35c0-1.55,0.76-2.12,2-2.12c0.64,0,1.13,0.12,1.59,0.39l0.21-3.15c-0.23-0.19-0.72-0.35-1.28-0.35
			c-1.22,0-2.19,0.85-2.52,1.88v-1.63h-3.34v9.19h3.34V19.35z"/>
		<path d="M522.6,24.85c0,1.73,2.27,2.25,4.89,2.25c2.99,0,5.77-1.05,5.77-3.34c0-1.55-1.05-2.64-3.13-2.64h-3.81
			c-0.56,0-0.78-0.25-0.78-0.56c0-0.19,0.06-0.33,0.19-0.43c0.6,0.19,1.26,0.27,2,0.27c2.6,0,4.47-1.2,4.47-3.13
			c0-0.43-0.1-0.82-0.29-1.17c0.45-0.1,0.95-0.14,1.34-0.14v-2.51c-1.01,0-2.02,0.66-2.58,1.42c-0.78-0.47-1.83-0.74-2.95-0.74
			c-2.58,0-4.43,1.2-4.43,3.15c0,1.01,0.5,1.79,1.32,2.33c-0.99,0.37-1.57,1.05-1.57,1.94c0,0.78,0.49,1.53,1.32,1.79
			C523.33,23.41,522.6,24.05,522.6,24.85z M527.76,15.95c0.56,0,0.97,0.52,0.97,1.32c0,0.82-0.41,1.34-0.97,1.34
			s-0.97-0.52-0.97-1.34C526.79,16.46,527.2,15.95,527.76,15.95z M525.96,23.97h3.38c0.56,0,0.84,0.14,0.84,0.54
			c0,0.56-1.13,0.87-2.68,0.87c-1.24,0-2.16-0.19-2.16-0.84C525.35,24.17,525.59,23.97,525.96,23.97z"/>
		<path d="M311.03,589.49l0.43-2.06h-1.83l0.82-3.42h-2.49l-0.82,3.42h-1.77l0.83-3.42h-2.49l-0.83,3.42h-2.02l-0.43,2.06h1.98
			l-0.5,2.02h-1.88l-0.43,2.06h1.81l-0.8,3.42h2.49l0.8-3.42h1.77l-0.8,3.42h2.49l0.8-3.42h2.04l0.43-2.06h-1.98l0.5-2.02H311.03z
			 M306.17,591.51h-1.77l0.5-2.02h1.77L306.17,591.51z"/>
		<path d="M320.73,586.87c2.02,0,2.8,1.34,3.01,2.78l3.36-0.12c-0.25-3.24-2.37-5.77-6.35-5.77c-3.79,0-6.66,2.74-6.66,6.74
			c0,4,2.87,6.74,6.66,6.74c3.98,0,6.1-2.52,6.35-5.75l-3.36-0.14c-0.21,1.44-0.99,2.78-3.01,2.78c-1.92,0-3.03-1.42-3.03-3.63
			C317.7,588.29,318.81,586.87,320.73,586.87z"/>
		<path d="M331.11,591.82c-2,0.35-3.28,1.11-3.28,2.89c0,1.57,1.17,2.49,2.97,2.49c1.46,0,2.51-0.56,3.05-1.63
			c0.31,1.05,1.2,1.63,2.33,1.63c0.95,0,1.61-0.27,2.08-0.6v-1.77c-0.27,0.1-0.47,0.14-0.74,0.14c-0.35,0-0.56-0.21-0.56-0.68v-3.13
			c0-2.56-1.79-3.61-4.23-3.61c-2.76,0-4.27,1.4-4.56,3.42l3.09,0.21c0.14-0.68,0.51-1.15,1.26-1.15c0.8,0,1.15,0.45,1.15,1.22v0.14
			L331.11,591.82z M333.69,593.16c0,1.2-0.76,1.9-1.71,1.9c-0.56,0-0.93-0.31-0.93-0.78c0-0.6,0.47-0.85,1.28-1.01l1.36-0.25V593.16
			z"/>
		<path d="M339.23,587.8v12.49h3.34v-4.87c0.45,1.07,1.48,1.81,3.03,1.81c2.7,0,4.08-2.12,4.08-4.84c0-2.7-1.38-4.84-4.08-4.84
			c-1.55,0-2.58,0.74-3.03,1.83v-1.59H339.23z M344.43,590.15c1.3,0,1.9,0.93,1.9,2.25c0,1.34-0.6,2.27-1.9,2.27
			c-1.13,0-1.86-0.87-1.86-2.21v-0.12C342.57,591.02,343.29,590.15,344.43,590.15z"/>
		<rect x="350.98" y="584.01" width="3.38" height="2.93"/>
		<rect x="351" y="587.8" width="3.34" height="9.19"/>
		<path d="M359.49,597.24c1.26,0,2.06-0.31,2.76-0.82v-2.16c-0.56,0.23-1.01,0.31-1.42,0.31c-0.68,0-1.05-0.31-1.05-1.09v-3.36h2.39
			v-2.31h-2.39v-2.54h-2.1l-0.31,1.2c-0.23,0.85-0.51,1.34-1.44,1.48l-0.68,0.1v2.06h1.24v4.33
			C356.48,596.6,357.95,597.24,359.49,597.24z"/>
		<path d="M366.27,591.82c-2,0.35-3.28,1.11-3.28,2.89c0,1.57,1.18,2.49,2.97,2.49c1.46,0,2.51-0.56,3.05-1.63
			c0.31,1.05,1.2,1.63,2.33,1.63c0.95,0,1.61-0.27,2.08-0.6v-1.77c-0.27,0.1-0.47,0.14-0.74,0.14c-0.35,0-0.56-0.21-0.56-0.68v-3.13
			c0-2.56-1.79-3.61-4.23-3.61c-2.76,0-4.27,1.4-4.56,3.42l3.09,0.21c0.14-0.68,0.51-1.15,1.26-1.15c0.8,0,1.15,0.45,1.15,1.22v0.14
			L366.27,591.82z M368.85,593.16c0,1.2-0.76,1.9-1.71,1.9c-0.56,0-0.93-0.31-0.93-0.78c0-0.6,0.47-0.85,1.28-1.01l1.36-0.25V593.16
			z"/>
		<rect x="374.39" y="584.01" width="3.34" height="12.99"/>
		<rect x="379.53" y="584.01" width="3.38" height="2.93"/>
		<rect x="379.55" y="587.8" width="3.34" height="9.19"/>
		<path d="M388.7,595.16c-1.01,0-1.63-0.43-1.75-1.2l-2.91,0.04c0.19,2.23,2.08,3.24,4.62,3.24c2.62,0,4.27-1.11,4.27-3.05
			c0-1.79-1.2-2.72-3.26-3.05l-1.79-0.31c-0.31-0.04-0.56-0.21-0.56-0.52c0-0.41,0.37-0.66,1.01-0.66c1.03,0,1.61,0.41,1.73,1.07
			l2.74-0.08c-0.19-1.92-1.75-3.09-4.41-3.09c-2.58,0-4.16,1.3-4.16,3.11c0,1.88,1.18,2.6,3.4,2.95l1.36,0.21
			c0.64,0.1,0.85,0.35,0.85,0.7C389.83,594.89,389.44,595.16,388.7,595.16z"/>
		<path d="M409.68,596.99v-5.77c0-1.92-0.74-3.67-3.28-3.67c-1.55,0-2.64,0.78-3.13,1.81c-0.39-1.07-1.24-1.81-2.87-1.81
			c-1.38,0-2.37,0.62-2.87,1.63v-1.38h-3.34v9.19h3.34v-4.51c0-1.38,0.39-2.29,1.48-2.29c1.01,0,1.26,0.66,1.26,1.92v4.89h3.34
			v-4.51c0-1.38,0.37-2.29,1.48-2.29c1.01,0,1.24,0.66,1.24,1.92v4.89H409.68z"/>
		<rect x="413.27" y="584.01" width="3.5" height="12.99"/>
		<path d="M422.67,595.16c-1.01,0-1.63-0.43-1.75-1.2l-2.91,0.04c0.19,2.23,2.08,3.24,4.62,3.24c2.62,0,4.27-1.11,4.27-3.05
			c0-1.79-1.2-2.72-3.26-3.05l-1.79-0.31c-0.31-0.04-0.56-0.21-0.56-0.52c0-0.41,0.37-0.66,1.01-0.66c1.03,0,1.61,0.41,1.73,1.07
			l2.74-0.08c-0.19-1.92-1.75-3.09-4.41-3.09c-2.58,0-4.16,1.3-4.16,3.11c0,1.88,1.18,2.6,3.4,2.95l1.36,0.21
			c0.64,0.1,0.85,0.35,0.85,0.7C423.8,594.89,423.41,595.16,422.67,595.16z"/>
		<path d="M429.07,596.99h3.52l0.97-2.51h5.07l0.97,2.51h3.73l-5.17-12.99h-3.92L429.07,596.99z M436.05,588.03h0.08l1.48,3.83
			h-3.05L436.05,588.03z"/>
		<polygon points="452.01,592.64 448.8,584.01 445.13,584.01 450.12,596.99 453.81,596.99 458.8,584.01 455.31,584.01 452.1,592.64 
					"/>
		<rect x="459.7" y="587.8" width="3.34" height="9.19"/>
		<rect x="459.68" y="584.01" width="3.38" height="2.93"/>
		<path d="M464.85,587.8v9.19h3.34v-4.21c0-1.55,0.76-2.12,2-2.12c0.64,0,1.13,0.12,1.59,0.39l0.21-3.15
			c-0.23-0.19-0.72-0.35-1.28-0.35c-1.22,0-2.19,0.85-2.52,1.88v-1.63H464.85z"/>
		<path d="M482.41,596.99v-9.19h-3.34v4.51c0,1.4-0.41,2.31-1.46,2.31c-1.01,0-1.36-0.68-1.36-1.92v-4.91h-3.34v5.79
			c0,1.92,0.76,3.65,3.28,3.65c1.38,0,2.39-0.6,2.89-1.63v1.38H482.41z"/>
		<path d="M488.22,595.16c-1.01,0-1.63-0.43-1.75-1.2l-2.91,0.04c0.19,2.23,2.08,3.24,4.62,3.24c2.62,0,4.27-1.11,4.27-3.05
			c0-1.79-1.2-2.72-3.26-3.05l-1.79-0.31c-0.31-0.04-0.56-0.21-0.56-0.52c0-0.41,0.37-0.66,1.01-0.66c1.03,0,1.61,0.41,1.73,1.07
			l2.74-0.08c-0.19-1.92-1.75-3.09-4.41-3.09c-2.58,0-4.16,1.3-4.16,3.11c0,1.88,1.17,2.6,3.4,2.95l1.36,0.21
			c0.64,0.1,0.85,0.35,0.85,0.7C489.36,594.89,488.97,595.16,488.22,595.16z"/>
	</g>
</g>
</svg>
