<?xml version="1.0" encoding="utf-8"?>
<!-- Generator: Adobe Illustrator 23.1.1, SVG Export Plug-In . SVG Version: 6.00 Build 0)  -->
<svg version="1.1" xmlns="http://www.w3.org/2000/svg" xmlns:xlink="http://www.w3.org/1999/xlink" x="0px" y="0px"
	 viewBox="0 0 792 612" style="enable-background:new 0 0 792 612;" xml:space="preserve">
<style type="text/css">
	.st0{display:none;}
	.st1{display:inline;fill:#FFFFFF;}
	.st2{display:inline;}
	.st3{fill:#FFFFFF;stroke:#000000;stroke-width:16;stroke-linecap:round;stroke-linejoin:round;stroke-miterlimit:10;}
	.st4{fill:none;stroke:#000000;stroke-width:24;stroke-linejoin:round;stroke-miterlimit:10;}
	.st5{fill:#FFFFFF;}
	.st6{fill:#FFFFFF;stroke:#000000;stroke-width:17;stroke-linecap:round;stroke-miterlimit:10;}
	.st7{fill:#FFFFFF;stroke:#000000;stroke-width:17;stroke-miterlimit:10;}
	.st8{stroke:#000000;stroke-width:16.0572;stroke-linecap:round;stroke-miterlimit:10;}
	.st9{fill:#FFFFFF;stroke:#000000;stroke-width:13.497;stroke-linecap:round;stroke-linejoin:round;stroke-miterlimit:10;}
	.st10{stroke:#000000;stroke-width:18.3348;stroke-linecap:round;stroke-miterlimit:10;}
	.st11{fill:none;stroke:#000000;stroke-width:13.497;stroke-linecap:round;stroke-linejoin:round;stroke-miterlimit:10;}
	.st12{fill:#FFFFFF;stroke:#000000;stroke-width:14.6942;stroke-linecap:round;stroke-linejoin:round;stroke-miterlimit:10;}
	.st13{fill:none;stroke:#000000;stroke-width:13;stroke-linecap:round;stroke-linejoin:round;stroke-miterlimit:10;}
	.st14{fill:none;stroke:#000000;stroke-width:13;stroke-linejoin:round;stroke-miterlimit:10;}
	.st15{fill:url(#);stroke:#000000;stroke-width:13;stroke-linejoin:round;stroke-miterlimit:10;}
	.st16{font-family:'FoundersGrotesk-Bold';}
	.st17{font-size:186.7941px;}
	.st18{font-size:140px;}
	.st19{font-size:261.0719px;}
	.st20{fill:none;stroke:#000000;stroke-width:30.5612;stroke-linecap:round;stroke-linejoin:round;stroke-miterlimit:10;}
	.st21{fill:#FFFFFF;stroke:#000000;stroke-width:16.2993;stroke-linecap:round;stroke-linejoin:round;stroke-miterlimit:10;}
	.st22{font-size:20.6105px;}
	.st23{font-size:10.3052px;}
	.st24{font-size:19.2364px;}
	.st25{font-size:10px;}
	.st26{fill:#FFFFFF;stroke:#000000;stroke-width:13.497;stroke-linecap:round;stroke-miterlimit:10;}
	.st27{fill:url(#);stroke:#000000;stroke-width:13.497;stroke-linecap:round;stroke-linejoin:round;stroke-miterlimit:10;}
	.st28{fill:#FFFFFF;stroke:#000000;stroke-width:11.7326;stroke-linecap:round;stroke-linejoin:round;stroke-miterlimit:10;}
	.st29{fill:#FFFFFF;stroke:#000000;stroke-width:13.2623;stroke-linecap:round;stroke-linejoin:round;stroke-miterlimit:10;}
	.st30{fill:#FFFFFF;stroke:#000000;stroke-width:13.2623;stroke-linecap:round;stroke-miterlimit:10;}
	.st31{stroke:#000000;stroke-width:4.5213;stroke-miterlimit:10;}
	.st32{fill:none;stroke:#000000;stroke-width:16;stroke-linecap:round;stroke-miterlimit:10;}
	.st33{fill:url(#);stroke:#000000;stroke-width:16;stroke-linecap:round;stroke-linejoin:round;stroke-miterlimit:10;}
	.st34{fill:#FFFFFF;stroke:#000000;stroke-width:16;stroke-linecap:round;stroke-miterlimit:10;}
	.st35{fill:none;stroke:#000000;stroke-width:16;stroke-linecap:round;stroke-linejoin:round;stroke-miterlimit:10;}
	.st36{fill:none;stroke:#000000;stroke-width:15.2344;stroke-linecap:round;stroke-linejoin:round;stroke-miterlimit:10;}
	.st37{fill:#FFFFFF;stroke:#000000;stroke-width:15.2344;stroke-linecap:round;stroke-linejoin:round;stroke-miterlimit:10;}
	.st38{fill:#FFFFFF;stroke:#000000;stroke-width:17;stroke-linecap:round;stroke-linejoin:round;stroke-miterlimit:10;}
	.st39{fill:none;stroke:#000000;stroke-width:9.9764;stroke-linecap:round;stroke-linejoin:round;stroke-miterlimit:10;}
	.st40{fill:none;stroke:#000000;stroke-width:9.3127;stroke-linejoin:round;stroke-miterlimit:10;}
	.st41{fill:url(#);}
	.st42{fill:none;stroke:#000000;stroke-width:8.3796;stroke-linecap:round;stroke-linejoin:round;stroke-miterlimit:10;}
	
		.st43{display:inline;fill:none;stroke:#000000;stroke-width:9.9764;stroke-linecap:round;stroke-linejoin:round;stroke-miterlimit:10;}
	.st44{display:inline;fill:none;stroke:#000000;stroke-width:9.3127;stroke-linejoin:round;stroke-miterlimit:10;}
	.st45{display:inline;fill:url(#);stroke:#000000;stroke-width:10;stroke-linejoin:round;stroke-miterlimit:10;}
	.st46{fill:#FFFFFF;stroke:#000000;stroke-width:14.7375;stroke-linecap:round;stroke-linejoin:round;stroke-miterlimit:10;}
	.st47{fill:none;stroke:#000000;stroke-width:14.7375;stroke-linecap:round;stroke-linejoin:round;stroke-miterlimit:10;}
	.st48{stroke:#000000;stroke-width:14.7375;stroke-linecap:round;stroke-linejoin:round;stroke-miterlimit:10;}
	.st49{fill:#FFFFFF;stroke:#000000;stroke-width:14.2911;stroke-linecap:round;stroke-linejoin:round;stroke-miterlimit:10;}
	.st50{fill:none;stroke:#000000;stroke-width:15;stroke-linecap:round;stroke-linejoin:round;stroke-miterlimit:10;}
	.st51{fill:#FFFFFF;stroke:#000000;stroke-width:15;stroke-linecap:round;stroke-linejoin:round;stroke-miterlimit:10;}
	.st52{fill:#FFFFFF;stroke:#000000;stroke-width:14.8467;stroke-linecap:round;stroke-linejoin:round;stroke-miterlimit:10;}
	.st53{stroke:#000000;stroke-width:20.1683;stroke-linecap:round;stroke-miterlimit:10;}
	.st54{fill:none;stroke:#000000;stroke-width:14.8467;stroke-linecap:round;stroke-linejoin:round;stroke-miterlimit:10;}
	.st55{fill:none;stroke:#000000;stroke-width:13.497;stroke-miterlimit:10;}
	.st56{fill:#FFFFFF;stroke:#000000;stroke-width:13.497;stroke-miterlimit:10;}
	.st57{fill:#FFFFFF;stroke:#000000;stroke-width:14.7439;stroke-linecap:round;stroke-miterlimit:10;}
	.st58{fill:#FFFFFF;stroke:#000000;stroke-width:14.7439;stroke-miterlimit:10;}
	.st59{stroke:#000000;stroke-width:13.9262;stroke-linecap:round;stroke-miterlimit:10;}
	.st60{fill:#FFFFFF;stroke:#000000;stroke-width:17.1072;stroke-linecap:round;stroke-linejoin:round;stroke-miterlimit:10;}
	.st61{stroke:#000000;stroke-width:17.1072;stroke-linecap:round;stroke-linejoin:round;stroke-miterlimit:10;}
	.st62{fill:#FFFFFF;stroke:#000000;stroke-width:15;stroke-linecap:square;stroke-linejoin:round;stroke-miterlimit:10;}
	.st63{fill:#FFFFFF;stroke:#000000;stroke-width:15;stroke-linejoin:round;stroke-miterlimit:10;}
	.st64{fill:#FFFFFF;stroke:#000000;stroke-width:14;stroke-linecap:round;stroke-linejoin:round;stroke-miterlimit:10;}
	.st65{fill:#FFFFFF;stroke:#000000;stroke-width:13;stroke-linecap:round;stroke-linejoin:round;stroke-miterlimit:10;}
	.st66{fill:#FFFFFF;stroke:#000000;stroke-width:15.2362;stroke-linecap:round;stroke-linejoin:round;stroke-miterlimit:10;}
	.st67{fill:#FFFFFF;stroke:#FFFFFF;stroke-width:3;stroke-miterlimit:10;}
	.st68{fill:#FFFFFF;stroke:#000000;stroke-width:13.3058;stroke-linecap:round;stroke-linejoin:round;stroke-miterlimit:10;}
	.st69{fill:#FFFFFF;stroke:#000000;stroke-width:15.2517;stroke-linecap:round;stroke-linejoin:round;stroke-miterlimit:10;}
	.st70{stroke:#000000;stroke-width:3;stroke-miterlimit:10;}
</style>
<g id="unexpanded" class="st0">
	<rect x="-6264.75" y="-343.56" class="st1" width="14663.41" height="9108.82"/>
	<g class="st2">
		<rect x="0.14" class="st5" width="792" height="1224"/>
		<g>
			<text transform="matrix(1 0 0 1 15.5996 180.7139)" class="st16 st17">Medicare</text>
			<g>
				<text transform="matrix(1 0 0 1 212.5317 321.8257)" class="st16 st18">for All</text>
			</g>
			<g>
				<text transform="matrix(1 0 0 1 101.3838 540.7466)" class="st16 st19">NOW</text>
			</g>
		</g>
		<g>
			<g>
				<text transform="matrix(1 0 0 1 258.9679 23.5542)"><tspan x="0" y="0" class="st16 st22">www</tspan><tspan x="45.14" y="0" class="st16 st23"> </tspan><tspan x="46.99" y="0" class="st16 st22">.</tspan><tspan x="51.77" y="0" class="st16 st23"> </tspan><tspan x="53.63" y="0" class="st16 st22">Capitalism</tspan><tspan x="150.43" y="0" class="st16 st24"> </tspan><tspan x="153.9" y="0" class="st16 st22">Is</tspan><tspan x="168.88" y="0" class="st16 st24"> </tspan><tspan x="172.34" y="0" class="st16 st22">A</tspan><tspan x="186.6" y="0" class="st16 st23"> </tspan><tspan x="188.46" y="0" class="st16 st22">Virus</tspan><tspan x="236.15" y="0" class="st16 st23"> </tspan><tspan x="238.01" y="0" class="st16 st22">.</tspan><tspan x="242.79" y="0" class="st16 st23"> </tspan><tspan x="244.64" y="0" class="st16 st22">org</tspan></text>
			</g>
			<g>
				<text transform="matrix(1 0 0 1 299.1802 596.9933)"><tspan x="0" y="0" class="st16 st22">#</tspan><tspan x="12.7" y="0" class="st16 st25"> </tspan><tspan x="14.5" y="0" class="st16 st22">Capitalism</tspan><tspan x="111.3" y="0" class="st16 st25"> </tspan><tspan x="113.1" y="0" class="st16 st22">Is</tspan><tspan x="128.09" y="0" class="st16 st25"> </tspan><tspan x="129.89" y="0" class="st16 st22">A</tspan><tspan x="144.15" y="0" class="st16 st25"> </tspan><tspan x="145.95" y="0" class="st16 st22">Virus</tspan></text>
			</g>
		</g>
	</g>
</g>
<g id="exp_trnsp_bg">
	<polygon points="53.99,97.96 54.73,97.96 75.84,180.71 102.93,180.71 124.04,97.96 124.78,97.96 124.78,180.71 156.54,180.71 
		156.54,63.03 108.53,63.03 91.91,137 91.35,137 73.97,63.03 24.85,63.03 24.85,180.71 53.99,180.71 	"/>
	<path d="M215,182.96c22.04,0,37.36-10.65,41.66-29.7l-24.28-2.24c-2.8,6.54-8.03,9.34-16.25,9.34c-9.15,0-16.62-4.86-17.37-15.13
		h58.47v-8.41c0-22.6-14.76-41.66-42.59-41.66c-25.96,0-45.39,18.87-45.39,45.21C169.24,166.89,188.29,182.96,215,182.96z
		 M214.26,116.83c8.97,0,13.82,6.35,14.2,13.82h-29.33C200.25,122.81,204.54,116.83,214.26,116.83z"/>
	<path d="M330.25,111.79c-3.92-9.9-13.45-16.62-27.27-16.62c-24.66,0-36.99,19.43-36.99,43.9c0,24.66,12.33,43.9,36.99,43.9
		c13.82,0,23.35-6.72,27.27-16.44v14.2h30.26V63.03h-30.26V111.79z M330.25,139.62c0,12.14-6.54,19.99-16.62,19.99
		c-11.96,0-17.19-8.41-17.19-20.55c0-11.96,5.23-20.36,17.19-20.36c10.09,0,16.62,7.85,16.62,19.8V139.62z"/>
	<rect x="376.76" y="63.03" width="30.63" height="26.52"/>
	<rect x="376.95" y="97.4" width="30.26" height="83.31"/>
	<path d="M464.74,182.96c25.03,0,39.04-16.06,41.1-36.24l-24.84-1.87c-2.05,10.27-7.1,15.32-15.88,15.32
		c-9.15,0-15.5-6.16-15.5-21.11s6.35-21.11,15.5-21.11c8.78,0,13.82,4.86,15.88,15.13l24.84-1.68
		c-2.05-19.99-16.06-36.24-41.1-36.24c-26.34,0-45.58,17.56-45.58,43.9C419.16,165.58,438.4,182.96,464.74,182.96z"/>
	<path d="M515.73,126.17l28.02,1.87c1.31-6.16,4.67-10.46,11.39-10.46c7.29,0,10.46,4.11,10.46,11.02v1.31l-23.35,3.92
		c-18.12,3.18-29.7,10.09-29.7,26.15c0,14.2,10.65,22.6,26.9,22.6c13.26,0,22.79-5.04,27.65-14.76c2.8,9.53,10.83,14.76,21.11,14.76
		c8.59,0,14.57-2.43,18.87-5.42V161.1c-2.43,0.93-4.3,1.31-6.72,1.31c-3.18,0-5.04-1.87-5.04-6.16v-28.39
		c0-23.16-16.25-32.69-38.29-32.69C531.99,95.16,518.35,107.86,515.73,126.17z M565.61,145.97c0,10.83-6.91,17.19-15.5,17.19
		c-5.04,0-8.41-2.8-8.41-7.1c0-5.42,4.3-7.66,11.58-9.15l12.33-2.24V145.97z"/>
	<path d="M646.12,142.61c0-14.01,6.91-19.24,18.12-19.24c5.79,0,10.27,1.12,14.38,3.55l1.87-28.58c-2.05-1.68-6.54-3.18-11.58-3.18
		c-11.02,0-19.8,7.66-22.79,17V97.4h-30.26v83.31h30.26V142.61z"/>
	<path d="M729.61,182.96c22.04,0,37.36-10.65,41.66-29.7l-24.28-2.24c-2.8,6.54-8.03,9.34-16.25,9.34
		c-9.15,0-16.62-4.86-17.37-15.13h58.47v-8.41c0-22.6-14.76-41.66-42.59-41.66c-25.96,0-45.39,18.87-45.39,45.21
		C683.85,166.89,702.9,182.96,729.61,182.96z M728.87,116.83c8.97,0,13.82,6.35,14.2,13.82h-29.33
		C714.86,122.81,719.15,116.83,728.87,116.83z"/>
	<path d="M248.79,248.19c2.94,0,4.62,1.54,6.02,4.34l13.86-4.34c-2.52-10.36-10.64-16.24-22.4-16.24
		c-14.98,0-25.06,8.54-25.06,24.78v2.66h-8.96v15.68h8.96v46.76h22.4v-46.76h15.82v-15.68h-15.82v-4.2
		C243.61,251.27,245.01,248.19,248.79,248.19z"/>
	<path d="M295.27,323.51c20.3,0,34.16-13.44,34.16-32.9c0-19.32-13.86-32.9-34.16-32.9c-20.44,0-34.16,13.58-34.16,32.9
		C261.11,310.07,274.83,323.51,295.27,323.51z M295.27,274.79c7.84,0,11.34,6.44,11.34,15.82s-3.5,15.82-11.34,15.82
		c-7.98,0-11.34-6.44-11.34-15.82S287.29,274.79,295.27,274.79z"/>
	<path d="M338.39,259.39v62.44h22.68v-28.56c0-10.5,5.18-14.42,13.58-14.42c4.34,0,7.7,0.84,10.78,2.66l1.4-21.42
		c-1.54-1.26-4.9-2.38-8.68-2.38c-8.26,0-14.84,5.74-17.08,12.74v-11.06H338.39z"/>
	<path d="M443.39,304.75h34.44l6.58,17.08h25.34l-35.14-88.2h-26.6l-35.14,88.2h23.94L443.39,304.75z M460.33,260.93h0.56
		l10.08,26.04h-20.72L460.33,260.93z"/>
	<rect x="515.91" y="233.63" width="22.68" height="88.2"/>
	<rect x="550.91" y="233.63" width="22.68" height="88.2"/>
	<polygon points="115.22,540.75 155.95,540.75 155.95,443.36 226.96,540.75 262.47,540.75 262.47,376.27 221.74,376.27 
		221.74,467.38 157.51,376.27 115.22,376.27 	"/>
	<path d="M365.59,373.13c-47.78,0-85.37,34.72-85.37,85.37c0,50.65,37.6,85.37,85.37,85.37c47.78,0,85.37-34.72,85.37-85.37
		C450.96,407.86,413.36,373.13,365.59,373.13z M365.59,504.72c-24.28,0-39.68-18.28-39.68-46.21c0-27.94,15.4-46.21,39.68-46.21
		c24.28,0,39.68,18.28,39.68,46.21C405.27,486.44,389.87,504.72,365.59,504.72z"/>
	<polygon points="453.56,376.27 496.64,540.75 543.11,540.75 570.53,436.84 571.57,436.84 598.98,540.75 646.24,540.75 
		689.32,376.27 646.5,376.27 620.39,479.39 619.35,479.39 592.2,376.27 552.25,376.27 525.1,479.39 524.05,479.39 497.95,376.27 	
		"/>
	<polygon points="265.16,23.55 266.5,18.36 266.58,18.36 267.92,23.55 271.2,23.55 274.07,14.5 276.93,23.55 280.21,23.55 
		281.55,18.36 281.63,18.36 282.97,23.55 286.25,23.55 289.11,14.5 291.98,23.55 295.25,23.55 296.59,18.36 296.68,18.36 
		298.02,23.55 301.29,23.55 304.2,14.36 301.19,14.36 299.54,19.58 299.46,19.58 298.12,14.36 295.46,14.36 294.12,19.58 
		294.04,19.58 292.39,14.36 289.15,14.36 289.07,14.36 286.15,14.36 284.5,19.58 284.41,19.58 283.07,14.36 280.41,14.36 
		279.07,19.58 278.99,19.58 277.34,14.36 274.11,14.36 274.02,14.36 271.1,14.36 269.45,19.58 269.37,19.58 268.03,14.36 
		265.37,14.36 264.03,19.58 263.95,19.58 262.3,14.36 258.98,14.36 261.88,23.55 	"/>
	<rect x="306.63" y="20.01" width="3.55" height="3.55"/>
	<path d="M319.72,23.8c3.98,0,6.1-2.52,6.35-5.75l-3.36-0.14c-0.21,1.44-0.99,2.78-3.01,2.78c-1.92,0-3.03-1.42-3.03-3.63
		s1.11-3.63,3.03-3.63c2.02,0,2.8,1.34,3.01,2.78l3.36-0.12c-0.25-3.24-2.37-5.77-6.35-5.77c-3.79,0-6.66,2.74-6.66,6.74
		S315.92,23.8,319.72,23.8z"/>
	<path d="M330.08,18.38c-2,0.35-3.28,1.11-3.28,2.89c0,1.57,1.17,2.49,2.97,2.49c1.46,0,2.52-0.56,3.05-1.63
		c0.31,1.05,1.2,1.63,2.33,1.63c0.95,0,1.61-0.27,2.08-0.6v-1.77c-0.27,0.1-0.47,0.14-0.74,0.14c-0.35,0-0.56-0.21-0.56-0.68v-3.13
		c0-2.56-1.79-3.61-4.23-3.61c-2.76,0-4.27,1.4-4.56,3.42l3.09,0.21c0.14-0.68,0.52-1.15,1.26-1.15c0.8,0,1.15,0.45,1.15,1.22v0.14
		L330.08,18.38z M332.66,19.72c0,1.2-0.76,1.9-1.71,1.9c-0.56,0-0.93-0.31-0.93-0.78c0-0.6,0.47-0.85,1.28-1.01l1.36-0.25V19.72z"/>
	<path d="M341.54,21.99c0.45,1.07,1.48,1.81,3.03,1.81c2.7,0,4.08-2.12,4.08-4.84c0-2.7-1.38-4.84-4.08-4.84
		c-1.55,0-2.58,0.74-3.03,1.83v-1.59h-3.34v12.49h3.34V21.99z M341.54,18.9c0-1.32,0.72-2.19,1.86-2.19c1.3,0,1.9,0.93,1.9,2.25
		c0,1.34-0.6,2.27-1.9,2.27c-1.13,0-1.86-0.87-1.86-2.21V18.9z"/>
	<rect x="349.95" y="10.57" width="3.38" height="2.93"/>
	<rect x="349.97" y="14.36" width="3.34" height="9.19"/>
	<path d="M355.46,21c0,2.16,1.46,2.8,3.01,2.8c1.26,0,2.06-0.31,2.76-0.82v-2.16c-0.56,0.23-1.01,0.31-1.42,0.31
		c-0.68,0-1.05-0.31-1.05-1.09v-3.36h2.39v-2.31h-2.39v-2.54h-2.1l-0.31,1.2c-0.23,0.85-0.52,1.34-1.44,1.48l-0.68,0.1v2.06h1.24V21
		z"/>
	<path d="M365.25,18.38c-2,0.35-3.28,1.11-3.28,2.89c0,1.57,1.17,2.49,2.97,2.49c1.46,0,2.52-0.56,3.05-1.63
		c0.31,1.05,1.2,1.63,2.33,1.63c0.95,0,1.61-0.27,2.08-0.6v-1.77c-0.27,0.1-0.47,0.14-0.74,0.14c-0.35,0-0.56-0.21-0.56-0.68v-3.13
		c0-2.56-1.79-3.61-4.23-3.61c-2.76,0-4.27,1.4-4.56,3.42l3.09,0.21c0.14-0.68,0.52-1.15,1.26-1.15c0.8,0,1.15,0.45,1.15,1.22v0.14
		L365.25,18.38z M367.82,19.72c0,1.2-0.76,1.9-1.71,1.9c-0.56,0-0.93-0.31-0.93-0.78c0-0.6,0.47-0.85,1.28-1.01l1.36-0.25V19.72z"/>
	<rect x="373.37" y="10.57" width="3.34" height="12.99"/>
	<rect x="378.52" y="14.36" width="3.34" height="9.19"/>
	<rect x="378.5" y="10.57" width="3.38" height="2.93"/>
	<path d="M387.67,21.72c-1.01,0-1.63-0.43-1.75-1.2l-2.91,0.04c0.19,2.23,2.08,3.24,4.62,3.24c2.62,0,4.27-1.11,4.27-3.05
		c0-1.79-1.2-2.72-3.26-3.05l-1.79-0.31c-0.31-0.04-0.56-0.21-0.56-0.52c0-0.41,0.37-0.66,1.01-0.66c1.03,0,1.61,0.41,1.73,1.07
		l2.74-0.08c-0.19-1.92-1.75-3.09-4.41-3.09c-2.58,0-4.16,1.3-4.16,3.11c0,1.88,1.17,2.6,3.4,2.95l1.36,0.21
		c0.64,0.1,0.85,0.35,0.85,0.7C388.8,21.45,388.41,21.72,387.67,21.72z"/>
	<path d="M396.51,19.04c0-1.38,0.39-2.29,1.48-2.29c1.01,0,1.26,0.66,1.26,1.92v4.89h3.34v-4.51c0-1.38,0.37-2.29,1.48-2.29
		c1.01,0,1.24,0.66,1.24,1.92v4.89h3.34v-5.77c0-1.92-0.74-3.67-3.28-3.67c-1.55,0-2.64,0.78-3.13,1.81
		c-0.39-1.07-1.24-1.81-2.87-1.81c-1.38,0-2.37,0.62-2.87,1.63v-1.38h-3.34v9.19h3.34V19.04z"/>
	<rect x="413.91" y="10.57" width="3.5" height="12.99"/>
	<path d="M423.3,21.72c-1.01,0-1.63-0.43-1.75-1.2l-2.91,0.04c0.19,2.23,2.08,3.24,4.62,3.24c2.62,0,4.27-1.11,4.27-3.05
		c0-1.79-1.2-2.72-3.26-3.05l-1.79-0.31c-0.31-0.04-0.56-0.21-0.56-0.52c0-0.41,0.37-0.66,1.01-0.66c1.03,0,1.61,0.41,1.73,1.07
		l2.74-0.08c-0.19-1.92-1.75-3.09-4.41-3.09c-2.58,0-4.16,1.3-4.16,3.11c0,1.88,1.18,2.6,3.4,2.95l1.36,0.21
		c0.64,0.1,0.85,0.35,0.85,0.7C424.44,21.45,424.05,21.72,423.3,21.72z"/>
	<path d="M435.86,21.04h5.07l0.97,2.52h3.73l-5.17-12.99h-3.92l-5.17,12.99h3.52L435.86,21.04z M438.35,14.59h0.08l1.48,3.83h-3.05
		L438.35,14.59z"/>
	<polygon points="456.16,23.55 461.15,10.57 457.66,10.57 454.45,19.2 454.36,19.2 451.15,10.57 447.48,10.57 452.47,23.55 	"/>
	<rect x="462.05" y="14.36" width="3.34" height="9.19"/>
	<rect x="462.03" y="10.57" width="3.38" height="2.93"/>
	<path d="M470.54,19.35c0-1.55,0.76-2.12,2-2.12c0.64,0,1.13,0.12,1.59,0.39l0.21-3.15c-0.23-0.19-0.72-0.35-1.28-0.35
		c-1.22,0-2.19,0.85-2.52,1.88v-1.63h-3.34v9.19h3.34V19.35z"/>
	<path d="M478.54,23.8c1.38,0,2.39-0.6,2.89-1.63v1.38h3.34v-9.19h-3.34v4.51c0,1.4-0.41,2.31-1.46,2.31
		c-1.01,0-1.36-0.68-1.36-1.92v-4.91h-3.34v5.79C475.26,22.07,476.02,23.8,478.54,23.8z"/>
	<path d="M490.58,21.72c-1.01,0-1.63-0.43-1.75-1.2l-2.91,0.04c0.19,2.23,2.08,3.24,4.62,3.24c2.62,0,4.27-1.11,4.27-3.05
		c0-1.79-1.2-2.72-3.26-3.05l-1.79-0.31c-0.31-0.04-0.56-0.21-0.56-0.52c0-0.41,0.37-0.66,1.01-0.66c1.03,0,1.61,0.41,1.73,1.07
		l2.74-0.08c-0.19-1.92-1.75-3.09-4.41-3.09c-2.58,0-4.16,1.3-4.16,3.11c0,1.88,1.18,2.6,3.4,2.95l1.36,0.21
		c0.64,0.1,0.85,0.35,0.85,0.7C491.71,21.45,491.32,21.72,490.58,21.72z"/>
	<rect x="497.64" y="20.01" width="3.55" height="3.55"/>
	<path d="M509.1,23.8c2.99,0,5.03-1.98,5.03-4.84c0-2.84-2.04-4.84-5.03-4.84c-3.01,0-5.03,2-5.03,4.84
		C504.07,21.82,506.09,23.8,509.1,23.8z M509.1,16.63c1.15,0,1.67,0.95,1.67,2.33c0,1.38-0.52,2.33-1.67,2.33
		c-1.17,0-1.67-0.95-1.67-2.33C507.44,17.58,507.93,16.63,509.1,16.63z"/>
	<path d="M518.79,19.35c0-1.55,0.76-2.12,2-2.12c0.64,0,1.13,0.12,1.59,0.39l0.21-3.15c-0.23-0.19-0.72-0.35-1.28-0.35
		c-1.22,0-2.19,0.85-2.52,1.88v-1.63h-3.34v9.19h3.34V19.35z"/>
	<path d="M522.6,24.85c0,1.73,2.27,2.25,4.89,2.25c2.99,0,5.77-1.05,5.77-3.34c0-1.55-1.05-2.64-3.13-2.64h-3.81
		c-0.56,0-0.78-0.25-0.78-0.56c0-0.19,0.06-0.33,0.19-0.43c0.6,0.19,1.26,0.27,2,0.27c2.6,0,4.47-1.2,4.47-3.13
		c0-0.43-0.1-0.82-0.29-1.17c0.45-0.1,0.95-0.14,1.34-0.14v-2.51c-1.01,0-2.02,0.66-2.58,1.42c-0.78-0.47-1.83-0.74-2.95-0.74
		c-2.58,0-4.43,1.2-4.43,3.15c0,1.01,0.49,1.79,1.32,2.33c-0.99,0.37-1.57,1.05-1.57,1.94c0,0.78,0.49,1.53,1.32,1.79
		C523.33,23.41,522.6,24.05,522.6,24.85z M527.76,15.95c0.56,0,0.97,0.52,0.97,1.32c0,0.82-0.41,1.34-0.97,1.34
		c-0.56,0-0.97-0.52-0.97-1.34C526.79,16.46,527.2,15.95,527.76,15.95z M525.96,23.97h3.38c0.56,0,0.85,0.14,0.85,0.54
		c0,0.56-1.13,0.87-2.68,0.87c-1.24,0-2.16-0.19-2.16-0.84C525.35,24.17,525.59,23.97,525.96,23.97z"/>
	<path d="M311.03,589.49l0.43-2.06h-1.83l0.82-3.42h-2.49l-0.82,3.42h-1.77l0.83-3.42h-2.49l-0.82,3.42h-2.02l-0.43,2.06h1.98
		l-0.49,2.02h-1.88l-0.43,2.06h1.81l-0.8,3.42h2.49l0.8-3.42h1.77l-0.8,3.42h2.49l0.8-3.42h2.04l0.43-2.06h-1.98l0.49-2.02H311.03z
		 M306.17,591.51h-1.77l0.5-2.02h1.77L306.17,591.51z"/>
	<path d="M320.73,586.87c2.02,0,2.8,1.34,3.01,2.78l3.36-0.12c-0.25-3.24-2.37-5.77-6.35-5.77c-3.79,0-6.66,2.74-6.66,6.74
		c0,4,2.87,6.74,6.66,6.74c3.98,0,6.1-2.52,6.35-5.75l-3.36-0.14c-0.21,1.44-0.99,2.78-3.01,2.78c-1.92,0-3.03-1.42-3.03-3.63
		C317.7,588.29,318.81,586.87,320.73,586.87z"/>
	<path d="M331.11,591.82c-2,0.35-3.28,1.11-3.28,2.89c0,1.57,1.18,2.49,2.97,2.49c1.46,0,2.52-0.56,3.05-1.63
		c0.31,1.05,1.2,1.63,2.33,1.63c0.95,0,1.61-0.27,2.08-0.6v-1.77c-0.27,0.1-0.47,0.14-0.74,0.14c-0.35,0-0.56-0.21-0.56-0.68v-3.13
		c0-2.56-1.79-3.61-4.23-3.61c-2.76,0-4.27,1.4-4.56,3.42l3.09,0.21c0.14-0.68,0.52-1.15,1.26-1.15c0.8,0,1.15,0.45,1.15,1.22v0.14
		L331.11,591.82z M333.69,593.16c0,1.2-0.76,1.9-1.71,1.9c-0.56,0-0.93-0.31-0.93-0.78c0-0.6,0.47-0.85,1.28-1.01l1.36-0.25V593.16z
		"/>
	<path d="M339.23,587.8v12.49h3.34v-4.87c0.45,1.07,1.48,1.81,3.03,1.81c2.7,0,4.08-2.12,4.08-4.84c0-2.7-1.38-4.84-4.08-4.84
		c-1.55,0-2.58,0.74-3.03,1.83v-1.59H339.23z M344.43,590.15c1.3,0,1.9,0.93,1.9,2.25c0,1.34-0.6,2.27-1.9,2.27
		c-1.13,0-1.86-0.87-1.86-2.21v-0.12C342.57,591.02,343.29,590.15,344.43,590.15z"/>
	<rect x="351" y="587.8" width="3.34" height="9.19"/>
	<rect x="350.98" y="584.01" width="3.38" height="2.93"/>
	<path d="M359.49,597.24c1.26,0,2.06-0.31,2.76-0.82v-2.16c-0.56,0.23-1.01,0.31-1.42,0.31c-0.68,0-1.05-0.31-1.05-1.09v-3.36h2.39
		v-2.31h-2.39v-2.54h-2.1l-0.31,1.2c-0.23,0.85-0.52,1.34-1.44,1.48l-0.68,0.1v2.06h1.24v4.33
		C356.48,596.6,357.95,597.24,359.49,597.24z"/>
	<path d="M366.27,591.82c-2,0.35-3.28,1.11-3.28,2.89c0,1.57,1.18,2.49,2.97,2.49c1.46,0,2.51-0.56,3.05-1.63
		c0.31,1.05,1.2,1.63,2.33,1.63c0.95,0,1.61-0.27,2.08-0.6v-1.77c-0.27,0.1-0.47,0.14-0.74,0.14c-0.35,0-0.56-0.21-0.56-0.68v-3.13
		c0-2.56-1.79-3.61-4.23-3.61c-2.76,0-4.27,1.4-4.56,3.42l3.09,0.21c0.14-0.68,0.52-1.15,1.26-1.15c0.8,0,1.15,0.45,1.15,1.22v0.14
		L366.27,591.82z M368.85,593.16c0,1.2-0.76,1.9-1.71,1.9c-0.56,0-0.93-0.31-0.93-0.78c0-0.6,0.47-0.85,1.28-1.01l1.36-0.25V593.16z
		"/>
	<rect x="374.39" y="584.01" width="3.34" height="12.99"/>
	<rect x="379.55" y="587.8" width="3.34" height="9.19"/>
	<rect x="379.53" y="584.01" width="3.38" height="2.93"/>
	<path d="M388.7,595.16c-1.01,0-1.63-0.43-1.75-1.2l-2.91,0.04c0.19,2.23,2.08,3.24,4.62,3.24c2.62,0,4.27-1.11,4.27-3.05
		c0-1.79-1.2-2.72-3.26-3.05l-1.79-0.31c-0.31-0.04-0.56-0.21-0.56-0.52c0-0.41,0.37-0.66,1.01-0.66c1.03,0,1.61,0.41,1.73,1.07
		l2.74-0.08c-0.19-1.92-1.75-3.09-4.41-3.09c-2.58,0-4.16,1.3-4.16,3.11c0,1.88,1.18,2.6,3.4,2.95l1.36,0.21
		c0.64,0.1,0.85,0.35,0.85,0.7C389.83,594.89,389.44,595.16,388.7,595.16z"/>
	<path d="M409.68,596.99v-5.77c0-1.92-0.74-3.67-3.28-3.67c-1.55,0-2.64,0.78-3.13,1.81c-0.39-1.07-1.24-1.81-2.87-1.81
		c-1.38,0-2.37,0.62-2.87,1.63v-1.38h-3.34v9.19h3.34v-4.51c0-1.38,0.39-2.29,1.48-2.29c1.01,0,1.26,0.66,1.26,1.92v4.89h3.34v-4.51
		c0-1.38,0.37-2.29,1.48-2.29c1.01,0,1.24,0.66,1.24,1.92v4.89H409.68z"/>
	<rect x="413.27" y="584.01" width="3.5" height="12.99"/>
	<path d="M422.67,595.16c-1.01,0-1.63-0.43-1.75-1.2l-2.91,0.04c0.19,2.23,2.08,3.24,4.62,3.24c2.62,0,4.27-1.11,4.27-3.05
		c0-1.79-1.2-2.72-3.26-3.05l-1.79-0.31c-0.31-0.04-0.56-0.21-0.56-0.52c0-0.41,0.37-0.66,1.01-0.66c1.03,0,1.61,0.41,1.73,1.07
		l2.74-0.08c-0.19-1.92-1.75-3.09-4.41-3.09c-2.58,0-4.16,1.3-4.16,3.11c0,1.88,1.18,2.6,3.4,2.95l1.36,0.21
		c0.64,0.1,0.85,0.35,0.85,0.7C423.8,594.89,423.41,595.16,422.67,595.16z"/>
	<path d="M429.07,596.99h3.52l0.97-2.51h5.07l0.97,2.51h3.73l-5.17-12.99h-3.92L429.07,596.99z M436.05,588.03h0.08l1.48,3.83h-3.05
		L436.05,588.03z"/>
	<polygon points="452.01,592.64 448.8,584.01 445.13,584.01 450.12,596.99 453.81,596.99 458.8,584.01 455.31,584.01 452.1,592.64 	
		"/>
	<rect x="459.68" y="584.01" width="3.38" height="2.93"/>
	<rect x="459.7" y="587.8" width="3.34" height="9.19"/>
	<path d="M464.85,587.8v9.19h3.34v-4.21c0-1.55,0.76-2.12,2-2.12c0.64,0,1.13,0.12,1.59,0.39l0.21-3.15
		c-0.23-0.19-0.72-0.35-1.28-0.35c-1.22,0-2.19,0.85-2.52,1.88v-1.63H464.85z"/>
	<path d="M482.41,596.99v-9.19h-3.34v4.51c0,1.4-0.41,2.31-1.46,2.31c-1.01,0-1.36-0.68-1.36-1.92v-4.91h-3.34v5.79
		c0,1.92,0.76,3.65,3.28,3.65c1.38,0,2.39-0.6,2.89-1.63v1.38H482.41z"/>
	<path d="M488.23,595.16c-1.01,0-1.63-0.43-1.75-1.2l-2.91,0.04c0.19,2.23,2.08,3.24,4.62,3.24c2.62,0,4.27-1.11,4.27-3.05
		c0-1.79-1.2-2.72-3.26-3.05l-1.79-0.31c-0.31-0.04-0.56-0.21-0.56-0.52c0-0.41,0.37-0.66,1.01-0.66c1.03,0,1.61,0.41,1.73,1.07
		l2.74-0.08c-0.19-1.92-1.75-3.09-4.41-3.09c-2.58,0-4.16,1.3-4.16,3.11c0,1.88,1.17,2.6,3.4,2.95l1.36,0.21
		c0.64,0.1,0.85,0.35,0.85,0.7C489.36,594.89,488.97,595.16,488.23,595.16z"/>
</g>
<g id="exp_white_bg" class="st0">
	<g class="st2">
		<path class="st5" d="M214.26,116.83c-9.71,0-14.01,5.98-15.13,13.82h29.33C228.08,123.18,223.22,116.83,214.26,116.83z"/>
		<path class="st5" d="M0.14,1224h792V0h-792V1224z M26.86,1016.1l-5.19,1.34v0.08l5.19,1.34v3.28l-9.06,2.86l9.06,2.86v3.28
			l-5.19,1.34v0.08l5.19,1.34v3.28l-9.06,2.86l9.06,2.86v3.28l-5.19,1.34v0.08l5.19,1.34v3.28l-9.19,2.91v-3.32l5.22-1.65v-0.08
			l-5.22-1.34v-2.66l5.22-1.34v-0.08l-5.22-1.65v-2.92v-0.09v-3.23l5.22-1.65v-0.08l-5.22-1.34v-2.66l5.22-1.34v-0.08l-5.22-1.65
			v-2.92v-0.09v-3.23l5.22-1.65V1020l-5.22-1.34V1016l5.22-1.34v-0.08l-5.22-1.65v-3.01l9.19,2.91V1016.1z M26.86,1007.49h-3.55
			v-3.55h3.55V1007.49z M30.16,975.91H17.67v-3.34h1.59c-1.09-0.45-1.83-1.48-1.83-3.03c0-2.7,2.14-4.08,4.84-4.08
			c2.72,0,4.84,1.38,4.84,4.08c0,1.55-0.74,2.58-1.81,3.03h4.86V975.91z M27.07,984.34c0,1.79-0.93,2.97-2.49,2.97
			c-1.77,0-2.54-1.28-2.89-3.28l-0.43-2.58h-0.14c-0.76,0-1.22,0.35-1.22,1.15c0,0.74,0.47,1.11,1.15,1.26l-0.21,3.09
			c-2.02-0.29-3.42-1.79-3.42-4.56c0-2.43,1.05-4.23,3.61-4.23h3.13c0.47,0,0.68-0.21,0.68-0.56c0-0.27-0.04-0.47-0.14-0.74h1.77
			c0.33,0.47,0.6,1.13,0.6,2.08c0,1.13-0.58,2.02-1.63,2.33C26.51,981.83,27.07,982.88,27.07,984.34z M24.7,941.72h1.77
			c0.33,0.47,0.6,1.13,0.6,2.08c0,1.13-0.58,2.02-1.63,2.33c1.07,0.54,1.63,1.59,1.63,3.05c0,1.79-0.93,2.97-2.49,2.97
			c-1.77,0-2.54-1.28-2.89-3.28l-0.43-2.58h-0.14c-0.76,0-1.22,0.35-1.22,1.15c0,0.74,0.47,1.11,1.15,1.26l-0.21,3.09
			c-2.02-0.29-3.42-1.79-3.42-4.56c0-2.43,1.05-4.23,3.61-4.23h3.13c0.47,0,0.68-0.21,0.68-0.56
			C24.84,942.19,24.8,941.99,24.7,941.72z M17.42,908.74c0-2.54,1.75-3.28,3.67-3.28h5.77v3.34h-4.89c-1.26,0-1.92,0.23-1.92,1.24
			c0,1.11,0.91,1.48,2.29,1.48h4.51v3.34h-4.89c-1.26,0-1.92,0.25-1.92,1.26c0,1.09,0.91,1.48,2.29,1.48h4.51v3.34h-9.19v-3.34h1.38
			c-1.01-0.49-1.63-1.48-1.63-2.87c0-1.63,0.74-2.47,1.81-2.87C18.2,911.38,17.42,910.29,17.42,908.74z M20.51,922.35l0.08,2.74
			c-0.66,0.12-1.07,0.7-1.07,1.73c0,0.64,0.25,1.01,0.66,1.01c0.31,0,0.47-0.25,0.52-0.56l0.31-1.79c0.33-2.06,1.26-3.26,3.05-3.26
			c1.94,0,3.05,1.65,3.05,4.27c0,2.54-1.01,4.43-3.24,4.62l-0.04-2.91c0.76-0.12,1.2-0.74,1.2-1.75c0-0.74-0.27-1.13-0.64-1.13
			c-0.35,0-0.6,0.21-0.7,0.85l-0.21,1.36c-0.35,2.23-1.07,3.4-2.95,3.4c-1.81,0-3.11-1.59-3.11-4.16
			C17.42,924.1,18.59,922.53,20.51,922.35z M24.39,889.68c-0.35,0-0.6,0.21-0.7,0.85l-0.21,1.36c-0.35,2.23-1.07,3.4-2.95,3.4
			c-1.81,0-3.11-1.59-3.11-4.16c0-2.66,1.17-4.23,3.09-4.41l0.08,2.74c-0.66,0.12-1.07,0.7-1.07,1.73c0,0.64,0.25,1.01,0.66,1.01
			c0.31,0,0.47-0.25,0.52-0.56l0.31-1.79c0.33-2.06,1.26-3.26,3.05-3.26c1.94,0,3.05,1.65,3.05,4.27c0,2.54-1.01,4.43-3.24,4.62
			l-0.04-2.91c0.76-0.12,1.2-0.74,1.2-1.75C25.03,890.07,24.76,889.68,24.39,889.68z M22.66,795.33h4.21v3.34h-9.19v-3.34h1.63
			c-1.03-0.33-1.88-1.3-1.88-2.52c0-0.56,0.17-1.05,0.35-1.28l3.15,0.21c-0.27,0.45-0.39,0.95-0.39,1.59
			C20.53,794.56,21.11,795.33,22.66,795.33z M22.26,799.98c2.87,0,4.84,2.04,4.84,5.03c0,3.01-1.98,5.03-4.84,5.03
			c-2.84,0-4.84-2.02-4.84-5.03C17.42,802.02,19.42,799.98,22.26,799.98z M26.86,812.93v3.55h-3.55v-3.55H26.86z M20.51,819.44
			l0.08,2.74c-0.66,0.12-1.07,0.7-1.07,1.73c0,0.64,0.25,1.01,0.66,1.01c0.31,0,0.47-0.25,0.52-0.56l0.31-1.79
			c0.33-2.06,1.26-3.26,3.05-3.26c1.94,0,3.05,1.65,3.05,4.27c0,2.54-1.01,4.43-3.24,4.62l-0.04-2.91c0.76-0.12,1.2-0.74,1.2-1.75
			c0-0.74-0.27-1.13-0.64-1.13c-0.35,0-0.6,0.21-0.7,0.85l-0.21,1.36c-0.35,2.23-1.07,3.4-2.95,3.4c-1.81,0-3.11-1.59-3.11-4.16
			C17.42,821.19,18.59,819.62,20.51,819.44z M22.18,832.69h-4.51v-3.34h9.19v3.34h-1.38c1.03,0.49,1.63,1.5,1.63,2.89
			c0,2.52-1.73,3.28-3.65,3.28h-5.79v-3.34h4.91c1.24,0,1.92-0.35,1.92-1.36C24.49,833.1,23.58,832.69,22.18,832.69z M17.77,839.78
			l3.15,0.21c-0.27,0.45-0.39,0.95-0.39,1.59c0,1.24,0.58,2,2.12,2h4.21v3.34h-9.19v-3.34h1.63c-1.03-0.33-1.88-1.3-1.88-2.52
			C17.42,840.5,17.58,840.01,17.77,839.78z M17.67,848.73h9.19v3.34h-9.19V848.73z M17.67,932.26h9.19v3.34h-9.19V932.26z
			 M17.67,955.36v-2.39h2.31v2.39h3.36c0.78,0,1.09-0.37,1.09-1.05c0-0.41-0.08-0.87-0.31-1.42h2.16c0.52,0.7,0.82,1.5,0.82,2.76
			c0,1.55-0.64,3.01-2.8,3.01h-4.33v1.24h-2.06l-0.1-0.68c-0.14-0.93-0.64-1.22-1.48-1.44l-1.2-0.31v-2.1H17.67z M26.86,960.81v3.34
			h-9.19v-3.34H26.86z M711.44,1128.58l-33.72,10.7c-8.04,2.55-16.63-1.9-19.19-9.94c-2.55-8.04,1.9-16.63,9.94-19.19l31.69-10.06
			c0.25-1.29,0.3-3.57-0.58-6.34l-28.14-88.65c-10.51-33.1-26.45-61.47-44.89-79.89c-18.78-18.76-37.95-25.21-56.96-19.17
			c-19.01,6.04-30.95,22.36-35.48,48.52c-4.44,25.69-1.11,58.06,9.4,91.15l28.14,88.65c0.88,2.77,2.24,4.61,3.18,5.52l31.16-9.89
			c8.04-2.55,16.63,1.9,19.19,9.94c2.55,8.04-1.9,16.63-9.94,19.19l-33.19,10.54c-2.54,0.81-5.12,1.19-7.69,1.19
			c-13.5,0-26.6-10.72-31.85-27.24l-28.14-88.65c-11.96-37.68-15.65-75.19-10.38-105.61c5.2-30.04,19.24-52.59,40.18-65.16
			c-8.12-15.45-16.66-29.5-25.56-42.1c-0.64,36.73-12.21,66.72-34.62,89.47c-9.65,13.09-5.33,65.35-0.77,120.65
			c3.55,43,7.57,91.75,7.57,141.43c0,4.5-3.65,8.15-8.15,8.15c-1.47,0-2.85-0.4-4.04-1.08c-2.45-1.41-4.11-4.04-4.11-7.07
			c0-49.01-3.99-97.4-7.51-140.09c-5.7-69.14-9.47-114.81,4.48-132.42c0.19-0.24,0.39-0.47,0.61-0.68
			c20.74-20.88,30.85-49.33,30.24-84.84l-2.69,4.44c-4.05,6.68-10.56,11.29-18.36,12.98c-2.11,0.46-4.25,0.68-6.38,0.68
			c-5.56,0-11.07-1.54-16-4.52c-7.4-4.48-12.25-11.54-14.04-19.2c-0.38,0.1-0.77,0.2-1.16,0.28c-2.11,0.46-4.25,0.68-6.38,0.68
			c-5.56,0-11.07-1.54-16-4.52c-0.22-0.13-0.43-0.28-0.65-0.42c3.11,6.79,5.01,13.46,6.15,19.5c4.01,21.24-0.46,38.89-0.65,39.63
			c-1.13,4.36-5.58,6.97-9.94,5.84c-4.35-1.13-6.97-5.57-5.84-9.92c0.63-2.49,14.23-59.1-42-82.44c-2.17-0.9-3.85-2.7-4.6-4.92
			s-0.5-4.67,0.68-6.7c3.08-5.29,6.71-11.57,6.71-11.57c2.07-3.57,6.47-5.03,10.26-3.41c0.45,0.18,12.55,5.01,23.78-2.31
			c6.06-3.95,9.56-8.29,11.55-11.64c-15.24-7.28-50.91-24.27-58.2-27.29c-6.17-2.55-13.08,1.05-20.56,10.7l-1.38,1.77
			c-9.91,12.74-40.07,51.51-38.95,73.24c0.63,12.23,14.18,30.74,25.08,45.6c10.17,13.88,18.95,25.86,20.8,35.72
			c7.11,37.97,5.15,69.51,1.9,121.76c-2.57,41.31-6.09,97.89-6.09,181.12c0,4.5-3.65,8.15-8.15,8.15s-8.15-3.65-8.15-8.15
			c0-83.74,3.54-140.61,6.12-182.14c3.17-50.99,5.09-81.76-1.66-117.74c-1.17-6.22-9.68-17.84-17.92-29.09
			c-7.81-10.65-15.76-21.51-21.23-32.1c-22.87,36.67-38.19,82.86-44.78,134.81c28.56,7.6,49.67,33.67,49.67,64.6
			c0,36.86-29.98,66.84-66.84,66.84s-66.84-29.99-66.84-66.84c0-32.23,22.93-59.21,53.33-65.47c7.23-60.02,25.4-113.49,52.93-155.43
			c6.75-10.28,14.01-19.72,21.69-28.28c8.07-18.93,22.78-39.3,36.24-56.61l1.36-1.75c5.28-6.81,14.75-16.45,26.75-17.74l29.5-48.73
			c4.05-6.68,10.56-11.29,18.36-12.98c7.62-1.65,15.57-0.29,22.38,3.83c5.19,3.14,9.12,7.55,11.63,12.54
			c9.25-6.18,21.91-6.75,32.38-0.41c6.81,4.12,11.7,10.53,13.77,18.05c0.98,3.57,1.27,7.18,0.91,10.7
			c5.66-0.06,11.28,1.48,16.29,4.51c10.45,6.33,15.82,17.8,14.64,28.86c5.73-0.1,11.43,1.44,16.5,4.51
			c14.2,8.6,19.04,26.69,10.78,40.33l-14.83,24.49c17.73,20.39,34.17,45.28,49.16,74.52c25.8-3.47,51.94,6.74,74.82,29.59
			c21.85,21.82,40.47,54.58,52.43,92.26l28.14,88.65C734.95,1104.16,727.37,1123.52,711.44,1128.58z M259.43,259.39v15.68h-15.82
			v46.76h-22.4v-46.76h-8.96v-15.68h8.96v-2.66c0-16.24,10.08-24.78,25.06-24.78c11.76,0,19.88,5.88,22.4,16.24l-13.86,4.34
			c-1.4-2.8-3.08-4.34-6.02-4.34c-3.78,0-5.18,3.08-5.18,7v4.2H259.43z M360.51,63.03v117.68h-30.26v-14.2
			c-3.92,9.71-13.45,16.44-27.27,16.44c-24.66,0-36.99-19.24-36.99-43.9c0-24.47,12.33-43.9,36.99-43.9
			c13.82,0,23.35,6.73,27.27,16.62V63.03H360.51z M349.97,23.55v-9.19h3.34v9.19H349.97z M378.15,257.71c3.78,0,7.14,1.12,8.68,2.38
			l-1.4,21.42c-3.08-1.82-6.44-2.66-10.78-2.66c-8.4,0-13.58,3.92-13.58,14.42v28.56h-22.68v-62.44h22.68v11.06
			C363.31,263.45,369.89,257.71,378.15,257.71z M524.05,479.39h1.04l27.15-103.13h39.95l27.15,103.13h1.04l26.11-103.13h42.82
			l-43.08,164.48h-47.26l-27.41-103.91h-1.04l-27.41,103.91h-46.47l-43.08-164.48h44.38L524.05,479.39z M515.91,321.83v-88.2h22.68
			v88.2H515.91z M550.91,321.83v-88.2h22.68v88.2H550.91z M488.51,593.82l-1.36-0.21c-2.23-0.35-3.4-1.07-3.4-2.95
			c0-1.81,1.59-3.11,4.16-3.11c2.66,0,4.23,1.18,4.41,3.09l-2.74,0.08c-0.12-0.66-0.7-1.07-1.73-1.07c-0.64,0-1.01,0.25-1.01,0.66
			c0,0.31,0.25,0.47,0.56,0.52l1.79,0.31c2.06,0.33,3.26,1.26,3.26,3.05c0,1.94-1.65,3.05-4.27,3.05c-2.54,0-4.43-1.01-4.62-3.24
			l2.91-0.04c0.12,0.76,0.74,1.2,1.75,1.2c0.74,0,1.13-0.27,1.13-0.64C489.36,594.17,489.15,593.92,488.51,593.82z M476.19,597.24
			c-2.51,0-3.28-1.73-3.28-3.65v-5.79h3.34v4.91c0,1.24,0.35,1.92,1.36,1.92c1.05,0,1.46-0.91,1.46-2.31v-4.51h3.34v9.19h-3.34
			v-1.38C478.58,596.64,477.57,597.24,476.19,597.24z M470.71,587.55c0.56,0,1.05,0.17,1.28,0.35l-0.21,3.15
			c-0.45-0.27-0.95-0.39-1.59-0.39c-1.24,0-2,0.58-2,2.12v4.21h-3.34v-9.19h3.34v1.63C468.52,588.4,469.49,587.55,470.71,587.55z
			 M459.68,586.93v-2.93h3.38v2.93H459.68z M463.04,587.8v9.19h-3.34v-9.19H463.04z M455.31,584.01h3.48l-4.99,12.99h-3.69
			l-4.99-12.99h3.67l3.22,8.64h0.08L455.31,584.01z M365.59,543.88c-47.78,0-85.37-34.72-85.37-85.37
			c0-50.65,37.6-85.37,85.37-85.37c47.78,0,85.37,34.72,85.37,85.37C450.96,509.16,413.36,543.88,365.59,543.88z M443.33,596.99
			h-3.73l-0.97-2.51h-5.07l-0.97,2.51h-3.52l5.17-12.99h3.92L443.33,596.99z M422.96,593.82l-1.36-0.21
			c-2.23-0.35-3.4-1.07-3.4-2.95c0-1.81,1.59-3.11,4.16-3.11c2.66,0,4.23,1.18,4.41,3.09l-2.74,0.08c-0.12-0.66-0.7-1.07-1.73-1.07
			c-0.64,0-1.01,0.25-1.01,0.66c0,0.31,0.25,0.47,0.56,0.52l1.79,0.31c2.06,0.33,3.26,1.26,3.26,3.05c0,1.94-1.65,3.05-4.27,3.05
			c-2.54,0-4.43-1.01-4.62-3.24l2.91-0.04c0.12,0.76,0.74,1.2,1.75,1.2c0.74,0,1.13-0.27,1.13-0.64
			C423.8,594.17,423.6,593.92,422.96,593.82z M416.78,584.01v12.99h-3.5v-12.99H416.78z M405.11,590.19c-1.11,0-1.48,0.91-1.48,2.29
			v4.51h-3.34v-4.89c0-1.26-0.25-1.92-1.26-1.92c-1.09,0-1.48,0.91-1.48,2.29v4.51h-3.34v-9.19h3.34v1.38
			c0.5-1.01,1.48-1.63,2.87-1.63c1.63,0,2.47,0.74,2.87,1.81c0.49-1.03,1.59-1.81,3.13-1.81c2.54,0,3.28,1.75,3.28,3.67v5.77h-3.34
			v-4.89C406.34,590.85,406.12,590.19,405.11,590.19z M388.99,593.82l-1.36-0.21c-2.23-0.35-3.4-1.07-3.4-2.95
			c0-1.81,1.59-3.11,4.16-3.11c2.66,0,4.23,1.18,4.41,3.09l-2.74,0.08c-0.12-0.66-0.7-1.07-1.73-1.07c-0.64,0-1.01,0.25-1.01,0.66
			c0,0.31,0.25,0.47,0.56,0.52l1.79,0.31c2.06,0.33,3.26,1.26,3.26,3.05c0,1.94-1.65,3.05-4.27,3.05c-2.54,0-4.43-1.01-4.62-3.24
			l2.91-0.04c0.12,0.76,0.74,1.2,1.75,1.2c0.74,0,1.13-0.27,1.13-0.64C389.83,594.17,389.63,593.92,388.99,593.82z M379.53,586.93
			v-2.93h3.38v2.93H379.53z M382.89,587.8v9.19h-3.34v-9.19H382.89z M377.73,584.01v12.99h-3.34v-12.99H377.73z M367.7,590.03
			c-0.74,0-1.11,0.47-1.26,1.15l-3.09-0.21c0.29-2.02,1.79-3.42,4.56-3.42c2.43,0,4.23,1.05,4.23,3.61v3.13
			c0,0.47,0.21,0.68,0.56,0.68c0.27,0,0.47-0.04,0.74-0.14v1.77c-0.47,0.33-1.13,0.6-2.08,0.6c-1.13,0-2.02-0.58-2.33-1.63
			c-0.54,1.07-1.59,1.63-3.05,1.63c-1.79,0-2.97-0.93-2.97-2.49c0-1.77,1.28-2.54,3.28-2.89l2.58-0.43v-0.14
			C368.85,590.48,368.5,590.03,367.7,590.03z M355.25,590.11v-2.06l0.68-0.1c0.93-0.14,1.22-0.64,1.44-1.48l0.31-1.2h2.1v2.54h2.39
			v2.31h-2.39v3.36c0,0.78,0.37,1.09,1.05,1.09c0.41,0,0.87-0.08,1.42-0.31v2.16c-0.7,0.52-1.5,0.82-2.76,0.82
			c-1.55,0-3.01-0.64-3.01-2.8v-4.33H355.25z M350.98,586.93v-2.93h3.38v2.93H350.98z M354.34,587.8v9.19H351v-9.19H354.34z
			 M345.6,587.55c2.7,0,4.08,2.14,4.08,4.84c0,2.72-1.38,4.84-4.08,4.84c-1.55,0-2.58-0.74-3.03-1.81v4.87h-3.34V587.8h3.34v1.59
			C343.03,588.29,344.06,587.55,345.6,587.55z M332.54,590.03c-0.74,0-1.11,0.47-1.26,1.15l-3.09-0.21
			c0.29-2.02,1.79-3.42,4.56-3.42c2.43,0,4.23,1.05,4.23,3.61v3.13c0,0.47,0.21,0.68,0.56,0.68c0.27,0,0.47-0.04,0.74-0.14v1.77
			c-0.47,0.33-1.13,0.6-2.08,0.6c-1.13,0-2.02-0.58-2.33-1.63c-0.54,1.07-1.59,1.63-3.05,1.63c-1.79,0-2.97-0.93-2.97-2.49
			c0-1.77,1.28-2.54,3.28-2.89l2.58-0.43v-0.14C333.69,590.48,333.34,590.03,332.54,590.03z M320.73,594.13
			c2.02,0,2.8-1.34,3.01-2.78l3.36,0.14c-0.25,3.24-2.37,5.75-6.35,5.75c-3.79,0-6.66-2.74-6.66-6.74c0-4,2.87-6.74,6.66-6.74
			c3.98,0,6.1,2.54,6.35,5.77l-3.36,0.12c-0.21-1.44-0.99-2.78-3.01-2.78c-1.92,0-3.03,1.42-3.03,3.63
			C317.7,592.71,318.81,594.13,320.73,594.13z M310.64,591.51l-0.43,2.06h-2.04l-0.8,3.42h-2.49l0.8-3.42h-1.77l-0.8,3.42h-2.49
			l0.8-3.42h-1.81l0.43-2.06h1.88l0.49-2.02h-1.98l0.43-2.06h2.02l0.82-3.42h2.49l-0.83,3.42h1.77l0.82-3.42h2.49l-0.82,3.42h1.83
			l-0.43,2.06h-1.88l-0.49,2.02H310.64z M407.21,180.71h-30.26V97.4h30.26V180.71z M295.27,257.71c20.3,0,34.16,13.58,34.16,32.9
			c0,19.46-13.86,32.9-34.16,32.9c-20.44,0-34.16-13.44-34.16-32.9C261.11,271.29,274.83,257.71,295.27,257.71z M761.72,852.8
			c0-1.79,0.93-2.97,2.49-2.97c1.77,0,2.54,1.28,2.89,3.28l0.43,2.58h0.14c0.76,0,1.22-0.35,1.22-1.15c0-0.74-0.47-1.11-1.15-1.26
			l0.21-3.09c2.02,0.29,3.42,1.79,3.42,4.56c0,2.43-1.05,4.23-3.61,4.23h-3.13c-0.47,0-0.68,0.21-0.68,0.56
			c0,0.27,0.04,0.47,0.14,0.74h-1.77c-0.33-0.47-0.6-1.13-0.6-2.08c0-1.13,0.58-2.02,1.63-2.33
			C762.28,855.32,761.72,854.27,761.72,852.8z M764.09,895.43h-1.77c-0.33-0.47-0.6-1.13-0.6-2.08c0-1.13,0.58-2.02,1.63-2.33
			c-1.07-0.54-1.63-1.59-1.63-3.05c0-1.79,0.93-2.97,2.49-2.97c1.77,0,2.54,1.28,2.89,3.28l0.43,2.58h0.14
			c0.76,0,1.22-0.35,1.22-1.15c0-0.74-0.47-1.11-1.15-1.26l0.21-3.09c2.02,0.29,3.42,1.79,3.42,4.56c0,2.43-1.05,4.23-3.61,4.23
			h-3.13c-0.47,0-0.68,0.21-0.68,0.56C763.95,894.95,763.99,895.16,764.09,895.43z M771.37,928.4c0,2.54-1.75,3.28-3.67,3.28h-5.77
			v-3.34h4.89c1.26,0,1.92-0.23,1.92-1.24c0-1.11-0.91-1.48-2.29-1.48h-4.51v-3.34h4.89c1.26,0,1.92-0.25,1.92-1.26
			c0-1.09-0.91-1.48-2.29-1.48h-4.51v-3.34h9.19v3.34h-1.38c1.01,0.5,1.63,1.48,1.63,2.87c0,1.63-0.74,2.47-1.81,2.87
			C770.59,925.77,771.37,926.86,771.37,928.4z M768.28,914.8l-0.08-2.74c0.66-0.12,1.07-0.7,1.07-1.73c0-0.64-0.25-1.01-0.66-1.01
			c-0.31,0-0.47,0.25-0.51,0.56l-0.31,1.79c-0.33,2.06-1.26,3.26-3.05,3.26c-1.94,0-3.05-1.65-3.05-4.27c0-2.54,1.01-4.43,3.24-4.62
			l0.04,2.91c-0.76,0.12-1.2,0.74-1.2,1.75c0,0.74,0.27,1.13,0.64,1.13c0.35,0,0.6-0.21,0.7-0.85l0.21-1.36
			c0.35-2.23,1.07-3.4,2.95-3.4c1.81,0,3.11,1.59,3.11,4.16C771.37,913.05,770.2,914.62,768.28,914.8z M764.4,945.8
			c0.35,0,0.6-0.21,0.7-0.85l0.21-1.36c0.35-2.23,1.07-3.4,2.95-3.4c1.81,0,3.11,1.59,3.11,4.16c0,2.66-1.17,4.23-3.09,4.41
			l-0.08-2.74c0.66-0.12,1.07-0.7,1.07-1.73c0-0.64-0.25-1.01-0.66-1.01c-0.31,0-0.47,0.25-0.51,0.56l-0.31,1.79
			c-0.33,2.06-1.26,3.26-3.05,3.26c-1.94,0-3.05-1.65-3.05-4.27c0-2.54,1.01-4.43,3.24-4.62l0.04,2.91c-0.76,0.12-1.2,0.74-1.2,1.75
			C763.76,945.41,764.03,945.8,764.4,945.8z M761.93,981.7h9.19v3.34h-9.19V981.7z M766.61,1001.07h4.51v3.34h-9.19v-3.34h1.38
			c-1.03-0.49-1.63-1.5-1.63-2.89c0-2.52,1.73-3.28,3.65-3.28h5.79v3.34h-4.91c-1.24,0-1.92,0.35-1.92,1.36
			C764.3,1000.66,765.21,1001.07,766.61,1001.07z M771.12,904.89h-9.19v-3.34h9.19V904.89z M771.12,881.78v2.39h-2.31v-2.39h-3.36
			c-0.78,0-1.09,0.37-1.09,1.05c0,0.41,0.08,0.87,0.31,1.42h-2.16c-0.52-0.7-0.82-1.5-0.82-2.76c0-1.55,0.64-3.01,2.8-3.01h4.33
			v-1.24h2.06l0.1,0.68c0.14,0.93,0.64,1.22,1.48,1.44l1.2,0.31v2.1H771.12z M761.93,876.34V873h9.19v3.34H761.93z M771.12,861.23
			v3.34h-1.59c1.09,0.45,1.83,1.48,1.83,3.03c0,2.7-2.14,4.08-4.84,4.08c-2.72,0-4.84-1.38-4.84-4.08c0-1.55,0.74-2.58,1.81-3.03
			h-4.86v-3.34H771.12z M768.28,1014.33l-0.08-2.74c0.66-0.12,1.07-0.7,1.07-1.73c0-0.64-0.25-1.01-0.66-1.01
			c-0.31,0-0.47,0.25-0.51,0.56l-0.31,1.79c-0.33,2.06-1.26,3.26-3.05,3.26c-1.94,0-3.05-1.65-3.05-4.27c0-2.54,1.01-4.43,3.24-4.62
			l0.04,2.91c-0.76,0.12-1.2,0.74-1.2,1.75c0,0.74,0.27,1.13,0.64,1.13c0.35,0,0.6-0.21,0.7-0.85l0.21-1.36
			c0.35-2.23,1.07-3.4,2.95-3.4c1.81,0,3.11,1.59,3.11,4.16C771.37,1012.58,770.2,1014.14,768.28,1014.33z M771.02,993.99
			l-3.15-0.21c0.27-0.45,0.39-0.95,0.39-1.59c0-1.24-0.58-2-2.12-2h-4.21v-3.34h9.19v3.34h-1.63c1.03,0.33,1.88,1.3,1.88,2.52
			C771.37,993.26,771.21,993.76,771.02,993.99z M774.92,985.06h-2.93v-3.38h2.93V985.06z M774.92,970.8l-8.64,3.22v0.08l8.64,3.22
			v3.48l-12.99-4.99v-3.69l12.99-4.99V970.8z M774.92,960.16l-12.99,5.17v-3.73l2.51-0.97v-5.07l-2.51-0.97v-3.52l12.99,5.17V960.16
			z M774.92,938.78h-12.99v-3.5h12.99V938.78z M774.92,904.91h-2.93v-3.38h2.93V904.91z M774.92,899.73h-12.99v-3.34h12.99V899.73z
			 M774.92,876.36h-2.93v-3.38h2.93V876.36z M769.39,849.1l-0.12-3.36c1.44-0.21,2.78-0.99,2.78-3.01c0-1.92-1.42-3.03-3.63-3.03
			c-2.21,0-3.63,1.11-3.63,3.03c0,2.02,1.34,2.8,2.78,3.01l-0.14,3.36c-3.24-0.25-5.75-2.37-5.75-6.35c0-3.79,2.74-6.66,6.74-6.66
			c4,0,6.74,2.87,6.74,6.66C775.16,846.73,772.63,848.85,769.39,849.1z M774.92,828.19l-3.42-0.83v1.77l3.42,0.82v2.49l-3.42-0.82
			v1.83l-2.06-0.43v-1.88l-2.02-0.49v1.98l-2.06-0.43v-2.04l-3.42-0.8v-2.49l3.42,0.8v-1.77l-3.42-0.8v-2.49l3.42,0.8v-1.81
			l2.06,0.43v1.88l2.02,0.49v-1.98l2.06,0.43v2.02l3.42,0.82V828.19z M729.24,95.16c27.83,0,42.59,19.05,42.59,41.66v8.41h-58.47
			c0.75,10.27,8.22,15.13,17.37,15.13c8.22,0,13.45-2.8,16.25-9.34l24.28,2.24c-4.3,19.05-19.61,29.7-41.66,29.7
			c-26.71,0-45.77-16.06-45.77-42.59C683.85,114.03,703.27,95.16,729.24,95.16z M615.85,97.4h30.26v14.76
			c2.99-9.34,11.77-17,22.79-17c5.04,0,9.53,1.49,11.58,3.18l-1.87,28.58c-4.11-2.43-8.59-3.55-14.38-3.55
			c-11.21,0-18.12,5.23-18.12,19.24v38.11h-30.26V97.4z M595.31,127.85v28.39c0,4.3,1.87,6.16,5.04,6.16c2.43,0,4.3-0.37,6.72-1.31
			v16.06c-4.3,2.99-10.27,5.42-18.87,5.42c-10.27,0-18.31-5.23-21.11-14.76c-4.86,9.71-14.38,14.76-27.65,14.76
			c-16.25,0-26.9-8.41-26.9-22.6c0-16.06,11.58-22.98,29.7-26.15l23.35-3.92v-1.31c0-6.91-3.18-11.02-10.46-11.02
			c-6.72,0-10.09,4.3-11.39,10.46l-28.02-1.87c2.62-18.31,16.25-31.01,41.28-31.01C579.06,95.16,595.31,104.69,595.31,127.85z
			 M523.04,21.53c0-0.89,0.58-1.57,1.57-1.94c-0.82-0.54-1.32-1.32-1.32-2.33c0-1.96,1.86-3.15,4.43-3.15
			c1.11,0,2.16,0.27,2.95,0.74c0.56-0.76,1.57-1.42,2.58-1.42v2.51c-0.39,0-0.89,0.04-1.34,0.14c0.19,0.35,0.29,0.74,0.29,1.17
			c0,1.94-1.88,3.13-4.47,3.13c-0.74,0-1.4-0.08-2-0.27c-0.12,0.1-0.19,0.25-0.19,0.43c0,0.31,0.23,0.56,0.78,0.56h3.81
			c2.08,0,3.13,1.09,3.13,2.64c0,2.29-2.78,3.34-5.77,3.34c-2.62,0-4.89-0.52-4.89-2.25c0-0.8,0.72-1.44,1.75-1.53
			C523.53,23.06,523.04,22.32,523.04,21.53z M515.45,14.36h3.34v1.63c0.33-1.03,1.3-1.88,2.52-1.88c0.56,0,1.05,0.16,1.28,0.35
			l-0.21,3.15c-0.45-0.27-0.95-0.39-1.59-0.39c-1.24,0-2,0.58-2,2.12v4.21h-3.34V14.36z M509.1,14.11c2.99,0,5.03,2,5.03,4.84
			c0,2.87-2.04,4.84-5.03,4.84c-3.01,0-5.03-1.98-5.03-4.84C504.07,16.11,506.09,14.11,509.1,14.11z M497.64,20.01h3.55v3.55h-3.55
			V20.01z M490.86,20.38l-1.36-0.21c-2.23-0.35-3.4-1.07-3.4-2.95c0-1.81,1.59-3.11,4.16-3.11c2.66,0,4.23,1.18,4.41,3.09
			l-2.74,0.08c-0.12-0.66-0.7-1.07-1.73-1.07c-0.64,0-1.01,0.25-1.01,0.66c0,0.31,0.25,0.47,0.56,0.52l1.79,0.31
			c2.06,0.33,3.26,1.26,3.26,3.05c0,1.94-1.65,3.05-4.27,3.05c-2.54,0-4.43-1.01-4.62-3.24l2.91-0.04c0.12,0.76,0.74,1.2,1.75,1.2
			c0.74,0,1.13-0.27,1.13-0.64C491.71,20.73,491.5,20.48,490.86,20.38z M475.26,14.36h3.34v4.91c0,1.24,0.35,1.92,1.36,1.92
			c1.05,0,1.46-0.91,1.46-2.31v-4.51h3.34v9.19h-3.34v-1.38c-0.49,1.03-1.5,1.63-2.89,1.63c-2.52,0-3.28-1.73-3.28-3.65V14.36z
			 M467.2,14.36h3.34v1.63c0.33-1.03,1.3-1.88,2.52-1.88c0.56,0,1.05,0.16,1.28,0.35l-0.21,3.15c-0.45-0.27-0.95-0.39-1.59-0.39
			c-1.24,0-2,0.58-2,2.12v4.21h-3.34V14.36z M462.03,10.57h3.38v2.93h-3.38V10.57z M465.39,14.36v9.19h-3.34v-9.19H465.39z
			 M451.15,10.57l3.22,8.64h0.08l3.22-8.64h3.48l-4.99,12.99h-3.69l-4.99-12.99H451.15z M436.54,10.57h3.92l5.17,12.99h-3.73
			l-0.97-2.52h-5.07l-0.97,2.52h-3.52L436.54,10.57z M464.74,95.16c25.03,0,39.04,16.25,41.1,36.24l-24.84,1.68
			c-2.05-10.27-7.1-15.13-15.88-15.13c-9.15,0-15.5,6.16-15.5,21.11s6.35,21.11,15.5,21.11c8.78,0,13.82-5.04,15.88-15.32
			l24.84,1.87c-2.05,20.17-16.06,36.24-41.1,36.24c-26.34,0-45.58-17.37-45.58-43.9C419.16,112.72,438.4,95.16,464.74,95.16z
			 M423.59,20.38l-1.36-0.21c-2.23-0.35-3.4-1.07-3.4-2.95c0-1.81,1.59-3.11,4.16-3.11c2.66,0,4.23,1.18,4.41,3.09l-2.74,0.08
			c-0.12-0.66-0.7-1.07-1.73-1.07c-0.64,0-1.01,0.25-1.01,0.66c0,0.31,0.25,0.47,0.56,0.52l1.79,0.31c2.06,0.33,3.26,1.26,3.26,3.05
			c0,1.94-1.65,3.05-4.27,3.05c-2.54,0-4.43-1.01-4.62-3.24l2.91-0.04c0.12,0.76,0.74,1.2,1.75,1.2c0.74,0,1.13-0.27,1.13-0.64
			C424.44,20.73,424.23,20.48,423.59,20.38z M413.91,10.57h3.5v12.99h-3.5V10.57z M448.01,233.63h26.6l35.14,88.2h-25.34
			l-6.58-17.08h-34.44l-6.58,17.08h-23.94L448.01,233.63z M393.17,14.36h3.34v1.38c0.49-1.01,1.48-1.63,2.87-1.63
			c1.63,0,2.47,0.74,2.87,1.81c0.49-1.03,1.59-1.81,3.13-1.81c2.54,0,3.28,1.75,3.28,3.67v5.77h-3.34v-4.89
			c0-1.26-0.23-1.92-1.24-1.92c-1.11,0-1.48,0.91-1.48,2.29v4.51h-3.34v-4.89c0-1.26-0.25-1.92-1.26-1.92
			c-1.09,0-1.48,0.91-1.48,2.29v4.51h-3.34V14.36z M387.96,20.38l-1.36-0.21c-2.23-0.35-3.4-1.07-3.4-2.95
			c0-1.81,1.59-3.11,4.16-3.11c2.66,0,4.23,1.18,4.41,3.09l-2.74,0.08c-0.12-0.66-0.7-1.07-1.73-1.07c-0.64,0-1.01,0.25-1.01,0.66
			c0,0.31,0.25,0.47,0.56,0.52l1.79,0.31c2.06,0.33,3.26,1.26,3.26,3.05c0,1.94-1.65,3.05-4.27,3.05c-2.54,0-4.43-1.01-4.62-3.24
			l2.91-0.04c0.12,0.76,0.74,1.2,1.75,1.2c0.74,0,1.13-0.27,1.13-0.64C388.8,20.73,388.6,20.48,387.96,20.38z M378.5,10.57h3.38
			v2.93h-3.38V10.57z M381.86,14.36v9.19h-3.34v-9.19H381.86z M376.76,63.03h30.63v26.52h-30.63V63.03z M373.37,10.57h3.34v12.99
			h-3.34V10.57z M366.67,16.59c-0.74,0-1.11,0.47-1.26,1.15l-3.09-0.21c0.29-2.02,1.79-3.42,4.56-3.42c2.43,0,4.23,1.05,4.23,3.61
			v3.13c0,0.47,0.21,0.68,0.56,0.68c0.27,0,0.47-0.04,0.74-0.14v1.77c-0.47,0.33-1.13,0.6-2.08,0.6c-1.13,0-2.02-0.58-2.33-1.63
			c-0.54,1.07-1.59,1.63-3.05,1.63c-1.79,0-2.97-0.93-2.97-2.49c0-1.77,1.28-2.54,3.28-2.89l2.58-0.43V17.8
			C367.82,17.04,367.47,16.59,366.67,16.59z M354.22,14.61l0.68-0.1c0.93-0.14,1.22-0.64,1.44-1.48l0.31-1.2h2.1v2.54h2.39v2.31
			h-2.39v3.36c0,0.78,0.37,1.09,1.05,1.09c0.41,0,0.87-0.08,1.42-0.31v2.16c-0.7,0.52-1.5,0.82-2.76,0.82
			c-1.55,0-3.01-0.64-3.01-2.8v-4.33h-1.24V14.61z M349.95,10.57h3.38v2.93h-3.38V10.57z M338.2,14.36h3.34v1.59
			c0.45-1.09,1.48-1.83,3.03-1.83c2.7,0,4.08,2.14,4.08,4.84c0,2.72-1.38,4.84-4.08,4.84c-1.55,0-2.58-0.74-3.03-1.81v4.87h-3.34
			V14.36z M331.51,16.59c-0.74,0-1.11,0.47-1.26,1.15l-3.09-0.21c0.29-2.02,1.79-3.42,4.56-3.42c2.43,0,4.23,1.05,4.23,3.61v3.13
			c0,0.47,0.21,0.68,0.56,0.68c0.27,0,0.47-0.04,0.74-0.14v1.77c-0.47,0.33-1.13,0.6-2.08,0.6c-1.13,0-2.02-0.58-2.33-1.63
			c-0.54,1.07-1.59,1.63-3.05,1.63c-1.79,0-2.97-0.93-2.97-2.49c0-1.77,1.28-2.54,3.28-2.89l2.58-0.43V17.8
			C332.66,17.04,332.31,16.59,331.51,16.59z M319.72,10.32c3.98,0,6.1,2.54,6.35,5.77l-3.36,0.12c-0.21-1.44-0.99-2.78-3.01-2.78
			c-1.92,0-3.03,1.42-3.03,3.63s1.11,3.63,3.03,3.63c2.02,0,2.8-1.34,3.01-2.78l3.36,0.14c-0.25,3.24-2.37,5.75-6.35,5.75
			c-3.79,0-6.66-2.74-6.66-6.74S315.92,10.32,319.72,10.32z M306.63,20.01h3.55v3.55h-3.55V20.01z M262.3,14.36l1.65,5.22h0.08
			l1.34-5.22h2.66l1.34,5.22h0.08l1.65-5.22h2.92h0.09h3.23l1.65,5.22h0.08l1.34-5.22h2.66l1.34,5.22h0.08l1.65-5.22h2.92h0.09h3.23
			l1.65,5.22h0.08l1.34-5.22h2.66l1.34,5.22h0.08l1.65-5.22h3.01l-2.91,9.19h-3.28l-1.34-5.19h-0.08l-1.34,5.19h-3.28l-2.86-9.06
			l-2.86,9.06h-3.28l-1.34-5.19h-0.08l-1.34,5.19h-3.28l-2.86-9.06l-2.86,9.06h-3.28l-1.34-5.19h-0.08l-1.34,5.19h-3.28l-2.91-9.19
			H262.3z M214.63,95.16c27.83,0,42.59,19.05,42.59,41.66v8.41h-58.47c0.75,10.27,8.22,15.13,17.37,15.13
			c8.22,0,13.45-2.8,16.25-9.34l24.28,2.24c-4.3,19.05-19.61,29.7-41.66,29.7c-26.71,0-45.77-16.06-45.77-42.59
			C169.24,114.03,188.66,95.16,214.63,95.16z M221.74,467.38v-91.12h40.73v164.48h-35.51l-71.01-97.38v97.38h-40.73V376.27h42.29
			L221.74,467.38z M24.85,63.03h49.13L91.35,137h0.56l16.62-73.97h48.01v117.68h-31.76V97.96h-0.75l-21.11,82.75H75.84L54.73,97.96
			h-0.75v82.75H24.85V63.03z M19.25,780.88c0,0.39,0.04,0.89,0.14,1.34c0.35-0.19,0.74-0.29,1.18-0.29c1.94,0,3.13,1.88,3.13,4.47
			c0,0.74-0.08,1.4-0.27,2c0.1,0.12,0.25,0.19,0.43,0.19c0.31,0,0.56-0.23,0.56-0.78v-3.81c0-2.08,1.09-3.13,2.64-3.13
			c2.29,0,3.34,2.78,3.34,5.77c0,2.62-0.52,4.89-2.25,4.89c-0.8,0-1.44-0.72-1.53-1.75c-0.27,0.82-1.01,1.32-1.79,1.32
			c-0.89,0-1.57-0.58-1.94-1.57c-0.54,0.82-1.32,1.32-2.33,1.32c-1.96,0-3.15-1.86-3.15-4.43c0-1.11,0.27-2.16,0.74-2.95
			c-0.76-0.56-1.42-1.57-1.42-2.58H19.25z M13.87,848.71h2.93v3.38h-2.93V848.71z M13.87,862.97l8.64-3.22v-0.08l-8.64-3.22v-3.48
			l12.99,4.99v3.69l-12.99,4.99V862.97z M13.87,873.67l12.99-5.17v3.73l-2.51,0.97v5.07l2.51,0.97v3.52l-12.99-5.17V873.67z
			 M13.87,896.71h12.99v3.5H13.87V896.71z M13.87,932.24h2.93v3.38h-2.93V932.24z M13.87,937.41h12.99v3.34H13.87V937.41z
			 M13.87,960.79h2.93v3.38h-2.93V960.79z M19.4,988.05l0.12,3.36c-1.44,0.21-2.78,0.99-2.78,3.01c0,1.92,1.42,3.03,3.63,3.03
			s3.63-1.11,3.63-3.03c0-2.02-1.34-2.8-2.78-3.01l0.14-3.36c3.24,0.25,5.75,2.37,5.75,6.35c0,3.79-2.74,6.66-6.74,6.66
			s-6.74-2.87-6.74-6.66C13.63,990.42,16.16,988.3,19.4,988.05z"/>
		<path class="st5" d="M313.63,118.7c-11.96,0-17.19,8.41-17.19,20.36c0,12.14,5.23,20.55,17.19,20.55
			c10.09,0,16.62-7.85,16.62-19.99v-1.12C330.25,126.54,323.71,118.7,313.63,118.7z"/>
		<path class="st5" d="M527.51,25.37c1.55,0,2.68-0.31,2.68-0.87c0-0.39-0.29-0.54-0.85-0.54h-3.38c-0.37,0-0.62,0.21-0.62,0.56
			C525.35,25.18,526.27,25.37,527.51,25.37z"/>
		<polygon class="st5" points="460.89,260.93 460.33,260.93 450.25,286.97 470.97,286.97 		"/>
		<ellipse class="st5" cx="295.27" cy="290.61" rx="11.34" ry="15.82"/>
		<polygon class="st5" points="438.43,14.59 438.35,14.59 436.87,18.42 439.92,18.42 		"/>
		<polygon class="st5" points="304.4,591.51 306.17,591.51 306.66,589.49 304.89,589.49 		"/>
		<path class="st5" d="M509.1,21.29c1.15,0,1.67-0.95,1.67-2.33c0-1.38-0.52-2.33-1.67-2.33c-1.17,0-1.67,0.95-1.67,2.33
			C507.44,20.34,507.93,21.29,509.1,21.29z"/>
		<path class="st5" d="M527.76,18.61c0.56,0,0.97-0.52,0.97-1.34c0-0.8-0.41-1.32-0.97-1.32c-0.56,0-0.97,0.52-0.97,1.32
			C526.79,18.09,527.2,18.61,527.76,18.61z"/>
		<path class="st5" d="M541.7,156.06c0,4.3,3.36,7.1,8.41,7.1c8.59,0,15.5-6.35,15.5-17.19v-1.31l-12.33,2.24
			C546,148.4,541.7,150.64,541.7,156.06z"/>
		<path class="st5" d="M728.87,116.83c-9.71,0-14.01,5.98-15.13,13.82h29.33C742.69,123.18,737.83,116.83,728.87,116.83z"/>
		<path class="st5" d="M330.02,20.83c0,0.47,0.37,0.78,0.93,0.78c0.95,0,1.71-0.7,1.71-1.9v-0.14l-1.36,0.25
			C330.5,19.99,330.02,20.24,330.02,20.83z"/>
		<polygon class="st5" points="436.14,588.03 436.05,588.03 434.57,591.86 437.62,591.86 		"/>
		<ellipse class="st5" cx="365.59" cy="458.51" rx="39.68" ry="46.21"/>
		<path class="st5" d="M331.05,594.27c0,0.47,0.37,0.78,0.93,0.78c0.95,0,1.71-0.7,1.71-1.9v-0.14l-1.36,0.25
			C331.53,593.43,331.05,593.67,331.05,594.27z"/>
		<path class="st5" d="M343.4,21.22c1.3,0,1.9-0.93,1.9-2.27c0-1.32-0.6-2.25-1.9-2.25c-1.13,0-1.86,0.87-1.86,2.19v0.12
			C341.54,20.36,342.27,21.22,343.4,21.22z"/>
		<path class="st5" d="M365.18,20.83c0,0.47,0.37,0.78,0.93,0.78c0.95,0,1.71-0.7,1.71-1.9v-0.14l-1.36,0.25
			C365.66,19.99,365.18,20.24,365.18,20.83z"/>
		<path class="st5" d="M366.21,594.27c0,0.47,0.37,0.78,0.93,0.78c0.95,0,1.71-0.7,1.71-1.9v-0.14l-1.36,0.25
			C366.69,593.43,366.21,593.67,366.21,594.27z"/>
		<path class="st5" d="M342.57,592.46c0,1.34,0.72,2.21,1.86,2.21c1.3,0,1.9-0.93,1.9-2.27c0-1.32-0.6-2.25-1.9-2.25
			c-1.13,0-1.86,0.87-1.86,2.19V592.46z"/>
		<polygon points="53.99,97.96 54.73,97.96 75.84,180.71 102.93,180.71 124.04,97.96 124.78,97.96 124.78,180.71 156.54,180.71 
			156.54,63.03 108.53,63.03 91.91,137 91.35,137 73.97,63.03 24.85,63.03 24.85,180.71 53.99,180.71 		"/>
		<path d="M215,182.96c22.04,0,37.36-10.65,41.66-29.7l-24.28-2.24c-2.8,6.54-8.03,9.34-16.25,9.34c-9.15,0-16.62-4.86-17.37-15.13
			h58.47v-8.41c0-22.6-14.76-41.66-42.59-41.66c-25.96,0-45.39,18.87-45.39,45.21C169.24,166.89,188.29,182.96,215,182.96z
			 M214.26,116.83c8.97,0,13.82,6.35,14.2,13.82h-29.33C200.25,122.81,204.54,116.83,214.26,116.83z"/>
		<path d="M330.25,111.79c-3.92-9.9-13.45-16.62-27.27-16.62c-24.66,0-36.99,19.43-36.99,43.9c0,24.66,12.33,43.9,36.99,43.9
			c13.82,0,23.35-6.72,27.27-16.44v14.2h30.26V63.03h-30.26V111.79z M330.25,139.62c0,12.14-6.54,19.99-16.62,19.99
			c-11.96,0-17.19-8.41-17.19-20.55c0-11.96,5.23-20.36,17.19-20.36c10.09,0,16.62,7.85,16.62,19.8V139.62z"/>
		<rect x="376.76" y="63.03" width="30.63" height="26.52"/>
		<rect x="376.95" y="97.4" width="30.26" height="83.31"/>
		<path d="M464.74,182.96c25.03,0,39.04-16.06,41.1-36.24l-24.84-1.87c-2.05,10.27-7.1,15.32-15.88,15.32
			c-9.15,0-15.5-6.16-15.5-21.11s6.35-21.11,15.5-21.11c8.78,0,13.82,4.86,15.88,15.13l24.84-1.68
			c-2.05-19.99-16.06-36.24-41.1-36.24c-26.34,0-45.58,17.56-45.58,43.9C419.16,165.58,438.4,182.96,464.74,182.96z"/>
		<path d="M515.73,126.17l28.02,1.87c1.31-6.16,4.67-10.46,11.39-10.46c7.29,0,10.46,4.11,10.46,11.02v1.31l-23.35,3.92
			c-18.12,3.18-29.7,10.09-29.7,26.15c0,14.2,10.65,22.6,26.9,22.6c13.26,0,22.79-5.04,27.65-14.76
			c2.8,9.53,10.83,14.76,21.11,14.76c8.59,0,14.57-2.43,18.87-5.42V161.1c-2.43,0.93-4.3,1.31-6.72,1.31
			c-3.18,0-5.04-1.87-5.04-6.16v-28.39c0-23.16-16.25-32.69-38.29-32.69C531.99,95.16,518.35,107.86,515.73,126.17z M565.61,145.97
			c0,10.83-6.91,17.19-15.5,17.19c-5.04,0-8.41-2.8-8.41-7.1c0-5.42,4.3-7.66,11.58-9.15l12.33-2.24V145.97z"/>
		<path d="M646.12,142.61c0-14.01,6.91-19.24,18.12-19.24c5.79,0,10.27,1.12,14.38,3.55l1.87-28.58c-2.05-1.68-6.54-3.18-11.58-3.18
			c-11.02,0-19.8,7.66-22.79,17V97.4h-30.26v83.31h30.26V142.61z"/>
		<path d="M729.61,182.96c22.04,0,37.36-10.65,41.66-29.7l-24.28-2.24c-2.8,6.54-8.03,9.34-16.25,9.34
			c-9.15,0-16.62-4.86-17.37-15.13h58.47v-8.41c0-22.6-14.76-41.66-42.59-41.66c-25.96,0-45.39,18.87-45.39,45.21
			C683.85,166.89,702.9,182.96,729.61,182.96z M728.87,116.83c8.97,0,13.82,6.35,14.2,13.82h-29.33
			C714.86,122.81,719.15,116.83,728.87,116.83z"/>
		<path d="M248.79,248.19c2.94,0,4.62,1.54,6.02,4.34l13.86-4.34c-2.52-10.36-10.64-16.24-22.4-16.24
			c-14.98,0-25.06,8.54-25.06,24.78v2.66h-8.96v15.68h8.96v46.76h22.4v-46.76h15.82v-15.68h-15.82v-4.2
			C243.61,251.27,245.01,248.19,248.79,248.19z"/>
		<path d="M295.27,323.51c20.3,0,34.16-13.44,34.16-32.9c0-19.32-13.86-32.9-34.16-32.9c-20.44,0-34.16,13.58-34.16,32.9
			C261.11,310.07,274.83,323.51,295.27,323.51z M295.27,274.79c7.84,0,11.34,6.44,11.34,15.82s-3.5,15.82-11.34,15.82
			c-7.98,0-11.34-6.44-11.34-15.82S287.29,274.79,295.27,274.79z"/>
		<path d="M338.39,259.39v62.44h22.68v-28.56c0-10.5,5.18-14.42,13.58-14.42c4.34,0,7.7,0.84,10.78,2.66l1.4-21.42
			c-1.54-1.26-4.9-2.38-8.68-2.38c-8.26,0-14.84,5.74-17.08,12.74v-11.06H338.39z"/>
		<path d="M443.39,304.75h34.44l6.58,17.08h25.34l-35.14-88.2h-26.6l-35.14,88.2h23.94L443.39,304.75z M460.33,260.93h0.56
			l10.08,26.04h-20.72L460.33,260.93z"/>
		<rect x="515.91" y="233.63" width="22.68" height="88.2"/>
		<rect x="550.91" y="233.63" width="22.68" height="88.2"/>
		<polygon points="115.22,540.75 155.95,540.75 155.95,443.36 226.96,540.75 262.47,540.75 262.47,376.27 221.74,376.27 
			221.74,467.38 157.51,376.27 115.22,376.27 		"/>
		<path d="M365.59,373.13c-47.78,0-85.37,34.72-85.37,85.37c0,50.65,37.6,85.37,85.37,85.37c47.78,0,85.37-34.72,85.37-85.37
			C450.96,407.86,413.36,373.13,365.59,373.13z M365.59,504.72c-24.28,0-39.68-18.28-39.68-46.21c0-27.94,15.4-46.21,39.68-46.21
			c24.28,0,39.68,18.28,39.68,46.21C405.27,486.44,389.87,504.72,365.59,504.72z"/>
		<polygon points="453.56,376.27 496.64,540.75 543.11,540.75 570.53,436.84 571.57,436.84 598.98,540.75 646.24,540.75 
			689.32,376.27 646.5,376.27 620.39,479.39 619.35,479.39 592.2,376.27 552.25,376.27 525.1,479.39 524.05,479.39 497.95,376.27 		
			"/>
		<polygon points="265.16,23.55 266.5,18.36 266.58,18.36 267.92,23.55 271.2,23.55 274.07,14.5 276.93,23.55 280.21,23.55 
			281.55,18.36 281.63,18.36 282.97,23.55 286.25,23.55 289.11,14.5 291.98,23.55 295.25,23.55 296.59,18.36 296.68,18.36 
			298.02,23.55 301.29,23.55 304.2,14.36 301.19,14.36 299.54,19.58 299.46,19.58 298.12,14.36 295.46,14.36 294.12,19.58 
			294.04,19.58 292.39,14.36 289.15,14.36 289.07,14.36 286.15,14.36 284.5,19.58 284.41,19.58 283.07,14.36 280.41,14.36 
			279.07,19.58 278.99,19.58 277.34,14.36 274.11,14.36 274.02,14.36 271.1,14.36 269.45,19.58 269.37,19.58 268.03,14.36 
			265.37,14.36 264.03,19.58 263.95,19.58 262.3,14.36 258.98,14.36 261.88,23.55 		"/>
		<rect x="306.63" y="20.01" width="3.55" height="3.55"/>
		<path d="M319.72,23.8c3.98,0,6.1-2.52,6.35-5.75l-3.36-0.14c-0.21,1.44-0.99,2.78-3.01,2.78c-1.92,0-3.03-1.42-3.03-3.63
			s1.11-3.63,3.03-3.63c2.02,0,2.8,1.34,3.01,2.78l3.36-0.12c-0.25-3.24-2.37-5.77-6.35-5.77c-3.79,0-6.66,2.74-6.66,6.74
			S315.92,23.8,319.72,23.8z"/>
		<path d="M330.08,18.38c-2,0.35-3.28,1.11-3.28,2.89c0,1.57,1.17,2.49,2.97,2.49c1.46,0,2.52-0.56,3.05-1.63
			c0.31,1.05,1.2,1.63,2.33,1.63c0.95,0,1.61-0.27,2.08-0.6v-1.77c-0.27,0.1-0.47,0.14-0.74,0.14c-0.35,0-0.56-0.21-0.56-0.68v-3.13
			c0-2.56-1.79-3.61-4.23-3.61c-2.76,0-4.27,1.4-4.56,3.42l3.09,0.21c0.14-0.68,0.52-1.15,1.26-1.15c0.8,0,1.15,0.45,1.15,1.22v0.14
			L330.08,18.38z M332.66,19.72c0,1.2-0.76,1.9-1.71,1.9c-0.56,0-0.93-0.31-0.93-0.78c0-0.6,0.47-0.85,1.28-1.01l1.36-0.25V19.72z"
			/>
		<path d="M341.54,21.99c0.45,1.07,1.48,1.81,3.03,1.81c2.7,0,4.08-2.12,4.08-4.84c0-2.7-1.38-4.84-4.08-4.84
			c-1.55,0-2.58,0.74-3.03,1.83v-1.59h-3.34v12.49h3.34V21.99z M341.54,18.9c0-1.32,0.72-2.19,1.86-2.19c1.3,0,1.9,0.93,1.9,2.25
			c0,1.34-0.6,2.27-1.9,2.27c-1.13,0-1.86-0.87-1.86-2.21V18.9z"/>
		<rect x="349.95" y="10.57" width="3.38" height="2.93"/>
		<rect x="349.97" y="14.36" width="3.34" height="9.19"/>
		<path d="M355.46,21c0,2.16,1.46,2.8,3.01,2.8c1.26,0,2.06-0.31,2.76-0.82v-2.16c-0.56,0.23-1.01,0.31-1.42,0.31
			c-0.68,0-1.05-0.31-1.05-1.09v-3.36h2.39v-2.31h-2.39v-2.54h-2.1l-0.31,1.2c-0.23,0.85-0.52,1.34-1.44,1.48l-0.68,0.1v2.06h1.24
			V21z"/>
		<path d="M365.25,18.38c-2,0.35-3.28,1.11-3.28,2.89c0,1.57,1.17,2.49,2.97,2.49c1.46,0,2.52-0.56,3.05-1.63
			c0.31,1.05,1.2,1.63,2.33,1.63c0.95,0,1.61-0.27,2.08-0.6v-1.77c-0.27,0.1-0.47,0.14-0.74,0.14c-0.35,0-0.56-0.21-0.56-0.68v-3.13
			c0-2.56-1.79-3.61-4.23-3.61c-2.76,0-4.27,1.4-4.56,3.42l3.09,0.21c0.14-0.68,0.52-1.15,1.26-1.15c0.8,0,1.15,0.45,1.15,1.22v0.14
			L365.25,18.38z M367.82,19.72c0,1.2-0.76,1.9-1.71,1.9c-0.56,0-0.93-0.31-0.93-0.78c0-0.6,0.47-0.85,1.28-1.01l1.36-0.25V19.72z"
			/>
		<rect x="373.37" y="10.57" width="3.34" height="12.99"/>
		<rect x="378.52" y="14.36" width="3.34" height="9.19"/>
		<rect x="378.5" y="10.57" width="3.38" height="2.93"/>
		<path d="M387.67,21.72c-1.01,0-1.63-0.43-1.75-1.2l-2.91,0.04c0.19,2.23,2.08,3.24,4.62,3.24c2.62,0,4.27-1.11,4.27-3.05
			c0-1.79-1.2-2.72-3.26-3.05l-1.79-0.31c-0.31-0.04-0.56-0.21-0.56-0.52c0-0.41,0.37-0.66,1.01-0.66c1.03,0,1.61,0.41,1.73,1.07
			l2.74-0.08c-0.19-1.92-1.75-3.09-4.41-3.09c-2.58,0-4.16,1.3-4.16,3.11c0,1.88,1.17,2.6,3.4,2.95l1.36,0.21
			c0.64,0.1,0.85,0.35,0.85,0.7C388.8,21.45,388.41,21.72,387.67,21.72z"/>
		<path d="M396.51,19.04c0-1.38,0.39-2.29,1.48-2.29c1.01,0,1.26,0.66,1.26,1.92v4.89h3.34v-4.51c0-1.38,0.37-2.29,1.48-2.29
			c1.01,0,1.24,0.66,1.24,1.92v4.89h3.34v-5.77c0-1.92-0.74-3.67-3.28-3.67c-1.55,0-2.64,0.78-3.13,1.81
			c-0.39-1.07-1.24-1.81-2.87-1.81c-1.38,0-2.37,0.62-2.87,1.63v-1.38h-3.34v9.19h3.34V19.04z"/>
		<rect x="413.91" y="10.57" width="3.5" height="12.99"/>
		<path d="M423.3,21.72c-1.01,0-1.63-0.43-1.75-1.2l-2.91,0.04c0.19,2.23,2.08,3.24,4.62,3.24c2.62,0,4.27-1.11,4.27-3.05
			c0-1.79-1.2-2.72-3.26-3.05l-1.79-0.31c-0.31-0.04-0.56-0.21-0.56-0.52c0-0.41,0.37-0.66,1.01-0.66c1.03,0,1.61,0.41,1.73,1.07
			l2.74-0.08c-0.19-1.92-1.75-3.09-4.41-3.09c-2.58,0-4.16,1.3-4.16,3.11c0,1.88,1.18,2.6,3.4,2.95l1.36,0.21
			c0.64,0.1,0.85,0.35,0.85,0.7C424.44,21.45,424.05,21.72,423.3,21.72z"/>
		<path d="M435.86,21.04h5.07l0.97,2.52h3.73l-5.17-12.99h-3.92l-5.17,12.99h3.52L435.86,21.04z M438.35,14.59h0.08l1.48,3.83h-3.05
			L438.35,14.59z"/>
		<polygon points="456.16,23.55 461.15,10.57 457.66,10.57 454.45,19.2 454.36,19.2 451.15,10.57 447.48,10.57 452.47,23.55 		"/>
		<rect x="462.05" y="14.36" width="3.34" height="9.19"/>
		<rect x="462.03" y="10.57" width="3.38" height="2.93"/>
		<path d="M470.54,19.35c0-1.55,0.76-2.12,2-2.12c0.64,0,1.13,0.12,1.59,0.39l0.21-3.15c-0.23-0.19-0.72-0.35-1.28-0.35
			c-1.22,0-2.19,0.85-2.52,1.88v-1.63h-3.34v9.19h3.34V19.35z"/>
		<path d="M478.54,23.8c1.38,0,2.39-0.6,2.89-1.63v1.38h3.34v-9.19h-3.34v4.51c0,1.4-0.41,2.31-1.46,2.31
			c-1.01,0-1.36-0.68-1.36-1.92v-4.91h-3.34v5.79C475.26,22.07,476.02,23.8,478.54,23.8z"/>
		<path d="M490.58,21.72c-1.01,0-1.63-0.43-1.75-1.2l-2.91,0.04c0.19,2.23,2.08,3.24,4.62,3.24c2.62,0,4.27-1.11,4.27-3.05
			c0-1.79-1.2-2.72-3.26-3.05l-1.79-0.31c-0.31-0.04-0.56-0.21-0.56-0.52c0-0.41,0.37-0.66,1.01-0.66c1.03,0,1.61,0.41,1.73,1.07
			l2.74-0.08c-0.19-1.92-1.75-3.09-4.41-3.09c-2.58,0-4.16,1.3-4.16,3.11c0,1.88,1.18,2.6,3.4,2.95l1.36,0.21
			c0.64,0.1,0.85,0.35,0.85,0.7C491.71,21.45,491.32,21.72,490.58,21.72z"/>
		<rect x="497.64" y="20.01" width="3.55" height="3.55"/>
		<path d="M509.1,23.8c2.99,0,5.03-1.98,5.03-4.84c0-2.84-2.04-4.84-5.03-4.84c-3.01,0-5.03,2-5.03,4.84
			C504.07,21.82,506.09,23.8,509.1,23.8z M509.1,16.63c1.15,0,1.67,0.95,1.67,2.33c0,1.38-0.52,2.33-1.67,2.33
			c-1.17,0-1.67-0.95-1.67-2.33C507.44,17.58,507.93,16.63,509.1,16.63z"/>
		<path d="M518.79,19.35c0-1.55,0.76-2.12,2-2.12c0.64,0,1.13,0.12,1.59,0.39l0.21-3.15c-0.23-0.19-0.72-0.35-1.28-0.35
			c-1.22,0-2.19,0.85-2.52,1.88v-1.63h-3.34v9.19h3.34V19.35z"/>
		<path d="M522.6,24.85c0,1.73,2.27,2.25,4.89,2.25c2.99,0,5.77-1.05,5.77-3.34c0-1.55-1.05-2.64-3.13-2.64h-3.81
			c-0.56,0-0.78-0.25-0.78-0.56c0-0.19,0.06-0.33,0.19-0.43c0.6,0.19,1.26,0.27,2,0.27c2.6,0,4.47-1.2,4.47-3.13
			c0-0.43-0.1-0.82-0.29-1.17c0.45-0.1,0.95-0.14,1.34-0.14v-2.51c-1.01,0-2.02,0.66-2.58,1.42c-0.78-0.47-1.83-0.74-2.95-0.74
			c-2.58,0-4.43,1.2-4.43,3.15c0,1.01,0.49,1.79,1.32,2.33c-0.99,0.37-1.57,1.05-1.57,1.94c0,0.78,0.49,1.53,1.32,1.79
			C523.33,23.41,522.6,24.05,522.6,24.85z M527.76,15.95c0.56,0,0.97,0.52,0.97,1.32c0,0.82-0.41,1.34-0.97,1.34
			c-0.56,0-0.97-0.52-0.97-1.34C526.79,16.46,527.2,15.95,527.76,15.95z M525.96,23.97h3.38c0.56,0,0.85,0.14,0.85,0.54
			c0,0.56-1.13,0.87-2.68,0.87c-1.24,0-2.16-0.19-2.16-0.84C525.35,24.17,525.59,23.97,525.96,23.97z"/>
		<path d="M311.03,589.49l0.43-2.06h-1.83l0.82-3.42h-2.49l-0.82,3.42h-1.77l0.83-3.42h-2.49l-0.82,3.42h-2.02l-0.43,2.06h1.98
			l-0.49,2.02h-1.88l-0.43,2.06h1.81l-0.8,3.42h2.49l0.8-3.42h1.77l-0.8,3.42h2.49l0.8-3.42h2.04l0.43-2.06h-1.98l0.49-2.02H311.03z
			 M306.17,591.51h-1.77l0.5-2.02h1.77L306.17,591.51z"/>
		<path d="M320.73,586.87c2.02,0,2.8,1.34,3.01,2.78l3.36-0.12c-0.25-3.24-2.37-5.77-6.35-5.77c-3.79,0-6.66,2.74-6.66,6.74
			c0,4,2.87,6.74,6.66,6.74c3.98,0,6.1-2.52,6.35-5.75l-3.36-0.14c-0.21,1.44-0.99,2.78-3.01,2.78c-1.92,0-3.03-1.42-3.03-3.63
			C317.7,588.29,318.81,586.87,320.73,586.87z"/>
		<path d="M331.11,591.82c-2,0.35-3.28,1.11-3.28,2.89c0,1.57,1.18,2.49,2.97,2.49c1.46,0,2.52-0.56,3.05-1.63
			c0.31,1.05,1.2,1.63,2.33,1.63c0.95,0,1.61-0.27,2.08-0.6v-1.77c-0.27,0.1-0.47,0.14-0.74,0.14c-0.35,0-0.56-0.21-0.56-0.68v-3.13
			c0-2.56-1.79-3.61-4.23-3.61c-2.76,0-4.27,1.4-4.56,3.42l3.09,0.21c0.14-0.68,0.52-1.15,1.26-1.15c0.8,0,1.15,0.45,1.15,1.22v0.14
			L331.11,591.82z M333.69,593.16c0,1.2-0.76,1.9-1.71,1.9c-0.56,0-0.93-0.31-0.93-0.78c0-0.6,0.47-0.85,1.28-1.01l1.36-0.25V593.16
			z"/>
		<path d="M339.23,587.8v12.49h3.34v-4.87c0.45,1.07,1.48,1.81,3.03,1.81c2.7,0,4.08-2.12,4.08-4.84c0-2.7-1.38-4.84-4.08-4.84
			c-1.55,0-2.58,0.74-3.03,1.83v-1.59H339.23z M344.43,590.15c1.3,0,1.9,0.93,1.9,2.25c0,1.34-0.6,2.27-1.9,2.27
			c-1.13,0-1.86-0.87-1.86-2.21v-0.12C342.57,591.02,343.29,590.15,344.43,590.15z"/>
		<rect x="351" y="587.8" width="3.34" height="9.19"/>
		<rect x="350.98" y="584.01" width="3.38" height="2.93"/>
		<path d="M359.49,597.24c1.26,0,2.06-0.31,2.76-0.82v-2.16c-0.56,0.23-1.01,0.31-1.42,0.31c-0.68,0-1.05-0.31-1.05-1.09v-3.36h2.39
			v-2.31h-2.39v-2.54h-2.1l-0.31,1.2c-0.23,0.85-0.52,1.34-1.44,1.48l-0.68,0.1v2.06h1.24v4.33
			C356.48,596.6,357.95,597.24,359.49,597.24z"/>
		<path d="M366.27,591.82c-2,0.35-3.28,1.11-3.28,2.89c0,1.57,1.18,2.49,2.97,2.49c1.46,0,2.51-0.56,3.05-1.63
			c0.31,1.05,1.2,1.63,2.33,1.63c0.95,0,1.61-0.27,2.08-0.6v-1.77c-0.27,0.1-0.47,0.14-0.74,0.14c-0.35,0-0.56-0.21-0.56-0.68v-3.13
			c0-2.56-1.79-3.61-4.23-3.61c-2.76,0-4.27,1.4-4.56,3.42l3.09,0.21c0.14-0.68,0.52-1.15,1.26-1.15c0.8,0,1.15,0.45,1.15,1.22v0.14
			L366.27,591.82z M368.85,593.16c0,1.2-0.76,1.9-1.71,1.9c-0.56,0-0.93-0.31-0.93-0.78c0-0.6,0.47-0.85,1.28-1.01l1.36-0.25V593.16
			z"/>
		<rect x="374.39" y="584.01" width="3.34" height="12.99"/>
		<rect x="379.55" y="587.8" width="3.34" height="9.19"/>
		<rect x="379.53" y="584.01" width="3.38" height="2.93"/>
		<path d="M388.7,595.16c-1.01,0-1.63-0.43-1.75-1.2l-2.91,0.04c0.19,2.23,2.08,3.24,4.62,3.24c2.62,0,4.27-1.11,4.27-3.05
			c0-1.79-1.2-2.72-3.26-3.05l-1.79-0.31c-0.31-0.04-0.56-0.21-0.56-0.52c0-0.41,0.37-0.66,1.01-0.66c1.03,0,1.61,0.41,1.73,1.07
			l2.74-0.08c-0.19-1.92-1.75-3.09-4.41-3.09c-2.58,0-4.16,1.3-4.16,3.11c0,1.88,1.18,2.6,3.4,2.95l1.36,0.21
			c0.64,0.1,0.85,0.35,0.85,0.7C389.83,594.89,389.44,595.16,388.7,595.16z"/>
		<path d="M409.68,596.99v-5.77c0-1.92-0.74-3.67-3.28-3.67c-1.55,0-2.64,0.78-3.13,1.81c-0.39-1.07-1.24-1.81-2.87-1.81
			c-1.38,0-2.37,0.62-2.87,1.63v-1.38h-3.34v9.19h3.34v-4.51c0-1.38,0.39-2.29,1.48-2.29c1.01,0,1.26,0.66,1.26,1.92v4.89h3.34
			v-4.51c0-1.38,0.37-2.29,1.48-2.29c1.01,0,1.24,0.66,1.24,1.92v4.89H409.68z"/>
		<rect x="413.27" y="584.01" width="3.5" height="12.99"/>
		<path d="M422.67,595.16c-1.01,0-1.63-0.43-1.75-1.2l-2.91,0.04c0.19,2.23,2.08,3.24,4.62,3.24c2.62,0,4.27-1.11,4.27-3.05
			c0-1.79-1.2-2.72-3.26-3.05l-1.79-0.31c-0.31-0.04-0.56-0.21-0.56-0.52c0-0.41,0.37-0.66,1.01-0.66c1.03,0,1.61,0.41,1.73,1.07
			l2.74-0.08c-0.19-1.92-1.75-3.09-4.41-3.09c-2.58,0-4.16,1.3-4.16,3.11c0,1.88,1.18,2.6,3.4,2.95l1.36,0.21
			c0.64,0.1,0.85,0.35,0.85,0.7C423.8,594.89,423.41,595.16,422.67,595.16z"/>
		<path d="M429.07,596.99h3.52l0.97-2.51h5.07l0.97,2.51h3.73l-5.17-12.99h-3.92L429.07,596.99z M436.05,588.03h0.08l1.48,3.83
			h-3.05L436.05,588.03z"/>
		<polygon points="452.01,592.64 448.8,584.01 445.13,584.01 450.12,596.99 453.81,596.99 458.8,584.01 455.31,584.01 452.1,592.64 
					"/>
		<rect x="459.68" y="584.01" width="3.38" height="2.93"/>
		<rect x="459.7" y="587.8" width="3.34" height="9.19"/>
		<path d="M464.85,587.8v9.19h3.34v-4.21c0-1.55,0.76-2.12,2-2.12c0.64,0,1.13,0.12,1.59,0.39l0.21-3.15
			c-0.23-0.19-0.72-0.35-1.28-0.35c-1.22,0-2.19,0.85-2.52,1.88v-1.63H464.85z"/>
		<path d="M482.41,596.99v-9.19h-3.34v4.51c0,1.4-0.41,2.31-1.46,2.31c-1.01,0-1.36-0.68-1.36-1.92v-4.91h-3.34v5.79
			c0,1.92,0.76,3.65,3.28,3.65c1.38,0,2.39-0.6,2.89-1.63v1.38H482.41z"/>
		<path d="M488.23,595.16c-1.01,0-1.63-0.43-1.75-1.2l-2.91,0.04c0.19,2.23,2.08,3.24,4.62,3.24c2.62,0,4.27-1.11,4.27-3.05
			c0-1.79-1.2-2.72-3.26-3.05l-1.79-0.31c-0.31-0.04-0.56-0.21-0.56-0.52c0-0.41,0.37-0.66,1.01-0.66c1.03,0,1.61,0.41,1.73,1.07
			l2.74-0.08c-0.19-1.92-1.75-3.09-4.41-3.09c-2.58,0-4.16,1.3-4.16,3.11c0,1.88,1.17,2.6,3.4,2.95l1.36,0.21
			c0.64,0.1,0.85,0.35,0.85,0.7C489.36,594.89,488.97,595.16,488.23,595.16z"/>
	</g>
</g>
</svg>
