<?xml version="1.0" encoding="utf-8"?>
<!-- Generator: Adobe Illustrator 23.1.1, SVG Export Plug-In . SVG Version: 6.00 Build 0)  -->
<svg version="1.1" xmlns="http://www.w3.org/2000/svg" xmlns:xlink="http://www.w3.org/1999/xlink" x="0px" y="0px"
	 viewBox="0 0 792 612" style="enable-background:new 0 0 792 612;" xml:space="preserve">
<style type="text/css">
	.st0{display:none;}
	.st1{display:inline;fill:#FFFFFF;}
	.st2{display:inline;}
	.st3{fill:#FFFFFF;stroke:#000000;stroke-width:16;stroke-linecap:round;stroke-linejoin:round;stroke-miterlimit:10;}
	.st4{fill:none;stroke:#000000;stroke-width:24;stroke-linejoin:round;stroke-miterlimit:10;}
	.st5{fill:#FFFFFF;}
	.st6{fill:#FFFFFF;stroke:#000000;stroke-width:17;stroke-linecap:round;stroke-miterlimit:10;}
	.st7{fill:#FFFFFF;stroke:#000000;stroke-width:17;stroke-miterlimit:10;}
	.st8{stroke:#000000;stroke-width:16.0572;stroke-linecap:round;stroke-miterlimit:10;}
	.st9{fill:#FFFFFF;stroke:#000000;stroke-width:13.497;stroke-linecap:round;stroke-linejoin:round;stroke-miterlimit:10;}
	.st10{stroke:#000000;stroke-width:18.3348;stroke-linecap:round;stroke-miterlimit:10;}
	.st11{fill:none;stroke:#000000;stroke-width:13.497;stroke-linecap:round;stroke-linejoin:round;stroke-miterlimit:10;}
	.st12{fill:#FFFFFF;stroke:#000000;stroke-width:14.6942;stroke-linecap:round;stroke-linejoin:round;stroke-miterlimit:10;}
	.st13{fill:none;stroke:#000000;stroke-width:13;stroke-linecap:round;stroke-linejoin:round;stroke-miterlimit:10;}
	.st14{fill:none;stroke:#000000;stroke-width:13;stroke-linejoin:round;stroke-miterlimit:10;}
	.st15{fill:url(#);stroke:#000000;stroke-width:13;stroke-linejoin:round;stroke-miterlimit:10;}
	.st16{fill:none;stroke:#000000;stroke-width:30.5612;stroke-linecap:round;stroke-linejoin:round;stroke-miterlimit:10;}
	.st17{fill:#FFFFFF;stroke:#000000;stroke-width:16.2993;stroke-linecap:round;stroke-linejoin:round;stroke-miterlimit:10;}
	.st18{fill:#FFFFFF;stroke:#000000;stroke-width:13.497;stroke-linecap:round;stroke-miterlimit:10;}
	.st19{fill:url(#);stroke:#000000;stroke-width:13.497;stroke-linecap:round;stroke-linejoin:round;stroke-miterlimit:10;}
	.st20{fill:#FFFFFF;stroke:#000000;stroke-width:11.7326;stroke-linecap:round;stroke-linejoin:round;stroke-miterlimit:10;}
	.st21{fill:#FFFFFF;stroke:#000000;stroke-width:13.2623;stroke-linecap:round;stroke-linejoin:round;stroke-miterlimit:10;}
	.st22{fill:#FFFFFF;stroke:#000000;stroke-width:13.2623;stroke-linecap:round;stroke-miterlimit:10;}
	.st23{stroke:#000000;stroke-width:4.5213;stroke-miterlimit:10;}
	.st24{fill:none;stroke:#000000;stroke-width:16;stroke-linecap:round;stroke-miterlimit:10;}
	.st25{fill:url(#);stroke:#000000;stroke-width:16;stroke-linecap:round;stroke-linejoin:round;stroke-miterlimit:10;}
	.st26{fill:#FFFFFF;stroke:#000000;stroke-width:16;stroke-linecap:round;stroke-miterlimit:10;}
	.st27{fill:none;stroke:#000000;stroke-width:16;stroke-linecap:round;stroke-linejoin:round;stroke-miterlimit:10;}
	.st28{font-family:'FoundersGrotesk-Bold';}
	.st29{font-size:287.6241px;}
	.st30{font-size:134.2032px;}
	.st31{font-size:122.8135px;}
	.st32{font-size:20.6105px;}
	.st33{font-size:10.3052px;}
	.st34{font-size:19.2364px;}
	.st35{font-size:10px;}
	.st36{fill:none;stroke:#000000;stroke-width:15.2344;stroke-linecap:round;stroke-linejoin:round;stroke-miterlimit:10;}
	.st37{fill:#FFFFFF;stroke:#000000;stroke-width:15.2344;stroke-linecap:round;stroke-linejoin:round;stroke-miterlimit:10;}
	.st38{fill:#FFFFFF;stroke:#000000;stroke-width:17;stroke-linecap:round;stroke-linejoin:round;stroke-miterlimit:10;}
	.st39{fill:none;stroke:#000000;stroke-width:9.9764;stroke-linecap:round;stroke-linejoin:round;stroke-miterlimit:10;}
	.st40{fill:none;stroke:#000000;stroke-width:9.3127;stroke-linejoin:round;stroke-miterlimit:10;}
	.st41{fill:url(#);}
	.st42{fill:none;stroke:#000000;stroke-width:8.3796;stroke-linecap:round;stroke-linejoin:round;stroke-miterlimit:10;}
	
		.st43{display:inline;fill:none;stroke:#000000;stroke-width:9.9764;stroke-linecap:round;stroke-linejoin:round;stroke-miterlimit:10;}
	.st44{display:inline;fill:none;stroke:#000000;stroke-width:9.3127;stroke-linejoin:round;stroke-miterlimit:10;}
	.st45{display:inline;fill:url(#);stroke:#000000;stroke-width:10;stroke-linejoin:round;stroke-miterlimit:10;}
	.st46{fill:#FFFFFF;stroke:#000000;stroke-width:14.7375;stroke-linecap:round;stroke-linejoin:round;stroke-miterlimit:10;}
	.st47{fill:none;stroke:#000000;stroke-width:14.7375;stroke-linecap:round;stroke-linejoin:round;stroke-miterlimit:10;}
	.st48{stroke:#000000;stroke-width:14.7375;stroke-linecap:round;stroke-linejoin:round;stroke-miterlimit:10;}
	.st49{fill:#FFFFFF;stroke:#000000;stroke-width:14.2911;stroke-linecap:round;stroke-linejoin:round;stroke-miterlimit:10;}
	.st50{fill:none;stroke:#000000;stroke-width:15;stroke-linecap:round;stroke-linejoin:round;stroke-miterlimit:10;}
	.st51{fill:#FFFFFF;stroke:#000000;stroke-width:15;stroke-linecap:round;stroke-linejoin:round;stroke-miterlimit:10;}
	.st52{fill:#FFFFFF;stroke:#000000;stroke-width:14.8467;stroke-linecap:round;stroke-linejoin:round;stroke-miterlimit:10;}
	.st53{stroke:#000000;stroke-width:20.1683;stroke-linecap:round;stroke-miterlimit:10;}
	.st54{fill:none;stroke:#000000;stroke-width:14.8467;stroke-linecap:round;stroke-linejoin:round;stroke-miterlimit:10;}
	.st55{fill:none;stroke:#000000;stroke-width:13.497;stroke-miterlimit:10;}
	.st56{fill:#FFFFFF;stroke:#000000;stroke-width:13.497;stroke-miterlimit:10;}
	.st57{fill:#FFFFFF;stroke:#000000;stroke-width:14.7439;stroke-linecap:round;stroke-miterlimit:10;}
	.st58{fill:#FFFFFF;stroke:#000000;stroke-width:14.7439;stroke-miterlimit:10;}
	.st59{stroke:#000000;stroke-width:13.9262;stroke-linecap:round;stroke-miterlimit:10;}
	.st60{fill:#FFFFFF;stroke:#000000;stroke-width:17.1072;stroke-linecap:round;stroke-linejoin:round;stroke-miterlimit:10;}
	.st61{stroke:#000000;stroke-width:17.1072;stroke-linecap:round;stroke-linejoin:round;stroke-miterlimit:10;}
	.st62{fill:#FFFFFF;stroke:#000000;stroke-width:15;stroke-linecap:square;stroke-linejoin:round;stroke-miterlimit:10;}
	.st63{fill:#FFFFFF;stroke:#000000;stroke-width:15;stroke-linejoin:round;stroke-miterlimit:10;}
	.st64{fill:#FFFFFF;stroke:#000000;stroke-width:14;stroke-linecap:round;stroke-linejoin:round;stroke-miterlimit:10;}
	.st65{fill:#FFFFFF;stroke:#000000;stroke-width:13;stroke-linecap:round;stroke-linejoin:round;stroke-miterlimit:10;}
	.st66{fill:#FFFFFF;stroke:#000000;stroke-width:15.2362;stroke-linecap:round;stroke-linejoin:round;stroke-miterlimit:10;}
	.st67{fill:#FFFFFF;stroke:#FFFFFF;stroke-width:3;stroke-miterlimit:10;}
	.st68{fill:#FFFFFF;stroke:#000000;stroke-width:13.3058;stroke-linecap:round;stroke-linejoin:round;stroke-miterlimit:10;}
	.st69{fill:#FFFFFF;stroke:#000000;stroke-width:15.2517;stroke-linecap:round;stroke-linejoin:round;stroke-miterlimit:10;}
	.st70{stroke:#000000;stroke-width:3;stroke-miterlimit:10;}
</style>
<g id="unexpanded" class="st0">
	<rect x="-1593.75" y="-2593.56" class="st1" width="14663.41" height="9108.82"/>
	<g class="st2">
		<rect x="0" class="st5" width="792" height="1224"/>
		<g>
			<g>
				<text transform="matrix(1 0 0 1 35.9478 265.1987)" class="st28 st29">HEAL</text>
			</g>
			<text transform="matrix(1 0 0 1 11.0457 513.0942)" class="st28 st30">TAX the Rich</text>
			<text transform="matrix(1 0 0 1 180.5574 380.812)" class="st28 st31">the Sick</text>
		</g>
		<g>
			<g>
				<text transform="matrix(1 0 0 1 258.9681 23.554)"><tspan x="0" y="0" class="st28 st32">www</tspan><tspan x="45.14" y="0" class="st28 st33"> </tspan><tspan x="46.99" y="0" class="st28 st32">.</tspan><tspan x="51.77" y="0" class="st28 st33"> </tspan><tspan x="53.63" y="0" class="st28 st32">Capitalism</tspan><tspan x="150.43" y="0" class="st28 st34"> </tspan><tspan x="153.9" y="0" class="st28 st32">Is</tspan><tspan x="168.88" y="0" class="st28 st34"> </tspan><tspan x="172.34" y="0" class="st28 st32">A</tspan><tspan x="186.6" y="0" class="st28 st33"> </tspan><tspan x="188.46" y="0" class="st28 st32">Virus</tspan><tspan x="236.15" y="0" class="st28 st33"> </tspan><tspan x="238.01" y="0" class="st28 st32">.</tspan><tspan x="242.79" y="0" class="st28 st33"> </tspan><tspan x="244.64" y="0" class="st28 st32">org</tspan></text>
			</g>
			<g>
				<text transform="matrix(1 0 0 1 299.1799 596.9929)"><tspan x="0" y="0" class="st28 st32">#</tspan><tspan x="12.7" y="0" class="st28 st35"> </tspan><tspan x="14.5" y="0" class="st28 st32">Capitalism</tspan><tspan x="111.3" y="0" class="st28 st35"> </tspan><tspan x="113.1" y="0" class="st28 st32">Is</tspan><tspan x="128.09" y="0" class="st28 st35"> </tspan><tspan x="129.89" y="0" class="st28 st32">A</tspan><tspan x="144.15" y="0" class="st28 st35"> </tspan><tspan x="145.95" y="0" class="st28 st32">Virus</tspan></text>
			</g>
		</g>
	</g>
</g>
<g id="exp_trnsp_bg">
	<polygon points="98.65,193.58 170.85,193.58 170.85,265.2 219.74,265.2 219.74,83.99 170.85,83.99 170.85,153.89 98.65,153.89 
		98.65,83.99 49.75,83.99 49.75,265.2 98.65,265.2 	"/>
	<polygon points="390.01,224.93 295.38,224.93 295.38,193.58 366.43,193.58 366.43,153.89 295.38,153.89 295.38,124.26 
		387.43,124.26 387.43,83.99 247.35,83.99 247.35,265.2 390.01,265.2 	"/>
	<path d="M470.26,83.99L398.06,265.2h49.18l13.52-35.09h70.76l13.52,35.09h52.06L524.91,83.99H470.26z M474.86,193.58l20.71-53.5
		h1.15l20.71,53.5H474.86z"/>
	<polygon points="749.54,224.93 659.8,224.93 659.8,83.99 610.9,83.99 610.9,265.2 749.54,265.2 	"/>
	<polygon points="49.09,513.09 71.77,513.09 71.77,447.34 101.16,447.34 101.16,428.55 20.1,428.55 20.1,447.34 49.09,447.34 	"/>
	<path d="M152.29,428.55h-25.5l-33.68,84.55h22.95l6.31-16.37h33.01l6.31,16.37h24.29h25.1l19.32-26.97l19.59,26.97h26.71
		l-32.48-44.55l30.06-39.99h-25.1l-17.04,23.75l-17.04-23.75h-26.71l30.06,41.33l-32.48,43.21L152.29,428.55z M128.94,479.68
		l9.66-24.96h0.54l9.66,24.96H128.94z"/>
	<path d="M346.48,495.25c-3.62,1.48-6.58,2.01-9.26,2.01c-4.43,0-6.84-2.01-6.84-7.11v-21.88h15.57v-15.03h-15.57v-16.51h-13.69
		l-2.01,7.78c-1.48,5.5-3.35,8.72-9.39,9.66l-4.43,0.67v13.42h8.05v28.18c0,14.09,9.53,18.25,19.59,18.25
		c8.19,0,13.42-2.01,17.98-5.37V495.25z"/>
	<path d="M354.8,428.55v84.55h21.74v-29.39c0-8.99,2.95-14.9,10.33-14.9c6.58,0,8.86,4.29,8.86,12.48v31.81h21.74v-37.58
		c0-12.48-5.23-23.89-21.61-23.89c-8.99,0-16.1,4.03-19.32,10.6v-33.68H354.8z"/>
	<path d="M425.39,484.11c0,19.06,13.69,30.6,32.88,30.6c15.84,0,26.84-7.65,29.93-21.34l-17.45-1.61c-2.01,4.7-5.77,6.71-11.67,6.71
		c-6.58,0-11.94-3.49-12.48-10.87h42v-6.04c0-16.24-10.6-29.93-30.6-29.93C439.35,451.63,425.39,465.18,425.39,484.11z
		 M457.73,467.2c6.44,0,9.93,4.56,10.2,9.93h-21.07C447.67,471.49,450.75,467.2,457.73,467.2z"/>
	<path d="M597.57,455.39c0-16.51-10.87-26.84-32.75-26.84h-42.68v84.55h22.41v-28.05h15.17c7.65,0,11.81,2.15,12.48,11.81
		c0.67,8.72,1.74,13.96,3.49,16.24h23.08c-2.82-3.09-3.22-6.84-4.43-19.46c-0.94-9.8-6.04-14.76-14.76-16.51
		C589.92,475.79,597.57,467.73,597.57,455.39z M560.8,467.47h-16.24V446.8h16.24c9.66,0,14.49,3.62,14.49,10.47
		C575.29,465.05,570.46,467.47,560.8,467.47z"/>
	<rect x="607.1" y="453.24" width="21.74" height="59.85"/>
	<rect x="606.96" y="428.55" width="22.01" height="19.06"/>
	<path d="M670.44,468c6.31,0,9.93,3.49,11.41,10.87l17.85-1.21c-1.48-14.36-11.54-26.04-29.52-26.04
		c-18.92,0-32.75,12.61-32.75,31.54c0,19.06,13.82,31.54,32.75,31.54c17.98,0,28.05-11.54,29.52-26.04l-17.85-1.34
		c-1.48,7.38-5.1,11-11.41,11c-6.58,0-11.14-4.43-11.14-15.17S663.87,468,670.44,468z"/>
	<path d="M729.76,462.23v-33.68h-21.74v84.55h21.74v-29.39c0-8.99,2.95-14.9,10.33-14.9c6.58,0,8.86,4.29,8.86,12.48v31.81h21.74
		v-37.58c0-12.48-5.23-23.89-21.61-23.89C740.09,451.63,732.98,455.66,729.76,462.23z"/>
	<path d="M222.44,339.79v-13.75h-14.25v-15.11h-12.53l-1.84,7.12c-1.35,5.04-3.07,7.98-8.6,8.84l-4.05,0.61v12.28h7.37v25.79
		c0,12.9,8.72,16.7,17.93,16.7c7.49,0,12.28-1.84,16.46-4.91v-12.9c-3.32,1.35-6.02,1.84-8.47,1.84c-4.05,0-6.26-1.84-6.26-6.51
		v-20.02H222.44z"/>
	<path d="M250.44,353.92c0-8.23,2.7-13.63,9.46-13.63c6.02,0,8.11,3.93,8.11,11.42v29.11h19.9v-34.39
		c0-11.42-4.79-21.86-19.77-21.86c-8.23,0-14.74,3.68-17.69,9.7v-30.83h-19.9v77.38h19.9V353.92z"/>
	<path d="M324.98,324.56c-17.07,0-29.84,12.41-29.84,29.72c0,17.44,12.53,28,30.09,28c14.49,0,24.56-7,27.39-19.53l-15.97-1.47
		c-1.84,4.3-5.28,6.14-10.68,6.14c-6.02,0-10.93-3.19-11.42-9.95h38.44v-5.53C352.99,337.09,343.28,324.56,324.98,324.56z
		 M314.79,347.9c0.74-5.16,3.56-9.09,9.95-9.09c5.9,0,9.09,4.18,9.33,9.09H314.79z"/>
	<path d="M416.23,365.83c-8.6,0-16.09-3.32-16.83-13.02l-19.16,0.61c0,18.67,14.98,28.86,35.99,28.86c18.05,0,32.3-8.23,32.3-24.69
		c0-12.65-7.37-21.12-23.58-23.95l-14.62-2.58c-4.79-0.86-7.74-2.21-7.74-5.77c0-4.3,3.93-7,10.81-7c7.98,0,13.76,3.68,14.37,11.67
		l19.16-0.37c-0.37-17.19-11.91-27.63-33.28-27.63c-19.28,0-31.56,9.46-31.56,25.18c0,13.51,8.84,20.63,21.49,22.97l14.12,2.46
		c5.89,1.11,10.44,1.84,10.44,6.39C428.15,363.25,423.48,365.83,416.23,365.83z"/>
	<rect x="456.27" y="303.44" width="20.14" height="17.44"/>
	<rect x="456.39" y="326.04" width="19.9" height="54.78"/>
	<path d="M514.36,339.55c5.77,0,9.09,3.19,10.44,9.95l16.33-1.11c-1.35-13.14-10.56-23.83-27.02-23.83
		c-17.32,0-29.97,11.54-29.97,28.86c0,17.44,12.65,28.86,29.97,28.86c16.46,0,25.67-10.56,27.02-23.83l-16.33-1.23
		c-1.35,6.75-4.67,10.07-10.44,10.07c-6.02,0-10.19-4.05-10.19-13.88C504.17,343.6,508.34,339.55,514.36,339.55z"/>
	<polygon points="587.43,326.04 568.64,344.95 568.64,303.44 548.75,303.44 548.75,380.81 568.64,380.81 568.64,363.5 
		573.43,358.58 589.15,380.81 611.5,380.81 588.17,347.53 610.77,326.04 	"/>
	<polygon points="265.16,23.55 266.5,18.36 266.58,18.36 267.92,23.55 271.2,23.55 274.07,14.5 276.93,23.55 280.21,23.55 
		281.55,18.36 281.63,18.36 282.97,23.55 286.25,23.55 289.11,14.5 291.98,23.55 295.25,23.55 296.59,18.36 296.68,18.36 
		298.02,23.55 301.29,23.55 304.2,14.36 301.19,14.36 299.54,19.58 299.46,19.58 298.12,14.36 295.46,14.36 294.12,19.58 
		294.04,19.58 292.39,14.36 289.16,14.36 289.07,14.36 286.15,14.36 284.5,19.58 284.41,19.58 283.07,14.36 280.41,14.36 
		279.07,19.58 278.99,19.58 277.34,14.36 274.11,14.36 274.02,14.36 271.1,14.36 269.45,19.58 269.37,19.58 268.03,14.36 
		265.37,14.36 264.03,19.58 263.95,19.58 262.3,14.36 258.98,14.36 261.88,23.55 	"/>
	<rect x="306.63" y="20.01" width="3.55" height="3.55"/>
	<path d="M319.72,23.8c3.98,0,6.1-2.52,6.35-5.75l-3.36-0.14c-0.21,1.44-0.99,2.78-3.01,2.78c-1.92,0-3.03-1.42-3.03-3.63
		s1.11-3.63,3.03-3.63c2.02,0,2.8,1.34,3.01,2.78l3.36-0.12c-0.25-3.24-2.37-5.77-6.35-5.77c-3.79,0-6.66,2.74-6.66,6.74
		S315.93,23.8,319.72,23.8z"/>
	<path d="M330.08,18.38c-2,0.35-3.28,1.11-3.28,2.89c0,1.57,1.18,2.49,2.97,2.49c1.46,0,2.51-0.56,3.05-1.63
		c0.31,1.05,1.2,1.63,2.33,1.63c0.95,0,1.61-0.27,2.08-0.6v-1.77c-0.27,0.1-0.47,0.14-0.74,0.14c-0.35,0-0.56-0.21-0.56-0.68v-3.13
		c0-2.56-1.79-3.61-4.23-3.61c-2.76,0-4.27,1.4-4.56,3.42l3.09,0.21c0.14-0.68,0.52-1.15,1.26-1.15c0.8,0,1.15,0.45,1.15,1.22v0.14
		L330.08,18.38z M332.66,19.72c0,1.2-0.76,1.9-1.71,1.9c-0.56,0-0.93-0.31-0.93-0.78c0-0.6,0.47-0.85,1.28-1.01l1.36-0.25V19.72z"/>
	<path d="M341.54,21.99c0.45,1.07,1.48,1.81,3.03,1.81c2.7,0,4.08-2.12,4.08-4.84c0-2.7-1.38-4.84-4.08-4.84
		c-1.55,0-2.58,0.74-3.03,1.83v-1.59h-3.34v12.49h3.34V21.99z M341.54,18.9c0-1.32,0.72-2.19,1.85-2.19c1.3,0,1.9,0.93,1.9,2.25
		c0,1.34-0.6,2.27-1.9,2.27c-1.13,0-1.85-0.87-1.85-2.21V18.9z"/>
	<rect x="349.97" y="14.36" width="3.34" height="9.19"/>
	<rect x="349.95" y="10.57" width="3.38" height="2.93"/>
	<path d="M355.46,21c0,2.16,1.46,2.8,3.01,2.8c1.26,0,2.06-0.31,2.76-0.82v-2.16c-0.56,0.23-1.01,0.31-1.42,0.31
		c-0.68,0-1.05-0.31-1.05-1.09v-3.36h2.39v-2.31h-2.39v-2.54h-2.1l-0.31,1.2c-0.23,0.85-0.52,1.34-1.44,1.48l-0.68,0.1v2.06h1.24V21
		z"/>
	<path d="M365.25,18.38c-2,0.35-3.28,1.11-3.28,2.89c0,1.57,1.17,2.49,2.97,2.49c1.46,0,2.51-0.56,3.05-1.63
		c0.31,1.05,1.2,1.63,2.33,1.63c0.95,0,1.61-0.27,2.08-0.6v-1.77c-0.27,0.1-0.47,0.14-0.74,0.14c-0.35,0-0.56-0.21-0.56-0.68v-3.13
		c0-2.56-1.79-3.61-4.23-3.61c-2.76,0-4.27,1.4-4.56,3.42l3.09,0.21c0.14-0.68,0.52-1.15,1.26-1.15c0.8,0,1.15,0.45,1.15,1.22v0.14
		L365.25,18.38z M367.82,19.72c0,1.2-0.76,1.9-1.71,1.9c-0.56,0-0.93-0.31-0.93-0.78c0-0.6,0.47-0.85,1.28-1.01l1.36-0.25V19.72z"/>
	<rect x="373.37" y="10.57" width="3.34" height="12.99"/>
	<rect x="378.52" y="14.36" width="3.34" height="9.19"/>
	<rect x="378.5" y="10.57" width="3.38" height="2.93"/>
	<path d="M387.67,21.72c-1.01,0-1.63-0.43-1.75-1.2l-2.91,0.04c0.19,2.23,2.08,3.24,4.62,3.24c2.62,0,4.27-1.11,4.27-3.05
		c0-1.79-1.2-2.72-3.26-3.05l-1.79-0.31c-0.31-0.04-0.56-0.21-0.56-0.52c0-0.41,0.37-0.66,1.01-0.66c1.03,0,1.61,0.41,1.73,1.07
		l2.74-0.08c-0.19-1.92-1.75-3.09-4.41-3.09c-2.58,0-4.16,1.3-4.16,3.11c0,1.88,1.17,2.6,3.4,2.95l1.36,0.21
		c0.64,0.1,0.85,0.35,0.85,0.7C388.8,21.45,388.41,21.72,387.67,21.72z"/>
	<path d="M396.51,19.04c0-1.38,0.39-2.29,1.48-2.29c1.01,0,1.26,0.66,1.26,1.92v4.89h3.34v-4.51c0-1.38,0.37-2.29,1.48-2.29
		c1.01,0,1.24,0.66,1.24,1.92v4.89h3.34v-5.77c0-1.92-0.74-3.67-3.28-3.67c-1.55,0-2.64,0.78-3.13,1.81
		c-0.39-1.07-1.24-1.81-2.87-1.81c-1.38,0-2.37,0.62-2.87,1.63v-1.38h-3.34v9.19h3.34V19.04z"/>
	<rect x="413.91" y="10.57" width="3.5" height="12.99"/>
	<path d="M423.3,21.72c-1.01,0-1.63-0.43-1.75-1.2l-2.91,0.04c0.19,2.23,2.08,3.24,4.62,3.24c2.62,0,4.27-1.11,4.27-3.05
		c0-1.79-1.2-2.72-3.26-3.05l-1.79-0.31c-0.31-0.04-0.56-0.21-0.56-0.52c0-0.41,0.37-0.66,1.01-0.66c1.03,0,1.61,0.41,1.73,1.07
		l2.74-0.08c-0.19-1.92-1.75-3.09-4.41-3.09c-2.58,0-4.16,1.3-4.16,3.11c0,1.88,1.17,2.6,3.4,2.95l1.36,0.21
		c0.64,0.1,0.84,0.35,0.84,0.7C424.44,21.45,424.05,21.72,423.3,21.72z"/>
	<path d="M435.86,21.04h5.07l0.97,2.52h3.73l-5.17-12.99h-3.92l-5.17,12.99h3.53L435.86,21.04z M438.35,14.59h0.08l1.48,3.83h-3.05
		L438.35,14.59z"/>
	<polygon points="456.16,23.55 461.15,10.57 457.66,10.57 454.45,19.2 454.36,19.2 451.15,10.57 447.48,10.57 452.47,23.55 	"/>
	<rect x="462.03" y="10.57" width="3.38" height="2.93"/>
	<rect x="462.05" y="14.36" width="3.34" height="9.19"/>
	<path d="M470.54,19.35c0-1.55,0.76-2.12,2-2.12c0.64,0,1.13,0.12,1.59,0.39l0.21-3.15c-0.23-0.19-0.72-0.35-1.28-0.35
		c-1.22,0-2.19,0.85-2.52,1.88v-1.63h-3.34v9.19h3.34V19.35z"/>
	<path d="M478.54,23.8c1.38,0,2.39-0.6,2.89-1.63v1.38h3.34v-9.19h-3.34v4.51c0,1.4-0.41,2.31-1.46,2.31
		c-1.01,0-1.36-0.68-1.36-1.92v-4.91h-3.34v5.79C475.26,22.07,476.02,23.8,478.54,23.8z"/>
	<path d="M490.58,21.72c-1.01,0-1.63-0.43-1.75-1.2l-2.91,0.04c0.19,2.23,2.08,3.24,4.62,3.24c2.62,0,4.27-1.11,4.27-3.05
		c0-1.79-1.2-2.72-3.26-3.05l-1.79-0.31c-0.31-0.04-0.56-0.21-0.56-0.52c0-0.41,0.37-0.66,1.01-0.66c1.03,0,1.61,0.41,1.73,1.07
		l2.74-0.08c-0.19-1.92-1.75-3.09-4.41-3.09c-2.58,0-4.16,1.3-4.16,3.11c0,1.88,1.18,2.6,3.4,2.95l1.36,0.21
		c0.64,0.1,0.84,0.35,0.84,0.7C491.71,21.45,491.32,21.72,490.58,21.72z"/>
	<rect x="497.64" y="20.01" width="3.55" height="3.55"/>
	<path d="M509.1,23.8c2.99,0,5.03-1.98,5.03-4.84c0-2.84-2.04-4.84-5.03-4.84c-3.01,0-5.03,2-5.03,4.84
		C504.08,21.82,506.1,23.8,509.1,23.8z M509.1,16.63c1.15,0,1.67,0.95,1.67,2.33c0,1.38-0.52,2.33-1.67,2.33
		c-1.18,0-1.67-0.95-1.67-2.33C507.44,17.58,507.93,16.63,509.1,16.63z"/>
	<path d="M518.79,19.35c0-1.55,0.76-2.12,2-2.12c0.64,0,1.13,0.12,1.59,0.39l0.21-3.15c-0.23-0.19-0.72-0.35-1.28-0.35
		c-1.22,0-2.19,0.85-2.51,1.88v-1.63h-3.34v9.19h3.34V19.35z"/>
	<path d="M522.6,24.85c0,1.73,2.27,2.25,4.89,2.25c2.99,0,5.77-1.05,5.77-3.34c0-1.55-1.05-2.64-3.13-2.64h-3.81
		c-0.56,0-0.78-0.25-0.78-0.56c0-0.19,0.06-0.33,0.19-0.43c0.6,0.19,1.26,0.27,2,0.27c2.6,0,4.47-1.2,4.47-3.13
		c0-0.43-0.1-0.82-0.29-1.17c0.45-0.1,0.95-0.14,1.34-0.14v-2.51c-1.01,0-2.02,0.66-2.58,1.42c-0.78-0.47-1.83-0.74-2.95-0.74
		c-2.58,0-4.43,1.2-4.43,3.15c0,1.01,0.5,1.79,1.32,2.33c-0.99,0.37-1.57,1.05-1.57,1.94c0,0.78,0.49,1.53,1.32,1.79
		C523.33,23.41,522.6,24.05,522.6,24.85z M527.76,15.95c0.56,0,0.97,0.52,0.97,1.32c0,0.82-0.41,1.34-0.97,1.34
		s-0.97-0.52-0.97-1.34C526.79,16.46,527.2,15.95,527.76,15.95z M525.96,23.97h3.38c0.56,0,0.85,0.14,0.85,0.54
		c0,0.56-1.13,0.87-2.68,0.87c-1.24,0-2.16-0.19-2.16-0.84C525.35,24.17,525.59,23.97,525.96,23.97z"/>
	<path d="M311.03,589.49l0.43-2.06h-1.83l0.82-3.42h-2.49l-0.82,3.42h-1.77l0.82-3.42h-2.49l-0.82,3.42h-2.02l-0.43,2.06h1.98
		l-0.49,2.02h-1.88l-0.43,2.06h1.81l-0.8,3.42h2.49l0.8-3.42h1.77l-0.8,3.42h2.49l0.8-3.42h2.04l0.43-2.06h-1.98l0.49-2.02H311.03z
		 M306.17,591.51h-1.77l0.49-2.02h1.77L306.17,591.51z"/>
	<path d="M320.73,586.87c2.02,0,2.8,1.34,3.01,2.78l3.36-0.12c-0.25-3.24-2.37-5.77-6.35-5.77c-3.79,0-6.66,2.74-6.66,6.74
		c0,4,2.87,6.74,6.66,6.74c3.98,0,6.1-2.52,6.35-5.75l-3.36-0.14c-0.21,1.44-0.99,2.78-3.01,2.78c-1.92,0-3.03-1.42-3.03-3.63
		C317.7,588.29,318.81,586.87,320.73,586.87z"/>
	<path d="M331.11,591.82c-2,0.35-3.28,1.11-3.28,2.89c0,1.57,1.18,2.49,2.97,2.49c1.46,0,2.51-0.56,3.05-1.63
		c0.31,1.05,1.2,1.63,2.33,1.63c0.95,0,1.61-0.27,2.08-0.6v-1.77c-0.27,0.1-0.47,0.14-0.74,0.14c-0.35,0-0.56-0.21-0.56-0.68v-3.13
		c0-2.56-1.79-3.61-4.23-3.61c-2.76,0-4.27,1.4-4.56,3.42l3.09,0.21c0.14-0.68,0.52-1.15,1.26-1.15c0.8,0,1.15,0.45,1.15,1.22v0.14
		L331.11,591.82z M333.69,593.16c0,1.2-0.76,1.9-1.71,1.9c-0.56,0-0.93-0.31-0.93-0.78c0-0.6,0.47-0.85,1.28-1.01l1.36-0.25V593.16z
		"/>
	<path d="M342.57,595.43c0.45,1.07,1.48,1.81,3.03,1.81c2.7,0,4.08-2.12,4.08-4.84c0-2.7-1.38-4.84-4.08-4.84
		c-1.55,0-2.58,0.74-3.03,1.83v-1.59h-3.34v12.49h3.34V595.43z M342.57,592.33c0-1.32,0.72-2.19,1.86-2.19c1.3,0,1.9,0.93,1.9,2.25
		c0,1.34-0.6,2.27-1.9,2.27c-1.13,0-1.86-0.87-1.86-2.21V592.33z"/>
	<rect x="350.98" y="584.01" width="3.38" height="2.93"/>
	<rect x="351" y="587.8" width="3.34" height="9.19"/>
	<path d="M359.49,597.24c1.26,0,2.06-0.31,2.76-0.82v-2.16c-0.56,0.23-1.01,0.31-1.42,0.31c-0.68,0-1.05-0.31-1.05-1.09v-3.36h2.39
		v-2.31h-2.39v-2.54h-2.1l-0.31,1.2c-0.23,0.85-0.52,1.34-1.44,1.48l-0.68,0.1v2.06h1.24v4.33
		C356.48,596.6,357.95,597.24,359.49,597.24z"/>
	<path d="M366.27,591.82c-2,0.35-3.28,1.11-3.28,2.89c0,1.57,1.17,2.49,2.97,2.49c1.46,0,2.51-0.56,3.05-1.63
		c0.31,1.05,1.2,1.63,2.33,1.63c0.95,0,1.61-0.27,2.08-0.6v-1.77c-0.27,0.1-0.47,0.14-0.74,0.14c-0.35,0-0.56-0.21-0.56-0.68v-3.13
		c0-2.56-1.79-3.61-4.23-3.61c-2.76,0-4.27,1.4-4.56,3.42l3.09,0.21c0.14-0.68,0.52-1.15,1.26-1.15c0.8,0,1.15,0.45,1.15,1.22v0.14
		L366.27,591.82z M368.85,593.16c0,1.2-0.76,1.9-1.71,1.9c-0.56,0-0.93-0.31-0.93-0.78c0-0.6,0.47-0.85,1.28-1.01l1.36-0.25V593.16z
		"/>
	<rect x="374.39" y="584.01" width="3.34" height="12.99"/>
	<rect x="379.55" y="587.8" width="3.34" height="9.19"/>
	<rect x="379.53" y="584.01" width="3.38" height="2.93"/>
	<path d="M388.7,595.16c-1.01,0-1.63-0.43-1.75-1.2l-2.91,0.04c0.19,2.23,2.08,3.24,4.62,3.24c2.62,0,4.27-1.11,4.27-3.05
		c0-1.79-1.2-2.72-3.26-3.05l-1.79-0.31c-0.31-0.04-0.56-0.21-0.56-0.52c0-0.41,0.37-0.66,1.01-0.66c1.03,0,1.61,0.41,1.73,1.07
		l2.74-0.08c-0.19-1.92-1.75-3.09-4.41-3.09c-2.58,0-4.16,1.3-4.16,3.11c0,1.88,1.17,2.6,3.4,2.95l1.36,0.21
		c0.64,0.1,0.85,0.35,0.85,0.7C389.83,594.89,389.44,595.16,388.7,595.16z"/>
	<path d="M409.68,596.99v-5.77c0-1.92-0.74-3.67-3.28-3.67c-1.55,0-2.64,0.78-3.13,1.81c-0.39-1.07-1.24-1.81-2.87-1.81
		c-1.38,0-2.37,0.62-2.87,1.63v-1.38h-3.34v9.19h3.34v-4.51c0-1.38,0.39-2.29,1.48-2.29c1.01,0,1.26,0.66,1.26,1.92v4.89h3.34v-4.51
		c0-1.38,0.37-2.29,1.48-2.29c1.01,0,1.24,0.66,1.24,1.92v4.89H409.68z"/>
	<rect x="413.27" y="584.01" width="3.5" height="12.99"/>
	<path d="M422.67,595.16c-1.01,0-1.63-0.43-1.75-1.2l-2.91,0.04c0.19,2.23,2.08,3.24,4.62,3.24c2.62,0,4.27-1.11,4.27-3.05
		c0-1.79-1.2-2.72-3.26-3.05l-1.79-0.31c-0.31-0.04-0.56-0.21-0.56-0.52c0-0.41,0.37-0.66,1.01-0.66c1.03,0,1.61,0.41,1.73,1.07
		l2.74-0.08c-0.19-1.92-1.75-3.09-4.41-3.09c-2.58,0-4.16,1.3-4.16,3.11c0,1.88,1.17,2.6,3.4,2.95l1.36,0.21
		c0.64,0.1,0.85,0.35,0.85,0.7C423.8,594.89,423.41,595.16,422.67,595.16z"/>
	<path d="M429.07,596.99h3.53l0.97-2.51h5.07l0.97,2.51h3.73l-5.17-12.99h-3.92L429.07,596.99z M436.05,588.03h0.08l1.48,3.83h-3.05
		L436.05,588.03z"/>
	<polygon points="452.1,592.64 452.01,592.64 448.8,584.01 445.13,584.01 450.12,596.99 453.81,596.99 458.8,584.01 455.31,584.01 	
		"/>
	<rect x="459.68" y="584.01" width="3.38" height="2.93"/>
	<rect x="459.7" y="587.8" width="3.34" height="9.19"/>
	<path d="M464.85,587.8v9.19h3.34v-4.21c0-1.55,0.76-2.12,2-2.12c0.64,0,1.13,0.12,1.59,0.39l0.21-3.15
		c-0.23-0.19-0.72-0.35-1.28-0.35c-1.22,0-2.19,0.85-2.52,1.88v-1.63H464.85z"/>
	<path d="M482.41,596.99v-9.19h-3.34v4.51c0,1.4-0.41,2.31-1.46,2.31c-1.01,0-1.36-0.68-1.36-1.92v-4.91h-3.34v5.79
		c0,1.92,0.76,3.65,3.28,3.65c1.38,0,2.39-0.6,2.89-1.63v1.38H482.41z"/>
	<path d="M488.22,595.16c-1.01,0-1.63-0.43-1.75-1.2l-2.91,0.04c0.19,2.23,2.08,3.24,4.62,3.24c2.62,0,4.27-1.11,4.27-3.05
		c0-1.79-1.2-2.72-3.26-3.05l-1.79-0.31c-0.31-0.04-0.56-0.21-0.56-0.52c0-0.41,0.37-0.66,1.01-0.66c1.03,0,1.61,0.41,1.73,1.07
		l2.74-0.08c-0.19-1.92-1.75-3.09-4.41-3.09c-2.58,0-4.16,1.3-4.16,3.11c0,1.88,1.18,2.6,3.4,2.95l1.36,0.21
		c0.64,0.1,0.84,0.35,0.84,0.7C489.36,594.89,488.97,595.16,488.22,595.16z"/>
</g>
<g id="exp_white_bg" class="st0">
	<g class="st2">
		<path class="st5" d="M343.4,21.22c1.3,0,1.9-0.93,1.9-2.27c0-1.32-0.6-2.25-1.9-2.25c-1.13,0-1.85,0.87-1.85,2.19v0.12
			C341.54,20.36,342.27,21.22,343.4,21.22z"/>
		<path class="st5" d="M330.02,20.83c0,0.47,0.37,0.78,0.93,0.78c0.95,0,1.71-0.7,1.71-1.9v-0.14l-1.36,0.25
			C330.5,19.99,330.02,20.24,330.02,20.83z"/>
		<polygon class="st5" points="304.4,591.51 306.17,591.51 306.66,589.49 304.89,589.49 		"/>
		<path class="st5" d="M366.21,594.27c0,0.47,0.37,0.78,0.93,0.78c0.95,0,1.71-0.7,1.71-1.9v-0.14l-1.36,0.25
			C366.69,593.43,366.21,593.67,366.21,594.27z"/>
		<polygon class="st5" points="495.57,140.08 474.86,193.58 517.43,193.58 496.72,140.08 		"/>
		<polygon class="st5" points="438.43,14.59 438.35,14.59 436.87,18.42 439.92,18.42 		"/>
		<path class="st5" d="M365.18,20.83c0,0.47,0.37,0.78,0.93,0.78c0.95,0,1.71-0.7,1.71-1.9v-0.14l-1.36,0.25
			C365.66,19.99,365.18,20.24,365.18,20.83z"/>
		<path class="st5" d="M509.1,21.29c1.15,0,1.67-0.95,1.67-2.33c0-1.38-0.52-2.33-1.67-2.33c-1.18,0-1.67,0.95-1.67,2.33
			C507.44,20.34,507.93,21.29,509.1,21.29z"/>
		<path class="st5" d="M527.51,25.37c1.55,0,2.68-0.31,2.68-0.87c0-0.39-0.29-0.54-0.85-0.54h-3.38c-0.37,0-0.62,0.21-0.62,0.56
			C525.35,25.18,526.27,25.37,527.51,25.37z"/>
		<path class="st5" d="M527.76,18.61c0.56,0,0.97-0.52,0.97-1.34c0-0.8-0.41-1.32-0.97-1.32s-0.97,0.52-0.97,1.32
			C526.79,18.09,527.2,18.61,527.76,18.61z"/>
		<path class="st5" d="M0,1224h792V0H0V1224z M26.86,1016.1l-5.19,1.34v0.08l5.19,1.34v3.28l-9.06,2.86l9.06,2.86v3.28l-5.19,1.34
			v0.08l5.19,1.34v3.28l-9.06,2.86l9.06,2.86v3.28l-5.19,1.34v0.08l5.19,1.34v3.28l-9.19,2.91v-3.32l5.22-1.65v-0.08l-5.22-1.34
			v-2.66l5.22-1.34v-0.08l-5.22-1.65v-2.92v-0.09v-3.23l5.22-1.65v-0.08l-5.22-1.34v-2.66l5.22-1.34v-0.08l-5.22-1.65v-2.92v-0.09
			v-3.23l5.22-1.65V1020l-5.22-1.34V1016l5.22-1.34v-0.08l-5.22-1.65v-3.01l9.19,2.91V1016.1z M26.86,1007.49h-3.55v-3.55h3.55
			V1007.49z M30.16,975.91H17.67v-3.34h1.59c-1.09-0.45-1.83-1.48-1.83-3.03c0-2.7,2.14-4.08,4.84-4.08c2.72,0,4.84,1.38,4.84,4.08
			c0,1.55-0.74,2.58-1.81,3.03h4.86V975.91z M27.07,984.34c0,1.79-0.93,2.97-2.49,2.97c-1.77,0-2.54-1.28-2.89-3.28l-0.43-2.58
			h-0.14c-0.76,0-1.22,0.35-1.22,1.15c0,0.74,0.47,1.11,1.15,1.26l-0.21,3.09c-2.02-0.29-3.42-1.79-3.42-4.56
			c0-2.43,1.05-4.23,3.61-4.23h3.13c0.47,0,0.68-0.21,0.68-0.56c0-0.27-0.04-0.47-0.14-0.74h1.77c0.33,0.47,0.6,1.13,0.6,2.08
			c0,1.13-0.58,2.02-1.63,2.33C26.51,981.83,27.07,982.88,27.07,984.34z M24.7,941.72h1.77c0.33,0.47,0.6,1.13,0.6,2.08
			c0,1.13-0.58,2.02-1.63,2.33c1.07,0.54,1.63,1.59,1.63,3.05c0,1.79-0.93,2.97-2.49,2.97c-1.77,0-2.54-1.28-2.89-3.28l-0.43-2.58
			h-0.14c-0.76,0-1.22,0.35-1.22,1.15c0,0.74,0.47,1.11,1.15,1.26l-0.21,3.09c-2.02-0.29-3.42-1.79-3.42-4.56
			c0-2.43,1.05-4.23,3.61-4.23h3.13c0.47,0,0.68-0.21,0.68-0.56C24.84,942.19,24.8,941.99,24.7,941.72z M17.42,908.74
			c0-2.54,1.75-3.28,3.67-3.28h5.77v3.34h-4.89c-1.26,0-1.92,0.23-1.92,1.24c0,1.11,0.91,1.48,2.29,1.48h4.51v3.34h-4.89
			c-1.26,0-1.92,0.25-1.92,1.26c0,1.09,0.91,1.48,2.29,1.48h4.51v3.34h-9.19v-3.34h1.38c-1.01-0.49-1.63-1.48-1.63-2.87
			c0-1.63,0.74-2.47,1.81-2.87C18.2,911.38,17.42,910.29,17.42,908.74z M20.51,922.35l0.08,2.74c-0.66,0.12-1.07,0.7-1.07,1.73
			c0,0.64,0.25,1.01,0.66,1.01c0.31,0,0.47-0.25,0.52-0.56l0.31-1.79c0.33-2.06,1.26-3.26,3.05-3.26c1.94,0,3.05,1.65,3.05,4.27
			c0,2.54-1.01,4.43-3.24,4.62l-0.04-2.91c0.76-0.12,1.2-0.74,1.2-1.75c0-0.74-0.27-1.13-0.64-1.13c-0.35,0-0.6,0.21-0.7,0.85
			l-0.21,1.36c-0.35,2.23-1.07,3.4-2.95,3.4c-1.81,0-3.11-1.59-3.11-4.16C17.42,924.1,18.6,922.53,20.51,922.35z M24.39,889.68
			c-0.35,0-0.6,0.21-0.7,0.85l-0.21,1.36c-0.35,2.23-1.07,3.4-2.95,3.4c-1.81,0-3.11-1.59-3.11-4.16c0-2.66,1.18-4.23,3.09-4.41
			l0.08,2.74c-0.66,0.12-1.07,0.7-1.07,1.73c0,0.64,0.25,1.01,0.66,1.01c0.31,0,0.47-0.25,0.52-0.56l0.31-1.79
			c0.33-2.06,1.26-3.26,3.05-3.26c1.94,0,3.05,1.65,3.05,4.27c0,2.54-1.01,4.43-3.24,4.62l-0.04-2.91c0.76-0.12,1.2-0.74,1.2-1.75
			C25.03,890.07,24.76,889.68,24.39,889.68z M22.66,795.33h4.21v3.34h-9.19v-3.34h1.63c-1.03-0.33-1.88-1.3-1.88-2.52
			c0-0.56,0.17-1.05,0.35-1.28l3.15,0.21c-0.27,0.45-0.39,0.95-0.39,1.59C20.53,794.56,21.11,795.33,22.66,795.33z M22.26,799.98
			c2.87,0,4.84,2.04,4.84,5.03c0,3.01-1.98,5.03-4.84,5.03c-2.84,0-4.84-2.02-4.84-5.03C17.42,802.02,19.42,799.98,22.26,799.98z
			 M26.86,812.93v3.55h-3.55v-3.55H26.86z M20.51,819.44l0.08,2.74c-0.66,0.12-1.07,0.7-1.07,1.73c0,0.64,0.25,1.01,0.66,1.01
			c0.31,0,0.47-0.25,0.52-0.56l0.31-1.79c0.33-2.06,1.26-3.26,3.05-3.26c1.94,0,3.05,1.65,3.05,4.27c0,2.54-1.01,4.43-3.24,4.62
			l-0.04-2.91c0.76-0.12,1.2-0.74,1.2-1.75c0-0.74-0.27-1.13-0.64-1.13c-0.35,0-0.6,0.21-0.7,0.85l-0.21,1.36
			c-0.35,2.23-1.07,3.4-2.95,3.4c-1.81,0-3.11-1.59-3.11-4.16C17.42,821.19,18.6,819.62,20.51,819.44z M22.18,832.69h-4.51v-3.34
			h9.19v3.34h-1.38c1.03,0.49,1.63,1.5,1.63,2.89c0,2.52-1.73,3.28-3.65,3.28h-5.79v-3.34h4.91c1.24,0,1.92-0.35,1.92-1.36
			C24.49,833.1,23.58,832.69,22.18,832.69z M17.77,839.78l3.15,0.21c-0.27,0.45-0.39,0.95-0.39,1.59c0,1.24,0.58,2,2.12,2h4.21v3.34
			h-9.19v-3.34h1.63c-1.03-0.33-1.88-1.3-1.88-2.52C17.42,840.5,17.58,840.01,17.77,839.78z M17.67,848.73h9.19v3.34h-9.19V848.73z
			 M17.67,932.26h9.19v3.34h-9.19V932.26z M17.67,955.36v-2.39h2.31v2.39h3.36c0.78,0,1.09-0.37,1.09-1.05
			c0-0.41-0.08-0.87-0.31-1.42h2.16c0.52,0.7,0.82,1.5,0.82,2.76c0,1.55-0.64,3.01-2.8,3.01h-4.33v1.24h-2.06l-0.1-0.68
			c-0.14-0.93-0.64-1.22-1.48-1.44l-1.2-0.31v-2.1H17.67z M26.86,960.81v3.34h-9.19v-3.34H26.86z M188.39,428.55h26.71l17.04,23.75
			l17.04-23.75h25.1l-30.06,39.99l32.48,44.55h-26.71l-19.59-26.97l-19.32,26.97h-25.1h-24.29l-6.31-16.37h-33.01l-6.31,16.37H93.11
			l33.68-84.55h25.5l33.68,84.55l32.48-43.21L188.39,428.55z M779.83,998.75c0.33,4.19-2.81,7.86-7,8.19
			c-0.12,0.01-0.29,0.02-0.5,0.04c-13.75,1.07-205.21,15.92-229.39,15.92c-0.41,0-0.77,0-1.08-0.01c-1.86-0.05-3.64-0.78-4.99-2.05
			c-11.73-10.98-53.1-31.17-95.51-47.46c1.89,4.28,2.69,8.97,2.27,13.74c-0.6,6.81-3.62,13.39-8.8,19.23
			c18.13-4.33,32.27,3.7,37.49,15.17c3.17,6.95,3.07,14.8-0.28,22.08c-2.29,5-6.05,9.53-11.04,13.41
			c17.41,7.48,35.62,14.04,54.22,19.49c4.04,1.18,6.35,5.42,5.17,9.45c-0.97,3.32-4.01,5.48-7.31,5.48c-0.71,0-1.43-0.1-2.15-0.31
			c-20.34-5.97-40.24-13.21-59.19-21.52l-0.72,1.81c4.94,2.73,12.1,7.38,20.62,14.96c3.14,2.8,3.42,7.61,0.63,10.75
			s-7.61,3.42-10.75,0.63c-13.35-11.87-22.66-15.32-22.75-15.36c-1.97-0.68-3.55-2.13-4.41-4.02c-0.87-1.89-0.89-4.05-0.12-5.98
			l7.87-19.71c0.68-1.71,1.96-3.11,3.6-3.95c10.97-5.62,15.98-13.83,12.76-20.9c-3.82-8.4-15.53-8.9-25.11-5.06
			c-21.78,8.73-35.44,41.77-37.91,57.53c-2.06,13.1,21.58,57.22,66.52,77.85c23.71,10.88,70.9,9.26,118.51-20
			c1.23-0.75,2.66-1.15,4.09-1.13l184.69,2.37l3.09,0.04c4.21,0.05,7.57,3.51,7.52,7.71c-0.05,4.21-3.5,7.58-7.71,7.52l-185.6-2.38
			c-32.48,19.52-64.61,27.33-90.94,27.33c-15.04,0-28.18-2.55-38.42-6.93c-10.15-0.12-21.46-3.09-32.24-7.14
			c-0.48,0.26-0.99,0.48-1.53,0.63c-3.95,1.14-8.5,1.7-13.52,1.7c-16.02,0-36.87-5.68-58.68-16.25c-0.9-0.44-1.85-0.9-2.84-1.37
			c-14.73-7.08-36.98-17.78-50.49-35.39c-12.74-16.59-15.12-35.75-14.42-47.5c-10.91-11.99-16.53-23.51-23.11-37.03l-0.11-0.22
			c-2.26-4.65-5.31-10.82-8.75-17.78c-10.34-20.92-24.49-49.56-30.84-64.29c-9.27-21.51,0.21-37.67,12.94-43.58
			c4.68-2.18,9.77-3.05,14.8-2.61c-9.73-16.39-16.61-30.86-21.28-41.96c-6.19,1.4-12.57,2.1-19.12,2.1
			c-14.72,0-30.32-3.53-46.7-10.57c-0.02-0.01-0.05-0.02-0.07-0.03c-24.74-10.13-39.39-26.41-45.68-51.49
			c-0.3-1.09-0.58-2.18-0.84-3.29c-1.46-6.32-2.23-12.74-2.46-19.05c-0.02-0.4-0.06-0.78-0.08-1.18
			c-0.93-16.64,2.02-30.87,5.74-41.39c2.35-7.63,4.95-13.16,6.82-15.36c0.27-0.31,0.55-0.58,0.85-0.84
			c0.07-2.03,0.27-3.64,0.46-4.77c0.68-3.9,2-7.36,3.86-10.25c0.01-0.01,0.02-0.02,0.02-0.04c0.26-0.41,0.54-0.8,0.82-1.19
			c0.04-0.06,0.08-0.11,0.12-0.17c0.3-0.39,0.6-0.78,0.93-1.15c0.02-0.03,0.05-0.06,0.08-0.09c0.3-0.34,0.61-0.68,0.93-1
			c0.15-0.15,0.3-0.29,0.46-0.43c0.2-0.19,0.4-0.37,0.6-0.55c0.17-0.15,0.34-0.29,0.51-0.43c0.21-0.17,0.42-0.33,0.64-0.5
			c0.17-0.13,0.34-0.25,0.51-0.37c0.25-0.18,0.51-0.35,0.78-0.51c0.14-0.09,0.28-0.18,0.43-0.27c0.33-0.2,0.66-0.38,1-0.56
			c0.02-7.19,1.86-13.82,5.48-19.5c4.5-7.06,11.61-12.35,20.02-14.9c7.85-2.38,16.19-2.21,23.5,0.48c4.34,1.6,8.16,4.06,11.28,7.19
			c0.05-0.05,0.09-0.11,0.14-0.16c0.03-0.03,0.05-0.06,0.07-0.08c0.24-0.26,0.51-0.5,0.78-0.72c0.04-0.03,0.09-0.07,0.13-0.1
			c0.28-0.22,0.58-0.42,0.9-0.6c0.04-0.02,0.08-0.04,0.12-0.06c0.34-0.18,0.68-0.34,1.05-0.48c0.89-0.32,1.78-0.61,2.66-0.88
			c0.08-0.02,0.16-0.05,0.25-0.07c11.81-3.54,22.67-2.57,30.82,2.81c1.15,0.76,2.36,1.69,3.56,2.8c0.01,0,0.02,0,0.03,0
			c0.02,0,0.05,0,0.07,0c1.07,0.04,26.54,1.31,48.68,27.25c15.7,18.39,24.09,48.01,19.94,70.43c-0.68,3.66-1.68,7.08-2.97,10.26
			c-2.01,6.3-18.54,54.52-60.17,73.89c-0.76,0.35-1.53,0.69-2.29,1.02c6.76,15.77,18.16,38.53,35.92,63.66
			c-4.34-14.52-10.93-48.61,13.37-71.52c31.59-29.79,70.83-15.61,74.42-56.14c39.54,45.87,6.76,102.64-22.21,117.53
			c-24.79,12.75-45.51,5.91-61.41,15.89c8.88,12.06,19.21,24.57,31.19,37.05c2.82-1.99,5.88-3.43,9.01-4.33
			c-0.16-5.43,0.96-10.38,3.39-14.74c2.65-4.76,7.66-7.74,14.89-8.87c26.58-4.15,85.68,17.31,109.85,26.73
			c34.84,13.58,78.14,33.69,94.74,47.25c24.22-0.51,156.97-10.47,226.73-15.9C775.84,991.42,779.5,994.55,779.83,998.75z
			 M350.98,586.93v-2.93h3.38v2.93H350.98z M354.34,587.8v9.19H351v-9.19H354.34z M352.99,357.48h-38.44
			c0.49,6.75,5.4,9.95,11.42,9.95c5.4,0,8.84-1.84,10.68-6.14l15.97,1.47c-2.83,12.53-12.9,19.53-27.39,19.53
			c-17.56,0-30.09-10.56-30.09-28c0-17.32,12.77-29.72,29.84-29.72c18.3,0,28,12.53,28,27.39V357.48z M332.54,590.03
			c-0.74,0-1.11,0.47-1.26,1.15l-3.09-0.21c0.29-2.02,1.79-3.42,4.56-3.42c2.43,0,4.23,1.05,4.23,3.61v3.13
			c0,0.47,0.21,0.68,0.56,0.68c0.27,0,0.47-0.04,0.74-0.14v1.77c-0.47,0.33-1.13,0.6-2.08,0.6c-1.13,0-2.02-0.58-2.33-1.63
			c-0.54,1.07-1.59,1.63-3.05,1.63c-1.79,0-2.97-0.93-2.97-2.49c0-1.77,1.28-2.54,3.28-2.89l2.58-0.43v-0.14
			C333.69,590.48,333.34,590.03,332.54,590.03z M328.5,514.71c-10.07,0-19.59-4.16-19.59-18.25v-28.18h-8.05v-13.42l4.43-0.67
			c6.04-0.94,7.92-4.16,9.39-9.66l2.01-7.78h13.69v16.51h15.57v15.03h-15.57v21.88c0,5.1,2.42,7.11,6.84,7.11
			c2.68,0,5.64-0.54,9.26-2.01v14.09C341.92,512.69,336.68,514.71,328.5,514.71z M320.73,594.13c2.02,0,2.8-1.34,3.01-2.78
			l3.36,0.14c-0.25,3.24-2.37,5.75-6.35,5.75c-3.79,0-6.66-2.74-6.66-6.74c0-4,2.87-6.74,6.66-6.74c3.98,0,6.1,2.54,6.35,5.77
			l-3.36,0.12c-0.21-1.44-0.99-2.78-3.01-2.78c-1.92,0-3.03,1.42-3.03,3.63C317.7,592.71,318.81,594.13,320.73,594.13z
			 M310.64,591.51l-0.43,2.06h-2.04l-0.8,3.42h-2.49l0.8-3.42h-1.77l-0.8,3.42h-2.49l0.8-3.42h-1.81l0.43-2.06h1.88l0.49-2.02h-1.98
			l0.43-2.06h2.02l0.82-3.42h2.49l-0.82,3.42h1.77l0.82-3.42h2.49l-0.82,3.42h1.83l-0.43,2.06h-1.88l-0.49,2.02H310.64z
			 M339.23,587.8h3.34v1.59c0.45-1.09,1.48-1.83,3.03-1.83c2.7,0,4.08,2.14,4.08,4.84c0,2.72-1.38,4.84-4.08,4.84
			c-1.55,0-2.58-0.74-3.03-1.81v4.86h-3.34V587.8z M395.87,451.63c16.37,0,21.61,11.41,21.61,23.89v37.58h-21.74v-31.81
			c0-8.19-2.28-12.48-8.86-12.48c-7.38,0-10.33,5.9-10.33,14.9v29.39H354.8v-84.55h21.74v33.68
			C379.76,455.66,386.88,451.63,395.87,451.63z M417.71,352.56l-14.12-2.46c-12.65-2.33-21.49-9.46-21.49-22.97
			c0-15.72,12.28-25.18,31.56-25.18c21.37,0,32.92,10.44,33.28,27.63l-19.16,0.37c-0.61-7.98-6.39-11.67-14.37-11.67
			c-6.88,0-10.81,2.7-10.81,7c0,3.56,2.95,4.91,7.74,5.77l14.62,2.58c16.21,2.83,23.58,11.3,23.58,23.95
			c0,16.46-14.25,24.69-32.3,24.69c-21,0-35.99-10.19-35.99-28.86l19.16-0.61c0.74,9.7,8.23,13.02,16.83,13.02
			c7.25,0,11.91-2.58,11.91-6.88C428.15,354.41,423.6,353.67,417.71,352.56z M456.27,320.88v-17.44h20.14v17.44H456.27z
			 M476.29,326.04v54.78h-19.9v-54.78H476.29z M458,451.63c20,0,30.6,13.69,30.6,29.93v6.04h-42c0.54,7.38,5.91,10.87,12.48,10.87
			c5.9,0,9.66-2.01,11.67-6.71l17.45,1.61c-3.09,13.69-14.09,21.34-29.93,21.34c-19.19,0-32.88-11.54-32.88-30.6
			C425.39,465.18,439.35,451.63,458,451.63z M594.35,493.64c1.21,12.61,1.61,16.37,4.43,19.46h-23.08
			c-1.75-2.28-2.82-7.52-3.49-16.24c-0.67-9.66-4.83-11.81-12.48-11.81h-15.17v28.05h-22.41v-84.55h42.68
			c21.87,0,32.75,10.33,32.75,26.84c0,12.35-7.65,20.4-17.98,21.74C588.31,478.87,593.41,483.84,594.35,493.64z M514.36,367.3
			c5.77,0,9.09-3.32,10.44-10.07l16.33,1.23c-1.35,13.26-10.56,23.83-27.02,23.83c-17.32,0-29.97-11.42-29.97-28.86
			c0-17.32,12.65-28.86,29.97-28.86c16.46,0,25.67,10.69,27.02,23.83l-16.33,1.11c-1.35-6.75-4.67-9.95-10.44-9.95
			c-6.02,0-10.19,4.05-10.19,13.88C504.17,363.25,508.34,367.3,514.36,367.3z M488.51,593.82l-1.36-0.21
			c-2.23-0.35-3.4-1.07-3.4-2.95c0-1.81,1.59-3.11,4.16-3.11c2.66,0,4.23,1.18,4.41,3.09l-2.74,0.08c-0.12-0.66-0.7-1.07-1.73-1.07
			c-0.64,0-1.01,0.25-1.01,0.66c0,0.31,0.25,0.47,0.56,0.52l1.79,0.31c2.06,0.33,3.26,1.26,3.26,3.05c0,1.94-1.65,3.05-4.27,3.05
			c-2.54,0-4.43-1.01-4.62-3.24l2.91-0.04c0.12,0.76,0.74,1.2,1.75,1.2c0.74,0,1.13-0.27,1.13-0.64
			C489.36,594.17,489.15,593.92,488.51,593.82z M476.19,597.24c-2.52,0-3.28-1.73-3.28-3.65v-5.79h3.34v4.91
			c0,1.24,0.35,1.92,1.36,1.92c1.05,0,1.46-0.91,1.46-2.31v-4.51h3.34v9.19h-3.34v-1.38C478.58,596.64,477.57,597.24,476.19,597.24z
			 M470.71,587.55c0.56,0,1.05,0.17,1.28,0.35l-0.21,3.15c-0.45-0.27-0.95-0.39-1.59-0.39c-1.24,0-2,0.58-2,2.12v4.21h-3.34v-9.19
			h3.34v1.63C468.52,588.4,469.49,587.55,470.71,587.55z M459.68,586.93v-2.93h3.38v2.93H459.68z M463.04,587.8v9.19h-3.34v-9.19
			H463.04z M458.8,584.01l-4.99,12.99h-3.69l-4.99-12.99h3.67l3.22,8.64h0.08l3.22-8.64H458.8z M443.33,596.99h-3.73l-0.97-2.51
			h-5.07l-0.97,2.51h-3.53l5.17-12.99h3.92L443.33,596.99z M422.96,593.82l-1.36-0.21c-2.23-0.35-3.4-1.07-3.4-2.95
			c0-1.81,1.59-3.11,4.16-3.11c2.66,0,4.23,1.18,4.41,3.09l-2.74,0.08c-0.12-0.66-0.7-1.07-1.73-1.07c-0.64,0-1.01,0.25-1.01,0.66
			c0,0.31,0.25,0.47,0.56,0.52l1.79,0.31c2.06,0.33,3.26,1.26,3.26,3.05c0,1.94-1.65,3.05-4.27,3.05c-2.54,0-4.43-1.01-4.62-3.24
			l2.91-0.04c0.12,0.76,0.74,1.2,1.75,1.2c0.74,0,1.13-0.27,1.13-0.64C423.8,594.17,423.6,593.92,422.96,593.82z M416.78,584.01
			v12.99h-3.5v-12.99H416.78z M405.11,590.19c-1.11,0-1.48,0.91-1.48,2.29v4.51h-3.34v-4.89c0-1.26-0.25-1.92-1.26-1.92
			c-1.09,0-1.48,0.91-1.48,2.29v4.51h-3.34v-9.19h3.34v1.38c0.49-1.01,1.48-1.63,2.87-1.63c1.63,0,2.47,0.74,2.87,1.81
			c0.5-1.03,1.59-1.81,3.13-1.81c2.54,0,3.28,1.75,3.28,3.67v5.77h-3.34v-4.89C406.34,590.85,406.12,590.19,405.11,590.19z
			 M388.99,593.82l-1.36-0.21c-2.23-0.35-3.4-1.07-3.4-2.95c0-1.81,1.59-3.11,4.16-3.11c2.66,0,4.23,1.18,4.41,3.09l-2.74,0.08
			c-0.12-0.66-0.7-1.07-1.73-1.07c-0.64,0-1.01,0.25-1.01,0.66c0,0.31,0.25,0.47,0.56,0.52l1.79,0.31c2.06,0.33,3.26,1.26,3.26,3.05
			c0,1.94-1.65,3.05-4.27,3.05c-2.54,0-4.43-1.01-4.62-3.24l2.91-0.04c0.12,0.76,0.74,1.2,1.75,1.2c0.74,0,1.13-0.27,1.13-0.64
			C389.83,594.17,389.63,593.92,388.99,593.82z M379.53,586.93v-2.93h3.38v2.93H379.53z M382.89,587.8v9.19h-3.34v-9.19H382.89z
			 M377.73,584.01v12.99h-3.34v-12.99H377.73z M367.7,590.03c-0.74,0-1.11,0.47-1.26,1.15l-3.09-0.21c0.29-2.02,1.79-3.42,4.56-3.42
			c2.43,0,4.23,1.05,4.23,3.61v3.13c0,0.47,0.21,0.68,0.56,0.68c0.27,0,0.47-0.04,0.74-0.14v1.77c-0.47,0.33-1.13,0.6-2.08,0.6
			c-1.13,0-2.02-0.58-2.33-1.63c-0.54,1.07-1.59,1.63-3.05,1.63c-1.79,0-2.97-0.93-2.97-2.49c0-1.77,1.28-2.54,3.28-2.89l2.58-0.43
			v-0.14C368.85,590.48,368.5,590.03,367.7,590.03z M355.25,590.11v-2.06l0.68-0.1c0.93-0.14,1.22-0.64,1.44-1.48l0.31-1.2h2.1v2.54
			h2.39v2.31h-2.39v3.36c0,0.78,0.37,1.09,1.05,1.09c0.41,0,0.87-0.08,1.42-0.31v2.16c-0.7,0.52-1.5,0.82-2.76,0.82
			c-1.55,0-3.01-0.64-3.01-2.8v-4.33H355.25z M606.96,447.6v-19.06h22.01v19.06H606.96z M628.84,453.24v59.85H607.1v-59.85H628.84z
			 M670.44,498.33c6.31,0,9.93-3.62,11.41-11l17.85,1.34c-1.48,14.49-11.54,26.04-29.52,26.04c-18.92,0-32.75-12.48-32.75-31.54
			c0-18.92,13.82-31.54,32.75-31.54c17.98,0,28.05,11.67,29.52,26.04l-17.85,1.21c-1.48-7.38-5.1-10.87-11.41-10.87
			c-6.58,0-11.14,4.43-11.14,15.17S663.87,498.33,670.44,498.33z M761.72,707.35c0-1.79,0.93-2.97,2.49-2.97
			c1.77,0,2.54,1.28,2.89,3.28l0.43,2.58h0.14c0.76,0,1.22-0.35,1.22-1.15c0-0.74-0.47-1.11-1.15-1.26l0.21-3.09
			c2.02,0.29,3.42,1.79,3.42,4.56c0,2.43-1.05,4.23-3.61,4.23h-3.13c-0.47,0-0.68,0.21-0.68,0.56c0,0.27,0.04,0.47,0.14,0.74h-1.77
			c-0.33-0.47-0.6-1.13-0.6-2.08c0-1.13,0.58-2.02,1.63-2.33C762.28,709.87,761.72,708.82,761.72,707.35z M774.92,831.86v3.48
			l-12.99-4.99v-3.69l12.99-4.99v3.67l-8.64,3.22v0.08L774.92,831.86z M774.92,836.23v3.38h-2.93v-3.38H774.92z M768.61,863.39
			c-0.31,0-0.47,0.25-0.52,0.56l-0.31,1.79c-0.33,2.06-1.26,3.26-3.05,3.26c-1.94,0-3.05-1.65-3.05-4.27c0-2.54,1.01-4.43,3.24-4.62
			l0.04,2.91c-0.76,0.12-1.2,0.74-1.2,1.75c0,0.74,0.27,1.13,0.64,1.13c0.35,0,0.6-0.21,0.7-0.85l0.21-1.36
			c0.35-2.23,1.07-3.4,2.95-3.4c1.81,0,3.11,1.59,3.11,4.16c0,2.66-1.17,4.23-3.09,4.41l-0.08-2.74c0.66-0.12,1.07-0.7,1.07-1.73
			C769.27,863.76,769.02,863.39,768.61,863.39z M761.72,742.51c0-1.79,0.93-2.97,2.49-2.97c1.77,0,2.54,1.28,2.89,3.28l0.43,2.58
			h0.14c0.76,0,1.22-0.35,1.22-1.15c0-0.74-0.47-1.11-1.15-1.26l0.21-3.09c2.02,0.29,3.42,1.79,3.42,4.56
			c0,2.43-1.05,4.23-3.61,4.23h-3.13c-0.47,0-0.68,0.21-0.68,0.56c0,0.27,0.04,0.47,0.14,0.74h-1.77c-0.33-0.47-0.6-1.13-0.6-2.08
			c0-1.13,0.58-2.02,1.63-2.33C762.28,745.03,761.72,743.98,761.72,742.51z M761.93,756.1h9.19v3.34h-9.19V756.1z M764.92,760.59
			l0.04,2.91c-0.76,0.12-1.2,0.74-1.2,1.75c0,0.74,0.27,1.13,0.64,1.13c0.35,0,0.6-0.21,0.7-0.85l0.21-1.36
			c0.35-2.23,1.07-3.4,2.95-3.4c1.81,0,3.11,1.59,3.11,4.16c0,2.66-1.17,4.23-3.09,4.41l-0.08-2.74c0.66-0.12,1.07-0.7,1.07-1.73
			c0-0.64-0.25-1.01-0.66-1.01c-0.31,0-0.47,0.25-0.52,0.56l-0.31,1.79c-0.33,2.06-1.26,3.26-3.05,3.26c-1.94,0-3.05-1.65-3.05-4.27
			C761.68,762.67,762.69,760.77,764.92,760.59z M771.37,782.95c0,2.54-1.75,3.28-3.67,3.28h-5.77v-3.34h4.89
			c1.26,0,1.92-0.23,1.92-1.24c0-1.11-0.91-1.48-2.29-1.48h-4.51v-3.34h4.89c1.26,0,1.92-0.25,1.92-1.26c0-1.09-0.91-1.48-2.29-1.48
			h-4.51v-3.34h9.19v3.34h-1.38c1.01,0.5,1.63,1.48,1.63,2.87c0,1.63-0.74,2.47-1.81,2.87
			C770.59,780.32,771.37,781.41,771.37,782.95z M764.4,800.35c0.35,0,0.6-0.21,0.7-0.85l0.21-1.36c0.35-2.23,1.07-3.4,2.95-3.4
			c1.81,0,3.11,1.59,3.11,4.16c0,2.66-1.17,4.23-3.09,4.41l-0.08-2.74c0.66-0.12,1.07-0.7,1.07-1.73c0-0.64-0.25-1.01-0.66-1.01
			c-0.31,0-0.47,0.25-0.52,0.56l-0.31,1.79c-0.33,2.06-1.26,3.26-3.05,3.26c-1.94,0-3.05-1.65-3.05-4.27c0-2.54,1.01-4.43,3.24-4.62
			l0.04,2.91c-0.76,0.12-1.2,0.74-1.2,1.75C763.76,799.96,764.03,800.35,764.4,800.35z M761.93,836.25h9.19v3.34h-9.19V836.25z
			 M766.61,855.62h4.51v3.34h-9.19v-3.34h1.38c-1.03-0.49-1.63-1.5-1.63-2.89c0-2.51,1.73-3.28,3.65-3.28h5.79v3.34h-4.91
			c-1.24,0-1.92,0.35-1.92,1.36C764.3,855.21,765.21,855.62,766.61,855.62z M771.02,848.54l-3.15-0.21
			c0.27-0.45,0.39-0.95,0.39-1.59c0-1.24-0.58-2-2.12-2h-4.21v-3.34h9.19v3.34h-1.63c1.03,0.33,1.88,1.3,1.88,2.52
			C771.37,847.81,771.21,848.31,771.02,848.54z M761.93,819.88v-3.73l2.51-0.97v-5.07l-2.51-0.97v-3.52l12.99,5.17v3.92
			L761.93,819.88z M761.93,793.33v-3.5h12.99v3.5H761.93z M771.99,759.46v-3.38h2.93v3.38H771.99z M761.93,754.28v-3.34h12.99v3.34
			H761.93z M772.46,733.92l1.2,0.31v2.1h-2.54v2.39h-2.31v-2.39h-3.36c-0.78,0-1.09,0.37-1.09,1.05c0,0.41,0.08,0.87,0.31,1.42
			h-2.16c-0.52-0.7-0.82-1.5-0.82-2.76c0-1.55,0.64-3.01,2.8-3.01h4.33v-1.24h2.06l0.1,0.68
			C771.12,733.4,771.62,733.69,772.46,733.92z M771.99,730.91v-3.38h2.93v3.38H771.99z M761.93,730.89v-3.34h9.19v3.34H761.93z
			 M771.12,715.78v3.34h-1.59c1.09,0.45,1.83,1.48,1.83,3.03c0,2.7-2.14,4.08-4.84,4.08c-2.72,0-4.84-1.38-4.84-4.08
			c0-1.55,0.74-2.58,1.81-3.03h-4.86v-3.34H771.12z M769.39,703.65l-0.12-3.36c1.44-0.21,2.78-0.99,2.78-3.01
			c0-1.92-1.42-3.03-3.63-3.03s-3.63,1.11-3.63,3.03c0,2.02,1.34,2.8,2.78,3.01l-0.14,3.36c-3.24-0.25-5.75-2.37-5.75-6.35
			c0-3.79,2.74-6.66,6.74-6.66s6.74,2.87,6.74,6.66C775.16,701.28,772.63,703.4,769.39,703.65z M774.92,680.24v2.49l-3.42-0.83v1.77
			l3.42,0.82v2.49l-3.42-0.82v1.83l-2.06-0.43v-1.88l-2.02-0.49v1.98l-2.06-0.43v-2.04l-3.42-0.8v-2.49l3.42,0.8v-1.77l-3.42-0.8
			v-2.49l3.42,0.8v-1.81l2.06,0.43v1.88l2.02,0.49v-1.98l2.06,0.43v2.02L774.92,680.24z M770.69,475.52v37.58h-21.74v-31.81
			c0-8.19-2.28-12.48-8.86-12.48c-7.38,0-10.33,5.9-10.33,14.9v29.39h-21.74v-84.55h21.74v33.68c3.22-6.58,10.33-10.6,19.33-10.6
			C765.46,451.63,770.69,463.04,770.69,475.52z M610.9,83.99h48.9v140.94h89.74v40.27H610.9V83.99z M611.5,380.81h-22.35
			l-15.72-22.23l-4.79,4.91v17.32h-19.9v-77.38h19.9v41.51l18.79-18.91h23.34l-22.6,21.49L611.5,380.81z M545.04,265.2l-13.52-35.09
			h-70.76l-13.52,35.09h-49.18l72.19-181.21h54.65L597.1,265.2H545.04z M462.05,23.55v-9.19h3.34v9.19H462.05z M523.04,21.53
			c0-0.89,0.58-1.57,1.57-1.94c-0.82-0.54-1.32-1.32-1.32-2.33c0-1.96,1.86-3.15,4.43-3.15c1.11,0,2.16,0.27,2.95,0.74
			c0.56-0.76,1.57-1.42,2.58-1.42v2.51c-0.39,0-0.89,0.04-1.34,0.14c0.19,0.35,0.29,0.74,0.29,1.17c0,1.94-1.88,3.13-4.47,3.13
			c-0.74,0-1.4-0.08-2-0.27c-0.12,0.1-0.19,0.25-0.19,0.43c0,0.31,0.23,0.56,0.78,0.56h3.81c2.08,0,3.13,1.09,3.13,2.64
			c0,2.29-2.78,3.34-5.77,3.34c-2.62,0-4.89-0.52-4.89-2.25c0-0.8,0.72-1.44,1.75-1.53C523.53,23.06,523.04,22.32,523.04,21.53z
			 M515.45,14.36h3.34v1.63c0.33-1.03,1.3-1.88,2.51-1.88c0.56,0,1.05,0.16,1.28,0.35l-0.21,3.15c-0.45-0.27-0.95-0.39-1.59-0.39
			c-1.24,0-2,0.58-2,2.12v4.21h-3.34V14.36z M509.1,14.11c2.99,0,5.03,2,5.03,4.84c0,2.87-2.04,4.84-5.03,4.84
			c-3.01,0-5.03-1.98-5.03-4.84C504.08,16.11,506.1,14.11,509.1,14.11z M497.64,20.01h3.55v3.55h-3.55V20.01z M490.87,20.38
			l-1.36-0.21c-2.23-0.35-3.4-1.07-3.4-2.95c0-1.81,1.59-3.11,4.16-3.11c2.66,0,4.23,1.18,4.41,3.09l-2.74,0.08
			c-0.12-0.66-0.7-1.07-1.73-1.07c-0.64,0-1.01,0.25-1.01,0.66c0,0.31,0.25,0.47,0.56,0.52l1.79,0.31c2.06,0.33,3.26,1.26,3.26,3.05
			c0,1.94-1.65,3.05-4.27,3.05c-2.54,0-4.43-1.01-4.62-3.24l2.91-0.04c0.12,0.76,0.74,1.2,1.75,1.2c0.74,0,1.13-0.27,1.13-0.64
			C491.71,20.73,491.5,20.48,490.87,20.38z M475.26,14.36h3.34v4.91c0,1.24,0.35,1.92,1.36,1.92c1.05,0,1.46-0.91,1.46-2.31v-4.51
			h3.34v9.19h-3.34v-1.38c-0.49,1.03-1.5,1.63-2.89,1.63c-2.52,0-3.28-1.73-3.28-3.65V14.36z M467.2,14.36h3.34v1.63
			c0.33-1.03,1.3-1.88,2.52-1.88c0.56,0,1.05,0.16,1.28,0.35l-0.21,3.15c-0.45-0.27-0.95-0.39-1.59-0.39c-1.24,0-2,0.58-2,2.12v4.21
			h-3.34V14.36z M462.03,10.57h3.38v2.93h-3.38V10.57z M451.15,10.57l3.22,8.64h0.08l3.22-8.64h3.48l-4.99,12.99h-3.69l-4.99-12.99
			H451.15z M436.54,10.57h3.92l5.17,12.99h-3.73l-0.97-2.52h-5.07l-0.97,2.52h-3.53L436.54,10.57z M423.59,20.38l-1.36-0.21
			c-2.23-0.35-3.4-1.07-3.4-2.95c0-1.81,1.59-3.11,4.16-3.11c2.66,0,4.23,1.18,4.41,3.09l-2.74,0.08c-0.12-0.66-0.7-1.07-1.73-1.07
			c-0.64,0-1.01,0.25-1.01,0.66c0,0.31,0.25,0.47,0.56,0.52l1.79,0.31c2.06,0.33,3.26,1.26,3.26,3.05c0,1.94-1.65,3.05-4.27,3.05
			c-2.54,0-4.43-1.01-4.62-3.24l2.91-0.04c0.12,0.76,0.74,1.2,1.75,1.2c0.74,0,1.13-0.27,1.13-0.64
			C424.44,20.73,424.23,20.48,423.59,20.38z M413.91,10.57h3.5v12.99h-3.5V10.57z M393.17,14.36h3.34v1.38
			c0.49-1.01,1.48-1.63,2.87-1.63c1.63,0,2.47,0.74,2.87,1.81c0.5-1.03,1.59-1.81,3.13-1.81c2.54,0,3.28,1.75,3.28,3.67v5.77h-3.34
			v-4.89c0-1.26-0.23-1.92-1.24-1.92c-1.11,0-1.48,0.91-1.48,2.29v4.51h-3.34v-4.89c0-1.26-0.25-1.92-1.26-1.92
			c-1.09,0-1.48,0.91-1.48,2.29v4.51h-3.34V14.36z M387.96,20.38l-1.36-0.21c-2.23-0.35-3.4-1.07-3.4-2.95
			c0-1.81,1.59-3.11,4.16-3.11c2.66,0,4.23,1.18,4.41,3.09l-2.74,0.08c-0.12-0.66-0.7-1.07-1.73-1.07c-0.64,0-1.01,0.25-1.01,0.66
			c0,0.31,0.25,0.47,0.56,0.52l1.79,0.31c2.06,0.33,3.26,1.26,3.26,3.05c0,1.94-1.65,3.05-4.27,3.05c-2.54,0-4.43-1.01-4.62-3.24
			l2.91-0.04c0.12,0.76,0.74,1.2,1.75,1.2c0.74,0,1.13-0.27,1.13-0.64C388.8,20.73,388.6,20.48,387.96,20.38z M378.5,10.57h3.38
			v2.93h-3.38V10.57z M381.86,14.36v9.19h-3.34v-9.19H381.86z M373.37,10.57h3.34v12.99h-3.34V10.57z M366.67,16.59
			c-0.74,0-1.11,0.47-1.26,1.15l-3.09-0.21c0.29-2.02,1.79-3.42,4.56-3.42c2.43,0,4.23,1.05,4.23,3.61v3.13
			c0,0.47,0.21,0.68,0.56,0.68c0.27,0,0.47-0.04,0.74-0.14v1.77c-0.47,0.33-1.13,0.6-2.08,0.6c-1.13,0-2.02-0.58-2.33-1.63
			c-0.54,1.07-1.59,1.63-3.05,1.63c-1.79,0-2.97-0.93-2.97-2.49c0-1.77,1.28-2.54,3.28-2.89l2.58-0.43V17.8
			C367.82,17.04,367.47,16.59,366.67,16.59z M354.22,14.61l0.68-0.1c0.93-0.14,1.22-0.64,1.44-1.48l0.31-1.2h2.1v2.54h2.39v2.31
			h-2.39v3.36c0,0.78,0.37,1.09,1.05,1.09c0.41,0,0.87-0.08,1.42-0.31v2.16c-0.7,0.52-1.5,0.82-2.76,0.82
			c-1.55,0-3.01-0.64-3.01-2.8v-4.33h-1.24V14.61z M349.95,10.57h3.38v2.93h-3.38V10.57z M353.31,14.36v9.19h-3.34v-9.19H353.31z
			 M338.2,14.36h3.34v1.59c0.45-1.09,1.48-1.83,3.03-1.83c2.7,0,4.08,2.14,4.08,4.84c0,2.72-1.38,4.84-4.08,4.84
			c-1.55,0-2.58-0.74-3.03-1.81v4.87h-3.34V14.36z M331.51,16.59c-0.74,0-1.11,0.47-1.26,1.15l-3.09-0.21
			c0.29-2.02,1.79-3.42,4.56-3.42c2.43,0,4.23,1.05,4.23,3.61v3.13c0,0.47,0.21,0.68,0.56,0.68c0.27,0,0.47-0.04,0.74-0.14v1.77
			c-0.47,0.33-1.13,0.6-2.08,0.6c-1.13,0-2.02-0.58-2.33-1.63c-0.54,1.07-1.59,1.63-3.05,1.63c-1.79,0-2.97-0.93-2.97-2.49
			c0-1.77,1.28-2.54,3.28-2.89l2.58-0.43V17.8C332.66,17.04,332.31,16.59,331.51,16.59z M319.72,10.32c3.98,0,6.1,2.54,6.35,5.77
			l-3.36,0.12c-0.21-1.44-0.99-2.78-3.01-2.78c-1.92,0-3.03,1.42-3.03,3.63s1.11,3.63,3.03,3.63c2.02,0,2.8-1.34,3.01-2.78
			l3.36,0.14c-0.25,3.24-2.37,5.75-6.35,5.75c-3.79,0-6.66-2.74-6.66-6.74S315.93,10.32,319.72,10.32z M306.63,20.01h3.55v3.55
			h-3.55V20.01z M262.3,14.36l1.65,5.22h0.08l1.34-5.22h2.66l1.34,5.22h0.08l1.65-5.22h2.92h0.09h3.23l1.65,5.22h0.08l1.34-5.22
			h2.66l1.34,5.22h0.08l1.65-5.22h2.92h0.09h3.23l1.65,5.22h0.08l1.34-5.22h2.66l1.34,5.22h0.08l1.65-5.22h3.01l-2.91,9.19h-3.28
			l-1.34-5.19h-0.08l-1.34,5.19h-3.28l-2.86-9.06l-2.86,9.06h-3.28l-1.34-5.19h-0.08l-1.34,5.19h-3.28l-2.86-9.06l-2.86,9.06h-3.28
			l-1.34-5.19h-0.08l-1.34,5.19h-3.28l-2.91-9.19H262.3z M247.35,83.99h140.07v40.27h-92.04v29.63h71.04v39.69h-71.04v31.35h94.63
			v40.27H247.35V83.99z M230.54,303.44h19.9v30.83c2.95-6.02,9.46-9.7,17.69-9.7c14.98,0,19.77,10.44,19.77,21.86v34.39H268v-29.11
			c0-7.49-2.09-11.42-8.11-11.42c-6.75,0-9.46,5.4-9.46,13.63v26.9h-19.9V303.44z M214.46,366.32c2.46,0,5.16-0.49,8.47-1.84v12.9
			c-4.18,3.07-8.97,4.91-16.46,4.91c-9.21,0-17.93-3.81-17.93-16.7v-25.79h-7.37v-12.28l4.05-0.61c5.53-0.86,7.25-3.81,8.6-8.84
			l1.84-7.12h12.53v15.11h14.25v13.75h-14.25v20.02C208.19,364.48,210.4,366.32,214.46,366.32z M49.75,83.99h48.9v69.89h72.19V83.99
			h48.9V265.2h-48.9v-71.62H98.65v71.62h-48.9V83.99z M20.1,428.55h81.06v18.79H71.77v65.76H49.09v-65.76H20.1V428.55z
			 M19.25,780.88c0,0.39,0.04,0.89,0.14,1.34c0.35-0.19,0.74-0.29,1.18-0.29c1.94,0,3.13,1.88,3.13,4.47c0,0.74-0.08,1.4-0.27,2
			c0.1,0.12,0.25,0.19,0.43,0.19c0.31,0,0.56-0.23,0.56-0.78v-3.81c0-2.08,1.09-3.13,2.64-3.13c2.29,0,3.34,2.78,3.34,5.77
			c0,2.62-0.52,4.89-2.25,4.89c-0.8,0-1.44-0.72-1.53-1.75c-0.27,0.82-1.01,1.32-1.79,1.32c-0.89,0-1.57-0.58-1.94-1.57
			c-0.54,0.82-1.32,1.32-2.33,1.32c-1.96,0-3.15-1.86-3.15-4.43c0-1.11,0.27-2.16,0.74-2.95c-0.76-0.56-1.42-1.57-1.42-2.58H19.25z
			 M13.87,848.71h2.93v3.38h-2.93V848.71z M13.87,862.97l8.64-3.22v-0.08l-8.64-3.22v-3.48l12.99,4.99v3.69l-12.99,4.99V862.97z
			 M13.87,873.67l12.99-5.17v3.73l-2.51,0.97v5.07l2.51,0.97v3.52l-12.99-5.17V873.67z M13.87,896.71h12.99v3.5H13.87V896.71z
			 M13.87,932.24h2.93v3.38h-2.93V932.24z M13.87,937.41h12.99v3.34H13.87V937.41z M13.87,960.79h2.93v3.38h-2.93V960.79z
			 M19.4,988.05l0.12,3.36c-1.44,0.21-2.78,0.99-2.78,3.01c0,1.92,1.42,3.03,3.63,3.03c2.21,0,3.63-1.11,3.63-3.03
			c0-2.02-1.34-2.8-2.78-3.01l0.14-3.36c3.24,0.25,5.75,2.37,5.75,6.35c0,3.79-2.74,6.66-6.74,6.66c-4,0-6.74-2.87-6.74-6.66
			C13.63,990.42,16.16,988.3,19.4,988.05z"/>
		<path class="st5" d="M331.05,594.27c0,0.47,0.37,0.78,0.93,0.78c0.95,0,1.71-0.7,1.71-1.9v-0.14l-1.36,0.25
			C331.53,593.43,331.05,593.67,331.05,594.27z"/>
		<path class="st5" d="M344.43,594.66c1.3,0,1.9-0.93,1.9-2.27c0-1.32-0.6-2.25-1.9-2.25c-1.13,0-1.86,0.87-1.86,2.19v0.12
			C342.57,593.8,343.29,594.66,344.43,594.66z"/>
		<polygon class="st5" points="436.14,588.03 436.05,588.03 434.57,591.86 437.62,591.86 		"/>
		<polygon class="st5" points="138.6,454.72 128.94,479.68 148.8,479.68 139.14,454.72 		"/>
		<path class="st5" d="M560.8,446.8h-16.24v20.67h16.24c9.66,0,14.49-2.42,14.49-10.2C575.29,450.42,570.46,446.8,560.8,446.8z"/>
		<path class="st5" d="M457.73,467.2c-6.98,0-10.06,4.29-10.87,9.93h21.07C467.66,471.76,464.17,467.2,457.73,467.2z"/>
		<path class="st5" d="M324.74,338.81c-6.39,0-9.21,3.93-9.95,9.09h19.28C333.83,342.98,330.63,338.81,324.74,338.81z"/>
		<polygon points="98.65,193.58 170.85,193.58 170.85,265.2 219.74,265.2 219.74,83.99 170.85,83.99 170.85,153.89 98.65,153.89 
			98.65,83.99 49.75,83.99 49.75,265.2 98.65,265.2 		"/>
		<polygon points="390.01,224.93 295.38,224.93 295.38,193.58 366.43,193.58 366.43,153.89 295.38,153.89 295.38,124.26 
			387.43,124.26 387.43,83.99 247.35,83.99 247.35,265.2 390.01,265.2 		"/>
		<path d="M470.26,83.99L398.06,265.2h49.18l13.52-35.09h70.76l13.52,35.09h52.06L524.91,83.99H470.26z M474.86,193.58l20.71-53.5
			h1.15l20.71,53.5H474.86z"/>
		<polygon points="749.54,224.93 659.8,224.93 659.8,83.99 610.9,83.99 610.9,265.2 749.54,265.2 		"/>
		<polygon points="49.09,513.09 71.77,513.09 71.77,447.34 101.16,447.34 101.16,428.55 20.1,428.55 20.1,447.34 49.09,447.34 		"/>
		<path d="M152.29,428.55h-25.5l-33.68,84.55h22.95l6.31-16.37h33.01l6.31,16.37h24.29h25.1l19.32-26.97l19.59,26.97h26.71
			l-32.48-44.55l30.06-39.99h-25.1l-17.04,23.75l-17.04-23.75h-26.71l30.06,41.33l-32.48,43.21L152.29,428.55z M128.94,479.68
			l9.66-24.96h0.54l9.66,24.96H128.94z"/>
		<path d="M346.48,495.25c-3.62,1.48-6.58,2.01-9.26,2.01c-4.43,0-6.84-2.01-6.84-7.11v-21.88h15.57v-15.03h-15.57v-16.51h-13.69
			l-2.01,7.78c-1.48,5.5-3.35,8.72-9.39,9.66l-4.43,0.67v13.42h8.05v28.18c0,14.09,9.53,18.25,19.59,18.25
			c8.19,0,13.42-2.01,17.98-5.37V495.25z"/>
		<path d="M354.8,428.55v84.55h21.74v-29.39c0-8.99,2.95-14.9,10.33-14.9c6.58,0,8.86,4.29,8.86,12.48v31.81h21.74v-37.58
			c0-12.48-5.23-23.89-21.61-23.89c-8.99,0-16.1,4.03-19.32,10.6v-33.68H354.8z"/>
		<path d="M425.39,484.11c0,19.06,13.69,30.6,32.88,30.6c15.84,0,26.84-7.65,29.93-21.34l-17.45-1.61
			c-2.01,4.7-5.77,6.71-11.67,6.71c-6.58,0-11.94-3.49-12.48-10.87h42v-6.04c0-16.24-10.6-29.93-30.6-29.93
			C439.35,451.63,425.39,465.18,425.39,484.11z M457.73,467.2c6.44,0,9.93,4.56,10.2,9.93h-21.07
			C447.67,471.49,450.75,467.2,457.73,467.2z"/>
		<path d="M597.57,455.39c0-16.51-10.87-26.84-32.75-26.84h-42.68v84.55h22.41v-28.05h15.17c7.65,0,11.81,2.15,12.48,11.81
			c0.67,8.72,1.74,13.96,3.49,16.24h23.08c-2.82-3.09-3.22-6.84-4.43-19.46c-0.94-9.8-6.04-14.76-14.76-16.51
			C589.92,475.79,597.57,467.73,597.57,455.39z M560.8,467.47h-16.24V446.8h16.24c9.66,0,14.49,3.62,14.49,10.47
			C575.29,465.05,570.46,467.47,560.8,467.47z"/>
		<rect x="607.1" y="453.24" width="21.74" height="59.85"/>
		<rect x="606.96" y="428.55" width="22.01" height="19.06"/>
		<path d="M670.44,468c6.31,0,9.93,3.49,11.41,10.87l17.85-1.21c-1.48-14.36-11.54-26.04-29.52-26.04
			c-18.92,0-32.75,12.61-32.75,31.54c0,19.06,13.82,31.54,32.75,31.54c17.98,0,28.05-11.54,29.52-26.04l-17.85-1.34
			c-1.48,7.38-5.1,11-11.41,11c-6.58,0-11.14-4.43-11.14-15.17S663.87,468,670.44,468z"/>
		<path d="M729.76,462.23v-33.68h-21.74v84.55h21.74v-29.39c0-8.99,2.95-14.9,10.33-14.9c6.58,0,8.86,4.29,8.86,12.48v31.81h21.74
			v-37.58c0-12.48-5.23-23.89-21.61-23.89C740.09,451.63,732.98,455.66,729.76,462.23z"/>
		<path d="M222.44,339.79v-13.75h-14.25v-15.11h-12.53l-1.84,7.12c-1.35,5.04-3.07,7.98-8.6,8.84l-4.05,0.61v12.28h7.37v25.79
			c0,12.9,8.72,16.7,17.93,16.7c7.49,0,12.28-1.84,16.46-4.91v-12.9c-3.32,1.35-6.02,1.84-8.47,1.84c-4.05,0-6.26-1.84-6.26-6.51
			v-20.02H222.44z"/>
		<path d="M250.44,353.92c0-8.23,2.7-13.63,9.46-13.63c6.02,0,8.11,3.93,8.11,11.42v29.11h19.9v-34.39
			c0-11.42-4.79-21.86-19.77-21.86c-8.23,0-14.74,3.68-17.69,9.7v-30.83h-19.9v77.38h19.9V353.92z"/>
		<path d="M324.98,324.56c-17.07,0-29.84,12.41-29.84,29.72c0,17.44,12.53,28,30.09,28c14.49,0,24.56-7,27.39-19.53l-15.97-1.47
			c-1.84,4.3-5.28,6.14-10.68,6.14c-6.02,0-10.93-3.19-11.42-9.95h38.44v-5.53C352.99,337.09,343.28,324.56,324.98,324.56z
			 M314.79,347.9c0.74-5.16,3.56-9.09,9.95-9.09c5.9,0,9.09,4.18,9.33,9.09H314.79z"/>
		<path d="M416.23,365.83c-8.6,0-16.09-3.32-16.83-13.02l-19.16,0.61c0,18.67,14.98,28.86,35.99,28.86c18.05,0,32.3-8.23,32.3-24.69
			c0-12.65-7.37-21.12-23.58-23.95l-14.62-2.58c-4.79-0.86-7.74-2.21-7.74-5.77c0-4.3,3.93-7,10.81-7c7.98,0,13.76,3.68,14.37,11.67
			l19.16-0.37c-0.37-17.19-11.91-27.63-33.28-27.63c-19.28,0-31.56,9.46-31.56,25.18c0,13.51,8.84,20.63,21.49,22.97l14.12,2.46
			c5.89,1.11,10.44,1.84,10.44,6.39C428.15,363.25,423.48,365.83,416.23,365.83z"/>
		<rect x="456.27" y="303.44" width="20.14" height="17.44"/>
		<rect x="456.39" y="326.04" width="19.9" height="54.78"/>
		<path d="M514.36,339.55c5.77,0,9.09,3.19,10.44,9.95l16.33-1.11c-1.35-13.14-10.56-23.83-27.02-23.83
			c-17.32,0-29.97,11.54-29.97,28.86c0,17.44,12.65,28.86,29.97,28.86c16.46,0,25.67-10.56,27.02-23.83l-16.33-1.23
			c-1.35,6.75-4.67,10.07-10.44,10.07c-6.02,0-10.19-4.05-10.19-13.88C504.17,343.6,508.34,339.55,514.36,339.55z"/>
		<polygon points="587.43,326.04 568.64,344.95 568.64,303.44 548.75,303.44 548.75,380.81 568.64,380.81 568.64,363.5 
			573.43,358.58 589.15,380.81 611.5,380.81 588.17,347.53 610.77,326.04 		"/>
		<polygon points="265.16,23.55 266.5,18.36 266.58,18.36 267.92,23.55 271.2,23.55 274.07,14.5 276.93,23.55 280.21,23.55 
			281.55,18.36 281.63,18.36 282.97,23.55 286.25,23.55 289.11,14.5 291.98,23.55 295.25,23.55 296.59,18.36 296.68,18.36 
			298.02,23.55 301.29,23.55 304.2,14.36 301.19,14.36 299.54,19.58 299.46,19.58 298.12,14.36 295.46,14.36 294.12,19.58 
			294.04,19.58 292.39,14.36 289.16,14.36 289.07,14.36 286.15,14.36 284.5,19.58 284.41,19.58 283.07,14.36 280.41,14.36 
			279.07,19.58 278.99,19.58 277.34,14.36 274.11,14.36 274.02,14.36 271.1,14.36 269.45,19.58 269.37,19.58 268.03,14.36 
			265.37,14.36 264.03,19.58 263.95,19.58 262.3,14.36 258.98,14.36 261.88,23.55 		"/>
		<rect x="306.63" y="20.01" width="3.55" height="3.55"/>
		<path d="M319.72,23.8c3.98,0,6.1-2.52,6.35-5.75l-3.36-0.14c-0.21,1.44-0.99,2.78-3.01,2.78c-1.92,0-3.03-1.42-3.03-3.63
			s1.11-3.63,3.03-3.63c2.02,0,2.8,1.34,3.01,2.78l3.36-0.12c-0.25-3.24-2.37-5.77-6.35-5.77c-3.79,0-6.66,2.74-6.66,6.74
			S315.93,23.8,319.72,23.8z"/>
		<path d="M330.08,18.38c-2,0.35-3.28,1.11-3.28,2.89c0,1.57,1.18,2.49,2.97,2.49c1.46,0,2.51-0.56,3.05-1.63
			c0.31,1.05,1.2,1.63,2.33,1.63c0.95,0,1.61-0.27,2.08-0.6v-1.77c-0.27,0.1-0.47,0.14-0.74,0.14c-0.35,0-0.56-0.21-0.56-0.68v-3.13
			c0-2.56-1.79-3.61-4.23-3.61c-2.76,0-4.27,1.4-4.56,3.42l3.09,0.21c0.14-0.68,0.52-1.15,1.26-1.15c0.8,0,1.15,0.45,1.15,1.22v0.14
			L330.08,18.38z M332.66,19.72c0,1.2-0.76,1.9-1.71,1.9c-0.56,0-0.93-0.31-0.93-0.78c0-0.6,0.47-0.85,1.28-1.01l1.36-0.25V19.72z"
			/>
		<path d="M341.54,21.99c0.45,1.07,1.48,1.81,3.03,1.81c2.7,0,4.08-2.12,4.08-4.84c0-2.7-1.38-4.84-4.08-4.84
			c-1.55,0-2.58,0.74-3.03,1.83v-1.59h-3.34v12.49h3.34V21.99z M341.54,18.9c0-1.32,0.72-2.19,1.85-2.19c1.3,0,1.9,0.93,1.9,2.25
			c0,1.34-0.6,2.27-1.9,2.27c-1.13,0-1.85-0.87-1.85-2.21V18.9z"/>
		<rect x="349.97" y="14.36" width="3.34" height="9.19"/>
		<rect x="349.95" y="10.57" width="3.38" height="2.93"/>
		<path d="M355.46,21c0,2.16,1.46,2.8,3.01,2.8c1.26,0,2.06-0.31,2.76-0.82v-2.16c-0.56,0.23-1.01,0.31-1.42,0.31
			c-0.68,0-1.05-0.31-1.05-1.09v-3.36h2.39v-2.31h-2.39v-2.54h-2.1l-0.31,1.2c-0.23,0.85-0.52,1.34-1.44,1.48l-0.68,0.1v2.06h1.24
			V21z"/>
		<path d="M365.25,18.38c-2,0.35-3.28,1.11-3.28,2.89c0,1.57,1.17,2.49,2.97,2.49c1.46,0,2.51-0.56,3.05-1.63
			c0.31,1.05,1.2,1.63,2.33,1.63c0.95,0,1.61-0.27,2.08-0.6v-1.77c-0.27,0.1-0.47,0.14-0.74,0.14c-0.35,0-0.56-0.21-0.56-0.68v-3.13
			c0-2.56-1.79-3.61-4.23-3.61c-2.76,0-4.27,1.4-4.56,3.42l3.09,0.21c0.14-0.68,0.52-1.15,1.26-1.15c0.8,0,1.15,0.45,1.15,1.22v0.14
			L365.25,18.38z M367.82,19.72c0,1.2-0.76,1.9-1.71,1.9c-0.56,0-0.93-0.31-0.93-0.78c0-0.6,0.47-0.85,1.28-1.01l1.36-0.25V19.72z"
			/>
		<rect x="373.37" y="10.57" width="3.34" height="12.99"/>
		<rect x="378.52" y="14.36" width="3.34" height="9.19"/>
		<rect x="378.5" y="10.57" width="3.38" height="2.93"/>
		<path d="M387.67,21.72c-1.01,0-1.63-0.43-1.75-1.2l-2.91,0.04c0.19,2.23,2.08,3.24,4.62,3.24c2.62,0,4.27-1.11,4.27-3.05
			c0-1.79-1.2-2.72-3.26-3.05l-1.79-0.31c-0.31-0.04-0.56-0.21-0.56-0.52c0-0.41,0.37-0.66,1.01-0.66c1.03,0,1.61,0.41,1.73,1.07
			l2.74-0.08c-0.19-1.92-1.75-3.09-4.41-3.09c-2.58,0-4.16,1.3-4.16,3.11c0,1.88,1.17,2.6,3.4,2.95l1.36,0.21
			c0.64,0.1,0.85,0.35,0.85,0.7C388.8,21.45,388.41,21.72,387.67,21.72z"/>
		<path d="M396.51,19.04c0-1.38,0.39-2.29,1.48-2.29c1.01,0,1.26,0.66,1.26,1.92v4.89h3.34v-4.51c0-1.38,0.37-2.29,1.48-2.29
			c1.01,0,1.24,0.66,1.24,1.92v4.89h3.34v-5.77c0-1.92-0.74-3.67-3.28-3.67c-1.55,0-2.64,0.78-3.13,1.81
			c-0.39-1.07-1.24-1.81-2.87-1.81c-1.38,0-2.37,0.62-2.87,1.63v-1.38h-3.34v9.19h3.34V19.04z"/>
		<rect x="413.91" y="10.57" width="3.5" height="12.99"/>
		<path d="M423.3,21.72c-1.01,0-1.63-0.43-1.75-1.2l-2.91,0.04c0.19,2.23,2.08,3.24,4.62,3.24c2.62,0,4.27-1.11,4.27-3.05
			c0-1.79-1.2-2.72-3.26-3.05l-1.79-0.31c-0.31-0.04-0.56-0.21-0.56-0.52c0-0.41,0.37-0.66,1.01-0.66c1.03,0,1.61,0.41,1.73,1.07
			l2.74-0.08c-0.19-1.92-1.75-3.09-4.41-3.09c-2.58,0-4.16,1.3-4.16,3.11c0,1.88,1.17,2.6,3.4,2.95l1.36,0.21
			c0.64,0.1,0.84,0.35,0.84,0.7C424.44,21.45,424.05,21.72,423.3,21.72z"/>
		<path d="M435.86,21.04h5.07l0.97,2.52h3.73l-5.17-12.99h-3.92l-5.17,12.99h3.53L435.86,21.04z M438.35,14.59h0.08l1.48,3.83h-3.05
			L438.35,14.59z"/>
		<polygon points="456.16,23.55 461.15,10.57 457.66,10.57 454.45,19.2 454.36,19.2 451.15,10.57 447.48,10.57 452.47,23.55 		"/>
		<rect x="462.03" y="10.57" width="3.38" height="2.93"/>
		<rect x="462.05" y="14.36" width="3.34" height="9.19"/>
		<path d="M470.54,19.35c0-1.55,0.76-2.12,2-2.12c0.64,0,1.13,0.12,1.59,0.39l0.21-3.15c-0.23-0.19-0.72-0.35-1.28-0.35
			c-1.22,0-2.19,0.85-2.52,1.88v-1.63h-3.34v9.19h3.34V19.35z"/>
		<path d="M478.54,23.8c1.38,0,2.39-0.6,2.89-1.63v1.38h3.34v-9.19h-3.34v4.51c0,1.4-0.41,2.31-1.46,2.31
			c-1.01,0-1.36-0.68-1.36-1.92v-4.91h-3.34v5.79C475.26,22.07,476.02,23.8,478.54,23.8z"/>
		<path d="M490.58,21.72c-1.01,0-1.63-0.43-1.75-1.2l-2.91,0.04c0.19,2.23,2.08,3.24,4.62,3.24c2.62,0,4.27-1.11,4.27-3.05
			c0-1.79-1.2-2.72-3.26-3.05l-1.79-0.31c-0.31-0.04-0.56-0.21-0.56-0.52c0-0.41,0.37-0.66,1.01-0.66c1.03,0,1.61,0.41,1.73,1.07
			l2.74-0.08c-0.19-1.92-1.75-3.09-4.41-3.09c-2.58,0-4.16,1.3-4.16,3.11c0,1.88,1.18,2.6,3.4,2.95l1.36,0.21
			c0.64,0.1,0.84,0.35,0.84,0.7C491.71,21.45,491.32,21.72,490.58,21.72z"/>
		<rect x="497.64" y="20.01" width="3.55" height="3.55"/>
		<path d="M509.1,23.8c2.99,0,5.03-1.98,5.03-4.84c0-2.84-2.04-4.84-5.03-4.84c-3.01,0-5.03,2-5.03,4.84
			C504.08,21.82,506.1,23.8,509.1,23.8z M509.1,16.63c1.15,0,1.67,0.95,1.67,2.33c0,1.38-0.52,2.33-1.67,2.33
			c-1.18,0-1.67-0.95-1.67-2.33C507.44,17.58,507.93,16.63,509.1,16.63z"/>
		<path d="M518.79,19.35c0-1.55,0.76-2.12,2-2.12c0.64,0,1.13,0.12,1.59,0.39l0.21-3.15c-0.23-0.19-0.72-0.35-1.28-0.35
			c-1.22,0-2.19,0.85-2.51,1.88v-1.63h-3.34v9.19h3.34V19.35z"/>
		<path d="M522.6,24.85c0,1.73,2.27,2.25,4.89,2.25c2.99,0,5.77-1.05,5.77-3.34c0-1.55-1.05-2.64-3.13-2.64h-3.81
			c-0.56,0-0.78-0.25-0.78-0.56c0-0.19,0.06-0.33,0.19-0.43c0.6,0.19,1.26,0.27,2,0.27c2.6,0,4.47-1.2,4.47-3.13
			c0-0.43-0.1-0.82-0.29-1.17c0.45-0.1,0.95-0.14,1.34-0.14v-2.51c-1.01,0-2.02,0.66-2.58,1.42c-0.78-0.47-1.83-0.74-2.95-0.74
			c-2.58,0-4.43,1.2-4.43,3.15c0,1.01,0.5,1.79,1.32,2.33c-0.99,0.37-1.57,1.05-1.57,1.94c0,0.78,0.49,1.53,1.32,1.79
			C523.33,23.41,522.6,24.05,522.6,24.85z M527.76,15.95c0.56,0,0.97,0.52,0.97,1.32c0,0.82-0.41,1.34-0.97,1.34
			s-0.97-0.52-0.97-1.34C526.79,16.46,527.2,15.95,527.76,15.95z M525.96,23.97h3.38c0.56,0,0.85,0.14,0.85,0.54
			c0,0.56-1.13,0.87-2.68,0.87c-1.24,0-2.16-0.19-2.16-0.84C525.35,24.17,525.59,23.97,525.96,23.97z"/>
		<path d="M311.03,589.49l0.43-2.06h-1.83l0.82-3.42h-2.49l-0.82,3.42h-1.77l0.82-3.42h-2.49l-0.82,3.42h-2.02l-0.43,2.06h1.98
			l-0.49,2.02h-1.88l-0.43,2.06h1.81l-0.8,3.42h2.49l0.8-3.42h1.77l-0.8,3.42h2.49l0.8-3.42h2.04l0.43-2.06h-1.98l0.49-2.02H311.03z
			 M306.17,591.51h-1.77l0.49-2.02h1.77L306.17,591.51z"/>
		<path d="M320.73,586.87c2.02,0,2.8,1.34,3.01,2.78l3.36-0.12c-0.25-3.24-2.37-5.77-6.35-5.77c-3.79,0-6.66,2.74-6.66,6.74
			c0,4,2.87,6.74,6.66,6.74c3.98,0,6.1-2.52,6.35-5.75l-3.36-0.14c-0.21,1.44-0.99,2.78-3.01,2.78c-1.92,0-3.03-1.42-3.03-3.63
			C317.7,588.29,318.81,586.87,320.73,586.87z"/>
		<path d="M331.11,591.82c-2,0.35-3.28,1.11-3.28,2.89c0,1.57,1.18,2.49,2.97,2.49c1.46,0,2.51-0.56,3.05-1.63
			c0.31,1.05,1.2,1.63,2.33,1.63c0.95,0,1.61-0.27,2.08-0.6v-1.77c-0.27,0.1-0.47,0.14-0.74,0.14c-0.35,0-0.56-0.21-0.56-0.68v-3.13
			c0-2.56-1.79-3.61-4.23-3.61c-2.76,0-4.27,1.4-4.56,3.42l3.09,0.21c0.14-0.68,0.52-1.15,1.26-1.15c0.8,0,1.15,0.45,1.15,1.22v0.14
			L331.11,591.82z M333.69,593.16c0,1.2-0.76,1.9-1.71,1.9c-0.56,0-0.93-0.31-0.93-0.78c0-0.6,0.47-0.85,1.28-1.01l1.36-0.25V593.16
			z"/>
		<path d="M342.57,595.43c0.45,1.07,1.48,1.81,3.03,1.81c2.7,0,4.08-2.12,4.08-4.84c0-2.7-1.38-4.84-4.08-4.84
			c-1.55,0-2.58,0.74-3.03,1.83v-1.59h-3.34v12.49h3.34V595.43z M342.57,592.33c0-1.32,0.72-2.19,1.86-2.19c1.3,0,1.9,0.93,1.9,2.25
			c0,1.34-0.6,2.27-1.9,2.27c-1.13,0-1.86-0.87-1.86-2.21V592.33z"/>
		<rect x="350.98" y="584.01" width="3.38" height="2.93"/>
		<rect x="351" y="587.8" width="3.34" height="9.19"/>
		<path d="M359.49,597.24c1.26,0,2.06-0.31,2.76-0.82v-2.16c-0.56,0.23-1.01,0.31-1.42,0.31c-0.68,0-1.05-0.31-1.05-1.09v-3.36h2.39
			v-2.31h-2.39v-2.54h-2.1l-0.31,1.2c-0.23,0.85-0.52,1.34-1.44,1.48l-0.68,0.1v2.06h1.24v4.33
			C356.48,596.6,357.95,597.24,359.49,597.24z"/>
		<path d="M366.27,591.82c-2,0.35-3.28,1.11-3.28,2.89c0,1.57,1.17,2.49,2.97,2.49c1.46,0,2.51-0.56,3.05-1.63
			c0.31,1.05,1.2,1.63,2.33,1.63c0.95,0,1.61-0.27,2.08-0.6v-1.77c-0.27,0.1-0.47,0.14-0.74,0.14c-0.35,0-0.56-0.21-0.56-0.68v-3.13
			c0-2.56-1.79-3.61-4.23-3.61c-2.76,0-4.27,1.4-4.56,3.42l3.09,0.21c0.14-0.68,0.52-1.15,1.26-1.15c0.8,0,1.15,0.45,1.15,1.22v0.14
			L366.27,591.82z M368.85,593.16c0,1.2-0.76,1.9-1.71,1.9c-0.56,0-0.93-0.31-0.93-0.78c0-0.6,0.47-0.85,1.28-1.01l1.36-0.25V593.16
			z"/>
		<rect x="374.39" y="584.01" width="3.34" height="12.99"/>
		<rect x="379.55" y="587.8" width="3.34" height="9.19"/>
		<rect x="379.53" y="584.01" width="3.38" height="2.93"/>
		<path d="M388.7,595.16c-1.01,0-1.63-0.43-1.75-1.2l-2.91,0.04c0.19,2.23,2.08,3.24,4.62,3.24c2.62,0,4.27-1.11,4.27-3.05
			c0-1.79-1.2-2.72-3.26-3.05l-1.79-0.31c-0.31-0.04-0.56-0.21-0.56-0.52c0-0.41,0.37-0.66,1.01-0.66c1.03,0,1.61,0.41,1.73,1.07
			l2.74-0.08c-0.19-1.92-1.75-3.09-4.41-3.09c-2.58,0-4.16,1.3-4.16,3.11c0,1.88,1.17,2.6,3.4,2.95l1.36,0.21
			c0.64,0.1,0.85,0.35,0.85,0.7C389.83,594.89,389.44,595.16,388.7,595.16z"/>
		<path d="M409.68,596.99v-5.77c0-1.92-0.74-3.67-3.28-3.67c-1.55,0-2.64,0.78-3.13,1.81c-0.39-1.07-1.24-1.81-2.87-1.81
			c-1.38,0-2.37,0.62-2.87,1.63v-1.38h-3.34v9.19h3.34v-4.51c0-1.38,0.39-2.29,1.48-2.29c1.01,0,1.26,0.66,1.26,1.92v4.89h3.34
			v-4.51c0-1.38,0.37-2.29,1.48-2.29c1.01,0,1.24,0.66,1.24,1.92v4.89H409.68z"/>
		<rect x="413.27" y="584.01" width="3.5" height="12.99"/>
		<path d="M422.67,595.16c-1.01,0-1.63-0.43-1.75-1.2l-2.91,0.04c0.19,2.23,2.08,3.24,4.62,3.24c2.62,0,4.27-1.11,4.27-3.05
			c0-1.79-1.2-2.72-3.26-3.05l-1.79-0.31c-0.31-0.04-0.56-0.21-0.56-0.52c0-0.41,0.37-0.66,1.01-0.66c1.03,0,1.61,0.41,1.73,1.07
			l2.74-0.08c-0.19-1.92-1.75-3.09-4.41-3.09c-2.58,0-4.16,1.3-4.16,3.11c0,1.88,1.17,2.6,3.4,2.95l1.36,0.21
			c0.64,0.1,0.85,0.35,0.85,0.7C423.8,594.89,423.41,595.16,422.67,595.16z"/>
		<path d="M429.07,596.99h3.53l0.97-2.51h5.07l0.97,2.51h3.73l-5.17-12.99h-3.92L429.07,596.99z M436.05,588.03h0.08l1.48,3.83
			h-3.05L436.05,588.03z"/>
		<polygon points="452.1,592.64 452.01,592.64 448.8,584.01 445.13,584.01 450.12,596.99 453.81,596.99 458.8,584.01 455.31,584.01 
					"/>
		<rect x="459.68" y="584.01" width="3.38" height="2.93"/>
		<rect x="459.7" y="587.8" width="3.34" height="9.19"/>
		<path d="M464.85,587.8v9.19h3.34v-4.21c0-1.55,0.76-2.12,2-2.12c0.64,0,1.13,0.12,1.59,0.39l0.21-3.15
			c-0.23-0.19-0.72-0.35-1.28-0.35c-1.22,0-2.19,0.85-2.52,1.88v-1.63H464.85z"/>
		<path d="M482.41,596.99v-9.19h-3.34v4.51c0,1.4-0.41,2.31-1.46,2.31c-1.01,0-1.36-0.68-1.36-1.92v-4.91h-3.34v5.79
			c0,1.92,0.76,3.65,3.28,3.65c1.38,0,2.39-0.6,2.89-1.63v1.38H482.41z"/>
		<path d="M488.22,595.16c-1.01,0-1.63-0.43-1.75-1.2l-2.91,0.04c0.19,2.23,2.08,3.24,4.62,3.24c2.62,0,4.27-1.11,4.27-3.05
			c0-1.79-1.2-2.72-3.26-3.05l-1.79-0.31c-0.31-0.04-0.56-0.21-0.56-0.52c0-0.41,0.37-0.66,1.01-0.66c1.03,0,1.61,0.41,1.73,1.07
			l2.74-0.08c-0.19-1.92-1.75-3.09-4.41-3.09c-2.58,0-4.16,1.3-4.16,3.11c0,1.88,1.18,2.6,3.4,2.95l1.36,0.21
			c0.64,0.1,0.84,0.35,0.84,0.7C489.36,594.89,488.97,595.16,488.22,595.16z"/>
	</g>
</g>
</svg>
