<?xml version="1.0" encoding="utf-8"?>
<!-- Generator: Adobe Illustrator 23.1.1, SVG Export Plug-In . SVG Version: 6.00 Build 0)  -->
<svg version="1.1" xmlns="http://www.w3.org/2000/svg" xmlns:xlink="http://www.w3.org/1999/xlink" x="0px" y="0px"
	 viewBox="0 0 792 612" style="enable-background:new 0 0 792 612;" xml:space="preserve">
<style type="text/css">
	.st0{display:none;}
	.st1{display:inline;fill:#FFFFFF;}
	.st2{display:inline;}
	.st3{fill:#FFFFFF;stroke:#000000;stroke-width:16;stroke-linecap:round;stroke-linejoin:round;stroke-miterlimit:10;}
	.st4{fill:none;stroke:#000000;stroke-width:24;stroke-linejoin:round;stroke-miterlimit:10;}
	.st5{fill:#FFFFFF;}
	.st6{fill:#FFFFFF;stroke:#000000;stroke-width:17;stroke-linecap:round;stroke-miterlimit:10;}
	.st7{fill:#FFFFFF;stroke:#000000;stroke-width:17;stroke-miterlimit:10;}
	.st8{stroke:#000000;stroke-width:16.0572;stroke-linecap:round;stroke-miterlimit:10;}
	.st9{font-family:'FoundersGrotesk-Bold';}
	.st10{font-size:20.6105px;}
	.st11{font-size:10.3052px;}
	.st12{font-size:19.2364px;}
	.st13{font-size:10px;}
	.st14{fill:#FFFFFF;stroke:#000000;stroke-width:13.497;stroke-linecap:round;stroke-linejoin:round;stroke-miterlimit:10;}
	.st15{stroke:#000000;stroke-width:18.3348;stroke-linecap:round;stroke-miterlimit:10;}
	.st16{fill:none;stroke:#000000;stroke-width:13.497;stroke-linecap:round;stroke-linejoin:round;stroke-miterlimit:10;}
	.st17{font-size:180.6389px;}
	.st18{font-size:219.9206px;}
	.st19{font-size:98.7079px;}
	.st20{fill:#FFFFFF;stroke:#000000;stroke-width:14.6942;stroke-linecap:round;stroke-linejoin:round;stroke-miterlimit:10;}
	.st21{fill:none;stroke:#000000;stroke-width:13;stroke-linecap:round;stroke-linejoin:round;stroke-miterlimit:10;}
	.st22{fill:none;stroke:#000000;stroke-width:13;stroke-linejoin:round;stroke-miterlimit:10;}
	.st23{fill:url(#);stroke:#000000;stroke-width:13;stroke-linejoin:round;stroke-miterlimit:10;}
	.st24{fill:none;stroke:#000000;stroke-width:30.5612;stroke-linecap:round;stroke-linejoin:round;stroke-miterlimit:10;}
	.st25{fill:#FFFFFF;stroke:#000000;stroke-width:16.2993;stroke-linecap:round;stroke-linejoin:round;stroke-miterlimit:10;}
	.st26{fill:#FFFFFF;stroke:#000000;stroke-width:13.497;stroke-linecap:round;stroke-miterlimit:10;}
	.st27{fill:url(#);stroke:#000000;stroke-width:13.497;stroke-linecap:round;stroke-linejoin:round;stroke-miterlimit:10;}
	.st28{fill:#FFFFFF;stroke:#000000;stroke-width:11.7326;stroke-linecap:round;stroke-linejoin:round;stroke-miterlimit:10;}
	.st29{fill:#FFFFFF;stroke:#000000;stroke-width:13.2623;stroke-linecap:round;stroke-linejoin:round;stroke-miterlimit:10;}
	.st30{fill:#FFFFFF;stroke:#000000;stroke-width:13.2623;stroke-linecap:round;stroke-miterlimit:10;}
	.st31{stroke:#000000;stroke-width:4.5213;stroke-miterlimit:10;}
	.st32{fill:none;stroke:#000000;stroke-width:16;stroke-linecap:round;stroke-miterlimit:10;}
	.st33{fill:url(#);stroke:#000000;stroke-width:16;stroke-linecap:round;stroke-linejoin:round;stroke-miterlimit:10;}
	.st34{fill:#FFFFFF;stroke:#000000;stroke-width:16;stroke-linecap:round;stroke-miterlimit:10;}
	.st35{fill:none;stroke:#000000;stroke-width:16;stroke-linecap:round;stroke-linejoin:round;stroke-miterlimit:10;}
	.st36{fill:none;stroke:#000000;stroke-width:15.2344;stroke-linecap:round;stroke-linejoin:round;stroke-miterlimit:10;}
	.st37{fill:#FFFFFF;stroke:#000000;stroke-width:15.2344;stroke-linecap:round;stroke-linejoin:round;stroke-miterlimit:10;}
	.st38{fill:#FFFFFF;stroke:#000000;stroke-width:17;stroke-linecap:round;stroke-linejoin:round;stroke-miterlimit:10;}
	.st39{fill:none;stroke:#000000;stroke-width:9.9764;stroke-linecap:round;stroke-linejoin:round;stroke-miterlimit:10;}
	.st40{fill:none;stroke:#000000;stroke-width:9.3127;stroke-linejoin:round;stroke-miterlimit:10;}
	.st41{fill:url(#);}
	.st42{fill:none;stroke:#000000;stroke-width:8.3796;stroke-linecap:round;stroke-linejoin:round;stroke-miterlimit:10;}
	
		.st43{display:inline;fill:none;stroke:#000000;stroke-width:9.9764;stroke-linecap:round;stroke-linejoin:round;stroke-miterlimit:10;}
	.st44{display:inline;fill:none;stroke:#000000;stroke-width:9.3127;stroke-linejoin:round;stroke-miterlimit:10;}
	.st45{display:inline;fill:url(#);stroke:#000000;stroke-width:10;stroke-linejoin:round;stroke-miterlimit:10;}
	.st46{fill:#FFFFFF;stroke:#000000;stroke-width:14.7375;stroke-linecap:round;stroke-linejoin:round;stroke-miterlimit:10;}
	.st47{fill:none;stroke:#000000;stroke-width:14.7375;stroke-linecap:round;stroke-linejoin:round;stroke-miterlimit:10;}
	.st48{stroke:#000000;stroke-width:14.7375;stroke-linecap:round;stroke-linejoin:round;stroke-miterlimit:10;}
	.st49{fill:#FFFFFF;stroke:#000000;stroke-width:14.2911;stroke-linecap:round;stroke-linejoin:round;stroke-miterlimit:10;}
	.st50{fill:none;stroke:#000000;stroke-width:15;stroke-linecap:round;stroke-linejoin:round;stroke-miterlimit:10;}
	.st51{fill:#FFFFFF;stroke:#000000;stroke-width:15;stroke-linecap:round;stroke-linejoin:round;stroke-miterlimit:10;}
	.st52{fill:#FFFFFF;stroke:#000000;stroke-width:14.8467;stroke-linecap:round;stroke-linejoin:round;stroke-miterlimit:10;}
	.st53{stroke:#000000;stroke-width:20.1683;stroke-linecap:round;stroke-miterlimit:10;}
	.st54{fill:none;stroke:#000000;stroke-width:14.8467;stroke-linecap:round;stroke-linejoin:round;stroke-miterlimit:10;}
	.st55{fill:none;stroke:#000000;stroke-width:13.497;stroke-miterlimit:10;}
	.st56{fill:#FFFFFF;stroke:#000000;stroke-width:13.497;stroke-miterlimit:10;}
	.st57{fill:#FFFFFF;stroke:#000000;stroke-width:14.7439;stroke-linecap:round;stroke-miterlimit:10;}
	.st58{fill:#FFFFFF;stroke:#000000;stroke-width:14.7439;stroke-miterlimit:10;}
	.st59{stroke:#000000;stroke-width:13.9262;stroke-linecap:round;stroke-miterlimit:10;}
	.st60{fill:#FFFFFF;stroke:#000000;stroke-width:17.1072;stroke-linecap:round;stroke-linejoin:round;stroke-miterlimit:10;}
	.st61{stroke:#000000;stroke-width:17.1072;stroke-linecap:round;stroke-linejoin:round;stroke-miterlimit:10;}
	.st62{fill:#FFFFFF;stroke:#000000;stroke-width:15;stroke-linecap:square;stroke-linejoin:round;stroke-miterlimit:10;}
	.st63{fill:#FFFFFF;stroke:#000000;stroke-width:15;stroke-linejoin:round;stroke-miterlimit:10;}
	.st64{fill:#FFFFFF;stroke:#000000;stroke-width:14;stroke-linecap:round;stroke-linejoin:round;stroke-miterlimit:10;}
	.st65{fill:#FFFFFF;stroke:#000000;stroke-width:13;stroke-linecap:round;stroke-linejoin:round;stroke-miterlimit:10;}
	.st66{fill:#FFFFFF;stroke:#000000;stroke-width:15.2362;stroke-linecap:round;stroke-linejoin:round;stroke-miterlimit:10;}
	.st67{fill:#FFFFFF;stroke:#FFFFFF;stroke-width:3;stroke-miterlimit:10;}
	.st68{fill:#FFFFFF;stroke:#000000;stroke-width:13.3058;stroke-linecap:round;stroke-linejoin:round;stroke-miterlimit:10;}
	.st69{fill:#FFFFFF;stroke:#000000;stroke-width:15.2517;stroke-linecap:round;stroke-linejoin:round;stroke-miterlimit:10;}
	.st70{stroke:#000000;stroke-width:3;stroke-miterlimit:10;}
</style>
<g id="unexpanded" class="st0">
	<rect x="-2754.75" y="-343.56" class="st1" width="14663.41" height="9108.82"/>
	<g class="st2">
		<rect x="0.14" class="st5" width="792" height="1224"/>
		<g>
			<g>
				<text transform="matrix(1 0 0 1 258.9679 23.5542)"><tspan x="0" y="0" class="st9 st10">www</tspan><tspan x="45.14" y="0" class="st9 st11"> </tspan><tspan x="46.99" y="0" class="st9 st10">.</tspan><tspan x="51.77" y="0" class="st9 st11"> </tspan><tspan x="53.63" y="0" class="st9 st10">Capitalism</tspan><tspan x="150.43" y="0" class="st9 st12"> </tspan><tspan x="153.9" y="0" class="st9 st10">Is</tspan><tspan x="168.88" y="0" class="st9 st12"> </tspan><tspan x="172.34" y="0" class="st9 st10">A</tspan><tspan x="186.6" y="0" class="st9 st11"> </tspan><tspan x="188.46" y="0" class="st9 st10">Virus</tspan><tspan x="236.15" y="0" class="st9 st11"> </tspan><tspan x="238.01" y="0" class="st9 st10">.</tspan><tspan x="242.79" y="0" class="st9 st11"> </tspan><tspan x="244.64" y="0" class="st9 st10">org</tspan></text>
			</g>
			<g>
				<text transform="matrix(1 0 0 1 299.1802 596.9933)"><tspan x="0" y="0" class="st9 st10">#</tspan><tspan x="12.7" y="0" class="st9 st13"> </tspan><tspan x="14.5" y="0" class="st9 st10">Capitalism</tspan><tspan x="111.3" y="0" class="st9 st13"> </tspan><tspan x="113.1" y="0" class="st9 st10">Is</tspan><tspan x="128.09" y="0" class="st9 st13"> </tspan><tspan x="129.89" y="0" class="st9 st10">A</tspan><tspan x="144.15" y="0" class="st9 st13"> </tspan><tspan x="145.95" y="0" class="st9 st10">Virus</tspan></text>
			</g>
		</g>
		<g>
			<text transform="matrix(1 0 0 1 97.502 548.9163)" class="st9 st17">PROFIT</text>
			<text transform="matrix(1 0 0 1 2.4595 295.7184)" class="st9 st18">PEOPLE</text>
		</g>
		<g>
			<g>
				<text transform="matrix(1 0 0 1 38.6797 114.2866)" class="st9 st19">Socialism Means</text>
			</g>
		</g>
		<g>
			<g>
				<text transform="matrix(1 0 0 1 291.1738 393.0634)" class="st9 st19">Over</text>
			</g>
		</g>
	</g>
</g>
<g id="exp_trnsp_bg">
	<polygon points="265.16,23.55 266.5,18.36 266.58,18.36 267.92,23.55 271.2,23.55 274.07,14.5 276.93,23.55 280.21,23.55 
		281.55,18.36 281.63,18.36 282.97,23.55 286.25,23.55 289.11,14.5 291.98,23.55 295.25,23.55 296.59,18.36 296.68,18.36 
		298.02,23.55 301.29,23.55 304.2,14.36 301.19,14.36 299.54,19.58 299.46,19.58 298.12,14.36 295.46,14.36 294.12,19.58 
		294.04,19.58 292.39,14.36 289.15,14.36 289.07,14.36 286.15,14.36 284.5,19.58 284.41,19.58 283.07,14.36 280.41,14.36 
		279.07,19.58 278.99,19.58 277.34,14.36 274.11,14.36 274.02,14.36 271.1,14.36 269.45,19.58 269.37,19.58 268.03,14.36 
		265.37,14.36 264.03,19.58 263.95,19.58 262.3,14.36 258.98,14.36 261.88,23.55 	"/>
	<rect x="306.63" y="20.01" width="3.55" height="3.55"/>
	<path d="M319.72,23.8c3.98,0,6.1-2.52,6.35-5.75l-3.36-0.14c-0.21,1.44-0.99,2.78-3.01,2.78c-1.92,0-3.03-1.42-3.03-3.63
		s1.11-3.63,3.03-3.63c2.02,0,2.8,1.34,3.01,2.78l3.36-0.12c-0.25-3.24-2.37-5.77-6.35-5.77c-3.79,0-6.66,2.74-6.66,6.74
		S315.92,23.8,319.72,23.8z"/>
	<path d="M330.08,18.38c-2,0.35-3.28,1.11-3.28,2.89c0,1.57,1.17,2.49,2.97,2.49c1.46,0,2.52-0.56,3.05-1.63
		c0.31,1.05,1.2,1.63,2.33,1.63c0.95,0,1.61-0.27,2.08-0.6v-1.77c-0.27,0.1-0.47,0.14-0.74,0.14c-0.35,0-0.56-0.21-0.56-0.68v-3.13
		c0-2.56-1.79-3.61-4.23-3.61c-2.76,0-4.27,1.4-4.56,3.42l3.09,0.21c0.14-0.68,0.52-1.15,1.26-1.15c0.8,0,1.15,0.45,1.15,1.22v0.14
		L330.08,18.38z M332.66,19.72c0,1.2-0.76,1.9-1.71,1.9c-0.56,0-0.93-0.31-0.93-0.78c0-0.6,0.47-0.85,1.28-1.01l1.36-0.25V19.72z"/>
	<path d="M341.54,21.99c0.45,1.07,1.48,1.81,3.03,1.81c2.7,0,4.08-2.12,4.08-4.84c0-2.7-1.38-4.84-4.08-4.84
		c-1.55,0-2.58,0.74-3.03,1.83v-1.59h-3.34v12.49h3.34V21.99z M341.54,18.9c0-1.32,0.72-2.19,1.86-2.19c1.3,0,1.9,0.93,1.9,2.25
		c0,1.34-0.6,2.27-1.9,2.27c-1.13,0-1.86-0.87-1.86-2.21V18.9z"/>
	<rect x="349.95" y="10.57" width="3.38" height="2.93"/>
	<rect x="349.97" y="14.36" width="3.34" height="9.19"/>
	<path d="M355.46,21c0,2.16,1.46,2.8,3.01,2.8c1.26,0,2.06-0.31,2.76-0.82v-2.16c-0.56,0.23-1.01,0.31-1.42,0.31
		c-0.68,0-1.05-0.31-1.05-1.09v-3.36h2.39v-2.31h-2.39v-2.54h-2.1l-0.31,1.2c-0.23,0.85-0.52,1.34-1.44,1.48l-0.68,0.1v2.06h1.24V21
		z"/>
	<path d="M365.25,18.38c-2,0.35-3.28,1.11-3.28,2.89c0,1.57,1.17,2.49,2.97,2.49c1.46,0,2.52-0.56,3.05-1.63
		c0.31,1.05,1.2,1.63,2.33,1.63c0.95,0,1.61-0.27,2.08-0.6v-1.77c-0.27,0.1-0.47,0.14-0.74,0.14c-0.35,0-0.56-0.21-0.56-0.68v-3.13
		c0-2.56-1.79-3.61-4.23-3.61c-2.76,0-4.27,1.4-4.56,3.42l3.09,0.21c0.14-0.68,0.52-1.15,1.26-1.15c0.8,0,1.15,0.45,1.15,1.22v0.14
		L365.25,18.38z M367.82,19.72c0,1.2-0.76,1.9-1.71,1.9c-0.56,0-0.93-0.31-0.93-0.78c0-0.6,0.47-0.85,1.28-1.01l1.36-0.25V19.72z"/>
	<rect x="373.37" y="10.57" width="3.34" height="12.99"/>
	<rect x="378.5" y="10.57" width="3.38" height="2.93"/>
	<rect x="378.52" y="14.36" width="3.34" height="9.19"/>
	<path d="M387.67,21.72c-1.01,0-1.63-0.43-1.75-1.2l-2.91,0.04c0.19,2.23,2.08,3.24,4.62,3.24c2.62,0,4.27-1.11,4.27-3.05
		c0-1.79-1.2-2.72-3.26-3.05l-1.79-0.31c-0.31-0.04-0.56-0.21-0.56-0.52c0-0.41,0.37-0.66,1.01-0.66c1.03,0,1.61,0.41,1.73,1.07
		l2.74-0.08c-0.19-1.92-1.75-3.09-4.41-3.09c-2.58,0-4.16,1.3-4.16,3.11c0,1.88,1.17,2.6,3.4,2.95l1.36,0.21
		c0.64,0.1,0.85,0.35,0.85,0.7C388.8,21.45,388.41,21.72,387.67,21.72z"/>
	<path d="M396.51,19.04c0-1.38,0.39-2.29,1.48-2.29c1.01,0,1.26,0.66,1.26,1.92v4.89h3.34v-4.51c0-1.38,0.37-2.29,1.48-2.29
		c1.01,0,1.24,0.66,1.24,1.92v4.89h3.34v-5.77c0-1.92-0.74-3.67-3.28-3.67c-1.55,0-2.64,0.78-3.13,1.81
		c-0.39-1.07-1.24-1.81-2.87-1.81c-1.38,0-2.37,0.62-2.87,1.63v-1.38h-3.34v9.19h3.34V19.04z"/>
	<rect x="413.91" y="10.57" width="3.5" height="12.99"/>
	<path d="M423.3,21.72c-1.01,0-1.63-0.43-1.75-1.2l-2.91,0.04c0.19,2.23,2.08,3.24,4.62,3.24c2.62,0,4.27-1.11,4.27-3.05
		c0-1.79-1.2-2.72-3.26-3.05l-1.79-0.31c-0.31-0.04-0.56-0.21-0.56-0.52c0-0.41,0.37-0.66,1.01-0.66c1.03,0,1.61,0.41,1.73,1.07
		l2.74-0.08c-0.19-1.92-1.75-3.09-4.41-3.09c-2.58,0-4.16,1.3-4.16,3.11c0,1.88,1.18,2.6,3.4,2.95l1.36,0.21
		c0.64,0.1,0.85,0.35,0.85,0.7C424.44,21.45,424.05,21.72,423.3,21.72z"/>
	<path d="M435.86,21.04h5.07l0.97,2.52h3.73l-5.17-12.99h-3.92l-5.17,12.99h3.52L435.86,21.04z M438.35,14.59h0.08l1.48,3.83h-3.05
		L438.35,14.59z"/>
	<polygon points="456.16,23.55 461.15,10.57 457.66,10.57 454.45,19.2 454.36,19.2 451.15,10.57 447.48,10.57 452.47,23.55 	"/>
	<rect x="462.05" y="14.36" width="3.34" height="9.19"/>
	<rect x="462.03" y="10.57" width="3.38" height="2.93"/>
	<path d="M470.54,19.35c0-1.55,0.76-2.12,2-2.12c0.64,0,1.13,0.12,1.59,0.39l0.21-3.15c-0.23-0.19-0.72-0.35-1.28-0.35
		c-1.22,0-2.19,0.85-2.52,1.88v-1.63h-3.34v9.19h3.34V19.35z"/>
	<path d="M478.54,23.8c1.38,0,2.39-0.6,2.89-1.63v1.38h3.34v-9.19h-3.34v4.51c0,1.4-0.41,2.31-1.46,2.31
		c-1.01,0-1.36-0.68-1.36-1.92v-4.91h-3.34v5.79C475.26,22.07,476.02,23.8,478.54,23.8z"/>
	<path d="M490.58,21.72c-1.01,0-1.63-0.43-1.75-1.2l-2.91,0.04c0.19,2.23,2.08,3.24,4.62,3.24c2.62,0,4.27-1.11,4.27-3.05
		c0-1.79-1.2-2.72-3.26-3.05l-1.79-0.31c-0.31-0.04-0.56-0.21-0.56-0.52c0-0.41,0.37-0.66,1.01-0.66c1.03,0,1.61,0.41,1.73,1.07
		l2.74-0.08c-0.19-1.92-1.75-3.09-4.41-3.09c-2.58,0-4.16,1.3-4.16,3.11c0,1.88,1.18,2.6,3.4,2.95l1.36,0.21
		c0.64,0.1,0.85,0.35,0.85,0.7C491.71,21.45,491.32,21.72,490.58,21.72z"/>
	<rect x="497.64" y="20.01" width="3.55" height="3.55"/>
	<path d="M509.1,23.8c2.99,0,5.03-1.98,5.03-4.84c0-2.84-2.04-4.84-5.03-4.84c-3.01,0-5.03,2-5.03,4.84
		C504.07,21.82,506.09,23.8,509.1,23.8z M509.1,16.63c1.15,0,1.67,0.95,1.67,2.33c0,1.38-0.52,2.33-1.67,2.33
		c-1.17,0-1.67-0.95-1.67-2.33C507.44,17.58,507.93,16.63,509.1,16.63z"/>
	<path d="M518.79,19.35c0-1.55,0.76-2.12,2-2.12c0.64,0,1.13,0.12,1.59,0.39l0.21-3.15c-0.23-0.19-0.72-0.35-1.28-0.35
		c-1.22,0-2.19,0.85-2.52,1.88v-1.63h-3.34v9.19h3.34V19.35z"/>
	<path d="M522.6,24.85c0,1.73,2.27,2.25,4.89,2.25c2.99,0,5.77-1.05,5.77-3.34c0-1.55-1.05-2.64-3.13-2.64h-3.81
		c-0.56,0-0.78-0.25-0.78-0.56c0-0.19,0.06-0.33,0.19-0.43c0.6,0.19,1.26,0.27,2,0.27c2.6,0,4.47-1.2,4.47-3.13
		c0-0.43-0.1-0.82-0.29-1.17c0.45-0.1,0.95-0.14,1.34-0.14v-2.51c-1.01,0-2.02,0.66-2.58,1.42c-0.78-0.47-1.83-0.74-2.95-0.74
		c-2.58,0-4.43,1.2-4.43,3.15c0,1.01,0.49,1.79,1.32,2.33c-0.99,0.37-1.57,1.05-1.57,1.94c0,0.78,0.49,1.53,1.32,1.79
		C523.33,23.41,522.6,24.05,522.6,24.85z M527.76,15.95c0.56,0,0.97,0.52,0.97,1.32c0,0.82-0.41,1.34-0.97,1.34
		c-0.56,0-0.97-0.52-0.97-1.34C526.79,16.46,527.2,15.95,527.76,15.95z M525.96,23.97h3.38c0.56,0,0.85,0.14,0.85,0.54
		c0,0.56-1.13,0.87-2.68,0.87c-1.24,0-2.16-0.19-2.16-0.84C525.35,24.17,525.59,23.97,525.96,23.97z"/>
	<path d="M311.03,589.49l0.43-2.06h-1.83l0.82-3.42h-2.49l-0.82,3.42h-1.77l0.83-3.42h-2.49l-0.82,3.42h-2.02l-0.43,2.06h1.98
		l-0.49,2.02h-1.88l-0.43,2.06h1.81l-0.8,3.42h2.49l0.8-3.42h1.77l-0.8,3.42h2.49l0.8-3.42h2.04l0.43-2.06h-1.98l0.49-2.02H311.03z
		 M306.17,591.51h-1.77l0.5-2.02h1.77L306.17,591.51z"/>
	<path d="M320.73,586.87c2.02,0,2.8,1.34,3.01,2.78l3.36-0.12c-0.25-3.24-2.37-5.77-6.35-5.77c-3.79,0-6.66,2.74-6.66,6.74
		c0,4,2.87,6.74,6.66,6.74c3.98,0,6.1-2.52,6.35-5.75l-3.36-0.14c-0.21,1.44-0.99,2.78-3.01,2.78c-1.92,0-3.03-1.42-3.03-3.63
		C317.7,588.29,318.81,586.87,320.73,586.87z"/>
	<path d="M331.11,591.82c-2,0.35-3.28,1.11-3.28,2.89c0,1.57,1.18,2.49,2.97,2.49c1.46,0,2.52-0.56,3.05-1.63
		c0.31,1.05,1.2,1.63,2.33,1.63c0.95,0,1.61-0.27,2.08-0.6v-1.77c-0.27,0.1-0.47,0.14-0.74,0.14c-0.35,0-0.56-0.21-0.56-0.68v-3.13
		c0-2.56-1.79-3.61-4.23-3.61c-2.76,0-4.27,1.4-4.56,3.42l3.09,0.21c0.14-0.68,0.52-1.15,1.26-1.15c0.8,0,1.15,0.45,1.15,1.22v0.14
		L331.11,591.82z M333.69,593.16c0,1.2-0.76,1.9-1.71,1.9c-0.56,0-0.93-0.31-0.93-0.78c0-0.6,0.47-0.85,1.28-1.01l1.36-0.25V593.16z
		"/>
	<path d="M339.23,587.8v12.49h3.34v-4.87c0.45,1.07,1.48,1.81,3.03,1.81c2.7,0,4.08-2.12,4.08-4.84c0-2.7-1.38-4.84-4.08-4.84
		c-1.55,0-2.58,0.74-3.03,1.83v-1.59H339.23z M344.43,590.15c1.3,0,1.9,0.93,1.9,2.25c0,1.34-0.6,2.27-1.9,2.27
		c-1.13,0-1.86-0.87-1.86-2.21v-0.12C342.57,591.02,343.29,590.15,344.43,590.15z"/>
	<rect x="351" y="587.8" width="3.34" height="9.19"/>
	<rect x="350.98" y="584.01" width="3.38" height="2.93"/>
	<path d="M359.49,597.24c1.26,0,2.06-0.31,2.76-0.82v-2.16c-0.56,0.23-1.01,0.31-1.42,0.31c-0.68,0-1.05-0.31-1.05-1.09v-3.36h2.39
		v-2.31h-2.39v-2.54h-2.1l-0.31,1.2c-0.23,0.85-0.52,1.34-1.44,1.48l-0.68,0.1v2.06h1.24v4.33
		C356.48,596.6,357.95,597.24,359.49,597.24z"/>
	<path d="M366.27,591.82c-2,0.35-3.28,1.11-3.28,2.89c0,1.57,1.18,2.49,2.97,2.49c1.46,0,2.51-0.56,3.05-1.63
		c0.31,1.05,1.2,1.63,2.33,1.63c0.95,0,1.61-0.27,2.08-0.6v-1.77c-0.27,0.1-0.47,0.14-0.74,0.14c-0.35,0-0.56-0.21-0.56-0.68v-3.13
		c0-2.56-1.79-3.61-4.23-3.61c-2.76,0-4.27,1.4-4.56,3.42l3.09,0.21c0.14-0.68,0.52-1.15,1.26-1.15c0.8,0,1.15,0.45,1.15,1.22v0.14
		L366.27,591.82z M368.85,593.16c0,1.2-0.76,1.9-1.71,1.9c-0.56,0-0.93-0.31-0.93-0.78c0-0.6,0.47-0.85,1.28-1.01l1.36-0.25V593.16z
		"/>
	<rect x="374.39" y="584.01" width="3.34" height="12.99"/>
	<rect x="379.53" y="584.01" width="3.38" height="2.93"/>
	<rect x="379.55" y="587.8" width="3.34" height="9.19"/>
	<path d="M388.7,595.16c-1.01,0-1.63-0.43-1.75-1.2l-2.91,0.04c0.19,2.23,2.08,3.24,4.62,3.24c2.62,0,4.27-1.11,4.27-3.05
		c0-1.79-1.2-2.72-3.26-3.05l-1.79-0.31c-0.31-0.04-0.56-0.21-0.56-0.52c0-0.41,0.37-0.66,1.01-0.66c1.03,0,1.61,0.41,1.73,1.07
		l2.74-0.08c-0.19-1.92-1.75-3.09-4.41-3.09c-2.58,0-4.16,1.3-4.16,3.11c0,1.88,1.18,2.6,3.4,2.95l1.36,0.21
		c0.64,0.1,0.85,0.35,0.85,0.7C389.83,594.89,389.44,595.16,388.7,595.16z"/>
	<path d="M409.68,596.99v-5.77c0-1.92-0.74-3.67-3.28-3.67c-1.55,0-2.64,0.78-3.13,1.81c-0.39-1.07-1.24-1.81-2.87-1.81
		c-1.38,0-2.37,0.62-2.87,1.63v-1.38h-3.34v9.19h3.34v-4.51c0-1.38,0.39-2.29,1.48-2.29c1.01,0,1.26,0.66,1.26,1.92v4.89h3.34v-4.51
		c0-1.38,0.37-2.29,1.48-2.29c1.01,0,1.24,0.66,1.24,1.92v4.89H409.68z"/>
	<rect x="413.27" y="584.01" width="3.5" height="12.99"/>
	<path d="M422.67,595.16c-1.01,0-1.63-0.43-1.75-1.2l-2.91,0.04c0.19,2.23,2.08,3.24,4.62,3.24c2.62,0,4.27-1.11,4.27-3.05
		c0-1.79-1.2-2.72-3.26-3.05l-1.79-0.31c-0.31-0.04-0.56-0.21-0.56-0.52c0-0.41,0.37-0.66,1.01-0.66c1.03,0,1.61,0.41,1.73,1.07
		l2.74-0.08c-0.19-1.92-1.75-3.09-4.41-3.09c-2.58,0-4.16,1.3-4.16,3.11c0,1.88,1.18,2.6,3.4,2.95l1.36,0.21
		c0.64,0.1,0.85,0.35,0.85,0.7C423.8,594.89,423.41,595.16,422.67,595.16z"/>
	<path d="M433.56,594.48h5.07l0.97,2.51h3.73l-5.17-12.99h-3.92l-5.17,12.99h3.52L433.56,594.48z M436.05,588.03h0.08l1.48,3.83
		h-3.05L436.05,588.03z"/>
	<polygon points="453.81,596.99 458.8,584.01 455.31,584.01 452.1,592.64 452.01,592.64 448.8,584.01 445.13,584.01 450.12,596.99 	
		"/>
	<rect x="459.68" y="584.01" width="3.38" height="2.93"/>
	<rect x="459.7" y="587.8" width="3.34" height="9.19"/>
	<path d="M464.85,587.8v9.19h3.34v-4.21c0-1.55,0.76-2.12,2-2.12c0.64,0,1.13,0.12,1.59,0.39l0.21-3.15
		c-0.23-0.19-0.72-0.35-1.28-0.35c-1.22,0-2.19,0.85-2.52,1.88v-1.63H464.85z"/>
	<path d="M482.41,596.99v-9.19h-3.34v4.51c0,1.4-0.41,2.31-1.46,2.31c-1.01,0-1.36-0.68-1.36-1.92v-4.91h-3.34v5.79
		c0,1.92,0.76,3.65,3.28,3.65c1.38,0,2.39-0.6,2.89-1.63v1.38H482.41z"/>
	<path d="M488.23,595.16c-1.01,0-1.63-0.43-1.75-1.2l-2.91,0.04c0.19,2.23,2.08,3.24,4.62,3.24c2.62,0,4.27-1.11,4.27-3.05
		c0-1.79-1.2-2.72-3.26-3.05l-1.79-0.31c-0.31-0.04-0.56-0.21-0.56-0.52c0-0.41,0.37-0.66,1.01-0.66c1.03,0,1.61,0.41,1.73,1.07
		l2.74-0.08c-0.19-1.92-1.75-3.09-4.41-3.09c-2.58,0-4.16,1.3-4.16,3.11c0,1.88,1.17,2.6,3.4,2.95l1.36,0.21
		c0.64,0.1,0.85,0.35,0.85,0.7C489.36,594.89,488.97,595.16,488.23,595.16z"/>
	<path d="M106.17,435.12v113.8h30.53v-35.58h19.51c29.8,0,47.15-13.91,47.15-39.2c0-25.11-17.34-39.02-47.15-39.02H106.17z
		 M173.73,474.31c0,9.57-5.24,14.45-18.97,14.45H136.7v-29.08h18.06C168.49,459.68,173.73,464.74,173.73,474.31z"/>
	<path d="M310.47,522.72c-1.26-13.19-8.13-19.87-19.87-22.22c13.91-1.81,24.21-12.64,24.21-29.26c0-22.22-14.63-36.13-44.07-36.13
		h-57.44v113.8h30.17v-37.75h20.41c10.3,0,15.9,2.89,16.8,15.9c0.9,11.74,2.35,18.79,4.7,21.86h31.07
		C312.64,544.76,312.09,539.7,310.47,522.72z M265.31,487.5h-21.86v-27.82h21.86c13.01,0,19.51,4.88,19.51,14.09
		C284.82,484.25,278.32,487.5,265.31,487.5z"/>
	<path d="M382.36,432.95c-33.06,0-59.07,24.02-59.07,59.07s26.01,59.07,59.07,59.07s59.07-24.02,59.07-59.07
		S415.42,432.95,382.36,432.95z M382.36,523.99c-16.8,0-27.46-12.64-27.46-31.97c0-19.33,10.66-31.97,27.46-31.97
		s27.46,12.64,27.46,31.97C409.82,511.34,399.16,523.99,382.36,523.99z"/>
	<polygon points="539.7,460.41 539.7,435.12 453.71,435.12 453.71,548.92 484.42,548.92 484.42,507.19 525.97,507.19 525.97,482.26 
		484.42,482.26 484.42,460.41 	"/>
	<rect x="552.88" y="435.12" width="30.71" height="113.8"/>
	<polygon points="666.32,548.92 666.32,460.41 705.88,460.41 705.88,435.12 596.78,435.12 596.78,460.41 635.8,460.41 635.8,548.92 
			"/>
	<path d="M51.83,252.39h23.75c36.29,0,57.4-16.93,57.4-47.72c0-30.57-21.11-47.5-57.4-47.5H14.67v138.55h37.17V252.39z
		 M51.83,187.08h21.99c16.71,0,23.09,6.16,23.09,17.81s-6.38,17.59-23.09,17.59H51.83V187.08z"/>
	<polygon points="254.16,264.93 181.8,264.93 181.8,240.96 236.12,240.96 236.12,210.61 181.8,210.61 181.8,187.96 252.18,187.96 
		252.18,157.17 145.08,157.17 145.08,295.72 254.16,295.72 	"/>
	<path d="M333.33,298.36c40.25,0,71.92-29.25,71.92-71.92c0-42.67-31.67-71.92-71.92-71.92c-40.25,0-71.92,29.25-71.92,71.92
		C261.41,269.11,293.08,298.36,333.33,298.36z M333.33,187.52c20.45,0,33.43,15.39,33.43,38.93c0,23.53-12.98,38.93-33.43,38.93
		c-20.45,0-33.43-15.4-33.43-38.93C299.9,202.91,312.87,187.52,333.33,187.52z"/>
	<path d="M420.19,295.72h37.17v-43.33h23.75c36.29,0,57.4-16.93,57.4-47.72c0-30.57-21.11-47.5-57.4-47.5h-60.92V295.72z
		 M457.36,187.08h21.99c16.71,0,23.09,6.16,23.09,17.81s-6.38,17.59-23.09,17.59h-21.99V187.08z"/>
	<polygon points="656.6,264.93 587.99,264.93 587.99,157.17 550.6,157.17 550.6,295.72 656.6,295.72 	"/>
	<polygon points="709.38,240.96 763.7,240.96 763.7,210.61 709.38,210.61 709.38,187.96 779.76,187.96 779.76,157.17 672.66,157.17 
		672.66,295.72 781.74,295.72 781.74,264.93 709.38,264.93 	"/>
	<path d="M69.43,102.24c-6.91,0-12.93-2.67-13.52-10.46l-15.4,0.49c0,15,12.04,23.2,28.92,23.2c14.51,0,25.96-6.61,25.96-19.84
		c0-10.17-5.92-16.98-18.95-19.25l-11.75-2.07c-3.85-0.69-6.22-1.78-6.22-4.64c0-3.45,3.16-5.63,8.69-5.63
		c6.42,0,11.05,2.96,11.55,9.38l15.4-0.3c-0.3-13.82-9.58-22.21-26.75-22.21c-15.5,0-25.37,7.6-25.37,20.24
		c0,10.86,7.11,16.58,17.27,18.46l11.35,1.97c4.74,0.89,8.39,1.48,8.39,5.13C79,100.17,75.25,102.24,69.43,102.24z"/>
	<path d="M124.41,115.47c14.31,0,24.08-9.48,24.08-23.2c0-13.62-9.77-23.2-24.08-23.2c-14.41,0-24.08,9.57-24.08,23.2
		C100.32,106,110,115.47,124.41,115.47z M124.41,81.12c5.53,0,8,4.54,8,11.15s-2.47,11.15-8,11.15c-5.63,0-8-4.54-8-11.15
		S118.78,81.12,124.41,81.12z"/>
	<path d="M176.82,115.47c13.23,0,20.63-8.49,21.72-19.15l-13.13-0.99c-1.08,5.43-3.75,8.09-8.39,8.09c-4.84,0-8.19-3.26-8.19-11.15
		s3.36-11.15,8.19-11.15c4.64,0,7.3,2.57,8.39,8l13.13-0.89c-1.09-10.56-8.49-19.15-21.72-19.15c-13.92,0-24.08,9.28-24.08,23.2
		C152.74,106.29,162.9,115.47,176.82,115.47z"/>
	<rect x="204.66" y="70.26" width="15.99" height="44.02"/>
	<rect x="204.56" y="52.1" width="16.19" height="14.02"/>
	<path d="M242.46,89.51c-9.58,1.68-15.7,5.33-15.7,13.82c0,7.5,5.63,11.94,14.21,11.94c7.01,0,12.04-2.67,14.61-7.8
		c1.48,5.03,5.73,7.8,11.15,7.8c4.54,0,7.7-1.28,9.97-2.86v-8.49c-1.28,0.49-2.27,0.69-3.55,0.69c-1.68,0-2.67-0.99-2.67-3.26v-15
		c0-12.24-8.59-17.27-20.24-17.27c-13.23,0-20.43,6.71-21.81,16.39l14.81,0.99c0.69-3.26,2.47-5.53,6.02-5.53
		c3.85,0,5.53,2.17,5.53,5.82v0.69L242.46,89.51z M254.8,95.93c0,5.73-3.65,9.08-8.19,9.08c-2.67,0-4.44-1.48-4.44-3.75
		c0-2.86,2.27-4.05,6.12-4.84l6.52-1.18V95.93z"/>
	<rect x="281.35" y="52.1" width="15.99" height="62.19"/>
	<rect x="305.93" y="52.1" width="16.19" height="14.02"/>
	<rect x="306.03" y="70.26" width="15.99" height="44.02"/>
	<path d="M349.85,105.5c-4.84,0-7.8-2.07-8.39-5.73l-13.92,0.2c0.89,10.66,9.97,15.5,22.11,15.5c12.54,0,20.43-5.33,20.43-14.61
		c0-8.59-5.73-13.03-15.6-14.61l-8.59-1.48c-1.48-0.2-2.67-0.99-2.67-2.47c0-1.97,1.78-3.16,4.84-3.16c4.94,0,7.7,1.97,8.29,5.13
		l13.13-0.4c-0.89-9.18-8.39-14.81-21.12-14.81c-12.34,0-19.94,6.22-19.94,14.9c0,8.98,5.63,12.44,16.29,14.12l6.51,0.99
		c3.06,0.49,4.05,1.68,4.05,3.36C355.28,104.22,353.41,105.5,349.85,105.5z"/>
	<path d="M376.21,70.26v44.02h15.99V92.67c0-6.61,1.88-10.96,7.11-10.96c4.84,0,6.02,3.16,6.02,9.18v23.39h15.99V92.67
		c0-6.61,1.78-10.96,7.11-10.96c4.84,0,5.92,3.16,5.92,9.18v23.39h15.99V86.65c0-9.18-3.55-17.57-15.69-17.57
		c-7.4,0-12.63,3.75-15,8.69c-1.88-5.13-5.92-8.69-13.72-8.69c-6.61,0-11.35,2.96-13.72,7.8v-6.61H376.21z"/>
	<polygon points="476.69,114.29 492.09,114.29 492.09,70.56 492.49,70.56 503.64,114.29 517.95,114.29 529.11,70.56 529.5,70.56 
		529.5,114.29 546.28,114.29 546.28,52.1 520.92,52.1 512.13,91.19 511.83,91.19 502.65,52.1 476.69,52.1 	"/>
	<path d="M577.18,115.47c11.65,0,19.74-5.63,22.01-15.69l-12.83-1.18c-1.48,3.46-4.24,4.94-8.59,4.94c-4.84,0-8.79-2.57-9.18-8h30.9
		v-4.44c0-11.94-7.8-22.01-22.5-22.01c-13.72,0-23.99,9.97-23.99,23.89C552.99,106.98,563.06,115.47,577.18,115.47z M576.78,80.53
		c4.74,0,7.3,3.36,7.5,7.3h-15.5C569.38,83.69,571.65,80.53,576.78,80.53z"/>
	<path d="M619.13,89.51c-9.58,1.68-15.7,5.33-15.7,13.82c0,7.5,5.63,11.94,14.21,11.94c7.01,0,12.04-2.67,14.61-7.8
		c1.48,5.03,5.73,7.8,11.15,7.8c4.54,0,7.7-1.28,9.97-2.86v-8.49c-1.28,0.49-2.27,0.69-3.55,0.69c-1.68,0-2.67-0.99-2.67-3.26v-15
		c0-12.24-8.59-17.27-20.24-17.27c-13.23,0-20.43,6.71-21.81,16.39l14.81,0.99c0.69-3.26,2.47-5.53,6.02-5.53
		c3.85,0,5.53,2.17,5.53,5.82v0.69L619.13,89.51z M631.47,95.93c0,5.73-3.65,9.08-8.19,9.08c-2.67,0-4.44-1.48-4.44-3.75
		c0-2.86,2.27-4.05,6.12-4.84l6.52-1.18V95.93z"/>
	<path d="M674.01,92.67c0-6.61,2.17-10.96,7.6-10.96c4.84,0,6.51,3.16,6.51,9.18v23.39h15.99V86.65c0-9.18-3.85-17.57-15.89-17.57
		c-6.61,0-11.84,2.96-14.21,7.8v-6.61h-15.99v44.02h15.99V92.67z"/>
	<path d="M731.46,105.5c-4.84,0-7.8-2.07-8.39-5.73l-13.92,0.2c0.89,10.66,9.97,15.5,22.11,15.5c12.54,0,20.43-5.33,20.43-14.61
		c0-8.59-5.73-13.03-15.6-14.61l-8.59-1.48c-1.48-0.2-2.67-0.99-2.67-2.47c0-1.97,1.78-3.16,4.84-3.16c4.94,0,7.7,1.97,8.29,5.13
		l13.13-0.4c-0.89-9.18-8.39-14.81-21.12-14.81c-12.34,0-19.94,6.22-19.94,14.9c0,8.98,5.63,12.44,16.29,14.12l6.51,0.99
		c3.06,0.49,4.05,1.68,4.05,3.36C736.88,104.22,735.01,105.5,731.46,105.5z"/>
	<path d="M293.15,361.97c0,19.15,14.21,32.28,32.28,32.28s32.28-13.13,32.28-32.28c0-19.15-14.21-32.28-32.28-32.28
		S293.15,342.82,293.15,361.97z M340.43,361.97c0,10.56-5.82,17.47-15,17.47s-15-6.91-15-17.47c0-10.56,5.82-17.47,15-17.47
		S340.43,351.41,340.43,361.97z"/>
	<polygon points="386.82,376.38 377.25,349.04 360.46,349.04 376.85,393.06 395.9,393.06 412.29,349.04 396.79,349.04 
		387.21,376.38 	"/>
	<path d="M459.27,378.55l-12.83-1.18c-1.48,3.46-4.24,4.94-8.59,4.94c-4.84,0-8.79-2.57-9.18-8h30.9v-4.44
		c0-11.94-7.8-22.01-22.5-22.01c-13.72,0-23.99,9.97-23.99,23.89c0,14.02,10.07,22.51,24.18,22.51
		C448.91,394.25,457,388.62,459.27,378.55z M436.87,359.31c4.74,0,7.3,3.36,7.5,7.3h-15.5
		C429.46,362.46,431.73,359.31,436.87,359.31z"/>
	<path d="M466.08,349.04v44.02h15.99v-20.14c0-7.4,3.65-10.17,9.58-10.17c3.06,0,5.43,0.59,7.6,1.88l0.99-15.1
		c-1.08-0.89-3.45-1.68-6.12-1.68c-5.82,0-10.46,4.05-12.04,8.98v-7.8H466.08z"/>
</g>
<g id="exp_white_bg" class="st0">
	<g class="st2">
		<path class="st5" d="M502.44,204.89c0-11.66-6.38-17.81-23.09-17.81h-21.99v35.41h21.99
			C496.06,222.48,502.44,216.55,502.44,204.89z"/>
		<path class="st5" d="M96.92,204.89c0-11.66-6.38-17.81-23.09-17.81H51.83v35.41h21.99C90.54,222.48,96.92,216.55,96.92,204.89z"/>
		<path class="st5" d="M618.83,101.26c0,2.27,1.78,3.75,4.44,3.75c4.54,0,8.19-3.36,8.19-9.08v-0.69l-6.52,1.18
			C621.1,97.21,618.83,98.39,618.83,101.26z"/>
		<polygon class="st5" points="438.43,14.59 438.35,14.59 436.87,18.42 439.92,18.42 		"/>
		<path class="st5" d="M576.78,80.53c-5.13,0-7.4,3.16-8,7.3h15.5C584.09,83.88,581.52,80.53,576.78,80.53z"/>
		<path class="st5" d="M330.02,20.83c0,0.47,0.37,0.78,0.93,0.78c0.95,0,1.71-0.7,1.71-1.9v-0.14l-1.36,0.25
			C330.5,19.99,330.02,20.24,330.02,20.83z"/>
		<path class="st5" d="M124.41,103.43c5.53,0,8-4.54,8-11.15s-2.47-11.15-8-11.15c-5.63,0-8,4.54-8,11.15
			S118.78,103.43,124.41,103.43z"/>
		<path class="st5" d="M242.17,101.26c0,2.27,1.78,3.75,4.44,3.75c4.54,0,8.19-3.36,8.19-9.08v-0.69l-6.52,1.18
			C244.43,97.21,242.17,98.39,242.17,101.26z"/>
		<polygon class="st5" points="436.14,588.03 436.05,588.03 434.57,591.86 437.62,591.86 		"/>
		<path class="st5" d="M365.18,20.83c0,0.47,0.37,0.78,0.93,0.78c0.95,0,1.71-0.7,1.71-1.9v-0.14l-1.36,0.25
			C365.66,19.99,365.18,20.24,365.18,20.83z"/>
		<path class="st5" d="M343.4,21.22c1.3,0,1.9-0.93,1.9-2.27c0-1.32-0.6-2.25-1.9-2.25c-1.13,0-1.86,0.87-1.86,2.19v0.12
			C341.54,20.36,342.27,21.22,343.4,21.22z"/>
		<path class="st5" d="M331.05,594.27c0,0.47,0.37,0.78,0.93,0.78c0.95,0,1.71-0.7,1.71-1.9v-0.14l-1.36,0.25
			C331.53,593.43,331.05,593.67,331.05,594.27z"/>
		<path class="st5" d="M509.1,21.29c1.15,0,1.67-0.95,1.67-2.33c0-1.38-0.52-2.33-1.67-2.33c-1.17,0-1.67,0.95-1.67,2.33
			C507.44,20.34,507.93,21.29,509.1,21.29z"/>
		<ellipse class="st5" cx="382.36" cy="492.02" rx="27.46" ry="31.97"/>
		<path class="st5" d="M310.42,361.97c0,10.56,5.82,17.47,15,17.47s15-6.91,15-17.47c0-10.56-5.82-17.47-15-17.47
			S310.42,351.41,310.42,361.97z"/>
		<path class="st5" d="M366.21,594.27c0,0.47,0.37,0.78,0.93,0.78c0.95,0,1.71-0.7,1.71-1.9v-0.14l-1.36,0.25
			C366.69,593.43,366.21,593.67,366.21,594.27z"/>
		<path class="st5" d="M342.57,592.46c0,1.34,0.72,2.21,1.86,2.21c1.3,0,1.9-0.93,1.9-2.27c0-1.32-0.6-2.25-1.9-2.25
			c-1.13,0-1.86,0.87-1.86,2.19V592.46z"/>
		<polygon class="st5" points="304.4,591.51 306.17,591.51 306.66,589.49 304.89,589.49 		"/>
		<path class="st5" d="M527.76,18.61c0.56,0,0.97-0.52,0.97-1.34c0-0.8-0.41-1.32-0.97-1.32c-0.56,0-0.97,0.52-0.97,1.32
			C526.79,18.09,527.2,18.61,527.76,18.61z"/>
		<path class="st5" d="M333.33,265.37c20.45,0,33.43-15.4,33.43-38.93c0-23.53-12.98-38.93-33.43-38.93
			c-20.45,0-33.43,15.39-33.43,38.93C299.9,249.97,312.87,265.37,333.33,265.37z"/>
		<path class="st5" d="M136.7,459.68v29.08h18.06c13.73,0,18.97-4.88,18.97-14.45c0-9.57-5.24-14.63-18.97-14.63H136.7z"/>
		<path class="st5" d="M265.31,459.68h-21.86v27.82h21.86c13.01,0,19.51-3.25,19.51-13.73
			C284.82,464.56,278.32,459.68,265.31,459.68z"/>
		<path class="st5" d="M527.51,25.37c1.55,0,2.68-0.31,2.68-0.87c0-0.39-0.29-0.54-0.85-0.54h-3.38c-0.37,0-0.62,0.21-0.62,0.56
			C525.35,25.18,526.27,25.37,527.51,25.37z"/>
		<path class="st5" d="M436.87,359.31c-5.13,0-7.4,3.16-8,7.3h15.5C444.17,362.66,441.6,359.31,436.87,359.31z"/>
		<path class="st5" d="M792.14,0h-792v1224h792V0z M732.84,99.09l-6.51-0.99c-10.66-1.68-16.29-5.13-16.29-14.12
			c0-8.69,7.6-14.9,19.94-14.9c12.73,0,20.24,5.63,21.12,14.81l-13.13,0.4c-0.59-3.16-3.36-5.13-8.29-5.13
			c-3.06,0-4.84,1.18-4.84,3.16c0,1.48,1.18,2.27,2.67,2.47l8.59,1.48c9.87,1.58,15.6,6.02,15.6,14.61c0,9.28-7.9,14.61-20.43,14.61
			c-12.14,0-21.22-4.84-22.11-15.5l13.92-0.2c0.59,3.65,3.55,5.73,8.39,5.73c3.55,0,5.43-1.28,5.43-3.06
			C736.88,100.76,735.9,99.58,732.84,99.09z M658.02,70.26h15.99v6.61c2.37-4.84,7.6-7.8,14.21-7.8c12.04,0,15.89,8.39,15.89,17.57
			v27.64h-15.99V90.89c0-6.02-1.68-9.18-6.51-9.18c-5.43,0-7.6,4.34-7.6,10.96v21.62h-15.99V70.26z M596.78,460.41v-25.29h109.1
			v25.29h-39.56v88.51H635.8v-88.51H596.78z M625.94,80.92c-3.55,0-5.33,2.27-6.02,5.53l-14.81-0.99
			c1.38-9.67,8.59-16.39,21.81-16.39c11.65,0,20.24,5.03,20.24,17.27v15c0,2.27,0.99,3.26,2.67,3.26c1.28,0,2.27-0.2,3.55-0.69v8.49
			c-2.27,1.58-5.43,2.86-9.97,2.86c-5.43,0-9.67-2.76-11.15-7.8c-2.57,5.13-7.6,7.8-14.61,7.8c-8.59,0-14.21-4.44-14.21-11.94
			c0-8.49,6.12-12.14,15.7-13.82l12.34-2.07v-0.69C631.47,83.09,629.79,80.92,625.94,80.92z M576.98,69.08
			c14.71,0,22.5,10.07,22.5,22.01v4.44h-30.9c0.39,5.43,4.34,8,9.18,8c4.34,0,7.11-1.48,8.59-4.94l12.83,1.18
			c-2.27,10.07-10.36,15.69-22.01,15.69c-14.12,0-24.18-8.49-24.18-22.51C552.99,79.05,563.26,69.08,576.98,69.08z M550.6,157.17
			h37.39v107.76h68.62v30.79h-106V157.17z M583.59,435.12v113.8h-30.71v-113.8H583.59z M523.04,21.53c0-0.89,0.58-1.57,1.57-1.94
			c-0.82-0.54-1.32-1.32-1.32-2.33c0-1.96,1.86-3.15,4.43-3.15c1.11,0,2.16,0.27,2.95,0.74c0.56-0.76,1.57-1.42,2.58-1.42v2.51
			c-0.39,0-0.89,0.04-1.34,0.14c0.19,0.35,0.29,0.74,0.29,1.17c0,1.94-1.88,3.13-4.47,3.13c-0.74,0-1.4-0.08-2-0.27
			c-0.12,0.1-0.19,0.25-0.19,0.43c0,0.31,0.23,0.56,0.78,0.56h3.81c2.08,0,3.13,1.09,3.13,2.64c0,2.29-2.78,3.34-5.77,3.34
			c-2.62,0-4.89-0.52-4.89-2.25c0-0.8,0.72-1.44,1.75-1.53C523.53,23.06,523.04,22.32,523.04,21.53z M515.45,14.36h3.34v1.63
			c0.33-1.03,1.3-1.88,2.52-1.88c0.56,0,1.05,0.16,1.28,0.35l-0.21,3.15c-0.45-0.27-0.95-0.39-1.59-0.39c-1.24,0-2,0.58-2,2.12v4.21
			h-3.34V14.36z M509.1,14.11c2.99,0,5.03,2,5.03,4.84c0,2.87-2.04,4.84-5.03,4.84c-3.01,0-5.03-1.98-5.03-4.84
			C504.07,16.11,506.09,14.11,509.1,14.11z M511.83,91.19h0.3l8.79-39.09h25.37v62.19H529.5V70.56h-0.4l-11.15,43.73h-14.31
			l-11.15-43.73h-0.39v43.73h-15.4V52.1h25.96L511.83,91.19z M525.97,482.26v24.93h-41.55v41.73h-30.71v-113.8h85.98v25.29h-55.27
			v21.86H525.97z M488.51,593.82l-1.36-0.21c-2.23-0.35-3.4-1.07-3.4-2.95c0-1.81,1.59-3.11,4.16-3.11c2.66,0,4.23,1.18,4.41,3.09
			l-2.74,0.08c-0.12-0.66-0.7-1.07-1.73-1.07c-0.64,0-1.01,0.25-1.01,0.66c0,0.31,0.25,0.47,0.56,0.52l1.79,0.31
			c2.06,0.33,3.26,1.26,3.26,3.05c0,1.94-1.65,3.05-4.27,3.05c-2.54,0-4.43-1.01-4.62-3.24l2.91-0.04c0.12,0.76,0.74,1.2,1.75,1.2
			c0.74,0,1.13-0.27,1.13-0.64C489.36,594.17,489.15,593.92,488.51,593.82z M476.19,597.24c-2.51,0-3.28-1.73-3.28-3.65v-5.79h3.34
			v4.91c0,1.24,0.35,1.92,1.36,1.92c1.05,0,1.46-0.91,1.46-2.31v-4.51h3.34v9.19h-3.34v-1.38
			C478.58,596.64,477.57,597.24,476.19,597.24z M470.71,587.55c0.56,0,1.05,0.17,1.28,0.35l-0.21,3.15
			c-0.45-0.27-0.95-0.39-1.59-0.39c-1.24,0-2,0.58-2,2.12v4.21h-3.34v-9.19h3.34v1.63C468.52,588.4,469.49,587.55,470.71,587.55z
			 M459.68,586.93v-2.93h3.38v2.93H459.68z M463.04,587.8v9.19h-3.34v-9.19H463.04z M422.96,593.82l-1.36-0.21
			c-2.23-0.35-3.4-1.07-3.4-2.95c0-1.81,1.59-3.11,4.16-3.11c2.66,0,4.23,1.18,4.41,3.09l-2.74,0.08c-0.12-0.66-0.7-1.07-1.73-1.07
			c-0.64,0-1.01,0.25-1.01,0.66c0,0.31,0.25,0.47,0.56,0.52l1.79,0.31c2.06,0.33,3.26,1.26,3.26,3.05c0,1.94-1.65,3.05-4.27,3.05
			c-2.54,0-4.43-1.01-4.62-3.24l2.91-0.04c0.12,0.76,0.74,1.2,1.75,1.2c0.74,0,1.13-0.27,1.13-0.64
			C423.8,594.17,423.6,593.92,422.96,593.82z M382.36,551.08c-33.06,0-59.07-24.02-59.07-59.07s26.01-59.07,59.07-59.07
			s59.07,24.02,59.07,59.07S415.42,551.08,382.36,551.08z M416.78,584.01v12.99h-3.5v-12.99H416.78z M405.11,590.19
			c-1.11,0-1.48,0.91-1.48,2.29v4.51h-3.34v-4.89c0-1.26-0.25-1.92-1.26-1.92c-1.09,0-1.48,0.91-1.48,2.29v4.51h-3.34v-9.19h3.34
			v1.38c0.5-1.01,1.48-1.63,2.87-1.63c1.63,0,2.47,0.74,2.87,1.81c0.49-1.03,1.59-1.81,3.13-1.81c2.54,0,3.28,1.75,3.28,3.67v5.77
			h-3.34v-4.89C406.34,590.85,406.12,590.19,405.11,590.19z M388.99,593.82l-1.36-0.21c-2.23-0.35-3.4-1.07-3.4-2.95
			c0-1.81,1.59-3.11,4.16-3.11c2.66,0,4.23,1.18,4.41,3.09l-2.74,0.08c-0.12-0.66-0.7-1.07-1.73-1.07c-0.64,0-1.01,0.25-1.01,0.66
			c0,0.31,0.25,0.47,0.56,0.52l1.79,0.31c2.06,0.33,3.26,1.26,3.26,3.05c0,1.94-1.65,3.05-4.27,3.05c-2.54,0-4.43-1.01-4.62-3.24
			l2.91-0.04c0.12,0.76,0.74,1.2,1.75,1.2c0.74,0,1.13-0.27,1.13-0.64C389.83,594.17,389.63,593.92,388.99,593.82z M379.53,586.93
			v-2.93h3.38v2.93H379.53z M382.89,587.8v9.19h-3.34v-9.19H382.89z M377.73,584.01v12.99h-3.34v-12.99H377.73z M367.7,590.03
			c-0.74,0-1.11,0.47-1.26,1.15l-3.09-0.21c0.29-2.02,1.79-3.42,4.56-3.42c2.43,0,4.23,1.05,4.23,3.61v3.13
			c0,0.47,0.21,0.68,0.56,0.68c0.27,0,0.47-0.04,0.74-0.14v1.77c-0.47,0.33-1.13,0.6-2.08,0.6c-1.13,0-2.02-0.58-2.33-1.63
			c-0.54,1.07-1.59,1.63-3.05,1.63c-1.79,0-2.97-0.93-2.97-2.49c0-1.77,1.28-2.54,3.28-2.89l2.58-0.43v-0.14
			C368.85,590.48,368.5,590.03,367.7,590.03z M355.25,590.11v-2.06l0.68-0.1c0.93-0.14,1.22-0.64,1.44-1.48l0.31-1.2h2.1v2.54h2.39
			v2.31h-2.39v3.36c0,0.78,0.37,1.09,1.05,1.09c0.41,0,0.87-0.08,1.42-0.31v2.16c-0.7,0.52-1.5,0.82-2.76,0.82
			c-1.55,0-3.01-0.64-3.01-2.8v-4.33H355.25z M350.98,586.93v-2.93h3.38v2.93H350.98z M354.34,587.8v9.19H351v-9.19H354.34z
			 M345.6,587.55c2.7,0,4.08,2.14,4.08,4.84c0,2.72-1.38,4.84-4.08,4.84c-1.55,0-2.58-0.74-3.03-1.81v4.87h-3.34V587.8h3.34v1.59
			C343.03,588.29,344.06,587.55,345.6,587.55z M332.54,590.03c-0.74,0-1.11,0.47-1.26,1.15l-3.09-0.21
			c0.29-2.02,1.79-3.42,4.56-3.42c2.43,0,4.23,1.05,4.23,3.61v3.13c0,0.47,0.21,0.68,0.56,0.68c0.27,0,0.47-0.04,0.74-0.14v1.77
			c-0.47,0.33-1.13,0.6-2.08,0.6c-1.13,0-2.02-0.58-2.33-1.63c-0.54,1.07-1.59,1.63-3.05,1.63c-1.79,0-2.97-0.93-2.97-2.49
			c0-1.77,1.28-2.54,3.28-2.89l2.58-0.43v-0.14C333.69,590.48,333.34,590.03,332.54,590.03z M320.73,594.13
			c2.02,0,2.8-1.34,3.01-2.78l3.36,0.14c-0.25,3.24-2.37,5.75-6.35,5.75c-3.79,0-6.66-2.74-6.66-6.74c0-4,2.87-6.74,6.66-6.74
			c3.98,0,6.1,2.54,6.35,5.77l-3.36,0.12c-0.21-1.44-0.99-2.78-3.01-2.78c-1.92,0-3.03,1.42-3.03,3.63
			C317.7,592.71,318.81,594.13,320.73,594.13z M310.64,591.51l-0.43,2.06h-2.04l-0.8,3.42h-2.49l0.8-3.42h-1.77l-0.8,3.42h-2.49
			l0.8-3.42h-1.81l0.43-2.06h1.88l0.49-2.02h-1.98l0.43-2.06h2.02l0.82-3.42h2.49l-0.83,3.42h1.77l0.82-3.42h2.49l-0.82,3.42h1.83
			l-0.43,2.06h-1.88l-0.49,2.02H310.64z M285.36,548.92c-2.35-3.07-3.79-10.12-4.7-21.86c-0.9-13.01-6.5-15.9-16.8-15.9h-20.41
			v37.75h-30.17v-113.8h57.44c29.44,0,44.07,13.91,44.07,36.13c0,16.62-10.3,27.46-24.21,29.26c11.74,2.35,18.61,9.03,19.87,22.22
			c1.62,16.98,2.17,22.04,5.96,26.19H285.36z M145.08,295.72V157.17h107.1v30.79H181.8v22.65h54.32v30.35H181.8v23.97h72.35v30.79
			H145.08z M203.35,474.13c0,25.29-17.34,39.2-47.15,39.2H136.7v35.58h-30.53v-113.8h50.04
			C186.01,435.12,203.35,449.03,203.35,474.13z M204.66,114.29V70.26h15.99v44.02H204.66z M333.33,154.53
			c40.25,0,71.92,29.25,71.92,71.92c0,42.67-31.67,71.92-71.92,71.92c-40.25,0-71.92-29.25-71.92-71.92
			C261.41,183.78,293.08,154.53,333.33,154.53z M281.35,114.29V52.1h15.99v62.19H281.35z M306.03,114.29V70.26h15.99v44.02H306.03z
			 M351.24,99.09l-6.51-0.99c-10.66-1.68-16.29-5.13-16.29-14.12c0-8.69,7.6-14.9,19.94-14.9c12.73,0,20.24,5.63,21.12,14.81
			l-13.13,0.4c-0.59-3.16-3.36-5.13-8.29-5.13c-3.06,0-4.84,1.18-4.84,3.16c0,1.48,1.18,2.27,2.67,2.47l8.59,1.48
			c9.87,1.58,15.6,6.02,15.6,14.61c0,9.28-7.9,14.61-20.43,14.61c-12.14,0-21.22-4.84-22.11-15.5l13.92-0.2
			c0.59,3.65,3.55,5.73,8.39,5.73c3.55,0,5.43-1.28,5.43-3.06C355.28,100.76,354.3,99.58,351.24,99.09z M349.97,23.55v-9.19h3.34
			v9.19H349.97z M412.29,349.04l-16.39,44.02h-19.05l-16.39-44.02h16.78l9.58,27.34h0.39l9.58-27.34H412.29z M357.7,361.97
			c0,19.15-14.21,32.28-32.28,32.28s-32.28-13.13-32.28-32.28c0-19.15,14.21-32.28,32.28-32.28S357.7,342.82,357.7,361.97z
			 M434.24,584.01h3.92l5.17,12.99h-3.73l-0.97-2.51h-5.07l-0.97,2.51h-3.52L434.24,584.01z M437.26,394.25
			c-14.12,0-24.18-8.49-24.18-22.51c0-13.92,10.27-23.89,23.99-23.89c14.71,0,22.5,10.07,22.5,22.01v4.44h-30.9
			c0.39,5.43,4.34,8,9.18,8c4.34,0,7.11-1.48,8.59-4.94l12.83,1.18C457,388.62,448.91,394.25,437.26,394.25z M481.11,157.17
			c36.29,0,57.4,16.93,57.4,47.5c0,30.79-21.11,47.72-57.4,47.72h-23.75v43.33h-37.17V157.17H481.11z M462.05,23.55v-9.19h3.34v9.19
			H462.05z M494.12,347.85c2.67,0,5.03,0.79,6.12,1.68l-0.99,15.1c-2.17-1.28-4.54-1.88-7.6-1.88c-5.92,0-9.58,2.76-9.58,10.17
			v20.14h-15.99v-44.02h15.99v7.8C483.65,351.9,488.29,347.85,494.12,347.85z M448.8,584.01l3.22,8.64h0.08l3.22-8.64h3.48
			l-4.99,12.99h-3.69l-4.99-12.99H448.8z M497.64,20.01h3.55v3.55h-3.55V20.01z M490.86,20.38l-1.36-0.21
			c-2.23-0.35-3.4-1.07-3.4-2.95c0-1.81,1.59-3.11,4.16-3.11c2.66,0,4.23,1.18,4.41,3.09l-2.74,0.08c-0.12-0.66-0.7-1.07-1.73-1.07
			c-0.64,0-1.01,0.25-1.01,0.66c0,0.31,0.25,0.47,0.56,0.52l1.79,0.31c2.06,0.33,3.26,1.26,3.26,3.05c0,1.94-1.65,3.05-4.27,3.05
			c-2.54,0-4.43-1.01-4.62-3.24l2.91-0.04c0.12,0.76,0.74,1.2,1.75,1.2c0.74,0,1.13-0.27,1.13-0.64
			C491.71,20.73,491.5,20.48,490.86,20.38z M475.26,14.36h3.34v4.91c0,1.24,0.35,1.92,1.36,1.92c1.05,0,1.46-0.91,1.46-2.31v-4.51
			h3.34v9.19h-3.34v-1.38c-0.49,1.03-1.5,1.63-2.89,1.63c-2.52,0-3.28-1.73-3.28-3.65V14.36z M467.2,14.36h3.34v1.63
			c0.33-1.03,1.3-1.88,2.52-1.88c0.56,0,1.05,0.16,1.28,0.35l-0.21,3.15c-0.45-0.27-0.95-0.39-1.59-0.39c-1.24,0-2,0.58-2,2.12v4.21
			h-3.34V14.36z M462.03,10.57h3.38v2.93h-3.38V10.57z M451.15,10.57l3.22,8.64h0.08l3.22-8.64h3.48l-4.99,12.99h-3.69l-4.99-12.99
			H451.15z M436.54,10.57h3.92l5.17,12.99h-3.73l-0.97-2.52h-5.07l-0.97,2.52h-3.52L436.54,10.57z M423.59,20.38l-1.36-0.21
			c-2.23-0.35-3.4-1.07-3.4-2.95c0-1.81,1.59-3.11,4.16-3.11c2.66,0,4.23,1.18,4.41,3.09l-2.74,0.08c-0.12-0.66-0.7-1.07-1.73-1.07
			c-0.64,0-1.01,0.25-1.01,0.66c0,0.31,0.25,0.47,0.56,0.52l1.79,0.31c2.06,0.33,3.26,1.26,3.26,3.05c0,1.94-1.65,3.05-4.27,3.05
			c-2.54,0-4.43-1.01-4.62-3.24l2.91-0.04c0.12,0.76,0.74,1.2,1.75,1.2c0.74,0,1.13-0.27,1.13-0.64
			C424.44,20.73,424.23,20.48,423.59,20.38z M413.91,10.57h3.5v12.99h-3.5V10.57z M393.17,14.36h3.34v1.38
			c0.49-1.01,1.48-1.63,2.87-1.63c1.63,0,2.47,0.74,2.87,1.81c0.49-1.03,1.59-1.81,3.13-1.81c2.54,0,3.28,1.75,3.28,3.67v5.77h-3.34
			v-4.89c0-1.26-0.23-1.92-1.24-1.92c-1.11,0-1.48,0.91-1.48,2.29v4.51h-3.34v-4.89c0-1.26-0.25-1.92-1.26-1.92
			c-1.09,0-1.48,0.91-1.48,2.29v4.51h-3.34V14.36z M405.92,69.08c7.8,0,11.84,3.55,13.72,8.69c2.37-4.94,7.6-8.69,15-8.69
			c12.14,0,15.69,8.39,15.69,17.57v27.64h-15.99V90.89c0-6.02-1.08-9.18-5.92-9.18c-5.33,0-7.11,4.34-7.11,10.96v21.62h-15.99V90.89
			c0-6.02-1.18-9.18-6.02-9.18c-5.23,0-7.11,4.34-7.11,10.96v21.62h-15.99V70.26h15.99v6.61C394.57,72.04,399.31,69.08,405.92,69.08
			z M378.52,23.55v-9.19h3.34v9.19H378.52z M387.96,20.38l-1.36-0.21c-2.23-0.35-3.4-1.07-3.4-2.95c0-1.81,1.59-3.11,4.16-3.11
			c2.66,0,4.23,1.18,4.41,3.09l-2.74,0.08c-0.12-0.66-0.7-1.07-1.73-1.07c-0.64,0-1.01,0.25-1.01,0.66c0,0.31,0.25,0.47,0.56,0.52
			l1.79,0.31c2.06,0.33,3.26,1.26,3.26,3.05c0,1.94-1.65,3.05-4.27,3.05c-2.54,0-4.43-1.01-4.62-3.24l2.91-0.04
			c0.12,0.76,0.74,1.2,1.75,1.2c0.74,0,1.13-0.27,1.13-0.64C388.8,20.73,388.6,20.48,387.96,20.38z M378.5,10.57h3.38v2.93h-3.38
			V10.57z M373.37,10.57h3.34v12.99h-3.34V10.57z M366.67,16.59c-0.74,0-1.11,0.47-1.26,1.15l-3.09-0.21
			c0.29-2.02,1.79-3.42,4.56-3.42c2.43,0,4.23,1.05,4.23,3.61v3.13c0,0.47,0.21,0.68,0.56,0.68c0.27,0,0.47-0.04,0.74-0.14v1.77
			c-0.47,0.33-1.13,0.6-2.08,0.6c-1.13,0-2.02-0.58-2.33-1.63c-0.54,1.07-1.59,1.63-3.05,1.63c-1.79,0-2.97-0.93-2.97-2.49
			c0-1.77,1.28-2.54,3.28-2.89l2.58-0.43V17.8C367.82,17.04,367.47,16.59,366.67,16.59z M354.22,14.61l0.68-0.1
			c0.93-0.14,1.22-0.64,1.44-1.48l0.31-1.2h2.1v2.54h2.39v2.31h-2.39v3.36c0,0.78,0.37,1.09,1.05,1.09c0.41,0,0.87-0.08,1.42-0.31
			v2.16c-0.7,0.52-1.5,0.82-2.76,0.82c-1.55,0-3.01-0.64-3.01-2.8v-4.33h-1.24V14.61z M349.95,10.57h3.38v2.93h-3.38V10.57z
			 M338.2,14.36h3.34v1.59c0.45-1.09,1.48-1.83,3.03-1.83c2.7,0,4.08,2.14,4.08,4.84c0,2.72-1.38,4.84-4.08,4.84
			c-1.55,0-2.58-0.74-3.03-1.81v4.87h-3.34V14.36z M331.51,16.59c-0.74,0-1.11,0.47-1.26,1.15l-3.09-0.21
			c0.29-2.02,1.79-3.42,4.56-3.42c2.43,0,4.23,1.05,4.23,3.61v3.13c0,0.47,0.21,0.68,0.56,0.68c0.27,0,0.47-0.04,0.74-0.14v1.77
			c-0.47,0.33-1.13,0.6-2.08,0.6c-1.13,0-2.02-0.58-2.33-1.63c-0.54,1.07-1.59,1.63-3.05,1.63c-1.79,0-2.97-0.93-2.97-2.49
			c0-1.77,1.28-2.54,3.28-2.89l2.58-0.43V17.8C332.66,17.04,332.31,16.59,331.51,16.59z M319.72,10.32c3.98,0,6.1,2.54,6.35,5.77
			l-3.36,0.12c-0.21-1.44-0.99-2.78-3.01-2.78c-1.92,0-3.03,1.42-3.03,3.63s1.11,3.63,3.03,3.63c2.02,0,2.8-1.34,3.01-2.78
			l3.36,0.14c-0.25,3.24-2.37,5.75-6.35,5.75c-3.79,0-6.66-2.74-6.66-6.74S315.92,10.32,319.72,10.32z M306.63,20.01h3.55v3.55
			h-3.55V20.01z M305.93,52.1h16.19v14.02h-16.19V52.1z M262.3,14.36l1.65,5.22h0.08l1.34-5.22h2.66l1.34,5.22h0.08l1.65-5.22h2.92
			h0.09h3.23l1.65,5.22h0.08l1.34-5.22h2.66l1.34,5.22h0.08l1.65-5.22h2.92h0.09h3.23l1.65,5.22h0.08l1.34-5.22h2.66l1.34,5.22h0.08
			l1.65-5.22h3.01l-2.91,9.19h-3.28l-1.34-5.19h-0.08l-1.34,5.19h-3.28l-2.86-9.06l-2.86,9.06h-3.28l-1.34-5.19h-0.08l-1.34,5.19
			h-3.28l-2.86-9.06l-2.86,9.06h-3.28l-1.34-5.19h-0.08l-1.34,5.19h-3.28l-2.91-9.19H262.3z M249.27,80.92
			c-3.55,0-5.33,2.27-6.02,5.53l-14.81-0.99c1.38-9.67,8.59-16.39,21.81-16.39c11.65,0,20.24,5.03,20.24,17.27v15
			c0,2.27,0.99,3.26,2.67,3.26c1.28,0,2.27-0.2,3.55-0.69v8.49c-2.27,1.58-5.43,2.86-9.97,2.86c-5.43,0-9.67-2.76-11.15-7.8
			c-2.57,5.13-7.6,7.8-14.61,7.8c-8.59,0-14.21-4.44-14.21-11.94c0-8.49,6.12-12.14,15.7-13.82l12.34-2.07v-0.69
			C254.8,83.09,253.12,80.92,249.27,80.92z M204.56,52.1h16.19v14.02h-16.19V52.1z M176.82,69.08c13.23,0,20.63,8.59,21.72,19.15
			l-13.13,0.89c-1.08-5.43-3.75-8-8.39-8c-4.84,0-8.19,3.26-8.19,11.15s3.36,11.15,8.19,11.15c4.64,0,7.3-2.67,8.39-8.09l13.13,0.99
			c-1.09,10.66-8.49,19.15-21.72,19.15c-13.92,0-24.08-9.18-24.08-23.2C152.74,78.36,162.9,69.08,176.82,69.08z M124.41,69.08
			c14.31,0,24.08,9.57,24.08,23.2c0,13.72-9.77,23.2-24.08,23.2c-14.41,0-24.08-9.48-24.08-23.2
			C100.32,78.65,110,69.08,124.41,69.08z M70.61,91.58l-11.35-1.97c-10.17-1.88-17.27-7.6-17.27-18.46
			c0-12.63,9.87-20.24,25.37-20.24c17.17,0,26.45,8.39,26.75,22.21l-15.4,0.3c-0.49-6.42-5.13-9.38-11.55-9.38
			c-5.53,0-8.69,2.17-8.69,5.63c0,2.86,2.37,3.95,6.22,4.64l11.75,2.07c13.03,2.27,18.95,9.08,18.95,19.25
			c0,13.23-11.45,19.84-25.96,19.84c-16.88,0-28.92-8.19-28.92-23.2l15.4-0.49c0.59,7.8,6.61,10.46,13.52,10.46
			c5.82,0,9.58-2.07,9.58-5.53C79,93.06,75.35,92.47,70.61,91.58z M14.67,157.17h60.92c36.29,0,57.4,16.93,57.4,47.5
			c0,30.79-21.11,47.72-57.4,47.72H51.83v43.33H14.67V157.17z M13.87,950.24h2.93v3.38h-2.93V950.24z M13.87,964.5l8.64-3.22v-0.08
			l-8.64-3.22v-3.48l12.99,4.99v3.69l-12.99,4.99V964.5z M22.66,896.86h4.21v3.34h-9.19v-3.34h1.63c-1.03-0.33-1.88-1.3-1.88-2.51
			c0-0.56,0.17-1.05,0.35-1.28l3.15,0.21c-0.27,0.45-0.39,0.95-0.39,1.59C20.53,896.1,21.11,896.86,22.66,896.86z M22.26,901.52
			c2.87,0,4.84,2.04,4.84,5.03c0,3.01-1.98,5.03-4.84,5.03c-2.84,0-4.84-2.02-4.84-5.03C17.42,903.56,19.42,901.52,22.26,901.52z
			 M26.86,914.46v3.55h-3.55v-3.55H26.86z M20.51,920.97l0.08,2.74c-0.66,0.12-1.07,0.7-1.07,1.73c0,0.64,0.25,1.01,0.66,1.01
			c0.31,0,0.47-0.25,0.52-0.56l0.31-1.79c0.33-2.06,1.26-3.26,3.05-3.26c1.94,0,3.05,1.65,3.05,4.27c0,2.54-1.01,4.43-3.24,4.62
			l-0.04-2.91c0.76-0.12,1.2-0.74,1.2-1.75c0-0.74-0.27-1.13-0.64-1.13c-0.35,0-0.6,0.21-0.7,0.85l-0.21,1.36
			c-0.35,2.23-1.07,3.4-2.95,3.4c-1.81,0-3.11-1.59-3.11-4.16C17.42,922.72,18.59,921.16,20.51,920.97z M24.31,1060.19h-4.33v1.24
			h-2.06l-0.1-0.68c-0.14-0.93-0.64-1.22-1.48-1.44l-1.2-0.31v-2.1h2.54v-2.39h2.31v2.39h3.36c0.78,0,1.09-0.37,1.09-1.05
			c0-0.41-0.08-0.87-0.31-1.42h2.16c0.52,0.7,0.82,1.5,0.82,2.76C27.11,1058.73,26.47,1060.19,24.31,1060.19z M26.86,1062.34v3.34
			h-9.19v-3.34H26.86z M24.7,1078.41h1.77c0.33,0.47,0.6,1.13,0.6,2.08c0,1.13-0.58,2.02-1.63,2.33c1.07,0.54,1.63,1.59,1.63,3.05
			c0,1.79-0.93,2.97-2.49,2.97c-1.77,0-2.54-1.28-2.89-3.28l-0.43-2.58h-0.14c-0.76,0-1.22,0.35-1.22,1.15
			c0,0.74,0.47,1.11,1.15,1.26l-0.21,3.09c-2.02-0.29-3.42-1.79-3.42-4.56c0-2.43,1.05-4.23,3.61-4.23h3.13
			c0.47,0,0.68-0.21,0.68-0.56C24.84,1078.89,24.8,1078.68,24.7,1078.41z M24.7,1043.25h1.77c0.33,0.47,0.6,1.13,0.6,2.08
			c0,1.13-0.58,2.02-1.63,2.33c1.07,0.54,1.63,1.59,1.63,3.05c0,1.79-0.93,2.97-2.49,2.97c-1.77,0-2.54-1.28-2.89-3.28l-0.43-2.58
			h-0.14c-0.76,0-1.22,0.35-1.22,1.15c0,0.74,0.47,1.11,1.15,1.26l-0.21,3.09c-2.02-0.29-3.42-1.79-3.42-4.56
			c0-2.43,1.05-4.23,3.61-4.23h3.13c0.47,0,0.68-0.21,0.68-0.56C24.84,1043.73,24.8,1043.52,24.7,1043.25z M26.86,1037.13h-9.19
			v-3.34h9.19V1037.13z M23.87,1032.64l-0.04-2.91c0.76-0.12,1.2-0.74,1.2-1.75c0-0.74-0.27-1.13-0.64-1.13
			c-0.35,0-0.6,0.21-0.7,0.85l-0.21,1.36c-0.35,2.23-1.07,3.4-2.95,3.4c-1.81,0-3.11-1.59-3.11-4.16c0-2.66,1.17-4.23,3.09-4.41
			l0.08,2.74c-0.66,0.12-1.07,0.7-1.07,1.73c0,0.64,0.25,1.01,0.66,1.01c0.31,0,0.47-0.25,0.52-0.56l0.31-1.79
			c0.33-2.06,1.26-3.26,3.05-3.26c1.94,0,3.05,1.65,3.05,4.27C27.11,1030.56,26.1,1032.45,23.87,1032.64z M17.42,1010.27
			c0-2.54,1.75-3.28,3.67-3.28h5.77v3.34h-4.89c-1.26,0-1.92,0.23-1.92,1.24c0,1.11,0.91,1.48,2.29,1.48h4.51v3.34h-4.89
			c-1.26,0-1.92,0.25-1.92,1.26c0,1.09,0.91,1.48,2.29,1.48h4.51v3.34h-9.19v-3.34h1.38c-1.01-0.49-1.63-1.48-1.63-2.87
			c0-1.63,0.74-2.47,1.81-2.87C18.2,1012.91,17.42,1011.82,17.42,1010.27z M24.39,991.21c-0.35,0-0.6,0.21-0.7,0.85l-0.21,1.36
			c-0.35,2.23-1.07,3.4-2.95,3.4c-1.81,0-3.11-1.59-3.11-4.16c0-2.66,1.17-4.23,3.09-4.41l0.08,2.74c-0.66,0.12-1.07,0.7-1.07,1.73
			c0,0.64,0.25,1.01,0.66,1.01c0.31,0,0.47-0.25,0.52-0.56l0.31-1.79c0.33-2.06,1.26-3.26,3.05-3.26c1.94,0,3.05,1.65,3.05,4.27
			c0,2.54-1.01,4.43-3.24,4.62l-0.04-2.91c0.76-0.12,1.2-0.74,1.2-1.75C25.03,991.6,24.76,991.21,24.39,991.21z M26.86,953.6h-9.19
			v-3.34h9.19V953.6z M22.18,934.22h-4.51v-3.34h9.19v3.34h-1.38c1.03,0.49,1.63,1.5,1.63,2.89c0,2.51-1.73,3.28-3.65,3.28h-5.79
			v-3.34h4.91c1.24,0,1.92-0.35,1.92-1.36C24.49,934.64,23.58,934.22,22.18,934.22z M17.77,941.31l3.15,0.21
			c-0.27,0.45-0.39,0.95-0.39,1.59c0,1.24,0.58,2,2.12,2h4.21v3.34h-9.19v-3.34h1.63c-1.03-0.33-1.88-1.3-1.88-2.52
			C17.42,942.04,17.58,941.54,17.77,941.31z M13.87,975.2l12.99-5.17v3.73l-2.51,0.97v5.07l2.51,0.97v3.53l-12.99-5.17V975.2z
			 M13.87,998.24h12.99v3.5H13.87V998.24z M13.87,1033.77h2.93v3.38h-2.93V1033.77z M13.87,1038.95h12.99v3.34H13.87V1038.95z
			 M13.87,1062.32h2.93v3.38h-2.93V1062.32z M26.86,1117.63l-5.19,1.34v0.08l5.19,1.34v3.28l-9.06,2.86l9.06,2.86v3.28l-5.19,1.34
			v0.08l5.19,1.34v3.28l-9.06,2.86l9.06,2.86v3.28l-5.19,1.34v0.08l5.19,1.34v3.28l-9.19,2.91v-3.32l5.22-1.65v-0.08l-5.22-1.34
			v-2.66l5.22-1.34v-0.08l-5.22-1.65v-2.92v-0.09v-3.23l5.22-1.65v-0.08l-5.22-1.34v-2.66l5.22-1.34v-0.08l-5.22-1.65v-2.92v-0.09
			v-3.23l5.22-1.65v-0.08l-5.22-1.34v-2.66l5.22-1.34v-0.08l-5.22-1.65v-3.01l9.19,2.91V1117.63z M26.86,1109.02h-3.55v-3.55h3.55
			V1109.02z M20.37,1102.59c-4,0-6.74-2.87-6.74-6.66c0-3.98,2.54-6.1,5.77-6.35l0.12,3.36c-1.44,0.21-2.78,0.99-2.78,3.01
			c0,1.92,1.42,3.03,3.63,3.03s3.63-1.11,3.63-3.03c0-2.02-1.34-2.8-2.78-3.01l0.14-3.36c3.24,0.25,5.75,2.37,5.75,6.35
			C27.11,1099.73,24.37,1102.59,20.37,1102.59z M30.16,1077.45H17.67v-3.34h1.59c-1.09-0.45-1.83-1.48-1.83-3.03
			c0-2.7,2.14-4.08,4.84-4.08c2.72,0,4.84,1.38,4.84,4.08c0,1.55-0.74,2.58-1.81,3.03h4.86V1077.45z M28.16,893.05
			c-0.8,0-1.44-0.72-1.53-1.75c-0.27,0.82-1.01,1.32-1.79,1.32c-0.89,0-1.57-0.58-1.94-1.57c-0.54,0.82-1.32,1.32-2.33,1.32
			c-1.96,0-3.15-1.86-3.15-4.43c0-1.11,0.27-2.16,0.74-2.95c-0.76-0.56-1.42-1.57-1.42-2.58h2.52c0,0.39,0.04,0.89,0.14,1.34
			c0.35-0.19,0.74-0.29,1.18-0.29c1.94,0,3.13,1.88,3.13,4.47c0,0.74-0.08,1.4-0.27,2c0.1,0.12,0.25,0.19,0.43,0.19
			c0.31,0,0.56-0.23,0.56-0.78v-3.81c0-2.08,1.09-3.13,2.64-3.13c2.29,0,3.34,2.78,3.34,5.77
			C30.41,890.78,29.89,893.05,28.16,893.05z M706.18,1072.18c-21.24,38.22-61.52,62.15-105.13,62.46c-0.28,0-0.56,0-0.85,0
			c-43.28,0-83.51-23.31-105.15-60.98l-7.82-13.62l11.72-0.08l88.97-264.84l-67.86,15.15c-9.88,20.25-23.95,49.09-24.15,49.5
			c-3.04,6.32-9.32,10.99-17.23,12.78c-2.38,0.54-4.83,0.8-7.28,0.8c-3.15,0-6.28-0.45-9.25-1.31c-2.86,2.99-6.61,5.37-10.99,6.86
			c-0.3,0.1-0.61,0.17-0.91,0.27c0.17,15.76-7.93,29.03-13.04,35.81c-2.59,3.44-6.28,5.49-10.39,5.77
			c-0.34,0.02-0.67,0.04-1.01,0.04c-4.58,0-9.23-2.15-13.22-6.14c-13.77-13.76-42.92-42.77-66.59-65.52l-82.59,18.44l89.38,266.18
			l11.61-0.08l-7.63,13.73c-21.24,38.22-61.52,62.15-105.13,62.46c-0.28,0-0.56,0-0.85,0c-43.28,0-83.51-23.31-105.15-60.98
			l-7.82-13.62l11.72-0.08l87.95-261.82l-20.74,4.63c-0.5,0.11-0.99,0.16-1.48,0.16c-3.09,0-5.88-2.14-6.58-5.28
			c-0.81-3.64,1.48-7.24,5.12-8.06l28.7-6.41l2.5-7.46c0.92-2.75,3.5-4.6,6.4-4.6h0c2.9,0,5.47,1.85,6.4,4.6l1.26,3.76l75.16-16.78
			c-2.54-2.4-4.96-4.66-7.2-6.73c-64.48-19.56-93.87-52.75-102.23-63.83c-25.5,3.38-157.95,20.66-198.78,20.87
			c-0.01,0-0.02,0-0.04,0c-3.71,0-6.73-3-6.75-6.71c0-0.03,0-0.05,0-0.08c0.03-3.69,3.01-6.68,6.71-6.7
			c43.43-0.22,199.54-21.08,201.11-21.29c2.63-0.35,5.23,0.87,6.63,3.13c0.24,0.39,26.25,40.58,98.69,62.13
			c0.98,0.29,1.89,0.81,2.64,1.5c24.06,22.12,68.92,66.74,87.09,84.89c1.81,1.81,3.23,2.22,3.75,2.19c0.08-0.01,0.24-0.02,0.56-0.44
			c9.85-13.06,17.66-32.77-1.05-52.48c-2.92-3.08-5.85-6.15-8.76-9.2c-38.13-39.98-59.44-63.32-53.99-78.1
			c2.89-7.84,11.77-17.1,15.37-20.12c1.17-0.98,2.57-1.49,3.99-1.56l-0.07-1.44c4.09-2.62,8.81-4.67,14.05-6.04
			c7.48-1.96,15.88-2.51,23.04-1.5c7.3,1.03,11.65,3.4,13.31,7.25l14.77,33.04c0.71,1.58,0.78,3.38,0.2,5.02l-11.98,33.64
			l38.14-8.51c3.01-8.28,5.47-15.04,6.51-17.84c1.97-5.35,1.03-12.07-0.4-20.29c-3.24-18.6-10.9-44.58-15.98-61.77
			c-2.28-7.72-4.08-13.82-4.9-17.28c-2.76-11.54-18.17-23-28.86-24.29c-0.99-0.12-3.08-0.24-6.06-0.36c-0.01,0-0.02,0-0.03,0
			c-0.04,0-0.07,0-0.11,0l-178.92-2.81c-0.05,0-0.11,0-0.16,0l-218.82-8.71c-3.72-0.15-6.62-3.29-6.47-7.01
			c0.01-0.25,0.04-0.5,0.07-0.74c0.5-3.36,3.46-5.87,6.94-5.74l218.72,8.71c7.58,0.07,142.4,1.39,178.46,2.8l0.4,0.01
			c0.12,0,0.24,0.02,0.36,0.02c3.54,0.14,6.04,0.29,7.24,0.43c15.61,1.88,36.19,17.05,40.38,34.55c0.6,2.49,1.84,6.8,3.45,12.29
			c20.42,19.03,51.87,49.21,56.01,58.29c6.62,14.52,2.85,24.46-2.36,35.05c-0.32,0.65-0.75,1.53-1.27,2.6l65.3-14.58l1.49-4.44
			c0.92-2.75,3.5-4.6,6.4-4.6h0c2.9,0,5.47,1.85,6.4,4.6l0.39,1.16l27.34-6.1c3.64-0.81,7.24,1.48,8.06,5.12
			c0.81,3.64-1.48,7.25-5.12,8.06l-25.96,5.8l90.25,268.78l11.61-0.08L706.18,1072.18z M761.72,686.92c0-1.79,0.93-2.97,2.49-2.97
			c1.77,0,2.54,1.28,2.89,3.28l0.43,2.58h0.14c0.76,0,1.22-0.35,1.22-1.15c0-0.74-0.47-1.11-1.15-1.26l0.21-3.09
			c2.02,0.29,3.42,1.79,3.42,4.56c0,2.43-1.05,4.23-3.61,4.23h-3.13c-0.47,0-0.68,0.21-0.68,0.56c0,0.27,0.04,0.47,0.14,0.74h-1.77
			c-0.33-0.47-0.6-1.13-0.6-2.08c0-1.13,0.58-2.02,1.63-2.33C762.28,689.44,761.72,688.38,761.72,686.92z M764.09,729.54h-1.77
			c-0.33-0.47-0.6-1.13-0.6-2.08c0-1.13,0.58-2.02,1.63-2.33c-1.07-0.54-1.63-1.59-1.63-3.05c0-1.79,0.93-2.97,2.49-2.97
			c1.77,0,2.54,1.28,2.89,3.28l0.43,2.58h0.14c0.76,0,1.22-0.35,1.22-1.15c0-0.74-0.47-1.11-1.15-1.26l0.21-3.09
			c2.02,0.29,3.42,1.79,3.42,4.56c0,2.43-1.05,4.23-3.61,4.23h-3.13c-0.47,0-0.68,0.21-0.68,0.56
			C763.95,729.07,763.99,729.28,764.09,729.54z M771.37,762.52c0,2.54-1.75,3.28-3.67,3.28h-5.77v-3.34h4.89
			c1.26,0,1.92-0.23,1.92-1.24c0-1.11-0.91-1.48-2.29-1.48h-4.51v-3.34h4.89c1.26,0,1.92-0.25,1.92-1.26c0-1.09-0.91-1.48-2.29-1.48
			h-4.51v-3.34h9.19v3.34h-1.38c1.01,0.49,1.63,1.48,1.63,2.87c0,1.63-0.74,2.47-1.81,2.87
			C770.59,759.88,771.37,760.98,771.37,762.52z M768.28,748.92l-0.08-2.74c0.66-0.12,1.07-0.7,1.07-1.73c0-0.64-0.25-1.01-0.66-1.01
			c-0.31,0-0.47,0.25-0.52,0.56l-0.31,1.79c-0.33,2.06-1.26,3.26-3.05,3.26c-1.94,0-3.05-1.65-3.05-4.27c0-2.54,1.01-4.43,3.24-4.62
			l0.04,2.91c-0.76,0.12-1.2,0.74-1.2,1.75c0,0.74,0.27,1.13,0.64,1.13c0.35,0,0.6-0.21,0.7-0.85l0.21-1.36
			c0.35-2.23,1.07-3.4,2.95-3.4c1.81,0,3.11,1.59,3.11,4.16C771.37,747.17,770.2,748.73,768.28,748.92z M764.4,779.92
			c0.35,0,0.6-0.21,0.7-0.85l0.21-1.36c0.35-2.23,1.07-3.4,2.95-3.4c1.81,0,3.11,1.59,3.11,4.16c0,2.66-1.17,4.23-3.09,4.41
			l-0.08-2.74c0.66-0.12,1.07-0.7,1.07-1.73c0-0.64-0.25-1.01-0.66-1.01c-0.31,0-0.47,0.25-0.52,0.56l-0.31,1.79
			c-0.33,2.06-1.26,3.26-3.05,3.26c-1.94,0-3.05-1.65-3.05-4.27c0-2.54,1.01-4.43,3.24-4.62l0.04,2.91c-0.76,0.12-1.2,0.74-1.2,1.75
			C763.76,779.53,764.03,779.92,764.4,779.92z M761.93,815.82h9.19v3.34h-9.19V815.82z M766.61,835.19h4.51v3.34h-9.19v-3.34h1.38
			c-1.03-0.49-1.63-1.5-1.63-2.89c0-2.52,1.73-3.28,3.65-3.28h5.79v3.34h-4.91c-1.24,0-1.92,0.35-1.92,1.36
			C764.3,834.78,765.21,835.19,766.61,835.19z M771.12,739h-9.19v-3.34h9.19V739z M771.12,715.9v2.39h-2.31v-2.39h-3.36
			c-0.78,0-1.09,0.37-1.09,1.05c0,0.41,0.08,0.87,0.31,1.42h-2.16c-0.52-0.7-0.82-1.5-0.82-2.76c0-1.55,0.64-3.01,2.8-3.01h4.33
			v-1.24h2.06l0.1,0.68c0.14,0.93,0.64,1.22,1.48,1.44l1.2,0.31v2.1H771.12z M761.93,710.46v-3.34h9.19v3.34H761.93z M771.12,695.35
			v3.34h-1.59c1.09,0.45,1.83,1.48,1.83,3.03c0,2.7-2.14,4.08-4.84,4.08c-2.72,0-4.84-1.38-4.84-4.08c0-1.55,0.74-2.58,1.81-3.03
			h-4.86v-3.34H771.12z M768.28,848.44l-0.08-2.74c0.66-0.12,1.07-0.7,1.07-1.73c0-0.64-0.25-1.01-0.66-1.01
			c-0.31,0-0.47,0.25-0.52,0.56l-0.31,1.79c-0.33,2.06-1.26,3.26-3.05,3.26c-1.94,0-3.05-1.65-3.05-4.27c0-2.54,1.01-4.43,3.24-4.62
			l0.04,2.91c-0.76,0.12-1.2,0.74-1.2,1.75c0,0.74,0.27,1.13,0.64,1.13c0.35,0,0.6-0.21,0.7-0.84l0.21-1.36
			c0.35-2.23,1.07-3.4,2.95-3.4c1.81,0,3.11,1.59,3.11,4.16C771.37,846.69,770.2,848.26,768.28,848.44z M771.02,828.1l-3.15-0.21
			c0.27-0.45,0.39-0.95,0.39-1.59c0-1.24-0.58-2-2.12-2h-4.21v-3.34h9.19v3.34h-1.63c1.03,0.33,1.88,1.3,1.88,2.52
			C771.37,827.38,771.21,827.88,771.02,828.1z M774.92,819.18h-2.93v-3.38h2.93V819.18z M774.92,804.91l-8.64,3.22v0.08l8.64,3.22
			v3.48l-12.99-4.99v-3.69l12.99-4.99V804.91z M774.92,794.27l-12.99,5.17v-3.73l2.51-0.97v-5.07l-2.51-0.97v-3.53l12.99,5.17
			V794.27z M774.92,772.89h-12.99v-3.5h12.99V772.89z M774.92,739.02h-2.93v-3.38h2.93V739.02z M774.92,733.85h-12.99v-3.34h12.99
			V733.85z M774.92,710.48h-2.93v-3.38h2.93V710.48z M769.39,683.21l-0.12-3.36c1.44-0.21,2.78-0.99,2.78-3.01
			c0-1.92-1.42-3.03-3.63-3.03s-3.63,1.11-3.63,3.03c0,2.02,1.34,2.8,2.78,3.01l-0.14,3.36c-3.24-0.25-5.75-2.37-5.75-6.35
			c0-3.79,2.74-6.66,6.74-6.66s6.74,2.87,6.74,6.66C775.16,680.84,772.63,682.97,769.39,683.21z M761.93,659.21v-2.49l3.42,0.8
			v-1.81l2.06,0.43v1.88l2.02,0.49v-1.98l2.06,0.43v2.02l3.42,0.82v2.49l-3.42-0.82v1.77l3.42,0.82v2.49l-3.42-0.82v1.83l-2.06-0.43
			v-1.88l-2.02-0.49v1.98l-2.06-0.43v-2.04l-3.42-0.8v-2.49l3.42,0.8v-1.77L761.93,659.21z M781.74,295.72H672.66V157.17h107.1
			v30.79h-70.38v22.65h54.32v30.35h-54.32v23.97h72.35V295.72z"/>
		<polygon points="265.16,23.55 266.5,18.36 266.58,18.36 267.92,23.55 271.2,23.55 274.07,14.5 276.93,23.55 280.21,23.55 
			281.55,18.36 281.63,18.36 282.97,23.55 286.25,23.55 289.11,14.5 291.98,23.55 295.25,23.55 296.59,18.36 296.68,18.36 
			298.02,23.55 301.29,23.55 304.2,14.36 301.19,14.36 299.54,19.58 299.46,19.58 298.12,14.36 295.46,14.36 294.12,19.58 
			294.04,19.58 292.39,14.36 289.15,14.36 289.07,14.36 286.15,14.36 284.5,19.58 284.41,19.58 283.07,14.36 280.41,14.36 
			279.07,19.58 278.99,19.58 277.34,14.36 274.11,14.36 274.02,14.36 271.1,14.36 269.45,19.58 269.37,19.58 268.03,14.36 
			265.37,14.36 264.03,19.58 263.95,19.58 262.3,14.36 258.98,14.36 261.88,23.55 		"/>
		<rect x="306.63" y="20.01" width="3.55" height="3.55"/>
		<path d="M319.72,23.8c3.98,0,6.1-2.52,6.35-5.75l-3.36-0.14c-0.21,1.44-0.99,2.78-3.01,2.78c-1.92,0-3.03-1.42-3.03-3.63
			s1.11-3.63,3.03-3.63c2.02,0,2.8,1.34,3.01,2.78l3.36-0.12c-0.25-3.24-2.37-5.77-6.35-5.77c-3.79,0-6.66,2.74-6.66,6.74
			S315.92,23.8,319.72,23.8z"/>
		<path d="M330.08,18.38c-2,0.35-3.28,1.11-3.28,2.89c0,1.57,1.17,2.49,2.97,2.49c1.46,0,2.52-0.56,3.05-1.63
			c0.31,1.05,1.2,1.63,2.33,1.63c0.95,0,1.61-0.27,2.08-0.6v-1.77c-0.27,0.1-0.47,0.14-0.74,0.14c-0.35,0-0.56-0.21-0.56-0.68v-3.13
			c0-2.56-1.79-3.61-4.23-3.61c-2.76,0-4.27,1.4-4.56,3.42l3.09,0.21c0.14-0.68,0.52-1.15,1.26-1.15c0.8,0,1.15,0.45,1.15,1.22v0.14
			L330.08,18.38z M332.66,19.72c0,1.2-0.76,1.9-1.71,1.9c-0.56,0-0.93-0.31-0.93-0.78c0-0.6,0.47-0.85,1.28-1.01l1.36-0.25V19.72z"
			/>
		<path d="M341.54,21.99c0.45,1.07,1.48,1.81,3.03,1.81c2.7,0,4.08-2.12,4.08-4.84c0-2.7-1.38-4.84-4.08-4.84
			c-1.55,0-2.58,0.74-3.03,1.83v-1.59h-3.34v12.49h3.34V21.99z M341.54,18.9c0-1.32,0.72-2.19,1.86-2.19c1.3,0,1.9,0.93,1.9,2.25
			c0,1.34-0.6,2.27-1.9,2.27c-1.13,0-1.86-0.87-1.86-2.21V18.9z"/>
		<rect x="349.95" y="10.57" width="3.38" height="2.93"/>
		<rect x="349.97" y="14.36" width="3.34" height="9.19"/>
		<path d="M355.46,21c0,2.16,1.46,2.8,3.01,2.8c1.26,0,2.06-0.31,2.76-0.82v-2.16c-0.56,0.23-1.01,0.31-1.42,0.31
			c-0.68,0-1.05-0.31-1.05-1.09v-3.36h2.39v-2.31h-2.39v-2.54h-2.1l-0.31,1.2c-0.23,0.85-0.52,1.34-1.44,1.48l-0.68,0.1v2.06h1.24
			V21z"/>
		<path d="M365.25,18.38c-2,0.35-3.28,1.11-3.28,2.89c0,1.57,1.17,2.49,2.97,2.49c1.46,0,2.52-0.56,3.05-1.63
			c0.31,1.05,1.2,1.63,2.33,1.63c0.95,0,1.61-0.27,2.08-0.6v-1.77c-0.27,0.1-0.47,0.14-0.74,0.14c-0.35,0-0.56-0.21-0.56-0.68v-3.13
			c0-2.56-1.79-3.61-4.23-3.61c-2.76,0-4.27,1.4-4.56,3.42l3.09,0.21c0.14-0.68,0.52-1.15,1.26-1.15c0.8,0,1.15,0.45,1.15,1.22v0.14
			L365.25,18.38z M367.82,19.72c0,1.2-0.76,1.9-1.71,1.9c-0.56,0-0.93-0.31-0.93-0.78c0-0.6,0.47-0.85,1.28-1.01l1.36-0.25V19.72z"
			/>
		<rect x="373.37" y="10.57" width="3.34" height="12.99"/>
		<rect x="378.5" y="10.57" width="3.38" height="2.93"/>
		<rect x="378.52" y="14.36" width="3.34" height="9.19"/>
		<path d="M387.67,21.72c-1.01,0-1.63-0.43-1.75-1.2l-2.91,0.04c0.19,2.23,2.08,3.24,4.62,3.24c2.62,0,4.27-1.11,4.27-3.05
			c0-1.79-1.2-2.72-3.26-3.05l-1.79-0.31c-0.31-0.04-0.56-0.21-0.56-0.52c0-0.41,0.37-0.66,1.01-0.66c1.03,0,1.61,0.41,1.73,1.07
			l2.74-0.08c-0.19-1.92-1.75-3.09-4.41-3.09c-2.58,0-4.16,1.3-4.16,3.11c0,1.88,1.17,2.6,3.4,2.95l1.36,0.21
			c0.64,0.1,0.85,0.35,0.85,0.7C388.8,21.45,388.41,21.72,387.67,21.72z"/>
		<path d="M396.51,19.04c0-1.38,0.39-2.29,1.48-2.29c1.01,0,1.26,0.66,1.26,1.92v4.89h3.34v-4.51c0-1.38,0.37-2.29,1.48-2.29
			c1.01,0,1.24,0.66,1.24,1.92v4.89h3.34v-5.77c0-1.92-0.74-3.67-3.28-3.67c-1.55,0-2.64,0.78-3.13,1.81
			c-0.39-1.07-1.24-1.81-2.87-1.81c-1.38,0-2.37,0.62-2.87,1.63v-1.38h-3.34v9.19h3.34V19.04z"/>
		<rect x="413.91" y="10.57" width="3.5" height="12.99"/>
		<path d="M423.3,21.72c-1.01,0-1.63-0.43-1.75-1.2l-2.91,0.04c0.19,2.23,2.08,3.24,4.62,3.24c2.62,0,4.27-1.11,4.27-3.05
			c0-1.79-1.2-2.72-3.26-3.05l-1.79-0.31c-0.31-0.04-0.56-0.21-0.56-0.52c0-0.41,0.37-0.66,1.01-0.66c1.03,0,1.61,0.41,1.73,1.07
			l2.74-0.08c-0.19-1.92-1.75-3.09-4.41-3.09c-2.58,0-4.16,1.3-4.16,3.11c0,1.88,1.18,2.6,3.4,2.95l1.36,0.21
			c0.64,0.1,0.85,0.35,0.85,0.7C424.44,21.45,424.05,21.72,423.3,21.72z"/>
		<path d="M435.86,21.04h5.07l0.97,2.52h3.73l-5.17-12.99h-3.92l-5.17,12.99h3.52L435.86,21.04z M438.35,14.59h0.08l1.48,3.83h-3.05
			L438.35,14.59z"/>
		<polygon points="456.16,23.55 461.15,10.57 457.66,10.57 454.45,19.2 454.36,19.2 451.15,10.57 447.48,10.57 452.47,23.55 		"/>
		<rect x="462.05" y="14.36" width="3.34" height="9.19"/>
		<rect x="462.03" y="10.57" width="3.38" height="2.93"/>
		<path d="M470.54,19.35c0-1.55,0.76-2.12,2-2.12c0.64,0,1.13,0.12,1.59,0.39l0.21-3.15c-0.23-0.19-0.72-0.35-1.28-0.35
			c-1.22,0-2.19,0.85-2.52,1.88v-1.63h-3.34v9.19h3.34V19.35z"/>
		<path d="M478.54,23.8c1.38,0,2.39-0.6,2.89-1.63v1.38h3.34v-9.19h-3.34v4.51c0,1.4-0.41,2.31-1.46,2.31
			c-1.01,0-1.36-0.68-1.36-1.92v-4.91h-3.34v5.79C475.26,22.07,476.02,23.8,478.54,23.8z"/>
		<path d="M490.58,21.72c-1.01,0-1.63-0.43-1.75-1.2l-2.91,0.04c0.19,2.23,2.08,3.24,4.62,3.24c2.62,0,4.27-1.11,4.27-3.05
			c0-1.79-1.2-2.72-3.26-3.05l-1.79-0.31c-0.31-0.04-0.56-0.21-0.56-0.52c0-0.41,0.37-0.66,1.01-0.66c1.03,0,1.61,0.41,1.73,1.07
			l2.74-0.08c-0.19-1.92-1.75-3.09-4.41-3.09c-2.58,0-4.16,1.3-4.16,3.11c0,1.88,1.18,2.6,3.4,2.95l1.36,0.21
			c0.64,0.1,0.85,0.35,0.85,0.7C491.71,21.45,491.32,21.72,490.58,21.72z"/>
		<rect x="497.64" y="20.01" width="3.55" height="3.55"/>
		<path d="M509.1,23.8c2.99,0,5.03-1.98,5.03-4.84c0-2.84-2.04-4.84-5.03-4.84c-3.01,0-5.03,2-5.03,4.84
			C504.07,21.82,506.09,23.8,509.1,23.8z M509.1,16.63c1.15,0,1.67,0.95,1.67,2.33c0,1.38-0.52,2.33-1.67,2.33
			c-1.17,0-1.67-0.95-1.67-2.33C507.44,17.58,507.93,16.63,509.1,16.63z"/>
		<path d="M518.79,19.35c0-1.55,0.76-2.12,2-2.12c0.64,0,1.13,0.12,1.59,0.39l0.21-3.15c-0.23-0.19-0.72-0.35-1.28-0.35
			c-1.22,0-2.19,0.85-2.52,1.88v-1.63h-3.34v9.19h3.34V19.35z"/>
		<path d="M522.6,24.85c0,1.73,2.27,2.25,4.89,2.25c2.99,0,5.77-1.05,5.77-3.34c0-1.55-1.05-2.64-3.13-2.64h-3.81
			c-0.56,0-0.78-0.25-0.78-0.56c0-0.19,0.06-0.33,0.19-0.43c0.6,0.19,1.26,0.27,2,0.27c2.6,0,4.47-1.2,4.47-3.13
			c0-0.43-0.1-0.82-0.29-1.17c0.45-0.1,0.95-0.14,1.34-0.14v-2.51c-1.01,0-2.02,0.66-2.58,1.42c-0.78-0.47-1.83-0.74-2.95-0.74
			c-2.58,0-4.43,1.2-4.43,3.15c0,1.01,0.49,1.79,1.32,2.33c-0.99,0.37-1.57,1.05-1.57,1.94c0,0.78,0.49,1.53,1.32,1.79
			C523.33,23.41,522.6,24.05,522.6,24.85z M527.76,15.95c0.56,0,0.97,0.52,0.97,1.32c0,0.82-0.41,1.34-0.97,1.34
			c-0.56,0-0.97-0.52-0.97-1.34C526.79,16.46,527.2,15.95,527.76,15.95z M525.96,23.97h3.38c0.56,0,0.85,0.14,0.85,0.54
			c0,0.56-1.13,0.87-2.68,0.87c-1.24,0-2.16-0.19-2.16-0.84C525.35,24.17,525.59,23.97,525.96,23.97z"/>
		<path d="M311.03,589.49l0.43-2.06h-1.83l0.82-3.42h-2.49l-0.82,3.42h-1.77l0.83-3.42h-2.49l-0.82,3.42h-2.02l-0.43,2.06h1.98
			l-0.49,2.02h-1.88l-0.43,2.06h1.81l-0.8,3.42h2.49l0.8-3.42h1.77l-0.8,3.42h2.49l0.8-3.42h2.04l0.43-2.06h-1.98l0.49-2.02H311.03z
			 M306.17,591.51h-1.77l0.5-2.02h1.77L306.17,591.51z"/>
		<path d="M320.73,586.87c2.02,0,2.8,1.34,3.01,2.78l3.36-0.12c-0.25-3.24-2.37-5.77-6.35-5.77c-3.79,0-6.66,2.74-6.66,6.74
			c0,4,2.87,6.74,6.66,6.74c3.98,0,6.1-2.52,6.35-5.75l-3.36-0.14c-0.21,1.44-0.99,2.78-3.01,2.78c-1.92,0-3.03-1.42-3.03-3.63
			C317.7,588.29,318.81,586.87,320.73,586.87z"/>
		<path d="M331.11,591.82c-2,0.35-3.28,1.11-3.28,2.89c0,1.57,1.18,2.49,2.97,2.49c1.46,0,2.52-0.56,3.05-1.63
			c0.31,1.05,1.2,1.63,2.33,1.63c0.95,0,1.61-0.27,2.08-0.6v-1.77c-0.27,0.1-0.47,0.14-0.74,0.14c-0.35,0-0.56-0.21-0.56-0.68v-3.13
			c0-2.56-1.79-3.61-4.23-3.61c-2.76,0-4.27,1.4-4.56,3.42l3.09,0.21c0.14-0.68,0.52-1.15,1.26-1.15c0.8,0,1.15,0.45,1.15,1.22v0.14
			L331.11,591.82z M333.69,593.16c0,1.2-0.76,1.9-1.71,1.9c-0.56,0-0.93-0.31-0.93-0.78c0-0.6,0.47-0.85,1.28-1.01l1.36-0.25V593.16
			z"/>
		<path d="M339.23,587.8v12.49h3.34v-4.87c0.45,1.07,1.48,1.81,3.03,1.81c2.7,0,4.08-2.12,4.08-4.84c0-2.7-1.38-4.84-4.08-4.84
			c-1.55,0-2.58,0.74-3.03,1.83v-1.59H339.23z M344.43,590.15c1.3,0,1.9,0.93,1.9,2.25c0,1.34-0.6,2.27-1.9,2.27
			c-1.13,0-1.86-0.87-1.86-2.21v-0.12C342.57,591.02,343.29,590.15,344.43,590.15z"/>
		<rect x="351" y="587.8" width="3.34" height="9.19"/>
		<rect x="350.98" y="584.01" width="3.38" height="2.93"/>
		<path d="M359.49,597.24c1.26,0,2.06-0.31,2.76-0.82v-2.16c-0.56,0.23-1.01,0.31-1.42,0.31c-0.68,0-1.05-0.31-1.05-1.09v-3.36h2.39
			v-2.31h-2.39v-2.54h-2.1l-0.31,1.2c-0.23,0.85-0.52,1.34-1.44,1.48l-0.68,0.1v2.06h1.24v4.33
			C356.48,596.6,357.95,597.24,359.49,597.24z"/>
		<path d="M366.27,591.82c-2,0.35-3.28,1.11-3.28,2.89c0,1.57,1.18,2.49,2.97,2.49c1.46,0,2.51-0.56,3.05-1.63
			c0.31,1.05,1.2,1.63,2.33,1.63c0.95,0,1.61-0.27,2.08-0.6v-1.77c-0.27,0.1-0.47,0.14-0.74,0.14c-0.35,0-0.56-0.21-0.56-0.68v-3.13
			c0-2.56-1.79-3.61-4.23-3.61c-2.76,0-4.27,1.4-4.56,3.42l3.09,0.21c0.14-0.68,0.52-1.15,1.26-1.15c0.8,0,1.15,0.45,1.15,1.22v0.14
			L366.27,591.82z M368.85,593.16c0,1.2-0.76,1.9-1.71,1.9c-0.56,0-0.93-0.31-0.93-0.78c0-0.6,0.47-0.85,1.28-1.01l1.36-0.25V593.16
			z"/>
		<rect x="374.39" y="584.01" width="3.34" height="12.99"/>
		<rect x="379.53" y="584.01" width="3.38" height="2.93"/>
		<rect x="379.55" y="587.8" width="3.34" height="9.19"/>
		<path d="M388.7,595.16c-1.01,0-1.63-0.43-1.75-1.2l-2.91,0.04c0.19,2.23,2.08,3.24,4.62,3.24c2.62,0,4.27-1.11,4.27-3.05
			c0-1.79-1.2-2.72-3.26-3.05l-1.79-0.31c-0.31-0.04-0.56-0.21-0.56-0.52c0-0.41,0.37-0.66,1.01-0.66c1.03,0,1.61,0.41,1.73,1.07
			l2.74-0.08c-0.19-1.92-1.75-3.09-4.41-3.09c-2.58,0-4.16,1.3-4.16,3.11c0,1.88,1.18,2.6,3.4,2.95l1.36,0.21
			c0.64,0.1,0.85,0.35,0.85,0.7C389.83,594.89,389.44,595.16,388.7,595.16z"/>
		<path d="M409.68,596.99v-5.77c0-1.92-0.74-3.67-3.28-3.67c-1.55,0-2.64,0.78-3.13,1.81c-0.39-1.07-1.24-1.81-2.87-1.81
			c-1.38,0-2.37,0.62-2.87,1.63v-1.38h-3.34v9.19h3.34v-4.51c0-1.38,0.39-2.29,1.48-2.29c1.01,0,1.26,0.66,1.26,1.92v4.89h3.34
			v-4.51c0-1.38,0.37-2.29,1.48-2.29c1.01,0,1.24,0.66,1.24,1.92v4.89H409.68z"/>
		<rect x="413.27" y="584.01" width="3.5" height="12.99"/>
		<path d="M422.67,595.16c-1.01,0-1.63-0.43-1.75-1.2l-2.91,0.04c0.19,2.23,2.08,3.24,4.62,3.24c2.62,0,4.27-1.11,4.27-3.05
			c0-1.79-1.2-2.72-3.26-3.05l-1.79-0.31c-0.31-0.04-0.56-0.21-0.56-0.52c0-0.41,0.37-0.66,1.01-0.66c1.03,0,1.61,0.41,1.73,1.07
			l2.74-0.08c-0.19-1.92-1.75-3.09-4.41-3.09c-2.58,0-4.16,1.3-4.16,3.11c0,1.88,1.18,2.6,3.4,2.95l1.36,0.21
			c0.64,0.1,0.85,0.35,0.85,0.7C423.8,594.89,423.41,595.16,422.67,595.16z"/>
		<path d="M433.56,594.48h5.07l0.97,2.51h3.73l-5.17-12.99h-3.92l-5.17,12.99h3.52L433.56,594.48z M436.05,588.03h0.08l1.48,3.83
			h-3.05L436.05,588.03z"/>
		<polygon points="453.81,596.99 458.8,584.01 455.31,584.01 452.1,592.64 452.01,592.64 448.8,584.01 445.13,584.01 450.12,596.99 
					"/>
		<rect x="459.68" y="584.01" width="3.38" height="2.93"/>
		<rect x="459.7" y="587.8" width="3.34" height="9.19"/>
		<path d="M464.85,587.8v9.19h3.34v-4.21c0-1.55,0.76-2.12,2-2.12c0.64,0,1.13,0.12,1.59,0.39l0.21-3.15
			c-0.23-0.19-0.72-0.35-1.28-0.35c-1.22,0-2.19,0.85-2.52,1.88v-1.63H464.85z"/>
		<path d="M482.41,596.99v-9.19h-3.34v4.51c0,1.4-0.41,2.31-1.46,2.31c-1.01,0-1.36-0.68-1.36-1.92v-4.91h-3.34v5.79
			c0,1.92,0.76,3.65,3.28,3.65c1.38,0,2.39-0.6,2.89-1.63v1.38H482.41z"/>
		<path d="M488.23,595.16c-1.01,0-1.63-0.43-1.75-1.2l-2.91,0.04c0.19,2.23,2.08,3.24,4.62,3.24c2.62,0,4.27-1.11,4.27-3.05
			c0-1.79-1.2-2.72-3.26-3.05l-1.79-0.31c-0.31-0.04-0.56-0.21-0.56-0.52c0-0.41,0.37-0.66,1.01-0.66c1.03,0,1.61,0.41,1.73,1.07
			l2.74-0.08c-0.19-1.92-1.75-3.09-4.41-3.09c-2.58,0-4.16,1.3-4.16,3.11c0,1.88,1.17,2.6,3.4,2.95l1.36,0.21
			c0.64,0.1,0.85,0.35,0.85,0.7C489.36,594.89,488.97,595.16,488.23,595.16z"/>
		<path d="M106.17,435.12v113.8h30.53v-35.58h19.51c29.8,0,47.15-13.91,47.15-39.2c0-25.11-17.34-39.02-47.15-39.02H106.17z
			 M173.73,474.31c0,9.57-5.24,14.45-18.97,14.45H136.7v-29.08h18.06C168.49,459.68,173.73,464.74,173.73,474.31z"/>
		<path d="M310.47,522.72c-1.26-13.19-8.13-19.87-19.87-22.22c13.91-1.81,24.21-12.64,24.21-29.26c0-22.22-14.63-36.13-44.07-36.13
			h-57.44v113.8h30.17v-37.75h20.41c10.3,0,15.9,2.89,16.8,15.9c0.9,11.74,2.35,18.79,4.7,21.86h31.07
			C312.64,544.76,312.09,539.7,310.47,522.72z M265.31,487.5h-21.86v-27.82h21.86c13.01,0,19.51,4.88,19.51,14.09
			C284.82,484.25,278.32,487.5,265.31,487.5z"/>
		<path d="M382.36,432.95c-33.06,0-59.07,24.02-59.07,59.07s26.01,59.07,59.07,59.07s59.07-24.02,59.07-59.07
			S415.42,432.95,382.36,432.95z M382.36,523.99c-16.8,0-27.46-12.64-27.46-31.97c0-19.33,10.66-31.97,27.46-31.97
			s27.46,12.64,27.46,31.97C409.82,511.34,399.16,523.99,382.36,523.99z"/>
		<polygon points="539.7,460.41 539.7,435.12 453.71,435.12 453.71,548.92 484.42,548.92 484.42,507.19 525.97,507.19 
			525.97,482.26 484.42,482.26 484.42,460.41 		"/>
		<rect x="552.88" y="435.12" width="30.71" height="113.8"/>
		<polygon points="666.32,548.92 666.32,460.41 705.88,460.41 705.88,435.12 596.78,435.12 596.78,460.41 635.8,460.41 
			635.8,548.92 		"/>
		<path d="M51.83,252.39h23.75c36.29,0,57.4-16.93,57.4-47.72c0-30.57-21.11-47.5-57.4-47.5H14.67v138.55h37.17V252.39z
			 M51.83,187.08h21.99c16.71,0,23.09,6.16,23.09,17.81s-6.38,17.59-23.09,17.59H51.83V187.08z"/>
		<polygon points="254.16,264.93 181.8,264.93 181.8,240.96 236.12,240.96 236.12,210.61 181.8,210.61 181.8,187.96 252.18,187.96 
			252.18,157.17 145.08,157.17 145.08,295.72 254.16,295.72 		"/>
		<path d="M333.33,298.36c40.25,0,71.92-29.25,71.92-71.92c0-42.67-31.67-71.92-71.92-71.92c-40.25,0-71.92,29.25-71.92,71.92
			C261.41,269.11,293.08,298.36,333.33,298.36z M333.33,187.52c20.45,0,33.43,15.39,33.43,38.93c0,23.53-12.98,38.93-33.43,38.93
			c-20.45,0-33.43-15.4-33.43-38.93C299.9,202.91,312.87,187.52,333.33,187.52z"/>
		<path d="M420.19,295.72h37.17v-43.33h23.75c36.29,0,57.4-16.93,57.4-47.72c0-30.57-21.11-47.5-57.4-47.5h-60.92V295.72z
			 M457.36,187.08h21.99c16.71,0,23.09,6.16,23.09,17.81s-6.38,17.59-23.09,17.59h-21.99V187.08z"/>
		<polygon points="656.6,264.93 587.99,264.93 587.99,157.17 550.6,157.17 550.6,295.72 656.6,295.72 		"/>
		<polygon points="709.38,240.96 763.7,240.96 763.7,210.61 709.38,210.61 709.38,187.96 779.76,187.96 779.76,157.17 
			672.66,157.17 672.66,295.72 781.74,295.72 781.74,264.93 709.38,264.93 		"/>
		<path d="M69.43,102.24c-6.91,0-12.93-2.67-13.52-10.46l-15.4,0.49c0,15,12.04,23.2,28.92,23.2c14.51,0,25.96-6.61,25.96-19.84
			c0-10.17-5.92-16.98-18.95-19.25l-11.75-2.07c-3.85-0.69-6.22-1.78-6.22-4.64c0-3.45,3.16-5.63,8.69-5.63
			c6.42,0,11.05,2.96,11.55,9.38l15.4-0.3c-0.3-13.82-9.58-22.21-26.75-22.21c-15.5,0-25.37,7.6-25.37,20.24
			c0,10.86,7.11,16.58,17.27,18.46l11.35,1.97c4.74,0.89,8.39,1.48,8.39,5.13C79,100.17,75.25,102.24,69.43,102.24z"/>
		<path d="M124.41,115.47c14.31,0,24.08-9.48,24.08-23.2c0-13.62-9.77-23.2-24.08-23.2c-14.41,0-24.08,9.57-24.08,23.2
			C100.32,106,110,115.47,124.41,115.47z M124.41,81.12c5.53,0,8,4.54,8,11.15s-2.47,11.15-8,11.15c-5.63,0-8-4.54-8-11.15
			S118.78,81.12,124.41,81.12z"/>
		<path d="M176.82,115.47c13.23,0,20.63-8.49,21.72-19.15l-13.13-0.99c-1.08,5.43-3.75,8.09-8.39,8.09c-4.84,0-8.19-3.26-8.19-11.15
			s3.36-11.15,8.19-11.15c4.64,0,7.3,2.57,8.39,8l13.13-0.89c-1.09-10.56-8.49-19.15-21.72-19.15c-13.92,0-24.08,9.28-24.08,23.2
			C152.74,106.29,162.9,115.47,176.82,115.47z"/>
		<rect x="204.66" y="70.26" width="15.99" height="44.02"/>
		<rect x="204.56" y="52.1" width="16.19" height="14.02"/>
		<path d="M242.46,89.51c-9.58,1.68-15.7,5.33-15.7,13.82c0,7.5,5.63,11.94,14.21,11.94c7.01,0,12.04-2.67,14.61-7.8
			c1.48,5.03,5.73,7.8,11.15,7.8c4.54,0,7.7-1.28,9.97-2.86v-8.49c-1.28,0.49-2.27,0.69-3.55,0.69c-1.68,0-2.67-0.99-2.67-3.26v-15
			c0-12.24-8.59-17.27-20.24-17.27c-13.23,0-20.43,6.71-21.81,16.39l14.81,0.99c0.69-3.26,2.47-5.53,6.02-5.53
			c3.85,0,5.53,2.17,5.53,5.82v0.69L242.46,89.51z M254.8,95.93c0,5.73-3.65,9.08-8.19,9.08c-2.67,0-4.44-1.48-4.44-3.75
			c0-2.86,2.27-4.05,6.12-4.84l6.52-1.18V95.93z"/>
		<rect x="281.35" y="52.1" width="15.99" height="62.19"/>
		<rect x="305.93" y="52.1" width="16.19" height="14.02"/>
		<rect x="306.03" y="70.26" width="15.99" height="44.02"/>
		<path d="M349.85,105.5c-4.84,0-7.8-2.07-8.39-5.73l-13.92,0.2c0.89,10.66,9.97,15.5,22.11,15.5c12.54,0,20.43-5.33,20.43-14.61
			c0-8.59-5.73-13.03-15.6-14.61l-8.59-1.48c-1.48-0.2-2.67-0.99-2.67-2.47c0-1.97,1.78-3.16,4.84-3.16c4.94,0,7.7,1.97,8.29,5.13
			l13.13-0.4c-0.89-9.18-8.39-14.81-21.12-14.81c-12.34,0-19.94,6.22-19.94,14.9c0,8.98,5.63,12.44,16.29,14.12l6.51,0.99
			c3.06,0.49,4.05,1.68,4.05,3.36C355.28,104.22,353.41,105.5,349.85,105.5z"/>
		<path d="M376.21,70.26v44.02h15.99V92.67c0-6.61,1.88-10.96,7.11-10.96c4.84,0,6.02,3.16,6.02,9.18v23.39h15.99V92.67
			c0-6.61,1.78-10.96,7.11-10.96c4.84,0,5.92,3.16,5.92,9.18v23.39h15.99V86.65c0-9.18-3.55-17.57-15.69-17.57
			c-7.4,0-12.63,3.75-15,8.69c-1.88-5.13-5.92-8.69-13.72-8.69c-6.61,0-11.35,2.96-13.72,7.8v-6.61H376.21z"/>
		<polygon points="476.69,114.29 492.09,114.29 492.09,70.56 492.49,70.56 503.64,114.29 517.95,114.29 529.11,70.56 529.5,70.56 
			529.5,114.29 546.28,114.29 546.28,52.1 520.92,52.1 512.13,91.19 511.83,91.19 502.65,52.1 476.69,52.1 		"/>
		<path d="M577.18,115.47c11.65,0,19.74-5.63,22.01-15.69l-12.83-1.18c-1.48,3.46-4.24,4.94-8.59,4.94c-4.84,0-8.79-2.57-9.18-8
			h30.9v-4.44c0-11.94-7.8-22.01-22.5-22.01c-13.72,0-23.99,9.97-23.99,23.89C552.99,106.98,563.06,115.47,577.18,115.47z
			 M576.78,80.53c4.74,0,7.3,3.36,7.5,7.3h-15.5C569.38,83.69,571.65,80.53,576.78,80.53z"/>
		<path d="M619.13,89.51c-9.58,1.68-15.7,5.33-15.7,13.82c0,7.5,5.63,11.94,14.21,11.94c7.01,0,12.04-2.67,14.61-7.8
			c1.48,5.03,5.73,7.8,11.15,7.8c4.54,0,7.7-1.28,9.97-2.86v-8.49c-1.28,0.49-2.27,0.69-3.55,0.69c-1.68,0-2.67-0.99-2.67-3.26v-15
			c0-12.24-8.59-17.27-20.24-17.27c-13.23,0-20.43,6.71-21.81,16.39l14.81,0.99c0.69-3.26,2.47-5.53,6.02-5.53
			c3.85,0,5.53,2.17,5.53,5.82v0.69L619.13,89.51z M631.47,95.93c0,5.73-3.65,9.08-8.19,9.08c-2.67,0-4.44-1.48-4.44-3.75
			c0-2.86,2.27-4.05,6.12-4.84l6.52-1.18V95.93z"/>
		<path d="M674.01,92.67c0-6.61,2.17-10.96,7.6-10.96c4.84,0,6.51,3.16,6.51,9.18v23.39h15.99V86.65c0-9.18-3.85-17.57-15.89-17.57
			c-6.61,0-11.84,2.96-14.21,7.8v-6.61h-15.99v44.02h15.99V92.67z"/>
		<path d="M731.46,105.5c-4.84,0-7.8-2.07-8.39-5.73l-13.92,0.2c0.89,10.66,9.97,15.5,22.11,15.5c12.54,0,20.43-5.33,20.43-14.61
			c0-8.59-5.73-13.03-15.6-14.61l-8.59-1.48c-1.48-0.2-2.67-0.99-2.67-2.47c0-1.97,1.78-3.16,4.84-3.16c4.94,0,7.7,1.97,8.29,5.13
			l13.13-0.4c-0.89-9.18-8.39-14.81-21.12-14.81c-12.34,0-19.94,6.22-19.94,14.9c0,8.98,5.63,12.44,16.29,14.12l6.51,0.99
			c3.06,0.49,4.05,1.68,4.05,3.36C736.88,104.22,735.01,105.5,731.46,105.5z"/>
		<path d="M293.15,361.97c0,19.15,14.21,32.28,32.28,32.28s32.28-13.13,32.28-32.28c0-19.15-14.21-32.28-32.28-32.28
			S293.15,342.82,293.15,361.97z M340.43,361.97c0,10.56-5.82,17.47-15,17.47s-15-6.91-15-17.47c0-10.56,5.82-17.47,15-17.47
			S340.43,351.41,340.43,361.97z"/>
		<polygon points="386.82,376.38 377.25,349.04 360.46,349.04 376.85,393.06 395.9,393.06 412.29,349.04 396.79,349.04 
			387.21,376.38 		"/>
		<path d="M459.27,378.55l-12.83-1.18c-1.48,3.46-4.24,4.94-8.59,4.94c-4.84,0-8.79-2.57-9.18-8h30.9v-4.44
			c0-11.94-7.8-22.01-22.5-22.01c-13.72,0-23.99,9.97-23.99,23.89c0,14.02,10.07,22.51,24.18,22.51
			C448.91,394.25,457,388.62,459.27,378.55z M436.87,359.31c4.74,0,7.3,3.36,7.5,7.3h-15.5
			C429.46,362.46,431.73,359.31,436.87,359.31z"/>
		<path d="M466.08,349.04v44.02h15.99v-20.14c0-7.4,3.65-10.17,9.58-10.17c3.06,0,5.43,0.59,7.6,1.88l0.99-15.1
			c-1.08-0.89-3.45-1.68-6.12-1.68c-5.82,0-10.46,4.05-12.04,8.98v-7.8H466.08z"/>
	</g>
</g>
</svg>
