<?xml version="1.0" encoding="utf-8"?>
<!-- Generator: Adobe Illustrator 23.1.1, SVG Export Plug-In . SVG Version: 6.00 Build 0)  -->
<svg version="1.1" xmlns="http://www.w3.org/2000/svg" xmlns:xlink="http://www.w3.org/1999/xlink" x="0px" y="0px"
	 viewBox="0 0 792 612" style="enable-background:new 0 0 792 612;" xml:space="preserve">
<style type="text/css">
	.st0{display:none;}
	.st1{display:inline;fill:#FFFFFF;}
	.st2{display:inline;}
	.st3{fill:#FFFFFF;stroke:#000000;stroke-width:16;stroke-linecap:round;stroke-linejoin:round;stroke-miterlimit:10;}
	.st4{fill:none;stroke:#000000;stroke-width:24;stroke-linejoin:round;stroke-miterlimit:10;}
	.st5{fill:#FFFFFF;}
	.st6{fill:#FFFFFF;stroke:#000000;stroke-width:17;stroke-linecap:round;stroke-miterlimit:10;}
	.st7{fill:#FFFFFF;stroke:#000000;stroke-width:17;stroke-miterlimit:10;}
	.st8{stroke:#000000;stroke-width:16.0572;stroke-linecap:round;stroke-miterlimit:10;}
	.st9{fill:#FFFFFF;stroke:#000000;stroke-width:13.497;stroke-linecap:round;stroke-linejoin:round;stroke-miterlimit:10;}
	.st10{stroke:#000000;stroke-width:18.3348;stroke-linecap:round;stroke-miterlimit:10;}
	.st11{fill:none;stroke:#000000;stroke-width:13.497;stroke-linecap:round;stroke-linejoin:round;stroke-miterlimit:10;}
	.st12{fill:#FFFFFF;stroke:#000000;stroke-width:14.6942;stroke-linecap:round;stroke-linejoin:round;stroke-miterlimit:10;}
	.st13{fill:none;stroke:#000000;stroke-width:13;stroke-linecap:round;stroke-linejoin:round;stroke-miterlimit:10;}
	.st14{fill:none;stroke:#000000;stroke-width:13;stroke-linejoin:round;stroke-miterlimit:10;}
	.st15{fill:url(#);stroke:#000000;stroke-width:13;stroke-linejoin:round;stroke-miterlimit:10;}
	.st16{fill:none;stroke:#000000;stroke-width:30.5612;stroke-linecap:round;stroke-linejoin:round;stroke-miterlimit:10;}
	.st17{fill:#FFFFFF;stroke:#000000;stroke-width:16.2993;stroke-linecap:round;stroke-linejoin:round;stroke-miterlimit:10;}
	.st18{fill:#FFFFFF;stroke:#000000;stroke-width:13.497;stroke-linecap:round;stroke-miterlimit:10;}
	.st19{fill:url(#);stroke:#000000;stroke-width:13.497;stroke-linecap:round;stroke-linejoin:round;stroke-miterlimit:10;}
	.st20{fill:#FFFFFF;stroke:#000000;stroke-width:11.7326;stroke-linecap:round;stroke-linejoin:round;stroke-miterlimit:10;}
	.st21{fill:#FFFFFF;stroke:#000000;stroke-width:13.2623;stroke-linecap:round;stroke-linejoin:round;stroke-miterlimit:10;}
	.st22{fill:#FFFFFF;stroke:#000000;stroke-width:13.2623;stroke-linecap:round;stroke-miterlimit:10;}
	.st23{stroke:#000000;stroke-width:4.5213;stroke-miterlimit:10;}
	.st24{fill:none;stroke:#000000;stroke-width:16;stroke-linecap:round;stroke-miterlimit:10;}
	.st25{fill:url(#);stroke:#000000;stroke-width:16;stroke-linecap:round;stroke-linejoin:round;stroke-miterlimit:10;}
	.st26{fill:#FFFFFF;stroke:#000000;stroke-width:16;stroke-linecap:round;stroke-miterlimit:10;}
	.st27{fill:none;stroke:#000000;stroke-width:16;stroke-linecap:round;stroke-linejoin:round;stroke-miterlimit:10;}
	.st28{fill:none;stroke:#000000;stroke-width:15.2344;stroke-linecap:round;stroke-linejoin:round;stroke-miterlimit:10;}
	.st29{fill:#FFFFFF;stroke:#000000;stroke-width:15.2344;stroke-linecap:round;stroke-linejoin:round;stroke-miterlimit:10;}
	.st30{fill:#FFFFFF;stroke:#000000;stroke-width:17;stroke-linecap:round;stroke-linejoin:round;stroke-miterlimit:10;}
	.st31{font-family:'FoundersGrotesk-Bold';}
	.st32{font-size:143.6589px;}
	.st33{font-size:341.942px;}
	.st34{font-size:20.6105px;}
	.st35{font-size:10.3052px;}
	.st36{font-size:19.2364px;}
	.st37{font-size:10px;}
	.st38{fill:none;stroke:#000000;stroke-width:9.9764;stroke-linecap:round;stroke-linejoin:round;stroke-miterlimit:10;}
	.st39{fill:none;stroke:#000000;stroke-width:9.3127;stroke-linejoin:round;stroke-miterlimit:10;}
	.st40{fill:url(#);}
	.st41{fill:none;stroke:#000000;stroke-width:8.3796;stroke-linecap:round;stroke-linejoin:round;stroke-miterlimit:10;}
	
		.st42{display:inline;fill:none;stroke:#000000;stroke-width:9.9764;stroke-linecap:round;stroke-linejoin:round;stroke-miterlimit:10;}
	.st43{display:inline;fill:none;stroke:#000000;stroke-width:9.3127;stroke-linejoin:round;stroke-miterlimit:10;}
	.st44{display:inline;fill:url(#);stroke:#000000;stroke-width:10;stroke-linejoin:round;stroke-miterlimit:10;}
	.st45{fill:#FFFFFF;stroke:#000000;stroke-width:14.7375;stroke-linecap:round;stroke-linejoin:round;stroke-miterlimit:10;}
	.st46{fill:none;stroke:#000000;stroke-width:14.7375;stroke-linecap:round;stroke-linejoin:round;stroke-miterlimit:10;}
	.st47{stroke:#000000;stroke-width:14.7375;stroke-linecap:round;stroke-linejoin:round;stroke-miterlimit:10;}
	.st48{fill:#FFFFFF;stroke:#000000;stroke-width:14.2911;stroke-linecap:round;stroke-linejoin:round;stroke-miterlimit:10;}
	.st49{fill:none;stroke:#000000;stroke-width:15;stroke-linecap:round;stroke-linejoin:round;stroke-miterlimit:10;}
	.st50{fill:#FFFFFF;stroke:#000000;stroke-width:15;stroke-linecap:round;stroke-linejoin:round;stroke-miterlimit:10;}
	.st51{fill:#FFFFFF;stroke:#000000;stroke-width:14.8467;stroke-linecap:round;stroke-linejoin:round;stroke-miterlimit:10;}
	.st52{stroke:#000000;stroke-width:20.1683;stroke-linecap:round;stroke-miterlimit:10;}
	.st53{fill:none;stroke:#000000;stroke-width:14.8467;stroke-linecap:round;stroke-linejoin:round;stroke-miterlimit:10;}
	.st54{fill:none;stroke:#000000;stroke-width:13.497;stroke-miterlimit:10;}
	.st55{fill:#FFFFFF;stroke:#000000;stroke-width:13.497;stroke-miterlimit:10;}
	.st56{fill:#FFFFFF;stroke:#000000;stroke-width:14.7439;stroke-linecap:round;stroke-miterlimit:10;}
	.st57{fill:#FFFFFF;stroke:#000000;stroke-width:14.7439;stroke-miterlimit:10;}
	.st58{stroke:#000000;stroke-width:13.9262;stroke-linecap:round;stroke-miterlimit:10;}
	.st59{fill:#FFFFFF;stroke:#000000;stroke-width:17.1072;stroke-linecap:round;stroke-linejoin:round;stroke-miterlimit:10;}
	.st60{stroke:#000000;stroke-width:17.1072;stroke-linecap:round;stroke-linejoin:round;stroke-miterlimit:10;}
	.st61{fill:#FFFFFF;stroke:#000000;stroke-width:15;stroke-linecap:square;stroke-linejoin:round;stroke-miterlimit:10;}
	.st62{fill:#FFFFFF;stroke:#000000;stroke-width:15;stroke-linejoin:round;stroke-miterlimit:10;}
	.st63{fill:#FFFFFF;stroke:#000000;stroke-width:14;stroke-linecap:round;stroke-linejoin:round;stroke-miterlimit:10;}
	.st64{fill:#FFFFFF;stroke:#000000;stroke-width:13;stroke-linecap:round;stroke-linejoin:round;stroke-miterlimit:10;}
	.st65{fill:#FFFFFF;stroke:#000000;stroke-width:15.2362;stroke-linecap:round;stroke-linejoin:round;stroke-miterlimit:10;}
	.st66{fill:#FFFFFF;stroke:#FFFFFF;stroke-width:3;stroke-miterlimit:10;}
	.st67{fill:#FFFFFF;stroke:#000000;stroke-width:13.3058;stroke-linecap:round;stroke-linejoin:round;stroke-miterlimit:10;}
	.st68{fill:#FFFFFF;stroke:#000000;stroke-width:15.2517;stroke-linecap:round;stroke-linejoin:round;stroke-miterlimit:10;}
	.st69{stroke:#000000;stroke-width:3;stroke-miterlimit:10;}
</style>
<g id="unexpanded" class="st0">
	<rect x="-2754.75" y="-2593.56" class="st1" width="14663.41" height="9108.82"/>
	<rect x="1.38" class="st1" width="792" height="1224"/>
	<g class="st2">
		<text transform="matrix(1 0 0 1 30.9541 190.4411)" class="st31 st32">The Time Is</text>
		<text transform="matrix(1 0 0 1 11.6204 471.5801)" class="st31 st33">NOW</text>
	</g>
	<g class="st2">
		<g>
			<text transform="matrix(1 0 0 1 258.9681 23.554)"><tspan x="0" y="0" class="st31 st34">www</tspan><tspan x="45.14" y="0" class="st31 st35"> </tspan><tspan x="46.99" y="0" class="st31 st34">.</tspan><tspan x="51.77" y="0" class="st31 st35"> </tspan><tspan x="53.63" y="0" class="st31 st34">Capitalism</tspan><tspan x="150.43" y="0" class="st31 st36"> </tspan><tspan x="153.9" y="0" class="st31 st34">Is</tspan><tspan x="168.88" y="0" class="st31 st36"> </tspan><tspan x="172.34" y="0" class="st31 st34">A</tspan><tspan x="186.6" y="0" class="st31 st35"> </tspan><tspan x="188.46" y="0" class="st31 st34">Virus</tspan><tspan x="236.15" y="0" class="st31 st35"> </tspan><tspan x="238.01" y="0" class="st31 st34">.</tspan><tspan x="242.79" y="0" class="st31 st35"> </tspan><tspan x="244.64" y="0" class="st31 st34">org</tspan></text>
		</g>
		<g>
			<text transform="matrix(1 0 0 1 299.1799 596.9929)"><tspan x="0" y="0" class="st31 st34">#</tspan><tspan x="12.7" y="0" class="st31 st37"> </tspan><tspan x="14.5" y="0" class="st31 st34">Capitalism</tspan><tspan x="111.3" y="0" class="st31 st37"> </tspan><tspan x="113.1" y="0" class="st31 st34">Is</tspan><tspan x="128.09" y="0" class="st31 st37"> </tspan><tspan x="129.89" y="0" class="st31 st34">A</tspan><tspan x="144.15" y="0" class="st31 st37"> </tspan><tspan x="145.95" y="0" class="st31 st34">Virus</tspan></text>
		</g>
	</g>
</g>
<g id="exp_trnsp_bg">
	<rect x="1.5" class="st5" width="792" height="1224"/>
	<g>
	</g>
	<polygon points="65.58,190.44 89.86,190.44 89.86,120.05 121.32,120.05 121.32,99.93 34.55,99.93 34.55,120.05 65.58,120.05 	"/>
	<path d="M154.5,158.98c0-9.63,3.16-15.95,11.06-15.95c7.04,0,9.48,4.6,9.48,13.36v34.05h23.27v-40.23
		c0-13.36-5.6-25.57-23.13-25.57c-9.62,0-17.24,4.31-20.69,11.35V99.93h-23.27v90.51h23.27V158.98z"/>
	<path d="M241.99,192.17c16.95,0,28.73-8.19,32.04-22.84l-18.68-1.72c-2.15,5.03-6.18,7.18-12.5,7.18
		c-7.04,0-12.79-3.74-13.36-11.64h44.97v-6.46c0-17.38-11.35-32.04-32.75-32.04c-19.97,0-34.91,14.51-34.91,34.77
		C206.79,179.81,221.44,192.17,241.99,192.17z M241.41,141.31c6.9,0,10.63,4.88,10.92,10.63h-22.55
		C230.64,145.91,233.94,141.31,241.41,141.31z"/>
	<polygon points="307.06,120.05 338.09,120.05 338.09,190.44 362.37,190.44 362.37,120.05 393.83,120.05 393.83,99.93 307.06,99.93 
			"/>
	<rect x="403.6" y="99.93" width="23.56" height="20.4"/>
	<rect x="403.74" y="126.37" width="23.27" height="64.07"/>
	<path d="M462.93,126.37h-23.27v64.07h23.27v-31.46c0-9.63,2.73-15.95,10.34-15.95c7.04,0,8.76,4.6,8.76,13.36v34.05h23.27v-31.46
		c0-9.63,2.59-15.95,10.34-15.95c7.04,0,8.62,4.6,8.62,13.36v34.05h23.27v-40.23c0-13.36-5.17-25.57-22.84-25.57
		c-10.78,0-18.39,5.46-21.84,12.64c-2.73-7.47-8.62-12.64-19.97-12.64c-9.63,0-16.52,4.31-19.97,11.35V126.37z"/>
	<path d="M591.22,192.17c16.95,0,28.73-8.19,32.04-22.84l-18.68-1.72c-2.15,5.03-6.18,7.18-12.5,7.18
		c-7.04,0-12.79-3.74-13.36-11.64h44.97v-6.46c0-17.38-11.35-32.04-32.75-32.04c-19.97,0-34.91,14.51-34.91,34.77
		C556.02,179.81,570.67,192.17,591.22,192.17z M590.64,141.31c6.9,0,10.63,4.88,10.92,10.63h-22.55
		C579.87,145.91,583.17,141.31,590.64,141.31z"/>
	<rect x="659.59" y="99.93" width="24.42" height="90.51"/>
	<path d="M725.1,177.66c-7.04,0-11.35-3.02-12.21-8.33l-20.26,0.29c1.29,15.52,14.51,22.56,32.18,22.56
		c18.25,0,29.74-7.76,29.74-21.26c0-12.5-8.33-18.96-22.7-21.26l-12.5-2.15c-2.16-0.29-3.88-1.44-3.88-3.59
		c0-2.87,2.59-4.6,7.04-4.6c7.18,0,11.21,2.87,12.07,7.47l19.11-0.57c-1.29-13.36-12.21-21.55-30.74-21.55
		c-17.96,0-29.02,9.05-29.02,21.69c0,13.07,8.19,18.1,23.7,20.54l9.48,1.44c4.45,0.72,5.89,2.44,5.89,4.88
		C733,175.79,730.27,177.66,725.1,177.66z"/>
	<polygon points="83.09,344.03 176.1,471.58 222.6,471.58 222.6,256.15 169.26,256.15 169.26,375.49 85.14,256.15 29.74,256.15 
		29.74,471.58 83.09,471.58 	"/>
	<path d="M469.48,363.87c0-66.34-49.24-111.82-111.82-111.82c-62.58,0-111.82,45.48-111.82,111.82
		c0,66.34,49.24,111.82,111.82,111.82C420.24,475.68,469.48,430.2,469.48,363.87z M305.69,363.87c0-36.59,20.17-60.53,51.98-60.53
		c31.8,0,51.98,23.94,51.98,60.53c0,36.59-20.17,60.52-51.98,60.52C325.86,424.39,305.69,400.45,305.69,363.87z"/>
	<polygon points="566.59,391.22 565.22,391.22 531.02,256.15 472.89,256.15 529.31,471.58 590.18,471.58 626.08,335.48 
		627.45,335.48 663.36,471.58 725.25,471.58 781.67,256.15 725.59,256.15 691.4,391.22 690.03,391.22 654.47,256.15 602.15,256.15 	
		"/>
	<polygon points="265.16,23.55 266.5,18.36 266.58,18.36 267.92,23.55 271.2,23.55 274.07,14.5 276.93,23.55 280.21,23.55 
		281.55,18.36 281.63,18.36 282.97,23.55 286.25,23.55 289.11,14.5 291.98,23.55 295.25,23.55 296.59,18.36 296.68,18.36 
		298.02,23.55 301.29,23.55 304.2,14.36 301.19,14.36 299.54,19.58 299.46,19.58 298.12,14.36 295.46,14.36 294.12,19.58 
		294.04,19.58 292.39,14.36 289.16,14.36 289.07,14.36 286.15,14.36 284.5,19.58 284.41,19.58 283.07,14.36 280.41,14.36 
		279.07,19.58 278.99,19.58 277.34,14.36 274.11,14.36 274.02,14.36 271.1,14.36 269.45,19.58 269.37,19.58 268.03,14.36 
		265.37,14.36 264.03,19.58 263.95,19.58 262.3,14.36 258.98,14.36 261.88,23.55 	"/>
	<rect x="306.63" y="20.01" width="3.55" height="3.55"/>
	<path d="M319.72,23.8c3.98,0,6.1-2.52,6.35-5.75l-3.36-0.14c-0.21,1.44-0.99,2.78-3.01,2.78c-1.92,0-3.03-1.42-3.03-3.63
		s1.11-3.63,3.03-3.63c2.02,0,2.8,1.34,3.01,2.78l3.36-0.12c-0.25-3.24-2.37-5.77-6.35-5.77c-3.79,0-6.66,2.74-6.66,6.74
		S315.93,23.8,319.72,23.8z"/>
	<path d="M330.08,18.38c-2,0.35-3.28,1.11-3.28,2.89c0,1.57,1.18,2.49,2.97,2.49c1.46,0,2.51-0.56,3.05-1.63
		c0.31,1.05,1.2,1.63,2.33,1.63c0.95,0,1.61-0.27,2.08-0.6v-1.77c-0.27,0.1-0.47,0.14-0.74,0.14c-0.35,0-0.56-0.21-0.56-0.68v-3.13
		c0-2.56-1.79-3.61-4.23-3.61c-2.76,0-4.27,1.4-4.56,3.42l3.09,0.21c0.14-0.68,0.52-1.15,1.26-1.15c0.8,0,1.15,0.45,1.15,1.22v0.14
		L330.08,18.38z M332.66,19.72c0,1.2-0.76,1.9-1.71,1.9c-0.56,0-0.93-0.31-0.93-0.78c0-0.6,0.47-0.85,1.28-1.01l1.36-0.25V19.72z"/>
	<path d="M341.54,21.99c0.45,1.07,1.48,1.81,3.03,1.81c2.7,0,4.08-2.12,4.08-4.84c0-2.7-1.38-4.84-4.08-4.84
		c-1.55,0-2.58,0.74-3.03,1.83v-1.59h-3.34v12.49h3.34V21.99z M341.54,18.9c0-1.32,0.72-2.19,1.85-2.19c1.3,0,1.9,0.93,1.9,2.25
		c0,1.34-0.6,2.27-1.9,2.27c-1.13,0-1.85-0.87-1.85-2.21V18.9z"/>
	<rect x="349.97" y="14.36" width="3.34" height="9.19"/>
	<rect x="349.95" y="10.57" width="3.38" height="2.93"/>
	<path d="M355.46,21c0,2.16,1.46,2.8,3.01,2.8c1.26,0,2.06-0.31,2.76-0.82v-2.16c-0.56,0.23-1.01,0.31-1.42,0.31
		c-0.68,0-1.05-0.31-1.05-1.09v-3.36h2.39v-2.31h-2.39v-2.54h-2.1l-0.31,1.2c-0.23,0.85-0.52,1.34-1.44,1.48l-0.68,0.1v2.06h1.24V21
		z"/>
	<path d="M365.25,18.38c-2,0.35-3.28,1.11-3.28,2.89c0,1.57,1.17,2.49,2.97,2.49c1.46,0,2.51-0.56,3.05-1.63
		c0.31,1.05,1.2,1.63,2.33,1.63c0.95,0,1.61-0.27,2.08-0.6v-1.77c-0.27,0.1-0.47,0.14-0.74,0.14c-0.35,0-0.56-0.21-0.56-0.68v-3.13
		c0-2.56-1.79-3.61-4.23-3.61c-2.76,0-4.27,1.4-4.56,3.42l3.09,0.21c0.14-0.68,0.52-1.15,1.26-1.15c0.8,0,1.15,0.45,1.15,1.22v0.14
		L365.25,18.38z M367.82,19.72c0,1.2-0.76,1.9-1.71,1.9c-0.56,0-0.93-0.31-0.93-0.78c0-0.6,0.47-0.85,1.28-1.01l1.36-0.25V19.72z"/>
	<rect x="373.37" y="10.57" width="3.34" height="12.99"/>
	<rect x="378.52" y="14.36" width="3.34" height="9.19"/>
	<rect x="378.5" y="10.57" width="3.38" height="2.93"/>
	<path d="M387.67,21.72c-1.01,0-1.63-0.43-1.75-1.2l-2.91,0.04c0.19,2.23,2.08,3.24,4.62,3.24c2.62,0,4.27-1.11,4.27-3.05
		c0-1.79-1.2-2.72-3.26-3.05l-1.79-0.31c-0.31-0.04-0.56-0.21-0.56-0.52c0-0.41,0.37-0.66,1.01-0.66c1.03,0,1.61,0.41,1.73,1.07
		l2.74-0.08c-0.19-1.92-1.75-3.09-4.41-3.09c-2.58,0-4.16,1.3-4.16,3.11c0,1.88,1.17,2.6,3.4,2.95l1.36,0.21
		c0.64,0.1,0.85,0.35,0.85,0.7C388.8,21.45,388.41,21.72,387.67,21.72z"/>
	<path d="M396.51,19.04c0-1.38,0.39-2.29,1.48-2.29c1.01,0,1.26,0.66,1.26,1.92v4.89h3.34v-4.51c0-1.38,0.37-2.29,1.48-2.29
		c1.01,0,1.24,0.66,1.24,1.92v4.89h3.34v-5.77c0-1.92-0.74-3.67-3.28-3.67c-1.55,0-2.64,0.78-3.13,1.81
		c-0.39-1.07-1.24-1.81-2.87-1.81c-1.38,0-2.37,0.62-2.87,1.63v-1.38h-3.34v9.19h3.34V19.04z"/>
	<rect x="413.91" y="10.57" width="3.5" height="12.99"/>
	<path d="M423.3,21.72c-1.01,0-1.63-0.43-1.75-1.2l-2.91,0.04c0.19,2.23,2.08,3.24,4.62,3.24c2.62,0,4.27-1.11,4.27-3.05
		c0-1.79-1.2-2.72-3.26-3.05l-1.79-0.31c-0.31-0.04-0.56-0.21-0.56-0.52c0-0.41,0.37-0.66,1.01-0.66c1.03,0,1.61,0.41,1.73,1.07
		l2.74-0.08c-0.19-1.92-1.75-3.09-4.41-3.09c-2.58,0-4.16,1.3-4.16,3.11c0,1.88,1.17,2.6,3.4,2.95l1.36,0.21
		c0.64,0.1,0.84,0.35,0.84,0.7C424.44,21.45,424.05,21.72,423.3,21.72z"/>
	<path d="M435.86,21.04h5.07l0.97,2.52h3.73l-5.17-12.99h-3.92l-5.17,12.99h3.53L435.86,21.04z M438.35,14.59h0.08l1.48,3.83h-3.05
		L438.35,14.59z"/>
	<polygon points="456.16,23.55 461.15,10.57 457.66,10.57 454.45,19.2 454.36,19.2 451.15,10.57 447.48,10.57 452.47,23.55 	"/>
	<rect x="462.05" y="14.36" width="3.34" height="9.19"/>
	<rect x="462.03" y="10.57" width="3.38" height="2.93"/>
	<path d="M470.54,19.35c0-1.55,0.76-2.12,2-2.12c0.64,0,1.13,0.12,1.59,0.39l0.21-3.15c-0.23-0.19-0.72-0.35-1.28-0.35
		c-1.22,0-2.19,0.85-2.52,1.88v-1.63h-3.34v9.19h3.34V19.35z"/>
	<path d="M478.54,23.8c1.38,0,2.39-0.6,2.89-1.63v1.38h3.34v-9.19h-3.34v4.51c0,1.4-0.41,2.31-1.46,2.31
		c-1.01,0-1.36-0.68-1.36-1.92v-4.91h-3.34v5.79C475.26,22.07,476.02,23.8,478.54,23.8z"/>
	<path d="M490.58,21.72c-1.01,0-1.63-0.43-1.75-1.2l-2.91,0.04c0.19,2.23,2.08,3.24,4.62,3.24c2.62,0,4.27-1.11,4.27-3.05
		c0-1.79-1.2-2.72-3.26-3.05l-1.79-0.31c-0.31-0.04-0.56-0.21-0.56-0.52c0-0.41,0.37-0.66,1.01-0.66c1.03,0,1.61,0.41,1.73,1.07
		l2.74-0.08c-0.19-1.92-1.75-3.09-4.41-3.09c-2.58,0-4.16,1.3-4.16,3.11c0,1.88,1.18,2.6,3.4,2.95l1.36,0.21
		c0.64,0.1,0.84,0.35,0.84,0.7C491.71,21.45,491.32,21.72,490.58,21.72z"/>
	<rect x="497.64" y="20.01" width="3.55" height="3.55"/>
	<path d="M509.1,23.8c2.99,0,5.03-1.98,5.03-4.84c0-2.84-2.04-4.84-5.03-4.84c-3.01,0-5.03,2-5.03,4.84
		C504.08,21.82,506.1,23.8,509.1,23.8z M509.1,16.63c1.15,0,1.67,0.95,1.67,2.33c0,1.38-0.52,2.33-1.67,2.33
		c-1.18,0-1.67-0.95-1.67-2.33C507.44,17.58,507.93,16.63,509.1,16.63z"/>
	<path d="M518.79,19.35c0-1.55,0.76-2.12,2-2.12c0.64,0,1.13,0.12,1.59,0.39l0.21-3.15c-0.23-0.19-0.72-0.35-1.28-0.35
		c-1.22,0-2.19,0.85-2.51,1.88v-1.63h-3.34v9.19h3.34V19.35z"/>
	<path d="M522.6,24.85c0,1.73,2.27,2.25,4.89,2.25c2.99,0,5.77-1.05,5.77-3.34c0-1.55-1.05-2.64-3.13-2.64h-3.81
		c-0.56,0-0.78-0.25-0.78-0.56c0-0.19,0.06-0.33,0.19-0.43c0.6,0.19,1.26,0.27,2,0.27c2.6,0,4.47-1.2,4.47-3.13
		c0-0.43-0.1-0.82-0.29-1.17c0.45-0.1,0.95-0.14,1.34-0.14v-2.51c-1.01,0-2.02,0.66-2.58,1.42c-0.78-0.47-1.83-0.74-2.95-0.74
		c-2.58,0-4.43,1.2-4.43,3.15c0,1.01,0.5,1.79,1.32,2.33c-0.99,0.37-1.57,1.05-1.57,1.94c0,0.78,0.49,1.53,1.32,1.79
		C523.33,23.41,522.6,24.05,522.6,24.85z M527.76,15.95c0.56,0,0.97,0.52,0.97,1.32c0,0.82-0.41,1.34-0.97,1.34
		s-0.97-0.52-0.97-1.34C526.79,16.46,527.2,15.95,527.76,15.95z M525.96,23.97h3.38c0.56,0,0.85,0.14,0.85,0.54
		c0,0.56-1.13,0.87-2.68,0.87c-1.24,0-2.16-0.19-2.16-0.84C525.35,24.17,525.59,23.97,525.96,23.97z"/>
	<path d="M311.03,589.49l0.43-2.06h-1.83l0.82-3.42h-2.49l-0.82,3.42h-1.77l0.82-3.42h-2.49l-0.82,3.42h-2.02l-0.43,2.06h1.98
		l-0.49,2.02h-1.88l-0.43,2.06h1.81l-0.8,3.42h2.49l0.8-3.42h1.77l-0.8,3.42h2.49l0.8-3.42h2.04l0.43-2.06h-1.98l0.49-2.02H311.03z
		 M306.17,591.51h-1.77l0.49-2.02h1.77L306.17,591.51z"/>
	<path d="M320.75,597.24c3.98,0,6.1-2.52,6.35-5.75l-3.36-0.14c-0.21,1.44-0.99,2.78-3.01,2.78c-1.92,0-3.03-1.42-3.03-3.63
		c0-2.21,1.11-3.63,3.03-3.63c2.02,0,2.8,1.34,3.01,2.78l3.36-0.12c-0.25-3.24-2.37-5.77-6.35-5.77c-3.79,0-6.66,2.74-6.66,6.74
		C314.09,594.5,316.95,597.24,320.75,597.24z"/>
	<path d="M331.11,591.82c-2,0.35-3.28,1.11-3.28,2.89c0,1.57,1.18,2.49,2.97,2.49c1.46,0,2.51-0.56,3.05-1.63
		c0.31,1.05,1.2,1.63,2.33,1.63c0.95,0,1.61-0.27,2.08-0.6v-1.77c-0.27,0.1-0.47,0.14-0.74,0.14c-0.35,0-0.56-0.21-0.56-0.68v-3.13
		c0-2.56-1.79-3.61-4.23-3.61c-2.76,0-4.27,1.4-4.56,3.42l3.09,0.21c0.14-0.68,0.52-1.15,1.26-1.15c0.8,0,1.15,0.45,1.15,1.22v0.14
		L331.11,591.82z M333.69,593.16c0,1.2-0.76,1.9-1.71,1.9c-0.56,0-0.93-0.31-0.93-0.78c0-0.6,0.47-0.85,1.28-1.01l1.36-0.25V593.16z
		"/>
	<path d="M339.23,587.8v12.49h3.34v-4.86c0.45,1.07,1.48,1.81,3.03,1.81c2.7,0,4.08-2.12,4.08-4.84c0-2.7-1.38-4.84-4.08-4.84
		c-1.55,0-2.58,0.74-3.03,1.83v-1.59H339.23z M344.43,590.15c1.3,0,1.9,0.93,1.9,2.25c0,1.34-0.6,2.27-1.9,2.27
		c-1.13,0-1.86-0.87-1.86-2.21v-0.12C342.57,591.02,343.29,590.15,344.43,590.15z"/>
	<rect x="351" y="587.8" width="3.34" height="9.19"/>
	<rect x="350.98" y="584.01" width="3.38" height="2.93"/>
	<path d="M359.49,597.24c1.26,0,2.06-0.31,2.76-0.82v-2.16c-0.56,0.23-1.01,0.31-1.42,0.31c-0.68,0-1.05-0.31-1.05-1.09v-3.36h2.39
		v-2.31h-2.39v-2.54h-2.1l-0.31,1.2c-0.23,0.85-0.52,1.34-1.44,1.48l-0.68,0.1v2.06h1.24v4.33
		C356.48,596.6,357.95,597.24,359.49,597.24z"/>
	<path d="M366.27,591.82c-2,0.35-3.28,1.11-3.28,2.89c0,1.57,1.17,2.49,2.97,2.49c1.46,0,2.51-0.56,3.05-1.63
		c0.31,1.05,1.2,1.63,2.33,1.63c0.95,0,1.61-0.27,2.08-0.6v-1.77c-0.27,0.1-0.47,0.14-0.74,0.14c-0.35,0-0.56-0.21-0.56-0.68v-3.13
		c0-2.56-1.79-3.61-4.23-3.61c-2.76,0-4.27,1.4-4.56,3.42l3.09,0.21c0.14-0.68,0.52-1.15,1.26-1.15c0.8,0,1.15,0.45,1.15,1.22v0.14
		L366.27,591.82z M368.85,593.16c0,1.2-0.76,1.9-1.71,1.9c-0.56,0-0.93-0.31-0.93-0.78c0-0.6,0.47-0.85,1.28-1.01l1.36-0.25V593.16z
		"/>
	<rect x="374.39" y="584.01" width="3.34" height="12.99"/>
	<rect x="379.55" y="587.8" width="3.34" height="9.19"/>
	<rect x="379.53" y="584.01" width="3.38" height="2.93"/>
	<path d="M388.7,595.16c-1.01,0-1.63-0.43-1.75-1.2l-2.91,0.04c0.19,2.23,2.08,3.24,4.62,3.24c2.62,0,4.27-1.11,4.27-3.05
		c0-1.79-1.2-2.72-3.26-3.05l-1.79-0.31c-0.31-0.04-0.56-0.21-0.56-0.52c0-0.41,0.37-0.66,1.01-0.66c1.03,0,1.61,0.41,1.73,1.07
		l2.74-0.08c-0.19-1.92-1.75-3.09-4.41-3.09c-2.58,0-4.16,1.3-4.16,3.11c0,1.88,1.17,2.6,3.4,2.95l1.36,0.21
		c0.64,0.1,0.85,0.35,0.85,0.7C389.83,594.89,389.44,595.16,388.7,595.16z"/>
	<path d="M409.68,596.99v-5.77c0-1.92-0.74-3.67-3.28-3.67c-1.55,0-2.64,0.78-3.13,1.81c-0.39-1.07-1.24-1.81-2.87-1.81
		c-1.38,0-2.37,0.62-2.87,1.63v-1.38h-3.34v9.19h3.34v-4.51c0-1.38,0.39-2.29,1.48-2.29c1.01,0,1.26,0.66,1.26,1.92v4.89h3.34v-4.51
		c0-1.38,0.37-2.29,1.48-2.29c1.01,0,1.24,0.66,1.24,1.92v4.89H409.68z"/>
	<rect x="413.27" y="584.01" width="3.5" height="12.99"/>
	<path d="M422.67,595.16c-1.01,0-1.63-0.43-1.75-1.2l-2.91,0.04c0.19,2.23,2.08,3.24,4.62,3.24c2.62,0,4.27-1.11,4.27-3.05
		c0-1.79-1.2-2.72-3.26-3.05l-1.79-0.31c-0.31-0.04-0.56-0.21-0.56-0.52c0-0.41,0.37-0.66,1.01-0.66c1.03,0,1.61,0.41,1.73,1.07
		l2.74-0.08c-0.19-1.92-1.75-3.09-4.41-3.09c-2.58,0-4.16,1.3-4.16,3.11c0,1.88,1.17,2.6,3.4,2.95l1.36,0.21
		c0.64,0.1,0.85,0.35,0.85,0.7C423.8,594.89,423.41,595.16,422.67,595.16z"/>
	<path d="M429.07,596.99h3.53l0.97-2.51h5.07l0.97,2.51h3.73l-5.17-12.99h-3.92L429.07,596.99z M436.05,588.03h0.08l1.48,3.83h-3.05
		L436.05,588.03z"/>
	<polygon points="452.01,592.64 448.8,584.01 445.13,584.01 450.12,596.99 453.81,596.99 458.8,584.01 455.31,584.01 452.1,592.64 	
		"/>
	<rect x="459.7" y="587.8" width="3.34" height="9.19"/>
	<rect x="459.68" y="584.01" width="3.38" height="2.93"/>
	<path d="M464.85,587.8v9.19h3.34v-4.21c0-1.55,0.76-2.12,2-2.12c0.64,0,1.13,0.12,1.59,0.39l0.21-3.15
		c-0.23-0.19-0.72-0.35-1.28-0.35c-1.22,0-2.19,0.85-2.52,1.88v-1.63H464.85z"/>
	<path d="M472.91,587.8v5.79c0,1.92,0.76,3.65,3.28,3.65c1.38,0,2.39-0.6,2.89-1.63v1.38h3.34v-9.19h-3.34v4.51
		c0,1.4-0.41,2.31-1.46,2.31c-1.01,0-1.36-0.68-1.36-1.92v-4.91H472.91z"/>
	<path d="M488.22,595.16c-1.01,0-1.63-0.43-1.75-1.2l-2.91,0.04c0.19,2.23,2.08,3.24,4.62,3.24c2.62,0,4.27-1.11,4.27-3.05
		c0-1.79-1.2-2.72-3.26-3.05l-1.79-0.31c-0.31-0.04-0.56-0.21-0.56-0.52c0-0.41,0.37-0.66,1.01-0.66c1.03,0,1.61,0.41,1.73,1.07
		l2.74-0.08c-0.19-1.92-1.75-3.09-4.41-3.09c-2.58,0-4.16,1.3-4.16,3.11c0,1.88,1.18,2.6,3.4,2.95l1.36,0.21
		c0.64,0.1,0.84,0.35,0.84,0.7C489.36,594.89,488.97,595.16,488.22,595.16z"/>
</g>
<g id="exp_white_bg" class="st0">
	<rect x="1.5" class="st1" width="792" height="1224"/>
	<g class="st2">
		<path class="st5" d="M527.51,25.37c1.55,0,2.68-0.31,2.68-0.87c0-0.39-0.29-0.54-0.85-0.54h-3.38c-0.37,0-0.62,0.21-0.62,0.56
			C525.35,25.18,526.27,25.37,527.51,25.37z"/>
		<path class="st5" d="M527.76,18.61c0.56,0,0.97-0.52,0.97-1.34c0-0.8-0.41-1.32-0.97-1.32s-0.97,0.52-0.97,1.32
			C526.79,18.09,527.2,18.61,527.76,18.61z"/>
		<path class="st5" d="M509.1,21.29c1.15,0,1.67-0.95,1.67-2.33c0-1.38-0.52-2.33-1.67-2.33c-1.18,0-1.67,0.95-1.67,2.33
			C507.44,20.34,507.93,21.29,509.1,21.29z"/>
		<polygon class="st5" points="438.43,14.59 438.35,14.59 436.87,18.42 439.92,18.42 		"/>
		<path class="st5" d="M331.05,594.27c0,0.47,0.37,0.78,0.93,0.78c0.95,0,1.71-0.7,1.71-1.9v-0.14l-1.36,0.25
			C331.53,593.43,331.05,593.67,331.05,594.27z"/>
		<path class="st5" d="M590.64,141.31c-7.47,0-10.78,4.6-11.64,10.63h22.55C601.27,146.19,597.54,141.31,590.64,141.31z"/>
		<polygon class="st5" points="436.14,588.03 436.05,588.03 434.57,591.86 437.62,591.86 		"/>
		<polygon class="st5" points="304.4,591.51 306.17,591.51 306.66,589.49 304.89,589.49 		"/>
		<path class="st5" d="M409.64,363.87c0-36.59-20.17-60.53-51.98-60.53c-31.8,0-51.98,23.94-51.98,60.53
			c0,36.59,20.17,60.52,51.98,60.52C389.46,424.39,409.64,400.45,409.64,363.87z"/>
		<path class="st5" d="M366.21,594.27c0,0.47,0.37,0.78,0.93,0.78c0.95,0,1.71-0.7,1.71-1.9v-0.14l-1.36,0.25
			C366.69,593.43,366.21,593.67,366.21,594.27z"/>
		<path class="st5" d="M365.18,20.83c0,0.47,0.37,0.78,0.93,0.78c0.95,0,1.71-0.7,1.71-1.9v-0.14l-1.36,0.25
			C365.66,19.99,365.18,20.24,365.18,20.83z"/>
		<path class="st5" d="M342.57,592.46c0,1.34,0.72,2.21,1.86,2.21c1.3,0,1.9-0.93,1.9-2.27c0-1.32-0.6-2.25-1.9-2.25
			c-1.13,0-1.86,0.87-1.86,2.19V592.46z"/>
		<path class="st5" d="M343.4,21.22c1.3,0,1.9-0.93,1.9-2.27c0-1.32-0.6-2.25-1.9-2.25c-1.13,0-1.85,0.87-1.85,2.19v0.12
			C341.54,20.36,342.27,21.22,343.4,21.22z"/>
		<path class="st5" d="M1.38,1224h792V0h-792V1224z M544.62,1084.61c-0.87,2.56-2.17,4.73-3.9,6.51
			c-5.93,14.35-15.34,24.72-24.38,31.95l2.87,10.85l-4.5,1.19l-4.5,1.19l-1.97-7.43c-1.95,1.24-3.8,2.32-5.54,3.27l-36.68,47.68
			c-5.59,9.01-11.42,18.46-16.86,27.37c-0.94,1.54-2.58,2.39-4.26,2.39c-0.52,0-1.05-0.09-1.56-0.26l-7.18,9.33
			c1.91-3.12,3.94-6.43,6.05-9.87c-2.27-1.46-2.98-4.47-1.57-6.79c19.74-32.32,44.56-71.64,44.8-72.03
			c0.62-0.98,1.56-1.71,2.65-2.07c0.15-0.05,8.05-2.77,17.42-9.28l-3.71-14.02c-1.3,0.26-2.62,0.52-3.98,0.79l-3.22,0.64
			c-1.04,0.21-2.08,0.31-3.12,0.31c-1.66,0-3.29-0.26-4.83-0.78c-7.88-2.67-12.12-11.25-9.45-19.13c0.32-0.95,0.76-1.84,1.25-2.69
			c-5.22-3.09-8.28-8.84-8.01-14.84c-0.23,0.46-0.38,0.75-0.43,0.83c-1.35,2.4-4.39,3.25-6.79,1.9c-0.36-0.2-0.67-0.45-0.96-0.72
			l-96.97,103.38c-12.32,14.77-23.57,28.56-29.8,36.98c-0.98,1.32-2.49,2.02-4.01,2.02c-1.03,0-2.07-0.32-2.96-0.98
			c-2.21-1.64-2.68-4.76-1.04-6.98c17.68-23.9,73.01-87.96,84.05-100.72c-3.19-11.66-5.09-38.19,0.69-57.14
			c6.15-20.14,20.94-47.18,26.61-54.17c5.25-6.47,17.18-11.79,26.77-16.06c0.76-0.34,1.51-0.67,2.23-1l-6.72-25.39
			c-24.26,21.47-54.27,20.17-83.35,18.9c-30.43-1.33-59.17-2.59-81.17,21.16c-0.96,1.03-2.29,1.6-3.67,1.6c-0.4,0-0.8-0.05-1.2-0.15
			c-1.77-0.44-3.16-1.8-3.63-3.56l-31.86-119.08c-0.44-1.66-0.01-3.43,1.16-4.69c25.15-27.15,57.58-25.73,88.95-24.35
			c30.01,1.31,58.38,2.54,80.26-20.21l-2.18-8.23l9-2.38l43.19,163.17c5.63-1.29,10.81-0.81,14.76,1.5
			c1.22,0.71,2.54,1.72,3.76,3.15c2.95-0.56,6.14-0.51,9.34,0.23c5.63,1.3,10.41,4.71,13.48,9.61c3.06,4.9,4.03,10.7,2.74,16.32
			c-0.34,1.49-0.86,2.85-1.47,4.1c0.47,0.12,0.94,0.26,1.41,0.41c4.83,1.64,8.74,5.06,10.99,9.63c2.26,4.57,2.6,9.75,0.96,14.58
			c-0.41,1.22-0.94,2.32-1.55,3.33c9.11,3.61,13.92,13.79,10.74,23.18c-0.82,2.41-2.11,4.35-3.6,5.93
			C544.28,1069.28,547.12,1077.21,544.62,1084.61z M310.64,591.51l-0.43,2.06h-2.04l-0.8,3.42h-2.49l0.8-3.42h-1.77l-0.8,3.42h-2.49
			l0.8-3.42h-1.81l0.43-2.06h1.88l0.49-2.02h-1.98l0.43-2.06h2.02l0.82-3.42h2.49l-0.82,3.42h1.77l0.82-3.42h2.49l-0.82,3.42h1.83
			l-0.43,2.06h-1.88l-0.49,2.02H310.64z M245.85,363.87c0-66.34,49.24-111.82,111.82-111.82c62.58,0,111.82,45.48,111.82,111.82
			c0,66.34-49.24,111.82-111.82,111.82C295.09,475.68,245.85,430.2,245.85,363.87z M393.83,99.93v20.11h-31.46v70.39h-24.28v-70.39
			h-31.03V99.93H393.83z M349.97,23.55v-9.19h3.34v9.19H349.97z M378.52,23.55v-9.19h3.34v9.19H378.52z M403.6,120.33v-20.4h23.56
			v20.4H403.6z M427.02,126.37v64.07h-23.27v-64.07H427.02z M470.71,587.55c0.56,0,1.05,0.17,1.28,0.35l-0.21,3.15
			c-0.45-0.27-0.95-0.39-1.59-0.39c-1.24,0-2,0.58-2,2.12v4.21h-3.34v-9.19h3.34v1.63C468.52,588.4,469.49,587.55,470.71,587.55z
			 M459.68,586.93v-2.93h3.38v2.93H459.68z M463.04,587.8v9.19h-3.34v-9.19H463.04z M458.8,584.01l-4.99,12.99h-3.69l-4.99-12.99
			h3.67l3.22,8.64h0.08l3.22-8.64H458.8z M443.33,596.99h-3.73l-0.97-2.51h-5.07l-0.97,2.51h-3.53l5.17-12.99h3.92L443.33,596.99z
			 M422.96,593.82l-1.36-0.21c-2.23-0.35-3.4-1.07-3.4-2.95c0-1.81,1.59-3.11,4.16-3.11c2.66,0,4.23,1.18,4.41,3.09l-2.74,0.08
			c-0.12-0.66-0.7-1.07-1.73-1.07c-0.64,0-1.01,0.25-1.01,0.66c0,0.31,0.25,0.47,0.56,0.52l1.79,0.31c2.06,0.33,3.26,1.26,3.26,3.05
			c0,1.94-1.65,3.05-4.27,3.05c-2.54,0-4.43-1.01-4.62-3.24l2.91-0.04c0.12,0.76,0.74,1.2,1.75,1.2c0.74,0,1.13-0.27,1.13-0.64
			C423.8,594.17,423.6,593.92,422.96,593.82z M416.78,584.01v12.99h-3.5v-12.99H416.78z M405.11,590.19c-1.11,0-1.48,0.91-1.48,2.29
			v4.51h-3.34v-4.89c0-1.26-0.25-1.92-1.26-1.92c-1.09,0-1.48,0.91-1.48,2.29v4.51h-3.34v-9.19h3.34v1.38
			c0.49-1.01,1.48-1.63,2.87-1.63c1.63,0,2.47,0.74,2.87,1.81c0.5-1.03,1.59-1.81,3.13-1.81c2.54,0,3.28,1.75,3.28,3.67v5.77h-3.34
			v-4.89C406.34,590.85,406.12,590.19,405.11,590.19z M388.99,593.82l-1.36-0.21c-2.23-0.35-3.4-1.07-3.4-2.95
			c0-1.81,1.59-3.11,4.16-3.11c2.66,0,4.23,1.18,4.41,3.09l-2.74,0.08c-0.12-0.66-0.7-1.07-1.73-1.07c-0.64,0-1.01,0.25-1.01,0.66
			c0,0.31,0.25,0.47,0.56,0.52l1.79,0.31c2.06,0.33,3.26,1.26,3.26,3.05c0,1.94-1.65,3.05-4.27,3.05c-2.54,0-4.43-1.01-4.62-3.24
			l2.91-0.04c0.12,0.76,0.74,1.2,1.75,1.2c0.74,0,1.13-0.27,1.13-0.64C389.83,594.17,389.63,593.92,388.99,593.82z M379.53,586.93
			v-2.93h3.38v2.93H379.53z M382.89,587.8v9.19h-3.34v-9.19H382.89z M377.73,584.01v12.99h-3.34v-12.99H377.73z M367.7,590.03
			c-0.74,0-1.11,0.47-1.26,1.15l-3.09-0.21c0.29-2.02,1.79-3.42,4.56-3.42c2.43,0,4.23,1.05,4.23,3.61v3.13
			c0,0.47,0.21,0.68,0.56,0.68c0.27,0,0.47-0.04,0.74-0.14v1.77c-0.47,0.33-1.13,0.6-2.08,0.6c-1.13,0-2.02-0.58-2.33-1.63
			c-0.54,1.07-1.59,1.63-3.05,1.63c-1.79,0-2.97-0.93-2.97-2.49c0-1.77,1.28-2.54,3.28-2.89l2.58-0.43v-0.14
			C368.85,590.48,368.5,590.03,367.7,590.03z M355.25,590.11v-2.06l0.68-0.1c0.93-0.14,1.22-0.64,1.44-1.48l0.31-1.2h2.1v2.54h2.39
			v2.31h-2.39v3.36c0,0.78,0.37,1.09,1.05,1.09c0.41,0,0.87-0.08,1.42-0.31v2.16c-0.7,0.52-1.5,0.82-2.76,0.82
			c-1.55,0-3.01-0.64-3.01-2.8v-4.33H355.25z M350.98,586.93v-2.93h3.38v2.93H350.98z M354.34,587.8v9.19H351v-9.19H354.34z
			 M345.6,587.55c2.7,0,4.08,2.14,4.08,4.84c0,2.72-1.38,4.84-4.08,4.84c-1.55,0-2.58-0.74-3.03-1.81v4.86h-3.34V587.8h3.34v1.59
			C343.03,588.29,344.06,587.55,345.6,587.55z M332.54,590.03c-0.74,0-1.11,0.47-1.26,1.15l-3.09-0.21
			c0.29-2.02,1.79-3.42,4.56-3.42c2.43,0,4.23,1.05,4.23,3.61v3.13c0,0.47,0.21,0.68,0.56,0.68c0.27,0,0.47-0.04,0.74-0.14v1.77
			c-0.47,0.33-1.13,0.6-2.08,0.6c-1.13,0-2.02-0.58-2.33-1.63c-0.54,1.07-1.59,1.63-3.05,1.63c-1.79,0-2.97-0.93-2.97-2.49
			c0-1.77,1.28-2.54,3.28-2.89l2.58-0.43v-0.14C333.69,590.48,333.34,590.03,332.54,590.03z M320.75,583.76
			c3.98,0,6.1,2.54,6.35,5.77l-3.36,0.12c-0.21-1.44-0.99-2.78-3.01-2.78c-1.92,0-3.03,1.42-3.03,3.63c0,2.21,1.11,3.63,3.03,3.63
			c2.02,0,2.8-1.34,3.01-2.78l3.36,0.14c-0.25,3.24-2.37,5.75-6.35,5.75c-3.79,0-6.66-2.74-6.66-6.74
			C314.09,586.5,316.95,583.76,320.75,583.76z M781.47,1083.73c-0.89,0.66-1.93,0.98-2.96,0.98c-1.53,0-3.04-0.7-4.01-2.02
			c-7.81-10.55-25.72-32.23-44.18-54.19L634.26,926.1c-0.29,0.27-0.6,0.52-0.96,0.72c-2.4,1.35-5.44,0.5-6.79-1.9
			c-0.05-0.08-0.21-0.38-0.43-0.83c0.27,6-2.79,11.75-8.01,14.84c0.49,0.85,0.93,1.74,1.25,2.69c2.67,7.88-1.57,16.46-9.45,19.13
			c-1.54,0.52-3.17,0.78-4.83,0.78c-1.04,0-2.08-0.1-3.12-0.31l-3.22-0.64c-1.37-0.27-2.69-0.53-3.98-0.79l-3.71,14.02
			c9.37,6.51,17.27,9.23,17.43,9.28c1.15,0.38,2.12,1.17,2.73,2.22c1.12,1.91,112,191.68,131.7,223.92
			c1.44,2.35,0.69,5.42-1.66,6.86c-0.81,0.5-1.71,0.73-2.6,0.73c-1.68,0-3.32-0.85-4.26-2.39
			c-13.49-22.08-69.49-117.61-104.02-176.59l-38.38-51.54c-1.18-0.68-2.41-1.42-3.67-2.23l-1.97,7.43l-4.5-1.19l-4.5-1.19
			l2.87-10.85c-9.05-7.23-18.46-17.59-24.38-31.95c-1.73-1.77-3.03-3.95-3.9-6.51c-2.51-7.4,0.34-15.34,6.44-19.61
			c-1.49-1.58-2.79-3.52-3.6-5.93c-3.18-9.39,1.63-19.56,10.74-23.18c-0.6-1.01-1.14-2.11-1.55-3.33
			c-3.38-9.97,1.99-20.83,11.96-24.21c0.47-0.16,0.94-0.29,1.41-0.41c-0.62-1.26-1.13-2.61-1.47-4.1
			c-2.68-11.62,4.59-23.25,16.21-25.93c3.2-0.74,6.4-0.79,9.34-0.23c1.22-1.43,2.54-2.45,3.76-3.15c3.96-2.3,9.13-2.79,14.76-1.5
			l4.6-17.38c-22.16-23.28-50.81-22.04-81.12-20.72c-31.18,1.37-63.42,2.78-88.32-24.1c-0.98-1.06-1.35-2.54-0.97-3.93l31.86-119.08
			c0.39-1.47,1.56-2.62,3.04-2.98c1.48-0.36,3.04,0.1,4.08,1.22c22.26,24.02,51.18,22.76,81.8,21.42c29.28-1.28,59.5-2.6,83.69,19.5
			l4.53-17.12l9,2.38L628.7,831.45c0.72,0.32,1.47,0.66,2.23,1c9.59,4.27,21.52,9.59,26.77,16.06c5.67,6.99,20.46,34.03,26.61,54.17
			c5.79,18.96,3.88,45.49,0.69,57.15c12.29,14.3,79.66,92.8,97.51,116.93C784.15,1078.97,783.68,1082.1,781.47,1083.73z
			 M477.61,594.62c1.05,0,1.46-0.91,1.46-2.31v-4.51h3.34v9.19h-3.34v-1.38c-0.49,1.03-1.5,1.63-2.89,1.63
			c-2.52,0-3.28-1.73-3.28-3.65v-5.79h3.34v4.91C476.25,593.94,476.6,594.62,477.61,594.62z M488.51,593.82l-1.36-0.21
			c-2.23-0.35-3.4-1.07-3.4-2.95c0-1.81,1.59-3.11,4.16-3.11c2.66,0,4.23,1.18,4.41,3.09l-2.74,0.08c-0.12-0.66-0.7-1.07-1.73-1.07
			c-0.64,0-1.01,0.25-1.01,0.66c0,0.31,0.25,0.47,0.56,0.52l1.79,0.31c2.06,0.33,3.26,1.26,3.26,3.05c0,1.94-1.65,3.05-4.27,3.05
			c-2.54,0-4.43-1.01-4.62-3.24l2.91-0.04c0.12,0.76,0.74,1.2,1.75,1.2c0.74,0,1.13-0.27,1.13-0.64
			C489.36,594.17,489.15,593.92,488.51,593.82z M761.93,689.01v-3.28l9.06-2.86l-9.06-2.86v-3.28l5.19-1.34v-0.08l-5.19-1.34v-3.28
			l9.06-2.86l-9.06-2.86v-3.28l5.19-1.34v-0.08l-5.19-1.34v-3.28l9.19-2.91v3.32l-5.22,1.65v0.08l5.22,1.34v2.66l-5.22,1.34v0.08
			l5.22,1.65v2.92v0.09v3.23l-5.22,1.65v0.08l5.22,1.34v2.66l-5.22,1.34v0.08l5.22,1.65v2.92v0.09v3.23l-5.22,1.65v0.08l5.22,1.34
			v2.66l-5.22,1.34v0.08l5.22,1.65v3.01l-9.19-2.91v-3.28l5.19-1.34v-0.08L761.93,689.01z M765.47,700.39v3.55h-3.55v-3.55H765.47z
			 M768.42,706.82c4,0,6.74,2.87,6.74,6.66c0,3.98-2.54,6.1-5.77,6.35l-0.12-3.36c1.44-0.21,2.78-0.99,2.78-3.01
			c0-1.92-1.42-3.03-3.63-3.03s-3.63,1.11-3.63,3.03c0,2.02,1.34,2.8,2.78,3.01l-0.14,3.36c-3.24-0.25-5.75-2.37-5.75-6.35
			C761.68,709.69,764.42,706.82,768.42,706.82z M774.92,851.42v3.48l-12.99-4.99v-3.69l12.99-4.99v3.67l-8.64,3.22v0.08
			L774.92,851.42z M774.92,855.79v3.38h-2.93v-3.38H774.92z M766.13,912.55h-4.21v-3.34h9.19v3.34h-1.63
			c1.03,0.33,1.88,1.3,1.88,2.51c0,0.56-0.17,1.05-0.35,1.28l-3.15-0.21c0.27-0.45,0.39-0.95,0.39-1.59
			C768.26,913.31,767.68,912.55,766.13,912.55z M766.53,907.89c-2.87,0-4.84-2.04-4.84-5.03c0-3.01,1.98-5.03,4.84-5.03
			c2.84,0,4.84,2.02,4.84,5.03C771.37,905.85,769.37,907.89,766.53,907.89z M761.93,894.95v-3.55h3.55v3.55H761.93z M768.28,888.44
			l-0.08-2.74c0.66-0.12,1.07-0.7,1.07-1.73c0-0.64-0.25-1.01-0.66-1.01c-0.31,0-0.47,0.25-0.52,0.56l-0.31,1.79
			c-0.33,2.06-1.26,3.26-3.05,3.26c-1.94,0-3.05-1.65-3.05-4.27c0-2.54,1.01-4.43,3.24-4.62l0.04,2.91c-0.76,0.12-1.2,0.74-1.2,1.75
			c0,0.74,0.27,1.13,0.64,1.13c0.35,0,0.6-0.21,0.7-0.84l0.21-1.36c0.35-2.23,1.07-3.4,2.95-3.4c1.81,0,3.11,1.59,3.11,4.16
			C771.37,886.69,770.2,888.25,768.28,888.44z M764.48,749.21h4.33v-1.24h2.06l0.1,0.68c0.14,0.93,0.64,1.22,1.48,1.44l1.2,0.31v2.1
			h-2.54v2.39h-2.31v-2.39h-3.36c-0.78,0-1.09,0.37-1.09,1.05c0,0.41,0.08,0.87,0.31,1.42h-2.16c-0.52-0.7-0.82-1.5-0.82-2.76
			C761.68,750.68,762.32,749.21,764.48,749.21z M761.93,747.07v-3.34h9.19v3.34H761.93z M764.09,731h-1.77
			c-0.33-0.47-0.6-1.13-0.6-2.08c0-1.13,0.58-2.02,1.63-2.33c-1.07-0.54-1.63-1.59-1.63-3.05c0-1.79,0.93-2.97,2.49-2.97
			c1.77,0,2.54,1.28,2.89,3.28l0.43,2.58h0.14c0.76,0,1.22-0.35,1.22-1.15c0-0.74-0.47-1.11-1.15-1.26l0.21-3.09
			c2.02,0.29,3.42,1.79,3.42,4.56c0,2.43-1.05,4.23-3.61,4.23h-3.13c-0.47,0-0.68,0.21-0.68,0.56
			C763.95,730.52,763.99,730.73,764.09,731z M764.09,766.16h-1.77c-0.33-0.47-0.6-1.13-0.6-2.08c0-1.13,0.58-2.02,1.63-2.33
			c-1.07-0.54-1.63-1.59-1.63-3.05c0-1.79,0.93-2.97,2.49-2.97c1.77,0,2.54,1.28,2.89,3.28l0.43,2.58h0.14
			c0.76,0,1.22-0.35,1.22-1.15c0-0.74-0.47-1.11-1.15-1.26l0.21-3.09c2.02,0.29,3.42,1.79,3.42,4.56c0,2.43-1.05,4.23-3.61,4.23
			h-3.13c-0.47,0-0.68,0.21-0.68,0.56C763.95,765.68,763.99,765.89,764.09,766.16z M761.93,772.28h9.19v3.34h-9.19V772.28z
			 M764.92,776.77l0.04,2.91c-0.76,0.12-1.2,0.74-1.2,1.75c0,0.74,0.27,1.13,0.64,1.13c0.35,0,0.6-0.21,0.7-0.85l0.21-1.36
			c0.35-2.23,1.07-3.4,2.95-3.4c1.81,0,3.11,1.59,3.11,4.16c0,2.66-1.17,4.23-3.09,4.41l-0.08-2.74c0.66-0.12,1.07-0.7,1.07-1.73
			c0-0.64-0.25-1.01-0.66-1.01c-0.31,0-0.47,0.25-0.52,0.56l-0.31,1.79c-0.33,2.06-1.26,3.26-3.05,3.26c-1.94,0-3.05-1.65-3.05-4.27
			C761.68,778.85,762.69,776.96,764.92,776.77z M771.37,799.14c0,2.54-1.75,3.28-3.67,3.28h-5.77v-3.34h4.89
			c1.26,0,1.92-0.23,1.92-1.24c0-1.11-0.91-1.48-2.29-1.48h-4.51v-3.34h4.89c1.26,0,1.92-0.25,1.92-1.26c0-1.09-0.91-1.48-2.29-1.48
			h-4.51v-3.34h9.19v3.34h-1.38c1.01,0.49,1.63,1.48,1.63,2.87c0,1.63-0.74,2.47-1.81,2.87
			C770.59,796.5,771.37,797.59,771.37,799.14z M764.4,818.2c0.35,0,0.6-0.21,0.7-0.85l0.21-1.36c0.35-2.23,1.07-3.4,2.95-3.4
			c1.81,0,3.11,1.59,3.11,4.16c0,2.66-1.17,4.23-3.09,4.41l-0.08-2.74c0.66-0.12,1.07-0.7,1.07-1.73c0-0.64-0.25-1.01-0.66-1.01
			c-0.31,0-0.47,0.25-0.52,0.56l-0.31,1.79c-0.33,2.06-1.26,3.26-3.05,3.26c-1.94,0-3.05-1.65-3.05-4.27c0-2.54,1.01-4.43,3.24-4.62
			l0.04,2.91c-0.76,0.12-1.2,0.74-1.2,1.75C763.76,817.81,764.03,818.2,764.4,818.2z M761.93,855.81h9.19v3.34h-9.19V855.81z
			 M766.61,875.19h4.51v3.34h-9.19v-3.34h1.38c-1.03-0.49-1.63-1.5-1.63-2.89c0-2.52,1.73-3.28,3.65-3.28h5.79v3.34h-4.91
			c-1.24,0-1.92,0.35-1.92,1.36C764.3,874.77,765.21,875.19,766.61,875.19z M771.02,868.1l-3.15-0.21c0.27-0.45,0.39-0.95,0.39-1.59
			c0-1.24-0.58-2-2.12-2h-4.21v-3.34h9.19v3.34h-1.63c1.03,0.33,1.88,1.3,1.88,2.52C771.37,867.37,771.21,867.87,771.02,868.1z
			 M761.93,839.39v-3.73l2.51-0.97v-5.07l-2.51-0.97v-3.53l12.99,5.17v3.92L761.93,839.39z M761.93,811.17v-3.5h12.99v3.5H761.93z
			 M771.99,775.64v-3.38h2.93v3.38H771.99z M761.93,770.46v-3.34h12.99v3.34H761.93z M771.99,747.09v-3.38h2.93v3.38H771.99z
			 M771.12,731.96v3.34h-1.59c1.09,0.45,1.83,1.48,1.83,3.03c0,2.7-2.14,4.08-4.84,4.08c-2.72,0-4.84-1.38-4.84-4.08
			c0-1.55,0.74-2.58,1.81-3.03h-4.86v-3.34H771.12z M760.63,916.36c0.8,0,1.44,0.72,1.53,1.75c0.27-0.82,1.01-1.32,1.79-1.32
			c0.89,0,1.57,0.58,1.94,1.57c0.54-0.82,1.32-1.32,2.33-1.32c1.96,0,3.15,1.86,3.15,4.43c0,1.11-0.27,2.16-0.74,2.95
			c0.76,0.56,1.42,1.57,1.42,2.58h-2.52c0-0.39-0.04-0.89-0.14-1.34c-0.35,0.19-0.74,0.29-1.18,0.29c-1.94,0-3.13-1.88-3.13-4.47
			c0-0.74,0.08-1.4,0.27-2c-0.1-0.12-0.25-0.19-0.43-0.19c-0.31,0-0.56,0.23-0.56,0.78v3.81c0,2.08-1.09,3.13-2.64,3.13
			c-2.29,0-3.34-2.78-3.34-5.77C758.38,918.63,758.9,916.36,760.63,916.36z M727.11,168.32l-9.48-1.44
			c-15.51-2.44-23.7-7.47-23.7-20.54c0-12.64,11.06-21.69,29.02-21.69c18.53,0,29.45,8.19,30.74,21.55l-19.11,0.57
			c-0.86-4.6-4.88-7.47-12.07-7.47c-4.45,0-7.04,1.72-7.04,4.6c0,2.15,1.72,3.3,3.88,3.59l12.5,2.15c14.37,2.3,22.7,8.76,22.7,21.26
			c0,13.5-11.49,21.26-29.74,21.26c-17.67,0-30.89-7.04-32.18-22.56l20.26-0.29c0.86,5.32,5.17,8.33,12.21,8.33
			c5.17,0,7.9-1.87,7.9-4.45C733,170.76,731.57,169.04,727.11,168.32z M659.59,99.93h24.42v90.51h-24.42V99.93z M690.03,391.22h1.37
			l34.19-135.07h56.08l-56.42,215.43h-61.89l-35.9-136.1h-1.37l-35.9,136.1h-60.87l-56.42-215.43h58.13l34.19,135.07h1.37
			l35.56-135.07h52.32L690.03,391.22z M590.93,124.64c21.41,0,32.75,14.65,32.75,32.04v6.46h-44.97c0.58,7.9,6.32,11.64,13.36,11.64
			c6.32,0,10.34-2.15,12.5-7.18l18.68,1.72c-3.3,14.65-15.08,22.84-32.04,22.84c-20.54,0-35.2-12.35-35.2-32.75
			C556.02,139.15,570.96,124.64,590.93,124.64z M523.04,21.53c0-0.89,0.58-1.57,1.57-1.94c-0.82-0.54-1.32-1.32-1.32-2.33
			c0-1.96,1.86-3.15,4.43-3.15c1.11,0,2.16,0.27,2.95,0.74c0.56-0.76,1.57-1.42,2.58-1.42v2.51c-0.39,0-0.89,0.04-1.34,0.14
			c0.19,0.35,0.29,0.74,0.29,1.17c0,1.94-1.88,3.13-4.47,3.13c-0.74,0-1.4-0.08-2-0.27c-0.12,0.1-0.19,0.25-0.19,0.43
			c0,0.31,0.23,0.56,0.78,0.56h3.81c2.08,0,3.13,1.09,3.13,2.64c0,2.29-2.78,3.34-5.77,3.34c-2.62,0-4.89-0.52-4.89-2.25
			c0-0.8,0.72-1.44,1.75-1.53C523.53,23.06,523.04,22.32,523.04,21.53z M515.45,14.36h3.34v1.63c0.33-1.03,1.3-1.88,2.51-1.88
			c0.56,0,1.05,0.16,1.28,0.35l-0.21,3.15c-0.45-0.27-0.95-0.39-1.59-0.39c-1.24,0-2,0.58-2,2.12v4.21h-3.34V14.36z M509.1,14.11
			c2.99,0,5.03,2,5.03,4.84c0,2.87-2.04,4.84-5.03,4.84c-3.01,0-5.03-1.98-5.03-4.84C504.08,16.11,506.1,14.11,509.1,14.11z
			 M497.64,20.01h3.55v3.55h-3.55V20.01z M490.87,20.38l-1.36-0.21c-2.23-0.35-3.4-1.07-3.4-2.95c0-1.81,1.59-3.11,4.16-3.11
			c2.66,0,4.23,1.18,4.41,3.09l-2.74,0.08c-0.12-0.66-0.7-1.07-1.73-1.07c-0.64,0-1.01,0.25-1.01,0.66c0,0.31,0.25,0.47,0.56,0.52
			l1.79,0.31c2.06,0.33,3.26,1.26,3.26,3.05c0,1.94-1.65,3.05-4.27,3.05c-2.54,0-4.43-1.01-4.62-3.24l2.91-0.04
			c0.12,0.76,0.74,1.2,1.75,1.2c0.74,0,1.13-0.27,1.13-0.64C491.71,20.73,491.5,20.48,490.87,20.38z M475.26,14.36h3.34v4.91
			c0,1.24,0.35,1.92,1.36,1.92c1.05,0,1.46-0.91,1.46-2.31v-4.51h3.34v9.19h-3.34v-1.38c-0.49,1.03-1.5,1.63-2.89,1.63
			c-2.52,0-3.28-1.73-3.28-3.65V14.36z M467.2,14.36h3.34v1.63c0.33-1.03,1.3-1.88,2.52-1.88c0.56,0,1.05,0.16,1.28,0.35l-0.21,3.15
			c-0.45-0.27-0.95-0.39-1.59-0.39c-1.24,0-2,0.58-2,2.12v4.21h-3.34V14.36z M482.9,124.64c11.35,0,17.24,5.17,19.97,12.64
			c3.45-7.18,11.06-12.64,21.84-12.64c17.67,0,22.84,12.21,22.84,25.57v40.23h-23.27v-34.05c0-8.76-1.58-13.36-8.62-13.36
			c-7.76,0-10.34,6.32-10.34,15.95v31.46h-23.27v-34.05c0-8.76-1.72-13.36-8.76-13.36c-7.61,0-10.34,6.32-10.34,15.95v31.46h-23.27
			v-64.07h23.27v9.63C466.38,128.95,473.27,124.64,482.9,124.64z M462.05,23.55v-9.19h3.34v9.19H462.05z M462.03,10.57h3.38v2.93
			h-3.38V10.57z M451.15,10.57l3.22,8.64h0.08l3.22-8.64h3.48l-4.99,12.99h-3.69l-4.99-12.99H451.15z M436.54,10.57h3.92l5.17,12.99
			h-3.73l-0.97-2.52h-5.07l-0.97,2.52h-3.53L436.54,10.57z M423.59,20.38l-1.36-0.21c-2.23-0.35-3.4-1.07-3.4-2.95
			c0-1.81,1.59-3.11,4.16-3.11c2.66,0,4.23,1.18,4.41,3.09l-2.74,0.08c-0.12-0.66-0.7-1.07-1.73-1.07c-0.64,0-1.01,0.25-1.01,0.66
			c0,0.31,0.25,0.47,0.56,0.52l1.79,0.31c2.06,0.33,3.26,1.26,3.26,3.05c0,1.94-1.65,3.05-4.27,3.05c-2.54,0-4.43-1.01-4.62-3.24
			l2.91-0.04c0.12,0.76,0.74,1.2,1.75,1.2c0.74,0,1.13-0.27,1.13-0.64C424.44,20.73,424.23,20.48,423.59,20.38z M413.91,10.57h3.5
			v12.99h-3.5V10.57z M393.17,14.36h3.34v1.38c0.49-1.01,1.48-1.63,2.87-1.63c1.63,0,2.47,0.74,2.87,1.81
			c0.5-1.03,1.59-1.81,3.13-1.81c2.54,0,3.28,1.75,3.28,3.67v5.77h-3.34v-4.89c0-1.26-0.23-1.92-1.24-1.92
			c-1.11,0-1.48,0.91-1.48,2.29v4.51h-3.34v-4.89c0-1.26-0.25-1.92-1.26-1.92c-1.09,0-1.48,0.91-1.48,2.29v4.51h-3.34V14.36z
			 M387.96,20.38l-1.36-0.21c-2.23-0.35-3.4-1.07-3.4-2.95c0-1.81,1.59-3.11,4.16-3.11c2.66,0,4.23,1.18,4.41,3.09l-2.74,0.08
			c-0.12-0.66-0.7-1.07-1.73-1.07c-0.64,0-1.01,0.25-1.01,0.66c0,0.31,0.25,0.47,0.56,0.52l1.79,0.31c2.06,0.33,3.26,1.26,3.26,3.05
			c0,1.94-1.65,3.05-4.27,3.05c-2.54,0-4.43-1.01-4.62-3.24l2.91-0.04c0.12,0.76,0.74,1.2,1.75,1.2c0.74,0,1.13-0.27,1.13-0.64
			C388.8,20.73,388.6,20.48,387.96,20.38z M378.5,10.57h3.38v2.93h-3.38V10.57z M373.37,10.57h3.34v12.99h-3.34V10.57z
			 M366.67,16.59c-0.74,0-1.11,0.47-1.26,1.15l-3.09-0.21c0.29-2.02,1.79-3.42,4.56-3.42c2.43,0,4.23,1.05,4.23,3.61v3.13
			c0,0.47,0.21,0.68,0.56,0.68c0.27,0,0.47-0.04,0.74-0.14v1.77c-0.47,0.33-1.13,0.6-2.08,0.6c-1.13,0-2.02-0.58-2.33-1.63
			c-0.54,1.07-1.59,1.63-3.05,1.63c-1.79,0-2.97-0.93-2.97-2.49c0-1.77,1.28-2.54,3.28-2.89l2.58-0.43V17.8
			C367.82,17.04,367.47,16.59,366.67,16.59z M354.22,14.61l0.68-0.1c0.93-0.14,1.22-0.64,1.44-1.48l0.31-1.2h2.1v2.54h2.39v2.31
			h-2.39v3.36c0,0.78,0.37,1.09,1.05,1.09c0.41,0,0.87-0.08,1.42-0.31v2.16c-0.7,0.52-1.5,0.82-2.76,0.82
			c-1.55,0-3.01-0.64-3.01-2.8v-4.33h-1.24V14.61z M349.95,10.57h3.38v2.93h-3.38V10.57z M338.2,14.36h3.34v1.59
			c0.45-1.09,1.48-1.83,3.03-1.83c2.7,0,4.08,2.14,4.08,4.84c0,2.72-1.38,4.84-4.08,4.84c-1.55,0-2.58-0.74-3.03-1.81v4.87h-3.34
			V14.36z M331.51,16.59c-0.74,0-1.11,0.47-1.26,1.15l-3.09-0.21c0.29-2.02,1.79-3.42,4.56-3.42c2.43,0,4.23,1.05,4.23,3.61v3.13
			c0,0.47,0.21,0.68,0.56,0.68c0.27,0,0.47-0.04,0.74-0.14v1.77c-0.47,0.33-1.13,0.6-2.08,0.6c-1.13,0-2.02-0.58-2.33-1.63
			c-0.54,1.07-1.59,1.63-3.05,1.63c-1.79,0-2.97-0.93-2.97-2.49c0-1.77,1.28-2.54,3.28-2.89l2.58-0.43V17.8
			C332.66,17.04,332.31,16.59,331.51,16.59z M319.72,10.32c3.98,0,6.1,2.54,6.35,5.77l-3.36,0.12c-0.21-1.44-0.99-2.78-3.01-2.78
			c-1.92,0-3.03,1.42-3.03,3.63s1.11,3.63,3.03,3.63c2.02,0,2.8-1.34,3.01-2.78l3.36,0.14c-0.25,3.24-2.37,5.75-6.35,5.75
			c-3.79,0-6.66-2.74-6.66-6.74S315.93,10.32,319.72,10.32z M306.63,20.01h3.55v3.55h-3.55V20.01z M262.3,14.36l1.65,5.22h0.08
			l1.34-5.22h2.66l1.34,5.22h0.08l1.65-5.22h2.92h0.09h3.23l1.65,5.22h0.08l1.34-5.22h2.66l1.34,5.22h0.08l1.65-5.22h2.92h0.09h3.23
			l1.65,5.22h0.08l1.34-5.22h2.66l1.34,5.22h0.08l1.65-5.22h3.01l-2.91,9.19h-3.28l-1.34-5.19h-0.08l-1.34,5.19h-3.28l-2.86-9.06
			l-2.86,9.06h-3.28l-1.34-5.19h-0.08l-1.34,5.19h-3.28l-2.86-9.06l-2.86,9.06h-3.28l-1.34-5.19h-0.08l-1.34,5.19h-3.28l-2.91-9.19
			H262.3z M241.7,124.64c21.41,0,32.75,14.65,32.75,32.04v6.46h-44.97c0.58,7.9,6.32,11.64,13.36,11.64c6.32,0,10.34-2.15,12.5-7.18
			l18.68,1.72c-3.3,14.65-15.08,22.84-32.04,22.84c-20.54,0-35.2-12.35-35.2-32.75C206.79,139.15,221.73,124.64,241.7,124.64z
			 M131.23,99.93h23.27v36.06c3.45-7.04,11.06-11.35,20.69-11.35c17.53,0,23.13,12.21,23.13,25.57v40.23h-23.27v-34.05
			c0-8.76-2.44-13.36-9.48-13.36c-7.9,0-11.06,6.32-11.06,15.95v31.46h-23.27V99.93z M34.55,99.93h86.77v20.11H89.86v70.39H65.58
			v-70.39H34.55V99.93z M29.74,256.15h55.4l84.12,119.34V256.15h53.34v215.43h-46.5L83.09,344.03v127.55H29.74V256.15z
			 M16.54,898.99l8.47-5.29c0.81-12.01,7.8-37.79,19.58-53.81c12.47-16.97,35.38-37.59,43.05-42.3c7.1-4.37,20.12-5.43,30.58-6.29
			c0.83-0.07,1.65-0.14,2.44-0.2l13.33-169.13l4.64,0.37l4.64,0.37l-1.39,17.65c30.14-12.85,58.22-1.6,85.43,9.31
			c28.45,11.4,55.32,22.18,84.28,6.87c1.35-0.71,2.98-0.64,4.25,0.2c1.28,0.84,2,2.3,1.88,3.82l-9.37,122.92
			c-0.11,1.44-0.95,2.71-2.22,3.39c-11.63,6.15-22.96,8.54-34.03,8.54c-19.75,0-38.72-7.6-57.28-15.04
			c-28.17-11.29-54.78-21.94-83.41-7.31L130,790.96c5.74,0.65,10.46,2.82,13.43,6.3c0.91,1.07,1.83,2.46,2.5,4.22
			c2.97,0.44,5.96,1.55,8.74,3.31c4.88,3.09,8.27,7.89,9.54,13.53c1.27,5.64,0.27,11.43-2.82,16.31c-0.82,1.29-1.75,2.4-2.75,3.38
			c0.4,0.27,0.8,0.55,1.19,0.86c4.02,3.14,6.57,7.66,7.19,12.73c0.62,5.06-0.77,10.06-3.92,14.08c-0.79,1.01-1.66,1.88-2.56,2.63
			c7.4,6.43,8.57,17.62,2.46,25.43c-1.57,2-3.43,3.4-5.36,4.4c4.34,6.05,4.4,14.48-0.42,20.64c-1.67,2.13-3.61,3.75-5.83,4.85
			c-10.34,11.58-22.66,18.25-33.59,22.07l-0.88,11.18l-4.64-0.37l-4.64-0.37l0.6-7.66c-2.74,0.64-5.27,1.11-7.55,1.45l-41.61,26.59
			c-11.17,8.96-23.58,18.97-34.67,28.03c-0.93,0.76-2.04,1.12-3.15,1.12c-1.45,0-2.88-0.63-3.87-1.83
			c-1.74-2.13-1.43-5.28,0.71-7.02c29.33-23.96,67.89-54.55,68.27-54.86c0.91-0.72,2.02-1.09,3.19-1.08c0.16,0,8.51,0.05,19.51-2.99
			l1.14-14.45c-1.31-0.18-2.64-0.38-4.02-0.57l-3.26-0.47c-2.72-0.39-5.26-1.45-7.34-3.08c-6.55-5.13-7.71-14.63-2.58-21.18
			c0.62-0.79,1.31-1.5,2.05-2.14c-3.89-4.64-4.87-11.07-2.63-16.63c-0.36,0.36-0.61,0.58-0.68,0.64c-2.07,1.82-5.22,1.62-7.04-0.45
			c-0.4-0.45-0.68-0.96-0.89-1.49l-48.96,19.05c-0.18,1.48-1.01,2.82-2.3,3.63l-10.75,6.71c-0.82,0.51-1.73,0.76-2.64,0.76
			c-1.66,0-3.29-0.83-4.24-2.35C13.49,903.52,14.2,900.45,16.54,898.99z"/>
		<path class="st5" d="M330.02,20.83c0,0.47,0.37,0.78,0.93,0.78c0.95,0,1.71-0.7,1.71-1.9v-0.14l-1.36,0.25
			C330.5,19.99,330.02,20.24,330.02,20.83z"/>
		<path class="st5" d="M241.41,141.31c-7.47,0-10.78,4.6-11.64,10.63h22.55C252.04,146.19,248.31,141.31,241.41,141.31z"/>
		<polygon points="65.58,190.44 89.86,190.44 89.86,120.05 121.32,120.05 121.32,99.93 34.55,99.93 34.55,120.05 65.58,120.05 		"/>
		<path d="M154.5,158.98c0-9.63,3.16-15.95,11.06-15.95c7.04,0,9.48,4.6,9.48,13.36v34.05h23.27v-40.23
			c0-13.36-5.6-25.57-23.13-25.57c-9.62,0-17.24,4.31-20.69,11.35V99.93h-23.27v90.51h23.27V158.98z"/>
		<path d="M241.99,192.17c16.95,0,28.73-8.19,32.04-22.84l-18.68-1.72c-2.15,5.03-6.18,7.18-12.5,7.18
			c-7.04,0-12.79-3.74-13.36-11.64h44.97v-6.46c0-17.38-11.35-32.04-32.75-32.04c-19.97,0-34.91,14.51-34.91,34.77
			C206.79,179.81,221.44,192.17,241.99,192.17z M241.41,141.31c6.9,0,10.63,4.88,10.92,10.63h-22.55
			C230.64,145.91,233.94,141.31,241.41,141.31z"/>
		<polygon points="307.06,120.05 338.09,120.05 338.09,190.44 362.37,190.44 362.37,120.05 393.83,120.05 393.83,99.93 
			307.06,99.93 		"/>
		<rect x="403.6" y="99.93" width="23.56" height="20.4"/>
		<rect x="403.74" y="126.37" width="23.27" height="64.07"/>
		<path d="M462.93,126.37h-23.27v64.07h23.27v-31.46c0-9.63,2.73-15.95,10.34-15.95c7.04,0,8.76,4.6,8.76,13.36v34.05h23.27v-31.46
			c0-9.63,2.59-15.95,10.34-15.95c7.04,0,8.62,4.6,8.62,13.36v34.05h23.27v-40.23c0-13.36-5.17-25.57-22.84-25.57
			c-10.78,0-18.39,5.46-21.84,12.64c-2.73-7.47-8.62-12.64-19.97-12.64c-9.63,0-16.52,4.31-19.97,11.35V126.37z"/>
		<path d="M591.22,192.17c16.95,0,28.73-8.19,32.04-22.84l-18.68-1.72c-2.15,5.03-6.18,7.18-12.5,7.18
			c-7.04,0-12.79-3.74-13.36-11.64h44.97v-6.46c0-17.38-11.35-32.04-32.75-32.04c-19.97,0-34.91,14.51-34.91,34.77
			C556.02,179.81,570.67,192.17,591.22,192.17z M590.64,141.31c6.9,0,10.63,4.88,10.92,10.63h-22.55
			C579.87,145.91,583.17,141.31,590.64,141.31z"/>
		<rect x="659.59" y="99.93" width="24.42" height="90.51"/>
		<path d="M725.1,177.66c-7.04,0-11.35-3.02-12.21-8.33l-20.26,0.29c1.29,15.52,14.51,22.56,32.18,22.56
			c18.25,0,29.74-7.76,29.74-21.26c0-12.5-8.33-18.96-22.7-21.26l-12.5-2.15c-2.16-0.29-3.88-1.44-3.88-3.59
			c0-2.87,2.59-4.6,7.04-4.6c7.18,0,11.21,2.87,12.07,7.47l19.11-0.57c-1.29-13.36-12.21-21.55-30.74-21.55
			c-17.96,0-29.02,9.05-29.02,21.69c0,13.07,8.19,18.1,23.7,20.54l9.48,1.44c4.45,0.72,5.89,2.44,5.89,4.88
			C733,175.79,730.27,177.66,725.1,177.66z"/>
		<polygon points="83.09,344.03 176.1,471.58 222.6,471.58 222.6,256.15 169.26,256.15 169.26,375.49 85.14,256.15 29.74,256.15 
			29.74,471.58 83.09,471.58 		"/>
		<path d="M469.48,363.87c0-66.34-49.24-111.82-111.82-111.82c-62.58,0-111.82,45.48-111.82,111.82
			c0,66.34,49.24,111.82,111.82,111.82C420.24,475.68,469.48,430.2,469.48,363.87z M305.69,363.87c0-36.59,20.17-60.53,51.98-60.53
			c31.8,0,51.98,23.94,51.98,60.53c0,36.59-20.17,60.52-51.98,60.52C325.86,424.39,305.69,400.45,305.69,363.87z"/>
		<polygon points="566.59,391.22 565.22,391.22 531.02,256.15 472.89,256.15 529.31,471.58 590.18,471.58 626.08,335.48 
			627.45,335.48 663.36,471.58 725.25,471.58 781.67,256.15 725.59,256.15 691.4,391.22 690.03,391.22 654.47,256.15 602.15,256.15 
					"/>
		<polygon points="265.16,23.55 266.5,18.36 266.58,18.36 267.92,23.55 271.2,23.55 274.07,14.5 276.93,23.55 280.21,23.55 
			281.55,18.36 281.63,18.36 282.97,23.55 286.25,23.55 289.11,14.5 291.98,23.55 295.25,23.55 296.59,18.36 296.68,18.36 
			298.02,23.55 301.29,23.55 304.2,14.36 301.19,14.36 299.54,19.58 299.46,19.58 298.12,14.36 295.46,14.36 294.12,19.58 
			294.04,19.58 292.39,14.36 289.16,14.36 289.07,14.36 286.15,14.36 284.5,19.58 284.41,19.58 283.07,14.36 280.41,14.36 
			279.07,19.58 278.99,19.58 277.34,14.36 274.11,14.36 274.02,14.36 271.1,14.36 269.45,19.58 269.37,19.58 268.03,14.36 
			265.37,14.36 264.03,19.58 263.95,19.58 262.3,14.36 258.98,14.36 261.88,23.55 		"/>
		<rect x="306.63" y="20.01" width="3.55" height="3.55"/>
		<path d="M319.72,23.8c3.98,0,6.1-2.52,6.35-5.75l-3.36-0.14c-0.21,1.44-0.99,2.78-3.01,2.78c-1.92,0-3.03-1.42-3.03-3.63
			s1.11-3.63,3.03-3.63c2.02,0,2.8,1.34,3.01,2.78l3.36-0.12c-0.25-3.24-2.37-5.77-6.35-5.77c-3.79,0-6.66,2.74-6.66,6.74
			S315.93,23.8,319.72,23.8z"/>
		<path d="M330.08,18.38c-2,0.35-3.28,1.11-3.28,2.89c0,1.57,1.18,2.49,2.97,2.49c1.46,0,2.51-0.56,3.05-1.63
			c0.31,1.05,1.2,1.63,2.33,1.63c0.95,0,1.61-0.27,2.08-0.6v-1.77c-0.27,0.1-0.47,0.14-0.74,0.14c-0.35,0-0.56-0.21-0.56-0.68v-3.13
			c0-2.56-1.79-3.61-4.23-3.61c-2.76,0-4.27,1.4-4.56,3.42l3.09,0.21c0.14-0.68,0.52-1.15,1.26-1.15c0.8,0,1.15,0.45,1.15,1.22v0.14
			L330.08,18.38z M332.66,19.72c0,1.2-0.76,1.9-1.71,1.9c-0.56,0-0.93-0.31-0.93-0.78c0-0.6,0.47-0.85,1.28-1.01l1.36-0.25V19.72z"
			/>
		<path d="M341.54,21.99c0.45,1.07,1.48,1.81,3.03,1.81c2.7,0,4.08-2.12,4.08-4.84c0-2.7-1.38-4.84-4.08-4.84
			c-1.55,0-2.58,0.74-3.03,1.83v-1.59h-3.34v12.49h3.34V21.99z M341.54,18.9c0-1.32,0.72-2.19,1.85-2.19c1.3,0,1.9,0.93,1.9,2.25
			c0,1.34-0.6,2.27-1.9,2.27c-1.13,0-1.85-0.87-1.85-2.21V18.9z"/>
		<rect x="349.97" y="14.36" width="3.34" height="9.19"/>
		<rect x="349.95" y="10.57" width="3.38" height="2.93"/>
		<path d="M355.46,21c0,2.16,1.46,2.8,3.01,2.8c1.26,0,2.06-0.31,2.76-0.82v-2.16c-0.56,0.23-1.01,0.31-1.42,0.31
			c-0.68,0-1.05-0.31-1.05-1.09v-3.36h2.39v-2.31h-2.39v-2.54h-2.1l-0.31,1.2c-0.23,0.85-0.52,1.34-1.44,1.48l-0.68,0.1v2.06h1.24
			V21z"/>
		<path d="M365.25,18.38c-2,0.35-3.28,1.11-3.28,2.89c0,1.57,1.17,2.49,2.97,2.49c1.46,0,2.51-0.56,3.05-1.63
			c0.31,1.05,1.2,1.63,2.33,1.63c0.95,0,1.61-0.27,2.08-0.6v-1.77c-0.27,0.1-0.47,0.14-0.74,0.14c-0.35,0-0.56-0.21-0.56-0.68v-3.13
			c0-2.56-1.79-3.61-4.23-3.61c-2.76,0-4.27,1.4-4.56,3.42l3.09,0.21c0.14-0.68,0.52-1.15,1.26-1.15c0.8,0,1.15,0.45,1.15,1.22v0.14
			L365.25,18.38z M367.82,19.72c0,1.2-0.76,1.9-1.71,1.9c-0.56,0-0.93-0.31-0.93-0.78c0-0.6,0.47-0.85,1.28-1.01l1.36-0.25V19.72z"
			/>
		<rect x="373.37" y="10.57" width="3.34" height="12.99"/>
		<rect x="378.52" y="14.36" width="3.34" height="9.19"/>
		<rect x="378.5" y="10.57" width="3.38" height="2.93"/>
		<path d="M387.67,21.72c-1.01,0-1.63-0.43-1.75-1.2l-2.91,0.04c0.19,2.23,2.08,3.24,4.62,3.24c2.62,0,4.27-1.11,4.27-3.05
			c0-1.79-1.2-2.72-3.26-3.05l-1.79-0.31c-0.31-0.04-0.56-0.21-0.56-0.52c0-0.41,0.37-0.66,1.01-0.66c1.03,0,1.61,0.41,1.73,1.07
			l2.74-0.08c-0.19-1.92-1.75-3.09-4.41-3.09c-2.58,0-4.16,1.3-4.16,3.11c0,1.88,1.17,2.6,3.4,2.95l1.36,0.21
			c0.64,0.1,0.85,0.35,0.85,0.7C388.8,21.45,388.41,21.72,387.67,21.72z"/>
		<path d="M396.51,19.04c0-1.38,0.39-2.29,1.48-2.29c1.01,0,1.26,0.66,1.26,1.92v4.89h3.34v-4.51c0-1.38,0.37-2.29,1.48-2.29
			c1.01,0,1.24,0.66,1.24,1.92v4.89h3.34v-5.77c0-1.92-0.74-3.67-3.28-3.67c-1.55,0-2.64,0.78-3.13,1.81
			c-0.39-1.07-1.24-1.81-2.87-1.81c-1.38,0-2.37,0.62-2.87,1.63v-1.38h-3.34v9.19h3.34V19.04z"/>
		<rect x="413.91" y="10.57" width="3.5" height="12.99"/>
		<path d="M423.3,21.72c-1.01,0-1.63-0.43-1.75-1.2l-2.91,0.04c0.19,2.23,2.08,3.24,4.62,3.24c2.62,0,4.27-1.11,4.27-3.05
			c0-1.79-1.2-2.72-3.26-3.05l-1.79-0.31c-0.31-0.04-0.56-0.21-0.56-0.52c0-0.41,0.37-0.66,1.01-0.66c1.03,0,1.61,0.41,1.73,1.07
			l2.74-0.08c-0.19-1.92-1.75-3.09-4.41-3.09c-2.58,0-4.16,1.3-4.16,3.11c0,1.88,1.17,2.6,3.4,2.95l1.36,0.21
			c0.64,0.1,0.84,0.35,0.84,0.7C424.44,21.45,424.05,21.72,423.3,21.72z"/>
		<path d="M435.86,21.04h5.07l0.97,2.52h3.73l-5.17-12.99h-3.92l-5.17,12.99h3.53L435.86,21.04z M438.35,14.59h0.08l1.48,3.83h-3.05
			L438.35,14.59z"/>
		<polygon points="456.16,23.55 461.15,10.57 457.66,10.57 454.45,19.2 454.36,19.2 451.15,10.57 447.48,10.57 452.47,23.55 		"/>
		<rect x="462.05" y="14.36" width="3.34" height="9.19"/>
		<rect x="462.03" y="10.57" width="3.38" height="2.93"/>
		<path d="M470.54,19.35c0-1.55,0.76-2.12,2-2.12c0.64,0,1.13,0.12,1.59,0.39l0.21-3.15c-0.23-0.19-0.72-0.35-1.28-0.35
			c-1.22,0-2.19,0.85-2.52,1.88v-1.63h-3.34v9.19h3.34V19.35z"/>
		<path d="M478.54,23.8c1.38,0,2.39-0.6,2.89-1.63v1.38h3.34v-9.19h-3.34v4.51c0,1.4-0.41,2.31-1.46,2.31
			c-1.01,0-1.36-0.68-1.36-1.92v-4.91h-3.34v5.79C475.26,22.07,476.02,23.8,478.54,23.8z"/>
		<path d="M490.58,21.72c-1.01,0-1.63-0.43-1.75-1.2l-2.91,0.04c0.19,2.23,2.08,3.24,4.62,3.24c2.62,0,4.27-1.11,4.27-3.05
			c0-1.79-1.2-2.72-3.26-3.05l-1.79-0.31c-0.31-0.04-0.56-0.21-0.56-0.52c0-0.41,0.37-0.66,1.01-0.66c1.03,0,1.61,0.41,1.73,1.07
			l2.74-0.08c-0.19-1.92-1.75-3.09-4.41-3.09c-2.58,0-4.16,1.3-4.16,3.11c0,1.88,1.18,2.6,3.4,2.95l1.36,0.21
			c0.64,0.1,0.84,0.35,0.84,0.7C491.71,21.45,491.32,21.72,490.58,21.72z"/>
		<rect x="497.64" y="20.01" width="3.55" height="3.55"/>
		<path d="M509.1,23.8c2.99,0,5.03-1.98,5.03-4.84c0-2.84-2.04-4.84-5.03-4.84c-3.01,0-5.03,2-5.03,4.84
			C504.08,21.82,506.1,23.8,509.1,23.8z M509.1,16.63c1.15,0,1.67,0.95,1.67,2.33c0,1.38-0.52,2.33-1.67,2.33
			c-1.18,0-1.67-0.95-1.67-2.33C507.44,17.58,507.93,16.63,509.1,16.63z"/>
		<path d="M518.79,19.35c0-1.55,0.76-2.12,2-2.12c0.64,0,1.13,0.12,1.59,0.39l0.21-3.15c-0.23-0.19-0.72-0.35-1.28-0.35
			c-1.22,0-2.19,0.85-2.51,1.88v-1.63h-3.34v9.19h3.34V19.35z"/>
		<path d="M522.6,24.85c0,1.73,2.27,2.25,4.89,2.25c2.99,0,5.77-1.05,5.77-3.34c0-1.55-1.05-2.64-3.13-2.64h-3.81
			c-0.56,0-0.78-0.25-0.78-0.56c0-0.19,0.06-0.33,0.19-0.43c0.6,0.19,1.26,0.27,2,0.27c2.6,0,4.47-1.2,4.47-3.13
			c0-0.43-0.1-0.82-0.29-1.17c0.45-0.1,0.95-0.14,1.34-0.14v-2.51c-1.01,0-2.02,0.66-2.58,1.42c-0.78-0.47-1.83-0.74-2.95-0.74
			c-2.58,0-4.43,1.2-4.43,3.15c0,1.01,0.5,1.79,1.32,2.33c-0.99,0.37-1.57,1.05-1.57,1.94c0,0.78,0.49,1.53,1.32,1.79
			C523.33,23.41,522.6,24.05,522.6,24.85z M527.76,15.95c0.56,0,0.97,0.52,0.97,1.32c0,0.82-0.41,1.34-0.97,1.34
			s-0.97-0.52-0.97-1.34C526.79,16.46,527.2,15.95,527.76,15.95z M525.96,23.97h3.38c0.56,0,0.85,0.14,0.85,0.54
			c0,0.56-1.13,0.87-2.68,0.87c-1.24,0-2.16-0.19-2.16-0.84C525.35,24.17,525.59,23.97,525.96,23.97z"/>
		<path d="M311.03,589.49l0.43-2.06h-1.83l0.82-3.42h-2.49l-0.82,3.42h-1.77l0.82-3.42h-2.49l-0.82,3.42h-2.02l-0.43,2.06h1.98
			l-0.49,2.02h-1.88l-0.43,2.06h1.81l-0.8,3.42h2.49l0.8-3.42h1.77l-0.8,3.42h2.49l0.8-3.42h2.04l0.43-2.06h-1.98l0.49-2.02H311.03z
			 M306.17,591.51h-1.77l0.49-2.02h1.77L306.17,591.51z"/>
		<path d="M320.75,597.24c3.98,0,6.1-2.52,6.35-5.75l-3.36-0.14c-0.21,1.44-0.99,2.78-3.01,2.78c-1.92,0-3.03-1.42-3.03-3.63
			c0-2.21,1.11-3.63,3.03-3.63c2.02,0,2.8,1.34,3.01,2.78l3.36-0.12c-0.25-3.24-2.37-5.77-6.35-5.77c-3.79,0-6.66,2.74-6.66,6.74
			C314.09,594.5,316.95,597.24,320.75,597.24z"/>
		<path d="M331.11,591.82c-2,0.35-3.28,1.11-3.28,2.89c0,1.57,1.18,2.49,2.97,2.49c1.46,0,2.51-0.56,3.05-1.63
			c0.31,1.05,1.2,1.63,2.33,1.63c0.95,0,1.61-0.27,2.08-0.6v-1.77c-0.27,0.1-0.47,0.14-0.74,0.14c-0.35,0-0.56-0.21-0.56-0.68v-3.13
			c0-2.56-1.79-3.61-4.23-3.61c-2.76,0-4.27,1.4-4.56,3.42l3.09,0.21c0.14-0.68,0.52-1.15,1.26-1.15c0.8,0,1.15,0.45,1.15,1.22v0.14
			L331.11,591.82z M333.69,593.16c0,1.2-0.76,1.9-1.71,1.9c-0.56,0-0.93-0.31-0.93-0.78c0-0.6,0.47-0.85,1.28-1.01l1.36-0.25V593.16
			z"/>
		<path d="M339.23,587.8v12.49h3.34v-4.86c0.45,1.07,1.48,1.81,3.03,1.81c2.7,0,4.08-2.12,4.08-4.84c0-2.7-1.38-4.84-4.08-4.84
			c-1.55,0-2.58,0.74-3.03,1.83v-1.59H339.23z M344.43,590.15c1.3,0,1.9,0.93,1.9,2.25c0,1.34-0.6,2.27-1.9,2.27
			c-1.13,0-1.86-0.87-1.86-2.21v-0.12C342.57,591.02,343.29,590.15,344.43,590.15z"/>
		<rect x="351" y="587.8" width="3.34" height="9.19"/>
		<rect x="350.98" y="584.01" width="3.38" height="2.93"/>
		<path d="M359.49,597.24c1.26,0,2.06-0.31,2.76-0.82v-2.16c-0.56,0.23-1.01,0.31-1.42,0.31c-0.68,0-1.05-0.31-1.05-1.09v-3.36h2.39
			v-2.31h-2.39v-2.54h-2.1l-0.31,1.2c-0.23,0.85-0.52,1.34-1.44,1.48l-0.68,0.1v2.06h1.24v4.33
			C356.48,596.6,357.95,597.24,359.49,597.24z"/>
		<path d="M366.27,591.82c-2,0.35-3.28,1.11-3.28,2.89c0,1.57,1.17,2.49,2.97,2.49c1.46,0,2.51-0.56,3.05-1.63
			c0.31,1.05,1.2,1.63,2.33,1.63c0.95,0,1.61-0.27,2.08-0.6v-1.77c-0.27,0.1-0.47,0.14-0.74,0.14c-0.35,0-0.56-0.21-0.56-0.68v-3.13
			c0-2.56-1.79-3.61-4.23-3.61c-2.76,0-4.27,1.4-4.56,3.42l3.09,0.21c0.14-0.68,0.52-1.15,1.26-1.15c0.8,0,1.15,0.45,1.15,1.22v0.14
			L366.27,591.82z M368.85,593.16c0,1.2-0.76,1.9-1.71,1.9c-0.56,0-0.93-0.31-0.93-0.78c0-0.6,0.47-0.85,1.28-1.01l1.36-0.25V593.16
			z"/>
		<rect x="374.39" y="584.01" width="3.34" height="12.99"/>
		<rect x="379.55" y="587.8" width="3.34" height="9.19"/>
		<rect x="379.53" y="584.01" width="3.38" height="2.93"/>
		<path d="M388.7,595.16c-1.01,0-1.63-0.43-1.75-1.2l-2.91,0.04c0.19,2.23,2.08,3.24,4.62,3.24c2.62,0,4.27-1.11,4.27-3.05
			c0-1.79-1.2-2.72-3.26-3.05l-1.79-0.31c-0.31-0.04-0.56-0.21-0.56-0.52c0-0.41,0.37-0.66,1.01-0.66c1.03,0,1.61,0.41,1.73,1.07
			l2.74-0.08c-0.19-1.92-1.75-3.09-4.41-3.09c-2.58,0-4.16,1.3-4.16,3.11c0,1.88,1.17,2.6,3.4,2.95l1.36,0.21
			c0.64,0.1,0.85,0.35,0.85,0.7C389.83,594.89,389.44,595.16,388.7,595.16z"/>
		<path d="M409.68,596.99v-5.77c0-1.92-0.74-3.67-3.28-3.67c-1.55,0-2.64,0.78-3.13,1.81c-0.39-1.07-1.24-1.81-2.87-1.81
			c-1.38,0-2.37,0.62-2.87,1.63v-1.38h-3.34v9.19h3.34v-4.51c0-1.38,0.39-2.29,1.48-2.29c1.01,0,1.26,0.66,1.26,1.92v4.89h3.34
			v-4.51c0-1.38,0.37-2.29,1.48-2.29c1.01,0,1.24,0.66,1.24,1.92v4.89H409.68z"/>
		<rect x="413.27" y="584.01" width="3.5" height="12.99"/>
		<path d="M422.67,595.16c-1.01,0-1.63-0.43-1.75-1.2l-2.91,0.04c0.19,2.23,2.08,3.24,4.62,3.24c2.62,0,4.27-1.11,4.27-3.05
			c0-1.79-1.2-2.72-3.26-3.05l-1.79-0.31c-0.31-0.04-0.56-0.21-0.56-0.52c0-0.41,0.37-0.66,1.01-0.66c1.03,0,1.61,0.41,1.73,1.07
			l2.74-0.08c-0.19-1.92-1.75-3.09-4.41-3.09c-2.58,0-4.16,1.3-4.16,3.11c0,1.88,1.17,2.6,3.4,2.95l1.36,0.21
			c0.64,0.1,0.85,0.35,0.85,0.7C423.8,594.89,423.41,595.16,422.67,595.16z"/>
		<path d="M429.07,596.99h3.53l0.97-2.51h5.07l0.97,2.51h3.73l-5.17-12.99h-3.92L429.07,596.99z M436.05,588.03h0.08l1.48,3.83
			h-3.05L436.05,588.03z"/>
		<polygon points="452.01,592.64 448.8,584.01 445.13,584.01 450.12,596.99 453.81,596.99 458.8,584.01 455.31,584.01 452.1,592.64 
					"/>
		<rect x="459.7" y="587.8" width="3.34" height="9.19"/>
		<rect x="459.68" y="584.01" width="3.38" height="2.93"/>
		<path d="M464.85,587.8v9.19h3.34v-4.21c0-1.55,0.76-2.12,2-2.12c0.64,0,1.13,0.12,1.59,0.39l0.21-3.15
			c-0.23-0.19-0.72-0.35-1.28-0.35c-1.22,0-2.19,0.85-2.52,1.88v-1.63H464.85z"/>
		<path d="M472.91,587.8v5.79c0,1.92,0.76,3.65,3.28,3.65c1.38,0,2.39-0.6,2.89-1.63v1.38h3.34v-9.19h-3.34v4.51
			c0,1.4-0.41,2.31-1.46,2.31c-1.01,0-1.36-0.68-1.36-1.92v-4.91H472.91z"/>
		<path d="M488.22,595.16c-1.01,0-1.63-0.43-1.75-1.2l-2.91,0.04c0.19,2.23,2.08,3.24,4.62,3.24c2.62,0,4.27-1.11,4.27-3.05
			c0-1.79-1.2-2.72-3.26-3.05l-1.79-0.31c-0.31-0.04-0.56-0.21-0.56-0.52c0-0.41,0.37-0.66,1.01-0.66c1.03,0,1.61,0.41,1.73,1.07
			l2.74-0.08c-0.19-1.92-1.75-3.09-4.41-3.09c-2.58,0-4.16,1.3-4.16,3.11c0,1.88,1.18,2.6,3.4,2.95l1.36,0.21
			c0.64,0.1,0.84,0.35,0.84,0.7C489.36,594.89,488.97,595.16,488.22,595.16z"/>
	</g>
</g>
</svg>
