<?xml version="1.0" encoding="utf-8"?>
<!-- Generator: Adobe Illustrator 23.1.1, SVG Export Plug-In . SVG Version: 6.00 Build 0)  -->
<svg version="1.1" xmlns="http://www.w3.org/2000/svg" xmlns:xlink="http://www.w3.org/1999/xlink" x="0px" y="0px"
	 viewBox="0 0 792 612" style="enable-background:new 0 0 792 612;" xml:space="preserve">
<style type="text/css">
	.st0{display:none;}
	.st1{display:inline;fill:#FFFFFF;}
	.st2{display:inline;}
	.st3{fill:#FFFFFF;stroke:#000000;stroke-width:16;stroke-linecap:round;stroke-linejoin:round;stroke-miterlimit:10;}
	.st4{fill:none;stroke:#000000;stroke-width:24;stroke-linejoin:round;stroke-miterlimit:10;}
	.st5{fill:#FFFFFF;}
	.st6{fill:#FFFFFF;stroke:#000000;stroke-width:17;stroke-linecap:round;stroke-miterlimit:10;}
	.st7{fill:#FFFFFF;stroke:#000000;stroke-width:17;stroke-miterlimit:10;}
	.st8{stroke:#000000;stroke-width:16.0572;stroke-linecap:round;stroke-miterlimit:10;}
	.st9{fill:#FFFFFF;stroke:#000000;stroke-width:13.497;stroke-linecap:round;stroke-linejoin:round;stroke-miterlimit:10;}
	.st10{stroke:#000000;stroke-width:18.3348;stroke-linecap:round;stroke-miterlimit:10;}
	.st11{fill:none;stroke:#000000;stroke-width:13.497;stroke-linecap:round;stroke-linejoin:round;stroke-miterlimit:10;}
	.st12{fill:#FFFFFF;stroke:#000000;stroke-width:14.6942;stroke-linecap:round;stroke-linejoin:round;stroke-miterlimit:10;}
	.st13{fill:none;stroke:#000000;stroke-width:13;stroke-linecap:round;stroke-linejoin:round;stroke-miterlimit:10;}
	.st14{fill:none;stroke:#000000;stroke-width:13;stroke-linejoin:round;stroke-miterlimit:10;}
	.st15{fill:url(#);stroke:#000000;stroke-width:13;stroke-linejoin:round;stroke-miterlimit:10;}
	.st16{fill:none;stroke:#000000;stroke-width:30.5612;stroke-linecap:round;stroke-linejoin:round;stroke-miterlimit:10;}
	.st17{fill:#FFFFFF;stroke:#000000;stroke-width:16.2993;stroke-linecap:round;stroke-linejoin:round;stroke-miterlimit:10;}
	.st18{fill:#FFFFFF;stroke:#000000;stroke-width:13.497;stroke-linecap:round;stroke-miterlimit:10;}
	.st19{fill:url(#);stroke:#000000;stroke-width:13.497;stroke-linecap:round;stroke-linejoin:round;stroke-miterlimit:10;}
	.st20{fill:#FFFFFF;stroke:#000000;stroke-width:11.7326;stroke-linecap:round;stroke-linejoin:round;stroke-miterlimit:10;}
	.st21{fill:#FFFFFF;stroke:#000000;stroke-width:13.2623;stroke-linecap:round;stroke-linejoin:round;stroke-miterlimit:10;}
	.st22{fill:#FFFFFF;stroke:#000000;stroke-width:13.2623;stroke-linecap:round;stroke-miterlimit:10;}
	.st23{stroke:#000000;stroke-width:4.5213;stroke-miterlimit:10;}
	.st24{fill:none;stroke:#000000;stroke-width:16;stroke-linecap:round;stroke-miterlimit:10;}
	.st25{fill:url(#);stroke:#000000;stroke-width:16;stroke-linecap:round;stroke-linejoin:round;stroke-miterlimit:10;}
	.st26{fill:#FFFFFF;stroke:#000000;stroke-width:16;stroke-linecap:round;stroke-miterlimit:10;}
	.st27{fill:none;stroke:#000000;stroke-width:16;stroke-linecap:round;stroke-linejoin:round;stroke-miterlimit:10;}
	.st28{font-family:'FoundersGrotesk-Bold';}
	.st29{font-size:20.6105px;}
	.st30{font-size:10.3052px;}
	.st31{font-size:19.2364px;}
	.st32{fill:none;stroke:#000000;stroke-width:15.2344;stroke-linecap:round;stroke-linejoin:round;stroke-miterlimit:10;}
	.st33{fill:#FFFFFF;stroke:#000000;stroke-width:15.2344;stroke-linecap:round;stroke-linejoin:round;stroke-miterlimit:10;}
	.st34{font-size:10px;}
	.st35{fill:#FFFFFF;stroke:#000000;stroke-width:17;stroke-linecap:round;stroke-linejoin:round;stroke-miterlimit:10;}
	.st36{fill:none;stroke:#000000;stroke-width:9.9764;stroke-linecap:round;stroke-linejoin:round;stroke-miterlimit:10;}
	.st37{fill:none;stroke:#000000;stroke-width:9.3127;stroke-linejoin:round;stroke-miterlimit:10;}
	.st38{fill:url(#);}
	.st39{fill:none;stroke:#000000;stroke-width:8.3796;stroke-linecap:round;stroke-linejoin:round;stroke-miterlimit:10;}
	
		.st40{display:inline;fill:none;stroke:#000000;stroke-width:9.9764;stroke-linecap:round;stroke-linejoin:round;stroke-miterlimit:10;}
	.st41{display:inline;fill:none;stroke:#000000;stroke-width:9.3127;stroke-linejoin:round;stroke-miterlimit:10;}
	.st42{display:inline;fill:url(#);stroke:#000000;stroke-width:10;stroke-linejoin:round;stroke-miterlimit:10;}
	.st43{fill:#FFFFFF;stroke:#000000;stroke-width:14.7375;stroke-linecap:round;stroke-linejoin:round;stroke-miterlimit:10;}
	.st44{fill:none;stroke:#000000;stroke-width:14.7375;stroke-linecap:round;stroke-linejoin:round;stroke-miterlimit:10;}
	.st45{stroke:#000000;stroke-width:14.7375;stroke-linecap:round;stroke-linejoin:round;stroke-miterlimit:10;}
	.st46{fill:#FFFFFF;stroke:#000000;stroke-width:14.2911;stroke-linecap:round;stroke-linejoin:round;stroke-miterlimit:10;}
	.st47{fill:none;stroke:#000000;stroke-width:15;stroke-linecap:round;stroke-linejoin:round;stroke-miterlimit:10;}
	.st48{fill:#FFFFFF;stroke:#000000;stroke-width:15;stroke-linecap:round;stroke-linejoin:round;stroke-miterlimit:10;}
	.st49{fill:#FFFFFF;stroke:#000000;stroke-width:14.8467;stroke-linecap:round;stroke-linejoin:round;stroke-miterlimit:10;}
	.st50{stroke:#000000;stroke-width:20.1683;stroke-linecap:round;stroke-miterlimit:10;}
	.st51{fill:none;stroke:#000000;stroke-width:14.8467;stroke-linecap:round;stroke-linejoin:round;stroke-miterlimit:10;}
	.st52{fill:none;stroke:#000000;stroke-width:13.497;stroke-miterlimit:10;}
	.st53{fill:#FFFFFF;stroke:#000000;stroke-width:13.497;stroke-miterlimit:10;}
	.st54{fill:#FFFFFF;stroke:#000000;stroke-width:14.7439;stroke-linecap:round;stroke-miterlimit:10;}
	.st55{fill:#FFFFFF;stroke:#000000;stroke-width:14.7439;stroke-miterlimit:10;}
	.st56{stroke:#000000;stroke-width:13.9262;stroke-linecap:round;stroke-miterlimit:10;}
	.st57{fill:#FFFFFF;stroke:#000000;stroke-width:17.1072;stroke-linecap:round;stroke-linejoin:round;stroke-miterlimit:10;}
	.st58{stroke:#000000;stroke-width:17.1072;stroke-linecap:round;stroke-linejoin:round;stroke-miterlimit:10;}
	.st59{fill:#FFFFFF;stroke:#000000;stroke-width:15;stroke-linecap:square;stroke-linejoin:round;stroke-miterlimit:10;}
	.st60{fill:#FFFFFF;stroke:#000000;stroke-width:15;stroke-linejoin:round;stroke-miterlimit:10;}
	.st61{fill:#FFFFFF;stroke:#000000;stroke-width:14;stroke-linecap:round;stroke-linejoin:round;stroke-miterlimit:10;}
	.st62{fill:#FFFFFF;stroke:#000000;stroke-width:13;stroke-linecap:round;stroke-linejoin:round;stroke-miterlimit:10;}
	.st63{fill:#FFFFFF;stroke:#000000;stroke-width:15.2362;stroke-linecap:round;stroke-linejoin:round;stroke-miterlimit:10;}
	.st64{fill:#FFFFFF;stroke:#FFFFFF;stroke-width:3;stroke-miterlimit:10;}
	.st65{fill:#FFFFFF;stroke:#000000;stroke-width:13.3058;stroke-linecap:round;stroke-linejoin:round;stroke-miterlimit:10;}
	.st66{fill:#FFFFFF;stroke:#000000;stroke-width:15.2517;stroke-linecap:round;stroke-linejoin:round;stroke-miterlimit:10;}
	.st67{stroke:#000000;stroke-width:3;stroke-miterlimit:10;}
</style>
<g id="unexpanded" class="st0">
	<rect x="-1593.75" y="-3205.56" class="st1" width="14663.41" height="9108.82"/>
	<g class="st2">
		<rect x="0" y="-612" class="st5" width="792" height="1224"/>
		<text transform="matrix(0 -1 1 0 26.8615 592.0931)"><tspan x="0" y="0" class="st28 st29">www</tspan><tspan x="45.14" y="0" class="st28 st30"> </tspan><tspan x="46.99" y="0" class="st28 st29">.</tspan><tspan x="51.77" y="0" class="st28 st30"> </tspan><tspan x="53.63" y="0" class="st28 st29">Capitalism</tspan><tspan x="150.43" y="0" class="st28 st31"> </tspan><tspan x="153.9" y="0" class="st28 st29">Is</tspan><tspan x="168.88" y="0" class="st28 st31"> </tspan><tspan x="172.34" y="0" class="st28 st29">A</tspan><tspan x="186.6" y="0" class="st28 st30"> </tspan><tspan x="188.46" y="0" class="st28 st29">Virus</tspan><tspan x="236.15" y="0" class="st28 st30"> </tspan><tspan x="238.01" y="0" class="st28 st29">.</tspan><tspan x="242.79" y="0" class="st28 st30"> </tspan><tspan x="244.64" y="0" class="st28 st29">org</tspan></text>
		<g>
			<g>
				<path class="st5" d="M291.55,343.07l16.99,30.03l23.55-38.85l37.52-3.75l69.67,21.88c0,0,46.4,18.97,77.02,38.13
					s35.12,12.58,35.12,12.58l220.82-15.75c0,0,2.17,146.44-5.58,147.49c-12.09,1.65-174.64-5.67-182.2-2.2
					c-2.39,0.99-25.34,33.76-96.54,24.15c-44.79-8.34-71.19-9.6-71.19-9.6l-44.5-3.67l-79.27-70.52l-18.86-43.81
					c0,0-45.05-103.71-41.51-113.23c3.55-9.52,20.95-29.33,32.53-13.94C272.91,309.52,291.55,343.07,291.55,343.07z"/>
				<path class="st32" d="M453.36,450c18.51,8.19,38.39,15.55,59.72,21.81"/>
				<path class="st32" d="M226.13,222.93c0,0,19.87,72.35,90.38,140.99"/>
				<path class="st33" d="M305.28,465c-22.18-17.23-29.06-31.46-38.2-50.22c-9.14-18.76-31.1-62.4-39.44-81.75
					c-14.4-33.42,25.54-49.1,39.34-21.44c11.95,23.95,54.11,91.64,54.11,91.64"/>
				<path class="st33" d="M421.3,546.85c-14.11,4.06-39.22-0.73-66.77-14.09c-13.67-6.63-37.32-17.22-50.62-34.54
					c-13.51-17.6-14.06-38.85-12.2-47.75c3.68-17.66,10.74-55.79,15.18-77.46c6.35-30.96,49.29-29.19,43.45,12.37
					c-4.07,28.93-9.13,65.8-9.13,65.8"/>
				<path class="st33" d="M458.78,553.07c-37.48,0.85-108.31-46.98-116.94-66.86c-8.63-19.88,6.4-59.96,16.61-82.29
					c10.2-22.33,22.04-32.72,39.47-46.1c24.92-19.14,53.49,11.01,28.64,34.12l-18.44,23.01l-13.91,31.18"/>
				<path class="st32" d="M772.24,387.34c0,0-211.33,16.45-230.16,15.93c-26.95-25.21-195.83-94.39-209.99-69.02
					c-2.22,3.98-2.87,8.61-2.23,13.61"/>
				<path class="st33" d="M466.58,480.06c-14.91-13.27-25.27-16.85-25.27-16.85l7.87-19.71c33.97-17.41,14.71-53.18-18.66-39.81
					c-24.72,9.9-39.79,45.49-42.6,63.42c-2.72,17.33,23.4,64.17,70.87,85.96c27.23,12.5,77.28,9.31,125.68-20.43l187.78,2.41"/>
				<path d="M280.08,313.74c0,0-20.62-48.69,10.97-78.47s70.83-15.61,74.42-56.14c39.54,45.87,6.76,102.64-22.21,117.53
					C317.54,309.89,296.2,302.03,280.08,313.74z"/>
				<g>
					<path class="st33" d="M133.18,109.72c-0.27-9.16,2.8-15.81,8.22-18.53l7.15-1.72c6.3-24.87,33.19-30.78,46.39-11.56
						c-0.1,0.18-0.22,0.31-0.32,0.47c0,0,10.04-11.6,9.13-15.61c12.24-4.38,24.44-3.49,31.71,5.79l2.81-0.67
						c0,0,22.95,0.89,43.18,24.58c15.35,17.98,24.58,51.14,15.64,72.93l0.02,0.01c0,0-32.7,108.02-133.02,66.95
						c-30.99-12.69-42.47-34.8-44.34-68.4C118.03,132.86,130.61,112.13,133.18,109.72z"/>
					<path class="st33" d="M141.41,91.18c-13.62,6.85-12.81,38.19,20.22,72.87c52.96,55.6,121.07,17.83,121.07,17.83
						c28.67-15.6,18.99-65.72-1.24-89.42c-20.23-23.69-43.18-24.58-43.18-24.58"/>
					<path class="st33" d="M146.08,92.16c0,0,35.45,5.66,51.41-21.63C186.66,44.52,138.7,54.76,146.08,92.16z"/>
					<path class="st32" d="M141.44,121.5c27.4,11.18,50.61,1.23,58.99-14.34c8.86-16.45,6.14-32.06,3.32-44.4
						c18.23-6.52,36.67-1.81,38.29,25.8s-23.87,82.15-84.66,70.33"/>
					<path class="st32" d="M297.12,165.4c0,0-33.1,110.06-133.02,66.94c-67.76-29.24-39.2-113.22-33.6-119.77"/>
				</g>
			</g>
		</g>
		<text transform="matrix(0 1 -1 0 761.9287 63.7305)"><tspan x="0" y="0" class="st28 st29">#</tspan><tspan x="12.7" y="0" class="st28 st34"> </tspan><tspan x="14.5" y="0" class="st28 st29">Capitalism</tspan><tspan x="111.3" y="0" class="st28 st34"> </tspan><tspan x="113.1" y="0" class="st28 st29">Is</tspan><tspan x="128.09" y="0" class="st28 st34"> </tspan><tspan x="129.89" y="0" class="st28 st29">A</tspan><tspan x="144.15" y="0" class="st28 st34"> </tspan><tspan x="145.95" y="0" class="st28 st29">Virus</tspan></text>
	</g>
</g>
<g id="exp_trnsp_bg">
	<polygon points="17.67,400.93 22.88,402.58 22.88,402.66 17.67,404 17.67,406.66 22.88,408 22.88,408.08 17.67,409.73 
		17.67,412.96 17.67,413.05 17.67,415.97 22.88,417.62 22.88,417.71 17.67,419.04 17.67,421.7 22.88,423.04 22.88,423.13 
		17.67,424.78 17.67,428.01 17.67,428.09 17.67,431.02 22.88,432.67 22.88,432.75 17.67,434.09 17.67,436.75 22.88,438.09 
		22.88,438.17 17.67,439.82 17.67,443.14 26.86,440.23 26.86,436.96 21.67,435.62 21.67,435.53 26.86,434.19 26.86,430.92 
		17.8,428.05 26.86,425.19 26.86,421.91 21.67,420.57 21.67,420.49 26.86,419.15 26.86,415.87 17.8,413.01 26.86,410.14 
		26.86,406.86 21.67,405.52 21.67,405.44 26.86,404.1 26.86,400.82 17.67,397.92 	"/>
	<rect x="23.32" y="391.94" width="3.55" height="3.55"/>
	<path d="M20.37,389.06c4,0,6.74-2.87,6.74-6.66c0-3.98-2.52-6.1-5.75-6.35l-0.14,3.36c1.44,0.21,2.78,0.99,2.78,3.01
		c0,1.92-1.42,3.03-3.63,3.03c-2.21,0-3.63-1.11-3.63-3.03c0-2.02,1.34-2.8,2.78-3.01l-0.12-3.36c-3.24,0.25-5.77,2.37-5.77,6.35
		C13.63,386.19,16.37,389.06,20.37,389.06z"/>
	<path d="M27.07,366.96c0-0.95-0.27-1.61-0.6-2.08H24.7c0.1,0.27,0.14,0.47,0.14,0.74c0,0.35-0.21,0.56-0.68,0.56h-3.13
		c-2.56,0-3.61,1.79-3.61,4.23c0,2.76,1.4,4.27,3.42,4.56l0.21-3.09c-0.68-0.14-1.15-0.52-1.15-1.26c0-0.8,0.45-1.15,1.22-1.15h0.14
		l0.43,2.58c0.35,2,1.11,3.28,2.89,3.28c1.57,0,2.49-1.17,2.49-2.97c0-1.46-0.56-2.52-1.63-3.05
		C26.49,368.98,27.07,368.1,27.07,366.96z M24.14,372.1c-0.6,0-0.85-0.47-1.01-1.28l-0.25-1.36h0.14c1.2,0,1.9,0.76,1.9,1.71
		C24.92,371.72,24.61,372.1,24.14,372.1z"/>
	<path d="M27.11,357.54c0-2.7-2.12-4.08-4.84-4.08c-2.7,0-4.84,1.38-4.84,4.08c0,1.55,0.74,2.58,1.83,3.03h-1.59v3.34h12.49v-3.34
		h-4.86C26.37,360.12,27.11,359.09,27.11,357.54z M22.33,360.57H22.2c-1.32,0-2.19-0.72-2.19-1.86c0-1.3,0.93-1.9,2.25-1.9
		c1.34,0,2.27,0.6,2.27,1.9C24.53,359.85,23.67,360.57,22.33,360.57z"/>
	<rect x="17.67" y="348.81" width="9.19" height="3.34"/>
	<rect x="13.87" y="348.79" width="2.93" height="3.38"/>
	<path d="M15.13,345.47l1.2,0.31c0.85,0.23,1.34,0.52,1.48,1.44l0.1,0.68h2.06v-1.24h4.33c2.16,0,2.8-1.46,2.8-3.01
		c0-1.26-0.31-2.06-0.82-2.76h-2.16c0.23,0.56,0.31,1.01,0.31,1.42c0,0.68-0.31,1.05-1.09,1.05h-3.36v-2.39h-2.31v2.39h-2.54V345.47
		z"/>
	<path d="M24.16,331.02h-3.13c-2.56,0-3.61,1.79-3.61,4.23c0,2.76,1.4,4.27,3.42,4.56l0.21-3.09c-0.68-0.14-1.15-0.52-1.15-1.26
		c0-0.8,0.45-1.15,1.22-1.15h0.14l0.43,2.58c0.35,2,1.11,3.28,2.89,3.28c1.57,0,2.49-1.17,2.49-2.97c0-1.46-0.56-2.52-1.63-3.05
		c1.05-0.31,1.63-1.2,1.63-2.33c0-0.95-0.27-1.61-0.6-2.08H24.7c0.1,0.27,0.14,0.47,0.14,0.74
		C24.84,330.81,24.64,331.02,24.16,331.02z M24.92,336.01c0,0.56-0.31,0.93-0.78,0.93c-0.6,0-0.85-0.47-1.01-1.28l-0.25-1.36h0.14
		C24.22,334.3,24.92,335.06,24.92,336.01z"/>
	<rect x="13.87" y="325.41" width="12.99" height="3.34"/>
	<rect x="17.67" y="320.26" width="9.19" height="3.34"/>
	<rect x="13.87" y="320.24" width="2.93" height="3.38"/>
	<path d="M20.53,318.92c1.88,0,2.6-1.17,2.95-3.4l0.21-1.36c0.1-0.64,0.35-0.85,0.7-0.85c0.37,0,0.64,0.39,0.64,1.13
		c0,1.01-0.43,1.63-1.2,1.75l0.04,2.91c2.23-0.19,3.24-2.08,3.24-4.62c0-2.62-1.11-4.27-3.05-4.27c-1.79,0-2.72,1.2-3.05,3.26
		l-0.31,1.79c-0.04,0.31-0.21,0.56-0.52,0.56c-0.41,0-0.66-0.37-0.66-1.01c0-1.03,0.41-1.61,1.07-1.73l-0.08-2.74
		c-1.92,0.19-3.09,1.75-3.09,4.41C17.42,317.33,18.72,318.92,20.53,318.92z"/>
	<path d="M17.42,302.74c0,1.38,0.62,2.37,1.63,2.87h-1.38v3.34h9.19v-3.34h-4.51c-1.38,0-2.29-0.39-2.29-1.48
		c0-1.01,0.66-1.26,1.92-1.26h4.89v-3.34h-4.51c-1.38,0-2.29-0.37-2.29-1.48c0-1.01,0.66-1.24,1.92-1.24h4.89v-3.34h-5.77
		c-1.92,0-3.67,0.74-3.67,3.28c0,1.55,0.78,2.64,1.81,3.13C18.16,300.27,17.42,301.11,17.42,302.74z"/>
	<rect x="13.87" y="284.71" width="12.99" height="3.5"/>
	<path d="M23.83,280.57l0.04,2.91c2.23-0.19,3.24-2.08,3.24-4.62c0-2.62-1.11-4.27-3.05-4.27c-1.79,0-2.72,1.2-3.05,3.26l-0.31,1.79
		c-0.04,0.31-0.21,0.56-0.52,0.56c-0.41,0-0.66-0.37-0.66-1.01c0-1.03,0.41-1.61,1.07-1.73l-0.08-2.74
		c-1.92,0.19-3.09,1.75-3.09,4.41c0,2.58,1.3,4.16,3.11,4.16c1.88,0,2.6-1.18,2.95-3.4l0.21-1.36c0.1-0.64,0.35-0.85,0.7-0.85
		c0.37,0,0.64,0.39,0.64,1.13C25.03,279.82,24.59,280.44,23.83,280.57z"/>
	<path d="M26.86,267.23l-2.51-0.97v-5.07l2.51-0.97v-3.73l-12.99,5.17v3.92l12.99,5.17V267.23z M21.73,265.25l-3.83-1.48v-0.08
		l3.83-1.48V265.25z"/>
	<polygon points="26.86,245.96 13.87,240.97 13.87,244.46 22.51,247.67 22.51,247.75 13.87,250.97 13.87,254.64 26.86,249.65 	"/>
	<rect x="17.67" y="236.73" width="9.19" height="3.34"/>
	<rect x="13.87" y="236.71" width="2.93" height="3.38"/>
	<path d="M19.3,231.58h-1.63v3.34h9.19v-3.34h-4.21c-1.55,0-2.12-0.76-2.12-2c0-0.64,0.12-1.13,0.39-1.59l-3.15-0.21
		c-0.19,0.23-0.35,0.72-0.35,1.28C17.42,230.28,18.27,231.25,19.3,231.58z"/>
	<path d="M22.57,223.52h-4.91v3.34h5.79c1.92,0,3.65-0.76,3.65-3.28c0-1.38-0.6-2.39-1.63-2.89h1.38v-3.34h-9.19v3.34h4.51
		c1.4,0,2.31,0.41,2.31,1.46C24.49,223.17,23.81,223.52,22.57,223.52z"/>
	<path d="M20.53,216.02c1.88,0,2.6-1.18,2.95-3.4l0.21-1.36c0.1-0.64,0.35-0.85,0.7-0.85c0.37,0,0.64,0.39,0.64,1.13
		c0,1.01-0.43,1.63-1.2,1.75l0.04,2.91c2.23-0.19,3.24-2.08,3.24-4.62c0-2.62-1.11-4.27-3.05-4.27c-1.79,0-2.72,1.2-3.05,3.26
		l-0.31,1.79c-0.04,0.31-0.21,0.56-0.52,0.56c-0.41,0-0.66-0.37-0.66-1.01c0-1.03,0.41-1.61,1.07-1.73l-0.08-2.74
		c-1.92,0.19-3.09,1.75-3.09,4.41C17.42,214.43,18.72,216.02,20.53,216.02z"/>
	<rect x="23.32" y="200.93" width="3.55" height="3.55"/>
	<path d="M22.26,198.04c2.87,0,4.84-2.02,4.84-5.03c0-2.99-1.98-5.03-4.84-5.03c-2.84,0-4.84,2.04-4.84,5.03
		C17.42,196.02,19.42,198.04,22.26,198.04z M22.26,191.34c1.38,0,2.33,0.52,2.33,1.67c0,1.17-0.95,1.67-2.33,1.67
		c-1.38,0-2.33-0.49-2.33-1.67C19.94,191.86,20.88,191.34,22.26,191.34z"/>
	<path d="M17.77,179.53c-0.19,0.23-0.35,0.72-0.35,1.28c0,1.22,0.85,2.19,1.88,2.52h-1.63v3.34h9.19v-3.34h-4.21
		c-1.55,0-2.12-0.76-2.12-2c0-0.64,0.12-1.13,0.39-1.59L17.77,179.53z"/>
	<path d="M18.16,171.45c-0.47,0.78-0.74,1.83-0.74,2.95c0,2.58,1.2,4.43,3.15,4.43c1.01,0,1.79-0.49,2.33-1.32
		c0.37,0.99,1.05,1.57,1.94,1.57c0.78,0,1.53-0.49,1.79-1.32c0.08,1.03,0.72,1.75,1.53,1.75c1.73,0,2.25-2.27,2.25-4.89
		c0-2.99-1.05-5.77-3.34-5.77c-1.55,0-2.64,1.05-2.64,3.13v3.81c0,0.56-0.25,0.78-0.56,0.78c-0.19,0-0.33-0.06-0.43-0.19
		c0.19-0.6,0.27-1.26,0.27-2c0-2.6-1.2-4.47-3.13-4.47c-0.43,0-0.82,0.1-1.18,0.29c-0.1-0.45-0.14-0.95-0.14-1.34h-2.52
		C16.74,169.89,17.4,170.9,18.16,171.45z M27.27,172.77c0-0.56,0.14-0.85,0.54-0.85c0.56,0,0.87,1.13,0.87,2.68
		c0,1.24-0.19,2.16-0.84,2.16c-0.35,0-0.56-0.25-0.56-0.62V172.77z M20.57,173.39c0.82,0,1.34,0.41,1.34,0.97
		c0,0.56-0.52,0.97-1.34,0.97c-0.8,0-1.32-0.41-1.32-0.97C19.25,173.8,19.77,173.39,20.57,173.39z"/>
	<path d="M771.65,379.75c-69.77,5.43-202.51,15.39-226.73,15.9c-16.59-13.55-59.9-33.67-94.74-47.25
		c-24.17-9.42-83.27-30.88-109.85-26.73c-7.23,1.13-12.24,4.11-14.89,8.87c-2.43,4.36-3.56,9.31-3.39,14.74
		c-3.13,0.9-6.19,2.34-9.01,4.33c-11.98-12.48-22.32-24.99-31.19-37.05c15.9-9.99,36.62-3.15,61.41-15.89
		c28.97-14.89,61.75-71.67,22.21-117.53c-3.59,40.53-42.83,26.35-74.42,56.14c-24.3,22.91-17.71,57-13.37,71.52
		c-17.77-25.14-29.16-47.9-35.92-63.66c0.77-0.33,1.53-0.67,2.29-1.02c41.63-19.38,58.17-67.6,60.17-73.89
		c1.29-3.17,2.29-6.59,2.97-10.26c4.15-22.42-4.24-52.05-19.94-70.43c-22.14-25.93-47.61-27.21-48.68-27.25c-0.02,0-0.05,0-0.07,0
		c-0.01,0-0.02,0-0.03,0c-1.2-1.12-2.4-2.04-3.56-2.8c-8.15-5.39-19-6.35-30.82-2.81c-0.08,0.02-0.16,0.04-0.25,0.07
		c-0.88,0.27-1.77,0.56-2.66,0.88c-0.37,0.13-0.72,0.3-1.05,0.48c-0.04,0.02-0.08,0.04-0.12,0.06c-0.32,0.18-0.62,0.38-0.9,0.6
		c-0.04,0.03-0.09,0.07-0.13,0.1c-0.28,0.22-0.54,0.46-0.78,0.72c-0.03,0.03-0.05,0.06-0.07,0.08c-0.05,0.05-0.1,0.11-0.14,0.16
		c-3.12-3.14-6.94-5.59-11.28-7.19c-7.3-2.69-15.65-2.86-23.5-0.48c-8.41,2.55-15.52,7.84-20.02,14.9
		c-3.62,5.68-5.46,12.31-5.48,19.5c-0.34,0.18-0.67,0.36-1,0.56c-0.14,0.09-0.28,0.18-0.43,0.27c-0.26,0.17-0.52,0.34-0.78,0.51
		c-0.17,0.12-0.34,0.25-0.51,0.37c-0.22,0.16-0.43,0.33-0.64,0.5c-0.17,0.14-0.34,0.28-0.51,0.43c-0.2,0.18-0.4,0.36-0.6,0.55
		c-0.15,0.14-0.31,0.28-0.46,0.43c-0.32,0.32-0.63,0.65-0.93,1c-0.03,0.03-0.05,0.06-0.08,0.09c-0.32,0.37-0.63,0.75-0.93,1.15
		c-0.04,0.05-0.08,0.11-0.12,0.17c-0.28,0.38-0.56,0.78-0.82,1.19c-0.01,0.01-0.02,0.02-0.02,0.04c-1.86,2.9-3.18,6.35-3.86,10.25
		c-0.2,1.13-0.4,2.73-0.46,4.77c-0.3,0.26-0.59,0.53-0.85,0.84c-1.87,2.19-4.47,7.72-6.82,15.36c-3.72,10.52-6.67,24.76-5.74,41.39
		c0.02,0.4,0.05,0.79,0.08,1.18c0.23,6.31,0.99,12.73,2.46,19.05c0.26,1.11,0.54,2.21,0.84,3.29c6.29,25.08,20.94,41.36,45.68,51.49
		c0.02,0.01,0.05,0.02,0.07,0.03c16.38,7.04,31.99,10.57,46.7,10.57c6.55,0,12.93-0.7,19.12-2.1c4.67,11.1,11.55,25.58,21.28,41.96
		c-5.03-0.44-10.11,0.44-14.8,2.61c-12.73,5.91-22.21,22.07-12.94,43.58c6.35,14.73,20.5,43.38,30.84,64.29
		c3.44,6.95,6.49,13.13,8.75,17.78l0.11,0.22c6.58,13.52,12.2,25.04,23.11,37.03c-0.7,11.75,1.68,30.91,14.42,47.5
		c13.51,17.61,35.77,28.31,50.49,35.39c0.99,0.47,1.94,0.93,2.84,1.37c21.81,10.58,42.66,16.25,58.68,16.25
		c5.02,0,9.57-0.56,13.52-1.7c0.54-0.16,1.06-0.37,1.53-0.63c10.78,4.06,22.09,7.03,32.24,7.14c10.24,4.37,23.38,6.93,38.42,6.93
		c26.33,0,58.46-7.81,90.94-27.33l185.6,2.38c4.21,0.06,7.66-3.31,7.71-7.52c0.05-4.21-3.31-7.66-7.52-7.71l-3.09-0.04l-184.69-2.37
		c-1.43-0.02-2.86,0.37-4.09,1.13c-47.61,29.26-94.8,30.88-118.51,20c-44.94-20.63-68.58-64.75-66.52-77.85
		c2.47-15.75,16.13-48.8,37.91-57.53c9.58-3.84,21.29-3.34,25.11,5.06c3.22,7.07-1.79,15.28-12.76,20.9
		c-1.64,0.84-2.92,2.24-3.6,3.95l-7.87,19.71c-0.77,1.93-0.75,4.09,0.12,5.98c0.87,1.89,2.44,3.34,4.41,4.02
		c0.09,0.03,9.41,3.49,22.75,15.36c3.14,2.8,7.96,2.52,10.75-0.63s2.52-7.96-0.63-10.75c-8.52-7.58-15.68-12.23-20.62-14.96
		l0.72-1.81c18.95,8.31,38.85,15.55,59.19,21.52c0.72,0.21,1.44,0.31,2.15,0.31c3.29,0,6.33-2.15,7.31-5.48
		c1.18-4.04-1.13-8.27-5.17-9.45c-18.6-5.46-36.81-12.01-54.22-19.49c4.99-3.88,8.75-8.42,11.04-13.41
		c3.35-7.29,3.45-15.13,0.28-22.08c-5.22-11.46-19.35-19.5-37.49-15.17c5.17-5.84,8.2-12.41,8.8-19.23
		c0.42-4.77-0.38-9.47-2.27-13.74c42.41,16.29,83.78,36.48,95.51,47.46c1.36,1.27,3.13,2,4.99,2.05c0.31,0.01,0.67,0.01,1.08,0.01
		c24.18,0,215.64-14.85,229.39-15.92c0.2-0.02,0.37-0.03,0.5-0.04c4.19-0.33,7.33-3.99,7-8.19S775.84,379.42,771.65,379.75z
		 M249.64,88.12c-0.23-3.83-0.76-7.22-1.5-10.24c0.46,0.16,0.92,0.33,1.4,0.51c6.72,2.59,16.71,7.99,26.12,19.01
		c12.76,14.94,19.87,39.78,16.55,57.77c-0.46,2.51-1.12,4.82-1.96,6.94c-0.12,0.26-0.24,0.53-0.33,0.81
		c-2.34,5.49-5.99,9.61-10.91,12.29c-0.16,0.09-16.37,8.88-38.31,11.08c-24.06,2.41-45.35-3.71-63.46-18.21
		c20.68-0.86,35.29-9.41,44.59-17.55C242.4,132.54,250.66,105.57,249.64,88.12z M207.14,110.78c8.66-16.1,7.56-31.66,5.56-42.54
		c4.62-0.79,9.91-0.63,14.07,2.41l0.29-0.07c5.41,4.04,7.01,12.19,7.38,18.44c0.84,14.3-6.66,36.08-22.63,50.05
		c-13.6,11.9-30.73,16.15-50.93,12.71c-6-7.18-10.44-14.01-13.6-20.25C175.15,139.21,198.03,127.69,207.14,110.78z M167.63,64.71
		c7.34-2.23,16.24-0.89,20.97,5.46c-5.44,7.2-13.41,11.85-23.74,13.84c-4.53,0.87-8.72,1.06-11.87,1.01
		C152.96,76.6,156.75,68.01,167.63,64.71z M141.04,104.62c0.26-1.47,0.87-3.81,2.24-5.4c0.51,0.2,1.03,0.37,1.59,0.46
		c0.47,0.07,3.93,0.6,9.07,0.6c11.47,0,31.31-2.6,44.9-18.54c0.16,7.02-1.07,14.29-5.13,21.82c-8.9,16.53-32.1,17.95-49.4,10.89
		c-1.03-0.42-2.09-0.59-3.13-0.56C140.61,110.28,140.6,107.16,141.04,104.62z M167.1,225.34c-18.89-8.15-31.2-21.75-36.58-40.4
		c-0.22-0.76-0.42-1.52-0.61-2.29c-1.21-5.28-2-11.09-2.43-17.46c-0.45-12.1,1.39-23.61,3.56-32.35
		c4.36,10.35,11.98,22.72,25.08,36.47c24.81,26.05,52.77,32.72,74.87,32.72c4.17,0,8.14-0.24,11.84-0.63
		c13.08-1.38,24.22-4.74,31.96-7.67c-8.22,12.42-20.13,25.65-36.48,33.43C217.84,236.89,193.88,236.28,167.1,225.34z M291.6,411.5
		c-1.63,8.47-3.21,16.67-4.6,23.79c-5-7.3-8.69-14.88-12.95-23.63l-0.11-0.22c-2.27-4.67-5.34-10.87-8.79-17.86
		c-10.26-20.77-24.31-49.21-30.51-63.58c-5.63-13.06-0.63-20.95,5.37-23.73c6.18-2.87,15.13-1.37,20.16,8.7
		c7.11,14.26,24.38,43.15,37.59,64.84C295.86,389.33,293.7,400.55,291.6,411.5z M338.69,338.04c0.01-0.01,1.45-1.4,7.53-1.64
		c12.27-0.48,32.12,3.89,54.53,10.81c-2.5,1.17-5.01,2.67-7.48,4.57c-14.44,11.09-25.97,20.79-35.77,37.44
		c0.13-0.93,0.26-1.86,0.39-2.77c3.37-23.98-7.57-37.71-20.62-41.34C337.15,342.34,337.63,339.95,338.69,338.04z M357.85,525.91
		c-0.92-0.45-1.88-0.91-2.89-1.39c-13.42-6.45-33.71-16.21-45.01-30.93c-12.55-16.35-12.04-35.54-10.79-41.55
		c1.87-8.95,4.55-22.89,7.39-37.66c2.75-14.31,5.6-29.12,7.8-39.83c1.74-8.46,8.53-16.59,17.71-15.01
		c8.43,1.46,12.65,11.19,10.74,24.79c-4.02,28.61-9.08,65.45-9.13,65.82c-0.11,0.84-0.08,1.66,0.07,2.45
		c-2.7,13.69-3.14,26.85,1.11,36.64c5.98,13.78,31.03,32.68,50.67,44.67c2.21,1.35,5,3,8.19,4.8
		C382.86,536.38,370.43,532.01,357.85,525.91z M421.36,386.36c-0.27,0.25-0.52,0.52-0.76,0.81l-18.44,23.01
		c-0.41,0.51-0.75,1.07-1.01,1.66l-11.31,25.36c-0.88,1.85-1.69,3.68-2.45,5.5l-0.14,0.32c-0.06,0.13-0.1,0.26-0.15,0.39
		c-3.59,8.72-5.81,16.82-6.71,22.53c-2.44,15.52,11.31,44.05,36.22,67.52c-30.97-14.73-62.93-39.11-67.78-50.28
		c-5.47-12.61,0.87-41.77,16.55-76.09c9.63-21.07,20.47-30.39,37.18-43.23c9.35-7.18,18.41-4.78,22.88,0.5
		C429.6,369.29,430.72,377.66,421.36,386.36z"/>
	<path d="M769.43,64.97v1.98l-2.02-0.49v-1.88l-2.06-0.43v1.81l-3.42-0.8v2.49l3.42,0.8v1.77l-3.42-0.8v2.49l3.42,0.8v2.04
		l2.06,0.43v-1.98l2.02,0.49v1.88l2.06,0.43v-1.83l3.42,0.82v-2.49l-3.42-0.82v-1.77l3.42,0.83v-2.49l-3.42-0.82V65.4L769.43,64.97z
		 M769.43,71.21l-2.02-0.49v-1.77l2.02,0.5V71.21z"/>
	<path d="M768.42,78.64c-4,0-6.74,2.87-6.74,6.66c0,3.98,2.51,6.1,5.75,6.35l0.14-3.36c-1.44-0.21-2.78-0.99-2.78-3.01
		c0-1.92,1.42-3.03,3.63-3.03s3.63,1.11,3.63,3.03c0,2.02-1.34,2.8-2.78,3.01l0.12,3.36c3.24-0.25,5.77-2.37,5.77-6.35
		C775.16,81.5,772.42,78.64,768.42,78.64z"/>
	<path d="M761.72,100.73c0,0.95,0.27,1.61,0.6,2.08h1.77c-0.1-0.27-0.14-0.47-0.14-0.74c0-0.35,0.21-0.56,0.68-0.56h3.13
		c2.56,0,3.61-1.79,3.61-4.23c0-2.76-1.4-4.27-3.42-4.56l-0.21,3.09c0.68,0.14,1.15,0.52,1.15,1.26c0,0.8-0.45,1.15-1.22,1.15h-0.14
		l-0.43-2.58c-0.35-2-1.11-3.28-2.89-3.28c-1.57,0-2.49,1.18-2.49,2.97c0,1.46,0.56,2.52,1.63,3.05
		C762.3,98.71,761.72,99.6,761.72,100.73z M764.65,95.6c0.6,0,0.85,0.47,1.01,1.28l0.25,1.36h-0.14c-1.2,0-1.9-0.76-1.9-1.71
		C763.87,95.97,764.18,95.6,764.65,95.6z"/>
	<path d="M758.63,107.12h4.86c-1.07,0.45-1.81,1.48-1.81,3.03c0,2.7,2.12,4.08,4.84,4.08c2.7,0,4.84-1.38,4.84-4.08
		c0-1.55-0.74-2.58-1.83-3.03h1.59v-3.34h-12.49V107.12z M766.46,107.12h0.12c1.32,0,2.18,0.72,2.18,1.86c0,1.3-0.93,1.9-2.25,1.9
		c-1.34,0-2.27-0.6-2.27-1.9C764.26,107.84,765.12,107.12,766.46,107.12z"/>
	<rect x="771.99" y="115.53" width="2.93" height="3.38"/>
	<rect x="761.93" y="115.55" width="9.19" height="3.34"/>
	<path d="M770.98,120.48l-0.1-0.68h-2.06v1.24h-4.33c-2.16,0-2.8,1.46-2.8,3.01c0,1.26,0.31,2.06,0.82,2.76h2.16
		c-0.23-0.56-0.31-1.01-0.31-1.42c0-0.68,0.31-1.05,1.09-1.05h3.36v2.39h2.31v-2.39h2.54v-2.1l-1.2-0.31
		C771.62,121.69,771.12,121.4,770.98,120.48z"/>
	<path d="M761.72,135.9c0,0.95,0.27,1.61,0.6,2.08h1.77c-0.1-0.27-0.14-0.47-0.14-0.74c0-0.35,0.21-0.56,0.68-0.56h3.13
		c2.56,0,3.61-1.79,3.61-4.23c0-2.76-1.4-4.27-3.42-4.56l-0.21,3.09c0.68,0.14,1.15,0.52,1.15,1.26c0,0.8-0.45,1.15-1.22,1.15h-0.14
		l-0.43-2.58c-0.35-2-1.11-3.28-2.89-3.28c-1.57,0-2.49,1.18-2.49,2.97c0,1.46,0.56,2.51,1.63,3.05
		C762.3,133.88,761.72,134.76,761.72,135.9z M764.65,130.76c0.6,0,0.85,0.47,1.01,1.28l0.25,1.36h-0.14c-1.2,0-1.9-0.76-1.9-1.71
		C763.87,131.13,764.18,130.76,764.65,130.76z"/>
	<rect x="761.93" y="138.94" width="12.99" height="3.34"/>
	<rect x="761.93" y="144.1" width="9.19" height="3.34"/>
	<rect x="771.99" y="144.08" width="2.93" height="3.38"/>
	<path d="M764.73,157.47c1.79,0,2.72-1.2,3.05-3.26l0.31-1.79c0.04-0.31,0.21-0.56,0.52-0.56c0.41,0,0.66,0.37,0.66,1.01
		c0,1.03-0.41,1.61-1.07,1.73l0.08,2.74c1.92-0.19,3.09-1.75,3.09-4.41c0-2.58-1.3-4.16-3.11-4.16c-1.88,0-2.6,1.18-2.95,3.4
		l-0.21,1.36c-0.1,0.64-0.35,0.85-0.7,0.85c-0.37,0-0.64-0.39-0.64-1.13c0-1.01,0.43-1.63,1.2-1.75l-0.04-2.91
		c-2.23,0.19-3.24,2.08-3.24,4.62C761.68,155.83,762.79,157.47,764.73,157.47z"/>
	<path d="M771.37,164.96c0-1.38-0.62-2.37-1.63-2.87h1.38v-3.34h-9.19v3.34h4.51c1.38,0,2.29,0.39,2.29,1.48
		c0,1.01-0.66,1.26-1.92,1.26h-4.89v3.34h4.51c1.38,0,2.29,0.37,2.29,1.48c0,1.01-0.66,1.24-1.92,1.24h-4.89v3.34h5.77
		c1.92,0,3.67-0.74,3.67-3.28c0-1.55-0.78-2.64-1.81-3.13C770.63,167.43,771.37,166.58,771.37,164.96z"/>
	<rect x="761.93" y="177.82" width="12.99" height="3.5"/>
	<path d="M764.96,185.47l-0.04-2.91c-2.23,0.19-3.24,2.08-3.24,4.62c0,2.62,1.11,4.27,3.05,4.27c1.79,0,2.72-1.2,3.05-3.26
		l0.31-1.79c0.04-0.31,0.21-0.56,0.52-0.56c0.41,0,0.66,0.37,0.66,1.01c0,1.03-0.41,1.61-1.07,1.73l0.08,2.74
		c1.92-0.19,3.09-1.75,3.09-4.41c0-2.58-1.3-4.16-3.11-4.16c-1.88,0-2.6,1.18-2.95,3.4l-0.21,1.36c-0.1,0.64-0.35,0.85-0.7,0.85
		c-0.37,0-0.64-0.39-0.64-1.13C763.76,186.21,764.2,185.59,764.96,185.47z"/>
	<path d="M774.92,198.79l-12.99-5.17v3.52l2.51,0.97v5.07l-2.51,0.97v3.73l12.99-5.17V198.79z M770.9,200.69l-3.83,1.48v-3.05
		l3.83,1.48V200.69z"/>
	<polygon points="774.92,213.35 774.92,209.68 761.93,214.67 761.93,218.36 774.92,223.35 774.92,219.86 766.28,216.65 
		766.28,216.56 	"/>
	<rect x="761.93" y="224.25" width="9.19" height="3.34"/>
	<rect x="771.99" y="224.23" width="2.93" height="3.38"/>
	<path d="M769.49,232.74h1.63v-3.34h-9.19v3.34h4.21c1.55,0,2.12,0.76,2.12,2c0,0.64-0.12,1.13-0.39,1.59l3.15,0.21
		c0.19-0.23,0.35-0.72,0.35-1.28C771.37,234.04,770.52,233.07,769.49,232.74z"/>
	<path d="M766.22,240.8h4.91v-3.34h-5.79c-1.92,0-3.65,0.76-3.65,3.28c0,1.38,0.6,2.39,1.63,2.89h-1.38v3.34h9.19v-3.34h-4.51
		c-1.4,0-2.31-0.41-2.31-1.46C764.3,241.15,764.98,240.8,766.22,240.8z"/>
	<path d="M768.2,254.14l0.08,2.74c1.92-0.19,3.09-1.75,3.09-4.41c0-2.58-1.3-4.16-3.11-4.16c-1.88,0-2.6,1.17-2.95,3.4l-0.21,1.36
		c-0.1,0.64-0.35,0.85-0.7,0.85c-0.37,0-0.64-0.39-0.64-1.13c0-1.01,0.43-1.63,1.2-1.75l-0.04-2.91c-2.23,0.19-3.24,2.08-3.24,4.62
		c0,2.62,1.11,4.27,3.05,4.27c1.79,0,2.72-1.2,3.05-3.26l0.31-1.79c0.04-0.31,0.21-0.56,0.52-0.56c0.41,0,0.66,0.37,0.66,1.01
		C769.27,253.43,768.86,254.01,768.2,254.14z"/>
</g>
<g id="exp_white_bg" class="st0">
	<g class="st2">
		<path class="st5" d="M20.57,175.33c0.82,0,1.34-0.41,1.34-0.97c0-0.56-0.52-0.97-1.34-0.97c-0.8,0-1.32,0.41-1.32,0.97
			C19.25,174.92,19.77,175.33,20.57,175.33z"/>
		<polygon class="st5" points="17.89,263.77 21.73,265.25 21.73,262.2 17.89,263.69 		"/>
		<path class="st5" d="M22.26,356.82c-1.32,0-2.25,0.6-2.25,1.9c0,1.13,0.87,1.86,2.19,1.86h0.12c1.34,0,2.21-0.72,2.21-1.86
			C24.53,357.42,23.6,356.82,22.26,356.82z"/>
		<path class="st5" d="M23.03,369.46h-0.14l0.25,1.36c0.16,0.8,0.41,1.28,1.01,1.28c0.47,0,0.78-0.37,0.78-0.93
			C24.92,370.22,24.22,369.46,23.03,369.46z"/>
		<path class="st5" d="M23.03,334.3h-0.14l0.25,1.36c0.16,0.8,0.41,1.28,1.01,1.28c0.47,0,0.78-0.37,0.78-0.93
			C24.92,335.06,24.22,334.3,23.03,334.3z"/>
		<path class="st5" d="M27.83,176.77c0.66,0,0.84-0.93,0.84-2.16c0-1.55-0.31-2.68-0.87-2.68c-0.39,0-0.54,0.29-0.54,0.85v3.38
			C27.27,176.53,27.48,176.77,27.83,176.77z"/>
		<polygon class="st5" points="767.41,70.72 769.43,71.21 769.43,69.44 767.41,68.95 		"/>
		<polygon class="st5" points="767.06,202.17 770.9,200.69 770.9,200.6 767.06,199.12 		"/>
		<path class="st5" d="M765.76,133.4h0.14l-0.25-1.36c-0.17-0.8-0.41-1.28-1.01-1.28c-0.47,0-0.78,0.37-0.78,0.93
			C763.87,132.64,764.57,133.4,765.76,133.4z"/>
		<path class="st5" d="M765.76,98.24h0.14l-0.25-1.36c-0.17-0.8-0.41-1.28-1.01-1.28c-0.47,0-0.78,0.37-0.78,0.93
			C763.87,97.48,764.57,98.24,765.76,98.24z"/>
		<path class="st5" d="M766.53,110.87c1.32,0,2.25-0.6,2.25-1.9c0-1.13-0.87-1.86-2.18-1.86h-0.12c-1.34,0-2.21,0.72-2.21,1.86
			C764.26,110.28,765.19,110.87,766.53,110.87z"/>
		<path class="st5" d="M22.26,194.68c1.38,0,2.33-0.49,2.33-1.67c0-1.15-0.95-1.67-2.33-1.67c-1.38,0-2.33,0.52-2.33,1.67
			C19.94,194.19,20.88,194.68,22.26,194.68z"/>
		<path class="st5" d="M0,612h792V-612H0V612z M26.86,404.1l-5.19,1.34v0.08l5.19,1.34v3.28l-9.06,2.86l9.06,2.86v3.28l-5.19,1.34
			v0.08l5.19,1.34v3.28l-9.06,2.86l9.06,2.86v3.28l-5.19,1.34v0.08l5.19,1.34v3.28l-9.19,2.91v-3.32l5.22-1.65v-0.08l-5.22-1.34
			v-2.66l5.22-1.34v-0.08l-5.22-1.65v-2.92v-0.09v-3.23l5.22-1.65v-0.08l-5.22-1.34v-2.66l5.22-1.34v-0.08l-5.22-1.65v-2.92v-0.09
			v-3.23l5.22-1.65V408l-5.22-1.34V404l5.22-1.34v-0.08l-5.22-1.65v-3.01l9.19,2.91V404.1z M26.86,395.49h-3.55v-3.55h3.55V395.49z
			 M30.16,363.91H17.67v-3.34h1.59c-1.09-0.45-1.83-1.48-1.83-3.03c0-2.7,2.14-4.08,4.84-4.08c2.72,0,4.84,1.38,4.84,4.08
			c0,1.55-0.74,2.58-1.81,3.03h4.86V363.91z M27.07,372.34c0,1.79-0.93,2.97-2.49,2.97c-1.77,0-2.54-1.28-2.89-3.28l-0.43-2.58
			h-0.14c-0.76,0-1.22,0.35-1.22,1.15c0,0.74,0.47,1.11,1.15,1.26l-0.21,3.09c-2.02-0.29-3.42-1.79-3.42-4.56
			c0-2.43,1.05-4.23,3.61-4.23h3.13c0.47,0,0.68-0.21,0.68-0.56c0-0.27-0.04-0.47-0.14-0.74h1.77c0.33,0.47,0.6,1.13,0.6,2.08
			c0,1.13-0.58,2.02-1.63,2.33C26.51,369.83,27.07,370.88,27.07,372.34z M24.7,329.72h1.77c0.33,0.47,0.6,1.13,0.6,2.08
			c0,1.13-0.58,2.02-1.63,2.33c1.07,0.54,1.63,1.59,1.63,3.05c0,1.79-0.93,2.97-2.49,2.97c-1.77,0-2.54-1.28-2.89-3.28l-0.43-2.58
			h-0.14c-0.76,0-1.22,0.35-1.22,1.15c0,0.74,0.47,1.11,1.15,1.26l-0.21,3.09c-2.02-0.29-3.42-1.79-3.42-4.56
			c0-2.43,1.05-4.23,3.61-4.23h3.13c0.47,0,0.68-0.21,0.68-0.56C24.84,330.19,24.8,329.99,24.7,329.72z M17.42,296.74
			c0-2.54,1.75-3.28,3.67-3.28h5.77v3.34h-4.89c-1.26,0-1.92,0.23-1.92,1.24c0,1.11,0.91,1.48,2.29,1.48h4.51v3.34h-4.89
			c-1.26,0-1.92,0.25-1.92,1.26c0,1.09,0.91,1.48,2.29,1.48h4.51v3.34h-9.19v-3.34h1.38c-1.01-0.49-1.63-1.48-1.63-2.87
			c0-1.63,0.74-2.47,1.81-2.87C18.2,299.38,17.42,298.29,17.42,296.74z M20.51,310.35l0.08,2.74c-0.66,0.12-1.07,0.7-1.07,1.73
			c0,0.64,0.25,1.01,0.66,1.01c0.31,0,0.47-0.25,0.52-0.56l0.31-1.79c0.33-2.06,1.26-3.26,3.05-3.26c1.94,0,3.05,1.65,3.05,4.27
			c0,2.54-1.01,4.43-3.24,4.62l-0.04-2.91c0.76-0.12,1.2-0.74,1.2-1.75c0-0.74-0.27-1.13-0.64-1.13c-0.35,0-0.6,0.21-0.7,0.85
			l-0.21,1.36c-0.35,2.23-1.07,3.4-2.95,3.4c-1.81,0-3.11-1.59-3.11-4.16C17.42,312.1,18.6,310.53,20.51,310.35z M24.39,277.68
			c-0.35,0-0.6,0.21-0.7,0.85l-0.21,1.36c-0.35,2.23-1.07,3.4-2.95,3.4c-1.81,0-3.11-1.59-3.11-4.16c0-2.66,1.18-4.23,3.09-4.41
			l0.08,2.74c-0.66,0.12-1.07,0.7-1.07,1.73c0,0.64,0.25,1.01,0.66,1.01c0.31,0,0.47-0.25,0.52-0.56l0.31-1.79
			c0.33-2.06,1.26-3.26,3.05-3.26c1.94,0,3.05,1.65,3.05,4.27c0,2.54-1.01,4.43-3.24,4.62l-0.04-2.91c0.76-0.12,1.2-0.74,1.2-1.75
			C25.03,278.07,24.76,277.68,24.39,277.68z M22.66,183.33h4.21v3.34h-9.19v-3.34h1.63c-1.03-0.33-1.88-1.3-1.88-2.52
			c0-0.56,0.17-1.05,0.35-1.28l3.15,0.21c-0.27,0.45-0.39,0.95-0.39,1.59C20.53,182.56,21.11,183.33,22.66,183.33z M22.26,187.98
			c2.87,0,4.84,2.04,4.84,5.03c0,3.01-1.98,5.03-4.84,5.03c-2.84,0-4.84-2.02-4.84-5.03C17.42,190.02,19.42,187.98,22.26,187.98z
			 M26.86,200.93v3.55h-3.55v-3.55H26.86z M20.51,207.44l0.08,2.74c-0.66,0.12-1.07,0.7-1.07,1.73c0,0.64,0.25,1.01,0.66,1.01
			c0.31,0,0.47-0.25,0.52-0.56l0.31-1.79c0.33-2.06,1.26-3.26,3.05-3.26c1.94,0,3.05,1.65,3.05,4.27c0,2.54-1.01,4.43-3.24,4.62
			l-0.04-2.91c0.76-0.12,1.2-0.74,1.2-1.75c0-0.74-0.27-1.13-0.64-1.13c-0.35,0-0.6,0.21-0.7,0.85l-0.21,1.36
			c-0.35,2.23-1.07,3.4-2.95,3.4c-1.81,0-3.11-1.59-3.11-4.16C17.42,209.19,18.6,207.62,20.51,207.44z M22.18,220.69h-4.51v-3.34
			h9.19v3.34h-1.38c1.03,0.49,1.63,1.5,1.63,2.89c0,2.52-1.73,3.28-3.65,3.28h-5.79v-3.34h4.91c1.24,0,1.92-0.35,1.92-1.36
			C24.49,221.1,23.58,220.69,22.18,220.69z M17.77,227.78l3.15,0.21c-0.27,0.45-0.39,0.95-0.39,1.59c0,1.24,0.58,2,2.12,2h4.21v3.34
			h-9.19v-3.34h1.63c-1.03-0.33-1.88-1.3-1.88-2.52C17.42,228.5,17.58,228.01,17.77,227.78z M17.67,236.73h9.19v3.34h-9.19V236.73z
			 M17.67,320.26h9.19v3.34h-9.19V320.26z M17.67,343.36v-2.39h2.31v2.39h3.36c0.78,0,1.09-0.37,1.09-1.05
			c0-0.41-0.08-0.87-0.31-1.42h2.16c0.52,0.7,0.82,1.5,0.82,2.76c0,1.55-0.64,3.01-2.8,3.01h-4.33v1.24h-2.06l-0.1-0.68
			c-0.14-0.93-0.64-1.22-1.48-1.44l-1.2-0.31v-2.1H17.67z M26.86,348.81v3.34h-9.19v-3.34H26.86z M188.39-183.45h26.71l17.04,23.75
			l17.04-23.75h25.1l-30.06,39.99l32.48,44.55h-26.71l-19.59-26.97l-19.32,26.97h-25.1h-24.29l-6.31-16.37h-33.01l-6.31,16.37H93.11
			l33.68-84.55h25.5l33.68,84.55l32.48-43.21L188.39-183.45z M779.83,386.75c0.33,4.19-2.81,7.86-7,8.19
			c-0.12,0.01-0.29,0.02-0.5,0.04c-13.75,1.07-205.21,15.92-229.39,15.92c-0.41,0-0.77,0-1.08-0.01c-1.86-0.05-3.64-0.78-4.99-2.05
			c-11.73-10.98-53.1-31.17-95.51-47.46c1.89,4.28,2.69,8.97,2.27,13.74c-0.6,6.81-3.62,13.39-8.8,19.23
			c18.13-4.33,32.27,3.7,37.49,15.17c3.17,6.95,3.07,14.8-0.28,22.08c-2.29,5-6.05,9.53-11.04,13.41
			c17.41,7.48,35.62,14.04,54.22,19.49c4.04,1.18,6.35,5.42,5.17,9.45c-0.97,3.32-4.01,5.48-7.31,5.48c-0.71,0-1.43-0.1-2.15-0.31
			c-20.34-5.97-40.24-13.21-59.19-21.52l-0.72,1.81c4.94,2.73,12.1,7.38,20.62,14.96c3.14,2.8,3.42,7.61,0.63,10.75
			s-7.61,3.42-10.75,0.63c-13.35-11.87-22.66-15.32-22.75-15.36c-1.97-0.68-3.55-2.13-4.41-4.02c-0.87-1.89-0.89-4.05-0.12-5.98
			l7.87-19.71c0.68-1.71,1.96-3.11,3.6-3.95c10.97-5.62,15.98-13.83,12.76-20.9c-3.82-8.4-15.53-8.9-25.11-5.06
			c-21.78,8.73-35.44,41.77-37.91,57.53c-2.06,13.1,21.58,57.22,66.52,77.85c23.71,10.88,70.9,9.26,118.51-20
			c1.23-0.75,2.66-1.15,4.09-1.13l184.69,2.37l3.09,0.04c4.21,0.05,7.57,3.51,7.52,7.71c-0.05,4.21-3.5,7.58-7.71,7.52l-185.6-2.38
			c-32.48,19.52-64.61,27.33-90.94,27.33c-15.04,0-28.18-2.55-38.42-6.93c-10.15-0.12-21.46-3.09-32.24-7.14
			c-0.48,0.26-0.99,0.48-1.53,0.63c-3.95,1.14-8.5,1.7-13.52,1.7c-16.02,0-36.87-5.68-58.68-16.25c-0.9-0.44-1.85-0.9-2.84-1.37
			c-14.73-7.08-36.98-17.78-50.49-35.39c-12.74-16.59-15.12-35.75-14.42-47.5c-10.91-11.99-16.53-23.51-23.11-37.03l-0.11-0.22
			c-2.26-4.65-5.31-10.82-8.75-17.78c-10.34-20.92-24.49-49.56-30.84-64.29c-9.27-21.51,0.21-37.67,12.94-43.58
			c4.68-2.18,9.77-3.05,14.8-2.61c-9.73-16.39-16.61-30.86-21.28-41.96c-6.19,1.4-12.57,2.1-19.12,2.1
			c-14.72,0-30.32-3.53-46.7-10.57c-0.02-0.01-0.05-0.02-0.07-0.03c-24.74-10.13-39.39-26.41-45.68-51.49
			c-0.3-1.09-0.58-2.18-0.84-3.29c-1.46-6.32-2.23-12.74-2.46-19.05c-0.02-0.4-0.06-0.78-0.08-1.18
			c-0.93-16.64,2.02-30.87,5.74-41.39c2.35-7.63,4.95-13.16,6.82-15.36c0.27-0.31,0.55-0.58,0.85-0.84
			c0.07-2.03,0.27-3.64,0.46-4.77c0.68-3.9,2-7.36,3.86-10.25c0.01-0.01,0.02-0.02,0.02-0.04c0.26-0.41,0.54-0.8,0.82-1.19
			c0.04-0.06,0.08-0.11,0.12-0.17c0.3-0.39,0.6-0.78,0.93-1.15c0.02-0.03,0.05-0.06,0.08-0.09c0.3-0.34,0.61-0.68,0.93-1
			c0.15-0.15,0.3-0.29,0.46-0.43c0.2-0.19,0.4-0.37,0.6-0.55c0.17-0.15,0.34-0.29,0.51-0.43c0.21-0.17,0.42-0.33,0.64-0.5
			c0.17-0.13,0.34-0.25,0.51-0.37c0.25-0.18,0.51-0.35,0.78-0.51c0.14-0.09,0.28-0.18,0.43-0.27c0.33-0.2,0.66-0.38,1-0.56
			c0.02-7.19,1.86-13.82,5.48-19.5c4.5-7.06,11.61-12.35,20.02-14.9c7.85-2.38,16.19-2.21,23.5,0.48c4.34,1.6,8.16,4.06,11.28,7.19
			c0.05-0.05,0.09-0.11,0.14-0.16c0.03-0.03,0.05-0.06,0.07-0.08c0.24-0.26,0.51-0.5,0.78-0.72c0.04-0.03,0.09-0.07,0.13-0.1
			c0.28-0.22,0.58-0.42,0.9-0.6c0.04-0.02,0.08-0.04,0.12-0.06c0.34-0.18,0.68-0.34,1.05-0.48c0.89-0.32,1.78-0.61,2.66-0.88
			c0.08-0.02,0.16-0.05,0.25-0.07c11.81-3.54,22.67-2.57,30.82,2.81c1.15,0.76,2.36,1.69,3.56,2.8c0.01,0,0.02,0,0.03,0
			c0.02,0,0.05,0,0.07,0c1.07,0.04,26.54,1.31,48.68,27.25c15.7,18.39,24.09,48.01,19.94,70.43c-0.68,3.66-1.68,7.08-2.97,10.26
			c-2.01,6.3-18.54,54.52-60.17,73.89c-0.76,0.35-1.53,0.69-2.29,1.02c6.76,15.77,18.16,38.53,35.92,63.66
			c-4.34-14.52-10.93-48.61,13.37-71.52c31.59-29.79,70.83-15.61,74.42-56.14c39.54,45.87,6.76,102.64-22.21,117.53
			c-24.79,12.75-45.51,5.91-61.41,15.89c8.88,12.06,19.21,24.57,31.19,37.05c2.82-1.99,5.88-3.43,9.01-4.33
			c-0.16-5.43,0.96-10.38,3.39-14.74c2.65-4.76,7.66-7.74,14.89-8.87c26.58-4.15,85.68,17.31,109.85,26.73
			c34.84,13.58,78.14,33.69,94.74,47.25c24.22-0.51,156.97-10.47,226.73-15.9C775.84,379.42,779.5,382.55,779.83,386.75z
			 M350.98-25.07v-2.93h3.38v2.93H350.98z M354.34-24.2v9.19H351v-9.19H354.34z M352.99-254.52h-38.44
			c0.49,6.75,5.4,9.95,11.42,9.95c5.4,0,8.84-1.84,10.68-6.14l15.97,1.47c-2.83,12.53-12.9,19.53-27.39,19.53
			c-17.56,0-30.09-10.56-30.09-28c0-17.32,12.77-29.72,29.84-29.72c18.3,0,28,12.53,28,27.39V-254.52z M332.54-21.97
			c-0.74,0-1.11,0.47-1.26,1.15l-3.09-0.21c0.29-2.02,1.79-3.42,4.56-3.42c2.43,0,4.23,1.05,4.23,3.61v3.13
			c0,0.47,0.21,0.68,0.56,0.68c0.27,0,0.47-0.04,0.74-0.14v1.77c-0.47,0.33-1.13,0.6-2.08,0.6c-1.13,0-2.02-0.58-2.33-1.63
			c-0.54,1.07-1.59,1.63-3.05,1.63c-1.79,0-2.97-0.93-2.97-2.49c0-1.77,1.28-2.54,3.28-2.89l2.58-0.43v-0.14
			C333.69-21.52,333.34-21.97,332.54-21.97z M328.5-97.29c-10.07,0-19.59-4.16-19.59-18.25v-28.18h-8.05v-13.42l4.43-0.67
			c6.04-0.94,7.92-4.16,9.39-9.66l2.01-7.78h13.69v16.51h15.57v15.03h-15.57v21.88c0,5.1,2.42,7.11,6.84,7.11
			c2.68,0,5.64-0.54,9.26-2.01v14.09C341.92-99.31,336.68-97.29,328.5-97.29z M320.73-17.87c2.02,0,2.8-1.34,3.01-2.78l3.36,0.14
			c-0.25,3.24-2.37,5.75-6.35,5.75c-3.79,0-6.66-2.74-6.66-6.74c0-4,2.87-6.74,6.66-6.74c3.98,0,6.1,2.54,6.35,5.77l-3.36,0.12
			c-0.21-1.44-0.99-2.78-3.01-2.78c-1.92,0-3.03,1.42-3.03,3.63C317.7-19.29,318.81-17.87,320.73-17.87z M310.64-20.49l-0.43,2.06
			h-2.04l-0.8,3.42h-2.49l0.8-3.42h-1.77l-0.8,3.42h-2.49l0.8-3.42h-1.81l0.43-2.06h1.88l0.49-2.02h-1.98l0.43-2.06h2.02l0.82-3.42
			h2.49l-0.82,3.42h1.77l0.82-3.42h2.49l-0.82,3.42h1.83l-0.43,2.06h-1.88l-0.49,2.02H310.64z M339.23-24.2h3.34v1.59
			c0.45-1.09,1.48-1.83,3.03-1.83c2.7,0,4.08,2.14,4.08,4.84c0,2.72-1.38,4.84-4.08,4.84c-1.55,0-2.58-0.74-3.03-1.81v4.86h-3.34
			V-24.2z M395.87-160.37c16.37,0,21.61,11.41,21.61,23.89v37.58h-21.74v-31.81c0-8.19-2.28-12.48-8.86-12.48
			c-7.38,0-10.33,5.9-10.33,14.9v29.39H354.8v-84.55h21.74v33.68C379.76-156.34,386.88-160.37,395.87-160.37z M417.71-259.44
			l-14.12-2.46c-12.65-2.33-21.49-9.46-21.49-22.97c0-15.72,12.28-25.18,31.56-25.18c21.37,0,32.92,10.44,33.28,27.63l-19.16,0.37
			c-0.61-7.98-6.39-11.67-14.37-11.67c-6.88,0-10.81,2.7-10.81,7c0,3.56,2.95,4.91,7.74,5.77l14.62,2.58
			c16.21,2.83,23.58,11.3,23.58,23.95c0,16.46-14.25,24.69-32.3,24.69c-21,0-35.99-10.19-35.99-28.86l19.16-0.61
			c0.74,9.7,8.23,13.02,16.83,13.02c7.25,0,11.91-2.58,11.91-6.88C428.15-257.59,423.6-258.33,417.71-259.44z M456.27-291.12v-17.44
			h20.14v17.44H456.27z M476.29-285.96v54.78h-19.9v-54.78H476.29z M458-160.37c20,0,30.6,13.69,30.6,29.93v6.04h-42
			c0.54,7.38,5.91,10.87,12.48,10.87c5.9,0,9.66-2.01,11.67-6.71l17.45,1.61c-3.09,13.69-14.09,21.34-29.93,21.34
			c-19.19,0-32.88-11.54-32.88-30.6C425.39-146.82,439.35-160.37,458-160.37z M594.35-118.36c1.21,12.61,1.61,16.37,4.43,19.46
			h-23.08c-1.75-2.28-2.82-7.52-3.49-16.24c-0.67-9.66-4.83-11.81-12.48-11.81h-15.17v28.05h-22.41v-84.55h42.68
			c21.87,0,32.75,10.33,32.75,26.84c0,12.35-7.65,20.4-17.98,21.74C588.31-133.13,593.41-128.16,594.35-118.36z M514.36-244.7
			c5.77,0,9.09-3.32,10.44-10.07l16.33,1.23c-1.35,13.26-10.56,23.83-27.02,23.83c-17.32,0-29.97-11.42-29.97-28.86
			c0-17.32,12.65-28.86,29.97-28.86c16.46,0,25.67,10.69,27.02,23.83l-16.33,1.11c-1.35-6.75-4.67-9.95-10.44-9.95
			c-6.02,0-10.19,4.05-10.19,13.88C504.17-248.75,508.34-244.7,514.36-244.7z M488.51-18.18l-1.36-0.21
			c-2.23-0.35-3.4-1.07-3.4-2.95c0-1.81,1.59-3.11,4.16-3.11c2.66,0,4.23,1.18,4.41,3.09l-2.74,0.08c-0.12-0.66-0.7-1.07-1.73-1.07
			c-0.64,0-1.01,0.25-1.01,0.66c0,0.31,0.25,0.47,0.56,0.52l1.79,0.31c2.06,0.33,3.26,1.26,3.26,3.05c0,1.94-1.65,3.05-4.27,3.05
			c-2.54,0-4.43-1.01-4.62-3.24l2.91-0.04c0.12,0.76,0.74,1.2,1.75,1.2c0.74,0,1.13-0.27,1.13-0.64
			C489.36-17.83,489.15-18.08,488.51-18.18z M476.19-14.76c-2.52,0-3.28-1.73-3.28-3.65v-5.79h3.34v4.91c0,1.24,0.35,1.92,1.36,1.92
			c1.05,0,1.46-0.91,1.46-2.31v-4.51h3.34v9.19h-3.34v-1.38C478.58-15.36,477.57-14.76,476.19-14.76z M470.71-24.45
			c0.56,0,1.05,0.17,1.28,0.35l-0.21,3.15c-0.45-0.27-0.95-0.39-1.59-0.39c-1.24,0-2,0.58-2,2.12v4.21h-3.34v-9.19h3.34v1.63
			C468.52-23.6,469.49-24.45,470.71-24.45z M459.68-25.07v-2.93h3.38v2.93H459.68z M463.04-24.2v9.19h-3.34v-9.19H463.04z
			 M458.8-27.99l-4.99,12.99h-3.69l-4.99-12.99h3.67l3.22,8.64h0.08l3.22-8.64H458.8z M443.33-15.01h-3.73l-0.97-2.51h-5.07
			l-0.97,2.51h-3.53l5.17-12.99h3.92L443.33-15.01z M422.96-18.18l-1.36-0.21c-2.23-0.35-3.4-1.07-3.4-2.95
			c0-1.81,1.59-3.11,4.16-3.11c2.66,0,4.23,1.18,4.41,3.09l-2.74,0.08c-0.12-0.66-0.7-1.07-1.73-1.07c-0.64,0-1.01,0.25-1.01,0.66
			c0,0.31,0.25,0.47,0.56,0.52l1.79,0.31c2.06,0.33,3.26,1.26,3.26,3.05c0,1.94-1.65,3.05-4.27,3.05c-2.54,0-4.43-1.01-4.62-3.24
			l2.91-0.04c0.12,0.76,0.74,1.2,1.75,1.2c0.74,0,1.13-0.27,1.13-0.64C423.8-17.83,423.6-18.08,422.96-18.18z M416.78-27.99v12.99
			h-3.5v-12.99H416.78z M405.11-21.81c-1.11,0-1.48,0.91-1.48,2.29v4.51h-3.34v-4.89c0-1.26-0.25-1.92-1.26-1.92
			c-1.09,0-1.48,0.91-1.48,2.29v4.51h-3.34v-9.19h3.34v1.38c0.49-1.01,1.48-1.63,2.87-1.63c1.63,0,2.47,0.74,2.87,1.81
			c0.5-1.03,1.59-1.81,3.13-1.81c2.54,0,3.28,1.75,3.28,3.67v5.77h-3.34v-4.89C406.34-21.15,406.12-21.81,405.11-21.81z
			 M388.99-18.18l-1.36-0.21c-2.23-0.35-3.4-1.07-3.4-2.95c0-1.81,1.59-3.11,4.16-3.11c2.66,0,4.23,1.18,4.41,3.09l-2.74,0.08
			c-0.12-0.66-0.7-1.07-1.73-1.07c-0.64,0-1.01,0.25-1.01,0.66c0,0.31,0.25,0.47,0.56,0.52l1.79,0.31c2.06,0.33,3.26,1.26,3.26,3.05
			c0,1.94-1.65,3.05-4.27,3.05c-2.54,0-4.43-1.01-4.62-3.24l2.91-0.04c0.12,0.76,0.74,1.2,1.75,1.2c0.74,0,1.13-0.27,1.13-0.64
			C389.83-17.83,389.63-18.08,388.99-18.18z M379.53-25.07v-2.93h3.38v2.93H379.53z M382.89-24.2v9.19h-3.34v-9.19H382.89z
			 M377.73-27.99v12.99h-3.34v-12.99H377.73z M367.7-21.97c-0.74,0-1.11,0.47-1.26,1.15l-3.09-0.21c0.29-2.02,1.79-3.42,4.56-3.42
			c2.43,0,4.23,1.05,4.23,3.61v3.13c0,0.47,0.21,0.68,0.56,0.68c0.27,0,0.47-0.04,0.74-0.14v1.77c-0.47,0.33-1.13,0.6-2.08,0.6
			c-1.13,0-2.02-0.58-2.33-1.63c-0.54,1.07-1.59,1.63-3.05,1.63c-1.79,0-2.97-0.93-2.97-2.49c0-1.77,1.28-2.54,3.28-2.89l2.58-0.43
			v-0.14C368.85-21.52,368.5-21.97,367.7-21.97z M355.25-21.89v-2.06l0.68-0.1c0.93-0.14,1.22-0.64,1.44-1.48l0.31-1.2h2.1v2.54
			h2.39v2.31h-2.39v3.36c0,0.78,0.37,1.09,1.05,1.09c0.41,0,0.87-0.08,1.42-0.31v2.16c-0.7,0.52-1.5,0.82-2.76,0.82
			c-1.55,0-3.01-0.64-3.01-2.8v-4.33H355.25z M606.96-164.4v-19.06h22.01v19.06H606.96z M628.84-158.76v59.85H607.1v-59.85H628.84z
			 M670.44-113.67c6.31,0,9.93-3.62,11.41-11l17.85,1.34c-1.48,14.49-11.54,26.04-29.52,26.04c-18.92,0-32.75-12.48-32.75-31.54
			c0-18.92,13.82-31.54,32.75-31.54c17.98,0,28.05,11.67,29.52,26.04l-17.85,1.21c-1.48-7.38-5.1-10.87-11.41-10.87
			c-6.58,0-11.14,4.43-11.14,15.17S663.87-113.67,670.44-113.67z M761.72,95.35c0-1.79,0.93-2.97,2.49-2.97
			c1.77,0,2.54,1.28,2.89,3.28l0.43,2.58h0.14c0.76,0,1.22-0.35,1.22-1.15c0-0.74-0.47-1.11-1.15-1.26l0.21-3.09
			c2.02,0.29,3.42,1.79,3.42,4.56c0,2.43-1.05,4.23-3.61,4.23h-3.13c-0.47,0-0.68,0.21-0.68,0.56c0,0.27,0.04,0.47,0.14,0.74h-1.77
			c-0.33-0.47-0.6-1.13-0.6-2.08c0-1.13,0.58-2.02,1.63-2.33C762.28,97.87,761.72,96.82,761.72,95.35z M774.92,219.86v3.48
			l-12.99-4.99v-3.69l12.99-4.99v3.67l-8.64,3.22v0.08L774.92,219.86z M774.92,224.23v3.38h-2.93v-3.38H774.92z M768.61,251.39
			c-0.31,0-0.47,0.25-0.52,0.56l-0.31,1.79c-0.33,2.06-1.26,3.26-3.05,3.26c-1.94,0-3.05-1.65-3.05-4.27c0-2.54,1.01-4.43,3.24-4.62
			l0.04,2.91c-0.76,0.12-1.2,0.74-1.2,1.75c0,0.74,0.27,1.13,0.64,1.13c0.35,0,0.6-0.21,0.7-0.85l0.21-1.36
			c0.35-2.23,1.07-3.4,2.95-3.4c1.81,0,3.11,1.59,3.11,4.16c0,2.66-1.17,4.23-3.09,4.41l-0.08-2.74c0.66-0.12,1.07-0.7,1.07-1.73
			C769.27,251.76,769.02,251.39,768.61,251.39z M761.72,130.51c0-1.79,0.93-2.97,2.49-2.97c1.77,0,2.54,1.28,2.89,3.28l0.43,2.58
			h0.14c0.76,0,1.22-0.35,1.22-1.15c0-0.74-0.47-1.11-1.15-1.26l0.21-3.09c2.02,0.29,3.42,1.79,3.42,4.56
			c0,2.43-1.05,4.23-3.61,4.23h-3.13c-0.47,0-0.68,0.21-0.68,0.56c0,0.27,0.04,0.47,0.14,0.74h-1.77c-0.33-0.47-0.6-1.13-0.6-2.08
			c0-1.13,0.58-2.02,1.63-2.33C762.28,133.03,761.72,131.98,761.72,130.51z M761.93,144.1h9.19v3.34h-9.19V144.1z M764.92,148.59
			l0.04,2.91c-0.76,0.12-1.2,0.74-1.2,1.75c0,0.74,0.27,1.13,0.64,1.13c0.35,0,0.6-0.21,0.7-0.85l0.21-1.36
			c0.35-2.23,1.07-3.4,2.95-3.4c1.81,0,3.11,1.59,3.11,4.16c0,2.66-1.17,4.23-3.09,4.41l-0.08-2.74c0.66-0.12,1.07-0.7,1.07-1.73
			c0-0.64-0.25-1.01-0.66-1.01c-0.31,0-0.47,0.25-0.52,0.56l-0.31,1.79c-0.33,2.06-1.26,3.26-3.05,3.26c-1.94,0-3.05-1.65-3.05-4.27
			C761.68,150.67,762.69,148.77,764.92,148.59z M771.37,170.95c0,2.54-1.75,3.28-3.67,3.28h-5.77v-3.34h4.89
			c1.26,0,1.92-0.23,1.92-1.24c0-1.11-0.91-1.48-2.29-1.48h-4.51v-3.34h4.89c1.26,0,1.92-0.25,1.92-1.26c0-1.09-0.91-1.48-2.29-1.48
			h-4.51v-3.34h9.19v3.34h-1.38c1.01,0.5,1.63,1.48,1.63,2.87c0,1.63-0.74,2.47-1.81,2.87
			C770.59,168.32,771.37,169.41,771.37,170.95z M764.4,188.35c0.35,0,0.6-0.21,0.7-0.85l0.21-1.36c0.35-2.23,1.07-3.4,2.95-3.4
			c1.81,0,3.11,1.59,3.11,4.16c0,2.66-1.17,4.23-3.09,4.41l-0.08-2.74c0.66-0.12,1.07-0.7,1.07-1.73c0-0.64-0.25-1.01-0.66-1.01
			c-0.31,0-0.47,0.25-0.52,0.56l-0.31,1.79c-0.33,2.06-1.26,3.26-3.05,3.26c-1.94,0-3.05-1.65-3.05-4.27c0-2.54,1.01-4.43,3.24-4.62
			l0.04,2.91c-0.76,0.12-1.2,0.74-1.2,1.75C763.76,187.96,764.03,188.35,764.4,188.35z M761.93,224.25h9.19v3.34h-9.19V224.25z
			 M766.61,243.62h4.51v3.34h-9.19v-3.34h1.38c-1.03-0.49-1.63-1.5-1.63-2.89c0-2.51,1.73-3.28,3.65-3.28h5.79v3.34h-4.91
			c-1.24,0-1.92,0.35-1.92,1.36C764.3,243.21,765.21,243.62,766.61,243.62z M771.02,236.54l-3.15-0.21
			c0.27-0.45,0.39-0.95,0.39-1.59c0-1.24-0.58-2-2.12-2h-4.21v-3.34h9.19v3.34h-1.63c1.03,0.33,1.88,1.3,1.88,2.52
			C771.37,235.81,771.21,236.31,771.02,236.54z M761.93,207.88v-3.73l2.51-0.97v-5.07l-2.51-0.97v-3.52l12.99,5.17v3.92
			L761.93,207.88z M761.93,181.33v-3.5h12.99v3.5H761.93z M771.99,147.46v-3.38h2.93v3.38H771.99z M761.93,142.28v-3.34h12.99v3.34
			H761.93z M772.46,121.92l1.2,0.31v2.1h-2.54v2.39h-2.31v-2.39h-3.36c-0.78,0-1.09,0.37-1.09,1.05c0,0.41,0.08,0.87,0.31,1.42
			h-2.16c-0.52-0.7-0.82-1.5-0.82-2.76c0-1.55,0.64-3.01,2.8-3.01h4.33v-1.24h2.06l0.1,0.68
			C771.12,121.4,771.62,121.69,772.46,121.92z M771.99,118.91v-3.38h2.93v3.38H771.99z M761.93,118.89v-3.34h9.19v3.34H761.93z
			 M771.12,103.78v3.34h-1.59c1.09,0.45,1.83,1.48,1.83,3.03c0,2.7-2.14,4.08-4.84,4.08c-2.72,0-4.84-1.38-4.84-4.08
			c0-1.55,0.74-2.58,1.81-3.03h-4.86v-3.34H771.12z M769.39,91.65l-0.12-3.36c1.44-0.21,2.78-0.99,2.78-3.01
			c0-1.92-1.42-3.03-3.63-3.03s-3.63,1.11-3.63,3.03c0,2.02,1.34,2.8,2.78,3.01l-0.14,3.36c-3.24-0.25-5.75-2.37-5.75-6.35
			c0-3.79,2.74-6.66,6.74-6.66s6.74,2.87,6.74,6.66C775.16,89.28,772.63,91.4,769.39,91.65z M774.92,68.24v2.49l-3.42-0.83v1.77
			l3.42,0.82v2.49l-3.42-0.82v1.83l-2.06-0.43v-1.88l-2.02-0.49v1.98l-2.06-0.43v-2.04l-3.42-0.8v-2.49l3.42,0.8v-1.77l-3.42-0.8
			v-2.49l3.42,0.8v-1.81l2.06,0.43v1.88l2.02,0.49v-1.98l2.06,0.43v2.02L774.92,68.24z M770.69-136.48v37.58h-21.74v-31.81
			c0-8.19-2.28-12.48-8.86-12.48c-7.38,0-10.33,5.9-10.33,14.9v29.39h-21.74v-84.55h21.74v33.68c3.22-6.58,10.33-10.6,19.33-10.6
			C765.46-160.37,770.69-148.96,770.69-136.48z M610.9-528.01h48.9v140.94h89.74v40.27H610.9V-528.01z M611.5-231.19h-22.35
			l-15.72-22.23l-4.79,4.91v17.32h-19.9v-77.38h19.9v41.51l18.79-18.91h23.34l-22.6,21.49L611.5-231.19z M545.04-346.8l-13.52-35.09
			h-70.76l-13.52,35.09h-49.18l72.19-181.21h54.65L597.1-346.8H545.04z M462.05-588.45v-9.19h3.34v9.19H462.05z M523.04-590.47
			c0-0.89,0.58-1.57,1.57-1.94c-0.82-0.54-1.32-1.32-1.32-2.33c0-1.96,1.86-3.15,4.43-3.15c1.11,0,2.16,0.27,2.95,0.74
			c0.56-0.76,1.57-1.42,2.58-1.42v2.51c-0.39,0-0.89,0.04-1.34,0.14c0.19,0.35,0.29,0.74,0.29,1.17c0,1.94-1.88,3.13-4.47,3.13
			c-0.74,0-1.4-0.08-2-0.27c-0.12,0.1-0.19,0.25-0.19,0.43c0,0.31,0.23,0.56,0.78,0.56h3.81c2.08,0,3.13,1.09,3.13,2.64
			c0,2.29-2.78,3.34-5.77,3.34c-2.62,0-4.89-0.52-4.89-2.25c0-0.8,0.72-1.44,1.75-1.53C523.53-588.94,523.04-589.68,523.04-590.47z
			 M515.45-597.64h3.34v1.63c0.33-1.03,1.3-1.88,2.51-1.88c0.56,0,1.05,0.16,1.28,0.35l-0.21,3.15c-0.45-0.27-0.95-0.39-1.59-0.39
			c-1.24,0-2,0.58-2,2.12v4.21h-3.34V-597.64z M509.1-597.89c2.99,0,5.03,2,5.03,4.84c0,2.87-2.04,4.84-5.03,4.84
			c-3.01,0-5.03-1.98-5.03-4.84C504.08-595.89,506.1-597.89,509.1-597.89z M497.64-591.99h3.55v3.55h-3.55V-591.99z M490.87-591.62
			l-1.36-0.21c-2.23-0.35-3.4-1.07-3.4-2.95c0-1.81,1.59-3.11,4.16-3.11c2.66,0,4.23,1.18,4.41,3.09l-2.74,0.08
			c-0.12-0.66-0.7-1.07-1.73-1.07c-0.64,0-1.01,0.25-1.01,0.66c0,0.31,0.25,0.47,0.56,0.52l1.79,0.31c2.06,0.33,3.26,1.26,3.26,3.05
			c0,1.94-1.65,3.05-4.27,3.05c-2.54,0-4.43-1.01-4.62-3.24l2.91-0.04c0.12,0.76,0.74,1.2,1.75,1.2c0.74,0,1.13-0.27,1.13-0.64
			C491.71-591.27,491.5-591.52,490.87-591.62z M475.26-597.64h3.34v4.91c0,1.24,0.35,1.92,1.36,1.92c1.05,0,1.46-0.91,1.46-2.31
			v-4.51h3.34v9.19h-3.34v-1.38c-0.49,1.03-1.5,1.63-2.89,1.63c-2.52,0-3.28-1.73-3.28-3.65V-597.64z M467.2-597.64h3.34v1.63
			c0.33-1.03,1.3-1.88,2.52-1.88c0.56,0,1.05,0.16,1.28,0.35l-0.21,3.15c-0.45-0.27-0.95-0.39-1.59-0.39c-1.24,0-2,0.58-2,2.12v4.21
			h-3.34V-597.64z M462.03-601.43h3.38v2.93h-3.38V-601.43z M451.15-601.43l3.22,8.64h0.08l3.22-8.64h3.48l-4.99,12.99h-3.69
			l-4.99-12.99H451.15z M436.54-601.43h3.92l5.17,12.99h-3.73l-0.97-2.52h-5.07l-0.97,2.52h-3.53L436.54-601.43z M423.59-591.62
			l-1.36-0.21c-2.23-0.35-3.4-1.07-3.4-2.95c0-1.81,1.59-3.11,4.16-3.11c2.66,0,4.23,1.18,4.41,3.09l-2.74,0.08
			c-0.12-0.66-0.7-1.07-1.73-1.07c-0.64,0-1.01,0.25-1.01,0.66c0,0.31,0.25,0.47,0.56,0.52l1.79,0.31c2.06,0.33,3.26,1.26,3.26,3.05
			c0,1.94-1.65,3.05-4.27,3.05c-2.54,0-4.43-1.01-4.62-3.24l2.91-0.04c0.12,0.76,0.74,1.2,1.75,1.2c0.74,0,1.13-0.27,1.13-0.64
			C424.44-591.27,424.23-591.52,423.59-591.62z M413.91-601.43h3.5v12.99h-3.5V-601.43z M393.17-597.64h3.34v1.38
			c0.49-1.01,1.48-1.63,2.87-1.63c1.63,0,2.47,0.74,2.87,1.81c0.5-1.03,1.59-1.81,3.13-1.81c2.54,0,3.28,1.75,3.28,3.67v5.77h-3.34
			v-4.89c0-1.26-0.23-1.92-1.24-1.92c-1.11,0-1.48,0.91-1.48,2.29v4.51h-3.34v-4.89c0-1.26-0.25-1.92-1.26-1.92
			c-1.09,0-1.48,0.91-1.48,2.29v4.51h-3.34V-597.64z M387.96-591.62l-1.36-0.21c-2.23-0.35-3.4-1.07-3.4-2.95
			c0-1.81,1.59-3.11,4.16-3.11c2.66,0,4.23,1.18,4.41,3.09l-2.74,0.08c-0.12-0.66-0.7-1.07-1.73-1.07c-0.64,0-1.01,0.25-1.01,0.66
			c0,0.31,0.25,0.47,0.56,0.52l1.79,0.31c2.06,0.33,3.26,1.26,3.26,3.05c0,1.94-1.65,3.05-4.27,3.05c-2.54,0-4.43-1.01-4.62-3.24
			l2.91-0.04c0.12,0.76,0.74,1.2,1.75,1.2c0.74,0,1.13-0.27,1.13-0.64C388.8-591.27,388.6-591.52,387.96-591.62z M378.5-601.43h3.38
			v2.93h-3.38V-601.43z M381.86-597.64v9.19h-3.34v-9.19H381.86z M373.37-601.43h3.34v12.99h-3.34V-601.43z M366.67-595.41
			c-0.74,0-1.11,0.47-1.26,1.15l-3.09-0.21c0.29-2.02,1.79-3.42,4.56-3.42c2.43,0,4.23,1.05,4.23,3.61v3.13
			c0,0.47,0.21,0.68,0.56,0.68c0.27,0,0.47-0.04,0.74-0.14v1.77c-0.47,0.33-1.13,0.6-2.08,0.6c-1.13,0-2.02-0.58-2.33-1.63
			c-0.54,1.07-1.59,1.63-3.05,1.63c-1.79,0-2.97-0.93-2.97-2.49c0-1.77,1.28-2.54,3.28-2.89l2.58-0.43v-0.14
			C367.82-594.96,367.47-595.41,366.67-595.41z M354.22-597.39l0.68-0.1c0.93-0.14,1.22-0.64,1.44-1.48l0.31-1.2h2.1v2.54h2.39v2.31
			h-2.39v3.36c0,0.78,0.37,1.09,1.05,1.09c0.41,0,0.87-0.08,1.42-0.31v2.16c-0.7,0.52-1.5,0.82-2.76,0.82
			c-1.55,0-3.01-0.64-3.01-2.8v-4.33h-1.24V-597.39z M349.95-601.43h3.38v2.93h-3.38V-601.43z M353.31-597.64v9.19h-3.34v-9.19
			H353.31z M338.2-597.64h3.34v1.59c0.45-1.09,1.48-1.83,3.03-1.83c2.7,0,4.08,2.14,4.08,4.84c0,2.72-1.38,4.84-4.08,4.84
			c-1.55,0-2.58-0.74-3.03-1.81v4.87h-3.34V-597.64z M331.51-595.41c-0.74,0-1.11,0.47-1.26,1.15l-3.09-0.21
			c0.29-2.02,1.79-3.42,4.56-3.42c2.43,0,4.23,1.05,4.23,3.61v3.13c0,0.47,0.21,0.68,0.56,0.68c0.27,0,0.47-0.04,0.74-0.14v1.77
			c-0.47,0.33-1.13,0.6-2.08,0.6c-1.13,0-2.02-0.58-2.33-1.63c-0.54,1.07-1.59,1.63-3.05,1.63c-1.79,0-2.97-0.93-2.97-2.49
			c0-1.77,1.28-2.54,3.28-2.89l2.58-0.43v-0.14C332.66-594.96,332.31-595.41,331.51-595.41z M319.72-601.68
			c3.98,0,6.1,2.54,6.35,5.77l-3.36,0.12c-0.21-1.44-0.99-2.78-3.01-2.78c-1.92,0-3.03,1.42-3.03,3.63s1.11,3.63,3.03,3.63
			c2.02,0,2.8-1.34,3.01-2.78l3.36,0.14c-0.25,3.24-2.37,5.75-6.35,5.75c-3.79,0-6.66-2.74-6.66-6.74S315.93-601.68,319.72-601.68z
			 M306.63-591.99h3.55v3.55h-3.55V-591.99z M262.3-597.64l1.65,5.22h0.08l1.34-5.22h2.66l1.34,5.22h0.08l1.65-5.22h2.92h0.09h3.23
			l1.65,5.22h0.08l1.34-5.22h2.66l1.34,5.22h0.08l1.65-5.22h2.92h0.09h3.23l1.65,5.22h0.08l1.34-5.22h2.66l1.34,5.22h0.08l1.65-5.22
			h3.01l-2.91,9.19h-3.28l-1.34-5.19h-0.08l-1.34,5.19h-3.28l-2.86-9.06l-2.86,9.06h-3.28l-1.34-5.19h-0.08l-1.34,5.19h-3.28
			l-2.86-9.06l-2.86,9.06h-3.28l-1.34-5.19h-0.08l-1.34,5.19h-3.28l-2.91-9.19H262.3z M247.35-528.01h140.07v40.27h-92.04v29.63
			h71.04v39.69h-71.04v31.35h94.63v40.27H247.35V-528.01z M230.54-308.56h19.9v30.83c2.95-6.02,9.46-9.7,17.69-9.7
			c14.98,0,19.77,10.44,19.77,21.86v34.39H268v-29.11c0-7.49-2.09-11.42-8.11-11.42c-6.75,0-9.46,5.4-9.46,13.63v26.9h-19.9V-308.56
			z M214.46-245.68c2.46,0,5.16-0.49,8.47-1.84v12.9c-4.18,3.07-8.97,4.91-16.46,4.91c-9.21,0-17.93-3.81-17.93-16.7v-25.79h-7.37
			v-12.28l4.05-0.61c5.53-0.86,7.25-3.81,8.6-8.84l1.84-7.12h12.53v15.11h14.25v13.75h-14.25v20.02
			C208.19-247.52,210.4-245.68,214.46-245.68z M49.75-528.01h48.9v69.89h72.19v-69.89h48.9v181.21h-48.9v-71.62H98.65v71.62h-48.9
			V-528.01z M20.1-183.45h81.06v18.79H71.77v65.76H49.09v-65.76H20.1V-183.45z M19.25,168.88c0,0.39,0.04,0.89,0.14,1.34
			c0.35-0.19,0.74-0.29,1.18-0.29c1.94,0,3.13,1.88,3.13,4.47c0,0.74-0.08,1.4-0.27,2c0.1,0.12,0.25,0.19,0.43,0.19
			c0.31,0,0.56-0.23,0.56-0.78v-3.81c0-2.08,1.09-3.13,2.64-3.13c2.29,0,3.34,2.78,3.34,5.77c0,2.62-0.52,4.89-2.25,4.89
			c-0.8,0-1.44-0.72-1.53-1.75c-0.27,0.82-1.01,1.32-1.79,1.32c-0.89,0-1.57-0.58-1.94-1.57c-0.54,0.82-1.32,1.32-2.33,1.32
			c-1.96,0-3.15-1.86-3.15-4.43c0-1.11,0.27-2.16,0.74-2.95c-0.76-0.56-1.42-1.57-1.42-2.58H19.25z M13.87,236.71h2.93v3.38h-2.93
			V236.71z M13.87,250.97l8.64-3.22v-0.08l-8.64-3.22v-3.48l12.99,4.99v3.69l-12.99,4.99V250.97z M13.87,261.67l12.99-5.17v3.73
			l-2.51,0.97v5.07l2.51,0.97v3.52l-12.99-5.17V261.67z M13.87,284.71h12.99v3.5H13.87V284.71z M13.87,320.24h2.93v3.38h-2.93
			V320.24z M13.87,325.41h12.99v3.34H13.87V325.41z M13.87,348.79h2.93v3.38h-2.93V348.79z M19.4,376.05l0.12,3.36
			c-1.44,0.21-2.78,0.99-2.78,3.01c0,1.92,1.42,3.03,3.63,3.03c2.21,0,3.63-1.11,3.63-3.03c0-2.02-1.34-2.8-2.78-3.01l0.14-3.36
			c3.24,0.25,5.75,2.37,5.75,6.35c0,3.79-2.74,6.66-6.74,6.66c-4,0-6.74-2.87-6.74-6.66C13.63,378.42,16.16,376.3,19.4,376.05z"/>
		<polygon points="17.67,400.93 22.88,402.58 22.88,402.66 17.67,404 17.67,406.66 22.88,408 22.88,408.08 17.67,409.73 
			17.67,412.96 17.67,413.05 17.67,415.97 22.88,417.62 22.88,417.71 17.67,419.04 17.67,421.7 22.88,423.04 22.88,423.13 
			17.67,424.78 17.67,428.01 17.67,428.09 17.67,431.02 22.88,432.67 22.88,432.75 17.67,434.09 17.67,436.75 22.88,438.09 
			22.88,438.17 17.67,439.82 17.67,443.14 26.86,440.23 26.86,436.96 21.67,435.62 21.67,435.53 26.86,434.19 26.86,430.92 
			17.8,428.05 26.86,425.19 26.86,421.91 21.67,420.57 21.67,420.49 26.86,419.15 26.86,415.87 17.8,413.01 26.86,410.14 
			26.86,406.86 21.67,405.52 21.67,405.44 26.86,404.1 26.86,400.82 17.67,397.92 		"/>
		<rect x="23.32" y="391.94" width="3.55" height="3.55"/>
		<path d="M20.37,389.06c4,0,6.74-2.87,6.74-6.66c0-3.98-2.52-6.1-5.75-6.35l-0.14,3.36c1.44,0.21,2.78,0.99,2.78,3.01
			c0,1.92-1.42,3.03-3.63,3.03c-2.21,0-3.63-1.11-3.63-3.03c0-2.02,1.34-2.8,2.78-3.01l-0.12-3.36c-3.24,0.25-5.77,2.37-5.77,6.35
			C13.63,386.19,16.37,389.06,20.37,389.06z"/>
		<path d="M27.07,366.96c0-0.95-0.27-1.61-0.6-2.08H24.7c0.1,0.27,0.14,0.47,0.14,0.74c0,0.35-0.21,0.56-0.68,0.56h-3.13
			c-2.56,0-3.61,1.79-3.61,4.23c0,2.76,1.4,4.27,3.42,4.56l0.21-3.09c-0.68-0.14-1.15-0.52-1.15-1.26c0-0.8,0.45-1.15,1.22-1.15
			h0.14l0.43,2.58c0.35,2,1.11,3.28,2.89,3.28c1.57,0,2.49-1.17,2.49-2.97c0-1.46-0.56-2.52-1.63-3.05
			C26.49,368.98,27.07,368.1,27.07,366.96z M24.14,372.1c-0.6,0-0.85-0.47-1.01-1.28l-0.25-1.36h0.14c1.2,0,1.9,0.76,1.9,1.71
			C24.92,371.72,24.61,372.1,24.14,372.1z"/>
		<path d="M27.11,357.54c0-2.7-2.12-4.08-4.84-4.08c-2.7,0-4.84,1.38-4.84,4.08c0,1.55,0.74,2.58,1.83,3.03h-1.59v3.34h12.49v-3.34
			h-4.86C26.37,360.12,27.11,359.09,27.11,357.54z M22.33,360.57H22.2c-1.32,0-2.19-0.72-2.19-1.86c0-1.3,0.93-1.9,2.25-1.9
			c1.34,0,2.27,0.6,2.27,1.9C24.53,359.85,23.67,360.57,22.33,360.57z"/>
		<rect x="17.67" y="348.81" width="9.19" height="3.34"/>
		<rect x="13.87" y="348.79" width="2.93" height="3.38"/>
		<path d="M15.13,345.47l1.2,0.31c0.85,0.23,1.34,0.52,1.48,1.44l0.1,0.68h2.06v-1.24h4.33c2.16,0,2.8-1.46,2.8-3.01
			c0-1.26-0.31-2.06-0.82-2.76h-2.16c0.23,0.56,0.31,1.01,0.31,1.42c0,0.68-0.31,1.05-1.09,1.05h-3.36v-2.39h-2.31v2.39h-2.54
			V345.47z"/>
		<path d="M24.16,331.02h-3.13c-2.56,0-3.61,1.79-3.61,4.23c0,2.76,1.4,4.27,3.42,4.56l0.21-3.09c-0.68-0.14-1.15-0.52-1.15-1.26
			c0-0.8,0.45-1.15,1.22-1.15h0.14l0.43,2.58c0.35,2,1.11,3.28,2.89,3.28c1.57,0,2.49-1.17,2.49-2.97c0-1.46-0.56-2.52-1.63-3.05
			c1.05-0.31,1.63-1.2,1.63-2.33c0-0.95-0.27-1.61-0.6-2.08H24.7c0.1,0.27,0.14,0.47,0.14,0.74
			C24.84,330.81,24.64,331.02,24.16,331.02z M24.92,336.01c0,0.56-0.31,0.93-0.78,0.93c-0.6,0-0.85-0.47-1.01-1.28l-0.25-1.36h0.14
			C24.22,334.3,24.92,335.06,24.92,336.01z"/>
		<rect x="13.87" y="325.41" width="12.99" height="3.34"/>
		<rect x="17.67" y="320.26" width="9.19" height="3.34"/>
		<rect x="13.87" y="320.24" width="2.93" height="3.38"/>
		<path d="M20.53,318.92c1.88,0,2.6-1.17,2.95-3.4l0.21-1.36c0.1-0.64,0.35-0.85,0.7-0.85c0.37,0,0.64,0.39,0.64,1.13
			c0,1.01-0.43,1.63-1.2,1.75l0.04,2.91c2.23-0.19,3.24-2.08,3.24-4.62c0-2.62-1.11-4.27-3.05-4.27c-1.79,0-2.72,1.2-3.05,3.26
			l-0.31,1.79c-0.04,0.31-0.21,0.56-0.52,0.56c-0.41,0-0.66-0.37-0.66-1.01c0-1.03,0.41-1.61,1.07-1.73l-0.08-2.74
			c-1.92,0.19-3.09,1.75-3.09,4.41C17.42,317.33,18.72,318.92,20.53,318.92z"/>
		<path d="M17.42,302.74c0,1.38,0.62,2.37,1.63,2.87h-1.38v3.34h9.19v-3.34h-4.51c-1.38,0-2.29-0.39-2.29-1.48
			c0-1.01,0.66-1.26,1.92-1.26h4.89v-3.34h-4.51c-1.38,0-2.29-0.37-2.29-1.48c0-1.01,0.66-1.24,1.92-1.24h4.89v-3.34h-5.77
			c-1.92,0-3.67,0.74-3.67,3.28c0,1.55,0.78,2.64,1.81,3.13C18.16,300.27,17.42,301.11,17.42,302.74z"/>
		<rect x="13.87" y="284.71" width="12.99" height="3.5"/>
		<path d="M23.83,280.57l0.04,2.91c2.23-0.19,3.24-2.08,3.24-4.62c0-2.62-1.11-4.27-3.05-4.27c-1.79,0-2.72,1.2-3.05,3.26
			l-0.31,1.79c-0.04,0.31-0.21,0.56-0.52,0.56c-0.41,0-0.66-0.37-0.66-1.01c0-1.03,0.41-1.61,1.07-1.73l-0.08-2.74
			c-1.92,0.19-3.09,1.75-3.09,4.41c0,2.58,1.3,4.16,3.11,4.16c1.88,0,2.6-1.18,2.95-3.4l0.21-1.36c0.1-0.64,0.35-0.85,0.7-0.85
			c0.37,0,0.64,0.39,0.64,1.13C25.03,279.82,24.59,280.44,23.83,280.57z"/>
		<path d="M26.86,267.23l-2.51-0.97v-5.07l2.51-0.97v-3.73l-12.99,5.17v3.92l12.99,5.17V267.23z M21.73,265.25l-3.83-1.48v-0.08
			l3.83-1.48V265.25z"/>
		<polygon points="26.86,245.96 13.87,240.97 13.87,244.46 22.51,247.67 22.51,247.75 13.87,250.97 13.87,254.64 26.86,249.65 		"/>
		<rect x="17.67" y="236.73" width="9.19" height="3.34"/>
		<rect x="13.87" y="236.71" width="2.93" height="3.38"/>
		<path d="M19.3,231.58h-1.63v3.34h9.19v-3.34h-4.21c-1.55,0-2.12-0.76-2.12-2c0-0.64,0.12-1.13,0.39-1.59l-3.15-0.21
			c-0.19,0.23-0.35,0.72-0.35,1.28C17.42,230.28,18.27,231.25,19.3,231.58z"/>
		<path d="M22.57,223.52h-4.91v3.34h5.79c1.92,0,3.65-0.76,3.65-3.28c0-1.38-0.6-2.39-1.63-2.89h1.38v-3.34h-9.19v3.34h4.51
			c1.4,0,2.31,0.41,2.31,1.46C24.49,223.17,23.81,223.52,22.57,223.52z"/>
		<path d="M20.53,216.02c1.88,0,2.6-1.18,2.95-3.4l0.21-1.36c0.1-0.64,0.35-0.85,0.7-0.85c0.37,0,0.64,0.39,0.64,1.13
			c0,1.01-0.43,1.63-1.2,1.75l0.04,2.91c2.23-0.19,3.24-2.08,3.24-4.62c0-2.62-1.11-4.27-3.05-4.27c-1.79,0-2.72,1.2-3.05,3.26
			l-0.31,1.79c-0.04,0.31-0.21,0.56-0.52,0.56c-0.41,0-0.66-0.37-0.66-1.01c0-1.03,0.41-1.61,1.07-1.73l-0.08-2.74
			c-1.92,0.19-3.09,1.75-3.09,4.41C17.42,214.43,18.72,216.02,20.53,216.02z"/>
		<rect x="23.32" y="200.93" width="3.55" height="3.55"/>
		<path d="M22.26,198.04c2.87,0,4.84-2.02,4.84-5.03c0-2.99-1.98-5.03-4.84-5.03c-2.84,0-4.84,2.04-4.84,5.03
			C17.42,196.02,19.42,198.04,22.26,198.04z M22.26,191.34c1.38,0,2.33,0.52,2.33,1.67c0,1.17-0.95,1.67-2.33,1.67
			c-1.38,0-2.33-0.49-2.33-1.67C19.94,191.86,20.88,191.34,22.26,191.34z"/>
		<path d="M17.77,179.53c-0.19,0.23-0.35,0.72-0.35,1.28c0,1.22,0.85,2.19,1.88,2.52h-1.63v3.34h9.19v-3.34h-4.21
			c-1.55,0-2.12-0.76-2.12-2c0-0.64,0.12-1.13,0.39-1.59L17.77,179.53z"/>
		<path d="M18.16,171.45c-0.47,0.78-0.74,1.83-0.74,2.95c0,2.58,1.2,4.43,3.15,4.43c1.01,0,1.79-0.49,2.33-1.32
			c0.37,0.99,1.05,1.57,1.94,1.57c0.78,0,1.53-0.49,1.79-1.32c0.08,1.03,0.72,1.75,1.53,1.75c1.73,0,2.25-2.27,2.25-4.89
			c0-2.99-1.05-5.77-3.34-5.77c-1.55,0-2.64,1.05-2.64,3.13v3.81c0,0.56-0.25,0.78-0.56,0.78c-0.19,0-0.33-0.06-0.43-0.19
			c0.19-0.6,0.27-1.26,0.27-2c0-2.6-1.2-4.47-3.13-4.47c-0.43,0-0.82,0.1-1.18,0.29c-0.1-0.45-0.14-0.95-0.14-1.34h-2.52
			C16.74,169.89,17.4,170.9,18.16,171.45z M27.27,172.77c0-0.56,0.14-0.85,0.54-0.85c0.56,0,0.87,1.13,0.87,2.68
			c0,1.24-0.19,2.16-0.84,2.16c-0.35,0-0.56-0.25-0.56-0.62V172.77z M20.57,173.39c0.82,0,1.34,0.41,1.34,0.97
			c0,0.56-0.52,0.97-1.34,0.97c-0.8,0-1.32-0.41-1.32-0.97C19.25,173.8,19.77,173.39,20.57,173.39z"/>
		<path class="st5" d="M357.89,386.45c-0.13,0.92-0.26,1.84-0.39,2.77c9.8-16.65,21.34-26.35,35.77-37.44
			c2.47-1.9,4.97-3.4,7.48-4.57c-22.42-6.92-42.27-11.29-54.53-10.81c-6.08,0.24-7.51,1.63-7.53,1.64c-1.06,1.91-1.54,4.3-1.42,7.07
			C350.32,348.74,361.26,362.46,357.89,386.45z"/>
		<path class="st5" d="M240,306.28c-5.99,2.78-11,10.67-5.37,23.73c6.19,14.37,20.24,42.81,30.51,63.58
			c3.45,6.99,6.52,13.19,8.79,17.86l0.11,0.22c4.26,8.75,7.95,16.32,12.95,23.63c1.4-7.12,2.97-15.32,4.6-23.79
			c2.11-10.95,4.27-22.17,6.16-31.68c-13.21-21.69-30.48-50.59-37.59-64.84C255.13,304.9,246.19,303.4,240,306.28z"/>
		<path class="st5" d="M334.85,489.24c-4.25-9.79-3.81-22.96-1.11-36.64c-0.15-0.79-0.18-1.61-0.07-2.45
			c0.05-0.37,5.11-37.21,9.13-65.82c1.91-13.6-2.3-23.33-10.74-24.79c-9.18-1.58-15.97,6.55-17.71,15.01
			c-2.2,10.71-5.05,25.52-7.8,39.83c-2.84,14.76-5.52,28.71-7.39,37.66c-1.25,6.02-1.76,25.21,10.79,41.55
			c11.3,14.73,31.59,24.48,45.01,30.93c1,0.48,1.97,0.95,2.89,1.39c12.57,6.1,25.01,10.47,35.86,12.81c-3.2-1.8-5.98-3.45-8.19-4.8
			C365.88,521.92,340.83,503.02,334.85,489.24z"/>
		<path class="st5" d="M402.55,363.86c-16.71,12.84-27.55,22.16-37.18,43.23c-15.68,34.32-22.02,63.47-16.55,76.09
			c4.85,11.17,36.81,35.55,67.78,50.28c-24.91-23.47-38.66-52-36.22-67.52c0.9-5.71,3.12-13.8,6.71-22.53
			c0.05-0.13,0.09-0.26,0.15-0.39l0.14-0.32c0.76-1.81,1.57-3.65,2.45-5.5l11.31-25.36c0.27-0.59,0.61-1.15,1.01-1.66l18.44-23.01
			c0.23-0.29,0.48-0.56,0.76-0.81c9.36-8.7,8.24-17.07,4.07-22C420.97,359.08,411.91,356.68,402.55,363.86z"/>
		<path d="M771.65,379.75c-69.77,5.43-202.51,15.39-226.73,15.9c-16.59-13.55-59.9-33.67-94.74-47.25
			c-24.17-9.42-83.27-30.88-109.85-26.73c-7.23,1.13-12.24,4.11-14.89,8.87c-2.43,4.36-3.56,9.31-3.39,14.74
			c-3.13,0.9-6.19,2.34-9.01,4.33c-11.98-12.48-22.32-24.99-31.19-37.05c15.9-9.99,36.62-3.15,61.41-15.89
			c28.97-14.89,61.75-71.67,22.21-117.53c-3.59,40.53-42.83,26.35-74.42,56.14c-24.3,22.91-17.71,57-13.37,71.52
			c-17.77-25.14-29.16-47.9-35.92-63.66c0.77-0.33,1.53-0.67,2.29-1.02c41.63-19.38,58.17-67.6,60.17-73.89
			c1.29-3.17,2.29-6.59,2.97-10.26c4.15-22.42-4.24-52.05-19.94-70.43c-22.14-25.93-47.61-27.21-48.68-27.25c-0.02,0-0.05,0-0.07,0
			c-0.01,0-0.02,0-0.03,0c-1.2-1.12-2.4-2.04-3.56-2.8c-8.15-5.39-19-6.35-30.82-2.81c-0.08,0.02-0.16,0.04-0.25,0.07
			c-0.88,0.27-1.77,0.56-2.66,0.88c-0.37,0.13-0.72,0.3-1.05,0.48c-0.04,0.02-0.08,0.04-0.12,0.06c-0.32,0.18-0.62,0.38-0.9,0.6
			c-0.04,0.03-0.09,0.07-0.13,0.1c-0.28,0.22-0.54,0.46-0.78,0.72c-0.03,0.03-0.05,0.06-0.07,0.08c-0.05,0.05-0.1,0.11-0.14,0.16
			c-3.12-3.14-6.94-5.59-11.28-7.19c-7.3-2.69-15.65-2.86-23.5-0.48c-8.41,2.55-15.52,7.84-20.02,14.9
			c-3.62,5.68-5.46,12.31-5.48,19.5c-0.34,0.18-0.67,0.36-1,0.56c-0.14,0.09-0.28,0.18-0.43,0.27c-0.26,0.17-0.52,0.34-0.78,0.51
			c-0.17,0.12-0.34,0.25-0.51,0.37c-0.22,0.16-0.43,0.33-0.64,0.5c-0.17,0.14-0.34,0.28-0.51,0.43c-0.2,0.18-0.4,0.36-0.6,0.55
			c-0.15,0.14-0.31,0.28-0.46,0.43c-0.32,0.32-0.63,0.65-0.93,1c-0.03,0.03-0.05,0.06-0.08,0.09c-0.32,0.37-0.63,0.75-0.93,1.15
			c-0.04,0.05-0.08,0.11-0.12,0.17c-0.28,0.38-0.56,0.78-0.82,1.19c-0.01,0.01-0.02,0.02-0.02,0.04c-1.86,2.9-3.18,6.35-3.86,10.25
			c-0.2,1.13-0.4,2.73-0.46,4.77c-0.3,0.26-0.59,0.53-0.85,0.84c-1.87,2.19-4.47,7.72-6.82,15.36c-3.72,10.52-6.67,24.76-5.74,41.39
			c0.02,0.4,0.05,0.79,0.08,1.18c0.23,6.31,0.99,12.73,2.46,19.05c0.26,1.11,0.54,2.21,0.84,3.29
			c6.29,25.08,20.94,41.36,45.68,51.49c0.02,0.01,0.05,0.02,0.07,0.03c16.38,7.04,31.99,10.57,46.7,10.57
			c6.55,0,12.93-0.7,19.12-2.1c4.67,11.1,11.55,25.58,21.28,41.96c-5.03-0.44-10.11,0.44-14.8,2.61
			c-12.73,5.91-22.21,22.07-12.94,43.58c6.35,14.73,20.5,43.38,30.84,64.29c3.44,6.95,6.49,13.13,8.75,17.78l0.11,0.22
			c6.58,13.52,12.2,25.04,23.11,37.03c-0.7,11.75,1.68,30.91,14.42,47.5c13.51,17.61,35.77,28.31,50.49,35.39
			c0.99,0.47,1.94,0.93,2.84,1.37c21.81,10.58,42.66,16.25,58.68,16.25c5.02,0,9.57-0.56,13.52-1.7c0.54-0.16,1.06-0.37,1.53-0.63
			c10.78,4.06,22.09,7.03,32.24,7.14c10.24,4.37,23.38,6.93,38.42,6.93c26.33,0,58.46-7.81,90.94-27.33l185.6,2.38
			c4.21,0.06,7.66-3.31,7.71-7.52c0.05-4.21-3.31-7.66-7.52-7.71l-3.09-0.04l-184.69-2.37c-1.43-0.02-2.86,0.37-4.09,1.13
			c-47.61,29.26-94.8,30.88-118.51,20c-44.94-20.63-68.58-64.75-66.52-77.85c2.47-15.75,16.13-48.8,37.91-57.53
			c9.58-3.84,21.29-3.34,25.11,5.06c3.22,7.07-1.79,15.28-12.76,20.9c-1.64,0.84-2.92,2.24-3.6,3.95l-7.87,19.71
			c-0.77,1.93-0.75,4.09,0.12,5.98c0.87,1.89,2.44,3.34,4.41,4.02c0.09,0.03,9.41,3.49,22.75,15.36c3.14,2.8,7.96,2.52,10.75-0.63
			s2.52-7.96-0.63-10.75c-8.52-7.58-15.68-12.23-20.62-14.96l0.72-1.81c18.95,8.31,38.85,15.55,59.19,21.52
			c0.72,0.21,1.44,0.31,2.15,0.31c3.29,0,6.33-2.15,7.31-5.48c1.18-4.04-1.13-8.27-5.17-9.45c-18.6-5.46-36.81-12.01-54.22-19.49
			c4.99-3.88,8.75-8.42,11.04-13.41c3.35-7.29,3.45-15.13,0.28-22.08c-5.22-11.46-19.35-19.5-37.49-15.17
			c5.17-5.84,8.2-12.41,8.8-19.23c0.42-4.77-0.38-9.47-2.27-13.74c42.41,16.29,83.78,36.48,95.51,47.46c1.36,1.27,3.13,2,4.99,2.05
			c0.31,0.01,0.67,0.01,1.08,0.01c24.18,0,215.64-14.85,229.39-15.92c0.2-0.02,0.37-0.03,0.5-0.04c4.19-0.33,7.33-3.99,7-8.19
			S775.84,379.42,771.65,379.75z M249.64,88.12c-0.23-3.83-0.76-7.22-1.5-10.24c0.46,0.16,0.92,0.33,1.4,0.51
			c6.72,2.59,16.71,7.99,26.12,19.01c12.76,14.94,19.87,39.78,16.55,57.77c-0.46,2.51-1.12,4.82-1.96,6.94
			c-0.12,0.26-0.24,0.53-0.33,0.81c-2.34,5.49-5.99,9.61-10.91,12.29c-0.16,0.09-16.37,8.88-38.31,11.08
			c-24.06,2.41-45.35-3.71-63.46-18.21c20.68-0.86,35.29-9.41,44.59-17.55C242.4,132.54,250.66,105.57,249.64,88.12z M207.14,110.78
			c8.66-16.1,7.56-31.66,5.56-42.54c4.62-0.79,9.91-0.63,14.07,2.41l0.29-0.07c5.41,4.04,7.01,12.19,7.38,18.44
			c0.84,14.3-6.66,36.08-22.63,50.05c-13.6,11.9-30.73,16.15-50.93,12.71c-6-7.18-10.44-14.01-13.6-20.25
			C175.15,139.21,198.03,127.69,207.14,110.78z M167.63,64.71c7.34-2.23,16.24-0.89,20.97,5.46c-5.44,7.2-13.41,11.85-23.74,13.84
			c-4.53,0.87-8.72,1.06-11.87,1.01C152.96,76.6,156.75,68.01,167.63,64.71z M141.04,104.62c0.26-1.47,0.87-3.81,2.24-5.4
			c0.51,0.2,1.03,0.37,1.59,0.46c0.47,0.07,3.93,0.6,9.07,0.6c11.47,0,31.31-2.6,44.9-18.54c0.16,7.02-1.07,14.29-5.13,21.82
			c-8.9,16.53-32.1,17.95-49.4,10.89c-1.03-0.42-2.09-0.59-3.13-0.56C140.61,110.28,140.6,107.16,141.04,104.62z M167.1,225.34
			c-18.89-8.15-31.2-21.75-36.58-40.4c-0.22-0.76-0.42-1.52-0.61-2.29c-1.21-5.28-2-11.09-2.43-17.46
			c-0.45-12.1,1.39-23.61,3.56-32.35c4.36,10.35,11.98,22.72,25.08,36.47c24.81,26.05,52.77,32.72,74.87,32.72
			c4.17,0,8.14-0.24,11.84-0.63c13.08-1.38,24.22-4.74,31.96-7.67c-8.22,12.42-20.13,25.65-36.48,33.43
			C217.84,236.89,193.88,236.28,167.1,225.34z M291.6,411.5c-1.63,8.47-3.21,16.67-4.6,23.79c-5-7.3-8.69-14.88-12.95-23.63
			l-0.11-0.22c-2.27-4.67-5.34-10.87-8.79-17.86c-10.26-20.77-24.31-49.21-30.51-63.58c-5.63-13.06-0.63-20.95,5.37-23.73
			c6.18-2.87,15.13-1.37,20.16,8.7c7.11,14.26,24.38,43.15,37.59,64.84C295.86,389.33,293.7,400.55,291.6,411.5z M338.69,338.04
			c0.01-0.01,1.45-1.4,7.53-1.64c12.27-0.48,32.12,3.89,54.53,10.81c-2.5,1.17-5.01,2.67-7.48,4.57
			c-14.44,11.09-25.97,20.79-35.77,37.44c0.13-0.93,0.26-1.86,0.39-2.77c3.37-23.98-7.57-37.71-20.62-41.34
			C337.15,342.34,337.63,339.95,338.69,338.04z M357.85,525.91c-0.92-0.45-1.88-0.91-2.89-1.39c-13.42-6.45-33.71-16.21-45.01-30.93
			c-12.55-16.35-12.04-35.54-10.79-41.55c1.87-8.95,4.55-22.89,7.39-37.66c2.75-14.31,5.6-29.12,7.8-39.83
			c1.74-8.46,8.53-16.59,17.71-15.01c8.43,1.46,12.65,11.19,10.74,24.79c-4.02,28.61-9.08,65.45-9.13,65.82
			c-0.11,0.84-0.08,1.66,0.07,2.45c-2.7,13.69-3.14,26.85,1.11,36.64c5.98,13.78,31.03,32.68,50.67,44.67c2.21,1.35,5,3,8.19,4.8
			C382.86,536.38,370.43,532.01,357.85,525.91z M421.36,386.36c-0.27,0.25-0.52,0.52-0.76,0.81l-18.44,23.01
			c-0.41,0.51-0.75,1.07-1.01,1.66l-11.31,25.36c-0.88,1.85-1.69,3.68-2.45,5.5l-0.14,0.32c-0.06,0.13-0.1,0.26-0.15,0.39
			c-3.59,8.72-5.81,16.82-6.71,22.53c-2.44,15.52,11.31,44.05,36.22,67.52c-30.97-14.73-62.93-39.11-67.78-50.28
			c-5.47-12.61,0.87-41.77,16.55-76.09c9.63-21.07,20.47-30.39,37.18-43.23c9.35-7.18,18.41-4.78,22.88,0.5
			C429.6,369.29,430.72,377.66,421.36,386.36z"/>
		<path class="st5" d="M274.79,193.72c-7.74,2.94-18.89,6.3-31.96,7.67c-3.7,0.39-7.66,0.63-11.84,0.63
			c-22.11,0-50.06-6.67-74.87-32.72c-13.1-13.75-20.72-26.12-25.08-36.47c-2.18,8.74-4.02,20.25-3.56,32.35
			c0.43,6.38,1.22,12.18,2.43,17.46c0.19,0.76,0.39,1.53,0.61,2.29c5.39,18.66,17.7,32.25,36.58,40.4
			c26.78,10.94,50.74,11.55,71.21,1.8C254.66,219.37,266.56,206.13,274.79,193.72z"/>
		<path class="st5" d="M147.27,131.53c3.16,6.24,7.6,13.06,13.6,20.25c20.19,3.45,37.32-0.81,50.93-12.71
			c15.97-13.97,23.47-35.75,22.63-50.05c-0.37-6.24-1.97-14.4-7.38-18.44l-0.29,0.07c-4.16-3.04-9.45-3.2-14.07-2.41
			c2,10.88,3.11,26.44-5.56,42.54C198.03,127.69,175.15,139.21,147.27,131.53z"/>
		<path class="st5" d="M221.83,150.53c-9.31,8.14-23.91,16.69-44.59,17.55c18.11,14.5,39.4,20.63,63.46,18.21
			c21.95-2.2,38.15-11,38.31-11.08c4.92-2.68,8.56-6.8,10.91-12.29c0.1-0.28,0.21-0.55,0.33-0.81c0.84-2.12,1.49-4.43,1.96-6.94
			c3.33-17.99-3.79-42.83-16.55-57.77c-9.42-11.03-19.4-16.43-26.12-19.01c-0.48-0.18-0.94-0.35-1.4-0.51
			c0.74,3.03,1.27,6.41,1.5,10.24C250.66,105.57,242.4,132.54,221.83,150.53z"/>
		<path class="st5" d="M144.32,114.45c17.31,7.06,40.5,5.64,49.4-10.89c4.05-7.53,5.28-14.8,5.13-21.82
			c-13.59,15.94-33.42,18.54-44.9,18.54c-5.14,0-8.61-0.52-9.07-0.6c-0.56-0.09-1.08-0.26-1.59-0.46c-1.38,1.59-1.99,3.93-2.24,5.4
			c-0.44,2.53-0.43,5.66,0.15,9.27C142.23,113.86,143.29,114.03,144.32,114.45z"/>
		<path class="st5" d="M164.85,84c10.33-1.99,18.3-6.64,23.74-13.84c-4.72-6.34-13.63-7.68-20.97-5.46
			c-10.88,3.3-14.67,11.89-14.65,20.31C156.13,85.06,160.32,84.88,164.85,84z"/>
		<path d="M769.43,64.97v1.98l-2.02-0.49v-1.88l-2.06-0.43v1.81l-3.42-0.8v2.49l3.42,0.8v1.77l-3.42-0.8v2.49l3.42,0.8v2.04
			l2.06,0.43v-1.98l2.02,0.49v1.88l2.06,0.43v-1.83l3.42,0.82v-2.49l-3.42-0.82v-1.77l3.42,0.83v-2.49l-3.42-0.82V65.4L769.43,64.97
			z M769.43,71.21l-2.02-0.49v-1.77l2.02,0.5V71.21z"/>
		<path d="M768.42,78.64c-4,0-6.74,2.87-6.74,6.66c0,3.98,2.51,6.1,5.75,6.35l0.14-3.36c-1.44-0.21-2.78-0.99-2.78-3.01
			c0-1.92,1.42-3.03,3.63-3.03s3.63,1.11,3.63,3.03c0,2.02-1.34,2.8-2.78,3.01l0.12,3.36c3.24-0.25,5.77-2.37,5.77-6.35
			C775.16,81.5,772.42,78.64,768.42,78.64z"/>
		<path d="M761.72,100.73c0,0.95,0.27,1.61,0.6,2.08h1.77c-0.1-0.27-0.14-0.47-0.14-0.74c0-0.35,0.21-0.56,0.68-0.56h3.13
			c2.56,0,3.61-1.79,3.61-4.23c0-2.76-1.4-4.27-3.42-4.56l-0.21,3.09c0.68,0.14,1.15,0.52,1.15,1.26c0,0.8-0.45,1.15-1.22,1.15
			h-0.14l-0.43-2.58c-0.35-2-1.11-3.28-2.89-3.28c-1.57,0-2.49,1.18-2.49,2.97c0,1.46,0.56,2.52,1.63,3.05
			C762.3,98.71,761.72,99.6,761.72,100.73z M764.65,95.6c0.6,0,0.85,0.47,1.01,1.28l0.25,1.36h-0.14c-1.2,0-1.9-0.76-1.9-1.71
			C763.87,95.97,764.18,95.6,764.65,95.6z"/>
		<path d="M758.63,107.12h4.86c-1.07,0.45-1.81,1.48-1.81,3.03c0,2.7,2.12,4.08,4.84,4.08c2.7,0,4.84-1.38,4.84-4.08
			c0-1.55-0.74-2.58-1.83-3.03h1.59v-3.34h-12.49V107.12z M766.46,107.12h0.12c1.32,0,2.18,0.72,2.18,1.86c0,1.3-0.93,1.9-2.25,1.9
			c-1.34,0-2.27-0.6-2.27-1.9C764.26,107.84,765.12,107.12,766.46,107.12z"/>
		<rect x="771.99" y="115.53" width="2.93" height="3.38"/>
		<rect x="761.93" y="115.55" width="9.19" height="3.34"/>
		<path d="M770.98,120.48l-0.1-0.68h-2.06v1.24h-4.33c-2.16,0-2.8,1.46-2.8,3.01c0,1.26,0.31,2.06,0.82,2.76h2.16
			c-0.23-0.56-0.31-1.01-0.31-1.42c0-0.68,0.31-1.05,1.09-1.05h3.36v2.39h2.31v-2.39h2.54v-2.1l-1.2-0.31
			C771.62,121.69,771.12,121.4,770.98,120.48z"/>
		<path d="M761.72,135.9c0,0.95,0.27,1.61,0.6,2.08h1.77c-0.1-0.27-0.14-0.47-0.14-0.74c0-0.35,0.21-0.56,0.68-0.56h3.13
			c2.56,0,3.61-1.79,3.61-4.23c0-2.76-1.4-4.27-3.42-4.56l-0.21,3.09c0.68,0.14,1.15,0.52,1.15,1.26c0,0.8-0.45,1.15-1.22,1.15
			h-0.14l-0.43-2.58c-0.35-2-1.11-3.28-2.89-3.28c-1.57,0-2.49,1.18-2.49,2.97c0,1.46,0.56,2.51,1.63,3.05
			C762.3,133.88,761.72,134.76,761.72,135.9z M764.65,130.76c0.6,0,0.85,0.47,1.01,1.28l0.25,1.36h-0.14c-1.2,0-1.9-0.76-1.9-1.71
			C763.87,131.13,764.18,130.76,764.65,130.76z"/>
		<rect x="761.93" y="138.94" width="12.99" height="3.34"/>
		<rect x="761.93" y="144.1" width="9.19" height="3.34"/>
		<rect x="771.99" y="144.08" width="2.93" height="3.38"/>
		<path d="M764.73,157.47c1.79,0,2.72-1.2,3.05-3.26l0.31-1.79c0.04-0.31,0.21-0.56,0.52-0.56c0.41,0,0.66,0.37,0.66,1.01
			c0,1.03-0.41,1.61-1.07,1.73l0.08,2.74c1.92-0.19,3.09-1.75,3.09-4.41c0-2.58-1.3-4.16-3.11-4.16c-1.88,0-2.6,1.18-2.95,3.4
			l-0.21,1.36c-0.1,0.64-0.35,0.85-0.7,0.85c-0.37,0-0.64-0.39-0.64-1.13c0-1.01,0.43-1.63,1.2-1.75l-0.04-2.91
			c-2.23,0.19-3.24,2.08-3.24,4.62C761.68,155.83,762.79,157.47,764.73,157.47z"/>
		<path d="M771.37,164.96c0-1.38-0.62-2.37-1.63-2.87h1.38v-3.34h-9.19v3.34h4.51c1.38,0,2.29,0.39,2.29,1.48
			c0,1.01-0.66,1.26-1.92,1.26h-4.89v3.34h4.51c1.38,0,2.29,0.37,2.29,1.48c0,1.01-0.66,1.24-1.92,1.24h-4.89v3.34h5.77
			c1.92,0,3.67-0.74,3.67-3.28c0-1.55-0.78-2.64-1.81-3.13C770.63,167.43,771.37,166.58,771.37,164.96z"/>
		<rect x="761.93" y="177.82" width="12.99" height="3.5"/>
		<path d="M764.96,185.47l-0.04-2.91c-2.23,0.19-3.24,2.08-3.24,4.62c0,2.62,1.11,4.27,3.05,4.27c1.79,0,2.72-1.2,3.05-3.26
			l0.31-1.79c0.04-0.31,0.21-0.56,0.52-0.56c0.41,0,0.66,0.37,0.66,1.01c0,1.03-0.41,1.61-1.07,1.73l0.08,2.74
			c1.92-0.19,3.09-1.75,3.09-4.41c0-2.58-1.3-4.16-3.11-4.16c-1.88,0-2.6,1.18-2.95,3.4l-0.21,1.36c-0.1,0.64-0.35,0.85-0.7,0.85
			c-0.37,0-0.64-0.39-0.64-1.13C763.76,186.21,764.2,185.59,764.96,185.47z"/>
		<path d="M774.92,198.79l-12.99-5.17v3.52l2.51,0.97v5.07l-2.51,0.97v3.73l12.99-5.17V198.79z M770.9,200.69l-3.83,1.48v-3.05
			l3.83,1.48V200.69z"/>
		<polygon points="774.92,213.35 774.92,209.68 761.93,214.67 761.93,218.36 774.92,223.35 774.92,219.86 766.28,216.65 
			766.28,216.56 		"/>
		<rect x="761.93" y="224.25" width="9.19" height="3.34"/>
		<rect x="771.99" y="224.23" width="2.93" height="3.38"/>
		<path d="M769.49,232.74h1.63v-3.34h-9.19v3.34h4.21c1.55,0,2.12,0.76,2.12,2c0,0.64-0.12,1.13-0.39,1.59l3.15,0.21
			c0.19-0.23,0.35-0.72,0.35-1.28C771.37,234.04,770.52,233.07,769.49,232.74z"/>
		<path d="M766.22,240.8h4.91v-3.34h-5.79c-1.92,0-3.65,0.76-3.65,3.28c0,1.38,0.6,2.39,1.63,2.89h-1.38v3.34h9.19v-3.34h-4.51
			c-1.4,0-2.31-0.41-2.31-1.46C764.3,241.15,764.98,240.8,766.22,240.8z"/>
		<path d="M768.2,254.14l0.08,2.74c1.92-0.19,3.09-1.75,3.09-4.41c0-2.58-1.3-4.16-3.11-4.16c-1.88,0-2.6,1.17-2.95,3.4l-0.21,1.36
			c-0.1,0.64-0.35,0.85-0.7,0.85c-0.37,0-0.64-0.39-0.64-1.13c0-1.01,0.43-1.63,1.2-1.75l-0.04-2.91c-2.23,0.19-3.24,2.08-3.24,4.62
			c0,2.62,1.11,4.27,3.05,4.27c1.79,0,2.72-1.2,3.05-3.26l0.31-1.79c0.04-0.31,0.21-0.56,0.52-0.56c0.41,0,0.66,0.37,0.66,1.01
			C769.27,253.43,768.86,254.01,768.2,254.14z"/>
	</g>
</g>
</svg>
