<?xml version="1.0" encoding="utf-8"?>
<!-- Generator: Adobe Illustrator 23.1.1, SVG Export Plug-In . SVG Version: 6.00 Build 0)  -->
<svg version="1.1" xmlns="http://www.w3.org/2000/svg" xmlns:xlink="http://www.w3.org/1999/xlink" x="0px" y="0px"
	 viewBox="0 0 792 612" style="enable-background:new 0 0 792 612;" xml:space="preserve">
<style type="text/css">
	.st0{display:none;}
	.st1{display:inline;fill:#FFFFFF;}
	.st2{display:inline;}
	.st3{fill:#FFFFFF;stroke:#000000;stroke-width:16;stroke-linecap:round;stroke-linejoin:round;stroke-miterlimit:10;}
	.st4{fill:none;stroke:#000000;stroke-width:24;stroke-linejoin:round;stroke-miterlimit:10;}
	.st5{fill:#FFFFFF;}
	.st6{fill:#FFFFFF;stroke:#000000;stroke-width:17;stroke-linecap:round;stroke-miterlimit:10;}
	.st7{fill:#FFFFFF;stroke:#000000;stroke-width:17;stroke-miterlimit:10;}
	.st8{stroke:#000000;stroke-width:16.0572;stroke-linecap:round;stroke-miterlimit:10;}
	.st9{fill:#FFFFFF;stroke:#000000;stroke-width:13.497;stroke-linecap:round;stroke-linejoin:round;stroke-miterlimit:10;}
	.st10{stroke:#000000;stroke-width:18.3348;stroke-linecap:round;stroke-miterlimit:10;}
	.st11{fill:none;stroke:#000000;stroke-width:13.497;stroke-linecap:round;stroke-linejoin:round;stroke-miterlimit:10;}
	.st12{fill:#FFFFFF;stroke:#000000;stroke-width:14.6942;stroke-linecap:round;stroke-linejoin:round;stroke-miterlimit:10;}
	.st13{fill:none;stroke:#000000;stroke-width:13;stroke-linecap:round;stroke-linejoin:round;stroke-miterlimit:10;}
	.st14{fill:none;stroke:#000000;stroke-width:13;stroke-linejoin:round;stroke-miterlimit:10;}
	.st15{fill:url(#);stroke:#000000;stroke-width:13;stroke-linejoin:round;stroke-miterlimit:10;}
	.st16{fill:none;stroke:#000000;stroke-width:30.5612;stroke-linecap:round;stroke-linejoin:round;stroke-miterlimit:10;}
	.st17{fill:#FFFFFF;stroke:#000000;stroke-width:16.2993;stroke-linecap:round;stroke-linejoin:round;stroke-miterlimit:10;}
	.st18{fill:#FFFFFF;stroke:#000000;stroke-width:13.497;stroke-linecap:round;stroke-miterlimit:10;}
	.st19{fill:url(#);stroke:#000000;stroke-width:13.497;stroke-linecap:round;stroke-linejoin:round;stroke-miterlimit:10;}
	.st20{fill:#FFFFFF;stroke:#000000;stroke-width:11.7326;stroke-linecap:round;stroke-linejoin:round;stroke-miterlimit:10;}
	.st21{fill:#FFFFFF;stroke:#000000;stroke-width:13.2623;stroke-linecap:round;stroke-linejoin:round;stroke-miterlimit:10;}
	.st22{fill:#FFFFFF;stroke:#000000;stroke-width:13.2623;stroke-linecap:round;stroke-miterlimit:10;}
	.st23{stroke:#000000;stroke-width:4.5213;stroke-miterlimit:10;}
	.st24{fill:none;stroke:#000000;stroke-width:16;stroke-linecap:round;stroke-miterlimit:10;}
	.st25{fill:url(#);stroke:#000000;stroke-width:16;stroke-linecap:round;stroke-linejoin:round;stroke-miterlimit:10;}
	.st26{fill:#FFFFFF;stroke:#000000;stroke-width:16;stroke-linecap:round;stroke-miterlimit:10;}
	.st27{fill:none;stroke:#000000;stroke-width:16;stroke-linecap:round;stroke-linejoin:round;stroke-miterlimit:10;}
	.st28{fill:none;stroke:#000000;stroke-width:15.2344;stroke-linecap:round;stroke-linejoin:round;stroke-miterlimit:10;}
	.st29{fill:#FFFFFF;stroke:#000000;stroke-width:15.2344;stroke-linecap:round;stroke-linejoin:round;stroke-miterlimit:10;}
	.st30{fill:#FFFFFF;stroke:#000000;stroke-width:17;stroke-linecap:round;stroke-linejoin:round;stroke-miterlimit:10;}
	.st31{font-family:'FoundersGrotesk-Bold';}
	.st32{font-size:20.6105px;}
	.st33{font-size:10.3052px;}
	.st34{font-size:19.2364px;}
	.st35{font-size:10px;}
	.st36{fill:none;stroke:#000000;stroke-width:9.9764;stroke-linecap:round;stroke-linejoin:round;stroke-miterlimit:10;}
	.st37{fill:none;stroke:#000000;stroke-width:9.3127;stroke-linejoin:round;stroke-miterlimit:10;}
	.st38{fill:url(#);}
	.st39{fill:none;stroke:#000000;stroke-width:8.3796;stroke-linecap:round;stroke-linejoin:round;stroke-miterlimit:10;}
	
		.st40{display:inline;fill:none;stroke:#000000;stroke-width:9.9764;stroke-linecap:round;stroke-linejoin:round;stroke-miterlimit:10;}
	.st41{display:inline;fill:none;stroke:#000000;stroke-width:9.3127;stroke-linejoin:round;stroke-miterlimit:10;}
	.st42{display:inline;fill:url(#);stroke:#000000;stroke-width:10;stroke-linejoin:round;stroke-miterlimit:10;}
	.st43{fill:#FFFFFF;stroke:#000000;stroke-width:14.7375;stroke-linecap:round;stroke-linejoin:round;stroke-miterlimit:10;}
	.st44{fill:none;stroke:#000000;stroke-width:14.7375;stroke-linecap:round;stroke-linejoin:round;stroke-miterlimit:10;}
	.st45{stroke:#000000;stroke-width:14.7375;stroke-linecap:round;stroke-linejoin:round;stroke-miterlimit:10;}
	.st46{fill:#FFFFFF;stroke:#000000;stroke-width:14.2911;stroke-linecap:round;stroke-linejoin:round;stroke-miterlimit:10;}
	.st47{fill:none;stroke:#000000;stroke-width:15;stroke-linecap:round;stroke-linejoin:round;stroke-miterlimit:10;}
	.st48{fill:#FFFFFF;stroke:#000000;stroke-width:15;stroke-linecap:round;stroke-linejoin:round;stroke-miterlimit:10;}
	.st49{fill:#FFFFFF;stroke:#000000;stroke-width:14.8467;stroke-linecap:round;stroke-linejoin:round;stroke-miterlimit:10;}
	.st50{stroke:#000000;stroke-width:20.1683;stroke-linecap:round;stroke-miterlimit:10;}
	.st51{fill:none;stroke:#000000;stroke-width:14.8467;stroke-linecap:round;stroke-linejoin:round;stroke-miterlimit:10;}
	.st52{fill:none;stroke:#000000;stroke-width:13.497;stroke-miterlimit:10;}
	.st53{fill:#FFFFFF;stroke:#000000;stroke-width:13.497;stroke-miterlimit:10;}
	.st54{fill:#FFFFFF;stroke:#000000;stroke-width:14.7439;stroke-linecap:round;stroke-miterlimit:10;}
	.st55{fill:#FFFFFF;stroke:#000000;stroke-width:14.7439;stroke-miterlimit:10;}
	.st56{stroke:#000000;stroke-width:13.9262;stroke-linecap:round;stroke-miterlimit:10;}
	.st57{fill:#FFFFFF;stroke:#000000;stroke-width:17.1072;stroke-linecap:round;stroke-linejoin:round;stroke-miterlimit:10;}
	.st58{stroke:#000000;stroke-width:17.1072;stroke-linecap:round;stroke-linejoin:round;stroke-miterlimit:10;}
	.st59{fill:#FFFFFF;stroke:#000000;stroke-width:15;stroke-linecap:square;stroke-linejoin:round;stroke-miterlimit:10;}
	.st60{fill:#FFFFFF;stroke:#000000;stroke-width:15;stroke-linejoin:round;stroke-miterlimit:10;}
	.st61{fill:#FFFFFF;stroke:#000000;stroke-width:14;stroke-linecap:round;stroke-linejoin:round;stroke-miterlimit:10;}
	.st62{fill:#FFFFFF;stroke:#000000;stroke-width:13;stroke-linecap:round;stroke-linejoin:round;stroke-miterlimit:10;}
	.st63{fill:#FFFFFF;stroke:#000000;stroke-width:15.2362;stroke-linecap:round;stroke-linejoin:round;stroke-miterlimit:10;}
	.st64{fill:#FFFFFF;stroke:#FFFFFF;stroke-width:3;stroke-miterlimit:10;}
	.st65{fill:#FFFFFF;stroke:#000000;stroke-width:13.3058;stroke-linecap:round;stroke-linejoin:round;stroke-miterlimit:10;}
	.st66{fill:#FFFFFF;stroke:#000000;stroke-width:15.2517;stroke-linecap:round;stroke-linejoin:round;stroke-miterlimit:10;}
	.st67{stroke:#000000;stroke-width:3;stroke-miterlimit:10;}
</style>
<g id="unexpanded" class="st0">
	<rect x="-6264.75" y="-3205.56" class="st1" width="14663.41" height="9108.82"/>
	<g class="st2">
		<rect x="0.14" y="-612" class="st5" width="792" height="1224"/>
		<g>
			<path class="st30" d="M650.26,573.11c-245.27,0-437.71-5.4-470.12-30.25C147.72,518,138,487.75,138,487.75
				s-30.25-19.45-5.4-61.59c0-71.31,185.84-336.03,219.34-369.52c26.18-26.18,138.96-16.7,182.88-13.04
				c12.43,1.03,34.75,6.48,41.31,17.09c0,0,19.59,24.62,26.89,47.06s5.29,44.84-17.59,57.74l-53.73,11.72
				c0,0-56.22,31.81-107.19-26.57c-43.41,41.06-60.69,203.13-94.19,261.48c100.48-91.84,274.44-138.3,360.88-25.93"/>
			<path class="st30" d="M542.3,70.45c0,0,39.09,49.94,36.69,81.64s-41.78,19.69-44.18-5.76"/>
			<path class="st30" d="M504.16,70.45c0,0,39.09,49.94,36.69,81.64s-41.78,19.69-44.18-5.76"/>
			<path class="st30" d="M458.76,133.42c2.4,25.45,41.78,37.46,44.18,5.76S484.69,90.2,484.69,90.2"/>
			
				<ellipse transform="matrix(0.9956 -0.094 0.094 0.9956 -14.5879 53.0294)" class="st30" cx="555.58" cy="181.36" rx="24.04" ry="21.07"/>
			<g>
				<path d="M587.7,495.74l13.3-30.22l-12.34-5.43c1.48-7.46,1.48-14.98,0.51-22.32l12.69-4.93l-11.98-30.83l-12.69,4.93
					c-4.24-6.07-9.57-11.73-15.45-16.12l5.43-12.34l-30.22-13.3l-5.43,12.34c-7.46-1.48-14.98-1.48-22.32-0.51l-4.93-12.69
					l-30.83,11.98l4.93,12.69c-6.07,4.24-11.73,9.57-16.12,15.45L449.93,399l-13.3,30.22l12.34,5.43
					c-1.48,7.46-1.48,14.98-0.51,22.32l-12.69,4.93l11.98,30.83l12.69-4.93c4.24,6.07,9.57,11.73,15.45,16.12l-5.43,12.34
					l30.22,13.3l5.43-12.34c7.46,1.48,14.98,1.48,22.32,0.51l4.93,12.69l30.83-11.98l-4.93-12.69c6.07-4.24,11.73-9.57,16.12-15.45
					L587.7,495.74z M508.59,470.6c-12.79-5.63-18.63-20.66-13-33.46c5.63-12.79,20.66-18.63,33.46-13
					c12.79,5.63,18.63,20.66,13,33.46C536.41,470.39,521.38,476.23,508.59,470.6z"/>
			</g>
		</g>
		<g>
			<text transform="matrix(0 -1 1 0 26.8613 333.9579)"><tspan x="0" y="0" class="st31 st32">www</tspan><tspan x="45.14" y="0" class="st31 st33"> </tspan><tspan x="46.99" y="0" class="st31 st32">.</tspan><tspan x="51.77" y="0" class="st31 st33"> </tspan><tspan x="53.63" y="0" class="st31 st32">Capitalism</tspan><tspan x="150.43" y="0" class="st31 st34"> </tspan><tspan x="153.9" y="0" class="st31 st32">Is</tspan><tspan x="168.88" y="0" class="st31 st34"> </tspan><tspan x="172.34" y="0" class="st31 st32">A</tspan><tspan x="186.6" y="0" class="st31 st33"> </tspan><tspan x="188.46" y="0" class="st31 st32">Virus</tspan><tspan x="236.15" y="0" class="st31 st33"> </tspan><tspan x="238.01" y="0" class="st31 st32">.</tspan><tspan x="242.79" y="0" class="st31 st33"> </tspan><tspan x="244.64" y="0" class="st31 st32">org</tspan></text>
			<text transform="matrix(0 1 -1 0 761.9287 61.415)"><tspan x="0" y="0" class="st31 st32">#</tspan><tspan x="12.7" y="0" class="st31 st35"> </tspan><tspan x="14.5" y="0" class="st31 st32">Capitalism</tspan><tspan x="111.3" y="0" class="st31 st35"> </tspan><tspan x="113.1" y="0" class="st31 st32">Is</tspan><tspan x="128.09" y="0" class="st31 st35"> </tspan><tspan x="129.89" y="0" class="st31 st32">A</tspan><tspan x="144.15" y="0" class="st31 st35"> </tspan><tspan x="145.95" y="0" class="st31 st32">Virus</tspan></text>
		</g>
	</g>
</g>
<g id="exp_trnsp_bg">
	<path d="M569.73,312.6c-69.27-6.06-151.41,21.06-217.44,70.36c8.39-23.82,15.92-52.94,23.72-83.14
		c13.44-52.01,28.51-110.37,48.64-136.59c26.55,26.55,53.93,31.69,72.85,31.08c10.8-0.35,20-2.55,26.68-4.78
		c3.71,12.55,16.27,21.42,30.8,21.42c1.12,0,2.25-0.05,3.39-0.16c17.87-1.69,31.15-16.26,29.62-32.5c-0.15-1.54-0.42-3.04-0.81-4.49
		l0.07-0.02c0.83-0.18,1.62-0.48,2.36-0.9c23.73-13.38,31.37-37.45,21.5-67.78c-7.28-22.37-25.42-46.01-28.04-49.36
		C571.72,38.33,537,35.25,535.52,35.13l-0.48-0.04c-79.24-6.59-163.67-9.9-189.11,15.54c-17.67,17.67-72.69,92.66-123.38,172.01
		c-78.64,123.1-97.23,177.3-98.39,201.14c-22.24,39.6-1.05,62.55,6.68,69.13c3.21,8.24,15.15,34.47,44.13,56.68
		c10.59,8.12,38.69,19.66,159.96,26.19c73.78,3.97,173.98,5.82,315.34,5.82c4.69,0,8.5-3.81,8.5-8.5c0-4.07-2.86-7.47-6.68-8.3
		c-0.59-0.13-1.19-0.2-1.82-0.2c-141.04,0-240.95-1.84-314.42-5.8c-107.48-5.78-141.18-15.54-150.53-22.7
		c-29.71-22.78-39.13-50.71-39.22-50.96c-0.6-1.9-1.75-3.43-3.43-4.5c-2.37-1.59-22.58-16.53-2.75-50.16
		c0.77-1.31,1.18-2.8,1.18-4.32c0-28.25,34.91-99.09,95.77-194.37C289.55,149.33,342.89,77.7,357.94,62.65
		c12.52-12.52,54.55-14.91,78.48-15.21c36.4-0.47,74.46,2.7,97.2,4.59l0.48,0.04c13.31,1.11,30.87,6.75,34.79,13.09
		c0.18,0.28,0.37,0.56,0.58,0.82c0.19,0.23,18.71,23.66,25.46,44.4c6.29,19.34,3.73,33.93-7.59,43.5c0.04-0.39,0.1-0.76,0.13-1.16
		c1.13-14.88-5.12-34.25-18.55-57.59c-9.66-16.78-19.5-29.4-19.92-29.93c-2.89-3.7-8.24-4.35-11.93-1.45
		c-3.7,2.89-4.35,8.24-1.45,11.93c10.31,13.17,36.67,52.45,34.91,75.75c-0.09,1.19-0.24,2.25-0.44,3.2
		c-5.18-2.27-11.1-3.31-17.28-2.73c-1.17,0.11-2.33,0.28-3.46,0.5c1.02-14.84-5.22-34.1-18.57-57.28
		c-9.66-16.78-19.5-29.4-19.92-29.93c-2.89-3.7-8.23-4.35-11.93-1.45c-3.7,2.89-4.35,8.24-1.45,11.93
		c10.31,13.17,36.67,52.45,34.91,75.75c-0.84,11.12-6.87,11.18-8.85,11.19c-5.06,0.04-11.91-3.37-15.69-9.33
		c1.98-3.83,3.19-8.33,3.58-13.48c2.7-35.64-20.29-55.32-21.27-56.14c-3.6-3.01-8.96-2.54-11.97,1.06
		c-3.01,3.6-2.54,8.96,1.06,11.97c0.17,0.14,17.28,14.8,15.23,41.82c-0.84,11.12-6.87,11.18-8.85,11.19c-0.04,0-0.08,0-0.12,0
		c-7.89,0-17.35-7.28-18.27-17.11c-0.44-4.67-4.59-8.1-9.26-7.66c-4.67,0.44-8.1,4.59-7.66,9.26c1.84,19.52,19.64,32.52,35.22,32.52
		c0.08,0,0.17,0,0.26,0c3.38-0.03,6.56-0.65,9.46-1.8c3.63,4.77,8.36,8.55,13.48,11.08c-3.56,0.67-7.51,1.17-11.76,1.31
		c-24.44,0.79-46.65-10.07-66.03-32.27c-1.52-1.74-3.69-2.79-6-2.9c-2.32-0.12-4.57,0.73-6.25,2.31
		c-26.59,25.15-43.13,89.18-59.12,151.1c-11.73,45.42-22.82,88.32-36.59,112.32c-2.09,3.63-1.21,8.24,2.06,10.86
		c3.27,2.62,7.96,2.47,11.05-0.36c66.22-60.53,157.37-95.4,232.19-88.86c48.85,4.28,87.95,25.08,116.22,61.83
		c1.27,1.65,3.03,2.7,4.92,3.12c2.36,0.52,4.93,0.03,7-1.56c3.72-2.86,4.42-8.2,1.55-11.92C667.09,340.9,622.75,317.24,569.73,312.6
		z M554.4,168.84c0.61-0.06,1.22-0.09,1.81-0.09c7.75,0,14.24,4.73,14.84,11.14c0.65,6.9-5.76,13.17-14.29,13.97
		c-8.54,0.8-16.01-4.15-16.66-11.05C539.45,175.92,545.86,169.65,554.4,168.84z"/>
	<path d="M589.89,402.01l-12.69,4.93c-4.24-6.07-9.57-11.73-15.45-16.12l5.43-12.34l-30.22-13.3l-5.43,12.34
		c-7.46-1.48-14.98-1.48-22.32-0.51l-4.93-12.69l-30.83,11.98l4.93,12.69c-6.07,4.24-11.73,9.57-16.12,15.45L449.93,399l-13.3,30.22
		l12.34,5.43c-1.48,7.46-1.48,14.98-0.51,22.32l-12.69,4.93l11.98,30.83l12.69-4.93c4.24,6.08,9.57,11.73,15.45,16.12l-5.43,12.34
		l30.22,13.3l5.43-12.34c7.46,1.48,14.98,1.48,22.32,0.51l4.93,12.69l30.83-11.98l-4.93-12.69c6.07-4.24,11.73-9.57,16.12-15.45
		l12.34,5.43l13.3-30.22l-12.34-5.43c1.48-7.46,1.48-14.98,0.51-22.32l12.69-4.93L589.89,402.01z M542.04,457.6
		c-5.63,12.79-20.66,18.63-33.46,13c-12.79-5.63-18.63-20.66-13-33.46c5.63-12.79,20.66-18.63,33.46-13
		C541.84,429.77,547.68,444.81,542.04,457.6z"/>
	<polygon points="17.67,291.73 22.88,293.38 22.88,293.47 17.67,294.81 17.67,297.46 22.88,298.81 22.88,298.89 17.67,300.54 
		17.67,303.77 17.67,303.86 17.67,306.78 22.88,308.43 22.88,308.51 17.67,309.85 17.67,312.51 22.88,313.85 22.88,313.93 
		17.67,315.58 17.67,318.82 17.67,318.9 17.67,321.83 22.88,323.47 22.88,323.56 17.67,324.9 17.67,327.56 22.88,328.9 
		22.88,328.98 17.67,330.63 17.67,333.95 26.86,331.04 26.86,327.76 21.67,326.42 21.67,326.34 26.86,325 26.86,321.72 17.8,318.86 
		26.86,315.99 26.86,312.72 21.67,311.38 21.67,311.29 26.86,309.95 26.86,306.68 17.8,303.81 26.86,300.95 26.86,297.67 
		21.67,296.33 21.67,296.25 26.86,294.91 26.86,291.63 17.67,288.72 	"/>
	<rect x="23.32" y="282.75" width="3.55" height="3.55"/>
	<path d="M20.37,279.87c4,0,6.74-2.87,6.74-6.66c0-3.98-2.51-6.1-5.75-6.35l-0.14,3.36c1.44,0.21,2.78,0.99,2.78,3.01
		c0,1.92-1.42,3.03-3.63,3.03s-3.63-1.11-3.63-3.03c0-2.02,1.34-2.8,2.78-3.01l-0.12-3.36c-3.24,0.25-5.77,2.37-5.77,6.35
		C13.63,277,16.37,279.87,20.37,279.87z"/>
	<path d="M27.07,257.77c0-0.95-0.27-1.61-0.6-2.08H24.7c0.1,0.27,0.14,0.47,0.14,0.74c0,0.35-0.21,0.56-0.68,0.56h-3.13
		c-2.56,0-3.61,1.79-3.61,4.23c0,2.76,1.4,4.27,3.42,4.56l0.21-3.09c-0.68-0.14-1.15-0.52-1.15-1.26c0-0.8,0.45-1.15,1.22-1.15h0.14
		l0.43,2.58c0.35,2,1.11,3.28,2.89,3.28c1.57,0,2.49-1.17,2.49-2.97c0-1.46-0.56-2.52-1.63-3.05
		C26.49,259.79,27.07,258.9,27.07,257.77z M24.14,262.9c-0.6,0-0.85-0.47-1.01-1.28l-0.25-1.36h0.14c1.2,0,1.9,0.76,1.9,1.71
		C24.92,262.53,24.61,262.9,24.14,262.9z"/>
	<path d="M27.11,248.35c0-2.7-2.12-4.08-4.84-4.08c-2.7,0-4.84,1.38-4.84,4.08c0,1.55,0.74,2.58,1.83,3.03h-1.59v3.34h12.49v-3.34
		h-4.86C26.37,250.93,27.11,249.9,27.11,248.35z M22.33,251.38H22.2c-1.32,0-2.18-0.72-2.18-1.86c0-1.3,0.93-1.9,2.25-1.9
		c1.34,0,2.27,0.6,2.27,1.9C24.53,250.66,23.67,251.38,22.33,251.38z"/>
	<rect x="13.87" y="239.59" width="2.93" height="3.38"/>
	<rect x="17.67" y="239.61" width="9.19" height="3.34"/>
	<path d="M15.13,236.27l1.2,0.31c0.85,0.23,1.34,0.52,1.48,1.44l0.1,0.68h2.06v-1.24h4.33c2.16,0,2.8-1.46,2.8-3.01
		c0-1.26-0.31-2.06-0.82-2.76h-2.16c0.23,0.56,0.31,1.01,0.31,1.42c0,0.68-0.31,1.05-1.09,1.05h-3.36v-2.39h-2.31v2.39h-2.54V236.27
		z"/>
	<path d="M24.16,221.83h-3.13c-2.56,0-3.61,1.79-3.61,4.23c0,2.76,1.4,4.27,3.42,4.56l0.21-3.09c-0.68-0.14-1.15-0.52-1.15-1.26
		c0-0.8,0.45-1.15,1.22-1.15h0.14l0.43,2.58c0.35,2,1.11,3.28,2.89,3.28c1.57,0,2.49-1.17,2.49-2.97c0-1.46-0.56-2.52-1.63-3.05
		c1.05-0.31,1.63-1.2,1.63-2.33c0-0.95-0.27-1.61-0.6-2.08H24.7c0.1,0.27,0.14,0.47,0.14,0.74
		C24.84,221.62,24.63,221.83,24.16,221.83z M24.92,226.81c0,0.56-0.31,0.93-0.78,0.93c-0.6,0-0.85-0.47-1.01-1.28l-0.25-1.36h0.14
		C24.22,225.1,24.92,225.87,24.92,226.81z"/>
	<rect x="13.87" y="216.22" width="12.99" height="3.34"/>
	<rect x="13.87" y="211.05" width="2.93" height="3.38"/>
	<rect x="17.67" y="211.07" width="9.19" height="3.34"/>
	<path d="M20.53,209.73c1.88,0,2.6-1.17,2.95-3.4l0.21-1.36c0.1-0.64,0.35-0.85,0.7-0.85c0.37,0,0.64,0.39,0.64,1.13
		c0,1.01-0.43,1.63-1.2,1.75l0.04,2.91c2.23-0.19,3.24-2.08,3.24-4.62c0-2.62-1.11-4.27-3.05-4.27c-1.79,0-2.72,1.2-3.05,3.26
		l-0.31,1.79c-0.04,0.31-0.21,0.56-0.52,0.56c-0.41,0-0.66-0.37-0.66-1.01c0-1.03,0.41-1.61,1.07-1.73l-0.08-2.74
		c-1.92,0.19-3.09,1.75-3.09,4.41C17.42,208.14,18.72,209.73,20.53,209.73z"/>
	<path d="M17.42,193.55c0,1.38,0.62,2.37,1.63,2.87h-1.38v3.34h9.19v-3.34h-4.51c-1.38,0-2.29-0.39-2.29-1.48
		c0-1.01,0.66-1.26,1.92-1.26h4.89v-3.34h-4.51c-1.38,0-2.29-0.37-2.29-1.48c0-1.01,0.66-1.24,1.92-1.24h4.89v-3.34h-5.77
		c-1.92,0-3.67,0.74-3.67,3.28c0,1.55,0.78,2.64,1.81,3.13C18.16,191.07,17.42,191.92,17.42,193.55z"/>
	<rect x="13.87" y="175.51" width="12.99" height="3.5"/>
	<path d="M23.83,171.37l0.04,2.91c2.23-0.19,3.24-2.08,3.24-4.62c0-2.62-1.11-4.27-3.05-4.27c-1.79,0-2.72,1.2-3.05,3.26l-0.31,1.79
		c-0.04,0.31-0.21,0.56-0.52,0.56c-0.41,0-0.66-0.37-0.66-1.01c0-1.03,0.41-1.61,1.07-1.73l-0.08-2.74
		c-1.92,0.19-3.09,1.75-3.09,4.41c0,2.58,1.3,4.16,3.11,4.16c1.88,0,2.6-1.18,2.95-3.4l0.21-1.36c0.1-0.64,0.35-0.85,0.7-0.85
		c0.37,0,0.64,0.39,0.64,1.13C25.03,170.63,24.59,171.25,23.83,171.37z"/>
	<path d="M26.86,158.04l-2.51-0.97V152l2.51-0.97v-3.73l-12.99,5.17v3.92l12.99,5.17V158.04z M21.73,156.06l-3.83-1.48v-0.08
		l3.83-1.48V156.06z"/>
	<polygon points="26.86,136.77 13.87,131.78 13.87,135.26 22.51,138.48 22.51,138.56 13.87,141.78 13.87,145.45 26.86,140.46 	"/>
	<rect x="13.87" y="127.51" width="2.93" height="3.38"/>
	<rect x="17.67" y="127.53" width="9.19" height="3.34"/>
	<path d="M19.3,122.38h-1.63v3.34h9.19v-3.34h-4.21c-1.55,0-2.12-0.76-2.12-2c0-0.64,0.12-1.13,0.39-1.59l-3.15-0.21
		c-0.19,0.23-0.35,0.72-0.35,1.28C17.42,121.08,18.27,122.05,19.3,122.38z"/>
	<path d="M22.57,114.32h-4.91v3.34h5.79c1.92,0,3.65-0.76,3.65-3.28c0-1.38-0.6-2.39-1.63-2.89h1.38v-3.34h-9.19v3.34h4.51
		c1.4,0,2.31,0.41,2.31,1.46C24.49,113.97,23.81,114.32,22.57,114.32z"/>
	<path d="M20.53,106.82c1.88,0,2.6-1.18,2.95-3.4l0.21-1.36c0.1-0.64,0.35-0.85,0.7-0.85c0.37,0,0.64,0.39,0.64,1.13
		c0,1.01-0.43,1.63-1.2,1.75l0.04,2.91c2.23-0.19,3.24-2.08,3.24-4.62c0-2.62-1.11-4.27-3.05-4.27c-1.79,0-2.72,1.2-3.05,3.26
		l-0.31,1.79c-0.04,0.31-0.21,0.56-0.52,0.56c-0.41,0-0.66-0.37-0.66-1.01c0-1.03,0.41-1.61,1.07-1.73l-0.08-2.74
		c-1.92,0.19-3.09,1.75-3.09,4.41C17.42,105.23,18.72,106.82,20.53,106.82z"/>
	<rect x="23.32" y="91.73" width="3.55" height="3.55"/>
	<path d="M22.26,88.85c2.87,0,4.84-2.02,4.84-5.03c0-2.99-1.98-5.03-4.84-5.03c-2.84,0-4.84,2.04-4.84,5.03
		C17.42,86.83,19.42,88.85,22.26,88.85z M22.26,82.15c1.38,0,2.33,0.52,2.33,1.67c0,1.17-0.95,1.67-2.33,1.67s-2.33-0.49-2.33-1.67
		C19.93,82.67,20.88,82.15,22.26,82.15z"/>
	<path d="M17.77,70.34c-0.19,0.23-0.35,0.72-0.35,1.28c0,1.22,0.85,2.19,1.88,2.52h-1.63v3.34h9.19v-3.34h-4.21
		c-1.55,0-2.12-0.76-2.12-2c0-0.64,0.12-1.13,0.39-1.59L17.77,70.34z"/>
	<path d="M18.16,62.26c-0.47,0.78-0.74,1.83-0.74,2.95c0,2.58,1.2,4.43,3.15,4.43c1.01,0,1.79-0.49,2.33-1.32
		c0.37,0.99,1.05,1.57,1.94,1.57c0.78,0,1.53-0.49,1.79-1.32c0.08,1.03,0.72,1.75,1.53,1.75c1.73,0,2.25-2.27,2.25-4.89
		c0-2.99-1.05-5.77-3.34-5.77c-1.55,0-2.64,1.05-2.64,3.13v3.81c0,0.56-0.25,0.78-0.56,0.78c-0.19,0-0.33-0.06-0.43-0.19
		c0.19-0.6,0.27-1.26,0.27-2c0-2.6-1.2-4.47-3.13-4.47c-0.43,0-0.83,0.1-1.18,0.29c-0.1-0.45-0.14-0.95-0.14-1.34h-2.52
		C16.74,60.69,17.4,61.7,18.16,62.26z M27.27,63.58c0-0.56,0.14-0.85,0.54-0.85c0.56,0,0.87,1.13,0.87,2.68
		c0,1.24-0.19,2.16-0.85,2.16c-0.35,0-0.56-0.25-0.56-0.62V63.58z M20.57,64.2c0.82,0,1.34,0.41,1.34,0.97
		c0,0.56-0.52,0.97-1.34,0.97c-0.8,0-1.32-0.41-1.32-0.97C19.25,64.61,19.77,64.2,20.57,64.2z"/>
	<path d="M765.35,72.44l2.06,0.43V70.9l2.02,0.49v1.88l2.06,0.43v-1.83l3.42,0.82V70.2l-3.42-0.82V67.6l3.42,0.83v-2.49l-3.42-0.82
		v-2.02l-2.06-0.43v1.98l-2.02-0.49v-1.88l-2.06-0.43v1.81l-3.42-0.8v2.49l3.42,0.8v1.77l-3.42-0.8v2.49l3.42,0.8V72.44z
		 M767.41,66.63l2.02,0.5v1.77l-2.02-0.49V66.63z"/>
	<path d="M767.43,89.33l0.14-3.36c-1.44-0.21-2.78-0.99-2.78-3.01c0-1.92,1.42-3.03,3.63-3.03c2.21,0,3.63,1.11,3.63,3.03
		c0,2.02-1.34,2.8-2.78,3.01l0.12,3.36c3.24-0.25,5.77-2.37,5.77-6.35c0-3.79-2.74-6.66-6.74-6.66c-4,0-6.74,2.87-6.74,6.66
		C761.68,86.96,764.2,89.08,767.43,89.33z"/>
	<path d="M764.63,99.2h3.13c2.56,0,3.61-1.79,3.61-4.23c0-2.76-1.4-4.27-3.42-4.56l-0.21,3.09c0.68,0.14,1.15,0.52,1.15,1.26
		c0,0.8-0.45,1.15-1.22,1.15h-0.14l-0.43-2.58c-0.35-2-1.11-3.28-2.89-3.28c-1.57,0-2.49,1.18-2.49,2.97c0,1.46,0.56,2.52,1.63,3.05
		c-1.05,0.31-1.63,1.2-1.63,2.33c0,0.95,0.27,1.61,0.6,2.08h1.77c-0.1-0.27-0.14-0.47-0.14-0.74
		C763.95,99.41,764.16,99.2,764.63,99.2z M763.87,94.21c0-0.56,0.31-0.93,0.78-0.93c0.6,0,0.84,0.47,1.01,1.28l0.25,1.36h-0.14
		C764.57,95.92,763.87,95.16,763.87,94.21z"/>
	<path d="M761.68,107.84c0,2.7,2.12,4.08,4.84,4.08c2.7,0,4.84-1.38,4.84-4.08c0-1.55-0.74-2.58-1.83-3.03h1.59v-3.34h-12.49v3.34
		h4.86C762.42,105.26,761.68,106.29,761.68,107.84z M766.46,104.81h0.12c1.32,0,2.18,0.72,2.18,1.86c0,1.3-0.93,1.9-2.25,1.9
		c-1.34,0-2.27-0.6-2.27-1.9C764.26,105.53,765.12,104.81,766.46,104.81z"/>
	<rect x="761.93" y="113.24" width="9.19" height="3.34"/>
	<rect x="771.99" y="113.22" width="2.93" height="3.38"/>
	<path d="M762.51,124.49h2.16c-0.23-0.56-0.31-1.01-0.31-1.42c0-0.68,0.31-1.05,1.09-1.05h3.36v2.39h2.31v-2.39h2.54v-2.1l-1.2-0.31
		c-0.85-0.23-1.34-0.52-1.48-1.44l-0.1-0.68h-2.06v1.24h-4.33c-2.16,0-2.8,1.46-2.8,3.01C761.68,122.99,761.99,123.79,762.51,124.49
		z"/>
	<path d="M764.63,134.36h3.13c2.56,0,3.61-1.79,3.61-4.23c0-2.76-1.4-4.27-3.42-4.56l-0.21,3.09c0.68,0.14,1.15,0.52,1.15,1.26
		c0,0.8-0.45,1.15-1.22,1.15h-0.14l-0.43-2.58c-0.35-2-1.11-3.28-2.89-3.28c-1.57,0-2.49,1.18-2.49,2.97c0,1.46,0.56,2.51,1.63,3.05
		c-1.05,0.31-1.63,1.2-1.63,2.33c0,0.95,0.27,1.61,0.6,2.08h1.77c-0.1-0.27-0.14-0.47-0.14-0.74
		C763.95,134.57,764.16,134.36,764.63,134.36z M763.87,129.37c0-0.56,0.31-0.93,0.78-0.93c0.6,0,0.84,0.47,1.01,1.28l0.25,1.36
		h-0.14C764.57,131.08,763.87,130.32,763.87,129.37z"/>
	<rect x="761.93" y="136.63" width="12.99" height="3.34"/>
	<rect x="761.93" y="141.78" width="9.19" height="3.34"/>
	<rect x="771.99" y="141.76" width="2.93" height="3.38"/>
	<path d="M764.73,155.16c1.79,0,2.72-1.2,3.05-3.26l0.31-1.79c0.04-0.31,0.21-0.56,0.51-0.56c0.41,0,0.66,0.37,0.66,1.01
		c0,1.03-0.41,1.61-1.07,1.73l0.08,2.74c1.92-0.19,3.09-1.75,3.09-4.41c0-2.58-1.3-4.16-3.11-4.16c-1.88,0-2.6,1.18-2.95,3.4
		l-0.21,1.36c-0.1,0.64-0.35,0.85-0.7,0.85c-0.37,0-0.64-0.39-0.64-1.13c0-1.01,0.43-1.63,1.2-1.75l-0.04-2.91
		c-2.23,0.19-3.24,2.08-3.24,4.62C761.68,153.51,762.79,155.16,764.73,155.16z"/>
	<path d="M771.37,162.64c0-1.38-0.62-2.37-1.63-2.87h1.38v-3.34h-9.19v3.34h4.51c1.38,0,2.29,0.39,2.29,1.48
		c0,1.01-0.66,1.26-1.92,1.26h-4.89v3.34h4.51c1.38,0,2.29,0.37,2.29,1.48c0,1.01-0.66,1.24-1.92,1.24h-4.89v3.34h5.77
		c1.92,0,3.67-0.74,3.67-3.28c0-1.55-0.78-2.64-1.81-3.13C770.63,165.11,771.37,164.27,771.37,162.64z"/>
	<rect x="761.93" y="175.51" width="12.99" height="3.5"/>
	<path d="M764.96,183.15l-0.04-2.91c-2.23,0.19-3.24,2.08-3.24,4.62c0,2.62,1.11,4.27,3.05,4.27c1.79,0,2.72-1.2,3.05-3.26
		l0.31-1.79c0.04-0.31,0.21-0.56,0.51-0.56c0.41,0,0.66,0.37,0.66,1.01c0,1.03-0.41,1.61-1.07,1.73l0.08,2.74
		c1.92-0.19,3.09-1.75,3.09-4.41c0-2.58-1.3-4.16-3.11-4.16c-1.88,0-2.6,1.18-2.95,3.4l-0.21,1.36c-0.1,0.64-0.35,0.85-0.7,0.85
		c-0.37,0-0.64-0.39-0.64-1.13C763.76,183.9,764.2,183.28,764.96,183.15z"/>
	<path d="M761.93,194.83l2.51,0.97v5.07l-2.51,0.97v3.73l12.99-5.17v-3.92l-12.99-5.17V194.83z M767.06,196.8l3.83,1.48v0.08
		l-3.83,1.48V196.8z"/>
	<polygon points="761.93,216.04 774.92,221.03 774.92,217.55 766.28,214.33 766.28,214.25 774.92,211.03 774.92,207.36 
		761.93,212.35 	"/>
	<rect x="761.93" y="221.93" width="9.19" height="3.34"/>
	<rect x="771.99" y="221.91" width="2.93" height="3.38"/>
	<path d="M769.49,230.43h1.63v-3.34h-9.19v3.34h4.21c1.55,0,2.12,0.76,2.12,2c0,0.64-0.12,1.13-0.39,1.59l3.15,0.21
		c0.19-0.23,0.35-0.72,0.35-1.28C771.37,231.73,770.53,230.76,769.49,230.43z"/>
	<path d="M766.22,238.48h4.91v-3.34h-5.79c-1.92,0-3.65,0.76-3.65,3.28c0,1.38,0.6,2.39,1.63,2.89h-1.38v3.34h9.19v-3.34h-4.51
		c-1.4,0-2.31-0.41-2.31-1.46C764.3,238.83,764.98,238.48,766.22,238.48z"/>
	<path d="M768.26,245.99c-1.88,0-2.6,1.17-2.95,3.4l-0.21,1.36c-0.1,0.64-0.35,0.85-0.7,0.85c-0.37,0-0.64-0.39-0.64-1.13
		c0-1.01,0.43-1.63,1.2-1.75l-0.04-2.91c-2.23,0.19-3.24,2.08-3.24,4.62c0,2.62,1.11,4.27,3.05,4.27c1.79,0,2.72-1.2,3.05-3.26
		l0.31-1.79c0.04-0.31,0.21-0.56,0.51-0.56c0.41,0,0.66,0.37,0.66,1.01c0,1.03-0.41,1.61-1.07,1.73l0.08,2.74
		c1.92-0.19,3.09-1.75,3.09-4.41C771.37,247.57,770.07,245.99,768.26,245.99z"/>
</g>
<g id="exp_white_bg" class="st0">
	<g class="st2">
		<path class="st5" d="M23.03,225.1h-0.14l0.25,1.36c0.17,0.8,0.41,1.28,1.01,1.28c0.47,0,0.78-0.37,0.78-0.93
			C24.92,225.87,24.22,225.1,23.03,225.1z"/>
		<path class="st5" d="M0.14,612h792V-612h-792V612z M26.86,294.91l-5.19,1.34v0.08l5.19,1.34v3.28l-9.06,2.86l9.06,2.86v3.28
			l-5.19,1.34v0.08l5.19,1.34v3.28l-9.06,2.86l9.06,2.86V325l-5.19,1.34v0.08l5.19,1.34v3.28l-9.19,2.91v-3.32l5.22-1.65v-0.08
			l-5.22-1.34v-2.66l5.22-1.34v-0.08l-5.22-1.65v-2.92v-0.09v-3.23l5.22-1.65v-0.08l-5.22-1.34v-2.66l5.22-1.34v-0.08l-5.22-1.65
			v-2.92v-0.09v-3.23l5.22-1.65v-0.08l-5.22-1.34v-2.66l5.22-1.34v-0.08l-5.22-1.65v-3.01l9.19,2.91V294.91z M26.86,286.3h-3.55
			v-3.55h3.55V286.3z M30.16,254.72H17.67v-3.34h1.59c-1.09-0.45-1.83-1.48-1.83-3.03c0-2.7,2.14-4.08,4.84-4.08
			c2.72,0,4.84,1.38,4.84,4.08c0,1.55-0.74,2.58-1.81,3.03h4.86V254.72z M27.07,263.15c0,1.79-0.93,2.97-2.49,2.97
			c-1.77,0-2.54-1.28-2.89-3.28l-0.43-2.58h-0.14c-0.76,0-1.22,0.35-1.22,1.15c0,0.74,0.47,1.11,1.15,1.26l-0.21,3.09
			c-2.02-0.29-3.42-1.79-3.42-4.56c0-2.43,1.05-4.23,3.61-4.23h3.13c0.47,0,0.68-0.21,0.68-0.56c0-0.27-0.04-0.47-0.14-0.74h1.77
			c0.33,0.47,0.6,1.13,0.6,2.08c0,1.13-0.58,2.02-1.63,2.33C26.51,260.63,27.07,261.69,27.07,263.15z M24.7,220.53h1.77
			c0.33,0.47,0.6,1.13,0.6,2.08c0,1.13-0.58,2.02-1.63,2.33c1.07,0.54,1.63,1.59,1.63,3.05c0,1.79-0.93,2.97-2.49,2.97
			c-1.77,0-2.54-1.28-2.89-3.28l-0.43-2.58h-0.14c-0.76,0-1.22,0.35-1.22,1.15c0,0.74,0.47,1.11,1.15,1.26l-0.21,3.09
			c-2.02-0.29-3.42-1.79-3.42-4.56c0-2.43,1.05-4.23,3.61-4.23h3.13c0.47,0,0.68-0.21,0.68-0.56C24.84,221,24.8,220.79,24.7,220.53z
			 M17.42,187.55c0-2.54,1.75-3.28,3.67-3.28h5.77v3.34h-4.89c-1.26,0-1.92,0.23-1.92,1.24c0,1.11,0.91,1.48,2.29,1.48h4.51v3.34
			h-4.89c-1.26,0-1.92,0.25-1.92,1.26c0,1.09,0.91,1.48,2.29,1.48h4.51v3.34h-9.19v-3.34h1.38c-1.01-0.49-1.63-1.48-1.63-2.87
			c0-1.63,0.74-2.47,1.81-2.87C18.2,190.19,17.42,189.1,17.42,187.55z M20.51,201.15l0.08,2.74c-0.66,0.12-1.07,0.7-1.07,1.73
			c0,0.64,0.25,1.01,0.66,1.01c0.31,0,0.47-0.25,0.52-0.56l0.31-1.79c0.33-2.06,1.26-3.26,3.05-3.26c1.94,0,3.05,1.65,3.05,4.27
			c0,2.54-1.01,4.43-3.24,4.62l-0.04-2.91c0.76-0.12,1.2-0.74,1.2-1.75c0-0.74-0.27-1.13-0.64-1.13c-0.35,0-0.6,0.21-0.7,0.85
			l-0.21,1.36c-0.35,2.23-1.07,3.4-2.95,3.4c-1.81,0-3.11-1.59-3.11-4.16C17.42,202.91,18.59,201.34,20.51,201.15z M24.39,168.49
			c-0.35,0-0.6,0.21-0.7,0.85l-0.21,1.36c-0.35,2.23-1.07,3.4-2.95,3.4c-1.81,0-3.11-1.59-3.11-4.16c0-2.66,1.17-4.23,3.09-4.41
			l0.08,2.74c-0.66,0.12-1.07,0.7-1.07,1.73c0,0.64,0.25,1.01,0.66,1.01c0.31,0,0.47-0.25,0.52-0.56l0.31-1.79
			c0.33-2.06,1.26-3.26,3.05-3.26c1.94,0,3.05,1.65,3.05,4.27c0,2.54-1.01,4.43-3.24,4.62l-0.04-2.91c0.76-0.12,1.2-0.74,1.2-1.75
			C25.03,168.88,24.76,168.49,24.39,168.49z M22.66,74.13h4.21v3.34h-9.19v-3.34h1.63c-1.03-0.33-1.88-1.3-1.88-2.52
			c0-0.56,0.17-1.05,0.35-1.28l3.15,0.21c-0.27,0.45-0.39,0.95-0.39,1.59C20.53,73.37,21.11,74.13,22.66,74.13z M22.26,78.79
			c2.87,0,4.84,2.04,4.84,5.03c0,3.01-1.98,5.03-4.84,5.03c-2.84,0-4.84-2.02-4.84-5.03C17.42,80.83,19.42,78.79,22.26,78.79z
			 M26.86,91.73v3.55h-3.55v-3.55H26.86z M20.51,98.25l0.08,2.74c-0.66,0.12-1.07,0.7-1.07,1.73c0,0.64,0.25,1.01,0.66,1.01
			c0.31,0,0.47-0.25,0.52-0.56l0.31-1.79c0.33-2.06,1.26-3.26,3.05-3.26c1.94,0,3.05,1.65,3.05,4.27c0,2.54-1.01,4.43-3.24,4.62
			l-0.04-2.91c0.76-0.12,1.2-0.74,1.2-1.75c0-0.74-0.27-1.13-0.64-1.13c-0.35,0-0.6,0.21-0.7,0.85l-0.21,1.36
			c-0.35,2.23-1.07,3.4-2.95,3.4c-1.81,0-3.11-1.59-3.11-4.16C17.42,100,18.59,98.43,20.51,98.25z M22.18,111.5h-4.51v-3.34h9.19
			v3.34h-1.38c1.03,0.49,1.63,1.5,1.63,2.89c0,2.52-1.73,3.28-3.65,3.28h-5.79v-3.34h4.91c1.24,0,1.92-0.35,1.92-1.36
			C24.49,111.91,23.58,111.5,22.18,111.5z M17.77,118.59l3.15,0.21c-0.27,0.45-0.39,0.95-0.39,1.59c0,1.24,0.58,2,2.12,2h4.21v3.34
			h-9.19v-3.34h1.63c-1.03-0.33-1.88-1.3-1.88-2.52C17.42,119.31,17.58,118.82,17.77,118.59z M17.67,127.53h9.19v3.34h-9.19V127.53z
			 M17.67,211.07h9.19v3.34h-9.19V211.07z M17.67,234.17v-2.39h2.31v2.39h3.36c0.78,0,1.09-0.37,1.09-1.05
			c0-0.41-0.08-0.87-0.31-1.42h2.16c0.52,0.7,0.82,1.5,0.82,2.76c0,1.55-0.64,3.01-2.8,3.01h-4.33v1.24h-2.06l-0.1-0.68
			c-0.14-0.93-0.64-1.22-1.48-1.44l-1.2-0.31v-2.1H17.67z M26.86,239.61v3.34h-9.19v-3.34H26.86z M696.39,392.92
			c-2.07,1.59-4.64,2.08-7,1.56c-1.89-0.41-3.65-1.46-4.92-3.12c-28.27-36.75-67.37-57.56-116.22-61.83
			c-74.82-6.55-165.96,28.33-232.19,88.86c-3.09,2.83-7.78,2.98-11.05,0.36c-3.27-2.62-4.14-7.23-2.06-10.86
			c13.78-24,24.86-66.9,36.59-112.32c16-61.92,32.54-125.95,59.12-151.1c1.68-1.59,3.93-2.43,6.25-2.31c2.31,0.11,4.48,1.16,6,2.9
			c19.38,22.2,41.58,33.06,66.03,32.27c4.25-0.14,8.2-0.63,11.76-1.31c-5.12-2.53-9.84-6.31-13.48-11.08
			c-2.9,1.16-6.08,1.77-9.46,1.8c-0.08,0-0.17,0-0.26,0c-15.58,0-33.37-12.99-35.22-32.52c-0.44-4.67,2.99-8.82,7.66-9.26
			c4.67-0.43,8.82,2.99,9.26,7.66c0.93,9.83,10.38,17.11,18.27,17.11c0.04,0,0.08,0,0.12,0c1.98-0.02,8.01-0.07,8.85-11.19
			c2.05-27.03-15.06-41.68-15.23-41.82c-3.6-3.01-4.07-8.37-1.06-11.97c3.01-3.6,8.38-4.07,11.97-1.06
			c0.98,0.82,23.97,20.5,21.27,56.14c-0.39,5.15-1.59,9.66-3.58,13.48c3.77,5.96,10.63,9.37,15.69,9.33
			c1.98-0.02,8.01-0.07,8.85-11.19c1.77-23.3-24.6-62.59-34.91-75.75c-2.89-3.7-2.24-9.04,1.45-11.93c3.7-2.89,9.04-2.24,11.93,1.45
			c0.41,0.53,10.26,13.15,19.92,29.93c13.35,23.18,19.59,42.44,18.57,57.28c1.13-0.22,2.28-0.39,3.46-0.5
			c6.17-0.58,12.1,0.45,17.28,2.73c0.2-0.95,0.35-2.01,0.44-3.2c1.77-23.3-24.6-62.59-34.91-75.75c-2.89-3.7-2.24-9.04,1.45-11.93
			c3.7-2.89,9.04-2.24,11.93,1.45c0.41,0.53,10.26,13.15,19.92,29.93c13.44,23.33,19.68,42.71,18.55,57.59
			c-0.03,0.4-0.09,0.77-0.13,1.16c11.32-9.57,13.88-24.17,7.59-43.5c-6.75-20.74-25.27-44.16-25.46-44.4
			c-0.21-0.26-0.4-0.53-0.58-0.82c-3.92-6.34-21.48-11.98-34.79-13.09l-0.48-0.04c-22.74-1.89-60.8-5.06-97.2-4.59
			c-23.93,0.31-65.96,2.69-78.48,15.21c-15.05,15.05-68.4,86.68-121.08,169.15C176,327.07,141.1,397.91,141.1,426.16
			c0,1.52-0.41,3.01-1.18,4.32c-19.83,33.63,0.38,48.57,2.75,50.16c1.67,1.08,2.83,2.61,3.43,4.5c0.08,0.25,9.51,28.18,39.22,50.96
			c9.35,7.17,43.05,16.92,150.53,22.7c73.47,3.95,173.38,5.8,314.42,5.8c0.62,0,1.23,0.07,1.82,0.2c3.82,0.83,6.68,4.23,6.68,8.3
			c0,4.69-3.81,8.5-8.5,8.5c-141.36,0-241.56-1.85-315.34-5.82c-121.27-6.53-149.37-18.07-159.96-26.19
			c-28.97-22.21-40.92-48.44-44.13-56.68c-7.73-6.58-28.93-29.53-6.68-69.13c1.16-23.85,19.75-78.05,98.39-201.14
			c50.7-79.36,105.71-154.35,123.38-172.01C371.36,25.19,455.8,28.5,535.04,35.09l0.48,0.04c1.48,0.12,36.2,3.2,47.55,20.63
			c2.62,3.34,20.76,26.98,28.04,49.36c9.87,30.33,2.23,54.4-21.5,67.78c-0.74,0.42-1.53,0.72-2.36,0.9l-0.07,0.02
			c0.39,1.45,0.67,2.95,0.81,4.49c1.53,16.23-11.75,30.81-29.62,32.5c-1.14,0.11-2.27,0.16-3.39,0.16
			c-14.53,0-27.08-8.86-30.8-21.42c-6.69,2.22-15.89,4.43-26.68,4.78c-18.92,0.61-46.3-4.53-72.85-31.08
			c-20.12,26.22-35.2,84.58-48.64,136.59c-7.8,30.2-15.32,59.32-23.72,83.14c66.03-49.3,148.18-76.42,217.44-70.36
			c53.02,4.64,97.36,28.29,128.21,68.4C700.8,384.72,700.11,390.06,696.39,392.92z M588.67,460.09l12.34,5.43l-13.3,30.22
			l-12.34-5.43c-4.39,5.88-10.05,11.21-16.12,15.45l4.93,12.69l-30.83,11.98l-4.93-12.69c-7.34,0.98-14.86,0.97-22.32-0.51
			l-5.43,12.34l-30.22-13.3l5.43-12.34c-5.88-4.39-11.21-10.05-15.45-16.12l-12.69,4.93l-11.98-30.83l12.69-4.93
			c-0.98-7.34-0.97-14.86,0.51-22.32l-12.34-5.43l13.3-30.22l12.34,5.43c4.39-5.88,10.05-11.21,16.12-15.45l-4.93-12.69l30.83-11.98
			l4.93,12.69c7.34-0.98,14.86-0.97,22.32,0.51l5.43-12.34l30.22,13.3l-5.43,12.34c5.88,4.39,11.21,10.05,15.45,16.12l12.69-4.93
			l11.98,30.83l-12.69,4.93C590.15,445.11,590.15,452.63,588.67,460.09z M361.17-295.55h0.8l20.72-78.7h30.48l20.72,78.7h0.8
			l19.92-78.7h32.67l-32.87,125.52h-36.06l-20.92-79.29h-0.8l-20.92,79.29h-35.46l-32.87-125.52h33.87L361.17-295.55z
			 M349.97-588.45v-9.19h3.34v9.19H349.97z M487.4-21.17l1.79,0.31c2.06,0.33,3.26,1.26,3.26,3.05c0,1.94-1.65,3.05-4.27,3.05
			c-2.54,0-4.43-1.01-4.62-3.24l2.91-0.04c0.12,0.76,0.74,1.2,1.75,1.2c0.74,0,1.13-0.27,1.13-0.64c0-0.35-0.21-0.6-0.85-0.7
			l-1.36-0.21c-2.23-0.35-3.4-1.07-3.4-2.95c0-1.81,1.59-3.11,4.16-3.11c2.66,0,4.23,1.18,4.41,3.09l-2.74,0.08
			c-0.12-0.66-0.7-1.07-1.73-1.07c-0.64,0-1.01,0.25-1.01,0.66C486.84-21.38,487.09-21.21,487.4-21.17z M476.19-14.76
			c-2.51,0-3.28-1.73-3.28-3.65v-5.79h3.34v4.91c0,1.24,0.35,1.92,1.36,1.92c1.05,0,1.46-0.91,1.46-2.31v-4.51h3.34v9.19h-3.34
			v-1.38C478.58-15.36,477.57-14.76,476.19-14.76z M455.01-65.64v-34.27h34.27v34.27H455.01z M470.71-24.45
			c0.56,0,1.05,0.17,1.28,0.35l-0.21,3.15c-0.45-0.27-0.95-0.39-1.59-0.39c-1.24,0-2,0.58-2,2.12v4.21h-3.34v-9.19h3.34v1.63
			C468.52-23.6,469.49-24.45,470.71-24.45z M459.68-25.07v-2.93h3.38v2.93H459.68z M463.04-24.2v9.19h-3.34v-9.19H463.04z
			 M458.8-27.99l-4.99,12.99h-3.69l-4.99-12.99h3.67l3.22,8.64h0.08l3.22-8.64H458.8z M489.28-158.88l-6.77,51.4h-20.72l-6.77-51.4
			v-32.28h34.27V-158.88z M443.33-15.01h-3.73l-0.97-2.51h-5.07l-0.97,2.51h-3.52l5.17-12.99h3.92L443.33-15.01z M422.96-18.18
			l-1.36-0.21c-2.23-0.35-3.4-1.07-3.4-2.95c0-1.81,1.59-3.11,4.16-3.11c2.66,0,4.23,1.18,4.41,3.09l-2.74,0.08
			c-0.12-0.66-0.7-1.07-1.73-1.07c-0.64,0-1.01,0.25-1.01,0.66c0,0.31,0.25,0.47,0.56,0.52l1.79,0.31c2.06,0.33,3.26,1.26,3.26,3.05
			c0,1.94-1.65,3.05-4.27,3.05c-2.54,0-4.43-1.01-4.62-3.24l2.91-0.04c0.12,0.76,0.74,1.2,1.75,1.2c0.74,0,1.13-0.27,1.13-0.64
			C423.8-17.83,423.6-18.08,422.96-18.18z M416.78-27.99v12.99h-3.5v-12.99H416.78z M405.11-21.81c-1.11,0-1.48,0.91-1.48,2.29v4.51
			h-3.34v-4.89c0-1.26-0.25-1.92-1.26-1.92c-1.09,0-1.48,0.91-1.48,2.29v4.51h-3.34v-9.19h3.34v1.38c0.5-1.01,1.48-1.63,2.87-1.63
			c1.63,0,2.47,0.74,2.87,1.81c0.49-1.03,1.59-1.81,3.13-1.81c2.54,0,3.28,1.75,3.28,3.67v5.77h-3.34v-4.89
			C406.34-21.15,406.12-21.81,405.11-21.81z M388.99-18.18l-1.36-0.21c-2.23-0.35-3.4-1.07-3.4-2.95c0-1.81,1.59-3.11,4.16-3.11
			c2.66,0,4.23,1.18,4.41,3.09l-2.74,0.08c-0.12-0.66-0.7-1.07-1.73-1.07c-0.64,0-1.01,0.25-1.01,0.66c0,0.31,0.25,0.47,0.56,0.52
			l1.79,0.31c2.06,0.33,3.26,1.26,3.26,3.05c0,1.94-1.65,3.05-4.27,3.05c-2.54,0-4.43-1.01-4.62-3.24l2.91-0.04
			c0.12,0.76,0.74,1.2,1.75,1.2c0.74,0,1.13-0.27,1.13-0.64C389.83-17.83,389.63-18.08,388.99-18.18z M372.93-65.64v-34.27h34.27
			v34.27H372.93z M379.53-25.07v-2.93h3.38v2.93H379.53z M382.89-24.2v9.19h-3.34v-9.19H382.89z M377.73-27.99v12.99h-3.34v-12.99
			H377.73z M367.7-21.97c-0.74,0-1.11,0.47-1.26,1.15l-3.09-0.21c0.29-2.02,1.79-3.42,4.56-3.42c2.43,0,4.23,1.05,4.23,3.61v3.13
			c0,0.47,0.21,0.68,0.56,0.68c0.27,0,0.47-0.04,0.74-0.14v1.77c-0.47,0.33-1.13,0.6-2.08,0.6c-1.13,0-2.02-0.58-2.33-1.63
			c-0.54,1.07-1.59,1.63-3.05,1.63c-1.79,0-2.97-0.93-2.97-2.49c0-1.77,1.28-2.54,3.28-2.89l2.58-0.43v-0.14
			C368.85-21.52,368.5-21.97,367.7-21.97z M372.93-158.88v-32.28h34.27v32.28l-6.77,51.4H379.7L372.93-158.88z M355.25-21.89v-2.06
			l0.68-0.1c0.93-0.14,1.22-0.64,1.44-1.48l0.31-1.2h2.1v2.54h2.39v2.31h-2.39v3.36c0,0.78,0.37,1.09,1.05,1.09
			c0.41,0,0.87-0.08,1.42-0.31v2.16c-0.7,0.52-1.5,0.82-2.76,0.82c-1.55,0-3.01-0.64-3.01-2.8v-4.33H355.25z M350.98-25.07v-2.93
			h3.38v2.93H350.98z M354.34-24.2v9.19H351v-9.19H354.34z M345.6-24.45c2.7,0,4.08,2.14,4.08,4.84c0,2.72-1.38,4.84-4.08,4.84
			c-1.55,0-2.58-0.74-3.03-1.81v4.86h-3.34V-24.2h3.34v1.59C343.03-23.71,344.06-24.45,345.6-24.45z M332.54-21.97
			c-0.74,0-1.11,0.47-1.26,1.15l-3.09-0.21c0.29-2.02,1.79-3.42,4.56-3.42c2.43,0,4.23,1.05,4.23,3.61v3.13
			c0,0.47,0.21,0.68,0.56,0.68c0.27,0,0.47-0.04,0.74-0.14v1.77c-0.47,0.33-1.13,0.6-2.08,0.6c-1.13,0-2.02-0.58-2.33-1.63
			c-0.54,1.07-1.59,1.63-3.05,1.63c-1.79,0-2.97-0.93-2.97-2.49c0-1.77,1.28-2.54,3.28-2.89l2.58-0.43v-0.14
			C333.69-21.52,333.34-21.97,332.54-21.97z M320.73-17.87c2.02,0,2.8-1.34,3.01-2.78l3.36,0.14c-0.25,3.24-2.37,5.75-6.35,5.75
			c-3.79,0-6.66-2.74-6.66-6.74c0-4,2.87-6.74,6.66-6.74c3.98,0,6.1,2.54,6.35,5.77l-3.36,0.12c-0.21-1.44-0.99-2.78-3.01-2.78
			c-1.92,0-3.03,1.42-3.03,3.63C317.7-19.29,318.81-17.87,320.73-17.87z M310.64-20.49l-0.43,2.06h-2.04l-0.8,3.42h-2.49l0.8-3.42
			h-1.77l-0.8,3.42h-2.49l0.8-3.42h-1.81l0.43-2.06h1.88l0.49-2.02h-1.98l0.43-2.06h2.02l0.82-3.42h2.49l-0.83,3.42h1.77l0.82-3.42
			h2.49l-0.82,3.42h1.83l-0.43,2.06h-1.88l-0.49,2.02H310.64z M290.84-65.64v-34.27h34.27v34.27H290.84z M290.84-158.88v-32.28
			h34.27v32.28l-6.77,51.4h-20.72L290.84-158.88z M294.83-426.44c-29.09,0-48.61-19.13-48.61-46.82c0-27.5,19.52-46.82,48.61-46.82
			c28.89,0,48.61,19.33,48.61,46.82C343.44-445.56,323.72-426.44,294.83-426.44z M305.38-311.49c0,38.65-28.69,65.15-65.15,65.15
			s-65.15-26.5-65.15-65.15s28.69-65.15,65.15-65.15S305.38-350.14,305.38-311.49z M579.34-325.84v27.49h-49.21v21.72h65.55v27.89
			h-98.82v-125.52h97.03v27.89h-63.76v20.52H579.34z M768.28,254.56l-0.08-2.74c0.66-0.12,1.07-0.7,1.07-1.73
			c0-0.64-0.25-1.01-0.66-1.01c-0.31,0-0.47,0.25-0.51,0.56l-0.31,1.79c-0.33,2.06-1.26,3.26-3.05,3.26c-1.94,0-3.05-1.65-3.05-4.27
			c0-2.54,1.01-4.43,3.24-4.62l0.04,2.91c-0.76,0.12-1.2,0.74-1.2,1.75c0,0.74,0.27,1.13,0.64,1.13c0.35,0,0.6-0.21,0.7-0.85
			l0.21-1.36c0.35-2.23,1.07-3.4,2.95-3.4c1.81,0,3.11,1.59,3.11,4.16C771.37,252.81,770.2,254.38,768.28,254.56z M764.48,118.72
			h4.33v-1.24h2.06l0.1,0.68c0.14,0.93,0.64,1.22,1.48,1.44l1.2,0.31v2.1h-2.54v2.39h-2.31v-2.39h-3.36c-0.78,0-1.09,0.37-1.09,1.05
			c0,0.41,0.08,0.87,0.31,1.42h-2.16c-0.52-0.7-0.82-1.5-0.82-2.76C761.68,120.18,762.32,118.72,764.48,118.72z M761.93,116.58
			v-3.34h9.19v3.34H761.93z M764.09,100.5h-1.77c-0.33-0.47-0.6-1.13-0.6-2.08c0-1.13,0.58-2.02,1.63-2.33
			c-1.07-0.54-1.63-1.59-1.63-3.05c0-1.79,0.93-2.97,2.49-2.97c1.77,0,2.54,1.28,2.89,3.28l0.43,2.58h0.14
			c0.76,0,1.22-0.35,1.22-1.15c0-0.74-0.47-1.11-1.15-1.26l0.21-3.09c2.02,0.29,3.42,1.79,3.42,4.56c0,2.43-1.05,4.23-3.61,4.23
			h-3.13c-0.47,0-0.68,0.21-0.68,0.56C763.95,100.03,763.99,100.23,764.09,100.5z M764.09,135.66h-1.77
			c-0.33-0.47-0.6-1.13-0.6-2.08c0-1.13,0.58-2.02,1.63-2.33c-1.07-0.54-1.63-1.59-1.63-3.05c0-1.79,0.93-2.97,2.49-2.97
			c1.77,0,2.54,1.28,2.89,3.28l0.43,2.58h0.14c0.76,0,1.22-0.35,1.22-1.15c0-0.74-0.47-1.11-1.15-1.26l0.21-3.09
			c2.02,0.29,3.42,1.79,3.42,4.56c0,2.43-1.05,4.23-3.61,4.23h-3.13c-0.47,0-0.68,0.21-0.68,0.56
			C763.95,135.19,763.99,135.39,764.09,135.66z M761.93,141.78h9.19v3.34h-9.19V141.78z M764.92,146.27l0.04,2.91
			c-0.76,0.12-1.2,0.74-1.2,1.75c0,0.74,0.27,1.13,0.64,1.13c0.35,0,0.6-0.21,0.7-0.85l0.21-1.36c0.35-2.23,1.07-3.4,2.95-3.4
			c1.81,0,3.11,1.59,3.11,4.16c0,2.66-1.17,4.23-3.09,4.41l-0.08-2.74c0.66-0.12,1.07-0.7,1.07-1.73c0-0.64-0.25-1.01-0.66-1.01
			c-0.31,0-0.47,0.25-0.51,0.56l-0.31,1.79c-0.33,2.06-1.26,3.26-3.05,3.26c-1.94,0-3.05-1.65-3.05-4.27
			C761.68,148.36,762.69,146.46,764.92,146.27z M771.37,168.64c0,2.54-1.75,3.28-3.67,3.28h-5.77v-3.34h4.89
			c1.26,0,1.92-0.23,1.92-1.24c0-1.11-0.91-1.48-2.29-1.48h-4.51v-3.34h4.89c1.26,0,1.92-0.25,1.92-1.26c0-1.09-0.91-1.48-2.29-1.48
			h-4.51v-3.34h9.19v3.34h-1.38c1.01,0.5,1.63,1.48,1.63,2.87c0,1.63-0.74,2.47-1.81,2.87C770.59,166,771.37,167.09,771.37,168.64z
			 M764.4,186.04c0.35,0,0.6-0.21,0.7-0.85l0.21-1.36c0.35-2.23,1.07-3.4,2.95-3.4c1.81,0,3.11,1.59,3.11,4.16
			c0,2.66-1.17,4.23-3.09,4.41l-0.08-2.74c0.66-0.12,1.07-0.7,1.07-1.73c0-0.64-0.25-1.01-0.66-1.01c-0.31,0-0.47,0.25-0.51,0.56
			l-0.31,1.79c-0.33,2.06-1.26,3.26-3.05,3.26c-1.94,0-3.05-1.65-3.05-4.27c0-2.54,1.01-4.43,3.24-4.62l0.04,2.91
			c-0.76,0.12-1.2,0.74-1.2,1.75C763.76,185.65,764.03,186.04,764.4,186.04z M761.93,221.93h9.19v3.34h-9.19V221.93z M766.61,241.31
			h4.51v3.34h-9.19v-3.34h1.38c-1.03-0.49-1.63-1.5-1.63-2.89c0-2.51,1.73-3.28,3.65-3.28h5.79v3.34h-4.91
			c-1.24,0-1.92,0.35-1.92,1.36C764.3,240.9,765.21,241.31,766.61,241.31z M771.02,234.22l-3.15-0.21c0.27-0.45,0.39-0.95,0.39-1.59
			c0-1.24-0.58-2-2.12-2h-4.21v-3.34h9.19v3.34h-1.63c1.03,0.33,1.88,1.3,1.88,2.52C771.37,233.5,771.21,233.99,771.02,234.22z
			 M774.92,225.29h-2.93v-3.38h2.93V225.29z M774.92,211.03l-8.64,3.22v0.08l8.64,3.22v3.48l-12.99-4.99v-3.69l12.99-4.99V211.03z
			 M774.92,200.39l-12.99,5.17v-3.73l2.51-0.97v-5.07l-2.51-0.97v-3.52l12.99,5.17V200.39z M774.92,179.01h-12.99v-3.5h12.99V179.01
			z M774.92,145.14h-2.93v-3.38h2.93V145.14z M774.92,139.97h-12.99v-3.34h12.99V139.97z M774.92,116.6h-2.93v-3.38h2.93V116.6z
			 M761.93,67.1l3.42,0.8v-1.77l-3.42-0.8v-2.49l3.42,0.8v-1.81l2.06,0.43v1.88l2.02,0.49v-1.98l2.06,0.43v2.02l3.42,0.82v2.49
			l-3.42-0.83v1.77l3.42,0.82v2.49l-3.42-0.82v1.83l-2.06-0.43v-1.88l-2.02-0.49v1.98l-2.06-0.43V70.4l-3.42-0.8V67.1z
			 M768.42,76.32c4,0,6.74,2.87,6.74,6.66c0,3.98-2.54,6.1-5.77,6.35l-0.12-3.36c1.44-0.21,2.78-0.99,2.78-3.01
			c0-1.92-1.42-3.03-3.63-3.03c-2.21,0-3.63,1.11-3.63,3.03c0,2.02,1.34,2.8,2.78,3.01l-0.14,3.36c-3.24-0.25-5.75-2.37-5.75-6.35
			C761.68,79.19,764.42,76.32,768.42,76.32z M758.63,101.47h12.49v3.34h-1.59c1.09,0.45,1.83,1.48,1.83,3.03
			c0,2.7-2.14,4.08-4.84,4.08c-2.72,0-4.84-1.38-4.84-4.08c0-1.55,0.74-2.58,1.81-3.03h-4.86V101.47z M722.79-334.4
			c0,18.33-11.36,30.28-26.7,32.28c12.95,2.59,20.52,9.96,21.92,24.51c1.79,18.73,2.39,24.31,6.58,28.89h-34.27
			c-2.59-3.39-4.18-11.16-5.18-24.11c-1-14.34-7.17-17.53-18.53-17.53h-22.51v41.64h-33.27v-125.52h63.36
			C706.65-374.25,722.79-358.91,722.79-334.4z M641.3-517.68h32.28v15.74c3.19-9.96,12.55-18.13,24.31-18.13
			c5.38,0,10.16,1.59,12.35,3.39l-1.99,30.48c-4.38-2.59-9.17-3.79-15.34-3.79c-11.95,0-19.33,5.58-19.33,20.52v40.64H641.3V-517.68
			z M582.73-520.08c29.69,0,45.42,20.32,45.42,44.43v8.97h-62.36c0.8,10.96,8.77,16.14,18.53,16.14c8.77,0,14.34-2.99,17.33-9.96
			l25.9,2.39c-4.58,20.32-20.92,31.68-44.43,31.68c-28.49,0-48.81-17.13-48.81-45.42C534.31-499.95,555.04-520.08,582.73-520.08z
			 M499.05-482.82l37.85,53.99h-36.26l-25.5-36.06l-7.77,7.97v28.09h-32.28v-125.52h32.28V-487l30.48-30.68h37.85L499.05-482.82z
			 M462.05-588.45v-9.19h3.34v9.19H462.05z M523.04-590.47c0-0.89,0.58-1.57,1.57-1.94c-0.82-0.54-1.32-1.32-1.32-2.33
			c0-1.96,1.86-3.15,4.43-3.15c1.11,0,2.16,0.27,2.95,0.74c0.56-0.76,1.57-1.42,2.58-1.42v2.51c-0.39,0-0.89,0.04-1.34,0.14
			c0.19,0.35,0.29,0.74,0.29,1.17c0,1.94-1.88,3.13-4.47,3.13c-0.74,0-1.4-0.08-2-0.27c-0.12,0.1-0.19,0.25-0.19,0.43
			c0,0.31,0.23,0.56,0.78,0.56h3.81c2.08,0,3.13,1.09,3.13,2.64c0,2.29-2.78,3.34-5.77,3.34c-2.62,0-4.89-0.52-4.89-2.25
			c0-0.8,0.72-1.44,1.75-1.53C523.53-588.94,523.04-589.68,523.04-590.47z M515.45-597.64h3.34v1.63c0.33-1.03,1.3-1.88,2.52-1.88
			c0.56,0,1.05,0.16,1.28,0.35l-0.21,3.15c-0.45-0.27-0.95-0.39-1.59-0.39c-1.24,0-2,0.58-2,2.12v4.21h-3.34V-597.64z M509.1-597.89
			c2.99,0,5.03,2,5.03,4.84c0,2.87-2.04,4.84-5.03,4.84c-3.01,0-5.03-1.98-5.03-4.84C504.07-595.89,506.09-597.89,509.1-597.89z
			 M497.64-591.99h3.55v3.55h-3.55V-591.99z M490.86-591.62l-1.36-0.21c-2.23-0.35-3.4-1.07-3.4-2.95c0-1.81,1.59-3.11,4.16-3.11
			c2.66,0,4.23,1.18,4.41,3.09l-2.74,0.08c-0.12-0.66-0.7-1.07-1.73-1.07c-0.64,0-1.01,0.25-1.01,0.66c0,0.31,0.25,0.47,0.56,0.52
			l1.79,0.31c2.06,0.33,3.26,1.26,3.26,3.05c0,1.94-1.65,3.05-4.27,3.05c-2.54,0-4.43-1.01-4.62-3.24l2.91-0.04
			c0.12,0.76,0.74,1.2,1.75,1.2c0.74,0,1.13-0.27,1.13-0.64C491.71-591.27,491.5-591.52,490.86-591.62z M475.26-597.64h3.34v4.91
			c0,1.24,0.35,1.92,1.36,1.92c1.05,0,1.46-0.91,1.46-2.31v-4.51h3.34v9.19h-3.34v-1.38c-0.49,1.03-1.5,1.63-2.89,1.63
			c-2.52,0-3.28-1.73-3.28-3.65V-597.64z M467.2-597.64h3.34v1.63c0.33-1.03,1.3-1.88,2.52-1.88c0.56,0,1.05,0.16,1.28,0.35
			l-0.21,3.15c-0.45-0.27-0.95-0.39-1.59-0.39c-1.24,0-2,0.58-2,2.12v4.21h-3.34V-597.64z M462.03-601.43h3.38v2.93h-3.38V-601.43z
			 M451.15-601.43l3.22,8.64h0.08l3.22-8.64h3.48l-4.99,12.99h-3.69l-4.99-12.99H451.15z M436.54-601.43h3.92l5.17,12.99h-3.73
			l-0.97-2.52h-5.07l-0.97,2.52h-3.52L436.54-601.43z M423.59-591.62l-1.36-0.21c-2.23-0.35-3.4-1.07-3.4-2.95
			c0-1.81,1.59-3.11,4.16-3.11c2.66,0,4.23,1.18,4.41,3.09l-2.74,0.08c-0.12-0.66-0.7-1.07-1.73-1.07c-0.64,0-1.01,0.25-1.01,0.66
			c0,0.31,0.25,0.47,0.56,0.52l1.79,0.31c2.06,0.33,3.26,1.26,3.26,3.05c0,1.94-1.65,3.05-4.27,3.05c-2.54,0-4.43-1.01-4.62-3.24
			l2.91-0.04c0.12,0.76,0.74,1.2,1.75,1.2c0.74,0,1.13-0.27,1.13-0.64C424.44-591.27,424.23-591.52,423.59-591.62z M413.91-601.43
			h3.5v12.99h-3.5V-601.43z M425.13-516.69l-1.99,30.48c-4.38-2.59-9.17-3.79-15.34-3.79c-11.95,0-19.33,5.58-19.33,20.52v40.64
			h-32.28v-88.86h32.28v15.74c3.19-9.96,12.55-18.13,24.31-18.13C418.16-520.08,422.94-518.48,425.13-516.69z M378.52-588.45v-9.19
			h3.34v9.19H378.52z M393.17-597.64h3.34v1.38c0.49-1.01,1.48-1.63,2.87-1.63c1.63,0,2.47,0.74,2.87,1.81
			c0.49-1.03,1.59-1.81,3.13-1.81c2.54,0,3.28,1.75,3.28,3.67v5.77h-3.34v-4.89c0-1.26-0.23-1.92-1.24-1.92
			c-1.11,0-1.48,0.91-1.48,2.29v4.51h-3.34v-4.89c0-1.26-0.25-1.92-1.26-1.92c-1.09,0-1.48,0.91-1.48,2.29v4.51h-3.34V-597.64z
			 M387.96-591.62l-1.36-0.21c-2.23-0.35-3.4-1.07-3.4-2.95c0-1.81,1.59-3.11,4.16-3.11c2.66,0,4.23,1.18,4.41,3.09l-2.74,0.08
			c-0.12-0.66-0.7-1.07-1.73-1.07c-0.64,0-1.01,0.25-1.01,0.66c0,0.31,0.25,0.47,0.56,0.52l1.79,0.31c2.06,0.33,3.26,1.26,3.26,3.05
			c0,1.94-1.65,3.05-4.27,3.05c-2.54,0-4.43-1.01-4.62-3.24l2.91-0.04c0.12,0.76,0.74,1.2,1.75,1.2c0.74,0,1.13-0.27,1.13-0.64
			C388.8-591.27,388.6-591.52,387.96-591.62z M378.5-601.43h3.38v2.93h-3.38V-601.43z M373.37-601.43h3.34v12.99h-3.34V-601.43z
			 M366.67-595.41c-0.74,0-1.11,0.47-1.26,1.15l-3.09-0.21c0.29-2.02,1.79-3.42,4.56-3.42c2.43,0,4.23,1.05,4.23,3.61v3.13
			c0,0.47,0.21,0.68,0.56,0.68c0.27,0,0.47-0.04,0.74-0.14v1.77c-0.47,0.33-1.13,0.6-2.08,0.6c-1.13,0-2.02-0.58-2.33-1.63
			c-0.54,1.07-1.59,1.63-3.05,1.63c-1.79,0-2.97-0.93-2.97-2.49c0-1.77,1.28-2.54,3.28-2.89l2.58-0.43v-0.14
			C367.82-594.96,367.47-595.41,366.67-595.41z M354.22-597.39l0.68-0.1c0.93-0.14,1.22-0.64,1.44-1.48l0.31-1.2h2.1v2.54h2.39v2.31
			h-2.39v3.36c0,0.78,0.37,1.09,1.05,1.09c0.41,0,0.87-0.08,1.42-0.31v2.16c-0.7,0.52-1.5,0.82-2.76,0.82
			c-1.55,0-3.01-0.64-3.01-2.8v-4.33h-1.24V-597.39z M349.95-601.43h3.38v2.93h-3.38V-601.43z M338.2-597.64h3.34v1.59
			c0.45-1.09,1.48-1.83,3.03-1.83c2.7,0,4.08,2.14,4.08,4.84c0,2.72-1.38,4.84-4.08,4.84c-1.55,0-2.58-0.74-3.03-1.81v4.87h-3.34
			V-597.64z M331.51-595.41c-0.74,0-1.11,0.47-1.26,1.15l-3.09-0.21c0.29-2.02,1.79-3.42,4.56-3.42c2.43,0,4.23,1.05,4.23,3.61v3.13
			c0,0.47,0.21,0.68,0.56,0.68c0.27,0,0.47-0.04,0.74-0.14v1.77c-0.47,0.33-1.13,0.6-2.08,0.6c-1.13,0-2.02-0.58-2.33-1.63
			c-0.54,1.07-1.59,1.63-3.05,1.63c-1.79,0-2.97-0.93-2.97-2.49c0-1.77,1.28-2.54,3.28-2.89l2.58-0.43v-0.14
			C332.66-594.96,332.31-595.41,331.51-595.41z M319.72-601.68c3.98,0,6.1,2.54,6.35,5.77l-3.36,0.12
			c-0.21-1.44-0.99-2.78-3.01-2.78c-1.92,0-3.03,1.42-3.03,3.63s1.11,3.63,3.03,3.63c2.02,0,2.8-1.34,3.01-2.78l3.36,0.14
			c-0.25,3.24-2.37,5.75-6.35,5.75c-3.79,0-6.66-2.74-6.66-6.74S315.92-601.68,319.72-601.68z M306.63-591.99h3.55v3.55h-3.55
			V-591.99z M262.3-597.64l1.65,5.22h0.08l1.34-5.22h2.66l1.34,5.22h0.08l1.65-5.22h2.92h0.09h3.23l1.65,5.22h0.08l1.34-5.22h2.66
			l1.34,5.22h0.08l1.65-5.22h2.92h0.09h3.23l1.65,5.22h0.08l1.34-5.22h2.66l1.34,5.22h0.08l1.65-5.22h3.01l-2.91,9.19h-3.28
			l-1.34-5.19h-0.08l-1.34,5.19h-3.28l-2.86-9.06l-2.86,9.06h-3.28l-1.34-5.19h-0.08l-1.34,5.19h-3.28l-2.86-9.06l-2.86,9.06h-3.28
			l-1.34-5.19h-0.08l-1.34,5.19h-3.28l-2.91-9.19H262.3z M102.16-554.34l19.92,78.7h0.8l20.72-78.7h30.48l20.72,78.7h0.8l19.92-78.7
			h32.67l-32.87,125.52h-36.06l-20.92-79.29h-0.8l-20.92,79.29h-35.46L68.29-554.34H102.16z M61.52-374.25h55.19
			c32.87,0,52,15.34,52,43.04c0,27.89-19.13,43.23-52,43.23H95.19v39.25H61.52V-374.25z M19.25,59.68c0,0.39,0.04,0.89,0.14,1.34
			c0.35-0.19,0.74-0.29,1.18-0.29c1.94,0,3.13,1.88,3.13,4.47c0,0.74-0.08,1.4-0.27,2c0.1,0.12,0.25,0.19,0.43,0.19
			c0.31,0,0.56-0.23,0.56-0.78V62.8c0-2.08,1.09-3.13,2.64-3.13c2.29,0,3.34,2.78,3.34,5.77c0,2.62-0.52,4.89-2.25,4.89
			c-0.8,0-1.44-0.72-1.53-1.75c-0.27,0.82-1.01,1.32-1.79,1.32c-0.89,0-1.57-0.58-1.94-1.57c-0.54,0.82-1.32,1.32-2.33,1.32
			c-1.96,0-3.15-1.86-3.15-4.43c0-1.11,0.27-2.16,0.74-2.95c-0.76-0.56-1.42-1.57-1.42-2.58H19.25z M13.87,127.51h2.93v3.38h-2.93
			V127.51z M13.87,141.78l8.64-3.22v-0.08l-8.64-3.22v-3.48l12.99,4.99v3.69l-12.99,4.99V141.78z M13.87,152.47l12.99-5.17v3.73
			L24.35,152v5.07l2.51,0.97v3.52l-12.99-5.17V152.47z M13.87,175.51h12.99v3.5H13.87V175.51z M13.87,211.05h2.93v3.38h-2.93V211.05
			z M13.87,216.22h12.99v3.34H13.87V216.22z M13.87,239.59h2.93v3.38h-2.93V239.59z M19.4,266.86l0.12,3.36
			c-1.44,0.21-2.78,0.99-2.78,3.01c0,1.92,1.42,3.03,3.63,3.03s3.63-1.11,3.63-3.03c0-2.02-1.34-2.8-2.78-3.01l0.14-3.36
			c3.24,0.25,5.75,2.37,5.75,6.35c0,3.79-2.74,6.66-6.74,6.66s-6.74-2.87-6.74-6.66C13.63,269.23,16.16,267.1,19.4,266.86z"/>
		<path class="st5" d="M765.76,95.92h0.14l-0.25-1.36c-0.17-0.8-0.41-1.28-1.01-1.28c-0.47,0-0.78,0.37-0.78,0.93
			C763.87,95.16,764.57,95.92,765.76,95.92z"/>
		<polygon class="st5" points="769.43,67.12 767.41,66.63 767.41,68.4 769.43,68.9 		"/>
		<path class="st5" d="M765.76,131.08h0.14l-0.25-1.36c-0.17-0.8-0.41-1.28-1.01-1.28c-0.47,0-0.78,0.37-0.78,0.93
			C763.87,130.32,764.57,131.08,765.76,131.08z"/>
		<polygon class="st5" points="770.9,198.29 767.06,196.8 767.06,199.86 770.9,198.37 		"/>
		<path class="st5" d="M766.53,108.56c1.32,0,2.25-0.6,2.25-1.9c0-1.13-0.87-1.86-2.18-1.86h-0.12c-1.34,0-2.21,0.72-2.21,1.86
			C764.26,107.96,765.19,108.56,766.53,108.56z"/>
		<path class="st5" d="M23.03,260.26h-0.14l0.25,1.36c0.17,0.8,0.41,1.28,1.01,1.28c0.47,0,0.78-0.37,0.78-0.93
			C24.92,261.03,24.22,260.26,23.03,260.26z"/>
		<path class="st5" d="M22.26,247.63c-1.32,0-2.25,0.6-2.25,1.9c0,1.13,0.87,1.86,2.18,1.86h0.12c1.34,0,2.21-0.72,2.21-1.86
			C24.53,248.23,23.6,247.63,22.26,247.63z"/>
		<path class="st5" d="M20.57,66.14c0.82,0,1.34-0.41,1.34-0.97c0-0.56-0.52-0.97-1.34-0.97c-0.8,0-1.32,0.41-1.32,0.97
			C19.25,65.72,19.77,66.14,20.57,66.14z"/>
		<path class="st5" d="M27.83,67.58c0.66,0,0.85-0.93,0.85-2.16c0-1.55-0.31-2.68-0.87-2.68c-0.39,0-0.54,0.29-0.54,0.85v3.38
			C27.27,67.33,27.48,67.58,27.83,67.58z"/>
		<path class="st5" d="M22.26,85.49c1.38,0,2.33-0.49,2.33-1.67c0-1.15-0.95-1.67-2.33-1.67s-2.33,0.52-2.33,1.67
			C19.93,85,20.88,85.49,22.26,85.49z"/>
		<polygon class="st5" points="17.89,154.57 21.73,156.06 21.73,153.01 17.89,154.49 		"/>
		<path class="st5" d="M529.04,424.14c-12.79-5.63-27.83,0.21-33.46,13c-5.63,12.79,0.21,27.83,13,33.46
			c12.79,5.63,27.83-0.21,33.46-13C547.68,444.81,541.84,429.77,529.04,424.14z"/>
		<path d="M569.73,312.6c-69.27-6.06-151.41,21.06-217.44,70.36c8.39-23.82,15.92-52.94,23.72-83.14
			c13.44-52.01,28.51-110.37,48.64-136.59c26.55,26.55,53.93,31.69,72.85,31.08c10.8-0.35,20-2.55,26.68-4.78
			c3.71,12.55,16.27,21.42,30.8,21.42c1.12,0,2.25-0.05,3.39-0.16c17.87-1.69,31.15-16.26,29.62-32.5
			c-0.15-1.54-0.42-3.04-0.81-4.49l0.07-0.02c0.83-0.18,1.62-0.48,2.36-0.9c23.73-13.38,31.37-37.45,21.5-67.78
			c-7.28-22.37-25.42-46.01-28.04-49.36C571.72,38.33,537,35.25,535.52,35.13l-0.48-0.04c-79.24-6.59-163.67-9.9-189.11,15.54
			c-17.67,17.67-72.69,92.66-123.38,172.01c-78.64,123.1-97.23,177.3-98.39,201.14c-22.24,39.6-1.05,62.55,6.68,69.13
			c3.21,8.24,15.15,34.47,44.13,56.68c10.59,8.12,38.69,19.66,159.96,26.19c73.78,3.97,173.98,5.82,315.34,5.82
			c4.69,0,8.5-3.81,8.5-8.5c0-4.07-2.86-7.47-6.68-8.3c-0.59-0.13-1.19-0.2-1.82-0.2c-141.04,0-240.95-1.84-314.42-5.8
			c-107.48-5.78-141.18-15.54-150.53-22.7c-29.71-22.78-39.13-50.71-39.22-50.96c-0.6-1.9-1.75-3.43-3.43-4.5
			c-2.37-1.59-22.58-16.53-2.75-50.16c0.77-1.31,1.18-2.8,1.18-4.32c0-28.25,34.91-99.09,95.77-194.37
			C289.55,149.33,342.89,77.7,357.94,62.65c12.52-12.52,54.55-14.91,78.48-15.21c36.4-0.47,74.46,2.7,97.2,4.59l0.48,0.04
			c13.31,1.11,30.87,6.75,34.79,13.09c0.18,0.28,0.37,0.56,0.58,0.82c0.19,0.23,18.71,23.66,25.46,44.4
			c6.29,19.34,3.73,33.93-7.59,43.5c0.04-0.39,0.1-0.76,0.13-1.16c1.13-14.88-5.12-34.25-18.55-57.59
			c-9.66-16.78-19.5-29.4-19.92-29.93c-2.89-3.7-8.24-4.35-11.93-1.45c-3.7,2.89-4.35,8.24-1.45,11.93
			c10.31,13.17,36.67,52.45,34.91,75.75c-0.09,1.19-0.24,2.25-0.44,3.2c-5.18-2.27-11.1-3.31-17.28-2.73
			c-1.17,0.11-2.33,0.28-3.46,0.5c1.02-14.84-5.22-34.1-18.57-57.28c-9.66-16.78-19.5-29.4-19.92-29.93
			c-2.89-3.7-8.23-4.35-11.93-1.45c-3.7,2.89-4.35,8.24-1.45,11.93c10.31,13.17,36.67,52.45,34.91,75.75
			c-0.84,11.12-6.87,11.18-8.85,11.19c-5.06,0.04-11.91-3.37-15.69-9.33c1.98-3.83,3.19-8.33,3.58-13.48
			c2.7-35.64-20.29-55.32-21.27-56.14c-3.6-3.01-8.96-2.54-11.97,1.06c-3.01,3.6-2.54,8.96,1.06,11.97
			c0.17,0.14,17.28,14.8,15.23,41.82c-0.84,11.12-6.87,11.18-8.85,11.19c-0.04,0-0.08,0-0.12,0c-7.89,0-17.35-7.28-18.27-17.11
			c-0.44-4.67-4.59-8.1-9.26-7.66c-4.67,0.44-8.1,4.59-7.66,9.26c1.84,19.52,19.64,32.52,35.22,32.52c0.08,0,0.17,0,0.26,0
			c3.38-0.03,6.56-0.65,9.46-1.8c3.63,4.77,8.36,8.55,13.48,11.08c-3.56,0.67-7.51,1.17-11.76,1.31
			c-24.44,0.79-46.65-10.07-66.03-32.27c-1.52-1.74-3.69-2.79-6-2.9c-2.32-0.12-4.57,0.73-6.25,2.31
			c-26.59,25.15-43.13,89.18-59.12,151.1c-11.73,45.42-22.82,88.32-36.59,112.32c-2.09,3.63-1.21,8.24,2.06,10.86
			c3.27,2.62,7.96,2.47,11.05-0.36c66.22-60.53,157.37-95.4,232.19-88.86c48.85,4.28,87.95,25.08,116.22,61.83
			c1.27,1.65,3.03,2.7,4.92,3.12c2.36,0.52,4.93,0.03,7-1.56c3.72-2.86,4.42-8.2,1.55-11.92
			C667.09,340.9,622.75,317.24,569.73,312.6z M554.4,168.84c0.61-0.06,1.22-0.09,1.81-0.09c7.75,0,14.24,4.73,14.84,11.14
			c0.65,6.9-5.76,13.17-14.29,13.97c-8.54,0.8-16.01-4.15-16.66-11.05C539.45,175.92,545.86,169.65,554.4,168.84z"/>
		<path class="st5" d="M556.76,193.87c8.53-0.81,14.95-7.07,14.29-13.97c-0.61-6.4-7.09-11.14-14.84-11.14
			c-0.6,0-1.2,0.03-1.81,0.09c-8.53,0.81-14.95,7.07-14.29,13.97C540.75,189.71,548.22,194.67,556.76,193.87z"/>
		<path d="M589.89,402.01l-12.69,4.93c-4.24-6.07-9.57-11.73-15.45-16.12l5.43-12.34l-30.22-13.3l-5.43,12.34
			c-7.46-1.48-14.98-1.48-22.32-0.51l-4.93-12.69l-30.83,11.98l4.93,12.69c-6.07,4.24-11.73,9.57-16.12,15.45L449.93,399
			l-13.3,30.22l12.34,5.43c-1.48,7.46-1.48,14.98-0.51,22.32l-12.69,4.93l11.98,30.83l12.69-4.93c4.24,6.08,9.57,11.73,15.45,16.12
			l-5.43,12.34l30.22,13.3l5.43-12.34c7.46,1.48,14.98,1.48,22.32,0.51l4.93,12.69l30.83-11.98l-4.93-12.69
			c6.07-4.24,11.73-9.57,16.12-15.45l12.34,5.43l13.3-30.22l-12.34-5.43c1.48-7.46,1.48-14.98,0.51-22.32l12.69-4.93L589.89,402.01z
			 M542.04,457.6c-5.63,12.79-20.66,18.63-33.46,13c-12.79-5.63-18.63-20.66-13-33.46c5.63-12.79,20.66-18.63,33.46-13
			C541.84,429.77,547.68,444.81,542.04,457.6z"/>
		<polygon points="17.67,291.73 22.88,293.38 22.88,293.47 17.67,294.81 17.67,297.46 22.88,298.81 22.88,298.89 17.67,300.54 
			17.67,303.77 17.67,303.86 17.67,306.78 22.88,308.43 22.88,308.51 17.67,309.85 17.67,312.51 22.88,313.85 22.88,313.93 
			17.67,315.58 17.67,318.82 17.67,318.9 17.67,321.83 22.88,323.47 22.88,323.56 17.67,324.9 17.67,327.56 22.88,328.9 
			22.88,328.98 17.67,330.63 17.67,333.95 26.86,331.04 26.86,327.76 21.67,326.42 21.67,326.34 26.86,325 26.86,321.72 
			17.8,318.86 26.86,315.99 26.86,312.72 21.67,311.38 21.67,311.29 26.86,309.95 26.86,306.68 17.8,303.81 26.86,300.95 
			26.86,297.67 21.67,296.33 21.67,296.25 26.86,294.91 26.86,291.63 17.67,288.72 		"/>
		<rect x="23.32" y="282.75" width="3.55" height="3.55"/>
		<path d="M20.37,279.87c4,0,6.74-2.87,6.74-6.66c0-3.98-2.51-6.1-5.75-6.35l-0.14,3.36c1.44,0.21,2.78,0.99,2.78,3.01
			c0,1.92-1.42,3.03-3.63,3.03s-3.63-1.11-3.63-3.03c0-2.02,1.34-2.8,2.78-3.01l-0.12-3.36c-3.24,0.25-5.77,2.37-5.77,6.35
			C13.63,277,16.37,279.87,20.37,279.87z"/>
		<path d="M27.07,257.77c0-0.95-0.27-1.61-0.6-2.08H24.7c0.1,0.27,0.14,0.47,0.14,0.74c0,0.35-0.21,0.56-0.68,0.56h-3.13
			c-2.56,0-3.61,1.79-3.61,4.23c0,2.76,1.4,4.27,3.42,4.56l0.21-3.09c-0.68-0.14-1.15-0.52-1.15-1.26c0-0.8,0.45-1.15,1.22-1.15
			h0.14l0.43,2.58c0.35,2,1.11,3.28,2.89,3.28c1.57,0,2.49-1.17,2.49-2.97c0-1.46-0.56-2.52-1.63-3.05
			C26.49,259.79,27.07,258.9,27.07,257.77z M24.14,262.9c-0.6,0-0.85-0.47-1.01-1.28l-0.25-1.36h0.14c1.2,0,1.9,0.76,1.9,1.71
			C24.92,262.53,24.61,262.9,24.14,262.9z"/>
		<path d="M27.11,248.35c0-2.7-2.12-4.08-4.84-4.08c-2.7,0-4.84,1.38-4.84,4.08c0,1.55,0.74,2.58,1.83,3.03h-1.59v3.34h12.49v-3.34
			h-4.86C26.37,250.93,27.11,249.9,27.11,248.35z M22.33,251.38H22.2c-1.32,0-2.18-0.72-2.18-1.86c0-1.3,0.93-1.9,2.25-1.9
			c1.34,0,2.27,0.6,2.27,1.9C24.53,250.66,23.67,251.38,22.33,251.38z"/>
		<rect x="13.87" y="239.59" width="2.93" height="3.38"/>
		<rect x="17.67" y="239.61" width="9.19" height="3.34"/>
		<path d="M15.13,236.27l1.2,0.31c0.85,0.23,1.34,0.52,1.48,1.44l0.1,0.68h2.06v-1.24h4.33c2.16,0,2.8-1.46,2.8-3.01
			c0-1.26-0.31-2.06-0.82-2.76h-2.16c0.23,0.56,0.31,1.01,0.31,1.42c0,0.68-0.31,1.05-1.09,1.05h-3.36v-2.39h-2.31v2.39h-2.54
			V236.27z"/>
		<path d="M24.16,221.83h-3.13c-2.56,0-3.61,1.79-3.61,4.23c0,2.76,1.4,4.27,3.42,4.56l0.21-3.09c-0.68-0.14-1.15-0.52-1.15-1.26
			c0-0.8,0.45-1.15,1.22-1.15h0.14l0.43,2.58c0.35,2,1.11,3.28,2.89,3.28c1.57,0,2.49-1.17,2.49-2.97c0-1.46-0.56-2.52-1.63-3.05
			c1.05-0.31,1.63-1.2,1.63-2.33c0-0.95-0.27-1.61-0.6-2.08H24.7c0.1,0.27,0.14,0.47,0.14,0.74
			C24.84,221.62,24.63,221.83,24.16,221.83z M24.92,226.81c0,0.56-0.31,0.93-0.78,0.93c-0.6,0-0.85-0.47-1.01-1.28l-0.25-1.36h0.14
			C24.22,225.1,24.92,225.87,24.92,226.81z"/>
		<rect x="13.87" y="216.22" width="12.99" height="3.34"/>
		<rect x="13.87" y="211.05" width="2.93" height="3.38"/>
		<rect x="17.67" y="211.07" width="9.19" height="3.34"/>
		<path d="M20.53,209.73c1.88,0,2.6-1.17,2.95-3.4l0.21-1.36c0.1-0.64,0.35-0.85,0.7-0.85c0.37,0,0.64,0.39,0.64,1.13
			c0,1.01-0.43,1.63-1.2,1.75l0.04,2.91c2.23-0.19,3.24-2.08,3.24-4.62c0-2.62-1.11-4.27-3.05-4.27c-1.79,0-2.72,1.2-3.05,3.26
			l-0.31,1.79c-0.04,0.31-0.21,0.56-0.52,0.56c-0.41,0-0.66-0.37-0.66-1.01c0-1.03,0.41-1.61,1.07-1.73l-0.08-2.74
			c-1.92,0.19-3.09,1.75-3.09,4.41C17.42,208.14,18.72,209.73,20.53,209.73z"/>
		<path d="M17.42,193.55c0,1.38,0.62,2.37,1.63,2.87h-1.38v3.34h9.19v-3.34h-4.51c-1.38,0-2.29-0.39-2.29-1.48
			c0-1.01,0.66-1.26,1.92-1.26h4.89v-3.34h-4.51c-1.38,0-2.29-0.37-2.29-1.48c0-1.01,0.66-1.24,1.92-1.24h4.89v-3.34h-5.77
			c-1.92,0-3.67,0.74-3.67,3.28c0,1.55,0.78,2.64,1.81,3.13C18.16,191.07,17.42,191.92,17.42,193.55z"/>
		<rect x="13.87" y="175.51" width="12.99" height="3.5"/>
		<path d="M23.83,171.37l0.04,2.91c2.23-0.19,3.24-2.08,3.24-4.62c0-2.62-1.11-4.27-3.05-4.27c-1.79,0-2.72,1.2-3.05,3.26
			l-0.31,1.79c-0.04,0.31-0.21,0.56-0.52,0.56c-0.41,0-0.66-0.37-0.66-1.01c0-1.03,0.41-1.61,1.07-1.73l-0.08-2.74
			c-1.92,0.19-3.09,1.75-3.09,4.41c0,2.58,1.3,4.16,3.11,4.16c1.88,0,2.6-1.18,2.95-3.4l0.21-1.36c0.1-0.64,0.35-0.85,0.7-0.85
			c0.37,0,0.64,0.39,0.64,1.13C25.03,170.63,24.59,171.25,23.83,171.37z"/>
		<path d="M26.86,158.04l-2.51-0.97V152l2.51-0.97v-3.73l-12.99,5.17v3.92l12.99,5.17V158.04z M21.73,156.06l-3.83-1.48v-0.08
			l3.83-1.48V156.06z"/>
		<polygon points="26.86,136.77 13.87,131.78 13.87,135.26 22.51,138.48 22.51,138.56 13.87,141.78 13.87,145.45 26.86,140.46 		"/>
		<rect x="13.87" y="127.51" width="2.93" height="3.38"/>
		<rect x="17.67" y="127.53" width="9.19" height="3.34"/>
		<path d="M19.3,122.38h-1.63v3.34h9.19v-3.34h-4.21c-1.55,0-2.12-0.76-2.12-2c0-0.64,0.12-1.13,0.39-1.59l-3.15-0.21
			c-0.19,0.23-0.35,0.72-0.35,1.28C17.42,121.08,18.27,122.05,19.3,122.38z"/>
		<path d="M22.57,114.32h-4.91v3.34h5.79c1.92,0,3.65-0.76,3.65-3.28c0-1.38-0.6-2.39-1.63-2.89h1.38v-3.34h-9.19v3.34h4.51
			c1.4,0,2.31,0.41,2.31,1.46C24.49,113.97,23.81,114.32,22.57,114.32z"/>
		<path d="M20.53,106.82c1.88,0,2.6-1.18,2.95-3.4l0.21-1.36c0.1-0.64,0.35-0.85,0.7-0.85c0.37,0,0.64,0.39,0.64,1.13
			c0,1.01-0.43,1.63-1.2,1.75l0.04,2.91c2.23-0.19,3.24-2.08,3.24-4.62c0-2.62-1.11-4.27-3.05-4.27c-1.79,0-2.72,1.2-3.05,3.26
			l-0.31,1.79c-0.04,0.31-0.21,0.56-0.52,0.56c-0.41,0-0.66-0.37-0.66-1.01c0-1.03,0.41-1.61,1.07-1.73l-0.08-2.74
			c-1.92,0.19-3.09,1.75-3.09,4.41C17.42,105.23,18.72,106.82,20.53,106.82z"/>
		<rect x="23.32" y="91.73" width="3.55" height="3.55"/>
		<path d="M22.26,88.85c2.87,0,4.84-2.02,4.84-5.03c0-2.99-1.98-5.03-4.84-5.03c-2.84,0-4.84,2.04-4.84,5.03
			C17.42,86.83,19.42,88.85,22.26,88.85z M22.26,82.15c1.38,0,2.33,0.52,2.33,1.67c0,1.17-0.95,1.67-2.33,1.67s-2.33-0.49-2.33-1.67
			C19.93,82.67,20.88,82.15,22.26,82.15z"/>
		<path d="M17.77,70.34c-0.19,0.23-0.35,0.72-0.35,1.28c0,1.22,0.85,2.19,1.88,2.52h-1.63v3.34h9.19v-3.34h-4.21
			c-1.55,0-2.12-0.76-2.12-2c0-0.64,0.12-1.13,0.39-1.59L17.77,70.34z"/>
		<path d="M18.16,62.26c-0.47,0.78-0.74,1.83-0.74,2.95c0,2.58,1.2,4.43,3.15,4.43c1.01,0,1.79-0.49,2.33-1.32
			c0.37,0.99,1.05,1.57,1.94,1.57c0.78,0,1.53-0.49,1.79-1.32c0.08,1.03,0.72,1.75,1.53,1.75c1.73,0,2.25-2.27,2.25-4.89
			c0-2.99-1.05-5.77-3.34-5.77c-1.55,0-2.64,1.05-2.64,3.13v3.81c0,0.56-0.25,0.78-0.56,0.78c-0.19,0-0.33-0.06-0.43-0.19
			c0.19-0.6,0.27-1.26,0.27-2c0-2.6-1.2-4.47-3.13-4.47c-0.43,0-0.83,0.1-1.18,0.29c-0.1-0.45-0.14-0.95-0.14-1.34h-2.52
			C16.74,60.69,17.4,61.7,18.16,62.26z M27.27,63.58c0-0.56,0.14-0.85,0.54-0.85c0.56,0,0.87,1.13,0.87,2.68
			c0,1.24-0.19,2.16-0.85,2.16c-0.35,0-0.56-0.25-0.56-0.62V63.58z M20.57,64.2c0.82,0,1.34,0.41,1.34,0.97
			c0,0.56-0.52,0.97-1.34,0.97c-0.8,0-1.32-0.41-1.32-0.97C19.25,64.61,19.77,64.2,20.57,64.2z"/>
		<path d="M765.35,72.44l2.06,0.43V70.9l2.02,0.49v1.88l2.06,0.43v-1.83l3.42,0.82V70.2l-3.42-0.82V67.6l3.42,0.83v-2.49l-3.42-0.82
			v-2.02l-2.06-0.43v1.98l-2.02-0.49v-1.88l-2.06-0.43v1.81l-3.42-0.8v2.49l3.42,0.8v1.77l-3.42-0.8v2.49l3.42,0.8V72.44z
			 M767.41,66.63l2.02,0.5v1.77l-2.02-0.49V66.63z"/>
		<path d="M767.43,89.33l0.14-3.36c-1.44-0.21-2.78-0.99-2.78-3.01c0-1.92,1.42-3.03,3.63-3.03c2.21,0,3.63,1.11,3.63,3.03
			c0,2.02-1.34,2.8-2.78,3.01l0.12,3.36c3.24-0.25,5.77-2.37,5.77-6.35c0-3.79-2.74-6.66-6.74-6.66c-4,0-6.74,2.87-6.74,6.66
			C761.68,86.96,764.2,89.08,767.43,89.33z"/>
		<path d="M764.63,99.2h3.13c2.56,0,3.61-1.79,3.61-4.23c0-2.76-1.4-4.27-3.42-4.56l-0.21,3.09c0.68,0.14,1.15,0.52,1.15,1.26
			c0,0.8-0.45,1.15-1.22,1.15h-0.14l-0.43-2.58c-0.35-2-1.11-3.28-2.89-3.28c-1.57,0-2.49,1.18-2.49,2.97
			c0,1.46,0.56,2.52,1.63,3.05c-1.05,0.31-1.63,1.2-1.63,2.33c0,0.95,0.27,1.61,0.6,2.08h1.77c-0.1-0.27-0.14-0.47-0.14-0.74
			C763.95,99.41,764.16,99.2,764.63,99.2z M763.87,94.21c0-0.56,0.31-0.93,0.78-0.93c0.6,0,0.84,0.47,1.01,1.28l0.25,1.36h-0.14
			C764.57,95.92,763.87,95.16,763.87,94.21z"/>
		<path d="M761.68,107.84c0,2.7,2.12,4.08,4.84,4.08c2.7,0,4.84-1.38,4.84-4.08c0-1.55-0.74-2.58-1.83-3.03h1.59v-3.34h-12.49v3.34
			h4.86C762.42,105.26,761.68,106.29,761.68,107.84z M766.46,104.81h0.12c1.32,0,2.18,0.72,2.18,1.86c0,1.3-0.93,1.9-2.25,1.9
			c-1.34,0-2.27-0.6-2.27-1.9C764.26,105.53,765.12,104.81,766.46,104.81z"/>
		<rect x="761.93" y="113.24" width="9.19" height="3.34"/>
		<rect x="771.99" y="113.22" width="2.93" height="3.38"/>
		<path d="M762.51,124.49h2.16c-0.23-0.56-0.31-1.01-0.31-1.42c0-0.68,0.31-1.05,1.09-1.05h3.36v2.39h2.31v-2.39h2.54v-2.1
			l-1.2-0.31c-0.85-0.23-1.34-0.52-1.48-1.44l-0.1-0.68h-2.06v1.24h-4.33c-2.16,0-2.8,1.46-2.8,3.01
			C761.68,122.99,761.99,123.79,762.51,124.49z"/>
		<path d="M764.63,134.36h3.13c2.56,0,3.61-1.79,3.61-4.23c0-2.76-1.4-4.27-3.42-4.56l-0.21,3.09c0.68,0.14,1.15,0.52,1.15,1.26
			c0,0.8-0.45,1.15-1.22,1.15h-0.14l-0.43-2.58c-0.35-2-1.11-3.28-2.89-3.28c-1.57,0-2.49,1.18-2.49,2.97
			c0,1.46,0.56,2.51,1.63,3.05c-1.05,0.31-1.63,1.2-1.63,2.33c0,0.95,0.27,1.61,0.6,2.08h1.77c-0.1-0.27-0.14-0.47-0.14-0.74
			C763.95,134.57,764.16,134.36,764.63,134.36z M763.87,129.37c0-0.56,0.31-0.93,0.78-0.93c0.6,0,0.84,0.47,1.01,1.28l0.25,1.36
			h-0.14C764.57,131.08,763.87,130.32,763.87,129.37z"/>
		<rect x="761.93" y="136.63" width="12.99" height="3.34"/>
		<rect x="761.93" y="141.78" width="9.19" height="3.34"/>
		<rect x="771.99" y="141.76" width="2.93" height="3.38"/>
		<path d="M764.73,155.16c1.79,0,2.72-1.2,3.05-3.26l0.31-1.79c0.04-0.31,0.21-0.56,0.51-0.56c0.41,0,0.66,0.37,0.66,1.01
			c0,1.03-0.41,1.61-1.07,1.73l0.08,2.74c1.92-0.19,3.09-1.75,3.09-4.41c0-2.58-1.3-4.16-3.11-4.16c-1.88,0-2.6,1.18-2.95,3.4
			l-0.21,1.36c-0.1,0.64-0.35,0.85-0.7,0.85c-0.37,0-0.64-0.39-0.64-1.13c0-1.01,0.43-1.63,1.2-1.75l-0.04-2.91
			c-2.23,0.19-3.24,2.08-3.24,4.62C761.68,153.51,762.79,155.16,764.73,155.16z"/>
		<path d="M771.37,162.64c0-1.38-0.62-2.37-1.63-2.87h1.38v-3.34h-9.19v3.34h4.51c1.38,0,2.29,0.39,2.29,1.48
			c0,1.01-0.66,1.26-1.92,1.26h-4.89v3.34h4.51c1.38,0,2.29,0.37,2.29,1.48c0,1.01-0.66,1.24-1.92,1.24h-4.89v3.34h5.77
			c1.92,0,3.67-0.74,3.67-3.28c0-1.55-0.78-2.64-1.81-3.13C770.63,165.11,771.37,164.27,771.37,162.64z"/>
		<rect x="761.93" y="175.51" width="12.99" height="3.5"/>
		<path d="M764.96,183.15l-0.04-2.91c-2.23,0.19-3.24,2.08-3.24,4.62c0,2.62,1.11,4.27,3.05,4.27c1.79,0,2.72-1.2,3.05-3.26
			l0.31-1.79c0.04-0.31,0.21-0.56,0.51-0.56c0.41,0,0.66,0.37,0.66,1.01c0,1.03-0.41,1.61-1.07,1.73l0.08,2.74
			c1.92-0.19,3.09-1.75,3.09-4.41c0-2.58-1.3-4.16-3.11-4.16c-1.88,0-2.6,1.18-2.95,3.4l-0.21,1.36c-0.1,0.64-0.35,0.85-0.7,0.85
			c-0.37,0-0.64-0.39-0.64-1.13C763.76,183.9,764.2,183.28,764.96,183.15z"/>
		<path d="M761.93,194.83l2.51,0.97v5.07l-2.51,0.97v3.73l12.99-5.17v-3.92l-12.99-5.17V194.83z M767.06,196.8l3.83,1.48v0.08
			l-3.83,1.48V196.8z"/>
		<polygon points="761.93,216.04 774.92,221.03 774.92,217.55 766.28,214.33 766.28,214.25 774.92,211.03 774.92,207.36 
			761.93,212.35 		"/>
		<rect x="761.93" y="221.93" width="9.19" height="3.34"/>
		<rect x="771.99" y="221.91" width="2.93" height="3.38"/>
		<path d="M769.49,230.43h1.63v-3.34h-9.19v3.34h4.21c1.55,0,2.12,0.76,2.12,2c0,0.64-0.12,1.13-0.39,1.59l3.15,0.21
			c0.19-0.23,0.35-0.72,0.35-1.28C771.37,231.73,770.53,230.76,769.49,230.43z"/>
		<path d="M766.22,238.48h4.91v-3.34h-5.79c-1.92,0-3.65,0.76-3.65,3.28c0,1.38,0.6,2.39,1.63,2.89h-1.38v3.34h9.19v-3.34h-4.51
			c-1.4,0-2.31-0.41-2.31-1.46C764.3,238.83,764.98,238.48,766.22,238.48z"/>
		<path d="M768.26,245.99c-1.88,0-2.6,1.17-2.95,3.4l-0.21,1.36c-0.1,0.64-0.35,0.85-0.7,0.85c-0.37,0-0.64-0.39-0.64-1.13
			c0-1.01,0.43-1.63,1.2-1.75l-0.04-2.91c-2.23,0.19-3.24,2.08-3.24,4.62c0,2.62,1.11,4.27,3.05,4.27c1.79,0,2.72-1.2,3.05-3.26
			l0.31-1.79c0.04-0.31,0.21-0.56,0.51-0.56c0.41,0,0.66,0.37,0.66,1.01c0,1.03-0.41,1.61-1.07,1.73l0.08,2.74
			c1.92-0.19,3.09-1.75,3.09-4.41C771.37,247.57,770.07,245.99,768.26,245.99z"/>
	</g>
</g>
</svg>
