<?xml version="1.0" encoding="utf-8"?>
<!-- Generator: Adobe Illustrator 23.1.1, SVG Export Plug-In . SVG Version: 6.00 Build 0)  -->
<svg version="1.1" xmlns="http://www.w3.org/2000/svg" xmlns:xlink="http://www.w3.org/1999/xlink" x="0px" y="0px"
	 viewBox="0 0 792 612" style="enable-background:new 0 0 792 612;" xml:space="preserve">
<style type="text/css">
	.st0{display:none;}
	.st1{display:inline;fill:#FFFFFF;}
	.st2{display:inline;}
	.st3{fill:#FFFFFF;stroke:#000000;stroke-width:16;stroke-linecap:round;stroke-linejoin:round;stroke-miterlimit:10;}
	.st4{fill:none;stroke:#000000;stroke-width:24;stroke-linejoin:round;stroke-miterlimit:10;}
	.st5{fill:#FFFFFF;}
	.st6{fill:#FFFFFF;stroke:#000000;stroke-width:17;stroke-linecap:round;stroke-miterlimit:10;}
	.st7{fill:#FFFFFF;stroke:#000000;stroke-width:17;stroke-miterlimit:10;}
	.st8{stroke:#000000;stroke-width:16.0572;stroke-linecap:round;stroke-miterlimit:10;}
	.st9{fill:#FFFFFF;stroke:#000000;stroke-width:13.497;stroke-linecap:round;stroke-linejoin:round;stroke-miterlimit:10;}
	.st10{stroke:#000000;stroke-width:18.3348;stroke-linecap:round;stroke-miterlimit:10;}
	.st11{fill:none;stroke:#000000;stroke-width:13.497;stroke-linecap:round;stroke-linejoin:round;stroke-miterlimit:10;}
	.st12{fill:#FFFFFF;stroke:#000000;stroke-width:14.6942;stroke-linecap:round;stroke-linejoin:round;stroke-miterlimit:10;}
	.st13{fill:none;stroke:#000000;stroke-width:13;stroke-linecap:round;stroke-linejoin:round;stroke-miterlimit:10;}
	.st14{fill:none;stroke:#000000;stroke-width:13;stroke-linejoin:round;stroke-miterlimit:10;}
	.st15{fill:url(#);stroke:#000000;stroke-width:13;stroke-linejoin:round;stroke-miterlimit:10;}
	.st16{fill:none;stroke:#000000;stroke-width:30.5612;stroke-linecap:round;stroke-linejoin:round;stroke-miterlimit:10;}
	.st17{fill:#FFFFFF;stroke:#000000;stroke-width:16.2993;stroke-linecap:round;stroke-linejoin:round;stroke-miterlimit:10;}
	.st18{fill:#FFFFFF;stroke:#000000;stroke-width:13.497;stroke-linecap:round;stroke-miterlimit:10;}
	.st19{fill:url(#);stroke:#000000;stroke-width:13.497;stroke-linecap:round;stroke-linejoin:round;stroke-miterlimit:10;}
	.st20{fill:#FFFFFF;stroke:#000000;stroke-width:11.7326;stroke-linecap:round;stroke-linejoin:round;stroke-miterlimit:10;}
	.st21{fill:#FFFFFF;stroke:#000000;stroke-width:13.2623;stroke-linecap:round;stroke-linejoin:round;stroke-miterlimit:10;}
	.st22{fill:#FFFFFF;stroke:#000000;stroke-width:13.2623;stroke-linecap:round;stroke-miterlimit:10;}
	.st23{stroke:#000000;stroke-width:4.5213;stroke-miterlimit:10;}
	.st24{fill:none;stroke:#000000;stroke-width:16;stroke-linecap:round;stroke-miterlimit:10;}
	.st25{fill:url(#);stroke:#000000;stroke-width:16;stroke-linecap:round;stroke-linejoin:round;stroke-miterlimit:10;}
	.st26{fill:#FFFFFF;stroke:#000000;stroke-width:16;stroke-linecap:round;stroke-miterlimit:10;}
	.st27{font-family:'FoundersGrotesk-Bold';}
	.st28{font-size:158.7624px;}
	.st29{font-size:239.198px;}
	.st30{fill:none;stroke:#000000;stroke-width:16;stroke-linecap:round;stroke-linejoin:round;stroke-miterlimit:10;}
	.st31{font-size:20.6105px;}
	.st32{font-size:10.3052px;}
	.st33{font-size:19.2364px;}
	.st34{font-size:10px;}
	.st35{fill:none;stroke:#000000;stroke-width:15.2344;stroke-linecap:round;stroke-linejoin:round;stroke-miterlimit:10;}
	.st36{fill:#FFFFFF;stroke:#000000;stroke-width:15.2344;stroke-linecap:round;stroke-linejoin:round;stroke-miterlimit:10;}
	.st37{fill:#FFFFFF;stroke:#000000;stroke-width:17;stroke-linecap:round;stroke-linejoin:round;stroke-miterlimit:10;}
	.st38{fill:none;stroke:#000000;stroke-width:9.9764;stroke-linecap:round;stroke-linejoin:round;stroke-miterlimit:10;}
	.st39{fill:none;stroke:#000000;stroke-width:9.3127;stroke-linejoin:round;stroke-miterlimit:10;}
	.st40{fill:url(#);}
	.st41{fill:none;stroke:#000000;stroke-width:8.3796;stroke-linecap:round;stroke-linejoin:round;stroke-miterlimit:10;}
	
		.st42{display:inline;fill:none;stroke:#000000;stroke-width:9.9764;stroke-linecap:round;stroke-linejoin:round;stroke-miterlimit:10;}
	.st43{display:inline;fill:none;stroke:#000000;stroke-width:9.3127;stroke-linejoin:round;stroke-miterlimit:10;}
	.st44{display:inline;fill:url(#);stroke:#000000;stroke-width:10;stroke-linejoin:round;stroke-miterlimit:10;}
	.st45{fill:#FFFFFF;stroke:#000000;stroke-width:14.7375;stroke-linecap:round;stroke-linejoin:round;stroke-miterlimit:10;}
	.st46{fill:none;stroke:#000000;stroke-width:14.7375;stroke-linecap:round;stroke-linejoin:round;stroke-miterlimit:10;}
	.st47{stroke:#000000;stroke-width:14.7375;stroke-linecap:round;stroke-linejoin:round;stroke-miterlimit:10;}
	.st48{fill:#FFFFFF;stroke:#000000;stroke-width:14.2911;stroke-linecap:round;stroke-linejoin:round;stroke-miterlimit:10;}
	.st49{fill:none;stroke:#000000;stroke-width:15;stroke-linecap:round;stroke-linejoin:round;stroke-miterlimit:10;}
	.st50{fill:#FFFFFF;stroke:#000000;stroke-width:15;stroke-linecap:round;stroke-linejoin:round;stroke-miterlimit:10;}
	.st51{fill:#FFFFFF;stroke:#000000;stroke-width:14.8467;stroke-linecap:round;stroke-linejoin:round;stroke-miterlimit:10;}
	.st52{stroke:#000000;stroke-width:20.1683;stroke-linecap:round;stroke-miterlimit:10;}
	.st53{fill:none;stroke:#000000;stroke-width:14.8467;stroke-linecap:round;stroke-linejoin:round;stroke-miterlimit:10;}
	.st54{fill:none;stroke:#000000;stroke-width:13.497;stroke-miterlimit:10;}
	.st55{fill:#FFFFFF;stroke:#000000;stroke-width:13.497;stroke-miterlimit:10;}
	.st56{fill:#FFFFFF;stroke:#000000;stroke-width:14.7439;stroke-linecap:round;stroke-miterlimit:10;}
	.st57{fill:#FFFFFF;stroke:#000000;stroke-width:14.7439;stroke-miterlimit:10;}
	.st58{stroke:#000000;stroke-width:13.9262;stroke-linecap:round;stroke-miterlimit:10;}
	.st59{fill:#FFFFFF;stroke:#000000;stroke-width:17.1072;stroke-linecap:round;stroke-linejoin:round;stroke-miterlimit:10;}
	.st60{stroke:#000000;stroke-width:17.1072;stroke-linecap:round;stroke-linejoin:round;stroke-miterlimit:10;}
	.st61{fill:#FFFFFF;stroke:#000000;stroke-width:15;stroke-linecap:square;stroke-linejoin:round;stroke-miterlimit:10;}
	.st62{fill:#FFFFFF;stroke:#000000;stroke-width:15;stroke-linejoin:round;stroke-miterlimit:10;}
	.st63{fill:#FFFFFF;stroke:#000000;stroke-width:14;stroke-linecap:round;stroke-linejoin:round;stroke-miterlimit:10;}
	.st64{fill:#FFFFFF;stroke:#000000;stroke-width:13;stroke-linecap:round;stroke-linejoin:round;stroke-miterlimit:10;}
	.st65{fill:#FFFFFF;stroke:#000000;stroke-width:15.2362;stroke-linecap:round;stroke-linejoin:round;stroke-miterlimit:10;}
	.st66{fill:#FFFFFF;stroke:#FFFFFF;stroke-width:3;stroke-miterlimit:10;}
	.st67{fill:#FFFFFF;stroke:#000000;stroke-width:13.3058;stroke-linecap:round;stroke-linejoin:round;stroke-miterlimit:10;}
	.st68{fill:#FFFFFF;stroke:#000000;stroke-width:15.2517;stroke-linecap:round;stroke-linejoin:round;stroke-miterlimit:10;}
	.st69{stroke:#000000;stroke-width:3;stroke-miterlimit:10;}
</style>
<g id="unexpanded" class="st0">
	<rect x="-410.75" y="-2593.56" class="st1" width="14663.41" height="9108.82"/>
	<g class="st2">
		<rect x="0" class="st5" width="792" height="1224"/>
		<g>
			<g>
				<g>
					<text transform="matrix(1 0 0 1 206.8743 169.3037)"><tspan x="0" y="0" class="st27 st28">CALL</tspan><tspan x="-13.41" y="154.63" class="st27 st28">YOUR</tspan></text>
				</g>
			</g>
			<text transform="matrix(1 0 0 1 14.167 518.4463)" class="st27 st29">Mother</text>
		</g>
		<g>
			<g>
				<g>
					<text transform="matrix(1 0 0 1 258.9679 23.554)"><tspan x="0" y="0" class="st27 st31">www</tspan><tspan x="45.14" y="0" class="st27 st32"> </tspan><tspan x="46.99" y="0" class="st27 st31">.</tspan><tspan x="51.77" y="0" class="st27 st32"> </tspan><tspan x="53.63" y="0" class="st27 st31">Capitalism</tspan><tspan x="150.43" y="0" class="st27 st33"> </tspan><tspan x="153.9" y="0" class="st27 st31">Is</tspan><tspan x="168.88" y="0" class="st27 st33"> </tspan><tspan x="172.34" y="0" class="st27 st31">A</tspan><tspan x="186.6" y="0" class="st27 st32"> </tspan><tspan x="188.46" y="0" class="st27 st31">Virus</tspan><tspan x="236.15" y="0" class="st27 st32"> </tspan><tspan x="238.01" y="0" class="st27 st31">.</tspan><tspan x="242.79" y="0" class="st27 st32"> </tspan><tspan x="244.64" y="0" class="st27 st31">org</tspan></text>
				</g>
				<g>
					<text transform="matrix(1 0 0 1 299.1802 596.9929)"><tspan x="0" y="0" class="st27 st31">#</tspan><tspan x="12.7" y="0" class="st27 st34"> </tspan><tspan x="14.5" y="0" class="st27 st31">Capitalism</tspan><tspan x="111.3" y="0" class="st27 st34"> </tspan><tspan x="113.1" y="0" class="st27 st31">Is</tspan><tspan x="128.09" y="0" class="st27 st34"> </tspan><tspan x="129.89" y="0" class="st27 st31">A</tspan><tspan x="144.15" y="0" class="st27 st34"> </tspan><tspan x="145.95" y="0" class="st27 st31">Virus</tspan></text>
				</g>
			</g>
		</g>
	</g>
</g>
<g id="exp_trnsp_bg">
	<path d="M263.71,171.21c30.64,0,47-19.37,48.9-44.3l-25.88-1.11c-1.59,11.11-7.62,21.43-23.18,21.43
		c-14.77,0-23.34-10.96-23.34-27.94s8.57-27.94,23.34-27.94c15.56,0,21.59,10.32,23.18,21.43l25.88-0.95
		c-1.91-24.93-18.26-44.46-48.9-44.46c-29.21,0-51.28,21.12-51.28,51.92S234.5,171.21,263.71,171.21z"/>
	<path d="M337.85,169.3l7.46-19.37h39.06l7.46,19.37h28.74L380.72,69.28h-30.17L310.7,169.3H337.85z M364.53,100.24h0.64
		l11.43,29.53h-23.5L364.53,100.24z"/>
	<polygon points="504.71,147.08 455.18,147.08 455.18,69.28 428.19,69.28 428.19,169.3 504.71,169.3 	"/>
	<polyline points="543.29,147.08 543.29,69.28 516.3,69.28 516.3,169.3 592.82,169.3 	"/>
	<polygon points="235.85,323.93 262.05,323.93 262.05,285.99 300.47,223.91 271.41,223.91 249.98,259.95 227.43,223.91 
		197.43,223.91 235.85,285.99 	"/>
	<path d="M347.62,325.84c29.05,0,51.92-21.12,51.92-51.92s-22.86-51.92-51.92-51.92c-29.05,0-51.92,21.12-51.92,51.92
		S318.56,325.84,347.62,325.84z M347.62,245.82c14.77,0,24.13,11.11,24.13,28.1s-9.37,28.1-24.13,28.1
		c-14.76,0-24.13-11.11-24.13-28.1S332.85,245.82,347.62,245.82z"/>
	<path d="M409.69,223.91v60.33c0,29.21,19.69,41.6,45.41,41.6c25.72,0,45.57-12.38,45.57-41.6v-60.33h-26.99v55.89
		c0,15.24-4.6,23.34-18.58,23.34c-13.81,0-18.58-8.1-18.58-23.34v-55.89H409.69z"/>
	<path d="M541.62,290.75h17.94c9.05,0,13.97,2.54,14.77,13.97c0.79,10.32,2.06,16.51,4.13,19.21h27.31
		c-3.33-3.65-3.81-8.1-5.24-23.02c-1.11-11.59-7.14-17.46-17.46-19.53c12.22-1.59,21.27-11.11,21.27-25.72
		c0-19.53-12.86-31.75-38.74-31.75h-50.49v100.02h26.51V290.75z M541.62,245.5h19.21c11.43,0,17.15,4.29,17.15,12.38
		c0,9.21-5.71,12.07-17.15,12.07h-19.21V245.5z"/>
	<polygon points="62.96,412.48 63.92,412.48 90.95,518.45 125.63,518.45 152.66,412.48 153.62,412.48 153.62,518.45 194.28,518.45 
		194.28,367.75 132.81,367.75 111.52,462.47 110.8,462.47 88.56,367.75 25.65,367.75 25.65,518.45 62.96,518.45 	"/>
	<path d="M210.55,465.11c0,33.25,23.44,56.21,58.36,56.21c34.68,0,58.36-22.96,58.36-56.21c0-33.01-23.68-56.21-58.36-56.21
		C233.99,408.89,210.55,432.1,210.55,465.11z M288.29,465.11c0,16.03-5.98,27.03-19.38,27.03c-13.63,0-19.38-11-19.38-27.03
		s5.74-27.03,19.38-27.03C282.31,438.08,288.29,449.08,288.29,465.11z"/>
	<path d="M413.39,486.63c-6.46,2.63-11.72,3.59-16.5,3.59c-7.89,0-12.2-3.59-12.2-12.68v-38.99h27.75v-26.79h-27.75v-29.42h-24.4
		l-3.59,13.87c-2.63,9.81-5.98,15.55-16.74,17.22l-7.89,1.2v23.92h14.35v50.23c0,25.12,16.98,32.53,34.92,32.53
		c14.59,0,23.92-3.59,32.05-9.57V486.63z"/>
	<path d="M539.92,518.45v-66.98c0-22.25-9.33-42.58-38.51-42.58c-16.03,0-28.7,7.18-34.44,18.9v-60.04h-38.75v150.69h38.75v-52.38
		c0-16.03,5.26-26.55,18.42-26.55c11.72,0,15.79,7.65,15.79,22.25v56.69H539.92z"/>
	<path d="M554.03,466.78c0,33.97,24.4,54.54,58.6,54.54c28.23,0,47.84-13.63,53.34-38.03l-31.1-2.87
		c-3.59,8.37-10.29,11.96-20.81,11.96c-11.72,0-21.29-6.22-22.25-19.38h74.87v-10.76c0-28.94-18.9-53.34-54.54-53.34
		C578.91,408.89,554.03,433.05,554.03,466.78z M611.68,436.64c11.48,0,17.7,8.13,18.18,17.7H592.3
		C593.74,444.29,599.24,436.64,611.68,436.64z"/>
	<path d="M721.23,469.65c0-17.94,8.85-24.64,23.2-24.64c7.42,0,13.16,1.44,18.42,4.54l2.39-36.6c-2.63-2.15-8.37-4.07-14.83-4.07
		c-14.11,0-25.35,9.81-29.18,21.77v-18.9h-38.75v106.68h38.75V469.65z"/>
	<polygon points="265.16,23.55 266.5,18.36 266.58,18.36 267.92,23.55 271.2,23.55 274.07,14.5 276.93,23.55 280.21,23.55 
		281.55,18.36 281.63,18.36 282.97,23.55 286.25,23.55 289.11,14.5 291.98,23.55 295.25,23.55 296.59,18.36 296.68,18.36 
		298.02,23.55 301.29,23.55 304.2,14.36 301.19,14.36 299.54,19.58 299.46,19.58 298.12,14.36 295.46,14.36 294.12,19.58 
		294.04,19.58 292.39,14.36 289.15,14.36 289.07,14.36 286.15,14.36 284.5,19.58 284.41,19.58 283.07,14.36 280.41,14.36 
		279.07,19.58 278.99,19.58 277.34,14.36 274.11,14.36 274.02,14.36 271.1,14.36 269.45,19.58 269.37,19.58 268.03,14.36 
		265.37,14.36 264.03,19.58 263.95,19.58 262.3,14.36 258.98,14.36 261.88,23.55 	"/>
	<rect x="306.63" y="20.01" width="3.55" height="3.55"/>
	<path d="M319.72,23.8c3.98,0,6.1-2.52,6.35-5.75l-3.36-0.14c-0.21,1.44-0.99,2.78-3.01,2.78c-1.92,0-3.03-1.42-3.03-3.63
		s1.11-3.63,3.03-3.63c2.02,0,2.8,1.34,3.01,2.78l3.36-0.12c-0.25-3.24-2.37-5.77-6.35-5.77c-3.79,0-6.66,2.74-6.66,6.74
		S315.92,23.8,319.72,23.8z"/>
	<path d="M330.08,18.38c-2,0.35-3.28,1.11-3.28,2.89c0,1.57,1.17,2.49,2.97,2.49c1.46,0,2.52-0.56,3.05-1.63
		c0.31,1.05,1.2,1.63,2.33,1.63c0.95,0,1.61-0.27,2.08-0.6v-1.77c-0.27,0.1-0.47,0.14-0.74,0.14c-0.35,0-0.56-0.21-0.56-0.68v-3.13
		c0-2.56-1.79-3.61-4.23-3.61c-2.76,0-4.27,1.4-4.56,3.42l3.09,0.21c0.14-0.68,0.52-1.15,1.26-1.15c0.8,0,1.15,0.45,1.15,1.22v0.14
		L330.08,18.38z M332.66,19.72c0,1.2-0.76,1.9-1.71,1.9c-0.56,0-0.93-0.31-0.93-0.78c0-0.6,0.47-0.85,1.28-1.01l1.36-0.25V19.72z"/>
	<path d="M341.54,21.99c0.45,1.07,1.48,1.81,3.03,1.81c2.7,0,4.08-2.12,4.08-4.84c0-2.7-1.38-4.84-4.08-4.84
		c-1.55,0-2.58,0.74-3.03,1.83v-1.59h-3.34v12.49h3.34V21.99z M341.54,18.9c0-1.32,0.72-2.19,1.86-2.19c1.3,0,1.9,0.93,1.9,2.25
		c0,1.34-0.6,2.27-1.9,2.27c-1.13,0-1.86-0.87-1.86-2.21V18.9z"/>
	<rect x="349.95" y="10.57" width="3.38" height="2.93"/>
	<rect x="349.97" y="14.36" width="3.34" height="9.19"/>
	<path d="M355.46,21c0,2.16,1.46,2.8,3.01,2.8c1.26,0,2.06-0.31,2.76-0.82v-2.16c-0.56,0.23-1.01,0.31-1.42,0.31
		c-0.68,0-1.05-0.31-1.05-1.09v-3.36h2.39v-2.31h-2.39v-2.54h-2.1l-0.31,1.2c-0.23,0.85-0.52,1.34-1.44,1.48l-0.68,0.1v2.06h1.24V21
		z"/>
	<path d="M365.25,18.38c-2,0.35-3.28,1.11-3.28,2.89c0,1.57,1.17,2.49,2.97,2.49c1.46,0,2.52-0.56,3.05-1.63
		c0.31,1.05,1.2,1.63,2.33,1.63c0.95,0,1.61-0.27,2.08-0.6v-1.77c-0.27,0.1-0.47,0.14-0.74,0.14c-0.35,0-0.56-0.21-0.56-0.68v-3.13
		c0-2.56-1.79-3.61-4.23-3.61c-2.76,0-4.27,1.4-4.56,3.42l3.09,0.21c0.14-0.68,0.52-1.15,1.26-1.15c0.8,0,1.15,0.45,1.15,1.22v0.14
		L365.25,18.38z M367.82,19.72c0,1.2-0.76,1.9-1.71,1.9c-0.56,0-0.93-0.31-0.93-0.78c0-0.6,0.47-0.85,1.28-1.01l1.36-0.25V19.72z"/>
	<rect x="373.37" y="10.57" width="3.34" height="12.99"/>
	<rect x="378.5" y="10.57" width="3.38" height="2.93"/>
	<rect x="378.52" y="14.36" width="3.34" height="9.19"/>
	<path d="M387.67,21.72c-1.01,0-1.63-0.43-1.75-1.2l-2.91,0.04c0.19,2.23,2.08,3.24,4.62,3.24c2.62,0,4.27-1.11,4.27-3.05
		c0-1.79-1.2-2.72-3.26-3.05l-1.79-0.31c-0.31-0.04-0.56-0.21-0.56-0.52c0-0.41,0.37-0.66,1.01-0.66c1.03,0,1.61,0.41,1.73,1.07
		l2.74-0.08c-0.19-1.92-1.75-3.09-4.41-3.09c-2.58,0-4.16,1.3-4.16,3.11c0,1.88,1.17,2.6,3.4,2.95l1.36,0.21
		c0.64,0.1,0.85,0.35,0.85,0.7C388.8,21.45,388.41,21.72,387.67,21.72z"/>
	<path d="M396.51,19.04c0-1.38,0.39-2.29,1.48-2.29c1.01,0,1.26,0.66,1.26,1.92v4.89h3.34v-4.51c0-1.38,0.37-2.29,1.48-2.29
		c1.01,0,1.24,0.66,1.24,1.92v4.89h3.34v-5.77c0-1.92-0.74-3.67-3.28-3.67c-1.55,0-2.64,0.78-3.13,1.81
		c-0.39-1.07-1.24-1.81-2.87-1.81c-1.38,0-2.37,0.62-2.87,1.63v-1.38h-3.34v9.19h3.34V19.04z"/>
	<rect x="413.91" y="10.57" width="3.5" height="12.99"/>
	<path d="M423.3,21.72c-1.01,0-1.63-0.43-1.75-1.2l-2.91,0.04c0.19,2.23,2.08,3.24,4.62,3.24c2.62,0,4.27-1.11,4.27-3.05
		c0-1.79-1.2-2.72-3.26-3.05l-1.79-0.31c-0.31-0.04-0.56-0.21-0.56-0.52c0-0.41,0.37-0.66,1.01-0.66c1.03,0,1.61,0.41,1.73,1.07
		l2.74-0.08c-0.19-1.92-1.75-3.09-4.41-3.09c-2.58,0-4.16,1.3-4.16,3.11c0,1.88,1.18,2.6,3.4,2.95l1.36,0.21
		c0.64,0.1,0.85,0.35,0.85,0.7C424.44,21.45,424.05,21.72,423.3,21.72z"/>
	<path d="M435.86,21.04h5.07l0.97,2.52h3.73l-5.17-12.99h-3.92l-5.17,12.99h3.52L435.86,21.04z M438.35,14.59h0.08l1.48,3.83h-3.05
		L438.35,14.59z"/>
	<polygon points="456.16,23.55 461.15,10.57 457.66,10.57 454.45,19.2 454.36,19.2 451.15,10.57 447.48,10.57 452.47,23.55 	"/>
	<rect x="462.03" y="10.57" width="3.38" height="2.93"/>
	<rect x="462.05" y="14.36" width="3.34" height="9.19"/>
	<path d="M470.54,19.35c0-1.55,0.76-2.12,2-2.12c0.64,0,1.13,0.12,1.59,0.39l0.21-3.15c-0.23-0.19-0.72-0.35-1.28-0.35
		c-1.22,0-2.19,0.85-2.52,1.88v-1.63h-3.34v9.19h3.34V19.35z"/>
	<path d="M478.54,23.8c1.38,0,2.39-0.6,2.89-1.63v1.38h3.34v-9.19h-3.34v4.51c0,1.4-0.41,2.31-1.46,2.31
		c-1.01,0-1.36-0.68-1.36-1.92v-4.91h-3.34v5.79C475.26,22.07,476.02,23.8,478.54,23.8z"/>
	<path d="M490.58,21.72c-1.01,0-1.63-0.43-1.75-1.2l-2.91,0.04c0.19,2.23,2.08,3.24,4.62,3.24c2.62,0,4.27-1.11,4.27-3.05
		c0-1.79-1.2-2.72-3.26-3.05l-1.79-0.31c-0.31-0.04-0.56-0.21-0.56-0.52c0-0.41,0.37-0.66,1.01-0.66c1.03,0,1.61,0.41,1.73,1.07
		l2.74-0.08c-0.19-1.92-1.75-3.09-4.41-3.09c-2.58,0-4.16,1.3-4.16,3.11c0,1.88,1.18,2.6,3.4,2.95l1.36,0.21
		c0.64,0.1,0.85,0.35,0.85,0.7C491.71,21.45,491.32,21.72,490.58,21.72z"/>
	<rect x="497.64" y="20.01" width="3.55" height="3.55"/>
	<path d="M509.1,23.8c2.99,0,5.03-1.98,5.03-4.84c0-2.84-2.04-4.84-5.03-4.84c-3.01,0-5.03,2-5.03,4.84
		C504.07,21.82,506.09,23.8,509.1,23.8z M509.1,16.63c1.15,0,1.67,0.95,1.67,2.33c0,1.38-0.52,2.33-1.67,2.33
		c-1.17,0-1.67-0.95-1.67-2.33C507.44,17.58,507.93,16.63,509.1,16.63z"/>
	<path d="M518.79,19.35c0-1.55,0.76-2.12,2-2.12c0.64,0,1.13,0.12,1.59,0.39l0.21-3.15c-0.23-0.19-0.72-0.35-1.28-0.35
		c-1.22,0-2.19,0.85-2.52,1.88v-1.63h-3.34v9.19h3.34V19.35z"/>
	<path d="M522.6,24.85c0,1.73,2.27,2.25,4.89,2.25c2.99,0,5.77-1.05,5.77-3.34c0-1.55-1.05-2.64-3.13-2.64h-3.81
		c-0.56,0-0.78-0.25-0.78-0.56c0-0.19,0.06-0.33,0.19-0.43c0.6,0.19,1.26,0.27,2,0.27c2.6,0,4.47-1.2,4.47-3.13
		c0-0.43-0.1-0.82-0.29-1.17c0.45-0.1,0.95-0.14,1.34-0.14v-2.51c-1.01,0-2.02,0.66-2.58,1.42c-0.78-0.47-1.83-0.74-2.95-0.74
		c-2.58,0-4.43,1.2-4.43,3.15c0,1.01,0.49,1.79,1.32,2.33c-0.99,0.37-1.57,1.05-1.57,1.94c0,0.78,0.49,1.53,1.32,1.79
		C523.33,23.41,522.6,24.05,522.6,24.85z M527.76,15.95c0.56,0,0.97,0.52,0.97,1.32c0,0.82-0.41,1.34-0.97,1.34
		c-0.56,0-0.97-0.52-0.97-1.34C526.79,16.46,527.2,15.95,527.76,15.95z M525.96,23.97h3.38c0.56,0,0.85,0.14,0.85,0.54
		c0,0.56-1.13,0.87-2.68,0.87c-1.24,0-2.16-0.19-2.16-0.84C525.35,24.17,525.59,23.97,525.96,23.97z"/>
	<path d="M311.03,589.49l0.43-2.06h-1.83l0.82-3.42h-2.49l-0.82,3.42h-1.77l0.83-3.42h-2.49l-0.82,3.42h-2.02l-0.43,2.06h1.98
		l-0.49,2.02h-1.88l-0.43,2.06h1.81l-0.8,3.42h2.49l0.8-3.42h1.77l-0.8,3.42h2.49l0.8-3.42h2.04l0.43-2.06h-1.98l0.49-2.02H311.03z
		 M306.17,591.51h-1.77l0.5-2.02h1.77L306.17,591.51z"/>
	<path d="M320.73,586.87c2.02,0,2.8,1.34,3.01,2.78l3.36-0.12c-0.25-3.24-2.37-5.77-6.35-5.77c-3.79,0-6.66,2.74-6.66,6.74
		c0,4,2.87,6.74,6.66,6.74c3.98,0,6.1-2.52,6.35-5.75l-3.36-0.14c-0.21,1.44-0.99,2.78-3.01,2.78c-1.92,0-3.03-1.42-3.03-3.63
		C317.7,588.29,318.81,586.87,320.73,586.87z"/>
	<path d="M331.11,591.82c-2,0.35-3.28,1.11-3.28,2.89c0,1.57,1.18,2.49,2.97,2.49c1.46,0,2.52-0.56,3.05-1.63
		c0.31,1.05,1.2,1.63,2.33,1.63c0.95,0,1.61-0.27,2.08-0.6v-1.77c-0.27,0.1-0.47,0.14-0.74,0.14c-0.35,0-0.56-0.21-0.56-0.68v-3.13
		c0-2.56-1.79-3.61-4.23-3.61c-2.76,0-4.27,1.4-4.56,3.42l3.09,0.21c0.14-0.68,0.52-1.15,1.26-1.15c0.8,0,1.15,0.45,1.15,1.22v0.14
		L331.11,591.82z M333.69,593.16c0,1.2-0.76,1.9-1.71,1.9c-0.56,0-0.93-0.31-0.93-0.78c0-0.6,0.47-0.85,1.28-1.01l1.36-0.25V593.16z
		"/>
	<path d="M339.23,587.8v12.49h3.34v-4.86c0.45,1.07,1.48,1.81,3.03,1.81c2.7,0,4.08-2.12,4.08-4.84c0-2.7-1.38-4.84-4.08-4.84
		c-1.55,0-2.58,0.74-3.03,1.83v-1.59H339.23z M344.43,590.15c1.3,0,1.9,0.93,1.9,2.25c0,1.34-0.6,2.27-1.9,2.27
		c-1.13,0-1.86-0.87-1.86-2.21v-0.12C342.57,591.02,343.29,590.15,344.43,590.15z"/>
	<rect x="351" y="587.8" width="3.34" height="9.19"/>
	<rect x="350.98" y="584.01" width="3.38" height="2.93"/>
	<path d="M359.49,597.24c1.26,0,2.06-0.31,2.76-0.82v-2.16c-0.56,0.23-1.01,0.31-1.42,0.31c-0.68,0-1.05-0.31-1.05-1.09v-3.36h2.39
		v-2.31h-2.39v-2.54h-2.1l-0.31,1.2c-0.23,0.85-0.52,1.34-1.44,1.48l-0.68,0.1v2.06h1.24v4.33
		C356.48,596.6,357.95,597.24,359.49,597.24z"/>
	<path d="M366.27,591.82c-2,0.35-3.28,1.11-3.28,2.89c0,1.57,1.18,2.49,2.97,2.49c1.46,0,2.51-0.56,3.05-1.63
		c0.31,1.05,1.2,1.63,2.33,1.63c0.95,0,1.61-0.27,2.08-0.6v-1.77c-0.27,0.1-0.47,0.14-0.74,0.14c-0.35,0-0.56-0.21-0.56-0.68v-3.13
		c0-2.56-1.79-3.61-4.23-3.61c-2.76,0-4.27,1.4-4.56,3.42l3.09,0.21c0.14-0.68,0.52-1.15,1.26-1.15c0.8,0,1.15,0.45,1.15,1.22v0.14
		L366.27,591.82z M368.85,593.16c0,1.2-0.76,1.9-1.71,1.9c-0.56,0-0.93-0.31-0.93-0.78c0-0.6,0.47-0.85,1.28-1.01l1.36-0.25V593.16z
		"/>
	<rect x="374.39" y="584.01" width="3.34" height="12.99"/>
	<rect x="379.55" y="587.8" width="3.34" height="9.19"/>
	<rect x="379.53" y="584.01" width="3.38" height="2.93"/>
	<path d="M388.7,595.16c-1.01,0-1.63-0.43-1.75-1.2l-2.91,0.04c0.19,2.23,2.08,3.24,4.62,3.24c2.62,0,4.27-1.11,4.27-3.05
		c0-1.79-1.2-2.72-3.26-3.05l-1.79-0.31c-0.31-0.04-0.56-0.21-0.56-0.52c0-0.41,0.37-0.66,1.01-0.66c1.03,0,1.61,0.41,1.73,1.07
		l2.74-0.08c-0.19-1.92-1.75-3.09-4.41-3.09c-2.58,0-4.16,1.3-4.16,3.11c0,1.88,1.18,2.6,3.4,2.95l1.36,0.21
		c0.64,0.1,0.85,0.35,0.85,0.7C389.83,594.89,389.44,595.16,388.7,595.16z"/>
	<path d="M409.68,596.99v-5.77c0-1.92-0.74-3.67-3.28-3.67c-1.55,0-2.64,0.78-3.13,1.81c-0.39-1.07-1.24-1.81-2.87-1.81
		c-1.38,0-2.37,0.62-2.87,1.63v-1.38h-3.34v9.19h3.34v-4.51c0-1.38,0.39-2.29,1.48-2.29c1.01,0,1.26,0.66,1.26,1.92v4.89h3.34v-4.51
		c0-1.38,0.37-2.29,1.48-2.29c1.01,0,1.24,0.66,1.24,1.92v4.89H409.68z"/>
	<rect x="413.27" y="584.01" width="3.5" height="12.99"/>
	<path d="M422.67,595.16c-1.01,0-1.63-0.43-1.75-1.2l-2.91,0.04c0.19,2.23,2.08,3.24,4.62,3.24c2.62,0,4.27-1.11,4.27-3.05
		c0-1.79-1.2-2.72-3.26-3.05l-1.79-0.31c-0.31-0.04-0.56-0.21-0.56-0.52c0-0.41,0.37-0.66,1.01-0.66c1.03,0,1.61,0.41,1.73,1.07
		l2.74-0.08c-0.19-1.92-1.75-3.09-4.41-3.09c-2.58,0-4.16,1.3-4.16,3.11c0,1.88,1.18,2.6,3.4,2.95l1.36,0.21
		c0.64,0.1,0.85,0.35,0.85,0.7C423.8,594.89,423.41,595.16,422.67,595.16z"/>
	<path d="M429.07,596.99h3.52l0.97-2.51h5.07l0.97,2.51h3.73l-5.17-12.99h-3.92L429.07,596.99z M436.05,588.03h0.08l1.48,3.83h-3.05
		L436.05,588.03z"/>
	<polygon points="452.01,592.64 448.8,584.01 445.13,584.01 450.12,596.99 453.81,596.99 458.8,584.01 455.31,584.01 452.1,592.64 	
		"/>
	<rect x="459.7" y="587.8" width="3.34" height="9.19"/>
	<rect x="459.68" y="584.01" width="3.38" height="2.93"/>
	<path d="M464.85,587.8v9.19h3.34v-4.21c0-1.55,0.76-2.12,2-2.12c0.64,0,1.13,0.12,1.59,0.39l0.21-3.15
		c-0.23-0.19-0.72-0.35-1.28-0.35c-1.22,0-2.19,0.85-2.52,1.88v-1.63H464.85z"/>
	<path d="M482.41,596.99v-9.19h-3.34v4.51c0,1.4-0.41,2.31-1.46,2.31c-1.01,0-1.36-0.68-1.36-1.92v-4.91h-3.34v5.79
		c0,1.92,0.76,3.65,3.28,3.65c1.38,0,2.39-0.6,2.89-1.63v1.38H482.41z"/>
	<path d="M488.23,595.16c-1.01,0-1.63-0.43-1.75-1.2l-2.91,0.04c0.19,2.23,2.08,3.24,4.62,3.24c2.62,0,4.27-1.11,4.27-3.05
		c0-1.79-1.2-2.72-3.26-3.05l-1.79-0.31c-0.31-0.04-0.56-0.21-0.56-0.52c0-0.41,0.37-0.66,1.01-0.66c1.03,0,1.61,0.41,1.73,1.07
		l2.74-0.08c-0.19-1.92-1.75-3.09-4.41-3.09c-2.58,0-4.16,1.3-4.16,3.11c0,1.88,1.17,2.6,3.4,2.95l1.36,0.21
		c0.64,0.1,0.85,0.35,0.85,0.7C489.36,594.89,488.97,595.16,488.23,595.16z"/>
</g>
<g id="exp_white_bg" class="st0">
	<g class="st2">
		<path class="st5" d="M527.76,18.61c0.56,0,0.97-0.52,0.97-1.34c0-0.8-0.41-1.32-0.97-1.32c-0.56,0-0.97,0.52-0.97,1.32
			C526.79,18.09,527.2,18.61,527.76,18.61z"/>
		<path class="st5" d="M527.51,25.37c1.55,0,2.68-0.31,2.68-0.87c0-0.39-0.29-0.54-0.85-0.54h-3.38c-0.37,0-0.62,0.21-0.62,0.56
			C525.35,25.18,526.27,25.37,527.51,25.37z"/>
		<path class="st5" d="M577.98,257.89c0-8.1-5.71-12.38-17.15-12.38h-19.21v24.45h19.21C572.26,269.95,577.98,267.1,577.98,257.89z"
			/>
		<path class="st5" d="M509.1,21.29c1.15,0,1.67-0.95,1.67-2.33c0-1.38-0.52-2.33-1.67-2.33c-1.17,0-1.67,0.95-1.67,2.33
			C507.44,20.34,507.93,21.29,509.1,21.29z"/>
		<path class="st5" d="M365.18,20.83c0,0.47,0.37,0.78,0.93,0.78c0.95,0,1.71-0.7,1.71-1.9v-0.14l-1.36,0.25
			C365.66,19.99,365.18,20.24,365.18,20.83z"/>
		<path class="st5" d="M611.68,436.64c-12.44,0-17.94,7.65-19.37,17.7h37.55C629.38,444.77,623.16,436.64,611.68,436.64z"/>
		<polygon class="st5" points="438.43,14.59 438.35,14.59 436.87,18.42 439.92,18.42 		"/>
		<polygon class="st5" points="436.14,588.03 436.05,588.03 434.57,591.86 437.62,591.86 		"/>
		<polygon class="st5" points="365.16,100.24 364.53,100.24 353.09,129.77 376.59,129.77 		"/>
		<path class="st5" d="M342.57,592.46c0,1.34,0.72,2.21,1.86,2.21c1.3,0,1.9-0.93,1.9-2.27c0-1.32-0.6-2.25-1.9-2.25
			c-1.13,0-1.86,0.87-1.86,2.19V592.46z"/>
		<path class="st5" d="M330.02,20.83c0,0.47,0.37,0.78,0.93,0.78c0.95,0,1.71-0.7,1.71-1.9v-0.14l-1.36,0.25
			C330.5,19.99,330.02,20.24,330.02,20.83z"/>
		<path class="st5" d="M366.21,594.27c0,0.47,0.37,0.78,0.93,0.78c0.95,0,1.71-0.7,1.71-1.9v-0.14l-1.36,0.25
			C366.69,593.43,366.21,593.67,366.21,594.27z"/>
		<polygon class="st5" points="304.4,591.51 306.17,591.51 306.66,589.49 304.89,589.49 		"/>
		<ellipse class="st5" cx="347.62" cy="273.92" rx="24.13" ry="28.1"/>
		<ellipse class="st5" cx="268.91" cy="465.11" rx="19.38" ry="27.03"/>
		<path class="st5" d="M343.4,21.22c1.3,0,1.9-0.93,1.9-2.27c0-1.32-0.6-2.25-1.9-2.25c-1.13,0-1.86,0.87-1.86,2.19v0.12
			C341.54,20.36,342.27,21.22,343.4,21.22z"/>
		<path class="st5" d="M0,1224h792V0H0V1224z M26.86,1016.1l-5.19,1.34v0.08l5.19,1.34v3.28l-9.06,2.86l9.06,2.86v3.28l-5.19,1.34
			v0.08l5.19,1.34v3.28l-9.06,2.86l9.06,2.86v3.28l-5.19,1.34v0.08l5.19,1.34v3.28l-9.19,2.91v-3.32l5.22-1.65v-0.08l-5.22-1.34
			v-2.66l5.22-1.34v-0.08l-5.22-1.65v-2.92v-0.09v-3.23l5.22-1.65v-0.08l-5.22-1.34v-2.66l5.22-1.34v-0.08l-5.22-1.65v-2.92v-0.09
			v-3.23l5.22-1.65V1020l-5.22-1.34V1016l5.22-1.34v-0.08l-5.22-1.65v-3.01l9.19,2.91V1016.1z M26.86,1007.49h-3.55v-3.55h3.55
			V1007.49z M30.16,975.91H17.67v-3.34h1.59c-1.09-0.45-1.83-1.48-1.83-3.03c0-2.7,2.14-4.08,4.84-4.08c2.72,0,4.84,1.38,4.84,4.08
			c0,1.55-0.74,2.58-1.81,3.03h4.86V975.91z M27.07,984.34c0,1.79-0.93,2.97-2.49,2.97c-1.77,0-2.54-1.28-2.89-3.28l-0.43-2.58
			h-0.14c-0.76,0-1.22,0.35-1.22,1.15c0,0.74,0.47,1.11,1.15,1.26l-0.21,3.09c-2.02-0.29-3.42-1.79-3.42-4.56
			c0-2.43,1.05-4.23,3.61-4.23h3.13c0.47,0,0.68-0.21,0.68-0.56c0-0.27-0.04-0.47-0.14-0.74h1.77c0.33,0.47,0.6,1.13,0.6,2.08
			c0,1.13-0.58,2.02-1.63,2.33C26.51,981.83,27.07,982.88,27.07,984.34z M24.7,941.72h1.77c0.33,0.47,0.6,1.13,0.6,2.08
			c0,1.13-0.58,2.02-1.63,2.33c1.07,0.54,1.63,1.59,1.63,3.05c0,1.79-0.93,2.97-2.49,2.97c-1.77,0-2.54-1.28-2.89-3.28l-0.43-2.58
			h-0.14c-0.76,0-1.22,0.35-1.22,1.15c0,0.74,0.47,1.11,1.15,1.26l-0.21,3.09c-2.02-0.29-3.42-1.79-3.42-4.56
			c0-2.43,1.05-4.23,3.61-4.23h3.13c0.47,0,0.68-0.21,0.68-0.56C24.84,942.19,24.8,941.99,24.7,941.72z M17.42,908.74
			c0-2.54,1.75-3.28,3.67-3.28h5.77v3.34h-4.89c-1.26,0-1.92,0.23-1.92,1.24c0,1.11,0.91,1.48,2.29,1.48h4.51v3.34h-4.89
			c-1.26,0-1.92,0.25-1.92,1.26c0,1.09,0.91,1.48,2.29,1.48h4.51v3.34h-9.19v-3.34h1.38c-1.01-0.49-1.63-1.48-1.63-2.87
			c0-1.63,0.74-2.47,1.81-2.87C18.2,911.38,17.42,910.29,17.42,908.74z M20.51,922.35l0.08,2.74c-0.66,0.12-1.07,0.7-1.07,1.73
			c0,0.64,0.25,1.01,0.66,1.01c0.31,0,0.47-0.25,0.52-0.56l0.31-1.79c0.33-2.06,1.26-3.26,3.05-3.26c1.94,0,3.05,1.65,3.05,4.27
			c0,2.54-1.01,4.43-3.24,4.62l-0.04-2.91c0.76-0.12,1.2-0.74,1.2-1.75c0-0.74-0.27-1.13-0.64-1.13c-0.35,0-0.6,0.21-0.7,0.85
			l-0.21,1.36c-0.35,2.23-1.07,3.4-2.95,3.4c-1.81,0-3.11-1.59-3.11-4.16C17.42,924.1,18.59,922.53,20.51,922.35z M24.39,889.68
			c-0.35,0-0.6,0.21-0.7,0.85l-0.21,1.36c-0.35,2.23-1.07,3.4-2.95,3.4c-1.81,0-3.11-1.59-3.11-4.16c0-2.66,1.17-4.23,3.09-4.41
			l0.08,2.74c-0.66,0.12-1.07,0.7-1.07,1.73c0,0.64,0.25,1.01,0.66,1.01c0.31,0,0.47-0.25,0.52-0.56l0.31-1.79
			c0.33-2.06,1.26-3.26,3.05-3.26c1.94,0,3.05,1.65,3.05,4.27c0,2.54-1.01,4.43-3.24,4.62l-0.04-2.91c0.76-0.12,1.2-0.74,1.2-1.75
			C25.03,890.07,24.76,889.68,24.39,889.68z M22.66,795.33h4.21v3.34h-9.19v-3.34h1.63c-1.03-0.33-1.88-1.3-1.88-2.52
			c0-0.56,0.17-1.05,0.35-1.28l3.15,0.21c-0.27,0.45-0.39,0.95-0.39,1.59C20.53,794.56,21.11,795.33,22.66,795.33z M22.26,799.98
			c2.87,0,4.84,2.04,4.84,5.03c0,3.01-1.98,5.03-4.84,5.03c-2.84,0-4.84-2.02-4.84-5.03C17.42,802.02,19.42,799.98,22.26,799.98z
			 M26.86,812.93v3.55h-3.55v-3.55H26.86z M20.51,819.44l0.08,2.74c-0.66,0.12-1.07,0.7-1.07,1.73c0,0.64,0.25,1.01,0.66,1.01
			c0.31,0,0.47-0.25,0.52-0.56l0.31-1.79c0.33-2.06,1.26-3.26,3.05-3.26c1.94,0,3.05,1.65,3.05,4.27c0,2.54-1.01,4.43-3.24,4.62
			l-0.04-2.91c0.76-0.12,1.2-0.74,1.2-1.75c0-0.74-0.27-1.13-0.64-1.13c-0.35,0-0.6,0.21-0.7,0.85l-0.21,1.36
			c-0.35,2.23-1.07,3.4-2.95,3.4c-1.81,0-3.11-1.59-3.11-4.16C17.42,821.19,18.59,819.62,20.51,819.44z M22.18,832.69h-4.51v-3.34
			h9.19v3.34h-1.38c1.03,0.49,1.63,1.5,1.63,2.89c0,2.52-1.73,3.28-3.65,3.28h-5.79v-3.34h4.91c1.24,0,1.92-0.35,1.92-1.36
			C24.49,833.1,23.58,832.69,22.18,832.69z M17.77,839.78l3.15,0.21c-0.27,0.45-0.39,0.95-0.39,1.59c0,1.24,0.58,2,2.12,2h4.21v3.34
			h-9.19v-3.34h1.63c-1.03-0.33-1.88-1.3-1.88-2.52C17.42,840.5,17.58,840.01,17.77,839.78z M17.67,848.73h9.19v3.34h-9.19V848.73z
			 M17.67,932.26h9.19v3.34h-9.19V932.26z M17.67,955.36v-2.39h2.31v2.39h3.36c0.78,0,1.09-0.37,1.09-1.05
			c0-0.41-0.08-0.87-0.31-1.42h2.16c0.52,0.7,0.82,1.5,0.82,2.76c0,1.55-0.64,3.01-2.8,3.01h-4.33v1.24h-2.06l-0.1-0.68
			c-0.14-0.93-0.64-1.22-1.48-1.44l-1.2-0.31v-2.1H17.67z M26.86,960.81v3.34h-9.19v-3.34H26.86z M350.55,69.28h30.17l39.85,100.02
			h-28.74l-7.46-19.37h-39.06l-7.46,19.37H310.7L350.55,69.28z M349.97,23.55v-9.19h3.34v9.19H349.97z M378.52,23.55v-9.19h3.34
			v9.19H378.52z M455.1,303.14c13.97,0,18.58-8.1,18.58-23.34v-55.89h26.99v60.33c0,29.21-19.85,41.6-45.57,41.6
			c-25.72,0-45.41-12.38-45.41-41.6v-60.33h26.83v55.89C436.52,295.04,441.29,303.14,455.1,303.14z M485.38,439.51
			c-13.16,0-18.42,10.52-18.42,26.55v52.38h-38.75V367.75h38.75v60.04c5.74-11.72,18.42-18.9,34.44-18.9
			c29.18,0,38.51,20.33,38.51,42.58v66.98h-38.75v-56.69C501.17,447.17,497.1,439.51,485.38,439.51z M488.51,593.82l-1.36-0.21
			c-2.23-0.35-3.4-1.07-3.4-2.95c0-1.81,1.59-3.11,4.16-3.11c2.66,0,4.23,1.18,4.41,3.09l-2.74,0.08c-0.12-0.66-0.7-1.07-1.73-1.07
			c-0.64,0-1.01,0.25-1.01,0.66c0,0.31,0.25,0.47,0.56,0.52l1.79,0.31c2.06,0.33,3.26,1.26,3.26,3.05c0,1.94-1.65,3.05-4.27,3.05
			c-2.54,0-4.43-1.01-4.62-3.24l2.91-0.04c0.12,0.76,0.74,1.2,1.75,1.2c0.74,0,1.13-0.27,1.13-0.64
			C489.36,594.17,489.15,593.92,488.51,593.82z M476.19,597.24c-2.51,0-3.28-1.73-3.28-3.65v-5.79h3.34v4.91
			c0,1.24,0.35,1.92,1.36,1.92c1.05,0,1.46-0.91,1.46-2.31v-4.51h3.34v9.19h-3.34v-1.38C478.58,596.64,477.57,597.24,476.19,597.24z
			 M470.71,587.55c0.56,0,1.05,0.17,1.28,0.35l-0.21,3.15c-0.45-0.27-0.95-0.39-1.59-0.39c-1.24,0-2,0.58-2,2.12v4.21h-3.34v-9.19
			h3.34v1.63C468.52,588.4,469.49,587.55,470.71,587.55z M459.68,586.93v-2.93h3.38v2.93H459.68z M463.04,587.8v9.19h-3.34v-9.19
			H463.04z M458.8,584.01l-4.99,12.99h-3.69l-4.99-12.99h3.67l3.22,8.64h0.08l3.22-8.64H458.8z M443.33,596.99h-3.73l-0.97-2.51
			h-5.07l-0.97,2.51h-3.52l5.17-12.99h3.92L443.33,596.99z M422.96,593.82l-1.36-0.21c-2.23-0.35-3.4-1.07-3.4-2.95
			c0-1.81,1.59-3.11,4.16-3.11c2.66,0,4.23,1.18,4.41,3.09l-2.74,0.08c-0.12-0.66-0.7-1.07-1.73-1.07c-0.64,0-1.01,0.25-1.01,0.66
			c0,0.31,0.25,0.47,0.56,0.52l1.79,0.31c2.06,0.33,3.26,1.26,3.26,3.05c0,1.94-1.65,3.05-4.27,3.05c-2.54,0-4.43-1.01-4.62-3.24
			l2.91-0.04c0.12,0.76,0.74,1.2,1.75,1.2c0.74,0,1.13-0.27,1.13-0.64C423.8,594.17,423.6,593.92,422.96,593.82z M405.11,590.19
			c-1.11,0-1.48,0.91-1.48,2.29v4.51h-3.34v-4.89c0-1.26-0.25-1.92-1.26-1.92c-1.09,0-1.48,0.91-1.48,2.29v4.51h-3.34v-9.19h3.34
			v1.38c0.5-1.01,1.48-1.63,2.87-1.63c1.63,0,2.47,0.74,2.87,1.81c0.49-1.03,1.59-1.81,3.13-1.81c2.54,0,3.28,1.75,3.28,3.67v5.77
			h-3.34v-4.89C406.34,590.85,406.12,590.19,405.11,590.19z M381.33,521.32c-17.94,0-34.92-7.42-34.92-32.53v-50.23h-14.35v-23.92
			l7.89-1.2c10.76-1.67,14.11-7.42,16.74-17.22l3.59-13.87h24.4v29.42h27.75v26.79h-27.75v38.99c0,9.09,4.3,12.68,12.2,12.68
			c4.78,0,10.05-0.96,16.5-3.59v25.12C405.25,517.73,395.93,521.32,381.33,521.32z M388.99,593.82l-1.36-0.21
			c-2.23-0.35-3.4-1.07-3.4-2.95c0-1.81,1.59-3.11,4.16-3.11c2.66,0,4.23,1.18,4.41,3.09l-2.74,0.08c-0.12-0.66-0.7-1.07-1.73-1.07
			c-0.64,0-1.01,0.25-1.01,0.66c0,0.31,0.25,0.47,0.56,0.52l1.79,0.31c2.06,0.33,3.26,1.26,3.26,3.05c0,1.94-1.65,3.05-4.27,3.05
			c-2.54,0-4.43-1.01-4.62-3.24l2.91-0.04c0.12,0.76,0.74,1.2,1.75,1.2c0.74,0,1.13-0.27,1.13-0.64
			C389.83,594.17,389.63,593.92,388.99,593.82z M379.53,586.93v-2.93h3.38v2.93H379.53z M382.89,587.8v9.19h-3.34v-9.19H382.89z
			 M377.73,584.01v12.99h-3.34v-12.99H377.73z M367.7,590.03c-0.74,0-1.11,0.47-1.26,1.15l-3.09-0.21c0.29-2.02,1.79-3.42,4.56-3.42
			c2.43,0,4.23,1.05,4.23,3.61v3.13c0,0.47,0.21,0.68,0.56,0.68c0.27,0,0.47-0.04,0.74-0.14v1.77c-0.47,0.33-1.13,0.6-2.08,0.6
			c-1.13,0-2.02-0.58-2.33-1.63c-0.54,1.07-1.59,1.63-3.05,1.63c-1.79,0-2.97-0.93-2.97-2.49c0-1.77,1.28-2.54,3.28-2.89l2.58-0.43
			v-0.14C368.85,590.48,368.5,590.03,367.7,590.03z M355.25,590.11v-2.06l0.68-0.1c0.93-0.14,1.22-0.64,1.44-1.48l0.31-1.2h2.1v2.54
			h2.39v2.31h-2.39v3.36c0,0.78,0.37,1.09,1.05,1.09c0.41,0,0.87-0.08,1.42-0.31v2.16c-0.7,0.52-1.5,0.82-2.76,0.82
			c-1.55,0-3.01-0.64-3.01-2.8v-4.33H355.25z M350.98,586.93v-2.93h3.38v2.93H350.98z M354.34,587.8v9.19H351v-9.19H354.34z
			 M345.6,587.55c2.7,0,4.08,2.14,4.08,4.84c0,2.72-1.38,4.84-4.08,4.84c-1.55,0-2.58-0.74-3.03-1.81v4.86h-3.34V587.8h3.34v1.59
			C343.03,588.29,344.06,587.55,345.6,587.55z M332.54,590.03c-0.74,0-1.11,0.47-1.26,1.15l-3.09-0.21
			c0.29-2.02,1.79-3.42,4.56-3.42c2.43,0,4.23,1.05,4.23,3.61v3.13c0,0.47,0.21,0.68,0.56,0.68c0.27,0,0.47-0.04,0.74-0.14v1.77
			c-0.47,0.33-1.13,0.6-2.08,0.6c-1.13,0-2.02-0.58-2.33-1.63c-0.54,1.07-1.59,1.63-3.05,1.63c-1.79,0-2.97-0.93-2.97-2.49
			c0-1.77,1.28-2.54,3.28-2.89l2.58-0.43v-0.14C333.69,590.48,333.34,590.03,332.54,590.03z M413.27,584.01h3.5v12.99h-3.5V584.01z
			 M347.62,222.01c29.05,0,51.92,21.12,51.92,51.92s-22.86,51.92-51.92,51.92c-29.05,0-51.92-21.12-51.92-51.92
			S318.56,222.01,347.62,222.01z M327.28,465.11c0,33.25-23.68,56.21-58.36,56.21c-34.92,0-58.36-22.96-58.36-56.21
			c0-33.01,23.44-56.21,58.36-56.21C303.59,408.89,327.28,432.1,327.28,465.11z M320.73,594.13c2.02,0,2.8-1.34,3.01-2.78l3.36,0.14
			c-0.25,3.24-2.37,5.75-6.35,5.75c-3.79,0-6.66-2.74-6.66-6.74c0-4,2.87-6.74,6.66-6.74c3.98,0,6.1,2.54,6.35,5.77l-3.36,0.12
			c-0.21-1.44-0.99-2.78-3.01-2.78c-1.92,0-3.03,1.42-3.03,3.63C317.7,592.71,318.81,594.13,320.73,594.13z M310.64,591.51
			l-0.43,2.06h-2.04l-0.8,3.42h-2.49l0.8-3.42h-1.77l-0.8,3.42h-2.49l0.8-3.42h-1.81l0.43-2.06h1.88l0.49-2.02h-1.98l0.43-2.06h2.02
			l0.82-3.42h2.49l-0.83,3.42h1.77l0.82-3.42h2.49l-0.82,3.42h1.83l-0.43,2.06h-1.88l-0.49,2.02H310.64z M761.72,852.8
			c0-1.79,0.93-2.97,2.49-2.97c1.77,0,2.54,1.28,2.89,3.28l0.43,2.58h0.14c0.76,0,1.22-0.35,1.22-1.15c0-0.74-0.47-1.11-1.15-1.26
			l0.21-3.09c2.02,0.29,3.42,1.79,3.42,4.56c0,2.43-1.05,4.23-3.61,4.23h-3.13c-0.47,0-0.68,0.21-0.68,0.56
			c0,0.27,0.04,0.47,0.14,0.74h-1.77c-0.33-0.47-0.6-1.13-0.6-2.08c0-1.13,0.58-2.02,1.63-2.33
			C762.28,855.32,761.72,854.27,761.72,852.8z M764.09,895.43h-1.77c-0.33-0.47-0.6-1.13-0.6-2.08c0-1.13,0.58-2.02,1.63-2.33
			c-1.07-0.54-1.63-1.59-1.63-3.05c0-1.79,0.93-2.97,2.49-2.97c1.77,0,2.54,1.28,2.89,3.28l0.43,2.58h0.14
			c0.76,0,1.22-0.35,1.22-1.15c0-0.74-0.47-1.11-1.15-1.26l0.21-3.09c2.02,0.29,3.42,1.79,3.42,4.56c0,2.43-1.05,4.23-3.61,4.23
			h-3.13c-0.47,0-0.68,0.21-0.68,0.56C763.95,894.95,763.99,895.16,764.09,895.43z M771.37,928.4c0,2.54-1.75,3.28-3.67,3.28h-5.77
			v-3.34h4.89c1.26,0,1.92-0.23,1.92-1.24c0-1.11-0.91-1.48-2.29-1.48h-4.51v-3.34h4.89c1.26,0,1.92-0.25,1.92-1.26
			c0-1.09-0.91-1.48-2.29-1.48h-4.51v-3.34h9.19v3.34h-1.38c1.01,0.5,1.63,1.48,1.63,2.87c0,1.63-0.74,2.47-1.81,2.87
			C770.59,925.77,771.37,926.86,771.37,928.4z M768.28,914.8l-0.08-2.74c0.66-0.12,1.07-0.7,1.07-1.73c0-0.64-0.25-1.01-0.66-1.01
			c-0.31,0-0.47,0.25-0.52,0.56l-0.31,1.79c-0.33,2.06-1.26,3.26-3.05,3.26c-1.94,0-3.05-1.65-3.05-4.27c0-2.54,1.01-4.43,3.24-4.62
			l0.04,2.91c-0.76,0.12-1.2,0.74-1.2,1.75c0,0.74,0.27,1.13,0.64,1.13c0.35,0,0.6-0.21,0.7-0.85l0.21-1.36
			c0.35-2.23,1.07-3.4,2.95-3.4c1.81,0,3.11,1.59,3.11,4.16C771.37,913.05,770.2,914.62,768.28,914.8z M764.4,945.8
			c0.35,0,0.6-0.21,0.7-0.85l0.21-1.36c0.35-2.23,1.07-3.4,2.95-3.4c1.81,0,3.11,1.59,3.11,4.16c0,2.66-1.17,4.23-3.09,4.41
			l-0.08-2.74c0.66-0.12,1.07-0.7,1.07-1.73c0-0.64-0.25-1.01-0.66-1.01c-0.31,0-0.47,0.25-0.52,0.56l-0.31,1.79
			c-0.33,2.06-1.26,3.26-3.05,3.26c-1.94,0-3.05-1.65-3.05-4.27c0-2.54,1.01-4.43,3.24-4.62l0.04,2.91c-0.76,0.12-1.2,0.74-1.2,1.75
			C763.76,945.41,764.03,945.8,764.4,945.8z M761.93,981.7h9.19v3.34h-9.19V981.7z M766.61,1001.07h4.51v3.34h-9.19v-3.34h1.38
			c-1.03-0.49-1.63-1.5-1.63-2.89c0-2.51,1.73-3.28,3.65-3.28h5.79v3.34h-4.91c-1.24,0-1.92,0.35-1.92,1.36
			C764.3,1000.66,765.21,1001.07,766.61,1001.07z M771.12,904.89h-9.19v-3.34h9.19V904.89z M771.12,881.78v2.39h-2.31v-2.39h-3.36
			c-0.78,0-1.09,0.37-1.09,1.05c0,0.41,0.08,0.87,0.31,1.42h-2.16c-0.52-0.7-0.82-1.5-0.82-2.76c0-1.55,0.64-3.01,2.8-3.01h4.33
			v-1.24h2.06l0.1,0.68c0.14,0.93,0.64,1.22,1.48,1.44l1.2,0.31v2.1H771.12z M761.93,876.34V873h9.19v3.34H761.93z M771.12,861.23
			v3.34h-1.59c1.09,0.45,1.83,1.48,1.83,3.03c0,2.7-2.14,4.08-4.84,4.08c-2.72,0-4.84-1.38-4.84-4.08c0-1.55,0.74-2.58,1.81-3.03
			h-4.86v-3.34H771.12z M768.28,1014.33l-0.08-2.74c0.66-0.12,1.07-0.7,1.07-1.73c0-0.64-0.25-1.01-0.66-1.01
			c-0.31,0-0.47,0.25-0.52,0.56l-0.31,1.79c-0.33,2.06-1.26,3.26-3.05,3.26c-1.94,0-3.05-1.65-3.05-4.27c0-2.54,1.01-4.43,3.24-4.62
			l0.04,2.91c-0.76,0.12-1.2,0.74-1.2,1.75c0,0.74,0.27,1.13,0.64,1.13c0.35,0,0.6-0.21,0.7-0.85l0.21-1.36
			c0.35-2.23,1.07-3.4,2.95-3.4c1.81,0,3.11,1.59,3.11,4.16C771.37,1012.58,770.2,1014.14,768.28,1014.33z M771.02,993.99
			l-3.15-0.21c0.27-0.45,0.39-0.95,0.39-1.59c0-1.24-0.58-2-2.12-2h-4.21v-3.34h9.19v3.34h-1.63c1.03,0.33,1.88,1.3,1.88,2.52
			C771.37,993.26,771.21,993.76,771.02,993.99z M774.92,985.06h-2.93v-3.38h2.93V985.06z M774.92,970.8l-8.64,3.22v0.08l8.64,3.22
			v3.48l-12.99-4.99v-3.69l12.99-4.99V970.8z M774.92,960.16l-12.99,5.17v-3.73l2.51-0.97v-5.07l-2.51-0.97v-3.52l12.99,5.17V960.16
			z M774.92,938.78h-12.99v-3.5h12.99V938.78z M774.92,904.91h-2.93v-3.38h2.93V904.91z M774.92,899.73h-12.99v-3.34h12.99V899.73z
			 M774.92,876.36h-2.93v-3.38h2.93V876.36z M769.39,849.1l-0.12-3.36c1.44-0.21,2.78-0.99,2.78-3.01c0-1.92-1.42-3.03-3.63-3.03
			s-3.63,1.11-3.63,3.03c0,2.02,1.34,2.8,2.78,3.01l-0.14,3.36c-3.24-0.25-5.75-2.37-5.75-6.35c0-3.79,2.74-6.66,6.74-6.66
			s6.74,2.87,6.74,6.66C775.16,846.73,772.63,848.85,769.39,849.1z M765.35,821.59l2.06,0.43v1.88l2.02,0.49v-1.98l2.06,0.43v2.02
			l3.42,0.82v2.49l-3.42-0.83v1.77l3.42,0.82v2.49l-3.42-0.82v1.83l-2.06-0.43v-1.88l-2.02-0.49v1.98l-2.06-0.43v-2.04l-3.42-0.8
			v-2.49l3.42,0.8v-1.77l-3.42-0.8v-2.49l3.42,0.8V821.59z M682.48,411.76h38.75v18.9c3.83-11.96,15.07-21.77,29.18-21.77
			c6.46,0,12.2,1.91,14.83,4.07l-2.39,36.6c-5.26-3.11-11-4.54-18.42-4.54c-14.35,0-23.2,6.7-23.2,24.64v48.8h-38.75V411.76z
			 M706.12,1189c2.59,3.58,1.79,8.58-1.78,11.17c-1.42,1.03-3.06,1.52-4.69,1.52c-2.48,0-4.92-1.15-6.48-3.31
			c-4.46-6.16-9.31-12.99-14.36-20.18c-8.08-11.51-16.68-23.96-25.11-36.17c-18.81-27.23-38.25-55.38-50.22-70.61
			c-1.27-1.62-1.87-3.67-1.67-5.73c7.25-73.75-4.06-124.89-12.33-162.23c-1.29-5.82-2.51-11.32-3.59-16.6
			c-6.93-33.74-27.17-76.96-45.02-115.09c-2.67-5.7-5.3-11.31-7.84-16.8c-5.19-11.2-11.62-14.41-22.96-11.44
			c-7.97,2.09-20.96,28.97-17.1,58.8c3.65,28.22,19.93,54.94,20.1,55.2c1.22,1.98,1.52,4.39,0.82,6.61
			c-0.17,0.55-17.29,56.5,3.3,108.29c0.37,0.94,0.57,1.94,0.57,2.96v77.15c0,1.79-0.59,3.43-1.59,4.77l1.59,1.18v22.97
			c0,20.33-16.54,36.87-36.87,36.87h-87.99c18.71,12.94,40.61,26.14,65.41,37.84c1.35,0.64,2.49,1.64,3.3,2.89
			c3.94,6.09,7.69,14.68,11.66,23.78c3,6.86,6.09,13.96,9.1,19.45c2.12,3.88,0.7,8.74-3.17,10.86c-1.22,0.67-2.54,0.98-3.84,0.98
			c-2.83,0-5.57-1.5-7.02-4.16c-3.35-6.12-6.59-13.55-9.73-20.73c-3.13-7.17-6.36-14.56-9.29-19.63
			c-33.48-16.01-61.59-34.37-83.85-51.28h-61.1c-20.33,0-36.87-16.54-36.87-36.87v-39.14c-5.44-3.86-11.57-8.36-20.71-15.32
			c-0.01-0.01-0.03-0.02-0.04-0.03c-8.14-6.26-13.48-15.53-14.67-25.43c-1.12-9.34,1.44-18.44,7.2-25.62
			c4.81-5.99,11.31-9.96,18.39-11.82c-3.89-3.1-8.86-7.17-16.17-13.29c-0.01-0.01-0.02-0.02-0.04-0.03
			c-8.98-7.6-14.61-18.49-15.44-29.86c-0.78-10.71,2.61-20.95,9.56-28.83c6.05-6.86,14.09-11.13,22.67-12.72
			c-4.03-3.45-9.26-8.04-18.91-16.51c-0.01-0.01-0.02-0.02-0.04-0.03c-8.92-7.92-14.35-19.09-14.91-30.64
			c-0.53-10.87,3.16-21.16,10.39-28.97c6.32-6.83,14.6-10.95,23.36-12.35c-3.68-3.33-8.22-7.5-14.61-13.36
			c-0.01-0.01-0.02-0.02-0.03-0.03c-8.29-7.7-13.22-18.4-13.51-29.37c-0.28-10.34,3.44-20.03,10.47-27.3
			c7.27-7.51,17.05-11.38,27.04-11.6v-27.7c0-20.33,16.54-36.87,36.87-36.87h176.52c20.33,0,36.87,16.54,36.87,36.87v45.02
			c13.07,0.22,23.25,7.58,29.79,21.72c2.53,5.46,5.15,11.06,7.81,16.73c18.23,38.93,38.89,83.06,46.2,118.66
			c1.06,5.16,2.26,10.6,3.54,16.36c8.38,37.85,19.81,89.5,12.93,164.07c12.25,15.91,30.05,41.67,48.83,68.86
			C680.51,1152.71,694.63,1173.15,706.12,1189z M666.69,462.24V473h-74.87c0.96,13.16,10.52,19.38,22.25,19.38
			c10.52,0,17.22-3.59,20.81-11.96l31.1,2.87c-5.5,24.4-25.12,38.03-53.34,38.03c-34.21,0-58.6-20.57-58.6-54.54
			c0-33.73,24.88-57.88,58.12-57.88C647.79,408.89,666.69,433.29,666.69,462.24z M592.82,147.08v22.23H516.3V69.28h26.99v77.8
			H592.82z M523.04,21.53c0-0.89,0.58-1.57,1.57-1.94c-0.82-0.54-1.32-1.32-1.32-2.33c0-1.96,1.86-3.15,4.43-3.15
			c1.11,0,2.16,0.27,2.95,0.74c0.56-0.76,1.57-1.42,2.58-1.42v2.51c-0.39,0-0.89,0.04-1.34,0.14c0.19,0.35,0.29,0.74,0.29,1.17
			c0,1.94-1.88,3.13-4.47,3.13c-0.74,0-1.4-0.08-2-0.27c-0.12,0.1-0.19,0.25-0.19,0.43c0,0.31,0.23,0.56,0.78,0.56h3.81
			c2.08,0,3.13,1.09,3.13,2.64c0,2.29-2.78,3.34-5.77,3.34c-2.62,0-4.89-0.52-4.89-2.25c0-0.8,0.72-1.44,1.75-1.53
			C523.53,23.06,523.04,22.32,523.04,21.53z M515.45,14.36h3.34v1.63c0.33-1.03,1.3-1.88,2.52-1.88c0.56,0,1.05,0.16,1.28,0.35
			l-0.21,3.15c-0.45-0.27-0.95-0.39-1.59-0.39c-1.24,0-2,0.58-2,2.12v4.21h-3.34V14.36z M515.11,223.91h50.49
			c25.88,0,38.74,12.22,38.74,31.75c0,14.61-9.05,24.13-21.27,25.72c10.32,2.06,16.35,7.94,17.46,19.53
			c1.43,14.92,1.9,19.37,5.24,23.02h-27.31c-2.06-2.7-3.33-8.89-4.13-19.21c-0.79-11.43-5.72-13.97-14.77-13.97h-17.94v33.18h-26.51
			V223.91z M509.1,14.11c2.99,0,5.03,2,5.03,4.84c0,2.87-2.04,4.84-5.03,4.84c-3.01,0-5.03-1.98-5.03-4.84
			C504.07,16.11,506.09,14.11,509.1,14.11z M497.64,20.01h3.55v3.55h-3.55V20.01z M490.86,20.38l-1.36-0.21
			c-2.23-0.35-3.4-1.07-3.4-2.95c0-1.81,1.59-3.11,4.16-3.11c2.66,0,4.23,1.18,4.41,3.09l-2.74,0.08c-0.12-0.66-0.7-1.07-1.73-1.07
			c-0.64,0-1.01,0.25-1.01,0.66c0,0.31,0.25,0.47,0.56,0.52l1.79,0.31c2.06,0.33,3.26,1.26,3.26,3.05c0,1.94-1.65,3.05-4.27,3.05
			c-2.54,0-4.43-1.01-4.62-3.24l2.91-0.04c0.12,0.76,0.74,1.2,1.75,1.2c0.74,0,1.13-0.27,1.13-0.64
			C491.71,20.73,491.5,20.48,490.86,20.38z M475.26,14.36h3.34v4.91c0,1.24,0.35,1.92,1.36,1.92c1.05,0,1.46-0.91,1.46-2.31v-4.51
			h3.34v9.19h-3.34v-1.38c-0.49,1.03-1.5,1.63-2.89,1.63c-2.52,0-3.28-1.73-3.28-3.65V14.36z M467.2,14.36h3.34v1.63
			c0.33-1.03,1.3-1.88,2.52-1.88c0.56,0,1.05,0.16,1.28,0.35l-0.21,3.15c-0.45-0.27-0.95-0.39-1.59-0.39c-1.24,0-2,0.58-2,2.12v4.21
			h-3.34V14.36z M462.03,10.57h3.38v2.93h-3.38V10.57z M465.39,14.36v9.19h-3.34v-9.19H465.39z M451.15,10.57l3.22,8.64h0.08
			l3.22-8.64h3.48l-4.99,12.99h-3.69l-4.99-12.99H451.15z M436.54,10.57h3.92l5.17,12.99h-3.73l-0.97-2.52h-5.07l-0.97,2.52h-3.52
			L436.54,10.57z M428.19,69.28h26.99v77.8h49.54v22.23h-76.53V69.28z M423.59,20.38l-1.36-0.21c-2.23-0.35-3.4-1.07-3.4-2.95
			c0-1.81,1.59-3.11,4.16-3.11c2.66,0,4.23,1.18,4.41,3.09l-2.74,0.08c-0.12-0.66-0.7-1.07-1.73-1.07c-0.64,0-1.01,0.25-1.01,0.66
			c0,0.31,0.25,0.47,0.56,0.52l1.79,0.31c2.06,0.33,3.26,1.26,3.26,3.05c0,1.94-1.65,3.05-4.27,3.05c-2.54,0-4.43-1.01-4.62-3.24
			l2.91-0.04c0.12,0.76,0.74,1.2,1.75,1.2c0.74,0,1.13-0.27,1.13-0.64C424.44,20.73,424.23,20.48,423.59,20.38z M413.91,10.57h3.5
			v12.99h-3.5V10.57z M393.17,14.36h3.34v1.38c0.49-1.01,1.48-1.63,2.87-1.63c1.63,0,2.47,0.74,2.87,1.81
			c0.49-1.03,1.59-1.81,3.13-1.81c2.54,0,3.28,1.75,3.28,3.67v5.77h-3.34v-4.89c0-1.26-0.23-1.92-1.24-1.92
			c-1.11,0-1.48,0.91-1.48,2.29v4.51h-3.34v-4.89c0-1.26-0.25-1.92-1.26-1.92c-1.09,0-1.48,0.91-1.48,2.29v4.51h-3.34V14.36z
			 M387.96,20.38l-1.36-0.21c-2.23-0.35-3.4-1.07-3.4-2.95c0-1.81,1.59-3.11,4.16-3.11c2.66,0,4.23,1.18,4.41,3.09l-2.74,0.08
			c-0.12-0.66-0.7-1.07-1.73-1.07c-0.64,0-1.01,0.25-1.01,0.66c0,0.31,0.25,0.47,0.56,0.52l1.79,0.31c2.06,0.33,3.26,1.26,3.26,3.05
			c0,1.94-1.65,3.05-4.27,3.05c-2.54,0-4.43-1.01-4.62-3.24l2.91-0.04c0.12,0.76,0.74,1.2,1.75,1.2c0.74,0,1.13-0.27,1.13-0.64
			C388.8,20.73,388.6,20.48,387.96,20.38z M378.5,10.57h3.38v2.93h-3.38V10.57z M373.37,10.57h3.34v12.99h-3.34V10.57z
			 M366.67,16.59c-0.74,0-1.11,0.47-1.26,1.15l-3.09-0.21c0.29-2.02,1.79-3.42,4.56-3.42c2.43,0,4.23,1.05,4.23,3.61v3.13
			c0,0.47,0.21,0.68,0.56,0.68c0.27,0,0.47-0.04,0.74-0.14v1.77c-0.47,0.33-1.13,0.6-2.08,0.6c-1.13,0-2.02-0.58-2.33-1.63
			c-0.54,1.07-1.59,1.63-3.05,1.63c-1.79,0-2.97-0.93-2.97-2.49c0-1.77,1.28-2.54,3.28-2.89l2.58-0.43V17.8
			C367.82,17.04,367.47,16.59,366.67,16.59z M354.22,14.61l0.68-0.1c0.93-0.14,1.22-0.64,1.44-1.48l0.31-1.2h2.1v2.54h2.39v2.31
			h-2.39v3.36c0,0.78,0.37,1.09,1.05,1.09c0.41,0,0.87-0.08,1.42-0.31v2.16c-0.7,0.52-1.5,0.82-2.76,0.82
			c-1.55,0-3.01-0.64-3.01-2.8v-4.33h-1.24V14.61z M349.95,10.57h3.38v2.93h-3.38V10.57z M338.2,14.36h3.34v1.59
			c0.45-1.09,1.48-1.83,3.03-1.83c2.7,0,4.08,2.14,4.08,4.84c0,2.72-1.38,4.84-4.08,4.84c-1.55,0-2.58-0.74-3.03-1.81v4.87h-3.34
			V14.36z M331.51,16.59c-0.74,0-1.11,0.47-1.26,1.15l-3.09-0.21c0.29-2.02,1.79-3.42,4.56-3.42c2.43,0,4.23,1.05,4.23,3.61v3.13
			c0,0.47,0.21,0.68,0.56,0.68c0.27,0,0.47-0.04,0.74-0.14v1.77c-0.47,0.33-1.13,0.6-2.08,0.6c-1.13,0-2.02-0.58-2.33-1.63
			c-0.54,1.07-1.59,1.63-3.05,1.63c-1.79,0-2.97-0.93-2.97-2.49c0-1.77,1.28-2.54,3.28-2.89l2.58-0.43V17.8
			C332.66,17.04,332.31,16.59,331.51,16.59z M319.72,10.32c3.98,0,6.1,2.54,6.35,5.77l-3.36,0.12c-0.21-1.44-0.99-2.78-3.01-2.78
			c-1.92,0-3.03,1.42-3.03,3.63s1.11,3.63,3.03,3.63c2.02,0,2.8-1.34,3.01-2.78l3.36,0.14c-0.25,3.24-2.37,5.75-6.35,5.75
			c-3.79,0-6.66-2.74-6.66-6.74S315.92,10.32,319.72,10.32z M306.63,20.01h3.55v3.55h-3.55V20.01z M262.3,14.36l1.65,5.22h0.08
			l1.34-5.22h2.66l1.34,5.22h0.08l1.65-5.22h2.92h0.09h3.23l1.65,5.22h0.08l1.34-5.22h2.66l1.34,5.22h0.08l1.65-5.22h2.92h0.09h3.23
			l1.65,5.22h0.08l1.34-5.22h2.66l1.34,5.22h0.08l1.65-5.22h3.01l-2.91,9.19h-3.28l-1.34-5.19h-0.08l-1.34,5.19h-3.28l-2.86-9.06
			l-2.86,9.06h-3.28l-1.34-5.19h-0.08l-1.34,5.19h-3.28l-2.86-9.06l-2.86,9.06h-3.28l-1.34-5.19h-0.08l-1.34,5.19h-3.28l-2.91-9.19
			H262.3z M263.71,67.38c30.64,0,47,19.53,48.9,44.46l-25.88,0.95c-1.59-11.11-7.62-21.43-23.18-21.43
			c-14.77,0-23.34,10.96-23.34,27.94s8.57,27.94,23.34,27.94c15.56,0,21.59-10.32,23.18-21.43l25.88,1.11
			c-1.91,24.93-18.26,44.3-48.9,44.3c-29.21,0-51.28-21.12-51.28-51.92S234.5,67.38,263.71,67.38z M227.43,223.91l22.54,36.04
			l21.43-36.04h29.05l-38.42,62.08v37.95h-26.2v-37.95l-38.42-62.08H227.43z M25.65,367.75h62.91l22.25,94.72h0.72l21.29-94.72
			h61.47v150.69h-40.66V412.48h-0.96l-27.03,105.96H90.95L63.92,412.48h-0.96v105.96H25.65V367.75z M19.25,780.88
			c0,0.39,0.04,0.89,0.14,1.34c0.35-0.19,0.74-0.29,1.18-0.29c1.94,0,3.13,1.88,3.13,4.47c0,0.74-0.08,1.4-0.27,2
			c0.1,0.12,0.25,0.19,0.43,0.19c0.31,0,0.56-0.23,0.56-0.78v-3.81c0-2.08,1.09-3.13,2.64-3.13c2.29,0,3.34,2.78,3.34,5.77
			c0,2.62-0.52,4.89-2.25,4.89c-0.8,0-1.44-0.72-1.53-1.75c-0.27,0.82-1.01,1.32-1.79,1.32c-0.89,0-1.57-0.58-1.94-1.57
			c-0.54,0.82-1.32,1.32-2.33,1.32c-1.96,0-3.15-1.86-3.15-4.43c0-1.11,0.27-2.16,0.74-2.95c-0.76-0.56-1.42-1.57-1.42-2.58H19.25z
			 M13.87,848.71h2.93v3.38h-2.93V848.71z M13.87,862.97l8.64-3.22v-0.08l-8.64-3.22v-3.48l12.99,4.99v3.69l-12.99,4.99V862.97z
			 M13.87,873.67l12.99-5.17v3.73l-2.51,0.97v5.07l2.51,0.97v3.52l-12.99-5.17V873.67z M13.87,896.71h12.99v3.5H13.87V896.71z
			 M13.87,932.24h2.93v3.38h-2.93V932.24z M13.87,937.41h12.99v3.34H13.87V937.41z M13.87,960.79h2.93v3.38h-2.93V960.79z
			 M19.4,988.05l0.12,3.36c-1.44,0.21-2.78,0.99-2.78,3.01c0,1.92,1.42,3.03,3.63,3.03s3.63-1.11,3.63-3.03
			c0-2.02-1.34-2.8-2.78-3.01l0.14-3.36c3.24,0.25,5.75,2.37,5.75,6.35c0,3.79-2.74,6.66-6.74,6.66s-6.74-2.87-6.74-6.66
			C13.63,990.42,16.16,988.3,19.4,988.05z"/>
		<path class="st5" d="M331.05,594.27c0,0.47,0.37,0.78,0.93,0.78c0.95,0,1.71-0.7,1.71-1.9v-0.14l-1.36,0.25
			C331.53,593.43,331.05,593.67,331.05,594.27z"/>
		<path d="M263.71,171.21c30.64,0,47-19.37,48.9-44.3l-25.88-1.11c-1.59,11.11-7.62,21.43-23.18,21.43
			c-14.77,0-23.34-10.96-23.34-27.94s8.57-27.94,23.34-27.94c15.56,0,21.59,10.32,23.18,21.43l25.88-0.95
			c-1.91-24.93-18.26-44.46-48.9-44.46c-29.21,0-51.28,21.12-51.28,51.92S234.5,171.21,263.71,171.21z"/>
		<path d="M337.85,169.3l7.46-19.37h39.06l7.46,19.37h28.74L380.72,69.28h-30.17L310.7,169.3H337.85z M364.53,100.24h0.64
			l11.43,29.53h-23.5L364.53,100.24z"/>
		<polygon points="504.71,147.08 455.18,147.08 455.18,69.28 428.19,69.28 428.19,169.3 504.71,169.3 		"/>
		<polygon points="516.3,69.28 516.3,169.3 592.82,169.3 592.82,147.08 543.29,147.08 543.29,69.28 		"/>
		<polygon points="235.85,323.93 262.05,323.93 262.05,285.99 300.47,223.91 271.41,223.91 249.98,259.95 227.43,223.91 
			197.43,223.91 235.85,285.99 		"/>
		<path d="M347.62,325.84c29.05,0,51.92-21.12,51.92-51.92s-22.86-51.92-51.92-51.92c-29.05,0-51.92,21.12-51.92,51.92
			S318.56,325.84,347.62,325.84z M347.62,245.82c14.77,0,24.13,11.11,24.13,28.1s-9.37,28.1-24.13,28.1
			c-14.76,0-24.13-11.11-24.13-28.1S332.85,245.82,347.62,245.82z"/>
		<path d="M409.69,223.91v60.33c0,29.21,19.69,41.6,45.41,41.6c25.72,0,45.57-12.38,45.57-41.6v-60.33h-26.99v55.89
			c0,15.24-4.6,23.34-18.58,23.34c-13.81,0-18.58-8.1-18.58-23.34v-55.89H409.69z"/>
		<path d="M541.62,290.75h17.94c9.05,0,13.97,2.54,14.77,13.97c0.79,10.32,2.06,16.51,4.13,19.21h27.31
			c-3.33-3.65-3.81-8.1-5.24-23.02c-1.11-11.59-7.14-17.46-17.46-19.53c12.22-1.59,21.27-11.11,21.27-25.72
			c0-19.53-12.86-31.75-38.74-31.75h-50.49v100.02h26.51V290.75z M541.62,245.5h19.21c11.43,0,17.15,4.29,17.15,12.38
			c0,9.21-5.71,12.07-17.15,12.07h-19.21V245.5z"/>
		<polygon points="62.96,412.48 63.92,412.48 90.95,518.45 125.63,518.45 152.66,412.48 153.62,412.48 153.62,518.45 194.28,518.45 
			194.28,367.75 132.81,367.75 111.52,462.47 110.8,462.47 88.56,367.75 25.65,367.75 25.65,518.45 62.96,518.45 		"/>
		<path d="M210.55,465.11c0,33.25,23.44,56.21,58.36,56.21c34.68,0,58.36-22.96,58.36-56.21c0-33.01-23.68-56.21-58.36-56.21
			C233.99,408.89,210.55,432.1,210.55,465.11z M288.29,465.11c0,16.03-5.98,27.03-19.38,27.03c-13.63,0-19.38-11-19.38-27.03
			s5.74-27.03,19.38-27.03C282.31,438.08,288.29,449.08,288.29,465.11z"/>
		<path d="M413.39,486.63c-6.46,2.63-11.72,3.59-16.5,3.59c-7.89,0-12.2-3.59-12.2-12.68v-38.99h27.75v-26.79h-27.75v-29.42h-24.4
			l-3.59,13.87c-2.63,9.81-5.98,15.55-16.74,17.22l-7.89,1.2v23.92h14.35v50.23c0,25.12,16.98,32.53,34.92,32.53
			c14.59,0,23.92-3.59,32.05-9.57V486.63z"/>
		<path d="M539.92,518.45v-66.98c0-22.25-9.33-42.58-38.51-42.58c-16.03,0-28.7,7.18-34.44,18.9v-60.04h-38.75v150.69h38.75v-52.38
			c0-16.03,5.26-26.55,18.42-26.55c11.72,0,15.79,7.65,15.79,22.25v56.69H539.92z"/>
		<path d="M554.03,466.78c0,33.97,24.4,54.54,58.6,54.54c28.23,0,47.84-13.63,53.34-38.03l-31.1-2.87
			c-3.59,8.37-10.29,11.96-20.81,11.96c-11.72,0-21.29-6.22-22.25-19.38h74.87v-10.76c0-28.94-18.9-53.34-54.54-53.34
			C578.91,408.89,554.03,433.05,554.03,466.78z M611.68,436.64c11.48,0,17.7,8.13,18.18,17.7H592.3
			C593.74,444.29,599.24,436.64,611.68,436.64z"/>
		<path d="M721.23,469.65c0-17.94,8.85-24.64,23.2-24.64c7.42,0,13.16,1.44,18.42,4.54l2.39-36.6c-2.63-2.15-8.37-4.07-14.83-4.07
			c-14.11,0-25.35,9.81-29.18,21.77v-18.9h-38.75v106.68h38.75V469.65z"/>
		<polygon points="265.16,23.55 266.5,18.36 266.58,18.36 267.92,23.55 271.2,23.55 274.07,14.5 276.93,23.55 280.21,23.55 
			281.55,18.36 281.63,18.36 282.97,23.55 286.25,23.55 289.11,14.5 291.98,23.55 295.25,23.55 296.59,18.36 296.68,18.36 
			298.02,23.55 301.29,23.55 304.2,14.36 301.19,14.36 299.54,19.58 299.46,19.58 298.12,14.36 295.46,14.36 294.12,19.58 
			294.04,19.58 292.39,14.36 289.15,14.36 289.07,14.36 286.15,14.36 284.5,19.58 284.41,19.58 283.07,14.36 280.41,14.36 
			279.07,19.58 278.99,19.58 277.34,14.36 274.11,14.36 274.02,14.36 271.1,14.36 269.45,19.58 269.37,19.58 268.03,14.36 
			265.37,14.36 264.03,19.58 263.95,19.58 262.3,14.36 258.98,14.36 261.88,23.55 		"/>
		<rect x="306.63" y="20.01" width="3.55" height="3.55"/>
		<path d="M319.72,23.8c3.98,0,6.1-2.52,6.35-5.75l-3.36-0.14c-0.21,1.44-0.99,2.78-3.01,2.78c-1.92,0-3.03-1.42-3.03-3.63
			s1.11-3.63,3.03-3.63c2.02,0,2.8,1.34,3.01,2.78l3.36-0.12c-0.25-3.24-2.37-5.77-6.35-5.77c-3.79,0-6.66,2.74-6.66,6.74
			S315.92,23.8,319.72,23.8z"/>
		<path d="M330.08,18.38c-2,0.35-3.28,1.11-3.28,2.89c0,1.57,1.17,2.49,2.97,2.49c1.46,0,2.52-0.56,3.05-1.63
			c0.31,1.05,1.2,1.63,2.33,1.63c0.95,0,1.61-0.27,2.08-0.6v-1.77c-0.27,0.1-0.47,0.14-0.74,0.14c-0.35,0-0.56-0.21-0.56-0.68v-3.13
			c0-2.56-1.79-3.61-4.23-3.61c-2.76,0-4.27,1.4-4.56,3.42l3.09,0.21c0.14-0.68,0.52-1.15,1.26-1.15c0.8,0,1.15,0.45,1.15,1.22v0.14
			L330.08,18.38z M332.66,19.72c0,1.2-0.76,1.9-1.71,1.9c-0.56,0-0.93-0.31-0.93-0.78c0-0.6,0.47-0.85,1.28-1.01l1.36-0.25V19.72z"
			/>
		<path d="M341.54,21.99c0.45,1.07,1.48,1.81,3.03,1.81c2.7,0,4.08-2.12,4.08-4.84c0-2.7-1.38-4.84-4.08-4.84
			c-1.55,0-2.58,0.74-3.03,1.83v-1.59h-3.34v12.49h3.34V21.99z M341.54,18.9c0-1.32,0.72-2.19,1.86-2.19c1.3,0,1.9,0.93,1.9,2.25
			c0,1.34-0.6,2.27-1.9,2.27c-1.13,0-1.86-0.87-1.86-2.21V18.9z"/>
		<rect x="349.95" y="10.57" width="3.38" height="2.93"/>
		<rect x="349.97" y="14.36" width="3.34" height="9.19"/>
		<path d="M355.46,21c0,2.16,1.46,2.8,3.01,2.8c1.26,0,2.06-0.31,2.76-0.82v-2.16c-0.56,0.23-1.01,0.31-1.42,0.31
			c-0.68,0-1.05-0.31-1.05-1.09v-3.36h2.39v-2.31h-2.39v-2.54h-2.1l-0.31,1.2c-0.23,0.85-0.52,1.34-1.44,1.48l-0.68,0.1v2.06h1.24
			V21z"/>
		<path d="M365.25,18.38c-2,0.35-3.28,1.11-3.28,2.89c0,1.57,1.17,2.49,2.97,2.49c1.46,0,2.52-0.56,3.05-1.63
			c0.31,1.05,1.2,1.63,2.33,1.63c0.95,0,1.61-0.27,2.08-0.6v-1.77c-0.27,0.1-0.47,0.14-0.74,0.14c-0.35,0-0.56-0.21-0.56-0.68v-3.13
			c0-2.56-1.79-3.61-4.23-3.61c-2.76,0-4.27,1.4-4.56,3.42l3.09,0.21c0.14-0.68,0.52-1.15,1.26-1.15c0.8,0,1.15,0.45,1.15,1.22v0.14
			L365.25,18.38z M367.82,19.72c0,1.2-0.76,1.9-1.71,1.9c-0.56,0-0.93-0.31-0.93-0.78c0-0.6,0.47-0.85,1.28-1.01l1.36-0.25V19.72z"
			/>
		<rect x="373.37" y="10.57" width="3.34" height="12.99"/>
		<rect x="378.5" y="10.57" width="3.38" height="2.93"/>
		<rect x="378.52" y="14.36" width="3.34" height="9.19"/>
		<path d="M387.67,21.72c-1.01,0-1.63-0.43-1.75-1.2l-2.91,0.04c0.19,2.23,2.08,3.24,4.62,3.24c2.62,0,4.27-1.11,4.27-3.05
			c0-1.79-1.2-2.72-3.26-3.05l-1.79-0.31c-0.31-0.04-0.56-0.21-0.56-0.52c0-0.41,0.37-0.66,1.01-0.66c1.03,0,1.61,0.41,1.73,1.07
			l2.74-0.08c-0.19-1.92-1.75-3.09-4.41-3.09c-2.58,0-4.16,1.3-4.16,3.11c0,1.88,1.17,2.6,3.4,2.95l1.36,0.21
			c0.64,0.1,0.85,0.35,0.85,0.7C388.8,21.45,388.41,21.72,387.67,21.72z"/>
		<path d="M396.51,19.04c0-1.38,0.39-2.29,1.48-2.29c1.01,0,1.26,0.66,1.26,1.92v4.89h3.34v-4.51c0-1.38,0.37-2.29,1.48-2.29
			c1.01,0,1.24,0.66,1.24,1.92v4.89h3.34v-5.77c0-1.92-0.74-3.67-3.28-3.67c-1.55,0-2.64,0.78-3.13,1.81
			c-0.39-1.07-1.24-1.81-2.87-1.81c-1.38,0-2.37,0.62-2.87,1.63v-1.38h-3.34v9.19h3.34V19.04z"/>
		<rect x="413.91" y="10.57" width="3.5" height="12.99"/>
		<path d="M423.3,21.72c-1.01,0-1.63-0.43-1.75-1.2l-2.91,0.04c0.19,2.23,2.08,3.24,4.62,3.24c2.62,0,4.27-1.11,4.27-3.05
			c0-1.79-1.2-2.72-3.26-3.05l-1.79-0.31c-0.31-0.04-0.56-0.21-0.56-0.52c0-0.41,0.37-0.66,1.01-0.66c1.03,0,1.61,0.41,1.73,1.07
			l2.74-0.08c-0.19-1.92-1.75-3.09-4.41-3.09c-2.58,0-4.16,1.3-4.16,3.11c0,1.88,1.18,2.6,3.4,2.95l1.36,0.21
			c0.64,0.1,0.85,0.35,0.85,0.7C424.44,21.45,424.05,21.72,423.3,21.72z"/>
		<path d="M435.86,21.04h5.07l0.97,2.52h3.73l-5.17-12.99h-3.92l-5.17,12.99h3.52L435.86,21.04z M438.35,14.59h0.08l1.48,3.83h-3.05
			L438.35,14.59z"/>
		<polygon points="456.16,23.55 461.15,10.57 457.66,10.57 454.45,19.2 454.36,19.2 451.15,10.57 447.48,10.57 452.47,23.55 		"/>
		<rect x="462.03" y="10.57" width="3.38" height="2.93"/>
		<rect x="462.05" y="14.36" width="3.34" height="9.19"/>
		<path d="M470.54,19.35c0-1.55,0.76-2.12,2-2.12c0.64,0,1.13,0.12,1.59,0.39l0.21-3.15c-0.23-0.19-0.72-0.35-1.28-0.35
			c-1.22,0-2.19,0.85-2.52,1.88v-1.63h-3.34v9.19h3.34V19.35z"/>
		<path d="M478.54,23.8c1.38,0,2.39-0.6,2.89-1.63v1.38h3.34v-9.19h-3.34v4.51c0,1.4-0.41,2.31-1.46,2.31
			c-1.01,0-1.36-0.68-1.36-1.92v-4.91h-3.34v5.79C475.26,22.07,476.02,23.8,478.54,23.8z"/>
		<path d="M490.58,21.72c-1.01,0-1.63-0.43-1.75-1.2l-2.91,0.04c0.19,2.23,2.08,3.24,4.62,3.24c2.62,0,4.27-1.11,4.27-3.05
			c0-1.79-1.2-2.72-3.26-3.05l-1.79-0.31c-0.31-0.04-0.56-0.21-0.56-0.52c0-0.41,0.37-0.66,1.01-0.66c1.03,0,1.61,0.41,1.73,1.07
			l2.74-0.08c-0.19-1.92-1.75-3.09-4.41-3.09c-2.58,0-4.16,1.3-4.16,3.11c0,1.88,1.18,2.6,3.4,2.95l1.36,0.21
			c0.64,0.1,0.85,0.35,0.85,0.7C491.71,21.45,491.32,21.72,490.58,21.72z"/>
		<rect x="497.64" y="20.01" width="3.55" height="3.55"/>
		<path d="M509.1,23.8c2.99,0,5.03-1.98,5.03-4.84c0-2.84-2.04-4.84-5.03-4.84c-3.01,0-5.03,2-5.03,4.84
			C504.07,21.82,506.09,23.8,509.1,23.8z M509.1,16.63c1.15,0,1.67,0.95,1.67,2.33c0,1.38-0.52,2.33-1.67,2.33
			c-1.17,0-1.67-0.95-1.67-2.33C507.44,17.58,507.93,16.63,509.1,16.63z"/>
		<path d="M518.79,19.35c0-1.55,0.76-2.12,2-2.12c0.64,0,1.13,0.12,1.59,0.39l0.21-3.15c-0.23-0.19-0.72-0.35-1.28-0.35
			c-1.22,0-2.19,0.85-2.52,1.88v-1.63h-3.34v9.19h3.34V19.35z"/>
		<path d="M522.6,24.85c0,1.73,2.27,2.25,4.89,2.25c2.99,0,5.77-1.05,5.77-3.34c0-1.55-1.05-2.64-3.13-2.64h-3.81
			c-0.56,0-0.78-0.25-0.78-0.56c0-0.19,0.06-0.33,0.19-0.43c0.6,0.19,1.26,0.27,2,0.27c2.6,0,4.47-1.2,4.47-3.13
			c0-0.43-0.1-0.82-0.29-1.17c0.45-0.1,0.95-0.14,1.34-0.14v-2.51c-1.01,0-2.02,0.66-2.58,1.42c-0.78-0.47-1.83-0.74-2.95-0.74
			c-2.58,0-4.43,1.2-4.43,3.15c0,1.01,0.49,1.79,1.32,2.33c-0.99,0.37-1.57,1.05-1.57,1.94c0,0.78,0.49,1.53,1.32,1.79
			C523.33,23.41,522.6,24.05,522.6,24.85z M527.76,15.95c0.56,0,0.97,0.52,0.97,1.32c0,0.82-0.41,1.34-0.97,1.34
			c-0.56,0-0.97-0.52-0.97-1.34C526.79,16.46,527.2,15.95,527.76,15.95z M525.96,23.97h3.38c0.56,0,0.85,0.14,0.85,0.54
			c0,0.56-1.13,0.87-2.68,0.87c-1.24,0-2.16-0.19-2.16-0.84C525.35,24.17,525.59,23.97,525.96,23.97z"/>
		<path d="M311.03,589.49l0.43-2.06h-1.83l0.82-3.42h-2.49l-0.82,3.42h-1.77l0.83-3.42h-2.49l-0.82,3.42h-2.02l-0.43,2.06h1.98
			l-0.49,2.02h-1.88l-0.43,2.06h1.81l-0.8,3.42h2.49l0.8-3.42h1.77l-0.8,3.42h2.49l0.8-3.42h2.04l0.43-2.06h-1.98l0.49-2.02H311.03z
			 M306.17,591.51h-1.77l0.5-2.02h1.77L306.17,591.51z"/>
		<path d="M320.73,586.87c2.02,0,2.8,1.34,3.01,2.78l3.36-0.12c-0.25-3.24-2.37-5.77-6.35-5.77c-3.79,0-6.66,2.74-6.66,6.74
			c0,4,2.87,6.74,6.66,6.74c3.98,0,6.1-2.52,6.35-5.75l-3.36-0.14c-0.21,1.44-0.99,2.78-3.01,2.78c-1.92,0-3.03-1.42-3.03-3.63
			C317.7,588.29,318.81,586.87,320.73,586.87z"/>
		<path d="M331.11,591.82c-2,0.35-3.28,1.11-3.28,2.89c0,1.57,1.18,2.49,2.97,2.49c1.46,0,2.52-0.56,3.05-1.63
			c0.31,1.05,1.2,1.63,2.33,1.63c0.95,0,1.61-0.27,2.08-0.6v-1.77c-0.27,0.1-0.47,0.14-0.74,0.14c-0.35,0-0.56-0.21-0.56-0.68v-3.13
			c0-2.56-1.79-3.61-4.23-3.61c-2.76,0-4.27,1.4-4.56,3.42l3.09,0.21c0.14-0.68,0.52-1.15,1.26-1.15c0.8,0,1.15,0.45,1.15,1.22v0.14
			L331.11,591.82z M333.69,593.16c0,1.2-0.76,1.9-1.71,1.9c-0.56,0-0.93-0.31-0.93-0.78c0-0.6,0.47-0.85,1.28-1.01l1.36-0.25V593.16
			z"/>
		<path d="M339.23,587.8v12.49h3.34v-4.86c0.45,1.07,1.48,1.81,3.03,1.81c2.7,0,4.08-2.12,4.08-4.84c0-2.7-1.38-4.84-4.08-4.84
			c-1.55,0-2.58,0.74-3.03,1.83v-1.59H339.23z M344.43,590.15c1.3,0,1.9,0.93,1.9,2.25c0,1.34-0.6,2.27-1.9,2.27
			c-1.13,0-1.86-0.87-1.86-2.21v-0.12C342.57,591.02,343.29,590.15,344.43,590.15z"/>
		<rect x="351" y="587.8" width="3.34" height="9.19"/>
		<rect x="350.98" y="584.01" width="3.38" height="2.93"/>
		<path d="M359.49,597.24c1.26,0,2.06-0.31,2.76-0.82v-2.16c-0.56,0.23-1.01,0.31-1.42,0.31c-0.68,0-1.05-0.31-1.05-1.09v-3.36h2.39
			v-2.31h-2.39v-2.54h-2.1l-0.31,1.2c-0.23,0.85-0.52,1.34-1.44,1.48l-0.68,0.1v2.06h1.24v4.33
			C356.48,596.6,357.95,597.24,359.49,597.24z"/>
		<path d="M366.27,591.82c-2,0.35-3.28,1.11-3.28,2.89c0,1.57,1.18,2.49,2.97,2.49c1.46,0,2.51-0.56,3.05-1.63
			c0.31,1.05,1.2,1.63,2.33,1.63c0.95,0,1.61-0.27,2.08-0.6v-1.77c-0.27,0.1-0.47,0.14-0.74,0.14c-0.35,0-0.56-0.21-0.56-0.68v-3.13
			c0-2.56-1.79-3.61-4.23-3.61c-2.76,0-4.27,1.4-4.56,3.42l3.09,0.21c0.14-0.68,0.52-1.15,1.26-1.15c0.8,0,1.15,0.45,1.15,1.22v0.14
			L366.27,591.82z M368.85,593.16c0,1.2-0.76,1.9-1.71,1.9c-0.56,0-0.93-0.31-0.93-0.78c0-0.6,0.47-0.85,1.28-1.01l1.36-0.25V593.16
			z"/>
		<rect x="374.39" y="584.01" width="3.34" height="12.99"/>
		<rect x="379.55" y="587.8" width="3.34" height="9.19"/>
		<rect x="379.53" y="584.01" width="3.38" height="2.93"/>
		<path d="M388.7,595.16c-1.01,0-1.63-0.43-1.75-1.2l-2.91,0.04c0.19,2.23,2.08,3.24,4.62,3.24c2.62,0,4.27-1.11,4.27-3.05
			c0-1.79-1.2-2.72-3.26-3.05l-1.79-0.31c-0.31-0.04-0.56-0.21-0.56-0.52c0-0.41,0.37-0.66,1.01-0.66c1.03,0,1.61,0.41,1.73,1.07
			l2.74-0.08c-0.19-1.92-1.75-3.09-4.41-3.09c-2.58,0-4.16,1.3-4.16,3.11c0,1.88,1.18,2.6,3.4,2.95l1.36,0.21
			c0.64,0.1,0.85,0.35,0.85,0.7C389.83,594.89,389.44,595.16,388.7,595.16z"/>
		<path d="M409.68,596.99v-5.77c0-1.92-0.74-3.67-3.28-3.67c-1.55,0-2.64,0.78-3.13,1.81c-0.39-1.07-1.24-1.81-2.87-1.81
			c-1.38,0-2.37,0.62-2.87,1.63v-1.38h-3.34v9.19h3.34v-4.51c0-1.38,0.39-2.29,1.48-2.29c1.01,0,1.26,0.66,1.26,1.92v4.89h3.34
			v-4.51c0-1.38,0.37-2.29,1.48-2.29c1.01,0,1.24,0.66,1.24,1.92v4.89H409.68z"/>
		<rect x="413.27" y="584.01" width="3.5" height="12.99"/>
		<path d="M422.67,595.16c-1.01,0-1.63-0.43-1.75-1.2l-2.91,0.04c0.19,2.23,2.08,3.24,4.62,3.24c2.62,0,4.27-1.11,4.27-3.05
			c0-1.79-1.2-2.72-3.26-3.05l-1.79-0.31c-0.31-0.04-0.56-0.21-0.56-0.52c0-0.41,0.37-0.66,1.01-0.66c1.03,0,1.61,0.41,1.73,1.07
			l2.74-0.08c-0.19-1.92-1.75-3.09-4.41-3.09c-2.58,0-4.16,1.3-4.16,3.11c0,1.88,1.18,2.6,3.4,2.95l1.36,0.21
			c0.64,0.1,0.85,0.35,0.85,0.7C423.8,594.89,423.41,595.16,422.67,595.16z"/>
		<path d="M429.07,596.99h3.52l0.97-2.51h5.07l0.97,2.51h3.73l-5.17-12.99h-3.92L429.07,596.99z M436.05,588.03h0.08l1.48,3.83
			h-3.05L436.05,588.03z"/>
		<polygon points="452.01,592.64 448.8,584.01 445.13,584.01 450.12,596.99 453.81,596.99 458.8,584.01 455.31,584.01 452.1,592.64 
					"/>
		<rect x="459.7" y="587.8" width="3.34" height="9.19"/>
		<rect x="459.68" y="584.01" width="3.38" height="2.93"/>
		<path d="M464.85,587.8v9.19h3.34v-4.21c0-1.55,0.76-2.12,2-2.12c0.64,0,1.13,0.12,1.59,0.39l0.21-3.15
			c-0.23-0.19-0.72-0.35-1.28-0.35c-1.22,0-2.19,0.85-2.52,1.88v-1.63H464.85z"/>
		<path d="M482.41,596.99v-9.19h-3.34v4.51c0,1.4-0.41,2.31-1.46,2.31c-1.01,0-1.36-0.68-1.36-1.92v-4.91h-3.34v5.79
			c0,1.92,0.76,3.65,3.28,3.65c1.38,0,2.39-0.6,2.89-1.63v1.38H482.41z"/>
		<path d="M488.23,595.16c-1.01,0-1.63-0.43-1.75-1.2l-2.91,0.04c0.19,2.23,2.08,3.24,4.62,3.24c2.62,0,4.27-1.11,4.27-3.05
			c0-1.79-1.2-2.72-3.26-3.05l-1.79-0.31c-0.31-0.04-0.56-0.21-0.56-0.52c0-0.41,0.37-0.66,1.01-0.66c1.03,0,1.61,0.41,1.73,1.07
			l2.74-0.08c-0.19-1.92-1.75-3.09-4.41-3.09c-2.58,0-4.16,1.3-4.16,3.11c0,1.88,1.17,2.6,3.4,2.95l1.36,0.21
			c0.64,0.1,0.85,0.35,0.85,0.7C489.36,594.89,488.97,595.16,488.23,595.16z"/>
	</g>
</g>
</svg>
