<?xml version="1.0" encoding="utf-8"?>
<!-- Generator: Adobe Illustrator 23.1.1, SVG Export Plug-In . SVG Version: 6.00 Build 0)  -->
<svg version="1.1" xmlns="http://www.w3.org/2000/svg" xmlns:xlink="http://www.w3.org/1999/xlink" x="0px" y="0px"
	 viewBox="0 0 792 612" style="enable-background:new 0 0 792 612;" xml:space="preserve">
<style type="text/css">
	.st0{display:none;}
	.st1{display:inline;fill:#FFFFFF;}
	.st2{display:inline;}
	.st3{fill:#FFFFFF;stroke:#000000;stroke-width:16;stroke-linecap:round;stroke-linejoin:round;stroke-miterlimit:10;}
	.st4{fill:none;stroke:#000000;stroke-width:24;stroke-linejoin:round;stroke-miterlimit:10;}
	.st5{fill:#FFFFFF;}
	.st6{fill:#FFFFFF;stroke:#000000;stroke-width:17;stroke-linecap:round;stroke-miterlimit:10;}
	.st7{fill:#FFFFFF;stroke:#000000;stroke-width:17;stroke-miterlimit:10;}
	.st8{stroke:#000000;stroke-width:16.0572;stroke-linecap:round;stroke-miterlimit:10;}
	.st9{fill:#FFFFFF;stroke:#000000;stroke-width:13.497;stroke-linecap:round;stroke-linejoin:round;stroke-miterlimit:10;}
	.st10{stroke:#000000;stroke-width:18.3348;stroke-linecap:round;stroke-miterlimit:10;}
	.st11{fill:none;stroke:#000000;stroke-width:13.497;stroke-linecap:round;stroke-linejoin:round;stroke-miterlimit:10;}
	.st12{fill:#FFFFFF;stroke:#000000;stroke-width:14.6942;stroke-linecap:round;stroke-linejoin:round;stroke-miterlimit:10;}
	.st13{fill:none;stroke:#000000;stroke-width:13;stroke-linecap:round;stroke-linejoin:round;stroke-miterlimit:10;}
	.st14{fill:none;stroke:#000000;stroke-width:13;stroke-linejoin:round;stroke-miterlimit:10;}
	.st15{fill:url(#);stroke:#000000;stroke-width:13;stroke-linejoin:round;stroke-miterlimit:10;}
	.st16{fill:none;stroke:#000000;stroke-width:30.5612;stroke-linecap:round;stroke-linejoin:round;stroke-miterlimit:10;}
	.st17{fill:#FFFFFF;stroke:#000000;stroke-width:16.2993;stroke-linecap:round;stroke-linejoin:round;stroke-miterlimit:10;}
	.st18{fill:#FFFFFF;stroke:#000000;stroke-width:13.497;stroke-linecap:round;stroke-miterlimit:10;}
	.st19{fill:url(#);stroke:#000000;stroke-width:13.497;stroke-linecap:round;stroke-linejoin:round;stroke-miterlimit:10;}
	.st20{font-family:'FoundersGrotesk-Bold';}
	.st21{font-size:148.7406px;}
	.st22{font-size:234.4191px;}
	.st23{fill:#FFFFFF;stroke:#000000;stroke-width:11.7326;stroke-linecap:round;stroke-linejoin:round;stroke-miterlimit:10;}
	.st24{font-size:20.6105px;}
	.st25{font-size:10.3052px;}
	.st26{font-size:19.2364px;}
	.st27{font-size:10px;}
	.st28{fill:#FFFFFF;stroke:#000000;stroke-width:13.2623;stroke-linecap:round;stroke-linejoin:round;stroke-miterlimit:10;}
	.st29{fill:#FFFFFF;stroke:#000000;stroke-width:13.2623;stroke-linecap:round;stroke-miterlimit:10;}
	.st30{stroke:#000000;stroke-width:4.5213;stroke-miterlimit:10;}
	.st31{fill:none;stroke:#000000;stroke-width:16;stroke-linecap:round;stroke-miterlimit:10;}
	.st32{fill:url(#);stroke:#000000;stroke-width:16;stroke-linecap:round;stroke-linejoin:round;stroke-miterlimit:10;}
	.st33{fill:#FFFFFF;stroke:#000000;stroke-width:16;stroke-linecap:round;stroke-miterlimit:10;}
	.st34{fill:none;stroke:#000000;stroke-width:16;stroke-linecap:round;stroke-linejoin:round;stroke-miterlimit:10;}
	.st35{fill:none;stroke:#000000;stroke-width:15.2344;stroke-linecap:round;stroke-linejoin:round;stroke-miterlimit:10;}
	.st36{fill:#FFFFFF;stroke:#000000;stroke-width:15.2344;stroke-linecap:round;stroke-linejoin:round;stroke-miterlimit:10;}
	.st37{fill:#FFFFFF;stroke:#000000;stroke-width:17;stroke-linecap:round;stroke-linejoin:round;stroke-miterlimit:10;}
	.st38{fill:none;stroke:#000000;stroke-width:9.9764;stroke-linecap:round;stroke-linejoin:round;stroke-miterlimit:10;}
	.st39{fill:none;stroke:#000000;stroke-width:9.3127;stroke-linejoin:round;stroke-miterlimit:10;}
	.st40{fill:url(#);}
	.st41{fill:none;stroke:#000000;stroke-width:8.3796;stroke-linecap:round;stroke-linejoin:round;stroke-miterlimit:10;}
	
		.st42{display:inline;fill:none;stroke:#000000;stroke-width:9.9764;stroke-linecap:round;stroke-linejoin:round;stroke-miterlimit:10;}
	.st43{display:inline;fill:none;stroke:#000000;stroke-width:9.3127;stroke-linejoin:round;stroke-miterlimit:10;}
	.st44{display:inline;fill:url(#);stroke:#000000;stroke-width:10;stroke-linejoin:round;stroke-miterlimit:10;}
	.st45{fill:#FFFFFF;stroke:#000000;stroke-width:14.7375;stroke-linecap:round;stroke-linejoin:round;stroke-miterlimit:10;}
	.st46{fill:none;stroke:#000000;stroke-width:14.7375;stroke-linecap:round;stroke-linejoin:round;stroke-miterlimit:10;}
	.st47{stroke:#000000;stroke-width:14.7375;stroke-linecap:round;stroke-linejoin:round;stroke-miterlimit:10;}
	.st48{fill:#FFFFFF;stroke:#000000;stroke-width:14.2911;stroke-linecap:round;stroke-linejoin:round;stroke-miterlimit:10;}
	.st49{fill:none;stroke:#000000;stroke-width:15;stroke-linecap:round;stroke-linejoin:round;stroke-miterlimit:10;}
	.st50{fill:#FFFFFF;stroke:#000000;stroke-width:15;stroke-linecap:round;stroke-linejoin:round;stroke-miterlimit:10;}
	.st51{fill:#FFFFFF;stroke:#000000;stroke-width:14.8467;stroke-linecap:round;stroke-linejoin:round;stroke-miterlimit:10;}
	.st52{stroke:#000000;stroke-width:20.1683;stroke-linecap:round;stroke-miterlimit:10;}
	.st53{fill:none;stroke:#000000;stroke-width:14.8467;stroke-linecap:round;stroke-linejoin:round;stroke-miterlimit:10;}
	.st54{fill:none;stroke:#000000;stroke-width:13.497;stroke-miterlimit:10;}
	.st55{fill:#FFFFFF;stroke:#000000;stroke-width:13.497;stroke-miterlimit:10;}
	.st56{fill:#FFFFFF;stroke:#000000;stroke-width:14.7439;stroke-linecap:round;stroke-miterlimit:10;}
	.st57{fill:#FFFFFF;stroke:#000000;stroke-width:14.7439;stroke-miterlimit:10;}
	.st58{stroke:#000000;stroke-width:13.9262;stroke-linecap:round;stroke-miterlimit:10;}
	.st59{fill:#FFFFFF;stroke:#000000;stroke-width:17.1072;stroke-linecap:round;stroke-linejoin:round;stroke-miterlimit:10;}
	.st60{stroke:#000000;stroke-width:17.1072;stroke-linecap:round;stroke-linejoin:round;stroke-miterlimit:10;}
	.st61{fill:#FFFFFF;stroke:#000000;stroke-width:15;stroke-linecap:square;stroke-linejoin:round;stroke-miterlimit:10;}
	.st62{fill:#FFFFFF;stroke:#000000;stroke-width:15;stroke-linejoin:round;stroke-miterlimit:10;}
	.st63{fill:#FFFFFF;stroke:#000000;stroke-width:14;stroke-linecap:round;stroke-linejoin:round;stroke-miterlimit:10;}
	.st64{fill:#FFFFFF;stroke:#000000;stroke-width:13;stroke-linecap:round;stroke-linejoin:round;stroke-miterlimit:10;}
	.st65{fill:#FFFFFF;stroke:#000000;stroke-width:15.2362;stroke-linecap:round;stroke-linejoin:round;stroke-miterlimit:10;}
	.st66{fill:#FFFFFF;stroke:#FFFFFF;stroke-width:3;stroke-miterlimit:10;}
	.st67{fill:#FFFFFF;stroke:#000000;stroke-width:13.3058;stroke-linecap:round;stroke-linejoin:round;stroke-miterlimit:10;}
	.st68{fill:#FFFFFF;stroke:#000000;stroke-width:15.2517;stroke-linecap:round;stroke-linejoin:round;stroke-miterlimit:10;}
	.st69{stroke:#000000;stroke-width:3;stroke-miterlimit:10;}
</style>
<g id="unexpanded" class="st0">
	<rect x="-9850.75" y="-343.56" class="st1" width="14663.41" height="9108.82"/>
	<g class="st2">
		<rect x="0" class="st5" width="792" height="1224"/>
		<text transform="matrix(1 0 0 1 78.7395 146.7314)" class="st20 st21">No Work?</text>
		<text transform="matrix(1 0 0 1 237.3015 338.7646)" class="st20 st22">NO</text>
		<text transform="matrix(1 0 0 1 51.9954 540.6621)" class="st20 st22"> RENT!</text>
		<g>
			<g>
				<text transform="matrix(1 0 0 1 258.9679 23.5542)"><tspan x="0" y="0" class="st20 st24">www</tspan><tspan x="45.14" y="0" class="st20 st25"> </tspan><tspan x="46.99" y="0" class="st20 st24">.</tspan><tspan x="51.77" y="0" class="st20 st25"> </tspan><tspan x="53.63" y="0" class="st20 st24">Capitalism</tspan><tspan x="150.43" y="0" class="st20 st26"> </tspan><tspan x="153.9" y="0" class="st20 st24">Is</tspan><tspan x="168.88" y="0" class="st20 st26"> </tspan><tspan x="172.34" y="0" class="st20 st24">A</tspan><tspan x="186.6" y="0" class="st20 st25"> </tspan><tspan x="188.46" y="0" class="st20 st24">Virus</tspan><tspan x="236.15" y="0" class="st20 st25"> </tspan><tspan x="238.01" y="0" class="st20 st24">.</tspan><tspan x="242.79" y="0" class="st20 st25"> </tspan><tspan x="244.64" y="0" class="st20 st24">org</tspan></text>
			</g>
			<g>
				<text transform="matrix(1 0 0 1 299.1802 596.9932)"><tspan x="0" y="0" class="st20 st24">#</tspan><tspan x="12.7" y="0" class="st20 st27"> </tspan><tspan x="14.5" y="0" class="st20 st24">Capitalism</tspan><tspan x="111.3" y="0" class="st20 st27"> </tspan><tspan x="113.1" y="0" class="st20 st24">Is</tspan><tspan x="128.09" y="0" class="st20 st27"> </tspan><tspan x="129.89" y="0" class="st20 st24">A</tspan><tspan x="144.15" y="0" class="st20 st27"> </tspan><tspan x="145.95" y="0" class="st20 st24">Virus</tspan></text>
			</g>
		</g>
	</g>
</g>
<g id="exp_trnsp_bg">
	<polygon points="111.31,91.25 151.77,146.73 172,146.73 172,53.02 148.8,53.02 148.8,104.94 112.21,53.02 88.11,53.02 
		88.11,146.73 111.31,146.73 	"/>
	<path d="M218.41,148.52c21.57,0,36.29-14.28,36.29-34.95c0-20.53-14.72-34.95-36.29-34.95c-21.72,0-36.29,14.43-36.29,34.95
		C182.11,134.24,196.69,148.52,218.41,148.52z M218.41,96.75c8.33,0,12.05,6.84,12.05,16.81c0,9.97-3.72,16.81-12.05,16.81
		c-8.48,0-12.05-6.84-12.05-16.81C206.36,103.6,209.93,96.75,218.41,96.75z"/>
	<polygon points="325.2,111.78 324.61,111.78 309.73,53.02 284.44,53.02 308.99,146.73 335.46,146.73 351.08,87.53 351.68,87.53 
		367.29,146.73 394.22,146.73 418.76,53.02 394.37,53.02 379.49,111.78 378.9,111.78 363.43,53.02 340.67,53.02 	"/>
	<path d="M417.27,113.56c0,20.68,14.58,34.95,36.29,34.95c21.57,0,36.29-14.28,36.29-34.95c0-20.53-14.73-34.95-36.29-34.95
		C431.85,78.61,417.27,93.04,417.27,113.56z M465.61,113.56c0,9.97-3.72,16.81-12.05,16.81c-8.48,0-12.05-6.84-12.05-16.81
		c0-9.97,3.57-16.81,12.05-16.81C461.89,96.75,465.61,103.6,465.61,113.56z"/>
	<path d="M523.47,92.14V80.39h-24.1v66.34h24.1v-30.34c0-11.16,5.5-15.32,14.43-15.32c4.61,0,8.18,0.89,11.45,2.83l1.49-22.76
		c-1.64-1.34-5.21-2.53-9.22-2.53C532.84,78.61,525.85,84.71,523.47,92.14z"/>
	<polygon points="582.37,125.76 588.17,119.81 607.21,146.73 634.28,146.73 606.02,106.42 633.39,80.39 605.13,80.39 582.37,103.3 
		582.37,53.02 558.28,53.02 558.28,146.73 582.37,146.73 	"/>
	<path d="M661.8,93.93c-0.59-1.93-1.04-4.16-1.04-7.73c0-7.59,2.97-13.54,11.45-13.54c6.25,0,9.37,4.02,9.37,8.78
		c0,6.69-4.61,10.26-10.56,15.02c-6.54,5.21-9.52,11.9-9.82,19.04h23.35c0.3-3.72,2.83-6.54,7.59-10.11
		c8.48-6.25,15.92-13.09,15.92-25.29c0-16.06-12.94-28.86-35.7-28.86c-21.57,0-36.44,13.09-36.44,33.17c0,2.83,0.59,5.8,1.19,8.78
		L661.8,93.93z"/>
	<rect x="660.01" y="121.15" width="25.58" height="25.58"/>
	<polygon points="285.12,251.33 348.89,338.77 380.77,338.77 380.77,191.08 344.2,191.08 344.2,272.89 286.53,191.08 248.55,191.08 
		248.55,338.77 285.12,338.77 	"/>
	<path d="M473.36,188.27c-42.9,0-76.66,31.18-76.66,76.66c0,45.48,33.76,76.66,76.66,76.66c42.9,0,76.66-31.18,76.66-76.66
		C550.01,219.44,516.26,188.27,473.36,188.27z M473.36,306.42c-21.8,0-35.63-16.41-35.63-41.49s13.83-41.49,35.63-41.49
		c21.8,0,35.63,16.41,35.63,41.49S495.16,306.42,473.36,306.42z"/>
	<path d="M105.44,540.66h39.15v-48.99h26.49c13.36,0,20.63,3.75,21.8,20.63c1.17,15.24,3.05,24.38,6.1,28.37h40.32
		c-4.92-5.39-5.63-11.96-7.74-33.99c-1.64-17.11-10.55-25.79-25.79-28.83c18.05-2.34,31.41-16.41,31.41-37.98
		c0-28.83-18.99-46.88-57.2-46.88h-74.55V540.66z M144.59,424.86h28.37c16.88,0,25.32,6.33,25.32,18.29
		c0,13.6-8.44,17.82-25.32,17.82h-28.37V424.86z"/>
	<polygon points="371.04,507.84 293.91,507.84 293.91,482.29 351.81,482.29 351.81,449.94 293.91,449.94 293.91,425.8 368.93,425.8 
		368.93,392.98 254.76,392.98 254.76,540.66 371.04,540.66 	"/>
	<polygon points="484.49,474.79 426.83,392.98 388.85,392.98 388.85,540.66 425.42,540.66 425.42,453.22 489.18,540.66 
		521.06,540.66 521.06,392.98 484.49,392.98 	"/>
	<polygon points="628.42,425.8 679.76,425.8 679.76,392.98 538.17,392.98 538.17,425.8 588.81,425.8 588.81,540.66 628.42,540.66 	
		"/>
	<polygon points="692.65,430.95 700.62,491.43 725,491.43 732.97,430.95 732.97,392.98 692.65,392.98 	"/>
	<rect x="692.65" y="500.34" width="40.32" height="40.32"/>
	<polygon points="265.16,23.55 266.5,18.36 266.58,18.36 267.92,23.55 271.2,23.55 274.07,14.5 276.93,23.55 280.21,23.55 
		281.55,18.36 281.63,18.36 282.97,23.55 286.25,23.55 289.11,14.49 291.98,23.55 295.25,23.55 296.59,18.36 296.68,18.36 
		298.02,23.55 301.29,23.55 304.2,14.36 301.19,14.36 299.54,19.58 299.46,19.58 298.12,14.36 295.46,14.36 294.12,19.58 
		294.04,19.58 292.39,14.36 289.15,14.36 289.07,14.36 286.14,14.36 284.5,19.58 284.41,19.58 283.07,14.36 280.41,14.36 
		279.07,19.58 278.99,19.58 277.34,14.36 274.11,14.36 274.02,14.36 271.1,14.36 269.45,19.58 269.37,19.58 268.03,14.36 
		265.37,14.36 264.03,19.58 263.95,19.58 262.3,14.36 258.98,14.36 261.88,23.55 	"/>
	<rect x="306.63" y="20.01" width="3.55" height="3.55"/>
	<path d="M319.72,23.8c3.98,0,6.1-2.52,6.35-5.75l-3.36-0.14c-0.21,1.44-0.99,2.78-3.01,2.78c-1.92,0-3.03-1.42-3.03-3.63
		s1.11-3.63,3.03-3.63c2.02,0,2.8,1.34,3.01,2.78l3.36-0.12c-0.25-3.24-2.37-5.77-6.35-5.77c-3.79,0-6.66,2.74-6.66,6.74
		S315.92,23.8,319.72,23.8z"/>
	<path d="M330.08,18.38c-2,0.35-3.28,1.11-3.28,2.89c0,1.57,1.17,2.49,2.97,2.49c1.46,0,2.51-0.56,3.05-1.63
		c0.31,1.05,1.2,1.63,2.33,1.63c0.95,0,1.61-0.27,2.08-0.6v-1.77c-0.27,0.1-0.47,0.14-0.74,0.14c-0.35,0-0.56-0.21-0.56-0.68v-3.13
		c0-2.56-1.79-3.61-4.23-3.61c-2.76,0-4.27,1.4-4.56,3.42l3.09,0.21c0.14-0.68,0.52-1.15,1.26-1.15c0.8,0,1.15,0.45,1.15,1.22v0.14
		L330.08,18.38z M332.66,19.72c0,1.2-0.76,1.9-1.71,1.9c-0.56,0-0.93-0.31-0.93-0.78c0-0.6,0.47-0.85,1.28-1.01l1.36-0.25V19.72z"/>
	<path d="M341.54,21.99c0.45,1.07,1.48,1.81,3.03,1.81c2.7,0,4.08-2.12,4.08-4.84c0-2.7-1.38-4.84-4.08-4.84
		c-1.55,0-2.58,0.74-3.03,1.83v-1.59h-3.34v12.49h3.34V21.99z M341.54,18.9c0-1.32,0.72-2.19,1.86-2.19c1.3,0,1.9,0.93,1.9,2.25
		c0,1.34-0.6,2.27-1.9,2.27c-1.13,0-1.86-0.87-1.86-2.21V18.9z"/>
	<rect x="349.95" y="10.57" width="3.38" height="2.93"/>
	<rect x="349.97" y="14.36" width="3.34" height="9.19"/>
	<path d="M355.46,21c0,2.16,1.46,2.8,3.01,2.8c1.26,0,2.06-0.31,2.76-0.82v-2.16c-0.56,0.23-1.01,0.31-1.42,0.31
		c-0.68,0-1.05-0.31-1.05-1.09v-3.36h2.39v-2.31h-2.39v-2.54h-2.1l-0.31,1.2c-0.23,0.85-0.52,1.34-1.44,1.48l-0.68,0.1v2.06h1.24V21
		z"/>
	<path d="M365.25,18.38c-2,0.35-3.28,1.11-3.28,2.89c0,1.57,1.17,2.49,2.97,2.49c1.46,0,2.52-0.56,3.05-1.63
		c0.31,1.05,1.2,1.63,2.33,1.63c0.95,0,1.61-0.27,2.08-0.6v-1.77c-0.27,0.1-0.47,0.14-0.74,0.14c-0.35,0-0.56-0.21-0.56-0.68v-3.13
		c0-2.56-1.79-3.61-4.23-3.61c-2.76,0-4.27,1.4-4.56,3.42l3.09,0.21c0.14-0.68,0.52-1.15,1.26-1.15c0.8,0,1.15,0.45,1.15,1.22v0.14
		L365.25,18.38z M367.82,19.72c0,1.2-0.76,1.9-1.71,1.9c-0.56,0-0.93-0.31-0.93-0.78c0-0.6,0.47-0.85,1.28-1.01l1.36-0.25V19.72z"/>
	<rect x="373.37" y="10.57" width="3.34" height="12.99"/>
	<rect x="378.52" y="14.36" width="3.34" height="9.19"/>
	<rect x="378.5" y="10.57" width="3.38" height="2.93"/>
	<path d="M387.67,21.72c-1.01,0-1.63-0.43-1.75-1.2l-2.91,0.04c0.19,2.23,2.08,3.24,4.62,3.24c2.62,0,4.27-1.11,4.27-3.05
		c0-1.79-1.2-2.72-3.26-3.05l-1.79-0.31c-0.31-0.04-0.56-0.21-0.56-0.52c0-0.41,0.37-0.66,1.01-0.66c1.03,0,1.61,0.41,1.73,1.07
		l2.74-0.08c-0.19-1.92-1.75-3.09-4.41-3.09c-2.58,0-4.16,1.3-4.16,3.11c0,1.88,1.17,2.6,3.4,2.95l1.36,0.21
		c0.64,0.1,0.84,0.35,0.84,0.7C388.8,21.45,388.41,21.72,387.67,21.72z"/>
	<path d="M396.51,19.04c0-1.38,0.39-2.29,1.48-2.29c1.01,0,1.26,0.66,1.26,1.92v4.89h3.34v-4.51c0-1.38,0.37-2.29,1.48-2.29
		c1.01,0,1.24,0.66,1.24,1.92v4.89h3.34v-5.77c0-1.92-0.74-3.67-3.28-3.67c-1.55,0-2.64,0.78-3.13,1.81
		c-0.39-1.07-1.24-1.81-2.87-1.81c-1.38,0-2.37,0.62-2.87,1.63v-1.38h-3.34v9.19h3.34V19.04z"/>
	<rect x="413.91" y="10.57" width="3.5" height="12.99"/>
	<path d="M423.3,21.72c-1.01,0-1.63-0.43-1.75-1.2l-2.91,0.04c0.19,2.23,2.08,3.24,4.62,3.24c2.62,0,4.27-1.11,4.27-3.05
		c0-1.79-1.2-2.72-3.26-3.05l-1.79-0.31c-0.31-0.04-0.56-0.21-0.56-0.52c0-0.41,0.37-0.66,1.01-0.66c1.03,0,1.61,0.41,1.73,1.07
		l2.74-0.08c-0.19-1.92-1.75-3.09-4.41-3.09c-2.58,0-4.16,1.3-4.16,3.11c0,1.88,1.17,2.6,3.4,2.95l1.36,0.21
		c0.64,0.1,0.84,0.35,0.84,0.7C424.44,21.45,424.05,21.72,423.3,21.72z"/>
	<path d="M435.86,21.04h5.07l0.97,2.52h3.73l-5.17-12.99h-3.92l-5.17,12.99h3.52L435.86,21.04z M438.35,14.59h0.08l1.48,3.83h-3.05
		L438.35,14.59z"/>
	<polygon points="456.16,23.55 461.15,10.57 457.66,10.57 454.45,19.2 454.36,19.2 451.15,10.57 447.48,10.57 452.47,23.55 	"/>
	<rect x="462.03" y="10.57" width="3.38" height="2.93"/>
	<rect x="462.05" y="14.36" width="3.34" height="9.19"/>
	<path d="M470.54,19.35c0-1.55,0.76-2.12,2-2.12c0.64,0,1.13,0.12,1.59,0.39l0.21-3.15c-0.23-0.19-0.72-0.35-1.28-0.35
		c-1.22,0-2.18,0.85-2.51,1.88v-1.63h-3.34v9.19h3.34V19.35z"/>
	<path d="M478.54,23.8c1.38,0,2.39-0.6,2.89-1.63v1.38h3.34v-9.19h-3.34v4.51c0,1.4-0.41,2.31-1.46,2.31
		c-1.01,0-1.36-0.68-1.36-1.92v-4.91h-3.34v5.79C475.26,22.07,476.02,23.8,478.54,23.8z"/>
	<path d="M490.58,21.72c-1.01,0-1.63-0.43-1.75-1.2l-2.91,0.04c0.19,2.23,2.08,3.24,4.62,3.24c2.62,0,4.27-1.11,4.27-3.05
		c0-1.79-1.2-2.72-3.26-3.05l-1.79-0.31c-0.31-0.04-0.56-0.21-0.56-0.52c0-0.41,0.37-0.66,1.01-0.66c1.03,0,1.61,0.41,1.73,1.07
		l2.74-0.08c-0.19-1.92-1.75-3.09-4.41-3.09c-2.58,0-4.16,1.3-4.16,3.11c0,1.88,1.17,2.6,3.4,2.95l1.36,0.21
		c0.64,0.1,0.84,0.35,0.84,0.7C491.71,21.45,491.32,21.72,490.58,21.72z"/>
	<rect x="497.64" y="20.01" width="3.55" height="3.55"/>
	<path d="M509.1,23.8c2.99,0,5.03-1.98,5.03-4.84c0-2.84-2.04-4.84-5.03-4.84c-3.01,0-5.03,2-5.03,4.84
		C504.07,21.82,506.09,23.8,509.1,23.8z M509.1,16.63c1.15,0,1.67,0.95,1.67,2.33c0,1.38-0.52,2.33-1.67,2.33
		c-1.17,0-1.67-0.95-1.67-2.33C507.43,17.58,507.93,16.63,509.1,16.63z"/>
	<path d="M518.79,19.35c0-1.55,0.76-2.12,2-2.12c0.64,0,1.13,0.12,1.59,0.39l0.21-3.15c-0.23-0.19-0.72-0.35-1.28-0.35
		c-1.22,0-2.19,0.85-2.52,1.88v-1.63h-3.34v9.19h3.34V19.35z"/>
	<path d="M522.6,24.85c0,1.73,2.27,2.25,4.89,2.25c2.99,0,5.77-1.05,5.77-3.34c0-1.55-1.05-2.64-3.13-2.64h-3.81
		c-0.56,0-0.78-0.25-0.78-0.56c0-0.19,0.06-0.33,0.19-0.43c0.6,0.19,1.26,0.27,2,0.27c2.6,0,4.47-1.2,4.47-3.13
		c0-0.43-0.1-0.82-0.29-1.17c0.45-0.1,0.95-0.14,1.34-0.14v-2.51c-1.01,0-2.02,0.66-2.58,1.42c-0.78-0.47-1.83-0.74-2.95-0.74
		c-2.58,0-4.43,1.2-4.43,3.15c0,1.01,0.5,1.79,1.32,2.33c-0.99,0.37-1.57,1.05-1.57,1.94c0,0.78,0.49,1.53,1.32,1.79
		C523.33,23.41,522.6,24.05,522.6,24.85z M527.76,15.95c0.56,0,0.97,0.52,0.97,1.32c0,0.82-0.41,1.34-0.97,1.34
		s-0.97-0.52-0.97-1.34C526.79,16.46,527.2,15.95,527.76,15.95z M525.96,23.97h3.38c0.56,0,0.84,0.14,0.84,0.54
		c0,0.56-1.13,0.87-2.68,0.87c-1.24,0-2.16-0.19-2.16-0.84C525.35,24.17,525.59,23.97,525.96,23.97z"/>
	<path d="M310.46,584.01h-2.49l-0.82,3.42h-1.77l0.83-3.42h-2.49l-0.83,3.42h-2.02l-0.43,2.06h1.98l-0.5,2.02h-1.88l-0.43,2.06h1.81
		l-0.8,3.42h2.49l0.8-3.42h1.77l-0.8,3.42h2.49l0.8-3.42h2.04l0.43-2.06h-1.98l0.5-2.02h1.88l0.43-2.06h-1.83L310.46,584.01z
		 M306.17,591.51h-1.77l0.5-2.02h1.77L306.17,591.51z"/>
	<path d="M320.73,586.87c2.02,0,2.8,1.34,3.01,2.78l3.36-0.12c-0.25-3.24-2.37-5.77-6.35-5.77c-3.79,0-6.66,2.74-6.66,6.74
		c0,4,2.87,6.74,6.66,6.74c3.98,0,6.1-2.52,6.35-5.75l-3.36-0.14c-0.21,1.44-0.99,2.78-3.01,2.78c-1.92,0-3.03-1.42-3.03-3.63
		C317.7,588.29,318.81,586.87,320.73,586.87z"/>
	<path d="M331.11,591.82c-2,0.35-3.28,1.11-3.28,2.89c0,1.57,1.17,2.49,2.97,2.49c1.46,0,2.51-0.56,3.05-1.63
		c0.31,1.05,1.2,1.63,2.33,1.63c0.95,0,1.61-0.27,2.08-0.6v-1.77c-0.27,0.1-0.47,0.14-0.74,0.14c-0.35,0-0.56-0.21-0.56-0.68v-3.13
		c0-2.56-1.79-3.61-4.23-3.61c-2.76,0-4.27,1.4-4.56,3.42l3.09,0.21c0.14-0.68,0.51-1.15,1.26-1.15c0.8,0,1.15,0.45,1.15,1.22v0.14
		L331.11,591.82z M333.69,593.16c0,1.2-0.76,1.9-1.71,1.9c-0.56,0-0.93-0.31-0.93-0.78c0-0.6,0.47-0.85,1.28-1.01l1.36-0.25V593.16z
		"/>
	<path d="M339.23,587.8v12.49h3.34v-4.87c0.45,1.07,1.48,1.81,3.03,1.81c2.7,0,4.08-2.12,4.08-4.84c0-2.7-1.38-4.84-4.08-4.84
		c-1.55,0-2.58,0.74-3.03,1.83v-1.59H339.23z M344.43,590.15c1.3,0,1.9,0.93,1.9,2.25c0,1.34-0.6,2.27-1.9,2.27
		c-1.13,0-1.86-0.87-1.86-2.21v-0.12C342.57,591.02,343.29,590.15,344.43,590.15z"/>
	<rect x="350.98" y="584.01" width="3.38" height="2.93"/>
	<rect x="351" y="587.8" width="3.34" height="9.19"/>
	<path d="M359.49,597.24c1.26,0,2.06-0.31,2.76-0.82v-2.16c-0.56,0.23-1.01,0.31-1.42,0.31c-0.68,0-1.05-0.31-1.05-1.09v-3.36h2.39
		v-2.31h-2.39v-2.54h-2.1l-0.31,1.2c-0.23,0.85-0.51,1.34-1.44,1.48l-0.68,0.1v2.06h1.24v4.33
		C356.48,596.6,357.95,597.24,359.49,597.24z"/>
	<path d="M366.27,591.82c-2,0.35-3.28,1.11-3.28,2.89c0,1.57,1.18,2.49,2.97,2.49c1.46,0,2.51-0.56,3.05-1.63
		c0.31,1.05,1.2,1.63,2.33,1.63c0.95,0,1.61-0.27,2.08-0.6v-1.77c-0.27,0.1-0.47,0.14-0.74,0.14c-0.35,0-0.56-0.21-0.56-0.68v-3.13
		c0-2.56-1.79-3.61-4.23-3.61c-2.76,0-4.27,1.4-4.56,3.42l3.09,0.21c0.14-0.68,0.51-1.15,1.26-1.15c0.8,0,1.15,0.45,1.15,1.22v0.14
		L366.27,591.82z M368.85,593.16c0,1.2-0.76,1.9-1.71,1.9c-0.56,0-0.93-0.31-0.93-0.78c0-0.6,0.47-0.85,1.28-1.01l1.36-0.25V593.16z
		"/>
	<rect x="374.39" y="584.01" width="3.34" height="12.99"/>
	<rect x="379.55" y="587.8" width="3.34" height="9.19"/>
	<rect x="379.53" y="584.01" width="3.38" height="2.93"/>
	<path d="M388.33,589.65c1.03,0,1.61,0.41,1.73,1.07l2.74-0.08c-0.19-1.92-1.75-3.09-4.41-3.09c-2.58,0-4.16,1.3-4.16,3.11
		c0,1.88,1.18,2.6,3.4,2.95l1.36,0.21c0.64,0.1,0.85,0.35,0.85,0.7c0,0.37-0.39,0.64-1.13,0.64c-1.01,0-1.63-0.43-1.75-1.2
		l-2.91,0.04c0.19,2.23,2.08,3.24,4.62,3.24c2.62,0,4.27-1.11,4.27-3.05c0-1.79-1.2-2.72-3.26-3.05l-1.79-0.31
		c-0.31-0.04-0.56-0.21-0.56-0.52C387.32,589.9,387.69,589.65,388.33,589.65z"/>
	<path d="M394.2,587.8v9.19h3.34v-4.51c0-1.38,0.39-2.29,1.48-2.29c1.01,0,1.26,0.66,1.26,1.92v4.89h3.34v-4.51
		c0-1.38,0.37-2.29,1.48-2.29c1.01,0,1.24,0.66,1.24,1.92v4.89h3.34v-5.77c0-1.92-0.74-3.67-3.28-3.67c-1.55,0-2.64,0.78-3.13,1.81
		c-0.39-1.07-1.24-1.81-2.87-1.81c-1.38,0-2.37,0.62-2.87,1.63v-1.38H394.2z"/>
	<rect x="413.27" y="584.01" width="3.5" height="12.99"/>
	<path d="M422.67,595.16c-1.01,0-1.63-0.43-1.75-1.2l-2.91,0.04c0.19,2.23,2.08,3.24,4.62,3.24c2.62,0,4.27-1.11,4.27-3.05
		c0-1.79-1.2-2.72-3.26-3.05l-1.79-0.31c-0.31-0.04-0.56-0.21-0.56-0.52c0-0.41,0.37-0.66,1.01-0.66c1.03,0,1.61,0.41,1.73,1.07
		l2.74-0.08c-0.19-1.92-1.75-3.09-4.41-3.09c-2.58,0-4.16,1.3-4.16,3.11c0,1.88,1.18,2.6,3.4,2.95l1.36,0.21
		c0.64,0.1,0.85,0.35,0.85,0.7C423.8,594.89,423.41,595.16,422.67,595.16z"/>
	<path d="M433.56,594.48h5.07l0.97,2.51h3.73l-5.17-12.99h-3.92l-5.17,12.99h3.52L433.56,594.48z M436.05,588.03h0.08l1.48,3.83
		h-3.05L436.05,588.03z"/>
	<polygon points="453.81,596.99 458.8,584.01 455.31,584.01 452.1,592.64 452.01,592.64 448.8,584.01 445.13,584.01 450.12,596.99 	
		"/>
	<rect x="459.68" y="584.01" width="3.38" height="2.93"/>
	<rect x="459.7" y="587.8" width="3.34" height="9.19"/>
	<path d="M464.85,587.8v9.19h3.34v-4.21c0-1.55,0.76-2.12,2-2.12c0.64,0,1.13,0.12,1.59,0.39l0.21-3.15
		c-0.23-0.19-0.72-0.35-1.28-0.35c-1.22,0-2.19,0.85-2.52,1.88v-1.63H464.85z"/>
	<path d="M479.07,592.31c0,1.4-0.41,2.31-1.46,2.31c-1.01,0-1.36-0.68-1.36-1.92v-4.91h-3.34v5.79c0,1.92,0.76,3.65,3.28,3.65
		c1.38,0,2.39-0.6,2.89-1.63v1.38h3.34v-9.19h-3.34V592.31z"/>
	<path d="M489.19,591.14l-1.79-0.31c-0.31-0.04-0.56-0.21-0.56-0.52c0-0.41,0.37-0.66,1.01-0.66c1.03,0,1.61,0.41,1.73,1.07
		l2.74-0.08c-0.19-1.92-1.75-3.09-4.41-3.09c-2.58,0-4.16,1.3-4.16,3.11c0,1.88,1.17,2.6,3.4,2.95l1.36,0.21
		c0.64,0.1,0.85,0.35,0.85,0.7c0,0.37-0.39,0.64-1.13,0.64c-1.01,0-1.63-0.43-1.75-1.2l-2.91,0.04c0.19,2.23,2.08,3.24,4.62,3.24
		c2.62,0,4.27-1.11,4.27-3.05C492.45,592.4,491.26,591.47,489.19,591.14z"/>
</g>
<g id="exp_white_bg" class="st0">
	<g class="st2">
		<path class="st5" d="M331.05,594.27c0,0.47,0.37,0.78,0.93,0.78c0.95,0,1.71-0.7,1.71-1.9v-0.14l-1.36,0.25
			C331.53,593.43,331.05,593.67,331.05,594.27z"/>
		<path class="st5" d="M0,1224h196.13c-0.51-0.85-0.82-1.84-0.84-2.9c-1-47.96,2.67-94.96,5.62-132.72
			c3.19-40.87,5.95-76.16,0.27-86.37c-1.47-2.64-4.33-6.63-7.64-11.24c-9.5-13.25-21.33-29.75-22.01-43.11
			c-0.81-15.73,13.89-36.78,26.79-53.35l0.85-1.1c6.11-7.88,12.04-10.74,16.94-11.36l18.37-30.35c5.4-8.93,17.35-11.62,26.63-6
			c3.13,1.9,5.55,4.51,7.19,7.47c1.78-1.08,3.74-1.89,5.86-2.35c4.98-1.08,10.17-0.19,14.61,2.5c4.44,2.69,7.63,6.88,8.99,11.79
			c0.57,2.07,0.77,4.15,0.64,6.2c3.42,0.1,6.8,1.08,9.84,2.92c4.44,2.69,7.63,6.88,8.99,11.79c0.58,2.09,0.77,4.21,0.64,6.28
			c3.39,0.08,6.82,1.01,9.95,2.91c9.28,5.62,12.43,17.45,7.03,26.38l-13.81,22.81c5.32,43.1-12.35,59.36-22.1,68.32
			c-11.74,10.78-8.89,56.13-5.6,108.63c1.89,30.06,4.02,64.14,4.17,99.82c0,1.12-0.31,2.16-0.85,3.05h181.47
			c-0.51-0.85-0.82-1.84-0.84-2.9c-1-47.96,2.67-94.96,5.62-132.72c3.19-40.87,5.95-76.16,0.27-86.37
			c-1.47-2.64-4.33-6.63-7.64-11.24c-9.5-13.25-21.33-29.75-22.01-43.11c-0.81-15.73,13.89-36.78,26.79-53.35l0.85-1.1
			c6.11-7.88,12.03-10.74,16.94-11.36l18.37-30.35c5.4-8.93,17.35-11.62,26.63-6c3.13,1.9,5.55,4.51,7.19,7.47
			c1.78-1.08,3.74-1.89,5.86-2.35c4.98-1.08,10.17-0.19,14.61,2.5c4.44,2.69,7.63,6.88,8.99,11.79c0.57,2.07,0.77,4.15,0.64,6.2
			c3.42,0.1,6.8,1.08,9.84,2.92c4.44,2.69,7.63,6.88,8.99,11.79c0.58,2.09,0.77,4.21,0.64,6.28c3.39,0.08,6.82,1.01,9.95,2.91
			c9.28,5.62,12.43,17.45,7.03,26.38l-13.81,22.81c5.32,43.1-12.35,59.36-22.1,68.32c-11.74,10.78-8.89,56.13-5.6,108.63
			c1.89,30.06,4.02,64.14,4.17,99.82c0,1.12-0.31,2.16-0.85,3.05H792V0H0V1224z M248.55,338.77V191.08h37.98l57.67,81.81v-81.81
			h36.57v147.69h-31.88l-63.76-87.44v87.44H248.55z M363.43,53.02l15.47,58.75h0.59l14.87-58.75h24.39l-24.54,93.71h-26.92
			l-15.62-59.2h-0.59l-15.62,59.2h-26.48l-24.54-93.71h25.29l14.88,58.75h0.59l15.47-58.75H363.43z M349.97,23.55v-9.19h3.34v9.19
			H349.97z M378.52,23.55v-9.19h3.34v9.19H378.52z M489.86,113.56c0,20.68-14.73,34.95-36.29,34.95
			c-21.72,0-36.29-14.28-36.29-34.95c0-20.53,14.58-34.95,36.29-34.95C475.13,78.61,489.86,93.04,489.86,113.56z M462.05,23.55
			v-9.19h3.34v9.19H462.05z M387.87,590.83l1.79,0.31c2.06,0.33,3.26,1.26,3.26,3.05c0,1.94-1.65,3.05-4.27,3.05
			c-2.54,0-4.43-1.01-4.62-3.24l2.91-0.04c0.12,0.76,0.74,1.2,1.75,1.2c0.74,0,1.13-0.27,1.13-0.64c0-0.35-0.21-0.6-0.85-0.7
			l-1.36-0.21c-2.23-0.35-3.4-1.07-3.4-2.95c0-1.81,1.59-3.11,4.16-3.11c2.66,0,4.23,1.18,4.41,3.09l-2.74,0.08
			c-0.12-0.66-0.7-1.07-1.73-1.07c-0.64,0-1.01,0.25-1.01,0.66C387.32,590.62,387.56,590.79,387.87,590.83z M379.53,586.93v-2.93
			h3.38v2.93H379.53z M382.89,587.8v9.19h-3.34v-9.19H382.89z M377.73,584.01v12.99h-3.34v-12.99H377.73z M367.7,590.03
			c-0.74,0-1.11,0.47-1.26,1.15l-3.09-0.21c0.29-2.02,1.79-3.42,4.56-3.42c2.43,0,4.23,1.05,4.23,3.61v3.13
			c0,0.47,0.21,0.68,0.56,0.68c0.27,0,0.47-0.04,0.74-0.14v1.77c-0.47,0.33-1.13,0.6-2.08,0.6c-1.13,0-2.02-0.58-2.33-1.63
			c-0.54,1.07-1.59,1.63-3.05,1.63c-1.79,0-2.97-0.93-2.97-2.49c0-1.77,1.28-2.54,3.28-2.89l2.58-0.43v-0.14
			C368.85,590.48,368.5,590.03,367.7,590.03z M254.76,540.66V392.98h114.16v32.82h-75.01v24.15h57.9v32.35h-57.9v25.55h77.12v32.82
			H254.76z M355.25,590.11v-2.06l0.68-0.1c0.93-0.14,1.22-0.64,1.44-1.48l0.31-1.2h2.1v2.54h2.39v2.31h-2.39v3.36
			c0,0.78,0.37,1.09,1.05,1.09c0.41,0,0.87-0.08,1.42-0.31v2.16c-0.7,0.52-1.5,0.82-2.76,0.82c-1.55,0-3.01-0.64-3.01-2.8v-4.33
			H355.25z M350.98,586.93v-2.93h3.38v2.93H350.98z M354.34,587.8v9.19H351v-9.19H354.34z M345.6,587.55c2.7,0,4.08,2.14,4.08,4.84
			c0,2.72-1.38,4.84-4.08,4.84c-1.55,0-2.58-0.74-3.03-1.81v4.87h-3.34V587.8h3.34v1.59C343.03,588.29,344.06,587.55,345.6,587.55z
			 M332.54,590.03c-0.74,0-1.11,0.47-1.26,1.15l-3.09-0.21c0.29-2.02,1.79-3.42,4.56-3.42c2.43,0,4.23,1.05,4.23,3.61v3.13
			c0,0.47,0.21,0.68,0.56,0.68c0.27,0,0.47-0.04,0.74-0.14v1.77c-0.47,0.33-1.13,0.6-2.08,0.6c-1.13,0-2.02-0.58-2.33-1.63
			c-0.54,1.07-1.59,1.63-3.05,1.63c-1.79,0-2.97-0.93-2.97-2.49c0-1.77,1.28-2.54,3.28-2.89l2.58-0.43v-0.14
			C333.69,590.48,333.34,590.03,332.54,590.03z M320.73,594.13c2.02,0,2.8-1.34,3.01-2.78l3.36,0.14c-0.25,3.24-2.37,5.75-6.35,5.75
			c-3.79,0-6.66-2.74-6.66-6.74c0-4,2.87-6.74,6.66-6.74c3.98,0,6.1,2.54,6.35,5.77l-3.36,0.12c-0.21-1.44-0.99-2.78-3.01-2.78
			c-1.92,0-3.03,1.42-3.03,3.63C317.7,592.71,318.81,594.13,320.73,594.13z M311.03,589.49h-1.88l-0.5,2.02h1.98l-0.43,2.06h-2.04
			l-0.8,3.42h-2.49l0.8-3.42h-1.77l-0.8,3.42h-2.49l0.8-3.42h-1.81l0.43-2.06h1.88l0.5-2.02h-1.98l0.43-2.06h2.02l0.83-3.42h2.49
			l-0.83,3.42h1.77l0.82-3.42h2.49l-0.82,3.42h1.83L311.03,589.49z M475.84,801.48l-13.81,22.81c5.32,43.1-12.35,59.36-22.1,68.32
			c-10.46,9.6-8.51,50.46-5.28,118.15c2.37,49.72,5.62,117.83,5.62,205.32c0,3.24-2.63,5.87-5.87,5.87c-2.6,0-4.79-1.69-5.57-4.02
			c-0.19-0.58-0.3-1.2-0.3-1.84c0-87.22-3.24-155.16-5.61-204.77c-3.73-78.3-5.44-114.03,9.06-127.35
			c7.3-6.71,18.47-16.98,19.24-41.85l-0.16,0.27c-2.65,4.38-6.92,7.4-12.02,8.5c-1.38,0.3-2.78,0.45-4.17,0.45
			c-3.63,0-7.23-1-10.44-2.95c-4.44-2.69-7.63-6.88-8.99-11.79c0-0.01,0-0.02-0.01-0.04c-1.37,0.3-2.77,0.46-4.19,0.46
			c-3,0-6.05-0.69-8.91-2.1c1.47,3.62,2.43,7.15,3.04,10.39c2.55,13.51-0.3,24.77-0.42,25.24c-0.81,3.14-4.02,5.02-7.15,4.21
			c-3.13-0.81-5.01-4-4.21-7.13c0.38-1.48,8.8-36.53-25.97-50.96c-1.56-0.65-2.77-1.94-3.31-3.54c-0.54-1.6-0.36-3.36,0.49-4.82
			c1.93-3.32,4.22-7.27,4.22-7.27c1.49-2.57,4.66-3.62,7.39-2.45c0.26,0.1,7.54,2.98,14.25-1.39c3.29-2.14,5.34-4.47,6.59-6.38
			c-9.95-4.75-31.35-14.94-35.8-16.78c-3.52-1.46-7.58,0.73-12.05,6.49l-0.87,1.11c-25.02,32.16-24.51,42.24-24.34,45.55
			c0.51,9.93,12.14,26.15,19.83,36.88c3.52,4.91,6.56,9.14,8.35,12.37c7.23,12.99,5.67,52.42,1.76,133.26
			c-2.75,56.85-6.17,127.6-6.17,206.41c0,0.65-0.11,1.26-0.3,1.84c-0.77,2.34-2.97,4.02-5.57,4.02c-3.24,0-5.87-2.63-5.87-5.87
			c0-79.1,3.43-150,6.18-206.98c3.14-65.01,5.62-116.35-0.3-126.99c-1.47-2.65-4.33-6.63-7.64-11.24
			c-9.5-13.25-21.33-29.75-22.01-43.11c-0.81-15.73,13.89-36.78,26.79-53.35l0.85-1.1c6.11-7.88,12.03-10.74,16.94-11.36
			l18.37-30.35c5.4-8.92,17.35-11.62,26.63-6c3.13,1.9,5.55,4.51,7.19,7.47c1.78-1.08,3.74-1.89,5.86-2.35
			c4.98-1.08,10.17-0.19,14.61,2.5c4.44,2.69,7.63,6.88,8.99,11.79c0.57,2.07,0.77,4.15,0.64,6.2c3.42,0.1,6.8,1.08,9.84,2.92
			c4.44,2.69,7.63,6.88,8.99,11.79c0.58,2.09,0.77,4.21,0.64,6.28c3.39,0.08,6.82,1.01,9.95,2.91
			C478.09,780.72,481.25,792.56,475.84,801.48z M400.41,587.55c1.63,0,2.47,0.74,2.87,1.81c0.49-1.03,1.59-1.81,3.13-1.81
			c2.54,0,3.28,1.75,3.28,3.67v5.77h-3.34v-4.89c0-1.26-0.23-1.92-1.24-1.92c-1.11,0-1.48,0.91-1.48,2.29v4.51h-3.34v-4.89
			c0-1.26-0.25-1.92-1.26-1.92c-1.09,0-1.48,0.91-1.48,2.29v4.51h-3.34v-9.19h3.34v1.38C398.04,588.17,399.02,587.55,400.41,587.55z
			 M413.27,596.99v-12.99h3.5v12.99H413.27z M422.96,593.82l-1.36-0.21c-2.23-0.35-3.4-1.07-3.4-2.95c0-1.81,1.59-3.11,4.16-3.11
			c2.66,0,4.23,1.18,4.41,3.09l-2.74,0.08c-0.12-0.66-0.7-1.07-1.73-1.07c-0.64,0-1.01,0.25-1.01,0.66c0,0.31,0.25,0.47,0.56,0.52
			l1.79,0.31c2.06,0.33,3.26,1.26,3.26,3.05c0,1.94-1.65,3.05-4.27,3.05c-2.54,0-4.43-1.01-4.62-3.24l2.91-0.04
			c0.12,0.76,0.74,1.2,1.75,1.2c0.74,0,1.13-0.27,1.13-0.64C423.8,594.17,423.6,593.92,422.96,593.82z M429.07,596.99l5.17-12.99
			h3.92l5.17,12.99h-3.73l-0.97-2.51h-5.07l-0.97,2.51H429.07z M445.13,584.01h3.67l3.22,8.64h0.08l3.22-8.64h3.48l-4.99,12.99
			h-3.69L445.13,584.01z M459.68,586.93v-2.93h3.38v2.93H459.68z M463.04,587.8v9.19h-3.34v-9.19H463.04z M470.71,587.55
			c0.56,0,1.05,0.17,1.28,0.35l-0.21,3.15c-0.45-0.27-0.95-0.39-1.59-0.39c-1.24,0-2,0.58-2,2.12v4.21h-3.34v-9.19h3.34v1.63
			C468.52,588.4,469.49,587.55,470.71,587.55z M482.41,596.99h-3.34v-1.38c-0.49,1.03-1.5,1.63-2.89,1.63
			c-2.51,0-3.28-1.73-3.28-3.65v-5.79h3.34v4.91c0,1.24,0.35,1.92,1.36,1.92c1.05,0,1.46-0.91,1.46-2.31v-4.51h3.34V596.99z
			 M488.18,597.24c-2.54,0-4.43-1.01-4.62-3.24l2.91-0.04c0.12,0.76,0.74,1.2,1.75,1.2c0.74,0,1.13-0.27,1.13-0.64
			c0-0.35-0.21-0.6-0.85-0.7l-1.36-0.21c-2.23-0.35-3.4-1.07-3.4-2.95c0-1.81,1.59-3.11,4.16-3.11c2.66,0,4.23,1.18,4.41,3.09
			l-2.74,0.08c-0.12-0.66-0.7-1.07-1.73-1.07c-0.64,0-1.01,0.25-1.01,0.66c0,0.31,0.25,0.47,0.56,0.52l1.79,0.31
			c2.06,0.33,3.26,1.26,3.26,3.05C492.45,596.13,490.8,597.24,488.18,597.24z M521.06,540.66h-31.88l-63.76-87.44v87.44h-36.57
			V392.98h37.98l57.67,81.81v-81.81h36.57V540.66z M473.36,341.58c-42.9,0-76.66-31.18-76.66-76.66c0-45.48,33.76-76.66,76.66-76.66
			c42.9,0,76.66,31.18,76.66,76.66C550.01,310.4,516.26,341.58,473.36,341.58z M588.81,540.66V425.8h-50.63v-32.82h141.59v32.82
			h-51.34v114.87H588.81z M660.01,146.73v-25.58h25.58v25.58H660.01z M769.54,1189.97c0-0.39-0.04-0.89-0.14-1.34
			c-0.35,0.19-0.74,0.29-1.17,0.29c-1.94,0-3.13-1.88-3.13-4.47c0-0.74,0.08-1.4,0.27-2c-0.1-0.12-0.25-0.19-0.43-0.19
			c-0.31,0-0.56,0.23-0.56,0.78v3.81c0,2.08-1.09,3.13-2.64,3.13c-2.29,0-3.34-2.78-3.34-5.77c0-2.62,0.52-4.89,2.25-4.89
			c0.8,0,1.44,0.72,1.53,1.75c0.27-0.82,1.01-1.32,1.79-1.32c0.89,0,1.57,0.58,1.94,1.57c0.54-0.82,1.32-1.32,2.33-1.32
			c1.96,0,3.15,1.86,3.15,4.43c0,1.11-0.27,2.16-0.74,2.95c0.76,0.56,1.42,1.57,1.42,2.58H769.54z M761.72,986.5
			c0-1.79,0.93-2.97,2.49-2.97c1.77,0,2.54,1.28,2.89,3.28l0.43,2.58h0.14c0.76,0,1.22-0.35,1.22-1.15c0-0.74-0.47-1.11-1.15-1.26
			l0.21-3.09c2.02,0.29,3.42,1.79,3.42,4.56c0,2.43-1.05,4.23-3.61,4.23h-3.13c-0.47,0-0.68,0.21-0.68,0.56
			c0,0.27,0.04,0.47,0.14,0.74h-1.77c-0.33-0.47-0.6-1.13-0.6-2.08c0-1.13,0.58-2.02,1.63-2.33
			C762.28,989.01,761.72,987.96,761.72,986.5z M764.09,1029.12h-1.77c-0.33-0.47-0.6-1.13-0.6-2.08c0-1.13,0.58-2.02,1.63-2.33
			c-1.07-0.54-1.63-1.59-1.63-3.05c0-1.79,0.93-2.97,2.49-2.97c1.77,0,2.54,1.28,2.89,3.28l0.43,2.58h0.14
			c0.76,0,1.22-0.35,1.22-1.15c0-0.74-0.47-1.11-1.15-1.26l0.21-3.09c2.02,0.29,3.42,1.79,3.42,4.56c0,2.43-1.05,4.23-3.61,4.23
			h-3.13c-0.47,0-0.68,0.21-0.68,0.56C763.95,1028.65,763.99,1028.86,764.09,1029.12z M771.37,1062.1c0,2.54-1.75,3.28-3.67,3.28
			h-5.77v-3.34h4.89c1.26,0,1.92-0.23,1.92-1.24c0-1.11-0.91-1.48-2.29-1.48h-4.51v-3.34h4.89c1.26,0,1.92-0.25,1.92-1.26
			c0-1.09-0.91-1.48-2.29-1.48h-4.51v-3.34h9.19v3.34h-1.38c1.01,0.49,1.63,1.48,1.63,2.87c0,1.63-0.74,2.47-1.81,2.87
			C770.59,1059.46,771.37,1060.55,771.37,1062.1z M768.28,1048.5l-0.08-2.74c0.66-0.12,1.07-0.7,1.07-1.73
			c0-0.64-0.25-1.01-0.66-1.01c-0.31,0-0.47,0.25-0.51,0.56l-0.31,1.79c-0.33,2.06-1.26,3.26-3.05,3.26c-1.94,0-3.05-1.65-3.05-4.27
			c0-2.54,1.01-4.43,3.24-4.62l0.04,2.91c-0.76,0.12-1.2,0.74-1.2,1.75c0,0.74,0.27,1.13,0.64,1.13c0.35,0,0.6-0.21,0.7-0.85
			l0.21-1.36c0.35-2.23,1.07-3.4,2.95-3.4c1.81,0,3.11,1.59,3.11,4.16C771.37,1046.74,770.2,1048.31,768.28,1048.5z M764.4,1081.16
			c0.35,0,0.6-0.21,0.7-0.85l0.21-1.36c0.35-2.23,1.07-3.4,2.95-3.4c1.81,0,3.11,1.59,3.11,4.16c0,2.66-1.17,4.23-3.09,4.41
			l-0.08-2.74c0.66-0.12,1.07-0.7,1.07-1.73c0-0.64-0.25-1.01-0.66-1.01c-0.31,0-0.47,0.25-0.51,0.56l-0.31,1.79
			c-0.33,2.06-1.26,3.26-3.05,3.26c-1.94,0-3.05-1.65-3.05-4.27c0-2.54,1.01-4.43,3.24-4.62l0.04,2.91c-0.76,0.12-1.2,0.74-1.2,1.75
			C763.76,1080.77,764.03,1081.16,764.4,1081.16z M766.13,1175.52h-4.21v-3.34h9.19v3.34h-1.63c1.03,0.33,1.88,1.3,1.88,2.51
			c0,0.56-0.17,1.05-0.35,1.28l-3.15-0.21c0.27-0.45,0.39-0.95,0.39-1.59C768.26,1176.28,767.68,1175.52,766.13,1175.52z
			 M766.53,1170.86c-2.87,0-4.84-2.04-4.84-5.03c0-3.01,1.98-5.03,4.84-5.03c2.85,0,4.84,2.02,4.84,5.03
			C771.37,1168.82,769.37,1170.86,766.53,1170.86z M761.93,1157.92v-3.55h3.55v3.55H761.93z M768.28,1151.4l-0.08-2.74
			c0.66-0.12,1.07-0.7,1.07-1.73c0-0.64-0.25-1.01-0.66-1.01c-0.31,0-0.47,0.25-0.51,0.56l-0.31,1.79
			c-0.33,2.06-1.26,3.26-3.05,3.26c-1.94,0-3.05-1.65-3.05-4.27c0-2.54,1.01-4.43,3.24-4.62l0.04,2.91c-0.76,0.12-1.2,0.74-1.2,1.75
			c0,0.74,0.27,1.13,0.64,1.13c0.35,0,0.6-0.21,0.7-0.85l0.21-1.36c0.35-2.23,1.07-3.4,2.95-3.4c1.81,0,3.11,1.59,3.11,4.16
			C771.37,1149.65,770.2,1151.22,768.28,1151.4z M766.61,1138.15h4.51v3.34h-9.19v-3.34h1.38c-1.03-0.49-1.63-1.5-1.63-2.89
			c0-2.52,1.73-3.28,3.65-3.28h5.79v3.34h-4.91c-1.24,0-1.92,0.35-1.92,1.36C764.3,1137.74,765.21,1138.15,766.61,1138.15z
			 M771.02,1131.06l-3.15-0.21c0.27-0.45,0.39-0.95,0.39-1.59c0-1.24-0.58-2-2.12-2h-4.21v-3.34h9.19v3.34h-1.63
			c1.03,0.33,1.88,1.3,1.88,2.51C771.37,1130.34,771.21,1130.83,771.02,1131.06z M771.12,1122.12h-9.19v-3.34h9.19V1122.12z
			 M771.12,1038.58h-9.19v-3.34h9.19V1038.58z M771.12,1015.48v2.39h-2.31v-2.39h-3.36c-0.78,0-1.09,0.37-1.09,1.05
			c0,0.41,0.08,0.87,0.31,1.42h-2.16c-0.52-0.7-0.82-1.5-0.82-2.76c0-1.55,0.64-3.01,2.8-3.01h4.33v-1.24h2.06l0.1,0.68
			c0.14,0.93,0.64,1.22,1.48,1.44l1.2,0.31v2.1H771.12z M761.93,1010.04v-3.34h9.19v3.34H761.93z M771.12,994.93v3.34h-1.59
			c1.09,0.45,1.83,1.48,1.83,3.03c0,2.7-2.14,4.08-4.84,4.08c-2.72,0-4.84-1.38-4.84-4.08c0-1.55,0.74-2.58,1.81-3.03h-4.86v-3.34
			H771.12z M774.92,1122.14h-2.93v-3.38h2.93V1122.14z M774.92,1107.87l-8.64,3.22v0.08l8.64,3.22v3.48l-12.99-4.99v-3.69
			l12.99-4.99V1107.87z M774.92,1097.18l-12.99,5.17v-3.73l2.51-0.97v-5.07l-2.51-0.97v-3.53l12.99,5.17V1097.18z M774.92,1074.13
			h-12.99v-3.5h12.99V1074.13z M774.92,1038.6h-2.93v-3.38h2.93V1038.6z M774.92,1033.43h-12.99v-3.34h12.99V1033.43z
			 M774.92,1010.06h-2.93v-3.38h2.93V1010.06z M761.93,954.74l5.19-1.34v-0.08l-5.19-1.34v-3.28l9.06-2.86l-9.06-2.86v-3.28
			l5.19-1.34v-0.08l-5.19-1.34v-3.28l9.06-2.86l-9.06-2.86v-3.28l5.19-1.34v-0.08l-5.19-1.34v-3.28l9.19-2.91v3.32l-5.22,1.65v0.08
			l5.22,1.34v2.66l-5.22,1.34v0.08l5.22,1.65v2.92v0.09v3.23l-5.22,1.65v0.08l5.22,1.34v2.66l-5.22,1.34v0.08l5.22,1.65v2.92v0.09
			v3.23l-5.22,1.65v0.08l5.22,1.34v2.66l-5.22,1.34v0.08l5.22,1.65v3.01l-9.19-2.91V954.74z M761.93,963.35h3.55v3.55h-3.55V963.35z
			 M768.42,969.78c4,0,6.74,2.87,6.74,6.66c0,3.98-2.54,6.1-5.77,6.35l-0.12-3.36c1.44-0.21,2.78-0.99,2.78-3.01
			c0-1.92-1.42-3.03-3.63-3.03c-2.21,0-3.63,1.11-3.63,3.03c0,2.02,1.34,2.8,2.78,3.01l-0.14,3.36c-3.24-0.25-5.75-2.37-5.75-6.35
			C761.68,972.65,764.42,969.78,768.42,969.78z M740.22,765.92c0.58,2.09,0.77,4.21,0.64,6.28c3.39,0.08,6.82,1.01,9.95,2.91
			c9.28,5.62,12.43,17.45,7.03,26.38l-13.81,22.81c5.32,43.1-12.35,59.36-22.1,68.32c-10.46,9.6-8.51,50.46-5.28,118.15
			c2.37,49.72,5.62,117.83,5.62,205.32c0,3.24-2.63,5.87-5.87,5.87c-2.6,0-4.79-1.69-5.57-4.02c-0.19-0.58-0.3-1.2-0.3-1.84
			c0-87.22-3.24-155.16-5.61-204.77c-3.73-78.3-5.44-114.03,9.06-127.35c7.3-6.71,18.47-16.98,19.24-41.85l-0.16,0.27
			c-2.65,4.38-6.92,7.4-12.02,8.5c-1.38,0.3-2.78,0.45-4.17,0.45c-3.63,0-7.23-1-10.44-2.95c-4.44-2.69-7.63-6.88-8.99-11.79
			c0-0.01,0-0.02-0.01-0.04c-1.37,0.3-2.77,0.46-4.19,0.46c-3,0-6.05-0.69-8.91-2.1c1.47,3.62,2.43,7.15,3.04,10.39
			c2.55,13.51-0.3,24.77-0.42,25.24c-0.81,3.14-4.02,5.02-7.15,4.21c-3.13-0.81-5.01-4-4.21-7.13c0.38-1.48,8.8-36.53-25.97-50.96
			c-1.56-0.65-2.77-1.94-3.31-3.54c-0.54-1.6-0.36-3.36,0.49-4.82c1.93-3.32,4.22-7.27,4.22-7.27c1.49-2.57,4.66-3.62,7.39-2.45
			c0.26,0.1,7.53,2.98,14.25-1.39c3.29-2.14,5.34-4.47,6.59-6.38c-9.95-4.75-31.35-14.94-35.8-16.78
			c-3.52-1.46-7.58,0.73-12.05,6.49l-0.87,1.11c-25.02,32.16-24.51,42.24-24.34,45.55c0.51,9.93,12.14,26.15,19.83,36.88
			c3.52,4.91,6.56,9.14,8.35,12.37c7.23,12.99,5.67,52.42,1.76,133.26c-2.75,56.85-6.17,127.6-6.17,206.41
			c0,0.65-0.11,1.26-0.3,1.84c-0.77,2.34-2.97,4.02-5.57,4.02c-3.24,0-5.87-2.63-5.87-5.87c0-79.1,3.43-150,6.18-206.98
			c3.14-65.01,5.62-116.35-0.3-126.99c-1.47-2.65-4.33-6.63-7.64-11.24c-9.5-13.25-21.33-29.75-22.01-43.11
			c-0.81-15.73,13.89-36.78,26.79-53.35l0.85-1.1c6.11-7.88,12.03-10.74,16.94-11.36l18.37-30.35c5.4-8.92,17.35-11.62,26.63-6
			c3.13,1.9,5.55,4.51,7.19,7.47c1.78-1.08,3.74-1.89,5.86-2.35c4.98-1.08,10.17-0.19,14.61,2.5c4.44,2.69,7.63,6.88,8.99,11.79
			c0.57,2.07,0.77,4.15,0.64,6.21c3.42,0.1,6.8,1.08,9.84,2.91C735.68,756.82,738.87,761.01,740.22,765.92z M692.65,540.66v-40.32
			h40.32v40.32H692.65z M732.97,430.95L725,491.43h-24.38l-7.97-60.48v-37.98h40.32V430.95z M672.36,51.24
			c22.76,0,35.7,12.79,35.7,28.86c0,12.2-7.44,19.04-15.92,25.29c-4.76,3.57-7.29,6.4-7.59,10.11H661.2
			c0.3-7.14,3.27-13.83,9.82-19.04c5.95-4.76,10.56-8.33,10.56-15.02c0-4.76-3.12-8.78-9.37-8.78c-8.48,0-11.45,5.95-11.45,13.54
			c0,3.57,0.45,5.8,1.04,7.73l-24.69-0.74c-0.59-2.98-1.19-5.95-1.19-8.78C635.92,64.33,650.79,51.24,672.36,51.24z M558.28,53.02
			h24.1v50.28l22.76-22.91h28.26l-27.37,26.03l28.26,40.31h-27.07l-19.04-26.92l-5.8,5.95v20.97h-24.1V53.02z M550.84,81.14
			l-1.49,22.76c-3.27-1.93-6.84-2.83-11.45-2.83c-8.92,0-14.43,4.17-14.43,15.32v30.34h-24.1V80.39h24.1v11.75
			c2.38-7.44,9.37-13.54,18.15-13.54C545.63,78.61,549.2,79.8,550.84,81.14z M523.04,21.53c0-0.89,0.58-1.57,1.57-1.94
			c-0.82-0.54-1.32-1.32-1.32-2.33c0-1.96,1.86-3.15,4.43-3.15c1.11,0,2.16,0.27,2.95,0.74c0.56-0.76,1.57-1.42,2.58-1.42v2.51
			c-0.39,0-0.89,0.04-1.34,0.14c0.19,0.35,0.29,0.74,0.29,1.17c0,1.94-1.88,3.13-4.47,3.13c-0.74,0-1.4-0.08-2-0.27
			c-0.12,0.1-0.19,0.25-0.19,0.43c0,0.31,0.23,0.56,0.78,0.56h3.81c2.08,0,3.13,1.09,3.13,2.64c0,2.29-2.78,3.34-5.77,3.34
			c-2.62,0-4.89-0.52-4.89-2.25c0-0.8,0.72-1.44,1.75-1.53C523.53,23.06,523.04,22.32,523.04,21.53z M515.45,14.36h3.34v1.63
			c0.33-1.03,1.3-1.88,2.52-1.88c0.56,0,1.05,0.16,1.28,0.35l-0.21,3.15c-0.45-0.27-0.95-0.39-1.59-0.39c-1.24,0-2,0.58-2,2.12v4.21
			h-3.34V14.36z M509.1,14.11c2.99,0,5.03,2,5.03,4.84c0,2.87-2.04,4.84-5.03,4.84c-3.01,0-5.03-1.98-5.03-4.84
			C504.07,16.11,506.09,14.11,509.1,14.11z M497.64,20.01h3.55v3.55h-3.55V20.01z M490.87,20.38l-1.36-0.21
			c-2.23-0.35-3.4-1.07-3.4-2.95c0-1.81,1.59-3.11,4.16-3.11c2.66,0,4.23,1.18,4.41,3.09l-2.74,0.08c-0.12-0.66-0.7-1.07-1.73-1.07
			c-0.64,0-1.01,0.25-1.01,0.66c0,0.31,0.25,0.47,0.56,0.52l1.79,0.31c2.06,0.33,3.26,1.26,3.26,3.05c0,1.94-1.65,3.05-4.27,3.05
			c-2.54,0-4.43-1.01-4.62-3.24l2.91-0.04c0.12,0.76,0.74,1.2,1.75,1.2c0.74,0,1.13-0.27,1.13-0.64
			C491.71,20.73,491.5,20.48,490.87,20.38z M475.26,14.36h3.34v4.91c0,1.24,0.35,1.92,1.36,1.92c1.05,0,1.46-0.91,1.46-2.31v-4.51
			h3.34v9.19h-3.34v-1.38c-0.5,1.03-1.5,1.63-2.89,1.63c-2.52,0-3.28-1.73-3.28-3.65V14.36z M467.2,14.36h3.34v1.63
			c0.33-1.03,1.3-1.88,2.51-1.88c0.56,0,1.05,0.16,1.28,0.35l-0.21,3.15c-0.45-0.27-0.95-0.39-1.59-0.39c-1.24,0-2,0.58-2,2.12v4.21
			h-3.34V14.36z M462.03,10.57h3.38v2.93h-3.38V10.57z M451.15,10.57l3.22,8.64h0.08l3.22-8.64h3.48l-4.99,12.99h-3.69l-4.99-12.99
			H451.15z M436.54,10.57h3.92l5.17,12.99h-3.73l-0.97-2.52h-5.07l-0.97,2.52h-3.52L436.54,10.57z M423.59,20.38l-1.36-0.21
			c-2.23-0.35-3.4-1.07-3.4-2.95c0-1.81,1.59-3.11,4.16-3.11c2.66,0,4.23,1.18,4.41,3.09l-2.74,0.08c-0.12-0.66-0.7-1.07-1.73-1.07
			c-0.64,0-1.01,0.25-1.01,0.66c0,0.31,0.25,0.47,0.56,0.52l1.79,0.31c2.06,0.33,3.26,1.26,3.26,3.05c0,1.94-1.65,3.05-4.27,3.05
			c-2.54,0-4.43-1.01-4.62-3.24l2.91-0.04c0.12,0.76,0.74,1.2,1.75,1.2c0.74,0,1.13-0.27,1.13-0.64
			C424.44,20.73,424.23,20.48,423.59,20.38z M413.91,10.57h3.5v12.99h-3.5V10.57z M393.17,14.36h3.34v1.38
			c0.5-1.01,1.48-1.63,2.87-1.63c1.63,0,2.47,0.74,2.87,1.81c0.49-1.03,1.59-1.81,3.13-1.81c2.54,0,3.28,1.75,3.28,3.67v5.77h-3.34
			v-4.89c0-1.26-0.23-1.92-1.24-1.92c-1.11,0-1.48,0.91-1.48,2.29v4.51h-3.34v-4.89c0-1.26-0.25-1.92-1.26-1.92
			c-1.09,0-1.48,0.91-1.48,2.29v4.51h-3.34V14.36z M387.96,20.38l-1.36-0.21c-2.23-0.35-3.4-1.07-3.4-2.95
			c0-1.81,1.59-3.11,4.16-3.11c2.66,0,4.23,1.18,4.41,3.09l-2.74,0.08c-0.12-0.66-0.7-1.07-1.73-1.07c-0.64,0-1.01,0.25-1.01,0.66
			c0,0.31,0.25,0.47,0.56,0.52l1.79,0.31c2.06,0.33,3.26,1.26,3.26,3.05c0,1.94-1.65,3.05-4.27,3.05c-2.54,0-4.43-1.01-4.62-3.24
			l2.91-0.04c0.12,0.76,0.74,1.2,1.75,1.2c0.74,0,1.13-0.27,1.13-0.64C388.8,20.73,388.6,20.48,387.96,20.38z M378.5,10.57h3.38
			v2.93h-3.38V10.57z M373.37,10.57h3.34v12.99h-3.34V10.57z M366.67,16.59c-0.74,0-1.11,0.47-1.26,1.15l-3.09-0.21
			c0.29-2.02,1.79-3.42,4.56-3.42c2.43,0,4.23,1.05,4.23,3.61v3.13c0,0.47,0.21,0.68,0.56,0.68c0.27,0,0.47-0.04,0.74-0.14v1.77
			c-0.47,0.33-1.13,0.6-2.08,0.6c-1.13,0-2.02-0.58-2.33-1.63c-0.54,1.07-1.59,1.63-3.05,1.63c-1.79,0-2.97-0.93-2.97-2.49
			c0-1.77,1.28-2.54,3.28-2.89l2.58-0.43V17.8C367.82,17.04,367.47,16.59,366.67,16.59z M354.22,14.61l0.68-0.1
			c0.93-0.14,1.22-0.64,1.44-1.48l0.31-1.2h2.1v2.54h2.39v2.31h-2.39v3.36c0,0.78,0.37,1.09,1.05,1.09c0.41,0,0.87-0.08,1.42-0.31
			v2.16c-0.7,0.52-1.5,0.82-2.76,0.82c-1.55,0-3.01-0.64-3.01-2.8v-4.33h-1.24V14.61z M349.95,10.57h3.38v2.93h-3.38V10.57z
			 M338.2,14.36h3.34v1.59c0.45-1.09,1.48-1.83,3.03-1.83c2.7,0,4.08,2.14,4.08,4.84c0,2.72-1.38,4.84-4.08,4.84
			c-1.55,0-2.58-0.74-3.03-1.81v4.87h-3.34V14.36z M331.51,16.59c-0.74,0-1.11,0.47-1.26,1.15l-3.09-0.21
			c0.29-2.02,1.79-3.42,4.56-3.42c2.43,0,4.23,1.05,4.23,3.61v3.13c0,0.47,0.21,0.68,0.56,0.68c0.27,0,0.47-0.04,0.74-0.14v1.77
			c-0.47,0.33-1.13,0.6-2.08,0.6c-1.13,0-2.02-0.58-2.33-1.63c-0.54,1.07-1.59,1.63-3.05,1.63c-1.79,0-2.97-0.93-2.97-2.49
			c0-1.77,1.28-2.54,3.28-2.89l2.58-0.43V17.8C332.66,17.04,332.31,16.59,331.51,16.59z M319.72,10.32c3.98,0,6.1,2.54,6.35,5.77
			l-3.36,0.12c-0.21-1.44-0.99-2.78-3.01-2.78c-1.92,0-3.03,1.42-3.03,3.63s1.11,3.63,3.03,3.63c2.02,0,2.8-1.34,3.01-2.78
			l3.36,0.14c-0.25,3.24-2.37,5.75-6.35,5.75c-3.79,0-6.66-2.74-6.66-6.74S315.92,10.32,319.72,10.32z M306.63,20.01h3.55v3.55
			h-3.55V20.01z M262.3,14.36l1.65,5.22h0.08l1.34-5.22h2.66l1.34,5.22h0.08l1.65-5.22h2.92h0.09h3.23l1.65,5.22h0.08l1.34-5.22
			h2.66l1.34,5.22h0.08l1.65-5.22h2.92h0.08h3.23l1.65,5.22h0.08l1.34-5.22h2.66l1.34,5.22h0.08l1.65-5.22h3.01l-2.91,9.19h-3.28
			l-1.34-5.19h-0.08l-1.34,5.19h-3.28l-2.86-9.06l-2.86,9.06h-3.28l-1.34-5.19h-0.08l-1.34,5.19h-3.28l-2.86-9.06l-2.86,9.06h-3.28
			l-1.34-5.19h-0.08l-1.34,5.19h-3.28l-2.91-9.19H262.3z M218.41,78.61c21.57,0,36.29,14.43,36.29,34.95
			c0,20.68-14.72,34.95-36.29,34.95c-21.72,0-36.29-14.28-36.29-34.95C182.11,93.04,196.69,78.61,218.41,78.61z M237.19,439.86
			c0,21.57-13.36,35.63-31.41,37.98c15.24,3.05,24.15,11.72,25.79,28.83c2.11,22.04,2.81,28.6,7.74,33.99h-40.32
			c-3.05-3.99-4.92-13.13-6.1-28.37c-1.17-16.88-8.44-20.63-21.8-20.63h-26.49v48.99h-39.15V392.98h74.55
			C218.2,392.98,237.19,411.03,237.19,439.86z M88.11,53.02h24.1l36.59,51.91V53.02H172v93.71h-20.23l-40.46-55.48v55.48h-23.2
			V53.02z M57.31,774.41l0.85-1.1c6.11-7.88,12.04-10.74,16.94-11.36l18.37-30.35c5.4-8.92,17.35-11.62,26.63-6
			c3.13,1.9,5.55,4.51,7.19,7.47c1.78-1.08,3.74-1.89,5.86-2.35c4.98-1.08,10.17-0.19,14.61,2.5c4.44,2.69,7.63,6.88,8.99,11.79
			c0.57,2.07,0.77,4.15,0.64,6.21c3.42,0.1,6.8,1.08,9.84,2.91c4.44,2.69,7.63,6.88,8.99,11.79c0.58,2.09,0.77,4.21,0.64,6.28
			c3.39,0.08,6.82,1.01,9.95,2.91c9.28,5.62,12.43,17.45,7.03,26.38l-13.81,22.81c5.32,43.1-12.35,59.36-22.1,68.32
			c-10.46,9.6-8.51,50.46-5.28,118.15c2.37,49.72,5.62,117.83,5.62,205.32c0,3.24-2.63,5.87-5.87,5.87c-2.6,0-4.79-1.69-5.57-4.02
			c-0.19-0.58-0.3-1.2-0.3-1.84c0-87.22-3.24-155.16-5.61-204.77c-3.73-78.3-5.44-114.03,9.06-127.35
			c7.3-6.71,18.47-16.98,19.24-41.85l-0.16,0.27c-2.65,4.38-6.92,7.4-12.02,8.5c-1.38,0.3-2.78,0.45-4.17,0.45
			c-3.63,0-7.23-1-10.44-2.95c-4.44-2.69-7.63-6.88-8.99-11.79c0-0.01,0-0.02-0.01-0.04c-1.37,0.3-2.77,0.46-4.19,0.46
			c-3,0-6.05-0.69-8.91-2.1c1.47,3.62,2.43,7.15,3.04,10.39c2.55,13.51-0.3,24.77-0.42,25.24c-0.82,3.14-4.02,5.02-7.15,4.21
			c-3.13-0.81-5.01-4-4.21-7.13c0.38-1.48,8.8-36.53-25.97-50.96c-1.56-0.65-2.77-1.94-3.31-3.54c-0.54-1.6-0.36-3.36,0.49-4.82
			c1.93-3.32,4.22-7.27,4.22-7.27c1.49-2.57,4.66-3.62,7.39-2.45c0.26,0.1,7.54,2.98,14.25-1.39c3.29-2.14,5.34-4.47,6.59-6.38
			c-9.95-4.75-31.35-14.94-35.8-16.78c-3.53-1.46-7.58,0.73-12.05,6.49l-0.87,1.11c-25.02,32.16-24.51,42.24-24.34,45.55
			c0.51,9.93,12.14,26.15,19.83,36.88c3.52,4.91,6.56,9.14,8.35,12.37c7.23,12.99,5.67,52.42,1.76,133.26
			c-2.75,56.85-6.17,127.6-6.17,206.41c0,0.65-0.11,1.26-0.3,1.84c-0.77,2.34-2.97,4.02-5.57,4.02c-3.24,0-5.87-2.63-5.87-5.87
			c0-79.1,3.43-150,6.18-206.98c3.14-65.01,5.62-116.35-0.3-126.99c-1.47-2.65-4.33-6.63-7.64-11.24
			c-9.5-13.25-21.33-29.75-22.01-43.11C29.71,812.03,44.41,790.98,57.31,774.41z"/>
		<path class="st5" d="M330.02,20.83c0,0.47,0.37,0.78,0.93,0.78c0.95,0,1.71-0.7,1.71-1.9v-0.14l-1.36,0.25
			C330.5,19.99,330.02,20.24,330.02,20.83z"/>
		<path class="st5" d="M342.57,592.46c0,1.34,0.72,2.21,1.86,2.21c1.3,0,1.9-0.93,1.9-2.27c0-1.32-0.6-2.25-1.9-2.25
			c-1.13,0-1.86,0.87-1.86,2.19V592.46z"/>
		<path class="st5" d="M365.18,20.83c0,0.47,0.37,0.78,0.93,0.78c0.95,0,1.71-0.7,1.71-1.9v-0.14l-1.36,0.25
			C365.66,19.99,365.18,20.24,365.18,20.83z"/>
		<polygon class="st5" points="438.43,14.59 438.35,14.59 436.87,18.42 439.92,18.42 		"/>
		<polygon class="st5" points="304.4,591.51 306.17,591.51 306.66,589.49 304.89,589.49 		"/>
		<path class="st5" d="M366.21,594.27c0,0.47,0.37,0.78,0.93,0.78c0.95,0,1.71-0.7,1.71-1.9v-0.14l-1.36,0.25
			C366.69,593.43,366.21,593.67,366.21,594.27z"/>
		<path class="st5" d="M218.41,130.37c8.33,0,12.05-6.84,12.05-16.81c0-9.97-3.72-16.81-12.05-16.81c-8.48,0-12.05,6.84-12.05,16.81
			C206.36,123.53,209.93,130.37,218.41,130.37z"/>
		<path class="st5" d="M441.51,113.56c0,9.97,3.57,16.81,12.05,16.81c8.33,0,12.05-6.84,12.05-16.81c0-9.97-3.72-16.81-12.05-16.81
			C445.08,96.75,441.51,103.6,441.51,113.56z"/>
		<path class="st5" d="M343.4,21.22c1.3,0,1.9-0.93,1.9-2.27c0-1.32-0.6-2.25-1.9-2.25c-1.13,0-1.86,0.87-1.86,2.19v0.12
			C341.54,20.36,342.26,21.22,343.4,21.22z"/>
		<path class="st5" d="M509.1,21.29c1.15,0,1.67-0.95,1.67-2.33c0-1.38-0.52-2.33-1.67-2.33c-1.17,0-1.67,0.95-1.67,2.33
			C507.43,20.34,507.93,21.29,509.1,21.29z"/>
		<path class="st5" d="M527.51,25.37c1.55,0,2.68-0.31,2.68-0.87c0-0.39-0.29-0.54-0.84-0.54h-3.38c-0.37,0-0.62,0.21-0.62,0.56
			C525.35,25.18,526.27,25.37,527.51,25.37z"/>
		<path class="st5" d="M527.76,18.61c0.56,0,0.97-0.52,0.97-1.34c0-0.8-0.41-1.32-0.97-1.32s-0.97,0.52-0.97,1.32
			C526.79,18.09,527.2,18.61,527.76,18.61z"/>
		<ellipse class="st5" cx="473.36" cy="264.92" rx="35.63" ry="41.49"/>
		<polygon class="st5" points="436.14,588.03 436.05,588.03 434.57,591.86 437.62,591.86 		"/>
		<path class="st5" d="M198.27,443.14c0-11.96-8.44-18.29-25.32-18.29h-28.37v36.1h28.37C189.83,460.96,198.27,456.74,198.27,443.14
			z"/>
		<polygon points="111.31,91.25 151.77,146.73 172,146.73 172,53.02 148.8,53.02 148.8,104.94 112.21,53.02 88.11,53.02 
			88.11,146.73 111.31,146.73 		"/>
		<path d="M218.41,148.52c21.57,0,36.29-14.28,36.29-34.95c0-20.53-14.72-34.95-36.29-34.95c-21.72,0-36.29,14.43-36.29,34.95
			C182.11,134.24,196.69,148.52,218.41,148.52z M218.41,96.75c8.33,0,12.05,6.84,12.05,16.81c0,9.97-3.72,16.81-12.05,16.81
			c-8.48,0-12.05-6.84-12.05-16.81C206.36,103.6,209.93,96.75,218.41,96.75z"/>
		<polygon points="325.2,111.78 324.61,111.78 309.73,53.02 284.44,53.02 308.99,146.73 335.46,146.73 351.08,87.53 351.68,87.53 
			367.29,146.73 394.22,146.73 418.76,53.02 394.37,53.02 379.49,111.78 378.9,111.78 363.43,53.02 340.67,53.02 		"/>
		<path d="M417.27,113.56c0,20.68,14.58,34.95,36.29,34.95c21.57,0,36.29-14.28,36.29-34.95c0-20.53-14.73-34.95-36.29-34.95
			C431.85,78.61,417.27,93.04,417.27,113.56z M465.61,113.56c0,9.97-3.72,16.81-12.05,16.81c-8.48,0-12.05-6.84-12.05-16.81
			c0-9.97,3.57-16.81,12.05-16.81C461.89,96.75,465.61,103.6,465.61,113.56z"/>
		<path d="M523.47,92.14V80.39h-24.1v66.34h24.1v-30.34c0-11.16,5.5-15.32,14.43-15.32c4.61,0,8.18,0.89,11.45,2.83l1.49-22.76
			c-1.64-1.34-5.21-2.53-9.22-2.53C532.84,78.61,525.85,84.71,523.47,92.14z"/>
		<polygon points="582.37,125.76 588.17,119.81 607.21,146.73 634.28,146.73 606.02,106.42 633.39,80.39 605.13,80.39 582.37,103.3 
			582.37,53.02 558.28,53.02 558.28,146.73 582.37,146.73 		"/>
		<path d="M661.8,93.93c-0.59-1.93-1.04-4.16-1.04-7.73c0-7.59,2.97-13.54,11.45-13.54c6.25,0,9.37,4.02,9.37,8.78
			c0,6.69-4.61,10.26-10.56,15.02c-6.54,5.21-9.52,11.9-9.82,19.04h23.35c0.3-3.72,2.83-6.54,7.59-10.11
			c8.48-6.25,15.92-13.09,15.92-25.29c0-16.06-12.94-28.86-35.7-28.86c-21.57,0-36.44,13.09-36.44,33.17c0,2.83,0.59,5.8,1.19,8.78
			L661.8,93.93z"/>
		<rect x="660.01" y="121.15" width="25.58" height="25.58"/>
		<polygon points="285.12,251.33 348.89,338.77 380.77,338.77 380.77,191.08 344.2,191.08 344.2,272.89 286.53,191.08 
			248.55,191.08 248.55,338.77 285.12,338.77 		"/>
		<path d="M473.36,188.27c-42.9,0-76.66,31.18-76.66,76.66c0,45.48,33.76,76.66,76.66,76.66c42.9,0,76.66-31.18,76.66-76.66
			C550.01,219.44,516.26,188.27,473.36,188.27z M473.36,306.42c-21.8,0-35.63-16.41-35.63-41.49s13.83-41.49,35.63-41.49
			c21.8,0,35.63,16.41,35.63,41.49S495.16,306.42,473.36,306.42z"/>
		<path d="M105.44,540.66h39.15v-48.99h26.49c13.36,0,20.63,3.75,21.8,20.63c1.17,15.24,3.05,24.38,6.1,28.37h40.32
			c-4.92-5.39-5.63-11.96-7.74-33.99c-1.64-17.11-10.55-25.79-25.79-28.83c18.05-2.34,31.41-16.41,31.41-37.98
			c0-28.83-18.99-46.88-57.2-46.88h-74.55V540.66z M144.59,424.86h28.37c16.88,0,25.32,6.33,25.32,18.29
			c0,13.6-8.44,17.82-25.32,17.82h-28.37V424.86z"/>
		<polygon points="371.04,507.84 293.91,507.84 293.91,482.29 351.81,482.29 351.81,449.94 293.91,449.94 293.91,425.8 
			368.93,425.8 368.93,392.98 254.76,392.98 254.76,540.66 371.04,540.66 		"/>
		<polygon points="484.49,474.79 426.83,392.98 388.85,392.98 388.85,540.66 425.42,540.66 425.42,453.22 489.18,540.66 
			521.06,540.66 521.06,392.98 484.49,392.98 		"/>
		<polygon points="628.42,425.8 679.76,425.8 679.76,392.98 538.17,392.98 538.17,425.8 588.81,425.8 588.81,540.66 628.42,540.66 
					"/>
		<polygon points="692.65,430.95 700.62,491.43 725,491.43 732.97,430.95 732.97,392.98 692.65,392.98 		"/>
		<rect x="692.65" y="500.34" width="40.32" height="40.32"/>
		<polygon points="265.16,23.55 266.5,18.36 266.58,18.36 267.92,23.55 271.2,23.55 274.07,14.5 276.93,23.55 280.21,23.55 
			281.55,18.36 281.63,18.36 282.97,23.55 286.25,23.55 289.11,14.49 291.98,23.55 295.25,23.55 296.59,18.36 296.68,18.36 
			298.02,23.55 301.29,23.55 304.2,14.36 301.19,14.36 299.54,19.58 299.46,19.58 298.12,14.36 295.46,14.36 294.12,19.58 
			294.04,19.58 292.39,14.36 289.15,14.36 289.07,14.36 286.14,14.36 284.5,19.58 284.41,19.58 283.07,14.36 280.41,14.36 
			279.07,19.58 278.99,19.58 277.34,14.36 274.11,14.36 274.02,14.36 271.1,14.36 269.45,19.58 269.37,19.58 268.03,14.36 
			265.37,14.36 264.03,19.58 263.95,19.58 262.3,14.36 258.98,14.36 261.88,23.55 		"/>
		<rect x="306.63" y="20.01" width="3.55" height="3.55"/>
		<path d="M319.72,23.8c3.98,0,6.1-2.52,6.35-5.75l-3.36-0.14c-0.21,1.44-0.99,2.78-3.01,2.78c-1.92,0-3.03-1.42-3.03-3.63
			s1.11-3.63,3.03-3.63c2.02,0,2.8,1.34,3.01,2.78l3.36-0.12c-0.25-3.24-2.37-5.77-6.35-5.77c-3.79,0-6.66,2.74-6.66,6.74
			S315.92,23.8,319.72,23.8z"/>
		<path d="M330.08,18.38c-2,0.35-3.28,1.11-3.28,2.89c0,1.57,1.17,2.49,2.97,2.49c1.46,0,2.51-0.56,3.05-1.63
			c0.31,1.05,1.2,1.63,2.33,1.63c0.95,0,1.61-0.27,2.08-0.6v-1.77c-0.27,0.1-0.47,0.14-0.74,0.14c-0.35,0-0.56-0.21-0.56-0.68v-3.13
			c0-2.56-1.79-3.61-4.23-3.61c-2.76,0-4.27,1.4-4.56,3.42l3.09,0.21c0.14-0.68,0.52-1.15,1.26-1.15c0.8,0,1.15,0.45,1.15,1.22v0.14
			L330.08,18.38z M332.66,19.72c0,1.2-0.76,1.9-1.71,1.9c-0.56,0-0.93-0.31-0.93-0.78c0-0.6,0.47-0.85,1.28-1.01l1.36-0.25V19.72z"
			/>
		<path d="M341.54,21.99c0.45,1.07,1.48,1.81,3.03,1.81c2.7,0,4.08-2.12,4.08-4.84c0-2.7-1.38-4.84-4.08-4.84
			c-1.55,0-2.58,0.74-3.03,1.83v-1.59h-3.34v12.49h3.34V21.99z M341.54,18.9c0-1.32,0.72-2.19,1.86-2.19c1.3,0,1.9,0.93,1.9,2.25
			c0,1.34-0.6,2.27-1.9,2.27c-1.13,0-1.86-0.87-1.86-2.21V18.9z"/>
		<rect x="349.95" y="10.57" width="3.38" height="2.93"/>
		<rect x="349.97" y="14.36" width="3.34" height="9.19"/>
		<path d="M355.46,21c0,2.16,1.46,2.8,3.01,2.8c1.26,0,2.06-0.31,2.76-0.82v-2.16c-0.56,0.23-1.01,0.31-1.42,0.31
			c-0.68,0-1.05-0.31-1.05-1.09v-3.36h2.39v-2.31h-2.39v-2.54h-2.1l-0.31,1.2c-0.23,0.85-0.52,1.34-1.44,1.48l-0.68,0.1v2.06h1.24
			V21z"/>
		<path d="M365.25,18.38c-2,0.35-3.28,1.11-3.28,2.89c0,1.57,1.17,2.49,2.97,2.49c1.46,0,2.52-0.56,3.05-1.63
			c0.31,1.05,1.2,1.63,2.33,1.63c0.95,0,1.61-0.27,2.08-0.6v-1.77c-0.27,0.1-0.47,0.14-0.74,0.14c-0.35,0-0.56-0.21-0.56-0.68v-3.13
			c0-2.56-1.79-3.61-4.23-3.61c-2.76,0-4.27,1.4-4.56,3.42l3.09,0.21c0.14-0.68,0.52-1.15,1.26-1.15c0.8,0,1.15,0.45,1.15,1.22v0.14
			L365.25,18.38z M367.82,19.72c0,1.2-0.76,1.9-1.71,1.9c-0.56,0-0.93-0.31-0.93-0.78c0-0.6,0.47-0.85,1.28-1.01l1.36-0.25V19.72z"
			/>
		<rect x="373.37" y="10.57" width="3.34" height="12.99"/>
		<rect x="378.52" y="14.36" width="3.34" height="9.19"/>
		<rect x="378.5" y="10.57" width="3.38" height="2.93"/>
		<path d="M387.67,21.72c-1.01,0-1.63-0.43-1.75-1.2l-2.91,0.04c0.19,2.23,2.08,3.24,4.62,3.24c2.62,0,4.27-1.11,4.27-3.05
			c0-1.79-1.2-2.72-3.26-3.05l-1.79-0.31c-0.31-0.04-0.56-0.21-0.56-0.52c0-0.41,0.37-0.66,1.01-0.66c1.03,0,1.61,0.41,1.73,1.07
			l2.74-0.08c-0.19-1.92-1.75-3.09-4.41-3.09c-2.58,0-4.16,1.3-4.16,3.11c0,1.88,1.17,2.6,3.4,2.95l1.36,0.21
			c0.64,0.1,0.84,0.35,0.84,0.7C388.8,21.45,388.41,21.72,387.67,21.72z"/>
		<path d="M396.51,19.04c0-1.38,0.39-2.29,1.48-2.29c1.01,0,1.26,0.66,1.26,1.92v4.89h3.34v-4.51c0-1.38,0.37-2.29,1.48-2.29
			c1.01,0,1.24,0.66,1.24,1.92v4.89h3.34v-5.77c0-1.92-0.74-3.67-3.28-3.67c-1.55,0-2.64,0.78-3.13,1.81
			c-0.39-1.07-1.24-1.81-2.87-1.81c-1.38,0-2.37,0.62-2.87,1.63v-1.38h-3.34v9.19h3.34V19.04z"/>
		<rect x="413.91" y="10.57" width="3.5" height="12.99"/>
		<path d="M423.3,21.72c-1.01,0-1.63-0.43-1.75-1.2l-2.91,0.04c0.19,2.23,2.08,3.24,4.62,3.24c2.62,0,4.27-1.11,4.27-3.05
			c0-1.79-1.2-2.72-3.26-3.05l-1.79-0.31c-0.31-0.04-0.56-0.21-0.56-0.52c0-0.41,0.37-0.66,1.01-0.66c1.03,0,1.61,0.41,1.73,1.07
			l2.74-0.08c-0.19-1.92-1.75-3.09-4.41-3.09c-2.58,0-4.16,1.3-4.16,3.11c0,1.88,1.17,2.6,3.4,2.95l1.36,0.21
			c0.64,0.1,0.84,0.35,0.84,0.7C424.44,21.45,424.05,21.72,423.3,21.72z"/>
		<path d="M435.86,21.04h5.07l0.97,2.52h3.73l-5.17-12.99h-3.92l-5.17,12.99h3.52L435.86,21.04z M438.35,14.59h0.08l1.48,3.83h-3.05
			L438.35,14.59z"/>
		<polygon points="456.16,23.55 461.15,10.57 457.66,10.57 454.45,19.2 454.36,19.2 451.15,10.57 447.48,10.57 452.47,23.55 		"/>
		<rect x="462.03" y="10.57" width="3.38" height="2.93"/>
		<rect x="462.05" y="14.36" width="3.34" height="9.19"/>
		<path d="M470.54,19.35c0-1.55,0.76-2.12,2-2.12c0.64,0,1.13,0.12,1.59,0.39l0.21-3.15c-0.23-0.19-0.72-0.35-1.28-0.35
			c-1.22,0-2.18,0.85-2.51,1.88v-1.63h-3.34v9.19h3.34V19.35z"/>
		<path d="M478.54,23.8c1.38,0,2.39-0.6,2.89-1.63v1.38h3.34v-9.19h-3.34v4.51c0,1.4-0.41,2.31-1.46,2.31
			c-1.01,0-1.36-0.68-1.36-1.92v-4.91h-3.34v5.79C475.26,22.07,476.02,23.8,478.54,23.8z"/>
		<path d="M490.58,21.72c-1.01,0-1.63-0.43-1.75-1.2l-2.91,0.04c0.19,2.23,2.08,3.24,4.62,3.24c2.62,0,4.27-1.11,4.27-3.05
			c0-1.79-1.2-2.72-3.26-3.05l-1.79-0.31c-0.31-0.04-0.56-0.21-0.56-0.52c0-0.41,0.37-0.66,1.01-0.66c1.03,0,1.61,0.41,1.73,1.07
			l2.74-0.08c-0.19-1.92-1.75-3.09-4.41-3.09c-2.58,0-4.16,1.3-4.16,3.11c0,1.88,1.17,2.6,3.4,2.95l1.36,0.21
			c0.64,0.1,0.84,0.35,0.84,0.7C491.71,21.45,491.32,21.72,490.58,21.72z"/>
		<rect x="497.64" y="20.01" width="3.55" height="3.55"/>
		<path d="M509.1,23.8c2.99,0,5.03-1.98,5.03-4.84c0-2.84-2.04-4.84-5.03-4.84c-3.01,0-5.03,2-5.03,4.84
			C504.07,21.82,506.09,23.8,509.1,23.8z M509.1,16.63c1.15,0,1.67,0.95,1.67,2.33c0,1.38-0.52,2.33-1.67,2.33
			c-1.17,0-1.67-0.95-1.67-2.33C507.43,17.58,507.93,16.63,509.1,16.63z"/>
		<path d="M518.79,19.35c0-1.55,0.76-2.12,2-2.12c0.64,0,1.13,0.12,1.59,0.39l0.21-3.15c-0.23-0.19-0.72-0.35-1.28-0.35
			c-1.22,0-2.19,0.85-2.52,1.88v-1.63h-3.34v9.19h3.34V19.35z"/>
		<path d="M522.6,24.85c0,1.73,2.27,2.25,4.89,2.25c2.99,0,5.77-1.05,5.77-3.34c0-1.55-1.05-2.64-3.13-2.64h-3.81
			c-0.56,0-0.78-0.25-0.78-0.56c0-0.19,0.06-0.33,0.19-0.43c0.6,0.19,1.26,0.27,2,0.27c2.6,0,4.47-1.2,4.47-3.13
			c0-0.43-0.1-0.82-0.29-1.17c0.45-0.1,0.95-0.14,1.34-0.14v-2.51c-1.01,0-2.02,0.66-2.58,1.42c-0.78-0.47-1.83-0.74-2.95-0.74
			c-2.58,0-4.43,1.2-4.43,3.15c0,1.01,0.5,1.79,1.32,2.33c-0.99,0.37-1.57,1.05-1.57,1.94c0,0.78,0.49,1.53,1.32,1.79
			C523.33,23.41,522.6,24.05,522.6,24.85z M527.76,15.95c0.56,0,0.97,0.52,0.97,1.32c0,0.82-0.41,1.34-0.97,1.34
			s-0.97-0.52-0.97-1.34C526.79,16.46,527.2,15.95,527.76,15.95z M525.96,23.97h3.38c0.56,0,0.84,0.14,0.84,0.54
			c0,0.56-1.13,0.87-2.68,0.87c-1.24,0-2.16-0.19-2.16-0.84C525.35,24.17,525.59,23.97,525.96,23.97z"/>
		<path d="M310.46,584.01h-2.49l-0.82,3.42h-1.77l0.83-3.42h-2.49l-0.83,3.42h-2.02l-0.43,2.06h1.98l-0.5,2.02h-1.88l-0.43,2.06
			h1.81l-0.8,3.42h2.49l0.8-3.42h1.77l-0.8,3.42h2.49l0.8-3.42h2.04l0.43-2.06h-1.98l0.5-2.02h1.88l0.43-2.06h-1.83L310.46,584.01z
			 M306.17,591.51h-1.77l0.5-2.02h1.77L306.17,591.51z"/>
		<path d="M320.73,586.87c2.02,0,2.8,1.34,3.01,2.78l3.36-0.12c-0.25-3.24-2.37-5.77-6.35-5.77c-3.79,0-6.66,2.74-6.66,6.74
			c0,4,2.87,6.74,6.66,6.74c3.98,0,6.1-2.52,6.35-5.75l-3.36-0.14c-0.21,1.44-0.99,2.78-3.01,2.78c-1.92,0-3.03-1.42-3.03-3.63
			C317.7,588.29,318.81,586.87,320.73,586.87z"/>
		<path d="M331.11,591.82c-2,0.35-3.28,1.11-3.28,2.89c0,1.57,1.17,2.49,2.97,2.49c1.46,0,2.51-0.56,3.05-1.63
			c0.31,1.05,1.2,1.63,2.33,1.63c0.95,0,1.61-0.27,2.08-0.6v-1.77c-0.27,0.1-0.47,0.14-0.74,0.14c-0.35,0-0.56-0.21-0.56-0.68v-3.13
			c0-2.56-1.79-3.61-4.23-3.61c-2.76,0-4.27,1.4-4.56,3.42l3.09,0.21c0.14-0.68,0.51-1.15,1.26-1.15c0.8,0,1.15,0.45,1.15,1.22v0.14
			L331.11,591.82z M333.69,593.16c0,1.2-0.76,1.9-1.71,1.9c-0.56,0-0.93-0.31-0.93-0.78c0-0.6,0.47-0.85,1.28-1.01l1.36-0.25V593.16
			z"/>
		<path d="M339.23,587.8v12.49h3.34v-4.87c0.45,1.07,1.48,1.81,3.03,1.81c2.7,0,4.08-2.12,4.08-4.84c0-2.7-1.38-4.84-4.08-4.84
			c-1.55,0-2.58,0.74-3.03,1.83v-1.59H339.23z M344.43,590.15c1.3,0,1.9,0.93,1.9,2.25c0,1.34-0.6,2.27-1.9,2.27
			c-1.13,0-1.86-0.87-1.86-2.21v-0.12C342.57,591.02,343.29,590.15,344.43,590.15z"/>
		<rect x="350.98" y="584.01" width="3.38" height="2.93"/>
		<rect x="351" y="587.8" width="3.34" height="9.19"/>
		<path d="M359.49,597.24c1.26,0,2.06-0.31,2.76-0.82v-2.16c-0.56,0.23-1.01,0.31-1.42,0.31c-0.68,0-1.05-0.31-1.05-1.09v-3.36h2.39
			v-2.31h-2.39v-2.54h-2.1l-0.31,1.2c-0.23,0.85-0.51,1.34-1.44,1.48l-0.68,0.1v2.06h1.24v4.33
			C356.48,596.6,357.95,597.24,359.49,597.24z"/>
		<path d="M366.27,591.82c-2,0.35-3.28,1.11-3.28,2.89c0,1.57,1.18,2.49,2.97,2.49c1.46,0,2.51-0.56,3.05-1.63
			c0.31,1.05,1.2,1.63,2.33,1.63c0.95,0,1.61-0.27,2.08-0.6v-1.77c-0.27,0.1-0.47,0.14-0.74,0.14c-0.35,0-0.56-0.21-0.56-0.68v-3.13
			c0-2.56-1.79-3.61-4.23-3.61c-2.76,0-4.27,1.4-4.56,3.42l3.09,0.21c0.14-0.68,0.51-1.15,1.26-1.15c0.8,0,1.15,0.45,1.15,1.22v0.14
			L366.27,591.82z M368.85,593.16c0,1.2-0.76,1.9-1.71,1.9c-0.56,0-0.93-0.31-0.93-0.78c0-0.6,0.47-0.85,1.28-1.01l1.36-0.25V593.16
			z"/>
		<rect x="374.39" y="584.01" width="3.34" height="12.99"/>
		<rect x="379.55" y="587.8" width="3.34" height="9.19"/>
		<rect x="379.53" y="584.01" width="3.38" height="2.93"/>
		<path d="M388.33,589.65c1.03,0,1.61,0.41,1.73,1.07l2.74-0.08c-0.19-1.92-1.75-3.09-4.41-3.09c-2.58,0-4.16,1.3-4.16,3.11
			c0,1.88,1.18,2.6,3.4,2.95l1.36,0.21c0.64,0.1,0.85,0.35,0.85,0.7c0,0.37-0.39,0.64-1.13,0.64c-1.01,0-1.63-0.43-1.75-1.2
			l-2.91,0.04c0.19,2.23,2.08,3.24,4.62,3.24c2.62,0,4.27-1.11,4.27-3.05c0-1.79-1.2-2.72-3.26-3.05l-1.79-0.31
			c-0.31-0.04-0.56-0.21-0.56-0.52C387.32,589.9,387.69,589.65,388.33,589.65z"/>
		<path d="M394.2,587.8v9.19h3.34v-4.51c0-1.38,0.39-2.29,1.48-2.29c1.01,0,1.26,0.66,1.26,1.92v4.89h3.34v-4.51
			c0-1.38,0.37-2.29,1.48-2.29c1.01,0,1.24,0.66,1.24,1.92v4.89h3.34v-5.77c0-1.92-0.74-3.67-3.28-3.67c-1.55,0-2.64,0.78-3.13,1.81
			c-0.39-1.07-1.24-1.81-2.87-1.81c-1.38,0-2.37,0.62-2.87,1.63v-1.38H394.2z"/>
		<rect x="413.27" y="584.01" width="3.5" height="12.99"/>
		<path d="M422.67,595.16c-1.01,0-1.63-0.43-1.75-1.2l-2.91,0.04c0.19,2.23,2.08,3.24,4.62,3.24c2.62,0,4.27-1.11,4.27-3.05
			c0-1.79-1.2-2.72-3.26-3.05l-1.79-0.31c-0.31-0.04-0.56-0.21-0.56-0.52c0-0.41,0.37-0.66,1.01-0.66c1.03,0,1.61,0.41,1.73,1.07
			l2.74-0.08c-0.19-1.92-1.75-3.09-4.41-3.09c-2.58,0-4.16,1.3-4.16,3.11c0,1.88,1.18,2.6,3.4,2.95l1.36,0.21
			c0.64,0.1,0.85,0.35,0.85,0.7C423.8,594.89,423.41,595.16,422.67,595.16z"/>
		<path d="M433.56,594.48h5.07l0.97,2.51h3.73l-5.17-12.99h-3.92l-5.17,12.99h3.52L433.56,594.48z M436.05,588.03h0.08l1.48,3.83
			h-3.05L436.05,588.03z"/>
		<polygon points="453.81,596.99 458.8,584.01 455.31,584.01 452.1,592.64 452.01,592.64 448.8,584.01 445.13,584.01 450.12,596.99 
					"/>
		<rect x="459.68" y="584.01" width="3.38" height="2.93"/>
		<rect x="459.7" y="587.8" width="3.34" height="9.19"/>
		<path d="M464.85,587.8v9.19h3.34v-4.21c0-1.55,0.76-2.12,2-2.12c0.64,0,1.13,0.12,1.59,0.39l0.21-3.15
			c-0.23-0.19-0.72-0.35-1.28-0.35c-1.22,0-2.19,0.85-2.52,1.88v-1.63H464.85z"/>
		<path d="M479.07,592.31c0,1.4-0.41,2.31-1.46,2.31c-1.01,0-1.36-0.68-1.36-1.92v-4.91h-3.34v5.79c0,1.92,0.76,3.65,3.28,3.65
			c1.38,0,2.39-0.6,2.89-1.63v1.38h3.34v-9.19h-3.34V592.31z"/>
		<path d="M489.19,591.14l-1.79-0.31c-0.31-0.04-0.56-0.21-0.56-0.52c0-0.41,0.37-0.66,1.01-0.66c1.03,0,1.61,0.41,1.73,1.07
			l2.74-0.08c-0.19-1.92-1.75-3.09-4.41-3.09c-2.58,0-4.16,1.3-4.16,3.11c0,1.88,1.17,2.6,3.4,2.95l1.36,0.21
			c0.64,0.1,0.85,0.35,0.85,0.7c0,0.37-0.39,0.64-1.13,0.64c-1.01,0-1.63-0.43-1.75-1.2l-2.91,0.04c0.19,2.23,2.08,3.24,4.62,3.24
			c2.62,0,4.27-1.11,4.27-3.05C492.45,592.4,491.26,591.47,489.19,591.14z"/>
	</g>
</g>
</svg>
