<?xml version="1.0" encoding="utf-8"?>
<!-- Generator: Adobe Illustrator 23.1.1, SVG Export Plug-In . SVG Version: 6.00 Build 0)  -->
<svg version="1.1" xmlns="http://www.w3.org/2000/svg" xmlns:xlink="http://www.w3.org/1999/xlink" x="0px" y="0px"
	 viewBox="0 0 792 612" style="enable-background:new 0 0 792 612;" xml:space="preserve">
<style type="text/css">
	.st0{display:none;}
	.st1{display:inline;fill:#FFFFFF;}
	.st2{display:inline;}
	.st3{fill:#FFFFFF;stroke:#000000;stroke-width:16;stroke-linecap:round;stroke-linejoin:round;stroke-miterlimit:10;}
	.st4{fill:none;stroke:#000000;stroke-width:24;stroke-linejoin:round;stroke-miterlimit:10;}
	.st5{fill:#FFFFFF;}
	.st6{fill:#FFFFFF;stroke:#000000;stroke-width:17;stroke-linecap:round;stroke-miterlimit:10;}
	.st7{fill:#FFFFFF;stroke:#000000;stroke-width:17;stroke-miterlimit:10;}
	.st8{stroke:#000000;stroke-width:16.0572;stroke-linecap:round;stroke-miterlimit:10;}
	.st9{fill:#FFFFFF;stroke:#000000;stroke-width:13.497;stroke-linecap:round;stroke-linejoin:round;stroke-miterlimit:10;}
	.st10{stroke:#000000;stroke-width:18.3348;stroke-linecap:round;stroke-miterlimit:10;}
	.st11{fill:none;stroke:#000000;stroke-width:13.497;stroke-linecap:round;stroke-linejoin:round;stroke-miterlimit:10;}
	.st12{fill:#FFFFFF;stroke:#000000;stroke-width:14.6942;stroke-linecap:round;stroke-linejoin:round;stroke-miterlimit:10;}
	.st13{fill:none;stroke:#000000;stroke-width:13;stroke-linecap:round;stroke-linejoin:round;stroke-miterlimit:10;}
	.st14{fill:none;stroke:#000000;stroke-width:13;stroke-linejoin:round;stroke-miterlimit:10;}
	.st15{fill:url(#);stroke:#000000;stroke-width:13;stroke-linejoin:round;stroke-miterlimit:10;}
	.st16{fill:none;stroke:#000000;stroke-width:30.5612;stroke-linecap:round;stroke-linejoin:round;stroke-miterlimit:10;}
	.st17{fill:#FFFFFF;stroke:#000000;stroke-width:16.2993;stroke-linecap:round;stroke-linejoin:round;stroke-miterlimit:10;}
	.st18{fill:#FFFFFF;stroke:#000000;stroke-width:13.497;stroke-linecap:round;stroke-miterlimit:10;}
	.st19{fill:url(#);stroke:#000000;stroke-width:13.497;stroke-linecap:round;stroke-linejoin:round;stroke-miterlimit:10;}
	.st20{fill:#FFFFFF;stroke:#000000;stroke-width:11.7326;stroke-linecap:round;stroke-linejoin:round;stroke-miterlimit:10;}
	.st21{fill:#FFFFFF;stroke:#000000;stroke-width:13.2623;stroke-linecap:round;stroke-linejoin:round;stroke-miterlimit:10;}
	.st22{fill:#FFFFFF;stroke:#000000;stroke-width:13.2623;stroke-linecap:round;stroke-miterlimit:10;}
	.st23{stroke:#000000;stroke-width:4.5213;stroke-miterlimit:10;}
	.st24{fill:none;stroke:#000000;stroke-width:16;stroke-linecap:round;stroke-miterlimit:10;}
	.st25{fill:url(#);stroke:#000000;stroke-width:16;stroke-linecap:round;stroke-linejoin:round;stroke-miterlimit:10;}
	.st26{fill:#FFFFFF;stroke:#000000;stroke-width:16;stroke-linecap:round;stroke-miterlimit:10;}
	.st27{fill:none;stroke:#000000;stroke-width:16;stroke-linecap:round;stroke-linejoin:round;stroke-miterlimit:10;}
	.st28{fill:none;stroke:#000000;stroke-width:15.2344;stroke-linecap:round;stroke-linejoin:round;stroke-miterlimit:10;}
	.st29{fill:#FFFFFF;stroke:#000000;stroke-width:15.2344;stroke-linecap:round;stroke-linejoin:round;stroke-miterlimit:10;}
	.st30{fill:#FFFFFF;stroke:#000000;stroke-width:17;stroke-linecap:round;stroke-linejoin:round;stroke-miterlimit:10;}
	.st31{font-family:'FoundersGrotesk-Bold';}
	.st32{font-size:199.2399px;}
	.st33{font-size:20.6105px;}
	.st34{font-size:10.3052px;}
	.st35{font-size:19.2364px;}
	.st36{font-size:10px;}
	.st37{fill:none;stroke:#000000;stroke-width:9.9764;stroke-linecap:round;stroke-linejoin:round;stroke-miterlimit:10;}
	.st38{fill:none;stroke:#000000;stroke-width:9.3127;stroke-linejoin:round;stroke-miterlimit:10;}
	.st39{fill:url(#);}
	.st40{fill:none;stroke:#000000;stroke-width:8.3796;stroke-linecap:round;stroke-linejoin:round;stroke-miterlimit:10;}
	
		.st41{display:inline;fill:none;stroke:#000000;stroke-width:9.9764;stroke-linecap:round;stroke-linejoin:round;stroke-miterlimit:10;}
	.st42{display:inline;fill:none;stroke:#000000;stroke-width:9.3127;stroke-linejoin:round;stroke-miterlimit:10;}
	.st43{display:inline;fill:url(#);stroke:#000000;stroke-width:10;stroke-linejoin:round;stroke-miterlimit:10;}
	.st44{fill:#FFFFFF;stroke:#000000;stroke-width:14.7375;stroke-linecap:round;stroke-linejoin:round;stroke-miterlimit:10;}
	.st45{fill:none;stroke:#000000;stroke-width:14.7375;stroke-linecap:round;stroke-linejoin:round;stroke-miterlimit:10;}
	.st46{stroke:#000000;stroke-width:14.7375;stroke-linecap:round;stroke-linejoin:round;stroke-miterlimit:10;}
	.st47{fill:#FFFFFF;stroke:#000000;stroke-width:14.2911;stroke-linecap:round;stroke-linejoin:round;stroke-miterlimit:10;}
	.st48{fill:none;stroke:#000000;stroke-width:15;stroke-linecap:round;stroke-linejoin:round;stroke-miterlimit:10;}
	.st49{fill:#FFFFFF;stroke:#000000;stroke-width:15;stroke-linecap:round;stroke-linejoin:round;stroke-miterlimit:10;}
	.st50{fill:#FFFFFF;stroke:#000000;stroke-width:14.8467;stroke-linecap:round;stroke-linejoin:round;stroke-miterlimit:10;}
	.st51{stroke:#000000;stroke-width:20.1683;stroke-linecap:round;stroke-miterlimit:10;}
	.st52{fill:none;stroke:#000000;stroke-width:14.8467;stroke-linecap:round;stroke-linejoin:round;stroke-miterlimit:10;}
	.st53{fill:none;stroke:#000000;stroke-width:13.497;stroke-miterlimit:10;}
	.st54{fill:#FFFFFF;stroke:#000000;stroke-width:13.497;stroke-miterlimit:10;}
	.st55{fill:#FFFFFF;stroke:#000000;stroke-width:14.7439;stroke-linecap:round;stroke-miterlimit:10;}
	.st56{fill:#FFFFFF;stroke:#000000;stroke-width:14.7439;stroke-miterlimit:10;}
	.st57{stroke:#000000;stroke-width:13.9262;stroke-linecap:round;stroke-miterlimit:10;}
	.st58{fill:#FFFFFF;stroke:#000000;stroke-width:17.1072;stroke-linecap:round;stroke-linejoin:round;stroke-miterlimit:10;}
	.st59{stroke:#000000;stroke-width:17.1072;stroke-linecap:round;stroke-linejoin:round;stroke-miterlimit:10;}
	.st60{fill:#FFFFFF;stroke:#000000;stroke-width:15;stroke-linecap:square;stroke-linejoin:round;stroke-miterlimit:10;}
	.st61{fill:#FFFFFF;stroke:#000000;stroke-width:15;stroke-linejoin:round;stroke-miterlimit:10;}
	.st62{fill:#FFFFFF;stroke:#000000;stroke-width:14;stroke-linecap:round;stroke-linejoin:round;stroke-miterlimit:10;}
	.st63{fill:#FFFFFF;stroke:#000000;stroke-width:13;stroke-linecap:round;stroke-linejoin:round;stroke-miterlimit:10;}
	.st64{fill:#FFFFFF;stroke:#000000;stroke-width:15.2362;stroke-linecap:round;stroke-linejoin:round;stroke-miterlimit:10;}
	.st65{fill:#FFFFFF;stroke:#FFFFFF;stroke-width:3;stroke-miterlimit:10;}
	.st66{fill:#FFFFFF;stroke:#000000;stroke-width:13.3058;stroke-linecap:round;stroke-linejoin:round;stroke-miterlimit:10;}
	.st67{fill:#FFFFFF;stroke:#000000;stroke-width:15.2517;stroke-linecap:round;stroke-linejoin:round;stroke-miterlimit:10;}
	.st68{stroke:#000000;stroke-width:3;stroke-miterlimit:10;}
</style>
<g id="unexpanded" class="st0">
	<rect x="-6264.75" y="-2593.56" class="st1" width="14663.41" height="9108.82"/>
	<g class="st2">
		<rect x="0.14" class="st5" width="792" height="1224"/>
		<g>
			<text transform="matrix(1 0 0 1 62.814 183.1733)" class="st31 st32">Worker</text>
		</g>
		<text transform="matrix(1 0 0 1 51.4585 363.2671)" class="st31 st32">POWER</text>
		<g>
			<text transform="matrix(1 0 0 1 284.8662 546.3633)" class="st31 st32">! ! !</text>
		</g>
		<g>
			<g>
				<g>
					<text transform="matrix(1 0 0 1 258.9679 23.554)"><tspan x="0" y="0" class="st31 st33">www</tspan><tspan x="45.14" y="0" class="st31 st34"> </tspan><tspan x="46.99" y="0" class="st31 st33">.</tspan><tspan x="51.77" y="0" class="st31 st34"> </tspan><tspan x="53.63" y="0" class="st31 st33">Capitalism</tspan><tspan x="150.43" y="0" class="st31 st35"> </tspan><tspan x="153.9" y="0" class="st31 st33">Is</tspan><tspan x="168.88" y="0" class="st31 st35"> </tspan><tspan x="172.34" y="0" class="st31 st33">A</tspan><tspan x="186.6" y="0" class="st31 st34"> </tspan><tspan x="188.46" y="0" class="st31 st33">Virus</tspan><tspan x="236.15" y="0" class="st31 st34"> </tspan><tspan x="238.01" y="0" class="st31 st33">.</tspan><tspan x="242.79" y="0" class="st31 st34"> </tspan><tspan x="244.64" y="0" class="st31 st33">org</tspan></text>
				</g>
				<g>
					<text transform="matrix(1 0 0 1 299.1802 596.9929)"><tspan x="0" y="0" class="st31 st33">#</tspan><tspan x="12.7" y="0" class="st31 st36"> </tspan><tspan x="14.5" y="0" class="st31 st33">Capitalism</tspan><tspan x="111.3" y="0" class="st31 st36"> </tspan><tspan x="113.1" y="0" class="st31 st33">Is</tspan><tspan x="128.09" y="0" class="st31 st36"> </tspan><tspan x="129.89" y="0" class="st31 st33">A</tspan><tspan x="144.15" y="0" class="st31 st36"> </tspan><tspan x="145.95" y="0" class="st31 st33">Virus</tspan></text>
				</g>
			</g>
		</g>
	</g>
</g>
<g id="exp_trnsp_bg">
	<polygon points="136.63,183.17 157.55,103.88 158.35,103.88 179.27,183.17 215.33,183.17 248.2,57.66 215.53,57.66 195.6,136.35 
		194.81,136.35 174.09,57.66 143.6,57.66 122.88,136.35 122.09,136.35 102.16,57.66 68.29,57.66 101.17,183.17 	"/>
	<path d="M294.83,91.92c-29.09,0-48.61,19.33-48.61,46.82c0,27.69,19.52,46.82,48.61,46.82c28.89,0,48.61-19.13,48.61-46.82
		C343.44,111.25,323.72,91.92,294.83,91.92z M294.83,161.26c-11.36,0-16.14-9.16-16.14-22.51c0-13.35,4.78-22.51,16.14-22.51
		c11.16,0,16.14,9.16,16.14,22.51C310.96,152.09,305.98,161.26,294.83,161.26z"/>
	<path d="M388.47,110.05V94.32h-32.28v88.86h32.28v-40.64c0-14.94,7.37-20.52,19.33-20.52c6.18,0,10.96,1.2,15.34,3.79l1.99-30.48
		c-2.19-1.79-6.97-3.39-12.35-3.39C401.02,91.92,391.66,100.09,388.47,110.05z"/>
	<polygon points="467.37,125 467.37,57.66 435.09,57.66 435.09,183.17 467.37,183.17 467.37,155.08 475.14,147.11 500.64,183.17 
		536.9,183.17 499.05,129.18 535.71,94.32 497.85,94.32 	"/>
	<path d="M583.13,185.56c23.51,0,39.85-11.36,44.43-31.68l-25.9-2.39c-2.99,6.97-8.57,9.96-17.33,9.96
		c-9.76,0-17.73-5.18-18.53-16.14h62.36v-8.97c0-24.11-15.74-44.43-45.42-44.43c-27.69,0-48.41,20.12-48.41,48.21
		C534.31,168.43,554.64,185.56,583.13,185.56z M582.33,115.04c9.56,0,14.74,6.77,15.14,14.74h-31.28
		C567.39,121.41,571.97,115.04,582.33,115.04z"/>
	<path d="M673.58,142.53c0-14.94,7.37-20.52,19.33-20.52c6.18,0,10.96,1.2,15.34,3.79l1.99-30.48c-2.19-1.79-6.97-3.39-12.35-3.39
		c-11.75,0-21.12,8.17-24.31,18.13V94.32H641.3v88.86h32.28V142.53z"/>
	<path d="M95.19,324.02h21.52c32.87,0,52-15.34,52-43.23c0-27.69-19.13-43.04-52-43.04H61.52v125.52h33.67V324.02z M95.19,264.85
		h19.92c15.14,0,20.92,5.58,20.92,16.14c0,10.56-5.78,15.94-20.92,15.94H95.19V264.85z"/>
	<path d="M175.08,300.51c0,38.65,28.69,65.15,65.15,65.15s65.15-26.5,65.15-65.15s-28.69-65.15-65.15-65.15
		S175.08,261.86,175.08,300.51z M270.52,300.51c0,21.32-11.75,35.26-30.28,35.26s-30.28-13.95-30.28-35.26s11.75-35.26,30.28-35.26
		S270.52,279.19,270.52,300.51z"/>
	<polygon points="307.38,237.75 340.25,363.27 375.71,363.27 396.63,283.97 397.43,283.97 418.35,363.27 454.41,363.27 
		487.28,237.75 454.61,237.75 434.69,316.45 433.89,316.45 413.17,237.75 382.69,237.75 361.97,316.45 361.17,316.45 341.25,237.75 
			"/>
	<polygon points="593.88,265.64 593.88,237.75 496.85,237.75 496.85,363.27 595.67,363.27 595.67,335.38 530.13,335.38 
		530.13,313.66 579.34,313.66 579.34,286.16 530.13,286.16 530.13,265.64 	"/>
	<path d="M610.82,237.75v125.52h33.27v-41.64h22.51c11.36,0,17.53,3.19,18.53,17.53c1,12.95,2.59,20.72,5.18,24.11h34.27
		c-4.18-4.58-4.78-10.16-6.58-28.89c-1.39-14.54-8.96-21.92-21.92-24.51c15.34-1.99,26.7-13.95,26.7-32.28
		c0-24.51-16.14-39.85-48.61-39.85H610.82z M689.71,280.39c0,11.55-7.17,15.14-21.52,15.14h-24.11v-30.68h24.11
		C682.54,264.85,689.71,270.23,689.71,280.39z"/>
	<rect x="290.84" y="512.09" width="34.27" height="34.27"/>
	<polygon points="325.11,453.12 325.11,420.85 290.84,420.85 290.84,453.12 297.62,504.52 318.34,504.52 	"/>
	<polygon points="407.2,453.12 407.2,420.85 372.93,420.85 372.93,453.12 379.7,504.52 400.42,504.52 	"/>
	<rect x="372.93" y="512.09" width="34.27" height="34.27"/>
	<rect x="455.01" y="512.09" width="34.27" height="34.27"/>
	<polygon points="455.01,453.12 461.79,504.52 482.51,504.52 489.28,453.12 489.28,420.85 455.01,420.85 	"/>
	<polygon points="265.16,23.55 266.5,18.36 266.58,18.36 267.92,23.55 271.2,23.55 274.07,14.5 276.93,23.55 280.21,23.55 
		281.55,18.36 281.63,18.36 282.97,23.55 286.25,23.55 289.11,14.5 291.98,23.55 295.25,23.55 296.59,18.36 296.68,18.36 
		298.02,23.55 301.29,23.55 304.2,14.36 301.19,14.36 299.54,19.58 299.46,19.58 298.12,14.36 295.46,14.36 294.12,19.58 
		294.04,19.58 292.39,14.36 289.15,14.36 289.07,14.36 286.15,14.36 284.5,19.58 284.41,19.58 283.07,14.36 280.41,14.36 
		279.07,19.58 278.99,19.58 277.34,14.36 274.11,14.36 274.02,14.36 271.1,14.36 269.45,19.58 269.37,19.58 268.03,14.36 
		265.37,14.36 264.03,19.58 263.95,19.58 262.3,14.36 258.98,14.36 261.88,23.55 	"/>
	<rect x="306.63" y="20.01" width="3.55" height="3.55"/>
	<path d="M319.72,23.8c3.98,0,6.1-2.52,6.35-5.75l-3.36-0.14c-0.21,1.44-0.99,2.78-3.01,2.78c-1.92,0-3.03-1.42-3.03-3.63
		s1.11-3.63,3.03-3.63c2.02,0,2.8,1.34,3.01,2.78l3.36-0.12c-0.25-3.24-2.37-5.77-6.35-5.77c-3.79,0-6.66,2.74-6.66,6.74
		S315.92,23.8,319.72,23.8z"/>
	<path d="M330.08,18.38c-2,0.35-3.28,1.11-3.28,2.89c0,1.57,1.17,2.49,2.97,2.49c1.46,0,2.52-0.56,3.05-1.63
		c0.31,1.05,1.2,1.63,2.33,1.63c0.95,0,1.61-0.27,2.08-0.6v-1.77c-0.27,0.1-0.47,0.14-0.74,0.14c-0.35,0-0.56-0.21-0.56-0.68v-3.13
		c0-2.56-1.79-3.61-4.23-3.61c-2.76,0-4.27,1.4-4.56,3.42l3.09,0.21c0.14-0.68,0.52-1.15,1.26-1.15c0.8,0,1.15,0.45,1.15,1.22v0.14
		L330.08,18.38z M332.66,19.72c0,1.2-0.76,1.9-1.71,1.9c-0.56,0-0.93-0.31-0.93-0.78c0-0.6,0.47-0.85,1.28-1.01l1.36-0.25V19.72z"/>
	<path d="M341.54,21.99c0.45,1.07,1.48,1.81,3.03,1.81c2.7,0,4.08-2.12,4.08-4.84c0-2.7-1.38-4.84-4.08-4.84
		c-1.55,0-2.58,0.74-3.03,1.83v-1.59h-3.34v12.49h3.34V21.99z M341.54,18.9c0-1.32,0.72-2.19,1.86-2.19c1.3,0,1.9,0.93,1.9,2.25
		c0,1.34-0.6,2.27-1.9,2.27c-1.13,0-1.86-0.87-1.86-2.21V18.9z"/>
	<rect x="349.95" y="10.57" width="3.38" height="2.93"/>
	<rect x="349.97" y="14.36" width="3.34" height="9.19"/>
	<path d="M355.46,21c0,2.16,1.46,2.8,3.01,2.8c1.26,0,2.06-0.31,2.76-0.82v-2.16c-0.56,0.23-1.01,0.31-1.42,0.31
		c-0.68,0-1.05-0.31-1.05-1.09v-3.36h2.39v-2.31h-2.39v-2.54h-2.1l-0.31,1.2c-0.23,0.85-0.52,1.34-1.44,1.48l-0.68,0.1v2.06h1.24V21
		z"/>
	<path d="M365.25,18.38c-2,0.35-3.28,1.11-3.28,2.89c0,1.57,1.17,2.49,2.97,2.49c1.46,0,2.52-0.56,3.05-1.63
		c0.31,1.05,1.2,1.63,2.33,1.63c0.95,0,1.61-0.27,2.08-0.6v-1.77c-0.27,0.1-0.47,0.14-0.74,0.14c-0.35,0-0.56-0.21-0.56-0.68v-3.13
		c0-2.56-1.79-3.61-4.23-3.61c-2.76,0-4.27,1.4-4.56,3.42l3.09,0.21c0.14-0.68,0.52-1.15,1.26-1.15c0.8,0,1.15,0.45,1.15,1.22v0.14
		L365.25,18.38z M367.82,19.72c0,1.2-0.76,1.9-1.71,1.9c-0.56,0-0.93-0.31-0.93-0.78c0-0.6,0.47-0.85,1.28-1.01l1.36-0.25V19.72z"/>
	<rect x="373.37" y="10.57" width="3.34" height="12.99"/>
	<rect x="378.52" y="14.36" width="3.34" height="9.19"/>
	<rect x="378.5" y="10.57" width="3.38" height="2.93"/>
	<path d="M387.67,21.72c-1.01,0-1.63-0.43-1.75-1.2l-2.91,0.04c0.19,2.23,2.08,3.24,4.62,3.24c2.62,0,4.27-1.11,4.27-3.05
		c0-1.79-1.2-2.72-3.26-3.05l-1.79-0.31c-0.31-0.04-0.56-0.21-0.56-0.52c0-0.41,0.37-0.66,1.01-0.66c1.03,0,1.61,0.41,1.73,1.07
		l2.74-0.08c-0.19-1.92-1.75-3.09-4.41-3.09c-2.58,0-4.16,1.3-4.16,3.11c0,1.88,1.17,2.6,3.4,2.95l1.36,0.21
		c0.64,0.1,0.85,0.35,0.85,0.7C388.8,21.45,388.41,21.72,387.67,21.72z"/>
	<path d="M396.51,19.04c0-1.38,0.39-2.29,1.48-2.29c1.01,0,1.26,0.66,1.26,1.92v4.89h3.34v-4.51c0-1.38,0.37-2.29,1.48-2.29
		c1.01,0,1.24,0.66,1.24,1.92v4.89h3.34v-5.77c0-1.92-0.74-3.67-3.28-3.67c-1.55,0-2.64,0.78-3.13,1.81
		c-0.39-1.07-1.24-1.81-2.87-1.81c-1.38,0-2.37,0.62-2.87,1.63v-1.38h-3.34v9.19h3.34V19.04z"/>
	<rect x="413.91" y="10.57" width="3.5" height="12.99"/>
	<path d="M423.3,21.72c-1.01,0-1.63-0.43-1.75-1.2l-2.91,0.04c0.19,2.23,2.08,3.24,4.62,3.24c2.62,0,4.27-1.11,4.27-3.05
		c0-1.79-1.2-2.72-3.26-3.05l-1.79-0.31c-0.31-0.04-0.56-0.21-0.56-0.52c0-0.41,0.37-0.66,1.01-0.66c1.03,0,1.61,0.41,1.73,1.07
		l2.74-0.08c-0.19-1.92-1.75-3.09-4.41-3.09c-2.58,0-4.16,1.3-4.16,3.11c0,1.88,1.18,2.6,3.4,2.95l1.36,0.21
		c0.64,0.1,0.85,0.35,0.85,0.7C424.44,21.45,424.05,21.72,423.3,21.72z"/>
	<path d="M435.86,21.04h5.07l0.97,2.52h3.73l-5.17-12.99h-3.92l-5.17,12.99h3.52L435.86,21.04z M438.35,14.59h0.08l1.48,3.83h-3.05
		L438.35,14.59z"/>
	<polygon points="456.16,23.55 461.15,10.57 457.66,10.57 454.45,19.2 454.36,19.2 451.15,10.57 447.48,10.57 452.47,23.55 	"/>
	<rect x="462.03" y="10.57" width="3.38" height="2.93"/>
	<rect x="462.05" y="14.36" width="3.34" height="9.19"/>
	<path d="M470.54,19.35c0-1.55,0.76-2.12,2-2.12c0.64,0,1.13,0.12,1.59,0.39l0.21-3.15c-0.23-0.19-0.72-0.35-1.28-0.35
		c-1.22,0-2.19,0.85-2.52,1.88v-1.63h-3.34v9.19h3.34V19.35z"/>
	<path d="M478.54,23.8c1.38,0,2.39-0.6,2.89-1.63v1.38h3.34v-9.19h-3.34v4.51c0,1.4-0.41,2.31-1.46,2.31
		c-1.01,0-1.36-0.68-1.36-1.92v-4.91h-3.34v5.79C475.26,22.07,476.02,23.8,478.54,23.8z"/>
	<path d="M490.58,21.72c-1.01,0-1.63-0.43-1.75-1.2l-2.91,0.04c0.19,2.23,2.08,3.24,4.62,3.24c2.62,0,4.27-1.11,4.27-3.05
		c0-1.79-1.2-2.72-3.26-3.05l-1.79-0.31c-0.31-0.04-0.56-0.21-0.56-0.52c0-0.41,0.37-0.66,1.01-0.66c1.03,0,1.61,0.41,1.73,1.07
		l2.74-0.08c-0.19-1.92-1.75-3.09-4.41-3.09c-2.58,0-4.16,1.3-4.16,3.11c0,1.88,1.18,2.6,3.4,2.95l1.36,0.21
		c0.64,0.1,0.85,0.35,0.85,0.7C491.71,21.45,491.32,21.72,490.58,21.72z"/>
	<rect x="497.64" y="20.01" width="3.55" height="3.55"/>
	<path d="M509.1,23.8c2.99,0,5.03-1.98,5.03-4.84c0-2.84-2.04-4.84-5.03-4.84c-3.01,0-5.03,2-5.03,4.84
		C504.07,21.82,506.09,23.8,509.1,23.8z M509.1,16.63c1.15,0,1.67,0.95,1.67,2.33c0,1.38-0.52,2.33-1.67,2.33
		c-1.17,0-1.67-0.95-1.67-2.33C507.44,17.58,507.93,16.63,509.1,16.63z"/>
	<path d="M518.79,19.35c0-1.55,0.76-2.12,2-2.12c0.64,0,1.13,0.12,1.59,0.39l0.21-3.15c-0.23-0.19-0.72-0.35-1.28-0.35
		c-1.22,0-2.19,0.85-2.52,1.88v-1.63h-3.34v9.19h3.34V19.35z"/>
	<path d="M522.6,24.85c0,1.73,2.27,2.25,4.89,2.25c2.99,0,5.77-1.05,5.77-3.34c0-1.55-1.05-2.64-3.13-2.64h-3.81
		c-0.56,0-0.78-0.25-0.78-0.56c0-0.19,0.06-0.33,0.19-0.43c0.6,0.19,1.26,0.27,2,0.27c2.6,0,4.47-1.2,4.47-3.13
		c0-0.43-0.1-0.82-0.29-1.17c0.45-0.1,0.95-0.14,1.34-0.14v-2.51c-1.01,0-2.02,0.66-2.58,1.42c-0.78-0.47-1.83-0.74-2.95-0.74
		c-2.58,0-4.43,1.2-4.43,3.15c0,1.01,0.49,1.79,1.32,2.33c-0.99,0.37-1.57,1.05-1.57,1.94c0,0.78,0.49,1.53,1.32,1.79
		C523.33,23.41,522.6,24.05,522.6,24.85z M527.76,15.95c0.56,0,0.97,0.52,0.97,1.32c0,0.82-0.41,1.34-0.97,1.34
		c-0.56,0-0.97-0.52-0.97-1.34C526.79,16.46,527.2,15.95,527.76,15.95z M525.96,23.97h3.38c0.56,0,0.85,0.14,0.85,0.54
		c0,0.56-1.13,0.87-2.68,0.87c-1.24,0-2.16-0.19-2.16-0.84C525.35,24.17,525.59,23.97,525.96,23.97z"/>
	<path d="M311.03,589.49l0.43-2.06h-1.83l0.82-3.42h-2.49l-0.82,3.42h-1.77l0.83-3.42h-2.49l-0.82,3.42h-2.02l-0.43,2.06h1.98
		l-0.49,2.02h-1.88l-0.43,2.06h1.81l-0.8,3.42h2.49l0.8-3.42h1.77l-0.8,3.42h2.49l0.8-3.42h2.04l0.43-2.06h-1.98l0.49-2.02H311.03z
		 M306.17,591.51h-1.77l0.5-2.02h1.77L306.17,591.51z"/>
	<path d="M320.73,586.87c2.02,0,2.8,1.34,3.01,2.78l3.36-0.12c-0.25-3.24-2.37-5.77-6.35-5.77c-3.79,0-6.66,2.74-6.66,6.74
		c0,4,2.87,6.74,6.66,6.74c3.98,0,6.1-2.52,6.35-5.75l-3.36-0.14c-0.21,1.44-0.99,2.78-3.01,2.78c-1.92,0-3.03-1.42-3.03-3.63
		C317.7,588.29,318.81,586.87,320.73,586.87z"/>
	<path d="M331.11,591.82c-2,0.35-3.28,1.11-3.28,2.89c0,1.57,1.18,2.49,2.97,2.49c1.46,0,2.52-0.56,3.05-1.63
		c0.31,1.05,1.2,1.63,2.33,1.63c0.95,0,1.61-0.27,2.08-0.6v-1.77c-0.27,0.1-0.47,0.14-0.74,0.14c-0.35,0-0.56-0.21-0.56-0.68v-3.13
		c0-2.56-1.79-3.61-4.23-3.61c-2.76,0-4.27,1.4-4.56,3.42l3.09,0.21c0.14-0.68,0.52-1.15,1.26-1.15c0.8,0,1.15,0.45,1.15,1.22v0.14
		L331.11,591.82z M333.69,593.16c0,1.2-0.76,1.9-1.71,1.9c-0.56,0-0.93-0.31-0.93-0.78c0-0.6,0.47-0.85,1.28-1.01l1.36-0.25V593.16z
		"/>
	<path d="M339.23,587.8v12.49h3.34v-4.86c0.45,1.07,1.48,1.81,3.03,1.81c2.7,0,4.08-2.12,4.08-4.84c0-2.7-1.38-4.84-4.08-4.84
		c-1.55,0-2.58,0.74-3.03,1.83v-1.59H339.23z M344.43,590.15c1.3,0,1.9,0.93,1.9,2.25c0,1.34-0.6,2.27-1.9,2.27
		c-1.13,0-1.86-0.87-1.86-2.21v-0.12C342.57,591.02,343.29,590.15,344.43,590.15z"/>
	<rect x="350.98" y="584.01" width="3.38" height="2.93"/>
	<rect x="351" y="587.8" width="3.34" height="9.19"/>
	<path d="M359.49,597.24c1.26,0,2.06-0.31,2.76-0.82v-2.16c-0.56,0.23-1.01,0.31-1.42,0.31c-0.68,0-1.05-0.31-1.05-1.09v-3.36h2.39
		v-2.31h-2.39v-2.54h-2.1l-0.31,1.2c-0.23,0.85-0.52,1.34-1.44,1.48l-0.68,0.1v2.06h1.24v4.33
		C356.48,596.6,357.95,597.24,359.49,597.24z"/>
	<path d="M366.27,591.82c-2,0.35-3.28,1.11-3.28,2.89c0,1.57,1.18,2.49,2.97,2.49c1.46,0,2.51-0.56,3.05-1.63
		c0.31,1.05,1.2,1.63,2.33,1.63c0.95,0,1.61-0.27,2.08-0.6v-1.77c-0.27,0.1-0.47,0.14-0.74,0.14c-0.35,0-0.56-0.21-0.56-0.68v-3.13
		c0-2.56-1.79-3.61-4.23-3.61c-2.76,0-4.27,1.4-4.56,3.42l3.09,0.21c0.14-0.68,0.52-1.15,1.26-1.15c0.8,0,1.15,0.45,1.15,1.22v0.14
		L366.27,591.82z M368.85,593.16c0,1.2-0.76,1.9-1.71,1.9c-0.56,0-0.93-0.31-0.93-0.78c0-0.6,0.47-0.85,1.28-1.01l1.36-0.25V593.16z
		"/>
	<rect x="374.39" y="584.01" width="3.34" height="12.99"/>
	<rect x="379.53" y="584.01" width="3.38" height="2.93"/>
	<rect x="379.55" y="587.8" width="3.34" height="9.19"/>
	<path d="M388.7,595.16c-1.01,0-1.63-0.43-1.75-1.2l-2.91,0.04c0.19,2.23,2.08,3.24,4.62,3.24c2.62,0,4.27-1.11,4.27-3.05
		c0-1.79-1.2-2.72-3.26-3.05l-1.79-0.31c-0.31-0.04-0.56-0.21-0.56-0.52c0-0.41,0.37-0.66,1.01-0.66c1.03,0,1.61,0.41,1.73,1.07
		l2.74-0.08c-0.19-1.92-1.75-3.09-4.41-3.09c-2.58,0-4.16,1.3-4.16,3.11c0,1.88,1.18,2.6,3.4,2.95l1.36,0.21
		c0.64,0.1,0.85,0.35,0.85,0.7C389.83,594.89,389.44,595.16,388.7,595.16z"/>
	<path d="M409.68,596.99v-5.77c0-1.92-0.74-3.67-3.28-3.67c-1.55,0-2.64,0.78-3.13,1.81c-0.39-1.07-1.24-1.81-2.87-1.81
		c-1.38,0-2.37,0.62-2.87,1.63v-1.38h-3.34v9.19h3.34v-4.51c0-1.38,0.39-2.29,1.48-2.29c1.01,0,1.26,0.66,1.26,1.92v4.89h3.34v-4.51
		c0-1.38,0.37-2.29,1.48-2.29c1.01,0,1.24,0.66,1.24,1.92v4.89H409.68z"/>
	<rect x="413.27" y="584.01" width="3.5" height="12.99"/>
	<path d="M422.67,595.16c-1.01,0-1.63-0.43-1.75-1.2l-2.91,0.04c0.19,2.23,2.08,3.24,4.62,3.24c2.62,0,4.27-1.11,4.27-3.05
		c0-1.79-1.2-2.72-3.26-3.05l-1.79-0.31c-0.31-0.04-0.56-0.21-0.56-0.52c0-0.41,0.37-0.66,1.01-0.66c1.03,0,1.61,0.41,1.73,1.07
		l2.74-0.08c-0.19-1.92-1.75-3.09-4.41-3.09c-2.58,0-4.16,1.3-4.16,3.11c0,1.88,1.18,2.6,3.4,2.95l1.36,0.21
		c0.64,0.1,0.85,0.35,0.85,0.7C423.8,594.89,423.41,595.16,422.67,595.16z"/>
	<path d="M429.07,596.99h3.52l0.97-2.51h5.07l0.97,2.51h3.73l-5.17-12.99h-3.92L429.07,596.99z M436.05,588.03h0.08l1.48,3.83h-3.05
		L436.05,588.03z"/>
	<polygon points="452.01,592.64 448.8,584.01 445.13,584.01 450.12,596.99 453.81,596.99 458.8,584.01 455.31,584.01 452.1,592.64 	
		"/>
	<rect x="459.7" y="587.8" width="3.34" height="9.19"/>
	<rect x="459.68" y="584.01" width="3.38" height="2.93"/>
	<path d="M464.85,587.8v9.19h3.34v-4.21c0-1.55,0.76-2.12,2-2.12c0.64,0,1.13,0.12,1.59,0.39l0.21-3.15
		c-0.23-0.19-0.72-0.35-1.28-0.35c-1.22,0-2.19,0.85-2.52,1.88v-1.63H464.85z"/>
	<path d="M482.41,596.99v-9.19h-3.34v4.51c0,1.4-0.41,2.31-1.46,2.31c-1.01,0-1.36-0.68-1.36-1.92v-4.91h-3.34v5.79
		c0,1.92,0.76,3.65,3.28,3.65c1.38,0,2.39-0.6,2.89-1.63v1.38H482.41z"/>
	<path d="M487.85,589.65c1.03,0,1.61,0.41,1.73,1.07l2.74-0.08c-0.19-1.92-1.75-3.09-4.41-3.09c-2.58,0-4.16,1.3-4.16,3.11
		c0,1.88,1.17,2.6,3.4,2.95l1.36,0.21c0.64,0.1,0.85,0.35,0.85,0.7c0,0.37-0.39,0.64-1.13,0.64c-1.01,0-1.63-0.43-1.75-1.2
		l-2.91,0.04c0.19,2.23,2.08,3.24,4.62,3.24c2.62,0,4.27-1.11,4.27-3.05c0-1.79-1.2-2.72-3.26-3.05l-1.79-0.31
		c-0.31-0.04-0.56-0.21-0.56-0.52C486.84,589.9,487.21,589.65,487.85,589.65z"/>
</g>
<g id="exp_white_bg" class="st0">
	<g class="st2">
		<path class="st5" d="M294.83,116.23c-11.36,0-16.14,9.16-16.14,22.51c0,13.35,4.78,22.51,16.14,22.51
			c11.16,0,16.14-9.16,16.14-22.51C310.96,125.4,305.98,116.23,294.83,116.23z"/>
		<path class="st5" d="M136.03,280.98c0-10.56-5.78-16.14-20.92-16.14H95.19v32.08h19.92C130.26,296.92,136.03,291.54,136.03,280.98
			z"/>
		<polygon class="st5" points="304.4,591.51 306.17,591.51 306.66,589.49 304.89,589.49 		"/>
		<path class="st5" d="M331.05,594.27c0,0.47,0.37,0.78,0.93,0.78c0.95,0,1.71-0.7,1.71-1.9v-0.14l-1.36,0.25
			C331.53,593.43,331.05,593.67,331.05,594.27z"/>
		<path class="st5" d="M342.57,592.46c0,1.34,0.72,2.21,1.86,2.21c1.3,0,1.9-0.93,1.9-2.27c0-1.32-0.6-2.25-1.9-2.25
			c-1.13,0-1.86,0.87-1.86,2.19V592.46z"/>
		<path class="st5" d="M366.21,594.27c0,0.47,0.37,0.78,0.93,0.78c0.95,0,1.71-0.7,1.71-1.9v-0.14l-1.36,0.25
			C366.69,593.43,366.21,593.67,366.21,594.27z"/>
		<path class="st5" d="M644.09,264.85v30.68h24.11c14.34,0,21.52-3.59,21.52-15.14c0-10.16-7.17-15.54-21.52-15.54H644.09z"/>
		<path class="st5" d="M365.18,20.83c0,0.47,0.37,0.78,0.93,0.78c0.95,0,1.71-0.7,1.71-1.9v-0.14l-1.36,0.25
			C365.66,19.99,365.18,20.24,365.18,20.83z"/>
		<path class="st5" d="M527.76,18.61c0.56,0,0.97-0.52,0.97-1.34c0-0.8-0.41-1.32-0.97-1.32c-0.56,0-0.97,0.52-0.97,1.32
			C526.79,18.09,527.2,18.61,527.76,18.61z"/>
		<ellipse class="st5" cx="240.23" cy="300.51" rx="30.28" ry="35.26"/>
		<path class="st5" d="M582.33,115.04c-10.36,0-14.94,6.38-16.14,14.74h31.28C597.07,121.81,591.89,115.04,582.33,115.04z"/>
		<path class="st5" d="M0.14,1224h792V0h-792V1224z M26.86,906.91l-5.19,1.34v0.08l5.19,1.34v3.28l-9.06,2.86l9.06,2.86v3.28
			l-5.19,1.34v0.08l5.19,1.34v3.28l-9.06,2.86l9.06,2.86V937l-5.19,1.34v0.08l5.19,1.34v3.28l-9.19,2.91v-3.32l5.22-1.65v-0.08
			l-5.22-1.34v-2.66l5.22-1.34v-0.08l-5.22-1.65v-2.92v-0.09v-3.23l5.22-1.65v-0.08l-5.22-1.34v-2.66l5.22-1.34v-0.08l-5.22-1.65
			v-2.92v-0.09v-3.23l5.22-1.65v-0.08l-5.22-1.34v-2.66l5.22-1.34v-0.08l-5.22-1.65v-3.01l9.19,2.91V906.91z M26.86,898.3h-3.55
			v-3.55h3.55V898.3z M30.16,866.72H17.67v-3.34h1.59c-1.09-0.45-1.83-1.48-1.83-3.03c0-2.7,2.14-4.08,4.84-4.08
			c2.72,0,4.84,1.38,4.84,4.08c0,1.55-0.74,2.58-1.81,3.03h4.86V866.72z M27.07,875.15c0,1.79-0.93,2.97-2.49,2.97
			c-1.77,0-2.54-1.28-2.89-3.28l-0.43-2.58h-0.14c-0.76,0-1.22,0.35-1.22,1.15c0,0.74,0.47,1.11,1.15,1.26l-0.21,3.09
			c-2.02-0.29-3.42-1.79-3.42-4.56c0-2.43,1.05-4.23,3.61-4.23h3.13c0.47,0,0.68-0.21,0.68-0.56c0-0.27-0.04-0.47-0.14-0.74h1.77
			c0.33,0.47,0.6,1.13,0.6,2.08c0,1.13-0.58,2.02-1.63,2.33C26.51,872.63,27.07,873.69,27.07,875.15z M24.7,832.53h1.77
			c0.33,0.47,0.6,1.13,0.6,2.08c0,1.13-0.58,2.02-1.63,2.33c1.07,0.54,1.63,1.59,1.63,3.05c0,1.79-0.93,2.97-2.49,2.97
			c-1.77,0-2.54-1.28-2.89-3.28l-0.43-2.58h-0.14c-0.76,0-1.22,0.35-1.22,1.15c0,0.74,0.47,1.11,1.15,1.26l-0.21,3.09
			c-2.02-0.29-3.42-1.79-3.42-4.56c0-2.43,1.05-4.23,3.61-4.23h3.13c0.47,0,0.68-0.21,0.68-0.56C24.84,833,24.8,832.79,24.7,832.53z
			 M17.42,799.55c0-2.54,1.75-3.28,3.67-3.28h5.77v3.34h-4.89c-1.26,0-1.92,0.23-1.92,1.24c0,1.11,0.91,1.48,2.29,1.48h4.51v3.34
			h-4.89c-1.26,0-1.92,0.25-1.92,1.26c0,1.09,0.91,1.48,2.29,1.48h4.51v3.34h-9.19v-3.34h1.38c-1.01-0.49-1.63-1.48-1.63-2.87
			c0-1.63,0.74-2.47,1.81-2.87C18.2,802.19,17.42,801.1,17.42,799.55z M20.51,813.15l0.08,2.74c-0.66,0.12-1.07,0.7-1.07,1.73
			c0,0.64,0.25,1.01,0.66,1.01c0.31,0,0.47-0.25,0.52-0.56l0.31-1.79c0.33-2.06,1.26-3.26,3.05-3.26c1.94,0,3.05,1.65,3.05,4.27
			c0,2.54-1.01,4.43-3.24,4.62l-0.04-2.91c0.76-0.12,1.2-0.74,1.2-1.75c0-0.74-0.27-1.13-0.64-1.13c-0.35,0-0.6,0.21-0.7,0.85
			l-0.21,1.36c-0.35,2.23-1.07,3.4-2.95,3.4c-1.81,0-3.11-1.59-3.11-4.16C17.42,814.91,18.59,813.34,20.51,813.15z M24.39,780.49
			c-0.35,0-0.6,0.21-0.7,0.85l-0.21,1.36c-0.35,2.23-1.07,3.4-2.95,3.4c-1.81,0-3.11-1.59-3.11-4.16c0-2.66,1.17-4.23,3.09-4.41
			l0.08,2.74c-0.66,0.12-1.07,0.7-1.07,1.73c0,0.64,0.25,1.01,0.66,1.01c0.31,0,0.47-0.25,0.52-0.56l0.31-1.79
			c0.33-2.06,1.26-3.26,3.05-3.26c1.94,0,3.05,1.65,3.05,4.27c0,2.54-1.01,4.43-3.24,4.62l-0.04-2.91c0.76-0.12,1.2-0.74,1.2-1.75
			C25.03,780.88,24.76,780.49,24.39,780.49z M22.66,686.13h4.21v3.34h-9.19v-3.34h1.63c-1.03-0.33-1.88-1.3-1.88-2.52
			c0-0.56,0.17-1.05,0.35-1.28l3.15,0.21c-0.27,0.45-0.39,0.95-0.39,1.59C20.53,685.37,21.11,686.13,22.66,686.13z M22.26,690.79
			c2.87,0,4.84,2.04,4.84,5.03c0,3.01-1.98,5.03-4.84,5.03c-2.84,0-4.84-2.02-4.84-5.03C17.42,692.83,19.42,690.79,22.26,690.79z
			 M26.86,703.73v3.55h-3.55v-3.55H26.86z M20.51,710.25l0.08,2.74c-0.66,0.12-1.07,0.7-1.07,1.73c0,0.64,0.25,1.01,0.66,1.01
			c0.31,0,0.47-0.25,0.52-0.56l0.31-1.79c0.33-2.06,1.26-3.26,3.05-3.26c1.94,0,3.05,1.65,3.05,4.27c0,2.54-1.01,4.43-3.24,4.62
			l-0.04-2.91c0.76-0.12,1.2-0.74,1.2-1.75c0-0.74-0.27-1.13-0.64-1.13c-0.35,0-0.6,0.21-0.7,0.85l-0.21,1.36
			c-0.35,2.23-1.07,3.4-2.95,3.4c-1.81,0-3.11-1.59-3.11-4.16C17.42,712,18.59,710.43,20.51,710.25z M22.18,723.5h-4.51v-3.34h9.19
			v3.34h-1.38c1.03,0.49,1.63,1.5,1.63,2.89c0,2.52-1.73,3.28-3.65,3.28h-5.79v-3.34h4.91c1.24,0,1.92-0.35,1.92-1.36
			C24.49,723.91,23.58,723.5,22.18,723.5z M17.77,730.59l3.15,0.21c-0.27,0.45-0.39,0.95-0.39,1.59c0,1.24,0.58,2,2.12,2h4.21v3.34
			h-9.19v-3.34h1.63c-1.03-0.33-1.88-1.3-1.88-2.52C17.42,731.31,17.58,730.82,17.77,730.59z M17.67,739.53h9.19v3.34h-9.19V739.53z
			 M17.67,823.07h9.19v3.34h-9.19V823.07z M17.67,846.17v-2.39h2.31v2.39h3.36c0.78,0,1.09-0.37,1.09-1.05
			c0-0.41-0.08-0.87-0.31-1.42h2.16c0.52,0.7,0.82,1.5,0.82,2.76c0,1.55-0.64,3.01-2.8,3.01h-4.33v1.24h-2.06l-0.1-0.68
			c-0.14-0.93-0.64-1.22-1.48-1.44l-1.2-0.31v-2.1H17.67z M26.86,851.61v3.34h-9.19v-3.34H26.86z M696.39,1004.92
			c-2.07,1.59-4.64,2.08-7,1.56c-1.89-0.41-3.65-1.46-4.92-3.12c-28.27-36.75-67.37-57.56-116.22-61.83
			c-74.82-6.55-165.96,28.33-232.19,88.86c-3.09,2.83-7.78,2.98-11.05,0.36c-3.27-2.62-4.14-7.23-2.06-10.86
			c13.78-24,24.86-66.9,36.59-112.32c16-61.92,32.54-125.95,59.12-151.1c1.68-1.59,3.93-2.43,6.25-2.31c2.31,0.11,4.48,1.16,6,2.9
			c19.38,22.2,41.58,33.06,66.03,32.27c4.25-0.14,8.2-0.63,11.76-1.31c-5.12-2.53-9.84-6.31-13.48-11.08
			c-2.9,1.16-6.08,1.77-9.46,1.8c-0.08,0-0.17,0-0.26,0c-15.58,0-33.37-12.99-35.22-32.52c-0.44-4.67,2.99-8.82,7.66-9.26
			c4.67-0.43,8.82,2.99,9.26,7.66c0.93,9.83,10.38,17.11,18.27,17.11c0.04,0,0.08,0,0.12,0c1.98-0.02,8.01-0.07,8.85-11.19
			c2.05-27.03-15.06-41.68-15.23-41.82c-3.6-3.01-4.07-8.37-1.06-11.97c3.01-3.6,8.38-4.07,11.97-1.06
			c0.98,0.82,23.97,20.5,21.27,56.14c-0.39,5.15-1.59,9.66-3.58,13.48c3.77,5.96,10.63,9.37,15.69,9.33
			c1.98-0.02,8.01-0.07,8.85-11.19c1.77-23.3-24.6-62.59-34.91-75.75c-2.89-3.7-2.24-9.04,1.45-11.93c3.7-2.89,9.04-2.24,11.93,1.45
			c0.41,0.53,10.26,13.15,19.92,29.93c13.35,23.18,19.59,42.44,18.57,57.28c1.13-0.22,2.28-0.39,3.46-0.5
			c6.17-0.58,12.1,0.45,17.28,2.73c0.2-0.95,0.35-2.01,0.44-3.2c1.77-23.3-24.6-62.59-34.91-75.75c-2.89-3.7-2.24-9.04,1.45-11.93
			c3.7-2.89,9.04-2.24,11.93,1.45c0.41,0.53,10.26,13.15,19.92,29.93c13.44,23.33,19.68,42.71,18.55,57.59
			c-0.03,0.4-0.09,0.77-0.13,1.16c11.32-9.57,13.88-24.17,7.59-43.5c-6.75-20.74-25.27-44.16-25.46-44.4
			c-0.21-0.26-0.4-0.53-0.58-0.82c-3.92-6.34-21.48-11.98-34.79-13.09l-0.48-0.04c-22.74-1.89-60.8-5.06-97.2-4.59
			c-23.93,0.31-65.96,2.69-78.48,15.21c-15.05,15.05-68.4,86.68-121.08,169.15c-60.86,95.27-95.77,166.12-95.77,194.37
			c0,1.52-0.41,3.01-1.18,4.32c-19.83,33.63,0.38,48.57,2.75,50.16c1.67,1.08,2.83,2.61,3.43,4.5c0.08,0.25,9.51,28.18,39.22,50.96
			c9.35,7.17,43.05,16.92,150.53,22.7c73.47,3.95,173.38,5.8,314.42,5.8c0.62,0,1.23,0.07,1.82,0.2c3.82,0.83,6.68,4.23,6.68,8.3
			c0,4.69-3.81,8.5-8.5,8.5c-141.36,0-241.56-1.85-315.34-5.82c-121.27-6.53-149.37-18.07-159.96-26.19
			c-28.97-22.21-40.92-48.44-44.13-56.68c-7.73-6.58-28.93-29.53-6.68-69.13c1.16-23.85,19.75-78.05,98.39-201.14
			c50.7-79.36,105.71-154.35,123.38-172.01c25.44-25.44,109.88-22.13,189.11-15.54l0.48,0.04c1.48,0.12,36.2,3.2,47.55,20.63
			c2.62,3.34,20.76,26.98,28.04,49.36c9.87,30.33,2.23,54.4-21.5,67.78c-0.74,0.42-1.53,0.72-2.36,0.9l-0.07,0.02
			c0.39,1.45,0.67,2.95,0.81,4.49c1.53,16.23-11.75,30.81-29.62,32.5c-1.14,0.11-2.27,0.16-3.39,0.16
			c-14.53,0-27.08-8.86-30.8-21.42c-6.69,2.22-15.89,4.43-26.68,4.78c-18.92,0.61-46.3-4.53-72.85-31.08
			c-20.12,26.22-35.2,84.58-48.64,136.59c-7.8,30.2-15.32,59.32-23.72,83.14c66.03-49.3,148.18-76.42,217.44-70.36
			c53.02,4.64,97.36,28.29,128.21,68.4C700.8,996.72,700.11,1002.06,696.39,1004.92z M588.67,1072.09l12.34,5.43l-13.3,30.22
			l-12.34-5.43c-4.39,5.88-10.05,11.21-16.12,15.45l4.93,12.69l-30.83,11.98l-4.93-12.69c-7.34,0.98-14.86,0.97-22.32-0.51
			l-5.43,12.34l-30.22-13.3l5.43-12.34c-5.88-4.39-11.21-10.05-15.45-16.12l-12.69,4.93l-11.98-30.83l12.69-4.93
			c-0.98-7.34-0.97-14.86,0.51-22.32l-12.34-5.43l13.3-30.22l12.34,5.43c4.39-5.88,10.05-11.21,16.12-15.45l-4.93-12.69l30.83-11.98
			l4.93,12.69c7.34-0.98,14.86-0.97,22.32,0.51l5.43-12.34l30.22,13.3l-5.43,12.34c5.88,4.39,11.21,10.05,15.45,16.12l12.69-4.93
			l11.98,30.83l-12.69,4.93C590.15,1057.11,590.15,1064.63,588.67,1072.09z M361.17,316.45h0.8l20.72-78.7h30.48l20.72,78.7h0.8
			l19.92-78.7h32.67l-32.87,125.52h-36.06l-20.92-79.29h-0.8l-20.92,79.29h-35.46l-32.87-125.52h33.87L361.17,316.45z M349.97,23.55
			v-9.19h3.34v9.19H349.97z M487.4,590.83l1.79,0.31c2.06,0.33,3.26,1.26,3.26,3.05c0,1.94-1.65,3.05-4.27,3.05
			c-2.54,0-4.43-1.01-4.62-3.24l2.91-0.04c0.12,0.76,0.74,1.2,1.75,1.2c0.74,0,1.13-0.27,1.13-0.64c0-0.35-0.21-0.6-0.85-0.7
			l-1.36-0.21c-2.23-0.35-3.4-1.07-3.4-2.95c0-1.81,1.59-3.11,4.16-3.11c2.66,0,4.23,1.18,4.41,3.09l-2.74,0.08
			c-0.12-0.66-0.7-1.07-1.73-1.07c-0.64,0-1.01,0.25-1.01,0.66C486.84,590.62,487.09,590.79,487.4,590.83z M476.19,597.24
			c-2.51,0-3.28-1.73-3.28-3.65v-5.79h3.34v4.91c0,1.24,0.35,1.92,1.36,1.92c1.05,0,1.46-0.91,1.46-2.31v-4.51h3.34v9.19h-3.34
			v-1.38C478.58,596.64,477.57,597.24,476.19,597.24z M455.01,546.36v-34.27h34.27v34.27H455.01z M470.71,587.55
			c0.56,0,1.05,0.17,1.28,0.35l-0.21,3.15c-0.45-0.27-0.95-0.39-1.59-0.39c-1.24,0-2,0.58-2,2.12v4.21h-3.34v-9.19h3.34v1.63
			C468.52,588.4,469.49,587.55,470.71,587.55z M459.68,586.93v-2.93h3.38v2.93H459.68z M463.04,587.8v9.19h-3.34v-9.19H463.04z
			 M458.8,584.01l-4.99,12.99h-3.69l-4.99-12.99h3.67l3.22,8.64h0.08l3.22-8.64H458.8z M489.28,453.12l-6.77,51.4h-20.72l-6.77-51.4
			v-32.28h34.27V453.12z M443.33,596.99h-3.73l-0.97-2.51h-5.07l-0.97,2.51h-3.52l5.17-12.99h3.92L443.33,596.99z M422.96,593.82
			l-1.36-0.21c-2.23-0.35-3.4-1.07-3.4-2.95c0-1.81,1.59-3.11,4.16-3.11c2.66,0,4.23,1.18,4.41,3.09l-2.74,0.08
			c-0.12-0.66-0.7-1.07-1.73-1.07c-0.64,0-1.01,0.25-1.01,0.66c0,0.31,0.25,0.47,0.56,0.52l1.79,0.31c2.06,0.33,3.26,1.26,3.26,3.05
			c0,1.94-1.65,3.05-4.27,3.05c-2.54,0-4.43-1.01-4.62-3.24l2.91-0.04c0.12,0.76,0.74,1.2,1.75,1.2c0.74,0,1.13-0.27,1.13-0.64
			C423.8,594.17,423.6,593.92,422.96,593.82z M416.78,584.01v12.99h-3.5v-12.99H416.78z M405.11,590.19c-1.11,0-1.48,0.91-1.48,2.29
			v4.51h-3.34v-4.89c0-1.26-0.25-1.92-1.26-1.92c-1.09,0-1.48,0.91-1.48,2.29v4.51h-3.34v-9.19h3.34v1.38
			c0.5-1.01,1.48-1.63,2.87-1.63c1.63,0,2.47,0.74,2.87,1.81c0.49-1.03,1.59-1.81,3.13-1.81c2.54,0,3.28,1.75,3.28,3.67v5.77h-3.34
			v-4.89C406.34,590.85,406.12,590.19,405.11,590.19z M388.99,593.82l-1.36-0.21c-2.23-0.35-3.4-1.07-3.4-2.95
			c0-1.81,1.59-3.11,4.16-3.11c2.66,0,4.23,1.18,4.41,3.09l-2.74,0.08c-0.12-0.66-0.7-1.07-1.73-1.07c-0.64,0-1.01,0.25-1.01,0.66
			c0,0.31,0.25,0.47,0.56,0.52l1.79,0.31c2.06,0.33,3.26,1.26,3.26,3.05c0,1.94-1.65,3.05-4.27,3.05c-2.54,0-4.43-1.01-4.62-3.24
			l2.91-0.04c0.12,0.76,0.74,1.2,1.75,1.2c0.74,0,1.13-0.27,1.13-0.64C389.83,594.17,389.63,593.92,388.99,593.82z M372.93,546.36
			v-34.27h34.27v34.27H372.93z M379.53,586.93v-2.93h3.38v2.93H379.53z M382.89,587.8v9.19h-3.34v-9.19H382.89z M377.73,584.01
			v12.99h-3.34v-12.99H377.73z M367.7,590.03c-0.74,0-1.11,0.47-1.26,1.15l-3.09-0.21c0.29-2.02,1.79-3.42,4.56-3.42
			c2.43,0,4.23,1.05,4.23,3.61v3.13c0,0.47,0.21,0.68,0.56,0.68c0.27,0,0.47-0.04,0.74-0.14v1.77c-0.47,0.33-1.13,0.6-2.08,0.6
			c-1.13,0-2.02-0.58-2.33-1.63c-0.54,1.07-1.59,1.63-3.05,1.63c-1.79,0-2.97-0.93-2.97-2.49c0-1.77,1.28-2.54,3.28-2.89l2.58-0.43
			v-0.14C368.85,590.48,368.5,590.03,367.7,590.03z M372.93,453.12v-32.28h34.27v32.28l-6.77,51.4H379.7L372.93,453.12z
			 M355.25,590.11v-2.06l0.68-0.1c0.93-0.14,1.22-0.64,1.44-1.48l0.31-1.2h2.1v2.54h2.39v2.31h-2.39v3.36
			c0,0.78,0.37,1.09,1.05,1.09c0.41,0,0.87-0.08,1.42-0.31v2.16c-0.7,0.52-1.5,0.82-2.76,0.82c-1.55,0-3.01-0.64-3.01-2.8v-4.33
			H355.25z M350.98,586.93v-2.93h3.38v2.93H350.98z M354.34,587.8v9.19H351v-9.19H354.34z M345.6,587.55c2.7,0,4.08,2.14,4.08,4.84
			c0,2.72-1.38,4.84-4.08,4.84c-1.55,0-2.58-0.74-3.03-1.81v4.86h-3.34V587.8h3.34v1.59C343.03,588.29,344.06,587.55,345.6,587.55z
			 M332.54,590.03c-0.74,0-1.11,0.47-1.26,1.15l-3.09-0.21c0.29-2.02,1.79-3.42,4.56-3.42c2.43,0,4.23,1.05,4.23,3.61v3.13
			c0,0.47,0.21,0.68,0.56,0.68c0.27,0,0.47-0.04,0.74-0.14v1.77c-0.47,0.33-1.13,0.6-2.08,0.6c-1.13,0-2.02-0.58-2.33-1.63
			c-0.54,1.07-1.59,1.63-3.05,1.63c-1.79,0-2.97-0.93-2.97-2.49c0-1.77,1.28-2.54,3.28-2.89l2.58-0.43v-0.14
			C333.69,590.48,333.34,590.03,332.54,590.03z M320.73,594.13c2.02,0,2.8-1.34,3.01-2.78l3.36,0.14c-0.25,3.24-2.37,5.75-6.35,5.75
			c-3.79,0-6.66-2.74-6.66-6.74c0-4,2.87-6.74,6.66-6.74c3.98,0,6.1,2.54,6.35,5.77l-3.36,0.12c-0.21-1.44-0.99-2.78-3.01-2.78
			c-1.92,0-3.03,1.42-3.03,3.63C317.7,592.71,318.81,594.13,320.73,594.13z M310.64,591.51l-0.43,2.06h-2.04l-0.8,3.42h-2.49
			l0.8-3.42h-1.77l-0.8,3.42h-2.49l0.8-3.42h-1.81l0.43-2.06h1.88l0.49-2.02h-1.98l0.43-2.06h2.02l0.82-3.42h2.49l-0.83,3.42h1.77
			l0.82-3.42h2.49l-0.82,3.42h1.83l-0.43,2.06h-1.88l-0.49,2.02H310.64z M290.84,546.36v-34.27h34.27v34.27H290.84z M290.84,453.12
			v-32.28h34.27v32.28l-6.77,51.4h-20.72L290.84,453.12z M294.83,185.56c-29.09,0-48.61-19.13-48.61-46.82
			c0-27.5,19.52-46.82,48.61-46.82c28.89,0,48.61,19.33,48.61,46.82C343.44,166.44,323.72,185.56,294.83,185.56z M305.38,300.51
			c0,38.65-28.69,65.15-65.15,65.15s-65.15-26.5-65.15-65.15s28.69-65.15,65.15-65.15S305.38,261.86,305.38,300.51z M579.34,286.16
			v27.49h-49.21v21.72h65.55v27.89h-98.82V237.75h97.03v27.89h-63.76v20.52H579.34z M768.28,866.56l-0.08-2.74
			c0.66-0.12,1.07-0.7,1.07-1.73c0-0.64-0.25-1.01-0.66-1.01c-0.31,0-0.47,0.25-0.51,0.56l-0.31,1.79
			c-0.33,2.06-1.26,3.26-3.05,3.26c-1.94,0-3.05-1.65-3.05-4.27c0-2.54,1.01-4.43,3.24-4.62l0.04,2.91c-0.76,0.12-1.2,0.74-1.2,1.75
			c0,0.74,0.27,1.13,0.64,1.13c0.35,0,0.6-0.21,0.7-0.85l0.21-1.36c0.35-2.23,1.07-3.4,2.95-3.4c1.81,0,3.11,1.59,3.11,4.16
			C771.37,864.81,770.2,866.38,768.28,866.56z M764.48,730.72h4.33v-1.24h2.06l0.1,0.68c0.14,0.93,0.64,1.22,1.48,1.44l1.2,0.31v2.1
			h-2.54v2.39h-2.31v-2.39h-3.36c-0.78,0-1.09,0.37-1.09,1.05c0,0.41,0.08,0.87,0.31,1.42h-2.16c-0.52-0.7-0.82-1.5-0.82-2.76
			C761.68,732.18,762.32,730.72,764.48,730.72z M761.93,728.58v-3.34h9.19v3.34H761.93z M764.09,712.5h-1.77
			c-0.33-0.47-0.6-1.13-0.6-2.08c0-1.13,0.58-2.02,1.63-2.33c-1.07-0.54-1.63-1.59-1.63-3.05c0-1.79,0.93-2.97,2.49-2.97
			c1.77,0,2.54,1.28,2.89,3.28l0.43,2.58h0.14c0.76,0,1.22-0.35,1.22-1.15c0-0.74-0.47-1.11-1.15-1.26l0.21-3.09
			c2.02,0.29,3.42,1.79,3.42,4.56c0,2.43-1.05,4.23-3.61,4.23h-3.13c-0.47,0-0.68,0.21-0.68,0.56
			C763.95,712.03,763.99,712.23,764.09,712.5z M764.09,747.66h-1.77c-0.33-0.47-0.6-1.13-0.6-2.08c0-1.13,0.58-2.02,1.63-2.33
			c-1.07-0.54-1.63-1.59-1.63-3.05c0-1.79,0.93-2.97,2.49-2.97c1.77,0,2.54,1.28,2.89,3.28l0.43,2.58h0.14
			c0.76,0,1.22-0.35,1.22-1.15c0-0.74-0.47-1.11-1.15-1.26l0.21-3.09c2.02,0.29,3.42,1.79,3.42,4.56c0,2.43-1.05,4.23-3.61,4.23
			h-3.13c-0.47,0-0.68,0.21-0.68,0.56C763.95,747.19,763.99,747.39,764.09,747.66z M761.93,753.78h9.19v3.34h-9.19V753.78z
			 M764.92,758.27l0.04,2.91c-0.76,0.12-1.2,0.74-1.2,1.75c0,0.74,0.27,1.13,0.64,1.13c0.35,0,0.6-0.21,0.7-0.85l0.21-1.36
			c0.35-2.23,1.07-3.4,2.95-3.4c1.81,0,3.11,1.59,3.11,4.16c0,2.66-1.17,4.23-3.09,4.41l-0.08-2.74c0.66-0.12,1.07-0.7,1.07-1.73
			c0-0.64-0.25-1.01-0.66-1.01c-0.31,0-0.47,0.25-0.51,0.56l-0.31,1.79c-0.33,2.06-1.26,3.26-3.05,3.26c-1.94,0-3.05-1.65-3.05-4.27
			C761.68,760.36,762.69,758.46,764.92,758.27z M771.37,780.64c0,2.54-1.75,3.28-3.67,3.28h-5.77v-3.34h4.89
			c1.26,0,1.92-0.23,1.92-1.24c0-1.11-0.91-1.48-2.29-1.48h-4.51v-3.34h4.89c1.26,0,1.92-0.25,1.92-1.26c0-1.09-0.91-1.48-2.29-1.48
			h-4.51v-3.34h9.19v3.34h-1.38c1.01,0.5,1.63,1.48,1.63,2.87c0,1.63-0.74,2.47-1.81,2.87C770.59,778,771.37,779.09,771.37,780.64z
			 M764.4,798.04c0.35,0,0.6-0.21,0.7-0.85l0.21-1.36c0.35-2.23,1.07-3.4,2.95-3.4c1.81,0,3.11,1.59,3.11,4.16
			c0,2.66-1.17,4.23-3.09,4.41l-0.08-2.74c0.66-0.12,1.07-0.7,1.07-1.73c0-0.64-0.25-1.01-0.66-1.01c-0.31,0-0.47,0.25-0.51,0.56
			l-0.31,1.79c-0.33,2.06-1.26,3.26-3.05,3.26c-1.94,0-3.05-1.65-3.05-4.27c0-2.54,1.01-4.43,3.24-4.62l0.04,2.91
			c-0.76,0.12-1.2,0.74-1.2,1.75C763.76,797.65,764.03,798.04,764.4,798.04z M761.93,833.93h9.19v3.34h-9.19V833.93z M766.61,853.31
			h4.51v3.34h-9.19v-3.34h1.38c-1.03-0.49-1.63-1.5-1.63-2.89c0-2.51,1.73-3.28,3.65-3.28h5.79v3.34h-4.91
			c-1.24,0-1.92,0.35-1.92,1.36C764.3,852.9,765.21,853.31,766.61,853.31z M771.02,846.22l-3.15-0.21c0.27-0.45,0.39-0.95,0.39-1.59
			c0-1.24-0.58-2-2.12-2h-4.21v-3.34h9.19v3.34h-1.63c1.03,0.33,1.88,1.3,1.88,2.52C771.37,845.5,771.21,845.99,771.02,846.22z
			 M774.92,837.29h-2.93v-3.38h2.93V837.29z M774.92,823.03l-8.64,3.22v0.08l8.64,3.22v3.48l-12.99-4.99v-3.69l12.99-4.99V823.03z
			 M774.92,812.39l-12.99,5.17v-3.73l2.51-0.97v-5.07l-2.51-0.97v-3.52l12.99,5.17V812.39z M774.92,791.01h-12.99v-3.5h12.99V791.01
			z M774.92,757.14h-2.93v-3.38h2.93V757.14z M774.92,751.97h-12.99v-3.34h12.99V751.97z M774.92,728.6h-2.93v-3.38h2.93V728.6z
			 M761.93,679.1l3.42,0.8v-1.77l-3.42-0.8v-2.49l3.42,0.8v-1.81l2.06,0.43v1.88l2.02,0.49v-1.98l2.06,0.43v2.02l3.42,0.82v2.49
			l-3.42-0.83v1.77l3.42,0.82v2.49l-3.42-0.82v1.83l-2.06-0.43v-1.88l-2.02-0.49v1.98l-2.06-0.43v-2.04l-3.42-0.8V679.1z
			 M768.42,688.32c4,0,6.74,2.87,6.74,6.66c0,3.98-2.54,6.1-5.77,6.35l-0.12-3.36c1.44-0.21,2.78-0.99,2.78-3.01
			c0-1.92-1.42-3.03-3.63-3.03c-2.21,0-3.63,1.11-3.63,3.03c0,2.02,1.34,2.8,2.78,3.01l-0.14,3.36c-3.24-0.25-5.75-2.37-5.75-6.35
			C761.68,691.19,764.42,688.32,768.42,688.32z M758.63,713.47h12.49v3.34h-1.59c1.09,0.45,1.83,1.48,1.83,3.03
			c0,2.7-2.14,4.08-4.84,4.08c-2.72,0-4.84-1.38-4.84-4.08c0-1.55,0.74-2.58,1.81-3.03h-4.86V713.47z M722.79,277.6
			c0,18.33-11.36,30.28-26.7,32.28c12.95,2.59,20.52,9.96,21.92,24.51c1.79,18.73,2.39,24.31,6.58,28.89h-34.27
			c-2.59-3.39-4.18-11.16-5.18-24.11c-1-14.34-7.17-17.53-18.53-17.53h-22.51v41.64h-33.27V237.75h63.36
			C706.65,237.75,722.79,253.09,722.79,277.6z M641.3,94.32h32.28v15.74c3.19-9.96,12.55-18.13,24.31-18.13
			c5.38,0,10.16,1.59,12.35,3.39l-1.99,30.48c-4.38-2.59-9.17-3.79-15.34-3.79c-11.95,0-19.33,5.58-19.33,20.52v40.64H641.3V94.32z
			 M582.73,91.92c29.69,0,45.42,20.32,45.42,44.43v8.97h-62.36c0.8,10.96,8.77,16.14,18.53,16.14c8.77,0,14.34-2.99,17.33-9.96
			l25.9,2.39c-4.58,20.32-20.92,31.68-44.43,31.68c-28.49,0-48.81-17.13-48.81-45.42C534.31,112.05,555.04,91.92,582.73,91.92z
			 M499.05,129.18l37.85,53.99h-36.26l-25.5-36.06l-7.77,7.97v28.09h-32.28V57.66h32.28V125l30.48-30.68h37.85L499.05,129.18z
			 M462.05,23.55v-9.19h3.34v9.19H462.05z M523.04,21.53c0-0.89,0.58-1.57,1.57-1.94c-0.82-0.54-1.32-1.32-1.32-2.33
			c0-1.96,1.86-3.15,4.43-3.15c1.11,0,2.16,0.27,2.95,0.74c0.56-0.76,1.57-1.42,2.58-1.42v2.51c-0.39,0-0.89,0.04-1.34,0.14
			c0.19,0.35,0.29,0.74,0.29,1.17c0,1.94-1.88,3.13-4.47,3.13c-0.74,0-1.4-0.08-2-0.27c-0.12,0.1-0.19,0.25-0.19,0.43
			c0,0.31,0.23,0.56,0.78,0.56h3.81c2.08,0,3.13,1.09,3.13,2.64c0,2.29-2.78,3.34-5.77,3.34c-2.62,0-4.89-0.52-4.89-2.25
			c0-0.8,0.72-1.44,1.75-1.53C523.53,23.06,523.04,22.32,523.04,21.53z M515.45,14.36h3.34v1.63c0.33-1.03,1.3-1.88,2.52-1.88
			c0.56,0,1.05,0.16,1.28,0.35l-0.21,3.15c-0.45-0.27-0.95-0.39-1.59-0.39c-1.24,0-2,0.58-2,2.12v4.21h-3.34V14.36z M509.1,14.11
			c2.99,0,5.03,2,5.03,4.84c0,2.87-2.04,4.84-5.03,4.84c-3.01,0-5.03-1.98-5.03-4.84C504.07,16.11,506.09,14.11,509.1,14.11z
			 M497.64,20.01h3.55v3.55h-3.55V20.01z M490.86,20.38l-1.36-0.21c-2.23-0.35-3.4-1.07-3.4-2.95c0-1.81,1.59-3.11,4.16-3.11
			c2.66,0,4.23,1.18,4.41,3.09l-2.74,0.08c-0.12-0.66-0.7-1.07-1.73-1.07c-0.64,0-1.01,0.25-1.01,0.66c0,0.31,0.25,0.47,0.56,0.52
			l1.79,0.31c2.06,0.33,3.26,1.26,3.26,3.05c0,1.94-1.65,3.05-4.27,3.05c-2.54,0-4.43-1.01-4.62-3.24l2.91-0.04
			c0.12,0.76,0.74,1.2,1.75,1.2c0.74,0,1.13-0.27,1.13-0.64C491.71,20.73,491.5,20.48,490.86,20.38z M475.26,14.36h3.34v4.91
			c0,1.24,0.35,1.92,1.36,1.92c1.05,0,1.46-0.91,1.46-2.31v-4.51h3.34v9.19h-3.34v-1.38c-0.49,1.03-1.5,1.63-2.89,1.63
			c-2.52,0-3.28-1.73-3.28-3.65V14.36z M467.2,14.36h3.34v1.63c0.33-1.03,1.3-1.88,2.52-1.88c0.56,0,1.05,0.16,1.28,0.35l-0.21,3.15
			c-0.45-0.27-0.95-0.39-1.59-0.39c-1.24,0-2,0.58-2,2.12v4.21h-3.34V14.36z M462.03,10.57h3.38v2.93h-3.38V10.57z M451.15,10.57
			l3.22,8.64h0.08l3.22-8.64h3.48l-4.99,12.99h-3.69l-4.99-12.99H451.15z M436.54,10.57h3.92l5.17,12.99h-3.73l-0.97-2.52h-5.07
			l-0.97,2.52h-3.52L436.54,10.57z M423.59,20.38l-1.36-0.21c-2.23-0.35-3.4-1.07-3.4-2.95c0-1.81,1.59-3.11,4.16-3.11
			c2.66,0,4.23,1.18,4.41,3.09l-2.74,0.08c-0.12-0.66-0.7-1.07-1.73-1.07c-0.64,0-1.01,0.25-1.01,0.66c0,0.31,0.25,0.47,0.56,0.52
			l1.79,0.31c2.06,0.33,3.26,1.26,3.26,3.05c0,1.94-1.65,3.05-4.27,3.05c-2.54,0-4.43-1.01-4.62-3.24l2.91-0.04
			c0.12,0.76,0.74,1.2,1.75,1.2c0.74,0,1.13-0.27,1.13-0.64C424.44,20.73,424.23,20.48,423.59,20.38z M413.91,10.57h3.5v12.99h-3.5
			V10.57z M425.13,95.31l-1.99,30.48c-4.38-2.59-9.17-3.79-15.34-3.79c-11.95,0-19.33,5.58-19.33,20.52v40.64h-32.28V94.32h32.28
			v15.74c3.19-9.96,12.55-18.13,24.31-18.13C418.16,91.92,422.94,93.52,425.13,95.31z M378.52,23.55v-9.19h3.34v9.19H378.52z
			 M393.17,14.36h3.34v1.38c0.49-1.01,1.48-1.63,2.87-1.63c1.63,0,2.47,0.74,2.87,1.81c0.49-1.03,1.59-1.81,3.13-1.81
			c2.54,0,3.28,1.75,3.28,3.67v5.77h-3.34v-4.89c0-1.26-0.23-1.92-1.24-1.92c-1.11,0-1.48,0.91-1.48,2.29v4.51h-3.34v-4.89
			c0-1.26-0.25-1.92-1.26-1.92c-1.09,0-1.48,0.91-1.48,2.29v4.51h-3.34V14.36z M387.96,20.38l-1.36-0.21
			c-2.23-0.35-3.4-1.07-3.4-2.95c0-1.81,1.59-3.11,4.16-3.11c2.66,0,4.23,1.18,4.41,3.09l-2.74,0.08c-0.12-0.66-0.7-1.07-1.73-1.07
			c-0.64,0-1.01,0.25-1.01,0.66c0,0.31,0.25,0.47,0.56,0.52l1.79,0.31c2.06,0.33,3.26,1.26,3.26,3.05c0,1.94-1.65,3.05-4.27,3.05
			c-2.54,0-4.43-1.01-4.62-3.24l2.91-0.04c0.12,0.76,0.74,1.2,1.75,1.2c0.74,0,1.13-0.27,1.13-0.64
			C388.8,20.73,388.6,20.48,387.96,20.38z M378.5,10.57h3.38v2.93h-3.38V10.57z M373.37,10.57h3.34v12.99h-3.34V10.57z
			 M366.67,16.59c-0.74,0-1.11,0.47-1.26,1.15l-3.09-0.21c0.29-2.02,1.79-3.42,4.56-3.42c2.43,0,4.23,1.05,4.23,3.61v3.13
			c0,0.47,0.21,0.68,0.56,0.68c0.27,0,0.47-0.04,0.74-0.14v1.77c-0.47,0.33-1.13,0.6-2.08,0.6c-1.13,0-2.02-0.58-2.33-1.63
			c-0.54,1.07-1.59,1.63-3.05,1.63c-1.79,0-2.97-0.93-2.97-2.49c0-1.77,1.28-2.54,3.28-2.89l2.58-0.43V17.8
			C367.82,17.04,367.47,16.59,366.67,16.59z M354.22,14.61l0.68-0.1c0.93-0.14,1.22-0.64,1.44-1.48l0.31-1.2h2.1v2.54h2.39v2.31
			h-2.39v3.36c0,0.78,0.37,1.09,1.05,1.09c0.41,0,0.87-0.08,1.42-0.31v2.16c-0.7,0.52-1.5,0.82-2.76,0.82
			c-1.55,0-3.01-0.64-3.01-2.8v-4.33h-1.24V14.61z M349.95,10.57h3.38v2.93h-3.38V10.57z M338.2,14.36h3.34v1.59
			c0.45-1.09,1.48-1.83,3.03-1.83c2.7,0,4.08,2.14,4.08,4.84c0,2.72-1.38,4.84-4.08,4.84c-1.55,0-2.58-0.74-3.03-1.81v4.87h-3.34
			V14.36z M331.51,16.59c-0.74,0-1.11,0.47-1.26,1.15l-3.09-0.21c0.29-2.02,1.79-3.42,4.56-3.42c2.43,0,4.23,1.05,4.23,3.61v3.13
			c0,0.47,0.21,0.68,0.56,0.68c0.27,0,0.47-0.04,0.74-0.14v1.77c-0.47,0.33-1.13,0.6-2.08,0.6c-1.13,0-2.02-0.58-2.33-1.63
			c-0.54,1.07-1.59,1.63-3.05,1.63c-1.79,0-2.97-0.93-2.97-2.49c0-1.77,1.28-2.54,3.28-2.89l2.58-0.43V17.8
			C332.66,17.04,332.31,16.59,331.51,16.59z M319.72,10.32c3.98,0,6.1,2.54,6.35,5.77l-3.36,0.12c-0.21-1.44-0.99-2.78-3.01-2.78
			c-1.92,0-3.03,1.42-3.03,3.63s1.11,3.63,3.03,3.63c2.02,0,2.8-1.34,3.01-2.78l3.36,0.14c-0.25,3.24-2.37,5.75-6.35,5.75
			c-3.79,0-6.66-2.74-6.66-6.74S315.92,10.32,319.72,10.32z M306.63,20.01h3.55v3.55h-3.55V20.01z M262.3,14.36l1.65,5.22h0.08
			l1.34-5.22h2.66l1.34,5.22h0.08l1.65-5.22h2.92h0.09h3.23l1.65,5.22h0.08l1.34-5.22h2.66l1.34,5.22h0.08l1.65-5.22h2.92h0.09h3.23
			l1.65,5.22h0.08l1.34-5.22h2.66l1.34,5.22h0.08l1.65-5.22h3.01l-2.91,9.19h-3.28l-1.34-5.19h-0.08l-1.34,5.19h-3.28l-2.86-9.06
			l-2.86,9.06h-3.28l-1.34-5.19h-0.08l-1.34,5.19h-3.28l-2.86-9.06l-2.86,9.06h-3.28l-1.34-5.19h-0.08l-1.34,5.19h-3.28l-2.91-9.19
			H262.3z M102.16,57.66l19.92,78.7h0.8l20.72-78.7h30.48l20.72,78.7h0.8l19.92-78.7h32.67l-32.87,125.52h-36.06l-20.92-79.29h-0.8
			l-20.92,79.29h-35.46L68.29,57.66H102.16z M61.52,237.75h55.19c32.87,0,52,15.34,52,43.04c0,27.89-19.13,43.23-52,43.23H95.19
			v39.25H61.52V237.75z M19.25,671.68c0,0.39,0.04,0.89,0.14,1.34c0.35-0.19,0.74-0.29,1.18-0.29c1.94,0,3.13,1.88,3.13,4.47
			c0,0.74-0.08,1.4-0.27,2c0.1,0.12,0.25,0.19,0.43,0.19c0.31,0,0.56-0.23,0.56-0.78v-3.81c0-2.08,1.09-3.13,2.64-3.13
			c2.29,0,3.34,2.78,3.34,5.77c0,2.62-0.52,4.89-2.25,4.89c-0.8,0-1.44-0.72-1.53-1.75c-0.27,0.82-1.01,1.32-1.79,1.32
			c-0.89,0-1.57-0.58-1.94-1.57c-0.54,0.82-1.32,1.32-2.33,1.32c-1.96,0-3.15-1.86-3.15-4.43c0-1.11,0.27-2.16,0.74-2.95
			c-0.76-0.56-1.42-1.57-1.42-2.58H19.25z M13.87,739.51h2.93v3.38h-2.93V739.51z M13.87,753.78l8.64-3.22v-0.08l-8.64-3.22v-3.48
			l12.99,4.99v3.69l-12.99,4.99V753.78z M13.87,764.47l12.99-5.17v3.73L24.35,764v5.07l2.51,0.97v3.52l-12.99-5.17V764.47z
			 M13.87,787.51h12.99v3.5H13.87V787.51z M13.87,823.05h2.93v3.38h-2.93V823.05z M13.87,828.22h12.99v3.34H13.87V828.22z
			 M13.87,851.59h2.93v3.38h-2.93V851.59z M19.4,878.86l0.12,3.36c-1.44,0.21-2.78,0.99-2.78,3.01c0,1.92,1.42,3.03,3.63,3.03
			s3.63-1.11,3.63-3.03c0-2.02-1.34-2.8-2.78-3.01l0.14-3.36c3.24,0.25,5.75,2.37,5.75,6.35c0,3.79-2.74,6.66-6.74,6.66
			s-6.74-2.87-6.74-6.66C13.63,881.23,16.16,879.1,19.4,878.86z"/>
		<polygon class="st5" points="438.43,14.59 438.35,14.59 436.87,18.42 439.92,18.42 		"/>
		<path class="st5" d="M509.1,21.29c1.15,0,1.67-0.95,1.67-2.33c0-1.38-0.52-2.33-1.67-2.33c-1.17,0-1.67,0.95-1.67,2.33
			C507.44,20.34,507.93,21.29,509.1,21.29z"/>
		<path class="st5" d="M527.51,25.37c1.55,0,2.68-0.31,2.68-0.87c0-0.39-0.29-0.54-0.85-0.54h-3.38c-0.37,0-0.62,0.21-0.62,0.56
			C525.35,25.18,526.27,25.37,527.51,25.37z"/>
		<path class="st5" d="M343.4,21.22c1.3,0,1.9-0.93,1.9-2.27c0-1.32-0.6-2.25-1.9-2.25c-1.13,0-1.86,0.87-1.86,2.19v0.12
			C341.54,20.36,342.27,21.22,343.4,21.22z"/>
		<path class="st5" d="M330.02,20.83c0,0.47,0.37,0.78,0.93,0.78c0.95,0,1.71-0.7,1.71-1.9v-0.14l-1.36,0.25
			C330.5,19.99,330.02,20.24,330.02,20.83z"/>
		<polygon class="st5" points="436.14,588.03 436.05,588.03 434.57,591.86 437.62,591.86 		"/>
		<polygon points="136.63,183.17 157.55,103.88 158.35,103.88 179.27,183.17 215.33,183.17 248.2,57.66 215.53,57.66 195.6,136.35 
			194.81,136.35 174.09,57.66 143.6,57.66 122.88,136.35 122.09,136.35 102.16,57.66 68.29,57.66 101.17,183.17 		"/>
		<path d="M294.83,91.92c-29.09,0-48.61,19.33-48.61,46.82c0,27.69,19.52,46.82,48.61,46.82c28.89,0,48.61-19.13,48.61-46.82
			C343.44,111.25,323.72,91.92,294.83,91.92z M294.83,161.26c-11.36,0-16.14-9.16-16.14-22.51c0-13.35,4.78-22.51,16.14-22.51
			c11.16,0,16.14,9.16,16.14,22.51C310.96,152.09,305.98,161.26,294.83,161.26z"/>
		<path d="M388.47,110.05V94.32h-32.28v88.86h32.28v-40.64c0-14.94,7.37-20.52,19.33-20.52c6.18,0,10.96,1.2,15.34,3.79l1.99-30.48
			c-2.19-1.79-6.97-3.39-12.35-3.39C401.02,91.92,391.66,100.09,388.47,110.05z"/>
		<polygon points="467.37,125 467.37,57.66 435.09,57.66 435.09,183.17 467.37,183.17 467.37,155.08 475.14,147.11 500.64,183.17 
			536.9,183.17 499.05,129.18 535.71,94.32 497.85,94.32 		"/>
		<path d="M583.13,185.56c23.51,0,39.85-11.36,44.43-31.68l-25.9-2.39c-2.99,6.97-8.57,9.96-17.33,9.96
			c-9.76,0-17.73-5.18-18.53-16.14h62.36v-8.97c0-24.11-15.74-44.43-45.42-44.43c-27.69,0-48.41,20.12-48.41,48.21
			C534.31,168.43,554.64,185.56,583.13,185.56z M582.33,115.04c9.56,0,14.74,6.77,15.14,14.74h-31.28
			C567.39,121.41,571.97,115.04,582.33,115.04z"/>
		<path d="M673.58,142.53c0-14.94,7.37-20.52,19.33-20.52c6.18,0,10.96,1.2,15.34,3.79l1.99-30.48c-2.19-1.79-6.97-3.39-12.35-3.39
			c-11.75,0-21.12,8.17-24.31,18.13V94.32H641.3v88.86h32.28V142.53z"/>
		<path d="M95.19,324.02h21.52c32.87,0,52-15.34,52-43.23c0-27.69-19.13-43.04-52-43.04H61.52v125.52h33.67V324.02z M95.19,264.85
			h19.92c15.14,0,20.92,5.58,20.92,16.14c0,10.56-5.78,15.94-20.92,15.94H95.19V264.85z"/>
		<path d="M175.08,300.51c0,38.65,28.69,65.15,65.15,65.15s65.15-26.5,65.15-65.15s-28.69-65.15-65.15-65.15
			S175.08,261.86,175.08,300.51z M270.52,300.51c0,21.32-11.75,35.26-30.28,35.26s-30.28-13.95-30.28-35.26s11.75-35.26,30.28-35.26
			S270.52,279.19,270.52,300.51z"/>
		<polygon points="307.38,237.75 340.25,363.27 375.71,363.27 396.63,283.97 397.43,283.97 418.35,363.27 454.41,363.27 
			487.28,237.75 454.61,237.75 434.69,316.45 433.89,316.45 413.17,237.75 382.69,237.75 361.97,316.45 361.17,316.45 
			341.25,237.75 		"/>
		<polygon points="593.88,265.64 593.88,237.75 496.85,237.75 496.85,363.27 595.67,363.27 595.67,335.38 530.13,335.38 
			530.13,313.66 579.34,313.66 579.34,286.16 530.13,286.16 530.13,265.64 		"/>
		<path d="M610.82,237.75v125.52h33.27v-41.64h22.51c11.36,0,17.53,3.19,18.53,17.53c1,12.95,2.59,20.72,5.18,24.11h34.27
			c-4.18-4.58-4.78-10.16-6.58-28.89c-1.39-14.54-8.96-21.92-21.92-24.51c15.34-1.99,26.7-13.95,26.7-32.28
			c0-24.51-16.14-39.85-48.61-39.85H610.82z M689.71,280.39c0,11.55-7.17,15.14-21.52,15.14h-24.11v-30.68h24.11
			C682.54,264.85,689.71,270.23,689.71,280.39z"/>
		<rect x="290.84" y="512.09" width="34.27" height="34.27"/>
		<polygon points="325.11,453.12 325.11,420.85 290.84,420.85 290.84,453.12 297.62,504.52 318.34,504.52 		"/>
		<polygon points="407.2,453.12 407.2,420.85 372.93,420.85 372.93,453.12 379.7,504.52 400.42,504.52 		"/>
		<rect x="372.93" y="512.09" width="34.27" height="34.27"/>
		<rect x="455.01" y="512.09" width="34.27" height="34.27"/>
		<polygon points="455.01,453.12 461.79,504.52 482.51,504.52 489.28,453.12 489.28,420.85 455.01,420.85 		"/>
		<polygon points="265.16,23.55 266.5,18.36 266.58,18.36 267.92,23.55 271.2,23.55 274.07,14.5 276.93,23.55 280.21,23.55 
			281.55,18.36 281.63,18.36 282.97,23.55 286.25,23.55 289.11,14.5 291.98,23.55 295.25,23.55 296.59,18.36 296.68,18.36 
			298.02,23.55 301.29,23.55 304.2,14.36 301.19,14.36 299.54,19.58 299.46,19.58 298.12,14.36 295.46,14.36 294.12,19.58 
			294.04,19.58 292.39,14.36 289.15,14.36 289.07,14.36 286.15,14.36 284.5,19.58 284.41,19.58 283.07,14.36 280.41,14.36 
			279.07,19.58 278.99,19.58 277.34,14.36 274.11,14.36 274.02,14.36 271.1,14.36 269.45,19.58 269.37,19.58 268.03,14.36 
			265.37,14.36 264.03,19.58 263.95,19.58 262.3,14.36 258.98,14.36 261.88,23.55 		"/>
		<rect x="306.63" y="20.01" width="3.55" height="3.55"/>
		<path d="M319.72,23.8c3.98,0,6.1-2.52,6.35-5.75l-3.36-0.14c-0.21,1.44-0.99,2.78-3.01,2.78c-1.92,0-3.03-1.42-3.03-3.63
			s1.11-3.63,3.03-3.63c2.02,0,2.8,1.34,3.01,2.78l3.36-0.12c-0.25-3.24-2.37-5.77-6.35-5.77c-3.79,0-6.66,2.74-6.66,6.74
			S315.92,23.8,319.72,23.8z"/>
		<path d="M330.08,18.38c-2,0.35-3.28,1.11-3.28,2.89c0,1.57,1.17,2.49,2.97,2.49c1.46,0,2.52-0.56,3.05-1.63
			c0.31,1.05,1.2,1.63,2.33,1.63c0.95,0,1.61-0.27,2.08-0.6v-1.77c-0.27,0.1-0.47,0.14-0.74,0.14c-0.35,0-0.56-0.21-0.56-0.68v-3.13
			c0-2.56-1.79-3.61-4.23-3.61c-2.76,0-4.27,1.4-4.56,3.42l3.09,0.21c0.14-0.68,0.52-1.15,1.26-1.15c0.8,0,1.15,0.45,1.15,1.22v0.14
			L330.08,18.38z M332.66,19.72c0,1.2-0.76,1.9-1.71,1.9c-0.56,0-0.93-0.31-0.93-0.78c0-0.6,0.47-0.85,1.28-1.01l1.36-0.25V19.72z"
			/>
		<path d="M341.54,21.99c0.45,1.07,1.48,1.81,3.03,1.81c2.7,0,4.08-2.12,4.08-4.84c0-2.7-1.38-4.84-4.08-4.84
			c-1.55,0-2.58,0.74-3.03,1.83v-1.59h-3.34v12.49h3.34V21.99z M341.54,18.9c0-1.32,0.72-2.19,1.86-2.19c1.3,0,1.9,0.93,1.9,2.25
			c0,1.34-0.6,2.27-1.9,2.27c-1.13,0-1.86-0.87-1.86-2.21V18.9z"/>
		<rect x="349.95" y="10.57" width="3.38" height="2.93"/>
		<rect x="349.97" y="14.36" width="3.34" height="9.19"/>
		<path d="M355.46,21c0,2.16,1.46,2.8,3.01,2.8c1.26,0,2.06-0.31,2.76-0.82v-2.16c-0.56,0.23-1.01,0.31-1.42,0.31
			c-0.68,0-1.05-0.31-1.05-1.09v-3.36h2.39v-2.31h-2.39v-2.54h-2.1l-0.31,1.2c-0.23,0.85-0.52,1.34-1.44,1.48l-0.68,0.1v2.06h1.24
			V21z"/>
		<path d="M365.25,18.38c-2,0.35-3.28,1.11-3.28,2.89c0,1.57,1.17,2.49,2.97,2.49c1.46,0,2.52-0.56,3.05-1.63
			c0.31,1.05,1.2,1.63,2.33,1.63c0.95,0,1.61-0.27,2.08-0.6v-1.77c-0.27,0.1-0.47,0.14-0.74,0.14c-0.35,0-0.56-0.21-0.56-0.68v-3.13
			c0-2.56-1.79-3.61-4.23-3.61c-2.76,0-4.27,1.4-4.56,3.42l3.09,0.21c0.14-0.68,0.52-1.15,1.26-1.15c0.8,0,1.15,0.45,1.15,1.22v0.14
			L365.25,18.38z M367.82,19.72c0,1.2-0.76,1.9-1.71,1.9c-0.56,0-0.93-0.31-0.93-0.78c0-0.6,0.47-0.85,1.28-1.01l1.36-0.25V19.72z"
			/>
		<rect x="373.37" y="10.57" width="3.34" height="12.99"/>
		<rect x="378.52" y="14.36" width="3.34" height="9.19"/>
		<rect x="378.5" y="10.57" width="3.38" height="2.93"/>
		<path d="M387.67,21.72c-1.01,0-1.63-0.43-1.75-1.2l-2.91,0.04c0.19,2.23,2.08,3.24,4.62,3.24c2.62,0,4.27-1.11,4.27-3.05
			c0-1.79-1.2-2.72-3.26-3.05l-1.79-0.31c-0.31-0.04-0.56-0.21-0.56-0.52c0-0.41,0.37-0.66,1.01-0.66c1.03,0,1.61,0.41,1.73,1.07
			l2.74-0.08c-0.19-1.92-1.75-3.09-4.41-3.09c-2.58,0-4.16,1.3-4.16,3.11c0,1.88,1.17,2.6,3.4,2.95l1.36,0.21
			c0.64,0.1,0.85,0.35,0.85,0.7C388.8,21.45,388.41,21.72,387.67,21.72z"/>
		<path d="M396.51,19.04c0-1.38,0.39-2.29,1.48-2.29c1.01,0,1.26,0.66,1.26,1.92v4.89h3.34v-4.51c0-1.38,0.37-2.29,1.48-2.29
			c1.01,0,1.24,0.66,1.24,1.92v4.89h3.34v-5.77c0-1.92-0.74-3.67-3.28-3.67c-1.55,0-2.64,0.78-3.13,1.81
			c-0.39-1.07-1.24-1.81-2.87-1.81c-1.38,0-2.37,0.62-2.87,1.63v-1.38h-3.34v9.19h3.34V19.04z"/>
		<rect x="413.91" y="10.57" width="3.5" height="12.99"/>
		<path d="M423.3,21.72c-1.01,0-1.63-0.43-1.75-1.2l-2.91,0.04c0.19,2.23,2.08,3.24,4.62,3.24c2.62,0,4.27-1.11,4.27-3.05
			c0-1.79-1.2-2.72-3.26-3.05l-1.79-0.31c-0.31-0.04-0.56-0.21-0.56-0.52c0-0.41,0.37-0.66,1.01-0.66c1.03,0,1.61,0.41,1.73,1.07
			l2.74-0.08c-0.19-1.92-1.75-3.09-4.41-3.09c-2.58,0-4.16,1.3-4.16,3.11c0,1.88,1.18,2.6,3.4,2.95l1.36,0.21
			c0.64,0.1,0.85,0.35,0.85,0.7C424.44,21.45,424.05,21.72,423.3,21.72z"/>
		<path d="M435.86,21.04h5.07l0.97,2.52h3.73l-5.17-12.99h-3.92l-5.17,12.99h3.52L435.86,21.04z M438.35,14.59h0.08l1.48,3.83h-3.05
			L438.35,14.59z"/>
		<polygon points="456.16,23.55 461.15,10.57 457.66,10.57 454.45,19.2 454.36,19.2 451.15,10.57 447.48,10.57 452.47,23.55 		"/>
		<rect x="462.03" y="10.57" width="3.38" height="2.93"/>
		<rect x="462.05" y="14.36" width="3.34" height="9.19"/>
		<path d="M470.54,19.35c0-1.55,0.76-2.12,2-2.12c0.64,0,1.13,0.12,1.59,0.39l0.21-3.15c-0.23-0.19-0.72-0.35-1.28-0.35
			c-1.22,0-2.19,0.85-2.52,1.88v-1.63h-3.34v9.19h3.34V19.35z"/>
		<path d="M478.54,23.8c1.38,0,2.39-0.6,2.89-1.63v1.38h3.34v-9.19h-3.34v4.51c0,1.4-0.41,2.31-1.46,2.31
			c-1.01,0-1.36-0.68-1.36-1.92v-4.91h-3.34v5.79C475.26,22.07,476.02,23.8,478.54,23.8z"/>
		<path d="M490.58,21.72c-1.01,0-1.63-0.43-1.75-1.2l-2.91,0.04c0.19,2.23,2.08,3.24,4.62,3.24c2.62,0,4.27-1.11,4.27-3.05
			c0-1.79-1.2-2.72-3.26-3.05l-1.79-0.31c-0.31-0.04-0.56-0.21-0.56-0.52c0-0.41,0.37-0.66,1.01-0.66c1.03,0,1.61,0.41,1.73,1.07
			l2.74-0.08c-0.19-1.92-1.75-3.09-4.41-3.09c-2.58,0-4.16,1.3-4.16,3.11c0,1.88,1.18,2.6,3.4,2.95l1.36,0.21
			c0.64,0.1,0.85,0.35,0.85,0.7C491.71,21.45,491.32,21.72,490.58,21.72z"/>
		<rect x="497.64" y="20.01" width="3.55" height="3.55"/>
		<path d="M509.1,23.8c2.99,0,5.03-1.98,5.03-4.84c0-2.84-2.04-4.84-5.03-4.84c-3.01,0-5.03,2-5.03,4.84
			C504.07,21.82,506.09,23.8,509.1,23.8z M509.1,16.63c1.15,0,1.67,0.95,1.67,2.33c0,1.38-0.52,2.33-1.67,2.33
			c-1.17,0-1.67-0.95-1.67-2.33C507.44,17.58,507.93,16.63,509.1,16.63z"/>
		<path d="M518.79,19.35c0-1.55,0.76-2.12,2-2.12c0.64,0,1.13,0.12,1.59,0.39l0.21-3.15c-0.23-0.19-0.72-0.35-1.28-0.35
			c-1.22,0-2.19,0.85-2.52,1.88v-1.63h-3.34v9.19h3.34V19.35z"/>
		<path d="M522.6,24.85c0,1.73,2.27,2.25,4.89,2.25c2.99,0,5.77-1.05,5.77-3.34c0-1.55-1.05-2.64-3.13-2.64h-3.81
			c-0.56,0-0.78-0.25-0.78-0.56c0-0.19,0.06-0.33,0.19-0.43c0.6,0.19,1.26,0.27,2,0.27c2.6,0,4.47-1.2,4.47-3.13
			c0-0.43-0.1-0.82-0.29-1.17c0.45-0.1,0.95-0.14,1.34-0.14v-2.51c-1.01,0-2.02,0.66-2.58,1.42c-0.78-0.47-1.83-0.74-2.95-0.74
			c-2.58,0-4.43,1.2-4.43,3.15c0,1.01,0.49,1.79,1.32,2.33c-0.99,0.37-1.57,1.05-1.57,1.94c0,0.78,0.49,1.53,1.32,1.79
			C523.33,23.41,522.6,24.05,522.6,24.85z M527.76,15.95c0.56,0,0.97,0.52,0.97,1.32c0,0.82-0.41,1.34-0.97,1.34
			c-0.56,0-0.97-0.52-0.97-1.34C526.79,16.46,527.2,15.95,527.76,15.95z M525.96,23.97h3.38c0.56,0,0.85,0.14,0.85,0.54
			c0,0.56-1.13,0.87-2.68,0.87c-1.24,0-2.16-0.19-2.16-0.84C525.35,24.17,525.59,23.97,525.96,23.97z"/>
		<path d="M311.03,589.49l0.43-2.06h-1.83l0.82-3.42h-2.49l-0.82,3.42h-1.77l0.83-3.42h-2.49l-0.82,3.42h-2.02l-0.43,2.06h1.98
			l-0.49,2.02h-1.88l-0.43,2.06h1.81l-0.8,3.42h2.49l0.8-3.42h1.77l-0.8,3.42h2.49l0.8-3.42h2.04l0.43-2.06h-1.98l0.49-2.02H311.03z
			 M306.17,591.51h-1.77l0.5-2.02h1.77L306.17,591.51z"/>
		<path d="M320.73,586.87c2.02,0,2.8,1.34,3.01,2.78l3.36-0.12c-0.25-3.24-2.37-5.77-6.35-5.77c-3.79,0-6.66,2.74-6.66,6.74
			c0,4,2.87,6.74,6.66,6.74c3.98,0,6.1-2.52,6.35-5.75l-3.36-0.14c-0.21,1.44-0.99,2.78-3.01,2.78c-1.92,0-3.03-1.42-3.03-3.63
			C317.7,588.29,318.81,586.87,320.73,586.87z"/>
		<path d="M331.11,591.82c-2,0.35-3.28,1.11-3.28,2.89c0,1.57,1.18,2.49,2.97,2.49c1.46,0,2.52-0.56,3.05-1.63
			c0.31,1.05,1.2,1.63,2.33,1.63c0.95,0,1.61-0.27,2.08-0.6v-1.77c-0.27,0.1-0.47,0.14-0.74,0.14c-0.35,0-0.56-0.21-0.56-0.68v-3.13
			c0-2.56-1.79-3.61-4.23-3.61c-2.76,0-4.27,1.4-4.56,3.42l3.09,0.21c0.14-0.68,0.52-1.15,1.26-1.15c0.8,0,1.15,0.45,1.15,1.22v0.14
			L331.11,591.82z M333.69,593.16c0,1.2-0.76,1.9-1.71,1.9c-0.56,0-0.93-0.31-0.93-0.78c0-0.6,0.47-0.85,1.28-1.01l1.36-0.25V593.16
			z"/>
		<path d="M339.23,587.8v12.49h3.34v-4.86c0.45,1.07,1.48,1.81,3.03,1.81c2.7,0,4.08-2.12,4.08-4.84c0-2.7-1.38-4.84-4.08-4.84
			c-1.55,0-2.58,0.74-3.03,1.83v-1.59H339.23z M344.43,590.15c1.3,0,1.9,0.93,1.9,2.25c0,1.34-0.6,2.27-1.9,2.27
			c-1.13,0-1.86-0.87-1.86-2.21v-0.12C342.57,591.02,343.29,590.15,344.43,590.15z"/>
		<rect x="350.98" y="584.01" width="3.38" height="2.93"/>
		<rect x="351" y="587.8" width="3.34" height="9.19"/>
		<path d="M359.49,597.24c1.26,0,2.06-0.31,2.76-0.82v-2.16c-0.56,0.23-1.01,0.31-1.42,0.31c-0.68,0-1.05-0.31-1.05-1.09v-3.36h2.39
			v-2.31h-2.39v-2.54h-2.1l-0.31,1.2c-0.23,0.85-0.52,1.34-1.44,1.48l-0.68,0.1v2.06h1.24v4.33
			C356.48,596.6,357.95,597.24,359.49,597.24z"/>
		<path d="M366.27,591.82c-2,0.35-3.28,1.11-3.28,2.89c0,1.57,1.18,2.49,2.97,2.49c1.46,0,2.51-0.56,3.05-1.63
			c0.31,1.05,1.2,1.63,2.33,1.63c0.95,0,1.61-0.27,2.08-0.6v-1.77c-0.27,0.1-0.47,0.14-0.74,0.14c-0.35,0-0.56-0.21-0.56-0.68v-3.13
			c0-2.56-1.79-3.61-4.23-3.61c-2.76,0-4.27,1.4-4.56,3.42l3.09,0.21c0.14-0.68,0.52-1.15,1.26-1.15c0.8,0,1.15,0.45,1.15,1.22v0.14
			L366.27,591.82z M368.85,593.16c0,1.2-0.76,1.9-1.71,1.9c-0.56,0-0.93-0.31-0.93-0.78c0-0.6,0.47-0.85,1.28-1.01l1.36-0.25V593.16
			z"/>
		<rect x="374.39" y="584.01" width="3.34" height="12.99"/>
		<rect x="379.53" y="584.01" width="3.38" height="2.93"/>
		<rect x="379.55" y="587.8" width="3.34" height="9.19"/>
		<path d="M388.7,595.16c-1.01,0-1.63-0.43-1.75-1.2l-2.91,0.04c0.19,2.23,2.08,3.24,4.62,3.24c2.62,0,4.27-1.11,4.27-3.05
			c0-1.79-1.2-2.72-3.26-3.05l-1.79-0.31c-0.31-0.04-0.56-0.21-0.56-0.52c0-0.41,0.37-0.66,1.01-0.66c1.03,0,1.61,0.41,1.73,1.07
			l2.74-0.08c-0.19-1.92-1.75-3.09-4.41-3.09c-2.58,0-4.16,1.3-4.16,3.11c0,1.88,1.18,2.6,3.4,2.95l1.36,0.21
			c0.64,0.1,0.85,0.35,0.85,0.7C389.83,594.89,389.44,595.16,388.7,595.16z"/>
		<path d="M409.68,596.99v-5.77c0-1.92-0.74-3.67-3.28-3.67c-1.55,0-2.64,0.78-3.13,1.81c-0.39-1.07-1.24-1.81-2.87-1.81
			c-1.38,0-2.37,0.62-2.87,1.63v-1.38h-3.34v9.19h3.34v-4.51c0-1.38,0.39-2.29,1.48-2.29c1.01,0,1.26,0.66,1.26,1.92v4.89h3.34
			v-4.51c0-1.38,0.37-2.29,1.48-2.29c1.01,0,1.24,0.66,1.24,1.92v4.89H409.68z"/>
		<rect x="413.27" y="584.01" width="3.5" height="12.99"/>
		<path d="M422.67,595.16c-1.01,0-1.63-0.43-1.75-1.2l-2.91,0.04c0.19,2.23,2.08,3.24,4.62,3.24c2.62,0,4.27-1.11,4.27-3.05
			c0-1.79-1.2-2.72-3.26-3.05l-1.79-0.31c-0.31-0.04-0.56-0.21-0.56-0.52c0-0.41,0.37-0.66,1.01-0.66c1.03,0,1.61,0.41,1.73,1.07
			l2.74-0.08c-0.19-1.92-1.75-3.09-4.41-3.09c-2.58,0-4.16,1.3-4.16,3.11c0,1.88,1.18,2.6,3.4,2.95l1.36,0.21
			c0.64,0.1,0.85,0.35,0.85,0.7C423.8,594.89,423.41,595.16,422.67,595.16z"/>
		<path d="M429.07,596.99h3.52l0.97-2.51h5.07l0.97,2.51h3.73l-5.17-12.99h-3.92L429.07,596.99z M436.05,588.03h0.08l1.48,3.83
			h-3.05L436.05,588.03z"/>
		<polygon points="452.01,592.64 448.8,584.01 445.13,584.01 450.12,596.99 453.81,596.99 458.8,584.01 455.31,584.01 452.1,592.64 
					"/>
		<rect x="459.7" y="587.8" width="3.34" height="9.19"/>
		<rect x="459.68" y="584.01" width="3.38" height="2.93"/>
		<path d="M464.85,587.8v9.19h3.34v-4.21c0-1.55,0.76-2.12,2-2.12c0.64,0,1.13,0.12,1.59,0.39l0.21-3.15
			c-0.23-0.19-0.72-0.35-1.28-0.35c-1.22,0-2.19,0.85-2.52,1.88v-1.63H464.85z"/>
		<path d="M482.41,596.99v-9.19h-3.34v4.51c0,1.4-0.41,2.31-1.46,2.31c-1.01,0-1.36-0.68-1.36-1.92v-4.91h-3.34v5.79
			c0,1.92,0.76,3.65,3.28,3.65c1.38,0,2.39-0.6,2.89-1.63v1.38H482.41z"/>
		<path d="M487.85,589.65c1.03,0,1.61,0.41,1.73,1.07l2.74-0.08c-0.19-1.92-1.75-3.09-4.41-3.09c-2.58,0-4.16,1.3-4.16,3.11
			c0,1.88,1.17,2.6,3.4,2.95l1.36,0.21c0.64,0.1,0.85,0.35,0.85,0.7c0,0.37-0.39,0.64-1.13,0.64c-1.01,0-1.63-0.43-1.75-1.2
			l-2.91,0.04c0.19,2.23,2.08,3.24,4.62,3.24c2.62,0,4.27-1.11,4.27-3.05c0-1.79-1.2-2.72-3.26-3.05l-1.79-0.31
			c-0.31-0.04-0.56-0.21-0.56-0.52C486.84,589.9,487.21,589.65,487.85,589.65z"/>
	</g>
</g>
</svg>
