<?xml version="1.0" encoding="utf-8"?>
<!-- Generator: Adobe Illustrator 23.1.1, SVG Export Plug-In . SVG Version: 6.00 Build 0)  -->
<svg version="1.1" xmlns="http://www.w3.org/2000/svg" xmlns:xlink="http://www.w3.org/1999/xlink" x="0px" y="0px"
	 viewBox="0 0 792 612" style="enable-background:new 0 0 792 612;" xml:space="preserve">
<style type="text/css">
	.st0{display:none;}
	.st1{display:inline;fill:#FFFFFF;}
	.st2{display:inline;}
	.st3{fill:#FFFFFF;stroke:#000000;stroke-width:16;stroke-linecap:round;stroke-linejoin:round;stroke-miterlimit:10;}
	.st4{fill:none;stroke:#000000;stroke-width:24;stroke-linejoin:round;stroke-miterlimit:10;}
	.st5{fill:#FFFFFF;}
	.st6{fill:#FFFFFF;stroke:#000000;stroke-width:17;stroke-linecap:round;stroke-miterlimit:10;}
	.st7{fill:#FFFFFF;stroke:#000000;stroke-width:17;stroke-miterlimit:10;}
	.st8{stroke:#000000;stroke-width:16.0572;stroke-linecap:round;stroke-miterlimit:10;}
	.st9{fill:#FFFFFF;stroke:#000000;stroke-width:13.497;stroke-linecap:round;stroke-linejoin:round;stroke-miterlimit:10;}
	.st10{stroke:#000000;stroke-width:18.3348;stroke-linecap:round;stroke-miterlimit:10;}
	.st11{fill:none;stroke:#000000;stroke-width:13.497;stroke-linecap:round;stroke-linejoin:round;stroke-miterlimit:10;}
	.st12{fill:#FFFFFF;stroke:#000000;stroke-width:14.6942;stroke-linecap:round;stroke-linejoin:round;stroke-miterlimit:10;}
	.st13{fill:none;stroke:#000000;stroke-width:13;stroke-linecap:round;stroke-linejoin:round;stroke-miterlimit:10;}
	.st14{fill:none;stroke:#000000;stroke-width:13;stroke-linejoin:round;stroke-miterlimit:10;}
	.st15{fill:url(#);stroke:#000000;stroke-width:13;stroke-linejoin:round;stroke-miterlimit:10;}
	.st16{fill:none;stroke:#000000;stroke-width:30.5612;stroke-linecap:round;stroke-linejoin:round;stroke-miterlimit:10;}
	.st17{fill:#FFFFFF;stroke:#000000;stroke-width:16.2993;stroke-linecap:round;stroke-linejoin:round;stroke-miterlimit:10;}
	.st18{fill:#FFFFFF;stroke:#000000;stroke-width:13.497;stroke-linecap:round;stroke-miterlimit:10;}
	.st19{fill:url(#);stroke:#000000;stroke-width:13.497;stroke-linecap:round;stroke-linejoin:round;stroke-miterlimit:10;}
	.st20{fill:#FFFFFF;stroke:#000000;stroke-width:11.7326;stroke-linecap:round;stroke-linejoin:round;stroke-miterlimit:10;}
	.st21{fill:#FFFFFF;stroke:#000000;stroke-width:13.2623;stroke-linecap:round;stroke-linejoin:round;stroke-miterlimit:10;}
	.st22{fill:#FFFFFF;stroke:#000000;stroke-width:13.2623;stroke-linecap:round;stroke-miterlimit:10;}
	.st23{stroke:#000000;stroke-width:4.5213;stroke-miterlimit:10;}
	.st24{fill:none;stroke:#000000;stroke-width:16;stroke-linecap:round;stroke-miterlimit:10;}
	.st25{fill:url(#);stroke:#000000;stroke-width:16;stroke-linecap:round;stroke-linejoin:round;stroke-miterlimit:10;}
	.st26{fill:#FFFFFF;stroke:#000000;stroke-width:16;stroke-linecap:round;stroke-miterlimit:10;}
	.st27{fill:none;stroke:#000000;stroke-width:16;stroke-linecap:round;stroke-linejoin:round;stroke-miterlimit:10;}
	.st28{fill:none;stroke:#000000;stroke-width:15.2344;stroke-linecap:round;stroke-linejoin:round;stroke-miterlimit:10;}
	.st29{fill:#FFFFFF;stroke:#000000;stroke-width:15.2344;stroke-linecap:round;stroke-linejoin:round;stroke-miterlimit:10;}
	.st30{fill:#FFFFFF;stroke:#000000;stroke-width:17;stroke-linecap:round;stroke-linejoin:round;stroke-miterlimit:10;}
	.st31{fill:none;stroke:#000000;stroke-width:9.9764;stroke-linecap:round;stroke-linejoin:round;stroke-miterlimit:10;}
	.st32{fill:none;stroke:#000000;stroke-width:9.3127;stroke-linejoin:round;stroke-miterlimit:10;}
	.st33{fill:url(#);}
	.st34{fill:none;stroke:#000000;stroke-width:8.3796;stroke-linecap:round;stroke-linejoin:round;stroke-miterlimit:10;}
	
		.st35{display:inline;fill:none;stroke:#000000;stroke-width:9.9764;stroke-linecap:round;stroke-linejoin:round;stroke-miterlimit:10;}
	.st36{display:inline;fill:none;stroke:#000000;stroke-width:9.3127;stroke-linejoin:round;stroke-miterlimit:10;}
	.st37{display:inline;fill:url(#);stroke:#000000;stroke-width:10;stroke-linejoin:round;stroke-miterlimit:10;}
	.st38{fill:#FFFFFF;stroke:#000000;stroke-width:14.7375;stroke-linecap:round;stroke-linejoin:round;stroke-miterlimit:10;}
	.st39{fill:none;stroke:#000000;stroke-width:14.7375;stroke-linecap:round;stroke-linejoin:round;stroke-miterlimit:10;}
	.st40{stroke:#000000;stroke-width:14.7375;stroke-linecap:round;stroke-linejoin:round;stroke-miterlimit:10;}
	.st41{fill:#FFFFFF;stroke:#000000;stroke-width:14.2911;stroke-linecap:round;stroke-linejoin:round;stroke-miterlimit:10;}
	.st42{fill:none;stroke:#000000;stroke-width:15;stroke-linecap:round;stroke-linejoin:round;stroke-miterlimit:10;}
	.st43{fill:#FFFFFF;stroke:#000000;stroke-width:15;stroke-linecap:round;stroke-linejoin:round;stroke-miterlimit:10;}
	.st44{fill:#FFFFFF;stroke:#000000;stroke-width:14.8467;stroke-linecap:round;stroke-linejoin:round;stroke-miterlimit:10;}
	.st45{stroke:#000000;stroke-width:20.1683;stroke-linecap:round;stroke-miterlimit:10;}
	.st46{fill:none;stroke:#000000;stroke-width:14.8467;stroke-linecap:round;stroke-linejoin:round;stroke-miterlimit:10;}
	.st47{fill:none;stroke:#000000;stroke-width:13.497;stroke-miterlimit:10;}
	.st48{fill:#FFFFFF;stroke:#000000;stroke-width:13.497;stroke-miterlimit:10;}
	.st49{fill:#FFFFFF;stroke:#000000;stroke-width:14.7439;stroke-linecap:round;stroke-miterlimit:10;}
	.st50{fill:#FFFFFF;stroke:#000000;stroke-width:14.7439;stroke-miterlimit:10;}
	.st51{stroke:#000000;stroke-width:13.9262;stroke-linecap:round;stroke-miterlimit:10;}
	.st52{fill:#FFFFFF;stroke:#000000;stroke-width:17.1072;stroke-linecap:round;stroke-linejoin:round;stroke-miterlimit:10;}
	.st53{stroke:#000000;stroke-width:17.1072;stroke-linecap:round;stroke-linejoin:round;stroke-miterlimit:10;}
	.st54{fill:#FFFFFF;stroke:#000000;stroke-width:15;stroke-linecap:square;stroke-linejoin:round;stroke-miterlimit:10;}
	.st55{fill:#FFFFFF;stroke:#000000;stroke-width:15;stroke-linejoin:round;stroke-miterlimit:10;}
	.st56{fill:#FFFFFF;stroke:#000000;stroke-width:14;stroke-linecap:round;stroke-linejoin:round;stroke-miterlimit:10;}
	.st57{fill:#FFFFFF;stroke:#000000;stroke-width:13;stroke-linecap:round;stroke-linejoin:round;stroke-miterlimit:10;}
	.st58{font-family:'FoundersGrotesk-Bold';}
	.st59{font-size:20.6105px;}
	.st60{font-size:10.3052px;}
	.st61{font-size:19.2364px;}
	.st62{font-size:10px;}
	.st63{font-family:'FoundersGrotesk-Semibold';}
	.st64{font-size:320.3035px;}
	.st65{fill:#FFFFFF;stroke:#000000;stroke-width:15.2362;stroke-linecap:round;stroke-linejoin:round;stroke-miterlimit:10;}
	.st66{fill:#FFFFFF;stroke:#FFFFFF;stroke-width:3;stroke-miterlimit:10;}
	.st67{fill:#FFFFFF;stroke:#000000;stroke-width:13.3058;stroke-linecap:round;stroke-linejoin:round;stroke-miterlimit:10;}
	.st68{fill:#FFFFFF;stroke:#000000;stroke-width:15.2517;stroke-linecap:round;stroke-linejoin:round;stroke-miterlimit:10;}
	.st69{stroke:#000000;stroke-width:3;stroke-miterlimit:10;}
</style>
<g id="unexpanded" class="st0">
	<rect x="-8608.75" y="-3205.56" class="st1" width="14663.41" height="9108.82"/>
	<g class="st2">
		<rect x="-0.25" y="-612" class="st5" width="792" height="1224"/>
		<g>
			<g>
				<g>
					<g>
						<g>
							<g>
								<g>
									<g>
										<path class="st5" d="M455.67,511.51c-4.54,7.5-14.66,9.69-22.59,4.89c-7.93-4.8-10.68-14.78-6.14-22.28l30.12-49.75
											c4.54-7.5,14.66-9.69,22.59-4.89c7.93,4.8,10.68,14.78,6.14,22.28L455.67,511.51z"/>
										<path class="st5" d="M426.94,494.12c-4.54,7.5-14.66,9.69-22.59,4.89c-7.93-4.8-10.68-14.78-6.14-22.28l35.03-57.86
											c4.54-7.5,14.66-9.69,22.59-4.89c7.93,4.8,10.68,14.78,6.14,22.28L426.94,494.12z"/>
										<path class="st5" d="M369.61,459.41c-4.54,7.5-14.66,9.69-22.59,4.89c-7.93-4.8-10.68-14.78-6.14-22.28l35.03-57.86
											c4.54-7.5,14.66-9.69,22.59-4.89c7.93,4.8,10.68,14.78,6.14,22.28L369.61,459.41z"/>
										<path class="st5" d="M398.35,476.8c-4.54,7.5-14.66,9.69-22.59,4.89c-7.93-4.8-10.68-14.78-6.14-22.28l39.95-65.98
											c4.54-7.5,14.66-9.69,22.59-4.89c7.93,4.8,10.68,14.78,6.14,22.28L398.35,476.8z"/>
									</g>
									<path class="st5" d="M398.8,547.67c0,0,13-50.11-35.76-70.35c2.36-4.05,5.14-8.86,5.14-8.86s12.4,5.31,24.04-2.28
										s13.41-17.21,13.41-17.21s-42.77-20.5-50.11-23.53s-15.18,0-23.03,10.12c-7.84,10.12-33.15,41.75-32.14,61.49
										s30.37,49.35,35.17,63.01c2.05,5.82,2.79-17.4,2.63,48.21l93.33,1.29c0-8.62-1.1-28.56,11.9-38.52s33.01-30.84,23.23-86.32
										s-60.99-35.75-60.99-35.75"/>
								</g>
								<g>
									<path class="st21" d="M405.63,448.97c0,0,51.2-19.74,60.99,35.75s-11.17,75.24-23.23,86.32
										c-15.04,13.82-10.41,34.98-10.41,34.98"/>
									<g>
										<path class="st21" d="M455.67,511.51c-4.54,7.5-14.66,9.69-22.59,4.89c-7.93-4.8-10.68-14.78-6.14-22.28l30.12-49.75
											c4.54-7.5,14.66-9.69,22.59-4.89c7.93,4.8,10.68,14.78,6.14,22.28L455.67,511.51z"/>
										<path class="st21" d="M426.94,494.12c-4.54,7.5-14.66,9.69-22.59,4.89c-7.93-4.8-10.68-14.78-6.14-22.28l35.03-57.86
											c4.54-7.5,14.66-9.69,22.59-4.89c7.93,4.8,10.68,14.78,6.14,22.28L426.94,494.12z"/>
										<path class="st21" d="M369.61,459.41c-4.54,7.5-14.66,9.69-22.59,4.89c-7.93-4.8-10.68-14.78-6.14-22.28l35.03-57.86
											c4.54-7.5,14.66-9.69,22.59-4.89c7.93,4.8,10.68,14.78,6.14,22.28L369.61,459.41z"/>
										<path class="st21" d="M398.35,476.8c-4.54,7.5-14.66,9.69-22.59,4.89c-7.93-4.8-10.68-14.78-6.14-22.28l39.95-65.98
											c4.54-7.5,14.66-9.69,22.59-4.89c7.93,4.8,10.68,14.78,6.14,22.28L398.35,476.8z"/>
									</g>
									<path class="st21" d="M398.8,547.67c0,0,13-50.11-35.76-70.35c2.36-4.05,5.14-8.86,5.14-8.86s12.4,5.31,24.04-2.28
										s13.41-17.21,13.41-17.21s-42.77-20.5-50.11-23.53s-15.18,0-23.03,10.12c-7.84,10.12-33.15,41.75-32.14,61.49
										s28.13,50.35,35.17,63.01c8.95,16.08,3.88,33.77,2.63,48.21"/>
								</g>
							</g>
							<line class="st21" x1="380.28" y1="477.94" x2="393.33" y2="473.57"/>
						</g>
						<g>
							<g>
								<g>
									<path class="st5" d="M594.16,312.35c0,0,51.2-19.74,60.99,35.75c9.78,55.49-10.22,76.37-23.23,86.32
										c-13,9.96-6.84,136.79-6.09,174.99H561.3"/>
									<g>
										<path class="st5" d="M644.2,374.89c-4.54,7.5-14.66,9.69-22.59,4.89c-7.93-4.8-10.68-14.78-6.14-22.28l30.12-49.75
											c4.54-7.5,14.66-9.69,22.59-4.89c7.93,4.8,10.68,14.78,6.14,22.28L644.2,374.89z"/>
										<path class="st5" d="M615.47,357.5c-4.54,7.5-14.66,9.69-22.59,4.89c-7.93-4.8-10.68-14.78-6.14-22.28l35.03-57.86
											c4.54-7.5,14.66-9.69,22.59-4.89s10.68,14.78,6.14,22.28L615.47,357.5z"/>
										<path class="st5" d="M558.15,322.79c-4.54,7.5-14.66,9.69-22.59,4.89c-7.93-4.8-10.68-14.78-6.14-22.28l35.03-57.86
											c4.54-7.5,14.66-9.69,22.59-4.89s10.68,14.78,6.14,22.28L558.15,322.79z"/>
										<path class="st5" d="M586.88,340.19c-4.54,7.5-14.66,9.69-22.59,4.89c-7.93-4.8-10.68-14.78-6.14-22.28l39.95-65.98
											c4.54-7.5,14.66-9.69,22.59-4.89c7.93,4.8,10.68,14.78,6.14,22.28L586.88,340.19z"/>
									</g>
								</g>
								<g>
									<path class="st21" d="M594.16,312.35c0,0,51.2-19.74,60.99,35.75c9.78,55.49-11.17,75.24-23.23,86.32
										c-25.56,23.48-4.56,46.93-4.05,172.74"/>
									<g>
										<path class="st21" d="M644.2,374.89c-4.54,7.5-14.66,9.69-22.59,4.89c-7.93-4.8-10.68-14.78-6.14-22.28l30.12-49.75
											c4.54-7.5,14.66-9.69,22.59-4.89c7.93,4.8,10.68,14.78,6.14,22.28L644.2,374.89z"/>
										<path class="st21" d="M615.47,357.5c-4.54,7.5-14.66,9.69-22.59,4.89c-7.93-4.8-10.68-14.78-6.14-22.28l35.03-57.86
											c4.54-7.5,14.66-9.69,22.59-4.89s10.68,14.78,6.14,22.28L615.47,357.5z"/>
										<path class="st21" d="M558.15,322.79c-4.54,7.5-14.66,9.69-22.59,4.89c-7.93-4.8-10.68-14.78-6.14-22.28l35.03-57.86
											c4.54-7.5,14.66-9.69,22.59-4.89s10.68,14.78,6.14,22.28L558.15,322.79z"/>
										<path class="st21" d="M586.88,340.19c-4.54,7.5-14.66,9.69-22.59,4.89c-7.93-4.8-10.68-14.78-6.14-22.28l39.95-65.98
											c4.54-7.5,14.66-9.69,22.59-4.89c7.93,4.8,10.68,14.78,6.14,22.28L586.88,340.19z"/>
									</g>
									<path class="st5" d="M517.81,609.41h81.12l-11.6-198.37c0,0,13-50.11-35.76-70.35c2.36-4.05,5.14-8.86,5.14-8.86
										s12.4,5.32,24.04-2.28s13.41-17.21,13.41-17.21s-42.77-20.5-50.11-23.53c-7.34-3.04-15.18,0-23.03,10.12
										c-7.84,10.12-33.15,41.76-32.14,61.49c1.01,19.74,30.37,49.35,35.17,63.01C527.57,433.41,519.91,513.31,517.81,609.41z"/>
									<path class="st21" d="M587.33,411.05c0,0,13-50.11-35.76-70.35c2.36-4.05,5.14-8.86,5.14-8.86s12.4,5.31,24.04-2.28
										c11.64-7.59,13.41-17.21,13.41-17.21s-42.77-20.5-50.11-23.53c-7.34-3.04-15.18,0-23.03,10.12s-33.15,41.75-32.14,61.49
										c1.01,19.74,28.13,50.35,35.17,63.01c14.78,26.57-8.88,58.19-6.26,183.72"/>
								</g>
							</g>
							<line class="st21" x1="569.21" y1="341.32" x2="579.25" y2="336.74"/>
						</g>
						<g>
							<g>
								<g>
									<path class="st5" d="M224.28,312.35c0,0,51.2-19.74,60.99,35.75s-10.22,76.37-23.23,86.32
										c-13,9.96-6.84,136.79-6.09,174.99h-64.54"/>
									<g>
										<path class="st5" d="M274.32,374.89c-4.54,7.5-14.66,9.69-22.59,4.89s-10.68-14.78-6.14-22.28l30.12-49.75
											c4.54-7.5,14.66-9.69,22.59-4.89c7.93,4.8,10.68,14.78,6.14,22.28L274.32,374.89z"/>
										<path class="st5" d="M245.59,357.5c-4.54,7.5-14.66,9.69-22.59,4.89c-7.93-4.8-10.68-14.78-6.14-22.28l35.03-57.86
											c4.54-7.5,14.66-9.69,22.59-4.89c7.93,4.8,10.68,14.78,6.14,22.28L245.59,357.5z"/>
										<path class="st5" d="M188.26,322.79c-4.54,7.5-14.66,9.69-22.59,4.89s-10.68-14.78-6.14-22.28l35.03-57.86
											c4.54-7.5,14.66-9.69,22.59-4.89c7.93,4.8,10.68,14.78,6.14,22.28L188.26,322.79z"/>
										<path class="st5" d="M216.99,340.19c-4.54,7.5-14.66,9.69-22.59,4.89s-10.68-14.78-6.14-22.28l39.95-65.98
											c4.54-7.5,14.66-9.69,22.59-4.89s10.68,14.78,6.14,22.28L216.99,340.19z"/>
									</g>
								</g>
								<g>
									<path class="st21" d="M224.28,312.35c0,0,51.2-19.74,60.99,35.75s-11.17,75.24-23.23,86.32
										c-25.56,23.48-4.56,46.93-4.05,172.74"/>
									<g>
										<path class="st21" d="M274.32,374.89c-4.54,7.5-14.66,9.69-22.59,4.89s-10.68-14.78-6.14-22.28l30.12-49.75
											c4.54-7.5,14.66-9.69,22.59-4.89c7.93,4.8,10.68,14.78,6.14,22.28L274.32,374.89z"/>
										<path class="st21" d="M245.59,357.5c-4.54,7.5-14.66,9.69-22.59,4.89c-7.93-4.8-10.68-14.78-6.14-22.28l35.03-57.86
											c4.54-7.5,14.66-9.69,22.59-4.89c7.93,4.8,10.68,14.78,6.14,22.28L245.59,357.5z"/>
										<path class="st21" d="M188.26,322.79c-4.54,7.5-14.66,9.69-22.59,4.89s-10.68-14.78-6.14-22.28l35.03-57.86
											c4.54-7.5,14.66-9.69,22.59-4.89c7.93,4.8,10.68,14.78,6.14,22.28L188.26,322.79z"/>
										<path class="st21" d="M216.99,340.19c-4.54,7.5-14.66,9.69-22.59,4.89s-10.68-14.78-6.14-22.28l39.95-65.98
											c4.54-7.5,14.66-9.69,22.59-4.89s10.68,14.78,6.14,22.28L216.99,340.19z"/>
									</g>
									<path class="st5" d="M147.93,609.41h81.12l-11.6-198.37c0,0,13-50.11-35.76-70.35c2.36-4.05,5.14-8.86,5.14-8.86
										s12.4,5.32,24.04-2.28s13.41-17.21,13.41-17.21s-42.77-20.5-50.11-23.53c-7.34-3.04-15.18,0-23.03,10.12
										S118,340.7,119.01,360.44c1.01,19.74,30.37,49.35,35.17,63.01C157.69,433.41,150.03,513.31,147.93,609.41z"/>
									<path class="st21" d="M217.45,411.05c0,0,13-50.11-35.76-70.35c2.36-4.05,5.14-8.86,5.14-8.86s12.4,5.31,24.04-2.28
										c11.64-7.59,13.41-17.21,13.41-17.21s-42.77-20.5-50.11-23.53s-15.18,0-23.03,10.12S118,340.7,119.01,360.44
										c1.01,19.74,28.13,50.35,35.17,63.01c14.78,26.57-8.88,58.19-6.26,183.72"/>
								</g>
							</g>
							<line class="st21" x1="199.59" y1="341.32" x2="210.13" y2="339.03"/>
						</g>
					</g>
				</g>
			</g>
			<text transform="matrix(0 -1 1 0 28.606 439.1815)"><tspan x="0" y="0" class="st58 st59">www</tspan><tspan x="45.14" y="0" class="st58 st60"> </tspan><tspan x="46.99" y="0" class="st58 st59">.</tspan><tspan x="51.77" y="0" class="st58 st60"> </tspan><tspan x="53.63" y="0" class="st58 st59">Capitalism</tspan><tspan x="150.43" y="0" class="st58 st61"> </tspan><tspan x="153.9" y="0" class="st58 st59">Is</tspan><tspan x="168.88" y="0" class="st58 st61"> </tspan><tspan x="172.34" y="0" class="st58 st59">A</tspan><tspan x="186.6" y="0" class="st58 st60"> </tspan><tspan x="188.46" y="0" class="st58 st59">Virus</tspan><tspan x="236.15" y="0" class="st58 st60"> </tspan><tspan x="238.01" y="0" class="st58 st59">.</tspan><tspan x="242.79" y="0" class="st58 st60"> </tspan><tspan x="244.64" y="0" class="st58 st59">org</tspan></text>
			<text transform="matrix(0 1 -1 0 763.6719 205.2114)"><tspan x="0" y="0" class="st58 st59">#</tspan><tspan x="12.7" y="0" class="st58 st62"> </tspan><tspan x="14.5" y="0" class="st58 st59">Capitalism</tspan><tspan x="111.3" y="0" class="st58 st62"> </tspan><tspan x="113.1" y="0" class="st58 st59">Is</tspan><tspan x="128.09" y="0" class="st58 st62"> </tspan><tspan x="129.89" y="0" class="st58 st59">A</tspan><tspan x="144.15" y="0" class="st58 st62"> </tspan><tspan x="145.95" y="0" class="st58 st59">Virus</tspan></text>
			<g>
				<text transform="matrix(1 0 0 1 310.0978 274.2676)" class="st63 st64">$</text>
			</g>
		</g>
	</g>
</g>
<g id="exp_trnsp_bg">
	<path d="M441.04,603.62c-0.04-0.18-3.55-17.72,8.41-28.71c11.81-10.85,33.21-30.54,26.7-82.84l16.89-27.89
		c3.15-5.2,3.98-11.37,2.33-17.35c-1.61-5.85-5.41-10.84-10.71-14.04c-3.9-2.36-8.18-3.48-12.38-3.49
		c0.74-8.47-3.44-17.18-11.43-22.02c-3.85-2.33-8.08-3.46-12.24-3.49c0.7-8.44-3.47-17.11-11.44-21.94
		c-5.29-3.2-11.47-4.26-17.4-2.98c-2.7,0.58-5.18,1.64-7.4,3.06c-2-3.81-5.03-7.05-8.84-9.36c-11.05-6.69-25.27-3.49-31.7,7.13
		l-22.45,37.09c-9.22,1.08-16.48,8.46-20.53,13.69l-1.04,1.34c-15.63,20.1-33.45,45.59-32.48,64.56
		c0.83,16.11,15.17,36.11,26.69,52.18c4.03,5.62,7.51,10.48,9.32,13.72c6.12,11,4.48,23.33,2.89,35.25
		c-0.42,3.17-0.82,6.17-1.08,9.16c-0.14,1.58,0.29,3.08,1.12,4.3c1.08,1.59,2.84,2.7,4.91,2.88c0.2,0.02,0.39,0.03,0.58,0.02
		c2.25,0,4.27-1.14,5.47-2.9c0.62-0.91,1.03-1.98,1.13-3.15c0.01-0.16,0.03-0.32,0.05-0.48c0.24-2.55,0.59-5.24,0.97-8.08
		c1.7-12.75,3.81-28.61-4.45-43.45c-2.17-3.9-5.86-9.05-10.13-15c-9.39-13.1-23.59-32.9-24.22-45.13
		c-0.84-16.47,22.15-46.02,29.7-55.74l1.05-1.36c5.59-7.22,10.73-9.93,15.25-8.06c5.5,2.28,32.22,15,44.08,20.67
		c-1.53,2.46-4.13,5.56-8.48,8.39c-8.4,5.48-17.47,1.87-17.81,1.74c-3.08-1.32-6.67-0.13-8.35,2.77c0,0-2.78,4.8-5.13,8.84
		c-0.96,1.65-1.16,3.64-0.55,5.45c0.61,1.81,1.97,3.27,3.74,4.01c42.67,17.71,32.36,60.68,31.88,62.57
		c-0.91,3.54,1.22,7.15,4.76,8.07c3.54,0.92,7.16-1.21,8.08-4.75c0.15-0.57,3.59-14.15,0.5-30.48c-0.78-4.15-2.04-8.69-4-13.34
		c-0.07-0.17-0.14-0.34-0.22-0.5c0.08,0.05,0.16,0.09,0.24,0.14c3.61,2,7.59,3.05,11.61,3.05c1.66,0,3.32-0.18,4.97-0.53
		c0.17-0.04,0.33-0.09,0.5-0.14c1.46,5.81,5.19,11.14,10.82,14.55c3.83,2.32,8.11,3.51,12.44,3.51c1.66,0,3.32-0.18,4.97-0.53
		c6.07-1.31,11.14-4.9,14.29-10.11l1.17-1.93c-0.43,31.83-14.48,44.76-23.61,53.15c-17.65,16.21-12.62,40.27-12.4,41.29
		c0.16,0.75,0.45,1.44,0.83,2.06c0.68,1.1,1.67,1.95,2.82,2.5c0.86,0.41,1.81,0.65,2.8,0.65c0.46,0,0.93-0.05,1.4-0.15
		c0.51-0.11,1-0.28,1.45-0.5C440.1,609.69,441.68,606.68,441.04,603.62z M445.82,511.06c-2.6,0.56-5.35,0.08-7.73-1.36
		c-4.79-2.9-6.54-8.81-3.9-13.18l30.12-49.75c1.66-2.75,4.68-4.24,7.88-4.24c1.88,0,3.83,0.51,5.6,1.59
		c2.38,1.44,4.08,3.65,4.79,6.22c0.67,2.43,0.36,4.9-0.89,6.96l-30.12,49.75C450.33,509.11,448.29,510.53,445.82,511.06z
		 M409.36,492.31c-4.41-2.67-6.23-7.87-4.45-12.09c0.23-0.33,0.47-0.66,0.68-1.01l35.83-59.19c1.74-1.95,4.27-3,6.95-3
		c1.88,0,3.83,0.51,5.6,1.59c4.79,2.9,6.54,8.81,3.9,13.18l-35.03,57.86c-1.24,2.05-3.29,3.48-5.75,4.01
		C414.49,494.23,411.74,493.75,409.36,492.31z M391.05,382.32c1.88,0,3.83,0.51,5.6,1.59c2.38,1.44,4.08,3.65,4.79,6.22
		c0.67,2.43,0.36,4.9-0.89,6.96l-15.6,25.76l-3.37,5.56c-7.24-3.42-14.19-6.67-18.53-8.63l20.11-33.22
		C384.83,383.81,387.85,382.32,391.05,382.32z M416.81,395.84c1.24-2.05,3.29-3.48,5.75-4.01c0.71-0.15,1.43-0.23,2.15-0.23
		c1.92,0,3.85,0.54,5.58,1.59c4.79,2.9,6.54,8.81,3.9,13.18l-22.32,36.87c-0.51-0.51-1.12-0.94-1.8-1.27
		c-0.7-0.34-7.76-3.72-16.44-7.85L416.81,395.84z"/>
	<path d="M636.08,606.12c-0.2-50.58-3.66-84.32-6.18-108.95c-3.82-37.28-4.3-47.51,8.08-58.88c11.81-10.85,33.21-30.54,26.7-82.84
		l16.89-27.89c3.15-5.2,3.98-11.37,2.33-17.35c-1.61-5.85-5.41-10.84-10.71-14.04c-3.89-2.35-8.17-3.48-12.37-3.49
		c0.23-2.63-0.01-5.32-0.74-7.98c-1.61-5.85-5.42-10.84-10.71-14.04c-3.77-2.28-7.98-3.45-12.24-3.49
		c0.7-8.44-3.47-17.12-11.44-21.94c-8-4.84-17.65-4.5-24.81,0.08c-2-3.81-5.02-7.05-8.83-9.35c-5.29-3.2-11.47-4.26-17.4-2.98
		c-6.07,1.31-11.14,4.9-14.29,10.11l-22.45,37.09c-9.22,1.08-16.48,8.46-20.53,13.69l-1.04,1.34
		c-15.63,20.1-33.45,45.59-32.48,64.56c0.83,16.11,15.16,36.11,26.68,52.17c4.03,5.62,7.51,10.48,9.32,13.72
		c6.16,11.07,4.4,23.73,0.89,48.95c-3.72,26.72-9.33,67.09-7.98,131.69c0.04,1.86,0.84,3.51,2.09,4.69c1.19,1.12,2.78,1.8,4.53,1.8
		c0.05,0,0.09,0,0.14,0c1.71-0.04,3.24-0.72,4.39-1.8c0.76-0.71,1.34-1.59,1.7-2.59c0.27-0.74,0.41-1.54,0.4-2.38
		c-1.33-63.54,4.2-103.29,7.86-129.58c3.67-26.36,5.88-42.28-2.44-57.23c-2.17-3.9-5.86-9.05-10.13-15
		c-9.39-13.1-23.59-32.9-24.22-45.13c-0.84-16.47,22.15-46.02,29.7-55.74l1.05-1.36c5.59-7.22,10.72-9.93,15.25-8.06
		c5.5,2.28,32.22,15,44.08,20.67c-1.53,2.46-4.13,5.56-8.48,8.39c-8.4,5.48-17.47,1.87-17.81,1.74c-3.08-1.32-6.67-0.13-8.35,2.77
		c0,0-2.78,4.8-5.13,8.84c-0.96,1.65-1.16,3.64-0.55,5.45c0.61,1.81,1.97,3.27,3.74,4.01c42.64,17.7,32.37,60.63,31.88,62.57
		c-0.91,3.54,1.21,7.16,4.75,8.07c3.54,0.92,7.17-1.21,8.08-4.75c0.15-0.57,3.59-14.15,0.5-30.48c-0.81-4.3-2.13-9.02-4.22-13.85
		c3.68,2.09,7.75,3.18,11.85,3.18c1.66,0,3.32-0.18,4.97-0.53c0.17-0.04,0.33-0.09,0.49-0.13c0.04,0.17,0.08,0.34,0.13,0.51
		c1.61,5.85,5.41,10.84,10.71,14.04c3.91,2.37,8.22,3.5,12.44,3.5c7.7,0,15.11-3.76,19.26-10.62c0,0,0,0,0,0l1.17-1.93
		c-0.43,31.83-14.48,44.76-23.61,53.15c-17.8,16.35-16.08,33.16-12.3,70c2.49,24.36,5.91,57.72,6.11,107.65
		c0,0.78,0.15,1.52,0.4,2.22c0.36,0.99,0.94,1.88,1.7,2.59c1.19,1.11,2.78,1.8,4.53,1.8c0.01,0,0.02,0,0.03,0
		c1.75-0.01,3.33-0.69,4.51-1.8C635.28,609.76,636.09,608.04,636.08,606.12z M626.62,373.08c-2.38-1.44-4.08-3.65-4.79-6.22
		c-0.67-2.43-0.36-4.9,0.89-6.96l30.12-49.75c1.66-2.75,4.68-4.24,7.88-4.24c1.88,0,3.83,0.51,5.6,1.59
		c2.38,1.44,4.08,3.65,4.79,6.22c0.67,2.43,0.36,4.9-0.89,6.96l-30.12,49.75v0C637.47,374.8,631.42,375.99,626.62,373.08z
		 M593.1,349.47c-0.55-1.98-0.43-3.98,0.3-5.77c0.25-0.36,0.49-0.73,0.72-1.11v0l35.86-59.23c1.23-1.36,2.88-2.31,4.79-2.73
		c0.71-0.15,1.43-0.23,2.15-0.23c1.92,0,3.85,0.54,5.58,1.59c2.38,1.44,4.08,3.65,4.79,6.22c0.67,2.43,0.36,4.9-0.89,6.96
		l-35.03,57.86c-1.24,2.05-3.29,3.48-5.75,4.01c-2.6,0.56-5.35,0.08-7.73-1.36C595.51,354.25,593.81,352.04,593.1,349.47z
		 M577.45,245.93c0.71-0.15,1.43-0.23,2.15-0.23c1.92,0,3.85,0.54,5.58,1.59c2.38,1.44,4.08,3.65,4.79,6.22
		c0.67,2.43,0.36,4.9-0.89,6.96l-18.96,31.33c-7.24-3.42-14.19-6.67-18.53-8.63l20.11-33.22
		C572.94,247.89,574.99,246.46,577.45,245.93z M605.35,259.22c1.66-2.75,4.68-4.24,7.88-4.24c1.88,0,3.83,0.51,5.6,1.59
		c4.79,2.9,6.54,8.81,3.9,13.18l-22.32,36.87c-0.51-0.51-1.12-0.94-1.8-1.27c-0.7-0.34-7.76-3.72-16.44-7.85L605.35,259.22z"/>
	<path d="M266.2,606.12c-0.2-50.58-3.66-84.32-6.18-108.95c-3.82-37.28-4.3-47.51,8.08-58.88c11.81-10.85,33.21-30.54,26.7-82.84
		l16.89-27.89c3.15-5.2,3.98-11.37,2.33-17.35c-1.61-5.85-5.41-10.84-10.71-14.04c-3.81-2.31-8.08-3.48-12.38-3.49
		c0.74-8.47-3.44-17.18-11.43-22.02c-3.77-2.28-7.98-3.45-12.24-3.49c0.7-8.44-3.47-17.12-11.44-21.94c-8-4.84-17.65-4.5-24.81,0.08
		c-2-3.81-5.02-7.05-8.83-9.35c-5.29-3.2-11.47-4.26-17.4-2.98c-6.07,1.31-11.14,4.9-14.29,10.11l-22.45,37.09
		c-9.22,1.08-16.48,8.46-20.53,13.69l-1.04,1.34c-15.63,20.1-33.45,45.59-32.48,64.56c0.83,16.11,15.16,36.11,26.68,52.17
		c4.03,5.62,7.51,10.48,9.32,13.72c6.16,11.07,4.4,23.73,0.89,48.95c-3.72,26.72-9.33,67.09-7.98,131.69
		c0.04,1.86,0.84,3.51,2.09,4.69c1.19,1.12,2.78,1.8,4.53,1.8c0.05,0,0.09,0,0.14,0c1.71-0.04,3.24-0.72,4.39-1.8
		c0.76-0.71,1.34-1.59,1.7-2.59c0.27-0.74,0.41-1.54,0.4-2.38c-1.33-63.54,4.2-103.29,7.86-129.58c3.67-26.36,5.88-42.28-2.44-57.23
		c-2.17-3.9-5.86-9.05-10.13-15c-9.39-13.1-23.59-32.9-24.22-45.13c-0.84-16.47,22.15-46.02,29.7-55.73l1.05-1.36
		c5.59-7.22,10.73-9.93,15.25-8.06c5.51,2.28,32.22,15,44.09,20.67c-1.53,2.46-4.13,5.56-8.48,8.39c-8.4,5.48-17.47,1.87-17.81,1.74
		c-3.08-1.32-6.67-0.13-8.35,2.77c0,0-2.78,4.8-5.13,8.84c-0.96,1.65-1.16,3.64-0.55,5.45c0.61,1.81,1.97,3.27,3.74,4.01
		c42.64,17.7,32.37,60.63,31.88,62.57c-0.91,3.54,1.21,7.16,4.75,8.07c3.54,0.92,7.17-1.21,8.08-4.75
		c0.15-0.57,3.59-14.15,0.5-30.48c-0.81-4.3-2.13-9.02-4.22-13.85c3.68,2.09,7.75,3.18,11.85,3.18c1.66,0,3.32-0.18,4.97-0.53
		c0.17-0.04,0.33-0.09,0.49-0.13c0.04,0.17,0.08,0.34,0.13,0.51c1.61,5.85,5.41,10.84,10.71,14.04c3.91,2.37,8.22,3.5,12.44,3.5
		c7.7,0,15.11-3.76,19.26-10.62c0,0,0,0,0,0l1.17-1.93c-0.43,31.83-14.48,44.77-23.61,53.15c-17.8,16.35-16.08,33.16-12.3,70
		c2.49,24.36,5.91,57.72,6.11,107.65c0,0.78,0.15,1.52,0.4,2.22c0.36,0.99,0.94,1.88,1.7,2.59c1.19,1.11,2.78,1.8,4.53,1.8
		c0.01,0,0.02,0,0.03,0c1.75-0.01,3.33-0.69,4.51-1.8C265.4,609.76,266.21,608.04,266.2,606.12z M256.74,373.08
		c-2.38-1.44-4.08-3.65-4.79-6.22c-0.67-2.43-0.36-4.9,0.89-6.96l30.12-49.75c1.24-2.05,3.29-3.48,5.75-4.01
		c0.71-0.15,1.43-0.23,2.15-0.23c1.92,0,3.85,0.54,5.58,1.59c2.38,1.44,4.08,3.65,4.79,6.22c0.67,2.43,0.36,4.9-0.89,6.96
		l-30.12,49.75v0C267.59,374.8,261.54,375.99,256.74,373.08z M223.22,349.47c-0.56-2.02-0.42-4.06,0.34-5.87
		c0.23-0.33,0.47-0.65,0.68-1l35.86-59.23c1.23-1.36,2.88-2.31,4.79-2.73c0.71-0.15,1.43-0.23,2.15-0.23c1.92,0,3.85,0.54,5.58,1.59
		c4.79,2.9,6.54,8.81,3.9,13.18l-35.03,57.86c-1.24,2.05-3.29,3.48-5.75,4.01c-2.6,0.56-5.35,0.08-7.73-1.36
		C225.63,354.25,223.93,352.04,223.22,349.47z M207.57,245.93c0.71-0.15,1.43-0.23,2.15-0.23c1.92,0,3.85,0.54,5.58,1.59
		c2.38,1.44,4.08,3.65,4.79,6.22c0.67,2.43,0.36,4.9-0.89,6.96l-18.97,31.33c-7.24-3.42-14.18-6.67-18.53-8.63l20.11-33.22
		C203.06,247.89,205.11,246.46,207.57,245.93z M248.95,256.57c4.79,2.9,6.54,8.81,3.9,13.18l-22.32,36.87
		c-0.51-0.51-1.12-0.94-1.8-1.27c-0.7-0.34-7.76-3.72-16.44-7.85l23.18-38.29c1.66-2.75,4.68-4.24,7.88-4.24
		C245.23,254.98,247.18,255.49,248.95,256.57z"/>
	<polygon points="20.99,395.93 26.21,397.58 26.21,397.67 20.99,399.01 20.99,401.67 26.21,403.01 26.21,403.09 20.99,404.74 
		20.99,407.97 20.99,408.06 20.99,410.98 26.21,412.63 26.21,412.71 20.99,414.05 20.99,416.71 26.21,418.05 26.21,418.13 
		20.99,419.78 20.99,423.02 20.99,423.1 20.99,426.03 26.21,427.68 26.21,427.76 20.99,429.1 20.99,431.76 26.21,433.1 
		26.21,433.18 20.99,434.83 20.99,438.15 30.19,435.24 30.19,431.96 24.99,430.62 24.99,430.54 30.19,429.2 30.19,425.92 
		21.13,423.06 30.19,420.2 30.19,416.92 24.99,415.58 24.99,415.49 30.19,414.16 30.19,410.88 21.13,408.01 30.19,405.15 
		30.19,401.87 24.99,400.53 24.99,400.45 30.19,399.11 30.19,395.83 20.99,392.93 	"/>
	<rect x="26.64" y="386.95" width="3.54" height="3.55"/>
	<path d="M24.68,371.06l-0.14,3.36c1.44,0.21,2.78,0.99,2.78,3.01c0,1.92-1.42,3.03-3.63,3.03s-3.63-1.11-3.63-3.03
		c0-2.02,1.34-2.8,2.78-3.01l-0.12-3.36c-3.24,0.25-5.77,2.37-5.77,6.35c0,3.79,2.74,6.66,6.74,6.66s6.74-2.87,6.74-6.66
		C30.43,373.43,27.92,371.31,24.68,371.06z"/>
	<path d="M27.49,361.19h-3.13c-2.56,0-3.61,1.79-3.61,4.23c0,2.76,1.4,4.27,3.42,4.56l0.21-3.09c-0.68-0.14-1.15-0.52-1.15-1.26
		c0-0.8,0.45-1.15,1.22-1.15h0.14l0.43,2.58c0.35,2,1.11,3.28,2.89,3.28c1.57,0,2.5-1.17,2.5-2.97c0-1.46-0.56-2.52-1.63-3.05
		c1.05-0.31,1.63-1.2,1.63-2.33c0-0.95-0.27-1.61-0.6-2.08h-1.77c0.1,0.27,0.14,0.47,0.14,0.74
		C28.17,360.98,27.96,361.19,27.49,361.19z M28.25,366.18c0,0.56-0.31,0.93-0.78,0.93c-0.6,0-0.85-0.47-1.01-1.28l-0.25-1.36h0.14
		C27.55,364.46,28.25,365.23,28.25,366.18z"/>
	<path d="M30.43,352.55c0-2.7-2.12-4.08-4.84-4.08c-2.7,0-4.84,1.38-4.84,4.08c0,1.55,0.74,2.58,1.83,3.03h-1.59v3.34h12.49v-3.34
		h-4.87C29.69,355.13,30.43,354.1,30.43,352.55z M25.65,355.58h-0.12c-1.32,0-2.19-0.72-2.19-1.86c0-1.3,0.93-1.9,2.25-1.9
		c1.34,0,2.27,0.6,2.27,1.9C27.86,354.86,26.99,355.58,25.65,355.58z"/>
	<rect x="17.2" y="343.79" width="2.93" height="3.38"/>
	<rect x="20.99" y="343.81" width="9.19" height="3.34"/>
	<path d="M29.61,335.9h-2.17c0.23,0.56,0.31,1.01,0.31,1.42c0,0.68-0.31,1.05-1.09,1.05H23.3v-2.39h-2.31v2.39h-2.54v2.1l1.2,0.31
		c0.84,0.23,1.34,0.52,1.48,1.44l0.1,0.68h2.06v-1.24h4.33c2.17,0,2.8-1.46,2.8-3.01C30.43,337.4,30.12,336.6,29.61,335.9z"/>
	<path d="M27.49,326.03h-3.13c-2.56,0-3.61,1.79-3.61,4.23c0,2.76,1.4,4.27,3.42,4.56l0.21-3.09c-0.68-0.14-1.15-0.52-1.15-1.26
		c0-0.8,0.45-1.15,1.22-1.15h0.14l0.43,2.58c0.35,2,1.11,3.28,2.89,3.28c1.57,0,2.5-1.17,2.5-2.97c0-1.46-0.56-2.52-1.63-3.05
		c1.05-0.31,1.63-1.2,1.63-2.33c0-0.95-0.27-1.61-0.6-2.08h-1.77c0.1,0.27,0.14,0.47,0.14,0.74
		C28.17,325.82,27.96,326.03,27.49,326.03z M28.25,331.01c0,0.56-0.31,0.93-0.78,0.93c-0.6,0-0.85-0.47-1.01-1.28l-0.25-1.36h0.14
		C27.55,329.3,28.25,330.07,28.25,331.01z"/>
	<rect x="17.2" y="320.42" width="12.99" height="3.34"/>
	<rect x="17.2" y="315.25" width="2.93" height="3.38"/>
	<rect x="20.99" y="315.27" width="9.19" height="3.34"/>
	<path d="M27.38,305.23c-1.79,0-2.72,1.2-3.05,3.26l-0.31,1.79c-0.04,0.31-0.21,0.56-0.52,0.56c-0.41,0-0.66-0.37-0.66-1.01
		c0-1.03,0.41-1.61,1.07-1.73l-0.08-2.74c-1.92,0.19-3.09,1.75-3.09,4.41c0,2.58,1.3,4.16,3.11,4.16c1.88,0,2.6-1.17,2.95-3.4
		l0.21-1.36c0.1-0.64,0.35-0.85,0.7-0.85c0.37,0,0.64,0.39,0.64,1.13c0,1.01-0.43,1.63-1.2,1.75l0.04,2.91
		c2.23-0.19,3.24-2.08,3.24-4.62C30.43,306.88,29.32,305.23,27.38,305.23z"/>
	<path d="M20.74,297.75c0,1.38,0.62,2.37,1.63,2.87h-1.38v3.34h9.19v-3.34h-4.51c-1.38,0-2.29-0.39-2.29-1.48
		c0-1.01,0.66-1.26,1.92-1.26h4.88v-3.34h-4.51c-1.38,0-2.29-0.37-2.29-1.48c0-1.01,0.66-1.24,1.92-1.24h4.88v-3.34h-5.77
		c-1.92,0-3.67,0.74-3.67,3.28c0,1.55,0.78,2.64,1.81,3.13C21.49,295.27,20.74,296.12,20.74,297.75z"/>
	<rect x="17.2" y="279.72" width="12.99" height="3.5"/>
	<path d="M27.16,275.57l0.04,2.91c2.23-0.19,3.24-2.08,3.24-4.62c0-2.62-1.11-4.27-3.05-4.27c-1.79,0-2.72,1.2-3.05,3.26l-0.31,1.79
		c-0.04,0.31-0.21,0.56-0.52,0.56c-0.41,0-0.66-0.37-0.66-1.01c0-1.03,0.41-1.61,1.07-1.73l-0.08-2.74
		c-1.92,0.19-3.09,1.75-3.09,4.41c0,2.58,1.3,4.16,3.11,4.16c1.88,0,2.6-1.18,2.95-3.4l0.21-1.36c0.1-0.64,0.35-0.85,0.7-0.85
		c0.37,0,0.64,0.39,0.64,1.13C28.35,274.83,27.92,275.45,27.16,275.57z"/>
	<path d="M30.19,262.24l-2.51-0.97v-5.07l2.51-0.97v-3.73l-12.99,5.17v3.92l12.99,5.17V262.24z M25.05,260.26l-3.83-1.48v-0.08
		l3.83-1.48V260.26z"/>
	<polygon points="30.19,240.97 17.2,235.98 17.2,239.46 25.84,242.68 25.84,242.76 17.2,245.98 17.2,249.65 30.19,244.66 	"/>
	<rect x="17.2" y="231.71" width="2.93" height="3.38"/>
	<rect x="20.99" y="231.74" width="9.19" height="3.34"/>
	<path d="M22.62,226.58h-1.63v3.34h9.19v-3.34h-4.21c-1.55,0-2.12-0.76-2.12-2c0-0.64,0.12-1.13,0.39-1.59l-3.15-0.21
		c-0.19,0.23-0.35,0.72-0.35,1.28C20.74,225.28,21.59,226.25,22.62,226.58z"/>
	<path d="M25.9,218.52h-4.91v3.34h5.79c1.92,0,3.65-0.76,3.65-3.28c0-1.38-0.6-2.39-1.63-2.89h1.38v-3.34h-9.19v3.34h4.51
		c1.4,0,2.31,0.41,2.31,1.46C27.82,218.17,27.14,218.52,25.9,218.52z"/>
	<path d="M23.86,211.02c1.88,0,2.6-1.18,2.95-3.4l0.21-1.36c0.1-0.64,0.35-0.85,0.7-0.85c0.37,0,0.64,0.39,0.64,1.13
		c0,1.01-0.43,1.63-1.2,1.75l0.04,2.91c2.23-0.19,3.24-2.08,3.24-4.62c0-2.62-1.11-4.27-3.05-4.27c-1.79,0-2.72,1.2-3.05,3.26
		l-0.31,1.79c-0.04,0.31-0.21,0.56-0.52,0.56c-0.41,0-0.66-0.37-0.66-1.01c0-1.03,0.41-1.61,1.07-1.73l-0.08-2.74
		c-1.92,0.19-3.09,1.75-3.09,4.41C20.74,209.43,22.04,211.02,23.86,211.02z"/>
	<rect x="26.64" y="195.93" width="3.54" height="3.55"/>
	<path d="M25.59,193.05c2.87,0,4.84-2.02,4.84-5.03c0-2.99-1.98-5.03-4.84-5.03c-2.84,0-4.84,2.04-4.84,5.03
		C20.74,191.03,22.74,193.05,25.59,193.05z M25.59,186.35c1.38,0,2.33,0.52,2.33,1.67c0,1.17-0.95,1.67-2.33,1.67
		c-1.38,0-2.33-0.49-2.33-1.67C23.26,186.87,24.21,186.35,25.59,186.35z"/>
	<path d="M21.1,174.54c-0.19,0.23-0.35,0.72-0.35,1.28c0,1.22,0.85,2.19,1.88,2.52h-1.63v3.34h9.19v-3.34h-4.21
		c-1.55,0-2.12-0.76-2.12-2c0-0.64,0.12-1.13,0.39-1.59L21.1,174.54z"/>
	<path d="M30.39,163.86c-1.55,0-2.64,1.05-2.64,3.13v3.81c0,0.56-0.25,0.78-0.56,0.78c-0.19,0-0.33-0.06-0.43-0.19
		c0.19-0.6,0.27-1.26,0.27-2c0-2.6-1.2-4.47-3.13-4.47c-0.43,0-0.82,0.1-1.17,0.29c-0.1-0.45-0.14-0.95-0.14-1.34h-2.51
		c0,1.01,0.66,2.02,1.42,2.58c-0.47,0.78-0.74,1.83-0.74,2.95c0,2.58,1.2,4.43,3.15,4.43c1.01,0,1.79-0.49,2.33-1.32
		c0.37,0.99,1.05,1.57,1.94,1.57c0.78,0,1.53-0.49,1.79-1.32c0.08,1.03,0.72,1.75,1.53,1.75c1.73,0,2.25-2.27,2.25-4.89
		C33.73,166.65,32.68,163.86,30.39,163.86z M23.9,170.34c-0.8,0-1.32-0.41-1.32-0.97c0-0.56,0.52-0.97,1.32-0.97
		c0.82,0,1.34,0.41,1.34,0.97C25.24,169.92,24.72,170.34,23.9,170.34z M31.16,171.78c-0.35,0-0.56-0.25-0.56-0.62v-3.38
		c0-0.56,0.14-0.85,0.54-0.85c0.56,0,0.87,1.13,0.87,2.68C32,170.85,31.81,171.78,31.16,171.78z"/>
	<path d="M768.67,215.22l2.06,0.43v-1.98l2.02,0.49v1.88l2.06,0.43v-1.83l3.42,0.82v-2.49l-3.42-0.82v-1.77l3.42,0.83v-2.49
		l-3.42-0.82v-2.02l-2.06-0.43v1.98l-2.02-0.49v-1.88l-2.06-0.43v1.81l-3.42-0.8v2.49l3.42,0.8v1.77l-3.42-0.8v2.49l3.42,0.8V215.22
		z M770.74,209.4l2.02,0.5v1.77l-2.02-0.49V209.4z"/>
	<path d="M771.75,219.1c-4,0-6.74,2.87-6.74,6.66c0,3.98,2.51,6.1,5.75,6.35l0.14-3.36c-1.44-0.21-2.78-0.99-2.78-3.01
		c0-1.92,1.42-3.03,3.63-3.03c2.21,0,3.63,1.11,3.63,3.03c0,2.02-1.34,2.8-2.78,3.01l0.12,3.36c3.24-0.25,5.77-2.37,5.77-6.35
		C778.49,221.96,775.75,219.1,771.75,219.1z"/>
	<path d="M765.05,241.19c0,0.95,0.27,1.61,0.6,2.08h1.77c-0.1-0.27-0.14-0.47-0.14-0.74c0-0.35,0.21-0.56,0.68-0.56h3.13
		c2.56,0,3.61-1.79,3.61-4.23c0-2.76-1.4-4.27-3.42-4.56l-0.21,3.09c0.68,0.14,1.15,0.52,1.15,1.26c0,0.8-0.45,1.15-1.22,1.15h-0.14
		l-0.43-2.58c-0.35-2-1.11-3.28-2.89-3.28c-1.57,0-2.49,1.18-2.49,2.97c0,1.46,0.56,2.52,1.63,3.05
		C765.62,239.17,765.05,240.06,765.05,241.19z M767.97,236.06c0.6,0,0.85,0.47,1.01,1.28l0.25,1.36h-0.14c-1.2,0-1.9-0.76-1.9-1.71
		C767.19,236.43,767.5,236.06,767.97,236.06z"/>
	<path d="M765.01,250.61c0,2.7,2.12,4.08,4.84,4.08c2.7,0,4.84-1.38,4.84-4.08c0-1.55-0.74-2.58-1.83-3.03h1.59v-3.34h-12.49v3.34
		h4.87C765.75,248.03,765.01,249.06,765.01,250.61z M769.79,247.58h0.12c1.32,0,2.18,0.72,2.18,1.86c0,1.3-0.93,1.9-2.25,1.9
		c-1.34,0-2.27-0.6-2.27-1.9C767.58,248.3,768.45,247.58,769.79,247.58z"/>
	<rect x="775.31" y="255.99" width="2.93" height="3.38"/>
	<rect x="765.25" y="256.01" width="9.19" height="3.34"/>
	<path d="M776.98,262.69l-1.2-0.31c-0.84-0.23-1.34-0.52-1.48-1.44l-0.1-0.68h-2.06v1.24h-4.33c-2.17,0-2.8,1.46-2.8,3.01
		c0,1.26,0.31,2.06,0.82,2.76h2.17c-0.23-0.56-0.31-1.01-0.31-1.42c0-0.68,0.31-1.05,1.09-1.05h3.36v2.39h2.31v-2.39h2.54V262.69z"
		/>
	<path d="M767.95,277.14h3.13c2.56,0,3.61-1.79,3.61-4.23c0-2.76-1.4-4.27-3.42-4.56l-0.21,3.09c0.68,0.14,1.15,0.52,1.15,1.26
		c0,0.8-0.45,1.15-1.22,1.15h-0.14l-0.43-2.58c-0.35-2-1.11-3.28-2.89-3.28c-1.57,0-2.49,1.18-2.49,2.97c0,1.46,0.56,2.51,1.63,3.05
		c-1.05,0.31-1.63,1.2-1.63,2.33c0,0.95,0.27,1.61,0.6,2.08h1.77c-0.1-0.27-0.14-0.47-0.14-0.74
		C767.27,277.34,767.48,277.14,767.95,277.14z M767.19,272.15c0-0.56,0.31-0.93,0.78-0.93c0.6,0,0.85,0.47,1.01,1.28l0.25,1.36
		h-0.14C767.89,273.86,767.19,273.1,767.19,272.15z"/>
	<rect x="765.25" y="279.4" width="12.99" height="3.34"/>
	<rect x="775.31" y="284.53" width="2.93" height="3.38"/>
	<rect x="765.25" y="284.55" width="9.19" height="3.34"/>
	<path d="M771.58,289.23c-1.88,0-2.6,1.18-2.95,3.4l-0.21,1.36c-0.1,0.64-0.35,0.85-0.7,0.85c-0.37,0-0.64-0.39-0.64-1.13
		c0-1.01,0.43-1.63,1.2-1.75l-0.04-2.91c-2.23,0.19-3.24,2.08-3.24,4.62c0,2.62,1.11,4.27,3.05,4.27c1.79,0,2.72-1.2,3.05-3.26
		l0.31-1.79c0.04-0.31,0.21-0.56,0.52-0.56c0.41,0,0.66,0.37,0.66,1.01c0,1.03-0.41,1.61-1.07,1.73l0.08,2.74
		c1.92-0.19,3.09-1.75,3.09-4.41C774.69,290.82,773.39,289.23,771.58,289.23z"/>
	<path d="M774.69,305.41c0-1.38-0.62-2.37-1.63-2.87h1.38v-3.34h-9.19v3.34h4.51c1.38,0,2.29,0.39,2.29,1.48
		c0,1.01-0.66,1.26-1.92,1.26h-4.89v3.34h4.51c1.38,0,2.29,0.37,2.29,1.48c0,1.01-0.66,1.24-1.92,1.24h-4.89v3.34h5.77
		c1.92,0,3.67-0.74,3.67-3.28c0-1.55-0.78-2.64-1.81-3.13C773.95,307.89,774.69,307.04,774.69,305.41z"/>
	<rect x="765.25" y="318.28" width="12.99" height="3.5"/>
	<path d="M768.28,325.93l-0.04-2.91c-2.23,0.19-3.24,2.08-3.24,4.62c0,2.62,1.11,4.27,3.05,4.27c1.79,0,2.72-1.2,3.05-3.26
		l0.31-1.79c0.04-0.31,0.21-0.56,0.52-0.56c0.41,0,0.66,0.37,0.66,1.01c0,1.03-0.41,1.61-1.07,1.73l0.08,2.74
		c1.92-0.19,3.09-1.75,3.09-4.41c0-2.58-1.3-4.16-3.11-4.16c-1.88,0-2.6,1.18-2.95,3.4l-0.21,1.36c-0.1,0.64-0.35,0.85-0.7,0.85
		c-0.37,0-0.64-0.39-0.64-1.13C767.09,326.67,767.52,326.05,768.28,325.93z"/>
	<path d="M765.25,337.6l2.51,0.97v5.07l-2.51,0.97v3.73l12.99-5.17v-3.92l-12.99-5.17V337.6z M770.39,339.58l3.83,1.48v0.08
		l-3.83,1.48V339.58z"/>
	<polygon points="765.25,358.81 778.24,363.8 778.24,360.32 769.6,357.1 769.6,357.02 778.24,353.81 778.24,350.14 765.25,355.12 	
		"/>
	<rect x="775.31" y="364.69" width="2.93" height="3.38"/>
	<rect x="765.25" y="364.71" width="9.19" height="3.34"/>
	<path d="M772.82,373.2h1.63v-3.34h-9.19v3.34h4.21c1.55,0,2.12,0.76,2.12,2c0,0.64-0.12,1.13-0.39,1.59l3.15,0.21
		c0.19-0.23,0.35-0.72,0.35-1.28C774.69,374.5,773.85,373.53,772.82,373.2z"/>
	<path d="M769.54,381.26h4.91v-3.34h-5.79c-1.92,0-3.65,0.76-3.65,3.28c0,1.38,0.6,2.39,1.63,2.89h-1.38v3.34h9.19v-3.34h-4.51
		c-1.4,0-2.31-0.41-2.31-1.46C767.62,381.61,768.3,381.26,769.54,381.26z"/>
	<path d="M771.58,388.76c-1.88,0-2.6,1.17-2.95,3.4l-0.21,1.36c-0.1,0.64-0.35,0.85-0.7,0.85c-0.37,0-0.64-0.39-0.64-1.13
		c0-1.01,0.43-1.63,1.2-1.75l-0.04-2.91c-2.23,0.19-3.24,2.08-3.24,4.62c0,2.62,1.11,4.27,3.05,4.27c1.79,0,2.72-1.2,3.05-3.26
		l0.31-1.79c0.04-0.31,0.21-0.56,0.52-0.56c0.41,0,0.66,0.37,0.66,1.01c0,1.03-0.41,1.61-1.07,1.73l0.08,2.74
		c1.92-0.19,3.09-1.75,3.09-4.41C774.69,390.35,773.39,388.76,771.58,388.76z"/>
	<path d="M432.75,154.41l-14.09-2.56v-45.48c15.37,4.48,26.26,16.66,27.22,34.59l42.6-1.28c-0.64-40.36-25.3-66.3-69.82-71.11V42.63
		h-24.02v25.3c-43.88,2.88-70.79,26.58-70.79,63.74c0,34.27,22.42,52.21,54.45,57.65l16.33,2.88v46.12
		c-17.62-4.48-31.07-16.66-32.35-38.44l-43.56,1.6c0,43.88,30.75,70.14,75.91,74.63v29.47h24.02v-28.83
		c42.28-2.24,73.99-23.38,73.99-62.78C492.65,181,473.75,161.78,432.75,154.41z M394.64,147.69c-15.05-2.88-25.3-7.37-25.3-20.18
		c0-13.77,8.97-21.14,25.3-22.74V147.69z M418.66,239.93v-43.56c17.3,2.88,28.19,7.69,28.19,20.82
		C446.84,230.32,435.95,238.33,418.66,239.93z"/>
</g>
<g id="exp_white_bg" class="st0">
	<rect x="-1.25" y="-612" class="st1" width="792" height="1225.88"/>
	<g class="st2">
	</g>
	<path class="st2" d="M441.04,603.62c-0.04-0.18-3.55-17.72,8.41-28.71c11.81-10.85,33.21-30.54,26.7-82.84l16.89-27.89
		c3.15-5.2,3.98-11.37,2.33-17.35c-1.61-5.85-5.41-10.84-10.71-14.04c-3.9-2.36-8.18-3.48-12.38-3.49
		c0.74-8.47-3.44-17.18-11.43-22.02c-3.85-2.33-8.08-3.46-12.24-3.49c0.7-8.44-3.47-17.11-11.44-21.94
		c-5.29-3.2-11.47-4.26-17.4-2.98c-2.7,0.58-5.18,1.64-7.4,3.06c-2-3.81-5.03-7.05-8.84-9.36c-11.05-6.69-25.27-3.49-31.7,7.13
		l-22.45,37.09c-9.22,1.08-16.48,8.46-20.53,13.69l-1.04,1.34c-15.63,20.1-33.45,45.59-32.48,64.56
		c0.83,16.11,15.17,36.11,26.69,52.18c4.03,5.62,7.51,10.48,9.32,13.72c6.12,11,4.48,23.33,2.89,35.25
		c-0.42,3.17-0.82,6.17-1.08,9.16c-0.14,1.58,0.29,3.08,1.12,4.3c1.08,1.59,2.84,2.7,4.91,2.88c0.2,0.02,0.39,0.03,0.58,0.02
		c2.25,0,4.27-1.14,5.47-2.9c0.62-0.91,1.03-1.98,1.13-3.15c0.01-0.16,0.03-0.32,0.05-0.48c0.24-2.55,0.59-5.24,0.97-8.08
		c1.7-12.75,3.81-28.61-4.45-43.45c-2.17-3.9-5.86-9.05-10.13-15c-9.39-13.1-23.59-32.9-24.22-45.13
		c-0.84-16.47,22.15-46.02,29.7-55.74l1.05-1.36c5.59-7.22,10.73-9.93,15.25-8.06c5.5,2.28,32.22,15,44.08,20.67
		c-1.53,2.46-4.13,5.56-8.48,8.39c-8.4,5.48-17.47,1.87-17.81,1.74c-3.08-1.32-6.67-0.13-8.35,2.77c0,0-2.78,4.8-5.13,8.84
		c-0.96,1.65-1.16,3.64-0.55,5.45c0.61,1.81,1.97,3.27,3.74,4.01c42.67,17.71,32.36,60.68,31.88,62.57
		c-0.91,3.54,1.22,7.15,4.76,8.07c3.54,0.92,7.16-1.21,8.08-4.75c0.15-0.57,3.59-14.15,0.5-30.48c-0.78-4.15-2.04-8.69-4-13.34
		c-0.07-0.17-0.14-0.34-0.22-0.5c0.08,0.05,0.16,0.09,0.24,0.14c3.61,2,7.59,3.05,11.61,3.05c1.66,0,3.32-0.18,4.97-0.53
		c0.17-0.04,0.33-0.09,0.5-0.14c1.46,5.81,5.19,11.14,10.82,14.55c3.83,2.32,8.11,3.51,12.44,3.51c1.66,0,3.32-0.18,4.97-0.53
		c6.07-1.31,11.14-4.9,14.29-10.11l1.17-1.93c-0.43,31.83-14.48,44.76-23.61,53.15c-17.65,16.21-12.62,40.27-12.4,41.29
		c0.16,0.75,0.45,1.44,0.83,2.06c0.68,1.1,1.67,1.95,2.82,2.5c0.86,0.41,1.81,0.65,2.8,0.65c0.46,0,0.93-0.05,1.4-0.15
		c0.51-0.11,1-0.28,1.45-0.5C440.1,609.69,441.68,606.68,441.04,603.62z M445.82,511.06c-2.6,0.56-5.35,0.08-7.73-1.36
		c-4.79-2.9-6.54-8.81-3.9-13.18l30.12-49.75c1.66-2.75,4.68-4.24,7.88-4.24c1.88,0,3.83,0.51,5.6,1.59
		c2.38,1.44,4.08,3.65,4.79,6.22c0.67,2.43,0.36,4.9-0.89,6.96l-30.12,49.75C450.33,509.11,448.29,510.53,445.82,511.06z
		 M409.36,492.31c-4.41-2.67-6.23-7.87-4.45-12.09c0.23-0.33,0.47-0.66,0.68-1.01l35.83-59.19c1.74-1.95,4.27-3,6.95-3
		c1.88,0,3.83,0.51,5.6,1.59c4.79,2.9,6.54,8.81,3.9,13.18l-35.03,57.86c-1.24,2.05-3.29,3.48-5.75,4.01
		C414.49,494.23,411.74,493.75,409.36,492.31z M391.05,382.32c1.88,0,3.83,0.51,5.6,1.59c2.38,1.44,4.08,3.65,4.79,6.22
		c0.67,2.43,0.36,4.9-0.89,6.96l-15.6,25.76l-3.37,5.56c-7.24-3.42-14.19-6.67-18.53-8.63l20.11-33.22
		C384.83,383.81,387.85,382.32,391.05,382.32z M416.81,395.84c1.24-2.05,3.29-3.48,5.75-4.01c0.71-0.15,1.43-0.23,2.15-0.23
		c1.92,0,3.85,0.54,5.58,1.59c4.79,2.9,6.54,8.81,3.9,13.18l-22.32,36.87c-0.51-0.51-1.12-0.94-1.8-1.27
		c-0.7-0.34-7.76-3.72-16.44-7.85L416.81,395.84z"/>
	<path class="st2" d="M636.08,606.12c-0.2-50.58-3.66-84.32-6.18-108.95c-3.82-37.28-4.3-47.51,8.08-58.88
		c11.81-10.85,33.21-30.54,26.7-82.84l16.89-27.89c3.15-5.2,3.98-11.37,2.33-17.35c-1.61-5.85-5.41-10.84-10.71-14.04
		c-3.89-2.35-8.17-3.48-12.37-3.49c0.23-2.63-0.01-5.32-0.74-7.98c-1.61-5.85-5.42-10.84-10.71-14.04
		c-3.77-2.28-7.98-3.45-12.24-3.49c0.7-8.44-3.47-17.12-11.44-21.94c-8-4.84-17.65-4.5-24.81,0.08c-2-3.81-5.02-7.05-8.83-9.35
		c-5.29-3.2-11.47-4.26-17.4-2.98c-6.07,1.31-11.14,4.9-14.29,10.11l-22.45,37.09c-9.22,1.08-16.48,8.46-20.53,13.69l-1.04,1.34
		c-15.63,20.1-33.45,45.59-32.48,64.56c0.83,16.11,15.16,36.11,26.68,52.17c4.03,5.62,7.51,10.48,9.32,13.72
		c6.16,11.07,4.4,23.73,0.89,48.95c-3.72,26.72-9.33,67.09-7.98,131.69c0.04,1.86,0.84,3.51,2.09,4.69c1.19,1.12,2.78,1.8,4.53,1.8
		c0.05,0,0.09,0,0.14,0c1.71-0.04,3.24-0.72,4.39-1.8c0.76-0.71,1.34-1.59,1.7-2.59c0.27-0.74,0.41-1.54,0.4-2.38
		c-1.33-63.54,4.2-103.29,7.86-129.58c3.67-26.36,5.88-42.28-2.44-57.23c-2.17-3.9-5.86-9.05-10.13-15
		c-9.39-13.1-23.59-32.9-24.22-45.13c-0.84-16.47,22.15-46.02,29.7-55.74l1.05-1.36c5.59-7.22,10.72-9.93,15.25-8.06
		c5.5,2.28,32.22,15,44.08,20.67c-1.53,2.46-4.13,5.56-8.48,8.39c-8.4,5.48-17.47,1.87-17.81,1.74c-3.08-1.32-6.67-0.13-8.35,2.77
		c0,0-2.78,4.8-5.13,8.84c-0.96,1.65-1.16,3.64-0.55,5.45c0.61,1.81,1.97,3.27,3.74,4.01c42.64,17.7,32.37,60.63,31.88,62.57
		c-0.91,3.54,1.21,7.16,4.75,8.07c3.54,0.92,7.17-1.21,8.08-4.75c0.15-0.57,3.59-14.15,0.5-30.48c-0.81-4.3-2.13-9.02-4.22-13.85
		c3.68,2.09,7.75,3.18,11.85,3.18c1.66,0,3.32-0.18,4.97-0.53c0.17-0.04,0.33-0.09,0.49-0.13c0.04,0.17,0.08,0.34,0.13,0.51
		c1.61,5.85,5.41,10.84,10.71,14.04c3.91,2.37,8.22,3.5,12.44,3.5c7.7,0,15.11-3.76,19.26-10.62c0,0,0,0,0,0l1.17-1.93
		c-0.43,31.83-14.48,44.76-23.61,53.15c-17.8,16.35-16.08,33.16-12.3,70c2.49,24.36,5.91,57.72,6.11,107.65
		c0,0.78,0.15,1.52,0.4,2.22c0.36,0.99,0.94,1.88,1.7,2.59c1.19,1.11,2.78,1.8,4.53,1.8c0.01,0,0.02,0,0.03,0
		c1.75-0.01,3.33-0.69,4.51-1.8C635.28,609.76,636.09,608.04,636.08,606.12z M626.62,373.08c-2.38-1.44-4.08-3.65-4.79-6.22
		c-0.67-2.43-0.36-4.9,0.89-6.96l30.12-49.75c1.66-2.75,4.68-4.24,7.88-4.24c1.88,0,3.83,0.51,5.6,1.59
		c2.38,1.44,4.08,3.65,4.79,6.22c0.67,2.43,0.36,4.9-0.89,6.96l-30.12,49.75v0C637.47,374.8,631.42,375.99,626.62,373.08z
		 M593.1,349.47c-0.55-1.98-0.43-3.98,0.3-5.77c0.25-0.36,0.49-0.73,0.72-1.11v0l35.86-59.23c1.23-1.36,2.88-2.31,4.79-2.73
		c0.71-0.15,1.43-0.23,2.15-0.23c1.92,0,3.85,0.54,5.58,1.59c2.38,1.44,4.08,3.65,4.79,6.22c0.67,2.43,0.36,4.9-0.89,6.96
		l-35.03,57.86c-1.24,2.05-3.29,3.48-5.75,4.01c-2.6,0.56-5.35,0.08-7.73-1.36C595.51,354.25,593.81,352.04,593.1,349.47z
		 M577.45,245.93c0.71-0.15,1.43-0.23,2.15-0.23c1.92,0,3.85,0.54,5.58,1.59c2.38,1.44,4.08,3.65,4.79,6.22
		c0.67,2.43,0.36,4.9-0.89,6.96l-18.96,31.33c-7.24-3.42-14.19-6.67-18.53-8.63l20.11-33.22
		C572.94,247.89,574.99,246.46,577.45,245.93z M605.35,259.22c1.66-2.75,4.68-4.24,7.88-4.24c1.88,0,3.83,0.51,5.6,1.59
		c4.79,2.9,6.54,8.81,3.9,13.18l-22.32,36.87c-0.51-0.51-1.12-0.94-1.8-1.27c-0.7-0.34-7.76-3.72-16.44-7.85L605.35,259.22z"/>
	<path class="st2" d="M266.2,606.12c-0.2-50.58-3.66-84.32-6.18-108.95c-3.82-37.28-4.3-47.51,8.08-58.88
		c11.81-10.85,33.21-30.54,26.7-82.84l16.89-27.89c3.15-5.2,3.98-11.37,2.33-17.35c-1.61-5.85-5.41-10.84-10.71-14.04
		c-3.81-2.31-8.08-3.48-12.38-3.49c0.74-8.47-3.44-17.18-11.43-22.02c-3.77-2.28-7.98-3.45-12.24-3.49
		c0.7-8.44-3.47-17.12-11.44-21.94c-8-4.84-17.65-4.5-24.81,0.08c-2-3.81-5.02-7.05-8.83-9.35c-5.29-3.2-11.47-4.26-17.4-2.98
		c-6.07,1.31-11.14,4.9-14.29,10.11l-22.45,37.09c-9.22,1.08-16.48,8.46-20.53,13.69l-1.04,1.34
		c-15.63,20.1-33.45,45.59-32.48,64.56c0.83,16.11,15.16,36.11,26.68,52.17c4.03,5.62,7.51,10.48,9.32,13.72
		c6.16,11.07,4.4,23.73,0.89,48.95c-3.72,26.72-9.33,67.09-7.98,131.69c0.04,1.86,0.84,3.51,2.09,4.69c1.19,1.12,2.78,1.8,4.53,1.8
		c0.05,0,0.09,0,0.14,0c1.71-0.04,3.24-0.72,4.39-1.8c0.76-0.71,1.34-1.59,1.7-2.59c0.27-0.74,0.41-1.54,0.4-2.38
		c-1.33-63.54,4.2-103.29,7.86-129.58c3.67-26.36,5.88-42.28-2.44-57.23c-2.17-3.9-5.86-9.05-10.13-15
		c-9.39-13.1-23.59-32.9-24.22-45.13c-0.84-16.47,22.15-46.02,29.7-55.73l1.05-1.36c5.59-7.22,10.73-9.93,15.25-8.06
		c5.51,2.28,32.22,15,44.09,20.67c-1.53,2.46-4.13,5.56-8.48,8.39c-8.4,5.48-17.47,1.87-17.81,1.74c-3.08-1.32-6.67-0.13-8.35,2.77
		c0,0-2.78,4.8-5.13,8.84c-0.96,1.65-1.16,3.64-0.55,5.45c0.61,1.81,1.97,3.27,3.74,4.01c42.64,17.7,32.37,60.63,31.88,62.57
		c-0.91,3.54,1.21,7.16,4.75,8.07c3.54,0.92,7.17-1.21,8.08-4.75c0.15-0.57,3.59-14.15,0.5-30.48c-0.81-4.3-2.13-9.02-4.22-13.85
		c3.68,2.09,7.75,3.18,11.85,3.18c1.66,0,3.32-0.18,4.97-0.53c0.17-0.04,0.33-0.09,0.49-0.13c0.04,0.17,0.08,0.34,0.13,0.51
		c1.61,5.85,5.41,10.84,10.71,14.04c3.91,2.37,8.22,3.5,12.44,3.5c7.7,0,15.11-3.76,19.26-10.62c0,0,0,0,0,0l1.17-1.93
		c-0.43,31.83-14.48,44.77-23.61,53.15c-17.8,16.35-16.08,33.16-12.3,70c2.49,24.36,5.91,57.72,6.11,107.65
		c0,0.78,0.15,1.52,0.4,2.22c0.36,0.99,0.94,1.88,1.7,2.59c1.19,1.11,2.78,1.8,4.53,1.8c0.01,0,0.02,0,0.03,0
		c1.75-0.01,3.33-0.69,4.51-1.8C265.4,609.76,266.21,608.04,266.2,606.12z M256.74,373.08c-2.38-1.44-4.08-3.65-4.79-6.22
		c-0.67-2.43-0.36-4.9,0.89-6.96l30.12-49.75c1.24-2.05,3.29-3.48,5.75-4.01c0.71-0.15,1.43-0.23,2.15-0.23
		c1.92,0,3.85,0.54,5.58,1.59c2.38,1.44,4.08,3.65,4.79,6.22c0.67,2.43,0.36,4.9-0.89,6.96l-30.12,49.75v0
		C267.59,374.8,261.54,375.99,256.74,373.08z M223.22,349.47c-0.56-2.02-0.42-4.06,0.34-5.87c0.23-0.33,0.47-0.65,0.68-1
		l35.86-59.23c1.23-1.36,2.88-2.31,4.79-2.73c0.71-0.15,1.43-0.23,2.15-0.23c1.92,0,3.85,0.54,5.58,1.59
		c4.79,2.9,6.54,8.81,3.9,13.18l-35.03,57.86c-1.24,2.05-3.29,3.48-5.75,4.01c-2.6,0.56-5.35,0.08-7.73-1.36
		C225.63,354.25,223.93,352.04,223.22,349.47z M207.57,245.93c0.71-0.15,1.43-0.23,2.15-0.23c1.92,0,3.85,0.54,5.58,1.59
		c2.38,1.44,4.08,3.65,4.79,6.22c0.67,2.43,0.36,4.9-0.89,6.96l-18.97,31.33c-7.24-3.42-14.18-6.67-18.53-8.63l20.11-33.22
		C203.06,247.89,205.11,246.46,207.57,245.93z M248.95,256.57c4.79,2.9,6.54,8.81,3.9,13.18l-22.32,36.87
		c-0.51-0.51-1.12-0.94-1.8-1.27c-0.7-0.34-7.76-3.72-16.44-7.85l23.18-38.29c1.66-2.75,4.68-4.24,7.88-4.24
		C245.23,254.98,247.18,255.49,248.95,256.57z"/>
	<polygon class="st2" points="20.99,395.93 26.21,397.58 26.21,397.67 20.99,399.01 20.99,401.67 26.21,403.01 26.21,403.09 
		20.99,404.74 20.99,407.97 20.99,408.06 20.99,410.98 26.21,412.63 26.21,412.71 20.99,414.05 20.99,416.71 26.21,418.05 
		26.21,418.13 20.99,419.78 20.99,423.02 20.99,423.1 20.99,426.03 26.21,427.68 26.21,427.76 20.99,429.1 20.99,431.76 
		26.21,433.1 26.21,433.18 20.99,434.83 20.99,438.15 30.19,435.24 30.19,431.96 24.99,430.62 24.99,430.54 30.19,429.2 
		30.19,425.92 21.13,423.06 30.19,420.2 30.19,416.92 24.99,415.58 24.99,415.49 30.19,414.16 30.19,410.88 21.13,408.01 
		30.19,405.15 30.19,401.87 24.99,400.53 24.99,400.45 30.19,399.11 30.19,395.83 20.99,392.93 	"/>
	<rect x="26.64" y="386.95" class="st2" width="3.54" height="3.55"/>
	<path class="st2" d="M24.68,371.06l-0.14,3.36c1.44,0.21,2.78,0.99,2.78,3.01c0,1.92-1.42,3.03-3.63,3.03s-3.63-1.11-3.63-3.03
		c0-2.02,1.34-2.8,2.78-3.01l-0.12-3.36c-3.24,0.25-5.77,2.37-5.77,6.35c0,3.79,2.74,6.66,6.74,6.66s6.74-2.87,6.74-6.66
		C30.43,373.43,27.92,371.31,24.68,371.06z"/>
	<path class="st2" d="M27.49,361.19h-3.13c-2.56,0-3.61,1.79-3.61,4.23c0,2.76,1.4,4.27,3.42,4.56l0.21-3.09
		c-0.68-0.14-1.15-0.52-1.15-1.26c0-0.8,0.45-1.15,1.22-1.15h0.14l0.43,2.58c0.35,2,1.11,3.28,2.89,3.28c1.57,0,2.5-1.17,2.5-2.97
		c0-1.46-0.56-2.52-1.63-3.05c1.05-0.31,1.63-1.2,1.63-2.33c0-0.95-0.27-1.61-0.6-2.08h-1.77c0.1,0.27,0.14,0.47,0.14,0.74
		C28.17,360.98,27.96,361.19,27.49,361.19z M28.25,366.18c0,0.56-0.31,0.93-0.78,0.93c-0.6,0-0.85-0.47-1.01-1.28l-0.25-1.36h0.14
		C27.55,364.46,28.25,365.23,28.25,366.18z"/>
	<path class="st2" d="M30.43,352.55c0-2.7-2.12-4.08-4.84-4.08c-2.7,0-4.84,1.38-4.84,4.08c0,1.55,0.74,2.58,1.83,3.03h-1.59v3.34
		h12.49v-3.34h-4.87C29.69,355.13,30.43,354.1,30.43,352.55z M25.65,355.58h-0.12c-1.32,0-2.19-0.72-2.19-1.86
		c0-1.3,0.93-1.9,2.25-1.9c1.34,0,2.27,0.6,2.27,1.9C27.86,354.86,26.99,355.58,25.65,355.58z"/>
	<rect x="17.2" y="343.79" class="st2" width="2.93" height="3.38"/>
	<rect x="20.99" y="343.81" class="st2" width="9.19" height="3.34"/>
	<path class="st2" d="M29.61,335.9h-2.17c0.23,0.56,0.31,1.01,0.31,1.42c0,0.68-0.31,1.05-1.09,1.05H23.3v-2.39h-2.31v2.39h-2.54
		v2.1l1.2,0.31c0.84,0.23,1.34,0.52,1.48,1.44l0.1,0.68h2.06v-1.24h4.33c2.17,0,2.8-1.46,2.8-3.01
		C30.43,337.4,30.12,336.6,29.61,335.9z"/>
	<path class="st2" d="M27.49,326.03h-3.13c-2.56,0-3.61,1.79-3.61,4.23c0,2.76,1.4,4.27,3.42,4.56l0.21-3.09
		c-0.68-0.14-1.15-0.52-1.15-1.26c0-0.8,0.45-1.15,1.22-1.15h0.14l0.43,2.58c0.35,2,1.11,3.28,2.89,3.28c1.57,0,2.5-1.17,2.5-2.97
		c0-1.46-0.56-2.52-1.63-3.05c1.05-0.31,1.63-1.2,1.63-2.33c0-0.95-0.27-1.61-0.6-2.08h-1.77c0.1,0.27,0.14,0.47,0.14,0.74
		C28.17,325.82,27.96,326.03,27.49,326.03z M28.25,331.01c0,0.56-0.31,0.93-0.78,0.93c-0.6,0-0.85-0.47-1.01-1.28l-0.25-1.36h0.14
		C27.55,329.3,28.25,330.07,28.25,331.01z"/>
	<rect x="17.2" y="320.42" class="st2" width="12.99" height="3.34"/>
	<rect x="17.2" y="315.25" class="st2" width="2.93" height="3.38"/>
	<rect x="20.99" y="315.27" class="st2" width="9.19" height="3.34"/>
	<path class="st2" d="M27.38,305.23c-1.79,0-2.72,1.2-3.05,3.26l-0.31,1.79c-0.04,0.31-0.21,0.56-0.52,0.56
		c-0.41,0-0.66-0.37-0.66-1.01c0-1.03,0.41-1.61,1.07-1.73l-0.08-2.74c-1.92,0.19-3.09,1.75-3.09,4.41c0,2.58,1.3,4.16,3.11,4.16
		c1.88,0,2.6-1.17,2.95-3.4l0.21-1.36c0.1-0.64,0.35-0.85,0.7-0.85c0.37,0,0.64,0.39,0.64,1.13c0,1.01-0.43,1.63-1.2,1.75l0.04,2.91
		c2.23-0.19,3.24-2.08,3.24-4.62C30.43,306.88,29.32,305.23,27.38,305.23z"/>
	<path class="st2" d="M20.74,297.75c0,1.38,0.62,2.37,1.63,2.87h-1.38v3.34h9.19v-3.34h-4.51c-1.38,0-2.29-0.39-2.29-1.48
		c0-1.01,0.66-1.26,1.92-1.26h4.88v-3.34h-4.51c-1.38,0-2.29-0.37-2.29-1.48c0-1.01,0.66-1.24,1.92-1.24h4.88v-3.34h-5.77
		c-1.92,0-3.67,0.74-3.67,3.28c0,1.55,0.78,2.64,1.81,3.13C21.49,295.27,20.74,296.12,20.74,297.75z"/>
	<rect x="17.2" y="279.72" class="st2" width="12.99" height="3.5"/>
	<path class="st2" d="M27.16,275.57l0.04,2.91c2.23-0.19,3.24-2.08,3.24-4.62c0-2.62-1.11-4.27-3.05-4.27
		c-1.79,0-2.72,1.2-3.05,3.26l-0.31,1.79c-0.04,0.31-0.21,0.56-0.52,0.56c-0.41,0-0.66-0.37-0.66-1.01c0-1.03,0.41-1.61,1.07-1.73
		l-0.08-2.74c-1.92,0.19-3.09,1.75-3.09,4.41c0,2.58,1.3,4.16,3.11,4.16c1.88,0,2.6-1.18,2.95-3.4l0.21-1.36
		c0.1-0.64,0.35-0.85,0.7-0.85c0.37,0,0.64,0.39,0.64,1.13C28.35,274.83,27.92,275.45,27.16,275.57z"/>
	<path class="st2" d="M30.19,262.24l-2.51-0.97v-5.07l2.51-0.97v-3.73l-12.99,5.17v3.92l12.99,5.17V262.24z M25.05,260.26
		l-3.83-1.48v-0.08l3.83-1.48V260.26z"/>
	<polygon class="st2" points="30.19,240.97 17.2,235.98 17.2,239.46 25.84,242.68 25.84,242.76 17.2,245.98 17.2,249.65 
		30.19,244.66 	"/>
	<rect x="17.2" y="231.71" class="st2" width="2.93" height="3.38"/>
	<rect x="20.99" y="231.74" class="st2" width="9.19" height="3.34"/>
	<path class="st2" d="M22.62,226.58h-1.63v3.34h9.19v-3.34h-4.21c-1.55,0-2.12-0.76-2.12-2c0-0.64,0.12-1.13,0.39-1.59l-3.15-0.21
		c-0.19,0.23-0.35,0.72-0.35,1.28C20.74,225.28,21.59,226.25,22.62,226.58z"/>
	<path class="st2" d="M25.9,218.52h-4.91v3.34h5.79c1.92,0,3.65-0.76,3.65-3.28c0-1.38-0.6-2.39-1.63-2.89h1.38v-3.34h-9.19v3.34
		h4.51c1.4,0,2.31,0.41,2.31,1.46C27.82,218.17,27.14,218.52,25.9,218.52z"/>
	<path class="st2" d="M23.86,211.02c1.88,0,2.6-1.18,2.95-3.4l0.21-1.36c0.1-0.64,0.35-0.85,0.7-0.85c0.37,0,0.64,0.39,0.64,1.13
		c0,1.01-0.43,1.63-1.2,1.75l0.04,2.91c2.23-0.19,3.24-2.08,3.24-4.62c0-2.62-1.11-4.27-3.05-4.27c-1.79,0-2.72,1.2-3.05,3.26
		l-0.31,1.79c-0.04,0.31-0.21,0.56-0.52,0.56c-0.41,0-0.66-0.37-0.66-1.01c0-1.03,0.41-1.61,1.07-1.73l-0.08-2.74
		c-1.92,0.19-3.09,1.75-3.09,4.41C20.74,209.43,22.04,211.02,23.86,211.02z"/>
	<rect x="26.64" y="195.93" class="st2" width="3.54" height="3.55"/>
	<path class="st2" d="M25.59,193.05c2.87,0,4.84-2.02,4.84-5.03c0-2.99-1.98-5.03-4.84-5.03c-2.84,0-4.84,2.04-4.84,5.03
		C20.74,191.03,22.74,193.05,25.59,193.05z M25.59,186.35c1.38,0,2.33,0.52,2.33,1.67c0,1.17-0.95,1.67-2.33,1.67
		c-1.38,0-2.33-0.49-2.33-1.67C23.26,186.87,24.21,186.35,25.59,186.35z"/>
	<path class="st2" d="M21.1,174.54c-0.19,0.23-0.35,0.72-0.35,1.28c0,1.22,0.85,2.19,1.88,2.52h-1.63v3.34h9.19v-3.34h-4.21
		c-1.55,0-2.12-0.76-2.12-2c0-0.64,0.12-1.13,0.39-1.59L21.1,174.54z"/>
	<path class="st2" d="M30.39,163.86c-1.55,0-2.64,1.05-2.64,3.13v3.81c0,0.56-0.25,0.78-0.56,0.78c-0.19,0-0.33-0.06-0.43-0.19
		c0.19-0.6,0.27-1.26,0.27-2c0-2.6-1.2-4.47-3.13-4.47c-0.43,0-0.82,0.1-1.17,0.29c-0.1-0.45-0.14-0.95-0.14-1.34h-2.51
		c0,1.01,0.66,2.02,1.42,2.58c-0.47,0.78-0.74,1.83-0.74,2.95c0,2.58,1.2,4.43,3.15,4.43c1.01,0,1.79-0.49,2.33-1.32
		c0.37,0.99,1.05,1.57,1.94,1.57c0.78,0,1.53-0.49,1.79-1.32c0.08,1.03,0.72,1.75,1.53,1.75c1.73,0,2.25-2.27,2.25-4.89
		C33.73,166.65,32.68,163.86,30.39,163.86z M23.9,170.34c-0.8,0-1.32-0.41-1.32-0.97c0-0.56,0.52-0.97,1.32-0.97
		c0.82,0,1.34,0.41,1.34,0.97C25.24,169.92,24.72,170.34,23.9,170.34z M31.16,171.78c-0.35,0-0.56-0.25-0.56-0.62v-3.38
		c0-0.56,0.14-0.85,0.54-0.85c0.56,0,0.87,1.13,0.87,2.68C32,170.85,31.81,171.78,31.16,171.78z"/>
	<path class="st2" d="M768.67,215.22l2.06,0.43v-1.98l2.02,0.49v1.88l2.06,0.43v-1.83l3.42,0.82v-2.49l-3.42-0.82v-1.77l3.42,0.83
		v-2.49l-3.42-0.82v-2.02l-2.06-0.43v1.98l-2.02-0.49v-1.88l-2.06-0.43v1.81l-3.42-0.8v2.49l3.42,0.8v1.77l-3.42-0.8v2.49l3.42,0.8
		V215.22z M770.74,209.4l2.02,0.5v1.77l-2.02-0.49V209.4z"/>
	<path class="st2" d="M771.75,219.1c-4,0-6.74,2.87-6.74,6.66c0,3.98,2.51,6.1,5.75,6.35l0.14-3.36c-1.44-0.21-2.78-0.99-2.78-3.01
		c0-1.92,1.42-3.03,3.63-3.03c2.21,0,3.63,1.11,3.63,3.03c0,2.02-1.34,2.8-2.78,3.01l0.12,3.36c3.24-0.25,5.77-2.37,5.77-6.35
		C778.49,221.96,775.75,219.1,771.75,219.1z"/>
	<path class="st2" d="M765.05,241.19c0,0.95,0.27,1.61,0.6,2.08h1.77c-0.1-0.27-0.14-0.47-0.14-0.74c0-0.35,0.21-0.56,0.68-0.56
		h3.13c2.56,0,3.61-1.79,3.61-4.23c0-2.76-1.4-4.27-3.42-4.56l-0.21,3.09c0.68,0.14,1.15,0.52,1.15,1.26c0,0.8-0.45,1.15-1.22,1.15
		h-0.14l-0.43-2.58c-0.35-2-1.11-3.28-2.89-3.28c-1.57,0-2.49,1.18-2.49,2.97c0,1.46,0.56,2.52,1.63,3.05
		C765.62,239.17,765.05,240.06,765.05,241.19z M767.97,236.06c0.6,0,0.85,0.47,1.01,1.28l0.25,1.36h-0.14c-1.2,0-1.9-0.76-1.9-1.71
		C767.19,236.43,767.5,236.06,767.97,236.06z"/>
	<path class="st2" d="M765.01,250.61c0,2.7,2.12,4.08,4.84,4.08c2.7,0,4.84-1.38,4.84-4.08c0-1.55-0.74-2.58-1.83-3.03h1.59v-3.34
		h-12.49v3.34h4.87C765.75,248.03,765.01,249.06,765.01,250.61z M769.79,247.58h0.12c1.32,0,2.18,0.72,2.18,1.86
		c0,1.3-0.93,1.9-2.25,1.9c-1.34,0-2.27-0.6-2.27-1.9C767.58,248.3,768.45,247.58,769.79,247.58z"/>
	<rect x="775.31" y="255.99" class="st2" width="2.93" height="3.38"/>
	<rect x="765.25" y="256.01" class="st2" width="9.19" height="3.34"/>
	<path class="st2" d="M776.98,262.69l-1.2-0.31c-0.84-0.23-1.34-0.52-1.48-1.44l-0.1-0.68h-2.06v1.24h-4.33
		c-2.17,0-2.8,1.46-2.8,3.01c0,1.26,0.31,2.06,0.82,2.76h2.17c-0.23-0.56-0.31-1.01-0.31-1.42c0-0.68,0.31-1.05,1.09-1.05h3.36v2.39
		h2.31v-2.39h2.54V262.69z"/>
	<path class="st2" d="M767.95,277.14h3.13c2.56,0,3.61-1.79,3.61-4.23c0-2.76-1.4-4.27-3.42-4.56l-0.21,3.09
		c0.68,0.14,1.15,0.52,1.15,1.26c0,0.8-0.45,1.15-1.22,1.15h-0.14l-0.43-2.58c-0.35-2-1.11-3.28-2.89-3.28
		c-1.57,0-2.49,1.18-2.49,2.97c0,1.46,0.56,2.51,1.63,3.05c-1.05,0.31-1.63,1.2-1.63,2.33c0,0.95,0.27,1.61,0.6,2.08h1.77
		c-0.1-0.27-0.14-0.47-0.14-0.74C767.27,277.34,767.48,277.14,767.95,277.14z M767.19,272.15c0-0.56,0.31-0.93,0.78-0.93
		c0.6,0,0.85,0.47,1.01,1.28l0.25,1.36h-0.14C767.89,273.86,767.19,273.1,767.19,272.15z"/>
	<rect x="765.25" y="279.4" class="st2" width="12.99" height="3.34"/>
	<rect x="775.31" y="284.53" class="st2" width="2.93" height="3.38"/>
	<rect x="765.25" y="284.55" class="st2" width="9.19" height="3.34"/>
	<path class="st2" d="M771.58,289.23c-1.88,0-2.6,1.18-2.95,3.4l-0.21,1.36c-0.1,0.64-0.35,0.85-0.7,0.85
		c-0.37,0-0.64-0.39-0.64-1.13c0-1.01,0.43-1.63,1.2-1.75l-0.04-2.91c-2.23,0.19-3.24,2.08-3.24,4.62c0,2.62,1.11,4.27,3.05,4.27
		c1.79,0,2.72-1.2,3.05-3.26l0.31-1.79c0.04-0.31,0.21-0.56,0.52-0.56c0.41,0,0.66,0.37,0.66,1.01c0,1.03-0.41,1.61-1.07,1.73
		l0.08,2.74c1.92-0.19,3.09-1.75,3.09-4.41C774.69,290.82,773.39,289.23,771.58,289.23z"/>
	<path class="st2" d="M774.69,305.41c0-1.38-0.62-2.37-1.63-2.87h1.38v-3.34h-9.19v3.34h4.51c1.38,0,2.29,0.39,2.29,1.48
		c0,1.01-0.66,1.26-1.92,1.26h-4.89v3.34h4.51c1.38,0,2.29,0.37,2.29,1.48c0,1.01-0.66,1.24-1.92,1.24h-4.89v3.34h5.77
		c1.92,0,3.67-0.74,3.67-3.28c0-1.55-0.78-2.64-1.81-3.13C773.95,307.89,774.69,307.04,774.69,305.41z"/>
	<rect x="765.25" y="318.28" class="st2" width="12.99" height="3.5"/>
	<path class="st2" d="M768.28,325.93l-0.04-2.91c-2.23,0.19-3.24,2.08-3.24,4.62c0,2.62,1.11,4.27,3.05,4.27
		c1.79,0,2.72-1.2,3.05-3.26l0.31-1.79c0.04-0.31,0.21-0.56,0.52-0.56c0.41,0,0.66,0.37,0.66,1.01c0,1.03-0.41,1.61-1.07,1.73
		l0.08,2.74c1.92-0.19,3.09-1.75,3.09-4.41c0-2.58-1.3-4.16-3.11-4.16c-1.88,0-2.6,1.18-2.95,3.4l-0.21,1.36
		c-0.1,0.64-0.35,0.85-0.7,0.85c-0.37,0-0.64-0.39-0.64-1.13C767.09,326.67,767.52,326.05,768.28,325.93z"/>
	<path class="st2" d="M765.25,337.6l2.51,0.97v5.07l-2.51,0.97v3.73l12.99-5.17v-3.92l-12.99-5.17V337.6z M770.39,339.58l3.83,1.48
		v0.08l-3.83,1.48V339.58z"/>
	<polygon class="st2" points="765.25,358.81 778.24,363.8 778.24,360.32 769.6,357.1 769.6,357.02 778.24,353.81 778.24,350.14 
		765.25,355.12 	"/>
	<rect x="775.31" y="364.69" class="st2" width="2.93" height="3.38"/>
	<rect x="765.25" y="364.71" class="st2" width="9.19" height="3.34"/>
	<path class="st2" d="M772.82,373.2h1.63v-3.34h-9.19v3.34h4.21c1.55,0,2.12,0.76,2.12,2c0,0.64-0.12,1.13-0.39,1.59l3.15,0.21
		c0.19-0.23,0.35-0.72,0.35-1.28C774.69,374.5,773.85,373.53,772.82,373.2z"/>
	<path class="st2" d="M769.54,381.26h4.91v-3.34h-5.79c-1.92,0-3.65,0.76-3.65,3.28c0,1.38,0.6,2.39,1.63,2.89h-1.38v3.34h9.19
		v-3.34h-4.51c-1.4,0-2.31-0.41-2.31-1.46C767.62,381.61,768.3,381.26,769.54,381.26z"/>
	<path class="st2" d="M771.58,388.76c-1.88,0-2.6,1.17-2.95,3.4l-0.21,1.36c-0.1,0.64-0.35,0.85-0.7,0.85
		c-0.37,0-0.64-0.39-0.64-1.13c0-1.01,0.43-1.63,1.2-1.75l-0.04-2.91c-2.23,0.19-3.24,2.08-3.24,4.62c0,2.62,1.11,4.27,3.05,4.27
		c1.79,0,2.72-1.2,3.05-3.26l0.31-1.79c0.04-0.31,0.21-0.56,0.52-0.56c0.41,0,0.66,0.37,0.66,1.01c0,1.03-0.41,1.61-1.07,1.73
		l0.08,2.74c1.92-0.19,3.09-1.75,3.09-4.41C774.69,390.35,773.39,388.76,771.58,388.76z"/>
	<path class="st2" d="M432.75,154.41l-14.09-2.56v-45.48c15.37,4.48,26.26,16.66,27.22,34.59l42.6-1.28
		c-0.64-40.36-25.3-66.3-69.82-71.11V42.63h-24.02v25.3c-43.88,2.88-70.79,26.58-70.79,63.74c0,34.27,22.42,52.21,54.45,57.65
		l16.33,2.88v46.12c-17.62-4.48-31.07-16.66-32.35-38.44l-43.56,1.6c0,43.88,30.75,70.14,75.91,74.63v29.47h24.02v-28.83
		c42.28-2.24,73.99-23.38,73.99-62.78C492.65,181,473.75,161.78,432.75,154.41z M394.64,147.69c-15.05-2.88-25.3-7.37-25.3-20.18
		c0-13.77,8.97-21.14,25.3-22.74V147.69z M418.66,239.93v-43.56c17.3,2.88,28.19,7.69,28.19,20.82
		C446.84,230.32,435.95,238.33,418.66,239.93z"/>
</g>
</svg>
