<?xml version="1.0" encoding="utf-8"?>
<!-- Generator: Adobe Illustrator 23.1.1, SVG Export Plug-In . SVG Version: 6.00 Build 0)  -->
<svg version="1.1" xmlns="http://www.w3.org/2000/svg" xmlns:xlink="http://www.w3.org/1999/xlink" x="0px" y="0px"
	 viewBox="0 0 792 612" style="enable-background:new 0 0 792 612;" xml:space="preserve">
<style type="text/css">
	.st0{display:none;}
	.st1{display:inline;fill:#FFFFFF;}
	.st2{display:inline;}
	.st3{fill:#FFFFFF;stroke:#000000;stroke-width:16;stroke-linecap:round;stroke-linejoin:round;stroke-miterlimit:10;}
	.st4{fill:none;stroke:#000000;stroke-width:24;stroke-linejoin:round;stroke-miterlimit:10;}
	.st5{fill:#FFFFFF;}
	.st6{fill:#FFFFFF;stroke:#000000;stroke-width:17;stroke-linecap:round;stroke-miterlimit:10;}
	.st7{fill:#FFFFFF;stroke:#000000;stroke-width:17;stroke-miterlimit:10;}
	.st8{stroke:#000000;stroke-width:16.0572;stroke-linecap:round;stroke-miterlimit:10;}
	.st9{font-family:'FoundersGrotesk-Bold';}
	.st10{font-size:20.6105px;}
	.st11{font-size:10.3052px;}
	.st12{font-size:19.2364px;}
	.st13{fill:#FFFFFF;stroke:#000000;stroke-width:13.497;stroke-linecap:round;stroke-linejoin:round;stroke-miterlimit:10;}
	.st14{stroke:#000000;stroke-width:18.3348;stroke-linecap:round;stroke-miterlimit:10;}
	.st15{fill:none;stroke:#000000;stroke-width:13.497;stroke-linecap:round;stroke-linejoin:round;stroke-miterlimit:10;}
	.st16{stroke:#000000;stroke-width:1.5213;stroke-miterlimit:10;}
	.st17{font-family:'FoundersGrotesk-Semibold';}
	.st18{font-size:137.7381px;}
	.st19{letter-spacing:-4;}
	.st20{font-size:10px;}
	.st21{fill:#FFFFFF;stroke:#000000;stroke-width:14.6942;stroke-linecap:round;stroke-linejoin:round;stroke-miterlimit:10;}
	.st22{fill:none;stroke:#000000;stroke-width:13;stroke-linecap:round;stroke-linejoin:round;stroke-miterlimit:10;}
	.st23{fill:none;stroke:#000000;stroke-width:13;stroke-linejoin:round;stroke-miterlimit:10;}
	.st24{fill:url(#);stroke:#000000;stroke-width:13;stroke-linejoin:round;stroke-miterlimit:10;}
	.st25{fill:none;stroke:#000000;stroke-width:30.5612;stroke-linecap:round;stroke-linejoin:round;stroke-miterlimit:10;}
	.st26{fill:#FFFFFF;stroke:#000000;stroke-width:16.2993;stroke-linecap:round;stroke-linejoin:round;stroke-miterlimit:10;}
	.st27{fill:#FFFFFF;stroke:#000000;stroke-width:13.497;stroke-linecap:round;stroke-miterlimit:10;}
	.st28{fill:url(#);stroke:#000000;stroke-width:13.497;stroke-linecap:round;stroke-linejoin:round;stroke-miterlimit:10;}
	.st29{fill:#FFFFFF;stroke:#000000;stroke-width:11.7326;stroke-linecap:round;stroke-linejoin:round;stroke-miterlimit:10;}
	.st30{fill:#FFFFFF;stroke:#000000;stroke-width:13.2623;stroke-linecap:round;stroke-linejoin:round;stroke-miterlimit:10;}
	.st31{fill:#FFFFFF;stroke:#000000;stroke-width:13.2623;stroke-linecap:round;stroke-miterlimit:10;}
	.st32{stroke:#000000;stroke-width:4.5213;stroke-miterlimit:10;}
	.st33{fill:none;stroke:#000000;stroke-width:16;stroke-linecap:round;stroke-miterlimit:10;}
	.st34{fill:url(#);stroke:#000000;stroke-width:16;stroke-linecap:round;stroke-linejoin:round;stroke-miterlimit:10;}
	.st35{fill:#FFFFFF;stroke:#000000;stroke-width:16;stroke-linecap:round;stroke-miterlimit:10;}
	.st36{fill:none;stroke:#000000;stroke-width:16;stroke-linecap:round;stroke-linejoin:round;stroke-miterlimit:10;}
	.st37{fill:none;stroke:#000000;stroke-width:15.2344;stroke-linecap:round;stroke-linejoin:round;stroke-miterlimit:10;}
	.st38{fill:#FFFFFF;stroke:#000000;stroke-width:15.2344;stroke-linecap:round;stroke-linejoin:round;stroke-miterlimit:10;}
	.st39{fill:#FFFFFF;stroke:#000000;stroke-width:17;stroke-linecap:round;stroke-linejoin:round;stroke-miterlimit:10;}
	.st40{fill:none;stroke:#000000;stroke-width:9.9764;stroke-linecap:round;stroke-linejoin:round;stroke-miterlimit:10;}
	.st41{fill:none;stroke:#000000;stroke-width:9.3127;stroke-linejoin:round;stroke-miterlimit:10;}
	.st42{fill:url(#);}
	.st43{fill:none;stroke:#000000;stroke-width:8.3796;stroke-linecap:round;stroke-linejoin:round;stroke-miterlimit:10;}
	
		.st44{display:inline;fill:none;stroke:#000000;stroke-width:9.9764;stroke-linecap:round;stroke-linejoin:round;stroke-miterlimit:10;}
	.st45{display:inline;fill:none;stroke:#000000;stroke-width:9.3127;stroke-linejoin:round;stroke-miterlimit:10;}
	.st46{display:inline;fill:url(#);stroke:#000000;stroke-width:10;stroke-linejoin:round;stroke-miterlimit:10;}
	.st47{fill:#FFFFFF;stroke:#000000;stroke-width:14.7375;stroke-linecap:round;stroke-linejoin:round;stroke-miterlimit:10;}
	.st48{fill:none;stroke:#000000;stroke-width:14.7375;stroke-linecap:round;stroke-linejoin:round;stroke-miterlimit:10;}
	.st49{stroke:#000000;stroke-width:14.7375;stroke-linecap:round;stroke-linejoin:round;stroke-miterlimit:10;}
	.st50{fill:#FFFFFF;stroke:#000000;stroke-width:14.2911;stroke-linecap:round;stroke-linejoin:round;stroke-miterlimit:10;}
	.st51{fill:none;stroke:#000000;stroke-width:15;stroke-linecap:round;stroke-linejoin:round;stroke-miterlimit:10;}
	.st52{fill:#FFFFFF;stroke:#000000;stroke-width:15;stroke-linecap:round;stroke-linejoin:round;stroke-miterlimit:10;}
	.st53{fill:#FFFFFF;stroke:#000000;stroke-width:14.8467;stroke-linecap:round;stroke-linejoin:round;stroke-miterlimit:10;}
	.st54{stroke:#000000;stroke-width:20.1683;stroke-linecap:round;stroke-miterlimit:10;}
	.st55{fill:none;stroke:#000000;stroke-width:14.8467;stroke-linecap:round;stroke-linejoin:round;stroke-miterlimit:10;}
	.st56{fill:none;stroke:#000000;stroke-width:13.497;stroke-miterlimit:10;}
	.st57{fill:#FFFFFF;stroke:#000000;stroke-width:13.497;stroke-miterlimit:10;}
	.st58{fill:#FFFFFF;stroke:#000000;stroke-width:14.7439;stroke-linecap:round;stroke-miterlimit:10;}
	.st59{fill:#FFFFFF;stroke:#000000;stroke-width:14.7439;stroke-miterlimit:10;}
	.st60{stroke:#000000;stroke-width:13.9262;stroke-linecap:round;stroke-miterlimit:10;}
	.st61{fill:#FFFFFF;stroke:#000000;stroke-width:17.1072;stroke-linecap:round;stroke-linejoin:round;stroke-miterlimit:10;}
	.st62{stroke:#000000;stroke-width:17.1072;stroke-linecap:round;stroke-linejoin:round;stroke-miterlimit:10;}
	.st63{fill:#FFFFFF;stroke:#000000;stroke-width:15;stroke-linecap:square;stroke-linejoin:round;stroke-miterlimit:10;}
	.st64{fill:#FFFFFF;stroke:#000000;stroke-width:15;stroke-linejoin:round;stroke-miterlimit:10;}
	.st65{fill:#FFFFFF;stroke:#000000;stroke-width:14;stroke-linecap:round;stroke-linejoin:round;stroke-miterlimit:10;}
	.st66{fill:#FFFFFF;stroke:#000000;stroke-width:13;stroke-linecap:round;stroke-linejoin:round;stroke-miterlimit:10;}
	.st67{fill:#FFFFFF;stroke:#000000;stroke-width:15.2362;stroke-linecap:round;stroke-linejoin:round;stroke-miterlimit:10;}
	.st68{fill:#FFFFFF;stroke:#FFFFFF;stroke-width:3;stroke-miterlimit:10;}
	.st69{fill:#FFFFFF;stroke:#000000;stroke-width:13.3058;stroke-linecap:round;stroke-linejoin:round;stroke-miterlimit:10;}
	.st70{fill:#FFFFFF;stroke:#000000;stroke-width:15.2517;stroke-linecap:round;stroke-linejoin:round;stroke-miterlimit:10;}
	.st71{stroke:#000000;stroke-width:3;stroke-miterlimit:10;}
</style>
<g id="unexpanded" class="st0">
	<rect x="-2754.75" y="-955.56" class="st1" width="14663.41" height="9108.82"/>
	<g class="st2">
		<rect x="0.14" y="-612" class="st5" width="792" height="1224"/>
		<text transform="matrix(0 -1 1 0 26.8613 544.682)"><tspan x="0" y="0" class="st9 st10">www</tspan><tspan x="45.14" y="0" class="st9 st11"> </tspan><tspan x="46.99" y="0" class="st9 st10">.</tspan><tspan x="51.77" y="0" class="st9 st11"> </tspan><tspan x="53.63" y="0" class="st9 st10">Capitalism</tspan><tspan x="150.43" y="0" class="st9 st12"> </tspan><tspan x="153.9" y="0" class="st9 st10">Is</tspan><tspan x="168.88" y="0" class="st9 st12"> </tspan><tspan x="172.34" y="0" class="st9 st10">A</tspan><tspan x="186.6" y="0" class="st9 st11"> </tspan><tspan x="188.46" y="0" class="st9 st10">Virus</tspan><tspan x="236.15" y="0" class="st9 st11"> </tspan><tspan x="238.01" y="0" class="st9 st10">.</tspan><tspan x="242.79" y="0" class="st9 st11"> </tspan><tspan x="244.64" y="0" class="st9 st10">org</tspan></text>
		<g>
			<path class="st13" d="M455.08,77.37c0,0,64.79,58.94,70.07,70.52c5.38,11.8,2.59,19.38-2.27,29.28
				c-4.75,9.66-33.01,67.64-33.01,67.64c-4.65,9.68-19.25,12.28-29.49,7.37c-10.23-4.92-16.82-17.77-12.17-27.44l26.04-54.2"/>
			<path class="st13" d="M414.42,202.35c1.84,9.49,11.46,15.61,21.49,13.67s16.68-11.21,14.85-20.7l-12.17-62.92
				c-1.84-9.49-11.46-15.61-21.49-13.67s-16.68,11.21-14.85,20.7L414.42,202.35z"/>
			<path class="st13" d="M244.82,43.45c0,0,172.94,1.67,185.82,3.22c12.88,1.55,31.09,14.67,34.62,29.42
				c2.61,10.91,16.23,52.3,20.96,79.46c1.67,9.57,2.6,16.97,0.08,23.79c-3.72,10.09-25.69,70.74-25.69,70.74
				c-3.6,10.11-17.85,14.25-28.54,10.44s-18.6-15.89-15-26.01l23.88-67.05l-14.8-33.1c-2.03-4.91-34.1-7.67-48.17,10.04"/>
			<path class="st5" d="M382.35,140.12c-3.64,3.06-11.17,11.31-13.38,17.29c-4.68,12.7,29.03,46.3,61.31,80.32
				c23.34,24.59,10.46,49.36,1.54,61.19c-3.42,4.54-9.34,4.08-14.46-1.04c-18.35-18.33-62.97-62.71-86.89-84.7
				c-76.17-22.67-102.5-65.04-102.5-65.04L19,169.46V33.72l225.82,9.73l132.71,2.81"/>
			<polyline class="st13" points="26,34.74 244.82,43.45 423.74,46.26 			"/>
			<g>
				<path class="st14" d="M153.6,532.31c19.47,33.91,56.09,56.67,97.98,56.38c41.89-0.29,78.18-23.57,97.18-57.75L153.6,532.31z"/>
				<g>
					<g>
						<g>
							<path d="M249.03,511.18c-5.1,0-7.61-2.51-8.31-8.03c-0.42-3.26-5.84-49.14-5.84-49.14h-3.01c-4.98,0-9.7-3.24-8.87-9.4
								c0.64-4.76,4.3-36.03,4.77-40.45c0.48-4.41,4.04-8.17,9.02-8.17h14.4h14.39c4.98,0,8.55,3.76,9.02,8.17
								c0.48,4.42,4.14,35.69,4.77,40.45c0.83,6.16-3.88,9.4-8.87,9.4h-3c0,0-5.42,45.88-5.84,49.14c-0.72,5.51-3.83,8.03-8.51,8.03
								h-1.93H249.03z"/>
						</g>
					</g>
					<circle cx="251.18" cy="371.61" r="15.51"/>
				</g>
				<polyline class="st15" points="153.6,532.31 251.43,241.09 348.76,530.94 				"/>
			</g>
			<g>
				<path class="st14" d="M503.01,457.1c19.47,33.91,56.09,56.67,97.98,56.38c41.89-0.29,78.18-23.57,97.18-57.75L503.01,457.1z"/>
				<polyline class="st15" points="503.01,457.1 600.84,165.88 698.17,455.73 				"/>
				<g>
					<text transform="matrix(1 0 0 1 558.2871 409.9404)" class="st16 st17 st18 st19">$</text>
				</g>
			</g>
			<line class="st13" x1="215.3" y1="259.39" x2="636.44" y2="165.37"/>
			<path class="st13" d="M382.35,140.12c-3.64,3.06-11.17,11.31-13.38,17.29c-4.68,12.7,29.03,46.3,61.31,80.32
				c23.34,24.59,10.46,49.36,1.54,61.19c-3.42,4.54-9.34,4.08-14.46-1.04c-18.35-18.33-62.97-62.71-86.89-84.7
				c-76.17-22.67-102.5-65.04-102.5-65.04S70.37,169.26,26,169.48"/>
		</g>
		<text transform="matrix(0 1 -1 0 761.9287 43.2971)"><tspan x="0" y="0" class="st9 st10">#</tspan><tspan x="12.7" y="0" class="st9 st20"> </tspan><tspan x="14.5" y="0" class="st9 st10">Capitalism</tspan><tspan x="111.3" y="0" class="st9 st20"> </tspan><tspan x="113.1" y="0" class="st9 st10">Is</tspan><tspan x="128.09" y="0" class="st9 st20"> </tspan><tspan x="129.89" y="0" class="st9 st10">A</tspan><tspan x="144.15" y="0" class="st9 st20"> </tspan><tspan x="145.95" y="0" class="st9 st10">Virus</tspan></text>
	</g>
</g>
<g id="exp_trnsp_bg">
	<g>
	</g>
	<polygon points="17.67,502.46 22.88,504.11 22.88,504.19 17.67,505.53 17.67,508.19 22.88,509.53 22.88,509.61 17.67,511.26 
		17.67,514.5 17.67,514.58 17.67,517.5 22.88,519.15 22.88,519.24 17.67,520.58 17.67,523.24 22.88,524.58 22.88,524.66 
		17.67,526.31 17.67,529.54 17.67,529.63 17.67,532.55 22.88,534.2 22.88,534.28 17.67,535.62 17.67,538.28 22.88,539.62 
		22.88,539.7 17.67,541.35 17.67,544.67 26.86,541.77 26.86,538.49 21.67,537.15 21.67,537.06 26.86,535.73 26.86,532.45 
		17.8,529.58 26.86,526.72 26.86,523.44 21.67,522.1 21.67,522.02 26.86,520.68 26.86,517.4 17.8,514.54 26.86,511.67 26.86,508.4 
		21.67,507.06 21.67,506.97 26.86,505.63 26.86,502.36 17.67,499.45 	"/>
	<rect x="23.32" y="493.48" width="3.55" height="3.55"/>
	<path d="M21.36,477.58l-0.14,3.36c1.44,0.21,2.78,0.99,2.78,3.01c0,1.92-1.42,3.03-3.63,3.03s-3.63-1.11-3.63-3.03
		c0-2.02,1.34-2.8,2.78-3.01l-0.12-3.36c-3.24,0.25-5.77,2.37-5.77,6.35c0,3.79,2.74,6.66,6.74,6.66s6.74-2.87,6.74-6.66
		C27.11,479.95,24.59,477.83,21.36,477.58z"/>
	<path d="M24.16,467.71h-3.13c-2.56,0-3.61,1.79-3.61,4.23c0,2.76,1.4,4.27,3.42,4.56l0.21-3.09c-0.68-0.14-1.15-0.52-1.15-1.26
		c0-0.8,0.45-1.15,1.22-1.15h0.14l0.43,2.58c0.35,2,1.11,3.28,2.89,3.28c1.57,0,2.49-1.17,2.49-2.97c0-1.46-0.56-2.52-1.63-3.05
		c1.05-0.31,1.63-1.2,1.63-2.33c0-0.95-0.27-1.61-0.6-2.08H24.7c0.1,0.27,0.14,0.47,0.14,0.74
		C24.84,467.5,24.63,467.71,24.16,467.71z M24.92,472.7c0,0.56-0.31,0.93-0.78,0.93c-0.6,0-0.85-0.47-1.01-1.28l-0.25-1.36h0.14
		C24.22,470.99,24.92,471.75,24.92,472.7z"/>
	<path d="M27.11,459.08c0-2.7-2.12-4.08-4.84-4.08c-2.7,0-4.84,1.38-4.84,4.08c0,1.55,0.74,2.58,1.83,3.03h-1.59v3.34h12.49v-3.34
		h-4.86C26.37,461.65,27.11,460.62,27.11,459.08z M22.33,462.11H22.2c-1.32,0-2.18-0.72-2.18-1.86c0-1.3,0.93-1.9,2.25-1.9
		c1.34,0,2.27,0.6,2.27,1.9C24.53,461.38,23.67,462.11,22.33,462.11z"/>
	<rect x="17.67" y="450.34" width="9.19" height="3.34"/>
	<rect x="13.87" y="450.32" width="2.93" height="3.38"/>
	<path d="M26.28,442.42h-2.16c0.23,0.56,0.31,1.01,0.31,1.42c0,0.68-0.31,1.05-1.09,1.05h-3.36v-2.39h-2.31v2.39h-2.54v2.1l1.2,0.31
		c0.85,0.23,1.34,0.52,1.48,1.44l0.1,0.68h2.06v-1.24h4.33c2.16,0,2.8-1.46,2.8-3.01C27.11,443.93,26.8,443.12,26.28,442.42z"/>
	<path d="M24.16,432.55h-3.13c-2.56,0-3.61,1.79-3.61,4.23c0,2.76,1.4,4.27,3.42,4.56l0.21-3.09c-0.68-0.14-1.15-0.52-1.15-1.26
		c0-0.8,0.45-1.15,1.22-1.15h0.14l0.43,2.58c0.35,2,1.11,3.28,2.89,3.28c1.57,0,2.49-1.18,2.49-2.97c0-1.46-0.56-2.51-1.63-3.05
		c1.05-0.31,1.63-1.2,1.63-2.33c0-0.95-0.27-1.61-0.6-2.08H24.7c0.1,0.27,0.14,0.47,0.14,0.74
		C24.84,432.34,24.63,432.55,24.16,432.55z M24.92,437.54c0,0.56-0.31,0.93-0.78,0.93c-0.6,0-0.85-0.47-1.01-1.28l-0.25-1.36h0.14
		C24.22,435.83,24.92,436.59,24.92,437.54z"/>
	<rect x="13.87" y="426.95" width="12.99" height="3.34"/>
	<rect x="17.67" y="421.79" width="9.19" height="3.34"/>
	<rect x="13.87" y="421.77" width="2.93" height="3.38"/>
	<path d="M24.06,411.75c-1.79,0-2.72,1.2-3.05,3.26l-0.31,1.79c-0.04,0.31-0.21,0.56-0.52,0.56c-0.41,0-0.66-0.37-0.66-1.01
		c0-1.03,0.41-1.61,1.07-1.73l-0.08-2.74c-1.92,0.19-3.09,1.75-3.09,4.41c0,2.58,1.3,4.16,3.11,4.16c1.88,0,2.6-1.18,2.95-3.4
		l0.21-1.36c0.1-0.64,0.35-0.85,0.7-0.85c0.37,0,0.64,0.39,0.64,1.13c0,1.01-0.43,1.63-1.2,1.75l0.04,2.91
		c2.23-0.19,3.24-2.08,3.24-4.62C27.11,413.4,26,411.75,24.06,411.75z"/>
	<path d="M17.42,404.27c0,1.38,0.62,2.37,1.63,2.87h-1.38v3.34h9.19v-3.34h-4.51c-1.38,0-2.29-0.39-2.29-1.48
		c0-1.01,0.66-1.26,1.92-1.26h4.89v-3.34h-4.51c-1.38,0-2.29-0.37-2.29-1.48c0-1.01,0.66-1.24,1.92-1.24h4.89V395h-5.77
		c-1.92,0-3.67,0.74-3.67,3.28c0,1.55,0.78,2.64,1.81,3.13C18.16,401.8,17.42,402.64,17.42,404.27z"/>
	<rect x="13.87" y="386.24" width="12.99" height="3.5"/>
	<path d="M23.83,382.1l0.04,2.91c2.23-0.19,3.24-2.08,3.24-4.62c0-2.62-1.11-4.27-3.05-4.27c-1.79,0-2.72,1.2-3.05,3.26l-0.31,1.79
		c-0.04,0.31-0.21,0.56-0.52,0.56c-0.41,0-0.66-0.37-0.66-1.01c0-1.03,0.41-1.61,1.07-1.73l-0.08-2.74
		c-1.92,0.19-3.09,1.75-3.09,4.41c0,2.58,1.3,4.16,3.11,4.16c1.88,0,2.6-1.18,2.95-3.4l0.21-1.36c0.1-0.64,0.35-0.85,0.7-0.85
		c0.37,0,0.64,0.39,0.64,1.13C25.03,381.36,24.59,381.97,23.83,382.1z"/>
	<path d="M26.86,368.76l-2.51-0.97v-5.07l2.51-0.97v-3.73l-12.99,5.17v3.92l12.99,5.17V368.76z M21.73,366.78l-3.83-1.48v-0.08
		l3.83-1.48V366.78z"/>
	<polygon points="26.86,347.49 13.87,342.5 13.87,345.99 22.51,349.2 22.51,349.29 13.87,352.5 13.87,356.17 26.86,351.18 	"/>
	<rect x="13.87" y="338.24" width="2.93" height="3.38"/>
	<rect x="17.67" y="338.26" width="9.19" height="3.34"/>
	<path d="M19.3,333.11h-1.63v3.34h9.19v-3.34h-4.21c-1.55,0-2.12-0.76-2.12-2c0-0.64,0.12-1.13,0.39-1.59l-3.15-0.21
		c-0.19,0.23-0.35,0.72-0.35,1.28C17.42,331.81,18.27,332.78,19.3,333.11z"/>
	<path d="M22.57,325.05h-4.91v3.34h5.79c1.92,0,3.65-0.76,3.65-3.28c0-1.38-0.6-2.39-1.63-2.89h1.38v-3.34h-9.19v3.34h4.51
		c1.4,0,2.31,0.41,2.31,1.46C24.49,324.7,23.81,325.05,22.57,325.05z"/>
	<path d="M20.53,317.55c1.88,0,2.6-1.17,2.95-3.4l0.21-1.36c0.1-0.64,0.35-0.85,0.7-0.85c0.37,0,0.64,0.39,0.64,1.13
		c0,1.01-0.43,1.63-1.2,1.75l0.04,2.91c2.23-0.19,3.24-2.08,3.24-4.62c0-2.62-1.11-4.27-3.05-4.27c-1.79,0-2.72,1.2-3.05,3.26
		l-0.31,1.79c-0.04,0.31-0.21,0.56-0.52,0.56c-0.41,0-0.66-0.37-0.66-1.01c0-1.03,0.41-1.61,1.07-1.73l-0.08-2.74
		c-1.92,0.19-3.09,1.75-3.09,4.41C17.42,315.96,18.72,317.55,20.53,317.55z"/>
	<rect x="23.32" y="302.46" width="3.55" height="3.55"/>
	<path d="M22.26,299.58c2.87,0,4.84-2.02,4.84-5.03c0-2.99-1.98-5.03-4.84-5.03c-2.84,0-4.84,2.04-4.84,5.03
		C17.42,297.55,19.42,299.58,22.26,299.58z M22.26,292.88c1.38,0,2.33,0.52,2.33,1.67c0,1.18-0.95,1.67-2.33,1.67
		s-2.33-0.49-2.33-1.67C19.93,293.39,20.88,292.88,22.26,292.88z"/>
	<path d="M17.77,281.07c-0.19,0.23-0.35,0.72-0.35,1.28c0,1.22,0.85,2.18,1.88,2.51h-1.63v3.34h9.19v-3.34h-4.21
		c-1.55,0-2.12-0.76-2.12-2c0-0.64,0.12-1.13,0.39-1.59L17.77,281.07z"/>
	<path d="M27.07,270.39c-1.55,0-2.64,1.05-2.64,3.13v3.81c0,0.56-0.25,0.78-0.56,0.78c-0.19,0-0.33-0.06-0.43-0.19
		c0.19-0.6,0.27-1.26,0.27-2c0-2.6-1.2-4.47-3.13-4.47c-0.43,0-0.83,0.1-1.18,0.29c-0.1-0.45-0.14-0.95-0.14-1.34h-2.52
		c0,1.01,0.66,2.02,1.42,2.58c-0.47,0.78-0.74,1.83-0.74,2.95c0,2.58,1.2,4.43,3.15,4.43c1.01,0,1.79-0.5,2.33-1.32
		c0.37,0.99,1.05,1.57,1.94,1.57c0.78,0,1.53-0.5,1.79-1.32c0.08,1.03,0.72,1.75,1.53,1.75c1.73,0,2.25-2.27,2.25-4.89
		C30.41,273.17,29.36,270.39,27.07,270.39z M20.57,276.86c-0.8,0-1.32-0.41-1.32-0.97s0.52-0.97,1.32-0.97
		c0.82,0,1.34,0.41,1.34,0.97S21.4,276.86,20.57,276.86z M27.83,278.3c-0.35,0-0.56-0.25-0.56-0.62v-3.38
		c0-0.56,0.14-0.85,0.54-0.85c0.56,0,0.87,1.13,0.87,2.68C28.68,277.38,28.49,278.3,27.83,278.3z"/>
	<path d="M251.18,396h-14.4c-4.98,0-8.55,3.76-9.02,8.17c-0.47,4.42-4.12,35.69-4.77,40.45c-0.83,6.16,3.89,9.4,8.87,9.4h3.01
		c0,0,5.42,45.88,5.84,49.14c0.71,5.51,3.21,8.03,8.31,8.03h2.18h1.94c4.67,0,7.79-2.51,8.51-8.03c0.42-3.26,5.84-49.14,5.84-49.14
		h3c4.99,0,9.71-3.24,8.87-9.4c-0.63-4.76-4.29-36.03-4.77-40.45c-0.47-4.41-4.04-8.17-9.02-8.17H251.18z"/>
	<path d="M235.67,371.61c0,8.57,6.94,15.51,15.51,15.51s15.51-6.94,15.51-15.51s-6.94-15.51-15.51-15.51
		S235.67,363.05,235.67,371.61z"/>
	<path d="M611.95,177.75l25.96-5.8c3.64-0.81,5.93-4.42,5.12-8.06c-0.81-3.64-4.42-5.93-8.06-5.12l-27.34,6.1l-0.39-1.16
		c-0.92-2.75-3.5-4.6-6.4-4.6h0c-2.9,0-5.47,1.85-6.4,4.6l-1.49,4.44l-65.3,14.58c0.52-1.06,0.95-1.95,1.27-2.6
		c5.21-10.59,8.98-20.54,2.36-35.05c-4.14-9.08-35.6-39.26-56.01-58.29c-1.61-5.48-2.86-9.79-3.45-12.29
		c-4.18-17.5-24.77-32.67-40.38-34.55c-1.2-0.14-3.7-0.29-7.24-0.43c-0.12-0.01-0.24-0.02-0.36-0.02l-0.4-0.01
		c-36.05-1.41-170.88-2.73-178.46-2.8L26.27,27.99c-3.48-0.14-6.44,2.38-6.94,5.74c-0.04,0.24-0.06,0.49-0.07,0.74
		c-0.15,3.72,2.75,6.86,6.47,7.01l218.82,8.71c0.05,0,0.11,0,0.16,0L423.63,53c0.04,0,0.07,0,0.11,0c0.01,0,0.02,0,0.03,0
		c2.98,0.12,5.07,0.24,6.06,0.36c10.69,1.28,26.1,12.74,28.86,24.29c0.83,3.46,2.63,9.56,4.9,17.28
		c5.07,17.19,12.74,43.17,15.98,61.77c1.43,8.23,2.37,14.94,0.4,20.29c-1.03,2.8-3.5,9.56-6.51,17.84l-38.14,8.51l11.98-33.64
		c0.58-1.64,0.51-3.43-0.2-5.02l-14.77-33.04c-1.66-3.85-6.02-6.23-13.31-7.25c-7.16-1.01-15.56-0.46-23.04,1.5
		c-5.24,1.37-9.96,3.42-14.05,6.04l0.07,1.44c-1.42,0.07-2.82,0.58-3.99,1.56c-3.6,3.02-12.48,12.29-15.37,20.12
		c-5.45,14.77,15.86,38.12,53.99,78.1c2.91,3.05,5.84,6.12,8.76,9.2c18.71,19.72,10.9,39.42,1.05,52.48
		c-0.32,0.42-0.48,0.43-0.56,0.44c-0.52,0.03-1.94-0.38-3.75-2.19c-18.17-18.16-63.04-62.78-87.09-84.89
		c-0.76-0.69-1.66-1.21-2.64-1.5c-72.44-21.56-98.45-61.75-98.69-62.13c-1.4-2.26-4-3.48-6.63-3.13
		c-1.57,0.21-157.68,21.06-201.11,21.29c-3.7,0.02-6.69,3.01-6.71,6.7c0,0.03,0,0.05,0,0.08c0.02,3.71,3.04,6.71,6.75,6.71
		c0.01,0,0.02,0,0.04,0c40.83-0.21,173.28-17.49,198.78-20.87c8.35,11.08,37.75,44.26,102.23,63.83c2.24,2.07,4.66,4.33,7.2,6.73
		l-75.16,16.78l-1.26-3.76c-0.92-2.75-3.5-4.6-6.4-4.6h0c-2.9,0-5.47,1.85-6.4,4.6l-2.5,7.46l-28.7,6.41
		c-3.64,0.81-5.93,4.42-5.12,8.06c0.7,3.14,3.49,5.28,6.58,5.28c0.49,0,0.98-0.05,1.48-0.16l20.74-4.63l-87.95,261.82l-11.72,0.08
		l7.82,13.62c21.64,37.67,61.87,60.98,105.15,60.98c0.28,0,0.56,0,0.85,0c43.6-0.31,83.88-24.24,105.13-62.46l7.63-13.73
		l-11.61,0.08l-89.38-266.18L346,237.13c23.67,22.76,52.82,51.76,66.59,65.52c3.99,3.98,8.65,6.14,13.22,6.14
		c0.34,0,0.67-0.01,1.01-0.04c4.11-0.29,7.8-2.34,10.39-5.77c5.11-6.78,13.21-20.04,13.04-35.81c0.3-0.09,0.61-0.17,0.91-0.27
		c4.38-1.49,8.14-3.87,10.99-6.86c2.97,0.86,6.11,1.31,9.25,1.31c2.45,0,4.9-0.27,7.28-0.8c7.9-1.79,14.19-6.46,17.23-12.78
		c0.2-0.41,14.26-29.25,24.15-49.5l67.86-15.15l-88.97,264.84l-11.72,0.08l7.82,13.62c21.64,37.67,61.86,60.98,105.15,60.98
		c0.28,0,0.56,0,0.85,0c43.6-0.31,83.89-24.24,105.13-62.46l7.63-13.73l-11.61,0.08L611.95,177.75z M338.58,521.85l-174.76,1.23
		l87.61-260.79L338.58,521.85z M388.36,182.08c-14.16-17.56-13.1-22.17-13.05-22.34c1.07-2.9,4.33-7.18,7.4-10.54
		c0.13-0.13,0.25-0.26,0.37-0.4c1.32-1.42,2.59-2.66,3.61-3.51c0.3-0.25,0.56-0.52,0.8-0.8c2.43-1.85,5.19-3.26,8.05-4.32
		c0.03,0.18,0.06,0.37,0.09,0.55l12.17,62.92c0.05,0.24,0.1,0.48,0.16,0.72C400.56,196.39,393.85,188.89,388.36,182.08z
		 M421.38,202.29c-0.13-0.4-0.25-0.8-0.33-1.22c0,0,0,0,0,0l-12.17-62.92c-0.04-0.22-0.07-0.45-0.09-0.67
		c5.25-0.32,9.7,0.21,11.82,1l13.08,29.25L421.38,202.29z M454.25,247.81c-0.87,2.44-3.12,4.53-6.25,5.86
		c-2.22-6.72-6.26-13.67-12.82-20.59c-2.53-2.67-5.07-5.33-7.6-7.98l2.39-6.72l38.02-8.49C461.3,228.35,454.38,247.45,454.25,247.81
		z M483.77,241.89c-1.26,2.62-4.19,4.62-8.05,5.5c-2.29,0.52-4.72,0.59-7.05,0.27c3.01-8.3,9.44-26.05,14.96-41.25l19.59-4.37
		C494.1,220.7,483.95,241.52,483.77,241.89z M516.81,174.19c-1.04,2.12-3.24,6.61-6.02,12.31l-21.7,4.84
		c1.61-4.43,2.87-7.88,3.54-9.68c3.13-8.49,1.96-17.38,0.23-27.28c-2.17-12.48-6.19-27.89-10.15-41.96
		c19.09,18.33,34.36,34.04,36.28,38.26C523.08,159.64,521.47,164.73,516.81,174.19z M513.24,447.86l87.6-260.79L688,446.63
		L513.24,447.86z"/>
	<path d="M593.2,310.01v10.93c-19.08,1.49-30.44,11.96-30.44,28.12c0,13.84,8.54,22.91,24.04,25.54l6.4,1.13v18.2
		c-7.54-2.25-11.93-7.75-12.39-15.57l-0.04-0.74l-20.21,0.74v0.73c0,18.29,12.19,30.51,32.64,32.78v12.75h11.85v-12.44
		c19.65-1.28,31.82-11.85,31.82-27.71c0-14.76-8.38-23.13-26.38-26.37l-5.44-0.99v-17.88c6.13,2.16,9.83,7.16,10.19,13.87l0.04,0.74
		l19.81-0.6l-0.01-0.75c-0.28-17.62-11.21-28.98-30.03-31.25v-11.24H593.2z M593.2,355.02c-5.8-1.21-9.36-3.02-9.36-7.75
		c0-5.18,3.06-8.1,9.36-8.93V355.02z M615.65,385.84c0,4.86-3.85,8.09-10.6,8.93v-16.98C612.66,379.18,615.65,381.48,615.65,385.84z
		"/>
	<path d="M761.93,48.99v2.49l3.42,0.8v2.04l2.06,0.43v-1.98l2.02,0.49v1.88l2.06,0.43v-1.83l3.42,0.82v-2.49l-3.42-0.82v-1.77
		l3.42,0.82v-2.49l-3.42-0.82v-2.02l-2.06-0.43v1.98l-2.02-0.49v-1.88l-2.06-0.43v1.81l-3.42-0.8v2.49l3.42,0.8v1.77L761.93,48.99z
		 M767.41,48.51l2.02,0.49v1.77l-2.02-0.5V48.51z"/>
	<path d="M768.42,58.21c-4,0-6.74,2.87-6.74,6.66c0,3.98,2.51,6.1,5.75,6.35l0.14-3.36c-1.44-0.21-2.78-0.99-2.78-3.01
		c0-1.92,1.42-3.03,3.63-3.03s3.63,1.11,3.63,3.03c0,2.02-1.34,2.8-2.78,3.01l0.12,3.36c3.24-0.25,5.77-2.37,5.77-6.35
		C775.16,61.07,772.42,58.21,768.42,58.21z"/>
	<path d="M761.72,80.3c0,0.95,0.27,1.61,0.6,2.08h1.77c-0.1-0.27-0.14-0.47-0.14-0.74c0-0.35,0.21-0.56,0.68-0.56h3.13
		c2.56,0,3.61-1.79,3.61-4.23c0-2.76-1.4-4.27-3.42-4.56l-0.21,3.09c0.68,0.14,1.15,0.52,1.15,1.26c0,0.8-0.45,1.15-1.22,1.15h-0.14
		l-0.43-2.58c-0.35-2-1.11-3.28-2.89-3.28c-1.57,0-2.49,1.18-2.49,2.97c0,1.46,0.56,2.51,1.63,3.05
		C762.3,78.28,761.72,79.17,761.72,80.3z M764.65,75.17c0.6,0,0.85,0.47,1.01,1.28l0.25,1.36h-0.14c-1.2,0-1.9-0.76-1.9-1.71
		C763.87,75.54,764.18,75.17,764.65,75.17z"/>
	<path d="M758.63,86.69h4.86c-1.07,0.45-1.81,1.48-1.81,3.03c0,2.7,2.12,4.08,4.84,4.08c2.7,0,4.84-1.38,4.84-4.08
		c0-1.55-0.74-2.58-1.83-3.03h1.59v-3.34h-12.49V86.69z M766.46,86.69h0.12c1.32,0,2.18,0.72,2.18,1.86c0,1.3-0.93,1.9-2.25,1.9
		c-1.34,0-2.27-0.6-2.27-1.9C764.26,87.41,765.12,86.69,766.46,86.69z"/>
	<rect x="771.99" y="95.1" width="2.93" height="3.38"/>
	<rect x="761.93" y="95.12" width="9.19" height="3.34"/>
	<path d="M773.66,101.8l-1.2-0.31c-0.85-0.23-1.34-0.52-1.48-1.44l-0.1-0.68h-2.06v1.24h-4.33c-2.16,0-2.8,1.46-2.8,3.01
		c0,1.26,0.31,2.06,0.82,2.76h2.16c-0.23-0.56-0.31-1.01-0.31-1.42c0-0.68,0.31-1.05,1.09-1.05h3.36v2.39h2.31v-2.39h2.54V101.8z"/>
	<path d="M764.63,116.25h3.13c2.56,0,3.61-1.79,3.61-4.23c0-2.76-1.4-4.27-3.42-4.56l-0.21,3.09c0.68,0.14,1.15,0.52,1.15,1.26
		c0,0.8-0.45,1.15-1.22,1.15h-0.14l-0.43-2.58c-0.35-2-1.11-3.28-2.89-3.28c-1.57,0-2.49,1.17-2.49,2.97c0,1.46,0.56,2.51,1.63,3.05
		c-1.05,0.31-1.63,1.2-1.63,2.33c0,0.95,0.27,1.61,0.6,2.08h1.77c-0.1-0.27-0.14-0.47-0.14-0.74
		C763.95,116.45,764.16,116.25,764.63,116.25z M763.87,111.26c0-0.56,0.31-0.93,0.78-0.93c0.6,0,0.85,0.47,1.01,1.28l0.25,1.36
		h-0.14C764.57,112.97,763.87,112.21,763.87,111.26z"/>
	<rect x="761.93" y="118.51" width="12.99" height="3.34"/>
	<rect x="771.99" y="123.64" width="2.93" height="3.38"/>
	<rect x="761.93" y="123.66" width="9.19" height="3.34"/>
	<path d="M768.26,128.34c-1.88,0-2.6,1.17-2.95,3.4l-0.21,1.36c-0.1,0.64-0.35,0.85-0.7,0.85c-0.37,0-0.64-0.39-0.64-1.13
		c0-1.01,0.43-1.63,1.2-1.75l-0.04-2.91c-2.23,0.19-3.24,2.08-3.24,4.62c0,2.62,1.11,4.27,3.05,4.27c1.79,0,2.72-1.2,3.05-3.26
		l0.31-1.79c0.04-0.31,0.21-0.56,0.52-0.56c0.41,0,0.66,0.37,0.66,1.01c0,1.03-0.41,1.61-1.07,1.73l0.08,2.74
		c1.92-0.19,3.09-1.75,3.09-4.41C771.37,129.93,770.07,128.34,768.26,128.34z"/>
	<path d="M771.37,144.52c0-1.38-0.62-2.37-1.63-2.87h1.38v-3.34h-9.19v3.34h4.51c1.38,0,2.29,0.39,2.29,1.48
		c0,1.01-0.66,1.26-1.92,1.26h-4.89v3.34h4.51c1.38,0,2.29,0.37,2.29,1.48c0,1.01-0.66,1.24-1.92,1.24h-4.89v3.34h5.77
		c1.92,0,3.67-0.74,3.67-3.28c0-1.55-0.78-2.64-1.81-3.13C770.63,147,771.37,146.15,771.37,144.52z"/>
	<rect x="761.93" y="157.39" width="12.99" height="3.5"/>
	<path d="M764.96,165.04l-0.04-2.91c-2.23,0.19-3.24,2.08-3.24,4.62c0,2.62,1.11,4.27,3.05,4.27c1.79,0,2.72-1.2,3.05-3.26
		l0.31-1.79c0.04-0.31,0.21-0.56,0.52-0.56c0.41,0,0.66,0.37,0.66,1.01c0,1.03-0.41,1.61-1.07,1.73l0.08,2.74
		c1.92-0.19,3.09-1.75,3.09-4.41c0-2.58-1.3-4.16-3.11-4.16c-1.88,0-2.6,1.17-2.95,3.4l-0.21,1.36c-0.1,0.64-0.35,0.85-0.7,0.85
		c-0.37,0-0.64-0.39-0.64-1.13C763.76,165.78,764.2,165.16,764.96,165.04z"/>
	<path d="M761.93,176.71l2.51,0.97v5.07l-2.51,0.97v3.73l12.99-5.17v-3.92l-12.99-5.17V176.71z M767.06,178.69l3.83,1.48v0.08
		l-3.83,1.48V178.69z"/>
	<polygon points="761.93,197.92 774.92,202.91 774.92,199.43 766.28,196.21 766.28,196.13 774.92,192.91 774.92,189.25 
		761.93,194.23 	"/>
	<rect x="771.99" y="203.8" width="2.93" height="3.38"/>
	<rect x="761.93" y="203.82" width="9.19" height="3.34"/>
	<path d="M769.49,212.31h1.63v-3.34h-9.19v3.34h4.21c1.55,0,2.12,0.76,2.12,2c0,0.64-0.12,1.13-0.39,1.59l3.15,0.21
		c0.19-0.23,0.35-0.72,0.35-1.28C771.37,213.61,770.52,212.64,769.49,212.31z"/>
	<path d="M766.22,220.37h4.91v-3.34h-5.79c-1.92,0-3.65,0.76-3.65,3.28c0,1.38,0.6,2.39,1.63,2.89h-1.38v3.34h9.19v-3.34h-4.51
		c-1.4,0-2.31-0.41-2.31-1.46C764.3,220.72,764.98,220.37,766.22,220.37z"/>
	<path d="M768.26,227.87c-1.88,0-2.6,1.18-2.95,3.4l-0.21,1.36c-0.1,0.64-0.35,0.84-0.7,0.84c-0.37,0-0.64-0.39-0.64-1.13
		c0-1.01,0.43-1.63,1.2-1.75l-0.04-2.91c-2.23,0.19-3.24,2.08-3.24,4.62c0,2.62,1.11,4.27,3.05,4.27c1.79,0,2.72-1.2,3.05-3.26
		l0.31-1.79c0.04-0.31,0.21-0.56,0.52-0.56c0.41,0,0.66,0.37,0.66,1.01c0,1.03-0.41,1.61-1.07,1.73l0.08,2.74
		c1.92-0.19,3.09-1.75,3.09-4.41C771.37,229.46,770.07,227.87,768.26,227.87z"/>
</g>
<g id="exp_white_bg" class="st0">
	<g class="st2">
		<path class="st5" d="M27.81,273.46c-0.39,0-0.54,0.29-0.54,0.85v3.38c0,0.37,0.21,0.62,0.56,0.62c0.66,0,0.85-0.93,0.85-2.17
			C28.68,274.59,28.37,273.46,27.81,273.46z"/>
		<path class="st5" d="M605.05,394.77c6.75-0.84,10.6-4.07,10.6-8.93c0-4.36-2.99-6.65-10.6-8.05V394.77z"/>
		<path class="st5" d="M163.82,523.07l174.76-1.23l-87.16-259.56L163.82,523.07z M274.59,404.17c0.48,4.42,4.14,35.69,4.77,40.45
			c0.83,6.16-3.88,9.4-8.87,9.4h-3c0,0-5.42,45.88-5.84,49.14c-0.72,5.51-3.83,8.03-8.51,8.03h-1.94h-2.18
			c-5.1,0-7.61-2.51-8.31-8.03c-0.42-3.26-5.84-49.14-5.84-49.14h-3.01c-4.98,0-9.7-3.24-8.87-9.4c0.64-4.76,4.3-36.03,4.77-40.45
			c0.48-4.41,4.04-8.17,9.02-8.17h14.4h14.39C270.55,396,274.12,399.76,274.59,404.17z M266.69,371.61
			c0,8.57-6.94,15.51-15.51,15.51s-15.51-6.94-15.51-15.51s6.94-15.51,15.51-15.51S266.69,363.05,266.69,371.61z"/>
		<path class="st5" d="M395.63,140.72c-0.04-0.18-0.06-0.37-0.09-0.55c-2.86,1.06-5.62,2.47-8.05,4.32c-0.24,0.28-0.5,0.56-0.8,0.8
			c-1.02,0.86-2.29,2.09-3.61,3.51c-0.12,0.14-0.24,0.27-0.37,0.4c-3.07,3.36-6.33,7.64-7.4,10.54c-0.05,0.17-1.1,4.78,13.05,22.34
			c5.49,6.81,12.2,14.31,19.6,22.27c-0.05-0.24-0.11-0.48-0.16-0.72L395.63,140.72z"/>
		<path class="st5" d="M513.24,447.86L688,446.63l-87.16-259.56L513.24,447.86z M635.08,352.49l0.01,0.75l-19.81,0.6l-0.04-0.74
			c-0.36-6.71-4.05-11.71-10.19-13.87v17.88l5.44,0.99c18,3.23,26.38,11.61,26.38,26.37c0,15.86-12.17,26.44-31.82,27.71v12.44
			H593.2v-12.75c-20.46-2.27-32.64-14.48-32.64-32.78v-0.73l20.21-0.74l0.04,0.74c0.46,7.82,4.85,13.32,12.39,15.57v-18.2l-6.4-1.13
			c-15.5-2.64-24.04-11.71-24.04-25.54c0-16.16,11.36-26.63,30.44-28.12v-10.93h11.85v11.24
			C623.87,323.51,634.8,334.87,635.08,352.49z"/>
		<path class="st5" d="M765.76,77.81h0.14l-0.25-1.36c-0.17-0.8-0.41-1.28-1.01-1.28c-0.47,0-0.78,0.37-0.78,0.93
			C763.87,77.04,764.57,77.81,765.76,77.81z"/>
		<path class="st5" d="M583.84,347.27c0,4.73,3.56,6.54,9.36,7.75v-16.68C586.91,339.17,583.84,342.09,583.84,347.27z"/>
		<path class="st5" d="M20.57,274.92c-0.8,0-1.32,0.41-1.32,0.97s0.52,0.97,1.32,0.97c0.82,0,1.34-0.41,1.34-0.97
			S21.4,274.92,20.57,274.92z"/>
		<path class="st5" d="M23.03,470.99h-0.14l0.25,1.36c0.17,0.8,0.41,1.28,1.01,1.28c0.47,0,0.78-0.37,0.78-0.93
			C24.92,471.75,24.22,470.99,23.03,470.99z"/>
		<path class="st5" d="M23.03,435.83h-0.14l0.25,1.36c0.17,0.8,0.41,1.28,1.01,1.28c0.47,0,0.78-0.37,0.78-0.93
			C24.92,436.59,24.22,435.83,23.03,435.83z"/>
		<polygon class="st5" points="17.89,365.3 21.73,366.78 21.73,363.73 17.89,365.22 		"/>
		<path class="st5" d="M22.26,458.35c-1.32,0-2.25,0.6-2.25,1.9c0,1.13,0.87,1.86,2.18,1.86h0.12c1.34,0,2.21-0.72,2.21-1.86
			C24.53,458.95,23.6,458.35,22.26,458.35z"/>
		<polygon class="st5" points="770.9,180.17 767.06,178.69 767.06,181.74 770.9,180.25 		"/>
		<path class="st5" d="M792.14-612h-792V612h792V-612z M732.84-512.91l-6.51-0.99c-10.66-1.68-16.29-5.13-16.29-14.12
			c0-8.69,7.6-14.9,19.94-14.9c12.73,0,20.24,5.63,21.12,14.81l-13.13,0.4c-0.59-3.16-3.36-5.13-8.29-5.13
			c-3.06,0-4.84,1.18-4.84,3.16c0,1.48,1.18,2.27,2.67,2.47l8.59,1.48c9.87,1.58,15.6,6.02,15.6,14.61c0,9.28-7.9,14.61-20.43,14.61
			c-12.14,0-21.22-4.84-22.11-15.5l13.92-0.2c0.59,3.65,3.55,5.73,8.39,5.73c3.55,0,5.43-1.28,5.43-3.06
			C736.88-511.24,735.9-512.42,732.84-512.91z M658.02-541.74h15.99v6.61c2.37-4.84,7.6-7.8,14.21-7.8
			c12.04,0,15.89,8.39,15.89,17.57v27.64h-15.99v-23.39c0-6.02-1.68-9.18-6.51-9.18c-5.43,0-7.6,4.34-7.6,10.96v21.62h-15.99
			V-541.74z M596.78-151.59v-25.29h109.1v25.29h-39.56v88.51H635.8v-88.51H596.78z M625.94-531.08c-3.55,0-5.33,2.27-6.02,5.53
			l-14.81-0.99c1.38-9.67,8.59-16.39,21.81-16.39c11.65,0,20.24,5.03,20.24,17.27v15c0,2.27,0.99,3.26,2.67,3.26
			c1.28,0,2.27-0.2,3.55-0.69v8.49c-2.27,1.58-5.43,2.86-9.97,2.86c-5.43,0-9.67-2.76-11.15-7.8c-2.57,5.13-7.6,7.8-14.61,7.8
			c-8.59,0-14.21-4.44-14.21-11.94c0-8.49,6.12-12.14,15.7-13.82l12.34-2.07v-0.69C631.47-528.91,629.79-531.08,625.94-531.08z
			 M576.98-542.92c14.71,0,22.5,10.07,22.5,22.01v4.44h-30.9c0.39,5.43,4.34,8,9.18,8c4.34,0,7.11-1.48,8.59-4.94l12.83,1.18
			c-2.27,10.07-10.36,15.69-22.01,15.69c-14.12,0-24.18-8.49-24.18-22.51C552.99-532.95,563.26-542.92,576.98-542.92z M550.6-454.83
			h37.39v107.76h68.62v30.79h-106V-454.83z M583.59-176.88v113.8h-30.71v-113.8H583.59z M523.04-590.47c0-0.89,0.58-1.57,1.57-1.94
			c-0.82-0.54-1.32-1.32-1.32-2.33c0-1.96,1.86-3.15,4.43-3.15c1.11,0,2.16,0.27,2.95,0.74c0.56-0.76,1.57-1.42,2.58-1.42v2.51
			c-0.39,0-0.89,0.04-1.34,0.14c0.19,0.35,0.29,0.74,0.29,1.17c0,1.94-1.88,3.13-4.47,3.13c-0.74,0-1.4-0.08-2-0.27
			c-0.12,0.1-0.19,0.25-0.19,0.43c0,0.31,0.23,0.56,0.78,0.56h3.81c2.08,0,3.13,1.09,3.13,2.64c0,2.29-2.78,3.34-5.77,3.34
			c-2.62,0-4.89-0.52-4.89-2.25c0-0.8,0.72-1.44,1.75-1.53C523.53-588.94,523.04-589.68,523.04-590.47z M515.45-597.64h3.34v1.63
			c0.33-1.03,1.3-1.88,2.52-1.88c0.56,0,1.05,0.16,1.28,0.35l-0.21,3.15c-0.45-0.27-0.95-0.39-1.59-0.39c-1.24,0-2,0.58-2,2.12v4.21
			h-3.34V-597.64z M509.1-597.89c2.99,0,5.03,2,5.03,4.84c0,2.87-2.04,4.84-5.03,4.84c-3.01,0-5.03-1.98-5.03-4.84
			C504.07-595.89,506.09-597.89,509.1-597.89z M511.83-520.81h0.3l8.79-39.09h25.37v62.19H529.5v-43.73h-0.4l-11.15,43.73h-14.31
			l-11.15-43.73h-0.39v43.73h-15.4v-62.19h25.96L511.83-520.81z M525.97-129.74v24.93h-41.55v41.73h-30.71v-113.8h85.98v25.29
			h-55.27v21.86H525.97z M488.51-18.18l-1.36-0.21c-2.23-0.35-3.4-1.07-3.4-2.95c0-1.81,1.59-3.11,4.16-3.11
			c2.66,0,4.23,1.18,4.41,3.09l-2.74,0.08c-0.12-0.66-0.7-1.07-1.73-1.07c-0.64,0-1.01,0.25-1.01,0.66c0,0.31,0.25,0.47,0.56,0.52
			l1.79,0.31c2.06,0.33,3.26,1.26,3.26,3.05c0,1.94-1.65,3.05-4.27,3.05c-2.54,0-4.43-1.01-4.62-3.24l2.91-0.04
			c0.12,0.76,0.74,1.2,1.75,1.2c0.74,0,1.13-0.27,1.13-0.64C489.36-17.83,489.15-18.08,488.51-18.18z M476.19-14.76
			c-2.51,0-3.28-1.73-3.28-3.65v-5.79h3.34v4.91c0,1.24,0.35,1.92,1.36,1.92c1.05,0,1.46-0.91,1.46-2.31v-4.51h3.34v9.19h-3.34
			v-1.38C478.58-15.36,477.57-14.76,476.19-14.76z M470.71-24.45c0.56,0,1.05,0.17,1.28,0.35l-0.21,3.15
			c-0.45-0.27-0.95-0.39-1.59-0.39c-1.24,0-2,0.58-2,2.12v4.21h-3.34v-9.19h3.34v1.63C468.52-23.6,469.49-24.45,470.71-24.45z
			 M459.68-25.07v-2.93h3.38v2.93H459.68z M463.04-24.2v9.19h-3.34v-9.19H463.04z M422.96-18.18l-1.36-0.21
			c-2.23-0.35-3.4-1.07-3.4-2.95c0-1.81,1.59-3.11,4.16-3.11c2.66,0,4.23,1.18,4.41,3.09l-2.74,0.08c-0.12-0.66-0.7-1.07-1.73-1.07
			c-0.64,0-1.01,0.25-1.01,0.66c0,0.31,0.25,0.47,0.56,0.52l1.79,0.31c2.06,0.33,3.26,1.26,3.26,3.05c0,1.94-1.65,3.05-4.27,3.05
			c-2.54,0-4.43-1.01-4.62-3.24l2.91-0.04c0.12,0.76,0.74,1.2,1.75,1.2c0.74,0,1.13-0.27,1.13-0.64
			C423.8-17.83,423.6-18.08,422.96-18.18z M382.36-60.92c-33.06,0-59.07-24.02-59.07-59.07s26.01-59.07,59.07-59.07
			s59.07,24.02,59.07,59.07S415.42-60.92,382.36-60.92z M416.78-27.99v12.99h-3.5v-12.99H416.78z M405.11-21.81
			c-1.11,0-1.48,0.91-1.48,2.29v4.51h-3.34v-4.89c0-1.26-0.25-1.92-1.26-1.92c-1.09,0-1.48,0.91-1.48,2.29v4.51h-3.34v-9.19h3.34
			v1.38c0.5-1.01,1.48-1.63,2.87-1.63c1.63,0,2.47,0.74,2.87,1.81c0.49-1.03,1.59-1.81,3.13-1.81c2.54,0,3.28,1.75,3.28,3.67v5.77
			h-3.34v-4.89C406.34-21.15,406.12-21.81,405.11-21.81z M388.99-18.18l-1.36-0.21c-2.23-0.35-3.4-1.07-3.4-2.95
			c0-1.81,1.59-3.11,4.16-3.11c2.66,0,4.23,1.18,4.41,3.09l-2.74,0.08c-0.12-0.66-0.7-1.07-1.73-1.07c-0.64,0-1.01,0.25-1.01,0.66
			c0,0.31,0.25,0.47,0.56,0.52l1.79,0.31c2.06,0.33,3.26,1.26,3.26,3.05c0,1.94-1.65,3.05-4.27,3.05c-2.54,0-4.43-1.01-4.62-3.24
			l2.91-0.04c0.12,0.76,0.74,1.2,1.75,1.2c0.74,0,1.13-0.27,1.13-0.64C389.83-17.83,389.63-18.08,388.99-18.18z M379.53-25.07v-2.93
			h3.38v2.93H379.53z M382.89-24.2v9.19h-3.34v-9.19H382.89z M377.73-27.99v12.99h-3.34v-12.99H377.73z M367.7-21.97
			c-0.74,0-1.11,0.47-1.26,1.15l-3.09-0.21c0.29-2.02,1.79-3.42,4.56-3.42c2.43,0,4.23,1.05,4.23,3.61v3.13
			c0,0.47,0.21,0.68,0.56,0.68c0.27,0,0.47-0.04,0.74-0.14v1.77c-0.47,0.33-1.13,0.6-2.08,0.6c-1.13,0-2.02-0.58-2.33-1.63
			c-0.54,1.07-1.59,1.63-3.05,1.63c-1.79,0-2.97-0.93-2.97-2.49c0-1.77,1.28-2.54,3.28-2.89l2.58-0.43v-0.14
			C368.85-21.52,368.5-21.97,367.7-21.97z M355.25-21.89v-2.06l0.68-0.1c0.93-0.14,1.22-0.64,1.44-1.48l0.31-1.2h2.1v2.54h2.39v2.31
			h-2.39v3.36c0,0.78,0.37,1.09,1.05,1.09c0.41,0,0.87-0.08,1.42-0.31v2.16c-0.7,0.52-1.5,0.82-2.76,0.82
			c-1.55,0-3.01-0.64-3.01-2.8v-4.33H355.25z M350.98-25.07v-2.93h3.38v2.93H350.98z M354.34-24.2v9.19H351v-9.19H354.34z
			 M345.6-24.45c2.7,0,4.08,2.14,4.08,4.84c0,2.72-1.38,4.84-4.08,4.84c-1.55,0-2.58-0.74-3.03-1.81v4.87h-3.34V-24.2h3.34v1.59
			C343.03-23.71,344.06-24.45,345.6-24.45z M332.54-21.97c-0.74,0-1.11,0.47-1.26,1.15l-3.09-0.21c0.29-2.02,1.79-3.42,4.56-3.42
			c2.43,0,4.23,1.05,4.23,3.61v3.13c0,0.47,0.21,0.68,0.56,0.68c0.27,0,0.47-0.04,0.74-0.14v1.77c-0.47,0.33-1.13,0.6-2.08,0.6
			c-1.13,0-2.02-0.58-2.33-1.63c-0.54,1.07-1.59,1.63-3.05,1.63c-1.79,0-2.97-0.93-2.97-2.49c0-1.77,1.28-2.54,3.28-2.89l2.58-0.43
			v-0.14C333.69-21.52,333.34-21.97,332.54-21.97z M320.73-17.87c2.02,0,2.8-1.34,3.01-2.78l3.36,0.14
			c-0.25,3.24-2.37,5.75-6.35,5.75c-3.79,0-6.66-2.74-6.66-6.74c0-4,2.87-6.74,6.66-6.74c3.98,0,6.1,2.54,6.35,5.77l-3.36,0.12
			c-0.21-1.44-0.99-2.78-3.01-2.78c-1.92,0-3.03,1.42-3.03,3.63C317.7-19.29,318.81-17.87,320.73-17.87z M310.64-20.49l-0.43,2.06
			h-2.04l-0.8,3.42h-2.49l0.8-3.42h-1.77l-0.8,3.42h-2.49l0.8-3.42h-1.81l0.43-2.06h1.88l0.49-2.02h-1.98l0.43-2.06h2.02l0.82-3.42
			h2.49l-0.83,3.42h1.77l0.82-3.42h2.49l-0.82,3.42h1.83l-0.43,2.06h-1.88l-0.49,2.02H310.64z M285.36-63.08
			c-2.35-3.07-3.79-10.12-4.7-21.86c-0.9-13.01-6.5-15.9-16.8-15.9h-20.41v37.75h-30.17v-113.8h57.44
			c29.44,0,44.07,13.91,44.07,36.13c0,16.62-10.3,27.46-24.21,29.26c11.74,2.35,18.61,9.03,19.87,22.22
			c1.62,16.98,2.17,22.04,5.96,26.19H285.36z M145.08-316.28v-138.55h107.1v30.79H181.8v22.65h54.32v30.35H181.8v23.97h72.35v30.79
			H145.08z M203.35-137.87c0,25.29-17.34,39.2-47.15,39.2H136.7v35.58h-30.53v-113.8h50.04
			C186.01-176.88,203.35-162.97,203.35-137.87z M204.66-497.71v-44.02h15.99v44.02H204.66z M333.33-457.47
			c40.25,0,71.92,29.25,71.92,71.92c0,42.67-31.67,71.92-71.92,71.92c-40.25,0-71.92-29.25-71.92-71.92
			C261.41-428.22,293.08-457.47,333.33-457.47z M281.35-497.71v-62.19h15.99v62.19H281.35z M306.03-497.71v-44.02h15.99v44.02
			H306.03z M351.24-512.91l-6.51-0.99c-10.66-1.68-16.29-5.13-16.29-14.12c0-8.69,7.6-14.9,19.94-14.9
			c12.73,0,20.24,5.63,21.12,14.81l-13.13,0.4c-0.59-3.16-3.36-5.13-8.29-5.13c-3.06,0-4.84,1.18-4.84,3.16
			c0,1.48,1.18,2.27,2.67,2.47l8.59,1.48c9.87,1.58,15.6,6.02,15.6,14.61c0,9.28-7.9,14.61-20.43,14.61
			c-12.14,0-21.22-4.84-22.11-15.5l13.92-0.2c0.59,3.65,3.55,5.73,8.39,5.73c3.55,0,5.43-1.28,5.43-3.06
			C355.28-511.24,354.3-512.42,351.24-512.91z M349.97-588.45v-9.19h3.34v9.19H349.97z M412.29-262.96l-16.39,44.02h-19.05
			l-16.39-44.02h16.78l9.58,27.34h0.39l9.58-27.34H412.29z M357.7-250.03c0,19.15-14.21,32.28-32.28,32.28s-32.28-13.13-32.28-32.28
			c0-19.15,14.21-32.28,32.28-32.28S357.7-269.18,357.7-250.03z M434.24-27.99h3.92l5.17,12.99h-3.73l-0.97-2.51h-5.07l-0.97,2.51
			h-3.52L434.24-27.99z M437.26-217.75c-14.12,0-24.18-8.49-24.18-22.51c0-13.92,10.27-23.89,23.99-23.89
			c14.71,0,22.5,10.07,22.5,22.01v4.44h-30.9c0.39,5.43,4.34,8,9.18,8c4.34,0,7.11-1.48,8.59-4.94l12.83,1.18
			C457-223.38,448.91-217.75,437.26-217.75z M481.11-454.83c36.29,0,57.4,16.93,57.4,47.5c0,30.79-21.11,47.72-57.4,47.72h-23.75
			v43.33h-37.17v-138.55H481.11z M462.05-588.45v-9.19h3.34v9.19H462.05z M494.12-264.15c2.67,0,5.03,0.79,6.12,1.68l-0.99,15.1
			c-2.17-1.28-4.54-1.88-7.6-1.88c-5.92,0-9.58,2.76-9.58,10.17v20.14h-15.99v-44.02h15.99v7.8
			C483.65-260.1,488.29-264.15,494.12-264.15z M448.8-27.99l3.22,8.64h0.08l3.22-8.64h3.48l-4.99,12.99h-3.69l-4.99-12.99H448.8z
			 M497.64-591.99h3.55v3.55h-3.55V-591.99z M490.86-591.62l-1.36-0.21c-2.23-0.35-3.4-1.07-3.4-2.95c0-1.81,1.59-3.11,4.16-3.11
			c2.66,0,4.23,1.18,4.41,3.09l-2.74,0.08c-0.12-0.66-0.7-1.07-1.73-1.07c-0.64,0-1.01,0.25-1.01,0.66c0,0.31,0.25,0.47,0.56,0.52
			l1.79,0.31c2.06,0.33,3.26,1.26,3.26,3.05c0,1.94-1.65,3.05-4.27,3.05c-2.54,0-4.43-1.01-4.62-3.24l2.91-0.04
			c0.12,0.76,0.74,1.2,1.75,1.2c0.74,0,1.13-0.27,1.13-0.64C491.71-591.27,491.5-591.52,490.86-591.62z M475.26-597.64h3.34v4.91
			c0,1.24,0.35,1.92,1.36,1.92c1.05,0,1.46-0.91,1.46-2.31v-4.51h3.34v9.19h-3.34v-1.38c-0.49,1.03-1.5,1.63-2.89,1.63
			c-2.52,0-3.28-1.73-3.28-3.65V-597.64z M467.2-597.64h3.34v1.63c0.33-1.03,1.3-1.88,2.52-1.88c0.56,0,1.05,0.16,1.28,0.35
			l-0.21,3.15c-0.45-0.27-0.95-0.39-1.59-0.39c-1.24,0-2,0.58-2,2.12v4.21h-3.34V-597.64z M462.03-601.43h3.38v2.93h-3.38V-601.43z
			 M451.15-601.43l3.22,8.64h0.08l3.22-8.64h3.48l-4.99,12.99h-3.69l-4.99-12.99H451.15z M436.54-601.43h3.92l5.17,12.99h-3.73
			l-0.97-2.52h-5.07l-0.97,2.52h-3.52L436.54-601.43z M423.59-591.62l-1.36-0.21c-2.23-0.35-3.4-1.07-3.4-2.95
			c0-1.81,1.59-3.11,4.16-3.11c2.66,0,4.23,1.18,4.41,3.09l-2.74,0.08c-0.12-0.66-0.7-1.07-1.73-1.07c-0.64,0-1.01,0.25-1.01,0.66
			c0,0.31,0.25,0.47,0.56,0.52l1.79,0.31c2.06,0.33,3.26,1.26,3.26,3.05c0,1.94-1.65,3.05-4.27,3.05c-2.54,0-4.43-1.01-4.62-3.24
			l2.91-0.04c0.12,0.76,0.74,1.2,1.75,1.2c0.74,0,1.13-0.27,1.13-0.64C424.44-591.27,424.23-591.52,423.59-591.62z M413.91-601.43
			h3.5v12.99h-3.5V-601.43z M393.17-597.64h3.34v1.38c0.49-1.01,1.48-1.63,2.87-1.63c1.63,0,2.47,0.74,2.87,1.81
			c0.49-1.03,1.59-1.81,3.13-1.81c2.54,0,3.28,1.75,3.28,3.67v5.77h-3.34v-4.89c0-1.26-0.23-1.92-1.24-1.92
			c-1.11,0-1.48,0.91-1.48,2.29v4.51h-3.34v-4.89c0-1.26-0.25-1.92-1.26-1.92c-1.09,0-1.48,0.91-1.48,2.29v4.51h-3.34V-597.64z
			 M405.92-542.92c7.8,0,11.84,3.55,13.72,8.69c2.37-4.94,7.6-8.69,15-8.69c12.14,0,15.69,8.39,15.69,17.57v27.64h-15.99v-23.39
			c0-6.02-1.08-9.18-5.92-9.18c-5.33,0-7.11,4.34-7.11,10.96v21.62h-15.99v-23.39c0-6.02-1.18-9.18-6.02-9.18
			c-5.23,0-7.11,4.34-7.11,10.96v21.62h-15.99v-44.02h15.99v6.61C394.57-539.96,399.31-542.92,405.92-542.92z M378.52-588.45v-9.19
			h3.34v9.19H378.52z M387.96-591.62l-1.36-0.21c-2.23-0.35-3.4-1.07-3.4-2.95c0-1.81,1.59-3.11,4.16-3.11
			c2.66,0,4.23,1.18,4.41,3.09l-2.74,0.08c-0.12-0.66-0.7-1.07-1.73-1.07c-0.64,0-1.01,0.25-1.01,0.66c0,0.31,0.25,0.47,0.56,0.52
			l1.79,0.31c2.06,0.33,3.26,1.26,3.26,3.05c0,1.94-1.65,3.05-4.27,3.05c-2.54,0-4.43-1.01-4.62-3.24l2.91-0.04
			c0.12,0.76,0.74,1.2,1.75,1.2c0.74,0,1.13-0.27,1.13-0.64C388.8-591.27,388.6-591.52,387.96-591.62z M378.5-601.43h3.38v2.93
			h-3.38V-601.43z M373.37-601.43h3.34v12.99h-3.34V-601.43z M366.67-595.41c-0.74,0-1.11,0.47-1.26,1.15l-3.09-0.21
			c0.29-2.02,1.79-3.42,4.56-3.42c2.43,0,4.23,1.05,4.23,3.61v3.13c0,0.47,0.21,0.68,0.56,0.68c0.27,0,0.47-0.04,0.74-0.14v1.77
			c-0.47,0.33-1.13,0.6-2.08,0.6c-1.13,0-2.02-0.58-2.33-1.63c-0.54,1.07-1.59,1.63-3.05,1.63c-1.79,0-2.97-0.93-2.97-2.49
			c0-1.77,1.28-2.54,3.28-2.89l2.58-0.43v-0.14C367.82-594.96,367.47-595.41,366.67-595.41z M354.22-597.39l0.68-0.1
			c0.93-0.14,1.22-0.64,1.44-1.48l0.31-1.2h2.1v2.54h2.39v2.31h-2.39v3.36c0,0.78,0.37,1.09,1.05,1.09c0.41,0,0.87-0.08,1.42-0.31
			v2.16c-0.7,0.52-1.5,0.82-2.76,0.82c-1.55,0-3.01-0.64-3.01-2.8v-4.33h-1.24V-597.39z M349.95-601.43h3.38v2.93h-3.38V-601.43z
			 M338.2-597.64h3.34v1.59c0.45-1.09,1.48-1.83,3.03-1.83c2.7,0,4.08,2.14,4.08,4.84c0,2.72-1.38,4.84-4.08,4.84
			c-1.55,0-2.58-0.74-3.03-1.81v4.87h-3.34V-597.64z M331.51-595.41c-0.74,0-1.11,0.47-1.26,1.15l-3.09-0.21
			c0.29-2.02,1.79-3.42,4.56-3.42c2.43,0,4.23,1.05,4.23,3.61v3.13c0,0.47,0.21,0.68,0.56,0.68c0.27,0,0.47-0.04,0.74-0.14v1.77
			c-0.47,0.33-1.13,0.6-2.08,0.6c-1.13,0-2.02-0.58-2.33-1.63c-0.54,1.07-1.59,1.63-3.05,1.63c-1.79,0-2.97-0.93-2.97-2.49
			c0-1.77,1.28-2.54,3.28-2.89l2.58-0.43v-0.14C332.66-594.96,332.31-595.41,331.51-595.41z M319.72-601.68
			c3.98,0,6.1,2.54,6.35,5.77l-3.36,0.12c-0.21-1.44-0.99-2.78-3.01-2.78c-1.92,0-3.03,1.42-3.03,3.63s1.11,3.63,3.03,3.63
			c2.02,0,2.8-1.34,3.01-2.78l3.36,0.14c-0.25,3.24-2.37,5.75-6.35,5.75c-3.79,0-6.66-2.74-6.66-6.74S315.92-601.68,319.72-601.68z
			 M306.63-591.99h3.55v3.55h-3.55V-591.99z M305.93-559.9h16.19v14.02h-16.19V-559.9z M262.3-597.64l1.65,5.22h0.08l1.34-5.22h2.66
			l1.34,5.22h0.08l1.65-5.22h2.92h0.09h3.23l1.65,5.22h0.08l1.34-5.22h2.66l1.34,5.22h0.08l1.65-5.22h2.92h0.09h3.23l1.65,5.22h0.08
			l1.34-5.22h2.66l1.34,5.22h0.08l1.65-5.22h3.01l-2.91,9.19h-3.28l-1.34-5.19h-0.08l-1.34,5.19h-3.28l-2.86-9.06l-2.86,9.06h-3.28
			l-1.34-5.19h-0.08l-1.34,5.19h-3.28l-2.86-9.06l-2.86,9.06h-3.28l-1.34-5.19h-0.08l-1.34,5.19h-3.28l-2.91-9.19H262.3z
			 M249.27-531.08c-3.55,0-5.33,2.27-6.02,5.53l-14.81-0.99c1.38-9.67,8.59-16.39,21.81-16.39c11.65,0,20.24,5.03,20.24,17.27v15
			c0,2.27,0.99,3.26,2.67,3.26c1.28,0,2.27-0.2,3.55-0.69v8.49c-2.27,1.58-5.43,2.86-9.97,2.86c-5.43,0-9.67-2.76-11.15-7.8
			c-2.57,5.13-7.6,7.8-14.61,7.8c-8.59,0-14.21-4.44-14.21-11.94c0-8.49,6.12-12.14,15.7-13.82l12.34-2.07v-0.69
			C254.8-528.91,253.12-531.08,249.27-531.08z M204.56-559.9h16.19v14.02h-16.19V-559.9z M176.82-542.92
			c13.23,0,20.63,8.59,21.72,19.15l-13.13,0.89c-1.08-5.43-3.75-8-8.39-8c-4.84,0-8.19,3.26-8.19,11.15s3.36,11.15,8.19,11.15
			c4.64,0,7.3-2.67,8.39-8.09l13.13,0.99c-1.09,10.66-8.49,19.15-21.72,19.15c-13.92,0-24.08-9.18-24.08-23.2
			C152.74-533.64,162.9-542.92,176.82-542.92z M124.41-542.92c14.31,0,24.08,9.57,24.08,23.2c0,13.72-9.77,23.2-24.08,23.2
			c-14.41,0-24.08-9.48-24.08-23.2C100.32-533.35,110-542.92,124.41-542.92z M70.61-520.42l-11.35-1.97
			c-10.17-1.88-17.27-7.6-17.27-18.46c0-12.63,9.87-20.24,25.37-20.24c17.17,0,26.45,8.39,26.75,22.21l-15.4,0.3
			c-0.49-6.42-5.13-9.38-11.55-9.38c-5.53,0-8.69,2.17-8.69,5.63c0,2.86,2.37,3.95,6.22,4.64l11.75,2.07
			c13.03,2.27,18.95,9.08,18.95,19.25c0,13.23-11.45,19.84-25.96,19.84c-16.88,0-28.92-8.19-28.92-23.2l15.4-0.49
			c0.59,7.8,6.61,10.46,13.52,10.46c5.82,0,9.58-2.07,9.58-5.53C79-518.94,75.35-519.53,70.61-520.42z M14.67-454.83h60.92
			c36.29,0,57.4,16.93,57.4,47.5c0,30.79-21.11,47.72-57.4,47.72H51.83v43.33H14.67V-454.83z M13.87,338.24h2.93v3.38h-2.93V338.24z
			 M13.87,352.5l8.64-3.22v-0.08l-8.64-3.22v-3.48l12.99,4.99v3.69l-12.99,4.99V352.5z M22.66,284.86h4.21v3.34h-9.19v-3.34h1.63
			c-1.03-0.33-1.88-1.3-1.88-2.51c0-0.56,0.17-1.05,0.35-1.28l3.15,0.21c-0.27,0.45-0.39,0.95-0.39,1.59
			C20.53,284.1,21.11,284.86,22.66,284.86z M22.26,289.52c2.87,0,4.84,2.04,4.84,5.03c0,3.01-1.98,5.03-4.84,5.03
			c-2.84,0-4.84-2.02-4.84-5.03C17.42,291.56,19.42,289.52,22.26,289.52z M26.86,302.46v3.55h-3.55v-3.55H26.86z M20.51,308.97
			l0.08,2.74c-0.66,0.12-1.07,0.7-1.07,1.73c0,0.64,0.25,1.01,0.66,1.01c0.31,0,0.47-0.25,0.52-0.56l0.31-1.79
			c0.33-2.06,1.26-3.26,3.05-3.26c1.94,0,3.05,1.65,3.05,4.27c0,2.54-1.01,4.43-3.24,4.62l-0.04-2.91c0.76-0.12,1.2-0.74,1.2-1.75
			c0-0.74-0.27-1.13-0.64-1.13c-0.35,0-0.6,0.21-0.7,0.85l-0.21,1.36c-0.35,2.23-1.07,3.4-2.95,3.4c-1.81,0-3.11-1.59-3.11-4.16
			C17.42,310.72,18.59,309.16,20.51,308.97z M24.31,448.19h-4.33v1.24h-2.06l-0.1-0.68c-0.14-0.93-0.64-1.22-1.48-1.44l-1.2-0.31
			v-2.1h2.54v-2.39h2.31v2.39h3.36c0.78,0,1.09-0.37,1.09-1.05c0-0.41-0.08-0.87-0.31-1.42h2.16c0.52,0.7,0.82,1.5,0.82,2.76
			C27.11,446.73,26.47,448.19,24.31,448.19z M26.86,450.34v3.34h-9.19v-3.34H26.86z M24.7,466.41h1.77c0.33,0.47,0.6,1.13,0.6,2.08
			c0,1.13-0.58,2.02-1.63,2.33c1.07,0.54,1.63,1.59,1.63,3.05c0,1.79-0.93,2.97-2.49,2.97c-1.77,0-2.54-1.28-2.89-3.28l-0.43-2.58
			h-0.14c-0.76,0-1.22,0.35-1.22,1.15c0,0.74,0.47,1.11,1.15,1.26l-0.21,3.09c-2.02-0.29-3.42-1.79-3.42-4.56
			c0-2.43,1.05-4.23,3.61-4.23h3.13c0.47,0,0.68-0.21,0.68-0.56C24.84,466.89,24.8,466.68,24.7,466.41z M24.7,431.25h1.77
			c0.33,0.47,0.6,1.13,0.6,2.08c0,1.13-0.58,2.02-1.63,2.33c1.07,0.54,1.63,1.59,1.63,3.05c0,1.79-0.93,2.97-2.49,2.97
			c-1.77,0-2.54-1.28-2.89-3.28l-0.43-2.58h-0.14c-0.76,0-1.22,0.35-1.22,1.15c0,0.74,0.47,1.11,1.15,1.26l-0.21,3.09
			c-2.02-0.29-3.42-1.79-3.42-4.56c0-2.43,1.05-4.23,3.61-4.23h3.13c0.47,0,0.68-0.21,0.68-0.56
			C24.84,431.73,24.8,431.52,24.7,431.25z M26.86,425.13h-9.19v-3.34h9.19V425.13z M23.87,420.64l-0.04-2.91
			c0.76-0.12,1.2-0.74,1.2-1.75c0-0.74-0.27-1.13-0.64-1.13c-0.35,0-0.6,0.21-0.7,0.85l-0.21,1.36c-0.35,2.23-1.07,3.4-2.95,3.4
			c-1.81,0-3.11-1.59-3.11-4.16c0-2.66,1.17-4.23,3.09-4.41l0.08,2.74c-0.66,0.12-1.07,0.7-1.07,1.73c0,0.64,0.25,1.01,0.66,1.01
			c0.31,0,0.47-0.25,0.52-0.56l0.31-1.79c0.33-2.06,1.26-3.26,3.05-3.26c1.94,0,3.05,1.65,3.05,4.27
			C27.11,418.56,26.1,420.45,23.87,420.64z M17.42,398.27c0-2.54,1.75-3.28,3.67-3.28h5.77v3.34h-4.89c-1.26,0-1.92,0.23-1.92,1.24
			c0,1.11,0.91,1.48,2.29,1.48h4.51v3.34h-4.89c-1.26,0-1.92,0.25-1.92,1.26c0,1.09,0.91,1.48,2.29,1.48h4.51v3.34h-9.19v-3.34h1.38
			c-1.01-0.49-1.63-1.48-1.63-2.87c0-1.63,0.74-2.47,1.81-2.87C18.2,400.91,17.42,399.82,17.42,398.27z M24.39,379.21
			c-0.35,0-0.6,0.21-0.7,0.85l-0.21,1.36c-0.35,2.23-1.07,3.4-2.95,3.4c-1.81,0-3.11-1.59-3.11-4.16c0-2.66,1.17-4.23,3.09-4.41
			l0.08,2.74c-0.66,0.12-1.07,0.7-1.07,1.73c0,0.64,0.25,1.01,0.66,1.01c0.31,0,0.47-0.25,0.52-0.56l0.31-1.79
			c0.33-2.06,1.26-3.26,3.05-3.26c1.94,0,3.05,1.65,3.05,4.27c0,2.54-1.01,4.43-3.24,4.62l-0.04-2.91c0.76-0.12,1.2-0.74,1.2-1.75
			C25.03,379.6,24.76,379.21,24.39,379.21z M26.86,341.6h-9.19v-3.34h9.19V341.6z M22.18,322.22h-4.51v-3.34h9.19v3.34h-1.38
			c1.03,0.49,1.63,1.5,1.63,2.89c0,2.51-1.73,3.28-3.65,3.28h-5.79v-3.34h4.91c1.24,0,1.92-0.35,1.92-1.36
			C24.49,322.64,23.58,322.22,22.18,322.22z M17.77,329.31l3.15,0.21c-0.27,0.45-0.39,0.95-0.39,1.59c0,1.24,0.58,2,2.12,2h4.21
			v3.34h-9.19v-3.34h1.63c-1.03-0.33-1.88-1.3-1.88-2.52C17.42,330.04,17.58,329.54,17.77,329.31z M13.87,363.2l12.99-5.17v3.73
			l-2.51,0.97v5.07l2.51,0.97v3.53l-12.99-5.17V363.2z M13.87,386.24h12.99v3.5H13.87V386.24z M13.87,421.77h2.93v3.38h-2.93V421.77
			z M13.87,426.95h12.99v3.34H13.87V426.95z M13.87,450.32h2.93v3.38h-2.93V450.32z M26.86,505.63l-5.19,1.34v0.08l5.19,1.34v3.28
			l-9.06,2.86l9.06,2.86v3.28l-5.19,1.34v0.08l5.19,1.34v3.28l-9.06,2.86l9.06,2.86v3.28l-5.19,1.34v0.08l5.19,1.34v3.28l-9.19,2.91
			v-3.32l5.22-1.65v-0.08l-5.22-1.34v-2.66l5.22-1.34v-0.08l-5.22-1.65v-2.92v-0.09v-3.23l5.22-1.65v-0.08l-5.22-1.34v-2.66
			l5.22-1.34v-0.08l-5.22-1.65v-2.92v-0.09v-3.23l5.22-1.65v-0.08l-5.22-1.34v-2.66l5.22-1.34v-0.08l-5.22-1.65v-3.01l9.19,2.91
			V505.63z M26.86,497.02h-3.55v-3.55h3.55V497.02z M20.37,490.59c-4,0-6.74-2.87-6.74-6.66c0-3.98,2.54-6.1,5.77-6.35l0.12,3.36
			c-1.44,0.21-2.78,0.99-2.78,3.01c0,1.92,1.42,3.03,3.63,3.03s3.63-1.11,3.63-3.03c0-2.02-1.34-2.8-2.78-3.01l0.14-3.36
			c3.24,0.25,5.75,2.37,5.75,6.35C27.11,487.73,24.37,490.59,20.37,490.59z M30.16,465.45H17.67v-3.34h1.59
			c-1.09-0.45-1.83-1.48-1.83-3.03c0-2.7,2.14-4.08,4.84-4.08c2.72,0,4.84,1.38,4.84,4.08c0,1.55-0.74,2.58-1.81,3.03h4.86V465.45z
			 M28.16,281.05c-0.8,0-1.44-0.72-1.53-1.75c-0.27,0.82-1.01,1.32-1.79,1.32c-0.89,0-1.57-0.58-1.94-1.57
			c-0.54,0.82-1.32,1.32-2.33,1.32c-1.96,0-3.15-1.86-3.15-4.43c0-1.11,0.27-2.16,0.74-2.95c-0.76-0.56-1.42-1.57-1.42-2.58h2.52
			c0,0.39,0.04,0.89,0.14,1.34c0.35-0.19,0.74-0.29,1.18-0.29c1.94,0,3.13,1.88,3.13,4.47c0,0.74-0.08,1.4-0.27,2
			c0.1,0.12,0.25,0.19,0.43,0.19c0.31,0,0.56-0.23,0.56-0.78v-3.81c0-2.08,1.09-3.13,2.64-3.13c2.29,0,3.34,2.78,3.34,5.77
			C30.41,278.78,29.89,281.05,28.16,281.05z M706.18,460.18c-21.24,38.22-61.52,62.15-105.13,62.46c-0.28,0-0.56,0-0.85,0
			c-43.28,0-83.51-23.31-105.15-60.98l-7.82-13.62l11.72-0.08l88.97-264.84l-67.86,15.15c-9.88,20.25-23.95,49.09-24.15,49.5
			c-3.04,6.32-9.32,10.99-17.23,12.78c-2.38,0.54-4.83,0.8-7.28,0.8c-3.15,0-6.28-0.45-9.25-1.31c-2.86,2.99-6.61,5.37-10.99,6.86
			c-0.3,0.1-0.61,0.17-0.91,0.27c0.17,15.76-7.93,29.03-13.04,35.81c-2.59,3.44-6.28,5.49-10.39,5.77
			c-0.34,0.02-0.67,0.04-1.01,0.04c-4.58,0-9.23-2.15-13.22-6.14c-13.77-13.76-42.92-42.77-66.59-65.52l-82.59,18.44l89.38,266.18
			l11.61-0.08l-7.63,13.73c-21.24,38.22-61.52,62.15-105.13,62.46c-0.28,0-0.56,0-0.85,0c-43.28,0-83.51-23.31-105.15-60.98
			l-7.82-13.62l11.72-0.08l87.95-261.82l-20.74,4.63c-0.5,0.11-0.99,0.16-1.48,0.16c-3.09,0-5.88-2.14-6.58-5.28
			c-0.81-3.64,1.48-7.24,5.12-8.06l28.7-6.41l2.5-7.46c0.92-2.75,3.5-4.6,6.4-4.6h0c2.9,0,5.47,1.85,6.4,4.6l1.26,3.76l75.16-16.78
			c-2.54-2.4-4.96-4.66-7.2-6.73c-64.48-19.56-93.87-52.75-102.23-63.83c-25.5,3.38-157.95,20.66-198.78,20.87
			c-0.01,0-0.02,0-0.04,0c-3.71,0-6.73-3-6.75-6.71c0-0.03,0-0.05,0-0.08c0.03-3.69,3.01-6.68,6.71-6.7
			c43.43-0.22,199.54-21.08,201.11-21.29c2.63-0.35,5.23,0.87,6.63,3.13c0.24,0.39,26.25,40.58,98.69,62.13
			c0.98,0.29,1.89,0.81,2.64,1.5c24.06,22.12,68.92,66.74,87.09,84.89c1.81,1.81,3.23,2.22,3.75,2.19c0.08-0.01,0.24-0.02,0.56-0.44
			c9.85-13.06,17.66-32.77-1.05-52.48c-2.92-3.08-5.85-6.15-8.76-9.2c-38.13-39.98-59.44-63.32-53.99-78.1
			c2.89-7.84,11.77-17.1,15.37-20.12c1.17-0.98,2.57-1.49,3.99-1.56l-0.07-1.44c4.09-2.62,8.81-4.67,14.05-6.04
			c7.48-1.96,15.88-2.51,23.04-1.5c7.3,1.03,11.65,3.4,13.31,7.25l14.77,33.04c0.71,1.58,0.78,3.38,0.2,5.02l-11.98,33.64
			l38.14-8.51c3.01-8.28,5.47-15.04,6.51-17.84c1.97-5.35,1.03-12.07-0.4-20.29c-3.24-18.6-10.9-44.58-15.98-61.77
			c-2.28-7.72-4.08-13.82-4.9-17.28c-2.76-11.54-18.17-23-28.86-24.29c-0.99-0.12-3.08-0.24-6.06-0.36c-0.01,0-0.02,0-0.03,0
			c-0.04,0-0.07,0-0.11,0L244.71,50.2c-0.05,0-0.11,0-0.16,0L25.73,41.48c-3.72-0.15-6.62-3.29-6.47-7.01
			c0.01-0.25,0.04-0.5,0.07-0.74c0.5-3.36,3.46-5.87,6.94-5.74l218.72,8.71c7.58,0.07,142.4,1.39,178.46,2.8l0.4,0.01
			c0.12,0,0.24,0.02,0.36,0.02c3.54,0.14,6.04,0.29,7.24,0.43c15.61,1.88,36.19,17.05,40.38,34.55c0.6,2.49,1.84,6.8,3.45,12.29
			c20.42,19.03,51.87,49.21,56.01,58.29c6.62,14.52,2.85,24.46-2.36,35.05c-0.32,0.65-0.75,1.53-1.27,2.6l65.3-14.58l1.49-4.44
			c0.92-2.75,3.5-4.6,6.4-4.6h0c2.9,0,5.47,1.85,6.4,4.6l0.39,1.16l27.34-6.1c3.64-0.81,7.24,1.48,8.06,5.12
			c0.81,3.64-1.48,7.25-5.12,8.06l-25.96,5.8l90.25,268.78l11.61-0.08L706.18,460.18z M761.72,74.92c0-1.79,0.93-2.97,2.49-2.97
			c1.77,0,2.54,1.28,2.89,3.28l0.43,2.58h0.14c0.76,0,1.22-0.35,1.22-1.15c0-0.74-0.47-1.11-1.15-1.26l0.21-3.09
			c2.02,0.29,3.42,1.79,3.42,4.56c0,2.43-1.05,4.23-3.61,4.23h-3.13c-0.47,0-0.68,0.21-0.68,0.56c0,0.27,0.04,0.47,0.14,0.74h-1.77
			c-0.33-0.47-0.6-1.13-0.6-2.08c0-1.13,0.58-2.02,1.63-2.33C762.28,77.44,761.72,76.38,761.72,74.92z M764.09,117.54h-1.77
			c-0.33-0.47-0.6-1.13-0.6-2.08c0-1.13,0.58-2.02,1.63-2.33c-1.07-0.54-1.63-1.59-1.63-3.05c0-1.79,0.93-2.97,2.49-2.97
			c1.77,0,2.54,1.28,2.89,3.28l0.43,2.58h0.14c0.76,0,1.22-0.35,1.22-1.15c0-0.74-0.47-1.11-1.15-1.26l0.21-3.09
			c2.02,0.29,3.42,1.79,3.42,4.56c0,2.43-1.05,4.23-3.61,4.23h-3.13c-0.47,0-0.68,0.21-0.68,0.56
			C763.95,117.07,763.99,117.28,764.09,117.54z M771.37,150.52c0,2.54-1.75,3.28-3.67,3.28h-5.77v-3.34h4.89
			c1.26,0,1.92-0.23,1.92-1.24c0-1.11-0.91-1.48-2.29-1.48h-4.51v-3.34h4.89c1.26,0,1.92-0.25,1.92-1.26c0-1.09-0.91-1.48-2.29-1.48
			h-4.51v-3.34h9.19v3.34h-1.38c1.01,0.49,1.63,1.48,1.63,2.87c0,1.63-0.74,2.47-1.81,2.87
			C770.59,147.88,771.37,148.98,771.37,150.52z M768.28,136.92l-0.08-2.74c0.66-0.12,1.07-0.7,1.07-1.73c0-0.64-0.25-1.01-0.66-1.01
			c-0.31,0-0.47,0.25-0.52,0.56l-0.31,1.79c-0.33,2.06-1.26,3.26-3.05,3.26c-1.94,0-3.05-1.65-3.05-4.27c0-2.54,1.01-4.43,3.24-4.62
			l0.04,2.91c-0.76,0.12-1.2,0.74-1.2,1.75c0,0.74,0.27,1.13,0.64,1.13c0.35,0,0.6-0.21,0.7-0.85l0.21-1.36
			c0.35-2.23,1.07-3.4,2.95-3.4c1.81,0,3.11,1.59,3.11,4.16C771.37,135.17,770.2,136.73,768.28,136.92z M764.4,167.92
			c0.35,0,0.6-0.21,0.7-0.85l0.21-1.36c0.35-2.23,1.07-3.4,2.95-3.4c1.81,0,3.11,1.59,3.11,4.16c0,2.66-1.17,4.23-3.09,4.41
			l-0.08-2.74c0.66-0.12,1.07-0.7,1.07-1.73c0-0.64-0.25-1.01-0.66-1.01c-0.31,0-0.47,0.25-0.52,0.56l-0.31,1.79
			c-0.33,2.06-1.26,3.26-3.05,3.26c-1.94,0-3.05-1.65-3.05-4.27c0-2.54,1.01-4.43,3.24-4.62l0.04,2.91c-0.76,0.12-1.2,0.74-1.2,1.75
			C763.76,167.53,764.03,167.92,764.4,167.92z M761.93,203.82h9.19v3.34h-9.19V203.82z M766.61,223.19h4.51v3.34h-9.19v-3.34h1.38
			c-1.03-0.49-1.63-1.5-1.63-2.89c0-2.52,1.73-3.28,3.65-3.28h5.79v3.34h-4.91c-1.24,0-1.92,0.35-1.92,1.36
			C764.3,222.78,765.21,223.19,766.61,223.19z M771.12,127h-9.19v-3.34h9.19V127z M771.12,103.9v2.39h-2.31v-2.39h-3.36
			c-0.78,0-1.09,0.37-1.09,1.05c0,0.41,0.08,0.87,0.31,1.42h-2.16c-0.52-0.7-0.82-1.5-0.82-2.76c0-1.55,0.64-3.01,2.8-3.01h4.33
			v-1.24h2.06l0.1,0.68c0.14,0.93,0.64,1.22,1.48,1.44l1.2,0.31v2.1H771.12z M761.93,98.46v-3.34h9.19v3.34H761.93z M771.12,83.35
			v3.34h-1.59c1.09,0.45,1.83,1.48,1.83,3.03c0,2.7-2.14,4.08-4.84,4.08c-2.72,0-4.84-1.38-4.84-4.08c0-1.55,0.74-2.58,1.81-3.03
			h-4.86v-3.34H771.12z M768.28,236.44l-0.08-2.74c0.66-0.12,1.07-0.7,1.07-1.73c0-0.64-0.25-1.01-0.66-1.01
			c-0.31,0-0.47,0.25-0.52,0.56l-0.31,1.79c-0.33,2.06-1.26,3.26-3.05,3.26c-1.94,0-3.05-1.65-3.05-4.27c0-2.54,1.01-4.43,3.24-4.62
			l0.04,2.91c-0.76,0.12-1.2,0.74-1.2,1.75c0,0.74,0.27,1.13,0.64,1.13c0.35,0,0.6-0.21,0.7-0.84l0.21-1.36
			c0.35-2.23,1.07-3.4,2.95-3.4c1.81,0,3.11,1.59,3.11,4.16C771.37,234.69,770.2,236.26,768.28,236.44z M771.02,216.1l-3.15-0.21
			c0.27-0.45,0.39-0.95,0.39-1.59c0-1.24-0.58-2-2.12-2h-4.21v-3.34h9.19v3.34h-1.63c1.03,0.33,1.88,1.3,1.88,2.52
			C771.37,215.38,771.21,215.88,771.02,216.1z M774.92,207.18h-2.93v-3.38h2.93V207.18z M774.92,192.91l-8.64,3.22v0.08l8.64,3.22
			v3.48l-12.99-4.99v-3.69l12.99-4.99V192.91z M774.92,182.27l-12.99,5.17v-3.73l2.51-0.97v-5.07l-2.51-0.97v-3.53l12.99,5.17
			V182.27z M774.92,160.89h-12.99v-3.5h12.99V160.89z M774.92,127.02h-2.93v-3.38h2.93V127.02z M774.92,121.85h-12.99v-3.34h12.99
			V121.85z M774.92,98.48h-2.93V95.1h2.93V98.48z M769.39,71.21l-0.12-3.36c1.44-0.21,2.78-0.99,2.78-3.01
			c0-1.92-1.42-3.03-3.63-3.03s-3.63,1.11-3.63,3.03c0,2.02,1.34,2.8,2.78,3.01l-0.14,3.36c-3.24-0.25-5.75-2.37-5.75-6.35
			c0-3.79,2.74-6.66,6.74-6.66s6.74,2.87,6.74,6.66C775.16,68.84,772.63,70.97,769.39,71.21z M761.93,47.21v-2.49l3.42,0.8v-1.81
			l2.06,0.43v1.88l2.02,0.49v-1.98l2.06,0.43v2.02l3.42,0.82v2.49l-3.42-0.82v1.77l3.42,0.82v2.49l-3.42-0.82v1.83l-2.06-0.43v-1.88
			l-2.02-0.49v1.98l-2.06-0.43v-2.04l-3.42-0.8v-2.49l3.42,0.8v-1.77L761.93,47.21z M781.74-316.28H672.66v-138.55h107.1v30.79
			h-70.38v22.65h54.32v30.35h-54.32v23.97h72.35V-316.28z"/>
		<path class="st5" d="M766.53,90.44c1.32,0,2.25-0.6,2.25-1.9c0-1.13-0.87-1.86-2.18-1.86h-0.12c-1.34,0-2.21,0.72-2.21,1.86
			C764.26,89.84,765.19,90.44,766.53,90.44z"/>
		<path class="st5" d="M22.26,296.21c1.38,0,2.33-0.49,2.33-1.67c0-1.15-0.95-1.67-2.33-1.67s-2.33,0.52-2.33,1.67
			C19.93,295.72,20.88,296.21,22.26,296.21z"/>
		<path class="st5" d="M765.76,112.97h0.14l-0.25-1.36c-0.17-0.8-0.41-1.28-1.01-1.28c-0.47,0-0.78,0.37-0.78,0.93
			C763.87,112.21,764.57,112.97,765.76,112.97z"/>
		<polygon class="st5" points="769.43,49.01 767.41,48.51 767.41,50.29 769.43,50.78 		"/>
		<polygon points="17.67,502.46 22.88,504.11 22.88,504.19 17.67,505.53 17.67,508.19 22.88,509.53 22.88,509.61 17.67,511.26 
			17.67,514.5 17.67,514.58 17.67,517.5 22.88,519.15 22.88,519.24 17.67,520.58 17.67,523.24 22.88,524.58 22.88,524.66 
			17.67,526.31 17.67,529.54 17.67,529.63 17.67,532.55 22.88,534.2 22.88,534.28 17.67,535.62 17.67,538.28 22.88,539.62 
			22.88,539.7 17.67,541.35 17.67,544.67 26.86,541.77 26.86,538.49 21.67,537.15 21.67,537.06 26.86,535.73 26.86,532.45 
			17.8,529.58 26.86,526.72 26.86,523.44 21.67,522.1 21.67,522.02 26.86,520.68 26.86,517.4 17.8,514.54 26.86,511.67 26.86,508.4 
			21.67,507.06 21.67,506.97 26.86,505.63 26.86,502.36 17.67,499.45 		"/>
		<rect x="23.32" y="493.48" width="3.55" height="3.55"/>
		<path d="M21.36,477.58l-0.14,3.36c1.44,0.21,2.78,0.99,2.78,3.01c0,1.92-1.42,3.03-3.63,3.03s-3.63-1.11-3.63-3.03
			c0-2.02,1.34-2.8,2.78-3.01l-0.12-3.36c-3.24,0.25-5.77,2.37-5.77,6.35c0,3.79,2.74,6.66,6.74,6.66s6.74-2.87,6.74-6.66
			C27.11,479.95,24.59,477.83,21.36,477.58z"/>
		<path d="M24.16,467.71h-3.13c-2.56,0-3.61,1.79-3.61,4.23c0,2.76,1.4,4.27,3.42,4.56l0.21-3.09c-0.68-0.14-1.15-0.52-1.15-1.26
			c0-0.8,0.45-1.15,1.22-1.15h0.14l0.43,2.58c0.35,2,1.11,3.28,2.89,3.28c1.57,0,2.49-1.17,2.49-2.97c0-1.46-0.56-2.52-1.63-3.05
			c1.05-0.31,1.63-1.2,1.63-2.33c0-0.95-0.27-1.61-0.6-2.08H24.7c0.1,0.27,0.14,0.47,0.14,0.74
			C24.84,467.5,24.63,467.71,24.16,467.71z M24.92,472.7c0,0.56-0.31,0.93-0.78,0.93c-0.6,0-0.85-0.47-1.01-1.28l-0.25-1.36h0.14
			C24.22,470.99,24.92,471.75,24.92,472.7z"/>
		<path d="M27.11,459.08c0-2.7-2.12-4.08-4.84-4.08c-2.7,0-4.84,1.38-4.84,4.08c0,1.55,0.74,2.58,1.83,3.03h-1.59v3.34h12.49v-3.34
			h-4.86C26.37,461.65,27.11,460.62,27.11,459.08z M22.33,462.11H22.2c-1.32,0-2.18-0.72-2.18-1.86c0-1.3,0.93-1.9,2.25-1.9
			c1.34,0,2.27,0.6,2.27,1.9C24.53,461.38,23.67,462.11,22.33,462.11z"/>
		<rect x="17.67" y="450.34" width="9.19" height="3.34"/>
		<rect x="13.87" y="450.32" width="2.93" height="3.38"/>
		<path d="M26.28,442.42h-2.16c0.23,0.56,0.31,1.01,0.31,1.42c0,0.68-0.31,1.05-1.09,1.05h-3.36v-2.39h-2.31v2.39h-2.54v2.1
			l1.2,0.31c0.85,0.23,1.34,0.52,1.48,1.44l0.1,0.68h2.06v-1.24h4.33c2.16,0,2.8-1.46,2.8-3.01
			C27.11,443.93,26.8,443.12,26.28,442.42z"/>
		<path d="M24.16,432.55h-3.13c-2.56,0-3.61,1.79-3.61,4.23c0,2.76,1.4,4.27,3.42,4.56l0.21-3.09c-0.68-0.14-1.15-0.52-1.15-1.26
			c0-0.8,0.45-1.15,1.22-1.15h0.14l0.43,2.58c0.35,2,1.11,3.28,2.89,3.28c1.57,0,2.49-1.18,2.49-2.97c0-1.46-0.56-2.51-1.63-3.05
			c1.05-0.31,1.63-1.2,1.63-2.33c0-0.95-0.27-1.61-0.6-2.08H24.7c0.1,0.27,0.14,0.47,0.14,0.74
			C24.84,432.34,24.63,432.55,24.16,432.55z M24.92,437.54c0,0.56-0.31,0.93-0.78,0.93c-0.6,0-0.85-0.47-1.01-1.28l-0.25-1.36h0.14
			C24.22,435.83,24.92,436.59,24.92,437.54z"/>
		<rect x="13.87" y="426.95" width="12.99" height="3.34"/>
		<rect x="17.67" y="421.79" width="9.19" height="3.34"/>
		<rect x="13.87" y="421.77" width="2.93" height="3.38"/>
		<path d="M24.06,411.75c-1.79,0-2.72,1.2-3.05,3.26l-0.31,1.79c-0.04,0.31-0.21,0.56-0.52,0.56c-0.41,0-0.66-0.37-0.66-1.01
			c0-1.03,0.41-1.61,1.07-1.73l-0.08-2.74c-1.92,0.19-3.09,1.75-3.09,4.41c0,2.58,1.3,4.16,3.11,4.16c1.88,0,2.6-1.18,2.95-3.4
			l0.21-1.36c0.1-0.64,0.35-0.85,0.7-0.85c0.37,0,0.64,0.39,0.64,1.13c0,1.01-0.43,1.63-1.2,1.75l0.04,2.91
			c2.23-0.19,3.24-2.08,3.24-4.62C27.11,413.4,26,411.75,24.06,411.75z"/>
		<path d="M17.42,404.27c0,1.38,0.62,2.37,1.63,2.87h-1.38v3.34h9.19v-3.34h-4.51c-1.38,0-2.29-0.39-2.29-1.48
			c0-1.01,0.66-1.26,1.92-1.26h4.89v-3.34h-4.51c-1.38,0-2.29-0.37-2.29-1.48c0-1.01,0.66-1.24,1.92-1.24h4.89V395h-5.77
			c-1.92,0-3.67,0.74-3.67,3.28c0,1.55,0.78,2.64,1.81,3.13C18.16,401.8,17.42,402.64,17.42,404.27z"/>
		<rect x="13.87" y="386.24" width="12.99" height="3.5"/>
		<path d="M23.83,382.1l0.04,2.91c2.23-0.19,3.24-2.08,3.24-4.62c0-2.62-1.11-4.27-3.05-4.27c-1.79,0-2.72,1.2-3.05,3.26l-0.31,1.79
			c-0.04,0.31-0.21,0.56-0.52,0.56c-0.41,0-0.66-0.37-0.66-1.01c0-1.03,0.41-1.61,1.07-1.73l-0.08-2.74
			c-1.92,0.19-3.09,1.75-3.09,4.41c0,2.58,1.3,4.16,3.11,4.16c1.88,0,2.6-1.18,2.95-3.4l0.21-1.36c0.1-0.64,0.35-0.85,0.7-0.85
			c0.37,0,0.64,0.39,0.64,1.13C25.03,381.36,24.59,381.97,23.83,382.1z"/>
		<path d="M26.86,368.76l-2.51-0.97v-5.07l2.51-0.97v-3.73l-12.99,5.17v3.92l12.99,5.17V368.76z M21.73,366.78l-3.83-1.48v-0.08
			l3.83-1.48V366.78z"/>
		<polygon points="26.86,347.49 13.87,342.5 13.87,345.99 22.51,349.2 22.51,349.29 13.87,352.5 13.87,356.17 26.86,351.18 		"/>
		<rect x="13.87" y="338.24" width="2.93" height="3.38"/>
		<rect x="17.67" y="338.26" width="9.19" height="3.34"/>
		<path d="M19.3,333.11h-1.63v3.34h9.19v-3.34h-4.21c-1.55,0-2.12-0.76-2.12-2c0-0.64,0.12-1.13,0.39-1.59l-3.15-0.21
			c-0.19,0.23-0.35,0.72-0.35,1.28C17.42,331.81,18.27,332.78,19.3,333.11z"/>
		<path d="M22.57,325.05h-4.91v3.34h5.79c1.92,0,3.65-0.76,3.65-3.28c0-1.38-0.6-2.39-1.63-2.89h1.38v-3.34h-9.19v3.34h4.51
			c1.4,0,2.31,0.41,2.31,1.46C24.49,324.7,23.81,325.05,22.57,325.05z"/>
		<path d="M20.53,317.55c1.88,0,2.6-1.17,2.95-3.4l0.21-1.36c0.1-0.64,0.35-0.85,0.7-0.85c0.37,0,0.64,0.39,0.64,1.13
			c0,1.01-0.43,1.63-1.2,1.75l0.04,2.91c2.23-0.19,3.24-2.08,3.24-4.62c0-2.62-1.11-4.27-3.05-4.27c-1.79,0-2.72,1.2-3.05,3.26
			l-0.31,1.79c-0.04,0.31-0.21,0.56-0.52,0.56c-0.41,0-0.66-0.37-0.66-1.01c0-1.03,0.41-1.61,1.07-1.73l-0.08-2.74
			c-1.92,0.19-3.09,1.75-3.09,4.41C17.42,315.96,18.72,317.55,20.53,317.55z"/>
		<rect x="23.32" y="302.46" width="3.55" height="3.55"/>
		<path d="M22.26,299.58c2.87,0,4.84-2.02,4.84-5.03c0-2.99-1.98-5.03-4.84-5.03c-2.84,0-4.84,2.04-4.84,5.03
			C17.42,297.55,19.42,299.58,22.26,299.58z M22.26,292.88c1.38,0,2.33,0.52,2.33,1.67c0,1.18-0.95,1.67-2.33,1.67
			s-2.33-0.49-2.33-1.67C19.93,293.39,20.88,292.88,22.26,292.88z"/>
		<path d="M17.77,281.07c-0.19,0.23-0.35,0.72-0.35,1.28c0,1.22,0.85,2.18,1.88,2.51h-1.63v3.34h9.19v-3.34h-4.21
			c-1.55,0-2.12-0.76-2.12-2c0-0.64,0.12-1.13,0.39-1.59L17.77,281.07z"/>
		<path d="M27.07,270.39c-1.55,0-2.64,1.05-2.64,3.13v3.81c0,0.56-0.25,0.78-0.56,0.78c-0.19,0-0.33-0.06-0.43-0.19
			c0.19-0.6,0.27-1.26,0.27-2c0-2.6-1.2-4.47-3.13-4.47c-0.43,0-0.83,0.1-1.18,0.29c-0.1-0.45-0.14-0.95-0.14-1.34h-2.52
			c0,1.01,0.66,2.02,1.42,2.58c-0.47,0.78-0.74,1.83-0.74,2.95c0,2.58,1.2,4.43,3.15,4.43c1.01,0,1.79-0.5,2.33-1.32
			c0.37,0.99,1.05,1.57,1.94,1.57c0.78,0,1.53-0.5,1.79-1.32c0.08,1.03,0.72,1.75,1.53,1.75c1.73,0,2.25-2.27,2.25-4.89
			C30.41,273.17,29.36,270.39,27.07,270.39z M20.57,276.86c-0.8,0-1.32-0.41-1.32-0.97s0.52-0.97,1.32-0.97
			c0.82,0,1.34,0.41,1.34,0.97S21.4,276.86,20.57,276.86z M27.83,278.3c-0.35,0-0.56-0.25-0.56-0.62v-3.38
			c0-0.56,0.14-0.85,0.54-0.85c0.56,0,0.87,1.13,0.87,2.68C28.68,277.38,28.49,278.3,27.83,278.3z"/>
		<path class="st5" d="M468.67,247.65c2.34,0.32,4.77,0.25,7.05-0.27c3.86-0.87,6.8-2.88,8.05-5.5
			c0.18-0.37,10.33-21.18,19.44-39.86l-19.59,4.37C478.1,221.6,471.67,239.35,468.67,247.65z"/>
		<path class="st5" d="M482.72,112.43c3.96,14.07,7.97,29.47,10.15,41.96c1.72,9.9,2.9,18.79-0.23,27.28
			c-0.66,1.8-1.92,5.25-3.54,9.68l21.7-4.84c2.79-5.7,4.98-10.19,6.02-12.31c4.65-9.47,6.27-14.55,2.19-23.5
			C517.08,146.47,501.81,130.77,482.72,112.43z"/>
		<path class="st5" d="M420.61,138.49c-2.12-0.79-6.57-1.32-11.82-1c0.03,0.22,0.05,0.45,0.09,0.67l12.17,62.92c0,0,0,0,0,0
			c0.08,0.42,0.2,0.82,0.33,1.22l12.31-34.56L420.61,138.49z"/>
		<path class="st5" d="M427.58,225.09c2.53,2.65,5.07,5.32,7.6,7.98c6.56,6.92,10.6,13.87,12.82,20.59
			c3.13-1.33,5.38-3.42,6.25-5.86c0.13-0.36,7.05-19.46,13.75-37.92l-38.02,8.49L427.58,225.09z"/>
		<path d="M251.18,396h-14.4c-4.98,0-8.55,3.76-9.02,8.17c-0.47,4.42-4.12,35.69-4.77,40.45c-0.83,6.16,3.89,9.4,8.87,9.4h3.01
			c0,0,5.42,45.88,5.84,49.14c0.71,5.51,3.21,8.03,8.31,8.03h2.18h1.94c4.67,0,7.79-2.51,8.51-8.03c0.42-3.26,5.84-49.14,5.84-49.14
			h3c4.99,0,9.71-3.24,8.87-9.4c-0.63-4.76-4.29-36.03-4.77-40.45c-0.47-4.41-4.04-8.17-9.02-8.17H251.18z"/>
		<path d="M235.67,371.61c0,8.57,6.94,15.51,15.51,15.51s15.51-6.94,15.51-15.51s-6.94-15.51-15.51-15.51
			S235.67,363.05,235.67,371.61z"/>
		<path d="M611.95,177.75l25.96-5.8c3.64-0.81,5.93-4.42,5.12-8.06c-0.81-3.64-4.42-5.93-8.06-5.12l-27.34,6.1l-0.39-1.16
			c-0.92-2.75-3.5-4.6-6.4-4.6h0c-2.9,0-5.47,1.85-6.4,4.6l-1.49,4.44l-65.3,14.58c0.52-1.06,0.95-1.95,1.27-2.6
			c5.21-10.59,8.98-20.54,2.36-35.05c-4.14-9.08-35.6-39.26-56.01-58.29c-1.61-5.48-2.86-9.79-3.45-12.29
			c-4.18-17.5-24.77-32.67-40.38-34.55c-1.2-0.14-3.7-0.29-7.24-0.43c-0.12-0.01-0.24-0.02-0.36-0.02l-0.4-0.01
			c-36.05-1.41-170.88-2.73-178.46-2.8L26.27,27.99c-3.48-0.14-6.44,2.38-6.94,5.74c-0.04,0.24-0.06,0.49-0.07,0.74
			c-0.15,3.72,2.75,6.86,6.47,7.01l218.82,8.71c0.05,0,0.11,0,0.16,0L423.63,53c0.04,0,0.07,0,0.11,0c0.01,0,0.02,0,0.03,0
			c2.98,0.12,5.07,0.24,6.06,0.36c10.69,1.28,26.1,12.74,28.86,24.29c0.83,3.46,2.63,9.56,4.9,17.28
			c5.07,17.19,12.74,43.17,15.98,61.77c1.43,8.23,2.37,14.94,0.4,20.29c-1.03,2.8-3.5,9.56-6.51,17.84l-38.14,8.51l11.98-33.64
			c0.58-1.64,0.51-3.43-0.2-5.02l-14.77-33.04c-1.66-3.85-6.02-6.23-13.31-7.25c-7.16-1.01-15.56-0.46-23.04,1.5
			c-5.24,1.37-9.96,3.42-14.05,6.04l0.07,1.44c-1.42,0.07-2.82,0.58-3.99,1.56c-3.6,3.02-12.48,12.29-15.37,20.12
			c-5.45,14.77,15.86,38.12,53.99,78.1c2.91,3.05,5.84,6.12,8.76,9.2c18.71,19.72,10.9,39.42,1.05,52.48
			c-0.32,0.42-0.48,0.43-0.56,0.44c-0.52,0.03-1.94-0.38-3.75-2.19c-18.17-18.16-63.04-62.78-87.09-84.89
			c-0.76-0.69-1.66-1.21-2.64-1.5c-72.44-21.56-98.45-61.75-98.69-62.13c-1.4-2.26-4-3.48-6.63-3.13
			c-1.57,0.21-157.68,21.06-201.11,21.29c-3.7,0.02-6.69,3.01-6.71,6.7c0,0.03,0,0.05,0,0.08c0.02,3.71,3.04,6.71,6.75,6.71
			c0.01,0,0.02,0,0.04,0c40.83-0.21,173.28-17.49,198.78-20.87c8.35,11.08,37.75,44.26,102.23,63.83c2.24,2.07,4.66,4.33,7.2,6.73
			l-75.16,16.78l-1.26-3.76c-0.92-2.75-3.5-4.6-6.4-4.6h0c-2.9,0-5.47,1.85-6.4,4.6l-2.5,7.46l-28.7,6.41
			c-3.64,0.81-5.93,4.42-5.12,8.06c0.7,3.14,3.49,5.28,6.58,5.28c0.49,0,0.98-0.05,1.48-0.16l20.74-4.63l-87.95,261.82l-11.72,0.08
			l7.82,13.62c21.64,37.67,61.87,60.98,105.15,60.98c0.28,0,0.56,0,0.85,0c43.6-0.31,83.88-24.24,105.13-62.46l7.63-13.73
			l-11.61,0.08l-89.38-266.18L346,237.13c23.67,22.76,52.82,51.76,66.59,65.52c3.99,3.98,8.65,6.14,13.22,6.14
			c0.34,0,0.67-0.01,1.01-0.04c4.11-0.29,7.8-2.34,10.39-5.77c5.11-6.78,13.21-20.04,13.04-35.81c0.3-0.09,0.61-0.17,0.91-0.27
			c4.38-1.49,8.14-3.87,10.99-6.86c2.97,0.86,6.11,1.31,9.25,1.31c2.45,0,4.9-0.27,7.28-0.8c7.9-1.79,14.19-6.46,17.23-12.78
			c0.2-0.41,14.26-29.25,24.15-49.5l67.86-15.15l-88.97,264.84l-11.72,0.08l7.82,13.62c21.64,37.67,61.86,60.98,105.15,60.98
			c0.28,0,0.56,0,0.85,0c43.6-0.31,83.89-24.24,105.13-62.46l7.63-13.73l-11.61,0.08L611.95,177.75z M338.58,521.85l-174.76,1.23
			l87.61-260.79L338.58,521.85z M388.36,182.08c-14.16-17.56-13.1-22.17-13.05-22.34c1.07-2.9,4.33-7.18,7.4-10.54
			c0.13-0.13,0.25-0.26,0.37-0.4c1.32-1.42,2.59-2.66,3.61-3.51c0.3-0.25,0.56-0.52,0.8-0.8c2.43-1.85,5.19-3.26,8.05-4.32
			c0.03,0.18,0.06,0.37,0.09,0.55l12.17,62.92c0.05,0.24,0.1,0.48,0.16,0.72C400.56,196.39,393.85,188.89,388.36,182.08z
			 M421.38,202.29c-0.13-0.4-0.25-0.8-0.33-1.22c0,0,0,0,0,0l-12.17-62.92c-0.04-0.22-0.07-0.45-0.09-0.67
			c5.25-0.32,9.7,0.21,11.82,1l13.08,29.25L421.38,202.29z M454.25,247.81c-0.87,2.44-3.12,4.53-6.25,5.86
			c-2.22-6.72-6.26-13.67-12.82-20.59c-2.53-2.67-5.07-5.33-7.6-7.98l2.39-6.72l38.02-8.49
			C461.3,228.35,454.38,247.45,454.25,247.81z M483.77,241.89c-1.26,2.62-4.19,4.62-8.05,5.5c-2.29,0.52-4.72,0.59-7.05,0.27
			c3.01-8.3,9.44-26.05,14.96-41.25l19.59-4.37C494.1,220.7,483.95,241.52,483.77,241.89z M516.81,174.19
			c-1.04,2.12-3.24,6.61-6.02,12.31l-21.7,4.84c1.61-4.43,2.87-7.88,3.54-9.68c3.13-8.49,1.96-17.38,0.23-27.28
			c-2.17-12.48-6.19-27.89-10.15-41.96c19.09,18.33,34.36,34.04,36.28,38.26C523.08,159.64,521.47,164.73,516.81,174.19z
			 M513.24,447.86l87.6-260.79L688,446.63L513.24,447.86z"/>
		<path d="M593.2,310.01v10.93c-19.08,1.49-30.44,11.96-30.44,28.12c0,13.84,8.54,22.91,24.04,25.54l6.4,1.13v18.2
			c-7.54-2.25-11.93-7.75-12.39-15.57l-0.04-0.74l-20.21,0.74v0.73c0,18.29,12.19,30.51,32.64,32.78v12.75h11.85v-12.44
			c19.65-1.28,31.82-11.85,31.82-27.71c0-14.76-8.38-23.13-26.38-26.37l-5.44-0.99v-17.88c6.13,2.16,9.83,7.16,10.19,13.87
			l0.04,0.74l19.81-0.6l-0.01-0.75c-0.28-17.62-11.21-28.98-30.03-31.25v-11.24H593.2z M593.2,355.02c-5.8-1.21-9.36-3.02-9.36-7.75
			c0-5.18,3.06-8.1,9.36-8.93V355.02z M615.65,385.84c0,4.86-3.85,8.09-10.6,8.93v-16.98C612.66,379.18,615.65,381.48,615.65,385.84
			z"/>
		<path d="M761.93,48.99v2.49l3.42,0.8v2.04l2.06,0.43v-1.98l2.02,0.49v1.88l2.06,0.43v-1.83l3.42,0.82v-2.49l-3.42-0.82v-1.77
			l3.42,0.82v-2.49l-3.42-0.82v-2.02l-2.06-0.43v1.98l-2.02-0.49v-1.88l-2.06-0.43v1.81l-3.42-0.8v2.49l3.42,0.8v1.77L761.93,48.99z
			 M767.41,48.51l2.02,0.49v1.77l-2.02-0.5V48.51z"/>
		<path d="M768.42,58.21c-4,0-6.74,2.87-6.74,6.66c0,3.98,2.51,6.1,5.75,6.35l0.14-3.36c-1.44-0.21-2.78-0.99-2.78-3.01
			c0-1.92,1.42-3.03,3.63-3.03s3.63,1.11,3.63,3.03c0,2.02-1.34,2.8-2.78,3.01l0.12,3.36c3.24-0.25,5.77-2.37,5.77-6.35
			C775.16,61.07,772.42,58.21,768.42,58.21z"/>
		<path d="M761.72,80.3c0,0.95,0.27,1.61,0.6,2.08h1.77c-0.1-0.27-0.14-0.47-0.14-0.74c0-0.35,0.21-0.56,0.68-0.56h3.13
			c2.56,0,3.61-1.79,3.61-4.23c0-2.76-1.4-4.27-3.42-4.56l-0.21,3.09c0.68,0.14,1.15,0.52,1.15,1.26c0,0.8-0.45,1.15-1.22,1.15
			h-0.14l-0.43-2.58c-0.35-2-1.11-3.28-2.89-3.28c-1.57,0-2.49,1.18-2.49,2.97c0,1.46,0.56,2.51,1.63,3.05
			C762.3,78.28,761.72,79.17,761.72,80.3z M764.65,75.17c0.6,0,0.85,0.47,1.01,1.28l0.25,1.36h-0.14c-1.2,0-1.9-0.76-1.9-1.71
			C763.87,75.54,764.18,75.17,764.65,75.17z"/>
		<path d="M758.63,86.69h4.86c-1.07,0.45-1.81,1.48-1.81,3.03c0,2.7,2.12,4.08,4.84,4.08c2.7,0,4.84-1.38,4.84-4.08
			c0-1.55-0.74-2.58-1.83-3.03h1.59v-3.34h-12.49V86.69z M766.46,86.69h0.12c1.32,0,2.18,0.72,2.18,1.86c0,1.3-0.93,1.9-2.25,1.9
			c-1.34,0-2.27-0.6-2.27-1.9C764.26,87.41,765.12,86.69,766.46,86.69z"/>
		<rect x="771.99" y="95.1" width="2.93" height="3.38"/>
		<rect x="761.93" y="95.12" width="9.19" height="3.34"/>
		<path d="M773.66,101.8l-1.2-0.31c-0.85-0.23-1.34-0.52-1.48-1.44l-0.1-0.68h-2.06v1.24h-4.33c-2.16,0-2.8,1.46-2.8,3.01
			c0,1.26,0.31,2.06,0.82,2.76h2.16c-0.23-0.56-0.31-1.01-0.31-1.42c0-0.68,0.31-1.05,1.09-1.05h3.36v2.39h2.31v-2.39h2.54V101.8z"
			/>
		<path d="M764.63,116.25h3.13c2.56,0,3.61-1.79,3.61-4.23c0-2.76-1.4-4.27-3.42-4.56l-0.21,3.09c0.68,0.14,1.15,0.52,1.15,1.26
			c0,0.8-0.45,1.15-1.22,1.15h-0.14l-0.43-2.58c-0.35-2-1.11-3.28-2.89-3.28c-1.57,0-2.49,1.17-2.49,2.97
			c0,1.46,0.56,2.51,1.63,3.05c-1.05,0.31-1.63,1.2-1.63,2.33c0,0.95,0.27,1.61,0.6,2.08h1.77c-0.1-0.27-0.14-0.47-0.14-0.74
			C763.95,116.45,764.16,116.25,764.63,116.25z M763.87,111.26c0-0.56,0.31-0.93,0.78-0.93c0.6,0,0.85,0.47,1.01,1.28l0.25,1.36
			h-0.14C764.57,112.97,763.87,112.21,763.87,111.26z"/>
		<rect x="761.93" y="118.51" width="12.99" height="3.34"/>
		<rect x="771.99" y="123.64" width="2.93" height="3.38"/>
		<rect x="761.93" y="123.66" width="9.19" height="3.34"/>
		<path d="M768.26,128.34c-1.88,0-2.6,1.17-2.95,3.4l-0.21,1.36c-0.1,0.64-0.35,0.85-0.7,0.85c-0.37,0-0.64-0.39-0.64-1.13
			c0-1.01,0.43-1.63,1.2-1.75l-0.04-2.91c-2.23,0.19-3.24,2.08-3.24,4.62c0,2.62,1.11,4.27,3.05,4.27c1.79,0,2.72-1.2,3.05-3.26
			l0.31-1.79c0.04-0.31,0.21-0.56,0.52-0.56c0.41,0,0.66,0.37,0.66,1.01c0,1.03-0.41,1.61-1.07,1.73l0.08,2.74
			c1.92-0.19,3.09-1.75,3.09-4.41C771.37,129.93,770.07,128.34,768.26,128.34z"/>
		<path d="M771.37,144.52c0-1.38-0.62-2.37-1.63-2.87h1.38v-3.34h-9.19v3.34h4.51c1.38,0,2.29,0.39,2.29,1.48
			c0,1.01-0.66,1.26-1.92,1.26h-4.89v3.34h4.51c1.38,0,2.29,0.37,2.29,1.48c0,1.01-0.66,1.24-1.92,1.24h-4.89v3.34h5.77
			c1.92,0,3.67-0.74,3.67-3.28c0-1.55-0.78-2.64-1.81-3.13C770.63,147,771.37,146.15,771.37,144.52z"/>
		<rect x="761.93" y="157.39" width="12.99" height="3.5"/>
		<path d="M764.96,165.04l-0.04-2.91c-2.23,0.19-3.24,2.08-3.24,4.62c0,2.62,1.11,4.27,3.05,4.27c1.79,0,2.72-1.2,3.05-3.26
			l0.31-1.79c0.04-0.31,0.21-0.56,0.52-0.56c0.41,0,0.66,0.37,0.66,1.01c0,1.03-0.41,1.61-1.07,1.73l0.08,2.74
			c1.92-0.19,3.09-1.75,3.09-4.41c0-2.58-1.3-4.16-3.11-4.16c-1.88,0-2.6,1.17-2.95,3.4l-0.21,1.36c-0.1,0.64-0.35,0.85-0.7,0.85
			c-0.37,0-0.64-0.39-0.64-1.13C763.76,165.78,764.2,165.16,764.96,165.04z"/>
		<path d="M761.93,176.71l2.51,0.97v5.07l-2.51,0.97v3.73l12.99-5.17v-3.92l-12.99-5.17V176.71z M767.06,178.69l3.83,1.48v0.08
			l-3.83,1.48V178.69z"/>
		<polygon points="761.93,197.92 774.92,202.91 774.92,199.43 766.28,196.21 766.28,196.13 774.92,192.91 774.92,189.25 
			761.93,194.23 		"/>
		<rect x="771.99" y="203.8" width="2.93" height="3.38"/>
		<rect x="761.93" y="203.82" width="9.19" height="3.34"/>
		<path d="M769.49,212.31h1.63v-3.34h-9.19v3.34h4.21c1.55,0,2.12,0.76,2.12,2c0,0.64-0.12,1.13-0.39,1.59l3.15,0.21
			c0.19-0.23,0.35-0.72,0.35-1.28C771.37,213.61,770.52,212.64,769.49,212.31z"/>
		<path d="M766.22,220.37h4.91v-3.34h-5.79c-1.92,0-3.65,0.76-3.65,3.28c0,1.38,0.6,2.39,1.63,2.89h-1.38v3.34h9.19v-3.34h-4.51
			c-1.4,0-2.31-0.41-2.31-1.46C764.3,220.72,764.98,220.37,766.22,220.37z"/>
		<path d="M768.26,227.87c-1.88,0-2.6,1.18-2.95,3.4l-0.21,1.36c-0.1,0.64-0.35,0.84-0.7,0.84c-0.37,0-0.64-0.39-0.64-1.13
			c0-1.01,0.43-1.63,1.2-1.75l-0.04-2.91c-2.23,0.19-3.24,2.08-3.24,4.62c0,2.62,1.11,4.27,3.05,4.27c1.79,0,2.72-1.2,3.05-3.26
			l0.31-1.79c0.04-0.31,0.21-0.56,0.52-0.56c0.41,0,0.66,0.37,0.66,1.01c0,1.03-0.41,1.61-1.07,1.73l0.08,2.74
			c1.92-0.19,3.09-1.75,3.09-4.41C771.37,229.46,770.07,227.87,768.26,227.87z"/>
	</g>
</g>
</svg>
