<?xml version="1.0" encoding="utf-8"?>
<!-- Generator: Adobe Illustrator 23.1.1, SVG Export Plug-In . SVG Version: 6.00 Build 0)  -->
<svg version="1.1" xmlns="http://www.w3.org/2000/svg" xmlns:xlink="http://www.w3.org/1999/xlink" x="0px" y="0px"
	 viewBox="0 0 792 612" style="enable-background:new 0 0 792 612;" xml:space="preserve">
<style type="text/css">
	.st0{display:none;}
	.st1{display:inline;fill:#FFFFFF;}
	.st2{display:inline;}
	.st3{fill:#FFFFFF;stroke:#000000;stroke-width:16;stroke-linecap:round;stroke-linejoin:round;stroke-miterlimit:10;}
	.st4{fill:none;stroke:#000000;stroke-width:24;stroke-linejoin:round;stroke-miterlimit:10;}
	.st5{fill:#FFFFFF;}
	.st6{fill:#FFFFFF;stroke:#000000;stroke-width:17;stroke-linecap:round;stroke-miterlimit:10;}
	.st7{fill:#FFFFFF;stroke:#000000;stroke-width:17;stroke-miterlimit:10;}
	.st8{stroke:#000000;stroke-width:16.0572;stroke-linecap:round;stroke-miterlimit:10;}
	.st9{fill:#FFFFFF;stroke:#000000;stroke-width:13.497;stroke-linecap:round;stroke-linejoin:round;stroke-miterlimit:10;}
	.st10{stroke:#000000;stroke-width:18.3348;stroke-linecap:round;stroke-miterlimit:10;}
	.st11{fill:none;stroke:#000000;stroke-width:13.497;stroke-linecap:round;stroke-linejoin:round;stroke-miterlimit:10;}
	.st12{fill:#FFFFFF;stroke:#000000;stroke-width:14.6942;stroke-linecap:round;stroke-linejoin:round;stroke-miterlimit:10;}
	.st13{fill:none;stroke:#000000;stroke-width:13;stroke-linecap:round;stroke-linejoin:round;stroke-miterlimit:10;}
	.st14{fill:none;stroke:#000000;stroke-width:13;stroke-linejoin:round;stroke-miterlimit:10;}
	.st15{fill:url(#);stroke:#000000;stroke-width:13;stroke-linejoin:round;stroke-miterlimit:10;}
	.st16{fill:none;stroke:#000000;stroke-width:30.5612;stroke-linecap:round;stroke-linejoin:round;stroke-miterlimit:10;}
	.st17{fill:#FFFFFF;stroke:#000000;stroke-width:16.2993;stroke-linecap:round;stroke-linejoin:round;stroke-miterlimit:10;}
	.st18{fill:#FFFFFF;stroke:#000000;stroke-width:13.497;stroke-linecap:round;stroke-miterlimit:10;}
	.st19{fill:url(#);stroke:#000000;stroke-width:13.497;stroke-linecap:round;stroke-linejoin:round;stroke-miterlimit:10;}
	.st20{fill:#FFFFFF;stroke:#000000;stroke-width:11.7326;stroke-linecap:round;stroke-linejoin:round;stroke-miterlimit:10;}
	.st21{fill:#FFFFFF;stroke:#000000;stroke-width:13.2623;stroke-linecap:round;stroke-linejoin:round;stroke-miterlimit:10;}
	.st22{fill:#FFFFFF;stroke:#000000;stroke-width:13.2623;stroke-linecap:round;stroke-miterlimit:10;}
	.st23{stroke:#000000;stroke-width:4.5213;stroke-miterlimit:10;}
	.st24{fill:none;stroke:#000000;stroke-width:16;stroke-linecap:round;stroke-miterlimit:10;}
	.st25{fill:url(#);stroke:#000000;stroke-width:16;stroke-linecap:round;stroke-linejoin:round;stroke-miterlimit:10;}
	.st26{fill:#FFFFFF;stroke:#000000;stroke-width:16;stroke-linecap:round;stroke-miterlimit:10;}
	.st27{fill:none;stroke:#000000;stroke-width:16;stroke-linecap:round;stroke-linejoin:round;stroke-miterlimit:10;}
	.st28{fill:none;stroke:#000000;stroke-width:15.2344;stroke-linecap:round;stroke-linejoin:round;stroke-miterlimit:10;}
	.st29{fill:#FFFFFF;stroke:#000000;stroke-width:15.2344;stroke-linecap:round;stroke-linejoin:round;stroke-miterlimit:10;}
	.st30{font-family:'FoundersGrotesk-Bold';}
	.st31{font-size:154.9522px;}
	.st32{font-size:188.6053px;}
	.st33{font-size:20.6105px;}
	.st34{font-size:10.3052px;}
	.st35{font-size:19.2364px;}
	.st36{font-size:10px;}
	.st37{fill:#FFFFFF;stroke:#000000;stroke-width:17;stroke-linecap:round;stroke-linejoin:round;stroke-miterlimit:10;}
	.st38{fill:none;stroke:#000000;stroke-width:9.9764;stroke-linecap:round;stroke-linejoin:round;stroke-miterlimit:10;}
	.st39{fill:none;stroke:#000000;stroke-width:9.3127;stroke-linejoin:round;stroke-miterlimit:10;}
	.st40{fill:url(#);}
	.st41{fill:none;stroke:#000000;stroke-width:8.3796;stroke-linecap:round;stroke-linejoin:round;stroke-miterlimit:10;}
	
		.st42{display:inline;fill:none;stroke:#000000;stroke-width:9.9764;stroke-linecap:round;stroke-linejoin:round;stroke-miterlimit:10;}
	.st43{display:inline;fill:none;stroke:#000000;stroke-width:9.3127;stroke-linejoin:round;stroke-miterlimit:10;}
	.st44{display:inline;fill:url(#);stroke:#000000;stroke-width:10;stroke-linejoin:round;stroke-miterlimit:10;}
	.st45{fill:#FFFFFF;stroke:#000000;stroke-width:14.7375;stroke-linecap:round;stroke-linejoin:round;stroke-miterlimit:10;}
	.st46{fill:none;stroke:#000000;stroke-width:14.7375;stroke-linecap:round;stroke-linejoin:round;stroke-miterlimit:10;}
	.st47{stroke:#000000;stroke-width:14.7375;stroke-linecap:round;stroke-linejoin:round;stroke-miterlimit:10;}
	.st48{fill:#FFFFFF;stroke:#000000;stroke-width:14.2911;stroke-linecap:round;stroke-linejoin:round;stroke-miterlimit:10;}
	.st49{fill:none;stroke:#000000;stroke-width:15;stroke-linecap:round;stroke-linejoin:round;stroke-miterlimit:10;}
	.st50{fill:#FFFFFF;stroke:#000000;stroke-width:15;stroke-linecap:round;stroke-linejoin:round;stroke-miterlimit:10;}
	.st51{fill:#FFFFFF;stroke:#000000;stroke-width:14.8467;stroke-linecap:round;stroke-linejoin:round;stroke-miterlimit:10;}
	.st52{stroke:#000000;stroke-width:20.1683;stroke-linecap:round;stroke-miterlimit:10;}
	.st53{fill:none;stroke:#000000;stroke-width:14.8467;stroke-linecap:round;stroke-linejoin:round;stroke-miterlimit:10;}
	.st54{fill:none;stroke:#000000;stroke-width:13.497;stroke-miterlimit:10;}
	.st55{fill:#FFFFFF;stroke:#000000;stroke-width:13.497;stroke-miterlimit:10;}
	.st56{fill:#FFFFFF;stroke:#000000;stroke-width:14.7439;stroke-linecap:round;stroke-miterlimit:10;}
	.st57{fill:#FFFFFF;stroke:#000000;stroke-width:14.7439;stroke-miterlimit:10;}
	.st58{stroke:#000000;stroke-width:13.9262;stroke-linecap:round;stroke-miterlimit:10;}
	.st59{fill:#FFFFFF;stroke:#000000;stroke-width:17.1072;stroke-linecap:round;stroke-linejoin:round;stroke-miterlimit:10;}
	.st60{stroke:#000000;stroke-width:17.1072;stroke-linecap:round;stroke-linejoin:round;stroke-miterlimit:10;}
	.st61{fill:#FFFFFF;stroke:#000000;stroke-width:15;stroke-linecap:square;stroke-linejoin:round;stroke-miterlimit:10;}
	.st62{fill:#FFFFFF;stroke:#000000;stroke-width:15;stroke-linejoin:round;stroke-miterlimit:10;}
	.st63{fill:#FFFFFF;stroke:#000000;stroke-width:14;stroke-linecap:round;stroke-linejoin:round;stroke-miterlimit:10;}
	.st64{fill:#FFFFFF;stroke:#000000;stroke-width:13;stroke-linecap:round;stroke-linejoin:round;stroke-miterlimit:10;}
	.st65{fill:#FFFFFF;stroke:#000000;stroke-width:15.2362;stroke-linecap:round;stroke-linejoin:round;stroke-miterlimit:10;}
	.st66{fill:#FFFFFF;stroke:#FFFFFF;stroke-width:3;stroke-miterlimit:10;}
	.st67{fill:#FFFFFF;stroke:#000000;stroke-width:13.3058;stroke-linecap:round;stroke-linejoin:round;stroke-miterlimit:10;}
	.st68{fill:#FFFFFF;stroke:#000000;stroke-width:15.2517;stroke-linecap:round;stroke-linejoin:round;stroke-miterlimit:10;}
	.st69{stroke:#000000;stroke-width:3;stroke-miterlimit:10;}
</style>
<g id="unexpanded" class="st0">
	<rect x="-5081.75" y="-2593.56" class="st1" width="14663.41" height="9108.82"/>
	<g class="st2">
		<rect x="-1.4" class="st5" width="792" height="1224"/>
		<g>
			<text transform="matrix(1 0 0 1 167.0518 182.2725)"><tspan x="0" y="0" class="st30 st31">DON’T</tspan><tspan x="-52.99" y="154.23" class="st30 st31">PANIC...</tspan></text>
			<text transform="matrix(1 0 0 1 3.0005 502.6362)" class="st30 st32">Organize!</text>
		</g>
		<g>
			<g>
				<text transform="matrix(1 0 0 1 258.9679 23.554)"><tspan x="0" y="0" class="st30 st33">www</tspan><tspan x="45.14" y="0" class="st30 st34"> </tspan><tspan x="46.99" y="0" class="st30 st33">.</tspan><tspan x="51.77" y="0" class="st30 st34"> </tspan><tspan x="53.63" y="0" class="st30 st33">Capitalism</tspan><tspan x="150.43" y="0" class="st30 st35"> </tspan><tspan x="153.9" y="0" class="st30 st33">Is</tspan><tspan x="168.88" y="0" class="st30 st35"> </tspan><tspan x="172.34" y="0" class="st30 st33">A</tspan><tspan x="186.6" y="0" class="st30 st34"> </tspan><tspan x="188.46" y="0" class="st30 st33">Virus</tspan><tspan x="236.15" y="0" class="st30 st34"> </tspan><tspan x="238.01" y="0" class="st30 st33">.</tspan><tspan x="242.79" y="0" class="st30 st34"> </tspan><tspan x="244.64" y="0" class="st30 st33">org</tspan></text>
			</g>
			<g>
				<text transform="matrix(1 0 0 1 299.1802 596.9929)"><tspan x="0" y="0" class="st30 st33">#</tspan><tspan x="12.7" y="0" class="st30 st36"> </tspan><tspan x="14.5" y="0" class="st30 st33">Capitalism</tspan><tspan x="111.3" y="0" class="st30 st36"> </tspan><tspan x="113.1" y="0" class="st30 st33">Is</tspan><tspan x="128.09" y="0" class="st30 st36"> </tspan><tspan x="129.89" y="0" class="st30 st33">A</tspan><tspan x="144.15" y="0" class="st30 st36"> </tspan><tspan x="145.95" y="0" class="st30 st33">Virus</tspan></text>
			</g>
		</g>
	</g>
</g>
<g id="exp_trnsp_bg">
	<g>
	</g>
	<path d="M265.06,133.46c0-30.53-19.99-48.81-52.37-48.81H174.1v97.62h38.58C245.07,182.27,265.06,163.99,265.06,133.46z
		 M200.44,161.51v-56.09h10.38c17.04,0,27.12,10.23,27.12,27.89c0,17.97-10.07,28.2-27.12,28.2H200.44z"/>
	<path d="M272.03,133.46c0,30.06,22.31,50.67,50.67,50.67s50.67-20.61,50.67-50.67c0-30.06-22.31-50.67-50.67-50.67
		S272.03,103.4,272.03,133.46z M346.25,133.46c0,16.58-9.14,27.43-23.55,27.43s-23.55-10.85-23.55-27.43
		c0-16.58,9.14-27.43,23.55-27.43S346.25,116.88,346.25,133.46z"/>
	<polygon points="383.9,182.27 408.08,182.27 408.08,124.48 450.22,182.27 471.3,182.27 471.3,84.65 447.12,84.65 447.12,138.73 
		409.01,84.65 383.9,84.65 	"/>
	<path d="M483.38,116.42v11.93c17.35-0.46,26.19-6.82,26.19-22V84.65h-26.19v23.24h11.78C495,114.09,490.82,116.11,483.38,116.42z"
		/>
	<polygon points="518.09,106.35 551.56,106.35 551.56,182.27 577.75,182.27 577.75,106.35 611.68,106.35 611.68,84.65 518.09,84.65 
			"/>
	<path d="M153.11,305.98h16.73c25.57,0,40.44-11.93,40.44-33.62c0-21.54-14.88-33.47-40.44-33.47h-42.92v97.62h26.19V305.98z
		 M153.11,259.96h15.5c11.78,0,16.27,4.34,16.27,12.55s-4.49,12.4-16.27,12.4h-15.5V259.96z"/>
	<path d="M241.74,238.88l-38.89,97.62h26.5l7.28-18.9h38.12l7.28,18.9h28.05l-38.89-97.62H241.74z M244.22,297.92l11.16-28.82H256
		l11.16,28.82H244.22z"/>
	<polygon points="317.51,238.88 317.51,336.5 341.68,336.5 341.68,278.71 383.83,336.5 404.9,336.5 404.9,238.88 380.73,238.88 
		380.73,292.96 342.61,238.88 	"/>
	<rect x="419.78" y="238.88" width="26.34" height="97.62"/>
	<path d="M456.65,287.69c0,30.06,21.54,50.67,50.05,50.67c29.91,0,45.87-18.9,47.73-43.23l-25.26-1.08
		c-1.55,10.85-7.44,20.92-22.62,20.92c-14.41,0-22.78-10.69-22.78-27.27c0-16.58,8.37-27.27,22.78-27.27
		c15.19,0,21.07,10.07,22.62,20.92l25.26-0.93c-1.86-24.33-17.82-43.39-47.73-43.39C478.19,237.02,456.65,257.63,456.65,287.69z"/>
	<rect x="559.54" y="309.85" width="26.65" height="26.65"/>
	<rect x="595.49" y="309.85" width="26.65" height="26.65"/>
	<rect x="631.44" y="309.85" width="26.65" height="26.65"/>
	<path d="M68.44,504.9c34.51,0,61.67-25.08,61.67-61.67c0-36.59-27.16-61.67-61.67-61.67S6.77,406.64,6.77,443.23
		C6.77,479.82,33.93,504.9,68.44,504.9z M68.44,409.85c17.54,0,28.67,13.2,28.67,33.38c0,20.18-11.13,33.38-28.67,33.38
		c-17.54,0-28.67-13.2-28.67-33.38C39.78,423.05,50.9,409.85,68.44,409.85z"/>
	<path d="M142.19,418.52v84.11h30.55v-38.47c0-14.15,6.98-19.43,18.29-19.43c5.85,0,10.37,1.13,14.52,3.58l1.89-28.86
		c-2.07-1.7-6.6-3.21-11.69-3.21c-11.13,0-19.99,7.73-23.01,17.16v-14.9H142.19z"/>
	<path d="M207.64,514.52c0,15.84,20.75,20.56,44.7,20.56c27.35,0,52.81-9.62,52.81-30.55c0-14.15-9.62-24.14-28.67-24.14h-34.89
		c-5.09,0-7.17-2.26-7.17-5.09c0-1.7,0.57-3.02,1.7-3.96c5.47,1.7,11.5,2.45,18.29,2.45c23.76,0,40.93-10.94,40.93-28.67
		c0-3.96-0.94-7.54-2.64-10.75c4.15-0.94,8.68-1.32,12.26-1.32v-23.01c-9.24,0-18.48,6.04-23.57,13.01
		c-7.17-4.34-16.79-6.79-26.97-6.79c-23.57,0-40.55,10.94-40.55,28.86c0,9.24,4.53,16.41,12.07,21.31
		c-9.05,3.4-14.33,9.62-14.33,17.73c0,7.17,4.53,13.96,12.07,16.41C214.24,501.32,207.64,507.16,207.64,514.52z M254.79,433.04
		c5.09,0,8.86,4.71,8.86,12.07c0,7.54-3.77,12.26-8.86,12.26c-5.09,0-8.86-4.71-8.86-12.26
		C245.92,437.76,249.69,433.04,254.79,433.04z M238.38,506.41h30.93c5.09,0,7.73,1.32,7.73,4.9c0,5.09-10.37,7.92-24.52,7.92
		c-11.32,0-19.8-1.7-19.8-7.73C232.72,508.29,234.98,506.41,238.38,506.41z"/>
	<path d="M403.97,482.83c-2.45,0.94-4.34,1.32-6.79,1.32c-3.21,0-5.09-1.89-5.09-6.22v-28.67c0-23.39-16.41-33-38.66-33
		c-25.27,0-39.04,12.83-41.68,31.31l28.29,1.89c1.32-6.22,4.72-10.56,11.5-10.56c7.36,0,10.56,4.15,10.56,11.13v1.32l-23.57,3.96
		c-18.29,3.21-29.99,10.18-29.99,26.4c0,14.33,10.75,22.82,27.16,22.82c13.39,0,23.01-5.09,27.91-14.9
		c2.83,9.62,10.94,14.9,21.31,14.9c8.68,0,14.71-2.45,19.05-5.47V482.83z M362.1,467.56c0,10.94-6.98,17.35-15.65,17.35
		c-5.09,0-8.49-2.83-8.49-7.17c0-5.47,4.34-7.73,11.69-9.24l12.45-2.26V467.56z"/>
	<path d="M412.84,502.64h30.55v-41.3c0-12.64,4.15-20.93,14.52-20.93c9.24,0,12.45,6.04,12.45,17.54v44.7h30.55v-52.81
		c0-17.54-7.36-33.57-30.36-33.57c-12.64,0-22.63,5.66-27.16,14.9v-12.64h-30.55V502.64z"/>
	<rect x="516.57" y="418.52" width="30.55" height="84.11"/>
	<rect x="516.38" y="383.82" width="30.93" height="26.78"/>
	<polygon points="634.82,439.27 634.82,418.52 561.08,418.52 561.08,440.59 597.67,440.59 560.32,481.7 560.32,502.64 
		635.76,502.64 635.76,480.57 596.91,480.57 	"/>
	<path d="M643.5,461.9c0,26.78,19.24,43,46.21,43c22.25,0,37.72-10.75,42.06-29.99l-24.52-2.26c-2.83,6.6-8.11,9.43-16.41,9.43
		c-9.24,0-16.79-4.9-17.54-15.28h59.03v-8.49c0-22.82-14.9-42.06-43-42.06C663.11,416.26,643.5,435.31,643.5,461.9z M688.95,438.14
		c9.05,0,13.96,6.41,14.33,13.96h-29.61C674.81,444.17,679.14,438.14,688.95,438.14z"/>
	<polygon points="768.16,463.03 774.58,414.37 774.58,383.82 742.14,383.82 742.14,414.37 748.55,463.03 	"/>
	<rect x="742.14" y="470.2" width="32.44" height="32.44"/>
	<polygon points="265.16,23.55 266.5,18.36 266.58,18.36 267.92,23.55 271.2,23.55 274.07,14.5 276.93,23.55 280.21,23.55 
		281.55,18.36 281.63,18.36 282.97,23.55 286.25,23.55 289.11,14.5 291.98,23.55 295.25,23.55 296.59,18.36 296.68,18.36 
		298.02,23.55 301.29,23.55 304.2,14.36 301.19,14.36 299.54,19.58 299.46,19.58 298.12,14.36 295.46,14.36 294.12,19.58 
		294.04,19.58 292.39,14.36 289.15,14.36 289.07,14.36 286.15,14.36 284.5,19.58 284.41,19.58 283.07,14.36 280.41,14.36 
		279.07,19.58 278.99,19.58 277.34,14.36 274.11,14.36 274.02,14.36 271.1,14.36 269.45,19.58 269.37,19.58 268.03,14.36 
		265.37,14.36 264.03,19.58 263.95,19.58 262.3,14.36 258.98,14.36 261.88,23.55 	"/>
	<rect x="306.63" y="20.01" width="3.55" height="3.55"/>
	<path d="M319.72,23.8c3.98,0,6.1-2.52,6.35-5.75l-3.36-0.14c-0.21,1.44-0.99,2.78-3.01,2.78c-1.92,0-3.03-1.42-3.03-3.63
		s1.11-3.63,3.03-3.63c2.02,0,2.8,1.34,3.01,2.78l3.36-0.12c-0.25-3.24-2.37-5.77-6.35-5.77c-3.79,0-6.66,2.74-6.66,6.74
		S315.92,23.8,319.72,23.8z"/>
	<path d="M330.08,18.38c-2,0.35-3.28,1.11-3.28,2.89c0,1.57,1.17,2.49,2.97,2.49c1.46,0,2.52-0.56,3.05-1.63
		c0.31,1.05,1.2,1.63,2.33,1.63c0.95,0,1.61-0.27,2.08-0.6v-1.77c-0.27,0.1-0.47,0.14-0.74,0.14c-0.35,0-0.56-0.21-0.56-0.68v-3.13
		c0-2.56-1.79-3.61-4.23-3.61c-2.76,0-4.27,1.4-4.56,3.42l3.09,0.21c0.14-0.68,0.52-1.15,1.26-1.15c0.8,0,1.15,0.45,1.15,1.22v0.14
		L330.08,18.38z M332.66,19.72c0,1.2-0.76,1.9-1.71,1.9c-0.56,0-0.93-0.31-0.93-0.78c0-0.6,0.47-0.85,1.28-1.01l1.36-0.25V19.72z"/>
	<path d="M341.54,21.99c0.45,1.07,1.48,1.81,3.03,1.81c2.7,0,4.08-2.12,4.08-4.84c0-2.7-1.38-4.84-4.08-4.84
		c-1.55,0-2.58,0.74-3.03,1.83v-1.59h-3.34v12.49h3.34V21.99z M341.54,18.9c0-1.32,0.72-2.19,1.86-2.19c1.3,0,1.9,0.93,1.9,2.25
		c0,1.34-0.6,2.27-1.9,2.27c-1.13,0-1.86-0.87-1.86-2.21V18.9z"/>
	<rect x="349.97" y="14.36" width="3.34" height="9.19"/>
	<rect x="349.95" y="10.57" width="3.38" height="2.93"/>
	<path d="M355.46,21c0,2.16,1.46,2.8,3.01,2.8c1.26,0,2.06-0.31,2.76-0.82v-2.16c-0.56,0.23-1.01,0.31-1.42,0.31
		c-0.68,0-1.05-0.31-1.05-1.09v-3.36h2.39v-2.31h-2.39v-2.54h-2.1l-0.31,1.2c-0.23,0.85-0.52,1.34-1.44,1.48l-0.68,0.1v2.06h1.24V21
		z"/>
	<path d="M365.25,18.38c-2,0.35-3.28,1.11-3.28,2.89c0,1.57,1.17,2.49,2.97,2.49c1.46,0,2.52-0.56,3.05-1.63
		c0.31,1.05,1.2,1.63,2.33,1.63c0.95,0,1.61-0.27,2.08-0.6v-1.77c-0.27,0.1-0.47,0.14-0.74,0.14c-0.35,0-0.56-0.21-0.56-0.68v-3.13
		c0-2.56-1.79-3.61-4.23-3.61c-2.76,0-4.27,1.4-4.56,3.42l3.09,0.21c0.14-0.68,0.52-1.15,1.26-1.15c0.8,0,1.15,0.45,1.15,1.22v0.14
		L365.25,18.38z M367.82,19.72c0,1.2-0.76,1.9-1.71,1.9c-0.56,0-0.93-0.31-0.93-0.78c0-0.6,0.47-0.85,1.28-1.01l1.36-0.25V19.72z"/>
	<rect x="373.37" y="10.57" width="3.34" height="12.99"/>
	<rect x="378.5" y="10.57" width="3.38" height="2.93"/>
	<rect x="378.52" y="14.36" width="3.34" height="9.19"/>
	<path d="M387.67,21.72c-1.01,0-1.63-0.43-1.75-1.2l-2.91,0.04c0.19,2.23,2.08,3.24,4.62,3.24c2.62,0,4.27-1.11,4.27-3.05
		c0-1.79-1.2-2.72-3.26-3.05l-1.79-0.31c-0.31-0.04-0.56-0.21-0.56-0.52c0-0.41,0.37-0.66,1.01-0.66c1.03,0,1.61,0.41,1.73,1.07
		l2.74-0.08c-0.19-1.92-1.75-3.09-4.41-3.09c-2.58,0-4.16,1.3-4.16,3.11c0,1.88,1.17,2.6,3.4,2.95l1.36,0.21
		c0.64,0.1,0.85,0.35,0.85,0.7C388.8,21.45,388.41,21.72,387.67,21.72z"/>
	<path d="M396.51,19.04c0-1.38,0.39-2.29,1.48-2.29c1.01,0,1.26,0.66,1.26,1.92v4.89h3.34v-4.51c0-1.38,0.37-2.29,1.48-2.29
		c1.01,0,1.24,0.66,1.24,1.92v4.89h3.34v-5.77c0-1.92-0.74-3.67-3.28-3.67c-1.55,0-2.64,0.78-3.13,1.81
		c-0.39-1.07-1.24-1.81-2.87-1.81c-1.38,0-2.37,0.62-2.87,1.63v-1.38h-3.34v9.19h3.34V19.04z"/>
	<rect x="413.91" y="10.57" width="3.5" height="12.99"/>
	<path d="M423.3,21.72c-1.01,0-1.63-0.43-1.75-1.2l-2.91,0.04c0.19,2.23,2.08,3.24,4.62,3.24c2.62,0,4.27-1.11,4.27-3.05
		c0-1.79-1.2-2.72-3.26-3.05l-1.79-0.31c-0.31-0.04-0.56-0.21-0.56-0.52c0-0.41,0.37-0.66,1.01-0.66c1.03,0,1.61,0.41,1.73,1.07
		l2.74-0.08c-0.19-1.92-1.75-3.09-4.41-3.09c-2.58,0-4.16,1.3-4.16,3.11c0,1.88,1.18,2.6,3.4,2.95l1.36,0.21
		c0.64,0.1,0.85,0.35,0.85,0.7C424.44,21.45,424.05,21.72,423.3,21.72z"/>
	<path d="M435.86,21.04h5.07l0.97,2.52h3.73l-5.17-12.99h-3.92l-5.17,12.99h3.52L435.86,21.04z M438.35,14.59h0.08l1.48,3.83h-3.05
		L438.35,14.59z"/>
	<polygon points="456.16,23.55 461.15,10.57 457.66,10.57 454.45,19.2 454.36,19.2 451.15,10.57 447.48,10.57 452.47,23.55 	"/>
	<rect x="462.05" y="14.36" width="3.34" height="9.19"/>
	<rect x="462.03" y="10.57" width="3.38" height="2.93"/>
	<path d="M470.54,19.35c0-1.55,0.76-2.12,2-2.12c0.64,0,1.13,0.12,1.59,0.39l0.21-3.15c-0.23-0.19-0.72-0.35-1.28-0.35
		c-1.22,0-2.19,0.85-2.52,1.88v-1.63h-3.34v9.19h3.34V19.35z"/>
	<path d="M478.54,23.8c1.38,0,2.39-0.6,2.89-1.63v1.38h3.34v-9.19h-3.34v4.51c0,1.4-0.41,2.31-1.46,2.31
		c-1.01,0-1.36-0.68-1.36-1.92v-4.91h-3.34v5.79C475.26,22.07,476.02,23.8,478.54,23.8z"/>
	<path d="M490.58,21.72c-1.01,0-1.63-0.43-1.75-1.2l-2.91,0.04c0.19,2.23,2.08,3.24,4.62,3.24c2.62,0,4.27-1.11,4.27-3.05
		c0-1.79-1.2-2.72-3.26-3.05l-1.79-0.31c-0.31-0.04-0.56-0.21-0.56-0.52c0-0.41,0.37-0.66,1.01-0.66c1.03,0,1.61,0.41,1.73,1.07
		l2.74-0.08c-0.19-1.92-1.75-3.09-4.41-3.09c-2.58,0-4.16,1.3-4.16,3.11c0,1.88,1.18,2.6,3.4,2.95l1.36,0.21
		c0.64,0.1,0.85,0.35,0.85,0.7C491.71,21.45,491.32,21.72,490.58,21.72z"/>
	<rect x="497.64" y="20.01" width="3.55" height="3.55"/>
	<path d="M509.1,23.8c2.99,0,5.03-1.98,5.03-4.84c0-2.84-2.04-4.84-5.03-4.84c-3.01,0-5.03,2-5.03,4.84
		C504.07,21.82,506.09,23.8,509.1,23.8z M509.1,16.63c1.15,0,1.67,0.95,1.67,2.33c0,1.38-0.52,2.33-1.67,2.33
		c-1.17,0-1.67-0.95-1.67-2.33C507.44,17.58,507.93,16.63,509.1,16.63z"/>
	<path d="M518.79,19.35c0-1.55,0.76-2.12,2-2.12c0.64,0,1.13,0.12,1.59,0.39l0.21-3.15c-0.23-0.19-0.72-0.35-1.28-0.35
		c-1.22,0-2.19,0.85-2.52,1.88v-1.63h-3.34v9.19h3.34V19.35z"/>
	<path d="M522.6,24.85c0,1.73,2.27,2.25,4.89,2.25c2.99,0,5.77-1.05,5.77-3.34c0-1.55-1.05-2.64-3.13-2.64h-3.81
		c-0.56,0-0.78-0.25-0.78-0.56c0-0.19,0.06-0.33,0.19-0.43c0.6,0.19,1.26,0.27,2,0.27c2.6,0,4.47-1.2,4.47-3.13
		c0-0.43-0.1-0.82-0.29-1.17c0.45-0.1,0.95-0.14,1.34-0.14v-2.51c-1.01,0-2.02,0.66-2.58,1.42c-0.78-0.47-1.83-0.74-2.95-0.74
		c-2.58,0-4.43,1.2-4.43,3.15c0,1.01,0.49,1.79,1.32,2.33c-0.99,0.37-1.57,1.05-1.57,1.94c0,0.78,0.49,1.53,1.32,1.79
		C523.33,23.41,522.6,24.05,522.6,24.85z M527.76,15.95c0.56,0,0.97,0.52,0.97,1.32c0,0.82-0.41,1.34-0.97,1.34
		c-0.56,0-0.97-0.52-0.97-1.34C526.79,16.46,527.2,15.95,527.76,15.95z M525.96,23.97h3.38c0.56,0,0.85,0.14,0.85,0.54
		c0,0.56-1.13,0.87-2.68,0.87c-1.24,0-2.16-0.19-2.16-0.84C525.35,24.17,525.59,23.97,525.96,23.97z"/>
	<path d="M311.03,589.49l0.43-2.06h-1.83l0.82-3.42h-2.49l-0.82,3.42h-1.77l0.83-3.42h-2.49l-0.82,3.42h-2.02l-0.43,2.06h1.98
		l-0.49,2.02h-1.88l-0.43,2.06h1.81l-0.8,3.42h2.49l0.8-3.42h1.77l-0.8,3.42h2.49l0.8-3.42h2.04l0.43-2.06h-1.98l0.49-2.02H311.03z
		 M306.17,591.51h-1.77l0.5-2.02h1.77L306.17,591.51z"/>
	<path d="M320.73,586.87c2.02,0,2.8,1.34,3.01,2.78l3.36-0.12c-0.25-3.24-2.37-5.77-6.35-5.77c-3.79,0-6.66,2.74-6.66,6.74
		c0,4,2.87,6.74,6.66,6.74c3.98,0,6.1-2.52,6.35-5.75l-3.36-0.14c-0.21,1.44-0.99,2.78-3.01,2.78c-1.92,0-3.03-1.42-3.03-3.63
		C317.7,588.29,318.81,586.87,320.73,586.87z"/>
	<path d="M331.11,591.82c-2,0.35-3.28,1.11-3.28,2.89c0,1.57,1.18,2.49,2.97,2.49c1.46,0,2.52-0.56,3.05-1.63
		c0.31,1.05,1.2,1.63,2.33,1.63c0.95,0,1.61-0.27,2.08-0.6v-1.77c-0.27,0.1-0.47,0.14-0.74,0.14c-0.35,0-0.56-0.21-0.56-0.68v-3.13
		c0-2.56-1.79-3.61-4.23-3.61c-2.76,0-4.27,1.4-4.56,3.42l3.09,0.21c0.14-0.68,0.52-1.15,1.26-1.15c0.8,0,1.15,0.45,1.15,1.22v0.14
		L331.11,591.82z M333.69,593.16c0,1.2-0.76,1.9-1.71,1.9c-0.56,0-0.93-0.31-0.93-0.78c0-0.6,0.47-0.85,1.28-1.01l1.36-0.25V593.16z
		"/>
	<path d="M339.23,587.8v12.49h3.34v-4.86c0.45,1.07,1.48,1.81,3.03,1.81c2.7,0,4.08-2.12,4.08-4.84c0-2.7-1.38-4.84-4.08-4.84
		c-1.55,0-2.58,0.74-3.03,1.83v-1.59H339.23z M344.43,590.15c1.3,0,1.9,0.93,1.9,2.25c0,1.34-0.6,2.27-1.9,2.27
		c-1.13,0-1.86-0.87-1.86-2.21v-0.12C342.57,591.02,343.29,590.15,344.43,590.15z"/>
	<rect x="351" y="587.8" width="3.34" height="9.19"/>
	<rect x="350.98" y="584.01" width="3.38" height="2.93"/>
	<path d="M359.49,597.24c1.26,0,2.06-0.31,2.76-0.82v-2.16c-0.56,0.23-1.01,0.31-1.42,0.31c-0.68,0-1.05-0.31-1.05-1.09v-3.36h2.39
		v-2.31h-2.39v-2.54h-2.1l-0.31,1.2c-0.23,0.85-0.52,1.34-1.44,1.48l-0.68,0.1v2.06h1.24v4.33
		C356.48,596.6,357.95,597.24,359.49,597.24z"/>
	<path d="M366.27,591.82c-2,0.35-3.28,1.11-3.28,2.89c0,1.57,1.18,2.49,2.97,2.49c1.46,0,2.51-0.56,3.05-1.63
		c0.31,1.05,1.2,1.63,2.33,1.63c0.95,0,1.61-0.27,2.08-0.6v-1.77c-0.27,0.1-0.47,0.14-0.74,0.14c-0.35,0-0.56-0.21-0.56-0.68v-3.13
		c0-2.56-1.79-3.61-4.23-3.61c-2.76,0-4.27,1.4-4.56,3.42l3.09,0.21c0.14-0.68,0.52-1.15,1.26-1.15c0.8,0,1.15,0.45,1.15,1.22v0.14
		L366.27,591.82z M368.85,593.16c0,1.2-0.76,1.9-1.71,1.9c-0.56,0-0.93-0.31-0.93-0.78c0-0.6,0.47-0.85,1.28-1.01l1.36-0.25V593.16z
		"/>
	<rect x="374.39" y="584.01" width="3.34" height="12.99"/>
	<rect x="379.53" y="584.01" width="3.38" height="2.93"/>
	<rect x="379.55" y="587.8" width="3.34" height="9.19"/>
	<path d="M388.7,595.16c-1.01,0-1.63-0.43-1.75-1.2l-2.91,0.04c0.19,2.23,2.08,3.24,4.62,3.24c2.62,0,4.27-1.11,4.27-3.05
		c0-1.79-1.2-2.72-3.26-3.05l-1.79-0.31c-0.31-0.04-0.56-0.21-0.56-0.52c0-0.41,0.37-0.66,1.01-0.66c1.03,0,1.61,0.41,1.73,1.07
		l2.74-0.08c-0.19-1.92-1.75-3.09-4.41-3.09c-2.58,0-4.16,1.3-4.16,3.11c0,1.88,1.18,2.6,3.4,2.95l1.36,0.21
		c0.64,0.1,0.85,0.35,0.85,0.7C389.83,594.89,389.44,595.16,388.7,595.16z"/>
	<path d="M409.68,596.99v-5.77c0-1.92-0.74-3.67-3.28-3.67c-1.55,0-2.64,0.78-3.13,1.81c-0.39-1.07-1.24-1.81-2.87-1.81
		c-1.38,0-2.37,0.62-2.87,1.63v-1.38h-3.34v9.19h3.34v-4.51c0-1.38,0.39-2.29,1.48-2.29c1.01,0,1.26,0.66,1.26,1.92v4.89h3.34v-4.51
		c0-1.38,0.37-2.29,1.48-2.29c1.01,0,1.24,0.66,1.24,1.92v4.89H409.68z"/>
	<rect x="413.27" y="584.01" width="3.5" height="12.99"/>
	<path d="M422.67,595.16c-1.01,0-1.63-0.43-1.75-1.2l-2.91,0.04c0.19,2.23,2.08,3.24,4.62,3.24c2.62,0,4.27-1.11,4.27-3.05
		c0-1.79-1.2-2.72-3.26-3.05l-1.79-0.31c-0.31-0.04-0.56-0.21-0.56-0.52c0-0.41,0.37-0.66,1.01-0.66c1.03,0,1.61,0.41,1.73,1.07
		l2.74-0.08c-0.19-1.92-1.75-3.09-4.41-3.09c-2.58,0-4.16,1.3-4.16,3.11c0,1.88,1.18,2.6,3.4,2.95l1.36,0.21
		c0.64,0.1,0.85,0.35,0.85,0.7C423.8,594.89,423.41,595.16,422.67,595.16z"/>
	<path d="M429.07,596.99h3.52l0.97-2.51h5.07l0.97,2.51h3.73l-5.17-12.99h-3.92L429.07,596.99z M436.05,588.03h0.08l1.48,3.83h-3.05
		L436.05,588.03z"/>
	<polygon points="452.1,592.64 452.01,592.64 448.8,584.01 445.13,584.01 450.12,596.99 453.81,596.99 458.8,584.01 455.31,584.01 	
		"/>
	<rect x="459.7" y="587.8" width="3.34" height="9.19"/>
	<rect x="459.68" y="584.01" width="3.38" height="2.93"/>
	<path d="M464.85,587.8v9.19h3.34v-4.21c0-1.55,0.76-2.12,2-2.12c0.64,0,1.13,0.12,1.59,0.39l0.21-3.15
		c-0.23-0.19-0.72-0.35-1.28-0.35c-1.22,0-2.19,0.85-2.52,1.88v-1.63H464.85z"/>
	<path d="M482.41,596.99v-9.19h-3.34v4.51c0,1.4-0.41,2.31-1.46,2.31c-1.01,0-1.36-0.68-1.36-1.92v-4.91h-3.34v5.79
		c0,1.92,0.76,3.65,3.28,3.65c1.38,0,2.39-0.6,2.89-1.63v1.38H482.41z"/>
	<path d="M488.23,595.16c-1.01,0-1.63-0.43-1.75-1.2l-2.91,0.04c0.19,2.23,2.08,3.24,4.62,3.24c2.62,0,4.27-1.11,4.27-3.05
		c0-1.79-1.2-2.72-3.26-3.05l-1.79-0.31c-0.31-0.04-0.56-0.21-0.56-0.52c0-0.41,0.37-0.66,1.01-0.66c1.03,0,1.61,0.41,1.73,1.07
		l2.74-0.08c-0.19-1.92-1.75-3.09-4.41-3.09c-2.58,0-4.16,1.3-4.16,3.11c0,1.88,1.17,2.6,3.4,2.95l1.36,0.21
		c0.64,0.1,0.85,0.35,0.85,0.7C489.36,594.89,488.97,595.16,488.23,595.16z"/>
</g>
<g id="exp_white_bg" class="st0">
	<g class="st2">
		<polygon class="st5" points="438.43,14.59 438.35,14.59 436.87,18.42 439.92,18.42 		"/>
		<path class="st5" d="M509.1,21.29c1.15,0,1.67-0.95,1.67-2.33c0-1.38-0.52-2.33-1.67-2.33c-1.17,0-1.67,0.95-1.67,2.33
			C507.44,20.34,507.93,21.29,509.1,21.29z"/>
		<path class="st5" d="M527.51,25.37c1.55,0,2.68-0.31,2.68-0.87c0-0.39-0.29-0.54-0.85-0.54h-3.38c-0.37,0-0.62,0.21-0.62,0.56
			C525.35,25.18,526.27,25.37,527.51,25.37z"/>
		<path class="st5" d="M527.76,18.61c0.56,0,0.97-0.52,0.97-1.34c0-0.8-0.41-1.32-0.97-1.32c-0.56,0-0.97,0.52-0.97,1.32
			C526.79,18.09,527.2,18.61,527.76,18.61z"/>
		<path class="st5" d="M688.95,438.14c-9.81,0-14.15,6.04-15.28,13.96h29.61C702.91,444.55,698,438.14,688.95,438.14z"/>
		<path class="st5" d="M237.94,133.31c0-17.66-10.07-27.89-27.12-27.89h-10.38v56.09h10.38
			C227.87,161.51,237.94,151.28,237.94,133.31z"/>
		<ellipse class="st5" cx="68.44" cy="443.23" rx="28.67" ry="33.38"/>
		<path class="st5" d="M365.18,20.83c0,0.47,0.37,0.78,0.93,0.78c0.95,0,1.71-0.7,1.71-1.9v-0.14l-1.36,0.25
			C365.66,19.99,365.18,20.24,365.18,20.83z"/>
		<path class="st5" d="M184.87,272.51c0-8.21-4.49-12.55-16.27-12.55h-15.5v24.95h15.5C180.38,284.91,184.87,280.72,184.87,272.51z"
			/>
		<path class="st5" d="M-1.4,1224h792V0h-792V1224z M578.39,864.46l-52.49-25.8l14.31-29.06c-3.3-2.81-7.28-5.54-12.06-7.9
			c-16.75-8.24-27.03,8.98-28.15,10.97l-3.72,6.63l-2.66-1.29l-26.95,59.2c3.15,2.8,5.95,5.57,8.11,8.24
			c4.7,5.8,4.89,11.48,4.22,15.21c-1.28,7.11-6.61,12.53-11.18,15.23c-0.69,0.41-1.4,0.8-2.13,1.19
			c9.87,6.39,15.82,18.17,14.35,30.4c-0.93,7.82-5.27,15-11.89,19.7c-0.38,0.27-0.78,0.51-1.17,0.76
			c4.64,6.31,6.99,14.31,6.01,22.52c-0.93,7.82-5.27,15-11.89,19.7c-2.9,2.06-6.15,3.56-9.57,4.52c2.04,4.89,2.89,10.33,2.23,15.85
			c-0.93,7.82-5.27,15-11.89,19.71c-3.48,2.47-7.44,4.15-11.62,5.03c1.56,4.43,2.17,9.23,1.59,14.1
			c-0.92,7.79-5.25,14.95-11.88,19.63c-5.31,3.75-11.74,5.71-18.35,5.71c-2.5,0-5.04-0.28-7.54-0.85l-0.02-0.01
			c-7.79-1.8-15.48-3.93-23.06-6.36l-34.32,75.39l-78.45-38.63l37.28-71.99c-16.65-4.95-35.97-10.82-55.6-17.09
			c-4.27-0.12-22.87,1.76-42.5,3.75c-43.8,4.44-110,11.15-170.03,12.69c-4.71,0.11-8.59-3.59-8.71-8.28s3.59-8.59,8.28-8.71
			c0.03,0,0.05,0,0.08,0c59.37-1.52,125.14-8.19,168.67-12.61c40.1-4.07,45.1-4.4,48.66-3.26c19.95,6.37,39.6,12.35,56.46,17.35
			c0.13-5.63,1.89-11.1,5.17-15.65c2.97-4.13,6.75-7.36,10.97-9.61l0.93-1.81c-1.28-2.43-2.24-5.03-2.83-7.73
			c-1.72-7.93-0.07-16.17,4.54-22.59c4.18-5.84,10.12-9.87,16.64-11.85c-0.78-1.8-1.39-3.66-1.81-5.58c-0.17-0.8-0.3-1.6-0.41-2.4
			c-4.33,3.45-9.26,6.93-14.89,10.34c-1.38,0.84-2.9,1.23-4.4,1.23c-2.87,0-5.68-1.46-7.27-4.09c-2.44-4.01-1.16-9.24,2.86-11.68
			c16.43-9.97,25.68-20.21,30.55-27.05c5.23-7.34,6.66-12.43,6.67-12.48l1.66-6.66l6.72,0.31c0.13,0,19.01-0.13,40.69-16.73
			l5.16-3.95l5.17,3.95c0.01,0.01,4.21,3.14,15.94,9.78c13.32,7.54,27.9,4.39,36.34-0.6c1.46-0.86,2.91-2.55,3.1-3.6
			c0.02-0.13,0.1-0.53-0.69-1.5c-5.92-7.31-20.16-17.35-30.55-24.68c-4.6-3.24-8.56-6.04-11.27-8.21
			c-8.17-6.54-12.7-6.93-22.63-7.79l-1.87-0.16c-20.82-1.84-51.09-1.96-68.66,1.37c-11.83,2.25-27.16,13.69-39.48,22.89
			c-9.53,7.11-17.37,12.96-24.18,15.59l0.7,0.9l-6.64,0.49l-1-0.17c-1.06-0.18-107.13-17.64-231.66-20.93
			c-0.12,0-0.24-0.01-0.36-0.01c-4.69-0.12-8.4-4.03-8.27-8.72c0.12-4.69,3.99-8.39,8.72-8.27
			c116.75,3.06,217.55,18.49,232.46,20.86c4.38-1.64,12.67-7.83,20.07-13.35c14.44-10.78,30.8-22.99,46.48-25.97
			c19.98-3.79,52.01-3.49,73.33-1.61l1.84,0.16c2.49,0.21,4.86,0.42,7.18,0.73l26.61-51.38l-3.39-1.67l-0.67-4.07
			c-0.02-0.08-2.68-14.08-17.52-31.36c-25.13-29.27-65.11-45.2-94.23-53.41l-21.04-5.93l19.88-9.09
			c35.21-16.11,62.38-23.03,88.12-22.4c24,0.58,48.1,7.65,80.59,23.64l39.74,19.57c10.03,4.94,16.84,8.29,17,8.37l5.83,2.86
			l-1.58,6.3c-0.35,1.49-3.11,15.4,11.16,22.43c4.71,2.32,9.47,4.12,13.96,5.53l10.85-22.03l52.49,25.8L578.39,864.46z
			 M195.75,416.26c5.09,0,9.62,1.51,11.69,3.21l-1.89,28.86c-4.15-2.45-8.68-3.58-14.52-3.58c-11.32,0-18.29,5.28-18.29,19.43v38.47
			h-30.55v-84.11h30.55v14.9C175.76,423.99,184.62,416.26,195.75,416.26z M373.37,133.46c0,30.06-22.31,50.67-50.67,50.67
			s-50.67-20.61-50.67-50.67c0-30.06,22.31-50.67,50.67-50.67S373.37,103.4,373.37,133.46z M349.97,23.55v-9.19h3.34v9.19H349.97z
			 M380.73,292.96v-54.08h24.17v97.62h-21.07l-42.15-57.8v57.8h-24.17v-97.62h25.1L380.73,292.96z M378.52,23.55v-9.19h3.34v9.19
			H378.52z M405.11,590.19c-1.11,0-1.48,0.91-1.48,2.29v4.51h-3.34v-4.89c0-1.26-0.25-1.92-1.26-1.92c-1.09,0-1.48,0.91-1.48,2.29
			v4.51h-3.34v-9.19h3.34v1.38c0.5-1.01,1.48-1.63,2.87-1.63c1.63,0,2.47,0.74,2.87,1.81c0.49-1.03,1.59-1.81,3.13-1.81
			c2.54,0,3.28,1.75,3.28,3.67v5.77h-3.34v-4.89C406.34,590.85,406.12,590.19,405.11,590.19z M388.99,593.82l-1.36-0.21
			c-2.23-0.35-3.4-1.07-3.4-2.95c0-1.81,1.59-3.11,4.16-3.11c2.66,0,4.23,1.18,4.41,3.09l-2.74,0.08c-0.12-0.66-0.7-1.07-1.73-1.07
			c-0.64,0-1.01,0.25-1.01,0.66c0,0.31,0.25,0.47,0.56,0.52l1.79,0.31c2.06,0.33,3.26,1.26,3.26,3.05c0,1.94-1.65,3.05-4.27,3.05
			c-2.54,0-4.43-1.01-4.62-3.24l2.91-0.04c0.12,0.76,0.74,1.2,1.75,1.2c0.74,0,1.13-0.27,1.13-0.64
			C389.83,594.17,389.63,593.92,388.99,593.82z M384.92,504.52c-10.37,0-18.48-5.28-21.31-14.9c-4.9,9.81-14.52,14.9-27.91,14.9
			c-16.41,0-27.16-8.49-27.16-22.82c0-16.22,11.69-23.2,29.99-26.4l23.57-3.96v-1.32c0-6.98-3.21-11.13-10.56-11.13
			c-6.79,0-10.18,4.34-11.5,10.56l-28.29-1.89c2.64-18.48,16.41-31.31,41.68-31.31c22.25,0,38.66,9.62,38.66,33v28.67
			c0,4.34,1.89,6.22,5.09,6.22c2.45,0,4.34-0.38,6.79-1.32v16.22C399.63,502.07,393.6,504.52,384.92,504.52z M379.53,586.93v-2.93
			h3.38v2.93H379.53z M382.89,587.8v9.19h-3.34v-9.19H382.89z M377.73,584.01v12.99h-3.34v-12.99H377.73z M367.7,590.03
			c-0.74,0-1.11,0.47-1.26,1.15l-3.09-0.21c0.29-2.02,1.79-3.42,4.56-3.42c2.43,0,4.23,1.05,4.23,3.61v3.13
			c0,0.47,0.21,0.68,0.56,0.68c0.27,0,0.47-0.04,0.74-0.14v1.77c-0.47,0.33-1.13,0.6-2.08,0.6c-1.13,0-2.02-0.58-2.33-1.63
			c-0.54,1.07-1.59,1.63-3.05,1.63c-1.79,0-2.97-0.93-2.97-2.49c0-1.77,1.28-2.54,3.28-2.89l2.58-0.43v-0.14
			C368.85,590.48,368.5,590.03,367.7,590.03z M355.25,590.11v-2.06l0.68-0.1c0.93-0.14,1.22-0.64,1.44-1.48l0.31-1.2h2.1v2.54h2.39
			v2.31h-2.39v3.36c0,0.78,0.37,1.09,1.05,1.09c0.41,0,0.87-0.08,1.42-0.31v2.16c-0.7,0.52-1.5,0.82-2.76,0.82
			c-1.55,0-3.01-0.64-3.01-2.8v-4.33H355.25z M350.98,586.93v-2.93h3.38v2.93H350.98z M354.34,587.8v9.19H351v-9.19H354.34z
			 M345.6,587.55c2.7,0,4.08,2.14,4.08,4.84c0,2.72-1.38,4.84-4.08,4.84c-1.55,0-2.58-0.74-3.03-1.81v4.86h-3.34V587.8h3.34v1.59
			C343.03,588.29,344.06,587.55,345.6,587.55z M332.54,590.03c-0.74,0-1.11,0.47-1.26,1.15l-3.09-0.21
			c0.29-2.02,1.79-3.42,4.56-3.42c2.43,0,4.23,1.05,4.23,3.61v3.13c0,0.47,0.21,0.68,0.56,0.68c0.27,0,0.47-0.04,0.74-0.14v1.77
			c-0.47,0.33-1.13,0.6-2.08,0.6c-1.13,0-2.02-0.58-2.33-1.63c-0.54,1.07-1.59,1.63-3.05,1.63c-1.79,0-2.97-0.93-2.97-2.49
			c0-1.77,1.28-2.54,3.28-2.89l2.58-0.43v-0.14C333.69,590.48,333.34,590.03,332.54,590.03z M320.73,594.13
			c2.02,0,2.8-1.34,3.01-2.78l3.36,0.14c-0.25,3.24-2.37,5.75-6.35,5.75c-3.79,0-6.66-2.74-6.66-6.74c0-4,2.87-6.74,6.66-6.74
			c3.98,0,6.1,2.54,6.35,5.77l-3.36,0.12c-0.21-1.44-0.99-2.78-3.01-2.78c-1.92,0-3.03,1.42-3.03,3.63
			C317.7,592.71,318.81,594.13,320.73,594.13z M310.64,591.51l-0.43,2.06h-2.04l-0.8,3.42h-2.49l0.8-3.42h-1.77l-0.8,3.42h-2.49
			l0.8-3.42h-1.81l0.43-2.06h1.88l0.49-2.02h-1.98l0.43-2.06h2.02l0.82-3.42h2.49l-0.83,3.42h1.77l0.82-3.42h2.49l-0.82,3.42h1.83
			l-0.43,2.06h-1.88l-0.49,2.02H310.64z M211.6,484.15c0-8.11,5.28-14.33,14.33-17.73c-7.54-4.9-12.07-12.07-12.07-21.31
			c0-17.92,16.97-28.86,40.55-28.86c10.18,0,19.8,2.45,26.97,6.79c5.09-6.98,14.33-13.01,23.57-13.01v23.01
			c-3.58,0-8.11,0.38-12.26,1.32c1.7,3.21,2.64,6.79,2.64,10.75c0,17.73-17.16,28.67-40.93,28.67c-6.79,0-12.82-0.75-18.29-2.45
			c-1.13,0.94-1.7,2.26-1.7,3.96c0,2.83,2.07,5.09,7.17,5.09h34.89c19.05,0,28.67,10,28.67,24.14c0,20.93-25.46,30.55-52.81,30.55
			c-23.95,0-44.7-4.71-44.7-20.56c0-7.36,6.6-13.2,16.03-13.96C216.12,498.11,211.6,491.32,211.6,484.15z M310.07,336.5h-28.05
			l-7.28-18.9h-38.12l-7.28,18.9h-26.5l38.89-97.62h29.44L310.07,336.5z M443.39,418.52v12.64c4.53-9.24,14.52-14.9,27.16-14.9
			c23.01,0,30.36,16.03,30.36,33.57v52.81h-30.55v-44.7c0-11.5-3.21-17.54-12.45-17.54c-10.37,0-14.52,8.3-14.52,20.93v41.3h-30.55
			v-84.11H443.39z M419.78,336.5v-97.62h26.34v97.62H419.78z M483.38,107.9V84.65h26.19v21.69c0,15.19-8.83,21.54-26.19,22v-11.93
			c7.44-0.31,11.62-2.32,11.78-8.52H483.38z M506.7,237.02c29.91,0,45.87,19.06,47.73,43.39l-25.26,0.93
			c-1.55-10.85-7.44-20.92-22.62-20.92c-14.41,0-22.78,10.69-22.78,27.27c0,16.58,8.37,27.27,22.78,27.27
			c15.19,0,21.07-10.07,22.62-20.92l25.26,1.08c-1.86,24.33-17.82,43.23-47.73,43.23c-28.51,0-50.05-20.61-50.05-50.67
			C456.65,257.63,478.19,237.02,506.7,237.02z M516.38,410.6v-26.78h30.93v26.78H516.38z M547.12,418.52v84.11h-30.55v-84.11H547.12
			z M488.51,593.82l-1.36-0.21c-2.23-0.35-3.4-1.07-3.4-2.95c0-1.81,1.59-3.11,4.16-3.11c2.66,0,4.23,1.18,4.41,3.09l-2.74,0.08
			c-0.12-0.66-0.7-1.07-1.73-1.07c-0.64,0-1.01,0.25-1.01,0.66c0,0.31,0.25,0.47,0.56,0.52l1.79,0.31c2.06,0.33,3.26,1.26,3.26,3.05
			c0,1.94-1.65,3.05-4.27,3.05c-2.54,0-4.43-1.01-4.62-3.24l2.91-0.04c0.12,0.76,0.74,1.2,1.75,1.2c0.74,0,1.13-0.27,1.13-0.64
			C489.36,594.17,489.15,593.92,488.51,593.82z M476.19,597.24c-2.51,0-3.28-1.73-3.28-3.65v-5.79h3.34v4.91
			c0,1.24,0.35,1.92,1.36,1.92c1.05,0,1.46-0.91,1.46-2.31v-4.51h3.34v9.19h-3.34v-1.38C478.58,596.64,477.57,597.24,476.19,597.24z
			 M470.71,587.55c0.56,0,1.05,0.17,1.28,0.35l-0.21,3.15c-0.45-0.27-0.95-0.39-1.59-0.39c-1.24,0-2,0.58-2,2.12v4.21h-3.34v-9.19
			h3.34v1.63C468.52,588.4,469.49,587.55,470.71,587.55z M459.68,586.93v-2.93h3.38v2.93H459.68z M463.04,587.8v9.19h-3.34v-9.19
			H463.04z M458.8,584.01l-4.99,12.99h-3.69l-4.99-12.99h3.67l3.22,8.64h0.08l3.22-8.64H458.8z M443.33,596.99h-3.73l-0.97-2.51
			h-5.07l-0.97,2.51h-3.52l5.17-12.99h3.92L443.33,596.99z M422.96,593.82l-1.36-0.21c-2.23-0.35-3.4-1.07-3.4-2.95
			c0-1.81,1.59-3.11,4.16-3.11c2.66,0,4.23,1.18,4.41,3.09l-2.74,0.08c-0.12-0.66-0.7-1.07-1.73-1.07c-0.64,0-1.01,0.25-1.01,0.66
			c0,0.31,0.25,0.47,0.56,0.52l1.79,0.31c2.06,0.33,3.26,1.26,3.26,3.05c0,1.94-1.65,3.05-4.27,3.05c-2.54,0-4.43-1.01-4.62-3.24
			l2.91-0.04c0.12,0.76,0.74,1.2,1.75,1.2c0.74,0,1.13-0.27,1.13-0.64C423.8,594.17,423.6,593.92,422.96,593.82z M416.78,584.01
			v12.99h-3.5v-12.99H416.78z M635.76,502.64h-75.44V481.7l37.34-41.11h-36.59v-22.07h73.74v20.75l-37.91,41.3h38.85V502.64z
			 M559.54,336.5v-26.65h26.65v26.65H559.54z M769.54,1055.12c0-0.39-0.04-0.89-0.14-1.34c-0.35,0.19-0.74,0.29-1.18,0.29
			c-1.94,0-3.13-1.88-3.13-4.47c0-0.74,0.08-1.4,0.27-2c-0.1-0.12-0.25-0.19-0.43-0.19c-0.31,0-0.56,0.23-0.56,0.78v3.81
			c0,2.08-1.09,3.13-2.64,3.13c-2.29,0-3.34-2.78-3.34-5.77c0-2.62,0.52-4.89,2.25-4.89c0.8,0,1.44,0.72,1.53,1.75
			c0.27-0.82,1.01-1.32,1.79-1.32c0.89,0,1.57,0.58,1.94,1.57c0.54-0.82,1.32-1.32,2.33-1.32c1.96,0,3.15,1.86,3.15,4.43
			c0,1.11-0.27,2.16-0.74,2.95c0.76,0.56,1.42,1.57,1.42,2.58H769.54z M761.72,851.66c0-1.79,0.93-2.97,2.49-2.97
			c1.77,0,2.54,1.28,2.89,3.28l0.43,2.58h0.14c0.76,0,1.22-0.35,1.22-1.15c0-0.74-0.47-1.11-1.15-1.26l0.21-3.09
			c2.02,0.29,3.42,1.79,3.42,4.56c0,2.43-1.05,4.23-3.61,4.23h-3.13c-0.47,0-0.68,0.21-0.68,0.56c0,0.27,0.04,0.47,0.14,0.74h-1.77
			c-0.33-0.47-0.6-1.13-0.6-2.08c0-1.13,0.58-2.02,1.63-2.33C762.28,854.17,761.72,853.12,761.72,851.66z M764.09,894.28h-1.77
			c-0.33-0.47-0.6-1.13-0.6-2.08c0-1.13,0.58-2.02,1.63-2.33c-1.07-0.54-1.63-1.59-1.63-3.05c0-1.79,0.93-2.97,2.49-2.97
			c1.77,0,2.54,1.28,2.89,3.28l0.43,2.58h0.14c0.76,0,1.22-0.35,1.22-1.15c0-0.74-0.47-1.11-1.15-1.26l0.21-3.09
			c2.02,0.29,3.42,1.79,3.42,4.56c0,2.43-1.05,4.23-3.61,4.23h-3.13c-0.47,0-0.68,0.21-0.68,0.56
			C763.95,893.81,763.99,894.01,764.09,894.28z M771.37,927.26c0,2.54-1.75,3.28-3.67,3.28h-5.77v-3.34h4.89
			c1.26,0,1.92-0.23,1.92-1.24c0-1.11-0.91-1.48-2.29-1.48h-4.51v-3.34h4.89c1.26,0,1.92-0.25,1.92-1.26c0-1.09-0.91-1.48-2.29-1.48
			h-4.51v-3.34h9.19v3.34h-1.38c1.01,0.49,1.63,1.48,1.63,2.87c0,1.63-0.74,2.47-1.81,2.87
			C770.59,924.62,771.37,925.71,771.37,927.26z M768.28,913.65l-0.08-2.74c0.66-0.12,1.07-0.7,1.07-1.73c0-0.64-0.25-1.01-0.66-1.01
			c-0.31,0-0.47,0.25-0.52,0.56l-0.31,1.79c-0.33,2.06-1.26,3.26-3.05,3.26c-1.94,0-3.05-1.65-3.05-4.27c0-2.54,1.01-4.43,3.24-4.62
			l0.04,2.91c-0.76,0.12-1.2,0.74-1.2,1.75c0,0.74,0.27,1.13,0.64,1.13c0.35,0,0.6-0.21,0.7-0.85l0.21-1.36
			c0.35-2.23,1.07-3.4,2.95-3.4c1.81,0,3.11,1.59,3.11,4.16C771.37,911.9,770.2,913.47,768.28,913.65z M764.4,946.32
			c0.35,0,0.6-0.21,0.7-0.85l0.21-1.36c0.35-2.23,1.07-3.4,2.95-3.4c1.81,0,3.11,1.59,3.11,4.16c0,2.66-1.17,4.23-3.09,4.41
			l-0.08-2.74c0.66-0.12,1.07-0.7,1.07-1.73c0-0.64-0.25-1.01-0.66-1.01c-0.31,0-0.47,0.25-0.52,0.56l-0.31,1.79
			c-0.33,2.06-1.26,3.26-3.05,3.26c-1.94,0-3.05-1.65-3.05-4.27c0-2.54,1.01-4.43,3.24-4.62l0.04,2.91c-0.76,0.12-1.2,0.74-1.2,1.75
			C763.76,945.93,764.03,946.32,764.4,946.32z M766.13,1040.67h-4.21v-3.34h9.19v3.34h-1.63c1.03,0.33,1.88,1.3,1.88,2.51
			c0,0.56-0.17,1.05-0.35,1.28l-3.15-0.21c0.27-0.45,0.39-0.95,0.39-1.59C768.26,1041.44,767.68,1040.67,766.13,1040.67z
			 M766.53,1036.02c-2.87,0-4.84-2.04-4.84-5.03c0-3.01,1.98-5.03,4.84-5.03c2.84,0,4.84,2.02,4.84,5.03
			C771.37,1033.98,769.37,1036.02,766.53,1036.02z M761.93,1023.07v-3.55h3.55v3.55H761.93z M768.28,1016.56l-0.08-2.74
			c0.66-0.12,1.07-0.7,1.07-1.73c0-0.64-0.25-1.01-0.66-1.01c-0.31,0-0.47,0.25-0.52,0.56l-0.31,1.79
			c-0.33,2.06-1.26,3.26-3.05,3.26c-1.94,0-3.05-1.65-3.05-4.27c0-2.54,1.01-4.43,3.24-4.62l0.04,2.91c-0.76,0.12-1.2,0.74-1.2,1.75
			c0,0.74,0.27,1.13,0.64,1.13c0.35,0,0.6-0.21,0.7-0.85l0.21-1.36c0.35-2.23,1.07-3.4,2.95-3.4c1.81,0,3.11,1.59,3.11,4.16
			C771.37,1014.81,770.2,1016.37,768.28,1016.56z M766.61,1003.31h4.51v3.34h-9.19v-3.34h1.38c-1.03-0.49-1.63-1.5-1.63-2.89
			c0-2.51,1.73-3.28,3.65-3.28h5.79v3.34h-4.91c-1.24,0-1.92,0.35-1.92,1.36C764.3,1002.89,765.21,1003.31,766.61,1003.31z
			 M771.02,996.22l-3.15-0.21c0.27-0.45,0.39-0.95,0.39-1.59c0-1.24-0.58-2-2.12-2h-4.21v-3.34h9.19v3.34h-1.63
			c1.03,0.33,1.88,1.3,1.88,2.52C771.37,995.5,771.21,995.99,771.02,996.22z M771.12,987.27h-9.19v-3.34h9.19V987.27z
			 M771.12,903.74h-9.19v-3.34h9.19V903.74z M771.12,880.63v2.39h-2.31v-2.39h-3.36c-0.78,0-1.09,0.37-1.09,1.05
			c0,0.41,0.08,0.87,0.31,1.42h-2.16c-0.52-0.7-0.82-1.5-0.82-2.76c0-1.55,0.64-3.01,2.8-3.01h4.33v-1.24h2.06l0.1,0.68
			c0.14,0.93,0.64,1.22,1.48,1.44l1.2,0.31v2.1H771.12z M761.93,875.19v-3.34h9.19v3.34H761.93z M771.12,860.08v3.34h-1.59
			c1.09,0.45,1.83,1.48,1.83,3.03c0,2.7-2.14,4.08-4.84,4.08c-2.72,0-4.84-1.38-4.84-4.08c0-1.55,0.74-2.58,1.81-3.03h-4.86v-3.34
			H771.12z M774.92,987.29h-2.93v-3.38h2.93V987.29z M774.92,973.03l-8.64,3.22v0.08l8.64,3.22v3.48l-12.99-4.99v-3.69l12.99-4.99
			V973.03z M774.92,962.33l-12.99,5.17v-3.73l2.51-0.97v-5.07l-2.51-0.97v-3.53l12.99,5.17V962.33z M774.92,939.29h-12.99v-3.5
			h12.99V939.29z M774.92,903.76h-2.93v-3.38h2.93V903.76z M774.92,898.59h-12.99v-3.34h12.99V898.59z M774.92,875.21h-2.93v-3.38
			h2.93V875.21z M769.39,847.95l-0.12-3.36c1.44-0.21,2.78-0.99,2.78-3.01c0-1.92-1.42-3.03-3.63-3.03s-3.63,1.11-3.63,3.03
			c0,2.02,1.34,2.8,2.78,3.01l-0.14,3.36c-3.24-0.25-5.75-2.37-5.75-6.35c0-3.79,2.74-6.66,6.74-6.66s6.74,2.87,6.74,6.66
			C775.16,845.58,772.63,847.7,769.39,847.95z M761.93,817.13v-3.28l9.06-2.86l-9.06-2.86v-3.28l5.19-1.34v-0.08l-5.19-1.34v-3.28
			l9.06-2.86l-9.06-2.86v-3.28l5.19-1.34v-0.08l-5.19-1.34v-3.28l9.19-2.91v3.32l-5.22,1.65v0.08l5.22,1.34v2.66l-5.22,1.34v0.08
			l5.22,1.65v2.92v0.09v3.23l-5.22,1.65v0.08l5.22,1.34v2.66l-5.22,1.34v0.08l5.22,1.65v2.92v0.09v3.23l-5.22,1.65V816l5.22,1.34
			V820l-5.22,1.34v0.08l5.22,1.65v3.01l-9.19-2.91v-3.28l5.19-1.34v-0.08L761.93,817.13z M765.47,828.51v3.55h-3.55v-3.55H765.47z
			 M742.14,383.82h32.44v30.55l-6.41,48.66h-19.61l-6.41-48.66V383.82z M742.14,470.2h32.44v32.44h-32.44V470.2z M732.33,458.32
			v8.49H673.3c0.75,10.37,8.3,15.28,17.54,15.28c8.3,0,13.58-2.83,16.41-9.43l24.52,2.26c-4.34,19.24-19.8,29.99-42.06,29.99
			c-26.97,0-46.21-16.22-46.21-43c0-26.59,19.61-45.64,45.83-45.64C717.43,416.26,732.33,435.5,732.33,458.32z M631.44,309.85h26.65
			v26.65h-26.65V309.85z M622.14,336.5h-26.65v-26.65h26.65V336.5z M611.68,106.35h-33.93v75.93h-26.19v-75.93h-33.47V84.65h93.59
			V106.35z M523.04,21.53c0-0.89,0.58-1.57,1.57-1.94c-0.82-0.54-1.32-1.32-1.32-2.33c0-1.96,1.86-3.15,4.43-3.15
			c1.11,0,2.16,0.27,2.95,0.74c0.56-0.76,1.57-1.42,2.58-1.42v2.51c-0.39,0-0.89,0.04-1.34,0.14c0.19,0.35,0.29,0.74,0.29,1.17
			c0,1.94-1.88,3.13-4.47,3.13c-0.74,0-1.4-0.08-2-0.27c-0.12,0.1-0.19,0.25-0.19,0.43c0,0.31,0.23,0.56,0.78,0.56h3.81
			c2.08,0,3.13,1.09,3.13,2.64c0,2.29-2.78,3.34-5.77,3.34c-2.62,0-4.89-0.52-4.89-2.25c0-0.8,0.72-1.44,1.75-1.53
			C523.53,23.06,523.04,22.32,523.04,21.53z M515.45,14.36h3.34v1.63c0.33-1.03,1.3-1.88,2.52-1.88c0.56,0,1.05,0.16,1.28,0.35
			l-0.21,3.15c-0.45-0.27-0.95-0.39-1.59-0.39c-1.24,0-2,0.58-2,2.12v4.21h-3.34V14.36z M509.1,14.11c2.99,0,5.03,2,5.03,4.84
			c0,2.87-2.04,4.84-5.03,4.84c-3.01,0-5.03-1.98-5.03-4.84C504.07,16.11,506.09,14.11,509.1,14.11z M497.64,20.01h3.55v3.55h-3.55
			V20.01z M490.86,20.38l-1.36-0.21c-2.23-0.35-3.4-1.07-3.4-2.95c0-1.81,1.59-3.11,4.16-3.11c2.66,0,4.23,1.18,4.41,3.09
			l-2.74,0.08c-0.12-0.66-0.7-1.07-1.73-1.07c-0.64,0-1.01,0.25-1.01,0.66c0,0.31,0.25,0.47,0.56,0.52l1.79,0.31
			c2.06,0.33,3.26,1.26,3.26,3.05c0,1.94-1.65,3.05-4.27,3.05c-2.54,0-4.43-1.01-4.62-3.24l2.91-0.04c0.12,0.76,0.74,1.2,1.75,1.2
			c0.74,0,1.13-0.27,1.13-0.64C491.71,20.73,491.5,20.48,490.86,20.38z M475.26,14.36h3.34v4.91c0,1.24,0.35,1.92,1.36,1.92
			c1.05,0,1.46-0.91,1.46-2.31v-4.51h3.34v9.19h-3.34v-1.38c-0.49,1.03-1.5,1.63-2.89,1.63c-2.52,0-3.28-1.73-3.28-3.65V14.36z
			 M467.2,14.36h3.34v1.63c0.33-1.03,1.3-1.88,2.52-1.88c0.56,0,1.05,0.16,1.28,0.35l-0.21,3.15c-0.45-0.27-0.95-0.39-1.59-0.39
			c-1.24,0-2,0.58-2,2.12v4.21h-3.34V14.36z M462.03,10.57h3.38v2.93h-3.38V10.57z M465.39,14.36v9.19h-3.34v-9.19H465.39z
			 M451.15,10.57l3.22,8.64h0.08l3.22-8.64h3.48l-4.99,12.99h-3.69l-4.99-12.99H451.15z M436.54,10.57h3.92l5.17,12.99h-3.73
			l-0.97-2.52h-5.07l-0.97,2.52h-3.52L436.54,10.57z M423.59,20.38l-1.36-0.21c-2.23-0.35-3.4-1.07-3.4-2.95
			c0-1.81,1.59-3.11,4.16-3.11c2.66,0,4.23,1.18,4.41,3.09l-2.74,0.08c-0.12-0.66-0.7-1.07-1.73-1.07c-0.64,0-1.01,0.25-1.01,0.66
			c0,0.31,0.25,0.47,0.56,0.52l1.79,0.31c2.06,0.33,3.26,1.26,3.26,3.05c0,1.94-1.65,3.05-4.27,3.05c-2.54,0-4.43-1.01-4.62-3.24
			l2.91-0.04c0.12,0.76,0.74,1.2,1.75,1.2c0.74,0,1.13-0.27,1.13-0.64C424.44,20.73,424.23,20.48,423.59,20.38z M413.91,10.57h3.5
			v12.99h-3.5V10.57z M447.12,138.73V84.65h24.17v97.62h-21.07l-42.15-57.8v57.8H383.9V84.65h25.1L447.12,138.73z M393.17,14.36
			h3.34v1.38c0.49-1.01,1.48-1.63,2.87-1.63c1.63,0,2.47,0.74,2.87,1.81c0.49-1.03,1.59-1.81,3.13-1.81c2.54,0,3.28,1.75,3.28,3.67
			v5.77h-3.34v-4.89c0-1.26-0.23-1.92-1.24-1.92c-1.11,0-1.48,0.91-1.48,2.29v4.51h-3.34v-4.89c0-1.26-0.25-1.92-1.26-1.92
			c-1.09,0-1.48,0.91-1.48,2.29v4.51h-3.34V14.36z M387.96,20.38l-1.36-0.21c-2.23-0.35-3.4-1.07-3.4-2.95
			c0-1.81,1.59-3.11,4.16-3.11c2.66,0,4.23,1.18,4.41,3.09l-2.74,0.08c-0.12-0.66-0.7-1.07-1.73-1.07c-0.64,0-1.01,0.25-1.01,0.66
			c0,0.31,0.25,0.47,0.56,0.52l1.79,0.31c2.06,0.33,3.26,1.26,3.26,3.05c0,1.94-1.65,3.05-4.27,3.05c-2.54,0-4.43-1.01-4.62-3.24
			l2.91-0.04c0.12,0.76,0.74,1.2,1.75,1.2c0.74,0,1.13-0.27,1.13-0.64C388.8,20.73,388.6,20.48,387.96,20.38z M378.5,10.57h3.38
			v2.93h-3.38V10.57z M373.37,10.57h3.34v12.99h-3.34V10.57z M366.67,16.59c-0.74,0-1.11,0.47-1.26,1.15l-3.09-0.21
			c0.29-2.02,1.79-3.42,4.56-3.42c2.43,0,4.23,1.05,4.23,3.61v3.13c0,0.47,0.21,0.68,0.56,0.68c0.27,0,0.47-0.04,0.74-0.14v1.77
			c-0.47,0.33-1.13,0.6-2.08,0.6c-1.13,0-2.02-0.58-2.33-1.63c-0.54,1.07-1.59,1.63-3.05,1.63c-1.79,0-2.97-0.93-2.97-2.49
			c0-1.77,1.28-2.54,3.28-2.89l2.58-0.43V17.8C367.82,17.04,367.47,16.59,366.67,16.59z M354.22,14.61l0.68-0.1
			c0.93-0.14,1.22-0.64,1.44-1.48l0.31-1.2h2.1v2.54h2.39v2.31h-2.39v3.36c0,0.78,0.37,1.09,1.05,1.09c0.41,0,0.87-0.08,1.42-0.31
			v2.16c-0.7,0.52-1.5,0.82-2.76,0.82c-1.55,0-3.01-0.64-3.01-2.8v-4.33h-1.24V14.61z M349.95,10.57h3.38v2.93h-3.38V10.57z
			 M338.2,14.36h3.34v1.59c0.45-1.09,1.48-1.83,3.03-1.83c2.7,0,4.08,2.14,4.08,4.84c0,2.72-1.38,4.84-4.08,4.84
			c-1.55,0-2.58-0.74-3.03-1.81v4.87h-3.34V14.36z M331.51,16.59c-0.74,0-1.11,0.47-1.26,1.15l-3.09-0.21
			c0.29-2.02,1.79-3.42,4.56-3.42c2.43,0,4.23,1.05,4.23,3.61v3.13c0,0.47,0.21,0.68,0.56,0.68c0.27,0,0.47-0.04,0.74-0.14v1.77
			c-0.47,0.33-1.13,0.6-2.08,0.6c-1.13,0-2.02-0.58-2.33-1.63c-0.54,1.07-1.59,1.63-3.05,1.63c-1.79,0-2.97-0.93-2.97-2.49
			c0-1.77,1.28-2.54,3.28-2.89l2.58-0.43V17.8C332.66,17.04,332.31,16.59,331.51,16.59z M319.72,10.32c3.98,0,6.1,2.54,6.35,5.77
			l-3.36,0.12c-0.21-1.44-0.99-2.78-3.01-2.78c-1.92,0-3.03,1.42-3.03,3.63s1.11,3.63,3.03,3.63c2.02,0,2.8-1.34,3.01-2.78
			l3.36,0.14c-0.25,3.24-2.37,5.75-6.35,5.75c-3.79,0-6.66-2.74-6.66-6.74S315.92,10.32,319.72,10.32z M306.63,20.01h3.55v3.55
			h-3.55V20.01z M262.3,14.36l1.65,5.22h0.08l1.34-5.22h2.66l1.34,5.22h0.08l1.65-5.22h2.92h0.09h3.23l1.65,5.22h0.08l1.34-5.22
			h2.66l1.34,5.22h0.08l1.65-5.22h2.92h0.09h3.23l1.65,5.22h0.08l1.34-5.22h2.66l1.34,5.22h0.08l1.65-5.22h3.01l-2.91,9.19h-3.28
			l-1.34-5.19h-0.08l-1.34,5.19h-3.28l-2.86-9.06l-2.86,9.06h-3.28l-1.34-5.19h-0.08l-1.34,5.19h-3.28l-2.86-9.06l-2.86,9.06h-3.28
			l-1.34-5.19h-0.08l-1.34,5.19h-3.28l-2.91-9.19H262.3z M174.1,84.65h38.58c32.39,0,52.37,18.28,52.37,48.81
			c0,30.53-19.99,48.81-52.37,48.81H174.1V84.65z M126.92,238.88h42.92c25.57,0,40.44,11.93,40.44,33.47
			c0,21.69-14.88,33.62-40.44,33.62h-16.73v30.53h-26.19V238.88z M68.44,381.56c34.51,0,61.67,25.08,61.67,61.67
			c0,36.59-27.16,61.67-61.67,61.67S6.77,479.82,6.77,443.23C6.77,406.64,33.93,381.56,68.44,381.56z"/>
		<path class="st5" d="M343.4,21.22c1.3,0,1.9-0.93,1.9-2.27c0-1.32-0.6-2.25-1.9-2.25c-1.13,0-1.86,0.87-1.86,2.19v0.12
			C341.54,20.36,342.27,21.22,343.4,21.22z"/>
		<path class="st5" d="M330.02,20.83c0,0.47,0.37,0.78,0.93,0.78c0.95,0,1.71-0.7,1.71-1.9v-0.14l-1.36,0.25
			C330.5,19.99,330.02,20.24,330.02,20.83z"/>
		<polygon class="st5" points="436.14,588.03 436.05,588.03 434.57,591.86 437.62,591.86 		"/>
		<path class="st5" d="M342.57,592.46c0,1.34,0.72,2.21,1.86,2.21c1.3,0,1.9-0.93,1.9-2.27c0-1.32-0.6-2.25-1.9-2.25
			c-1.13,0-1.86,0.87-1.86,2.19V592.46z"/>
		<path class="st5" d="M366.21,594.27c0,0.47,0.37,0.78,0.93,0.78c0.95,0,1.71-0.7,1.71-1.9v-0.14l-1.36,0.25
			C366.69,593.43,366.21,593.67,366.21,594.27z"/>
		<path class="st5" d="M331.05,594.27c0,0.47,0.37,0.78,0.93,0.78c0.95,0,1.71-0.7,1.71-1.9v-0.14l-1.36,0.25
			C331.53,593.43,331.05,593.67,331.05,594.27z"/>
		<polygon class="st5" points="304.4,591.51 306.17,591.51 306.66,589.49 304.89,589.49 		"/>
		<path class="st5" d="M299.15,133.46c0,16.58,9.14,27.43,23.55,27.43s23.55-10.85,23.55-27.43c0-16.58-9.14-27.43-23.55-27.43
			S299.15,116.88,299.15,133.46z"/>
		<path class="st5" d="M337.96,477.74c0,4.34,3.4,7.17,8.49,7.17c8.68,0,15.65-6.41,15.65-17.35v-1.32l-12.45,2.26
			C342.3,470.01,337.96,472.27,337.96,477.74z"/>
		<polygon class="st5" points="255.38,269.1 244.22,297.92 267.15,297.92 256,269.1 		"/>
		<path class="st5" d="M254.79,457.37c5.09,0,8.86-4.71,8.86-12.26c0-7.36-3.77-12.07-8.86-12.07c-5.09,0-8.86,4.71-8.86,12.07
			C245.92,452.66,249.69,457.37,254.79,457.37z"/>
		<path class="st5" d="M252.52,519.23c14.14,0,24.52-2.83,24.52-7.92c0-3.58-2.64-4.9-7.73-4.9h-30.93c-3.4,0-5.66,1.89-5.66,5.09
			C232.72,517.54,241.21,519.23,252.52,519.23z"/>
		<path d="M265.06,133.46c0-30.53-19.99-48.81-52.37-48.81H174.1v97.62h38.58C245.07,182.27,265.06,163.99,265.06,133.46z
			 M200.44,161.51v-56.09h10.38c17.04,0,27.12,10.23,27.12,27.89c0,17.97-10.07,28.2-27.12,28.2H200.44z"/>
		<path d="M272.03,133.46c0,30.06,22.31,50.67,50.67,50.67s50.67-20.61,50.67-50.67c0-30.06-22.31-50.67-50.67-50.67
			S272.03,103.4,272.03,133.46z M346.25,133.46c0,16.58-9.14,27.43-23.55,27.43s-23.55-10.85-23.55-27.43
			c0-16.58,9.14-27.43,23.55-27.43S346.25,116.88,346.25,133.46z"/>
		<polygon points="383.9,182.27 408.08,182.27 408.08,124.48 450.22,182.27 471.3,182.27 471.3,84.65 447.12,84.65 447.12,138.73 
			409.01,84.65 383.9,84.65 		"/>
		<path d="M483.38,116.42v11.93c17.35-0.46,26.19-6.82,26.19-22V84.65h-26.19v23.24h11.78C495,114.09,490.82,116.11,483.38,116.42z"
			/>
		<polygon points="518.09,106.35 551.56,106.35 551.56,182.27 577.75,182.27 577.75,106.35 611.68,106.35 611.68,84.65 
			518.09,84.65 		"/>
		<path d="M153.11,305.98h16.73c25.57,0,40.44-11.93,40.44-33.62c0-21.54-14.88-33.47-40.44-33.47h-42.92v97.62h26.19V305.98z
			 M153.11,259.96h15.5c11.78,0,16.27,4.34,16.27,12.55s-4.49,12.4-16.27,12.4h-15.5V259.96z"/>
		<path d="M241.74,238.88l-38.89,97.62h26.5l7.28-18.9h38.12l7.28,18.9h28.05l-38.89-97.62H241.74z M244.22,297.92l11.16-28.82H256
			l11.16,28.82H244.22z"/>
		<polygon points="317.51,238.88 317.51,336.5 341.68,336.5 341.68,278.71 383.83,336.5 404.9,336.5 404.9,238.88 380.73,238.88 
			380.73,292.96 342.61,238.88 		"/>
		<rect x="419.78" y="238.88" width="26.34" height="97.62"/>
		<path d="M456.65,287.69c0,30.06,21.54,50.67,50.05,50.67c29.91,0,45.87-18.9,47.73-43.23l-25.26-1.08
			c-1.55,10.85-7.44,20.92-22.62,20.92c-14.41,0-22.78-10.69-22.78-27.27c0-16.58,8.37-27.27,22.78-27.27
			c15.19,0,21.07,10.07,22.62,20.92l25.26-0.93c-1.86-24.33-17.82-43.39-47.73-43.39C478.19,237.02,456.65,257.63,456.65,287.69z"/>
		<rect x="559.54" y="309.85" width="26.65" height="26.65"/>
		<rect x="595.49" y="309.85" width="26.65" height="26.65"/>
		<rect x="631.44" y="309.85" width="26.65" height="26.65"/>
		<path d="M68.44,504.9c34.51,0,61.67-25.08,61.67-61.67c0-36.59-27.16-61.67-61.67-61.67S6.77,406.64,6.77,443.23
			C6.77,479.82,33.93,504.9,68.44,504.9z M68.44,409.85c17.54,0,28.67,13.2,28.67,33.38c0,20.18-11.13,33.38-28.67,33.38
			c-17.54,0-28.67-13.2-28.67-33.38C39.78,423.05,50.9,409.85,68.44,409.85z"/>
		<path d="M142.19,418.52v84.11h30.55v-38.47c0-14.15,6.98-19.43,18.29-19.43c5.85,0,10.37,1.13,14.52,3.58l1.89-28.86
			c-2.07-1.7-6.6-3.21-11.69-3.21c-11.13,0-19.99,7.73-23.01,17.16v-14.9H142.19z"/>
		<path d="M207.64,514.52c0,15.84,20.75,20.56,44.7,20.56c27.35,0,52.81-9.62,52.81-30.55c0-14.15-9.62-24.14-28.67-24.14h-34.89
			c-5.09,0-7.17-2.26-7.17-5.09c0-1.7,0.57-3.02,1.7-3.96c5.47,1.7,11.5,2.45,18.29,2.45c23.76,0,40.93-10.94,40.93-28.67
			c0-3.96-0.94-7.54-2.64-10.75c4.15-0.94,8.68-1.32,12.26-1.32v-23.01c-9.24,0-18.48,6.04-23.57,13.01
			c-7.17-4.34-16.79-6.79-26.97-6.79c-23.57,0-40.55,10.94-40.55,28.86c0,9.24,4.53,16.41,12.07,21.31
			c-9.05,3.4-14.33,9.62-14.33,17.73c0,7.17,4.53,13.96,12.07,16.41C214.24,501.32,207.64,507.16,207.64,514.52z M254.79,433.04
			c5.09,0,8.86,4.71,8.86,12.07c0,7.54-3.77,12.26-8.86,12.26c-5.09,0-8.86-4.71-8.86-12.26
			C245.92,437.76,249.69,433.04,254.79,433.04z M238.38,506.41h30.93c5.09,0,7.73,1.32,7.73,4.9c0,5.09-10.37,7.92-24.52,7.92
			c-11.32,0-19.8-1.7-19.8-7.73C232.72,508.29,234.98,506.41,238.38,506.41z"/>
		<path d="M403.97,482.83c-2.45,0.94-4.34,1.32-6.79,1.32c-3.21,0-5.09-1.89-5.09-6.22v-28.67c0-23.39-16.41-33-38.66-33
			c-25.27,0-39.04,12.83-41.68,31.31l28.29,1.89c1.32-6.22,4.72-10.56,11.5-10.56c7.36,0,10.56,4.15,10.56,11.13v1.32l-23.57,3.96
			c-18.29,3.21-29.99,10.18-29.99,26.4c0,14.33,10.75,22.82,27.16,22.82c13.39,0,23.01-5.09,27.91-14.9
			c2.83,9.62,10.94,14.9,21.31,14.9c8.68,0,14.71-2.45,19.05-5.47V482.83z M362.1,467.56c0,10.94-6.98,17.35-15.65,17.35
			c-5.09,0-8.49-2.83-8.49-7.17c0-5.47,4.34-7.73,11.69-9.24l12.45-2.26V467.56z"/>
		<path d="M412.84,502.64h30.55v-41.3c0-12.64,4.15-20.93,14.52-20.93c9.24,0,12.45,6.04,12.45,17.54v44.7h30.55v-52.81
			c0-17.54-7.36-33.57-30.36-33.57c-12.64,0-22.63,5.66-27.16,14.9v-12.64h-30.55V502.64z"/>
		<rect x="516.57" y="418.52" width="30.55" height="84.11"/>
		<rect x="516.38" y="383.82" width="30.93" height="26.78"/>
		<polygon points="634.82,439.27 634.82,418.52 561.08,418.52 561.08,440.59 597.67,440.59 560.32,481.7 560.32,502.64 
			635.76,502.64 635.76,480.57 596.91,480.57 		"/>
		<path d="M643.5,461.9c0,26.78,19.24,43,46.21,43c22.25,0,37.72-10.75,42.06-29.99l-24.52-2.26c-2.83,6.6-8.11,9.43-16.41,9.43
			c-9.24,0-16.79-4.9-17.54-15.28h59.03v-8.49c0-22.82-14.9-42.06-43-42.06C663.11,416.26,643.5,435.31,643.5,461.9z M688.95,438.14
			c9.05,0,13.96,6.41,14.33,13.96h-29.61C674.81,444.17,679.14,438.14,688.95,438.14z"/>
		<polygon points="768.16,463.03 774.58,414.37 774.58,383.82 742.14,383.82 742.14,414.37 748.55,463.03 		"/>
		<rect x="742.14" y="470.2" width="32.44" height="32.44"/>
		<polygon points="265.16,23.55 266.5,18.36 266.58,18.36 267.92,23.55 271.2,23.55 274.07,14.5 276.93,23.55 280.21,23.55 
			281.55,18.36 281.63,18.36 282.97,23.55 286.25,23.55 289.11,14.5 291.98,23.55 295.25,23.55 296.59,18.36 296.68,18.36 
			298.02,23.55 301.29,23.55 304.2,14.36 301.19,14.36 299.54,19.58 299.46,19.58 298.12,14.36 295.46,14.36 294.12,19.58 
			294.04,19.58 292.39,14.36 289.15,14.36 289.07,14.36 286.15,14.36 284.5,19.58 284.41,19.58 283.07,14.36 280.41,14.36 
			279.07,19.58 278.99,19.58 277.34,14.36 274.11,14.36 274.02,14.36 271.1,14.36 269.45,19.58 269.37,19.58 268.03,14.36 
			265.37,14.36 264.03,19.58 263.95,19.58 262.3,14.36 258.98,14.36 261.88,23.55 		"/>
		<rect x="306.63" y="20.01" width="3.55" height="3.55"/>
		<path d="M319.72,23.8c3.98,0,6.1-2.52,6.35-5.75l-3.36-0.14c-0.21,1.44-0.99,2.78-3.01,2.78c-1.92,0-3.03-1.42-3.03-3.63
			s1.11-3.63,3.03-3.63c2.02,0,2.8,1.34,3.01,2.78l3.36-0.12c-0.25-3.24-2.37-5.77-6.35-5.77c-3.79,0-6.66,2.74-6.66,6.74
			S315.92,23.8,319.72,23.8z"/>
		<path d="M330.08,18.38c-2,0.35-3.28,1.11-3.28,2.89c0,1.57,1.17,2.49,2.97,2.49c1.46,0,2.52-0.56,3.05-1.63
			c0.31,1.05,1.2,1.63,2.33,1.63c0.95,0,1.61-0.27,2.08-0.6v-1.77c-0.27,0.1-0.47,0.14-0.74,0.14c-0.35,0-0.56-0.21-0.56-0.68v-3.13
			c0-2.56-1.79-3.61-4.23-3.61c-2.76,0-4.27,1.4-4.56,3.42l3.09,0.21c0.14-0.68,0.52-1.15,1.26-1.15c0.8,0,1.15,0.45,1.15,1.22v0.14
			L330.08,18.38z M332.66,19.72c0,1.2-0.76,1.9-1.71,1.9c-0.56,0-0.93-0.31-0.93-0.78c0-0.6,0.47-0.85,1.28-1.01l1.36-0.25V19.72z"
			/>
		<path d="M341.54,21.99c0.45,1.07,1.48,1.81,3.03,1.81c2.7,0,4.08-2.12,4.08-4.84c0-2.7-1.38-4.84-4.08-4.84
			c-1.55,0-2.58,0.74-3.03,1.83v-1.59h-3.34v12.49h3.34V21.99z M341.54,18.9c0-1.32,0.72-2.19,1.86-2.19c1.3,0,1.9,0.93,1.9,2.25
			c0,1.34-0.6,2.27-1.9,2.27c-1.13,0-1.86-0.87-1.86-2.21V18.9z"/>
		<rect x="349.97" y="14.36" width="3.34" height="9.19"/>
		<rect x="349.95" y="10.57" width="3.38" height="2.93"/>
		<path d="M355.46,21c0,2.16,1.46,2.8,3.01,2.8c1.26,0,2.06-0.31,2.76-0.82v-2.16c-0.56,0.23-1.01,0.31-1.42,0.31
			c-0.68,0-1.05-0.31-1.05-1.09v-3.36h2.39v-2.31h-2.39v-2.54h-2.1l-0.31,1.2c-0.23,0.85-0.52,1.34-1.44,1.48l-0.68,0.1v2.06h1.24
			V21z"/>
		<path d="M365.25,18.38c-2,0.35-3.28,1.11-3.28,2.89c0,1.57,1.17,2.49,2.97,2.49c1.46,0,2.52-0.56,3.05-1.63
			c0.31,1.05,1.2,1.63,2.33,1.63c0.95,0,1.61-0.27,2.08-0.6v-1.77c-0.27,0.1-0.47,0.14-0.74,0.14c-0.35,0-0.56-0.21-0.56-0.68v-3.13
			c0-2.56-1.79-3.61-4.23-3.61c-2.76,0-4.27,1.4-4.56,3.42l3.09,0.21c0.14-0.68,0.52-1.15,1.26-1.15c0.8,0,1.15,0.45,1.15,1.22v0.14
			L365.25,18.38z M367.82,19.72c0,1.2-0.76,1.9-1.71,1.9c-0.56,0-0.93-0.31-0.93-0.78c0-0.6,0.47-0.85,1.28-1.01l1.36-0.25V19.72z"
			/>
		<rect x="373.37" y="10.57" width="3.34" height="12.99"/>
		<rect x="378.5" y="10.57" width="3.38" height="2.93"/>
		<rect x="378.52" y="14.36" width="3.34" height="9.19"/>
		<path d="M387.67,21.72c-1.01,0-1.63-0.43-1.75-1.2l-2.91,0.04c0.19,2.23,2.08,3.24,4.62,3.24c2.62,0,4.27-1.11,4.27-3.05
			c0-1.79-1.2-2.72-3.26-3.05l-1.79-0.31c-0.31-0.04-0.56-0.21-0.56-0.52c0-0.41,0.37-0.66,1.01-0.66c1.03,0,1.61,0.41,1.73,1.07
			l2.74-0.08c-0.19-1.92-1.75-3.09-4.41-3.09c-2.58,0-4.16,1.3-4.16,3.11c0,1.88,1.17,2.6,3.4,2.95l1.36,0.21
			c0.64,0.1,0.85,0.35,0.85,0.7C388.8,21.45,388.41,21.72,387.67,21.72z"/>
		<path d="M396.51,19.04c0-1.38,0.39-2.29,1.48-2.29c1.01,0,1.26,0.66,1.26,1.92v4.89h3.34v-4.51c0-1.38,0.37-2.29,1.48-2.29
			c1.01,0,1.24,0.66,1.24,1.92v4.89h3.34v-5.77c0-1.92-0.74-3.67-3.28-3.67c-1.55,0-2.64,0.78-3.13,1.81
			c-0.39-1.07-1.24-1.81-2.87-1.81c-1.38,0-2.37,0.62-2.87,1.63v-1.38h-3.34v9.19h3.34V19.04z"/>
		<rect x="413.91" y="10.57" width="3.5" height="12.99"/>
		<path d="M423.3,21.72c-1.01,0-1.63-0.43-1.75-1.2l-2.91,0.04c0.19,2.23,2.08,3.24,4.62,3.24c2.62,0,4.27-1.11,4.27-3.05
			c0-1.79-1.2-2.72-3.26-3.05l-1.79-0.31c-0.31-0.04-0.56-0.21-0.56-0.52c0-0.41,0.37-0.66,1.01-0.66c1.03,0,1.61,0.41,1.73,1.07
			l2.74-0.08c-0.19-1.92-1.75-3.09-4.41-3.09c-2.58,0-4.16,1.3-4.16,3.11c0,1.88,1.18,2.6,3.4,2.95l1.36,0.21
			c0.64,0.1,0.85,0.35,0.85,0.7C424.44,21.45,424.05,21.72,423.3,21.72z"/>
		<path d="M435.86,21.04h5.07l0.97,2.52h3.73l-5.17-12.99h-3.92l-5.17,12.99h3.52L435.86,21.04z M438.35,14.59h0.08l1.48,3.83h-3.05
			L438.35,14.59z"/>
		<polygon points="456.16,23.55 461.15,10.57 457.66,10.57 454.45,19.2 454.36,19.2 451.15,10.57 447.48,10.57 452.47,23.55 		"/>
		<rect x="462.05" y="14.36" width="3.34" height="9.19"/>
		<rect x="462.03" y="10.57" width="3.38" height="2.93"/>
		<path d="M470.54,19.35c0-1.55,0.76-2.12,2-2.12c0.64,0,1.13,0.12,1.59,0.39l0.21-3.15c-0.23-0.19-0.72-0.35-1.28-0.35
			c-1.22,0-2.19,0.85-2.52,1.88v-1.63h-3.34v9.19h3.34V19.35z"/>
		<path d="M478.54,23.8c1.38,0,2.39-0.6,2.89-1.63v1.38h3.34v-9.19h-3.34v4.51c0,1.4-0.41,2.31-1.46,2.31
			c-1.01,0-1.36-0.68-1.36-1.92v-4.91h-3.34v5.79C475.26,22.07,476.02,23.8,478.54,23.8z"/>
		<path d="M490.58,21.72c-1.01,0-1.63-0.43-1.75-1.2l-2.91,0.04c0.19,2.23,2.08,3.24,4.62,3.24c2.62,0,4.27-1.11,4.27-3.05
			c0-1.79-1.2-2.72-3.26-3.05l-1.79-0.31c-0.31-0.04-0.56-0.21-0.56-0.52c0-0.41,0.37-0.66,1.01-0.66c1.03,0,1.61,0.41,1.73,1.07
			l2.74-0.08c-0.19-1.92-1.75-3.09-4.41-3.09c-2.58,0-4.16,1.3-4.16,3.11c0,1.88,1.18,2.6,3.4,2.95l1.36,0.21
			c0.64,0.1,0.85,0.35,0.85,0.7C491.71,21.45,491.32,21.72,490.58,21.72z"/>
		<rect x="497.64" y="20.01" width="3.55" height="3.55"/>
		<path d="M509.1,23.8c2.99,0,5.03-1.98,5.03-4.84c0-2.84-2.04-4.84-5.03-4.84c-3.01,0-5.03,2-5.03,4.84
			C504.07,21.82,506.09,23.8,509.1,23.8z M509.1,16.63c1.15,0,1.67,0.95,1.67,2.33c0,1.38-0.52,2.33-1.67,2.33
			c-1.17,0-1.67-0.95-1.67-2.33C507.44,17.58,507.93,16.63,509.1,16.63z"/>
		<path d="M518.79,19.35c0-1.55,0.76-2.12,2-2.12c0.64,0,1.13,0.12,1.59,0.39l0.21-3.15c-0.23-0.19-0.72-0.35-1.28-0.35
			c-1.22,0-2.19,0.85-2.52,1.88v-1.63h-3.34v9.19h3.34V19.35z"/>
		<path d="M522.6,24.85c0,1.73,2.27,2.25,4.89,2.25c2.99,0,5.77-1.05,5.77-3.34c0-1.55-1.05-2.64-3.13-2.64h-3.81
			c-0.56,0-0.78-0.25-0.78-0.56c0-0.19,0.06-0.33,0.19-0.43c0.6,0.19,1.26,0.27,2,0.27c2.6,0,4.47-1.2,4.47-3.13
			c0-0.43-0.1-0.82-0.29-1.17c0.45-0.1,0.95-0.14,1.34-0.14v-2.51c-1.01,0-2.02,0.66-2.58,1.42c-0.78-0.47-1.83-0.74-2.95-0.74
			c-2.58,0-4.43,1.2-4.43,3.15c0,1.01,0.49,1.79,1.32,2.33c-0.99,0.37-1.57,1.05-1.57,1.94c0,0.78,0.49,1.53,1.32,1.79
			C523.33,23.41,522.6,24.05,522.6,24.85z M527.76,15.95c0.56,0,0.97,0.52,0.97,1.32c0,0.82-0.41,1.34-0.97,1.34
			c-0.56,0-0.97-0.52-0.97-1.34C526.79,16.46,527.2,15.95,527.76,15.95z M525.96,23.97h3.38c0.56,0,0.85,0.14,0.85,0.54
			c0,0.56-1.13,0.87-2.68,0.87c-1.24,0-2.16-0.19-2.16-0.84C525.35,24.17,525.59,23.97,525.96,23.97z"/>
		<path d="M311.03,589.49l0.43-2.06h-1.83l0.82-3.42h-2.49l-0.82,3.42h-1.77l0.83-3.42h-2.49l-0.82,3.42h-2.02l-0.43,2.06h1.98
			l-0.49,2.02h-1.88l-0.43,2.06h1.81l-0.8,3.42h2.49l0.8-3.42h1.77l-0.8,3.42h2.49l0.8-3.42h2.04l0.43-2.06h-1.98l0.49-2.02H311.03z
			 M306.17,591.51h-1.77l0.5-2.02h1.77L306.17,591.51z"/>
		<path d="M320.73,586.87c2.02,0,2.8,1.34,3.01,2.78l3.36-0.12c-0.25-3.24-2.37-5.77-6.35-5.77c-3.79,0-6.66,2.74-6.66,6.74
			c0,4,2.87,6.74,6.66,6.74c3.98,0,6.1-2.52,6.35-5.75l-3.36-0.14c-0.21,1.44-0.99,2.78-3.01,2.78c-1.92,0-3.03-1.42-3.03-3.63
			C317.7,588.29,318.81,586.87,320.73,586.87z"/>
		<path d="M331.11,591.82c-2,0.35-3.28,1.11-3.28,2.89c0,1.57,1.18,2.49,2.97,2.49c1.46,0,2.52-0.56,3.05-1.63
			c0.31,1.05,1.2,1.63,2.33,1.63c0.95,0,1.61-0.27,2.08-0.6v-1.77c-0.27,0.1-0.47,0.14-0.74,0.14c-0.35,0-0.56-0.21-0.56-0.68v-3.13
			c0-2.56-1.79-3.61-4.23-3.61c-2.76,0-4.27,1.4-4.56,3.42l3.09,0.21c0.14-0.68,0.52-1.15,1.26-1.15c0.8,0,1.15,0.45,1.15,1.22v0.14
			L331.11,591.82z M333.69,593.16c0,1.2-0.76,1.9-1.71,1.9c-0.56,0-0.93-0.31-0.93-0.78c0-0.6,0.47-0.85,1.28-1.01l1.36-0.25V593.16
			z"/>
		<path d="M339.23,587.8v12.49h3.34v-4.86c0.45,1.07,1.48,1.81,3.03,1.81c2.7,0,4.08-2.12,4.08-4.84c0-2.7-1.38-4.84-4.08-4.84
			c-1.55,0-2.58,0.74-3.03,1.83v-1.59H339.23z M344.43,590.15c1.3,0,1.9,0.93,1.9,2.25c0,1.34-0.6,2.27-1.9,2.27
			c-1.13,0-1.86-0.87-1.86-2.21v-0.12C342.57,591.02,343.29,590.15,344.43,590.15z"/>
		<rect x="351" y="587.8" width="3.34" height="9.19"/>
		<rect x="350.98" y="584.01" width="3.38" height="2.93"/>
		<path d="M359.49,597.24c1.26,0,2.06-0.31,2.76-0.82v-2.16c-0.56,0.23-1.01,0.31-1.42,0.31c-0.68,0-1.05-0.31-1.05-1.09v-3.36h2.39
			v-2.31h-2.39v-2.54h-2.1l-0.31,1.2c-0.23,0.85-0.52,1.34-1.44,1.48l-0.68,0.1v2.06h1.24v4.33
			C356.48,596.6,357.95,597.24,359.49,597.24z"/>
		<path d="M366.27,591.82c-2,0.35-3.28,1.11-3.28,2.89c0,1.57,1.18,2.49,2.97,2.49c1.46,0,2.51-0.56,3.05-1.63
			c0.31,1.05,1.2,1.63,2.33,1.63c0.95,0,1.61-0.27,2.08-0.6v-1.77c-0.27,0.1-0.47,0.14-0.74,0.14c-0.35,0-0.56-0.21-0.56-0.68v-3.13
			c0-2.56-1.79-3.61-4.23-3.61c-2.76,0-4.27,1.4-4.56,3.42l3.09,0.21c0.14-0.68,0.52-1.15,1.26-1.15c0.8,0,1.15,0.45,1.15,1.22v0.14
			L366.27,591.82z M368.85,593.16c0,1.2-0.76,1.9-1.71,1.9c-0.56,0-0.93-0.31-0.93-0.78c0-0.6,0.47-0.85,1.28-1.01l1.36-0.25V593.16
			z"/>
		<rect x="374.39" y="584.01" width="3.34" height="12.99"/>
		<rect x="379.53" y="584.01" width="3.38" height="2.93"/>
		<rect x="379.55" y="587.8" width="3.34" height="9.19"/>
		<path d="M388.7,595.16c-1.01,0-1.63-0.43-1.75-1.2l-2.91,0.04c0.19,2.23,2.08,3.24,4.62,3.24c2.62,0,4.27-1.11,4.27-3.05
			c0-1.79-1.2-2.72-3.26-3.05l-1.79-0.31c-0.31-0.04-0.56-0.21-0.56-0.52c0-0.41,0.37-0.66,1.01-0.66c1.03,0,1.61,0.41,1.73,1.07
			l2.74-0.08c-0.19-1.92-1.75-3.09-4.41-3.09c-2.58,0-4.16,1.3-4.16,3.11c0,1.88,1.18,2.6,3.4,2.95l1.36,0.21
			c0.64,0.1,0.85,0.35,0.85,0.7C389.83,594.89,389.44,595.16,388.7,595.16z"/>
		<path d="M409.68,596.99v-5.77c0-1.92-0.74-3.67-3.28-3.67c-1.55,0-2.64,0.78-3.13,1.81c-0.39-1.07-1.24-1.81-2.87-1.81
			c-1.38,0-2.37,0.62-2.87,1.63v-1.38h-3.34v9.19h3.34v-4.51c0-1.38,0.39-2.29,1.48-2.29c1.01,0,1.26,0.66,1.26,1.92v4.89h3.34
			v-4.51c0-1.38,0.37-2.29,1.48-2.29c1.01,0,1.24,0.66,1.24,1.92v4.89H409.68z"/>
		<rect x="413.27" y="584.01" width="3.5" height="12.99"/>
		<path d="M422.67,595.16c-1.01,0-1.63-0.43-1.75-1.2l-2.91,0.04c0.19,2.23,2.08,3.24,4.62,3.24c2.62,0,4.27-1.11,4.27-3.05
			c0-1.79-1.2-2.72-3.26-3.05l-1.79-0.31c-0.31-0.04-0.56-0.21-0.56-0.52c0-0.41,0.37-0.66,1.01-0.66c1.03,0,1.61,0.41,1.73,1.07
			l2.74-0.08c-0.19-1.92-1.75-3.09-4.41-3.09c-2.58,0-4.16,1.3-4.16,3.11c0,1.88,1.18,2.6,3.4,2.95l1.36,0.21
			c0.64,0.1,0.85,0.35,0.85,0.7C423.8,594.89,423.41,595.16,422.67,595.16z"/>
		<path d="M429.07,596.99h3.52l0.97-2.51h5.07l0.97,2.51h3.73l-5.17-12.99h-3.92L429.07,596.99z M436.05,588.03h0.08l1.48,3.83
			h-3.05L436.05,588.03z"/>
		<polygon points="452.1,592.64 452.01,592.64 448.8,584.01 445.13,584.01 450.12,596.99 453.81,596.99 458.8,584.01 455.31,584.01 
					"/>
		<rect x="459.7" y="587.8" width="3.34" height="9.19"/>
		<rect x="459.68" y="584.01" width="3.38" height="2.93"/>
		<path d="M464.85,587.8v9.19h3.34v-4.21c0-1.55,0.76-2.12,2-2.12c0.64,0,1.13,0.12,1.59,0.39l0.21-3.15
			c-0.23-0.19-0.72-0.35-1.28-0.35c-1.22,0-2.19,0.85-2.52,1.88v-1.63H464.85z"/>
		<path d="M482.41,596.99v-9.19h-3.34v4.51c0,1.4-0.41,2.31-1.46,2.31c-1.01,0-1.36-0.68-1.36-1.92v-4.91h-3.34v5.79
			c0,1.92,0.76,3.65,3.28,3.65c1.38,0,2.39-0.6,2.89-1.63v1.38H482.41z"/>
		<path d="M488.23,595.16c-1.01,0-1.63-0.43-1.75-1.2l-2.91,0.04c0.19,2.23,2.08,3.24,4.62,3.24c2.62,0,4.27-1.11,4.27-3.05
			c0-1.79-1.2-2.72-3.26-3.05l-1.79-0.31c-0.31-0.04-0.56-0.21-0.56-0.52c0-0.41,0.37-0.66,1.01-0.66c1.03,0,1.61,0.41,1.73,1.07
			l2.74-0.08c-0.19-1.92-1.75-3.09-4.41-3.09c-2.58,0-4.16,1.3-4.16,3.11c0,1.88,1.17,2.6,3.4,2.95l1.36,0.21
			c0.64,0.1,0.85,0.35,0.85,0.7C489.36,594.89,488.97,595.16,488.23,595.16z"/>
	</g>
</g>
</svg>
