<?xml version="1.0" encoding="utf-8"?>
<!-- Generator: Adobe Illustrator 23.1.1, SVG Export Plug-In . SVG Version: 6.00 Build 0)  -->
<svg version="1.1" xmlns="http://www.w3.org/2000/svg" xmlns:xlink="http://www.w3.org/1999/xlink" x="0px" y="0px"
	 viewBox="0 0 792 612" style="enable-background:new 0 0 792 612;" xml:space="preserve">
<style type="text/css">
	.st0{display:none;}
	.st1{display:inline;fill:#FFFFFF;}
	.st2{display:inline;}
	.st3{fill:#FFFFFF;stroke:#000000;stroke-width:16;stroke-linecap:round;stroke-linejoin:round;stroke-miterlimit:10;}
	.st4{fill:none;stroke:#000000;stroke-width:24;stroke-linejoin:round;stroke-miterlimit:10;}
	.st5{fill:#FFFFFF;}
	.st6{fill:#FFFFFF;stroke:#000000;stroke-width:17;stroke-linecap:round;stroke-miterlimit:10;}
	.st7{fill:#FFFFFF;stroke:#000000;stroke-width:17;stroke-miterlimit:10;}
	.st8{stroke:#000000;stroke-width:16.0572;stroke-linecap:round;stroke-miterlimit:10;}
	.st9{fill:#FFFFFF;stroke:#000000;stroke-width:13.497;stroke-linecap:round;stroke-linejoin:round;stroke-miterlimit:10;}
	.st10{stroke:#000000;stroke-width:18.3348;stroke-linecap:round;stroke-miterlimit:10;}
	.st11{fill:none;stroke:#000000;stroke-width:13.497;stroke-linecap:round;stroke-linejoin:round;stroke-miterlimit:10;}
	.st12{fill:#FFFFFF;stroke:#000000;stroke-width:14.6942;stroke-linecap:round;stroke-linejoin:round;stroke-miterlimit:10;}
	.st13{fill:none;stroke:#000000;stroke-width:13;stroke-linecap:round;stroke-linejoin:round;stroke-miterlimit:10;}
	.st14{fill:none;stroke:#000000;stroke-width:13;stroke-linejoin:round;stroke-miterlimit:10;}
	.st15{fill:url(#);stroke:#000000;stroke-width:13;stroke-linejoin:round;stroke-miterlimit:10;}
	.st16{fill:none;stroke:#000000;stroke-width:30.5612;stroke-linecap:round;stroke-linejoin:round;stroke-miterlimit:10;}
	.st17{fill:#FFFFFF;stroke:#000000;stroke-width:16.2993;stroke-linecap:round;stroke-linejoin:round;stroke-miterlimit:10;}
	.st18{fill:#FFFFFF;stroke:#000000;stroke-width:13.497;stroke-linecap:round;stroke-miterlimit:10;}
	.st19{fill:url(#);stroke:#000000;stroke-width:13.497;stroke-linecap:round;stroke-linejoin:round;stroke-miterlimit:10;}
	.st20{fill:#FFFFFF;stroke:#000000;stroke-width:11.7326;stroke-linecap:round;stroke-linejoin:round;stroke-miterlimit:10;}
	.st21{font-family:'FoundersGrotesk-Bold';}
	.st22{font-size:142.7815px;}
	.st23{font-size:313.0793px;}
	.st24{font-size:20.6105px;}
	.st25{font-size:10.3052px;}
	.st26{font-size:19.2364px;}
	.st27{font-size:10px;}
	.st28{fill:#FFFFFF;stroke:#000000;stroke-width:13.2623;stroke-linecap:round;stroke-linejoin:round;stroke-miterlimit:10;}
	.st29{fill:#FFFFFF;stroke:#000000;stroke-width:13.2623;stroke-linecap:round;stroke-miterlimit:10;}
	.st30{stroke:#000000;stroke-width:4.5213;stroke-miterlimit:10;}
	.st31{fill:none;stroke:#000000;stroke-width:16;stroke-linecap:round;stroke-miterlimit:10;}
	.st32{fill:url(#);stroke:#000000;stroke-width:16;stroke-linecap:round;stroke-linejoin:round;stroke-miterlimit:10;}
	.st33{fill:#FFFFFF;stroke:#000000;stroke-width:16;stroke-linecap:round;stroke-miterlimit:10;}
	.st34{fill:none;stroke:#000000;stroke-width:16;stroke-linecap:round;stroke-linejoin:round;stroke-miterlimit:10;}
	.st35{fill:none;stroke:#000000;stroke-width:15.2344;stroke-linecap:round;stroke-linejoin:round;stroke-miterlimit:10;}
	.st36{fill:#FFFFFF;stroke:#000000;stroke-width:15.2344;stroke-linecap:round;stroke-linejoin:round;stroke-miterlimit:10;}
	.st37{fill:#FFFFFF;stroke:#000000;stroke-width:17;stroke-linecap:round;stroke-linejoin:round;stroke-miterlimit:10;}
	.st38{fill:none;stroke:#000000;stroke-width:9.9764;stroke-linecap:round;stroke-linejoin:round;stroke-miterlimit:10;}
	.st39{fill:none;stroke:#000000;stroke-width:9.3127;stroke-linejoin:round;stroke-miterlimit:10;}
	.st40{fill:url(#);}
	.st41{fill:none;stroke:#000000;stroke-width:8.3796;stroke-linecap:round;stroke-linejoin:round;stroke-miterlimit:10;}
	
		.st42{display:inline;fill:none;stroke:#000000;stroke-width:9.9764;stroke-linecap:round;stroke-linejoin:round;stroke-miterlimit:10;}
	.st43{display:inline;fill:none;stroke:#000000;stroke-width:9.3127;stroke-linejoin:round;stroke-miterlimit:10;}
	.st44{display:inline;fill:url(#);stroke:#000000;stroke-width:10;stroke-linejoin:round;stroke-miterlimit:10;}
	.st45{fill:#FFFFFF;stroke:#000000;stroke-width:14.7375;stroke-linecap:round;stroke-linejoin:round;stroke-miterlimit:10;}
	.st46{fill:none;stroke:#000000;stroke-width:14.7375;stroke-linecap:round;stroke-linejoin:round;stroke-miterlimit:10;}
	.st47{stroke:#000000;stroke-width:14.7375;stroke-linecap:round;stroke-linejoin:round;stroke-miterlimit:10;}
	.st48{fill:#FFFFFF;stroke:#000000;stroke-width:14.2911;stroke-linecap:round;stroke-linejoin:round;stroke-miterlimit:10;}
	.st49{fill:none;stroke:#000000;stroke-width:15;stroke-linecap:round;stroke-linejoin:round;stroke-miterlimit:10;}
	.st50{fill:#FFFFFF;stroke:#000000;stroke-width:15;stroke-linecap:round;stroke-linejoin:round;stroke-miterlimit:10;}
	.st51{fill:#FFFFFF;stroke:#000000;stroke-width:14.8467;stroke-linecap:round;stroke-linejoin:round;stroke-miterlimit:10;}
	.st52{stroke:#000000;stroke-width:20.1683;stroke-linecap:round;stroke-miterlimit:10;}
	.st53{fill:none;stroke:#000000;stroke-width:14.8467;stroke-linecap:round;stroke-linejoin:round;stroke-miterlimit:10;}
	.st54{fill:none;stroke:#000000;stroke-width:13.497;stroke-miterlimit:10;}
	.st55{fill:#FFFFFF;stroke:#000000;stroke-width:13.497;stroke-miterlimit:10;}
	.st56{fill:#FFFFFF;stroke:#000000;stroke-width:14.7439;stroke-linecap:round;stroke-miterlimit:10;}
	.st57{fill:#FFFFFF;stroke:#000000;stroke-width:14.7439;stroke-miterlimit:10;}
	.st58{stroke:#000000;stroke-width:13.9262;stroke-linecap:round;stroke-miterlimit:10;}
	.st59{fill:#FFFFFF;stroke:#000000;stroke-width:17.1072;stroke-linecap:round;stroke-linejoin:round;stroke-miterlimit:10;}
	.st60{stroke:#000000;stroke-width:17.1072;stroke-linecap:round;stroke-linejoin:round;stroke-miterlimit:10;}
	.st61{fill:#FFFFFF;stroke:#000000;stroke-width:15;stroke-linecap:square;stroke-linejoin:round;stroke-miterlimit:10;}
	.st62{fill:#FFFFFF;stroke:#000000;stroke-width:15;stroke-linejoin:round;stroke-miterlimit:10;}
	.st63{fill:#FFFFFF;stroke:#000000;stroke-width:14;stroke-linecap:round;stroke-linejoin:round;stroke-miterlimit:10;}
	.st64{fill:#FFFFFF;stroke:#000000;stroke-width:13;stroke-linecap:round;stroke-linejoin:round;stroke-miterlimit:10;}
	.st65{fill:#FFFFFF;stroke:#000000;stroke-width:15.2362;stroke-linecap:round;stroke-linejoin:round;stroke-miterlimit:10;}
	.st66{fill:#FFFFFF;stroke:#FFFFFF;stroke-width:3;stroke-miterlimit:10;}
	.st67{fill:#FFFFFF;stroke:#000000;stroke-width:13.3058;stroke-linecap:round;stroke-linejoin:round;stroke-miterlimit:10;}
	.st68{fill:#FFFFFF;stroke:#000000;stroke-width:15.2517;stroke-linecap:round;stroke-linejoin:round;stroke-miterlimit:10;}
	.st69{stroke:#000000;stroke-width:3;stroke-miterlimit:10;}
</style>
<g id="unexpanded" class="st0">
	<rect x="-11033.75" y="-343.56" class="st1" width="14663.41" height="9108.82"/>
	<g class="st2">
		<rect class="st5" width="792" height="1224"/>
		<g>
			<g>
				<text transform="matrix(1 0 0 1 29.7893 192.6519)" class="st21 st22">WE Keep Us</text>
			</g>
			<text transform="matrix(1 0 0 1 17.3369 474.4634)" class="st21 st23">SAFE</text>
		</g>
		<g>
			<g>
				<g>
					<text transform="matrix(1 0 0 1 258.9679 23.5542)"><tspan x="0" y="0" class="st21 st24">www</tspan><tspan x="45.14" y="0" class="st21 st25"> </tspan><tspan x="46.99" y="0" class="st21 st24">.</tspan><tspan x="51.77" y="0" class="st21 st25"> </tspan><tspan x="53.63" y="0" class="st21 st24">Capitalism</tspan><tspan x="150.43" y="0" class="st21 st26"> </tspan><tspan x="153.9" y="0" class="st21 st24">Is</tspan><tspan x="168.88" y="0" class="st21 st26"> </tspan><tspan x="172.34" y="0" class="st21 st24">A</tspan><tspan x="186.6" y="0" class="st21 st25"> </tspan><tspan x="188.46" y="0" class="st21 st24">Virus</tspan><tspan x="236.15" y="0" class="st21 st25"> </tspan><tspan x="238.01" y="0" class="st21 st24">.</tspan><tspan x="242.79" y="0" class="st21 st25"> </tspan><tspan x="244.64" y="0" class="st21 st24">org</tspan></text>
				</g>
				<g>
					<text transform="matrix(1 0 0 1 299.1802 596.9932)"><tspan x="0" y="0" class="st21 st24">#</tspan><tspan x="12.7" y="0" class="st21 st27"> </tspan><tspan x="14.5" y="0" class="st21 st24">Capitalism</tspan><tspan x="111.3" y="0" class="st21 st27"> </tspan><tspan x="113.1" y="0" class="st21 st24">Is</tspan><tspan x="128.09" y="0" class="st21 st27"> </tspan><tspan x="129.89" y="0" class="st21 st24">A</tspan><tspan x="144.15" y="0" class="st21 st27"> </tspan><tspan x="145.95" y="0" class="st21 st24">Virus</tspan></text>
				</g>
			</g>
		</g>
	</g>
</g>
<g id="exp_trnsp_bg">
	<polygon points="79.48,192.65 94.47,135.83 95.04,135.83 110.03,192.65 135.87,192.65 159.43,102.7 136.02,102.7 121.74,159.1 
		121.17,159.1 106.32,102.7 84.47,102.7 69.62,159.1 69.05,159.1 54.78,102.7 30.5,102.7 54.06,192.65 	"/>
	<polygon points="237.11,172.66 190.13,172.66 190.13,157.1 225.4,157.1 225.4,137.4 190.13,137.4 190.13,122.69 235.82,122.69 
		235.82,102.7 166.29,102.7 166.29,192.65 237.11,192.65 	"/>
	<polygon points="273.66,102.7 273.66,192.65 297.93,192.65 297.93,165.38 305.78,156.82 330.77,192.65 359.75,192.65 
		323.34,140.97 358.04,102.7 330.2,102.7 297.93,139.11 297.93,102.7 	"/>
	<path d="M359.04,161.81c0,20.27,14.56,32.55,34.98,32.55c16.85,0,28.55-8.14,31.84-22.7l-18.56-1.71c-2.14,5-6.14,7.14-12.42,7.14
		c-7,0-12.71-3.71-13.28-11.56h44.69v-6.42c0-17.28-11.28-31.84-32.55-31.84C373.89,127.26,359.04,141.68,359.04,161.81z
		 M393.45,143.82c6.85,0,10.57,4.85,10.85,10.57h-22.42C382.74,148.39,386.03,143.82,393.45,143.82z"/>
	<path d="M433,161.81c0,20.27,14.56,32.55,34.98,32.55c16.85,0,28.55-8.14,31.84-22.7l-18.56-1.71c-2.14,5-6.14,7.14-12.42,7.14
		c-7,0-12.71-3.71-13.28-11.56h44.69v-6.42c0-17.28-11.28-31.84-32.55-31.84C447.85,127.26,433,141.68,433,161.81z M467.41,143.82
		c6.85,0,10.57,4.85,10.85,10.57h-22.42C456.7,148.39,459.98,143.82,467.41,143.82z"/>
	<path d="M532.8,128.97h-23.13v86.52h23.13v-33.7c3.14,7.42,10.28,12.56,20.99,12.56c18.7,0,28.27-14.71,28.27-33.55
		c0-18.7-9.57-33.55-28.27-33.55c-10.71,0-17.85,5.14-20.99,12.71V128.97z M545.65,145.25c9,0,13.14,6.42,13.14,15.56
		c0,9.28-4.14,15.71-13.14,15.71c-7.85,0-12.85-6-12.85-15.28v-0.86C532.8,151.25,537.8,145.25,545.65,145.25z"/>
	<path d="M657.73,194.37c23.13,0,40.98-11.14,40.98-37.41V102.7h-24.27v50.26c0,13.71-4.14,20.99-16.71,20.99
		c-12.42,0-16.7-7.28-16.7-20.99V102.7H616.9v54.25C616.9,183.23,634.6,194.37,657.73,194.37z"/>
	<path d="M738.83,179.95c-7,0-11.28-3-12.14-8.28l-20.13,0.29c1.29,15.42,14.42,22.42,31.98,22.42c18.13,0,29.55-7.71,29.55-21.13
		c0-12.42-8.28-18.85-22.56-21.13l-12.42-2.14c-2.14-0.29-3.86-1.43-3.86-3.57c0-2.86,2.57-4.57,7-4.57
		c7.14,0,11.14,2.86,11.99,7.42l18.99-0.57c-1.29-13.28-12.14-21.42-30.55-21.42c-17.85,0-28.84,9-28.84,21.56
		c0,12.99,8.14,17.99,23.56,20.42l9.42,1.43c4.43,0.71,5.85,2.43,5.85,4.85C746.68,178.09,743.97,179.95,738.83,179.95z"/>
	<path d="M118.46,478.22c46.02,0,82.34-20.98,82.34-62.93c0-32.25-18.78-53.85-60.11-61.05l-37.26-6.57
		c-12.21-2.19-19.72-5.64-19.72-14.71c0-10.96,10.02-17.85,27.55-17.85c20.35,0,35.07,9.39,36.63,29.74l48.84-0.94
		c-0.94-43.83-30.37-70.44-84.84-70.44c-49.15,0-80.46,24.11-80.46,64.18c0,34.44,22.54,52.6,54.79,58.55l36,6.26
		c15.03,2.82,26.61,4.7,26.61,16.28c0,10.96-11.9,17.53-30.37,17.53c-21.92,0-41.01-8.45-42.89-33.19l-48.84,1.57
		C26.73,452.24,64.92,478.22,118.46,478.22z"/>
	<path d="M342,277.22h-59.48l-78.58,197.24h53.54l14.71-38.2h77.02l14.71,38.2h56.67L342,277.22z M287.52,396.51l22.54-58.23h1.25
		l22.54,58.23H287.52z"/>
	<polygon points="435.6,474.46 488.83,474.46 488.83,402.14 560.84,402.14 560.84,358.94 488.83,358.94 488.83,321.05 
		584.63,321.05 584.63,277.22 435.6,277.22 	"/>
	<polygon points="762.77,430.63 659.77,430.63 659.77,396.51 737.1,396.51 737.1,353.3 659.77,353.3 659.77,321.05 759.95,321.05 
		759.95,277.22 607.48,277.22 607.48,474.46 762.77,474.46 	"/>
	<polygon points="265.16,23.55 266.5,18.36 266.58,18.36 267.92,23.55 271.2,23.55 274.07,14.5 276.93,23.55 280.21,23.55 
		281.55,18.36 281.63,18.36 282.97,23.55 286.25,23.55 289.11,14.49 291.98,23.55 295.25,23.55 296.59,18.36 296.68,18.36 
		298.02,23.55 301.29,23.55 304.2,14.36 301.19,14.36 299.54,19.58 299.46,19.58 298.12,14.36 295.46,14.36 294.12,19.58 
		294.04,19.58 292.39,14.36 289.15,14.36 289.07,14.36 286.14,14.36 284.5,19.58 284.41,19.58 283.07,14.36 280.41,14.36 
		279.07,19.58 278.99,19.58 277.34,14.36 274.11,14.36 274.02,14.36 271.1,14.36 269.45,19.58 269.37,19.58 268.03,14.36 
		265.37,14.36 264.03,19.58 263.95,19.58 262.3,14.36 258.98,14.36 261.88,23.55 	"/>
	<rect x="306.63" y="20.01" width="3.55" height="3.55"/>
	<path d="M319.72,23.8c3.98,0,6.1-2.52,6.35-5.75l-3.36-0.14c-0.21,1.44-0.99,2.78-3.01,2.78c-1.92,0-3.03-1.42-3.03-3.63
		s1.11-3.63,3.03-3.63c2.02,0,2.8,1.34,3.01,2.78l3.36-0.12c-0.25-3.24-2.37-5.77-6.35-5.77c-3.79,0-6.66,2.74-6.66,6.74
		S315.92,23.8,319.72,23.8z"/>
	<path d="M330.08,18.38c-2,0.35-3.28,1.11-3.28,2.89c0,1.57,1.17,2.49,2.97,2.49c1.46,0,2.51-0.56,3.05-1.63
		c0.31,1.05,1.2,1.63,2.33,1.63c0.95,0,1.61-0.27,2.08-0.6v-1.77c-0.27,0.1-0.47,0.14-0.74,0.14c-0.35,0-0.56-0.21-0.56-0.68v-3.13
		c0-2.56-1.79-3.61-4.23-3.61c-2.76,0-4.27,1.4-4.56,3.42l3.09,0.21c0.14-0.68,0.52-1.15,1.26-1.15c0.8,0,1.15,0.45,1.15,1.22v0.14
		L330.08,18.38z M332.66,19.72c0,1.2-0.76,1.9-1.71,1.9c-0.56,0-0.93-0.31-0.93-0.78c0-0.6,0.47-0.85,1.28-1.01l1.36-0.25V19.72z"/>
	<path d="M341.54,21.99c0.45,1.07,1.48,1.81,3.03,1.81c2.7,0,4.08-2.12,4.08-4.84c0-2.7-1.38-4.84-4.08-4.84
		c-1.55,0-2.58,0.74-3.03,1.83v-1.59h-3.34v12.49h3.34V21.99z M341.54,18.9c0-1.32,0.72-2.19,1.86-2.19c1.3,0,1.9,0.93,1.9,2.25
		c0,1.34-0.6,2.27-1.9,2.27c-1.13,0-1.86-0.87-1.86-2.21V18.9z"/>
	<rect x="349.95" y="10.57" width="3.38" height="2.93"/>
	<rect x="349.97" y="14.36" width="3.34" height="9.19"/>
	<path d="M355.46,21c0,2.16,1.46,2.8,3.01,2.8c1.26,0,2.06-0.31,2.76-0.82v-2.16c-0.56,0.23-1.01,0.31-1.42,0.31
		c-0.68,0-1.05-0.31-1.05-1.09v-3.36h2.39v-2.31h-2.39v-2.54h-2.1l-0.31,1.2c-0.23,0.85-0.52,1.34-1.44,1.48l-0.68,0.1v2.06h1.24V21
		z"/>
	<path d="M365.25,18.38c-2,0.35-3.28,1.11-3.28,2.89c0,1.57,1.17,2.49,2.97,2.49c1.46,0,2.52-0.56,3.05-1.63
		c0.31,1.05,1.2,1.63,2.33,1.63c0.95,0,1.61-0.27,2.08-0.6v-1.77c-0.27,0.1-0.47,0.14-0.74,0.14c-0.35,0-0.56-0.21-0.56-0.68v-3.13
		c0-2.56-1.79-3.61-4.23-3.61c-2.76,0-4.27,1.4-4.56,3.42l3.09,0.21c0.14-0.68,0.52-1.15,1.26-1.15c0.8,0,1.15,0.45,1.15,1.22v0.14
		L365.25,18.38z M367.82,19.72c0,1.2-0.76,1.9-1.71,1.9c-0.56,0-0.93-0.31-0.93-0.78c0-0.6,0.47-0.85,1.28-1.01l1.36-0.25V19.72z"/>
	<rect x="373.37" y="10.57" width="3.34" height="12.99"/>
	<rect x="378.52" y="14.36" width="3.34" height="9.19"/>
	<rect x="378.5" y="10.57" width="3.38" height="2.93"/>
	<path d="M387.67,21.72c-1.01,0-1.63-0.43-1.75-1.2l-2.91,0.04c0.19,2.23,2.08,3.24,4.62,3.24c2.62,0,4.27-1.11,4.27-3.05
		c0-1.79-1.2-2.72-3.26-3.05l-1.79-0.31c-0.31-0.04-0.56-0.21-0.56-0.52c0-0.41,0.37-0.66,1.01-0.66c1.03,0,1.61,0.41,1.73,1.07
		l2.74-0.08c-0.19-1.92-1.75-3.09-4.41-3.09c-2.58,0-4.16,1.3-4.16,3.11c0,1.88,1.17,2.6,3.4,2.95l1.36,0.21
		c0.64,0.1,0.84,0.35,0.84,0.7C388.8,21.45,388.41,21.72,387.67,21.72z"/>
	<path d="M396.51,19.04c0-1.38,0.39-2.29,1.48-2.29c1.01,0,1.26,0.66,1.26,1.92v4.89h3.34v-4.51c0-1.38,0.37-2.29,1.48-2.29
		c1.01,0,1.24,0.66,1.24,1.92v4.89h3.34v-5.77c0-1.92-0.74-3.67-3.28-3.67c-1.55,0-2.64,0.78-3.13,1.81
		c-0.39-1.07-1.24-1.81-2.87-1.81c-1.38,0-2.37,0.62-2.87,1.63v-1.38h-3.34v9.19h3.34V19.04z"/>
	<rect x="413.91" y="10.57" width="3.5" height="12.99"/>
	<path d="M423.3,21.72c-1.01,0-1.63-0.43-1.75-1.2l-2.91,0.04c0.19,2.23,2.08,3.24,4.62,3.24c2.62,0,4.27-1.11,4.27-3.05
		c0-1.79-1.2-2.72-3.26-3.05l-1.79-0.31c-0.31-0.04-0.56-0.21-0.56-0.52c0-0.41,0.37-0.66,1.01-0.66c1.03,0,1.61,0.41,1.73,1.07
		l2.74-0.08c-0.19-1.92-1.75-3.09-4.41-3.09c-2.58,0-4.16,1.3-4.16,3.11c0,1.88,1.17,2.6,3.4,2.95l1.36,0.21
		c0.64,0.1,0.84,0.35,0.84,0.7C424.44,21.45,424.05,21.72,423.3,21.72z"/>
	<path d="M435.86,21.04h5.07l0.97,2.52h3.73l-5.17-12.99h-3.92l-5.17,12.99h3.52L435.86,21.04z M438.35,14.59h0.08l1.48,3.83h-3.05
		L438.35,14.59z"/>
	<polygon points="456.16,23.55 461.15,10.57 457.66,10.57 454.45,19.2 454.36,19.2 451.15,10.57 447.48,10.57 452.47,23.55 	"/>
	<rect x="462.03" y="10.57" width="3.38" height="2.93"/>
	<rect x="462.05" y="14.36" width="3.34" height="9.19"/>
	<path d="M470.54,19.35c0-1.55,0.76-2.12,2-2.12c0.64,0,1.13,0.12,1.59,0.39l0.21-3.15c-0.23-0.19-0.72-0.35-1.28-0.35
		c-1.22,0-2.18,0.85-2.51,1.88v-1.63h-3.34v9.19h3.34V19.35z"/>
	<path d="M478.54,23.8c1.38,0,2.39-0.6,2.89-1.63v1.38h3.34v-9.19h-3.34v4.51c0,1.4-0.41,2.31-1.46,2.31
		c-1.01,0-1.36-0.68-1.36-1.92v-4.91h-3.34v5.79C475.26,22.07,476.02,23.8,478.54,23.8z"/>
	<path d="M490.58,21.72c-1.01,0-1.63-0.43-1.75-1.2l-2.91,0.04c0.19,2.23,2.08,3.24,4.62,3.24c2.62,0,4.27-1.11,4.27-3.05
		c0-1.79-1.2-2.72-3.26-3.05l-1.79-0.31c-0.31-0.04-0.56-0.21-0.56-0.52c0-0.41,0.37-0.66,1.01-0.66c1.03,0,1.61,0.41,1.73,1.07
		l2.74-0.08c-0.19-1.92-1.75-3.09-4.41-3.09c-2.58,0-4.16,1.3-4.16,3.11c0,1.88,1.17,2.6,3.4,2.95l1.36,0.21
		c0.64,0.1,0.84,0.35,0.84,0.7C491.71,21.45,491.32,21.72,490.58,21.72z"/>
	<rect x="497.64" y="20.01" width="3.55" height="3.55"/>
	<path d="M509.1,23.8c2.99,0,5.03-1.98,5.03-4.84c0-2.84-2.04-4.84-5.03-4.84c-3.01,0-5.03,2-5.03,4.84
		C504.07,21.82,506.09,23.8,509.1,23.8z M509.1,16.63c1.15,0,1.67,0.95,1.67,2.33c0,1.38-0.52,2.33-1.67,2.33
		c-1.17,0-1.67-0.95-1.67-2.33C507.43,17.58,507.93,16.63,509.1,16.63z"/>
	<path d="M518.79,19.35c0-1.55,0.76-2.12,2-2.12c0.64,0,1.13,0.12,1.59,0.39l0.21-3.15c-0.23-0.19-0.72-0.35-1.28-0.35
		c-1.22,0-2.19,0.85-2.52,1.88v-1.63h-3.34v9.19h3.34V19.35z"/>
	<path d="M522.6,24.85c0,1.73,2.27,2.25,4.89,2.25c2.99,0,5.77-1.05,5.77-3.34c0-1.55-1.05-2.64-3.13-2.64h-3.81
		c-0.56,0-0.78-0.25-0.78-0.56c0-0.19,0.06-0.33,0.19-0.43c0.6,0.19,1.26,0.27,2,0.27c2.6,0,4.47-1.2,4.47-3.13
		c0-0.43-0.1-0.82-0.29-1.17c0.45-0.1,0.95-0.14,1.34-0.14v-2.51c-1.01,0-2.02,0.66-2.58,1.42c-0.78-0.47-1.83-0.74-2.95-0.74
		c-2.58,0-4.43,1.2-4.43,3.15c0,1.01,0.5,1.79,1.32,2.33c-0.99,0.37-1.57,1.05-1.57,1.94c0,0.78,0.49,1.53,1.32,1.79
		C523.33,23.41,522.6,24.05,522.6,24.85z M527.76,15.95c0.56,0,0.97,0.52,0.97,1.32c0,0.82-0.41,1.34-0.97,1.34
		s-0.97-0.52-0.97-1.34C526.79,16.46,527.2,15.95,527.76,15.95z M525.96,23.97h3.38c0.56,0,0.84,0.14,0.84,0.54
		c0,0.56-1.13,0.87-2.68,0.87c-1.24,0-2.16-0.19-2.16-0.84C525.35,24.17,525.59,23.97,525.96,23.97z"/>
	<path d="M311.03,589.49l0.43-2.06h-1.83l0.82-3.42h-2.49l-0.82,3.42h-1.77l0.83-3.42h-2.49l-0.83,3.42h-2.02l-0.43,2.06h1.98
		l-0.5,2.02h-1.88l-0.43,2.06h1.81l-0.8,3.42h2.49l0.8-3.42h1.77l-0.8,3.42h2.49l0.8-3.42h2.04l0.43-2.06h-1.98l0.5-2.02H311.03z
		 M306.17,591.51h-1.77l0.5-2.02h1.77L306.17,591.51z"/>
	<path d="M320.73,586.87c2.02,0,2.8,1.34,3.01,2.78l3.36-0.12c-0.25-3.24-2.37-5.77-6.35-5.77c-3.79,0-6.66,2.74-6.66,6.74
		c0,4,2.87,6.74,6.66,6.74c3.98,0,6.1-2.52,6.35-5.75l-3.36-0.14c-0.21,1.44-0.99,2.78-3.01,2.78c-1.92,0-3.03-1.42-3.03-3.63
		C317.7,588.29,318.81,586.87,320.73,586.87z"/>
	<path d="M331.11,591.82c-2,0.35-3.28,1.11-3.28,2.89c0,1.57,1.17,2.49,2.97,2.49c1.46,0,2.51-0.56,3.05-1.63
		c0.31,1.05,1.2,1.63,2.33,1.63c0.95,0,1.61-0.27,2.08-0.6v-1.77c-0.27,0.1-0.47,0.14-0.74,0.14c-0.35,0-0.56-0.21-0.56-0.68v-3.13
		c0-2.56-1.79-3.61-4.23-3.61c-2.76,0-4.27,1.4-4.56,3.42l3.09,0.21c0.14-0.68,0.51-1.15,1.26-1.15c0.8,0,1.15,0.45,1.15,1.22v0.14
		L331.11,591.82z M333.69,593.16c0,1.2-0.76,1.9-1.71,1.9c-0.56,0-0.93-0.31-0.93-0.78c0-0.6,0.47-0.85,1.28-1.01l1.36-0.25V593.16z
		"/>
	<path d="M339.23,587.8v12.49h3.34v-4.87c0.45,1.07,1.48,1.81,3.03,1.81c2.7,0,4.08-2.12,4.08-4.84c0-2.7-1.38-4.84-4.08-4.84
		c-1.55,0-2.58,0.74-3.03,1.83v-1.59H339.23z M344.43,590.15c1.3,0,1.9,0.93,1.9,2.25c0,1.34-0.6,2.27-1.9,2.27
		c-1.13,0-1.86-0.87-1.86-2.21v-0.12C342.57,591.02,343.29,590.15,344.43,590.15z"/>
	<rect x="350.98" y="584.01" width="3.38" height="2.93"/>
	<rect x="351" y="587.8" width="3.34" height="9.19"/>
	<path d="M359.49,597.24c1.26,0,2.06-0.31,2.76-0.82v-2.16c-0.56,0.23-1.01,0.31-1.42,0.31c-0.68,0-1.05-0.31-1.05-1.09v-3.36h2.39
		v-2.31h-2.39v-2.54h-2.1l-0.31,1.2c-0.23,0.85-0.51,1.34-1.44,1.48l-0.68,0.1v2.06h1.24v4.33
		C356.48,596.6,357.95,597.24,359.49,597.24z"/>
	<path d="M366.27,591.82c-2,0.35-3.28,1.11-3.28,2.89c0,1.57,1.18,2.49,2.97,2.49c1.46,0,2.51-0.56,3.05-1.63
		c0.31,1.05,1.2,1.63,2.33,1.63c0.95,0,1.61-0.27,2.08-0.6v-1.77c-0.27,0.1-0.47,0.14-0.74,0.14c-0.35,0-0.56-0.21-0.56-0.68v-3.13
		c0-2.56-1.79-3.61-4.23-3.61c-2.76,0-4.27,1.4-4.56,3.42l3.09,0.21c0.14-0.68,0.51-1.15,1.26-1.15c0.8,0,1.15,0.45,1.15,1.22v0.14
		L366.27,591.82z M368.85,593.16c0,1.2-0.76,1.9-1.71,1.9c-0.56,0-0.93-0.31-0.93-0.78c0-0.6,0.47-0.85,1.28-1.01l1.36-0.25V593.16z
		"/>
	<rect x="374.39" y="584.01" width="3.34" height="12.99"/>
	<rect x="379.53" y="584.01" width="3.38" height="2.93"/>
	<rect x="379.55" y="587.8" width="3.34" height="9.19"/>
	<path d="M388.7,595.16c-1.01,0-1.63-0.43-1.75-1.2l-2.91,0.04c0.19,2.23,2.08,3.24,4.62,3.24c2.62,0,4.27-1.11,4.27-3.05
		c0-1.79-1.2-2.72-3.26-3.05l-1.79-0.31c-0.31-0.04-0.56-0.21-0.56-0.52c0-0.41,0.37-0.66,1.01-0.66c1.03,0,1.61,0.41,1.73,1.07
		l2.74-0.08c-0.19-1.92-1.75-3.09-4.41-3.09c-2.58,0-4.16,1.3-4.16,3.11c0,1.88,1.18,2.6,3.4,2.95l1.36,0.21
		c0.64,0.1,0.85,0.35,0.85,0.7C389.83,594.89,389.44,595.16,388.7,595.16z"/>
	<path d="M406.4,587.55c-1.55,0-2.64,0.78-3.13,1.81c-0.39-1.07-1.24-1.81-2.87-1.81c-1.38,0-2.37,0.62-2.87,1.63v-1.38h-3.34v9.19
		h3.34v-4.51c0-1.38,0.39-2.29,1.48-2.29c1.01,0,1.26,0.66,1.26,1.92v4.89h3.34v-4.51c0-1.38,0.37-2.29,1.48-2.29
		c1.01,0,1.24,0.66,1.24,1.92v4.89h3.34v-5.77C409.68,589.3,408.94,587.55,406.4,587.55z"/>
	<rect x="413.27" y="584.01" width="3.5" height="12.99"/>
	<path d="M426.9,594.19c0-1.79-1.2-2.72-3.26-3.05l-1.79-0.31c-0.31-0.04-0.56-0.21-0.56-0.52c0-0.41,0.37-0.66,1.01-0.66
		c1.03,0,1.61,0.41,1.73,1.07l2.74-0.08c-0.19-1.92-1.75-3.09-4.41-3.09c-2.58,0-4.16,1.3-4.16,3.11c0,1.88,1.18,2.6,3.4,2.95
		l1.36,0.21c0.64,0.1,0.85,0.35,0.85,0.7c0,0.37-0.39,0.64-1.13,0.64c-1.01,0-1.63-0.43-1.75-1.2l-2.91,0.04
		c0.19,2.23,2.08,3.24,4.62,3.24C425.25,597.24,426.9,596.13,426.9,594.19z"/>
	<path d="M433.56,594.48h5.07l0.97,2.51h3.73l-5.17-12.99h-3.92l-5.17,12.99h3.52L433.56,594.48z M436.05,588.03h0.08l1.48,3.83
		h-3.05L436.05,588.03z"/>
	<polygon points="458.8,584.01 455.31,584.01 452.1,592.64 452.01,592.64 448.8,584.01 445.13,584.01 450.12,596.99 453.81,596.99 	
		"/>
	<rect x="459.7" y="587.8" width="3.34" height="9.19"/>
	<rect x="459.68" y="584.01" width="3.38" height="2.93"/>
	<path d="M464.85,587.8v9.19h3.34v-4.21c0-1.55,0.76-2.12,2-2.12c0.64,0,1.13,0.12,1.59,0.39l0.21-3.15
		c-0.23-0.19-0.72-0.35-1.28-0.35c-1.22,0-2.19,0.85-2.52,1.88v-1.63H464.85z"/>
	<path d="M472.91,587.8v5.79c0,1.92,0.76,3.65,3.28,3.65c1.38,0,2.39-0.6,2.89-1.63v1.38h3.34v-9.19h-3.34v4.51
		c0,1.4-0.41,2.31-1.46,2.31c-1.01,0-1.36-0.68-1.36-1.92v-4.91H472.91z"/>
	<path d="M488.22,595.16c-1.01,0-1.63-0.43-1.75-1.2l-2.91,0.04c0.19,2.23,2.08,3.24,4.62,3.24c2.62,0,4.27-1.11,4.27-3.05
		c0-1.79-1.2-2.72-3.26-3.05l-1.79-0.31c-0.31-0.04-0.56-0.21-0.56-0.52c0-0.41,0.37-0.66,1.01-0.66c1.03,0,1.61,0.41,1.73,1.07
		l2.74-0.08c-0.19-1.92-1.75-3.09-4.41-3.09c-2.58,0-4.16,1.3-4.16,3.11c0,1.88,1.17,2.6,3.4,2.95l1.36,0.21
		c0.64,0.1,0.85,0.35,0.85,0.7C489.36,594.89,488.97,595.16,488.22,595.16z"/>
</g>
<g id="exp_white_bg" class="st0">
	<g class="st2">
		<polygon class="st5" points="304.4,591.51 306.17,591.51 306.66,589.49 304.89,589.49 		"/>
		<path class="st5" d="M467.41,143.82c-7.42,0-10.71,4.57-11.56,10.57h22.42C477.97,148.68,474.26,143.82,467.41,143.82z"/>
		<path class="st5" d="M393.45,143.82c-7.42,0-10.71,4.57-11.56,10.57h22.42C404.02,148.68,400.3,143.82,393.45,143.82z"/>
		<path class="st5" d="M527.51,25.37c1.55,0,2.68-0.31,2.68-0.87c0-0.39-0.29-0.54-0.84-0.54h-3.38c-0.37,0-0.62,0.21-0.62,0.56
			C525.35,25.18,526.27,25.37,527.51,25.37z"/>
		<path class="st5" d="M527.76,18.61c0.56,0,0.97-0.52,0.97-1.34c0-0.8-0.41-1.32-0.97-1.32s-0.97,0.52-0.97,1.32
			C526.79,18.09,527.2,18.61,527.76,18.61z"/>
		<path class="st5" d="M532.8,161.24c0,9.28,5,15.28,12.85,15.28c9,0,13.14-6.42,13.14-15.71c0-9.14-4.14-15.56-13.14-15.56
			c-7.85,0-12.85,6-12.85,15.13V161.24z"/>
		<path class="st5" d="M509.1,21.29c1.15,0,1.67-0.95,1.67-2.33c0-1.38-0.52-2.33-1.67-2.33c-1.17,0-1.67,0.95-1.67,2.33
			C507.43,20.34,507.93,21.29,509.1,21.29z"/>
		<path class="st5" d="M0,1224h792V0H0V1224z M409.68,596.99h-3.34v-4.89c0-1.26-0.23-1.92-1.24-1.92c-1.11,0-1.48,0.91-1.48,2.29
			v4.51h-3.34v-4.89c0-1.26-0.25-1.92-1.26-1.92c-1.09,0-1.48,0.91-1.48,2.29v4.51h-3.34v-9.19h3.34v1.38
			c0.5-1.01,1.48-1.63,2.87-1.63c1.63,0,2.47,0.74,2.87,1.81c0.49-1.03,1.59-1.81,3.13-1.81c2.54,0,3.28,1.75,3.28,3.67V596.99z
			 M388.99,593.82l-1.36-0.21c-2.23-0.35-3.4-1.07-3.4-2.95c0-1.81,1.59-3.11,4.16-3.11c2.66,0,4.23,1.18,4.41,3.09l-2.74,0.08
			c-0.12-0.66-0.7-1.07-1.73-1.07c-0.64,0-1.01,0.25-1.01,0.66c0,0.31,0.25,0.47,0.56,0.52l1.79,0.31c2.06,0.33,3.26,1.26,3.26,3.05
			c0,1.94-1.65,3.05-4.27,3.05c-2.54,0-4.43-1.01-4.62-3.24l2.91-0.04c0.12,0.76,0.74,1.2,1.75,1.2c0.74,0,1.13-0.27,1.13-0.64
			C389.83,594.17,389.63,593.92,388.99,593.82z M363.91,474.46l-14.71-38.2h-77.02l-14.71,38.2h-53.54l78.58-197.24H342
			l78.58,197.24H363.91z M379.53,586.93v-2.93h3.38v2.93H379.53z M382.89,587.8v9.19h-3.34v-9.19H382.89z M377.73,584.01v12.99
			h-3.34v-12.99H377.73z M367.7,590.03c-0.74,0-1.11,0.47-1.26,1.15l-3.09-0.21c0.29-2.02,1.79-3.42,4.56-3.42
			c2.43,0,4.23,1.05,4.23,3.61v3.13c0,0.47,0.21,0.68,0.56,0.68c0.27,0,0.47-0.04,0.74-0.14v1.77c-0.47,0.33-1.13,0.6-2.08,0.6
			c-1.13,0-2.02-0.58-2.33-1.63c-0.54,1.07-1.59,1.63-3.05,1.63c-1.79,0-2.97-0.93-2.97-2.49c0-1.77,1.28-2.54,3.28-2.89l2.58-0.43
			v-0.14C368.85,590.48,368.5,590.03,367.7,590.03z M355.25,590.11v-2.06l0.68-0.1c0.93-0.14,1.22-0.64,1.44-1.48l0.31-1.2h2.1v2.54
			h2.39v2.31h-2.39v3.36c0,0.78,0.37,1.09,1.05,1.09c0.41,0,0.87-0.08,1.42-0.31v2.16c-0.7,0.52-1.5,0.82-2.76,0.82
			c-1.55,0-3.01-0.64-3.01-2.8v-4.33H355.25z M350.98,586.93v-2.93h3.38v2.93H350.98z M354.34,587.8v9.19H351v-9.19H354.34z
			 M345.6,587.55c2.7,0,4.08,2.14,4.08,4.84c0,2.72-1.38,4.84-4.08,4.84c-1.55,0-2.58-0.74-3.03-1.81v4.87h-3.34V587.8h3.34v1.59
			C343.03,588.29,344.06,587.55,345.6,587.55z M332.54,590.03c-0.74,0-1.11,0.47-1.26,1.15l-3.09-0.21
			c0.29-2.02,1.79-3.42,4.56-3.42c2.43,0,4.23,1.05,4.23,3.61v3.13c0,0.47,0.21,0.68,0.56,0.68c0.27,0,0.47-0.04,0.74-0.14v1.77
			c-0.47,0.33-1.13,0.6-2.08,0.6c-1.13,0-2.02-0.58-2.33-1.63c-0.54,1.07-1.59,1.63-3.05,1.63c-1.79,0-2.97-0.93-2.97-2.49
			c0-1.77,1.28-2.54,3.28-2.89l2.58-0.43v-0.14C333.69,590.48,333.34,590.03,332.54,590.03z M320.73,594.13
			c2.02,0,2.8-1.34,3.01-2.78l3.36,0.14c-0.25,3.24-2.37,5.75-6.35,5.75c-3.79,0-6.66-2.74-6.66-6.74c0-4,2.87-6.74,6.66-6.74
			c3.98,0,6.1,2.54,6.35,5.77l-3.36,0.12c-0.21-1.44-0.99-2.78-3.01-2.78c-1.92,0-3.03,1.42-3.03,3.63
			C317.7,592.71,318.81,594.13,320.73,594.13z M310.64,591.51l-0.43,2.06h-2.04l-0.8,3.42h-2.49l0.8-3.42h-1.77l-0.8,3.42h-2.49
			l0.8-3.42h-1.81l0.43-2.06h1.88l0.5-2.02h-1.98l0.43-2.06h2.02l0.83-3.42h2.49l-0.83,3.42h1.77l0.82-3.42h2.49l-0.82,3.42h1.83
			l-0.43,2.06h-1.88l-0.5,2.02H310.64z M330.2,102.7h27.84l-34.7,38.26l36.41,51.69h-28.98l-24.99-35.84l-7.85,8.57v27.27h-24.27
			V102.7h24.27v36.41L330.2,102.7z M349.97,23.55v-9.19h3.34v9.19H349.97z M393.74,127.26c21.27,0,32.55,14.56,32.55,31.84v6.42
			H381.6c0.57,7.85,6.28,11.56,13.28,11.56c6.28,0,10.28-2.14,12.42-7.14l18.56,1.71c-3.28,14.56-14.99,22.7-31.84,22.7
			c-20.42,0-34.98-12.28-34.98-32.55C359.04,141.68,373.89,127.26,393.74,127.26z M378.52,23.55v-9.19h3.34v9.19H378.52z
			 M416.78,596.99h-3.5v-12.99h3.5V596.99z M418.01,594l2.91-0.04c0.12,0.76,0.74,1.2,1.75,1.2c0.74,0,1.13-0.27,1.13-0.64
			c0-0.35-0.21-0.6-0.85-0.7l-1.36-0.21c-2.23-0.35-3.4-1.07-3.4-2.95c0-1.81,1.59-3.11,4.16-3.11c2.66,0,4.23,1.18,4.41,3.09
			l-2.74,0.08c-0.12-0.66-0.7-1.07-1.73-1.07c-0.64,0-1.01,0.25-1.01,0.66c0,0.31,0.25,0.47,0.56,0.52l1.79,0.31
			c2.06,0.33,3.26,1.26,3.26,3.05c0,1.94-1.65,3.05-4.27,3.05C420.09,597.24,418.2,596.23,418.01,594z M761.72,1024.67
			c0-1.79,0.93-2.97,2.49-2.97c1.77,0,2.54,1.28,2.89,3.28l0.43,2.58h0.14c0.76,0,1.22-0.35,1.22-1.15c0-0.74-0.47-1.11-1.15-1.26
			l0.21-3.09c2.02,0.29,3.42,1.79,3.42,4.56c0,2.43-1.05,4.23-3.61,4.23h-3.13c-0.47,0-0.68,0.21-0.68,0.56
			c0,0.27,0.04,0.47,0.14,0.74h-1.77c-0.33-0.47-0.6-1.13-0.6-2.08c0-1.13,0.58-2.02,1.63-2.33
			C762.28,1027.18,761.72,1026.13,761.72,1024.67z M764.09,1067.29h-1.77c-0.33-0.47-0.6-1.13-0.6-2.08c0-1.13,0.58-2.02,1.63-2.33
			c-1.07-0.54-1.63-1.59-1.63-3.05c0-1.79,0.93-2.97,2.49-2.97c1.77,0,2.54,1.28,2.89,3.28l0.43,2.58h0.14
			c0.76,0,1.22-0.35,1.22-1.15c0-0.74-0.47-1.11-1.15-1.26l0.21-3.09c2.02,0.29,3.42,1.79,3.42,4.56c0,2.43-1.05,4.23-3.61,4.23
			h-3.13c-0.47,0-0.68,0.21-0.68,0.56C763.95,1066.82,763.99,1067.02,764.09,1067.29z M771.37,1100.27c0,2.54-1.75,3.28-3.67,3.28
			h-5.77v-3.34h4.89c1.26,0,1.92-0.23,1.92-1.24c0-1.11-0.91-1.48-2.29-1.48h-4.51v-3.34h4.89c1.26,0,1.92-0.25,1.92-1.26
			c0-1.09-0.91-1.48-2.29-1.48h-4.51v-3.34h9.19v3.34h-1.38c1.01,0.49,1.63,1.48,1.63,2.87c0,1.63-0.74,2.47-1.81,2.87
			C770.59,1097.63,771.37,1098.72,771.37,1100.27z M768.28,1086.67l-0.08-2.74c0.66-0.12,1.07-0.7,1.07-1.73
			c0-0.64-0.25-1.01-0.66-1.01c-0.31,0-0.47,0.25-0.51,0.56l-0.31,1.79c-0.33,2.06-1.26,3.26-3.05,3.26c-1.94,0-3.05-1.65-3.05-4.27
			c0-2.54,1.01-4.43,3.24-4.62l0.04,2.91c-0.76,0.12-1.2,0.74-1.2,1.75c0,0.74,0.27,1.13,0.64,1.13c0.35,0,0.6-0.21,0.7-0.85
			l0.21-1.36c0.35-2.23,1.07-3.4,2.95-3.4c1.81,0,3.11,1.59,3.11,4.16C771.37,1084.91,770.2,1086.48,768.28,1086.67z M764.4,1117.67
			c0.35,0,0.6-0.21,0.7-0.85l0.21-1.36c0.35-2.23,1.07-3.4,2.95-3.4c1.81,0,3.11,1.59,3.11,4.16c0,2.66-1.17,4.23-3.09,4.41
			l-0.08-2.74c0.66-0.12,1.07-0.7,1.07-1.73c0-0.64-0.25-1.01-0.66-1.01c-0.31,0-0.47,0.25-0.51,0.56l-0.31,1.79
			c-0.33,2.06-1.26,3.26-3.05,3.26c-1.94,0-3.05-1.65-3.05-4.27c0-2.54,1.01-4.43,3.24-4.62l0.04,2.91c-0.76,0.12-1.2,0.74-1.2,1.75
			C763.76,1117.28,764.03,1117.67,764.4,1117.67z M761.93,1153.56h9.19v3.34h-9.19V1153.56z M766.61,1172.94h4.51v3.34h-9.19v-3.34
			h1.38c-1.03-0.49-1.63-1.5-1.63-2.89c0-2.52,1.73-3.28,3.65-3.28h5.79v3.34h-4.91c-1.24,0-1.92,0.35-1.92,1.36
			C764.3,1172.53,765.21,1172.94,766.61,1172.94z M771.12,1076.75h-9.19v-3.34h9.19V1076.75z M771.12,1053.65v2.39h-2.31v-2.39
			h-3.36c-0.78,0-1.09,0.37-1.09,1.05c0,0.41,0.08,0.87,0.31,1.42h-2.16c-0.52-0.7-0.82-1.5-0.82-2.76c0-1.55,0.64-3.01,2.8-3.01
			h4.33v-1.24h2.06l0.1,0.68c0.14,0.93,0.64,1.22,1.48,1.44l1.2,0.31v2.1H771.12z M761.93,1048.21v-3.34h9.19v3.34H761.93z
			 M771.12,1033.1v3.34h-1.59c1.09,0.45,1.83,1.48,1.83,3.03c0,2.7-2.14,4.08-4.84,4.08c-2.72,0-4.84-1.38-4.84-4.08
			c0-1.55,0.74-2.58,1.81-3.03h-4.86v-3.34H771.12z M768.28,1186.19l-0.08-2.74c0.66-0.12,1.07-0.7,1.07-1.73
			c0-0.64-0.25-1.01-0.66-1.01c-0.31,0-0.47,0.25-0.51,0.56l-0.31,1.79c-0.33,2.06-1.26,3.26-3.05,3.26c-1.94,0-3.05-1.65-3.05-4.27
			c0-2.54,1.01-4.43,3.24-4.62l0.04,2.91c-0.76,0.12-1.2,0.74-1.2,1.75c0,0.74,0.27,1.13,0.64,1.13c0.35,0,0.6-0.21,0.7-0.85
			l0.21-1.36c0.35-2.23,1.07-3.4,2.95-3.4c1.81,0,3.11,1.59,3.11,4.16C771.37,1184.44,770.2,1186.01,768.28,1186.19z
			 M771.02,1165.85l-3.15-0.21c0.27-0.45,0.39-0.95,0.39-1.59c0-1.24-0.58-2-2.12-2h-4.21v-3.34h9.19v3.34h-1.63
			c1.03,0.33,1.88,1.3,1.88,2.52C771.37,1165.13,771.21,1165.62,771.02,1165.85z M774.92,1156.93h-2.93v-3.38h2.93V1156.93z
			 M774.92,1142.66l-8.64,3.22v0.08l8.64,3.22v3.48l-12.99-4.99v-3.69l12.99-4.99V1142.66z M774.92,1132.02l-12.99,5.17v-3.73
			l2.51-0.97v-5.07l-2.51-0.97v-3.53l12.99,5.17V1132.02z M774.92,1110.64h-12.99v-3.5h12.99V1110.64z M774.92,1076.77h-2.93v-3.38
			h2.93V1076.77z M774.92,1071.6h-12.99v-3.34h12.99V1071.6z M774.92,1048.23h-2.93v-3.38h2.93V1048.23z M769.39,1020.96l-0.12-3.36
			c1.44-0.21,2.78-0.99,2.78-3.01c0-1.92-1.42-3.03-3.63-3.03c-2.21,0-3.63,1.11-3.63,3.03c0,2.02,1.34,2.8,2.78,3.01l-0.14,3.36
			c-3.24-0.25-5.75-2.37-5.75-6.35c0-3.79,2.74-6.66,6.74-6.66c4,0,6.74,2.87,6.74,6.66
			C775.16,1018.59,772.63,1020.71,769.39,1020.96z M761.93,996.96v-2.49l3.42,0.8v-1.81l2.06,0.43v1.88l2.02,0.49v-1.98l2.06,0.43
			v2.02l3.42,0.82v2.49l-3.42-0.82v1.77l3.42,0.82v2.49l-3.42-0.82v1.83l-2.06-0.43v-1.88l-2.02-0.49v1.98l-2.06-0.43v-2.04
			l-3.42-0.8v-2.49l3.42,0.8v-1.77L761.93,996.96z M779.77,786.28c2.96,3.28,2.69,8.34-0.59,11.3
			c-6.58,5.93-12.47,11.13-17.66,15.73c-5.8,5.13-10.9,9.64-15.22,13.61c-0.54,0.5-1.07,0.99-1.59,1.47
			c-2.01,1.87-3.54,4.06-4.54,6.39c-1.08,2.52-1.52,5.19-1.22,7.77c2.32,20.26-5.26,40.1-23.17,60.65
			c-10,11.47-24.39,26.25-38.57,40.33c-40.43,40.39-63.51,61.9-65.28,63.54c-5.57,5.51-12.85,8.26-20.13,8.26
			c-7.33,0-14.67-2.79-20.25-8.37c-3.15-3.15-5.47-6.91-6.86-11.01l-29.11,29.11c-5.75,5.75-13.3,8.62-20.86,8.62
			c-7.55,0-15.11-2.87-20.86-8.62c-3.49-3.49-5.91-7.64-7.28-12.05c-5.22,4.21-11.67,6.51-18.48,6.51c-7.88,0-15.29-3.07-20.86-8.64
			c-10.66-10.66-11.43-27.51-2.33-39.07c-4.19-1.38-8.03-3.73-11.24-6.94c-5.41-5.41-8.39-12.6-8.39-20.25
			c0-7.65,2.98-14.84,8.39-20.25l83.03-83.03c-7.86,1.29-16.46,2.56-25.29,3.62c-1.31,0.16-2.61,0.24-3.9,0.24
			c-9.16,0-17.9-3.89-24.46-10.99c-7.24-7.83-10.76-18.59-8.98-27.41c1.89-9.37,9.73-11.94,16.03-14c2.16-0.71,4.4-1.44,6.78-2.45
			c15.6-6.62,52.07-21.72,52.43-21.87c0.11-0.04,0.21-0.09,0.32-0.13c0.17-0.06,17.89-6.58,44.79-20.5
			c17.2-8.9,48.6-6.53,60.15-5.27c7.52-7.66,16.31-17.15,28-29.75c18.43-19.88,43.66-47.11,80.71-85.21
			c3.08-3.17,8.14-3.24,11.31-0.16c3.17,3.08,3.24,8.14,0.16,11.31c-12.72,13.08-24.04,24.87-34.16,35.53
			c-19.28,20.28-34.24,36.42-46.28,49.41c-13.25,14.29-22.81,24.62-31.15,32.95c-1.77,1.77-4.26,2.61-6.74,2.27
			c-10.7-1.45-41.38-3.72-54.64,3.14c-26.78,13.86-44.45,20.5-46.49,21.26c-2.57,1.06-37.13,15.38-52.15,21.75
			c-3.01,1.28-5.69,2.15-8.06,2.93c-1.9,0.62-4.46,1.46-5.34,2.04c-0.59,3.15,0.74,8.61,5.07,13.3c2.33,2.52,7.33,6.61,14.7,5.72
			c30.79-3.71,59.85-10.24,60.14-10.3c2.21-0.5,4.53-0.04,6.38,1.27c0.9,0.62,23.09,15.64,52.57,4.62c2.54-0.95,5.27-0.52,7.35,0.92
			c1.3,0.9,2.35,2.18,2.95,3.78c1.55,4.14-0.56,8.75-4.69,10.29c-30.88,11.54-55.68,0.3-64.24-4.57c-1.43,0.31-3.3,0.7-5.54,1.16
			l-0.73,0.73l-98.72,98.72c-2.39,2.39-3.7,5.56-3.7,8.94c0,3.38,1.31,6.55,3.7,8.94c2.39,2.39,5.56,3.7,8.94,3.7
			s6.55-1.31,8.93-3.7l25.6-25.6l64.1-64.1c0.71-0.71,1.53-1.26,2.4-1.64c2.94-1.31,6.5-0.77,8.91,1.64c3.12,3.12,3.12,8.19,0,11.31
			l-9.29,9.29c0,0,0,0,0,0l-0.48,0.48l-95.54,95.54c-5.26,5.26-5.26,13.82,0,19.09c2.55,2.55,5.94,3.95,9.54,3.95
			c3.61,0,6.99-1.4,9.54-3.95l93.44-93.44c0.16-0.16,0.33-0.31,0.5-0.45l-0.02-0.03l12.72-12.72c3.12-3.12,8.19-3.12,11.31,0
			c2.94,2.94,3.11,7.58,0.53,10.73c-0.17,0.2-0.34,0.4-0.53,0.59l-13.19,13.2c0,0,0,0,0,0l-77.22,77.22
			c-5.26,5.26-5.26,13.82,0,19.08c5.26,5.26,13.82,5.26,19.08,0l47.29-47.29v0l45.59-45.59l0.56-0.56c0.68-0.68,1.46-1.21,2.29-1.59
			c2.13-0.99,4.6-0.99,6.73,0c0.83,0.38,1.61,0.91,2.29,1.59c1.99,1.99,2.71,4.77,2.16,7.33c-0.31,1.46-1.03,2.85-2.16,3.98
			l-46.15,46.15c-2.39,2.39-3.7,5.56-3.7,8.94c0,3.38,1.31,6.55,3.7,8.94c4.93,4.93,12.95,4.93,17.87,0
			c0.07-0.07,0.15-0.14,0.22-0.21c0.23-0.21,22.43-20.8,62.57-60.85l-0.03-0.01c14.78-14.62,30.01-30.18,40.22-41.89
			c10.94-12.55,17.15-24.11,19.02-35.56c0.69-4.25,0.81-8.49,0.32-12.76c-1.15-10.01,2.88-20.37,10.76-27.7
			c4.79-4.46,10.5-9.5,17.11-15.35c5.17-4.57,11.03-9.75,17.56-15.63C771.76,782.73,776.82,782.99,779.77,786.28z M445.13,584.01
			h3.67l3.22,8.64h0.08l3.22-8.64h3.48l-4.99,12.99h-3.69L445.13,584.01z M459.68,586.93v-2.93h3.38v2.93H459.68z M463.04,587.8
			v9.19h-3.34v-9.19H463.04z M470.71,587.55c0.56,0,1.05,0.17,1.28,0.35l-0.21,3.15c-0.45-0.27-0.95-0.39-1.59-0.39
			c-1.24,0-2,0.58-2,2.12v4.21h-3.34v-9.19h3.34v1.63C468.52,588.4,469.49,587.55,470.71,587.55z M477.61,594.62
			c1.05,0,1.46-0.91,1.46-2.31v-4.51h3.34v9.19h-3.34v-1.38c-0.49,1.03-1.5,1.63-2.89,1.63c-2.51,0-3.28-1.73-3.28-3.65v-5.79h3.34
			v4.91C476.25,593.94,476.6,594.62,477.61,594.62z M488.51,593.82l-1.36-0.21c-2.23-0.35-3.4-1.07-3.4-2.95
			c0-1.81,1.59-3.11,4.16-3.11c2.66,0,4.23,1.18,4.41,3.09l-2.74,0.08c-0.12-0.66-0.7-1.07-1.73-1.07c-0.64,0-1.01,0.25-1.01,0.66
			c0,0.31,0.25,0.47,0.56,0.52l1.79,0.31c2.06,0.33,3.26,1.26,3.26,3.05c0,1.94-1.65,3.05-4.27,3.05c-2.54,0-4.43-1.01-4.62-3.24
			l2.91-0.04c0.12,0.76,0.74,1.2,1.75,1.2c0.74,0,1.13-0.27,1.13-0.64C489.36,594.17,489.15,593.92,488.51,593.82z M740.83,170.66
			l-9.42-1.43c-15.42-2.43-23.56-7.42-23.56-20.42c0-12.56,10.99-21.56,28.84-21.56c18.42,0,29.27,8.14,30.55,21.42l-18.99,0.57
			c-0.86-4.57-4.85-7.42-11.99-7.42c-4.43,0-7,1.71-7,4.57c0,2.14,1.71,3.28,3.86,3.57l12.42,2.14
			c14.28,2.28,22.56,8.71,22.56,21.13c0,13.42-11.42,21.13-29.55,21.13c-17.56,0-30.7-7-31.98-22.42l20.13-0.29
			c0.86,5.28,5.14,8.28,12.14,8.28c5.14,0,7.85-1.86,7.85-4.43C746.68,173.09,745.25,171.38,740.83,170.66z M616.9,102.7h24.13
			v50.26c0,13.71,4.28,20.99,16.7,20.99c12.56,0,16.71-7.28,16.71-20.99V102.7h24.27v54.25c0,26.27-17.85,37.41-40.98,37.41
			c-23.13,0-40.83-11.14-40.83-37.41V102.7z M607.48,277.22h152.47v43.83H659.77v32.25h77.33v43.21h-77.33v34.13h103v43.83H607.48
			V277.22z M584.63,321.05h-95.8v37.88h72.01v43.21h-72.01v72.32H435.6V277.22h149.03V321.05z M467.69,127.26
			c21.27,0,32.55,14.56,32.55,31.84v6.42h-44.69c0.57,7.85,6.28,11.56,13.28,11.56c6.28,0,10.28-2.14,12.42-7.14l18.56,1.71
			c-3.28,14.56-14.99,22.7-31.84,22.7c-20.42,0-34.98-12.28-34.98-32.55C433,141.68,447.85,127.26,467.69,127.26z M462.05,23.55
			v-9.19h3.34v9.19H462.05z M553.79,127.26c18.7,0,28.27,14.85,28.27,33.55c0,18.85-9.57,33.55-28.27,33.55
			c-10.71,0-17.85-5.14-20.99-12.56v33.7h-23.13v-86.52h23.13v10.99C535.94,132.4,543.08,127.26,553.79,127.26z M523.04,21.53
			c0-0.89,0.58-1.57,1.57-1.94c-0.82-0.54-1.32-1.32-1.32-2.33c0-1.96,1.86-3.15,4.43-3.15c1.11,0,2.16,0.27,2.95,0.74
			c0.56-0.76,1.57-1.42,2.58-1.42v2.51c-0.39,0-0.89,0.04-1.34,0.14c0.19,0.35,0.29,0.74,0.29,1.17c0,1.94-1.88,3.13-4.47,3.13
			c-0.74,0-1.4-0.08-2-0.27c-0.12,0.1-0.19,0.25-0.19,0.43c0,0.31,0.23,0.56,0.78,0.56h3.81c2.08,0,3.13,1.09,3.13,2.64
			c0,2.29-2.78,3.34-5.77,3.34c-2.62,0-4.89-0.52-4.89-2.25c0-0.8,0.72-1.44,1.75-1.53C523.53,23.06,523.04,22.32,523.04,21.53z
			 M515.45,14.36h3.34v1.63c0.33-1.03,1.3-1.88,2.52-1.88c0.56,0,1.05,0.16,1.28,0.35l-0.21,3.15c-0.45-0.27-0.95-0.39-1.59-0.39
			c-1.24,0-2,0.58-2,2.12v4.21h-3.34V14.36z M509.1,14.11c2.99,0,5.03,2,5.03,4.84c0,2.87-2.04,4.84-5.03,4.84
			c-3.01,0-5.03-1.98-5.03-4.84C504.07,16.11,506.09,14.11,509.1,14.11z M497.64,20.01h3.55v3.55h-3.55V20.01z M490.87,20.38
			l-1.36-0.21c-2.23-0.35-3.4-1.07-3.4-2.95c0-1.81,1.59-3.11,4.16-3.11c2.66,0,4.23,1.18,4.41,3.09l-2.74,0.08
			c-0.12-0.66-0.7-1.07-1.73-1.07c-0.64,0-1.01,0.25-1.01,0.66c0,0.31,0.25,0.47,0.56,0.52l1.79,0.31c2.06,0.33,3.26,1.26,3.26,3.05
			c0,1.94-1.65,3.05-4.27,3.05c-2.54,0-4.43-1.01-4.62-3.24l2.91-0.04c0.12,0.76,0.74,1.2,1.75,1.2c0.74,0,1.13-0.27,1.13-0.64
			C491.71,20.73,491.5,20.48,490.87,20.38z M475.26,14.36h3.34v4.91c0,1.24,0.35,1.92,1.36,1.92c1.05,0,1.46-0.91,1.46-2.31v-4.51
			h3.34v9.19h-3.34v-1.38c-0.5,1.03-1.5,1.63-2.89,1.63c-2.52,0-3.28-1.73-3.28-3.65V14.36z M467.2,14.36h3.34v1.63
			c0.33-1.03,1.3-1.88,2.51-1.88c0.56,0,1.05,0.16,1.28,0.35l-0.21,3.15c-0.45-0.27-0.95-0.39-1.59-0.39c-1.24,0-2,0.58-2,2.12v4.21
			h-3.34V14.36z M462.03,10.57h3.38v2.93h-3.38V10.57z M451.15,10.57l3.22,8.64h0.08l3.22-8.64h3.48l-4.99,12.99h-3.69l-4.99-12.99
			H451.15z M436.54,10.57h3.92l5.17,12.99h-3.73l-0.97-2.52h-5.07l-0.97,2.52h-3.52L436.54,10.57z M434.24,584.01h3.92l5.17,12.99
			h-3.73l-0.97-2.51h-5.07l-0.97,2.51h-3.52L434.24,584.01z M423.59,20.38l-1.36-0.21c-2.23-0.35-3.4-1.07-3.4-2.95
			c0-1.81,1.59-3.11,4.16-3.11c2.66,0,4.23,1.18,4.41,3.09l-2.74,0.08c-0.12-0.66-0.7-1.07-1.73-1.07c-0.64,0-1.01,0.25-1.01,0.66
			c0,0.31,0.25,0.47,0.56,0.52l1.79,0.31c2.06,0.33,3.26,1.26,3.26,3.05c0,1.94-1.65,3.05-4.27,3.05c-2.54,0-4.43-1.01-4.62-3.24
			l2.91-0.04c0.12,0.76,0.74,1.2,1.75,1.2c0.74,0,1.13-0.27,1.13-0.64C424.44,20.73,424.23,20.48,423.59,20.38z M413.91,10.57h3.5
			v12.99h-3.5V10.57z M393.17,14.36h3.34v1.38c0.5-1.01,1.48-1.63,2.87-1.63c1.63,0,2.47,0.74,2.87,1.81
			c0.49-1.03,1.59-1.81,3.13-1.81c2.54,0,3.28,1.75,3.28,3.67v5.77h-3.34v-4.89c0-1.26-0.23-1.92-1.24-1.92
			c-1.11,0-1.48,0.91-1.48,2.29v4.51h-3.34v-4.89c0-1.26-0.25-1.92-1.26-1.92c-1.09,0-1.48,0.91-1.48,2.29v4.51h-3.34V14.36z
			 M387.96,20.38l-1.36-0.21c-2.23-0.35-3.4-1.07-3.4-2.95c0-1.81,1.59-3.11,4.16-3.11c2.66,0,4.23,1.18,4.41,3.09l-2.74,0.08
			c-0.12-0.66-0.7-1.07-1.73-1.07c-0.64,0-1.01,0.25-1.01,0.66c0,0.31,0.25,0.47,0.56,0.52l1.79,0.31c2.06,0.33,3.26,1.26,3.26,3.05
			c0,1.94-1.65,3.05-4.27,3.05c-2.54,0-4.43-1.01-4.62-3.24l2.91-0.04c0.12,0.76,0.74,1.2,1.75,1.2c0.74,0,1.13-0.27,1.13-0.64
			C388.8,20.73,388.6,20.48,387.96,20.38z M378.5,10.57h3.38v2.93h-3.38V10.57z M373.37,10.57h3.34v12.99h-3.34V10.57z
			 M366.67,16.59c-0.74,0-1.11,0.47-1.26,1.15l-3.09-0.21c0.29-2.02,1.79-3.42,4.56-3.42c2.43,0,4.23,1.05,4.23,3.61v3.13
			c0,0.47,0.21,0.68,0.56,0.68c0.27,0,0.47-0.04,0.74-0.14v1.77c-0.47,0.33-1.13,0.6-2.08,0.6c-1.13,0-2.02-0.58-2.33-1.63
			c-0.54,1.07-1.59,1.63-3.05,1.63c-1.79,0-2.97-0.93-2.97-2.49c0-1.77,1.28-2.54,3.28-2.89l2.58-0.43V17.8
			C367.82,17.04,367.47,16.59,366.67,16.59z M354.22,14.61l0.68-0.1c0.93-0.14,1.22-0.64,1.44-1.48l0.31-1.2h2.1v2.54h2.39v2.31
			h-2.39v3.36c0,0.78,0.37,1.09,1.05,1.09c0.41,0,0.87-0.08,1.42-0.31v2.16c-0.7,0.52-1.5,0.82-2.76,0.82
			c-1.55,0-3.01-0.64-3.01-2.8v-4.33h-1.24V14.61z M349.95,10.57h3.38v2.93h-3.38V10.57z M338.2,14.36h3.34v1.59
			c0.45-1.09,1.48-1.83,3.03-1.83c2.7,0,4.08,2.14,4.08,4.84c0,2.72-1.38,4.84-4.08,4.84c-1.55,0-2.58-0.74-3.03-1.81v4.87h-3.34
			V14.36z M331.51,16.59c-0.74,0-1.11,0.47-1.26,1.15l-3.09-0.21c0.29-2.02,1.79-3.42,4.56-3.42c2.43,0,4.23,1.05,4.23,3.61v3.13
			c0,0.47,0.21,0.68,0.56,0.68c0.27,0,0.47-0.04,0.74-0.14v1.77c-0.47,0.33-1.13,0.6-2.08,0.6c-1.13,0-2.02-0.58-2.33-1.63
			c-0.54,1.07-1.59,1.63-3.05,1.63c-1.79,0-2.97-0.93-2.97-2.49c0-1.77,1.28-2.54,3.28-2.89l2.58-0.43V17.8
			C332.66,17.04,332.31,16.59,331.51,16.59z M319.72,10.32c3.98,0,6.1,2.54,6.35,5.77l-3.36,0.12c-0.21-1.44-0.99-2.78-3.01-2.78
			c-1.92,0-3.03,1.42-3.03,3.63s1.11,3.63,3.03,3.63c2.02,0,2.8-1.34,3.01-2.78l3.36,0.14c-0.25,3.24-2.37,5.75-6.35,5.75
			c-3.79,0-6.66-2.74-6.66-6.74S315.92,10.32,319.72,10.32z M306.63,20.01h3.55v3.55h-3.55V20.01z M262.3,14.36l1.65,5.22h0.08
			l1.34-5.22h2.66l1.34,5.22h0.08l1.65-5.22h2.92h0.09h3.23l1.65,5.22h0.08l1.34-5.22h2.66l1.34,5.22h0.08l1.65-5.22h2.92h0.08h3.23
			l1.65,5.22h0.08l1.34-5.22h2.66l1.34,5.22h0.08l1.65-5.22h3.01l-2.91,9.19h-3.28l-1.34-5.19h-0.08l-1.34,5.19h-3.28l-2.86-9.06
			l-2.86,9.06h-3.28l-1.34-5.19h-0.08l-1.34,5.19h-3.28l-2.86-9.06l-2.86,9.06h-3.28l-1.34-5.19h-0.08l-1.34,5.19h-3.28l-2.91-9.19
			H262.3z M166.29,102.7h69.53v19.99h-45.69v14.71h35.27v19.7h-35.27v15.56h46.97v19.99h-70.82V102.7z M54.78,102.7l14.28,56.4h0.57
			l14.85-56.4h21.84l14.85,56.4h0.57l14.28-56.4h23.42l-23.56,89.95h-25.84l-14.99-56.83h-0.57l-14.99,56.83H54.06L30.5,102.7H54.78
			z M75.57,403.08c1.88,24.73,20.98,33.19,42.89,33.19c18.47,0,30.37-6.58,30.37-17.53c0-11.58-11.58-13.46-26.61-16.28l-36-6.26
			c-32.25-5.95-54.79-24.11-54.79-58.55c0-40.07,31.31-64.18,80.46-64.18c54.48,0,83.91,26.61,84.84,70.44l-48.84,0.94
			c-1.57-20.35-16.28-29.74-36.63-29.74c-17.53,0-27.55,6.89-27.55,17.85c0,9.08,7.51,12.52,19.72,14.71l37.26,6.57
			c41.33,7.2,60.11,28.8,60.11,61.05c0,41.95-36.32,62.93-82.34,62.93c-53.54,0-91.73-25.99-91.73-73.57L75.57,403.08z
			 M19.25,671.68c0,0.39,0.04,0.89,0.14,1.34c0.35-0.19,0.74-0.29,1.18-0.29c1.94,0,3.13,1.88,3.13,4.47c0,0.74-0.08,1.4-0.27,2
			c0.1,0.12,0.25,0.19,0.43,0.19c0.31,0,0.56-0.23,0.56-0.78v-3.81c0-2.08,1.09-3.13,2.64-3.13c2.29,0,3.34,2.78,3.34,5.77
			c0,2.62-0.52,4.89-2.25,4.89c-0.8,0-1.44-0.72-1.53-1.75c-0.27,0.82-1.01,1.32-1.79,1.32c-0.89,0-1.57-0.58-1.94-1.57
			c-0.54,0.82-1.32,1.32-2.33,1.32c-1.96,0-3.15-1.86-3.15-4.43c0-1.11,0.27-2.16,0.74-2.95c-0.76-0.56-1.42-1.57-1.42-2.58H19.25z
			 M27.07,875.15c0,1.79-0.93,2.97-2.49,2.97c-1.77,0-2.54-1.28-2.89-3.28l-0.43-2.58h-0.14c-0.76,0-1.22,0.35-1.22,1.15
			c0,0.74,0.47,1.11,1.15,1.26l-0.21,3.09c-2.02-0.29-3.42-1.79-3.42-4.56c0-2.43,1.05-4.23,3.61-4.23h3.13
			c0.47,0,0.68-0.21,0.68-0.56c0-0.27-0.04-0.47-0.14-0.74h1.77c0.33,0.47,0.6,1.13,0.6,2.08c0,1.13-0.58,2.02-1.63,2.33
			C26.51,872.63,27.07,873.69,27.07,875.15z M24.7,832.53h1.77c0.33,0.47,0.6,1.13,0.6,2.08c0,1.13-0.58,2.02-1.63,2.33
			c1.07,0.54,1.63,1.59,1.63,3.05c0,1.79-0.93,2.97-2.49,2.97c-1.77,0-2.54-1.28-2.89-3.28l-0.43-2.58h-0.14
			c-0.76,0-1.22,0.35-1.22,1.15c0,0.74,0.47,1.11,1.15,1.26l-0.21,3.09c-2.02-0.29-3.42-1.79-3.42-4.56c0-2.43,1.05-4.23,3.61-4.23
			h3.13c0.47,0,0.68-0.21,0.68-0.56C24.84,833,24.8,832.79,24.7,832.53z M17.42,799.55c0-2.54,1.75-3.28,3.67-3.28h5.77v3.34h-4.89
			c-1.26,0-1.92,0.23-1.92,1.24c0,1.11,0.91,1.48,2.29,1.48h4.51v3.34h-4.89c-1.26,0-1.92,0.25-1.92,1.26
			c0,1.09,0.91,1.48,2.29,1.48h4.51v3.34h-9.19v-3.34h1.38c-1.01-0.49-1.63-1.48-1.63-2.87c0-1.63,0.74-2.47,1.81-2.87
			C18.2,802.19,17.42,801.1,17.42,799.55z M20.51,813.15l0.08,2.74c-0.66,0.12-1.07,0.7-1.07,1.73c0,0.64,0.25,1.01,0.66,1.01
			c0.31,0,0.47-0.25,0.52-0.56l0.31-1.79c0.33-2.06,1.26-3.26,3.05-3.26c1.94,0,3.05,1.65,3.05,4.27c0,2.54-1.01,4.43-3.24,4.62
			l-0.04-2.91c0.76-0.12,1.2-0.74,1.2-1.75c0-0.74-0.27-1.13-0.64-1.13c-0.35,0-0.6,0.21-0.7,0.85l-0.21,1.36
			c-0.35,2.23-1.07,3.4-2.95,3.4c-1.81,0-3.11-1.59-3.11-4.16C17.42,814.91,18.59,813.34,20.51,813.15z M24.39,780.49
			c-0.35,0-0.6,0.21-0.7,0.85l-0.21,1.36c-0.35,2.23-1.07,3.4-2.95,3.4c-1.81,0-3.11-1.59-3.11-4.16c0-2.66,1.17-4.23,3.09-4.41
			l0.08,2.74c-0.66,0.12-1.07,0.7-1.07,1.73c0,0.64,0.25,1.01,0.66,1.01c0.31,0,0.47-0.25,0.52-0.56l0.31-1.79
			c0.33-2.06,1.26-3.26,3.05-3.26c1.94,0,3.05,1.65,3.05,4.27c0,2.54-1.01,4.43-3.24,4.62l-0.04-2.91c0.76-0.12,1.2-0.74,1.2-1.75
			C25.03,780.88,24.76,780.49,24.39,780.49z M22.66,686.13h4.21v3.34h-9.19v-3.34h1.63c-1.03-0.33-1.88-1.3-1.88-2.52
			c0-0.56,0.17-1.05,0.35-1.28l3.15,0.21c-0.27,0.45-0.39,0.95-0.39,1.59C20.53,685.37,21.11,686.13,22.66,686.13z M22.26,690.79
			c2.87,0,4.84,2.04,4.84,5.03c0,3.01-1.98,5.03-4.84,5.03c-2.84,0-4.84-2.02-4.84-5.03C17.42,692.83,19.42,690.79,22.26,690.79z
			 M26.86,703.73v3.55h-3.55v-3.55H26.86z M20.51,710.25l0.08,2.74c-0.66,0.12-1.07,0.7-1.07,1.73c0,0.64,0.25,1.01,0.66,1.01
			c0.31,0,0.47-0.25,0.52-0.56l0.31-1.79c0.33-2.06,1.26-3.26,3.05-3.26c1.94,0,3.05,1.65,3.05,4.27c0,2.54-1.01,4.43-3.24,4.62
			l-0.04-2.91c0.76-0.12,1.2-0.74,1.2-1.75c0-0.74-0.27-1.13-0.64-1.13c-0.35,0-0.6,0.21-0.7,0.85l-0.21,1.36
			c-0.35,2.23-1.07,3.4-2.95,3.4c-1.81,0-3.11-1.59-3.11-4.16C17.42,712,18.59,710.43,20.51,710.25z M22.18,723.5h-4.51v-3.34h9.19
			v3.34h-1.38c1.03,0.49,1.63,1.5,1.63,2.89c0,2.52-1.73,3.28-3.65,3.28h-5.79v-3.34h4.91c1.24,0,1.92-0.35,1.92-1.36
			C24.49,723.91,23.58,723.5,22.18,723.5z M17.77,730.59l3.15,0.21c-0.27,0.45-0.39,0.95-0.39,1.59c0,1.24,0.58,2,2.12,2h4.21v3.34
			h-9.19v-3.34h1.63c-1.03-0.33-1.88-1.3-1.88-2.52C17.42,731.31,17.58,730.82,17.77,730.59z M17.67,739.53h9.19v3.34h-9.19V739.53z
			 M17.67,823.07h9.19v3.34h-9.19V823.07z M17.67,846.17v-2.39h2.31v2.39h3.36c0.78,0,1.09-0.37,1.09-1.05
			c0-0.41-0.08-0.87-0.31-1.42h2.17c0.52,0.7,0.82,1.5,0.82,2.76c0,1.55-0.64,3.01-2.8,3.01h-4.33v1.24h-2.06l-0.1-0.68
			c-0.14-0.93-0.64-1.22-1.48-1.44l-1.2-0.31v-2.1H17.67z M26.86,851.61v3.34h-9.19v-3.34H26.86z M17.67,866.72v-3.34h1.59
			c-1.09-0.45-1.83-1.48-1.83-3.03c0-2.7,2.14-4.08,4.84-4.08c2.72,0,4.84,1.38,4.84,4.08c0,1.55-0.74,2.58-1.81,3.03h4.87v3.34
			H17.67z M13.87,739.51h2.93v3.38h-2.93V739.51z M13.87,753.78l8.64-3.22v-0.08l-8.64-3.22v-3.48l12.99,4.99v3.69l-12.99,4.99
			V753.78z M13.87,764.47l12.99-5.17v3.73L24.35,764v5.07l2.51,0.97v3.52l-12.99-5.17V764.47z M13.87,787.51h12.99v3.5H13.87V787.51
			z M13.87,823.05h2.93v3.38h-2.93V823.05z M13.87,828.22h12.99v3.34H13.87V828.22z M13.87,851.59h2.93v3.38h-2.93V851.59z
			 M19.4,878.86l0.12,3.36c-1.44,0.21-2.78,0.99-2.78,3.01c0,1.92,1.42,3.03,3.63,3.03c2.21,0,3.63-1.11,3.63-3.03
			c0-2.02-1.34-2.8-2.78-3.01l0.14-3.36c3.24,0.25,5.75,2.37,5.75,6.35c0,3.79-2.74,6.66-6.74,6.66c-4,0-6.74-2.87-6.74-6.66
			C13.63,881.23,16.16,879.1,19.4,878.86z M26.86,909.67v3.28l-9.06,2.86l9.06,2.86v3.28l-5.2,1.34v0.08l5.2,1.34v3.28l-9.06,2.86
			l9.06,2.86V937l-5.2,1.34v0.08l5.2,1.34v3.28l-9.19,2.91v-3.32l5.22-1.65v-0.08l-5.22-1.34v-2.66l5.22-1.34v-0.08l-5.22-1.65
			v-2.92v-0.09v-3.23l5.22-1.65v-0.08l-5.22-1.34v-2.66l5.22-1.34v-0.08l-5.22-1.65v-2.92v-0.09v-3.23l5.22-1.65v-0.08l-5.22-1.34
			v-2.66l5.22-1.34v-0.08l-5.22-1.65v-3.01l9.19,2.91v3.28l-5.2,1.34v0.08L26.86,909.67z M23.32,898.3v-3.55h3.55v3.55H23.32z
			 M12.63,1152.21c27.53-26.43,48.02-45.42,64.49-60.69c12.6-11.68,22.09-20.47,29.74-27.99c-1.26-11.55-3.63-42.96,5.27-60.15
			c13.92-26.89,20.43-44.61,20.5-44.79c0.04-0.11,0.08-0.21,0.12-0.32c0.15-0.37,15.25-36.84,21.87-52.43
			c1.01-2.38,1.74-4.62,2.45-6.78c2.06-6.3,4.63-14.14,14-16.03c8.82-1.78,19.58,1.75,27.41,8.98c8.1,7.49,12.02,17.83,10.75,28.37
			c-1.06,8.82-2.34,17.43-3.62,25.29l83.03-83.03c5.41-5.41,12.6-8.39,20.25-8.39c7.65,0,14.84,2.98,20.25,8.39
			c3.21,3.21,5.56,7.05,6.94,11.24c11.56-9.1,28.41-8.32,39.07,2.33c10.73,10.73,11.44,27.75,2.14,39.32
			c4.49,1.4,8.61,3.88,12.04,7.3c11.5,11.5,11.5,30.21,0,41.71l-29.11,29.11c4.1,1.39,7.86,3.71,11.01,6.86
			c5.41,5.41,8.39,12.6,8.39,20.25c0,7.6-2.94,14.74-8.27,20.14c-1.65,1.77-23.19,24.89-63.64,65.37
			c-14.05,14.15-28.79,28.49-40.23,38.47c-20.55,17.91-40.39,25.5-60.66,23.17c-2.59-0.3-5.26,0.15-7.77,1.22
			c-2.33,1-4.52,2.53-6.39,4.54c-0.48,0.52-0.97,1.05-1.47,1.59c-3.98,4.33-8.49,9.43-13.62,15.23c-4.59,5.19-9.8,11.07-15.72,17.66
			c-1.58,1.75-3.76,2.65-5.95,2.65c-1.91,0-3.82-0.68-5.35-2.05c-3.28-2.96-3.55-8.01-0.59-11.3c5.88-6.53,11.06-12.39,15.63-17.55
			c5.85-6.61,10.9-12.32,15.35-17.11c7.33-7.89,17.69-11.91,27.7-10.76c4.27,0.49,8.51,0.37,12.76-0.32
			c11.45-1.87,23.02-8.08,35.56-19.02c11.71-10.21,27.26-25.44,41.88-40.22l0.01,0.03c40.08-40.18,60.64-62.35,60.85-62.57
			c0.07-0.08,0.14-0.15,0.21-0.22c2.39-2.39,3.7-5.56,3.7-8.94c0-3.38-1.31-6.55-3.7-8.94c-2.39-2.39-5.56-3.7-8.93-3.7
			c-3.38,0-6.55,1.31-8.94,3.7l-46.15,46.15c-1.13,1.13-2.52,1.85-3.98,2.16c-1.31,0.28-2.67,0.23-3.95-0.15
			c-1.24-0.37-2.4-1.04-3.38-2.01c-3.12-3.12-3.12-8.19,0-11.31l0.56-0.56l92.88-92.88c5.26-5.26,5.26-13.82,0-19.09
			c-2.55-2.55-5.94-3.95-9.54-3.95c-3.6,0-6.99,1.4-9.54,3.95l-90.42,90.42c-0.19,0.19-0.39,0.37-0.59,0.53
			c-3.14,2.58-7.79,2.4-10.73-0.53c-3.12-3.12-3.12-8.19,0-11.31l12.72-12.72l0.03,0.02c0.15-0.17,0.29-0.34,0.45-0.5l93.44-93.44
			c5.26-5.26,5.26-13.82,0-19.09c-5.26-5.26-13.82-5.26-19.09,0l-95.54,95.54l-0.48,0.48c0,0,0,0,0,0l-9.29,9.29
			c-1.56,1.56-3.61,2.34-5.66,2.34c-2.05,0-4.09-0.78-5.66-2.34c-2.41-2.41-2.95-5.97-1.64-8.91c0.39-0.87,0.93-1.69,1.64-2.4
			l58.42-58.42l31.29-31.29c2.38-2.39,3.7-5.56,3.7-8.93c0-3.38-1.31-6.55-3.7-8.94c-2.39-2.39-5.56-3.7-8.94-3.7
			c-3.38,0-6.55,1.31-8.93,3.7l-98.72,98.72l-0.73,0.73c-0.46,2.24-0.85,4.11-1.16,5.54c4.87,8.56,16.11,33.35,4.57,64.24
			c-1.54,4.14-6.15,6.24-10.29,4.69c-1.65-0.62-2.97-1.73-3.87-3.09c-1.36-2.06-1.75-4.71-0.82-7.2c11.01-29.48-4-51.68-4.64-52.61
			c-1.28-1.84-1.74-4.17-1.25-6.35c0.07-0.29,6.59-29.36,10.3-60.15c0.89-7.37-3.21-12.37-5.72-14.7
			c-4.69-4.33-10.16-5.66-13.3-5.07c-0.58,0.88-1.42,3.44-2.04,5.34c-0.78,2.37-1.65,5.05-2.93,8.06
			c-6.38,15.02-20.68,49.57-21.75,52.15c-0.75,2.03-7.4,19.71-21.26,46.49c-6.88,13.3-4.6,43.95-3.14,54.64
			c0.34,2.48-0.5,4.97-2.27,6.74c-8.33,8.33-18.65,17.9-32.93,31.14c-9.17,8.5-19.6,18.17-31.8,29.64
			c-9.64,9.06-20.38,19.24-32.48,30.86c-1.55,1.49-3.55,2.23-5.54,2.23c-2.1,0-4.2-0.82-5.77-2.46
			C9.34,1160.33,9.45,1155.27,12.63,1152.21z"/>
		<path class="st5" d="M365.18,20.83c0,0.47,0.37,0.78,0.93,0.78c0.95,0,1.71-0.7,1.71-1.9v-0.14l-1.36,0.25
			C365.66,19.99,365.18,20.24,365.18,20.83z"/>
		<path class="st5" d="M342.57,592.46c0,1.34,0.72,2.21,1.86,2.21c1.3,0,1.9-0.93,1.9-2.27c0-1.32-0.6-2.25-1.9-2.25
			c-1.13,0-1.86,0.87-1.86,2.19V592.46z"/>
		<polygon class="st5" points="436.14,588.03 436.05,588.03 434.57,591.86 437.62,591.86 		"/>
		<polygon class="st5" points="438.43,14.59 438.35,14.59 436.87,18.42 439.92,18.42 		"/>
		<path class="st5" d="M366.21,594.27c0,0.47,0.37,0.78,0.93,0.78c0.95,0,1.71-0.7,1.71-1.9v-0.14l-1.36,0.25
			C366.69,593.43,366.21,593.67,366.21,594.27z"/>
		<polygon class="st5" points="310.06,338.27 287.52,396.51 333.86,396.51 311.32,338.27 		"/>
		<path class="st5" d="M343.4,21.22c1.3,0,1.9-0.93,1.9-2.27c0-1.32-0.6-2.25-1.9-2.25c-1.13,0-1.86,0.87-1.86,2.19v0.12
			C341.54,20.36,342.26,21.22,343.4,21.22z"/>
		<path class="st5" d="M330.02,20.83c0,0.47,0.37,0.78,0.93,0.78c0.95,0,1.71-0.7,1.71-1.9v-0.14l-1.36,0.25
			C330.5,19.99,330.02,20.24,330.02,20.83z"/>
		<path class="st5" d="M331.05,594.27c0,0.47,0.37,0.78,0.93,0.78c0.95,0,1.71-0.7,1.71-1.9v-0.14l-1.36,0.25
			C331.53,593.43,331.05,593.67,331.05,594.27z"/>
		<polygon points="79.48,192.65 94.47,135.83 95.04,135.83 110.03,192.65 135.87,192.65 159.43,102.7 136.02,102.7 121.74,159.1 
			121.17,159.1 106.32,102.7 84.47,102.7 69.62,159.1 69.05,159.1 54.78,102.7 30.5,102.7 54.06,192.65 		"/>
		<polygon points="237.11,172.66 190.13,172.66 190.13,157.1 225.4,157.1 225.4,137.4 190.13,137.4 190.13,122.69 235.82,122.69 
			235.82,102.7 166.29,102.7 166.29,192.65 237.11,192.65 		"/>
		<polygon points="273.66,102.7 273.66,192.65 297.93,192.65 297.93,165.38 305.78,156.82 330.77,192.65 359.75,192.65 
			323.34,140.97 358.04,102.7 330.2,102.7 297.93,139.11 297.93,102.7 		"/>
		<path d="M359.04,161.81c0,20.27,14.56,32.55,34.98,32.55c16.85,0,28.55-8.14,31.84-22.7l-18.56-1.71c-2.14,5-6.14,7.14-12.42,7.14
			c-7,0-12.71-3.71-13.28-11.56h44.69v-6.42c0-17.28-11.28-31.84-32.55-31.84C373.89,127.26,359.04,141.68,359.04,161.81z
			 M393.45,143.82c6.85,0,10.57,4.85,10.85,10.57h-22.42C382.74,148.39,386.03,143.82,393.45,143.82z"/>
		<path d="M433,161.81c0,20.27,14.56,32.55,34.98,32.55c16.85,0,28.55-8.14,31.84-22.7l-18.56-1.71c-2.14,5-6.14,7.14-12.42,7.14
			c-7,0-12.71-3.71-13.28-11.56h44.69v-6.42c0-17.28-11.28-31.84-32.55-31.84C447.85,127.26,433,141.68,433,161.81z M467.41,143.82
			c6.85,0,10.57,4.85,10.85,10.57h-22.42C456.7,148.39,459.98,143.82,467.41,143.82z"/>
		<path d="M532.8,128.97h-23.13v86.52h23.13v-33.7c3.14,7.42,10.28,12.56,20.99,12.56c18.7,0,28.27-14.71,28.27-33.55
			c0-18.7-9.57-33.55-28.27-33.55c-10.71,0-17.85,5.14-20.99,12.71V128.97z M545.65,145.25c9,0,13.14,6.42,13.14,15.56
			c0,9.28-4.14,15.71-13.14,15.71c-7.85,0-12.85-6-12.85-15.28v-0.86C532.8,151.25,537.8,145.25,545.65,145.25z"/>
		<path d="M657.73,194.37c23.13,0,40.98-11.14,40.98-37.41V102.7h-24.27v50.26c0,13.71-4.14,20.99-16.71,20.99
			c-12.42,0-16.7-7.28-16.7-20.99V102.7H616.9v54.25C616.9,183.23,634.6,194.37,657.73,194.37z"/>
		<path d="M738.83,179.95c-7,0-11.28-3-12.14-8.28l-20.13,0.29c1.29,15.42,14.42,22.42,31.98,22.42c18.13,0,29.55-7.71,29.55-21.13
			c0-12.42-8.28-18.85-22.56-21.13l-12.42-2.14c-2.14-0.29-3.86-1.43-3.86-3.57c0-2.86,2.57-4.57,7-4.57
			c7.14,0,11.14,2.86,11.99,7.42l18.99-0.57c-1.29-13.28-12.14-21.42-30.55-21.42c-17.85,0-28.84,9-28.84,21.56
			c0,12.99,8.14,17.99,23.56,20.42l9.42,1.43c4.43,0.71,5.85,2.43,5.85,4.85C746.68,178.09,743.97,179.95,738.83,179.95z"/>
		<path d="M118.46,478.22c46.02,0,82.34-20.98,82.34-62.93c0-32.25-18.78-53.85-60.11-61.05l-37.26-6.57
			c-12.21-2.19-19.72-5.64-19.72-14.71c0-10.96,10.02-17.85,27.55-17.85c20.35,0,35.07,9.39,36.63,29.74l48.84-0.94
			c-0.94-43.83-30.37-70.44-84.84-70.44c-49.15,0-80.46,24.11-80.46,64.18c0,34.44,22.54,52.6,54.79,58.55l36,6.26
			c15.03,2.82,26.61,4.7,26.61,16.28c0,10.96-11.9,17.53-30.37,17.53c-21.92,0-41.01-8.45-42.89-33.19l-48.84,1.57
			C26.73,452.24,64.92,478.22,118.46,478.22z"/>
		<path d="M342,277.22h-59.48l-78.58,197.24h53.54l14.71-38.2h77.02l14.71,38.2h56.67L342,277.22z M287.52,396.51l22.54-58.23h1.25
			l22.54,58.23H287.52z"/>
		<polygon points="435.6,474.46 488.83,474.46 488.83,402.14 560.84,402.14 560.84,358.94 488.83,358.94 488.83,321.05 
			584.63,321.05 584.63,277.22 435.6,277.22 		"/>
		<polygon points="762.77,430.63 659.77,430.63 659.77,396.51 737.1,396.51 737.1,353.3 659.77,353.3 659.77,321.05 759.95,321.05 
			759.95,277.22 607.48,277.22 607.48,474.46 762.77,474.46 		"/>
		<polygon points="265.16,23.55 266.5,18.36 266.58,18.36 267.92,23.55 271.2,23.55 274.07,14.5 276.93,23.55 280.21,23.55 
			281.55,18.36 281.63,18.36 282.97,23.55 286.25,23.55 289.11,14.49 291.98,23.55 295.25,23.55 296.59,18.36 296.68,18.36 
			298.02,23.55 301.29,23.55 304.2,14.36 301.19,14.36 299.54,19.58 299.46,19.58 298.12,14.36 295.46,14.36 294.12,19.58 
			294.04,19.58 292.39,14.36 289.15,14.36 289.07,14.36 286.14,14.36 284.5,19.58 284.41,19.58 283.07,14.36 280.41,14.36 
			279.07,19.58 278.99,19.58 277.34,14.36 274.11,14.36 274.02,14.36 271.1,14.36 269.45,19.58 269.37,19.58 268.03,14.36 
			265.37,14.36 264.03,19.58 263.95,19.58 262.3,14.36 258.98,14.36 261.88,23.55 		"/>
		<rect x="306.63" y="20.01" width="3.55" height="3.55"/>
		<path d="M319.72,23.8c3.98,0,6.1-2.52,6.35-5.75l-3.36-0.14c-0.21,1.44-0.99,2.78-3.01,2.78c-1.92,0-3.03-1.42-3.03-3.63
			s1.11-3.63,3.03-3.63c2.02,0,2.8,1.34,3.01,2.78l3.36-0.12c-0.25-3.24-2.37-5.77-6.35-5.77c-3.79,0-6.66,2.74-6.66,6.74
			S315.92,23.8,319.72,23.8z"/>
		<path d="M330.08,18.38c-2,0.35-3.28,1.11-3.28,2.89c0,1.57,1.17,2.49,2.97,2.49c1.46,0,2.51-0.56,3.05-1.63
			c0.31,1.05,1.2,1.63,2.33,1.63c0.95,0,1.61-0.27,2.08-0.6v-1.77c-0.27,0.1-0.47,0.14-0.74,0.14c-0.35,0-0.56-0.21-0.56-0.68v-3.13
			c0-2.56-1.79-3.61-4.23-3.61c-2.76,0-4.27,1.4-4.56,3.42l3.09,0.21c0.14-0.68,0.52-1.15,1.26-1.15c0.8,0,1.15,0.45,1.15,1.22v0.14
			L330.08,18.38z M332.66,19.72c0,1.2-0.76,1.9-1.71,1.9c-0.56,0-0.93-0.31-0.93-0.78c0-0.6,0.47-0.85,1.28-1.01l1.36-0.25V19.72z"
			/>
		<path d="M341.54,21.99c0.45,1.07,1.48,1.81,3.03,1.81c2.7,0,4.08-2.12,4.08-4.84c0-2.7-1.38-4.84-4.08-4.84
			c-1.55,0-2.58,0.74-3.03,1.83v-1.59h-3.34v12.49h3.34V21.99z M341.54,18.9c0-1.32,0.72-2.19,1.86-2.19c1.3,0,1.9,0.93,1.9,2.25
			c0,1.34-0.6,2.27-1.9,2.27c-1.13,0-1.86-0.87-1.86-2.21V18.9z"/>
		<rect x="349.95" y="10.57" width="3.38" height="2.93"/>
		<rect x="349.97" y="14.36" width="3.34" height="9.19"/>
		<path d="M355.46,21c0,2.16,1.46,2.8,3.01,2.8c1.26,0,2.06-0.31,2.76-0.82v-2.16c-0.56,0.23-1.01,0.31-1.42,0.31
			c-0.68,0-1.05-0.31-1.05-1.09v-3.36h2.39v-2.31h-2.39v-2.54h-2.1l-0.31,1.2c-0.23,0.85-0.52,1.34-1.44,1.48l-0.68,0.1v2.06h1.24
			V21z"/>
		<path d="M365.25,18.38c-2,0.35-3.28,1.11-3.28,2.89c0,1.57,1.17,2.49,2.97,2.49c1.46,0,2.52-0.56,3.05-1.63
			c0.31,1.05,1.2,1.63,2.33,1.63c0.95,0,1.61-0.27,2.08-0.6v-1.77c-0.27,0.1-0.47,0.14-0.74,0.14c-0.35,0-0.56-0.21-0.56-0.68v-3.13
			c0-2.56-1.79-3.61-4.23-3.61c-2.76,0-4.27,1.4-4.56,3.42l3.09,0.21c0.14-0.68,0.52-1.15,1.26-1.15c0.8,0,1.15,0.45,1.15,1.22v0.14
			L365.25,18.38z M367.82,19.72c0,1.2-0.76,1.9-1.71,1.9c-0.56,0-0.93-0.31-0.93-0.78c0-0.6,0.47-0.85,1.28-1.01l1.36-0.25V19.72z"
			/>
		<rect x="373.37" y="10.57" width="3.34" height="12.99"/>
		<rect x="378.52" y="14.36" width="3.34" height="9.19"/>
		<rect x="378.5" y="10.57" width="3.38" height="2.93"/>
		<path d="M387.67,21.72c-1.01,0-1.63-0.43-1.75-1.2l-2.91,0.04c0.19,2.23,2.08,3.24,4.62,3.24c2.62,0,4.27-1.11,4.27-3.05
			c0-1.79-1.2-2.72-3.26-3.05l-1.79-0.31c-0.31-0.04-0.56-0.21-0.56-0.52c0-0.41,0.37-0.66,1.01-0.66c1.03,0,1.61,0.41,1.73,1.07
			l2.74-0.08c-0.19-1.92-1.75-3.09-4.41-3.09c-2.58,0-4.16,1.3-4.16,3.11c0,1.88,1.17,2.6,3.4,2.95l1.36,0.21
			c0.64,0.1,0.84,0.35,0.84,0.7C388.8,21.45,388.41,21.72,387.67,21.72z"/>
		<path d="M396.51,19.04c0-1.38,0.39-2.29,1.48-2.29c1.01,0,1.26,0.66,1.26,1.92v4.89h3.34v-4.51c0-1.38,0.37-2.29,1.48-2.29
			c1.01,0,1.24,0.66,1.24,1.92v4.89h3.34v-5.77c0-1.92-0.74-3.67-3.28-3.67c-1.55,0-2.64,0.78-3.13,1.81
			c-0.39-1.07-1.24-1.81-2.87-1.81c-1.38,0-2.37,0.62-2.87,1.63v-1.38h-3.34v9.19h3.34V19.04z"/>
		<rect x="413.91" y="10.57" width="3.5" height="12.99"/>
		<path d="M423.3,21.72c-1.01,0-1.63-0.43-1.75-1.2l-2.91,0.04c0.19,2.23,2.08,3.24,4.62,3.24c2.62,0,4.27-1.11,4.27-3.05
			c0-1.79-1.2-2.72-3.26-3.05l-1.79-0.31c-0.31-0.04-0.56-0.21-0.56-0.52c0-0.41,0.37-0.66,1.01-0.66c1.03,0,1.61,0.41,1.73,1.07
			l2.74-0.08c-0.19-1.92-1.75-3.09-4.41-3.09c-2.58,0-4.16,1.3-4.16,3.11c0,1.88,1.17,2.6,3.4,2.95l1.36,0.21
			c0.64,0.1,0.84,0.35,0.84,0.7C424.44,21.45,424.05,21.72,423.3,21.72z"/>
		<path d="M435.86,21.04h5.07l0.97,2.52h3.73l-5.17-12.99h-3.92l-5.17,12.99h3.52L435.86,21.04z M438.35,14.59h0.08l1.48,3.83h-3.05
			L438.35,14.59z"/>
		<polygon points="456.16,23.55 461.15,10.57 457.66,10.57 454.45,19.2 454.36,19.2 451.15,10.57 447.48,10.57 452.47,23.55 		"/>
		<rect x="462.03" y="10.57" width="3.38" height="2.93"/>
		<rect x="462.05" y="14.36" width="3.34" height="9.19"/>
		<path d="M470.54,19.35c0-1.55,0.76-2.12,2-2.12c0.64,0,1.13,0.12,1.59,0.39l0.21-3.15c-0.23-0.19-0.72-0.35-1.28-0.35
			c-1.22,0-2.18,0.85-2.51,1.88v-1.63h-3.34v9.19h3.34V19.35z"/>
		<path d="M478.54,23.8c1.38,0,2.39-0.6,2.89-1.63v1.38h3.34v-9.19h-3.34v4.51c0,1.4-0.41,2.31-1.46,2.31
			c-1.01,0-1.36-0.68-1.36-1.92v-4.91h-3.34v5.79C475.26,22.07,476.02,23.8,478.54,23.8z"/>
		<path d="M490.58,21.72c-1.01,0-1.63-0.43-1.75-1.2l-2.91,0.04c0.19,2.23,2.08,3.24,4.62,3.24c2.62,0,4.27-1.11,4.27-3.05
			c0-1.79-1.2-2.72-3.26-3.05l-1.79-0.31c-0.31-0.04-0.56-0.21-0.56-0.52c0-0.41,0.37-0.66,1.01-0.66c1.03,0,1.61,0.41,1.73,1.07
			l2.74-0.08c-0.19-1.92-1.75-3.09-4.41-3.09c-2.58,0-4.16,1.3-4.16,3.11c0,1.88,1.17,2.6,3.4,2.95l1.36,0.21
			c0.64,0.1,0.84,0.35,0.84,0.7C491.71,21.45,491.32,21.72,490.58,21.72z"/>
		<rect x="497.64" y="20.01" width="3.55" height="3.55"/>
		<path d="M509.1,23.8c2.99,0,5.03-1.98,5.03-4.84c0-2.84-2.04-4.84-5.03-4.84c-3.01,0-5.03,2-5.03,4.84
			C504.07,21.82,506.09,23.8,509.1,23.8z M509.1,16.63c1.15,0,1.67,0.95,1.67,2.33c0,1.38-0.52,2.33-1.67,2.33
			c-1.17,0-1.67-0.95-1.67-2.33C507.43,17.58,507.93,16.63,509.1,16.63z"/>
		<path d="M518.79,19.35c0-1.55,0.76-2.12,2-2.12c0.64,0,1.13,0.12,1.59,0.39l0.21-3.15c-0.23-0.19-0.72-0.35-1.28-0.35
			c-1.22,0-2.19,0.85-2.52,1.88v-1.63h-3.34v9.19h3.34V19.35z"/>
		<path d="M522.6,24.85c0,1.73,2.27,2.25,4.89,2.25c2.99,0,5.77-1.05,5.77-3.34c0-1.55-1.05-2.64-3.13-2.64h-3.81
			c-0.56,0-0.78-0.25-0.78-0.56c0-0.19,0.06-0.33,0.19-0.43c0.6,0.19,1.26,0.27,2,0.27c2.6,0,4.47-1.2,4.47-3.13
			c0-0.43-0.1-0.82-0.29-1.17c0.45-0.1,0.95-0.14,1.34-0.14v-2.51c-1.01,0-2.02,0.66-2.58,1.42c-0.78-0.47-1.83-0.74-2.95-0.74
			c-2.58,0-4.43,1.2-4.43,3.15c0,1.01,0.5,1.79,1.32,2.33c-0.99,0.37-1.57,1.05-1.57,1.94c0,0.78,0.49,1.53,1.32,1.79
			C523.33,23.41,522.6,24.05,522.6,24.85z M527.76,15.95c0.56,0,0.97,0.52,0.97,1.32c0,0.82-0.41,1.34-0.97,1.34
			s-0.97-0.52-0.97-1.34C526.79,16.46,527.2,15.95,527.76,15.95z M525.96,23.97h3.38c0.56,0,0.84,0.14,0.84,0.54
			c0,0.56-1.13,0.87-2.68,0.87c-1.24,0-2.16-0.19-2.16-0.84C525.35,24.17,525.59,23.97,525.96,23.97z"/>
		<path d="M311.03,589.49l0.43-2.06h-1.83l0.82-3.42h-2.49l-0.82,3.42h-1.77l0.83-3.42h-2.49l-0.83,3.42h-2.02l-0.43,2.06h1.98
			l-0.5,2.02h-1.88l-0.43,2.06h1.81l-0.8,3.42h2.49l0.8-3.42h1.77l-0.8,3.42h2.49l0.8-3.42h2.04l0.43-2.06h-1.98l0.5-2.02H311.03z
			 M306.17,591.51h-1.77l0.5-2.02h1.77L306.17,591.51z"/>
		<path d="M320.73,586.87c2.02,0,2.8,1.34,3.01,2.78l3.36-0.12c-0.25-3.24-2.37-5.77-6.35-5.77c-3.79,0-6.66,2.74-6.66,6.74
			c0,4,2.87,6.74,6.66,6.74c3.98,0,6.1-2.52,6.35-5.75l-3.36-0.14c-0.21,1.44-0.99,2.78-3.01,2.78c-1.92,0-3.03-1.42-3.03-3.63
			C317.7,588.29,318.81,586.87,320.73,586.87z"/>
		<path d="M331.11,591.82c-2,0.35-3.28,1.11-3.28,2.89c0,1.57,1.17,2.49,2.97,2.49c1.46,0,2.51-0.56,3.05-1.63
			c0.31,1.05,1.2,1.63,2.33,1.63c0.95,0,1.61-0.27,2.08-0.6v-1.77c-0.27,0.1-0.47,0.14-0.74,0.14c-0.35,0-0.56-0.21-0.56-0.68v-3.13
			c0-2.56-1.79-3.61-4.23-3.61c-2.76,0-4.27,1.4-4.56,3.42l3.09,0.21c0.14-0.68,0.51-1.15,1.26-1.15c0.8,0,1.15,0.45,1.15,1.22v0.14
			L331.11,591.82z M333.69,593.16c0,1.2-0.76,1.9-1.71,1.9c-0.56,0-0.93-0.31-0.93-0.78c0-0.6,0.47-0.85,1.28-1.01l1.36-0.25V593.16
			z"/>
		<path d="M339.23,587.8v12.49h3.34v-4.87c0.45,1.07,1.48,1.81,3.03,1.81c2.7,0,4.08-2.12,4.08-4.84c0-2.7-1.38-4.84-4.08-4.84
			c-1.55,0-2.58,0.74-3.03,1.83v-1.59H339.23z M344.43,590.15c1.3,0,1.9,0.93,1.9,2.25c0,1.34-0.6,2.27-1.9,2.27
			c-1.13,0-1.86-0.87-1.86-2.21v-0.12C342.57,591.02,343.29,590.15,344.43,590.15z"/>
		<rect x="350.98" y="584.01" width="3.38" height="2.93"/>
		<rect x="351" y="587.8" width="3.34" height="9.19"/>
		<path d="M359.49,597.24c1.26,0,2.06-0.31,2.76-0.82v-2.16c-0.56,0.23-1.01,0.31-1.42,0.31c-0.68,0-1.05-0.31-1.05-1.09v-3.36h2.39
			v-2.31h-2.39v-2.54h-2.1l-0.31,1.2c-0.23,0.85-0.51,1.34-1.44,1.48l-0.68,0.1v2.06h1.24v4.33
			C356.48,596.6,357.95,597.24,359.49,597.24z"/>
		<path d="M366.27,591.82c-2,0.35-3.28,1.11-3.28,2.89c0,1.57,1.18,2.49,2.97,2.49c1.46,0,2.51-0.56,3.05-1.63
			c0.31,1.05,1.2,1.63,2.33,1.63c0.95,0,1.61-0.27,2.08-0.6v-1.77c-0.27,0.1-0.47,0.14-0.74,0.14c-0.35,0-0.56-0.21-0.56-0.68v-3.13
			c0-2.56-1.79-3.61-4.23-3.61c-2.76,0-4.27,1.4-4.56,3.42l3.09,0.21c0.14-0.68,0.51-1.15,1.26-1.15c0.8,0,1.15,0.45,1.15,1.22v0.14
			L366.27,591.82z M368.85,593.16c0,1.2-0.76,1.9-1.71,1.9c-0.56,0-0.93-0.31-0.93-0.78c0-0.6,0.47-0.85,1.28-1.01l1.36-0.25V593.16
			z"/>
		<rect x="374.39" y="584.01" width="3.34" height="12.99"/>
		<rect x="379.53" y="584.01" width="3.38" height="2.93"/>
		<rect x="379.55" y="587.8" width="3.34" height="9.19"/>
		<path d="M388.7,595.16c-1.01,0-1.63-0.43-1.75-1.2l-2.91,0.04c0.19,2.23,2.08,3.24,4.62,3.24c2.62,0,4.27-1.11,4.27-3.05
			c0-1.79-1.2-2.72-3.26-3.05l-1.79-0.31c-0.31-0.04-0.56-0.21-0.56-0.52c0-0.41,0.37-0.66,1.01-0.66c1.03,0,1.61,0.41,1.73,1.07
			l2.74-0.08c-0.19-1.92-1.75-3.09-4.41-3.09c-2.58,0-4.16,1.3-4.16,3.11c0,1.88,1.18,2.6,3.4,2.95l1.36,0.21
			c0.64,0.1,0.85,0.35,0.85,0.7C389.83,594.89,389.44,595.16,388.7,595.16z"/>
		<path d="M406.4,587.55c-1.55,0-2.64,0.78-3.13,1.81c-0.39-1.07-1.24-1.81-2.87-1.81c-1.38,0-2.37,0.62-2.87,1.63v-1.38h-3.34v9.19
			h3.34v-4.51c0-1.38,0.39-2.29,1.48-2.29c1.01,0,1.26,0.66,1.26,1.92v4.89h3.34v-4.51c0-1.38,0.37-2.29,1.48-2.29
			c1.01,0,1.24,0.66,1.24,1.92v4.89h3.34v-5.77C409.68,589.3,408.94,587.55,406.4,587.55z"/>
		<rect x="413.27" y="584.01" width="3.5" height="12.99"/>
		<path d="M426.9,594.19c0-1.79-1.2-2.72-3.26-3.05l-1.79-0.31c-0.31-0.04-0.56-0.21-0.56-0.52c0-0.41,0.37-0.66,1.01-0.66
			c1.03,0,1.61,0.41,1.73,1.07l2.74-0.08c-0.19-1.92-1.75-3.09-4.41-3.09c-2.58,0-4.16,1.3-4.16,3.11c0,1.88,1.18,2.6,3.4,2.95
			l1.36,0.21c0.64,0.1,0.85,0.35,0.85,0.7c0,0.37-0.39,0.64-1.13,0.64c-1.01,0-1.63-0.43-1.75-1.2l-2.91,0.04
			c0.19,2.23,2.08,3.24,4.62,3.24C425.25,597.24,426.9,596.13,426.9,594.19z"/>
		<path d="M433.56,594.48h5.07l0.97,2.51h3.73l-5.17-12.99h-3.92l-5.17,12.99h3.52L433.56,594.48z M436.05,588.03h0.08l1.48,3.83
			h-3.05L436.05,588.03z"/>
		<polygon points="458.8,584.01 455.31,584.01 452.1,592.64 452.01,592.64 448.8,584.01 445.13,584.01 450.12,596.99 453.81,596.99 
					"/>
		<rect x="459.7" y="587.8" width="3.34" height="9.19"/>
		<rect x="459.68" y="584.01" width="3.38" height="2.93"/>
		<path d="M464.85,587.8v9.19h3.34v-4.21c0-1.55,0.76-2.12,2-2.12c0.64,0,1.13,0.12,1.59,0.39l0.21-3.15
			c-0.23-0.19-0.72-0.35-1.28-0.35c-1.22,0-2.19,0.85-2.52,1.88v-1.63H464.85z"/>
		<path d="M472.91,587.8v5.79c0,1.92,0.76,3.65,3.28,3.65c1.38,0,2.39-0.6,2.89-1.63v1.38h3.34v-9.19h-3.34v4.51
			c0,1.4-0.41,2.31-1.46,2.31c-1.01,0-1.36-0.68-1.36-1.92v-4.91H472.91z"/>
		<path d="M488.22,595.16c-1.01,0-1.63-0.43-1.75-1.2l-2.91,0.04c0.19,2.23,2.08,3.24,4.62,3.24c2.62,0,4.27-1.11,4.27-3.05
			c0-1.79-1.2-2.72-3.26-3.05l-1.79-0.31c-0.31-0.04-0.56-0.21-0.56-0.52c0-0.41,0.37-0.66,1.01-0.66c1.03,0,1.61,0.41,1.73,1.07
			l2.74-0.08c-0.19-1.92-1.75-3.09-4.41-3.09c-2.58,0-4.16,1.3-4.16,3.11c0,1.88,1.17,2.6,3.4,2.95l1.36,0.21
			c0.64,0.1,0.85,0.35,0.85,0.7C489.36,594.89,488.97,595.16,488.22,595.16z"/>
	</g>
</g>
</svg>
