<?xml version="1.0" encoding="utf-8"?>
<!-- Generator: Adobe Illustrator 23.1.1, SVG Export Plug-In . SVG Version: 6.00 Build 0)  -->
<svg version="1.1" xmlns="http://www.w3.org/2000/svg" xmlns:xlink="http://www.w3.org/1999/xlink" x="0px" y="0px"
	 viewBox="0 0 792 612" style="enable-background:new 0 0 792 612;" xml:space="preserve">
<style type="text/css">
	.st0{display:none;}
	.st1{display:inline;fill:#FFFFFF;}
	.st2{display:inline;}
	.st3{fill:#FFFFFF;stroke:#000000;stroke-width:16;stroke-linecap:round;stroke-linejoin:round;stroke-miterlimit:10;}
	.st4{font-family:'FoundersGrotesk-Bold';}
	.st5{font-size:98.7009px;}
	.st6{letter-spacing:4;}
	.st7{fill:none;stroke:#000000;stroke-width:24;stroke-linejoin:round;stroke-miterlimit:10;}
	.st8{fill:#FFFFFF;}
	.st9{font-size:20.6105px;}
	.st10{font-size:10.3052px;}
	.st11{font-size:19.2364px;}
	.st12{font-size:10px;}
	.st13{fill:#FFFFFF;stroke:#000000;stroke-width:17;stroke-linecap:round;stroke-miterlimit:10;}
	.st14{fill:#FFFFFF;stroke:#000000;stroke-width:17;stroke-miterlimit:10;}
	.st15{stroke:#000000;stroke-width:16.0572;stroke-linecap:round;stroke-miterlimit:10;}
	.st16{fill:#FFFFFF;stroke:#000000;stroke-width:13.497;stroke-linecap:round;stroke-linejoin:round;stroke-miterlimit:10;}
	.st17{stroke:#000000;stroke-width:18.3348;stroke-linecap:round;stroke-miterlimit:10;}
	.st18{fill:none;stroke:#000000;stroke-width:13.497;stroke-linecap:round;stroke-linejoin:round;stroke-miterlimit:10;}
	.st19{fill:#FFFFFF;stroke:#000000;stroke-width:14.6942;stroke-linecap:round;stroke-linejoin:round;stroke-miterlimit:10;}
	.st20{fill:none;stroke:#000000;stroke-width:13;stroke-linecap:round;stroke-linejoin:round;stroke-miterlimit:10;}
	.st21{fill:none;stroke:#000000;stroke-width:13;stroke-linejoin:round;stroke-miterlimit:10;}
	.st22{fill:url(#);stroke:#000000;stroke-width:13;stroke-linejoin:round;stroke-miterlimit:10;}
	.st23{fill:none;stroke:#000000;stroke-width:30.5612;stroke-linecap:round;stroke-linejoin:round;stroke-miterlimit:10;}
	.st24{fill:#FFFFFF;stroke:#000000;stroke-width:16.2993;stroke-linecap:round;stroke-linejoin:round;stroke-miterlimit:10;}
	.st25{fill:#FFFFFF;stroke:#000000;stroke-width:13.497;stroke-linecap:round;stroke-miterlimit:10;}
	.st26{fill:url(#);stroke:#000000;stroke-width:13.497;stroke-linecap:round;stroke-linejoin:round;stroke-miterlimit:10;}
	.st27{fill:#FFFFFF;stroke:#000000;stroke-width:11.7326;stroke-linecap:round;stroke-linejoin:round;stroke-miterlimit:10;}
	.st28{fill:#FFFFFF;stroke:#000000;stroke-width:13.2623;stroke-linecap:round;stroke-linejoin:round;stroke-miterlimit:10;}
	.st29{fill:#FFFFFF;stroke:#000000;stroke-width:13.2623;stroke-linecap:round;stroke-miterlimit:10;}
	.st30{stroke:#000000;stroke-width:4.5213;stroke-miterlimit:10;}
	.st31{fill:none;stroke:#000000;stroke-width:16;stroke-linecap:round;stroke-miterlimit:10;}
	.st32{fill:url(#);stroke:#000000;stroke-width:16;stroke-linecap:round;stroke-linejoin:round;stroke-miterlimit:10;}
	.st33{fill:#FFFFFF;stroke:#000000;stroke-width:16;stroke-linecap:round;stroke-miterlimit:10;}
	.st34{fill:none;stroke:#000000;stroke-width:16;stroke-linecap:round;stroke-linejoin:round;stroke-miterlimit:10;}
	.st35{fill:none;stroke:#000000;stroke-width:15.2344;stroke-linecap:round;stroke-linejoin:round;stroke-miterlimit:10;}
	.st36{fill:#FFFFFF;stroke:#000000;stroke-width:15.2344;stroke-linecap:round;stroke-linejoin:round;stroke-miterlimit:10;}
	.st37{fill:#FFFFFF;stroke:#000000;stroke-width:17;stroke-linecap:round;stroke-linejoin:round;stroke-miterlimit:10;}
	.st38{fill:none;stroke:#000000;stroke-width:9.9764;stroke-linecap:round;stroke-linejoin:round;stroke-miterlimit:10;}
	.st39{fill:none;stroke:#000000;stroke-width:9.3127;stroke-linejoin:round;stroke-miterlimit:10;}
	.st40{fill:url(#);}
	.st41{fill:none;stroke:#000000;stroke-width:8.3796;stroke-linecap:round;stroke-linejoin:round;stroke-miterlimit:10;}
	
		.st42{display:inline;fill:none;stroke:#000000;stroke-width:9.9764;stroke-linecap:round;stroke-linejoin:round;stroke-miterlimit:10;}
	.st43{display:inline;fill:none;stroke:#000000;stroke-width:9.3127;stroke-linejoin:round;stroke-miterlimit:10;}
	.st44{display:inline;fill:url(#);stroke:#000000;stroke-width:10;stroke-linejoin:round;stroke-miterlimit:10;}
	.st45{fill:#FFFFFF;stroke:#000000;stroke-width:14.7375;stroke-linecap:round;stroke-linejoin:round;stroke-miterlimit:10;}
	.st46{fill:none;stroke:#000000;stroke-width:14.7375;stroke-linecap:round;stroke-linejoin:round;stroke-miterlimit:10;}
	.st47{stroke:#000000;stroke-width:14.7375;stroke-linecap:round;stroke-linejoin:round;stroke-miterlimit:10;}
	.st48{fill:#FFFFFF;stroke:#000000;stroke-width:14.2911;stroke-linecap:round;stroke-linejoin:round;stroke-miterlimit:10;}
	.st49{fill:none;stroke:#000000;stroke-width:15;stroke-linecap:round;stroke-linejoin:round;stroke-miterlimit:10;}
	.st50{fill:#FFFFFF;stroke:#000000;stroke-width:15;stroke-linecap:round;stroke-linejoin:round;stroke-miterlimit:10;}
	.st51{fill:#FFFFFF;stroke:#000000;stroke-width:14.8467;stroke-linecap:round;stroke-linejoin:round;stroke-miterlimit:10;}
	.st52{stroke:#000000;stroke-width:20.1683;stroke-linecap:round;stroke-miterlimit:10;}
	.st53{fill:none;stroke:#000000;stroke-width:14.8467;stroke-linecap:round;stroke-linejoin:round;stroke-miterlimit:10;}
	.st54{fill:none;stroke:#000000;stroke-width:13.497;stroke-miterlimit:10;}
	.st55{fill:#FFFFFF;stroke:#000000;stroke-width:13.497;stroke-miterlimit:10;}
	.st56{fill:#FFFFFF;stroke:#000000;stroke-width:14.7439;stroke-linecap:round;stroke-miterlimit:10;}
	.st57{fill:#FFFFFF;stroke:#000000;stroke-width:14.7439;stroke-miterlimit:10;}
	.st58{stroke:#000000;stroke-width:13.9262;stroke-linecap:round;stroke-miterlimit:10;}
	.st59{fill:#FFFFFF;stroke:#000000;stroke-width:17.1072;stroke-linecap:round;stroke-linejoin:round;stroke-miterlimit:10;}
	.st60{stroke:#000000;stroke-width:17.1072;stroke-linecap:round;stroke-linejoin:round;stroke-miterlimit:10;}
	.st61{fill:#FFFFFF;stroke:#000000;stroke-width:15;stroke-linecap:square;stroke-linejoin:round;stroke-miterlimit:10;}
	.st62{fill:#FFFFFF;stroke:#000000;stroke-width:15;stroke-linejoin:round;stroke-miterlimit:10;}
	.st63{fill:#FFFFFF;stroke:#000000;stroke-width:14;stroke-linecap:round;stroke-linejoin:round;stroke-miterlimit:10;}
	.st64{fill:#FFFFFF;stroke:#000000;stroke-width:13;stroke-linecap:round;stroke-linejoin:round;stroke-miterlimit:10;}
	.st65{fill:#FFFFFF;stroke:#000000;stroke-width:15.2362;stroke-linecap:round;stroke-linejoin:round;stroke-miterlimit:10;}
	.st66{fill:#FFFFFF;stroke:#FFFFFF;stroke-width:3;stroke-miterlimit:10;}
	.st67{fill:#FFFFFF;stroke:#000000;stroke-width:13.3058;stroke-linecap:round;stroke-linejoin:round;stroke-miterlimit:10;}
	.st68{fill:#FFFFFF;stroke:#000000;stroke-width:15.2517;stroke-linecap:round;stroke-linejoin:round;stroke-miterlimit:10;}
	.st69{stroke:#000000;stroke-width:3;stroke-miterlimit:10;}
</style>
<g id="unexpanded" class="st0">
	<rect x="-410.75" y="-955.56" class="st1" width="14663.41" height="9108.82"/>
	<rect y="-612" class="st1" width="792" height="1224"/>
	<g class="st2">
		<path class="st3" d="M527.45,408.41l-45.44-64.35c-6.85-9.71-20.73-11.7-30.99-4.45c-10.26,7.25-13.03,20.99-6.17,30.7
			l45.44,64.35"/>
		<path class="st3" d="M582.14,426.66c0,0-9.95-89.1-16.37-100.43c-6.55-11.55-14.51-13.79-25.63-15.7
			c-10.85-1.87-75.89-13.26-75.89-13.26c-10.81-1.96-21.74,8.58-23.81,20.02s4.62,24.61,15.44,26.57l60.56,10.97"/>
		<g>
			<path class="st3" d="M349.59,45.62c-26.5,7.44-74.43,44.94-111.49,70.29s-56.21,61.26-45.72,98.6s20.28,82.23,29.92,95.76
				c9.65,13.53,87.06,82.53,214.72,46.68S594.86,221.88,596.05,205.3c1.19-16.58-13.82-60-24.3-97.34s-45.53-58.03-90.37-60.38
				C436.54,45.24,376.09,38.18,349.59,45.62z"/>
		</g>
		<path class="st3" d="M359.66,78.38c-36.94,10.14-137.77,96.53-123.34,149.07s80.78,126.89,190.82,96.67
			c110.04-30.21,129.12-128.02,114.69-180.56C527.4,91.02,396.59,68.24,359.66,78.38z"/>
		<path class="st3" d="M437.25,291.29l-35.57,9.77c-11.57,3.18-23.53-3.63-26.7-15.2l-9.77-35.57c-3.18-11.57,3.63-23.53,15.2-26.7
			l35.57-9.77c11.57-3.18,23.53,3.63,26.7,15.2l9.77,35.57C455.62,276.16,448.82,288.11,437.25,291.29z"/>
		<text transform="matrix(0.9643 -0.2648 0.2648 0.9643 299.9993 218.4197)" class="st4 st5 st6">N95</text>
		<line class="st7" x1="176.44" y1="148.56" x2="219.4" y2="166.5"/>
		<line class="st7" x1="521.05" y1="79.1" x2="538.99" y2="36.15"/>
		<line class="st7" x1="611.48" y1="246.81" x2="567.29" y2="232.2"/>
		<line class="st7" x1="292.65" y1="333.6" x2="278.05" y2="377.8"/>
		<polyline class="st8" points="468.03,464.06 535.69,395.68 570.48,446.12 557.92,471.9 		"/>
		<path class="st3" d="M582.14,475.72c10.11-19.76,7.17-36.63-3.6-58.81c-5.02-10.34-19.52-42.4-33.4-69.24
			c-7.36-14.24-11.88-21.03-21.56-29.84c-8.15-7.42-54.42-56.23-54.42-56.23c-9.87-10.33-24.4-16.57-36-7.71
			c-11.6,8.86-9.8,24.57-1.15,37.11L486,353.09l20.68,59.88"/>
		<path class="st3" d="M506.67,412.97c0,0-9.39,27.38-30.28,27.38c-14.96,0-32.15-15.82-32.15-15.82s-3.16-28.84-10.34-53.58
			c-9.9-34.14-26.63-38.8-45.21-34.2c-10.41,2.57-10.44,11.21-9.44,21.13c3.24,32.14,7.17,58.84,10.77,89.69
			c-11.13,65.99,18.64,122.06,18.64,122.06l-2.54,26.14"/>
		<path class="st3" d="M582.14,475.72c-18.7,41.07-63.61,108.79-63.61,108.79l0.73,11.27"/>
		<text transform="matrix(0 -1 1 0 26.8613 443.1503)"><tspan x="0" y="0" class="st4 st9">www</tspan><tspan x="45.14" y="0" class="st4 st10"> </tspan><tspan x="46.99" y="0" class="st4 st9">.</tspan><tspan x="51.77" y="0" class="st4 st10"> </tspan><tspan x="53.63" y="0" class="st4 st9">Capitalism</tspan><tspan x="150.43" y="0" class="st4 st11"> </tspan><tspan x="153.9" y="0" class="st4 st9">Is</tspan><tspan x="168.88" y="0" class="st4 st11"> </tspan><tspan x="172.34" y="0" class="st4 st9">A</tspan><tspan x="186.6" y="0" class="st4 st10"> </tspan><tspan x="188.46" y="0" class="st4 st9">Virus</tspan><tspan x="236.15" y="0" class="st4 st10"> </tspan><tspan x="238.01" y="0" class="st4 st9">.</tspan><tspan x="242.79" y="0" class="st4 st10"> </tspan><tspan x="244.64" y="0" class="st4 st9">org</tspan></text>
		<text transform="matrix(0 1 -1 0 761.9292 209.1802)"><tspan x="0" y="0" class="st4 st9">#</tspan><tspan x="12.7" y="0" class="st4 st12"> </tspan><tspan x="14.5" y="0" class="st4 st9">Capitalism</tspan><tspan x="111.3" y="0" class="st4 st12"> </tspan><tspan x="113.1" y="0" class="st4 st9">Is</tspan><tspan x="128.09" y="0" class="st4 st12"> </tspan><tspan x="129.89" y="0" class="st4 st9">A</tspan><tspan x="144.15" y="0" class="st4 st12"> </tspan><tspan x="145.95" y="0" class="st4 st9">Virus</tspan></text>
	</g>
</g>
<g id="exp_trnsp_bg">
	<path d="M604.03,205.88c1-13.92-7.01-40.71-16.28-71.74c-2.81-9.4-5.71-19.12-8.3-28.34c-5.57-19.83-17.9-36.38-35.66-47.86
		c-0.23-0.15-0.47-0.29-0.71-0.44l6.98-16.72l-22.15-9.25l-6.51,15.6c-11.99-4.21-25.35-6.78-39.61-7.53
		c-10.22-0.54-21.09-1.31-32.6-2.12c-39.34-2.79-80.01-5.67-101.77,0.44h0c-21.75,6.11-54.98,29.75-87.12,52.61
		c-9.4,6.69-18.28,13-26.73,18.78c-14.94,10.22-27.15,22.18-35.94,35.1l-16.57-6.92l-9.25,22.15l14.79,6.18
		c-5.98,16.56-6.68,33.97-1.94,50.86c2.59,9.22,5.17,19.03,7.66,28.52c8.24,31.32,15.35,58.36,23.45,69.72
		c6.35,8.91,26.9,26.83,57.01,40.54l-6.14,18.59l22.79,7.53l5.76-17.43c18.85,6.1,42.68,10.95,70.87,10.95
		c2.29,0,4.62-0.04,6.96-0.11c1.56,13.81,3.22,26.9,4.85,39.65c1.34,10.55,2.73,21.45,4.06,32.75
		c-9.86,60.76,13.01,112.46,18.53,123.78L398.15,595c-0.43,4.4,2.79,8.31,7.19,8.74c0.26,0.03,0.52,0.04,0.78,0.04
		c4.07,0,7.55-3.09,7.95-7.23l1.8-18.52l0.74-7.62c0.15-1.56-0.16-3.14-0.9-4.52c-0.29-0.54-28.37-54.4-17.82-116.98
		c0.13-0.75,0.15-1.51,0.06-2.26c-1.38-11.78-2.82-23.1-4.21-34.04c-2.34-18.37-4.55-35.73-6.55-55.53
		c-1.15-11.44,0.47-11.84,3.4-12.57c12.32-3.05,26.25-3.6,35.61,28.67c6.89,23.75,10.04,51.94,10.07,52.22
		c0.21,1.92,1.11,3.7,2.54,5.01c1.99,1.84,19.99,17.93,37.57,17.93c26.3,0,37.39-31.45,37.85-32.78c0.03-0.08,0.04-0.15,0.07-0.23
		c0.05-0.15,0.09-0.29,0.13-0.44c0.03-0.11,0.05-0.23,0.07-0.34c0.03-0.14,0.06-0.28,0.08-0.42c0.02-0.12,0.03-0.25,0.04-0.37
		c0.01-0.14,0.03-0.27,0.03-0.41c0.01-0.13,0.01-0.25,0.01-0.38c0-0.13,0-0.27-0.01-0.4c-0.01-0.13-0.02-0.25-0.03-0.38
		c-0.01-0.13-0.03-0.27-0.05-0.4c-0.02-0.12-0.04-0.25-0.07-0.37c-0.03-0.14-0.05-0.27-0.09-0.41c-0.03-0.12-0.06-0.23-0.1-0.35
		c-0.03-0.1-0.05-0.2-0.09-0.31l-20.68-59.88c-0.33-0.97-0.85-1.87-1.53-2.64l-53.68-61.73c-9.18-13.59-4.55-22.64-0.33-25.86
		c1.81-1.38,11.55-7.56,25.34,6.85c1.9,2,46.56,49.11,54.84,56.65c8.93,8.13,12.96,14.3,19.84,27.6
		c10.04,19.42,20.42,41.61,27.29,56.3c2.59,5.53,4.63,9.9,6.02,12.75c10.45,21.53,11.7,34.89,4.47,50.06
		c-0.26,0.54-0.52,1.08-0.8,1.62c-0.03,0.05-0.05,0.11-0.07,0.17c-0.03,0.06-0.06,0.11-0.08,0.16
		c-18.22,40.01-62.55,107.01-62.99,107.68c-0.97,1.46-1.43,3.19-1.32,4.94l0.73,11.27c0.27,4.23,3.79,7.49,7.98,7.49
		c0.17,0,0.35-0.01,0.52-0.02c4.41-0.28,7.75-4.09,7.47-8.5l-0.55-8.59c8.08-12.3,45.63-70.11,62.69-107.55
		c10.4-20.51,8.17-38.09,0.3-57.01c-2.81-24.7-10.58-88.6-16.95-99.83c-6.78-11.96-15.22-16.09-24.74-18.34
		c9.04-8.75,16.42-17.35,22.36-25.23c6.95-9.21,12.69-18.42,17.35-27.12l20.02,6.61l7.53-22.79l-17.48-5.78
		C601.67,219.36,603.66,210.97,604.03,205.88z M476.39,432.35c-8.33,0-19.11-7.39-24.58-11.85c-0.76-6.04-2.68-19.89-5.98-34.93
		l32.9,46.59C477.96,432.28,477.18,432.35,476.39,432.35z M477.91,355.98l1.03,1.19l19.19,55.58c-1.02,2.3-2.83,5.94-5.45,9.5
		c-0.24,0.32-0.47,0.62-0.71,0.93l-40.59-57.49c-0.91-1.29-1.52-2.7-1.89-4.16c6.89-2.2,13.48-4.58,19.76-7.12L477.91,355.98z
		 M463.54,339.46c-8.91,3.61-18.45,6.9-28.69,9.78c-0.32,0.09-0.63,0.17-0.95,0.25c-3.68-6.71-7.99-11.88-12.97-15.55
		c2.74-0.64,5.5-1.33,8.31-2.1c7.63-2.09,14.76-4.49,21.46-7.13L463.54,339.46z M428.3,247.53c-11.79,9.01-14.42,24.63-7.46,39.96
		l-21.29,5.85c-7.3,2-14.87-2.3-16.87-9.6l-9.77-35.57c-0.97-3.54-0.51-7.24,1.31-10.42s4.76-5.48,8.29-6.45l35.57-9.77
		c1.21-0.33,2.43-0.49,3.63-0.49c6.03,0,11.57,4.01,13.24,10.09l3.16,11.49C434.66,243.57,431.36,245.2,428.3,247.53z
		 M495.65,277.81c-7.66-8.01-15.15-15.88-20.71-21.75c-6.29-6.58-13.21-10.96-20.12-13.04l-4.43-16.13
		c-4.34-15.81-20.73-25.13-36.54-20.79l-35.57,9.77c-7.66,2.1-14.04,7.06-17.96,13.96c-3.93,6.9-4.93,14.92-2.83,22.57l9.77,35.57
		c3.62,13.18,15.62,21.86,28.67,21.86c2.6,0,5.24-0.34,7.86-1.06l26.69-7.33l9.03,10.39c-4.61,1.65-9.43,3.2-14.49,4.59
		c-58.66,16.11-100.2,0.05-124.72-16.25c-32.22-21.43-50.2-52.7-56.27-74.83c-5.46-19.87,9.3-50.05,40.49-82.8
		c28.42-29.85,61.6-52.14,77.26-56.44c4.88-1.34,12.12-2.05,20.98-2.05c19.54,0,46.96,3.44,74.27,11.12
		c43.54,12.24,71.64,30.65,77.1,50.52c6.07,22.12,6.59,58.19-10.17,93.07C518.12,250.88,509.2,264.77,495.65,277.81z M558.8,330.17
		c2.07,3.79,5.33,21.72,8.64,44.48c-4.81-10.02-10.03-20.68-15.19-30.65c-5.87-11.34-10.31-18.73-17.35-26.25
		c1.64,0.28,2.96,0.51,3.88,0.67C549.07,320.18,554.07,321.83,558.8,330.17z M588.07,204.73c-0.17,2.42-1.68,9.69-5.56,19.87
		l-11.46-3.78l-7.53,22.79l8.75,2.89c-3.94,7.12-8.78,14.75-14.7,22.59c-8.4,11.14-19.93,23.86-35.32,36.23
		c-4.15-4.2-9.6-9.81-15.49-15.93c15.12-14.57,25.09-30.12,31.61-43.7c15.86-33,20.04-71.97,11.18-104.24
		c-9.55-34.79-59.36-53.58-88.2-61.68c-39.21-11.02-82.87-14.85-103.81-9.1c-20.94,5.75-56.52,31.33-84.61,60.83
		c-20.66,21.69-53.88,63.29-44.33,98.07c8.86,32.27,32.35,63.64,62.84,83.92c18.59,12.37,45.91,24.62,81.83,25.57
		c-3.29,6.65-2.48,14.72-1.99,19.62c0.01,0.11,0.02,0.22,0.03,0.33c-28.52,0.65-52.45-4.04-71.1-10.07l3.82-11.57l-22.79-7.53
		l-3.41,10.32c-29.69-13.81-46.29-30.69-49.03-34.54c-6.4-8.98-13.82-37.21-21-64.5c-2.51-9.55-5.11-19.43-7.73-28.77
		c-3.82-13.6-3.28-27.26,1.28-40.37l13.41,5.6l9.25-22.15l-11.33-4.73c7.4-10.12,17.42-19.63,29.92-28.18
		c8.57-5.86,17.5-12.22,26.97-18.95c29.58-21.04,63.1-44.88,82.17-50.24c19.07-5.36,60.11-2.45,96.31,0.12
		c11.58,0.82,22.53,1.6,32.89,2.14c12.62,0.66,24.11,2.8,34.3,6.27l-5.28,12.64l22.15,9.25l4.69-11.24
		c13.45,9.24,22.82,21.97,27.22,37.64c2.62,9.34,5.55,19.13,8.38,28.59C580.5,165.77,588.86,193.73,588.07,204.73z"/>
	<polygon points="326.93,146.55 336.05,179.76 303.52,152.97 288.1,157.21 304.57,217.17 319.41,213.09 309.67,177.59 345.3,205.98 
		358.24,202.43 341.78,142.47 	"/>
	<path d="M376.11,131.81c-13.61,3.74-21.27,14.23-17.72,27.18c3.14,11.42,13.14,17.27,26.27,13.67c5.81-1.59,10.18-5.05,12-9.23
		c1.83,8.91-0.42,15.98-7.08,17.81c-4.47,1.23-7.81-0.11-9.41-4.07l-14.96,4.41c4.43,11.68,14.67,16.14,27.61,12.58
		c17.42-4.78,22.66-20.35,17.64-38.62C405.24,136.51,392.96,127.19,376.11,131.81z M384.16,160c-5.33,1.46-9.24-0.84-10.54-5.6
		c-1.25-4.57,0.93-8.54,6.26-10.01c5.14-1.41,9.07,0.99,10.3,5.46C391.48,154.61,389.3,158.59,384.16,160z"/>
	<path d="M442.59,135.36c-5.23,1.44-8.1,3.66-9.75,5.85c-0.15-2.41-0.44-5.71-0.96-8.33l25.7-7.06l-3.87-14.09l-37.59,10.32
		c2.43,9.98,4.58,26.38,5.4,34.95l15.83-3.12c0.9-2.7,2.67-4.83,6.47-5.87c5.33-1.46,9.19,1.78,10.47,6.44
		c1.41,5.14-1.08,9.1-5.94,10.43c-5.04,1.39-9-0.7-10.5-5.82l-15.8,3.21c3.31,13.93,13.99,20.01,29.88,15.64
		c13.23-3.63,20.86-14.22,17.2-27.55C465.92,138.68,456.49,131.54,442.59,135.36z"/>
	<polygon points="17.67,400.93 22.88,402.58 22.88,402.66 17.67,404 17.67,406.66 22.88,408 22.88,408.08 17.67,409.73 
		17.67,412.96 17.67,413.05 17.67,415.97 22.88,417.62 22.88,417.7 17.67,419.04 17.67,421.7 22.88,423.04 22.88,423.13 
		17.67,424.78 17.67,428.01 17.67,428.09 17.67,431.02 22.88,432.67 22.88,432.75 17.67,434.09 17.67,436.75 22.88,438.09 
		22.88,438.17 17.67,439.82 17.67,443.14 26.86,440.23 26.86,436.96 21.67,435.62 21.67,435.53 26.86,434.19 26.86,430.92 
		17.8,428.05 26.86,425.19 26.86,421.91 21.67,420.57 21.67,420.49 26.86,419.15 26.86,415.87 17.8,413.01 26.86,410.14 
		26.86,406.86 21.67,405.52 21.67,405.44 26.86,404.1 26.86,400.82 17.67,397.92 	"/>
	<rect x="23.32" y="391.94" width="3.55" height="3.55"/>
	<path d="M20.37,389.06c4,0,6.74-2.87,6.74-6.66c0-3.98-2.51-6.1-5.75-6.35l-0.14,3.36c1.44,0.21,2.78,0.99,2.78,3.01
		c0,1.92-1.42,3.03-3.63,3.03s-3.63-1.11-3.63-3.03c0-2.02,1.34-2.8,2.78-3.01l-0.12-3.36c-3.24,0.25-5.77,2.37-5.77,6.35
		C13.63,386.19,16.37,389.06,20.37,389.06z"/>
	<path d="M27.07,366.96c0-0.95-0.27-1.61-0.6-2.08H24.7c0.1,0.27,0.14,0.47,0.14,0.74c0,0.35-0.21,0.56-0.68,0.56h-3.13
		c-2.56,0-3.61,1.79-3.61,4.23c0,2.76,1.4,4.27,3.42,4.56l0.21-3.09c-0.68-0.14-1.15-0.52-1.15-1.26c0-0.8,0.45-1.15,1.22-1.15h0.14
		l0.43,2.58c0.35,2,1.11,3.28,2.89,3.28c1.57,0,2.49-1.17,2.49-2.97c0-1.46-0.56-2.52-1.63-3.05
		C26.49,368.98,27.07,368.1,27.07,366.96z M24.14,372.1c-0.6,0-0.85-0.47-1.01-1.28l-0.25-1.36h0.14c1.2,0,1.9,0.76,1.9,1.71
		C24.92,371.72,24.61,372.1,24.14,372.1z"/>
	<path d="M27.11,357.54c0-2.7-2.12-4.08-4.84-4.08c-2.7,0-4.84,1.38-4.84,4.08c0,1.55,0.74,2.58,1.83,3.03h-1.59v3.34h12.49v-3.34
		h-4.86C26.37,360.12,27.11,359.09,27.11,357.54z M22.33,360.57H22.2c-1.32,0-2.18-0.72-2.18-1.86c0-1.3,0.93-1.9,2.25-1.9
		c1.34,0,2.27,0.6,2.27,1.9C24.53,359.85,23.67,360.57,22.33,360.57z"/>
	<rect x="13.87" y="348.79" width="2.93" height="3.38"/>
	<rect x="17.67" y="348.81" width="9.19" height="3.34"/>
	<path d="M15.13,345.47l1.2,0.31c0.85,0.23,1.34,0.52,1.48,1.44l0.1,0.68h2.06v-1.24h4.33c2.16,0,2.8-1.46,2.8-3.01
		c0-1.26-0.31-2.06-0.82-2.76h-2.16c0.23,0.56,0.31,1.01,0.31,1.42c0,0.68-0.31,1.05-1.09,1.05h-3.36v-2.39h-2.31v2.39h-2.54V345.47
		z"/>
	<path d="M24.16,331.02h-3.13c-2.56,0-3.61,1.79-3.61,4.23c0,2.76,1.4,4.27,3.42,4.56l0.21-3.09c-0.68-0.14-1.15-0.52-1.15-1.26
		c0-0.8,0.45-1.15,1.22-1.15h0.14l0.43,2.58c0.35,2,1.11,3.28,2.89,3.28c1.57,0,2.49-1.17,2.49-2.97c0-1.46-0.56-2.52-1.63-3.05
		c1.05-0.31,1.63-1.2,1.63-2.33c0-0.95-0.27-1.61-0.6-2.08H24.7c0.1,0.27,0.14,0.47,0.14,0.74
		C24.84,330.81,24.63,331.02,24.16,331.02z M24.92,336.01c0,0.56-0.31,0.93-0.78,0.93c-0.6,0-0.85-0.47-1.01-1.28l-0.25-1.36h0.14
		C24.22,334.3,24.92,335.06,24.92,336.01z"/>
	<rect x="13.87" y="325.41" width="12.99" height="3.34"/>
	<rect x="13.87" y="320.24" width="2.93" height="3.38"/>
	<rect x="17.67" y="320.26" width="9.19" height="3.34"/>
	<path d="M20.53,318.92c1.88,0,2.6-1.17,2.95-3.4l0.21-1.36c0.1-0.64,0.35-0.85,0.7-0.85c0.37,0,0.64,0.39,0.64,1.13
		c0,1.01-0.43,1.63-1.2,1.75l0.04,2.91c2.23-0.19,3.24-2.08,3.24-4.62c0-2.62-1.11-4.27-3.05-4.27c-1.79,0-2.72,1.2-3.05,3.26
		l-0.31,1.79c-0.04,0.31-0.21,0.56-0.52,0.56c-0.41,0-0.66-0.37-0.66-1.01c0-1.03,0.41-1.61,1.07-1.73l-0.08-2.74
		c-1.92,0.19-3.09,1.75-3.09,4.41C17.42,317.33,18.72,318.92,20.53,318.92z"/>
	<path d="M17.42,302.74c0,1.38,0.62,2.37,1.63,2.87h-1.38v3.34h9.19v-3.34h-4.51c-1.38,0-2.29-0.39-2.29-1.48
		c0-1.01,0.66-1.26,1.92-1.26h4.89v-3.34h-4.51c-1.38,0-2.29-0.37-2.29-1.48c0-1.01,0.66-1.24,1.92-1.24h4.89v-3.34h-5.77
		c-1.92,0-3.67,0.74-3.67,3.28c0,1.55,0.78,2.64,1.81,3.13C18.16,300.27,17.42,301.11,17.42,302.74z"/>
	<rect x="13.87" y="284.71" width="12.99" height="3.5"/>
	<path d="M23.83,280.57l0.04,2.91c2.23-0.19,3.24-2.08,3.24-4.62c0-2.62-1.11-4.27-3.05-4.27c-1.79,0-2.72,1.2-3.05,3.26l-0.31,1.79
		c-0.04,0.31-0.21,0.56-0.52,0.56c-0.41,0-0.66-0.37-0.66-1.01c0-1.03,0.41-1.61,1.07-1.73l-0.08-2.74
		c-1.92,0.19-3.09,1.75-3.09,4.41c0,2.58,1.3,4.16,3.11,4.16c1.88,0,2.6-1.18,2.95-3.4l0.21-1.36c0.1-0.64,0.35-0.85,0.7-0.85
		c0.37,0,0.64,0.39,0.64,1.13C25.03,279.82,24.59,280.44,23.83,280.57z"/>
	<path d="M26.86,267.23l-2.51-0.97v-5.07l2.51-0.97v-3.73l-12.99,5.17v3.92l12.99,5.17V267.23z M21.73,265.25l-3.83-1.48v-0.08
		l3.83-1.48V265.25z"/>
	<polygon points="26.86,245.96 13.87,240.97 13.87,244.46 22.51,247.67 22.51,247.75 13.87,250.97 13.87,254.64 26.86,249.65 	"/>
	<rect x="17.67" y="236.73" width="9.19" height="3.34"/>
	<rect x="13.87" y="236.71" width="2.93" height="3.38"/>
	<path d="M19.3,231.58h-1.63v3.34h9.19v-3.34h-4.21c-1.55,0-2.12-0.76-2.12-2c0-0.64,0.12-1.13,0.39-1.59l-3.15-0.21
		c-0.19,0.23-0.35,0.72-0.35,1.28C17.42,230.28,18.27,231.25,19.3,231.58z"/>
	<path d="M22.57,223.52h-4.91v3.34h5.79c1.92,0,3.65-0.76,3.65-3.28c0-1.38-0.6-2.39-1.63-2.89h1.38v-3.34h-9.19v3.34h4.51
		c1.4,0,2.31,0.41,2.31,1.46C24.49,223.17,23.81,223.52,22.57,223.52z"/>
	<path d="M20.53,216.02c1.88,0,2.6-1.18,2.95-3.4l0.21-1.36c0.1-0.64,0.35-0.85,0.7-0.85c0.37,0,0.64,0.39,0.64,1.13
		c0,1.01-0.43,1.63-1.2,1.75l0.04,2.91c2.23-0.19,3.24-2.08,3.24-4.62c0-2.62-1.11-4.27-3.05-4.27c-1.79,0-2.72,1.2-3.05,3.26
		l-0.31,1.79c-0.04,0.31-0.21,0.56-0.52,0.56c-0.41,0-0.66-0.37-0.66-1.01c0-1.03,0.41-1.61,1.07-1.73l-0.08-2.74
		c-1.92,0.19-3.09,1.75-3.09,4.41C17.42,214.43,18.72,216.02,20.53,216.02z"/>
	<rect x="23.32" y="200.93" width="3.55" height="3.55"/>
	<path d="M22.26,198.04c2.87,0,4.84-2.02,4.84-5.03c0-2.99-1.98-5.03-4.84-5.03c-2.84,0-4.84,2.04-4.84,5.03
		C17.42,196.02,19.42,198.04,22.26,198.04z M22.26,191.34c1.38,0,2.33,0.52,2.33,1.67c0,1.17-0.95,1.67-2.33,1.67
		s-2.33-0.49-2.33-1.67C19.93,191.86,20.88,191.34,22.26,191.34z"/>
	<path d="M17.77,179.53c-0.19,0.23-0.35,0.72-0.35,1.28c0,1.22,0.85,2.19,1.88,2.52h-1.63v3.34h9.19v-3.34h-4.21
		c-1.55,0-2.12-0.76-2.12-2c0-0.64,0.12-1.13,0.39-1.59L17.77,179.53z"/>
	<path d="M18.16,171.45c-0.47,0.78-0.74,1.83-0.74,2.95c0,2.58,1.2,4.43,3.15,4.43c1.01,0,1.79-0.49,2.33-1.32
		c0.37,0.99,1.05,1.57,1.94,1.57c0.78,0,1.53-0.49,1.79-1.32c0.08,1.03,0.72,1.75,1.53,1.75c1.73,0,2.25-2.27,2.25-4.89
		c0-2.99-1.05-5.77-3.34-5.77c-1.55,0-2.64,1.05-2.64,3.13v3.81c0,0.56-0.25,0.78-0.56,0.78c-0.19,0-0.33-0.06-0.43-0.19
		c0.19-0.6,0.27-1.26,0.27-2c0-2.6-1.2-4.47-3.13-4.47c-0.43,0-0.83,0.1-1.18,0.29c-0.1-0.45-0.14-0.95-0.14-1.34h-2.52
		C16.74,169.89,17.4,170.9,18.16,171.45z M27.27,172.77c0-0.56,0.14-0.85,0.54-0.85c0.56,0,0.87,1.13,0.87,2.68
		c0,1.24-0.19,2.16-0.85,2.16c-0.35,0-0.56-0.25-0.56-0.62V172.77z M20.57,173.39c0.82,0,1.34,0.41,1.34,0.97
		c0,0.56-0.52,0.97-1.34,0.97c-0.8,0-1.32-0.41-1.32-0.97C19.25,173.8,19.77,173.39,20.57,173.39z"/>
	<path d="M761.93,213.1l3.42,0.8v1.77l-3.42-0.8v2.49l3.42,0.8v2.04l2.06,0.43v-1.98l2.02,0.49v1.88l2.06,0.43v-1.83l3.42,0.82
		v-2.49l-3.42-0.82v-1.77l3.42,0.83v-2.49l-3.42-0.82v-2.02l-2.06-0.43v1.98l-2.02-0.49v-1.88l-2.06-0.43v1.81l-3.42-0.8V213.1z
		 M767.41,214.4l2.02,0.5v1.77l-2.02-0.49V214.4z"/>
	<path d="M768.42,224.09c-4,0-6.74,2.87-6.74,6.66c0,3.98,2.52,6.1,5.75,6.35l0.14-3.36c-1.44-0.21-2.78-0.99-2.78-3.01
		c0-1.92,1.42-3.03,3.63-3.03s3.63,1.11,3.63,3.03c0,2.02-1.34,2.8-2.78,3.01l0.12,3.36c3.24-0.25,5.77-2.37,5.77-6.35
		C775.16,226.95,772.42,224.09,768.42,224.09z"/>
	<path d="M761.72,246.18c0,0.95,0.27,1.61,0.6,2.08h1.77c-0.1-0.27-0.14-0.47-0.14-0.74c0-0.35,0.21-0.56,0.68-0.56h3.13
		c2.56,0,3.61-1.79,3.61-4.23c0-2.76-1.4-4.27-3.42-4.56l-0.21,3.09c0.68,0.14,1.15,0.52,1.15,1.26c0,0.8-0.45,1.15-1.22,1.15h-0.14
		l-0.43-2.58c-0.35-2-1.11-3.28-2.89-3.28c-1.57,0-2.49,1.18-2.49,2.97c0,1.46,0.56,2.52,1.63,3.05
		C762.3,244.16,761.72,245.05,761.72,246.18z M764.65,241.05c0.6,0,0.85,0.47,1.01,1.28l0.25,1.36h-0.14c-1.2,0-1.9-0.76-1.9-1.71
		C763.87,241.42,764.18,241.05,764.65,241.05z"/>
	<path d="M758.63,252.57h4.87c-1.07,0.45-1.81,1.48-1.81,3.03c0,2.7,2.12,4.08,4.84,4.08c2.7,0,4.84-1.38,4.84-4.08
		c0-1.55-0.74-2.58-1.83-3.03h1.59v-3.34h-12.49V252.57z M766.46,252.57h0.12c1.32,0,2.19,0.72,2.19,1.86c0,1.3-0.93,1.9-2.25,1.9
		c-1.34,0-2.27-0.6-2.27-1.9C764.26,253.29,765.12,252.57,766.46,252.57z"/>
	<rect x="771.99" y="260.98" width="2.93" height="3.38"/>
	<rect x="761.93" y="261" width="9.19" height="3.34"/>
	<path d="M773.66,267.68l-1.2-0.31c-0.85-0.23-1.34-0.52-1.48-1.44l-0.1-0.68h-2.06v1.24h-4.33c-2.16,0-2.8,1.46-2.8,3.01
		c0,1.26,0.31,2.06,0.82,2.76h2.16c-0.23-0.56-0.31-1.01-0.31-1.42c0-0.68,0.31-1.05,1.09-1.05h3.36v2.39h2.31v-2.39h2.54V267.68z"
		/>
	<path d="M764.63,282.13h3.13c2.56,0,3.61-1.79,3.61-4.23c0-2.76-1.4-4.27-3.42-4.56l-0.21,3.09c0.68,0.14,1.15,0.52,1.15,1.26
		c0,0.8-0.45,1.15-1.22,1.15h-0.14l-0.43-2.58c-0.35-2-1.11-3.28-2.89-3.28c-1.57,0-2.49,1.18-2.49,2.97c0,1.46,0.56,2.51,1.63,3.05
		c-1.05,0.31-1.63,1.2-1.63,2.33c0,0.95,0.27,1.61,0.6,2.08h1.77c-0.1-0.27-0.14-0.47-0.14-0.74
		C763.95,282.33,764.16,282.13,764.63,282.13z M763.87,277.14c0-0.56,0.31-0.93,0.78-0.93c0.6,0,0.85,0.47,1.01,1.28l0.25,1.36
		h-0.14C764.57,278.85,763.87,278.09,763.87,277.14z"/>
	<rect x="761.93" y="284.39" width="12.99" height="3.34"/>
	<rect x="761.93" y="289.55" width="9.19" height="3.34"/>
	<rect x="771.99" y="289.53" width="2.93" height="3.38"/>
	<path d="M768.26,294.22c-1.88,0-2.6,1.18-2.95,3.4l-0.21,1.36c-0.1,0.64-0.35,0.85-0.7,0.85c-0.37,0-0.64-0.39-0.64-1.13
		c0-1.01,0.43-1.63,1.2-1.75l-0.04-2.91c-2.23,0.19-3.24,2.08-3.24,4.62c0,2.62,1.11,4.27,3.05,4.27c1.79,0,2.72-1.2,3.05-3.26
		l0.31-1.79c0.04-0.31,0.21-0.56,0.52-0.56c0.41,0,0.66,0.37,0.66,1.01c0,1.03-0.41,1.61-1.07,1.73l0.08,2.74
		c1.92-0.19,3.09-1.75,3.09-4.41C771.37,295.81,770.07,294.22,768.26,294.22z"/>
	<path d="M771.37,310.41c0-1.38-0.62-2.37-1.63-2.87h1.38v-3.34h-9.19v3.34h4.51c1.38,0,2.29,0.39,2.29,1.48
		c0,1.01-0.66,1.26-1.92,1.26h-4.89v3.34h4.51c1.38,0,2.29,0.37,2.29,1.48c0,1.01-0.66,1.24-1.92,1.24h-4.89v3.34h5.77
		c1.92,0,3.67-0.74,3.67-3.28c0-1.55-0.78-2.64-1.81-3.13C770.63,312.88,771.37,312.03,771.37,310.41z"/>
	<rect x="761.93" y="323.27" width="12.99" height="3.5"/>
	<path d="M764.96,330.92l-0.04-2.91c-2.23,0.19-3.24,2.08-3.24,4.62c0,2.62,1.11,4.27,3.05,4.27c1.79,0,2.72-1.2,3.05-3.26
		l0.31-1.79c0.04-0.31,0.21-0.56,0.52-0.56c0.41,0,0.66,0.37,0.66,1.01c0,1.03-0.41,1.61-1.07,1.73l0.08,2.74
		c1.92-0.19,3.09-1.75,3.09-4.41c0-2.58-1.3-4.16-3.11-4.16c-1.88,0-2.6,1.18-2.95,3.4l-0.21,1.36c-0.1,0.64-0.35,0.85-0.7,0.85
		c-0.37,0-0.64-0.39-0.64-1.13C763.76,331.66,764.2,331.04,764.96,330.92z"/>
	<path d="M761.93,342.59l2.52,0.97v5.07l-2.52,0.97v3.73l12.99-5.17v-3.92l-12.99-5.17V342.59z M767.06,344.57l3.83,1.48v0.08
		l-3.83,1.48V344.57z"/>
	<polygon points="761.93,363.81 774.92,368.8 774.92,365.31 766.28,362.1 766.28,362.01 774.92,358.8 774.92,355.13 761.93,360.12 	
		"/>
	<rect x="771.99" y="369.68" width="2.93" height="3.38"/>
	<rect x="761.93" y="369.7" width="9.19" height="3.34"/>
	<path d="M769.5,378.19h1.63v-3.34h-9.19v3.34h4.21c1.55,0,2.12,0.76,2.12,2c0,0.64-0.12,1.13-0.39,1.59l3.15,0.21
		c0.19-0.23,0.35-0.72,0.35-1.28C771.37,379.49,770.53,378.52,769.5,378.19z"/>
	<path d="M766.22,386.25h4.91v-3.34h-5.79c-1.92,0-3.65,0.76-3.65,3.28c0,1.38,0.6,2.39,1.63,2.89h-1.38v3.34h9.19v-3.34h-4.51
		c-1.4,0-2.31-0.41-2.31-1.46C764.3,386.6,764.98,386.25,766.22,386.25z"/>
	<path d="M768.26,393.75c-1.88,0-2.6,1.18-2.95,3.4l-0.21,1.36c-0.1,0.64-0.35,0.85-0.7,0.85c-0.37,0-0.64-0.39-0.64-1.13
		c0-1.01,0.43-1.63,1.2-1.75l-0.04-2.91c-2.23,0.19-3.24,2.08-3.24,4.62c0,2.62,1.11,4.27,3.05,4.27c1.79,0,2.72-1.2,3.05-3.26
		l0.31-1.79c0.04-0.31,0.21-0.56,0.52-0.56c0.41,0,0.66,0.37,0.66,1.01c0,1.03-0.41,1.61-1.07,1.73l0.08,2.74
		c1.92-0.19,3.09-1.75,3.09-4.41C771.37,395.34,770.07,393.75,768.26,393.75z"/>
</g>
<g id="exp_white_bg" class="st0">
	<g class="st2">
		<path class="st8" d="M0,612h792V-612H0V612z M26.86,404.1l-5.19,1.34v0.08l5.19,1.34v3.28l-9.06,2.86l9.06,2.86v3.28l-5.19,1.34
			v0.08l5.19,1.34v3.28l-9.06,2.86l9.06,2.86v3.28l-5.19,1.34v0.08l5.19,1.34v3.28l-9.19,2.91v-3.32l5.22-1.65v-0.08l-5.22-1.34
			v-2.66l5.22-1.34v-0.08l-5.22-1.65v-2.92v-0.09v-3.23l5.22-1.65v-0.08l-5.22-1.34v-2.66l5.22-1.34v-0.08l-5.22-1.65v-2.92v-0.09
			v-3.23l5.22-1.65V408l-5.22-1.34V404l5.22-1.34v-0.08l-5.22-1.65v-3.01l9.19,2.91V404.1z M26.86,395.49h-3.55v-3.55h3.55V395.49z
			 M30.16,363.91H17.67v-3.34h1.59c-1.09-0.45-1.83-1.48-1.83-3.03c0-2.7,2.14-4.08,4.84-4.08c2.72,0,4.84,1.38,4.84,4.08
			c0,1.55-0.74,2.58-1.81,3.03h4.86V363.91z M27.07,372.34c0,1.79-0.93,2.97-2.49,2.97c-1.77,0-2.54-1.28-2.89-3.28l-0.43-2.58
			h-0.14c-0.76,0-1.22,0.35-1.22,1.15c0,0.74,0.47,1.11,1.15,1.26l-0.21,3.09c-2.02-0.29-3.42-1.79-3.42-4.56
			c0-2.43,1.05-4.23,3.61-4.23h3.13c0.47,0,0.68-0.21,0.68-0.56c0-0.27-0.04-0.47-0.14-0.74h1.77c0.33,0.47,0.6,1.13,0.6,2.08
			c0,1.13-0.58,2.02-1.63,2.33C26.51,369.83,27.07,370.88,27.07,372.34z M24.7,329.72h1.77c0.33,0.47,0.6,1.13,0.6,2.08
			c0,1.13-0.58,2.02-1.63,2.33c1.07,0.54,1.63,1.59,1.63,3.05c0,1.79-0.93,2.97-2.49,2.97c-1.77,0-2.54-1.28-2.89-3.28l-0.43-2.58
			h-0.14c-0.76,0-1.22,0.35-1.22,1.15c0,0.74,0.47,1.11,1.15,1.26l-0.21,3.09c-2.02-0.29-3.42-1.79-3.42-4.56
			c0-2.43,1.05-4.23,3.61-4.23h3.13c0.47,0,0.68-0.21,0.68-0.56C24.84,330.19,24.8,329.99,24.7,329.72z M17.42,296.74
			c0-2.54,1.75-3.28,3.67-3.28h5.77v3.34h-4.89c-1.26,0-1.92,0.23-1.92,1.24c0,1.11,0.91,1.48,2.29,1.48h4.51v3.34h-4.89
			c-1.26,0-1.92,0.25-1.92,1.26c0,1.09,0.91,1.48,2.29,1.48h4.51v3.34h-9.19v-3.34h1.38c-1.01-0.49-1.63-1.48-1.63-2.87
			c0-1.63,0.74-2.47,1.81-2.87C18.2,299.38,17.42,298.29,17.42,296.74z M20.51,310.35l0.08,2.74c-0.66,0.12-1.07,0.7-1.07,1.73
			c0,0.64,0.25,1.01,0.66,1.01c0.31,0,0.47-0.25,0.52-0.56l0.31-1.79c0.33-2.06,1.26-3.26,3.05-3.26c1.94,0,3.05,1.65,3.05,4.27
			c0,2.54-1.01,4.43-3.24,4.62l-0.04-2.91c0.76-0.12,1.2-0.74,1.2-1.75c0-0.74-0.27-1.13-0.64-1.13c-0.35,0-0.6,0.21-0.7,0.85
			l-0.21,1.36c-0.35,2.23-1.07,3.4-2.95,3.4c-1.81,0-3.11-1.59-3.11-4.16C17.42,312.1,18.59,310.53,20.51,310.35z M24.39,277.68
			c-0.35,0-0.6,0.21-0.7,0.85l-0.21,1.36c-0.35,2.23-1.07,3.4-2.95,3.4c-1.81,0-3.11-1.59-3.11-4.16c0-2.66,1.17-4.23,3.09-4.41
			l0.08,2.74c-0.66,0.12-1.07,0.7-1.07,1.73c0,0.64,0.25,1.01,0.66,1.01c0.31,0,0.47-0.25,0.52-0.56l0.31-1.79
			c0.33-2.06,1.26-3.26,3.05-3.26c1.94,0,3.05,1.65,3.05,4.27c0,2.54-1.01,4.43-3.24,4.62l-0.04-2.91c0.76-0.12,1.2-0.74,1.2-1.75
			C25.03,278.07,24.76,277.68,24.39,277.68z M22.66,183.33h4.21v3.34h-9.19v-3.34h1.63c-1.03-0.33-1.88-1.3-1.88-2.52
			c0-0.56,0.17-1.05,0.35-1.28l3.15,0.21c-0.27,0.45-0.39,0.95-0.39,1.59C20.53,182.56,21.11,183.33,22.66,183.33z M22.26,187.98
			c2.87,0,4.84,2.04,4.84,5.03c0,3.01-1.98,5.03-4.84,5.03c-2.84,0-4.84-2.02-4.84-5.03C17.42,190.02,19.42,187.98,22.26,187.98z
			 M26.86,200.93v3.55h-3.55v-3.55H26.86z M20.51,207.44l0.08,2.74c-0.66,0.12-1.07,0.7-1.07,1.73c0,0.64,0.25,1.01,0.66,1.01
			c0.31,0,0.47-0.25,0.52-0.56l0.31-1.79c0.33-2.06,1.26-3.26,3.05-3.26c1.94,0,3.05,1.65,3.05,4.27c0,2.54-1.01,4.43-3.24,4.62
			l-0.04-2.91c0.76-0.12,1.2-0.74,1.2-1.75c0-0.74-0.27-1.13-0.64-1.13c-0.35,0-0.6,0.21-0.7,0.85l-0.21,1.36
			c-0.35,2.23-1.07,3.4-2.95,3.4c-1.81,0-3.11-1.59-3.11-4.16C17.42,209.19,18.59,207.62,20.51,207.44z M22.18,220.69h-4.51v-3.34
			h9.19v3.34h-1.38c1.03,0.49,1.63,1.5,1.63,2.89c0,2.52-1.73,3.28-3.65,3.28h-5.79v-3.34h4.91c1.24,0,1.92-0.35,1.92-1.36
			C24.49,221.1,23.58,220.69,22.18,220.69z M17.77,227.78l3.15,0.21c-0.27,0.45-0.39,0.95-0.39,1.59c0,1.24,0.58,2,2.12,2h4.21v3.34
			h-9.19v-3.34h1.63c-1.03-0.33-1.88-1.3-1.88-2.52C17.42,228.5,17.58,228.01,17.77,227.78z M17.67,236.73h9.19v3.34h-9.19V236.73z
			 M17.67,320.26h9.19v3.34h-9.19V320.26z M17.67,343.36v-2.39h2.31v2.39h3.36c0.78,0,1.09-0.37,1.09-1.05
			c0-0.41-0.08-0.87-0.31-1.42h2.16c0.52,0.7,0.82,1.5,0.82,2.76c0,1.55-0.64,3.01-2.8,3.01h-4.33v1.24h-2.06l-0.1-0.68
			c-0.14-0.93-0.64-1.22-1.48-1.44l-1.2-0.31v-2.1H17.67z M26.86,348.81v3.34h-9.19v-3.34H26.86z M607.72,258.2l-20.02-6.61
			c-4.67,8.7-10.41,17.91-17.35,27.12c-5.94,7.87-13.32,16.48-22.36,25.23c9.51,2.25,17.95,6.38,24.74,18.34
			c6.37,11.23,14.14,75.13,16.95,99.83c7.88,18.92,10.1,36.5-0.3,57.01c-17.06,37.43-54.62,95.25-62.69,107.55l0.55,8.59
			c0.28,4.41-3.06,8.21-7.47,8.5c-0.17,0.01-0.35,0.02-0.52,0.02c-4.18,0-7.7-3.25-7.98-7.49l-0.73-11.27
			c-0.11-1.74,0.35-3.48,1.32-4.94c0.45-0.67,44.78-67.67,62.99-107.68c0.03-0.06,0.06-0.11,0.08-0.16
			c0.03-0.05,0.05-0.11,0.07-0.17c0.28-0.54,0.54-1.08,0.8-1.62c7.24-15.18,5.98-28.53-4.47-50.06c-1.38-2.85-3.43-7.22-6.02-12.75
			c-6.87-14.69-17.25-36.88-27.29-56.3c-6.88-13.3-10.91-19.47-19.84-27.6c-8.28-7.53-52.94-54.64-54.84-56.65
			c-13.78-14.41-23.52-8.24-25.34-6.85c-4.22,3.22-8.84,12.27,0.33,25.86l53.68,61.73c0.67,0.77,1.19,1.67,1.53,2.64l20.68,59.88
			c0.04,0.1,0.06,0.2,0.09,0.31c0.03,0.11,0.07,0.23,0.1,0.35c0.03,0.14,0.06,0.27,0.09,0.41c0.02,0.12,0.05,0.25,0.07,0.37
			c0.02,0.13,0.03,0.27,0.05,0.4c0.01,0.13,0.02,0.25,0.03,0.38c0.01,0.14,0.01,0.27,0.01,0.4c0,0.13,0,0.25-0.01,0.38
			c-0.01,0.14-0.02,0.27-0.03,0.41c-0.01,0.12-0.02,0.24-0.04,0.37c-0.02,0.14-0.05,0.28-0.08,0.42c-0.02,0.12-0.05,0.23-0.07,0.34
			c-0.04,0.15-0.08,0.29-0.13,0.44c-0.02,0.08-0.04,0.15-0.07,0.23c-0.46,1.34-11.55,32.78-37.85,32.78
			c-17.58,0-35.58-16.1-37.57-17.93c-1.42-1.31-2.32-3.09-2.54-5.01c-0.03-0.28-3.18-28.47-10.07-52.22
			c-9.36-32.26-23.29-31.71-35.61-28.67c-2.94,0.73-4.56,1.13-3.4,12.57c1.99,19.8,4.2,37.16,6.55,55.53
			c1.39,10.94,2.84,22.25,4.21,34.04c0.09,0.75,0.07,1.51-0.06,2.26c-10.56,62.58,17.53,116.44,17.82,116.98
			c0.74,1.39,1.05,2.96,0.9,4.52l-0.74,7.62l-1.8,18.52c-0.4,4.13-3.88,7.23-7.95,7.23c-0.26,0-0.52-0.01-0.78-0.04
			c-4.4-0.43-7.62-4.34-7.19-8.74l2.31-23.84c-5.52-11.32-28.39-63.03-18.53-123.78c-1.33-11.3-2.72-22.2-4.06-32.75
			c-1.62-12.76-3.29-25.84-4.85-39.65c-2.35,0.07-4.67,0.11-6.96,0.11c-28.18,0-52.01-4.85-70.87-10.95l-5.76,17.43l-22.79-7.53
			l6.14-18.59c-30.11-13.71-50.66-31.63-57.01-40.54c-8.1-11.36-15.21-38.41-23.45-69.72c-2.5-9.49-5.08-19.3-7.66-28.52
			c-4.74-16.89-4.04-34.3,1.94-50.86l-14.79-6.18l9.25-22.15l16.57,6.92c8.79-12.92,21-24.88,35.94-35.1
			c8.45-5.78,17.33-12.09,26.73-18.78c32.14-22.86,65.37-46.5,87.12-52.61h0c21.75-6.11,62.43-3.23,101.77-0.44
			c11.51,0.82,22.38,1.59,32.6,2.12c14.26,0.75,27.62,3.31,39.61,7.53l6.51-15.6l22.15,9.25l-6.98,16.72
			c0.23,0.15,0.48,0.29,0.71,0.44c17.76,11.48,30.09,28.03,35.66,47.86c2.59,9.22,5.49,18.94,8.3,28.34
			c9.27,31.03,17.28,57.82,16.28,71.74c-0.37,5.09-2.36,13.49-6.26,23.76l17.48,5.78L607.72,258.2z M368.94-489.09
			c0,27.92-19.88,47.2-49.01,47.2c-29.32,0-49.01-19.28-49.01-47.2c0-27.72,19.68-47.2,49.01-47.2
			C349.05-536.29,368.94-516.81,368.94-489.09z M349.97-588.45v-9.19h3.34v9.19H349.97z M508.1-257.89v42.4H362.13v-190.79h51.48
			v148.39H508.1z M676.18-257.89v42.4H530.21v-190.79h51.48v148.39H676.18z M543.88-149.51c29.93,0,45.79,20.49,45.79,44.79v9.04
			h-62.87c0.8,11.05,8.84,16.27,18.68,16.27c8.84,0,14.46-3.01,17.47-10.04l26.11,2.41c-4.62,20.49-21.09,31.94-44.79,31.94
			c-28.72,0-49.21-17.27-49.21-45.79C495.07-129.22,515.96-149.51,543.88-149.51z M488.51-18.18l-1.36-0.21
			c-2.23-0.35-3.4-1.07-3.4-2.95c0-1.81,1.59-3.11,4.16-3.11c2.66,0,4.23,1.18,4.41,3.09l-2.74,0.08c-0.12-0.66-0.7-1.07-1.73-1.07
			c-0.64,0-1.01,0.25-1.01,0.66c0,0.31,0.25,0.47,0.56,0.52l1.79,0.31c2.06,0.33,3.26,1.26,3.26,3.05c0,1.94-1.65,3.05-4.27,3.05
			c-2.54,0-4.43-1.01-4.62-3.24l2.91-0.04c0.12,0.76,0.74,1.2,1.75,1.2c0.74,0,1.13-0.27,1.13-0.64
			C489.36-17.83,489.15-18.08,488.51-18.18z M461.13-57.52l-25.71-36.35l-7.83,8.03v28.32h-32.54v-126.54h32.54v67.89l30.73-30.93
			h38.16l-36.96,35.15l38.16,54.43H461.13z M476.19-14.76c-2.52,0-3.28-1.73-3.28-3.65v-5.79h3.34v4.91c0,1.24,0.35,1.92,1.36,1.92
			c1.05,0,1.46-0.91,1.46-2.31v-4.51h3.34v9.19h-3.34v-1.38C478.58-15.36,477.57-14.76,476.19-14.76z M470.71-24.45
			c0.56,0,1.05,0.17,1.28,0.35l-0.21,3.15c-0.45-0.27-0.95-0.39-1.59-0.39c-1.24,0-2,0.58-2,2.12v4.21h-3.34v-9.19h3.34v1.63
			C468.52-23.6,469.49-24.45,470.71-24.45z M459.68-25.07v-2.93h3.38v2.93H459.68z M463.04-24.2v9.19h-3.34v-9.19H463.04z
			 M458.8-27.99l-4.99,12.99h-3.69l-4.99-12.99h3.67l3.22,8.64h0.08l3.22-8.64H458.8z M443.33-15.01h-3.73l-0.97-2.51h-5.07
			l-0.97,2.51h-3.53l5.17-12.99h3.92L443.33-15.01z M422.96-18.18l-1.36-0.21c-2.23-0.35-3.4-1.07-3.4-2.95
			c0-1.81,1.59-3.11,4.16-3.11c2.66,0,4.23,1.18,4.41,3.09l-2.74,0.08c-0.12-0.66-0.7-1.07-1.73-1.07c-0.64,0-1.01,0.25-1.01,0.66
			c0,0.31,0.25,0.47,0.56,0.52l1.79,0.31c2.06,0.33,3.26,1.26,3.26,3.05c0,1.94-1.65,3.05-4.27,3.05c-2.54,0-4.43-1.01-4.62-3.24
			l2.91-0.04c0.12,0.76,0.74,1.2,1.75,1.2c0.74,0,1.13-0.27,1.13-0.64C423.8-17.83,423.6-18.08,422.96-18.18z M416.78-27.99v12.99
			h-3.5v-12.99H416.78z M405.11-21.81c-1.11,0-1.48,0.91-1.48,2.29v4.51h-3.34v-4.89c0-1.26-0.25-1.92-1.26-1.92
			c-1.09,0-1.48,0.91-1.48,2.29v4.51h-3.34v-9.19h3.34v1.38c0.49-1.01,1.48-1.63,2.87-1.63c1.63,0,2.47,0.74,2.87,1.81
			c0.5-1.03,1.59-1.81,3.13-1.81c2.54,0,3.28,1.75,3.28,3.67v5.77h-3.34v-4.89C406.34-21.15,406.12-21.81,405.11-21.81z
			 M379.53-25.07v-2.93h3.38v2.93H379.53z M382.89-24.2v9.19h-3.34v-9.19H382.89z M367.53-119.18c-12.05,0-19.48,5.62-19.48,20.69
			v40.97h-32.54v-89.58h32.54v15.87c3.21-10.04,12.65-18.28,24.5-18.28c5.42,0,10.24,1.61,12.45,3.41L383-115.36
			C378.58-117.98,373.76-119.18,367.53-119.18z M377.73-27.99v12.99h-3.34v-12.99H377.73z M367.7-21.97c-0.74,0-1.11,0.47-1.26,1.15
			l-3.09-0.21c0.29-2.02,1.79-3.42,4.56-3.42c2.43,0,4.23,1.05,4.23,3.61v3.13c0,0.47,0.21,0.68,0.56,0.68
			c0.27,0,0.47-0.04,0.74-0.14v1.77c-0.47,0.33-1.13,0.6-2.08,0.6c-1.13,0-2.02-0.58-2.33-1.63c-0.54,1.07-1.59,1.63-3.05,1.63
			c-1.79,0-2.97-0.93-2.97-2.49c0-1.77,1.28-2.54,3.28-2.89l2.58-0.43v-0.14C368.85-21.52,368.5-21.97,367.7-21.97z M355.25-21.89
			v-2.06l0.68-0.1c0.93-0.14,1.22-0.64,1.44-1.48l0.31-1.2h2.1v2.54h2.39v2.31h-2.39v3.36c0,0.78,0.37,1.09,1.05,1.09
			c0.41,0,0.87-0.08,1.42-0.31v2.16c-0.7,0.52-1.5,0.82-2.76,0.82c-1.55,0-3.01-0.64-3.01-2.8v-4.33H355.25z M350.98-25.07v-2.93
			h3.38v2.93H350.98z M354.34-24.2v9.19H351v-9.19H354.34z M345.6-24.45c2.7,0,4.08,2.14,4.08,4.84c0,2.72-1.38,4.84-4.08,4.84
			c-1.55,0-2.58-0.74-3.03-1.81v4.87h-3.34V-24.2h3.34v1.59C343.03-23.71,344.06-24.45,345.6-24.45z M332.54-21.97
			c-0.74,0-1.11,0.47-1.26,1.15l-3.09-0.21c0.29-2.02,1.79-3.42,4.56-3.42c2.43,0,4.23,1.05,4.23,3.61v3.13
			c0,0.47,0.21,0.68,0.56,0.68c0.27,0,0.47-0.04,0.74-0.14v1.77c-0.47,0.33-1.13,0.6-2.08,0.6c-1.13,0-2.02-0.58-2.33-1.63
			c-0.54,1.07-1.59,1.63-3.05,1.63c-1.79,0-2.97-0.93-2.97-2.49c0-1.77,1.28-2.54,3.28-2.89l2.58-0.43v-0.14
			C333.69-21.52,333.34-21.97,332.54-21.97z M320.73-17.87c2.02,0,2.8-1.34,3.01-2.78l3.36,0.14c-0.25,3.24-2.37,5.75-6.35,5.75
			c-3.79,0-6.66-2.74-6.66-6.74c0-4,2.87-6.74,6.66-6.74c3.98,0,6.1,2.54,6.35,5.77l-3.36,0.12c-0.21-1.44-0.99-2.78-3.01-2.78
			c-1.92,0-3.03,1.42-3.03,3.63C317.7-19.29,318.81-17.87,320.73-17.87z M388.99-18.18l-1.36-0.21c-2.23-0.35-3.4-1.07-3.4-2.95
			c0-1.81,1.59-3.11,4.16-3.11c2.66,0,4.23,1.18,4.41,3.09l-2.74,0.08c-0.12-0.66-0.7-1.07-1.73-1.07c-0.64,0-1.01,0.25-1.01,0.66
			c0,0.31,0.25,0.47,0.56,0.52l1.79,0.31c2.06,0.33,3.26,1.26,3.26,3.05c0,1.94-1.65,3.05-4.27,3.05c-2.54,0-4.43-1.01-4.62-3.24
			l2.91-0.04c0.12,0.76,0.74,1.2,1.75,1.2c0.74,0,1.13-0.27,1.13-0.64C389.83-17.83,389.63-18.08,388.99-18.18z M271.59-406.28
			l76.01,190.79h-54.81l-14.23-36.95h-74.5l-14.23,36.95h-51.79l76.01-190.79H271.59z M310.64-20.49l-0.43,2.06h-2.04l-0.8,3.42
			h-2.49l0.8-3.42h-1.77l-0.8,3.42h-2.49l0.8-3.42h-1.81l0.43-2.06h1.88l0.49-2.02h-1.98l0.43-2.06h2.02l0.82-3.42h2.49l-0.82,3.42
			h1.77l0.82-3.42h2.49l-0.82,3.42h1.83l-0.43,2.06h-1.88l-0.49,2.02H310.64z M253.65-149.51c29.12,0,49.01,19.48,49.01,47.2
			c0,27.92-19.88,47.2-49.01,47.2c-29.32,0-49.01-19.28-49.01-47.2C204.64-130.03,224.32-149.51,253.65-149.51z M670.41-115.36
			c-4.42-2.61-9.24-3.82-15.47-3.82c-12.05,0-19.48,5.62-19.48,20.69v40.97h-32.54v-89.58h32.54v15.87
			c3.21-10.04,12.65-18.28,24.5-18.28c5.42,0,10.24,1.61,12.45,3.41L670.41-115.36z M761.72,240.8c0-1.79,0.93-2.97,2.49-2.97
			c1.77,0,2.54,1.28,2.89,3.28l0.43,2.58h0.14c0.76,0,1.22-0.35,1.22-1.15c0-0.74-0.47-1.11-1.15-1.26l0.21-3.09
			c2.02,0.29,3.42,1.79,3.42,4.56c0,2.43-1.05,4.23-3.61,4.23h-3.13c-0.47,0-0.68,0.21-0.68,0.56c0,0.27,0.04,0.47,0.14,0.74h-1.77
			c-0.33-0.47-0.6-1.13-0.6-2.08c0-1.13,0.58-2.02,1.63-2.33C762.28,243.32,761.72,242.27,761.72,240.8z M764.09,283.43h-1.77
			c-0.33-0.47-0.6-1.13-0.6-2.08c0-1.13,0.58-2.02,1.63-2.33c-1.07-0.54-1.63-1.59-1.63-3.05c0-1.79,0.93-2.97,2.49-2.97
			c1.77,0,2.54,1.28,2.89,3.28l0.43,2.58h0.14c0.76,0,1.22-0.35,1.22-1.15c0-0.74-0.47-1.11-1.15-1.26l0.21-3.09
			c2.02,0.29,3.42,1.79,3.42,4.56c0,2.43-1.05,4.23-3.61,4.23h-3.13c-0.47,0-0.68,0.21-0.68,0.56
			C763.95,282.95,763.99,283.16,764.09,283.43z M771.37,316.4c0,2.54-1.75,3.28-3.67,3.28h-5.77v-3.34h4.89
			c1.26,0,1.92-0.23,1.92-1.24c0-1.11-0.91-1.48-2.29-1.48h-4.51v-3.34h4.89c1.26,0,1.92-0.25,1.92-1.26c0-1.09-0.91-1.48-2.29-1.48
			h-4.51v-3.34h9.19v3.34h-1.38c1.01,0.5,1.63,1.48,1.63,2.87c0,1.63-0.74,2.47-1.81,2.87C770.59,313.77,771.37,314.86,771.37,316.4
			z M768.28,302.8l-0.08-2.74c0.66-0.12,1.07-0.7,1.07-1.73c0-0.64-0.25-1.01-0.66-1.01c-0.31,0-0.47,0.25-0.52,0.56l-0.31,1.79
			c-0.33,2.06-1.26,3.26-3.05,3.26c-1.94,0-3.05-1.65-3.05-4.27c0-2.54,1.01-4.43,3.24-4.62l0.04,2.91c-0.76,0.12-1.2,0.74-1.2,1.75
			c0,0.74,0.27,1.13,0.64,1.13c0.35,0,0.6-0.21,0.7-0.85l0.21-1.36c0.35-2.23,1.07-3.4,2.95-3.4c1.81,0,3.11,1.59,3.11,4.16
			C771.37,301.05,770.2,302.62,768.28,302.8z M764.4,333.8c0.35,0,0.6-0.21,0.7-0.85l0.21-1.36c0.35-2.23,1.07-3.4,2.95-3.4
			c1.81,0,3.11,1.59,3.11,4.16c0,2.66-1.18,4.23-3.09,4.41l-0.08-2.74c0.66-0.12,1.07-0.7,1.07-1.73c0-0.64-0.25-1.01-0.66-1.01
			c-0.31,0-0.47,0.25-0.52,0.56l-0.31,1.79c-0.33,2.06-1.26,3.26-3.05,3.26c-1.94,0-3.05-1.65-3.05-4.27c0-2.54,1.01-4.43,3.24-4.62
			l0.04,2.91c-0.76,0.12-1.2,0.74-1.2,1.75C763.76,333.41,764.03,333.8,764.4,333.8z M761.93,369.7h9.19v3.34h-9.19V369.7z
			 M766.61,389.07h4.51v3.34h-9.19v-3.34h1.38c-1.03-0.49-1.63-1.5-1.63-2.89c0-2.52,1.73-3.28,3.65-3.28h5.79v3.34h-4.91
			c-1.24,0-1.92,0.35-1.92,1.36C764.3,388.66,765.21,389.07,766.61,389.07z M771.12,292.89h-9.19v-3.34h9.19V292.89z M771.12,269.78
			v2.39h-2.31v-2.39h-3.36c-0.78,0-1.09,0.37-1.09,1.05c0,0.41,0.08,0.87,0.31,1.42h-2.16c-0.52-0.7-0.82-1.5-0.82-2.76
			c0-1.55,0.64-3.01,2.8-3.01h4.33v-1.24h2.06l0.1,0.68c0.14,0.93,0.64,1.22,1.48,1.44l1.2,0.31v2.1H771.12z M761.93,264.34V261
			h9.19v3.34H761.93z M771.12,249.23v3.34h-1.59c1.09,0.45,1.83,1.48,1.83,3.03c0,2.7-2.14,4.08-4.84,4.08
			c-2.72,0-4.84-1.38-4.84-4.08c0-1.55,0.74-2.58,1.81-3.03h-4.87v-3.34H771.12z M768.28,402.33l-0.08-2.74
			c0.66-0.12,1.07-0.7,1.07-1.73c0-0.64-0.25-1.01-0.66-1.01c-0.31,0-0.47,0.25-0.52,0.56l-0.31,1.79
			c-0.33,2.06-1.26,3.26-3.05,3.26c-1.94,0-3.05-1.65-3.05-4.27c0-2.54,1.01-4.43,3.24-4.62l0.04,2.91c-0.76,0.12-1.2,0.74-1.2,1.75
			c0,0.74,0.27,1.13,0.64,1.13c0.35,0,0.6-0.21,0.7-0.85l0.21-1.36c0.35-2.23,1.07-3.4,2.95-3.4c1.81,0,3.11,1.59,3.11,4.16
			C771.37,400.58,770.2,402.14,768.28,402.33z M771.02,381.99l-3.15-0.21c0.27-0.45,0.39-0.95,0.39-1.59c0-1.24-0.58-2-2.12-2h-4.21
			v-3.34h9.19v3.34h-1.63c1.03,0.33,1.88,1.3,1.88,2.52C771.37,381.26,771.21,381.76,771.02,381.99z M774.92,373.06h-2.93v-3.38
			h2.93V373.06z M774.92,358.8l-8.64,3.22v0.08l8.64,3.22v3.48l-12.99-4.99v-3.69l12.99-4.99V358.8z M774.92,348.16l-12.99,5.17
			v-3.73l2.52-0.97v-5.07l-2.52-0.97v-3.52l12.99,5.17V348.16z M774.92,326.78h-12.99v-3.5h12.99V326.78z M774.92,292.91h-2.93
			v-3.38h2.93V292.91z M774.92,287.73h-12.99v-3.34h12.99V287.73z M774.92,264.36h-2.93v-3.38h2.93V264.36z M769.39,237.1
			l-0.12-3.36c1.44-0.21,2.78-0.99,2.78-3.01c0-1.92-1.42-3.03-3.63-3.03s-3.63,1.11-3.63,3.03c0,2.02,1.34,2.8,2.78,3.01
			l-0.14,3.36c-3.24-0.25-5.75-2.37-5.75-6.35c0-3.79,2.74-6.66,6.74-6.66s6.74,2.87,6.74,6.66
			C775.16,234.73,772.63,236.85,769.39,237.1z M765.35,209.59l2.06,0.43v1.88l2.02,0.49v-1.98l2.06,0.43v2.02l3.42,0.82v2.49
			l-3.42-0.83v1.77l3.42,0.82v2.49l-3.42-0.82v1.83l-2.06-0.43v-1.88l-2.02-0.49v1.98l-2.06-0.43v-2.04l-3.42-0.8v-2.49l3.42,0.8
			v-1.77l-3.42-0.8v-2.49l3.42,0.8V209.59z M761.4-119.38l-26.71,0.8c-1.21-6.43-6.83-10.44-16.87-10.44
			c-6.23,0-9.84,2.41-9.84,6.43c0,3.01,2.41,4.62,5.42,5.02l17.47,3.01c20.08,3.21,31.73,12.25,31.73,29.73
			c0,18.88-16.07,29.73-41.58,29.73c-24.7,0-43.18-9.84-44.99-31.53l28.32-0.4c1.21,7.43,7.23,11.65,17.07,11.65
			c7.23,0,11.05-2.61,11.05-6.23c0-3.41-2.01-5.82-8.23-6.83l-13.26-2.01c-21.69-3.41-33.14-10.44-33.14-28.72
			c0-17.68,15.47-30.33,40.57-30.33C744.32-149.51,759.59-138.06,761.4-119.38z M649.72-531.47l6.63-1
			c9.04-1.41,11.85-6.23,14.06-14.46l3.01-11.65h20.49v24.71h23.3v22.5h-23.3v32.74c0,7.63,3.62,10.65,10.24,10.65
			c4.02,0,8.44-0.8,13.86-3.01v21.09c-6.83,5.02-14.66,8.03-26.91,8.03c-15.06,0-29.32-6.23-29.32-27.32v-42.18h-12.05V-531.47z
			 M601.92-536.29c26.91,0,41.98,17.47,44.19,38.96l-26.71,1.81c-2.21-11.05-7.63-16.27-17.07-16.27c-9.84,0-16.67,6.63-16.67,22.7
			c0,16.07,6.83,22.7,16.67,22.7c9.44,0,14.86-5.42,17.07-16.47l26.71,2.01c-2.21,21.69-17.27,38.97-44.19,38.97
			c-28.32,0-49.01-18.68-49.01-47.2C552.91-517.42,573.6-536.29,601.92-536.29z M543.48-482.47h-62.87
			c0.8,11.05,8.84,16.27,18.68,16.27c8.84,0,14.46-3.01,17.47-10.04l26.11,2.41c-4.62,20.49-21.09,31.94-44.79,31.94
			c-28.72,0-49.21-17.27-49.21-45.79c0-28.32,20.89-48.61,48.81-48.61c29.93,0,45.79,20.49,45.79,44.79V-482.47z M462.05-588.45
			v-9.19h3.34v9.19H462.05z M523.04-590.47c0-0.89,0.58-1.57,1.57-1.94c-0.82-0.54-1.32-1.32-1.32-2.33c0-1.96,1.86-3.15,4.43-3.15
			c1.11,0,2.16,0.27,2.95,0.74c0.56-0.76,1.57-1.42,2.58-1.42v2.51c-0.39,0-0.89,0.04-1.34,0.14c0.19,0.35,0.29,0.74,0.29,1.17
			c0,1.94-1.88,3.13-4.47,3.13c-0.74,0-1.4-0.08-2-0.27c-0.12,0.1-0.19,0.25-0.19,0.43c0,0.31,0.23,0.56,0.78,0.56h3.81
			c2.08,0,3.13,1.09,3.13,2.64c0,2.29-2.78,3.34-5.77,3.34c-2.62,0-4.89-0.52-4.89-2.25c0-0.8,0.72-1.44,1.75-1.53
			C523.53-588.94,523.04-589.68,523.04-590.47z M515.45-597.64h3.34v1.63c0.33-1.03,1.3-1.88,2.51-1.88c0.56,0,1.05,0.16,1.28,0.35
			l-0.21,3.15c-0.45-0.27-0.95-0.39-1.59-0.39c-1.24,0-2,0.58-2,2.12v4.21h-3.34V-597.64z M509.1-597.89c2.99,0,5.03,2,5.03,4.84
			c0,2.87-2.04,4.84-5.03,4.84c-3.01,0-5.03-1.98-5.03-4.84C504.08-595.89,506.1-597.89,509.1-597.89z M497.64-591.99h3.55v3.55
			h-3.55V-591.99z M490.87-591.62l-1.36-0.21c-2.23-0.35-3.4-1.07-3.4-2.95c0-1.81,1.59-3.11,4.16-3.11c2.66,0,4.23,1.18,4.41,3.09
			l-2.74,0.08c-0.12-0.66-0.7-1.07-1.73-1.07c-0.64,0-1.01,0.25-1.01,0.66c0,0.31,0.25,0.47,0.56,0.52l1.79,0.31
			c2.06,0.33,3.26,1.26,3.26,3.05c0,1.94-1.65,3.05-4.27,3.05c-2.54,0-4.43-1.01-4.62-3.24l2.91-0.04c0.12,0.76,0.74,1.2,1.75,1.2
			c0.74,0,1.13-0.27,1.13-0.64C491.71-591.27,491.5-591.52,490.87-591.62z M475.26-597.64h3.34v4.91c0,1.24,0.35,1.92,1.36,1.92
			c1.05,0,1.46-0.91,1.46-2.31v-4.51h3.34v9.19h-3.34v-1.38c-0.49,1.03-1.5,1.63-2.89,1.63c-2.52,0-3.28-1.73-3.28-3.65V-597.64z
			 M467.2-597.64h3.34v1.63c0.33-1.03,1.3-1.88,2.52-1.88c0.56,0,1.05,0.16,1.28,0.35l-0.21,3.15c-0.45-0.27-0.95-0.39-1.59-0.39
			c-1.24,0-2,0.58-2,2.12v4.21h-3.34V-597.64z M462.03-601.43h3.38v2.93h-3.38V-601.43z M451.15-601.43l3.22,8.64h0.08l3.22-8.64
			h3.48l-4.99,12.99h-3.69l-4.99-12.99H451.15z M436.54-601.43h3.92l5.17,12.99h-3.73l-0.97-2.52h-5.07l-0.97,2.52h-3.53
			L436.54-601.43z M423.59-591.62l-1.36-0.21c-2.23-0.35-3.4-1.07-3.4-2.95c0-1.81,1.59-3.11,4.16-3.11c2.66,0,4.23,1.18,4.41,3.09
			l-2.74,0.08c-0.12-0.66-0.7-1.07-1.73-1.07c-0.64,0-1.01,0.25-1.01,0.66c0,0.31,0.25,0.47,0.56,0.52l1.79,0.31
			c2.06,0.33,3.26,1.26,3.26,3.05c0,1.94-1.65,3.05-4.27,3.05c-2.54,0-4.43-1.01-4.62-3.24l2.91-0.04c0.12,0.76,0.74,1.2,1.75,1.2
			c0.74,0,1.13-0.27,1.13-0.64C424.44-591.27,424.23-591.52,423.59-591.62z M413.91-601.43h3.5v12.99h-3.5V-601.43z M393.17-597.64
			h3.34v1.38c0.49-1.01,1.48-1.63,2.87-1.63c1.63,0,2.47,0.74,2.87,1.81c0.5-1.03,1.59-1.81,3.13-1.81c2.54,0,3.28,1.75,3.28,3.67
			v5.77h-3.34v-4.89c0-1.26-0.23-1.92-1.24-1.92c-1.11,0-1.48,0.91-1.48,2.29v4.51h-3.34v-4.89c0-1.26-0.25-1.92-1.26-1.92
			c-1.09,0-1.48,0.91-1.48,2.29v4.51h-3.34V-597.64z M387.96-591.62l-1.36-0.21c-2.23-0.35-3.4-1.07-3.4-2.95
			c0-1.81,1.59-3.11,4.16-3.11c2.66,0,4.23,1.18,4.41,3.09l-2.74,0.08c-0.12-0.66-0.7-1.07-1.73-1.07c-0.64,0-1.01,0.25-1.01,0.66
			c0,0.31,0.25,0.47,0.56,0.52l1.79,0.31c2.06,0.33,3.26,1.26,3.26,3.05c0,1.94-1.65,3.05-4.27,3.05c-2.54,0-4.43-1.01-4.62-3.24
			l2.91-0.04c0.12,0.76,0.74,1.2,1.75,1.2c0.74,0,1.13-0.27,1.13-0.64C388.8-591.27,388.6-591.52,387.96-591.62z M378.5-601.43h3.38
			v2.93h-3.38V-601.43z M381.86-597.64v9.19h-3.34v-9.19H381.86z M373.37-601.43h3.34v12.99h-3.34V-601.43z M372.96-531.47l6.63-1
			c9.04-1.41,11.85-6.23,14.06-14.46l3.01-11.65h20.49v24.71h23.3v22.5h-23.3v32.74c0,7.63,3.62,10.65,10.24,10.65
			c4.02,0,8.44-0.8,13.86-3.01v21.09c-6.83,5.02-14.66,8.03-26.91,8.03c-15.06,0-29.32-6.23-29.32-27.32v-42.18h-12.05V-531.47z
			 M366.67-595.41c-0.74,0-1.11,0.47-1.26,1.15l-3.09-0.21c0.29-2.02,1.79-3.42,4.56-3.42c2.43,0,4.23,1.05,4.23,3.61v3.13
			c0,0.47,0.21,0.68,0.56,0.68c0.27,0,0.47-0.04,0.74-0.14v1.77c-0.47,0.33-1.13,0.6-2.08,0.6c-1.13,0-2.02-0.58-2.33-1.63
			c-0.54,1.07-1.59,1.63-3.05,1.63c-1.79,0-2.97-0.93-2.97-2.49c0-1.77,1.28-2.54,3.28-2.89l2.58-0.43v-0.14
			C367.82-594.96,367.47-595.41,366.67-595.41z M354.22-597.39l0.68-0.1c0.93-0.14,1.22-0.64,1.44-1.48l0.31-1.2h2.1v2.54h2.39v2.31
			h-2.39v3.36c0,0.78,0.37,1.09,1.05,1.09c0.41,0,0.87-0.08,1.42-0.31v2.16c-0.7,0.52-1.5,0.82-2.76,0.82
			c-1.55,0-3.01-0.64-3.01-2.8v-4.33h-1.24V-597.39z M349.95-601.43h3.38v2.93h-3.38V-601.43z M338.2-597.64h3.34v1.59
			c0.45-1.09,1.48-1.83,3.03-1.83c2.7,0,4.08,2.14,4.08,4.84c0,2.72-1.38,4.84-4.08,4.84c-1.55,0-2.58-0.74-3.03-1.81v4.87h-3.34
			V-597.64z M331.51-595.41c-0.74,0-1.11,0.47-1.26,1.15l-3.09-0.21c0.29-2.02,1.79-3.42,4.56-3.42c2.43,0,4.23,1.05,4.23,3.61v3.13
			c0,0.47,0.21,0.68,0.56,0.68c0.27,0,0.47-0.04,0.74-0.14v1.77c-0.47,0.33-1.13,0.6-2.08,0.6c-1.13,0-2.02-0.58-2.33-1.63
			c-0.54,1.07-1.59,1.63-3.05,1.63c-1.79,0-2.97-0.93-2.97-2.49c0-1.77,1.28-2.54,3.28-2.89l2.58-0.43v-0.14
			C332.66-594.96,332.31-595.41,331.51-595.41z M319.72-601.68c3.98,0,6.1,2.54,6.35,5.77l-3.36,0.12
			c-0.21-1.44-0.99-2.78-3.01-2.78c-1.92,0-3.03,1.42-3.03,3.63s1.11,3.63,3.03,3.63c2.02,0,2.8-1.34,3.01-2.78l3.36,0.14
			c-0.25,3.24-2.37,5.75-6.35,5.75c-3.79,0-6.66-2.74-6.66-6.74S315.93-601.68,319.72-601.68z M306.63-591.99h3.55v3.55h-3.55
			V-591.99z M262.3-597.64l1.65,5.22h0.08l1.34-5.22h2.66l1.34,5.22h0.08l1.65-5.22h2.92h0.09h3.23l1.65,5.22h0.08l1.34-5.22h2.66
			l1.34,5.22h0.08l1.65-5.22h2.92h0.09h3.23l1.65,5.22h0.08l1.34-5.22h2.66l1.34,5.22h0.08l1.65-5.22h3.01l-2.91,9.19h-3.28
			l-1.34-5.19h-0.08l-1.34,5.19h-3.28l-2.86-9.06l-2.86,9.06h-3.28l-1.34-5.19h-0.08l-1.34,5.19h-3.28l-2.86-9.06l-2.86,9.06h-3.28
			l-1.34-5.19h-0.08l-1.34,5.19h-3.28l-2.91-9.19H262.3z M197.81-533.88h32.54v15.87c3.21-10.04,12.65-18.28,24.5-18.28
			c5.42,0,10.24,1.61,12.45,3.41l-2.01,30.73c-4.42-2.61-9.24-3.82-15.47-3.82c-12.05,0-19.48,5.62-19.48,20.69v40.97h-32.54
			V-533.88z M79.51-570.84h55.64c33.14,0,52.42,15.47,52.42,43.38c0,28.12-19.28,43.58-52.42,43.58h-21.69v39.57H79.51V-570.84z
			 M59.42-184.06l20.09,79.34h0.8l20.89-79.34h30.73l20.89,79.34h0.8l20.08-79.34h32.94L173.51-57.52h-36.35l-21.09-79.94h-0.8
			L94.17-57.52H58.42L25.28-184.06H59.42z M19.25,168.88c0,0.39,0.04,0.89,0.14,1.34c0.35-0.19,0.74-0.29,1.18-0.29
			c1.94,0,3.13,1.88,3.13,4.47c0,0.74-0.08,1.4-0.27,2c0.1,0.12,0.25,0.19,0.43,0.19c0.31,0,0.56-0.23,0.56-0.78v-3.81
			c0-2.08,1.09-3.13,2.64-3.13c2.29,0,3.34,2.78,3.34,5.77c0,2.62-0.52,4.89-2.25,4.89c-0.8,0-1.44-0.72-1.53-1.75
			c-0.27,0.82-1.01,1.32-1.79,1.32c-0.89,0-1.57-0.58-1.94-1.57c-0.54,0.82-1.32,1.32-2.33,1.32c-1.96,0-3.15-1.86-3.15-4.43
			c0-1.11,0.27-2.16,0.74-2.95c-0.76-0.56-1.42-1.57-1.42-2.58H19.25z M13.87,236.71h2.93v3.38h-2.93V236.71z M13.87,250.97
			l8.64-3.22v-0.08l-8.64-3.22v-3.48l12.99,4.99v3.69l-12.99,4.99V250.97z M13.87,261.67l12.99-5.17v3.73l-2.51,0.97v5.07l2.51,0.97
			v3.52l-12.99-5.17V261.67z M13.87,284.71h12.99v3.5H13.87V284.71z M13.87,320.24h2.93v3.38h-2.93V320.24z M13.87,325.41h12.99
			v3.34H13.87V325.41z M13.87,348.79h2.93v3.38h-2.93V348.79z M19.4,376.05l0.12,3.36c-1.44,0.21-2.78,0.99-2.78,3.01
			c0,1.92,1.42,3.03,3.63,3.03s3.63-1.11,3.63-3.03c0-2.02-1.34-2.8-2.78-3.01l0.14-3.36c3.24,0.25,5.75,2.37,5.75,6.35
			c0,3.79-2.74,6.66-6.74,6.66s-6.74-2.87-6.74-6.66C13.63,378.42,16.16,376.3,19.4,376.05z"/>
		<path class="st8" d="M23.03,369.46h-0.14l0.25,1.36c0.17,0.8,0.41,1.28,1.01,1.28c0.47,0,0.78-0.37,0.78-0.93
			C24.92,370.22,24.22,369.46,23.03,369.46z"/>
		<path class="st8" d="M23.03,334.3h-0.14l0.25,1.36c0.17,0.8,0.41,1.28,1.01,1.28c0.47,0,0.78-0.37,0.78-0.93
			C24.92,335.06,24.22,334.3,23.03,334.3z"/>
		<path class="st8" d="M22.26,194.68c1.38,0,2.33-0.49,2.33-1.67c0-1.15-0.95-1.67-2.33-1.67s-2.33,0.52-2.33,1.67
			C19.93,194.19,20.88,194.68,22.26,194.68z"/>
		<polygon class="st8" points="17.89,263.77 21.73,265.25 21.73,262.2 17.89,263.69 		"/>
		<polygon class="st8" points="769.43,214.89 767.41,214.4 767.41,216.17 769.43,216.66 		"/>
		<path class="st8" d="M765.76,243.69h0.14l-0.25-1.36c-0.16-0.8-0.41-1.28-1.01-1.28c-0.47,0-0.78,0.37-0.78,0.93
			C763.87,242.93,764.57,243.69,765.76,243.69z"/>
		<path class="st8" d="M22.26,356.82c-1.32,0-2.25,0.6-2.25,1.9c0,1.13,0.87,1.86,2.18,1.86h0.12c1.34,0,2.21-0.72,2.21-1.86
			C24.53,357.42,23.6,356.82,22.26,356.82z"/>
		<path class="st8" d="M765.76,278.85h0.14l-0.25-1.36c-0.16-0.8-0.41-1.28-1.01-1.28c-0.47,0-0.78,0.37-0.78,0.93
			C763.87,278.09,764.57,278.85,765.76,278.85z"/>
		<polygon class="st8" points="770.9,346.05 767.06,344.57 767.06,347.62 770.9,346.14 		"/>
		<path class="st8" d="M451.81,420.5c5.46,4.47,16.24,11.85,24.58,11.85c0.79,0,1.56-0.07,2.34-0.19l-32.9-46.59
			C449.13,400.61,451.05,414.45,451.81,420.5z"/>
		<path class="st8" d="M766.53,256.32c1.32,0,2.25-0.6,2.25-1.9c0-1.13-0.87-1.86-2.19-1.86h-0.12c-1.34,0-2.21,0.72-2.21,1.86
			C764.26,255.73,765.19,256.32,766.53,256.32z"/>
		<path class="st8" d="M20.57,175.33c0.82,0,1.34-0.41,1.34-0.97c0-0.56-0.52-0.97-1.34-0.97c-0.8,0-1.32,0.41-1.32,0.97
			C19.25,174.92,19.77,175.33,20.57,175.33z"/>
		<path class="st8" d="M27.83,176.77c0.66,0,0.85-0.93,0.85-2.16c0-1.55-0.31-2.68-0.87-2.68c-0.39,0-0.54,0.29-0.54,0.85v3.38
			C27.27,176.53,27.48,176.77,27.83,176.77z"/>
		<path class="st8" d="M451.38,365.69l40.59,57.49c0.24-0.3,0.47-0.61,0.71-0.93c2.62-3.56,4.44-7.2,5.45-9.5l-19.19-55.58
			l-1.03-1.19l-8.66-1.57c-6.28,2.54-12.87,4.92-19.76,7.12C449.86,362.99,450.47,364.4,451.38,365.69z"/>
		<path class="st8" d="M534.89,317.74c7.04,7.52,11.48,14.91,17.35,26.25c5.16,9.98,10.39,20.64,15.19,30.65
			c-3.31-22.76-6.57-40.69-8.64-44.48c-4.73-8.34-9.73-9.99-20.02-11.75C537.86,318.26,536.53,318.03,534.89,317.74z"/>
		<path class="st8" d="M564.04,110.13c-4.4-15.67-13.78-28.4-27.22-37.64l-4.69,11.24l-22.15-9.25l5.28-12.64
			c-10.19-3.47-21.68-5.61-34.3-6.27c-10.37-0.54-21.31-1.32-32.89-2.14c-36.2-2.57-77.24-5.47-96.31-0.12
			c-19.07,5.36-52.6,29.2-82.17,50.24c-9.46,6.73-18.4,13.09-26.97,18.95c-12.5,8.55-22.52,18.06-29.92,28.18l11.33,4.73
			l-9.25,22.15l-13.41-5.6c-4.57,13.11-5.1,26.77-1.28,40.37c2.62,9.34,5.22,19.22,7.73,28.77c7.18,27.3,14.6,55.53,21,64.5
			c2.74,3.85,19.34,20.73,49.03,34.54l3.41-10.32l22.79,7.53l-3.82,11.57c18.65,6.03,42.58,10.71,71.1,10.07
			c-0.01-0.11-0.02-0.22-0.03-0.33c-0.49-4.9-1.3-12.98,1.99-19.62c-35.92-0.95-63.23-13.2-81.83-25.57
			c-30.49-20.27-53.98-51.64-62.84-83.92c-9.55-34.79,23.67-76.38,44.33-98.07c28.09-29.5,63.67-55.08,84.61-60.83
			c20.94-5.75,64.6-1.92,103.81,9.1c28.84,8.1,78.64,26.9,88.2,61.68c8.86,32.27,4.68,71.24-11.18,104.24
			c-6.52,13.57-16.5,29.13-31.61,43.7c5.89,6.11,11.34,11.73,15.49,15.93c15.39-12.37,26.92-25.09,35.32-36.23
			c5.91-7.84,10.75-15.47,14.7-22.59l-8.75-2.89l7.53-22.79l11.46,3.78c3.88-10.18,5.39-17.45,5.56-19.87
			c0.79-11-7.57-38.96-15.65-66.01C569.59,129.26,566.67,119.47,564.04,110.13z"/>
		<path class="st8" d="M420.95,333.95c4.97,3.66,9.29,8.84,12.97,15.55c0.32-0.09,0.63-0.17,0.95-0.25
			c10.23-2.87,19.78-6.17,28.69-9.78l-12.83-14.75c-6.7,2.64-13.84,5.04-21.46,7.13C426.45,332.61,423.68,333.31,420.95,333.95z"/>
		<path d="M604.03,205.88c1-13.92-7.01-40.71-16.28-71.74c-2.81-9.4-5.71-19.12-8.3-28.34c-5.57-19.83-17.9-36.38-35.66-47.86
			c-0.23-0.15-0.47-0.29-0.71-0.44l6.98-16.72l-22.15-9.25l-6.51,15.6c-11.99-4.21-25.35-6.78-39.61-7.53
			c-10.22-0.54-21.09-1.31-32.6-2.12c-39.34-2.79-80.01-5.67-101.77,0.44h0c-21.75,6.11-54.98,29.75-87.12,52.61
			c-9.4,6.69-18.28,13-26.73,18.78c-14.94,10.22-27.15,22.18-35.94,35.1l-16.57-6.92l-9.25,22.15l14.79,6.18
			c-5.98,16.56-6.68,33.97-1.94,50.86c2.59,9.22,5.17,19.03,7.66,28.52c8.24,31.32,15.35,58.36,23.45,69.72
			c6.35,8.91,26.9,26.83,57.01,40.54l-6.14,18.59l22.79,7.53l5.76-17.43c18.85,6.1,42.68,10.95,70.87,10.95
			c2.29,0,4.62-0.04,6.96-0.11c1.56,13.81,3.22,26.9,4.85,39.65c1.34,10.55,2.73,21.45,4.06,32.75
			c-9.86,60.76,13.01,112.46,18.53,123.78L398.15,595c-0.43,4.4,2.79,8.31,7.19,8.74c0.26,0.03,0.52,0.04,0.78,0.04
			c4.07,0,7.55-3.09,7.95-7.23l1.8-18.52l0.74-7.62c0.15-1.56-0.16-3.14-0.9-4.52c-0.29-0.54-28.37-54.4-17.82-116.98
			c0.13-0.75,0.15-1.51,0.06-2.26c-1.38-11.78-2.82-23.1-4.21-34.04c-2.34-18.37-4.55-35.73-6.55-55.53
			c-1.15-11.44,0.47-11.84,3.4-12.57c12.32-3.05,26.25-3.6,35.61,28.67c6.89,23.75,10.04,51.94,10.07,52.22
			c0.21,1.92,1.11,3.7,2.54,5.01c1.99,1.84,19.99,17.93,37.57,17.93c26.3,0,37.39-31.45,37.85-32.78c0.03-0.08,0.04-0.15,0.07-0.23
			c0.05-0.15,0.09-0.29,0.13-0.44c0.03-0.11,0.05-0.23,0.07-0.34c0.03-0.14,0.06-0.28,0.08-0.42c0.02-0.12,0.03-0.25,0.04-0.37
			c0.01-0.14,0.03-0.27,0.03-0.41c0.01-0.13,0.01-0.25,0.01-0.38c0-0.13,0-0.27-0.01-0.4c-0.01-0.13-0.02-0.25-0.03-0.38
			c-0.01-0.13-0.03-0.27-0.05-0.4c-0.02-0.12-0.04-0.25-0.07-0.37c-0.03-0.14-0.05-0.27-0.09-0.41c-0.03-0.12-0.06-0.23-0.1-0.35
			c-0.03-0.1-0.05-0.2-0.09-0.31l-20.68-59.88c-0.33-0.97-0.85-1.87-1.53-2.64l-53.68-61.73c-9.18-13.59-4.55-22.64-0.33-25.86
			c1.81-1.38,11.55-7.56,25.34,6.85c1.9,2,46.56,49.11,54.84,56.65c8.93,8.13,12.96,14.3,19.84,27.6
			c10.04,19.42,20.42,41.61,27.29,56.3c2.59,5.53,4.63,9.9,6.02,12.75c10.45,21.53,11.7,34.89,4.47,50.06
			c-0.26,0.54-0.52,1.08-0.8,1.62c-0.03,0.05-0.05,0.11-0.07,0.17c-0.03,0.06-0.06,0.11-0.08,0.16
			c-18.22,40.01-62.55,107.01-62.99,107.68c-0.97,1.46-1.43,3.19-1.32,4.94l0.73,11.27c0.27,4.23,3.79,7.49,7.98,7.49
			c0.17,0,0.35-0.01,0.52-0.02c4.41-0.28,7.75-4.09,7.47-8.5l-0.55-8.59c8.08-12.3,45.63-70.11,62.69-107.55
			c10.4-20.51,8.17-38.09,0.3-57.01c-2.81-24.7-10.58-88.6-16.95-99.83c-6.78-11.96-15.22-16.09-24.74-18.34
			c9.04-8.75,16.42-17.35,22.36-25.23c6.95-9.21,12.69-18.42,17.35-27.12l20.02,6.61l7.53-22.79l-17.48-5.78
			C601.67,219.36,603.66,210.97,604.03,205.88z M476.39,432.35c-8.33,0-19.11-7.39-24.58-11.85c-0.76-6.04-2.68-19.89-5.98-34.93
			l32.9,46.59C477.96,432.28,477.18,432.35,476.39,432.35z M477.91,355.98l1.03,1.19l19.19,55.58c-1.02,2.3-2.83,5.94-5.45,9.5
			c-0.24,0.32-0.47,0.62-0.71,0.93l-40.59-57.49c-0.91-1.29-1.52-2.7-1.89-4.16c6.89-2.2,13.48-4.58,19.76-7.12L477.91,355.98z
			 M463.54,339.46c-8.91,3.61-18.45,6.9-28.69,9.78c-0.32,0.09-0.63,0.17-0.95,0.25c-3.68-6.71-7.99-11.88-12.97-15.55
			c2.74-0.64,5.5-1.33,8.31-2.1c7.63-2.09,14.76-4.49,21.46-7.13L463.54,339.46z M428.3,247.53c-11.79,9.01-14.42,24.63-7.46,39.96
			l-21.29,5.85c-7.3,2-14.87-2.3-16.87-9.6l-9.77-35.57c-0.97-3.54-0.51-7.24,1.31-10.42s4.76-5.48,8.29-6.45l35.57-9.77
			c1.21-0.33,2.43-0.49,3.63-0.49c6.03,0,11.57,4.01,13.24,10.09l3.16,11.49C434.66,243.57,431.36,245.2,428.3,247.53z
			 M495.65,277.81c-7.66-8.01-15.15-15.88-20.71-21.75c-6.29-6.58-13.21-10.96-20.12-13.04l-4.43-16.13
			c-4.34-15.81-20.73-25.13-36.54-20.79l-35.57,9.77c-7.66,2.1-14.04,7.06-17.96,13.96c-3.93,6.9-4.93,14.92-2.83,22.57l9.77,35.57
			c3.62,13.18,15.62,21.86,28.67,21.86c2.6,0,5.24-0.34,7.86-1.06l26.69-7.33l9.03,10.39c-4.61,1.65-9.43,3.2-14.49,4.59
			c-58.66,16.11-100.2,0.05-124.72-16.25c-32.22-21.43-50.2-52.7-56.27-74.83c-5.46-19.87,9.3-50.05,40.49-82.8
			c28.42-29.85,61.6-52.14,77.26-56.44c4.88-1.34,12.12-2.05,20.98-2.05c19.54,0,46.96,3.44,74.27,11.12
			c43.54,12.24,71.64,30.65,77.1,50.52c6.07,22.12,6.59,58.19-10.17,93.07C518.12,250.88,509.2,264.77,495.65,277.81z M558.8,330.17
			c2.07,3.79,5.33,21.72,8.64,44.48c-4.81-10.02-10.03-20.68-15.19-30.65c-5.87-11.34-10.31-18.73-17.35-26.25
			c1.64,0.28,2.96,0.51,3.88,0.67C549.07,320.18,554.07,321.83,558.8,330.17z M588.07,204.73c-0.17,2.42-1.68,9.69-5.56,19.87
			l-11.46-3.78l-7.53,22.79l8.75,2.89c-3.94,7.12-8.78,14.75-14.7,22.59c-8.4,11.14-19.93,23.86-35.32,36.23
			c-4.15-4.2-9.6-9.81-15.49-15.93c15.12-14.57,25.09-30.12,31.61-43.7c15.86-33,20.04-71.97,11.18-104.24
			c-9.55-34.79-59.36-53.58-88.2-61.68c-39.21-11.02-82.87-14.85-103.81-9.1c-20.94,5.75-56.52,31.33-84.61,60.83
			c-20.66,21.69-53.88,63.29-44.33,98.07c8.86,32.27,32.35,63.64,62.84,83.92c18.59,12.37,45.91,24.62,81.83,25.57
			c-3.29,6.65-2.48,14.72-1.99,19.62c0.01,0.11,0.02,0.22,0.03,0.33c-28.52,0.65-52.45-4.04-71.1-10.07l3.82-11.57l-22.79-7.53
			l-3.41,10.32c-29.69-13.81-46.29-30.69-49.03-34.54c-6.4-8.98-13.82-37.21-21-64.5c-2.51-9.55-5.11-19.43-7.73-28.77
			c-3.82-13.6-3.28-27.26,1.28-40.37l13.41,5.6l9.25-22.15l-11.33-4.73c7.4-10.12,17.42-19.63,29.92-28.18
			c8.57-5.86,17.5-12.22,26.97-18.95c29.58-21.04,63.1-44.88,82.17-50.24c19.07-5.36,60.11-2.45,96.31,0.12
			c11.58,0.82,22.53,1.6,32.89,2.14c12.62,0.66,24.11,2.8,34.3,6.27l-5.28,12.64l22.15,9.25l4.69-11.24
			c13.45,9.24,22.82,21.97,27.22,37.64c2.62,9.34,5.55,19.13,8.38,28.59C580.5,165.77,588.86,193.73,588.07,204.73z"/>
		<path class="st8" d="M534.12,145.68c-5.46-19.87-33.56-38.28-77.1-50.52c-27.31-7.67-54.72-11.12-74.27-11.12
			c-8.86,0-16.09,0.71-20.98,2.05c-15.66,4.3-48.83,26.58-77.26,56.44c-31.19,32.76-45.94,62.94-40.49,82.8
			c6.08,22.12,24.05,53.4,56.27,74.83c24.52,16.3,66.06,32.36,124.72,16.25c5.06-1.39,9.88-2.93,14.49-4.59l-9.03-10.39l-26.69,7.33
			c-2.62,0.72-5.26,1.06-7.86,1.06c-13.05,0-25.05-8.68-28.67-21.86l-9.77-35.57c-2.1-7.66-1.1-15.67,2.83-22.57
			c3.93-6.9,10.31-11.86,17.96-13.96l35.57-9.77c15.81-4.34,32.2,4.99,36.54,20.79l4.43,16.13c6.91,2.09,13.83,6.47,20.12,13.04
			c5.56,5.87,13.05,13.74,20.71,21.75c13.55-13.05,22.47-26.94,28.29-39.06C540.71,203.88,540.19,167.81,534.12,145.68z
			 M345.3,205.98l-35.63-28.39l9.75,35.5l-14.85,4.08l-16.46-59.96l15.42-4.23l32.53,26.79l-9.12-33.22l14.85-4.08l16.46,59.96
			L345.3,205.98z M392.82,194.16c-12.94,3.55-23.17-0.9-27.61-12.58l14.96-4.41c1.6,3.96,4.93,5.3,9.41,4.07
			c6.66-1.83,8.92-8.9,7.08-17.81c-1.82,4.18-6.19,7.64-12,9.23c-13.13,3.61-23.13-2.25-26.27-13.67
			c-3.55-12.94,4.11-23.44,17.72-27.18c16.85-4.62,29.13,4.69,34.35,23.73C415.48,173.81,410.24,189.38,392.82,194.16z
			 M451.93,177.93c-15.89,4.36-26.57-1.71-29.88-15.64l15.8-3.21c1.51,5.11,5.46,7.2,10.5,5.82c4.85-1.33,7.35-5.29,5.94-10.43
			c-1.28-4.66-5.14-7.9-10.47-6.44c-3.81,1.04-5.58,3.17-6.47,5.87l-15.83,3.12c-0.82-8.58-2.97-24.98-5.4-34.95l37.59-10.32
			l3.87,14.09l-25.7,7.06c0.52,2.62,0.81,5.92,0.96,8.33c1.65-2.19,4.52-4.41,9.75-5.85c13.9-3.81,23.32,3.32,26.54,15.02
			C472.79,163.71,465.16,174.3,451.93,177.93z"/>
		<path class="st8" d="M379.87,144.39c-5.33,1.46-7.51,5.44-6.26,10.01c1.31,4.76,5.21,7.06,10.54,5.6
			c5.14-1.41,7.32-5.39,6.02-10.15C388.95,145.38,385.01,142.98,379.87,144.39z"/>
		<path class="st8" d="M421.72,221.04c-1.2,0-2.42,0.16-3.63,0.49l-35.57,9.77c-3.54,0.97-6.48,3.26-8.29,6.45
			s-2.28,6.89-1.31,10.42l9.77,35.57c2,7.3,9.57,11.6,16.87,9.6l21.29-5.85c-6.96-15.33-4.34-30.95,7.46-39.96
			c3.06-2.33,6.36-3.96,9.81-4.92l-3.16-11.49C433.29,225.04,427.75,221.04,421.72,221.04z"/>
		<polygon points="326.93,146.55 336.05,179.76 303.52,152.97 288.1,157.21 304.57,217.17 319.41,213.09 309.67,177.59 
			345.3,205.98 358.24,202.43 341.78,142.47 		"/>
		<path d="M376.11,131.81c-13.61,3.74-21.27,14.23-17.72,27.18c3.14,11.42,13.14,17.27,26.27,13.67c5.81-1.59,10.18-5.05,12-9.23
			c1.83,8.91-0.42,15.98-7.08,17.81c-4.47,1.23-7.81-0.11-9.41-4.07l-14.96,4.41c4.43,11.68,14.67,16.14,27.61,12.58
			c17.42-4.78,22.66-20.35,17.64-38.62C405.24,136.51,392.96,127.19,376.11,131.81z M384.16,160c-5.33,1.46-9.24-0.84-10.54-5.6
			c-1.25-4.57,0.93-8.54,6.26-10.01c5.14-1.41,9.07,0.99,10.3,5.46C391.48,154.61,389.3,158.59,384.16,160z"/>
		<path d="M442.59,135.36c-5.23,1.44-8.1,3.66-9.75,5.85c-0.15-2.41-0.44-5.71-0.96-8.33l25.7-7.06l-3.87-14.09l-37.59,10.32
			c2.43,9.98,4.58,26.38,5.4,34.95l15.83-3.12c0.9-2.7,2.67-4.83,6.47-5.87c5.33-1.46,9.19,1.78,10.47,6.44
			c1.41,5.14-1.08,9.1-5.94,10.43c-5.04,1.39-9-0.7-10.5-5.82l-15.8,3.21c3.31,13.93,13.99,20.01,29.88,15.64
			c13.23-3.63,20.86-14.22,17.2-27.55C465.92,138.68,456.49,131.54,442.59,135.36z"/>
		<polygon points="17.67,400.93 22.88,402.58 22.88,402.66 17.67,404 17.67,406.66 22.88,408 22.88,408.08 17.67,409.73 
			17.67,412.96 17.67,413.05 17.67,415.97 22.88,417.62 22.88,417.7 17.67,419.04 17.67,421.7 22.88,423.04 22.88,423.13 
			17.67,424.78 17.67,428.01 17.67,428.09 17.67,431.02 22.88,432.67 22.88,432.75 17.67,434.09 17.67,436.75 22.88,438.09 
			22.88,438.17 17.67,439.82 17.67,443.14 26.86,440.23 26.86,436.96 21.67,435.62 21.67,435.53 26.86,434.19 26.86,430.92 
			17.8,428.05 26.86,425.19 26.86,421.91 21.67,420.57 21.67,420.49 26.86,419.15 26.86,415.87 17.8,413.01 26.86,410.14 
			26.86,406.86 21.67,405.52 21.67,405.44 26.86,404.1 26.86,400.82 17.67,397.92 		"/>
		<rect x="23.32" y="391.94" width="3.55" height="3.55"/>
		<path d="M20.37,389.06c4,0,6.74-2.87,6.74-6.66c0-3.98-2.51-6.1-5.75-6.35l-0.14,3.36c1.44,0.21,2.78,0.99,2.78,3.01
			c0,1.92-1.42,3.03-3.63,3.03s-3.63-1.11-3.63-3.03c0-2.02,1.34-2.8,2.78-3.01l-0.12-3.36c-3.24,0.25-5.77,2.37-5.77,6.35
			C13.63,386.19,16.37,389.06,20.37,389.06z"/>
		<path d="M27.07,366.96c0-0.95-0.27-1.61-0.6-2.08H24.7c0.1,0.27,0.14,0.47,0.14,0.74c0,0.35-0.21,0.56-0.68,0.56h-3.13
			c-2.56,0-3.61,1.79-3.61,4.23c0,2.76,1.4,4.27,3.42,4.56l0.21-3.09c-0.68-0.14-1.15-0.52-1.15-1.26c0-0.8,0.45-1.15,1.22-1.15
			h0.14l0.43,2.58c0.35,2,1.11,3.28,2.89,3.28c1.57,0,2.49-1.17,2.49-2.97c0-1.46-0.56-2.52-1.63-3.05
			C26.49,368.98,27.07,368.1,27.07,366.96z M24.14,372.1c-0.6,0-0.85-0.47-1.01-1.28l-0.25-1.36h0.14c1.2,0,1.9,0.76,1.9,1.71
			C24.92,371.72,24.61,372.1,24.14,372.1z"/>
		<path d="M27.11,357.54c0-2.7-2.12-4.08-4.84-4.08c-2.7,0-4.84,1.38-4.84,4.08c0,1.55,0.74,2.58,1.83,3.03h-1.59v3.34h12.49v-3.34
			h-4.86C26.37,360.12,27.11,359.09,27.11,357.54z M22.33,360.57H22.2c-1.32,0-2.18-0.72-2.18-1.86c0-1.3,0.93-1.9,2.25-1.9
			c1.34,0,2.27,0.6,2.27,1.9C24.53,359.85,23.67,360.57,22.33,360.57z"/>
		<rect x="13.87" y="348.79" width="2.93" height="3.38"/>
		<rect x="17.67" y="348.81" width="9.19" height="3.34"/>
		<path d="M15.13,345.47l1.2,0.31c0.85,0.23,1.34,0.52,1.48,1.44l0.1,0.68h2.06v-1.24h4.33c2.16,0,2.8-1.46,2.8-3.01
			c0-1.26-0.31-2.06-0.82-2.76h-2.16c0.23,0.56,0.31,1.01,0.31,1.42c0,0.68-0.31,1.05-1.09,1.05h-3.36v-2.39h-2.31v2.39h-2.54
			V345.47z"/>
		<path d="M24.16,331.02h-3.13c-2.56,0-3.61,1.79-3.61,4.23c0,2.76,1.4,4.27,3.42,4.56l0.21-3.09c-0.68-0.14-1.15-0.52-1.15-1.26
			c0-0.8,0.45-1.15,1.22-1.15h0.14l0.43,2.58c0.35,2,1.11,3.28,2.89,3.28c1.57,0,2.49-1.17,2.49-2.97c0-1.46-0.56-2.52-1.63-3.05
			c1.05-0.31,1.63-1.2,1.63-2.33c0-0.95-0.27-1.61-0.6-2.08H24.7c0.1,0.27,0.14,0.47,0.14,0.74
			C24.84,330.81,24.63,331.02,24.16,331.02z M24.92,336.01c0,0.56-0.31,0.93-0.78,0.93c-0.6,0-0.85-0.47-1.01-1.28l-0.25-1.36h0.14
			C24.22,334.3,24.92,335.06,24.92,336.01z"/>
		<rect x="13.87" y="325.41" width="12.99" height="3.34"/>
		<rect x="13.87" y="320.24" width="2.93" height="3.38"/>
		<rect x="17.67" y="320.26" width="9.19" height="3.34"/>
		<path d="M20.53,318.92c1.88,0,2.6-1.17,2.95-3.4l0.21-1.36c0.1-0.64,0.35-0.85,0.7-0.85c0.37,0,0.64,0.39,0.64,1.13
			c0,1.01-0.43,1.63-1.2,1.75l0.04,2.91c2.23-0.19,3.24-2.08,3.24-4.62c0-2.62-1.11-4.27-3.05-4.27c-1.79,0-2.72,1.2-3.05,3.26
			l-0.31,1.79c-0.04,0.31-0.21,0.56-0.52,0.56c-0.41,0-0.66-0.37-0.66-1.01c0-1.03,0.41-1.61,1.07-1.73l-0.08-2.74
			c-1.92,0.19-3.09,1.75-3.09,4.41C17.42,317.33,18.72,318.92,20.53,318.92z"/>
		<path d="M17.42,302.74c0,1.38,0.62,2.37,1.63,2.87h-1.38v3.34h9.19v-3.34h-4.51c-1.38,0-2.29-0.39-2.29-1.48
			c0-1.01,0.66-1.26,1.92-1.26h4.89v-3.34h-4.51c-1.38,0-2.29-0.37-2.29-1.48c0-1.01,0.66-1.24,1.92-1.24h4.89v-3.34h-5.77
			c-1.92,0-3.67,0.74-3.67,3.28c0,1.55,0.78,2.64,1.81,3.13C18.16,300.27,17.42,301.11,17.42,302.74z"/>
		<rect x="13.87" y="284.71" width="12.99" height="3.5"/>
		<path d="M23.83,280.57l0.04,2.91c2.23-0.19,3.24-2.08,3.24-4.62c0-2.62-1.11-4.27-3.05-4.27c-1.79,0-2.72,1.2-3.05,3.26
			l-0.31,1.79c-0.04,0.31-0.21,0.56-0.52,0.56c-0.41,0-0.66-0.37-0.66-1.01c0-1.03,0.41-1.61,1.07-1.73l-0.08-2.74
			c-1.92,0.19-3.09,1.75-3.09,4.41c0,2.58,1.3,4.16,3.11,4.16c1.88,0,2.6-1.18,2.95-3.4l0.21-1.36c0.1-0.64,0.35-0.85,0.7-0.85
			c0.37,0,0.64,0.39,0.64,1.13C25.03,279.82,24.59,280.44,23.83,280.57z"/>
		<path d="M26.86,267.23l-2.51-0.97v-5.07l2.51-0.97v-3.73l-12.99,5.17v3.92l12.99,5.17V267.23z M21.73,265.25l-3.83-1.48v-0.08
			l3.83-1.48V265.25z"/>
		<polygon points="26.86,245.96 13.87,240.97 13.87,244.46 22.51,247.67 22.51,247.75 13.87,250.97 13.87,254.64 26.86,249.65 		"/>
		<rect x="17.67" y="236.73" width="9.19" height="3.34"/>
		<rect x="13.87" y="236.71" width="2.93" height="3.38"/>
		<path d="M19.3,231.58h-1.63v3.34h9.19v-3.34h-4.21c-1.55,0-2.12-0.76-2.12-2c0-0.64,0.12-1.13,0.39-1.59l-3.15-0.21
			c-0.19,0.23-0.35,0.72-0.35,1.28C17.42,230.28,18.27,231.25,19.3,231.58z"/>
		<path d="M22.57,223.52h-4.91v3.34h5.79c1.92,0,3.65-0.76,3.65-3.28c0-1.38-0.6-2.39-1.63-2.89h1.38v-3.34h-9.19v3.34h4.51
			c1.4,0,2.31,0.41,2.31,1.46C24.49,223.17,23.81,223.52,22.57,223.52z"/>
		<path d="M20.53,216.02c1.88,0,2.6-1.18,2.95-3.4l0.21-1.36c0.1-0.64,0.35-0.85,0.7-0.85c0.37,0,0.64,0.39,0.64,1.13
			c0,1.01-0.43,1.63-1.2,1.75l0.04,2.91c2.23-0.19,3.24-2.08,3.24-4.62c0-2.62-1.11-4.27-3.05-4.27c-1.79,0-2.72,1.2-3.05,3.26
			l-0.31,1.79c-0.04,0.31-0.21,0.56-0.52,0.56c-0.41,0-0.66-0.37-0.66-1.01c0-1.03,0.41-1.61,1.07-1.73l-0.08-2.74
			c-1.92,0.19-3.09,1.75-3.09,4.41C17.42,214.43,18.72,216.02,20.53,216.02z"/>
		<rect x="23.32" y="200.93" width="3.55" height="3.55"/>
		<path d="M22.26,198.04c2.87,0,4.84-2.02,4.84-5.03c0-2.99-1.98-5.03-4.84-5.03c-2.84,0-4.84,2.04-4.84,5.03
			C17.42,196.02,19.42,198.04,22.26,198.04z M22.26,191.34c1.38,0,2.33,0.52,2.33,1.67c0,1.17-0.95,1.67-2.33,1.67
			s-2.33-0.49-2.33-1.67C19.93,191.86,20.88,191.34,22.26,191.34z"/>
		<path d="M17.77,179.53c-0.19,0.23-0.35,0.72-0.35,1.28c0,1.22,0.85,2.19,1.88,2.52h-1.63v3.34h9.19v-3.34h-4.21
			c-1.55,0-2.12-0.76-2.12-2c0-0.64,0.12-1.13,0.39-1.59L17.77,179.53z"/>
		<path d="M18.16,171.45c-0.47,0.78-0.74,1.83-0.74,2.95c0,2.58,1.2,4.43,3.15,4.43c1.01,0,1.79-0.49,2.33-1.32
			c0.37,0.99,1.05,1.57,1.94,1.57c0.78,0,1.53-0.49,1.79-1.32c0.08,1.03,0.72,1.75,1.53,1.75c1.73,0,2.25-2.27,2.25-4.89
			c0-2.99-1.05-5.77-3.34-5.77c-1.55,0-2.64,1.05-2.64,3.13v3.81c0,0.56-0.25,0.78-0.56,0.78c-0.19,0-0.33-0.06-0.43-0.19
			c0.19-0.6,0.27-1.26,0.27-2c0-2.6-1.2-4.47-3.13-4.47c-0.43,0-0.83,0.1-1.18,0.29c-0.1-0.45-0.14-0.95-0.14-1.34h-2.52
			C16.74,169.89,17.4,170.9,18.16,171.45z M27.27,172.77c0-0.56,0.14-0.85,0.54-0.85c0.56,0,0.87,1.13,0.87,2.68
			c0,1.24-0.19,2.16-0.85,2.16c-0.35,0-0.56-0.25-0.56-0.62V172.77z M20.57,173.39c0.82,0,1.34,0.41,1.34,0.97
			c0,0.56-0.52,0.97-1.34,0.97c-0.8,0-1.32-0.41-1.32-0.97C19.25,173.8,19.77,173.39,20.57,173.39z"/>
		<path d="M761.93,213.1l3.42,0.8v1.77l-3.42-0.8v2.49l3.42,0.8v2.04l2.06,0.43v-1.98l2.02,0.49v1.88l2.06,0.43v-1.83l3.42,0.82
			v-2.49l-3.42-0.82v-1.77l3.42,0.83v-2.49l-3.42-0.82v-2.02l-2.06-0.43v1.98l-2.02-0.49v-1.88l-2.06-0.43v1.81l-3.42-0.8V213.1z
			 M767.41,214.4l2.02,0.5v1.77l-2.02-0.49V214.4z"/>
		<path d="M768.42,224.09c-4,0-6.74,2.87-6.74,6.66c0,3.98,2.52,6.1,5.75,6.35l0.14-3.36c-1.44-0.21-2.78-0.99-2.78-3.01
			c0-1.92,1.42-3.03,3.63-3.03s3.63,1.11,3.63,3.03c0,2.02-1.34,2.8-2.78,3.01l0.12,3.36c3.24-0.25,5.77-2.37,5.77-6.35
			C775.16,226.95,772.42,224.09,768.42,224.09z"/>
		<path d="M761.72,246.18c0,0.95,0.27,1.61,0.6,2.08h1.77c-0.1-0.27-0.14-0.47-0.14-0.74c0-0.35,0.21-0.56,0.68-0.56h3.13
			c2.56,0,3.61-1.79,3.61-4.23c0-2.76-1.4-4.27-3.42-4.56l-0.21,3.09c0.68,0.14,1.15,0.52,1.15,1.26c0,0.8-0.45,1.15-1.22,1.15
			h-0.14l-0.43-2.58c-0.35-2-1.11-3.28-2.89-3.28c-1.57,0-2.49,1.18-2.49,2.97c0,1.46,0.56,2.52,1.63,3.05
			C762.3,244.16,761.72,245.05,761.72,246.18z M764.65,241.05c0.6,0,0.85,0.47,1.01,1.28l0.25,1.36h-0.14c-1.2,0-1.9-0.76-1.9-1.71
			C763.87,241.42,764.18,241.05,764.65,241.05z"/>
		<path d="M758.63,252.57h4.87c-1.07,0.45-1.81,1.48-1.81,3.03c0,2.7,2.12,4.08,4.84,4.08c2.7,0,4.84-1.38,4.84-4.08
			c0-1.55-0.74-2.58-1.83-3.03h1.59v-3.34h-12.49V252.57z M766.46,252.57h0.12c1.32,0,2.19,0.72,2.19,1.86c0,1.3-0.93,1.9-2.25,1.9
			c-1.34,0-2.27-0.6-2.27-1.9C764.26,253.29,765.12,252.57,766.46,252.57z"/>
		<rect x="771.99" y="260.98" width="2.93" height="3.38"/>
		<rect x="761.93" y="261" width="9.19" height="3.34"/>
		<path d="M773.66,267.68l-1.2-0.31c-0.85-0.23-1.34-0.52-1.48-1.44l-0.1-0.68h-2.06v1.24h-4.33c-2.16,0-2.8,1.46-2.8,3.01
			c0,1.26,0.31,2.06,0.82,2.76h2.16c-0.23-0.56-0.31-1.01-0.31-1.42c0-0.68,0.31-1.05,1.09-1.05h3.36v2.39h2.31v-2.39h2.54V267.68z"
			/>
		<path d="M764.63,282.13h3.13c2.56,0,3.61-1.79,3.61-4.23c0-2.76-1.4-4.27-3.42-4.56l-0.21,3.09c0.68,0.14,1.15,0.52,1.15,1.26
			c0,0.8-0.45,1.15-1.22,1.15h-0.14l-0.43-2.58c-0.35-2-1.11-3.28-2.89-3.28c-1.57,0-2.49,1.18-2.49,2.97
			c0,1.46,0.56,2.51,1.63,3.05c-1.05,0.31-1.63,1.2-1.63,2.33c0,0.95,0.27,1.61,0.6,2.08h1.77c-0.1-0.27-0.14-0.47-0.14-0.74
			C763.95,282.33,764.16,282.13,764.63,282.13z M763.87,277.14c0-0.56,0.31-0.93,0.78-0.93c0.6,0,0.85,0.47,1.01,1.28l0.25,1.36
			h-0.14C764.57,278.85,763.87,278.09,763.87,277.14z"/>
		<rect x="761.93" y="284.39" width="12.99" height="3.34"/>
		<rect x="761.93" y="289.55" width="9.19" height="3.34"/>
		<rect x="771.99" y="289.53" width="2.93" height="3.38"/>
		<path d="M768.26,294.22c-1.88,0-2.6,1.18-2.95,3.4l-0.21,1.36c-0.1,0.64-0.35,0.85-0.7,0.85c-0.37,0-0.64-0.39-0.64-1.13
			c0-1.01,0.43-1.63,1.2-1.75l-0.04-2.91c-2.23,0.19-3.24,2.08-3.24,4.62c0,2.62,1.11,4.27,3.05,4.27c1.79,0,2.72-1.2,3.05-3.26
			l0.31-1.79c0.04-0.31,0.21-0.56,0.52-0.56c0.41,0,0.66,0.37,0.66,1.01c0,1.03-0.41,1.61-1.07,1.73l0.08,2.74
			c1.92-0.19,3.09-1.75,3.09-4.41C771.37,295.81,770.07,294.22,768.26,294.22z"/>
		<path d="M771.37,310.41c0-1.38-0.62-2.37-1.63-2.87h1.38v-3.34h-9.19v3.34h4.51c1.38,0,2.29,0.39,2.29,1.48
			c0,1.01-0.66,1.26-1.92,1.26h-4.89v3.34h4.51c1.38,0,2.29,0.37,2.29,1.48c0,1.01-0.66,1.24-1.92,1.24h-4.89v3.34h5.77
			c1.92,0,3.67-0.74,3.67-3.28c0-1.55-0.78-2.64-1.81-3.13C770.63,312.88,771.37,312.03,771.37,310.41z"/>
		<rect x="761.93" y="323.27" width="12.99" height="3.5"/>
		<path d="M764.96,330.92l-0.04-2.91c-2.23,0.19-3.24,2.08-3.24,4.62c0,2.62,1.11,4.27,3.05,4.27c1.79,0,2.72-1.2,3.05-3.26
			l0.31-1.79c0.04-0.31,0.21-0.56,0.52-0.56c0.41,0,0.66,0.37,0.66,1.01c0,1.03-0.41,1.61-1.07,1.73l0.08,2.74
			c1.92-0.19,3.09-1.75,3.09-4.41c0-2.58-1.3-4.16-3.11-4.16c-1.88,0-2.6,1.18-2.95,3.4l-0.21,1.36c-0.1,0.64-0.35,0.85-0.7,0.85
			c-0.37,0-0.64-0.39-0.64-1.13C763.76,331.66,764.2,331.04,764.96,330.92z"/>
		<path d="M761.93,342.59l2.52,0.97v5.07l-2.52,0.97v3.73l12.99-5.17v-3.92l-12.99-5.17V342.59z M767.06,344.57l3.83,1.48v0.08
			l-3.83,1.48V344.57z"/>
		<polygon points="761.93,363.81 774.92,368.8 774.92,365.31 766.28,362.1 766.28,362.01 774.92,358.8 774.92,355.13 761.93,360.12 
					"/>
		<rect x="771.99" y="369.68" width="2.93" height="3.38"/>
		<rect x="761.93" y="369.7" width="9.19" height="3.34"/>
		<path d="M769.5,378.19h1.63v-3.34h-9.19v3.34h4.21c1.55,0,2.12,0.76,2.12,2c0,0.64-0.12,1.13-0.39,1.59l3.15,0.21
			c0.19-0.23,0.35-0.72,0.35-1.28C771.37,379.49,770.53,378.52,769.5,378.19z"/>
		<path d="M766.22,386.25h4.91v-3.34h-5.79c-1.92,0-3.65,0.76-3.65,3.28c0,1.38,0.6,2.39,1.63,2.89h-1.38v3.34h9.19v-3.34h-4.51
			c-1.4,0-2.31-0.41-2.31-1.46C764.3,386.6,764.98,386.25,766.22,386.25z"/>
		<path d="M768.26,393.75c-1.88,0-2.6,1.18-2.95,3.4l-0.21,1.36c-0.1,0.64-0.35,0.85-0.7,0.85c-0.37,0-0.64-0.39-0.64-1.13
			c0-1.01,0.43-1.63,1.2-1.75l-0.04-2.91c-2.23,0.19-3.24,2.08-3.24,4.62c0,2.62,1.11,4.27,3.05,4.27c1.79,0,2.72-1.2,3.05-3.26
			l0.31-1.79c0.04-0.31,0.21-0.56,0.52-0.56c0.41,0,0.66,0.37,0.66,1.01c0,1.03-0.41,1.61-1.07,1.73l0.08,2.74
			c1.92-0.19,3.09-1.75,3.09-4.41C771.37,395.34,770.07,393.75,768.26,393.75z"/>
	</g>
</g>
</svg>
