<?xml version="1.0" encoding="utf-8"?>
<!-- Generator: Adobe Illustrator 23.1.1, SVG Export Plug-In . SVG Version: 6.00 Build 0)  -->
<svg version="1.1" xmlns="http://www.w3.org/2000/svg" xmlns:xlink="http://www.w3.org/1999/xlink" x="0px" y="0px"
	 viewBox="0 0 792 612" style="enable-background:new 0 0 792 612;" xml:space="preserve">
<style type="text/css">
	.st0{display:none;}
	.st1{display:inline;fill:#FFFFFF;}
	.st2{display:inline;}
	.st3{fill:#FFFFFF;stroke:#000000;stroke-width:16;stroke-linecap:round;stroke-linejoin:round;stroke-miterlimit:10;}
	.st4{fill:none;stroke:#000000;stroke-width:24;stroke-linejoin:round;stroke-miterlimit:10;}
	.st5{fill:#FFFFFF;}
	.st6{fill:#FFFFFF;stroke:#000000;stroke-width:17;stroke-linecap:round;stroke-miterlimit:10;}
	.st7{fill:#FFFFFF;stroke:#000000;stroke-width:17;stroke-miterlimit:10;}
	.st8{stroke:#000000;stroke-width:16.0572;stroke-linecap:round;stroke-miterlimit:10;}
	.st9{fill:#FFFFFF;stroke:#000000;stroke-width:13.497;stroke-linecap:round;stroke-linejoin:round;stroke-miterlimit:10;}
	.st10{stroke:#000000;stroke-width:18.3348;stroke-linecap:round;stroke-miterlimit:10;}
	.st11{fill:none;stroke:#000000;stroke-width:13.497;stroke-linecap:round;stroke-linejoin:round;stroke-miterlimit:10;}
	.st12{fill:#FFFFFF;stroke:#000000;stroke-width:14.6942;stroke-linecap:round;stroke-linejoin:round;stroke-miterlimit:10;}
	.st13{fill:none;stroke:#000000;stroke-width:13;stroke-linecap:round;stroke-linejoin:round;stroke-miterlimit:10;}
	.st14{fill:none;stroke:#000000;stroke-width:13;stroke-linejoin:round;stroke-miterlimit:10;}
	.st15{fill:url(#);stroke:#000000;stroke-width:13;stroke-linejoin:round;stroke-miterlimit:10;}
	.st16{fill:none;stroke:#000000;stroke-width:30.5612;stroke-linecap:round;stroke-linejoin:round;stroke-miterlimit:10;}
	.st17{fill:#FFFFFF;stroke:#000000;stroke-width:16.2993;stroke-linecap:round;stroke-linejoin:round;stroke-miterlimit:10;}
	.st18{fill:#FFFFFF;stroke:#000000;stroke-width:13.497;stroke-linecap:round;stroke-miterlimit:10;}
	.st19{fill:url(#);stroke:#000000;stroke-width:13.497;stroke-linecap:round;stroke-linejoin:round;stroke-miterlimit:10;}
	.st20{fill:#FFFFFF;stroke:#000000;stroke-width:11.7326;stroke-linecap:round;stroke-linejoin:round;stroke-miterlimit:10;}
	.st21{fill:#FFFFFF;stroke:#000000;stroke-width:13.2623;stroke-linecap:round;stroke-linejoin:round;stroke-miterlimit:10;}
	.st22{fill:#FFFFFF;stroke:#000000;stroke-width:13.2623;stroke-linecap:round;stroke-miterlimit:10;}
	.st23{stroke:#000000;stroke-width:4.5213;stroke-miterlimit:10;}
	.st24{font-family:'FoundersGrotesk-Bold';}
	.st25{font-size:257.7939px;}
	.st26{letter-spacing:-2;}
	.st27{letter-spacing:1;}
	.st28{font-size:196px;}
	.st29{letter-spacing:-1.95;}
	.st30{letter-spacing:-0.97;}
	.st31{letter-spacing:0.97;}
	.st32{font-size:144px;}
	.st33{letter-spacing:-1;}
	.st34{fill:none;stroke:#000000;stroke-width:16;stroke-linecap:round;stroke-miterlimit:10;}
	.st35{fill:url(#);stroke:#000000;stroke-width:16;stroke-linecap:round;stroke-linejoin:round;stroke-miterlimit:10;}
	.st36{fill:#FFFFFF;stroke:#000000;stroke-width:16;stroke-linecap:round;stroke-miterlimit:10;}
	.st37{font-size:20.6105px;}
	.st38{font-size:10.3052px;}
	.st39{font-size:19.2364px;}
	.st40{font-size:10px;}
	.st41{fill:none;stroke:#000000;stroke-width:16;stroke-linecap:round;stroke-linejoin:round;stroke-miterlimit:10;}
	.st42{fill:none;stroke:#000000;stroke-width:15.2344;stroke-linecap:round;stroke-linejoin:round;stroke-miterlimit:10;}
	.st43{fill:#FFFFFF;stroke:#000000;stroke-width:15.2344;stroke-linecap:round;stroke-linejoin:round;stroke-miterlimit:10;}
	.st44{fill:#FFFFFF;stroke:#000000;stroke-width:17;stroke-linecap:round;stroke-linejoin:round;stroke-miterlimit:10;}
	.st45{fill:none;stroke:#000000;stroke-width:9.9764;stroke-linecap:round;stroke-linejoin:round;stroke-miterlimit:10;}
	.st46{fill:none;stroke:#000000;stroke-width:9.3127;stroke-linejoin:round;stroke-miterlimit:10;}
	.st47{fill:url(#);}
	.st48{fill:none;stroke:#000000;stroke-width:8.3796;stroke-linecap:round;stroke-linejoin:round;stroke-miterlimit:10;}
	
		.st49{display:inline;fill:none;stroke:#000000;stroke-width:9.9764;stroke-linecap:round;stroke-linejoin:round;stroke-miterlimit:10;}
	.st50{display:inline;fill:none;stroke:#000000;stroke-width:9.3127;stroke-linejoin:round;stroke-miterlimit:10;}
	.st51{display:inline;fill:url(#);stroke:#000000;stroke-width:10;stroke-linejoin:round;stroke-miterlimit:10;}
	.st52{fill:#FFFFFF;stroke:#000000;stroke-width:14.7375;stroke-linecap:round;stroke-linejoin:round;stroke-miterlimit:10;}
	.st53{fill:none;stroke:#000000;stroke-width:14.7375;stroke-linecap:round;stroke-linejoin:round;stroke-miterlimit:10;}
	.st54{stroke:#000000;stroke-width:14.7375;stroke-linecap:round;stroke-linejoin:round;stroke-miterlimit:10;}
	.st55{fill:#FFFFFF;stroke:#000000;stroke-width:14.2911;stroke-linecap:round;stroke-linejoin:round;stroke-miterlimit:10;}
	.st56{fill:none;stroke:#000000;stroke-width:15;stroke-linecap:round;stroke-linejoin:round;stroke-miterlimit:10;}
	.st57{fill:#FFFFFF;stroke:#000000;stroke-width:15;stroke-linecap:round;stroke-linejoin:round;stroke-miterlimit:10;}
	.st58{fill:#FFFFFF;stroke:#000000;stroke-width:14.8467;stroke-linecap:round;stroke-linejoin:round;stroke-miterlimit:10;}
	.st59{stroke:#000000;stroke-width:20.1683;stroke-linecap:round;stroke-miterlimit:10;}
	.st60{fill:none;stroke:#000000;stroke-width:14.8467;stroke-linecap:round;stroke-linejoin:round;stroke-miterlimit:10;}
	.st61{fill:none;stroke:#000000;stroke-width:13.497;stroke-miterlimit:10;}
	.st62{fill:#FFFFFF;stroke:#000000;stroke-width:13.497;stroke-miterlimit:10;}
	.st63{fill:#FFFFFF;stroke:#000000;stroke-width:14.7439;stroke-linecap:round;stroke-miterlimit:10;}
	.st64{fill:#FFFFFF;stroke:#000000;stroke-width:14.7439;stroke-miterlimit:10;}
	.st65{stroke:#000000;stroke-width:13.9262;stroke-linecap:round;stroke-miterlimit:10;}
	.st66{fill:#FFFFFF;stroke:#000000;stroke-width:17.1072;stroke-linecap:round;stroke-linejoin:round;stroke-miterlimit:10;}
	.st67{stroke:#000000;stroke-width:17.1072;stroke-linecap:round;stroke-linejoin:round;stroke-miterlimit:10;}
	.st68{fill:#FFFFFF;stroke:#000000;stroke-width:15;stroke-linecap:square;stroke-linejoin:round;stroke-miterlimit:10;}
	.st69{fill:#FFFFFF;stroke:#000000;stroke-width:15;stroke-linejoin:round;stroke-miterlimit:10;}
	.st70{fill:#FFFFFF;stroke:#000000;stroke-width:14;stroke-linecap:round;stroke-linejoin:round;stroke-miterlimit:10;}
	.st71{fill:#FFFFFF;stroke:#000000;stroke-width:13;stroke-linecap:round;stroke-linejoin:round;stroke-miterlimit:10;}
	.st72{fill:#FFFFFF;stroke:#000000;stroke-width:15.2362;stroke-linecap:round;stroke-linejoin:round;stroke-miterlimit:10;}
	.st73{fill:#FFFFFF;stroke:#FFFFFF;stroke-width:3;stroke-miterlimit:10;}
	.st74{fill:#FFFFFF;stroke:#000000;stroke-width:13.3058;stroke-linecap:round;stroke-linejoin:round;stroke-miterlimit:10;}
	.st75{fill:#FFFFFF;stroke:#000000;stroke-width:15.2517;stroke-linecap:round;stroke-linejoin:round;stroke-miterlimit:10;}
	.st76{stroke:#000000;stroke-width:3;stroke-miterlimit:10;}
</style>
<g id="unexpanded" class="st0">
	<rect x="-13377.75" y="-343.56" class="st1" width="14663.41" height="9108.82"/>
	<g class="st2">
		<rect class="st5" width="792" height="1224"/>
		<g>
			<g>
				<g>
					<text transform="matrix(1 0 0 1 9.2812 203.5591)"><tspan x="0" y="0" class="st24 st25 st26">P</tspan><tspan x="150.29" y="0" class="st24 st25 st27">e</tspan><tspan x="283.82" y="0" class="st24 st25">ople</tspan></text>
				</g>
			</g>
		</g>
		<g>
			<g>
				<g>
					<text transform="matrix(1.0257 0 0 1 11.5381 376.9556)"><tspan x="0" y="0" class="st24 st28 st29">P</tspan><tspan x="114.27" y="0" class="st24 st28">o</tspan><tspan x="217.75" y="0" class="st24 st28 st30">w</tspan><tspan x="359.86" y="0" class="st24 st28">e</tspan><tspan x="460.4" y="0" class="st24 st28 st30">r</tspan><tspan x="536.45" y="0" class="st24 st28 st31">e</tspan><tspan x="637.97" y="0" class="st24 st28">d</tspan></text>
				</g>
			</g>
		</g>
		<g>
			<g>
				<g>
					<text transform="matrix(1 0 0 1 12.875 517.7991)"><tspan x="0" y="0" class="st24 st32">P</tspan><tspan x="85.39" y="0" class="st24 st32 st33">r</tspan><tspan x="141.26" y="0" class="st24 st32">op</tspan><tspan x="299.52" y="0" class="st24 st32">a</tspan><tspan x="376.12" y="0" class="st24 st32">ganda</tspan></text>
				</g>
			</g>
		</g>
		<g>
			<g>
				<g>
					<text transform="matrix(1 0 0 1 258.9679 23.5542)"><tspan x="0" y="0" class="st24 st37">www</tspan><tspan x="45.14" y="0" class="st24 st38"> </tspan><tspan x="46.99" y="0" class="st24 st37">.</tspan><tspan x="51.77" y="0" class="st24 st38"> </tspan><tspan x="53.63" y="0" class="st24 st37">Capitalism</tspan><tspan x="150.43" y="0" class="st24 st39"> </tspan><tspan x="153.9" y="0" class="st24 st37">Is</tspan><tspan x="168.88" y="0" class="st24 st39"> </tspan><tspan x="172.34" y="0" class="st24 st37">A</tspan><tspan x="186.6" y="0" class="st24 st38"> </tspan><tspan x="188.46" y="0" class="st24 st37">Virus</tspan><tspan x="236.15" y="0" class="st24 st38"> </tspan><tspan x="238.01" y="0" class="st24 st37">.</tspan><tspan x="242.79" y="0" class="st24 st38"> </tspan><tspan x="244.64" y="0" class="st24 st37">org</tspan></text>
				</g>
				<g>
					<text transform="matrix(1 0 0 1 299.1802 596.9932)"><tspan x="0" y="0" class="st24 st37">#</tspan><tspan x="12.7" y="0" class="st24 st40"> </tspan><tspan x="14.5" y="0" class="st24 st37">Capitalism</tspan><tspan x="111.3" y="0" class="st24 st40"> </tspan><tspan x="113.1" y="0" class="st24 st37">Is</tspan><tspan x="128.09" y="0" class="st24 st40"> </tspan><tspan x="129.89" y="0" class="st24 st37">A</tspan><tspan x="144.15" y="0" class="st24 st40"> </tspan><tspan x="145.95" y="0" class="st24 st37">Virus</tspan></text>
				</g>
			</g>
		</g>
	</g>
</g>
<g id="exp_trnsp_bg">
	<path d="M65.22,152.77h27.84c42.54,0,67.29-19.85,67.29-55.94c0-35.83-24.75-55.68-67.29-55.68H21.66v162.41h43.57V152.77z
		 M65.22,76.21H91c19.59,0,27.07,7.22,27.07,20.88c0,13.66-7.48,20.62-27.07,20.62H65.22V76.21z"/>
	<path d="M227.89,206.65c30.42,0,51.56-14.69,57.49-40.99l-33.51-3.09c-3.87,9.02-11.08,12.89-22.43,12.89
		c-12.63,0-22.94-6.7-23.98-20.88h80.69v-11.6c0-31.19-20.37-57.49-58.78-57.49c-35.83,0-62.64,26.04-62.64,62.39
		C164.73,184.48,191.02,206.65,227.89,206.65z M226.86,115.39c12.37,0,19.08,8.77,19.59,19.08h-40.47
		C207.52,123.64,213.45,115.39,226.86,115.39z"/>
	<path d="M298.26,146.07c0,35.83,25.26,60.58,62.9,60.58c37.38,0,62.9-24.75,62.9-60.58c0-35.58-25.52-60.58-62.9-60.58
		C323.52,85.49,298.26,110.5,298.26,146.07z M361.16,116.94c14.44,0,20.88,11.86,20.88,29.13s-6.45,29.13-20.88,29.13
		c-14.69,0-20.88-11.86-20.88-29.13S346.47,116.94,361.16,116.94z"/>
	<path d="M482.33,108.43V88.58h-41.76v156.23h41.76v-60.84c5.67,13.41,18.56,22.69,37.9,22.69c33.77,0,51.04-26.55,51.04-60.58
		c0-33.77-17.27-60.58-51.04-60.58C500.89,85.49,488,94.77,482.33,108.43z M529.24,146.07c0,16.76-7.48,28.36-23.72,28.36
		c-14.18,0-23.2-10.83-23.2-27.58v-1.55c0-16.5,9.02-27.33,23.2-27.33C521.77,117.97,529.24,129.57,529.24,146.07z"/>
	<rect x="587.76" y="41.15" width="41.76" height="162.41"/>
	<path d="M709.18,206.65c30.42,0,51.56-14.69,57.49-40.99l-33.51-3.09c-3.87,9.02-11.08,12.89-22.43,12.89
		c-12.63,0-22.94-6.7-23.98-20.88h80.69v-11.6c0-31.19-20.37-57.49-58.78-57.49c-35.83,0-62.64,26.04-62.64,62.39
		C646.02,184.48,672.32,206.65,709.18,206.65z M708.15,115.39c12.37,0,19.08,8.77,19.59,19.08h-40.47
		C688.82,123.64,694.75,115.39,708.15,115.39z"/>
	<path d="M55.16,338.34h21.71c33.17,0,52.47-15.09,52.47-42.53c0-27.24-19.3-42.34-52.47-42.34H21.19v123.48h33.97V338.34z
		 M55.16,280.13h20.1c15.28,0,21.11,5.49,21.11,15.88s-5.83,15.68-21.11,15.68h-20.1V280.13z"/>
	<path d="M181.81,287.19c-29.35,0-49.05,19.01-49.05,46.06c0,27.24,19.7,46.06,49.05,46.06c29.15,0,49.05-18.82,49.05-46.06
		C230.87,306.2,210.96,287.19,181.81,287.19z M181.81,355.4c-11.46,0-16.28-9.02-16.28-22.15s4.83-22.15,16.28-22.15
		c11.26,0,16.28,9.02,16.28,22.15S193.07,355.4,181.81,355.4z"/>
	<polygon points="353.7,376.96 382.04,289.54 352.69,289.54 336.61,339.13 335.81,339.13 322.74,289.54 296.81,289.54 
		283.74,339.13 282.93,339.13 266.85,289.54 234.48,289.54 262.83,376.96 294.79,376.96 307.86,327.56 308.67,327.56 321.73,376.96 
			"/>
	<path d="M478.74,348.14l-26.13-2.35c-3.02,6.86-8.64,9.8-17.49,9.8c-9.85,0-17.89-5.1-18.7-15.88h62.92v-8.82
		c0-23.72-15.88-43.71-45.84-43.71c-27.94,0-48.85,19.8-48.85,47.43c0,27.83,20.51,44.69,49.25,44.69
		C457.63,379.31,474.12,368.14,478.74,348.14z M433.11,309.92c9.65,0,14.88,6.66,15.28,14.5h-31.56
		C418.03,316.2,422.66,309.92,433.11,309.92z"/>
	<path d="M560.16,320.51l2.01-29.99c-2.21-1.76-7.04-3.33-12.46-3.33c-11.86,0-21.31,8.04-24.53,17.84v-15.48h-32.57v87.42h32.57
		v-39.98c0-14.7,7.44-20.19,19.5-20.19C550.91,316.78,555.74,317.96,560.16,320.51z"/>
	<path d="M615.04,379.31c23.72,0,40.21-11.17,44.83-31.16l-26.13-2.35c-3.02,6.86-8.64,9.8-17.49,9.8c-9.85,0-17.89-5.1-18.7-15.88
		h62.92v-8.82c0-23.72-15.88-43.71-45.84-43.71c-27.94,0-48.85,19.8-48.85,47.43C565.79,362.45,586.29,379.31,615.04,379.31z
		 M614.24,309.92c9.65,0,14.88,6.66,15.28,14.5h-31.56C599.16,316.2,603.79,309.92,614.24,309.92z"/>
	<path d="M771.64,376.96V253.48h-32.57v51.16c-4.22-10.39-14.47-17.44-29.35-17.44c-26.54,0-39.8,20.38-39.8,46.06
		c0,25.87,13.27,46.06,39.8,46.06c14.88,0,25.13-7.06,29.35-17.25v14.9H771.64z M721.18,354.81c-12.87,0-18.5-8.82-18.5-21.56
		c0-12.54,5.63-21.36,18.5-21.36c10.86,0,17.89,8.23,17.89,20.78v1.18C739.08,346.58,732.04,354.81,721.18,354.81z"/>
	<path d="M97.26,458.18c0-20.02-13.82-31.1-37.58-31.1H19.79v90.72h24.33v-28.37h15.55C83.43,489.43,97.26,478.34,97.26,458.18z
		 M58.52,469.85h-14.4v-23.18h14.4c10.94,0,15.12,4.03,15.12,11.66S69.47,469.85,58.52,469.85z"/>
	<path d="M152.98,476.33l1.44-22.03c-1.58-1.3-5.04-2.45-8.93-2.45c-8.5,0-15.26,5.9-17.57,13.1v-11.38H104.6v64.22h23.33v-29.38
		c0-10.8,5.33-14.83,13.97-14.83C146.36,473.59,149.82,474.46,152.98,476.33z"/>
	<path d="M192.15,519.53c20.88,0,35.13-13.82,35.13-33.84c0-19.87-14.26-33.84-35.13-33.84c-21.02,0-35.14,13.97-35.14,33.84
		C157.02,505.7,171.13,519.53,192.15,519.53z M192.15,469.42c8.06,0,11.66,6.62,11.66,16.27c0,9.65-3.6,16.27-11.66,16.27
		c-8.21,0-11.66-6.62-11.66-16.27C180.49,476.04,183.94,469.42,192.15,469.42z"/>
	<path d="M236.5,453.58v87.26h23.33v-33.98c3.17,7.49,10.37,12.67,21.17,12.67c18.86,0,28.51-14.83,28.51-33.84
		c0-18.86-9.65-33.84-28.51-33.84c-10.8,0-18,5.18-21.17,12.82v-11.09H236.5z M272.79,469.99c9.07,0,13.25,6.48,13.25,15.7
		c0,9.36-4.18,15.84-13.25,15.84c-7.92,0-12.96-6.05-12.96-15.41v-0.86C259.83,476.04,264.87,469.99,272.79,469.99z"/>
	<path d="M387.85,502.68c-1.87,0.72-3.31,1.01-5.18,1.01c-2.45,0-3.89-1.44-3.89-4.75v-21.89c0-17.86-12.53-25.2-29.52-25.2
		c-19.3,0-29.81,9.79-31.82,23.9l21.6,1.44c1.01-4.75,3.6-8.06,8.78-8.06c5.62,0,8.06,3.17,8.06,8.5v1.01l-18,3.02
		c-13.97,2.45-22.9,7.78-22.9,20.16c0,10.94,8.21,17.42,20.74,17.42c10.22,0,17.57-3.89,21.31-11.38
		c2.16,7.34,8.35,11.38,16.27,11.38c6.62,0,11.23-1.87,14.54-4.18V502.68z M355.88,491.02c0,8.35-5.33,13.25-11.95,13.25
		c-3.89,0-6.48-2.16-6.48-5.47c0-4.18,3.31-5.9,8.93-7.06l9.5-1.73V491.02z"/>
	<path d="M441.56,500.81h-26.64c-3.89,0-5.47-1.73-5.47-3.89c0-1.3,0.43-2.3,1.3-3.02c4.18,1.3,8.78,1.87,13.97,1.87
		c18.14,0,31.25-8.35,31.25-21.89c0-3.02-0.72-5.76-2.02-8.21c3.17-0.72,6.62-1.01,9.36-1.01V447.1c-7.06,0-14.11,4.61-18,9.94
		c-5.47-3.31-12.82-5.18-20.59-5.18c-18,0-30.96,8.35-30.96,22.03c0,7.06,3.46,12.53,9.22,16.27c-6.91,2.59-10.94,7.34-10.94,13.54
		c0,5.47,3.46,10.66,9.22,12.53c-7.2,0.58-12.24,5.04-12.24,10.66c0,12.1,15.84,15.7,34.13,15.7c20.88,0,40.32-7.34,40.32-23.33
		C463.44,508.44,456.1,500.81,441.56,500.81z M425,464.66c3.89,0,6.77,3.6,6.77,9.22c0,5.76-2.88,9.36-6.77,9.36
		c-3.89,0-6.77-3.6-6.77-9.36C418.23,468.26,421.11,464.66,425,464.66z M423.27,530.47c-8.64,0-15.12-1.3-15.12-5.9
		c0-2.45,1.73-3.89,4.32-3.89h23.62c3.89,0,5.9,1.01,5.9,3.74C441.99,528.31,434.07,530.47,423.27,530.47z"/>
	<path d="M508.08,507.86c2.16,7.34,8.35,11.38,16.27,11.38c6.62,0,11.23-1.87,14.54-4.18v-12.38c-1.87,0.72-3.31,1.01-5.18,1.01
		c-2.45,0-3.89-1.44-3.89-4.75v-21.89c0-17.86-12.53-25.2-29.52-25.2c-19.3,0-29.81,9.79-31.82,23.9l21.6,1.44
		c1.01-4.75,3.6-8.06,8.78-8.06c5.62,0,8.06,3.17,8.06,8.5v1.01l-18,3.02c-13.97,2.45-22.9,7.78-22.9,20.16
		c0,10.94,8.21,17.42,20.74,17.42C497,519.24,504.34,515.35,508.08,507.86z M494.98,504.26c-3.89,0-6.48-2.16-6.48-5.47
		c0-4.18,3.31-5.9,8.93-7.06l9.5-1.73v1.01C506.93,499.37,501.61,504.26,494.98,504.26z"/>
	<path d="M612.92,517.8v-40.32c0-13.39-5.62-25.63-23.18-25.63c-9.65,0-17.28,4.32-20.74,11.38v-9.65h-23.33v64.22H569v-31.54
		c0-9.65,3.17-15.98,11.09-15.98c7.06,0,9.5,4.61,9.5,13.39v34.13H612.92z"/>
	<path d="M694.27,517.8v-90.72h-23.33v37.58c-3.02-7.63-10.37-12.82-21.02-12.82c-19.01,0-28.51,14.98-28.51,33.84
		c0,19.01,9.5,33.84,28.51,33.84c10.66,0,18-5.18,21.02-12.67v10.94H694.27z M658.13,501.53c-9.22,0-13.25-6.48-13.25-15.84
		c0-9.22,4.03-15.7,13.25-15.7c7.78,0,12.82,6.05,12.82,15.26v0.86C670.95,495.48,665.91,501.53,658.13,501.53z"/>
	<path d="M766.99,498.94v-21.89c0-17.86-12.53-25.2-29.52-25.2c-19.3,0-29.81,9.79-31.82,23.9l21.6,1.44
		c1.01-4.75,3.6-8.06,8.78-8.06c5.62,0,8.06,3.17,8.06,8.5v1.01l-18,3.02c-13.97,2.45-22.9,7.78-22.9,20.16
		c0,10.94,8.21,17.42,20.74,17.42c10.22,0,17.57-3.89,21.31-11.38c2.16,7.34,8.35,11.38,16.27,11.38c6.62,0,11.23-1.87,14.54-4.18
		v-12.38c-1.87,0.72-3.31,1.01-5.18,1.01C768.43,503.69,766.99,502.25,766.99,498.94z M744.1,491.02c0,8.35-5.33,13.25-11.95,13.25
		c-3.89,0-6.48-2.16-6.48-5.47c0-4.18,3.31-5.9,8.93-7.06l9.5-1.73V491.02z"/>
	<polygon points="265.16,23.55 266.5,18.36 266.58,18.36 267.92,23.55 271.2,23.55 274.07,14.5 276.93,23.55 280.21,23.55 
		281.55,18.36 281.63,18.36 282.97,23.55 286.25,23.55 289.11,14.49 291.98,23.55 295.25,23.55 296.59,18.36 296.68,18.36 
		298.02,23.55 301.29,23.55 304.2,14.36 301.19,14.36 299.54,19.58 299.46,19.58 298.12,14.36 295.46,14.36 294.12,19.58 
		294.04,19.58 292.39,14.36 289.15,14.36 289.07,14.36 286.14,14.36 284.5,19.58 284.41,19.58 283.07,14.36 280.41,14.36 
		279.07,19.58 278.99,19.58 277.34,14.36 274.11,14.36 274.02,14.36 271.1,14.36 269.45,19.58 269.37,19.58 268.03,14.36 
		265.37,14.36 264.03,19.58 263.95,19.58 262.3,14.36 258.98,14.36 261.88,23.55 	"/>
	<rect x="306.63" y="20.01" width="3.55" height="3.55"/>
	<path d="M319.72,23.8c3.98,0,6.1-2.52,6.35-5.75l-3.36-0.14c-0.21,1.44-0.99,2.78-3.01,2.78c-1.92,0-3.03-1.42-3.03-3.63
		s1.11-3.63,3.03-3.63c2.02,0,2.8,1.34,3.01,2.78l3.36-0.12c-0.25-3.24-2.37-5.77-6.35-5.77c-3.79,0-6.66,2.74-6.66,6.74
		S315.92,23.8,319.72,23.8z"/>
	<path d="M330.08,18.38c-2,0.35-3.28,1.11-3.28,2.89c0,1.57,1.17,2.49,2.97,2.49c1.46,0,2.51-0.56,3.05-1.63
		c0.31,1.05,1.2,1.63,2.33,1.63c0.95,0,1.61-0.27,2.08-0.6v-1.77c-0.27,0.1-0.47,0.14-0.74,0.14c-0.35,0-0.56-0.21-0.56-0.68v-3.13
		c0-2.56-1.79-3.61-4.23-3.61c-2.76,0-4.27,1.4-4.56,3.42l3.09,0.21c0.14-0.68,0.52-1.15,1.26-1.15c0.8,0,1.15,0.45,1.15,1.22v0.14
		L330.08,18.38z M332.66,19.72c0,1.2-0.76,1.9-1.71,1.9c-0.56,0-0.93-0.31-0.93-0.78c0-0.6,0.47-0.85,1.28-1.01l1.36-0.25V19.72z"/>
	<path d="M341.54,21.99c0.45,1.07,1.48,1.81,3.03,1.81c2.7,0,4.08-2.12,4.08-4.84c0-2.7-1.38-4.84-4.08-4.84
		c-1.55,0-2.58,0.74-3.03,1.83v-1.59h-3.34v12.49h3.34V21.99z M341.54,18.9c0-1.32,0.72-2.19,1.86-2.19c1.3,0,1.9,0.93,1.9,2.25
		c0,1.34-0.6,2.27-1.9,2.27c-1.13,0-1.86-0.87-1.86-2.21V18.9z"/>
	<rect x="349.97" y="14.36" width="3.34" height="9.19"/>
	<rect x="349.95" y="10.57" width="3.38" height="2.93"/>
	<path d="M355.46,21c0,2.16,1.46,2.8,3.01,2.8c1.26,0,2.06-0.31,2.76-0.82v-2.16c-0.56,0.23-1.01,0.31-1.42,0.31
		c-0.68,0-1.05-0.31-1.05-1.09v-3.36h2.39v-2.31h-2.39v-2.54h-2.1l-0.31,1.2c-0.23,0.85-0.52,1.34-1.44,1.48l-0.68,0.1v2.06h1.24V21
		z"/>
	<path d="M365.25,18.38c-2,0.35-3.28,1.11-3.28,2.89c0,1.57,1.17,2.49,2.97,2.49c1.46,0,2.52-0.56,3.05-1.63
		c0.31,1.05,1.2,1.63,2.33,1.63c0.95,0,1.61-0.27,2.08-0.6v-1.77c-0.27,0.1-0.47,0.14-0.74,0.14c-0.35,0-0.56-0.21-0.56-0.68v-3.13
		c0-2.56-1.79-3.61-4.23-3.61c-2.76,0-4.27,1.4-4.56,3.42l3.09,0.21c0.14-0.68,0.52-1.15,1.26-1.15c0.8,0,1.15,0.45,1.15,1.22v0.14
		L365.25,18.38z M367.82,19.72c0,1.2-0.76,1.9-1.71,1.9c-0.56,0-0.93-0.31-0.93-0.78c0-0.6,0.47-0.85,1.28-1.01l1.36-0.25V19.72z"/>
	<rect x="373.37" y="10.57" width="3.34" height="12.99"/>
	<rect x="378.5" y="10.57" width="3.38" height="2.93"/>
	<rect x="378.52" y="14.36" width="3.34" height="9.19"/>
	<path d="M387.67,21.72c-1.01,0-1.63-0.43-1.75-1.2l-2.91,0.04c0.19,2.23,2.08,3.24,4.62,3.24c2.62,0,4.27-1.11,4.27-3.05
		c0-1.79-1.2-2.72-3.26-3.05l-1.79-0.31c-0.31-0.04-0.56-0.21-0.56-0.52c0-0.41,0.37-0.66,1.01-0.66c1.03,0,1.61,0.41,1.73,1.07
		l2.74-0.08c-0.19-1.92-1.75-3.09-4.41-3.09c-2.58,0-4.16,1.3-4.16,3.11c0,1.88,1.17,2.6,3.4,2.95l1.36,0.21
		c0.64,0.1,0.84,0.35,0.84,0.7C388.8,21.45,388.41,21.72,387.67,21.72z"/>
	<path d="M396.51,19.04c0-1.38,0.39-2.29,1.48-2.29c1.01,0,1.26,0.66,1.26,1.92v4.89h3.34v-4.51c0-1.38,0.37-2.29,1.48-2.29
		c1.01,0,1.24,0.66,1.24,1.92v4.89h3.34v-5.77c0-1.92-0.74-3.67-3.28-3.67c-1.55,0-2.64,0.78-3.13,1.81
		c-0.39-1.07-1.24-1.81-2.87-1.81c-1.38,0-2.37,0.62-2.87,1.63v-1.38h-3.34v9.19h3.34V19.04z"/>
	<rect x="413.91" y="10.57" width="3.5" height="12.99"/>
	<path d="M423.3,21.72c-1.01,0-1.63-0.43-1.75-1.2l-2.91,0.04c0.19,2.23,2.08,3.24,4.62,3.24c2.62,0,4.27-1.11,4.27-3.05
		c0-1.79-1.2-2.72-3.26-3.05l-1.79-0.31c-0.31-0.04-0.56-0.21-0.56-0.52c0-0.41,0.37-0.66,1.01-0.66c1.03,0,1.61,0.41,1.73,1.07
		l2.74-0.08c-0.19-1.92-1.75-3.09-4.41-3.09c-2.58,0-4.16,1.3-4.16,3.11c0,1.88,1.17,2.6,3.4,2.95l1.36,0.21
		c0.64,0.1,0.84,0.35,0.84,0.7C424.44,21.45,424.05,21.72,423.3,21.72z"/>
	<path d="M435.86,21.04h5.07l0.97,2.52h3.73l-5.17-12.99h-3.92l-5.17,12.99h3.52L435.86,21.04z M438.35,14.59h0.08l1.48,3.83h-3.05
		L438.35,14.59z"/>
	<polygon points="456.16,23.55 461.15,10.57 457.66,10.57 454.45,19.2 454.36,19.2 451.15,10.57 447.48,10.57 452.47,23.55 	"/>
	<rect x="462.05" y="14.36" width="3.34" height="9.19"/>
	<rect x="462.03" y="10.57" width="3.38" height="2.93"/>
	<path d="M470.54,19.35c0-1.55,0.76-2.12,2-2.12c0.64,0,1.13,0.12,1.59,0.39l0.21-3.15c-0.23-0.19-0.72-0.35-1.28-0.35
		c-1.22,0-2.18,0.85-2.51,1.88v-1.63h-3.34v9.19h3.34V19.35z"/>
	<path d="M478.54,23.8c1.38,0,2.39-0.6,2.89-1.63v1.38h3.34v-9.19h-3.34v4.51c0,1.4-0.41,2.31-1.46,2.31
		c-1.01,0-1.36-0.68-1.36-1.92v-4.91h-3.34v5.79C475.26,22.07,476.02,23.8,478.54,23.8z"/>
	<path d="M490.58,21.72c-1.01,0-1.63-0.43-1.75-1.2l-2.91,0.04c0.19,2.23,2.08,3.24,4.62,3.24c2.62,0,4.27-1.11,4.27-3.05
		c0-1.79-1.2-2.72-3.26-3.05l-1.79-0.31c-0.31-0.04-0.56-0.21-0.56-0.52c0-0.41,0.37-0.66,1.01-0.66c1.03,0,1.61,0.41,1.73,1.07
		l2.74-0.08c-0.19-1.92-1.75-3.09-4.41-3.09c-2.58,0-4.16,1.3-4.16,3.11c0,1.88,1.17,2.6,3.4,2.95l1.36,0.21
		c0.64,0.1,0.84,0.35,0.84,0.7C491.71,21.45,491.32,21.72,490.58,21.72z"/>
	<rect x="497.64" y="20.01" width="3.55" height="3.55"/>
	<path d="M509.1,23.8c2.99,0,5.03-1.98,5.03-4.84c0-2.84-2.04-4.84-5.03-4.84c-3.01,0-5.03,2-5.03,4.84
		C504.07,21.82,506.09,23.8,509.1,23.8z M509.1,16.63c1.15,0,1.67,0.95,1.67,2.33c0,1.38-0.52,2.33-1.67,2.33
		c-1.17,0-1.67-0.95-1.67-2.33C507.43,17.58,507.93,16.63,509.1,16.63z"/>
	<path d="M518.79,19.35c0-1.55,0.76-2.12,2-2.12c0.64,0,1.13,0.12,1.59,0.39l0.21-3.15c-0.23-0.19-0.72-0.35-1.28-0.35
		c-1.22,0-2.19,0.85-2.52,1.88v-1.63h-3.34v9.19h3.34V19.35z"/>
	<path d="M522.6,24.85c0,1.73,2.27,2.25,4.89,2.25c2.99,0,5.77-1.05,5.77-3.34c0-1.55-1.05-2.64-3.13-2.64h-3.81
		c-0.56,0-0.78-0.25-0.78-0.56c0-0.19,0.06-0.33,0.19-0.43c0.6,0.19,1.26,0.27,2,0.27c2.6,0,4.47-1.2,4.47-3.13
		c0-0.43-0.1-0.82-0.29-1.17c0.45-0.1,0.95-0.14,1.34-0.14v-2.51c-1.01,0-2.02,0.66-2.58,1.42c-0.78-0.47-1.83-0.74-2.95-0.74
		c-2.58,0-4.43,1.2-4.43,3.15c0,1.01,0.5,1.79,1.32,2.33c-0.99,0.37-1.57,1.05-1.57,1.94c0,0.78,0.49,1.53,1.32,1.79
		C523.33,23.41,522.6,24.05,522.6,24.85z M527.76,15.95c0.56,0,0.97,0.52,0.97,1.32c0,0.82-0.41,1.34-0.97,1.34
		s-0.97-0.52-0.97-1.34C526.79,16.46,527.2,15.95,527.76,15.95z M525.96,23.97h3.38c0.56,0,0.84,0.14,0.84,0.54
		c0,0.56-1.13,0.87-2.68,0.87c-1.24,0-2.16-0.19-2.16-0.84C525.35,24.17,525.59,23.97,525.96,23.97z"/>
	<path d="M311.03,589.49l0.43-2.06h-1.83l0.82-3.42h-2.49l-0.82,3.42h-1.77l0.83-3.42h-2.49l-0.83,3.42h-2.02l-0.43,2.06h1.98
		l-0.5,2.02h-1.88l-0.43,2.06h1.81l-0.8,3.42h2.49l0.8-3.42h1.77l-0.8,3.42h2.49l0.8-3.42h2.04l0.43-2.06h-1.98l0.5-2.02H311.03z
		 M306.17,591.51h-1.77l0.5-2.02h1.77L306.17,591.51z"/>
	<path d="M320.73,586.87c2.02,0,2.8,1.34,3.01,2.78l3.36-0.12c-0.25-3.24-2.37-5.77-6.35-5.77c-3.79,0-6.66,2.74-6.66,6.74
		c0,4,2.87,6.74,6.66,6.74c3.98,0,6.1-2.52,6.35-5.75l-3.36-0.14c-0.21,1.44-0.99,2.78-3.01,2.78c-1.92,0-3.03-1.42-3.03-3.63
		C317.7,588.29,318.81,586.87,320.73,586.87z"/>
	<path d="M331.11,591.82c-2,0.35-3.28,1.11-3.28,2.89c0,1.57,1.17,2.49,2.97,2.49c1.46,0,2.51-0.56,3.05-1.63
		c0.31,1.05,1.2,1.63,2.33,1.63c0.95,0,1.61-0.27,2.08-0.6v-1.77c-0.27,0.1-0.47,0.14-0.74,0.14c-0.35,0-0.56-0.21-0.56-0.68v-3.13
		c0-2.56-1.79-3.61-4.23-3.61c-2.76,0-4.27,1.4-4.56,3.42l3.09,0.21c0.14-0.68,0.51-1.15,1.26-1.15c0.8,0,1.15,0.45,1.15,1.22v0.14
		L331.11,591.82z M333.69,593.16c0,1.2-0.76,1.9-1.71,1.9c-0.56,0-0.93-0.31-0.93-0.78c0-0.6,0.47-0.85,1.28-1.01l1.36-0.25V593.16z
		"/>
	<path d="M339.23,587.8v12.49h3.34v-4.87c0.45,1.07,1.48,1.81,3.03,1.81c2.7,0,4.08-2.12,4.08-4.84c0-2.7-1.38-4.84-4.08-4.84
		c-1.55,0-2.58,0.74-3.03,1.83v-1.59H339.23z M344.43,590.15c1.3,0,1.9,0.93,1.9,2.25c0,1.34-0.6,2.27-1.9,2.27
		c-1.13,0-1.86-0.87-1.86-2.21v-0.12C342.57,591.02,343.29,590.15,344.43,590.15z"/>
	<rect x="350.98" y="584.01" width="3.38" height="2.93"/>
	<rect x="351" y="587.8" width="3.34" height="9.19"/>
	<path d="M359.49,597.24c1.26,0,2.06-0.31,2.76-0.82v-2.16c-0.56,0.23-1.01,0.31-1.42,0.31c-0.68,0-1.05-0.31-1.05-1.09v-3.36h2.39
		v-2.31h-2.39v-2.54h-2.1l-0.31,1.2c-0.23,0.85-0.51,1.34-1.44,1.48l-0.68,0.1v2.06h1.24v4.33
		C356.48,596.6,357.95,597.24,359.49,597.24z"/>
	<path d="M366.27,591.82c-2,0.35-3.28,1.11-3.28,2.89c0,1.57,1.18,2.49,2.97,2.49c1.46,0,2.51-0.56,3.05-1.63
		c0.31,1.05,1.2,1.63,2.33,1.63c0.95,0,1.61-0.27,2.08-0.6v-1.77c-0.27,0.1-0.47,0.14-0.74,0.14c-0.35,0-0.56-0.21-0.56-0.68v-3.13
		c0-2.56-1.79-3.61-4.23-3.61c-2.76,0-4.27,1.4-4.56,3.42l3.09,0.21c0.14-0.68,0.51-1.15,1.26-1.15c0.8,0,1.15,0.45,1.15,1.22v0.14
		L366.27,591.82z M368.85,593.16c0,1.2-0.76,1.9-1.71,1.9c-0.56,0-0.93-0.31-0.93-0.78c0-0.6,0.47-0.85,1.28-1.01l1.36-0.25V593.16z
		"/>
	<rect x="374.39" y="584.01" width="3.34" height="12.99"/>
	<rect x="379.55" y="587.8" width="3.34" height="9.19"/>
	<rect x="379.53" y="584.01" width="3.38" height="2.93"/>
	<path d="M388.7,595.16c-1.01,0-1.63-0.43-1.75-1.2l-2.91,0.04c0.19,2.23,2.08,3.24,4.62,3.24c2.62,0,4.27-1.11,4.27-3.05
		c0-1.79-1.2-2.72-3.26-3.05l-1.79-0.31c-0.31-0.04-0.56-0.21-0.56-0.52c0-0.41,0.37-0.66,1.01-0.66c1.03,0,1.61,0.41,1.73,1.07
		l2.74-0.08c-0.19-1.92-1.75-3.09-4.41-3.09c-2.58,0-4.16,1.3-4.16,3.11c0,1.88,1.18,2.6,3.4,2.95l1.36,0.21
		c0.64,0.1,0.85,0.35,0.85,0.7C389.83,594.89,389.44,595.16,388.7,595.16z"/>
	<path d="M409.68,596.99v-5.77c0-1.92-0.74-3.67-3.28-3.67c-1.55,0-2.64,0.78-3.13,1.81c-0.39-1.07-1.24-1.81-2.87-1.81
		c-1.38,0-2.37,0.62-2.87,1.63v-1.38h-3.34v9.19h3.34v-4.51c0-1.38,0.39-2.29,1.48-2.29c1.01,0,1.26,0.66,1.26,1.92v4.89h3.34v-4.51
		c0-1.38,0.37-2.29,1.48-2.29c1.01,0,1.24,0.66,1.24,1.92v4.89H409.68z"/>
	<rect x="413.27" y="584.01" width="3.5" height="12.99"/>
	<path d="M422.67,595.16c-1.01,0-1.63-0.43-1.75-1.2l-2.91,0.04c0.19,2.23,2.08,3.24,4.62,3.24c2.62,0,4.27-1.11,4.27-3.05
		c0-1.79-1.2-2.72-3.26-3.05l-1.79-0.31c-0.31-0.04-0.56-0.21-0.56-0.52c0-0.41,0.37-0.66,1.01-0.66c1.03,0,1.61,0.41,1.73,1.07
		l2.74-0.08c-0.19-1.92-1.75-3.09-4.41-3.09c-2.58,0-4.16,1.3-4.16,3.11c0,1.88,1.18,2.6,3.4,2.95l1.36,0.21
		c0.64,0.1,0.85,0.35,0.85,0.7C423.8,594.89,423.41,595.16,422.67,595.16z"/>
	<path d="M429.07,596.99h3.52l0.97-2.51h5.07l0.97,2.51h3.73l-5.17-12.99h-3.92L429.07,596.99z M436.05,588.03h0.08l1.48,3.83h-3.05
		L436.05,588.03z"/>
	<polygon points="452.1,592.64 452.01,592.64 448.8,584.01 445.13,584.01 450.12,596.99 453.81,596.99 458.8,584.01 455.31,584.01 	
		"/>
	<rect x="459.7" y="587.8" width="3.34" height="9.19"/>
	<rect x="459.68" y="584.01" width="3.38" height="2.93"/>
	<path d="M468.19,592.79c0-1.55,0.76-2.12,2-2.12c0.64,0,1.13,0.12,1.59,0.39l0.21-3.15c-0.23-0.19-0.72-0.35-1.28-0.35
		c-1.22,0-2.19,0.85-2.52,1.88v-1.63h-3.34v9.19h3.34V592.79z"/>
	<path d="M482.41,596.99v-9.19h-3.34v4.51c0,1.4-0.41,2.31-1.46,2.31c-1.01,0-1.36-0.68-1.36-1.92v-4.91h-3.34v5.79
		c0,1.92,0.76,3.65,3.28,3.65c1.38,0,2.39-0.6,2.89-1.63v1.38H482.41z"/>
	<path d="M488.22,595.16c-1.01,0-1.63-0.43-1.75-1.2l-2.91,0.04c0.19,2.23,2.08,3.24,4.62,3.24c2.62,0,4.27-1.11,4.27-3.05
		c0-1.79-1.2-2.72-3.26-3.05l-1.79-0.31c-0.31-0.04-0.56-0.21-0.56-0.52c0-0.41,0.37-0.66,1.01-0.66c1.03,0,1.61,0.41,1.73,1.07
		l2.74-0.08c-0.19-1.92-1.75-3.09-4.41-3.09c-2.58,0-4.16,1.3-4.16,3.11c0,1.88,1.17,2.6,3.4,2.95l1.36,0.21
		c0.64,0.1,0.85,0.35,0.85,0.7C489.36,594.89,488.97,595.16,488.22,595.16z"/>
</g>
<g id="exp_white_bg" class="st0">
	<g class="st2">
		<path class="st5" d="M725.67,498.79c0,3.31,2.59,5.47,6.48,5.47c6.62,0,11.95-4.9,11.95-13.25v-1.01l-9.5,1.73
			C728.98,492.89,725.67,494.62,725.67,498.79z"/>
		<path class="st5" d="M708.15,115.39c-13.41,0-19.33,8.25-20.88,19.08h40.47C727.23,124.16,720.53,115.39,708.15,115.39z"/>
		<polygon class="st5" points="304.4,591.51 306.17,591.51 306.66,589.49 304.89,589.49 		"/>
		<path class="st5" d="M482.33,145.3v1.55c0,16.76,9.02,27.58,23.2,27.58c16.24,0,23.72-11.6,23.72-28.36
			c0-16.5-7.48-28.1-23.72-28.1C491.35,117.97,482.33,128.8,482.33,145.3z"/>
		<path class="st5" d="M614.24,309.92c-10.45,0-15.08,6.27-16.28,14.5h31.56C629.12,316.59,623.89,309.92,614.24,309.92z"/>
		<path class="st5" d="M670.95,485.26c0-9.22-5.04-15.26-12.82-15.26c-9.22,0-13.25,6.48-13.25,15.7c0,9.36,4.03,15.84,13.25,15.84
			c7.78,0,12.82-6.05,12.82-15.41V485.26z"/>
		<path class="st5" d="M433.11,309.92c-10.45,0-15.08,6.27-16.28,14.5h31.56C447.99,316.59,442.76,309.92,433.11,309.92z"/>
		<polygon class="st5" points="438.43,14.59 438.35,14.59 436.87,18.42 439.92,18.42 		"/>
		<path class="st5" d="M181.81,311.1c-11.46,0-16.28,9.02-16.28,22.15s4.83,22.15,16.28,22.15c11.26,0,16.28-9.02,16.28-22.15
			S193.07,311.1,181.81,311.1z"/>
		<path class="st5" d="M365.18,20.83c0,0.47,0.37,0.78,0.93,0.78c0.95,0,1.71-0.7,1.71-1.9v-0.14l-1.36,0.25
			C365.66,19.99,365.18,20.24,365.18,20.83z"/>
		<path class="st5" d="M118.07,97.09c0-13.66-7.48-20.88-27.07-20.88H65.22v41.5H91C110.6,117.71,118.07,110.75,118.07,97.09z"/>
		<path class="st5" d="M506.93,490.01l-9.5,1.73c-5.62,1.15-8.93,2.88-8.93,7.06c0,3.31,2.59,5.47,6.48,5.47
			c6.62,0,11.95-4.9,11.95-13.25V490.01z"/>
		<path class="st5" d="M330.02,20.83c0,0.47,0.37,0.78,0.93,0.78c0.95,0,1.71-0.7,1.71-1.9v-0.14l-1.36,0.25
			C330.5,19.99,330.02,20.24,330.02,20.83z"/>
		<path class="st5" d="M343.4,21.22c1.3,0,1.9-0.93,1.9-2.27c0-1.32-0.6-2.25-1.9-2.25c-1.13,0-1.86,0.87-1.86,2.19v0.12
			C341.54,20.36,342.26,21.22,343.4,21.22z"/>
		<path class="st5" d="M366.21,594.27c0,0.47,0.37,0.78,0.93,0.78c0.95,0,1.71-0.7,1.71-1.9v-0.14l-1.36,0.25
			C366.69,593.43,366.21,593.67,366.21,594.27z"/>
		<path class="st5" d="M58.52,446.67h-14.4v23.18h14.4c10.94,0,15.12-3.89,15.12-11.52S69.47,446.67,58.52,446.67z"/>
		<path class="st5" d="M527.76,18.61c0.56,0,0.97-0.52,0.97-1.34c0-0.8-0.41-1.32-0.97-1.32s-0.97,0.52-0.97,1.32
			C526.79,18.09,527.2,18.61,527.76,18.61z"/>
		<path class="st5" d="M527.51,25.37c1.55,0,2.68-0.31,2.68-0.87c0-0.39-0.29-0.54-0.84-0.54h-3.38c-0.37,0-0.62,0.21-0.62,0.56
			C525.35,25.18,526.27,25.37,527.51,25.37z"/>
		<path class="st5" d="M509.1,21.29c1.15,0,1.67-0.95,1.67-2.33c0-1.38-0.52-2.33-1.67-2.33c-1.17,0-1.67,0.95-1.67,2.33
			C507.43,20.34,507.93,21.29,509.1,21.29z"/>
		<path class="st5" d="M96.38,296.01c0-10.39-5.83-15.88-21.11-15.88h-20.1v31.56h20.1C90.54,311.69,96.38,306.4,96.38,296.01z"/>
		<polygon class="st5" points="436.14,588.03 436.05,588.03 434.57,591.86 437.62,591.86 		"/>
		<path class="st5" d="M226.86,115.39c-13.41,0-19.33,8.25-20.88,19.08h40.47C245.94,124.16,239.23,115.39,226.86,115.39z"/>
		<ellipse class="st5" cx="361.16" cy="146.07" rx="20.88" ry="29.13"/>
		<path class="st5" d="M337.45,498.79c0,3.31,2.59,5.47,6.48,5.47c6.62,0,11.95-4.9,11.95-13.25v-1.01l-9.5,1.73
			C340.76,492.89,337.45,494.62,337.45,498.79z"/>
		<path class="st5" d="M259.83,486.12c0,9.36,5.04,15.41,12.96,15.41c9.07,0,13.25-6.48,13.25-15.84c0-9.22-4.18-15.7-13.25-15.7
			c-7.92,0-12.96,6.05-12.96,15.26V486.12z"/>
		<path class="st5" d="M342.57,592.46c0,1.34,0.72,2.21,1.86,2.21c1.3,0,1.9-0.93,1.9-2.27c0-1.32-0.6-2.25-1.9-2.25
			c-1.13,0-1.86,0.87-1.86,2.19V592.46z"/>
		<path class="st5" d="M739.08,332.66c0-12.54-7.04-20.78-17.89-20.78c-12.87,0-18.5,8.82-18.5,21.36c0,12.74,5.63,21.56,18.5,21.56
			c10.86,0,17.89-8.23,17.89-20.97V332.66z"/>
		<path class="st5" d="M436.08,520.68h-23.62c-2.59,0-4.32,1.44-4.32,3.89c0,4.61,6.48,5.9,15.12,5.9c10.8,0,18.72-2.16,18.72-6.05
			C441.99,521.69,439.97,520.68,436.08,520.68z"/>
		<path class="st5" d="M425,483.24c3.89,0,6.77-3.6,6.77-9.36c0-5.62-2.88-9.22-6.77-9.22c-3.89,0-6.77,3.6-6.77,9.22
			C418.23,479.64,421.11,483.24,425,483.24z"/>
		<path class="st5" d="M331.05,594.27c0,0.47,0.37,0.78,0.93,0.78c0.95,0,1.71-0.7,1.71-1.9v-0.14l-1.36,0.25
			C331.53,593.43,331.05,593.67,331.05,594.27z"/>
		<path class="st5" d="M192.15,501.96c8.06,0,11.66-6.62,11.66-16.27c0-9.65-3.6-16.27-11.66-16.27c-8.21,0-11.66,6.62-11.66,16.27
			C180.49,495.34,183.94,501.96,192.15,501.96z"/>
		<path class="st5" d="M0,0v1224h792V0H0z M709.72,379.31c-26.54,0-39.8-20.19-39.8-46.06c0-25.68,13.27-46.06,39.8-46.06
			c14.88,0,25.13,7.06,29.35,17.44v-51.16h32.57v123.48h-32.57v-14.9C734.85,372.25,724.6,379.31,709.72,379.31z M649.92,519.53
			c-19.01,0-28.51-14.83-28.51-33.84c0-18.86,9.5-33.84,28.51-33.84c10.66,0,18,5.18,21.02,12.82v-37.58h23.33v90.72h-23.33v-10.94
			C667.92,514.34,660.58,519.53,649.92,519.53z M708.67,85.49c38.41,0,58.78,26.3,58.78,57.49v11.6h-80.69
			c1.03,14.18,11.34,20.88,23.98,20.88c11.34,0,18.56-3.87,22.43-12.89l33.51,3.09c-5.93,26.3-27.07,40.99-57.49,40.99
			c-36.87,0-63.16-22.17-63.16-58.78C646.02,111.53,672.83,85.49,708.67,85.49z M587.76,41.15h41.76v162.41h-41.76V41.15z
			 M614.64,287.19c29.95,0,45.84,19.99,45.84,43.71v8.82h-62.92c0.8,10.78,8.85,15.88,18.7,15.88c8.85,0,14.47-2.94,17.49-9.8
			l26.13,2.35c-4.62,19.99-21.11,31.16-44.83,31.16c-28.75,0-49.25-16.86-49.25-44.69C565.79,306.98,586.7,287.19,614.64,287.19z
			 M580.08,470.28c-7.92,0-11.09,6.34-11.09,15.98v31.54h-23.33v-64.22H569v9.65c3.46-7.06,11.09-11.38,20.74-11.38
			c17.57,0,23.18,12.24,23.18,25.63v40.32h-23.33v-34.13C589.59,474.89,587.14,470.28,580.08,470.28z M488.51,593.82l-1.36-0.21
			c-2.23-0.35-3.4-1.07-3.4-2.95c0-1.81,1.59-3.11,4.16-3.11c2.66,0,4.23,1.18,4.41,3.09l-2.74,0.08c-0.12-0.66-0.7-1.07-1.73-1.07
			c-0.64,0-1.01,0.25-1.01,0.66c0,0.31,0.25,0.47,0.56,0.52l1.79,0.31c2.06,0.33,3.26,1.26,3.26,3.05c0,1.94-1.65,3.05-4.27,3.05
			c-2.54,0-4.43-1.01-4.62-3.24l2.91-0.04c0.12,0.76,0.74,1.2,1.75,1.2c0.74,0,1.13-0.27,1.13-0.64
			C489.36,594.17,489.15,593.92,488.51,593.82z M486.77,519.24c-12.53,0-20.74-6.48-20.74-17.42c0-12.38,8.93-17.71,22.9-20.16
			l18-3.02v-1.01c0-5.33-2.45-8.5-8.06-8.5c-5.18,0-7.78,3.31-8.78,8.06l-21.6-1.44c2.02-14.11,12.53-23.9,31.82-23.9
			c16.99,0,29.52,7.34,29.52,25.2v21.89c0,3.31,1.44,4.75,3.89,4.75c1.87,0,3.31-0.29,5.18-1.01v12.38
			c-3.31,2.3-7.92,4.18-14.54,4.18c-7.92,0-14.11-4.03-16.27-11.38C504.34,515.35,497,519.24,486.77,519.24z M476.19,597.24
			c-2.51,0-3.28-1.73-3.28-3.65v-5.79h3.34v4.91c0,1.24,0.35,1.92,1.36,1.92c1.05,0,1.46-0.91,1.46-2.31v-4.51h3.34v9.19h-3.34
			v-1.38C478.58,596.64,477.57,597.24,476.19,597.24z M459.68,586.93v-2.93h3.38v2.93H459.68z M463.04,587.8v9.19h-3.34v-9.19
			H463.04z M423.12,542.57c-18.29,0-34.13-3.6-34.13-15.7c0-5.62,5.04-10.08,12.24-10.66c-5.76-1.87-9.22-7.06-9.22-12.53
			c0-6.19,4.03-10.94,10.94-13.54c-5.76-3.74-9.22-9.22-9.22-16.27c0-13.68,12.96-22.03,30.96-22.03c7.78,0,15.12,1.87,20.59,5.18
			c3.89-5.33,10.94-9.94,18-9.94v17.57c-2.74,0-6.19,0.29-9.36,1.01c1.3,2.45,2.02,5.18,2.02,8.21c0,13.54-13.1,21.89-31.25,21.89
			c-5.18,0-9.79-0.58-13.97-1.87c-0.86,0.72-1.3,1.73-1.3,3.02c0,2.16,1.58,3.89,5.47,3.89h26.64c14.54,0,21.89,7.63,21.89,18.43
			C463.44,535.22,444,542.57,423.12,542.57z M458.8,584.01l-4.99,12.99h-3.69l-4.99-12.99h3.67l3.22,8.64h0.08l3.22-8.64H458.8z
			 M443.33,596.99h-3.73l-0.97-2.51h-5.07l-0.97,2.51h-3.52l5.17-12.99h3.92L443.33,596.99z M422.96,593.82l-1.36-0.21
			c-2.23-0.35-3.4-1.07-3.4-2.95c0-1.81,1.59-3.11,4.16-3.11c2.66,0,4.23,1.18,4.41,3.09l-2.74,0.08c-0.12-0.66-0.7-1.07-1.73-1.07
			c-0.64,0-1.01,0.25-1.01,0.66c0,0.31,0.25,0.47,0.56,0.52l1.79,0.31c2.06,0.33,3.26,1.26,3.26,3.05c0,1.94-1.65,3.05-4.27,3.05
			c-2.54,0-4.43-1.01-4.62-3.24l2.91-0.04c0.12,0.76,0.74,1.2,1.75,1.2c0.74,0,1.13-0.27,1.13-0.64
			C423.8,594.17,423.6,593.92,422.96,593.82z M416.78,584.01v12.99h-3.5v-12.99H416.78z M405.11,590.19c-1.11,0-1.48,0.91-1.48,2.29
			v4.51h-3.34v-4.89c0-1.26-0.25-1.92-1.26-1.92c-1.09,0-1.48,0.91-1.48,2.29v4.51h-3.34v-9.19h3.34v1.38
			c0.5-1.01,1.48-1.63,2.87-1.63c1.63,0,2.47,0.74,2.87,1.81c0.49-1.03,1.59-1.81,3.13-1.81c2.54,0,3.28,1.75,3.28,3.67v5.77h-3.34
			v-4.89C406.34,590.85,406.12,590.19,405.11,590.19z M379.53,586.93v-2.93h3.38v2.93H379.53z M382.89,587.8v9.19h-3.34v-9.19
			H382.89z M373.3,519.24c-7.92,0-14.11-4.03-16.27-11.38c-3.74,7.49-11.09,11.38-21.31,11.38c-12.53,0-20.74-6.48-20.74-17.42
			c0-12.38,8.93-17.71,22.9-20.16l18-3.02v-1.01c0-5.33-2.45-8.5-8.06-8.5c-5.18,0-7.78,3.31-8.78,8.06l-21.6-1.44
			c2.02-14.11,12.53-23.9,31.82-23.9c16.99,0,29.52,7.34,29.52,25.2v21.89c0,3.31,1.44,4.75,3.89,4.75c1.87,0,3.31-0.29,5.18-1.01
			v12.38C384.54,517.37,379.93,519.24,373.3,519.24z M377.73,584.01v12.99h-3.34v-12.99H377.73z M367.7,590.03
			c-0.74,0-1.11,0.47-1.26,1.15l-3.09-0.21c0.29-2.02,1.79-3.42,4.56-3.42c2.43,0,4.23,1.05,4.23,3.61v3.13
			c0,0.47,0.21,0.68,0.56,0.68c0.27,0,0.47-0.04,0.74-0.14v1.77c-0.47,0.33-1.13,0.6-2.08,0.6c-1.13,0-2.02-0.58-2.33-1.63
			c-0.54,1.07-1.59,1.63-3.05,1.63c-1.79,0-2.97-0.93-2.97-2.49c0-1.77,1.28-2.54,3.28-2.89l2.58-0.43v-0.14
			C368.85,590.48,368.5,590.03,367.7,590.03z M355.25,590.11v-2.06l0.68-0.1c0.93-0.14,1.22-0.64,1.44-1.48l0.31-1.2h2.1v2.54h2.39
			v2.31h-2.39v3.36c0,0.78,0.37,1.09,1.05,1.09c0.41,0,0.87-0.08,1.42-0.31v2.16c-0.7,0.52-1.5,0.82-2.76,0.82
			c-1.55,0-3.01-0.64-3.01-2.8v-4.33H355.25z M350.98,586.93v-2.93h3.38v2.93H350.98z M354.34,587.8v9.19H351v-9.19H354.34z
			 M345.6,587.55c2.7,0,4.08,2.14,4.08,4.84c0,2.72-1.38,4.84-4.08,4.84c-1.55,0-2.58-0.74-3.03-1.81v4.87h-3.34V587.8h3.34v1.59
			C343.03,588.29,344.06,587.55,345.6,587.55z M332.54,590.03c-0.74,0-1.11,0.47-1.26,1.15l-3.09-0.21
			c0.29-2.02,1.79-3.42,4.56-3.42c2.43,0,4.23,1.05,4.23,3.61v3.13c0,0.47,0.21,0.68,0.56,0.68c0.27,0,0.47-0.04,0.74-0.14v1.77
			c-0.47,0.33-1.13,0.6-2.08,0.6c-1.13,0-2.02-0.58-2.33-1.63c-0.54,1.07-1.59,1.63-3.05,1.63c-1.79,0-2.97-0.93-2.97-2.49
			c0-1.77,1.28-2.54,3.28-2.89l2.58-0.43v-0.14C333.69,590.48,333.34,590.03,332.54,590.03z M320.73,594.13
			c2.02,0,2.8-1.34,3.01-2.78l3.36,0.14c-0.25,3.24-2.37,5.75-6.35,5.75c-3.79,0-6.66-2.74-6.66-6.74c0-4,2.87-6.74,6.66-6.74
			c3.98,0,6.1,2.54,6.35,5.77l-3.36,0.12c-0.21-1.44-0.99-2.78-3.01-2.78c-1.92,0-3.03,1.42-3.03,3.63
			C317.7,592.71,318.81,594.13,320.73,594.13z M310.64,591.51l-0.43,2.06h-2.04l-0.8,3.42h-2.49l0.8-3.42h-1.77l-0.8,3.42h-2.49
			l0.8-3.42h-1.81l0.43-2.06h1.88l0.5-2.02h-1.98l0.43-2.06h2.02l0.83-3.42h2.49l-0.83,3.42h1.77l0.82-3.42h2.49l-0.82,3.42h1.83
			l-0.43,2.06h-1.88l-0.5,2.02H310.64z M281,451.85c18.86,0,28.51,14.98,28.51,33.84c0,19.01-9.65,33.84-28.51,33.84
			c-10.8,0-18-5.18-21.17-12.67v33.98H236.5v-87.26h23.33v11.09C263,457.03,270.2,451.85,281,451.85z M308.67,327.56h-0.8
			l-13.07,49.39h-31.96l-28.35-87.42h32.37l16.08,49.59h0.8l13.07-49.59h25.93l13.07,49.59h0.8l16.08-49.59h29.35l-28.35,87.42
			h-31.96L308.67,327.56z M361.16,85.49c37.38,0,62.9,25.01,62.9,60.58c0,35.83-25.52,60.58-62.9,60.58
			c-37.64,0-62.9-24.75-62.9-60.58C298.26,110.5,323.52,85.49,361.16,85.49z M349.97,23.55v-9.19h3.34v9.19H349.97z M378.52,23.55
			v-9.19h3.34v9.19H378.52z M388.99,593.82l-1.36-0.21c-2.23-0.35-3.4-1.07-3.4-2.95c0-1.81,1.59-3.11,4.16-3.11
			c2.66,0,4.23,1.18,4.41,3.09l-2.74,0.08c-0.12-0.66-0.7-1.07-1.73-1.07c-0.64,0-1.01,0.25-1.01,0.66c0,0.31,0.25,0.47,0.56,0.52
			l1.79,0.31c2.06,0.33,3.26,1.26,3.26,3.05c0,1.94-1.65,3.05-4.27,3.05c-2.54,0-4.43-1.01-4.62-3.24l2.91-0.04
			c0.12,0.76,0.74,1.2,1.75,1.2c0.74,0,1.13-0.27,1.13-0.64C389.83,594.17,389.63,593.92,388.99,593.82z M433.91,379.31
			c-28.75,0-49.25-16.86-49.25-44.69c0-27.64,20.91-47.43,48.85-47.43c29.95,0,45.84,19.99,45.84,43.71v8.82h-62.92
			c0.8,10.78,8.85,15.88,18.7,15.88c8.85,0,14.47-2.94,17.49-9.8l26.13,2.35C474.12,368.14,457.63,379.31,433.91,379.31z
			 M464.85,587.8h3.34v1.63c0.33-1.03,1.3-1.88,2.52-1.88c0.56,0,1.05,0.17,1.28,0.35l-0.21,3.15c-0.45-0.27-0.95-0.39-1.59-0.39
			c-1.24,0-2,0.58-2,2.12v4.21h-3.34V587.8z M525.18,336.97v39.98h-32.57v-87.42h32.57v15.48c3.22-9.8,12.67-17.84,24.53-17.84
			c5.43,0,10.25,1.57,12.46,3.33l-2.01,29.99c-4.42-2.55-9.25-3.72-15.48-3.72C532.62,316.78,525.18,322.27,525.18,336.97z
			 M571.26,146.07c0,34.03-17.27,60.58-51.04,60.58c-19.33,0-32.22-9.28-37.9-22.69v60.84h-41.76V88.58h41.76v19.85
			c5.67-13.66,18.56-22.94,37.9-22.94C553.99,85.49,571.26,112.3,571.26,146.07z M462.05,23.55v-9.19h3.34v9.19H462.05z
			 M523.04,21.53c0-0.89,0.58-1.57,1.57-1.94c-0.82-0.54-1.32-1.32-1.32-2.33c0-1.96,1.86-3.15,4.43-3.15
			c1.11,0,2.16,0.27,2.95,0.74c0.56-0.76,1.57-1.42,2.58-1.42v2.51c-0.39,0-0.89,0.04-1.34,0.14c0.19,0.35,0.29,0.74,0.29,1.17
			c0,1.94-1.88,3.13-4.47,3.13c-0.74,0-1.4-0.08-2-0.27c-0.12,0.1-0.19,0.25-0.19,0.43c0,0.31,0.23,0.56,0.78,0.56h3.81
			c2.08,0,3.13,1.09,3.13,2.64c0,2.29-2.78,3.34-5.77,3.34c-2.62,0-4.89-0.52-4.89-2.25c0-0.8,0.72-1.44,1.75-1.53
			C523.53,23.06,523.04,22.32,523.04,21.53z M515.45,14.36h3.34v1.63c0.33-1.03,1.3-1.88,2.52-1.88c0.56,0,1.05,0.16,1.28,0.35
			l-0.21,3.15c-0.45-0.27-0.95-0.39-1.59-0.39c-1.24,0-2,0.58-2,2.12v4.21h-3.34V14.36z M509.1,14.11c2.99,0,5.03,2,5.03,4.84
			c0,2.87-2.04,4.84-5.03,4.84c-3.01,0-5.03-1.98-5.03-4.84C504.07,16.11,506.09,14.11,509.1,14.11z M497.64,20.01h3.55v3.55h-3.55
			V20.01z M490.87,20.38l-1.36-0.21c-2.23-0.35-3.4-1.07-3.4-2.95c0-1.81,1.59-3.11,4.16-3.11c2.66,0,4.23,1.18,4.41,3.09
			l-2.74,0.08c-0.12-0.66-0.7-1.07-1.73-1.07c-0.64,0-1.01,0.25-1.01,0.66c0,0.31,0.25,0.47,0.56,0.52l1.79,0.31
			c2.06,0.33,3.26,1.26,3.26,3.05c0,1.94-1.65,3.05-4.27,3.05c-2.54,0-4.43-1.01-4.62-3.24l2.91-0.04c0.12,0.76,0.74,1.2,1.75,1.2
			c0.74,0,1.13-0.27,1.13-0.64C491.71,20.73,491.5,20.48,490.87,20.38z M475.26,14.36h3.34v4.91c0,1.24,0.35,1.92,1.36,1.92
			c1.05,0,1.46-0.91,1.46-2.31v-4.51h3.34v9.19h-3.34v-1.38c-0.5,1.03-1.5,1.63-2.89,1.63c-2.52,0-3.28-1.73-3.28-3.65V14.36z
			 M467.2,14.36h3.34v1.63c0.33-1.03,1.3-1.88,2.51-1.88c0.56,0,1.05,0.16,1.28,0.35l-0.21,3.15c-0.45-0.27-0.95-0.39-1.59-0.39
			c-1.24,0-2,0.58-2,2.12v4.21h-3.34V14.36z M462.03,10.57h3.38v2.93h-3.38V10.57z M451.15,10.57l3.22,8.64h0.08l3.22-8.64h3.48
			l-4.99,12.99h-3.69l-4.99-12.99H451.15z M436.54,10.57h3.92l5.17,12.99h-3.73l-0.97-2.52h-5.07l-0.97,2.52h-3.52L436.54,10.57z
			 M423.59,20.38l-1.36-0.21c-2.23-0.35-3.4-1.07-3.4-2.95c0-1.81,1.59-3.11,4.16-3.11c2.66,0,4.23,1.18,4.41,3.09l-2.74,0.08
			c-0.12-0.66-0.7-1.07-1.73-1.07c-0.64,0-1.01,0.25-1.01,0.66c0,0.31,0.25,0.47,0.56,0.52l1.79,0.31c2.06,0.33,3.26,1.26,3.26,3.05
			c0,1.94-1.65,3.05-4.27,3.05c-2.54,0-4.43-1.01-4.62-3.24l2.91-0.04c0.12,0.76,0.74,1.2,1.75,1.2c0.74,0,1.13-0.27,1.13-0.64
			C424.44,20.73,424.23,20.48,423.59,20.38z M413.91,10.57h3.5v12.99h-3.5V10.57z M393.17,14.36h3.34v1.38
			c0.5-1.01,1.48-1.63,2.87-1.63c1.63,0,2.47,0.74,2.87,1.81c0.49-1.03,1.59-1.81,3.13-1.81c2.54,0,3.28,1.75,3.28,3.67v5.77h-3.34
			v-4.89c0-1.26-0.23-1.92-1.24-1.92c-1.11,0-1.48,0.91-1.48,2.29v4.51h-3.34v-4.89c0-1.26-0.25-1.92-1.26-1.92
			c-1.09,0-1.48,0.91-1.48,2.29v4.51h-3.34V14.36z M387.96,20.38l-1.36-0.21c-2.23-0.35-3.4-1.07-3.4-2.95
			c0-1.81,1.59-3.11,4.16-3.11c2.66,0,4.23,1.18,4.41,3.09l-2.74,0.08c-0.12-0.66-0.7-1.07-1.73-1.07c-0.64,0-1.01,0.25-1.01,0.66
			c0,0.31,0.25,0.47,0.56,0.52l1.79,0.31c2.06,0.33,3.26,1.26,3.26,3.05c0,1.94-1.65,3.05-4.27,3.05c-2.54,0-4.43-1.01-4.62-3.24
			l2.91-0.04c0.12,0.76,0.74,1.2,1.75,1.2c0.74,0,1.13-0.27,1.13-0.64C388.8,20.73,388.6,20.48,387.96,20.38z M378.5,10.57h3.38
			v2.93h-3.38V10.57z M373.37,10.57h3.34v12.99h-3.34V10.57z M366.67,16.59c-0.74,0-1.11,0.47-1.26,1.15l-3.09-0.21
			c0.29-2.02,1.79-3.42,4.56-3.42c2.43,0,4.23,1.05,4.23,3.61v3.13c0,0.47,0.21,0.68,0.56,0.68c0.27,0,0.47-0.04,0.74-0.14v1.77
			c-0.47,0.33-1.13,0.6-2.08,0.6c-1.13,0-2.02-0.58-2.33-1.63c-0.54,1.07-1.59,1.63-3.05,1.63c-1.79,0-2.97-0.93-2.97-2.49
			c0-1.77,1.28-2.54,3.28-2.89l2.58-0.43V17.8C367.82,17.04,367.47,16.59,366.67,16.59z M354.22,14.61l0.68-0.1
			c0.93-0.14,1.22-0.64,1.44-1.48l0.31-1.2h2.1v2.54h2.39v2.31h-2.39v3.36c0,0.78,0.37,1.09,1.05,1.09c0.41,0,0.87-0.08,1.42-0.31
			v2.16c-0.7,0.52-1.5,0.82-2.76,0.82c-1.55,0-3.01-0.64-3.01-2.8v-4.33h-1.24V14.61z M349.95,10.57h3.38v2.93h-3.38V10.57z
			 M338.2,14.36h3.34v1.59c0.45-1.09,1.48-1.83,3.03-1.83c2.7,0,4.08,2.14,4.08,4.84c0,2.72-1.38,4.84-4.08,4.84
			c-1.55,0-2.58-0.74-3.03-1.81v4.87h-3.34V14.36z M331.51,16.59c-0.74,0-1.11,0.47-1.26,1.15l-3.09-0.21
			c0.29-2.02,1.79-3.42,4.56-3.42c2.43,0,4.23,1.05,4.23,3.61v3.13c0,0.47,0.21,0.68,0.56,0.68c0.27,0,0.47-0.04,0.74-0.14v1.77
			c-0.47,0.33-1.13,0.6-2.08,0.6c-1.13,0-2.02-0.58-2.33-1.63c-0.54,1.07-1.59,1.63-3.05,1.63c-1.79,0-2.97-0.93-2.97-2.49
			c0-1.77,1.28-2.54,3.28-2.89l2.58-0.43V17.8C332.66,17.04,332.31,16.59,331.51,16.59z M319.72,10.32c3.98,0,6.1,2.54,6.35,5.77
			l-3.36,0.12c-0.21-1.44-0.99-2.78-3.01-2.78c-1.92,0-3.03,1.42-3.03,3.63s1.11,3.63,3.03,3.63c2.02,0,2.8-1.34,3.01-2.78
			l3.36,0.14c-0.25,3.24-2.37,5.75-6.35,5.75c-3.79,0-6.66-2.74-6.66-6.74S315.92,10.32,319.72,10.32z M306.63,20.01h3.55v3.55
			h-3.55V20.01z M262.3,14.36l1.65,5.22h0.08l1.34-5.22h2.66l1.34,5.22h0.08l1.65-5.22h2.92h0.09h3.23l1.65,5.22h0.08l1.34-5.22
			h2.66l1.34,5.22h0.08l1.65-5.22h2.92h0.08h3.23l1.65,5.22h0.08l1.34-5.22h2.66l1.34,5.22h0.08l1.65-5.22h3.01l-2.91,9.19h-3.28
			l-1.34-5.19h-0.08l-1.34,5.19h-3.28l-2.86-9.06l-2.86,9.06h-3.28l-1.34-5.19h-0.08l-1.34,5.19h-3.28l-2.86-9.06l-2.86,9.06h-3.28
			l-1.34-5.19h-0.08l-1.34,5.19h-3.28l-2.91-9.19H262.3z M227.37,85.49c38.41,0,58.78,26.3,58.78,57.49v11.6h-80.69
			c1.03,14.18,11.34,20.88,23.98,20.88c11.34,0,18.56-3.87,22.43-12.89l33.51,3.09c-5.93,26.3-27.07,40.99-57.49,40.99
			c-36.87,0-63.16-22.17-63.16-58.78C164.73,111.53,191.54,85.49,227.37,85.49z M137.27,1173.1c0.56,0,1.05,0.16,1.28,0.35
			l-0.21,3.15c-0.45-0.27-0.95-0.39-1.59-0.39c-1.24,0-2,0.58-2,2.12v4.21h-3.34v-9.19h3.34v1.63
			C135.09,1173.95,136.06,1173.1,137.27,1173.1z M127.93,488.42v29.38H104.6v-64.22h23.33v11.38c2.3-7.2,9.07-13.1,17.57-13.1
			c3.89,0,7.34,1.15,8.93,2.45l-1.44,22.03c-3.17-1.87-6.62-2.74-11.09-2.74C133.26,473.59,127.93,477.62,127.93,488.42z
			 M126.24,1172.48v-2.93h3.38v2.93H126.24z M129.6,1173.35v9.19h-3.34v-9.19H129.6z M118.23,1182.79c-2.52,0-3.28-1.73-3.28-3.65
			v-5.79h3.34v4.91c0,1.24,0.35,1.92,1.36,1.92c1.05,0,1.46-0.91,1.46-2.31v-4.51h3.34v9.19h-3.34v-1.38
			C120.62,1182.19,119.61,1182.79,118.23,1182.79z M106.89,1182.79c-2.72,0-4.08-2.12-4.08-4.84c0-2.7,1.36-4.84,4.08-4.84
			c1.53,0,2.58,0.74,3.01,1.83v-1.59h3.34v12.49h-3.34v-4.86C109.47,1182.05,108.42,1182.79,106.89,1182.79z M157.86,1175.57
			c-0.74,0-1.11,0.47-1.26,1.15l-3.09-0.21c0.29-2.02,1.79-3.42,4.56-3.42c2.43,0,4.23,1.05,4.23,3.61v3.13
			c0,0.47,0.21,0.68,0.56,0.68c0.27,0,0.47-0.04,0.74-0.14v1.77c-0.47,0.33-1.13,0.6-2.08,0.6c-1.13,0-2.02-0.58-2.33-1.63
			c-0.54,1.07-1.59,1.63-3.05,1.63c-1.79,0-2.97-0.93-2.97-2.49c0-1.77,1.28-2.54,3.28-2.89l2.58-0.43v-0.14
			C159.02,1176.03,158.67,1175.57,157.86,1175.57z M157.02,485.69c0-19.87,14.11-33.84,35.14-33.84c20.88,0,35.13,13.97,35.13,33.84
			c0,20.02-14.26,33.84-35.13,33.84C171.13,519.53,157.02,505.7,157.02,485.69z M181.81,379.31c-29.35,0-49.05-18.82-49.05-46.06
			c0-27.05,19.7-46.06,49.05-46.06c29.15,0,49.05,19.01,49.05,46.06C230.87,360.49,210.96,379.31,181.81,379.31z M21.66,41.15h71.41
			c42.54,0,67.29,19.85,67.29,55.68c0,36.09-24.75,55.94-67.29,55.94H65.22v50.79H21.66V41.15z M21.19,253.48h55.69
			c33.17,0,52.47,15.09,52.47,42.34c0,27.44-19.3,42.53-52.47,42.53H55.16v38.61H21.19V253.48z M97.43,1180.28
			c0.97,0,1.53-0.56,1.75-1.69l2.74,0.21c-0.23,2.23-1.77,4-4.54,4c-2.91,0-5.03-1.92-5.03-4.84c0-2.91,2.12-4.84,5.03-4.84
			c2.76,0,4.31,1.79,4.54,4l-2.74,0.19c-0.23-1.13-0.78-1.67-1.75-1.67c-1.01,0-1.71,0.68-1.71,2.33S96.42,1180.28,97.43,1180.28z
			 M19.25,671.68c0,0.39,0.04,0.89,0.14,1.34c0.35-0.19,0.74-0.29,1.18-0.29c1.94,0,3.13,1.88,3.13,4.47c0,0.74-0.08,1.4-0.27,2
			c0.1,0.12,0.25,0.19,0.43,0.19c0.31,0,0.56-0.23,0.56-0.78v-3.81c0-2.08,1.09-3.13,2.64-3.13c2.29,0,3.34,2.78,3.34,5.77
			c0,2.62-0.52,4.89-2.25,4.89c-0.8,0-1.44-0.72-1.53-1.75c-0.27,0.82-1.01,1.32-1.79,1.32c-0.89,0-1.57-0.58-1.94-1.57
			c-0.54,0.82-1.32,1.32-2.33,1.32c-1.96,0-3.15-1.86-3.15-4.43c0-1.11,0.27-2.16,0.74-2.95c-0.76-0.56-1.42-1.57-1.42-2.58H19.25z
			 M27.07,875.15c0,1.79-0.93,2.97-2.49,2.97c-1.77,0-2.54-1.28-2.89-3.28l-0.43-2.58h-0.14c-0.76,0-1.22,0.35-1.22,1.15
			c0,0.74,0.47,1.11,1.15,1.26l-0.21,3.09c-2.02-0.29-3.42-1.79-3.42-4.56c0-2.43,1.05-4.23,3.61-4.23h3.13
			c0.47,0,0.68-0.21,0.68-0.56c0-0.27-0.04-0.47-0.14-0.74h1.77c0.33,0.47,0.6,1.13,0.6,2.08c0,1.13-0.58,2.02-1.63,2.33
			C26.51,872.63,27.07,873.69,27.07,875.15z M24.7,832.53h1.77c0.33,0.47,0.6,1.13,0.6,2.08c0,1.13-0.58,2.02-1.63,2.33
			c1.07,0.54,1.63,1.59,1.63,3.05c0,1.79-0.93,2.97-2.49,2.97c-1.77,0-2.54-1.28-2.89-3.28l-0.43-2.58h-0.14
			c-0.76,0-1.22,0.35-1.22,1.15c0,0.74,0.47,1.11,1.15,1.26l-0.21,3.09c-2.02-0.29-3.42-1.79-3.42-4.56c0-2.43,1.05-4.23,3.61-4.23
			h3.13c0.47,0,0.68-0.21,0.68-0.56C24.84,833,24.8,832.79,24.7,832.53z M17.42,799.55c0-2.54,1.75-3.28,3.67-3.28h5.77v3.34h-4.89
			c-1.26,0-1.92,0.23-1.92,1.24c0,1.11,0.91,1.48,2.29,1.48h4.51v3.34h-4.89c-1.26,0-1.92,0.25-1.92,1.26
			c0,1.09,0.91,1.48,2.29,1.48h4.51v3.34h-9.19v-3.34h1.38c-1.01-0.49-1.63-1.48-1.63-2.87c0-1.63,0.74-2.47,1.81-2.87
			C18.2,802.19,17.42,801.1,17.42,799.55z M20.51,813.15l0.08,2.74c-0.66,0.12-1.07,0.7-1.07,1.73c0,0.64,0.25,1.01,0.66,1.01
			c0.31,0,0.47-0.25,0.52-0.56l0.31-1.79c0.33-2.06,1.26-3.26,3.05-3.26c1.94,0,3.05,1.65,3.05,4.27c0,2.54-1.01,4.43-3.24,4.62
			l-0.04-2.91c0.76-0.12,1.2-0.74,1.2-1.75c0-0.74-0.27-1.13-0.64-1.13c-0.35,0-0.6,0.21-0.7,0.85l-0.21,1.36
			c-0.35,2.23-1.07,3.4-2.95,3.4c-1.81,0-3.11-1.59-3.11-4.16C17.42,814.91,18.59,813.34,20.51,813.15z M24.39,780.49
			c-0.35,0-0.6,0.21-0.7,0.85l-0.21,1.36c-0.35,2.23-1.07,3.4-2.95,3.4c-1.81,0-3.11-1.59-3.11-4.16c0-2.66,1.17-4.23,3.09-4.41
			l0.08,2.74c-0.66,0.12-1.07,0.7-1.07,1.73c0,0.64,0.25,1.01,0.66,1.01c0.31,0,0.47-0.25,0.52-0.56l0.31-1.79
			c0.33-2.06,1.26-3.26,3.05-3.26c1.94,0,3.05,1.65,3.05,4.27c0,2.54-1.01,4.43-3.24,4.62l-0.04-2.91c0.76-0.12,1.2-0.74,1.2-1.75
			C25.03,780.88,24.76,780.49,24.39,780.49z M22.66,686.13h4.21v3.34h-9.19v-3.34h1.63c-1.03-0.33-1.88-1.3-1.88-2.52
			c0-0.56,0.17-1.05,0.35-1.28l3.15,0.21c-0.27,0.45-0.39,0.95-0.39,1.59C20.53,685.37,21.11,686.13,22.66,686.13z M22.26,690.79
			c2.87,0,4.84,2.04,4.84,5.03c0,3.01-1.98,5.03-4.84,5.03c-2.84,0-4.84-2.02-4.84-5.03C17.42,692.83,19.42,690.79,22.26,690.79z
			 M26.86,703.73v3.55h-3.55v-3.55H26.86z M20.51,710.25l0.08,2.74c-0.66,0.12-1.07,0.7-1.07,1.73c0,0.64,0.25,1.01,0.66,1.01
			c0.31,0,0.47-0.25,0.52-0.56l0.31-1.79c0.33-2.06,1.26-3.26,3.05-3.26c1.94,0,3.05,1.65,3.05,4.27c0,2.54-1.01,4.43-3.24,4.62
			l-0.04-2.91c0.76-0.12,1.2-0.74,1.2-1.75c0-0.74-0.27-1.13-0.64-1.13c-0.35,0-0.6,0.21-0.7,0.85l-0.21,1.36
			c-0.35,2.23-1.07,3.4-2.95,3.4c-1.81,0-3.11-1.59-3.11-4.16C17.42,712,18.59,710.43,20.51,710.25z M22.18,723.5h-4.51v-3.34h9.19
			v3.34h-1.38c1.03,0.49,1.63,1.5,1.63,2.89c0,2.52-1.73,3.28-3.65,3.28h-5.79v-3.34h4.91c1.24,0,1.92-0.35,1.92-1.36
			C24.49,723.91,23.58,723.5,22.18,723.5z M17.77,730.59l3.15,0.21c-0.27,0.45-0.39,0.95-0.39,1.59c0,1.24,0.58,2,2.12,2h4.21v3.34
			h-9.19v-3.34h1.63c-1.03-0.33-1.88-1.3-1.88-2.52C17.42,731.31,17.58,730.82,17.77,730.59z M17.67,739.53h9.19v3.34h-9.19V739.53z
			 M17.67,823.07h9.19v3.34h-9.19V823.07z M17.67,846.17v-2.39h2.31v2.39h3.36c0.78,0,1.09-0.37,1.09-1.05
			c0-0.41-0.08-0.87-0.31-1.42h2.17c0.52,0.7,0.82,1.5,0.82,2.76c0,1.55-0.64,3.01-2.8,3.01h-4.33v1.24h-2.06l-0.1-0.68
			c-0.14-0.93-0.64-1.22-1.48-1.44l-1.2-0.31v-2.1H17.67z M26.86,851.61v3.34h-9.19v-3.34H26.86z M17.67,866.72v-3.34h1.59
			c-1.09-0.45-1.83-1.48-1.83-3.03c0-2.7,2.14-4.08,4.84-4.08c2.72,0,4.84,1.38,4.84,4.08c0,1.55-0.74,2.58-1.81,3.03h4.87v3.34
			H17.67z M13.87,739.51h2.93v3.38h-2.93V739.51z M13.87,753.78l8.64-3.22v-0.08l-8.64-3.22v-3.48l12.99,4.99v3.69l-12.99,4.99
			V753.78z M13.87,764.47l12.99-5.17v3.73L24.35,764v5.07l2.51,0.97v3.52l-12.99-5.17V764.47z M13.87,787.51h12.99v3.5H13.87V787.51
			z M13.87,823.05h2.93v3.38h-2.93V823.05z M13.87,828.22h12.99v3.34H13.87V828.22z M13.87,851.59h2.93v3.38h-2.93V851.59z
			 M13.63,885.21c0-3.98,2.54-6.1,5.77-6.35l0.12,3.36c-1.44,0.21-2.78,0.99-2.78,3.01c0,1.92,1.42,3.03,3.63,3.03
			c2.21,0,3.63-1.11,3.63-3.03c0-2.02-1.34-2.8-2.78-3.01l0.14-3.36c3.24,0.25,5.75,2.37,5.75,6.35c0,3.79-2.74,6.66-6.74,6.66
			C16.37,891.87,13.63,889,13.63,885.21z M26.86,909.67v3.28l-9.06,2.86l9.06,2.86v3.28l-5.2,1.34v0.08l5.2,1.34v3.28l-9.06,2.86
			l9.06,2.86V937l-5.2,1.34v0.08l5.2,1.34v3.28l-9.19,2.91v-3.32l5.22-1.65v-0.08l-5.22-1.34v-2.66l5.22-1.34v-0.08l-5.22-1.65
			v-2.92v-0.09v-3.23l5.22-1.65v-0.08l-5.22-1.34v-2.66l5.22-1.34v-0.08l-5.22-1.65v-2.92v-0.09v-3.23l5.22-1.65v-0.08l-5.22-1.34
			v-2.66l5.22-1.34v-0.08l-5.22-1.65v-3.01l9.19,2.91v3.28l-5.2,1.34v0.08L26.86,909.67z M23.32,898.3v-3.55h3.55v3.55H23.32z
			 M22.72,1205.33c-3.52,0-6.04-1.71-6.04-4.84l3.22-0.1c0.12,1.63,1.38,2.19,2.82,2.19c1.22,0,2-0.43,2-1.15
			c0-0.76-0.76-0.89-1.75-1.07l-2.37-0.41c-2.12-0.39-3.61-1.59-3.61-3.85c0-2.64,2.06-4.23,5.3-4.23c3.59,0,5.52,1.75,5.59,4.64
			l-3.22,0.06c-0.1-1.34-1.07-1.96-2.41-1.96c-1.15,0-1.81,0.45-1.81,1.18c0,0.6,0.5,0.82,1.3,0.97l2.45,0.43
			c2.72,0.47,3.96,1.9,3.96,4.02C28.14,1203.94,25.75,1205.33,22.72,1205.33z M22.72,1182.79c-3.52,0-6.04-1.71-6.04-4.84l3.22-0.1
			c0.12,1.63,1.38,2.19,2.82,2.19c1.22,0,2-0.43,2-1.15c0-0.76-0.76-0.89-1.75-1.07l-2.37-0.41c-2.12-0.39-3.61-1.59-3.61-3.85
			c0-2.64,2.06-4.23,5.3-4.23c3.59,0,5.52,1.75,5.59,4.64l-3.22,0.06c-0.1-1.34-1.07-1.96-2.41-1.96c-1.15,0-1.81,0.45-1.81,1.18
			c0,0.6,0.5,0.82,1.3,0.97l2.45,0.43c2.72,0.47,3.96,1.9,3.96,4.02C28.14,1181.41,25.75,1182.79,22.72,1182.79z M35.77,1204.5
			c-0.7,0.52-1.5,0.82-2.76,0.82c-1.55,0-3.01-0.64-3.01-2.8v-4.33h-1.24v-2.06l0.68-0.1c0.93-0.14,1.22-0.64,1.44-1.48l0.31-1.2
			h2.1v2.54h2.39v2.31h-2.39v3.36c0,0.78,0.37,1.09,1.05,1.09c0.41,0,0.87-0.08,1.42-0.31V1204.5z M35.77,1181.97
			c-0.7,0.52-1.5,0.82-2.76,0.82c-1.55,0-3.01-0.64-3.01-2.8v-4.33h-1.24v-2.06l0.68-0.1c0.93-0.14,1.22-0.64,1.44-1.48l0.31-1.2
			h2.1v2.54h2.39v2.31h-2.39v3.36c0,0.78,0.37,1.09,1.05,1.09c0.41,0,0.87-0.08,1.42-0.31V1181.97z M46.26,1201.16h-6.45
			c0.08,1.13,0.91,1.67,1.92,1.67c0.91,0,1.48-0.31,1.79-1.03l2.68,0.25c-0.47,2.1-2.16,3.28-4.6,3.28c-2.95,0-5.05-1.77-5.05-4.7
			c0-2.91,2.14-4.99,5.01-4.99c3.07,0,4.7,2.1,4.7,4.6V1201.16z M46.26,1178.63h-6.45c0.08,1.13,0.91,1.67,1.92,1.67
			c0.91,0,1.48-0.31,1.79-1.03l2.68,0.25c-0.47,2.1-2.16,3.28-4.6,3.28c-2.95,0-5.05-1.77-5.05-4.7c0-2.91,2.14-4.99,5.01-4.99
			c3.07,0,4.7,2.1,4.7,4.6V1178.63z M53.99,1205.33c-1.55,0-2.58-0.74-3.03-1.81v4.86h-3.34v-12.49h3.34v1.59
			c0.45-1.09,1.48-1.83,3.03-1.83c2.7,0,4.08,2.14,4.08,4.84C58.07,1203.2,56.69,1205.33,53.99,1205.33z M53.99,1182.79
			c-1.55,0-2.58-0.74-3.03-1.81v4.86h-3.34v-12.49h3.34v1.59c0.45-1.09,1.48-1.83,3.03-1.83c2.7,0,4.08,2.14,4.08,4.84
			C58.07,1180.67,56.69,1182.79,53.99,1182.79z M44.12,489.43v28.37H19.79v-90.72h39.89c23.76,0,37.58,11.09,37.58,31.1
			c0,20.16-13.82,31.25-37.58,31.25H44.12z M62.41,1171.53c1.81,0,2.72-0.62,3.2-1.98h2.74v12.99h-3.5v-8.7h-2.43V1171.53z
			 M72.74,1205.08H62.68v-2.51l3.59-2.82c1.98-1.59,2.64-2.27,2.64-3.5c0-0.8-0.37-1.42-1.4-1.42c-1.07,0-1.48,0.82-1.48,1.88
			c0,0.49,0.06,0.8,0.14,1.07l-3.42-0.1c-0.08-0.41-0.17-0.82-0.17-1.22c0-2.78,2.06-4.6,5.05-4.6c3.15,0,4.95,1.77,4.95,4.18
			c0,2.25-1.15,3.3-3.24,4.91l-1.61,1.24h5.01V1205.08z M73.57,1182.54h-3.55V1179h3.55V1182.54z M77.5,1205.08h-3.55v-3.55h3.55
			V1205.08z M77.89,1182.54l5.17-12.99h3.92l5.17,12.99h-3.73l-0.97-2.51h-5.07l-0.97,2.51H77.89z M120.83,1205.08l-1.34-5.19h-0.08
			l-1.34,5.19h-3.28l-2.86-9.06l-2.86,9.06h-3.28l-1.34-5.19h-0.08l-1.34,5.19h-3.28l-2.86-9.06l-2.86,9.06h-3.28l-1.34-5.19h-0.08
			l-1.34,5.19h-3.28l-2.91-9.19h3.32l1.65,5.22h0.08l1.34-5.22h2.66l1.34,5.22h0.08l1.65-5.22h2.92h0.09h3.23l1.65,5.22h0.08
			l1.34-5.22h2.66l1.34,5.22h0.08l1.65-5.22h2.92h0.08h3.23l1.65,5.22h0.08l1.34-5.22h2.66l1.34,5.22h0.08l1.65-5.22h3.01
			l-2.91,9.19H120.83z M130.41,1205.08h-3.55v-3.55h3.55V1205.08z M137.56,1202.21c2.02,0,2.8-1.34,3.01-2.78l3.36,0.14
			c-0.25,3.24-2.37,5.75-6.35,5.75c-3.79,0-6.66-2.74-6.66-6.74s2.87-6.74,6.66-6.74c3.98,0,6.1,2.54,6.35,5.77l-3.36,0.12
			c-0.21-1.44-0.99-2.78-3.01-2.78c-1.92,0-3.03,1.42-3.03,3.63S135.64,1202.21,137.56,1202.21z M138.92,1178.09
			c0-2.91,2.14-4.99,5.01-4.99c3.07,0,4.7,2.1,4.7,4.6v0.93h-6.45c0.08,1.13,0.91,1.67,1.92,1.67c0.91,0,1.48-0.31,1.79-1.03
			l2.68,0.25c-0.47,2.1-2.16,3.28-4.6,3.28C141.02,1182.79,138.92,1181.02,138.92,1178.09z M155.1,1204.69
			c-0.47,0.33-1.13,0.6-2.08,0.6c-1.13,0-2.02-0.58-2.33-1.63c-0.54,1.07-1.59,1.63-3.05,1.63c-1.79,0-2.97-0.93-2.97-2.49
			c0-1.77,1.28-2.54,3.28-2.89l2.58-0.43v-0.14c0-0.76-0.35-1.22-1.15-1.22c-0.74,0-1.11,0.47-1.26,1.15l-3.09-0.21
			c0.29-2.02,1.79-3.42,4.56-3.42c2.43,0,4.23,1.05,4.23,3.61v3.13c0,0.47,0.21,0.68,0.56,0.68c0.27,0,0.47-0.04,0.74-0.14V1204.69z
			 M162.44,1205.33c-1.55,0-2.58-0.74-3.03-1.81v4.86h-3.34v-12.49h3.34v1.59c0.45-1.09,1.48-1.83,3.03-1.83
			c2.7,0,4.08,2.14,4.08,4.84C166.52,1203.2,165.14,1205.33,162.44,1205.33z M172.56,1179.37l-1.36-0.21
			c-2.23-0.35-3.4-1.07-3.4-2.95c0-1.81,1.59-3.11,4.16-3.11c2.66,0,4.23,1.18,4.41,3.09l-2.74,0.08c-0.12-0.66-0.7-1.07-1.73-1.07
			c-0.64,0-1.01,0.25-1.01,0.66c0,0.31,0.25,0.47,0.56,0.52l1.79,0.31c2.06,0.33,3.26,1.26,3.26,3.05c0,1.94-1.65,3.05-4.27,3.05
			c-2.54,0-4.43-1.01-4.62-3.24l2.91-0.04c0.12,0.76,0.74,1.2,1.75,1.2c0.74,0,1.13-0.27,1.13-0.64
			C173.4,1179.72,173.2,1179.47,172.56,1179.37z M171.18,1205.08h-3.34v-9.19h3.34V1205.08z M171.2,1195.02h-3.38v-2.93h3.38
			V1195.02z M179.09,1204.5c-0.7,0.52-1.5,0.82-2.76,0.82c-1.55,0-3.01-0.64-3.01-2.8v-4.33h-1.24v-2.06l0.68-0.1
			c0.93-0.14,1.22-0.64,1.44-1.48l0.31-1.2h2.1v2.54h2.39v2.31h-2.39v3.36c0,0.78,0.37,1.09,1.05,1.09c0.41,0,0.87-0.08,1.42-0.31
			V1204.5z M183.79,1173.35v2.31h-2.39v3.36c0,0.78,0.37,1.09,1.05,1.09c0.41,0,0.87-0.08,1.42-0.31v2.16
			c-0.7,0.52-1.5,0.82-2.76,0.82c-1.55,0-3.01-0.64-3.01-2.8v-4.33h-1.24v-2.06l0.68-0.1c0.93-0.14,1.22-0.64,1.44-1.48l0.31-1.2
			h2.1v2.54H183.79z M190.26,1204.69c-0.47,0.33-1.13,0.6-2.08,0.6c-1.13,0-2.02-0.58-2.33-1.63c-0.54,1.07-1.59,1.63-3.05,1.63
			c-1.79,0-2.97-0.93-2.97-2.49c0-1.77,1.28-2.54,3.28-2.89l2.58-0.43v-0.14c0-0.76-0.35-1.22-1.15-1.22
			c-0.74,0-1.11,0.47-1.26,1.15l-3.09-0.21c0.29-2.02,1.79-3.42,4.56-3.42c2.43,0,4.23,1.05,4.23,3.61v3.13
			c0,0.47,0.21,0.68,0.56,0.68c0.27,0,0.47-0.04,0.74-0.14V1204.69z M194.57,1205.08h-3.34v-12.99h3.34V1205.08z M195.04,1182.15
			c-0.47,0.33-1.13,0.6-2.08,0.6c-1.13,0-2.02-0.58-2.33-1.63c-0.54,1.07-1.59,1.63-3.05,1.63c-1.79,0-2.97-0.93-2.97-2.49
			c0-1.77,1.28-2.54,3.28-2.89l2.58-0.43v-0.14c0-0.76-0.35-1.22-1.15-1.22c-0.74,0-1.11,0.47-1.26,1.15l-3.09-0.21
			c0.29-2.02,1.79-3.42,4.56-3.42c2.43,0,4.23,1.05,4.23,3.61v3.13c0,0.47,0.21,0.68,0.56,0.68c0.27,0,0.47-0.04,0.74-0.14V1182.15z
			 M199.72,1205.08h-3.34v-9.19h3.34V1205.08z M199.74,1195.02h-3.38v-2.93h3.38V1195.02z M199.35,1180.98v4.86h-3.34v-12.49h3.34
			v1.59c0.45-1.09,1.48-1.83,3.03-1.83c2.7,0,4.08,2.14,4.08,4.84c0,2.72-1.38,4.84-4.08,4.84
			C200.83,1182.79,199.8,1182.05,199.35,1180.98z M205.49,1205.33c-2.54,0-4.43-1.01-4.62-3.24l2.91-0.04
			c0.12,0.76,0.74,1.2,1.75,1.2c0.74,0,1.13-0.27,1.13-0.64c0-0.35-0.21-0.6-0.84-0.7l-1.36-0.21c-2.23-0.35-3.4-1.07-3.4-2.95
			c0-1.81,1.59-3.11,4.16-3.11c2.66,0,4.23,1.18,4.41,3.09l-2.74,0.08c-0.12-0.66-0.7-1.07-1.73-1.07c-0.64,0-1.01,0.25-1.01,0.66
			c0,0.31,0.25,0.47,0.56,0.52l1.79,0.31c2.06,0.33,3.26,1.26,3.26,3.05C209.76,1204.21,208.11,1205.33,205.49,1205.33z
			 M207.78,1182.54v-12.99h3.34v12.99H207.78z M226.52,1205.08h-3.34v-4.89c0-1.26-0.23-1.92-1.24-1.92c-1.11,0-1.48,0.91-1.48,2.29
			v4.51h-3.34v-4.89c0-1.26-0.25-1.92-1.26-1.92c-1.09,0-1.48,0.91-1.48,2.29v4.51h-3.34v-9.19h3.34v1.38
			c0.49-1.01,1.48-1.63,2.87-1.63c1.63,0,2.47,0.74,2.87,1.81c0.5-1.03,1.59-1.81,3.13-1.81c2.54,0,3.28,1.75,3.28,3.67V1205.08z
			 M217.61,1180.3c0.91,0,1.48-0.31,1.79-1.03l2.68,0.25c-0.47,2.1-2.16,3.28-4.6,3.28c-2.95,0-5.05-1.77-5.05-4.7
			c0-2.91,2.14-4.99,5.01-4.99c3.07,0,4.7,2.1,4.7,4.6v0.93h-6.45C215.78,1179.76,216.6,1180.3,217.61,1180.3z M226.31,1183.84
			c0-0.8,0.72-1.44,1.75-1.53c-0.82-0.27-1.32-1.01-1.32-1.79c0-0.89,0.58-1.57,1.57-1.94c-0.83-0.54-1.32-1.32-1.32-2.33
			c0-1.96,1.85-3.15,4.43-3.15c1.11,0,2.17,0.27,2.95,0.74c0.56-0.76,1.57-1.42,2.58-1.42v2.52c-0.39,0-0.89,0.04-1.34,0.14
			c0.19,0.35,0.29,0.74,0.29,1.18c0,1.94-1.88,3.13-4.47,3.13c-0.74,0-1.4-0.08-2-0.27c-0.12,0.1-0.19,0.25-0.19,0.43
			c0,0.31,0.23,0.56,0.78,0.56h3.81c2.08,0,3.13,1.09,3.13,2.64c0,2.29-2.78,3.34-5.77,3.34
			C228.57,1186.09,226.31,1185.57,226.31,1183.84z M231.81,1205.08h-3.5v-12.99h3.5V1205.08z M237.67,1205.33
			c-2.54,0-4.43-1.01-4.62-3.24l2.91-0.04c0.12,0.76,0.74,1.2,1.75,1.2c0.74,0,1.13-0.27,1.13-0.64c0-0.35-0.21-0.6-0.84-0.7
			l-1.36-0.21c-2.23-0.35-3.4-1.07-3.4-2.95c0-1.81,1.59-3.11,4.16-3.11c2.66,0,4.23,1.18,4.41,3.09l-2.74,0.08
			c-0.12-0.66-0.7-1.07-1.73-1.07c-0.64,0-1.01,0.25-1.01,0.66c0,0.31,0.25,0.47,0.56,0.52l1.79,0.31c2.06,0.33,3.26,1.26,3.26,3.05
			C241.93,1204.21,240.28,1205.33,237.67,1205.33z M242.47,1180.17c1.05,0,1.46-0.91,1.46-2.31v-4.51h3.34v9.19h-3.34v-1.38
			c-0.5,1.03-1.5,1.63-2.89,1.63c-2.52,0-3.28-1.73-3.28-3.65v-5.79h3.34v4.91C241.11,1179.49,241.46,1180.17,242.47,1180.17z
			 M252.83,1205.08l-0.97-2.51h-5.07l-0.97,2.51h-3.53l5.17-12.99h3.92l5.17,12.99H252.83z M255.39,1173.1
			c2.52,0,3.32,1.75,3.32,3.67v5.77h-3.34v-4.89c0-1.26-0.35-1.92-1.36-1.92c-1.13,0-1.59,0.91-1.59,2.29v4.51h-3.34v-9.19h3.34
			v1.38C252.92,1173.72,254.01,1173.1,255.39,1173.1z M264,1205.08h-3.69l-4.99-12.99H259l3.22,8.64h0.08l3.22-8.64h3.48
			L264,1205.08z M260.13,1182.54V1179h3.55v3.55H260.13z M273.24,1205.08h-3.34v-9.19h3.34V1205.08z M273.26,1195.02h-3.38v-2.93
			h3.38V1195.02z M281.98,1199.14c-0.45-0.27-0.95-0.39-1.59-0.39c-1.24,0-2,0.58-2,2.12v4.21h-3.34v-9.19h3.34v1.63
			c0.33-1.03,1.3-1.88,2.51-1.88c0.56,0,1.05,0.16,1.28,0.35L281.98,1199.14z M292.61,1205.08h-3.34v-1.38
			c-0.5,1.03-1.5,1.63-2.89,1.63c-2.52,0-3.28-1.73-3.28-3.65v-5.79h3.34v4.91c0,1.24,0.35,1.92,1.36,1.92
			c1.05,0,1.46-0.91,1.46-2.31v-4.51h3.34V1205.08z M298.38,1205.33c-2.54,0-4.43-1.01-4.62-3.24l2.91-0.04
			c0.12,0.76,0.74,1.2,1.75,1.2c0.74,0,1.13-0.27,1.13-0.64c0-0.35-0.21-0.6-0.84-0.7l-1.36-0.21c-2.23-0.35-3.4-1.07-3.4-2.95
			c0-1.81,1.59-3.11,4.16-3.11c2.66,0,4.23,1.18,4.41,3.09l-2.74,0.08c-0.12-0.66-0.7-1.07-1.73-1.07c-0.64,0-1.01,0.25-1.01,0.66
			c0,0.31,0.25,0.47,0.56,0.52l1.79,0.31c2.06,0.33,3.26,1.26,3.26,3.05C302.65,1204.21,301,1205.33,298.38,1205.33z
			 M307.39,1205.08h-3.55v-3.55h3.55V1205.08z M313.45,1205.33c-3.01,0-5.03-1.98-5.03-4.84c0-2.84,2.02-4.84,5.03-4.84
			c2.99,0,5.03,2,5.03,4.84C318.48,1203.35,316.44,1205.33,313.45,1205.33z M326.72,1199.14c-0.45-0.27-0.95-0.39-1.59-0.39
			c-1.24,0-2,0.58-2,2.12v4.21h-3.34v-9.19h3.34v1.63c0.33-1.03,1.3-1.88,2.51-1.88c0.56,0,1.05,0.16,1.28,0.35L326.72,1199.14z
			 M331.83,1208.62c-2.62,0-4.89-0.52-4.89-2.25c0-0.8,0.72-1.44,1.75-1.53c-0.82-0.27-1.32-1.01-1.32-1.79
			c0-0.89,0.58-1.57,1.57-1.94c-0.83-0.54-1.32-1.32-1.32-2.33c0-1.96,1.85-3.15,4.43-3.15c1.11,0,2.17,0.27,2.95,0.74
			c0.56-0.76,1.57-1.42,2.58-1.42v2.52c-0.39,0-0.89,0.04-1.34,0.14c0.19,0.35,0.29,0.74,0.29,1.18c0,1.94-1.88,3.13-4.47,3.13
			c-0.74,0-1.4-0.08-2-0.27c-0.12,0.1-0.19,0.25-0.19,0.43c0,0.31,0.23,0.56,0.78,0.56h3.81c2.08,0,3.13,1.09,3.13,2.64
			C337.61,1207.57,334.82,1208.62,331.83,1208.62z M764.5,1022.89c-1.44,2.7-4.21,4.24-7.07,4.24c-1.27,0-2.55-0.3-3.75-0.94
			c-5.37-2.85-12.21-6.34-20-10.21c-46.66-23.19-127.3-60.39-128.24-60.82c-1.89-0.87-3.37-2.45-4.12-4.4
			c-0.22-0.57-22.17-57.45-41.01-82.95c-12.88-17.42-24.18-27.21-38.98-33.74l-63.58-25.26c-0.09-0.04-0.18-0.07-0.26-0.11
			c-7.16-3.14-14.73-4.94-22.51-5.33c-12.39-0.63-32.95-0.31-51.09-0.04c-8.8,0.13-17.12,0.26-23.9,0.27
			c-0.97,0.41-3.27,3.4-3.61,8.83c-0.29,4.63,0.63,20.65,24.75,32.34c24.71,11.98,47.79,7.36,48.02,7.31
			c3.19-0.66,6.48,0.66,8.3,3.35c0.18,0.26,18.42,26.9,40.24,34c3.62,1.18,5.91,4.75,5.47,8.54c-5.1,43.62,18.03,81.76,18.26,82.15
			c1.01,1.63,1.35,3.49,1.12,5.25c-0.01,0.05-0.02,0.1-0.02,0.15c2.93,10.29,6.19,19.95,9.49,29.76
			c5.02,14.88,10.12,30.01,14.14,47.92c4.15,0.43,8.36,0.84,12.64,1.24l2.45,0.23l1.9,1.56c1.05,0.86,105.93,86.97,188.46,132.31
			c3.87,2.13,5.29,6.99,3.16,10.86c-1.46,2.65-4.19,4.15-7.02,4.15c-1.3,0-2.62-0.32-3.84-0.99
			c-77.64-42.65-174.27-120.42-189.02-132.42c-1.85-0.17-3.69-0.35-5.52-0.53c2.38,14.28,4.02,30.38,4.48,49.28
			c0.43,17.95-13.56,31.88-34.8,34.66c-2.24,0.29-4.49,0.39-6.51,0.39c-3.67,0-6.53-0.32-6.99-0.38c-3.58-0.43-6.43-3.2-6.96-6.77
			l-13.09-88.22c-15.98-4.61-32.12-11.11-49.26-20.7h-39.37l-8.1,20.45c-7.08,17.9-20.71,31.96-38.38,39.61
			c-9.18,3.97-18.89,5.97-28.6,5.97c-8.97,0-17.95-1.7-26.54-5.1l-105.28-41.68c-4.11-1.63-6.12-6.28-4.49-10.38l164.29-414.98
			c1.63-4.11,6.28-6.12,10.38-4.49l164.84,65.26l57.76,22.18c0.03,0.01,0.05,0.02,0.08,0.03c7.18,2.84,12.83,8.31,15.9,15.4
			c3.07,7.09,3.19,14.95,0.35,22.13l-28.26,71.39c7.6,6.38,14.8,14.34,22.39,24.62c17.74,24,36.94,71.14,41.89,83.68
			c18.12,8.37,111.23,51.52,146.13,70.08C765.09,1014.15,766.57,1018.99,764.5,1022.89z M761.72,671.02c0-1.79,0.93-2.97,2.49-2.97
			c1.77,0,2.54,1.28,2.89,3.28l0.43,2.58h0.14c0.76,0,1.22-0.35,1.22-1.15c0-0.74-0.47-1.11-1.15-1.26l0.21-3.09
			c2.02,0.29,3.42,1.79,3.42,4.56c0,2.43-1.05,4.23-3.61,4.23h-3.13c-0.47,0-0.68,0.21-0.68,0.56c0,0.27,0.04,0.47,0.14,0.74h-1.77
			c-0.33-0.47-0.6-1.13-0.6-2.08c0-1.13,0.58-2.02,1.63-2.33C762.28,673.54,761.72,672.49,761.72,671.02z M764.09,713.65h-1.77
			c-0.33-0.47-0.6-1.13-0.6-2.08c0-1.13,0.58-2.02,1.63-2.33c-1.07-0.54-1.63-1.59-1.63-3.05c0-1.79,0.93-2.97,2.49-2.97
			c1.77,0,2.54,1.28,2.89,3.28l0.43,2.58h0.14c0.76,0,1.22-0.35,1.22-1.15c0-0.74-0.47-1.11-1.15-1.26l0.21-3.09
			c2.02,0.29,3.42,1.79,3.42,4.56c0,2.43-1.05,4.23-3.61,4.23h-3.13c-0.47,0-0.68,0.21-0.68,0.56
			C763.95,713.17,763.99,713.38,764.09,713.65z M771.37,746.62c0,2.54-1.75,3.28-3.67,3.28h-5.77v-3.34h4.89
			c1.26,0,1.92-0.23,1.92-1.24c0-1.11-0.91-1.48-2.29-1.48h-4.51v-3.34h4.89c1.26,0,1.92-0.25,1.92-1.26c0-1.09-0.91-1.48-2.29-1.48
			h-4.51v-3.34h9.19v3.34h-1.38c1.01,0.5,1.63,1.48,1.63,2.87c0,1.63-0.74,2.47-1.81,2.87
			C770.59,743.98,771.37,745.08,771.37,746.62z M768.28,733.02l-0.08-2.74c0.66-0.12,1.07-0.7,1.07-1.73c0-0.64-0.25-1.01-0.66-1.01
			c-0.31,0-0.47,0.25-0.51,0.56l-0.31,1.79c-0.33,2.06-1.26,3.26-3.05,3.26c-1.94,0-3.05-1.65-3.05-4.27c0-2.54,1.01-4.43,3.24-4.62
			l0.04,2.91c-0.76,0.12-1.2,0.74-1.2,1.75c0,0.74,0.27,1.13,0.64,1.13c0.35,0,0.6-0.21,0.7-0.85l0.21-1.36
			c0.35-2.23,1.07-3.4,2.95-3.4c1.81,0,3.11,1.59,3.11,4.16C771.37,731.27,770.2,732.83,768.28,733.02z M764.4,764.02
			c0.35,0,0.6-0.21,0.7-0.85l0.21-1.36c0.35-2.23,1.07-3.4,2.95-3.4c1.81,0,3.11,1.59,3.11,4.16c0,2.66-1.17,4.23-3.09,4.41
			l-0.08-2.74c0.66-0.12,1.07-0.7,1.07-1.73c0-0.64-0.25-1.01-0.66-1.01c-0.31,0-0.47,0.25-0.51,0.56l-0.31,1.79
			c-0.33,2.06-1.26,3.26-3.05,3.26c-1.94,0-3.05-1.65-3.05-4.27c0-2.54,1.01-4.43,3.24-4.62l0.04,2.91c-0.76,0.12-1.2,0.74-1.2,1.75
			C763.76,763.63,764.03,764.02,764.4,764.02z M761.93,799.92h9.19v3.34h-9.19V799.92z M766.61,819.29h4.51v3.34h-9.19v-3.34h1.38
			c-1.03-0.49-1.63-1.5-1.63-2.89c0-2.51,1.73-3.28,3.65-3.28h5.79v3.34h-4.91c-1.24,0-1.92,0.35-1.92,1.36
			C764.3,818.88,765.21,819.29,766.61,819.29z M771.12,723.1h-9.19v-3.34h9.19V723.1z M771.12,700v2.39h-2.31V700h-3.36
			c-0.78,0-1.09,0.37-1.09,1.05c0,0.41,0.08,0.87,0.31,1.42h-2.16c-0.52-0.7-0.82-1.5-0.82-2.76c0-1.55,0.64-3.01,2.8-3.01h4.33
			v-1.24h2.06l0.1,0.68c0.14,0.93,0.64,1.22,1.48,1.44l1.2,0.31v2.1H771.12z M761.93,694.56v-3.34h9.19v3.34H761.93z M771.12,679.45
			v3.34h-1.59c1.09,0.45,1.83,1.48,1.83,3.03c0,2.7-2.14,4.08-4.84,4.08c-2.72,0-4.84-1.38-4.84-4.08c0-1.55,0.74-2.58,1.81-3.03
			h-4.86v-3.34H771.12z M768.28,832.54l-0.08-2.74c0.66-0.12,1.07-0.7,1.07-1.73c0-0.64-0.25-1.01-0.66-1.01
			c-0.31,0-0.47,0.25-0.51,0.56l-0.31,1.79c-0.33,2.06-1.26,3.26-3.05,3.26c-1.94,0-3.05-1.65-3.05-4.27c0-2.54,1.01-4.43,3.24-4.62
			l0.04,2.91c-0.76,0.12-1.2,0.74-1.2,1.75c0,0.74,0.27,1.13,0.64,1.13c0.35,0,0.6-0.21,0.7-0.85l0.21-1.36
			c0.35-2.23,1.07-3.4,2.95-3.4c1.81,0,3.11,1.59,3.11,4.16C771.37,830.79,770.2,832.36,768.28,832.54z M771.02,812.2l-3.15-0.21
			c0.27-0.45,0.39-0.95,0.39-1.59c0-1.24-0.58-2-2.12-2h-4.21v-3.34h9.19v3.34h-1.63c1.03,0.33,1.88,1.3,1.88,2.52
			C771.37,811.48,771.21,811.98,771.02,812.2z M774.92,803.28h-2.93v-3.38h2.93V803.28z M774.92,789.02l-8.64,3.22v0.08l8.64,3.22
			v3.48l-12.99-4.99v-3.69l12.99-4.99V789.02z M774.92,778.38l-12.99,5.17v-3.73l2.51-0.97v-5.07l-2.51-0.97v-3.52l12.99,5.17
			V778.38z M774.92,756.99h-12.99v-3.5h12.99V756.99z M774.92,723.12h-2.93v-3.38h2.93V723.12z M774.92,717.95h-12.99v-3.34h12.99
			V717.95z M774.92,694.58h-2.93v-3.38h2.93V694.58z M769.39,667.31l-0.12-3.36c1.44-0.21,2.78-0.99,2.78-3.01
			c0-1.92-1.42-3.03-3.63-3.03c-2.21,0-3.63,1.11-3.63,3.03c0,2.02,1.34,2.8,2.78,3.01l-0.14,3.36c-3.24-0.25-5.75-2.37-5.75-6.35
			c0-3.79,2.74-6.66,6.74-6.66c4,0,6.74,2.87,6.74,6.66C775.16,664.94,772.63,667.07,769.39,667.31z M761.93,643.31v-2.49l3.42,0.8
			v-1.81l2.06,0.43v1.88l2.02,0.49v-1.98l2.06,0.43v2.02l3.42,0.82v2.49l-3.42-0.83v1.77l3.42,0.82v2.49l-3.42-0.82v1.83l-2.06-0.43
			v-1.88l-2.02-0.49v1.98l-2.06-0.43v-2.04l-3.42-0.8v-2.49l3.42,0.8v-1.77L761.93,643.31z M776.06,515.06
			c-3.31,2.3-7.92,4.18-14.54,4.18c-7.92,0-14.11-4.03-16.27-11.38c-3.74,7.49-11.09,11.38-21.31,11.38
			c-12.53,0-20.74-6.48-20.74-17.42c0-12.38,8.93-17.71,22.9-20.16l18-3.02v-1.01c0-5.33-2.45-8.5-8.06-8.5
			c-5.18,0-7.78,3.31-8.78,8.06l-21.6-1.44c2.02-14.11,12.53-23.9,31.82-23.9c16.99,0,29.52,7.34,29.52,25.2v21.89
			c0,3.31,1.44,4.75,3.89,4.75c1.87,0,3.31-0.29,5.18-1.01V515.06z"/>
		<path d="M65.22,152.77h27.84c42.54,0,67.29-19.85,67.29-55.94c0-35.83-24.75-55.68-67.29-55.68H21.66v162.41h43.57V152.77z
			 M65.22,76.21H91c19.59,0,27.07,7.22,27.07,20.88c0,13.66-7.48,20.62-27.07,20.62H65.22V76.21z"/>
		<path d="M227.89,206.65c30.42,0,51.56-14.69,57.49-40.99l-33.51-3.09c-3.87,9.02-11.08,12.89-22.43,12.89
			c-12.63,0-22.94-6.7-23.98-20.88h80.69v-11.6c0-31.19-20.37-57.49-58.78-57.49c-35.83,0-62.64,26.04-62.64,62.39
			C164.73,184.48,191.02,206.65,227.89,206.65z M226.86,115.39c12.37,0,19.08,8.77,19.59,19.08h-40.47
			C207.52,123.64,213.45,115.39,226.86,115.39z"/>
		<path d="M298.26,146.07c0,35.83,25.26,60.58,62.9,60.58c37.38,0,62.9-24.75,62.9-60.58c0-35.58-25.52-60.58-62.9-60.58
			C323.52,85.49,298.26,110.5,298.26,146.07z M361.16,116.94c14.44,0,20.88,11.86,20.88,29.13s-6.45,29.13-20.88,29.13
			c-14.69,0-20.88-11.86-20.88-29.13S346.47,116.94,361.16,116.94z"/>
		<path d="M482.33,108.43V88.58h-41.76v156.23h41.76v-60.84c5.67,13.41,18.56,22.69,37.9,22.69c33.77,0,51.04-26.55,51.04-60.58
			c0-33.77-17.27-60.58-51.04-60.58C500.89,85.49,488,94.77,482.33,108.43z M529.24,146.07c0,16.76-7.48,28.36-23.72,28.36
			c-14.18,0-23.2-10.83-23.2-27.58v-1.55c0-16.5,9.02-27.33,23.2-27.33C521.77,117.97,529.24,129.57,529.24,146.07z"/>
		<rect x="587.76" y="41.15" width="41.76" height="162.41"/>
		<path d="M709.18,206.65c30.42,0,51.56-14.69,57.49-40.99l-33.51-3.09c-3.87,9.02-11.08,12.89-22.43,12.89
			c-12.63,0-22.94-6.7-23.98-20.88h80.69v-11.6c0-31.19-20.37-57.49-58.78-57.49c-35.83,0-62.64,26.04-62.64,62.39
			C646.02,184.48,672.32,206.65,709.18,206.65z M708.15,115.39c12.37,0,19.08,8.77,19.59,19.08h-40.47
			C688.82,123.64,694.75,115.39,708.15,115.39z"/>
		<path d="M55.16,338.34h21.71c33.17,0,52.47-15.09,52.47-42.53c0-27.24-19.3-42.34-52.47-42.34H21.19v123.48h33.97V338.34z
			 M55.16,280.13h20.1c15.28,0,21.11,5.49,21.11,15.88s-5.83,15.68-21.11,15.68h-20.1V280.13z"/>
		<path d="M181.81,287.19c-29.35,0-49.05,19.01-49.05,46.06c0,27.24,19.7,46.06,49.05,46.06c29.15,0,49.05-18.82,49.05-46.06
			C230.87,306.2,210.96,287.19,181.81,287.19z M181.81,355.4c-11.46,0-16.28-9.02-16.28-22.15s4.83-22.15,16.28-22.15
			c11.26,0,16.28,9.02,16.28,22.15S193.07,355.4,181.81,355.4z"/>
		<polygon points="353.7,376.96 382.04,289.54 352.69,289.54 336.61,339.13 335.81,339.13 322.74,289.54 296.81,289.54 
			283.74,339.13 282.93,339.13 266.85,289.54 234.48,289.54 262.83,376.96 294.79,376.96 307.86,327.56 308.67,327.56 
			321.73,376.96 		"/>
		<path d="M478.74,348.14l-26.13-2.35c-3.02,6.86-8.64,9.8-17.49,9.8c-9.85,0-17.89-5.1-18.7-15.88h62.92v-8.82
			c0-23.72-15.88-43.71-45.84-43.71c-27.94,0-48.85,19.8-48.85,47.43c0,27.83,20.51,44.69,49.25,44.69
			C457.63,379.31,474.12,368.14,478.74,348.14z M433.11,309.92c9.65,0,14.88,6.66,15.28,14.5h-31.56
			C418.03,316.2,422.66,309.92,433.11,309.92z"/>
		<path d="M560.16,320.51l2.01-29.99c-2.21-1.76-7.04-3.33-12.46-3.33c-11.86,0-21.31,8.04-24.53,17.84v-15.48h-32.57v87.42h32.57
			v-39.98c0-14.7,7.44-20.19,19.5-20.19C550.91,316.78,555.74,317.96,560.16,320.51z"/>
		<path d="M615.04,379.31c23.72,0,40.21-11.17,44.83-31.16l-26.13-2.35c-3.02,6.86-8.64,9.8-17.49,9.8c-9.85,0-17.89-5.1-18.7-15.88
			h62.92v-8.82c0-23.72-15.88-43.71-45.84-43.71c-27.94,0-48.85,19.8-48.85,47.43C565.79,362.45,586.29,379.31,615.04,379.31z
			 M614.24,309.92c9.65,0,14.88,6.66,15.28,14.5h-31.56C599.16,316.2,603.79,309.92,614.24,309.92z"/>
		<path d="M771.64,376.96V253.48h-32.57v51.16c-4.22-10.39-14.47-17.44-29.35-17.44c-26.54,0-39.8,20.38-39.8,46.06
			c0,25.87,13.27,46.06,39.8,46.06c14.88,0,25.13-7.06,29.35-17.25v14.9H771.64z M721.18,354.81c-12.87,0-18.5-8.82-18.5-21.56
			c0-12.54,5.63-21.36,18.5-21.36c10.86,0,17.89,8.23,17.89,20.78v1.18C739.08,346.58,732.04,354.81,721.18,354.81z"/>
		<path d="M97.26,458.18c0-20.02-13.82-31.1-37.58-31.1H19.79v90.72h24.33v-28.37h15.55C83.43,489.43,97.26,478.34,97.26,458.18z
			 M58.52,469.85h-14.4v-23.18h14.4c10.94,0,15.12,4.03,15.12,11.66S69.47,469.85,58.52,469.85z"/>
		<path d="M152.98,476.33l1.44-22.03c-1.58-1.3-5.04-2.45-8.93-2.45c-8.5,0-15.26,5.9-17.57,13.1v-11.38H104.6v64.22h23.33v-29.38
			c0-10.8,5.33-14.83,13.97-14.83C146.36,473.59,149.82,474.46,152.98,476.33z"/>
		<path d="M192.15,519.53c20.88,0,35.13-13.82,35.13-33.84c0-19.87-14.26-33.84-35.13-33.84c-21.02,0-35.14,13.97-35.14,33.84
			C157.02,505.7,171.13,519.53,192.15,519.53z M192.15,469.42c8.06,0,11.66,6.62,11.66,16.27c0,9.65-3.6,16.27-11.66,16.27
			c-8.21,0-11.66-6.62-11.66-16.27C180.49,476.04,183.94,469.42,192.15,469.42z"/>
		<path d="M236.5,453.58v87.26h23.33v-33.98c3.17,7.49,10.37,12.67,21.17,12.67c18.86,0,28.51-14.83,28.51-33.84
			c0-18.86-9.65-33.84-28.51-33.84c-10.8,0-18,5.18-21.17,12.82v-11.09H236.5z M272.79,469.99c9.07,0,13.25,6.48,13.25,15.7
			c0,9.36-4.18,15.84-13.25,15.84c-7.92,0-12.96-6.05-12.96-15.41v-0.86C259.83,476.04,264.87,469.99,272.79,469.99z"/>
		<path d="M387.85,502.68c-1.87,0.72-3.31,1.01-5.18,1.01c-2.45,0-3.89-1.44-3.89-4.75v-21.89c0-17.86-12.53-25.2-29.52-25.2
			c-19.3,0-29.81,9.79-31.82,23.9l21.6,1.44c1.01-4.75,3.6-8.06,8.78-8.06c5.62,0,8.06,3.17,8.06,8.5v1.01l-18,3.02
			c-13.97,2.45-22.9,7.78-22.9,20.16c0,10.94,8.21,17.42,20.74,17.42c10.22,0,17.57-3.89,21.31-11.38
			c2.16,7.34,8.35,11.38,16.27,11.38c6.62,0,11.23-1.87,14.54-4.18V502.68z M355.88,491.02c0,8.35-5.33,13.25-11.95,13.25
			c-3.89,0-6.48-2.16-6.48-5.47c0-4.18,3.31-5.9,8.93-7.06l9.5-1.73V491.02z"/>
		<path d="M441.56,500.81h-26.64c-3.89,0-5.47-1.73-5.47-3.89c0-1.3,0.43-2.3,1.3-3.02c4.18,1.3,8.78,1.87,13.97,1.87
			c18.14,0,31.25-8.35,31.25-21.89c0-3.02-0.72-5.76-2.02-8.21c3.17-0.72,6.62-1.01,9.36-1.01V447.1c-7.06,0-14.11,4.61-18,9.94
			c-5.47-3.31-12.82-5.18-20.59-5.18c-18,0-30.96,8.35-30.96,22.03c0,7.06,3.46,12.53,9.22,16.27c-6.91,2.59-10.94,7.34-10.94,13.54
			c0,5.47,3.46,10.66,9.22,12.53c-7.2,0.58-12.24,5.04-12.24,10.66c0,12.1,15.84,15.7,34.13,15.7c20.88,0,40.32-7.34,40.32-23.33
			C463.44,508.44,456.1,500.81,441.56,500.81z M425,464.66c3.89,0,6.77,3.6,6.77,9.22c0,5.76-2.88,9.36-6.77,9.36
			c-3.89,0-6.77-3.6-6.77-9.36C418.23,468.26,421.11,464.66,425,464.66z M423.27,530.47c-8.64,0-15.12-1.3-15.12-5.9
			c0-2.45,1.73-3.89,4.32-3.89h23.62c3.89,0,5.9,1.01,5.9,3.74C441.99,528.31,434.07,530.47,423.27,530.47z"/>
		<path d="M508.08,507.86c2.16,7.34,8.35,11.38,16.27,11.38c6.62,0,11.23-1.87,14.54-4.18v-12.38c-1.87,0.72-3.31,1.01-5.18,1.01
			c-2.45,0-3.89-1.44-3.89-4.75v-21.89c0-17.86-12.53-25.2-29.52-25.2c-19.3,0-29.81,9.79-31.82,23.9l21.6,1.44
			c1.01-4.75,3.6-8.06,8.78-8.06c5.62,0,8.06,3.17,8.06,8.5v1.01l-18,3.02c-13.97,2.45-22.9,7.78-22.9,20.16
			c0,10.94,8.21,17.42,20.74,17.42C497,519.24,504.34,515.35,508.08,507.86z M494.98,504.26c-3.89,0-6.48-2.16-6.48-5.47
			c0-4.18,3.31-5.9,8.93-7.06l9.5-1.73v1.01C506.93,499.37,501.61,504.26,494.98,504.26z"/>
		<path d="M612.92,517.8v-40.32c0-13.39-5.62-25.63-23.18-25.63c-9.65,0-17.28,4.32-20.74,11.38v-9.65h-23.33v64.22H569v-31.54
			c0-9.65,3.17-15.98,11.09-15.98c7.06,0,9.5,4.61,9.5,13.39v34.13H612.92z"/>
		<path d="M694.27,517.8v-90.72h-23.33v37.58c-3.02-7.63-10.37-12.82-21.02-12.82c-19.01,0-28.51,14.98-28.51,33.84
			c0,19.01,9.5,33.84,28.51,33.84c10.66,0,18-5.18,21.02-12.67v10.94H694.27z M658.13,501.53c-9.22,0-13.25-6.48-13.25-15.84
			c0-9.22,4.03-15.7,13.25-15.7c7.78,0,12.82,6.05,12.82,15.26v0.86C670.95,495.48,665.91,501.53,658.13,501.53z"/>
		<path d="M766.99,498.94v-21.89c0-17.86-12.53-25.2-29.52-25.2c-19.3,0-29.81,9.79-31.82,23.9l21.6,1.44
			c1.01-4.75,3.6-8.06,8.78-8.06c5.62,0,8.06,3.17,8.06,8.5v1.01l-18,3.02c-13.97,2.45-22.9,7.78-22.9,20.16
			c0,10.94,8.21,17.42,20.74,17.42c10.22,0,17.57-3.89,21.31-11.38c2.16,7.34,8.35,11.38,16.27,11.38c6.62,0,11.23-1.87,14.54-4.18
			v-12.38c-1.87,0.72-3.31,1.01-5.18,1.01C768.43,503.69,766.99,502.25,766.99,498.94z M744.1,491.02c0,8.35-5.33,13.25-11.95,13.25
			c-3.89,0-6.48-2.16-6.48-5.47c0-4.18,3.31-5.9,8.93-7.06l9.5-1.73V491.02z"/>
		<polygon points="265.16,23.55 266.5,18.36 266.58,18.36 267.92,23.55 271.2,23.55 274.07,14.5 276.93,23.55 280.21,23.55 
			281.55,18.36 281.63,18.36 282.97,23.55 286.25,23.55 289.11,14.49 291.98,23.55 295.25,23.55 296.59,18.36 296.68,18.36 
			298.02,23.55 301.29,23.55 304.2,14.36 301.19,14.36 299.54,19.58 299.46,19.58 298.12,14.36 295.46,14.36 294.12,19.58 
			294.04,19.58 292.39,14.36 289.15,14.36 289.07,14.36 286.14,14.36 284.5,19.58 284.41,19.58 283.07,14.36 280.41,14.36 
			279.07,19.58 278.99,19.58 277.34,14.36 274.11,14.36 274.02,14.36 271.1,14.36 269.45,19.58 269.37,19.58 268.03,14.36 
			265.37,14.36 264.03,19.58 263.95,19.58 262.3,14.36 258.98,14.36 261.88,23.55 		"/>
		<rect x="306.63" y="20.01" width="3.55" height="3.55"/>
		<path d="M319.72,23.8c3.98,0,6.1-2.52,6.35-5.75l-3.36-0.14c-0.21,1.44-0.99,2.78-3.01,2.78c-1.92,0-3.03-1.42-3.03-3.63
			s1.11-3.63,3.03-3.63c2.02,0,2.8,1.34,3.01,2.78l3.36-0.12c-0.25-3.24-2.37-5.77-6.35-5.77c-3.79,0-6.66,2.74-6.66,6.74
			S315.92,23.8,319.72,23.8z"/>
		<path d="M330.08,18.38c-2,0.35-3.28,1.11-3.28,2.89c0,1.57,1.17,2.49,2.97,2.49c1.46,0,2.51-0.56,3.05-1.63
			c0.31,1.05,1.2,1.63,2.33,1.63c0.95,0,1.61-0.27,2.08-0.6v-1.77c-0.27,0.1-0.47,0.14-0.74,0.14c-0.35,0-0.56-0.21-0.56-0.68v-3.13
			c0-2.56-1.79-3.61-4.23-3.61c-2.76,0-4.27,1.4-4.56,3.42l3.09,0.21c0.14-0.68,0.52-1.15,1.26-1.15c0.8,0,1.15,0.45,1.15,1.22v0.14
			L330.08,18.38z M332.66,19.72c0,1.2-0.76,1.9-1.71,1.9c-0.56,0-0.93-0.31-0.93-0.78c0-0.6,0.47-0.85,1.28-1.01l1.36-0.25V19.72z"
			/>
		<path d="M341.54,21.99c0.45,1.07,1.48,1.81,3.03,1.81c2.7,0,4.08-2.12,4.08-4.84c0-2.7-1.38-4.84-4.08-4.84
			c-1.55,0-2.58,0.74-3.03,1.83v-1.59h-3.34v12.49h3.34V21.99z M341.54,18.9c0-1.32,0.72-2.19,1.86-2.19c1.3,0,1.9,0.93,1.9,2.25
			c0,1.34-0.6,2.27-1.9,2.27c-1.13,0-1.86-0.87-1.86-2.21V18.9z"/>
		<rect x="349.97" y="14.36" width="3.34" height="9.19"/>
		<rect x="349.95" y="10.57" width="3.38" height="2.93"/>
		<path d="M355.46,21c0,2.16,1.46,2.8,3.01,2.8c1.26,0,2.06-0.31,2.76-0.82v-2.16c-0.56,0.23-1.01,0.31-1.42,0.31
			c-0.68,0-1.05-0.31-1.05-1.09v-3.36h2.39v-2.31h-2.39v-2.54h-2.1l-0.31,1.2c-0.23,0.85-0.52,1.34-1.44,1.48l-0.68,0.1v2.06h1.24
			V21z"/>
		<path d="M365.25,18.38c-2,0.35-3.28,1.11-3.28,2.89c0,1.57,1.17,2.49,2.97,2.49c1.46,0,2.52-0.56,3.05-1.63
			c0.31,1.05,1.2,1.63,2.33,1.63c0.95,0,1.61-0.27,2.08-0.6v-1.77c-0.27,0.1-0.47,0.14-0.74,0.14c-0.35,0-0.56-0.21-0.56-0.68v-3.13
			c0-2.56-1.79-3.61-4.23-3.61c-2.76,0-4.27,1.4-4.56,3.42l3.09,0.21c0.14-0.68,0.52-1.15,1.26-1.15c0.8,0,1.15,0.45,1.15,1.22v0.14
			L365.25,18.38z M367.82,19.72c0,1.2-0.76,1.9-1.71,1.9c-0.56,0-0.93-0.31-0.93-0.78c0-0.6,0.47-0.85,1.28-1.01l1.36-0.25V19.72z"
			/>
		<rect x="373.37" y="10.57" width="3.34" height="12.99"/>
		<rect x="378.5" y="10.57" width="3.38" height="2.93"/>
		<rect x="378.52" y="14.36" width="3.34" height="9.19"/>
		<path d="M387.67,21.72c-1.01,0-1.63-0.43-1.75-1.2l-2.91,0.04c0.19,2.23,2.08,3.24,4.62,3.24c2.62,0,4.27-1.11,4.27-3.05
			c0-1.79-1.2-2.72-3.26-3.05l-1.79-0.31c-0.31-0.04-0.56-0.21-0.56-0.52c0-0.41,0.37-0.66,1.01-0.66c1.03,0,1.61,0.41,1.73,1.07
			l2.74-0.08c-0.19-1.92-1.75-3.09-4.41-3.09c-2.58,0-4.16,1.3-4.16,3.11c0,1.88,1.17,2.6,3.4,2.95l1.36,0.21
			c0.64,0.1,0.84,0.35,0.84,0.7C388.8,21.45,388.41,21.72,387.67,21.72z"/>
		<path d="M396.51,19.04c0-1.38,0.39-2.29,1.48-2.29c1.01,0,1.26,0.66,1.26,1.92v4.89h3.34v-4.51c0-1.38,0.37-2.29,1.48-2.29
			c1.01,0,1.24,0.66,1.24,1.92v4.89h3.34v-5.77c0-1.92-0.74-3.67-3.28-3.67c-1.55,0-2.64,0.78-3.13,1.81
			c-0.39-1.07-1.24-1.81-2.87-1.81c-1.38,0-2.37,0.62-2.87,1.63v-1.38h-3.34v9.19h3.34V19.04z"/>
		<rect x="413.91" y="10.57" width="3.5" height="12.99"/>
		<path d="M423.3,21.72c-1.01,0-1.63-0.43-1.75-1.2l-2.91,0.04c0.19,2.23,2.08,3.24,4.62,3.24c2.62,0,4.27-1.11,4.27-3.05
			c0-1.79-1.2-2.72-3.26-3.05l-1.79-0.31c-0.31-0.04-0.56-0.21-0.56-0.52c0-0.41,0.37-0.66,1.01-0.66c1.03,0,1.61,0.41,1.73,1.07
			l2.74-0.08c-0.19-1.92-1.75-3.09-4.41-3.09c-2.58,0-4.16,1.3-4.16,3.11c0,1.88,1.17,2.6,3.4,2.95l1.36,0.21
			c0.64,0.1,0.84,0.35,0.84,0.7C424.44,21.45,424.05,21.72,423.3,21.72z"/>
		<path d="M435.86,21.04h5.07l0.97,2.52h3.73l-5.17-12.99h-3.92l-5.17,12.99h3.52L435.86,21.04z M438.35,14.59h0.08l1.48,3.83h-3.05
			L438.35,14.59z"/>
		<polygon points="456.16,23.55 461.15,10.57 457.66,10.57 454.45,19.2 454.36,19.2 451.15,10.57 447.48,10.57 452.47,23.55 		"/>
		<rect x="462.05" y="14.36" width="3.34" height="9.19"/>
		<rect x="462.03" y="10.57" width="3.38" height="2.93"/>
		<path d="M470.54,19.35c0-1.55,0.76-2.12,2-2.12c0.64,0,1.13,0.12,1.59,0.39l0.21-3.15c-0.23-0.19-0.72-0.35-1.28-0.35
			c-1.22,0-2.18,0.85-2.51,1.88v-1.63h-3.34v9.19h3.34V19.35z"/>
		<path d="M478.54,23.8c1.38,0,2.39-0.6,2.89-1.63v1.38h3.34v-9.19h-3.34v4.51c0,1.4-0.41,2.31-1.46,2.31
			c-1.01,0-1.36-0.68-1.36-1.92v-4.91h-3.34v5.79C475.26,22.07,476.02,23.8,478.54,23.8z"/>
		<path d="M490.58,21.72c-1.01,0-1.63-0.43-1.75-1.2l-2.91,0.04c0.19,2.23,2.08,3.24,4.62,3.24c2.62,0,4.27-1.11,4.27-3.05
			c0-1.79-1.2-2.72-3.26-3.05l-1.79-0.31c-0.31-0.04-0.56-0.21-0.56-0.52c0-0.41,0.37-0.66,1.01-0.66c1.03,0,1.61,0.41,1.73,1.07
			l2.74-0.08c-0.19-1.92-1.75-3.09-4.41-3.09c-2.58,0-4.16,1.3-4.16,3.11c0,1.88,1.17,2.6,3.4,2.95l1.36,0.21
			c0.64,0.1,0.84,0.35,0.84,0.7C491.71,21.45,491.32,21.72,490.58,21.72z"/>
		<rect x="497.64" y="20.01" width="3.55" height="3.55"/>
		<path d="M509.1,23.8c2.99,0,5.03-1.98,5.03-4.84c0-2.84-2.04-4.84-5.03-4.84c-3.01,0-5.03,2-5.03,4.84
			C504.07,21.82,506.09,23.8,509.1,23.8z M509.1,16.63c1.15,0,1.67,0.95,1.67,2.33c0,1.38-0.52,2.33-1.67,2.33
			c-1.17,0-1.67-0.95-1.67-2.33C507.43,17.58,507.93,16.63,509.1,16.63z"/>
		<path d="M518.79,19.35c0-1.55,0.76-2.12,2-2.12c0.64,0,1.13,0.12,1.59,0.39l0.21-3.15c-0.23-0.19-0.72-0.35-1.28-0.35
			c-1.22,0-2.19,0.85-2.52,1.88v-1.63h-3.34v9.19h3.34V19.35z"/>
		<path d="M522.6,24.85c0,1.73,2.27,2.25,4.89,2.25c2.99,0,5.77-1.05,5.77-3.34c0-1.55-1.05-2.64-3.13-2.64h-3.81
			c-0.56,0-0.78-0.25-0.78-0.56c0-0.19,0.06-0.33,0.19-0.43c0.6,0.19,1.26,0.27,2,0.27c2.6,0,4.47-1.2,4.47-3.13
			c0-0.43-0.1-0.82-0.29-1.17c0.45-0.1,0.95-0.14,1.34-0.14v-2.51c-1.01,0-2.02,0.66-2.58,1.42c-0.78-0.47-1.83-0.74-2.95-0.74
			c-2.58,0-4.43,1.2-4.43,3.15c0,1.01,0.5,1.79,1.32,2.33c-0.99,0.37-1.57,1.05-1.57,1.94c0,0.78,0.49,1.53,1.32,1.79
			C523.33,23.41,522.6,24.05,522.6,24.85z M527.76,15.95c0.56,0,0.97,0.52,0.97,1.32c0,0.82-0.41,1.34-0.97,1.34
			s-0.97-0.52-0.97-1.34C526.79,16.46,527.2,15.95,527.76,15.95z M525.96,23.97h3.38c0.56,0,0.84,0.14,0.84,0.54
			c0,0.56-1.13,0.87-2.68,0.87c-1.24,0-2.16-0.19-2.16-0.84C525.35,24.17,525.59,23.97,525.96,23.97z"/>
		<path d="M311.03,589.49l0.43-2.06h-1.83l0.82-3.42h-2.49l-0.82,3.42h-1.77l0.83-3.42h-2.49l-0.83,3.42h-2.02l-0.43,2.06h1.98
			l-0.5,2.02h-1.88l-0.43,2.06h1.81l-0.8,3.42h2.49l0.8-3.42h1.77l-0.8,3.42h2.49l0.8-3.42h2.04l0.43-2.06h-1.98l0.5-2.02H311.03z
			 M306.17,591.51h-1.77l0.5-2.02h1.77L306.17,591.51z"/>
		<path d="M320.73,586.87c2.02,0,2.8,1.34,3.01,2.78l3.36-0.12c-0.25-3.24-2.37-5.77-6.35-5.77c-3.79,0-6.66,2.74-6.66,6.74
			c0,4,2.87,6.74,6.66,6.74c3.98,0,6.1-2.52,6.35-5.75l-3.36-0.14c-0.21,1.44-0.99,2.78-3.01,2.78c-1.92,0-3.03-1.42-3.03-3.63
			C317.7,588.29,318.81,586.87,320.73,586.87z"/>
		<path d="M331.11,591.82c-2,0.35-3.28,1.11-3.28,2.89c0,1.57,1.17,2.49,2.97,2.49c1.46,0,2.51-0.56,3.05-1.63
			c0.31,1.05,1.2,1.63,2.33,1.63c0.95,0,1.61-0.27,2.08-0.6v-1.77c-0.27,0.1-0.47,0.14-0.74,0.14c-0.35,0-0.56-0.21-0.56-0.68v-3.13
			c0-2.56-1.79-3.61-4.23-3.61c-2.76,0-4.27,1.4-4.56,3.42l3.09,0.21c0.14-0.68,0.51-1.15,1.26-1.15c0.8,0,1.15,0.45,1.15,1.22v0.14
			L331.11,591.82z M333.69,593.16c0,1.2-0.76,1.9-1.71,1.9c-0.56,0-0.93-0.31-0.93-0.78c0-0.6,0.47-0.85,1.28-1.01l1.36-0.25V593.16
			z"/>
		<path d="M339.23,587.8v12.49h3.34v-4.87c0.45,1.07,1.48,1.81,3.03,1.81c2.7,0,4.08-2.12,4.08-4.84c0-2.7-1.38-4.84-4.08-4.84
			c-1.55,0-2.58,0.74-3.03,1.83v-1.59H339.23z M344.43,590.15c1.3,0,1.9,0.93,1.9,2.25c0,1.34-0.6,2.27-1.9,2.27
			c-1.13,0-1.86-0.87-1.86-2.21v-0.12C342.57,591.02,343.29,590.15,344.43,590.15z"/>
		<rect x="350.98" y="584.01" width="3.38" height="2.93"/>
		<rect x="351" y="587.8" width="3.34" height="9.19"/>
		<path d="M359.49,597.24c1.26,0,2.06-0.31,2.76-0.82v-2.16c-0.56,0.23-1.01,0.31-1.42,0.31c-0.68,0-1.05-0.31-1.05-1.09v-3.36h2.39
			v-2.31h-2.39v-2.54h-2.1l-0.31,1.2c-0.23,0.85-0.51,1.34-1.44,1.48l-0.68,0.1v2.06h1.24v4.33
			C356.48,596.6,357.95,597.24,359.49,597.24z"/>
		<path d="M366.27,591.82c-2,0.35-3.28,1.11-3.28,2.89c0,1.57,1.18,2.49,2.97,2.49c1.46,0,2.51-0.56,3.05-1.63
			c0.31,1.05,1.2,1.63,2.33,1.63c0.95,0,1.61-0.27,2.08-0.6v-1.77c-0.27,0.1-0.47,0.14-0.74,0.14c-0.35,0-0.56-0.21-0.56-0.68v-3.13
			c0-2.56-1.79-3.61-4.23-3.61c-2.76,0-4.27,1.4-4.56,3.42l3.09,0.21c0.14-0.68,0.51-1.15,1.26-1.15c0.8,0,1.15,0.45,1.15,1.22v0.14
			L366.27,591.82z M368.85,593.16c0,1.2-0.76,1.9-1.71,1.9c-0.56,0-0.93-0.31-0.93-0.78c0-0.6,0.47-0.85,1.28-1.01l1.36-0.25V593.16
			z"/>
		<rect x="374.39" y="584.01" width="3.34" height="12.99"/>
		<rect x="379.55" y="587.8" width="3.34" height="9.19"/>
		<rect x="379.53" y="584.01" width="3.38" height="2.93"/>
		<path d="M388.7,595.16c-1.01,0-1.63-0.43-1.75-1.2l-2.91,0.04c0.19,2.23,2.08,3.24,4.62,3.24c2.62,0,4.27-1.11,4.27-3.05
			c0-1.79-1.2-2.72-3.26-3.05l-1.79-0.31c-0.31-0.04-0.56-0.21-0.56-0.52c0-0.41,0.37-0.66,1.01-0.66c1.03,0,1.61,0.41,1.73,1.07
			l2.74-0.08c-0.19-1.92-1.75-3.09-4.41-3.09c-2.58,0-4.16,1.3-4.16,3.11c0,1.88,1.18,2.6,3.4,2.95l1.36,0.21
			c0.64,0.1,0.85,0.35,0.85,0.7C389.83,594.89,389.44,595.16,388.7,595.16z"/>
		<path d="M409.68,596.99v-5.77c0-1.92-0.74-3.67-3.28-3.67c-1.55,0-2.64,0.78-3.13,1.81c-0.39-1.07-1.24-1.81-2.87-1.81
			c-1.38,0-2.37,0.62-2.87,1.63v-1.38h-3.34v9.19h3.34v-4.51c0-1.38,0.39-2.29,1.48-2.29c1.01,0,1.26,0.66,1.26,1.92v4.89h3.34
			v-4.51c0-1.38,0.37-2.29,1.48-2.29c1.01,0,1.24,0.66,1.24,1.92v4.89H409.68z"/>
		<rect x="413.27" y="584.01" width="3.5" height="12.99"/>
		<path d="M422.67,595.16c-1.01,0-1.63-0.43-1.75-1.2l-2.91,0.04c0.19,2.23,2.08,3.24,4.62,3.24c2.62,0,4.27-1.11,4.27-3.05
			c0-1.79-1.2-2.72-3.26-3.05l-1.79-0.31c-0.31-0.04-0.56-0.21-0.56-0.52c0-0.41,0.37-0.66,1.01-0.66c1.03,0,1.61,0.41,1.73,1.07
			l2.74-0.08c-0.19-1.92-1.75-3.09-4.41-3.09c-2.58,0-4.16,1.3-4.16,3.11c0,1.88,1.18,2.6,3.4,2.95l1.36,0.21
			c0.64,0.1,0.85,0.35,0.85,0.7C423.8,594.89,423.41,595.16,422.67,595.16z"/>
		<path d="M429.07,596.99h3.52l0.97-2.51h5.07l0.97,2.51h3.73l-5.17-12.99h-3.92L429.07,596.99z M436.05,588.03h0.08l1.48,3.83
			h-3.05L436.05,588.03z"/>
		<polygon points="452.1,592.64 452.01,592.64 448.8,584.01 445.13,584.01 450.12,596.99 453.81,596.99 458.8,584.01 455.31,584.01 
					"/>
		<rect x="459.7" y="587.8" width="3.34" height="9.19"/>
		<rect x="459.68" y="584.01" width="3.38" height="2.93"/>
		<path d="M468.19,592.79c0-1.55,0.76-2.12,2-2.12c0.64,0,1.13,0.12,1.59,0.39l0.21-3.15c-0.23-0.19-0.72-0.35-1.28-0.35
			c-1.22,0-2.19,0.85-2.52,1.88v-1.63h-3.34v9.19h3.34V592.79z"/>
		<path d="M482.41,596.99v-9.19h-3.34v4.51c0,1.4-0.41,2.31-1.46,2.31c-1.01,0-1.36-0.68-1.36-1.92v-4.91h-3.34v5.79
			c0,1.92,0.76,3.65,3.28,3.65c1.38,0,2.39-0.6,2.89-1.63v1.38H482.41z"/>
		<path d="M488.22,595.16c-1.01,0-1.63-0.43-1.75-1.2l-2.91,0.04c0.19,2.23,2.08,3.24,4.62,3.24c2.62,0,4.27-1.11,4.27-3.05
			c0-1.79-1.2-2.72-3.26-3.05l-1.79-0.31c-0.31-0.04-0.56-0.21-0.56-0.52c0-0.41,0.37-0.66,1.01-0.66c1.03,0,1.61,0.41,1.73,1.07
			l2.74-0.08c-0.19-1.92-1.75-3.09-4.41-3.09c-2.58,0-4.16,1.3-4.16,3.11c0,1.88,1.17,2.6,3.4,2.95l1.36,0.21
			c0.64,0.1,0.85,0.35,0.85,0.7C489.36,594.89,488.97,595.16,488.22,595.16z"/>
	</g>
</g>
</svg>
