<?xml version="1.0" encoding="utf-8"?>
<!-- Generator: Adobe Illustrator 23.1.1, SVG Export Plug-In . SVG Version: 6.00 Build 0)  -->
<svg version="1.1" xmlns="http://www.w3.org/2000/svg" xmlns:xlink="http://www.w3.org/1999/xlink" x="0px" y="0px"
	 viewBox="0 0 792 612" style="enable-background:new 0 0 792 612;" xml:space="preserve">
<style type="text/css">
	.st0{display:none;}
	.st1{display:inline;fill:#FFFFFF;}
	.st2{display:inline;}
	.st3{fill:#FFFFFF;stroke:#000000;stroke-width:16;stroke-linecap:round;stroke-linejoin:round;stroke-miterlimit:10;}
	.st4{fill:none;stroke:#000000;stroke-width:24;stroke-linejoin:round;stroke-miterlimit:10;}
	.st5{fill:#FFFFFF;}
	.st6{fill:#FFFFFF;stroke:#000000;stroke-width:17;stroke-linecap:round;stroke-miterlimit:10;}
	.st7{fill:#FFFFFF;stroke:#000000;stroke-width:17;stroke-miterlimit:10;}
	.st8{stroke:#000000;stroke-width:16.0572;stroke-linecap:round;stroke-miterlimit:10;}
	.st9{fill:#FFFFFF;stroke:#000000;stroke-width:13.497;stroke-linecap:round;stroke-linejoin:round;stroke-miterlimit:10;}
	.st10{stroke:#000000;stroke-width:18.3348;stroke-linecap:round;stroke-miterlimit:10;}
	.st11{fill:none;stroke:#000000;stroke-width:13.497;stroke-linecap:round;stroke-linejoin:round;stroke-miterlimit:10;}
	.st12{fill:#FFFFFF;stroke:#000000;stroke-width:14.6942;stroke-linecap:round;stroke-linejoin:round;stroke-miterlimit:10;}
	.st13{fill:none;stroke:#000000;stroke-width:13;stroke-linecap:round;stroke-linejoin:round;stroke-miterlimit:10;}
	.st14{fill:none;stroke:#000000;stroke-width:13;stroke-linejoin:round;stroke-miterlimit:10;}
	.st15{fill:url(#);stroke:#000000;stroke-width:13;stroke-linejoin:round;stroke-miterlimit:10;}
	.st16{fill:none;stroke:#000000;stroke-width:30.5612;stroke-linecap:round;stroke-linejoin:round;stroke-miterlimit:10;}
	.st17{fill:#FFFFFF;stroke:#000000;stroke-width:16.2993;stroke-linecap:round;stroke-linejoin:round;stroke-miterlimit:10;}
	.st18{fill:#FFFFFF;stroke:#000000;stroke-width:13.497;stroke-linecap:round;stroke-miterlimit:10;}
	.st19{fill:url(#);stroke:#000000;stroke-width:13.497;stroke-linecap:round;stroke-linejoin:round;stroke-miterlimit:10;}
	.st20{fill:#FFFFFF;stroke:#000000;stroke-width:11.7326;stroke-linecap:round;stroke-linejoin:round;stroke-miterlimit:10;}
	.st21{fill:#FFFFFF;stroke:#000000;stroke-width:13.2623;stroke-linecap:round;stroke-linejoin:round;stroke-miterlimit:10;}
	.st22{fill:#FFFFFF;stroke:#000000;stroke-width:13.2623;stroke-linecap:round;stroke-miterlimit:10;}
	.st23{stroke:#000000;stroke-width:4.5213;stroke-miterlimit:10;}
	.st24{fill:none;stroke:#000000;stroke-width:16;stroke-linecap:round;stroke-miterlimit:10;}
	.st25{fill:url(#);stroke:#000000;stroke-width:16;stroke-linecap:round;stroke-linejoin:round;stroke-miterlimit:10;}
	.st26{fill:#FFFFFF;stroke:#000000;stroke-width:16;stroke-linecap:round;stroke-miterlimit:10;}
	.st27{font-family:'FoundersGrotesk-Bold';}
	.st28{font-size:20.6105px;}
	.st29{font-size:10.3052px;}
	.st30{font-size:19.2364px;}
	.st31{font-size:10px;}
	.st32{fill:none;stroke:#000000;stroke-width:16;stroke-linecap:round;stroke-linejoin:round;stroke-miterlimit:10;}
	.st33{fill:none;stroke:#000000;stroke-width:15.2344;stroke-linecap:round;stroke-linejoin:round;stroke-miterlimit:10;}
	.st34{fill:#FFFFFF;stroke:#000000;stroke-width:15.2344;stroke-linecap:round;stroke-linejoin:round;stroke-miterlimit:10;}
	.st35{fill:#FFFFFF;stroke:#000000;stroke-width:17;stroke-linecap:round;stroke-linejoin:round;stroke-miterlimit:10;}
	.st36{fill:none;stroke:#000000;stroke-width:9.9764;stroke-linecap:round;stroke-linejoin:round;stroke-miterlimit:10;}
	.st37{fill:none;stroke:#000000;stroke-width:9.3127;stroke-linejoin:round;stroke-miterlimit:10;}
	.st38{fill:url(#);}
	.st39{fill:none;stroke:#000000;stroke-width:8.3796;stroke-linecap:round;stroke-linejoin:round;stroke-miterlimit:10;}
	
		.st40{display:inline;fill:none;stroke:#000000;stroke-width:9.9764;stroke-linecap:round;stroke-linejoin:round;stroke-miterlimit:10;}
	.st41{display:inline;fill:none;stroke:#000000;stroke-width:9.3127;stroke-linejoin:round;stroke-miterlimit:10;}
	.st42{display:inline;fill:url(#);stroke:#000000;stroke-width:10;stroke-linejoin:round;stroke-miterlimit:10;}
	.st43{fill:#FFFFFF;stroke:#000000;stroke-width:14.7375;stroke-linecap:round;stroke-linejoin:round;stroke-miterlimit:10;}
	.st44{fill:none;stroke:#000000;stroke-width:14.7375;stroke-linecap:round;stroke-linejoin:round;stroke-miterlimit:10;}
	.st45{stroke:#000000;stroke-width:14.7375;stroke-linecap:round;stroke-linejoin:round;stroke-miterlimit:10;}
	.st46{fill:#FFFFFF;stroke:#000000;stroke-width:14.2911;stroke-linecap:round;stroke-linejoin:round;stroke-miterlimit:10;}
	.st47{fill:none;stroke:#000000;stroke-width:15;stroke-linecap:round;stroke-linejoin:round;stroke-miterlimit:10;}
	.st48{fill:#FFFFFF;stroke:#000000;stroke-width:15;stroke-linecap:round;stroke-linejoin:round;stroke-miterlimit:10;}
	.st49{fill:#FFFFFF;stroke:#000000;stroke-width:14.8467;stroke-linecap:round;stroke-linejoin:round;stroke-miterlimit:10;}
	.st50{stroke:#000000;stroke-width:20.1683;stroke-linecap:round;stroke-miterlimit:10;}
	.st51{fill:none;stroke:#000000;stroke-width:14.8467;stroke-linecap:round;stroke-linejoin:round;stroke-miterlimit:10;}
	.st52{fill:none;stroke:#000000;stroke-width:13.497;stroke-miterlimit:10;}
	.st53{fill:#FFFFFF;stroke:#000000;stroke-width:13.497;stroke-miterlimit:10;}
	.st54{fill:#FFFFFF;stroke:#000000;stroke-width:14.7439;stroke-linecap:round;stroke-miterlimit:10;}
	.st55{fill:#FFFFFF;stroke:#000000;stroke-width:14.7439;stroke-miterlimit:10;}
	.st56{stroke:#000000;stroke-width:13.9262;stroke-linecap:round;stroke-miterlimit:10;}
	.st57{fill:#FFFFFF;stroke:#000000;stroke-width:17.1072;stroke-linecap:round;stroke-linejoin:round;stroke-miterlimit:10;}
	.st58{stroke:#000000;stroke-width:17.1072;stroke-linecap:round;stroke-linejoin:round;stroke-miterlimit:10;}
	.st59{fill:#FFFFFF;stroke:#000000;stroke-width:15;stroke-linecap:square;stroke-linejoin:round;stroke-miterlimit:10;}
	.st60{fill:#FFFFFF;stroke:#000000;stroke-width:15;stroke-linejoin:round;stroke-miterlimit:10;}
	.st61{fill:#FFFFFF;stroke:#000000;stroke-width:14;stroke-linecap:round;stroke-linejoin:round;stroke-miterlimit:10;}
	.st62{fill:#FFFFFF;stroke:#000000;stroke-width:13;stroke-linecap:round;stroke-linejoin:round;stroke-miterlimit:10;}
	.st63{fill:#FFFFFF;stroke:#000000;stroke-width:15.2362;stroke-linecap:round;stroke-linejoin:round;stroke-miterlimit:10;}
	.st64{fill:#FFFFFF;stroke:#FFFFFF;stroke-width:3;stroke-miterlimit:10;}
	.st65{fill:#FFFFFF;stroke:#000000;stroke-width:13.3058;stroke-linecap:round;stroke-linejoin:round;stroke-miterlimit:10;}
	.st66{fill:#FFFFFF;stroke:#000000;stroke-width:15.2517;stroke-linecap:round;stroke-linejoin:round;stroke-miterlimit:10;}
	.st67{stroke:#000000;stroke-width:3;stroke-miterlimit:10;}
</style>
<g id="unexpanded" class="st0">
	<rect x="-3937.75" y="-3205.56" class="st1" width="14663.41" height="9108.82"/>
	<g class="st2">
		<rect x="-1.17" y="-612" class="st5" width="792" height="1224"/>
		<g>
			<g>
				<g>
					<path class="st3" d="M544.2,217.14c-43.09,43.09-100.88,100.88-100.88,100.88c-8.06,8.06-8.06,21.13,0,29.18
						c8.06,8.06,21.13,8.06,29.18,0c0,0,46.61-46.61,89.7-89.7"/>
					<path class="st3" d="M593.93,286.59C549.04,331.47,503.51,377,503.51,377c-8.39,8.39-8.39,22,0,30.4c8.39,8.39,22,8.39,30.4,0
						c0,0,48.55-48.55,93.44-93.44"/>
					<path class="st3" d="M552.91,266.8c-44.89,44.89-96.02,96.02-96.02,96.02c-8.39,8.39-8.39,22,0,30.4c8.39,8.39,22,8.39,30.4,0
						c0,0,48.55-48.55,93.44-93.44"/>
					<path class="st3" d="M777.83,179.63c-14.92,13.43-26.15,23.07-34.57,30.9c-5.78,5.38-9.16,13.09-8.26,20.93
						c2,17.5-4.32,35.07-21.25,54.49c-26.58,30.49-85.85,85.85-85.85,85.85"/>
					<path class="st3" d="M615.39,220.16c-34.1,12.74-59.99-5.58-59.99-5.58s-29.36,6.64-60.95,10.44
						c-18.5,2.23-31.01-16.44-28.55-28.64c1.34-6.67,8.46-6.58,18.1-10.67c15.74-6.68,52.37-21.84,52.37-21.84
						s17.97-6.54,45.72-20.91c18.46-9.55,59.4-3.96,59.4-3.96C661.39,119.1,689.98,86.02,753,21.2"/>
					<path class="st3" d="M627.35,313.96c-43.09,43.09-46.15,46.15-46.15,46.15c-8.06,8.06-8.06,21.13,0,29.18
						c8.06,8.06,21.13,8.06,29.18,0c0,0,23.37-21.63,66.46-64.72"/>
				</g>
			</g>
			<g>
				<g>
					<path class="st3" d="M197.42,357.17c43.09-43.09,100.88-100.88,100.88-100.88c8.06-8.06,21.13-8.06,29.18,0
						c8.06,8.06,8.06,21.13,0,29.18c0,0-46.61,46.61-89.7,89.7"/>
					<path class="st3" d="M266.86,406.9c44.89-44.89,90.42-90.42,90.42-90.42c8.39-8.39,22-8.39,30.4,0c8.39,8.39,8.39,22,0,30.4
						c0,0-48.55,48.55-93.44,93.44"/>
					<path class="st3" d="M247.08,365.88c44.89-44.89,96.02-96.02,96.02-96.02c8.39-8.39,22-8.39,30.4,0c8.39,8.39,8.39,22,0,30.4
						c0,0-48.55,48.55-93.44,93.44"/>
					<path class="st3" d="M159.91,590.8c13.43-14.92,23.07-26.15,30.9-34.57c5.38-5.78,13.09-9.16,20.93-8.26
						c17.5,2,35.07-4.32,54.49-21.25c30.49-26.58,85.85-85.85,85.85-85.85"/>
					<path class="st3" d="M200.44,428.37c12.74-34.1-5.58-59.99-5.58-59.99s6.64-29.36,10.44-60.95
						c2.23-18.5-16.44-31.01-28.64-28.55c-6.67,1.34-6.58,8.46-10.67,18.1c-6.68,15.74-21.84,52.37-21.84,52.37
						s-6.54,17.97-20.91,45.72c-9.55,18.46-3.96,59.4-3.96,59.4c-17.67,17.67-45.71,42.17-97.11,91.52"/>
					<path class="st3" d="M294.24,440.32c43.09-43.09,46.15-46.15,46.15-46.15c8.06-8.06,21.13-8.06,29.18,0
						c8.06,8.06,8.06,21.13,0,29.18c0,0-21.63,23.37-64.72,66.46"/>
				</g>
			</g>
		</g>
		<text transform="matrix(0 -1 1 0 30.8615 342.6864)"><tspan x="0" y="0" class="st27 st28">www</tspan><tspan x="45.14" y="0" class="st27 st29"> </tspan><tspan x="46.99" y="0" class="st27 st28">.</tspan><tspan x="51.77" y="0" class="st27 st29"> </tspan><tspan x="53.63" y="0" class="st27 st28">Capitalism</tspan><tspan x="150.43" y="0" class="st27 st30"> </tspan><tspan x="153.9" y="0" class="st27 st28">Is</tspan><tspan x="168.88" y="0" class="st27 st30"> </tspan><tspan x="172.34" y="0" class="st27 st28">A</tspan><tspan x="186.6" y="0" class="st27 st29"> </tspan><tspan x="188.46" y="0" class="st27 st28">Virus</tspan><tspan x="236.15" y="0" class="st27 st29"> </tspan><tspan x="238.01" y="0" class="st27 st28">.</tspan><tspan x="242.79" y="0" class="st27 st29"> </tspan><tspan x="244.64" y="0" class="st27 st28">org</tspan></text>
		<text transform="matrix(0 1 -1 0 765.9287 344.0444)"><tspan x="0" y="0" class="st27 st28">#</tspan><tspan x="12.7" y="0" class="st27 st31"> </tspan><tspan x="14.5" y="0" class="st27 st28">Capitalism</tspan><tspan x="111.3" y="0" class="st27 st31"> </tspan><tspan x="113.1" y="0" class="st27 st28">Is</tspan><tspan x="128.09" y="0" class="st27 st31"> </tspan><tspan x="129.89" y="0" class="st27 st28">A</tspan><tspan x="144.15" y="0" class="st27 st31"> </tspan><tspan x="145.95" y="0" class="st27 st28">Virus</tspan></text>
	</g>
</g>
<g id="exp_trnsp_bg">
	<g>
	</g>
	<path d="M772.47,173.68c-6.53,5.88-12.38,11.06-17.55,15.63c-6.61,5.85-12.32,10.9-17.12,15.36c-7.89,7.33-11.91,17.69-10.76,27.7
		c0.49,4.27,0.37,8.5-0.32,12.76c-1.87,11.45-8.08,23.02-19.02,35.56c-10.2,11.7-25.44,27.26-40.22,41.88l0.03,0.01
		c-40.15,40.05-62.35,60.64-62.58,60.85c-0.08,0.07-0.15,0.14-0.22,0.21c-2.39,2.39-5.56,3.7-8.94,3.7s-6.55-1.31-8.94-3.7
		c-2.39-2.39-3.7-5.56-3.7-8.94s1.31-6.55,3.7-8.94L633,319.62c1.13-1.13,1.85-2.52,2.16-3.98c0.55-2.56-0.17-5.34-2.16-7.33
		c-3.12-3.12-8.19-3.12-11.31,0l-0.56,0.56l-45.59,45.59l-47.29,47.29c-5.26,5.26-13.82,5.26-19.09,0c-5.26-5.26-5.26-13.82,0-19.09
		l77.22-77.22c0,0,0,0,0-0.01l13.19-13.19c0.19-0.19,0.37-0.39,0.53-0.59c2.58-3.14,2.4-7.79-0.53-10.73
		c-3.12-3.12-8.19-3.12-11.31,0l-12.72,12.72l0.02,0.03c-0.17,0.14-0.34,0.29-0.5,0.45l-93.44,93.44c-2.55,2.55-5.94,3.95-9.54,3.95
		c-3.6,0-6.99-1.4-9.54-3.95c-2.55-2.55-3.95-5.94-3.95-9.54s1.4-6.99,3.95-9.54l15.61-15.61l79.93-79.93l0.48-0.48l9.3-9.3
		c3.12-3.12,3.12-8.19,0-11.31c-2.41-2.41-5.97-2.95-8.91-1.64c-0.87,0.39-1.69,0.93-2.4,1.64l-9.3,9.3l-80.41,80.41
		c-4.93,4.93-12.94,4.93-17.87,0c-4.93-4.93-4.93-12.94,0-17.87l98.72-98.72l0.73-0.73c2.24-0.46,4.11-0.85,5.54-1.16
		c8.56,4.87,33.35,16.11,64.24,4.57c4.14-1.55,6.24-6.16,4.69-10.29c-0.59-1.59-1.65-2.88-2.95-3.78c-2.08-1.44-4.8-1.87-7.35-0.92
		c-29.48,11.02-51.68-4-52.57-4.62c-1.85-1.31-4.17-1.77-6.38-1.27c-0.29,0.07-29.36,6.59-60.15,10.3
		c-7.37,0.89-12.37-3.2-14.7-5.72c-4.33-4.69-5.66-10.16-5.07-13.3c0.88-0.58,3.44-1.42,5.34-2.04c2.37-0.77,5.05-1.65,8.06-2.93
		c15.02-6.38,49.57-20.68,52.15-21.75c2.04-0.75,19.71-7.4,46.49-21.26c13.26-6.86,43.94-4.59,54.64-3.14
		c2.48,0.34,4.97-0.5,6.74-2.27c8.33-8.33,17.9-18.65,31.14-32.94c12.04-13,27.01-29.14,46.29-49.42
		c10.13-10.65,21.45-22.45,34.17-35.53c3.08-3.17,3.01-8.23-0.16-11.31c-3.17-3.08-8.23-3.01-11.31,0.16
		c-37.05,38.11-62.29,65.34-80.72,85.22c-11.68,12.6-20.47,22.09-27.99,29.75c-11.56-1.26-42.96-3.63-60.15,5.27
		c-26.89,13.92-44.61,20.43-44.79,20.5c-0.11,0.04-0.22,0.08-0.32,0.13c-0.37,0.15-36.84,15.25-52.43,21.87
		c-2.38,1.01-4.62,1.74-6.78,2.45c-6.3,2.06-14.14,4.63-16.03,14c-1.78,8.82,1.75,19.58,8.98,27.41
		c6.56,7.1,15.31,10.99,24.46,10.99c1.29,0,2.6-0.08,3.9-0.24c8.82-1.06,17.43-2.34,25.29-3.62l-83.03,83.03
		c-11.16,11.17-11.16,29.33,0,40.5c3.27,3.27,7.13,5.57,11.25,6.92c-4.09,5.18-6.31,11.53-6.31,18.23c0,7.88,3.07,15.29,8.64,20.86
		c5.75,5.75,13.3,8.62,20.86,8.62c6.55,0,13.1-2.17,18.48-6.5c1.37,4.41,3.8,8.56,7.28,12.05c5.75,5.75,13.3,8.63,20.86,8.62
		c7.55,0,15.11-2.88,20.86-8.62l29.11-29.11c1.39,4.1,3.71,7.86,6.86,11.01c5.41,5.41,12.6,8.39,20.25,8.39
		c7.6,0,14.74-2.94,20.13-8.27c1.77-1.64,24.83-23.13,65.22-63.49c14.2-14.1,28.61-28.9,38.62-40.38
		c17.91-20.55,25.49-40.39,23.17-60.65c-0.3-2.59,0.15-5.26,1.22-7.77c1-2.33,2.53-4.52,4.54-6.39c0.52-0.48,1.05-0.97,1.59-1.47
		c4.33-3.98,9.43-8.49,15.23-13.62c5.19-4.59,11.07-9.79,17.65-15.72c3.28-2.96,3.55-8.01,0.59-11.3
		C780.82,170.99,775.76,170.73,772.47,173.68z"/>
	<path d="M381.28,303.54c4.22-5.22,6.51-11.67,6.51-18.48c0-7.88-3.07-15.29-8.64-20.86c-5.57-5.57-12.98-8.64-20.86-8.64
		c-6.7,0-13.05,2.23-18.23,6.31c-1.36-4.11-3.66-7.98-6.92-11.25c-11.17-11.17-29.33-11.17-40.5,0l-83.03,83.03
		c1.29-7.86,2.56-16.46,3.62-25.29c1.27-10.54-2.65-20.88-10.75-28.37c-7.83-7.24-18.59-10.76-27.41-8.98
		c-9.37,1.89-11.94,9.73-14,16.03c-0.71,2.16-1.44,4.4-2.45,6.78c-6.62,15.6-21.72,52.07-21.87,52.43c-0.04,0.1-0.09,0.21-0.12,0.32
		c-0.06,0.18-6.58,17.9-20.5,44.79c-8.9,17.2-6.53,48.6-5.27,60.15c-7.66,7.52-17.15,16.31-29.75,28
		c-16.47,15.26-36.96,34.26-64.48,60.68c-3.19,3.06-3.29,8.12-0.23,11.31c1.57,1.64,3.67,2.46,5.77,2.46c1.99,0,3.99-0.74,5.54-2.23
		c12.11-11.62,22.85-21.8,32.48-30.86c12.19-11.46,22.62-21.13,31.79-29.63c14.29-13.24,24.61-22.81,32.95-31.15
		c1.77-1.77,2.61-4.26,2.27-6.74c-1.46-10.69-3.74-41.35,3.14-54.64c13.86-26.78,20.5-44.45,21.26-46.49
		c1.07-2.58,15.38-37.13,21.75-52.15c1.28-3.01,2.15-5.69,2.93-8.06c0.62-1.9,1.46-4.46,2.04-5.34c3.15-0.59,8.62,0.74,13.3,5.07
		c2.52,2.33,6.61,7.33,5.72,14.7c-3.71,30.79-10.24,59.86-10.3,60.15c-0.49,2.18-0.03,4.51,1.25,6.35
		c0.64,0.93,15.66,23.13,4.64,52.61c-0.93,2.49-0.53,5.14,0.82,7.2c0.9,1.37,2.22,2.48,3.87,3.09c4.14,1.55,8.75-0.56,10.29-4.69
		c11.54-30.89,0.3-55.68-4.57-64.24c0.31-1.43,0.7-3.3,1.16-5.54l0.73-0.73l98.72-98.72c4.93-4.93,12.94-4.93,17.87,0
		c4.93,4.93,4.93,12.94,0,17.87l-80.41,80.41l-9.3,9.3c-0.71,0.71-1.26,1.53-1.64,2.4c-1.31,2.94-0.77,6.5,1.64,8.91
		c1.56,1.56,3.61,2.34,5.66,2.34s4.09-0.78,5.66-2.34l9.3-9.3l0.48-0.48l79.93-79.93l15.61-15.61c2.55-2.55,5.94-3.95,9.54-3.95
		s6.99,1.4,9.54,3.95c5.26,5.26,5.26,13.82,0,19.09l-93.44,93.44c-0.16,0.16-0.31,0.33-0.45,0.5l-0.03-0.02l-12.72,12.72
		c-3.12,3.12-3.12,8.19,0,11.31c2.94,2.94,7.58,3.11,10.73,0.53c0.2-0.17,0.4-0.34,0.59-0.53l90.42-90.42
		c2.55-2.55,5.94-3.95,9.54-3.95c3.6,0,6.99,1.4,9.54,3.95c2.55,2.55,3.95,5.94,3.95,9.54c0,3.6-1.4,6.99-3.95,9.54l-92.88,92.88
		l-0.56,0.56c-3.12,3.12-3.12,8.19,0,11.31c0.39,0.39,0.81,0.73,1.25,1.03c1.33,0.88,2.87,1.32,4.4,1.32c0.56,0,1.12-0.06,1.68-0.18
		v0c0.96-0.2,1.88-0.58,2.73-1.14c0.44-0.29,0.86-0.63,1.25-1.03l46.15-46.15c4.93-4.93,12.94-4.93,17.87,0
		c4.93,4.93,4.93,12.94,0,17.87c-0.07,0.07-0.14,0.15-0.21,0.22c-0.21,0.23-20.8,22.43-60.85,62.57l-0.01-0.03
		c-14.62,14.78-30.18,30.01-41.89,40.22c-12.55,10.94-24.11,17.15-35.56,19.02c-4.25,0.69-8.49,0.81-12.76,0.32
		c-10.01-1.15-20.37,2.88-27.7,10.76c-4.46,4.79-9.51,10.5-15.35,17.11c-4.57,5.17-9.75,11.02-15.63,17.56
		c-2.96,3.28-2.69,8.34,0.59,11.3c1.53,1.38,3.44,2.05,5.35,2.05c2.19,0,4.37-0.89,5.95-2.65c5.93-6.58,11.13-12.47,15.72-17.66
		c5.13-5.8,9.64-10.9,13.62-15.22c0.5-0.54,0.99-1.07,1.47-1.59c1.87-2.01,4.06-3.54,6.38-4.54c2.52-1.08,5.19-1.52,7.78-1.23
		c20.26,2.32,40.11-5.26,60.65-23.17c11.51-10.03,26.33-24.47,40.45-38.68c40.32-40.35,61.78-63.39,63.42-65.16
		c11.05-11.18,11.01-29.26-0.11-40.38c-3.21-3.21-6.99-5.49-11.02-6.85l29.12-29.12c5.57-5.57,8.64-12.98,8.64-20.86
		s-3.07-15.29-8.64-20.86C389.85,307.34,385.7,304.92,381.28,303.54z"/>
	<polygon points="30.86,303.64 30.86,300.36 21.67,297.45 21.67,300.46 26.88,302.11 26.88,302.19 21.67,303.53 21.67,306.19 
		26.88,307.53 26.88,307.62 21.67,309.27 21.67,312.5 21.67,312.58 21.67,315.51 26.88,317.16 26.88,317.24 21.67,318.58 
		21.67,321.24 26.88,322.58 26.88,322.66 21.67,324.31 21.67,327.54 21.67,327.63 21.67,330.55 26.88,332.2 26.88,332.29 
		21.67,333.63 21.67,336.28 26.88,337.62 26.88,337.71 21.67,339.36 21.67,342.68 30.86,339.77 30.86,336.49 25.67,335.15 
		25.67,335.07 30.86,333.73 30.86,330.45 21.8,327.59 30.86,324.72 30.86,321.45 25.67,320.11 25.67,320.02 30.86,318.68 
		30.86,315.41 21.8,312.54 30.86,309.68 30.86,306.4 25.67,305.06 25.67,304.98 	"/>
	<rect x="27.32" y="291.48" width="3.55" height="3.55"/>
	<path d="M24.37,288.59c4,0,6.74-2.87,6.74-6.66c0-3.98-2.52-6.1-5.75-6.35l-0.14,3.36c1.44,0.21,2.78,0.99,2.78,3.01
		c0,1.92-1.42,3.03-3.63,3.03c-2.21,0-3.63-1.11-3.63-3.03c0-2.02,1.34-2.8,2.78-3.01l-0.12-3.36c-3.24,0.25-5.77,2.37-5.77,6.35
		C17.63,285.73,20.37,288.59,24.37,288.59z"/>
	<path d="M31.07,266.5c0-0.95-0.27-1.61-0.6-2.08H28.7c0.1,0.27,0.14,0.47,0.14,0.74c0,0.35-0.21,0.56-0.68,0.56h-3.13
		c-2.56,0-3.61,1.79-3.61,4.23c0,2.76,1.4,4.27,3.42,4.56l0.21-3.09c-0.68-0.14-1.15-0.52-1.15-1.26c0-0.8,0.45-1.15,1.22-1.15h0.14
		l0.43,2.58c0.35,2,1.11,3.28,2.89,3.28c1.57,0,2.49-1.17,2.49-2.97c0-1.46-0.56-2.52-1.63-3.05
		C30.49,268.52,31.07,267.63,31.07,266.5z M28.14,271.63c-0.6,0-0.85-0.47-1.01-1.28l-0.25-1.36h0.14c1.2,0,1.9,0.76,1.9,1.71
		C28.92,271.26,28.61,271.63,28.14,271.63z"/>
	<path d="M34.16,260.11h-4.86c1.07-0.45,1.81-1.48,1.81-3.03c0-2.7-2.12-4.08-4.84-4.08c-2.7,0-4.84,1.38-4.84,4.08
		c0,1.55,0.74,2.58,1.83,3.03h-1.59v3.34h12.49V260.11z M26.33,260.11H26.2c-1.32,0-2.19-0.72-2.19-1.86c0-1.3,0.93-1.9,2.25-1.9
		c1.34,0,2.27,0.6,2.27,1.9C28.53,259.39,27.67,260.11,26.33,260.11z"/>
	<rect x="17.87" y="248.32" width="2.93" height="3.38"/>
	<rect x="21.67" y="248.34" width="9.19" height="3.34"/>
	<path d="M19.13,245l1.2,0.31c0.85,0.23,1.34,0.52,1.48,1.44l0.1,0.68h2.06v-1.24h4.33c2.16,0,2.8-1.46,2.8-3.01
		c0-1.26-0.31-2.06-0.82-2.76h-2.16c0.23,0.56,0.31,1.01,0.31,1.42c0,0.68-0.31,1.05-1.09,1.05h-3.36v-2.39h-2.31v2.39h-2.54V245z"
		/>
	<path d="M28.16,230.55h-3.13c-2.56,0-3.61,1.79-3.61,4.23c0,2.76,1.4,4.27,3.42,4.56l0.21-3.09c-0.68-0.14-1.15-0.52-1.15-1.26
		c0-0.8,0.45-1.15,1.22-1.15h0.14l0.43,2.58c0.35,2,1.11,3.28,2.89,3.28c1.57,0,2.49-1.17,2.49-2.97c0-1.46-0.56-2.52-1.63-3.05
		c1.05-0.31,1.63-1.2,1.63-2.33c0-0.95-0.27-1.61-0.6-2.08H28.7c0.1,0.27,0.14,0.47,0.14,0.74
		C28.84,230.35,28.64,230.55,28.16,230.55z M28.92,235.54c0,0.56-0.31,0.93-0.78,0.93c-0.6,0-0.85-0.47-1.01-1.28l-0.25-1.36h0.14
		C28.22,233.83,28.92,234.59,28.92,235.54z"/>
	<rect x="17.87" y="224.95" width="12.99" height="3.34"/>
	<rect x="21.67" y="219.8" width="9.19" height="3.34"/>
	<rect x="17.87" y="219.78" width="2.93" height="3.38"/>
	<path d="M24.53,218.46c1.88,0,2.6-1.17,2.95-3.4l0.21-1.36c0.1-0.64,0.35-0.85,0.7-0.85c0.37,0,0.64,0.39,0.64,1.13
		c0,1.01-0.43,1.63-1.2,1.75l0.04,2.91c2.23-0.19,3.24-2.08,3.24-4.62c0-2.62-1.11-4.27-3.05-4.27c-1.79,0-2.72,1.2-3.05,3.26
		l-0.31,1.79c-0.04,0.31-0.21,0.56-0.52,0.56c-0.41,0-0.66-0.37-0.66-1.01c0-1.03,0.41-1.61,1.07-1.73l-0.08-2.74
		c-1.92,0.19-3.09,1.75-3.09,4.41C21.42,216.87,22.72,218.46,24.53,218.46z"/>
	<path d="M21.42,202.28c0,1.38,0.62,2.37,1.63,2.87h-1.38v3.34h9.19v-3.34h-4.51c-1.38,0-2.29-0.39-2.29-1.48
		c0-1.01,0.66-1.26,1.92-1.26h4.89v-3.34h-4.51c-1.38,0-2.29-0.37-2.29-1.48c0-1.01,0.66-1.24,1.92-1.24h4.89V193h-5.77
		c-1.92,0-3.67,0.74-3.67,3.28c0,1.55,0.78,2.64,1.81,3.13C22.16,199.8,21.42,200.65,21.42,202.28z"/>
	<rect x="17.87" y="184.24" width="12.99" height="3.5"/>
	<path d="M27.83,180.1l0.04,2.91c2.23-0.19,3.24-2.08,3.24-4.62c0-2.62-1.11-4.27-3.05-4.27c-1.79,0-2.72,1.2-3.05,3.26l-0.31,1.79
		c-0.04,0.31-0.21,0.56-0.52,0.56c-0.41,0-0.66-0.37-0.66-1.01c0-1.03,0.41-1.61,1.07-1.73l-0.08-2.74
		c-1.92,0.19-3.09,1.75-3.09,4.41c0,2.58,1.3,4.16,3.11,4.16c1.88,0,2.6-1.18,2.95-3.4l0.21-1.36c0.1-0.64,0.35-0.85,0.7-0.85
		c0.37,0,0.64,0.39,0.64,1.13C29.03,179.36,28.59,179.98,27.83,180.1z"/>
	<path d="M17.87,165.12l12.99,5.17v-3.52l-2.51-0.97v-5.07l2.51-0.97v-3.73l-12.99,5.17V165.12z M21.89,163.22l3.83-1.48v3.05
		l-3.83-1.48V163.22z"/>
	<polygon points="17.87,150.5 17.87,154.17 30.86,149.19 30.86,145.5 17.87,140.51 17.87,143.99 26.51,147.21 26.51,147.29 	"/>
	<rect x="17.87" y="136.24" width="2.93" height="3.38"/>
	<rect x="21.67" y="136.26" width="9.19" height="3.34"/>
	<path d="M23.3,131.11h-1.63v3.34h9.19v-3.34h-4.21c-1.55,0-2.12-0.76-2.12-2c0-0.64,0.12-1.13,0.39-1.59l-3.15-0.21
		c-0.19,0.23-0.35,0.72-0.35,1.28C21.42,129.81,22.27,130.78,23.3,131.11z"/>
	<path d="M26.57,123.05h-4.91v3.34h5.79c1.92,0,3.65-0.76,3.65-3.28c0-1.38-0.6-2.39-1.63-2.89h1.38v-3.34h-9.19v3.34h4.51
		c1.4,0,2.31,0.41,2.31,1.46C28.49,122.7,27.81,123.05,26.57,123.05z"/>
	<path d="M24.53,115.55c1.88,0,2.6-1.18,2.95-3.4l0.21-1.36c0.1-0.64,0.35-0.85,0.7-0.85c0.37,0,0.64,0.39,0.64,1.13
		c0,1.01-0.43,1.63-1.2,1.75l0.04,2.91c2.23-0.19,3.24-2.08,3.24-4.62c0-2.62-1.11-4.27-3.05-4.27c-1.79,0-2.72,1.2-3.05,3.26
		l-0.31,1.79c-0.04,0.31-0.21,0.56-0.52,0.56c-0.41,0-0.66-0.37-0.66-1.01c0-1.03,0.41-1.61,1.07-1.73l-0.08-2.74
		c-1.92,0.19-3.09,1.75-3.09,4.41C21.42,113.96,22.72,115.55,24.53,115.55z"/>
	<rect x="27.32" y="100.46" width="3.55" height="3.55"/>
	<path d="M26.26,97.58c2.87,0,4.84-2.02,4.84-5.03c0-2.99-1.98-5.03-4.84-5.03c-2.84,0-4.84,2.04-4.84,5.03
		C21.42,95.56,23.42,97.58,26.26,97.58z M26.26,90.88c1.38,0,2.33,0.52,2.33,1.67c0,1.17-0.95,1.67-2.33,1.67
		c-1.38,0-2.33-0.49-2.33-1.67C23.94,91.39,24.88,90.88,26.26,90.88z"/>
	<path d="M21.77,79.07c-0.19,0.23-0.35,0.72-0.35,1.28c0,1.22,0.85,2.19,1.88,2.52h-1.63v3.34h9.19v-3.34h-4.21
		c-1.55,0-2.12-0.76-2.12-2c0-0.64,0.12-1.13,0.39-1.59L21.77,79.07z"/>
	<path d="M24.57,69.46c-0.43,0-0.82,0.1-1.18,0.29c-0.1-0.45-0.14-0.95-0.14-1.34h-2.52c0,1.01,0.66,2.02,1.42,2.58
		c-0.47,0.78-0.74,1.83-0.74,2.95c0,2.58,1.2,4.43,3.15,4.43c1.01,0,1.79-0.49,2.33-1.32c0.37,0.99,1.05,1.57,1.94,1.57
		c0.78,0,1.53-0.49,1.79-1.32c0.08,1.03,0.72,1.75,1.53,1.75c1.73,0,2.25-2.27,2.25-4.89c0-2.99-1.05-5.77-3.34-5.77
		c-1.55,0-2.64,1.05-2.64,3.13v3.81c0,0.56-0.25,0.78-0.56,0.78c-0.19,0-0.33-0.06-0.43-0.19c0.19-0.6,0.27-1.26,0.27-2
		C27.71,71.34,26.51,69.46,24.57,69.46z M24.57,74.86c-0.8,0-1.32-0.41-1.32-0.97c0-0.56,0.52-0.97,1.32-0.97
		c0.82,0,1.34,0.41,1.34,0.97C25.91,74.45,25.4,74.86,24.57,74.86z M31.27,72.31c0-0.56,0.14-0.85,0.54-0.85
		c0.56,0,0.87,1.13,0.87,2.68c0,1.24-0.19,2.16-0.84,2.16c-0.35,0-0.56-0.25-0.56-0.62V72.31z"/>
	<path d="M765.93,349.73v2.49l3.42,0.8v2.04l2.06,0.43v-1.98l2.02,0.5v1.88l2.06,0.43v-1.83l3.42,0.82v-2.49l-3.42-0.82v-1.77
		l3.42,0.82v-2.49l-3.42-0.82v-2.02l-2.06-0.43v1.98l-2.02-0.49v-1.88l-2.06-0.43v1.81l-3.42-0.8v2.49l3.42,0.8v1.77L765.93,349.73z
		 M771.41,349.26l2.02,0.49v1.77l-2.02-0.5V349.26z"/>
	<path d="M772.42,358.95c-4,0-6.74,2.87-6.74,6.66c0,3.98,2.51,6.1,5.75,6.35l0.14-3.36c-1.44-0.21-2.78-0.99-2.78-3.01
		c0-1.92,1.42-3.03,3.63-3.03s3.63,1.11,3.63,3.03c0,2.02-1.34,2.8-2.78,3.01l0.12,3.36c3.24-0.25,5.77-2.37,5.77-6.35
		C779.16,361.82,776.42,358.95,772.42,358.95z"/>
	<path d="M765.72,381.05c0,0.95,0.27,1.61,0.6,2.08h1.77c-0.1-0.27-0.14-0.47-0.14-0.74c0-0.35,0.21-0.56,0.68-0.56h3.13
		c2.56,0,3.61-1.79,3.61-4.23c0-2.76-1.4-4.27-3.42-4.56l-0.21,3.09c0.68,0.14,1.15,0.52,1.15,1.26c0,0.8-0.45,1.15-1.22,1.15h-0.14
		l-0.43-2.58c-0.35-2-1.11-3.28-2.89-3.28c-1.57,0-2.49,1.17-2.49,2.97c0,1.46,0.56,2.51,1.63,3.05
		C766.3,379.03,765.72,379.91,765.72,381.05z M768.65,375.92c0.6,0,0.85,0.47,1.01,1.28l0.25,1.36h-0.14c-1.2,0-1.9-0.76-1.9-1.71
		C767.87,376.29,768.18,375.92,768.65,375.92z"/>
	<path d="M762.63,387.44h4.86c-1.07,0.45-1.81,1.48-1.81,3.03c0,2.7,2.12,4.08,4.84,4.08c2.7,0,4.84-1.38,4.84-4.08
		c0-1.55-0.74-2.58-1.83-3.03h1.59v-3.34h-12.49V387.44z M770.46,387.44h0.12c1.32,0,2.18,0.72,2.18,1.85c0,1.3-0.93,1.9-2.25,1.9
		c-1.34,0-2.27-0.6-2.27-1.9C768.26,388.16,769.12,387.44,770.46,387.44z"/>
	<rect x="775.99" y="395.84" width="2.93" height="3.38"/>
	<rect x="765.93" y="395.87" width="9.19" height="3.34"/>
	<path d="M777.66,402.54l-1.2-0.31c-0.85-0.23-1.34-0.52-1.48-1.44l-0.1-0.68h-2.06v1.24h-4.33c-2.16,0-2.8,1.46-2.8,3.01
		c0,1.26,0.31,2.06,0.82,2.76h2.16c-0.23-0.56-0.31-1.01-0.31-1.42c0-0.68,0.31-1.05,1.09-1.05h3.36v2.39h2.31v-2.39h2.54V402.54z"
		/>
	<path d="M768.63,416.99h3.13c2.56,0,3.61-1.79,3.61-4.23c0-2.76-1.4-4.27-3.42-4.56l-0.21,3.09c0.68,0.14,1.15,0.52,1.15,1.26
		c0,0.8-0.45,1.15-1.22,1.15h-0.14l-0.43-2.58c-0.35-2-1.11-3.28-2.89-3.28c-1.57,0-2.49,1.17-2.49,2.97c0,1.46,0.56,2.52,1.63,3.05
		c-1.05,0.31-1.63,1.2-1.63,2.33c0,0.95,0.27,1.61,0.6,2.08h1.77c-0.1-0.27-0.14-0.47-0.14-0.74
		C767.95,417.2,768.16,416.99,768.63,416.99z M767.87,412c0-0.56,0.31-0.93,0.78-0.93c0.6,0,0.85,0.47,1.01,1.28l0.25,1.36h-0.14
		C768.57,413.71,767.87,412.95,767.87,412z"/>
	<rect x="765.93" y="419.26" width="12.99" height="3.34"/>
	<rect x="775.99" y="424.39" width="2.93" height="3.38"/>
	<rect x="765.93" y="424.41" width="9.19" height="3.34"/>
	<path d="M772.26,429.09c-1.88,0-2.6,1.17-2.95,3.4l-0.21,1.36c-0.1,0.64-0.35,0.85-0.7,0.85c-0.37,0-0.64-0.39-0.64-1.13
		c0-1.01,0.43-1.63,1.2-1.75l-0.04-2.91c-2.23,0.19-3.24,2.08-3.24,4.62c0,2.62,1.11,4.27,3.05,4.27c1.79,0,2.72-1.2,3.05-3.26
		l0.31-1.79c0.04-0.31,0.21-0.56,0.52-0.56c0.41,0,0.66,0.37,0.66,1.01c0,1.03-0.41,1.61-1.07,1.73l0.08,2.74
		c1.92-0.19,3.09-1.75,3.09-4.41C775.37,430.68,774.07,429.09,772.26,429.09z"/>
	<path d="M775.37,445.27c0-1.38-0.62-2.37-1.63-2.87h1.38v-3.34h-9.19v3.34h4.51c1.38,0,2.29,0.39,2.29,1.48
		c0,1.01-0.66,1.26-1.92,1.26h-4.89v3.34h4.51c1.38,0,2.29,0.37,2.29,1.48c0,1.01-0.66,1.24-1.92,1.24h-4.89v3.34h5.77
		c1.92,0,3.67-0.74,3.67-3.28c0-1.55-0.78-2.64-1.81-3.13C774.63,447.74,775.37,446.9,775.37,445.27z"/>
	<rect x="765.93" y="458.14" width="12.99" height="3.5"/>
	<path d="M768.96,465.78l-0.04-2.91c-2.23,0.19-3.24,2.08-3.24,4.62c0,2.62,1.11,4.27,3.05,4.27c1.79,0,2.72-1.2,3.05-3.26
		l0.31-1.79c0.04-0.31,0.21-0.56,0.52-0.56c0.41,0,0.66,0.37,0.66,1.01c0,1.03-0.41,1.61-1.07,1.73l0.08,2.74
		c1.92-0.19,3.09-1.75,3.09-4.41c0-2.58-1.3-4.16-3.11-4.16c-1.88,0-2.6,1.17-2.95,3.4l-0.21,1.36c-0.1,0.64-0.35,0.85-0.7,0.85
		c-0.37,0-0.64-0.39-0.64-1.13C767.76,466.52,768.2,465.91,768.96,465.78z"/>
	<path d="M765.93,477.46l2.51,0.97v5.07l-2.51,0.97v3.73l12.99-5.17v-3.92l-12.99-5.17V477.46z M771.06,479.43l3.83,1.48V481
		l-3.83,1.48V479.43z"/>
	<polygon points="765.93,498.67 778.92,503.66 778.92,500.18 770.28,496.96 770.28,496.88 778.92,493.66 778.92,489.99 
		765.93,494.98 	"/>
	<rect x="765.93" y="504.56" width="9.19" height="3.34"/>
	<rect x="775.99" y="504.54" width="2.93" height="3.38"/>
	<path d="M773.49,513.06h1.63v-3.34h-9.19v3.34h4.21c1.55,0,2.12,0.76,2.12,2c0,0.64-0.12,1.13-0.39,1.59l3.15,0.21
		c0.19-0.23,0.35-0.72,0.35-1.28C775.37,514.35,774.52,513.39,773.49,513.06z"/>
	<path d="M770.22,521.11h4.91v-3.34h-5.79c-1.92,0-3.65,0.76-3.65,3.28c0,1.38,0.6,2.39,1.63,2.89h-1.38v3.34h9.19v-3.34h-4.51
		c-1.4,0-2.31-0.41-2.31-1.46C768.3,521.46,768.98,521.11,770.22,521.11z"/>
	<path d="M772.26,528.62c-1.88,0-2.6,1.18-2.95,3.4l-0.21,1.36c-0.1,0.64-0.35,0.85-0.7,0.85c-0.37,0-0.64-0.39-0.64-1.13
		c0-1.01,0.43-1.63,1.2-1.75l-0.04-2.91c-2.23,0.19-3.24,2.08-3.24,4.62c0,2.62,1.11,4.27,3.05,4.27c1.79,0,2.72-1.2,3.05-3.26
		l0.31-1.79c0.04-0.31,0.21-0.56,0.52-0.56c0.41,0,0.66,0.37,0.66,1.01c0,1.03-0.41,1.61-1.07,1.73l0.08,2.74
		c1.92-0.19,3.09-1.75,3.09-4.41C775.37,530.2,774.07,528.62,772.26,528.62z"/>
</g>
<g id="exp_white_bg" class="st0">
	<g class="st2">
		<path class="st5" d="M31.83,76.31c0.66,0,0.84-0.93,0.84-2.16c0-1.55-0.31-2.68-0.87-2.68c-0.39,0-0.54,0.29-0.54,0.85v3.38
			C31.27,76.06,31.48,76.31,31.83,76.31z"/>
		<path class="st5" d="M27.03,233.83h-0.14l0.25,1.36c0.16,0.8,0.41,1.28,1.01,1.28c0.47,0,0.78-0.37,0.78-0.93
			C28.92,234.59,28.22,233.83,27.03,233.83z"/>
		<path class="st5" d="M27.03,268.99h-0.14l0.25,1.36c0.16,0.8,0.41,1.28,1.01,1.28c0.47,0,0.78-0.37,0.78-0.93
			C28.92,269.75,28.22,268.99,27.03,268.99z"/>
		<path class="st5" d="M24.57,72.93c-0.8,0-1.32,0.41-1.32,0.97c0,0.56,0.52,0.97,1.32,0.97c0.82,0,1.34-0.41,1.34-0.97
			C25.91,73.34,25.4,72.93,24.57,72.93z"/>
		<path class="st5" d="M26.26,256.36c-1.32,0-2.25,0.6-2.25,1.9c0,1.13,0.87,1.86,2.19,1.86h0.12c1.34,0,2.21-0.72,2.21-1.86
			C28.53,256.96,27.6,256.36,26.26,256.36z"/>
		<polygon class="st5" points="25.73,161.74 21.89,163.22 21.89,163.3 25.73,164.79 		"/>
		<path class="st5" d="M26.26,94.22c1.38,0,2.33-0.49,2.33-1.67c0-1.15-0.95-1.67-2.33-1.67c-1.38,0-2.33,0.52-2.33,1.67
			C23.94,93.72,24.88,94.22,26.26,94.22z"/>
		<path class="st5" d="M-1.17,612h792V-612h-792V612z M393.33,352.54l-29.12,29.12c4.03,1.36,7.81,3.65,11.02,6.85
			c11.13,11.13,11.17,29.21,0.11,40.38c-1.64,1.77-23.11,24.81-63.42,65.16c-14.12,14.22-28.94,28.65-40.45,38.68
			c-20.55,17.91-40.39,25.49-60.65,23.17c-2.59-0.3-5.26,0.15-7.78,1.23c-2.32,1-4.52,2.53-6.38,4.54
			c-0.48,0.52-0.97,1.05-1.47,1.59c-3.97,4.33-8.48,9.42-13.62,15.22c-4.59,5.19-9.8,11.08-15.72,17.66
			c-1.58,1.75-3.76,2.65-5.95,2.65c-1.91,0-3.82-0.68-5.35-2.05c-3.28-2.96-3.55-8.01-0.59-11.3c5.88-6.53,11.06-12.39,15.63-17.56
			c5.85-6.61,10.89-12.32,15.35-17.11c7.33-7.89,17.69-11.91,27.7-10.76c4.27,0.49,8.5,0.37,12.76-0.32
			c11.45-1.87,23.02-8.08,35.56-19.02c11.71-10.2,27.26-25.44,41.89-40.22l0.01,0.03c40.05-40.15,60.64-62.35,60.85-62.57
			c0.07-0.08,0.14-0.15,0.21-0.22c4.93-4.93,4.93-12.94,0-17.87c-4.93-4.93-12.94-4.93-17.87,0l-46.15,46.15
			c-0.39,0.39-0.81,0.73-1.25,1.03c-0.84,0.56-1.77,0.93-2.73,1.14v0c-0.55,0.12-1.11,0.18-1.68,0.18c-1.54,0-3.07-0.44-4.4-1.32
			c-0.44-0.29-0.86-0.63-1.25-1.03c-3.12-3.12-3.12-8.19,0-11.31l0.56-0.56l92.88-92.88c2.55-2.55,3.95-5.94,3.95-9.54
			c0-3.6-1.4-6.99-3.95-9.54c-2.55-2.55-5.94-3.95-9.54-3.95c-3.6,0-6.99,1.4-9.54,3.95l-90.42,90.42
			c-0.19,0.19-0.39,0.37-0.59,0.53c-3.14,2.58-7.79,2.4-10.73-0.53c-3.12-3.12-3.12-8.19,0-11.31l12.72-12.72l0.03,0.02
			c0.14-0.17,0.29-0.34,0.45-0.5l93.44-93.44c5.26-5.26,5.26-13.82,0-19.09c-2.55-2.55-5.94-3.95-9.54-3.95s-6.99,1.4-9.54,3.95
			l-15.61,15.61l-79.93,79.93l-0.48,0.48l-9.3,9.3c-1.56,1.56-3.61,2.34-5.66,2.34s-4.09-0.78-5.66-2.34
			c-2.41-2.41-2.95-5.97-1.64-8.91c0.39-0.87,0.93-1.69,1.64-2.4l9.3-9.3l80.41-80.41c4.93-4.93,4.93-12.94,0-17.87
			c-4.93-4.93-12.94-4.93-17.87,0l-98.72,98.72l-0.73,0.73c-0.46,2.24-0.85,4.11-1.16,5.54c4.87,8.56,16.11,33.35,4.57,64.24
			c-1.55,4.14-6.16,6.24-10.29,4.69c-1.65-0.62-2.97-1.73-3.87-3.09c-1.36-2.06-1.75-4.71-0.82-7.2c11.01-29.48-4-51.68-4.64-52.61
			c-1.28-1.84-1.74-4.17-1.25-6.35c0.07-0.29,6.59-29.36,10.3-60.15c0.89-7.37-3.2-12.37-5.72-14.7c-4.69-4.33-10.16-5.66-13.3-5.07
			c-0.58,0.88-1.42,3.44-2.04,5.34c-0.77,2.37-1.65,5.05-2.93,8.06c-6.38,15.02-20.69,49.58-21.75,52.15
			c-0.75,2.04-7.4,19.71-21.26,46.49c-6.88,13.3-4.6,43.95-3.14,54.64c0.34,2.48-0.5,4.97-2.27,6.74
			c-8.33,8.33-18.66,17.9-32.95,31.15c-9.17,8.5-19.6,18.17-31.79,29.63c-9.64,9.06-20.38,19.24-32.48,30.86
			c-1.55,1.49-3.55,2.23-5.54,2.23c-2.1,0-4.2-0.82-5.77-2.46c-3.06-3.19-2.96-8.25,0.23-11.31c27.52-26.42,48.02-45.42,64.48-60.68
			c12.6-11.68,22.1-20.48,29.75-28c-1.26-11.55-3.63-42.96,5.27-60.15c13.92-26.89,20.43-44.61,20.5-44.79
			c0.04-0.11,0.08-0.21,0.12-0.32c0.15-0.37,15.25-36.84,21.87-52.43c1.01-2.38,1.74-4.62,2.45-6.78c2.06-6.3,4.63-14.14,14-16.03
			c8.82-1.78,19.58,1.75,27.41,8.98c8.1,7.49,12.02,17.83,10.75,28.37c-1.06,8.82-2.34,17.43-3.62,25.29l83.03-83.03
			c11.17-11.17,29.33-11.17,40.5,0c3.27,3.27,5.57,7.13,6.92,11.25c5.18-4.09,11.53-6.31,18.23-6.31c7.88,0,15.29,3.07,20.86,8.64
			c5.57,5.57,8.64,12.98,8.64,20.86c0,6.81-2.29,13.26-6.51,18.48c4.41,1.37,8.56,3.8,12.05,7.28c5.57,5.57,8.64,12.98,8.64,20.86
			S398.91,346.97,393.33,352.54z M17.87,143.99v-3.48l12.99,4.99v3.69l-12.99,4.99v-3.67l8.64-3.22v-0.08L17.87,143.99z
			 M27.87,76.12c0.31,0,0.56-0.23,0.56-0.78v-3.81c0-2.08,1.09-3.13,2.64-3.13c2.29,0,3.34,2.78,3.34,5.77
			c0,2.62-0.52,4.89-2.25,4.89c-0.8,0-1.44-0.72-1.53-1.75c-0.27,0.82-1.01,1.32-1.79,1.32c-0.89,0-1.57-0.58-1.94-1.57
			c-0.54,0.82-1.32,1.32-2.33,1.32c-1.96,0-3.15-1.86-3.15-4.43c0-1.11,0.27-2.16,0.74-2.95c-0.76-0.56-1.42-1.57-1.42-2.58h2.52
			c0,0.39,0.04,0.89,0.14,1.34c0.35-0.19,0.74-0.29,1.18-0.29c1.94,0,3.13,1.88,3.13,4.47c0,0.74-0.08,1.4-0.27,2
			C27.54,76.06,27.69,76.12,27.87,76.12z M31.07,271.88c0,1.79-0.93,2.97-2.49,2.97c-1.77,0-2.54-1.28-2.89-3.28l-0.43-2.58h-0.14
			c-0.76,0-1.22,0.35-1.22,1.15c0,0.74,0.47,1.11,1.15,1.26l-0.21,3.09c-2.02-0.29-3.42-1.79-3.42-4.56c0-2.43,1.05-4.23,3.61-4.23
			h3.13c0.47,0,0.68-0.21,0.68-0.56c0-0.27-0.04-0.47-0.14-0.74h1.77c0.33,0.47,0.6,1.13,0.6,2.08c0,1.13-0.58,2.02-1.63,2.33
			C30.51,269.36,31.07,270.41,31.07,271.88z M28.7,229.25h1.77c0.33,0.47,0.6,1.13,0.6,2.08c0,1.13-0.58,2.02-1.63,2.33
			c1.07,0.54,1.63,1.59,1.63,3.05c0,1.79-0.93,2.97-2.49,2.97c-1.77,0-2.54-1.28-2.89-3.28l-0.43-2.58h-0.14
			c-0.76,0-1.22,0.35-1.22,1.15c0,0.74,0.47,1.11,1.15,1.26l-0.21,3.09c-2.02-0.29-3.42-1.79-3.42-4.56c0-2.43,1.05-4.23,3.61-4.23
			h3.13c0.47,0,0.68-0.21,0.68-0.56C28.84,229.73,28.8,229.52,28.7,229.25z M21.42,196.28c0-2.54,1.75-3.28,3.67-3.28h5.77v3.34
			h-4.89c-1.26,0-1.92,0.23-1.92,1.24c0,1.11,0.91,1.48,2.29,1.48h4.51v3.34h-4.89c-1.26,0-1.92,0.25-1.92,1.26
			c0,1.09,0.91,1.48,2.29,1.48h4.51v3.34h-9.19v-3.34h1.38c-1.01-0.49-1.63-1.48-1.63-2.87c0-1.63,0.74-2.47,1.81-2.87
			C22.2,198.92,21.42,197.82,21.42,196.28z M24.51,209.88l0.08,2.74c-0.66,0.12-1.07,0.7-1.07,1.73c0,0.64,0.25,1.01,0.66,1.01
			c0.31,0,0.47-0.25,0.52-0.56l0.31-1.79c0.33-2.06,1.26-3.26,3.05-3.26c1.94,0,3.05,1.65,3.05,4.27c0,2.54-1.01,4.43-3.24,4.62
			l-0.04-2.91c0.76-0.12,1.2-0.74,1.2-1.75c0-0.74-0.27-1.13-0.64-1.13c-0.35,0-0.6,0.21-0.7,0.85l-0.21,1.36
			c-0.35,2.23-1.07,3.4-2.95,3.4c-1.81,0-3.11-1.59-3.11-4.16C21.42,211.63,22.6,210.07,24.51,209.88z M28.39,177.21
			c-0.35,0-0.6,0.21-0.7,0.85l-0.21,1.36c-0.35,2.23-1.07,3.4-2.95,3.4c-1.81,0-3.11-1.59-3.11-4.16c0-2.66,1.18-4.23,3.09-4.41
			l0.08,2.74c-0.66,0.12-1.07,0.7-1.07,1.73c0,0.64,0.25,1.01,0.66,1.01c0.31,0,0.47-0.25,0.52-0.56l0.31-1.79
			c0.33-2.06,1.26-3.26,3.05-3.26c1.94,0,3.05,1.65,3.05,4.27c0,2.54-1.01,4.43-3.24,4.62l-0.04-2.91c0.76-0.12,1.2-0.74,1.2-1.75
			C29.03,177.61,28.76,177.21,28.39,177.21z M26.66,82.86h4.21v3.34h-9.19v-3.34h1.63c-1.03-0.33-1.88-1.3-1.88-2.52
			c0-0.56,0.17-1.05,0.35-1.28l3.15,0.21c-0.27,0.45-0.39,0.95-0.39,1.59C24.53,82.1,25.11,82.86,26.66,82.86z M26.26,87.52
			c2.87,0,4.84,2.04,4.84,5.03c0,3.01-1.98,5.03-4.84,5.03c-2.84,0-4.84-2.02-4.84-5.03C21.42,89.56,23.42,87.52,26.26,87.52z
			 M30.86,100.46v3.55h-3.55v-3.55H30.86z M24.51,106.97l0.08,2.74c-0.66,0.12-1.07,0.7-1.07,1.73c0,0.64,0.25,1.01,0.66,1.01
			c0.31,0,0.47-0.25,0.52-0.56l0.31-1.79c0.33-2.06,1.26-3.26,3.05-3.26c1.94,0,3.05,1.65,3.05,4.27c0,2.54-1.01,4.43-3.24,4.62
			l-0.04-2.91c0.76-0.12,1.2-0.74,1.2-1.75c0-0.74-0.27-1.13-0.64-1.13c-0.35,0-0.6,0.21-0.7,0.85l-0.21,1.36
			c-0.35,2.23-1.07,3.4-2.95,3.4c-1.81,0-3.11-1.59-3.11-4.16C21.42,108.73,22.6,107.16,24.51,106.97z M26.18,120.23h-4.51v-3.34
			h9.19v3.34h-1.38c1.03,0.49,1.63,1.5,1.63,2.89c0,2.52-1.73,3.28-3.65,3.28h-5.79v-3.34h4.91c1.24,0,1.92-0.35,1.92-1.36
			C28.49,120.64,27.58,120.23,26.18,120.23z M21.77,127.32l3.15,0.21c-0.27,0.45-0.39,0.95-0.39,1.59c0,1.24,0.58,2,2.12,2h4.21
			v3.34h-9.19v-3.34h1.63c-1.03-0.33-1.88-1.3-1.88-2.52C21.42,128.04,21.58,127.54,21.77,127.32z M21.67,136.26h9.19v3.34h-9.19
			V136.26z M21.67,219.8h9.19v3.34h-9.19V219.8z M21.67,242.9v-2.39h2.31v2.39h3.36c0.78,0,1.09-0.37,1.09-1.05
			c0-0.41-0.08-0.87-0.31-1.42h2.16c0.52,0.7,0.82,1.5,0.82,2.76c0,1.55-0.64,3.01-2.8,3.01h-4.33v1.24h-2.06l-0.1-0.68
			c-0.14-0.93-0.64-1.22-1.48-1.44l-1.2-0.31v-2.1H21.67z M30.86,248.34v3.34h-9.19v-3.34H30.86z M21.67,263.45v-3.34h1.59
			c-1.09-0.45-1.83-1.48-1.83-3.03c0-2.7,2.14-4.08,4.84-4.08c2.72,0,4.84,1.38,4.84,4.08c0,1.55-0.74,2.58-1.81,3.03h4.86v3.34
			H21.67z M20.8,136.24v3.38h-2.93v-3.38H20.8z M30.86,156.03v3.73l-2.51,0.97v5.07l2.51,0.97v3.52l-12.99-5.17v-3.92L30.86,156.03z
			 M30.86,184.24v3.5H17.87v-3.5H30.86z M20.8,219.78v3.38h-2.93v-3.38H20.8z M30.86,224.95v3.34H17.87v-3.34H30.86z M20.8,248.32
			v3.38h-2.93v-3.38H20.8z M23.4,275.59l0.12,3.36c-1.44,0.21-2.78,0.99-2.78,3.01c0,1.92,1.42,3.03,3.63,3.03
			c2.21,0,3.63-1.11,3.63-3.03c0-2.02-1.34-2.8-2.78-3.01l0.14-3.36c3.24,0.25,5.75,2.37,5.75,6.35c0,3.79-2.74,6.66-6.74,6.66
			c-4,0-6.74-2.87-6.74-6.66C17.63,277.96,20.16,275.83,23.4,275.59z M30.86,306.4v3.28l-9.06,2.86l9.06,2.86v3.28l-5.19,1.34v0.08
			l5.19,1.34v3.28l-9.06,2.86l9.06,2.86v3.28l-5.19,1.34v0.08l5.19,1.34v3.28l-9.19,2.91v-3.32l5.22-1.65v-0.08l-5.22-1.34v-2.66
			l5.22-1.34v-0.08l-5.22-1.65v-2.92v-0.09v-3.23l5.22-1.65v-0.08l-5.22-1.34v-2.66l5.22-1.34v-0.08l-5.22-1.65v-2.92v-0.09v-3.23
			l5.22-1.65v-0.08l-5.22-1.34v-2.66l5.22-1.34v-0.08l-5.22-1.65v-3.01l9.19,2.91v3.28l-5.19,1.34v0.08L30.86,306.4z M27.32,295.02
			v-3.55h3.55v3.55H27.32z M52.4-262.74v-12.99h7.42v-2.2c0-13.46,8.35-20.53,20.76-20.53c9.74,0,16.47,4.87,18.56,13.46l-11.48,3.6
			c-1.16-2.32-2.55-3.6-4.99-3.6c-3.13,0-4.29,2.55-4.29,5.8v3.48h13.11v12.99H78.38V-224H59.82v-38.74H52.4z M121.18-277.12
			c16.82,0,28.3,11.25,28.3,27.26c0,16.12-11.48,27.26-28.3,27.26c-16.94,0-28.3-11.14-28.3-27.26
			C92.88-265.87,104.25-277.12,121.18-277.12z M101.39-155.66c16.82,0,28.3,11.25,28.3,27.26c0,16.12-11.48,27.26-28.3,27.26
			c-16.94,0-28.3-11.14-28.3-27.26C73.09-144.41,84.46-155.66,101.39-155.66z M221.57-102.53v-73.08h28.88
			c24.24,0,39.21,13.69,39.21,36.54s-14.96,36.54-39.21,36.54H221.57z M394.41-155.66c14.15,0,18.68,9.86,18.68,20.65v32.48h-18.79
			v-27.49c0-7.08-1.97-10.79-7.66-10.79c-6.38,0-8.93,5.1-8.93,12.88v25.4h-18.79v-51.73h18.79v7.77
			C380.49-152.18,386.63-155.66,394.41-155.66z M392.99-18.18l-1.36-0.21c-2.23-0.35-3.4-1.07-3.4-2.95c0-1.81,1.59-3.11,4.16-3.11
			c2.66,0,4.23,1.18,4.41,3.09l-2.74,0.08c-0.12-0.66-0.7-1.07-1.73-1.07c-0.64,0-1.01,0.25-1.01,0.66c0,0.31,0.25,0.47,0.56,0.52
			l1.79,0.31c2.06,0.33,3.26,1.26,3.26,3.05c0,1.94-1.65,3.05-4.27,3.05c-2.54,0-4.43-1.01-4.62-3.24l2.91-0.04
			c0.12,0.76,0.74,1.2,1.75,1.2c0.74,0,1.13-0.27,1.13-0.64C393.83-17.83,393.63-18.08,392.99-18.18z M383.53-25.07v-2.93h3.38v2.93
			H383.53z M386.89-24.2v9.19h-3.34v-9.19H386.89z M381.73-27.99v12.99h-3.34v-12.99H381.73z M371.7-21.97
			c-0.74,0-1.11,0.47-1.26,1.15l-3.09-0.21c0.29-2.02,1.79-3.42,4.56-3.42c2.43,0,4.23,1.05,4.23,3.61v3.13
			c0,0.47,0.21,0.68,0.56,0.68c0.27,0,0.47-0.04,0.74-0.14v1.77c-0.47,0.33-1.13,0.6-2.08,0.6c-1.13,0-2.02-0.58-2.33-1.63
			c-0.54,1.07-1.59,1.63-3.05,1.63c-1.79,0-2.97-0.93-2.97-2.49c0-1.77,1.28-2.54,3.28-2.89l2.58-0.43v-0.14
			C372.85-21.52,372.5-21.97,371.7-21.97z M359.25-21.89v-2.06l0.68-0.1c0.93-0.14,1.22-0.64,1.44-1.48l0.31-1.2h2.1v2.54h2.39v2.31
			h-2.39v3.36c0,0.78,0.37,1.09,1.05,1.09c0.41,0,0.87-0.08,1.42-0.31v2.16c-0.7,0.52-1.5,0.82-2.76,0.82
			c-1.55,0-3.01-0.64-3.01-2.8v-4.33H359.25z M329.17-222.6c-21.23,0-37.93-15.43-37.93-37.93s16.7-37.93,37.93-37.93
			s37.93,15.43,37.93,37.93S350.4-222.6,329.17-222.6z M354.98-25.07v-2.93h3.38v2.93H354.98z M358.34-24.2v9.19H355v-9.19H358.34z
			 M336.54-21.97c-0.74,0-1.11,0.47-1.26,1.15l-3.09-0.21c0.29-2.02,1.79-3.42,4.56-3.42c2.43,0,4.23,1.05,4.23,3.61v3.13
			c0,0.47,0.21,0.68,0.56,0.68c0.27,0,0.47-0.04,0.74-0.14v1.77c-0.47,0.33-1.13,0.6-2.08,0.6c-1.13,0-2.02-0.58-2.33-1.63
			c-0.54,1.07-1.59,1.63-3.05,1.63c-1.79,0-2.97-0.93-2.97-2.49c0-1.77,1.28-2.54,3.28-2.89l2.58-0.43v-0.14
			C337.69-21.52,337.34-21.97,336.54-21.97z M323.18-101.14c-16.94,0-28.3-11.14-28.3-27.26c0-16.01,11.37-27.26,28.3-27.26
			c16.82,0,28.3,11.25,28.3,27.26C351.48-112.28,340-101.14,323.18-101.14z M324.73-17.87c2.02,0,2.8-1.34,3.01-2.78l3.36,0.14
			c-0.25,3.24-2.37,5.75-6.35,5.75c-3.79,0-6.66-2.74-6.66-6.74c0-4,2.87-6.74,6.66-6.74c3.98,0,6.1,2.54,6.35,5.77l-3.36,0.12
			c-0.21-1.44-0.99-2.78-3.01-2.78c-1.92,0-3.03,1.42-3.03,3.63C321.7-19.29,322.81-17.87,324.73-17.87z M314.64-20.49l-0.43,2.06
			h-2.04l-0.8,3.42h-2.49l0.8-3.42h-1.77l-0.8,3.42h-2.49l0.8-3.42h-1.81l0.43-2.06h1.88l0.49-2.02h-1.98l0.43-2.06h2.02l0.82-3.42
			h2.49l-0.82,3.42h1.77l0.82-3.42h2.49l-0.82,3.42h1.83l-0.43,2.06h-1.88l-0.49,2.02H314.64z M343.23-24.2h3.34v1.59
			c0.45-1.09,1.48-1.83,3.03-1.83c2.7,0,4.08,2.14,4.08,4.84c0,2.72-1.38,4.84-4.08,4.84c-1.55,0-2.58-0.74-3.03-1.81v4.86h-3.34
			V-24.2z M413.68-15.01h-3.34v-4.89c0-1.26-0.23-1.92-1.24-1.92c-1.11,0-1.48,0.91-1.48,2.29v4.51h-3.34v-4.89
			c0-1.26-0.25-1.92-1.26-1.92c-1.09,0-1.48,0.91-1.48,2.29v4.51h-3.34v-9.19h3.34v1.38c0.49-1.01,1.48-1.63,2.87-1.63
			c1.63,0,2.47,0.74,2.87,1.81c0.5-1.03,1.59-1.81,3.13-1.81c2.54,0,3.28,1.75,3.28,3.67V-15.01z M420.78-15.01h-3.5v-12.99h3.5
			V-15.01z M419.93-158.21v-17.4h19.6v16.24c0,11.37-6.61,16.12-19.6,16.47v-8.93c5.57-0.23,8.7-1.74,8.82-6.38H419.93z
			 M515.93-268.89v16.01h-28.65v12.64h38.16V-224H467.9v-73.08h56.49v16.24h-37.12v11.95H515.93z M556.92-175.61h22.62l-28.19,31.09
			l29.58,41.99h-23.55l-20.3-29.12l-6.38,6.96v22.16h-19.72v-73.08h19.72v29.58L556.92-175.61z M492.51-18.18l-1.36-0.21
			c-2.23-0.35-3.4-1.07-3.4-2.95c0-1.81,1.59-3.11,4.16-3.11c2.66,0,4.23,1.18,4.41,3.09l-2.74,0.08c-0.12-0.66-0.7-1.07-1.73-1.07
			c-0.64,0-1.01,0.25-1.01,0.66c0,0.31,0.25,0.47,0.56,0.52l1.79,0.31c2.06,0.33,3.26,1.26,3.26,3.05c0,1.94-1.65,3.05-4.27,3.05
			c-2.54,0-4.43-1.01-4.62-3.24l2.91-0.04c0.12,0.76,0.74,1.2,1.75,1.2c0.74,0,1.13-0.27,1.13-0.64
			C493.36-17.83,493.15-18.08,492.51-18.18z M480.19-14.76c-2.52,0-3.28-1.73-3.28-3.65v-5.79h3.34v4.91c0,1.24,0.35,1.92,1.36,1.92
			c1.05,0,1.46-0.91,1.46-2.31v-4.51h3.34v9.19h-3.34v-1.38C482.58-15.36,481.57-14.76,480.19-14.76z M468.53-168.54v14.27h13.46
			v12.99h-13.46v18.91c0,4.41,2.09,6.15,5.92,6.15c2.32,0,4.87-0.46,8-1.74v12.18c-3.94,2.9-8.47,4.64-15.54,4.64
			c-8.7,0-16.94-3.6-16.94-15.78v-24.36h-6.96v-11.6l3.83-0.58c5.22-0.81,6.84-3.6,8.12-8.35l1.74-6.73H468.53z M474.71-24.45
			c0.56,0,1.05,0.17,1.28,0.35l-0.21,3.15c-0.45-0.27-0.95-0.39-1.59-0.39c-1.24,0-2,0.58-2,2.12v4.21h-3.34v-9.19h3.34v1.63
			C472.52-23.6,473.49-24.45,474.71-24.45z M463.68-25.07v-2.93h3.38v2.93H463.68z M467.04-24.2v9.19h-3.34v-9.19H467.04z
			 M462.8-27.99l-4.99,12.99h-3.69l-4.99-12.99h3.67l3.22,8.64h0.08l3.22-8.64H462.8z M447.33-15.01h-3.73l-0.97-2.51h-5.07
			l-0.97,2.51h-3.53l5.17-12.99h3.92L447.33-15.01z M422.01-18l2.91-0.04c0.12,0.76,0.74,1.2,1.75,1.2c0.74,0,1.13-0.27,1.13-0.64
			c0-0.35-0.21-0.6-0.85-0.7l-1.36-0.21c-2.23-0.35-3.4-1.07-3.4-2.95c0-1.81,1.59-3.11,4.16-3.11c2.66,0,4.23,1.18,4.41,3.09
			l-2.74,0.08c-0.12-0.66-0.7-1.07-1.73-1.07c-0.64,0-1.01,0.25-1.01,0.66c0,0.31,0.25,0.47,0.56,0.52l1.79,0.31
			c2.06,0.33,3.26,1.26,3.26,3.05c0,1.94-1.65,3.05-4.27,3.05C424.09-14.76,422.2-15.77,422.01-18z M765.72,375.67
			c0-1.79,0.93-2.97,2.49-2.97c1.77,0,2.54,1.28,2.89,3.28l0.43,2.58h0.14c0.76,0,1.22-0.35,1.22-1.15c0-0.74-0.47-1.11-1.15-1.26
			l0.21-3.09c2.02,0.29,3.42,1.79,3.42,4.56c0,2.43-1.05,4.23-3.61,4.23h-3.13c-0.47,0-0.68,0.21-0.68,0.56
			c0,0.27,0.04,0.47,0.14,0.74h-1.77c-0.33-0.47-0.6-1.13-0.6-2.08c0-1.13,0.58-2.02,1.63-2.33
			C766.28,378.18,765.72,377.13,765.72,375.67z M768.09,418.29h-1.77c-0.33-0.47-0.6-1.13-0.6-2.08c0-1.13,0.58-2.02,1.63-2.33
			c-1.07-0.54-1.63-1.59-1.63-3.05c0-1.79,0.93-2.97,2.49-2.97c1.77,0,2.54,1.28,2.89,3.28l0.43,2.58h0.14
			c0.76,0,1.22-0.35,1.22-1.15c0-0.74-0.47-1.11-1.15-1.26l0.21-3.09c2.02,0.29,3.42,1.79,3.42,4.56c0,2.43-1.05,4.23-3.61,4.23
			h-3.13c-0.47,0-0.68,0.21-0.68,0.56C767.95,417.82,767.99,418.02,768.09,418.29z M775.37,451.27c0,2.54-1.75,3.28-3.67,3.28h-5.77
			v-3.34h4.89c1.26,0,1.92-0.23,1.92-1.24c0-1.11-0.91-1.48-2.29-1.48h-4.51v-3.34h4.89c1.26,0,1.92-0.25,1.92-1.26
			c0-1.09-0.91-1.48-2.29-1.48h-4.51v-3.34h9.19v3.34h-1.38c1.01,0.49,1.63,1.48,1.63,2.87c0,1.63-0.74,2.47-1.81,2.87
			C774.59,448.63,775.37,449.72,775.37,451.27z M772.28,437.66l-0.08-2.74c0.66-0.12,1.07-0.7,1.07-1.73c0-0.64-0.25-1.01-0.66-1.01
			c-0.31,0-0.47,0.25-0.52,0.56l-0.31,1.79c-0.33,2.06-1.26,3.26-3.05,3.26c-1.94,0-3.05-1.65-3.05-4.27c0-2.54,1.01-4.43,3.24-4.62
			l0.04,2.91c-0.76,0.12-1.2,0.74-1.2,1.75c0,0.74,0.27,1.13,0.64,1.13c0.35,0,0.6-0.21,0.7-0.85l0.21-1.36
			c0.35-2.23,1.07-3.4,2.95-3.4c1.81,0,3.11,1.59,3.11,4.16C775.37,435.91,774.2,437.48,772.28,437.66z M768.4,468.67
			c0.35,0,0.6-0.21,0.7-0.85l0.21-1.36c0.35-2.23,1.07-3.4,2.95-3.4c1.81,0,3.11,1.59,3.11,4.16c0,2.66-1.17,4.23-3.09,4.41
			l-0.08-2.74c0.66-0.12,1.07-0.7,1.07-1.73c0-0.64-0.25-1.01-0.66-1.01c-0.31,0-0.47,0.25-0.52,0.56l-0.31,1.79
			c-0.33,2.06-1.26,3.26-3.05,3.26c-1.94,0-3.05-1.65-3.05-4.27c0-2.54,1.01-4.43,3.24-4.62l0.04,2.91c-0.76,0.12-1.2,0.74-1.2,1.75
			C767.76,468.28,768.03,468.67,768.4,468.67z M765.93,504.56h9.19v3.34h-9.19V504.56z M770.61,523.94h4.51v3.34h-9.19v-3.34h1.38
			c-1.03-0.5-1.63-1.5-1.63-2.89c0-2.52,1.73-3.28,3.65-3.28h5.79v3.34h-4.91c-1.24,0-1.92,0.35-1.92,1.36
			C768.3,523.53,769.21,523.94,770.61,523.94z M775.12,427.75h-9.19v-3.34h9.19V427.75z M775.12,404.65v2.39h-2.31v-2.39h-3.36
			c-0.78,0-1.09,0.37-1.09,1.05c0,0.41,0.08,0.87,0.31,1.42h-2.16c-0.52-0.7-0.82-1.5-0.82-2.76c0-1.55,0.64-3.01,2.8-3.01h4.33
			v-1.24h2.06l0.1,0.68c0.14,0.93,0.64,1.22,1.48,1.44l1.2,0.31v2.1H775.12z M765.93,399.21v-3.34h9.19v3.34H765.93z M775.12,384.1
			v3.34h-1.59c1.09,0.45,1.83,1.48,1.83,3.03c0,2.7-2.14,4.08-4.84,4.08c-2.72,0-4.84-1.38-4.84-4.08c0-1.55,0.74-2.58,1.81-3.03
			h-4.86v-3.34H775.12z M772.28,537.19l-0.08-2.74c0.66-0.12,1.07-0.7,1.07-1.73c0-0.64-0.25-1.01-0.66-1.01
			c-0.31,0-0.47,0.25-0.52,0.56l-0.31,1.79c-0.33,2.06-1.26,3.26-3.05,3.26c-1.94,0-3.05-1.65-3.05-4.27c0-2.54,1.01-4.43,3.24-4.62
			l0.04,2.91c-0.76,0.12-1.2,0.74-1.2,1.75c0,0.74,0.27,1.13,0.64,1.13c0.35,0,0.6-0.21,0.7-0.85l0.21-1.36
			c0.35-2.23,1.07-3.4,2.95-3.4c1.81,0,3.11,1.59,3.11,4.16C775.37,535.44,774.2,537.01,772.28,537.19z M775.02,516.85l-3.15-0.21
			c0.27-0.45,0.39-0.95,0.39-1.59c0-1.24-0.58-2-2.12-2h-4.21v-3.34h9.19v3.34h-1.63c1.03,0.33,1.88,1.3,1.88,2.52
			C775.37,516.13,775.21,516.62,775.02,516.85z M778.92,507.92h-2.93v-3.38h2.93V507.92z M778.92,493.66l-8.64,3.22v0.08l8.64,3.22
			v3.48l-12.99-4.99v-3.69l12.99-4.99V493.66z M778.92,483.02l-12.99,5.17v-3.73l2.51-0.97v-5.07l-2.51-0.97v-3.53l12.99,5.17
			V483.02z M778.92,461.64h-12.99v-3.5h12.99V461.64z M778.92,427.77h-2.93v-3.38h2.93V427.77z M778.92,422.6h-12.99v-3.34h12.99
			V422.6z M778.92,399.23h-2.93v-3.38h2.93V399.23z M773.39,371.96l-0.12-3.36c1.44-0.21,2.78-0.99,2.78-3.01
			c0-1.92-1.42-3.03-3.63-3.03s-3.63,1.11-3.63,3.03c0,2.02,1.34,2.8,2.78,3.01l-0.14,3.36c-3.24-0.25-5.75-2.37-5.75-6.35
			c0-3.79,2.74-6.66,6.74-6.66s6.74,2.87,6.74,6.66C779.16,369.59,776.63,371.71,773.39,371.96z M765.93,347.96v-2.49l3.42,0.8
			v-1.81l2.06,0.43v1.88l2.02,0.49v-1.98l2.06,0.43v2.02l3.42,0.82v2.49l-3.42-0.82V352l3.42,0.82v2.49l-3.42-0.82v1.83l-2.06-0.43
			v-1.88l-2.02-0.5v1.98l-2.06-0.43v-2.04l-3.42-0.8v-2.49l3.42,0.8v-1.77L765.93,347.96z M783.18,185.58
			c-6.58,5.92-12.46,11.13-17.65,15.72c-5.81,5.14-10.9,9.64-15.23,13.62c-0.54,0.5-1.08,0.99-1.59,1.47
			c-2.01,1.87-3.54,4.06-4.54,6.39c-1.08,2.52-1.52,5.19-1.22,7.77c2.32,20.26-5.26,40.1-23.17,60.65
			c-10.02,11.49-24.43,26.29-38.62,40.38c-40.39,40.36-63.46,61.84-65.22,63.49c-5.4,5.34-12.54,8.27-20.13,8.27
			c-7.65,0-14.84-2.98-20.25-8.39c-3.15-3.15-5.47-6.91-6.86-11.01l-29.11,29.11c-5.75,5.75-13.3,8.62-20.86,8.62
			c-7.55,0-15.11-2.87-20.86-8.62c-3.49-3.49-5.91-7.64-7.28-12.05c-5.38,4.33-11.93,6.5-18.48,6.5c-7.55,0-15.11-2.87-20.86-8.62
			c-5.57-5.57-8.64-12.98-8.64-20.86c0-6.7,2.23-13.05,6.31-18.23c-4.11-1.36-7.98-3.66-11.25-6.92c-11.17-11.17-11.17-29.33,0-40.5
			l83.03-83.03c-7.86,1.29-16.47,2.56-25.29,3.62c-1.31,0.16-2.61,0.24-3.9,0.24c-9.15,0-17.9-3.89-24.46-10.99
			c-7.24-7.83-10.76-18.59-8.98-27.41c1.89-9.37,9.73-11.94,16.03-14c2.16-0.71,4.4-1.44,6.78-2.45
			c15.6-6.62,52.07-21.72,52.43-21.87c0.11-0.04,0.21-0.09,0.32-0.13c0.17-0.06,17.89-6.58,44.79-20.5
			c17.2-8.9,48.6-6.53,60.15-5.27c7.51-7.66,16.31-17.15,27.99-29.75c18.43-19.88,43.66-47.11,80.72-85.22
			c3.08-3.17,8.15-3.24,11.31-0.16c3.17,3.08,3.24,8.14,0.16,11.31c-12.72,13.08-24.04,24.87-34.17,35.53
			c-19.28,20.28-34.25,36.42-46.29,49.42c-13.24,14.29-22.81,24.61-31.14,32.94c-1.77,1.77-4.26,2.61-6.74,2.27
			c-10.7-1.45-41.38-3.73-54.64,3.14c-26.78,13.86-44.46,20.51-46.49,21.26c-2.58,1.07-37.13,15.38-52.15,21.75
			c-3.01,1.28-5.69,2.15-8.06,2.93c-1.9,0.62-4.46,1.46-5.34,2.04c-0.59,3.15,0.74,8.61,5.07,13.3c2.33,2.52,7.33,6.61,14.7,5.72
			c30.79-3.71,59.86-10.24,60.15-10.3c2.21-0.5,4.53-0.04,6.38,1.27c0.9,0.62,23.09,15.64,52.57,4.62c2.55-0.95,5.27-0.52,7.35,0.92
			c1.3,0.9,2.35,2.18,2.95,3.78c1.55,4.14-0.56,8.75-4.69,10.29c-30.89,11.54-55.68,0.3-64.24-4.57c-1.43,0.31-3.3,0.7-5.54,1.16
			l-0.73,0.73l-98.72,98.72c-4.93,4.93-4.93,12.94,0,17.87c4.93,4.93,12.94,4.93,17.87,0l80.41-80.41l9.3-9.3
			c0.71-0.71,1.53-1.26,2.4-1.64c2.94-1.31,6.5-0.77,8.91,1.64c3.12,3.12,3.12,8.19,0,11.31l-9.3,9.3l-0.48,0.48l-79.93,79.93
			l-15.61,15.61c-2.55,2.55-3.95,5.94-3.95,9.54s1.4,6.99,3.95,9.54c2.55,2.55,5.94,3.95,9.54,3.95c3.6,0,6.99-1.4,9.54-3.95
			l93.44-93.44c0.16-0.16,0.33-0.31,0.5-0.45l-0.02-0.03l12.72-12.72c3.12-3.12,8.19-3.12,11.31,0c2.94,2.94,3.11,7.58,0.53,10.73
			c-0.17,0.2-0.34,0.4-0.53,0.59l-13.19,13.19c0,0,0,0,0,0.01l-77.22,77.22c-5.26,5.26-5.26,13.82,0,19.09
			c5.26,5.26,13.82,5.26,19.09,0l47.29-47.29l45.59-45.59l0.56-0.56c3.12-3.12,8.19-3.12,11.31,0c1.99,1.99,2.71,4.77,2.16,7.33
			c-0.31,1.46-1.03,2.85-2.16,3.98l-46.15,46.15c-2.39,2.39-3.7,5.56-3.7,8.94s1.31,6.55,3.7,8.94c2.39,2.39,5.56,3.7,8.94,3.7
			s6.55-1.31,8.94-3.7c0.07-0.07,0.15-0.14,0.22-0.21c0.23-0.21,22.43-20.8,62.58-60.85l-0.03-0.01
			c14.78-14.62,30.01-30.18,40.22-41.88c10.94-12.55,17.15-24.11,19.02-35.56c0.69-4.25,0.81-8.49,0.32-12.76
			c-1.15-10.01,2.88-20.37,10.76-27.7c4.8-4.46,10.51-9.51,17.12-15.36c5.17-4.57,11.02-9.75,17.55-15.63
			c3.28-2.96,8.34-2.69,11.3,0.59C786.73,177.56,786.46,182.62,783.18,185.58z M737.6-268.89v16.01h-28.65v12.64h38.16V-224h-57.53
			v-73.08h56.49v16.24h-37.12v11.95H737.6z M702.49-128.4c0,16.12-11.48,27.26-28.3,27.26c-16.94,0-28.3-11.14-28.3-27.26
			c0-16.01,11.37-27.26,28.3-27.26C691.01-155.66,702.49-144.41,702.49-128.4z M789.73-154.27l-16.36,51.73h-18.44l-7.54-29.23
			h-0.46l-7.54,29.23h-18.44l-16.36-51.73h18.68l9.28,29.35H733l7.54-29.35h14.96l7.54,29.35h0.46l9.28-29.35H789.73z
			 M616.09-513.74h154.58v35.83h-56.05v125.41h-43.25v-125.41h-55.28V-513.74z M613.02-297.07h18.79l28.54,40.48v-40.48h18.1V-224
			h-15.78l-31.55-43.27V-224h-18.1V-297.07z M620.37-155.66c14.15,0,18.68,9.86,18.68,20.65v32.48h-18.79v-27.49
			c0-7.08-1.97-10.79-7.66-10.79c-6.38,0-8.93,5.1-8.93,12.88v25.4h-18.79v-51.73h18.79v7.77
			C606.45-152.18,612.6-155.66,620.37-155.66z M605.13-260.53c0,22.5-16.7,37.93-37.93,37.93s-37.93-15.43-37.93-37.93
			s16.7-37.93,37.93-37.93S605.13-283.04,605.13-260.53z M547.5-513.74h43.51v161.24H547.5v-63.73h-64.24v63.73h-43.51v-161.24
			h43.51v62.19h64.24V-513.74z M466.05-588.45v-9.19h3.34v9.19H466.05z M527.04-590.47c0-0.89,0.58-1.57,1.57-1.94
			c-0.82-0.54-1.32-1.32-1.32-2.33c0-1.96,1.86-3.15,4.43-3.15c1.11,0,2.16,0.27,2.95,0.74c0.56-0.76,1.57-1.42,2.58-1.42v2.51
			c-0.39,0-0.89,0.04-1.34,0.14c0.19,0.35,0.29,0.74,0.29,1.17c0,1.94-1.88,3.13-4.47,3.13c-0.74,0-1.4-0.08-2-0.27
			c-0.12,0.1-0.19,0.25-0.19,0.43c0,0.31,0.23,0.56,0.78,0.56h3.81c2.08,0,3.13,1.09,3.13,2.64c0,2.29-2.78,3.34-5.77,3.34
			c-2.62,0-4.89-0.52-4.89-2.25c0-0.8,0.72-1.44,1.75-1.53C527.53-588.94,527.04-589.68,527.04-590.47z M519.45-597.64h3.34v1.63
			c0.33-1.03,1.3-1.88,2.51-1.88c0.56,0,1.05,0.16,1.28,0.35l-0.21,3.15c-0.45-0.27-0.95-0.39-1.59-0.39c-1.24,0-2,0.58-2,2.12v4.21
			h-3.34V-597.64z M513.1-597.89c2.99,0,5.03,2,5.03,4.84c0,2.87-2.04,4.84-5.03,4.84c-3.01,0-5.03-1.98-5.03-4.84
			C508.08-595.89,510.1-597.89,513.1-597.89z M501.64-591.99h3.55v3.55h-3.55V-591.99z M494.87-591.62l-1.36-0.21
			c-2.23-0.35-3.4-1.07-3.4-2.95c0-1.81,1.59-3.11,4.16-3.11c2.66,0,4.23,1.18,4.41,3.09l-2.74,0.08c-0.12-0.66-0.7-1.07-1.73-1.07
			c-0.64,0-1.01,0.25-1.01,0.66c0,0.31,0.25,0.47,0.56,0.52l1.79,0.31c2.06,0.33,3.26,1.26,3.26,3.05c0,1.94-1.65,3.05-4.27,3.05
			c-2.54,0-4.43-1.01-4.62-3.24l2.91-0.04c0.12,0.76,0.74,1.2,1.75,1.2c0.74,0,1.13-0.27,1.13-0.64
			C495.71-591.27,495.5-591.52,494.87-591.62z M479.26-597.64h3.34v4.91c0,1.24,0.35,1.92,1.36,1.92c1.05,0,1.46-0.91,1.46-2.31
			v-4.51h3.34v9.19h-3.34v-1.38c-0.49,1.03-1.5,1.63-2.89,1.63c-2.52,0-3.28-1.73-3.28-3.65V-597.64z M471.2-597.64h3.34v1.63
			c0.33-1.03,1.3-1.88,2.52-1.88c0.56,0,1.05,0.16,1.28,0.35l-0.21,3.15c-0.45-0.27-0.95-0.39-1.59-0.39c-1.24,0-2,0.58-2,2.12v4.21
			h-3.34V-597.64z M466.03-601.43h3.38v2.93h-3.38V-601.43z M455.15-601.43l3.22,8.64h0.08l3.22-8.64h3.48l-4.99,12.99h-3.69
			l-4.99-12.99H455.15z M440.54-601.43h3.92l5.17,12.99h-3.73l-0.97-2.52h-5.07l-0.97,2.52h-3.53L440.54-601.43z M427.59-591.62
			l-1.36-0.21c-2.23-0.35-3.4-1.07-3.4-2.95c0-1.81,1.59-3.11,4.16-3.11c2.66,0,4.23,1.18,4.41,3.09l-2.74,0.08
			c-0.12-0.66-0.7-1.07-1.73-1.07c-0.64,0-1.01,0.25-1.01,0.66c0,0.31,0.25,0.47,0.56,0.52l1.79,0.31c2.06,0.33,3.26,1.26,3.26,3.05
			c0,1.94-1.65,3.05-4.27,3.05c-2.54,0-4.43-1.01-4.62-3.24l2.91-0.04c0.12,0.76,0.74,1.2,1.75,1.2c0.74,0,1.13-0.27,1.13-0.64
			C428.44-591.27,428.23-591.52,427.59-591.62z M417.91-601.43h3.5v12.99h-3.5V-601.43z M416.63-251.14l10.32-45.93h29.81V-224
			h-19.72v-51.39h-0.46L423.48-224h-16.82l-13.11-51.39h-0.46V-224h-18.1v-73.08h30.51l10.79,45.93H416.63z M397.17-597.64h3.34
			v1.38c0.49-1.01,1.48-1.63,2.87-1.63c1.63,0,2.47,0.74,2.87,1.81c0.5-1.03,1.59-1.81,3.13-1.81c2.54,0,3.28,1.75,3.28,3.67v5.77
			h-3.34v-4.89c0-1.26-0.23-1.92-1.24-1.92c-1.11,0-1.48,0.91-1.48,2.29v4.51h-3.34v-4.89c0-1.26-0.25-1.92-1.26-1.92
			c-1.09,0-1.48,0.91-1.48,2.29v4.51h-3.34V-597.64z M391.96-591.62l-1.36-0.21c-2.23-0.35-3.4-1.07-3.4-2.95
			c0-1.81,1.59-3.11,4.16-3.11c2.66,0,4.23,1.18,4.41,3.09l-2.74,0.08c-0.12-0.66-0.7-1.07-1.73-1.07c-0.64,0-1.01,0.25-1.01,0.66
			c0,0.31,0.25,0.47,0.56,0.52l1.79,0.31c2.06,0.33,3.26,1.26,3.26,3.05c0,1.94-1.65,3.05-4.27,3.05c-2.54,0-4.43-1.01-4.62-3.24
			l2.91-0.04c0.12,0.76,0.74,1.2,1.75,1.2c0.74,0,1.13-0.27,1.13-0.64C392.8-591.27,392.6-591.52,391.96-591.62z M382.5-601.43h3.38
			v2.93h-3.38V-601.43z M385.86-597.64v9.19h-3.34v-9.19H385.86z M377.37-601.43h3.34v12.99h-3.34V-601.43z M370.67-595.41
			c-0.74,0-1.11,0.47-1.26,1.15l-3.09-0.21c0.29-2.02,1.79-3.42,4.56-3.42c2.43,0,4.23,1.05,4.23,3.61v3.13
			c0,0.47,0.21,0.68,0.56,0.68c0.27,0,0.47-0.04,0.74-0.14v1.77c-0.47,0.33-1.13,0.6-2.08,0.6c-1.13,0-2.02-0.58-2.33-1.63
			c-0.54,1.07-1.59,1.63-3.05,1.63c-1.79,0-2.97-0.93-2.97-2.49c0-1.77,1.28-2.54,3.28-2.89l2.58-0.43v-0.14
			C371.82-594.96,371.47-595.41,370.67-595.41z M358.22-597.39l0.68-0.1c0.93-0.14,1.22-0.64,1.44-1.48l0.31-1.2h2.1v2.54h2.39v2.31
			h-2.39v3.36c0,0.78,0.37,1.09,1.05,1.09c0.41,0,0.87-0.08,1.42-0.31v2.16c-0.7,0.52-1.5,0.82-2.76,0.82
			c-1.55,0-3.01-0.64-3.01-2.8v-4.33h-1.24V-597.39z M353.95-601.43h3.38v2.93h-3.38V-601.43z M357.31-597.64v9.19h-3.34v-9.19
			H357.31z M342.2-597.64h3.34v1.59c0.45-1.09,1.48-1.83,3.03-1.83c2.7,0,4.08,2.14,4.08,4.84c0,2.72-1.38,4.84-4.08,4.84
			c-1.55,0-2.58-0.74-3.03-1.81v4.87h-3.34V-597.64z M335.51-595.41c-0.74,0-1.11,0.47-1.26,1.15l-3.09-0.21
			c0.29-2.02,1.79-3.42,4.56-3.42c2.43,0,4.23,1.05,4.23,3.61v3.13c0,0.47,0.21,0.68,0.56,0.68c0.27,0,0.47-0.04,0.74-0.14v1.77
			c-0.47,0.33-1.13,0.6-2.08,0.6c-1.13,0-2.02-0.58-2.33-1.63c-0.54,1.07-1.59,1.63-3.05,1.63c-1.79,0-2.97-0.93-2.97-2.49
			c0-1.77,1.28-2.54,3.28-2.89l2.58-0.43v-0.14C336.66-594.96,336.31-595.41,335.51-595.41z M323.72-601.68
			c3.98,0,6.1,2.54,6.35,5.77l-3.36,0.12c-0.21-1.44-0.99-2.78-3.01-2.78c-1.92,0-3.03,1.42-3.03,3.63s1.11,3.63,3.03,3.63
			c2.02,0,2.8-1.34,3.01-2.78l3.36,0.14c-0.25,3.24-2.37,5.75-6.35,5.75c-3.79,0-6.66-2.74-6.66-6.74S319.93-601.68,323.72-601.68z
			 M310.63-591.99h3.55v3.55h-3.55V-591.99z M266.3-597.64l1.65,5.22h0.08l1.34-5.22h2.66l1.34,5.22h0.08l1.65-5.22h2.92h0.09h3.23
			l1.65,5.22h0.08l1.34-5.22h2.66l1.34,5.22h0.08l1.65-5.22h2.92h0.09h3.23l1.65,5.22h0.08l1.34-5.22h2.66l1.34,5.22h0.08l1.65-5.22
			h3.01l-2.91,9.19h-3.28l-1.34-5.19h-0.08l-1.34,5.19h-3.28l-2.86-9.06l-2.86,9.06h-3.28l-1.34-5.19h-0.08l-1.34,5.19h-3.28
			l-2.86-9.06l-2.86,9.06h-3.28l-1.34-5.19h-0.08l-1.34,5.19h-3.28l-2.91-9.19H266.3z M330.21-516.81
			c47.35,0,74.99,25.85,78.57,66.03l-42.23,1.54c-2.3-17.66-14.59-28.92-35.32-28.92c-25.34,0-39.41,17.66-39.41,45.04
			c0,28.15,14.84,46.84,42.74,46.84c14.08,0,27.9-5.89,34.29-18.68h-35.57v-31.22h76.78v83.69h-37.88v-17.92
			c-8.96,14.84-26.11,20.99-46.84,20.99c-44.53,0-78.32-33.78-78.32-83.69C247.03-482.77,283.62-516.81,330.21-516.81z
			 M252.5-298.47c20.18,0,31.09,9.86,31.44,26.1l-18.1,0.35c-0.58-7.54-6.03-11.02-13.57-11.02c-6.5,0-10.21,2.55-10.21,6.61
			c0,3.36,2.78,4.64,7.31,5.45l13.8,2.44c15.31,2.67,22.27,10.67,22.27,22.62c0,15.54-13.46,23.32-30.51,23.32
			c-19.83,0-33.99-9.63-33.99-27.26l18.1-0.58c0.7,9.16,7.77,12.3,15.89,12.3c6.84,0,11.25-2.44,11.25-6.5
			c0-4.29-4.29-4.99-9.86-6.03L242.98-253c-11.95-2.2-20.3-8.93-20.3-21.69C222.68-289.53,234.28-298.47,252.5-298.47z
			 M179.72-513.74h43.51v161.24h-43.51V-513.74z M156.91-275.73h18.79v9.16c1.86-5.8,7.31-10.56,14.15-10.56
			c3.13,0,5.92,0.93,7.19,1.97l-1.16,17.75c-2.55-1.51-5.34-2.2-8.93-2.2c-6.96,0-11.25,3.25-11.25,11.95V-224h-18.79V-275.73z
			 M162.99-115.87c5.92,0,8.24-5.1,8.24-12.99v-25.4h18.79v51.73h-18.79v-7.77c-2.78,5.8-8.47,9.16-16.24,9.16
			c-14.15,0-18.44-9.74-18.44-20.53v-32.6h18.79v27.61C155.33-119.7,157.31-115.87,162.99-115.87z M32.81-513.74h121.83v35.83H76.31
			v30.97h58.87v35.32H76.31v59.12H32.81V-513.74z M28.43-175.61l16.47,26.33l15.66-26.33h21.23l-28.07,45.35v27.72H34.58v-27.72
			L6.51-175.61H28.43z"/>
		<polygon class="st5" points="774.9,480.92 771.06,479.43 771.06,482.48 774.9,481 		"/>
		<path class="st5" d="M770.53,391.19c1.32,0,2.25-0.6,2.25-1.9c0-1.13-0.87-1.85-2.18-1.85h-0.12c-1.34,0-2.21,0.72-2.21,1.85
			C768.26,390.59,769.19,391.19,770.53,391.19z"/>
		<path class="st5" d="M769.76,378.55h0.14l-0.25-1.36c-0.17-0.8-0.41-1.28-1.01-1.28c-0.47,0-0.78,0.37-0.78,0.93
			C767.87,377.79,768.57,378.55,769.76,378.55z"/>
		<path class="st5" d="M769.76,413.71h0.14l-0.25-1.36c-0.17-0.8-0.41-1.28-1.01-1.28c-0.47,0-0.78,0.37-0.78,0.93
			C767.87,412.95,768.57,413.71,769.76,413.71z"/>
		<polygon class="st5" points="773.43,349.75 771.41,349.26 771.41,351.03 773.43,351.53 		"/>
		<path d="M772.47,173.68c-6.53,5.88-12.38,11.06-17.55,15.63c-6.61,5.85-12.32,10.9-17.12,15.36c-7.89,7.33-11.91,17.69-10.76,27.7
			c0.49,4.27,0.37,8.5-0.32,12.76c-1.87,11.45-8.08,23.02-19.02,35.56c-10.2,11.7-25.44,27.26-40.22,41.88l0.03,0.01
			c-40.15,40.05-62.35,60.64-62.58,60.85c-0.08,0.07-0.15,0.14-0.22,0.21c-2.39,2.39-5.56,3.7-8.94,3.7s-6.55-1.31-8.94-3.7
			c-2.39-2.39-3.7-5.56-3.7-8.94s1.31-6.55,3.7-8.94L633,319.62c1.13-1.13,1.85-2.52,2.16-3.98c0.55-2.56-0.17-5.34-2.16-7.33
			c-3.12-3.12-8.19-3.12-11.31,0l-0.56,0.56l-45.59,45.59l-47.29,47.29c-5.26,5.26-13.82,5.26-19.09,0
			c-5.26-5.26-5.26-13.82,0-19.09l77.22-77.22c0,0,0,0,0-0.01l13.19-13.19c0.19-0.19,0.37-0.39,0.53-0.59
			c2.58-3.14,2.4-7.79-0.53-10.73c-3.12-3.12-8.19-3.12-11.31,0l-12.72,12.72l0.02,0.03c-0.17,0.14-0.34,0.29-0.5,0.45l-93.44,93.44
			c-2.55,2.55-5.94,3.95-9.54,3.95c-3.6,0-6.99-1.4-9.54-3.95c-2.55-2.55-3.95-5.94-3.95-9.54s1.4-6.99,3.95-9.54l15.61-15.61
			l79.93-79.93l0.48-0.48l9.3-9.3c3.12-3.12,3.12-8.19,0-11.31c-2.41-2.41-5.97-2.95-8.91-1.64c-0.87,0.39-1.69,0.93-2.4,1.64
			l-9.3,9.3l-80.41,80.41c-4.93,4.93-12.94,4.93-17.87,0c-4.93-4.93-4.93-12.94,0-17.87l98.72-98.72l0.73-0.73
			c2.24-0.46,4.11-0.85,5.54-1.16c8.56,4.87,33.35,16.11,64.24,4.57c4.14-1.55,6.24-6.16,4.69-10.29c-0.59-1.59-1.65-2.88-2.95-3.78
			c-2.08-1.44-4.8-1.87-7.35-0.92c-29.48,11.02-51.68-4-52.57-4.62c-1.85-1.31-4.17-1.77-6.38-1.27
			c-0.29,0.07-29.36,6.59-60.15,10.3c-7.37,0.89-12.37-3.2-14.7-5.72c-4.33-4.69-5.66-10.16-5.07-13.3
			c0.88-0.58,3.44-1.42,5.34-2.04c2.37-0.77,5.05-1.65,8.06-2.93c15.02-6.38,49.57-20.68,52.15-21.75
			c2.04-0.75,19.71-7.4,46.49-21.26c13.26-6.86,43.94-4.59,54.64-3.14c2.48,0.34,4.97-0.5,6.74-2.27
			c8.33-8.33,17.9-18.65,31.14-32.94c12.04-13,27.01-29.14,46.29-49.42c10.13-10.65,21.45-22.45,34.17-35.53
			c3.08-3.17,3.01-8.23-0.16-11.31c-3.17-3.08-8.23-3.01-11.31,0.16c-37.05,38.11-62.29,65.34-80.72,85.22
			c-11.68,12.6-20.47,22.09-27.99,29.75c-11.56-1.26-42.96-3.63-60.15,5.27c-26.89,13.92-44.61,20.43-44.79,20.5
			c-0.11,0.04-0.22,0.08-0.32,0.13c-0.37,0.15-36.84,15.25-52.43,21.87c-2.38,1.01-4.62,1.74-6.78,2.45
			c-6.3,2.06-14.14,4.63-16.03,14c-1.78,8.82,1.75,19.58,8.98,27.41c6.56,7.1,15.31,10.99,24.46,10.99c1.29,0,2.6-0.08,3.9-0.24
			c8.82-1.06,17.43-2.34,25.29-3.62l-83.03,83.03c-11.16,11.17-11.16,29.33,0,40.5c3.27,3.27,7.13,5.57,11.25,6.92
			c-4.09,5.18-6.31,11.53-6.31,18.23c0,7.88,3.07,15.29,8.64,20.86c5.75,5.75,13.3,8.62,20.86,8.62c6.55,0,13.1-2.17,18.48-6.5
			c1.37,4.41,3.8,8.56,7.28,12.05c5.75,5.75,13.3,8.63,20.86,8.62c7.55,0,15.11-2.88,20.86-8.62l29.11-29.11
			c1.39,4.1,3.71,7.86,6.86,11.01c5.41,5.41,12.6,8.39,20.25,8.39c7.6,0,14.74-2.94,20.13-8.27c1.77-1.64,24.83-23.13,65.22-63.49
			c14.2-14.1,28.61-28.9,38.62-40.38c17.91-20.55,25.49-40.39,23.17-60.65c-0.3-2.59,0.15-5.26,1.22-7.77
			c1-2.33,2.53-4.52,4.54-6.39c0.52-0.48,1.05-0.97,1.59-1.47c4.33-3.98,9.43-8.49,15.23-13.62c5.19-4.59,11.07-9.79,17.65-15.72
			c3.28-2.96,3.55-8.01,0.59-11.3C780.82,170.99,775.76,170.73,772.47,173.68z"/>
		<path d="M381.28,303.54c4.22-5.22,6.51-11.67,6.51-18.48c0-7.88-3.07-15.29-8.64-20.86c-5.57-5.57-12.98-8.64-20.86-8.64
			c-6.7,0-13.05,2.23-18.23,6.31c-1.36-4.11-3.66-7.98-6.92-11.25c-11.17-11.17-29.33-11.17-40.5,0l-83.03,83.03
			c1.29-7.86,2.56-16.46,3.62-25.29c1.27-10.54-2.65-20.88-10.75-28.37c-7.83-7.24-18.59-10.76-27.41-8.98
			c-9.37,1.89-11.94,9.73-14,16.03c-0.71,2.16-1.44,4.4-2.45,6.78c-6.62,15.6-21.72,52.07-21.87,52.43
			c-0.04,0.1-0.09,0.21-0.12,0.32c-0.06,0.18-6.58,17.9-20.5,44.79c-8.9,17.2-6.53,48.6-5.27,60.15c-7.66,7.52-17.15,16.31-29.75,28
			c-16.47,15.26-36.96,34.26-64.48,60.68c-3.19,3.06-3.29,8.12-0.23,11.31c1.57,1.64,3.67,2.46,5.77,2.46
			c1.99,0,3.99-0.74,5.54-2.23c12.11-11.62,22.85-21.8,32.48-30.86c12.19-11.46,22.62-21.13,31.79-29.63
			c14.29-13.24,24.61-22.81,32.95-31.15c1.77-1.77,2.61-4.26,2.27-6.74c-1.46-10.69-3.74-41.35,3.14-54.64
			c13.86-26.78,20.5-44.45,21.26-46.49c1.07-2.58,15.38-37.13,21.75-52.15c1.28-3.01,2.15-5.69,2.93-8.06
			c0.62-1.9,1.46-4.46,2.04-5.34c3.15-0.59,8.62,0.74,13.3,5.07c2.52,2.33,6.61,7.33,5.72,14.7c-3.71,30.79-10.24,59.86-10.3,60.15
			c-0.49,2.18-0.03,4.51,1.25,6.35c0.64,0.93,15.66,23.13,4.64,52.61c-0.93,2.49-0.53,5.14,0.82,7.2c0.9,1.37,2.22,2.48,3.87,3.09
			c4.14,1.55,8.75-0.56,10.29-4.69c11.54-30.89,0.3-55.68-4.57-64.24c0.31-1.43,0.7-3.3,1.16-5.54l0.73-0.73l98.72-98.72
			c4.93-4.93,12.94-4.93,17.87,0c4.93,4.93,4.93,12.94,0,17.87l-80.41,80.41l-9.3,9.3c-0.71,0.71-1.26,1.53-1.64,2.4
			c-1.31,2.94-0.77,6.5,1.64,8.91c1.56,1.56,3.61,2.34,5.66,2.34s4.09-0.78,5.66-2.34l9.3-9.3l0.48-0.48l79.93-79.93l15.61-15.61
			c2.55-2.55,5.94-3.95,9.54-3.95s6.99,1.4,9.54,3.95c5.26,5.26,5.26,13.82,0,19.09l-93.44,93.44c-0.16,0.16-0.31,0.33-0.45,0.5
			l-0.03-0.02l-12.72,12.72c-3.12,3.12-3.12,8.19,0,11.31c2.94,2.94,7.58,3.11,10.73,0.53c0.2-0.17,0.4-0.34,0.59-0.53l90.42-90.42
			c2.55-2.55,5.94-3.95,9.54-3.95c3.6,0,6.99,1.4,9.54,3.95c2.55,2.55,3.95,5.94,3.95,9.54c0,3.6-1.4,6.99-3.95,9.54l-92.88,92.88
			l-0.56,0.56c-3.12,3.12-3.12,8.19,0,11.31c0.39,0.39,0.81,0.73,1.25,1.03c1.33,0.88,2.87,1.32,4.4,1.32
			c0.56,0,1.12-0.06,1.68-0.18v0c0.96-0.2,1.88-0.58,2.73-1.14c0.44-0.29,0.86-0.63,1.25-1.03l46.15-46.15
			c4.93-4.93,12.94-4.93,17.87,0c4.93,4.93,4.93,12.94,0,17.87c-0.07,0.07-0.14,0.15-0.21,0.22c-0.21,0.23-20.8,22.43-60.85,62.57
			l-0.01-0.03c-14.62,14.78-30.18,30.01-41.89,40.22c-12.55,10.94-24.11,17.15-35.56,19.02c-4.25,0.69-8.49,0.81-12.76,0.32
			c-10.01-1.15-20.37,2.88-27.7,10.76c-4.46,4.79-9.51,10.5-15.35,17.11c-4.57,5.17-9.75,11.02-15.63,17.56
			c-2.96,3.28-2.69,8.34,0.59,11.3c1.53,1.38,3.44,2.05,5.35,2.05c2.19,0,4.37-0.89,5.95-2.65c5.93-6.58,11.13-12.47,15.72-17.66
			c5.13-5.8,9.64-10.9,13.62-15.22c0.5-0.54,0.99-1.07,1.47-1.59c1.87-2.01,4.06-3.54,6.38-4.54c2.52-1.08,5.19-1.52,7.78-1.23
			c20.26,2.32,40.11-5.26,60.65-23.17c11.51-10.03,26.33-24.47,40.45-38.68c40.32-40.35,61.78-63.39,63.42-65.16
			c11.05-11.18,11.01-29.26-0.11-40.38c-3.21-3.21-6.99-5.49-11.02-6.85l29.12-29.12c5.57-5.57,8.64-12.98,8.64-20.86
			s-3.07-15.29-8.64-20.86C389.85,307.34,385.7,304.92,381.28,303.54z"/>
		<polygon points="30.86,303.64 30.86,300.36 21.67,297.45 21.67,300.46 26.88,302.11 26.88,302.19 21.67,303.53 21.67,306.19 
			26.88,307.53 26.88,307.62 21.67,309.27 21.67,312.5 21.67,312.58 21.67,315.51 26.88,317.16 26.88,317.24 21.67,318.58 
			21.67,321.24 26.88,322.58 26.88,322.66 21.67,324.31 21.67,327.54 21.67,327.63 21.67,330.55 26.88,332.2 26.88,332.29 
			21.67,333.63 21.67,336.28 26.88,337.62 26.88,337.71 21.67,339.36 21.67,342.68 30.86,339.77 30.86,336.49 25.67,335.15 
			25.67,335.07 30.86,333.73 30.86,330.45 21.8,327.59 30.86,324.72 30.86,321.45 25.67,320.11 25.67,320.02 30.86,318.68 
			30.86,315.41 21.8,312.54 30.86,309.68 30.86,306.4 25.67,305.06 25.67,304.98 		"/>
		<rect x="27.32" y="291.48" width="3.55" height="3.55"/>
		<path d="M24.37,288.59c4,0,6.74-2.87,6.74-6.66c0-3.98-2.52-6.1-5.75-6.35l-0.14,3.36c1.44,0.21,2.78,0.99,2.78,3.01
			c0,1.92-1.42,3.03-3.63,3.03c-2.21,0-3.63-1.11-3.63-3.03c0-2.02,1.34-2.8,2.78-3.01l-0.12-3.36c-3.24,0.25-5.77,2.37-5.77,6.35
			C17.63,285.73,20.37,288.59,24.37,288.59z"/>
		<path d="M31.07,266.5c0-0.95-0.27-1.61-0.6-2.08H28.7c0.1,0.27,0.14,0.47,0.14,0.74c0,0.35-0.21,0.56-0.68,0.56h-3.13
			c-2.56,0-3.61,1.79-3.61,4.23c0,2.76,1.4,4.27,3.42,4.56l0.21-3.09c-0.68-0.14-1.15-0.52-1.15-1.26c0-0.8,0.45-1.15,1.22-1.15
			h0.14l0.43,2.58c0.35,2,1.11,3.28,2.89,3.28c1.57,0,2.49-1.17,2.49-2.97c0-1.46-0.56-2.52-1.63-3.05
			C30.49,268.52,31.07,267.63,31.07,266.5z M28.14,271.63c-0.6,0-0.85-0.47-1.01-1.28l-0.25-1.36h0.14c1.2,0,1.9,0.76,1.9,1.71
			C28.92,271.26,28.61,271.63,28.14,271.63z"/>
		<path d="M34.16,260.11h-4.86c1.07-0.45,1.81-1.48,1.81-3.03c0-2.7-2.12-4.08-4.84-4.08c-2.7,0-4.84,1.38-4.84,4.08
			c0,1.55,0.74,2.58,1.83,3.03h-1.59v3.34h12.49V260.11z M26.33,260.11H26.2c-1.32,0-2.19-0.72-2.19-1.86c0-1.3,0.93-1.9,2.25-1.9
			c1.34,0,2.27,0.6,2.27,1.9C28.53,259.39,27.67,260.11,26.33,260.11z"/>
		<rect x="17.87" y="248.32" width="2.93" height="3.38"/>
		<rect x="21.67" y="248.34" width="9.19" height="3.34"/>
		<path d="M19.13,245l1.2,0.31c0.85,0.23,1.34,0.52,1.48,1.44l0.1,0.68h2.06v-1.24h4.33c2.16,0,2.8-1.46,2.8-3.01
			c0-1.26-0.31-2.06-0.82-2.76h-2.16c0.23,0.56,0.31,1.01,0.31,1.42c0,0.68-0.31,1.05-1.09,1.05h-3.36v-2.39h-2.31v2.39h-2.54V245z"
			/>
		<path d="M28.16,230.55h-3.13c-2.56,0-3.61,1.79-3.61,4.23c0,2.76,1.4,4.27,3.42,4.56l0.21-3.09c-0.68-0.14-1.15-0.52-1.15-1.26
			c0-0.8,0.45-1.15,1.22-1.15h0.14l0.43,2.58c0.35,2,1.11,3.28,2.89,3.28c1.57,0,2.49-1.17,2.49-2.97c0-1.46-0.56-2.52-1.63-3.05
			c1.05-0.31,1.63-1.2,1.63-2.33c0-0.95-0.27-1.61-0.6-2.08H28.7c0.1,0.27,0.14,0.47,0.14,0.74
			C28.84,230.35,28.64,230.55,28.16,230.55z M28.92,235.54c0,0.56-0.31,0.93-0.78,0.93c-0.6,0-0.85-0.47-1.01-1.28l-0.25-1.36h0.14
			C28.22,233.83,28.92,234.59,28.92,235.54z"/>
		<rect x="17.87" y="224.95" width="12.99" height="3.34"/>
		<rect x="21.67" y="219.8" width="9.19" height="3.34"/>
		<rect x="17.87" y="219.78" width="2.93" height="3.38"/>
		<path d="M24.53,218.46c1.88,0,2.6-1.17,2.95-3.4l0.21-1.36c0.1-0.64,0.35-0.85,0.7-0.85c0.37,0,0.64,0.39,0.64,1.13
			c0,1.01-0.43,1.63-1.2,1.75l0.04,2.91c2.23-0.19,3.24-2.08,3.24-4.62c0-2.62-1.11-4.27-3.05-4.27c-1.79,0-2.72,1.2-3.05,3.26
			l-0.31,1.79c-0.04,0.31-0.21,0.56-0.52,0.56c-0.41,0-0.66-0.37-0.66-1.01c0-1.03,0.41-1.61,1.07-1.73l-0.08-2.74
			c-1.92,0.19-3.09,1.75-3.09,4.41C21.42,216.87,22.72,218.46,24.53,218.46z"/>
		<path d="M21.42,202.28c0,1.38,0.62,2.37,1.63,2.87h-1.38v3.34h9.19v-3.34h-4.51c-1.38,0-2.29-0.39-2.29-1.48
			c0-1.01,0.66-1.26,1.92-1.26h4.89v-3.34h-4.51c-1.38,0-2.29-0.37-2.29-1.48c0-1.01,0.66-1.24,1.92-1.24h4.89V193h-5.77
			c-1.92,0-3.67,0.74-3.67,3.28c0,1.55,0.78,2.64,1.81,3.13C22.16,199.8,21.42,200.65,21.42,202.28z"/>
		<rect x="17.87" y="184.24" width="12.99" height="3.5"/>
		<path d="M27.83,180.1l0.04,2.91c2.23-0.19,3.24-2.08,3.24-4.62c0-2.62-1.11-4.27-3.05-4.27c-1.79,0-2.72,1.2-3.05,3.26l-0.31,1.79
			c-0.04,0.31-0.21,0.56-0.52,0.56c-0.41,0-0.66-0.37-0.66-1.01c0-1.03,0.41-1.61,1.07-1.73l-0.08-2.74
			c-1.92,0.19-3.09,1.75-3.09,4.41c0,2.58,1.3,4.16,3.11,4.16c1.88,0,2.6-1.18,2.95-3.4l0.21-1.36c0.1-0.64,0.35-0.85,0.7-0.85
			c0.37,0,0.64,0.39,0.64,1.13C29.03,179.36,28.59,179.98,27.83,180.1z"/>
		<path d="M17.87,165.12l12.99,5.17v-3.52l-2.51-0.97v-5.07l2.51-0.97v-3.73l-12.99,5.17V165.12z M21.89,163.22l3.83-1.48v3.05
			l-3.83-1.48V163.22z"/>
		<polygon points="17.87,150.5 17.87,154.17 30.86,149.19 30.86,145.5 17.87,140.51 17.87,143.99 26.51,147.21 26.51,147.29 		"/>
		<rect x="17.87" y="136.24" width="2.93" height="3.38"/>
		<rect x="21.67" y="136.26" width="9.19" height="3.34"/>
		<path d="M23.3,131.11h-1.63v3.34h9.19v-3.34h-4.21c-1.55,0-2.12-0.76-2.12-2c0-0.64,0.12-1.13,0.39-1.59l-3.15-0.21
			c-0.19,0.23-0.35,0.72-0.35,1.28C21.42,129.81,22.27,130.78,23.3,131.11z"/>
		<path d="M26.57,123.05h-4.91v3.34h5.79c1.92,0,3.65-0.76,3.65-3.28c0-1.38-0.6-2.39-1.63-2.89h1.38v-3.34h-9.19v3.34h4.51
			c1.4,0,2.31,0.41,2.31,1.46C28.49,122.7,27.81,123.05,26.57,123.05z"/>
		<path d="M24.53,115.55c1.88,0,2.6-1.18,2.95-3.4l0.21-1.36c0.1-0.64,0.35-0.85,0.7-0.85c0.37,0,0.64,0.39,0.64,1.13
			c0,1.01-0.43,1.63-1.2,1.75l0.04,2.91c2.23-0.19,3.24-2.08,3.24-4.62c0-2.62-1.11-4.27-3.05-4.27c-1.79,0-2.72,1.2-3.05,3.26
			l-0.31,1.79c-0.04,0.31-0.21,0.56-0.52,0.56c-0.41,0-0.66-0.37-0.66-1.01c0-1.03,0.41-1.61,1.07-1.73l-0.08-2.74
			c-1.92,0.19-3.09,1.75-3.09,4.41C21.42,113.96,22.72,115.55,24.53,115.55z"/>
		<rect x="27.32" y="100.46" width="3.55" height="3.55"/>
		<path d="M26.26,97.58c2.87,0,4.84-2.02,4.84-5.03c0-2.99-1.98-5.03-4.84-5.03c-2.84,0-4.84,2.04-4.84,5.03
			C21.42,95.56,23.42,97.58,26.26,97.58z M26.26,90.88c1.38,0,2.33,0.52,2.33,1.67c0,1.17-0.95,1.67-2.33,1.67
			c-1.38,0-2.33-0.49-2.33-1.67C23.94,91.39,24.88,90.88,26.26,90.88z"/>
		<path d="M21.77,79.07c-0.19,0.23-0.35,0.72-0.35,1.28c0,1.22,0.85,2.19,1.88,2.52h-1.63v3.34h9.19v-3.34h-4.21
			c-1.55,0-2.12-0.76-2.12-2c0-0.64,0.12-1.13,0.39-1.59L21.77,79.07z"/>
		<path d="M24.57,69.46c-0.43,0-0.82,0.1-1.18,0.29c-0.1-0.45-0.14-0.95-0.14-1.34h-2.52c0,1.01,0.66,2.02,1.42,2.58
			c-0.47,0.78-0.74,1.83-0.74,2.95c0,2.58,1.2,4.43,3.15,4.43c1.01,0,1.79-0.49,2.33-1.32c0.37,0.99,1.05,1.57,1.94,1.57
			c0.78,0,1.53-0.49,1.79-1.32c0.08,1.03,0.72,1.75,1.53,1.75c1.73,0,2.25-2.27,2.25-4.89c0-2.99-1.05-5.77-3.34-5.77
			c-1.55,0-2.64,1.05-2.64,3.13v3.81c0,0.56-0.25,0.78-0.56,0.78c-0.19,0-0.33-0.06-0.43-0.19c0.19-0.6,0.27-1.26,0.27-2
			C27.71,71.34,26.51,69.46,24.57,69.46z M24.57,74.86c-0.8,0-1.32-0.41-1.32-0.97c0-0.56,0.52-0.97,1.32-0.97
			c0.82,0,1.34,0.41,1.34,0.97C25.91,74.45,25.4,74.86,24.57,74.86z M31.27,72.31c0-0.56,0.14-0.85,0.54-0.85
			c0.56,0,0.87,1.13,0.87,2.68c0,1.24-0.19,2.16-0.84,2.16c-0.35,0-0.56-0.25-0.56-0.62V72.31z"/>
		<path d="M765.93,349.73v2.49l3.42,0.8v2.04l2.06,0.43v-1.98l2.02,0.5v1.88l2.06,0.43v-1.83l3.42,0.82v-2.49l-3.42-0.82v-1.77
			l3.42,0.82v-2.49l-3.42-0.82v-2.02l-2.06-0.43v1.98l-2.02-0.49v-1.88l-2.06-0.43v1.81l-3.42-0.8v2.49l3.42,0.8v1.77L765.93,349.73
			z M771.41,349.26l2.02,0.49v1.77l-2.02-0.5V349.26z"/>
		<path d="M772.42,358.95c-4,0-6.74,2.87-6.74,6.66c0,3.98,2.51,6.1,5.75,6.35l0.14-3.36c-1.44-0.21-2.78-0.99-2.78-3.01
			c0-1.92,1.42-3.03,3.63-3.03s3.63,1.11,3.63,3.03c0,2.02-1.34,2.8-2.78,3.01l0.12,3.36c3.24-0.25,5.77-2.37,5.77-6.35
			C779.16,361.82,776.42,358.95,772.42,358.95z"/>
		<path d="M765.72,381.05c0,0.95,0.27,1.61,0.6,2.08h1.77c-0.1-0.27-0.14-0.47-0.14-0.74c0-0.35,0.21-0.56,0.68-0.56h3.13
			c2.56,0,3.61-1.79,3.61-4.23c0-2.76-1.4-4.27-3.42-4.56l-0.21,3.09c0.68,0.14,1.15,0.52,1.15,1.26c0,0.8-0.45,1.15-1.22,1.15
			h-0.14l-0.43-2.58c-0.35-2-1.11-3.28-2.89-3.28c-1.57,0-2.49,1.17-2.49,2.97c0,1.46,0.56,2.51,1.63,3.05
			C766.3,379.03,765.72,379.91,765.72,381.05z M768.65,375.92c0.6,0,0.85,0.47,1.01,1.28l0.25,1.36h-0.14c-1.2,0-1.9-0.76-1.9-1.71
			C767.87,376.29,768.18,375.92,768.65,375.92z"/>
		<path d="M762.63,387.44h4.86c-1.07,0.45-1.81,1.48-1.81,3.03c0,2.7,2.12,4.08,4.84,4.08c2.7,0,4.84-1.38,4.84-4.08
			c0-1.55-0.74-2.58-1.83-3.03h1.59v-3.34h-12.49V387.44z M770.46,387.44h0.12c1.32,0,2.18,0.72,2.18,1.85c0,1.3-0.93,1.9-2.25,1.9
			c-1.34,0-2.27-0.6-2.27-1.9C768.26,388.16,769.12,387.44,770.46,387.44z"/>
		<rect x="775.99" y="395.84" width="2.93" height="3.38"/>
		<rect x="765.93" y="395.87" width="9.19" height="3.34"/>
		<path d="M777.66,402.54l-1.2-0.31c-0.85-0.23-1.34-0.52-1.48-1.44l-0.1-0.68h-2.06v1.24h-4.33c-2.16,0-2.8,1.46-2.8,3.01
			c0,1.26,0.31,2.06,0.82,2.76h2.16c-0.23-0.56-0.31-1.01-0.31-1.42c0-0.68,0.31-1.05,1.09-1.05h3.36v2.39h2.31v-2.39h2.54V402.54z"
			/>
		<path d="M768.63,416.99h3.13c2.56,0,3.61-1.79,3.61-4.23c0-2.76-1.4-4.27-3.42-4.56l-0.21,3.09c0.68,0.14,1.15,0.52,1.15,1.26
			c0,0.8-0.45,1.15-1.22,1.15h-0.14l-0.43-2.58c-0.35-2-1.11-3.28-2.89-3.28c-1.57,0-2.49,1.17-2.49,2.97
			c0,1.46,0.56,2.52,1.63,3.05c-1.05,0.31-1.63,1.2-1.63,2.33c0,0.95,0.27,1.61,0.6,2.08h1.77c-0.1-0.27-0.14-0.47-0.14-0.74
			C767.95,417.2,768.16,416.99,768.63,416.99z M767.87,412c0-0.56,0.31-0.93,0.78-0.93c0.6,0,0.85,0.47,1.01,1.28l0.25,1.36h-0.14
			C768.57,413.71,767.87,412.95,767.87,412z"/>
		<rect x="765.93" y="419.26" width="12.99" height="3.34"/>
		<rect x="775.99" y="424.39" width="2.93" height="3.38"/>
		<rect x="765.93" y="424.41" width="9.19" height="3.34"/>
		<path d="M772.26,429.09c-1.88,0-2.6,1.17-2.95,3.4l-0.21,1.36c-0.1,0.64-0.35,0.85-0.7,0.85c-0.37,0-0.64-0.39-0.64-1.13
			c0-1.01,0.43-1.63,1.2-1.75l-0.04-2.91c-2.23,0.19-3.24,2.08-3.24,4.62c0,2.62,1.11,4.27,3.05,4.27c1.79,0,2.72-1.2,3.05-3.26
			l0.31-1.79c0.04-0.31,0.21-0.56,0.52-0.56c0.41,0,0.66,0.37,0.66,1.01c0,1.03-0.41,1.61-1.07,1.73l0.08,2.74
			c1.92-0.19,3.09-1.75,3.09-4.41C775.37,430.68,774.07,429.09,772.26,429.09z"/>
		<path d="M775.37,445.27c0-1.38-0.62-2.37-1.63-2.87h1.38v-3.34h-9.19v3.34h4.51c1.38,0,2.29,0.39,2.29,1.48
			c0,1.01-0.66,1.26-1.92,1.26h-4.89v3.34h4.51c1.38,0,2.29,0.37,2.29,1.48c0,1.01-0.66,1.24-1.92,1.24h-4.89v3.34h5.77
			c1.92,0,3.67-0.74,3.67-3.28c0-1.55-0.78-2.64-1.81-3.13C774.63,447.74,775.37,446.9,775.37,445.27z"/>
		<rect x="765.93" y="458.14" width="12.99" height="3.5"/>
		<path d="M768.96,465.78l-0.04-2.91c-2.23,0.19-3.24,2.08-3.24,4.62c0,2.62,1.11,4.27,3.05,4.27c1.79,0,2.72-1.2,3.05-3.26
			l0.31-1.79c0.04-0.31,0.21-0.56,0.52-0.56c0.41,0,0.66,0.37,0.66,1.01c0,1.03-0.41,1.61-1.07,1.73l0.08,2.74
			c1.92-0.19,3.09-1.75,3.09-4.41c0-2.58-1.3-4.16-3.11-4.16c-1.88,0-2.6,1.17-2.95,3.4l-0.21,1.36c-0.1,0.64-0.35,0.85-0.7,0.85
			c-0.37,0-0.64-0.39-0.64-1.13C767.76,466.52,768.2,465.91,768.96,465.78z"/>
		<path d="M765.93,477.46l2.51,0.97v5.07l-2.51,0.97v3.73l12.99-5.17v-3.92l-12.99-5.17V477.46z M771.06,479.43l3.83,1.48V481
			l-3.83,1.48V479.43z"/>
		<polygon points="765.93,498.67 778.92,503.66 778.92,500.18 770.28,496.96 770.28,496.88 778.92,493.66 778.92,489.99 
			765.93,494.98 		"/>
		<rect x="765.93" y="504.56" width="9.19" height="3.34"/>
		<rect x="775.99" y="504.54" width="2.93" height="3.38"/>
		<path d="M773.49,513.06h1.63v-3.34h-9.19v3.34h4.21c1.55,0,2.12,0.76,2.12,2c0,0.64-0.12,1.13-0.39,1.59l3.15,0.21
			c0.19-0.23,0.35-0.72,0.35-1.28C775.37,514.35,774.52,513.39,773.49,513.06z"/>
		<path d="M770.22,521.11h4.91v-3.34h-5.79c-1.92,0-3.65,0.76-3.65,3.28c0,1.38,0.6,2.39,1.63,2.89h-1.38v3.34h9.19v-3.34h-4.51
			c-1.4,0-2.31-0.41-2.31-1.46C768.3,521.46,768.98,521.11,770.22,521.11z"/>
		<path d="M772.26,528.62c-1.88,0-2.6,1.18-2.95,3.4l-0.21,1.36c-0.1,0.64-0.35,0.85-0.7,0.85c-0.37,0-0.64-0.39-0.64-1.13
			c0-1.01,0.43-1.63,1.2-1.75l-0.04-2.91c-2.23,0.19-3.24,2.08-3.24,4.62c0,2.62,1.11,4.27,3.05,4.27c1.79,0,2.72-1.2,3.05-3.26
			l0.31-1.79c0.04-0.31,0.21-0.56,0.52-0.56c0.41,0,0.66,0.37,0.66,1.01c0,1.03-0.41,1.61-1.07,1.73l0.08,2.74
			c1.92-0.19,3.09-1.75,3.09-4.41C775.37,530.2,774.07,528.62,772.26,528.62z"/>
	</g>
</g>
</svg>
