<?xml version="1.0" encoding="utf-8"?>
<!-- Generator: Adobe Illustrator 23.1.1, SVG Export Plug-In . SVG Version: 6.00 Build 0)  -->
<svg version="1.1" xmlns="http://www.w3.org/2000/svg" xmlns:xlink="http://www.w3.org/1999/xlink" x="0px" y="0px"
	 viewBox="0 0 792 612" style="enable-background:new 0 0 792 612;" xml:space="preserve">
<style type="text/css">
	.st0{display:none;}
	.st1{display:inline;fill:#FFFFFF;}
	.st2{display:inline;}
	.st3{fill:#FFFFFF;stroke:#000000;stroke-width:16;stroke-linecap:round;stroke-linejoin:round;stroke-miterlimit:10;}
	.st4{fill:none;stroke:#000000;stroke-width:24;stroke-linejoin:round;stroke-miterlimit:10;}
	.st5{fill:#FFFFFF;}
	.st6{font-family:'FoundersGrotesk-Bold';}
	.st7{font-size:243.0243px;}
	.st8{letter-spacing:6;}
	.st9{font-size:166.6413px;}
	.st10{font-size:149.151px;}
	.st11{fill:#FFFFFF;stroke:#000000;stroke-width:17;stroke-linecap:round;stroke-miterlimit:10;}
	.st12{fill:#FFFFFF;stroke:#000000;stroke-width:17;stroke-miterlimit:10;}
	.st13{stroke:#000000;stroke-width:16.0572;stroke-linecap:round;stroke-miterlimit:10;}
	.st14{font-size:20.6105px;}
	.st15{font-size:10.3052px;}
	.st16{font-size:19.2364px;}
	.st17{font-size:10px;}
	.st18{fill:#FFFFFF;stroke:#000000;stroke-width:13.497;stroke-linecap:round;stroke-linejoin:round;stroke-miterlimit:10;}
	.st19{stroke:#000000;stroke-width:18.3348;stroke-linecap:round;stroke-miterlimit:10;}
	.st20{fill:none;stroke:#000000;stroke-width:13.497;stroke-linecap:round;stroke-linejoin:round;stroke-miterlimit:10;}
	.st21{fill:#FFFFFF;stroke:#000000;stroke-width:14.6942;stroke-linecap:round;stroke-linejoin:round;stroke-miterlimit:10;}
	.st22{fill:none;stroke:#000000;stroke-width:13;stroke-linecap:round;stroke-linejoin:round;stroke-miterlimit:10;}
	.st23{fill:none;stroke:#000000;stroke-width:13;stroke-linejoin:round;stroke-miterlimit:10;}
	.st24{fill:url(#);stroke:#000000;stroke-width:13;stroke-linejoin:round;stroke-miterlimit:10;}
	.st25{fill:none;stroke:#000000;stroke-width:30.5612;stroke-linecap:round;stroke-linejoin:round;stroke-miterlimit:10;}
	.st26{fill:#FFFFFF;stroke:#000000;stroke-width:16.2993;stroke-linecap:round;stroke-linejoin:round;stroke-miterlimit:10;}
	.st27{fill:#FFFFFF;stroke:#000000;stroke-width:13.497;stroke-linecap:round;stroke-miterlimit:10;}
	.st28{fill:url(#);stroke:#000000;stroke-width:13.497;stroke-linecap:round;stroke-linejoin:round;stroke-miterlimit:10;}
	.st29{fill:#FFFFFF;stroke:#000000;stroke-width:11.7326;stroke-linecap:round;stroke-linejoin:round;stroke-miterlimit:10;}
	.st30{fill:#FFFFFF;stroke:#000000;stroke-width:13.2623;stroke-linecap:round;stroke-linejoin:round;stroke-miterlimit:10;}
	.st31{fill:#FFFFFF;stroke:#000000;stroke-width:13.2623;stroke-linecap:round;stroke-miterlimit:10;}
	.st32{stroke:#000000;stroke-width:4.5213;stroke-miterlimit:10;}
	.st33{fill:none;stroke:#000000;stroke-width:16;stroke-linecap:round;stroke-miterlimit:10;}
	.st34{fill:url(#);stroke:#000000;stroke-width:16;stroke-linecap:round;stroke-linejoin:round;stroke-miterlimit:10;}
	.st35{fill:#FFFFFF;stroke:#000000;stroke-width:16;stroke-linecap:round;stroke-miterlimit:10;}
	.st36{fill:none;stroke:#000000;stroke-width:16;stroke-linecap:round;stroke-linejoin:round;stroke-miterlimit:10;}
	.st37{fill:none;stroke:#000000;stroke-width:15.2344;stroke-linecap:round;stroke-linejoin:round;stroke-miterlimit:10;}
	.st38{fill:#FFFFFF;stroke:#000000;stroke-width:15.2344;stroke-linecap:round;stroke-linejoin:round;stroke-miterlimit:10;}
	.st39{fill:#FFFFFF;stroke:#000000;stroke-width:17;stroke-linecap:round;stroke-linejoin:round;stroke-miterlimit:10;}
	.st40{fill:none;stroke:#000000;stroke-width:9.9764;stroke-linecap:round;stroke-linejoin:round;stroke-miterlimit:10;}
	.st41{fill:none;stroke:#000000;stroke-width:9.3127;stroke-linejoin:round;stroke-miterlimit:10;}
	.st42{fill:url(#);}
	.st43{fill:none;stroke:#000000;stroke-width:8.3796;stroke-linecap:round;stroke-linejoin:round;stroke-miterlimit:10;}
	
		.st44{display:inline;fill:none;stroke:#000000;stroke-width:9.9764;stroke-linecap:round;stroke-linejoin:round;stroke-miterlimit:10;}
	.st45{display:inline;fill:none;stroke:#000000;stroke-width:9.3127;stroke-linejoin:round;stroke-miterlimit:10;}
	.st46{display:inline;fill:url(#);stroke:#000000;stroke-width:10;stroke-linejoin:round;stroke-miterlimit:10;}
	.st47{fill:#FFFFFF;stroke:#000000;stroke-width:14.7375;stroke-linecap:round;stroke-linejoin:round;stroke-miterlimit:10;}
	.st48{fill:none;stroke:#000000;stroke-width:14.7375;stroke-linecap:round;stroke-linejoin:round;stroke-miterlimit:10;}
	.st49{stroke:#000000;stroke-width:14.7375;stroke-linecap:round;stroke-linejoin:round;stroke-miterlimit:10;}
	.st50{fill:#FFFFFF;stroke:#000000;stroke-width:14.2911;stroke-linecap:round;stroke-linejoin:round;stroke-miterlimit:10;}
	.st51{fill:none;stroke:#000000;stroke-width:15;stroke-linecap:round;stroke-linejoin:round;stroke-miterlimit:10;}
	.st52{fill:#FFFFFF;stroke:#000000;stroke-width:15;stroke-linecap:round;stroke-linejoin:round;stroke-miterlimit:10;}
	.st53{fill:#FFFFFF;stroke:#000000;stroke-width:14.8467;stroke-linecap:round;stroke-linejoin:round;stroke-miterlimit:10;}
	.st54{stroke:#000000;stroke-width:20.1683;stroke-linecap:round;stroke-miterlimit:10;}
	.st55{fill:none;stroke:#000000;stroke-width:14.8467;stroke-linecap:round;stroke-linejoin:round;stroke-miterlimit:10;}
	.st56{fill:none;stroke:#000000;stroke-width:13.497;stroke-miterlimit:10;}
	.st57{fill:#FFFFFF;stroke:#000000;stroke-width:13.497;stroke-miterlimit:10;}
	.st58{fill:#FFFFFF;stroke:#000000;stroke-width:14.7439;stroke-linecap:round;stroke-miterlimit:10;}
	.st59{fill:#FFFFFF;stroke:#000000;stroke-width:14.7439;stroke-miterlimit:10;}
	.st60{stroke:#000000;stroke-width:13.9262;stroke-linecap:round;stroke-miterlimit:10;}
	.st61{fill:#FFFFFF;stroke:#000000;stroke-width:17.1072;stroke-linecap:round;stroke-linejoin:round;stroke-miterlimit:10;}
	.st62{stroke:#000000;stroke-width:17.1072;stroke-linecap:round;stroke-linejoin:round;stroke-miterlimit:10;}
	.st63{fill:#FFFFFF;stroke:#000000;stroke-width:15;stroke-linecap:square;stroke-linejoin:round;stroke-miterlimit:10;}
	.st64{fill:#FFFFFF;stroke:#000000;stroke-width:15;stroke-linejoin:round;stroke-miterlimit:10;}
	.st65{fill:#FFFFFF;stroke:#000000;stroke-width:14;stroke-linecap:round;stroke-linejoin:round;stroke-miterlimit:10;}
	.st66{fill:#FFFFFF;stroke:#000000;stroke-width:13;stroke-linecap:round;stroke-linejoin:round;stroke-miterlimit:10;}
	.st67{fill:#FFFFFF;stroke:#000000;stroke-width:15.2362;stroke-linecap:round;stroke-linejoin:round;stroke-miterlimit:10;}
	.st68{fill:#FFFFFF;stroke:#FFFFFF;stroke-width:3;stroke-miterlimit:10;}
	.st69{fill:#FFFFFF;stroke:#000000;stroke-width:13.3058;stroke-linecap:round;stroke-linejoin:round;stroke-miterlimit:10;}
	.st70{fill:#FFFFFF;stroke:#000000;stroke-width:15.2517;stroke-linecap:round;stroke-linejoin:round;stroke-miterlimit:10;}
	.st71{stroke:#000000;stroke-width:3;stroke-miterlimit:10;}
</style>
<g id="unexpanded" class="st0">
	<rect x="-1593.75" y="-343.56" class="st1" width="14663.41" height="9108.82"/>
	<rect x="0.14" class="st1" width="792" height="1224"/>
	<g class="st2">
		<g>
			<text transform="matrix(1 0 0 1 27.9468 380.1699)" class="st6 st7 st8">CAN’T</text>
			<text transform="matrix(1 0 0 1 4.646 172.4951)" class="st6 st9">Capitalism</text>
			<text transform="matrix(1 0 0 1 137.3765 513.752)" class="st6 st10">Save Us</text>
		</g>
		<g>
			<g>
				<text transform="matrix(1 0 0 1 258.9679 23.5542)"><tspan x="0" y="0" class="st6 st14">www</tspan><tspan x="45.14" y="0" class="st6 st15"> </tspan><tspan x="46.99" y="0" class="st6 st14">.</tspan><tspan x="51.77" y="0" class="st6 st15"> </tspan><tspan x="53.63" y="0" class="st6 st14">Capitalism</tspan><tspan x="150.43" y="0" class="st6 st16"> </tspan><tspan x="153.9" y="0" class="st6 st14">Is</tspan><tspan x="168.88" y="0" class="st6 st16"> </tspan><tspan x="172.34" y="0" class="st6 st14">A</tspan><tspan x="186.6" y="0" class="st6 st15"> </tspan><tspan x="188.46" y="0" class="st6 st14">Virus</tspan><tspan x="236.15" y="0" class="st6 st15"> </tspan><tspan x="238.01" y="0" class="st6 st14">.</tspan><tspan x="242.79" y="0" class="st6 st15"> </tspan><tspan x="244.64" y="0" class="st6 st14">org</tspan></text>
			</g>
			<g>
				<text transform="matrix(1 0 0 1 299.1802 596.9933)"><tspan x="0" y="0" class="st6 st14">#</tspan><tspan x="12.7" y="0" class="st6 st17"> </tspan><tspan x="14.5" y="0" class="st6 st14">Capitalism</tspan><tspan x="111.3" y="0" class="st6 st17"> </tspan><tspan x="113.1" y="0" class="st6 st14">Is</tspan><tspan x="128.09" y="0" class="st6 st17"> </tspan><tspan x="129.89" y="0" class="st6 st14">A</tspan><tspan x="144.15" y="0" class="st6 st17"> </tspan><tspan x="145.95" y="0" class="st6 st14">Virus</tspan></text>
			</g>
		</g>
	</g>
</g>
<g id="exp_trnsp_bg">
	<path d="M36.45,303.62c0,47.15,33.78,79.47,78.5,79.47c46.9,0,71.94-29.65,74.85-67.8l-39.61-1.7
		c-2.43,17.01-11.67,32.81-35.48,32.81c-22.6,0-35.73-16.77-35.73-42.77s13.12-42.77,35.73-42.77c23.82,0,33.05,15.8,35.48,32.81
		l39.61-1.46c-2.92-38.16-27.95-68.05-74.85-68.05C70.23,224.15,36.45,256.47,36.45,303.62z"/>
	<path d="M253.96,227.06l-61,153.11h41.56l11.42-29.65h59.78l11.42,29.65h43.99l-61-153.11H253.96z M257.85,319.66l17.5-45.2h0.97
		l17.5,45.2H257.85z"/>
	<polygon points="378.87,380.17 416.78,380.17 416.78,289.52 482.88,380.17 515.94,380.17 515.94,227.06 478.02,227.06 
		478.02,311.88 418.24,227.06 378.87,227.06 	"/>
	<path d="M582.03,261.09v-34.02h-41.07v36.45h18.47c-0.24,9.72-6.8,12.88-18.47,13.37v18.71
		C568.18,294.87,582.03,284.9,582.03,261.09z"/>
	<polygon points="601.47,261.09 653.97,261.09 653.97,380.17 695.04,380.17 695.04,261.09 748.26,261.09 748.26,227.06 
		601.47,227.06 	"/>
	<path d="M61.8,174.5c32.16,0,49.33-20.33,51.33-46.49l-27.16-1.17c-1.67,11.66-8,22.5-24.33,22.5c-15.5,0-24.5-11.5-24.5-29.33
		c0-17.83,9-29.33,24.5-29.33c16.33,0,22.66,10.83,24.33,22.5l27.16-1c-2-26.16-19.16-46.66-51.33-46.66
		C31.14,65.51,7.98,87.67,7.98,120C7.98,152.33,31.14,174.5,61.8,174.5z"/>
	<path d="M145.62,130.67c-16.16,2.83-26.5,9-26.5,23.33c0,12.66,9.5,20.16,24,20.16c11.83,0,20.33-4.5,24.66-13.16
		c2.5,8.5,9.67,13.16,18.83,13.16c7.67,0,13-2.17,16.83-4.83V155c-2.17,0.83-3.83,1.17-6,1.17c-2.83,0-4.5-1.67-4.5-5.5v-25.33
		c0-20.66-14.5-29.16-34.16-29.16c-22.33,0-34.49,11.33-36.83,27.66l25,1.67c1.17-5.5,4.17-9.33,10.17-9.33
		c6.5,0,9.33,3.67,9.33,9.83v1.17L145.62,130.67z M166.45,141.5c0,9.67-6.17,15.33-13.83,15.33c-4.5,0-7.5-2.5-7.5-6.33
		c0-4.83,3.83-6.83,10.33-8.17l11-2V141.5z"/>
	<path d="M238.27,159.83c3.67,8.67,12,14.67,24.5,14.67c21.83,0,33-17.16,33-39.16c0-21.83-11.17-39.16-33-39.16
		c-12.5,0-20.83,6-24.5,14.83V98.17h-27v100.98h27V159.83z M238.27,134.83c0-10.67,5.83-17.66,15-17.66
		c10.5,0,15.33,7.5,15.33,18.16c0,10.83-4.83,18.33-15.33,18.33c-9.17,0-15-7-15-17.83V134.83z"/>
	<rect x="306.26" y="67.51" width="27.33" height="23.66"/>
	<rect x="306.43" y="98.17" width="27" height="74.32"/>
	<path d="M340.76,100.17v16.66h10v34.99c0,17.5,11.83,22.66,24.33,22.66c10.17,0,16.66-2.5,22.33-6.67v-17.5
		c-4.5,1.83-8.17,2.5-11.5,2.5c-5.5,0-8.5-2.5-8.5-8.83v-27.16h19.33V98.17h-19.33v-20.5h-17l-2.5,9.67
		c-1.83,6.83-4.17,10.83-11.67,12L340.76,100.17z"/>
	<path d="M429.91,130.67c-16.16,2.83-26.5,9-26.5,23.33c0,12.66,9.5,20.16,24,20.16c11.83,0,20.33-4.5,24.66-13.16
		c2.5,8.5,9.67,13.16,18.83,13.16c7.67,0,13-2.17,16.83-4.83V155c-2.17,0.83-3.83,1.17-6,1.17c-2.83,0-4.5-1.67-4.5-5.5v-25.33
		c0-20.66-14.5-29.16-34.16-29.16c-22.33,0-34.49,11.33-36.83,27.66l25,1.67c1.17-5.5,4.17-9.33,10.17-9.33
		c6.5,0,9.33,3.67,9.33,9.83v1.17L429.91,130.67z M450.74,141.5c0,9.67-6.17,15.33-13.83,15.33c-4.5,0-7.5-2.5-7.5-6.33
		c0-4.83,3.83-6.83,10.33-8.17l11-2V141.5z"/>
	<rect x="495.56" y="67.51" width="27" height="104.98"/>
	<rect x="537.06" y="67.51" width="27.33" height="23.66"/>
	<rect x="537.23" y="98.17" width="27" height="74.32"/>
	<path d="M611.21,157.66c-8.17,0-13.16-3.5-14.16-9.67l-23.5,0.33c1.5,18,16.83,26.16,37.33,26.16c21.16,0,34.5-9,34.5-24.66
		c0-14.5-9.67-22-26.33-24.66l-14.5-2.5c-2.5-0.33-4.5-1.67-4.5-4.17c0-3.33,3-5.33,8.17-5.33c8.33,0,13,3.33,14,8.67l22.16-0.67
		c-1.5-15.5-14.17-25-35.66-25c-20.83,0-33.66,10.5-33.66,25.16c0,15.16,9.5,21,27.5,23.83l11,1.67c5.17,0.83,6.83,2.83,6.83,5.67
		C620.38,155.5,617.21,157.66,611.21,157.66z"/>
	<path d="M682.7,136c0-11.17,3.17-18.5,12-18.5c8.17,0,10.17,5.33,10.17,15.5v39.49h27V136c0-11.17,3-18.5,12-18.5
		c8.17,0,10,5.33,10,15.5v39.49h27v-46.66c0-15.5-6-29.66-26.5-29.66c-12.5,0-21.33,6.33-25.33,14.66
		c-3.17-8.67-10-14.66-23.16-14.66c-11.17,0-19.16,5-23.16,13.16V98.17h-27v74.32h27V136z"/>
	<path d="M186.6,495.56c-10.44,0-19.54-4.03-20.43-15.81l-23.27,0.75c0,22.67,18.2,35.05,43.7,35.05c21.93,0,39.23-9.99,39.23-29.98
		c0-15.36-8.95-25.65-28.64-29.08l-17.75-3.13c-5.82-1.04-9.4-2.69-9.4-7.01c0-5.22,4.77-8.5,13.13-8.5
		c9.69,0,16.71,4.47,17.45,14.17l23.27-0.45c-0.45-20.88-14.47-33.56-40.42-33.56c-23.42,0-38.33,11.48-38.33,30.58
		c0,16.41,10.74,25.06,26.1,27.89l17.15,2.98c7.16,1.34,12.68,2.24,12.68,7.76C201.06,492.42,195.4,495.56,186.6,495.56z"/>
	<path d="M256.69,476.31c-14.47,2.54-23.72,8.05-23.72,20.88c0,11.34,8.5,18.05,21.48,18.05c10.59,0,18.2-4.03,22.07-11.78
		c2.24,7.61,8.65,11.78,16.85,11.78c6.86,0,11.63-1.94,15.06-4.33v-12.83c-1.94,0.75-3.43,1.04-5.37,1.04
		c-2.54,0-4.03-1.49-4.03-4.92v-22.67c0-18.5-12.98-26.1-30.58-26.1c-19.99,0-30.88,10.14-32.96,24.76l22.37,1.49
		c1.04-4.92,3.73-8.35,9.1-8.35c5.82,0,8.35,3.28,8.35,8.8v1.04L256.69,476.31z M275.34,486.01c0,8.65-5.52,13.72-12.38,13.72
		c-4.03,0-6.71-2.24-6.71-5.67c0-4.33,3.43-6.12,9.25-7.31l9.84-1.79V486.01z"/>
	<polygon points="345.44,488.54 344.84,488.54 330.38,447.23 305.02,447.23 329.78,513.75 358.57,513.75 383.33,447.23 
		359.91,447.23 	"/>
	<path d="M454.32,491.83l-19.39-1.79c-2.24,5.22-6.41,7.46-12.98,7.46c-7.31,0-13.27-3.88-13.87-12.08h46.69v-6.71
		c0-18.05-11.78-33.26-34.01-33.26c-20.73,0-36.24,15.06-36.24,36.1c0,21.18,15.21,34.01,36.54,34.01
		C438.66,515.54,450.89,507.04,454.32,491.83z M420.46,462.74c7.16,0,11.04,5.07,11.34,11.04h-23.42
		C409.28,467.51,412.71,462.74,420.46,462.74z"/>
	<path d="M516.66,472.29v-52.5h-25.21v56.68c0,27.44,18.5,39.08,42.66,39.08s42.81-11.63,42.81-39.08v-56.68h-25.36v52.5
		c0,14.32-4.33,21.93-17.45,21.93C521.14,494.21,516.66,486.61,516.66,472.29z"/>
	<path d="M625.84,471.39l-12.98-2.24c-2.24-0.3-4.03-1.49-4.03-3.73c0-2.98,2.68-4.77,7.31-4.77c7.46,0,11.63,2.98,12.53,7.76
		l19.84-0.6c-1.34-13.87-12.68-22.37-31.92-22.37c-18.64,0-30.13,9.4-30.13,22.52c0,13.57,8.5,18.79,24.61,21.33l9.84,1.49
		c4.62,0.75,6.12,2.54,6.12,5.07c0,2.68-2.83,4.62-8.2,4.62c-7.31,0-11.78-3.13-12.68-8.65l-21.03,0.3
		c1.34,16.11,15.06,23.42,33.41,23.42c18.94,0,30.88-8.05,30.88-22.08C649.41,480.49,640.76,473.78,625.84,471.39z"/>
	<polygon points="265.16,23.55 266.5,18.36 266.58,18.36 267.92,23.55 271.2,23.55 274.07,14.5 276.93,23.55 280.21,23.55 
		281.55,18.36 281.63,18.36 282.97,23.55 286.25,23.55 289.11,14.5 291.98,23.55 295.25,23.55 296.59,18.36 296.68,18.36 
		298.02,23.55 301.29,23.55 304.2,14.36 301.19,14.36 299.54,19.58 299.46,19.58 298.12,14.36 295.46,14.36 294.12,19.58 
		294.04,19.58 292.39,14.36 289.15,14.36 289.07,14.36 286.15,14.36 284.5,19.58 284.41,19.58 283.07,14.36 280.41,14.36 
		279.07,19.58 278.99,19.58 277.34,14.36 274.11,14.36 274.02,14.36 271.1,14.36 269.45,19.58 269.37,19.58 268.03,14.36 
		265.37,14.36 264.03,19.58 263.95,19.58 262.3,14.36 258.98,14.36 261.88,23.55 	"/>
	<rect x="306.63" y="20.01" width="3.55" height="3.55"/>
	<path d="M319.72,23.8c3.98,0,6.1-2.52,6.35-5.75l-3.36-0.14c-0.21,1.44-0.99,2.78-3.01,2.78c-1.92,0-3.03-1.42-3.03-3.63
		s1.11-3.63,3.03-3.63c2.02,0,2.8,1.34,3.01,2.78l3.36-0.12c-0.25-3.24-2.37-5.77-6.35-5.77c-3.79,0-6.66,2.74-6.66,6.74
		S315.92,23.8,319.72,23.8z"/>
	<path d="M330.08,18.38c-2,0.35-3.28,1.11-3.28,2.89c0,1.57,1.17,2.49,2.97,2.49c1.46,0,2.52-0.56,3.05-1.63
		c0.31,1.05,1.2,1.63,2.33,1.63c0.95,0,1.61-0.27,2.08-0.6v-1.77c-0.27,0.1-0.47,0.14-0.74,0.14c-0.35,0-0.56-0.21-0.56-0.68v-3.13
		c0-2.56-1.79-3.61-4.23-3.61c-2.76,0-4.27,1.4-4.56,3.42l3.09,0.21c0.14-0.68,0.52-1.15,1.26-1.15c0.8,0,1.15,0.45,1.15,1.22v0.14
		L330.08,18.38z M332.66,19.72c0,1.2-0.76,1.9-1.71,1.9c-0.56,0-0.93-0.31-0.93-0.78c0-0.6,0.47-0.85,1.28-1.01l1.36-0.25V19.72z"/>
	<path d="M341.54,21.99c0.45,1.07,1.48,1.81,3.03,1.81c2.7,0,4.08-2.12,4.08-4.84c0-2.7-1.38-4.84-4.08-4.84
		c-1.55,0-2.58,0.74-3.03,1.83v-1.59h-3.34v12.49h3.34V21.99z M341.54,18.9c0-1.32,0.72-2.19,1.86-2.19c1.3,0,1.9,0.93,1.9,2.25
		c0,1.34-0.6,2.27-1.9,2.27c-1.13,0-1.86-0.87-1.86-2.21V18.9z"/>
	<rect x="349.97" y="14.36" width="3.34" height="9.19"/>
	<rect x="349.95" y="10.57" width="3.38" height="2.93"/>
	<path d="M355.46,21c0,2.16,1.46,2.8,3.01,2.8c1.26,0,2.06-0.31,2.76-0.82v-2.16c-0.56,0.23-1.01,0.31-1.42,0.31
		c-0.68,0-1.05-0.31-1.05-1.09v-3.36h2.39v-2.31h-2.39v-2.54h-2.1l-0.31,1.2c-0.23,0.85-0.52,1.34-1.44,1.48l-0.68,0.1v2.06h1.24V21
		z"/>
	<path d="M365.25,18.38c-2,0.35-3.28,1.11-3.28,2.89c0,1.57,1.17,2.49,2.97,2.49c1.46,0,2.52-0.56,3.05-1.63
		c0.31,1.05,1.2,1.63,2.33,1.63c0.95,0,1.61-0.27,2.08-0.6v-1.77c-0.27,0.1-0.47,0.14-0.74,0.14c-0.35,0-0.56-0.21-0.56-0.68v-3.13
		c0-2.56-1.79-3.61-4.23-3.61c-2.76,0-4.27,1.4-4.56,3.42l3.09,0.21c0.14-0.68,0.52-1.15,1.26-1.15c0.8,0,1.15,0.45,1.15,1.22v0.14
		L365.25,18.38z M367.82,19.72c0,1.2-0.76,1.9-1.71,1.9c-0.56,0-0.93-0.31-0.93-0.78c0-0.6,0.47-0.85,1.28-1.01l1.36-0.25V19.72z"/>
	<rect x="373.37" y="10.57" width="3.34" height="12.99"/>
	<rect x="378.5" y="10.57" width="3.38" height="2.93"/>
	<rect x="378.52" y="14.36" width="3.34" height="9.19"/>
	<path d="M387.67,21.72c-1.01,0-1.63-0.43-1.75-1.2l-2.91,0.04c0.19,2.23,2.08,3.24,4.62,3.24c2.62,0,4.27-1.11,4.27-3.05
		c0-1.79-1.2-2.72-3.26-3.05l-1.79-0.31c-0.31-0.04-0.56-0.21-0.56-0.52c0-0.41,0.37-0.66,1.01-0.66c1.03,0,1.61,0.41,1.73,1.07
		l2.74-0.08c-0.19-1.92-1.75-3.09-4.41-3.09c-2.58,0-4.16,1.3-4.16,3.11c0,1.88,1.17,2.6,3.4,2.95l1.36,0.21
		c0.64,0.1,0.85,0.35,0.85,0.7C388.8,21.45,388.41,21.72,387.67,21.72z"/>
	<path d="M396.51,19.04c0-1.38,0.39-2.29,1.48-2.29c1.01,0,1.26,0.66,1.26,1.92v4.89h3.34v-4.51c0-1.38,0.37-2.29,1.48-2.29
		c1.01,0,1.24,0.66,1.24,1.92v4.89h3.34v-5.77c0-1.92-0.74-3.67-3.28-3.67c-1.55,0-2.64,0.78-3.13,1.81
		c-0.39-1.07-1.24-1.81-2.87-1.81c-1.38,0-2.37,0.62-2.87,1.63v-1.38h-3.34v9.19h3.34V19.04z"/>
	<rect x="413.91" y="10.57" width="3.5" height="12.99"/>
	<path d="M423.3,21.72c-1.01,0-1.63-0.43-1.75-1.2l-2.91,0.04c0.19,2.23,2.08,3.24,4.62,3.24c2.62,0,4.27-1.11,4.27-3.05
		c0-1.79-1.2-2.72-3.26-3.05l-1.79-0.31c-0.31-0.04-0.56-0.21-0.56-0.52c0-0.41,0.37-0.66,1.01-0.66c1.03,0,1.61,0.41,1.73,1.07
		l2.74-0.08c-0.19-1.92-1.75-3.09-4.41-3.09c-2.58,0-4.16,1.3-4.16,3.11c0,1.88,1.18,2.6,3.4,2.95l1.36,0.21
		c0.64,0.1,0.85,0.35,0.85,0.7C424.44,21.45,424.05,21.72,423.3,21.72z"/>
	<path d="M435.86,21.04h5.07l0.97,2.52h3.73l-5.17-12.99h-3.92l-5.17,12.99h3.52L435.86,21.04z M438.35,14.59h0.08l1.48,3.83h-3.05
		L438.35,14.59z"/>
	<polygon points="456.16,23.55 461.15,10.57 457.66,10.57 454.45,19.2 454.36,19.2 451.15,10.57 447.48,10.57 452.47,23.55 	"/>
	<rect x="462.03" y="10.57" width="3.38" height="2.93"/>
	<rect x="462.05" y="14.36" width="3.34" height="9.19"/>
	<path d="M470.54,19.35c0-1.55,0.76-2.12,2-2.12c0.64,0,1.13,0.12,1.59,0.39l0.21-3.15c-0.23-0.19-0.72-0.35-1.28-0.35
		c-1.22,0-2.19,0.85-2.52,1.88v-1.63h-3.34v9.19h3.34V19.35z"/>
	<path d="M478.54,23.8c1.38,0,2.39-0.6,2.89-1.63v1.38h3.34v-9.19h-3.34v4.51c0,1.4-0.41,2.31-1.46,2.31
		c-1.01,0-1.36-0.68-1.36-1.92v-4.91h-3.34v5.79C475.26,22.07,476.02,23.8,478.54,23.8z"/>
	<path d="M490.58,21.72c-1.01,0-1.63-0.43-1.75-1.2l-2.91,0.04c0.19,2.23,2.08,3.24,4.62,3.24c2.62,0,4.27-1.11,4.27-3.05
		c0-1.79-1.2-2.72-3.26-3.05l-1.79-0.31c-0.31-0.04-0.56-0.21-0.56-0.52c0-0.41,0.37-0.66,1.01-0.66c1.03,0,1.61,0.41,1.73,1.07
		l2.74-0.08c-0.19-1.92-1.75-3.09-4.41-3.09c-2.58,0-4.16,1.3-4.16,3.11c0,1.88,1.18,2.6,3.4,2.95l1.36,0.21
		c0.64,0.1,0.85,0.35,0.85,0.7C491.71,21.45,491.32,21.72,490.58,21.72z"/>
	<rect x="497.64" y="20.01" width="3.55" height="3.55"/>
	<path d="M509.1,23.8c2.99,0,5.03-1.98,5.03-4.84c0-2.84-2.04-4.84-5.03-4.84c-3.01,0-5.03,2-5.03,4.84
		C504.07,21.82,506.09,23.8,509.1,23.8z M509.1,16.63c1.15,0,1.67,0.95,1.67,2.33c0,1.38-0.52,2.33-1.67,2.33
		c-1.17,0-1.67-0.95-1.67-2.33C507.44,17.58,507.93,16.63,509.1,16.63z"/>
	<path d="M518.79,19.35c0-1.55,0.76-2.12,2-2.12c0.64,0,1.13,0.12,1.59,0.39l0.21-3.15c-0.23-0.19-0.72-0.35-1.28-0.35
		c-1.22,0-2.19,0.85-2.52,1.88v-1.63h-3.34v9.19h3.34V19.35z"/>
	<path d="M522.6,24.85c0,1.73,2.27,2.25,4.89,2.25c2.99,0,5.77-1.05,5.77-3.34c0-1.55-1.05-2.64-3.13-2.64h-3.81
		c-0.56,0-0.78-0.25-0.78-0.56c0-0.19,0.06-0.33,0.19-0.43c0.6,0.19,1.26,0.27,2,0.27c2.6,0,4.47-1.2,4.47-3.13
		c0-0.43-0.1-0.82-0.29-1.17c0.45-0.1,0.95-0.14,1.34-0.14v-2.51c-1.01,0-2.02,0.66-2.58,1.42c-0.78-0.47-1.83-0.74-2.95-0.74
		c-2.58,0-4.43,1.2-4.43,3.15c0,1.01,0.49,1.79,1.32,2.33c-0.99,0.37-1.57,1.05-1.57,1.94c0,0.78,0.49,1.53,1.32,1.79
		C523.33,23.41,522.6,24.05,522.6,24.85z M527.76,15.95c0.56,0,0.97,0.52,0.97,1.32c0,0.82-0.41,1.34-0.97,1.34
		c-0.56,0-0.97-0.52-0.97-1.34C526.79,16.46,527.2,15.95,527.76,15.95z M525.96,23.97h3.38c0.56,0,0.85,0.14,0.85,0.54
		c0,0.56-1.13,0.87-2.68,0.87c-1.24,0-2.16-0.19-2.16-0.84C525.35,24.17,525.59,23.97,525.96,23.97z"/>
	<path d="M311.03,589.49l0.43-2.06h-1.83l0.82-3.42h-2.49l-0.82,3.42h-1.77l0.83-3.42h-2.49l-0.82,3.42h-2.02l-0.43,2.06h1.98
		l-0.49,2.02h-1.88l-0.43,2.06h1.81l-0.8,3.42h2.49l0.8-3.42h1.77l-0.8,3.42h2.49l0.8-3.42h2.04l0.43-2.06h-1.98l0.49-2.02H311.03z
		 M306.17,591.51h-1.77l0.5-2.02h1.77L306.17,591.51z"/>
	<path d="M320.73,586.87c2.02,0,2.8,1.34,3.01,2.78l3.36-0.12c-0.25-3.24-2.37-5.77-6.35-5.77c-3.79,0-6.66,2.74-6.66,6.74
		c0,4,2.87,6.74,6.66,6.74c3.98,0,6.1-2.52,6.35-5.75l-3.36-0.14c-0.21,1.44-0.99,2.78-3.01,2.78c-1.92,0-3.03-1.42-3.03-3.63
		C317.7,588.29,318.81,586.87,320.73,586.87z"/>
	<path d="M331.11,591.82c-2,0.35-3.28,1.11-3.28,2.89c0,1.57,1.18,2.49,2.97,2.49c1.46,0,2.52-0.56,3.05-1.63
		c0.31,1.05,1.2,1.63,2.33,1.63c0.95,0,1.61-0.27,2.08-0.6v-1.77c-0.27,0.1-0.47,0.14-0.74,0.14c-0.35,0-0.56-0.21-0.56-0.68v-3.13
		c0-2.56-1.79-3.61-4.23-3.61c-2.76,0-4.27,1.4-4.56,3.42l3.09,0.21c0.14-0.68,0.52-1.15,1.26-1.15c0.8,0,1.15,0.45,1.15,1.22v0.14
		L331.11,591.82z M333.69,593.16c0,1.2-0.76,1.9-1.71,1.9c-0.56,0-0.93-0.31-0.93-0.78c0-0.6,0.47-0.85,1.28-1.01l1.36-0.25V593.16z
		"/>
	<path d="M339.23,587.8v12.49h3.34v-4.87c0.45,1.07,1.48,1.81,3.03,1.81c2.7,0,4.08-2.12,4.08-4.84c0-2.7-1.38-4.84-4.08-4.84
		c-1.55,0-2.58,0.74-3.03,1.83v-1.59H339.23z M344.43,590.15c1.3,0,1.9,0.93,1.9,2.25c0,1.34-0.6,2.27-1.9,2.27
		c-1.13,0-1.86-0.87-1.86-2.21v-0.12C342.57,591.02,343.29,590.15,344.43,590.15z"/>
	<rect x="351" y="587.8" width="3.34" height="9.19"/>
	<rect x="350.98" y="584.01" width="3.38" height="2.93"/>
	<path d="M359.49,597.24c1.26,0,2.06-0.31,2.76-0.82v-2.16c-0.56,0.23-1.01,0.31-1.42,0.31c-0.68,0-1.05-0.31-1.05-1.09v-3.36h2.39
		v-2.31h-2.39v-2.54h-2.1l-0.31,1.2c-0.23,0.85-0.52,1.34-1.44,1.48l-0.68,0.1v2.06h1.24v4.33
		C356.48,596.6,357.95,597.24,359.49,597.24z"/>
	<path d="M366.27,591.82c-2,0.35-3.28,1.11-3.28,2.89c0,1.57,1.18,2.49,2.97,2.49c1.46,0,2.51-0.56,3.05-1.63
		c0.31,1.05,1.2,1.63,2.33,1.63c0.95,0,1.61-0.27,2.08-0.6v-1.77c-0.27,0.1-0.47,0.14-0.74,0.14c-0.35,0-0.56-0.21-0.56-0.68v-3.13
		c0-2.56-1.79-3.61-4.23-3.61c-2.76,0-4.27,1.4-4.56,3.42l3.09,0.21c0.14-0.68,0.52-1.15,1.26-1.15c0.8,0,1.15,0.45,1.15,1.22v0.14
		L366.27,591.82z M368.85,593.16c0,1.2-0.76,1.9-1.71,1.9c-0.56,0-0.93-0.31-0.93-0.78c0-0.6,0.47-0.85,1.28-1.01l1.36-0.25V593.16z
		"/>
	<rect x="374.39" y="584.01" width="3.34" height="12.99"/>
	<rect x="379.55" y="587.8" width="3.34" height="9.19"/>
	<rect x="379.53" y="584.01" width="3.38" height="2.93"/>
	<path d="M388.7,595.16c-1.01,0-1.63-0.43-1.75-1.2l-2.91,0.04c0.19,2.23,2.08,3.24,4.62,3.24c2.62,0,4.27-1.11,4.27-3.05
		c0-1.79-1.2-2.72-3.26-3.05l-1.79-0.31c-0.31-0.04-0.56-0.21-0.56-0.52c0-0.41,0.37-0.66,1.01-0.66c1.03,0,1.61,0.41,1.73,1.07
		l2.74-0.08c-0.19-1.92-1.75-3.09-4.41-3.09c-2.58,0-4.16,1.3-4.16,3.11c0,1.88,1.18,2.6,3.4,2.95l1.36,0.21
		c0.64,0.1,0.85,0.35,0.85,0.7C389.83,594.89,389.44,595.16,388.7,595.16z"/>
	<path d="M409.68,596.99v-5.77c0-1.92-0.74-3.67-3.28-3.67c-1.55,0-2.64,0.78-3.13,1.81c-0.39-1.07-1.24-1.81-2.87-1.81
		c-1.38,0-2.37,0.62-2.87,1.63v-1.38h-3.34v9.19h3.34v-4.51c0-1.38,0.39-2.29,1.48-2.29c1.01,0,1.26,0.66,1.26,1.92v4.89h3.34v-4.51
		c0-1.38,0.37-2.29,1.48-2.29c1.01,0,1.24,0.66,1.24,1.92v4.89H409.68z"/>
	<rect x="413.27" y="584.01" width="3.5" height="12.99"/>
	<path d="M422.67,595.16c-1.01,0-1.63-0.43-1.75-1.2l-2.91,0.04c0.19,2.23,2.08,3.24,4.62,3.24c2.62,0,4.27-1.11,4.27-3.05
		c0-1.79-1.2-2.72-3.26-3.05l-1.79-0.31c-0.31-0.04-0.56-0.21-0.56-0.52c0-0.41,0.37-0.66,1.01-0.66c1.03,0,1.61,0.41,1.73,1.07
		l2.74-0.08c-0.19-1.92-1.75-3.09-4.41-3.09c-2.58,0-4.16,1.3-4.16,3.11c0,1.88,1.18,2.6,3.4,2.95l1.36,0.21
		c0.64,0.1,0.85,0.35,0.85,0.7C423.8,594.89,423.41,595.16,422.67,595.16z"/>
	<path d="M429.07,596.99h3.52l0.97-2.51h5.07l0.97,2.51h3.73l-5.17-12.99h-3.92L429.07,596.99z M436.05,588.03h0.08l1.48,3.83h-3.05
		L436.05,588.03z"/>
	<polygon points="453.81,596.99 458.8,584.01 455.31,584.01 452.1,592.64 452.01,592.64 448.8,584.01 445.13,584.01 450.12,596.99 	
		"/>
	<rect x="459.68" y="584.01" width="3.38" height="2.93"/>
	<rect x="459.7" y="587.8" width="3.34" height="9.19"/>
	<path d="M464.85,587.8v9.19h3.34v-4.21c0-1.55,0.76-2.12,2-2.12c0.64,0,1.13,0.12,1.59,0.39l0.21-3.15
		c-0.23-0.19-0.72-0.35-1.28-0.35c-1.22,0-2.19,0.85-2.52,1.88v-1.63H464.85z"/>
	<path d="M482.41,596.99v-9.19h-3.34v4.51c0,1.4-0.41,2.31-1.46,2.31c-1.01,0-1.36-0.68-1.36-1.92v-4.91h-3.34v5.79
		c0,1.92,0.76,3.65,3.28,3.65c1.38,0,2.39-0.6,2.89-1.63v1.38H482.41z"/>
	<path d="M487.85,589.65c1.03,0,1.61,0.41,1.73,1.07l2.74-0.08c-0.19-1.92-1.75-3.09-4.41-3.09c-2.58,0-4.16,1.3-4.16,3.11
		c0,1.88,1.17,2.6,3.4,2.95l1.36,0.21c0.64,0.1,0.85,0.35,0.85,0.7c0,0.37-0.39,0.64-1.13,0.64c-1.01,0-1.63-0.43-1.75-1.2
		l-2.91,0.04c0.19,2.23,2.08,3.24,4.62,3.24c2.62,0,4.27-1.11,4.27-3.05c0-1.79-1.2-2.72-3.26-3.05l-1.79-0.31
		c-0.31-0.04-0.56-0.21-0.56-0.52C486.84,589.9,487.21,589.65,487.85,589.65z"/>
</g>
<g id="exp_white_bg" class="st0">
	<g class="st2">
		<path class="st5" d="M330.02,20.83c0,0.47,0.37,0.78,0.93,0.78c0.95,0,1.71-0.7,1.71-1.9v-0.14l-1.36,0.25
			C330.5,19.99,330.02,20.24,330.02,20.83z"/>
		<path class="st5" d="M256.25,494.06c0,3.43,2.68,5.67,6.71,5.67c6.86,0,12.38-5.07,12.38-13.72v-1.04l-9.84,1.79
			C259.68,487.95,256.25,489.74,256.25,494.06z"/>
		<path class="st5" d="M253.27,153.66c10.5,0,15.33-7.5,15.33-18.33c0-10.67-4.83-18.16-15.33-18.16c-9.17,0-15,7-15,17.66v1
			C238.27,146.67,244.11,153.66,253.27,153.66z"/>
		<path class="st5" d="M145.12,150.5c0,3.83,3,6.33,7.5,6.33c7.67,0,13.83-5.67,13.83-15.33v-1.17l-11,2
			C148.96,143.67,145.12,145.67,145.12,150.5z"/>
		<polygon class="st5" points="275.34,274.45 257.85,319.66 293.81,319.66 276.32,274.45 		"/>
		<polygon class="st5" points="304.4,591.51 306.17,591.51 306.66,589.49 304.89,589.49 		"/>
		<path class="st5" d="M429.41,150.5c0,3.83,3,6.33,7.5,6.33c7.67,0,13.83-5.67,13.83-15.33v-1.17l-11,2
			C433.24,143.67,429.41,145.67,429.41,150.5z"/>
		<path class="st5" d="M343.4,21.22c1.3,0,1.9-0.93,1.9-2.27c0-1.32-0.6-2.25-1.9-2.25c-1.13,0-1.86,0.87-1.86,2.19v0.12
			C341.54,20.36,342.27,21.22,343.4,21.22z"/>
		<path class="st5" d="M365.18,20.83c0,0.47,0.37,0.78,0.93,0.78c0.95,0,1.71-0.7,1.71-1.9v-0.14l-1.36,0.25
			C365.66,19.99,365.18,20.24,365.18,20.83z"/>
		<path class="st5" d="M0.14,1224h792V0h-792V1224z M578.39,864.46l-52.49-25.8l14.31-29.06c-3.3-2.81-7.28-5.54-12.06-7.9
			c-16.75-8.25-27.03,8.97-28.15,10.97l-3.72,6.63l-2.66-1.29l-26.95,59.2c3.15,2.8,5.94,5.57,8.1,8.23
			c4.7,5.8,4.89,11.48,4.22,15.21c-1.28,7.11-6.61,12.53-11.18,15.23c-0.69,0.41-1.4,0.8-2.13,1.19
			c9.87,6.39,15.82,18.17,14.35,30.4c-0.93,7.82-5.27,15-11.89,19.71c-0.38,0.27-0.78,0.51-1.17,0.76
			c4.64,6.31,6.99,14.31,6.01,22.52c-0.93,7.82-5.27,15-11.89,19.7c-2.9,2.06-6.15,3.57-9.57,4.52c2.04,4.89,2.89,10.33,2.23,15.85
			c-0.93,7.82-5.27,15-11.89,19.71c-3.48,2.47-7.44,4.15-11.62,5.03c1.56,4.43,2.17,9.23,1.59,14.1
			c-0.92,7.79-5.25,14.95-11.88,19.63c-5.31,3.75-11.74,5.71-18.35,5.71c-2.5,0-5.04-0.28-7.54-0.85l-0.02-0.01
			c-7.79-1.8-15.48-3.93-23.06-6.36l-34.32,75.39l-78.46-38.63l37.28-71.99c-16.65-4.95-35.97-10.82-55.6-17.09
			c-4.28-0.12-22.87,1.76-42.49,3.75c-43.8,4.44-110,11.15-170.03,12.69c-4.68,0.1-8.59-3.59-8.71-8.28
			c-0.12-4.69,3.59-8.59,8.28-8.71c0.03,0,0.05,0,0.08,0c59.37-1.52,125.15-8.19,168.68-12.61c40.09-4.07,45.09-4.4,48.66-3.26
			c19.95,6.37,39.6,12.35,56.46,17.35c0.13-5.63,1.89-11.1,5.17-15.65c2.97-4.13,6.75-7.36,10.97-9.61l0.93-1.8
			c-1.28-2.43-2.24-5.03-2.83-7.73c-1.72-7.93-0.07-16.17,4.54-22.6c4.18-5.84,10.12-9.87,16.64-11.85
			c-0.78-1.8-1.39-3.66-1.81-5.58c-0.17-0.8-0.3-1.6-0.41-2.4c-4.33,3.45-9.26,6.93-14.89,10.34c-1.38,0.84-2.9,1.24-4.4,1.24
			c-2.87,0-5.67-1.46-7.27-4.09c-2.44-4.01-1.16-9.24,2.86-11.68c16.43-9.97,25.68-20.21,30.55-27.05
			c5.23-7.34,6.66-12.43,6.67-12.48l1.65-6.66l6.72,0.31c0.13,0,19.01-0.13,40.69-16.73l5.16-3.95l5.17,3.95
			c0.01,0.01,4.21,3.14,15.94,9.78c13.32,7.54,27.9,4.39,36.34-0.6c1.46-0.87,2.91-2.55,3.1-3.6c0.02-0.13,0.1-0.53-0.69-1.5
			c-5.92-7.31-20.15-17.35-30.55-24.68c-4.6-3.24-8.56-6.04-11.27-8.21c-8.17-6.54-12.7-6.93-22.63-7.79l-1.87-0.16
			c-20.82-1.84-51.09-1.96-68.66,1.37c-11.83,2.25-27.16,13.69-39.48,22.89c-9.53,7.11-17.37,12.96-24.18,15.59l0.7,0.9l-6.64,0.49
			l-1-0.17c-1.06-0.18-107.13-17.64-231.66-20.93c-0.12,0-0.24-0.01-0.36-0.01c-4.69-0.12-8.4-4.03-8.27-8.72
			c0.12-4.69,4.02-8.4,8.72-8.27c116.75,3.06,217.55,18.49,232.46,20.86c4.38-1.64,12.67-7.83,20.07-13.35
			c14.44-10.78,30.8-22.99,46.48-25.97c19.98-3.79,52.01-3.49,73.33-1.61l1.84,0.16c2.49,0.21,4.86,0.42,7.18,0.73l26.61-51.38
			l-3.39-1.67l-0.67-4.07c-0.02-0.08-2.68-14.08-17.52-31.36c-25.13-29.27-65.11-45.2-94.23-53.41l-21.04-5.93l19.88-9.09
			c35.21-16.11,62.4-23.01,88.12-22.4c24,0.58,48.1,7.65,80.59,23.64c27.1,13.34,56.63,27.89,56.75,27.94l5.82,2.87l-1.58,6.29
			c-0.35,1.49-3.11,15.4,11.16,22.43c4.7,2.31,9.46,4.12,13.97,5.52l10.84-22.02l52.49,25.8L578.39,864.46z M188.39,479.45
			l-17.15-2.98c-15.36-2.83-26.1-11.48-26.1-27.89c0-19.09,14.92-30.58,38.33-30.58c25.95,0,39.97,12.68,40.42,33.56L200.62,452
			c-0.75-9.7-7.76-14.17-17.45-14.17c-8.35,0-13.13,3.28-13.13,8.5c0,4.33,3.58,5.97,9.4,7.01l17.75,3.13
			c19.69,3.43,28.64,13.72,28.64,29.08c0,19.99-17.3,29.98-39.23,29.98c-25.51,0-43.7-12.38-43.7-35.05l23.27-0.75
			c0.89,11.78,9.99,15.81,20.43,15.81c8.8,0,14.47-3.13,14.47-8.35C201.06,481.68,195.55,480.79,188.39,479.45z M361.13,380.17
			h-43.99l-11.42-29.65h-59.78l-11.42,29.65h-41.56l61-153.11h46.18L361.13,380.17z M306.43,172.5V98.17h27v74.32H306.43z
			 M441.41,116.17c-6,0-9,3.83-10.17,9.33l-25-1.67c2.33-16.33,14.5-27.66,36.83-27.66c19.66,0,34.16,8.5,34.16,29.16v25.33
			c0,3.83,1.67,5.5,4.5,5.5c2.17,0,3.83-0.33,6-1.17v14.33c-3.83,2.67-9.17,4.83-16.83,4.83c-9.17,0-16.33-4.67-18.83-13.16
			c-4.33,8.67-12.83,13.16-24.66,13.16c-14.5,0-24-7.5-24-20.16c0-14.33,10.33-20.5,26.5-23.33l20.83-3.5V126
			C450.74,119.84,447.91,116.17,441.41,116.17z M462.05,23.55v-9.19h3.34v9.19H462.05z M418.24,227.06l59.78,84.82v-84.82h37.91
			v153.11h-33.05l-66.1-90.65v90.65h-37.91V227.06H418.24z M487.4,590.83l1.79,0.31c2.06,0.33,3.26,1.26,3.26,3.05
			c0,1.94-1.65,3.05-4.27,3.05c-2.54,0-4.43-1.01-4.62-3.24l2.91-0.04c0.12,0.76,0.74,1.2,1.75,1.2c0.74,0,1.13-0.27,1.13-0.64
			c0-0.35-0.21-0.6-0.85-0.7l-1.36-0.21c-2.23-0.35-3.4-1.07-3.4-2.95c0-1.81,1.59-3.11,4.16-3.11c2.66,0,4.23,1.18,4.41,3.09
			l-2.74,0.08c-0.12-0.66-0.7-1.07-1.73-1.07c-0.64,0-1.01,0.25-1.01,0.66C486.84,590.62,487.09,590.79,487.4,590.83z
			 M476.19,597.24c-2.51,0-3.28-1.73-3.28-3.65v-5.79h3.34v4.91c0,1.24,0.35,1.92,1.36,1.92c1.05,0,1.46-0.91,1.46-2.31v-4.51h3.34
			v9.19h-3.34v-1.38C478.58,596.64,477.57,597.24,476.19,597.24z M470.71,587.55c0.56,0,1.05,0.17,1.28,0.35l-0.21,3.15
			c-0.45-0.27-0.95-0.39-1.59-0.39c-1.24,0-2,0.58-2,2.12v4.21h-3.34v-9.19h3.34v1.63C468.52,588.4,469.49,587.55,470.71,587.55z
			 M459.68,586.93v-2.93h3.38v2.93H459.68z M463.04,587.8v9.19h-3.34v-9.19H463.04z M421.06,515.54
			c-21.33,0-36.54-12.83-36.54-34.01c0-21.03,15.51-36.1,36.24-36.1c22.22,0,34.01,15.21,34.01,33.26v6.71h-46.69
			c0.6,8.2,6.56,12.08,13.87,12.08c6.56,0,10.74-2.24,12.98-7.46l19.39,1.79C450.89,507.04,438.66,515.54,421.06,515.54z
			 M443.33,596.99h-3.73l-0.97-2.51h-5.07l-0.97,2.51h-3.52l5.17-12.99h3.92L443.33,596.99z M422.96,593.82l-1.36-0.21
			c-2.23-0.35-3.4-1.07-3.4-2.95c0-1.81,1.59-3.11,4.16-3.11c2.66,0,4.23,1.18,4.41,3.09l-2.74,0.08c-0.12-0.66-0.7-1.07-1.73-1.07
			c-0.64,0-1.01,0.25-1.01,0.66c0,0.31,0.25,0.47,0.56,0.52l1.79,0.31c2.06,0.33,3.26,1.26,3.26,3.05c0,1.94-1.65,3.05-4.27,3.05
			c-2.54,0-4.43-1.01-4.62-3.24l2.91-0.04c0.12,0.76,0.74,1.2,1.75,1.2c0.74,0,1.13-0.27,1.13-0.64
			C423.8,594.17,423.6,593.92,422.96,593.82z M416.78,584.01v12.99h-3.5v-12.99H416.78z M405.11,590.19c-1.11,0-1.48,0.91-1.48,2.29
			v4.51h-3.34v-4.89c0-1.26-0.25-1.92-1.26-1.92c-1.09,0-1.48,0.91-1.48,2.29v4.51h-3.34v-9.19h3.34v1.38
			c0.5-1.01,1.48-1.63,2.87-1.63c1.63,0,2.47,0.74,2.87,1.81c0.49-1.03,1.59-1.81,3.13-1.81c2.54,0,3.28,1.75,3.28,3.67v5.77h-3.34
			v-4.89C406.34,590.85,406.12,590.19,405.11,590.19z M388.99,593.82l-1.36-0.21c-2.23-0.35-3.4-1.07-3.4-2.95
			c0-1.81,1.59-3.11,4.16-3.11c2.66,0,4.23,1.18,4.41,3.09l-2.74,0.08c-0.12-0.66-0.7-1.07-1.73-1.07c-0.64,0-1.01,0.25-1.01,0.66
			c0,0.31,0.25,0.47,0.56,0.52l1.79,0.31c2.06,0.33,3.26,1.26,3.26,3.05c0,1.94-1.65,3.05-4.27,3.05c-2.54,0-4.43-1.01-4.62-3.24
			l2.91-0.04c0.12,0.76,0.74,1.2,1.75,1.2c0.74,0,1.13-0.27,1.13-0.64C389.83,594.17,389.63,593.92,388.99,593.82z M448.8,584.01
			l3.22,8.64h0.08l3.22-8.64h3.48l-4.99,12.99h-3.69l-4.99-12.99H448.8z M383.33,447.23l-24.76,66.52h-28.79l-24.76-66.52h25.36
			l14.47,41.32h0.6l14.47-41.32H383.33z M379.53,586.93v-2.93h3.38v2.93H379.53z M382.89,587.8v9.19h-3.34v-9.19H382.89z
			 M377.73,584.01v12.99h-3.34v-12.99H377.73z M367.7,590.03c-0.74,0-1.11,0.47-1.26,1.15l-3.09-0.21c0.29-2.02,1.79-3.42,4.56-3.42
			c2.43,0,4.23,1.05,4.23,3.61v3.13c0,0.47,0.21,0.68,0.56,0.68c0.27,0,0.47-0.04,0.74-0.14v1.77c-0.47,0.33-1.13,0.6-2.08,0.6
			c-1.13,0-2.02-0.58-2.33-1.63c-0.54,1.07-1.59,1.63-3.05,1.63c-1.79,0-2.97-0.93-2.97-2.49c0-1.77,1.28-2.54,3.28-2.89l2.58-0.43
			v-0.14C368.85,590.48,368.5,590.03,367.7,590.03z M355.25,590.11v-2.06l0.68-0.1c0.93-0.14,1.22-0.64,1.44-1.48l0.31-1.2h2.1v2.54
			h2.39v2.31h-2.39v3.36c0,0.78,0.37,1.09,1.05,1.09c0.41,0,0.87-0.08,1.42-0.31v2.16c-0.7,0.52-1.5,0.82-2.76,0.82
			c-1.55,0-3.01-0.64-3.01-2.8v-4.33H355.25z M350.98,586.93v-2.93h3.38v2.93H350.98z M354.34,587.8v9.19H351v-9.19H354.34z
			 M345.6,587.55c2.7,0,4.08,2.14,4.08,4.84c0,2.72-1.38,4.84-4.08,4.84c-1.55,0-2.58-0.74-3.03-1.81v4.87h-3.34V587.8h3.34v1.59
			C343.03,588.29,344.06,587.55,345.6,587.55z M332.54,590.03c-0.74,0-1.11,0.47-1.26,1.15l-3.09-0.21
			c0.29-2.02,1.79-3.42,4.56-3.42c2.43,0,4.23,1.05,4.23,3.61v3.13c0,0.47,0.21,0.68,0.56,0.68c0.27,0,0.47-0.04,0.74-0.14v1.77
			c-0.47,0.33-1.13,0.6-2.08,0.6c-1.13,0-2.02-0.58-2.33-1.63c-0.54,1.07-1.59,1.63-3.05,1.63c-1.79,0-2.97-0.93-2.97-2.49
			c0-1.77,1.28-2.54,3.28-2.89l2.58-0.43v-0.14C333.69,590.48,333.34,590.03,332.54,590.03z M320.73,594.13
			c2.02,0,2.8-1.34,3.01-2.78l3.36,0.14c-0.25,3.24-2.37,5.75-6.35,5.75c-3.79,0-6.66-2.74-6.66-6.74c0-4,2.87-6.74,6.66-6.74
			c3.98,0,6.1,2.54,6.35,5.77l-3.36,0.12c-0.21-1.44-0.99-2.78-3.01-2.78c-1.92,0-3.03,1.42-3.03,3.63
			C317.7,592.71,318.81,594.13,320.73,594.13z M310.64,591.51l-0.43,2.06h-2.04l-0.8,3.42h-2.49l0.8-3.42h-1.77l-0.8,3.42h-2.49
			l0.8-3.42h-1.81l0.43-2.06h1.88l0.49-2.02h-1.98l0.43-2.06h2.02l0.82-3.42h2.49l-0.83,3.42h1.77l0.82-3.42h2.49l-0.82,3.42h1.83
			l-0.43,2.06h-1.88l-0.49,2.02H310.64z M266.99,463.34c-5.37,0-8.05,3.43-9.1,8.35l-22.37-1.49c2.09-14.62,12.98-24.76,32.96-24.76
			c17.6,0,30.58,7.61,30.58,26.1v22.67c0,3.43,1.49,4.92,4.03,4.92c1.94,0,3.43-0.3,5.37-1.04v12.83c-3.43,2.39-8.2,4.33-15.06,4.33
			c-8.2,0-14.62-4.18-16.85-11.78c-3.88,7.76-11.48,11.78-22.07,11.78c-12.98,0-21.48-6.71-21.48-18.05
			c0-12.83,9.25-18.35,23.72-20.88l18.64-3.13v-1.04C275.34,466.62,272.8,463.34,266.99,463.34z M540.96,276.88
			c11.67-0.49,18.23-3.65,18.47-13.37h-18.47v-36.45h41.07v34.02c0,23.82-13.85,33.78-41.07,34.51V276.88z M537.23,172.5V98.17h27
			v74.32H537.23z M618.53,515.54c-18.35,0-32.07-7.31-33.41-23.42l21.03-0.3c0.9,5.52,5.37,8.65,12.68,8.65
			c5.37,0,8.2-1.94,8.2-4.62c0-2.54-1.49-4.33-6.12-5.07l-9.84-1.49c-16.11-2.54-24.61-7.76-24.61-21.33
			c0-13.13,11.49-22.52,30.13-22.52c19.24,0,30.58,8.5,31.92,22.37l-19.84,0.6c-0.89-4.77-5.07-7.76-12.53-7.76
			c-4.62,0-7.31,1.79-7.31,4.77c0,2.24,1.79,3.43,4.03,3.73l12.98,2.24c14.92,2.39,23.57,9.1,23.57,22.07
			C649.41,507.49,637.47,515.54,618.53,515.54z M748.26,261.09h-53.22v119.08h-41.07V261.09h-52.49v-34.02h146.79V261.09z
			 M769.54,1189.97c0-0.39-0.04-0.89-0.14-1.34c-0.35,0.19-0.74,0.29-1.18,0.29c-1.94,0-3.13-1.88-3.13-4.47c0-0.74,0.08-1.4,0.27-2
			c-0.1-0.12-0.25-0.19-0.43-0.19c-0.31,0-0.56,0.23-0.56,0.78v3.81c0,2.08-1.09,3.13-2.64,3.13c-2.29,0-3.34-2.78-3.34-5.77
			c0-2.62,0.52-4.89,2.25-4.89c0.8,0,1.44,0.72,1.53,1.75c0.27-0.82,1.01-1.32,1.79-1.32c0.89,0,1.57,0.58,1.94,1.57
			c0.54-0.82,1.32-1.32,2.33-1.32c1.96,0,3.15,1.86,3.15,4.43c0,1.11-0.27,2.16-0.74,2.95c0.76,0.56,1.42,1.57,1.42,2.58H769.54z
			 M761.72,986.5c0-1.79,0.93-2.97,2.49-2.97c1.77,0,2.54,1.28,2.89,3.28l0.43,2.58h0.14c0.76,0,1.22-0.35,1.22-1.15
			c0-0.74-0.47-1.11-1.15-1.26l0.21-3.09c2.02,0.29,3.42,1.79,3.42,4.56c0,2.43-1.05,4.23-3.61,4.23h-3.13
			c-0.47,0-0.68,0.21-0.68,0.56c0,0.27,0.04,0.47,0.14,0.74h-1.77c-0.33-0.47-0.6-1.13-0.6-2.08c0-1.13,0.58-2.02,1.63-2.33
			C762.28,989.01,761.72,987.96,761.72,986.5z M764.09,1029.12h-1.77c-0.33-0.47-0.6-1.13-0.6-2.08c0-1.13,0.58-2.02,1.63-2.33
			c-1.07-0.54-1.63-1.59-1.63-3.05c0-1.79,0.93-2.97,2.49-2.97c1.77,0,2.54,1.28,2.89,3.28l0.43,2.58h0.14
			c0.76,0,1.22-0.35,1.22-1.15c0-0.74-0.47-1.11-1.15-1.26l0.21-3.09c2.02,0.29,3.42,1.79,3.42,4.56c0,2.43-1.05,4.23-3.61,4.23
			h-3.13c-0.47,0-0.68,0.21-0.68,0.56C763.95,1028.65,763.99,1028.86,764.09,1029.12z M771.37,1062.1c0,2.54-1.75,3.28-3.67,3.28
			h-5.77v-3.34h4.89c1.26,0,1.92-0.23,1.92-1.24c0-1.11-0.91-1.48-2.29-1.48h-4.51v-3.34h4.89c1.26,0,1.92-0.25,1.92-1.26
			c0-1.09-0.91-1.48-2.29-1.48h-4.51v-3.34h9.19v3.34h-1.38c1.01,0.49,1.63,1.48,1.63,2.87c0,1.63-0.74,2.47-1.81,2.87
			C770.59,1059.46,771.37,1060.55,771.37,1062.1z M768.28,1048.5l-0.08-2.74c0.66-0.12,1.07-0.7,1.07-1.73
			c0-0.64-0.25-1.01-0.66-1.01c-0.31,0-0.47,0.25-0.52,0.56l-0.31,1.79c-0.33,2.06-1.26,3.26-3.05,3.26c-1.94,0-3.05-1.65-3.05-4.27
			c0-2.54,1.01-4.43,3.24-4.62l0.04,2.91c-0.76,0.12-1.2,0.74-1.2,1.75c0,0.74,0.27,1.13,0.64,1.13c0.35,0,0.6-0.21,0.7-0.85
			l0.21-1.36c0.35-2.23,1.07-3.4,2.95-3.4c1.81,0,3.11,1.59,3.11,4.16C771.37,1046.74,770.2,1048.31,768.28,1048.5z M764.4,1081.16
			c0.35,0,0.6-0.21,0.7-0.85l0.21-1.36c0.35-2.23,1.07-3.4,2.95-3.4c1.81,0,3.11,1.59,3.11,4.16c0,2.66-1.17,4.23-3.09,4.41
			l-0.08-2.74c0.66-0.12,1.07-0.7,1.07-1.73c0-0.64-0.25-1.01-0.66-1.01c-0.31,0-0.47,0.25-0.52,0.56l-0.31,1.79
			c-0.33,2.06-1.26,3.26-3.05,3.26c-1.94,0-3.05-1.65-3.05-4.27c0-2.54,1.01-4.43,3.24-4.62l0.04,2.91c-0.76,0.12-1.2,0.74-1.2,1.75
			C763.76,1080.77,764.03,1081.16,764.4,1081.16z M766.13,1175.52h-4.21v-3.34h9.19v3.34h-1.63c1.03,0.33,1.88,1.3,1.88,2.51
			c0,0.56-0.17,1.05-0.35,1.28l-3.15-0.21c0.27-0.45,0.39-0.95,0.39-1.59C768.26,1176.28,767.68,1175.52,766.13,1175.52z
			 M766.53,1170.86c-2.87,0-4.84-2.04-4.84-5.03c0-3.01,1.98-5.03,4.84-5.03c2.84,0,4.84,2.02,4.84,5.03
			C771.37,1168.82,769.37,1170.86,766.53,1170.86z M761.93,1157.92v-3.55h3.55v3.55H761.93z M768.28,1151.4l-0.08-2.74
			c0.66-0.12,1.07-0.7,1.07-1.73c0-0.64-0.25-1.01-0.66-1.01c-0.31,0-0.47,0.25-0.52,0.56l-0.31,1.79
			c-0.33,2.06-1.26,3.26-3.05,3.26c-1.94,0-3.05-1.65-3.05-4.27c0-2.54,1.01-4.43,3.24-4.62l0.04,2.91c-0.76,0.12-1.2,0.74-1.2,1.75
			c0,0.74,0.27,1.13,0.64,1.13c0.35,0,0.6-0.21,0.7-0.85l0.21-1.36c0.35-2.23,1.07-3.4,2.95-3.4c1.81,0,3.11,1.59,3.11,4.16
			C771.37,1149.65,770.2,1151.22,768.28,1151.4z M766.61,1138.15h4.51v3.34h-9.19v-3.34h1.38c-1.03-0.49-1.63-1.5-1.63-2.89
			c0-2.52,1.73-3.28,3.65-3.28h5.79v3.34h-4.91c-1.24,0-1.92,0.35-1.92,1.36C764.3,1137.74,765.21,1138.15,766.61,1138.15z
			 M771.02,1131.06l-3.15-0.21c0.27-0.45,0.39-0.95,0.39-1.59c0-1.24-0.58-2-2.12-2h-4.21v-3.34h9.19v3.34h-1.63
			c1.03,0.33,1.88,1.3,1.88,2.51C771.37,1130.34,771.21,1130.83,771.02,1131.06z M771.12,1122.12h-9.19v-3.34h9.19V1122.12z
			 M771.12,1038.58h-9.19v-3.34h9.19V1038.58z M771.12,1015.48v2.39h-2.31v-2.39h-3.36c-0.78,0-1.09,0.37-1.09,1.05
			c0,0.41,0.08,0.87,0.31,1.42h-2.16c-0.52-0.7-0.82-1.5-0.82-2.76c0-1.55,0.64-3.01,2.8-3.01h4.33v-1.24h2.06l0.1,0.68
			c0.14,0.93,0.64,1.22,1.48,1.44l1.2,0.31v2.1H771.12z M761.93,1010.04v-3.34h9.19v3.34H761.93z M771.12,994.93v3.34h-1.59
			c1.09,0.45,1.83,1.48,1.83,3.03c0,2.7-2.14,4.08-4.84,4.08c-2.72,0-4.84-1.38-4.84-4.08c0-1.55,0.74-2.58,1.81-3.03h-4.86v-3.34
			H771.12z M774.92,1122.14h-2.93v-3.38h2.93V1122.14z M774.92,1107.87l-8.64,3.22v0.08l8.64,3.22v3.48l-12.99-4.99v-3.69
			l12.99-4.99V1107.87z M774.92,1097.18l-12.99,5.17v-3.73l2.51-0.97v-5.07l-2.51-0.97v-3.53l12.99,5.17V1097.18z M774.92,1074.13
			h-12.99v-3.5h12.99V1074.13z M774.92,1038.6h-2.93v-3.38h2.93V1038.6z M774.92,1033.43h-12.99v-3.34h12.99V1033.43z
			 M774.92,1010.06h-2.93v-3.38h2.93V1010.06z M769.39,982.79l-0.12-3.36c1.44-0.21,2.78-0.99,2.78-3.01c0-1.92-1.42-3.03-3.63-3.03
			s-3.63,1.11-3.63,3.03c0,2.02,1.34,2.8,2.78,3.01l-0.14,3.36c-3.24-0.25-5.75-2.37-5.75-6.35c0-3.79,2.74-6.66,6.74-6.66
			s6.74,2.87,6.74,6.66C775.16,980.42,772.63,982.54,769.39,982.79z M761.93,951.98v-3.28l9.06-2.86l-9.06-2.86v-3.28l5.19-1.34
			v-0.08l-5.19-1.34v-3.28l9.06-2.86l-9.06-2.86v-3.28l5.19-1.34v-0.08l-5.19-1.34v-3.28l9.19-2.91v3.32l-5.22,1.65v0.08l5.22,1.34
			v2.66l-5.22,1.34v0.08l5.22,1.65v2.92v0.09v3.23l-5.22,1.65v0.08l5.22,1.34v2.66l-5.22,1.34v0.08l5.22,1.65v2.92v0.09v3.23
			l-5.22,1.65v0.08l5.22,1.34v2.66l-5.22,1.34v0.08l5.22,1.65v3.01l-9.19-2.91v-3.28l5.19-1.34v-0.08L761.93,951.98z M765.47,963.35
			v3.55h-3.55v-3.55H765.47z M655.71,98.17h27v11.17c4-8.17,12-13.16,23.16-13.16c13.17,0,20,6,23.16,14.66
			c4-8.33,12.83-14.66,25.33-14.66c20.5,0,26.5,14.16,26.5,29.66v46.66h-27V133c0-10.17-1.83-15.5-10-15.5c-9,0-12,7.33-12,18.5
			v36.49h-27V133c0-10.17-2-15.5-10.17-15.5c-8.83,0-12,7.33-12,18.5v36.49h-27V98.17z M613.55,146.83l-11-1.67
			c-18-2.83-27.5-8.67-27.5-23.83c0-14.66,12.83-25.16,33.66-25.16c21.5,0,34.16,9.5,35.66,25l-22.16,0.67
			c-1-5.33-5.67-8.67-14-8.67c-5.17,0-8.17,2-8.17,5.33c0,2.5,2,3.83,4.5,4.17l14.5,2.5c16.66,2.67,26.33,10.17,26.33,24.66
			c0,15.66-13.33,24.66-34.5,24.66c-20.5,0-35.83-8.17-37.33-26.16l23.5-0.33c1,6.17,6,9.67,14.16,9.67c6,0,9.17-2.17,9.17-5.17
			C620.38,149.67,618.71,147.67,613.55,146.83z M537.06,67.51h27.33v23.66h-27.33V67.51z M551.57,472.29v-52.5h25.36v56.68
			c0,27.44-18.64,39.08-42.81,39.08s-42.66-11.63-42.66-39.08v-56.68h25.21v52.5c0,14.32,4.47,21.93,17.45,21.93
			C547.24,494.21,551.57,486.61,551.57,472.29z M523.04,21.53c0-0.89,0.58-1.57,1.57-1.94c-0.82-0.54-1.32-1.32-1.32-2.33
			c0-1.96,1.86-3.15,4.43-3.15c1.11,0,2.16,0.27,2.95,0.74c0.56-0.76,1.57-1.42,2.58-1.42v2.51c-0.39,0-0.89,0.04-1.34,0.14
			c0.19,0.35,0.29,0.74,0.29,1.17c0,1.94-1.88,3.13-4.47,3.13c-0.74,0-1.4-0.08-2-0.27c-0.12,0.1-0.19,0.25-0.19,0.43
			c0,0.31,0.23,0.56,0.78,0.56h3.81c2.08,0,3.13,1.09,3.13,2.64c0,2.29-2.78,3.34-5.77,3.34c-2.62,0-4.89-0.52-4.89-2.25
			c0-0.8,0.72-1.44,1.75-1.53C523.53,23.06,523.04,22.32,523.04,21.53z M515.45,14.36h3.34v1.63c0.33-1.03,1.3-1.88,2.52-1.88
			c0.56,0,1.05,0.16,1.28,0.35l-0.21,3.15c-0.45-0.27-0.95-0.39-1.59-0.39c-1.24,0-2,0.58-2,2.12v4.21h-3.34V14.36z M509.1,14.11
			c2.99,0,5.03,2,5.03,4.84c0,2.87-2.04,4.84-5.03,4.84c-3.01,0-5.03-1.98-5.03-4.84C504.07,16.11,506.09,14.11,509.1,14.11z
			 M497.64,20.01h3.55v3.55h-3.55V20.01z M495.56,67.51h27V172.5h-27V67.51z M490.86,20.38l-1.36-0.21c-2.23-0.35-3.4-1.07-3.4-2.95
			c0-1.81,1.59-3.11,4.16-3.11c2.66,0,4.23,1.18,4.41,3.09l-2.74,0.08c-0.12-0.66-0.7-1.07-1.73-1.07c-0.64,0-1.01,0.25-1.01,0.66
			c0,0.31,0.25,0.47,0.56,0.52l1.79,0.31c2.06,0.33,3.26,1.26,3.26,3.05c0,1.94-1.65,3.05-4.27,3.05c-2.54,0-4.43-1.01-4.62-3.24
			l2.91-0.04c0.12,0.76,0.74,1.2,1.75,1.2c0.74,0,1.13-0.27,1.13-0.64C491.71,20.73,491.5,20.48,490.86,20.38z M475.26,14.36h3.34
			v4.91c0,1.24,0.35,1.92,1.36,1.92c1.05,0,1.46-0.91,1.46-2.31v-4.51h3.34v9.19h-3.34v-1.38c-0.49,1.03-1.5,1.63-2.89,1.63
			c-2.52,0-3.28-1.73-3.28-3.65V14.36z M467.2,14.36h3.34v1.63c0.33-1.03,1.3-1.88,2.52-1.88c0.56,0,1.05,0.16,1.28,0.35l-0.21,3.15
			c-0.45-0.27-0.95-0.39-1.59-0.39c-1.24,0-2,0.58-2,2.12v4.21h-3.34V14.36z M462.03,10.57h3.38v2.93h-3.38V10.57z M451.15,10.57
			l3.22,8.64h0.08l3.22-8.64h3.48l-4.99,12.99h-3.69l-4.99-12.99H451.15z M436.54,10.57h3.92l5.17,12.99h-3.73l-0.97-2.52h-5.07
			l-0.97,2.52h-3.52L436.54,10.57z M423.59,20.38l-1.36-0.21c-2.23-0.35-3.4-1.07-3.4-2.95c0-1.81,1.59-3.11,4.16-3.11
			c2.66,0,4.23,1.18,4.41,3.09l-2.74,0.08c-0.12-0.66-0.7-1.07-1.73-1.07c-0.64,0-1.01,0.25-1.01,0.66c0,0.31,0.25,0.47,0.56,0.52
			l1.79,0.31c2.06,0.33,3.26,1.26,3.26,3.05c0,1.94-1.65,3.05-4.27,3.05c-2.54,0-4.43-1.01-4.62-3.24l2.91-0.04
			c0.12,0.76,0.74,1.2,1.75,1.2c0.74,0,1.13-0.27,1.13-0.64C424.44,20.73,424.23,20.48,423.59,20.38z M413.91,10.57h3.5v12.99h-3.5
			V10.57z M393.17,14.36h3.34v1.38c0.49-1.01,1.48-1.63,2.87-1.63c1.63,0,2.47,0.74,2.87,1.81c0.49-1.03,1.59-1.81,3.13-1.81
			c2.54,0,3.28,1.75,3.28,3.67v5.77h-3.34v-4.89c0-1.26-0.23-1.92-1.24-1.92c-1.11,0-1.48,0.91-1.48,2.29v4.51h-3.34v-4.89
			c0-1.26-0.25-1.92-1.26-1.92c-1.09,0-1.48,0.91-1.48,2.29v4.51h-3.34V14.36z M387.96,20.38l-1.36-0.21
			c-2.23-0.35-3.4-1.07-3.4-2.95c0-1.81,1.59-3.11,4.16-3.11c2.66,0,4.23,1.18,4.41,3.09l-2.74,0.08c-0.12-0.66-0.7-1.07-1.73-1.07
			c-0.64,0-1.01,0.25-1.01,0.66c0,0.31,0.25,0.47,0.56,0.52l1.79,0.31c2.06,0.33,3.26,1.26,3.26,3.05c0,1.94-1.65,3.05-4.27,3.05
			c-2.54,0-4.43-1.01-4.62-3.24l2.91-0.04c0.12,0.76,0.74,1.2,1.75,1.2c0.74,0,1.13-0.27,1.13-0.64
			C388.8,20.73,388.6,20.48,387.96,20.38z M378.5,10.57h3.38v2.93h-3.38V10.57z M381.86,14.36v9.19h-3.34v-9.19H381.86z
			 M373.37,10.57h3.34v12.99h-3.34V10.57z M366.67,16.59c-0.74,0-1.11,0.47-1.26,1.15l-3.09-0.21c0.29-2.02,1.79-3.42,4.56-3.42
			c2.43,0,4.23,1.05,4.23,3.61v3.13c0,0.47,0.21,0.68,0.56,0.68c0.27,0,0.47-0.04,0.74-0.14v1.77c-0.47,0.33-1.13,0.6-2.08,0.6
			c-1.13,0-2.02-0.58-2.33-1.63c-0.54,1.07-1.59,1.63-3.05,1.63c-1.79,0-2.97-0.93-2.97-2.49c0-1.77,1.28-2.54,3.28-2.89l2.58-0.43
			V17.8C367.82,17.04,367.47,16.59,366.67,16.59z M354.22,14.61l0.68-0.1c0.93-0.14,1.22-0.64,1.44-1.48l0.31-1.2h2.1v2.54h2.39
			v2.31h-2.39v3.36c0,0.78,0.37,1.09,1.05,1.09c0.41,0,0.87-0.08,1.42-0.31v2.16c-0.7,0.52-1.5,0.82-2.76,0.82
			c-1.55,0-3.01-0.64-3.01-2.8v-4.33h-1.24V14.61z M357.92,87.34l2.5-9.67h17v20.5h19.33v18.66h-19.33V144c0,6.33,3,8.83,8.5,8.83
			c3.33,0,7-0.67,11.5-2.5v17.5c-5.67,4.17-12.17,6.67-22.33,6.67c-12.5,0-24.33-5.17-24.33-22.66v-34.99h-10v-16.66l5.5-0.83
			C353.76,98.17,356.09,94.17,357.92,87.34z M349.97,23.55v-9.19h3.34v9.19H349.97z M349.95,10.57h3.38v2.93h-3.38V10.57z
			 M338.2,14.36h3.34v1.59c0.45-1.09,1.48-1.83,3.03-1.83c2.7,0,4.08,2.14,4.08,4.84c0,2.72-1.38,4.84-4.08,4.84
			c-1.55,0-2.58-0.74-3.03-1.81v4.87h-3.34V14.36z M331.51,16.59c-0.74,0-1.11,0.47-1.26,1.15l-3.09-0.21
			c0.29-2.02,1.79-3.42,4.56-3.42c2.43,0,4.23,1.05,4.23,3.61v3.13c0,0.47,0.21,0.68,0.56,0.68c0.27,0,0.47-0.04,0.74-0.14v1.77
			c-0.47,0.33-1.13,0.6-2.08,0.6c-1.13,0-2.02-0.58-2.33-1.63c-0.54,1.07-1.59,1.63-3.05,1.63c-1.79,0-2.97-0.93-2.97-2.49
			c0-1.77,1.28-2.54,3.28-2.89l2.58-0.43V17.8C332.66,17.04,332.31,16.59,331.51,16.59z M319.72,10.32c3.98,0,6.1,2.54,6.35,5.77
			l-3.36,0.12c-0.21-1.44-0.99-2.78-3.01-2.78c-1.92,0-3.03,1.42-3.03,3.63s1.11,3.63,3.03,3.63c2.02,0,2.8-1.34,3.01-2.78
			l3.36,0.14c-0.25,3.24-2.37,5.75-6.35,5.75c-3.79,0-6.66-2.74-6.66-6.74S315.92,10.32,319.72,10.32z M306.63,20.01h3.55v3.55
			h-3.55V20.01z M306.26,67.51h27.33v23.66h-27.33V67.51z M262.3,14.36l1.65,5.22h0.08l1.34-5.22h2.66l1.34,5.22h0.08l1.65-5.22
			h2.92h0.09h3.23l1.65,5.22h0.08l1.34-5.22h2.66l1.34,5.22h0.08l1.65-5.22h2.92h0.09h3.23l1.65,5.22h0.08l1.34-5.22h2.66l1.34,5.22
			h0.08l1.65-5.22h3.01l-2.91,9.19h-3.28l-1.34-5.19h-0.08l-1.34,5.19h-3.28l-2.86-9.06l-2.86,9.06h-3.28l-1.34-5.19h-0.08
			l-1.34,5.19h-3.28l-2.86-9.06l-2.86,9.06h-3.28l-1.34-5.19h-0.08l-1.34,5.19h-3.28l-2.91-9.19H262.3z M211.28,98.17h27V111
			c3.67-8.83,12-14.83,24.5-14.83c21.83,0,33,17.33,33,39.16c0,22-11.17,39.16-33,39.16c-12.5,0-20.83-6-24.5-14.67v39.33h-27V98.17
			z M157.12,116.17c-6,0-9,3.83-10.17,9.33l-25-1.67c2.33-16.33,14.5-27.66,36.83-27.66c19.66,0,34.16,8.5,34.16,29.16v25.33
			c0,3.83,1.67,5.5,4.5,5.5c2.17,0,3.83-0.33,6-1.17v14.33c-3.83,2.67-9.17,4.83-16.83,4.83c-9.17,0-16.33-4.67-18.83-13.16
			c-4.33,8.67-12.83,13.16-24.66,13.16c-14.5,0-24-7.5-24-20.16c0-14.33,10.33-20.5,26.5-23.33l20.83-3.5V126
			C166.45,119.84,163.62,116.17,157.12,116.17z M189.8,292.19l-39.61,1.46c-2.43-17.01-11.67-32.81-35.48-32.81
			c-22.6,0-35.73,16.77-35.73,42.77s13.12,42.77,35.73,42.77c23.82,0,33.05-15.8,35.48-32.81l39.61,1.7
			c-2.92,38.16-27.95,67.8-74.85,67.8c-44.72,0-78.5-32.32-78.5-79.47c0-47.15,33.78-79.47,78.5-79.47
			C161.85,224.15,186.89,254.04,189.8,292.19z M61.8,65.51c32.16,0,49.33,20.5,51.33,46.66l-27.16,1c-1.67-11.67-8-22.5-24.33-22.5
			c-15.5,0-24.5,11.5-24.5,29.33c0,17.83,9,29.33,24.5,29.33c16.33,0,22.66-10.83,24.33-22.5l27.16,1.17
			c-2,26.16-19.16,46.49-51.33,46.49c-30.66,0-53.82-22.16-53.82-54.49C7.98,87.67,31.14,65.51,61.8,65.51z"/>
		<path class="st5" d="M527.51,25.37c1.55,0,2.68-0.31,2.68-0.87c0-0.39-0.29-0.54-0.85-0.54h-3.38c-0.37,0-0.62,0.21-0.62,0.56
			C525.35,25.18,526.27,25.37,527.51,25.37z"/>
		<path class="st5" d="M366.21,594.27c0,0.47,0.37,0.78,0.93,0.78c0.95,0,1.71-0.7,1.71-1.9v-0.14l-1.36,0.25
			C366.69,593.43,366.21,593.67,366.21,594.27z"/>
		<path class="st5" d="M527.76,18.61c0.56,0,0.97-0.52,0.97-1.34c0-0.8-0.41-1.32-0.97-1.32c-0.56,0-0.97,0.52-0.97,1.32
			C526.79,18.09,527.2,18.61,527.76,18.61z"/>
		<polygon class="st5" points="436.14,588.03 436.05,588.03 434.57,591.86 437.62,591.86 		"/>
		<path class="st5" d="M420.46,462.74c-7.76,0-11.19,4.77-12.08,11.04h23.42C431.5,467.81,427.62,462.74,420.46,462.74z"/>
		<path class="st5" d="M509.1,21.29c1.15,0,1.67-0.95,1.67-2.33c0-1.38-0.52-2.33-1.67-2.33c-1.17,0-1.67,0.95-1.67,2.33
			C507.44,20.34,507.93,21.29,509.1,21.29z"/>
		<polygon class="st5" points="438.43,14.59 438.35,14.59 436.87,18.42 439.92,18.42 		"/>
		<path class="st5" d="M331.05,594.27c0,0.47,0.37,0.78,0.93,0.78c0.95,0,1.71-0.7,1.71-1.9v-0.14l-1.36,0.25
			C331.53,593.43,331.05,593.67,331.05,594.27z"/>
		<path class="st5" d="M342.57,592.46c0,1.34,0.72,2.21,1.86,2.21c1.3,0,1.9-0.93,1.9-2.27c0-1.32-0.6-2.25-1.9-2.25
			c-1.13,0-1.86,0.87-1.86,2.19V592.46z"/>
		<path d="M36.45,303.62c0,47.15,33.78,79.47,78.5,79.47c46.9,0,71.94-29.65,74.85-67.8l-39.61-1.7
			c-2.43,17.01-11.67,32.81-35.48,32.81c-22.6,0-35.73-16.77-35.73-42.77s13.12-42.77,35.73-42.77c23.82,0,33.05,15.8,35.48,32.81
			l39.61-1.46c-2.92-38.16-27.95-68.05-74.85-68.05C70.23,224.15,36.45,256.47,36.45,303.62z"/>
		<path d="M253.96,227.06l-61,153.11h41.56l11.42-29.65h59.78l11.42,29.65h43.99l-61-153.11H253.96z M257.85,319.66l17.5-45.2h0.97
			l17.5,45.2H257.85z"/>
		<polygon points="378.87,380.17 416.78,380.17 416.78,289.52 482.88,380.17 515.94,380.17 515.94,227.06 478.02,227.06 
			478.02,311.88 418.24,227.06 378.87,227.06 		"/>
		<path d="M582.03,261.09v-34.02h-41.07v36.45h18.47c-0.24,9.72-6.8,12.88-18.47,13.37v18.71
			C568.18,294.87,582.03,284.9,582.03,261.09z"/>
		<polygon points="601.47,261.09 653.97,261.09 653.97,380.17 695.04,380.17 695.04,261.09 748.26,261.09 748.26,227.06 
			601.47,227.06 		"/>
		<path d="M61.8,174.5c32.16,0,49.33-20.33,51.33-46.49l-27.16-1.17c-1.67,11.66-8,22.5-24.33,22.5c-15.5,0-24.5-11.5-24.5-29.33
			c0-17.83,9-29.33,24.5-29.33c16.33,0,22.66,10.83,24.33,22.5l27.16-1c-2-26.16-19.16-46.66-51.33-46.66
			C31.14,65.51,7.98,87.67,7.98,120C7.98,152.33,31.14,174.5,61.8,174.5z"/>
		<path d="M145.62,130.67c-16.16,2.83-26.5,9-26.5,23.33c0,12.66,9.5,20.16,24,20.16c11.83,0,20.33-4.5,24.66-13.16
			c2.5,8.5,9.67,13.16,18.83,13.16c7.67,0,13-2.17,16.83-4.83V155c-2.17,0.83-3.83,1.17-6,1.17c-2.83,0-4.5-1.67-4.5-5.5v-25.33
			c0-20.66-14.5-29.16-34.16-29.16c-22.33,0-34.49,11.33-36.83,27.66l25,1.67c1.17-5.5,4.17-9.33,10.17-9.33
			c6.5,0,9.33,3.67,9.33,9.83v1.17L145.62,130.67z M166.45,141.5c0,9.67-6.17,15.33-13.83,15.33c-4.5,0-7.5-2.5-7.5-6.33
			c0-4.83,3.83-6.83,10.33-8.17l11-2V141.5z"/>
		<path d="M238.27,159.83c3.67,8.67,12,14.67,24.5,14.67c21.83,0,33-17.16,33-39.16c0-21.83-11.17-39.16-33-39.16
			c-12.5,0-20.83,6-24.5,14.83V98.17h-27v100.98h27V159.83z M238.27,134.83c0-10.67,5.83-17.66,15-17.66
			c10.5,0,15.33,7.5,15.33,18.16c0,10.83-4.83,18.33-15.33,18.33c-9.17,0-15-7-15-17.83V134.83z"/>
		<rect x="306.26" y="67.51" width="27.33" height="23.66"/>
		<rect x="306.43" y="98.17" width="27" height="74.32"/>
		<path d="M340.76,100.17v16.66h10v34.99c0,17.5,11.83,22.66,24.33,22.66c10.17,0,16.66-2.5,22.33-6.67v-17.5
			c-4.5,1.83-8.17,2.5-11.5,2.5c-5.5,0-8.5-2.5-8.5-8.83v-27.16h19.33V98.17h-19.33v-20.5h-17l-2.5,9.67
			c-1.83,6.83-4.17,10.83-11.67,12L340.76,100.17z"/>
		<path d="M429.91,130.67c-16.16,2.83-26.5,9-26.5,23.33c0,12.66,9.5,20.16,24,20.16c11.83,0,20.33-4.5,24.66-13.16
			c2.5,8.5,9.67,13.16,18.83,13.16c7.67,0,13-2.17,16.83-4.83V155c-2.17,0.83-3.83,1.17-6,1.17c-2.83,0-4.5-1.67-4.5-5.5v-25.33
			c0-20.66-14.5-29.16-34.16-29.16c-22.33,0-34.49,11.33-36.83,27.66l25,1.67c1.17-5.5,4.17-9.33,10.17-9.33
			c6.5,0,9.33,3.67,9.33,9.83v1.17L429.91,130.67z M450.74,141.5c0,9.67-6.17,15.33-13.83,15.33c-4.5,0-7.5-2.5-7.5-6.33
			c0-4.83,3.83-6.83,10.33-8.17l11-2V141.5z"/>
		<rect x="495.56" y="67.51" width="27" height="104.98"/>
		<rect x="537.06" y="67.51" width="27.33" height="23.66"/>
		<rect x="537.23" y="98.17" width="27" height="74.32"/>
		<path d="M611.21,157.66c-8.17,0-13.16-3.5-14.16-9.67l-23.5,0.33c1.5,18,16.83,26.16,37.33,26.16c21.16,0,34.5-9,34.5-24.66
			c0-14.5-9.67-22-26.33-24.66l-14.5-2.5c-2.5-0.33-4.5-1.67-4.5-4.17c0-3.33,3-5.33,8.17-5.33c8.33,0,13,3.33,14,8.67l22.16-0.67
			c-1.5-15.5-14.17-25-35.66-25c-20.83,0-33.66,10.5-33.66,25.16c0,15.16,9.5,21,27.5,23.83l11,1.67c5.17,0.83,6.83,2.83,6.83,5.67
			C620.38,155.5,617.21,157.66,611.21,157.66z"/>
		<path d="M682.7,136c0-11.17,3.17-18.5,12-18.5c8.17,0,10.17,5.33,10.17,15.5v39.49h27V136c0-11.17,3-18.5,12-18.5
			c8.17,0,10,5.33,10,15.5v39.49h27v-46.66c0-15.5-6-29.66-26.5-29.66c-12.5,0-21.33,6.33-25.33,14.66
			c-3.17-8.67-10-14.66-23.16-14.66c-11.17,0-19.16,5-23.16,13.16V98.17h-27v74.32h27V136z"/>
		<path d="M186.6,495.56c-10.44,0-19.54-4.03-20.43-15.81l-23.27,0.75c0,22.67,18.2,35.05,43.7,35.05
			c21.93,0,39.23-9.99,39.23-29.98c0-15.36-8.95-25.65-28.64-29.08l-17.75-3.13c-5.82-1.04-9.4-2.69-9.4-7.01
			c0-5.22,4.77-8.5,13.13-8.5c9.69,0,16.71,4.47,17.45,14.17l23.27-0.45c-0.45-20.88-14.47-33.56-40.42-33.56
			c-23.42,0-38.33,11.48-38.33,30.58c0,16.41,10.74,25.06,26.1,27.89l17.15,2.98c7.16,1.34,12.68,2.24,12.68,7.76
			C201.06,492.42,195.4,495.56,186.6,495.56z"/>
		<path d="M256.69,476.31c-14.47,2.54-23.72,8.05-23.72,20.88c0,11.34,8.5,18.05,21.48,18.05c10.59,0,18.2-4.03,22.07-11.78
			c2.24,7.61,8.65,11.78,16.85,11.78c6.86,0,11.63-1.94,15.06-4.33v-12.83c-1.94,0.75-3.43,1.04-5.37,1.04
			c-2.54,0-4.03-1.49-4.03-4.92v-22.67c0-18.5-12.98-26.1-30.58-26.1c-19.99,0-30.88,10.14-32.96,24.76l22.37,1.49
			c1.04-4.92,3.73-8.35,9.1-8.35c5.82,0,8.35,3.28,8.35,8.8v1.04L256.69,476.31z M275.34,486.01c0,8.65-5.52,13.72-12.38,13.72
			c-4.03,0-6.71-2.24-6.71-5.67c0-4.33,3.43-6.12,9.25-7.31l9.84-1.79V486.01z"/>
		<polygon points="345.44,488.54 344.84,488.54 330.38,447.23 305.02,447.23 329.78,513.75 358.57,513.75 383.33,447.23 
			359.91,447.23 		"/>
		<path d="M454.32,491.83l-19.39-1.79c-2.24,5.22-6.41,7.46-12.98,7.46c-7.31,0-13.27-3.88-13.87-12.08h46.69v-6.71
			c0-18.05-11.78-33.26-34.01-33.26c-20.73,0-36.24,15.06-36.24,36.1c0,21.18,15.21,34.01,36.54,34.01
			C438.66,515.54,450.89,507.04,454.32,491.83z M420.46,462.74c7.16,0,11.04,5.07,11.34,11.04h-23.42
			C409.28,467.51,412.71,462.74,420.46,462.74z"/>
		<path d="M516.66,472.29v-52.5h-25.21v56.68c0,27.44,18.5,39.08,42.66,39.08s42.81-11.63,42.81-39.08v-56.68h-25.36v52.5
			c0,14.32-4.33,21.93-17.45,21.93C521.14,494.21,516.66,486.61,516.66,472.29z"/>
		<path d="M625.84,471.39l-12.98-2.24c-2.24-0.3-4.03-1.49-4.03-3.73c0-2.98,2.68-4.77,7.31-4.77c7.46,0,11.63,2.98,12.53,7.76
			l19.84-0.6c-1.34-13.87-12.68-22.37-31.92-22.37c-18.64,0-30.13,9.4-30.13,22.52c0,13.57,8.5,18.79,24.61,21.33l9.84,1.49
			c4.62,0.75,6.12,2.54,6.12,5.07c0,2.68-2.83,4.62-8.2,4.62c-7.31,0-11.78-3.13-12.68-8.65l-21.03,0.3
			c1.34,16.11,15.06,23.42,33.41,23.42c18.94,0,30.88-8.05,30.88-22.08C649.41,480.49,640.76,473.78,625.84,471.39z"/>
		<polygon points="265.16,23.55 266.5,18.36 266.58,18.36 267.92,23.55 271.2,23.55 274.07,14.5 276.93,23.55 280.21,23.55 
			281.55,18.36 281.63,18.36 282.97,23.55 286.25,23.55 289.11,14.5 291.98,23.55 295.25,23.55 296.59,18.36 296.68,18.36 
			298.02,23.55 301.29,23.55 304.2,14.36 301.19,14.36 299.54,19.58 299.46,19.58 298.12,14.36 295.46,14.36 294.12,19.58 
			294.04,19.58 292.39,14.36 289.15,14.36 289.07,14.36 286.15,14.36 284.5,19.58 284.41,19.58 283.07,14.36 280.41,14.36 
			279.07,19.58 278.99,19.58 277.34,14.36 274.11,14.36 274.02,14.36 271.1,14.36 269.45,19.58 269.37,19.58 268.03,14.36 
			265.37,14.36 264.03,19.58 263.95,19.58 262.3,14.36 258.98,14.36 261.88,23.55 		"/>
		<rect x="306.63" y="20.01" width="3.55" height="3.55"/>
		<path d="M319.72,23.8c3.98,0,6.1-2.52,6.35-5.75l-3.36-0.14c-0.21,1.44-0.99,2.78-3.01,2.78c-1.92,0-3.03-1.42-3.03-3.63
			s1.11-3.63,3.03-3.63c2.02,0,2.8,1.34,3.01,2.78l3.36-0.12c-0.25-3.24-2.37-5.77-6.35-5.77c-3.79,0-6.66,2.74-6.66,6.74
			S315.92,23.8,319.72,23.8z"/>
		<path d="M330.08,18.38c-2,0.35-3.28,1.11-3.28,2.89c0,1.57,1.17,2.49,2.97,2.49c1.46,0,2.52-0.56,3.05-1.63
			c0.31,1.05,1.2,1.63,2.33,1.63c0.95,0,1.61-0.27,2.08-0.6v-1.77c-0.27,0.1-0.47,0.14-0.74,0.14c-0.35,0-0.56-0.21-0.56-0.68v-3.13
			c0-2.56-1.79-3.61-4.23-3.61c-2.76,0-4.27,1.4-4.56,3.42l3.09,0.21c0.14-0.68,0.52-1.15,1.26-1.15c0.8,0,1.15,0.45,1.15,1.22v0.14
			L330.08,18.38z M332.66,19.72c0,1.2-0.76,1.9-1.71,1.9c-0.56,0-0.93-0.31-0.93-0.78c0-0.6,0.47-0.85,1.28-1.01l1.36-0.25V19.72z"
			/>
		<path d="M341.54,21.99c0.45,1.07,1.48,1.81,3.03,1.81c2.7,0,4.08-2.12,4.08-4.84c0-2.7-1.38-4.84-4.08-4.84
			c-1.55,0-2.58,0.74-3.03,1.83v-1.59h-3.34v12.49h3.34V21.99z M341.54,18.9c0-1.32,0.72-2.19,1.86-2.19c1.3,0,1.9,0.93,1.9,2.25
			c0,1.34-0.6,2.27-1.9,2.27c-1.13,0-1.86-0.87-1.86-2.21V18.9z"/>
		<rect x="349.97" y="14.36" width="3.34" height="9.19"/>
		<rect x="349.95" y="10.57" width="3.38" height="2.93"/>
		<path d="M355.46,21c0,2.16,1.46,2.8,3.01,2.8c1.26,0,2.06-0.31,2.76-0.82v-2.16c-0.56,0.23-1.01,0.31-1.42,0.31
			c-0.68,0-1.05-0.31-1.05-1.09v-3.36h2.39v-2.31h-2.39v-2.54h-2.1l-0.31,1.2c-0.23,0.85-0.52,1.34-1.44,1.48l-0.68,0.1v2.06h1.24
			V21z"/>
		<path d="M365.25,18.38c-2,0.35-3.28,1.11-3.28,2.89c0,1.57,1.17,2.49,2.97,2.49c1.46,0,2.52-0.56,3.05-1.63
			c0.31,1.05,1.2,1.63,2.33,1.63c0.95,0,1.61-0.27,2.08-0.6v-1.77c-0.27,0.1-0.47,0.14-0.74,0.14c-0.35,0-0.56-0.21-0.56-0.68v-3.13
			c0-2.56-1.79-3.61-4.23-3.61c-2.76,0-4.27,1.4-4.56,3.42l3.09,0.21c0.14-0.68,0.52-1.15,1.26-1.15c0.8,0,1.15,0.45,1.15,1.22v0.14
			L365.25,18.38z M367.82,19.72c0,1.2-0.76,1.9-1.71,1.9c-0.56,0-0.93-0.31-0.93-0.78c0-0.6,0.47-0.85,1.28-1.01l1.36-0.25V19.72z"
			/>
		<rect x="373.37" y="10.57" width="3.34" height="12.99"/>
		<rect x="378.5" y="10.57" width="3.38" height="2.93"/>
		<rect x="378.52" y="14.36" width="3.34" height="9.19"/>
		<path d="M387.67,21.72c-1.01,0-1.63-0.43-1.75-1.2l-2.91,0.04c0.19,2.23,2.08,3.24,4.62,3.24c2.62,0,4.27-1.11,4.27-3.05
			c0-1.79-1.2-2.72-3.26-3.05l-1.79-0.31c-0.31-0.04-0.56-0.21-0.56-0.52c0-0.41,0.37-0.66,1.01-0.66c1.03,0,1.61,0.41,1.73,1.07
			l2.74-0.08c-0.19-1.92-1.75-3.09-4.41-3.09c-2.58,0-4.16,1.3-4.16,3.11c0,1.88,1.17,2.6,3.4,2.95l1.36,0.21
			c0.64,0.1,0.85,0.35,0.85,0.7C388.8,21.45,388.41,21.72,387.67,21.72z"/>
		<path d="M396.51,19.04c0-1.38,0.39-2.29,1.48-2.29c1.01,0,1.26,0.66,1.26,1.92v4.89h3.34v-4.51c0-1.38,0.37-2.29,1.48-2.29
			c1.01,0,1.24,0.66,1.24,1.92v4.89h3.34v-5.77c0-1.92-0.74-3.67-3.28-3.67c-1.55,0-2.64,0.78-3.13,1.81
			c-0.39-1.07-1.24-1.81-2.87-1.81c-1.38,0-2.37,0.62-2.87,1.63v-1.38h-3.34v9.19h3.34V19.04z"/>
		<rect x="413.91" y="10.57" width="3.5" height="12.99"/>
		<path d="M423.3,21.72c-1.01,0-1.63-0.43-1.75-1.2l-2.91,0.04c0.19,2.23,2.08,3.24,4.62,3.24c2.62,0,4.27-1.11,4.27-3.05
			c0-1.79-1.2-2.72-3.26-3.05l-1.79-0.31c-0.31-0.04-0.56-0.21-0.56-0.52c0-0.41,0.37-0.66,1.01-0.66c1.03,0,1.61,0.41,1.73,1.07
			l2.74-0.08c-0.19-1.92-1.75-3.09-4.41-3.09c-2.58,0-4.16,1.3-4.16,3.11c0,1.88,1.18,2.6,3.4,2.95l1.36,0.21
			c0.64,0.1,0.85,0.35,0.85,0.7C424.44,21.45,424.05,21.72,423.3,21.72z"/>
		<path d="M435.86,21.04h5.07l0.97,2.52h3.73l-5.17-12.99h-3.92l-5.17,12.99h3.52L435.86,21.04z M438.35,14.59h0.08l1.48,3.83h-3.05
			L438.35,14.59z"/>
		<polygon points="456.16,23.55 461.15,10.57 457.66,10.57 454.45,19.2 454.36,19.2 451.15,10.57 447.48,10.57 452.47,23.55 		"/>
		<rect x="462.03" y="10.57" width="3.38" height="2.93"/>
		<rect x="462.05" y="14.36" width="3.34" height="9.19"/>
		<path d="M470.54,19.35c0-1.55,0.76-2.12,2-2.12c0.64,0,1.13,0.12,1.59,0.39l0.21-3.15c-0.23-0.19-0.72-0.35-1.28-0.35
			c-1.22,0-2.19,0.85-2.52,1.88v-1.63h-3.34v9.19h3.34V19.35z"/>
		<path d="M478.54,23.8c1.38,0,2.39-0.6,2.89-1.63v1.38h3.34v-9.19h-3.34v4.51c0,1.4-0.41,2.31-1.46,2.31
			c-1.01,0-1.36-0.68-1.36-1.92v-4.91h-3.34v5.79C475.26,22.07,476.02,23.8,478.54,23.8z"/>
		<path d="M490.58,21.72c-1.01,0-1.63-0.43-1.75-1.2l-2.91,0.04c0.19,2.23,2.08,3.24,4.62,3.24c2.62,0,4.27-1.11,4.27-3.05
			c0-1.79-1.2-2.72-3.26-3.05l-1.79-0.31c-0.31-0.04-0.56-0.21-0.56-0.52c0-0.41,0.37-0.66,1.01-0.66c1.03,0,1.61,0.41,1.73,1.07
			l2.74-0.08c-0.19-1.92-1.75-3.09-4.41-3.09c-2.58,0-4.16,1.3-4.16,3.11c0,1.88,1.18,2.6,3.4,2.95l1.36,0.21
			c0.64,0.1,0.85,0.35,0.85,0.7C491.71,21.45,491.32,21.72,490.58,21.72z"/>
		<rect x="497.64" y="20.01" width="3.55" height="3.55"/>
		<path d="M509.1,23.8c2.99,0,5.03-1.98,5.03-4.84c0-2.84-2.04-4.84-5.03-4.84c-3.01,0-5.03,2-5.03,4.84
			C504.07,21.82,506.09,23.8,509.1,23.8z M509.1,16.63c1.15,0,1.67,0.95,1.67,2.33c0,1.38-0.52,2.33-1.67,2.33
			c-1.17,0-1.67-0.95-1.67-2.33C507.44,17.58,507.93,16.63,509.1,16.63z"/>
		<path d="M518.79,19.35c0-1.55,0.76-2.12,2-2.12c0.64,0,1.13,0.12,1.59,0.39l0.21-3.15c-0.23-0.19-0.72-0.35-1.28-0.35
			c-1.22,0-2.19,0.85-2.52,1.88v-1.63h-3.34v9.19h3.34V19.35z"/>
		<path d="M522.6,24.85c0,1.73,2.27,2.25,4.89,2.25c2.99,0,5.77-1.05,5.77-3.34c0-1.55-1.05-2.64-3.13-2.64h-3.81
			c-0.56,0-0.78-0.25-0.78-0.56c0-0.19,0.06-0.33,0.19-0.43c0.6,0.19,1.26,0.27,2,0.27c2.6,0,4.47-1.2,4.47-3.13
			c0-0.43-0.1-0.82-0.29-1.17c0.45-0.1,0.95-0.14,1.34-0.14v-2.51c-1.01,0-2.02,0.66-2.58,1.42c-0.78-0.47-1.83-0.74-2.95-0.74
			c-2.58,0-4.43,1.2-4.43,3.15c0,1.01,0.49,1.79,1.32,2.33c-0.99,0.37-1.57,1.05-1.57,1.94c0,0.78,0.49,1.53,1.32,1.79
			C523.33,23.41,522.6,24.05,522.6,24.85z M527.76,15.95c0.56,0,0.97,0.52,0.97,1.32c0,0.82-0.41,1.34-0.97,1.34
			c-0.56,0-0.97-0.52-0.97-1.34C526.79,16.46,527.2,15.95,527.76,15.95z M525.96,23.97h3.38c0.56,0,0.85,0.14,0.85,0.54
			c0,0.56-1.13,0.87-2.68,0.87c-1.24,0-2.16-0.19-2.16-0.84C525.35,24.17,525.59,23.97,525.96,23.97z"/>
		<path d="M311.03,589.49l0.43-2.06h-1.83l0.82-3.42h-2.49l-0.82,3.42h-1.77l0.83-3.42h-2.49l-0.82,3.42h-2.02l-0.43,2.06h1.98
			l-0.49,2.02h-1.88l-0.43,2.06h1.81l-0.8,3.42h2.49l0.8-3.42h1.77l-0.8,3.42h2.49l0.8-3.42h2.04l0.43-2.06h-1.98l0.49-2.02H311.03z
			 M306.17,591.51h-1.77l0.5-2.02h1.77L306.17,591.51z"/>
		<path d="M320.73,586.87c2.02,0,2.8,1.34,3.01,2.78l3.36-0.12c-0.25-3.24-2.37-5.77-6.35-5.77c-3.79,0-6.66,2.74-6.66,6.74
			c0,4,2.87,6.74,6.66,6.74c3.98,0,6.1-2.52,6.35-5.75l-3.36-0.14c-0.21,1.44-0.99,2.78-3.01,2.78c-1.92,0-3.03-1.42-3.03-3.63
			C317.7,588.29,318.81,586.87,320.73,586.87z"/>
		<path d="M331.11,591.82c-2,0.35-3.28,1.11-3.28,2.89c0,1.57,1.18,2.49,2.97,2.49c1.46,0,2.52-0.56,3.05-1.63
			c0.31,1.05,1.2,1.63,2.33,1.63c0.95,0,1.61-0.27,2.08-0.6v-1.77c-0.27,0.1-0.47,0.14-0.74,0.14c-0.35,0-0.56-0.21-0.56-0.68v-3.13
			c0-2.56-1.79-3.61-4.23-3.61c-2.76,0-4.27,1.4-4.56,3.42l3.09,0.21c0.14-0.68,0.52-1.15,1.26-1.15c0.8,0,1.15,0.45,1.15,1.22v0.14
			L331.11,591.82z M333.69,593.16c0,1.2-0.76,1.9-1.71,1.9c-0.56,0-0.93-0.31-0.93-0.78c0-0.6,0.47-0.85,1.28-1.01l1.36-0.25V593.16
			z"/>
		<path d="M339.23,587.8v12.49h3.34v-4.87c0.45,1.07,1.48,1.81,3.03,1.81c2.7,0,4.08-2.12,4.08-4.84c0-2.7-1.38-4.84-4.08-4.84
			c-1.55,0-2.58,0.74-3.03,1.83v-1.59H339.23z M344.43,590.15c1.3,0,1.9,0.93,1.9,2.25c0,1.34-0.6,2.27-1.9,2.27
			c-1.13,0-1.86-0.87-1.86-2.21v-0.12C342.57,591.02,343.29,590.15,344.43,590.15z"/>
		<rect x="351" y="587.8" width="3.34" height="9.19"/>
		<rect x="350.98" y="584.01" width="3.38" height="2.93"/>
		<path d="M359.49,597.24c1.26,0,2.06-0.31,2.76-0.82v-2.16c-0.56,0.23-1.01,0.31-1.42,0.31c-0.68,0-1.05-0.31-1.05-1.09v-3.36h2.39
			v-2.31h-2.39v-2.54h-2.1l-0.31,1.2c-0.23,0.85-0.52,1.34-1.44,1.48l-0.68,0.1v2.06h1.24v4.33
			C356.48,596.6,357.95,597.24,359.49,597.24z"/>
		<path d="M366.27,591.82c-2,0.35-3.28,1.11-3.28,2.89c0,1.57,1.18,2.49,2.97,2.49c1.46,0,2.51-0.56,3.05-1.63
			c0.31,1.05,1.2,1.63,2.33,1.63c0.95,0,1.61-0.27,2.08-0.6v-1.77c-0.27,0.1-0.47,0.14-0.74,0.14c-0.35,0-0.56-0.21-0.56-0.68v-3.13
			c0-2.56-1.79-3.61-4.23-3.61c-2.76,0-4.27,1.4-4.56,3.42l3.09,0.21c0.14-0.68,0.52-1.15,1.26-1.15c0.8,0,1.15,0.45,1.15,1.22v0.14
			L366.27,591.82z M368.85,593.16c0,1.2-0.76,1.9-1.71,1.9c-0.56,0-0.93-0.31-0.93-0.78c0-0.6,0.47-0.85,1.28-1.01l1.36-0.25V593.16
			z"/>
		<rect x="374.39" y="584.01" width="3.34" height="12.99"/>
		<rect x="379.55" y="587.8" width="3.34" height="9.19"/>
		<rect x="379.53" y="584.01" width="3.38" height="2.93"/>
		<path d="M388.7,595.16c-1.01,0-1.63-0.43-1.75-1.2l-2.91,0.04c0.19,2.23,2.08,3.24,4.62,3.24c2.62,0,4.27-1.11,4.27-3.05
			c0-1.79-1.2-2.72-3.26-3.05l-1.79-0.31c-0.31-0.04-0.56-0.21-0.56-0.52c0-0.41,0.37-0.66,1.01-0.66c1.03,0,1.61,0.41,1.73,1.07
			l2.74-0.08c-0.19-1.92-1.75-3.09-4.41-3.09c-2.58,0-4.16,1.3-4.16,3.11c0,1.88,1.18,2.6,3.4,2.95l1.36,0.21
			c0.64,0.1,0.85,0.35,0.85,0.7C389.83,594.89,389.44,595.16,388.7,595.16z"/>
		<path d="M409.68,596.99v-5.77c0-1.92-0.74-3.67-3.28-3.67c-1.55,0-2.64,0.78-3.13,1.81c-0.39-1.07-1.24-1.81-2.87-1.81
			c-1.38,0-2.37,0.62-2.87,1.63v-1.38h-3.34v9.19h3.34v-4.51c0-1.38,0.39-2.29,1.48-2.29c1.01,0,1.26,0.66,1.26,1.92v4.89h3.34
			v-4.51c0-1.38,0.37-2.29,1.48-2.29c1.01,0,1.24,0.66,1.24,1.92v4.89H409.68z"/>
		<rect x="413.27" y="584.01" width="3.5" height="12.99"/>
		<path d="M422.67,595.16c-1.01,0-1.63-0.43-1.75-1.2l-2.91,0.04c0.19,2.23,2.08,3.24,4.62,3.24c2.62,0,4.27-1.11,4.27-3.05
			c0-1.79-1.2-2.72-3.26-3.05l-1.79-0.31c-0.31-0.04-0.56-0.21-0.56-0.52c0-0.41,0.37-0.66,1.01-0.66c1.03,0,1.61,0.41,1.73,1.07
			l2.74-0.08c-0.19-1.92-1.75-3.09-4.41-3.09c-2.58,0-4.16,1.3-4.16,3.11c0,1.88,1.18,2.6,3.4,2.95l1.36,0.21
			c0.64,0.1,0.85,0.35,0.85,0.7C423.8,594.89,423.41,595.16,422.67,595.16z"/>
		<path d="M429.07,596.99h3.52l0.97-2.51h5.07l0.97,2.51h3.73l-5.17-12.99h-3.92L429.07,596.99z M436.05,588.03h0.08l1.48,3.83
			h-3.05L436.05,588.03z"/>
		<polygon points="453.81,596.99 458.8,584.01 455.31,584.01 452.1,592.64 452.01,592.64 448.8,584.01 445.13,584.01 450.12,596.99 
					"/>
		<rect x="459.68" y="584.01" width="3.38" height="2.93"/>
		<rect x="459.7" y="587.8" width="3.34" height="9.19"/>
		<path d="M464.85,587.8v9.19h3.34v-4.21c0-1.55,0.76-2.12,2-2.12c0.64,0,1.13,0.12,1.59,0.39l0.21-3.15
			c-0.23-0.19-0.72-0.35-1.28-0.35c-1.22,0-2.19,0.85-2.52,1.88v-1.63H464.85z"/>
		<path d="M482.41,596.99v-9.19h-3.34v4.51c0,1.4-0.41,2.31-1.46,2.31c-1.01,0-1.36-0.68-1.36-1.92v-4.91h-3.34v5.79
			c0,1.92,0.76,3.65,3.28,3.65c1.38,0,2.39-0.6,2.89-1.63v1.38H482.41z"/>
		<path d="M487.85,589.65c1.03,0,1.61,0.41,1.73,1.07l2.74-0.08c-0.19-1.92-1.75-3.09-4.41-3.09c-2.58,0-4.16,1.3-4.16,3.11
			c0,1.88,1.17,2.6,3.4,2.95l1.36,0.21c0.64,0.1,0.85,0.35,0.85,0.7c0,0.37-0.39,0.64-1.13,0.64c-1.01,0-1.63-0.43-1.75-1.2
			l-2.91,0.04c0.19,2.23,2.08,3.24,4.62,3.24c2.62,0,4.27-1.11,4.27-3.05c0-1.79-1.2-2.72-3.26-3.05l-1.79-0.31
			c-0.31-0.04-0.56-0.21-0.56-0.52C486.84,589.9,487.21,589.65,487.85,589.65z"/>
	</g>
</g>
</svg>
