<?xml version="1.0" encoding="utf-8"?>
<!-- Generator: Adobe Illustrator 23.1.1, SVG Export Plug-In . SVG Version: 6.00 Build 0)  -->
<svg version="1.1" xmlns="http://www.w3.org/2000/svg" xmlns:xlink="http://www.w3.org/1999/xlink" x="0px" y="0px"
	 viewBox="0 0 792 612" style="enable-background:new 0 0 792 612;" xml:space="preserve">
<style type="text/css">
	.st0{display:none;}
	.st1{display:inline;fill:#FFFFFF;}
	.st2{display:inline;}
	.st3{fill:#FFFFFF;stroke:#000000;stroke-width:16;stroke-linecap:round;stroke-linejoin:round;stroke-miterlimit:10;}
	.st4{fill:none;stroke:#000000;stroke-width:24;stroke-linejoin:round;stroke-miterlimit:10;}
	.st5{fill:#FFFFFF;}
	.st6{fill:#FFFFFF;stroke:#000000;stroke-width:17;stroke-linecap:round;stroke-miterlimit:10;}
	.st7{fill:#FFFFFF;stroke:#000000;stroke-width:17;stroke-miterlimit:10;}
	.st8{stroke:#000000;stroke-width:16.0572;stroke-linecap:round;stroke-miterlimit:10;}
	.st9{fill:#FFFFFF;stroke:#000000;stroke-width:13.497;stroke-linecap:round;stroke-linejoin:round;stroke-miterlimit:10;}
	.st10{stroke:#000000;stroke-width:18.3348;stroke-linecap:round;stroke-miterlimit:10;}
	.st11{fill:none;stroke:#000000;stroke-width:13.497;stroke-linecap:round;stroke-linejoin:round;stroke-miterlimit:10;}
	.st12{fill:#FFFFFF;stroke:#000000;stroke-width:14.6942;stroke-linecap:round;stroke-linejoin:round;stroke-miterlimit:10;}
	.st13{fill:none;stroke:#000000;stroke-width:13;stroke-linecap:round;stroke-linejoin:round;stroke-miterlimit:10;}
	.st14{fill:none;stroke:#000000;stroke-width:13;stroke-linejoin:round;stroke-miterlimit:10;}
	.st15{fill:url(#);stroke:#000000;stroke-width:13;stroke-linejoin:round;stroke-miterlimit:10;}
	.st16{fill:none;stroke:#000000;stroke-width:30.5612;stroke-linecap:round;stroke-linejoin:round;stroke-miterlimit:10;}
	.st17{fill:#FFFFFF;stroke:#000000;stroke-width:16.2993;stroke-linecap:round;stroke-linejoin:round;stroke-miterlimit:10;}
	.st18{fill:#FFFFFF;stroke:#000000;stroke-width:13.497;stroke-linecap:round;stroke-miterlimit:10;}
	.st19{fill:url(#);stroke:#000000;stroke-width:13.497;stroke-linecap:round;stroke-linejoin:round;stroke-miterlimit:10;}
	.st20{fill:#FFFFFF;stroke:#000000;stroke-width:11.7326;stroke-linecap:round;stroke-linejoin:round;stroke-miterlimit:10;}
	.st21{font-family:'FoundersGrotesk-Bold';}
	.st22{font-size:20.6105px;}
	.st23{font-size:10.3052px;}
	.st24{font-size:19.2364px;}
	.st25{fill:#FFFFFF;stroke:#000000;stroke-width:13.2623;stroke-linecap:round;stroke-linejoin:round;stroke-miterlimit:10;}
	.st26{fill:#FFFFFF;stroke:#000000;stroke-width:13.2623;stroke-linecap:round;stroke-miterlimit:10;}
	.st27{stroke:#000000;stroke-width:4.5213;stroke-miterlimit:10;}
	.st28{fill:none;stroke:#000000;stroke-width:16;stroke-linecap:round;stroke-miterlimit:10;}
	.st29{fill:url(#);stroke:#000000;stroke-width:16;stroke-linecap:round;stroke-linejoin:round;stroke-miterlimit:10;}
	.st30{fill:#FFFFFF;stroke:#000000;stroke-width:16;stroke-linecap:round;stroke-miterlimit:10;}
	.st31{fill:none;stroke:#000000;stroke-width:16;stroke-linecap:round;stroke-linejoin:round;stroke-miterlimit:10;}
	.st32{fill:none;stroke:#000000;stroke-width:15.2344;stroke-linecap:round;stroke-linejoin:round;stroke-miterlimit:10;}
	.st33{fill:#FFFFFF;stroke:#000000;stroke-width:15.2344;stroke-linecap:round;stroke-linejoin:round;stroke-miterlimit:10;}
	.st34{fill:#FFFFFF;stroke:#000000;stroke-width:17;stroke-linecap:round;stroke-linejoin:round;stroke-miterlimit:10;}
	.st35{fill:none;stroke:#000000;stroke-width:9.9764;stroke-linecap:round;stroke-linejoin:round;stroke-miterlimit:10;}
	.st36{fill:none;stroke:#000000;stroke-width:9.3127;stroke-linejoin:round;stroke-miterlimit:10;}
	.st37{fill:url(#);}
	.st38{fill:none;stroke:#000000;stroke-width:8.3796;stroke-linecap:round;stroke-linejoin:round;stroke-miterlimit:10;}
	
		.st39{display:inline;fill:none;stroke:#000000;stroke-width:9.9764;stroke-linecap:round;stroke-linejoin:round;stroke-miterlimit:10;}
	.st40{display:inline;fill:none;stroke:#000000;stroke-width:9.3127;stroke-linejoin:round;stroke-miterlimit:10;}
	.st41{display:inline;fill:url(#);stroke:#000000;stroke-width:10;stroke-linejoin:round;stroke-miterlimit:10;}
	.st42{fill:#FFFFFF;stroke:#000000;stroke-width:14.7375;stroke-linecap:round;stroke-linejoin:round;stroke-miterlimit:10;}
	.st43{fill:none;stroke:#000000;stroke-width:14.7375;stroke-linecap:round;stroke-linejoin:round;stroke-miterlimit:10;}
	.st44{stroke:#000000;stroke-width:14.7375;stroke-linecap:round;stroke-linejoin:round;stroke-miterlimit:10;}
	.st45{fill:#FFFFFF;stroke:#000000;stroke-width:14.2911;stroke-linecap:round;stroke-linejoin:round;stroke-miterlimit:10;}
	.st46{fill:none;stroke:#000000;stroke-width:15;stroke-linecap:round;stroke-linejoin:round;stroke-miterlimit:10;}
	.st47{fill:#FFFFFF;stroke:#000000;stroke-width:15;stroke-linecap:round;stroke-linejoin:round;stroke-miterlimit:10;}
	.st48{fill:#FFFFFF;stroke:#000000;stroke-width:14.8467;stroke-linecap:round;stroke-linejoin:round;stroke-miterlimit:10;}
	.st49{stroke:#000000;stroke-width:20.1683;stroke-linecap:round;stroke-miterlimit:10;}
	.st50{fill:none;stroke:#000000;stroke-width:14.8467;stroke-linecap:round;stroke-linejoin:round;stroke-miterlimit:10;}
	.st51{fill:none;stroke:#000000;stroke-width:13.497;stroke-miterlimit:10;}
	.st52{fill:#FFFFFF;stroke:#000000;stroke-width:13.497;stroke-miterlimit:10;}
	.st53{fill:#FFFFFF;stroke:#000000;stroke-width:14.7439;stroke-linecap:round;stroke-miterlimit:10;}
	.st54{fill:#FFFFFF;stroke:#000000;stroke-width:14.7439;stroke-miterlimit:10;}
	.st55{stroke:#000000;stroke-width:13.9262;stroke-linecap:round;stroke-miterlimit:10;}
	.st56{fill:#FFFFFF;stroke:#000000;stroke-width:17.1072;stroke-linecap:round;stroke-linejoin:round;stroke-miterlimit:10;}
	.st57{stroke:#000000;stroke-width:17.1072;stroke-linecap:round;stroke-linejoin:round;stroke-miterlimit:10;}
	.st58{fill:#FFFFFF;stroke:#000000;stroke-width:15;stroke-linecap:square;stroke-linejoin:round;stroke-miterlimit:10;}
	.st59{fill:#FFFFFF;stroke:#000000;stroke-width:15;stroke-linejoin:round;stroke-miterlimit:10;}
	.st60{fill:#FFFFFF;stroke:#000000;stroke-width:14;stroke-linecap:round;stroke-linejoin:round;stroke-miterlimit:10;}
	.st61{fill:#FFFFFF;stroke:#000000;stroke-width:13;stroke-linecap:round;stroke-linejoin:round;stroke-miterlimit:10;}
	.st62{fill:#FFFFFF;stroke:#000000;stroke-width:15.2362;stroke-linecap:round;stroke-linejoin:round;stroke-miterlimit:10;}
	.st63{fill:#FFFFFF;stroke:#FFFFFF;stroke-width:3;stroke-miterlimit:10;}
	.st64{fill:#FFFFFF;stroke:#000000;stroke-width:13.3058;stroke-linecap:round;stroke-linejoin:round;stroke-miterlimit:10;}
	.st65{fill:#FFFFFF;stroke:#000000;stroke-width:15.2517;stroke-linecap:round;stroke-linejoin:round;stroke-miterlimit:10;}
	.st66{stroke:#000000;stroke-width:3;stroke-miterlimit:10;}
</style>
<g id="unexpanded" class="st0">
	<rect x="-9850.75" y="-955.56" class="st1" width="14663.41" height="9108.82"/>
	<g class="st2">
		<rect x="0" y="-612" class="st5" width="792" height="1224"/>
		<g>
			<g>
				<g>
					<g>
						<path class="st5" d="M686.92,175.93c0,0,42.1-16.23,50.14,29.39c8.04,45.62-8.41,62.79-19.1,70.97
							c-10.69,8.19-3.85,298.24-3.23,329.64H659.9"/>
						<g>
							<path class="st5" d="M728.06,227.34c-3.73,6.17-12.05,7.97-18.57,4.02c-6.52-3.95-8.78-12.15-5.05-18.32l24.76-40.9
								c3.73-6.17,12.05-7.97,18.57-4.02c6.52,3.95,8.78,12.15,5.05,18.32L728.06,227.34z"/>
							<path class="st5" d="M704.44,213.04c-3.73,6.17-12.05,7.97-18.57,4.02s-8.78-12.15-5.05-18.32l28.8-47.57
								c3.73-6.17,12.05-7.97,18.57-4.02s8.78,12.15,5.05,18.32L704.44,213.04z"/>
							<path class="st5" d="M657.31,184.51c-3.73,6.17-12.05,7.97-18.57,4.02c-6.52-3.95-8.78-12.15-5.05-18.32l28.8-47.57
								c3.73-6.17,12.05-7.97,18.57-4.02c6.52,3.95,8.78,12.15,5.05,18.32L657.31,184.51z"/>
							<path class="st5" d="M680.93,198.81c-3.73,6.17-12.05,7.97-18.57,4.02s-8.78-12.15-5.05-18.32l32.84-54.25
								c3.73-6.17,12.05-7.97,18.57-4.02c6.52,3.95,8.78,12.15,5.05,18.32L680.93,198.81z"/>
						</g>
					</g>
					<g>
						<path class="st20" d="M686.92,175.93c0,0,42.1-16.23,50.14,29.39c8.04,45.62-9.18,61.86-19.1,70.97
							c-21.01,19.3-1.56,112.7-1.56,327.8"/>
						<g>
							<path class="st20" d="M728.06,227.34c-3.73,6.17-12.05,7.97-18.57,4.02c-6.52-3.95-8.78-12.15-5.05-18.32l24.76-40.9
								c3.73-6.17,12.05-7.97,18.57-4.02c6.52,3.95,8.78,12.15,5.05,18.32L728.06,227.34z"/>
							<path class="st20" d="M704.44,213.04c-3.73,6.17-12.05,7.97-18.57,4.02s-8.78-12.15-5.05-18.32l28.8-47.57
								c3.73-6.17,12.05-7.97,18.57-4.02s8.78,12.15,5.05,18.32L704.44,213.04z"/>
							<path class="st20" d="M657.31,184.51c-3.73,6.17-12.05,7.97-18.57,4.02c-6.52-3.95-8.78-12.15-5.05-18.32l28.8-47.57
								c3.73-6.17,12.05-7.97,18.57-4.02c6.52,3.95,8.78,12.15,5.05,18.32L657.31,184.51z"/>
							<path class="st20" d="M680.93,198.81c-3.73,6.17-12.05,7.97-18.57,4.02s-8.78-12.15-5.05-18.32l32.84-54.25
								c3.73-6.17,12.05-7.97,18.57-4.02c6.52,3.95,8.78,12.15,5.05,18.32L680.93,198.81z"/>
						</g>
						<path class="st5" d="M624.15,605.93h68.46l-11.31-348.86c0,0,10.69-41.19-29.4-57.84c1.94-3.33,4.23-7.28,4.23-7.28
							s10.19,4.37,19.76-1.87s11.03-14.15,11.03-14.15s-35.16-16.85-41.19-19.35s-12.48,0-18.93,8.32s-27.25,34.33-26.42,50.56
							c0.83,16.23,24.97,40.57,28.92,51.8C632.18,275.45,625.88,526.92,624.15,605.93z"/>
						<path class="st20" d="M681.31,257.07c0,0,10.69-41.19-29.4-57.84c1.94-3.33,4.22-7.28,4.22-7.28s10.19,4.37,19.76-1.87
							c9.57-6.24,11.03-14.15,11.03-14.15s-35.16-16.85-41.19-19.35c-6.03-2.5-12.48,0-18.93,8.32
							c-6.45,8.32-27.25,34.33-26.42,50.56c0.83,16.23,23.13,41.4,28.92,51.8c12.15,21.84-5.14,159.77-5.14,336.82"/>
					</g>
				</g>
				<line class="st20" x1="666.41" y1="199.74" x2="674.66" y2="195.98"/>
			</g>
			<g>
				<g>
					<g>
						<path class="st5" d="M122.92,175.93c0,0,42.1-16.23,50.14,29.39c8.04,45.62-8.41,62.79-19.1,70.97s-3.85,298.24-3.23,329.64
							H95.9"/>
						<g>
							<path class="st5" d="M164.06,227.34c-3.73,6.17-12.05,7.97-18.57,4.02c-6.52-3.95-8.78-12.15-5.05-18.32l24.76-40.9
								c3.73-6.17,12.05-7.97,18.57-4.02c6.52,3.95,8.78,12.15,5.05,18.32L164.06,227.34z"/>
							<path class="st5" d="M140.44,213.04c-3.73,6.17-12.05,7.97-18.57,4.02s-8.78-12.15-5.05-18.32l28.8-47.57
								c3.73-6.17,12.05-7.97,18.57-4.02s8.78,12.15,5.05,18.32L140.44,213.04z"/>
							<path class="st5" d="M93.31,184.51c-3.73,6.17-12.05,7.97-18.57,4.02c-6.52-3.95-8.78-12.15-5.05-18.32l28.8-47.57
								c3.73-6.17,12.05-7.97,18.57-4.02c6.52,3.95,8.78,12.15,5.05,18.32L93.31,184.51z"/>
							<path class="st5" d="M116.93,198.81c-3.73,6.17-12.05,7.97-18.57,4.02s-8.78-12.15-5.05-18.32l32.84-54.25
								c3.73-6.17,12.05-7.97,18.57-4.02c6.52,3.95,8.78,12.15,5.05,18.32L116.93,198.81z"/>
						</g>
					</g>
					<g>
						<path class="st20" d="M122.92,175.93c0,0,42.1-16.23,50.14,29.39c8.04,45.62-9.18,61.86-19.1,70.97
							c-21.01,19.3-1.56,112.7-1.56,327.8"/>
						<g>
							<path class="st20" d="M164.06,227.34c-3.73,6.17-12.05,7.97-18.57,4.02c-6.52-3.95-8.78-12.15-5.05-18.32l24.76-40.9
								c3.73-6.17,12.05-7.97,18.57-4.02c6.52,3.95,8.78,12.15,5.05,18.32L164.06,227.34z"/>
							<path class="st20" d="M140.44,213.04c-3.73,6.17-12.05,7.97-18.57,4.02s-8.78-12.15-5.05-18.32l28.8-47.57
								c3.73-6.17,12.05-7.97,18.57-4.02s8.78,12.15,5.05,18.32L140.44,213.04z"/>
							<path class="st20" d="M93.31,184.51c-3.73,6.17-12.05,7.97-18.57,4.02c-6.52-3.95-8.78-12.15-5.05-18.32l28.8-47.57
								c3.73-6.17,12.05-7.97,18.57-4.02c6.52,3.95,8.78,12.15,5.05,18.32L93.31,184.51z"/>
							<path class="st20" d="M116.93,198.81c-3.73,6.17-12.05,7.97-18.57,4.02s-8.78-12.15-5.05-18.32l32.84-54.25
								c3.73-6.17,12.05-7.97,18.57-4.02c6.52,3.95,8.78,12.15,5.05,18.32L116.93,198.81z"/>
						</g>
						<path class="st5" d="M60.15,605.93h68.46l-11.31-348.86c0,0,10.69-41.19-29.4-57.84c1.94-3.33,4.23-7.28,4.23-7.28
							s10.19,4.37,19.76-1.87s11.03-14.15,11.03-14.15s-35.16-16.85-41.19-19.35c-6.03-2.5-12.48,0-18.93,8.32
							s-27.25,34.33-26.42,50.56c0.83,16.23,24.97,40.57,28.92,51.8C68.18,275.45,61.88,526.92,60.15,605.93z"/>
						<path class="st20" d="M117.31,257.07c0,0,10.69-41.19-29.4-57.84c1.94-3.33,4.22-7.28,4.22-7.28s10.19,4.37,19.76-1.87
							s11.03-14.15,11.03-14.15s-35.16-16.85-41.19-19.35c-6.03-2.5-12.48,0-18.93,8.32c-6.45,8.32-27.25,34.33-26.42,50.56
							c0.83,16.23,23.13,41.4,28.92,51.8c12.15,21.84-5.14,159.77-5.14,336.82"/>
					</g>
				</g>
				<line class="st20" x1="102.41" y1="199.74" x2="110.66" y2="195.98"/>
			</g>
			<g>
				<g>
					<g>
						<path class="st5" d="M404.92,175.93c0,0,42.1-16.23,50.14,29.39c8.04,45.62-8.41,62.79-19.1,70.97s-3.85,298.24-3.23,329.64
							H377.9"/>
						<g>
							<path class="st5" d="M446.06,227.34c-3.73,6.17-12.05,7.97-18.57,4.02c-6.52-3.95-8.78-12.15-5.05-18.32l24.76-40.9
								c3.73-6.17,12.05-7.97,18.57-4.02c6.52,3.95,8.78,12.15,5.05,18.32L446.06,227.34z"/>
							<path class="st5" d="M422.44,213.04c-3.73,6.17-12.05,7.97-18.57,4.02s-8.78-12.15-5.05-18.32l28.8-47.57
								c3.73-6.17,12.05-7.97,18.57-4.02s8.78,12.15,5.05,18.32L422.44,213.04z"/>
							<path class="st5" d="M375.31,184.51c-3.73,6.17-12.05,7.97-18.57,4.02c-6.52-3.95-8.78-12.15-5.05-18.32l28.8-47.57
								c3.73-6.17,12.05-7.97,18.57-4.02c6.52,3.95,8.78,12.15,5.05,18.32L375.31,184.51z"/>
							<path class="st5" d="M398.93,198.81c-3.73,6.17-12.05,7.97-18.57,4.02c-6.52-3.95-8.78-12.15-5.05-18.32l32.84-54.25
								c3.73-6.17,12.05-7.97,18.57-4.02c6.52,3.95,8.78,12.15,5.05,18.32L398.93,198.81z"/>
						</g>
					</g>
					<g>
						<path class="st20" d="M404.92,175.93c0,0,42.1-16.23,50.14,29.39c8.04,45.62-9.18,61.86-19.1,70.97
							c-21.01,19.3-1.56,112.7-1.56,327.8"/>
						<g>
							<path class="st20" d="M446.06,227.34c-3.73,6.17-12.05,7.97-18.57,4.02c-6.52-3.95-8.78-12.15-5.05-18.32l24.76-40.9
								c3.73-6.17,12.05-7.97,18.57-4.02c6.52,3.95,8.78,12.15,5.05,18.32L446.06,227.34z"/>
							<path class="st20" d="M422.44,213.04c-3.73,6.17-12.05,7.97-18.57,4.02s-8.78-12.15-5.05-18.32l28.8-47.57
								c3.73-6.17,12.05-7.97,18.57-4.02s8.78,12.15,5.05,18.32L422.44,213.04z"/>
							<path class="st20" d="M375.31,184.51c-3.73,6.17-12.05,7.97-18.57,4.02c-6.52-3.95-8.78-12.15-5.05-18.32l28.8-47.57
								c3.73-6.17,12.05-7.97,18.57-4.02c6.52,3.95,8.78,12.15,5.05,18.32L375.31,184.51z"/>
							<path class="st20" d="M398.93,198.81c-3.73,6.17-12.05,7.97-18.57,4.02c-6.52-3.95-8.78-12.15-5.05-18.32l32.84-54.25
								c3.73-6.17,12.05-7.97,18.57-4.02c6.52,3.95,8.78,12.15,5.05,18.32L398.93,198.81z"/>
						</g>
						<path class="st5" d="M342.15,605.93h68.46l-11.31-348.86c0,0,10.69-41.19-29.4-57.84c1.94-3.33,4.23-7.28,4.23-7.28
							s10.19,4.37,19.76-1.87s11.03-14.15,11.03-14.15s-35.16-16.85-41.19-19.35c-6.03-2.5-12.48,0-18.93,8.32
							s-27.25,34.33-26.42,50.56c0.83,16.23,24.97,40.57,28.92,51.8C350.18,275.45,343.88,526.92,342.15,605.93z"/>
						<path class="st20" d="M399.31,257.07c0,0,10.69-41.19-29.4-57.84c1.94-3.33,4.22-7.28,4.22-7.28s10.19,4.37,19.76-1.87
							s11.03-14.15,11.03-14.15s-35.16-16.85-41.19-19.35c-6.03-2.5-12.48,0-18.93,8.32c-6.45,8.32-27.25,34.33-26.42,50.56
							c0.83,16.23,23.13,41.4,28.92,51.8c12.15,21.84-5.14,159.77-5.14,336.82"/>
					</g>
				</g>
				<line class="st20" x1="384.41" y1="199.74" x2="392.66" y2="195.98"/>
			</g>
			<g>
				<g>
					<g>
						<path class="st5" d="M545.92,295.82c0,0,42.1-16.23,50.14,29.39c8.04,45.62-8.41,62.79-19.1,70.97
							c-10.69,8.19-5.62,183.23-5,214.64H518.9"/>
						<g>
							<path class="st5" d="M587.06,347.24c-3.73,6.17-12.05,7.97-18.57,4.02c-6.52-3.95-8.78-12.15-5.05-18.32l24.76-40.9
								c3.73-6.17,12.05-7.97,18.57-4.02c6.52,3.95,8.78,12.15,5.05,18.32L587.06,347.24z"/>
							<path class="st5" d="M563.44,332.94c-3.73,6.17-12.05,7.97-18.57,4.02s-8.78-12.15-5.05-18.32l28.8-47.57
								c3.73-6.17,12.05-7.97,18.57-4.02s8.78,12.15,5.05,18.32L563.44,332.94z"/>
							<path class="st5" d="M516.31,304.4c-3.73,6.17-12.05,7.97-18.57,4.02c-6.52-3.95-8.78-12.15-5.05-18.32l28.8-47.57
								c3.73-6.17,12.05-7.97,18.57-4.02c6.52,3.95,8.78,12.15,5.05,18.32L516.31,304.4z"/>
							<path class="st5" d="M539.93,318.71c-3.73,6.17-12.05,7.97-18.57,4.02s-8.78-12.15-5.05-18.32l32.84-54.25
								c3.73-6.17,12.05-7.97,18.57-4.02c6.52,3.95,8.78,12.15,5.05,18.32L539.93,318.71z"/>
						</g>
					</g>
					<g>
						<path class="st20" d="M545.92,295.82c0,0,42.1-16.23,50.14,29.39c8.04,45.62-9.18,61.86-19.1,70.97
							c-21.01,19.3-3.75,109.36-3.33,212.79"/>
						<g>
							<path class="st20" d="M587.06,347.24c-3.73,6.17-12.05,7.97-18.57,4.02c-6.52-3.95-8.78-12.15-5.05-18.32l24.76-40.9
								c3.73-6.17,12.05-7.97,18.57-4.02c6.52,3.95,8.78,12.15,5.05,18.32L587.06,347.24z"/>
							<path class="st20" d="M563.44,332.94c-3.73,6.17-12.05,7.97-18.57,4.02s-8.78-12.15-5.05-18.32l28.8-47.57
								c3.73-6.17,12.05-7.97,18.57-4.02s8.78,12.15,5.05,18.32L563.44,332.94z"/>
							<path class="st20" d="M516.31,304.4c-3.73,6.17-12.05,7.97-18.57,4.02c-6.52-3.95-8.78-12.15-5.05-18.32l28.8-47.57
								c3.73-6.17,12.05-7.97,18.57-4.02c6.52,3.95,8.78,12.15,5.05,18.32L516.31,304.4z"/>
							<path class="st20" d="M539.93,318.71c-3.73,6.17-12.05,7.97-18.57,4.02s-8.78-12.15-5.05-18.32l32.84-54.25
								c3.73-6.17,12.05-7.97,18.57-4.02c6.52,3.95,8.78,12.15,5.05,18.32L539.93,318.71z"/>
						</g>
						<path class="st5" d="M483.15,610.82h66.69l-9.54-233.86c0,0,10.69-41.19-29.4-57.84c1.94-3.33,4.23-7.28,4.23-7.28
							s10.19,4.37,19.76-1.87c9.57-6.24,11.03-14.15,11.03-14.15s-35.16-16.85-41.19-19.35c-6.03-2.5-12.48,0-18.93,8.32
							c-6.45,8.32-27.25,34.33-26.42,50.56c0.83,16.23,24.97,40.57,28.92,51.8C491.18,395.35,484.88,531.81,483.15,610.82z"/>
						<path class="st20" d="M540.31,376.96c0,0,10.69-41.19-29.4-57.84c1.94-3.33,4.22-7.28,4.22-7.28s10.19,4.37,19.76-1.87
							c9.57-6.24,11.03-14.15,11.03-14.15s-35.16-16.85-41.19-19.35c-6.03-2.5-12.48,0-18.93,8.32
							c-6.45,8.32-27.25,34.33-26.42,50.56c0.83,16.23,23.13,41.4,28.92,51.8c12.15,21.84-7.3,118.61-5.14,221.82"/>
					</g>
				</g>
				<line class="st20" x1="525.63" y1="319.64" x2="534.29" y2="317.76"/>
			</g>
			<g>
				<g>
					<g>
						<path class="st5" d="M263.92,295.82c0,0,42.1-16.23,50.14,29.39c8.04,45.62-8.41,62.79-19.1,70.97s-5.62,183.23-5,214.64
							H236.9"/>
						<g>
							<path class="st5" d="M305.06,347.24c-3.73,6.17-12.05,7.97-18.57,4.02c-6.52-3.95-8.78-12.15-5.05-18.32l24.76-40.9
								c3.73-6.17,12.05-7.97,18.57-4.02c6.52,3.95,8.78,12.15,5.05,18.32L305.06,347.24z"/>
							<path class="st5" d="M281.44,332.94c-3.73,6.17-12.05,7.97-18.57,4.02s-8.78-12.15-5.05-18.32l28.8-47.57
								c3.73-6.17,12.05-7.97,18.57-4.02s8.78,12.15,5.05,18.32L281.44,332.94z"/>
							<path class="st5" d="M234.31,304.4c-3.73,6.17-12.05,7.97-18.57,4.02s-8.78-12.15-5.05-18.32l28.8-47.57
								c3.73-6.17,12.05-7.97,18.57-4.02c6.52,3.95,8.78,12.15,5.05,18.32L234.31,304.4z"/>
							<path class="st5" d="M257.93,318.71c-3.73,6.17-12.05,7.97-18.57,4.02c-6.52-3.95-8.78-12.15-5.05-18.32l32.84-54.25
								c3.73-6.17,12.05-7.97,18.57-4.02c6.52,3.95,8.78,12.15,5.05,18.32L257.93,318.71z"/>
						</g>
					</g>
					<g>
						<path class="st20" d="M263.92,295.82c0,0,42.1-16.23,50.14,29.39c8.04,45.62-9.18,61.86-19.1,70.97
							c-21.01,19.3-3.75,109.36-3.33,212.79"/>
						<g>
							<path class="st20" d="M305.06,347.24c-3.73,6.17-12.05,7.97-18.57,4.02c-6.52-3.95-8.78-12.15-5.05-18.32l24.76-40.9
								c3.73-6.17,12.05-7.97,18.57-4.02c6.52,3.95,8.78,12.15,5.05,18.32L305.06,347.24z"/>
							<path class="st20" d="M281.44,332.94c-3.73,6.17-12.05,7.97-18.57,4.02s-8.78-12.15-5.05-18.32l28.8-47.57
								c3.73-6.17,12.05-7.97,18.57-4.02s8.78,12.15,5.05,18.32L281.44,332.94z"/>
							<path class="st20" d="M234.31,304.4c-3.73,6.17-12.05,7.97-18.57,4.02s-8.78-12.15-5.05-18.32l28.8-47.57
								c3.73-6.17,12.05-7.97,18.57-4.02c6.52,3.95,8.78,12.15,5.05,18.32L234.31,304.4z"/>
							<path class="st20" d="M257.93,318.71c-3.73,6.17-12.05,7.97-18.57,4.02c-6.52-3.95-8.78-12.15-5.05-18.32l32.84-54.25
								c3.73-6.17,12.05-7.97,18.57-4.02c6.52,3.95,8.78,12.15,5.05,18.32L257.93,318.71z"/>
						</g>
						<path class="st5" d="M201.15,610.82h66.69l-9.54-233.86c0,0,10.69-41.19-29.4-57.84c1.94-3.33,4.23-7.28,4.23-7.28
							s10.19,4.37,19.76-1.87c9.57-6.24,11.03-14.15,11.03-14.15s-35.16-16.85-41.19-19.35c-6.03-2.5-12.48,0-18.93,8.32
							c-6.45,8.32-27.25,34.33-26.42,50.56c0.83,16.23,24.97,40.57,28.92,51.8C209.18,395.35,202.88,531.81,201.15,610.82z"/>
						<path class="st20" d="M258.31,376.96c0,0,10.69-41.19-29.4-57.84c1.94-3.33,4.22-7.28,4.22-7.28s10.19,4.37,19.76-1.87
							c9.57-6.24,11.03-14.15,11.03-14.15s-35.16-16.85-41.19-19.35c-6.03-2.5-12.48,0-18.93,8.32
							c-6.45,8.32-27.25,34.33-26.42,50.56c0.83,16.23,23.13,41.4,28.92,51.8c12.15,21.84-7.3,118.61-5.14,221.82"/>
					</g>
				</g>
				<line class="st20" x1="243.63" y1="319.64" x2="252.29" y2="317.76"/>
			</g>
		</g>
		<text transform="matrix(0 1 -1 0 761.9287 303.6921)"><tspan x="0" y="0" class="st21 st22">www</tspan><tspan x="45.14" y="0" class="st21 st23"> </tspan><tspan x="46.99" y="0" class="st21 st22">.</tspan><tspan x="51.77" y="0" class="st21 st23"> </tspan><tspan x="53.63" y="0" class="st21 st22">Capitalism</tspan><tspan x="150.43" y="0" class="st21 st24"> </tspan><tspan x="153.9" y="0" class="st21 st22">Is</tspan><tspan x="168.88" y="0" class="st21 st24"> </tspan><tspan x="172.34" y="0" class="st21 st22">A</tspan><tspan x="186.6" y="0" class="st21 st23"> </tspan><tspan x="188.46" y="0" class="st21 st22">Virus</tspan><tspan x="236.15" y="0" class="st21 st23"> </tspan><tspan x="238.01" y="0" class="st21 st22">.</tspan><tspan x="242.79" y="0" class="st21 st23"> </tspan><tspan x="244.64" y="0" class="st21 st22">org</tspan></text>
	</g>
</g>
<g id="exp_trnsp_bg">
	<path d="M721.4,139.22c0.12-2.05-0.07-4.14-0.64-6.21c-1.35-4.91-4.55-9.1-8.99-11.79c-4.44-2.69-9.63-3.58-14.61-2.5
		c-2.12,0.46-4.08,1.27-5.86,2.35c-1.64-2.96-4.06-5.58-7.19-7.47c-9.28-5.62-21.23-2.92-26.63,6l-18.37,30.35
		c-4.9,0.62-10.83,3.48-16.94,11.36l-0.85,1.1c-12.9,16.58-27.6,37.62-26.79,53.35c0.69,13.37,12.51,29.86,22.01,43.11
		c3.31,4.61,6.17,8.6,7.64,11.24c5.92,10.64,3.44,61.98,0.3,126.99c-2.75,56.98-6.18,127.88-6.18,206.98c0,3.24,2.63,5.87,5.87,5.87
		c2.6,0,4.79-1.69,5.57-4.02c0.19-0.58,0.3-1.2,0.3-1.84c0-78.81,3.42-149.56,6.17-206.41c3.91-80.84,5.46-120.28-1.76-133.26
		c-1.8-3.23-4.84-7.47-8.35-12.37c-7.69-10.73-19.32-26.95-19.83-36.88c-0.17-3.31-0.69-13.39,24.34-45.55l0.87-1.11
		c4.47-5.77,8.53-7.95,12.05-6.49c4.45,1.84,25.85,12.03,35.8,16.78c-1.26,1.91-3.31,4.24-6.59,6.38
		c-6.72,4.38-13.99,1.5-14.25,1.39c-2.72-1.17-5.9-0.12-7.39,2.45c0,0-2.29,3.95-4.22,7.27c-0.85,1.46-1.03,3.22-0.49,4.82
		c0.54,1.6,1.75,2.89,3.31,3.54c34.77,14.43,26.34,49.48,25.97,50.96c-0.8,3.13,1.08,6.32,4.21,7.13c3.14,0.81,6.34-1.07,7.15-4.21
		c0.12-0.47,2.97-11.73,0.42-25.24c-0.61-3.24-1.57-6.77-3.04-10.39c2.86,1.42,5.91,2.1,8.91,2.1c1.42,0,2.82-0.16,4.19-0.46
		c0,0.01,0,0.02,0.01,0.04c1.35,4.91,4.55,9.1,8.99,11.79c3.21,1.94,6.81,2.95,10.44,2.95c1.39,0,2.79-0.15,4.17-0.45
		c5.1-1.1,9.37-4.12,12.02-8.5l0.16-0.27c-0.78,24.88-11.94,35.15-19.24,41.85c-14.5,13.32-12.79,49.05-9.06,127.35
		c2.37,49.61,5.61,117.55,5.61,204.77c0,0.65,0.11,1.26,0.3,1.84c0.77,2.34,2.97,4.02,5.57,4.02c3.24,0,5.87-2.63,5.87-5.87
		c0-87.5-3.25-155.6-5.62-205.32c-3.23-67.69-5.18-108.55,5.28-118.15c9.75-8.96,27.42-25.22,22.1-68.32l13.81-22.81
		c5.4-8.93,2.25-20.76-7.03-26.38c-3.13-1.9-6.57-2.83-9.95-2.91c0.13-2.07-0.06-4.19-0.64-6.28c-1.35-4.91-4.55-9.1-8.99-11.79
		C728.2,140.3,724.82,139.32,721.4,139.22z M651.22,152.59l16.29-26.91c1.29-2.13,3.63-3.29,6.13-3.29c1.47,0,3,0.4,4.39,1.25
		c3.75,2.27,5.12,6.87,3.07,10.26l-15.4,25.43C660.1,156.69,654.74,154.19,651.22,152.59z M676.36,164.39l18.82-31.08
		c0.96-1.59,2.55-2.69,4.46-3.11c0.55-0.12,1.12-0.18,1.68-0.18c1.51,0,3.02,0.43,4.38,1.25c1.87,1.13,3.2,2.86,3.75,4.87
		c0.52,1.89,0.28,3.81-0.69,5.4l-18.1,29.9c-0.36-0.3-0.75-0.58-1.19-0.79C688.89,170.37,683.3,167.69,676.36,164.39z
		 M699.42,210.01c-2.05,3.39-6.77,4.31-10.52,2.04c-3.43-2.08-4.87-6.12-3.5-9.39c0.18-0.27,0.38-0.53,0.55-0.81l29.47-48.67
		c0.95-1.03,2.22-1.76,3.69-2.08c0.55-0.12,1.12-0.18,1.68-0.18c1.51,0,3.02,0.42,4.38,1.25c1.87,1.13,3.2,2.86,3.75,4.87
		c0.52,1.89,0.28,3.81-0.69,5.4L699.42,210.01z M740.35,171.9c1.47,0,3,0.4,4.39,1.25c3.75,2.27,5.12,6.87,3.07,10.26l-24.76,40.9
		c-0.96,1.59-2.55,2.69-4.46,3.11c-2.03,0.44-4.19,0.06-6.05-1.07s-3.2-2.86-3.75-4.87c-0.52-1.89-0.28-3.8,0.68-5.39c0,0,0,0,0,0
		c0,0,0,0,0,0l24.76-40.9C735.51,173.05,737.86,171.9,740.35,171.9z"/>
	<path d="M52.53,258.87c3.31,4.61,6.17,8.6,7.64,11.24c5.92,10.64,3.44,61.98,0.3,126.99c-2.75,56.98-6.18,127.88-6.18,206.98
		c0,3.24,2.63,5.87,5.87,5.87c2.6,0,4.79-1.69,5.57-4.02c0.19-0.58,0.3-1.2,0.3-1.84c0-78.81,3.42-149.56,6.17-206.41
		c3.91-80.84,5.46-120.28-1.76-133.26c-1.8-3.23-4.84-7.47-8.35-12.37c-7.69-10.73-19.32-26.95-19.83-36.88
		c-0.17-3.31-0.69-13.39,24.34-45.55l0.87-1.11c4.47-5.77,8.53-7.95,12.05-6.49c4.45,1.84,25.85,12.03,35.8,16.78
		c-1.26,1.91-3.31,4.24-6.59,6.38c-6.71,4.38-13.99,1.5-14.25,1.39c-2.73-1.17-5.9-0.12-7.39,2.45c0,0-2.29,3.95-4.22,7.27
		c-0.85,1.46-1.03,3.22-0.49,4.82c0.54,1.6,1.75,2.89,3.31,3.54c34.77,14.43,26.34,49.48,25.97,50.96c-0.8,3.13,1.08,6.32,4.21,7.13
		c3.14,0.81,6.34-1.07,7.15-4.21c0.12-0.47,2.97-11.73,0.42-25.24c-0.61-3.24-1.57-6.77-3.04-10.39c2.86,1.42,5.91,2.1,8.91,2.1
		c1.42,0,2.82-0.16,4.19-0.46c0,0.01,0,0.02,0.01,0.04c1.35,4.91,4.55,9.1,8.99,11.79c3.21,1.94,6.81,2.95,10.44,2.95
		c1.39,0,2.79-0.15,4.17-0.45c5.1-1.1,9.37-4.12,12.02-8.5l0.16-0.27c-0.78,24.88-11.94,35.15-19.24,41.85
		c-14.5,13.32-12.79,49.05-9.06,127.35c2.37,49.61,5.61,117.55,5.61,204.77c0,0.65,0.11,1.26,0.3,1.84
		c0.77,2.34,2.97,4.02,5.57,4.02c3.24,0,5.87-2.63,5.87-5.87c0-87.5-3.25-155.6-5.62-205.32c-3.23-67.69-5.18-108.55,5.28-118.15
		c9.75-8.96,27.42-25.22,22.1-68.32l13.81-22.81c5.4-8.93,2.25-20.76-7.03-26.38c-3.13-1.9-6.57-2.83-9.95-2.91
		c0.13-2.07-0.06-4.19-0.64-6.28c-1.35-4.91-4.55-9.1-8.99-11.79c-3.03-1.84-6.41-2.81-9.84-2.91c0.12-2.05-0.07-4.14-0.64-6.21
		c-1.35-4.91-4.55-9.1-8.99-11.79c-4.44-2.69-9.63-3.58-14.61-2.5c-2.12,0.46-4.08,1.27-5.86,2.35c-1.64-2.96-4.06-5.58-7.19-7.47
		c-9.28-5.62-21.23-2.92-26.63,6L75.1,149.95c-4.9,0.62-10.83,3.48-16.94,11.36l-0.85,1.1c-12.9,16.58-27.6,37.62-26.79,53.35
		C31.2,229.13,43.03,245.62,52.53,258.87z M170.22,175.18c1.29-2.13,3.63-3.29,6.13-3.29c1.47,0,3,0.4,4.39,1.25
		c3.75,2.27,5.12,6.87,3.07,10.26l-24.76,40.9c-0.96,1.59-2.55,2.69-4.46,3.11c-2.04,0.44-4.18,0.06-6.05-1.07
		c-1.87-1.13-3.2-2.86-3.75-4.87c-0.52-1.89-0.28-3.8,0.68-5.39c0,0,0,0,0,0c0,0,0,0,0,0L170.22,175.18z M151.42,153.18
		c0.95-1.03,2.22-1.76,3.69-2.08c0.55-0.12,1.12-0.18,1.68-0.18c1.51,0,3.02,0.42,4.38,1.25c1.87,1.13,3.2,2.86,3.75,4.87
		c0.52,1.89,0.28,3.81-0.69,5.4l-28.8,47.57c-2.05,3.39-6.77,4.31-10.52,2.04c-3.43-2.08-4.87-6.12-3.5-9.39
		c0.18-0.27,0.38-0.53,0.55-0.81L151.42,153.18z M131.17,133.3c0.96-1.59,2.55-2.69,4.46-3.11c0.55-0.12,1.12-0.18,1.68-0.18
		c1.51,0,3.02,0.43,4.38,1.25c1.87,1.13,3.2,2.86,3.75,4.87c0.52,1.89,0.28,3.81-0.69,5.4l-18.1,29.9c-0.36-0.3-0.75-0.58-1.19-0.79
		c-0.57-0.27-6.16-2.95-13.1-6.25L131.17,133.3z M103.51,125.68c1.29-2.13,3.63-3.29,6.13-3.29c1.47,0,3,0.4,4.39,1.25
		c3.75,2.27,5.12,6.87,3.07,10.26l-15.4,25.43c-5.6-2.64-10.95-5.15-14.48-6.74L103.51,125.68z"/>
	<path d="M468.81,163.11c-3.13-1.9-6.57-2.83-9.95-2.91c0.13-2.07-0.06-4.19-0.64-6.28c-1.35-4.91-4.55-9.1-8.99-11.79
		c-3.03-1.84-6.41-2.81-9.84-2.92c0.12-2.05-0.07-4.14-0.64-6.2c-1.35-4.91-4.55-9.1-8.99-11.79c-4.44-2.69-9.63-3.58-14.61-2.5
		c-2.12,0.46-4.08,1.27-5.86,2.35c-1.64-2.96-4.06-5.58-7.19-7.47c-9.28-5.62-21.23-2.92-26.63,6l-18.37,30.35
		c-4.91,0.62-10.83,3.48-16.94,11.36l-0.85,1.1c-12.9,16.58-27.6,37.62-26.79,53.35c0.69,13.37,12.51,29.86,22.01,43.11
		c3.31,4.61,6.17,8.6,7.64,11.24c5.92,10.64,3.44,61.98,0.3,126.99c-2.75,56.98-6.18,127.88-6.18,206.98c0,3.24,2.63,5.87,5.87,5.87
		c2.6,0,4.79-1.69,5.57-4.02c0.19-0.58,0.3-1.2,0.3-1.84c0-78.81,3.42-149.56,6.17-206.41c3.91-80.84,5.46-120.28-1.76-133.26
		c-1.8-3.23-4.84-7.47-8.35-12.37c-7.69-10.73-19.32-26.95-19.83-36.88c-0.17-3.31-0.69-13.39,24.34-45.55l0.87-1.11
		c4.47-5.77,8.53-7.95,12.05-6.49c4.45,1.84,25.85,12.03,35.8,16.78c-1.26,1.91-3.31,4.24-6.59,6.38
		c-6.71,4.38-13.99,1.5-14.25,1.39c-2.73-1.17-5.9-0.12-7.39,2.45c0,0-2.29,3.95-4.22,7.27c-0.85,1.46-1.03,3.22-0.49,4.82
		c0.54,1.6,1.75,2.89,3.31,3.54c34.77,14.43,26.34,49.48,25.97,50.96c-0.8,3.13,1.08,6.32,4.21,7.13c3.14,0.81,6.34-1.07,7.15-4.21
		c0.12-0.47,2.97-11.73,0.42-25.24c-0.61-3.24-1.57-6.77-3.04-10.39c2.86,1.42,5.91,2.1,8.91,2.1c1.42,0,2.82-0.16,4.19-0.46
		c0,0.01,0,0.02,0.01,0.04c1.35,4.91,4.55,9.1,8.99,11.79c3.21,1.94,6.81,2.95,10.44,2.95c1.39,0,2.79-0.15,4.17-0.45
		c5.1-1.1,9.37-4.12,12.02-8.5l0.16-0.27c-0.78,24.88-11.94,35.15-19.24,41.85c-14.5,13.32-12.79,49.05-9.06,127.35
		c2.37,49.61,5.61,117.55,5.61,204.77c0,0.65,0.11,1.26,0.3,1.84c0.77,2.34,2.97,4.02,5.57,4.02c3.24,0,5.87-2.63,5.87-5.87
		c0-87.5-3.25-155.6-5.62-205.32c-3.23-67.69-5.18-108.55,5.28-118.15c9.75-8.96,27.42-25.22,22.1-68.32l13.81-22.81
		C481.25,180.56,478.09,168.72,468.81,163.11z M369.22,152.59l16.29-26.91c1.29-2.13,3.63-3.29,6.13-3.29c1.47,0,3,0.4,4.39,1.25
		c3.75,2.27,5.12,6.87,3.07,10.26l-15.4,25.43C378.1,156.69,372.74,154.19,369.22,152.59z M394.36,164.39l18.82-31.08
		c0.96-1.59,2.55-2.69,4.46-3.11c0.55-0.12,1.12-0.18,1.68-0.18c1.51,0,3.02,0.43,4.38,1.25c1.87,1.13,3.2,2.86,3.75,4.87
		c0.52,1.89,0.28,3.81-0.69,5.4l-18.1,29.9c-0.36-0.3-0.75-0.58-1.19-0.79C406.89,170.37,401.3,167.69,394.36,164.39z
		 M417.42,210.01c-2.05,3.39-6.77,4.31-10.52,2.04c-3.43-2.08-4.87-6.12-3.5-9.39c0.18-0.27,0.38-0.53,0.55-0.81l29.47-48.67
		c0.95-1.03,2.22-1.76,3.69-2.08c0.55-0.12,1.12-0.18,1.68-0.18c1.51,0,3.02,0.42,4.38,1.25c1.87,1.13,3.2,2.86,3.75,4.87
		c0.52,1.89,0.28,3.81-0.69,5.4L417.42,210.01z M465.81,183.41l-24.76,40.9c-0.96,1.59-2.55,2.69-4.46,3.11
		c-2.03,0.44-4.19,0.06-6.05-1.07s-3.2-2.86-3.75-4.87c-0.52-1.89-0.28-3.8,0.68-5.39c0,0,0,0,0,0c0,0,0,0,0,0l24.76-40.9
		c1.29-2.13,3.63-3.29,6.13-3.29c1.47,0,3,0.4,4.39,1.25C466.48,175.41,467.86,180.02,465.81,183.41z"/>
	<path d="M575.34,509.14c-3.29-52.51-6.14-97.85,5.6-108.63c9.75-8.96,27.42-25.22,22.1-68.32l13.81-22.81
		c5.4-8.93,2.25-20.76-7.03-26.38c-3.13-1.9-6.57-2.82-9.95-2.91c0.13-2.07-0.06-4.19-0.64-6.28c-1.35-4.91-4.55-9.1-8.99-11.79
		c-3.03-1.84-6.41-2.81-9.84-2.92c0.12-2.05-0.07-4.14-0.64-6.2c-1.35-4.91-4.55-9.1-8.99-11.79c-4.44-2.69-9.63-3.58-14.61-2.5
		c-2.12,0.46-4.08,1.27-5.86,2.35c-1.64-2.96-4.06-5.58-7.19-7.47c-9.28-5.62-21.23-2.93-26.63,6l-18.37,30.35
		c-4.91,0.62-10.83,3.48-16.94,11.36l-0.85,1.1c-12.9,16.58-27.6,37.63-26.79,53.35c0.69,13.37,12.51,29.86,22.01,43.11
		c3.31,4.61,6.17,8.6,7.64,11.24c5.68,10.21,2.92,45.5-0.27,86.37c-2.95,37.76-6.62,84.76-5.62,132.72c0.02,1.06,0.33,2.05,0.84,2.9
		c1.03,1.71,2.9,2.84,5.02,2.84c0.04,0,0.08,0,0.12,0c2.09-0.04,3.9-1.18,4.9-2.84c0.22-0.37,0.4-0.76,0.54-1.18
		c0.21-0.62,0.32-1.28,0.3-1.97c-0.99-47.38,2.66-94.06,5.58-131.56c3.75-47.99,6.22-79.69-1.18-92.99
		c-1.8-3.23-4.84-7.47-8.35-12.37c-7.69-10.73-19.32-26.95-19.83-36.88c-0.69-13.39,18.15-37.59,24.34-45.55l0.86-1.11
		c4.47-5.77,8.53-7.95,12.05-6.5c4.45,1.84,25.85,12.03,35.8,16.78c-1.26,1.91-3.31,4.24-6.59,6.38c-6.71,4.38-13.99,1.5-14.25,1.39
		c-2.72-1.17-5.9-0.12-7.39,2.45c0,0-2.29,3.95-4.22,7.27c-0.85,1.46-1.03,3.22-0.49,4.82c0.54,1.6,1.75,2.9,3.31,3.54
		c34.77,14.43,26.34,49.48,25.97,50.96c-0.8,3.13,1.08,6.32,4.21,7.13c3.14,0.81,6.34-1.07,7.15-4.2
		c0.12-0.47,2.97-11.73,0.42-25.24c-0.61-3.24-1.57-6.77-3.04-10.39c2.86,1.42,5.91,2.1,8.91,2.1c1.42,0,2.82-0.16,4.19-0.46
		c0,0.01,0,0.02,0.01,0.04c1.35,4.91,4.55,9.1,8.99,11.79c3.21,1.94,6.81,2.95,10.44,2.95c1.39,0,2.79-0.15,4.17-0.45
		c5.1-1.1,9.37-4.12,12.02-8.5v0l0.16-0.27c-0.78,24.88-11.94,35.15-19.24,41.85c-15.86,14.57-13.28,55.72-9.37,118.01
		c1.88,29.9,4,63.79,4.15,99.13c0,0.64,0.11,1.25,0.3,1.82c0.14,0.42,0.32,0.81,0.55,1.18c1.03,1.7,2.89,2.84,5.02,2.84
		c0.01,0,0.02,0,0.02,0c2.12-0.01,3.97-1.15,5-2.84c0.54-0.89,0.85-1.93,0.85-3.05C579.36,573.27,577.22,539.2,575.34,509.14z
		 M510.22,272.48l16.29-26.91c1.29-2.13,3.63-3.29,6.13-3.29c1.47,0,3,0.4,4.39,1.25c3.75,2.27,5.12,6.87,3.07,10.26l-15.4,25.43
		C519.1,276.58,513.74,274.08,510.22,272.48z M535.36,284.28l18.82-31.08c0.96-1.59,2.55-2.69,4.46-3.11
		c0.55-0.12,1.12-0.18,1.68-0.18c1.51,0,3.02,0.42,4.38,1.25c1.87,1.13,3.2,2.86,3.75,4.87c0.52,1.89,0.28,3.81-0.69,5.4l-18.1,29.9
		c-0.36-0.3-0.75-0.58-1.19-0.79C547.89,290.26,542.3,287.58,535.36,284.28z M558.42,329.9c-2.05,3.39-6.77,4.31-10.52,2.04
		c-3.43-2.08-4.87-6.12-3.5-9.39c0.18-0.27,0.38-0.53,0.55-0.81l29.47-48.67c0.95-1.03,2.22-1.76,3.69-2.08
		c0.55-0.12,1.12-0.18,1.68-0.18c1.51,0,3.02,0.43,4.38,1.25c1.87,1.13,3.2,2.86,3.75,4.87c0.52,1.89,0.28,3.81-0.69,5.4
		L558.42,329.9z M582.04,344.2C582.04,344.2,582.04,344.2,582.04,344.2c-0.96,1.59-2.55,2.69-4.46,3.11
		c-2.03,0.44-4.19,0.06-6.05-1.07c-1.87-1.13-3.2-2.86-3.75-4.87c-0.52-1.89-0.28-3.81,0.68-5.4c0,0,0,0,0,0l24.76-40.9
		c1.29-2.13,3.63-3.29,6.13-3.29c1.47,0,3,0.4,4.39,1.25c3.75,2.27,5.12,6.87,3.07,10.26L582.04,344.2z"/>
	<path d="M293.34,509.14c-3.29-52.51-6.14-97.85,5.6-108.63c9.75-8.96,27.42-25.22,22.1-68.32l13.81-22.81
		c5.4-8.93,2.25-20.76-7.03-26.38c-3.13-1.9-6.57-2.82-9.95-2.91c0.13-2.07-0.06-4.19-0.64-6.28c-1.35-4.91-4.55-9.1-8.99-11.79
		c-3.03-1.84-6.41-2.81-9.84-2.92c0.12-2.05-0.07-4.14-0.64-6.2c-1.35-4.91-4.55-9.1-8.99-11.79c-4.44-2.69-9.63-3.58-14.61-2.5
		c-2.12,0.46-4.08,1.27-5.86,2.35c-1.64-2.96-4.06-5.58-7.19-7.47c-9.28-5.62-21.23-2.93-26.63,6l-18.37,30.35
		c-4.9,0.62-10.83,3.48-16.94,11.36l-0.85,1.1c-12.9,16.58-27.6,37.63-26.79,53.35c0.69,13.37,12.51,29.86,22.01,43.11
		c3.31,4.61,6.17,8.6,7.64,11.24c5.68,10.21,2.92,45.5-0.27,86.37c-2.95,37.76-6.62,84.76-5.62,132.72c0.02,1.06,0.33,2.05,0.84,2.9
		c1.03,1.71,2.9,2.84,5.02,2.84c0.04,0,0.08,0,0.12,0c2.09-0.04,3.9-1.18,4.9-2.84c0.22-0.37,0.4-0.76,0.54-1.18
		c0.21-0.62,0.32-1.28,0.3-1.97c-0.99-47.38,2.66-94.06,5.58-131.56c3.75-47.99,6.22-79.69-1.18-92.99
		c-1.8-3.23-4.84-7.47-8.35-12.37c-7.69-10.73-19.32-26.95-19.83-36.88c-0.69-13.39,18.15-37.59,24.34-45.55l0.86-1.11
		c4.47-5.77,8.53-7.95,12.05-6.5c4.45,1.84,25.85,12.03,35.8,16.78c-1.26,1.91-3.31,4.24-6.59,6.38c-6.72,4.38-13.99,1.5-14.25,1.39
		c-2.72-1.17-5.9-0.12-7.39,2.45c0,0-2.29,3.95-4.22,7.27c-0.85,1.46-1.03,3.22-0.49,4.82c0.54,1.6,1.75,2.9,3.31,3.54
		c34.77,14.43,26.34,49.48,25.97,50.96c-0.8,3.13,1.08,6.32,4.21,7.13c3.14,0.81,6.34-1.07,7.15-4.2
		c0.12-0.47,2.97-11.73,0.42-25.24c-0.61-3.24-1.57-6.77-3.04-10.39c2.86,1.42,5.91,2.1,8.91,2.1c1.42,0,2.82-0.16,4.19-0.46
		c0,0.01,0,0.02,0.01,0.04c1.35,4.91,4.55,9.1,8.99,11.79c3.21,1.94,6.81,2.95,10.44,2.95c1.39,0,2.79-0.15,4.17-0.45
		c5.1-1.1,9.37-4.12,12.02-8.5v0l0.16-0.27c-0.78,24.88-11.94,35.15-19.24,41.85c-15.86,14.57-13.28,55.72-9.37,118.01
		c1.88,29.9,4,63.79,4.15,99.13c0,0.64,0.11,1.25,0.3,1.82c0.14,0.42,0.32,0.81,0.55,1.18c1.03,1.7,2.89,2.84,5.02,2.84
		c0.01,0,0.02,0,0.02,0c2.12-0.01,3.97-1.15,5-2.84c0.54-0.89,0.85-1.93,0.85-3.05C297.36,573.27,295.22,539.2,293.34,509.14z
		 M228.22,272.48l16.29-26.91c1.29-2.13,3.63-3.29,6.13-3.29c1.47,0,3,0.4,4.39,1.25c3.75,2.27,5.12,6.87,3.07,10.26l-15.4,25.43
		C237.1,276.58,231.74,274.08,228.22,272.48z M253.36,284.28l18.82-31.08c0.96-1.59,2.55-2.69,4.46-3.11
		c0.55-0.12,1.12-0.18,1.68-0.18c1.51,0,3.02,0.42,4.38,1.25c1.87,1.13,3.2,2.86,3.75,4.87c0.52,1.89,0.28,3.81-0.69,5.4l-18.1,29.9
		c-0.36-0.3-0.75-0.58-1.19-0.79C265.89,290.26,260.3,287.58,253.36,284.28z M276.42,329.9c-2.05,3.39-6.77,4.31-10.52,2.04
		c-3.43-2.08-4.87-6.12-3.5-9.39c0.18-0.27,0.38-0.53,0.55-0.81l29.47-48.67c0.95-1.03,2.22-1.76,3.69-2.08
		c0.55-0.12,1.12-0.18,1.68-0.18c1.51,0,3.02,0.43,4.38,1.25c1.87,1.13,3.2,2.86,3.75,4.87c0.52,1.89,0.28,3.81-0.69,5.4
		L276.42,329.9z M300.04,344.2C300.04,344.2,300.04,344.2,300.04,344.2c-0.96,1.59-2.55,2.69-4.46,3.11
		c-2.03,0.44-4.19,0.06-6.05-1.07c-1.87-1.13-3.2-2.86-3.75-4.87c-0.52-1.89-0.28-3.81,0.68-5.4c0,0,0,0,0,0l24.76-40.9
		c1.29-2.13,3.63-3.29,6.13-3.29c1.47,0,3,0.4,4.39,1.25c3.75,2.27,5.12,6.87,3.07,10.26L300.04,344.2z"/>
	<polygon points="771.12,345.92 765.91,344.27 765.91,344.18 771.12,342.84 771.12,340.18 765.91,338.84 765.91,338.76 
		771.12,337.11 771.12,333.88 771.12,333.79 771.12,330.87 765.91,329.22 765.91,329.14 771.12,327.8 771.12,325.14 765.91,323.8 
		765.91,323.72 771.12,322.07 771.12,318.83 771.12,318.75 771.12,315.82 765.91,314.17 765.91,314.09 771.12,312.75 771.12,310.09 
		765.91,308.75 765.91,308.67 771.12,307.02 771.12,303.7 761.93,306.61 761.93,309.89 767.12,311.23 767.12,311.31 761.93,312.65 
		761.93,315.93 770.99,318.79 761.93,321.66 761.93,324.93 767.12,326.27 767.12,326.36 761.93,327.7 761.93,330.97 770.99,333.84 
		761.93,336.7 761.93,339.98 767.12,341.32 767.12,341.4 761.93,342.74 761.93,346.02 771.12,348.92 	"/>
	<rect x="761.93" y="351.35" width="3.55" height="3.55"/>
	<path d="M767.43,370.79l0.14-3.36c-1.44-0.21-2.78-0.99-2.78-3.01c0-1.92,1.42-3.03,3.63-3.03c2.21,0,3.63,1.11,3.63,3.03
		c0,2.02-1.34,2.8-2.78,3.01l0.12,3.36c3.24-0.25,5.77-2.37,5.77-6.35c0-3.79-2.74-6.66-6.74-6.66c-4,0-6.74,2.87-6.74,6.66
		C761.68,368.42,764.2,370.54,767.43,370.79z"/>
	<path d="M761.72,379.88c0,0.95,0.27,1.61,0.6,2.08h1.77c-0.1-0.27-0.14-0.47-0.14-0.74c0-0.35,0.21-0.56,0.68-0.56h3.13
		c2.56,0,3.61-1.79,3.61-4.23c0-2.76-1.4-4.27-3.42-4.56l-0.21,3.09c0.68,0.14,1.15,0.52,1.15,1.26c0,0.8-0.45,1.15-1.22,1.15h-0.14
		l-0.43-2.58c-0.35-2-1.11-3.28-2.89-3.28c-1.57,0-2.49,1.18-2.49,2.97c0,1.46,0.56,2.51,1.63,3.05
		C762.3,377.86,761.72,378.75,761.72,379.88z M764.65,374.75c0.6,0,0.84,0.47,1.01,1.28l0.25,1.36h-0.14c-1.2,0-1.9-0.76-1.9-1.71
		C763.87,375.12,764.18,374.75,764.65,374.75z"/>
	<path d="M758.63,386.27h4.86c-1.07,0.45-1.81,1.48-1.81,3.03c0,2.7,2.12,4.08,4.84,4.08c2.7,0,4.84-1.38,4.84-4.08
		c0-1.55-0.74-2.58-1.83-3.03h1.59v-3.34h-12.49V386.27z M766.46,386.27h0.12c1.32,0,2.18,0.72,2.18,1.86c0,1.3-0.93,1.9-2.25,1.9
		c-1.34,0-2.27-0.6-2.27-1.9C764.26,386.99,765.12,386.27,766.46,386.27z"/>
	<rect x="761.93" y="394.7" width="9.19" height="3.34"/>
	<rect x="771.99" y="394.68" width="2.93" height="3.38"/>
	<path d="M773.66,401.38l-1.2-0.31c-0.85-0.23-1.34-0.52-1.48-1.44l-0.1-0.68h-2.06v1.24h-4.33c-2.16,0-2.8,1.46-2.8,3.01
		c0,1.26,0.31,2.06,0.82,2.76h2.16c-0.23-0.56-0.31-1.01-0.31-1.42c0-0.68,0.31-1.05,1.09-1.05h3.36v2.39h2.31v-2.39h2.54V401.38z"
		/>
	<path d="M764.63,415.82h3.13c2.56,0,3.61-1.79,3.61-4.23c0-2.76-1.4-4.27-3.42-4.56l-0.21,3.09c0.68,0.14,1.15,0.52,1.15,1.26
		c0,0.8-0.45,1.15-1.22,1.15h-0.14l-0.43-2.58c-0.35-2-1.11-3.28-2.89-3.28c-1.57,0-2.49,1.18-2.49,2.97c0,1.46,0.56,2.51,1.63,3.05
		c-1.05,0.31-1.63,1.2-1.63,2.33c0,0.95,0.27,1.61,0.6,2.08h1.77c-0.1-0.27-0.14-0.47-0.14-0.74
		C763.95,416.03,764.16,415.82,764.63,415.82z M763.87,410.84c0-0.56,0.31-0.93,0.78-0.93c0.6,0,0.84,0.47,1.01,1.28l0.25,1.36
		h-0.14C764.57,412.55,763.87,411.78,763.87,410.84z"/>
	<rect x="761.93" y="418.09" width="12.99" height="3.34"/>
	<rect x="771.99" y="423.22" width="2.93" height="3.38"/>
	<rect x="761.93" y="423.24" width="9.19" height="3.34"/>
	<path d="M768.26,427.92c-1.88,0-2.6,1.18-2.95,3.4l-0.21,1.36c-0.1,0.64-0.35,0.85-0.7,0.85c-0.37,0-0.64-0.39-0.64-1.13
		c0-1.01,0.43-1.63,1.2-1.75l-0.04-2.91c-2.23,0.19-3.24,2.08-3.24,4.62c0,2.62,1.11,4.27,3.05,4.27c1.79,0,2.72-1.2,3.05-3.26
		l0.31-1.79c0.04-0.31,0.21-0.56,0.51-0.56c0.41,0,0.66,0.37,0.66,1.01c0,1.03-0.41,1.61-1.07,1.73l0.08,2.74
		c1.92-0.19,3.09-1.75,3.09-4.41C771.37,429.51,770.07,427.92,768.26,427.92z"/>
	<path d="M771.37,444.1c0-1.38-0.62-2.37-1.63-2.87h1.38v-3.34h-9.19v3.34h4.51c1.38,0,2.29,0.39,2.29,1.48
		c0,1.01-0.66,1.26-1.92,1.26h-4.89v3.34h4.51c1.38,0,2.29,0.37,2.29,1.48c0,1.01-0.66,1.24-1.92,1.24h-4.89v3.34h5.77
		c1.92,0,3.67-0.74,3.67-3.28c0-1.55-0.78-2.64-1.81-3.13C770.63,446.58,771.37,445.73,771.37,444.1z"/>
	<rect x="761.93" y="458.63" width="12.99" height="3.5"/>
	<path d="M764.96,466.28l-0.04-2.91c-2.23,0.19-3.24,2.08-3.24,4.62c0,2.62,1.11,4.27,3.05,4.27c1.79,0,2.72-1.2,3.05-3.26
		l0.31-1.79c0.04-0.31,0.21-0.56,0.51-0.56c0.41,0,0.66,0.37,0.66,1.01c0,1.03-0.41,1.61-1.07,1.73l0.08,2.74
		c1.92-0.19,3.09-1.75,3.09-4.41c0-2.58-1.3-4.16-3.11-4.16c-1.88,0-2.6,1.18-2.95,3.4l-0.21,1.36c-0.1,0.64-0.35,0.85-0.7,0.85
		c-0.37,0-0.64-0.39-0.64-1.13C763.76,467.02,764.2,466.4,764.96,466.28z"/>
	<path d="M761.93,479.61l2.51,0.97v5.07l-2.51,0.97v3.73l12.99-5.17v-3.92l-12.99-5.17V479.61z M767.06,481.59l3.83,1.48v0.08
		l-3.83,1.48V481.59z"/>
	<polygon points="761.93,500.88 774.92,505.87 774.92,502.39 766.28,499.17 766.28,499.09 774.92,495.87 774.92,492.2 
		761.93,497.19 	"/>
	<rect x="771.99" y="506.76" width="2.93" height="3.38"/>
	<rect x="761.93" y="506.78" width="9.19" height="3.34"/>
	<path d="M769.49,515.27h1.63v-3.34h-9.19v3.34h4.21c1.55,0,2.12,0.76,2.12,2c0,0.64-0.12,1.13-0.39,1.59l3.15,0.21
		c0.19-0.23,0.35-0.72,0.35-1.28C771.37,516.57,770.53,515.6,769.49,515.27z"/>
	<path d="M766.22,523.33h4.91v-3.34h-5.79c-1.92,0-3.65,0.76-3.65,3.28c0,1.38,0.6,2.39,1.63,2.89h-1.38v3.34h9.19v-3.34h-4.51
		c-1.4,0-2.31-0.41-2.31-1.46C764.3,523.68,764.98,523.33,766.22,523.33z"/>
	<path d="M768.26,530.83c-1.88,0-2.6,1.18-2.95,3.4l-0.21,1.36c-0.1,0.64-0.35,0.85-0.7,0.85c-0.37,0-0.64-0.39-0.64-1.13
		c0-1.01,0.43-1.63,1.2-1.75l-0.04-2.91c-2.23,0.19-3.24,2.08-3.24,4.62c0,2.62,1.11,4.27,3.05,4.27c1.79,0,2.72-1.2,3.05-3.26
		l0.31-1.79c0.04-0.31,0.21-0.56,0.51-0.56c0.41,0,0.66,0.37,0.66,1.01c0,1.03-0.41,1.61-1.07,1.73l0.08,2.74
		c1.92-0.19,3.09-1.75,3.09-4.41C771.37,532.42,770.07,530.83,768.26,530.83z"/>
	<rect x="761.93" y="542.37" width="3.55" height="3.55"/>
	<path d="M766.53,548.8c-2.87,0-4.84,2.02-4.84,5.03c0,2.99,1.98,5.03,4.84,5.03c2.85,0,4.84-2.04,4.84-5.03
		C771.37,550.82,769.37,548.8,766.53,548.8z M766.53,555.5c-1.38,0-2.33-0.52-2.33-1.67c0-1.17,0.95-1.67,2.33-1.67
		c1.38,0,2.33,0.49,2.33,1.67C768.86,554.98,767.91,555.5,766.53,555.5z"/>
	<path d="M771.02,567.31c0.19-0.23,0.35-0.72,0.35-1.28c0-1.22-0.84-2.19-1.88-2.51h1.63v-3.34h-9.19v3.34h4.21
		c1.55,0,2.12,0.76,2.12,2c0,0.64-0.12,1.13-0.39,1.59L771.02,567.31z"/>
	<path d="M770.63,575.39c0.47-0.78,0.74-1.83,0.74-2.95c0-2.58-1.2-4.43-3.15-4.43c-1.01,0-1.79,0.49-2.33,1.32
		c-0.37-0.99-1.05-1.57-1.94-1.57c-0.78,0-1.53,0.49-1.79,1.32c-0.08-1.03-0.72-1.75-1.53-1.75c-1.73,0-2.25,2.27-2.25,4.89
		c0,2.99,1.05,5.77,3.34,5.77c1.55,0,2.64-1.05,2.64-3.13v-3.81c0-0.56,0.25-0.78,0.56-0.78c0.19,0,0.33,0.06,0.43,0.19
		c-0.19,0.6-0.27,1.26-0.27,2c0,2.6,1.2,4.47,3.13,4.47c0.43,0,0.83-0.1,1.17-0.29c0.1,0.45,0.14,0.95,0.14,1.34h2.52
		C772.05,576.96,771.39,575.95,770.63,575.39z M761.52,574.07c0,0.56-0.14,0.85-0.54,0.85c-0.56,0-0.87-1.13-0.87-2.68
		c0-1.24,0.18-2.16,0.84-2.16c0.35,0,0.56,0.25,0.56,0.62V574.07z M768.22,573.45c-0.82,0-1.34-0.41-1.34-0.97
		c0-0.56,0.52-0.97,1.34-0.97c0.8,0,1.32,0.41,1.32,0.97C769.54,573.04,769.02,573.45,768.22,573.45z"/>
</g>
<g id="exp_white_bg" class="st0">
	<g class="st2">
		<path class="st5" d="M0,612h196.13c-0.51-0.85-0.82-1.84-0.84-2.9c-1-47.96,2.67-94.96,5.62-132.72
			c3.19-40.87,5.95-76.16,0.27-86.37c-1.47-2.64-4.33-6.63-7.64-11.24c-9.5-13.25-21.33-29.75-22.01-43.11
			c-0.81-15.73,13.89-36.78,26.79-53.35l0.85-1.1c6.11-7.88,12.04-10.74,16.94-11.36l18.37-30.35c5.4-8.93,17.35-11.62,26.63-6
			c3.13,1.9,5.55,4.51,7.19,7.47c1.78-1.08,3.74-1.89,5.86-2.35c4.98-1.08,10.17-0.19,14.61,2.5c4.44,2.69,7.63,6.88,8.99,11.79
			c0.57,2.07,0.77,4.15,0.64,6.2c3.42,0.1,6.8,1.08,9.84,2.92c4.44,2.69,7.63,6.88,8.99,11.79c0.58,2.09,0.77,4.21,0.64,6.28
			c3.39,0.08,6.82,1.01,9.95,2.91c9.28,5.62,12.43,17.45,7.03,26.38l-13.81,22.81c5.32,43.1-12.35,59.36-22.1,68.32
			c-11.74,10.78-8.89,56.13-5.6,108.63c1.89,30.06,4.02,64.14,4.17,99.82c0,1.12-0.31,2.16-0.85,3.05h181.47
			c-0.51-0.85-0.82-1.84-0.84-2.9c-1-47.96,2.67-94.96,5.62-132.72c3.19-40.87,5.95-76.16,0.27-86.37
			c-1.47-2.64-4.33-6.63-7.64-11.24c-9.5-13.25-21.33-29.75-22.01-43.11c-0.81-15.73,13.89-36.78,26.79-53.35l0.85-1.1
			c6.11-7.88,12.03-10.74,16.94-11.36l18.37-30.35c5.4-8.93,17.35-11.62,26.63-6c3.13,1.9,5.55,4.51,7.19,7.47
			c1.78-1.08,3.74-1.89,5.86-2.35c4.98-1.08,10.17-0.19,14.61,2.5c4.44,2.69,7.63,6.88,8.99,11.79c0.57,2.07,0.77,4.15,0.64,6.2
			c3.42,0.1,6.8,1.08,9.84,2.92c4.44,2.69,7.63,6.88,8.99,11.79c0.58,2.09,0.77,4.21,0.64,6.28c3.39,0.08,6.82,1.01,9.95,2.91
			c9.28,5.62,12.43,17.45,7.03,26.38l-13.81,22.81c5.32,43.1-12.35,59.36-22.1,68.32c-11.74,10.78-8.89,56.13-5.6,108.63
			c1.89,30.06,4.02,64.14,4.17,99.82c0,1.12-0.31,2.16-0.85,3.05H792V-612H0V612z M248.55-273.23v-147.69h37.98l57.67,81.81v-81.81
			h36.57v147.69h-31.88l-63.76-87.44v87.44H248.55z M363.43-558.98l15.47,58.75h0.59l14.87-58.75h24.39l-24.54,93.71h-26.92
			l-15.62-59.2h-0.59l-15.62,59.2h-26.48l-24.54-93.71h25.29l14.88,58.75h0.59l15.47-58.75H363.43z M349.97-588.45v-9.19h3.34v9.19
			H349.97z M378.52-588.45v-9.19h3.34v9.19H378.52z M489.86-498.44c0,20.68-14.73,34.95-36.29,34.95
			c-21.72,0-36.29-14.28-36.29-34.95c0-20.53,14.58-34.95,36.29-34.95C475.13-533.39,489.86-518.96,489.86-498.44z M462.05-588.45
			v-9.19h3.34v9.19H462.05z M387.87-21.17l1.79,0.31c2.06,0.33,3.26,1.26,3.26,3.05c0,1.94-1.65,3.05-4.27,3.05
			c-2.54,0-4.43-1.01-4.62-3.24l2.91-0.04c0.12,0.76,0.74,1.2,1.75,1.2c0.74,0,1.13-0.27,1.13-0.64c0-0.35-0.21-0.6-0.85-0.7
			l-1.36-0.21c-2.23-0.35-3.4-1.07-3.4-2.95c0-1.81,1.59-3.11,4.16-3.11c2.66,0,4.23,1.18,4.41,3.09l-2.74,0.08
			c-0.12-0.66-0.7-1.07-1.73-1.07c-0.64,0-1.01,0.25-1.01,0.66C387.32-21.38,387.56-21.21,387.87-21.17z M379.53-25.07v-2.93h3.38
			v2.93H379.53z M382.89-24.2v9.19h-3.34v-9.19H382.89z M377.73-27.99v12.99h-3.34v-12.99H377.73z M367.7-21.97
			c-0.74,0-1.11,0.47-1.26,1.15l-3.09-0.21c0.29-2.02,1.79-3.42,4.56-3.42c2.43,0,4.23,1.05,4.23,3.61v3.13
			c0,0.47,0.21,0.68,0.56,0.68c0.27,0,0.47-0.04,0.74-0.14v1.77c-0.47,0.33-1.13,0.6-2.08,0.6c-1.13,0-2.02-0.58-2.33-1.63
			c-0.54,1.07-1.59,1.63-3.05,1.63c-1.79,0-2.97-0.93-2.97-2.49c0-1.77,1.28-2.54,3.28-2.89l2.58-0.43v-0.14
			C368.85-21.52,368.5-21.97,367.7-21.97z M254.76-71.34v-147.69h114.16v32.82h-75.01v24.15h57.9v32.35h-57.9v25.55h77.12v32.82
			H254.76z M355.25-21.89v-2.06l0.68-0.1c0.93-0.14,1.22-0.64,1.44-1.48l0.31-1.2h2.1v2.54h2.39v2.31h-2.39v3.36
			c0,0.78,0.37,1.09,1.05,1.09c0.41,0,0.87-0.08,1.42-0.31v2.16c-0.7,0.52-1.5,0.82-2.76,0.82c-1.55,0-3.01-0.64-3.01-2.8v-4.33
			H355.25z M350.98-25.07v-2.93h3.38v2.93H350.98z M354.34-24.2v9.19H351v-9.19H354.34z M345.6-24.45c2.7,0,4.08,2.14,4.08,4.84
			c0,2.72-1.38,4.84-4.08,4.84c-1.55,0-2.58-0.74-3.03-1.81v4.87h-3.34V-24.2h3.34v1.59C343.03-23.71,344.06-24.45,345.6-24.45z
			 M332.54-21.97c-0.74,0-1.11,0.47-1.26,1.15l-3.09-0.21c0.29-2.02,1.79-3.42,4.56-3.42c2.43,0,4.23,1.05,4.23,3.61v3.13
			c0,0.47,0.21,0.68,0.56,0.68c0.27,0,0.47-0.04,0.74-0.14v1.77c-0.47,0.33-1.13,0.6-2.08,0.6c-1.13,0-2.02-0.58-2.33-1.63
			c-0.54,1.07-1.59,1.63-3.05,1.63c-1.79,0-2.97-0.93-2.97-2.49c0-1.77,1.28-2.54,3.28-2.89l2.58-0.43v-0.14
			C333.69-21.52,333.34-21.97,332.54-21.97z M320.73-17.87c2.02,0,2.8-1.34,3.01-2.78l3.36,0.14c-0.25,3.24-2.37,5.75-6.35,5.75
			c-3.79,0-6.66-2.74-6.66-6.74c0-4,2.87-6.74,6.66-6.74c3.98,0,6.1,2.54,6.35,5.77l-3.36,0.12c-0.21-1.44-0.99-2.78-3.01-2.78
			c-1.92,0-3.03,1.42-3.03,3.63C317.7-19.29,318.81-17.87,320.73-17.87z M311.03-22.51h-1.88l-0.5,2.02h1.98l-0.43,2.06h-2.04
			l-0.8,3.42h-2.49l0.8-3.42h-1.77l-0.8,3.42h-2.49l0.8-3.42h-1.81l0.43-2.06h1.88l0.5-2.02h-1.98l0.43-2.06h2.02l0.83-3.42h2.49
			l-0.83,3.42h1.77l0.82-3.42h2.49l-0.82,3.42h1.83L311.03-22.51z M475.84,189.48l-13.81,22.81c5.32,43.1-12.35,59.36-22.1,68.32
			c-10.46,9.6-8.51,50.46-5.28,118.15c2.37,49.72,5.62,117.83,5.62,205.32c0,3.24-2.63,5.87-5.87,5.87c-2.6,0-4.79-1.69-5.57-4.02
			c-0.19-0.58-0.3-1.2-0.3-1.84c0-87.22-3.24-155.16-5.61-204.77c-3.73-78.3-5.44-114.03,9.06-127.35
			c7.3-6.71,18.47-16.98,19.24-41.85l-0.16,0.27c-2.65,4.38-6.92,7.4-12.02,8.5c-1.38,0.3-2.78,0.45-4.17,0.45
			c-3.63,0-7.23-1-10.44-2.95c-4.44-2.69-7.63-6.88-8.99-11.79c0-0.01,0-0.02-0.01-0.04c-1.37,0.3-2.77,0.46-4.19,0.46
			c-3,0-6.05-0.69-8.91-2.1c1.47,3.62,2.43,7.15,3.04,10.39c2.55,13.51-0.3,24.77-0.42,25.24c-0.81,3.14-4.02,5.02-7.15,4.21
			c-3.13-0.81-5.01-4-4.21-7.13c0.38-1.48,8.8-36.53-25.97-50.96c-1.56-0.65-2.77-1.94-3.31-3.54c-0.54-1.6-0.36-3.36,0.49-4.82
			c1.93-3.32,4.22-7.27,4.22-7.27c1.49-2.57,4.66-3.62,7.39-2.45c0.26,0.1,7.54,2.98,14.25-1.39c3.29-2.14,5.34-4.47,6.59-6.38
			c-9.95-4.75-31.35-14.94-35.8-16.78c-3.52-1.46-7.58,0.73-12.05,6.49l-0.87,1.11c-25.02,32.16-24.51,42.24-24.34,45.55
			c0.51,9.93,12.14,26.15,19.83,36.88c3.52,4.91,6.56,9.14,8.35,12.37c7.23,12.99,5.67,52.42,1.76,133.26
			c-2.75,56.85-6.17,127.6-6.17,206.41c0,0.65-0.11,1.26-0.3,1.84c-0.77,2.34-2.97,4.02-5.57,4.02c-3.24,0-5.87-2.63-5.87-5.87
			c0-79.1,3.43-150,6.18-206.98c3.14-65.01,5.62-116.35-0.3-126.99c-1.47-2.65-4.33-6.63-7.64-11.24
			c-9.5-13.25-21.33-29.75-22.01-43.11c-0.81-15.73,13.89-36.78,26.79-53.35l0.85-1.1c6.11-7.88,12.03-10.74,16.94-11.36
			l18.37-30.35c5.4-8.92,17.35-11.62,26.63-6c3.13,1.9,5.55,4.51,7.19,7.47c1.78-1.08,3.74-1.89,5.86-2.35
			c4.98-1.08,10.17-0.19,14.61,2.5c4.44,2.69,7.63,6.88,8.99,11.79c0.57,2.07,0.77,4.15,0.64,6.2c3.42,0.1,6.8,1.08,9.84,2.92
			c4.44,2.69,7.63,6.88,8.99,11.79c0.58,2.09,0.77,4.21,0.64,6.28c3.39,0.08,6.82,1.01,9.95,2.91
			C478.09,168.72,481.25,180.56,475.84,189.48z M400.41-24.45c1.63,0,2.47,0.74,2.87,1.81c0.49-1.03,1.59-1.81,3.13-1.81
			c2.54,0,3.28,1.75,3.28,3.67v5.77h-3.34v-4.89c0-1.26-0.23-1.92-1.24-1.92c-1.11,0-1.48,0.91-1.48,2.29v4.51h-3.34v-4.89
			c0-1.26-0.25-1.92-1.26-1.92c-1.09,0-1.48,0.91-1.48,2.29v4.51h-3.34v-9.19h3.34v1.38C398.04-23.83,399.02-24.45,400.41-24.45z
			 M413.27-15.01v-12.99h3.5v12.99H413.27z M422.96-18.18l-1.36-0.21c-2.23-0.35-3.4-1.07-3.4-2.95c0-1.81,1.59-3.11,4.16-3.11
			c2.66,0,4.23,1.18,4.41,3.09l-2.74,0.08c-0.12-0.66-0.7-1.07-1.73-1.07c-0.64,0-1.01,0.25-1.01,0.66c0,0.31,0.25,0.47,0.56,0.52
			l1.79,0.31c2.06,0.33,3.26,1.26,3.26,3.05c0,1.94-1.65,3.05-4.27,3.05c-2.54,0-4.43-1.01-4.62-3.24l2.91-0.04
			c0.12,0.76,0.74,1.2,1.75,1.2c0.74,0,1.13-0.27,1.13-0.64C423.8-17.83,423.6-18.08,422.96-18.18z M429.07-15.01l5.17-12.99h3.92
			l5.17,12.99h-3.73l-0.97-2.51h-5.07l-0.97,2.51H429.07z M445.13-27.99h3.67l3.22,8.64h0.08l3.22-8.64h3.48l-4.99,12.99h-3.69
			L445.13-27.99z M459.68-25.07v-2.93h3.38v2.93H459.68z M463.04-24.2v9.19h-3.34v-9.19H463.04z M470.71-24.45
			c0.56,0,1.05,0.17,1.28,0.35l-0.21,3.15c-0.45-0.27-0.95-0.39-1.59-0.39c-1.24,0-2,0.58-2,2.12v4.21h-3.34v-9.19h3.34v1.63
			C468.52-23.6,469.49-24.45,470.71-24.45z M482.41-15.01h-3.34v-1.38c-0.49,1.03-1.5,1.63-2.89,1.63c-2.51,0-3.28-1.73-3.28-3.65
			v-5.79h3.34v4.91c0,1.24,0.35,1.92,1.36,1.92c1.05,0,1.46-0.91,1.46-2.31v-4.51h3.34V-15.01z M488.18-14.76
			c-2.54,0-4.43-1.01-4.62-3.24l2.91-0.04c0.12,0.76,0.74,1.2,1.75,1.2c0.74,0,1.13-0.27,1.13-0.64c0-0.35-0.21-0.6-0.85-0.7
			l-1.36-0.21c-2.23-0.35-3.4-1.07-3.4-2.95c0-1.81,1.59-3.11,4.16-3.11c2.66,0,4.23,1.18,4.41,3.09l-2.74,0.08
			c-0.12-0.66-0.7-1.07-1.73-1.07c-0.64,0-1.01,0.25-1.01,0.66c0,0.31,0.25,0.47,0.56,0.52l1.79,0.31c2.06,0.33,3.26,1.26,3.26,3.05
			C492.45-15.87,490.8-14.76,488.18-14.76z M521.06-71.34h-31.88l-63.76-87.44v87.44h-36.57v-147.69h37.98l57.67,81.81v-81.81h36.57
			V-71.34z M473.36-270.42c-42.9,0-76.66-31.18-76.66-76.66c0-45.48,33.76-76.66,76.66-76.66c42.9,0,76.66,31.18,76.66,76.66
			C550.01-301.6,516.26-270.42,473.36-270.42z M588.81-71.34V-186.2h-50.63v-32.82h141.59v32.82h-51.34v114.87H588.81z
			 M660.01-465.27v-25.58h25.58v25.58H660.01z M769.54,577.97c0-0.39-0.04-0.89-0.14-1.34c-0.35,0.19-0.74,0.29-1.17,0.29
			c-1.94,0-3.13-1.88-3.13-4.47c0-0.74,0.08-1.4,0.27-2c-0.1-0.12-0.25-0.19-0.43-0.19c-0.31,0-0.56,0.23-0.56,0.78v3.81
			c0,2.08-1.09,3.13-2.64,3.13c-2.29,0-3.34-2.78-3.34-5.77c0-2.62,0.52-4.89,2.25-4.89c0.8,0,1.44,0.72,1.53,1.75
			c0.27-0.82,1.01-1.32,1.79-1.32c0.89,0,1.57,0.58,1.94,1.57c0.54-0.82,1.32-1.32,2.33-1.32c1.96,0,3.15,1.86,3.15,4.43
			c0,1.11-0.27,2.16-0.74,2.95c0.76,0.56,1.42,1.57,1.42,2.58H769.54z M761.72,374.5c0-1.79,0.93-2.97,2.49-2.97
			c1.77,0,2.54,1.28,2.89,3.28l0.43,2.58h0.14c0.76,0,1.22-0.35,1.22-1.15c0-0.74-0.47-1.11-1.15-1.26l0.21-3.09
			c2.02,0.29,3.42,1.79,3.42,4.56c0,2.43-1.05,4.23-3.61,4.23h-3.13c-0.47,0-0.68,0.21-0.68,0.56c0,0.27,0.04,0.47,0.14,0.74h-1.77
			c-0.33-0.47-0.6-1.13-0.6-2.08c0-1.13,0.58-2.02,1.63-2.33C762.28,377.01,761.72,375.96,761.72,374.5z M764.09,417.12h-1.77
			c-0.33-0.47-0.6-1.13-0.6-2.08c0-1.13,0.58-2.02,1.63-2.33c-1.07-0.54-1.63-1.59-1.63-3.05c0-1.79,0.93-2.97,2.49-2.97
			c1.77,0,2.54,1.28,2.89,3.28l0.43,2.58h0.14c0.76,0,1.22-0.35,1.22-1.15c0-0.74-0.47-1.11-1.15-1.26l0.21-3.09
			c2.02,0.29,3.42,1.79,3.42,4.56c0,2.43-1.05,4.23-3.61,4.23h-3.13c-0.47,0-0.68,0.21-0.68,0.56
			C763.95,416.65,763.99,416.86,764.09,417.12z M771.37,450.1c0,2.54-1.75,3.28-3.67,3.28h-5.77v-3.34h4.89
			c1.26,0,1.92-0.23,1.92-1.24c0-1.11-0.91-1.48-2.29-1.48h-4.51v-3.34h4.89c1.26,0,1.92-0.25,1.92-1.26c0-1.09-0.91-1.48-2.29-1.48
			h-4.51v-3.34h9.19v3.34h-1.38c1.01,0.49,1.63,1.48,1.63,2.87c0,1.63-0.74,2.47-1.81,2.87
			C770.59,447.46,771.37,448.55,771.37,450.1z M768.28,436.5l-0.08-2.74c0.66-0.12,1.07-0.7,1.07-1.73c0-0.64-0.25-1.01-0.66-1.01
			c-0.31,0-0.47,0.25-0.51,0.56l-0.31,1.79c-0.33,2.06-1.26,3.26-3.05,3.26c-1.94,0-3.05-1.65-3.05-4.27c0-2.54,1.01-4.43,3.24-4.62
			l0.04,2.91c-0.76,0.12-1.2,0.74-1.2,1.75c0,0.74,0.27,1.13,0.64,1.13c0.35,0,0.6-0.21,0.7-0.85l0.21-1.36
			c0.35-2.23,1.07-3.4,2.95-3.4c1.81,0,3.11,1.59,3.11,4.16C771.37,434.74,770.2,436.31,768.28,436.5z M764.4,469.16
			c0.35,0,0.6-0.21,0.7-0.85l0.21-1.36c0.35-2.23,1.07-3.4,2.95-3.4c1.81,0,3.11,1.59,3.11,4.16c0,2.66-1.17,4.23-3.09,4.41
			l-0.08-2.74c0.66-0.12,1.07-0.7,1.07-1.73c0-0.64-0.25-1.01-0.66-1.01c-0.31,0-0.47,0.25-0.51,0.56l-0.31,1.79
			c-0.33,2.06-1.26,3.26-3.05,3.26c-1.94,0-3.05-1.65-3.05-4.27c0-2.54,1.01-4.43,3.24-4.62l0.04,2.91c-0.76,0.12-1.2,0.74-1.2,1.75
			C763.76,468.77,764.03,469.16,764.4,469.16z M766.13,563.52h-4.21v-3.34h9.19v3.34h-1.63c1.03,0.33,1.88,1.3,1.88,2.51
			c0,0.56-0.17,1.05-0.35,1.28l-3.15-0.21c0.27-0.45,0.39-0.95,0.39-1.59C768.26,564.28,767.68,563.52,766.13,563.52z
			 M766.53,558.86c-2.87,0-4.84-2.04-4.84-5.03c0-3.01,1.98-5.03,4.84-5.03c2.85,0,4.84,2.02,4.84,5.03
			C771.37,556.82,769.37,558.86,766.53,558.86z M761.93,545.92v-3.55h3.55v3.55H761.93z M768.28,539.4l-0.08-2.74
			c0.66-0.12,1.07-0.7,1.07-1.73c0-0.64-0.25-1.01-0.66-1.01c-0.31,0-0.47,0.25-0.51,0.56l-0.31,1.79
			c-0.33,2.06-1.26,3.26-3.05,3.26c-1.94,0-3.05-1.65-3.05-4.27c0-2.54,1.01-4.43,3.24-4.62l0.04,2.91c-0.76,0.12-1.2,0.74-1.2,1.75
			c0,0.74,0.27,1.13,0.64,1.13c0.35,0,0.6-0.21,0.7-0.85l0.21-1.36c0.35-2.23,1.07-3.4,2.95-3.4c1.81,0,3.11,1.59,3.11,4.16
			C771.37,537.65,770.2,539.22,768.28,539.4z M766.61,526.15h4.51v3.34h-9.19v-3.34h1.38c-1.03-0.49-1.63-1.5-1.63-2.89
			c0-2.52,1.73-3.28,3.65-3.28h5.79v3.34h-4.91c-1.24,0-1.92,0.35-1.92,1.36C764.3,525.74,765.21,526.15,766.61,526.15z
			 M771.02,519.06l-3.15-0.21c0.27-0.45,0.39-0.95,0.39-1.59c0-1.24-0.58-2-2.12-2h-4.21v-3.34h9.19v3.34h-1.63
			c1.03,0.33,1.88,1.3,1.88,2.51C771.37,518.34,771.21,518.83,771.02,519.06z M771.12,510.12h-9.19v-3.34h9.19V510.12z
			 M771.12,426.58h-9.19v-3.34h9.19V426.58z M771.12,403.48v2.39h-2.31v-2.39h-3.36c-0.78,0-1.09,0.37-1.09,1.05
			c0,0.41,0.08,0.87,0.31,1.42h-2.16c-0.52-0.7-0.82-1.5-0.82-2.76c0-1.55,0.64-3.01,2.8-3.01h4.33v-1.24h2.06l0.1,0.68
			c0.14,0.93,0.64,1.22,1.48,1.44l1.2,0.31v2.1H771.12z M761.93,398.04v-3.34h9.19v3.34H761.93z M771.12,382.93v3.34h-1.59
			c1.09,0.45,1.83,1.48,1.83,3.03c0,2.7-2.14,4.08-4.84,4.08c-2.72,0-4.84-1.38-4.84-4.08c0-1.55,0.74-2.58,1.81-3.03h-4.86v-3.34
			H771.12z M774.92,510.14h-2.93v-3.38h2.93V510.14z M774.92,495.87l-8.64,3.22v0.08l8.64,3.22v3.48l-12.99-4.99v-3.69l12.99-4.99
			V495.87z M774.92,485.18l-12.99,5.17v-3.73l2.51-0.97v-5.07l-2.51-0.97v-3.53l12.99,5.17V485.18z M774.92,462.13h-12.99v-3.5
			h12.99V462.13z M774.92,426.6h-2.93v-3.38h2.93V426.6z M774.92,421.43h-12.99v-3.34h12.99V421.43z M774.92,398.06h-2.93v-3.38
			h2.93V398.06z M761.93,342.74l5.19-1.34v-0.08l-5.19-1.34v-3.28l9.06-2.86l-9.06-2.86v-3.28l5.19-1.34v-0.08l-5.19-1.34v-3.28
			l9.06-2.86l-9.06-2.86v-3.28l5.19-1.34v-0.08l-5.19-1.34v-3.28l9.19-2.91v3.32l-5.22,1.65v0.08l5.22,1.34v2.66l-5.22,1.34v0.08
			l5.22,1.65v2.92v0.09v3.23l-5.22,1.65v0.08l5.22,1.34v2.66l-5.22,1.34v0.08l5.22,1.65v2.92v0.09v3.23l-5.22,1.65v0.08l5.22,1.34
			v2.66l-5.22,1.34v0.08l5.22,1.65v3.01l-9.19-2.91V342.74z M761.93,351.35h3.55v3.55h-3.55V351.35z M768.42,357.78
			c4,0,6.74,2.87,6.74,6.66c0,3.98-2.54,6.1-5.77,6.35l-0.12-3.36c1.44-0.21,2.78-0.99,2.78-3.01c0-1.92-1.42-3.03-3.63-3.03
			c-2.21,0-3.63,1.11-3.63,3.03c0,2.02,1.34,2.8,2.78,3.01l-0.14,3.36c-3.24-0.25-5.75-2.37-5.75-6.35
			C761.68,360.65,764.42,357.78,768.42,357.78z M740.22,153.92c0.58,2.09,0.77,4.21,0.64,6.28c3.39,0.08,6.82,1.01,9.95,2.91
			c9.28,5.62,12.43,17.45,7.03,26.38l-13.81,22.81c5.32,43.1-12.35,59.36-22.1,68.32c-10.46,9.6-8.51,50.46-5.28,118.15
			c2.37,49.72,5.62,117.83,5.62,205.32c0,3.24-2.63,5.87-5.87,5.87c-2.6,0-4.79-1.69-5.57-4.02c-0.19-0.58-0.3-1.2-0.3-1.84
			c0-87.22-3.24-155.16-5.61-204.77c-3.73-78.3-5.44-114.03,9.06-127.35c7.3-6.71,18.47-16.98,19.24-41.85l-0.16,0.27
			c-2.65,4.38-6.92,7.4-12.02,8.5c-1.38,0.3-2.78,0.45-4.17,0.45c-3.63,0-7.23-1-10.44-2.95c-4.44-2.69-7.63-6.88-8.99-11.79
			c0-0.01,0-0.02-0.01-0.04c-1.37,0.3-2.77,0.46-4.19,0.46c-3,0-6.05-0.69-8.91-2.1c1.47,3.62,2.43,7.15,3.04,10.39
			c2.55,13.51-0.3,24.77-0.42,25.24c-0.81,3.14-4.02,5.02-7.15,4.21c-3.13-0.81-5.01-4-4.21-7.13c0.38-1.48,8.8-36.53-25.97-50.96
			c-1.56-0.65-2.77-1.94-3.31-3.54c-0.54-1.6-0.36-3.36,0.49-4.82c1.93-3.32,4.22-7.27,4.22-7.27c1.49-2.57,4.66-3.62,7.39-2.45
			c0.26,0.1,7.53,2.98,14.25-1.39c3.29-2.14,5.34-4.47,6.59-6.38c-9.95-4.75-31.35-14.94-35.8-16.78
			c-3.52-1.46-7.58,0.73-12.05,6.49l-0.87,1.11c-25.02,32.16-24.51,42.24-24.34,45.55c0.51,9.93,12.14,26.15,19.83,36.88
			c3.52,4.91,6.56,9.14,8.35,12.37c7.23,12.99,5.67,52.42,1.76,133.26c-2.75,56.85-6.17,127.6-6.17,206.41
			c0,0.65-0.11,1.26-0.3,1.84c-0.77,2.34-2.97,4.02-5.57,4.02c-3.24,0-5.87-2.63-5.87-5.87c0-79.1,3.43-150,6.18-206.98
			c3.14-65.01,5.62-116.35-0.3-126.99c-1.47-2.65-4.33-6.63-7.64-11.24c-9.5-13.25-21.33-29.75-22.01-43.11
			c-0.81-15.73,13.89-36.78,26.79-53.35l0.85-1.1c6.11-7.88,12.03-10.74,16.94-11.36l18.37-30.35c5.4-8.92,17.35-11.62,26.63-6
			c3.13,1.9,5.55,4.51,7.19,7.47c1.78-1.08,3.74-1.89,5.86-2.35c4.98-1.08,10.17-0.19,14.61,2.5c4.44,2.69,7.63,6.88,8.99,11.79
			c0.57,2.07,0.77,4.15,0.64,6.21c3.42,0.1,6.8,1.08,9.84,2.91C735.68,144.82,738.87,149.01,740.22,153.92z M692.65-71.34v-40.32
			h40.32v40.32H692.65z M732.97-181.05L725-120.57h-24.38l-7.97-60.48v-37.98h40.32V-181.05z M672.36-560.76
			c22.76,0,35.7,12.79,35.7,28.86c0,12.2-7.44,19.04-15.92,25.29c-4.76,3.57-7.29,6.4-7.59,10.11H661.2
			c0.3-7.14,3.27-13.83,9.82-19.04c5.95-4.76,10.56-8.33,10.56-15.02c0-4.76-3.12-8.78-9.37-8.78c-8.48,0-11.45,5.95-11.45,13.54
			c0,3.57,0.45,5.8,1.04,7.73l-24.69-0.74c-0.59-2.98-1.19-5.95-1.19-8.78C635.92-547.67,650.79-560.76,672.36-560.76z
			 M558.28-558.98h24.1v50.28l22.76-22.91h28.26l-27.37,26.03l28.26,40.31h-27.07l-19.04-26.92l-5.8,5.95v20.97h-24.1V-558.98z
			 M550.84-530.86l-1.49,22.76c-3.27-1.93-6.84-2.83-11.45-2.83c-8.92,0-14.43,4.17-14.43,15.32v30.34h-24.1v-66.34h24.1v11.75
			c2.38-7.44,9.37-13.54,18.15-13.54C545.63-533.39,549.2-532.2,550.84-530.86z M523.04-590.47c0-0.89,0.58-1.57,1.57-1.94
			c-0.82-0.54-1.32-1.32-1.32-2.33c0-1.96,1.86-3.15,4.43-3.15c1.11,0,2.16,0.27,2.95,0.74c0.56-0.76,1.57-1.42,2.58-1.42v2.51
			c-0.39,0-0.89,0.04-1.34,0.14c0.19,0.35,0.29,0.74,0.29,1.17c0,1.94-1.88,3.13-4.47,3.13c-0.74,0-1.4-0.08-2-0.27
			c-0.12,0.1-0.19,0.25-0.19,0.43c0,0.31,0.23,0.56,0.78,0.56h3.81c2.08,0,3.13,1.09,3.13,2.64c0,2.29-2.78,3.34-5.77,3.34
			c-2.62,0-4.89-0.52-4.89-2.25c0-0.8,0.72-1.44,1.75-1.53C523.53-588.94,523.04-589.68,523.04-590.47z M515.45-597.64h3.34v1.63
			c0.33-1.03,1.3-1.88,2.52-1.88c0.56,0,1.05,0.16,1.28,0.35l-0.21,3.15c-0.45-0.27-0.95-0.39-1.59-0.39c-1.24,0-2,0.58-2,2.12v4.21
			h-3.34V-597.64z M509.1-597.89c2.99,0,5.03,2,5.03,4.84c0,2.87-2.04,4.84-5.03,4.84c-3.01,0-5.03-1.98-5.03-4.84
			C504.07-595.89,506.09-597.89,509.1-597.89z M497.64-591.99h3.55v3.55h-3.55V-591.99z M490.87-591.62l-1.36-0.21
			c-2.23-0.35-3.4-1.07-3.4-2.95c0-1.81,1.59-3.11,4.16-3.11c2.66,0,4.23,1.18,4.41,3.09l-2.74,0.08c-0.12-0.66-0.7-1.07-1.73-1.07
			c-0.64,0-1.01,0.25-1.01,0.66c0,0.31,0.25,0.47,0.56,0.52l1.79,0.31c2.06,0.33,3.26,1.26,3.26,3.05c0,1.94-1.65,3.05-4.27,3.05
			c-2.54,0-4.43-1.01-4.62-3.24l2.91-0.04c0.12,0.76,0.74,1.2,1.75,1.2c0.74,0,1.13-0.27,1.13-0.64
			C491.71-591.27,491.5-591.52,490.87-591.62z M475.26-597.64h3.34v4.91c0,1.24,0.35,1.92,1.36,1.92c1.05,0,1.46-0.91,1.46-2.31
			v-4.51h3.34v9.19h-3.34v-1.38c-0.5,1.03-1.5,1.63-2.89,1.63c-2.52,0-3.28-1.73-3.28-3.65V-597.64z M467.2-597.64h3.34v1.63
			c0.33-1.03,1.3-1.88,2.51-1.88c0.56,0,1.05,0.16,1.28,0.35l-0.21,3.15c-0.45-0.27-0.95-0.39-1.59-0.39c-1.24,0-2,0.58-2,2.12v4.21
			h-3.34V-597.64z M462.03-601.43h3.38v2.93h-3.38V-601.43z M451.15-601.43l3.22,8.64h0.08l3.22-8.64h3.48l-4.99,12.99h-3.69
			l-4.99-12.99H451.15z M436.54-601.43h3.92l5.17,12.99h-3.73l-0.97-2.52h-5.07l-0.97,2.52h-3.52L436.54-601.43z M423.59-591.62
			l-1.36-0.21c-2.23-0.35-3.4-1.07-3.4-2.95c0-1.81,1.59-3.11,4.16-3.11c2.66,0,4.23,1.18,4.41,3.09l-2.74,0.08
			c-0.12-0.66-0.7-1.07-1.73-1.07c-0.64,0-1.01,0.25-1.01,0.66c0,0.31,0.25,0.47,0.56,0.52l1.79,0.31c2.06,0.33,3.26,1.26,3.26,3.05
			c0,1.94-1.65,3.05-4.27,3.05c-2.54,0-4.43-1.01-4.62-3.24l2.91-0.04c0.12,0.76,0.74,1.2,1.75,1.2c0.74,0,1.13-0.27,1.13-0.64
			C424.44-591.27,424.23-591.52,423.59-591.62z M413.91-601.43h3.5v12.99h-3.5V-601.43z M393.17-597.64h3.34v1.38
			c0.5-1.01,1.48-1.63,2.87-1.63c1.63,0,2.47,0.74,2.87,1.81c0.49-1.03,1.59-1.81,3.13-1.81c2.54,0,3.28,1.75,3.28,3.67v5.77h-3.34
			v-4.89c0-1.26-0.23-1.92-1.24-1.92c-1.11,0-1.48,0.91-1.48,2.29v4.51h-3.34v-4.89c0-1.26-0.25-1.92-1.26-1.92
			c-1.09,0-1.48,0.91-1.48,2.29v4.51h-3.34V-597.64z M387.96-591.62l-1.36-0.21c-2.23-0.35-3.4-1.07-3.4-2.95
			c0-1.81,1.59-3.11,4.16-3.11c2.66,0,4.23,1.18,4.41,3.09l-2.74,0.08c-0.12-0.66-0.7-1.07-1.73-1.07c-0.64,0-1.01,0.25-1.01,0.66
			c0,0.31,0.25,0.47,0.56,0.52l1.79,0.31c2.06,0.33,3.26,1.26,3.26,3.05c0,1.94-1.65,3.05-4.27,3.05c-2.54,0-4.43-1.01-4.62-3.24
			l2.91-0.04c0.12,0.76,0.74,1.2,1.75,1.2c0.74,0,1.13-0.27,1.13-0.64C388.8-591.27,388.6-591.52,387.96-591.62z M378.5-601.43h3.38
			v2.93h-3.38V-601.43z M373.37-601.43h3.34v12.99h-3.34V-601.43z M366.67-595.41c-0.74,0-1.11,0.47-1.26,1.15l-3.09-0.21
			c0.29-2.02,1.79-3.42,4.56-3.42c2.43,0,4.23,1.05,4.23,3.61v3.13c0,0.47,0.21,0.68,0.56,0.68c0.27,0,0.47-0.04,0.74-0.14v1.77
			c-0.47,0.33-1.13,0.6-2.08,0.6c-1.13,0-2.02-0.58-2.33-1.63c-0.54,1.07-1.59,1.63-3.05,1.63c-1.79,0-2.97-0.93-2.97-2.49
			c0-1.77,1.28-2.54,3.28-2.89l2.58-0.43v-0.14C367.82-594.96,367.47-595.41,366.67-595.41z M354.22-597.39l0.68-0.1
			c0.93-0.14,1.22-0.64,1.44-1.48l0.31-1.2h2.1v2.54h2.39v2.31h-2.39v3.36c0,0.78,0.37,1.09,1.05,1.09c0.41,0,0.87-0.08,1.42-0.31
			v2.16c-0.7,0.52-1.5,0.82-2.76,0.82c-1.55,0-3.01-0.64-3.01-2.8v-4.33h-1.24V-597.39z M349.95-601.43h3.38v2.93h-3.38V-601.43z
			 M338.2-597.64h3.34v1.59c0.45-1.09,1.48-1.83,3.03-1.83c2.7,0,4.08,2.14,4.08,4.84c0,2.72-1.38,4.84-4.08,4.84
			c-1.55,0-2.58-0.74-3.03-1.81v4.87h-3.34V-597.64z M331.51-595.41c-0.74,0-1.11,0.47-1.26,1.15l-3.09-0.21
			c0.29-2.02,1.79-3.42,4.56-3.42c2.43,0,4.23,1.05,4.23,3.61v3.13c0,0.47,0.21,0.68,0.56,0.68c0.27,0,0.47-0.04,0.74-0.14v1.77
			c-0.47,0.33-1.13,0.6-2.08,0.6c-1.13,0-2.02-0.58-2.33-1.63c-0.54,1.07-1.59,1.63-3.05,1.63c-1.79,0-2.97-0.93-2.97-2.49
			c0-1.77,1.28-2.54,3.28-2.89l2.58-0.43v-0.14C332.66-594.96,332.31-595.41,331.51-595.41z M319.72-601.68
			c3.98,0,6.1,2.54,6.35,5.77l-3.36,0.12c-0.21-1.44-0.99-2.78-3.01-2.78c-1.92,0-3.03,1.42-3.03,3.63s1.11,3.63,3.03,3.63
			c2.02,0,2.8-1.34,3.01-2.78l3.36,0.14c-0.25,3.24-2.37,5.75-6.35,5.75c-3.79,0-6.66-2.74-6.66-6.74S315.92-601.68,319.72-601.68z
			 M306.63-591.99h3.55v3.55h-3.55V-591.99z M262.3-597.64l1.65,5.22h0.08l1.34-5.22h2.66l1.34,5.22h0.08l1.65-5.22h2.92h0.09h3.23
			l1.65,5.22h0.08l1.34-5.22h2.66l1.34,5.22h0.08l1.65-5.22h2.92h0.08h3.23l1.65,5.22h0.08l1.34-5.22h2.66l1.34,5.22h0.08l1.65-5.22
			h3.01l-2.91,9.19h-3.28l-1.34-5.19h-0.08l-1.34,5.19h-3.28l-2.86-9.06l-2.86,9.06h-3.28l-1.34-5.19h-0.08l-1.34,5.19h-3.28
			l-2.86-9.06l-2.86,9.06h-3.28l-1.34-5.19h-0.08l-1.34,5.19h-3.28l-2.91-9.19H262.3z M218.41-533.39
			c21.57,0,36.29,14.43,36.29,34.95c0,20.68-14.72,34.95-36.29,34.95c-21.72,0-36.29-14.28-36.29-34.95
			C182.11-518.96,196.69-533.39,218.41-533.39z M237.19-172.14c0,21.57-13.36,35.63-31.41,37.98c15.24,3.05,24.15,11.72,25.79,28.83
			c2.11,22.04,2.81,28.6,7.74,33.99h-40.32c-3.05-3.99-4.92-13.13-6.1-28.37c-1.17-16.88-8.44-20.63-21.8-20.63h-26.49v48.99h-39.15
			v-147.69h74.55C218.2-219.02,237.19-200.97,237.19-172.14z M88.11-558.98h24.1l36.59,51.91v-51.91H172v93.71h-20.23l-40.46-55.48
			v55.48h-23.2V-558.98z M57.31,162.41l0.85-1.1c6.11-7.88,12.04-10.74,16.94-11.36l18.37-30.35c5.4-8.92,17.35-11.62,26.63-6
			c3.13,1.9,5.55,4.51,7.19,7.47c1.78-1.08,3.74-1.89,5.86-2.35c4.98-1.08,10.17-0.19,14.61,2.5c4.44,2.69,7.63,6.88,8.99,11.79
			c0.57,2.07,0.77,4.15,0.64,6.21c3.42,0.1,6.8,1.08,9.84,2.91c4.44,2.69,7.63,6.88,8.99,11.79c0.58,2.09,0.77,4.21,0.64,6.28
			c3.39,0.08,6.82,1.01,9.95,2.91c9.28,5.62,12.43,17.45,7.03,26.38l-13.81,22.81c5.32,43.1-12.35,59.36-22.1,68.32
			c-10.46,9.6-8.51,50.46-5.28,118.15c2.37,49.72,5.62,117.83,5.62,205.32c0,3.24-2.63,5.87-5.87,5.87c-2.6,0-4.79-1.69-5.57-4.02
			c-0.19-0.58-0.3-1.2-0.3-1.84c0-87.22-3.24-155.16-5.61-204.77c-3.73-78.3-5.44-114.03,9.06-127.35
			c7.3-6.71,18.47-16.98,19.24-41.85l-0.16,0.27c-2.65,4.38-6.92,7.4-12.02,8.5c-1.38,0.3-2.78,0.45-4.17,0.45
			c-3.63,0-7.23-1-10.44-2.95c-4.44-2.69-7.63-6.88-8.99-11.79c0-0.01,0-0.02-0.01-0.04c-1.37,0.3-2.77,0.46-4.19,0.46
			c-3,0-6.05-0.69-8.91-2.1c1.47,3.62,2.43,7.15,3.04,10.39c2.55,13.51-0.3,24.77-0.42,25.24c-0.82,3.14-4.02,5.02-7.15,4.21
			c-3.13-0.81-5.01-4-4.21-7.13c0.38-1.48,8.8-36.53-25.97-50.96c-1.56-0.65-2.77-1.94-3.31-3.54c-0.54-1.6-0.36-3.36,0.49-4.82
			c1.93-3.32,4.22-7.27,4.22-7.27c1.49-2.57,4.66-3.62,7.39-2.45c0.26,0.1,7.54,2.98,14.25-1.39c3.29-2.14,5.34-4.47,6.59-6.38
			c-9.95-4.75-31.35-14.94-35.8-16.78c-3.53-1.46-7.58,0.73-12.05,6.49l-0.87,1.11c-25.02,32.16-24.51,42.24-24.34,45.55
			c0.51,9.93,12.14,26.15,19.83,36.88c3.52,4.91,6.56,9.14,8.35,12.37c7.23,12.99,5.67,52.42,1.76,133.26
			c-2.75,56.85-6.17,127.6-6.17,206.41c0,0.65-0.11,1.26-0.3,1.84c-0.77,2.34-2.97,4.02-5.57,4.02c-3.24,0-5.87-2.63-5.87-5.87
			c0-79.1,3.43-150,6.18-206.98c3.14-65.01,5.62-116.35-0.3-126.99c-1.47-2.65-4.33-6.63-7.64-11.24
			c-9.5-13.25-21.33-29.75-22.01-43.11C29.71,200.03,44.41,178.98,57.31,162.41z"/>
		<path class="st5" d="M766.53,390.02c1.32,0,2.25-0.6,2.25-1.9c0-1.13-0.87-1.86-2.18-1.86h-0.12c-1.34,0-2.21,0.72-2.21,1.86
			C764.26,389.42,765.19,390.02,766.53,390.02z"/>
		<path class="st5" d="M766.53,552.16c-1.38,0-2.33,0.49-2.33,1.67c0,1.15,0.95,1.67,2.33,1.67c1.38,0,2.33-0.52,2.33-1.67
			C768.86,552.65,767.91,552.16,766.53,552.16z"/>
		<path class="st5" d="M765.76,377.39h0.14l-0.25-1.36c-0.17-0.8-0.41-1.28-1.01-1.28c-0.47,0-0.78,0.37-0.78,0.93
			C763.87,376.62,764.57,377.39,765.76,377.39z"/>
		<path class="st5" d="M768.22,571.51c-0.82,0-1.34,0.41-1.34,0.97c0,0.56,0.52,0.97,1.34,0.97c0.8,0,1.32-0.41,1.32-0.97
			C769.54,571.93,769.02,571.51,768.22,571.51z"/>
		<polygon class="st5" points="770.9,483.08 767.06,481.59 767.06,484.64 770.9,483.16 		"/>
		<path class="st5" d="M765.76,412.55h0.14l-0.25-1.36c-0.17-0.8-0.41-1.28-1.01-1.28c-0.47,0-0.78,0.37-0.78,0.93
			C763.87,411.78,764.57,412.55,765.76,412.55z"/>
		<path class="st5" d="M760.96,570.07c-0.66,0-0.84,0.93-0.84,2.16c0,1.55,0.31,2.68,0.87,2.68c0.39,0,0.54-0.29,0.54-0.85v-3.38
			C761.52,570.32,761.31,570.07,760.96,570.07z"/>
		<path class="st5" d="M709.46,216.08C709.46,216.08,709.46,216.08,709.46,216.08c-0.96,1.59-1.21,3.51-0.69,5.4
			c0.55,2.01,1.89,3.74,3.75,4.87s4.02,1.51,6.05,1.07c1.92-0.41,3.5-1.52,4.46-3.11l24.76-40.9c2.05-3.39,0.68-8-3.07-10.26
			c-1.39-0.84-2.92-1.25-4.39-1.25c-2.49,0-4.84,1.15-6.13,3.29L709.46,216.08C709.46,216.08,709.46,216.08,709.46,216.08z"/>
		<path class="st5" d="M728.91,157.04c-0.55-2.01-1.89-3.74-3.75-4.87c-1.36-0.82-2.87-1.25-4.38-1.25c-0.56,0-1.12,0.06-1.68,0.18
			c-1.47,0.32-2.74,1.04-3.69,2.08l-29.47,48.67c-0.17,0.28-0.36,0.54-0.55,0.81c-1.36,3.27,0.07,7.31,3.5,9.39
			c3.75,2.27,8.46,1.35,10.52-2.04l28.8-47.57C729.19,160.84,729.43,158.93,728.91,157.04z"/>
		<path d="M721.4,139.22c0.12-2.05-0.07-4.14-0.64-6.21c-1.35-4.91-4.55-9.1-8.99-11.79c-4.44-2.69-9.63-3.58-14.61-2.5
			c-2.12,0.46-4.08,1.27-5.86,2.35c-1.64-2.96-4.06-5.58-7.19-7.47c-9.28-5.62-21.23-2.92-26.63,6l-18.37,30.35
			c-4.9,0.62-10.83,3.48-16.94,11.36l-0.85,1.1c-12.9,16.58-27.6,37.62-26.79,53.35c0.69,13.37,12.51,29.86,22.01,43.11
			c3.31,4.61,6.17,8.6,7.64,11.24c5.92,10.64,3.44,61.98,0.3,126.99c-2.75,56.98-6.18,127.88-6.18,206.98
			c0,3.24,2.63,5.87,5.87,5.87c2.6,0,4.79-1.69,5.57-4.02c0.19-0.58,0.3-1.2,0.3-1.84c0-78.81,3.42-149.56,6.17-206.41
			c3.91-80.84,5.46-120.28-1.76-133.26c-1.8-3.23-4.84-7.47-8.35-12.37c-7.69-10.73-19.32-26.95-19.83-36.88
			c-0.17-3.31-0.69-13.39,24.34-45.55l0.87-1.11c4.47-5.77,8.53-7.95,12.05-6.49c4.45,1.84,25.85,12.03,35.8,16.78
			c-1.26,1.91-3.31,4.24-6.59,6.38c-6.72,4.38-13.99,1.5-14.25,1.39c-2.72-1.17-5.9-0.12-7.39,2.45c0,0-2.29,3.95-4.22,7.27
			c-0.85,1.46-1.03,3.22-0.49,4.82c0.54,1.6,1.75,2.89,3.31,3.54c34.77,14.43,26.34,49.48,25.97,50.96
			c-0.8,3.13,1.08,6.32,4.21,7.13c3.14,0.81,6.34-1.07,7.15-4.21c0.12-0.47,2.97-11.73,0.42-25.24c-0.61-3.24-1.57-6.77-3.04-10.39
			c2.86,1.42,5.91,2.1,8.91,2.1c1.42,0,2.82-0.16,4.19-0.46c0,0.01,0,0.02,0.01,0.04c1.35,4.91,4.55,9.1,8.99,11.79
			c3.21,1.94,6.81,2.95,10.44,2.95c1.39,0,2.79-0.15,4.17-0.45c5.1-1.1,9.37-4.12,12.02-8.5l0.16-0.27
			c-0.78,24.88-11.94,35.15-19.24,41.85c-14.5,13.32-12.79,49.05-9.06,127.35c2.37,49.61,5.61,117.55,5.61,204.77
			c0,0.65,0.11,1.26,0.3,1.84c0.77,2.34,2.97,4.02,5.57,4.02c3.24,0,5.87-2.63,5.87-5.87c0-87.5-3.25-155.6-5.62-205.32
			c-3.23-67.69-5.18-108.55,5.28-118.15c9.75-8.96,27.42-25.22,22.1-68.32l13.81-22.81c5.4-8.93,2.25-20.76-7.03-26.38
			c-3.13-1.9-6.57-2.83-9.95-2.91c0.13-2.07-0.06-4.19-0.64-6.28c-1.35-4.91-4.55-9.1-8.99-11.79
			C728.2,140.3,724.82,139.32,721.4,139.22z M651.22,152.59l16.29-26.91c1.29-2.13,3.63-3.29,6.13-3.29c1.47,0,3,0.4,4.39,1.25
			c3.75,2.27,5.12,6.87,3.07,10.26l-15.4,25.43C660.1,156.69,654.74,154.19,651.22,152.59z M676.36,164.39l18.82-31.08
			c0.96-1.59,2.55-2.69,4.46-3.11c0.55-0.12,1.12-0.18,1.68-0.18c1.51,0,3.02,0.43,4.38,1.25c1.87,1.13,3.2,2.86,3.75,4.87
			c0.52,1.89,0.28,3.81-0.69,5.4l-18.1,29.9c-0.36-0.3-0.75-0.58-1.19-0.79C688.89,170.37,683.3,167.69,676.36,164.39z
			 M699.42,210.01c-2.05,3.39-6.77,4.31-10.52,2.04c-3.43-2.08-4.87-6.12-3.5-9.39c0.18-0.27,0.38-0.53,0.55-0.81l29.47-48.67
			c0.95-1.03,2.22-1.76,3.69-2.08c0.55-0.12,1.12-0.18,1.68-0.18c1.51,0,3.02,0.42,4.38,1.25c1.87,1.13,3.2,2.86,3.75,4.87
			c0.52,1.89,0.28,3.81-0.69,5.4L699.42,210.01z M740.35,171.9c1.47,0,3,0.4,4.39,1.25c3.75,2.27,5.12,6.87,3.07,10.26l-24.76,40.9
			c-0.96,1.59-2.55,2.69-4.46,3.11c-2.03,0.44-4.19,0.06-6.05-1.07s-3.2-2.86-3.75-4.87c-0.52-1.89-0.28-3.8,0.68-5.39c0,0,0,0,0,0
			c0,0,0,0,0,0l24.76-40.9C735.51,173.05,737.86,171.9,740.35,171.9z"/>
		<path class="st5" d="M678.03,123.64c-1.39-0.84-2.92-1.25-4.39-1.25c-2.49,0-4.83,1.15-6.13,3.29l-16.29,26.91
			c3.53,1.6,8.88,4.1,14.48,6.74l15.4-25.43C683.15,130.51,681.77,125.9,678.03,123.64z"/>
		<path class="st5" d="M690.65,171.43l18.1-29.9c0.96-1.59,1.21-3.51,0.69-5.4c-0.55-2.01-1.89-3.74-3.75-4.87
			c-1.36-0.82-2.87-1.25-4.38-1.25c-0.56,0-1.12,0.06-1.68,0.18c-1.92,0.41-3.5,1.52-4.46,3.11l-18.82,31.08
			c6.94,3.3,12.54,5.98,13.1,6.25C689.9,170.85,690.29,171.13,690.65,171.43z"/>
		<path class="st5" d="M145.46,216.08C145.46,216.08,145.46,216.08,145.46,216.08c-0.96,1.59-1.21,3.51-0.69,5.4
			c0.55,2.01,1.89,3.74,3.75,4.87c1.87,1.13,4.02,1.51,6.05,1.07c1.92-0.41,3.5-1.52,4.46-3.11l24.76-40.9
			c2.05-3.39,0.68-8-3.07-10.26c-1.39-0.84-2.92-1.25-4.39-1.25c-2.49,0-4.84,1.15-6.13,3.29L145.46,216.08
			C145.46,216.08,145.46,216.08,145.46,216.08z"/>
		<path class="st5" d="M121.41,202.66c-1.36,3.27,0.07,7.31,3.5,9.39c3.75,2.27,8.46,1.35,10.52-2.04l28.8-47.57
			c0.96-1.59,1.21-3.51,0.69-5.4c-0.55-2.01-1.89-3.74-3.75-4.87c-1.36-0.82-2.87-1.25-4.38-1.25c-0.56,0-1.12,0.06-1.68,0.18
			c-1.47,0.32-2.74,1.04-3.69,2.08l-29.47,48.67C121.78,202.13,121.59,202.39,121.41,202.66z"/>
		<path class="st5" d="M117.1,133.9c2.05-3.39,0.68-8-3.07-10.26c-1.39-0.84-2.92-1.25-4.39-1.25c-2.49,0-4.83,1.15-6.13,3.29
			l-16.29,26.91c3.53,1.6,8.88,4.1,14.48,6.74L117.1,133.9z"/>
		<path class="st5" d="M125.46,170.64c0.44,0.21,0.83,0.49,1.19,0.79l18.1-29.9c0.96-1.59,1.21-3.51,0.69-5.4
			c-0.55-2.01-1.89-3.74-3.75-4.87c-1.36-0.82-2.87-1.25-4.38-1.25c-0.56,0-1.12,0.06-1.68,0.18c-1.92,0.41-3.5,1.52-4.46,3.11
			l-18.82,31.08C119.3,167.69,124.89,170.37,125.46,170.64z"/>
		<path d="M52.53,258.87c3.31,4.61,6.17,8.6,7.64,11.24c5.92,10.64,3.44,61.98,0.3,126.99c-2.75,56.98-6.18,127.88-6.18,206.98
			c0,3.24,2.63,5.87,5.87,5.87c2.6,0,4.79-1.69,5.57-4.02c0.19-0.58,0.3-1.2,0.3-1.84c0-78.81,3.42-149.56,6.17-206.41
			c3.91-80.84,5.46-120.28-1.76-133.26c-1.8-3.23-4.84-7.47-8.35-12.37c-7.69-10.73-19.32-26.95-19.83-36.88
			c-0.17-3.31-0.69-13.39,24.34-45.55l0.87-1.11c4.47-5.77,8.53-7.95,12.05-6.49c4.45,1.84,25.85,12.03,35.8,16.78
			c-1.26,1.91-3.31,4.24-6.59,6.38c-6.71,4.38-13.99,1.5-14.25,1.39c-2.73-1.17-5.9-0.12-7.39,2.45c0,0-2.29,3.95-4.22,7.27
			c-0.85,1.46-1.03,3.22-0.49,4.82c0.54,1.6,1.75,2.89,3.31,3.54c34.77,14.43,26.34,49.48,25.97,50.96
			c-0.8,3.13,1.08,6.32,4.21,7.13c3.14,0.81,6.34-1.07,7.15-4.21c0.12-0.47,2.97-11.73,0.42-25.24c-0.61-3.24-1.57-6.77-3.04-10.39
			c2.86,1.42,5.91,2.1,8.91,2.1c1.42,0,2.82-0.16,4.19-0.46c0,0.01,0,0.02,0.01,0.04c1.35,4.91,4.55,9.1,8.99,11.79
			c3.21,1.94,6.81,2.95,10.44,2.95c1.39,0,2.79-0.15,4.17-0.45c5.1-1.1,9.37-4.12,12.02-8.5l0.16-0.27
			c-0.78,24.88-11.94,35.15-19.24,41.85c-14.5,13.32-12.79,49.05-9.06,127.35c2.37,49.61,5.61,117.55,5.61,204.77
			c0,0.65,0.11,1.26,0.3,1.84c0.77,2.34,2.97,4.02,5.57,4.02c3.24,0,5.87-2.63,5.87-5.87c0-87.5-3.25-155.6-5.62-205.32
			c-3.23-67.69-5.18-108.55,5.28-118.15c9.75-8.96,27.42-25.22,22.1-68.32l13.81-22.81c5.4-8.93,2.25-20.76-7.03-26.38
			c-3.13-1.9-6.57-2.83-9.95-2.91c0.13-2.07-0.06-4.19-0.64-6.28c-1.35-4.91-4.55-9.1-8.99-11.79c-3.03-1.84-6.41-2.81-9.84-2.91
			c0.12-2.05-0.07-4.14-0.64-6.21c-1.35-4.91-4.55-9.1-8.99-11.79c-4.44-2.69-9.63-3.58-14.61-2.5c-2.12,0.46-4.08,1.27-5.86,2.35
			c-1.64-2.96-4.06-5.58-7.19-7.47c-9.28-5.62-21.23-2.92-26.63,6L75.1,149.95c-4.9,0.62-10.83,3.48-16.94,11.36l-0.85,1.1
			c-12.9,16.58-27.6,37.62-26.79,53.35C31.2,229.13,43.03,245.62,52.53,258.87z M170.22,175.18c1.29-2.13,3.63-3.29,6.13-3.29
			c1.47,0,3,0.4,4.39,1.25c3.75,2.27,5.12,6.87,3.07,10.26l-24.76,40.9c-0.96,1.59-2.55,2.69-4.46,3.11
			c-2.04,0.44-4.18,0.06-6.05-1.07c-1.87-1.13-3.2-2.86-3.75-4.87c-0.52-1.89-0.28-3.8,0.68-5.39c0,0,0,0,0,0c0,0,0,0,0,0
			L170.22,175.18z M151.42,153.18c0.95-1.03,2.22-1.76,3.69-2.08c0.55-0.12,1.12-0.18,1.68-0.18c1.51,0,3.02,0.42,4.38,1.25
			c1.87,1.13,3.2,2.86,3.75,4.87c0.52,1.89,0.28,3.81-0.69,5.4l-28.8,47.57c-2.05,3.39-6.77,4.31-10.52,2.04
			c-3.43-2.08-4.87-6.12-3.5-9.39c0.18-0.27,0.38-0.53,0.55-0.81L151.42,153.18z M131.17,133.3c0.96-1.59,2.55-2.69,4.46-3.11
			c0.55-0.12,1.12-0.18,1.68-0.18c1.51,0,3.02,0.43,4.38,1.25c1.87,1.13,3.2,2.86,3.75,4.87c0.52,1.89,0.28,3.81-0.69,5.4
			l-18.1,29.9c-0.36-0.3-0.75-0.58-1.19-0.79c-0.57-0.27-6.16-2.95-13.1-6.25L131.17,133.3z M103.51,125.68
			c1.29-2.13,3.63-3.29,6.13-3.29c1.47,0,3,0.4,4.39,1.25c3.75,2.27,5.12,6.87,3.07,10.26l-15.4,25.43
			c-5.6-2.64-10.95-5.15-14.48-6.74L103.51,125.68z"/>
		<path class="st5" d="M462.74,173.14c-1.39-0.84-2.92-1.25-4.39-1.25c-2.49,0-4.84,1.15-6.13,3.29l-24.76,40.9c0,0,0,0,0,0
			c0,0,0,0,0,0c-0.96,1.59-1.2,3.5-0.68,5.39c0.55,2.01,1.89,3.74,3.75,4.87s4.02,1.51,6.05,1.07c1.92-0.41,3.5-1.52,4.46-3.11
			l24.76-40.9C467.86,180.02,466.48,175.41,462.74,173.14z"/>
		<path d="M468.81,163.11c-3.13-1.9-6.57-2.83-9.95-2.91c0.13-2.07-0.06-4.19-0.64-6.28c-1.35-4.91-4.55-9.1-8.99-11.79
			c-3.03-1.84-6.41-2.81-9.84-2.92c0.12-2.05-0.07-4.14-0.64-6.2c-1.35-4.91-4.55-9.1-8.99-11.79c-4.44-2.69-9.63-3.58-14.61-2.5
			c-2.12,0.46-4.08,1.27-5.86,2.35c-1.64-2.96-4.06-5.58-7.19-7.47c-9.28-5.62-21.23-2.92-26.63,6l-18.37,30.35
			c-4.91,0.62-10.83,3.48-16.94,11.36l-0.85,1.1c-12.9,16.58-27.6,37.62-26.79,53.35c0.69,13.37,12.51,29.86,22.01,43.11
			c3.31,4.61,6.17,8.6,7.64,11.24c5.92,10.64,3.44,61.98,0.3,126.99c-2.75,56.98-6.18,127.88-6.18,206.98
			c0,3.24,2.63,5.87,5.87,5.87c2.6,0,4.79-1.69,5.57-4.02c0.19-0.58,0.3-1.2,0.3-1.84c0-78.81,3.42-149.56,6.17-206.41
			c3.91-80.84,5.46-120.28-1.76-133.26c-1.8-3.23-4.84-7.47-8.35-12.37c-7.69-10.73-19.32-26.95-19.83-36.88
			c-0.17-3.31-0.69-13.39,24.34-45.55l0.87-1.11c4.47-5.77,8.53-7.95,12.05-6.49c4.45,1.84,25.85,12.03,35.8,16.78
			c-1.26,1.91-3.31,4.24-6.59,6.38c-6.71,4.38-13.99,1.5-14.25,1.39c-2.73-1.17-5.9-0.12-7.39,2.45c0,0-2.29,3.95-4.22,7.27
			c-0.85,1.46-1.03,3.22-0.49,4.82c0.54,1.6,1.75,2.89,3.31,3.54c34.77,14.43,26.34,49.48,25.97,50.96
			c-0.8,3.13,1.08,6.32,4.21,7.13c3.14,0.81,6.34-1.07,7.15-4.21c0.12-0.47,2.97-11.73,0.42-25.24c-0.61-3.24-1.57-6.77-3.04-10.39
			c2.86,1.42,5.91,2.1,8.91,2.1c1.42,0,2.82-0.16,4.19-0.46c0,0.01,0,0.02,0.01,0.04c1.35,4.91,4.55,9.1,8.99,11.79
			c3.21,1.94,6.81,2.95,10.44,2.95c1.39,0,2.79-0.15,4.17-0.45c5.1-1.1,9.37-4.12,12.02-8.5l0.16-0.27
			c-0.78,24.88-11.94,35.15-19.24,41.85c-14.5,13.32-12.79,49.05-9.06,127.35c2.37,49.61,5.61,117.55,5.61,204.77
			c0,0.65,0.11,1.26,0.3,1.84c0.77,2.34,2.97,4.02,5.57,4.02c3.24,0,5.87-2.63,5.87-5.87c0-87.5-3.25-155.6-5.62-205.32
			c-3.23-67.69-5.18-108.55,5.28-118.15c9.75-8.96,27.42-25.22,22.1-68.32l13.81-22.81C481.25,180.56,478.09,168.72,468.81,163.11z
			 M369.22,152.59l16.29-26.91c1.29-2.13,3.63-3.29,6.13-3.29c1.47,0,3,0.4,4.39,1.25c3.75,2.27,5.12,6.87,3.07,10.26l-15.4,25.43
			C378.1,156.69,372.74,154.19,369.22,152.59z M394.36,164.39l18.82-31.08c0.96-1.59,2.55-2.69,4.46-3.11
			c0.55-0.12,1.12-0.18,1.68-0.18c1.51,0,3.02,0.43,4.38,1.25c1.87,1.13,3.2,2.86,3.75,4.87c0.52,1.89,0.28,3.81-0.69,5.4
			l-18.1,29.9c-0.36-0.3-0.75-0.58-1.19-0.79C406.89,170.37,401.3,167.69,394.36,164.39z M417.42,210.01
			c-2.05,3.39-6.77,4.31-10.52,2.04c-3.43-2.08-4.87-6.12-3.5-9.39c0.18-0.27,0.38-0.53,0.55-0.81l29.47-48.67
			c0.95-1.03,2.22-1.76,3.69-2.08c0.55-0.12,1.12-0.18,1.68-0.18c1.51,0,3.02,0.42,4.38,1.25c1.87,1.13,3.2,2.86,3.75,4.87
			c0.52,1.89,0.28,3.81-0.69,5.4L417.42,210.01z M465.81,183.41l-24.76,40.9c-0.96,1.59-2.55,2.69-4.46,3.11
			c-2.03,0.44-4.19,0.06-6.05-1.07s-3.2-2.86-3.75-4.87c-0.52-1.89-0.28-3.8,0.68-5.39c0,0,0,0,0,0c0,0,0,0,0,0l24.76-40.9
			c1.29-2.13,3.63-3.29,6.13-3.29c1.47,0,3,0.4,4.39,1.25C466.48,175.41,467.86,180.02,465.81,183.41z"/>
		<path class="st5" d="M446.91,157.04c-0.55-2.01-1.89-3.74-3.75-4.87c-1.36-0.82-2.87-1.25-4.38-1.25c-0.56,0-1.12,0.06-1.68,0.18
			c-1.47,0.32-2.74,1.04-3.69,2.08l-29.47,48.67c-0.17,0.28-0.36,0.54-0.55,0.81c-1.36,3.27,0.07,7.31,3.5,9.39
			c3.74,2.27,8.46,1.35,10.52-2.04l28.8-47.57C447.19,160.84,447.43,158.93,446.91,157.04z"/>
		<path class="st5" d="M396.03,123.64c-1.39-0.84-2.92-1.25-4.39-1.25c-2.49,0-4.83,1.15-6.13,3.29l-16.29,26.91
			c3.53,1.6,8.88,4.1,14.48,6.74l15.4-25.43C401.15,130.51,399.77,125.9,396.03,123.64z"/>
		<path class="st5" d="M408.65,171.43l18.1-29.9c0.96-1.59,1.21-3.51,0.69-5.4c-0.55-2.01-1.89-3.74-3.75-4.87
			c-1.36-0.82-2.87-1.25-4.38-1.25c-0.56,0-1.12,0.06-1.68,0.18c-1.92,0.41-3.5,1.52-4.46,3.11l-18.82,31.08
			c6.94,3.3,12.54,5.98,13.1,6.25C407.9,170.85,408.29,171.13,408.65,171.43z"/>
		<path d="M575.34,509.14c-3.29-52.51-6.14-97.85,5.6-108.63c9.75-8.96,27.42-25.22,22.1-68.32l13.81-22.81
			c5.4-8.93,2.25-20.76-7.03-26.38c-3.13-1.9-6.57-2.82-9.95-2.91c0.13-2.07-0.06-4.19-0.64-6.28c-1.35-4.91-4.55-9.1-8.99-11.79
			c-3.03-1.84-6.41-2.81-9.84-2.92c0.12-2.05-0.07-4.14-0.64-6.2c-1.35-4.91-4.55-9.1-8.99-11.79c-4.44-2.69-9.63-3.58-14.61-2.5
			c-2.12,0.46-4.08,1.27-5.86,2.35c-1.64-2.96-4.06-5.58-7.19-7.47c-9.28-5.62-21.23-2.93-26.63,6l-18.37,30.35
			c-4.91,0.62-10.83,3.48-16.94,11.36l-0.85,1.1c-12.9,16.58-27.6,37.63-26.79,53.35c0.69,13.37,12.51,29.86,22.01,43.11
			c3.31,4.61,6.17,8.6,7.64,11.24c5.68,10.21,2.92,45.5-0.27,86.37c-2.95,37.76-6.62,84.76-5.62,132.72
			c0.02,1.06,0.33,2.05,0.84,2.9c1.03,1.71,2.9,2.84,5.02,2.84c0.04,0,0.08,0,0.12,0c2.09-0.04,3.9-1.18,4.9-2.84
			c0.22-0.37,0.4-0.76,0.54-1.18c0.21-0.62,0.32-1.28,0.3-1.97c-0.99-47.38,2.66-94.06,5.58-131.56
			c3.75-47.99,6.22-79.69-1.18-92.99c-1.8-3.23-4.84-7.47-8.35-12.37c-7.69-10.73-19.32-26.95-19.83-36.88
			c-0.69-13.39,18.15-37.59,24.34-45.55l0.86-1.11c4.47-5.77,8.53-7.95,12.05-6.5c4.45,1.84,25.85,12.03,35.8,16.78
			c-1.26,1.91-3.31,4.24-6.59,6.38c-6.71,4.38-13.99,1.5-14.25,1.39c-2.72-1.17-5.9-0.12-7.39,2.45c0,0-2.29,3.95-4.22,7.27
			c-0.85,1.46-1.03,3.22-0.49,4.82c0.54,1.6,1.75,2.9,3.31,3.54c34.77,14.43,26.34,49.48,25.97,50.96c-0.8,3.13,1.08,6.32,4.21,7.13
			c3.14,0.81,6.34-1.07,7.15-4.2c0.12-0.47,2.97-11.73,0.42-25.24c-0.61-3.24-1.57-6.77-3.04-10.39c2.86,1.42,5.91,2.1,8.91,2.1
			c1.42,0,2.82-0.16,4.19-0.46c0,0.01,0,0.02,0.01,0.04c1.35,4.91,4.55,9.1,8.99,11.79c3.21,1.94,6.81,2.95,10.44,2.95
			c1.39,0,2.79-0.15,4.17-0.45c5.1-1.1,9.37-4.12,12.02-8.5v0l0.16-0.27c-0.78,24.88-11.94,35.15-19.24,41.85
			c-15.86,14.57-13.28,55.72-9.37,118.01c1.88,29.9,4,63.79,4.15,99.13c0,0.64,0.11,1.25,0.3,1.82c0.14,0.42,0.32,0.81,0.55,1.18
			c1.03,1.7,2.89,2.84,5.02,2.84c0.01,0,0.02,0,0.02,0c2.12-0.01,3.97-1.15,5-2.84c0.54-0.89,0.85-1.93,0.85-3.05
			C579.36,573.27,577.22,539.2,575.34,509.14z M510.22,272.48l16.29-26.91c1.29-2.13,3.63-3.29,6.13-3.29c1.47,0,3,0.4,4.39,1.25
			c3.75,2.27,5.12,6.87,3.07,10.26l-15.4,25.43C519.1,276.58,513.74,274.08,510.22,272.48z M535.36,284.28l18.82-31.08
			c0.96-1.59,2.55-2.69,4.46-3.11c0.55-0.12,1.12-0.18,1.68-0.18c1.51,0,3.02,0.42,4.38,1.25c1.87,1.13,3.2,2.86,3.75,4.87
			c0.52,1.89,0.28,3.81-0.69,5.4l-18.1,29.9c-0.36-0.3-0.75-0.58-1.19-0.79C547.89,290.26,542.3,287.58,535.36,284.28z
			 M558.42,329.9c-2.05,3.39-6.77,4.31-10.52,2.04c-3.43-2.08-4.87-6.12-3.5-9.39c0.18-0.27,0.38-0.53,0.55-0.81l29.47-48.67
			c0.95-1.03,2.22-1.76,3.69-2.08c0.55-0.12,1.12-0.18,1.68-0.18c1.51,0,3.02,0.43,4.38,1.25c1.87,1.13,3.2,2.86,3.75,4.87
			c0.52,1.89,0.28,3.81-0.69,5.4L558.42,329.9z M582.04,344.2C582.04,344.2,582.04,344.2,582.04,344.2
			c-0.96,1.59-2.55,2.69-4.46,3.11c-2.03,0.44-4.19,0.06-6.05-1.07c-1.87-1.13-3.2-2.86-3.75-4.87c-0.52-1.89-0.28-3.81,0.68-5.4
			c0,0,0,0,0,0l24.76-40.9c1.29-2.13,3.63-3.29,6.13-3.29c1.47,0,3,0.4,4.39,1.25c3.75,2.27,5.12,6.87,3.07,10.26L582.04,344.2z"/>
		<path class="st5" d="M603.74,293.04c-1.39-0.84-2.92-1.25-4.39-1.25c-2.49,0-4.84,1.15-6.13,3.29l-24.76,40.9c0,0,0,0,0,0
			c-0.96,1.59-1.21,3.51-0.68,5.4c0.55,2.01,1.89,3.74,3.75,4.87c1.87,1.13,4.02,1.51,6.05,1.07c1.92-0.42,3.5-1.52,4.46-3.11
			c0,0,0,0,0,0l24.76-40.9C608.86,299.91,607.48,295.3,603.74,293.04z"/>
		<path class="st5" d="M587.91,276.93c-0.55-2.01-1.89-3.74-3.75-4.87c-1.36-0.82-2.87-1.25-4.38-1.25c-0.56,0-1.12,0.06-1.68,0.18
			c-1.47,0.32-2.74,1.04-3.69,2.08l-29.47,48.67c-0.17,0.28-0.36,0.54-0.55,0.81c-1.36,3.27,0.07,7.31,3.5,9.39
			c3.75,2.27,8.46,1.35,10.52-2.04l28.8-47.57C588.19,280.74,588.43,278.82,587.91,276.93z"/>
		<path class="st5" d="M537.03,243.53c-1.39-0.84-2.92-1.25-4.39-1.25c-2.49,0-4.83,1.15-6.13,3.29l-16.29,26.91
			c3.53,1.6,8.88,4.1,14.48,6.74l15.4-25.43C542.15,250.4,540.77,245.8,537.03,243.53z"/>
		<path class="st5" d="M549.65,291.32l18.1-29.9c0.96-1.59,1.21-3.51,0.69-5.4c-0.55-2.01-1.89-3.74-3.75-4.87
			c-1.36-0.82-2.87-1.25-4.38-1.25c-0.56,0-1.12,0.06-1.68,0.18c-1.92,0.41-3.5,1.52-4.46,3.11l-18.82,31.08
			c6.94,3.3,12.54,5.98,13.1,6.25C548.9,290.75,549.29,291.02,549.65,291.32z"/>
		<path class="st5" d="M567.77,609c-0.14-35.34-2.27-69.23-4.15-99.13c-3.91-62.29-6.49-103.44,9.37-118.01
			c7.3-6.71,18.47-16.98,19.24-41.85l-0.16,0.27v0c-2.65,4.38-6.92,7.4-12.02,8.5c-1.38,0.3-2.78,0.45-4.17,0.45
			c-3.63,0-7.23-1-10.44-2.95c-4.44-2.69-7.63-6.88-8.99-11.79c0-0.01,0-0.02-0.01-0.04c-1.37,0.3-2.77,0.46-4.19,0.46
			c-3,0-6.05-0.69-8.91-2.1c1.47,3.62,2.43,7.15,3.04,10.39c2.55,13.51-0.3,24.77-0.42,25.24c-0.81,3.14-4.01,5.02-7.15,4.2
			c-3.13-0.81-5.01-4-4.21-7.13c0.38-1.48,8.8-36.53-25.97-50.96c-1.56-0.65-2.77-1.94-3.31-3.54c-0.54-1.6-0.36-3.36,0.49-4.82
			c1.93-3.32,4.22-7.27,4.22-7.27c1.49-2.57,4.66-3.62,7.39-2.45c0.26,0.11,7.54,2.99,14.25-1.39c3.29-2.15,5.34-4.47,6.59-6.38
			c-9.95-4.75-31.35-14.94-35.8-16.78c-3.52-1.46-7.58,0.73-12.05,6.5l-0.86,1.11c-6.19,7.95-25.02,32.16-24.34,45.55
			c0.51,9.93,12.14,26.15,19.83,36.88c3.52,4.91,6.56,9.14,8.35,12.37c7.4,13.3,4.93,45,1.18,92.99
			c-2.93,37.51-6.57,84.18-5.58,131.56c0.01,0.69-0.1,1.35-0.3,1.97c-0.14,0.42-0.32,0.81-0.54,1.18h80.44
			c-0.22-0.37-0.41-0.76-0.55-1.18C567.88,610.25,567.78,609.64,567.77,609z"/>
		<path d="M293.34,509.14c-3.29-52.51-6.14-97.85,5.6-108.63c9.75-8.96,27.42-25.22,22.1-68.32l13.81-22.81
			c5.4-8.93,2.25-20.76-7.03-26.38c-3.13-1.9-6.57-2.82-9.95-2.91c0.13-2.07-0.06-4.19-0.64-6.28c-1.35-4.91-4.55-9.1-8.99-11.79
			c-3.03-1.84-6.41-2.81-9.84-2.92c0.12-2.05-0.07-4.14-0.64-6.2c-1.35-4.91-4.55-9.1-8.99-11.79c-4.44-2.69-9.63-3.58-14.61-2.5
			c-2.12,0.46-4.08,1.27-5.86,2.35c-1.64-2.96-4.06-5.58-7.19-7.47c-9.28-5.62-21.23-2.93-26.63,6l-18.37,30.35
			c-4.9,0.62-10.83,3.48-16.94,11.36l-0.85,1.1c-12.9,16.58-27.6,37.63-26.79,53.35c0.69,13.37,12.51,29.86,22.01,43.11
			c3.31,4.61,6.17,8.6,7.64,11.24c5.68,10.21,2.92,45.5-0.27,86.37c-2.95,37.76-6.62,84.76-5.62,132.72
			c0.02,1.06,0.33,2.05,0.84,2.9c1.03,1.71,2.9,2.84,5.02,2.84c0.04,0,0.08,0,0.12,0c2.09-0.04,3.9-1.18,4.9-2.84
			c0.22-0.37,0.4-0.76,0.54-1.18c0.21-0.62,0.32-1.28,0.3-1.97c-0.99-47.38,2.66-94.06,5.58-131.56
			c3.75-47.99,6.22-79.69-1.18-92.99c-1.8-3.23-4.84-7.47-8.35-12.37c-7.69-10.73-19.32-26.95-19.83-36.88
			c-0.69-13.39,18.15-37.59,24.34-45.55l0.86-1.11c4.47-5.77,8.53-7.95,12.05-6.5c4.45,1.84,25.85,12.03,35.8,16.78
			c-1.26,1.91-3.31,4.24-6.59,6.38c-6.72,4.38-13.99,1.5-14.25,1.39c-2.72-1.17-5.9-0.12-7.39,2.45c0,0-2.29,3.95-4.22,7.27
			c-0.85,1.46-1.03,3.22-0.49,4.82c0.54,1.6,1.75,2.9,3.31,3.54c34.77,14.43,26.34,49.48,25.97,50.96c-0.8,3.13,1.08,6.32,4.21,7.13
			c3.14,0.81,6.34-1.07,7.15-4.2c0.12-0.47,2.97-11.73,0.42-25.24c-0.61-3.24-1.57-6.77-3.04-10.39c2.86,1.42,5.91,2.1,8.91,2.1
			c1.42,0,2.82-0.16,4.19-0.46c0,0.01,0,0.02,0.01,0.04c1.35,4.91,4.55,9.1,8.99,11.79c3.21,1.94,6.81,2.95,10.44,2.95
			c1.39,0,2.79-0.15,4.17-0.45c5.1-1.1,9.37-4.12,12.02-8.5v0l0.16-0.27c-0.78,24.88-11.94,35.15-19.24,41.85
			c-15.86,14.57-13.28,55.72-9.37,118.01c1.88,29.9,4,63.79,4.15,99.13c0,0.64,0.11,1.25,0.3,1.82c0.14,0.42,0.32,0.81,0.55,1.18
			c1.03,1.7,2.89,2.84,5.02,2.84c0.01,0,0.02,0,0.02,0c2.12-0.01,3.97-1.15,5-2.84c0.54-0.89,0.85-1.93,0.85-3.05
			C297.36,573.27,295.22,539.2,293.34,509.14z M228.22,272.48l16.29-26.91c1.29-2.13,3.63-3.29,6.13-3.29c1.47,0,3,0.4,4.39,1.25
			c3.75,2.27,5.12,6.87,3.07,10.26l-15.4,25.43C237.1,276.58,231.74,274.08,228.22,272.48z M253.36,284.28l18.82-31.08
			c0.96-1.59,2.55-2.69,4.46-3.11c0.55-0.12,1.12-0.18,1.68-0.18c1.51,0,3.02,0.42,4.38,1.25c1.87,1.13,3.2,2.86,3.75,4.87
			c0.52,1.89,0.28,3.81-0.69,5.4l-18.1,29.9c-0.36-0.3-0.75-0.58-1.19-0.79C265.89,290.26,260.3,287.58,253.36,284.28z
			 M276.42,329.9c-2.05,3.39-6.77,4.31-10.52,2.04c-3.43-2.08-4.87-6.12-3.5-9.39c0.18-0.27,0.38-0.53,0.55-0.81l29.47-48.67
			c0.95-1.03,2.22-1.76,3.69-2.08c0.55-0.12,1.12-0.18,1.68-0.18c1.51,0,3.02,0.43,4.38,1.25c1.87,1.13,3.2,2.86,3.75,4.87
			c0.52,1.89,0.28,3.81-0.69,5.4L276.42,329.9z M300.04,344.2C300.04,344.2,300.04,344.2,300.04,344.2
			c-0.96,1.59-2.55,2.69-4.46,3.11c-2.03,0.44-4.19,0.06-6.05-1.07c-1.87-1.13-3.2-2.86-3.75-4.87c-0.52-1.89-0.28-3.81,0.68-5.4
			c0,0,0,0,0,0l24.76-40.9c1.29-2.13,3.63-3.29,6.13-3.29c1.47,0,3,0.4,4.39,1.25c3.75,2.27,5.12,6.87,3.07,10.26L300.04,344.2z"/>
		<path class="st5" d="M321.74,293.04c-1.39-0.84-2.92-1.25-4.39-1.25c-2.49,0-4.84,1.15-6.13,3.29l-24.76,40.9c0,0,0,0,0,0
			c-0.96,1.59-1.21,3.51-0.68,5.4c0.55,2.01,1.89,3.74,3.75,4.87c1.87,1.13,4.02,1.51,6.05,1.07c1.92-0.42,3.5-1.52,4.46-3.11
			c0,0,0,0,0,0l24.76-40.9C326.86,299.91,325.48,295.3,321.74,293.04z"/>
		<path class="st5" d="M305.91,276.93c-0.55-2.01-1.89-3.74-3.75-4.87c-1.36-0.82-2.87-1.25-4.38-1.25c-0.56,0-1.12,0.06-1.68,0.18
			c-1.47,0.32-2.74,1.04-3.69,2.08l-29.47,48.67c-0.17,0.28-0.36,0.54-0.55,0.81c-1.36,3.27,0.07,7.31,3.5,9.39
			c3.75,2.27,8.46,1.35,10.52-2.04l28.8-47.57C306.19,280.74,306.43,278.82,305.91,276.93z"/>
		<path class="st5" d="M255.03,243.53c-1.39-0.84-2.92-1.25-4.39-1.25c-2.49,0-4.83,1.15-6.13,3.29l-16.29,26.91
			c3.53,1.6,8.88,4.1,14.48,6.74l15.4-25.43C260.15,250.4,258.77,245.8,255.03,243.53z"/>
		<path class="st5" d="M267.65,291.32l18.1-29.9c0.96-1.59,1.21-3.51,0.69-5.4c-0.55-2.01-1.89-3.74-3.75-4.87
			c-1.36-0.82-2.87-1.25-4.38-1.25c-0.56,0-1.12,0.06-1.68,0.18c-1.92,0.41-3.5,1.52-4.46,3.11l-18.82,31.08
			c6.94,3.3,12.54,5.98,13.1,6.25C266.9,290.75,267.29,291.02,267.65,291.32z"/>
		<path class="st5" d="M285.77,609c-0.14-35.34-2.27-69.23-4.15-99.13c-3.91-62.29-6.49-103.44,9.37-118.01
			c7.3-6.71,18.47-16.98,19.24-41.85l-0.16,0.27v0c-2.65,4.38-6.92,7.4-12.02,8.5c-1.38,0.3-2.78,0.45-4.17,0.45
			c-3.63,0-7.23-1-10.44-2.95c-4.44-2.69-7.63-6.88-8.99-11.79c0-0.01,0-0.02-0.01-0.04c-1.37,0.3-2.77,0.46-4.19,0.46
			c-3,0-6.05-0.69-8.91-2.1c1.47,3.62,2.43,7.15,3.04,10.39c2.55,13.51-0.3,24.77-0.42,25.24c-0.81,3.14-4.02,5.02-7.15,4.2
			c-3.13-0.81-5.01-4-4.21-7.13c0.38-1.48,8.8-36.53-25.97-50.96c-1.56-0.65-2.77-1.94-3.31-3.54c-0.54-1.6-0.36-3.36,0.49-4.82
			c1.93-3.32,4.22-7.27,4.22-7.27c1.49-2.57,4.66-3.62,7.39-2.45c0.26,0.11,7.53,2.99,14.25-1.39c3.29-2.15,5.34-4.47,6.59-6.38
			c-9.95-4.75-31.35-14.94-35.8-16.78c-3.53-1.46-7.58,0.73-12.05,6.5l-0.86,1.11c-6.19,7.95-25.02,32.16-24.34,45.55
			c0.51,9.93,12.14,26.15,19.83,36.88c3.52,4.91,6.56,9.14,8.35,12.37c7.4,13.3,4.93,45,1.18,92.99
			c-2.93,37.51-6.57,84.18-5.58,131.56c0.01,0.69-0.1,1.35-0.3,1.97c-0.14,0.42-0.32,0.81-0.54,1.18h80.44
			c-0.22-0.37-0.41-0.76-0.55-1.18C285.88,610.25,285.78,609.64,285.77,609z"/>
		<polygon points="771.12,345.92 765.91,344.27 765.91,344.18 771.12,342.84 771.12,340.18 765.91,338.84 765.91,338.76 
			771.12,337.11 771.12,333.88 771.12,333.79 771.12,330.87 765.91,329.22 765.91,329.14 771.12,327.8 771.12,325.14 765.91,323.8 
			765.91,323.72 771.12,322.07 771.12,318.83 771.12,318.75 771.12,315.82 765.91,314.17 765.91,314.09 771.12,312.75 
			771.12,310.09 765.91,308.75 765.91,308.67 771.12,307.02 771.12,303.7 761.93,306.61 761.93,309.89 767.12,311.23 767.12,311.31 
			761.93,312.65 761.93,315.93 770.99,318.79 761.93,321.66 761.93,324.93 767.12,326.27 767.12,326.36 761.93,327.7 761.93,330.97 
			770.99,333.84 761.93,336.7 761.93,339.98 767.12,341.32 767.12,341.4 761.93,342.74 761.93,346.02 771.12,348.92 		"/>
		<rect x="761.93" y="351.35" width="3.55" height="3.55"/>
		<path d="M767.43,370.79l0.14-3.36c-1.44-0.21-2.78-0.99-2.78-3.01c0-1.92,1.42-3.03,3.63-3.03c2.21,0,3.63,1.11,3.63,3.03
			c0,2.02-1.34,2.8-2.78,3.01l0.12,3.36c3.24-0.25,5.77-2.37,5.77-6.35c0-3.79-2.74-6.66-6.74-6.66c-4,0-6.74,2.87-6.74,6.66
			C761.68,368.42,764.2,370.54,767.43,370.79z"/>
		<path d="M761.72,379.88c0,0.95,0.27,1.61,0.6,2.08h1.77c-0.1-0.27-0.14-0.47-0.14-0.74c0-0.35,0.21-0.56,0.68-0.56h3.13
			c2.56,0,3.61-1.79,3.61-4.23c0-2.76-1.4-4.27-3.42-4.56l-0.21,3.09c0.68,0.14,1.15,0.52,1.15,1.26c0,0.8-0.45,1.15-1.22,1.15
			h-0.14l-0.43-2.58c-0.35-2-1.11-3.28-2.89-3.28c-1.57,0-2.49,1.18-2.49,2.97c0,1.46,0.56,2.51,1.63,3.05
			C762.3,377.86,761.72,378.75,761.72,379.88z M764.65,374.75c0.6,0,0.84,0.47,1.01,1.28l0.25,1.36h-0.14c-1.2,0-1.9-0.76-1.9-1.71
			C763.87,375.12,764.18,374.75,764.65,374.75z"/>
		<path d="M758.63,386.27h4.86c-1.07,0.45-1.81,1.48-1.81,3.03c0,2.7,2.12,4.08,4.84,4.08c2.7,0,4.84-1.38,4.84-4.08
			c0-1.55-0.74-2.58-1.83-3.03h1.59v-3.34h-12.49V386.27z M766.46,386.27h0.12c1.32,0,2.18,0.72,2.18,1.86c0,1.3-0.93,1.9-2.25,1.9
			c-1.34,0-2.27-0.6-2.27-1.9C764.26,386.99,765.12,386.27,766.46,386.27z"/>
		<rect x="761.93" y="394.7" width="9.19" height="3.34"/>
		<rect x="771.99" y="394.68" width="2.93" height="3.38"/>
		<path d="M773.66,401.38l-1.2-0.31c-0.85-0.23-1.34-0.52-1.48-1.44l-0.1-0.68h-2.06v1.24h-4.33c-2.16,0-2.8,1.46-2.8,3.01
			c0,1.26,0.31,2.06,0.82,2.76h2.16c-0.23-0.56-0.31-1.01-0.31-1.42c0-0.68,0.31-1.05,1.09-1.05h3.36v2.39h2.31v-2.39h2.54V401.38z"
			/>
		<path d="M764.63,415.82h3.13c2.56,0,3.61-1.79,3.61-4.23c0-2.76-1.4-4.27-3.42-4.56l-0.21,3.09c0.68,0.14,1.15,0.52,1.15,1.26
			c0,0.8-0.45,1.15-1.22,1.15h-0.14l-0.43-2.58c-0.35-2-1.11-3.28-2.89-3.28c-1.57,0-2.49,1.18-2.49,2.97
			c0,1.46,0.56,2.51,1.63,3.05c-1.05,0.31-1.63,1.2-1.63,2.33c0,0.95,0.27,1.61,0.6,2.08h1.77c-0.1-0.27-0.14-0.47-0.14-0.74
			C763.95,416.03,764.16,415.82,764.63,415.82z M763.87,410.84c0-0.56,0.31-0.93,0.78-0.93c0.6,0,0.84,0.47,1.01,1.28l0.25,1.36
			h-0.14C764.57,412.55,763.87,411.78,763.87,410.84z"/>
		<rect x="761.93" y="418.09" width="12.99" height="3.34"/>
		<rect x="771.99" y="423.22" width="2.93" height="3.38"/>
		<rect x="761.93" y="423.24" width="9.19" height="3.34"/>
		<path d="M768.26,427.92c-1.88,0-2.6,1.18-2.95,3.4l-0.21,1.36c-0.1,0.64-0.35,0.85-0.7,0.85c-0.37,0-0.64-0.39-0.64-1.13
			c0-1.01,0.43-1.63,1.2-1.75l-0.04-2.91c-2.23,0.19-3.24,2.08-3.24,4.62c0,2.62,1.11,4.27,3.05,4.27c1.79,0,2.72-1.2,3.05-3.26
			l0.31-1.79c0.04-0.31,0.21-0.56,0.51-0.56c0.41,0,0.66,0.37,0.66,1.01c0,1.03-0.41,1.61-1.07,1.73l0.08,2.74
			c1.92-0.19,3.09-1.75,3.09-4.41C771.37,429.51,770.07,427.92,768.26,427.92z"/>
		<path d="M771.37,444.1c0-1.38-0.62-2.37-1.63-2.87h1.38v-3.34h-9.19v3.34h4.51c1.38,0,2.29,0.39,2.29,1.48
			c0,1.01-0.66,1.26-1.92,1.26h-4.89v3.34h4.51c1.38,0,2.29,0.37,2.29,1.48c0,1.01-0.66,1.24-1.92,1.24h-4.89v3.34h5.77
			c1.92,0,3.67-0.74,3.67-3.28c0-1.55-0.78-2.64-1.81-3.13C770.63,446.58,771.37,445.73,771.37,444.1z"/>
		<rect x="761.93" y="458.63" width="12.99" height="3.5"/>
		<path d="M764.96,466.28l-0.04-2.91c-2.23,0.19-3.24,2.08-3.24,4.62c0,2.62,1.11,4.27,3.05,4.27c1.79,0,2.72-1.2,3.05-3.26
			l0.31-1.79c0.04-0.31,0.21-0.56,0.51-0.56c0.41,0,0.66,0.37,0.66,1.01c0,1.03-0.41,1.61-1.07,1.73l0.08,2.74
			c1.92-0.19,3.09-1.75,3.09-4.41c0-2.58-1.3-4.16-3.11-4.16c-1.88,0-2.6,1.18-2.95,3.4l-0.21,1.36c-0.1,0.64-0.35,0.85-0.7,0.85
			c-0.37,0-0.64-0.39-0.64-1.13C763.76,467.02,764.2,466.4,764.96,466.28z"/>
		<path d="M761.93,479.61l2.51,0.97v5.07l-2.51,0.97v3.73l12.99-5.17v-3.92l-12.99-5.17V479.61z M767.06,481.59l3.83,1.48v0.08
			l-3.83,1.48V481.59z"/>
		<polygon points="761.93,500.88 774.92,505.87 774.92,502.39 766.28,499.17 766.28,499.09 774.92,495.87 774.92,492.2 
			761.93,497.19 		"/>
		<rect x="771.99" y="506.76" width="2.93" height="3.38"/>
		<rect x="761.93" y="506.78" width="9.19" height="3.34"/>
		<path d="M769.49,515.27h1.63v-3.34h-9.19v3.34h4.21c1.55,0,2.12,0.76,2.12,2c0,0.64-0.12,1.13-0.39,1.59l3.15,0.21
			c0.19-0.23,0.35-0.72,0.35-1.28C771.37,516.57,770.53,515.6,769.49,515.27z"/>
		<path d="M766.22,523.33h4.91v-3.34h-5.79c-1.92,0-3.65,0.76-3.65,3.28c0,1.38,0.6,2.39,1.63,2.89h-1.38v3.34h9.19v-3.34h-4.51
			c-1.4,0-2.31-0.41-2.31-1.46C764.3,523.68,764.98,523.33,766.22,523.33z"/>
		<path d="M768.26,530.83c-1.88,0-2.6,1.18-2.95,3.4l-0.21,1.36c-0.1,0.64-0.35,0.85-0.7,0.85c-0.37,0-0.64-0.39-0.64-1.13
			c0-1.01,0.43-1.63,1.2-1.75l-0.04-2.91c-2.23,0.19-3.24,2.08-3.24,4.62c0,2.62,1.11,4.27,3.05,4.27c1.79,0,2.72-1.2,3.05-3.26
			l0.31-1.79c0.04-0.31,0.21-0.56,0.51-0.56c0.41,0,0.66,0.37,0.66,1.01c0,1.03-0.41,1.61-1.07,1.73l0.08,2.74
			c1.92-0.19,3.09-1.75,3.09-4.41C771.37,532.42,770.07,530.83,768.26,530.83z"/>
		<rect x="761.93" y="542.37" width="3.55" height="3.55"/>
		<path d="M766.53,548.8c-2.87,0-4.84,2.02-4.84,5.03c0,2.99,1.98,5.03,4.84,5.03c2.85,0,4.84-2.04,4.84-5.03
			C771.37,550.82,769.37,548.8,766.53,548.8z M766.53,555.5c-1.38,0-2.33-0.52-2.33-1.67c0-1.17,0.95-1.67,2.33-1.67
			c1.38,0,2.33,0.49,2.33,1.67C768.86,554.98,767.91,555.5,766.53,555.5z"/>
		<path d="M771.02,567.31c0.19-0.23,0.35-0.72,0.35-1.28c0-1.22-0.84-2.19-1.88-2.51h1.63v-3.34h-9.19v3.34h4.21
			c1.55,0,2.12,0.76,2.12,2c0,0.64-0.12,1.13-0.39,1.59L771.02,567.31z"/>
		<path d="M770.63,575.39c0.47-0.78,0.74-1.83,0.74-2.95c0-2.58-1.2-4.43-3.15-4.43c-1.01,0-1.79,0.49-2.33,1.32
			c-0.37-0.99-1.05-1.57-1.94-1.57c-0.78,0-1.53,0.49-1.79,1.32c-0.08-1.03-0.72-1.75-1.53-1.75c-1.73,0-2.25,2.27-2.25,4.89
			c0,2.99,1.05,5.77,3.34,5.77c1.55,0,2.64-1.05,2.64-3.13v-3.81c0-0.56,0.25-0.78,0.56-0.78c0.19,0,0.33,0.06,0.43,0.19
			c-0.19,0.6-0.27,1.26-0.27,2c0,2.6,1.2,4.47,3.13,4.47c0.43,0,0.83-0.1,1.17-0.29c0.1,0.45,0.14,0.95,0.14,1.34h2.52
			C772.05,576.96,771.39,575.95,770.63,575.39z M761.52,574.07c0,0.56-0.14,0.85-0.54,0.85c-0.56,0-0.87-1.13-0.87-2.68
			c0-1.24,0.18-2.16,0.84-2.16c0.35,0,0.56,0.25,0.56,0.62V574.07z M768.22,573.45c-0.82,0-1.34-0.41-1.34-0.97
			c0-0.56,0.52-0.97,1.34-0.97c0.8,0,1.32,0.41,1.32,0.97C769.54,573.04,769.02,573.45,768.22,573.45z"/>
	</g>
</g>
</svg>
