<?xml version="1.0" encoding="utf-8"?>
<!-- Generator: Adobe Illustrator 23.1.1, SVG Export Plug-In . SVG Version: 6.00 Build 0)  -->
<svg version="1.1" xmlns="http://www.w3.org/2000/svg" xmlns:xlink="http://www.w3.org/1999/xlink" x="0px" y="0px"
	 viewBox="0 0 792 612" style="enable-background:new 0 0 792 612;" xml:space="preserve">
<style type="text/css">
	.st0{display:none;}
	.st1{display:inline;fill:#FFFFFF;}
	.st2{display:inline;}
	.st3{fill:#FFFFFF;stroke:#000000;stroke-width:16;stroke-linecap:round;stroke-linejoin:round;stroke-miterlimit:10;}
	.st4{fill:none;stroke:#000000;stroke-width:24;stroke-linejoin:round;stroke-miterlimit:10;}
	.st5{fill:#FFFFFF;}
	.st6{fill:#FFFFFF;stroke:#000000;stroke-width:17;stroke-linecap:round;stroke-miterlimit:10;}
	.st7{fill:#FFFFFF;stroke:#000000;stroke-width:17;stroke-miterlimit:10;}
	.st8{stroke:#000000;stroke-width:16.0572;stroke-linecap:round;stroke-miterlimit:10;}
	.st9{fill:#FFFFFF;stroke:#000000;stroke-width:13.497;stroke-linecap:round;stroke-linejoin:round;stroke-miterlimit:10;}
	.st10{stroke:#000000;stroke-width:18.3348;stroke-linecap:round;stroke-miterlimit:10;}
	.st11{fill:none;stroke:#000000;stroke-width:13.497;stroke-linecap:round;stroke-linejoin:round;stroke-miterlimit:10;}
	.st12{fill:#FFFFFF;stroke:#000000;stroke-width:14.6942;stroke-linecap:round;stroke-linejoin:round;stroke-miterlimit:10;}
	.st13{fill:none;stroke:#000000;stroke-width:13;stroke-linecap:round;stroke-linejoin:round;stroke-miterlimit:10;}
	.st14{fill:none;stroke:#000000;stroke-width:13;stroke-linejoin:round;stroke-miterlimit:10;}
	.st15{fill:url(#);stroke:#000000;stroke-width:13;stroke-linejoin:round;stroke-miterlimit:10;}
	.st16{fill:none;stroke:#000000;stroke-width:30.5612;stroke-linecap:round;stroke-linejoin:round;stroke-miterlimit:10;}
	.st17{fill:#FFFFFF;stroke:#000000;stroke-width:16.2993;stroke-linecap:round;stroke-linejoin:round;stroke-miterlimit:10;}
	.st18{fill:#FFFFFF;stroke:#000000;stroke-width:13.497;stroke-linecap:round;stroke-miterlimit:10;}
	.st19{fill:url(#);stroke:#000000;stroke-width:13.497;stroke-linecap:round;stroke-linejoin:round;stroke-miterlimit:10;}
	.st20{fill:#FFFFFF;stroke:#000000;stroke-width:11.7326;stroke-linecap:round;stroke-linejoin:round;stroke-miterlimit:10;}
	.st21{fill:#FFFFFF;stroke:#000000;stroke-width:13.2623;stroke-linecap:round;stroke-linejoin:round;stroke-miterlimit:10;}
	.st22{fill:#FFFFFF;stroke:#000000;stroke-width:13.2623;stroke-linecap:round;stroke-miterlimit:10;}
	.st23{stroke:#000000;stroke-width:4.5213;stroke-miterlimit:10;}
	.st24{fill:none;stroke:#000000;stroke-width:16;stroke-linecap:round;stroke-miterlimit:10;}
	.st25{fill:url(#);stroke:#000000;stroke-width:16;stroke-linecap:round;stroke-linejoin:round;stroke-miterlimit:10;}
	.st26{fill:#FFFFFF;stroke:#000000;stroke-width:16;stroke-linecap:round;stroke-miterlimit:10;}
	.st27{font-family:'FoundersGrotesk-Bold';}
	.st28{font-size:116px;}
	.st29{font-size:255.943px;}
	.st30{letter-spacing:6;}
	.st31{font-size:20.6105px;}
	.st32{font-size:10.3052px;}
	.st33{font-size:19.2364px;}
	.st34{font-size:10px;}
	.st35{fill:none;stroke:#000000;stroke-width:16;stroke-linecap:round;stroke-linejoin:round;stroke-miterlimit:10;}
	.st36{fill:none;stroke:#000000;stroke-width:15.2344;stroke-linecap:round;stroke-linejoin:round;stroke-miterlimit:10;}
	.st37{fill:#FFFFFF;stroke:#000000;stroke-width:15.2344;stroke-linecap:round;stroke-linejoin:round;stroke-miterlimit:10;}
	.st38{fill:#FFFFFF;stroke:#000000;stroke-width:17;stroke-linecap:round;stroke-linejoin:round;stroke-miterlimit:10;}
	.st39{fill:none;stroke:#000000;stroke-width:9.9764;stroke-linecap:round;stroke-linejoin:round;stroke-miterlimit:10;}
	.st40{fill:none;stroke:#000000;stroke-width:9.3127;stroke-linejoin:round;stroke-miterlimit:10;}
	.st41{fill:url(#);}
	.st42{fill:none;stroke:#000000;stroke-width:8.3796;stroke-linecap:round;stroke-linejoin:round;stroke-miterlimit:10;}
	
		.st43{display:inline;fill:none;stroke:#000000;stroke-width:9.9764;stroke-linecap:round;stroke-linejoin:round;stroke-miterlimit:10;}
	.st44{display:inline;fill:none;stroke:#000000;stroke-width:9.3127;stroke-linejoin:round;stroke-miterlimit:10;}
	.st45{display:inline;fill:url(#);stroke:#000000;stroke-width:10;stroke-linejoin:round;stroke-miterlimit:10;}
	.st46{fill:#FFFFFF;stroke:#000000;stroke-width:14.7375;stroke-linecap:round;stroke-linejoin:round;stroke-miterlimit:10;}
	.st47{fill:none;stroke:#000000;stroke-width:14.7375;stroke-linecap:round;stroke-linejoin:round;stroke-miterlimit:10;}
	.st48{stroke:#000000;stroke-width:14.7375;stroke-linecap:round;stroke-linejoin:round;stroke-miterlimit:10;}
	.st49{fill:#FFFFFF;stroke:#000000;stroke-width:14.2911;stroke-linecap:round;stroke-linejoin:round;stroke-miterlimit:10;}
	.st50{fill:none;stroke:#000000;stroke-width:15;stroke-linecap:round;stroke-linejoin:round;stroke-miterlimit:10;}
	.st51{fill:#FFFFFF;stroke:#000000;stroke-width:15;stroke-linecap:round;stroke-linejoin:round;stroke-miterlimit:10;}
	.st52{fill:#FFFFFF;stroke:#000000;stroke-width:14.8467;stroke-linecap:round;stroke-linejoin:round;stroke-miterlimit:10;}
	.st53{stroke:#000000;stroke-width:20.1683;stroke-linecap:round;stroke-miterlimit:10;}
	.st54{fill:none;stroke:#000000;stroke-width:14.8467;stroke-linecap:round;stroke-linejoin:round;stroke-miterlimit:10;}
	.st55{fill:none;stroke:#000000;stroke-width:13.497;stroke-miterlimit:10;}
	.st56{fill:#FFFFFF;stroke:#000000;stroke-width:13.497;stroke-miterlimit:10;}
	.st57{fill:#FFFFFF;stroke:#000000;stroke-width:14.7439;stroke-linecap:round;stroke-miterlimit:10;}
	.st58{fill:#FFFFFF;stroke:#000000;stroke-width:14.7439;stroke-miterlimit:10;}
	.st59{stroke:#000000;stroke-width:13.9262;stroke-linecap:round;stroke-miterlimit:10;}
	.st60{fill:#FFFFFF;stroke:#000000;stroke-width:17.1072;stroke-linecap:round;stroke-linejoin:round;stroke-miterlimit:10;}
	.st61{stroke:#000000;stroke-width:17.1072;stroke-linecap:round;stroke-linejoin:round;stroke-miterlimit:10;}
	.st62{fill:#FFFFFF;stroke:#000000;stroke-width:15;stroke-linecap:square;stroke-linejoin:round;stroke-miterlimit:10;}
	.st63{fill:#FFFFFF;stroke:#000000;stroke-width:15;stroke-linejoin:round;stroke-miterlimit:10;}
	.st64{fill:#FFFFFF;stroke:#000000;stroke-width:14;stroke-linecap:round;stroke-linejoin:round;stroke-miterlimit:10;}
	.st65{fill:#FFFFFF;stroke:#000000;stroke-width:13;stroke-linecap:round;stroke-linejoin:round;stroke-miterlimit:10;}
	.st66{fill:#FFFFFF;stroke:#000000;stroke-width:15.2362;stroke-linecap:round;stroke-linejoin:round;stroke-miterlimit:10;}
	.st67{fill:#FFFFFF;stroke:#FFFFFF;stroke-width:3;stroke-miterlimit:10;}
	.st68{fill:#FFFFFF;stroke:#000000;stroke-width:13.3058;stroke-linecap:round;stroke-linejoin:round;stroke-miterlimit:10;}
	.st69{fill:#FFFFFF;stroke:#000000;stroke-width:15.2517;stroke-linecap:round;stroke-linejoin:round;stroke-miterlimit:10;}
	.st70{stroke:#000000;stroke-width:3;stroke-miterlimit:10;}
</style>
<g id="unexpanded" class="st0">
	<rect x="-3937.75" y="-2593.56" class="st1" width="14663.41" height="9108.82"/>
	<g class="st2">
		<rect x="-1.17" class="st5" width="792" height="1224"/>
		<g>
			<text transform="matrix(1 0 0 1 51.76 388.0043)" class="st27 st28">for SOMEONE</text>
		</g>
		<text transform="matrix(1 0 0 1 0.7061 509.465)" class="st27 st28">You Don’t Know</text>
		<text transform="matrix(1 0 0 1 20.5205 259.5016)" class="st27 st29 st30">FIGHT</text>
		<g>
			<g>
				<text transform="matrix(1 0 0 1 262.9681 23.554)"><tspan x="0" y="0" class="st27 st31">www</tspan><tspan x="45.14" y="0" class="st27 st32"> </tspan><tspan x="46.99" y="0" class="st27 st31">.</tspan><tspan x="51.77" y="0" class="st27 st32"> </tspan><tspan x="53.63" y="0" class="st27 st31">Capitalism</tspan><tspan x="150.43" y="0" class="st27 st33"> </tspan><tspan x="153.9" y="0" class="st27 st31">Is</tspan><tspan x="168.88" y="0" class="st27 st33"> </tspan><tspan x="172.34" y="0" class="st27 st31">A</tspan><tspan x="186.6" y="0" class="st27 st32"> </tspan><tspan x="188.46" y="0" class="st27 st31">Virus</tspan><tspan x="236.15" y="0" class="st27 st32"> </tspan><tspan x="238.01" y="0" class="st27 st31">.</tspan><tspan x="242.79" y="0" class="st27 st32"> </tspan><tspan x="244.64" y="0" class="st27 st31">org</tspan></text>
			</g>
			<g>
				<text transform="matrix(1 0 0 1 303.1799 596.9929)"><tspan x="0" y="0" class="st27 st31">#</tspan><tspan x="12.7" y="0" class="st27 st34"> </tspan><tspan x="14.5" y="0" class="st27 st31">Capitalism</tspan><tspan x="111.3" y="0" class="st27 st34"> </tspan><tspan x="113.1" y="0" class="st27 st31">Is</tspan><tspan x="128.09" y="0" class="st27 st34"> </tspan><tspan x="129.89" y="0" class="st27 st31">A</tspan><tspan x="144.15" y="0" class="st27 st34"> </tspan><tspan x="145.95" y="0" class="st27 st31">Virus</tspan></text>
			</g>
		</g>
	</g>
</g>
<g id="exp_trnsp_bg">
	<g>
	</g>
	<path d="M78.38,388v-38.74h13.11v-12.99H78.38v-3.48c0-3.25,1.16-5.8,4.29-5.8c2.44,0,3.83,1.28,4.99,3.6l11.48-3.6
		c-2.09-8.58-8.82-13.46-18.56-13.46c-12.41,0-20.76,7.08-20.76,20.53v2.2H52.4v12.99h7.42V388H78.38z"/>
	<path d="M121.18,389.4c16.82,0,28.3-11.14,28.3-27.26c0-16.01-11.48-27.26-28.3-27.26c-16.94,0-28.3,11.25-28.3,27.26
		C92.88,378.26,104.25,389.4,121.18,389.4z M121.18,349.03c6.5,0,9.4,5.34,9.4,13.11c0,7.77-2.9,13.11-9.4,13.11
		c-6.61,0-9.4-5.34-9.4-13.11C111.79,354.37,114.57,349.03,121.18,349.03z"/>
	<path d="M175.71,364.34c0-8.7,4.29-11.95,11.25-11.95c3.6,0,6.38,0.7,8.93,2.2l1.16-17.75c-1.28-1.04-4.06-1.97-7.19-1.97
		c-6.84,0-12.3,4.76-14.15,10.56v-9.16h-18.79V388h18.79V364.34z"/>
	<path d="M242.98,359l13.34,2.32c5.57,1.04,9.86,1.74,9.86,6.03c0,4.06-4.41,6.5-11.25,6.5c-8.12,0-15.2-3.13-15.89-12.3l-18.1,0.58
		c0,17.63,14.15,27.26,33.99,27.26c17.05,0,30.51-7.77,30.51-23.32c0-11.95-6.96-19.95-22.27-22.62l-13.8-2.44
		c-4.52-0.81-7.31-2.09-7.31-5.45c0-4.06,3.71-6.61,10.21-6.61c7.54,0,12.99,3.48,13.57,11.02l18.1-0.35
		c-0.35-16.24-11.25-26.1-31.44-26.1c-18.21,0-29.81,8.93-29.81,23.78C222.68,350.07,231.04,356.8,242.98,359z"/>
	<path d="M329.17,313.53c-21.23,0-37.93,15.43-37.93,37.93s16.7,37.93,37.93,37.93s37.93-15.43,37.93-37.93
		S350.4,313.53,329.17,313.53z M329.17,372c-10.79,0-17.63-8.12-17.63-20.53s6.84-20.53,17.63-20.53c10.79,0,17.63,8.12,17.63,20.53
		S339.96,372,329.17,372z"/>
	<polygon points="374.99,314.93 374.99,388 393.08,388 393.08,336.62 393.55,336.62 406.66,388 423.48,388 436.58,336.62 
		437.05,336.62 437.05,388 456.77,388 456.77,314.93 426.96,314.93 416.63,360.86 416.28,360.86 405.5,314.93 	"/>
	<polygon points="524.39,331.17 524.39,314.93 467.9,314.93 467.9,388 525.44,388 525.44,371.76 487.28,371.76 487.28,359.12 
		515.93,359.12 515.93,343.11 487.28,343.11 487.28,331.17 	"/>
	<path d="M529.27,351.47c0,22.5,16.7,37.93,37.93,37.93s37.93-15.43,37.93-37.93s-16.7-37.93-37.93-37.93
		S529.27,328.96,529.27,351.47z M584.83,351.47c0,12.41-6.84,20.53-17.63,20.53c-10.79,0-17.63-8.12-17.63-20.53
		s6.84-20.53,17.63-20.53C577.99,330.93,584.83,339.05,584.83,351.47z"/>
	<polygon points="631.11,344.74 662.66,388 678.44,388 678.44,314.93 660.34,314.93 660.34,355.41 631.81,314.93 613.02,314.93 
		613.02,388 631.11,388 	"/>
	<polygon points="746.07,331.17 746.07,314.93 689.58,314.93 689.58,388 747.11,388 747.11,371.76 708.95,371.76 708.95,359.12 
		737.6,359.12 737.6,343.11 708.95,343.11 708.95,331.17 	"/>
	<polygon points="34.58,509.47 53.72,509.47 53.72,481.74 81.79,436.39 60.56,436.39 44.9,462.72 28.43,436.39 6.51,436.39 
		34.58,481.74 	"/>
	<path d="M73.09,483.6c0,16.12,11.37,27.26,28.3,27.26c16.82,0,28.3-11.14,28.3-27.26c0-16.01-11.48-27.26-28.3-27.26
		C84.46,456.34,73.09,467.59,73.09,483.6z M101.39,470.49c6.5,0,9.4,5.34,9.4,13.11c0,7.77-2.9,13.11-9.4,13.11
		c-6.61,0-9.4-5.34-9.4-13.11C92,475.83,94.78,470.49,101.39,470.49z"/>
	<path d="M136.54,457.73v32.6c0,10.79,4.29,20.53,18.44,20.53c7.77,0,13.46-3.36,16.24-9.16v7.77h18.79v-51.73h-18.79v25.4
		c0,7.89-2.32,12.99-8.24,12.99c-5.68,0-7.66-3.83-7.66-10.79v-27.61H136.54z"/>
	<path d="M289.66,472.93c0-22.85-14.96-36.54-39.21-36.54h-28.88v73.08h28.88C274.69,509.47,289.66,495.78,289.66,472.93z
		 M249.06,493.92h-7.77v-41.99h7.77c12.76,0,20.3,7.66,20.3,20.88C269.36,486.27,261.82,493.92,249.06,493.92z"/>
	<path d="M351.48,483.6c0-16.01-11.48-27.26-28.3-27.26c-16.94,0-28.3,11.25-28.3,27.26c0,16.12,11.37,27.26,28.3,27.26
		C340,510.86,351.48,499.72,351.48,483.6z M323.18,496.71c-6.61,0-9.4-5.34-9.4-13.11c0-7.77,2.78-13.11,9.4-13.11
		c6.5,0,9.4,5.34,9.4,13.11C332.58,491.37,329.68,496.71,323.18,496.71z"/>
	<path d="M358.91,457.73v51.73h18.79v-25.4c0-7.77,2.55-12.88,8.93-12.88c5.68,0,7.66,3.71,7.66,10.79v27.49h18.79v-32.48
		c0-10.79-4.52-20.65-18.68-20.65c-7.77,0-13.92,3.48-16.7,9.16v-7.77H358.91z"/>
	<path d="M419.93,460.17v8.93c12.99-0.35,19.6-5.1,19.6-16.47v-16.24h-19.6v17.4h8.82C428.62,458.43,425.49,459.93,419.93,460.17z"
		/>
	<path d="M454.96,450.19c-1.28,4.76-2.9,7.54-8.12,8.35l-3.83,0.58v11.6h6.96v24.36c0,12.18,8.24,15.78,16.94,15.78
		c7.08,0,11.6-1.74,15.54-4.64v-12.18c-3.13,1.28-5.68,1.74-8,1.74c-3.83,0-5.92-1.74-5.92-6.15v-18.91h13.46v-12.99h-13.46v-14.27
		H456.7L454.96,450.19z"/>
	<polygon points="510.98,436.39 510.98,509.47 530.7,509.47 530.7,487.31 537.08,480.35 557.38,509.47 580.93,509.47 551.35,467.47 
		579.54,436.39 556.92,436.39 530.7,465.97 530.7,436.39 	"/>
	<path d="M603.66,457.73h-18.79v51.73h18.79v-25.4c0-7.77,2.55-12.88,8.93-12.88c5.68,0,7.66,3.71,7.66,10.79v27.49h18.79v-32.48
		c0-10.79-4.52-20.65-18.68-20.65c-7.77,0-13.92,3.48-16.7,9.16V457.73z"/>
	<path d="M645.89,483.6c0,16.12,11.37,27.26,28.3,27.26c16.82,0,28.3-11.14,28.3-27.26c0-16.01-11.48-27.26-28.3-27.26
		C657.25,456.34,645.89,467.59,645.89,483.6z M683.59,483.6c0,7.77-2.9,13.11-9.4,13.11c-6.61,0-9.4-5.34-9.4-13.11
		c0-7.77,2.78-13.11,9.4-13.11C680.69,470.49,683.59,475.83,683.59,483.6z"/>
	<polygon points="763.05,487.08 755.51,457.73 740.54,457.73 733,487.08 732.54,487.08 723.26,457.73 704.58,457.73 720.94,509.47 
		739.38,509.47 746.92,480.23 747.39,480.23 754.93,509.47 773.37,509.47 789.73,457.73 772.79,457.73 763.51,487.08 	"/>
	<polygon points="76.31,200.38 135.18,200.38 135.18,165.06 76.31,165.06 76.31,134.09 154.63,134.09 154.63,98.26 32.81,98.26 
		32.81,259.5 76.31,259.5 	"/>
	<rect x="179.72" y="98.26" width="43.51" height="161.24"/>
	<path d="M325.34,262.57c20.73,0,37.88-6.14,46.84-20.99v17.92h37.88v-83.69h-76.78v31.22h35.57c-6.4,12.8-20.22,18.68-34.29,18.68
		c-27.9,0-42.74-18.68-42.74-46.84c0-27.39,14.08-45.04,39.41-45.04c20.73,0,33.02,11.26,35.32,28.92l42.23-1.54
		c-3.58-40.18-31.22-66.03-78.57-66.03c-46.58,0-83.18,34.04-83.18,83.69C247.03,228.79,280.81,262.57,325.34,262.57z"/>
	<polygon points="483.26,98.26 439.75,98.26 439.75,259.5 483.26,259.5 483.26,195.77 547.5,195.77 547.5,259.5 591.01,259.5 
		591.01,98.26 547.5,98.26 547.5,160.46 483.26,160.46 	"/>
	<polygon points="671.38,259.5 714.63,259.5 714.63,134.09 770.68,134.09 770.68,98.26 616.09,98.26 616.09,134.09 671.38,134.09 	
		"/>
	<polygon points="269.16,23.55 270.5,18.36 270.58,18.36 271.92,23.55 275.2,23.55 278.07,14.5 280.93,23.55 284.21,23.55 
		285.55,18.36 285.63,18.36 286.97,23.55 290.25,23.55 293.11,14.5 295.98,23.55 299.25,23.55 300.59,18.36 300.68,18.36 
		302.02,23.55 305.29,23.55 308.2,14.36 305.19,14.36 303.54,19.58 303.46,19.58 302.12,14.36 299.46,14.36 298.12,19.58 
		298.04,19.58 296.39,14.36 293.16,14.36 293.07,14.36 290.15,14.36 288.5,19.58 288.41,19.58 287.07,14.36 284.41,14.36 
		283.07,19.58 282.99,19.58 281.34,14.36 278.11,14.36 278.02,14.36 275.1,14.36 273.45,19.58 273.37,19.58 272.03,14.36 
		269.37,14.36 268.03,19.58 267.95,19.58 266.3,14.36 262.98,14.36 265.88,23.55 	"/>
	<rect x="310.63" y="20.01" width="3.55" height="3.55"/>
	<path d="M323.72,23.8c3.98,0,6.1-2.52,6.35-5.75l-3.36-0.14c-0.21,1.44-0.99,2.78-3.01,2.78c-1.92,0-3.03-1.42-3.03-3.63
		s1.11-3.63,3.03-3.63c2.02,0,2.8,1.34,3.01,2.78l3.36-0.12c-0.25-3.24-2.37-5.77-6.35-5.77c-3.79,0-6.66,2.74-6.66,6.74
		S319.93,23.8,323.72,23.8z"/>
	<path d="M334.08,18.38c-2,0.35-3.28,1.11-3.28,2.89c0,1.57,1.18,2.49,2.97,2.49c1.46,0,2.51-0.56,3.05-1.63
		c0.31,1.05,1.2,1.63,2.33,1.63c0.95,0,1.61-0.27,2.08-0.6v-1.77c-0.27,0.1-0.47,0.14-0.74,0.14c-0.35,0-0.56-0.21-0.56-0.68v-3.13
		c0-2.56-1.79-3.61-4.23-3.61c-2.76,0-4.27,1.4-4.56,3.42l3.09,0.21c0.14-0.68,0.52-1.15,1.26-1.15c0.8,0,1.15,0.45,1.15,1.22v0.14
		L334.08,18.38z M336.66,19.72c0,1.2-0.76,1.9-1.71,1.9c-0.56,0-0.93-0.31-0.93-0.78c0-0.6,0.47-0.85,1.28-1.01l1.36-0.25V19.72z"/>
	<path d="M345.54,21.99c0.45,1.07,1.48,1.81,3.03,1.81c2.7,0,4.08-2.12,4.08-4.84c0-2.7-1.38-4.84-4.08-4.84
		c-1.55,0-2.58,0.74-3.03,1.83v-1.59h-3.34v12.49h3.34V21.99z M345.54,18.9c0-1.32,0.72-2.19,1.85-2.19c1.3,0,1.9,0.93,1.9,2.25
		c0,1.34-0.6,2.27-1.9,2.27c-1.13,0-1.85-0.87-1.85-2.21V18.9z"/>
	<rect x="353.95" y="10.57" width="3.38" height="2.93"/>
	<rect x="353.97" y="14.36" width="3.34" height="9.19"/>
	<path d="M359.46,21c0,2.16,1.46,2.8,3.01,2.8c1.26,0,2.06-0.31,2.76-0.82v-2.16c-0.56,0.23-1.01,0.31-1.42,0.31
		c-0.68,0-1.05-0.31-1.05-1.09v-3.36h2.39v-2.31h-2.39v-2.54h-2.1l-0.31,1.2c-0.23,0.85-0.52,1.34-1.44,1.48l-0.68,0.1v2.06h1.24V21
		z"/>
	<path d="M369.25,18.38c-2,0.35-3.28,1.11-3.28,2.89c0,1.57,1.17,2.49,2.97,2.49c1.46,0,2.51-0.56,3.05-1.63
		c0.31,1.05,1.2,1.63,2.33,1.63c0.95,0,1.61-0.27,2.08-0.6v-1.77c-0.27,0.1-0.47,0.14-0.74,0.14c-0.35,0-0.56-0.21-0.56-0.68v-3.13
		c0-2.56-1.79-3.61-4.23-3.61c-2.76,0-4.27,1.4-4.56,3.42l3.09,0.21c0.14-0.68,0.52-1.15,1.26-1.15c0.8,0,1.15,0.45,1.15,1.22v0.14
		L369.25,18.38z M371.82,19.72c0,1.2-0.76,1.9-1.71,1.9c-0.56,0-0.93-0.31-0.93-0.78c0-0.6,0.47-0.85,1.28-1.01l1.36-0.25V19.72z"/>
	<rect x="377.37" y="10.57" width="3.34" height="12.99"/>
	<rect x="382.5" y="10.57" width="3.38" height="2.93"/>
	<rect x="382.52" y="14.36" width="3.34" height="9.19"/>
	<path d="M391.67,21.72c-1.01,0-1.63-0.43-1.75-1.2l-2.91,0.04c0.19,2.23,2.08,3.24,4.62,3.24c2.62,0,4.27-1.11,4.27-3.05
		c0-1.79-1.2-2.72-3.26-3.05l-1.79-0.31c-0.31-0.04-0.56-0.21-0.56-0.52c0-0.41,0.37-0.66,1.01-0.66c1.03,0,1.61,0.41,1.73,1.07
		l2.74-0.08c-0.19-1.92-1.75-3.09-4.41-3.09c-2.58,0-4.16,1.3-4.16,3.11c0,1.88,1.17,2.6,3.4,2.95l1.36,0.21
		c0.64,0.1,0.85,0.35,0.85,0.7C392.8,21.45,392.41,21.72,391.67,21.72z"/>
	<path d="M400.51,19.04c0-1.38,0.39-2.29,1.48-2.29c1.01,0,1.26,0.66,1.26,1.92v4.89h3.34v-4.51c0-1.38,0.37-2.29,1.48-2.29
		c1.01,0,1.24,0.66,1.24,1.92v4.89h3.34v-5.77c0-1.92-0.74-3.67-3.28-3.67c-1.55,0-2.64,0.78-3.13,1.81
		c-0.39-1.07-1.24-1.81-2.87-1.81c-1.38,0-2.37,0.62-2.87,1.63v-1.38h-3.34v9.19h3.34V19.04z"/>
	<rect x="417.91" y="10.57" width="3.5" height="12.99"/>
	<path d="M427.3,21.72c-1.01,0-1.63-0.43-1.75-1.2l-2.91,0.04c0.19,2.23,2.08,3.24,4.62,3.24c2.62,0,4.27-1.11,4.27-3.05
		c0-1.79-1.2-2.72-3.26-3.05l-1.79-0.31c-0.31-0.04-0.56-0.21-0.56-0.52c0-0.41,0.37-0.66,1.01-0.66c1.03,0,1.61,0.41,1.73,1.07
		l2.74-0.08c-0.19-1.92-1.75-3.09-4.41-3.09c-2.58,0-4.16,1.3-4.16,3.11c0,1.88,1.17,2.6,3.4,2.95l1.36,0.21
		c0.64,0.1,0.84,0.35,0.84,0.7C428.44,21.45,428.05,21.72,427.3,21.72z"/>
	<path d="M439.86,21.04h5.07l0.97,2.52h3.73l-5.17-12.99h-3.92l-5.17,12.99h3.53L439.86,21.04z M442.35,14.59h0.08l1.48,3.83h-3.05
		L442.35,14.59z"/>
	<polygon points="460.16,23.55 465.15,10.57 461.66,10.57 458.45,19.2 458.36,19.2 455.15,10.57 451.48,10.57 456.47,23.55 	"/>
	<rect x="466.05" y="14.36" width="3.34" height="9.19"/>
	<rect x="466.03" y="10.57" width="3.38" height="2.93"/>
	<path d="M474.54,19.35c0-1.55,0.76-2.12,2-2.12c0.64,0,1.13,0.12,1.59,0.39l0.21-3.15c-0.23-0.19-0.72-0.35-1.28-0.35
		c-1.22,0-2.19,0.85-2.52,1.88v-1.63h-3.34v9.19h3.34V19.35z"/>
	<path d="M482.54,23.8c1.38,0,2.39-0.6,2.89-1.63v1.38h3.34v-9.19h-3.34v4.51c0,1.4-0.41,2.31-1.46,2.31
		c-1.01,0-1.36-0.68-1.36-1.92v-4.91h-3.34v5.79C479.26,22.07,480.02,23.8,482.54,23.8z"/>
	<path d="M494.58,21.72c-1.01,0-1.63-0.43-1.75-1.2l-2.91,0.04c0.19,2.23,2.08,3.24,4.62,3.24c2.62,0,4.27-1.11,4.27-3.05
		c0-1.79-1.2-2.72-3.26-3.05l-1.79-0.31c-0.31-0.04-0.56-0.21-0.56-0.52c0-0.41,0.37-0.66,1.01-0.66c1.03,0,1.61,0.41,1.73,1.07
		l2.74-0.08c-0.19-1.92-1.75-3.09-4.41-3.09c-2.58,0-4.16,1.3-4.16,3.11c0,1.88,1.18,2.6,3.4,2.95l1.36,0.21
		c0.64,0.1,0.84,0.35,0.84,0.7C495.71,21.45,495.32,21.72,494.58,21.72z"/>
	<rect x="501.64" y="20.01" width="3.55" height="3.55"/>
	<path d="M513.1,23.8c2.99,0,5.03-1.98,5.03-4.84c0-2.84-2.04-4.84-5.03-4.84c-3.01,0-5.03,2-5.03,4.84
		C508.08,21.82,510.1,23.8,513.1,23.8z M513.1,16.63c1.15,0,1.67,0.95,1.67,2.33c0,1.38-0.52,2.33-1.67,2.33
		c-1.18,0-1.67-0.95-1.67-2.33C511.44,17.58,511.93,16.63,513.1,16.63z"/>
	<path d="M522.79,19.35c0-1.55,0.76-2.12,2-2.12c0.64,0,1.13,0.12,1.59,0.39l0.21-3.15c-0.23-0.19-0.72-0.35-1.28-0.35
		c-1.22,0-2.19,0.85-2.51,1.88v-1.63h-3.34v9.19h3.34V19.35z"/>
	<path d="M526.6,24.85c0,1.73,2.27,2.25,4.89,2.25c2.99,0,5.77-1.05,5.77-3.34c0-1.55-1.05-2.64-3.13-2.64h-3.81
		c-0.56,0-0.78-0.25-0.78-0.56c0-0.19,0.06-0.33,0.19-0.43c0.6,0.19,1.26,0.27,2,0.27c2.6,0,4.47-1.2,4.47-3.13
		c0-0.43-0.1-0.82-0.29-1.17c0.45-0.1,0.95-0.14,1.34-0.14v-2.51c-1.01,0-2.02,0.66-2.58,1.42c-0.78-0.47-1.83-0.74-2.95-0.74
		c-2.58,0-4.43,1.2-4.43,3.15c0,1.01,0.5,1.79,1.32,2.33c-0.99,0.37-1.57,1.05-1.57,1.94c0,0.78,0.49,1.53,1.32,1.79
		C527.33,23.41,526.6,24.05,526.6,24.85z M531.76,15.95c0.56,0,0.97,0.52,0.97,1.32c0,0.82-0.41,1.34-0.97,1.34
		s-0.97-0.52-0.97-1.34C530.79,16.46,531.2,15.95,531.76,15.95z M529.96,23.97h3.38c0.56,0,0.85,0.14,0.85,0.54
		c0,0.56-1.13,0.87-2.68,0.87c-1.24,0-2.16-0.19-2.16-0.84C529.35,24.17,529.59,23.97,529.96,23.97z"/>
	<path d="M315.03,589.49l0.43-2.06h-1.83l0.82-3.42h-2.49l-0.82,3.42h-1.77l0.82-3.42h-2.49l-0.82,3.42h-2.02l-0.43,2.06h1.98
		l-0.49,2.02h-1.88l-0.43,2.06h1.81l-0.8,3.42h2.49l0.8-3.42h1.77l-0.8,3.42h2.49l0.8-3.42h2.04l0.43-2.06h-1.98l0.49-2.02H315.03z
		 M310.17,591.51h-1.77l0.49-2.02h1.77L310.17,591.51z"/>
	<path d="M324.73,586.87c2.02,0,2.8,1.34,3.01,2.78l3.36-0.12c-0.25-3.24-2.37-5.77-6.35-5.77c-3.79,0-6.66,2.74-6.66,6.74
		c0,4,2.87,6.74,6.66,6.74c3.98,0,6.1-2.52,6.35-5.75l-3.36-0.14c-0.21,1.44-0.99,2.78-3.01,2.78c-1.92,0-3.03-1.42-3.03-3.63
		C321.7,588.29,322.81,586.87,324.73,586.87z"/>
	<path d="M335.11,591.82c-2,0.35-3.28,1.11-3.28,2.89c0,1.57,1.18,2.49,2.97,2.49c1.46,0,2.51-0.56,3.05-1.63
		c0.31,1.05,1.2,1.63,2.33,1.63c0.95,0,1.61-0.27,2.08-0.6v-1.77c-0.27,0.1-0.47,0.14-0.74,0.14c-0.35,0-0.56-0.21-0.56-0.68v-3.13
		c0-2.56-1.79-3.61-4.23-3.61c-2.76,0-4.27,1.4-4.56,3.42l3.09,0.21c0.14-0.68,0.52-1.15,1.26-1.15c0.8,0,1.15,0.45,1.15,1.22v0.14
		L335.11,591.82z M337.69,593.16c0,1.2-0.76,1.9-1.71,1.9c-0.56,0-0.93-0.31-0.93-0.78c0-0.6,0.47-0.85,1.28-1.01l1.36-0.25V593.16z
		"/>
	<path d="M346.57,595.43c0.45,1.07,1.48,1.81,3.03,1.81c2.7,0,4.08-2.12,4.08-4.84c0-2.7-1.38-4.84-4.08-4.84
		c-1.55,0-2.58,0.74-3.03,1.83v-1.59h-3.34v12.49h3.34V595.43z M346.57,592.33c0-1.32,0.72-2.19,1.86-2.19c1.3,0,1.9,0.93,1.9,2.25
		c0,1.34-0.6,2.27-1.9,2.27c-1.13,0-1.86-0.87-1.86-2.21V592.33z"/>
	<rect x="355" y="587.8" width="3.34" height="9.19"/>
	<rect x="354.98" y="584.01" width="3.38" height="2.93"/>
	<path d="M363.49,597.24c1.26,0,2.06-0.31,2.76-0.82v-2.16c-0.56,0.23-1.01,0.31-1.42,0.31c-0.68,0-1.05-0.31-1.05-1.09v-3.36h2.39
		v-2.31h-2.39v-2.54h-2.1l-0.31,1.2c-0.23,0.85-0.52,1.34-1.44,1.48l-0.68,0.1v2.06h1.24v4.33
		C360.48,596.6,361.95,597.24,363.49,597.24z"/>
	<path d="M370.27,591.82c-2,0.35-3.28,1.11-3.28,2.89c0,1.57,1.17,2.49,2.97,2.49c1.46,0,2.51-0.56,3.05-1.63
		c0.31,1.05,1.2,1.63,2.33,1.63c0.95,0,1.61-0.27,2.08-0.6v-1.77c-0.27,0.1-0.47,0.14-0.74,0.14c-0.35,0-0.56-0.21-0.56-0.68v-3.13
		c0-2.56-1.79-3.61-4.23-3.61c-2.76,0-4.27,1.4-4.56,3.42l3.09,0.21c0.14-0.68,0.52-1.15,1.26-1.15c0.8,0,1.15,0.45,1.15,1.22v0.14
		L370.27,591.82z M372.85,593.16c0,1.2-0.76,1.9-1.71,1.9c-0.56,0-0.93-0.31-0.93-0.78c0-0.6,0.47-0.85,1.28-1.01l1.36-0.25V593.16z
		"/>
	<rect x="378.39" y="584.01" width="3.34" height="12.99"/>
	<rect x="383.55" y="587.8" width="3.34" height="9.19"/>
	<rect x="383.53" y="584.01" width="3.38" height="2.93"/>
	<path d="M392.7,595.16c-1.01,0-1.63-0.43-1.75-1.2l-2.91,0.04c0.19,2.23,2.08,3.24,4.62,3.24c2.62,0,4.27-1.11,4.27-3.05
		c0-1.79-1.2-2.72-3.26-3.05l-1.79-0.31c-0.31-0.04-0.56-0.21-0.56-0.52c0-0.41,0.37-0.66,1.01-0.66c1.03,0,1.61,0.41,1.73,1.07
		l2.74-0.08c-0.19-1.92-1.75-3.09-4.41-3.09c-2.58,0-4.16,1.3-4.16,3.11c0,1.88,1.17,2.6,3.4,2.95l1.36,0.21
		c0.64,0.1,0.85,0.35,0.85,0.7C393.83,594.89,393.44,595.16,392.7,595.16z"/>
	<path d="M410.4,587.55c-1.55,0-2.64,0.78-3.13,1.81c-0.39-1.07-1.24-1.81-2.87-1.81c-1.38,0-2.37,0.62-2.87,1.63v-1.38h-3.34v9.19
		h3.34v-4.51c0-1.38,0.39-2.29,1.48-2.29c1.01,0,1.26,0.66,1.26,1.92v4.89h3.34v-4.51c0-1.38,0.37-2.29,1.48-2.29
		c1.01,0,1.24,0.66,1.24,1.92v4.89h3.34v-5.77C413.68,589.3,412.94,587.55,410.4,587.55z"/>
	<rect x="417.27" y="584.01" width="3.5" height="12.99"/>
	<path d="M430.9,594.19c0-1.79-1.2-2.72-3.26-3.05l-1.79-0.31c-0.31-0.04-0.56-0.21-0.56-0.52c0-0.41,0.37-0.66,1.01-0.66
		c1.03,0,1.61,0.41,1.73,1.07l2.74-0.08c-0.19-1.92-1.75-3.09-4.41-3.09c-2.58,0-4.16,1.3-4.16,3.11c0,1.88,1.17,2.6,3.4,2.95
		l1.36,0.21c0.64,0.1,0.85,0.35,0.85,0.7c0,0.37-0.39,0.64-1.13,0.64c-1.01,0-1.63-0.43-1.75-1.2l-2.91,0.04
		c0.19,2.23,2.08,3.24,4.62,3.24C429.25,597.24,430.9,596.13,430.9,594.19z"/>
	<path d="M438.24,584.01l-5.17,12.99h3.53l0.97-2.51h5.07l0.97,2.51h3.73l-5.17-12.99H438.24z M438.57,591.86l1.48-3.83h0.08
		l1.48,3.83H438.57z"/>
	<polygon points="456.01,592.64 452.8,584.01 449.13,584.01 454.12,596.99 457.81,596.99 462.8,584.01 459.31,584.01 456.1,592.64 	
		"/>
	<rect x="463.68" y="584.01" width="3.38" height="2.93"/>
	<rect x="463.7" y="587.8" width="3.34" height="9.19"/>
	<path d="M468.85,587.8v9.19h3.34v-4.21c0-1.55,0.76-2.12,2-2.12c0.64,0,1.13,0.12,1.59,0.39l0.21-3.15
		c-0.23-0.19-0.72-0.35-1.28-0.35c-1.22,0-2.19,0.85-2.52,1.88v-1.63H468.85z"/>
	<path d="M486.41,596.99v-9.19h-3.34v4.51c0,1.4-0.41,2.31-1.46,2.31c-1.01,0-1.36-0.68-1.36-1.92v-4.91h-3.34v5.79
		c0,1.92,0.76,3.65,3.28,3.65c1.38,0,2.39-0.6,2.89-1.63v1.38H486.41z"/>
	<path d="M492.22,595.16c-1.01,0-1.63-0.43-1.75-1.2l-2.91,0.04c0.19,2.23,2.08,3.24,4.62,3.24c2.62,0,4.27-1.11,4.27-3.05
		c0-1.79-1.2-2.72-3.26-3.05l-1.79-0.31c-0.31-0.04-0.56-0.21-0.56-0.52c0-0.41,0.37-0.66,1.01-0.66c1.03,0,1.61,0.41,1.73,1.07
		l2.74-0.08c-0.19-1.92-1.75-3.09-4.41-3.09c-2.58,0-4.16,1.3-4.16,3.11c0,1.88,1.18,2.6,3.4,2.95l1.36,0.21
		c0.64,0.1,0.84,0.35,0.84,0.7C493.36,594.89,492.97,595.16,492.22,595.16z"/>
</g>
<g id="exp_white_bg" class="st0">
	<g class="st2">
		<path class="st5" d="M370.21,594.27c0,0.47,0.37,0.78,0.93,0.78c0.95,0,1.71-0.7,1.71-1.9v-0.14l-1.36,0.25
			C370.69,593.43,370.21,593.67,370.21,594.27z"/>
		<path class="st5" d="M249.06,451.93h-7.77v41.99h7.77c12.76,0,20.3-7.66,20.3-21.11C269.36,459.59,261.82,451.93,249.06,451.93z"
			/>
		<polygon class="st5" points="440.05,588.03 438.57,591.86 441.62,591.86 440.14,588.03 		"/>
		<polygon class="st5" points="308.4,591.51 310.17,591.51 310.66,589.49 308.89,589.49 		"/>
		<path class="st5" d="M329.17,330.93c-10.79,0-17.63,8.12-17.63,20.53S318.38,372,329.17,372c10.79,0,17.63-8.12,17.63-20.53
			S339.96,330.93,329.17,330.93z"/>
		<path class="st5" d="M335.05,594.27c0,0.47,0.37,0.78,0.93,0.78c0.95,0,1.71-0.7,1.71-1.9v-0.14l-1.36,0.25
			C335.53,593.43,335.05,593.67,335.05,594.27z"/>
		<path class="st5" d="M348.43,594.66c1.3,0,1.9-0.93,1.9-2.27c0-1.32-0.6-2.25-1.9-2.25c-1.13,0-1.86,0.87-1.86,2.19v0.12
			C346.57,593.8,347.29,594.66,348.43,594.66z"/>
		<path class="st5" d="M101.39,496.71c6.5,0,9.4-5.34,9.4-13.11c0-7.77-2.9-13.11-9.4-13.11c-6.61,0-9.4,5.34-9.4,13.11
			C92,491.37,94.78,496.71,101.39,496.71z"/>
		<path class="st5" d="M323.18,470.49c-6.61,0-9.4,5.34-9.4,13.11c0,7.77,2.78,13.11,9.4,13.11c6.5,0,9.4-5.34,9.4-13.11
			C332.58,475.83,329.68,470.49,323.18,470.49z"/>
		<path class="st5" d="M121.18,375.24c6.5,0,9.4-5.34,9.4-13.11c0-7.77-2.9-13.11-9.4-13.11c-6.61,0-9.4,5.34-9.4,13.11
			C111.79,369.91,114.57,375.24,121.18,375.24z"/>
		<path class="st5" d="M369.18,20.83c0,0.47,0.37,0.78,0.93,0.78c0.95,0,1.71-0.7,1.71-1.9v-0.14l-1.36,0.25
			C369.66,19.99,369.18,20.24,369.18,20.83z"/>
		<path class="st5" d="M549.57,351.47c0,12.41,6.84,20.53,17.63,20.53c10.79,0,17.63-8.12,17.63-20.53s-6.84-20.53-17.63-20.53
			C556.41,330.93,549.57,339.05,549.57,351.47z"/>
		<polygon class="st5" points="442.43,14.59 442.35,14.59 440.87,18.42 443.92,18.42 		"/>
		<path class="st5" d="M531.76,18.61c0.56,0,0.97-0.52,0.97-1.34c0-0.8-0.41-1.32-0.97-1.32s-0.97,0.52-0.97,1.32
			C530.79,18.09,531.2,18.61,531.76,18.61z"/>
		<path class="st5" d="M513.1,21.29c1.15,0,1.67-0.95,1.67-2.33c0-1.38-0.52-2.33-1.67-2.33c-1.18,0-1.67,0.95-1.67,2.33
			C511.44,20.34,511.93,21.29,513.1,21.29z"/>
		<path class="st5" d="M-1.17,1224h792V0h-792V1224z M393.33,964.54l-29.12,29.12c4.03,1.36,7.81,3.65,11.02,6.85
			c11.13,11.13,11.17,29.21,0.11,40.38c-1.64,1.77-23.11,24.81-63.42,65.16c-14.12,14.22-28.94,28.65-40.45,38.68
			c-20.55,17.91-40.39,25.49-60.65,23.17c-2.59-0.3-5.26,0.15-7.78,1.23c-2.32,1-4.52,2.53-6.38,4.54
			c-0.48,0.52-0.97,1.05-1.47,1.59c-3.97,4.33-8.48,9.42-13.62,15.22c-4.59,5.19-9.8,11.08-15.72,17.66
			c-1.58,1.75-3.76,2.65-5.95,2.65c-1.91,0-3.82-0.68-5.35-2.05c-3.28-2.96-3.55-8.01-0.59-11.3c5.88-6.53,11.06-12.39,15.63-17.56
			c5.85-6.61,10.89-12.32,15.35-17.11c7.33-7.89,17.69-11.91,27.7-10.76c4.27,0.49,8.5,0.37,12.76-0.32
			c11.45-1.87,23.02-8.08,35.56-19.02c11.71-10.2,27.26-25.44,41.89-40.22l0.01,0.03c40.05-40.15,60.64-62.35,60.85-62.57
			c0.07-0.08,0.14-0.15,0.21-0.22c4.93-4.93,4.93-12.94,0-17.87c-4.93-4.93-12.94-4.93-17.87,0l-46.15,46.15
			c-0.39,0.39-0.81,0.73-1.25,1.03c-0.84,0.56-1.77,0.93-2.73,1.14v0c-0.55,0.12-1.11,0.18-1.68,0.18c-1.54,0-3.07-0.44-4.4-1.32
			c-0.44-0.29-0.86-0.63-1.25-1.03c-3.12-3.12-3.12-8.19,0-11.31l0.56-0.56l92.88-92.88c2.55-2.55,3.95-5.94,3.95-9.54
			c0-3.6-1.4-6.99-3.95-9.54c-2.55-2.55-5.94-3.95-9.54-3.95c-3.6,0-6.99,1.4-9.54,3.95l-90.42,90.42
			c-0.19,0.19-0.39,0.37-0.59,0.53c-3.14,2.58-7.79,2.4-10.73-0.53c-3.12-3.12-3.12-8.19,0-11.31l12.72-12.72l0.03,0.02
			c0.14-0.17,0.29-0.34,0.45-0.5l93.44-93.44c5.26-5.26,5.26-13.82,0-19.09c-2.55-2.55-5.94-3.95-9.54-3.95s-6.99,1.4-9.54,3.95
			l-15.61,15.61l-79.93,79.93l-0.48,0.48l-9.3,9.3c-1.56,1.56-3.61,2.34-5.66,2.34s-4.09-0.78-5.66-2.34
			c-2.41-2.41-2.95-5.97-1.64-8.91c0.39-0.87,0.93-1.69,1.64-2.4l9.3-9.3l80.41-80.41c4.93-4.93,4.93-12.94,0-17.87
			c-4.93-4.93-12.94-4.93-17.87,0l-98.72,98.72l-0.73,0.73c-0.46,2.24-0.85,4.11-1.16,5.54c4.87,8.56,16.11,33.35,4.57,64.24
			c-1.55,4.14-6.16,6.24-10.29,4.69c-1.65-0.62-2.97-1.73-3.87-3.09c-1.36-2.06-1.75-4.71-0.82-7.2c11.01-29.48-4-51.68-4.64-52.61
			c-1.28-1.84-1.74-4.17-1.25-6.35c0.07-0.29,6.59-29.36,10.3-60.15c0.89-7.37-3.2-12.37-5.72-14.7c-4.69-4.33-10.16-5.66-13.3-5.07
			c-0.58,0.88-1.42,3.44-2.04,5.34c-0.77,2.37-1.65,5.05-2.93,8.06c-6.38,15.02-20.69,49.58-21.75,52.15
			c-0.75,2.04-7.4,19.71-21.26,46.49c-6.88,13.3-4.6,43.95-3.14,54.64c0.34,2.48-0.5,4.97-2.27,6.74
			c-8.33,8.33-18.66,17.9-32.95,31.15c-9.17,8.5-19.6,18.17-31.79,29.63c-9.64,9.06-20.38,19.24-32.48,30.86
			c-1.55,1.49-3.55,2.23-5.54,2.23c-2.1,0-4.2-0.82-5.77-2.46c-3.06-3.19-2.96-8.25,0.23-11.31c27.52-26.42,48.02-45.42,64.48-60.68
			c12.6-11.68,22.1-20.48,29.75-28c-1.26-11.55-3.63-42.96,5.27-60.15c13.92-26.89,20.43-44.61,20.5-44.79
			c0.04-0.11,0.08-0.21,0.12-0.32c0.15-0.37,15.25-36.84,21.87-52.43c1.01-2.38,1.74-4.62,2.45-6.78c2.06-6.3,4.63-14.14,14-16.03
			c8.82-1.78,19.58,1.75,27.41,8.98c8.1,7.49,12.02,17.83,10.75,28.37c-1.06,8.82-2.34,17.43-3.62,25.29l83.03-83.03
			c11.17-11.17,29.33-11.17,40.5,0c3.27,3.27,5.57,7.13,6.92,11.25c5.18-4.09,11.53-6.31,18.23-6.31c7.88,0,15.29,3.07,20.86,8.64
			c5.57,5.57,8.64,12.98,8.64,20.86c0,6.81-2.29,13.26-6.51,18.48c4.41,1.37,8.56,3.8,12.05,7.28c5.57,5.57,8.64,12.98,8.64,20.86
			S398.91,958.97,393.33,964.54z M17.87,755.99v-3.48l12.99,4.99v3.69l-12.99,4.99v-3.67l8.64-3.22v-0.08L17.87,755.99z
			 M27.87,688.12c0.31,0,0.56-0.23,0.56-0.78v-3.81c0-2.08,1.09-3.13,2.64-3.13c2.29,0,3.34,2.78,3.34,5.77
			c0,2.62-0.52,4.89-2.25,4.89c-0.8,0-1.44-0.72-1.53-1.75c-0.27,0.82-1.01,1.32-1.79,1.32c-0.89,0-1.57-0.58-1.94-1.57
			c-0.54,0.82-1.32,1.32-2.33,1.32c-1.96,0-3.15-1.86-3.15-4.43c0-1.11,0.27-2.16,0.74-2.95c-0.76-0.56-1.42-1.57-1.42-2.58h2.52
			c0,0.39,0.04,0.89,0.14,1.34c0.35-0.19,0.74-0.29,1.18-0.29c1.94,0,3.13,1.88,3.13,4.47c0,0.74-0.08,1.4-0.27,2
			C27.54,688.06,27.69,688.12,27.87,688.12z M31.07,883.88c0,1.79-0.93,2.97-2.49,2.97c-1.77,0-2.54-1.28-2.89-3.28l-0.43-2.58
			h-0.14c-0.76,0-1.22,0.35-1.22,1.15c0,0.74,0.47,1.11,1.15,1.26l-0.21,3.09c-2.02-0.29-3.42-1.79-3.42-4.56
			c0-2.43,1.05-4.23,3.61-4.23h3.13c0.47,0,0.68-0.21,0.68-0.56c0-0.27-0.04-0.47-0.14-0.74h1.77c0.33,0.47,0.6,1.13,0.6,2.08
			c0,1.13-0.58,2.02-1.63,2.33C30.51,881.36,31.07,882.41,31.07,883.88z M28.7,841.25h1.77c0.33,0.47,0.6,1.13,0.6,2.08
			c0,1.13-0.58,2.02-1.63,2.33c1.07,0.54,1.63,1.59,1.63,3.05c0,1.79-0.93,2.97-2.49,2.97c-1.77,0-2.54-1.28-2.89-3.28l-0.43-2.58
			h-0.14c-0.76,0-1.22,0.35-1.22,1.15c0,0.74,0.47,1.11,1.15,1.26l-0.21,3.09c-2.02-0.29-3.42-1.79-3.42-4.56
			c0-2.43,1.05-4.23,3.61-4.23h3.13c0.47,0,0.68-0.21,0.68-0.56C28.84,841.73,28.8,841.52,28.7,841.25z M21.42,808.28
			c0-2.54,1.75-3.28,3.67-3.28h5.77v3.34h-4.89c-1.26,0-1.92,0.23-1.92,1.24c0,1.11,0.91,1.48,2.29,1.48h4.51v3.34h-4.89
			c-1.26,0-1.92,0.25-1.92,1.26c0,1.09,0.91,1.48,2.29,1.48h4.51v3.34h-9.19v-3.34h1.38c-1.01-0.49-1.63-1.48-1.63-2.87
			c0-1.63,0.74-2.47,1.81-2.87C22.2,810.92,21.42,809.82,21.42,808.28z M24.51,821.88l0.08,2.74c-0.66,0.12-1.07,0.7-1.07,1.73
			c0,0.64,0.25,1.01,0.66,1.01c0.31,0,0.47-0.25,0.52-0.56l0.31-1.79c0.33-2.06,1.26-3.26,3.05-3.26c1.94,0,3.05,1.65,3.05,4.27
			c0,2.54-1.01,4.43-3.24,4.62l-0.04-2.91c0.76-0.12,1.2-0.74,1.2-1.75c0-0.74-0.27-1.13-0.64-1.13c-0.35,0-0.6,0.21-0.7,0.85
			l-0.21,1.36c-0.35,2.23-1.07,3.4-2.95,3.4c-1.81,0-3.11-1.59-3.11-4.16C21.42,823.63,22.6,822.07,24.51,821.88z M28.39,789.21
			c-0.35,0-0.6,0.21-0.7,0.85l-0.21,1.36c-0.35,2.23-1.07,3.4-2.95,3.4c-1.81,0-3.11-1.59-3.11-4.16c0-2.66,1.18-4.23,3.09-4.41
			l0.08,2.74c-0.66,0.12-1.07,0.7-1.07,1.73c0,0.64,0.25,1.01,0.66,1.01c0.31,0,0.47-0.25,0.52-0.56l0.31-1.79
			c0.33-2.06,1.26-3.26,3.05-3.26c1.94,0,3.05,1.65,3.05,4.27c0,2.54-1.01,4.43-3.24,4.62l-0.04-2.91c0.76-0.12,1.2-0.74,1.2-1.75
			C29.03,789.61,28.76,789.21,28.39,789.21z M26.66,694.86h4.21v3.34h-9.19v-3.34h1.63c-1.03-0.33-1.88-1.3-1.88-2.52
			c0-0.56,0.17-1.05,0.35-1.28l3.15,0.21c-0.27,0.45-0.39,0.95-0.39,1.59C24.53,694.1,25.11,694.86,26.66,694.86z M26.26,699.52
			c2.87,0,4.84,2.04,4.84,5.03c0,3.01-1.98,5.03-4.84,5.03c-2.84,0-4.84-2.02-4.84-5.03C21.42,701.56,23.42,699.52,26.26,699.52z
			 M30.86,712.46v3.55h-3.55v-3.55H30.86z M24.51,718.97l0.08,2.74c-0.66,0.12-1.07,0.7-1.07,1.73c0,0.64,0.25,1.01,0.66,1.01
			c0.31,0,0.47-0.25,0.52-0.56l0.31-1.79c0.33-2.06,1.26-3.26,3.05-3.26c1.94,0,3.05,1.65,3.05,4.27c0,2.54-1.01,4.43-3.24,4.62
			l-0.04-2.91c0.76-0.12,1.2-0.74,1.2-1.75c0-0.74-0.27-1.13-0.64-1.13c-0.35,0-0.6,0.21-0.7,0.85l-0.21,1.36
			c-0.35,2.23-1.07,3.4-2.95,3.4c-1.81,0-3.11-1.59-3.11-4.16C21.42,720.73,22.6,719.16,24.51,718.97z M26.18,732.23h-4.51v-3.34
			h9.19v3.34h-1.38c1.03,0.49,1.63,1.5,1.63,2.89c0,2.52-1.73,3.28-3.65,3.28h-5.79v-3.34h4.91c1.24,0,1.92-0.35,1.92-1.36
			C28.49,732.64,27.58,732.23,26.18,732.23z M21.77,739.32l3.15,0.21c-0.27,0.45-0.39,0.95-0.39,1.59c0,1.24,0.58,2,2.12,2h4.21
			v3.34h-9.19v-3.34h1.63c-1.03-0.33-1.88-1.3-1.88-2.52C21.42,740.04,21.58,739.54,21.77,739.32z M21.67,748.26h9.19v3.34h-9.19
			V748.26z M21.67,831.8h9.19v3.34h-9.19V831.8z M21.67,854.9v-2.39h2.31v2.39h3.36c0.78,0,1.09-0.37,1.09-1.05
			c0-0.41-0.08-0.87-0.31-1.42h2.16c0.52,0.7,0.82,1.5,0.82,2.76c0,1.55-0.64,3.01-2.8,3.01h-4.33v1.24h-2.06l-0.1-0.68
			c-0.14-0.93-0.64-1.22-1.48-1.44l-1.2-0.31v-2.1H21.67z M30.86,860.34v3.34h-9.19v-3.34H30.86z M21.67,875.45v-3.34h1.59
			c-1.09-0.45-1.83-1.48-1.83-3.03c0-2.7,2.14-4.08,4.84-4.08c2.72,0,4.84,1.38,4.84,4.08c0,1.55-0.74,2.58-1.81,3.03h4.86v3.34
			H21.67z M20.8,748.24v3.38h-2.93v-3.38H20.8z M30.86,768.03v3.73l-2.51,0.97v5.07l2.51,0.97v3.52l-12.99-5.17v-3.92L30.86,768.03z
			 M30.86,796.24v3.5H17.87v-3.5H30.86z M20.8,831.78v3.38h-2.93v-3.38H20.8z M30.86,836.95v3.34H17.87v-3.34H30.86z M20.8,860.32
			v3.38h-2.93v-3.38H20.8z M23.4,887.59l0.12,3.36c-1.44,0.21-2.78,0.99-2.78,3.01c0,1.92,1.42,3.03,3.63,3.03
			c2.21,0,3.63-1.11,3.63-3.03c0-2.02-1.34-2.8-2.78-3.01l0.14-3.36c3.24,0.25,5.75,2.37,5.75,6.35c0,3.79-2.74,6.66-6.74,6.66
			c-4,0-6.74-2.87-6.74-6.66C17.63,889.96,20.16,887.83,23.4,887.59z M30.86,918.4v3.28l-9.06,2.86l9.06,2.86v3.28l-5.19,1.34v0.08
			l5.19,1.34v3.28l-9.06,2.86l9.06,2.86v3.28l-5.19,1.34v0.08l5.19,1.34v3.28l-9.19,2.91v-3.32l5.22-1.65v-0.08l-5.22-1.34v-2.66
			l5.22-1.34v-0.08l-5.22-1.65v-2.92v-0.09v-3.23l5.22-1.65v-0.08l-5.22-1.34v-2.66l5.22-1.34v-0.08l-5.22-1.65v-2.92v-0.09v-3.23
			l5.22-1.65v-0.08l-5.22-1.34v-2.66l5.22-1.34v-0.08l-5.22-1.65v-3.01l9.19,2.91v3.28l-5.19,1.34v0.08L30.86,918.4z M27.32,907.02
			v-3.55h3.55v3.55H27.32z M52.4,349.26v-12.99h7.42v-2.2c0-13.46,8.35-20.53,20.76-20.53c9.74,0,16.47,4.87,18.56,13.46l-11.48,3.6
			c-1.16-2.32-2.55-3.6-4.99-3.6c-3.13,0-4.29,2.55-4.29,5.8v3.48h13.11v12.99H78.38V388H59.82v-38.74H52.4z M121.18,334.88
			c16.82,0,28.3,11.25,28.3,27.26c0,16.12-11.48,27.26-28.3,27.26c-16.94,0-28.3-11.14-28.3-27.26
			C92.88,346.13,104.25,334.88,121.18,334.88z M101.39,456.34c16.82,0,28.3,11.25,28.3,27.26c0,16.12-11.48,27.26-28.3,27.26
			c-16.94,0-28.3-11.14-28.3-27.26C73.09,467.59,84.46,456.34,101.39,456.34z M221.57,509.47v-73.08h28.88
			c24.24,0,39.21,13.69,39.21,36.54s-14.96,36.54-39.21,36.54H221.57z M394.41,456.34c14.15,0,18.68,9.86,18.68,20.65v32.48h-18.79
			v-27.49c0-7.08-1.97-10.79-7.66-10.79c-6.38,0-8.93,5.1-8.93,12.88v25.4h-18.79v-51.73h18.79v7.77
			C380.49,459.82,386.63,456.34,394.41,456.34z M392.99,593.82l-1.36-0.21c-2.23-0.35-3.4-1.07-3.4-2.95c0-1.81,1.59-3.11,4.16-3.11
			c2.66,0,4.23,1.18,4.41,3.09l-2.74,0.08c-0.12-0.66-0.7-1.07-1.73-1.07c-0.64,0-1.01,0.25-1.01,0.66c0,0.31,0.25,0.47,0.56,0.52
			l1.79,0.31c2.06,0.33,3.26,1.26,3.26,3.05c0,1.94-1.65,3.05-4.27,3.05c-2.54,0-4.43-1.01-4.62-3.24l2.91-0.04
			c0.12,0.76,0.74,1.2,1.75,1.2c0.74,0,1.13-0.27,1.13-0.64C393.83,594.17,393.63,593.92,392.99,593.82z M383.53,586.93v-2.93h3.38
			v2.93H383.53z M386.89,587.8v9.19h-3.34v-9.19H386.89z M381.73,584.01v12.99h-3.34v-12.99H381.73z M371.7,590.03
			c-0.74,0-1.11,0.47-1.26,1.15l-3.09-0.21c0.29-2.02,1.79-3.42,4.56-3.42c2.43,0,4.23,1.05,4.23,3.61v3.13
			c0,0.47,0.21,0.68,0.56,0.68c0.27,0,0.47-0.04,0.74-0.14v1.77c-0.47,0.33-1.13,0.6-2.08,0.6c-1.13,0-2.02-0.58-2.33-1.63
			c-0.54,1.07-1.59,1.63-3.05,1.63c-1.79,0-2.97-0.93-2.97-2.49c0-1.77,1.28-2.54,3.28-2.89l2.58-0.43v-0.14
			C372.85,590.48,372.5,590.03,371.7,590.03z M359.25,590.11v-2.06l0.68-0.1c0.93-0.14,1.22-0.64,1.44-1.48l0.31-1.2h2.1v2.54h2.39
			v2.31h-2.39v3.36c0,0.78,0.37,1.09,1.05,1.09c0.41,0,0.87-0.08,1.42-0.31v2.16c-0.7,0.52-1.5,0.82-2.76,0.82
			c-1.55,0-3.01-0.64-3.01-2.8v-4.33H359.25z M329.17,389.4c-21.23,0-37.93-15.43-37.93-37.93s16.7-37.93,37.93-37.93
			s37.93,15.43,37.93,37.93S350.4,389.4,329.17,389.4z M354.98,586.93v-2.93h3.38v2.93H354.98z M358.34,587.8v9.19H355v-9.19H358.34
			z M336.54,590.03c-0.74,0-1.11,0.47-1.26,1.15l-3.09-0.21c0.29-2.02,1.79-3.42,4.56-3.42c2.43,0,4.23,1.05,4.23,3.61v3.13
			c0,0.47,0.21,0.68,0.56,0.68c0.27,0,0.47-0.04,0.74-0.14v1.77c-0.47,0.33-1.13,0.6-2.08,0.6c-1.13,0-2.02-0.58-2.33-1.63
			c-0.54,1.07-1.59,1.63-3.05,1.63c-1.79,0-2.97-0.93-2.97-2.49c0-1.77,1.28-2.54,3.28-2.89l2.58-0.43v-0.14
			C337.69,590.48,337.34,590.03,336.54,590.03z M323.18,510.86c-16.94,0-28.3-11.14-28.3-27.26c0-16.01,11.37-27.26,28.3-27.26
			c16.82,0,28.3,11.25,28.3,27.26C351.48,499.72,340,510.86,323.18,510.86z M324.73,594.13c2.02,0,2.8-1.34,3.01-2.78l3.36,0.14
			c-0.25,3.24-2.37,5.75-6.35,5.75c-3.79,0-6.66-2.74-6.66-6.74c0-4,2.87-6.74,6.66-6.74c3.98,0,6.1,2.54,6.35,5.77l-3.36,0.12
			c-0.21-1.44-0.99-2.78-3.01-2.78c-1.92,0-3.03,1.42-3.03,3.63C321.7,592.71,322.81,594.13,324.73,594.13z M314.64,591.51
			l-0.43,2.06h-2.04l-0.8,3.42h-2.49l0.8-3.42h-1.77l-0.8,3.42h-2.49l0.8-3.42h-1.81l0.43-2.06h1.88l0.49-2.02h-1.98l0.43-2.06h2.02
			l0.82-3.42h2.49l-0.82,3.42h1.77l0.82-3.42h2.49l-0.82,3.42h1.83l-0.43,2.06h-1.88l-0.49,2.02H314.64z M343.23,587.8h3.34v1.59
			c0.45-1.09,1.48-1.83,3.03-1.83c2.7,0,4.08,2.14,4.08,4.84c0,2.72-1.38,4.84-4.08,4.84c-1.55,0-2.58-0.74-3.03-1.81v4.86h-3.34
			V587.8z M413.68,596.99h-3.34v-4.89c0-1.26-0.23-1.92-1.24-1.92c-1.11,0-1.48,0.91-1.48,2.29v4.51h-3.34v-4.89
			c0-1.26-0.25-1.92-1.26-1.92c-1.09,0-1.48,0.91-1.48,2.29v4.51h-3.34v-9.19h3.34v1.38c0.49-1.01,1.48-1.63,2.87-1.63
			c1.63,0,2.47,0.74,2.87,1.81c0.5-1.03,1.59-1.81,3.13-1.81c2.54,0,3.28,1.75,3.28,3.67V596.99z M420.78,596.99h-3.5v-12.99h3.5
			V596.99z M419.93,453.79v-17.4h19.6v16.24c0,11.37-6.61,16.12-19.6,16.47v-8.93c5.57-0.23,8.7-1.74,8.82-6.38H419.93z
			 M515.93,343.11v16.01h-28.65v12.64h38.16V388H467.9v-73.08h56.49v16.24h-37.12v11.95H515.93z M556.92,436.39h22.62l-28.19,31.09
			l29.58,41.99h-23.55l-20.3-29.12l-6.38,6.96v22.16h-19.72v-73.08h19.72v29.58L556.92,436.39z M492.51,593.82l-1.36-0.21
			c-2.23-0.35-3.4-1.07-3.4-2.95c0-1.81,1.59-3.11,4.16-3.11c2.66,0,4.23,1.18,4.41,3.09l-2.74,0.08c-0.12-0.66-0.7-1.07-1.73-1.07
			c-0.64,0-1.01,0.25-1.01,0.66c0,0.31,0.25,0.47,0.56,0.52l1.79,0.31c2.06,0.33,3.26,1.26,3.26,3.05c0,1.94-1.65,3.05-4.27,3.05
			c-2.54,0-4.43-1.01-4.62-3.24l2.91-0.04c0.12,0.76,0.74,1.2,1.75,1.2c0.74,0,1.13-0.27,1.13-0.64
			C493.36,594.17,493.15,593.92,492.51,593.82z M480.19,597.24c-2.52,0-3.28-1.73-3.28-3.65v-5.79h3.34v4.91
			c0,1.24,0.35,1.92,1.36,1.92c1.05,0,1.46-0.91,1.46-2.31v-4.51h3.34v9.19h-3.34v-1.38C482.58,596.64,481.57,597.24,480.19,597.24z
			 M468.53,443.46v14.27h13.46v12.99h-13.46v18.91c0,4.41,2.09,6.15,5.92,6.15c2.32,0,4.87-0.46,8-1.74v12.18
			c-3.94,2.9-8.47,4.64-15.54,4.64c-8.7,0-16.94-3.6-16.94-15.78v-24.36h-6.96v-11.6l3.83-0.58c5.22-0.81,6.84-3.6,8.12-8.35
			l1.74-6.73H468.53z M474.71,587.55c0.56,0,1.05,0.17,1.28,0.35l-0.21,3.15c-0.45-0.27-0.95-0.39-1.59-0.39c-1.24,0-2,0.58-2,2.12
			v4.21h-3.34v-9.19h3.34v1.63C472.52,588.4,473.49,587.55,474.71,587.55z M463.68,586.93v-2.93h3.38v2.93H463.68z M467.04,587.8
			v9.19h-3.34v-9.19H467.04z M462.8,584.01l-4.99,12.99h-3.69l-4.99-12.99h3.67l3.22,8.64h0.08l3.22-8.64H462.8z M447.33,596.99
			h-3.73l-0.97-2.51h-5.07l-0.97,2.51h-3.53l5.17-12.99h3.92L447.33,596.99z M422.01,594l2.91-0.04c0.12,0.76,0.74,1.2,1.75,1.2
			c0.74,0,1.13-0.27,1.13-0.64c0-0.35-0.21-0.6-0.85-0.7l-1.36-0.21c-2.23-0.35-3.4-1.07-3.4-2.95c0-1.81,1.59-3.11,4.16-3.11
			c2.66,0,4.23,1.18,4.41,3.09l-2.74,0.08c-0.12-0.66-0.7-1.07-1.73-1.07c-0.64,0-1.01,0.25-1.01,0.66c0,0.31,0.25,0.47,0.56,0.52
			l1.79,0.31c2.06,0.33,3.26,1.26,3.26,3.05c0,1.94-1.65,3.05-4.27,3.05C424.09,597.24,422.2,596.23,422.01,594z M765.72,987.67
			c0-1.79,0.93-2.97,2.49-2.97c1.77,0,2.54,1.28,2.89,3.28l0.43,2.58h0.14c0.76,0,1.22-0.35,1.22-1.15c0-0.74-0.47-1.11-1.15-1.26
			l0.21-3.09c2.02,0.29,3.42,1.79,3.42,4.56c0,2.43-1.05,4.23-3.61,4.23h-3.13c-0.47,0-0.68,0.21-0.68,0.56
			c0,0.27,0.04,0.47,0.14,0.74h-1.77c-0.33-0.47-0.6-1.13-0.6-2.08c0-1.13,0.58-2.02,1.63-2.33
			C766.28,990.18,765.72,989.13,765.72,987.67z M768.09,1030.29h-1.77c-0.33-0.47-0.6-1.13-0.6-2.08c0-1.13,0.58-2.02,1.63-2.33
			c-1.07-0.54-1.63-1.59-1.63-3.05c0-1.79,0.93-2.97,2.49-2.97c1.77,0,2.54,1.28,2.89,3.28l0.43,2.58h0.14
			c0.76,0,1.22-0.35,1.22-1.15c0-0.74-0.47-1.11-1.15-1.26l0.21-3.09c2.02,0.29,3.42,1.79,3.42,4.56c0,2.43-1.05,4.23-3.61,4.23
			h-3.13c-0.47,0-0.68,0.21-0.68,0.56C767.95,1029.82,767.99,1030.02,768.09,1030.29z M775.37,1063.27c0,2.54-1.75,3.28-3.67,3.28
			h-5.77v-3.34h4.89c1.26,0,1.92-0.23,1.92-1.24c0-1.11-0.91-1.48-2.29-1.48h-4.51v-3.34h4.89c1.26,0,1.92-0.25,1.92-1.26
			c0-1.09-0.91-1.48-2.29-1.48h-4.51v-3.34h9.19v3.34h-1.38c1.01,0.49,1.63,1.48,1.63,2.87c0,1.63-0.74,2.47-1.81,2.87
			C774.59,1060.63,775.37,1061.72,775.37,1063.27z M772.28,1049.66l-0.08-2.74c0.66-0.12,1.07-0.7,1.07-1.73
			c0-0.64-0.25-1.01-0.66-1.01c-0.31,0-0.47,0.25-0.52,0.56l-0.31,1.79c-0.33,2.06-1.26,3.26-3.05,3.26c-1.94,0-3.05-1.65-3.05-4.27
			c0-2.54,1.01-4.43,3.24-4.62l0.04,2.91c-0.76,0.12-1.2,0.74-1.2,1.75c0,0.74,0.27,1.13,0.64,1.13c0.35,0,0.6-0.21,0.7-0.85
			l0.21-1.36c0.35-2.23,1.07-3.4,2.95-3.4c1.81,0,3.11,1.59,3.11,4.16C775.37,1047.91,774.2,1049.48,772.28,1049.66z M768.4,1080.67
			c0.35,0,0.6-0.21,0.7-0.85l0.21-1.36c0.35-2.23,1.07-3.4,2.95-3.4c1.81,0,3.11,1.59,3.11,4.16c0,2.66-1.17,4.23-3.09,4.41
			l-0.08-2.74c0.66-0.12,1.07-0.7,1.07-1.73c0-0.64-0.25-1.01-0.66-1.01c-0.31,0-0.47,0.25-0.52,0.56l-0.31,1.79
			c-0.33,2.06-1.26,3.26-3.05,3.26c-1.94,0-3.05-1.65-3.05-4.27c0-2.54,1.01-4.43,3.24-4.62l0.04,2.91c-0.76,0.12-1.2,0.74-1.2,1.75
			C767.76,1080.28,768.03,1080.67,768.4,1080.67z M765.93,1116.56h9.19v3.34h-9.19V1116.56z M770.61,1135.94h4.51v3.34h-9.19v-3.34
			h1.38c-1.03-0.5-1.63-1.5-1.63-2.89c0-2.52,1.73-3.28,3.65-3.28h5.79v3.34h-4.91c-1.24,0-1.92,0.35-1.92,1.36
			C768.3,1135.53,769.21,1135.94,770.61,1135.94z M775.12,1039.75h-9.19v-3.34h9.19V1039.75z M775.12,1016.65v2.39h-2.31v-2.39
			h-3.36c-0.78,0-1.09,0.37-1.09,1.05c0,0.41,0.08,0.87,0.31,1.42h-2.16c-0.52-0.7-0.82-1.5-0.82-2.76c0-1.55,0.64-3.01,2.8-3.01
			h4.33v-1.24h2.06l0.1,0.68c0.14,0.93,0.64,1.22,1.48,1.44l1.2,0.31v2.1H775.12z M765.93,1011.21v-3.34h9.19v3.34H765.93z
			 M775.12,996.1v3.34h-1.59c1.09,0.45,1.83,1.48,1.83,3.03c0,2.7-2.14,4.08-4.84,4.08c-2.72,0-4.84-1.38-4.84-4.08
			c0-1.55,0.74-2.58,1.81-3.03h-4.86v-3.34H775.12z M772.28,1149.19l-0.08-2.74c0.66-0.12,1.07-0.7,1.07-1.73
			c0-0.64-0.25-1.01-0.66-1.01c-0.31,0-0.47,0.25-0.52,0.56l-0.31,1.79c-0.33,2.06-1.26,3.26-3.05,3.26c-1.94,0-3.05-1.65-3.05-4.27
			c0-2.54,1.01-4.43,3.24-4.62l0.04,2.91c-0.76,0.12-1.2,0.74-1.2,1.75c0,0.74,0.27,1.13,0.64,1.13c0.35,0,0.6-0.21,0.7-0.85
			l0.21-1.36c0.35-2.23,1.07-3.4,2.95-3.4c1.81,0,3.11,1.59,3.11,4.16C775.37,1147.44,774.2,1149.01,772.28,1149.19z
			 M775.02,1128.85l-3.15-0.21c0.27-0.45,0.39-0.95,0.39-1.59c0-1.24-0.58-2-2.12-2h-4.21v-3.34h9.19v3.34h-1.63
			c1.03,0.33,1.88,1.3,1.88,2.52C775.37,1128.13,775.21,1128.62,775.02,1128.85z M778.92,1119.92h-2.93v-3.38h2.93V1119.92z
			 M778.92,1105.66l-8.64,3.22v0.08l8.64,3.22v3.48l-12.99-4.99v-3.69l12.99-4.99V1105.66z M778.92,1095.02l-12.99,5.17v-3.73
			l2.51-0.97v-5.07l-2.51-0.97v-3.53l12.99,5.17V1095.02z M778.92,1073.64h-12.99v-3.5h12.99V1073.64z M778.92,1039.77h-2.93v-3.38
			h2.93V1039.77z M778.92,1034.6h-12.99v-3.34h12.99V1034.6z M778.92,1011.23h-2.93v-3.38h2.93V1011.23z M773.39,983.96l-0.12-3.36
			c1.44-0.21,2.78-0.99,2.78-3.01c0-1.92-1.42-3.03-3.63-3.03s-3.63,1.11-3.63,3.03c0,2.02,1.34,2.8,2.78,3.01l-0.14,3.36
			c-3.24-0.25-5.75-2.37-5.75-6.35c0-3.79,2.74-6.66,6.74-6.66s6.74,2.87,6.74,6.66C779.16,981.59,776.63,983.71,773.39,983.96z
			 M765.93,959.96v-2.49l3.42,0.8v-1.81l2.06,0.43v1.88l2.02,0.49v-1.98l2.06,0.43v2.02l3.42,0.82v2.49l-3.42-0.82V964l3.42,0.82
			v2.49l-3.42-0.82v1.83l-2.06-0.43v-1.88l-2.02-0.5v1.98l-2.06-0.43v-2.04l-3.42-0.8v-2.49l3.42,0.8v-1.77L765.93,959.96z
			 M783.18,797.58c-6.58,5.92-12.46,11.13-17.65,15.72c-5.81,5.14-10.9,9.64-15.23,13.62c-0.54,0.5-1.08,0.99-1.59,1.47
			c-2.01,1.87-3.54,4.06-4.54,6.39c-1.08,2.52-1.52,5.19-1.22,7.77c2.32,20.26-5.26,40.1-23.17,60.65
			c-10.02,11.49-24.43,26.29-38.62,40.38c-40.39,40.36-63.46,61.84-65.22,63.49c-5.4,5.34-12.54,8.27-20.13,8.27
			c-7.65,0-14.84-2.98-20.25-8.39c-3.15-3.15-5.47-6.91-6.86-11.01l-29.11,29.11c-5.75,5.75-13.3,8.62-20.86,8.62
			c-7.55,0-15.11-2.87-20.86-8.62c-3.49-3.49-5.91-7.64-7.28-12.05c-5.38,4.33-11.93,6.5-18.48,6.5c-7.55,0-15.11-2.87-20.86-8.62
			c-5.57-5.57-8.64-12.98-8.64-20.86c0-6.7,2.23-13.05,6.31-18.23c-4.11-1.36-7.98-3.66-11.25-6.92c-11.17-11.17-11.17-29.33,0-40.5
			l83.03-83.03c-7.86,1.29-16.47,2.56-25.29,3.62c-1.31,0.16-2.61,0.24-3.9,0.24c-9.15,0-17.9-3.89-24.46-10.99
			c-7.24-7.83-10.76-18.59-8.98-27.41c1.89-9.37,9.73-11.94,16.03-14c2.16-0.71,4.4-1.44,6.78-2.45
			c15.6-6.62,52.07-21.72,52.43-21.87c0.11-0.04,0.21-0.09,0.32-0.13c0.17-0.06,17.89-6.58,44.79-20.5
			c17.2-8.9,48.6-6.53,60.15-5.27c7.51-7.66,16.31-17.15,27.99-29.75c18.43-19.88,43.66-47.11,80.72-85.22
			c3.08-3.17,8.15-3.24,11.31-0.16c3.17,3.08,3.24,8.14,0.16,11.31c-12.72,13.08-24.04,24.87-34.17,35.53
			c-19.28,20.28-34.25,36.42-46.29,49.42c-13.24,14.29-22.81,24.61-31.14,32.94c-1.77,1.77-4.26,2.61-6.74,2.27
			c-10.7-1.45-41.38-3.73-54.64,3.14c-26.78,13.86-44.46,20.51-46.49,21.26c-2.58,1.07-37.13,15.38-52.15,21.75
			c-3.01,1.28-5.69,2.15-8.06,2.93c-1.9,0.62-4.46,1.46-5.34,2.04c-0.59,3.15,0.74,8.61,5.07,13.3c2.33,2.52,7.33,6.61,14.7,5.72
			c30.79-3.71,59.86-10.24,60.15-10.3c2.21-0.5,4.53-0.04,6.38,1.27c0.9,0.62,23.09,15.64,52.57,4.62c2.55-0.95,5.27-0.52,7.35,0.92
			c1.3,0.9,2.35,2.18,2.95,3.78c1.55,4.14-0.56,8.75-4.69,10.29c-30.89,11.54-55.68,0.3-64.24-4.57c-1.43,0.31-3.3,0.7-5.54,1.16
			l-0.73,0.73l-98.72,98.72c-4.93,4.93-4.93,12.94,0,17.87c4.93,4.93,12.94,4.93,17.87,0l80.41-80.41l9.3-9.3
			c0.71-0.71,1.53-1.26,2.4-1.64c2.94-1.31,6.5-0.77,8.91,1.64c3.12,3.12,3.12,8.19,0,11.31l-9.3,9.3l-0.48,0.48l-79.93,79.93
			l-15.61,15.61c-2.55,2.55-3.95,5.94-3.95,9.54s1.4,6.99,3.95,9.54c2.55,2.55,5.94,3.95,9.54,3.95c3.6,0,6.99-1.4,9.54-3.95
			l93.44-93.44c0.16-0.16,0.33-0.31,0.5-0.45l-0.02-0.03l12.72-12.72c3.12-3.12,8.19-3.12,11.31,0c2.94,2.94,3.11,7.58,0.53,10.73
			c-0.17,0.2-0.34,0.4-0.53,0.59l-13.19,13.19c0,0,0,0,0,0.01l-77.22,77.22c-5.26,5.26-5.26,13.82,0,19.09
			c5.26,5.26,13.82,5.26,19.09,0l47.29-47.29l45.59-45.59l0.56-0.56c3.12-3.12,8.19-3.12,11.31,0c1.99,1.99,2.71,4.77,2.16,7.33
			c-0.31,1.46-1.03,2.85-2.16,3.98l-46.15,46.15c-2.39,2.39-3.7,5.56-3.7,8.94s1.31,6.55,3.7,8.94c2.39,2.39,5.56,3.7,8.94,3.7
			s6.55-1.31,8.94-3.7c0.07-0.07,0.15-0.14,0.22-0.21c0.23-0.21,22.43-20.8,62.58-60.85l-0.03-0.01
			c14.78-14.62,30.01-30.18,40.22-41.88c10.94-12.55,17.15-24.11,19.02-35.56c0.69-4.25,0.81-8.49,0.32-12.76
			c-1.15-10.01,2.88-20.37,10.76-27.7c4.8-4.46,10.51-9.51,17.12-15.36c5.17-4.57,11.02-9.75,17.55-15.63
			c3.28-2.96,8.34-2.69,11.3,0.59C786.73,789.56,786.46,794.62,783.18,797.58z M737.6,343.11v16.01h-28.65v12.64h38.16V388h-57.53
			v-73.08h56.49v16.24h-37.12v11.95H737.6z M702.49,483.6c0,16.12-11.48,27.26-28.3,27.26c-16.94,0-28.3-11.14-28.3-27.26
			c0-16.01,11.37-27.26,28.3-27.26C691.01,456.34,702.49,467.59,702.49,483.6z M789.73,457.73l-16.36,51.73h-18.44l-7.54-29.23
			h-0.46l-7.54,29.23h-18.44l-16.36-51.73h18.68l9.28,29.35H733l7.54-29.35h14.96l7.54,29.35h0.46l9.28-29.35H789.73z M616.09,98.26
			h154.58v35.83h-56.05V259.5h-43.25V134.09h-55.28V98.26z M613.02,314.93h18.79l28.54,40.48v-40.48h18.1V388h-15.78l-31.55-43.27
			V388h-18.1V314.93z M620.37,456.34c14.15,0,18.68,9.86,18.68,20.65v32.48h-18.79v-27.49c0-7.08-1.97-10.79-7.66-10.79
			c-6.38,0-8.93,5.1-8.93,12.88v25.4h-18.79v-51.73h18.79v7.77C606.45,459.82,612.6,456.34,620.37,456.34z M605.13,351.47
			c0,22.5-16.7,37.93-37.93,37.93s-37.93-15.43-37.93-37.93s16.7-37.93,37.93-37.93S605.13,328.96,605.13,351.47z M547.5,98.26
			h43.51V259.5H547.5v-63.73h-64.24v63.73h-43.51V98.26h43.51v62.19h64.24V98.26z M466.05,23.55v-9.19h3.34v9.19H466.05z
			 M527.04,21.53c0-0.89,0.58-1.57,1.57-1.94c-0.82-0.54-1.32-1.32-1.32-2.33c0-1.96,1.86-3.15,4.43-3.15
			c1.11,0,2.16,0.27,2.95,0.74c0.56-0.76,1.57-1.42,2.58-1.42v2.51c-0.39,0-0.89,0.04-1.34,0.14c0.19,0.35,0.29,0.74,0.29,1.17
			c0,1.94-1.88,3.13-4.47,3.13c-0.74,0-1.4-0.08-2-0.27c-0.12,0.1-0.19,0.25-0.19,0.43c0,0.31,0.23,0.56,0.78,0.56h3.81
			c2.08,0,3.13,1.09,3.13,2.64c0,2.29-2.78,3.34-5.77,3.34c-2.62,0-4.89-0.52-4.89-2.25c0-0.8,0.72-1.44,1.75-1.53
			C527.53,23.06,527.04,22.32,527.04,21.53z M519.45,14.36h3.34v1.63c0.33-1.03,1.3-1.88,2.51-1.88c0.56,0,1.05,0.16,1.28,0.35
			l-0.21,3.15c-0.45-0.27-0.95-0.39-1.59-0.39c-1.24,0-2,0.58-2,2.12v4.21h-3.34V14.36z M513.1,14.11c2.99,0,5.03,2,5.03,4.84
			c0,2.87-2.04,4.84-5.03,4.84c-3.01,0-5.03-1.98-5.03-4.84C508.08,16.11,510.1,14.11,513.1,14.11z M501.64,20.01h3.55v3.55h-3.55
			V20.01z M494.87,20.38l-1.36-0.21c-2.23-0.35-3.4-1.07-3.4-2.95c0-1.81,1.59-3.11,4.16-3.11c2.66,0,4.23,1.18,4.41,3.09
			l-2.74,0.08c-0.12-0.66-0.7-1.07-1.73-1.07c-0.64,0-1.01,0.25-1.01,0.66c0,0.31,0.25,0.47,0.56,0.52l1.79,0.31
			c2.06,0.33,3.26,1.26,3.26,3.05c0,1.94-1.65,3.05-4.27,3.05c-2.54,0-4.43-1.01-4.62-3.24l2.91-0.04c0.12,0.76,0.74,1.2,1.75,1.2
			c0.74,0,1.13-0.27,1.13-0.64C495.71,20.73,495.5,20.48,494.87,20.38z M479.26,14.36h3.34v4.91c0,1.24,0.35,1.92,1.36,1.92
			c1.05,0,1.46-0.91,1.46-2.31v-4.51h3.34v9.19h-3.34v-1.38c-0.49,1.03-1.5,1.63-2.89,1.63c-2.52,0-3.28-1.73-3.28-3.65V14.36z
			 M471.2,14.36h3.34v1.63c0.33-1.03,1.3-1.88,2.52-1.88c0.56,0,1.05,0.16,1.28,0.35l-0.21,3.15c-0.45-0.27-0.95-0.39-1.59-0.39
			c-1.24,0-2,0.58-2,2.12v4.21h-3.34V14.36z M466.03,10.57h3.38v2.93h-3.38V10.57z M455.15,10.57l3.22,8.64h0.08l3.22-8.64h3.48
			l-4.99,12.99h-3.69l-4.99-12.99H455.15z M440.54,10.57h3.92l5.17,12.99h-3.73l-0.97-2.52h-5.07l-0.97,2.52h-3.53L440.54,10.57z
			 M427.59,20.38l-1.36-0.21c-2.23-0.35-3.4-1.07-3.4-2.95c0-1.81,1.59-3.11,4.16-3.11c2.66,0,4.23,1.18,4.41,3.09l-2.74,0.08
			c-0.12-0.66-0.7-1.07-1.73-1.07c-0.64,0-1.01,0.25-1.01,0.66c0,0.31,0.25,0.47,0.56,0.52l1.79,0.31c2.06,0.33,3.26,1.26,3.26,3.05
			c0,1.94-1.65,3.05-4.27,3.05c-2.54,0-4.43-1.01-4.62-3.24l2.91-0.04c0.12,0.76,0.74,1.2,1.75,1.2c0.74,0,1.13-0.27,1.13-0.64
			C428.44,20.73,428.23,20.48,427.59,20.38z M417.91,10.57h3.5v12.99h-3.5V10.57z M416.63,360.86l10.32-45.93h29.81V388h-19.72
			v-51.39h-0.46L423.48,388h-16.82l-13.11-51.39h-0.46V388h-18.1v-73.08h30.51l10.79,45.93H416.63z M397.17,14.36h3.34v1.38
			c0.49-1.01,1.48-1.63,2.87-1.63c1.63,0,2.47,0.74,2.87,1.81c0.5-1.03,1.59-1.81,3.13-1.81c2.54,0,3.28,1.75,3.28,3.67v5.77h-3.34
			v-4.89c0-1.26-0.23-1.92-1.24-1.92c-1.11,0-1.48,0.91-1.48,2.29v4.51h-3.34v-4.89c0-1.26-0.25-1.92-1.26-1.92
			c-1.09,0-1.48,0.91-1.48,2.29v4.51h-3.34V14.36z M391.96,20.38l-1.36-0.21c-2.23-0.35-3.4-1.07-3.4-2.95
			c0-1.81,1.59-3.11,4.16-3.11c2.66,0,4.23,1.18,4.41,3.09l-2.74,0.08c-0.12-0.66-0.7-1.07-1.73-1.07c-0.64,0-1.01,0.25-1.01,0.66
			c0,0.31,0.25,0.47,0.56,0.52l1.79,0.31c2.06,0.33,3.26,1.26,3.26,3.05c0,1.94-1.65,3.05-4.27,3.05c-2.54,0-4.43-1.01-4.62-3.24
			l2.91-0.04c0.12,0.76,0.74,1.2,1.75,1.2c0.74,0,1.13-0.27,1.13-0.64C392.8,20.73,392.6,20.48,391.96,20.38z M382.5,10.57h3.38
			v2.93h-3.38V10.57z M385.86,14.36v9.19h-3.34v-9.19H385.86z M377.37,10.57h3.34v12.99h-3.34V10.57z M370.67,16.59
			c-0.74,0-1.11,0.47-1.26,1.15l-3.09-0.21c0.29-2.02,1.79-3.42,4.56-3.42c2.43,0,4.23,1.05,4.23,3.61v3.13
			c0,0.47,0.21,0.68,0.56,0.68c0.27,0,0.47-0.04,0.74-0.14v1.77c-0.47,0.33-1.13,0.6-2.08,0.6c-1.13,0-2.02-0.58-2.33-1.63
			c-0.54,1.07-1.59,1.63-3.05,1.63c-1.79,0-2.97-0.93-2.97-2.49c0-1.77,1.28-2.54,3.28-2.89l2.58-0.43V17.8
			C371.82,17.04,371.47,16.59,370.67,16.59z M358.22,14.61l0.68-0.1c0.93-0.14,1.22-0.64,1.44-1.48l0.31-1.2h2.1v2.54h2.39v2.31
			h-2.39v3.36c0,0.78,0.37,1.09,1.05,1.09c0.41,0,0.87-0.08,1.42-0.31v2.16c-0.7,0.52-1.5,0.82-2.76,0.82
			c-1.55,0-3.01-0.64-3.01-2.8v-4.33h-1.24V14.61z M353.95,10.57h3.38v2.93h-3.38V10.57z M357.31,14.36v9.19h-3.34v-9.19H357.31z
			 M342.2,14.36h3.34v1.59c0.45-1.09,1.48-1.83,3.03-1.83c2.7,0,4.08,2.14,4.08,4.84c0,2.72-1.38,4.84-4.08,4.84
			c-1.55,0-2.58-0.74-3.03-1.81v4.87h-3.34V14.36z M335.51,16.59c-0.74,0-1.11,0.47-1.26,1.15l-3.09-0.21
			c0.29-2.02,1.79-3.42,4.56-3.42c2.43,0,4.23,1.05,4.23,3.61v3.13c0,0.47,0.21,0.68,0.56,0.68c0.27,0,0.47-0.04,0.74-0.14v1.77
			c-0.47,0.33-1.13,0.6-2.08,0.6c-1.13,0-2.02-0.58-2.33-1.63c-0.54,1.07-1.59,1.63-3.05,1.63c-1.79,0-2.97-0.93-2.97-2.49
			c0-1.77,1.28-2.54,3.28-2.89l2.58-0.43V17.8C336.66,17.04,336.31,16.59,335.51,16.59z M323.72,10.32c3.98,0,6.1,2.54,6.35,5.77
			l-3.36,0.12c-0.21-1.44-0.99-2.78-3.01-2.78c-1.92,0-3.03,1.42-3.03,3.63s1.11,3.63,3.03,3.63c2.02,0,2.8-1.34,3.01-2.78
			l3.36,0.14c-0.25,3.24-2.37,5.75-6.35,5.75c-3.79,0-6.66-2.74-6.66-6.74S319.93,10.32,323.72,10.32z M310.63,20.01h3.55v3.55
			h-3.55V20.01z M266.3,14.36l1.65,5.22h0.08l1.34-5.22h2.66l1.34,5.22h0.08l1.65-5.22h2.92h0.09h3.23l1.65,5.22h0.08l1.34-5.22
			h2.66l1.34,5.22h0.08l1.65-5.22h2.92h0.09h3.23l1.65,5.22h0.08l1.34-5.22h2.66l1.34,5.22h0.08l1.65-5.22h3.01l-2.91,9.19h-3.28
			l-1.34-5.19h-0.08l-1.34,5.19h-3.28l-2.86-9.06l-2.86,9.06h-3.28l-1.34-5.19h-0.08l-1.34,5.19h-3.28l-2.86-9.06l-2.86,9.06h-3.28
			l-1.34-5.19h-0.08l-1.34,5.19h-3.28l-2.91-9.19H266.3z M330.21,95.19c47.35,0,74.99,25.85,78.57,66.03l-42.23,1.54
			c-2.3-17.66-14.59-28.92-35.32-28.92c-25.34,0-39.41,17.66-39.41,45.04c0,28.15,14.84,46.84,42.74,46.84
			c14.08,0,27.9-5.89,34.29-18.68h-35.57v-31.22h76.78v83.69h-37.88v-17.92c-8.96,14.84-26.11,20.99-46.84,20.99
			c-44.53,0-78.32-33.78-78.32-83.69C247.03,129.23,283.62,95.19,330.21,95.19z M252.5,313.53c20.18,0,31.09,9.86,31.44,26.1
			l-18.1,0.35c-0.58-7.54-6.03-11.02-13.57-11.02c-6.5,0-10.21,2.55-10.21,6.61c0,3.36,2.78,4.64,7.31,5.45l13.8,2.44
			c15.31,2.67,22.27,10.67,22.27,22.62c0,15.54-13.46,23.32-30.51,23.32c-19.83,0-33.99-9.63-33.99-27.26l18.1-0.58
			c0.7,9.16,7.77,12.3,15.89,12.3c6.84,0,11.25-2.44,11.25-6.5c0-4.29-4.29-4.99-9.86-6.03L242.98,359
			c-11.95-2.2-20.3-8.93-20.3-21.69C222.68,322.47,234.28,313.53,252.5,313.53z M179.72,98.26h43.51V259.5h-43.51V98.26z
			 M156.91,336.27h18.79v9.16c1.86-5.8,7.31-10.56,14.15-10.56c3.13,0,5.92,0.93,7.19,1.97l-1.16,17.75
			c-2.55-1.51-5.34-2.2-8.93-2.2c-6.96,0-11.25,3.25-11.25,11.95V388h-18.79V336.27z M162.99,496.13c5.92,0,8.24-5.1,8.24-12.99
			v-25.4h18.79v51.73h-18.79v-7.77c-2.78,5.8-8.47,9.16-16.24,9.16c-14.15,0-18.44-9.74-18.44-20.53v-32.6h18.79v27.61
			C155.33,492.3,157.31,496.13,162.99,496.13z M32.81,98.26h121.83v35.83H76.31v30.97h58.87v35.32H76.31v59.12H32.81V98.26z
			 M28.43,436.39l16.47,26.33l15.66-26.33h21.23l-28.07,45.35v27.72H34.58v-27.72L6.51,436.39H28.43z"/>
		<path class="st5" d="M347.4,21.22c1.3,0,1.9-0.93,1.9-2.27c0-1.32-0.6-2.25-1.9-2.25c-1.13,0-1.85,0.87-1.85,2.19v0.12
			C345.54,20.36,346.27,21.22,347.4,21.22z"/>
		<path class="st5" d="M334.02,20.83c0,0.47,0.37,0.78,0.93,0.78c0.95,0,1.71-0.7,1.71-1.9v-0.14l-1.36,0.25
			C334.5,19.99,334.02,20.24,334.02,20.83z"/>
		<path class="st5" d="M531.51,25.37c1.55,0,2.68-0.31,2.68-0.87c0-0.39-0.29-0.54-0.85-0.54h-3.38c-0.37,0-0.62,0.21-0.62,0.56
			C529.35,25.18,530.27,25.37,531.51,25.37z"/>
		<path class="st5" d="M664.79,483.6c0,7.77,2.78,13.11,9.4,13.11c6.5,0,9.4-5.34,9.4-13.11c0-7.77-2.9-13.11-9.4-13.11
			C667.58,470.49,664.79,475.83,664.79,483.6z"/>
		<path d="M78.38,388v-38.74h13.11v-12.99H78.38v-3.48c0-3.25,1.16-5.8,4.29-5.8c2.44,0,3.83,1.28,4.99,3.6l11.48-3.6
			c-2.09-8.58-8.82-13.46-18.56-13.46c-12.41,0-20.76,7.08-20.76,20.53v2.2H52.4v12.99h7.42V388H78.38z"/>
		<path d="M121.18,389.4c16.82,0,28.3-11.14,28.3-27.26c0-16.01-11.48-27.26-28.3-27.26c-16.94,0-28.3,11.25-28.3,27.26
			C92.88,378.26,104.25,389.4,121.18,389.4z M121.18,349.03c6.5,0,9.4,5.34,9.4,13.11c0,7.77-2.9,13.11-9.4,13.11
			c-6.61,0-9.4-5.34-9.4-13.11C111.79,354.37,114.57,349.03,121.18,349.03z"/>
		<path d="M175.71,364.34c0-8.7,4.29-11.95,11.25-11.95c3.6,0,6.38,0.7,8.93,2.2l1.16-17.75c-1.28-1.04-4.06-1.97-7.19-1.97
			c-6.84,0-12.3,4.76-14.15,10.56v-9.16h-18.79V388h18.79V364.34z"/>
		<path d="M242.98,359l13.34,2.32c5.57,1.04,9.86,1.74,9.86,6.03c0,4.06-4.41,6.5-11.25,6.5c-8.12,0-15.2-3.13-15.89-12.3
			l-18.1,0.58c0,17.63,14.15,27.26,33.99,27.26c17.05,0,30.51-7.77,30.51-23.32c0-11.95-6.96-19.95-22.27-22.62l-13.8-2.44
			c-4.52-0.81-7.31-2.09-7.31-5.45c0-4.06,3.71-6.61,10.21-6.61c7.54,0,12.99,3.48,13.57,11.02l18.1-0.35
			c-0.35-16.24-11.25-26.1-31.44-26.1c-18.21,0-29.81,8.93-29.81,23.78C222.68,350.07,231.04,356.8,242.98,359z"/>
		<path d="M329.17,313.53c-21.23,0-37.93,15.43-37.93,37.93s16.7,37.93,37.93,37.93s37.93-15.43,37.93-37.93
			S350.4,313.53,329.17,313.53z M329.17,372c-10.79,0-17.63-8.12-17.63-20.53s6.84-20.53,17.63-20.53
			c10.79,0,17.63,8.12,17.63,20.53S339.96,372,329.17,372z"/>
		<polygon points="374.99,314.93 374.99,388 393.08,388 393.08,336.62 393.55,336.62 406.66,388 423.48,388 436.58,336.62 
			437.05,336.62 437.05,388 456.77,388 456.77,314.93 426.96,314.93 416.63,360.86 416.28,360.86 405.5,314.93 		"/>
		<polygon points="524.39,331.17 524.39,314.93 467.9,314.93 467.9,388 525.44,388 525.44,371.76 487.28,371.76 487.28,359.12 
			515.93,359.12 515.93,343.11 487.28,343.11 487.28,331.17 		"/>
		<path d="M529.27,351.47c0,22.5,16.7,37.93,37.93,37.93s37.93-15.43,37.93-37.93s-16.7-37.93-37.93-37.93
			S529.27,328.96,529.27,351.47z M584.83,351.47c0,12.41-6.84,20.53-17.63,20.53c-10.79,0-17.63-8.12-17.63-20.53
			s6.84-20.53,17.63-20.53C577.99,330.93,584.83,339.05,584.83,351.47z"/>
		<polygon points="631.11,344.74 662.66,388 678.44,388 678.44,314.93 660.34,314.93 660.34,355.41 631.81,314.93 613.02,314.93 
			613.02,388 631.11,388 		"/>
		<polygon points="746.07,331.17 746.07,314.93 689.58,314.93 689.58,388 747.11,388 747.11,371.76 708.95,371.76 708.95,359.12 
			737.6,359.12 737.6,343.11 708.95,343.11 708.95,331.17 		"/>
		<polygon points="34.58,509.47 53.72,509.47 53.72,481.74 81.79,436.39 60.56,436.39 44.9,462.72 28.43,436.39 6.51,436.39 
			34.58,481.74 		"/>
		<path d="M73.09,483.6c0,16.12,11.37,27.26,28.3,27.26c16.82,0,28.3-11.14,28.3-27.26c0-16.01-11.48-27.26-28.3-27.26
			C84.46,456.34,73.09,467.59,73.09,483.6z M101.39,470.49c6.5,0,9.4,5.34,9.4,13.11c0,7.77-2.9,13.11-9.4,13.11
			c-6.61,0-9.4-5.34-9.4-13.11C92,475.83,94.78,470.49,101.39,470.49z"/>
		<path d="M136.54,457.73v32.6c0,10.79,4.29,20.53,18.44,20.53c7.77,0,13.46-3.36,16.24-9.16v7.77h18.79v-51.73h-18.79v25.4
			c0,7.89-2.32,12.99-8.24,12.99c-5.68,0-7.66-3.83-7.66-10.79v-27.61H136.54z"/>
		<path d="M289.66,472.93c0-22.85-14.96-36.54-39.21-36.54h-28.88v73.08h28.88C274.69,509.47,289.66,495.78,289.66,472.93z
			 M249.06,493.92h-7.77v-41.99h7.77c12.76,0,20.3,7.66,20.3,20.88C269.36,486.27,261.82,493.92,249.06,493.92z"/>
		<path d="M351.48,483.6c0-16.01-11.48-27.26-28.3-27.26c-16.94,0-28.3,11.25-28.3,27.26c0,16.12,11.37,27.26,28.3,27.26
			C340,510.86,351.48,499.72,351.48,483.6z M323.18,496.71c-6.61,0-9.4-5.34-9.4-13.11c0-7.77,2.78-13.11,9.4-13.11
			c6.5,0,9.4,5.34,9.4,13.11C332.58,491.37,329.68,496.71,323.18,496.71z"/>
		<path d="M358.91,457.73v51.73h18.79v-25.4c0-7.77,2.55-12.88,8.93-12.88c5.68,0,7.66,3.71,7.66,10.79v27.49h18.79v-32.48
			c0-10.79-4.52-20.65-18.68-20.65c-7.77,0-13.92,3.48-16.7,9.16v-7.77H358.91z"/>
		<path d="M419.93,460.17v8.93c12.99-0.35,19.6-5.1,19.6-16.47v-16.24h-19.6v17.4h8.82C428.62,458.43,425.49,459.93,419.93,460.17z"
			/>
		<path d="M454.96,450.19c-1.28,4.76-2.9,7.54-8.12,8.35l-3.83,0.58v11.6h6.96v24.36c0,12.18,8.24,15.78,16.94,15.78
			c7.08,0,11.6-1.74,15.54-4.64v-12.18c-3.13,1.28-5.68,1.74-8,1.74c-3.83,0-5.92-1.74-5.92-6.15v-18.91h13.46v-12.99h-13.46v-14.27
			H456.7L454.96,450.19z"/>
		<polygon points="510.98,436.39 510.98,509.47 530.7,509.47 530.7,487.31 537.08,480.35 557.38,509.47 580.93,509.47 
			551.35,467.47 579.54,436.39 556.92,436.39 530.7,465.97 530.7,436.39 		"/>
		<path d="M603.66,457.73h-18.79v51.73h18.79v-25.4c0-7.77,2.55-12.88,8.93-12.88c5.68,0,7.66,3.71,7.66,10.79v27.49h18.79v-32.48
			c0-10.79-4.52-20.65-18.68-20.65c-7.77,0-13.92,3.48-16.7,9.16V457.73z"/>
		<path d="M645.89,483.6c0,16.12,11.37,27.26,28.3,27.26c16.82,0,28.3-11.14,28.3-27.26c0-16.01-11.48-27.26-28.3-27.26
			C657.25,456.34,645.89,467.59,645.89,483.6z M683.59,483.6c0,7.77-2.9,13.11-9.4,13.11c-6.61,0-9.4-5.34-9.4-13.11
			c0-7.77,2.78-13.11,9.4-13.11C680.69,470.49,683.59,475.83,683.59,483.6z"/>
		<polygon points="763.05,487.08 755.51,457.73 740.54,457.73 733,487.08 732.54,487.08 723.26,457.73 704.58,457.73 720.94,509.47 
			739.38,509.47 746.92,480.23 747.39,480.23 754.93,509.47 773.37,509.47 789.73,457.73 772.79,457.73 763.51,487.08 		"/>
		<polygon points="76.31,200.38 135.18,200.38 135.18,165.06 76.31,165.06 76.31,134.09 154.63,134.09 154.63,98.26 32.81,98.26 
			32.81,259.5 76.31,259.5 		"/>
		<rect x="179.72" y="98.26" width="43.51" height="161.24"/>
		<path d="M325.34,262.57c20.73,0,37.88-6.14,46.84-20.99v17.92h37.88v-83.69h-76.78v31.22h35.57c-6.4,12.8-20.22,18.68-34.29,18.68
			c-27.9,0-42.74-18.68-42.74-46.84c0-27.39,14.08-45.04,39.41-45.04c20.73,0,33.02,11.26,35.32,28.92l42.23-1.54
			c-3.58-40.18-31.22-66.03-78.57-66.03c-46.58,0-83.18,34.04-83.18,83.69C247.03,228.79,280.81,262.57,325.34,262.57z"/>
		<polygon points="483.26,98.26 439.75,98.26 439.75,259.5 483.26,259.5 483.26,195.77 547.5,195.77 547.5,259.5 591.01,259.5 
			591.01,98.26 547.5,98.26 547.5,160.46 483.26,160.46 		"/>
		<polygon points="671.38,259.5 714.63,259.5 714.63,134.09 770.68,134.09 770.68,98.26 616.09,98.26 616.09,134.09 671.38,134.09 
					"/>
		<polygon points="269.16,23.55 270.5,18.36 270.58,18.36 271.92,23.55 275.2,23.55 278.07,14.5 280.93,23.55 284.21,23.55 
			285.55,18.36 285.63,18.36 286.97,23.55 290.25,23.55 293.11,14.5 295.98,23.55 299.25,23.55 300.59,18.36 300.68,18.36 
			302.02,23.55 305.29,23.55 308.2,14.36 305.19,14.36 303.54,19.58 303.46,19.58 302.12,14.36 299.46,14.36 298.12,19.58 
			298.04,19.58 296.39,14.36 293.16,14.36 293.07,14.36 290.15,14.36 288.5,19.58 288.41,19.58 287.07,14.36 284.41,14.36 
			283.07,19.58 282.99,19.58 281.34,14.36 278.11,14.36 278.02,14.36 275.1,14.36 273.45,19.58 273.37,19.58 272.03,14.36 
			269.37,14.36 268.03,19.58 267.95,19.58 266.3,14.36 262.98,14.36 265.88,23.55 		"/>
		<rect x="310.63" y="20.01" width="3.55" height="3.55"/>
		<path d="M323.72,23.8c3.98,0,6.1-2.52,6.35-5.75l-3.36-0.14c-0.21,1.44-0.99,2.78-3.01,2.78c-1.92,0-3.03-1.42-3.03-3.63
			s1.11-3.63,3.03-3.63c2.02,0,2.8,1.34,3.01,2.78l3.36-0.12c-0.25-3.24-2.37-5.77-6.35-5.77c-3.79,0-6.66,2.74-6.66,6.74
			S319.93,23.8,323.72,23.8z"/>
		<path d="M334.08,18.38c-2,0.35-3.28,1.11-3.28,2.89c0,1.57,1.18,2.49,2.97,2.49c1.46,0,2.51-0.56,3.05-1.63
			c0.31,1.05,1.2,1.63,2.33,1.63c0.95,0,1.61-0.27,2.08-0.6v-1.77c-0.27,0.1-0.47,0.14-0.74,0.14c-0.35,0-0.56-0.21-0.56-0.68v-3.13
			c0-2.56-1.79-3.61-4.23-3.61c-2.76,0-4.27,1.4-4.56,3.42l3.09,0.21c0.14-0.68,0.52-1.15,1.26-1.15c0.8,0,1.15,0.45,1.15,1.22v0.14
			L334.08,18.38z M336.66,19.72c0,1.2-0.76,1.9-1.71,1.9c-0.56,0-0.93-0.31-0.93-0.78c0-0.6,0.47-0.85,1.28-1.01l1.36-0.25V19.72z"
			/>
		<path d="M345.54,21.99c0.45,1.07,1.48,1.81,3.03,1.81c2.7,0,4.08-2.12,4.08-4.84c0-2.7-1.38-4.84-4.08-4.84
			c-1.55,0-2.58,0.74-3.03,1.83v-1.59h-3.34v12.49h3.34V21.99z M345.54,18.9c0-1.32,0.72-2.19,1.85-2.19c1.3,0,1.9,0.93,1.9,2.25
			c0,1.34-0.6,2.27-1.9,2.27c-1.13,0-1.85-0.87-1.85-2.21V18.9z"/>
		<rect x="353.95" y="10.57" width="3.38" height="2.93"/>
		<rect x="353.97" y="14.36" width="3.34" height="9.19"/>
		<path d="M359.46,21c0,2.16,1.46,2.8,3.01,2.8c1.26,0,2.06-0.31,2.76-0.82v-2.16c-0.56,0.23-1.01,0.31-1.42,0.31
			c-0.68,0-1.05-0.31-1.05-1.09v-3.36h2.39v-2.31h-2.39v-2.54h-2.1l-0.31,1.2c-0.23,0.85-0.52,1.34-1.44,1.48l-0.68,0.1v2.06h1.24
			V21z"/>
		<path d="M369.25,18.38c-2,0.35-3.28,1.11-3.28,2.89c0,1.57,1.17,2.49,2.97,2.49c1.46,0,2.51-0.56,3.05-1.63
			c0.31,1.05,1.2,1.63,2.33,1.63c0.95,0,1.61-0.27,2.08-0.6v-1.77c-0.27,0.1-0.47,0.14-0.74,0.14c-0.35,0-0.56-0.21-0.56-0.68v-3.13
			c0-2.56-1.79-3.61-4.23-3.61c-2.76,0-4.27,1.4-4.56,3.42l3.09,0.21c0.14-0.68,0.52-1.15,1.26-1.15c0.8,0,1.15,0.45,1.15,1.22v0.14
			L369.25,18.38z M371.82,19.72c0,1.2-0.76,1.9-1.71,1.9c-0.56,0-0.93-0.31-0.93-0.78c0-0.6,0.47-0.85,1.28-1.01l1.36-0.25V19.72z"
			/>
		<rect x="377.37" y="10.57" width="3.34" height="12.99"/>
		<rect x="382.5" y="10.57" width="3.38" height="2.93"/>
		<rect x="382.52" y="14.36" width="3.34" height="9.19"/>
		<path d="M391.67,21.72c-1.01,0-1.63-0.43-1.75-1.2l-2.91,0.04c0.19,2.23,2.08,3.24,4.62,3.24c2.62,0,4.27-1.11,4.27-3.05
			c0-1.79-1.2-2.72-3.26-3.05l-1.79-0.31c-0.31-0.04-0.56-0.21-0.56-0.52c0-0.41,0.37-0.66,1.01-0.66c1.03,0,1.61,0.41,1.73,1.07
			l2.74-0.08c-0.19-1.92-1.75-3.09-4.41-3.09c-2.58,0-4.16,1.3-4.16,3.11c0,1.88,1.17,2.6,3.4,2.95l1.36,0.21
			c0.64,0.1,0.85,0.35,0.85,0.7C392.8,21.45,392.41,21.72,391.67,21.72z"/>
		<path d="M400.51,19.04c0-1.38,0.39-2.29,1.48-2.29c1.01,0,1.26,0.66,1.26,1.92v4.89h3.34v-4.51c0-1.38,0.37-2.29,1.48-2.29
			c1.01,0,1.24,0.66,1.24,1.92v4.89h3.34v-5.77c0-1.92-0.74-3.67-3.28-3.67c-1.55,0-2.64,0.78-3.13,1.81
			c-0.39-1.07-1.24-1.81-2.87-1.81c-1.38,0-2.37,0.62-2.87,1.63v-1.38h-3.34v9.19h3.34V19.04z"/>
		<rect x="417.91" y="10.57" width="3.5" height="12.99"/>
		<path d="M427.3,21.72c-1.01,0-1.63-0.43-1.75-1.2l-2.91,0.04c0.19,2.23,2.08,3.24,4.62,3.24c2.62,0,4.27-1.11,4.27-3.05
			c0-1.79-1.2-2.72-3.26-3.05l-1.79-0.31c-0.31-0.04-0.56-0.21-0.56-0.52c0-0.41,0.37-0.66,1.01-0.66c1.03,0,1.61,0.41,1.73,1.07
			l2.74-0.08c-0.19-1.92-1.75-3.09-4.41-3.09c-2.58,0-4.16,1.3-4.16,3.11c0,1.88,1.17,2.6,3.4,2.95l1.36,0.21
			c0.64,0.1,0.84,0.35,0.84,0.7C428.44,21.45,428.05,21.72,427.3,21.72z"/>
		<path d="M439.86,21.04h5.07l0.97,2.52h3.73l-5.17-12.99h-3.92l-5.17,12.99h3.53L439.86,21.04z M442.35,14.59h0.08l1.48,3.83h-3.05
			L442.35,14.59z"/>
		<polygon points="460.16,23.55 465.15,10.57 461.66,10.57 458.45,19.2 458.36,19.2 455.15,10.57 451.48,10.57 456.47,23.55 		"/>
		<rect x="466.05" y="14.36" width="3.34" height="9.19"/>
		<rect x="466.03" y="10.57" width="3.38" height="2.93"/>
		<path d="M474.54,19.35c0-1.55,0.76-2.12,2-2.12c0.64,0,1.13,0.12,1.59,0.39l0.21-3.15c-0.23-0.19-0.72-0.35-1.28-0.35
			c-1.22,0-2.19,0.85-2.52,1.88v-1.63h-3.34v9.19h3.34V19.35z"/>
		<path d="M482.54,23.8c1.38,0,2.39-0.6,2.89-1.63v1.38h3.34v-9.19h-3.34v4.51c0,1.4-0.41,2.31-1.46,2.31
			c-1.01,0-1.36-0.68-1.36-1.92v-4.91h-3.34v5.79C479.26,22.07,480.02,23.8,482.54,23.8z"/>
		<path d="M494.58,21.72c-1.01,0-1.63-0.43-1.75-1.2l-2.91,0.04c0.19,2.23,2.08,3.24,4.62,3.24c2.62,0,4.27-1.11,4.27-3.05
			c0-1.79-1.2-2.72-3.26-3.05l-1.79-0.31c-0.31-0.04-0.56-0.21-0.56-0.52c0-0.41,0.37-0.66,1.01-0.66c1.03,0,1.61,0.41,1.73,1.07
			l2.74-0.08c-0.19-1.92-1.75-3.09-4.41-3.09c-2.58,0-4.16,1.3-4.16,3.11c0,1.88,1.18,2.6,3.4,2.95l1.36,0.21
			c0.64,0.1,0.84,0.35,0.84,0.7C495.71,21.45,495.32,21.72,494.58,21.72z"/>
		<rect x="501.64" y="20.01" width="3.55" height="3.55"/>
		<path d="M513.1,23.8c2.99,0,5.03-1.98,5.03-4.84c0-2.84-2.04-4.84-5.03-4.84c-3.01,0-5.03,2-5.03,4.84
			C508.08,21.82,510.1,23.8,513.1,23.8z M513.1,16.63c1.15,0,1.67,0.95,1.67,2.33c0,1.38-0.52,2.33-1.67,2.33
			c-1.18,0-1.67-0.95-1.67-2.33C511.44,17.58,511.93,16.63,513.1,16.63z"/>
		<path d="M522.79,19.35c0-1.55,0.76-2.12,2-2.12c0.64,0,1.13,0.12,1.59,0.39l0.21-3.15c-0.23-0.19-0.72-0.35-1.28-0.35
			c-1.22,0-2.19,0.85-2.51,1.88v-1.63h-3.34v9.19h3.34V19.35z"/>
		<path d="M526.6,24.85c0,1.73,2.27,2.25,4.89,2.25c2.99,0,5.77-1.05,5.77-3.34c0-1.55-1.05-2.64-3.13-2.64h-3.81
			c-0.56,0-0.78-0.25-0.78-0.56c0-0.19,0.06-0.33,0.19-0.43c0.6,0.19,1.26,0.27,2,0.27c2.6,0,4.47-1.2,4.47-3.13
			c0-0.43-0.1-0.82-0.29-1.17c0.45-0.1,0.95-0.14,1.34-0.14v-2.51c-1.01,0-2.02,0.66-2.58,1.42c-0.78-0.47-1.83-0.74-2.95-0.74
			c-2.58,0-4.43,1.2-4.43,3.15c0,1.01,0.5,1.79,1.32,2.33c-0.99,0.37-1.57,1.05-1.57,1.94c0,0.78,0.49,1.53,1.32,1.79
			C527.33,23.41,526.6,24.05,526.6,24.85z M531.76,15.95c0.56,0,0.97,0.52,0.97,1.32c0,0.82-0.41,1.34-0.97,1.34
			s-0.97-0.52-0.97-1.34C530.79,16.46,531.2,15.95,531.76,15.95z M529.96,23.97h3.38c0.56,0,0.85,0.14,0.85,0.54
			c0,0.56-1.13,0.87-2.68,0.87c-1.24,0-2.16-0.19-2.16-0.84C529.35,24.17,529.59,23.97,529.96,23.97z"/>
		<path d="M315.03,589.49l0.43-2.06h-1.83l0.82-3.42h-2.49l-0.82,3.42h-1.77l0.82-3.42h-2.49l-0.82,3.42h-2.02l-0.43,2.06h1.98
			l-0.49,2.02h-1.88l-0.43,2.06h1.81l-0.8,3.42h2.49l0.8-3.42h1.77l-0.8,3.42h2.49l0.8-3.42h2.04l0.43-2.06h-1.98l0.49-2.02H315.03z
			 M310.17,591.51h-1.77l0.49-2.02h1.77L310.17,591.51z"/>
		<path d="M324.73,586.87c2.02,0,2.8,1.34,3.01,2.78l3.36-0.12c-0.25-3.24-2.37-5.77-6.35-5.77c-3.79,0-6.66,2.74-6.66,6.74
			c0,4,2.87,6.74,6.66,6.74c3.98,0,6.1-2.52,6.35-5.75l-3.36-0.14c-0.21,1.44-0.99,2.78-3.01,2.78c-1.92,0-3.03-1.42-3.03-3.63
			C321.7,588.29,322.81,586.87,324.73,586.87z"/>
		<path d="M335.11,591.82c-2,0.35-3.28,1.11-3.28,2.89c0,1.57,1.18,2.49,2.97,2.49c1.46,0,2.51-0.56,3.05-1.63
			c0.31,1.05,1.2,1.63,2.33,1.63c0.95,0,1.61-0.27,2.08-0.6v-1.77c-0.27,0.1-0.47,0.14-0.74,0.14c-0.35,0-0.56-0.21-0.56-0.68v-3.13
			c0-2.56-1.79-3.61-4.23-3.61c-2.76,0-4.27,1.4-4.56,3.42l3.09,0.21c0.14-0.68,0.52-1.15,1.26-1.15c0.8,0,1.15,0.45,1.15,1.22v0.14
			L335.11,591.82z M337.69,593.16c0,1.2-0.76,1.9-1.71,1.9c-0.56,0-0.93-0.31-0.93-0.78c0-0.6,0.47-0.85,1.28-1.01l1.36-0.25V593.16
			z"/>
		<path d="M346.57,595.43c0.45,1.07,1.48,1.81,3.03,1.81c2.7,0,4.08-2.12,4.08-4.84c0-2.7-1.38-4.84-4.08-4.84
			c-1.55,0-2.58,0.74-3.03,1.83v-1.59h-3.34v12.49h3.34V595.43z M346.57,592.33c0-1.32,0.72-2.19,1.86-2.19c1.3,0,1.9,0.93,1.9,2.25
			c0,1.34-0.6,2.27-1.9,2.27c-1.13,0-1.86-0.87-1.86-2.21V592.33z"/>
		<rect x="355" y="587.8" width="3.34" height="9.19"/>
		<rect x="354.98" y="584.01" width="3.38" height="2.93"/>
		<path d="M363.49,597.24c1.26,0,2.06-0.31,2.76-0.82v-2.16c-0.56,0.23-1.01,0.31-1.42,0.31c-0.68,0-1.05-0.31-1.05-1.09v-3.36h2.39
			v-2.31h-2.39v-2.54h-2.1l-0.31,1.2c-0.23,0.85-0.52,1.34-1.44,1.48l-0.68,0.1v2.06h1.24v4.33
			C360.48,596.6,361.95,597.24,363.49,597.24z"/>
		<path d="M370.27,591.82c-2,0.35-3.28,1.11-3.28,2.89c0,1.57,1.17,2.49,2.97,2.49c1.46,0,2.51-0.56,3.05-1.63
			c0.31,1.05,1.2,1.63,2.33,1.63c0.95,0,1.61-0.27,2.08-0.6v-1.77c-0.27,0.1-0.47,0.14-0.74,0.14c-0.35,0-0.56-0.21-0.56-0.68v-3.13
			c0-2.56-1.79-3.61-4.23-3.61c-2.76,0-4.27,1.4-4.56,3.42l3.09,0.21c0.14-0.68,0.52-1.15,1.26-1.15c0.8,0,1.15,0.45,1.15,1.22v0.14
			L370.27,591.82z M372.85,593.16c0,1.2-0.76,1.9-1.71,1.9c-0.56,0-0.93-0.31-0.93-0.78c0-0.6,0.47-0.85,1.28-1.01l1.36-0.25V593.16
			z"/>
		<rect x="378.39" y="584.01" width="3.34" height="12.99"/>
		<rect x="383.55" y="587.8" width="3.34" height="9.19"/>
		<rect x="383.53" y="584.01" width="3.38" height="2.93"/>
		<path d="M392.7,595.16c-1.01,0-1.63-0.43-1.75-1.2l-2.91,0.04c0.19,2.23,2.08,3.24,4.62,3.24c2.62,0,4.27-1.11,4.27-3.05
			c0-1.79-1.2-2.72-3.26-3.05l-1.79-0.31c-0.31-0.04-0.56-0.21-0.56-0.52c0-0.41,0.37-0.66,1.01-0.66c1.03,0,1.61,0.41,1.73,1.07
			l2.74-0.08c-0.19-1.92-1.75-3.09-4.41-3.09c-2.58,0-4.16,1.3-4.16,3.11c0,1.88,1.17,2.6,3.4,2.95l1.36,0.21
			c0.64,0.1,0.85,0.35,0.85,0.7C393.83,594.89,393.44,595.16,392.7,595.16z"/>
		<path d="M410.4,587.55c-1.55,0-2.64,0.78-3.13,1.81c-0.39-1.07-1.24-1.81-2.87-1.81c-1.38,0-2.37,0.62-2.87,1.63v-1.38h-3.34v9.19
			h3.34v-4.51c0-1.38,0.39-2.29,1.48-2.29c1.01,0,1.26,0.66,1.26,1.92v4.89h3.34v-4.51c0-1.38,0.37-2.29,1.48-2.29
			c1.01,0,1.24,0.66,1.24,1.92v4.89h3.34v-5.77C413.68,589.3,412.94,587.55,410.4,587.55z"/>
		<rect x="417.27" y="584.01" width="3.5" height="12.99"/>
		<path d="M430.9,594.19c0-1.79-1.2-2.72-3.26-3.05l-1.79-0.31c-0.31-0.04-0.56-0.21-0.56-0.52c0-0.41,0.37-0.66,1.01-0.66
			c1.03,0,1.61,0.41,1.73,1.07l2.74-0.08c-0.19-1.92-1.75-3.09-4.41-3.09c-2.58,0-4.16,1.3-4.16,3.11c0,1.88,1.17,2.6,3.4,2.95
			l1.36,0.21c0.64,0.1,0.85,0.35,0.85,0.7c0,0.37-0.39,0.64-1.13,0.64c-1.01,0-1.63-0.43-1.75-1.2l-2.91,0.04
			c0.19,2.23,2.08,3.24,4.62,3.24C429.25,597.24,430.9,596.13,430.9,594.19z"/>
		<path d="M438.24,584.01l-5.17,12.99h3.53l0.97-2.51h5.07l0.97,2.51h3.73l-5.17-12.99H438.24z M438.57,591.86l1.48-3.83h0.08
			l1.48,3.83H438.57z"/>
		<polygon points="456.01,592.64 452.8,584.01 449.13,584.01 454.12,596.99 457.81,596.99 462.8,584.01 459.31,584.01 456.1,592.64 
					"/>
		<rect x="463.68" y="584.01" width="3.38" height="2.93"/>
		<rect x="463.7" y="587.8" width="3.34" height="9.19"/>
		<path d="M468.85,587.8v9.19h3.34v-4.21c0-1.55,0.76-2.12,2-2.12c0.64,0,1.13,0.12,1.59,0.39l0.21-3.15
			c-0.23-0.19-0.72-0.35-1.28-0.35c-1.22,0-2.19,0.85-2.52,1.88v-1.63H468.85z"/>
		<path d="M486.41,596.99v-9.19h-3.34v4.51c0,1.4-0.41,2.31-1.46,2.31c-1.01,0-1.36-0.68-1.36-1.92v-4.91h-3.34v5.79
			c0,1.92,0.76,3.65,3.28,3.65c1.38,0,2.39-0.6,2.89-1.63v1.38H486.41z"/>
		<path d="M492.22,595.16c-1.01,0-1.63-0.43-1.75-1.2l-2.91,0.04c0.19,2.23,2.08,3.24,4.62,3.24c2.62,0,4.27-1.11,4.27-3.05
			c0-1.79-1.2-2.72-3.26-3.05l-1.79-0.31c-0.31-0.04-0.56-0.21-0.56-0.52c0-0.41,0.37-0.66,1.01-0.66c1.03,0,1.61,0.41,1.73,1.07
			l2.74-0.08c-0.19-1.92-1.75-3.09-4.41-3.09c-2.58,0-4.16,1.3-4.16,3.11c0,1.88,1.18,2.6,3.4,2.95l1.36,0.21
			c0.64,0.1,0.84,0.35,0.84,0.7C493.36,594.89,492.97,595.16,492.22,595.16z"/>
	</g>
</g>
</svg>
