<?xml version="1.0" encoding="utf-8"?>
<!-- Generator: Adobe Illustrator 23.1.1, SVG Export Plug-In . SVG Version: 6.00 Build 0)  -->
<svg version="1.1" xmlns="http://www.w3.org/2000/svg" xmlns:xlink="http://www.w3.org/1999/xlink" x="0px" y="0px"
	 viewBox="0 0 792 612" style="enable-background:new 0 0 792 612;" xml:space="preserve">
<style type="text/css">
	.st0{display:none;}
	.st1{display:inline;fill:#FFFFFF;}
	.st2{display:inline;}
	.st3{fill:#FFFFFF;stroke:#000000;stroke-width:16;stroke-linecap:round;stroke-linejoin:round;stroke-miterlimit:10;}
	.st4{fill:none;stroke:#000000;stroke-width:24;stroke-linejoin:round;stroke-miterlimit:10;}
	.st5{fill:#FFFFFF;}
	.st6{fill:#FFFFFF;stroke:#000000;stroke-width:17;stroke-linecap:round;stroke-miterlimit:10;}
	.st7{fill:#FFFFFF;stroke:#000000;stroke-width:17;stroke-miterlimit:10;}
	.st8{stroke:#000000;stroke-width:16.0572;stroke-linecap:round;stroke-miterlimit:10;}
	.st9{fill:#FFFFFF;stroke:#000000;stroke-width:13.497;stroke-linecap:round;stroke-linejoin:round;stroke-miterlimit:10;}
	.st10{stroke:#000000;stroke-width:18.3348;stroke-linecap:round;stroke-miterlimit:10;}
	.st11{fill:none;stroke:#000000;stroke-width:13.497;stroke-linecap:round;stroke-linejoin:round;stroke-miterlimit:10;}
	.st12{fill:#FFFFFF;stroke:#000000;stroke-width:14.6942;stroke-linecap:round;stroke-linejoin:round;stroke-miterlimit:10;}
	.st13{fill:none;stroke:#000000;stroke-width:13;stroke-linecap:round;stroke-linejoin:round;stroke-miterlimit:10;}
	.st14{fill:none;stroke:#000000;stroke-width:13;stroke-linejoin:round;stroke-miterlimit:10;}
	.st15{fill:url(#);stroke:#000000;stroke-width:13;stroke-linejoin:round;stroke-miterlimit:10;}
	.st16{fill:none;stroke:#000000;stroke-width:30.5612;stroke-linecap:round;stroke-linejoin:round;stroke-miterlimit:10;}
	.st17{fill:#FFFFFF;stroke:#000000;stroke-width:16.2993;stroke-linecap:round;stroke-linejoin:round;stroke-miterlimit:10;}
	.st18{font-family:'FoundersGrotesk-Bold';}
	.st19{font-size:20.6105px;}
	.st20{font-size:10.3052px;}
	.st21{font-size:19.2364px;}
	.st22{font-size:10px;}
	.st23{fill:#FFFFFF;stroke:#000000;stroke-width:13.497;stroke-linecap:round;stroke-miterlimit:10;}
	.st24{fill:url(#);stroke:#000000;stroke-width:13.497;stroke-linecap:round;stroke-linejoin:round;stroke-miterlimit:10;}
	.st25{fill:#FFFFFF;stroke:#000000;stroke-width:11.7326;stroke-linecap:round;stroke-linejoin:round;stroke-miterlimit:10;}
	.st26{fill:#FFFFFF;stroke:#000000;stroke-width:13.2623;stroke-linecap:round;stroke-linejoin:round;stroke-miterlimit:10;}
	.st27{fill:#FFFFFF;stroke:#000000;stroke-width:13.2623;stroke-linecap:round;stroke-miterlimit:10;}
	.st28{stroke:#000000;stroke-width:4.5213;stroke-miterlimit:10;}
	.st29{fill:none;stroke:#000000;stroke-width:16;stroke-linecap:round;stroke-miterlimit:10;}
	.st30{fill:url(#);stroke:#000000;stroke-width:16;stroke-linecap:round;stroke-linejoin:round;stroke-miterlimit:10;}
	.st31{fill:#FFFFFF;stroke:#000000;stroke-width:16;stroke-linecap:round;stroke-miterlimit:10;}
	.st32{fill:none;stroke:#000000;stroke-width:16;stroke-linecap:round;stroke-linejoin:round;stroke-miterlimit:10;}
	.st33{fill:none;stroke:#000000;stroke-width:15.2344;stroke-linecap:round;stroke-linejoin:round;stroke-miterlimit:10;}
	.st34{fill:#FFFFFF;stroke:#000000;stroke-width:15.2344;stroke-linecap:round;stroke-linejoin:round;stroke-miterlimit:10;}
	.st35{fill:#FFFFFF;stroke:#000000;stroke-width:17;stroke-linecap:round;stroke-linejoin:round;stroke-miterlimit:10;}
	.st36{fill:none;stroke:#000000;stroke-width:9.9764;stroke-linecap:round;stroke-linejoin:round;stroke-miterlimit:10;}
	.st37{fill:none;stroke:#000000;stroke-width:9.3127;stroke-linejoin:round;stroke-miterlimit:10;}
	.st38{fill:url(#);}
	.st39{fill:none;stroke:#000000;stroke-width:8.3796;stroke-linecap:round;stroke-linejoin:round;stroke-miterlimit:10;}
	
		.st40{display:inline;fill:none;stroke:#000000;stroke-width:9.9764;stroke-linecap:round;stroke-linejoin:round;stroke-miterlimit:10;}
	.st41{display:inline;fill:none;stroke:#000000;stroke-width:9.3127;stroke-linejoin:round;stroke-miterlimit:10;}
	.st42{display:inline;fill:url(#);stroke:#000000;stroke-width:10;stroke-linejoin:round;stroke-miterlimit:10;}
	.st43{fill:#FFFFFF;stroke:#000000;stroke-width:14.7375;stroke-linecap:round;stroke-linejoin:round;stroke-miterlimit:10;}
	.st44{fill:none;stroke:#000000;stroke-width:14.7375;stroke-linecap:round;stroke-linejoin:round;stroke-miterlimit:10;}
	.st45{stroke:#000000;stroke-width:14.7375;stroke-linecap:round;stroke-linejoin:round;stroke-miterlimit:10;}
	.st46{fill:#FFFFFF;stroke:#000000;stroke-width:14.2911;stroke-linecap:round;stroke-linejoin:round;stroke-miterlimit:10;}
	.st47{fill:none;stroke:#000000;stroke-width:15;stroke-linecap:round;stroke-linejoin:round;stroke-miterlimit:10;}
	.st48{fill:#FFFFFF;stroke:#000000;stroke-width:15;stroke-linecap:round;stroke-linejoin:round;stroke-miterlimit:10;}
	.st49{fill:#FFFFFF;stroke:#000000;stroke-width:14.8467;stroke-linecap:round;stroke-linejoin:round;stroke-miterlimit:10;}
	.st50{stroke:#000000;stroke-width:20.1683;stroke-linecap:round;stroke-miterlimit:10;}
	.st51{fill:none;stroke:#000000;stroke-width:14.8467;stroke-linecap:round;stroke-linejoin:round;stroke-miterlimit:10;}
	.st52{fill:none;stroke:#000000;stroke-width:13.497;stroke-miterlimit:10;}
	.st53{fill:#FFFFFF;stroke:#000000;stroke-width:13.497;stroke-miterlimit:10;}
	.st54{fill:#FFFFFF;stroke:#000000;stroke-width:14.7439;stroke-linecap:round;stroke-miterlimit:10;}
	.st55{fill:#FFFFFF;stroke:#000000;stroke-width:14.7439;stroke-miterlimit:10;}
	.st56{stroke:#000000;stroke-width:13.9262;stroke-linecap:round;stroke-miterlimit:10;}
	.st57{fill:#FFFFFF;stroke:#000000;stroke-width:17.1072;stroke-linecap:round;stroke-linejoin:round;stroke-miterlimit:10;}
	.st58{stroke:#000000;stroke-width:17.1072;stroke-linecap:round;stroke-linejoin:round;stroke-miterlimit:10;}
	.st59{fill:#FFFFFF;stroke:#000000;stroke-width:15;stroke-linecap:square;stroke-linejoin:round;stroke-miterlimit:10;}
	.st60{fill:#FFFFFF;stroke:#000000;stroke-width:15;stroke-linejoin:round;stroke-miterlimit:10;}
	.st61{fill:#FFFFFF;stroke:#000000;stroke-width:14;stroke-linecap:round;stroke-linejoin:round;stroke-miterlimit:10;}
	.st62{fill:#FFFFFF;stroke:#000000;stroke-width:13;stroke-linecap:round;stroke-linejoin:round;stroke-miterlimit:10;}
	.st63{fill:#FFFFFF;stroke:#000000;stroke-width:15.2362;stroke-linecap:round;stroke-linejoin:round;stroke-miterlimit:10;}
	.st64{fill:#FFFFFF;stroke:#FFFFFF;stroke-width:3;stroke-miterlimit:10;}
	.st65{fill:#FFFFFF;stroke:#000000;stroke-width:13.3058;stroke-linecap:round;stroke-linejoin:round;stroke-miterlimit:10;}
	.st66{fill:#FFFFFF;stroke:#000000;stroke-width:15.2517;stroke-linecap:round;stroke-linejoin:round;stroke-miterlimit:10;}
	.st67{stroke:#000000;stroke-width:3;stroke-miterlimit:10;}
</style>
<g id="unexpanded" class="st0">
	<rect x="-6264.75" y="-955.56" class="st1" width="14663.41" height="9108.82"/>
	<g class="st2">
		<rect x="0.14" y="-612" class="st5" width="792" height="1224"/>
		<g>
			<g>
				<g>
					<path class="st16" d="M673.1,512.72l33.72-10.7c7.64-2.43,10.92-13.57,7.33-24.89l-28.14-88.65
						c-21.39-67.37-68.03-125.83-121.04-109c-53.02,16.83-57.4,91.49-36.02,158.86l28.14,88.65c3.59,11.32,12.7,18.53,20.34,16.1
						l33.19-10.54"/>
					<path class="st16" d="M564.96,279.48C444.44,30.14,247.05,137.59,226.41,379.5"/>
					<g>
						<path class="st5" d="M427.2,142.05c0,0,66.96-25.81,79.76,46.75s-13.37,99.87-30.38,112.89
							c-17.01,13.02,5.08,237.07,6.06,287.02H331.21"/>
						<g>
							<path class="st17" d="M492.64,223.83c-5.94,9.81-19.17,12.68-29.54,6.39c-10.38-6.28-13.97-19.33-8.03-29.14l39.39-65.06
								c5.94-9.81,19.17-12.68,29.54-6.39c10.38,6.28,13.97,19.33,8.03,29.14L492.64,223.83z"/>
							<path class="st17" d="M455.07,201.08c-5.94,9.81-19.17,12.68-29.54,6.39c-10.38-6.28-13.97-19.33-8.03-29.14l45.81-75.67
								c5.94-9.81,19.17-12.68,29.54-6.39c10.38,6.28,13.97,19.33,8.03,29.14L455.07,201.08z"/>
							<path class="st17" d="M380.1,155.7c-5.94,9.81-19.17,12.68-29.54,6.39c-10.38-6.28-13.97-19.33-8.03-29.14l45.81-75.67
								c5.94-9.81,19.17-12.68,29.54-6.39c10.38,6.28,13.97,19.33,8.03,29.14L380.1,155.7z"/>
							<path class="st17" d="M417.67,178.44c-5.94,9.81-19.17,12.68-29.54,6.39c-10.38-6.28-13.97-19.33-8.03-29.14l52.24-86.29
								c5.94-9.81,19.17-12.68,29.54-6.39c10.38,6.28,13.97,19.33,8.03,29.14L417.67,178.44z"/>
						</g>
						<path class="st5" d="M418.27,271.12c0,0,17.01-65.53-46.76-92c3.08-5.3,6.72-11.58,6.72-11.58s16.22,6.95,31.44-2.98
							s17.54-22.5,17.54-22.5s-55.93-26.81-65.53-30.78c-9.6-3.97-19.86,0-30.12,13.24s-43.35,54.61-42.03,80.42
							s39.71,64.53,46,82.4c6.29,17.87,11.58,69.83,5.96,103.58h87.29"/>
					</g>
					<g>
						<path class="st17" d="M427.2,142.05c0,0,66.96-25.81,79.76,46.75s-12.15,108.32-29.11,125.39
							c-20.02,25.27,4.8,145.07,4.8,267.45"/>
						<g>
							<path class="st17" d="M492.64,223.83c-5.94,9.81-19.17,12.68-29.54,6.39c-10.38-6.28-13.97-19.33-8.03-29.14l39.39-65.06
								c5.94-9.81,19.17-12.68,29.54-6.39c10.38,6.28,13.97,19.33,8.03,29.14L492.64,223.83z"/>
							<path class="st17" d="M455.07,201.08c-5.94,9.81-19.17,12.68-29.54,6.39c-10.38-6.28-13.97-19.33-8.03-29.14l45.81-75.67
								c5.94-9.81,19.17-12.68,29.54-6.39c10.38,6.28,13.97,19.33,8.03,29.14L455.07,201.08z"/>
							<path class="st17" d="M380.1,155.7c-5.94,9.81-19.17,12.68-29.54,6.39c-10.38-6.28-13.97-19.33-8.03-29.14l45.81-75.67
								c5.94-9.81,19.17-12.68,29.54-6.39c10.38,6.28,13.97,19.33,8.03,29.14L380.1,155.7z"/>
							<path class="st17" d="M417.67,178.44c-5.94,9.81-19.17,12.68-29.54,6.39c-10.38-6.28-13.97-19.33-8.03-29.14l52.24-86.29
								c5.94-9.81,19.17-12.68,29.54-6.39c10.38,6.28,13.97,19.33,8.03,29.14L417.67,178.44z"/>
						</g>
						<path class="st17" d="M418.27,271.12c0,0,17.01-65.53-46.76-92c3.08-5.3,6.72-11.58,6.72-11.58s16.22,6.95,31.44-2.98
							s17.54-22.5,17.54-22.5s-55.93-26.81-65.53-30.78c-9.6-3.97-19.86,0-30.12,13.24s-43.35,54.61-42.03,80.42
							s42.51,63.78,46,82.4c12.65,67.5-4.32,116.76-4.32,301.38"/>
					</g>
					<circle class="st17" cx="226.41" cy="427.05" r="58.69"/>
				</g>
				<line class="st17" x1="391.49" y1="179.93" x2="411.76" y2="174.32"/>
			</g>
		</g>
		<text transform="matrix(0 -1 1 0 26.8613 443.1503)"><tspan x="0" y="0" class="st18 st19">www</tspan><tspan x="45.14" y="0" class="st18 st20"> </tspan><tspan x="46.99" y="0" class="st18 st19">.</tspan><tspan x="51.77" y="0" class="st18 st20"> </tspan><tspan x="53.63" y="0" class="st18 st19">Capitalism</tspan><tspan x="150.43" y="0" class="st18 st21"> </tspan><tspan x="153.9" y="0" class="st18 st19">Is</tspan><tspan x="168.88" y="0" class="st18 st21"> </tspan><tspan x="172.34" y="0" class="st18 st19">A</tspan><tspan x="186.6" y="0" class="st18 st20"> </tspan><tspan x="188.46" y="0" class="st18 st19">Virus</tspan><tspan x="236.15" y="0" class="st18 st20"> </tspan><tspan x="238.01" y="0" class="st18 st19">.</tspan><tspan x="242.79" y="0" class="st18 st20"> </tspan><tspan x="244.64" y="0" class="st18 st19">org</tspan></text>
		<text transform="matrix(0 1 -1 0 761.9287 209.1802)"><tspan x="0" y="0" class="st18 st19">#</tspan><tspan x="12.7" y="0" class="st18 st22"> </tspan><tspan x="14.5" y="0" class="st18 st19">Capitalism</tspan><tspan x="111.3" y="0" class="st18 st22"> </tspan><tspan x="113.1" y="0" class="st18 st19">Is</tspan><tspan x="128.09" y="0" class="st18 st22"> </tspan><tspan x="129.89" y="0" class="st18 st19">A</tspan><tspan x="144.15" y="0" class="st18 st22"> </tspan><tspan x="145.95" y="0" class="st18 st19">Virus</tspan></text>
	</g>
</g>
<g id="exp_trnsp_bg">
	<path d="M700.57,383.85c-11.96-37.68-30.58-70.45-52.43-92.26c-22.88-22.85-49.02-33.06-74.82-29.59
		c-14.99-29.23-31.42-54.13-49.16-74.52L539,163c8.26-13.64,3.42-31.74-10.78-40.33c-5.07-3.07-10.77-4.6-16.5-4.51
		c1.18-11.05-4.19-22.53-14.64-28.86c-5.01-3.03-10.63-4.56-16.29-4.51c0.37-3.52,0.08-7.13-0.91-10.7
		c-2.07-7.52-6.96-13.93-13.77-18.05c-10.46-6.33-23.13-5.77-32.38,0.41c-2.51-4.99-6.44-9.4-11.63-12.54
		c-6.81-4.12-14.76-5.48-22.38-3.83c-7.79,1.69-14.31,6.29-18.36,12.98l-29.5,48.73c-12.01,1.29-21.47,10.92-26.75,17.74l-1.36,1.75
		c-13.46,17.3-28.16,37.67-36.24,56.61c-7.68,8.56-14.94,18-21.69,28.28c-27.53,41.95-45.7,95.41-52.93,155.43
		c-30.4,6.26-53.33,33.24-53.33,65.47c0,36.86,29.98,66.84,66.84,66.84s66.84-29.99,66.84-66.84c0-30.92-21.11-56.99-49.67-64.6
		c6.59-51.95,21.92-98.15,44.78-134.81c5.47,10.59,13.43,21.45,21.23,32.1c8.24,11.24,16.76,22.87,17.92,29.09
		c6.74,35.98,4.83,66.75,1.66,117.74c-2.58,41.52-6.12,98.39-6.12,182.14c0,4.5,3.65,8.15,8.15,8.15s8.15-3.65,8.15-8.15
		c0-83.24,3.52-139.81,6.09-181.12c3.25-52.25,5.21-83.79-1.9-121.76c-1.85-9.86-10.63-21.84-20.8-35.72
		c-10.89-14.87-24.45-33.37-25.08-45.6c-1.11-21.73,29.04-60.5,38.95-73.24l1.38-1.77c7.48-9.65,14.39-13.25,20.56-10.7
		c7.29,3.02,42.96,20.01,58.2,27.29c-1.99,3.35-5.49,7.69-11.55,11.64c-11.23,7.32-23.32,2.5-23.78,2.31
		c-3.79-1.62-8.2-0.16-10.26,3.41c0,0-3.64,6.28-6.71,11.57c-1.18,2.03-1.43,4.47-0.68,6.7s2.43,4.02,4.6,4.92
		c56.23,23.35,42.63,79.95,42,82.44c-1.12,4.35,1.49,8.79,5.84,9.92c4.36,1.13,8.81-1.48,9.94-5.84c0.19-0.74,4.66-18.39,0.65-39.63
		c-1.14-6.03-3.05-12.71-6.15-19.5c0.22,0.14,0.43,0.28,0.65,0.42c4.92,2.98,10.44,4.52,16,4.52c2.13,0,4.27-0.23,6.38-0.68
		c0.39-0.08,0.77-0.18,1.16-0.28c1.79,7.66,6.64,14.72,14.04,19.2c4.92,2.98,10.44,4.52,16,4.52c2.13,0,4.27-0.23,6.38-0.68
		c7.79-1.69,14.31-6.29,18.36-12.98l2.69-4.44c0.62,35.51-9.49,63.96-30.24,84.84c-0.22,0.22-0.42,0.44-0.61,0.68
		c-13.95,17.6-10.18,63.28-4.48,132.42c3.52,42.69,7.51,91.08,7.51,140.09c0,3.03,1.65,5.66,4.11,7.07
		c1.19,0.68,2.57,1.08,4.04,1.08c4.5,0,8.15-3.65,8.15-8.15c0-49.69-4.02-98.43-7.57-141.43c-4.56-55.3-8.87-107.56,0.77-120.65
		c22.41-22.75,33.98-52.74,34.62-89.47c8.9,12.6,17.45,26.66,25.56,42.1c-20.94,12.57-34.98,35.12-40.18,65.16
		c-5.26,30.42-1.58,67.93,10.38,105.61l28.14,88.65c5.25,16.52,18.35,27.24,31.85,27.24c2.56,0,5.14-0.39,7.69-1.19l33.19-10.54
		c8.04-2.55,12.5-11.14,9.94-19.19c-2.55-8.04-11.15-12.49-19.19-9.94l-31.16,9.89c-0.95-0.91-2.3-2.75-3.18-5.52l-28.14-88.65
		c-10.51-33.1-13.84-65.47-9.4-91.15c4.53-26.16,16.46-42.48,35.48-48.52c19.02-6.04,38.18,0.42,56.96,19.17
		c18.44,18.42,34.39,46.79,44.89,79.89l28.14,88.65c0.88,2.77,0.83,5.06,0.58,6.34l-31.69,10.06c-8.04,2.55-12.5,11.14-9.94,19.19
		c2.55,8.04,11.15,12.49,19.19,9.94l33.72-10.7c15.93-5.06,23.51-24.42,17.27-44.08L700.57,383.85z M276.95,427.05
		c0,27.87-22.67,50.54-50.54,50.54s-50.54-22.67-50.54-50.54s22.67-50.54,50.54-50.54S276.95,399.18,276.95,427.05z M368.7,105.45
		l26.61-43.95c1.7-2.81,4.49-4.76,7.86-5.49c0.96-0.21,1.94-0.31,2.92-0.31c2.61,0,5.22,0.73,7.57,2.16
		c6.51,3.94,8.88,12,5.28,17.95l-25.05,41.37C383.97,112.49,374.42,108.02,368.7,105.45z M408.7,124.19l30.61-50.56
		c2.27-3.76,6.39-5.79,10.76-5.79c2.55,0,5.19,0.7,7.59,2.15c3.23,1.96,5.54,4.95,6.5,8.44c0.92,3.32,0.48,6.7-1.22,9.51
		l-29.55,48.81c-0.72-0.84-1.62-1.55-2.67-2.05C429.79,134.25,420.29,129.7,408.7,124.19z M448.1,196.86
		c-1.7,2.81-4.49,4.76-7.86,5.49c-3.54,0.77-7.26,0.11-10.49-1.84c-5.96-3.61-8.43-10.64-6.06-16.37c0.33-0.48,0.65-0.96,0.96-1.47
		l46.92-77.5c1.68-1.88,3.95-3.2,6.58-3.77c0.96-0.21,1.94-0.31,2.92-0.31c2.61,0,5.22,0.73,7.57,2.16c6.51,3.94,8.88,12,5.28,17.95
		L448.1,196.86z M485.67,219.61c-1.7,2.81-4.49,4.76-7.86,5.49c-3.54,0.77-7.26,0.11-10.49-1.84c-6.51-3.94-8.88-12-5.28-17.95
		l39.39-65.06c1.7-2.81,4.49-4.76,7.86-5.49c0.96-0.21,1.94-0.31,2.92-0.31c2.61,0,5.22,0.73,7.57,2.16
		c6.52,3.94,8.88,12,5.28,17.95L485.67,219.61z"/>
	<polygon points="17.67,400.93 22.88,402.58 22.88,402.66 17.67,404 17.67,406.66 22.88,408 22.88,408.08 17.67,409.73 
		17.67,412.96 17.67,413.05 17.67,415.97 22.88,417.62 22.88,417.7 17.67,419.04 17.67,421.7 22.88,423.04 22.88,423.13 
		17.67,424.78 17.67,428.01 17.67,428.09 17.67,431.02 22.88,432.67 22.88,432.75 17.67,434.09 17.67,436.75 22.88,438.09 
		22.88,438.17 17.67,439.82 17.67,443.14 26.86,440.23 26.86,436.96 21.67,435.62 21.67,435.53 26.86,434.19 26.86,430.92 
		17.8,428.05 26.86,425.19 26.86,421.91 21.67,420.57 21.67,420.49 26.86,419.15 26.86,415.87 17.8,413.01 26.86,410.14 
		26.86,406.86 21.67,405.52 21.67,405.44 26.86,404.1 26.86,400.82 17.67,397.92 	"/>
	<rect x="23.32" y="391.94" width="3.55" height="3.55"/>
	<path d="M20.37,389.06c4,0,6.74-2.87,6.74-6.66c0-3.98-2.51-6.1-5.75-6.35l-0.14,3.36c1.44,0.21,2.78,0.99,2.78,3.01
		c0,1.92-1.42,3.03-3.63,3.03s-3.63-1.11-3.63-3.03c0-2.02,1.34-2.8,2.78-3.01l-0.12-3.36c-3.24,0.25-5.77,2.37-5.77,6.35
		C13.63,386.19,16.37,389.06,20.37,389.06z"/>
	<path d="M27.07,366.96c0-0.95-0.27-1.61-0.6-2.08H24.7c0.1,0.27,0.14,0.47,0.14,0.74c0,0.35-0.21,0.56-0.68,0.56h-3.13
		c-2.56,0-3.61,1.79-3.61,4.23c0,2.76,1.4,4.27,3.42,4.56l0.21-3.09c-0.68-0.14-1.15-0.52-1.15-1.26c0-0.8,0.45-1.15,1.22-1.15h0.14
		l0.43,2.58c0.35,2,1.11,3.28,2.89,3.28c1.57,0,2.49-1.17,2.49-2.97c0-1.46-0.56-2.52-1.63-3.05
		C26.49,368.98,27.07,368.1,27.07,366.96z M24.14,372.1c-0.6,0-0.85-0.47-1.01-1.28l-0.25-1.36h0.14c1.2,0,1.9,0.76,1.9,1.71
		C24.92,371.72,24.61,372.1,24.14,372.1z"/>
	<path d="M27.11,357.54c0-2.7-2.12-4.08-4.84-4.08c-2.7,0-4.84,1.38-4.84,4.08c0,1.55,0.74,2.58,1.83,3.03h-1.59v3.34h12.49v-3.34
		h-4.86C26.37,360.12,27.11,359.09,27.11,357.54z M22.33,360.57H22.2c-1.32,0-2.18-0.72-2.18-1.86c0-1.3,0.93-1.9,2.25-1.9
		c1.34,0,2.27,0.6,2.27,1.9C24.53,359.85,23.67,360.57,22.33,360.57z"/>
	<rect x="13.87" y="348.79" width="2.93" height="3.38"/>
	<rect x="17.67" y="348.81" width="9.19" height="3.34"/>
	<path d="M15.13,345.47l1.2,0.31c0.85,0.23,1.34,0.52,1.48,1.44l0.1,0.68h2.06v-1.24h4.33c2.16,0,2.8-1.46,2.8-3.01
		c0-1.26-0.31-2.06-0.82-2.76h-2.16c0.23,0.56,0.31,1.01,0.31,1.42c0,0.68-0.31,1.05-1.09,1.05h-3.36v-2.39h-2.31v2.39h-2.54V345.47
		z"/>
	<path d="M24.16,331.02h-3.13c-2.56,0-3.61,1.79-3.61,4.23c0,2.76,1.4,4.27,3.42,4.56l0.21-3.09c-0.68-0.14-1.15-0.52-1.15-1.26
		c0-0.8,0.45-1.15,1.22-1.15h0.14l0.43,2.58c0.35,2,1.11,3.28,2.89,3.28c1.57,0,2.49-1.17,2.49-2.97c0-1.46-0.56-2.52-1.63-3.05
		c1.05-0.31,1.63-1.2,1.63-2.33c0-0.95-0.27-1.61-0.6-2.08H24.7c0.1,0.27,0.14,0.47,0.14,0.74
		C24.84,330.81,24.63,331.02,24.16,331.02z M24.92,336.01c0,0.56-0.31,0.93-0.78,0.93c-0.6,0-0.85-0.47-1.01-1.28l-0.25-1.36h0.14
		C24.22,334.3,24.92,335.06,24.92,336.01z"/>
	<rect x="13.87" y="325.41" width="12.99" height="3.34"/>
	<rect x="17.67" y="320.26" width="9.19" height="3.34"/>
	<rect x="13.87" y="320.24" width="2.93" height="3.38"/>
	<path d="M20.53,318.92c1.88,0,2.6-1.17,2.95-3.4l0.21-1.36c0.1-0.64,0.35-0.85,0.7-0.85c0.37,0,0.64,0.39,0.64,1.13
		c0,1.01-0.43,1.63-1.2,1.75l0.04,2.91c2.23-0.19,3.24-2.08,3.24-4.62c0-2.62-1.11-4.27-3.05-4.27c-1.79,0-2.72,1.2-3.05,3.26
		l-0.31,1.79c-0.04,0.31-0.21,0.56-0.52,0.56c-0.41,0-0.66-0.37-0.66-1.01c0-1.03,0.41-1.61,1.07-1.73l-0.08-2.74
		c-1.92,0.19-3.09,1.75-3.09,4.41C17.42,317.33,18.72,318.92,20.53,318.92z"/>
	<path d="M17.42,302.74c0,1.38,0.62,2.37,1.63,2.87h-1.38v3.34h9.19v-3.34h-4.51c-1.38,0-2.29-0.39-2.29-1.48
		c0-1.01,0.66-1.26,1.92-1.26h4.89v-3.34h-4.51c-1.38,0-2.29-0.37-2.29-1.48c0-1.01,0.66-1.24,1.92-1.24h4.89v-3.34h-5.77
		c-1.92,0-3.67,0.74-3.67,3.28c0,1.55,0.78,2.64,1.81,3.13C18.16,300.27,17.42,301.11,17.42,302.74z"/>
	<rect x="13.87" y="284.71" width="12.99" height="3.5"/>
	<path d="M23.83,280.57l0.04,2.91c2.23-0.19,3.24-2.08,3.24-4.62c0-2.62-1.11-4.27-3.05-4.27c-1.79,0-2.72,1.2-3.05,3.26l-0.31,1.79
		c-0.04,0.31-0.21,0.56-0.52,0.56c-0.41,0-0.66-0.37-0.66-1.01c0-1.03,0.41-1.61,1.07-1.73l-0.08-2.74
		c-1.92,0.19-3.09,1.75-3.09,4.41c0,2.58,1.3,4.16,3.11,4.16c1.88,0,2.6-1.18,2.95-3.4l0.21-1.36c0.1-0.64,0.35-0.85,0.7-0.85
		c0.37,0,0.64,0.39,0.64,1.13C25.03,279.82,24.59,280.44,23.83,280.57z"/>
	<path d="M26.86,267.23l-2.51-0.97v-5.07l2.51-0.97v-3.73l-12.99,5.17v3.92l12.99,5.17V267.23z M21.73,265.25l-3.83-1.48v-0.08
		l3.83-1.48V265.25z"/>
	<polygon points="26.86,245.96 13.87,240.97 13.87,244.46 22.51,247.67 22.51,247.75 13.87,250.97 13.87,254.64 26.86,249.65 	"/>
	<rect x="13.87" y="236.71" width="2.93" height="3.38"/>
	<rect x="17.67" y="236.73" width="9.19" height="3.34"/>
	<path d="M19.3,231.58h-1.63v3.34h9.19v-3.34h-4.21c-1.55,0-2.12-0.76-2.12-2c0-0.64,0.12-1.13,0.39-1.59l-3.15-0.21
		c-0.19,0.23-0.35,0.72-0.35,1.28C17.42,230.28,18.27,231.25,19.3,231.58z"/>
	<path d="M22.57,223.52h-4.91v3.34h5.79c1.92,0,3.65-0.76,3.65-3.28c0-1.38-0.6-2.39-1.63-2.89h1.38v-3.34h-9.19v3.34h4.51
		c1.4,0,2.31,0.41,2.31,1.46C24.49,223.17,23.81,223.52,22.57,223.52z"/>
	<path d="M20.53,216.02c1.88,0,2.6-1.18,2.95-3.4l0.21-1.36c0.1-0.64,0.35-0.85,0.7-0.85c0.37,0,0.64,0.39,0.64,1.13
		c0,1.01-0.43,1.63-1.2,1.75l0.04,2.91c2.23-0.19,3.24-2.08,3.24-4.62c0-2.62-1.11-4.27-3.05-4.27c-1.79,0-2.72,1.2-3.05,3.26
		l-0.31,1.79c-0.04,0.31-0.21,0.56-0.52,0.56c-0.41,0-0.66-0.37-0.66-1.01c0-1.03,0.41-1.61,1.07-1.73l-0.08-2.74
		c-1.92,0.19-3.09,1.75-3.09,4.41C17.42,214.43,18.72,216.02,20.53,216.02z"/>
	<rect x="23.32" y="200.93" width="3.55" height="3.55"/>
	<path d="M22.26,198.04c2.87,0,4.84-2.02,4.84-5.03c0-2.99-1.98-5.03-4.84-5.03c-2.84,0-4.84,2.04-4.84,5.03
		C17.42,196.02,19.42,198.04,22.26,198.04z M22.26,191.34c1.38,0,2.33,0.52,2.33,1.67c0,1.17-0.95,1.67-2.33,1.67
		s-2.33-0.49-2.33-1.67C19.93,191.86,20.88,191.34,22.26,191.34z"/>
	<path d="M17.77,179.53c-0.19,0.23-0.35,0.72-0.35,1.28c0,1.22,0.85,2.19,1.88,2.52h-1.63v3.34h9.19v-3.34h-4.21
		c-1.55,0-2.12-0.76-2.12-2c0-0.64,0.12-1.13,0.39-1.59L17.77,179.53z"/>
	<path d="M18.16,171.45c-0.47,0.78-0.74,1.83-0.74,2.95c0,2.58,1.2,4.43,3.15,4.43c1.01,0,1.79-0.49,2.33-1.32
		c0.37,0.99,1.05,1.57,1.94,1.57c0.78,0,1.53-0.49,1.79-1.32c0.08,1.03,0.72,1.75,1.53,1.75c1.73,0,2.25-2.27,2.25-4.89
		c0-2.99-1.05-5.77-3.34-5.77c-1.55,0-2.64,1.05-2.64,3.13v3.81c0,0.56-0.25,0.78-0.56,0.78c-0.19,0-0.33-0.06-0.43-0.19
		c0.19-0.6,0.27-1.26,0.27-2c0-2.6-1.2-4.47-3.13-4.47c-0.43,0-0.83,0.1-1.18,0.29c-0.1-0.45-0.14-0.95-0.14-1.34h-2.52
		C16.74,169.89,17.4,170.9,18.16,171.45z M27.27,172.77c0-0.56,0.14-0.85,0.54-0.85c0.56,0,0.87,1.13,0.87,2.68
		c0,1.24-0.19,2.16-0.85,2.16c-0.35,0-0.56-0.25-0.56-0.62V172.77z M20.57,173.39c0.82,0,1.34,0.41,1.34,0.97
		c0,0.56-0.52,0.97-1.34,0.97c-0.8,0-1.32-0.41-1.32-0.97C19.25,173.8,19.77,173.39,20.57,173.39z"/>
	<path d="M771.49,210.85l-2.06-0.43v1.98l-2.02-0.49v-1.88l-2.06-0.43v1.81l-3.42-0.8v2.49l3.42,0.8v1.77l-3.42-0.8v2.49l3.42,0.8
		v2.04l2.06,0.43v-1.98l2.02,0.49v1.88l2.06,0.43v-1.83l3.42,0.82v-2.49l-3.42-0.82v-1.77l3.42,0.83v-2.49l-3.42-0.82V210.85z
		 M769.43,216.66l-2.02-0.49v-1.77l2.02,0.5V216.66z"/>
	<path d="M768.42,224.09c-4,0-6.74,2.87-6.74,6.66c0,3.98,2.51,6.1,5.75,6.35l0.14-3.36c-1.44-0.21-2.78-0.99-2.78-3.01
		c0-1.92,1.42-3.03,3.63-3.03c2.21,0,3.63,1.11,3.63,3.03c0,2.02-1.34,2.8-2.78,3.01l0.12,3.36c3.24-0.25,5.77-2.37,5.77-6.35
		C775.16,226.95,772.42,224.09,768.42,224.09z"/>
	<path d="M761.72,246.18c0,0.95,0.27,1.61,0.6,2.08h1.77c-0.1-0.27-0.14-0.47-0.14-0.74c0-0.35,0.21-0.56,0.68-0.56h3.13
		c2.56,0,3.61-1.79,3.61-4.23c0-2.76-1.4-4.27-3.42-4.56l-0.21,3.09c0.68,0.14,1.15,0.52,1.15,1.26c0,0.8-0.45,1.15-1.22,1.15h-0.14
		l-0.43-2.58c-0.35-2-1.11-3.28-2.89-3.28c-1.57,0-2.49,1.18-2.49,2.97c0,1.46,0.56,2.52,1.63,3.05
		C762.3,244.16,761.72,245.05,761.72,246.18z M764.65,241.05c0.6,0,0.84,0.47,1.01,1.28l0.25,1.36h-0.14c-1.2,0-1.9-0.76-1.9-1.71
		C763.87,241.42,764.18,241.05,764.65,241.05z"/>
	<path d="M758.63,252.57h4.86c-1.07,0.45-1.81,1.48-1.81,3.03c0,2.7,2.12,4.08,4.84,4.08c2.7,0,4.84-1.38,4.84-4.08
		c0-1.55-0.74-2.58-1.83-3.03h1.59v-3.34h-12.49V252.57z M766.46,252.57h0.12c1.32,0,2.18,0.72,2.18,1.86c0,1.3-0.93,1.9-2.25,1.9
		c-1.34,0-2.27-0.6-2.27-1.9C764.26,253.29,765.12,252.57,766.46,252.57z"/>
	<rect x="761.93" y="261" width="9.19" height="3.34"/>
	<rect x="771.99" y="260.98" width="2.93" height="3.38"/>
	<path d="M773.66,267.68l-1.2-0.31c-0.85-0.23-1.34-0.52-1.48-1.44l-0.1-0.68h-2.06v1.24h-4.33c-2.16,0-2.8,1.46-2.8,3.01
		c0,1.26,0.31,2.06,0.82,2.76h2.16c-0.23-0.56-0.31-1.01-0.31-1.42c0-0.68,0.31-1.05,1.09-1.05h3.36v2.39h2.31v-2.39h2.54V267.68z"
		/>
	<path d="M764.63,282.13h3.13c2.56,0,3.61-1.79,3.61-4.23c0-2.76-1.4-4.27-3.42-4.56l-0.21,3.09c0.68,0.14,1.15,0.52,1.15,1.26
		c0,0.8-0.45,1.15-1.22,1.15h-0.14l-0.43-2.58c-0.35-2-1.11-3.28-2.89-3.28c-1.57,0-2.49,1.18-2.49,2.97c0,1.46,0.56,2.51,1.63,3.05
		c-1.05,0.31-1.63,1.2-1.63,2.33c0,0.95,0.27,1.61,0.6,2.08h1.77c-0.1-0.27-0.14-0.47-0.14-0.74
		C763.95,282.33,764.16,282.13,764.63,282.13z M763.87,277.14c0-0.56,0.31-0.93,0.78-0.93c0.6,0,0.84,0.47,1.01,1.28l0.25,1.36
		h-0.14C764.57,278.85,763.87,278.09,763.87,277.14z"/>
	<rect x="761.93" y="284.39" width="12.99" height="3.34"/>
	<rect x="771.99" y="289.53" width="2.93" height="3.38"/>
	<rect x="761.93" y="289.55" width="9.19" height="3.34"/>
	<path d="M768.26,294.22c-1.88,0-2.6,1.18-2.95,3.4l-0.21,1.36c-0.1,0.64-0.35,0.85-0.7,0.85c-0.37,0-0.64-0.39-0.64-1.13
		c0-1.01,0.43-1.63,1.2-1.75l-0.04-2.91c-2.23,0.19-3.24,2.08-3.24,4.62c0,2.62,1.11,4.27,3.05,4.27c1.79,0,2.72-1.2,3.05-3.26
		l0.31-1.79c0.04-0.31,0.21-0.56,0.51-0.56c0.41,0,0.66,0.37,0.66,1.01c0,1.03-0.41,1.61-1.07,1.73l0.08,2.74
		c1.92-0.19,3.09-1.75,3.09-4.41C771.37,295.81,770.07,294.22,768.26,294.22z"/>
	<path d="M771.37,310.41c0-1.38-0.62-2.37-1.63-2.87h1.38v-3.34h-9.19v3.34h4.51c1.38,0,2.29,0.39,2.29,1.48
		c0,1.01-0.66,1.26-1.92,1.26h-4.89v3.34h4.51c1.38,0,2.29,0.37,2.29,1.48c0,1.01-0.66,1.24-1.92,1.24h-4.89v3.34h5.77
		c1.92,0,3.67-0.74,3.67-3.28c0-1.55-0.78-2.64-1.81-3.13C770.63,312.88,771.37,312.03,771.37,310.41z"/>
	<rect x="761.93" y="323.27" width="12.99" height="3.5"/>
	<path d="M764.96,330.92l-0.04-2.91c-2.23,0.19-3.24,2.08-3.24,4.62c0,2.62,1.11,4.27,3.05,4.27c1.79,0,2.72-1.2,3.05-3.26
		l0.31-1.79c0.04-0.31,0.21-0.56,0.51-0.56c0.41,0,0.66,0.37,0.66,1.01c0,1.03-0.41,1.61-1.07,1.73l0.08,2.74
		c1.92-0.19,3.09-1.75,3.09-4.41c0-2.58-1.3-4.16-3.11-4.16c-1.88,0-2.6,1.18-2.95,3.4l-0.21,1.36c-0.1,0.64-0.35,0.85-0.7,0.85
		c-0.37,0-0.64-0.39-0.64-1.13C763.76,331.66,764.2,331.04,764.96,330.92z"/>
	<path d="M761.93,342.59l2.51,0.97v5.07l-2.51,0.97v3.73l12.99-5.17v-3.92l-12.99-5.17V342.59z M767.06,344.57l3.83,1.48v0.08
		l-3.83,1.48V344.57z"/>
	<polygon points="761.93,363.81 774.92,368.8 774.92,365.31 766.28,362.1 766.28,362.01 774.92,358.8 774.92,355.13 761.93,360.12 	
		"/>
	<rect x="771.99" y="369.68" width="2.93" height="3.38"/>
	<rect x="761.93" y="369.7" width="9.19" height="3.34"/>
	<path d="M769.49,378.19h1.63v-3.34h-9.19v3.34h4.21c1.55,0,2.12,0.76,2.12,2c0,0.64-0.12,1.13-0.39,1.59l3.15,0.21
		c0.19-0.23,0.35-0.72,0.35-1.28C771.37,379.49,770.53,378.52,769.49,378.19z"/>
	<path d="M766.22,386.25h4.91v-3.34h-5.79c-1.92,0-3.65,0.76-3.65,3.28c0,1.38,0.6,2.39,1.63,2.89h-1.38v3.34h9.19v-3.34h-4.51
		c-1.4,0-2.31-0.41-2.31-1.46C764.3,386.6,764.98,386.25,766.22,386.25z"/>
	<path d="M768.26,393.75c-1.88,0-2.6,1.18-2.95,3.4l-0.21,1.36c-0.1,0.64-0.35,0.85-0.7,0.85c-0.37,0-0.64-0.39-0.64-1.13
		c0-1.01,0.43-1.63,1.2-1.75l-0.04-2.91c-2.23,0.19-3.24,2.08-3.24,4.62c0,2.62,1.11,4.27,3.05,4.27c1.79,0,2.72-1.2,3.05-3.26
		l0.31-1.79c0.04-0.31,0.21-0.56,0.51-0.56c0.41,0,0.66,0.37,0.66,1.01c0,1.03-0.41,1.61-1.07,1.73l0.08,2.74
		c1.92-0.19,3.09-1.75,3.09-4.41C771.37,395.34,770.07,393.75,768.26,393.75z"/>
</g>
<g id="exp_white_bg" class="st0">
	<g class="st2">
		<path class="st5" d="M23.03,369.46h-0.14l0.25,1.36c0.17,0.8,0.41,1.28,1.01,1.28c0.47,0,0.78-0.37,0.78-0.93
			C24.92,370.22,24.22,369.46,23.03,369.46z"/>
		<path class="st5" d="M22.26,194.68c1.38,0,2.33-0.49,2.33-1.67c0-1.15-0.95-1.67-2.33-1.67s-2.33,0.52-2.33,1.67
			C19.93,194.19,20.88,194.68,22.26,194.68z"/>
		<path class="st5" d="M27.83,176.77c0.66,0,0.85-0.93,0.85-2.16c0-1.55-0.31-2.68-0.87-2.68c-0.39,0-0.54,0.29-0.54,0.85v3.38
			C27.27,176.53,27.48,176.77,27.83,176.77z"/>
		<path class="st5" d="M0.14,612h792V-612h-792V612z M26.86,404.1l-5.19,1.34v0.08l5.19,1.34v3.28l-9.06,2.86l9.06,2.86v3.28
			l-5.19,1.34v0.08l5.19,1.34v3.28l-9.06,2.86l9.06,2.86v3.28l-5.19,1.34v0.08l5.19,1.34v3.28l-9.19,2.91v-3.32l5.22-1.65v-0.08
			l-5.22-1.34v-2.66l5.22-1.34v-0.08l-5.22-1.65v-2.92v-0.09v-3.23l5.22-1.65v-0.08l-5.22-1.34v-2.66l5.22-1.34v-0.08l-5.22-1.65
			v-2.92v-0.09v-3.23l5.22-1.65V408l-5.22-1.34V404l5.22-1.34v-0.08l-5.22-1.65v-3.01l9.19,2.91V404.1z M26.86,395.49h-3.55v-3.55
			h3.55V395.49z M30.16,363.91H17.67v-3.34h1.59c-1.09-0.45-1.83-1.48-1.83-3.03c0-2.7,2.14-4.08,4.84-4.08
			c2.72,0,4.84,1.38,4.84,4.08c0,1.55-0.74,2.58-1.81,3.03h4.86V363.91z M27.07,372.34c0,1.79-0.93,2.97-2.49,2.97
			c-1.77,0-2.54-1.28-2.89-3.28l-0.43-2.58h-0.14c-0.76,0-1.22,0.35-1.22,1.15c0,0.74,0.47,1.11,1.15,1.26l-0.21,3.09
			c-2.02-0.29-3.42-1.79-3.42-4.56c0-2.43,1.05-4.23,3.61-4.23h3.13c0.47,0,0.68-0.21,0.68-0.56c0-0.27-0.04-0.47-0.14-0.74h1.77
			c0.33,0.47,0.6,1.13,0.6,2.08c0,1.13-0.58,2.02-1.63,2.33C26.51,369.83,27.07,370.88,27.07,372.34z M24.7,329.72h1.77
			c0.33,0.47,0.6,1.13,0.6,2.08c0,1.13-0.58,2.02-1.63,2.33c1.07,0.54,1.63,1.59,1.63,3.05c0,1.79-0.93,2.97-2.49,2.97
			c-1.77,0-2.54-1.28-2.89-3.28l-0.43-2.58h-0.14c-0.76,0-1.22,0.35-1.22,1.15c0,0.74,0.47,1.11,1.15,1.26l-0.21,3.09
			c-2.02-0.29-3.42-1.79-3.42-4.56c0-2.43,1.05-4.23,3.61-4.23h3.13c0.47,0,0.68-0.21,0.68-0.56
			C24.84,330.19,24.8,329.99,24.7,329.72z M17.42,296.74c0-2.54,1.75-3.28,3.67-3.28h5.77v3.34h-4.89c-1.26,0-1.92,0.23-1.92,1.24
			c0,1.11,0.91,1.48,2.29,1.48h4.51v3.34h-4.89c-1.26,0-1.92,0.25-1.92,1.26c0,1.09,0.91,1.48,2.29,1.48h4.51v3.34h-9.19v-3.34h1.38
			c-1.01-0.49-1.63-1.48-1.63-2.87c0-1.63,0.74-2.47,1.81-2.87C18.2,299.38,17.42,298.29,17.42,296.74z M20.51,310.35l0.08,2.74
			c-0.66,0.12-1.07,0.7-1.07,1.73c0,0.64,0.25,1.01,0.66,1.01c0.31,0,0.47-0.25,0.52-0.56l0.31-1.79c0.33-2.06,1.26-3.26,3.05-3.26
			c1.94,0,3.05,1.65,3.05,4.27c0,2.54-1.01,4.43-3.24,4.62l-0.04-2.91c0.76-0.12,1.2-0.74,1.2-1.75c0-0.74-0.27-1.13-0.64-1.13
			c-0.35,0-0.6,0.21-0.7,0.85l-0.21,1.36c-0.35,2.23-1.07,3.4-2.95,3.4c-1.81,0-3.11-1.59-3.11-4.16
			C17.42,312.1,18.59,310.53,20.51,310.35z M24.39,277.68c-0.35,0-0.6,0.21-0.7,0.85l-0.21,1.36c-0.35,2.23-1.07,3.4-2.95,3.4
			c-1.81,0-3.11-1.59-3.11-4.16c0-2.66,1.17-4.23,3.09-4.41l0.08,2.74c-0.66,0.12-1.07,0.7-1.07,1.73c0,0.64,0.25,1.01,0.66,1.01
			c0.31,0,0.47-0.25,0.52-0.56l0.31-1.79c0.33-2.06,1.26-3.26,3.05-3.26c1.94,0,3.05,1.65,3.05,4.27c0,2.54-1.01,4.43-3.24,4.62
			l-0.04-2.91c0.76-0.12,1.2-0.74,1.2-1.75C25.03,278.07,24.76,277.68,24.39,277.68z M22.66,183.33h4.21v3.34h-9.19v-3.34h1.63
			c-1.03-0.33-1.88-1.3-1.88-2.52c0-0.56,0.17-1.05,0.35-1.28l3.15,0.21c-0.27,0.45-0.39,0.95-0.39,1.59
			C20.53,182.56,21.11,183.33,22.66,183.33z M22.26,187.98c2.87,0,4.84,2.04,4.84,5.03c0,3.01-1.98,5.03-4.84,5.03
			c-2.84,0-4.84-2.02-4.84-5.03C17.42,190.02,19.42,187.98,22.26,187.98z M26.86,200.93v3.55h-3.55v-3.55H26.86z M20.51,207.44
			l0.08,2.74c-0.66,0.12-1.07,0.7-1.07,1.73c0,0.64,0.25,1.01,0.66,1.01c0.31,0,0.47-0.25,0.52-0.56l0.31-1.79
			c0.33-2.06,1.26-3.26,3.05-3.26c1.94,0,3.05,1.65,3.05,4.27c0,2.54-1.01,4.43-3.24,4.62l-0.04-2.91c0.76-0.12,1.2-0.74,1.2-1.75
			c0-0.74-0.27-1.13-0.64-1.13c-0.35,0-0.6,0.21-0.7,0.85l-0.21,1.36c-0.35,2.23-1.07,3.4-2.95,3.4c-1.81,0-3.11-1.59-3.11-4.16
			C17.42,209.19,18.59,207.62,20.51,207.44z M22.18,220.69h-4.51v-3.34h9.19v3.34h-1.38c1.03,0.49,1.63,1.5,1.63,2.89
			c0,2.52-1.73,3.28-3.65,3.28h-5.79v-3.34h4.91c1.24,0,1.92-0.35,1.92-1.36C24.49,221.1,23.58,220.69,22.18,220.69z M17.77,227.78
			l3.15,0.21c-0.27,0.45-0.39,0.95-0.39,1.59c0,1.24,0.58,2,2.12,2h4.21v3.34h-9.19v-3.34h1.63c-1.03-0.33-1.88-1.3-1.88-2.52
			C17.42,228.5,17.58,228.01,17.77,227.78z M17.67,236.73h9.19v3.34h-9.19V236.73z M17.67,320.26h9.19v3.34h-9.19V320.26z
			 M17.67,343.36v-2.39h2.31v2.39h3.36c0.78,0,1.09-0.37,1.09-1.05c0-0.41-0.08-0.87-0.31-1.42h2.16c0.52,0.7,0.82,1.5,0.82,2.76
			c0,1.55-0.64,3.01-2.8,3.01h-4.33v1.24h-2.06l-0.1-0.68c-0.14-0.93-0.64-1.22-1.48-1.44l-1.2-0.31v-2.1H17.67z M26.86,348.81v3.34
			h-9.19v-3.34H26.86z M711.44,516.58l-33.72,10.7c-8.04,2.55-16.63-1.9-19.19-9.94c-2.55-8.04,1.9-16.63,9.94-19.19l31.69-10.06
			c0.25-1.29,0.3-3.57-0.58-6.34l-28.14-88.65c-10.51-33.1-26.45-61.47-44.89-79.89c-18.78-18.76-37.95-25.21-56.96-19.17
			c-19.01,6.04-30.95,22.36-35.48,48.52c-4.44,25.69-1.11,58.06,9.4,91.15l28.14,88.65c0.88,2.77,2.24,4.61,3.18,5.52l31.16-9.89
			c8.04-2.55,16.63,1.9,19.19,9.94c2.55,8.04-1.9,16.63-9.94,19.19l-33.19,10.54c-2.54,0.81-5.12,1.19-7.69,1.19
			c-13.5,0-26.6-10.72-31.85-27.24l-28.14-88.65c-11.96-37.68-15.65-75.19-10.38-105.61c5.2-30.04,19.24-52.59,40.18-65.16
			c-8.12-15.45-16.66-29.5-25.56-42.1c-0.64,36.73-12.21,66.72-34.62,89.47c-9.65,13.09-5.33,65.35-0.77,120.65
			c3.55,43,7.57,91.75,7.57,141.43c0,4.5-3.65,8.15-8.15,8.15c-1.47,0-2.85-0.4-4.04-1.08c-2.45-1.41-4.11-4.04-4.11-7.07
			c0-49.01-3.99-97.4-7.51-140.09c-5.7-69.14-9.47-114.81,4.48-132.42c0.19-0.24,0.39-0.47,0.61-0.68
			c20.74-20.88,30.85-49.33,30.24-84.84l-2.69,4.44c-4.05,6.68-10.56,11.29-18.36,12.98c-2.11,0.46-4.25,0.68-6.38,0.68
			c-5.56,0-11.07-1.54-16-4.52c-7.4-4.48-12.25-11.54-14.04-19.2c-0.38,0.1-0.77,0.2-1.16,0.28c-2.11,0.46-4.25,0.68-6.38,0.68
			c-5.56,0-11.07-1.54-16-4.52c-0.22-0.13-0.43-0.28-0.65-0.42c3.11,6.79,5.01,13.46,6.15,19.5c4.01,21.24-0.46,38.89-0.65,39.63
			c-1.13,4.36-5.58,6.97-9.94,5.84c-4.35-1.13-6.97-5.57-5.84-9.92c0.63-2.49,14.23-59.1-42-82.44c-2.17-0.9-3.85-2.7-4.6-4.92
			s-0.5-4.67,0.68-6.7c3.08-5.29,6.71-11.57,6.71-11.57c2.07-3.57,6.47-5.03,10.26-3.41c0.45,0.18,12.55,5.01,23.78-2.31
			c6.06-3.95,9.56-8.29,11.55-11.64c-15.24-7.28-50.91-24.27-58.2-27.29c-6.17-2.55-13.08,1.05-20.56,10.7l-1.38,1.77
			c-9.91,12.74-40.07,51.51-38.95,73.24c0.63,12.23,14.18,30.74,25.08,45.6c10.17,13.88,18.95,25.86,20.8,35.72
			c7.11,37.97,5.15,69.51,1.9,121.76c-2.57,41.31-6.09,97.89-6.09,181.12c0,4.5-3.65,8.15-8.15,8.15s-8.15-3.65-8.15-8.15
			c0-83.74,3.54-140.61,6.12-182.14c3.17-50.99,5.09-81.76-1.66-117.74c-1.17-6.22-9.68-17.84-17.92-29.09
			c-7.81-10.65-15.76-21.51-21.23-32.1c-22.87,36.67-38.19,82.86-44.78,134.81c28.56,7.6,49.67,33.67,49.67,64.6
			c0,36.86-29.98,66.84-66.84,66.84s-66.84-29.99-66.84-66.84c0-32.23,22.93-59.21,53.33-65.47c7.23-60.02,25.4-113.49,52.93-155.43
			c6.75-10.28,14.01-19.72,21.69-28.28c8.07-18.93,22.78-39.3,36.24-56.61l1.36-1.75c5.28-6.81,14.75-16.45,26.75-17.74l29.5-48.73
			c4.05-6.68,10.56-11.29,18.36-12.98c7.62-1.65,15.57-0.29,22.38,3.83c5.19,3.14,9.12,7.55,11.63,12.54
			c9.25-6.18,21.91-6.75,32.38-0.41c6.81,4.12,11.7,10.53,13.77,18.05c0.98,3.57,1.27,7.18,0.91,10.7
			c5.66-0.06,11.28,1.48,16.29,4.51c10.45,6.33,15.82,17.8,14.64,28.86c5.73-0.1,11.43,1.44,16.5,4.51
			c14.2,8.6,19.04,26.69,10.78,40.33l-14.83,24.49c17.73,20.39,34.17,45.28,49.16,74.52c25.8-3.47,51.94,6.74,74.82,29.59
			c21.85,21.82,40.47,54.58,52.43,92.26l28.14,88.65C734.95,492.16,727.37,511.52,711.44,516.58z M259.43-352.61v15.68h-15.82v46.76
			h-22.4v-46.76h-8.96v-15.68h8.96v-2.66c0-16.24,10.08-24.78,25.06-24.78c11.76,0,19.88,5.88,22.4,16.24l-13.86,4.34
			c-1.4-2.8-3.08-4.34-6.02-4.34c-3.78,0-5.18,3.08-5.18,7v4.2H259.43z M360.51-548.97v117.68h-30.26v-14.2
			c-3.92,9.71-13.45,16.44-27.27,16.44c-24.66,0-36.99-19.24-36.99-43.9c0-24.47,12.33-43.9,36.99-43.9
			c13.82,0,23.35,6.73,27.27,16.62v-48.75H360.51z M349.97-588.45v-9.19h3.34v9.19H349.97z M378.15-354.29
			c3.78,0,7.14,1.12,8.68,2.38l-1.4,21.42c-3.08-1.82-6.44-2.66-10.78-2.66c-8.4,0-13.58,3.92-13.58,14.42v28.56h-22.68v-62.44
			h22.68v11.06C363.31-348.55,369.89-354.29,378.15-354.29z M524.05-132.61h1.04l27.15-103.13h39.95l27.15,103.13h1.04l26.11-103.13
			h42.82L646.24-71.25h-47.26l-27.41-103.91h-1.04L543.11-71.25h-46.47l-43.08-164.48h44.38L524.05-132.61z M515.91-290.17v-88.2
			h22.68v88.2H515.91z M550.91-290.17v-88.2h22.68v88.2H550.91z M488.51-18.18l-1.36-0.21c-2.23-0.35-3.4-1.07-3.4-2.95
			c0-1.81,1.59-3.11,4.16-3.11c2.66,0,4.23,1.18,4.41,3.09l-2.74,0.08c-0.12-0.66-0.7-1.07-1.73-1.07c-0.64,0-1.01,0.25-1.01,0.66
			c0,0.31,0.25,0.47,0.56,0.52l1.79,0.31c2.06,0.33,3.26,1.26,3.26,3.05c0,1.94-1.65,3.05-4.27,3.05c-2.54,0-4.43-1.01-4.62-3.24
			l2.91-0.04c0.12,0.76,0.74,1.2,1.75,1.2c0.74,0,1.13-0.27,1.13-0.64C489.36-17.83,489.15-18.08,488.51-18.18z M476.19-14.76
			c-2.51,0-3.28-1.73-3.28-3.65v-5.79h3.34v4.91c0,1.24,0.35,1.92,1.36,1.92c1.05,0,1.46-0.91,1.46-2.31v-4.51h3.34v9.19h-3.34
			v-1.38C478.58-15.36,477.57-14.76,476.19-14.76z M470.71-24.45c0.56,0,1.05,0.17,1.28,0.35l-0.21,3.15
			c-0.45-0.27-0.95-0.39-1.59-0.39c-1.24,0-2,0.58-2,2.12v4.21h-3.34v-9.19h3.34v1.63C468.52-23.6,469.49-24.45,470.71-24.45z
			 M459.68-25.07v-2.93h3.38v2.93H459.68z M463.04-24.2v9.19h-3.34v-9.19H463.04z M455.31-27.99h3.48l-4.99,12.99h-3.69l-4.99-12.99
			h3.67l3.22,8.64h0.08L455.31-27.99z M365.59-68.12c-47.78,0-85.37-34.72-85.37-85.37c0-50.65,37.6-85.37,85.37-85.37
			c47.78,0,85.37,34.72,85.37,85.37C450.96-102.84,413.36-68.12,365.59-68.12z M443.33-15.01h-3.73l-0.97-2.51h-5.07l-0.97,2.51
			h-3.52l5.17-12.99h3.92L443.33-15.01z M422.96-18.18l-1.36-0.21c-2.23-0.35-3.4-1.07-3.4-2.95c0-1.81,1.59-3.11,4.16-3.11
			c2.66,0,4.23,1.18,4.41,3.09l-2.74,0.08c-0.12-0.66-0.7-1.07-1.73-1.07c-0.64,0-1.01,0.25-1.01,0.66c0,0.31,0.25,0.47,0.56,0.52
			l1.79,0.31c2.06,0.33,3.26,1.26,3.26,3.05c0,1.94-1.65,3.05-4.27,3.05c-2.54,0-4.43-1.01-4.62-3.24l2.91-0.04
			c0.12,0.76,0.74,1.2,1.75,1.2c0.74,0,1.13-0.27,1.13-0.64C423.8-17.83,423.6-18.08,422.96-18.18z M416.78-27.99v12.99h-3.5v-12.99
			H416.78z M405.11-21.81c-1.11,0-1.48,0.91-1.48,2.29v4.51h-3.34v-4.89c0-1.26-0.25-1.92-1.26-1.92c-1.09,0-1.48,0.91-1.48,2.29
			v4.51h-3.34v-9.19h3.34v1.38c0.5-1.01,1.48-1.63,2.87-1.63c1.63,0,2.47,0.74,2.87,1.81c0.49-1.03,1.59-1.81,3.13-1.81
			c2.54,0,3.28,1.75,3.28,3.67v5.77h-3.34v-4.89C406.34-21.15,406.12-21.81,405.11-21.81z M388.99-18.18l-1.36-0.21
			c-2.23-0.35-3.4-1.07-3.4-2.95c0-1.81,1.59-3.11,4.16-3.11c2.66,0,4.23,1.18,4.41,3.09l-2.74,0.08c-0.12-0.66-0.7-1.07-1.73-1.07
			c-0.64,0-1.01,0.25-1.01,0.66c0,0.31,0.25,0.47,0.56,0.52l1.79,0.31c2.06,0.33,3.26,1.26,3.26,3.05c0,1.94-1.65,3.05-4.27,3.05
			c-2.54,0-4.43-1.01-4.62-3.24l2.91-0.04c0.12,0.76,0.74,1.2,1.75,1.2c0.74,0,1.13-0.27,1.13-0.64
			C389.83-17.83,389.63-18.08,388.99-18.18z M379.53-25.07v-2.93h3.38v2.93H379.53z M382.89-24.2v9.19h-3.34v-9.19H382.89z
			 M377.73-27.99v12.99h-3.34v-12.99H377.73z M367.7-21.97c-0.74,0-1.11,0.47-1.26,1.15l-3.09-0.21c0.29-2.02,1.79-3.42,4.56-3.42
			c2.43,0,4.23,1.05,4.23,3.61v3.13c0,0.47,0.21,0.68,0.56,0.68c0.27,0,0.47-0.04,0.74-0.14v1.77c-0.47,0.33-1.13,0.6-2.08,0.6
			c-1.13,0-2.02-0.58-2.33-1.63c-0.54,1.07-1.59,1.63-3.05,1.63c-1.79,0-2.97-0.93-2.97-2.49c0-1.77,1.28-2.54,3.28-2.89l2.58-0.43
			v-0.14C368.85-21.52,368.5-21.97,367.7-21.97z M355.25-21.89v-2.06l0.68-0.1c0.93-0.14,1.22-0.64,1.44-1.48l0.31-1.2h2.1v2.54
			h2.39v2.31h-2.39v3.36c0,0.78,0.37,1.09,1.05,1.09c0.41,0,0.87-0.08,1.42-0.31v2.16c-0.7,0.52-1.5,0.82-2.76,0.82
			c-1.55,0-3.01-0.64-3.01-2.8v-4.33H355.25z M350.98-25.07v-2.93h3.38v2.93H350.98z M354.34-24.2v9.19H351v-9.19H354.34z
			 M345.6-24.45c2.7,0,4.08,2.14,4.08,4.84c0,2.72-1.38,4.84-4.08,4.84c-1.55,0-2.58-0.74-3.03-1.81v4.87h-3.34V-24.2h3.34v1.59
			C343.03-23.71,344.06-24.45,345.6-24.45z M332.54-21.97c-0.74,0-1.11,0.47-1.26,1.15l-3.09-0.21c0.29-2.02,1.79-3.42,4.56-3.42
			c2.43,0,4.23,1.05,4.23,3.61v3.13c0,0.47,0.21,0.68,0.56,0.68c0.27,0,0.47-0.04,0.74-0.14v1.77c-0.47,0.33-1.13,0.6-2.08,0.6
			c-1.13,0-2.02-0.58-2.33-1.63c-0.54,1.07-1.59,1.63-3.05,1.63c-1.79,0-2.97-0.93-2.97-2.49c0-1.77,1.28-2.54,3.28-2.89l2.58-0.43
			v-0.14C333.69-21.52,333.34-21.97,332.54-21.97z M320.73-17.87c2.02,0,2.8-1.34,3.01-2.78l3.36,0.14
			c-0.25,3.24-2.37,5.75-6.35,5.75c-3.79,0-6.66-2.74-6.66-6.74c0-4,2.87-6.74,6.66-6.74c3.98,0,6.1,2.54,6.35,5.77l-3.36,0.12
			c-0.21-1.44-0.99-2.78-3.01-2.78c-1.92,0-3.03,1.42-3.03,3.63C317.7-19.29,318.81-17.87,320.73-17.87z M310.64-20.49l-0.43,2.06
			h-2.04l-0.8,3.42h-2.49l0.8-3.42h-1.77l-0.8,3.42h-2.49l0.8-3.42h-1.81l0.43-2.06h1.88l0.49-2.02h-1.98l0.43-2.06h2.02l0.82-3.42
			h2.49l-0.83,3.42h1.77l0.82-3.42h2.49l-0.82,3.42h1.83l-0.43,2.06h-1.88l-0.49,2.02H310.64z M407.21-431.29h-30.26v-83.31h30.26
			V-431.29z M295.27-354.29c20.3,0,34.16,13.58,34.16,32.9c0,19.46-13.86,32.9-34.16,32.9c-20.44,0-34.16-13.44-34.16-32.9
			C261.11-340.71,274.83-354.29,295.27-354.29z M761.72,240.8c0-1.79,0.93-2.97,2.49-2.97c1.77,0,2.54,1.28,2.89,3.28l0.43,2.58
			h0.14c0.76,0,1.22-0.35,1.22-1.15c0-0.74-0.47-1.11-1.15-1.26l0.21-3.09c2.02,0.29,3.42,1.79,3.42,4.56
			c0,2.43-1.05,4.23-3.61,4.23h-3.13c-0.47,0-0.68,0.21-0.68,0.56c0,0.27,0.04,0.47,0.14,0.74h-1.77c-0.33-0.47-0.6-1.13-0.6-2.08
			c0-1.13,0.58-2.02,1.63-2.33C762.28,243.32,761.72,242.27,761.72,240.8z M764.09,283.43h-1.77c-0.33-0.47-0.6-1.13-0.6-2.08
			c0-1.13,0.58-2.02,1.63-2.33c-1.07-0.54-1.63-1.59-1.63-3.05c0-1.79,0.93-2.97,2.49-2.97c1.77,0,2.54,1.28,2.89,3.28l0.43,2.58
			h0.14c0.76,0,1.22-0.35,1.22-1.15c0-0.74-0.47-1.11-1.15-1.26l0.21-3.09c2.02,0.29,3.42,1.79,3.42,4.56
			c0,2.43-1.05,4.23-3.61,4.23h-3.13c-0.47,0-0.68,0.21-0.68,0.56C763.95,282.95,763.99,283.16,764.09,283.43z M771.37,316.4
			c0,2.54-1.75,3.28-3.67,3.28h-5.77v-3.34h4.89c1.26,0,1.92-0.23,1.92-1.24c0-1.11-0.91-1.48-2.29-1.48h-4.51v-3.34h4.89
			c1.26,0,1.92-0.25,1.92-1.26c0-1.09-0.91-1.48-2.29-1.48h-4.51v-3.34h9.19v3.34h-1.38c1.01,0.5,1.63,1.48,1.63,2.87
			c0,1.63-0.74,2.47-1.81,2.87C770.59,313.77,771.37,314.86,771.37,316.4z M768.28,302.8l-0.08-2.74c0.66-0.12,1.07-0.7,1.07-1.73
			c0-0.64-0.25-1.01-0.66-1.01c-0.31,0-0.47,0.25-0.51,0.56l-0.31,1.79c-0.33,2.06-1.26,3.26-3.05,3.26c-1.94,0-3.05-1.65-3.05-4.27
			c0-2.54,1.01-4.43,3.24-4.62l0.04,2.91c-0.76,0.12-1.2,0.74-1.2,1.75c0,0.74,0.27,1.13,0.64,1.13c0.35,0,0.6-0.21,0.7-0.85
			l0.21-1.36c0.35-2.23,1.07-3.4,2.95-3.4c1.81,0,3.11,1.59,3.11,4.16C771.37,301.05,770.2,302.62,768.28,302.8z M764.4,333.8
			c0.35,0,0.6-0.21,0.7-0.85l0.21-1.36c0.35-2.23,1.07-3.4,2.95-3.4c1.81,0,3.11,1.59,3.11,4.16c0,2.66-1.17,4.23-3.09,4.41
			l-0.08-2.74c0.66-0.12,1.07-0.7,1.07-1.73c0-0.64-0.25-1.01-0.66-1.01c-0.31,0-0.47,0.25-0.51,0.56l-0.31,1.79
			c-0.33,2.06-1.26,3.26-3.05,3.26c-1.94,0-3.05-1.65-3.05-4.27c0-2.54,1.01-4.43,3.24-4.62l0.04,2.91c-0.76,0.12-1.2,0.74-1.2,1.75
			C763.76,333.41,764.03,333.8,764.4,333.8z M761.93,369.7h9.19v3.34h-9.19V369.7z M766.61,389.07h4.51v3.34h-9.19v-3.34h1.38
			c-1.03-0.49-1.63-1.5-1.63-2.89c0-2.52,1.73-3.28,3.65-3.28h5.79v3.34h-4.91c-1.24,0-1.92,0.35-1.92,1.36
			C764.3,388.66,765.21,389.07,766.61,389.07z M771.12,292.89h-9.19v-3.34h9.19V292.89z M771.12,269.78v2.39h-2.31v-2.39h-3.36
			c-0.78,0-1.09,0.37-1.09,1.05c0,0.41,0.08,0.87,0.31,1.42h-2.16c-0.52-0.7-0.82-1.5-0.82-2.76c0-1.55,0.64-3.01,2.8-3.01h4.33
			v-1.24h2.06l0.1,0.68c0.14,0.93,0.64,1.22,1.48,1.44l1.2,0.31v2.1H771.12z M761.93,264.34V261h9.19v3.34H761.93z M771.12,249.23
			v3.34h-1.59c1.09,0.45,1.83,1.48,1.83,3.03c0,2.7-2.14,4.08-4.84,4.08c-2.72,0-4.84-1.38-4.84-4.08c0-1.55,0.74-2.58,1.81-3.03
			h-4.86v-3.34H771.12z M768.28,402.33l-0.08-2.74c0.66-0.12,1.07-0.7,1.07-1.73c0-0.64-0.25-1.01-0.66-1.01
			c-0.31,0-0.47,0.25-0.51,0.56l-0.31,1.79c-0.33,2.06-1.26,3.26-3.05,3.26c-1.94,0-3.05-1.65-3.05-4.27c0-2.54,1.01-4.43,3.24-4.62
			l0.04,2.91c-0.76,0.12-1.2,0.74-1.2,1.75c0,0.74,0.27,1.13,0.64,1.13c0.35,0,0.6-0.21,0.7-0.85l0.21-1.36
			c0.35-2.23,1.07-3.4,2.95-3.4c1.81,0,3.11,1.59,3.11,4.16C771.37,400.58,770.2,402.14,768.28,402.33z M771.02,381.99l-3.15-0.21
			c0.27-0.45,0.39-0.95,0.39-1.59c0-1.24-0.58-2-2.12-2h-4.21v-3.34h9.19v3.34h-1.63c1.03,0.33,1.88,1.3,1.88,2.52
			C771.37,381.26,771.21,381.76,771.02,381.99z M774.92,373.06h-2.93v-3.38h2.93V373.06z M774.92,358.8l-8.64,3.22v0.08l8.64,3.22
			v3.48l-12.99-4.99v-3.69l12.99-4.99V358.8z M774.92,348.16l-12.99,5.17v-3.73l2.51-0.97v-5.07l-2.51-0.97v-3.52l12.99,5.17V348.16
			z M774.92,326.78h-12.99v-3.5h12.99V326.78z M774.92,292.91h-2.93v-3.38h2.93V292.91z M774.92,287.73h-12.99v-3.34h12.99V287.73z
			 M774.92,264.36h-2.93v-3.38h2.93V264.36z M769.39,237.1l-0.12-3.36c1.44-0.21,2.78-0.99,2.78-3.01c0-1.92-1.42-3.03-3.63-3.03
			c-2.21,0-3.63,1.11-3.63,3.03c0,2.02,1.34,2.8,2.78,3.01l-0.14,3.36c-3.24-0.25-5.75-2.37-5.75-6.35c0-3.79,2.74-6.66,6.74-6.66
			c4,0,6.74,2.87,6.74,6.66C775.16,234.73,772.63,236.85,769.39,237.1z M774.92,216.19l-3.42-0.83v1.77l3.42,0.82v2.49l-3.42-0.82
			v1.83l-2.06-0.43v-1.88l-2.02-0.49v1.98l-2.06-0.43v-2.04l-3.42-0.8v-2.49l3.42,0.8v-1.77l-3.42-0.8v-2.49l3.42,0.8v-1.81
			l2.06,0.43v1.88l2.02,0.49v-1.98l2.06,0.43v2.02l3.42,0.82V216.19z M729.24-516.84c27.83,0,42.59,19.05,42.59,41.66v8.41h-58.47
			c0.75,10.27,8.22,15.13,17.37,15.13c8.22,0,13.45-2.8,16.25-9.34l24.28,2.24c-4.3,19.05-19.61,29.7-41.66,29.7
			c-26.71,0-45.77-16.06-45.77-42.59C683.85-497.97,703.27-516.84,729.24-516.84z M615.85-514.6h30.26v14.76
			c2.99-9.34,11.77-17,22.79-17c5.04,0,9.53,1.49,11.58,3.18l-1.87,28.58c-4.11-2.43-8.59-3.55-14.38-3.55
			c-11.21,0-18.12,5.23-18.12,19.24v38.11h-30.26V-514.6z M595.31-484.15v28.39c0,4.3,1.87,6.16,5.04,6.16
			c2.43,0,4.3-0.37,6.72-1.31v16.06c-4.3,2.99-10.27,5.42-18.87,5.42c-10.27,0-18.31-5.23-21.11-14.76
			c-4.86,9.71-14.38,14.76-27.65,14.76c-16.25,0-26.9-8.41-26.9-22.6c0-16.06,11.58-22.98,29.7-26.15l23.35-3.92v-1.31
			c0-6.91-3.18-11.02-10.46-11.02c-6.72,0-10.09,4.3-11.39,10.46l-28.02-1.87c2.62-18.31,16.25-31.01,41.28-31.01
			C579.06-516.84,595.31-507.31,595.31-484.15z M523.04-590.47c0-0.89,0.58-1.57,1.57-1.94c-0.82-0.54-1.32-1.32-1.32-2.33
			c0-1.96,1.86-3.15,4.43-3.15c1.11,0,2.16,0.27,2.95,0.74c0.56-0.76,1.57-1.42,2.58-1.42v2.51c-0.39,0-0.89,0.04-1.34,0.14
			c0.19,0.35,0.29,0.74,0.29,1.17c0,1.94-1.88,3.13-4.47,3.13c-0.74,0-1.4-0.08-2-0.27c-0.12,0.1-0.19,0.25-0.19,0.43
			c0,0.31,0.23,0.56,0.78,0.56h3.81c2.08,0,3.13,1.09,3.13,2.64c0,2.29-2.78,3.34-5.77,3.34c-2.62,0-4.89-0.52-4.89-2.25
			c0-0.8,0.72-1.44,1.75-1.53C523.53-588.94,523.04-589.68,523.04-590.47z M515.45-597.64h3.34v1.63c0.33-1.03,1.3-1.88,2.52-1.88
			c0.56,0,1.05,0.16,1.28,0.35l-0.21,3.15c-0.45-0.27-0.95-0.39-1.59-0.39c-1.24,0-2,0.58-2,2.12v4.21h-3.34V-597.64z M509.1-597.89
			c2.99,0,5.03,2,5.03,4.84c0,2.87-2.04,4.84-5.03,4.84c-3.01,0-5.03-1.98-5.03-4.84C504.07-595.89,506.09-597.89,509.1-597.89z
			 M497.64-591.99h3.55v3.55h-3.55V-591.99z M490.86-591.62l-1.36-0.21c-2.23-0.35-3.4-1.07-3.4-2.95c0-1.81,1.59-3.11,4.16-3.11
			c2.66,0,4.23,1.18,4.41,3.09l-2.74,0.08c-0.12-0.66-0.7-1.07-1.73-1.07c-0.64,0-1.01,0.25-1.01,0.66c0,0.31,0.25,0.47,0.56,0.52
			l1.79,0.31c2.06,0.33,3.26,1.26,3.26,3.05c0,1.94-1.65,3.05-4.27,3.05c-2.54,0-4.43-1.01-4.62-3.24l2.91-0.04
			c0.12,0.76,0.74,1.2,1.75,1.2c0.74,0,1.13-0.27,1.13-0.64C491.71-591.27,491.5-591.52,490.86-591.62z M475.26-597.64h3.34v4.91
			c0,1.24,0.35,1.92,1.36,1.92c1.05,0,1.46-0.91,1.46-2.31v-4.51h3.34v9.19h-3.34v-1.38c-0.49,1.03-1.5,1.63-2.89,1.63
			c-2.52,0-3.28-1.73-3.28-3.65V-597.64z M467.2-597.64h3.34v1.63c0.33-1.03,1.3-1.88,2.52-1.88c0.56,0,1.05,0.16,1.28,0.35
			l-0.21,3.15c-0.45-0.27-0.95-0.39-1.59-0.39c-1.24,0-2,0.58-2,2.12v4.21h-3.34V-597.64z M462.03-601.43h3.38v2.93h-3.38V-601.43z
			 M465.39-597.64v9.19h-3.34v-9.19H465.39z M451.15-601.43l3.22,8.64h0.08l3.22-8.64h3.48l-4.99,12.99h-3.69l-4.99-12.99H451.15z
			 M436.54-601.43h3.92l5.17,12.99h-3.73l-0.97-2.52h-5.07l-0.97,2.52h-3.52L436.54-601.43z M464.74-516.84
			c25.03,0,39.04,16.25,41.1,36.24l-24.84,1.68c-2.05-10.27-7.1-15.13-15.88-15.13c-9.15,0-15.5,6.16-15.5,21.11
			s6.35,21.11,15.5,21.11c8.78,0,13.82-5.04,15.88-15.32l24.84,1.87c-2.05,20.17-16.06,36.24-41.1,36.24
			c-26.34,0-45.58-17.37-45.58-43.9C419.16-499.28,438.4-516.84,464.74-516.84z M423.59-591.62l-1.36-0.21
			c-2.23-0.35-3.4-1.07-3.4-2.95c0-1.81,1.59-3.11,4.16-3.11c2.66,0,4.23,1.18,4.41,3.09l-2.74,0.08c-0.12-0.66-0.7-1.07-1.73-1.07
			c-0.64,0-1.01,0.25-1.01,0.66c0,0.31,0.25,0.47,0.56,0.52l1.79,0.31c2.06,0.33,3.26,1.26,3.26,3.05c0,1.94-1.65,3.05-4.27,3.05
			c-2.54,0-4.43-1.01-4.62-3.24l2.91-0.04c0.12,0.76,0.74,1.2,1.75,1.2c0.74,0,1.13-0.27,1.13-0.64
			C424.44-591.27,424.23-591.52,423.59-591.62z M413.91-601.43h3.5v12.99h-3.5V-601.43z M448.01-378.37h26.6l35.14,88.2h-25.34
			l-6.58-17.08h-34.44l-6.58,17.08h-23.94L448.01-378.37z M393.17-597.64h3.34v1.38c0.49-1.01,1.48-1.63,2.87-1.63
			c1.63,0,2.47,0.74,2.87,1.81c0.49-1.03,1.59-1.81,3.13-1.81c2.54,0,3.28,1.75,3.28,3.67v5.77h-3.34v-4.89
			c0-1.26-0.23-1.92-1.24-1.92c-1.11,0-1.48,0.91-1.48,2.29v4.51h-3.34v-4.89c0-1.26-0.25-1.92-1.26-1.92
			c-1.09,0-1.48,0.91-1.48,2.29v4.51h-3.34V-597.64z M387.96-591.62l-1.36-0.21c-2.23-0.35-3.4-1.07-3.4-2.95
			c0-1.81,1.59-3.11,4.16-3.11c2.66,0,4.23,1.18,4.41,3.09l-2.74,0.08c-0.12-0.66-0.7-1.07-1.73-1.07c-0.64,0-1.01,0.25-1.01,0.66
			c0,0.31,0.25,0.47,0.56,0.52l1.79,0.31c2.06,0.33,3.26,1.26,3.26,3.05c0,1.94-1.65,3.05-4.27,3.05c-2.54,0-4.43-1.01-4.62-3.24
			l2.91-0.04c0.12,0.76,0.74,1.2,1.75,1.2c0.74,0,1.13-0.27,1.13-0.64C388.8-591.27,388.6-591.52,387.96-591.62z M378.5-601.43h3.38
			v2.93h-3.38V-601.43z M381.86-597.64v9.19h-3.34v-9.19H381.86z M376.76-548.97h30.63v26.52h-30.63V-548.97z M373.37-601.43h3.34
			v12.99h-3.34V-601.43z M366.67-595.41c-0.74,0-1.11,0.47-1.26,1.15l-3.09-0.21c0.29-2.02,1.79-3.42,4.56-3.42
			c2.43,0,4.23,1.05,4.23,3.61v3.13c0,0.47,0.21,0.68,0.56,0.68c0.27,0,0.47-0.04,0.74-0.14v1.77c-0.47,0.33-1.13,0.6-2.08,0.6
			c-1.13,0-2.02-0.58-2.33-1.63c-0.54,1.07-1.59,1.63-3.05,1.63c-1.79,0-2.97-0.93-2.97-2.49c0-1.77,1.28-2.54,3.28-2.89l2.58-0.43
			v-0.14C367.82-594.96,367.47-595.41,366.67-595.41z M354.22-597.39l0.68-0.1c0.93-0.14,1.22-0.64,1.44-1.48l0.31-1.2h2.1v2.54
			h2.39v2.31h-2.39v3.36c0,0.78,0.37,1.09,1.05,1.09c0.41,0,0.87-0.08,1.42-0.31v2.16c-0.7,0.52-1.5,0.82-2.76,0.82
			c-1.55,0-3.01-0.64-3.01-2.8v-4.33h-1.24V-597.39z M349.95-601.43h3.38v2.93h-3.38V-601.43z M338.2-597.64h3.34v1.59
			c0.45-1.09,1.48-1.83,3.03-1.83c2.7,0,4.08,2.14,4.08,4.84c0,2.72-1.38,4.84-4.08,4.84c-1.55,0-2.58-0.74-3.03-1.81v4.87h-3.34
			V-597.64z M331.51-595.41c-0.74,0-1.11,0.47-1.26,1.15l-3.09-0.21c0.29-2.02,1.79-3.42,4.56-3.42c2.43,0,4.23,1.05,4.23,3.61v3.13
			c0,0.47,0.21,0.68,0.56,0.68c0.27,0,0.47-0.04,0.74-0.14v1.77c-0.47,0.33-1.13,0.6-2.08,0.6c-1.13,0-2.02-0.58-2.33-1.63
			c-0.54,1.07-1.59,1.63-3.05,1.63c-1.79,0-2.97-0.93-2.97-2.49c0-1.77,1.28-2.54,3.28-2.89l2.58-0.43v-0.14
			C332.66-594.96,332.31-595.41,331.51-595.41z M319.72-601.68c3.98,0,6.1,2.54,6.35,5.77l-3.36,0.12
			c-0.21-1.44-0.99-2.78-3.01-2.78c-1.92,0-3.03,1.42-3.03,3.63s1.11,3.63,3.03,3.63c2.02,0,2.8-1.34,3.01-2.78l3.36,0.14
			c-0.25,3.24-2.37,5.75-6.35,5.75c-3.79,0-6.66-2.74-6.66-6.74S315.92-601.68,319.72-601.68z M306.63-591.99h3.55v3.55h-3.55
			V-591.99z M262.3-597.64l1.65,5.22h0.08l1.34-5.22h2.66l1.34,5.22h0.08l1.65-5.22h2.92h0.09h3.23l1.65,5.22h0.08l1.34-5.22h2.66
			l1.34,5.22h0.08l1.65-5.22h2.92h0.09h3.23l1.65,5.22h0.08l1.34-5.22h2.66l1.34,5.22h0.08l1.65-5.22h3.01l-2.91,9.19h-3.28
			l-1.34-5.19h-0.08l-1.34,5.19h-3.28l-2.86-9.06l-2.86,9.06h-3.28l-1.34-5.19h-0.08l-1.34,5.19h-3.28l-2.86-9.06l-2.86,9.06h-3.28
			l-1.34-5.19h-0.08l-1.34,5.19h-3.28l-2.91-9.19H262.3z M214.63-516.84c27.83,0,42.59,19.05,42.59,41.66v8.41h-58.47
			c0.75,10.27,8.22,15.13,17.37,15.13c8.22,0,13.45-2.8,16.25-9.34l24.28,2.24c-4.3,19.05-19.61,29.7-41.66,29.7
			c-26.71,0-45.77-16.06-45.77-42.59C169.24-497.97,188.66-516.84,214.63-516.84z M221.74-144.62v-91.12h40.73v164.48h-35.51
			l-71.01-97.38v97.38h-40.73v-164.48h42.29L221.74-144.62z M24.85-548.97h49.13L91.35-475h0.56l16.62-73.97h48.01v117.68h-31.76
			v-82.75h-0.75l-21.11,82.75H75.84l-21.11-82.75h-0.75v82.75H24.85V-548.97z M19.25,168.88c0,0.39,0.04,0.89,0.14,1.34
			c0.35-0.19,0.74-0.29,1.18-0.29c1.94,0,3.13,1.88,3.13,4.47c0,0.74-0.08,1.4-0.27,2c0.1,0.12,0.25,0.19,0.43,0.19
			c0.31,0,0.56-0.23,0.56-0.78v-3.81c0-2.08,1.09-3.13,2.64-3.13c2.29,0,3.34,2.78,3.34,5.77c0,2.62-0.52,4.89-2.25,4.89
			c-0.8,0-1.44-0.72-1.53-1.75c-0.27,0.82-1.01,1.32-1.79,1.32c-0.89,0-1.57-0.58-1.94-1.57c-0.54,0.82-1.32,1.32-2.33,1.32
			c-1.96,0-3.15-1.86-3.15-4.43c0-1.11,0.27-2.16,0.74-2.95c-0.76-0.56-1.42-1.57-1.42-2.58H19.25z M13.87,236.71h2.93v3.38h-2.93
			V236.71z M13.87,250.97l8.64-3.22v-0.08l-8.64-3.22v-3.48l12.99,4.99v3.69l-12.99,4.99V250.97z M13.87,261.67l12.99-5.17v3.73
			l-2.51,0.97v5.07l2.51,0.97v3.52l-12.99-5.17V261.67z M13.87,284.71h12.99v3.5H13.87V284.71z M13.87,320.24h2.93v3.38h-2.93
			V320.24z M13.87,325.41h12.99v3.34H13.87V325.41z M13.87,348.79h2.93v3.38h-2.93V348.79z M19.4,376.05l0.12,3.36
			c-1.44,0.21-2.78,0.99-2.78,3.01c0,1.92,1.42,3.03,3.63,3.03s3.63-1.11,3.63-3.03c0-2.02-1.34-2.8-2.78-3.01l0.14-3.36
			c3.24,0.25,5.75,2.37,5.75,6.35c0,3.79-2.74,6.66-6.74,6.66s-6.74-2.87-6.74-6.66C13.63,378.42,16.16,376.3,19.4,376.05z"/>
		<polygon class="st5" points="17.89,263.77 21.73,265.25 21.73,262.2 17.89,263.69 		"/>
		<path class="st5" d="M23.03,334.3h-0.14l0.25,1.36c0.17,0.8,0.41,1.28,1.01,1.28c0.47,0,0.78-0.37,0.78-0.93
			C24.92,335.06,24.22,334.3,23.03,334.3z"/>
		<path class="st5" d="M20.57,175.33c0.82,0,1.34-0.41,1.34-0.97c0-0.56-0.52-0.97-1.34-0.97c-0.8,0-1.32,0.41-1.32,0.97
			C19.25,174.92,19.77,175.33,20.57,175.33z"/>
		<path class="st5" d="M22.26,356.82c-1.32,0-2.25,0.6-2.25,1.9c0,1.13,0.87,1.86,2.18,1.86h0.12c1.34,0,2.21-0.72,2.21-1.86
			C24.53,357.42,23.6,356.82,22.26,356.82z"/>
		<path class="st5" d="M765.76,278.85h0.14l-0.25-1.36c-0.17-0.8-0.41-1.28-1.01-1.28c-0.47,0-0.78,0.37-0.78,0.93
			C763.87,278.09,764.57,278.85,765.76,278.85z"/>
		<path class="st5" d="M766.53,256.32c1.32,0,2.25-0.6,2.25-1.9c0-1.13-0.87-1.86-2.18-1.86h-0.12c-1.34,0-2.21,0.72-2.21,1.86
			C764.26,255.73,765.19,256.32,766.53,256.32z"/>
		<path class="st5" d="M765.76,243.69h0.14l-0.25-1.36c-0.17-0.8-0.41-1.28-1.01-1.28c-0.47,0-0.78,0.37-0.78,0.93
			C763.87,242.93,764.57,243.69,765.76,243.69z"/>
		<polygon class="st5" points="770.9,346.05 767.06,344.57 767.06,347.62 770.9,346.14 		"/>
		<polygon class="st5" points="767.41,216.17 769.43,216.66 769.43,214.89 767.41,214.4 		"/>
		<path d="M700.57,383.85c-11.96-37.68-30.58-70.45-52.43-92.26c-22.88-22.85-49.02-33.06-74.82-29.59
			c-14.99-29.23-31.42-54.13-49.16-74.52L539,163c8.26-13.64,3.42-31.74-10.78-40.33c-5.07-3.07-10.77-4.6-16.5-4.51
			c1.18-11.05-4.19-22.53-14.64-28.86c-5.01-3.03-10.63-4.56-16.29-4.51c0.37-3.52,0.08-7.13-0.91-10.7
			c-2.07-7.52-6.96-13.93-13.77-18.05c-10.46-6.33-23.13-5.77-32.38,0.41c-2.51-4.99-6.44-9.4-11.63-12.54
			c-6.81-4.12-14.76-5.48-22.38-3.83c-7.79,1.69-14.31,6.29-18.36,12.98l-29.5,48.73c-12.01,1.29-21.47,10.92-26.75,17.74
			l-1.36,1.75c-13.46,17.3-28.16,37.67-36.24,56.61c-7.68,8.56-14.94,18-21.69,28.28c-27.53,41.95-45.7,95.41-52.93,155.43
			c-30.4,6.26-53.33,33.24-53.33,65.47c0,36.86,29.98,66.84,66.84,66.84s66.84-29.99,66.84-66.84c0-30.92-21.11-56.99-49.67-64.6
			c6.59-51.95,21.92-98.15,44.78-134.81c5.47,10.59,13.43,21.45,21.23,32.1c8.24,11.24,16.76,22.87,17.92,29.09
			c6.74,35.98,4.83,66.75,1.66,117.74c-2.58,41.52-6.12,98.39-6.12,182.14c0,4.5,3.65,8.15,8.15,8.15s8.15-3.65,8.15-8.15
			c0-83.24,3.52-139.81,6.09-181.12c3.25-52.25,5.21-83.79-1.9-121.76c-1.85-9.86-10.63-21.84-20.8-35.72
			c-10.89-14.87-24.45-33.37-25.08-45.6c-1.11-21.73,29.04-60.5,38.95-73.24l1.38-1.77c7.48-9.65,14.39-13.25,20.56-10.7
			c7.29,3.02,42.96,20.01,58.2,27.29c-1.99,3.35-5.49,7.69-11.55,11.64c-11.23,7.32-23.32,2.5-23.78,2.31
			c-3.79-1.62-8.2-0.16-10.26,3.41c0,0-3.64,6.28-6.71,11.57c-1.18,2.03-1.43,4.47-0.68,6.7s2.43,4.02,4.6,4.92
			c56.23,23.35,42.63,79.95,42,82.44c-1.12,4.35,1.49,8.79,5.84,9.92c4.36,1.13,8.81-1.48,9.94-5.84
			c0.19-0.74,4.66-18.39,0.65-39.63c-1.14-6.03-3.05-12.71-6.15-19.5c0.22,0.14,0.43,0.28,0.65,0.42c4.92,2.98,10.44,4.52,16,4.52
			c2.13,0,4.27-0.23,6.38-0.68c0.39-0.08,0.77-0.18,1.16-0.28c1.79,7.66,6.64,14.72,14.04,19.2c4.92,2.98,10.44,4.52,16,4.52
			c2.13,0,4.27-0.23,6.38-0.68c7.79-1.69,14.31-6.29,18.36-12.98l2.69-4.44c0.62,35.51-9.49,63.96-30.24,84.84
			c-0.22,0.22-0.42,0.44-0.61,0.68c-13.95,17.6-10.18,63.28-4.48,132.42c3.52,42.69,7.51,91.08,7.51,140.09
			c0,3.03,1.65,5.66,4.11,7.07c1.19,0.68,2.57,1.08,4.04,1.08c4.5,0,8.15-3.65,8.15-8.15c0-49.69-4.02-98.43-7.57-141.43
			c-4.56-55.3-8.87-107.56,0.77-120.65c22.41-22.75,33.98-52.74,34.62-89.47c8.9,12.6,17.45,26.66,25.56,42.1
			c-20.94,12.57-34.98,35.12-40.18,65.16c-5.26,30.42-1.58,67.93,10.38,105.61l28.14,88.65c5.25,16.52,18.35,27.24,31.85,27.24
			c2.56,0,5.14-0.39,7.69-1.19l33.19-10.54c8.04-2.55,12.5-11.14,9.94-19.19c-2.55-8.04-11.15-12.49-19.19-9.94l-31.16,9.89
			c-0.95-0.91-2.3-2.75-3.18-5.52l-28.14-88.65c-10.51-33.1-13.84-65.47-9.4-91.15c4.53-26.16,16.46-42.48,35.48-48.52
			c19.02-6.04,38.18,0.42,56.96,19.17c18.44,18.42,34.39,46.79,44.89,79.89l28.14,88.65c0.88,2.77,0.83,5.06,0.58,6.34l-31.69,10.06
			c-8.04,2.55-12.5,11.14-9.94,19.19c2.55,8.04,11.15,12.49,19.19,9.94l33.72-10.7c15.93-5.06,23.51-24.42,17.27-44.08
			L700.57,383.85z M276.95,427.05c0,27.87-22.67,50.54-50.54,50.54s-50.54-22.67-50.54-50.54s22.67-50.54,50.54-50.54
			S276.95,399.18,276.95,427.05z M368.7,105.45l26.61-43.95c1.7-2.81,4.49-4.76,7.86-5.49c0.96-0.21,1.94-0.31,2.92-0.31
			c2.61,0,5.22,0.73,7.57,2.16c6.51,3.94,8.88,12,5.28,17.95l-25.05,41.37C383.97,112.49,374.42,108.02,368.7,105.45z M408.7,124.19
			l30.61-50.56c2.27-3.76,6.39-5.79,10.76-5.79c2.55,0,5.19,0.7,7.59,2.15c3.23,1.96,5.54,4.95,6.5,8.44
			c0.92,3.32,0.48,6.7-1.22,9.51l-29.55,48.81c-0.72-0.84-1.62-1.55-2.67-2.05C429.79,134.25,420.29,129.7,408.7,124.19z
			 M448.1,196.86c-1.7,2.81-4.49,4.76-7.86,5.49c-3.54,0.77-7.26,0.11-10.49-1.84c-5.96-3.61-8.43-10.64-6.06-16.37
			c0.33-0.48,0.65-0.96,0.96-1.47l46.92-77.5c1.68-1.88,3.95-3.2,6.58-3.77c0.96-0.21,1.94-0.31,2.92-0.31
			c2.61,0,5.22,0.73,7.57,2.16c6.51,3.94,8.88,12,5.28,17.95L448.1,196.86z M485.67,219.61c-1.7,2.81-4.49,4.76-7.86,5.49
			c-3.54,0.77-7.26,0.11-10.49-1.84c-6.51-3.94-8.88-12-5.28-17.95l39.39-65.06c1.7-2.81,4.49-4.76,7.86-5.49
			c0.96-0.21,1.94-0.31,2.92-0.31c2.61,0,5.22,0.73,7.57,2.16c6.52,3.94,8.88,12,5.28,17.95L485.67,219.61z"/>
		<path class="st5" d="M519.78,136.6c-2.35-1.42-4.96-2.16-7.57-2.16c-0.98,0-1.96,0.1-2.92,0.31c-3.37,0.73-6.16,2.68-7.86,5.49
			l-39.39,65.06c-3.6,5.95-1.24,14.01,5.28,17.95c3.23,1.95,6.95,2.61,10.49,1.84c3.37-0.73,6.16-2.68,7.86-5.49l39.39-65.06
			C528.66,148.6,526.29,140.55,519.78,136.6z"/>
		<path class="st5" d="M488.63,103.24c-2.35-1.42-4.96-2.16-7.57-2.16c-0.98,0-1.96,0.1-2.92,0.31c-2.63,0.57-4.9,1.89-6.58,3.77
			l-46.92,77.5c-0.3,0.5-0.63,0.99-0.96,1.47c-2.37,5.73,0.1,12.77,6.06,16.37c3.23,1.96,6.95,2.61,10.49,1.84
			c3.37-0.73,6.16-2.68,7.86-5.49l45.81-75.67C497.51,115.24,495.15,107.18,488.63,103.24z"/>
		<path class="st5" d="M413.66,57.85c-2.35-1.42-4.96-2.16-7.57-2.16c-0.98,0-1.96,0.1-2.92,0.31c-3.37,0.73-6.16,2.68-7.86,5.49
			l-26.61,43.95c5.72,2.57,15.27,7.04,25.19,11.72l25.05-41.37C422.55,69.85,420.18,61.8,413.66,57.85z"/>
		<path class="st5" d="M433.39,136.75l29.55-48.81c1.7-2.81,2.13-6.19,1.22-9.51c-0.96-3.49-3.27-6.48-6.5-8.44
			c-2.4-1.45-5.04-2.15-7.59-2.15c-4.37,0-8.48,2.04-10.76,5.79l-30.61,50.56c11.59,5.51,21.09,10.06,22.02,10.51
			C431.77,135.2,432.67,135.91,433.39,136.75z"/>
		<circle class="st5" cx="226.41" cy="427.05" r="50.54"/>
		<polygon points="17.67,400.93 22.88,402.58 22.88,402.66 17.67,404 17.67,406.66 22.88,408 22.88,408.08 17.67,409.73 
			17.67,412.96 17.67,413.05 17.67,415.97 22.88,417.62 22.88,417.7 17.67,419.04 17.67,421.7 22.88,423.04 22.88,423.13 
			17.67,424.78 17.67,428.01 17.67,428.09 17.67,431.02 22.88,432.67 22.88,432.75 17.67,434.09 17.67,436.75 22.88,438.09 
			22.88,438.17 17.67,439.82 17.67,443.14 26.86,440.23 26.86,436.96 21.67,435.62 21.67,435.53 26.86,434.19 26.86,430.92 
			17.8,428.05 26.86,425.19 26.86,421.91 21.67,420.57 21.67,420.49 26.86,419.15 26.86,415.87 17.8,413.01 26.86,410.14 
			26.86,406.86 21.67,405.52 21.67,405.44 26.86,404.1 26.86,400.82 17.67,397.92 		"/>
		<rect x="23.32" y="391.94" width="3.55" height="3.55"/>
		<path d="M20.37,389.06c4,0,6.74-2.87,6.74-6.66c0-3.98-2.51-6.1-5.75-6.35l-0.14,3.36c1.44,0.21,2.78,0.99,2.78,3.01
			c0,1.92-1.42,3.03-3.63,3.03s-3.63-1.11-3.63-3.03c0-2.02,1.34-2.8,2.78-3.01l-0.12-3.36c-3.24,0.25-5.77,2.37-5.77,6.35
			C13.63,386.19,16.37,389.06,20.37,389.06z"/>
		<path d="M27.07,366.96c0-0.95-0.27-1.61-0.6-2.08H24.7c0.1,0.27,0.14,0.47,0.14,0.74c0,0.35-0.21,0.56-0.68,0.56h-3.13
			c-2.56,0-3.61,1.79-3.61,4.23c0,2.76,1.4,4.27,3.42,4.56l0.21-3.09c-0.68-0.14-1.15-0.52-1.15-1.26c0-0.8,0.45-1.15,1.22-1.15
			h0.14l0.43,2.58c0.35,2,1.11,3.28,2.89,3.28c1.57,0,2.49-1.17,2.49-2.97c0-1.46-0.56-2.52-1.63-3.05
			C26.49,368.98,27.07,368.1,27.07,366.96z M24.14,372.1c-0.6,0-0.85-0.47-1.01-1.28l-0.25-1.36h0.14c1.2,0,1.9,0.76,1.9,1.71
			C24.92,371.72,24.61,372.1,24.14,372.1z"/>
		<path d="M27.11,357.54c0-2.7-2.12-4.08-4.84-4.08c-2.7,0-4.84,1.38-4.84,4.08c0,1.55,0.74,2.58,1.83,3.03h-1.59v3.34h12.49v-3.34
			h-4.86C26.37,360.12,27.11,359.09,27.11,357.54z M22.33,360.57H22.2c-1.32,0-2.18-0.72-2.18-1.86c0-1.3,0.93-1.9,2.25-1.9
			c1.34,0,2.27,0.6,2.27,1.9C24.53,359.85,23.67,360.57,22.33,360.57z"/>
		<rect x="13.87" y="348.79" width="2.93" height="3.38"/>
		<rect x="17.67" y="348.81" width="9.19" height="3.34"/>
		<path d="M15.13,345.47l1.2,0.31c0.85,0.23,1.34,0.52,1.48,1.44l0.1,0.68h2.06v-1.24h4.33c2.16,0,2.8-1.46,2.8-3.01
			c0-1.26-0.31-2.06-0.82-2.76h-2.16c0.23,0.56,0.31,1.01,0.31,1.42c0,0.68-0.31,1.05-1.09,1.05h-3.36v-2.39h-2.31v2.39h-2.54
			V345.47z"/>
		<path d="M24.16,331.02h-3.13c-2.56,0-3.61,1.79-3.61,4.23c0,2.76,1.4,4.27,3.42,4.56l0.21-3.09c-0.68-0.14-1.15-0.52-1.15-1.26
			c0-0.8,0.45-1.15,1.22-1.15h0.14l0.43,2.58c0.35,2,1.11,3.28,2.89,3.28c1.57,0,2.49-1.17,2.49-2.97c0-1.46-0.56-2.52-1.63-3.05
			c1.05-0.31,1.63-1.2,1.63-2.33c0-0.95-0.27-1.61-0.6-2.08H24.7c0.1,0.27,0.14,0.47,0.14,0.74
			C24.84,330.81,24.63,331.02,24.16,331.02z M24.92,336.01c0,0.56-0.31,0.93-0.78,0.93c-0.6,0-0.85-0.47-1.01-1.28l-0.25-1.36h0.14
			C24.22,334.3,24.92,335.06,24.92,336.01z"/>
		<rect x="13.87" y="325.41" width="12.99" height="3.34"/>
		<rect x="17.67" y="320.26" width="9.19" height="3.34"/>
		<rect x="13.87" y="320.24" width="2.93" height="3.38"/>
		<path d="M20.53,318.92c1.88,0,2.6-1.17,2.95-3.4l0.21-1.36c0.1-0.64,0.35-0.85,0.7-0.85c0.37,0,0.64,0.39,0.64,1.13
			c0,1.01-0.43,1.63-1.2,1.75l0.04,2.91c2.23-0.19,3.24-2.08,3.24-4.62c0-2.62-1.11-4.27-3.05-4.27c-1.79,0-2.72,1.2-3.05,3.26
			l-0.31,1.79c-0.04,0.31-0.21,0.56-0.52,0.56c-0.41,0-0.66-0.37-0.66-1.01c0-1.03,0.41-1.61,1.07-1.73l-0.08-2.74
			c-1.92,0.19-3.09,1.75-3.09,4.41C17.42,317.33,18.72,318.92,20.53,318.92z"/>
		<path d="M17.42,302.74c0,1.38,0.62,2.37,1.63,2.87h-1.38v3.34h9.19v-3.34h-4.51c-1.38,0-2.29-0.39-2.29-1.48
			c0-1.01,0.66-1.26,1.92-1.26h4.89v-3.34h-4.51c-1.38,0-2.29-0.37-2.29-1.48c0-1.01,0.66-1.24,1.92-1.24h4.89v-3.34h-5.77
			c-1.92,0-3.67,0.74-3.67,3.28c0,1.55,0.78,2.64,1.81,3.13C18.16,300.27,17.42,301.11,17.42,302.74z"/>
		<rect x="13.87" y="284.71" width="12.99" height="3.5"/>
		<path d="M23.83,280.57l0.04,2.91c2.23-0.19,3.24-2.08,3.24-4.62c0-2.62-1.11-4.27-3.05-4.27c-1.79,0-2.72,1.2-3.05,3.26
			l-0.31,1.79c-0.04,0.31-0.21,0.56-0.52,0.56c-0.41,0-0.66-0.37-0.66-1.01c0-1.03,0.41-1.61,1.07-1.73l-0.08-2.74
			c-1.92,0.19-3.09,1.75-3.09,4.41c0,2.58,1.3,4.16,3.11,4.16c1.88,0,2.6-1.18,2.95-3.4l0.21-1.36c0.1-0.64,0.35-0.85,0.7-0.85
			c0.37,0,0.64,0.39,0.64,1.13C25.03,279.82,24.59,280.44,23.83,280.57z"/>
		<path d="M26.86,267.23l-2.51-0.97v-5.07l2.51-0.97v-3.73l-12.99,5.17v3.92l12.99,5.17V267.23z M21.73,265.25l-3.83-1.48v-0.08
			l3.83-1.48V265.25z"/>
		<polygon points="26.86,245.96 13.87,240.97 13.87,244.46 22.51,247.67 22.51,247.75 13.87,250.97 13.87,254.64 26.86,249.65 		"/>
		<rect x="13.87" y="236.71" width="2.93" height="3.38"/>
		<rect x="17.67" y="236.73" width="9.19" height="3.34"/>
		<path d="M19.3,231.58h-1.63v3.34h9.19v-3.34h-4.21c-1.55,0-2.12-0.76-2.12-2c0-0.64,0.12-1.13,0.39-1.59l-3.15-0.21
			c-0.19,0.23-0.35,0.72-0.35,1.28C17.42,230.28,18.27,231.25,19.3,231.58z"/>
		<path d="M22.57,223.52h-4.91v3.34h5.79c1.92,0,3.65-0.76,3.65-3.28c0-1.38-0.6-2.39-1.63-2.89h1.38v-3.34h-9.19v3.34h4.51
			c1.4,0,2.31,0.41,2.31,1.46C24.49,223.17,23.81,223.52,22.57,223.52z"/>
		<path d="M20.53,216.02c1.88,0,2.6-1.18,2.95-3.4l0.21-1.36c0.1-0.64,0.35-0.85,0.7-0.85c0.37,0,0.64,0.39,0.64,1.13
			c0,1.01-0.43,1.63-1.2,1.75l0.04,2.91c2.23-0.19,3.24-2.08,3.24-4.62c0-2.62-1.11-4.27-3.05-4.27c-1.79,0-2.72,1.2-3.05,3.26
			l-0.31,1.79c-0.04,0.31-0.21,0.56-0.52,0.56c-0.41,0-0.66-0.37-0.66-1.01c0-1.03,0.41-1.61,1.07-1.73l-0.08-2.74
			c-1.92,0.19-3.09,1.75-3.09,4.41C17.42,214.43,18.72,216.02,20.53,216.02z"/>
		<rect x="23.32" y="200.93" width="3.55" height="3.55"/>
		<path d="M22.26,198.04c2.87,0,4.84-2.02,4.84-5.03c0-2.99-1.98-5.03-4.84-5.03c-2.84,0-4.84,2.04-4.84,5.03
			C17.42,196.02,19.42,198.04,22.26,198.04z M22.26,191.34c1.38,0,2.33,0.52,2.33,1.67c0,1.17-0.95,1.67-2.33,1.67
			s-2.33-0.49-2.33-1.67C19.93,191.86,20.88,191.34,22.26,191.34z"/>
		<path d="M17.77,179.53c-0.19,0.23-0.35,0.72-0.35,1.28c0,1.22,0.85,2.19,1.88,2.52h-1.63v3.34h9.19v-3.34h-4.21
			c-1.55,0-2.12-0.76-2.12-2c0-0.64,0.12-1.13,0.39-1.59L17.77,179.53z"/>
		<path d="M18.16,171.45c-0.47,0.78-0.74,1.83-0.74,2.95c0,2.58,1.2,4.43,3.15,4.43c1.01,0,1.79-0.49,2.33-1.32
			c0.37,0.99,1.05,1.57,1.94,1.57c0.78,0,1.53-0.49,1.79-1.32c0.08,1.03,0.72,1.75,1.53,1.75c1.73,0,2.25-2.27,2.25-4.89
			c0-2.99-1.05-5.77-3.34-5.77c-1.55,0-2.64,1.05-2.64,3.13v3.81c0,0.56-0.25,0.78-0.56,0.78c-0.19,0-0.33-0.06-0.43-0.19
			c0.19-0.6,0.27-1.26,0.27-2c0-2.6-1.2-4.47-3.13-4.47c-0.43,0-0.83,0.1-1.18,0.29c-0.1-0.45-0.14-0.95-0.14-1.34h-2.52
			C16.74,169.89,17.4,170.9,18.16,171.45z M27.27,172.77c0-0.56,0.14-0.85,0.54-0.85c0.56,0,0.87,1.13,0.87,2.68
			c0,1.24-0.19,2.16-0.85,2.16c-0.35,0-0.56-0.25-0.56-0.62V172.77z M20.57,173.39c0.82,0,1.34,0.41,1.34,0.97
			c0,0.56-0.52,0.97-1.34,0.97c-0.8,0-1.32-0.41-1.32-0.97C19.25,173.8,19.77,173.39,20.57,173.39z"/>
		<path d="M771.49,210.85l-2.06-0.43v1.98l-2.02-0.49v-1.88l-2.06-0.43v1.81l-3.42-0.8v2.49l3.42,0.8v1.77l-3.42-0.8v2.49l3.42,0.8
			v2.04l2.06,0.43v-1.98l2.02,0.49v1.88l2.06,0.43v-1.83l3.42,0.82v-2.49l-3.42-0.82v-1.77l3.42,0.83v-2.49l-3.42-0.82V210.85z
			 M769.43,216.66l-2.02-0.49v-1.77l2.02,0.5V216.66z"/>
		<path d="M768.42,224.09c-4,0-6.74,2.87-6.74,6.66c0,3.98,2.51,6.1,5.75,6.35l0.14-3.36c-1.44-0.21-2.78-0.99-2.78-3.01
			c0-1.92,1.42-3.03,3.63-3.03c2.21,0,3.63,1.11,3.63,3.03c0,2.02-1.34,2.8-2.78,3.01l0.12,3.36c3.24-0.25,5.77-2.37,5.77-6.35
			C775.16,226.95,772.42,224.09,768.42,224.09z"/>
		<path d="M761.72,246.18c0,0.95,0.27,1.61,0.6,2.08h1.77c-0.1-0.27-0.14-0.47-0.14-0.74c0-0.35,0.21-0.56,0.68-0.56h3.13
			c2.56,0,3.61-1.79,3.61-4.23c0-2.76-1.4-4.27-3.42-4.56l-0.21,3.09c0.68,0.14,1.15,0.52,1.15,1.26c0,0.8-0.45,1.15-1.22,1.15
			h-0.14l-0.43-2.58c-0.35-2-1.11-3.28-2.89-3.28c-1.57,0-2.49,1.18-2.49,2.97c0,1.46,0.56,2.52,1.63,3.05
			C762.3,244.16,761.72,245.05,761.72,246.18z M764.65,241.05c0.6,0,0.84,0.47,1.01,1.28l0.25,1.36h-0.14c-1.2,0-1.9-0.76-1.9-1.71
			C763.87,241.42,764.18,241.05,764.65,241.05z"/>
		<path d="M758.63,252.57h4.86c-1.07,0.45-1.81,1.48-1.81,3.03c0,2.7,2.12,4.08,4.84,4.08c2.7,0,4.84-1.38,4.84-4.08
			c0-1.55-0.74-2.58-1.83-3.03h1.59v-3.34h-12.49V252.57z M766.46,252.57h0.12c1.32,0,2.18,0.72,2.18,1.86c0,1.3-0.93,1.9-2.25,1.9
			c-1.34,0-2.27-0.6-2.27-1.9C764.26,253.29,765.12,252.57,766.46,252.57z"/>
		<rect x="761.93" y="261" width="9.19" height="3.34"/>
		<rect x="771.99" y="260.98" width="2.93" height="3.38"/>
		<path d="M773.66,267.68l-1.2-0.31c-0.85-0.23-1.34-0.52-1.48-1.44l-0.1-0.68h-2.06v1.24h-4.33c-2.16,0-2.8,1.46-2.8,3.01
			c0,1.26,0.31,2.06,0.82,2.76h2.16c-0.23-0.56-0.31-1.01-0.31-1.42c0-0.68,0.31-1.05,1.09-1.05h3.36v2.39h2.31v-2.39h2.54V267.68z"
			/>
		<path d="M764.63,282.13h3.13c2.56,0,3.61-1.79,3.61-4.23c0-2.76-1.4-4.27-3.42-4.56l-0.21,3.09c0.68,0.14,1.15,0.52,1.15,1.26
			c0,0.8-0.45,1.15-1.22,1.15h-0.14l-0.43-2.58c-0.35-2-1.11-3.28-2.89-3.28c-1.57,0-2.49,1.18-2.49,2.97
			c0,1.46,0.56,2.51,1.63,3.05c-1.05,0.31-1.63,1.2-1.63,2.33c0,0.95,0.27,1.61,0.6,2.08h1.77c-0.1-0.27-0.14-0.47-0.14-0.74
			C763.95,282.33,764.16,282.13,764.63,282.13z M763.87,277.14c0-0.56,0.31-0.93,0.78-0.93c0.6,0,0.84,0.47,1.01,1.28l0.25,1.36
			h-0.14C764.57,278.85,763.87,278.09,763.87,277.14z"/>
		<rect x="761.93" y="284.39" width="12.99" height="3.34"/>
		<rect x="771.99" y="289.53" width="2.93" height="3.38"/>
		<rect x="761.93" y="289.55" width="9.19" height="3.34"/>
		<path d="M768.26,294.22c-1.88,0-2.6,1.18-2.95,3.4l-0.21,1.36c-0.1,0.64-0.35,0.85-0.7,0.85c-0.37,0-0.64-0.39-0.64-1.13
			c0-1.01,0.43-1.63,1.2-1.75l-0.04-2.91c-2.23,0.19-3.24,2.08-3.24,4.62c0,2.62,1.11,4.27,3.05,4.27c1.79,0,2.72-1.2,3.05-3.26
			l0.31-1.79c0.04-0.31,0.21-0.56,0.51-0.56c0.41,0,0.66,0.37,0.66,1.01c0,1.03-0.41,1.61-1.07,1.73l0.08,2.74
			c1.92-0.19,3.09-1.75,3.09-4.41C771.37,295.81,770.07,294.22,768.26,294.22z"/>
		<path d="M771.37,310.41c0-1.38-0.62-2.37-1.63-2.87h1.38v-3.34h-9.19v3.34h4.51c1.38,0,2.29,0.39,2.29,1.48
			c0,1.01-0.66,1.26-1.92,1.26h-4.89v3.34h4.51c1.38,0,2.29,0.37,2.29,1.48c0,1.01-0.66,1.24-1.92,1.24h-4.89v3.34h5.77
			c1.92,0,3.67-0.74,3.67-3.28c0-1.55-0.78-2.64-1.81-3.13C770.63,312.88,771.37,312.03,771.37,310.41z"/>
		<rect x="761.93" y="323.27" width="12.99" height="3.5"/>
		<path d="M764.96,330.92l-0.04-2.91c-2.23,0.19-3.24,2.08-3.24,4.62c0,2.62,1.11,4.27,3.05,4.27c1.79,0,2.72-1.2,3.05-3.26
			l0.31-1.79c0.04-0.31,0.21-0.56,0.51-0.56c0.41,0,0.66,0.37,0.66,1.01c0,1.03-0.41,1.61-1.07,1.73l0.08,2.74
			c1.92-0.19,3.09-1.75,3.09-4.41c0-2.58-1.3-4.16-3.11-4.16c-1.88,0-2.6,1.18-2.95,3.4l-0.21,1.36c-0.1,0.64-0.35,0.85-0.7,0.85
			c-0.37,0-0.64-0.39-0.64-1.13C763.76,331.66,764.2,331.04,764.96,330.92z"/>
		<path d="M761.93,342.59l2.51,0.97v5.07l-2.51,0.97v3.73l12.99-5.17v-3.92l-12.99-5.17V342.59z M767.06,344.57l3.83,1.48v0.08
			l-3.83,1.48V344.57z"/>
		<polygon points="761.93,363.81 774.92,368.8 774.92,365.31 766.28,362.1 766.28,362.01 774.92,358.8 774.92,355.13 761.93,360.12 
					"/>
		<rect x="771.99" y="369.68" width="2.93" height="3.38"/>
		<rect x="761.93" y="369.7" width="9.19" height="3.34"/>
		<path d="M769.49,378.19h1.63v-3.34h-9.19v3.34h4.21c1.55,0,2.12,0.76,2.12,2c0,0.64-0.12,1.13-0.39,1.59l3.15,0.21
			c0.19-0.23,0.35-0.72,0.35-1.28C771.37,379.49,770.53,378.52,769.49,378.19z"/>
		<path d="M766.22,386.25h4.91v-3.34h-5.79c-1.92,0-3.65,0.76-3.65,3.28c0,1.38,0.6,2.39,1.63,2.89h-1.38v3.34h9.19v-3.34h-4.51
			c-1.4,0-2.31-0.41-2.31-1.46C764.3,386.6,764.98,386.25,766.22,386.25z"/>
		<path d="M768.26,393.75c-1.88,0-2.6,1.18-2.95,3.4l-0.21,1.36c-0.1,0.64-0.35,0.85-0.7,0.85c-0.37,0-0.64-0.39-0.64-1.13
			c0-1.01,0.43-1.63,1.2-1.75l-0.04-2.91c-2.23,0.19-3.24,2.08-3.24,4.62c0,2.62,1.11,4.27,3.05,4.27c1.79,0,2.72-1.2,3.05-3.26
			l0.31-1.79c0.04-0.31,0.21-0.56,0.51-0.56c0.41,0,0.66,0.37,0.66,1.01c0,1.03-0.41,1.61-1.07,1.73l0.08,2.74
			c1.92-0.19,3.09-1.75,3.09-4.41C771.37,395.34,770.07,393.75,768.26,393.75z"/>
	</g>
</g>
</svg>
