<?xml version="1.0" encoding="utf-8"?>
<!-- Generator: Adobe Illustrator 23.1.1, SVG Export Plug-In . SVG Version: 6.00 Build 0)  -->
<svg version="1.1" xmlns="http://www.w3.org/2000/svg" xmlns:xlink="http://www.w3.org/1999/xlink" x="0px" y="0px"
	 viewBox="0 0 792 612" style="enable-background:new 0 0 792 612;" xml:space="preserve">
<style type="text/css">
	.st0{display:none;}
	.st1{display:inline;fill:#FFFFFF;}
	.st2{display:inline;}
	.st3{fill:#FFFFFF;stroke:#000000;stroke-width:16;stroke-linecap:round;stroke-linejoin:round;stroke-miterlimit:10;}
	.st4{fill:none;stroke:#000000;stroke-width:24;stroke-linejoin:round;stroke-miterlimit:10;}
	.st5{fill:#FFFFFF;}
	.st6{fill:#FFFFFF;stroke:#000000;stroke-width:17;stroke-linecap:round;stroke-miterlimit:10;}
	.st7{fill:#FFFFFF;stroke:#000000;stroke-width:17;stroke-miterlimit:10;}
	.st8{stroke:#000000;stroke-width:16.0572;stroke-linecap:round;stroke-miterlimit:10;}
	.st9{fill:#FFFFFF;stroke:#000000;stroke-width:13.497;stroke-linecap:round;stroke-linejoin:round;stroke-miterlimit:10;}
	.st10{stroke:#000000;stroke-width:18.3348;stroke-linecap:round;stroke-miterlimit:10;}
	.st11{fill:none;stroke:#000000;stroke-width:13.497;stroke-linecap:round;stroke-linejoin:round;stroke-miterlimit:10;}
	.st12{fill:#FFFFFF;stroke:#000000;stroke-width:14.6942;stroke-linecap:round;stroke-linejoin:round;stroke-miterlimit:10;}
	.st13{fill:none;stroke:#000000;stroke-width:13;stroke-linecap:round;stroke-linejoin:round;stroke-miterlimit:10;}
	.st14{fill:none;stroke:#000000;stroke-width:13;stroke-linejoin:round;stroke-miterlimit:10;}
	.st15{fill:url(#);stroke:#000000;stroke-width:13;stroke-linejoin:round;stroke-miterlimit:10;}
	.st16{fill:none;stroke:#000000;stroke-width:30.5612;stroke-linecap:round;stroke-linejoin:round;stroke-miterlimit:10;}
	.st17{fill:#FFFFFF;stroke:#000000;stroke-width:16.2993;stroke-linecap:round;stroke-linejoin:round;stroke-miterlimit:10;}
	.st18{fill:#FFFFFF;stroke:#000000;stroke-width:13.497;stroke-linecap:round;stroke-miterlimit:10;}
	.st19{fill:url(#);stroke:#000000;stroke-width:13.497;stroke-linecap:round;stroke-linejoin:round;stroke-miterlimit:10;}
	.st20{fill:#FFFFFF;stroke:#000000;stroke-width:11.7326;stroke-linecap:round;stroke-linejoin:round;stroke-miterlimit:10;}
	.st21{fill:#FFFFFF;stroke:#000000;stroke-width:13.2623;stroke-linecap:round;stroke-linejoin:round;stroke-miterlimit:10;}
	.st22{fill:#FFFFFF;stroke:#000000;stroke-width:13.2623;stroke-linecap:round;stroke-miterlimit:10;}
	.st23{stroke:#000000;stroke-width:4.5213;stroke-miterlimit:10;}
	.st24{fill:none;stroke:#000000;stroke-width:16;stroke-linecap:round;stroke-miterlimit:10;}
	.st25{fill:url(#);stroke:#000000;stroke-width:16;stroke-linecap:round;stroke-linejoin:round;stroke-miterlimit:10;}
	.st26{fill:#FFFFFF;stroke:#000000;stroke-width:16;stroke-linecap:round;stroke-miterlimit:10;}
	.st27{fill:none;stroke:#000000;stroke-width:16;stroke-linecap:round;stroke-linejoin:round;stroke-miterlimit:10;}
	.st28{fill:none;stroke:#000000;stroke-width:15.2344;stroke-linecap:round;stroke-linejoin:round;stroke-miterlimit:10;}
	.st29{fill:#FFFFFF;stroke:#000000;stroke-width:15.2344;stroke-linecap:round;stroke-linejoin:round;stroke-miterlimit:10;}
	.st30{fill:#FFFFFF;stroke:#000000;stroke-width:17;stroke-linecap:round;stroke-linejoin:round;stroke-miterlimit:10;}
	.st31{fill:none;stroke:#000000;stroke-width:9.9764;stroke-linecap:round;stroke-linejoin:round;stroke-miterlimit:10;}
	.st32{fill:none;stroke:#000000;stroke-width:9.3127;stroke-linejoin:round;stroke-miterlimit:10;}
	.st33{fill:url(#);}
	.st34{fill:none;stroke:#000000;stroke-width:8.3796;stroke-linecap:round;stroke-linejoin:round;stroke-miterlimit:10;}
	
		.st35{display:inline;fill:none;stroke:#000000;stroke-width:9.9764;stroke-linecap:round;stroke-linejoin:round;stroke-miterlimit:10;}
	.st36{display:inline;fill:none;stroke:#000000;stroke-width:9.3127;stroke-linejoin:round;stroke-miterlimit:10;}
	.st37{display:inline;fill:url(#);stroke:#000000;stroke-width:10;stroke-linejoin:round;stroke-miterlimit:10;}
	.st38{fill:#FFFFFF;stroke:#000000;stroke-width:14.7375;stroke-linecap:round;stroke-linejoin:round;stroke-miterlimit:10;}
	.st39{fill:none;stroke:#000000;stroke-width:14.7375;stroke-linecap:round;stroke-linejoin:round;stroke-miterlimit:10;}
	.st40{stroke:#000000;stroke-width:14.7375;stroke-linecap:round;stroke-linejoin:round;stroke-miterlimit:10;}
	.st41{fill:#FFFFFF;stroke:#000000;stroke-width:14.2911;stroke-linecap:round;stroke-linejoin:round;stroke-miterlimit:10;}
	.st42{fill:none;stroke:#000000;stroke-width:15;stroke-linecap:round;stroke-linejoin:round;stroke-miterlimit:10;}
	.st43{fill:#FFFFFF;stroke:#000000;stroke-width:15;stroke-linecap:round;stroke-linejoin:round;stroke-miterlimit:10;}
	.st44{fill:#FFFFFF;stroke:#000000;stroke-width:14.8467;stroke-linecap:round;stroke-linejoin:round;stroke-miterlimit:10;}
	.st45{stroke:#000000;stroke-width:20.1683;stroke-linecap:round;stroke-miterlimit:10;}
	.st46{fill:none;stroke:#000000;stroke-width:14.8467;stroke-linecap:round;stroke-linejoin:round;stroke-miterlimit:10;}
	.st47{fill:none;stroke:#000000;stroke-width:13.497;stroke-miterlimit:10;}
	.st48{fill:#FFFFFF;stroke:#000000;stroke-width:13.497;stroke-miterlimit:10;}
	.st49{fill:#FFFFFF;stroke:#000000;stroke-width:14.7439;stroke-linecap:round;stroke-miterlimit:10;}
	.st50{fill:#FFFFFF;stroke:#000000;stroke-width:14.7439;stroke-miterlimit:10;}
	.st51{stroke:#000000;stroke-width:13.9262;stroke-linecap:round;stroke-miterlimit:10;}
	.st52{fill:#FFFFFF;stroke:#000000;stroke-width:17.1072;stroke-linecap:round;stroke-linejoin:round;stroke-miterlimit:10;}
	.st53{stroke:#000000;stroke-width:17.1072;stroke-linecap:round;stroke-linejoin:round;stroke-miterlimit:10;}
	.st54{fill:#FFFFFF;stroke:#000000;stroke-width:15;stroke-linecap:square;stroke-linejoin:round;stroke-miterlimit:10;}
	.st55{fill:#FFFFFF;stroke:#000000;stroke-width:15;stroke-linejoin:round;stroke-miterlimit:10;}
	.st56{fill:#FFFFFF;stroke:#000000;stroke-width:14;stroke-linecap:round;stroke-linejoin:round;stroke-miterlimit:10;}
	.st57{fill:#FFFFFF;stroke:#000000;stroke-width:13;stroke-linecap:round;stroke-linejoin:round;stroke-miterlimit:10;}
	.st58{font-family:'FoundersGrotesk-Semibold';}
	.st59{font-size:54.3323px;}
	.st60{font-family:'FoundersGrotesk-Bold';}
	.st61{font-size:20.6105px;}
	.st62{font-size:10.3052px;}
	.st63{font-size:19.2364px;}
	.st64{font-size:10px;}
	.st65{fill:#FFFFFF;stroke:#000000;stroke-width:15.2362;stroke-linecap:round;stroke-linejoin:round;stroke-miterlimit:10;}
	.st66{fill:#FFFFFF;stroke:#FFFFFF;stroke-width:3;stroke-miterlimit:10;}
	.st67{fill:#FFFFFF;stroke:#000000;stroke-width:13.3058;stroke-linecap:round;stroke-linejoin:round;stroke-miterlimit:10;}
	.st68{fill:#FFFFFF;stroke:#000000;stroke-width:15.2517;stroke-linecap:round;stroke-linejoin:round;stroke-miterlimit:10;}
	.st69{stroke:#000000;stroke-width:3;stroke-miterlimit:10;}
</style>
<g id="unexpanded" class="st0">
	<rect x="-7425.75" y="-3205.56" class="st1" width="14663.41" height="9108.82"/>
	<g class="st2">
		<rect x="-0.25" y="-612" class="st5" width="792" height="1224"/>
		<g>
			<g>
				<g>
					<g>
						<path class="st5" d="M424.57,311.64c0,0-37.01,20.43-9.12,53.69s50.12,31.79,62.44,29.05s209.62,181.23,231.78,200.6
							l39.76-43.67"/>
						<g>
							<path class="st5" d="M436.68,372.14c6.68,1.04,12.98-3.85,14.07-10.91s-3.43-13.62-10.11-14.66l-44.27-6.87
								c-6.68-1.04-12.98,3.85-14.07,10.91c-1.1,7.06,3.43,13.62,10.11,14.66L436.68,372.14z"/>
							<path class="st5" d="M440.65,346.57c6.68,1.04,12.98-3.85,14.07-10.91s-3.43-13.62-10.11-14.66l-51.49-7.99
								c-6.68-1.04-12.98,3.85-14.07,10.91s3.43,13.62,10.11,14.66L440.65,346.57z"/>
							<path class="st5" d="M448.56,295.56c6.68,1.04,12.98-3.85,14.07-10.91c1.1-7.06-3.43-13.62-10.11-14.66l-51.49-7.99
								c-6.68-1.04-12.98,3.85-14.07,10.91c-1.1,7.06,3.43,13.62,10.11,14.66L448.56,295.56z"/>
							<path class="st5" d="M444.6,321.13c6.68,1.04,12.98-3.85,14.07-10.91c1.1-7.06-3.43-13.62-10.11-14.66l-58.72-9.11
								c-6.68-1.04-12.98,3.85-14.07,10.91s3.43,13.62,10.11,14.66L444.6,321.13z"/>
						</g>
					</g>
					<g>
						<path class="st56" d="M424.57,311.64c0,0-37.01,20.43-9.12,53.69s49.92,30.68,62.44,29.05
							c23.78-3.1,95.55,88.86,215.31,194.74"/>
						<g>
							<path class="st56" d="M436.68,372.14c6.68,1.04,12.98-3.85,14.07-10.91s-3.43-13.62-10.11-14.66l-44.27-6.87
								c-6.68-1.04-12.98,3.85-14.07,10.91c-1.1,7.06,3.43,13.62,10.11,14.66L436.68,372.14z"/>
							<path class="st56" d="M440.65,346.57c6.68,1.04,12.98-3.85,14.07-10.91s-3.43-13.62-10.11-14.66l-51.49-7.99
								c-6.68-1.04-12.98,3.85-14.07,10.91s3.43,13.62,10.11,14.66L440.65,346.57z"/>
							<path class="st56" d="M448.56,295.56c6.68,1.04,12.98-3.85,14.07-10.91c1.1-7.06-3.43-13.62-10.11-14.66l-51.49-7.99
								c-6.68-1.04-12.98,3.85-14.07,10.91c-1.1,7.06,3.43,13.62,10.11,14.66L448.56,295.56z"/>
							<path class="st56" d="M444.6,321.13c6.68,1.04,12.98-3.85,14.07-10.91c1.1-7.06-3.43-13.62-10.11-14.66l-58.72-9.11
								c-6.68-1.04-12.98,3.85-14.07,10.91s3.43,13.62,10.11,14.66L444.6,321.13z"/>
						</g>
						<path class="st5" d="M779.21,521.98l-49.49,52.8L486.18,356.49c0,0-36-17.15-23.8-55.94c-3.56-0.62-7.77-1.36-7.77-1.36
							s-3.01,9.95-13.25,13.06s-16.8-0.61-16.8-0.61s9.09-35.38,10.93-41.22c1.84-5.83,7.52-8.96,17.38-8.57
							c9.86,0.38,41.05,1.12,52.2,11.5c11.14,10.37,14.07,42.36,19.75,51.96C528.97,332.31,721.47,475.63,779.21,521.98z"/>
						<path class="st56" d="M486.18,356.49c0,0-36-17.14-23.8-55.94c-3.56-0.62-7.77-1.35-7.77-1.35s-3.01,9.95-13.25,13.06
							c-10.24,3.11-16.8-0.61-16.8-0.61s9.09-35.38,10.93-41.22c1.84-5.83,7.52-8.96,17.38-8.57c9.86,0.39,41.05,1.12,52.2,11.5
							s15.78,41.54,19.75,51.96c7.47,19.57,134.3,99.69,248.03,189.81"/>
					</g>
				</g>
				<line class="st56" x1="454.01" y1="311.27" x2="446.34" y2="314.92"/>
			</g>
			<g>
				<g>
					<g>
						<path class="st5" d="M589.44,263.09c0,0-37.1,20.26-9.37,53.64s49.97,32.03,62.3,29.35s108.42,94.85,130.49,114.32l8.61-88.12
							"/>
						<g>
							<path class="st5" d="M601.27,323.64c6.67,1.07,13-3.79,14.13-10.84c1.13-7.05-3.36-13.64-10.04-14.71l-44.23-7.08
								c-6.67-1.07-13,3.79-14.13,10.84s3.36,13.64,10.04,14.71L601.27,323.64z"/>
							<path class="st5" d="M605.36,298.1c6.67,1.07,13-3.79,14.13-10.84c1.13-7.05-3.36-13.64-10.04-14.71l-51.45-8.24
								c-6.67-1.07-13,3.79-14.13,10.84c-1.13,7.05,3.36,13.64,10.04,14.71L605.36,298.1z"/>
							<path class="st5" d="M613.52,247.12c6.67,1.07,13-3.79,14.13-10.84c1.13-7.05-3.36-13.64-10.04-14.71l-51.45-8.24
								c-6.67-1.07-13,3.79-14.13,10.84c-1.13,7.05,3.36,13.64,10.04,14.71L613.52,247.12z"/>
							<path class="st5" d="M609.43,272.67c6.67,1.07,13-3.79,14.13-10.84c1.13-7.05-3.36-13.64-10.04-14.71l-58.67-9.39
								c-6.67-1.07-13,3.79-14.13,10.84c-1.13,7.05,3.36,13.64,10.04,14.71L609.43,272.67z"/>
						</g>
					</g>
					<g>
						<path class="st56" d="M589.44,263.09c0,0-37.1,20.26-9.37,53.64s49.78,30.92,62.3,29.35c18.34-2.3,63.73,49.43,130.49,114.32"
							/>
						<g>
							<path class="st56" d="M601.27,323.64c6.67,1.07,13-3.79,14.13-10.84c1.13-7.05-3.36-13.64-10.04-14.71l-44.23-7.08
								c-6.67-1.07-13,3.79-14.13,10.84s3.36,13.64,10.04,14.71L601.27,323.64z"/>
							<path class="st56" d="M605.36,298.1c6.67,1.07,13-3.79,14.13-10.84c1.13-7.05-3.36-13.64-10.04-14.71l-51.45-8.24
								c-6.67-1.07-13,3.79-14.13,10.84c-1.13,7.05,3.36,13.64,10.04,14.71L605.36,298.1z"/>
							<path class="st56" d="M613.52,247.12c6.67,1.07,13-3.79,14.13-10.84c1.13-7.05-3.36-13.64-10.04-14.71l-51.45-8.24
								c-6.67-1.07-13,3.79-14.13,10.84c-1.13,7.05,3.36,13.64,10.04,14.71L613.52,247.12z"/>
							<path class="st56" d="M609.43,272.67c6.67,1.07,13-3.79,14.13-10.84c1.13-7.05-3.36-13.64-10.04-14.71l-58.67-9.39
								c-6.67-1.07-13,3.79-14.13,10.84c-1.13,7.05,3.36,13.64,10.04,14.71L609.43,272.67z"/>
						</g>
						<path class="st5" d="M772.86,343.45l8.61,83L650.84,308.23c0,0-35.92-17.32-23.53-56.05c-3.55-0.63-7.77-1.39-7.77-1.39
							s-3.05,9.93-13.31,12.99s-16.79-0.69-16.79-0.69s9.26-35.34,11.13-41.17c1.87-5.83,7.56-8.92,17.42-8.49
							s41.05,1.32,52.14,11.74c11.09,10.43,13.87,42.42,19.51,52.06C693.75,284.26,772.86,343.45,772.86,343.45z"/>
						<path class="st56" d="M650.84,308.23c0,0-35.92-17.32-23.53-56.05c-3.55-0.63-7.76-1.39-7.76-1.39s-3.05,9.93-13.31,12.99
							c-10.26,3.06-16.79-0.69-16.79-0.69s9.26-35.34,11.13-41.17s7.56-8.92,17.42-8.49c9.86,0.43,41.05,1.32,52.14,11.74
							c11.09,10.43,15.58,41.61,19.51,52.06c3.45,9.17,45.43,38.72,83.22,66.21"/>
					</g>
				</g>
				<line class="st56" x1="618.89" y1="262.86" x2="611.2" y2="266.47"/>
			</g>
			<g>
				<g>
					<path class="st56" d="M9.64,96.27c6.09,10.61,7.88,20.25,10.57,28.72c32.41,101.97,104.5,140.8,104.5,140.8
						c8.61,8.44,22.82,7.9,31.74-1.2c8.92-9.1,9.17-23.32,0.57-31.76l9.31,9.13c8.61,8.44,22.82,7.9,31.74-1.2
						c8.2-8.37,9.06-21.06,2.45-29.6l7.28,7.13c8.61,8.44,22.82,7.9,31.74-1.2c8.92-9.1,9.17-23.32,0.57-31.76l-2.44-3.38
						c3.03,2.55,81.79,76.35,81.79,76.35c8.54,8.5,22.76,8.07,31.75-0.96c8.99-9.03,9.35-23.25,0.81-31.75L241.89,112.26
						c-4.22-20.25-11.18-43.11-22.75-53.29c-19.31-17-73.58-16.55-90.68-24.49c-6.93-3.22-18.07-10.08-29.83-19.32"/>
					<path class="st56" d="M194.56,81.29c0,0,26.08,15.87,55.33,38.89"/>
				</g>
				<g>
					<circle class="st57" cx="266.93" cy="173.32" r="32.83"/>
					<g>
						<text transform="matrix(-0.7071 0.7071 0.7071 0.7071 289.5802 173.3749)" class="st58 st59">$</text>
					</g>
				</g>
			</g>
			<g>
				<g>
					<g>
						<path class="st5" d="M403.51,477.41c0,0-36.11,21.98-6.84,54.02c29.27,32.05,51.42,29.65,63.61,26.39
							c12.19-3.26,42.45,22.81,65.41,41.22l84.76,3.8"/>
						<g>
							<path class="st5" d="M418.16,537.34c6.71,0.75,12.8-4.39,13.6-11.49c0.8-7.1-4-13.47-10.72-14.22l-44.52-4.99
								c-6.71-0.75-12.8,4.39-13.6,11.49c-0.8,7.1,4,13.47,10.72,14.22L418.16,537.34z"/>
							<path class="st5" d="M421.05,511.63c6.71,0.75,12.8-4.39,13.6-11.49c0.8-7.1-4-13.47-10.72-14.22l-51.78-5.81
								c-6.71-0.75-12.8,4.39-13.6,11.49c-0.8,7.1,4,13.47,10.72,14.22L421.05,511.63z"/>
							<path class="st5" d="M426.8,460.33c6.71,0.75,12.8-4.39,13.6-11.49c0.8-7.1-4-13.47-10.72-14.22l-51.78-5.81
								c-6.71-0.75-12.8,4.39-13.6,11.49c-0.8,7.1,4,13.47,10.72,14.22L426.8,460.33z"/>
							<path class="st5" d="M423.92,486.04c6.71,0.75,12.8-4.39,13.6-11.49c0.8-7.1-4-13.47-10.72-14.22l-59.05-6.63
								c-6.71-0.75-12.8,4.39-13.6,11.49s4,13.47,10.72,14.22L423.92,486.04z"/>
						</g>
					</g>
					<g>
						<path class="st56" d="M403.51,477.41c0,0-36.11,21.98-6.84,54.02c29.27,32.05,51.18,28.54,63.61,26.39
							c6.58-1.14,42.99,29.09,54.03,37.16"/>
						<g>
							<path class="st56" d="M418.16,537.34c6.71,0.75,12.8-4.39,13.6-11.49c0.8-7.1-4-13.47-10.72-14.22l-44.52-4.99
								c-6.71-0.75-12.8,4.39-13.6,11.49c-0.8,7.1,4,13.47,10.72,14.22L418.16,537.34z"/>
							<path class="st56" d="M421.05,511.63c6.71,0.75,12.8-4.39,13.6-11.49c0.8-7.1-4-13.47-10.72-14.22l-51.78-5.81
								c-6.71-0.75-12.8,4.39-13.6,11.49c-0.8,7.1,4,13.47,10.72,14.22L421.05,511.63z"/>
							<path class="st56" d="M426.8,460.33c6.71,0.75,12.8-4.39,13.6-11.49c0.8-7.1-4-13.47-10.72-14.22l-51.78-5.81
								c-6.71-0.75-12.8,4.39-13.6,11.49c-0.8,7.1,4,13.47,10.72,14.22L426.8,460.33z"/>
							<path class="st56" d="M423.92,486.04c6.71,0.75,12.8-4.39,13.6-11.49c0.8-7.1-4-13.47-10.72-14.22l-59.05-6.63
								c-6.71-0.75-12.8,4.39-13.6,11.49s4,13.47,10.72,14.22L423.92,486.04z"/>
						</g>
						<path class="st5" d="M654.33,594.01l-92.62,5.87l-94.75-80.26c0,0-36.69-15.61-26.14-54.89c-3.58-0.47-7.82-1.03-7.82-1.03
							s-2.58,10.07-12.69,13.6s-16.81,0.1-16.81,0.1s7.59-35.74,9.18-41.64c1.6-5.91,7.14-9.27,17-9.3s41.07-0.61,52.64,9.28
							c11.57,9.89,15.85,41.73,21.93,51.08C508.69,493.65,594.68,550.13,654.33,594.01z"/>
						<path class="st56" d="M466.96,519.61c0,0-36.69-15.61-26.14-54.89c-3.58-0.47-7.82-1.03-7.82-1.03s-2.58,10.07-12.69,13.6
							s-16.81,0.1-16.81,0.1s7.59-35.74,9.18-41.64c1.6-5.91,7.14-9.27,17-9.3c9.87-0.03,41.07-0.61,52.64,9.28
							c11.57,9.89,17.51,40.83,21.93,51.08c4.55,10.56,93.02,69.25,143.6,102.3"/>
					</g>
				</g>
				<line class="st56" x1="432.91" y1="475.79" x2="425.4" y2="479.76"/>
			</g>
			<text transform="matrix(0 -1 1 0 25.9189 563.91)"><tspan x="0" y="0" class="st60 st61">www</tspan><tspan x="45.14" y="0" class="st60 st62"> </tspan><tspan x="46.99" y="0" class="st60 st61">.</tspan><tspan x="51.77" y="0" class="st60 st62"> </tspan><tspan x="53.63" y="0" class="st60 st61">Capitalism</tspan><tspan x="150.43" y="0" class="st60 st63"> </tspan><tspan x="153.9" y="0" class="st60 st61">Is</tspan><tspan x="168.88" y="0" class="st60 st63"> </tspan><tspan x="172.34" y="0" class="st60 st61">A</tspan><tspan x="186.6" y="0" class="st60 st62"> </tspan><tspan x="188.46" y="0" class="st60 st61">Virus</tspan><tspan x="236.15" y="0" class="st60 st62"> </tspan><tspan x="238.01" y="0" class="st60 st61">.</tspan><tspan x="242.79" y="0" class="st60 st62"> </tspan><tspan x="244.64" y="0" class="st60 st61">org</tspan></text>
			<text transform="matrix(0 1 -1 0 760.9863 46.6462)"><tspan x="0" y="0" class="st60 st61">#</tspan><tspan x="12.7" y="0" class="st60 st64"> </tspan><tspan x="14.5" y="0" class="st60 st61">Capitalism</tspan><tspan x="111.3" y="0" class="st60 st64"> </tspan><tspan x="113.1" y="0" class="st60 st61">Is</tspan><tspan x="128.09" y="0" class="st60 st64"> </tspan><tspan x="129.89" y="0" class="st60 st61">A</tspan><tspan x="144.15" y="0" class="st60 st64"> </tspan><tspan x="145.95" y="0" class="st60 st61">Virus</tspan></text>
		</g>
	</g>
</g>
<g id="exp_trnsp_bg">
	<path d="M779.93,518.44c2.4-3.03,1.89-7.43-1.14-9.83c-49.64-39.33-102.69-77.43-145.31-108.04
		c-28.35-20.36-52.83-37.94-70.89-51.91c-24.81-19.19-28.99-25.19-29.63-26.88c-0.98-2.57-2.16-7.19-3.41-12.09
		c-3.83-15-8.61-33.66-18.11-42.51c-11.16-10.39-35.47-12.58-55.39-13.32l-1.3-0.05c-9.36-0.36-15.23,2.07-18.91,5.22l-32.13-4.99
		c-10.48-1.63-20.38,5.89-22.06,16.75c-0.49,3.13-0.22,6.19,0.63,9.01c-1.49,0.64-2.92,1.46-4.25,2.49
		c-4.08,3.16-6.77,7.76-7.57,12.95s0.36,10.39,3.29,14.64c0.94,1.37,2.05,2.57,3.26,3.62c-1.63,2.41-2.79,5.22-3.27,8.31
		c-0.81,5.19,0.36,10.39,3.29,14.64c0.95,1.38,2.07,2.6,3.3,3.66c-1.66,2.43-2.85,5.27-3.33,8.4c-0.81,5.19,0.36,10.39,3.29,14.64
		c3.01,4.37,7.51,7.22,12.66,8.01l24.17,3.75c28.18,29.95,51.65,26.9,63.28,25.39c1.87-0.24,8.23,0.98,27.05,17.43
		c14.66,12.82,33.89,32.15,56.16,54.54c33.74,33.92,75.72,76.13,126.55,121.07c1.33,1.18,2.99,1.76,4.63,1.76
		c1.94,0,3.86-0.8,5.25-2.36c2.05-2.32,2.28-5.63,0.8-8.17c-0.37-0.62-0.83-1.21-1.4-1.71c-50.5-44.65-92.31-86.68-125.9-120.45
		c-51.8-52.08-77.79-78.22-94.95-75.98c-8.3,1.08-20.66,2.68-36.64-8.26c8.57-0.88,15.9-7.67,17.32-16.87
		c0.74-4.74-0.19-9.47-2.58-13.49c2.15-1.91,3.91-4.31,5.1-7.06c1.31,2.12,2.7,4.05,4.1,5.75c8.37,10.23,18.46,15.11,18.88,15.31
		c3.49,1.66,7.67,0.18,9.33-3.31c1.66-3.49,0.18-7.67-3.31-9.33c-0.08-0.04-7.76-3.83-14.07-11.53
		c-8.33-10.18-10.37-22.29-6.06-35.99c0.61-1.93,0.35-4.02-0.7-5.74c-1.05-1.72-2.79-2.91-4.78-3.26c-3.55-0.61-7.75-1.35-7.76-1.35
		c-3.49-0.61-6.86,1.4-7.89,4.79c-0.09,0.27-2.21,6.52-8.61,8.46c-2.41,0.73-4.51,0.95-6.21,0.94c3.3-12.76,7.87-30.23,9.05-33.96
		c0.85-2.68,4.35-3.93,10.43-3.69l1.33,0.05c24.95,0.93,40.55,4.15,46.38,9.57c6.5,6.05,11.06,23.91,14.09,35.73
		c1.41,5.52,2.63,10.29,3.9,13.61c4.76,12.46,37.58,36.44,105.44,85.17c42.5,30.52,95.4,68.51,144.79,107.64
		c1.29,1.02,2.82,1.51,4.34,1.51c1.61,0,3.21-0.56,4.49-1.63C779.29,519.16,779.63,518.83,779.93,518.44z M445.42,359.14
		c-0.5,3.23-3.23,5.5-6.08,5.06l-44.27-6.87c-1.31-0.2-2.47-0.96-3.28-2.13c-0.89-1.29-1.24-2.9-0.98-4.54
		c0.5-3.23,3.23-5.5,6.08-5.06l44.27,6.87c1.31,0.2,2.47,0.96,3.28,2.13C445.32,355.88,445.67,357.5,445.42,359.14z M388.53,304.08
		c-1.31-0.2-2.47-0.96-3.28-2.13c-0.89-1.29-1.24-2.9-0.98-4.54c0.25-1.64,1.08-3.07,2.31-4.03c1.12-0.87,2.46-1.24,3.77-1.03
		l32,4.97c-1.6,6.18-2.84,10.98-2.99,11.55L388.53,304.08z M395.46,272.96c0.46-2.96,2.79-5.12,5.37-5.12
		c0.24,0,0.47,0.02,0.71,0.05l27.46,4.26c-0.86,3.12-1.95,7.21-3.09,11.53l-26.19-4.06C396.87,279.19,394.96,276.2,395.46,272.96z
		 M449.38,333.57c-0.5,3.23-3.24,5.5-6.08,5.06l-51.49-7.99c-1.31-0.2-2.47-0.96-3.28-2.13c-0.89-1.29-1.24-2.9-0.98-4.54
		c0.44-2.83,2.59-4.92,5.02-5.1l52.53,8.15c0.28,0.04,0.56,0.07,0.84,0.1c0.97,0.34,1.83,0.99,2.46,1.91
		C449.29,330.32,449.64,331.93,449.38,333.57z"/>
	<path d="M736.19,411.64c-52.46-52.5-76.37-75.62-93.11-73.53c-8.3,1.04-20.67,2.58-36.59-8.44c8.58-0.84,15.93-7.6,17.4-16.79
		c0.78-4.87-0.23-9.6-2.52-13.5c2.22-1.95,3.96-4.35,5.13-7.05c1.3,2.13,2.69,4.06,4.08,5.78c8.32,10.27,18.39,15.19,18.81,15.4
		c3.47,1.67,7.63,0.22,9.32-3.25c1.69-3.47,0.24-7.65-3.22-9.35c-1.24-0.61-30.26-15.31-19.93-47.63c0.62-1.92,0.37-4.02-0.67-5.75
		s-2.78-2.92-4.77-3.28c-3.54-0.63-7.75-1.39-7.75-1.39c-3.49-0.63-6.89,1.45-7.93,4.83c-0.02,0.06-2.13,6.41-8.62,8.34
		c-2.41,0.72-4.51,0.93-6.21,0.91c3.36-12.74,8.01-30.19,9.21-33.92c0.86-2.68,4.38-3.9,10.45-3.64l1.33,0.06
		c24.94,1.05,40.53,4.34,46.33,9.8c6.47,6.08,10.95,23.96,13.92,35.79c1.39,5.53,2.58,10.31,3.83,13.63
		c3.44,9.14,24.79,25.31,72.7,60.01c4.33,3.14,8.67,6.28,12.96,9.4c1.24,0.9,2.68,1.34,4.11,1.34c0.24,0,0.49-0.02,0.73-0.04
		c1.91-0.2,3.72-1.17,4.94-2.84c2.27-3.13,1.58-7.5-1.54-9.78c-4.29-3.12-8.64-6.27-12.98-9.42c-27.23-19.72-64.51-46.73-67.81-53.6
		c-0.97-2.57-2.13-7.2-3.36-12.1c-3.76-15.01-8.45-33.7-17.91-42.59c-11.11-10.44-35.41-12.74-55.33-13.58l-1.3-0.06
		c-9.37-0.41-15.25,2-18.94,5.13l-32.1-5.14c-10.47-1.67-20.41,5.79-22.14,16.65c-0.5,3.12-0.25,6.19,0.59,9.01
		c-1.49,0.63-2.93,1.44-4.26,2.47c-4.09,3.14-6.8,7.73-7.63,12.91c-1.14,7.12,1.54,13.94,6.47,18.28c-1.65,2.41-2.83,5.21-3.32,8.3
		c-1.14,7.14,1.55,13.97,6.5,18.3c-1.71,2.48-2.88,5.33-3.37,8.4c-1.74,10.85,5.37,21.05,15.84,22.73l24.15,3.87
		c28.04,30.09,51.52,27.14,63.16,25.69c1.93-0.24,8.45,0.95,27.23,17.21c14.46,12.52,32.89,30.97,54.24,52.32
		c12.96,12.97,27.65,27.67,43.28,42.86c1.36,1.32,3.12,1.98,4.88,1.98c1.83,0,3.65-0.71,5.02-2.12c2.69-2.77,2.63-7.2-0.14-9.9
		c-1.35-1.31-2.67-2.61-4.01-3.91C761.26,436.72,748,423.46,736.19,411.64z M549.21,248.65c0.26-1.64,1.09-3.06,2.33-4.02
		c1.13-0.86,2.46-1.23,3.77-1.01l31.98,5.12c-1.63,6.17-2.89,10.96-3.04,11.54l-30.81-4.93
		C550.59,254.89,548.69,251.89,549.21,248.65z M560.52,224.26c0.52-3.23,3.26-5.5,6.11-5.03l27.44,4.39
		c-0.87,3.11-1.98,7.2-3.15,11.52l-26.17-4.19C561.9,230.5,560,227.5,560.52,224.26z M614.15,285.13c-0.26,1.64-1.09,3.06-2.33,4.02
		c-1.13,0.86-2.47,1.23-3.77,1.02l-51.45-8.24c-2.85-0.46-4.75-3.46-4.23-6.69c0.45-2.82,2.6-4.91,5.04-5.08l52.5,8.4
		c0.28,0.04,0.55,0.07,0.83,0.1c0.97,0.35,1.83,1,2.46,1.92C614.07,281.87,614.41,283.49,614.15,285.13z M555.49,301.94
		c0.26-1.64,1.09-3.06,2.33-4.02c1.13-0.86,2.46-1.23,3.77-1.01l44.23,7.08c2.85,0.46,4.75,3.46,4.23,6.69
		c-0.52,3.23-3.26,5.49-6.11,5.03l-44.23-7.08C556.87,308.17,554.97,305.17,555.49,301.94z"/>
	<path d="M13.25,119.72c0.62,2.2,1.21,4.27,1.88,6.36c17.16,53.99,45.41,90.39,66.08,111.42c20.11,20.46,36.94,30.67,40.91,32.94
		c5.19,4.74,11.88,7.31,19.05,7.31c0.38,0,0.76-0.01,1.15-0.02c7.79-0.3,15.15-3.59,20.72-9.27c4.71-4.81,7.54-10.74,8.49-16.83
		c10.8,4.61,24.1,2.21,33.13-7c4.62-4.71,7.46-10.58,8.44-16.64c10.79,4.56,24.03,2.14,33.03-7.04c3.46-3.53,5.98-7.75,7.43-12.3
		c2.47,1.02,5.06,1.79,7.74,2.29c16.67,15.57,38.1,35.62,54.89,51.36c11.27,11.13,29.9,10.66,41.57-1.06
		c11.68-11.74,12.05-30.39,0.83-41.61l-51.08-52.57c-2.29-17.15-15.65-30.84-32.65-33.6l-17.32-17.82c-0.43-0.75-1.01-1.43-1.73-2
		c-0.3-0.24-0.6-0.47-0.89-0.7l-5-5.15c-5.99-27.82-14.03-45.86-24.55-55.12c-13.49-11.87-39.51-15.82-62.47-19.3
		C150.4,31.5,138.61,29.71,133,27.1c-5.85-2.71-16.39-8.99-28.45-18.48c-3.04-2.39-7.44-1.86-9.83,1.18
		c-2.15,2.73-1.93,6.55,0.34,9.04c0.26,0.28,0.53,0.55,0.84,0.79c10.88,8.55,22.84,16.28,31.21,20.17
		c7.43,3.45,19.59,5.29,33.68,7.43c20.01,3.03,44.92,6.81,55.32,15.97c4.6,4.05,10.82,13.07,16.53,33.08
		c-18.48-13.22-32.07-21.52-32.85-22c-3.3-2.01-7.61-0.96-9.62,2.34s-0.96,7.61,2.34,9.62c0.25,0.15,25.13,15.36,53.02,37.15
		l11.09,11.41c-15.89,5.05-27.44,19.95-27.44,37.49c0,10.96,4.51,20.88,11.76,28.01c-0.2,4.02-1.89,7.85-4.82,10.85
		c-6.2,6.33-16,6.83-21.84,1.1l-7.28-7.13c-2.63-2.58-6.8-2.68-9.55-0.23s-3.14,6.6-0.89,9.51c4.55,5.89,3.73,14.67-1.91,20.42
		c-6.21,6.33-16,6.83-21.84,1.1l-9.31-9.13c-2.76-2.7-7.19-2.66-9.9,0.1c-2.71,2.76-2.66,7.19,0.1,9.9c0,0,0,0,0,0v0
		c5.84,5.72,5.54,15.53-0.67,21.86c-3.06,3.12-7.05,4.92-11.25,5.08c-4.03,0.15-7.81-1.26-10.59-3.98c-0.47-0.46-1-0.85-1.58-1.16
		c-0.7-0.38-69.95-38.62-101.15-136.76c-0.6-1.88-1.16-3.86-1.75-5.94c-2.03-7.16-4.33-15.27-9.42-24.14
		c-0.26-0.45-0.56-0.86-0.9-1.23c-2.16-2.38-5.76-3.02-8.66-1.36c-3.35,1.92-4.51,6.2-2.59,9.56
		C9.39,106.1,11.35,113.03,13.25,119.72z M268.51,145.96c14.52,0,26.33,11.81,26.33,26.33s-11.81,26.33-26.33,26.33
		c-14.52,0-26.33-11.81-26.33-26.33S253.99,145.96,268.51,145.96z M347.82,251.37c-6.25,6.28-16.05,6.7-21.85,0.94
		c-0.05-0.05-0.1-0.1-0.15-0.15c-4.21-3.94-25.47-23.86-45.31-42.41c11.73-3.76,21.07-12.9,25.14-24.49l42.93,44.18
		c0.03,0.03,0.05,0.06,0.08,0.08C354.44,235.29,354.07,245.09,347.82,251.37z"/>
	<path d="M281.71,164.59l-5.42,5.03c2.46,2.77,2.3,5.84,0.73,8.49l-5.53-5.53l1.61-2.31c3.19-4.5,3.73-9.34-0.38-13.45
		c-4.46-4.46-10.53-4.07-16.14,0.84l-3.04-3.04l-2.88,2.88l3.11,3.11c-4.76,5.92-4.61,11.99,0.15,16.91l5.26-4.96
		c-2.04-2.27-2.19-5.03-0.88-7.42l5.46,5.46l-1.38,2c-4.03,5.8-4,10.37-0.04,14.33c4.73,4.73,11.07,3.46,16.41-1.35l3.46,3.46
		l2.88-2.88l-3.54-3.54C286.43,176.69,286.97,169.85,281.71,164.59z M261,162.09c2.15-1.77,4.11-1.96,5.76-0.31
		c1.54,1.54,0.84,3.3-0.62,5.46L261,162.09z M268.22,181.84c-1.58-1.58-0.85-3.46,0.88-5.88l5.23,5.23
		C272.06,183.07,269.8,183.42,268.22,181.84z"/>
	<path d="M653.27,582.24c-122.72-80.17-139.05-96.3-141.08-99.39c-1.08-2.56-2.42-7.03-3.84-11.75
		c-4.46-14.82-10.02-33.26-19.89-41.7c-11.59-9.91-35.96-11.07-55.91-10.97l-1.3,0.01c-9.37,0.03-15.13,2.71-18.67,6.01l-32.31-3.62
		c-5.17-0.58-10.26,0.98-14.32,4.41c-3.94,3.33-6.43,8.04-7.02,13.26c-0.35,3.09,0.02,6.16,1,9c-5.92,2.85-10.35,8.71-11.15,15.9
		c-0.59,5.22,0.8,10.36,3.91,14.48c1,1.32,2.15,2.47,3.4,3.47c-1.55,2.53-2.57,5.4-2.91,8.45c-0.59,5.22,0.8,10.36,3.91,14.48
		c1.01,1.34,2.18,2.51,3.45,3.52c-1.56,2.5-2.62,5.38-2.98,8.53c-0.59,5.22,0.8,10.36,3.91,14.48c3.19,4.24,7.8,6.89,12.98,7.47
		l24.31,2.73c28.67,28,51.55,24.88,63.39,22.85c6.24,2.07,28.83,19.69,38.62,27.32c4.5,3.51,8.39,6.54,10.98,8.44
		c1.25,0.91,2.69,1.35,4.12,1.35c2.16,0,4.29-1,5.66-2.87c0.8-1.1,1.23-2.35,1.32-3.62c0.17-2.33-0.82-4.69-2.84-6.16
		c-2.42-1.77-6.23-4.74-10.63-8.17c-32.61-25.43-42.18-31.37-48.72-30.23c-8.25,1.43-20.54,3.55-36.97-6.72
		c8.54-1.23,15.58-8.31,16.61-17.57c0.53-4.76-0.59-9.45-3.15-13.37c2.12-2.05,3.75-4.53,4.79-7.28c1.4,2.07,2.88,3.93,4.34,5.58
		c8.8,9.87,19.08,14.31,19.51,14.5c3.55,1.51,7.63-0.14,9.16-3.68c1.52-3.54-0.12-7.65-3.65-9.19
		c-1.27-0.55-30.95-13.88-22.14-46.64c0.52-1.95,0.18-4.03-0.94-5.71c-1.12-1.68-2.91-2.79-4.92-3.05c-3.57-0.46-7.8-1.02-7.81-1.02
		c-3.51-0.47-6.8,1.69-7.68,5.12c-0.08,0.27-1.93,6.61-8.24,8.81c-2.38,0.83-4.45,1.15-6.16,1.2c2.76-12.88,6.59-30.53,7.61-34.31
		c0.73-2.72,4.19-4.11,10.26-4.12l1.32-0.01c24.92-0.12,40.69,2.43,46.74,7.61c6.75,5.77,12.06,23.42,15.58,35.1
		c1.64,5.46,3.07,10.17,4.47,13.44c1.77,4.11,5.92,13.72,145.76,105.1c0.15,0.1,0.29,0.19,0.44,0.29c1.18,0.77,2.51,1.14,3.82,1.14
		c1.8,0,3.57-0.71,4.9-2.01c0.24-0.23,0.46-0.49,0.67-0.76c0.1-0.13,0.21-0.26,0.3-0.4C657.41,588.69,656.51,584.35,653.27,582.24z
		 M426.39,524.04c-0.37,3.25-3.01,5.64-5.86,5.32L376,524.36c-1.32-0.15-2.51-0.85-3.37-1.99c-0.94-1.25-1.36-2.85-1.17-4.5
		c0.34-3.06,2.68-5.34,5.34-5.34c0.17,0,0.34,0.01,0.52,0.03l44.52,5c1.32,0.15,2.51,0.85,3.37,1.99
		C426.15,520.8,426.57,522.39,426.39,524.04z M367.23,471.43c-1.32-0.15-2.51-0.85-3.37-1.99c-0.94-1.25-1.36-2.85-1.17-4.5
		c0.37-3.25,3-5.64,5.86-5.32l32.18,3.61c-1.34,6.24-2.37,11.08-2.49,11.67L367.23,471.43z M377.38,446.54
		c-1.32-0.15-2.51-0.85-3.37-1.99c-0.94-1.25-1.36-2.85-1.17-4.5c0.19-1.65,0.95-3.11,2.14-4.12c0.94-0.8,2.06-1.22,3.21-1.22
		c0.17,0,0.34,0.01,0.52,0.03l27.62,3.1c-0.73,3.15-1.64,7.29-2.6,11.65L377.38,446.54z M429.27,498.33
		c-0.19,1.65-0.95,3.11-2.14,4.12c-1.08,0.92-2.41,1.34-3.72,1.19l-51.78-5.81c-1.32-0.15-2.51-0.85-3.36-1.99
		c-0.94-1.25-1.36-2.85-1.18-4.5c0.19-1.65,0.95-3.11,2.14-4.12c0.81-0.69,1.77-1.08,2.74-1.18l52.75,5.92
		c0.3,0.03,0.61,0.06,0.91,0.08c0.96,0.31,1.82,0.92,2.47,1.79C429.04,495.08,429.46,496.68,429.27,498.33z"/>
	<polygon points="18.31,520.66 23.52,522.31 23.52,522.39 18.31,523.73 18.31,526.39 23.52,527.73 23.52,527.82 18.31,529.47 
		18.31,532.7 18.31,532.78 18.31,535.71 23.52,537.36 23.52,537.44 18.31,538.78 18.31,541.44 23.52,542.78 23.52,542.86 
		18.31,544.51 18.31,547.74 18.31,547.83 18.31,550.75 23.52,552.4 23.52,552.49 18.31,553.83 18.31,556.49 23.52,557.83 
		23.52,557.91 18.31,559.56 18.31,562.88 27.5,559.97 27.5,556.69 22.31,555.35 22.31,555.27 27.5,553.93 27.5,550.65 18.44,547.79 
		27.5,544.92 27.5,541.65 22.31,540.31 22.31,540.22 27.5,538.88 27.5,535.61 18.44,532.74 27.5,529.88 27.5,526.6 22.31,525.26 
		22.31,525.18 27.5,523.84 27.5,520.56 18.31,517.65 	"/>
	<rect x="23.95" y="511.68" width="3.55" height="3.55"/>
	<path d="M22,495.79l-0.14,3.36c1.44,0.21,2.78,0.99,2.78,3.01c0,1.92-1.42,3.03-3.63,3.03c-2.21,0-3.63-1.11-3.63-3.03
		c0-2.02,1.34-2.8,2.78-3.01l-0.12-3.36c-3.24,0.25-5.77,2.37-5.77,6.35c0,3.79,2.74,6.66,6.74,6.66c4,0,6.74-2.87,6.74-6.66
		C27.75,498.16,25.23,496.03,22,495.79z"/>
	<path d="M24.8,485.92h-3.13c-2.56,0-3.61,1.79-3.61,4.23c0,2.76,1.4,4.27,3.42,4.56l0.21-3.09c-0.68-0.14-1.15-0.52-1.15-1.26
		c0-0.8,0.45-1.15,1.22-1.15h0.14l0.43,2.58c0.35,2,1.11,3.28,2.89,3.28c1.57,0,2.49-1.17,2.49-2.97c0-1.46-0.56-2.52-1.63-3.05
		c1.05-0.31,1.63-1.2,1.63-2.33c0-0.95-0.27-1.61-0.6-2.08h-1.77c0.1,0.27,0.14,0.47,0.14,0.74
		C25.48,485.71,25.27,485.92,24.8,485.92z M25.56,490.9c0,0.56-0.31,0.93-0.78,0.93c-0.6,0-0.84-0.47-1.01-1.28l-0.25-1.36h0.14
		C24.86,489.19,25.56,489.96,25.56,490.9z"/>
	<path d="M27.75,477.28c0-2.7-2.12-4.08-4.84-4.08c-2.7,0-4.84,1.38-4.84,4.08c0,1.55,0.74,2.58,1.83,3.03h-1.59v3.34H30.8v-3.34
		h-4.86C27,479.86,27.75,478.83,27.75,477.28z M22.96,480.31h-0.12c-1.32,0-2.18-0.72-2.18-1.86c0-1.3,0.93-1.9,2.25-1.9
		c1.34,0,2.27,0.6,2.27,1.9C25.17,479.59,24.3,480.31,22.96,480.31z"/>
	<rect x="14.51" y="468.52" width="2.93" height="3.38"/>
	<rect x="18.31" y="468.54" width="9.19" height="3.34"/>
	<path d="M26.92,460.63h-2.16c0.23,0.56,0.31,1.01,0.31,1.42c0,0.68-0.31,1.05-1.09,1.05h-3.36v-2.39h-2.31v2.39h-2.54v2.1l1.2,0.31
		c0.85,0.23,1.34,0.52,1.48,1.44l0.1,0.68h2.06v-1.24h4.33c2.16,0,2.8-1.46,2.8-3.01C27.75,462.13,27.44,461.33,26.92,460.63z"/>
	<path d="M24.8,450.75h-3.13c-2.56,0-3.61,1.79-3.61,4.23c0,2.76,1.4,4.27,3.42,4.56l0.21-3.09c-0.68-0.14-1.15-0.52-1.15-1.26
		c0-0.8,0.45-1.15,1.22-1.15h0.14l0.43,2.58c0.35,2,1.11,3.28,2.89,3.28c1.57,0,2.49-1.17,2.49-2.97c0-1.46-0.56-2.52-1.63-3.05
		c1.05-0.31,1.63-1.2,1.63-2.33c0-0.95-0.27-1.61-0.6-2.08h-1.77c0.1,0.27,0.14,0.47,0.14,0.74
		C25.48,450.55,25.27,450.75,24.8,450.75z M25.56,455.74c0,0.56-0.31,0.93-0.78,0.93c-0.6,0-0.84-0.47-1.01-1.28l-0.25-1.36h0.14
		C24.86,454.03,25.56,454.79,25.56,455.74z"/>
	<rect x="14.51" y="445.15" width="12.99" height="3.34"/>
	<rect x="14.51" y="439.98" width="2.93" height="3.38"/>
	<rect x="18.31" y="440" width="9.19" height="3.34"/>
	<path d="M24.7,429.96c-1.79,0-2.72,1.2-3.05,3.26l-0.31,1.79c-0.04,0.31-0.21,0.56-0.51,0.56c-0.41,0-0.66-0.37-0.66-1.01
		c0-1.03,0.41-1.61,1.07-1.73l-0.08-2.74c-1.92,0.19-3.09,1.75-3.09,4.41c0,2.58,1.3,4.16,3.11,4.16c1.88,0,2.6-1.17,2.95-3.4
		l0.21-1.36c0.1-0.64,0.35-0.85,0.7-0.85c0.37,0,0.64,0.39,0.64,1.13c0,1.01-0.43,1.63-1.2,1.75l0.04,2.91
		c2.23-0.19,3.24-2.08,3.24-4.62C27.75,431.61,26.63,429.96,24.7,429.96z"/>
	<path d="M18.06,422.48c0,1.38,0.62,2.37,1.63,2.87h-1.38v3.34h9.19v-3.34h-4.51c-1.38,0-2.29-0.39-2.29-1.48
		c0-1.01,0.66-1.26,1.92-1.26h4.89v-3.34h-4.51c-1.38,0-2.29-0.37-2.29-1.48c0-1.01,0.66-1.24,1.92-1.24h4.89v-3.34h-5.77
		c-1.92,0-3.67,0.74-3.67,3.28c0,1.55,0.78,2.64,1.81,3.13C18.8,420,18.06,420.85,18.06,422.48z"/>
	<rect x="14.51" y="404.44" width="12.99" height="3.5"/>
	<path d="M24.47,400.3l0.04,2.91c2.23-0.19,3.24-2.08,3.24-4.62c0-2.62-1.11-4.27-3.05-4.27c-1.79,0-2.72,1.2-3.05,3.26l-0.31,1.79
		c-0.04,0.31-0.21,0.56-0.51,0.56c-0.41,0-0.66-0.37-0.66-1.01c0-1.03,0.41-1.61,1.07-1.73l-0.08-2.74
		c-1.92,0.19-3.09,1.75-3.09,4.41c0,2.58,1.3,4.16,3.11,4.16c1.88,0,2.6-1.18,2.95-3.4l0.21-1.36c0.1-0.64,0.35-0.85,0.7-0.85
		c0.37,0,0.64,0.39,0.64,1.13C25.66,399.56,25.23,400.18,24.47,400.3z"/>
	<path d="M14.51,385.32l12.99,5.17v-3.52L24.98,386v-5.07l2.51-0.97v-3.73l-12.99,5.17V385.32z M18.53,383.42l3.83-1.48v3.05
		l-3.83-1.48V383.42z"/>
	<polygon points="14.51,370.71 14.51,374.37 27.5,369.39 27.5,365.7 14.51,360.71 14.51,364.19 23.15,367.41 23.15,367.49 	"/>
	<rect x="18.31" y="356.46" width="9.19" height="3.34"/>
	<rect x="14.51" y="356.44" width="2.93" height="3.38"/>
	<path d="M19.93,351.31h-1.63v3.34h9.19v-3.34h-4.21c-1.55,0-2.12-0.76-2.12-2c0-0.64,0.12-1.13,0.39-1.59l-3.15-0.21
		c-0.19,0.23-0.35,0.72-0.35,1.28C18.06,350.01,18.9,350.98,19.93,351.31z"/>
	<path d="M23.21,343.25h-4.91v3.34h5.79c1.92,0,3.65-0.76,3.65-3.28c0-1.38-0.6-2.39-1.63-2.89h1.38v-3.34h-9.19v3.34h4.51
		c1.4,0,2.31,0.41,2.31,1.46C25.13,342.9,24.45,343.25,23.21,343.25z"/>
	<path d="M21.17,335.75c1.88,0,2.6-1.18,2.95-3.4l0.21-1.36c0.1-0.64,0.35-0.85,0.7-0.85c0.37,0,0.64,0.39,0.64,1.13
		c0,1.01-0.43,1.63-1.2,1.75l0.04,2.91c2.23-0.19,3.24-2.08,3.24-4.62c0-2.62-1.11-4.27-3.05-4.27c-1.79,0-2.72,1.2-3.05,3.26
		l-0.31,1.79c-0.04,0.31-0.21,0.56-0.51,0.56c-0.41,0-0.66-0.37-0.66-1.01c0-1.03,0.41-1.61,1.07-1.73l-0.08-2.74
		c-1.92,0.19-3.09,1.75-3.09,4.41C18.06,334.16,19.36,335.75,21.17,335.75z"/>
	<rect x="23.95" y="320.66" width="3.55" height="3.55"/>
	<path d="M22.9,317.78c2.87,0,4.84-2.02,4.84-5.03c0-2.99-1.98-5.03-4.84-5.03c-2.85,0-4.84,2.04-4.84,5.03
		C18.06,315.76,20.06,317.78,22.9,317.78z M22.9,311.08c1.38,0,2.33,0.52,2.33,1.67c0,1.17-0.95,1.67-2.33,1.67
		c-1.38,0-2.33-0.49-2.33-1.67C20.57,311.59,21.52,311.08,22.9,311.08z"/>
	<path d="M18.41,299.27c-0.19,0.23-0.35,0.72-0.35,1.28c0,1.22,0.84,2.19,1.88,2.52h-1.63v3.34h9.19v-3.34h-4.21
		c-1.55,0-2.12-0.76-2.12-2c0-0.64,0.12-1.13,0.39-1.59L18.41,299.27z"/>
	<path d="M27.71,288.59c-1.55,0-2.64,1.05-2.64,3.13v3.81c0,0.56-0.25,0.78-0.56,0.78c-0.19,0-0.33-0.06-0.43-0.19
		c0.19-0.6,0.27-1.26,0.27-2c0-2.6-1.2-4.47-3.13-4.47c-0.43,0-0.83,0.1-1.17,0.29c-0.1-0.45-0.14-0.95-0.14-1.34h-2.52
		c0,1.01,0.66,2.02,1.42,2.58c-0.47,0.78-0.74,1.83-0.74,2.95c0,2.58,1.2,4.43,3.15,4.43c1.01,0,1.79-0.49,2.33-1.32
		c0.37,0.99,1.05,1.57,1.94,1.57c0.78,0,1.53-0.49,1.79-1.32c0.08,1.03,0.72,1.75,1.53,1.75c1.73,0,2.25-2.27,2.25-4.89
		C31.05,291.38,29.99,288.59,27.71,288.59z M21.21,295.07c-0.8,0-1.32-0.41-1.32-0.97c0-0.56,0.52-0.97,1.32-0.97
		c0.82,0,1.34,0.41,1.34,0.97C22.55,294.65,22.04,295.07,21.21,295.07z M28.47,296.51c-0.35,0-0.56-0.25-0.56-0.62v-3.38
		c0-0.56,0.14-0.85,0.54-0.85c0.56,0,0.87,1.13,0.87,2.68C29.31,295.58,29.13,296.51,28.47,296.51z"/>
	<path d="M765.99,46.03v1.81l-3.42-0.8v2.49l3.42,0.8v1.77l-3.42-0.8v2.49l3.42,0.8v2.04l2.06,0.43V55.1l2.02,0.5v1.88l2.06,0.43
		v-1.83l3.42,0.82V54.4l-3.42-0.82v-1.77l3.42,0.82v-2.49l-3.42-0.83v-2.02l-2.06-0.43v1.98l-2.02-0.5v-1.88L765.99,46.03z
		 M770.07,51.33v1.77l-2.02-0.49v-1.77L770.07,51.33z"/>
	<path d="M769.06,60.53c-4,0-6.74,2.87-6.74,6.66c0,3.98,2.51,6.1,5.75,6.35l0.14-3.36c-1.44-0.21-2.78-0.99-2.78-3.01
		c0-1.92,1.42-3.03,3.63-3.03c2.21,0,3.63,1.11,3.63,3.03c0,2.02-1.34,2.8-2.78,3.01l0.12,3.36c3.24-0.25,5.77-2.37,5.77-6.35
		C775.8,63.4,773.06,60.53,769.06,60.53z"/>
	<path d="M762.36,82.63c0,0.95,0.27,1.61,0.6,2.08h1.77c-0.1-0.27-0.14-0.47-0.14-0.74c0-0.35,0.21-0.56,0.68-0.56h3.13
		c2.56,0,3.61-1.79,3.61-4.23c0-2.76-1.4-4.27-3.42-4.56l-0.21,3.09c0.68,0.14,1.15,0.52,1.15,1.26c0,0.8-0.45,1.15-1.22,1.15h-0.14
		l-0.43-2.58c-0.35-2-1.11-3.28-2.89-3.28c-1.57,0-2.49,1.17-2.49,2.97c0,1.46,0.56,2.52,1.63,3.05
		C762.94,80.61,762.36,81.49,762.36,82.63z M765.29,77.49c0.6,0,0.85,0.47,1.01,1.28l0.25,1.36h-0.14c-1.2,0-1.9-0.76-1.9-1.71
		C764.5,77.86,764.81,77.49,765.29,77.49z"/>
	<path d="M759.27,89.01h4.87c-1.07,0.45-1.81,1.48-1.81,3.03c0,2.7,2.12,4.08,4.84,4.08c2.7,0,4.84-1.38,4.84-4.08
		c0-1.55-0.74-2.58-1.83-3.03h1.59v-3.34h-12.49V89.01z M767.1,89.01h0.12c1.32,0,2.18,0.72,2.18,1.85c0,1.3-0.93,1.9-2.25,1.9
		c-1.34,0-2.27-0.6-2.27-1.9C764.9,89.74,765.76,89.01,767.1,89.01z"/>
	<rect x="772.63" y="97.42" width="2.93" height="3.38"/>
	<rect x="762.57" y="97.44" width="9.19" height="3.34"/>
	<path d="M774.3,104.12l-1.2-0.31c-0.84-0.23-1.34-0.52-1.48-1.44l-0.1-0.68h-2.06v1.24h-4.33c-2.17,0-2.8,1.46-2.8,3.01
		c0,1.26,0.31,2.06,0.82,2.76h2.17c-0.23-0.56-0.31-1.01-0.31-1.42c0-0.68,0.31-1.05,1.09-1.05h3.36v2.39h2.31v-2.39h2.54V104.12z"
		/>
	<path d="M765.27,118.57h3.13c2.56,0,3.61-1.79,3.61-4.23c0-2.76-1.4-4.27-3.42-4.56l-0.21,3.09c0.68,0.14,1.15,0.52,1.15,1.26
		c0,0.8-0.45,1.15-1.22,1.15h-0.14l-0.43-2.58c-0.35-2-1.11-3.28-2.89-3.28c-1.57,0-2.49,1.18-2.49,2.97c0,1.46,0.56,2.52,1.63,3.05
		c-1.05,0.31-1.63,1.2-1.63,2.33c0,0.95,0.27,1.61,0.6,2.08h1.77c-0.1-0.27-0.14-0.47-0.14-0.74
		C764.59,118.78,764.79,118.57,765.27,118.57z M764.5,113.58c0-0.56,0.31-0.93,0.78-0.93c0.6,0,0.85,0.47,1.01,1.28l0.25,1.36h-0.14
		C765.21,115.29,764.5,114.53,764.5,113.58z"/>
	<rect x="762.57" y="120.84" width="12.99" height="3.34"/>
	<rect x="762.57" y="125.99" width="9.19" height="3.34"/>
	<rect x="772.63" y="125.97" width="2.93" height="3.38"/>
	<path d="M768.89,130.67c-1.88,0-2.6,1.18-2.95,3.4l-0.21,1.36c-0.1,0.64-0.35,0.84-0.7,0.84c-0.37,0-0.64-0.39-0.64-1.13
		c0-1.01,0.43-1.63,1.2-1.75l-0.04-2.91c-2.23,0.19-3.24,2.08-3.24,4.62c0,2.62,1.11,4.27,3.05,4.27c1.79,0,2.72-1.2,3.05-3.26
		l0.31-1.79c0.04-0.31,0.21-0.56,0.52-0.56c0.41,0,0.66,0.37,0.66,1.01c0,1.03-0.41,1.61-1.07,1.73l0.08,2.74
		c1.92-0.19,3.09-1.75,3.09-4.41C772.01,132.25,770.71,130.67,768.89,130.67z"/>
	<path d="M772.01,146.85c0-1.38-0.62-2.37-1.63-2.87h1.38v-3.34h-9.19v3.34h4.51c1.38,0,2.29,0.39,2.29,1.48
		c0,1.01-0.66,1.26-1.92,1.26h-4.89v3.34h4.51c1.38,0,2.29,0.37,2.29,1.48c0,1.01-0.66,1.24-1.92,1.24h-4.89v3.34h5.77
		c1.92,0,3.67-0.74,3.67-3.28c0-1.55-0.78-2.64-1.81-3.13C771.27,149.32,772.01,148.48,772.01,146.85z"/>
	<rect x="762.57" y="159.71" width="12.99" height="3.5"/>
	<path d="M765.6,167.36l-0.04-2.91c-2.23,0.19-3.24,2.08-3.24,4.62c0,2.62,1.11,4.27,3.05,4.27c1.79,0,2.72-1.2,3.05-3.26l0.31-1.79
		c0.04-0.31,0.21-0.56,0.52-0.56c0.41,0,0.66,0.37,0.66,1.01c0,1.03-0.41,1.61-1.07,1.73l0.08,2.74c1.92-0.19,3.09-1.75,3.09-4.41
		c0-2.58-1.3-4.16-3.11-4.16c-1.88,0-2.6,1.18-2.95,3.4l-0.21,1.36c-0.1,0.64-0.35,0.84-0.7,0.84c-0.37,0-0.64-0.39-0.64-1.13
		C764.4,168.1,764.83,167.48,765.6,167.36z"/>
	<path d="M775.55,180.68l-12.99-5.17v3.52l2.51,0.97v5.07l-2.51,0.97v3.73l12.99-5.17V180.68z M771.53,182.58l-3.83,1.48v-3.05
		l3.83,1.48V182.58z"/>
	<polygon points="775.55,195.24 775.55,191.57 762.57,196.56 762.57,200.25 775.55,205.24 775.55,201.75 766.92,198.54 
		766.92,198.46 	"/>
	<rect x="772.63" y="206.12" width="2.93" height="3.38"/>
	<rect x="762.57" y="206.14" width="9.19" height="3.34"/>
	<path d="M770.13,214.63h1.63v-3.34h-9.19v3.34h4.21c1.55,0,2.12,0.76,2.12,2c0,0.64-0.12,1.13-0.39,1.59l3.15,0.21
		c0.19-0.23,0.35-0.72,0.35-1.28C772.01,215.93,771.16,214.96,770.13,214.63z"/>
	<path d="M766.85,222.69h4.91v-3.34h-5.79c-1.92,0-3.65,0.76-3.65,3.28c0,1.38,0.6,2.39,1.63,2.89h-1.38v3.34h9.19v-3.34h-4.51
		c-1.4,0-2.31-0.41-2.31-1.46C764.94,223.04,765.62,222.69,766.85,222.69z"/>
	<path d="M768.83,236.03l0.08,2.74c1.92-0.19,3.09-1.75,3.09-4.41c0-2.58-1.3-4.16-3.11-4.16c-1.88,0-2.6,1.17-2.95,3.4l-0.21,1.36
		c-0.1,0.64-0.35,0.85-0.7,0.85c-0.37,0-0.64-0.39-0.64-1.13c0-1.01,0.43-1.63,1.2-1.75l-0.04-2.91c-2.23,0.19-3.24,2.08-3.24,4.62
		c0,2.62,1.11,4.27,3.05,4.27c1.79,0,2.72-1.2,3.05-3.26l0.31-1.79c0.04-0.31,0.21-0.56,0.52-0.56c0.41,0,0.66,0.37,0.66,1.01
		C769.91,235.33,769.49,235.9,768.83,236.03z"/>
</g>
<g id="exp_white_bg" class="st0">
	<rect y="-612" class="st1" width="792" height="1225.88"/>
	<g class="st2">
	</g>
	<path class="st2" d="M779.93,518.44c2.4-3.03,1.89-7.43-1.14-9.83c-49.64-39.33-102.69-77.43-145.31-108.04
		c-28.35-20.36-52.83-37.94-70.89-51.91c-24.81-19.19-28.99-25.19-29.63-26.88c-0.98-2.57-2.16-7.19-3.41-12.09
		c-3.83-15-8.61-33.66-18.11-42.51c-11.16-10.39-35.47-12.58-55.39-13.32l-1.3-0.05c-9.36-0.36-15.23,2.07-18.91,5.22l-32.13-4.99
		c-10.48-1.63-20.38,5.89-22.06,16.75c-0.49,3.13-0.22,6.19,0.63,9.01c-1.49,0.64-2.92,1.46-4.25,2.49
		c-4.08,3.16-6.77,7.76-7.57,12.95s0.36,10.39,3.29,14.64c0.94,1.37,2.05,2.57,3.26,3.62c-1.63,2.41-2.79,5.22-3.27,8.31
		c-0.81,5.19,0.36,10.39,3.29,14.64c0.95,1.38,2.07,2.6,3.3,3.66c-1.66,2.43-2.85,5.27-3.33,8.4c-0.81,5.19,0.36,10.39,3.29,14.64
		c3.01,4.37,7.51,7.22,12.66,8.01l24.17,3.75c28.18,29.95,51.65,26.9,63.28,25.39c1.87-0.24,8.23,0.98,27.05,17.43
		c14.66,12.82,33.89,32.15,56.16,54.54c33.74,33.92,75.72,76.13,126.55,121.07c1.33,1.18,2.99,1.76,4.63,1.76
		c1.94,0,3.86-0.8,5.25-2.36c2.05-2.32,2.28-5.63,0.8-8.17c-0.37-0.62-0.83-1.21-1.4-1.71c-50.5-44.65-92.31-86.68-125.9-120.45
		c-51.8-52.08-77.79-78.22-94.95-75.98c-8.3,1.08-20.66,2.68-36.64-8.26c8.57-0.88,15.9-7.67,17.32-16.87
		c0.74-4.74-0.19-9.47-2.58-13.49c2.15-1.91,3.91-4.31,5.1-7.06c1.31,2.12,2.7,4.05,4.1,5.75c8.37,10.23,18.46,15.11,18.88,15.31
		c3.49,1.66,7.67,0.18,9.33-3.31c1.66-3.49,0.18-7.67-3.31-9.33c-0.08-0.04-7.76-3.83-14.07-11.53
		c-8.33-10.18-10.37-22.29-6.06-35.99c0.61-1.93,0.35-4.02-0.7-5.74c-1.05-1.72-2.79-2.91-4.78-3.26c-3.55-0.61-7.75-1.35-7.76-1.35
		c-3.49-0.61-6.86,1.4-7.89,4.79c-0.09,0.27-2.21,6.52-8.61,8.46c-2.41,0.73-4.51,0.95-6.21,0.94c3.3-12.76,7.87-30.23,9.05-33.96
		c0.85-2.68,4.35-3.93,10.43-3.69l1.33,0.05c24.95,0.93,40.55,4.15,46.38,9.57c6.5,6.05,11.06,23.91,14.09,35.73
		c1.41,5.52,2.63,10.29,3.9,13.61c4.76,12.46,37.58,36.44,105.44,85.17c42.5,30.52,95.4,68.51,144.79,107.64
		c1.29,1.02,2.82,1.51,4.34,1.51c1.61,0,3.21-0.56,4.49-1.63C779.29,519.16,779.63,518.83,779.93,518.44z M445.42,359.14
		c-0.5,3.23-3.23,5.5-6.08,5.06l-44.27-6.87c-1.31-0.2-2.47-0.96-3.28-2.13c-0.89-1.29-1.24-2.9-0.98-4.54
		c0.5-3.23,3.23-5.5,6.08-5.06l44.27,6.87c1.31,0.2,2.47,0.96,3.28,2.13C445.32,355.88,445.67,357.5,445.42,359.14z M388.53,304.08
		c-1.31-0.2-2.47-0.96-3.28-2.13c-0.89-1.29-1.24-2.9-0.98-4.54c0.25-1.64,1.08-3.07,2.31-4.03c1.12-0.87,2.46-1.24,3.77-1.03
		l32,4.97c-1.6,6.18-2.84,10.98-2.99,11.55L388.53,304.08z M395.46,272.96c0.46-2.96,2.79-5.12,5.37-5.12
		c0.24,0,0.47,0.02,0.71,0.05l27.46,4.26c-0.86,3.12-1.95,7.21-3.09,11.53l-26.19-4.06C396.87,279.19,394.96,276.2,395.46,272.96z
		 M449.38,333.57c-0.5,3.23-3.24,5.5-6.08,5.06l-51.49-7.99c-1.31-0.2-2.47-0.96-3.28-2.13c-0.89-1.29-1.24-2.9-0.98-4.54
		c0.44-2.83,2.59-4.92,5.02-5.1l52.53,8.15c0.28,0.04,0.56,0.07,0.84,0.1c0.97,0.34,1.83,0.99,2.46,1.91
		C449.29,330.32,449.64,331.93,449.38,333.57z"/>
	<path class="st2" d="M736.19,411.64c-52.46-52.5-76.37-75.62-93.11-73.53c-8.3,1.04-20.67,2.58-36.59-8.44
		c8.58-0.84,15.93-7.6,17.4-16.79c0.78-4.87-0.23-9.6-2.52-13.5c2.22-1.95,3.96-4.35,5.13-7.05c1.3,2.13,2.69,4.06,4.08,5.78
		c8.32,10.27,18.39,15.19,18.81,15.4c3.47,1.67,7.63,0.22,9.32-3.25c1.69-3.47,0.24-7.65-3.22-9.35
		c-1.24-0.61-30.26-15.31-19.93-47.63c0.62-1.92,0.37-4.02-0.67-5.75s-2.78-2.92-4.77-3.28c-3.54-0.63-7.75-1.39-7.75-1.39
		c-3.49-0.63-6.89,1.45-7.93,4.83c-0.02,0.06-2.13,6.41-8.62,8.34c-2.41,0.72-4.51,0.93-6.21,0.91c3.36-12.74,8.01-30.19,9.21-33.92
		c0.86-2.68,4.38-3.9,10.45-3.64l1.33,0.06c24.94,1.05,40.53,4.34,46.33,9.8c6.47,6.08,10.95,23.96,13.92,35.79
		c1.39,5.53,2.58,10.31,3.83,13.63c3.44,9.14,24.79,25.31,72.7,60.01c4.33,3.14,8.67,6.28,12.96,9.4c1.24,0.9,2.68,1.34,4.11,1.34
		c0.24,0,0.49-0.02,0.73-0.04c1.91-0.2,3.72-1.17,4.94-2.84c2.27-3.13,1.58-7.5-1.54-9.78c-4.29-3.12-8.64-6.27-12.98-9.42
		c-27.23-19.72-64.51-46.73-67.81-53.6c-0.97-2.57-2.13-7.2-3.36-12.1c-3.76-15.01-8.45-33.7-17.91-42.59
		c-11.11-10.44-35.41-12.74-55.33-13.58l-1.3-0.06c-9.37-0.41-15.25,2-18.94,5.13l-32.1-5.14c-10.47-1.67-20.41,5.79-22.14,16.65
		c-0.5,3.12-0.25,6.19,0.59,9.01c-1.49,0.63-2.93,1.44-4.26,2.47c-4.09,3.14-6.8,7.73-7.63,12.91c-1.14,7.12,1.54,13.94,6.47,18.28
		c-1.65,2.41-2.83,5.21-3.32,8.3c-1.14,7.14,1.55,13.97,6.5,18.3c-1.71,2.48-2.88,5.33-3.37,8.4c-1.74,10.85,5.37,21.05,15.84,22.73
		l24.15,3.87c28.04,30.09,51.52,27.14,63.16,25.69c1.93-0.24,8.45,0.95,27.23,17.21c14.46,12.52,32.89,30.97,54.24,52.32
		c12.96,12.97,27.65,27.67,43.28,42.86c1.36,1.32,3.12,1.98,4.88,1.98c1.83,0,3.65-0.71,5.02-2.12c2.69-2.77,2.63-7.2-0.14-9.9
		c-1.35-1.31-2.67-2.61-4.01-3.91C761.26,436.72,748,423.46,736.19,411.64z M549.21,248.65c0.26-1.64,1.09-3.06,2.33-4.02
		c1.13-0.86,2.46-1.23,3.77-1.01l31.98,5.12c-1.63,6.17-2.89,10.96-3.04,11.54l-30.81-4.93
		C550.59,254.89,548.69,251.89,549.21,248.65z M560.52,224.26c0.52-3.23,3.26-5.5,6.11-5.03l27.44,4.39
		c-0.87,3.11-1.98,7.2-3.15,11.52l-26.17-4.19C561.9,230.5,560,227.5,560.52,224.26z M614.15,285.13c-0.26,1.64-1.09,3.06-2.33,4.02
		c-1.13,0.86-2.47,1.23-3.77,1.02l-51.45-8.24c-2.85-0.46-4.75-3.46-4.23-6.69c0.45-2.82,2.6-4.91,5.04-5.08l52.5,8.4
		c0.28,0.04,0.55,0.07,0.83,0.1c0.97,0.35,1.83,1,2.46,1.92C614.07,281.87,614.41,283.49,614.15,285.13z M555.49,301.94
		c0.26-1.64,1.09-3.06,2.33-4.02c1.13-0.86,2.46-1.23,3.77-1.01l44.23,7.08c2.85,0.46,4.75,3.46,4.23,6.69
		c-0.52,3.23-3.26,5.49-6.11,5.03l-44.23-7.08C556.87,308.17,554.97,305.17,555.49,301.94z"/>
	<path class="st2" d="M13.25,119.72c0.62,2.2,1.21,4.27,1.88,6.36c17.16,53.99,45.41,90.39,66.08,111.42
		c20.11,20.46,36.94,30.67,40.91,32.94c5.19,4.74,11.88,7.31,19.05,7.31c0.38,0,0.76-0.01,1.15-0.02c7.79-0.3,15.15-3.59,20.72-9.27
		c4.71-4.81,7.54-10.74,8.49-16.83c10.8,4.61,24.1,2.21,33.13-7c4.62-4.71,7.46-10.58,8.44-16.64c10.79,4.56,24.03,2.14,33.03-7.04
		c3.46-3.53,5.98-7.75,7.43-12.3c2.47,1.02,5.06,1.79,7.74,2.29c16.67,15.57,38.1,35.62,54.89,51.36
		c11.27,11.13,29.9,10.66,41.57-1.06c11.68-11.74,12.05-30.39,0.83-41.61l-51.08-52.57c-2.29-17.15-15.65-30.84-32.65-33.6
		l-17.32-17.82c-0.43-0.75-1.01-1.43-1.73-2c-0.3-0.24-0.6-0.47-0.89-0.7l-5-5.15c-5.99-27.82-14.03-45.86-24.55-55.12
		c-13.49-11.87-39.51-15.82-62.47-19.3C150.4,31.5,138.61,29.71,133,27.1c-5.85-2.71-16.39-8.99-28.45-18.48
		c-3.04-2.39-7.44-1.86-9.83,1.18c-2.15,2.73-1.93,6.55,0.34,9.04c0.26,0.28,0.53,0.55,0.84,0.79
		c10.88,8.55,22.84,16.28,31.21,20.17c7.43,3.45,19.59,5.29,33.68,7.43c20.01,3.03,44.92,6.81,55.32,15.97
		c4.6,4.05,10.82,13.07,16.53,33.08c-18.48-13.22-32.07-21.52-32.85-22c-3.3-2.01-7.61-0.96-9.62,2.34s-0.96,7.61,2.34,9.62
		c0.25,0.15,25.13,15.36,53.02,37.15l11.09,11.41c-15.89,5.05-27.44,19.95-27.44,37.49c0,10.96,4.51,20.88,11.76,28.01
		c-0.2,4.02-1.89,7.85-4.82,10.85c-6.2,6.33-16,6.83-21.84,1.1l-7.28-7.13c-2.63-2.58-6.8-2.68-9.55-0.23s-3.14,6.6-0.89,9.51
		c4.55,5.89,3.73,14.67-1.91,20.42c-6.21,6.33-16,6.83-21.84,1.1l-9.31-9.13c-2.76-2.7-7.19-2.66-9.9,0.1
		c-2.71,2.76-2.66,7.19,0.1,9.9c0,0,0,0,0,0v0c5.84,5.72,5.54,15.53-0.67,21.86c-3.06,3.12-7.05,4.92-11.25,5.08
		c-4.03,0.15-7.81-1.26-10.59-3.98c-0.47-0.46-1-0.85-1.58-1.16c-0.7-0.38-69.95-38.62-101.15-136.76c-0.6-1.88-1.16-3.86-1.75-5.94
		c-2.03-7.16-4.33-15.27-9.42-24.14c-0.26-0.45-0.56-0.86-0.9-1.23c-2.16-2.38-5.76-3.02-8.66-1.36c-3.35,1.92-4.51,6.2-2.59,9.56
		C9.39,106.1,11.35,113.03,13.25,119.72z M268.51,145.96c14.52,0,26.33,11.81,26.33,26.33s-11.81,26.33-26.33,26.33
		c-14.52,0-26.33-11.81-26.33-26.33S253.99,145.96,268.51,145.96z M347.82,251.37c-6.25,6.28-16.05,6.7-21.85,0.94
		c-0.05-0.05-0.1-0.1-0.15-0.15c-4.21-3.94-25.47-23.86-45.31-42.41c11.73-3.76,21.07-12.9,25.14-24.49l42.93,44.18
		c0.03,0.03,0.05,0.06,0.08,0.08C354.44,235.29,354.07,245.09,347.82,251.37z"/>
	<path class="st2" d="M281.71,164.59l-5.42,5.03c2.46,2.77,2.3,5.84,0.73,8.49l-5.53-5.53l1.61-2.31c3.19-4.5,3.73-9.34-0.38-13.45
		c-4.46-4.46-10.53-4.07-16.14,0.84l-3.04-3.04l-2.88,2.88l3.11,3.11c-4.76,5.92-4.61,11.99,0.15,16.91l5.26-4.96
		c-2.04-2.27-2.19-5.03-0.88-7.42l5.46,5.46l-1.38,2c-4.03,5.8-4,10.37-0.04,14.33c4.73,4.73,11.07,3.46,16.41-1.35l3.46,3.46
		l2.88-2.88l-3.54-3.54C286.43,176.69,286.97,169.85,281.71,164.59z M261,162.09c2.15-1.77,4.11-1.96,5.76-0.31
		c1.54,1.54,0.84,3.3-0.62,5.46L261,162.09z M268.22,181.84c-1.58-1.58-0.85-3.46,0.88-5.88l5.23,5.23
		C272.06,183.07,269.8,183.42,268.22,181.84z"/>
	<path class="st2" d="M653.27,582.24c-122.72-80.17-139.05-96.3-141.08-99.39c-1.08-2.56-2.42-7.03-3.84-11.75
		c-4.46-14.82-10.02-33.26-19.89-41.7c-11.59-9.91-35.96-11.07-55.91-10.97l-1.3,0.01c-9.37,0.03-15.13,2.71-18.67,6.01l-32.31-3.62
		c-5.17-0.58-10.26,0.98-14.32,4.41c-3.94,3.33-6.43,8.04-7.02,13.26c-0.35,3.09,0.02,6.16,1,9c-5.92,2.85-10.35,8.71-11.15,15.9
		c-0.59,5.22,0.8,10.36,3.91,14.48c1,1.32,2.15,2.47,3.4,3.47c-1.55,2.53-2.57,5.4-2.91,8.45c-0.59,5.22,0.8,10.36,3.91,14.48
		c1.01,1.34,2.18,2.51,3.45,3.52c-1.56,2.5-2.62,5.38-2.98,8.53c-0.59,5.22,0.8,10.36,3.91,14.48c3.19,4.24,7.8,6.89,12.98,7.47
		l24.31,2.73c28.67,28,51.55,24.88,63.39,22.85c6.24,2.07,28.83,19.69,38.62,27.32c4.5,3.51,8.39,6.54,10.98,8.44
		c1.25,0.91,2.69,1.35,4.12,1.35c2.16,0,4.29-1,5.66-2.87c0.8-1.1,1.23-2.35,1.32-3.62c0.17-2.33-0.82-4.69-2.84-6.16
		c-2.42-1.77-6.23-4.74-10.63-8.17c-32.61-25.43-42.18-31.37-48.72-30.23c-8.25,1.43-20.54,3.55-36.97-6.72
		c8.54-1.23,15.58-8.31,16.61-17.57c0.53-4.76-0.59-9.45-3.15-13.37c2.12-2.05,3.75-4.53,4.79-7.28c1.4,2.07,2.88,3.93,4.34,5.58
		c8.8,9.87,19.08,14.31,19.51,14.5c3.55,1.51,7.63-0.14,9.16-3.68c1.52-3.54-0.12-7.65-3.65-9.19
		c-1.27-0.55-30.95-13.88-22.14-46.64c0.52-1.95,0.18-4.03-0.94-5.71c-1.12-1.68-2.91-2.79-4.92-3.05c-3.57-0.46-7.8-1.02-7.81-1.02
		c-3.51-0.47-6.8,1.69-7.68,5.12c-0.08,0.27-1.93,6.61-8.24,8.81c-2.38,0.83-4.45,1.15-6.16,1.2c2.76-12.88,6.59-30.53,7.61-34.31
		c0.73-2.72,4.19-4.11,10.26-4.12l1.32-0.01c24.92-0.12,40.69,2.43,46.74,7.61c6.75,5.77,12.06,23.42,15.58,35.1
		c1.64,5.46,3.07,10.17,4.47,13.44c1.77,4.11,5.92,13.72,145.76,105.1c0.15,0.1,0.29,0.19,0.44,0.29c1.18,0.77,2.51,1.14,3.82,1.14
		c1.8,0,3.57-0.71,4.9-2.01c0.24-0.23,0.46-0.49,0.67-0.76c0.1-0.13,0.21-0.26,0.3-0.4C657.41,588.69,656.51,584.35,653.27,582.24z
		 M426.39,524.04c-0.37,3.25-3.01,5.64-5.86,5.32L376,524.36c-1.32-0.15-2.51-0.85-3.37-1.99c-0.94-1.25-1.36-2.85-1.17-4.5
		c0.34-3.06,2.68-5.34,5.34-5.34c0.17,0,0.34,0.01,0.52,0.03l44.52,5c1.32,0.15,2.51,0.85,3.37,1.99
		C426.15,520.8,426.57,522.39,426.39,524.04z M367.23,471.43c-1.32-0.15-2.51-0.85-3.37-1.99c-0.94-1.25-1.36-2.85-1.17-4.5
		c0.37-3.25,3-5.64,5.86-5.32l32.18,3.61c-1.34,6.24-2.37,11.08-2.49,11.67L367.23,471.43z M377.38,446.54
		c-1.32-0.15-2.51-0.85-3.37-1.99c-0.94-1.25-1.36-2.85-1.17-4.5c0.19-1.65,0.95-3.11,2.14-4.12c0.94-0.8,2.06-1.22,3.21-1.22
		c0.17,0,0.34,0.01,0.52,0.03l27.62,3.1c-0.73,3.15-1.64,7.29-2.6,11.65L377.38,446.54z M429.27,498.33
		c-0.19,1.65-0.95,3.11-2.14,4.12c-1.08,0.92-2.41,1.34-3.72,1.19l-51.78-5.81c-1.32-0.15-2.51-0.85-3.36-1.99
		c-0.94-1.25-1.36-2.85-1.18-4.5c0.19-1.65,0.95-3.11,2.14-4.12c0.81-0.69,1.77-1.08,2.74-1.18l52.75,5.92
		c0.3,0.03,0.61,0.06,0.91,0.08c0.96,0.31,1.82,0.92,2.47,1.79C429.04,495.08,429.46,496.68,429.27,498.33z"/>
	<polygon class="st2" points="18.31,520.66 23.52,522.31 23.52,522.39 18.31,523.73 18.31,526.39 23.52,527.73 23.52,527.82 
		18.31,529.47 18.31,532.7 18.31,532.78 18.31,535.71 23.52,537.36 23.52,537.44 18.31,538.78 18.31,541.44 23.52,542.78 
		23.52,542.86 18.31,544.51 18.31,547.74 18.31,547.83 18.31,550.75 23.52,552.4 23.52,552.49 18.31,553.83 18.31,556.49 
		23.52,557.83 23.52,557.91 18.31,559.56 18.31,562.88 27.5,559.97 27.5,556.69 22.31,555.35 22.31,555.27 27.5,553.93 27.5,550.65 
		18.44,547.79 27.5,544.92 27.5,541.65 22.31,540.31 22.31,540.22 27.5,538.88 27.5,535.61 18.44,532.74 27.5,529.88 27.5,526.6 
		22.31,525.26 22.31,525.18 27.5,523.84 27.5,520.56 18.31,517.65 	"/>
	<rect x="23.95" y="511.68" class="st2" width="3.55" height="3.55"/>
	<path class="st2" d="M22,495.79l-0.14,3.36c1.44,0.21,2.78,0.99,2.78,3.01c0,1.92-1.42,3.03-3.63,3.03c-2.21,0-3.63-1.11-3.63-3.03
		c0-2.02,1.34-2.8,2.78-3.01l-0.12-3.36c-3.24,0.25-5.77,2.37-5.77,6.35c0,3.79,2.74,6.66,6.74,6.66c4,0,6.74-2.87,6.74-6.66
		C27.75,498.16,25.23,496.03,22,495.79z"/>
	<path class="st2" d="M24.8,485.92h-3.13c-2.56,0-3.61,1.79-3.61,4.23c0,2.76,1.4,4.27,3.42,4.56l0.21-3.09
		c-0.68-0.14-1.15-0.52-1.15-1.26c0-0.8,0.45-1.15,1.22-1.15h0.14l0.43,2.58c0.35,2,1.11,3.28,2.89,3.28c1.57,0,2.49-1.17,2.49-2.97
		c0-1.46-0.56-2.52-1.63-3.05c1.05-0.31,1.63-1.2,1.63-2.33c0-0.95-0.27-1.61-0.6-2.08h-1.77c0.1,0.27,0.14,0.47,0.14,0.74
		C25.48,485.71,25.27,485.92,24.8,485.92z M25.56,490.9c0,0.56-0.31,0.93-0.78,0.93c-0.6,0-0.84-0.47-1.01-1.28l-0.25-1.36h0.14
		C24.86,489.19,25.56,489.96,25.56,490.9z"/>
	<path class="st2" d="M27.75,477.28c0-2.7-2.12-4.08-4.84-4.08c-2.7,0-4.84,1.38-4.84,4.08c0,1.55,0.74,2.58,1.83,3.03h-1.59v3.34
		H30.8v-3.34h-4.86C27,479.86,27.75,478.83,27.75,477.28z M22.96,480.31h-0.12c-1.32,0-2.18-0.72-2.18-1.86c0-1.3,0.93-1.9,2.25-1.9
		c1.34,0,2.27,0.6,2.27,1.9C25.17,479.59,24.3,480.31,22.96,480.31z"/>
	<rect x="14.51" y="468.52" class="st2" width="2.93" height="3.38"/>
	<rect x="18.31" y="468.54" class="st2" width="9.19" height="3.34"/>
	<path class="st2" d="M26.92,460.63h-2.16c0.23,0.56,0.31,1.01,0.31,1.42c0,0.68-0.31,1.05-1.09,1.05h-3.36v-2.39h-2.31v2.39h-2.54
		v2.1l1.2,0.31c0.85,0.23,1.34,0.52,1.48,1.44l0.1,0.68h2.06v-1.24h4.33c2.16,0,2.8-1.46,2.8-3.01
		C27.75,462.13,27.44,461.33,26.92,460.63z"/>
	<path class="st2" d="M24.8,450.75h-3.13c-2.56,0-3.61,1.79-3.61,4.23c0,2.76,1.4,4.27,3.42,4.56l0.21-3.09
		c-0.68-0.14-1.15-0.52-1.15-1.26c0-0.8,0.45-1.15,1.22-1.15h0.14l0.43,2.58c0.35,2,1.11,3.28,2.89,3.28c1.57,0,2.49-1.17,2.49-2.97
		c0-1.46-0.56-2.52-1.63-3.05c1.05-0.31,1.63-1.2,1.63-2.33c0-0.95-0.27-1.61-0.6-2.08h-1.77c0.1,0.27,0.14,0.47,0.14,0.74
		C25.48,450.55,25.27,450.75,24.8,450.75z M25.56,455.74c0,0.56-0.31,0.93-0.78,0.93c-0.6,0-0.84-0.47-1.01-1.28l-0.25-1.36h0.14
		C24.86,454.03,25.56,454.79,25.56,455.74z"/>
	<rect x="14.51" y="445.15" class="st2" width="12.99" height="3.34"/>
	<rect x="14.51" y="439.98" class="st2" width="2.93" height="3.38"/>
	<rect x="18.31" y="440" class="st2" width="9.19" height="3.34"/>
	<path class="st2" d="M24.7,429.96c-1.79,0-2.72,1.2-3.05,3.26l-0.31,1.79c-0.04,0.31-0.21,0.56-0.51,0.56
		c-0.41,0-0.66-0.37-0.66-1.01c0-1.03,0.41-1.61,1.07-1.73l-0.08-2.74c-1.92,0.19-3.09,1.75-3.09,4.41c0,2.58,1.3,4.16,3.11,4.16
		c1.88,0,2.6-1.17,2.95-3.4l0.21-1.36c0.1-0.64,0.35-0.85,0.7-0.85c0.37,0,0.64,0.39,0.64,1.13c0,1.01-0.43,1.63-1.2,1.75l0.04,2.91
		c2.23-0.19,3.24-2.08,3.24-4.62C27.75,431.61,26.63,429.96,24.7,429.96z"/>
	<path class="st2" d="M18.06,422.48c0,1.38,0.62,2.37,1.63,2.87h-1.38v3.34h9.19v-3.34h-4.51c-1.38,0-2.29-0.39-2.29-1.48
		c0-1.01,0.66-1.26,1.92-1.26h4.89v-3.34h-4.51c-1.38,0-2.29-0.37-2.29-1.48c0-1.01,0.66-1.24,1.92-1.24h4.89v-3.34h-5.77
		c-1.92,0-3.67,0.74-3.67,3.28c0,1.55,0.78,2.64,1.81,3.13C18.8,420,18.06,420.85,18.06,422.48z"/>
	<rect x="14.51" y="404.44" class="st2" width="12.99" height="3.5"/>
	<path class="st2" d="M24.47,400.3l0.04,2.91c2.23-0.19,3.24-2.08,3.24-4.62c0-2.62-1.11-4.27-3.05-4.27c-1.79,0-2.72,1.2-3.05,3.26
		l-0.31,1.79c-0.04,0.31-0.21,0.56-0.51,0.56c-0.41,0-0.66-0.37-0.66-1.01c0-1.03,0.41-1.61,1.07-1.73l-0.08-2.74
		c-1.92,0.19-3.09,1.75-3.09,4.41c0,2.58,1.3,4.16,3.11,4.16c1.88,0,2.6-1.18,2.95-3.4l0.21-1.36c0.1-0.64,0.35-0.85,0.7-0.85
		c0.37,0,0.64,0.39,0.64,1.13C25.66,399.56,25.23,400.18,24.47,400.3z"/>
	<path class="st2" d="M14.51,385.32l12.99,5.17v-3.52L24.98,386v-5.07l2.51-0.97v-3.73l-12.99,5.17V385.32z M18.53,383.42l3.83-1.48
		v3.05l-3.83-1.48V383.42z"/>
	<polygon class="st2" points="14.51,370.71 14.51,374.37 27.5,369.39 27.5,365.7 14.51,360.71 14.51,364.19 23.15,367.41 
		23.15,367.49 	"/>
	<rect x="18.31" y="356.46" class="st2" width="9.19" height="3.34"/>
	<rect x="14.51" y="356.44" class="st2" width="2.93" height="3.38"/>
	<path class="st2" d="M19.93,351.31h-1.63v3.34h9.19v-3.34h-4.21c-1.55,0-2.12-0.76-2.12-2c0-0.64,0.12-1.13,0.39-1.59l-3.15-0.21
		c-0.19,0.23-0.35,0.72-0.35,1.28C18.06,350.01,18.9,350.98,19.93,351.31z"/>
	<path class="st2" d="M23.21,343.25h-4.91v3.34h5.79c1.92,0,3.65-0.76,3.65-3.28c0-1.38-0.6-2.39-1.63-2.89h1.38v-3.34h-9.19v3.34
		h4.51c1.4,0,2.31,0.41,2.31,1.46C25.13,342.9,24.45,343.25,23.21,343.25z"/>
	<path class="st2" d="M21.17,335.75c1.88,0,2.6-1.18,2.95-3.4l0.21-1.36c0.1-0.64,0.35-0.85,0.7-0.85c0.37,0,0.64,0.39,0.64,1.13
		c0,1.01-0.43,1.63-1.2,1.75l0.04,2.91c2.23-0.19,3.24-2.08,3.24-4.62c0-2.62-1.11-4.27-3.05-4.27c-1.79,0-2.72,1.2-3.05,3.26
		l-0.31,1.79c-0.04,0.31-0.21,0.56-0.51,0.56c-0.41,0-0.66-0.37-0.66-1.01c0-1.03,0.41-1.61,1.07-1.73l-0.08-2.74
		c-1.92,0.19-3.09,1.75-3.09,4.41C18.06,334.16,19.36,335.75,21.17,335.75z"/>
	<rect x="23.95" y="320.66" class="st2" width="3.55" height="3.55"/>
	<path class="st2" d="M22.9,317.78c2.87,0,4.84-2.02,4.84-5.03c0-2.99-1.98-5.03-4.84-5.03c-2.85,0-4.84,2.04-4.84,5.03
		C18.06,315.76,20.06,317.78,22.9,317.78z M22.9,311.08c1.38,0,2.33,0.52,2.33,1.67c0,1.17-0.95,1.67-2.33,1.67
		c-1.38,0-2.33-0.49-2.33-1.67C20.57,311.59,21.52,311.08,22.9,311.08z"/>
	<path class="st2" d="M18.41,299.27c-0.19,0.23-0.35,0.72-0.35,1.28c0,1.22,0.84,2.19,1.88,2.52h-1.63v3.34h9.19v-3.34h-4.21
		c-1.55,0-2.12-0.76-2.12-2c0-0.64,0.12-1.13,0.39-1.59L18.41,299.27z"/>
	<path class="st2" d="M27.71,288.59c-1.55,0-2.64,1.05-2.64,3.13v3.81c0,0.56-0.25,0.78-0.56,0.78c-0.19,0-0.33-0.06-0.43-0.19
		c0.19-0.6,0.27-1.26,0.27-2c0-2.6-1.2-4.47-3.13-4.47c-0.43,0-0.83,0.1-1.17,0.29c-0.1-0.45-0.14-0.95-0.14-1.34h-2.52
		c0,1.01,0.66,2.02,1.42,2.58c-0.47,0.78-0.74,1.83-0.74,2.95c0,2.58,1.2,4.43,3.15,4.43c1.01,0,1.79-0.49,2.33-1.32
		c0.37,0.99,1.05,1.57,1.94,1.57c0.78,0,1.53-0.49,1.79-1.32c0.08,1.03,0.72,1.75,1.53,1.75c1.73,0,2.25-2.27,2.25-4.89
		C31.05,291.38,29.99,288.59,27.71,288.59z M21.21,295.07c-0.8,0-1.32-0.41-1.32-0.97c0-0.56,0.52-0.97,1.32-0.97
		c0.82,0,1.34,0.41,1.34,0.97C22.55,294.65,22.04,295.07,21.21,295.07z M28.47,296.51c-0.35,0-0.56-0.25-0.56-0.62v-3.38
		c0-0.56,0.14-0.85,0.54-0.85c0.56,0,0.87,1.13,0.87,2.68C29.31,295.58,29.13,296.51,28.47,296.51z"/>
	<path class="st2" d="M765.99,46.03v1.81l-3.42-0.8v2.49l3.42,0.8v1.77l-3.42-0.8v2.49l3.42,0.8v2.04l2.06,0.43V55.1l2.02,0.5v1.88
		l2.06,0.43v-1.83l3.42,0.82V54.4l-3.42-0.82v-1.77l3.42,0.82v-2.49l-3.42-0.83v-2.02l-2.06-0.43v1.98l-2.02-0.5v-1.88L765.99,46.03
		z M770.07,51.33v1.77l-2.02-0.49v-1.77L770.07,51.33z"/>
	<path class="st2" d="M769.06,60.53c-4,0-6.74,2.87-6.74,6.66c0,3.98,2.51,6.1,5.75,6.35l0.14-3.36c-1.44-0.21-2.78-0.99-2.78-3.01
		c0-1.92,1.42-3.03,3.63-3.03c2.21,0,3.63,1.11,3.63,3.03c0,2.02-1.34,2.8-2.78,3.01l0.12,3.36c3.24-0.25,5.77-2.37,5.77-6.35
		C775.8,63.4,773.06,60.53,769.06,60.53z"/>
	<path class="st2" d="M762.36,82.63c0,0.95,0.27,1.61,0.6,2.08h1.77c-0.1-0.27-0.14-0.47-0.14-0.74c0-0.35,0.21-0.56,0.68-0.56h3.13
		c2.56,0,3.61-1.79,3.61-4.23c0-2.76-1.4-4.27-3.42-4.56l-0.21,3.09c0.68,0.14,1.15,0.52,1.15,1.26c0,0.8-0.45,1.15-1.22,1.15h-0.14
		l-0.43-2.58c-0.35-2-1.11-3.28-2.89-3.28c-1.57,0-2.49,1.17-2.49,2.97c0,1.46,0.56,2.52,1.63,3.05
		C762.94,80.61,762.36,81.49,762.36,82.63z M765.29,77.49c0.6,0,0.85,0.47,1.01,1.28l0.25,1.36h-0.14c-1.2,0-1.9-0.76-1.9-1.71
		C764.5,77.86,764.81,77.49,765.29,77.49z"/>
	<path class="st2" d="M759.27,89.01h4.87c-1.07,0.45-1.81,1.48-1.81,3.03c0,2.7,2.12,4.08,4.84,4.08c2.7,0,4.84-1.38,4.84-4.08
		c0-1.55-0.74-2.58-1.83-3.03h1.59v-3.34h-12.49V89.01z M767.1,89.01h0.12c1.32,0,2.18,0.72,2.18,1.85c0,1.3-0.93,1.9-2.25,1.9
		c-1.34,0-2.27-0.6-2.27-1.9C764.9,89.74,765.76,89.01,767.1,89.01z"/>
	<rect x="772.63" y="97.42" class="st2" width="2.93" height="3.38"/>
	<rect x="762.57" y="97.44" class="st2" width="9.19" height="3.34"/>
	<path class="st2" d="M774.3,104.12l-1.2-0.31c-0.84-0.23-1.34-0.52-1.48-1.44l-0.1-0.68h-2.06v1.24h-4.33
		c-2.17,0-2.8,1.46-2.8,3.01c0,1.26,0.31,2.06,0.82,2.76h2.17c-0.23-0.56-0.31-1.01-0.31-1.42c0-0.68,0.31-1.05,1.09-1.05h3.36v2.39
		h2.31v-2.39h2.54V104.12z"/>
	<path class="st2" d="M765.27,118.57h3.13c2.56,0,3.61-1.79,3.61-4.23c0-2.76-1.4-4.27-3.42-4.56l-0.21,3.09
		c0.68,0.14,1.15,0.52,1.15,1.26c0,0.8-0.45,1.15-1.22,1.15h-0.14l-0.43-2.58c-0.35-2-1.11-3.28-2.89-3.28
		c-1.57,0-2.49,1.18-2.49,2.97c0,1.46,0.56,2.52,1.63,3.05c-1.05,0.31-1.63,1.2-1.63,2.33c0,0.95,0.27,1.61,0.6,2.08h1.77
		c-0.1-0.27-0.14-0.47-0.14-0.74C764.59,118.78,764.79,118.57,765.27,118.57z M764.5,113.58c0-0.56,0.31-0.93,0.78-0.93
		c0.6,0,0.85,0.47,1.01,1.28l0.25,1.36h-0.14C765.21,115.29,764.5,114.53,764.5,113.58z"/>
	<rect x="762.57" y="120.84" class="st2" width="12.99" height="3.34"/>
	<rect x="762.57" y="125.99" class="st2" width="9.19" height="3.34"/>
	<rect x="772.63" y="125.97" class="st2" width="2.93" height="3.38"/>
	<path class="st2" d="M768.89,130.67c-1.88,0-2.6,1.18-2.95,3.4l-0.21,1.36c-0.1,0.64-0.35,0.84-0.7,0.84
		c-0.37,0-0.64-0.39-0.64-1.13c0-1.01,0.43-1.63,1.2-1.75l-0.04-2.91c-2.23,0.19-3.24,2.08-3.24,4.62c0,2.62,1.11,4.27,3.05,4.27
		c1.79,0,2.72-1.2,3.05-3.26l0.31-1.79c0.04-0.31,0.21-0.56,0.52-0.56c0.41,0,0.66,0.37,0.66,1.01c0,1.03-0.41,1.61-1.07,1.73
		l0.08,2.74c1.92-0.19,3.09-1.75,3.09-4.41C772.01,132.25,770.71,130.67,768.89,130.67z"/>
	<path class="st2" d="M772.01,146.85c0-1.38-0.62-2.37-1.63-2.87h1.38v-3.34h-9.19v3.34h4.51c1.38,0,2.29,0.39,2.29,1.48
		c0,1.01-0.66,1.26-1.92,1.26h-4.89v3.34h4.51c1.38,0,2.29,0.37,2.29,1.48c0,1.01-0.66,1.24-1.92,1.24h-4.89v3.34h5.77
		c1.92,0,3.67-0.74,3.67-3.28c0-1.55-0.78-2.64-1.81-3.13C771.27,149.32,772.01,148.48,772.01,146.85z"/>
	<rect x="762.57" y="159.71" class="st2" width="12.99" height="3.5"/>
	<path class="st2" d="M765.6,167.36l-0.04-2.91c-2.23,0.19-3.24,2.08-3.24,4.62c0,2.62,1.11,4.27,3.05,4.27
		c1.79,0,2.72-1.2,3.05-3.26l0.31-1.79c0.04-0.31,0.21-0.56,0.52-0.56c0.41,0,0.66,0.37,0.66,1.01c0,1.03-0.41,1.61-1.07,1.73
		l0.08,2.74c1.92-0.19,3.09-1.75,3.09-4.41c0-2.58-1.3-4.16-3.11-4.16c-1.88,0-2.6,1.18-2.95,3.4l-0.21,1.36
		c-0.1,0.64-0.35,0.84-0.7,0.84c-0.37,0-0.64-0.39-0.64-1.13C764.4,168.1,764.83,167.48,765.6,167.36z"/>
	<path class="st2" d="M775.55,180.68l-12.99-5.17v3.52l2.51,0.97v5.07l-2.51,0.97v3.73l12.99-5.17V180.68z M771.53,182.58
		l-3.83,1.48v-3.05l3.83,1.48V182.58z"/>
	<polygon class="st2" points="775.55,195.24 775.55,191.57 762.57,196.56 762.57,200.25 775.55,205.24 775.55,201.75 766.92,198.54 
		766.92,198.46 	"/>
	<rect x="772.63" y="206.12" class="st2" width="2.93" height="3.38"/>
	<rect x="762.57" y="206.14" class="st2" width="9.19" height="3.34"/>
	<path class="st2" d="M770.13,214.63h1.63v-3.34h-9.19v3.34h4.21c1.55,0,2.12,0.76,2.12,2c0,0.64-0.12,1.13-0.39,1.59l3.15,0.21
		c0.19-0.23,0.35-0.72,0.35-1.28C772.01,215.93,771.16,214.96,770.13,214.63z"/>
	<path class="st2" d="M766.85,222.69h4.91v-3.34h-5.79c-1.92,0-3.65,0.76-3.65,3.28c0,1.38,0.6,2.39,1.63,2.89h-1.38v3.34h9.19
		v-3.34h-4.51c-1.4,0-2.31-0.41-2.31-1.46C764.94,223.04,765.62,222.69,766.85,222.69z"/>
	<path class="st2" d="M768.83,236.03l0.08,2.74c1.92-0.19,3.09-1.75,3.09-4.41c0-2.58-1.3-4.16-3.11-4.16c-1.88,0-2.6,1.17-2.95,3.4
		l-0.21,1.36c-0.1,0.64-0.35,0.85-0.7,0.85c-0.37,0-0.64-0.39-0.64-1.13c0-1.01,0.43-1.63,1.2-1.75l-0.04-2.91
		c-2.23,0.19-3.24,2.08-3.24,4.62c0,2.62,1.11,4.27,3.05,4.27c1.79,0,2.72-1.2,3.05-3.26l0.31-1.79c0.04-0.31,0.21-0.56,0.52-0.56
		c0.41,0,0.66,0.37,0.66,1.01C769.91,235.33,769.49,235.9,768.83,236.03z"/>
</g>
</svg>
