<?xml version="1.0" encoding="utf-8"?>
<!-- Generator: Adobe Illustrator 23.1.1, SVG Export Plug-In . SVG Version: 6.00 Build 0)  -->
<svg version="1.1" xmlns="http://www.w3.org/2000/svg" xmlns:xlink="http://www.w3.org/1999/xlink" x="0px" y="0px"
	 viewBox="0 0 792 612" style="enable-background:new 0 0 792 612;" xml:space="preserve">
<style type="text/css">
	.st0{display:none;}
	.st1{display:inline;fill:#FFFFFF;}
	.st2{display:inline;}
	.st3{fill:#FFFFFF;stroke:#000000;stroke-width:16;stroke-linecap:round;stroke-linejoin:round;stroke-miterlimit:10;}
	.st4{fill:none;stroke:#000000;stroke-width:24;stroke-linejoin:round;stroke-miterlimit:10;}
	.st5{fill:#FFFFFF;}
	.st6{fill:#FFFFFF;stroke:#000000;stroke-width:17;stroke-linecap:round;stroke-miterlimit:10;}
	.st7{fill:#FFFFFF;stroke:#000000;stroke-width:17;stroke-miterlimit:10;}
	.st8{stroke:#000000;stroke-width:16.0572;stroke-linecap:round;stroke-miterlimit:10;}
	.st9{fill:#FFFFFF;stroke:#000000;stroke-width:13.497;stroke-linecap:round;stroke-linejoin:round;stroke-miterlimit:10;}
	.st10{stroke:#000000;stroke-width:18.3348;stroke-linecap:round;stroke-miterlimit:10;}
	.st11{fill:none;stroke:#000000;stroke-width:13.497;stroke-linecap:round;stroke-linejoin:round;stroke-miterlimit:10;}
	.st12{fill:#FFFFFF;stroke:#000000;stroke-width:14.6942;stroke-linecap:round;stroke-linejoin:round;stroke-miterlimit:10;}
	.st13{fill:none;stroke:#000000;stroke-width:13;stroke-linecap:round;stroke-linejoin:round;stroke-miterlimit:10;}
	.st14{fill:none;stroke:#000000;stroke-width:13;stroke-linejoin:round;stroke-miterlimit:10;}
	.st15{fill:url(#);stroke:#000000;stroke-width:13;stroke-linejoin:round;stroke-miterlimit:10;}
	.st16{fill:none;stroke:#000000;stroke-width:30.5612;stroke-linecap:round;stroke-linejoin:round;stroke-miterlimit:10;}
	.st17{fill:#FFFFFF;stroke:#000000;stroke-width:16.2993;stroke-linecap:round;stroke-linejoin:round;stroke-miterlimit:10;}
	.st18{fill:#FFFFFF;stroke:#000000;stroke-width:13.497;stroke-linecap:round;stroke-miterlimit:10;}
	.st19{fill:url(#);stroke:#000000;stroke-width:13.497;stroke-linecap:round;stroke-linejoin:round;stroke-miterlimit:10;}
	.st20{fill:#FFFFFF;stroke:#000000;stroke-width:11.7326;stroke-linecap:round;stroke-linejoin:round;stroke-miterlimit:10;}
	.st21{fill:#FFFFFF;stroke:#000000;stroke-width:13.2623;stroke-linecap:round;stroke-linejoin:round;stroke-miterlimit:10;}
	.st22{fill:#FFFFFF;stroke:#000000;stroke-width:13.2623;stroke-linecap:round;stroke-miterlimit:10;}
	.st23{stroke:#000000;stroke-width:4.5213;stroke-miterlimit:10;}
	.st24{fill:none;stroke:#000000;stroke-width:16;stroke-linecap:round;stroke-miterlimit:10;}
	.st25{fill:url(#);stroke:#000000;stroke-width:16;stroke-linecap:round;stroke-linejoin:round;stroke-miterlimit:10;}
	.st26{fill:#FFFFFF;stroke:#000000;stroke-width:16;stroke-linecap:round;stroke-miterlimit:10;}
	.st27{fill:none;stroke:#000000;stroke-width:16;stroke-linecap:round;stroke-linejoin:round;stroke-miterlimit:10;}
	.st28{fill:none;stroke:#000000;stroke-width:15.2344;stroke-linecap:round;stroke-linejoin:round;stroke-miterlimit:10;}
	.st29{fill:#FFFFFF;stroke:#000000;stroke-width:15.2344;stroke-linecap:round;stroke-linejoin:round;stroke-miterlimit:10;}
	.st30{font-family:'FoundersGrotesk-Bold';}
	.st31{font-size:20.6105px;}
	.st32{font-size:10px;}
	.st33{font-size:10.3052px;}
	.st34{font-size:19.2364px;}
	.st35{fill:#FFFFFF;stroke:#000000;stroke-width:17;stroke-linecap:round;stroke-linejoin:round;stroke-miterlimit:10;}
	.st36{fill:none;stroke:#000000;stroke-width:9.9764;stroke-linecap:round;stroke-linejoin:round;stroke-miterlimit:10;}
	.st37{fill:none;stroke:#000000;stroke-width:9.3127;stroke-linejoin:round;stroke-miterlimit:10;}
	.st38{fill:url(#);}
	.st39{fill:none;stroke:#000000;stroke-width:8.3796;stroke-linecap:round;stroke-linejoin:round;stroke-miterlimit:10;}
	
		.st40{display:inline;fill:none;stroke:#000000;stroke-width:9.9764;stroke-linecap:round;stroke-linejoin:round;stroke-miterlimit:10;}
	.st41{display:inline;fill:none;stroke:#000000;stroke-width:9.3127;stroke-linejoin:round;stroke-miterlimit:10;}
	.st42{display:inline;fill:url(#);stroke:#000000;stroke-width:10;stroke-linejoin:round;stroke-miterlimit:10;}
	.st43{fill:#FFFFFF;stroke:#000000;stroke-width:14.7375;stroke-linecap:round;stroke-linejoin:round;stroke-miterlimit:10;}
	.st44{fill:none;stroke:#000000;stroke-width:14.7375;stroke-linecap:round;stroke-linejoin:round;stroke-miterlimit:10;}
	.st45{stroke:#000000;stroke-width:14.7375;stroke-linecap:round;stroke-linejoin:round;stroke-miterlimit:10;}
	.st46{fill:#FFFFFF;stroke:#000000;stroke-width:14.2911;stroke-linecap:round;stroke-linejoin:round;stroke-miterlimit:10;}
	.st47{fill:none;stroke:#000000;stroke-width:15;stroke-linecap:round;stroke-linejoin:round;stroke-miterlimit:10;}
	.st48{fill:#FFFFFF;stroke:#000000;stroke-width:15;stroke-linecap:round;stroke-linejoin:round;stroke-miterlimit:10;}
	.st49{fill:#FFFFFF;stroke:#000000;stroke-width:14.8467;stroke-linecap:round;stroke-linejoin:round;stroke-miterlimit:10;}
	.st50{stroke:#000000;stroke-width:20.1683;stroke-linecap:round;stroke-miterlimit:10;}
	.st51{fill:none;stroke:#000000;stroke-width:14.8467;stroke-linecap:round;stroke-linejoin:round;stroke-miterlimit:10;}
	.st52{fill:none;stroke:#000000;stroke-width:13.497;stroke-miterlimit:10;}
	.st53{fill:#FFFFFF;stroke:#000000;stroke-width:13.497;stroke-miterlimit:10;}
	.st54{fill:#FFFFFF;stroke:#000000;stroke-width:14.7439;stroke-linecap:round;stroke-miterlimit:10;}
	.st55{fill:#FFFFFF;stroke:#000000;stroke-width:14.7439;stroke-miterlimit:10;}
	.st56{stroke:#000000;stroke-width:13.9262;stroke-linecap:round;stroke-miterlimit:10;}
	.st57{fill:#FFFFFF;stroke:#000000;stroke-width:17.1072;stroke-linecap:round;stroke-linejoin:round;stroke-miterlimit:10;}
	.st58{stroke:#000000;stroke-width:17.1072;stroke-linecap:round;stroke-linejoin:round;stroke-miterlimit:10;}
	.st59{fill:#FFFFFF;stroke:#000000;stroke-width:15;stroke-linecap:square;stroke-linejoin:round;stroke-miterlimit:10;}
	.st60{fill:#FFFFFF;stroke:#000000;stroke-width:15;stroke-linejoin:round;stroke-miterlimit:10;}
	.st61{fill:#FFFFFF;stroke:#000000;stroke-width:14;stroke-linecap:round;stroke-linejoin:round;stroke-miterlimit:10;}
	.st62{fill:#FFFFFF;stroke:#000000;stroke-width:13;stroke-linecap:round;stroke-linejoin:round;stroke-miterlimit:10;}
	.st63{fill:#FFFFFF;stroke:#000000;stroke-width:15.2362;stroke-linecap:round;stroke-linejoin:round;stroke-miterlimit:10;}
	.st64{fill:#FFFFFF;stroke:#FFFFFF;stroke-width:3;stroke-miterlimit:10;}
	.st65{fill:#FFFFFF;stroke:#000000;stroke-width:13.3058;stroke-linecap:round;stroke-linejoin:round;stroke-miterlimit:10;}
	.st66{fill:#FFFFFF;stroke:#000000;stroke-width:15.2517;stroke-linecap:round;stroke-linejoin:round;stroke-miterlimit:10;}
	.st67{stroke:#000000;stroke-width:3;stroke-miterlimit:10;}
</style>
<g id="unexpanded" class="st0">
	<rect x="-5081.75" y="-3205.56" class="st1" width="14663.41" height="9108.82"/>
	<g class="st2">
		<rect x="-1.4" y="-612" class="st5" width="792" height="1224"/>
		<g>
			<text transform="matrix(1 0 0 1 299.1802 594.0264)"><tspan x="0" y="0" class="st30 st31">#</tspan><tspan x="12.7" y="0" class="st30 st32"> </tspan><tspan x="14.5" y="0" class="st30 st31">Capitalism</tspan><tspan x="111.3" y="0" class="st30 st32"> </tspan><tspan x="113.1" y="0" class="st30 st31">Is</tspan><tspan x="128.09" y="0" class="st30 st32"> </tspan><tspan x="129.89" y="0" class="st30 st31">A</tspan><tspan x="144.15" y="0" class="st30 st32"> </tspan><tspan x="145.95" y="0" class="st30 st31">Virus</tspan></text>
		</g>
		<g>
			<g>
				<path class="st6" d="M27.11,431.12c95.37-2.44,208.48-18.23,214.61-16.27C296.31,432.29,348,446.58,348,446.58l49.94-119.13
					l-56.39-57.63L257.38,276c0,0-106.41-17.73-233.19-21.05"/>
				<g>
					<polygon class="st7" points="332.53,539.39 514.73,139.11 472.06,117.75 269.72,508.47 					"/>
					<path class="st8" d="M318.74,77.65c67.54-30.9,104.09-27.29,161.83,1.14c27.1,13.34,56.63,27.88,56.75,27.94
						c0,0-5.36,21.36,15.4,31.58s42.17,11.15,42.17,11.15l-32.44,65.87c0,0-6.43-20.86-30.75-32.83
						c-24.32-11.98-38.72,14.27-38.72,14.27l-56.75-27.94C436.23,168.84,426.17,107.94,318.74,77.65z"/>
					
						<rect x="525.31" y="162.33" transform="matrix(-0.4418 0.8971 -0.8971 -0.4418 1000.4921 -255.4829)" class="st8" width="108.84" height="42.43"/>
				</g>
				<path class="st7" d="M395.92,473.58c13.58,3.09,26.04-5.26,27.45-17.21c1.43-11.98-6.65-22.79-17.72-25.32
					c-22.04-5.09-43.17-13.36-62.73-24.51c-9.86-5.53-23.05-2.92-30.09,6.88c-7.02,9.76-3.53,24.24,8.56,31.06
					C344.65,457.73,369.76,467.54,395.92,473.58z"/>
				<path class="st7" d="M418.1,434.9c13.44,2.97,25.78-5.4,27.2-17.37c1.44-11.99-6.63-22.83-17.74-25.29
					c-24.96-5.48-48.89-14.73-70.99-27.4c-9.85-5.62-23.07-2.99-30.11,6.83c-7.02,9.79-3.62,24.21,8.29,31.03
					C360.71,417.6,388.81,428.46,418.1,434.9z"/>
				<path class="st7" d="M437.33,394.82c13.44,2.97,25.78-5.4,27.21-17.37c1.44-11.99-6.63-22.83-17.74-25.29
					c-24.91-5.47-48.8-14.7-70.86-27.35c-9.85-5.62-23.07-2.99-30.11,6.83c-7.02,9.79-3.62,24.21,8.3,31.04
					C380.03,377.54,408.08,388.38,437.33,394.82z"/>
				<path class="st7" d="M444.39,351.83c13.44,2.97,25.78-5.4,27.2-17.37c1.44-11.99-6.63-22.83-17.74-25.29
					c-24.96-5.48-48.89-14.73-70.99-27.4c-9.85-5.62-23.07-2.99-30.11,6.83c-7.02,9.79-3.62,24.21,8.29,31.03
					C386.99,334.53,415.09,345.39,444.39,351.83z"/>
				<path class="st6" d="M257.38,276c13.58-2.72,43.62-35.11,67.63-39.67c18.98-3.6,50.23-3.33,70.99-1.49
					c11.5,1.02,18.29,1.16,29.07,9.78c8.65,6.93,33.73,22.59,43.11,34.17c6.24,7.7-0.12,15.07-4.69,17.77
					c-10.67,6.31-28.43,9.99-44.86,0.68c-12.65-7.16-16.91-10.42-16.91-10.42c-24.62,18.85-46,18.47-46,18.47
					s-5.78,23.26-41.04,44.66"/>
			</g>
		</g>
		<text transform="matrix(0 1 -1 0 761.9287 168.8497)"><tspan x="0" y="0" class="st30 st31">www</tspan><tspan x="45.14" y="0" class="st30 st33"> </tspan><tspan x="46.99" y="0" class="st30 st31">.</tspan><tspan x="51.77" y="0" class="st30 st33"> </tspan><tspan x="53.63" y="0" class="st30 st31">Capitalism</tspan><tspan x="150.43" y="0" class="st30 st34"> </tspan><tspan x="153.9" y="0" class="st30 st31">Is</tspan><tspan x="168.88" y="0" class="st30 st34"> </tspan><tspan x="172.34" y="0" class="st30 st31">A</tspan><tspan x="186.6" y="0" class="st30 st33"> </tspan><tspan x="188.46" y="0" class="st30 st31">Virus</tspan><tspan x="236.15" y="0" class="st30 st33"> </tspan><tspan x="238.01" y="0" class="st30 st31">.</tspan><tspan x="242.79" y="0" class="st30 st33"> </tspan><tspan x="244.64" y="0" class="st30 st31">org</tspan></text>
	</g>
</g>
<g id="exp_trnsp_bg">
	<g>
	</g>
	<path d="M570.23,136.64c-4.49-1.4-9.25-3.2-13.96-5.53c-14.27-7.03-11.51-20.93-11.16-22.43l1.58-6.3l-5.83-2.86
		c-0.16-0.08-6.97-3.43-17-8.37l-39.74-19.57c-32.49-16-56.59-23.07-80.59-23.64c-25.74-0.63-52.91,6.29-88.12,22.4l-19.88,9.09
		l21.04,5.93c29.11,8.21,69.09,24.14,94.23,53.41c14.84,17.28,17.5,31.28,17.52,31.36l0.67,4.07l3.39,1.67l-26.61,51.38
		c-2.32-0.3-4.69-0.51-7.18-0.73l-1.84-0.16c-21.31-1.89-53.35-2.19-73.33,1.61c-15.68,2.98-32.04,15.19-46.48,25.97
		c-7.4,5.53-15.7,11.71-20.07,13.35c-14.91-2.37-115.71-17.8-232.46-20.86c-4.73-0.11-8.6,3.58-8.72,8.27
		c-0.12,4.69,3.58,8.6,8.27,8.72c0.12,0,0.24,0.01,0.36,0.01c124.52,3.29,230.6,20.75,231.66,20.93l1,0.17l6.64-0.49l-0.7-0.9
		c6.81-2.63,14.65-8.48,24.18-15.59c12.32-9.2,27.65-20.65,39.48-22.89c17.56-3.34,47.84-3.22,68.66-1.37l1.87,0.16
		c9.93,0.86,14.46,1.25,22.63,7.79c2.7,2.16,6.67,4.96,11.27,8.21c10.39,7.33,24.62,17.37,30.55,24.68c0.79,0.97,0.72,1.37,0.69,1.5
		c-0.19,1.05-1.64,2.74-3.1,3.6c-8.44,4.99-23.03,8.15-36.34,0.6c-11.73-6.64-15.93-9.77-15.94-9.78l-5.17-3.95l-5.16,3.95
		c-21.67,16.59-40.56,16.72-40.69,16.73l-6.72-0.31l-1.66,6.66c-0.01,0.05-1.44,5.14-6.67,12.48c-4.87,6.84-14.13,17.09-30.55,27.05
		c-4.01,2.44-5.29,7.66-2.86,11.68c1.6,2.63,4.4,4.09,7.27,4.09c1.5,0,3.02-0.4,4.4-1.23c5.62-3.41,10.55-6.89,14.89-10.34
		c0.11,0.8,0.24,1.6,0.41,2.4c0.42,1.92,1.03,3.79,1.81,5.58c-6.52,1.98-12.46,6.01-16.64,11.85c-4.61,6.43-6.27,14.66-4.54,22.59
		c0.59,2.7,1.54,5.29,2.83,7.73l-0.93,1.81c-4.22,2.25-8,5.48-10.97,9.61c-3.27,4.55-5.04,10.02-5.17,15.65
		c-16.86-5.01-36.51-10.98-56.46-17.35c-3.56-1.14-8.57-0.8-48.66,3.26c-43.53,4.41-109.3,11.08-168.67,12.61c-0.03,0-0.05,0-0.08,0
		c-4.69,0.12-8.4,4.02-8.28,8.71s4,8.39,8.71,8.28c60.03-1.54,126.23-8.25,170.03-12.69c19.63-1.99,38.22-3.87,42.5-3.75
		c19.63,6.26,38.95,12.14,55.6,17.09l-37.28,71.99l78.45,38.63l34.32-75.39c7.58,2.44,15.27,4.57,23.06,6.36l0.02,0.01
		c2.51,0.57,5.04,0.85,7.54,0.85c6.62,0,13.04-1.96,18.35-5.71c6.63-4.68,10.96-11.84,11.88-19.63c0.58-4.87-0.03-9.67-1.59-14.1
		c4.18-0.88,8.14-2.56,11.62-5.03c6.62-4.7,10.96-11.89,11.89-19.71c0.66-5.53-0.19-10.96-2.23-15.85c3.42-0.96,6.67-2.46,9.57-4.52
		c6.62-4.7,10.96-11.89,11.89-19.7c0.99-8.2-1.37-16.21-6.01-22.52c0.39-0.25,0.79-0.49,1.17-0.76c6.62-4.7,10.95-11.89,11.89-19.7
		c1.47-12.23-4.48-24.01-14.35-30.4c0.73-0.39,1.45-0.78,2.13-1.19c4.57-2.7,9.9-8.12,11.18-15.23c0.67-3.74,0.49-9.41-4.22-15.21
		c-2.16-2.67-4.95-5.44-8.11-8.24l26.95-59.2l2.66,1.29l3.72-6.63c1.12-1.99,11.41-19.21,28.15-10.97c4.78,2.36,8.76,5.09,12.06,7.9
		l-14.31,29.06l52.49,25.8l55.18-112.05l-52.49-25.8L570.23,136.64z M328.42,527.9l-47.17-23.23l29.7-57.35
		c1.88,1.73,3.96,3.26,6.24,4.55c12.12,6.9,24.71,12.89,37.67,17.93L328.42,527.9z M414.94,455.38c-0.36,3.06-2.07,5.81-4.81,7.74
		c-3.38,2.39-7.87,3.18-12.3,2.17c-25.34-5.85-49.64-15.33-72.25-28.21c-3.91-2.21-6.66-5.76-7.54-9.73
		c-0.72-3.26-0.11-6.44,1.7-8.97c3.47-4.84,9.53-7.04,15.04-5.91c23.19,12.82,47.91,22.5,73.63,28.88
		C412.9,444.34,415.61,449.76,414.94,455.38z M436.86,416.53c-0.37,3.12-2.09,5.91-4.85,7.87c-3.33,2.36-7.73,3.17-12.08,2.21
		l-0.01,0c-28.45-6.26-55.68-16.78-80.93-31.26c-3.82-2.19-6.5-5.7-7.36-9.63c-0.71-3.29-0.1-6.51,1.75-9.08
		c2.87-4,7.48-6.21,12.09-6.21c2.37,0,4.74,0.58,6.88,1.8c20.56,11.78,42.56,20.66,65.5,26.45c3.53,1,7.08,1.94,10.65,2.81
		C434.07,404.04,437.63,410.14,436.86,416.53z M456.09,376.45c-0.37,3.11-2.09,5.91-4.85,7.86c-3.33,2.36-7.74,3.17-12.08,2.21
		l-0.01,0c-28.4-6.25-55.58-16.75-80.8-31.21c-3.82-2.19-6.5-5.7-7.36-9.63c-0.72-3.29-0.1-6.51,1.75-9.08
		c2.5-3.49,6.33-5.61,10.34-6.1c24.98,13.56,51.68,23.52,79.48,29.64c1.05,0.23,2.11,0.4,3.16,0.53
		C452.43,362.57,456.95,369.33,456.09,376.45z M463.15,333.46c-0.37,3.12-2.09,5.91-4.85,7.87c-3.33,2.36-7.73,3.17-12.08,2.21l0,0
		c-28.19-6.2-55.19-16.59-80.25-30.88c7.9-1.52,19.57-5.05,32.54-13.23c17.1,7.93,35.02,13.99,53.5,18.05
		C459.14,319.05,464.04,326.07,463.15,333.46z M452.97,254.28c-4.12-3.04-8.29-5.99-12.15-8.71c-4.37-3.08-8.14-5.74-10.44-7.59
		c-2.89-2.32-5.58-4.11-8.15-5.53l25.41-49.06l30.72,15.13L452.97,254.28z"/>
	<polygon points="761.93,207.9 761.93,211.17 771.12,214.08 771.12,211.07 765.91,209.42 765.91,209.34 771.12,208 771.12,205.34 
		765.91,204 765.91,203.92 771.12,202.27 771.12,199.04 771.12,198.95 771.12,196.03 765.91,194.38 765.91,194.29 771.12,192.95 
		771.12,190.3 765.91,188.96 765.91,188.87 771.12,187.22 771.12,183.99 771.12,183.9 771.12,180.98 765.91,179.33 765.91,179.25 
		771.12,177.91 771.12,175.25 765.91,173.91 765.91,173.83 771.12,172.18 771.12,168.86 761.93,171.77 761.93,175.04 767.12,176.38 
		767.12,176.47 761.93,177.81 761.93,181.08 770.99,183.95 761.93,186.81 761.93,190.09 767.12,191.43 767.12,191.51 761.93,192.85 
		761.93,196.13 770.99,198.99 761.93,201.86 761.93,205.13 767.12,206.47 767.12,206.56 	"/>
	<rect x="761.93" y="216.51" width="3.55" height="3.55"/>
	<path d="M768.42,222.94c-4,0-6.74,2.87-6.74,6.66c0,3.98,2.51,6.1,5.75,6.35l0.14-3.36c-1.44-0.21-2.78-0.99-2.78-3.01
		c0-1.92,1.42-3.03,3.63-3.03s3.63,1.11,3.63,3.03c0,2.02-1.34,2.8-2.78,3.01l0.12,3.36c3.24-0.25,5.77-2.37,5.77-6.35
		C775.16,225.81,772.42,222.94,768.42,222.94z"/>
	<path d="M761.72,245.04c0,0.95,0.27,1.61,0.6,2.08h1.77c-0.1-0.27-0.14-0.47-0.14-0.74c0-0.35,0.21-0.56,0.68-0.56h3.13
		c2.56,0,3.61-1.79,3.61-4.23c0-2.76-1.4-4.27-3.42-4.56l-0.21,3.09c0.68,0.14,1.15,0.52,1.15,1.26c0,0.8-0.45,1.15-1.22,1.15h-0.14
		l-0.43-2.58c-0.35-2-1.11-3.28-2.89-3.28c-1.57,0-2.49,1.17-2.49,2.97c0,1.46,0.56,2.52,1.63,3.05
		C762.3,243.02,761.72,243.9,761.72,245.04z M764.65,239.9c0.6,0,0.85,0.47,1.01,1.28l0.25,1.36h-0.14c-1.2,0-1.9-0.76-1.9-1.71
		C763.87,240.27,764.18,239.9,764.65,239.9z"/>
	<path d="M758.63,251.42h4.86c-1.07,0.45-1.81,1.48-1.81,3.03c0,2.7,2.12,4.08,4.84,4.08c2.7,0,4.84-1.38,4.84-4.08
		c0-1.55-0.74-2.58-1.83-3.03h1.59v-3.34h-12.49V251.42z M766.46,251.42h0.12c1.32,0,2.18,0.72,2.18,1.86c0,1.3-0.93,1.9-2.25,1.9
		c-1.34,0-2.27-0.6-2.27-1.9C764.26,252.15,765.12,251.42,766.46,251.42z"/>
	<rect x="761.93" y="259.85" width="9.19" height="3.34"/>
	<rect x="771.99" y="259.83" width="2.93" height="3.38"/>
	<path d="M773.66,266.53l-1.2-0.31c-0.85-0.23-1.34-0.52-1.48-1.44l-0.1-0.68h-2.06v1.24h-4.33c-2.16,0-2.8,1.46-2.8,3.01
		c0,1.26,0.31,2.06,0.82,2.76h2.16c-0.23-0.56-0.31-1.01-0.31-1.42c0-0.68,0.31-1.05,1.09-1.05h3.36v2.39h2.31v-2.39h2.54V266.53z"
		/>
	<path d="M764.63,280.98h3.13c2.56,0,3.61-1.79,3.61-4.23c0-2.76-1.4-4.27-3.42-4.56l-0.21,3.09c0.68,0.14,1.15,0.52,1.15,1.26
		c0,0.8-0.45,1.15-1.22,1.15h-0.14l-0.43-2.58c-0.35-2-1.11-3.28-2.89-3.28c-1.57,0-2.49,1.18-2.49,2.97c0,1.46,0.56,2.51,1.63,3.05
		c-1.05,0.31-1.63,1.2-1.63,2.33c0,0.95,0.27,1.61,0.6,2.08h1.77c-0.1-0.27-0.14-0.47-0.14-0.74
		C763.95,281.19,764.16,280.98,764.63,280.98z M763.87,275.99c0-0.56,0.31-0.93,0.78-0.93c0.6,0,0.85,0.47,1.01,1.28l0.25,1.36
		h-0.14C764.57,277.7,763.87,276.94,763.87,275.99z"/>
	<rect x="761.93" y="283.25" width="12.99" height="3.34"/>
	<rect x="761.93" y="288.4" width="9.19" height="3.34"/>
	<rect x="771.99" y="288.38" width="2.93" height="3.38"/>
	<path d="M768.26,293.08c-1.88,0-2.6,1.18-2.95,3.4l-0.21,1.36c-0.1,0.64-0.35,0.85-0.7,0.85c-0.37,0-0.64-0.39-0.64-1.13
		c0-1.01,0.43-1.63,1.2-1.75l-0.04-2.91c-2.23,0.19-3.24,2.08-3.24,4.62c0,2.62,1.11,4.27,3.05,4.27c1.79,0,2.72-1.2,3.05-3.26
		l0.31-1.79c0.04-0.31,0.21-0.56,0.52-0.56c0.41,0,0.66,0.37,0.66,1.01c0,1.03-0.41,1.61-1.07,1.73l0.08,2.74
		c1.92-0.19,3.09-1.75,3.09-4.41C771.37,294.67,770.07,293.08,768.26,293.08z"/>
	<path d="M771.37,309.26c0-1.38-0.62-2.37-1.63-2.87h1.38v-3.34h-9.19v3.34h4.51c1.38,0,2.29,0.39,2.29,1.48
		c0,1.01-0.66,1.26-1.92,1.26h-4.89v3.34h4.51c1.38,0,2.29,0.37,2.29,1.48c0,1.01-0.66,1.24-1.92,1.24h-4.89v3.34h5.77
		c1.92,0,3.67-0.74,3.67-3.28c0-1.55-0.78-2.64-1.81-3.13C770.63,311.73,771.37,310.89,771.37,309.26z"/>
	<rect x="761.93" y="323.79" width="12.99" height="3.5"/>
	<path d="M764.96,331.43l-0.04-2.91c-2.23,0.19-3.24,2.08-3.24,4.62c0,2.62,1.11,4.27,3.05,4.27c1.79,0,2.72-1.2,3.05-3.26
		l0.31-1.79c0.04-0.31,0.21-0.56,0.52-0.56c0.41,0,0.66,0.37,0.66,1.01c0,1.03-0.41,1.61-1.07,1.73l0.08,2.74
		c1.92-0.19,3.09-1.75,3.09-4.41c0-2.58-1.3-4.16-3.11-4.16c-1.88,0-2.6,1.18-2.95,3.4l-0.21,1.36c-0.1,0.64-0.35,0.85-0.7,0.85
		c-0.37,0-0.64-0.39-0.64-1.13C763.76,332.18,764.2,331.56,764.96,331.43z"/>
	<path d="M761.93,344.77l2.51,0.97v5.07l-2.51,0.97v3.73l12.99-5.17v-3.92l-12.99-5.17V344.77z M767.06,346.75l3.83,1.48v0.08
		l-3.83,1.48V346.75z"/>
	<polygon points="761.93,366.04 774.92,371.03 774.92,367.54 766.28,364.33 766.28,364.25 774.92,361.03 774.92,357.36 
		761.93,362.35 	"/>
	<rect x="771.99" y="371.91" width="2.93" height="3.38"/>
	<rect x="761.93" y="371.93" width="9.19" height="3.34"/>
	<path d="M769.49,380.42h1.63v-3.34h-9.19v3.34h4.21c1.55,0,2.12,0.76,2.12,2c0,0.64-0.12,1.13-0.39,1.59l3.15,0.21
		c0.19-0.23,0.35-0.72,0.35-1.28C771.37,381.72,770.52,380.75,769.49,380.42z"/>
	<path d="M766.22,388.48h4.91v-3.34h-5.79c-1.92,0-3.65,0.76-3.65,3.28c0,1.38,0.6,2.39,1.63,2.89h-1.38v3.34h9.19v-3.34h-4.51
		c-1.4,0-2.31-0.41-2.31-1.46C764.3,388.83,764.98,388.48,766.22,388.48z"/>
	<path d="M768.26,395.98c-1.88,0-2.6,1.17-2.95,3.4l-0.21,1.36c-0.1,0.64-0.35,0.85-0.7,0.85c-0.37,0-0.64-0.39-0.64-1.13
		c0-1.01,0.43-1.63,1.2-1.75l-0.04-2.91c-2.23,0.19-3.24,2.08-3.24,4.62c0,2.62,1.11,4.27,3.05,4.27c1.79,0,2.72-1.2,3.05-3.26
		l0.31-1.79c0.04-0.31,0.21-0.56,0.52-0.56c0.41,0,0.66,0.37,0.66,1.01c0,1.03-0.41,1.61-1.07,1.73l0.08,2.74
		c1.92-0.19,3.09-1.75,3.09-4.41C771.37,397.57,770.07,395.98,768.26,395.98z"/>
	<rect x="761.93" y="407.53" width="3.55" height="3.55"/>
	<path d="M766.53,413.96c-2.87,0-4.84,2.02-4.84,5.03c0,2.99,1.98,5.03,4.84,5.03c2.84,0,4.84-2.04,4.84-5.03
		C771.37,415.98,769.37,413.96,766.53,413.96z M766.53,420.66c-1.38,0-2.33-0.52-2.33-1.67c0-1.18,0.95-1.67,2.33-1.67
		s2.33,0.49,2.33,1.67C768.86,420.14,767.91,420.66,766.53,420.66z"/>
	<path d="M771.02,432.47c0.19-0.23,0.35-0.72,0.35-1.28c0-1.22-0.85-2.18-1.88-2.51h1.63v-3.34h-9.19v3.34h4.21
		c1.55,0,2.12,0.76,2.12,2c0,0.64-0.12,1.13-0.39,1.59L771.02,432.47z"/>
	<path d="M770.63,440.55c0.47-0.78,0.74-1.83,0.74-2.95c0-2.58-1.2-4.43-3.15-4.43c-1.01,0-1.79,0.5-2.33,1.32
		c-0.37-0.99-1.05-1.57-1.94-1.57c-0.78,0-1.53,0.5-1.79,1.32c-0.08-1.03-0.72-1.75-1.53-1.75c-1.73,0-2.25,2.27-2.25,4.89
		c0,2.99,1.05,5.77,3.34,5.77c1.55,0,2.64-1.05,2.64-3.13v-3.81c0-0.56,0.25-0.78,0.56-0.78c0.19,0,0.33,0.06,0.43,0.19
		c-0.19,0.6-0.27,1.26-0.27,2c0,2.6,1.2,4.47,3.13,4.47c0.43,0,0.83-0.1,1.18-0.29c0.1,0.45,0.14,0.95,0.14,1.34h2.52
		C772.05,442.11,771.39,441.1,770.63,440.55z M761.52,439.23c0,0.56-0.14,0.85-0.54,0.85c-0.56,0-0.87-1.13-0.87-2.68
		c0-1.24,0.19-2.17,0.85-2.17c0.35,0,0.56,0.25,0.56,0.62V439.23z M768.22,438.61c-0.82,0-1.34-0.41-1.34-0.97s0.52-0.97,1.34-0.97
		c0.8,0,1.32,0.41,1.32,0.97S769.02,438.61,768.22,438.61z"/>
</g>
<g id="exp_white_bg" class="st0">
	<g class="st2">
		<path class="st5" d="M766.53,255.18c1.32,0,2.25-0.6,2.25-1.9c0-1.13-0.87-1.86-2.18-1.86h-0.12c-1.34,0-2.21,0.72-2.21,1.86
			C764.26,254.58,765.19,255.18,766.53,255.18z"/>
		<polygon class="st5" points="770.9,348.23 767.06,346.75 767.06,349.8 770.9,348.31 		"/>
		<path class="st5" d="M-1.4,612h792V-612h-792V612z M578.39,252.46l-52.49-25.8l14.31-29.06c-3.3-2.81-7.28-5.54-12.06-7.9
			c-16.75-8.24-27.03,8.98-28.15,10.97l-3.72,6.63l-2.66-1.29l-26.95,59.2c3.15,2.8,5.95,5.57,8.11,8.24
			c4.7,5.8,4.89,11.48,4.22,15.21c-1.28,7.11-6.61,12.53-11.18,15.23c-0.69,0.41-1.4,0.8-2.13,1.19
			c9.87,6.39,15.82,18.17,14.35,30.4c-0.93,7.82-5.27,15-11.89,19.7c-0.38,0.27-0.78,0.51-1.17,0.76
			c4.64,6.31,6.99,14.31,6.01,22.52c-0.93,7.82-5.27,15-11.89,19.7c-2.9,2.06-6.15,3.56-9.57,4.52c2.04,4.89,2.89,10.33,2.23,15.85
			c-0.93,7.82-5.27,15-11.89,19.71c-3.48,2.47-7.44,4.15-11.62,5.03c1.56,4.43,2.17,9.23,1.59,14.1
			c-0.92,7.79-5.25,14.95-11.88,19.63c-5.31,3.75-11.74,5.71-18.35,5.71c-2.5,0-5.04-0.28-7.54-0.85l-0.02-0.01
			c-7.79-1.8-15.48-3.93-23.06-6.36l-34.32,75.39l-78.45-38.63l37.28-71.99c-16.65-4.95-35.97-10.82-55.6-17.09
			c-4.27-0.12-22.87,1.76-42.5,3.75c-43.8,4.44-110,11.15-170.03,12.69c-4.71,0.11-8.59-3.59-8.71-8.28s3.59-8.59,8.28-8.71
			c0.03,0,0.05,0,0.08,0c59.37-1.52,125.14-8.19,168.67-12.61c40.1-4.07,45.1-4.4,48.66-3.26c19.95,6.37,39.6,12.35,56.46,17.35
			c0.13-5.63,1.89-11.1,5.17-15.65c2.97-4.13,6.75-7.36,10.97-9.61l0.93-1.81c-1.28-2.43-2.24-5.03-2.83-7.73
			c-1.72-7.93-0.07-16.17,4.54-22.59c4.18-5.84,10.12-9.87,16.64-11.85c-0.78-1.8-1.39-3.66-1.81-5.58c-0.17-0.8-0.3-1.6-0.41-2.4
			c-4.33,3.45-9.26,6.93-14.89,10.34c-1.38,0.84-2.9,1.23-4.4,1.23c-2.87,0-5.68-1.46-7.27-4.09c-2.44-4.01-1.16-9.24,2.86-11.68
			c16.43-9.97,25.68-20.21,30.55-27.05c5.23-7.34,6.66-12.43,6.67-12.48l1.66-6.66l6.72,0.31c0.13,0,19.01-0.13,40.69-16.73
			l5.16-3.95l5.17,3.95c0.01,0.01,4.21,3.14,15.94,9.78c13.32,7.54,27.9,4.39,36.34-0.6c1.46-0.86,2.91-2.55,3.1-3.6
			c0.02-0.13,0.1-0.53-0.69-1.5c-5.92-7.31-20.16-17.35-30.55-24.68c-4.6-3.24-8.56-6.04-11.27-8.21
			c-8.17-6.54-12.7-6.93-22.63-7.79l-1.87-0.16c-20.82-1.84-51.09-1.96-68.66,1.37c-11.83,2.25-27.16,13.69-39.48,22.89
			c-9.53,7.11-17.37,12.96-24.18,15.59l0.7,0.9l-6.64,0.49l-1-0.17c-1.06-0.18-107.13-17.64-231.66-20.93
			c-0.12,0-0.24-0.01-0.36-0.01c-4.69-0.12-8.4-4.03-8.27-8.72c0.12-4.69,3.99-8.39,8.72-8.27
			c116.75,3.06,217.55,18.49,232.46,20.86c4.38-1.64,12.67-7.83,20.07-13.35c14.44-10.78,30.8-22.99,46.48-25.97
			c19.98-3.79,52.01-3.49,73.33-1.61l1.84,0.16c2.49,0.21,4.86,0.42,7.18,0.73l26.61-51.38l-3.39-1.67l-0.67-4.07
			c-0.02-0.08-2.68-14.08-17.52-31.36c-25.13-29.27-65.11-45.2-94.23-53.41l-21.04-5.93l19.88-9.09
			c35.21-16.11,62.38-23.03,88.12-22.4c24,0.58,48.1,7.65,80.59,23.64l39.74,19.57c10.03,4.94,16.84,8.29,17,8.37l5.83,2.86
			l-1.58,6.3c-0.35,1.49-3.11,15.4,11.16,22.43c4.71,2.32,9.47,4.12,13.96,5.53l10.85-22.03l52.49,25.8L578.39,252.46z
			 M195.75-195.74c5.09,0,9.62,1.51,11.69,3.21l-1.89,28.86c-4.15-2.45-8.68-3.58-14.52-3.58c-11.32,0-18.29,5.28-18.29,19.43v38.47
			h-30.55v-84.11h30.55v14.9C175.76-188.01,184.62-195.74,195.75-195.74z M373.37-478.54c0,30.06-22.31,50.67-50.67,50.67
			s-50.67-20.61-50.67-50.67c0-30.06,22.31-50.67,50.67-50.67S373.37-508.6,373.37-478.54z M349.97-588.45v-9.19h3.34v9.19H349.97z
			 M380.73-319.04v-54.08h24.17v97.62h-21.07l-42.15-57.8v57.8h-24.17v-97.62h25.1L380.73-319.04z M378.52-588.45v-9.19h3.34v9.19
			H378.52z M405.11-21.81c-1.11,0-1.48,0.91-1.48,2.29v4.51h-3.34v-4.89c0-1.26-0.25-1.92-1.26-1.92c-1.09,0-1.48,0.91-1.48,2.29
			v4.51h-3.34v-9.19h3.34v1.38c0.5-1.01,1.48-1.63,2.87-1.63c1.63,0,2.47,0.74,2.87,1.81c0.49-1.03,1.59-1.81,3.13-1.81
			c2.54,0,3.28,1.75,3.28,3.67v5.77h-3.34v-4.89C406.34-21.15,406.12-21.81,405.11-21.81z M388.99-18.18l-1.36-0.21
			c-2.23-0.35-3.4-1.07-3.4-2.95c0-1.81,1.59-3.11,4.16-3.11c2.66,0,4.23,1.18,4.41,3.09l-2.74,0.08c-0.12-0.66-0.7-1.07-1.73-1.07
			c-0.64,0-1.01,0.25-1.01,0.66c0,0.31,0.25,0.47,0.56,0.52l1.79,0.31c2.06,0.33,3.26,1.26,3.26,3.05c0,1.94-1.65,3.05-4.27,3.05
			c-2.54,0-4.43-1.01-4.62-3.24l2.91-0.04c0.12,0.76,0.74,1.2,1.75,1.2c0.74,0,1.13-0.27,1.13-0.64
			C389.83-17.83,389.63-18.08,388.99-18.18z M384.92-107.48c-10.37,0-18.48-5.28-21.31-14.9c-4.9,9.81-14.52,14.9-27.91,14.9
			c-16.41,0-27.16-8.49-27.16-22.82c0-16.22,11.69-23.2,29.99-26.4l23.57-3.96v-1.32c0-6.98-3.21-11.13-10.56-11.13
			c-6.79,0-10.18,4.34-11.5,10.56l-28.29-1.89c2.64-18.48,16.41-31.31,41.68-31.31c22.25,0,38.66,9.62,38.66,33v28.67
			c0,4.34,1.89,6.22,5.09,6.22c2.45,0,4.34-0.38,6.79-1.32v16.22C399.63-109.93,393.6-107.48,384.92-107.48z M379.53-25.07v-2.93
			h3.38v2.93H379.53z M382.89-24.2v9.19h-3.34v-9.19H382.89z M377.73-27.99v12.99h-3.34v-12.99H377.73z M367.7-21.97
			c-0.74,0-1.11,0.47-1.26,1.15l-3.09-0.21c0.29-2.02,1.79-3.42,4.56-3.42c2.43,0,4.23,1.05,4.23,3.61v3.13
			c0,0.47,0.21,0.68,0.56,0.68c0.27,0,0.47-0.04,0.74-0.14v1.77c-0.47,0.33-1.13,0.6-2.08,0.6c-1.13,0-2.02-0.58-2.33-1.63
			c-0.54,1.07-1.59,1.63-3.05,1.63c-1.79,0-2.97-0.93-2.97-2.49c0-1.77,1.28-2.54,3.28-2.89l2.58-0.43v-0.14
			C368.85-21.52,368.5-21.97,367.7-21.97z M355.25-21.89v-2.06l0.68-0.1c0.93-0.14,1.22-0.64,1.44-1.48l0.31-1.2h2.1v2.54h2.39v2.31
			h-2.39v3.36c0,0.78,0.37,1.09,1.05,1.09c0.41,0,0.87-0.08,1.42-0.31v2.16c-0.7,0.52-1.5,0.82-2.76,0.82
			c-1.55,0-3.01-0.64-3.01-2.8v-4.33H355.25z M350.98-25.07v-2.93h3.38v2.93H350.98z M354.34-24.2v9.19H351v-9.19H354.34z
			 M345.6-24.45c2.7,0,4.08,2.14,4.08,4.84c0,2.72-1.38,4.84-4.08,4.84c-1.55,0-2.58-0.74-3.03-1.81v4.86h-3.34V-24.2h3.34v1.59
			C343.03-23.71,344.06-24.45,345.6-24.45z M332.54-21.97c-0.74,0-1.11,0.47-1.26,1.15l-3.09-0.21c0.29-2.02,1.79-3.42,4.56-3.42
			c2.43,0,4.23,1.05,4.23,3.61v3.13c0,0.47,0.21,0.68,0.56,0.68c0.27,0,0.47-0.04,0.74-0.14v1.77c-0.47,0.33-1.13,0.6-2.08,0.6
			c-1.13,0-2.02-0.58-2.33-1.63c-0.54,1.07-1.59,1.63-3.05,1.63c-1.79,0-2.97-0.93-2.97-2.49c0-1.77,1.28-2.54,3.28-2.89l2.58-0.43
			v-0.14C333.69-21.52,333.34-21.97,332.54-21.97z M320.73-17.87c2.02,0,2.8-1.34,3.01-2.78l3.36,0.14
			c-0.25,3.24-2.37,5.75-6.35,5.75c-3.79,0-6.66-2.74-6.66-6.74c0-4,2.87-6.74,6.66-6.74c3.98,0,6.1,2.54,6.35,5.77l-3.36,0.12
			c-0.21-1.44-0.99-2.78-3.01-2.78c-1.92,0-3.03,1.42-3.03,3.63C317.7-19.29,318.81-17.87,320.73-17.87z M310.64-20.49l-0.43,2.06
			h-2.04l-0.8,3.42h-2.49l0.8-3.42h-1.77l-0.8,3.42h-2.49l0.8-3.42h-1.81l0.43-2.06h1.88l0.49-2.02h-1.98l0.43-2.06h2.02l0.82-3.42
			h2.49l-0.83,3.42h1.77l0.82-3.42h2.49l-0.82,3.42h1.83l-0.43,2.06h-1.88l-0.49,2.02H310.64z M211.6-127.85
			c0-8.11,5.28-14.33,14.33-17.73c-7.54-4.9-12.07-12.07-12.07-21.31c0-17.92,16.97-28.86,40.55-28.86c10.18,0,19.8,2.45,26.97,6.79
			c5.09-6.98,14.33-13.01,23.57-13.01v23.01c-3.58,0-8.11,0.38-12.26,1.32c1.7,3.21,2.64,6.79,2.64,10.75
			c0,17.73-17.16,28.67-40.93,28.67c-6.79,0-12.82-0.75-18.29-2.45c-1.13,0.94-1.7,2.26-1.7,3.96c0,2.83,2.07,5.09,7.17,5.09h34.89
			c19.05,0,28.67,10,28.67,24.14c0,20.93-25.46,30.55-52.81,30.55c-23.95,0-44.7-4.71-44.7-20.56c0-7.36,6.6-13.2,16.03-13.96
			C216.12-113.89,211.6-120.68,211.6-127.85z M310.07-275.5h-28.05l-7.28-18.9h-38.12l-7.28,18.9h-26.5l38.89-97.62h29.44
			L310.07-275.5z M443.39-193.48v12.64c4.53-9.24,14.52-14.9,27.16-14.9c23.01,0,30.36,16.03,30.36,33.57v52.81h-30.55v-44.7
			c0-11.5-3.21-17.54-12.45-17.54c-10.37,0-14.52,8.3-14.52,20.93v41.3h-30.55v-84.11H443.39z M419.78-275.5v-97.62h26.34v97.62
			H419.78z M483.38-504.1v-23.24h26.19v21.69c0,15.19-8.83,21.54-26.19,22v-11.93c7.44-0.31,11.62-2.32,11.78-8.52H483.38z
			 M506.7-374.98c29.91,0,45.87,19.06,47.73,43.39l-25.26,0.93c-1.55-10.85-7.44-20.92-22.62-20.92
			c-14.41,0-22.78,10.69-22.78,27.27c0,16.58,8.37,27.27,22.78,27.27c15.19,0,21.07-10.07,22.62-20.92l25.26,1.08
			c-1.86,24.33-17.82,43.23-47.73,43.23c-28.51,0-50.05-20.61-50.05-50.67C456.65-354.37,478.19-374.98,506.7-374.98z M516.38-201.4
			v-26.78h30.93v26.78H516.38z M547.12-193.48v84.11h-30.55v-84.11H547.12z M488.51-18.18l-1.36-0.21c-2.23-0.35-3.4-1.07-3.4-2.95
			c0-1.81,1.59-3.11,4.16-3.11c2.66,0,4.23,1.18,4.41,3.09l-2.74,0.08c-0.12-0.66-0.7-1.07-1.73-1.07c-0.64,0-1.01,0.25-1.01,0.66
			c0,0.31,0.25,0.47,0.56,0.52l1.79,0.31c2.06,0.33,3.26,1.26,3.26,3.05c0,1.94-1.65,3.05-4.27,3.05c-2.54,0-4.43-1.01-4.62-3.24
			l2.91-0.04c0.12,0.76,0.74,1.2,1.75,1.2c0.74,0,1.13-0.27,1.13-0.64C489.36-17.83,489.15-18.08,488.51-18.18z M476.19-14.76
			c-2.51,0-3.28-1.73-3.28-3.65v-5.79h3.34v4.91c0,1.24,0.35,1.92,1.36,1.92c1.05,0,1.46-0.91,1.46-2.31v-4.51h3.34v9.19h-3.34
			v-1.38C478.58-15.36,477.57-14.76,476.19-14.76z M470.71-24.45c0.56,0,1.05,0.17,1.28,0.35l-0.21,3.15
			c-0.45-0.27-0.95-0.39-1.59-0.39c-1.24,0-2,0.58-2,2.12v4.21h-3.34v-9.19h3.34v1.63C468.52-23.6,469.49-24.45,470.71-24.45z
			 M459.68-25.07v-2.93h3.38v2.93H459.68z M463.04-24.2v9.19h-3.34v-9.19H463.04z M458.8-27.99l-4.99,12.99h-3.69l-4.99-12.99h3.67
			l3.22,8.64h0.08l3.22-8.64H458.8z M443.33-15.01h-3.73l-0.97-2.51h-5.07l-0.97,2.51h-3.52l5.17-12.99h3.92L443.33-15.01z
			 M422.96-18.18l-1.36-0.21c-2.23-0.35-3.4-1.07-3.4-2.95c0-1.81,1.59-3.11,4.16-3.11c2.66,0,4.23,1.18,4.41,3.09l-2.74,0.08
			c-0.12-0.66-0.7-1.07-1.73-1.07c-0.64,0-1.01,0.25-1.01,0.66c0,0.31,0.25,0.47,0.56,0.52l1.79,0.31c2.06,0.33,3.26,1.26,3.26,3.05
			c0,1.94-1.65,3.05-4.27,3.05c-2.54,0-4.43-1.01-4.62-3.24l2.91-0.04c0.12,0.76,0.74,1.2,1.75,1.2c0.74,0,1.13-0.27,1.13-0.64
			C423.8-17.83,423.6-18.08,422.96-18.18z M416.78-27.99v12.99h-3.5v-12.99H416.78z M635.76-109.36h-75.44v-20.93l37.34-41.11
			h-36.59v-22.07h73.74v20.75l-37.91,41.3h38.85V-109.36z M559.54-275.5v-26.65h26.65v26.65H559.54z M769.54,443.12
			c0-0.39-0.04-0.89-0.14-1.34c-0.35,0.19-0.74,0.29-1.18,0.29c-1.94,0-3.13-1.88-3.13-4.47c0-0.74,0.08-1.4,0.27-2
			c-0.1-0.12-0.25-0.19-0.43-0.19c-0.31,0-0.56,0.23-0.56,0.78v3.81c0,2.08-1.09,3.13-2.64,3.13c-2.29,0-3.34-2.78-3.34-5.77
			c0-2.62,0.52-4.89,2.25-4.89c0.8,0,1.44,0.72,1.53,1.75c0.27-0.82,1.01-1.32,1.79-1.32c0.89,0,1.57,0.58,1.94,1.57
			c0.54-0.82,1.32-1.32,2.33-1.32c1.96,0,3.15,1.86,3.15,4.43c0,1.11-0.27,2.16-0.74,2.95c0.76,0.56,1.42,1.57,1.42,2.58H769.54z
			 M761.72,239.66c0-1.79,0.93-2.97,2.49-2.97c1.77,0,2.54,1.28,2.89,3.28l0.43,2.58h0.14c0.76,0,1.22-0.35,1.22-1.15
			c0-0.74-0.47-1.11-1.15-1.26l0.21-3.09c2.02,0.29,3.42,1.79,3.42,4.56c0,2.43-1.05,4.23-3.61,4.23h-3.13
			c-0.47,0-0.68,0.21-0.68,0.56c0,0.27,0.04,0.47,0.14,0.74h-1.77c-0.33-0.47-0.6-1.13-0.6-2.08c0-1.13,0.58-2.02,1.63-2.33
			C762.28,242.17,761.72,241.12,761.72,239.66z M764.09,282.28h-1.77c-0.33-0.47-0.6-1.13-0.6-2.08c0-1.13,0.58-2.02,1.63-2.33
			c-1.07-0.54-1.63-1.59-1.63-3.05c0-1.79,0.93-2.97,2.49-2.97c1.77,0,2.54,1.28,2.89,3.28l0.43,2.58h0.14
			c0.76,0,1.22-0.35,1.22-1.15c0-0.74-0.47-1.11-1.15-1.26l0.21-3.09c2.02,0.29,3.42,1.79,3.42,4.56c0,2.43-1.05,4.23-3.61,4.23
			h-3.13c-0.47,0-0.68,0.21-0.68,0.56C763.95,281.81,763.99,282.01,764.09,282.28z M771.37,315.26c0,2.54-1.75,3.28-3.67,3.28h-5.77
			v-3.34h4.89c1.26,0,1.92-0.23,1.92-1.24c0-1.11-0.91-1.48-2.29-1.48h-4.51v-3.34h4.89c1.26,0,1.92-0.25,1.92-1.26
			c0-1.09-0.91-1.48-2.29-1.48h-4.51v-3.34h9.19v3.34h-1.38c1.01,0.49,1.63,1.48,1.63,2.87c0,1.63-0.74,2.47-1.81,2.87
			C770.59,312.62,771.37,313.71,771.37,315.26z M768.28,301.65l-0.08-2.74c0.66-0.12,1.07-0.7,1.07-1.73c0-0.64-0.25-1.01-0.66-1.01
			c-0.31,0-0.47,0.25-0.52,0.56l-0.31,1.79c-0.33,2.06-1.26,3.26-3.05,3.26c-1.94,0-3.05-1.65-3.05-4.27c0-2.54,1.01-4.43,3.24-4.62
			l0.04,2.91c-0.76,0.12-1.2,0.74-1.2,1.75c0,0.74,0.27,1.13,0.64,1.13c0.35,0,0.6-0.21,0.7-0.85l0.21-1.36
			c0.35-2.23,1.07-3.4,2.95-3.4c1.81,0,3.11,1.59,3.11,4.16C771.37,299.9,770.2,301.47,768.28,301.65z M764.4,334.32
			c0.35,0,0.6-0.21,0.7-0.85l0.21-1.36c0.35-2.23,1.07-3.4,2.95-3.4c1.81,0,3.11,1.59,3.11,4.16c0,2.66-1.17,4.23-3.09,4.41
			l-0.08-2.74c0.66-0.12,1.07-0.7,1.07-1.73c0-0.64-0.25-1.01-0.66-1.01c-0.31,0-0.47,0.25-0.52,0.56l-0.31,1.79
			c-0.33,2.06-1.26,3.26-3.05,3.26c-1.94,0-3.05-1.65-3.05-4.27c0-2.54,1.01-4.43,3.24-4.62l0.04,2.91c-0.76,0.12-1.2,0.74-1.2,1.75
			C763.76,333.93,764.03,334.32,764.4,334.32z M766.13,428.67h-4.21v-3.34h9.19v3.34h-1.63c1.03,0.33,1.88,1.3,1.88,2.51
			c0,0.56-0.17,1.05-0.35,1.28l-3.15-0.21c0.27-0.45,0.39-0.95,0.39-1.59C768.26,429.44,767.68,428.67,766.13,428.67z
			 M766.53,424.02c-2.87,0-4.84-2.04-4.84-5.03c0-3.01,1.98-5.03,4.84-5.03c2.84,0,4.84,2.02,4.84,5.03
			C771.37,421.98,769.37,424.02,766.53,424.02z M761.93,411.07v-3.55h3.55v3.55H761.93z M768.28,404.56l-0.08-2.74
			c0.66-0.12,1.07-0.7,1.07-1.73c0-0.64-0.25-1.01-0.66-1.01c-0.31,0-0.47,0.25-0.52,0.56l-0.31,1.79
			c-0.33,2.06-1.26,3.26-3.05,3.26c-1.94,0-3.05-1.65-3.05-4.27c0-2.54,1.01-4.43,3.24-4.62l0.04,2.91c-0.76,0.12-1.2,0.74-1.2,1.75
			c0,0.74,0.27,1.13,0.64,1.13c0.35,0,0.6-0.21,0.7-0.85l0.21-1.36c0.35-2.23,1.07-3.4,2.95-3.4c1.81,0,3.11,1.59,3.11,4.16
			C771.37,402.81,770.2,404.37,768.28,404.56z M766.61,391.31h4.51v3.34h-9.19v-3.34h1.38c-1.03-0.49-1.63-1.5-1.63-2.89
			c0-2.51,1.73-3.28,3.65-3.28h5.79v3.34h-4.91c-1.24,0-1.92,0.35-1.92,1.36C764.3,390.89,765.21,391.31,766.61,391.31z
			 M771.02,384.22l-3.15-0.21c0.27-0.45,0.39-0.95,0.39-1.59c0-1.24-0.58-2-2.12-2h-4.21v-3.34h9.19v3.34h-1.63
			c1.03,0.33,1.88,1.3,1.88,2.52C771.37,383.5,771.21,383.99,771.02,384.22z M771.12,375.27h-9.19v-3.34h9.19V375.27z
			 M771.12,291.74h-9.19v-3.34h9.19V291.74z M771.12,268.63v2.39h-2.31v-2.39h-3.36c-0.78,0-1.09,0.37-1.09,1.05
			c0,0.41,0.08,0.87,0.31,1.42h-2.16c-0.52-0.7-0.82-1.5-0.82-2.76c0-1.55,0.64-3.01,2.8-3.01h4.33v-1.24h2.06l0.1,0.68
			c0.14,0.93,0.64,1.22,1.48,1.44l1.2,0.31v2.1H771.12z M761.93,263.19v-3.34h9.19v3.34H761.93z M771.12,248.08v3.34h-1.59
			c1.09,0.45,1.83,1.48,1.83,3.03c0,2.7-2.14,4.08-4.84,4.08c-2.72,0-4.84-1.38-4.84-4.08c0-1.55,0.74-2.58,1.81-3.03h-4.86v-3.34
			H771.12z M774.92,375.29h-2.93v-3.38h2.93V375.29z M774.92,361.03l-8.64,3.22v0.08l8.64,3.22v3.48l-12.99-4.99v-3.69l12.99-4.99
			V361.03z M774.92,350.33l-12.99,5.17v-3.73l2.51-0.97v-5.07l-2.51-0.97v-3.53l12.99,5.17V350.33z M774.92,327.29h-12.99v-3.5
			h12.99V327.29z M774.92,291.76h-2.93v-3.38h2.93V291.76z M774.92,286.59h-12.99v-3.34h12.99V286.59z M774.92,263.21h-2.93v-3.38
			h2.93V263.21z M769.39,235.95l-0.12-3.36c1.44-0.21,2.78-0.99,2.78-3.01c0-1.92-1.42-3.03-3.63-3.03s-3.63,1.11-3.63,3.03
			c0,2.02,1.34,2.8,2.78,3.01l-0.14,3.36c-3.24-0.25-5.75-2.37-5.75-6.35c0-3.79,2.74-6.66,6.74-6.66s6.74,2.87,6.74,6.66
			C775.16,233.58,772.63,235.7,769.39,235.95z M761.93,205.13v-3.28l9.06-2.86l-9.06-2.86v-3.28l5.19-1.34v-0.08l-5.19-1.34v-3.28
			l9.06-2.86l-9.06-2.86v-3.28l5.19-1.34v-0.08l-5.19-1.34v-3.28l9.19-2.91v3.32l-5.22,1.65v0.08l5.22,1.34v2.66l-5.22,1.34v0.08
			l5.22,1.65v2.92v0.09v3.23l-5.22,1.65v0.08l5.22,1.34v2.66l-5.22,1.34v0.08l5.22,1.65v2.92v0.09v3.23l-5.22,1.65V204l5.22,1.34
			V208l-5.22,1.34v0.08l5.22,1.65v3.01l-9.19-2.91v-3.28l5.19-1.34v-0.08L761.93,205.13z M765.47,216.51v3.55h-3.55v-3.55H765.47z
			 M742.14-228.18h32.44v30.55l-6.41,48.66h-19.61l-6.41-48.66V-228.18z M742.14-141.8h32.44v32.44h-32.44V-141.8z M732.33-153.68
			v8.49H673.3c0.75,10.37,8.3,15.28,17.54,15.28c8.3,0,13.58-2.83,16.41-9.43l24.52,2.26c-4.34,19.24-19.8,29.99-42.06,29.99
			c-26.97,0-46.21-16.22-46.21-43c0-26.59,19.61-45.64,45.83-45.64C717.43-195.74,732.33-176.5,732.33-153.68z M631.44-302.15h26.65
			v26.65h-26.65V-302.15z M622.14-275.5h-26.65v-26.65h26.65V-275.5z M611.68-505.65h-33.93v75.93h-26.19v-75.93h-33.47v-21.69
			h93.59V-505.65z M523.04-590.47c0-0.89,0.58-1.57,1.57-1.94c-0.82-0.54-1.32-1.32-1.32-2.33c0-1.96,1.86-3.15,4.43-3.15
			c1.11,0,2.16,0.27,2.95,0.74c0.56-0.76,1.57-1.42,2.58-1.42v2.51c-0.39,0-0.89,0.04-1.34,0.14c0.19,0.35,0.29,0.74,0.29,1.17
			c0,1.94-1.88,3.13-4.47,3.13c-0.74,0-1.4-0.08-2-0.27c-0.12,0.1-0.19,0.25-0.19,0.43c0,0.31,0.23,0.56,0.78,0.56h3.81
			c2.08,0,3.13,1.09,3.13,2.64c0,2.29-2.78,3.34-5.77,3.34c-2.62,0-4.89-0.52-4.89-2.25c0-0.8,0.72-1.44,1.75-1.53
			C523.53-588.94,523.04-589.68,523.04-590.47z M515.45-597.64h3.34v1.63c0.33-1.03,1.3-1.88,2.52-1.88c0.56,0,1.05,0.16,1.28,0.35
			l-0.21,3.15c-0.45-0.27-0.95-0.39-1.59-0.39c-1.24,0-2,0.58-2,2.12v4.21h-3.34V-597.64z M509.1-597.89c2.99,0,5.03,2,5.03,4.84
			c0,2.87-2.04,4.84-5.03,4.84c-3.01,0-5.03-1.98-5.03-4.84C504.07-595.89,506.09-597.89,509.1-597.89z M497.64-591.99h3.55v3.55
			h-3.55V-591.99z M490.86-591.62l-1.36-0.21c-2.23-0.35-3.4-1.07-3.4-2.95c0-1.81,1.59-3.11,4.16-3.11c2.66,0,4.23,1.18,4.41,3.09
			l-2.74,0.08c-0.12-0.66-0.7-1.07-1.73-1.07c-0.64,0-1.01,0.25-1.01,0.66c0,0.31,0.25,0.47,0.56,0.52l1.79,0.31
			c2.06,0.33,3.26,1.26,3.26,3.05c0,1.94-1.65,3.05-4.27,3.05c-2.54,0-4.43-1.01-4.62-3.24l2.91-0.04c0.12,0.76,0.74,1.2,1.75,1.2
			c0.74,0,1.13-0.27,1.13-0.64C491.71-591.27,491.5-591.52,490.86-591.62z M475.26-597.64h3.34v4.91c0,1.24,0.35,1.92,1.36,1.92
			c1.05,0,1.46-0.91,1.46-2.31v-4.51h3.34v9.19h-3.34v-1.38c-0.49,1.03-1.5,1.63-2.89,1.63c-2.52,0-3.28-1.73-3.28-3.65V-597.64z
			 M467.2-597.64h3.34v1.63c0.33-1.03,1.3-1.88,2.52-1.88c0.56,0,1.05,0.16,1.28,0.35l-0.21,3.15c-0.45-0.27-0.95-0.39-1.59-0.39
			c-1.24,0-2,0.58-2,2.12v4.21h-3.34V-597.64z M462.03-601.43h3.38v2.93h-3.38V-601.43z M465.39-597.64v9.19h-3.34v-9.19H465.39z
			 M451.15-601.43l3.22,8.64h0.08l3.22-8.64h3.48l-4.99,12.99h-3.69l-4.99-12.99H451.15z M436.54-601.43h3.92l5.17,12.99h-3.73
			l-0.97-2.52h-5.07l-0.97,2.52h-3.52L436.54-601.43z M423.59-591.62l-1.36-0.21c-2.23-0.35-3.4-1.07-3.4-2.95
			c0-1.81,1.59-3.11,4.16-3.11c2.66,0,4.23,1.18,4.41,3.09l-2.74,0.08c-0.12-0.66-0.7-1.07-1.73-1.07c-0.64,0-1.01,0.25-1.01,0.66
			c0,0.31,0.25,0.47,0.56,0.52l1.79,0.31c2.06,0.33,3.26,1.26,3.26,3.05c0,1.94-1.65,3.05-4.27,3.05c-2.54,0-4.43-1.01-4.62-3.24
			l2.91-0.04c0.12,0.76,0.74,1.2,1.75,1.2c0.74,0,1.13-0.27,1.13-0.64C424.44-591.27,424.23-591.52,423.59-591.62z M413.91-601.43
			h3.5v12.99h-3.5V-601.43z M447.12-473.27v-54.08h24.17v97.62h-21.07l-42.15-57.8v57.8H383.9v-97.62h25.1L447.12-473.27z
			 M393.17-597.64h3.34v1.38c0.49-1.01,1.48-1.63,2.87-1.63c1.63,0,2.47,0.74,2.87,1.81c0.49-1.03,1.59-1.81,3.13-1.81
			c2.54,0,3.28,1.75,3.28,3.67v5.77h-3.34v-4.89c0-1.26-0.23-1.92-1.24-1.92c-1.11,0-1.48,0.91-1.48,2.29v4.51h-3.34v-4.89
			c0-1.26-0.25-1.92-1.26-1.92c-1.09,0-1.48,0.91-1.48,2.29v4.51h-3.34V-597.64z M387.96-591.62l-1.36-0.21
			c-2.23-0.35-3.4-1.07-3.4-2.95c0-1.81,1.59-3.11,4.16-3.11c2.66,0,4.23,1.18,4.41,3.09l-2.74,0.08c-0.12-0.66-0.7-1.07-1.73-1.07
			c-0.64,0-1.01,0.25-1.01,0.66c0,0.31,0.25,0.47,0.56,0.52l1.79,0.31c2.06,0.33,3.26,1.26,3.26,3.05c0,1.94-1.65,3.05-4.27,3.05
			c-2.54,0-4.43-1.01-4.62-3.24l2.91-0.04c0.12,0.76,0.74,1.2,1.75,1.2c0.74,0,1.13-0.27,1.13-0.64
			C388.8-591.27,388.6-591.52,387.96-591.62z M378.5-601.43h3.38v2.93h-3.38V-601.43z M373.37-601.43h3.34v12.99h-3.34V-601.43z
			 M366.67-595.41c-0.74,0-1.11,0.47-1.26,1.15l-3.09-0.21c0.29-2.02,1.79-3.42,4.56-3.42c2.43,0,4.23,1.05,4.23,3.61v3.13
			c0,0.47,0.21,0.68,0.56,0.68c0.27,0,0.47-0.04,0.74-0.14v1.77c-0.47,0.33-1.13,0.6-2.08,0.6c-1.13,0-2.02-0.58-2.33-1.63
			c-0.54,1.07-1.59,1.63-3.05,1.63c-1.79,0-2.97-0.93-2.97-2.49c0-1.77,1.28-2.54,3.28-2.89l2.58-0.43v-0.14
			C367.82-594.96,367.47-595.41,366.67-595.41z M354.22-597.39l0.68-0.1c0.93-0.14,1.22-0.64,1.44-1.48l0.31-1.2h2.1v2.54h2.39v2.31
			h-2.39v3.36c0,0.78,0.37,1.09,1.05,1.09c0.41,0,0.87-0.08,1.42-0.31v2.16c-0.7,0.52-1.5,0.82-2.76,0.82
			c-1.55,0-3.01-0.64-3.01-2.8v-4.33h-1.24V-597.39z M349.95-601.43h3.38v2.93h-3.38V-601.43z M338.2-597.64h3.34v1.59
			c0.45-1.09,1.48-1.83,3.03-1.83c2.7,0,4.08,2.14,4.08,4.84c0,2.72-1.38,4.84-4.08,4.84c-1.55,0-2.58-0.74-3.03-1.81v4.87h-3.34
			V-597.64z M331.51-595.41c-0.74,0-1.11,0.47-1.26,1.15l-3.09-0.21c0.29-2.02,1.79-3.42,4.56-3.42c2.43,0,4.23,1.05,4.23,3.61v3.13
			c0,0.47,0.21,0.68,0.56,0.68c0.27,0,0.47-0.04,0.74-0.14v1.77c-0.47,0.33-1.13,0.6-2.08,0.6c-1.13,0-2.02-0.58-2.33-1.63
			c-0.54,1.07-1.59,1.63-3.05,1.63c-1.79,0-2.97-0.93-2.97-2.49c0-1.77,1.28-2.54,3.28-2.89l2.58-0.43v-0.14
			C332.66-594.96,332.31-595.41,331.51-595.41z M319.72-601.68c3.98,0,6.1,2.54,6.35,5.77l-3.36,0.12
			c-0.21-1.44-0.99-2.78-3.01-2.78c-1.92,0-3.03,1.42-3.03,3.63s1.11,3.63,3.03,3.63c2.02,0,2.8-1.34,3.01-2.78l3.36,0.14
			c-0.25,3.24-2.37,5.75-6.35,5.75c-3.79,0-6.66-2.74-6.66-6.74S315.92-601.68,319.72-601.68z M306.63-591.99h3.55v3.55h-3.55
			V-591.99z M262.3-597.64l1.65,5.22h0.08l1.34-5.22h2.66l1.34,5.22h0.08l1.65-5.22h2.92h0.09h3.23l1.65,5.22h0.08l1.34-5.22h2.66
			l1.34,5.22h0.08l1.65-5.22h2.92h0.09h3.23l1.65,5.22h0.08l1.34-5.22h2.66l1.34,5.22h0.08l1.65-5.22h3.01l-2.91,9.19h-3.28
			l-1.34-5.19h-0.08l-1.34,5.19h-3.28l-2.86-9.06l-2.86,9.06h-3.28l-1.34-5.19h-0.08l-1.34,5.19h-3.28l-2.86-9.06l-2.86,9.06h-3.28
			l-1.34-5.19h-0.08l-1.34,5.19h-3.28l-2.91-9.19H262.3z M174.1-527.35h38.58c32.39,0,52.37,18.28,52.37,48.81
			c0,30.53-19.99,48.81-52.37,48.81H174.1V-527.35z M126.92-373.12h42.92c25.57,0,40.44,11.93,40.44,33.47
			c0,21.69-14.88,33.62-40.44,33.62h-16.73v30.53h-26.19V-373.12z M68.44-230.44c34.51,0,61.67,25.08,61.67,61.67
			c0,36.59-27.16,61.67-61.67,61.67S6.77-132.18,6.77-168.77C6.77-205.36,33.93-230.44,68.44-230.44z"/>
		<path class="st5" d="M766.53,417.32c-1.38,0-2.33,0.49-2.33,1.67c0,1.15,0.95,1.67,2.33,1.67s2.33-0.52,2.33-1.67
			C768.86,417.81,767.91,417.32,766.53,417.32z"/>
		<path class="st5" d="M768.22,436.67c-0.82,0-1.34,0.41-1.34,0.97s0.52,0.97,1.34,0.97c0.8,0,1.32-0.41,1.32-0.97
			S769.02,436.67,768.22,436.67z"/>
		<path class="st5" d="M765.76,277.7h0.14l-0.25-1.36c-0.17-0.8-0.41-1.28-1.01-1.28c-0.47,0-0.78,0.37-0.78,0.93
			C763.87,276.94,764.57,277.7,765.76,277.7z"/>
		<path class="st5" d="M760.96,435.23c-0.66,0-0.85,0.93-0.85,2.17c0,1.55,0.31,2.68,0.87,2.68c0.39,0,0.54-0.29,0.54-0.85v-3.38
			C761.52,435.47,761.31,435.23,760.96,435.23z"/>
		<path class="st5" d="M765.76,242.54h0.14l-0.25-1.36c-0.17-0.8-0.41-1.28-1.01-1.28c-0.47,0-0.78,0.37-0.78,0.93
			C763.87,241.78,764.57,242.54,765.76,242.54z"/>
		<path class="st5" d="M422.22,232.46c2.57,1.42,5.26,3.22,8.15,5.53c2.3,1.84,6.07,4.5,10.44,7.59c3.86,2.72,8.03,5.66,12.15,8.71
			l25.38-55.76l-30.72-15.13L422.22,232.46z"/>
		<path class="st5" d="M310.95,447.32l-29.7,57.35l47.17,23.23l26.44-58.09c-12.96-5.04-25.55-11.03-37.67-17.93
			C314.91,450.59,312.83,449.05,310.95,447.32z"/>
		<path d="M570.23,136.64c-4.49-1.4-9.25-3.2-13.96-5.53c-14.27-7.03-11.51-20.93-11.16-22.43l1.58-6.3l-5.83-2.86
			c-0.16-0.08-6.97-3.43-17-8.37l-39.74-19.57c-32.49-16-56.59-23.07-80.59-23.64c-25.74-0.63-52.91,6.29-88.12,22.4l-19.88,9.09
			l21.04,5.93c29.11,8.21,69.09,24.14,94.23,53.41c14.84,17.28,17.5,31.28,17.52,31.36l0.67,4.07l3.39,1.67l-26.61,51.38
			c-2.32-0.3-4.69-0.51-7.18-0.73l-1.84-0.16c-21.31-1.89-53.35-2.19-73.33,1.61c-15.68,2.98-32.04,15.19-46.48,25.97
			c-7.4,5.53-15.7,11.71-20.07,13.35c-14.91-2.37-115.71-17.8-232.46-20.86c-4.73-0.11-8.6,3.58-8.72,8.27
			c-0.12,4.69,3.58,8.6,8.27,8.72c0.12,0,0.24,0.01,0.36,0.01c124.52,3.29,230.6,20.75,231.66,20.93l1,0.17l6.64-0.49l-0.7-0.9
			c6.81-2.63,14.65-8.48,24.18-15.59c12.32-9.2,27.65-20.65,39.48-22.89c17.56-3.34,47.84-3.22,68.66-1.37l1.87,0.16
			c9.93,0.86,14.46,1.25,22.63,7.79c2.7,2.16,6.67,4.96,11.27,8.21c10.39,7.33,24.62,17.37,30.55,24.68
			c0.79,0.97,0.72,1.37,0.69,1.5c-0.19,1.05-1.64,2.74-3.1,3.6c-8.44,4.99-23.03,8.15-36.34,0.6c-11.73-6.64-15.93-9.77-15.94-9.78
			l-5.17-3.95l-5.16,3.95c-21.67,16.59-40.56,16.72-40.69,16.73l-6.72-0.31l-1.66,6.66c-0.01,0.05-1.44,5.14-6.67,12.48
			c-4.87,6.84-14.13,17.09-30.55,27.05c-4.01,2.44-5.29,7.66-2.86,11.68c1.6,2.63,4.4,4.09,7.27,4.09c1.5,0,3.02-0.4,4.4-1.23
			c5.62-3.41,10.55-6.89,14.89-10.34c0.11,0.8,0.24,1.6,0.41,2.4c0.42,1.92,1.03,3.79,1.81,5.58c-6.52,1.98-12.46,6.01-16.64,11.85
			c-4.61,6.43-6.27,14.66-4.54,22.59c0.59,2.7,1.54,5.29,2.83,7.73l-0.93,1.81c-4.22,2.25-8,5.48-10.97,9.61
			c-3.27,4.55-5.04,10.02-5.17,15.65c-16.86-5.01-36.51-10.98-56.46-17.35c-3.56-1.14-8.57-0.8-48.66,3.26
			c-43.53,4.41-109.3,11.08-168.67,12.61c-0.03,0-0.05,0-0.08,0c-4.69,0.12-8.4,4.02-8.28,8.71s4,8.39,8.71,8.28
			c60.03-1.54,126.23-8.25,170.03-12.69c19.63-1.99,38.22-3.87,42.5-3.75c19.63,6.26,38.95,12.14,55.6,17.09l-37.28,71.99
			l78.45,38.63l34.32-75.39c7.58,2.44,15.27,4.57,23.06,6.36l0.02,0.01c2.51,0.57,5.04,0.85,7.54,0.85c6.62,0,13.04-1.96,18.35-5.71
			c6.63-4.68,10.96-11.84,11.88-19.63c0.58-4.87-0.03-9.67-1.59-14.1c4.18-0.88,8.14-2.56,11.62-5.03
			c6.62-4.7,10.96-11.89,11.89-19.71c0.66-5.53-0.19-10.96-2.23-15.85c3.42-0.96,6.67-2.46,9.57-4.52
			c6.62-4.7,10.96-11.89,11.89-19.7c0.99-8.2-1.37-16.21-6.01-22.52c0.39-0.25,0.79-0.49,1.17-0.76c6.62-4.7,10.95-11.89,11.89-19.7
			c1.47-12.23-4.48-24.01-14.35-30.4c0.73-0.39,1.45-0.78,2.13-1.19c4.57-2.7,9.9-8.12,11.18-15.23c0.67-3.74,0.49-9.41-4.22-15.21
			c-2.16-2.67-4.95-5.44-8.11-8.24l26.95-59.2l2.66,1.29l3.72-6.63c1.12-1.99,11.41-19.21,28.15-10.97
			c4.78,2.36,8.76,5.09,12.06,7.9l-14.31,29.06l52.49,25.8l55.18-112.05l-52.49-25.8L570.23,136.64z M328.42,527.9l-47.17-23.23
			l29.7-57.35c1.88,1.73,3.96,3.26,6.24,4.55c12.12,6.9,24.71,12.89,37.67,17.93L328.42,527.9z M414.94,455.38
			c-0.36,3.06-2.07,5.81-4.81,7.74c-3.38,2.39-7.87,3.18-12.3,2.17c-25.34-5.85-49.64-15.33-72.25-28.21
			c-3.91-2.21-6.66-5.76-7.54-9.73c-0.72-3.26-0.11-6.44,1.7-8.97c3.47-4.84,9.53-7.04,15.04-5.91
			c23.19,12.82,47.91,22.5,73.63,28.88C412.9,444.34,415.61,449.76,414.94,455.38z M436.86,416.53c-0.37,3.12-2.09,5.91-4.85,7.87
			c-3.33,2.36-7.73,3.17-12.08,2.21l-0.01,0c-28.45-6.26-55.68-16.78-80.93-31.26c-3.82-2.19-6.5-5.7-7.36-9.63
			c-0.71-3.29-0.1-6.51,1.75-9.08c2.87-4,7.48-6.21,12.09-6.21c2.37,0,4.74,0.58,6.88,1.8c20.56,11.78,42.56,20.66,65.5,26.45
			c3.53,1,7.08,1.94,10.65,2.81C434.07,404.04,437.63,410.14,436.86,416.53z M456.09,376.45c-0.37,3.11-2.09,5.91-4.85,7.86
			c-3.33,2.36-7.74,3.17-12.08,2.21l-0.01,0c-28.4-6.25-55.58-16.75-80.8-31.21c-3.82-2.19-6.5-5.7-7.36-9.63
			c-0.72-3.29-0.1-6.51,1.75-9.08c2.5-3.49,6.33-5.61,10.34-6.1c24.98,13.56,51.68,23.52,79.48,29.64c1.05,0.23,2.11,0.4,3.16,0.53
			C452.43,362.57,456.95,369.33,456.09,376.45z M463.15,333.46c-0.37,3.12-2.09,5.91-4.85,7.87c-3.33,2.36-7.73,3.17-12.08,2.21l0,0
			c-28.19-6.2-55.19-16.59-80.25-30.88c7.9-1.52,19.57-5.05,32.54-13.23c17.1,7.93,35.02,13.99,53.5,18.05
			C459.14,319.05,464.04,326.07,463.15,333.46z M452.97,254.28c-4.12-3.04-8.29-5.99-12.15-8.71c-4.37-3.08-8.14-5.74-10.44-7.59
			c-2.89-2.32-5.58-4.11-8.15-5.53l25.41-49.06l30.72,15.13L452.97,254.28z"/>
		<path class="st5" d="M408.41,441.35c-25.72-6.38-50.43-16.07-73.63-28.88c-5.51-1.13-11.57,1.07-15.04,5.91
			c-1.82,2.53-2.42,5.71-1.7,8.97c0.88,3.98,3.62,7.53,7.54,9.73c22.61,12.88,46.9,22.36,72.25,28.21c4.44,1,8.92,0.21,12.3-2.17
			c2.74-1.93,4.45-4.68,4.81-7.74C415.61,449.76,412.9,444.34,408.41,441.35z"/>
		<path class="st5" d="M428.49,401.48c-3.57-0.87-7.12-1.81-10.65-2.81c-22.94-5.79-44.94-14.67-65.5-26.45
			c-2.13-1.22-4.51-1.8-6.88-1.8c-4.61,0-9.22,2.2-12.09,6.21c-1.84,2.57-2.46,5.79-1.75,9.08c0.85,3.93,3.54,7.44,7.36,9.63
			c25.25,14.49,52.48,25.01,80.93,31.26l0.01,0c4.35,0.96,8.75,0.15,12.08-2.21c2.76-1.96,4.48-4.75,4.85-7.87
			C437.63,410.14,434.07,404.04,428.49,401.48z"/>
		<path class="st5" d="M445.72,360.67c-1.06-0.13-2.11-0.3-3.16-0.53c-27.81-6.12-54.51-16.08-79.48-29.64
			c-4,0.48-7.83,2.6-10.34,6.1c-1.84,2.57-2.46,5.79-1.75,9.08c0.86,3.93,3.54,7.44,7.36,9.63c25.22,14.46,52.4,24.96,80.8,31.21
			l0.01,0c4.35,0.96,8.75,0.16,12.08-2.21c2.76-1.96,4.48-4.75,4.85-7.86C456.95,369.33,452.43,362.57,445.72,360.67z"/>
		<path class="st5" d="M452.01,317.47c-18.48-4.06-36.4-10.12-53.5-18.05c-12.97,8.18-24.64,11.71-32.54,13.23
			c25.06,14.29,52.05,24.68,80.25,30.88l0,0c4.35,0.96,8.75,0.15,12.08-2.21c2.76-1.96,4.48-4.75,4.85-7.87
			C464.04,326.07,459.14,319.05,452.01,317.47z"/>
		<polygon points="761.93,207.9 761.93,211.17 771.12,214.08 771.12,211.07 765.91,209.42 765.91,209.34 771.12,208 771.12,205.34 
			765.91,204 765.91,203.92 771.12,202.27 771.12,199.04 771.12,198.95 771.12,196.03 765.91,194.38 765.91,194.29 771.12,192.95 
			771.12,190.3 765.91,188.96 765.91,188.87 771.12,187.22 771.12,183.99 771.12,183.9 771.12,180.98 765.91,179.33 765.91,179.25 
			771.12,177.91 771.12,175.25 765.91,173.91 765.91,173.83 771.12,172.18 771.12,168.86 761.93,171.77 761.93,175.04 
			767.12,176.38 767.12,176.47 761.93,177.81 761.93,181.08 770.99,183.95 761.93,186.81 761.93,190.09 767.12,191.43 
			767.12,191.51 761.93,192.85 761.93,196.13 770.99,198.99 761.93,201.86 761.93,205.13 767.12,206.47 767.12,206.56 		"/>
		<rect x="761.93" y="216.51" width="3.55" height="3.55"/>
		<path d="M768.42,222.94c-4,0-6.74,2.87-6.74,6.66c0,3.98,2.51,6.1,5.75,6.35l0.14-3.36c-1.44-0.21-2.78-0.99-2.78-3.01
			c0-1.92,1.42-3.03,3.63-3.03s3.63,1.11,3.63,3.03c0,2.02-1.34,2.8-2.78,3.01l0.12,3.36c3.24-0.25,5.77-2.37,5.77-6.35
			C775.16,225.81,772.42,222.94,768.42,222.94z"/>
		<path d="M761.72,245.04c0,0.95,0.27,1.61,0.6,2.08h1.77c-0.1-0.27-0.14-0.47-0.14-0.74c0-0.35,0.21-0.56,0.68-0.56h3.13
			c2.56,0,3.61-1.79,3.61-4.23c0-2.76-1.4-4.27-3.42-4.56l-0.21,3.09c0.68,0.14,1.15,0.52,1.15,1.26c0,0.8-0.45,1.15-1.22,1.15
			h-0.14l-0.43-2.58c-0.35-2-1.11-3.28-2.89-3.28c-1.57,0-2.49,1.17-2.49,2.97c0,1.46,0.56,2.52,1.63,3.05
			C762.3,243.02,761.72,243.9,761.72,245.04z M764.65,239.9c0.6,0,0.85,0.47,1.01,1.28l0.25,1.36h-0.14c-1.2,0-1.9-0.76-1.9-1.71
			C763.87,240.27,764.18,239.9,764.65,239.9z"/>
		<path d="M758.63,251.42h4.86c-1.07,0.45-1.81,1.48-1.81,3.03c0,2.7,2.12,4.08,4.84,4.08c2.7,0,4.84-1.38,4.84-4.08
			c0-1.55-0.74-2.58-1.83-3.03h1.59v-3.34h-12.49V251.42z M766.46,251.42h0.12c1.32,0,2.18,0.72,2.18,1.86c0,1.3-0.93,1.9-2.25,1.9
			c-1.34,0-2.27-0.6-2.27-1.9C764.26,252.15,765.12,251.42,766.46,251.42z"/>
		<rect x="761.93" y="259.85" width="9.19" height="3.34"/>
		<rect x="771.99" y="259.83" width="2.93" height="3.38"/>
		<path d="M773.66,266.53l-1.2-0.31c-0.85-0.23-1.34-0.52-1.48-1.44l-0.1-0.68h-2.06v1.24h-4.33c-2.16,0-2.8,1.46-2.8,3.01
			c0,1.26,0.31,2.06,0.82,2.76h2.16c-0.23-0.56-0.31-1.01-0.31-1.42c0-0.68,0.31-1.05,1.09-1.05h3.36v2.39h2.31v-2.39h2.54V266.53z"
			/>
		<path d="M764.63,280.98h3.13c2.56,0,3.61-1.79,3.61-4.23c0-2.76-1.4-4.27-3.42-4.56l-0.21,3.09c0.68,0.14,1.15,0.52,1.15,1.26
			c0,0.8-0.45,1.15-1.22,1.15h-0.14l-0.43-2.58c-0.35-2-1.11-3.28-2.89-3.28c-1.57,0-2.49,1.18-2.49,2.97
			c0,1.46,0.56,2.51,1.63,3.05c-1.05,0.31-1.63,1.2-1.63,2.33c0,0.95,0.27,1.61,0.6,2.08h1.77c-0.1-0.27-0.14-0.47-0.14-0.74
			C763.95,281.19,764.16,280.98,764.63,280.98z M763.87,275.99c0-0.56,0.31-0.93,0.78-0.93c0.6,0,0.85,0.47,1.01,1.28l0.25,1.36
			h-0.14C764.57,277.7,763.87,276.94,763.87,275.99z"/>
		<rect x="761.93" y="283.25" width="12.99" height="3.34"/>
		<rect x="761.93" y="288.4" width="9.19" height="3.34"/>
		<rect x="771.99" y="288.38" width="2.93" height="3.38"/>
		<path d="M768.26,293.08c-1.88,0-2.6,1.18-2.95,3.4l-0.21,1.36c-0.1,0.64-0.35,0.85-0.7,0.85c-0.37,0-0.64-0.39-0.64-1.13
			c0-1.01,0.43-1.63,1.2-1.75l-0.04-2.91c-2.23,0.19-3.24,2.08-3.24,4.62c0,2.62,1.11,4.27,3.05,4.27c1.79,0,2.72-1.2,3.05-3.26
			l0.31-1.79c0.04-0.31,0.21-0.56,0.52-0.56c0.41,0,0.66,0.37,0.66,1.01c0,1.03-0.41,1.61-1.07,1.73l0.08,2.74
			c1.92-0.19,3.09-1.75,3.09-4.41C771.37,294.67,770.07,293.08,768.26,293.08z"/>
		<path d="M771.37,309.26c0-1.38-0.62-2.37-1.63-2.87h1.38v-3.34h-9.19v3.34h4.51c1.38,0,2.29,0.39,2.29,1.48
			c0,1.01-0.66,1.26-1.92,1.26h-4.89v3.34h4.51c1.38,0,2.29,0.37,2.29,1.48c0,1.01-0.66,1.24-1.92,1.24h-4.89v3.34h5.77
			c1.92,0,3.67-0.74,3.67-3.28c0-1.55-0.78-2.64-1.81-3.13C770.63,311.73,771.37,310.89,771.37,309.26z"/>
		<rect x="761.93" y="323.79" width="12.99" height="3.5"/>
		<path d="M764.96,331.43l-0.04-2.91c-2.23,0.19-3.24,2.08-3.24,4.62c0,2.62,1.11,4.27,3.05,4.27c1.79,0,2.72-1.2,3.05-3.26
			l0.31-1.79c0.04-0.31,0.21-0.56,0.52-0.56c0.41,0,0.66,0.37,0.66,1.01c0,1.03-0.41,1.61-1.07,1.73l0.08,2.74
			c1.92-0.19,3.09-1.75,3.09-4.41c0-2.58-1.3-4.16-3.11-4.16c-1.88,0-2.6,1.18-2.95,3.4l-0.21,1.36c-0.1,0.64-0.35,0.85-0.7,0.85
			c-0.37,0-0.64-0.39-0.64-1.13C763.76,332.18,764.2,331.56,764.96,331.43z"/>
		<path d="M761.93,344.77l2.51,0.97v5.07l-2.51,0.97v3.73l12.99-5.17v-3.92l-12.99-5.17V344.77z M767.06,346.75l3.83,1.48v0.08
			l-3.83,1.48V346.75z"/>
		<polygon points="761.93,366.04 774.92,371.03 774.92,367.54 766.28,364.33 766.28,364.25 774.92,361.03 774.92,357.36 
			761.93,362.35 		"/>
		<rect x="771.99" y="371.91" width="2.93" height="3.38"/>
		<rect x="761.93" y="371.93" width="9.19" height="3.34"/>
		<path d="M769.49,380.42h1.63v-3.34h-9.19v3.34h4.21c1.55,0,2.12,0.76,2.12,2c0,0.64-0.12,1.13-0.39,1.59l3.15,0.21
			c0.19-0.23,0.35-0.72,0.35-1.28C771.37,381.72,770.52,380.75,769.49,380.42z"/>
		<path d="M766.22,388.48h4.91v-3.34h-5.79c-1.92,0-3.65,0.76-3.65,3.28c0,1.38,0.6,2.39,1.63,2.89h-1.38v3.34h9.19v-3.34h-4.51
			c-1.4,0-2.31-0.41-2.31-1.46C764.3,388.83,764.98,388.48,766.22,388.48z"/>
		<path d="M768.26,395.98c-1.88,0-2.6,1.17-2.95,3.4l-0.21,1.36c-0.1,0.64-0.35,0.85-0.7,0.85c-0.37,0-0.64-0.39-0.64-1.13
			c0-1.01,0.43-1.63,1.2-1.75l-0.04-2.91c-2.23,0.19-3.24,2.08-3.24,4.62c0,2.62,1.11,4.27,3.05,4.27c1.79,0,2.72-1.2,3.05-3.26
			l0.31-1.79c0.04-0.31,0.21-0.56,0.52-0.56c0.41,0,0.66,0.37,0.66,1.01c0,1.03-0.41,1.61-1.07,1.73l0.08,2.74
			c1.92-0.19,3.09-1.75,3.09-4.41C771.37,397.57,770.07,395.98,768.26,395.98z"/>
		<rect x="761.93" y="407.53" width="3.55" height="3.55"/>
		<path d="M766.53,413.96c-2.87,0-4.84,2.02-4.84,5.03c0,2.99,1.98,5.03,4.84,5.03c2.84,0,4.84-2.04,4.84-5.03
			C771.37,415.98,769.37,413.96,766.53,413.96z M766.53,420.66c-1.38,0-2.33-0.52-2.33-1.67c0-1.18,0.95-1.67,2.33-1.67
			s2.33,0.49,2.33,1.67C768.86,420.14,767.91,420.66,766.53,420.66z"/>
		<path d="M771.02,432.47c0.19-0.23,0.35-0.72,0.35-1.28c0-1.22-0.85-2.18-1.88-2.51h1.63v-3.34h-9.19v3.34h4.21
			c1.55,0,2.12,0.76,2.12,2c0,0.64-0.12,1.13-0.39,1.59L771.02,432.47z"/>
		<path d="M770.63,440.55c0.47-0.78,0.74-1.83,0.74-2.95c0-2.58-1.2-4.43-3.15-4.43c-1.01,0-1.79,0.5-2.33,1.32
			c-0.37-0.99-1.05-1.57-1.94-1.57c-0.78,0-1.53,0.5-1.79,1.32c-0.08-1.03-0.72-1.75-1.53-1.75c-1.73,0-2.25,2.27-2.25,4.89
			c0,2.99,1.05,5.77,3.34,5.77c1.55,0,2.64-1.05,2.64-3.13v-3.81c0-0.56,0.25-0.78,0.56-0.78c0.19,0,0.33,0.06,0.43,0.19
			c-0.19,0.6-0.27,1.26-0.27,2c0,2.6,1.2,4.47,3.13,4.47c0.43,0,0.83-0.1,1.18-0.29c0.1,0.45,0.14,0.95,0.14,1.34h2.52
			C772.05,442.11,771.39,441.1,770.63,440.55z M761.52,439.23c0,0.56-0.14,0.85-0.54,0.85c-0.56,0-0.87-1.13-0.87-2.68
			c0-1.24,0.19-2.17,0.85-2.17c0.35,0,0.56,0.25,0.56,0.62V439.23z M768.22,438.61c-0.82,0-1.34-0.41-1.34-0.97s0.52-0.97,1.34-0.97
			c0.8,0,1.32,0.41,1.32,0.97S769.02,438.61,768.22,438.61z"/>
	</g>
</g>
</svg>
