<?xml version="1.0" encoding="utf-8"?>
<!-- Generator: Adobe Illustrator 23.1.1, SVG Export Plug-In . SVG Version: 6.00 Build 0)  -->
<svg version="1.1" xmlns="http://www.w3.org/2000/svg" xmlns:xlink="http://www.w3.org/1999/xlink" x="0px" y="0px"
	 viewBox="0 0 792 612" style="enable-background:new 0 0 792 612;" xml:space="preserve">
<style type="text/css">
	.st0{display:none;}
	.st1{display:inline;fill:#FFFFFF;}
	.st2{display:inline;}
	.st3{fill:#FFFFFF;stroke:#000000;stroke-width:16;stroke-linecap:round;stroke-linejoin:round;stroke-miterlimit:10;}
	.st4{fill:none;stroke:#000000;stroke-width:24;stroke-linejoin:round;stroke-miterlimit:10;}
	.st5{fill:#FFFFFF;}
	.st6{fill:#FFFFFF;stroke:#000000;stroke-width:17;stroke-linecap:round;stroke-miterlimit:10;}
	.st7{fill:#FFFFFF;stroke:#000000;stroke-width:17;stroke-miterlimit:10;}
	.st8{stroke:#000000;stroke-width:16.0572;stroke-linecap:round;stroke-miterlimit:10;}
	.st9{fill:#FFFFFF;stroke:#000000;stroke-width:13.497;stroke-linecap:round;stroke-linejoin:round;stroke-miterlimit:10;}
	.st10{stroke:#000000;stroke-width:18.3348;stroke-linecap:round;stroke-miterlimit:10;}
	.st11{fill:none;stroke:#000000;stroke-width:13.497;stroke-linecap:round;stroke-linejoin:round;stroke-miterlimit:10;}
	.st12{fill:#FFFFFF;stroke:#000000;stroke-width:14.6942;stroke-linecap:round;stroke-linejoin:round;stroke-miterlimit:10;}
	.st13{fill:none;stroke:#000000;stroke-width:13;stroke-linecap:round;stroke-linejoin:round;stroke-miterlimit:10;}
	.st14{fill:none;stroke:#000000;stroke-width:13;stroke-linejoin:round;stroke-miterlimit:10;}
	.st15{fill:url(#);stroke:#000000;stroke-width:13;stroke-linejoin:round;stroke-miterlimit:10;}
	.st16{font-family:'FoundersGrotesk-Bold';}
	.st17{font-size:178.0858px;}
	.st18{font-size:20.6105px;}
	.st19{font-size:10.3052px;}
	.st20{font-size:19.2364px;}
	.st21{font-size:10px;}
	.st22{fill:none;stroke:#000000;stroke-width:30.5612;stroke-linecap:round;stroke-linejoin:round;stroke-miterlimit:10;}
	.st23{fill:#FFFFFF;stroke:#000000;stroke-width:16.2993;stroke-linecap:round;stroke-linejoin:round;stroke-miterlimit:10;}
	.st24{fill:#FFFFFF;stroke:#000000;stroke-width:13.497;stroke-linecap:round;stroke-miterlimit:10;}
	.st25{fill:url(#);stroke:#000000;stroke-width:13.497;stroke-linecap:round;stroke-linejoin:round;stroke-miterlimit:10;}
	.st26{fill:#FFFFFF;stroke:#000000;stroke-width:11.7326;stroke-linecap:round;stroke-linejoin:round;stroke-miterlimit:10;}
	.st27{fill:#FFFFFF;stroke:#000000;stroke-width:13.2623;stroke-linecap:round;stroke-linejoin:round;stroke-miterlimit:10;}
	.st28{fill:#FFFFFF;stroke:#000000;stroke-width:13.2623;stroke-linecap:round;stroke-miterlimit:10;}
	.st29{stroke:#000000;stroke-width:4.5213;stroke-miterlimit:10;}
	.st30{fill:none;stroke:#000000;stroke-width:16;stroke-linecap:round;stroke-miterlimit:10;}
	.st31{fill:url(#);stroke:#000000;stroke-width:16;stroke-linecap:round;stroke-linejoin:round;stroke-miterlimit:10;}
	.st32{fill:#FFFFFF;stroke:#000000;stroke-width:16;stroke-linecap:round;stroke-miterlimit:10;}
	.st33{fill:none;stroke:#000000;stroke-width:16;stroke-linecap:round;stroke-linejoin:round;stroke-miterlimit:10;}
	.st34{fill:none;stroke:#000000;stroke-width:15.2344;stroke-linecap:round;stroke-linejoin:round;stroke-miterlimit:10;}
	.st35{fill:#FFFFFF;stroke:#000000;stroke-width:15.2344;stroke-linecap:round;stroke-linejoin:round;stroke-miterlimit:10;}
	.st36{fill:#FFFFFF;stroke:#000000;stroke-width:17;stroke-linecap:round;stroke-linejoin:round;stroke-miterlimit:10;}
	.st37{fill:none;stroke:#000000;stroke-width:9.9764;stroke-linecap:round;stroke-linejoin:round;stroke-miterlimit:10;}
	.st38{fill:none;stroke:#000000;stroke-width:9.3127;stroke-linejoin:round;stroke-miterlimit:10;}
	.st39{fill:url(#);}
	.st40{fill:none;stroke:#000000;stroke-width:8.3796;stroke-linecap:round;stroke-linejoin:round;stroke-miterlimit:10;}
	
		.st41{display:inline;fill:none;stroke:#000000;stroke-width:9.9764;stroke-linecap:round;stroke-linejoin:round;stroke-miterlimit:10;}
	.st42{display:inline;fill:none;stroke:#000000;stroke-width:9.3127;stroke-linejoin:round;stroke-miterlimit:10;}
	.st43{display:inline;fill:url(#);stroke:#000000;stroke-width:10;stroke-linejoin:round;stroke-miterlimit:10;}
	.st44{fill:#FFFFFF;stroke:#000000;stroke-width:14.7375;stroke-linecap:round;stroke-linejoin:round;stroke-miterlimit:10;}
	.st45{fill:none;stroke:#000000;stroke-width:14.7375;stroke-linecap:round;stroke-linejoin:round;stroke-miterlimit:10;}
	.st46{stroke:#000000;stroke-width:14.7375;stroke-linecap:round;stroke-linejoin:round;stroke-miterlimit:10;}
	.st47{fill:#FFFFFF;stroke:#000000;stroke-width:14.2911;stroke-linecap:round;stroke-linejoin:round;stroke-miterlimit:10;}
	.st48{fill:none;stroke:#000000;stroke-width:15;stroke-linecap:round;stroke-linejoin:round;stroke-miterlimit:10;}
	.st49{fill:#FFFFFF;stroke:#000000;stroke-width:15;stroke-linecap:round;stroke-linejoin:round;stroke-miterlimit:10;}
	.st50{fill:#FFFFFF;stroke:#000000;stroke-width:14.8467;stroke-linecap:round;stroke-linejoin:round;stroke-miterlimit:10;}
	.st51{stroke:#000000;stroke-width:20.1683;stroke-linecap:round;stroke-miterlimit:10;}
	.st52{fill:none;stroke:#000000;stroke-width:14.8467;stroke-linecap:round;stroke-linejoin:round;stroke-miterlimit:10;}
	.st53{fill:none;stroke:#000000;stroke-width:13.497;stroke-miterlimit:10;}
	.st54{fill:#FFFFFF;stroke:#000000;stroke-width:13.497;stroke-miterlimit:10;}
	.st55{fill:#FFFFFF;stroke:#000000;stroke-width:14.7439;stroke-linecap:round;stroke-miterlimit:10;}
	.st56{fill:#FFFFFF;stroke:#000000;stroke-width:14.7439;stroke-miterlimit:10;}
	.st57{stroke:#000000;stroke-width:13.9262;stroke-linecap:round;stroke-miterlimit:10;}
	.st58{fill:#FFFFFF;stroke:#000000;stroke-width:17.1072;stroke-linecap:round;stroke-linejoin:round;stroke-miterlimit:10;}
	.st59{stroke:#000000;stroke-width:17.1072;stroke-linecap:round;stroke-linejoin:round;stroke-miterlimit:10;}
	.st60{fill:#FFFFFF;stroke:#000000;stroke-width:15;stroke-linecap:square;stroke-linejoin:round;stroke-miterlimit:10;}
	.st61{fill:#FFFFFF;stroke:#000000;stroke-width:15;stroke-linejoin:round;stroke-miterlimit:10;}
	.st62{fill:#FFFFFF;stroke:#000000;stroke-width:14;stroke-linecap:round;stroke-linejoin:round;stroke-miterlimit:10;}
	.st63{fill:#FFFFFF;stroke:#000000;stroke-width:13;stroke-linecap:round;stroke-linejoin:round;stroke-miterlimit:10;}
	.st64{fill:#FFFFFF;stroke:#000000;stroke-width:15.2362;stroke-linecap:round;stroke-linejoin:round;stroke-miterlimit:10;}
	.st65{fill:#FFFFFF;stroke:#FFFFFF;stroke-width:3;stroke-miterlimit:10;}
	.st66{fill:#FFFFFF;stroke:#000000;stroke-width:13.3058;stroke-linecap:round;stroke-linejoin:round;stroke-miterlimit:10;}
	.st67{fill:#FFFFFF;stroke:#000000;stroke-width:15.2517;stroke-linecap:round;stroke-linejoin:round;stroke-miterlimit:10;}
	.st68{stroke:#000000;stroke-width:3;stroke-miterlimit:10;}
</style>
<g id="unexpanded" class="st0">
	<rect x="-5081.75" y="-343.56" class="st1" width="14663.41" height="9108.82"/>
	<g class="st2">
		<rect x="-0.18" class="st5" width="792" height="1224"/>
		<g>
			<text transform="matrix(1 0 0 1 16.1475 177.3223)" class="st16 st17">Solidarity</text>
		</g>
		<g>
			<g>
				<text transform="matrix(1 0 0 1 258.9679 23.5542)"><tspan x="0" y="0" class="st16 st18">www</tspan><tspan x="45.14" y="0" class="st16 st19"> </tspan><tspan x="46.99" y="0" class="st16 st18">.</tspan><tspan x="51.77" y="0" class="st16 st19"> </tspan><tspan x="53.63" y="0" class="st16 st18">Capitalism</tspan><tspan x="150.43" y="0" class="st16 st20"> </tspan><tspan x="153.9" y="0" class="st16 st18">Is</tspan><tspan x="168.88" y="0" class="st16 st20"> </tspan><tspan x="172.34" y="0" class="st16 st18">A</tspan><tspan x="186.6" y="0" class="st16 st19"> </tspan><tspan x="188.46" y="0" class="st16 st18">Virus</tspan><tspan x="236.15" y="0" class="st16 st19"> </tspan><tspan x="238.01" y="0" class="st16 st18">.</tspan><tspan x="242.79" y="0" class="st16 st19"> </tspan><tspan x="244.64" y="0" class="st16 st18">org</tspan></text>
			</g>
			<g>
				<text transform="matrix(1 0 0 1 299.1802 596.9933)"><tspan x="0" y="0" class="st16 st18">#</tspan><tspan x="12.7" y="0" class="st16 st21"> </tspan><tspan x="14.5" y="0" class="st16 st18">Capitalism</tspan><tspan x="111.3" y="0" class="st16 st21"> </tspan><tspan x="113.1" y="0" class="st16 st18">Is</tspan><tspan x="128.09" y="0" class="st16 st21"> </tspan><tspan x="129.89" y="0" class="st16 st18">A</tspan><tspan x="144.15" y="0" class="st16 st21"> </tspan><tspan x="145.95" y="0" class="st16 st18">Virus</tspan></text>
			</g>
		</g>
		<text transform="matrix(1 0 0 1 10.9829 349.9146)" class="st16 st17">FOREVER</text>
		<g>
			<text transform="matrix(1 0 0 1 301.9727 522.5078)" class="st16 st17">! ! !</text>
		</g>
	</g>
</g>
<g id="exp_trnsp_bg">
	<path d="M71.89,155.6c-12.47,0-23.33-4.81-24.4-18.88l-27.78,0.89c0,27.07,21.73,41.85,52.18,41.85c26.18,0,46.84-11.93,46.84-35.8
		c0-18.34-10.69-30.63-34.19-34.73l-21.19-3.74c-6.95-1.25-11.22-3.21-11.22-8.37c0-6.23,5.7-10.15,15.67-10.15
		c11.58,0,19.95,5.34,20.84,16.92l27.78-0.53c-0.53-24.93-17.27-40.07-48.26-40.07c-27.96,0-45.77,13.71-45.77,36.51
		c0,19.59,12.82,29.92,31.17,33.3l20.48,3.56c8.55,1.6,15.14,2.67,15.14,9.26C89.16,151.86,82.4,155.6,71.89,155.6z"/>
	<path d="M171.08,179.46c25.82,0,43.45-17.1,43.45-41.85c0-24.58-17.63-41.85-43.45-41.85c-26,0-43.45,17.27-43.45,41.85
		C127.63,162.36,145.08,179.46,171.08,179.46z M171.08,117.49c9.97,0,14.42,8.19,14.42,20.12s-4.45,20.12-14.42,20.12
		c-10.15,0-14.42-8.19-14.42-20.12S160.93,117.49,171.08,117.49z"/>
	<rect x="225.93" y="65.13" width="28.85" height="112.19"/>
	<rect x="270.27" y="65.13" width="29.21" height="25.29"/>
	<rect x="270.45" y="97.9" width="28.85" height="79.43"/>
	<path d="M345.96,179.46c13.18,0,22.26-6.41,26-15.67v13.53h28.85V65.13h-28.85v46.48c-3.74-9.44-12.82-15.85-26-15.85
		c-23.51,0-35.26,18.52-35.26,41.85C310.7,161.12,322.45,179.46,345.96,179.46z M356.11,118.2c9.62,0,15.85,7.48,15.85,18.88v1.07
		c0,11.58-6.23,19.06-15.85,19.06c-11.4,0-16.38-8.01-16.38-19.59C339.73,126.21,344.71,118.2,356.11,118.2z"/>
	<path d="M437.49,179.1c12.64,0,21.73-4.81,26.36-14.07c2.67,9.08,10.33,14.07,20.12,14.07c8.19,0,13.89-2.31,17.99-5.16v-15.31
		c-2.32,0.89-4.1,1.25-6.41,1.25c-3.03,0-4.81-1.78-4.81-5.88v-27.07c0-22.08-15.49-31.17-36.51-31.17
		c-23.86,0-36.86,12.11-39.36,29.56l26.71,1.78c1.25-5.88,4.45-9.97,10.86-9.97c6.95,0,9.97,3.92,9.97,10.51v1.25l-22.26,3.74
		c-17.27,3.03-28.32,9.62-28.32,24.93C411.85,171.09,422,179.1,437.49,179.1z M450.67,145.09l11.75-2.14v1.25
		c0,10.33-6.59,16.38-14.78,16.38c-4.81,0-8.01-2.67-8.01-6.77C439.63,148.65,443.73,146.51,450.67,145.09z"/>
	<path d="M510.33,97.9v79.43h28.85v-36.33c0-13.36,6.59-18.34,17.27-18.34c5.52,0,9.79,1.07,13.71,3.38l1.78-27.25
		c-1.96-1.6-6.23-3.03-11.04-3.03c-10.51,0-18.88,7.3-21.73,16.21V97.9H510.33z"/>
	<rect x="580.85" y="97.9" width="28.85" height="79.43"/>
	<rect x="580.67" y="65.13" width="29.21" height="25.29"/>
	<path d="M628.22,155.24c0,18.7,12.64,24.22,26,24.22c10.86,0,17.81-2.67,23.86-7.12v-18.7c-4.81,1.96-8.73,2.67-12.29,2.67
		c-5.88,0-9.08-2.67-9.08-9.44v-29.03h20.66V97.9h-20.66v-21.9h-18.16l-2.67,10.33c-1.96,7.3-4.45,11.58-12.47,12.82l-5.88,0.89
		v17.81h10.69V155.24z"/>
	<polygon points="701.95,205.82 730.26,205.82 775.85,97.9 747.54,97.9 729.55,144.38 728.84,144.38 711.21,97.9 680.93,97.9 
		713.35,178.39 	"/>
	<polygon points="265.16,23.55 266.5,18.36 266.58,18.36 267.92,23.55 271.2,23.55 274.07,14.5 276.93,23.55 280.21,23.55 
		281.55,18.36 281.63,18.36 282.97,23.55 286.25,23.55 289.11,14.5 291.98,23.55 295.25,23.55 296.59,18.36 296.68,18.36 
		298.02,23.55 301.29,23.55 304.2,14.36 301.19,14.36 299.54,19.58 299.46,19.58 298.12,14.36 295.46,14.36 294.12,19.58 
		294.04,19.58 292.39,14.36 289.15,14.36 289.07,14.36 286.15,14.36 284.5,19.58 284.41,19.58 283.07,14.36 280.41,14.36 
		279.07,19.58 278.99,19.58 277.34,14.36 274.11,14.36 274.02,14.36 271.1,14.36 269.45,19.58 269.37,19.58 268.03,14.36 
		265.37,14.36 264.03,19.58 263.95,19.58 262.3,14.36 258.98,14.36 261.88,23.55 	"/>
	<rect x="306.63" y="20.01" width="3.55" height="3.55"/>
	<path d="M319.72,23.8c3.98,0,6.1-2.52,6.35-5.75l-3.36-0.14c-0.21,1.44-0.99,2.78-3.01,2.78c-1.92,0-3.03-1.42-3.03-3.63
		s1.11-3.63,3.03-3.63c2.02,0,2.8,1.34,3.01,2.78l3.36-0.12c-0.25-3.24-2.37-5.77-6.35-5.77c-3.79,0-6.66,2.74-6.66,6.74
		S315.92,23.8,319.72,23.8z"/>
	<path d="M330.08,18.38c-2,0.35-3.28,1.11-3.28,2.89c0,1.57,1.17,2.49,2.97,2.49c1.46,0,2.52-0.56,3.05-1.63
		c0.31,1.05,1.2,1.63,2.33,1.63c0.95,0,1.61-0.27,2.08-0.6v-1.77c-0.27,0.1-0.47,0.14-0.74,0.14c-0.35,0-0.56-0.21-0.56-0.68v-3.13
		c0-2.56-1.79-3.61-4.23-3.61c-2.76,0-4.27,1.4-4.56,3.42l3.09,0.21c0.14-0.68,0.52-1.15,1.26-1.15c0.8,0,1.15,0.45,1.15,1.22v0.14
		L330.08,18.38z M332.66,19.72c0,1.2-0.76,1.9-1.71,1.9c-0.56,0-0.93-0.31-0.93-0.78c0-0.6,0.47-0.85,1.28-1.01l1.36-0.25V19.72z"/>
	<path d="M341.54,21.99c0.45,1.07,1.48,1.81,3.03,1.81c2.7,0,4.08-2.12,4.08-4.84c0-2.7-1.38-4.84-4.08-4.84
		c-1.55,0-2.58,0.74-3.03,1.83v-1.59h-3.34v12.49h3.34V21.99z M341.54,18.9c0-1.32,0.72-2.19,1.86-2.19c1.3,0,1.9,0.93,1.9,2.25
		c0,1.34-0.6,2.27-1.9,2.27c-1.13,0-1.86-0.87-1.86-2.21V18.9z"/>
	<rect x="349.95" y="10.57" width="3.38" height="2.93"/>
	<rect x="349.97" y="14.36" width="3.34" height="9.19"/>
	<path d="M355.46,21c0,2.16,1.46,2.8,3.01,2.8c1.26,0,2.06-0.31,2.76-0.82v-2.16c-0.56,0.23-1.01,0.31-1.42,0.31
		c-0.68,0-1.05-0.31-1.05-1.09v-3.36h2.39v-2.31h-2.39v-2.54h-2.1l-0.31,1.2c-0.23,0.85-0.52,1.34-1.44,1.48l-0.68,0.1v2.06h1.24V21
		z"/>
	<path d="M365.25,18.38c-2,0.35-3.28,1.11-3.28,2.89c0,1.57,1.17,2.49,2.97,2.49c1.46,0,2.52-0.56,3.05-1.63
		c0.31,1.05,1.2,1.63,2.33,1.63c0.95,0,1.61-0.27,2.08-0.6v-1.77c-0.27,0.1-0.47,0.14-0.74,0.14c-0.35,0-0.56-0.21-0.56-0.68v-3.13
		c0-2.56-1.79-3.61-4.23-3.61c-2.76,0-4.27,1.4-4.56,3.42l3.09,0.21c0.14-0.68,0.52-1.15,1.26-1.15c0.8,0,1.15,0.45,1.15,1.22v0.14
		L365.25,18.38z M367.82,19.72c0,1.2-0.76,1.9-1.71,1.9c-0.56,0-0.93-0.31-0.93-0.78c0-0.6,0.47-0.85,1.28-1.01l1.36-0.25V19.72z"/>
	<rect x="373.37" y="10.57" width="3.34" height="12.99"/>
	<rect x="378.52" y="14.36" width="3.34" height="9.19"/>
	<rect x="378.5" y="10.57" width="3.38" height="2.93"/>
	<path d="M387.67,21.72c-1.01,0-1.63-0.43-1.75-1.2l-2.91,0.04c0.19,2.23,2.08,3.24,4.62,3.24c2.62,0,4.27-1.11,4.27-3.05
		c0-1.79-1.2-2.72-3.26-3.05l-1.79-0.31c-0.31-0.04-0.56-0.21-0.56-0.52c0-0.41,0.37-0.66,1.01-0.66c1.03,0,1.61,0.41,1.73,1.07
		l2.74-0.08c-0.19-1.92-1.75-3.09-4.41-3.09c-2.58,0-4.16,1.3-4.16,3.11c0,1.88,1.17,2.6,3.4,2.95l1.36,0.21
		c0.64,0.1,0.85,0.35,0.85,0.7C388.8,21.45,388.41,21.72,387.67,21.72z"/>
	<path d="M396.51,19.04c0-1.38,0.39-2.29,1.48-2.29c1.01,0,1.26,0.66,1.26,1.92v4.89h3.34v-4.51c0-1.38,0.37-2.29,1.48-2.29
		c1.01,0,1.24,0.66,1.24,1.92v4.89h3.34v-5.77c0-1.92-0.74-3.67-3.28-3.67c-1.55,0-2.64,0.78-3.13,1.81
		c-0.39-1.07-1.24-1.81-2.87-1.81c-1.38,0-2.37,0.62-2.87,1.63v-1.38h-3.34v9.19h3.34V19.04z"/>
	<rect x="413.91" y="10.57" width="3.5" height="12.99"/>
	<path d="M423.3,21.72c-1.01,0-1.63-0.43-1.75-1.2l-2.91,0.04c0.19,2.23,2.08,3.24,4.62,3.24c2.62,0,4.27-1.11,4.27-3.05
		c0-1.79-1.2-2.72-3.26-3.05l-1.79-0.31c-0.31-0.04-0.56-0.21-0.56-0.52c0-0.41,0.37-0.66,1.01-0.66c1.03,0,1.61,0.41,1.73,1.07
		l2.74-0.08c-0.19-1.92-1.75-3.09-4.41-3.09c-2.58,0-4.16,1.3-4.16,3.11c0,1.88,1.18,2.6,3.4,2.95l1.36,0.21
		c0.64,0.1,0.85,0.35,0.85,0.7C424.44,21.45,424.05,21.72,423.3,21.72z"/>
	<path d="M435.86,21.04h5.07l0.97,2.52h3.73l-5.17-12.99h-3.92l-5.17,12.99h3.52L435.86,21.04z M438.35,14.59h0.08l1.48,3.83h-3.05
		L438.35,14.59z"/>
	<polygon points="456.16,23.55 461.15,10.57 457.66,10.57 454.45,19.2 454.36,19.2 451.15,10.57 447.48,10.57 452.47,23.55 	"/>
	<rect x="462.03" y="10.57" width="3.38" height="2.93"/>
	<rect x="462.05" y="14.36" width="3.34" height="9.19"/>
	<path d="M470.54,19.35c0-1.55,0.76-2.12,2-2.12c0.64,0,1.13,0.12,1.59,0.39l0.21-3.15c-0.23-0.19-0.72-0.35-1.28-0.35
		c-1.22,0-2.19,0.85-2.52,1.88v-1.63h-3.34v9.19h3.34V19.35z"/>
	<path d="M478.54,23.8c1.38,0,2.39-0.6,2.89-1.63v1.38h3.34v-9.19h-3.34v4.51c0,1.4-0.41,2.31-1.46,2.31
		c-1.01,0-1.36-0.68-1.36-1.92v-4.91h-3.34v5.79C475.26,22.07,476.02,23.8,478.54,23.8z"/>
	<path d="M490.58,21.72c-1.01,0-1.63-0.43-1.75-1.2l-2.91,0.04c0.19,2.23,2.08,3.24,4.62,3.24c2.62,0,4.27-1.11,4.27-3.05
		c0-1.79-1.2-2.72-3.26-3.05l-1.79-0.31c-0.31-0.04-0.56-0.21-0.56-0.52c0-0.41,0.37-0.66,1.01-0.66c1.03,0,1.61,0.41,1.73,1.07
		l2.74-0.08c-0.19-1.92-1.75-3.09-4.41-3.09c-2.58,0-4.16,1.3-4.16,3.11c0,1.88,1.18,2.6,3.4,2.95l1.36,0.21
		c0.64,0.1,0.85,0.35,0.85,0.7C491.71,21.45,491.32,21.72,490.58,21.72z"/>
	<rect x="497.64" y="20.01" width="3.55" height="3.55"/>
	<path d="M509.1,23.8c2.99,0,5.03-1.98,5.03-4.84c0-2.84-2.04-4.84-5.03-4.84c-3.01,0-5.03,2-5.03,4.84
		C504.07,21.82,506.09,23.8,509.1,23.8z M509.1,16.63c1.15,0,1.67,0.95,1.67,2.33c0,1.38-0.52,2.33-1.67,2.33
		c-1.17,0-1.67-0.95-1.67-2.33C507.44,17.58,507.93,16.63,509.1,16.63z"/>
	<path d="M518.79,19.35c0-1.55,0.76-2.12,2-2.12c0.64,0,1.13,0.12,1.59,0.39l0.21-3.15c-0.23-0.19-0.72-0.35-1.28-0.35
		c-1.22,0-2.19,0.85-2.52,1.88v-1.63h-3.34v9.19h3.34V19.35z"/>
	<path d="M522.6,24.85c0,1.73,2.27,2.25,4.89,2.25c2.99,0,5.77-1.05,5.77-3.34c0-1.55-1.05-2.64-3.13-2.64h-3.81
		c-0.56,0-0.78-0.25-0.78-0.56c0-0.19,0.06-0.33,0.19-0.43c0.6,0.19,1.26,0.27,2,0.27c2.6,0,4.47-1.2,4.47-3.13
		c0-0.43-0.1-0.82-0.29-1.17c0.45-0.1,0.95-0.14,1.34-0.14v-2.51c-1.01,0-2.02,0.66-2.58,1.42c-0.78-0.47-1.83-0.74-2.95-0.74
		c-2.58,0-4.43,1.2-4.43,3.15c0,1.01,0.49,1.79,1.32,2.33c-0.99,0.37-1.57,1.05-1.57,1.94c0,0.78,0.49,1.53,1.32,1.79
		C523.33,23.41,522.6,24.05,522.6,24.85z M527.76,15.95c0.56,0,0.97,0.52,0.97,1.32c0,0.82-0.41,1.34-0.97,1.34
		c-0.56,0-0.97-0.52-0.97-1.34C526.79,16.46,527.2,15.95,527.76,15.95z M525.96,23.97h3.38c0.56,0,0.85,0.14,0.85,0.54
		c0,0.56-1.13,0.87-2.68,0.87c-1.24,0-2.16-0.19-2.16-0.84C525.35,24.17,525.59,23.97,525.96,23.97z"/>
	<path d="M311.03,589.49l0.43-2.06h-1.83l0.82-3.42h-2.49l-0.82,3.42h-1.77l0.83-3.42h-2.49l-0.82,3.42h-2.02l-0.43,2.06h1.98
		l-0.49,2.02h-1.88l-0.43,2.06h1.81l-0.8,3.42h2.49l0.8-3.42h1.77l-0.8,3.42h2.49l0.8-3.42h2.04l0.43-2.06h-1.98l0.49-2.02H311.03z
		 M306.17,591.51h-1.77l0.5-2.02h1.77L306.17,591.51z"/>
	<path d="M320.73,586.87c2.02,0,2.8,1.34,3.01,2.78l3.36-0.12c-0.25-3.24-2.37-5.77-6.35-5.77c-3.79,0-6.66,2.74-6.66,6.74
		c0,4,2.87,6.74,6.66,6.74c3.98,0,6.1-2.52,6.35-5.75l-3.36-0.14c-0.21,1.44-0.99,2.78-3.01,2.78c-1.92,0-3.03-1.42-3.03-3.63
		C317.7,588.29,318.81,586.87,320.73,586.87z"/>
	<path d="M331.11,591.82c-2,0.35-3.28,1.11-3.28,2.89c0,1.57,1.18,2.49,2.97,2.49c1.46,0,2.52-0.56,3.05-1.63
		c0.31,1.05,1.2,1.63,2.33,1.63c0.95,0,1.61-0.27,2.08-0.6v-1.77c-0.27,0.1-0.47,0.14-0.74,0.14c-0.35,0-0.56-0.21-0.56-0.68v-3.13
		c0-2.56-1.79-3.61-4.23-3.61c-2.76,0-4.27,1.4-4.56,3.42l3.09,0.21c0.14-0.68,0.52-1.15,1.26-1.15c0.8,0,1.15,0.45,1.15,1.22v0.14
		L331.11,591.82z M333.69,593.16c0,1.2-0.76,1.9-1.71,1.9c-0.56,0-0.93-0.31-0.93-0.78c0-0.6,0.47-0.85,1.28-1.01l1.36-0.25V593.16z
		"/>
	<path d="M339.23,587.8v12.49h3.34v-4.87c0.45,1.07,1.48,1.81,3.03,1.81c2.7,0,4.08-2.12,4.08-4.84c0-2.7-1.38-4.84-4.08-4.84
		c-1.55,0-2.58,0.74-3.03,1.83v-1.59H339.23z M344.43,590.15c1.3,0,1.9,0.93,1.9,2.25c0,1.34-0.6,2.27-1.9,2.27
		c-1.13,0-1.86-0.87-1.86-2.21v-0.12C342.57,591.02,343.29,590.15,344.43,590.15z"/>
	<rect x="351" y="587.8" width="3.34" height="9.19"/>
	<rect x="350.98" y="584.01" width="3.38" height="2.93"/>
	<path d="M359.49,597.24c1.26,0,2.06-0.31,2.76-0.82v-2.16c-0.56,0.23-1.01,0.31-1.42,0.31c-0.68,0-1.05-0.31-1.05-1.09v-3.36h2.39
		v-2.31h-2.39v-2.54h-2.1l-0.31,1.2c-0.23,0.85-0.52,1.34-1.44,1.48l-0.68,0.1v2.06h1.24v4.33
		C356.48,596.6,357.95,597.24,359.49,597.24z"/>
	<path d="M366.27,591.82c-2,0.35-3.28,1.11-3.28,2.89c0,1.57,1.18,2.49,2.97,2.49c1.46,0,2.51-0.56,3.05-1.63
		c0.31,1.05,1.2,1.63,2.33,1.63c0.95,0,1.61-0.27,2.08-0.6v-1.77c-0.27,0.1-0.47,0.14-0.74,0.14c-0.35,0-0.56-0.21-0.56-0.68v-3.13
		c0-2.56-1.79-3.61-4.23-3.61c-2.76,0-4.27,1.4-4.56,3.42l3.09,0.21c0.14-0.68,0.52-1.15,1.26-1.15c0.8,0,1.15,0.45,1.15,1.22v0.14
		L366.27,591.82z M368.85,593.16c0,1.2-0.76,1.9-1.71,1.9c-0.56,0-0.93-0.31-0.93-0.78c0-0.6,0.47-0.85,1.28-1.01l1.36-0.25V593.16z
		"/>
	<rect x="374.39" y="584.01" width="3.34" height="12.99"/>
	<rect x="379.53" y="584.01" width="3.38" height="2.93"/>
	<rect x="379.55" y="587.8" width="3.34" height="9.19"/>
	<path d="M388.7,595.16c-1.01,0-1.63-0.43-1.75-1.2l-2.91,0.04c0.19,2.23,2.08,3.24,4.62,3.24c2.62,0,4.27-1.11,4.27-3.05
		c0-1.79-1.2-2.72-3.26-3.05l-1.79-0.31c-0.31-0.04-0.56-0.21-0.56-0.52c0-0.41,0.37-0.66,1.01-0.66c1.03,0,1.61,0.41,1.73,1.07
		l2.74-0.08c-0.19-1.92-1.75-3.09-4.41-3.09c-2.58,0-4.16,1.3-4.16,3.11c0,1.88,1.18,2.6,3.4,2.95l1.36,0.21
		c0.64,0.1,0.85,0.35,0.85,0.7C389.83,594.89,389.44,595.16,388.7,595.16z"/>
	<path d="M409.68,596.99v-5.77c0-1.92-0.74-3.67-3.28-3.67c-1.55,0-2.64,0.78-3.13,1.81c-0.39-1.07-1.24-1.81-2.87-1.81
		c-1.38,0-2.37,0.62-2.87,1.63v-1.38h-3.34v9.19h3.34v-4.51c0-1.38,0.39-2.29,1.48-2.29c1.01,0,1.26,0.66,1.26,1.92v4.89h3.34v-4.51
		c0-1.38,0.37-2.29,1.48-2.29c1.01,0,1.24,0.66,1.24,1.92v4.89H409.68z"/>
	<rect x="413.27" y="584.01" width="3.5" height="12.99"/>
	<path d="M422.67,595.16c-1.01,0-1.63-0.43-1.75-1.2l-2.91,0.04c0.19,2.23,2.08,3.24,4.62,3.24c2.62,0,4.27-1.11,4.27-3.05
		c0-1.79-1.2-2.72-3.26-3.05l-1.79-0.31c-0.31-0.04-0.56-0.21-0.56-0.52c0-0.41,0.37-0.66,1.01-0.66c1.03,0,1.61,0.41,1.73,1.07
		l2.74-0.08c-0.19-1.92-1.75-3.09-4.41-3.09c-2.58,0-4.16,1.3-4.16,3.11c0,1.88,1.18,2.6,3.4,2.95l1.36,0.21
		c0.64,0.1,0.85,0.35,0.85,0.7C423.8,594.89,423.41,595.16,422.67,595.16z"/>
	<path d="M434.24,584.01l-5.17,12.99h3.52l0.97-2.51h5.07l0.97,2.51h3.73l-5.17-12.99H434.24z M434.57,591.86l1.48-3.83h0.08
		l1.48,3.83H434.57z"/>
	<polygon points="452.01,592.64 448.8,584.01 445.13,584.01 450.12,596.99 453.81,596.99 458.8,584.01 455.31,584.01 452.1,592.64 	
		"/>
	<rect x="459.68" y="584.01" width="3.38" height="2.93"/>
	<rect x="459.7" y="587.8" width="3.34" height="9.19"/>
	<path d="M464.85,587.8v9.19h3.34v-4.21c0-1.55,0.76-2.12,2-2.12c0.64,0,1.13,0.12,1.59,0.39l0.21-3.15
		c-0.23-0.19-0.72-0.35-1.28-0.35c-1.22,0-2.19,0.85-2.52,1.88v-1.63H464.85z"/>
	<path d="M482.41,596.99v-9.19h-3.34v4.51c0,1.4-0.41,2.31-1.46,2.31c-1.01,0-1.36-0.68-1.36-1.92v-4.91h-3.34v5.79
		c0,1.92,0.76,3.65,3.28,3.65c1.38,0,2.39-0.6,2.89-1.63v1.38H482.41z"/>
	<path d="M487.85,589.65c1.03,0,1.61,0.41,1.73,1.07l2.74-0.08c-0.19-1.92-1.75-3.09-4.41-3.09c-2.58,0-4.16,1.3-4.16,3.11
		c0,1.88,1.17,2.6,3.4,2.95l1.36,0.21c0.64,0.1,0.85,0.35,0.85,0.7c0,0.37-0.39,0.64-1.13,0.64c-1.01,0-1.63-0.43-1.75-1.2
		l-2.91,0.04c0.19,2.23,2.08,3.24,4.62,3.24c2.62,0,4.27-1.11,4.27-3.05c0-1.79-1.2-2.72-3.26-3.05l-1.79-0.31
		c-0.31-0.04-0.56-0.21-0.56-0.52C486.84,589.9,487.21,589.65,487.85,589.65z"/>
	<polygon points="106.53,262.65 106.53,237.72 21.76,237.72 21.76,349.91 52.03,349.91 52.03,308.78 92.99,308.78 92.99,284.2 
		52.03,284.2 52.03,262.65 	"/>
	<path d="M168.32,352.05c32.59,0,58.23-23.69,58.23-58.23c0-34.55-25.64-58.23-58.23-58.23c-32.59,0-58.23,23.69-58.23,58.23
		C110.09,328.37,135.73,352.05,168.32,352.05z M168.32,262.3c16.56,0,27.07,12.47,27.07,31.52s-10.51,31.52-27.07,31.52
		c-16.56,0-27.07-12.47-27.07-31.52S151.76,262.3,168.32,262.3z"/>
	<path d="M238.66,349.91h29.74v-37.22h20.12c10.15,0,15.67,2.85,16.56,15.67c0.89,11.58,2.31,18.52,4.63,21.55h30.63
		c-3.74-4.1-4.27-9.08-5.88-25.82c-1.25-13-8.01-19.59-19.59-21.9c13.71-1.78,23.86-12.47,23.86-28.85
		c0-21.9-14.42-35.62-43.45-35.62h-56.63V349.91z M268.4,261.94h21.55c12.82,0,19.23,4.81,19.23,13.89
		c0,10.33-6.41,13.53-19.23,13.53H268.4V261.94z"/>
	<polygon points="438.83,262.65 438.83,237.72 352.1,237.72 352.1,349.91 440.43,349.91 440.43,324.98 381.84,324.98 381.84,305.57 
		425.83,305.57 425.83,281 381.84,281 381.84,262.65 	"/>
	<polygon points="505.61,312.34 504.9,312.34 477.12,237.72 445.42,237.72 488.51,349.91 520.39,349.91 563.49,237.72 
		533.39,237.72 	"/>
	<polygon points="660.37,324.98 601.78,324.98 601.78,305.57 645.76,305.57 645.76,281 601.78,281 601.78,262.65 658.76,262.65 
		658.76,237.72 572.04,237.72 572.04,349.91 660.37,349.91 	"/>
	<path d="M750.12,302.19c13.71-1.78,23.86-12.47,23.86-28.85c0-21.9-14.42-35.62-43.45-35.62H673.9v112.19h29.74v-37.22h20.12
		c10.15,0,15.67,2.85,16.56,15.67c0.89,11.58,2.31,18.52,4.63,21.55h30.63c-3.74-4.1-4.27-9.08-5.88-25.82
		C768.46,311.09,761.7,304.5,750.12,302.19z M725.19,289.37h-21.55v-27.43h21.55c12.82,0,19.23,4.81,19.23,13.89
		C744.42,286.16,738.01,289.37,725.19,289.37z"/>
	<polygon points="337.95,439.16 337.95,410.31 307.32,410.31 307.32,439.16 313.37,485.11 331.89,485.11 	"/>
	<rect x="307.32" y="491.88" width="30.63" height="30.63"/>
	<rect x="380.68" y="491.88" width="30.63" height="30.63"/>
	<polygon points="411.31,410.31 380.68,410.31 380.68,439.16 386.74,485.11 405.26,485.11 411.31,439.16 	"/>
	<rect x="454.05" y="491.88" width="30.63" height="30.63"/>
	<polygon points="454.05,439.16 460.11,485.11 478.63,485.11 484.68,439.16 484.68,410.31 454.05,410.31 	"/>
</g>
<g id="exp_white_bg" class="st0">
	<g class="st2">
		<path class="st5" d="M-0.18,1224h792V0h-792V1224z M17.67,948.28v-2.66l5.22-1.34v-0.08l-5.22-1.65v-2.92v-0.09v-3.23l5.22-1.65
			v-0.08l-5.22-1.34v-2.66l5.22-1.34v-0.08l-5.22-1.65v-2.92v-0.09v-3.23l5.22-1.65v-0.08l-5.22-1.34v-2.66l5.22-1.34v-0.08
			l-5.22-1.65v-3.01l9.19,2.91v3.28l-5.19,1.34v0.08l5.19,1.34v3.28l-9.06,2.86l9.06,2.86v3.28l-5.19,1.34v0.08l5.19,1.34v3.28
			l-9.06,2.86l9.06,2.86v3.28l-5.19,1.34v0.08l5.19,1.34v3.28l-9.19,2.91v-3.32l5.22-1.65v-0.08L17.67,948.28z M23.32,907.02v-3.55
			h3.55v3.55H23.32z M524.43,735.18l-11.14,35.93l-52.22,180.91c7.93,2.53,13.97,6.91,17.12,12.64c1,1.82,1.9,4.14,2.31,6.93
			c4.16,1.45,8.17,3.91,11.66,7.28c5.91,5.69,9.25,13.34,9.41,21.55s-2.89,15.98-8.58,21.89c-1.74,1.8-3.62,3.25-5.57,4.43
			c0.72,0.69,1.42,1.42,2.08,2.19c9.65,11.36,8.27,28.46-3.09,38.11c-1.63,1.39-3.34,2.47-5.08,3.32
			c9.06,11.03,7.63,27.38-3.28,36.66c-2.98,2.53-6.27,3.99-9.5,4.78c4.79,9.75,2.57,21.89-6.07,29.23
			c-2.94,2.49-6.13,4.18-9.54,5.07c-18.05,13.47-37.49,19.37-54.13,21.63l-4.72,16.37l-6.25-1.8l-6.24-1.8l3.35-11.61
			c-12.13,0.38-21.49-0.92-25.65-1.65c-9.57,4.58-52.85,25.33-90.17,43.76c-0.93,0.46-1.91,0.67-2.87,0.67
			c-2.4,0-4.7-1.33-5.83-3.62c-1.59-3.22-0.27-7.12,2.95-8.71c42.1-20.8,91.76-44.53,92.26-44.76c1.31-0.63,2.8-0.8,4.22-0.48
			c0.23,0.05,12.22,2.59,28.94,1.46l6.26-21.68c-1.88-0.67-3.8-1.36-5.78-2.07l-4.51-1.62c-3.64-1.3-6.84-3.49-9.24-6.32
			c-7.57-8.91-6.48-22.31,2.43-29.88c1.27-1.08,2.65-1.98,4.11-2.72c-2.38-4.05-3.46-8.72-3.07-13.5c0.5-6.14,3.36-11.73,8.06-15.72
			c2.26-1.92,4.88-3.34,7.69-4.24c-0.36-0.89-0.65-1.8-0.89-2.72c-6.3,7.36-12.71,11.11-13.25,11.43c-3.12,1.78-7.09,0.7-8.87-2.42
			c-0.27-0.47-0.46-0.95-0.6-1.44l-195.21,55.62c-48.99,17.05-104.56,36.52-146.84,51.71c-0.73,0.26-1.47,0.38-2.2,0.38
			c-2.67,0-5.16-1.65-6.12-4.3c-1.21-3.38,0.54-7.1,3.92-8.32c88.04-31.64,233.62-81.79,257.74-90.09
			c4.51-16.65,22.01-51.5,43.52-70.93c22.69-20.49,61.26-43.12,73.52-47.59c11.23-4.09,30.01-1.81,45.1,0.02
			c1.26,0.15,2.49,0.3,3.69,0.44l11.78-40.82c-30.87-35.97-72.88-35.79-117.37-35.6c-45.53,0.2-92.61,0.4-127.4-40.25
			c-1.45-1.7-1.93-4.02-1.27-6.15l53.17-171.4c0.7-2.26,2.58-3.96,4.89-4.44c2.32-0.48,4.71,0.34,6.25,2.14
			c30.88,36.08,72.94,35.9,117.46,35.71c41.86-0.19,85.03-0.37,118.75,31.2l2.42-8.38l12.49,3.61l-4.83,16.74
			C524.81,733,524.76,734.11,524.43,735.18z M27.07,883.88c0,1.79-0.93,2.97-2.49,2.97c-1.77,0-2.54-1.28-2.89-3.28l-0.43-2.58
			h-0.14c-0.76,0-1.22,0.35-1.22,1.15c0,0.74,0.47,1.11,1.15,1.26l-0.21,3.09c-2.02-0.29-3.42-1.79-3.42-4.56
			c0-2.43,1.05-4.23,3.61-4.23h3.13c0.47,0,0.68-0.21,0.68-0.56c0-0.27-0.04-0.47-0.14-0.74h1.77c0.33,0.47,0.6,1.13,0.6,2.08
			c0,1.13-0.58,2.02-1.63,2.33C26.51,881.36,27.07,882.41,27.07,883.88z M24.7,841.25h1.77c0.33,0.47,0.6,1.13,0.6,2.08
			c0,1.13-0.58,2.02-1.63,2.33c1.07,0.54,1.63,1.59,1.63,3.05c0,1.79-0.93,2.97-2.49,2.97c-1.77,0-2.54-1.28-2.89-3.28l-0.43-2.58
			h-0.14c-0.76,0-1.22,0.35-1.22,1.15c0,0.74,0.47,1.11,1.15,1.26l-0.21,3.09c-2.02-0.29-3.42-1.79-3.42-4.56
			c0-2.43,1.05-4.23,3.61-4.23h3.13c0.47,0,0.68-0.21,0.68-0.56C24.84,841.73,24.8,841.52,24.7,841.25z M17.42,808.28
			c0-2.54,1.75-3.28,3.67-3.28h5.77v3.34h-4.89c-1.26,0-1.92,0.23-1.92,1.24c0,1.11,0.91,1.48,2.29,1.48h4.51v3.34h-4.89
			c-1.26,0-1.92,0.25-1.92,1.26c0,1.09,0.91,1.48,2.29,1.48h4.51v3.34h-9.19v-3.34h1.38c-1.01-0.49-1.63-1.48-1.63-2.87
			c0-1.63,0.74-2.47,1.81-2.87C18.2,810.92,17.42,809.82,17.42,808.28z M20.51,821.88l0.08,2.74c-0.66,0.12-1.07,0.7-1.07,1.73
			c0,0.64,0.25,1.01,0.66,1.01c0.31,0,0.47-0.25,0.52-0.56l0.31-1.79c0.33-2.06,1.26-3.26,3.05-3.26c1.94,0,3.05,1.65,3.05,4.27
			c0,2.54-1.01,4.43-3.24,4.62l-0.04-2.91c0.76-0.12,1.2-0.74,1.2-1.75c0-0.74-0.27-1.13-0.64-1.13c-0.35,0-0.6,0.21-0.7,0.85
			l-0.21,1.36c-0.35,2.23-1.07,3.4-2.95,3.4c-1.81,0-3.11-1.59-3.11-4.16C17.42,823.63,18.59,822.07,20.51,821.88z M24.39,789.21
			c-0.35,0-0.6,0.21-0.7,0.85l-0.21,1.36c-0.35,2.23-1.07,3.4-2.95,3.4c-1.81,0-3.11-1.59-3.11-4.16c0-2.66,1.17-4.23,3.09-4.41
			l0.08,2.74c-0.66,0.12-1.07,0.7-1.07,1.73c0,0.64,0.25,1.01,0.66,1.01c0.31,0,0.47-0.25,0.52-0.56l0.31-1.79
			c0.33-2.06,1.26-3.26,3.05-3.26c1.94,0,3.05,1.65,3.05,4.27c0,2.54-1.01,4.43-3.24,4.62l-0.04-2.91c0.76-0.12,1.2-0.74,1.2-1.75
			C25.03,789.61,24.76,789.21,24.39,789.21z M22.66,694.86h4.21v3.34h-9.19v-3.34h1.63c-1.03-0.33-1.88-1.3-1.88-2.52
			c0-0.56,0.17-1.05,0.35-1.28l3.15,0.21c-0.27,0.45-0.39,0.95-0.39,1.59C20.53,694.1,21.11,694.86,22.66,694.86z M22.26,699.52
			c2.87,0,4.84,2.04,4.84,5.03c0,3.01-1.98,5.03-4.84,5.03c-2.84,0-4.84-2.02-4.84-5.03C17.42,701.56,19.42,699.52,22.26,699.52z
			 M26.86,712.46v3.55h-3.55v-3.55H26.86z M20.51,718.97l0.08,2.74c-0.66,0.12-1.07,0.7-1.07,1.73c0,0.64,0.25,1.01,0.66,1.01
			c0.31,0,0.47-0.25,0.52-0.56l0.31-1.79c0.33-2.06,1.26-3.26,3.05-3.26c1.94,0,3.05,1.65,3.05,4.27c0,2.54-1.01,4.43-3.24,4.62
			l-0.04-2.91c0.76-0.12,1.2-0.74,1.2-1.75c0-0.74-0.27-1.13-0.64-1.13c-0.35,0-0.6,0.21-0.7,0.85l-0.21,1.36
			c-0.35,2.23-1.07,3.4-2.95,3.4c-1.81,0-3.11-1.59-3.11-4.16C17.42,720.73,18.59,719.16,20.51,718.97z M22.18,732.23h-4.51v-3.34
			h9.19v3.34h-1.38c1.03,0.49,1.63,1.5,1.63,2.89c0,2.52-1.73,3.28-3.65,3.28h-5.79v-3.34h4.91c1.24,0,1.92-0.35,1.92-1.36
			C24.49,732.64,23.58,732.23,22.18,732.23z M17.77,739.32l3.15,0.21c-0.27,0.45-0.39,0.95-0.39,1.59c0,1.24,0.58,2,2.12,2h4.21
			v3.34h-9.19v-3.34h1.63c-1.03-0.33-1.88-1.3-1.88-2.52C17.42,740.04,17.58,739.54,17.77,739.32z M17.67,748.26h9.19v3.34h-9.19
			V748.26z M17.67,831.8h9.19v3.34h-9.19V831.8z M17.67,854.9v-2.39h2.31v2.39h3.36c0.78,0,1.09-0.37,1.09-1.05
			c0-0.41-0.08-0.87-0.31-1.42h2.16c0.52,0.7,0.82,1.5,0.82,2.76c0,1.55-0.64,3.01-2.8,3.01h-4.33v1.24h-2.06l-0.1-0.68
			c-0.14-0.93-0.64-1.22-1.48-1.44l-1.2-0.31v-2.1H17.67z M26.86,860.34v3.34h-9.19v-3.34H26.86z M17.67,875.45v-3.34h1.59
			c-1.09-0.45-1.83-1.48-1.83-3.03c0-2.7,2.14-4.08,4.84-4.08c2.72,0,4.84,1.38,4.84,4.08c0,1.55-0.74,2.58-1.81,3.03h4.86v3.34
			H17.67z M92.99,284.2v24.58H52.03v41.14H21.76V237.72h84.77v24.93H52.03v21.55H92.99z M270.27,90.42V65.13h29.21v25.29H270.27z
			 M299.3,97.9v79.43h-28.85V97.9H299.3z M295.29,237.72c29.03,0,43.45,13.71,43.45,35.62c0,16.38-10.15,27.07-23.86,28.85
			c11.58,2.32,18.34,8.9,19.59,21.9c1.6,16.74,2.14,21.73,5.88,25.82h-30.63c-2.31-3.03-3.74-9.97-4.63-21.55
			c-0.89-12.82-6.41-15.67-16.56-15.67H268.4v37.22h-29.74V237.72H295.29z M345.6,587.55c2.7,0,4.08,2.14,4.08,4.84
			c0,2.72-1.38,4.84-4.08,4.84c-1.55,0-2.58-0.74-3.03-1.81v4.87h-3.34V587.8h3.34v1.59C343.03,588.29,344.06,587.55,345.6,587.55z
			 M320.73,594.13c2.02,0,2.8-1.34,3.01-2.78l3.36,0.14c-0.25,3.24-2.37,5.75-6.35,5.75c-3.79,0-6.66-2.74-6.66-6.74
			c0-4,2.87-6.74,6.66-6.74c3.98,0,6.1,2.54,6.35,5.77l-3.36,0.12c-0.21-1.44-0.99-2.78-3.01-2.78c-1.92,0-3.03,1.42-3.03,3.63
			C317.7,592.71,318.81,594.13,320.73,594.13z M307.32,522.51v-30.63h30.63v30.63H307.32z M310.64,591.51l-0.43,2.06h-2.04
			l-0.8,3.42h-2.49l0.8-3.42h-1.77l-0.8,3.42h-2.49l0.8-3.42h-1.81l0.43-2.06h1.88l0.49-2.02h-1.98l0.43-2.06h2.02l0.82-3.42h2.49
			l-0.83,3.42h1.77l0.82-3.42h2.49l-0.82,3.42h1.83l-0.43,2.06h-1.88l-0.49,2.02H310.64z M307.32,439.16v-28.85h30.63v28.85
			l-6.05,45.95h-18.52L307.32,439.16z M332.54,590.03c-0.74,0-1.11,0.47-1.26,1.15l-3.09-0.21c0.29-2.02,1.79-3.42,4.56-3.42
			c2.43,0,4.23,1.05,4.23,3.61v3.13c0,0.47,0.21,0.68,0.56,0.68c0.27,0,0.47-0.04,0.74-0.14v1.77c-0.47,0.33-1.13,0.6-2.08,0.6
			c-1.13,0-2.02-0.58-2.33-1.63c-0.54,1.07-1.59,1.63-3.05,1.63c-1.79,0-2.97-0.93-2.97-2.49c0-1.77,1.28-2.54,3.28-2.89l2.58-0.43
			v-0.14C333.69,590.48,333.34,590.03,332.54,590.03z M425.83,281v24.58h-43.99v19.41h58.59v24.93H352.1V237.72h86.73v24.93h-56.99
			V281H425.83z M443.33,596.99h-3.73l-0.97-2.51h-5.07l-0.97,2.51h-3.52l5.17-12.99h3.92L443.33,596.99z M422.96,593.82l-1.36-0.21
			c-2.23-0.35-3.4-1.07-3.4-2.95c0-1.81,1.59-3.11,4.16-3.11c2.66,0,4.23,1.18,4.41,3.09l-2.74,0.08c-0.12-0.66-0.7-1.07-1.73-1.07
			c-0.64,0-1.01,0.25-1.01,0.66c0,0.31,0.25,0.47,0.56,0.52l1.79,0.31c2.06,0.33,3.26,1.26,3.26,3.05c0,1.94-1.65,3.05-4.27,3.05
			c-2.54,0-4.43-1.01-4.62-3.24l2.91-0.04c0.12,0.76,0.74,1.2,1.75,1.2c0.74,0,1.13-0.27,1.13-0.64
			C423.8,594.17,423.6,593.92,422.96,593.82z M416.78,584.01v12.99h-3.5v-12.99H416.78z M405.11,590.19c-1.11,0-1.48,0.91-1.48,2.29
			v4.51h-3.34v-4.89c0-1.26-0.25-1.92-1.26-1.92c-1.09,0-1.48,0.91-1.48,2.29v4.51h-3.34v-9.19h3.34v1.38
			c0.5-1.01,1.48-1.63,2.87-1.63c1.63,0,2.47,0.74,2.87,1.81c0.49-1.03,1.59-1.81,3.13-1.81c2.54,0,3.28,1.75,3.28,3.67v5.77h-3.34
			v-4.89C406.34,590.85,406.12,590.19,405.11,590.19z M380.68,522.51v-30.63h30.63v30.63H380.68z M388.99,593.82l-1.36-0.21
			c-2.23-0.35-3.4-1.07-3.4-2.95c0-1.81,1.59-3.11,4.16-3.11c2.66,0,4.23,1.18,4.41,3.09l-2.74,0.08c-0.12-0.66-0.7-1.07-1.73-1.07
			c-0.64,0-1.01,0.25-1.01,0.66c0,0.31,0.25,0.47,0.56,0.52l1.79,0.31c2.06,0.33,3.26,1.26,3.26,3.05c0,1.94-1.65,3.05-4.27,3.05
			c-2.54,0-4.43-1.01-4.62-3.24l2.91-0.04c0.12,0.76,0.74,1.2,1.75,1.2c0.74,0,1.13-0.27,1.13-0.64
			C389.83,594.17,389.63,593.92,388.99,593.82z M379.53,586.93v-2.93h3.38v2.93H379.53z M382.89,587.8v9.19h-3.34v-9.19H382.89z
			 M405.26,485.11h-18.52l-6.05-45.95v-28.85h30.63v28.85L405.26,485.11z M377.73,584.01v12.99h-3.34v-12.99H377.73z M367.7,590.03
			c-0.74,0-1.11,0.47-1.26,1.15l-3.09-0.21c0.29-2.02,1.79-3.42,4.56-3.42c2.43,0,4.23,1.05,4.23,3.61v3.13
			c0,0.47,0.21,0.68,0.56,0.68c0.27,0,0.47-0.04,0.74-0.14v1.77c-0.47,0.33-1.13,0.6-2.08,0.6c-1.13,0-2.02-0.58-2.33-1.63
			c-0.54,1.07-1.59,1.63-3.05,1.63c-1.79,0-2.97-0.93-2.97-2.49c0-1.77,1.28-2.54,3.28-2.89l2.58-0.43v-0.14
			C368.85,590.48,368.5,590.03,367.7,590.03z M355.25,590.11v-2.06l0.68-0.1c0.93-0.14,1.22-0.64,1.44-1.48l0.31-1.2h2.1v2.54h2.39
			v2.31h-2.39v3.36c0,0.78,0.37,1.09,1.05,1.09c0.41,0,0.87-0.08,1.42-0.31v2.16c-0.7,0.52-1.5,0.82-2.76,0.82
			c-1.55,0-3.01-0.64-3.01-2.8v-4.33H355.25z M354.36,584.01v2.93h-3.38v-2.93H354.36z M354.34,587.8v9.19H351v-9.19H354.34z
			 M487.4,590.83l1.79,0.31c2.06,0.33,3.26,1.26,3.26,3.05c0,1.94-1.65,3.05-4.27,3.05c-2.54,0-4.43-1.01-4.62-3.24l2.91-0.04
			c0.12,0.76,0.74,1.2,1.75,1.2c0.74,0,1.13-0.27,1.13-0.64c0-0.35-0.21-0.6-0.85-0.7l-1.36-0.21c-2.23-0.35-3.4-1.07-3.4-2.95
			c0-1.81,1.59-3.11,4.16-3.11c2.66,0,4.23,1.18,4.41,3.09l-2.74,0.08c-0.12-0.66-0.7-1.07-1.73-1.07c-0.64,0-1.01,0.25-1.01,0.66
			C486.84,590.62,487.09,590.79,487.4,590.83z M484.68,439.16l-6.05,45.95h-18.52l-6.05-45.95v-28.85h30.63V439.16z M484.68,491.88
			v30.63h-30.63v-30.63H484.68z M476.19,597.24c-2.51,0-3.28-1.73-3.28-3.65v-5.79h3.34v4.91c0,1.24,0.35,1.92,1.36,1.92
			c1.05,0,1.46-0.91,1.46-2.31v-4.51h3.34v9.19h-3.34v-1.38C478.58,596.64,477.57,597.24,476.19,597.24z M470.71,587.55
			c0.56,0,1.05,0.17,1.28,0.35l-0.21,3.15c-0.45-0.27-0.95-0.39-1.59-0.39c-1.24,0-2,0.58-2,2.12v4.21h-3.34v-9.19h3.34v1.63
			C468.52,588.4,469.49,587.55,470.71,587.55z M459.68,586.93v-2.93h3.38v2.93H459.68z M463.04,587.8v9.19h-3.34v-9.19H463.04z
			 M455.31,584.01h3.48l-4.99,12.99h-3.69l-4.99-12.99h3.67l3.22,8.64h0.08L455.31,584.01z M520.39,349.91h-31.88l-43.1-112.19h31.7
			l27.78,74.62h0.71l27.78-74.62h30.1L520.39,349.91z M761.72,987.67c0-1.79,0.93-2.97,2.49-2.97c1.77,0,2.54,1.28,2.89,3.28
			l0.43,2.58h0.14c0.76,0,1.22-0.35,1.22-1.15c0-0.74-0.47-1.11-1.15-1.26l0.21-3.09c2.02,0.29,3.42,1.79,3.42,4.56
			c0,2.43-1.05,4.23-3.61,4.23h-3.13c-0.47,0-0.68,0.21-0.68,0.56c0,0.27,0.04,0.47,0.14,0.74h-1.77c-0.33-0.47-0.6-1.13-0.6-2.08
			c0-1.13,0.58-2.02,1.63-2.33C762.28,990.18,761.72,989.13,761.72,987.67z M764.09,1030.29h-1.77c-0.33-0.47-0.6-1.13-0.6-2.08
			c0-1.13,0.58-2.02,1.63-2.33c-1.07-0.54-1.63-1.59-1.63-3.05c0-1.79,0.93-2.97,2.49-2.97c1.77,0,2.54,1.28,2.89,3.28l0.43,2.58
			h0.14c0.76,0,1.22-0.35,1.22-1.15c0-0.74-0.47-1.11-1.15-1.26l0.21-3.09c2.02,0.29,3.42,1.79,3.42,4.56
			c0,2.43-1.05,4.23-3.61,4.23h-3.13c-0.47,0-0.68,0.21-0.68,0.56C763.95,1029.82,763.99,1030.02,764.09,1030.29z M771.37,1063.27
			c0,2.54-1.75,3.28-3.67,3.28h-5.77v-3.34h4.89c1.26,0,1.92-0.23,1.92-1.24c0-1.11-0.91-1.48-2.29-1.48h-4.51v-3.34h4.89
			c1.26,0,1.92-0.25,1.92-1.26c0-1.09-0.91-1.48-2.29-1.48h-4.51v-3.34h9.19v3.34h-1.38c1.01,0.49,1.63,1.48,1.63,2.87
			c0,1.63-0.74,2.47-1.81,2.87C770.59,1060.63,771.37,1061.72,771.37,1063.27z M768.28,1049.66l-0.08-2.74
			c0.66-0.12,1.07-0.7,1.07-1.73c0-0.64-0.25-1.01-0.66-1.01c-0.31,0-0.47,0.25-0.52,0.56l-0.31,1.79
			c-0.33,2.06-1.26,3.26-3.05,3.26c-1.94,0-3.05-1.65-3.05-4.27c0-2.54,1.01-4.43,3.24-4.62l0.04,2.91c-0.76,0.12-1.2,0.74-1.2,1.75
			c0,0.74,0.27,1.13,0.64,1.13c0.35,0,0.6-0.21,0.7-0.85l0.21-1.36c0.35-2.23,1.07-3.4,2.95-3.4c1.81,0,3.11,1.59,3.11,4.16
			C771.37,1047.91,770.2,1049.48,768.28,1049.66z M764.4,1080.67c0.35,0,0.6-0.21,0.7-0.85l0.21-1.36c0.35-2.23,1.07-3.4,2.95-3.4
			c1.81,0,3.11,1.59,3.11,4.16c0,2.66-1.17,4.23-3.09,4.41l-0.08-2.74c0.66-0.12,1.07-0.7,1.07-1.73c0-0.64-0.25-1.01-0.66-1.01
			c-0.31,0-0.47,0.25-0.52,0.56l-0.31,1.79c-0.33,2.06-1.26,3.26-3.05,3.26c-1.94,0-3.05-1.65-3.05-4.27c0-2.54,1.01-4.43,3.24-4.62
			l0.04,2.91c-0.76,0.12-1.2,0.74-1.2,1.75C763.76,1080.28,764.03,1080.67,764.4,1080.67z M761.93,1116.56h9.19v3.34h-9.19V1116.56z
			 M766.61,1135.94h4.51v3.34h-9.19v-3.34h1.38c-1.03-0.49-1.63-1.5-1.63-2.89c0-2.52,1.73-3.28,3.65-3.28h5.79v3.34h-4.91
			c-1.24,0-1.92,0.35-1.92,1.36C764.3,1135.53,765.21,1135.94,766.61,1135.94z M771.12,1039.75h-9.19v-3.34h9.19V1039.75z
			 M771.12,1016.65v2.39h-2.31v-2.39h-3.36c-0.78,0-1.09,0.37-1.09,1.05c0,0.41,0.08,0.87,0.31,1.42h-2.16
			c-0.52-0.7-0.82-1.5-0.82-2.76c0-1.55,0.64-3.01,2.8-3.01h4.33v-1.24h2.06l0.1,0.68c0.14,0.93,0.64,1.22,1.48,1.44l1.2,0.31v2.1
			H771.12z M761.93,1011.2v-3.34h9.19v3.34H761.93z M771.12,996.1v3.34h-1.59c1.09,0.45,1.83,1.48,1.83,3.03
			c0,2.7-2.14,4.08-4.84,4.08c-2.72,0-4.84-1.38-4.84-4.08c0-1.55,0.74-2.58,1.81-3.03h-4.86v-3.34H771.12z M768.28,1149.19
			l-0.08-2.74c0.66-0.12,1.07-0.7,1.07-1.73c0-0.64-0.25-1.01-0.66-1.01c-0.31,0-0.47,0.25-0.52,0.56l-0.31,1.79
			c-0.33,2.06-1.26,3.26-3.05,3.26c-1.94,0-3.05-1.65-3.05-4.27c0-2.54,1.01-4.43,3.24-4.62l0.04,2.91c-0.76,0.12-1.2,0.74-1.2,1.75
			c0,0.74,0.27,1.13,0.64,1.13c0.35,0,0.6-0.21,0.7-0.85l0.21-1.36c0.35-2.23,1.07-3.4,2.95-3.4c1.81,0,3.11,1.59,3.11,4.16
			C771.37,1147.44,770.2,1149.01,768.28,1149.19z M771.02,1128.85l-3.15-0.21c0.27-0.45,0.39-0.95,0.39-1.59c0-1.24-0.58-2-2.12-2
			h-4.21v-3.34h9.19v3.34h-1.63c1.03,0.33,1.88,1.3,1.88,2.52C771.37,1128.13,771.21,1128.62,771.02,1128.85z M774.92,1119.92h-2.93
			v-3.38h2.93V1119.92z M774.92,1105.66l-8.64,3.22v0.08l8.64,3.22v3.48l-12.99-4.99v-3.69l12.99-4.99V1105.66z M774.92,1095.02
			l-12.99,5.17v-3.73l2.51-0.97v-5.07l-2.51-0.97v-3.53l12.99,5.17V1095.02z M774.92,1073.64h-12.99v-3.5h12.99V1073.64z
			 M774.92,1039.77h-2.93v-3.38h2.93V1039.77z M774.92,1034.6h-12.99v-3.34h12.99V1034.6z M774.92,1011.23h-2.93v-3.38h2.93V1011.23
			z M769.39,983.96l-0.12-3.36c1.44-0.21,2.78-0.99,2.78-3.01c0-1.92-1.42-3.03-3.63-3.03s-3.63,1.11-3.63,3.03
			c0,2.02,1.34,2.8,2.78,3.01l-0.14,3.36c-3.24-0.25-5.75-2.37-5.75-6.35c0-3.79,2.74-6.66,6.74-6.66s6.74,2.87,6.74,6.66
			C775.16,981.59,772.63,983.71,769.39,983.96z M761.93,959.96v-2.49l3.42,0.8v-1.81l2.06,0.43v1.88l2.02,0.49v-1.98l2.06,0.43v2.02
			l3.42,0.82v2.49l-3.42-0.82V964l3.42,0.82v2.49l-3.42-0.82v1.83l-2.06-0.43v-1.88l-2.02-0.5v1.98l-2.06-0.43v-2.04l-3.42-0.8
			v-2.49l3.42,0.8v-1.77L761.93,959.96z M744.96,349.91c-2.31-3.03-3.74-9.97-4.63-21.55c-0.89-12.82-6.41-15.67-16.56-15.67h-20.12
			v37.22H673.9V237.72h56.63c29.03,0,43.45,13.71,43.45,35.62c0,16.38-10.15,27.07-23.86,28.85c11.58,2.32,18.34,8.9,19.59,21.9
			c1.6,16.74,2.14,21.73,5.88,25.82H744.96z M711.21,97.9l17.63,46.48h0.71l17.99-46.48h28.32l-45.59,107.92h-28.32l11.4-27.43
			L680.93,97.9H711.21z M617.54,100.03l5.88-0.89c8.01-1.25,10.51-5.52,12.47-12.82l2.67-10.33h18.16v21.9h20.66v19.95h-20.66v29.03
			c0,6.77,3.21,9.44,9.08,9.44c3.56,0,7.48-0.71,12.29-2.67v18.7c-6.05,4.45-13,7.12-23.86,7.12c-13.36,0-26-5.52-26-24.22v-37.4
			h-10.69V100.03z M580.67,65.13h29.21v25.29h-29.21V65.13z M609.7,97.9v79.43h-28.85V97.9H609.7z M572.04,237.72h86.73v24.93
			h-56.99V281h43.99v24.58h-43.99v19.41h58.59v24.93h-88.33V237.72z M560.91,95.76c4.81,0,9.08,1.42,11.04,3.03l-1.78,27.25
			c-3.92-2.31-8.19-3.38-13.71-3.38c-10.69,0-17.27,4.99-17.27,18.34v36.33h-28.85V97.9h28.85v14.07
			C542.03,103.06,550.4,95.76,560.91,95.76z M523.04,21.53c0-0.89,0.58-1.57,1.57-1.94c-0.82-0.54-1.32-1.32-1.32-2.33
			c0-1.96,1.86-3.15,4.43-3.15c1.11,0,2.16,0.27,2.95,0.74c0.56-0.76,1.57-1.42,2.58-1.42v2.51c-0.39,0-0.89,0.04-1.34,0.14
			c0.19,0.35,0.29,0.74,0.29,1.17c0,1.94-1.88,3.13-4.47,3.13c-0.74,0-1.4-0.08-2-0.27c-0.12,0.1-0.19,0.25-0.19,0.43
			c0,0.31,0.23,0.56,0.78,0.56h3.81c2.08,0,3.13,1.09,3.13,2.64c0,2.29-2.78,3.34-5.77,3.34c-2.62,0-4.89-0.52-4.89-2.25
			c0-0.8,0.72-1.44,1.75-1.53C523.53,23.06,523.04,22.32,523.04,21.53z M515.45,14.36h3.34v1.63c0.33-1.03,1.3-1.88,2.52-1.88
			c0.56,0,1.05,0.16,1.28,0.35l-0.21,3.15c-0.45-0.27-0.95-0.39-1.59-0.39c-1.24,0-2,0.58-2,2.12v4.21h-3.34V14.36z M509.1,14.11
			c2.99,0,5.03,2,5.03,4.84c0,2.87-2.04,4.84-5.03,4.84c-3.01,0-5.03-1.98-5.03-4.84C504.07,16.11,506.09,14.11,509.1,14.11z
			 M497.64,20.01h3.55v3.55h-3.55V20.01z M490.86,20.38l-1.36-0.21c-2.23-0.35-3.4-1.07-3.4-2.95c0-1.81,1.59-3.11,4.16-3.11
			c2.66,0,4.23,1.18,4.41,3.09l-2.74,0.08c-0.12-0.66-0.7-1.07-1.73-1.07c-0.64,0-1.01,0.25-1.01,0.66c0,0.31,0.25,0.47,0.56,0.52
			l1.79,0.31c2.06,0.33,3.26,1.26,3.26,3.05c0,1.94-1.65,3.05-4.27,3.05c-2.54,0-4.43-1.01-4.62-3.24l2.91-0.04
			c0.12,0.76,0.74,1.2,1.75,1.2c0.74,0,1.13-0.27,1.13-0.64C491.71,20.73,491.5,20.48,490.86,20.38z M475.26,14.36h3.34v4.91
			c0,1.24,0.35,1.92,1.36,1.92c1.05,0,1.46-0.91,1.46-2.31v-4.51h3.34v9.19h-3.34v-1.38c-0.49,1.03-1.5,1.63-2.89,1.63
			c-2.52,0-3.28-1.73-3.28-3.65V14.36z M467.2,14.36h3.34v1.63c0.33-1.03,1.3-1.88,2.52-1.88c0.56,0,1.05,0.16,1.28,0.35l-0.21,3.15
			c-0.45-0.27-0.95-0.39-1.59-0.39c-1.24,0-2,0.58-2,2.12v4.21h-3.34V14.36z M462.03,10.57h3.38v2.93h-3.38V10.57z M465.39,14.36
			v9.19h-3.34v-9.19H465.39z M451.15,10.57l3.22,8.64h0.08l3.22-8.64h3.48l-4.99,12.99h-3.69l-4.99-12.99H451.15z M436.54,10.57
			h3.92l5.17,12.99h-3.73l-0.97-2.52h-5.07l-0.97,2.52h-3.52L436.54,10.57z M423.59,20.38l-1.36-0.21c-2.23-0.35-3.4-1.07-3.4-2.95
			c0-1.81,1.59-3.11,4.16-3.11c2.66,0,4.23,1.18,4.41,3.09l-2.74,0.08c-0.12-0.66-0.7-1.07-1.73-1.07c-0.64,0-1.01,0.25-1.01,0.66
			c0,0.31,0.25,0.47,0.56,0.52l1.79,0.31c2.06,0.33,3.26,1.26,3.26,3.05c0,1.94-1.65,3.05-4.27,3.05c-2.54,0-4.43-1.01-4.62-3.24
			l2.91-0.04c0.12,0.76,0.74,1.2,1.75,1.2c0.74,0,1.13-0.27,1.13-0.64C424.44,20.73,424.23,20.48,423.59,20.38z M413.91,10.57h3.5
			v12.99h-3.5V10.57z M440.17,132.62l22.26-3.74v-1.25c0-6.59-3.03-10.51-9.97-10.51c-6.41,0-9.62,4.1-10.86,9.97l-26.71-1.78
			c2.49-17.45,15.49-29.56,39.36-29.56c21.01,0,36.51,9.08,36.51,31.17v27.07c0,4.1,1.78,5.88,4.81,5.88c2.31,0,4.1-0.36,6.41-1.25
			v15.31c-4.1,2.85-9.79,5.16-17.99,5.16c-9.79,0-17.45-4.99-20.12-14.07c-4.63,9.26-13.71,14.07-26.36,14.07
			c-15.49,0-25.64-8.01-25.64-21.55C411.85,142.24,422.89,135.65,440.17,132.62z M393.17,14.36h3.34v1.38
			c0.49-1.01,1.48-1.63,2.87-1.63c1.63,0,2.47,0.74,2.87,1.81c0.49-1.03,1.59-1.81,3.13-1.81c2.54,0,3.28,1.75,3.28,3.67v5.77h-3.34
			v-4.89c0-1.26-0.23-1.92-1.24-1.92c-1.11,0-1.48,0.91-1.48,2.29v4.51h-3.34v-4.89c0-1.26-0.25-1.92-1.26-1.92
			c-1.09,0-1.48,0.91-1.48,2.29v4.51h-3.34V14.36z M387.96,20.38l-1.36-0.21c-2.23-0.35-3.4-1.07-3.4-2.95
			c0-1.81,1.59-3.11,4.16-3.11c2.66,0,4.23,1.18,4.41,3.09l-2.74,0.08c-0.12-0.66-0.7-1.07-1.73-1.07c-0.64,0-1.01,0.25-1.01,0.66
			c0,0.31,0.25,0.47,0.56,0.52l1.79,0.31c2.06,0.33,3.26,1.26,3.26,3.05c0,1.94-1.65,3.05-4.27,3.05c-2.54,0-4.43-1.01-4.62-3.24
			l2.91-0.04c0.12,0.76,0.74,1.2,1.75,1.2c0.74,0,1.13-0.27,1.13-0.64C388.8,20.73,388.6,20.48,387.96,20.38z M378.5,10.57h3.38
			v2.93h-3.38V10.57z M381.86,14.36v9.19h-3.34v-9.19H381.86z M373.37,10.57h3.34v12.99h-3.34V10.57z M366.67,16.59
			c-0.74,0-1.11,0.47-1.26,1.15l-3.09-0.21c0.29-2.02,1.79-3.42,4.56-3.42c2.43,0,4.23,1.05,4.23,3.61v3.13
			c0,0.47,0.21,0.68,0.56,0.68c0.27,0,0.47-0.04,0.74-0.14v1.77c-0.47,0.33-1.13,0.6-2.08,0.6c-1.13,0-2.02-0.58-2.33-1.63
			c-0.54,1.07-1.59,1.63-3.05,1.63c-1.79,0-2.97-0.93-2.97-2.49c0-1.77,1.28-2.54,3.28-2.89l2.58-0.43V17.8
			C367.82,17.04,367.47,16.59,366.67,16.59z M354.22,14.61l0.68-0.1c0.93-0.14,1.22-0.64,1.44-1.48l0.31-1.2h2.1v2.54h2.39v2.31
			h-2.39v3.36c0,0.78,0.37,1.09,1.05,1.09c0.41,0,0.87-0.08,1.42-0.31v2.16c-0.7,0.52-1.5,0.82-2.76,0.82
			c-1.55,0-3.01-0.64-3.01-2.8v-4.33h-1.24V14.61z M349.95,10.57h3.38v2.93h-3.38V10.57z M353.31,14.36v9.19h-3.34v-9.19H353.31z
			 M338.2,14.36h3.34v1.59c0.45-1.09,1.48-1.83,3.03-1.83c2.7,0,4.08,2.14,4.08,4.84c0,2.72-1.38,4.84-4.08,4.84
			c-1.55,0-2.58-0.74-3.03-1.81v4.87h-3.34V14.36z M331.51,16.59c-0.74,0-1.11,0.47-1.26,1.15l-3.09-0.21
			c0.29-2.02,1.79-3.42,4.56-3.42c2.43,0,4.23,1.05,4.23,3.61v3.13c0,0.47,0.21,0.68,0.56,0.68c0.27,0,0.47-0.04,0.74-0.14v1.77
			c-0.47,0.33-1.13,0.6-2.08,0.6c-1.13,0-2.02-0.58-2.33-1.63c-0.54,1.07-1.59,1.63-3.05,1.63c-1.79,0-2.97-0.93-2.97-2.49
			c0-1.77,1.28-2.54,3.28-2.89l2.58-0.43V17.8C332.66,17.04,332.31,16.59,331.51,16.59z M319.72,10.32c3.98,0,6.1,2.54,6.35,5.77
			l-3.36,0.12c-0.21-1.44-0.99-2.78-3.01-2.78c-1.92,0-3.03,1.42-3.03,3.63s1.11,3.63,3.03,3.63c2.02,0,2.8-1.34,3.01-2.78
			l3.36,0.14c-0.25,3.24-2.37,5.75-6.35,5.75c-3.79,0-6.66-2.74-6.66-6.74S315.92,10.32,319.72,10.32z M345.96,95.76
			c13.18,0,22.26,6.41,26,15.85V65.13h28.85v112.19h-28.85v-13.53c-3.74,9.26-12.82,15.67-26,15.67
			c-23.51,0-35.26-18.34-35.26-41.85C310.7,114.28,322.45,95.76,345.96,95.76z M306.63,20.01h3.55v3.55h-3.55V20.01z M262.3,14.36
			l1.65,5.22h0.08l1.34-5.22h2.66l1.34,5.22h0.08l1.65-5.22h2.92h0.09h3.23l1.65,5.22h0.08l1.34-5.22h2.66l1.34,5.22h0.08l1.65-5.22
			h2.92h0.09h3.23l1.65,5.22h0.08l1.34-5.22h2.66l1.34,5.22h0.08l1.65-5.22h3.01l-2.91,9.19h-3.28l-1.34-5.19h-0.08l-1.34,5.19
			h-3.28l-2.86-9.06l-2.86,9.06h-3.28l-1.34-5.19h-0.08l-1.34,5.19h-3.28l-2.86-9.06l-2.86,9.06h-3.28l-1.34-5.19h-0.08l-1.34,5.19
			h-3.28l-2.91-9.19H262.3z M225.93,65.13h28.85v112.19h-28.85V65.13z M171.08,95.76c25.82,0,43.45,17.27,43.45,41.85
			c0,24.75-17.63,41.85-43.45,41.85c-26,0-43.45-17.1-43.45-41.85C127.63,113.03,145.08,95.76,171.08,95.76z M168.32,235.58
			c32.59,0,58.23,23.69,58.23,58.23c0,34.55-25.64,58.23-58.23,58.23c-32.59,0-58.23-23.69-58.23-58.23
			C110.09,259.27,135.73,235.58,168.32,235.58z M74.03,136.36l-20.48-3.56c-18.34-3.38-31.17-13.71-31.17-33.3
			c0-22.79,17.81-36.51,45.77-36.51c30.99,0,47.73,15.14,48.26,40.07l-27.78,0.53c-0.89-11.58-9.26-16.92-20.84-16.92
			c-9.97,0-15.67,3.92-15.67,10.15c0,5.16,4.27,7.12,11.22,8.37l21.19,3.74c23.51,4.1,34.19,16.38,34.19,34.73
			c0,23.86-20.66,35.8-46.84,35.8c-30.45,0-52.18-14.78-52.18-41.85l27.78-0.89c1.07,14.07,11.93,18.88,24.4,18.88
			c10.51,0,17.27-3.74,17.27-9.97C89.16,139.03,82.57,137.97,74.03,136.36z M19.25,680.41c0,0.39,0.04,0.89,0.14,1.34
			c0.35-0.19,0.74-0.29,1.18-0.29c1.94,0,3.13,1.88,3.13,4.47c0,0.74-0.08,1.4-0.27,2c0.1,0.12,0.25,0.19,0.43,0.19
			c0.31,0,0.56-0.23,0.56-0.78v-3.81c0-2.08,1.09-3.13,2.64-3.13c2.29,0,3.34,2.78,3.34,5.77c0,2.62-0.52,4.89-2.25,4.89
			c-0.8,0-1.44-0.72-1.53-1.75c-0.27,0.82-1.01,1.32-1.79,1.32c-0.89,0-1.57-0.58-1.94-1.57c-0.54,0.82-1.32,1.32-2.33,1.32
			c-1.96,0-3.15-1.86-3.15-4.43c0-1.11,0.27-2.16,0.74-2.95c-0.76-0.56-1.42-1.57-1.42-2.58H19.25z M13.87,748.24h2.93v3.38h-2.93
			V748.24z M13.87,762.5l8.64-3.22v-0.08l-8.64-3.22v-3.48l12.99,4.99v3.69l-12.99,4.99V762.5z M13.87,773.2l12.99-5.17v3.73
			l-2.51,0.97v5.07l2.51,0.97v3.52l-12.99-5.17V773.2z M13.87,796.24h12.99v3.5H13.87V796.24z M13.87,831.78h2.93v3.38h-2.93V831.78
			z M13.87,836.95h12.99v3.34H13.87V836.95z M13.87,860.32h2.93v3.38h-2.93V860.32z M19.4,887.59l0.12,3.36
			c-1.44,0.21-2.78,0.99-2.78,3.01c0,1.92,1.42,3.03,3.63,3.03s3.63-1.11,3.63-3.03c0-2.02-1.34-2.8-2.78-3.01l0.14-3.36
			c3.24,0.25,5.75,2.37,5.75,6.35c0,3.79-2.74,6.66-6.74,6.66s-6.74-2.87-6.74-6.66C13.63,889.96,16.16,887.83,19.4,887.59z"/>
		<path class="st5" d="M725.19,261.94h-21.55v27.43h21.55c12.82,0,19.23-3.21,19.23-13.53
			C744.42,266.75,738.01,261.94,725.19,261.94z"/>
		<path class="st5" d="M447.65,160.58c8.19,0,14.78-6.05,14.78-16.38v-1.25l-11.75,2.14c-6.95,1.42-11.04,3.56-11.04,8.73
			C439.63,157.91,442.84,160.58,447.65,160.58z"/>
		<path class="st5" d="M527.76,18.61c0.56,0,0.97-0.52,0.97-1.34c0-0.8-0.41-1.32-0.97-1.32c-0.56,0-0.97,0.52-0.97,1.32
			C526.79,18.09,527.2,18.61,527.76,18.61z"/>
		<path class="st5" d="M342.57,592.46c0,1.34,0.72,2.21,1.86,2.21c1.3,0,1.9-0.93,1.9-2.27c0-1.32-0.6-2.25-1.9-2.25
			c-1.13,0-1.86,0.87-1.86,2.19V592.46z"/>
		<polygon class="st5" points="436.05,588.03 434.57,591.86 437.62,591.86 436.14,588.03 		"/>
		<path class="st5" d="M309.18,275.83c0-9.08-6.41-13.89-19.23-13.89H268.4v27.43h21.55C302.77,289.37,309.18,286.16,309.18,275.83z
			"/>
		<path class="st5" d="M527.51,25.37c1.55,0,2.68-0.31,2.68-0.87c0-0.39-0.29-0.54-0.85-0.54h-3.38c-0.37,0-0.62,0.21-0.62,0.56
			C525.35,25.18,526.27,25.37,527.51,25.37z"/>
		<path class="st5" d="M331.05,594.27c0,0.47,0.37,0.78,0.93,0.78c0.95,0,1.71-0.7,1.71-1.9v-0.14l-1.36,0.25
			C331.53,593.43,331.05,593.67,331.05,594.27z"/>
		<path class="st5" d="M366.21,594.27c0,0.47,0.37,0.78,0.93,0.78c0.95,0,1.71-0.7,1.71-1.9v-0.14l-1.36,0.25
			C366.69,593.43,366.21,593.67,366.21,594.27z"/>
		<polygon class="st5" points="304.4,591.51 306.17,591.51 306.66,589.49 304.89,589.49 		"/>
		<path class="st5" d="M343.4,21.22c1.3,0,1.9-0.93,1.9-2.27c0-1.32-0.6-2.25-1.9-2.25c-1.13,0-1.86,0.87-1.86,2.19v0.12
			C341.54,20.36,342.27,21.22,343.4,21.22z"/>
		<path class="st5" d="M330.02,20.83c0,0.47,0.37,0.78,0.93,0.78c0.95,0,1.71-0.7,1.71-1.9v-0.14l-1.36,0.25
			C330.5,19.99,330.02,20.24,330.02,20.83z"/>
		<path class="st5" d="M168.32,325.34c16.56,0,27.07-12.47,27.07-31.52s-10.51-31.52-27.07-31.52c-16.56,0-27.07,12.47-27.07,31.52
			S151.76,325.34,168.32,325.34z"/>
		<path class="st5" d="M509.1,21.29c1.15,0,1.67-0.95,1.67-2.33c0-1.38-0.52-2.33-1.67-2.33c-1.17,0-1.67,0.95-1.67,2.33
			C507.44,20.34,507.93,21.29,509.1,21.29z"/>
		<path class="st5" d="M171.08,157.73c9.97,0,14.42-8.19,14.42-20.12s-4.45-20.12-14.42-20.12c-10.15,0-14.42,8.19-14.42,20.12
			S160.93,157.73,171.08,157.73z"/>
		<path class="st5" d="M356.11,157.2c9.62,0,15.85-7.48,15.85-19.06v-1.07c0-11.4-6.23-18.88-15.85-18.88
			c-11.4,0-16.38,8.01-16.38,19.41C339.73,149.18,344.71,157.2,356.11,157.2z"/>
		<path class="st5" d="M365.18,20.83c0,0.47,0.37,0.78,0.93,0.78c0.95,0,1.71-0.7,1.71-1.9v-0.14l-1.36,0.25
			C365.66,19.99,365.18,20.24,365.18,20.83z"/>
		<polygon class="st5" points="438.43,14.59 438.35,14.59 436.87,18.42 439.92,18.42 		"/>
		<path d="M71.89,155.6c-12.47,0-23.33-4.81-24.4-18.88l-27.78,0.89c0,27.07,21.73,41.85,52.18,41.85
			c26.18,0,46.84-11.93,46.84-35.8c0-18.34-10.69-30.63-34.19-34.73l-21.19-3.74c-6.95-1.25-11.22-3.21-11.22-8.37
			c0-6.23,5.7-10.15,15.67-10.15c11.58,0,19.95,5.34,20.84,16.92l27.78-0.53c-0.53-24.93-17.27-40.07-48.26-40.07
			c-27.96,0-45.77,13.71-45.77,36.51c0,19.59,12.82,29.92,31.17,33.3l20.48,3.56c8.55,1.6,15.14,2.67,15.14,9.26
			C89.16,151.86,82.4,155.6,71.89,155.6z"/>
		<path d="M171.08,179.46c25.82,0,43.45-17.1,43.45-41.85c0-24.58-17.63-41.85-43.45-41.85c-26,0-43.45,17.27-43.45,41.85
			C127.63,162.36,145.08,179.46,171.08,179.46z M171.08,117.49c9.97,0,14.42,8.19,14.42,20.12s-4.45,20.12-14.42,20.12
			c-10.15,0-14.42-8.19-14.42-20.12S160.93,117.49,171.08,117.49z"/>
		<rect x="225.93" y="65.13" width="28.85" height="112.19"/>
		<rect x="270.27" y="65.13" width="29.21" height="25.29"/>
		<rect x="270.45" y="97.9" width="28.85" height="79.43"/>
		<path d="M345.96,179.46c13.18,0,22.26-6.41,26-15.67v13.53h28.85V65.13h-28.85v46.48c-3.74-9.44-12.82-15.85-26-15.85
			c-23.51,0-35.26,18.52-35.26,41.85C310.7,161.12,322.45,179.46,345.96,179.46z M356.11,118.2c9.62,0,15.85,7.48,15.85,18.88v1.07
			c0,11.58-6.23,19.06-15.85,19.06c-11.4,0-16.38-8.01-16.38-19.59C339.73,126.21,344.71,118.2,356.11,118.2z"/>
		<path d="M437.49,179.1c12.64,0,21.73-4.81,26.36-14.07c2.67,9.08,10.33,14.07,20.12,14.07c8.19,0,13.89-2.31,17.99-5.16v-15.31
			c-2.32,0.89-4.1,1.25-6.41,1.25c-3.03,0-4.81-1.78-4.81-5.88v-27.07c0-22.08-15.49-31.17-36.51-31.17
			c-23.86,0-36.86,12.11-39.36,29.56l26.71,1.78c1.25-5.88,4.45-9.97,10.86-9.97c6.95,0,9.97,3.92,9.97,10.51v1.25l-22.26,3.74
			c-17.27,3.03-28.32,9.62-28.32,24.93C411.85,171.09,422,179.1,437.49,179.1z M450.67,145.09l11.75-2.14v1.25
			c0,10.33-6.59,16.38-14.78,16.38c-4.81,0-8.01-2.67-8.01-6.77C439.63,148.65,443.73,146.51,450.67,145.09z"/>
		<path d="M510.33,97.9v79.43h28.85v-36.33c0-13.36,6.59-18.34,17.27-18.34c5.52,0,9.79,1.07,13.71,3.38l1.78-27.25
			c-1.96-1.6-6.23-3.03-11.04-3.03c-10.51,0-18.88,7.3-21.73,16.21V97.9H510.33z"/>
		<rect x="580.85" y="97.9" width="28.85" height="79.43"/>
		<rect x="580.67" y="65.13" width="29.21" height="25.29"/>
		<path d="M628.22,155.24c0,18.7,12.64,24.22,26,24.22c10.86,0,17.81-2.67,23.86-7.12v-18.7c-4.81,1.96-8.73,2.67-12.29,2.67
			c-5.88,0-9.08-2.67-9.08-9.44v-29.03h20.66V97.9h-20.66v-21.9h-18.16l-2.67,10.33c-1.96,7.3-4.45,11.58-12.47,12.82l-5.88,0.89
			v17.81h10.69V155.24z"/>
		<polygon points="701.95,205.82 730.26,205.82 775.85,97.9 747.54,97.9 729.55,144.38 728.84,144.38 711.21,97.9 680.93,97.9 
			713.35,178.39 		"/>
		<polygon points="265.16,23.55 266.5,18.36 266.58,18.36 267.92,23.55 271.2,23.55 274.07,14.5 276.93,23.55 280.21,23.55 
			281.55,18.36 281.63,18.36 282.97,23.55 286.25,23.55 289.11,14.5 291.98,23.55 295.25,23.55 296.59,18.36 296.68,18.36 
			298.02,23.55 301.29,23.55 304.2,14.36 301.19,14.36 299.54,19.58 299.46,19.58 298.12,14.36 295.46,14.36 294.12,19.58 
			294.04,19.58 292.39,14.36 289.15,14.36 289.07,14.36 286.15,14.36 284.5,19.58 284.41,19.58 283.07,14.36 280.41,14.36 
			279.07,19.58 278.99,19.58 277.34,14.36 274.11,14.36 274.02,14.36 271.1,14.36 269.45,19.58 269.37,19.58 268.03,14.36 
			265.37,14.36 264.03,19.58 263.95,19.58 262.3,14.36 258.98,14.36 261.88,23.55 		"/>
		<rect x="306.63" y="20.01" width="3.55" height="3.55"/>
		<path d="M319.72,23.8c3.98,0,6.1-2.52,6.35-5.75l-3.36-0.14c-0.21,1.44-0.99,2.78-3.01,2.78c-1.92,0-3.03-1.42-3.03-3.63
			s1.11-3.63,3.03-3.63c2.02,0,2.8,1.34,3.01,2.78l3.36-0.12c-0.25-3.24-2.37-5.77-6.35-5.77c-3.79,0-6.66,2.74-6.66,6.74
			S315.92,23.8,319.72,23.8z"/>
		<path d="M330.08,18.38c-2,0.35-3.28,1.11-3.28,2.89c0,1.57,1.17,2.49,2.97,2.49c1.46,0,2.52-0.56,3.05-1.63
			c0.31,1.05,1.2,1.63,2.33,1.63c0.95,0,1.61-0.27,2.08-0.6v-1.77c-0.27,0.1-0.47,0.14-0.74,0.14c-0.35,0-0.56-0.21-0.56-0.68v-3.13
			c0-2.56-1.79-3.61-4.23-3.61c-2.76,0-4.27,1.4-4.56,3.42l3.09,0.21c0.14-0.68,0.52-1.15,1.26-1.15c0.8,0,1.15,0.45,1.15,1.22v0.14
			L330.08,18.38z M332.66,19.72c0,1.2-0.76,1.9-1.71,1.9c-0.56,0-0.93-0.31-0.93-0.78c0-0.6,0.47-0.85,1.28-1.01l1.36-0.25V19.72z"
			/>
		<path d="M341.54,21.99c0.45,1.07,1.48,1.81,3.03,1.81c2.7,0,4.08-2.12,4.08-4.84c0-2.7-1.38-4.84-4.08-4.84
			c-1.55,0-2.58,0.74-3.03,1.83v-1.59h-3.34v12.49h3.34V21.99z M341.54,18.9c0-1.32,0.72-2.19,1.86-2.19c1.3,0,1.9,0.93,1.9,2.25
			c0,1.34-0.6,2.27-1.9,2.27c-1.13,0-1.86-0.87-1.86-2.21V18.9z"/>
		<rect x="349.95" y="10.57" width="3.38" height="2.93"/>
		<rect x="349.97" y="14.36" width="3.34" height="9.19"/>
		<path d="M355.46,21c0,2.16,1.46,2.8,3.01,2.8c1.26,0,2.06-0.31,2.76-0.82v-2.16c-0.56,0.23-1.01,0.31-1.42,0.31
			c-0.68,0-1.05-0.31-1.05-1.09v-3.36h2.39v-2.31h-2.39v-2.54h-2.1l-0.31,1.2c-0.23,0.85-0.52,1.34-1.44,1.48l-0.68,0.1v2.06h1.24
			V21z"/>
		<path d="M365.25,18.38c-2,0.35-3.28,1.11-3.28,2.89c0,1.57,1.17,2.49,2.97,2.49c1.46,0,2.52-0.56,3.05-1.63
			c0.31,1.05,1.2,1.63,2.33,1.63c0.95,0,1.61-0.27,2.08-0.6v-1.77c-0.27,0.1-0.47,0.14-0.74,0.14c-0.35,0-0.56-0.21-0.56-0.68v-3.13
			c0-2.56-1.79-3.61-4.23-3.61c-2.76,0-4.27,1.4-4.56,3.42l3.09,0.21c0.14-0.68,0.52-1.15,1.26-1.15c0.8,0,1.15,0.45,1.15,1.22v0.14
			L365.25,18.38z M367.82,19.72c0,1.2-0.76,1.9-1.71,1.9c-0.56,0-0.93-0.31-0.93-0.78c0-0.6,0.47-0.85,1.28-1.01l1.36-0.25V19.72z"
			/>
		<rect x="373.37" y="10.57" width="3.34" height="12.99"/>
		<rect x="378.52" y="14.36" width="3.34" height="9.19"/>
		<rect x="378.5" y="10.57" width="3.38" height="2.93"/>
		<path d="M387.67,21.72c-1.01,0-1.63-0.43-1.75-1.2l-2.91,0.04c0.19,2.23,2.08,3.24,4.62,3.24c2.62,0,4.27-1.11,4.27-3.05
			c0-1.79-1.2-2.72-3.26-3.05l-1.79-0.31c-0.31-0.04-0.56-0.21-0.56-0.52c0-0.41,0.37-0.66,1.01-0.66c1.03,0,1.61,0.41,1.73,1.07
			l2.74-0.08c-0.19-1.92-1.75-3.09-4.41-3.09c-2.58,0-4.16,1.3-4.16,3.11c0,1.88,1.17,2.6,3.4,2.95l1.36,0.21
			c0.64,0.1,0.85,0.35,0.85,0.7C388.8,21.45,388.41,21.72,387.67,21.72z"/>
		<path d="M396.51,19.04c0-1.38,0.39-2.29,1.48-2.29c1.01,0,1.26,0.66,1.26,1.92v4.89h3.34v-4.51c0-1.38,0.37-2.29,1.48-2.29
			c1.01,0,1.24,0.66,1.24,1.92v4.89h3.34v-5.77c0-1.92-0.74-3.67-3.28-3.67c-1.55,0-2.64,0.78-3.13,1.81
			c-0.39-1.07-1.24-1.81-2.87-1.81c-1.38,0-2.37,0.62-2.87,1.63v-1.38h-3.34v9.19h3.34V19.04z"/>
		<rect x="413.91" y="10.57" width="3.5" height="12.99"/>
		<path d="M423.3,21.72c-1.01,0-1.63-0.43-1.75-1.2l-2.91,0.04c0.19,2.23,2.08,3.24,4.62,3.24c2.62,0,4.27-1.11,4.27-3.05
			c0-1.79-1.2-2.72-3.26-3.05l-1.79-0.31c-0.31-0.04-0.56-0.21-0.56-0.52c0-0.41,0.37-0.66,1.01-0.66c1.03,0,1.61,0.41,1.73,1.07
			l2.74-0.08c-0.19-1.92-1.75-3.09-4.41-3.09c-2.58,0-4.16,1.3-4.16,3.11c0,1.88,1.18,2.6,3.4,2.95l1.36,0.21
			c0.64,0.1,0.85,0.35,0.85,0.7C424.44,21.45,424.05,21.72,423.3,21.72z"/>
		<path d="M435.86,21.04h5.07l0.97,2.52h3.73l-5.17-12.99h-3.92l-5.17,12.99h3.52L435.86,21.04z M438.35,14.59h0.08l1.48,3.83h-3.05
			L438.35,14.59z"/>
		<polygon points="456.16,23.55 461.15,10.57 457.66,10.57 454.45,19.2 454.36,19.2 451.15,10.57 447.48,10.57 452.47,23.55 		"/>
		<rect x="462.03" y="10.57" width="3.38" height="2.93"/>
		<rect x="462.05" y="14.36" width="3.34" height="9.19"/>
		<path d="M470.54,19.35c0-1.55,0.76-2.12,2-2.12c0.64,0,1.13,0.12,1.59,0.39l0.21-3.15c-0.23-0.19-0.72-0.35-1.28-0.35
			c-1.22,0-2.19,0.85-2.52,1.88v-1.63h-3.34v9.19h3.34V19.35z"/>
		<path d="M478.54,23.8c1.38,0,2.39-0.6,2.89-1.63v1.38h3.34v-9.19h-3.34v4.51c0,1.4-0.41,2.31-1.46,2.31
			c-1.01,0-1.36-0.68-1.36-1.92v-4.91h-3.34v5.79C475.26,22.07,476.02,23.8,478.54,23.8z"/>
		<path d="M490.58,21.72c-1.01,0-1.63-0.43-1.75-1.2l-2.91,0.04c0.19,2.23,2.08,3.24,4.62,3.24c2.62,0,4.27-1.11,4.27-3.05
			c0-1.79-1.2-2.72-3.26-3.05l-1.79-0.31c-0.31-0.04-0.56-0.21-0.56-0.52c0-0.41,0.37-0.66,1.01-0.66c1.03,0,1.61,0.41,1.73,1.07
			l2.74-0.08c-0.19-1.92-1.75-3.09-4.41-3.09c-2.58,0-4.16,1.3-4.16,3.11c0,1.88,1.18,2.6,3.4,2.95l1.36,0.21
			c0.64,0.1,0.85,0.35,0.85,0.7C491.71,21.45,491.32,21.72,490.58,21.72z"/>
		<rect x="497.64" y="20.01" width="3.55" height="3.55"/>
		<path d="M509.1,23.8c2.99,0,5.03-1.98,5.03-4.84c0-2.84-2.04-4.84-5.03-4.84c-3.01,0-5.03,2-5.03,4.84
			C504.07,21.82,506.09,23.8,509.1,23.8z M509.1,16.63c1.15,0,1.67,0.95,1.67,2.33c0,1.38-0.52,2.33-1.67,2.33
			c-1.17,0-1.67-0.95-1.67-2.33C507.44,17.58,507.93,16.63,509.1,16.63z"/>
		<path d="M518.79,19.35c0-1.55,0.76-2.12,2-2.12c0.64,0,1.13,0.12,1.59,0.39l0.21-3.15c-0.23-0.19-0.72-0.35-1.28-0.35
			c-1.22,0-2.19,0.85-2.52,1.88v-1.63h-3.34v9.19h3.34V19.35z"/>
		<path d="M522.6,24.85c0,1.73,2.27,2.25,4.89,2.25c2.99,0,5.77-1.05,5.77-3.34c0-1.55-1.05-2.64-3.13-2.64h-3.81
			c-0.56,0-0.78-0.25-0.78-0.56c0-0.19,0.06-0.33,0.19-0.43c0.6,0.19,1.26,0.27,2,0.27c2.6,0,4.47-1.2,4.47-3.13
			c0-0.43-0.1-0.82-0.29-1.17c0.45-0.1,0.95-0.14,1.34-0.14v-2.51c-1.01,0-2.02,0.66-2.58,1.42c-0.78-0.47-1.83-0.74-2.95-0.74
			c-2.58,0-4.43,1.2-4.43,3.15c0,1.01,0.49,1.79,1.32,2.33c-0.99,0.37-1.57,1.05-1.57,1.94c0,0.78,0.49,1.53,1.32,1.79
			C523.33,23.41,522.6,24.05,522.6,24.85z M527.76,15.95c0.56,0,0.97,0.52,0.97,1.32c0,0.82-0.41,1.34-0.97,1.34
			c-0.56,0-0.97-0.52-0.97-1.34C526.79,16.46,527.2,15.95,527.76,15.95z M525.96,23.97h3.38c0.56,0,0.85,0.14,0.85,0.54
			c0,0.56-1.13,0.87-2.68,0.87c-1.24,0-2.16-0.19-2.16-0.84C525.35,24.17,525.59,23.97,525.96,23.97z"/>
		<path d="M311.03,589.49l0.43-2.06h-1.83l0.82-3.42h-2.49l-0.82,3.42h-1.77l0.83-3.42h-2.49l-0.82,3.42h-2.02l-0.43,2.06h1.98
			l-0.49,2.02h-1.88l-0.43,2.06h1.81l-0.8,3.42h2.49l0.8-3.42h1.77l-0.8,3.42h2.49l0.8-3.42h2.04l0.43-2.06h-1.98l0.49-2.02H311.03z
			 M306.17,591.51h-1.77l0.5-2.02h1.77L306.17,591.51z"/>
		<path d="M320.73,586.87c2.02,0,2.8,1.34,3.01,2.78l3.36-0.12c-0.25-3.24-2.37-5.77-6.35-5.77c-3.79,0-6.66,2.74-6.66,6.74
			c0,4,2.87,6.74,6.66,6.74c3.98,0,6.1-2.52,6.35-5.75l-3.36-0.14c-0.21,1.44-0.99,2.78-3.01,2.78c-1.92,0-3.03-1.42-3.03-3.63
			C317.7,588.29,318.81,586.87,320.73,586.87z"/>
		<path d="M331.11,591.82c-2,0.35-3.28,1.11-3.28,2.89c0,1.57,1.18,2.49,2.97,2.49c1.46,0,2.52-0.56,3.05-1.63
			c0.31,1.05,1.2,1.63,2.33,1.63c0.95,0,1.61-0.27,2.08-0.6v-1.77c-0.27,0.1-0.47,0.14-0.74,0.14c-0.35,0-0.56-0.21-0.56-0.68v-3.13
			c0-2.56-1.79-3.61-4.23-3.61c-2.76,0-4.27,1.4-4.56,3.42l3.09,0.21c0.14-0.68,0.52-1.15,1.26-1.15c0.8,0,1.15,0.45,1.15,1.22v0.14
			L331.11,591.82z M333.69,593.16c0,1.2-0.76,1.9-1.71,1.9c-0.56,0-0.93-0.31-0.93-0.78c0-0.6,0.47-0.85,1.28-1.01l1.36-0.25V593.16
			z"/>
		<path d="M339.23,587.8v12.49h3.34v-4.87c0.45,1.07,1.48,1.81,3.03,1.81c2.7,0,4.08-2.12,4.08-4.84c0-2.7-1.38-4.84-4.08-4.84
			c-1.55,0-2.58,0.74-3.03,1.83v-1.59H339.23z M344.43,590.15c1.3,0,1.9,0.93,1.9,2.25c0,1.34-0.6,2.27-1.9,2.27
			c-1.13,0-1.86-0.87-1.86-2.21v-0.12C342.57,591.02,343.29,590.15,344.43,590.15z"/>
		<rect x="351" y="587.8" width="3.34" height="9.19"/>
		<rect x="350.98" y="584.01" width="3.38" height="2.93"/>
		<path d="M359.49,597.24c1.26,0,2.06-0.31,2.76-0.82v-2.16c-0.56,0.23-1.01,0.31-1.42,0.31c-0.68,0-1.05-0.31-1.05-1.09v-3.36h2.39
			v-2.31h-2.39v-2.54h-2.1l-0.31,1.2c-0.23,0.85-0.52,1.34-1.44,1.48l-0.68,0.1v2.06h1.24v4.33
			C356.48,596.6,357.95,597.24,359.49,597.24z"/>
		<path d="M366.27,591.82c-2,0.35-3.28,1.11-3.28,2.89c0,1.57,1.18,2.49,2.97,2.49c1.46,0,2.51-0.56,3.05-1.63
			c0.31,1.05,1.2,1.63,2.33,1.63c0.95,0,1.61-0.27,2.08-0.6v-1.77c-0.27,0.1-0.47,0.14-0.74,0.14c-0.35,0-0.56-0.21-0.56-0.68v-3.13
			c0-2.56-1.79-3.61-4.23-3.61c-2.76,0-4.27,1.4-4.56,3.42l3.09,0.21c0.14-0.68,0.52-1.15,1.26-1.15c0.8,0,1.15,0.45,1.15,1.22v0.14
			L366.27,591.82z M368.85,593.16c0,1.2-0.76,1.9-1.71,1.9c-0.56,0-0.93-0.31-0.93-0.78c0-0.6,0.47-0.85,1.28-1.01l1.36-0.25V593.16
			z"/>
		<rect x="374.39" y="584.01" width="3.34" height="12.99"/>
		<rect x="379.53" y="584.01" width="3.38" height="2.93"/>
		<rect x="379.55" y="587.8" width="3.34" height="9.19"/>
		<path d="M388.7,595.16c-1.01,0-1.63-0.43-1.75-1.2l-2.91,0.04c0.19,2.23,2.08,3.24,4.62,3.24c2.62,0,4.27-1.11,4.27-3.05
			c0-1.79-1.2-2.72-3.26-3.05l-1.79-0.31c-0.31-0.04-0.56-0.21-0.56-0.52c0-0.41,0.37-0.66,1.01-0.66c1.03,0,1.61,0.41,1.73,1.07
			l2.74-0.08c-0.19-1.92-1.75-3.09-4.41-3.09c-2.58,0-4.16,1.3-4.16,3.11c0,1.88,1.18,2.6,3.4,2.95l1.36,0.21
			c0.64,0.1,0.85,0.35,0.85,0.7C389.83,594.89,389.44,595.16,388.7,595.16z"/>
		<path d="M409.68,596.99v-5.77c0-1.92-0.74-3.67-3.28-3.67c-1.55,0-2.64,0.78-3.13,1.81c-0.39-1.07-1.24-1.81-2.87-1.81
			c-1.38,0-2.37,0.62-2.87,1.63v-1.38h-3.34v9.19h3.34v-4.51c0-1.38,0.39-2.29,1.48-2.29c1.01,0,1.26,0.66,1.26,1.92v4.89h3.34
			v-4.51c0-1.38,0.37-2.29,1.48-2.29c1.01,0,1.24,0.66,1.24,1.92v4.89H409.68z"/>
		<rect x="413.27" y="584.01" width="3.5" height="12.99"/>
		<path d="M422.67,595.16c-1.01,0-1.63-0.43-1.75-1.2l-2.91,0.04c0.19,2.23,2.08,3.24,4.62,3.24c2.62,0,4.27-1.11,4.27-3.05
			c0-1.79-1.2-2.72-3.26-3.05l-1.79-0.31c-0.31-0.04-0.56-0.21-0.56-0.52c0-0.41,0.37-0.66,1.01-0.66c1.03,0,1.61,0.41,1.73,1.07
			l2.74-0.08c-0.19-1.92-1.75-3.09-4.41-3.09c-2.58,0-4.16,1.3-4.16,3.11c0,1.88,1.18,2.6,3.4,2.95l1.36,0.21
			c0.64,0.1,0.85,0.35,0.85,0.7C423.8,594.89,423.41,595.16,422.67,595.16z"/>
		<path d="M434.24,584.01l-5.17,12.99h3.52l0.97-2.51h5.07l0.97,2.51h3.73l-5.17-12.99H434.24z M434.57,591.86l1.48-3.83h0.08
			l1.48,3.83H434.57z"/>
		<polygon points="452.01,592.64 448.8,584.01 445.13,584.01 450.12,596.99 453.81,596.99 458.8,584.01 455.31,584.01 452.1,592.64 
					"/>
		<rect x="459.68" y="584.01" width="3.38" height="2.93"/>
		<rect x="459.7" y="587.8" width="3.34" height="9.19"/>
		<path d="M464.85,587.8v9.19h3.34v-4.21c0-1.55,0.76-2.12,2-2.12c0.64,0,1.13,0.12,1.59,0.39l0.21-3.15
			c-0.23-0.19-0.72-0.35-1.28-0.35c-1.22,0-2.19,0.85-2.52,1.88v-1.63H464.85z"/>
		<path d="M482.41,596.99v-9.19h-3.34v4.51c0,1.4-0.41,2.31-1.46,2.31c-1.01,0-1.36-0.68-1.36-1.92v-4.91h-3.34v5.79
			c0,1.92,0.76,3.65,3.28,3.65c1.38,0,2.39-0.6,2.89-1.63v1.38H482.41z"/>
		<path d="M487.85,589.65c1.03,0,1.61,0.41,1.73,1.07l2.74-0.08c-0.19-1.92-1.75-3.09-4.41-3.09c-2.58,0-4.16,1.3-4.16,3.11
			c0,1.88,1.17,2.6,3.4,2.95l1.36,0.21c0.64,0.1,0.85,0.35,0.85,0.7c0,0.37-0.39,0.64-1.13,0.64c-1.01,0-1.63-0.43-1.75-1.2
			l-2.91,0.04c0.19,2.23,2.08,3.24,4.62,3.24c2.62,0,4.27-1.11,4.27-3.05c0-1.79-1.2-2.72-3.26-3.05l-1.79-0.31
			c-0.31-0.04-0.56-0.21-0.56-0.52C486.84,589.9,487.21,589.65,487.85,589.65z"/>
		<polygon points="106.53,262.65 106.53,237.72 21.76,237.72 21.76,349.91 52.03,349.91 52.03,308.78 92.99,308.78 92.99,284.2 
			52.03,284.2 52.03,262.65 		"/>
		<path d="M168.32,352.05c32.59,0,58.23-23.69,58.23-58.23c0-34.55-25.64-58.23-58.23-58.23c-32.59,0-58.23,23.69-58.23,58.23
			C110.09,328.37,135.73,352.05,168.32,352.05z M168.32,262.3c16.56,0,27.07,12.47,27.07,31.52s-10.51,31.52-27.07,31.52
			c-16.56,0-27.07-12.47-27.07-31.52S151.76,262.3,168.32,262.3z"/>
		<path d="M238.66,349.91h29.74v-37.22h20.12c10.15,0,15.67,2.85,16.56,15.67c0.89,11.58,2.31,18.52,4.63,21.55h30.63
			c-3.74-4.1-4.27-9.08-5.88-25.82c-1.25-13-8.01-19.59-19.59-21.9c13.71-1.78,23.86-12.47,23.86-28.85
			c0-21.9-14.42-35.62-43.45-35.62h-56.63V349.91z M268.4,261.94h21.55c12.82,0,19.23,4.81,19.23,13.89
			c0,10.33-6.41,13.53-19.23,13.53H268.4V261.94z"/>
		<polygon points="438.83,262.65 438.83,237.72 352.1,237.72 352.1,349.91 440.43,349.91 440.43,324.98 381.84,324.98 
			381.84,305.57 425.83,305.57 425.83,281 381.84,281 381.84,262.65 		"/>
		<polygon points="505.61,312.34 504.9,312.34 477.12,237.72 445.42,237.72 488.51,349.91 520.39,349.91 563.49,237.72 
			533.39,237.72 		"/>
		<polygon points="660.37,324.98 601.78,324.98 601.78,305.57 645.76,305.57 645.76,281 601.78,281 601.78,262.65 658.76,262.65 
			658.76,237.72 572.04,237.72 572.04,349.91 660.37,349.91 		"/>
		<path d="M750.12,302.19c13.71-1.78,23.86-12.47,23.86-28.85c0-21.9-14.42-35.62-43.45-35.62H673.9v112.19h29.74v-37.22h20.12
			c10.15,0,15.67,2.85,16.56,15.67c0.89,11.58,2.31,18.52,4.63,21.55h30.63c-3.74-4.1-4.27-9.08-5.88-25.82
			C768.46,311.09,761.7,304.5,750.12,302.19z M725.19,289.37h-21.55v-27.43h21.55c12.82,0,19.23,4.81,19.23,13.89
			C744.42,286.16,738.01,289.37,725.19,289.37z"/>
		<polygon points="337.95,439.16 337.95,410.31 307.32,410.31 307.32,439.16 313.37,485.11 331.89,485.11 		"/>
		<rect x="307.32" y="491.88" width="30.63" height="30.63"/>
		<rect x="380.68" y="491.88" width="30.63" height="30.63"/>
		<polygon points="411.31,410.31 380.68,410.31 380.68,439.16 386.74,485.11 405.26,485.11 411.31,439.16 		"/>
		<rect x="454.05" y="491.88" width="30.63" height="30.63"/>
		<polygon points="454.05,439.16 460.11,485.11 478.63,485.11 484.68,439.16 484.68,410.31 454.05,410.31 		"/>
	</g>
</g>
</svg>
