<?xml version="1.0" encoding="utf-8"?>
<!-- Generator: Adobe Illustrator 23.1.1, SVG Export Plug-In . SVG Version: 6.00 Build 0)  -->
<svg version="1.1" xmlns="http://www.w3.org/2000/svg" xmlns:xlink="http://www.w3.org/1999/xlink" x="0px" y="0px"
	 viewBox="0 0 792 612" style="enable-background:new 0 0 792 612;" xml:space="preserve">
<style type="text/css">
	.st0{display:none;}
	.st1{display:inline;fill:#FFFFFF;}
	.st2{display:inline;}
	.st3{fill:#FFFFFF;stroke:#000000;stroke-width:16;stroke-linecap:round;stroke-linejoin:round;stroke-miterlimit:10;}
	.st4{fill:none;stroke:#000000;stroke-width:24;stroke-linejoin:round;stroke-miterlimit:10;}
	.st5{fill:#FFFFFF;}
	.st6{fill:#FFFFFF;stroke:#000000;stroke-width:17;stroke-linecap:round;stroke-miterlimit:10;}
	.st7{fill:#FFFFFF;stroke:#000000;stroke-width:17;stroke-miterlimit:10;}
	.st8{stroke:#000000;stroke-width:16.0572;stroke-linecap:round;stroke-miterlimit:10;}
	.st9{fill:#FFFFFF;stroke:#000000;stroke-width:13.497;stroke-linecap:round;stroke-linejoin:round;stroke-miterlimit:10;}
	.st10{stroke:#000000;stroke-width:18.3348;stroke-linecap:round;stroke-miterlimit:10;}
	.st11{fill:none;stroke:#000000;stroke-width:13.497;stroke-linecap:round;stroke-linejoin:round;stroke-miterlimit:10;}
	.st12{fill:#FFFFFF;stroke:#000000;stroke-width:14.6942;stroke-linecap:round;stroke-linejoin:round;stroke-miterlimit:10;}
	.st13{fill:none;stroke:#000000;stroke-width:13;stroke-linecap:round;stroke-linejoin:round;stroke-miterlimit:10;}
	.st14{fill:none;stroke:#000000;stroke-width:13;stroke-linejoin:round;stroke-miterlimit:10;}
	.st15{fill:url(#);stroke:#000000;stroke-width:13;stroke-linejoin:round;stroke-miterlimit:10;}
	.st16{fill:none;stroke:#000000;stroke-width:30.5612;stroke-linecap:round;stroke-linejoin:round;stroke-miterlimit:10;}
	.st17{fill:#FFFFFF;stroke:#000000;stroke-width:16.2993;stroke-linecap:round;stroke-linejoin:round;stroke-miterlimit:10;}
	.st18{fill:#FFFFFF;stroke:#000000;stroke-width:13.497;stroke-linecap:round;stroke-miterlimit:10;}
	.st19{fill:url(#);stroke:#000000;stroke-width:13.497;stroke-linecap:round;stroke-linejoin:round;stroke-miterlimit:10;}
	.st20{fill:#FFFFFF;stroke:#000000;stroke-width:11.7326;stroke-linecap:round;stroke-linejoin:round;stroke-miterlimit:10;}
	.st21{fill:#FFFFFF;stroke:#000000;stroke-width:13.2623;stroke-linecap:round;stroke-linejoin:round;stroke-miterlimit:10;}
	.st22{fill:#FFFFFF;stroke:#000000;stroke-width:13.2623;stroke-linecap:round;stroke-miterlimit:10;}
	.st23{stroke:#000000;stroke-width:4.5213;stroke-miterlimit:10;}
	.st24{font-family:'FoundersGrotesk-Bold';}
	.st25{font-size:127.7623px;}
	.st26{font-size:368.6871px;}
	.st27{font-size:20.6105px;}
	.st28{font-size:10.3052px;}
	.st29{font-size:19.2364px;}
	.st30{font-size:10px;}
	.st31{fill:none;stroke:#000000;stroke-width:16;stroke-linecap:round;stroke-miterlimit:10;}
	.st32{fill:url(#);stroke:#000000;stroke-width:16;stroke-linecap:round;stroke-linejoin:round;stroke-miterlimit:10;}
	.st33{fill:#FFFFFF;stroke:#000000;stroke-width:16;stroke-linecap:round;stroke-miterlimit:10;}
	.st34{fill:none;stroke:#000000;stroke-width:16;stroke-linecap:round;stroke-linejoin:round;stroke-miterlimit:10;}
	.st35{fill:none;stroke:#000000;stroke-width:15.2344;stroke-linecap:round;stroke-linejoin:round;stroke-miterlimit:10;}
	.st36{fill:#FFFFFF;stroke:#000000;stroke-width:15.2344;stroke-linecap:round;stroke-linejoin:round;stroke-miterlimit:10;}
	.st37{fill:#FFFFFF;stroke:#000000;stroke-width:17;stroke-linecap:round;stroke-linejoin:round;stroke-miterlimit:10;}
	.st38{fill:none;stroke:#000000;stroke-width:9.9764;stroke-linecap:round;stroke-linejoin:round;stroke-miterlimit:10;}
	.st39{fill:none;stroke:#000000;stroke-width:9.3127;stroke-linejoin:round;stroke-miterlimit:10;}
	.st40{fill:url(#);}
	.st41{fill:none;stroke:#000000;stroke-width:8.3796;stroke-linecap:round;stroke-linejoin:round;stroke-miterlimit:10;}
	
		.st42{display:inline;fill:none;stroke:#000000;stroke-width:9.9764;stroke-linecap:round;stroke-linejoin:round;stroke-miterlimit:10;}
	.st43{display:inline;fill:none;stroke:#000000;stroke-width:9.3127;stroke-linejoin:round;stroke-miterlimit:10;}
	.st44{display:inline;fill:url(#);stroke:#000000;stroke-width:10;stroke-linejoin:round;stroke-miterlimit:10;}
	.st45{fill:#FFFFFF;stroke:#000000;stroke-width:14.7375;stroke-linecap:round;stroke-linejoin:round;stroke-miterlimit:10;}
	.st46{fill:none;stroke:#000000;stroke-width:14.7375;stroke-linecap:round;stroke-linejoin:round;stroke-miterlimit:10;}
	.st47{stroke:#000000;stroke-width:14.7375;stroke-linecap:round;stroke-linejoin:round;stroke-miterlimit:10;}
	.st48{fill:#FFFFFF;stroke:#000000;stroke-width:14.2911;stroke-linecap:round;stroke-linejoin:round;stroke-miterlimit:10;}
	.st49{fill:none;stroke:#000000;stroke-width:15;stroke-linecap:round;stroke-linejoin:round;stroke-miterlimit:10;}
	.st50{fill:#FFFFFF;stroke:#000000;stroke-width:15;stroke-linecap:round;stroke-linejoin:round;stroke-miterlimit:10;}
	.st51{fill:#FFFFFF;stroke:#000000;stroke-width:14.8467;stroke-linecap:round;stroke-linejoin:round;stroke-miterlimit:10;}
	.st52{stroke:#000000;stroke-width:20.1683;stroke-linecap:round;stroke-miterlimit:10;}
	.st53{fill:none;stroke:#000000;stroke-width:14.8467;stroke-linecap:round;stroke-linejoin:round;stroke-miterlimit:10;}
	.st54{fill:none;stroke:#000000;stroke-width:13.497;stroke-miterlimit:10;}
	.st55{fill:#FFFFFF;stroke:#000000;stroke-width:13.497;stroke-miterlimit:10;}
	.st56{fill:#FFFFFF;stroke:#000000;stroke-width:14.7439;stroke-linecap:round;stroke-miterlimit:10;}
	.st57{fill:#FFFFFF;stroke:#000000;stroke-width:14.7439;stroke-miterlimit:10;}
	.st58{stroke:#000000;stroke-width:13.9262;stroke-linecap:round;stroke-miterlimit:10;}
	.st59{fill:#FFFFFF;stroke:#000000;stroke-width:17.1072;stroke-linecap:round;stroke-linejoin:round;stroke-miterlimit:10;}
	.st60{stroke:#000000;stroke-width:17.1072;stroke-linecap:round;stroke-linejoin:round;stroke-miterlimit:10;}
	.st61{fill:#FFFFFF;stroke:#000000;stroke-width:15;stroke-linecap:square;stroke-linejoin:round;stroke-miterlimit:10;}
	.st62{fill:#FFFFFF;stroke:#000000;stroke-width:15;stroke-linejoin:round;stroke-miterlimit:10;}
	.st63{fill:#FFFFFF;stroke:#000000;stroke-width:14;stroke-linecap:round;stroke-linejoin:round;stroke-miterlimit:10;}
	.st64{fill:#FFFFFF;stroke:#000000;stroke-width:13;stroke-linecap:round;stroke-linejoin:round;stroke-miterlimit:10;}
	.st65{fill:#FFFFFF;stroke:#000000;stroke-width:15.2362;stroke-linecap:round;stroke-linejoin:round;stroke-miterlimit:10;}
	.st66{fill:#FFFFFF;stroke:#FFFFFF;stroke-width:3;stroke-miterlimit:10;}
	.st67{fill:#FFFFFF;stroke:#000000;stroke-width:13.3058;stroke-linecap:round;stroke-linejoin:round;stroke-miterlimit:10;}
	.st68{fill:#FFFFFF;stroke:#000000;stroke-width:15.2517;stroke-linecap:round;stroke-linejoin:round;stroke-miterlimit:10;}
	.st69{stroke:#000000;stroke-width:3;stroke-miterlimit:10;}
</style>
<g id="unexpanded" class="st0">
	<rect x="-12194.75" y="-343.56" class="st1" width="14663.41" height="9108.82"/>
	<g class="st2">
		<rect x="0.14" class="st5" width="792" height="1224"/>
		<g>
			<g>
				<text transform="matrix(1 0 0 1 106.4673 139.0259)" class="st24 st25">We’ll Take</text>
			</g>
			<g>
				<text transform="matrix(1 0 0 1 190.8535 263.418)" class="st24 st25">What Is</text>
			</g>
			<text transform="matrix(1 0 0 1 0.7739 543.7251)" class="st24 st26">FAIR</text>
		</g>
		<g>
			<g>
				<g>
					<text transform="matrix(1 0 0 1 258.9679 23.5542)"><tspan x="0" y="0" class="st24 st27">www</tspan><tspan x="45.14" y="0" class="st24 st28"> </tspan><tspan x="46.99" y="0" class="st24 st27">.</tspan><tspan x="51.77" y="0" class="st24 st28"> </tspan><tspan x="53.63" y="0" class="st24 st27">Capitalism</tspan><tspan x="150.43" y="0" class="st24 st29"> </tspan><tspan x="153.9" y="0" class="st24 st27">Is</tspan><tspan x="168.88" y="0" class="st24 st29"> </tspan><tspan x="172.34" y="0" class="st24 st27">A</tspan><tspan x="186.6" y="0" class="st24 st28"> </tspan><tspan x="188.46" y="0" class="st24 st27">Virus</tspan><tspan x="236.15" y="0" class="st24 st28"> </tspan><tspan x="238.01" y="0" class="st24 st27">.</tspan><tspan x="242.79" y="0" class="st24 st28"> </tspan><tspan x="244.64" y="0" class="st24 st27">org</tspan></text>
				</g>
				<g>
					<text transform="matrix(1 0 0 1 299.1802 596.9932)"><tspan x="0" y="0" class="st24 st27">#</tspan><tspan x="12.7" y="0" class="st24 st30"> </tspan><tspan x="14.5" y="0" class="st24 st27">Capitalism</tspan><tspan x="111.3" y="0" class="st24 st30"> </tspan><tspan x="113.1" y="0" class="st24 st27">Is</tspan><tspan x="128.09" y="0" class="st24 st30"> </tspan><tspan x="129.89" y="0" class="st24 st27">A</tspan><tspan x="144.15" y="0" class="st24 st30"> </tspan><tspan x="145.95" y="0" class="st24 st27">Virus</tspan></text>
				</g>
			</g>
		</g>
	</g>
</g>
<g id="exp_trnsp_bg">
	<polygon points="159.87,139.03 173.29,88.18 173.8,88.18 187.21,139.03 210.34,139.03 231.42,58.54 210.46,58.54 197.69,109 
		197.18,109 183.89,58.54 164.34,58.54 151.05,109 150.54,109 137.77,58.54 116.05,58.54 137.13,139.03 	"/>
	<path d="M261.44,140.56c15.08,0,25.55-7.28,28.49-20.31l-16.61-1.53c-1.92,4.47-5.49,6.39-11.12,6.39
		c-6.26,0-11.37-3.32-11.88-10.35h39.99V109c0-15.46-10.09-28.49-29.13-28.49c-17.76,0-31.05,12.9-31.05,30.92
		C230.14,129.57,243.17,140.56,261.44,140.56z M260.93,95.33c6.13,0,9.45,4.34,9.71,9.45h-20.06
		C251.35,99.42,254.29,95.33,260.93,95.33z"/>
	<path d="M296.96,84.73v9.84c14.31-0.38,21.59-5.62,21.59-18.14V58.54h-21.59V77.7h9.71C306.54,82.81,303.09,84.47,296.96,84.73z"/>
	<rect x="328" y="58.54" width="20.7" height="80.49"/>
	<rect x="359.94" y="58.54" width="20.7" height="80.49"/>
	<polygon points="440.05,139.03 461.64,139.03 461.64,76.42 489.62,76.42 489.62,58.54 412.45,58.54 412.45,76.42 440.05,76.42 	"/>
	<path d="M485.15,101.72l19.16,1.28c0.89-4.22,3.19-7.15,7.79-7.15c4.98,0,7.16,2.81,7.16,7.54v0.89l-15.97,2.68
		c-12.39,2.17-20.31,6.9-20.31,17.89c0,9.71,7.28,15.46,18.4,15.46c9.07,0,15.59-3.45,18.91-10.09c1.92,6.52,7.41,10.09,14.44,10.09
		c5.88,0,9.96-1.66,12.9-3.71v-10.99c-1.66,0.64-2.94,0.89-4.6,0.89c-2.17,0-3.45-1.28-3.45-4.22v-19.42
		c0-15.84-11.12-22.36-26.19-22.36C496.27,80.51,486.94,89.2,485.15,101.72z M519.26,115.26c0,7.41-4.73,11.75-10.6,11.75
		c-3.45,0-5.75-1.92-5.75-4.85c0-3.71,2.94-5.24,7.92-6.26l8.43-1.53V115.26z"/>
	<polygon points="574.33,121.01 579.31,115.9 595.66,139.03 618.92,139.03 594.64,104.4 618.15,82.04 593.88,82.04 574.33,101.72 
		574.33,58.54 553.63,58.54 553.63,139.03 574.33,139.03 	"/>
	<path d="M648.56,140.56c15.08,0,25.55-7.28,28.49-20.31l-16.61-1.53c-1.92,4.47-5.49,6.39-11.12,6.39
		c-6.26,0-11.37-3.32-11.88-10.35h39.99V109c0-15.46-10.09-28.49-29.13-28.49c-17.76,0-31.05,12.9-31.05,30.92
		C617.26,129.57,630.29,140.56,648.56,140.56z M648.05,95.33c6.13,0,9.45,4.34,9.71,9.45H637.7
		C638.46,99.42,641.4,95.33,648.05,95.33z"/>
	<polygon points="272.81,233.39 272.3,233.39 259.01,182.93 239.47,182.93 226.18,233.39 225.67,233.39 212.89,182.93 
		191.17,182.93 212.25,263.42 234.99,263.42 248.41,212.57 248.92,212.57 262.34,263.42 285.46,263.42 306.54,182.93 285.59,182.93 
			"/>
	<path d="M312.16,182.93v80.49h20.7v-27.98c0-8.56,2.81-14.18,9.84-14.18c6.26,0,8.43,4.09,8.43,11.88v30.28h20.7v-35.77
		c0-11.88-4.98-22.74-20.57-22.74c-8.56,0-15.33,3.83-18.4,10.09v-32.07H312.16z"/>
	<path d="M381.28,226.11l19.16,1.28c0.89-4.22,3.19-7.15,7.79-7.15c4.98,0,7.15,2.81,7.15,7.54v0.89l-15.97,2.68
		c-12.39,2.17-20.31,6.9-20.31,17.89c0,9.71,7.28,15.46,18.4,15.46c9.07,0,15.59-3.45,18.91-10.09c1.92,6.52,7.41,10.09,14.44,10.09
		c5.88,0,9.97-1.66,12.9-3.71V250c-1.66,0.64-2.94,0.89-4.6,0.89c-2.17,0-3.45-1.28-3.45-4.22v-19.42
		c0-15.84-11.12-22.36-26.19-22.36C392.4,204.9,383.07,213.59,381.28,226.11z M415.39,239.65c0,7.41-4.73,11.75-10.6,11.75
		c-3.45,0-5.75-1.92-5.75-4.85c0-3.71,2.94-5.24,7.92-6.26l8.43-1.53V239.65z"/>
	<path d="M458.58,190.72l-1.92,7.41c-1.41,5.24-3.19,8.3-8.94,9.2l-4.22,0.64v12.78h7.67v26.83c0,13.42,9.07,17.38,18.65,17.38
		c7.79,0,12.78-1.92,17.12-5.11v-13.42c-3.45,1.41-6.26,1.92-8.82,1.92c-4.22,0-6.52-1.92-6.52-6.77v-20.83h14.82v-14.31h-14.82
		v-15.71H458.58z"/>
	<rect x="518.37" y="182.93" width="21.72" height="80.49"/>
	<path d="M576.62,252.05c-6.26,0-10.09-2.68-10.86-7.41l-18.01,0.26c1.15,13.8,12.9,20.06,28.62,20.06
		c16.23,0,26.45-6.9,26.45-18.91c0-11.12-7.41-16.86-20.19-18.91l-11.12-1.92c-1.92-0.26-3.45-1.28-3.45-3.19
		c0-2.56,2.3-4.09,6.26-4.09c6.39,0,9.96,2.56,10.73,6.64l16.99-0.51c-1.15-11.88-10.86-19.16-27.34-19.16
		c-15.97,0-25.81,8.05-25.81,19.29c0,11.63,7.28,16.1,21.08,18.27l8.43,1.28c3.96,0.64,5.24,2.17,5.24,4.34
		C583.65,250.39,581.22,252.05,576.62,252.05z"/>
	<polygon points="94.97,458.56 179.77,458.56 179.77,407.68 94.97,407.68 94.97,363.07 207.79,363.07 207.79,311.46 32.3,311.46 
		32.3,543.73 94.97,543.73 	"/>
	<path d="M252.4,543.73l17.33-44.98h90.7l17.33,44.98h66.73l-92.54-232.27H281.9l-92.54,232.27H252.4z M314.34,383.35h1.47
		l26.54,68.57h-54.56L314.34,383.35z"/>
	<rect x="462.18" y="311.46" width="62.68" height="232.27"/>
	<path d="M560.25,543.73h61.57v-77.05h41.66c21.01,0,32.44,5.9,34.29,32.44c1.84,23.96,4.79,38.34,9.59,44.61h63.41
		c-7.74-8.48-8.85-18.8-12.17-53.46c-2.58-26.91-16.59-40.56-40.56-45.35c28.39-3.69,49.4-25.81,49.4-59.73
		c0-45.35-29.86-73.74-89.96-73.74H560.25V543.73z M621.82,361.6h44.61c26.54,0,39.82,9.95,39.82,28.76
		c0,21.38-13.27,28.02-39.82,28.02h-44.61V361.6z"/>
	<polygon points="265.16,23.55 266.5,18.36 266.58,18.36 267.92,23.55 271.2,23.55 274.07,14.5 276.93,23.55 280.21,23.55 
		281.55,18.36 281.63,18.36 282.97,23.55 286.25,23.55 289.11,14.49 291.98,23.55 295.25,23.55 296.59,18.36 296.68,18.36 
		298.02,23.55 301.29,23.55 304.2,14.36 301.19,14.36 299.54,19.58 299.46,19.58 298.12,14.36 295.46,14.36 294.12,19.58 
		294.04,19.58 292.39,14.36 289.15,14.36 289.07,14.36 286.14,14.36 284.5,19.58 284.41,19.58 283.07,14.36 280.41,14.36 
		279.07,19.58 278.99,19.58 277.34,14.36 274.11,14.36 274.02,14.36 271.1,14.36 269.45,19.58 269.37,19.58 268.03,14.36 
		265.37,14.36 264.03,19.58 263.95,19.58 262.3,14.36 258.98,14.36 261.88,23.55 	"/>
	<rect x="306.63" y="20.01" width="3.55" height="3.55"/>
	<path d="M319.72,23.8c3.98,0,6.1-2.52,6.35-5.75l-3.36-0.14c-0.21,1.44-0.99,2.78-3.01,2.78c-1.92,0-3.03-1.42-3.03-3.63
		s1.11-3.63,3.03-3.63c2.02,0,2.8,1.34,3.01,2.78l3.36-0.12c-0.25-3.24-2.37-5.77-6.35-5.77c-3.79,0-6.66,2.74-6.66,6.74
		S315.92,23.8,319.72,23.8z"/>
	<path d="M330.08,18.38c-2,0.35-3.28,1.11-3.28,2.89c0,1.57,1.17,2.49,2.97,2.49c1.46,0,2.51-0.56,3.05-1.63
		c0.31,1.05,1.2,1.63,2.33,1.63c0.95,0,1.61-0.27,2.08-0.6v-1.77c-0.27,0.1-0.47,0.14-0.74,0.14c-0.35,0-0.56-0.21-0.56-0.68v-3.13
		c0-2.56-1.79-3.61-4.23-3.61c-2.76,0-4.27,1.4-4.56,3.42l3.09,0.21c0.14-0.68,0.52-1.15,1.26-1.15c0.8,0,1.15,0.45,1.15,1.22v0.14
		L330.08,18.38z M332.66,19.72c0,1.2-0.76,1.9-1.71,1.9c-0.56,0-0.93-0.31-0.93-0.78c0-0.6,0.47-0.85,1.28-1.01l1.36-0.25V19.72z"/>
	<path d="M341.54,21.99c0.45,1.07,1.48,1.81,3.03,1.81c2.7,0,4.08-2.12,4.08-4.84c0-2.7-1.38-4.84-4.08-4.84
		c-1.55,0-2.58,0.74-3.03,1.83v-1.59h-3.34v12.49h3.34V21.99z M341.54,18.9c0-1.32,0.72-2.19,1.86-2.19c1.3,0,1.9,0.93,1.9,2.25
		c0,1.34-0.6,2.27-1.9,2.27c-1.13,0-1.86-0.87-1.86-2.21V18.9z"/>
	<rect x="349.95" y="10.57" width="3.38" height="2.93"/>
	<rect x="349.97" y="14.36" width="3.34" height="9.19"/>
	<path d="M355.46,21c0,2.16,1.46,2.8,3.01,2.8c1.26,0,2.06-0.31,2.76-0.82v-2.16c-0.56,0.23-1.01,0.31-1.42,0.31
		c-0.68,0-1.05-0.31-1.05-1.09v-3.36h2.39v-2.31h-2.39v-2.54h-2.1l-0.31,1.2c-0.23,0.85-0.52,1.34-1.44,1.48l-0.68,0.1v2.06h1.24V21
		z"/>
	<path d="M365.25,18.38c-2,0.35-3.28,1.11-3.28,2.89c0,1.57,1.17,2.49,2.97,2.49c1.46,0,2.52-0.56,3.05-1.63
		c0.31,1.05,1.2,1.63,2.33,1.63c0.95,0,1.61-0.27,2.08-0.6v-1.77c-0.27,0.1-0.47,0.14-0.74,0.14c-0.35,0-0.56-0.21-0.56-0.68v-3.13
		c0-2.56-1.79-3.61-4.23-3.61c-2.76,0-4.27,1.4-4.56,3.42l3.09,0.21c0.14-0.68,0.52-1.15,1.26-1.15c0.8,0,1.15,0.45,1.15,1.22v0.14
		L365.25,18.38z M367.82,19.72c0,1.2-0.76,1.9-1.71,1.9c-0.56,0-0.93-0.31-0.93-0.78c0-0.6,0.47-0.85,1.28-1.01l1.36-0.25V19.72z"/>
	<rect x="373.37" y="10.57" width="3.34" height="12.99"/>
	<rect x="378.52" y="14.36" width="3.34" height="9.19"/>
	<rect x="378.5" y="10.57" width="3.38" height="2.93"/>
	<path d="M387.67,21.72c-1.01,0-1.63-0.43-1.75-1.2l-2.91,0.04c0.19,2.23,2.08,3.24,4.62,3.24c2.62,0,4.27-1.11,4.27-3.05
		c0-1.79-1.2-2.72-3.26-3.05l-1.79-0.31c-0.31-0.04-0.56-0.21-0.56-0.52c0-0.41,0.37-0.66,1.01-0.66c1.03,0,1.61,0.41,1.73,1.07
		l2.74-0.08c-0.19-1.92-1.75-3.09-4.41-3.09c-2.58,0-4.16,1.3-4.16,3.11c0,1.88,1.17,2.6,3.4,2.95l1.36,0.21
		c0.64,0.1,0.84,0.35,0.84,0.7C388.8,21.45,388.41,21.72,387.67,21.72z"/>
	<path d="M396.51,19.04c0-1.38,0.39-2.29,1.48-2.29c1.01,0,1.26,0.66,1.26,1.92v4.89h3.34v-4.51c0-1.38,0.37-2.29,1.48-2.29
		c1.01,0,1.24,0.66,1.24,1.92v4.89h3.34v-5.77c0-1.92-0.74-3.67-3.28-3.67c-1.55,0-2.64,0.78-3.13,1.81
		c-0.39-1.07-1.24-1.81-2.87-1.81c-1.38,0-2.37,0.62-2.87,1.63v-1.38h-3.34v9.19h3.34V19.04z"/>
	<rect x="413.91" y="10.57" width="3.5" height="12.99"/>
	<path d="M423.3,21.72c-1.01,0-1.63-0.43-1.75-1.2l-2.91,0.04c0.19,2.23,2.08,3.24,4.62,3.24c2.62,0,4.27-1.11,4.27-3.05
		c0-1.79-1.2-2.72-3.26-3.05l-1.79-0.31c-0.31-0.04-0.56-0.21-0.56-0.52c0-0.41,0.37-0.66,1.01-0.66c1.03,0,1.61,0.41,1.73,1.07
		l2.74-0.08c-0.19-1.92-1.75-3.09-4.41-3.09c-2.58,0-4.16,1.3-4.16,3.11c0,1.88,1.17,2.6,3.4,2.95l1.36,0.21
		c0.64,0.1,0.84,0.35,0.84,0.7C424.44,21.45,424.05,21.72,423.3,21.72z"/>
	<path d="M435.86,21.04h5.07l0.97,2.52h3.73l-5.17-12.99h-3.92l-5.17,12.99h3.52L435.86,21.04z M438.35,14.59h0.08l1.48,3.83h-3.05
		L438.35,14.59z"/>
	<polygon points="456.16,23.55 461.15,10.57 457.66,10.57 454.45,19.2 454.36,19.2 451.15,10.57 447.48,10.57 452.47,23.55 	"/>
	<rect x="462.05" y="14.36" width="3.34" height="9.19"/>
	<rect x="462.03" y="10.57" width="3.38" height="2.93"/>
	<path d="M470.54,19.35c0-1.55,0.76-2.12,2-2.12c0.64,0,1.13,0.12,1.59,0.39l0.21-3.15c-0.23-0.19-0.72-0.35-1.28-0.35
		c-1.22,0-2.18,0.85-2.51,1.88v-1.63h-3.34v9.19h3.34V19.35z"/>
	<path d="M478.54,23.8c1.38,0,2.39-0.6,2.89-1.63v1.38h3.34v-9.19h-3.34v4.51c0,1.4-0.41,2.31-1.46,2.31
		c-1.01,0-1.36-0.68-1.36-1.92v-4.91h-3.34v5.79C475.26,22.07,476.02,23.8,478.54,23.8z"/>
	<path d="M490.58,21.72c-1.01,0-1.63-0.43-1.75-1.2l-2.91,0.04c0.19,2.23,2.08,3.24,4.62,3.24c2.62,0,4.27-1.11,4.27-3.05
		c0-1.79-1.2-2.72-3.26-3.05l-1.79-0.31c-0.31-0.04-0.56-0.21-0.56-0.52c0-0.41,0.37-0.66,1.01-0.66c1.03,0,1.61,0.41,1.73,1.07
		l2.74-0.08c-0.19-1.92-1.75-3.09-4.41-3.09c-2.58,0-4.16,1.3-4.16,3.11c0,1.88,1.17,2.6,3.4,2.95l1.36,0.21
		c0.64,0.1,0.84,0.35,0.84,0.7C491.71,21.45,491.32,21.72,490.58,21.72z"/>
	<rect x="497.64" y="20.01" width="3.55" height="3.55"/>
	<path d="M509.1,23.8c2.99,0,5.03-1.98,5.03-4.84c0-2.84-2.04-4.84-5.03-4.84c-3.01,0-5.03,2-5.03,4.84
		C504.07,21.82,506.09,23.8,509.1,23.8z M509.1,16.63c1.15,0,1.67,0.95,1.67,2.33c0,1.38-0.52,2.33-1.67,2.33
		c-1.17,0-1.67-0.95-1.67-2.33C507.43,17.58,507.93,16.63,509.1,16.63z"/>
	<path d="M518.79,19.35c0-1.55,0.76-2.12,2-2.12c0.64,0,1.13,0.12,1.59,0.39l0.21-3.15c-0.23-0.19-0.72-0.35-1.28-0.35
		c-1.22,0-2.19,0.85-2.52,1.88v-1.63h-3.34v9.19h3.34V19.35z"/>
	<path d="M522.6,24.85c0,1.73,2.27,2.25,4.89,2.25c2.99,0,5.77-1.05,5.77-3.34c0-1.55-1.05-2.64-3.13-2.64h-3.81
		c-0.56,0-0.78-0.25-0.78-0.56c0-0.19,0.06-0.33,0.19-0.43c0.6,0.19,1.26,0.27,2,0.27c2.6,0,4.47-1.2,4.47-3.13
		c0-0.43-0.1-0.82-0.29-1.17c0.45-0.1,0.95-0.14,1.34-0.14v-2.51c-1.01,0-2.02,0.66-2.58,1.42c-0.78-0.47-1.83-0.74-2.95-0.74
		c-2.58,0-4.43,1.2-4.43,3.15c0,1.01,0.5,1.79,1.32,2.33c-0.99,0.37-1.57,1.05-1.57,1.94c0,0.78,0.49,1.53,1.32,1.79
		C523.33,23.41,522.6,24.05,522.6,24.85z M527.76,15.95c0.56,0,0.97,0.52,0.97,1.32c0,0.82-0.41,1.34-0.97,1.34
		s-0.97-0.52-0.97-1.34C526.79,16.46,527.2,15.95,527.76,15.95z M525.96,23.97h3.38c0.56,0,0.84,0.14,0.84,0.54
		c0,0.56-1.13,0.87-2.68,0.87c-1.24,0-2.16-0.19-2.16-0.84C525.35,24.17,525.59,23.97,525.96,23.97z"/>
	<path d="M300.03,591.51l-0.43,2.06h1.81l-0.8,3.42h2.49l0.8-3.42h1.77l-0.8,3.42h2.49l0.8-3.42h2.04l0.43-2.06h-1.98l0.5-2.02h1.88
		l0.43-2.06h-1.83l0.82-3.42h-2.49l-0.82,3.42h-1.77l0.83-3.42h-2.49l-0.83,3.42h-2.02l-0.43,2.06h1.98l-0.5,2.02H300.03z
		 M304.89,589.49h1.77l-0.5,2.02h-1.77L304.89,589.49z"/>
	<path d="M320.73,586.87c2.02,0,2.8,1.34,3.01,2.78l3.36-0.12c-0.25-3.24-2.37-5.77-6.35-5.77c-3.79,0-6.66,2.74-6.66,6.74
		c0,4,2.87,6.74,6.66,6.74c3.98,0,6.1-2.52,6.35-5.75l-3.36-0.14c-0.21,1.44-0.99,2.78-3.01,2.78c-1.92,0-3.03-1.42-3.03-3.63
		C317.7,588.29,318.81,586.87,320.73,586.87z"/>
	<path d="M331.11,591.82c-2,0.35-3.28,1.11-3.28,2.89c0,1.57,1.17,2.49,2.97,2.49c1.46,0,2.51-0.56,3.05-1.63
		c0.31,1.05,1.2,1.63,2.33,1.63c0.95,0,1.61-0.27,2.08-0.6v-1.77c-0.27,0.1-0.47,0.14-0.74,0.14c-0.35,0-0.56-0.21-0.56-0.68v-3.13
		c0-2.56-1.79-3.61-4.23-3.61c-2.76,0-4.27,1.4-4.56,3.42l3.09,0.21c0.14-0.68,0.51-1.15,1.26-1.15c0.8,0,1.15,0.45,1.15,1.22v0.14
		L331.11,591.82z M333.69,593.16c0,1.2-0.76,1.9-1.71,1.9c-0.56,0-0.93-0.31-0.93-0.78c0-0.6,0.47-0.85,1.28-1.01l1.36-0.25V593.16z
		"/>
	<path d="M339.23,587.8v12.49h3.34v-4.87c0.45,1.07,1.48,1.81,3.03,1.81c2.7,0,4.08-2.12,4.08-4.84c0-2.7-1.38-4.84-4.08-4.84
		c-1.55,0-2.58,0.74-3.03,1.83v-1.59H339.23z M344.43,590.15c1.3,0,1.9,0.93,1.9,2.25c0,1.34-0.6,2.27-1.9,2.27
		c-1.13,0-1.86-0.87-1.86-2.21v-0.12C342.57,591.02,343.29,590.15,344.43,590.15z"/>
	<rect x="351" y="587.8" width="3.34" height="9.19"/>
	<rect x="350.98" y="584.01" width="3.38" height="2.93"/>
	<path d="M357.68,585.26l-0.31,1.2c-0.23,0.85-0.51,1.34-1.44,1.48l-0.68,0.1v2.06h1.24v4.33c0,2.16,1.46,2.8,3.01,2.8
		c1.26,0,2.06-0.31,2.76-0.82v-2.16c-0.56,0.23-1.01,0.31-1.42,0.31c-0.68,0-1.05-0.31-1.05-1.09v-3.36h2.39v-2.31h-2.39v-2.54
		H357.68z"/>
	<path d="M366.27,591.82c-2,0.35-3.28,1.11-3.28,2.89c0,1.57,1.18,2.49,2.97,2.49c1.46,0,2.51-0.56,3.05-1.63
		c0.31,1.05,1.2,1.63,2.33,1.63c0.95,0,1.61-0.27,2.08-0.6v-1.77c-0.27,0.1-0.47,0.14-0.74,0.14c-0.35,0-0.56-0.21-0.56-0.68v-3.13
		c0-2.56-1.79-3.61-4.23-3.61c-2.76,0-4.27,1.4-4.56,3.42l3.09,0.21c0.14-0.68,0.51-1.15,1.26-1.15c0.8,0,1.15,0.45,1.15,1.22v0.14
		L366.27,591.82z M368.85,593.16c0,1.2-0.76,1.9-1.71,1.9c-0.56,0-0.93-0.31-0.93-0.78c0-0.6,0.47-0.85,1.28-1.01l1.36-0.25V593.16z
		"/>
	<rect x="374.39" y="584.01" width="3.34" height="12.99"/>
	<rect x="379.53" y="584.01" width="3.38" height="2.93"/>
	<rect x="379.55" y="587.8" width="3.34" height="9.19"/>
	<path d="M388.7,595.16c-1.01,0-1.63-0.43-1.75-1.2l-2.91,0.04c0.19,2.23,2.08,3.24,4.62,3.24c2.62,0,4.27-1.11,4.27-3.05
		c0-1.79-1.2-2.72-3.26-3.05l-1.79-0.31c-0.31-0.04-0.56-0.21-0.56-0.52c0-0.41,0.37-0.66,1.01-0.66c1.03,0,1.61,0.41,1.73,1.07
		l2.74-0.08c-0.19-1.92-1.75-3.09-4.41-3.09c-2.58,0-4.16,1.3-4.16,3.11c0,1.88,1.18,2.6,3.4,2.95l1.36,0.21
		c0.64,0.1,0.85,0.35,0.85,0.7C389.83,594.89,389.44,595.16,388.7,595.16z"/>
	<path d="M394.2,587.8v9.19h3.34v-4.51c0-1.38,0.39-2.29,1.48-2.29c1.01,0,1.26,0.66,1.26,1.92v4.89h3.34v-4.51
		c0-1.38,0.37-2.29,1.48-2.29c1.01,0,1.24,0.66,1.24,1.92v4.89h3.34v-5.77c0-1.92-0.74-3.67-3.28-3.67c-1.55,0-2.64,0.78-3.13,1.81
		c-0.39-1.07-1.24-1.81-2.87-1.81c-1.38,0-2.37,0.62-2.87,1.63v-1.38H394.2z"/>
	<rect x="413.27" y="584.01" width="3.5" height="12.99"/>
	<path d="M422.67,595.16c-1.01,0-1.63-0.43-1.75-1.2l-2.91,0.04c0.19,2.23,2.08,3.24,4.62,3.24c2.62,0,4.27-1.11,4.27-3.05
		c0-1.79-1.2-2.72-3.26-3.05l-1.79-0.31c-0.31-0.04-0.56-0.21-0.56-0.52c0-0.41,0.37-0.66,1.01-0.66c1.03,0,1.61,0.41,1.73,1.07
		l2.74-0.08c-0.19-1.92-1.75-3.09-4.41-3.09c-2.58,0-4.16,1.3-4.16,3.11c0,1.88,1.18,2.6,3.4,2.95l1.36,0.21
		c0.64,0.1,0.85,0.35,0.85,0.7C423.8,594.89,423.41,595.16,422.67,595.16z"/>
	<path d="M438.63,594.48l0.97,2.51h3.73l-5.17-12.99h-3.92l-5.17,12.99h3.52l0.97-2.51H438.63z M436.05,588.03h0.08l1.48,3.83h-3.05
		L436.05,588.03z"/>
	<polygon points="458.8,584.01 455.31,584.01 452.1,592.64 452.01,592.64 448.8,584.01 445.13,584.01 450.12,596.99 453.81,596.99 	
		"/>
	<rect x="459.7" y="587.8" width="3.34" height="9.19"/>
	<rect x="459.68" y="584.01" width="3.38" height="2.93"/>
	<path d="M464.85,587.8v9.19h3.34v-4.21c0-1.55,0.76-2.12,2-2.12c0.64,0,1.13,0.12,1.59,0.39l0.21-3.15
		c-0.23-0.19-0.72-0.35-1.28-0.35c-1.22,0-2.19,0.85-2.52,1.88v-1.63H464.85z"/>
	<path d="M472.91,587.8v5.79c0,1.92,0.76,3.65,3.28,3.65c1.38,0,2.39-0.6,2.89-1.63v1.38h3.34v-9.19h-3.34v4.51
		c0,1.4-0.41,2.31-1.46,2.31c-1.01,0-1.36-0.68-1.36-1.92v-4.91H472.91z"/>
	<path d="M488.22,595.16c-1.01,0-1.63-0.43-1.75-1.2l-2.91,0.04c0.19,2.23,2.08,3.24,4.62,3.24c2.62,0,4.27-1.11,4.27-3.05
		c0-1.79-1.2-2.72-3.26-3.05l-1.79-0.31c-0.31-0.04-0.56-0.21-0.56-0.52c0-0.41,0.37-0.66,1.01-0.66c1.03,0,1.61,0.41,1.73,1.07
		l2.74-0.08c-0.19-1.92-1.75-3.09-4.41-3.09c-2.58,0-4.16,1.3-4.16,3.11c0,1.88,1.17,2.6,3.4,2.95l1.36,0.21
		c0.64,0.1,0.85,0.35,0.85,0.7C489.36,594.89,488.97,595.16,488.22,595.16z"/>
</g>
<g id="exp_white_bg" class="st0">
	<g class="st2">
		<polygon class="st5" points="436.14,588.03 436.05,588.03 434.57,591.86 437.62,591.86 		"/>
		<path class="st5" d="M366.21,594.27c0,0.47,0.37,0.78,0.93,0.78c0.95,0,1.71-0.7,1.71-1.9v-0.14l-1.36,0.25
			C366.69,593.43,366.21,593.67,366.21,594.27z"/>
		<path class="st5" d="M331.05,594.27c0,0.47,0.37,0.78,0.93,0.78c0.95,0,1.71-0.7,1.71-1.9v-0.14l-1.36,0.25
			C331.53,593.43,331.05,593.67,331.05,594.27z"/>
		<path class="st5" d="M502.91,122.16c0,2.94,2.3,4.85,5.75,4.85c5.88,0,10.6-4.34,10.6-11.75v-0.89l-8.43,1.53
			C505.85,116.92,502.91,118.46,502.91,122.16z"/>
		<path class="st5" d="M343.4,21.22c1.3,0,1.9-0.93,1.9-2.27c0-1.32-0.6-2.25-1.9-2.25c-1.13,0-1.86,0.87-1.86,2.19v0.12
			C341.54,20.36,342.26,21.22,343.4,21.22z"/>
		<polygon class="st5" points="315.81,383.35 314.34,383.35 287.79,451.92 342.36,451.92 		"/>
		<path class="st5" d="M527.51,25.37c1.55,0,2.68-0.31,2.68-0.87c0-0.39-0.29-0.54-0.84-0.54h-3.38c-0.37,0-0.62,0.21-0.62,0.56
			C525.35,25.18,526.27,25.37,527.51,25.37z"/>
		<path class="st5" d="M509.1,21.29c1.15,0,1.67-0.95,1.67-2.33c0-1.38-0.52-2.33-1.67-2.33c-1.17,0-1.67,0.95-1.67,2.33
			C507.43,20.34,507.93,21.29,509.1,21.29z"/>
		<path class="st5" d="M365.18,20.83c0,0.47,0.37,0.78,0.93,0.78c0.95,0,1.71-0.7,1.71-1.9v-0.14l-1.36,0.25
			C365.66,19.99,365.18,20.24,365.18,20.83z"/>
		<path class="st5" d="M527.76,18.61c0.56,0,0.97-0.52,0.97-1.34c0-0.8-0.41-1.32-0.97-1.32s-0.97,0.52-0.97,1.32
			C526.79,18.09,527.2,18.61,527.76,18.61z"/>
		<path class="st5" d="M330.02,20.83c0,0.47,0.37,0.78,0.93,0.78c0.95,0,1.71-0.7,1.71-1.9v-0.14l-1.36,0.25
			C330.5,19.99,330.02,20.24,330.02,20.83z"/>
		<path class="st5" d="M706.25,390.35c0-18.8-13.27-28.76-39.82-28.76h-44.61v56.78h44.61
			C692.97,418.37,706.25,411.74,706.25,390.35z"/>
		<path class="st5" d="M399.04,246.55c0,2.94,2.3,4.85,5.75,4.85c5.88,0,10.6-4.34,10.6-11.75v-0.89l-8.43,1.53
			C401.98,241.32,399.04,242.85,399.04,246.55z"/>
		<path class="st5" d="M0.14,1224h792V0h-792V1224z M26.86,1062.81l-5.2,1.34v0.08l5.2,1.34v3.28l-9.06,2.86l9.06,2.86v3.28
			l-5.2,1.34v0.08l5.2,1.34v3.28l-9.06,2.86l9.06,2.86v3.28l-5.2,1.34v0.08l5.2,1.34v3.28l-9.19,2.91v-3.32l5.22-1.65v-0.08
			l-5.22-1.34v-2.66l5.22-1.34v-0.08l-5.22-1.65v-2.92v-0.09v-3.23l5.22-1.65v-0.08l-5.22-1.34v-2.66l5.22-1.34v-0.08l-5.22-1.65
			v-2.92v-0.09v-3.23l5.22-1.65v-0.08l-5.22-1.34v-2.66l5.22-1.34v-0.08l-5.22-1.65v-3.01l9.19,2.91V1062.81z M26.86,1054.2h-3.55
			v-3.55h3.55V1054.2z M30.16,1022.62H17.67v-3.34h1.59c-1.09-0.45-1.83-1.48-1.83-3.03c0-2.7,2.14-4.08,4.84-4.08
			c2.72,0,4.84,1.38,4.84,4.08c0,1.55-0.74,2.58-1.81,3.03h4.87V1022.62z M27.07,1031.05c0,1.79-0.93,2.97-2.49,2.97
			c-1.77,0-2.54-1.28-2.89-3.28l-0.43-2.58h-0.14c-0.76,0-1.22,0.35-1.22,1.15c0,0.74,0.47,1.11,1.15,1.26l-0.21,3.09
			c-2.02-0.29-3.42-1.79-3.42-4.56c0-2.43,1.05-4.23,3.61-4.23h3.13c0.47,0,0.68-0.21,0.68-0.56c0-0.27-0.04-0.47-0.14-0.74h1.77
			c0.33,0.47,0.6,1.13,0.6,2.08c0,1.13-0.58,2.02-1.63,2.33C26.51,1028.54,27.07,1029.59,27.07,1031.05z M24.7,988.43h1.77
			c0.33,0.47,0.6,1.13,0.6,2.08c0,1.13-0.58,2.02-1.63,2.33c1.07,0.54,1.63,1.59,1.63,3.05c0,1.79-0.93,2.97-2.49,2.97
			c-1.77,0-2.54-1.28-2.89-3.28l-0.43-2.58h-0.14c-0.76,0-1.22,0.35-1.22,1.15c0,0.74,0.47,1.11,1.15,1.26l-0.21,3.09
			c-2.02-0.29-3.42-1.79-3.42-4.56c0-2.43,1.05-4.23,3.61-4.23h3.13c0.47,0,0.68-0.21,0.68-0.56C24.84,988.9,24.8,988.7,24.7,988.43
			z M17.42,955.45c0-2.54,1.75-3.28,3.67-3.28h5.77v3.34h-4.89c-1.26,0-1.92,0.23-1.92,1.24c0,1.11,0.91,1.48,2.29,1.48h4.51v3.34
			h-4.89c-1.26,0-1.92,0.25-1.92,1.26c0,1.09,0.91,1.48,2.29,1.48h4.51v3.34h-9.19v-3.34h1.38c-1.01-0.49-1.63-1.48-1.63-2.87
			c0-1.63,0.74-2.47,1.81-2.87C18.2,958.09,17.42,957,17.42,955.45z M20.51,969.06l0.08,2.74c-0.66,0.12-1.07,0.7-1.07,1.73
			c0,0.64,0.25,1.01,0.66,1.01c0.31,0,0.47-0.25,0.52-0.56l0.31-1.79c0.33-2.06,1.26-3.26,3.05-3.26c1.94,0,3.05,1.65,3.05,4.27
			c0,2.54-1.01,4.43-3.24,4.62l-0.04-2.91c0.76-0.12,1.2-0.74,1.2-1.75c0-0.74-0.27-1.13-0.64-1.13c-0.35,0-0.6,0.21-0.7,0.85
			l-0.21,1.36c-0.35,2.23-1.07,3.4-2.95,3.4c-1.81,0-3.11-1.59-3.11-4.16C17.42,970.81,18.59,969.24,20.51,969.06z M24.39,936.39
			c-0.35,0-0.6,0.21-0.7,0.85l-0.21,1.36c-0.35,2.23-1.07,3.4-2.95,3.4c-1.81,0-3.11-1.59-3.11-4.16c0-2.66,1.17-4.23,3.09-4.41
			l0.08,2.74c-0.66,0.12-1.07,0.7-1.07,1.73c0,0.64,0.25,1.01,0.66,1.01c0.31,0,0.47-0.25,0.52-0.56l0.31-1.79
			c0.33-2.06,1.26-3.26,3.05-3.26c1.94,0,3.05,1.65,3.05,4.27c0,2.54-1.01,4.43-3.24,4.62l-0.04-2.91c0.76-0.12,1.2-0.74,1.2-1.75
			C25.03,936.78,24.76,936.39,24.39,936.39z M22.66,842.04h4.21v3.34h-9.19v-3.34h1.63c-1.03-0.33-1.88-1.3-1.88-2.52
			c0-0.56,0.17-1.05,0.35-1.28l3.15,0.21c-0.27,0.45-0.39,0.95-0.39,1.59C20.53,841.27,21.11,842.04,22.66,842.04z M22.26,846.69
			c2.87,0,4.84,2.04,4.84,5.03c0,3.01-1.98,5.03-4.84,5.03c-2.84,0-4.84-2.02-4.84-5.03C17.42,848.73,19.42,846.69,22.26,846.69z
			 M26.86,859.64v3.55h-3.55v-3.55H26.86z M20.51,866.15l0.08,2.74c-0.66,0.12-1.07,0.7-1.07,1.73c0,0.64,0.25,1.01,0.66,1.01
			c0.31,0,0.47-0.25,0.52-0.56l0.31-1.79c0.33-2.06,1.26-3.26,3.05-3.26c1.94,0,3.05,1.65,3.05,4.27c0,2.54-1.01,4.43-3.24,4.62
			L23.83,872c0.76-0.12,1.2-0.74,1.2-1.75c0-0.74-0.27-1.13-0.64-1.13c-0.35,0-0.6,0.21-0.7,0.85l-0.21,1.36
			c-0.35,2.23-1.07,3.4-2.95,3.4c-1.81,0-3.11-1.59-3.11-4.16C17.42,867.9,18.59,866.33,20.51,866.15z M22.18,879.4h-4.51v-3.34
			h9.19v3.34h-1.38c1.03,0.49,1.63,1.5,1.63,2.89c0,2.52-1.73,3.28-3.65,3.28h-5.79v-3.34h4.91c1.24,0,1.92-0.35,1.92-1.36
			C24.49,879.81,23.58,879.4,22.18,879.4z M17.77,886.49l3.15,0.21c-0.27,0.45-0.39,0.95-0.39,1.59c0,1.24,0.58,2,2.12,2h4.21v3.34
			h-9.19v-3.34h1.63c-1.03-0.33-1.88-1.3-1.88-2.52C17.42,887.21,17.58,886.72,17.77,886.49z M17.67,895.44h9.19v3.34h-9.19V895.44z
			 M17.67,978.97h9.19v3.34h-9.19V978.97z M17.67,1002.07v-2.39h2.31v2.39h3.36c0.78,0,1.09-0.37,1.09-1.05
			c0-0.41-0.08-0.87-0.31-1.42h2.17c0.52,0.7,0.82,1.5,0.82,2.76c0,1.55-0.64,3.01-2.8,3.01h-4.33v1.24h-2.06l-0.1-0.68
			c-0.14-0.93-0.64-1.22-1.48-1.44l-1.2-0.31v-2.1H17.67z M26.86,1007.52v3.34h-9.19v-3.34H26.86z M269.71,1045.03
			c-12.39,11.38-11.9,21.6-8.08,58.88c2.52,24.63,5.98,58.37,6.18,108.95c0.01,3.66-2.94,6.64-6.6,6.66c-0.01,0-0.02,0-0.03,0
			c-2.87,0-5.31-1.83-6.23-4.39c-0.25-0.69-0.39-1.44-0.4-2.22c-0.2-49.94-3.62-83.3-6.11-107.65c-3.77-36.84-5.49-53.65,12.3-70
			c9.13-8.39,23.18-21.32,23.61-53.15l-1.17,1.93c-4.15,6.86-11.56,10.62-19.26,10.62c-4.22,0-8.53-1.13-12.44-3.5
			c-5.29-3.2-9.09-8.19-10.71-14.04c-0.05-0.17-0.08-0.34-0.13-0.51c-1.78,0.43-3.61,0.65-5.46,0.65c-4.01,0-8.1-1.03-11.85-3.17
			c2.09,4.83,3.41,9.55,4.22,13.85c3.08,16.33-0.36,29.91-0.5,30.48c-0.92,3.54-4.54,5.67-8.08,4.75c-3.54-0.92-5.67-4.53-4.75-8.07
			c0.49-1.94,10.76-44.87-31.88-62.57c-1.77-0.73-3.13-2.19-3.74-4c-0.61-1.81-0.41-3.8,0.55-5.45c2.35-4.04,5.13-8.85,5.13-8.85
			c1.68-2.9,5.27-4.09,8.35-2.77c0.33,0.14,9.4,3.74,17.81-1.74c4.35-2.84,6.95-5.94,8.48-8.4c-11.86-5.67-38.58-18.39-44.08-20.67
			c-4.52-1.87-9.66,0.84-15.25,8.06l-1.05,1.36c-7.56,9.71-30.55,39.27-29.7,55.73c0.63,12.22,14.82,32.02,24.22,45.13
			c4.27,5.95,7.96,11.1,10.13,15c8.32,14.95,6.11,30.86,2.44,57.23c-3.66,26.3-9.18,66.04-7.86,129.58c0.02,0.84-0.13,1.64-0.4,2.38
			c-0.9,2.51-3.27,4.33-6.1,4.39c-0.05,0-0.09,0-0.14,0c-3.6,0-6.55-2.88-6.63-6.49c-1.35-64.6,4.27-104.97,7.98-131.69
			c3.51-25.22,5.27-37.88-0.89-48.95c-1.8-3.24-5.29-8.1-9.32-13.72c-11.52-16.07-25.86-36.06-26.68-52.17
			c-0.97-18.96,16.85-44.46,32.48-64.56l1.04-1.34c4.06-5.23,11.31-12.61,20.53-13.69l22.45-37.09c6.43-10.62,20.65-13.82,31.7-7.13
			c3.81,2.31,6.83,5.55,8.83,9.35c7.16-4.58,16.82-4.92,24.81-0.08c5.29,3.21,9.09,8.19,10.71,14.04c0.72,2.63,0.97,5.29,0.75,7.9
			c4.15,0.04,8.38,1.17,12.22,3.49c7.99,4.84,12.17,13.55,11.43,22.02c4.3,0.01,8.58,1.18,12.38,3.49
			c11.05,6.69,14.81,20.77,8.38,31.39l-16.89,27.89C302.92,1014.49,281.52,1034.18,269.71,1045.03z M296.96,77.7V58.54h21.59v17.89
			c0,12.52-7.28,17.76-21.59,18.14v-9.84c6.13-0.26,9.58-1.92,9.71-7.03H296.96z M351.26,204.9c15.59,0,20.57,10.86,20.57,22.74
			v35.77h-20.7v-30.28c0-7.79-2.17-11.88-8.43-11.88c-7.03,0-9.84,5.62-9.84,14.18v27.98h-20.7v-80.49h20.7V215
			C335.93,208.74,342.7,204.9,351.26,204.9z M349.97,23.55v-9.19h3.34v9.19H349.97z M380.64,58.54v80.49h-20.7V58.54H380.64z
			 M378.52,23.55v-9.19h3.34v9.19H378.52z M306.54,182.93l-21.08,80.49h-23.12l-13.42-50.85h-0.51l-13.42,50.85h-22.74l-21.08-80.49
			h21.72l12.78,50.47h0.51l13.29-50.47h19.55l13.29,50.47h0.51l12.78-50.47H306.54z M281.9,311.46h70.05l92.54,232.27h-66.73
			l-17.33-44.98h-90.7l-17.33,44.98h-63.04L281.9,311.46z M486.43,206.44v14.31h-14.82v20.83c0,4.85,2.3,6.77,6.52,6.77
			c2.55,0,5.37-0.51,8.82-1.92v13.42c-4.34,3.19-9.33,5.11-17.12,5.11c-9.58,0-18.65-3.96-18.65-17.38v-26.83h-7.67v-12.78
			l4.22-0.64c5.75-0.89,7.54-3.96,8.94-9.2l1.92-7.41h13.03v15.71H486.43z M300.42,589.49l0.43-2.06h2.02l0.83-3.42h2.49l-0.83,3.42
			h1.77l0.82-3.42h2.49l-0.82,3.42h1.83l-0.43,2.06h-1.88l-0.5,2.02h1.98l-0.43,2.06h-2.04l-0.8,3.42h-2.49l0.8-3.42h-1.77
			l-0.8,3.42h-2.49l0.8-3.42h-1.81l0.43-2.06h1.88l0.5-2.02H300.42z M409.3,629.39c74.56,0,135.23,60.66,135.23,135.23
			S483.87,899.84,409.3,899.84c-74.57,0-135.23-60.66-135.23-135.23S334.74,629.39,409.3,629.39z M320.73,594.13
			c2.02,0,2.8-1.34,3.01-2.78l3.36,0.14c-0.25,3.24-2.37,5.75-6.35,5.75c-3.79,0-6.66-2.74-6.66-6.74c0-4,2.87-6.74,6.66-6.74
			c3.98,0,6.1,2.54,6.35,5.77l-3.36,0.12c-0.21-1.44-0.99-2.78-3.01-2.78c-1.92,0-3.03,1.42-3.03,3.63
			C317.7,592.71,318.81,594.13,320.73,594.13z M332.54,590.03c-0.74,0-1.11,0.47-1.26,1.15l-3.09-0.21
			c0.29-2.02,1.79-3.42,4.56-3.42c2.43,0,4.23,1.05,4.23,3.61v3.13c0,0.47,0.21,0.68,0.56,0.68c0.27,0,0.47-0.04,0.74-0.14v1.77
			c-0.47,0.33-1.13,0.6-2.08,0.6c-1.13,0-2.02-0.58-2.33-1.63c-0.54,1.07-1.59,1.63-3.05,1.63c-1.79,0-2.97-0.93-2.97-2.49
			c0-1.77,1.28-2.54,3.28-2.89l2.58-0.43v-0.14C333.69,590.48,333.34,590.03,332.54,590.03z M345.6,587.55
			c2.7,0,4.08,2.14,4.08,4.84c0,2.72-1.38,4.84-4.08,4.84c-1.55,0-2.58-0.74-3.03-1.81v4.87h-3.34V587.8h3.34v1.59
			C343.03,588.29,344.06,587.55,345.6,587.55z M350.98,586.93v-2.93h3.38v2.93H350.98z M354.34,587.8v9.19H351v-9.19H354.34z
			 M362.17,587.8v2.31h-2.39v3.36c0,0.78,0.37,1.09,1.05,1.09c0.41,0,0.87-0.08,1.42-0.31v2.16c-0.7,0.52-1.5,0.82-2.76,0.82
			c-1.55,0-3.01-0.64-3.01-2.8v-4.33h-1.24v-2.06l0.68-0.1c0.93-0.14,1.22-0.64,1.44-1.48l0.31-1.2h2.1v2.54H362.17z M367.7,590.03
			c-0.74,0-1.11,0.47-1.26,1.15l-3.09-0.21c0.29-2.02,1.79-3.42,4.56-3.42c2.43,0,4.23,1.05,4.23,3.61v3.13
			c0,0.47,0.21,0.68,0.56,0.68c0.27,0,0.47-0.04,0.74-0.14v1.77c-0.47,0.33-1.13,0.6-2.08,0.6c-1.13,0-2.02-0.58-2.33-1.63
			c-0.54,1.07-1.59,1.63-3.05,1.63c-1.79,0-2.97-0.93-2.97-2.49c0-1.77,1.28-2.54,3.28-2.89l2.58-0.43v-0.14
			C368.85,590.48,368.5,590.03,367.7,590.03z M374.39,596.99v-12.99h3.34v12.99H374.39z M379.53,586.93v-2.93h3.38v2.93H379.53z
			 M382.89,587.8v9.19h-3.34v-9.19H382.89z M388.99,593.82l-1.36-0.21c-2.23-0.35-3.4-1.07-3.4-2.95c0-1.81,1.59-3.11,4.16-3.11
			c2.66,0,4.23,1.18,4.41,3.09l-2.74,0.08c-0.12-0.66-0.7-1.07-1.73-1.07c-0.64,0-1.01,0.25-1.01,0.66c0,0.31,0.25,0.47,0.56,0.52
			l1.79,0.31c2.06,0.33,3.26,1.26,3.26,3.05c0,1.94-1.65,3.05-4.27,3.05c-2.54,0-4.43-1.01-4.62-3.24l2.91-0.04
			c0.12,0.76,0.74,1.2,1.75,1.2c0.74,0,1.13-0.27,1.13-0.64C389.83,594.17,389.63,593.92,388.99,593.82z M400.41,587.55
			c1.63,0,2.47,0.74,2.87,1.81c0.49-1.03,1.59-1.81,3.13-1.81c2.54,0,3.28,1.75,3.28,3.67v5.77h-3.34v-4.89
			c0-1.26-0.23-1.92-1.24-1.92c-1.11,0-1.48,0.91-1.48,2.29v4.51h-3.34v-4.89c0-1.26-0.25-1.92-1.26-1.92
			c-1.09,0-1.48,0.91-1.48,2.29v4.51h-3.34v-9.19h3.34v1.38C398.04,588.17,399.02,587.55,400.41,587.55z M413.27,596.99v-12.99h3.5
			v12.99H413.27z M422.96,593.82l-1.36-0.21c-2.23-0.35-3.4-1.07-3.4-2.95c0-1.81,1.59-3.11,4.16-3.11c2.66,0,4.23,1.18,4.41,3.09
			l-2.74,0.08c-0.12-0.66-0.7-1.07-1.73-1.07c-0.64,0-1.01,0.25-1.01,0.66c0,0.31,0.25,0.47,0.56,0.52l1.79,0.31
			c2.06,0.33,3.26,1.26,3.26,3.05c0,1.94-1.65,3.05-4.27,3.05c-2.54,0-4.43-1.01-4.62-3.24l2.91-0.04c0.12,0.76,0.74,1.2,1.75,1.2
			c0.74,0,1.13-0.27,1.13-0.64C423.8,594.17,423.6,593.92,422.96,593.82z M429.07,596.99l5.17-12.99h3.92l5.17,12.99h-3.73
			l-0.97-2.51h-5.07l-0.97,2.51H429.07z M445.13,584.01h3.67l3.22,8.64h0.08l3.22-8.64h3.48l-4.99,12.99h-3.69L445.13,584.01z
			 M459.68,586.93v-2.93h3.38v2.93H459.68z M463.04,587.8v9.19h-3.34v-9.19H463.04z M470.71,587.55c0.56,0,1.05,0.17,1.28,0.35
			l-0.21,3.15c-0.45-0.27-0.95-0.39-1.59-0.39c-1.24,0-2,0.58-2,2.12v4.21h-3.34v-9.19h3.34v1.63
			C468.52,588.4,469.49,587.55,470.71,587.55z M477.61,594.62c1.05,0,1.46-0.91,1.46-2.31v-4.51h3.34v9.19h-3.34v-1.38
			c-0.49,1.03-1.5,1.63-2.89,1.63c-2.51,0-3.28-1.73-3.28-3.65v-5.79h3.34v4.91C476.25,593.94,476.6,594.62,477.61,594.62z
			 M488.51,593.82l-1.36-0.21c-2.23-0.35-3.4-1.07-3.4-2.95c0-1.81,1.59-3.11,4.16-3.11c2.66,0,4.23,1.18,4.41,3.09l-2.74,0.08
			c-0.12-0.66-0.7-1.07-1.73-1.07c-0.64,0-1.01,0.25-1.01,0.66c0,0.31,0.25,0.47,0.56,0.52l1.79,0.31c2.06,0.33,3.26,1.26,3.26,3.05
			c0,1.94-1.65,3.05-4.27,3.05c-2.54,0-4.43-1.01-4.62-3.24l2.91-0.04c0.12,0.76,0.74,1.2,1.75,1.2c0.74,0,1.13-0.27,1.13-0.64
			C489.36,594.17,489.15,593.92,488.51,593.82z M540.09,263.42h-21.72v-80.49h21.72V263.42z M524.86,311.46v232.27h-62.68V311.46
			H524.86z M494.65,1070.91l-16.89,27.89c6.51,52.3-14.89,71.99-26.7,82.84c-11.96,10.99-8.45,28.53-8.41,28.71
			c0.75,3.57-1.53,7.09-5.1,7.86c-0.47,0.1-0.94,0.15-1.4,0.15c-2.31,0-4.44-1.21-5.63-3.14c-0.38-0.62-0.67-1.31-0.83-2.06
			c-0.22-1.02-5.25-25.07,12.4-41.29c9.13-8.39,23.18-21.32,23.61-53.15l-1.17,1.93c-4.15,6.86-11.56,10.62-19.26,10.62
			c-4.22,0-8.53-1.13-12.44-3.5c-5.29-3.2-9.1-8.19-10.71-14.04c-0.05-0.17-0.08-0.34-0.13-0.51c-1.78,0.43-3.61,0.65-5.46,0.65
			c-3.92,0-7.92-0.99-11.61-3.03c-0.08-0.04-0.16-0.09-0.24-0.14c0.07,0.17,0.15,0.34,0.22,0.5c1.96,4.65,3.22,9.19,4,13.34
			c3.08,16.33-0.36,29.91-0.5,30.48c-0.92,3.55-4.54,5.67-8.08,4.75c-3.54-0.92-5.67-4.53-4.76-8.07v0
			c0.46-1.82,10.83-44.85-31.88-62.58c-1.77-0.73-3.13-2.19-3.74-4.01c-0.61-1.81-0.41-3.8,0.55-5.45c2.35-4.04,5.13-8.84,5.13-8.84
			c1.68-2.9,5.27-4.09,8.35-2.77c0.33,0.14,9.4,3.74,17.81-1.74c4.35-2.84,6.95-5.94,8.48-8.39c-11.86-5.67-38.58-18.39-44.08-20.67
			c-4.53-1.87-9.66,0.84-15.25,8.06l-1.05,1.36c-7.55,9.71-30.55,39.27-29.7,55.73c0.63,12.22,14.82,32.02,24.22,45.12
			c4.27,5.95,7.96,11.1,10.13,15c8.26,14.84,6.15,30.7,4.45,43.45c-0.38,2.84-0.73,5.53-0.97,8.08c-0.01,0.16-0.03,0.32-0.05,0.48
			c-0.3,3.45-3.2,6.06-6.6,6.06c-0.19,0-0.39-0.01-0.58-0.03c-3.65-0.32-6.35-3.53-6.03-7.18c0.26-2.99,0.66-5.99,1.08-9.16
			c1.59-11.92,3.23-24.25-2.89-35.25c-1.8-3.24-5.29-8.1-9.32-13.72c-11.52-16.07-25.86-36.06-26.68-52.17
			c-0.97-18.96,16.85-44.46,32.48-64.56l1.04-1.34c4.06-5.23,11.31-12.61,20.53-13.69l22.45-37.09c6.43-10.62,20.65-13.82,31.7-7.13
			c3.81,2.31,6.83,5.54,8.83,9.35c7.16-4.58,16.81-4.92,24.81-0.08c5.29,3.2,9.09,8.19,10.71,14.04c0.72,2.63,0.97,5.29,0.75,7.9
			c4.15,0.04,8.38,1.16,12.22,3.49c5.29,3.2,9.1,8.19,10.71,14.04c0.73,2.66,0.97,5.35,0.74,7.98c4.2,0.01,8.48,1.14,12.37,3.49
			c5.29,3.2,9.09,8.19,10.71,14.04C498.62,1059.55,497.8,1065.71,494.65,1070.91z M683.18,934.29l-16.89,27.89
			c6.51,52.3-14.89,71.99-26.7,82.84c-12.39,11.38-11.9,21.6-8.08,58.88c2.52,24.63,5.98,58.37,6.18,108.95
			c0.01,3.66-2.94,6.64-6.6,6.66c-0.01,0-0.02,0-0.03,0c-2.87,0-5.31-1.83-6.23-4.39c-0.25-0.69-0.39-1.44-0.4-2.22
			c-0.2-49.93-3.62-83.29-6.11-107.65c-3.77-36.84-5.49-53.65,12.3-70c9.13-8.39,23.18-21.32,23.61-53.15l-1.17,1.93
			c-4.15,6.86-11.56,10.62-19.26,10.62c-4.22,0-8.53-1.13-12.44-3.5c-5.29-3.2-9.09-8.19-10.71-14.04
			c-0.05-0.17-0.08-0.34-0.13-0.51c-1.78,0.43-3.61,0.65-5.46,0.65c-4.01,0-8.1-1.03-11.85-3.17c2.09,4.83,3.41,9.55,4.22,13.85
			c3.08,16.33-0.36,29.91-0.5,30.48c-0.92,3.54-4.54,5.67-8.08,4.75c-3.54-0.92-5.67-4.53-4.75-8.07
			c0.49-1.94,10.76-44.87-31.88-62.57c-1.77-0.73-3.13-2.19-3.74-4.01c-0.61-1.81-0.41-3.8,0.55-5.45c2.35-4.04,5.13-8.84,5.13-8.84
			c1.68-2.9,5.27-4.09,8.35-2.77c0.33,0.14,9.4,3.74,17.81-1.74c4.35-2.84,6.95-5.94,8.48-8.4c-11.86-5.67-38.58-18.39-44.08-20.67
			c-4.52-1.87-9.66,0.84-15.25,8.06l-1.05,1.35c-7.56,9.71-30.55,39.27-29.71,55.74c0.63,12.22,14.82,32.02,24.22,45.13
			c4.27,5.95,7.96,11.1,10.13,15c8.32,14.95,6.11,30.86,2.44,57.23c-3.66,26.3-9.18,66.04-7.86,129.58c0.02,0.84-0.13,1.64-0.4,2.38
			c-0.9,2.51-3.27,4.33-6.1,4.39c-0.05,0-0.09,0-0.14,0c-3.6,0-6.55-2.88-6.63-6.49c-1.35-64.6,4.27-104.97,7.98-131.69
			c3.51-25.22,5.27-37.88-0.89-48.95c-1.8-3.24-5.29-8.1-9.32-13.72c-11.52-16.07-25.86-36.06-26.68-52.17
			c-0.97-18.97,16.85-44.47,32.48-64.56l1.04-1.33c4.06-5.23,11.31-12.61,20.53-13.69l22.45-37.09c6.43-10.62,20.65-13.82,31.7-7.13
			c3.81,2.31,6.83,5.55,8.83,9.35c7.16-4.58,16.82-4.92,24.81-0.08c5.29,3.21,9.09,8.19,10.71,14.04c0.72,2.63,0.97,5.29,0.75,7.9
			c4.15,0.04,8.38,1.17,12.22,3.49c7.99,4.84,12.17,13.55,11.43,22.02c4.31,0.01,8.57,1.18,12.38,3.49
			c5.29,3.2,9.1,8.19,10.71,14.04C687.16,922.93,686.33,929.09,683.18,934.29z M761.72,852.8c0-1.79,0.93-2.97,2.49-2.97
			c1.77,0,2.54,1.28,2.89,3.28l0.43,2.58h0.14c0.76,0,1.22-0.35,1.22-1.15c0-0.74-0.47-1.11-1.15-1.26l0.21-3.09
			c2.02,0.29,3.42,1.79,3.42,4.56c0,2.43-1.05,4.23-3.61,4.23h-3.13c-0.47,0-0.68,0.21-0.68,0.56c0,0.27,0.04,0.47,0.14,0.74h-1.77
			c-0.33-0.47-0.6-1.13-0.6-2.08c0-1.13,0.58-2.02,1.63-2.33C762.28,855.32,761.72,854.27,761.72,852.8z M764.09,895.43h-1.77
			c-0.33-0.47-0.6-1.13-0.6-2.08c0-1.13,0.58-2.02,1.63-2.33c-1.07-0.54-1.63-1.59-1.63-3.05c0-1.79,0.93-2.97,2.49-2.97
			c1.77,0,2.54,1.28,2.89,3.28l0.43,2.58h0.14c0.76,0,1.22-0.35,1.22-1.15c0-0.74-0.47-1.11-1.15-1.26l0.21-3.09
			c2.02,0.29,3.42,1.79,3.42,4.56c0,2.43-1.05,4.23-3.61,4.23h-3.13c-0.47,0-0.68,0.21-0.68,0.56
			C763.95,894.95,763.99,895.16,764.09,895.43z M771.37,928.4c0,2.54-1.75,3.28-3.67,3.28h-5.77v-3.34h4.89
			c1.26,0,1.92-0.23,1.92-1.24c0-1.11-0.91-1.48-2.29-1.48h-4.51v-3.34h4.89c1.26,0,1.92-0.25,1.92-1.26c0-1.09-0.91-1.48-2.29-1.48
			h-4.51v-3.34h9.19v3.34h-1.38c1.01,0.5,1.63,1.48,1.63,2.87c0,1.63-0.74,2.47-1.81,2.87C770.59,925.77,771.37,926.86,771.37,928.4
			z M768.28,914.8l-0.08-2.74c0.66-0.12,1.07-0.7,1.07-1.73c0-0.64-0.25-1.01-0.66-1.01c-0.31,0-0.47,0.25-0.51,0.56l-0.31,1.79
			c-0.33,2.06-1.26,3.26-3.05,3.26c-1.94,0-3.05-1.65-3.05-4.27c0-2.54,1.01-4.43,3.24-4.62l0.04,2.91c-0.76,0.12-1.2,0.74-1.2,1.75
			c0,0.74,0.27,1.13,0.64,1.13c0.35,0,0.6-0.21,0.7-0.85l0.21-1.36c0.35-2.23,1.07-3.4,2.95-3.4c1.81,0,3.11,1.59,3.11,4.16
			C771.37,913.05,770.2,914.62,768.28,914.8z M764.4,945.8c0.35,0,0.6-0.21,0.7-0.85l0.21-1.36c0.35-2.23,1.07-3.4,2.95-3.4
			c1.81,0,3.11,1.59,3.11,4.16c0,2.66-1.17,4.23-3.09,4.41l-0.08-2.74c0.66-0.12,1.07-0.7,1.07-1.73c0-0.64-0.25-1.01-0.66-1.01
			c-0.31,0-0.47,0.25-0.51,0.56l-0.31,1.79c-0.33,2.06-1.26,3.26-3.05,3.26c-1.94,0-3.05-1.65-3.05-4.27c0-2.54,1.01-4.43,3.24-4.62
			l0.04,2.91c-0.76,0.12-1.2,0.74-1.2,1.75C763.76,945.41,764.03,945.8,764.4,945.8z M761.93,981.7h9.19v3.34h-9.19V981.7z
			 M766.61,1001.07h4.51v3.34h-9.19v-3.34h1.38c-1.03-0.49-1.63-1.5-1.63-2.89c0-2.52,1.73-3.28,3.65-3.28h5.79v3.34h-4.91
			c-1.24,0-1.92,0.35-1.92,1.36C764.3,1000.66,765.21,1001.07,766.61,1001.07z M771.12,904.89h-9.19v-3.34h9.19V904.89z
			 M771.12,881.78v2.39h-2.31v-2.39h-3.36c-0.78,0-1.09,0.37-1.09,1.05c0,0.41,0.08,0.87,0.31,1.42h-2.16
			c-0.52-0.7-0.82-1.5-0.82-2.76c0-1.55,0.64-3.01,2.8-3.01h4.33v-1.24h2.06l0.1,0.68c0.14,0.93,0.64,1.22,1.48,1.44l1.2,0.31v2.1
			H771.12z M761.93,876.34V873h9.19v3.34H761.93z M771.12,861.23v3.34h-1.59c1.09,0.45,1.83,1.48,1.83,3.03
			c0,2.7-2.14,4.08-4.84,4.08c-2.72,0-4.84-1.38-4.84-4.08c0-1.55,0.74-2.58,1.81-3.03h-4.86v-3.34H771.12z M768.28,1014.33
			l-0.08-2.74c0.66-0.12,1.07-0.7,1.07-1.73c0-0.64-0.25-1.01-0.66-1.01c-0.31,0-0.47,0.25-0.51,0.56l-0.31,1.79
			c-0.33,2.06-1.26,3.26-3.05,3.26c-1.94,0-3.05-1.65-3.05-4.27c0-2.54,1.01-4.43,3.24-4.62l0.04,2.91c-0.76,0.12-1.2,0.74-1.2,1.75
			c0,0.74,0.27,1.13,0.64,1.13c0.35,0,0.6-0.21,0.7-0.85l0.21-1.36c0.35-2.23,1.07-3.4,2.95-3.4c1.81,0,3.11,1.59,3.11,4.16
			C771.37,1012.58,770.2,1014.14,768.28,1014.33z M771.02,993.99l-3.15-0.21c0.27-0.45,0.39-0.95,0.39-1.59c0-1.24-0.58-2-2.12-2
			h-4.21v-3.34h9.19v3.34h-1.63c1.03,0.33,1.88,1.3,1.88,2.52C771.37,993.26,771.21,993.76,771.02,993.99z M774.92,985.06h-2.93
			v-3.38h2.93V985.06z M774.92,970.8l-8.64,3.22v0.08l8.64,3.22v3.48l-12.99-4.99v-3.69l12.99-4.99V970.8z M774.92,960.16
			l-12.99,5.17v-3.73l2.51-0.97v-5.07l-2.51-0.97v-3.52l12.99,5.17V960.16z M774.92,938.78h-12.99v-3.5h12.99V938.78z
			 M774.92,904.91h-2.93v-3.38h2.93V904.91z M774.92,899.73h-12.99v-3.34h12.99V899.73z M774.92,876.36h-2.93v-3.38h2.93V876.36z
			 M769.39,849.1l-0.12-3.36c1.44-0.21,2.78-0.99,2.78-3.01c0-1.92-1.42-3.03-3.63-3.03c-2.21,0-3.63,1.11-3.63,3.03
			c0,2.02,1.34,2.8,2.78,3.01l-0.14,3.36c-3.24-0.25-5.75-2.37-5.75-6.35c0-3.79,2.74-6.66,6.74-6.66c4,0,6.74,2.87,6.74,6.66
			C775.16,846.73,772.63,848.85,769.39,849.1z M774.92,825.69v2.49l-3.42-0.83v1.77l3.42,0.82v2.49l-3.42-0.82v1.83l-2.06-0.43
			v-1.88l-2.02-0.49v1.98l-2.06-0.43v-2.04l-3.42-0.8v-2.49l3.42,0.8v-1.77l-3.42-0.8v-2.49l3.42,0.8v-1.81l2.06,0.43v1.88
			l2.02,0.49v-1.98l2.06,0.43v2.02L774.92,825.69z M767.45,385.19c0,33.92-21.02,56.04-49.4,59.73
			c23.96,4.79,37.97,18.43,40.56,45.35c3.32,34.66,4.42,44.98,12.17,53.46h-63.41c-4.79-6.27-7.74-20.65-9.59-44.61
			c-1.84-26.54-13.27-32.44-34.29-32.44h-41.66v77.05h-61.57V311.46h117.24C737.58,311.46,767.45,339.84,767.45,385.19z
			 M648.3,80.51c19.04,0,29.13,13.03,29.13,28.49v5.75h-39.99c0.51,7.03,5.62,10.35,11.88,10.35c5.62,0,9.2-1.92,11.12-6.39
			l16.61,1.53c-2.94,13.03-13.42,20.31-28.49,20.31c-18.27,0-31.3-10.99-31.3-29.13C617.26,93.42,630.54,80.51,648.3,80.51z
			 M553.63,58.54h20.7v43.18l19.55-19.68h24.27l-23.51,22.36l24.27,34.62h-23.25l-16.35-23.12l-4.98,5.11v18.01h-20.7V58.54z
			 M578.41,243.74l-8.43-1.28c-13.8-2.17-21.08-6.64-21.08-18.27c0-11.24,9.84-19.29,25.81-19.29c16.48,0,26.19,7.28,27.34,19.16
			l-16.99,0.51c-0.77-4.09-4.34-6.64-10.73-6.64c-3.96,0-6.26,1.53-6.26,4.09c0,1.92,1.53,2.94,3.45,3.19l11.12,1.92
			c12.78,2.04,20.19,7.79,20.19,18.91c0,12.01-10.22,18.91-26.45,18.91c-15.71,0-27.47-6.26-28.62-20.06l18.01-0.26
			c0.77,4.73,4.6,7.41,10.86,7.41c4.6,0,7.03-1.66,7.03-3.96C583.65,245.92,582.38,244.38,578.41,243.74z M539.58,102.87v19.42
			c0,2.94,1.28,4.22,3.45,4.22c1.66,0,2.94-0.26,4.6-0.89v10.99c-2.94,2.04-7.03,3.71-12.9,3.71c-7.03,0-12.52-3.58-14.44-10.09
			c-3.32,6.64-9.84,10.09-18.91,10.09c-11.12,0-18.4-5.75-18.4-15.46c0-10.99,7.92-15.71,20.31-17.89l15.97-2.68v-0.89
			c0-4.73-2.17-7.54-7.16-7.54c-4.6,0-6.9,2.94-7.79,7.15l-19.16-1.28c1.79-12.52,11.12-21.21,28.24-21.21
			C528.46,80.51,539.58,87.03,539.58,102.87z M523.04,21.53c0-0.89,0.58-1.57,1.57-1.94c-0.82-0.54-1.32-1.32-1.32-2.33
			c0-1.96,1.86-3.15,4.43-3.15c1.11,0,2.16,0.27,2.95,0.74c0.56-0.76,1.57-1.42,2.58-1.42v2.51c-0.39,0-0.89,0.04-1.34,0.14
			c0.19,0.35,0.29,0.74,0.29,1.17c0,1.94-1.88,3.13-4.47,3.13c-0.74,0-1.4-0.08-2-0.27c-0.12,0.1-0.19,0.25-0.19,0.43
			c0,0.31,0.23,0.56,0.78,0.56h3.81c2.08,0,3.13,1.09,3.13,2.64c0,2.29-2.78,3.34-5.77,3.34c-2.62,0-4.89-0.52-4.89-2.25
			c0-0.8,0.72-1.44,1.75-1.53C523.53,23.06,523.04,22.32,523.04,21.53z M515.45,14.36h3.34v1.63c0.33-1.03,1.3-1.88,2.52-1.88
			c0.56,0,1.05,0.16,1.28,0.35l-0.21,3.15c-0.45-0.27-0.95-0.39-1.59-0.39c-1.24,0-2,0.58-2,2.12v4.21h-3.34V14.36z M509.1,14.11
			c2.99,0,5.03,2,5.03,4.84c0,2.87-2.04,4.84-5.03,4.84c-3.01,0-5.03-1.98-5.03-4.84C504.07,16.11,506.09,14.11,509.1,14.11z
			 M497.64,20.01h3.55v3.55h-3.55V20.01z M490.87,20.38l-1.36-0.21c-2.23-0.35-3.4-1.07-3.4-2.95c0-1.81,1.59-3.11,4.16-3.11
			c2.66,0,4.23,1.18,4.41,3.09l-2.74,0.08c-0.12-0.66-0.7-1.07-1.73-1.07c-0.64,0-1.01,0.25-1.01,0.66c0,0.31,0.25,0.47,0.56,0.52
			l1.79,0.31c2.06,0.33,3.26,1.26,3.26,3.05c0,1.94-1.65,3.05-4.27,3.05c-2.54,0-4.43-1.01-4.62-3.24l2.91-0.04
			c0.12,0.76,0.74,1.2,1.75,1.2c0.74,0,1.13-0.27,1.13-0.64C491.71,20.73,491.5,20.48,490.87,20.38z M475.26,14.36h3.34v4.91
			c0,1.24,0.35,1.92,1.36,1.92c1.05,0,1.46-0.91,1.46-2.31v-4.51h3.34v9.19h-3.34v-1.38c-0.5,1.03-1.5,1.63-2.89,1.63
			c-2.52,0-3.28-1.73-3.28-3.65V14.36z M467.2,14.36h3.34v1.63c0.33-1.03,1.3-1.88,2.51-1.88c0.56,0,1.05,0.16,1.28,0.35l-0.21,3.15
			c-0.45-0.27-0.95-0.39-1.59-0.39c-1.24,0-2,0.58-2,2.12v4.21h-3.34V14.36z M462.03,10.57h3.38v2.93h-3.38V10.57z M465.39,14.36
			v9.19h-3.34v-9.19H465.39z M451.15,10.57l3.22,8.64h0.08l3.22-8.64h3.48l-4.99,12.99h-3.69l-4.99-12.99H451.15z M436.54,10.57
			h3.92l5.17,12.99h-3.73l-0.97-2.52h-5.07l-0.97,2.52h-3.52L436.54,10.57z M423.59,20.38l-1.36-0.21c-2.23-0.35-3.4-1.07-3.4-2.95
			c0-1.81,1.59-3.11,4.16-3.11c2.66,0,4.23,1.18,4.41,3.09l-2.74,0.08c-0.12-0.66-0.7-1.07-1.73-1.07c-0.64,0-1.01,0.25-1.01,0.66
			c0,0.31,0.25,0.47,0.56,0.52l1.79,0.31c2.06,0.33,3.26,1.26,3.26,3.05c0,1.94-1.65,3.05-4.27,3.05c-2.54,0-4.43-1.01-4.62-3.24
			l2.91-0.04c0.12,0.76,0.74,1.2,1.75,1.2c0.74,0,1.13-0.27,1.13-0.64C424.44,20.73,424.23,20.48,423.59,20.38z M413.91,10.57h3.5
			v12.99h-3.5V10.57z M412.45,58.54h77.17v17.89h-27.98v62.6h-21.59v-62.6h-27.6V58.54z M435.71,227.26v19.42
			c0,2.94,1.28,4.22,3.45,4.22c1.66,0,2.94-0.26,4.6-0.89v10.99c-2.94,2.04-7.03,3.71-12.9,3.71c-7.03,0-12.52-3.58-14.44-10.09
			c-3.32,6.64-9.84,10.09-18.91,10.09c-11.12,0-18.4-5.75-18.4-15.46c0-10.99,7.92-15.71,20.31-17.89l15.97-2.68v-0.89
			c0-4.73-2.17-7.54-7.15-7.54c-4.6,0-6.9,2.94-7.79,7.15l-19.16-1.28c1.79-12.52,11.12-21.21,28.23-21.21
			C424.59,204.9,435.71,211.42,435.71,227.26z M393.17,14.36h3.34v1.38c0.5-1.01,1.48-1.63,2.87-1.63c1.63,0,2.47,0.74,2.87,1.81
			c0.49-1.03,1.59-1.81,3.13-1.81c2.54,0,3.28,1.75,3.28,3.67v5.77h-3.34v-4.89c0-1.26-0.23-1.92-1.24-1.92
			c-1.11,0-1.48,0.91-1.48,2.29v4.51h-3.34v-4.89c0-1.26-0.25-1.92-1.26-1.92c-1.09,0-1.48,0.91-1.48,2.29v4.51h-3.34V14.36z
			 M387.96,20.38l-1.36-0.21c-2.23-0.35-3.4-1.07-3.4-2.95c0-1.81,1.59-3.11,4.16-3.11c2.66,0,4.23,1.18,4.41,3.09l-2.74,0.08
			c-0.12-0.66-0.7-1.07-1.73-1.07c-0.64,0-1.01,0.25-1.01,0.66c0,0.31,0.25,0.47,0.56,0.52l1.79,0.31c2.06,0.33,3.26,1.26,3.26,3.05
			c0,1.94-1.65,3.05-4.27,3.05c-2.54,0-4.43-1.01-4.62-3.24l2.91-0.04c0.12,0.76,0.74,1.2,1.75,1.2c0.74,0,1.13-0.27,1.13-0.64
			C388.8,20.73,388.6,20.48,387.96,20.38z M378.5,10.57h3.38v2.93h-3.38V10.57z M373.37,10.57h3.34v12.99h-3.34V10.57z
			 M366.67,16.59c-0.74,0-1.11,0.47-1.26,1.15l-3.09-0.21c0.29-2.02,1.79-3.42,4.56-3.42c2.43,0,4.23,1.05,4.23,3.61v3.13
			c0,0.47,0.21,0.68,0.56,0.68c0.27,0,0.47-0.04,0.74-0.14v1.77c-0.47,0.33-1.13,0.6-2.08,0.6c-1.13,0-2.02-0.58-2.33-1.63
			c-0.54,1.07-1.59,1.63-3.05,1.63c-1.79,0-2.97-0.93-2.97-2.49c0-1.77,1.28-2.54,3.28-2.89l2.58-0.43V17.8
			C367.82,17.04,367.47,16.59,366.67,16.59z M354.22,14.61l0.68-0.1c0.93-0.14,1.22-0.64,1.44-1.48l0.31-1.2h2.1v2.54h2.39v2.31
			h-2.39v3.36c0,0.78,0.37,1.09,1.05,1.09c0.41,0,0.87-0.08,1.42-0.31v2.16c-0.7,0.52-1.5,0.82-2.76,0.82
			c-1.55,0-3.01-0.64-3.01-2.8v-4.33h-1.24V14.61z M349.95,10.57h3.38v2.93h-3.38V10.57z M348.7,139.03H328V58.54h20.7V139.03z
			 M338.2,14.36h3.34v1.59c0.45-1.09,1.48-1.83,3.03-1.83c2.7,0,4.08,2.14,4.08,4.84c0,2.72-1.38,4.84-4.08,4.84
			c-1.55,0-2.58-0.74-3.03-1.81v4.87h-3.34V14.36z M331.51,16.59c-0.74,0-1.11,0.47-1.26,1.15l-3.09-0.21
			c0.29-2.02,1.79-3.42,4.56-3.42c2.43,0,4.23,1.05,4.23,3.61v3.13c0,0.47,0.21,0.68,0.56,0.68c0.27,0,0.47-0.04,0.74-0.14v1.77
			c-0.47,0.33-1.13,0.6-2.08,0.6c-1.13,0-2.02-0.58-2.33-1.63c-0.54,1.07-1.59,1.63-3.05,1.63c-1.79,0-2.97-0.93-2.97-2.49
			c0-1.77,1.28-2.54,3.28-2.89l2.58-0.43V17.8C332.66,17.04,332.31,16.59,331.51,16.59z M319.72,10.32c3.98,0,6.1,2.54,6.35,5.77
			l-3.36,0.12c-0.21-1.44-0.99-2.78-3.01-2.78c-1.92,0-3.03,1.42-3.03,3.63s1.11,3.63,3.03,3.63c2.02,0,2.8-1.34,3.01-2.78
			l3.36,0.14c-0.25,3.24-2.37,5.75-6.35,5.75c-3.79,0-6.66-2.74-6.66-6.74S315.92,10.32,319.72,10.32z M306.63,20.01h3.55v3.55
			h-3.55V20.01z M262.3,14.36l1.65,5.22h0.08l1.34-5.22h2.66l1.34,5.22h0.08l1.65-5.22h2.92h0.09h3.23l1.65,5.22h0.08l1.34-5.22
			h2.66l1.34,5.22h0.08l1.65-5.22h2.92h0.08h3.23l1.65,5.22h0.08l1.34-5.22h2.66l1.34,5.22h0.08l1.65-5.22h3.01l-2.91,9.19h-3.28
			l-1.34-5.19h-0.08l-1.34,5.19h-3.28l-2.86-9.06l-2.86,9.06h-3.28l-1.34-5.19h-0.08l-1.34,5.19h-3.28l-2.86-9.06l-2.86,9.06h-3.28
			l-1.34-5.19h-0.08l-1.34,5.19h-3.28l-2.91-9.19H262.3z M261.19,80.51c19.04,0,29.13,13.03,29.13,28.49v5.75h-39.99
			c0.51,7.03,5.62,10.35,11.88,10.35c5.62,0,9.2-1.92,11.12-6.39l16.61,1.53c-2.94,13.03-13.42,20.31-28.49,20.31
			c-18.27,0-31.3-10.99-31.3-29.13C230.14,93.42,243.43,80.51,261.19,80.51z M137.77,58.54L150.54,109h0.51l13.29-50.47h19.55
			L197.18,109h0.51l12.78-50.47h20.95l-21.08,80.49h-23.12L173.8,88.18h-0.51l-13.41,50.85h-22.74l-21.08-80.49H137.77z
			 M32.3,311.46h175.49v51.62H94.97v44.61h84.8v50.88h-84.8v85.17H32.3V311.46z M19.25,827.59c0,0.39,0.04,0.89,0.14,1.34
			c0.35-0.19,0.74-0.29,1.18-0.29c1.94,0,3.13,1.88,3.13,4.47c0,0.74-0.08,1.4-0.27,2c0.1,0.12,0.25,0.19,0.43,0.19
			c0.31,0,0.56-0.23,0.56-0.78v-3.81c0-2.08,1.09-3.13,2.64-3.13c2.29,0,3.34,2.78,3.34,5.77c0,2.62-0.52,4.89-2.25,4.89
			c-0.8,0-1.44-0.72-1.53-1.75c-0.27,0.82-1.01,1.32-1.79,1.32c-0.89,0-1.57-0.58-1.94-1.57c-0.54,0.82-1.32,1.32-2.33,1.32
			c-1.96,0-3.15-1.86-3.15-4.43c0-1.11,0.27-2.16,0.74-2.95c-0.76-0.56-1.42-1.57-1.42-2.58H19.25z M13.87,895.42h2.93v3.38h-2.93
			V895.42z M13.87,909.68l8.64-3.22v-0.08l-8.64-3.22v-3.48l12.99,4.99v3.69l-12.99,4.99V909.68z M13.87,920.37l12.99-5.17v3.73
			l-2.51,0.97v5.07l2.51,0.97v3.52l-12.99-5.17V920.37z M13.87,943.42h12.99v3.5H13.87V943.42z M13.87,978.95h2.93v3.38h-2.93
			V978.95z M13.87,984.12h12.99v3.34H13.87V984.12z M13.87,1007.49h2.93v3.38h-2.93V1007.49z M19.4,1034.76l0.12,3.36
			c-1.44,0.21-2.78,0.99-2.78,3.01c0,1.92,1.42,3.03,3.63,3.03c2.21,0,3.63-1.11,3.63-3.03c0-2.02-1.34-2.8-2.78-3.01l0.14-3.36
			c3.24,0.25,5.75,2.37,5.75,6.35c0,3.79-2.74,6.66-6.74,6.66c-4,0-6.74-2.87-6.74-6.66C13.63,1037.13,16.16,1035.01,19.4,1034.76z"
			/>
		<polygon class="st5" points="438.43,14.59 438.35,14.59 436.87,18.42 439.92,18.42 		"/>
		<path class="st5" d="M648.05,95.33c-6.64,0-9.58,4.09-10.35,9.45h20.06C657.5,99.68,654.18,95.33,648.05,95.33z"/>
		<polygon class="st5" points="306.66,589.49 304.89,589.49 304.4,591.51 306.17,591.51 		"/>
		<path class="st5" d="M342.57,592.46c0,1.34,0.72,2.21,1.86,2.21c1.3,0,1.9-0.93,1.9-2.27c0-1.32-0.6-2.25-1.9-2.25
			c-1.13,0-1.86,0.87-1.86,2.19V592.46z"/>
		<path class="st5" d="M260.93,95.33c-6.64,0-9.58,4.09-10.35,9.45h20.06C270.38,99.68,267.06,95.33,260.93,95.33z"/>
		<polygon points="159.87,139.03 173.29,88.18 173.8,88.18 187.21,139.03 210.34,139.03 231.42,58.54 210.46,58.54 197.69,109 
			197.18,109 183.89,58.54 164.34,58.54 151.05,109 150.54,109 137.77,58.54 116.05,58.54 137.13,139.03 		"/>
		<path d="M261.44,140.56c15.08,0,25.55-7.28,28.49-20.31l-16.61-1.53c-1.92,4.47-5.49,6.39-11.12,6.39
			c-6.26,0-11.37-3.32-11.88-10.35h39.99V109c0-15.46-10.09-28.49-29.13-28.49c-17.76,0-31.05,12.9-31.05,30.92
			C230.14,129.57,243.17,140.56,261.44,140.56z M260.93,95.33c6.13,0,9.45,4.34,9.71,9.45h-20.06
			C251.35,99.42,254.29,95.33,260.93,95.33z"/>
		<path d="M296.96,84.73v9.84c14.31-0.38,21.59-5.62,21.59-18.14V58.54h-21.59V77.7h9.71C306.54,82.81,303.09,84.47,296.96,84.73z"
			/>
		<rect x="328" y="58.54" width="20.7" height="80.49"/>
		<rect x="359.94" y="58.54" width="20.7" height="80.49"/>
		<polygon points="440.05,139.03 461.64,139.03 461.64,76.42 489.62,76.42 489.62,58.54 412.45,58.54 412.45,76.42 440.05,76.42 		
			"/>
		<path d="M485.15,101.72l19.16,1.28c0.89-4.22,3.19-7.15,7.79-7.15c4.98,0,7.16,2.81,7.16,7.54v0.89l-15.97,2.68
			c-12.39,2.17-20.31,6.9-20.31,17.89c0,9.71,7.28,15.46,18.4,15.46c9.07,0,15.59-3.45,18.91-10.09
			c1.92,6.52,7.41,10.09,14.44,10.09c5.88,0,9.96-1.66,12.9-3.71v-10.99c-1.66,0.64-2.94,0.89-4.6,0.89c-2.17,0-3.45-1.28-3.45-4.22
			v-19.42c0-15.84-11.12-22.36-26.19-22.36C496.27,80.51,486.94,89.2,485.15,101.72z M519.26,115.26c0,7.41-4.73,11.75-10.6,11.75
			c-3.45,0-5.75-1.92-5.75-4.85c0-3.71,2.94-5.24,7.92-6.26l8.43-1.53V115.26z"/>
		<polygon points="574.33,121.01 579.31,115.9 595.66,139.03 618.92,139.03 594.64,104.4 618.15,82.04 593.88,82.04 574.33,101.72 
			574.33,58.54 553.63,58.54 553.63,139.03 574.33,139.03 		"/>
		<path d="M648.56,140.56c15.08,0,25.55-7.28,28.49-20.31l-16.61-1.53c-1.92,4.47-5.49,6.39-11.12,6.39
			c-6.26,0-11.37-3.32-11.88-10.35h39.99V109c0-15.46-10.09-28.49-29.13-28.49c-17.76,0-31.05,12.9-31.05,30.92
			C617.26,129.57,630.29,140.56,648.56,140.56z M648.05,95.33c6.13,0,9.45,4.34,9.71,9.45H637.7
			C638.46,99.42,641.4,95.33,648.05,95.33z"/>
		<polygon points="272.81,233.39 272.3,233.39 259.01,182.93 239.47,182.93 226.18,233.39 225.67,233.39 212.89,182.93 
			191.17,182.93 212.25,263.42 234.99,263.42 248.41,212.57 248.92,212.57 262.34,263.42 285.46,263.42 306.54,182.93 
			285.59,182.93 		"/>
		<path d="M312.16,182.93v80.49h20.7v-27.98c0-8.56,2.81-14.18,9.84-14.18c6.26,0,8.43,4.09,8.43,11.88v30.28h20.7v-35.77
			c0-11.88-4.98-22.74-20.57-22.74c-8.56,0-15.33,3.83-18.4,10.09v-32.07H312.16z"/>
		<path d="M381.28,226.11l19.16,1.28c0.89-4.22,3.19-7.15,7.79-7.15c4.98,0,7.15,2.81,7.15,7.54v0.89l-15.97,2.68
			c-12.39,2.17-20.31,6.9-20.31,17.89c0,9.71,7.28,15.46,18.4,15.46c9.07,0,15.59-3.45,18.91-10.09
			c1.92,6.52,7.41,10.09,14.44,10.09c5.88,0,9.97-1.66,12.9-3.71V250c-1.66,0.64-2.94,0.89-4.6,0.89c-2.17,0-3.45-1.28-3.45-4.22
			v-19.42c0-15.84-11.12-22.36-26.19-22.36C392.4,204.9,383.07,213.59,381.28,226.11z M415.39,239.65c0,7.41-4.73,11.75-10.6,11.75
			c-3.45,0-5.75-1.92-5.75-4.85c0-3.71,2.94-5.24,7.92-6.26l8.43-1.53V239.65z"/>
		<path d="M458.58,190.72l-1.92,7.41c-1.41,5.24-3.19,8.3-8.94,9.2l-4.22,0.64v12.78h7.67v26.83c0,13.42,9.07,17.38,18.65,17.38
			c7.79,0,12.78-1.92,17.12-5.11v-13.42c-3.45,1.41-6.26,1.92-8.82,1.92c-4.22,0-6.52-1.92-6.52-6.77v-20.83h14.82v-14.31h-14.82
			v-15.71H458.58z"/>
		<rect x="518.37" y="182.93" width="21.72" height="80.49"/>
		<path d="M576.62,252.05c-6.26,0-10.09-2.68-10.86-7.41l-18.01,0.26c1.15,13.8,12.9,20.06,28.62,20.06
			c16.23,0,26.45-6.9,26.45-18.91c0-11.12-7.41-16.86-20.19-18.91l-11.12-1.92c-1.92-0.26-3.45-1.28-3.45-3.19
			c0-2.56,2.3-4.09,6.26-4.09c6.39,0,9.96,2.56,10.73,6.64l16.99-0.51c-1.15-11.88-10.86-19.16-27.34-19.16
			c-15.97,0-25.81,8.05-25.81,19.29c0,11.63,7.28,16.1,21.08,18.27l8.43,1.28c3.96,0.64,5.24,2.17,5.24,4.34
			C583.65,250.39,581.22,252.05,576.62,252.05z"/>
		<polygon points="94.97,458.56 179.77,458.56 179.77,407.68 94.97,407.68 94.97,363.07 207.79,363.07 207.79,311.46 32.3,311.46 
			32.3,543.73 94.97,543.73 		"/>
		<path d="M252.4,543.73l17.33-44.98h90.7l17.33,44.98h66.73l-92.54-232.27H281.9l-92.54,232.27H252.4z M314.34,383.35h1.47
			l26.54,68.57h-54.56L314.34,383.35z"/>
		<rect x="462.18" y="311.46" width="62.68" height="232.27"/>
		<path d="M560.25,543.73h61.57v-77.05h41.66c21.01,0,32.44,5.9,34.29,32.44c1.84,23.96,4.79,38.34,9.59,44.61h63.41
			c-7.74-8.48-8.85-18.8-12.17-53.46c-2.58-26.91-16.59-40.56-40.56-45.35c28.39-3.69,49.4-25.81,49.4-59.73
			c0-45.35-29.86-73.74-89.96-73.74H560.25V543.73z M621.82,361.6h44.61c26.54,0,39.82,9.95,39.82,28.76
			c0,21.38-13.27,28.02-39.82,28.02h-44.61V361.6z"/>
		<polygon points="265.16,23.55 266.5,18.36 266.58,18.36 267.92,23.55 271.2,23.55 274.07,14.5 276.93,23.55 280.21,23.55 
			281.55,18.36 281.63,18.36 282.97,23.55 286.25,23.55 289.11,14.49 291.98,23.55 295.25,23.55 296.59,18.36 296.68,18.36 
			298.02,23.55 301.29,23.55 304.2,14.36 301.19,14.36 299.54,19.58 299.46,19.58 298.12,14.36 295.46,14.36 294.12,19.58 
			294.04,19.58 292.39,14.36 289.15,14.36 289.07,14.36 286.14,14.36 284.5,19.58 284.41,19.58 283.07,14.36 280.41,14.36 
			279.07,19.58 278.99,19.58 277.34,14.36 274.11,14.36 274.02,14.36 271.1,14.36 269.45,19.58 269.37,19.58 268.03,14.36 
			265.37,14.36 264.03,19.58 263.95,19.58 262.3,14.36 258.98,14.36 261.88,23.55 		"/>
		<rect x="306.63" y="20.01" width="3.55" height="3.55"/>
		<path d="M319.72,23.8c3.98,0,6.1-2.52,6.35-5.75l-3.36-0.14c-0.21,1.44-0.99,2.78-3.01,2.78c-1.92,0-3.03-1.42-3.03-3.63
			s1.11-3.63,3.03-3.63c2.02,0,2.8,1.34,3.01,2.78l3.36-0.12c-0.25-3.24-2.37-5.77-6.35-5.77c-3.79,0-6.66,2.74-6.66,6.74
			S315.92,23.8,319.72,23.8z"/>
		<path d="M330.08,18.38c-2,0.35-3.28,1.11-3.28,2.89c0,1.57,1.17,2.49,2.97,2.49c1.46,0,2.51-0.56,3.05-1.63
			c0.31,1.05,1.2,1.63,2.33,1.63c0.95,0,1.61-0.27,2.08-0.6v-1.77c-0.27,0.1-0.47,0.14-0.74,0.14c-0.35,0-0.56-0.21-0.56-0.68v-3.13
			c0-2.56-1.79-3.61-4.23-3.61c-2.76,0-4.27,1.4-4.56,3.42l3.09,0.21c0.14-0.68,0.52-1.15,1.26-1.15c0.8,0,1.15,0.45,1.15,1.22v0.14
			L330.08,18.38z M332.66,19.72c0,1.2-0.76,1.9-1.71,1.9c-0.56,0-0.93-0.31-0.93-0.78c0-0.6,0.47-0.85,1.28-1.01l1.36-0.25V19.72z"
			/>
		<path d="M341.54,21.99c0.45,1.07,1.48,1.81,3.03,1.81c2.7,0,4.08-2.12,4.08-4.84c0-2.7-1.38-4.84-4.08-4.84
			c-1.55,0-2.58,0.74-3.03,1.83v-1.59h-3.34v12.49h3.34V21.99z M341.54,18.9c0-1.32,0.72-2.19,1.86-2.19c1.3,0,1.9,0.93,1.9,2.25
			c0,1.34-0.6,2.27-1.9,2.27c-1.13,0-1.86-0.87-1.86-2.21V18.9z"/>
		<rect x="349.95" y="10.57" width="3.38" height="2.93"/>
		<rect x="349.97" y="14.36" width="3.34" height="9.19"/>
		<path d="M355.46,21c0,2.16,1.46,2.8,3.01,2.8c1.26,0,2.06-0.31,2.76-0.82v-2.16c-0.56,0.23-1.01,0.31-1.42,0.31
			c-0.68,0-1.05-0.31-1.05-1.09v-3.36h2.39v-2.31h-2.39v-2.54h-2.1l-0.31,1.2c-0.23,0.85-0.52,1.34-1.44,1.48l-0.68,0.1v2.06h1.24
			V21z"/>
		<path d="M365.25,18.38c-2,0.35-3.28,1.11-3.28,2.89c0,1.57,1.17,2.49,2.97,2.49c1.46,0,2.52-0.56,3.05-1.63
			c0.31,1.05,1.2,1.63,2.33,1.63c0.95,0,1.61-0.27,2.08-0.6v-1.77c-0.27,0.1-0.47,0.14-0.74,0.14c-0.35,0-0.56-0.21-0.56-0.68v-3.13
			c0-2.56-1.79-3.61-4.23-3.61c-2.76,0-4.27,1.4-4.56,3.42l3.09,0.21c0.14-0.68,0.52-1.15,1.26-1.15c0.8,0,1.15,0.45,1.15,1.22v0.14
			L365.25,18.38z M367.82,19.72c0,1.2-0.76,1.9-1.71,1.9c-0.56,0-0.93-0.31-0.93-0.78c0-0.6,0.47-0.85,1.28-1.01l1.36-0.25V19.72z"
			/>
		<rect x="373.37" y="10.57" width="3.34" height="12.99"/>
		<rect x="378.52" y="14.36" width="3.34" height="9.19"/>
		<rect x="378.5" y="10.57" width="3.38" height="2.93"/>
		<path d="M387.67,21.72c-1.01,0-1.63-0.43-1.75-1.2l-2.91,0.04c0.19,2.23,2.08,3.24,4.62,3.24c2.62,0,4.27-1.11,4.27-3.05
			c0-1.79-1.2-2.72-3.26-3.05l-1.79-0.31c-0.31-0.04-0.56-0.21-0.56-0.52c0-0.41,0.37-0.66,1.01-0.66c1.03,0,1.61,0.41,1.73,1.07
			l2.74-0.08c-0.19-1.92-1.75-3.09-4.41-3.09c-2.58,0-4.16,1.3-4.16,3.11c0,1.88,1.17,2.6,3.4,2.95l1.36,0.21
			c0.64,0.1,0.84,0.35,0.84,0.7C388.8,21.45,388.41,21.72,387.67,21.72z"/>
		<path d="M396.51,19.04c0-1.38,0.39-2.29,1.48-2.29c1.01,0,1.26,0.66,1.26,1.92v4.89h3.34v-4.51c0-1.38,0.37-2.29,1.48-2.29
			c1.01,0,1.24,0.66,1.24,1.92v4.89h3.34v-5.77c0-1.92-0.74-3.67-3.28-3.67c-1.55,0-2.64,0.78-3.13,1.81
			c-0.39-1.07-1.24-1.81-2.87-1.81c-1.38,0-2.37,0.62-2.87,1.63v-1.38h-3.34v9.19h3.34V19.04z"/>
		<rect x="413.91" y="10.57" width="3.5" height="12.99"/>
		<path d="M423.3,21.72c-1.01,0-1.63-0.43-1.75-1.2l-2.91,0.04c0.19,2.23,2.08,3.24,4.62,3.24c2.62,0,4.27-1.11,4.27-3.05
			c0-1.79-1.2-2.72-3.26-3.05l-1.79-0.31c-0.31-0.04-0.56-0.21-0.56-0.52c0-0.41,0.37-0.66,1.01-0.66c1.03,0,1.61,0.41,1.73,1.07
			l2.74-0.08c-0.19-1.92-1.75-3.09-4.41-3.09c-2.58,0-4.16,1.3-4.16,3.11c0,1.88,1.17,2.6,3.4,2.95l1.36,0.21
			c0.64,0.1,0.84,0.35,0.84,0.7C424.44,21.45,424.05,21.72,423.3,21.72z"/>
		<path d="M435.86,21.04h5.07l0.97,2.52h3.73l-5.17-12.99h-3.92l-5.17,12.99h3.52L435.86,21.04z M438.35,14.59h0.08l1.48,3.83h-3.05
			L438.35,14.59z"/>
		<polygon points="456.16,23.55 461.15,10.57 457.66,10.57 454.45,19.2 454.36,19.2 451.15,10.57 447.48,10.57 452.47,23.55 		"/>
		<rect x="462.05" y="14.36" width="3.34" height="9.19"/>
		<rect x="462.03" y="10.57" width="3.38" height="2.93"/>
		<path d="M470.54,19.35c0-1.55,0.76-2.12,2-2.12c0.64,0,1.13,0.12,1.59,0.39l0.21-3.15c-0.23-0.19-0.72-0.35-1.28-0.35
			c-1.22,0-2.18,0.85-2.51,1.88v-1.63h-3.34v9.19h3.34V19.35z"/>
		<path d="M478.54,23.8c1.38,0,2.39-0.6,2.89-1.63v1.38h3.34v-9.19h-3.34v4.51c0,1.4-0.41,2.31-1.46,2.31
			c-1.01,0-1.36-0.68-1.36-1.92v-4.91h-3.34v5.79C475.26,22.07,476.02,23.8,478.54,23.8z"/>
		<path d="M490.58,21.72c-1.01,0-1.63-0.43-1.75-1.2l-2.91,0.04c0.19,2.23,2.08,3.24,4.62,3.24c2.62,0,4.27-1.11,4.27-3.05
			c0-1.79-1.2-2.72-3.26-3.05l-1.79-0.31c-0.31-0.04-0.56-0.21-0.56-0.52c0-0.41,0.37-0.66,1.01-0.66c1.03,0,1.61,0.41,1.73,1.07
			l2.74-0.08c-0.19-1.92-1.75-3.09-4.41-3.09c-2.58,0-4.16,1.3-4.16,3.11c0,1.88,1.17,2.6,3.4,2.95l1.36,0.21
			c0.64,0.1,0.84,0.35,0.84,0.7C491.71,21.45,491.32,21.72,490.58,21.72z"/>
		<rect x="497.64" y="20.01" width="3.55" height="3.55"/>
		<path d="M509.1,23.8c2.99,0,5.03-1.98,5.03-4.84c0-2.84-2.04-4.84-5.03-4.84c-3.01,0-5.03,2-5.03,4.84
			C504.07,21.82,506.09,23.8,509.1,23.8z M509.1,16.63c1.15,0,1.67,0.95,1.67,2.33c0,1.38-0.52,2.33-1.67,2.33
			c-1.17,0-1.67-0.95-1.67-2.33C507.43,17.58,507.93,16.63,509.1,16.63z"/>
		<path d="M518.79,19.35c0-1.55,0.76-2.12,2-2.12c0.64,0,1.13,0.12,1.59,0.39l0.21-3.15c-0.23-0.19-0.72-0.35-1.28-0.35
			c-1.22,0-2.19,0.85-2.52,1.88v-1.63h-3.34v9.19h3.34V19.35z"/>
		<path d="M522.6,24.85c0,1.73,2.27,2.25,4.89,2.25c2.99,0,5.77-1.05,5.77-3.34c0-1.55-1.05-2.64-3.13-2.64h-3.81
			c-0.56,0-0.78-0.25-0.78-0.56c0-0.19,0.06-0.33,0.19-0.43c0.6,0.19,1.26,0.27,2,0.27c2.6,0,4.47-1.2,4.47-3.13
			c0-0.43-0.1-0.82-0.29-1.17c0.45-0.1,0.95-0.14,1.34-0.14v-2.51c-1.01,0-2.02,0.66-2.58,1.42c-0.78-0.47-1.83-0.74-2.95-0.74
			c-2.58,0-4.43,1.2-4.43,3.15c0,1.01,0.5,1.79,1.32,2.33c-0.99,0.37-1.57,1.05-1.57,1.94c0,0.78,0.49,1.53,1.32,1.79
			C523.33,23.41,522.6,24.05,522.6,24.85z M527.76,15.95c0.56,0,0.97,0.52,0.97,1.32c0,0.82-0.41,1.34-0.97,1.34
			s-0.97-0.52-0.97-1.34C526.79,16.46,527.2,15.95,527.76,15.95z M525.96,23.97h3.38c0.56,0,0.84,0.14,0.84,0.54
			c0,0.56-1.13,0.87-2.68,0.87c-1.24,0-2.16-0.19-2.16-0.84C525.35,24.17,525.59,23.97,525.96,23.97z"/>
		<path d="M300.03,591.51l-0.43,2.06h1.81l-0.8,3.42h2.49l0.8-3.42h1.77l-0.8,3.42h2.49l0.8-3.42h2.04l0.43-2.06h-1.98l0.5-2.02
			h1.88l0.43-2.06h-1.83l0.82-3.42h-2.49l-0.82,3.42h-1.77l0.83-3.42h-2.49l-0.83,3.42h-2.02l-0.43,2.06h1.98l-0.5,2.02H300.03z
			 M304.89,589.49h1.77l-0.5,2.02h-1.77L304.89,589.49z"/>
		<path d="M320.73,586.87c2.02,0,2.8,1.34,3.01,2.78l3.36-0.12c-0.25-3.24-2.37-5.77-6.35-5.77c-3.79,0-6.66,2.74-6.66,6.74
			c0,4,2.87,6.74,6.66,6.74c3.98,0,6.1-2.52,6.35-5.75l-3.36-0.14c-0.21,1.44-0.99,2.78-3.01,2.78c-1.92,0-3.03-1.42-3.03-3.63
			C317.7,588.29,318.81,586.87,320.73,586.87z"/>
		<path d="M331.11,591.82c-2,0.35-3.28,1.11-3.28,2.89c0,1.57,1.17,2.49,2.97,2.49c1.46,0,2.51-0.56,3.05-1.63
			c0.31,1.05,1.2,1.63,2.33,1.63c0.95,0,1.61-0.27,2.08-0.6v-1.77c-0.27,0.1-0.47,0.14-0.74,0.14c-0.35,0-0.56-0.21-0.56-0.68v-3.13
			c0-2.56-1.79-3.61-4.23-3.61c-2.76,0-4.27,1.4-4.56,3.42l3.09,0.21c0.14-0.68,0.51-1.15,1.26-1.15c0.8,0,1.15,0.45,1.15,1.22v0.14
			L331.11,591.82z M333.69,593.16c0,1.2-0.76,1.9-1.71,1.9c-0.56,0-0.93-0.31-0.93-0.78c0-0.6,0.47-0.85,1.28-1.01l1.36-0.25V593.16
			z"/>
		<path d="M339.23,587.8v12.49h3.34v-4.87c0.45,1.07,1.48,1.81,3.03,1.81c2.7,0,4.08-2.12,4.08-4.84c0-2.7-1.38-4.84-4.08-4.84
			c-1.55,0-2.58,0.74-3.03,1.83v-1.59H339.23z M344.43,590.15c1.3,0,1.9,0.93,1.9,2.25c0,1.34-0.6,2.27-1.9,2.27
			c-1.13,0-1.86-0.87-1.86-2.21v-0.12C342.57,591.02,343.29,590.15,344.43,590.15z"/>
		<rect x="351" y="587.8" width="3.34" height="9.19"/>
		<rect x="350.98" y="584.01" width="3.38" height="2.93"/>
		<path d="M357.68,585.26l-0.31,1.2c-0.23,0.85-0.51,1.34-1.44,1.48l-0.68,0.1v2.06h1.24v4.33c0,2.16,1.46,2.8,3.01,2.8
			c1.26,0,2.06-0.31,2.76-0.82v-2.16c-0.56,0.23-1.01,0.31-1.42,0.31c-0.68,0-1.05-0.31-1.05-1.09v-3.36h2.39v-2.31h-2.39v-2.54
			H357.68z"/>
		<path d="M366.27,591.82c-2,0.35-3.28,1.11-3.28,2.89c0,1.57,1.18,2.49,2.97,2.49c1.46,0,2.51-0.56,3.05-1.63
			c0.31,1.05,1.2,1.63,2.33,1.63c0.95,0,1.61-0.27,2.08-0.6v-1.77c-0.27,0.1-0.47,0.14-0.74,0.14c-0.35,0-0.56-0.21-0.56-0.68v-3.13
			c0-2.56-1.79-3.61-4.23-3.61c-2.76,0-4.27,1.4-4.56,3.42l3.09,0.21c0.14-0.68,0.51-1.15,1.26-1.15c0.8,0,1.15,0.45,1.15,1.22v0.14
			L366.27,591.82z M368.85,593.16c0,1.2-0.76,1.9-1.71,1.9c-0.56,0-0.93-0.31-0.93-0.78c0-0.6,0.47-0.85,1.28-1.01l1.36-0.25V593.16
			z"/>
		<rect x="374.39" y="584.01" width="3.34" height="12.99"/>
		<rect x="379.53" y="584.01" width="3.38" height="2.93"/>
		<rect x="379.55" y="587.8" width="3.34" height="9.19"/>
		<path d="M388.7,595.16c-1.01,0-1.63-0.43-1.75-1.2l-2.91,0.04c0.19,2.23,2.08,3.24,4.62,3.24c2.62,0,4.27-1.11,4.27-3.05
			c0-1.79-1.2-2.72-3.26-3.05l-1.79-0.31c-0.31-0.04-0.56-0.21-0.56-0.52c0-0.41,0.37-0.66,1.01-0.66c1.03,0,1.61,0.41,1.73,1.07
			l2.74-0.08c-0.19-1.92-1.75-3.09-4.41-3.09c-2.58,0-4.16,1.3-4.16,3.11c0,1.88,1.18,2.6,3.4,2.95l1.36,0.21
			c0.64,0.1,0.85,0.35,0.85,0.7C389.83,594.89,389.44,595.16,388.7,595.16z"/>
		<path d="M394.2,587.8v9.19h3.34v-4.51c0-1.38,0.39-2.29,1.48-2.29c1.01,0,1.26,0.66,1.26,1.92v4.89h3.34v-4.51
			c0-1.38,0.37-2.29,1.48-2.29c1.01,0,1.24,0.66,1.24,1.92v4.89h3.34v-5.77c0-1.92-0.74-3.67-3.28-3.67c-1.55,0-2.64,0.78-3.13,1.81
			c-0.39-1.07-1.24-1.81-2.87-1.81c-1.38,0-2.37,0.62-2.87,1.63v-1.38H394.2z"/>
		<rect x="413.27" y="584.01" width="3.5" height="12.99"/>
		<path d="M422.67,595.16c-1.01,0-1.63-0.43-1.75-1.2l-2.91,0.04c0.19,2.23,2.08,3.24,4.62,3.24c2.62,0,4.27-1.11,4.27-3.05
			c0-1.79-1.2-2.72-3.26-3.05l-1.79-0.31c-0.31-0.04-0.56-0.21-0.56-0.52c0-0.41,0.37-0.66,1.01-0.66c1.03,0,1.61,0.41,1.73,1.07
			l2.74-0.08c-0.19-1.92-1.75-3.09-4.41-3.09c-2.58,0-4.16,1.3-4.16,3.11c0,1.88,1.18,2.6,3.4,2.95l1.36,0.21
			c0.64,0.1,0.85,0.35,0.85,0.7C423.8,594.89,423.41,595.16,422.67,595.16z"/>
		<path d="M438.63,594.48l0.97,2.51h3.73l-5.17-12.99h-3.92l-5.17,12.99h3.52l0.97-2.51H438.63z M436.05,588.03h0.08l1.48,3.83
			h-3.05L436.05,588.03z"/>
		<polygon points="458.8,584.01 455.31,584.01 452.1,592.64 452.01,592.64 448.8,584.01 445.13,584.01 450.12,596.99 453.81,596.99 
					"/>
		<rect x="459.7" y="587.8" width="3.34" height="9.19"/>
		<rect x="459.68" y="584.01" width="3.38" height="2.93"/>
		<path d="M464.85,587.8v9.19h3.34v-4.21c0-1.55,0.76-2.12,2-2.12c0.64,0,1.13,0.12,1.59,0.39l0.21-3.15
			c-0.23-0.19-0.72-0.35-1.28-0.35c-1.22,0-2.19,0.85-2.52,1.88v-1.63H464.85z"/>
		<path d="M472.91,587.8v5.79c0,1.92,0.76,3.65,3.28,3.65c1.38,0,2.39-0.6,2.89-1.63v1.38h3.34v-9.19h-3.34v4.51
			c0,1.4-0.41,2.31-1.46,2.31c-1.01,0-1.36-0.68-1.36-1.92v-4.91H472.91z"/>
		<path d="M488.22,595.16c-1.01,0-1.63-0.43-1.75-1.2l-2.91,0.04c0.19,2.23,2.08,3.24,4.62,3.24c2.62,0,4.27-1.11,4.27-3.05
			c0-1.79-1.2-2.72-3.26-3.05l-1.79-0.31c-0.31-0.04-0.56-0.21-0.56-0.52c0-0.41,0.37-0.66,1.01-0.66c1.03,0,1.61,0.41,1.73,1.07
			l2.74-0.08c-0.19-1.92-1.75-3.09-4.41-3.09c-2.58,0-4.16,1.3-4.16,3.11c0,1.88,1.17,2.6,3.4,2.95l1.36,0.21
			c0.64,0.1,0.85,0.35,0.85,0.7C489.36,594.89,488.97,595.16,488.22,595.16z"/>
	</g>
</g>
</svg>
