<?xml version="1.0" encoding="utf-8"?>
<!-- Generator: Adobe Illustrator 23.1.1, SVG Export Plug-In . SVG Version: 6.00 Build 0)  -->
<svg version="1.1" xmlns="http://www.w3.org/2000/svg" xmlns:xlink="http://www.w3.org/1999/xlink" x="0px" y="0px"
	 viewBox="0 0 792 612" style="enable-background:new 0 0 792 612;" xml:space="preserve">
<style type="text/css">
	.st0{display:none;}
	.st1{display:inline;fill:#FFFFFF;}
	.st2{display:inline;}
	.st3{fill:#FFFFFF;stroke:#000000;stroke-width:16;stroke-linecap:round;stroke-linejoin:round;stroke-miterlimit:10;}
	.st4{fill:none;stroke:#000000;stroke-width:24;stroke-linejoin:round;stroke-miterlimit:10;}
	.st5{fill:#FFFFFF;}
	.st6{fill:#FFFFFF;stroke:#000000;stroke-width:17;stroke-linecap:round;stroke-miterlimit:10;}
	.st7{fill:#FFFFFF;stroke:#000000;stroke-width:17;stroke-miterlimit:10;}
	.st8{stroke:#000000;stroke-width:16.0572;stroke-linecap:round;stroke-miterlimit:10;}
	.st9{fill:#FFFFFF;stroke:#000000;stroke-width:13.497;stroke-linecap:round;stroke-linejoin:round;stroke-miterlimit:10;}
	.st10{stroke:#000000;stroke-width:18.3348;stroke-linecap:round;stroke-miterlimit:10;}
	.st11{fill:none;stroke:#000000;stroke-width:13.497;stroke-linecap:round;stroke-linejoin:round;stroke-miterlimit:10;}
	.st12{fill:#FFFFFF;stroke:#000000;stroke-width:14.6942;stroke-linecap:round;stroke-linejoin:round;stroke-miterlimit:10;}
	.st13{font-family:'FoundersGrotesk-Bold';}
	.st14{font-size:98.7009px;}
	.st15{letter-spacing:4;}
	.st16{font-size:20.6105px;}
	.st17{font-size:10.3052px;}
	.st18{font-size:19.2364px;}
	.st19{font-size:10px;}
	.st20{fill:none;stroke:#000000;stroke-width:13;stroke-linecap:round;stroke-linejoin:round;stroke-miterlimit:10;}
	.st21{fill:none;stroke:#000000;stroke-width:13;stroke-linejoin:round;stroke-miterlimit:10;}
	.st22{fill:url(#);stroke:#000000;stroke-width:13;stroke-linejoin:round;stroke-miterlimit:10;}
	.st23{fill:none;stroke:#000000;stroke-width:30.5612;stroke-linecap:round;stroke-linejoin:round;stroke-miterlimit:10;}
	.st24{fill:#FFFFFF;stroke:#000000;stroke-width:16.2993;stroke-linecap:round;stroke-linejoin:round;stroke-miterlimit:10;}
	.st25{fill:#FFFFFF;stroke:#000000;stroke-width:13.497;stroke-linecap:round;stroke-miterlimit:10;}
	.st26{fill:url(#);stroke:#000000;stroke-width:13.497;stroke-linecap:round;stroke-linejoin:round;stroke-miterlimit:10;}
	.st27{fill:#FFFFFF;stroke:#000000;stroke-width:11.7326;stroke-linecap:round;stroke-linejoin:round;stroke-miterlimit:10;}
	.st28{fill:#FFFFFF;stroke:#000000;stroke-width:13.2623;stroke-linecap:round;stroke-linejoin:round;stroke-miterlimit:10;}
	.st29{fill:#FFFFFF;stroke:#000000;stroke-width:13.2623;stroke-linecap:round;stroke-miterlimit:10;}
	.st30{stroke:#000000;stroke-width:4.5213;stroke-miterlimit:10;}
	.st31{fill:none;stroke:#000000;stroke-width:16;stroke-linecap:round;stroke-miterlimit:10;}
	.st32{fill:url(#);stroke:#000000;stroke-width:16;stroke-linecap:round;stroke-linejoin:round;stroke-miterlimit:10;}
	.st33{fill:#FFFFFF;stroke:#000000;stroke-width:16;stroke-linecap:round;stroke-miterlimit:10;}
	.st34{fill:none;stroke:#000000;stroke-width:16;stroke-linecap:round;stroke-linejoin:round;stroke-miterlimit:10;}
	.st35{fill:none;stroke:#000000;stroke-width:15.2344;stroke-linecap:round;stroke-linejoin:round;stroke-miterlimit:10;}
	.st36{fill:#FFFFFF;stroke:#000000;stroke-width:15.2344;stroke-linecap:round;stroke-linejoin:round;stroke-miterlimit:10;}
	.st37{fill:#FFFFFF;stroke:#000000;stroke-width:17;stroke-linecap:round;stroke-linejoin:round;stroke-miterlimit:10;}
	.st38{fill:none;stroke:#000000;stroke-width:9.9764;stroke-linecap:round;stroke-linejoin:round;stroke-miterlimit:10;}
	.st39{fill:none;stroke:#000000;stroke-width:9.3127;stroke-linejoin:round;stroke-miterlimit:10;}
	.st40{fill:url(#);}
	.st41{fill:none;stroke:#000000;stroke-width:8.3796;stroke-linecap:round;stroke-linejoin:round;stroke-miterlimit:10;}
	
		.st42{display:inline;fill:none;stroke:#000000;stroke-width:9.9764;stroke-linecap:round;stroke-linejoin:round;stroke-miterlimit:10;}
	.st43{display:inline;fill:none;stroke:#000000;stroke-width:9.3127;stroke-linejoin:round;stroke-miterlimit:10;}
	.st44{display:inline;fill:url(#);stroke:#000000;stroke-width:10;stroke-linejoin:round;stroke-miterlimit:10;}
	.st45{fill:#FFFFFF;stroke:#000000;stroke-width:14.7375;stroke-linecap:round;stroke-linejoin:round;stroke-miterlimit:10;}
	.st46{fill:none;stroke:#000000;stroke-width:14.7375;stroke-linecap:round;stroke-linejoin:round;stroke-miterlimit:10;}
	.st47{stroke:#000000;stroke-width:14.7375;stroke-linecap:round;stroke-linejoin:round;stroke-miterlimit:10;}
	.st48{fill:#FFFFFF;stroke:#000000;stroke-width:14.2911;stroke-linecap:round;stroke-linejoin:round;stroke-miterlimit:10;}
	.st49{fill:none;stroke:#000000;stroke-width:15;stroke-linecap:round;stroke-linejoin:round;stroke-miterlimit:10;}
	.st50{fill:#FFFFFF;stroke:#000000;stroke-width:15;stroke-linecap:round;stroke-linejoin:round;stroke-miterlimit:10;}
	.st51{fill:#FFFFFF;stroke:#000000;stroke-width:14.8467;stroke-linecap:round;stroke-linejoin:round;stroke-miterlimit:10;}
	.st52{stroke:#000000;stroke-width:20.1683;stroke-linecap:round;stroke-miterlimit:10;}
	.st53{fill:none;stroke:#000000;stroke-width:14.8467;stroke-linecap:round;stroke-linejoin:round;stroke-miterlimit:10;}
	.st54{fill:none;stroke:#000000;stroke-width:13.497;stroke-miterlimit:10;}
	.st55{fill:#FFFFFF;stroke:#000000;stroke-width:13.497;stroke-miterlimit:10;}
	.st56{fill:#FFFFFF;stroke:#000000;stroke-width:14.7439;stroke-linecap:round;stroke-miterlimit:10;}
	.st57{fill:#FFFFFF;stroke:#000000;stroke-width:14.7439;stroke-miterlimit:10;}
	.st58{stroke:#000000;stroke-width:13.9262;stroke-linecap:round;stroke-miterlimit:10;}
	.st59{fill:#FFFFFF;stroke:#000000;stroke-width:17.1072;stroke-linecap:round;stroke-linejoin:round;stroke-miterlimit:10;}
	.st60{stroke:#000000;stroke-width:17.1072;stroke-linecap:round;stroke-linejoin:round;stroke-miterlimit:10;}
	.st61{fill:#FFFFFF;stroke:#000000;stroke-width:15;stroke-linecap:square;stroke-linejoin:round;stroke-miterlimit:10;}
	.st62{fill:#FFFFFF;stroke:#000000;stroke-width:15;stroke-linejoin:round;stroke-miterlimit:10;}
	.st63{fill:#FFFFFF;stroke:#000000;stroke-width:14;stroke-linecap:round;stroke-linejoin:round;stroke-miterlimit:10;}
	.st64{fill:#FFFFFF;stroke:#000000;stroke-width:13;stroke-linecap:round;stroke-linejoin:round;stroke-miterlimit:10;}
	.st65{fill:#FFFFFF;stroke:#000000;stroke-width:15.2362;stroke-linecap:round;stroke-linejoin:round;stroke-miterlimit:10;}
	.st66{fill:#FFFFFF;stroke:#FFFFFF;stroke-width:3;stroke-miterlimit:10;}
	.st67{fill:#FFFFFF;stroke:#000000;stroke-width:13.3058;stroke-linecap:round;stroke-linejoin:round;stroke-miterlimit:10;}
	.st68{fill:#FFFFFF;stroke:#000000;stroke-width:15.2517;stroke-linecap:round;stroke-linejoin:round;stroke-miterlimit:10;}
	.st69{stroke:#000000;stroke-width:3;stroke-miterlimit:10;}
</style>
<g id="unexpanded" class="st0">
	<rect x="-3937.75" y="-955.56" class="st1" width="14663.41" height="9108.82"/>
	<g class="st2">
		<rect x="0.14" y="-612" class="st5" width="792" height="1224"/>
		<path class="st12" d="M527.45,408.41l-45.44-64.35c-6.85-9.71-20.73-11.7-30.99-4.45c-10.26,7.25-13.03,20.99-6.17,30.7
			l45.44,64.35"/>
		<path class="st12" d="M582.14,426.66c0,0-9.95-89.1-16.37-100.43c-6.55-11.55-14.51-13.79-25.63-15.7
			c-10.85-1.87-75.89-13.26-75.89-13.26c-10.81-1.96-21.74,8.58-23.81,20.02s4.62,24.61,15.44,26.57l60.56,10.97"/>
		<g>
			<g>
				<path class="st12" d="M349.59,45.62c-26.5,7.44-74.43,44.94-111.49,70.29s-56.21,61.26-45.72,98.6s20.28,82.23,29.92,95.76
					c9.65,13.53,87.06,82.53,214.72,46.68S594.86,221.88,596.05,205.3c1.19-16.58-13.82-60-24.3-97.34s-45.53-58.03-90.37-60.38
					C436.54,45.24,376.09,38.18,349.59,45.62z"/>
			</g>
			<path class="st12" d="M359.66,78.38c-36.94,10.14-137.77,96.53-123.34,149.07s80.78,126.89,190.82,96.67
				c110.04-30.21,129.12-128.02,114.69-180.56C527.4,91.02,396.59,68.24,359.66,78.38z"/>
			<path class="st12" d="M437.25,291.29l-35.57,9.77c-11.57,3.18-23.53-3.63-26.7-15.2l-9.77-35.57
				c-3.18-11.57,3.63-23.53,15.2-26.7l35.57-9.77c11.57-3.18,23.53,3.63,26.7,15.2l9.77,35.57
				C455.62,276.16,448.82,288.11,437.25,291.29z"/>
			<text transform="matrix(0.9643 -0.2648 0.2648 0.9643 299.9945 218.4256)" class="st13 st14 st15">N95</text>
			<line class="st4" x1="176.44" y1="148.56" x2="219.4" y2="166.5"/>
			<line class="st4" x1="521.05" y1="79.1" x2="538.99" y2="36.15"/>
			<line class="st4" x1="611.48" y1="246.81" x2="567.29" y2="232.2"/>
			<line class="st4" x1="292.65" y1="333.6" x2="278.05" y2="377.8"/>
		</g>
		<polyline class="st5" points="468.03,464.06 535.69,395.68 570.48,446.12 557.92,471.9 		"/>
		<path class="st12" d="M582.14,475.72c10.11-19.76,7.17-36.63-3.6-58.81c-5.02-10.34-19.52-42.4-33.4-69.24
			c-7.36-14.24-11.88-21.03-21.56-29.84c-8.15-7.42-54.42-56.23-54.42-56.23c-9.87-10.33-24.4-16.57-36-7.71
			c-11.6,8.86-9.8,24.57-1.15,37.11L486,353.09l20.68,59.88"/>
		<path class="st12" d="M506.67,412.97c0,0-9.39,27.38-30.28,27.38c-14.96,0-32.15-15.82-32.15-15.82s-3.16-28.84-10.34-53.58
			c-9.9-34.14-26.63-38.8-45.21-34.2c-10.41,2.57-10.44,11.21-9.44,21.13c3.24,32.14,7.17,58.84,10.77,89.69
			c-11.13,65.99,18.64,122.06,18.64,122.06l-2.54,26.14"/>
		<path class="st12" d="M582.14,475.72c-18.7,41.07-63.61,108.79-63.61,108.79l0.73,11.27"/>
		<text transform="matrix(0 -1 1 0 26.8615 443.1503)"><tspan x="0" y="0" class="st13 st16">www</tspan><tspan x="45.14" y="0" class="st13 st17"> </tspan><tspan x="46.99" y="0" class="st13 st16">.</tspan><tspan x="51.77" y="0" class="st13 st17"> </tspan><tspan x="53.63" y="0" class="st13 st16">Capitalism</tspan><tspan x="150.43" y="0" class="st13 st18"> </tspan><tspan x="153.9" y="0" class="st13 st16">Is</tspan><tspan x="168.88" y="0" class="st13 st18"> </tspan><tspan x="172.34" y="0" class="st13 st16">A</tspan><tspan x="186.6" y="0" class="st13 st17"> </tspan><tspan x="188.46" y="0" class="st13 st16">Virus</tspan><tspan x="236.15" y="0" class="st13 st17"> </tspan><tspan x="238.01" y="0" class="st13 st16">.</tspan><tspan x="242.79" y="0" class="st13 st17"> </tspan><tspan x="244.64" y="0" class="st13 st16">org</tspan></text>
		<text transform="matrix(0 1 -1 0 761.9287 209.1802)"><tspan x="0" y="0" class="st13 st16">#</tspan><tspan x="12.7" y="0" class="st13 st19"> </tspan><tspan x="14.5" y="0" class="st13 st16">Capitalism</tspan><tspan x="111.3" y="0" class="st13 st19"> </tspan><tspan x="113.1" y="0" class="st13 st16">Is</tspan><tspan x="128.09" y="0" class="st13 st19"> </tspan><tspan x="129.89" y="0" class="st13 st16">A</tspan><tspan x="144.15" y="0" class="st13 st19"> </tspan><tspan x="145.95" y="0" class="st13 st16">Virus</tspan></text>
	</g>
</g>
<g id="exp_trnsp_bg">
	<g>
	</g>
	<path d="M603.38,205.83c0.99-13.8-7-40.54-16.25-71.5c-2.81-9.4-5.72-19.13-8.31-28.35c-5.53-19.68-17.76-36.1-35.39-47.49
		c-0.2-0.13-0.41-0.25-0.61-0.38l7.24-17.33l-22.15-9.25l-6.77,16.2c-11.93-4.18-25.21-6.73-39.39-7.48
		c-10.23-0.54-21.1-1.31-32.61-2.12c-39.28-2.78-79.9-5.66-101.55,0.42c-21.65,6.08-54.83,29.68-86.92,52.51
		c-9.4,6.69-18.29,13.01-26.74,18.79c-14.83,10.15-26.96,22.01-35.69,34.82l-17.19-7.18l-9.25,22.15l15.4,6.43
		c-5.92,16.42-6.62,33.68-1.92,50.43c2.59,9.22,5.17,19.04,7.67,28.53c8.22,31.25,15.32,58.25,23.35,69.51
		c6.31,8.85,26.73,26.65,56.68,40.3l-6.35,19.21l22.79,7.53l5.96-18.05c18.8,6.08,42.56,10.92,70.66,10.92c2.48,0,5-0.04,7.55-0.12
		c1.58,14.03,3.27,27.3,4.92,40.24c1.35,10.58,2.74,21.51,4.07,32.84c-9.92,60.94,13.2,112.74,18.54,123.65l-2.33,24.02
		c-0.39,4.04,2.56,7.63,6.6,8.02c0.24,0.02,0.48,0.03,0.72,0.03c3.74,0,6.94-2.84,7.3-6.64l1.65-17.01l0.89-9.14
		c0.14-1.44-0.15-2.88-0.82-4.16c-0.29-0.54-28.48-54.59-17.88-117.4c0.12-0.69,0.13-1.38,0.05-2.08
		c-1.38-11.78-2.82-23.09-4.21-34.02c-2.34-18.38-4.55-35.74-6.55-55.55c-1.21-12,0.71-12.48,3.9-13.27
		c12.61-3.12,26.87-3.7,36.39,29.12c6.91,23.81,10.06,52.05,10.09,52.33c0.19,1.77,1.02,3.4,2.33,4.61
		c1.97,1.82,19.8,17.76,37.13,17.76c20.18,0,31.27-18.92,35.38-27.84c0.09-0.19,0.16-0.36,0.24-0.54c0.99-2.2,1.52-3.69,1.61-3.96
		c0.02-0.07,0.04-0.14,0.06-0.21c0.04-0.14,0.08-0.27,0.12-0.41c0.03-0.1,0.05-0.21,0.07-0.31c0.03-0.13,0.05-0.26,0.07-0.39
		c0.02-0.11,0.03-0.22,0.04-0.34c0.01-0.12,0.02-0.25,0.03-0.37c0.01-0.12,0.01-0.24,0.01-0.36c0-0.12,0-0.24-0.01-0.36
		c-0.01-0.12-0.02-0.25-0.03-0.37c-0.01-0.11-0.02-0.23-0.04-0.34c-0.02-0.13-0.04-0.26-0.07-0.39c-0.02-0.11-0.04-0.21-0.07-0.32
		c-0.03-0.14-0.08-0.27-0.12-0.41c-0.02-0.07-0.04-0.14-0.06-0.21l-20.68-59.88c-0.31-0.89-0.78-1.71-1.4-2.42l-53.71-61.76
		c-8.29-12.27-6.11-22.27-0.21-26.78c8.35-6.38,19.35-0.25,26.21,6.92c1.9,2,46.55,49.09,54.81,56.61c9,8.2,13.06,14.4,19.98,27.78
		c10.05,19.43,20.43,41.63,27.3,56.32c2.59,5.53,4.63,9.91,6.02,12.76c10.59,21.82,11.82,35.33,4.4,50.78
		c-0.24,0.49-0.48,0.99-0.73,1.48c-0.03,0.05-0.04,0.1-0.07,0.15c-0.02,0.05-0.05,0.1-0.08,0.15
		c-18.24,40.06-62.6,107.1-63.04,107.77c-0.89,1.34-1.31,2.93-1.21,4.53l0.73,11.27c0.25,3.89,3.48,6.88,7.32,6.88
		c0.16,0,0.32-0.01,0.48-0.02c4.05-0.26,7.12-3.75,6.86-7.8l-0.57-8.81c7.81-11.89,45.64-70.06,62.77-107.64
		c10.32-20.32,8.09-37.78,0.25-56.57c-2.8-24.6-10.56-88.54-16.88-99.68c-6.94-12.23-15.65-16.13-25.49-18.3
		c9.41-9.01,17.06-17.89,23.17-25.99c6.9-9.15,12.61-18.29,17.25-26.94l20.64,6.82l7.53-22.79l-18.1-5.98
		C601.03,219.22,603.01,210.89,603.38,205.83z M476.39,433c-8.62,0-19.72-7.66-25.19-12.16c-0.79-6.3-2.93-21.88-6.72-38.32
		l35.36,50.08C478.73,432.85,477.58,433,476.39,433z M478.25,355.38l1.27,1.45l19.31,55.94c-1.17,2.66-3.49,7.31-6.9,11.48
		l-41.08-58.18c-1.06-1.5-1.78-3.19-2.14-4.97c7.15-2.27,13.98-4.73,20.48-7.36L478.25,355.38z M464.63,339.71
		c-9.17,3.76-19.01,7.18-29.59,10.15c-0.49,0.14-0.97,0.26-1.46,0.39c-3.98-7.37-8.72-12.89-14.25-16.61
		c3.2-0.72,6.46-1.53,9.76-2.44c7.76-2.13,15.02-4.58,21.83-7.27L464.63,339.71z M428.7,248.05c-11.72,8.95-14.16,24.59-6.93,39.87
		l-22.04,6.05c-3.7,1.02-7.58,0.53-10.92-1.37c-3.34-1.9-5.74-4.99-6.75-8.69l-9.77-35.57c-2.1-7.65,2.41-15.57,10.06-17.67
		l35.57-9.77c1.27-0.35,2.55-0.52,3.83-0.52c2.46,0,4.89,0.64,7.09,1.89c3.34,1.9,5.74,4.99,6.75,8.69l3.33,12.13
		C435.32,243.99,431.87,245.63,428.7,248.05z M495.64,278.74c-11.22-11.73-20.95-21.99-21.17-22.22
		c-6.31-6.6-13.26-10.96-20.18-12.97l-4.53-16.48c-2.06-7.49-6.91-13.73-13.65-17.57c-6.75-3.84-14.59-4.82-22.08-2.77l-35.57,9.77
		c-15.46,4.24-24.58,20.27-20.34,35.73l9.77,35.57c2.06,7.49,6.91,13.73,13.65,17.57c4.44,2.53,9.36,3.82,14.33,3.82
		c2.58,0,5.18-0.35,7.74-1.05l27.08-7.44l9.93,11.42c-4.89,1.78-10.04,3.43-15.44,4.92c-58.9,16.17-100.62,0.04-125.25-16.34
		c-32.37-21.53-50.43-52.96-56.54-75.2c-5.52-20.09,9.3-50.5,40.65-83.43c22.38-23.51,57.51-51.11,77.56-56.62
		c5.42-1.49,12.62-2.15,20.85-2.15c22.2,0,51.95,4.82,74.74,11.22c43.77,12.3,72.03,30.88,77.55,50.97
		c6.11,22.24,6.63,58.49-10.21,93.53C518.61,251.36,509.51,265.5,495.64,278.74z M559.37,329.85c2.21,3.92,5.78,23.99,9.32,48.93
		c-5.29-11.09-11.2-23.22-17.03-34.48c-6.21-12-10.82-19.56-18.62-27.54c2.56,0.45,4.58,0.8,5.84,1.01
		C549.39,319.57,554.5,321.26,559.37,329.85z M588.72,204.77c-0.19,2.6-1.66,9.87-5.53,20.05l-12.14-4.01l-7.53,22.79l9.42,3.11
		c-3.97,7.14-8.85,14.82-14.84,22.76c-8.51,11.29-20.23,24.2-35.9,36.72c-4.38-4.42-10.24-10.47-16.36-16.82
		c15.32-14.64,25.38-30.31,31.94-43.96c15.79-32.86,19.96-71.66,11.14-103.78c-9.47-34.48-59.04-53.16-87.74-61.23
		c-39.11-10.99-82.62-14.82-103.46-9.1s-56.29,31.23-84.31,60.65c-20.56,21.6-53.64,62.97-44.17,97.45
		c8.82,32.12,32.21,63.36,62.57,83.55c18.7,12.44,46.26,24.76,82.57,25.49c-3.8,6.67-2.95,15.14-2.44,20.18
		c0.03,0.35,0.07,0.68,0.11,1.03c-28.92,0.74-53.16-3.99-72.03-10.09l4.03-12.19l-22.79-7.53l-3.62,10.96
		c-30.09-13.93-46.41-30.66-49.35-34.79c-6.47-9.07-13.91-37.36-21.1-64.72c-2.51-9.55-5.11-19.42-7.73-28.76
		c-3.86-13.75-3.32-27.56,1.31-40.8l14.02,5.85l9.25-22.15l-11.95-4.99c7.45-10.23,17.56-19.84,30.17-28.46
		c8.56-5.86,17.5-12.21,26.96-18.94c29.62-21.07,63.19-44.95,82.37-50.34c7.94-2.23,19.62-3.04,33.16-3.04
		c19.19,0,42.12,1.62,63.38,3.13c11.58,0.82,22.52,1.6,32.88,2.14c12.7,0.67,24.26,2.82,34.52,6.31l-5.53,13.24l22.15,9.25
		l4.95-11.86c13.63,9.33,23.14,22.21,27.59,38.08c2.62,9.34,5.55,19.13,8.37,28.59C581.15,165.64,589.52,193.66,588.72,204.77z"/>
	<polygon points="326.93,146.55 336.05,179.77 303.52,152.98 288.1,157.21 304.56,217.17 319.41,213.09 309.66,177.6 345.3,205.99 
		358.24,202.43 341.78,142.47 	"/>
	<path d="M376.11,131.82c-13.61,3.74-21.27,14.23-17.71,27.18c3.14,11.42,13.13,17.27,26.27,13.67c5.81-1.59,10.18-5.05,12-9.23
		c1.83,8.91-0.42,15.98-7.08,17.81c-4.47,1.23-7.81-0.11-9.41-4.07l-14.96,4.41c4.43,11.68,14.67,16.14,27.61,12.58
		c17.42-4.78,22.66-20.35,17.64-38.62C405.24,136.51,392.95,127.19,376.11,131.82z M384.16,160.01c-5.33,1.46-9.24-0.84-10.54-5.6
		c-1.25-4.57,0.93-8.54,6.26-10.01c5.14-1.41,9.07,0.99,10.3,5.46C391.48,154.62,389.29,158.6,384.16,160.01z"/>
	<path d="M442.59,135.37c-5.23,1.44-8.1,3.66-9.75,5.85c-0.15-2.42-0.44-5.71-0.96-8.33l25.7-7.06l-3.87-14.09l-37.59,10.32
		c2.43,9.98,4.58,26.38,5.4,34.95l15.83-3.12c0.9-2.7,2.67-4.83,6.47-5.87c5.33-1.46,9.19,1.78,10.47,6.44
		c1.41,5.14-1.08,9.1-5.94,10.43c-5.04,1.39-9-0.7-10.5-5.82l-15.8,3.21c3.31,13.93,13.99,20.01,29.88,15.64
		c13.23-3.63,20.86-14.22,17.2-27.55C465.91,138.68,456.48,131.55,442.59,135.37z"/>
	<polygon points="17.67,400.93 22.88,402.58 22.88,402.66 17.67,404 17.67,406.66 22.88,408 22.88,408.08 17.67,409.73 
		17.67,412.96 17.67,413.05 17.67,415.97 22.88,417.62 22.88,417.7 17.67,419.04 17.67,421.7 22.88,423.04 22.88,423.13 
		17.67,424.78 17.67,428.01 17.67,428.09 17.67,431.02 22.88,432.67 22.88,432.75 17.67,434.09 17.67,436.75 22.88,438.09 
		22.88,438.17 17.67,439.82 17.67,443.14 26.86,440.23 26.86,436.96 21.67,435.62 21.67,435.53 26.86,434.19 26.86,430.92 
		17.8,428.05 26.86,425.19 26.86,421.91 21.67,420.57 21.67,420.49 26.86,419.15 26.86,415.87 17.8,413.01 26.86,410.14 
		26.86,406.86 21.67,405.52 21.67,405.44 26.86,404.1 26.86,400.82 17.67,397.92 	"/>
	<rect x="23.32" y="391.94" width="3.55" height="3.55"/>
	<path d="M21.36,376.05l-0.14,3.36c1.44,0.21,2.78,0.99,2.78,3.01c0,1.92-1.42,3.03-3.63,3.03c-2.21,0-3.63-1.11-3.63-3.03
		c0-2.02,1.34-2.8,2.78-3.01l-0.12-3.36c-3.24,0.25-5.77,2.37-5.77,6.35c0,3.79,2.74,6.66,6.74,6.66c4,0,6.74-2.87,6.74-6.66
		C27.11,378.42,24.59,376.3,21.36,376.05z"/>
	<path d="M24.16,366.18h-3.13c-2.56,0-3.61,1.79-3.61,4.23c0,2.76,1.4,4.27,3.42,4.56l0.21-3.09c-0.68-0.14-1.15-0.52-1.15-1.26
		c0-0.8,0.45-1.15,1.22-1.15h0.14l0.43,2.58c0.35,2,1.11,3.28,2.89,3.28c1.57,0,2.49-1.17,2.49-2.97c0-1.46-0.56-2.52-1.63-3.05
		c1.05-0.31,1.63-1.2,1.63-2.33c0-0.95-0.27-1.61-0.6-2.08H24.7c0.1,0.27,0.14,0.47,0.14,0.74
		C24.84,365.97,24.64,366.18,24.16,366.18z M24.92,371.17c0,0.56-0.31,0.93-0.78,0.93c-0.6,0-0.85-0.47-1.01-1.28l-0.25-1.36h0.14
		C24.22,369.46,24.92,370.22,24.92,371.17z"/>
	<path d="M27.11,357.54c0-2.7-2.12-4.08-4.84-4.08c-2.7,0-4.84,1.38-4.84,4.08c0,1.55,0.74,2.58,1.83,3.03h-1.59v3.34h12.49v-3.34
		h-4.86C26.37,360.12,27.11,359.09,27.11,357.54z M22.33,360.57H22.2c-1.32,0-2.19-0.72-2.19-1.86c0-1.3,0.93-1.9,2.25-1.9
		c1.34,0,2.27,0.6,2.27,1.9C24.53,359.85,23.67,360.57,22.33,360.57z"/>
	<rect x="13.87" y="348.79" width="2.93" height="3.38"/>
	<rect x="17.67" y="348.81" width="9.19" height="3.34"/>
	<path d="M26.28,340.89h-2.16c0.23,0.56,0.31,1.01,0.31,1.42c0,0.68-0.31,1.05-1.09,1.05h-3.36v-2.39h-2.31v2.39h-2.54v2.1l1.2,0.31
		c0.85,0.23,1.34,0.52,1.48,1.44l0.1,0.68h2.06v-1.24h4.33c2.16,0,2.8-1.46,2.8-3.01C27.11,342.4,26.8,341.59,26.28,340.89z"/>
	<path d="M24.16,331.02h-3.13c-2.56,0-3.61,1.79-3.61,4.23c0,2.76,1.4,4.27,3.42,4.56l0.21-3.09c-0.68-0.14-1.15-0.52-1.15-1.26
		c0-0.8,0.45-1.15,1.22-1.15h0.14l0.43,2.58c0.35,2,1.11,3.28,2.89,3.28c1.57,0,2.49-1.17,2.49-2.97c0-1.46-0.56-2.52-1.63-3.05
		c1.05-0.31,1.63-1.2,1.63-2.33c0-0.95-0.27-1.61-0.6-2.08H24.7c0.1,0.27,0.14,0.47,0.14,0.74
		C24.84,330.81,24.64,331.02,24.16,331.02z M24.92,336.01c0,0.56-0.31,0.93-0.78,0.93c-0.6,0-0.85-0.47-1.01-1.28l-0.25-1.36h0.14
		C24.22,334.3,24.92,335.06,24.92,336.01z"/>
	<rect x="13.87" y="325.41" width="12.99" height="3.34"/>
	<rect x="17.67" y="320.26" width="9.19" height="3.34"/>
	<rect x="13.87" y="320.24" width="2.93" height="3.38"/>
	<path d="M24.06,310.22c-1.79,0-2.72,1.2-3.05,3.26l-0.31,1.79c-0.04,0.31-0.21,0.56-0.52,0.56c-0.41,0-0.66-0.37-0.66-1.01
		c0-1.03,0.41-1.61,1.07-1.73l-0.08-2.74c-1.92,0.19-3.09,1.75-3.09,4.41c0,2.58,1.3,4.16,3.11,4.16c1.88,0,2.6-1.17,2.95-3.4
		l0.21-1.36c0.1-0.64,0.35-0.85,0.7-0.85c0.37,0,0.64,0.39,0.64,1.13c0,1.01-0.43,1.63-1.2,1.75l0.04,2.91
		c2.23-0.19,3.24-2.08,3.24-4.62C27.11,311.87,26,310.22,24.06,310.22z"/>
	<path d="M17.42,302.74c0,1.38,0.62,2.37,1.63,2.87h-1.38v3.34h9.19v-3.34h-4.51c-1.38,0-2.29-0.39-2.29-1.48
		c0-1.01,0.66-1.26,1.92-1.26h4.89v-3.34h-4.51c-1.38,0-2.29-0.37-2.29-1.48c0-1.01,0.66-1.24,1.92-1.24h4.89v-3.34h-5.77
		c-1.92,0-3.67,0.74-3.67,3.28c0,1.55,0.78,2.64,1.81,3.13C18.16,300.27,17.42,301.11,17.42,302.74z"/>
	<rect x="13.87" y="284.71" width="12.99" height="3.5"/>
	<path d="M23.83,280.57l0.04,2.91c2.23-0.19,3.24-2.08,3.24-4.62c0-2.62-1.11-4.27-3.05-4.27c-1.79,0-2.72,1.2-3.05,3.26l-0.31,1.79
		c-0.04,0.31-0.21,0.56-0.52,0.56c-0.41,0-0.66-0.37-0.66-1.01c0-1.03,0.41-1.61,1.07-1.73l-0.08-2.74
		c-1.92,0.19-3.09,1.75-3.09,4.41c0,2.58,1.3,4.16,3.11,4.16c1.88,0,2.6-1.18,2.95-3.4l0.21-1.36c0.1-0.64,0.35-0.85,0.7-0.85
		c0.37,0,0.64,0.39,0.64,1.13C25.03,279.82,24.59,280.44,23.83,280.57z"/>
	<path d="M13.87,265.58l12.99,5.17v-3.52l-2.51-0.97v-5.07l2.51-0.97v-3.73l-12.99,5.17V265.58z M17.89,263.69l3.83-1.48v3.05
		l-3.83-1.48V263.69z"/>
	<polygon points="13.87,250.97 13.87,254.64 26.86,249.65 26.86,245.96 13.87,240.97 13.87,244.46 22.51,247.67 22.51,247.75 	"/>
	<rect x="17.67" y="236.73" width="9.19" height="3.34"/>
	<rect x="13.87" y="236.71" width="2.93" height="3.38"/>
	<path d="M19.3,231.58h-1.63v3.34h9.19v-3.34h-4.21c-1.55,0-2.12-0.76-2.12-2c0-0.64,0.12-1.13,0.39-1.59l-3.15-0.21
		c-0.19,0.23-0.35,0.72-0.35,1.28C17.42,230.28,18.27,231.25,19.3,231.58z"/>
	<path d="M22.57,223.52h-4.91v3.34h5.79c1.92,0,3.65-0.76,3.65-3.28c0-1.38-0.6-2.39-1.63-2.89h1.38v-3.34h-9.19v3.34h4.51
		c1.4,0,2.31,0.41,2.31,1.46C24.49,223.17,23.81,223.52,22.57,223.52z"/>
	<path d="M20.53,216.02c1.88,0,2.6-1.18,2.95-3.4l0.21-1.36c0.1-0.64,0.35-0.85,0.7-0.85c0.37,0,0.64,0.39,0.64,1.13
		c0,1.01-0.43,1.63-1.2,1.75l0.04,2.91c2.23-0.19,3.24-2.08,3.24-4.62c0-2.62-1.11-4.27-3.05-4.27c-1.79,0-2.72,1.2-3.05,3.26
		l-0.31,1.79c-0.04,0.31-0.21,0.56-0.52,0.56c-0.41,0-0.66-0.37-0.66-1.01c0-1.03,0.41-1.61,1.07-1.73l-0.08-2.74
		c-1.92,0.19-3.09,1.75-3.09,4.41C17.42,214.43,18.72,216.02,20.53,216.02z"/>
	<rect x="23.32" y="200.93" width="3.55" height="3.55"/>
	<path d="M22.26,198.04c2.87,0,4.84-2.02,4.84-5.03c0-2.99-1.98-5.03-4.84-5.03c-2.84,0-4.84,2.04-4.84,5.03
		C17.42,196.02,19.42,198.04,22.26,198.04z M22.26,191.34c1.38,0,2.33,0.52,2.33,1.67c0,1.17-0.95,1.67-2.33,1.67
		c-1.38,0-2.33-0.49-2.33-1.67C19.94,191.86,20.88,191.34,22.26,191.34z"/>
	<path d="M17.77,179.53c-0.19,0.23-0.35,0.72-0.35,1.28c0,1.22,0.85,2.19,1.88,2.52h-1.63v3.34h9.19v-3.34h-4.21
		c-1.55,0-2.12-0.76-2.12-2c0-0.64,0.12-1.13,0.39-1.59L17.77,179.53z"/>
	<path d="M27.07,168.86c-1.55,0-2.64,1.05-2.64,3.13v3.81c0,0.56-0.25,0.78-0.56,0.78c-0.19,0-0.33-0.06-0.43-0.19
		c0.19-0.6,0.27-1.26,0.27-2c0-2.6-1.2-4.47-3.13-4.47c-0.43,0-0.82,0.1-1.18,0.29c-0.1-0.45-0.14-0.95-0.14-1.34h-2.52
		c0,1.01,0.66,2.02,1.42,2.58c-0.47,0.78-0.74,1.83-0.74,2.95c0,2.58,1.2,4.43,3.15,4.43c1.01,0,1.79-0.49,2.33-1.32
		c0.37,0.99,1.05,1.57,1.94,1.57c0.78,0,1.53-0.49,1.79-1.32c0.08,1.03,0.72,1.75,1.53,1.75c1.73,0,2.25-2.27,2.25-4.89
		C30.41,171.64,29.36,168.86,27.07,168.86z M20.57,175.33c-0.8,0-1.32-0.41-1.32-0.97c0-0.56,0.52-0.97,1.32-0.97
		c0.82,0,1.34,0.41,1.34,0.97C21.91,174.92,21.4,175.33,20.57,175.33z M27.83,176.77c-0.35,0-0.56-0.25-0.56-0.62v-3.38
		c0-0.56,0.14-0.85,0.54-0.85c0.56,0,0.87,1.13,0.87,2.68C28.68,175.84,28.49,176.77,27.83,176.77z"/>
	<path d="M769.43,210.42v1.98l-2.02-0.49v-1.88l-2.06-0.43v1.81l-3.42-0.8v2.49l3.42,0.8v1.77l-3.42-0.8v2.49l3.42,0.8v2.04
		l2.06,0.43v-1.98l2.02,0.49v1.88l2.06,0.43v-1.83l3.42,0.82v-2.49l-3.42-0.82v-1.77l3.42,0.83v-2.49l-3.42-0.82v-2.02
		L769.43,210.42z M769.43,216.66l-2.02-0.49v-1.77l2.02,0.5V216.66z"/>
	<path d="M768.42,224.09c-4,0-6.74,2.87-6.74,6.66c0,3.98,2.51,6.1,5.75,6.35l0.14-3.36c-1.44-0.21-2.78-0.99-2.78-3.01
		c0-1.92,1.42-3.03,3.63-3.03s3.63,1.11,3.63,3.03c0,2.02-1.34,2.8-2.78,3.01l0.12,3.36c3.24-0.25,5.77-2.37,5.77-6.35
		C775.16,226.95,772.42,224.09,768.42,224.09z"/>
	<path d="M761.72,246.18c0,0.95,0.27,1.61,0.6,2.08h1.77c-0.1-0.27-0.14-0.47-0.14-0.74c0-0.35,0.21-0.56,0.68-0.56h3.13
		c2.56,0,3.61-1.79,3.61-4.23c0-2.76-1.4-4.27-3.42-4.56l-0.21,3.09c0.68,0.14,1.15,0.52,1.15,1.26c0,0.8-0.45,1.15-1.22,1.15h-0.14
		l-0.43-2.58c-0.35-2-1.11-3.28-2.89-3.28c-1.57,0-2.49,1.18-2.49,2.97c0,1.46,0.56,2.52,1.63,3.05
		C762.3,244.16,761.72,245.05,761.72,246.18z M764.65,241.05c0.6,0,0.85,0.47,1.01,1.28l0.25,1.36h-0.14c-1.2,0-1.9-0.76-1.9-1.71
		C763.87,241.42,764.18,241.05,764.65,241.05z"/>
	<path d="M761.68,255.6c0,2.7,2.12,4.08,4.84,4.08c2.7,0,4.84-1.38,4.84-4.08c0-1.55-0.74-2.58-1.83-3.03h1.59v-3.34h-12.49v3.34
		h4.86C762.42,253.03,761.68,254.06,761.68,255.6z M766.46,252.57h0.12c1.32,0,2.18,0.72,2.18,1.86c0,1.3-0.93,1.9-2.25,1.9
		c-1.34,0-2.27-0.6-2.27-1.9C764.26,253.29,765.12,252.57,766.46,252.57z"/>
	<rect x="771.99" y="260.98" width="2.93" height="3.38"/>
	<rect x="761.93" y="261" width="9.19" height="3.34"/>
	<path d="M773.66,267.68l-1.2-0.31c-0.85-0.23-1.34-0.52-1.48-1.44l-0.1-0.68h-2.06v1.24h-4.33c-2.16,0-2.8,1.46-2.8,3.01
		c0,1.26,0.31,2.06,0.82,2.76h2.16c-0.23-0.56-0.31-1.01-0.31-1.42c0-0.68,0.31-1.05,1.09-1.05h3.36v2.39h2.31v-2.39h2.54V267.68z"
		/>
	<path d="M764.63,282.13h3.13c2.56,0,3.61-1.79,3.61-4.23c0-2.76-1.4-4.27-3.42-4.56l-0.21,3.09c0.68,0.14,1.15,0.52,1.15,1.26
		c0,0.8-0.45,1.15-1.22,1.15h-0.14l-0.43-2.58c-0.35-2-1.11-3.28-2.89-3.28c-1.57,0-2.49,1.18-2.49,2.97c0,1.46,0.56,2.51,1.63,3.05
		c-1.05,0.31-1.63,1.2-1.63,2.33c0,0.95,0.27,1.61,0.6,2.08h1.77c-0.1-0.27-0.14-0.47-0.14-0.74
		C763.95,282.33,764.16,282.13,764.63,282.13z M763.87,277.14c0-0.56,0.31-0.93,0.78-0.93c0.6,0,0.85,0.47,1.01,1.28l0.25,1.36
		h-0.14C764.57,278.85,763.87,278.09,763.87,277.14z"/>
	<rect x="761.93" y="284.39" width="12.99" height="3.34"/>
	<rect x="761.93" y="289.55" width="9.19" height="3.34"/>
	<rect x="771.99" y="289.53" width="2.93" height="3.38"/>
	<path d="M768.26,294.22c-1.88,0-2.6,1.18-2.95,3.4l-0.21,1.36c-0.1,0.64-0.35,0.85-0.7,0.85c-0.37,0-0.64-0.39-0.64-1.13
		c0-1.01,0.43-1.63,1.2-1.75l-0.04-2.91c-2.23,0.19-3.24,2.08-3.24,4.62c0,2.62,1.11,4.27,3.05,4.27c1.79,0,2.72-1.2,3.05-3.26
		l0.31-1.79c0.04-0.31,0.21-0.56,0.52-0.56c0.41,0,0.66,0.37,0.66,1.01c0,1.03-0.41,1.61-1.07,1.73l0.08,2.74
		c1.92-0.19,3.09-1.75,3.09-4.41C771.37,295.81,770.07,294.22,768.26,294.22z"/>
	<path d="M771.37,310.41c0-1.38-0.62-2.37-1.63-2.87h1.38v-3.34h-9.19v3.34h4.51c1.38,0,2.29,0.39,2.29,1.48
		c0,1.01-0.66,1.26-1.92,1.26h-4.89v3.34h4.51c1.38,0,2.29,0.37,2.29,1.48c0,1.01-0.66,1.24-1.92,1.24h-4.89v3.34h5.77
		c1.92,0,3.67-0.74,3.67-3.28c0-1.55-0.78-2.64-1.81-3.13C770.63,312.88,771.37,312.03,771.37,310.41z"/>
	<rect x="761.93" y="323.27" width="12.99" height="3.5"/>
	<path d="M764.96,330.92l-0.04-2.91c-2.23,0.19-3.24,2.08-3.24,4.62c0,2.62,1.11,4.27,3.05,4.27c1.79,0,2.72-1.2,3.05-3.26
		l0.31-1.79c0.04-0.31,0.21-0.56,0.52-0.56c0.41,0,0.66,0.37,0.66,1.01c0,1.03-0.41,1.61-1.07,1.73l0.08,2.74
		c1.92-0.19,3.09-1.75,3.09-4.41c0-2.58-1.3-4.16-3.11-4.16c-1.88,0-2.6,1.18-2.95,3.4l-0.21,1.36c-0.1,0.64-0.35,0.85-0.7,0.85
		c-0.37,0-0.64-0.39-0.64-1.13C763.76,331.66,764.2,331.04,764.96,330.92z"/>
	<path d="M761.93,342.59l2.51,0.97v5.07l-2.51,0.97v3.73l12.99-5.17v-3.92l-12.99-5.17V342.59z M767.06,344.57l3.83,1.48v0.08
		l-3.83,1.48V344.57z"/>
	<polygon points="761.93,363.81 774.92,368.8 774.92,365.31 766.28,362.1 766.28,362.01 774.92,358.8 774.92,355.13 761.93,360.12 	
		"/>
	<rect x="761.93" y="369.7" width="9.19" height="3.34"/>
	<rect x="771.99" y="369.68" width="2.93" height="3.38"/>
	<path d="M769.49,378.19h1.63v-3.34h-9.19v3.34h4.21c1.55,0,2.12,0.76,2.12,2c0,0.64-0.12,1.13-0.39,1.59l3.15,0.21
		c0.19-0.23,0.35-0.72,0.35-1.28C771.37,379.49,770.52,378.52,769.49,378.19z"/>
	<path d="M766.22,386.25h4.91v-3.34h-5.79c-1.92,0-3.65,0.76-3.65,3.28c0,1.38,0.6,2.39,1.63,2.89h-1.38v3.34h9.19v-3.34h-4.51
		c-1.4,0-2.31-0.41-2.31-1.46C764.3,386.6,764.98,386.25,766.22,386.25z"/>
	<path d="M768.26,393.75c-1.88,0-2.6,1.18-2.95,3.4l-0.21,1.36c-0.1,0.64-0.35,0.85-0.7,0.85c-0.37,0-0.64-0.39-0.64-1.13
		c0-1.01,0.43-1.63,1.2-1.75l-0.04-2.91c-2.23,0.19-3.24,2.08-3.24,4.62c0,2.62,1.11,4.27,3.05,4.27c1.79,0,2.72-1.2,3.05-3.26
		l0.31-1.79c0.04-0.31,0.21-0.56,0.52-0.56c0.41,0,0.66,0.37,0.66,1.01c0,1.03-0.41,1.61-1.07,1.73l0.08,2.74
		c1.92-0.19,3.09-1.75,3.09-4.41C771.37,395.34,770.07,393.75,768.26,393.75z"/>
</g>
<g id="exp_white_bg" class="st0">
	<g class="st2">
		<polygon class="st5" points="770.9,346.05 767.06,344.57 767.06,347.62 770.9,346.14 		"/>
		<path class="st5" d="M765.76,278.85h0.14l-0.25-1.36c-0.17-0.8-0.41-1.28-1.01-1.28c-0.47,0-0.78,0.37-0.78,0.93
			C763.87,278.09,764.57,278.85,765.76,278.85z"/>
		<path class="st5" d="M765.76,243.69h0.14l-0.25-1.36c-0.17-0.8-0.41-1.28-1.01-1.28c-0.47,0-0.78,0.37-0.78,0.93
			C763.87,242.93,764.57,243.69,765.76,243.69z"/>
		<path class="st5" d="M22.26,356.82c-1.32,0-2.25,0.6-2.25,1.9c0,1.13,0.87,1.86,2.19,1.86h0.12c1.34,0,2.21-0.72,2.21-1.86
			C24.53,357.42,23.6,356.82,22.26,356.82z"/>
		<path class="st5" d="M20.57,173.39c-0.8,0-1.32,0.41-1.32,0.97c0,0.56,0.52,0.97,1.32,0.97c0.82,0,1.34-0.41,1.34-0.97
			C21.91,173.8,21.4,173.39,20.57,173.39z"/>
		<path class="st5" d="M766.53,256.32c1.32,0,2.25-0.6,2.25-1.9c0-1.13-0.87-1.86-2.18-1.86h-0.12c-1.34,0-2.21,0.72-2.21,1.86
			C764.26,255.73,765.19,256.32,766.53,256.32z"/>
		<polygon class="st5" points="767.41,216.17 769.43,216.66 769.43,214.89 767.41,214.4 		"/>
		<path class="st5" d="M0.14,612h792V-612h-792V612z M26.86,404.1l-5.19,1.34v0.08l5.19,1.34v3.28l-9.06,2.86l9.06,2.86v3.28
			l-5.19,1.34v0.08l5.19,1.34v3.28l-9.06,2.86l9.06,2.86v3.28l-5.19,1.34v0.08l5.19,1.34v3.28l-9.19,2.91v-3.32l5.22-1.65v-0.08
			l-5.22-1.34v-2.66l5.22-1.34v-0.08l-5.22-1.65v-2.92v-0.09v-3.23l5.22-1.65v-0.08l-5.22-1.34v-2.66l5.22-1.34v-0.08l-5.22-1.65
			v-2.92v-0.09v-3.23l5.22-1.65V408l-5.22-1.34V404l5.22-1.34v-0.08l-5.22-1.65v-3.01l9.19,2.91V404.1z M26.86,395.49h-3.55v-3.55
			h3.55V395.49z M20.37,389.06c-4,0-6.74-2.87-6.74-6.66c0-3.98,2.54-6.1,5.77-6.35l0.12,3.36c-1.44,0.21-2.78,0.99-2.78,3.01
			c0,1.92,1.42,3.03,3.63,3.03c2.21,0,3.63-1.11,3.63-3.03c0-2.02-1.34-2.8-2.78-3.01l0.14-3.36c3.24,0.25,5.75,2.37,5.75,6.35
			C27.11,386.19,24.37,389.06,20.37,389.06z M13.87,244.46v-3.48l12.99,4.99v3.69l-12.99,4.99v-3.67l8.64-3.22v-0.08L13.87,244.46z
			 M13.87,240.09v-3.38h2.93v3.38H13.87z M22.66,183.33h4.21v3.34h-9.19v-3.34h1.63c-1.03-0.33-1.88-1.3-1.88-2.52
			c0-0.56,0.17-1.05,0.35-1.28l3.15,0.21c-0.27,0.45-0.39,0.95-0.39,1.59C20.53,182.56,21.11,183.33,22.66,183.33z M22.26,187.98
			c2.87,0,4.84,2.04,4.84,5.03c0,3.01-1.98,5.03-4.84,5.03c-2.84,0-4.84-2.02-4.84-5.03C17.42,190.02,19.42,187.98,22.26,187.98z
			 M26.86,200.93v3.55h-3.55v-3.55H26.86z M20.51,207.44l0.08,2.74c-0.66,0.12-1.07,0.7-1.07,1.73c0,0.64,0.25,1.01,0.66,1.01
			c0.31,0,0.47-0.25,0.52-0.56l0.31-1.79c0.33-2.06,1.26-3.26,3.05-3.26c1.94,0,3.05,1.65,3.05,4.27c0,2.54-1.01,4.43-3.24,4.62
			l-0.04-2.91c0.76-0.12,1.2-0.74,1.2-1.75c0-0.74-0.27-1.13-0.64-1.13c-0.35,0-0.6,0.21-0.7,0.85l-0.21,1.36
			c-0.35,2.23-1.07,3.4-2.95,3.4c-1.81,0-3.11-1.59-3.11-4.16C17.42,209.19,18.6,207.62,20.51,207.44z M24.31,346.66h-4.33v1.24
			h-2.06l-0.1-0.68c-0.14-0.93-0.64-1.22-1.48-1.44l-1.2-0.31v-2.1h2.54v-2.39h2.31v2.39h3.36c0.78,0,1.09-0.37,1.09-1.05
			c0-0.41-0.08-0.87-0.31-1.42h2.16c0.52,0.7,0.82,1.5,0.82,2.76C27.11,345.2,26.47,346.66,24.31,346.66z M26.86,348.81v3.34h-9.19
			v-3.34H26.86z M24.7,364.88h1.77c0.33,0.47,0.6,1.13,0.6,2.08c0,1.13-0.58,2.02-1.63,2.33c1.07,0.54,1.63,1.59,1.63,3.05
			c0,1.79-0.93,2.97-2.49,2.97c-1.77,0-2.54-1.28-2.89-3.28l-0.43-2.58h-0.14c-0.76,0-1.22,0.35-1.22,1.15
			c0,0.74,0.47,1.11,1.15,1.26l-0.21,3.09c-2.02-0.29-3.42-1.79-3.42-4.56c0-2.43,1.05-4.23,3.61-4.23h3.13
			c0.47,0,0.68-0.21,0.68-0.56C24.84,365.35,24.8,365.15,24.7,364.88z M24.7,329.72h1.77c0.33,0.47,0.6,1.13,0.6,2.08
			c0,1.13-0.58,2.02-1.63,2.33c1.07,0.54,1.63,1.59,1.63,3.05c0,1.79-0.93,2.97-2.49,2.97c-1.77,0-2.54-1.28-2.89-3.28l-0.43-2.58
			h-0.14c-0.76,0-1.22,0.35-1.22,1.15c0,0.74,0.47,1.11,1.15,1.26l-0.21,3.09c-2.02-0.29-3.42-1.79-3.42-4.56
			c0-2.43,1.05-4.23,3.61-4.23h3.13c0.47,0,0.68-0.21,0.68-0.56C24.84,330.19,24.8,329.99,24.7,329.72z M26.86,323.6h-9.19v-3.34
			h9.19V323.6z M23.87,319.11l-0.04-2.91c0.76-0.12,1.2-0.74,1.2-1.75c0-0.74-0.27-1.13-0.64-1.13c-0.35,0-0.6,0.21-0.7,0.85
			l-0.21,1.36c-0.35,2.23-1.07,3.4-2.95,3.4c-1.81,0-3.11-1.59-3.11-4.16c0-2.66,1.18-4.23,3.09-4.41l0.08,2.74
			c-0.66,0.12-1.07,0.7-1.07,1.73c0,0.64,0.25,1.01,0.66,1.01c0.31,0,0.47-0.25,0.52-0.56l0.31-1.79c0.33-2.06,1.26-3.26,3.05-3.26
			c1.94,0,3.05,1.65,3.05,4.27C27.11,317.03,26.1,318.92,23.87,319.11z M17.42,296.74c0-2.54,1.75-3.28,3.67-3.28h5.77v3.34h-4.89
			c-1.26,0-1.92,0.23-1.92,1.24c0,1.11,0.91,1.48,2.29,1.48h4.51v3.34h-4.89c-1.26,0-1.92,0.25-1.92,1.26
			c0,1.09,0.91,1.48,2.29,1.48h4.51v3.34h-9.19v-3.34h1.38c-1.01-0.49-1.63-1.48-1.63-2.87c0-1.63,0.74-2.47,1.81-2.87
			C18.2,299.38,17.42,298.29,17.42,296.74z M24.39,277.68c-0.35,0-0.6,0.21-0.7,0.85l-0.21,1.36c-0.35,2.23-1.07,3.4-2.95,3.4
			c-1.81,0-3.11-1.59-3.11-4.16c0-2.66,1.18-4.23,3.09-4.41l0.08,2.74c-0.66,0.12-1.07,0.7-1.07,1.73c0,0.64,0.25,1.01,0.66,1.01
			c0.31,0,0.47-0.25,0.52-0.56l0.31-1.79c0.33-2.06,1.26-3.26,3.05-3.26c1.94,0,3.05,1.65,3.05,4.27c0,2.54-1.01,4.43-3.24,4.62
			l-0.04-2.91c0.76-0.12,1.2-0.74,1.2-1.75C25.03,278.07,24.76,277.68,24.39,277.68z M26.86,240.07h-9.19v-3.34h9.19V240.07z
			 M22.18,220.69h-4.51v-3.34h9.19v3.34h-1.38c1.03,0.49,1.63,1.5,1.63,2.89c0,2.52-1.73,3.28-3.65,3.28h-5.79v-3.34h4.91
			c1.24,0,1.92-0.35,1.92-1.36C24.49,221.1,23.58,220.69,22.18,220.69z M17.77,227.78l3.15,0.21c-0.27,0.45-0.39,0.95-0.39,1.59
			c0,1.24,0.58,2,2.12,2h4.21v3.34h-9.19v-3.34h1.63c-1.03-0.33-1.88-1.3-1.88-2.52C17.42,228.5,17.58,228.01,17.77,227.78z
			 M26.86,256.49v3.73l-2.51,0.97v5.07l2.51,0.97v3.52l-12.99-5.17v-3.92L26.86,256.49z M26.86,284.71v3.5H13.87v-3.5H26.86z
			 M16.8,320.24v3.38h-2.93v-3.38H16.8z M26.86,325.41v3.34H13.87v-3.34H26.86z M16.8,348.79v3.38h-2.93v-3.38H16.8z M30.16,363.91
			H17.67v-3.34h1.59c-1.09-0.45-1.83-1.48-1.83-3.03c0-2.7,2.14-4.08,4.84-4.08c2.72,0,4.84,1.38,4.84,4.08
			c0,1.55-0.74,2.58-1.81,3.03h4.86V363.91z M28.16,179.51c-0.8,0-1.44-0.72-1.53-1.75c-0.27,0.82-1.01,1.32-1.79,1.32
			c-0.89,0-1.57-0.58-1.94-1.57c-0.54,0.82-1.32,1.32-2.33,1.32c-1.96,0-3.15-1.86-3.15-4.43c0-1.11,0.27-2.16,0.74-2.95
			c-0.76-0.56-1.42-1.57-1.42-2.58h2.52c0,0.39,0.04,0.89,0.14,1.34c0.35-0.19,0.74-0.29,1.18-0.29c1.94,0,3.13,1.88,3.13,4.47
			c0,0.74-0.08,1.4-0.27,2c0.1,0.12,0.25,0.19,0.43,0.19c0.31,0,0.56-0.23,0.56-0.78v-3.81c0-2.08,1.09-3.13,2.64-3.13
			c2.29,0,3.34,2.78,3.34,5.77C30.41,177.25,29.89,179.51,28.16,179.51z M77.26-108.07L11.8-278.49h48.15l42.2,113.34h1.08
			l42.2-113.34h45.72l-65.46,170.42H77.26z M607.72,258.2l-20.64-6.82c-4.64,8.64-10.35,17.79-17.25,26.94
			c-6.11,8.1-13.75,16.98-23.17,25.99c9.84,2.17,18.56,6.07,25.49,18.3c6.32,11.14,14.09,75.08,16.88,99.68
			c7.83,18.79,10.06,36.24-0.25,56.57c-17.13,37.58-54.96,95.76-62.77,107.64l0.57,8.81c0.26,4.05-2.81,7.54-6.86,7.8
			c-0.16,0.01-0.32,0.02-0.48,0.02c-3.84,0-7.07-2.99-7.32-6.88l-0.73-11.27c-0.1-1.6,0.32-3.19,1.21-4.53
			c0.45-0.67,44.8-67.71,63.04-107.77c0.02-0.05,0.05-0.1,0.08-0.15c0.02-0.05,0.04-0.1,0.07-0.15c0.25-0.5,0.5-0.99,0.73-1.48
			c7.42-15.44,6.19-28.96-4.4-50.78c-1.38-2.85-3.43-7.22-6.02-12.76c-6.87-14.69-17.25-36.89-27.3-56.32
			c-6.92-13.38-10.98-19.59-19.98-27.78c-8.26-7.52-52.91-54.61-54.81-56.61c-6.86-7.17-17.85-13.3-26.21-6.92
			c-5.9,4.5-8.08,14.51,0.21,26.78l53.71,61.76c0.62,0.71,1.09,1.53,1.4,2.42l20.68,59.88c0.02,0.07,0.04,0.14,0.06,0.21
			c0.04,0.13,0.08,0.27,0.12,0.41c0.03,0.1,0.05,0.21,0.07,0.32c0.03,0.13,0.05,0.26,0.07,0.39c0.02,0.11,0.03,0.23,0.04,0.34
			c0.01,0.12,0.02,0.25,0.03,0.37c0.01,0.12,0.01,0.24,0.01,0.36c0,0.12,0,0.24-0.01,0.36c-0.01,0.13-0.02,0.25-0.03,0.37
			c-0.01,0.11-0.02,0.22-0.04,0.34c-0.02,0.13-0.04,0.26-0.07,0.39c-0.02,0.1-0.04,0.21-0.07,0.31c-0.03,0.14-0.08,0.27-0.12,0.41
			c-0.02,0.07-0.04,0.14-0.06,0.21c-0.09,0.27-0.62,1.76-1.61,3.96c-0.08,0.18-0.16,0.35-0.24,0.54
			c-4.11,8.92-15.2,27.84-35.38,27.84c-17.33,0-35.15-15.94-37.13-17.76c-1.31-1.2-2.13-2.84-2.33-4.61
			c-0.03-0.28-3.18-28.53-10.09-52.33c-9.52-32.82-23.78-32.24-36.39-29.12c-3.18,0.79-5.11,1.26-3.9,13.27
			c1.99,19.81,4.21,37.17,6.55,55.55c1.39,10.94,2.83,22.25,4.21,34.02c0.08,0.69,0.06,1.39-0.05,2.08
			c-10.59,62.8,17.6,116.86,17.88,117.4c0.68,1.27,0.96,2.72,0.82,4.16l-0.89,9.14l-1.65,17.01c-0.37,3.8-3.57,6.64-7.3,6.64
			c-0.24,0-0.48-0.01-0.72-0.03c-4.04-0.39-6.99-3.98-6.6-8.02l2.33-24.02c-5.34-10.91-28.46-62.71-18.54-123.65
			c-1.33-11.33-2.72-22.26-4.07-32.84c-1.65-12.94-3.34-26.21-4.92-40.24c-2.55,0.08-5.07,0.12-7.55,0.12
			c-28.1,0-51.86-4.83-70.66-10.92l-5.96,18.05l-22.79-7.53l6.35-19.21c-29.96-13.64-50.38-31.45-56.68-40.3
			c-8.03-11.26-15.13-38.26-23.35-69.51c-2.5-9.49-5.08-19.31-7.67-28.53c-4.7-16.75-4.01-34.01,1.92-50.43l-15.4-6.43l9.25-22.15
			l17.19,7.18c8.74-12.81,20.86-24.67,35.69-34.82c8.45-5.78,17.33-12.1,26.74-18.79c32.09-22.83,65.27-46.43,86.92-52.51
			c21.64-6.08,62.26-3.2,101.55-0.42c11.51,0.82,22.39,1.59,32.61,2.12c14.18,0.74,27.47,3.29,39.39,7.48l6.77-16.2l22.15,9.25
			l-7.24,17.33c0.2,0.13,0.41,0.25,0.61,0.38c17.62,11.39,29.86,27.82,35.39,47.49c2.59,9.22,5.5,18.95,8.31,28.35
			c9.25,30.96,17.24,57.7,16.25,71.5c-0.36,5.06-2.34,13.39-6.22,23.61l18.1,5.98L607.72,258.2z M355.81-511.44l2.5-9.65h16.98
			v20.47h19.31v18.64h-19.31v27.13c0,6.32,3,8.82,8.49,8.82c3.33,0,6.99-0.67,11.48-2.5v17.47c-5.66,4.16-12.15,6.66-22.3,6.66
			c-12.48,0-24.3-5.16-24.3-22.63v-34.95h-9.99v-16.64l5.49-0.83C351.65-500.62,353.98-504.62,355.81-511.44z M349.97-588.45v-9.19
			h3.34v9.19H349.97z M378.52-588.45v-9.19h3.34v9.19H378.52z M372.24-337.46l-6.57-1c-10.74-1.69-16.42-5.17-16.42-14.23
			c0-8.75,7.66-15.02,20.1-15.02c12.83,0,20.4,5.67,21.29,14.92l-13.23,0.4c-0.6-3.18-3.38-5.17-8.36-5.17
			c-3.08,0-4.88,1.19-4.88,3.18c0,1.49,1.19,2.29,2.69,2.49l8.66,1.49c9.95,1.59,15.72,6.07,15.72,14.72
			c0,9.35-7.96,14.72-20.59,14.72c-12.24,0-21.39-4.88-22.29-15.62l14.03-0.2c0.6,3.68,3.58,5.77,8.46,5.77
			c3.58,0,5.47-1.29,5.47-3.08C376.32-335.77,375.32-336.96,372.24-337.46z M342.89-384.81v14.13h-16.32v-14.13H342.89z
			 M342.79-366.51v44.37h-16.12v-44.37H342.79z M331.35-426.4h-26.96v-74.23h26.96V-426.4z M362.1-278.49c44.09,0,66,20.83,66,54.1
			c0,24.89-15.42,41.12-36.25,43.82c17.58,3.52,27.86,13.53,29.76,33.27c2.43,25.43,3.25,33,8.93,39.22h-46.53
			c-3.52-4.6-5.68-15.15-7.03-32.73c-1.35-19.48-9.74-23.8-25.16-23.8h-30.57v56.54h-45.17v-170.42H362.1z M435.42-355.76
			c-3.58,0-5.37,2.29-6.07,5.57l-14.92-1c1.39-9.75,8.66-16.51,21.99-16.51c11.74,0,20.4,5.07,20.4,17.41v15.12
			c0,2.29,0.99,3.28,2.69,3.28c1.29,0,2.29-0.2,3.58-0.7v8.56c-2.29,1.59-5.47,2.88-10.05,2.88c-5.47,0-9.75-2.79-11.24-7.86
			c-2.59,5.17-7.66,7.86-14.72,7.86c-8.66,0-14.33-4.48-14.33-12.04c0-8.56,6.17-12.24,15.82-13.93l12.44-2.09v-0.7
			C440.99-353.58,439.3-355.76,435.42-355.76z M524.68-143.5c23.8,0,31.65-13.8,31.65-39.76v-95.22h45.99v102.79
			c0,49.77-33.81,70.87-77.64,70.87s-77.37-21.1-77.37-70.87v-102.79h45.72v95.22C493.03-157.3,501.14-143.5,524.68-143.5z
			 M493.27-426.4v-104.85h26.96v104.85H493.27z M534.87-426.4v-74.23h26.96v74.23H534.87z M488.51-18.18l-1.36-0.21
			c-2.23-0.35-3.4-1.07-3.4-2.95c0-1.81,1.59-3.11,4.16-3.11c2.66,0,4.23,1.18,4.41,3.09l-2.74,0.08c-0.12-0.66-0.7-1.07-1.73-1.07
			c-0.64,0-1.01,0.25-1.01,0.66c0,0.31,0.25,0.47,0.56,0.52l1.79,0.31c2.06,0.33,3.26,1.26,3.26,3.05c0,1.94-1.65,3.05-4.27,3.05
			c-2.54,0-4.43-1.01-4.62-3.24l2.91-0.04c0.12,0.76,0.74,1.2,1.75,1.2c0.74,0,1.13-0.27,1.13-0.64
			C489.36-17.83,489.15-18.08,488.51-18.18z M476.19-14.76c-2.52,0-3.28-1.73-3.28-3.65v-5.79h3.34v4.91c0,1.24,0.35,1.92,1.36,1.92
			c1.05,0,1.46-0.91,1.46-2.31v-4.51h3.34v9.19h-3.34v-1.38C478.58-15.36,477.57-14.76,476.19-14.76z M470.71-24.45
			c0.56,0,1.05,0.17,1.28,0.35l-0.21,3.15c-0.45-0.27-0.95-0.39-1.59-0.39c-1.24,0-2,0.58-2,2.12v4.21h-3.34v-9.19h3.34v1.63
			C468.52-23.6,469.49-24.45,470.71-24.45z M459.68-25.07v-2.93h3.38v2.93H459.68z M463.04-24.2v9.19h-3.34v-9.19H463.04z
			 M458.8-27.99l-4.99,12.99h-3.69l-4.99-12.99h3.67l3.22,8.64h0.08l3.22-8.64H458.8z M443.33-15.01h-3.73l-0.97-2.51h-5.07
			l-0.97,2.51h-3.53l5.17-12.99h3.92L443.33-15.01z M422.96-18.18l-1.36-0.21c-2.23-0.35-3.4-1.07-3.4-2.95
			c0-1.81,1.59-3.11,4.16-3.11c2.66,0,4.23,1.18,4.41,3.09l-2.74,0.08c-0.12-0.66-0.7-1.07-1.73-1.07c-0.64,0-1.01,0.25-1.01,0.66
			c0,0.31,0.25,0.47,0.56,0.52l1.79,0.31c2.06,0.33,3.26,1.26,3.26,3.05c0,1.94-1.65,3.05-4.27,3.05c-2.54,0-4.43-1.01-4.62-3.24
			l2.91-0.04c0.12,0.76,0.74,1.2,1.75,1.2c0.74,0,1.13-0.27,1.13-0.64C423.8-17.83,423.6-18.08,422.96-18.18z M416.78-27.99v12.99
			h-3.5v-12.99H416.78z M405.11-21.81c-1.11,0-1.48,0.91-1.48,2.29v4.51h-3.34v-4.89c0-1.26-0.25-1.92-1.26-1.92
			c-1.09,0-1.48,0.91-1.48,2.29v4.51h-3.34v-9.19h3.34v1.38c0.49-1.01,1.48-1.63,2.87-1.63c1.63,0,2.47,0.74,2.87,1.81
			c0.5-1.03,1.59-1.81,3.13-1.81c2.54,0,3.28,1.75,3.28,3.67v5.77h-3.34v-4.89C406.34-21.15,406.12-21.81,405.11-21.81z
			 M388.99-18.18l-1.36-0.21c-2.23-0.35-3.4-1.07-3.4-2.95c0-1.81,1.59-3.11,4.16-3.11c2.66,0,4.23,1.18,4.41,3.09l-2.74,0.08
			c-0.12-0.66-0.7-1.07-1.73-1.07c-0.64,0-1.01,0.25-1.01,0.66c0,0.31,0.25,0.47,0.56,0.52l1.79,0.31c2.06,0.33,3.26,1.26,3.26,3.05
			c0,1.94-1.65,3.05-4.27,3.05c-2.54,0-4.43-1.01-4.62-3.24l2.91-0.04c0.12,0.76,0.74,1.2,1.75,1.2c0.74,0,1.13-0.27,1.13-0.64
			C389.83-17.83,389.63-18.08,388.99-18.18z M379.53-25.07v-2.93h3.38v2.93H379.53z M382.89-24.2v9.19h-3.34v-9.19H382.89z
			 M377.73-27.99v12.99h-3.34v-12.99H377.73z M367.7-21.97c-0.74,0-1.11,0.47-1.26,1.15l-3.09-0.21c0.29-2.02,1.79-3.42,4.56-3.42
			c2.43,0,4.23,1.05,4.23,3.61v3.13c0,0.47,0.21,0.68,0.56,0.68c0.27,0,0.47-0.04,0.74-0.14v1.77c-0.47,0.33-1.13,0.6-2.08,0.6
			c-1.13,0-2.02-0.58-2.33-1.63c-0.54,1.07-1.59,1.63-3.05,1.63c-1.79,0-2.97-0.93-2.97-2.49c0-1.77,1.28-2.54,3.28-2.89l2.58-0.43
			v-0.14C368.85-21.52,368.5-21.97,367.7-21.97z M355.25-21.89v-2.06l0.68-0.1c0.93-0.14,1.22-0.64,1.44-1.48l0.31-1.2h2.1v2.54
			h2.39v2.31h-2.39v3.36c0,0.78,0.37,1.09,1.05,1.09c0.41,0,0.87-0.08,1.42-0.31v2.16c-0.7,0.52-1.5,0.82-2.76,0.82
			c-1.55,0-3.01-0.64-3.01-2.8v-4.33H355.25z M350.98-25.07v-2.93h3.38v2.93H350.98z M354.34-24.2v9.19H351v-9.19H354.34z
			 M345.6-24.45c2.7,0,4.08,2.14,4.08,4.84c0,2.72-1.38,4.84-4.08,4.84c-1.55,0-2.58-0.74-3.03-1.81v4.87h-3.34V-24.2h3.34v1.59
			C343.03-23.71,344.06-24.45,345.6-24.45z M332.54-21.97c-0.74,0-1.11,0.47-1.26,1.15l-3.09-0.21c0.29-2.02,1.79-3.42,4.56-3.42
			c2.43,0,4.23,1.05,4.23,3.61v3.13c0,0.47,0.21,0.68,0.56,0.68c0.27,0,0.47-0.04,0.74-0.14v1.77c-0.47,0.33-1.13,0.6-2.08,0.6
			c-1.13,0-2.02-0.58-2.33-1.63c-0.54,1.07-1.59,1.63-3.05,1.63c-1.79,0-2.97-0.93-2.97-2.49c0-1.77,1.28-2.54,3.28-2.89l2.58-0.43
			v-0.14C333.69-21.52,333.34-21.97,332.54-21.97z M320.73-17.87c2.02,0,2.8-1.34,3.01-2.78l3.36,0.14
			c-0.25,3.24-2.37,5.75-6.35,5.75c-3.79,0-6.66-2.74-6.66-6.74c0-4,2.87-6.74,6.66-6.74c3.98,0,6.1,2.54,6.35,5.77l-3.36,0.12
			c-0.21-1.44-0.99-2.78-3.01-2.78c-1.92,0-3.03,1.42-3.03,3.63C317.7-19.29,318.81-17.87,320.73-17.87z M310.64-20.49l-0.43,2.06
			h-2.04l-0.8,3.42h-2.49l0.8-3.42h-1.77l-0.8,3.42h-2.49l0.8-3.42h-1.81l0.43-2.06h1.88l0.49-2.02h-1.98l0.43-2.06h2.02l0.82-3.42
			h2.49l-0.82,3.42h1.77l0.82-3.42h2.49l-0.82,3.42h1.83l-0.43,2.06h-1.88l-0.49,2.02H310.64z M698.61-104.82
			c-46.26,0-79.26-22.45-79.26-63.57l42.2-1.35c1.62,21.37,18.12,28.67,37.06,28.67c15.96,0,26.24-5.68,26.24-15.15
			c0-10.01-10.01-11.63-22.99-14.07l-31.11-5.41c-27.86-5.14-47.34-20.83-47.34-50.58c0-34.62,27.05-55.45,69.52-55.45
			c47.07,0,72.5,22.99,73.31,60.86l-42.2,0.81c-1.35-17.58-14.07-25.7-31.65-25.7c-15.15,0-23.8,5.95-23.8,15.42
			c0,7.84,6.49,10.82,17.04,12.71l32.19,5.68c35.71,6.22,51.94,24.89,51.94,52.75C769.76-122.95,738.38-104.82,698.61-104.82z
			 M774.92,213.69v2.49l-3.42-0.83v1.77l3.42,0.82v2.49l-3.42-0.82v1.83l-2.06-0.43v-1.88l-2.02-0.49v1.98l-2.06-0.43v-2.04
			l-3.42-0.8v-2.49l3.42,0.8v-1.77l-3.42-0.8v-2.49l3.42,0.8v-1.81l2.06,0.43v1.88l2.02,0.49v-1.98l2.06,0.43v2.02L774.92,213.69z
			 M758.63,249.23h12.49v3.34h-1.59c1.09,0.45,1.83,1.48,1.83,3.03c0,2.7-2.14,4.08-4.84,4.08c-2.72,0-4.84-1.38-4.84-4.08
			c0-1.55,0.74-2.58,1.81-3.03h-4.86V249.23z M761.72,240.8c0-1.79,0.93-2.97,2.49-2.97c1.77,0,2.54,1.28,2.89,3.28l0.43,2.58h0.14
			c0.76,0,1.22-0.35,1.22-1.15c0-0.74-0.47-1.11-1.15-1.26l0.21-3.09c2.02,0.29,3.42,1.79,3.42,4.56c0,2.43-1.05,4.23-3.61,4.23
			h-3.13c-0.47,0-0.68,0.21-0.68,0.56c0,0.27,0.04,0.47,0.14,0.74h-1.77c-0.33-0.47-0.6-1.13-0.6-2.08c0-1.13,0.58-2.02,1.63-2.33
			C762.28,243.32,761.72,242.27,761.72,240.8z M764.09,283.43h-1.77c-0.33-0.47-0.6-1.13-0.6-2.08c0-1.13,0.58-2.02,1.63-2.33
			c-1.07-0.54-1.63-1.59-1.63-3.05c0-1.79,0.93-2.97,2.49-2.97c1.77,0,2.54,1.28,2.89,3.28l0.43,2.58h0.14
			c0.76,0,1.22-0.35,1.22-1.15c0-0.74-0.47-1.11-1.15-1.26l0.21-3.09c2.02,0.29,3.42,1.79,3.42,4.56c0,2.43-1.05,4.23-3.61,4.23
			h-3.13c-0.47,0-0.68,0.21-0.68,0.56C763.95,282.95,763.99,283.16,764.09,283.43z M771.37,316.4c0,2.54-1.75,3.28-3.67,3.28h-5.77
			v-3.34h4.89c1.26,0,1.92-0.23,1.92-1.24c0-1.11-0.91-1.48-2.29-1.48h-4.51v-3.34h4.89c1.26,0,1.92-0.25,1.92-1.26
			c0-1.09-0.91-1.48-2.29-1.48h-4.51v-3.34h9.19v3.34h-1.38c1.01,0.5,1.63,1.48,1.63,2.87c0,1.63-0.74,2.47-1.81,2.87
			C770.59,313.77,771.37,314.86,771.37,316.4z M768.28,302.8l-0.08-2.74c0.66-0.12,1.07-0.7,1.07-1.73c0-0.64-0.25-1.01-0.66-1.01
			c-0.31,0-0.47,0.25-0.52,0.56l-0.31,1.79c-0.33,2.06-1.26,3.26-3.05,3.26c-1.94,0-3.05-1.65-3.05-4.27c0-2.54,1.01-4.43,3.24-4.62
			l0.04,2.91c-0.76,0.12-1.2,0.74-1.2,1.75c0,0.74,0.27,1.13,0.64,1.13c0.35,0,0.6-0.21,0.7-0.85l0.21-1.36
			c0.35-2.23,1.07-3.4,2.95-3.4c1.81,0,3.11,1.59,3.11,4.16C771.37,301.05,770.2,302.62,768.28,302.8z M764.4,333.8
			c0.35,0,0.6-0.21,0.7-0.85l0.21-1.36c0.35-2.23,1.07-3.4,2.95-3.4c1.81,0,3.11,1.59,3.11,4.16c0,2.66-1.17,4.23-3.09,4.41
			l-0.08-2.74c0.66-0.12,1.07-0.7,1.07-1.73c0-0.64-0.25-1.01-0.66-1.01c-0.31,0-0.47,0.25-0.52,0.56l-0.31,1.79
			c-0.33,2.06-1.26,3.26-3.05,3.26c-1.94,0-3.05-1.65-3.05-4.27c0-2.54,1.01-4.43,3.24-4.62l0.04,2.91c-0.76,0.12-1.2,0.74-1.2,1.75
			C763.76,333.41,764.03,333.8,764.4,333.8z M761.93,369.7h9.19v3.34h-9.19V369.7z M766.61,389.07h4.51v3.34h-9.19v-3.34h1.38
			c-1.03-0.49-1.63-1.5-1.63-2.89c0-2.52,1.73-3.28,3.65-3.28h5.79v3.34h-4.91c-1.24,0-1.92,0.35-1.92,1.36
			C764.3,388.66,765.21,389.07,766.61,389.07z M771.12,292.89h-9.19v-3.34h9.19V292.89z M771.12,269.78v2.39h-2.31v-2.39h-3.36
			c-0.78,0-1.09,0.37-1.09,1.05c0,0.41,0.08,0.87,0.31,1.42h-2.16c-0.52-0.7-0.82-1.5-0.82-2.76c0-1.55,0.64-3.01,2.8-3.01h4.33
			v-1.24h2.06l0.1,0.68c0.14,0.93,0.64,1.22,1.48,1.44l1.2,0.31v2.1H771.12z M761.93,264.34V261h9.19v3.34H761.93z M768.28,402.33
			l-0.08-2.74c0.66-0.12,1.07-0.7,1.07-1.73c0-0.64-0.25-1.01-0.66-1.01c-0.31,0-0.47,0.25-0.52,0.56l-0.31,1.79
			c-0.33,2.06-1.26,3.26-3.05,3.26c-1.94,0-3.05-1.65-3.05-4.27c0-2.54,1.01-4.43,3.24-4.62l0.04,2.91c-0.76,0.12-1.2,0.74-1.2,1.75
			c0,0.74,0.27,1.13,0.64,1.13c0.35,0,0.6-0.21,0.7-0.85l0.21-1.36c0.35-2.23,1.07-3.4,2.95-3.4c1.81,0,3.11,1.59,3.11,4.16
			C771.37,400.58,770.2,402.14,768.28,402.33z M771.02,381.99l-3.15-0.21c0.27-0.45,0.39-0.95,0.39-1.59c0-1.24-0.58-2-2.12-2h-4.21
			v-3.34h9.19v3.34h-1.63c1.03,0.33,1.88,1.3,1.88,2.52C771.37,381.26,771.21,381.76,771.02,381.99z M774.92,373.06h-2.93v-3.38
			h2.93V373.06z M774.92,358.8l-8.64,3.22v0.08l8.64,3.22v3.48l-12.99-4.99v-3.69l12.99-4.99V358.8z M774.92,348.16l-12.99,5.17
			v-3.73l2.51-0.97v-5.07l-2.51-0.97v-3.52l12.99,5.17V348.16z M774.92,326.78h-12.99v-3.5h12.99V326.78z M774.92,292.91h-2.93
			v-3.38h2.93V292.91z M774.92,287.73h-12.99v-3.34h12.99V287.73z M774.92,264.36h-2.93v-3.38h2.93V264.36z M769.39,237.1
			l-0.12-3.36c1.44-0.21,2.78-0.99,2.78-3.01c0-1.92-1.42-3.03-3.63-3.03s-3.63,1.11-3.63,3.03c0,2.02,1.34,2.8,2.78,3.01
			l-0.14,3.36c-3.24-0.25-5.75-2.37-5.75-6.35c0-3.79,2.74-6.66,6.74-6.66s6.74,2.87,6.74,6.66
			C775.16,234.73,772.63,236.85,769.39,237.1z M653.2-500.62h26.96v11.15c3.99-8.15,11.98-13.15,23.13-13.15
			c13.15,0,19.97,5.99,23.13,14.65c3.99-8.32,12.81-14.65,25.3-14.65c20.47,0,26.46,14.15,26.46,29.62v46.6h-26.96v-39.44
			c0-10.15-1.83-15.48-9.99-15.48c-8.99,0-11.98,7.32-11.98,18.47v36.45h-26.96v-39.44c0-10.15-2-15.48-10.15-15.48
			c-8.82,0-11.98,7.32-11.98,18.47v36.45H653.2V-500.62z M611.09-452.03l-10.98-1.66c-17.97-2.83-27.46-8.65-27.46-23.8
			c0-14.65,12.81-25.13,33.62-25.13c21.47,0,34.12,9.49,35.62,24.96l-22.13,0.67c-1-5.33-5.66-8.65-13.98-8.65
			c-5.16,0-8.15,2-8.15,5.33c0,2.5,2,3.83,4.49,4.16l14.48,2.5c16.64,2.66,26.3,10.15,26.3,24.63c0,15.64-13.31,24.63-34.45,24.63
			c-20.47,0-35.78-8.15-37.28-26.13l23.47-0.33c1,6.16,5.99,9.65,14.15,9.65c5.99,0,9.15-2.16,9.15-5.16
			C617.92-449.2,616.25-451.2,611.09-452.03z M534.71-531.25H562v23.63h-27.29V-531.25z M523.04-590.47c0-0.89,0.58-1.57,1.57-1.94
			c-0.82-0.54-1.32-1.32-1.32-2.33c0-1.96,1.86-3.15,4.43-3.15c1.11,0,2.16,0.27,2.95,0.74c0.56-0.76,1.57-1.42,2.58-1.42v2.51
			c-0.39,0-0.89,0.04-1.34,0.14c0.19,0.35,0.29,0.74,0.29,1.17c0,1.94-1.88,3.13-4.47,3.13c-0.74,0-1.4-0.08-2-0.27
			c-0.12,0.1-0.19,0.25-0.19,0.43c0,0.31,0.23,0.56,0.78,0.56h3.81c2.08,0,3.13,1.09,3.13,2.64c0,2.29-2.78,3.34-5.77,3.34
			c-2.62,0-4.89-0.52-4.89-2.25c0-0.8,0.72-1.44,1.75-1.53C523.53-588.94,523.04-589.68,523.04-590.47z M515.45-597.64h3.34v1.63
			c0.33-1.03,1.3-1.88,2.51-1.88c0.56,0,1.05,0.16,1.28,0.35l-0.21,3.15c-0.45-0.27-0.95-0.39-1.59-0.39c-1.24,0-2,0.58-2,2.12v4.21
			h-3.34V-597.64z M509.1-597.89c2.99,0,5.03,2,5.03,4.84c0,2.87-2.04,4.84-5.03,4.84c-3.01,0-5.03-1.98-5.03-4.84
			C504.08-595.89,506.1-597.89,509.1-597.89z M497.64-591.99h3.55v3.55h-3.55V-591.99z M490.87-591.62l-1.36-0.21
			c-2.23-0.35-3.4-1.07-3.4-2.95c0-1.81,1.59-3.11,4.16-3.11c2.66,0,4.23,1.18,4.41,3.09l-2.74,0.08c-0.12-0.66-0.7-1.07-1.73-1.07
			c-0.64,0-1.01,0.25-1.01,0.66c0,0.31,0.25,0.47,0.56,0.52l1.79,0.31c2.06,0.33,3.26,1.26,3.26,3.05c0,1.94-1.65,3.05-4.27,3.05
			c-2.54,0-4.43-1.01-4.62-3.24l2.91-0.04c0.12,0.76,0.74,1.2,1.75,1.2c0.74,0,1.13-0.27,1.13-0.64
			C491.71-591.27,491.5-591.52,490.87-591.62z M475.26-597.64h3.34v4.91c0,1.24,0.35,1.92,1.36,1.92c1.05,0,1.46-0.91,1.46-2.31
			v-4.51h3.34v9.19h-3.34v-1.38c-0.49,1.03-1.5,1.63-2.89,1.63c-2.52,0-3.28-1.73-3.28-3.65V-597.64z M467.2-597.64h3.34v1.63
			c0.33-1.03,1.3-1.88,2.52-1.88c0.56,0,1.05,0.16,1.28,0.35l-0.21,3.15c-0.45-0.27-0.95-0.39-1.59-0.39c-1.24,0-2,0.58-2,2.12v4.21
			h-3.34V-597.64z M462.03-601.43h3.38v2.93h-3.38V-601.43z M465.39-597.64v9.19h-3.34v-9.19H465.39z M451.15-601.43l3.22,8.64h0.08
			l3.22-8.64h3.48l-4.99,12.99h-3.69l-4.99-12.99H451.15z M436.54-601.43h3.92l5.17,12.99h-3.73l-0.97-2.52h-5.07l-0.97,2.52h-3.53
			L436.54-601.43z M423.59-591.62l-1.36-0.21c-2.23-0.35-3.4-1.07-3.4-2.95c0-1.81,1.59-3.11,4.16-3.11c2.66,0,4.23,1.18,4.41,3.09
			l-2.74,0.08c-0.12-0.66-0.7-1.07-1.73-1.07c-0.64,0-1.01,0.25-1.01,0.66c0,0.31,0.25,0.47,0.56,0.52l1.79,0.31
			c2.06,0.33,3.26,1.26,3.26,3.05c0,1.94-1.65,3.05-4.27,3.05c-2.54,0-4.43-1.01-4.62-3.24l2.91-0.04c0.12,0.76,0.74,1.2,1.75,1.2
			c0.74,0,1.13-0.27,1.13-0.64C424.44-591.27,424.23-591.52,423.59-591.62z M413.91-601.43h3.5v12.99h-3.5V-601.43z M440.85-502.62
			c19.64,0,34.12,8.49,34.12,29.12v25.3c0,3.83,1.66,5.49,4.49,5.49c2.16,0,3.83-0.33,5.99-1.17v14.31
			c-3.83,2.66-9.15,4.83-16.81,4.83c-9.15,0-16.31-4.66-18.81-13.15c-4.33,8.65-12.81,13.15-24.63,13.15
			c-14.48,0-23.97-7.49-23.97-20.14c0-14.31,10.32-20.47,26.46-23.3l20.8-3.5v-1.16c0-6.16-2.83-9.82-9.32-9.82
			c-5.99,0-8.99,3.83-10.15,9.32L404.07-475C406.4-491.31,418.55-502.62,440.85-502.62z M393.17-597.64h3.34v1.38
			c0.49-1.01,1.48-1.63,2.87-1.63c1.63,0,2.47,0.74,2.87,1.81c0.5-1.03,1.59-1.81,3.13-1.81c2.54,0,3.28,1.75,3.28,3.67v5.77h-3.34
			v-4.89c0-1.26-0.23-1.92-1.24-1.92c-1.11,0-1.48,0.91-1.48,2.29v4.51h-3.34v-4.89c0-1.26-0.25-1.92-1.26-1.92
			c-1.09,0-1.48,0.91-1.48,2.29v4.51h-3.34V-597.64z M387.96-591.62l-1.36-0.21c-2.23-0.35-3.4-1.07-3.4-2.95
			c0-1.81,1.59-3.11,4.16-3.11c2.66,0,4.23,1.18,4.41,3.09l-2.74,0.08c-0.12-0.66-0.7-1.07-1.73-1.07c-0.64,0-1.01,0.25-1.01,0.66
			c0,0.31,0.25,0.47,0.56,0.52l1.79,0.31c2.06,0.33,3.26,1.26,3.26,3.05c0,1.94-1.65,3.05-4.27,3.05c-2.54,0-4.43-1.01-4.62-3.24
			l2.91-0.04c0.12,0.76,0.74,1.2,1.75,1.2c0.74,0,1.13-0.27,1.13-0.64C388.8-591.27,388.6-591.52,387.96-591.62z M378.5-601.43h3.38
			v2.93h-3.38V-601.43z M373.37-601.43h3.34v12.99h-3.34V-601.43z M366.67-595.41c-0.74,0-1.11,0.47-1.26,1.15l-3.09-0.21
			c0.29-2.02,1.79-3.42,4.56-3.42c2.43,0,4.23,1.05,4.23,3.61v3.13c0,0.47,0.21,0.68,0.56,0.68c0.27,0,0.47-0.04,0.74-0.14v1.77
			c-0.47,0.33-1.13,0.6-2.08,0.6c-1.13,0-2.02-0.58-2.33-1.63c-0.54,1.07-1.59,1.63-3.05,1.63c-1.79,0-2.97-0.93-2.97-2.49
			c0-1.77,1.28-2.54,3.28-2.89l2.58-0.43v-0.14C367.82-594.96,367.47-595.41,366.67-595.41z M354.22-597.39l0.68-0.1
			c0.93-0.14,1.22-0.64,1.44-1.48l0.31-1.2h2.1v2.54h2.39v2.31h-2.39v3.36c0,0.78,0.37,1.09,1.05,1.09c0.41,0,0.87-0.08,1.42-0.31
			v2.16c-0.7,0.52-1.5,0.82-2.76,0.82c-1.55,0-3.01-0.64-3.01-2.8v-4.33h-1.24V-597.39z M349.95-601.43h3.38v2.93h-3.38V-601.43z
			 M338.2-597.64h3.34v1.59c0.45-1.09,1.48-1.83,3.03-1.83c2.7,0,4.08,2.14,4.08,4.84c0,2.72-1.38,4.84-4.08,4.84
			c-1.55,0-2.58-0.74-3.03-1.81v4.87h-3.34V-597.64z M331.51-595.41c-0.74,0-1.11,0.47-1.26,1.15l-3.09-0.21
			c0.29-2.02,1.79-3.42,4.56-3.42c2.43,0,4.23,1.05,4.23,3.61v3.13c0,0.47,0.21,0.68,0.56,0.68c0.27,0,0.47-0.04,0.74-0.14v1.77
			c-0.47,0.33-1.13,0.6-2.08,0.6c-1.13,0-2.02-0.58-2.33-1.63c-0.54,1.07-1.59,1.63-3.05,1.63c-1.79,0-2.97-0.93-2.97-2.49
			c0-1.77,1.28-2.54,3.28-2.89l2.58-0.43v-0.14C332.66-594.96,332.31-595.41,331.51-595.41z M319.72-601.68
			c3.98,0,6.1,2.54,6.35,5.77l-3.36,0.12c-0.21-1.44-0.99-2.78-3.01-2.78c-1.92,0-3.03,1.42-3.03,3.63s1.11,3.63,3.03,3.63
			c2.02,0,2.8-1.34,3.01-2.78l3.36,0.14c-0.25,3.24-2.37,5.75-6.35,5.75c-3.79,0-6.66-2.74-6.66-6.74S315.93-601.68,319.72-601.68z
			 M306.63-591.99h3.55v3.55h-3.55V-591.99z M304.22-531.25h27.29v23.63h-27.29V-531.25z M262.3-597.64l1.65,5.22h0.08l1.34-5.22
			h2.66l1.34,5.22h0.08l1.65-5.22h2.92h0.09h3.23l1.65,5.22h0.08l1.34-5.22h2.66l1.34,5.22h0.08l1.65-5.22h2.92h0.09h3.23l1.65,5.22
			h0.08l1.34-5.22h2.66l1.34,5.22h0.08l1.65-5.22h3.01l-2.91,9.19h-3.28l-1.34-5.19h-0.08l-1.34,5.19h-3.28l-2.86-9.06l-2.86,9.06
			h-3.28l-1.34-5.19h-0.08l-1.34,5.19h-3.28l-2.86-9.06l-2.86,9.06h-3.28l-1.34-5.19h-0.08l-1.34,5.19h-3.28l-2.91-9.19H262.3z
			 M209.36-500.62h26.96v12.81c3.66-8.82,11.98-14.81,24.46-14.81c21.8,0,32.95,17.31,32.95,39.11c0,21.97-11.15,39.11-32.95,39.11
			c-12.48,0-20.8-5.99-24.46-14.65v39.28h-26.96V-500.62z M204.13-278.49h45.99v170.42h-45.99V-278.49z M155.27-482.65
			c-5.99,0-8.99,3.83-10.15,9.32L120.16-475c2.33-16.31,14.48-27.63,36.78-27.63c19.64,0,34.12,8.49,34.12,29.12v25.3
			c0,3.83,1.66,5.49,4.49,5.49c2.16,0,3.83-0.33,5.99-1.17v14.31c-3.83,2.66-9.15,4.83-16.81,4.83c-9.15,0-16.31-4.66-18.81-13.15
			c-4.33,8.65-12.81,13.15-24.63,13.15c-14.48,0-23.97-7.49-23.97-20.14c0-14.31,10.32-20.47,26.46-23.3l20.8-3.5v-1.16
			C164.59-478.99,161.77-482.65,155.27-482.65z M60.08-533.25c32.12,0,49.26,20.47,51.26,46.6l-27.13,1
			c-1.66-11.65-7.99-22.47-24.3-22.47c-15.48,0-24.46,11.48-24.46,29.29s8.99,29.29,24.46,29.29c16.31,0,22.63-10.82,24.3-22.47
			l27.13,1.17c-2,26.13-19.14,46.43-51.26,46.43c-30.62,0-53.76-22.13-53.76-54.42C6.33-511.11,29.46-533.25,60.08-533.25z"/>
		<path class="st5" d="M23.03,334.3h-0.14l0.25,1.36c0.16,0.8,0.41,1.28,1.01,1.28c0.47,0,0.78-0.37,0.78-0.93
			C24.92,335.06,24.22,334.3,23.03,334.3z"/>
		<path class="st5" d="M23.03,369.46h-0.14l0.25,1.36c0.16,0.8,0.41,1.28,1.01,1.28c0.47,0,0.78-0.37,0.78-0.93
			C24.92,370.22,24.22,369.46,23.03,369.46z"/>
		<path class="st5" d="M451.2,420.83c5.47,4.5,16.57,12.16,25.19,12.16c1.19,0,2.34-0.15,3.45-0.4l-35.36-50.08
			C448.27,398.95,450.41,414.54,451.2,420.83z"/>
		<path class="st5" d="M27.81,171.93c-0.39,0-0.54,0.29-0.54,0.85v3.38c0,0.37,0.21,0.62,0.56,0.62c0.66,0,0.84-0.93,0.84-2.16
			C28.68,173.06,28.37,171.93,27.81,171.93z"/>
		<polygon class="st5" points="21.73,262.2 17.89,263.69 17.89,263.77 21.73,265.25 		"/>
		<path class="st5" d="M22.26,194.68c1.38,0,2.33-0.49,2.33-1.67c0-1.15-0.95-1.67-2.33-1.67c-1.38,0-2.33,0.52-2.33,1.67
			C19.94,194.19,20.88,194.68,22.26,194.68z"/>
		<path class="st5" d="M450.85,366.06l41.08,58.18c3.41-4.17,5.73-8.82,6.9-11.48l-19.31-55.94l-1.27-1.45l-9.07-1.64
			c-6.5,2.63-13.33,5.09-20.48,7.36C449.06,362.88,449.78,364.56,450.85,366.06z"/>
		<path class="st5" d="M533.05,316.76c7.8,7.98,12.41,15.53,18.62,27.54c5.82,11.26,11.74,23.39,17.03,34.48
			c-3.54-24.94-7.11-45-9.32-48.93c-4.87-8.59-9.98-10.28-20.48-12.08C537.62,317.55,535.61,317.2,533.05,316.76z"/>
		<path class="st5" d="M564.67,109.95c-4.46-15.87-13.96-28.75-27.59-38.08l-4.95,11.86l-22.15-9.25l5.53-13.24
			c-10.26-3.5-21.82-5.65-34.52-6.31c-10.36-0.54-21.3-1.32-32.88-2.14c-21.26-1.51-44.18-3.13-63.38-3.13
			c-13.54,0-25.22,0.81-33.16,3.04c-19.18,5.39-52.75,29.27-82.37,50.34c-9.46,6.73-18.4,13.09-26.96,18.94
			c-12.61,8.63-22.72,18.23-30.17,28.46l11.95,4.99l-9.25,22.15l-14.02-5.85c-4.62,13.24-5.17,27.05-1.31,40.8
			c2.62,9.34,5.22,19.21,7.73,28.76c7.19,27.36,14.63,55.65,21.1,64.72c2.95,4.13,19.26,20.86,49.35,34.79l3.62-10.96l22.79,7.53
			l-4.03,12.19c18.86,6.1,43.11,10.83,72.03,10.09c-0.04-0.35-0.07-0.68-0.11-1.03c-0.51-5.04-1.36-13.52,2.44-20.18
			c-36.31-0.73-63.87-13.05-82.57-25.49c-30.36-20.19-53.75-51.42-62.57-83.55c-9.47-34.48,23.61-75.85,44.17-97.45
			c28.01-29.42,63.47-54.93,84.31-60.65s64.35-1.9,103.46,9.1c28.71,8.07,78.28,26.75,87.74,61.23
			c8.82,32.12,4.66,70.92-11.14,103.78c-6.56,13.66-16.63,29.33-31.94,43.96c6.12,6.35,11.98,12.4,16.36,16.82
			c15.67-12.52,27.38-25.43,35.9-36.72c5.99-7.94,10.88-15.62,14.84-22.76l-9.42-3.11l7.53-22.79l12.14,4.01
			c3.87-10.18,5.34-17.45,5.53-20.05c0.8-11.11-7.58-39.14-15.67-66.24C570.22,129.08,567.29,119.29,564.67,109.95z"/>
		<path class="st5" d="M419.32,333.65c5.53,3.71,10.27,9.24,14.25,16.61c0.49-0.13,0.97-0.25,1.46-0.39
			c10.58-2.97,20.43-6.4,29.59-10.15l-13.72-15.78c-6.81,2.7-14.06,5.14-21.83,7.27C425.78,332.12,422.53,332.93,419.32,333.65z"/>
		<path d="M603.38,205.83c0.99-13.8-7-40.54-16.25-71.5c-2.81-9.4-5.72-19.13-8.31-28.35c-5.53-19.68-17.76-36.1-35.39-47.49
			c-0.2-0.13-0.41-0.25-0.61-0.38l7.24-17.33l-22.15-9.25l-6.77,16.2c-11.93-4.18-25.21-6.73-39.39-7.48
			c-10.23-0.54-21.1-1.31-32.61-2.12c-39.28-2.78-79.9-5.66-101.55,0.42c-21.65,6.08-54.83,29.68-86.92,52.51
			c-9.4,6.69-18.29,13.01-26.74,18.79c-14.83,10.15-26.96,22.01-35.69,34.82l-17.19-7.18l-9.25,22.15l15.4,6.43
			c-5.92,16.42-6.62,33.68-1.92,50.43c2.59,9.22,5.17,19.04,7.67,28.53c8.22,31.25,15.32,58.25,23.35,69.51
			c6.31,8.85,26.73,26.65,56.68,40.3l-6.35,19.21l22.79,7.53l5.96-18.05c18.8,6.08,42.56,10.92,70.66,10.92c2.48,0,5-0.04,7.55-0.12
			c1.58,14.03,3.27,27.3,4.92,40.24c1.35,10.58,2.74,21.51,4.07,32.84c-9.92,60.94,13.2,112.74,18.54,123.65l-2.33,24.02
			c-0.39,4.04,2.56,7.63,6.6,8.02c0.24,0.02,0.48,0.03,0.72,0.03c3.74,0,6.94-2.84,7.3-6.64l1.65-17.01l0.89-9.14
			c0.14-1.44-0.15-2.88-0.82-4.16c-0.29-0.54-28.48-54.59-17.88-117.4c0.12-0.69,0.13-1.38,0.05-2.08
			c-1.38-11.78-2.82-23.09-4.21-34.02c-2.34-18.38-4.55-35.74-6.55-55.55c-1.21-12,0.71-12.48,3.9-13.27
			c12.61-3.12,26.87-3.7,36.39,29.12c6.91,23.81,10.06,52.05,10.09,52.33c0.19,1.77,1.02,3.4,2.33,4.61
			c1.97,1.82,19.8,17.76,37.13,17.76c20.18,0,31.27-18.92,35.38-27.84c0.09-0.19,0.16-0.36,0.24-0.54c0.99-2.2,1.52-3.69,1.61-3.96
			c0.02-0.07,0.04-0.14,0.06-0.21c0.04-0.14,0.08-0.27,0.12-0.41c0.03-0.1,0.05-0.21,0.07-0.31c0.03-0.13,0.05-0.26,0.07-0.39
			c0.02-0.11,0.03-0.22,0.04-0.34c0.01-0.12,0.02-0.25,0.03-0.37c0.01-0.12,0.01-0.24,0.01-0.36c0-0.12,0-0.24-0.01-0.36
			c-0.01-0.12-0.02-0.25-0.03-0.37c-0.01-0.11-0.02-0.23-0.04-0.34c-0.02-0.13-0.04-0.26-0.07-0.39c-0.02-0.11-0.04-0.21-0.07-0.32
			c-0.03-0.14-0.08-0.27-0.12-0.41c-0.02-0.07-0.04-0.14-0.06-0.21l-20.68-59.88c-0.31-0.89-0.78-1.71-1.4-2.42l-53.71-61.76
			c-8.29-12.27-6.11-22.27-0.21-26.78c8.35-6.38,19.35-0.25,26.21,6.92c1.9,2,46.55,49.09,54.81,56.61c9,8.2,13.06,14.4,19.98,27.78
			c10.05,19.43,20.43,41.63,27.3,56.32c2.59,5.53,4.63,9.91,6.02,12.76c10.59,21.82,11.82,35.33,4.4,50.78
			c-0.24,0.49-0.48,0.99-0.73,1.48c-0.03,0.05-0.04,0.1-0.07,0.15c-0.02,0.05-0.05,0.1-0.08,0.15
			c-18.24,40.06-62.6,107.1-63.04,107.77c-0.89,1.34-1.31,2.93-1.21,4.53l0.73,11.27c0.25,3.89,3.48,6.88,7.32,6.88
			c0.16,0,0.32-0.01,0.48-0.02c4.05-0.26,7.12-3.75,6.86-7.8l-0.57-8.81c7.81-11.89,45.64-70.06,62.77-107.64
			c10.32-20.32,8.09-37.78,0.25-56.57c-2.8-24.6-10.56-88.54-16.88-99.68c-6.94-12.23-15.65-16.13-25.49-18.3
			c9.41-9.01,17.06-17.89,23.17-25.99c6.9-9.15,12.61-18.29,17.25-26.94l20.64,6.82l7.53-22.79l-18.1-5.98
			C601.03,219.22,603.01,210.89,603.38,205.83z M476.39,433c-8.62,0-19.72-7.66-25.19-12.16c-0.79-6.3-2.93-21.88-6.72-38.32
			l35.36,50.08C478.73,432.85,477.58,433,476.39,433z M478.25,355.38l1.27,1.45l19.31,55.94c-1.17,2.66-3.49,7.31-6.9,11.48
			l-41.08-58.18c-1.06-1.5-1.78-3.19-2.14-4.97c7.15-2.27,13.98-4.73,20.48-7.36L478.25,355.38z M464.63,339.71
			c-9.17,3.76-19.01,7.18-29.59,10.15c-0.49,0.14-0.97,0.26-1.46,0.39c-3.98-7.37-8.72-12.89-14.25-16.61
			c3.2-0.72,6.46-1.53,9.76-2.44c7.76-2.13,15.02-4.58,21.83-7.27L464.63,339.71z M428.7,248.05c-11.72,8.95-14.16,24.59-6.93,39.87
			l-22.04,6.05c-3.7,1.02-7.58,0.53-10.92-1.37c-3.34-1.9-5.74-4.99-6.75-8.69l-9.77-35.57c-2.1-7.65,2.41-15.57,10.06-17.67
			l35.57-9.77c1.27-0.35,2.55-0.52,3.83-0.52c2.46,0,4.89,0.64,7.09,1.89c3.34,1.9,5.74,4.99,6.75,8.69l3.33,12.13
			C435.32,243.99,431.87,245.63,428.7,248.05z M495.64,278.74c-11.22-11.73-20.95-21.99-21.17-22.22
			c-6.31-6.6-13.26-10.96-20.18-12.97l-4.53-16.48c-2.06-7.49-6.91-13.73-13.65-17.57c-6.75-3.84-14.59-4.82-22.08-2.77l-35.57,9.77
			c-15.46,4.24-24.58,20.27-20.34,35.73l9.77,35.57c2.06,7.49,6.91,13.73,13.65,17.57c4.44,2.53,9.36,3.82,14.33,3.82
			c2.58,0,5.18-0.35,7.74-1.05l27.08-7.44l9.93,11.42c-4.89,1.78-10.04,3.43-15.44,4.92c-58.9,16.17-100.62,0.04-125.25-16.34
			c-32.37-21.53-50.43-52.96-56.54-75.2c-5.52-20.09,9.3-50.5,40.65-83.43c22.38-23.51,57.51-51.11,77.56-56.62
			c5.42-1.49,12.62-2.15,20.85-2.15c22.2,0,51.95,4.82,74.74,11.22c43.77,12.3,72.03,30.88,77.55,50.97
			c6.11,22.24,6.63,58.49-10.21,93.53C518.61,251.36,509.51,265.5,495.64,278.74z M559.37,329.85c2.21,3.92,5.78,23.99,9.32,48.93
			c-5.29-11.09-11.2-23.22-17.03-34.48c-6.21-12-10.82-19.56-18.62-27.54c2.56,0.45,4.58,0.8,5.84,1.01
			C549.39,319.57,554.5,321.26,559.37,329.85z M588.72,204.77c-0.19,2.6-1.66,9.87-5.53,20.05l-12.14-4.01l-7.53,22.79l9.42,3.11
			c-3.97,7.14-8.85,14.82-14.84,22.76c-8.51,11.29-20.23,24.2-35.9,36.72c-4.38-4.42-10.24-10.47-16.36-16.82
			c15.32-14.64,25.38-30.31,31.94-43.96c15.79-32.86,19.96-71.66,11.14-103.78c-9.47-34.48-59.04-53.16-87.74-61.23
			c-39.11-10.99-82.62-14.82-103.46-9.1s-56.29,31.23-84.31,60.65c-20.56,21.6-53.64,62.97-44.17,97.45
			c8.82,32.12,32.21,63.36,62.57,83.55c18.7,12.44,46.26,24.76,82.57,25.49c-3.8,6.67-2.95,15.14-2.44,20.18
			c0.03,0.35,0.07,0.68,0.11,1.03c-28.92,0.74-53.16-3.99-72.03-10.09l4.03-12.19l-22.79-7.53l-3.62,10.96
			c-30.09-13.93-46.41-30.66-49.35-34.79c-6.47-9.07-13.91-37.36-21.1-64.72c-2.51-9.55-5.11-19.42-7.73-28.76
			c-3.86-13.75-3.32-27.56,1.31-40.8l14.02,5.85l9.25-22.15l-11.95-4.99c7.45-10.23,17.56-19.84,30.17-28.46
			c8.56-5.86,17.5-12.21,26.96-18.94c29.62-21.07,63.19-44.95,82.37-50.34c7.94-2.23,19.62-3.04,33.16-3.04
			c19.19,0,42.12,1.62,63.38,3.13c11.58,0.82,22.52,1.6,32.88,2.14c12.7,0.67,24.26,2.82,34.52,6.31l-5.53,13.24l22.15,9.25
			l4.95-11.86c13.63,9.33,23.14,22.21,27.59,38.08c2.62,9.34,5.55,19.13,8.37,28.59C581.15,165.64,589.52,193.66,588.72,204.77z"/>
		<path class="st5" d="M379.87,144.4c-5.33,1.46-7.51,5.44-6.26,10.01c1.31,4.76,5.21,7.06,10.54,5.6
			c5.14-1.41,7.32-5.39,6.02-10.15C388.94,145.39,385.01,142.99,379.87,144.4z"/>
		<path class="st5" d="M534.74,145.51c-5.52-20.09-33.78-38.67-77.55-50.97c-22.79-6.41-52.54-11.22-74.74-11.22
			c-8.23,0-15.43,0.66-20.85,2.15c-20.05,5.5-55.18,33.11-77.56,56.62c-31.35,32.93-46.16,63.33-40.65,83.43
			c6.11,22.24,24.17,53.67,56.54,75.2c24.63,16.38,66.35,32.51,125.25,16.34c5.41-1.49,10.55-3.13,15.44-4.92l-9.93-11.42
			l-27.08,7.44c-2.56,0.7-5.16,1.05-7.74,1.05c-4.98,0-9.89-1.29-14.33-3.82c-6.75-3.84-11.6-10.08-13.65-17.57l-9.77-35.57
			c-4.24-15.46,4.88-31.49,20.34-35.73l35.57-9.77c7.49-2.06,15.33-1.07,22.08,2.77c6.75,3.84,11.6,10.08,13.65,17.57l4.53,16.48
			c6.92,2.01,13.87,6.37,20.18,12.97c0.22,0.23,9.95,10.49,21.17,22.22c13.88-13.24,22.98-27.38,28.9-39.7
			C541.38,204,540.85,167.75,534.74,145.51z M345.3,205.99l-35.63-28.39l9.75,35.5l-14.85,4.08l-16.46-59.96l15.42-4.23l32.53,26.79
			l-9.12-33.21l14.85-4.08l16.46,59.96L345.3,205.99z M392.82,194.17c-12.94,3.55-23.17-0.9-27.61-12.58l14.96-4.41
			c1.6,3.96,4.93,5.3,9.41,4.07c6.66-1.83,8.92-8.9,7.08-17.81c-1.82,4.18-6.19,7.64-12,9.23c-13.13,3.61-23.13-2.25-26.27-13.67
			c-3.55-12.94,4.11-23.44,17.71-27.18c16.85-4.62,29.13,4.69,34.35,23.73C415.48,173.82,410.23,189.38,392.82,194.17z
			 M451.92,177.94c-15.89,4.36-26.57-1.71-29.88-15.64l15.8-3.21c1.51,5.11,5.46,7.2,10.5,5.82c4.85-1.33,7.35-5.29,5.94-10.43
			c-1.28-4.66-5.14-7.9-10.47-6.44c-3.81,1.04-5.58,3.17-6.47,5.87l-15.83,3.12c-0.82-8.58-2.97-24.98-5.4-34.95l37.59-10.32
			l3.87,14.09l-25.7,7.06c0.52,2.62,0.81,5.92,0.96,8.33c1.65-2.19,4.52-4.41,9.75-5.85c13.9-3.81,23.32,3.32,26.54,15.02
			C472.79,163.71,465.15,174.3,451.92,177.94z"/>
		<path class="st5" d="M428.84,222.27c-2.2-1.25-4.63-1.89-7.09-1.89c-1.28,0-2.56,0.17-3.83,0.52l-35.57,9.77
			c-7.65,2.1-12.16,10.03-10.06,17.67l9.77,35.57c1.02,3.7,3.42,6.79,6.75,8.69c3.34,1.9,7.22,2.39,10.92,1.37l22.04-6.05
			c-7.22-15.27-4.78-30.92,6.93-39.87c3.17-2.42,6.62-4.06,10.22-4.96l-3.33-12.13C434.57,227.25,432.17,224.17,428.84,222.27z"/>
		<polygon points="326.93,146.55 336.05,179.77 303.52,152.98 288.1,157.21 304.56,217.17 319.41,213.09 309.66,177.6 345.3,205.99 
			358.24,202.43 341.78,142.47 		"/>
		<path d="M376.11,131.82c-13.61,3.74-21.27,14.23-17.71,27.18c3.14,11.42,13.13,17.27,26.27,13.67c5.81-1.59,10.18-5.05,12-9.23
			c1.83,8.91-0.42,15.98-7.08,17.81c-4.47,1.23-7.81-0.11-9.41-4.07l-14.96,4.41c4.43,11.68,14.67,16.14,27.61,12.58
			c17.42-4.78,22.66-20.35,17.64-38.62C405.24,136.51,392.95,127.19,376.11,131.82z M384.16,160.01c-5.33,1.46-9.24-0.84-10.54-5.6
			c-1.25-4.57,0.93-8.54,6.26-10.01c5.14-1.41,9.07,0.99,10.3,5.46C391.48,154.62,389.29,158.6,384.16,160.01z"/>
		<path d="M442.59,135.37c-5.23,1.44-8.1,3.66-9.75,5.85c-0.15-2.42-0.44-5.71-0.96-8.33l25.7-7.06l-3.87-14.09l-37.59,10.32
			c2.43,9.98,4.58,26.38,5.4,34.95l15.83-3.12c0.9-2.7,2.67-4.83,6.47-5.87c5.33-1.46,9.19,1.78,10.47,6.44
			c1.41,5.14-1.08,9.1-5.94,10.43c-5.04,1.39-9-0.7-10.5-5.82l-15.8,3.21c3.31,13.93,13.99,20.01,29.88,15.64
			c13.23-3.63,20.86-14.22,17.2-27.55C465.91,138.68,456.48,131.55,442.59,135.37z"/>
		<polygon points="17.67,400.93 22.88,402.58 22.88,402.66 17.67,404 17.67,406.66 22.88,408 22.88,408.08 17.67,409.73 
			17.67,412.96 17.67,413.05 17.67,415.97 22.88,417.62 22.88,417.7 17.67,419.04 17.67,421.7 22.88,423.04 22.88,423.13 
			17.67,424.78 17.67,428.01 17.67,428.09 17.67,431.02 22.88,432.67 22.88,432.75 17.67,434.09 17.67,436.75 22.88,438.09 
			22.88,438.17 17.67,439.82 17.67,443.14 26.86,440.23 26.86,436.96 21.67,435.62 21.67,435.53 26.86,434.19 26.86,430.92 
			17.8,428.05 26.86,425.19 26.86,421.91 21.67,420.57 21.67,420.49 26.86,419.15 26.86,415.87 17.8,413.01 26.86,410.14 
			26.86,406.86 21.67,405.52 21.67,405.44 26.86,404.1 26.86,400.82 17.67,397.92 		"/>
		<rect x="23.32" y="391.94" width="3.55" height="3.55"/>
		<path d="M21.36,376.05l-0.14,3.36c1.44,0.21,2.78,0.99,2.78,3.01c0,1.92-1.42,3.03-3.63,3.03c-2.21,0-3.63-1.11-3.63-3.03
			c0-2.02,1.34-2.8,2.78-3.01l-0.12-3.36c-3.24,0.25-5.77,2.37-5.77,6.35c0,3.79,2.74,6.66,6.74,6.66c4,0,6.74-2.87,6.74-6.66
			C27.11,378.42,24.59,376.3,21.36,376.05z"/>
		<path d="M24.16,366.18h-3.13c-2.56,0-3.61,1.79-3.61,4.23c0,2.76,1.4,4.27,3.42,4.56l0.21-3.09c-0.68-0.14-1.15-0.52-1.15-1.26
			c0-0.8,0.45-1.15,1.22-1.15h0.14l0.43,2.58c0.35,2,1.11,3.28,2.89,3.28c1.57,0,2.49-1.17,2.49-2.97c0-1.46-0.56-2.52-1.63-3.05
			c1.05-0.31,1.63-1.2,1.63-2.33c0-0.95-0.27-1.61-0.6-2.08H24.7c0.1,0.27,0.14,0.47,0.14,0.74
			C24.84,365.97,24.64,366.18,24.16,366.18z M24.92,371.17c0,0.56-0.31,0.93-0.78,0.93c-0.6,0-0.85-0.47-1.01-1.28l-0.25-1.36h0.14
			C24.22,369.46,24.92,370.22,24.92,371.17z"/>
		<path d="M27.11,357.54c0-2.7-2.12-4.08-4.84-4.08c-2.7,0-4.84,1.38-4.84,4.08c0,1.55,0.74,2.58,1.83,3.03h-1.59v3.34h12.49v-3.34
			h-4.86C26.37,360.12,27.11,359.09,27.11,357.54z M22.33,360.57H22.2c-1.32,0-2.19-0.72-2.19-1.86c0-1.3,0.93-1.9,2.25-1.9
			c1.34,0,2.27,0.6,2.27,1.9C24.53,359.85,23.67,360.57,22.33,360.57z"/>
		<rect x="13.87" y="348.79" width="2.93" height="3.38"/>
		<rect x="17.67" y="348.81" width="9.19" height="3.34"/>
		<path d="M26.28,340.89h-2.16c0.23,0.56,0.31,1.01,0.31,1.42c0,0.68-0.31,1.05-1.09,1.05h-3.36v-2.39h-2.31v2.39h-2.54v2.1
			l1.2,0.31c0.85,0.23,1.34,0.52,1.48,1.44l0.1,0.68h2.06v-1.24h4.33c2.16,0,2.8-1.46,2.8-3.01
			C27.11,342.4,26.8,341.59,26.28,340.89z"/>
		<path d="M24.16,331.02h-3.13c-2.56,0-3.61,1.79-3.61,4.23c0,2.76,1.4,4.27,3.42,4.56l0.21-3.09c-0.68-0.14-1.15-0.52-1.15-1.26
			c0-0.8,0.45-1.15,1.22-1.15h0.14l0.43,2.58c0.35,2,1.11,3.28,2.89,3.28c1.57,0,2.49-1.17,2.49-2.97c0-1.46-0.56-2.52-1.63-3.05
			c1.05-0.31,1.63-1.2,1.63-2.33c0-0.95-0.27-1.61-0.6-2.08H24.7c0.1,0.27,0.14,0.47,0.14,0.74
			C24.84,330.81,24.64,331.02,24.16,331.02z M24.92,336.01c0,0.56-0.31,0.93-0.78,0.93c-0.6,0-0.85-0.47-1.01-1.28l-0.25-1.36h0.14
			C24.22,334.3,24.92,335.06,24.92,336.01z"/>
		<rect x="13.87" y="325.41" width="12.99" height="3.34"/>
		<rect x="17.67" y="320.26" width="9.19" height="3.34"/>
		<rect x="13.87" y="320.24" width="2.93" height="3.38"/>
		<path d="M24.06,310.22c-1.79,0-2.72,1.2-3.05,3.26l-0.31,1.79c-0.04,0.31-0.21,0.56-0.52,0.56c-0.41,0-0.66-0.37-0.66-1.01
			c0-1.03,0.41-1.61,1.07-1.73l-0.08-2.74c-1.92,0.19-3.09,1.75-3.09,4.41c0,2.58,1.3,4.16,3.11,4.16c1.88,0,2.6-1.17,2.95-3.4
			l0.21-1.36c0.1-0.64,0.35-0.85,0.7-0.85c0.37,0,0.64,0.39,0.64,1.13c0,1.01-0.43,1.63-1.2,1.75l0.04,2.91
			c2.23-0.19,3.24-2.08,3.24-4.62C27.11,311.87,26,310.22,24.06,310.22z"/>
		<path d="M17.42,302.74c0,1.38,0.62,2.37,1.63,2.87h-1.38v3.34h9.19v-3.34h-4.51c-1.38,0-2.29-0.39-2.29-1.48
			c0-1.01,0.66-1.26,1.92-1.26h4.89v-3.34h-4.51c-1.38,0-2.29-0.37-2.29-1.48c0-1.01,0.66-1.24,1.92-1.24h4.89v-3.34h-5.77
			c-1.92,0-3.67,0.74-3.67,3.28c0,1.55,0.78,2.64,1.81,3.13C18.16,300.27,17.42,301.11,17.42,302.74z"/>
		<rect x="13.87" y="284.71" width="12.99" height="3.5"/>
		<path d="M23.83,280.57l0.04,2.91c2.23-0.19,3.24-2.08,3.24-4.62c0-2.62-1.11-4.27-3.05-4.27c-1.79,0-2.72,1.2-3.05,3.26
			l-0.31,1.79c-0.04,0.31-0.21,0.56-0.52,0.56c-0.41,0-0.66-0.37-0.66-1.01c0-1.03,0.41-1.61,1.07-1.73l-0.08-2.74
			c-1.92,0.19-3.09,1.75-3.09,4.41c0,2.58,1.3,4.16,3.11,4.16c1.88,0,2.6-1.18,2.95-3.4l0.21-1.36c0.1-0.64,0.35-0.85,0.7-0.85
			c0.37,0,0.64,0.39,0.64,1.13C25.03,279.82,24.59,280.44,23.83,280.57z"/>
		<path d="M13.87,265.58l12.99,5.17v-3.52l-2.51-0.97v-5.07l2.51-0.97v-3.73l-12.99,5.17V265.58z M17.89,263.69l3.83-1.48v3.05
			l-3.83-1.48V263.69z"/>
		<polygon points="13.87,250.97 13.87,254.64 26.86,249.65 26.86,245.96 13.87,240.97 13.87,244.46 22.51,247.67 22.51,247.75 		"/>
		<rect x="17.67" y="236.73" width="9.19" height="3.34"/>
		<rect x="13.87" y="236.71" width="2.93" height="3.38"/>
		<path d="M19.3,231.58h-1.63v3.34h9.19v-3.34h-4.21c-1.55,0-2.12-0.76-2.12-2c0-0.64,0.12-1.13,0.39-1.59l-3.15-0.21
			c-0.19,0.23-0.35,0.72-0.35,1.28C17.42,230.28,18.27,231.25,19.3,231.58z"/>
		<path d="M22.57,223.52h-4.91v3.34h5.79c1.92,0,3.65-0.76,3.65-3.28c0-1.38-0.6-2.39-1.63-2.89h1.38v-3.34h-9.19v3.34h4.51
			c1.4,0,2.31,0.41,2.31,1.46C24.49,223.17,23.81,223.52,22.57,223.52z"/>
		<path d="M20.53,216.02c1.88,0,2.6-1.18,2.95-3.4l0.21-1.36c0.1-0.64,0.35-0.85,0.7-0.85c0.37,0,0.64,0.39,0.64,1.13
			c0,1.01-0.43,1.63-1.2,1.75l0.04,2.91c2.23-0.19,3.24-2.08,3.24-4.62c0-2.62-1.11-4.27-3.05-4.27c-1.79,0-2.72,1.2-3.05,3.26
			l-0.31,1.79c-0.04,0.31-0.21,0.56-0.52,0.56c-0.41,0-0.66-0.37-0.66-1.01c0-1.03,0.41-1.61,1.07-1.73l-0.08-2.74
			c-1.92,0.19-3.09,1.75-3.09,4.41C17.42,214.43,18.72,216.02,20.53,216.02z"/>
		<rect x="23.32" y="200.93" width="3.55" height="3.55"/>
		<path d="M22.26,198.04c2.87,0,4.84-2.02,4.84-5.03c0-2.99-1.98-5.03-4.84-5.03c-2.84,0-4.84,2.04-4.84,5.03
			C17.42,196.02,19.42,198.04,22.26,198.04z M22.26,191.34c1.38,0,2.33,0.52,2.33,1.67c0,1.17-0.95,1.67-2.33,1.67
			c-1.38,0-2.33-0.49-2.33-1.67C19.94,191.86,20.88,191.34,22.26,191.34z"/>
		<path d="M17.77,179.53c-0.19,0.23-0.35,0.72-0.35,1.28c0,1.22,0.85,2.19,1.88,2.52h-1.63v3.34h9.19v-3.34h-4.21
			c-1.55,0-2.12-0.76-2.12-2c0-0.64,0.12-1.13,0.39-1.59L17.77,179.53z"/>
		<path d="M27.07,168.86c-1.55,0-2.64,1.05-2.64,3.13v3.81c0,0.56-0.25,0.78-0.56,0.78c-0.19,0-0.33-0.06-0.43-0.19
			c0.19-0.6,0.27-1.26,0.27-2c0-2.6-1.2-4.47-3.13-4.47c-0.43,0-0.82,0.1-1.18,0.29c-0.1-0.45-0.14-0.95-0.14-1.34h-2.52
			c0,1.01,0.66,2.02,1.42,2.58c-0.47,0.78-0.74,1.83-0.74,2.95c0,2.58,1.2,4.43,3.15,4.43c1.01,0,1.79-0.49,2.33-1.32
			c0.37,0.99,1.05,1.57,1.94,1.57c0.78,0,1.53-0.49,1.79-1.32c0.08,1.03,0.72,1.75,1.53,1.75c1.73,0,2.25-2.27,2.25-4.89
			C30.41,171.64,29.36,168.86,27.07,168.86z M20.57,175.33c-0.8,0-1.32-0.41-1.32-0.97c0-0.56,0.52-0.97,1.32-0.97
			c0.82,0,1.34,0.41,1.34,0.97C21.91,174.92,21.4,175.33,20.57,175.33z M27.83,176.77c-0.35,0-0.56-0.25-0.56-0.62v-3.38
			c0-0.56,0.14-0.85,0.54-0.85c0.56,0,0.87,1.13,0.87,2.68C28.68,175.84,28.49,176.77,27.83,176.77z"/>
		<path d="M769.43,210.42v1.98l-2.02-0.49v-1.88l-2.06-0.43v1.81l-3.42-0.8v2.49l3.42,0.8v1.77l-3.42-0.8v2.49l3.42,0.8v2.04
			l2.06,0.43v-1.98l2.02,0.49v1.88l2.06,0.43v-1.83l3.42,0.82v-2.49l-3.42-0.82v-1.77l3.42,0.83v-2.49l-3.42-0.82v-2.02
			L769.43,210.42z M769.43,216.66l-2.02-0.49v-1.77l2.02,0.5V216.66z"/>
		<path d="M768.42,224.09c-4,0-6.74,2.87-6.74,6.66c0,3.98,2.51,6.1,5.75,6.35l0.14-3.36c-1.44-0.21-2.78-0.99-2.78-3.01
			c0-1.92,1.42-3.03,3.63-3.03s3.63,1.11,3.63,3.03c0,2.02-1.34,2.8-2.78,3.01l0.12,3.36c3.24-0.25,5.77-2.37,5.77-6.35
			C775.16,226.95,772.42,224.09,768.42,224.09z"/>
		<path d="M761.72,246.18c0,0.95,0.27,1.61,0.6,2.08h1.77c-0.1-0.27-0.14-0.47-0.14-0.74c0-0.35,0.21-0.56,0.68-0.56h3.13
			c2.56,0,3.61-1.79,3.61-4.23c0-2.76-1.4-4.27-3.42-4.56l-0.21,3.09c0.68,0.14,1.15,0.52,1.15,1.26c0,0.8-0.45,1.15-1.22,1.15
			h-0.14l-0.43-2.58c-0.35-2-1.11-3.28-2.89-3.28c-1.57,0-2.49,1.18-2.49,2.97c0,1.46,0.56,2.52,1.63,3.05
			C762.3,244.16,761.72,245.05,761.72,246.18z M764.65,241.05c0.6,0,0.85,0.47,1.01,1.28l0.25,1.36h-0.14c-1.2,0-1.9-0.76-1.9-1.71
			C763.87,241.42,764.18,241.05,764.65,241.05z"/>
		<path d="M761.68,255.6c0,2.7,2.12,4.08,4.84,4.08c2.7,0,4.84-1.38,4.84-4.08c0-1.55-0.74-2.58-1.83-3.03h1.59v-3.34h-12.49v3.34
			h4.86C762.42,253.03,761.68,254.06,761.68,255.6z M766.46,252.57h0.12c1.32,0,2.18,0.72,2.18,1.86c0,1.3-0.93,1.9-2.25,1.9
			c-1.34,0-2.27-0.6-2.27-1.9C764.26,253.29,765.12,252.57,766.46,252.57z"/>
		<rect x="771.99" y="260.98" width="2.93" height="3.38"/>
		<rect x="761.93" y="261" width="9.19" height="3.34"/>
		<path d="M773.66,267.68l-1.2-0.31c-0.85-0.23-1.34-0.52-1.48-1.44l-0.1-0.68h-2.06v1.24h-4.33c-2.16,0-2.8,1.46-2.8,3.01
			c0,1.26,0.31,2.06,0.82,2.76h2.16c-0.23-0.56-0.31-1.01-0.31-1.42c0-0.68,0.31-1.05,1.09-1.05h3.36v2.39h2.31v-2.39h2.54V267.68z"
			/>
		<path d="M764.63,282.13h3.13c2.56,0,3.61-1.79,3.61-4.23c0-2.76-1.4-4.27-3.42-4.56l-0.21,3.09c0.68,0.14,1.15,0.52,1.15,1.26
			c0,0.8-0.45,1.15-1.22,1.15h-0.14l-0.43-2.58c-0.35-2-1.11-3.28-2.89-3.28c-1.57,0-2.49,1.18-2.49,2.97
			c0,1.46,0.56,2.51,1.63,3.05c-1.05,0.31-1.63,1.2-1.63,2.33c0,0.95,0.27,1.61,0.6,2.08h1.77c-0.1-0.27-0.14-0.47-0.14-0.74
			C763.95,282.33,764.16,282.13,764.63,282.13z M763.87,277.14c0-0.56,0.31-0.93,0.78-0.93c0.6,0,0.85,0.47,1.01,1.28l0.25,1.36
			h-0.14C764.57,278.85,763.87,278.09,763.87,277.14z"/>
		<rect x="761.93" y="284.39" width="12.99" height="3.34"/>
		<rect x="761.93" y="289.55" width="9.19" height="3.34"/>
		<rect x="771.99" y="289.53" width="2.93" height="3.38"/>
		<path d="M768.26,294.22c-1.88,0-2.6,1.18-2.95,3.4l-0.21,1.36c-0.1,0.64-0.35,0.85-0.7,0.85c-0.37,0-0.64-0.39-0.64-1.13
			c0-1.01,0.43-1.63,1.2-1.75l-0.04-2.91c-2.23,0.19-3.24,2.08-3.24,4.62c0,2.62,1.11,4.27,3.05,4.27c1.79,0,2.72-1.2,3.05-3.26
			l0.31-1.79c0.04-0.31,0.21-0.56,0.52-0.56c0.41,0,0.66,0.37,0.66,1.01c0,1.03-0.41,1.61-1.07,1.73l0.08,2.74
			c1.92-0.19,3.09-1.75,3.09-4.41C771.37,295.81,770.07,294.22,768.26,294.22z"/>
		<path d="M771.37,310.41c0-1.38-0.62-2.37-1.63-2.87h1.38v-3.34h-9.19v3.34h4.51c1.38,0,2.29,0.39,2.29,1.48
			c0,1.01-0.66,1.26-1.92,1.26h-4.89v3.34h4.51c1.38,0,2.29,0.37,2.29,1.48c0,1.01-0.66,1.24-1.92,1.24h-4.89v3.34h5.77
			c1.92,0,3.67-0.74,3.67-3.28c0-1.55-0.78-2.64-1.81-3.13C770.63,312.88,771.37,312.03,771.37,310.41z"/>
		<rect x="761.93" y="323.27" width="12.99" height="3.5"/>
		<path d="M764.96,330.92l-0.04-2.91c-2.23,0.19-3.24,2.08-3.24,4.62c0,2.62,1.11,4.27,3.05,4.27c1.79,0,2.72-1.2,3.05-3.26
			l0.31-1.79c0.04-0.31,0.21-0.56,0.52-0.56c0.41,0,0.66,0.37,0.66,1.01c0,1.03-0.41,1.61-1.07,1.73l0.08,2.74
			c1.92-0.19,3.09-1.75,3.09-4.41c0-2.58-1.3-4.16-3.11-4.16c-1.88,0-2.6,1.18-2.95,3.4l-0.21,1.36c-0.1,0.64-0.35,0.85-0.7,0.85
			c-0.37,0-0.64-0.39-0.64-1.13C763.76,331.66,764.2,331.04,764.96,330.92z"/>
		<path d="M761.93,342.59l2.51,0.97v5.07l-2.51,0.97v3.73l12.99-5.17v-3.92l-12.99-5.17V342.59z M767.06,344.57l3.83,1.48v0.08
			l-3.83,1.48V344.57z"/>
		<polygon points="761.93,363.81 774.92,368.8 774.92,365.31 766.28,362.1 766.28,362.01 774.92,358.8 774.92,355.13 761.93,360.12 
					"/>
		<rect x="761.93" y="369.7" width="9.19" height="3.34"/>
		<rect x="771.99" y="369.68" width="2.93" height="3.38"/>
		<path d="M769.49,378.19h1.63v-3.34h-9.19v3.34h4.21c1.55,0,2.12,0.76,2.12,2c0,0.64-0.12,1.13-0.39,1.59l3.15,0.21
			c0.19-0.23,0.35-0.72,0.35-1.28C771.37,379.49,770.52,378.52,769.49,378.19z"/>
		<path d="M766.22,386.25h4.91v-3.34h-5.79c-1.92,0-3.65,0.76-3.65,3.28c0,1.38,0.6,2.39,1.63,2.89h-1.38v3.34h9.19v-3.34h-4.51
			c-1.4,0-2.31-0.41-2.31-1.46C764.3,386.6,764.98,386.25,766.22,386.25z"/>
		<path d="M768.26,393.75c-1.88,0-2.6,1.18-2.95,3.4l-0.21,1.36c-0.1,0.64-0.35,0.85-0.7,0.85c-0.37,0-0.64-0.39-0.64-1.13
			c0-1.01,0.43-1.63,1.2-1.75l-0.04-2.91c-2.23,0.19-3.24,2.08-3.24,4.62c0,2.62,1.11,4.27,3.05,4.27c1.79,0,2.72-1.2,3.05-3.26
			l0.31-1.79c0.04-0.31,0.21-0.56,0.52-0.56c0.41,0,0.66,0.37,0.66,1.01c0,1.03-0.41,1.61-1.07,1.73l0.08,2.74
			c1.92-0.19,3.09-1.75,3.09-4.41C771.37,395.34,770.07,393.75,768.26,393.75z"/>
	</g>
</g>
</svg>
