<?xml version="1.0" encoding="utf-8"?>
<!-- Generator: Adobe Illustrator 23.1.1, SVG Export Plug-In . SVG Version: 6.00 Build 0)  -->
<svg version="1.1" xmlns="http://www.w3.org/2000/svg" xmlns:xlink="http://www.w3.org/1999/xlink" x="0px" y="0px"
	 viewBox="0 0 792 612" style="enable-background:new 0 0 792 612;" xml:space="preserve">
<style type="text/css">
	.st0{display:none;}
	.st1{display:inline;fill:#FFFFFF;}
	.st2{display:inline;}
	.st3{fill:#FFFFFF;stroke:#000000;stroke-width:16;stroke-linecap:round;stroke-linejoin:round;stroke-miterlimit:10;}
	.st4{fill:none;stroke:#000000;stroke-width:24;stroke-linejoin:round;stroke-miterlimit:10;}
	.st5{fill:#FFFFFF;}
	.st6{fill:#FFFFFF;stroke:#000000;stroke-width:17;stroke-linecap:round;stroke-miterlimit:10;}
	.st7{fill:#FFFFFF;stroke:#000000;stroke-width:17;stroke-miterlimit:10;}
	.st8{stroke:#000000;stroke-width:16.0572;stroke-linecap:round;stroke-miterlimit:10;}
	.st9{fill:#FFFFFF;stroke:#000000;stroke-width:13.497;stroke-linecap:round;stroke-linejoin:round;stroke-miterlimit:10;}
	.st10{stroke:#000000;stroke-width:18.3348;stroke-linecap:round;stroke-miterlimit:10;}
	.st11{fill:none;stroke:#000000;stroke-width:13.497;stroke-linecap:round;stroke-linejoin:round;stroke-miterlimit:10;}
	.st12{fill:#FFFFFF;stroke:#000000;stroke-width:14.6942;stroke-linecap:round;stroke-linejoin:round;stroke-miterlimit:10;}
	.st13{fill:none;stroke:#000000;stroke-width:13;stroke-linecap:round;stroke-linejoin:round;stroke-miterlimit:10;}
	.st14{fill:none;stroke:#000000;stroke-width:13;stroke-linejoin:round;stroke-miterlimit:10;}
	.st15{fill:url(#);stroke:#000000;stroke-width:13;stroke-linejoin:round;stroke-miterlimit:10;}
	.st16{fill:none;stroke:#000000;stroke-width:30.5612;stroke-linecap:round;stroke-linejoin:round;stroke-miterlimit:10;}
	.st17{fill:#FFFFFF;stroke:#000000;stroke-width:16.2993;stroke-linecap:round;stroke-linejoin:round;stroke-miterlimit:10;}
	.st18{fill:#FFFFFF;stroke:#000000;stroke-width:13.497;stroke-linecap:round;stroke-miterlimit:10;}
	.st19{fill:url(#);stroke:#000000;stroke-width:13.497;stroke-linecap:round;stroke-linejoin:round;stroke-miterlimit:10;}
	.st20{fill:#FFFFFF;stroke:#000000;stroke-width:11.7326;stroke-linecap:round;stroke-linejoin:round;stroke-miterlimit:10;}
	.st21{fill:#FFFFFF;stroke:#000000;stroke-width:13.2623;stroke-linecap:round;stroke-linejoin:round;stroke-miterlimit:10;}
	.st22{fill:#FFFFFF;stroke:#000000;stroke-width:13.2623;stroke-linecap:round;stroke-miterlimit:10;}
	.st23{stroke:#000000;stroke-width:4.5213;stroke-miterlimit:10;}
	.st24{fill:none;stroke:#000000;stroke-width:16;stroke-linecap:round;stroke-miterlimit:10;}
	.st25{fill:url(#);stroke:#000000;stroke-width:16;stroke-linecap:round;stroke-linejoin:round;stroke-miterlimit:10;}
	.st26{fill:#FFFFFF;stroke:#000000;stroke-width:16;stroke-linecap:round;stroke-miterlimit:10;}
	.st27{fill:none;stroke:#000000;stroke-width:16;stroke-linecap:round;stroke-linejoin:round;stroke-miterlimit:10;}
	.st28{font-family:'FoundersGrotesk-Bold';}
	.st29{font-size:20.6105px;}
	.st30{font-size:10.3052px;}
	.st31{font-size:19.2364px;}
	.st32{font-size:10px;}
	.st33{fill:none;stroke:#000000;stroke-width:15.2344;stroke-linecap:round;stroke-linejoin:round;stroke-miterlimit:10;}
	.st34{fill:#FFFFFF;stroke:#000000;stroke-width:15.2344;stroke-linecap:round;stroke-linejoin:round;stroke-miterlimit:10;}
	.st35{fill:#FFFFFF;stroke:#000000;stroke-width:17;stroke-linecap:round;stroke-linejoin:round;stroke-miterlimit:10;}
	.st36{fill:none;stroke:#000000;stroke-width:9.9764;stroke-linecap:round;stroke-linejoin:round;stroke-miterlimit:10;}
	.st37{fill:none;stroke:#000000;stroke-width:9.3127;stroke-linejoin:round;stroke-miterlimit:10;}
	.st38{fill:url(#);}
	.st39{fill:none;stroke:#000000;stroke-width:8.3796;stroke-linecap:round;stroke-linejoin:round;stroke-miterlimit:10;}
	
		.st40{display:inline;fill:none;stroke:#000000;stroke-width:9.9764;stroke-linecap:round;stroke-linejoin:round;stroke-miterlimit:10;}
	.st41{display:inline;fill:none;stroke:#000000;stroke-width:9.3127;stroke-linejoin:round;stroke-miterlimit:10;}
	.st42{display:inline;fill:url(#);stroke:#000000;stroke-width:10;stroke-linejoin:round;stroke-miterlimit:10;}
	.st43{fill:#FFFFFF;stroke:#000000;stroke-width:14.7375;stroke-linecap:round;stroke-linejoin:round;stroke-miterlimit:10;}
	.st44{fill:none;stroke:#000000;stroke-width:14.7375;stroke-linecap:round;stroke-linejoin:round;stroke-miterlimit:10;}
	.st45{stroke:#000000;stroke-width:14.7375;stroke-linecap:round;stroke-linejoin:round;stroke-miterlimit:10;}
	.st46{fill:#FFFFFF;stroke:#000000;stroke-width:14.2911;stroke-linecap:round;stroke-linejoin:round;stroke-miterlimit:10;}
	.st47{fill:none;stroke:#000000;stroke-width:15;stroke-linecap:round;stroke-linejoin:round;stroke-miterlimit:10;}
	.st48{fill:#FFFFFF;stroke:#000000;stroke-width:15;stroke-linecap:round;stroke-linejoin:round;stroke-miterlimit:10;}
	.st49{fill:#FFFFFF;stroke:#000000;stroke-width:14.8467;stroke-linecap:round;stroke-linejoin:round;stroke-miterlimit:10;}
	.st50{stroke:#000000;stroke-width:20.1683;stroke-linecap:round;stroke-miterlimit:10;}
	.st51{fill:none;stroke:#000000;stroke-width:14.8467;stroke-linecap:round;stroke-linejoin:round;stroke-miterlimit:10;}
	.st52{fill:none;stroke:#000000;stroke-width:13.497;stroke-miterlimit:10;}
	.st53{fill:#FFFFFF;stroke:#000000;stroke-width:13.497;stroke-miterlimit:10;}
	.st54{fill:#FFFFFF;stroke:#000000;stroke-width:14.7439;stroke-linecap:round;stroke-miterlimit:10;}
	.st55{fill:#FFFFFF;stroke:#000000;stroke-width:14.7439;stroke-miterlimit:10;}
	.st56{stroke:#000000;stroke-width:13.9262;stroke-linecap:round;stroke-miterlimit:10;}
	.st57{fill:#FFFFFF;stroke:#000000;stroke-width:17.1072;stroke-linecap:round;stroke-linejoin:round;stroke-miterlimit:10;}
	.st58{stroke:#000000;stroke-width:17.1072;stroke-linecap:round;stroke-linejoin:round;stroke-miterlimit:10;}
	.st59{fill:#FFFFFF;stroke:#000000;stroke-width:15;stroke-linecap:square;stroke-linejoin:round;stroke-miterlimit:10;}
	.st60{fill:#FFFFFF;stroke:#000000;stroke-width:15;stroke-linejoin:round;stroke-miterlimit:10;}
	.st61{fill:#FFFFFF;stroke:#000000;stroke-width:14;stroke-linecap:round;stroke-linejoin:round;stroke-miterlimit:10;}
	.st62{fill:#FFFFFF;stroke:#000000;stroke-width:13;stroke-linecap:round;stroke-linejoin:round;stroke-miterlimit:10;}
	.st63{fill:#FFFFFF;stroke:#000000;stroke-width:15.2362;stroke-linecap:round;stroke-linejoin:round;stroke-miterlimit:10;}
	.st64{fill:#FFFFFF;stroke:#FFFFFF;stroke-width:3;stroke-miterlimit:10;}
	.st65{fill:#FFFFFF;stroke:#000000;stroke-width:13.3058;stroke-linecap:round;stroke-linejoin:round;stroke-miterlimit:10;}
	.st66{fill:#FFFFFF;stroke:#000000;stroke-width:15.2517;stroke-linecap:round;stroke-linejoin:round;stroke-miterlimit:10;}
	.st67{stroke:#000000;stroke-width:3;stroke-miterlimit:10;}
</style>
<g id="unexpanded" class="st0">
	<rect x="-410.75" y="-3205.56" class="st1" width="14663.41" height="9108.82"/>
	<g class="st2">
		<rect x="0" y="-612" class="st5" width="792" height="1224"/>
		<path class="st27" d="M311.29,446.01c0,0,52.14,62.23,143.61,105.41c6.53,10.09,13.41,29.85,20.46,42.73"/>
		<path class="st3" d="M480.89,498.33H304.36c-15.95,0-28.87-12.93-28.87-28.87V69.52c0-15.95,12.93-28.87,28.87-28.87h176.52
			c15.95,0,28.87,12.93,28.87,28.87v399.94C509.76,485.41,496.83,498.33,480.89,498.33z"/>
		<rect x="275.49" y="104.51" width="234.27" height="329.97"/>
		<line class="st3" x1="366.72" y1="71.43" x2="418.53" y2="71.43"/>
		<circle cx="392.39" cy="462.61" r="20.58"/>
		<path class="st3" d="M699.64,581.69c-27.6-38.08-69.05-100.7-89.88-127.21c8.49-86.36-7.88-141.49-16.04-181.22
			c-8.16-39.72-33.5-90.6-53.43-133.64c-7.03-15.18-17.76-19.61-32.24-15.82c-14.48,3.79-26.93,37.2-23.01,67.56
			s21.22,58.37,21.22,58.37s-18.46,58.44,3.49,113.65v77.15"/>
		<g>
			<path class="st3" d="M251.62,408.64c-12.97-9.98-15.62-27.85-6.11-39.7c9.52-11.85,27.27-13.47,39.83-3.81
				c22.95,17.44,25.38,18.29,49.08,34.73c12.97,9.12,16.67,26.51,8.1,39.07c-8.57,12.55-26.51,15.28-39.9,5.86
				C278.27,427.89,275.2,426.57,251.62,408.64z"/>
			<path class="st3" d="M246.62,332.69c-14.79-12.52-16.95-33.8-5.05-47.29c11.91-13.5,33-14.44,47.32-2.32
				c26.19,21.89,19.91,15.59,47.04,36.34c14.84,11.5,18.27,32.28,7.44,46.66c-10.82,14.38-32.19,16.62-47.52,4.74
				C267.98,349.49,273.53,355.2,246.62,332.69z"/>
			<path class="st3" d="M244.62,244.87c-14.73-13.09-16.4-34.77-3.97-48.2c12.43-13.43,33.9-13.87,48.16-1.2
				c26.09,22.9,17.93,15.75,45.01,37.51c14.8,12.05,17.78,33.26,6.42,47.62c-11.35,14.35-33.13,16.1-48.42,3.65
				C263.99,261.88,271.42,268.4,244.62,244.87z"/>
			<path class="st3" d="M248.94,159.63c-13.53-12.56-14.66-32.92-2.74-45.24c11.93-12.33,32.05-12.3,45.15-0.14
				c23.98,21.99,20.27,18.55,45.19,39.49c13.63,11.59,15.98,31.53,5.04,44.75c-10.93,13.21-31.37,14.41-45.45,2.43
				C270.53,179.39,273.57,182.23,248.94,159.63z"/>
		</g>
		<g>
			<text transform="matrix(0 -1 1 0 26.8613 443.1512)"><tspan x="0" y="0" class="st28 st29">www</tspan><tspan x="45.14" y="0" class="st28 st30"> </tspan><tspan x="46.99" y="0" class="st28 st29">.</tspan><tspan x="51.77" y="0" class="st28 st30"> </tspan><tspan x="53.63" y="0" class="st28 st29">Capitalism</tspan><tspan x="150.43" y="0" class="st28 st31"> </tspan><tspan x="153.9" y="0" class="st28 st29">Is</tspan><tspan x="168.88" y="0" class="st28 st31"> </tspan><tspan x="172.34" y="0" class="st28 st29">A</tspan><tspan x="186.6" y="0" class="st28 st30"> </tspan><tspan x="188.46" y="0" class="st28 st29">Virus</tspan><tspan x="236.15" y="0" class="st28 st30"> </tspan><tspan x="238.01" y="0" class="st28 st29">.</tspan><tspan x="242.79" y="0" class="st28 st30"> </tspan><tspan x="244.64" y="0" class="st28 st29">org</tspan></text>
			<text transform="matrix(0 1 -1 0 761.9287 209.1807)"><tspan x="0" y="0" class="st28 st29">#</tspan><tspan x="12.7" y="0" class="st28 st32"> </tspan><tspan x="14.5" y="0" class="st28 st29">Capitalism</tspan><tspan x="111.3" y="0" class="st28 st32"> </tspan><tspan x="113.1" y="0" class="st28 st29">Is</tspan><tspan x="128.09" y="0" class="st28 st32"> </tspan><tspan x="129.89" y="0" class="st28 st29">A</tspan><tspan x="144.15" y="0" class="st28 st32"> </tspan><tspan x="145.95" y="0" class="st28 st29">Virus</tspan></text>
		</g>
	</g>
</g>
<g id="exp_trnsp_bg">
	<path d="M418.53,63.43h-51.81c-4.42,0-8,3.58-8,8s3.58,8,8,8h51.81c4.42,0,8-3.58,8-8S422.95,63.43,418.53,63.43z"/>
	<path d="M392.39,483.19c11.36,0,20.58-9.21,20.58-20.58s-9.21-20.58-20.58-20.58c-11.36,0-20.58,9.21-20.58,20.58
		S381.02,483.19,392.39,483.19z"/>
	<path d="M605.1,288.01c-1.27-5.76-2.48-11.2-3.54-16.36c-7.31-35.6-27.97-79.72-46.2-118.66c-2.66-5.68-5.28-11.27-7.81-16.73
		c-6.55-14.14-16.72-21.5-29.79-21.72V69.52c0-20.33-16.54-36.87-36.87-36.87H304.36c-20.33,0-36.87,16.54-36.87,36.87v27.7
		c-10,0.22-19.78,4.09-27.04,11.6c-7.03,7.27-10.74,16.96-10.47,27.3c0.3,10.97,5.22,21.67,13.51,29.37
		c0.01,0.01,0.02,0.02,0.03,0.03c6.39,5.86,10.93,10.03,14.61,13.36c-8.76,1.4-17.04,5.52-23.36,12.35
		c-7.23,7.81-10.92,18.1-10.39,28.97c0.56,11.55,6,22.72,14.91,30.64c0.01,0.01,0.02,0.02,0.04,0.03
		c9.64,8.47,14.87,13.06,18.91,16.51c-8.58,1.6-16.62,5.86-22.67,12.72c-6.95,7.88-10.34,18.11-9.56,28.83
		c0.83,11.38,6.46,22.26,15.44,29.86c0.01,0.01,0.02,0.02,0.04,0.03c7.31,6.11,12.28,10.19,16.17,13.29
		c-7.08,1.86-13.58,5.83-18.39,11.82c-5.76,7.18-8.32,16.28-7.2,25.62c1.19,9.89,6.53,19.16,14.67,25.43
		c0.01,0.01,0.03,0.02,0.04,0.03c9.15,6.96,15.27,11.46,20.71,15.32v39.14c0,20.33,16.54,36.87,36.87,36.87h61.1
		c22.26,16.91,50.37,35.27,83.85,51.28c2.94,5.07,6.16,12.46,9.29,19.63c3.14,7.19,6.38,14.62,9.73,20.73
		c1.45,2.66,4.2,4.16,7.02,4.16c1.3,0,2.62-0.32,3.84-0.98c3.88-2.12,5.3-6.98,3.17-10.86c-3.01-5.49-6.1-12.58-9.1-19.45
		c-3.97-9.1-7.72-17.69-11.66-23.78c-0.81-1.25-1.95-2.25-3.3-2.89c-24.8-11.71-46.71-24.9-65.41-37.84h87.99
		c20.33,0,36.87-16.54,36.87-36.87v-22.97l-1.59-1.18c0.99-1.33,1.59-2.98,1.59-4.77v-77.15c0-1.01-0.19-2.02-0.57-2.96
		c-20.59-51.78-3.47-107.74-3.3-108.29c0.7-2.21,0.4-4.63-0.82-6.61c-0.16-0.27-16.45-26.99-20.1-55.2
		c-3.86-29.83,9.13-56.71,17.1-58.8c11.33-2.97,17.77,0.24,22.96,11.44c2.54,5.48,5.17,11.1,7.84,16.8
		c17.85,38.13,38.09,81.35,45.02,115.09c1.08,5.27,2.3,10.77,3.59,16.6c8.26,37.34,19.58,88.48,12.33,162.23
		c-0.2,2.05,0.4,4.1,1.67,5.73c11.97,15.23,31.41,43.38,50.22,70.61c8.43,12.21,17.04,24.66,25.11,36.17
		c5.05,7.2,9.9,14.03,14.36,20.18c1.56,2.16,4.01,3.31,6.48,3.31c1.63,0,3.27-0.5,4.69-1.52c3.58-2.59,4.38-7.59,1.78-11.17
		c-11.49-15.85-25.61-36.29-39.26-56.06c-18.78-27.19-36.58-52.95-48.83-68.86C624.91,377.51,613.48,325.86,605.1,288.01z
		 M254.36,153.75c-5.15-4.79-8.21-11.37-8.39-18.06c-0.16-6,1.96-11.59,5.97-15.74c8.81-9.11,24.05-9.04,33.99,0.19
		c20.56,18.85,20.85,19.1,36.09,31.87c2.61,2.19,5.67,4.75,9.32,7.82c10.3,8.76,12.12,23.82,4.06,33.56
		c-3.68,4.45-9.03,7.19-15.05,7.72c-6.73,0.59-13.67-1.7-19.09-6.31c-3.33-2.8-6.18-5.19-8.67-7.28
		C275.97,173.55,275.65,173.28,254.36,153.75z M249.92,238.87c-5.71-5.08-9.19-12.17-9.54-19.45c-0.32-6.54,1.86-12.69,6.15-17.32
		c9.38-10.14,25.97-10.43,37.01-0.62l0.28,0.25c19.79,17.37,19.79,17.37,30.82,26.16c3.37,2.69,7.79,6.2,14.13,11.3
		c11.41,9.29,13.74,25.64,5.19,36.45c-3.91,4.95-9.68,8.07-16.23,8.78c-7.3,0.8-14.91-1.52-20.9-6.41
		c-6.09-4.9-10.49-8.41-13.94-11.16C270.7,257.13,270.7,257.12,249.92,238.87z M251.77,326.57c-5.71-4.84-9.28-11.69-9.8-18.8
		c-0.47-6.39,1.52-12.46,5.6-17.08c8.94-10.13,25.16-10.81,36.19-1.48c16.52,13.81,20.42,16.64,27.5,21.78
		c4.3,3.12,9.66,7.01,19.77,14.75c11.38,8.82,14.05,24.76,5.95,35.53c-3.71,4.93-9.27,8.11-15.66,8.97
		c-7.13,0.95-14.62-1.14-20.6-5.78c-10.32-7.9-16.03-12.07-20.61-15.42C272.43,343.44,268.57,340.62,251.77,326.57z M256.48,402.29
		c-4.74-3.66-7.85-8.99-8.52-14.64c-0.6-5.04,0.74-9.9,3.79-13.7c6.72-8.38,19.6-9.49,28.75-2.45
		c16.19,12.31,22.38,16.51,32.63,23.47c4.51,3.06,9.61,6.53,16.7,11.44c9.4,6.6,12.13,19.17,6.1,28.02
		c-2.75,4.03-7.03,6.75-12.06,7.66c-5.65,1.02-11.71-0.37-16.68-3.86c-7.13-4.95-12.36-8.51-16.97-11.65
		C279.11,419.01,273,414.85,256.48,402.29z M501.76,434.48v6.07v28.92c0,11.51-9.36,20.87-20.87,20.87H304.36
		c-11.51,0-20.87-9.36-20.87-20.87v-28.11c4.04,2.75,8.63,5.89,14.53,9.98c6.57,4.62,14.39,7.07,22.19,7.07
		c2.18,0,4.36-0.19,6.51-0.58c9.27-1.68,17.23-6.79,22.42-14.38c1.92-2.82,3.36-5.84,4.34-8.97H501.76z M501.76,104.51H291.94
		c-2.68-1.83-5.52-3.32-8.45-4.46V69.52c0-11.51,9.36-20.87,20.87-20.87h176.52c11.51,0,20.87,9.36,20.87,20.87V104.51z"/>
	<polygon points="17.67,400.93 22.88,402.58 22.88,402.66 17.67,404 17.67,406.66 22.88,408 22.88,408.08 17.67,409.73 
		17.67,412.96 17.67,413.05 17.67,415.97 22.88,417.62 22.88,417.71 17.67,419.04 17.67,421.7 22.88,423.04 22.88,423.13 
		17.67,424.78 17.67,428.01 17.67,428.09 17.67,431.02 22.88,432.67 22.88,432.75 17.67,434.09 17.67,436.75 22.88,438.09 
		22.88,438.17 17.67,439.82 17.67,443.14 26.86,440.23 26.86,436.96 21.67,435.62 21.67,435.53 26.86,434.19 26.86,430.92 
		17.8,428.05 26.86,425.19 26.86,421.91 21.67,420.57 21.67,420.49 26.86,419.15 26.86,415.87 17.8,413.01 26.86,410.14 
		26.86,406.86 21.67,405.52 21.67,405.44 26.86,404.1 26.86,400.82 17.67,397.92 	"/>
	<rect x="23.32" y="391.94" width="3.55" height="3.55"/>
	<path d="M20.37,389.06c4,0,6.74-2.87,6.74-6.66c0-3.98-2.51-6.1-5.75-6.35l-0.14,3.36c1.44,0.21,2.78,0.99,2.78,3.01
		c0,1.92-1.42,3.03-3.63,3.03s-3.63-1.11-3.63-3.03c0-2.02,1.34-2.8,2.78-3.01l-0.12-3.36c-3.24,0.25-5.77,2.37-5.77,6.35
		C13.63,386.19,16.37,389.06,20.37,389.06z"/>
	<path d="M27.07,366.96c0-0.95-0.27-1.61-0.6-2.08H24.7c0.1,0.27,0.14,0.47,0.14,0.74c0,0.35-0.21,0.56-0.68,0.56h-3.13
		c-2.56,0-3.61,1.79-3.61,4.23c0,2.76,1.4,4.27,3.42,4.56l0.21-3.09c-0.68-0.14-1.15-0.52-1.15-1.26c0-0.8,0.45-1.15,1.22-1.15h0.14
		l0.43,2.58c0.35,2,1.11,3.28,2.89,3.28c1.57,0,2.49-1.17,2.49-2.97c0-1.46-0.56-2.52-1.63-3.05
		C26.49,368.98,27.07,368.1,27.07,366.96z M24.14,372.1c-0.6,0-0.85-0.47-1.01-1.28l-0.25-1.36h0.14c1.2,0,1.9,0.76,1.9,1.71
		C24.92,371.72,24.61,372.1,24.14,372.1z"/>
	<path d="M27.11,357.54c0-2.7-2.12-4.08-4.84-4.08c-2.7,0-4.84,1.38-4.84,4.08c0,1.55,0.74,2.58,1.83,3.03h-1.59v3.34h12.49v-3.34
		h-4.86C26.37,360.12,27.11,359.09,27.11,357.54z M22.33,360.57H22.2c-1.32,0-2.18-0.72-2.18-1.86c0-1.3,0.93-1.9,2.25-1.9
		c1.34,0,2.27,0.6,2.27,1.9C24.53,359.85,23.67,360.57,22.33,360.57z"/>
	<rect x="13.87" y="348.79" width="2.93" height="3.38"/>
	<rect x="17.67" y="348.81" width="9.19" height="3.34"/>
	<path d="M15.13,345.47l1.2,0.31c0.85,0.23,1.34,0.52,1.48,1.44l0.1,0.68h2.06v-1.24h4.33c2.16,0,2.8-1.46,2.8-3.01
		c0-1.26-0.31-2.06-0.82-2.76h-2.16c0.23,0.56,0.31,1.01,0.31,1.42c0,0.68-0.31,1.05-1.09,1.05h-3.36v-2.39h-2.31v2.39h-2.54V345.47
		z"/>
	<path d="M24.16,331.02h-3.13c-2.56,0-3.61,1.79-3.61,4.23c0,2.76,1.4,4.27,3.42,4.56l0.21-3.09c-0.68-0.14-1.15-0.52-1.15-1.26
		c0-0.8,0.45-1.15,1.22-1.15h0.14l0.43,2.58c0.35,2,1.11,3.28,2.89,3.28c1.57,0,2.49-1.17,2.49-2.97c0-1.46-0.56-2.52-1.63-3.05
		c1.05-0.31,1.63-1.2,1.63-2.33c0-0.95-0.27-1.61-0.6-2.08H24.7c0.1,0.27,0.14,0.47,0.14,0.74
		C24.84,330.81,24.63,331.02,24.16,331.02z M24.92,336.01c0,0.56-0.31,0.93-0.78,0.93c-0.6,0-0.85-0.47-1.01-1.28l-0.25-1.36h0.14
		C24.22,334.3,24.92,335.06,24.92,336.01z"/>
	<rect x="13.87" y="325.41" width="12.99" height="3.34"/>
	<rect x="17.67" y="320.26" width="9.19" height="3.34"/>
	<rect x="13.87" y="320.24" width="2.93" height="3.38"/>
	<path d="M20.53,318.92c1.88,0,2.6-1.17,2.95-3.4l0.21-1.36c0.1-0.64,0.35-0.85,0.7-0.85c0.37,0,0.64,0.39,0.64,1.13
		c0,1.01-0.43,1.63-1.2,1.75l0.04,2.91c2.23-0.19,3.24-2.08,3.24-4.62c0-2.62-1.11-4.27-3.05-4.27c-1.79,0-2.72,1.2-3.05,3.26
		l-0.31,1.79c-0.04,0.31-0.21,0.56-0.52,0.56c-0.41,0-0.66-0.37-0.66-1.01c0-1.03,0.41-1.61,1.07-1.73l-0.08-2.74
		c-1.92,0.19-3.09,1.75-3.09,4.41C17.42,317.33,18.72,318.92,20.53,318.92z"/>
	<path d="M17.42,302.74c0,1.38,0.62,2.37,1.63,2.87h-1.38v3.34h9.19v-3.34h-4.51c-1.38,0-2.29-0.39-2.29-1.48
		c0-1.01,0.66-1.26,1.92-1.26h4.89v-3.34h-4.51c-1.38,0-2.29-0.37-2.29-1.48c0-1.01,0.66-1.24,1.92-1.24h4.89v-3.34h-5.77
		c-1.92,0-3.67,0.74-3.67,3.28c0,1.55,0.78,2.64,1.81,3.13C18.16,300.27,17.42,301.11,17.42,302.74z"/>
	<rect x="13.87" y="284.71" width="12.99" height="3.5"/>
	<path d="M23.83,280.57l0.04,2.91c2.23-0.19,3.24-2.08,3.24-4.62c0-2.62-1.11-4.27-3.05-4.27c-1.79,0-2.72,1.2-3.05,3.26l-0.31,1.79
		c-0.04,0.31-0.21,0.56-0.52,0.56c-0.41,0-0.66-0.37-0.66-1.01c0-1.03,0.41-1.61,1.07-1.73l-0.08-2.74
		c-1.92,0.19-3.09,1.75-3.09,4.41c0,2.58,1.3,4.16,3.11,4.16c1.88,0,2.6-1.18,2.95-3.4l0.21-1.36c0.1-0.64,0.35-0.85,0.7-0.85
		c0.37,0,0.64,0.39,0.64,1.13C25.03,279.82,24.59,280.44,23.83,280.57z"/>
	<path d="M26.86,267.23l-2.51-0.97v-5.07l2.51-0.97v-3.73l-12.99,5.17v3.92l12.99,5.17V267.23z M21.73,265.25l-3.83-1.48v-0.08
		l3.83-1.48V265.25z"/>
	<polygon points="26.86,245.96 13.87,240.97 13.87,244.46 22.51,247.67 22.51,247.75 13.87,250.97 13.87,254.64 26.86,249.65 	"/>
	<rect x="13.87" y="236.71" width="2.93" height="3.38"/>
	<rect x="17.67" y="236.73" width="9.19" height="3.34"/>
	<path d="M19.3,231.58h-1.63v3.34h9.19v-3.34h-4.21c-1.55,0-2.12-0.76-2.12-2c0-0.64,0.12-1.13,0.39-1.59l-3.15-0.21
		c-0.19,0.23-0.35,0.72-0.35,1.28C17.42,230.28,18.27,231.25,19.3,231.58z"/>
	<path d="M22.57,223.52h-4.91v3.34h5.79c1.92,0,3.65-0.76,3.65-3.28c0-1.38-0.6-2.39-1.63-2.89h1.38v-3.34h-9.19v3.34h4.51
		c1.4,0,2.31,0.41,2.31,1.46C24.49,223.17,23.81,223.52,22.57,223.52z"/>
	<path d="M20.53,216.02c1.88,0,2.6-1.18,2.95-3.4l0.21-1.36c0.1-0.64,0.35-0.85,0.7-0.85c0.37,0,0.64,0.39,0.64,1.13
		c0,1.01-0.43,1.63-1.2,1.75l0.04,2.91c2.23-0.19,3.24-2.08,3.24-4.62c0-2.62-1.11-4.27-3.05-4.27c-1.79,0-2.72,1.2-3.05,3.26
		l-0.31,1.79c-0.04,0.31-0.21,0.56-0.52,0.56c-0.41,0-0.66-0.37-0.66-1.01c0-1.03,0.41-1.61,1.07-1.73l-0.08-2.74
		c-1.92,0.19-3.09,1.75-3.09,4.41C17.42,214.43,18.72,216.02,20.53,216.02z"/>
	<rect x="23.32" y="200.93" width="3.55" height="3.55"/>
	<path d="M22.26,198.04c2.87,0,4.84-2.02,4.84-5.03c0-2.99-1.98-5.03-4.84-5.03c-2.84,0-4.84,2.04-4.84,5.03
		C17.42,196.02,19.42,198.04,22.26,198.04z M22.26,191.34c1.38,0,2.33,0.52,2.33,1.67c0,1.17-0.95,1.67-2.33,1.67
		s-2.33-0.49-2.33-1.67C19.93,191.86,20.88,191.34,22.26,191.34z"/>
	<path d="M17.77,179.53c-0.19,0.23-0.35,0.72-0.35,1.28c0,1.22,0.85,2.19,1.88,2.52h-1.63v3.34h9.19v-3.34h-4.21
		c-1.55,0-2.12-0.76-2.12-2c0-0.64,0.12-1.13,0.39-1.59L17.77,179.53z"/>
	<path d="M18.16,171.45c-0.47,0.78-0.74,1.83-0.74,2.95c0,2.58,1.2,4.43,3.15,4.43c1.01,0,1.79-0.49,2.33-1.32
		c0.37,0.99,1.05,1.57,1.94,1.57c0.78,0,1.53-0.49,1.79-1.32c0.08,1.03,0.72,1.75,1.53,1.75c1.73,0,2.25-2.27,2.25-4.89
		c0-2.99-1.05-5.77-3.34-5.77c-1.55,0-2.64,1.05-2.64,3.13v3.81c0,0.56-0.25,0.78-0.56,0.78c-0.19,0-0.33-0.06-0.43-0.19
		c0.19-0.6,0.27-1.26,0.27-2c0-2.6-1.2-4.47-3.13-4.47c-0.43,0-0.83,0.1-1.18,0.29c-0.1-0.45-0.14-0.95-0.14-1.34h-2.52
		C16.74,169.89,17.4,170.9,18.16,171.45z M27.27,172.77c0-0.56,0.14-0.85,0.54-0.85c0.56,0,0.87,1.13,0.87,2.68
		c0,1.24-0.19,2.16-0.85,2.16c-0.35,0-0.56-0.25-0.56-0.62V172.77z M20.57,173.39c0.82,0,1.34,0.41,1.34,0.97
		c0,0.56-0.52,0.97-1.34,0.97c-0.8,0-1.32-0.41-1.32-0.97C19.25,173.8,19.77,173.39,20.57,173.39z"/>
	<path d="M761.93,213.1l3.42,0.8v1.77l-3.42-0.8v2.49l3.42,0.8v2.04l2.06,0.43v-1.98l2.02,0.49v1.88l2.06,0.43v-1.83l3.42,0.82
		v-2.49l-3.42-0.82v-1.77l3.42,0.83v-2.49l-3.42-0.82v-2.02l-2.06-0.43v1.98l-2.02-0.49v-1.88l-2.06-0.43v1.81l-3.42-0.8V213.1z
		 M767.41,214.4l2.02,0.5v1.77l-2.02-0.49V214.4z"/>
	<path d="M768.42,224.09c-4,0-6.74,2.87-6.74,6.66c0,3.98,2.51,6.1,5.75,6.35l0.14-3.36c-1.44-0.21-2.78-0.99-2.78-3.01
		c0-1.92,1.42-3.03,3.63-3.03s3.63,1.11,3.63,3.03c0,2.02-1.34,2.8-2.78,3.01l0.12,3.36c3.24-0.25,5.77-2.37,5.77-6.35
		C775.16,226.95,772.42,224.09,768.42,224.09z"/>
	<path d="M761.72,246.18c0,0.95,0.27,1.61,0.6,2.08h1.77c-0.1-0.27-0.14-0.47-0.14-0.74c0-0.35,0.21-0.56,0.68-0.56h3.13
		c2.56,0,3.61-1.79,3.61-4.23c0-2.76-1.4-4.27-3.42-4.56l-0.21,3.09c0.68,0.14,1.15,0.52,1.15,1.26c0,0.8-0.45,1.15-1.22,1.15h-0.14
		l-0.43-2.58c-0.35-2-1.11-3.28-2.89-3.28c-1.57,0-2.49,1.18-2.49,2.97c0,1.46,0.56,2.52,1.63,3.05
		C762.3,244.16,761.72,245.05,761.72,246.18z M764.65,241.05c0.6,0,0.85,0.47,1.01,1.28l0.25,1.36h-0.14c-1.2,0-1.9-0.76-1.9-1.71
		C763.87,241.42,764.18,241.05,764.65,241.05z"/>
	<path d="M758.63,252.57h4.86c-1.07,0.45-1.81,1.48-1.81,3.03c0,2.7,2.12,4.08,4.84,4.08c2.7,0,4.84-1.38,4.84-4.08
		c0-1.55-0.74-2.58-1.83-3.03h1.59v-3.34h-12.49V252.57z M766.46,252.57h0.12c1.32,0,2.18,0.72,2.18,1.86c0,1.3-0.93,1.9-2.25,1.9
		c-1.34,0-2.27-0.6-2.27-1.9C764.26,253.29,765.12,252.57,766.46,252.57z"/>
	<rect x="771.99" y="260.98" width="2.93" height="3.38"/>
	<rect x="761.93" y="261" width="9.19" height="3.34"/>
	<path d="M773.66,267.68l-1.2-0.31c-0.85-0.23-1.34-0.52-1.48-1.44l-0.1-0.68h-2.06v1.24h-4.33c-2.16,0-2.8,1.46-2.8,3.01
		c0,1.26,0.31,2.06,0.82,2.76h2.16c-0.23-0.56-0.31-1.01-0.31-1.42c0-0.68,0.31-1.05,1.09-1.05h3.36v2.39h2.31v-2.39h2.54V267.68z"
		/>
	<path d="M764.63,282.13h3.13c2.56,0,3.61-1.79,3.61-4.23c0-2.76-1.4-4.27-3.42-4.56l-0.21,3.09c0.68,0.14,1.15,0.52,1.15,1.26
		c0,0.8-0.45,1.15-1.22,1.15h-0.14l-0.43-2.58c-0.35-2-1.11-3.28-2.89-3.28c-1.57,0-2.49,1.18-2.49,2.97c0,1.46,0.56,2.51,1.63,3.05
		c-1.05,0.31-1.63,1.2-1.63,2.33c0,0.95,0.27,1.61,0.6,2.08h1.77c-0.1-0.27-0.14-0.47-0.14-0.74
		C763.95,282.33,764.16,282.13,764.63,282.13z M763.87,277.14c0-0.56,0.31-0.93,0.78-0.93c0.6,0,0.85,0.47,1.01,1.28l0.25,1.36
		h-0.14C764.57,278.85,763.87,278.09,763.87,277.14z"/>
	<rect x="761.93" y="284.39" width="12.99" height="3.34"/>
	<rect x="761.93" y="289.55" width="9.19" height="3.34"/>
	<rect x="771.99" y="289.53" width="2.93" height="3.38"/>
	<path d="M768.26,294.22c-1.88,0-2.6,1.18-2.95,3.4l-0.21,1.36c-0.1,0.64-0.35,0.85-0.7,0.85c-0.37,0-0.64-0.39-0.64-1.13
		c0-1.01,0.43-1.63,1.2-1.75l-0.04-2.91c-2.23,0.19-3.24,2.08-3.24,4.62c0,2.62,1.11,4.27,3.05,4.27c1.79,0,2.72-1.2,3.05-3.26
		l0.31-1.79c0.04-0.31,0.21-0.56,0.52-0.56c0.41,0,0.66,0.37,0.66,1.01c0,1.03-0.41,1.61-1.07,1.73l0.08,2.74
		c1.92-0.19,3.09-1.75,3.09-4.41C771.37,295.81,770.07,294.22,768.26,294.22z"/>
	<path d="M771.37,310.41c0-1.38-0.62-2.37-1.63-2.87h1.38v-3.34h-9.19v3.34h4.51c1.38,0,2.29,0.39,2.29,1.48
		c0,1.01-0.66,1.26-1.92,1.26h-4.89v3.34h4.51c1.38,0,2.29,0.37,2.29,1.48c0,1.01-0.66,1.24-1.92,1.24h-4.89v3.34h5.77
		c1.92,0,3.67-0.74,3.67-3.28c0-1.55-0.78-2.64-1.81-3.13C770.63,312.88,771.37,312.03,771.37,310.41z"/>
	<rect x="761.93" y="323.27" width="12.99" height="3.5"/>
	<path d="M764.96,330.92l-0.04-2.91c-2.23,0.19-3.24,2.08-3.24,4.62c0,2.62,1.11,4.27,3.05,4.27c1.79,0,2.72-1.2,3.05-3.26
		l0.31-1.79c0.04-0.31,0.21-0.56,0.52-0.56c0.41,0,0.66,0.37,0.66,1.01c0,1.03-0.41,1.61-1.07,1.73l0.08,2.74
		c1.92-0.19,3.09-1.75,3.09-4.41c0-2.58-1.3-4.16-3.11-4.16c-1.88,0-2.6,1.18-2.95,3.4l-0.21,1.36c-0.1,0.64-0.35,0.85-0.7,0.85
		c-0.37,0-0.64-0.39-0.64-1.13C763.76,331.66,764.2,331.04,764.96,330.92z"/>
	<path d="M761.93,342.59l2.51,0.97v5.07l-2.51,0.97v3.73l12.99-5.17v-3.92l-12.99-5.17V342.59z M767.06,344.57l3.83,1.48v0.08
		l-3.83,1.48V344.57z"/>
	<polygon points="761.93,363.81 774.92,368.8 774.92,365.31 766.28,362.1 766.28,362.01 774.92,358.8 774.92,355.13 761.93,360.12 	
		"/>
	<rect x="771.99" y="369.68" width="2.93" height="3.38"/>
	<rect x="761.93" y="369.7" width="9.19" height="3.34"/>
	<path d="M769.49,378.19h1.63v-3.34h-9.19v3.34h4.21c1.55,0,2.12,0.76,2.12,2c0,0.64-0.12,1.13-0.39,1.59l3.15,0.21
		c0.19-0.23,0.35-0.72,0.35-1.28C771.37,379.49,770.52,378.52,769.49,378.19z"/>
	<path d="M766.22,386.25h4.91v-3.34h-5.79c-1.92,0-3.65,0.76-3.65,3.28c0,1.38,0.6,2.39,1.63,2.89h-1.38v3.34h9.19v-3.34h-4.51
		c-1.4,0-2.31-0.41-2.31-1.46C764.3,386.6,764.98,386.25,766.22,386.25z"/>
	<path d="M768.26,393.75c-1.88,0-2.6,1.17-2.95,3.4l-0.21,1.36c-0.1,0.64-0.35,0.85-0.7,0.85c-0.37,0-0.64-0.39-0.64-1.13
		c0-1.01,0.43-1.63,1.2-1.75l-0.04-2.91c-2.23,0.19-3.24,2.08-3.24,4.62c0,2.62,1.11,4.27,3.05,4.27c1.79,0,2.72-1.2,3.05-3.26
		l0.31-1.79c0.04-0.31,0.21-0.56,0.52-0.56c0.41,0,0.66,0.37,0.66,1.01c0,1.03-0.41,1.61-1.07,1.73l0.08,2.74
		c1.92-0.19,3.09-1.75,3.09-4.41C771.37,395.34,770.07,393.75,768.26,393.75z"/>
</g>
<g id="exp_white_bg" class="st0">
	<g class="st2">
		<polygon class="st5" points="769.43,214.89 767.41,214.4 767.41,216.17 769.43,216.66 		"/>
		<path class="st5" d="M765.76,278.85h0.14l-0.25-1.36c-0.17-0.8-0.41-1.28-1.01-1.28c-0.47,0-0.78,0.37-0.78,0.93
			C763.87,278.09,764.57,278.85,765.76,278.85z"/>
		<path class="st5" d="M766.53,256.32c1.32,0,2.25-0.6,2.25-1.9c0-1.13-0.87-1.86-2.18-1.86h-0.12c-1.34,0-2.21,0.72-2.21,1.86
			C764.26,255.73,765.19,256.32,766.53,256.32z"/>
		<polygon class="st5" points="770.9,346.05 767.06,344.57 767.06,347.62 770.9,346.14 		"/>
		<polygon class="st5" points="17.89,263.77 21.73,265.25 21.73,262.2 17.89,263.69 		"/>
		<path class="st5" d="M23.03,334.3h-0.14l0.25,1.36c0.17,0.8,0.41,1.28,1.01,1.28c0.47,0,0.78-0.37,0.78-0.93
			C24.92,335.06,24.22,334.3,23.03,334.3z"/>
		<path class="st5" d="M22.26,194.68c1.38,0,2.33-0.49,2.33-1.67c0-1.15-0.95-1.67-2.33-1.67s-2.33,0.52-2.33,1.67
			C19.93,194.19,20.88,194.68,22.26,194.68z"/>
		<path class="st5" d="M27.83,176.77c0.66,0,0.85-0.93,0.85-2.16c0-1.55-0.31-2.68-0.87-2.68c-0.39,0-0.54,0.29-0.54,0.85v3.38
			C27.27,176.53,27.48,176.77,27.83,176.77z"/>
		<path class="st5" d="M765.76,243.69h0.14l-0.25-1.36c-0.17-0.8-0.41-1.28-1.01-1.28c-0.47,0-0.78,0.37-0.78,0.93
			C763.87,242.93,764.57,243.69,765.76,243.69z"/>
		<path class="st5" d="M22.26,356.82c-1.32,0-2.25,0.6-2.25,1.9c0,1.13,0.87,1.86,2.18,1.86h0.12c1.34,0,2.21-0.72,2.21-1.86
			C24.53,357.42,23.6,356.82,22.26,356.82z"/>
		<path class="st5" d="M23.03,369.46h-0.14l0.25,1.36c0.17,0.8,0.41,1.28,1.01,1.28c0.47,0,0.78-0.37,0.78-0.93
			C24.92,370.22,24.22,369.46,23.03,369.46z"/>
		<path class="st5" d="M20.57,175.33c0.82,0,1.34-0.41,1.34-0.97c0-0.56-0.52-0.97-1.34-0.97c-0.8,0-1.32,0.41-1.32,0.97
			C19.25,174.92,19.77,175.33,20.57,175.33z"/>
		<path class="st5" d="M0,612h792V-612H0V612z M26.86,404.1l-5.19,1.34v0.08l5.19,1.34v3.28l-9.06,2.86l9.06,2.86v3.28l-5.19,1.34
			v0.08l5.19,1.34v3.28l-9.06,2.86l9.06,2.86v3.28l-5.19,1.34v0.08l5.19,1.34v3.28l-9.19,2.91v-3.32l5.22-1.65v-0.08l-5.22-1.34
			v-2.66l5.22-1.34v-0.08l-5.22-1.65v-2.92v-0.09v-3.23l5.22-1.65v-0.08l-5.22-1.34v-2.66l5.22-1.34v-0.08l-5.22-1.65v-2.92v-0.09
			v-3.23l5.22-1.65V408l-5.22-1.34V404l5.22-1.34v-0.08l-5.22-1.65v-3.01l9.19,2.91V404.1z M26.86,395.49h-3.55v-3.55h3.55V395.49z
			 M30.16,363.91H17.67v-3.34h1.59c-1.09-0.45-1.83-1.48-1.83-3.03c0-2.7,2.14-4.08,4.84-4.08c2.72,0,4.84,1.38,4.84,4.08
			c0,1.55-0.74,2.58-1.81,3.03h4.86V363.91z M27.07,372.34c0,1.79-0.93,2.97-2.49,2.97c-1.77,0-2.54-1.28-2.89-3.28l-0.43-2.58
			h-0.14c-0.76,0-1.22,0.35-1.22,1.15c0,0.74,0.47,1.11,1.15,1.26l-0.21,3.09c-2.02-0.29-3.42-1.79-3.42-4.56
			c0-2.43,1.05-4.23,3.61-4.23h3.13c0.47,0,0.68-0.21,0.68-0.56c0-0.27-0.04-0.47-0.14-0.74h1.77c0.33,0.47,0.6,1.13,0.6,2.08
			c0,1.13-0.58,2.02-1.63,2.33C26.51,369.83,27.07,370.88,27.07,372.34z M24.7,329.72h1.77c0.33,0.47,0.6,1.13,0.6,2.08
			c0,1.13-0.58,2.02-1.63,2.33c1.07,0.54,1.63,1.59,1.63,3.05c0,1.79-0.93,2.97-2.49,2.97c-1.77,0-2.54-1.28-2.89-3.28l-0.43-2.58
			h-0.14c-0.76,0-1.22,0.35-1.22,1.15c0,0.74,0.47,1.11,1.15,1.26l-0.21,3.09c-2.02-0.29-3.42-1.79-3.42-4.56
			c0-2.43,1.05-4.23,3.61-4.23h3.13c0.47,0,0.68-0.21,0.68-0.56C24.84,330.19,24.8,329.99,24.7,329.72z M17.42,296.74
			c0-2.54,1.75-3.28,3.67-3.28h5.77v3.34h-4.89c-1.26,0-1.92,0.23-1.92,1.24c0,1.11,0.91,1.48,2.29,1.48h4.51v3.34h-4.89
			c-1.26,0-1.92,0.25-1.92,1.26c0,1.09,0.91,1.48,2.29,1.48h4.51v3.34h-9.19v-3.34h1.38c-1.01-0.49-1.63-1.48-1.63-2.87
			c0-1.63,0.74-2.47,1.81-2.87C18.2,299.38,17.42,298.29,17.42,296.74z M20.51,310.35l0.08,2.74c-0.66,0.12-1.07,0.7-1.07,1.73
			c0,0.64,0.25,1.01,0.66,1.01c0.31,0,0.47-0.25,0.52-0.56l0.31-1.79c0.33-2.06,1.26-3.26,3.05-3.26c1.94,0,3.05,1.65,3.05,4.27
			c0,2.54-1.01,4.43-3.24,4.62l-0.04-2.91c0.76-0.12,1.2-0.74,1.2-1.75c0-0.74-0.27-1.13-0.64-1.13c-0.35,0-0.6,0.21-0.7,0.85
			l-0.21,1.36c-0.35,2.23-1.07,3.4-2.95,3.4c-1.81,0-3.11-1.59-3.11-4.16C17.42,312.1,18.59,310.53,20.51,310.35z M24.39,277.68
			c-0.35,0-0.6,0.21-0.7,0.85l-0.21,1.36c-0.35,2.23-1.07,3.4-2.95,3.4c-1.81,0-3.11-1.59-3.11-4.16c0-2.66,1.17-4.23,3.09-4.41
			l0.08,2.74c-0.66,0.12-1.07,0.7-1.07,1.73c0,0.64,0.25,1.01,0.66,1.01c0.31,0,0.47-0.25,0.52-0.56l0.31-1.79
			c0.33-2.06,1.26-3.26,3.05-3.26c1.94,0,3.05,1.65,3.05,4.27c0,2.54-1.01,4.43-3.24,4.62l-0.04-2.91c0.76-0.12,1.2-0.74,1.2-1.75
			C25.03,278.07,24.76,277.68,24.39,277.68z M22.66,183.33h4.21v3.34h-9.19v-3.34h1.63c-1.03-0.33-1.88-1.3-1.88-2.52
			c0-0.56,0.17-1.05,0.35-1.28l3.15,0.21c-0.27,0.45-0.39,0.95-0.39,1.59C20.53,182.56,21.11,183.33,22.66,183.33z M22.26,187.98
			c2.87,0,4.84,2.04,4.84,5.03c0,3.01-1.98,5.03-4.84,5.03c-2.84,0-4.84-2.02-4.84-5.03C17.42,190.02,19.42,187.98,22.26,187.98z
			 M26.86,200.93v3.55h-3.55v-3.55H26.86z M20.51,207.44l0.08,2.74c-0.66,0.12-1.07,0.7-1.07,1.73c0,0.64,0.25,1.01,0.66,1.01
			c0.31,0,0.47-0.25,0.52-0.56l0.31-1.79c0.33-2.06,1.26-3.26,3.05-3.26c1.94,0,3.05,1.65,3.05,4.27c0,2.54-1.01,4.43-3.24,4.62
			l-0.04-2.91c0.76-0.12,1.2-0.74,1.2-1.75c0-0.74-0.27-1.13-0.64-1.13c-0.35,0-0.6,0.21-0.7,0.85l-0.21,1.36
			c-0.35,2.23-1.07,3.4-2.95,3.4c-1.81,0-3.11-1.59-3.11-4.16C17.42,209.19,18.59,207.62,20.51,207.44z M22.18,220.69h-4.51v-3.34
			h9.19v3.34h-1.38c1.03,0.49,1.63,1.5,1.63,2.89c0,2.52-1.73,3.28-3.65,3.28h-5.79v-3.34h4.91c1.24,0,1.92-0.35,1.92-1.36
			C24.49,221.1,23.58,220.69,22.18,220.69z M17.77,227.78l3.15,0.21c-0.27,0.45-0.39,0.95-0.39,1.59c0,1.24,0.58,2,2.12,2h4.21v3.34
			h-9.19v-3.34h1.63c-1.03-0.33-1.88-1.3-1.88-2.52C17.42,228.5,17.58,228.01,17.77,227.78z M17.67,236.73h9.19v3.34h-9.19V236.73z
			 M17.67,320.26h9.19v3.34h-9.19V320.26z M17.67,343.36v-2.39h2.31v2.39h3.36c0.78,0,1.09-0.37,1.09-1.05
			c0-0.41-0.08-0.87-0.31-1.42h2.16c0.52,0.7,0.82,1.5,0.82,2.76c0,1.55-0.64,3.01-2.8,3.01h-4.33v1.24h-2.06l-0.1-0.68
			c-0.14-0.93-0.64-1.22-1.48-1.44l-1.2-0.31v-2.1H17.67z M26.86,348.81v3.34h-9.19v-3.34H26.86z M350.55-542.72h30.17l39.85,100.02
			h-28.74l-7.46-19.37h-39.06l-7.46,19.37H310.7L350.55-542.72z M349.97-588.45v-9.19h3.34v9.19H349.97z M378.52-588.45v-9.19h3.34
			v9.19H378.52z M455.1-308.86c13.97,0,18.58-8.1,18.58-23.34v-55.89h26.99v60.33c0,29.21-19.85,41.6-45.57,41.6
			c-25.72,0-45.41-12.38-45.41-41.6v-60.33h26.83v55.89C436.52-316.96,441.29-308.86,455.1-308.86z M485.38-172.49
			c-13.16,0-18.42,10.52-18.42,26.55v52.38h-38.75v-150.69h38.75v60.04c5.74-11.72,18.42-18.9,34.44-18.9
			c29.18,0,38.51,20.33,38.51,42.58v66.98h-38.75v-56.69C501.17-164.83,497.1-172.49,485.38-172.49z M488.51-18.18l-1.36-0.21
			c-2.23-0.35-3.4-1.07-3.4-2.95c0-1.81,1.59-3.11,4.16-3.11c2.66,0,4.23,1.18,4.41,3.09l-2.74,0.08c-0.12-0.66-0.7-1.07-1.73-1.07
			c-0.64,0-1.01,0.25-1.01,0.66c0,0.31,0.25,0.47,0.56,0.52l1.79,0.31c2.06,0.33,3.26,1.26,3.26,3.05c0,1.94-1.65,3.05-4.27,3.05
			c-2.54,0-4.43-1.01-4.62-3.24l2.91-0.04c0.12,0.76,0.74,1.2,1.75,1.2c0.74,0,1.13-0.27,1.13-0.64
			C489.36-17.83,489.15-18.08,488.51-18.18z M476.19-14.76c-2.51,0-3.28-1.73-3.28-3.65v-5.79h3.34v4.91c0,1.24,0.35,1.92,1.36,1.92
			c1.05,0,1.46-0.91,1.46-2.31v-4.51h3.34v9.19h-3.34v-1.38C478.58-15.36,477.57-14.76,476.19-14.76z M470.71-24.45
			c0.56,0,1.05,0.17,1.28,0.35l-0.21,3.15c-0.45-0.27-0.95-0.39-1.59-0.39c-1.24,0-2,0.58-2,2.12v4.21h-3.34v-9.19h3.34v1.63
			C468.52-23.6,469.49-24.45,470.71-24.45z M459.68-25.07v-2.93h3.38v2.93H459.68z M463.04-24.2v9.19h-3.34v-9.19H463.04z
			 M458.8-27.99l-4.99,12.99h-3.69l-4.99-12.99h3.67l3.22,8.64h0.08l3.22-8.64H458.8z M443.33-15.01h-3.73l-0.97-2.51h-5.07
			l-0.97,2.51h-3.52l5.17-12.99h3.92L443.33-15.01z M422.96-18.18l-1.36-0.21c-2.23-0.35-3.4-1.07-3.4-2.95
			c0-1.81,1.59-3.11,4.16-3.11c2.66,0,4.23,1.18,4.41,3.09l-2.74,0.08c-0.12-0.66-0.7-1.07-1.73-1.07c-0.64,0-1.01,0.25-1.01,0.66
			c0,0.31,0.25,0.47,0.56,0.52l1.79,0.31c2.06,0.33,3.26,1.26,3.26,3.05c0,1.94-1.65,3.05-4.27,3.05c-2.54,0-4.43-1.01-4.62-3.24
			l2.91-0.04c0.12,0.76,0.74,1.2,1.75,1.2c0.74,0,1.13-0.27,1.13-0.64C423.8-17.83,423.6-18.08,422.96-18.18z M405.11-21.81
			c-1.11,0-1.48,0.91-1.48,2.29v4.51h-3.34v-4.89c0-1.26-0.25-1.92-1.26-1.92c-1.09,0-1.48,0.91-1.48,2.29v4.51h-3.34v-9.19h3.34
			v1.38c0.5-1.01,1.48-1.63,2.87-1.63c1.63,0,2.47,0.74,2.87,1.81c0.49-1.03,1.59-1.81,3.13-1.81c2.54,0,3.28,1.75,3.28,3.67v5.77
			h-3.34v-4.89C406.34-21.15,406.12-21.81,405.11-21.81z M381.33-90.68c-17.94,0-34.92-7.42-34.92-32.53v-50.23h-14.35v-23.92
			l7.89-1.2c10.76-1.67,14.11-7.42,16.74-17.22l3.59-13.87h24.4v29.42h27.75v26.79h-27.75v38.99c0,9.09,4.3,12.68,12.2,12.68
			c4.78,0,10.05-0.96,16.5-3.59v25.12C405.25-94.27,395.93-90.68,381.33-90.68z M388.99-18.18l-1.36-0.21
			c-2.23-0.35-3.4-1.07-3.4-2.95c0-1.81,1.59-3.11,4.16-3.11c2.66,0,4.23,1.18,4.41,3.09l-2.74,0.08c-0.12-0.66-0.7-1.07-1.73-1.07
			c-0.64,0-1.01,0.25-1.01,0.66c0,0.31,0.25,0.47,0.56,0.52l1.79,0.31c2.06,0.33,3.26,1.26,3.26,3.05c0,1.94-1.65,3.05-4.27,3.05
			c-2.54,0-4.43-1.01-4.62-3.24l2.91-0.04c0.12,0.76,0.74,1.2,1.75,1.2c0.74,0,1.13-0.27,1.13-0.64
			C389.83-17.83,389.63-18.08,388.99-18.18z M379.53-25.07v-2.93h3.38v2.93H379.53z M382.89-24.2v9.19h-3.34v-9.19H382.89z
			 M377.73-27.99v12.99h-3.34v-12.99H377.73z M367.7-21.97c-0.74,0-1.11,0.47-1.26,1.15l-3.09-0.21c0.29-2.02,1.79-3.42,4.56-3.42
			c2.43,0,4.23,1.05,4.23,3.61v3.13c0,0.47,0.21,0.68,0.56,0.68c0.27,0,0.47-0.04,0.74-0.14v1.77c-0.47,0.33-1.13,0.6-2.08,0.6
			c-1.13,0-2.02-0.58-2.33-1.63c-0.54,1.07-1.59,1.63-3.05,1.63c-1.79,0-2.97-0.93-2.97-2.49c0-1.77,1.28-2.54,3.28-2.89l2.58-0.43
			v-0.14C368.85-21.52,368.5-21.97,367.7-21.97z M355.25-21.89v-2.06l0.68-0.1c0.93-0.14,1.22-0.64,1.44-1.48l0.31-1.2h2.1v2.54
			h2.39v2.31h-2.39v3.36c0,0.78,0.37,1.09,1.05,1.09c0.41,0,0.87-0.08,1.42-0.31v2.16c-0.7,0.52-1.5,0.82-2.76,0.82
			c-1.55,0-3.01-0.64-3.01-2.8v-4.33H355.25z M350.98-25.07v-2.93h3.38v2.93H350.98z M354.34-24.2v9.19H351v-9.19H354.34z
			 M345.6-24.45c2.7,0,4.08,2.14,4.08,4.84c0,2.72-1.38,4.84-4.08,4.84c-1.55,0-2.58-0.74-3.03-1.81v4.86h-3.34V-24.2h3.34v1.59
			C343.03-23.71,344.06-24.45,345.6-24.45z M332.54-21.97c-0.74,0-1.11,0.47-1.26,1.15l-3.09-0.21c0.29-2.02,1.79-3.42,4.56-3.42
			c2.43,0,4.23,1.05,4.23,3.61v3.13c0,0.47,0.21,0.68,0.56,0.68c0.27,0,0.47-0.04,0.74-0.14v1.77c-0.47,0.33-1.13,0.6-2.08,0.6
			c-1.13,0-2.02-0.58-2.33-1.63c-0.54,1.07-1.59,1.63-3.05,1.63c-1.79,0-2.97-0.93-2.97-2.49c0-1.77,1.28-2.54,3.28-2.89l2.58-0.43
			v-0.14C333.69-21.52,333.34-21.97,332.54-21.97z M413.27-27.99h3.5v12.99h-3.5V-27.99z M347.62-389.99
			c29.05,0,51.92,21.12,51.92,51.92s-22.86,51.92-51.92,51.92c-29.05,0-51.92-21.12-51.92-51.92S318.56-389.99,347.62-389.99z
			 M327.28-146.89c0,33.25-23.68,56.21-58.36,56.21c-34.92,0-58.36-22.96-58.36-56.21c0-33.01,23.44-56.21,58.36-56.21
			C303.59-203.11,327.28-179.9,327.28-146.89z M320.73-17.87c2.02,0,2.8-1.34,3.01-2.78l3.36,0.14c-0.25,3.24-2.37,5.75-6.35,5.75
			c-3.79,0-6.66-2.74-6.66-6.74c0-4,2.87-6.74,6.66-6.74c3.98,0,6.1,2.54,6.35,5.77l-3.36,0.12c-0.21-1.44-0.99-2.78-3.01-2.78
			c-1.92,0-3.03,1.42-3.03,3.63C317.7-19.29,318.81-17.87,320.73-17.87z M310.64-20.49l-0.43,2.06h-2.04l-0.8,3.42h-2.49l0.8-3.42
			h-1.77l-0.8,3.42h-2.49l0.8-3.42h-1.81l0.43-2.06h1.88l0.49-2.02h-1.98l0.43-2.06h2.02l0.82-3.42h2.49l-0.83,3.42h1.77l0.82-3.42
			h2.49l-0.82,3.42h1.83l-0.43,2.06h-1.88l-0.49,2.02H310.64z M761.72,240.8c0-1.79,0.93-2.97,2.49-2.97c1.77,0,2.54,1.28,2.89,3.28
			l0.43,2.58h0.14c0.76,0,1.22-0.35,1.22-1.15c0-0.74-0.47-1.11-1.15-1.26l0.21-3.09c2.02,0.29,3.42,1.79,3.42,4.56
			c0,2.43-1.05,4.23-3.61,4.23h-3.13c-0.47,0-0.68,0.21-0.68,0.56c0,0.27,0.04,0.47,0.14,0.74h-1.77c-0.33-0.47-0.6-1.13-0.6-2.08
			c0-1.13,0.58-2.02,1.63-2.33C762.28,243.32,761.72,242.27,761.72,240.8z M764.09,283.43h-1.77c-0.33-0.47-0.6-1.13-0.6-2.08
			c0-1.13,0.58-2.02,1.63-2.33c-1.07-0.54-1.63-1.59-1.63-3.05c0-1.79,0.93-2.97,2.49-2.97c1.77,0,2.54,1.28,2.89,3.28l0.43,2.58
			h0.14c0.76,0,1.22-0.35,1.22-1.15c0-0.74-0.47-1.11-1.15-1.26l0.21-3.09c2.02,0.29,3.42,1.79,3.42,4.56
			c0,2.43-1.05,4.23-3.61,4.23h-3.13c-0.47,0-0.68,0.21-0.68,0.56C763.95,282.95,763.99,283.16,764.09,283.43z M771.37,316.4
			c0,2.54-1.75,3.28-3.67,3.28h-5.77v-3.34h4.89c1.26,0,1.92-0.23,1.92-1.24c0-1.11-0.91-1.48-2.29-1.48h-4.51v-3.34h4.89
			c1.26,0,1.92-0.25,1.92-1.26c0-1.09-0.91-1.48-2.29-1.48h-4.51v-3.34h9.19v3.34h-1.38c1.01,0.5,1.63,1.48,1.63,2.87
			c0,1.63-0.74,2.47-1.81,2.87C770.59,313.77,771.37,314.86,771.37,316.4z M768.28,302.8l-0.08-2.74c0.66-0.12,1.07-0.7,1.07-1.73
			c0-0.64-0.25-1.01-0.66-1.01c-0.31,0-0.47,0.25-0.52,0.56l-0.31,1.79c-0.33,2.06-1.26,3.26-3.05,3.26c-1.94,0-3.05-1.65-3.05-4.27
			c0-2.54,1.01-4.43,3.24-4.62l0.04,2.91c-0.76,0.12-1.2,0.74-1.2,1.75c0,0.74,0.27,1.13,0.64,1.13c0.35,0,0.6-0.21,0.7-0.85
			l0.21-1.36c0.35-2.23,1.07-3.4,2.95-3.4c1.81,0,3.11,1.59,3.11,4.16C771.37,301.05,770.2,302.62,768.28,302.8z M764.4,333.8
			c0.35,0,0.6-0.21,0.7-0.85l0.21-1.36c0.35-2.23,1.07-3.4,2.95-3.4c1.81,0,3.11,1.59,3.11,4.16c0,2.66-1.17,4.23-3.09,4.41
			l-0.08-2.74c0.66-0.12,1.07-0.7,1.07-1.73c0-0.64-0.25-1.01-0.66-1.01c-0.31,0-0.47,0.25-0.52,0.56l-0.31,1.79
			c-0.33,2.06-1.26,3.26-3.05,3.26c-1.94,0-3.05-1.65-3.05-4.27c0-2.54,1.01-4.43,3.24-4.62l0.04,2.91c-0.76,0.12-1.2,0.74-1.2,1.75
			C763.76,333.41,764.03,333.8,764.4,333.8z M761.93,369.7h9.19v3.34h-9.19V369.7z M766.61,389.07h4.51v3.34h-9.19v-3.34h1.38
			c-1.03-0.49-1.63-1.5-1.63-2.89c0-2.51,1.73-3.28,3.65-3.28h5.79v3.34h-4.91c-1.24,0-1.92,0.35-1.92,1.36
			C764.3,388.66,765.21,389.07,766.61,389.07z M771.12,292.89h-9.19v-3.34h9.19V292.89z M771.12,269.78v2.39h-2.31v-2.39h-3.36
			c-0.78,0-1.09,0.37-1.09,1.05c0,0.41,0.08,0.87,0.31,1.42h-2.16c-0.52-0.7-0.82-1.5-0.82-2.76c0-1.55,0.64-3.01,2.8-3.01h4.33
			v-1.24h2.06l0.1,0.68c0.14,0.93,0.64,1.22,1.48,1.44l1.2,0.31v2.1H771.12z M761.93,264.34V261h9.19v3.34H761.93z M771.12,249.23
			v3.34h-1.59c1.09,0.45,1.83,1.48,1.83,3.03c0,2.7-2.14,4.08-4.84,4.08c-2.72,0-4.84-1.38-4.84-4.08c0-1.55,0.74-2.58,1.81-3.03
			h-4.86v-3.34H771.12z M768.28,402.33l-0.08-2.74c0.66-0.12,1.07-0.7,1.07-1.73c0-0.64-0.25-1.01-0.66-1.01
			c-0.31,0-0.47,0.25-0.52,0.56l-0.31,1.79c-0.33,2.06-1.26,3.26-3.05,3.26c-1.94,0-3.05-1.65-3.05-4.27c0-2.54,1.01-4.43,3.24-4.62
			l0.04,2.91c-0.76,0.12-1.2,0.74-1.2,1.75c0,0.74,0.27,1.13,0.64,1.13c0.35,0,0.6-0.21,0.7-0.85l0.21-1.36
			c0.35-2.23,1.07-3.4,2.95-3.4c1.81,0,3.11,1.59,3.11,4.16C771.37,400.58,770.2,402.14,768.28,402.33z M771.02,381.99l-3.15-0.21
			c0.27-0.45,0.39-0.95,0.39-1.59c0-1.24-0.58-2-2.12-2h-4.21v-3.34h9.19v3.34h-1.63c1.03,0.33,1.88,1.3,1.88,2.52
			C771.37,381.26,771.21,381.76,771.02,381.99z M774.92,373.06h-2.93v-3.38h2.93V373.06z M774.92,358.8l-8.64,3.22v0.08l8.64,3.22
			v3.48l-12.99-4.99v-3.69l12.99-4.99V358.8z M774.92,348.16l-12.99,5.17v-3.73l2.51-0.97v-5.07l-2.51-0.97v-3.52l12.99,5.17V348.16
			z M774.92,326.78h-12.99v-3.5h12.99V326.78z M774.92,292.91h-2.93v-3.38h2.93V292.91z M774.92,287.73h-12.99v-3.34h12.99V287.73z
			 M774.92,264.36h-2.93v-3.38h2.93V264.36z M769.39,237.1l-0.12-3.36c1.44-0.21,2.78-0.99,2.78-3.01c0-1.92-1.42-3.03-3.63-3.03
			s-3.63,1.11-3.63,3.03c0,2.02,1.34,2.8,2.78,3.01l-0.14,3.36c-3.24-0.25-5.75-2.37-5.75-6.35c0-3.79,2.74-6.66,6.74-6.66
			s6.74,2.87,6.74,6.66C775.16,234.73,772.63,236.85,769.39,237.1z M765.35,209.59l2.06,0.43v1.88l2.02,0.49v-1.98l2.06,0.43v2.02
			l3.42,0.82v2.49l-3.42-0.83v1.77l3.42,0.82v2.49l-3.42-0.82v1.83l-2.06-0.43v-1.88l-2.02-0.49v1.98l-2.06-0.43v-2.04l-3.42-0.8
			v-2.49l3.42,0.8v-1.77l-3.42-0.8v-2.49l3.42,0.8V209.59z M682.48-200.24h38.75v18.9c3.83-11.96,15.07-21.77,29.18-21.77
			c6.46,0,12.2,1.91,14.83,4.07l-2.39,36.6c-5.26-3.11-11-4.54-18.42-4.54c-14.35,0-23.2,6.7-23.2,24.64v48.8h-38.75V-200.24z
			 M706.12,577c2.59,3.58,1.79,8.58-1.78,11.17c-1.42,1.03-3.06,1.52-4.69,1.52c-2.48,0-4.92-1.15-6.48-3.31
			c-4.46-6.16-9.31-12.99-14.36-20.18c-8.08-11.51-16.68-23.96-25.11-36.17c-18.81-27.23-38.25-55.38-50.22-70.61
			c-1.27-1.62-1.87-3.67-1.67-5.73c7.25-73.75-4.06-124.89-12.33-162.23c-1.29-5.82-2.51-11.32-3.59-16.6
			c-6.93-33.74-27.17-76.96-45.02-115.09c-2.67-5.7-5.3-11.31-7.84-16.8c-5.19-11.2-11.62-14.41-22.96-11.44
			c-7.97,2.09-20.96,28.97-17.1,58.8c3.65,28.22,19.93,54.94,20.1,55.2c1.22,1.98,1.52,4.39,0.82,6.61
			c-0.17,0.55-17.29,56.5,3.3,108.29c0.37,0.94,0.57,1.94,0.57,2.96v77.15c0,1.79-0.59,3.43-1.59,4.77l1.59,1.18v22.97
			c0,20.33-16.54,36.87-36.87,36.87h-87.99c18.71,12.94,40.61,26.14,65.41,37.84c1.35,0.64,2.49,1.64,3.3,2.89
			c3.94,6.09,7.69,14.68,11.66,23.78c3,6.86,6.09,13.96,9.1,19.45c2.12,3.88,0.7,8.74-3.17,10.86c-1.22,0.67-2.54,0.98-3.84,0.98
			c-2.83,0-5.57-1.5-7.02-4.16c-3.35-6.12-6.59-13.55-9.73-20.73c-3.13-7.17-6.36-14.56-9.29-19.63
			c-33.48-16.01-61.59-34.37-83.85-51.28h-61.1c-20.33,0-36.87-16.54-36.87-36.87v-39.14c-5.44-3.86-11.57-8.36-20.71-15.32
			c-0.01-0.01-0.03-0.02-0.04-0.03c-8.14-6.26-13.48-15.53-14.67-25.43c-1.12-9.34,1.44-18.44,7.2-25.62
			c4.81-5.99,11.31-9.96,18.39-11.82c-3.89-3.1-8.86-7.17-16.17-13.29c-0.01-0.01-0.02-0.02-0.04-0.03
			c-8.98-7.6-14.61-18.49-15.44-29.86c-0.78-10.71,2.61-20.95,9.56-28.83c6.05-6.86,14.09-11.13,22.67-12.72
			c-4.03-3.45-9.26-8.04-18.91-16.51c-0.01-0.01-0.02-0.02-0.04-0.03c-8.92-7.92-14.35-19.09-14.91-30.64
			c-0.53-10.87,3.16-21.16,10.39-28.97c6.32-6.83,14.6-10.95,23.36-12.35c-3.68-3.33-8.22-7.5-14.61-13.36
			c-0.01-0.01-0.02-0.02-0.03-0.03c-8.29-7.7-13.22-18.4-13.51-29.37c-0.28-10.34,3.44-20.03,10.47-27.3
			c7.27-7.51,17.05-11.38,27.04-11.6v-27.7c0-20.33,16.54-36.87,36.87-36.87h176.52c20.33,0,36.87,16.54,36.87,36.87v45.02
			c13.07,0.22,23.25,7.58,29.79,21.72c2.53,5.46,5.15,11.06,7.81,16.73c18.23,38.93,38.89,83.06,46.2,118.66
			c1.06,5.16,2.26,10.6,3.54,16.36c8.38,37.85,19.81,89.5,12.93,164.07c12.25,15.91,30.05,41.67,48.83,68.86
			C680.51,540.71,694.63,561.15,706.12,577z M666.69-149.76V-139h-74.87c0.96,13.16,10.52,19.38,22.25,19.38
			c10.52,0,17.22-3.59,20.81-11.96l31.1,2.87c-5.5,24.4-25.12,38.03-53.34,38.03c-34.21,0-58.6-20.57-58.6-54.54
			c0-33.73,24.88-57.88,58.12-57.88C647.79-203.11,666.69-178.71,666.69-149.76z M592.82-464.92v22.23H516.3v-100.02h26.99v77.8
			H592.82z M523.04-590.47c0-0.89,0.58-1.57,1.57-1.94c-0.82-0.54-1.32-1.32-1.32-2.33c0-1.96,1.86-3.15,4.43-3.15
			c1.11,0,2.16,0.27,2.95,0.74c0.56-0.76,1.57-1.42,2.58-1.42v2.51c-0.39,0-0.89,0.04-1.34,0.14c0.19,0.35,0.29,0.74,0.29,1.17
			c0,1.94-1.88,3.13-4.47,3.13c-0.74,0-1.4-0.08-2-0.27c-0.12,0.1-0.19,0.25-0.19,0.43c0,0.31,0.23,0.56,0.78,0.56h3.81
			c2.08,0,3.13,1.09,3.13,2.64c0,2.29-2.78,3.34-5.77,3.34c-2.62,0-4.89-0.52-4.89-2.25c0-0.8,0.72-1.44,1.75-1.53
			C523.53-588.94,523.04-589.68,523.04-590.47z M515.45-597.64h3.34v1.63c0.33-1.03,1.3-1.88,2.52-1.88c0.56,0,1.05,0.16,1.28,0.35
			l-0.21,3.15c-0.45-0.27-0.95-0.39-1.59-0.39c-1.24,0-2,0.58-2,2.12v4.21h-3.34V-597.64z M515.11-388.09h50.49
			c25.88,0,38.74,12.22,38.74,31.75c0,14.61-9.05,24.13-21.27,25.72c10.32,2.06,16.35,7.94,17.46,19.53
			c1.43,14.92,1.9,19.37,5.24,23.02h-27.31c-2.06-2.7-3.33-8.89-4.13-19.21c-0.79-11.43-5.72-13.97-14.77-13.97h-17.94v33.18h-26.51
			V-388.09z M509.1-597.89c2.99,0,5.03,2,5.03,4.84c0,2.87-2.04,4.84-5.03,4.84c-3.01,0-5.03-1.98-5.03-4.84
			C504.07-595.89,506.09-597.89,509.1-597.89z M497.64-591.99h3.55v3.55h-3.55V-591.99z M490.86-591.62l-1.36-0.21
			c-2.23-0.35-3.4-1.07-3.4-2.95c0-1.81,1.59-3.11,4.16-3.11c2.66,0,4.23,1.18,4.41,3.09l-2.74,0.08c-0.12-0.66-0.7-1.07-1.73-1.07
			c-0.64,0-1.01,0.25-1.01,0.66c0,0.31,0.25,0.47,0.56,0.52l1.79,0.31c2.06,0.33,3.26,1.26,3.26,3.05c0,1.94-1.65,3.05-4.27,3.05
			c-2.54,0-4.43-1.01-4.62-3.24l2.91-0.04c0.12,0.76,0.74,1.2,1.75,1.2c0.74,0,1.13-0.27,1.13-0.64
			C491.71-591.27,491.5-591.52,490.86-591.62z M475.26-597.64h3.34v4.91c0,1.24,0.35,1.92,1.36,1.92c1.05,0,1.46-0.91,1.46-2.31
			v-4.51h3.34v9.19h-3.34v-1.38c-0.49,1.03-1.5,1.63-2.89,1.63c-2.52,0-3.28-1.73-3.28-3.65V-597.64z M467.2-597.64h3.34v1.63
			c0.33-1.03,1.3-1.88,2.52-1.88c0.56,0,1.05,0.16,1.28,0.35l-0.21,3.15c-0.45-0.27-0.95-0.39-1.59-0.39c-1.24,0-2,0.58-2,2.12v4.21
			h-3.34V-597.64z M462.03-601.43h3.38v2.93h-3.38V-601.43z M465.39-597.64v9.19h-3.34v-9.19H465.39z M451.15-601.43l3.22,8.64h0.08
			l3.22-8.64h3.48l-4.99,12.99h-3.69l-4.99-12.99H451.15z M436.54-601.43h3.92l5.17,12.99h-3.73l-0.97-2.52h-5.07l-0.97,2.52h-3.52
			L436.54-601.43z M428.19-542.72h26.99v77.8h49.54v22.23h-76.53V-542.72z M423.59-591.62l-1.36-0.21c-2.23-0.35-3.4-1.07-3.4-2.95
			c0-1.81,1.59-3.11,4.16-3.11c2.66,0,4.23,1.18,4.41,3.09l-2.74,0.08c-0.12-0.66-0.7-1.07-1.73-1.07c-0.64,0-1.01,0.25-1.01,0.66
			c0,0.31,0.25,0.47,0.56,0.52l1.79,0.31c2.06,0.33,3.26,1.26,3.26,3.05c0,1.94-1.65,3.05-4.27,3.05c-2.54,0-4.43-1.01-4.62-3.24
			l2.91-0.04c0.12,0.76,0.74,1.2,1.75,1.2c0.74,0,1.13-0.27,1.13-0.64C424.44-591.27,424.23-591.52,423.59-591.62z M413.91-601.43
			h3.5v12.99h-3.5V-601.43z M393.17-597.64h3.34v1.38c0.49-1.01,1.48-1.63,2.87-1.63c1.63,0,2.47,0.74,2.87,1.81
			c0.49-1.03,1.59-1.81,3.13-1.81c2.54,0,3.28,1.75,3.28,3.67v5.77h-3.34v-4.89c0-1.26-0.23-1.92-1.24-1.92
			c-1.11,0-1.48,0.91-1.48,2.29v4.51h-3.34v-4.89c0-1.26-0.25-1.92-1.26-1.92c-1.09,0-1.48,0.91-1.48,2.29v4.51h-3.34V-597.64z
			 M387.96-591.62l-1.36-0.21c-2.23-0.35-3.4-1.07-3.4-2.95c0-1.81,1.59-3.11,4.16-3.11c2.66,0,4.23,1.18,4.41,3.09l-2.74,0.08
			c-0.12-0.66-0.7-1.07-1.73-1.07c-0.64,0-1.01,0.25-1.01,0.66c0,0.31,0.25,0.47,0.56,0.52l1.79,0.31c2.06,0.33,3.26,1.26,3.26,3.05
			c0,1.94-1.65,3.05-4.27,3.05c-2.54,0-4.43-1.01-4.62-3.24l2.91-0.04c0.12,0.76,0.74,1.2,1.75,1.2c0.74,0,1.13-0.27,1.13-0.64
			C388.8-591.27,388.6-591.52,387.96-591.62z M378.5-601.43h3.38v2.93h-3.38V-601.43z M373.37-601.43h3.34v12.99h-3.34V-601.43z
			 M366.67-595.41c-0.74,0-1.11,0.47-1.26,1.15l-3.09-0.21c0.29-2.02,1.79-3.42,4.56-3.42c2.43,0,4.23,1.05,4.23,3.61v3.13
			c0,0.47,0.21,0.68,0.56,0.68c0.27,0,0.47-0.04,0.74-0.14v1.77c-0.47,0.33-1.13,0.6-2.08,0.6c-1.13,0-2.02-0.58-2.33-1.63
			c-0.54,1.07-1.59,1.63-3.05,1.63c-1.79,0-2.97-0.93-2.97-2.49c0-1.77,1.28-2.54,3.28-2.89l2.58-0.43v-0.14
			C367.82-594.96,367.47-595.41,366.67-595.41z M354.22-597.39l0.68-0.1c0.93-0.14,1.22-0.64,1.44-1.48l0.31-1.2h2.1v2.54h2.39v2.31
			h-2.39v3.36c0,0.78,0.37,1.09,1.05,1.09c0.41,0,0.87-0.08,1.42-0.31v2.16c-0.7,0.52-1.5,0.82-2.76,0.82
			c-1.55,0-3.01-0.64-3.01-2.8v-4.33h-1.24V-597.39z M349.95-601.43h3.38v2.93h-3.38V-601.43z M338.2-597.64h3.34v1.59
			c0.45-1.09,1.48-1.83,3.03-1.83c2.7,0,4.08,2.14,4.08,4.84c0,2.72-1.38,4.84-4.08,4.84c-1.55,0-2.58-0.74-3.03-1.81v4.87h-3.34
			V-597.64z M331.51-595.41c-0.74,0-1.11,0.47-1.26,1.15l-3.09-0.21c0.29-2.02,1.79-3.42,4.56-3.42c2.43,0,4.23,1.05,4.23,3.61v3.13
			c0,0.47,0.21,0.68,0.56,0.68c0.27,0,0.47-0.04,0.74-0.14v1.77c-0.47,0.33-1.13,0.6-2.08,0.6c-1.13,0-2.02-0.58-2.33-1.63
			c-0.54,1.07-1.59,1.63-3.05,1.63c-1.79,0-2.97-0.93-2.97-2.49c0-1.77,1.28-2.54,3.28-2.89l2.58-0.43v-0.14
			C332.66-594.96,332.31-595.41,331.51-595.41z M319.72-601.68c3.98,0,6.1,2.54,6.35,5.77l-3.36,0.12
			c-0.21-1.44-0.99-2.78-3.01-2.78c-1.92,0-3.03,1.42-3.03,3.63s1.11,3.63,3.03,3.63c2.02,0,2.8-1.34,3.01-2.78l3.36,0.14
			c-0.25,3.24-2.37,5.75-6.35,5.75c-3.79,0-6.66-2.74-6.66-6.74S315.92-601.68,319.72-601.68z M306.63-591.99h3.55v3.55h-3.55
			V-591.99z M262.3-597.64l1.65,5.22h0.08l1.34-5.22h2.66l1.34,5.22h0.08l1.65-5.22h2.92h0.09h3.23l1.65,5.22h0.08l1.34-5.22h2.66
			l1.34,5.22h0.08l1.65-5.22h2.92h0.09h3.23l1.65,5.22h0.08l1.34-5.22h2.66l1.34,5.22h0.08l1.65-5.22h3.01l-2.91,9.19h-3.28
			l-1.34-5.19h-0.08l-1.34,5.19h-3.28l-2.86-9.06l-2.86,9.06h-3.28l-1.34-5.19h-0.08l-1.34,5.19h-3.28l-2.86-9.06l-2.86,9.06h-3.28
			l-1.34-5.19h-0.08l-1.34,5.19h-3.28l-2.91-9.19H262.3z M263.71-544.62c30.64,0,47,19.53,48.9,44.46l-25.88,0.95
			c-1.59-11.11-7.62-21.43-23.18-21.43c-14.77,0-23.34,10.96-23.34,27.94s8.57,27.94,23.34,27.94c15.56,0,21.59-10.32,23.18-21.43
			l25.88,1.11c-1.91,24.93-18.26,44.3-48.9,44.3c-29.21,0-51.28-21.12-51.28-51.92S234.5-544.62,263.71-544.62z M227.43-388.09
			l22.54,36.04l21.43-36.04h29.05l-38.42,62.08v37.95h-26.2v-37.95l-38.42-62.08H227.43z M25.65-244.25h62.91l22.25,94.72h0.72
			l21.29-94.72h61.47v150.69h-40.66v-105.96h-0.96L125.63-93.55H90.95L63.92-199.52h-0.96v105.96H25.65V-244.25z M19.25,168.88
			c0,0.39,0.04,0.89,0.14,1.34c0.35-0.19,0.74-0.29,1.18-0.29c1.94,0,3.13,1.88,3.13,4.47c0,0.74-0.08,1.4-0.27,2
			c0.1,0.12,0.25,0.19,0.43,0.19c0.31,0,0.56-0.23,0.56-0.78v-3.81c0-2.08,1.09-3.13,2.64-3.13c2.29,0,3.34,2.78,3.34,5.77
			c0,2.62-0.52,4.89-2.25,4.89c-0.8,0-1.44-0.72-1.53-1.75c-0.27,0.82-1.01,1.32-1.79,1.32c-0.89,0-1.57-0.58-1.94-1.57
			c-0.54,0.82-1.32,1.32-2.33,1.32c-1.96,0-3.15-1.86-3.15-4.43c0-1.11,0.27-2.16,0.74-2.95c-0.76-0.56-1.42-1.57-1.42-2.58H19.25z
			 M13.87,236.71h2.93v3.38h-2.93V236.71z M13.87,250.97l8.64-3.22v-0.08l-8.64-3.22v-3.48l12.99,4.99v3.69l-12.99,4.99V250.97z
			 M13.87,261.67l12.99-5.17v3.73l-2.51,0.97v5.07l2.51,0.97v3.52l-12.99-5.17V261.67z M13.87,284.71h12.99v3.5H13.87V284.71z
			 M13.87,320.24h2.93v3.38h-2.93V320.24z M13.87,325.41h12.99v3.34H13.87V325.41z M13.87,348.79h2.93v3.38h-2.93V348.79z
			 M19.4,376.05l0.12,3.36c-1.44,0.21-2.78,0.99-2.78,3.01c0,1.92,1.42,3.03,3.63,3.03s3.63-1.11,3.63-3.03
			c0-2.02-1.34-2.8-2.78-3.01l0.14-3.36c3.24,0.25,5.75,2.37,5.75,6.35c0,3.79-2.74,6.66-6.74,6.66s-6.74-2.87-6.74-6.66
			C13.63,378.42,16.16,376.3,19.4,376.05z"/>
		<path class="st5" d="M349.13,443.44c-5.18,7.59-13.14,12.7-22.42,14.38c-2.15,0.39-4.33,0.58-6.51,0.58
			c-7.8,0-15.62-2.45-22.19-7.07c-5.89-4.09-10.49-7.23-14.53-9.98v28.11c0,11.51,9.36,20.87,20.87,20.87h176.52
			c11.51,0,20.87-9.36,20.87-20.87v-28.92v-6.07H353.47C352.49,437.6,351.05,440.62,349.13,443.44z M392.39,442.04
			c11.36,0,20.58,9.21,20.58,20.58s-9.21,20.58-20.58,20.58c-11.36,0-20.58-9.21-20.58-20.58S381.02,442.04,392.39,442.04z"/>
		<path class="st5" d="M480.89,48.65H304.36c-11.51,0-20.87,9.36-20.87,20.87v30.52c2.94,1.14,5.78,2.63,8.45,4.46h209.82V69.52
			C501.76,58.01,492.4,48.65,480.89,48.65z M418.53,79.43h-51.81c-4.42,0-8-3.58-8-8s3.58-8,8-8h51.81c4.42,0,8,3.58,8,8
			S422.95,79.43,418.53,79.43z"/>
		<path d="M418.53,63.43h-51.81c-4.42,0-8,3.58-8,8s3.58,8,8,8h51.81c4.42,0,8-3.58,8-8S422.95,63.43,418.53,63.43z"/>
		<path d="M392.39,483.19c11.36,0,20.58-9.21,20.58-20.58s-9.21-20.58-20.58-20.58c-11.36,0-20.58,9.21-20.58,20.58
			S381.02,483.19,392.39,483.19z"/>
		<path d="M605.1,288.01c-1.27-5.76-2.48-11.2-3.54-16.36c-7.31-35.6-27.97-79.72-46.2-118.66c-2.66-5.68-5.28-11.27-7.81-16.73
			c-6.55-14.14-16.72-21.5-29.79-21.72V69.52c0-20.33-16.54-36.87-36.87-36.87H304.36c-20.33,0-36.87,16.54-36.87,36.87v27.7
			c-10,0.22-19.78,4.09-27.04,11.6c-7.03,7.27-10.74,16.96-10.47,27.3c0.3,10.97,5.22,21.67,13.51,29.37
			c0.01,0.01,0.02,0.02,0.03,0.03c6.39,5.86,10.93,10.03,14.61,13.36c-8.76,1.4-17.04,5.52-23.36,12.35
			c-7.23,7.81-10.92,18.1-10.39,28.97c0.56,11.55,6,22.72,14.91,30.64c0.01,0.01,0.02,0.02,0.04,0.03
			c9.64,8.47,14.87,13.06,18.91,16.51c-8.58,1.6-16.62,5.86-22.67,12.72c-6.95,7.88-10.34,18.11-9.56,28.83
			c0.83,11.38,6.46,22.26,15.44,29.86c0.01,0.01,0.02,0.02,0.04,0.03c7.31,6.11,12.28,10.19,16.17,13.29
			c-7.08,1.86-13.58,5.83-18.39,11.82c-5.76,7.18-8.32,16.28-7.2,25.62c1.19,9.89,6.53,19.16,14.67,25.43
			c0.01,0.01,0.03,0.02,0.04,0.03c9.15,6.96,15.27,11.46,20.71,15.32v39.14c0,20.33,16.54,36.87,36.87,36.87h61.1
			c22.26,16.91,50.37,35.27,83.85,51.28c2.94,5.07,6.16,12.46,9.29,19.63c3.14,7.19,6.38,14.62,9.73,20.73
			c1.45,2.66,4.2,4.16,7.02,4.16c1.3,0,2.62-0.32,3.84-0.98c3.88-2.12,5.3-6.98,3.17-10.86c-3.01-5.49-6.1-12.58-9.1-19.45
			c-3.97-9.1-7.72-17.69-11.66-23.78c-0.81-1.25-1.95-2.25-3.3-2.89c-24.8-11.71-46.71-24.9-65.41-37.84h87.99
			c20.33,0,36.87-16.54,36.87-36.87v-22.97l-1.59-1.18c0.99-1.33,1.59-2.98,1.59-4.77v-77.15c0-1.01-0.19-2.02-0.57-2.96
			c-20.59-51.78-3.47-107.74-3.3-108.29c0.7-2.21,0.4-4.63-0.82-6.61c-0.16-0.27-16.45-26.99-20.1-55.2
			c-3.86-29.83,9.13-56.71,17.1-58.8c11.33-2.97,17.77,0.24,22.96,11.44c2.54,5.48,5.17,11.1,7.84,16.8
			c17.85,38.13,38.09,81.35,45.02,115.09c1.08,5.27,2.3,10.77,3.59,16.6c8.26,37.34,19.58,88.48,12.33,162.23
			c-0.2,2.05,0.4,4.1,1.67,5.73c11.97,15.23,31.41,43.38,50.22,70.61c8.43,12.21,17.04,24.66,25.11,36.17
			c5.05,7.2,9.9,14.03,14.36,20.18c1.56,2.16,4.01,3.31,6.48,3.31c1.63,0,3.27-0.5,4.69-1.52c3.58-2.59,4.38-7.59,1.78-11.17
			c-11.49-15.85-25.61-36.29-39.26-56.06c-18.78-27.19-36.58-52.95-48.83-68.86C624.91,377.51,613.48,325.86,605.1,288.01z
			 M254.36,153.75c-5.15-4.79-8.21-11.37-8.39-18.06c-0.16-6,1.96-11.59,5.97-15.74c8.81-9.11,24.05-9.04,33.99,0.19
			c20.56,18.85,20.85,19.1,36.09,31.87c2.61,2.19,5.67,4.75,9.32,7.82c10.3,8.76,12.12,23.82,4.06,33.56
			c-3.68,4.45-9.03,7.19-15.05,7.72c-6.73,0.59-13.67-1.7-19.09-6.31c-3.33-2.8-6.18-5.19-8.67-7.28
			C275.97,173.55,275.65,173.28,254.36,153.75z M249.92,238.87c-5.71-5.08-9.19-12.17-9.54-19.45c-0.32-6.54,1.86-12.69,6.15-17.32
			c9.38-10.14,25.97-10.43,37.01-0.62l0.28,0.25c19.79,17.37,19.79,17.37,30.82,26.16c3.37,2.69,7.79,6.2,14.13,11.3
			c11.41,9.29,13.74,25.64,5.19,36.45c-3.91,4.95-9.68,8.07-16.23,8.78c-7.3,0.8-14.91-1.52-20.9-6.41
			c-6.09-4.9-10.49-8.41-13.94-11.16C270.7,257.13,270.7,257.12,249.92,238.87z M251.77,326.57c-5.71-4.84-9.28-11.69-9.8-18.8
			c-0.47-6.39,1.52-12.46,5.6-17.08c8.94-10.13,25.16-10.81,36.19-1.48c16.52,13.81,20.42,16.64,27.5,21.78
			c4.3,3.12,9.66,7.01,19.77,14.75c11.38,8.82,14.05,24.76,5.95,35.53c-3.71,4.93-9.27,8.11-15.66,8.97
			c-7.13,0.95-14.62-1.14-20.6-5.78c-10.32-7.9-16.03-12.07-20.61-15.42C272.43,343.44,268.57,340.62,251.77,326.57z M256.48,402.29
			c-4.74-3.66-7.85-8.99-8.52-14.64c-0.6-5.04,0.74-9.9,3.79-13.7c6.72-8.38,19.6-9.49,28.75-2.45
			c16.19,12.31,22.38,16.51,32.63,23.47c4.51,3.06,9.61,6.53,16.7,11.44c9.4,6.6,12.13,19.17,6.1,28.02
			c-2.75,4.03-7.03,6.75-12.06,7.66c-5.65,1.02-11.71-0.37-16.68-3.86c-7.13-4.95-12.36-8.51-16.97-11.65
			C279.11,419.01,273,414.85,256.48,402.29z M501.76,434.48v6.07v28.92c0,11.51-9.36,20.87-20.87,20.87H304.36
			c-11.51,0-20.87-9.36-20.87-20.87v-28.11c4.04,2.75,8.63,5.89,14.53,9.98c6.57,4.62,14.39,7.07,22.19,7.07
			c2.18,0,4.36-0.19,6.51-0.58c9.27-1.68,17.23-6.79,22.42-14.38c1.92-2.82,3.36-5.84,4.34-8.97H501.76z M501.76,104.51H291.94
			c-2.68-1.83-5.52-3.32-8.45-4.46V69.52c0-11.51,9.36-20.87,20.87-20.87h176.52c11.51,0,20.87,9.36,20.87,20.87V104.51z"/>
		<path class="st5" d="M307.18,438.22c4.96,3.49,11.03,4.89,16.68,3.86c5.03-0.91,9.31-3.63,12.06-7.66
			c6.04-8.85,3.3-21.42-6.1-28.02c-7.08-4.91-12.19-8.38-16.7-11.44c-10.25-6.96-16.44-11.16-32.63-23.47
			c-9.15-7.04-22.02-5.92-28.75,2.45c-3.05,3.8-4.39,8.66-3.79,13.7c0.68,5.65,3.78,10.98,8.52,14.64
			c16.52,12.56,22.63,16.73,33.73,24.28C294.82,429.71,300.05,433.27,307.18,438.22z"/>
		<path class="st5" d="M300.72,364.47c5.98,4.64,13.48,6.73,20.6,5.78c6.39-0.86,11.95-4.04,15.66-8.97
			c8.11-10.77,5.44-26.71-5.95-35.53c-10.11-7.73-15.47-11.62-19.77-14.75c-7.08-5.14-10.98-7.97-27.5-21.78
			c-11.03-9.33-27.25-8.66-36.19,1.48c-4.08,4.62-6.07,10.69-5.6,17.08c0.52,7.11,4.09,13.96,9.8,18.8
			c16.8,14.05,20.66,16.87,28.34,22.48C284.7,352.4,290.4,356.57,300.72,364.47z"/>
		<path class="st5" d="M296.82,278.01c5.99,4.88,13.6,7.2,20.9,6.41c6.55-0.72,12.32-3.84,16.23-8.78
			c8.55-10.81,6.22-27.16-5.19-36.45c-6.34-5.1-10.76-8.62-14.13-11.3c-11.03-8.78-11.03-8.78-30.82-26.16l-0.28-0.25
			c-11.04-9.81-27.62-9.51-37.01,0.62c-4.28,4.63-6.47,10.78-6.15,17.32c0.35,7.27,3.83,14.36,9.54,19.45
			c20.78,18.25,20.79,18.26,32.97,27.98C286.33,269.6,290.74,273.11,296.82,278.01z"/>
		<path class="st5" d="M301.28,194.8c5.42,4.61,12.36,6.9,19.09,6.31c6.02-0.53,11.36-3.27,15.05-7.72
			c8.06-9.74,6.24-24.8-4.06-33.56c-3.65-3.07-6.71-5.63-9.32-7.82c-15.24-12.77-15.53-13.01-36.09-31.87
			c-9.95-9.23-25.18-9.3-33.99-0.19c-4.01,4.15-6.13,9.74-5.97,15.74c0.18,6.69,3.24,13.27,8.39,18.06
			c21.28,19.53,21.6,19.8,38.26,33.77C295.1,189.61,297.95,192,301.28,194.8z"/>
		<polygon points="17.67,400.93 22.88,402.58 22.88,402.66 17.67,404 17.67,406.66 22.88,408 22.88,408.08 17.67,409.73 
			17.67,412.96 17.67,413.05 17.67,415.97 22.88,417.62 22.88,417.71 17.67,419.04 17.67,421.7 22.88,423.04 22.88,423.13 
			17.67,424.78 17.67,428.01 17.67,428.09 17.67,431.02 22.88,432.67 22.88,432.75 17.67,434.09 17.67,436.75 22.88,438.09 
			22.88,438.17 17.67,439.82 17.67,443.14 26.86,440.23 26.86,436.96 21.67,435.62 21.67,435.53 26.86,434.19 26.86,430.92 
			17.8,428.05 26.86,425.19 26.86,421.91 21.67,420.57 21.67,420.49 26.86,419.15 26.86,415.87 17.8,413.01 26.86,410.14 
			26.86,406.86 21.67,405.52 21.67,405.44 26.86,404.1 26.86,400.82 17.67,397.92 		"/>
		<rect x="23.32" y="391.94" width="3.55" height="3.55"/>
		<path d="M20.37,389.06c4,0,6.74-2.87,6.74-6.66c0-3.98-2.51-6.1-5.75-6.35l-0.14,3.36c1.44,0.21,2.78,0.99,2.78,3.01
			c0,1.92-1.42,3.03-3.63,3.03s-3.63-1.11-3.63-3.03c0-2.02,1.34-2.8,2.78-3.01l-0.12-3.36c-3.24,0.25-5.77,2.37-5.77,6.35
			C13.63,386.19,16.37,389.06,20.37,389.06z"/>
		<path d="M27.07,366.96c0-0.95-0.27-1.61-0.6-2.08H24.7c0.1,0.27,0.14,0.47,0.14,0.74c0,0.35-0.21,0.56-0.68,0.56h-3.13
			c-2.56,0-3.61,1.79-3.61,4.23c0,2.76,1.4,4.27,3.42,4.56l0.21-3.09c-0.68-0.14-1.15-0.52-1.15-1.26c0-0.8,0.45-1.15,1.22-1.15
			h0.14l0.43,2.58c0.35,2,1.11,3.28,2.89,3.28c1.57,0,2.49-1.17,2.49-2.97c0-1.46-0.56-2.52-1.63-3.05
			C26.49,368.98,27.07,368.1,27.07,366.96z M24.14,372.1c-0.6,0-0.85-0.47-1.01-1.28l-0.25-1.36h0.14c1.2,0,1.9,0.76,1.9,1.71
			C24.92,371.72,24.61,372.1,24.14,372.1z"/>
		<path d="M27.11,357.54c0-2.7-2.12-4.08-4.84-4.08c-2.7,0-4.84,1.38-4.84,4.08c0,1.55,0.74,2.58,1.83,3.03h-1.59v3.34h12.49v-3.34
			h-4.86C26.37,360.12,27.11,359.09,27.11,357.54z M22.33,360.57H22.2c-1.32,0-2.18-0.72-2.18-1.86c0-1.3,0.93-1.9,2.25-1.9
			c1.34,0,2.27,0.6,2.27,1.9C24.53,359.85,23.67,360.57,22.33,360.57z"/>
		<rect x="13.87" y="348.79" width="2.93" height="3.38"/>
		<rect x="17.67" y="348.81" width="9.19" height="3.34"/>
		<path d="M15.13,345.47l1.2,0.31c0.85,0.23,1.34,0.52,1.48,1.44l0.1,0.68h2.06v-1.24h4.33c2.16,0,2.8-1.46,2.8-3.01
			c0-1.26-0.31-2.06-0.82-2.76h-2.16c0.23,0.56,0.31,1.01,0.31,1.42c0,0.68-0.31,1.05-1.09,1.05h-3.36v-2.39h-2.31v2.39h-2.54
			V345.47z"/>
		<path d="M24.16,331.02h-3.13c-2.56,0-3.61,1.79-3.61,4.23c0,2.76,1.4,4.27,3.42,4.56l0.21-3.09c-0.68-0.14-1.15-0.52-1.15-1.26
			c0-0.8,0.45-1.15,1.22-1.15h0.14l0.43,2.58c0.35,2,1.11,3.28,2.89,3.28c1.57,0,2.49-1.17,2.49-2.97c0-1.46-0.56-2.52-1.63-3.05
			c1.05-0.31,1.63-1.2,1.63-2.33c0-0.95-0.27-1.61-0.6-2.08H24.7c0.1,0.27,0.14,0.47,0.14,0.74
			C24.84,330.81,24.63,331.02,24.16,331.02z M24.92,336.01c0,0.56-0.31,0.93-0.78,0.93c-0.6,0-0.85-0.47-1.01-1.28l-0.25-1.36h0.14
			C24.22,334.3,24.92,335.06,24.92,336.01z"/>
		<rect x="13.87" y="325.41" width="12.99" height="3.34"/>
		<rect x="17.67" y="320.26" width="9.19" height="3.34"/>
		<rect x="13.87" y="320.24" width="2.93" height="3.38"/>
		<path d="M20.53,318.92c1.88,0,2.6-1.17,2.95-3.4l0.21-1.36c0.1-0.64,0.35-0.85,0.7-0.85c0.37,0,0.64,0.39,0.64,1.13
			c0,1.01-0.43,1.63-1.2,1.75l0.04,2.91c2.23-0.19,3.24-2.08,3.24-4.62c0-2.62-1.11-4.27-3.05-4.27c-1.79,0-2.72,1.2-3.05,3.26
			l-0.31,1.79c-0.04,0.31-0.21,0.56-0.52,0.56c-0.41,0-0.66-0.37-0.66-1.01c0-1.03,0.41-1.61,1.07-1.73l-0.08-2.74
			c-1.92,0.19-3.09,1.75-3.09,4.41C17.42,317.33,18.72,318.92,20.53,318.92z"/>
		<path d="M17.42,302.74c0,1.38,0.62,2.37,1.63,2.87h-1.38v3.34h9.19v-3.34h-4.51c-1.38,0-2.29-0.39-2.29-1.48
			c0-1.01,0.66-1.26,1.92-1.26h4.89v-3.34h-4.51c-1.38,0-2.29-0.37-2.29-1.48c0-1.01,0.66-1.24,1.92-1.24h4.89v-3.34h-5.77
			c-1.92,0-3.67,0.74-3.67,3.28c0,1.55,0.78,2.64,1.81,3.13C18.16,300.27,17.42,301.11,17.42,302.74z"/>
		<rect x="13.87" y="284.71" width="12.99" height="3.5"/>
		<path d="M23.83,280.57l0.04,2.91c2.23-0.19,3.24-2.08,3.24-4.62c0-2.62-1.11-4.27-3.05-4.27c-1.79,0-2.72,1.2-3.05,3.26
			l-0.31,1.79c-0.04,0.31-0.21,0.56-0.52,0.56c-0.41,0-0.66-0.37-0.66-1.01c0-1.03,0.41-1.61,1.07-1.73l-0.08-2.74
			c-1.92,0.19-3.09,1.75-3.09,4.41c0,2.58,1.3,4.16,3.11,4.16c1.88,0,2.6-1.18,2.95-3.4l0.21-1.36c0.1-0.64,0.35-0.85,0.7-0.85
			c0.37,0,0.64,0.39,0.64,1.13C25.03,279.82,24.59,280.44,23.83,280.57z"/>
		<path d="M26.86,267.23l-2.51-0.97v-5.07l2.51-0.97v-3.73l-12.99,5.17v3.92l12.99,5.17V267.23z M21.73,265.25l-3.83-1.48v-0.08
			l3.83-1.48V265.25z"/>
		<polygon points="26.86,245.96 13.87,240.97 13.87,244.46 22.51,247.67 22.51,247.75 13.87,250.97 13.87,254.64 26.86,249.65 		"/>
		<rect x="13.87" y="236.71" width="2.93" height="3.38"/>
		<rect x="17.67" y="236.73" width="9.19" height="3.34"/>
		<path d="M19.3,231.58h-1.63v3.34h9.19v-3.34h-4.21c-1.55,0-2.12-0.76-2.12-2c0-0.64,0.12-1.13,0.39-1.59l-3.15-0.21
			c-0.19,0.23-0.35,0.72-0.35,1.28C17.42,230.28,18.27,231.25,19.3,231.58z"/>
		<path d="M22.57,223.52h-4.91v3.34h5.79c1.92,0,3.65-0.76,3.65-3.28c0-1.38-0.6-2.39-1.63-2.89h1.38v-3.34h-9.19v3.34h4.51
			c1.4,0,2.31,0.41,2.31,1.46C24.49,223.17,23.81,223.52,22.57,223.52z"/>
		<path d="M20.53,216.02c1.88,0,2.6-1.18,2.95-3.4l0.21-1.36c0.1-0.64,0.35-0.85,0.7-0.85c0.37,0,0.64,0.39,0.64,1.13
			c0,1.01-0.43,1.63-1.2,1.75l0.04,2.91c2.23-0.19,3.24-2.08,3.24-4.62c0-2.62-1.11-4.27-3.05-4.27c-1.79,0-2.72,1.2-3.05,3.26
			l-0.31,1.79c-0.04,0.31-0.21,0.56-0.52,0.56c-0.41,0-0.66-0.37-0.66-1.01c0-1.03,0.41-1.61,1.07-1.73l-0.08-2.74
			c-1.92,0.19-3.09,1.75-3.09,4.41C17.42,214.43,18.72,216.02,20.53,216.02z"/>
		<rect x="23.32" y="200.93" width="3.55" height="3.55"/>
		<path d="M22.26,198.04c2.87,0,4.84-2.02,4.84-5.03c0-2.99-1.98-5.03-4.84-5.03c-2.84,0-4.84,2.04-4.84,5.03
			C17.42,196.02,19.42,198.04,22.26,198.04z M22.26,191.34c1.38,0,2.33,0.52,2.33,1.67c0,1.17-0.95,1.67-2.33,1.67
			s-2.33-0.49-2.33-1.67C19.93,191.86,20.88,191.34,22.26,191.34z"/>
		<path d="M17.77,179.53c-0.19,0.23-0.35,0.72-0.35,1.28c0,1.22,0.85,2.19,1.88,2.52h-1.63v3.34h9.19v-3.34h-4.21
			c-1.55,0-2.12-0.76-2.12-2c0-0.64,0.12-1.13,0.39-1.59L17.77,179.53z"/>
		<path d="M18.16,171.45c-0.47,0.78-0.74,1.83-0.74,2.95c0,2.58,1.2,4.43,3.15,4.43c1.01,0,1.79-0.49,2.33-1.32
			c0.37,0.99,1.05,1.57,1.94,1.57c0.78,0,1.53-0.49,1.79-1.32c0.08,1.03,0.72,1.75,1.53,1.75c1.73,0,2.25-2.27,2.25-4.89
			c0-2.99-1.05-5.77-3.34-5.77c-1.55,0-2.64,1.05-2.64,3.13v3.81c0,0.56-0.25,0.78-0.56,0.78c-0.19,0-0.33-0.06-0.43-0.19
			c0.19-0.6,0.27-1.26,0.27-2c0-2.6-1.2-4.47-3.13-4.47c-0.43,0-0.83,0.1-1.18,0.29c-0.1-0.45-0.14-0.95-0.14-1.34h-2.52
			C16.74,169.89,17.4,170.9,18.16,171.45z M27.27,172.77c0-0.56,0.14-0.85,0.54-0.85c0.56,0,0.87,1.13,0.87,2.68
			c0,1.24-0.19,2.16-0.85,2.16c-0.35,0-0.56-0.25-0.56-0.62V172.77z M20.57,173.39c0.82,0,1.34,0.41,1.34,0.97
			c0,0.56-0.52,0.97-1.34,0.97c-0.8,0-1.32-0.41-1.32-0.97C19.25,173.8,19.77,173.39,20.57,173.39z"/>
		<path d="M761.93,213.1l3.42,0.8v1.77l-3.42-0.8v2.49l3.42,0.8v2.04l2.06,0.43v-1.98l2.02,0.49v1.88l2.06,0.43v-1.83l3.42,0.82
			v-2.49l-3.42-0.82v-1.77l3.42,0.83v-2.49l-3.42-0.82v-2.02l-2.06-0.43v1.98l-2.02-0.49v-1.88l-2.06-0.43v1.81l-3.42-0.8V213.1z
			 M767.41,214.4l2.02,0.5v1.77l-2.02-0.49V214.4z"/>
		<path d="M768.42,224.09c-4,0-6.74,2.87-6.74,6.66c0,3.98,2.51,6.1,5.75,6.35l0.14-3.36c-1.44-0.21-2.78-0.99-2.78-3.01
			c0-1.92,1.42-3.03,3.63-3.03s3.63,1.11,3.63,3.03c0,2.02-1.34,2.8-2.78,3.01l0.12,3.36c3.24-0.25,5.77-2.37,5.77-6.35
			C775.16,226.95,772.42,224.09,768.42,224.09z"/>
		<path d="M761.72,246.18c0,0.95,0.27,1.61,0.6,2.08h1.77c-0.1-0.27-0.14-0.47-0.14-0.74c0-0.35,0.21-0.56,0.68-0.56h3.13
			c2.56,0,3.61-1.79,3.61-4.23c0-2.76-1.4-4.27-3.42-4.56l-0.21,3.09c0.68,0.14,1.15,0.52,1.15,1.26c0,0.8-0.45,1.15-1.22,1.15
			h-0.14l-0.43-2.58c-0.35-2-1.11-3.28-2.89-3.28c-1.57,0-2.49,1.18-2.49,2.97c0,1.46,0.56,2.52,1.63,3.05
			C762.3,244.16,761.72,245.05,761.72,246.18z M764.65,241.05c0.6,0,0.85,0.47,1.01,1.28l0.25,1.36h-0.14c-1.2,0-1.9-0.76-1.9-1.71
			C763.87,241.42,764.18,241.05,764.65,241.05z"/>
		<path d="M758.63,252.57h4.86c-1.07,0.45-1.81,1.48-1.81,3.03c0,2.7,2.12,4.08,4.84,4.08c2.7,0,4.84-1.38,4.84-4.08
			c0-1.55-0.74-2.58-1.83-3.03h1.59v-3.34h-12.49V252.57z M766.46,252.57h0.12c1.32,0,2.18,0.72,2.18,1.86c0,1.3-0.93,1.9-2.25,1.9
			c-1.34,0-2.27-0.6-2.27-1.9C764.26,253.29,765.12,252.57,766.46,252.57z"/>
		<rect x="771.99" y="260.98" width="2.93" height="3.38"/>
		<rect x="761.93" y="261" width="9.19" height="3.34"/>
		<path d="M773.66,267.68l-1.2-0.31c-0.85-0.23-1.34-0.52-1.48-1.44l-0.1-0.68h-2.06v1.24h-4.33c-2.16,0-2.8,1.46-2.8,3.01
			c0,1.26,0.31,2.06,0.82,2.76h2.16c-0.23-0.56-0.31-1.01-0.31-1.42c0-0.68,0.31-1.05,1.09-1.05h3.36v2.39h2.31v-2.39h2.54V267.68z"
			/>
		<path d="M764.63,282.13h3.13c2.56,0,3.61-1.79,3.61-4.23c0-2.76-1.4-4.27-3.42-4.56l-0.21,3.09c0.68,0.14,1.15,0.52,1.15,1.26
			c0,0.8-0.45,1.15-1.22,1.15h-0.14l-0.43-2.58c-0.35-2-1.11-3.28-2.89-3.28c-1.57,0-2.49,1.18-2.49,2.97
			c0,1.46,0.56,2.51,1.63,3.05c-1.05,0.31-1.63,1.2-1.63,2.33c0,0.95,0.27,1.61,0.6,2.08h1.77c-0.1-0.27-0.14-0.47-0.14-0.74
			C763.95,282.33,764.16,282.13,764.63,282.13z M763.87,277.14c0-0.56,0.31-0.93,0.78-0.93c0.6,0,0.85,0.47,1.01,1.28l0.25,1.36
			h-0.14C764.57,278.85,763.87,278.09,763.87,277.14z"/>
		<rect x="761.93" y="284.39" width="12.99" height="3.34"/>
		<rect x="761.93" y="289.55" width="9.19" height="3.34"/>
		<rect x="771.99" y="289.53" width="2.93" height="3.38"/>
		<path d="M768.26,294.22c-1.88,0-2.6,1.18-2.95,3.4l-0.21,1.36c-0.1,0.64-0.35,0.85-0.7,0.85c-0.37,0-0.64-0.39-0.64-1.13
			c0-1.01,0.43-1.63,1.2-1.75l-0.04-2.91c-2.23,0.19-3.24,2.08-3.24,4.62c0,2.62,1.11,4.27,3.05,4.27c1.79,0,2.72-1.2,3.05-3.26
			l0.31-1.79c0.04-0.31,0.21-0.56,0.52-0.56c0.41,0,0.66,0.37,0.66,1.01c0,1.03-0.41,1.61-1.07,1.73l0.08,2.74
			c1.92-0.19,3.09-1.75,3.09-4.41C771.37,295.81,770.07,294.22,768.26,294.22z"/>
		<path d="M771.37,310.41c0-1.38-0.62-2.37-1.63-2.87h1.38v-3.34h-9.19v3.34h4.51c1.38,0,2.29,0.39,2.29,1.48
			c0,1.01-0.66,1.26-1.92,1.26h-4.89v3.34h4.51c1.38,0,2.29,0.37,2.29,1.48c0,1.01-0.66,1.24-1.92,1.24h-4.89v3.34h5.77
			c1.92,0,3.67-0.74,3.67-3.28c0-1.55-0.78-2.64-1.81-3.13C770.63,312.88,771.37,312.03,771.37,310.41z"/>
		<rect x="761.93" y="323.27" width="12.99" height="3.5"/>
		<path d="M764.96,330.92l-0.04-2.91c-2.23,0.19-3.24,2.08-3.24,4.62c0,2.62,1.11,4.27,3.05,4.27c1.79,0,2.72-1.2,3.05-3.26
			l0.31-1.79c0.04-0.31,0.21-0.56,0.52-0.56c0.41,0,0.66,0.37,0.66,1.01c0,1.03-0.41,1.61-1.07,1.73l0.08,2.74
			c1.92-0.19,3.09-1.75,3.09-4.41c0-2.58-1.3-4.16-3.11-4.16c-1.88,0-2.6,1.18-2.95,3.4l-0.21,1.36c-0.1,0.64-0.35,0.85-0.7,0.85
			c-0.37,0-0.64-0.39-0.64-1.13C763.76,331.66,764.2,331.04,764.96,330.92z"/>
		<path d="M761.93,342.59l2.51,0.97v5.07l-2.51,0.97v3.73l12.99-5.17v-3.92l-12.99-5.17V342.59z M767.06,344.57l3.83,1.48v0.08
			l-3.83,1.48V344.57z"/>
		<polygon points="761.93,363.81 774.92,368.8 774.92,365.31 766.28,362.1 766.28,362.01 774.92,358.8 774.92,355.13 761.93,360.12 
					"/>
		<rect x="771.99" y="369.68" width="2.93" height="3.38"/>
		<rect x="761.93" y="369.7" width="9.19" height="3.34"/>
		<path d="M769.49,378.19h1.63v-3.34h-9.19v3.34h4.21c1.55,0,2.12,0.76,2.12,2c0,0.64-0.12,1.13-0.39,1.59l3.15,0.21
			c0.19-0.23,0.35-0.72,0.35-1.28C771.37,379.49,770.52,378.52,769.49,378.19z"/>
		<path d="M766.22,386.25h4.91v-3.34h-5.79c-1.92,0-3.65,0.76-3.65,3.28c0,1.38,0.6,2.39,1.63,2.89h-1.38v3.34h9.19v-3.34h-4.51
			c-1.4,0-2.31-0.41-2.31-1.46C764.3,386.6,764.98,386.25,766.22,386.25z"/>
		<path d="M768.26,393.75c-1.88,0-2.6,1.17-2.95,3.4l-0.21,1.36c-0.1,0.64-0.35,0.85-0.7,0.85c-0.37,0-0.64-0.39-0.64-1.13
			c0-1.01,0.43-1.63,1.2-1.75l-0.04-2.91c-2.23,0.19-3.24,2.08-3.24,4.62c0,2.62,1.11,4.27,3.05,4.27c1.79,0,2.72-1.2,3.05-3.26
			l0.31-1.79c0.04-0.31,0.21-0.56,0.52-0.56c0.41,0,0.66,0.37,0.66,1.01c0,1.03-0.41,1.61-1.07,1.73l0.08,2.74
			c1.92-0.19,3.09-1.75,3.09-4.41C771.37,395.34,770.07,393.75,768.26,393.75z"/>
	</g>
</g>
</svg>
