<?xml version="1.0" encoding="utf-8"?>
<!-- Generator: Adobe Illustrator 23.1.1, SVG Export Plug-In . SVG Version: 6.00 Build 0)  -->
<svg version="1.1" xmlns="http://www.w3.org/2000/svg" xmlns:xlink="http://www.w3.org/1999/xlink" x="0px" y="0px"
	 viewBox="0 0 792 612" style="enable-background:new 0 0 792 612;" xml:space="preserve">
<style type="text/css">
	.st0{display:none;}
	.st1{display:inline;}
	
		.st2{display:inline;fill:#FFFFFF;stroke:#000000;stroke-width:16;stroke-linecap:round;stroke-linejoin:round;stroke-miterlimit:10;}
	.st3{fill:#FFFFFF;stroke:#000000;stroke-width:16;stroke-linecap:round;stroke-linejoin:round;stroke-miterlimit:10;}
	.st4{display:inline;fill:none;stroke:#000000;stroke-width:24;stroke-linejoin:round;stroke-miterlimit:10;}
	.st5{display:inline;fill:#FFFFFF;}
	.st6{fill:#FFFFFF;stroke:#000000;stroke-width:17;stroke-linecap:round;stroke-miterlimit:10;}
	.st7{fill:#FFFFFF;stroke:#000000;stroke-width:17;stroke-miterlimit:10;}
	.st8{stroke:#000000;stroke-width:16.0572;stroke-linecap:round;stroke-miterlimit:10;}
	.st9{fill:#FFFFFF;}
	.st10{fill:#FFFFFF;stroke:#000000;stroke-width:17.1072;stroke-linecap:round;stroke-linejoin:round;stroke-miterlimit:10;}
	.st11{stroke:#000000;stroke-width:17.1072;stroke-linecap:round;stroke-linejoin:round;stroke-miterlimit:10;}
	.st12{fill:#FFFFFF;stroke:#000000;stroke-width:14.7375;stroke-linecap:round;stroke-linejoin:round;stroke-miterlimit:10;}
	.st13{fill:none;stroke:#000000;stroke-width:14.7375;stroke-linecap:round;stroke-linejoin:round;stroke-miterlimit:10;}
	.st14{stroke:#000000;stroke-width:14.7375;stroke-linecap:round;stroke-linejoin:round;stroke-miterlimit:10;}
	.st15{fill:#FFFFFF;stroke:#000000;stroke-width:14.2911;stroke-linecap:round;stroke-linejoin:round;stroke-miterlimit:10;}
	.st16{fill:none;stroke:#000000;stroke-width:13.497;stroke-miterlimit:10;}
	.st17{fill:#FFFFFF;stroke:#000000;stroke-width:13.497;stroke-linecap:round;stroke-linejoin:round;stroke-miterlimit:10;}
	.st18{fill:#FFFFFF;stroke:#000000;stroke-width:13.497;stroke-miterlimit:10;}
	.st19{fill:#FFFFFF;stroke:#000000;stroke-width:14.7439;stroke-linecap:round;stroke-miterlimit:10;}
	.st20{fill:#FFFFFF;stroke:#000000;stroke-width:14.7439;stroke-miterlimit:10;}
	.st21{stroke:#000000;stroke-width:13.9262;stroke-linecap:round;stroke-miterlimit:10;}
	
		.st22{display:inline;fill:#FFFFFF;stroke:#000000;stroke-width:14.6942;stroke-linecap:round;stroke-linejoin:round;stroke-miterlimit:10;}
	.st23{fill:#FFFFFF;stroke:#000000;stroke-width:14.6942;stroke-linecap:round;stroke-linejoin:round;stroke-miterlimit:10;}
	.st24{fill:none;stroke:#000000;stroke-width:24;stroke-linejoin:round;stroke-miterlimit:10;}
	.st25{fill:none;stroke:#000000;stroke-width:30.5612;stroke-linecap:round;stroke-linejoin:round;stroke-miterlimit:10;}
	.st26{fill:#FFFFFF;stroke:#000000;stroke-width:16.2993;stroke-linecap:round;stroke-linejoin:round;stroke-miterlimit:10;}
	.st27{display:inline;fill:#FFFFFF;stroke:#000000;stroke-width:13.497;stroke-linecap:round;stroke-miterlimit:10;}
	
		.st28{display:inline;fill:none;stroke:#000000;stroke-width:13.497;stroke-linecap:round;stroke-linejoin:round;stroke-miterlimit:10;}
	
		.st29{display:inline;fill:#FFFFFF;stroke:#000000;stroke-width:13.497;stroke-linecap:round;stroke-linejoin:round;stroke-miterlimit:10;}
	
		.st30{display:inline;fill:url(#);stroke:#000000;stroke-width:13.497;stroke-linecap:round;stroke-linejoin:round;stroke-miterlimit:10;}
	.st31{fill:#FFFFFF;stroke:#000000;stroke-width:15.2362;stroke-linecap:round;stroke-linejoin:round;stroke-miterlimit:10;}
	.st32{fill:#FFFFFF;stroke:#000000;stroke-width:14.8467;stroke-linecap:round;stroke-linejoin:round;stroke-miterlimit:10;}
	.st33{stroke:#000000;stroke-width:20.1683;stroke-linecap:round;stroke-miterlimit:10;}
	.st34{fill:none;stroke:#000000;stroke-width:14.8467;stroke-linecap:round;stroke-linejoin:round;stroke-miterlimit:10;}
	.st35{fill:#FFFFFF;stroke:#FFFFFF;stroke-width:3;stroke-miterlimit:10;}
	.st36{display:inline;fill:none;stroke:#000000;stroke-width:15;stroke-linecap:round;stroke-linejoin:round;stroke-miterlimit:10;}
	
		.st37{display:inline;fill:#FFFFFF;stroke:#000000;stroke-width:15;stroke-linecap:round;stroke-linejoin:round;stroke-miterlimit:10;}
	.st38{fill:#FFFFFF;stroke:#000000;stroke-width:15;stroke-linecap:round;stroke-linejoin:round;stroke-miterlimit:10;}
	.st39{fill:#FFFFFF;stroke:#000000;stroke-width:11.7326;stroke-linecap:round;stroke-linejoin:round;stroke-miterlimit:10;}
	.st40{fill:#FFFFFF;stroke:#000000;stroke-width:13.2623;stroke-linecap:round;stroke-linejoin:round;stroke-miterlimit:10;}
	.st41{font-family:'FoundersGrotesk-Bold';}
	.st42{font-size:20.6105px;}
	.st43{font-size:10.3052px;}
	.st44{font-size:19.2364px;}
	.st45{font-size:10px;}
	.st46{fill:none;stroke:#000000;stroke-width:16;stroke-linecap:round;stroke-miterlimit:10;}
	.st47{fill:url(#);stroke:#000000;stroke-width:16;stroke-linecap:round;stroke-linejoin:round;stroke-miterlimit:10;}
	.st48{fill:#FFFFFF;stroke:#000000;stroke-width:16;stroke-linecap:round;stroke-miterlimit:10;}
	.st49{fill:#FFFFFF;stroke:#000000;stroke-width:13.2623;stroke-linecap:round;stroke-miterlimit:10;}
	.st50{stroke:#000000;stroke-width:4.5213;stroke-miterlimit:10;}
	.st51{fill:none;stroke:#000000;stroke-width:15.2344;stroke-linecap:round;stroke-linejoin:round;stroke-miterlimit:10;}
	.st52{fill:#FFFFFF;stroke:#000000;stroke-width:15.2344;stroke-linecap:round;stroke-linejoin:round;stroke-miterlimit:10;}
	.st53{stroke:#000000;stroke-width:18.3348;stroke-linecap:round;stroke-miterlimit:10;}
	.st54{fill:none;stroke:#000000;stroke-width:13.497;stroke-linecap:round;stroke-linejoin:round;stroke-miterlimit:10;}
	.st55{font-size:180.6389px;}
	.st56{font-size:219.9206px;}
	.st57{font-size:98.7079px;}
	.st58{display:inline;fill:none;stroke:#000000;stroke-width:16;stroke-linecap:round;stroke-linejoin:round;stroke-miterlimit:10;}
	.st59{fill:#FFFFFF;stroke:#000000;stroke-width:13.3058;stroke-linecap:round;stroke-linejoin:round;stroke-miterlimit:10;}
	.st60{fill:#FFFFFF;stroke:#000000;stroke-width:17;stroke-linecap:round;stroke-linejoin:round;stroke-miterlimit:10;}
	.st61{fill:#FFFFFF;stroke:#000000;stroke-width:15.2517;stroke-linecap:round;stroke-linejoin:round;stroke-miterlimit:10;}
	.st62{stroke:#000000;stroke-width:3;stroke-miterlimit:10;}
	.st63{fill:#FFFFFF;stroke:#000000;stroke-width:16.0686;stroke-linecap:round;stroke-linejoin:round;stroke-miterlimit:10;}
	.st64{fill:#FFFFFF;stroke:#000000;stroke-width:15;stroke-linejoin:round;stroke-miterlimit:10;}
	.st65{fill:url(#);stroke:#000000;stroke-width:13.497;stroke-linecap:round;stroke-linejoin:round;stroke-miterlimit:10;}
	.st66{fill:#06A6FF;}
	.st67{fill:#FF0303;}
	.st68{fill:#3DFF06;}
	.st69{fill:#FFF808;}
	.st70{fill:none;stroke:#000000;stroke-width:0;stroke-linecap:round;stroke-linejoin:round;}
</style>
<g id="unexpanded" class="st0">
	<g class="st1">
		<g>
			<text transform="matrix(1 0 0 1 258.9679 599.7979)"><tspan x="0" y="0" class="st41 st42">www</tspan><tspan x="45.14" y="0" class="st41 st43"> </tspan><tspan x="46.99" y="0" class="st41 st42">.</tspan><tspan x="51.77" y="0" class="st41 st43"> </tspan><tspan x="53.63" y="0" class="st41 st42">Capitalism</tspan><tspan x="150.43" y="0" class="st41 st44"> </tspan><tspan x="153.9" y="0" class="st41 st42">Is</tspan><tspan x="168.88" y="0" class="st41 st44"> </tspan><tspan x="172.34" y="0" class="st41 st42">A</tspan><tspan x="186.6" y="0" class="st41 st43"> </tspan><tspan x="188.46" y="0" class="st41 st42">Virus</tspan><tspan x="236.15" y="0" class="st41 st43"> </tspan><tspan x="238.01" y="0" class="st41 st42">.</tspan><tspan x="242.79" y="0" class="st41 st43"> </tspan><tspan x="244.64" y="0" class="st41 st42">org</tspan></text>
		</g>
		<g>
			<text transform="matrix(1 0 0 1 299.1802 22.1245)"><tspan x="0" y="0" class="st41 st42">#</tspan><tspan x="12.7" y="0" class="st41 st45"> </tspan><tspan x="14.5" y="0" class="st41 st42">Capitalism</tspan><tspan x="111.3" y="0" class="st41 st45"> </tspan><tspan x="113.1" y="0" class="st41 st42">Is</tspan><tspan x="128.09" y="0" class="st41 st45"> </tspan><tspan x="129.89" y="0" class="st41 st42">A</tspan><tspan x="144.15" y="0" class="st41 st45"> </tspan><tspan x="145.95" y="0" class="st41 st42">Virus</tspan></text>
		</g>
	</g>
	<g class="st1">
		<text transform="matrix(1 0 0 1 97.502 548.9163)" class="st41 st55">PROFIT</text>
		<text transform="matrix(1 0 0 1 2.4595 295.7184)" class="st41 st56">PEOPLE</text>
	</g>
	<g class="st1">
		<g>
			<text transform="matrix(1 0 0 1 38.6797 114.2866)" class="st41 st57">Socialism Means</text>
		</g>
	</g>
	<g class="st1">
		<g>
			<text transform="matrix(1 0 0 1 291.1736 393.0634)" class="st41 st57">Over</text>
		</g>
	</g>
</g>
<g id="expanded">
	<polygon points="299.46,595.82 298.12,590.6 295.46,590.6 294.12,595.82 294.04,595.82 292.39,590.6 289.15,590.6 289.07,590.6 
		286.14,590.6 284.5,595.82 284.41,595.82 283.07,590.6 280.41,590.6 279.07,595.82 278.99,595.82 277.34,590.6 274.11,590.6 
		274.02,590.6 271.1,590.6 269.45,595.82 269.37,595.82 268.03,590.6 265.37,590.6 264.03,595.82 263.95,595.82 262.3,590.6 
		258.98,590.6 261.88,599.8 265.16,599.8 266.5,594.6 266.58,594.6 267.92,599.8 271.2,599.8 274.07,590.74 276.93,599.8 
		280.21,599.8 281.55,594.6 281.63,594.6 282.97,599.8 286.25,599.8 289.11,590.74 291.98,599.8 295.25,599.8 296.59,594.6 
		296.68,594.6 298.02,599.8 301.29,599.8 304.2,590.6 301.19,590.6 299.54,595.82 	"/>
	<rect x="306.63" y="596.25" width="3.55" height="3.55"/>
	<path d="M319.7,589.68c2.02,0,2.8,1.34,3.01,2.78l3.36-0.12c-0.25-3.24-2.37-5.77-6.35-5.77c-3.79,0-6.66,2.74-6.66,6.74
		s2.87,6.74,6.66,6.74c3.98,0,6.1-2.51,6.35-5.75l-3.36-0.14c-0.21,1.44-0.99,2.78-3.01,2.78c-1.92,0-3.03-1.42-3.03-3.63
		S317.78,589.68,319.7,589.68z"/>
	<path d="M330.08,594.62c-2,0.35-3.28,1.11-3.28,2.89c0,1.57,1.17,2.49,2.97,2.49c1.46,0,2.51-0.56,3.05-1.63
		c0.31,1.05,1.2,1.63,2.33,1.63c0.95,0,1.61-0.27,2.08-0.6v-1.77c-0.27,0.1-0.47,0.14-0.74,0.14c-0.35,0-0.56-0.21-0.56-0.68v-3.13
		c0-2.56-1.79-3.61-4.23-3.61c-2.76,0-4.27,1.4-4.56,3.42l3.09,0.21c0.14-0.68,0.52-1.15,1.26-1.15c0.8,0,1.15,0.45,1.15,1.22v0.14
		L330.08,594.62z M332.66,595.96c0,1.2-0.76,1.9-1.71,1.9c-0.56,0-0.93-0.31-0.93-0.78c0-0.6,0.47-0.85,1.28-1.01l1.36-0.25V595.96z
		"/>
	<path d="M338.2,590.6v12.49h3.34v-4.86c0.45,1.07,1.48,1.81,3.03,1.81c2.7,0,4.08-2.12,4.08-4.84c0-2.7-1.38-4.84-4.08-4.84
		c-1.55,0-2.58,0.74-3.03,1.83v-1.59H338.2z M343.4,592.95c1.3,0,1.9,0.93,1.9,2.25c0,1.34-0.6,2.27-1.9,2.27
		c-1.13,0-1.86-0.87-1.86-2.21v-0.12C341.54,593.82,342.26,592.95,343.4,592.95z"/>
	<rect x="349.95" y="586.81" width="3.38" height="2.93"/>
	<rect x="349.97" y="590.6" width="3.34" height="9.19"/>
	<path d="M358.46,600.04c1.26,0,2.06-0.31,2.76-0.82v-2.16c-0.56,0.23-1.01,0.31-1.42,0.31c-0.68,0-1.05-0.31-1.05-1.09v-3.36h2.39
		v-2.31h-2.39v-2.54h-2.1l-0.31,1.2c-0.23,0.85-0.52,1.34-1.44,1.48l-0.68,0.1v2.06h1.24v4.33
		C355.46,599.41,356.92,600.04,358.46,600.04z"/>
	<path d="M365.25,594.62c-2,0.35-3.28,1.11-3.28,2.89c0,1.57,1.17,2.49,2.97,2.49c1.46,0,2.52-0.56,3.05-1.63
		c0.31,1.05,1.2,1.63,2.33,1.63c0.95,0,1.61-0.27,2.08-0.6v-1.77c-0.27,0.1-0.47,0.14-0.74,0.14c-0.35,0-0.56-0.21-0.56-0.68v-3.13
		c0-2.56-1.79-3.61-4.23-3.61c-2.76,0-4.27,1.4-4.56,3.42l3.09,0.21c0.14-0.68,0.52-1.15,1.26-1.15c0.8,0,1.15,0.45,1.15,1.22v0.14
		L365.25,594.62z M367.82,595.96c0,1.2-0.76,1.9-1.71,1.9c-0.56,0-0.93-0.31-0.93-0.78c0-0.6,0.47-0.85,1.28-1.01l1.36-0.25V595.96z
		"/>
	<rect x="373.37" y="586.81" width="3.34" height="12.99"/>
	<rect x="378.52" y="590.6" width="3.34" height="9.19"/>
	<rect x="378.5" y="586.81" width="3.38" height="2.93"/>
	<path d="M387.67,597.96c-1.01,0-1.63-0.43-1.75-1.2l-2.91,0.04c0.19,2.23,2.08,3.24,4.62,3.24c2.62,0,4.27-1.11,4.27-3.05
		c0-1.79-1.2-2.72-3.26-3.05l-1.79-0.31c-0.31-0.04-0.56-0.21-0.56-0.52c0-0.41,0.37-0.66,1.01-0.66c1.03,0,1.61,0.41,1.73,1.07
		l2.74-0.08c-0.19-1.92-1.75-3.09-4.41-3.09c-2.58,0-4.16,1.3-4.16,3.11c0,1.88,1.17,2.6,3.4,2.95l1.36,0.21
		c0.64,0.1,0.84,0.35,0.84,0.7C388.8,597.7,388.41,597.96,387.67,597.96z"/>
	<path d="M408.65,599.8v-5.77c0-1.92-0.74-3.67-3.28-3.67c-1.55,0-2.64,0.78-3.13,1.81c-0.39-1.07-1.24-1.81-2.87-1.81
		c-1.38,0-2.37,0.62-2.87,1.63v-1.38h-3.34v9.19h3.34v-4.51c0-1.38,0.39-2.29,1.48-2.29c1.01,0,1.26,0.66,1.26,1.92v4.89h3.34v-4.51
		c0-1.38,0.37-2.29,1.48-2.29c1.01,0,1.24,0.66,1.24,1.92v4.89H408.65z"/>
	<rect x="413.91" y="586.81" width="3.5" height="12.99"/>
	<path d="M423.3,597.96c-1.01,0-1.63-0.43-1.75-1.2l-2.91,0.04c0.19,2.23,2.08,3.24,4.62,3.24c2.62,0,4.27-1.11,4.27-3.05
		c0-1.79-1.2-2.72-3.26-3.05l-1.79-0.31c-0.31-0.04-0.56-0.21-0.56-0.52c0-0.41,0.37-0.66,1.01-0.66c1.03,0,1.61,0.41,1.73,1.07
		l2.74-0.08c-0.19-1.92-1.75-3.09-4.41-3.09c-2.58,0-4.16,1.3-4.16,3.11c0,1.88,1.17,2.6,3.4,2.95l1.36,0.21
		c0.64,0.1,0.84,0.35,0.84,0.7C424.44,597.7,424.05,597.96,423.3,597.96z"/>
	<path d="M435.86,597.28h5.07l0.97,2.51h3.73l-5.17-12.99h-3.92l-5.17,12.99h3.52L435.86,597.28z M438.35,590.83h0.08l1.48,3.83
		h-3.05L438.35,590.83z"/>
	<polygon points="456.16,599.8 461.15,586.81 457.66,586.81 454.45,595.45 454.36,595.45 451.15,586.81 447.48,586.81 452.47,599.8 
			"/>
	<rect x="462.03" y="586.81" width="3.38" height="2.93"/>
	<rect x="462.05" y="590.6" width="3.34" height="9.19"/>
	<path d="M467.2,590.6v9.19h3.34v-4.21c0-1.55,0.76-2.12,2-2.12c0.64,0,1.13,0.12,1.59,0.39l0.21-3.15
		c-0.23-0.19-0.72-0.35-1.28-0.35c-1.22,0-2.18,0.85-2.51,1.88v-1.63H467.2z"/>
	<path d="M484.77,599.8v-9.19h-3.34v4.51c0,1.4-0.41,2.31-1.46,2.31c-1.01,0-1.36-0.68-1.36-1.92v-4.91h-3.34v5.79
		c0,1.92,0.76,3.65,3.28,3.65c1.38,0,2.39-0.6,2.89-1.63v1.38H484.77z"/>
	<path d="M490.58,597.96c-1.01,0-1.63-0.43-1.75-1.2l-2.91,0.04c0.19,2.23,2.08,3.24,4.62,3.24c2.62,0,4.27-1.11,4.27-3.05
		c0-1.79-1.2-2.72-3.26-3.05l-1.79-0.31c-0.31-0.04-0.56-0.21-0.56-0.52c0-0.41,0.37-0.66,1.01-0.66c1.03,0,1.61,0.41,1.73,1.07
		l2.74-0.08c-0.19-1.92-1.75-3.09-4.41-3.09c-2.58,0-4.16,1.3-4.16,3.11c0,1.88,1.17,2.6,3.4,2.95l1.36,0.21
		c0.64,0.1,0.84,0.35,0.84,0.7C491.71,597.7,491.32,597.96,490.58,597.96z"/>
	<rect x="497.64" y="596.25" width="3.55" height="3.55"/>
	<path d="M504.07,595.2c0,2.87,2.02,4.84,5.03,4.84c2.99,0,5.03-1.98,5.03-4.84c0-2.84-2.04-4.84-5.03-4.84
		C506.09,590.36,504.07,592.36,504.07,595.2z M510.77,595.2c0,1.38-0.52,2.33-1.67,2.33c-1.17,0-1.67-0.95-1.67-2.33
		s0.5-2.33,1.67-2.33C510.26,592.87,510.77,593.82,510.77,595.2z"/>
	<path d="M515.45,590.6v9.19h3.34v-4.21c0-1.55,0.76-2.12,2-2.12c0.64,0,1.13,0.12,1.59,0.39l0.21-3.15
		c-0.23-0.19-0.72-0.35-1.28-0.35c-1.22,0-2.19,0.85-2.52,1.88v-1.63H515.45z"/>
	<path d="M522.6,601.1c0,1.73,2.27,2.25,4.89,2.25c2.99,0,5.77-1.05,5.77-3.34c0-1.55-1.05-2.64-3.13-2.64h-3.81
		c-0.56,0-0.78-0.25-0.78-0.56c0-0.19,0.06-0.33,0.19-0.43c0.6,0.19,1.26,0.27,2,0.27c2.6,0,4.47-1.2,4.47-3.13
		c0-0.43-0.1-0.83-0.29-1.18c0.45-0.1,0.95-0.14,1.34-0.14v-2.52c-1.01,0-2.02,0.66-2.58,1.42c-0.78-0.47-1.83-0.74-2.95-0.74
		c-2.58,0-4.43,1.2-4.43,3.15c0,1.01,0.5,1.79,1.32,2.33c-0.99,0.37-1.57,1.05-1.57,1.94c0,0.78,0.49,1.53,1.32,1.79
		C523.33,599.65,522.6,600.29,522.6,601.1z M527.76,592.19c0.56,0,0.97,0.52,0.97,1.32c0,0.82-0.41,1.34-0.97,1.34
		s-0.97-0.52-0.97-1.34C526.79,592.71,527.2,592.19,527.76,592.19z M525.96,600.21h3.38c0.56,0,0.84,0.14,0.84,0.54
		c0,0.56-1.13,0.87-2.68,0.87c-1.24,0-2.16-0.19-2.16-0.85C525.35,600.42,525.59,600.21,525.96,600.21z"/>
	<path d="M300.03,16.64l-0.43,2.06h1.81l-0.8,3.42h2.49l0.8-3.42h1.77l-0.8,3.42h2.49l0.8-3.42h2.04l0.43-2.06h-1.98l0.5-2.02h1.88
		l0.43-2.06h-1.83l0.82-3.42h-2.49l-0.82,3.42h-1.77l0.83-3.42h-2.49l-0.83,3.42h-2.02l-0.43,2.06h1.98l-0.5,2.02H300.03z
		 M304.89,14.62h1.77l-0.5,2.02h-1.77L304.89,14.62z"/>
	<path d="M320.73,12c2.02,0,2.8,1.34,3.01,2.78l3.36-0.12c-0.25-3.24-2.37-5.77-6.35-5.77c-3.79,0-6.66,2.74-6.66,6.74
		s2.87,6.74,6.66,6.74c3.98,0,6.1-2.52,6.35-5.75l-3.36-0.14c-0.21,1.44-0.99,2.78-3.01,2.78c-1.92,0-3.03-1.42-3.03-3.63
		S318.81,12,320.73,12z"/>
	<path d="M328.19,16.1l3.09,0.21c0.14-0.68,0.51-1.15,1.26-1.15c0.8,0,1.15,0.45,1.15,1.22v0.14l-2.58,0.43
		c-2,0.35-3.28,1.11-3.28,2.89c0,1.57,1.17,2.49,2.97,2.49c1.46,0,2.51-0.56,3.05-1.63c0.31,1.05,1.2,1.63,2.33,1.63
		c0.95,0,1.61-0.27,2.08-0.6v-1.77c-0.27,0.1-0.47,0.14-0.74,0.14c-0.35,0-0.56-0.21-0.56-0.68v-3.13c0-2.56-1.79-3.61-4.23-3.61
		C329.98,12.68,328.47,14.08,328.19,16.1z M333.69,18.29c0,1.2-0.76,1.9-1.71,1.9c-0.56,0-0.93-0.31-0.93-0.78
		c0-0.6,0.47-0.85,1.28-1.01l1.36-0.25V18.29z"/>
	<path d="M342.57,20.56c0.45,1.07,1.48,1.81,3.03,1.81c2.7,0,4.08-2.12,4.08-4.84c0-2.7-1.38-4.84-4.08-4.84
		c-1.55,0-2.58,0.74-3.03,1.83v-1.59h-3.34v12.49h3.34V20.56z M342.57,17.47c0-1.32,0.72-2.19,1.86-2.19c1.3,0,1.9,0.93,1.9,2.25
		c0,1.34-0.6,2.27-1.9,2.27c-1.13,0-1.86-0.87-1.86-2.21V17.47z"/>
	<rect x="350.98" y="9.14" width="3.38" height="2.93"/>
	<rect x="351" y="12.93" width="3.34" height="9.19"/>
	<path d="M356.48,19.57c0,2.16,1.46,2.8,3.01,2.8c1.26,0,2.06-0.31,2.76-0.82v-2.16c-0.56,0.23-1.01,0.31-1.42,0.31
		c-0.68,0-1.05-0.31-1.05-1.09v-3.36h2.39v-2.31h-2.39v-2.54h-2.1l-0.31,1.2c-0.23,0.85-0.51,1.34-1.44,1.48l-0.68,0.1v2.06h1.24
		V19.57z"/>
	<path d="M366.27,16.95c-2,0.35-3.28,1.11-3.28,2.89c0,1.57,1.18,2.49,2.97,2.49c1.46,0,2.51-0.56,3.05-1.63
		c0.31,1.05,1.2,1.63,2.33,1.63c0.95,0,1.61-0.27,2.08-0.6v-1.77c-0.27,0.1-0.47,0.14-0.74,0.14c-0.35,0-0.56-0.21-0.56-0.68v-3.13
		c0-2.56-1.79-3.61-4.23-3.61c-2.76,0-4.27,1.4-4.56,3.42l3.09,0.21c0.14-0.68,0.51-1.15,1.26-1.15c0.8,0,1.15,0.45,1.15,1.22v0.14
		L366.27,16.95z M368.85,18.29c0,1.2-0.76,1.9-1.71,1.9c-0.56,0-0.93-0.31-0.93-0.78c0-0.6,0.47-0.85,1.28-1.01l1.36-0.25V18.29z"/>
	<rect x="374.39" y="9.14" width="3.34" height="12.99"/>
	<rect x="379.55" y="12.93" width="3.34" height="9.19"/>
	<rect x="379.53" y="9.14" width="3.38" height="2.93"/>
	<path d="M388.7,20.29c-1.01,0-1.63-0.43-1.75-1.2l-2.91,0.04c0.19,2.23,2.08,3.24,4.62,3.24c2.62,0,4.27-1.11,4.27-3.05
		c0-1.79-1.2-2.72-3.26-3.05l-1.79-0.31c-0.31-0.04-0.56-0.21-0.56-0.52c0-0.41,0.37-0.66,1.01-0.66c1.03,0,1.61,0.41,1.73,1.07
		l2.74-0.08c-0.19-1.92-1.75-3.09-4.41-3.09c-2.58,0-4.16,1.3-4.16,3.11c0,1.88,1.18,2.6,3.4,2.95l1.36,0.21
		c0.64,0.1,0.85,0.35,0.85,0.7C389.83,20.02,389.44,20.29,388.7,20.29z"/>
	<path d="M394.2,12.93v9.19h3.34v-4.51c0-1.38,0.39-2.29,1.48-2.29c1.01,0,1.26,0.66,1.26,1.92v4.89h3.34v-4.51
		c0-1.38,0.37-2.29,1.48-2.29c1.01,0,1.24,0.66,1.24,1.92v4.89h3.34v-5.77c0-1.92-0.74-3.67-3.28-3.67c-1.55,0-2.64,0.78-3.13,1.81
		c-0.39-1.07-1.24-1.81-2.87-1.81c-1.38,0-2.37,0.62-2.87,1.63v-1.38H394.2z"/>
	<rect x="413.27" y="9.14" width="3.5" height="12.99"/>
	<path d="M422.67,20.29c-1.01,0-1.63-0.43-1.75-1.2l-2.91,0.04c0.19,2.23,2.08,3.24,4.62,3.24c2.62,0,4.27-1.11,4.27-3.05
		c0-1.79-1.2-2.72-3.26-3.05l-1.79-0.31c-0.31-0.04-0.56-0.21-0.56-0.52c0-0.41,0.37-0.66,1.01-0.66c1.03,0,1.61,0.41,1.73,1.07
		l2.74-0.08c-0.19-1.92-1.75-3.09-4.41-3.09c-2.58,0-4.16,1.3-4.16,3.11c0,1.88,1.18,2.6,3.4,2.95l1.36,0.21
		c0.64,0.1,0.85,0.35,0.85,0.7C423.8,20.02,423.41,20.29,422.67,20.29z"/>
	<path d="M438.63,19.61l0.97,2.52h3.73l-5.17-12.99h-3.92l-5.17,12.99h3.52l0.97-2.52H438.63z M436.05,13.16h0.08l1.48,3.83h-3.05
		L436.05,13.16z"/>
	<polygon points="452.1,17.77 452.01,17.77 448.8,9.14 445.13,9.14 450.12,22.12 453.81,22.12 458.8,9.14 455.31,9.14 	"/>
	<rect x="459.68" y="9.14" width="3.38" height="2.93"/>
	<rect x="459.7" y="12.93" width="3.34" height="9.19"/>
	<path d="M464.85,12.93v9.19h3.34v-4.21c0-1.55,0.76-2.12,2-2.12c0.64,0,1.13,0.12,1.59,0.39l0.21-3.15
		c-0.23-0.19-0.72-0.35-1.28-0.35c-1.22,0-2.19,0.85-2.52,1.88v-1.63H464.85z"/>
	<path d="M472.91,12.93v5.79c0,1.92,0.76,3.65,3.28,3.65c1.38,0,2.39-0.6,2.89-1.63v1.38h3.34v-9.19h-3.34v4.51
		c0,1.4-0.41,2.31-1.46,2.31c-1.01,0-1.36-0.68-1.36-1.92v-4.91H472.91z"/>
	<path d="M488.22,20.29c-1.01,0-1.63-0.43-1.75-1.2l-2.91,0.04c0.19,2.23,2.08,3.24,4.62,3.24c2.62,0,4.27-1.11,4.27-3.05
		c0-1.79-1.2-2.72-3.26-3.05l-1.79-0.31c-0.31-0.04-0.56-0.21-0.56-0.52c0-0.41,0.37-0.66,1.01-0.66c1.03,0,1.61,0.41,1.73,1.07
		l2.74-0.08c-0.19-1.92-1.75-3.09-4.41-3.09c-2.58,0-4.16,1.3-4.16,3.11c0,1.88,1.17,2.6,3.4,2.95l1.36,0.21
		c0.64,0.1,0.85,0.35,0.85,0.7C489.36,20.02,488.97,20.29,488.22,20.29z"/>
	<path d="M106.17,548.92h30.53v-35.58h19.51c29.8,0,47.15-13.91,47.15-39.2c0-25.11-17.34-39.02-47.15-39.02h-50.04V548.92z
		 M136.7,459.68h18.06c13.73,0,18.97,5.06,18.97,14.63c0,9.57-5.24,14.45-18.97,14.45H136.7V459.68z"/>
	<path d="M310.47,522.72c-1.26-13.19-8.13-19.87-19.87-22.22c13.91-1.81,24.21-12.64,24.21-29.26c0-22.22-14.63-36.13-44.07-36.13
		h-57.44v113.8h30.17v-37.75h20.41c10.3,0,15.9,2.89,16.8,15.9c0.9,11.74,2.35,18.79,4.7,21.86h31.07
		C312.64,544.76,312.09,539.7,310.47,522.72z M265.31,487.5h-21.86v-27.82h21.86c13.01,0,19.51,4.88,19.51,14.09
		C284.82,484.25,278.32,487.5,265.31,487.5z"/>
	<path d="M382.36,432.95c-33.06,0-59.07,24.02-59.07,59.07s26.01,59.07,59.07,59.07s59.07-24.02,59.07-59.07
		S415.42,432.95,382.36,432.95z M382.36,523.99c-16.8,0-27.46-12.64-27.46-31.97c0-19.33,10.66-31.97,27.46-31.97
		s27.46,12.64,27.46,31.97C409.82,511.34,399.16,523.99,382.36,523.99z"/>
	<polygon points="539.7,435.12 453.71,435.12 453.71,548.92 484.42,548.92 484.42,507.19 525.97,507.19 525.97,482.26 
		484.42,482.26 484.42,460.41 539.7,460.41 	"/>
	<rect x="552.88" y="435.12" width="30.71" height="113.8"/>
	<polygon points="666.32,548.92 666.32,460.41 705.88,460.41 705.88,435.12 596.78,435.12 596.78,460.41 635.8,460.41 635.8,548.92 
			"/>
	<path d="M51.83,252.39h23.75c36.29,0,57.4-16.93,57.4-47.72c0-30.57-21.11-47.5-57.4-47.5H14.67v138.55h37.17V252.39z
		 M51.83,187.08h21.99c16.71,0,23.09,6.16,23.09,17.81s-6.38,17.59-23.09,17.59H51.83V187.08z"/>
	<polygon points="145.08,295.72 254.16,295.72 254.16,264.93 181.8,264.93 181.8,240.96 236.12,240.96 236.12,210.61 181.8,210.61 
		181.8,187.96 252.18,187.96 252.18,157.17 145.08,157.17 	"/>
	<path d="M333.33,298.36c40.25,0,71.92-29.25,71.92-71.92c0-42.67-31.67-71.92-71.92-71.92c-40.25,0-71.91,29.25-71.91,71.92
		C261.41,269.11,293.08,298.36,333.33,298.36z M333.33,187.52c20.45,0,33.43,15.39,33.43,38.93c0,23.53-12.98,38.93-33.43,38.93
		c-20.45,0-33.43-15.4-33.43-38.93C299.9,202.91,312.88,187.52,333.33,187.52z"/>
	<path d="M420.19,295.72h37.17v-43.33h23.75c36.29,0,57.4-16.93,57.4-47.72c0-30.57-21.11-47.5-57.4-47.5h-60.92V295.72z
		 M457.36,187.08h21.99c16.71,0,23.09,6.16,23.09,17.81s-6.38,17.59-23.09,17.59h-21.99V187.08z"/>
	<polygon points="550.6,295.72 656.61,295.72 656.61,264.93 587.99,264.93 587.99,157.17 550.6,157.17 	"/>
	<polygon points="779.76,187.96 779.76,157.17 672.66,157.17 672.66,295.72 781.74,295.72 781.74,264.93 709.38,264.93 
		709.38,240.96 763.71,240.96 763.71,210.61 709.38,210.61 709.38,187.96 	"/>
	<path d="M69.43,102.24c-6.91,0-12.93-2.67-13.52-10.46l-15.4,0.49c0,15,12.04,23.2,28.92,23.2c14.51,0,25.96-6.61,25.96-19.84
		c0-10.17-5.92-16.98-18.95-19.25l-11.75-2.07c-3.85-0.69-6.22-1.78-6.22-4.64c0-3.45,3.16-5.63,8.69-5.63
		c6.42,0,11.05,2.96,11.55,9.38l15.4-0.3c-0.3-13.82-9.58-22.21-26.75-22.21c-15.5,0-25.37,7.6-25.37,20.24
		c0,10.86,7.11,16.58,17.27,18.46l11.35,1.97c4.74,0.89,8.39,1.48,8.39,5.13C79,100.17,75.25,102.24,69.43,102.24z"/>
	<path d="M124.41,115.47c14.31,0,24.08-9.48,24.08-23.2c0-13.62-9.77-23.2-24.08-23.2c-14.41,0-24.08,9.57-24.08,23.2
		C100.32,106,110,115.47,124.41,115.47z M124.41,81.12c5.53,0,8,4.54,8,11.15s-2.47,11.15-8,11.15c-5.63,0-8-4.54-8-11.15
		S118.78,81.12,124.41,81.12z"/>
	<path d="M176.82,115.47c13.23,0,20.63-8.49,21.72-19.15l-13.13-0.99c-1.08,5.43-3.75,8.09-8.39,8.09c-4.84,0-8.19-3.26-8.19-11.15
		s3.36-11.15,8.19-11.15c4.64,0,7.3,2.57,8.39,8l13.13-0.89c-1.09-10.56-8.49-19.15-21.72-19.15c-13.92,0-24.08,9.28-24.08,23.2
		C152.74,106.29,162.9,115.47,176.82,115.47z"/>
	<rect x="204.56" y="52.1" width="16.19" height="14.02"/>
	<rect x="204.66" y="70.26" width="15.99" height="44.02"/>
	<path d="M242.46,89.51c-9.58,1.68-15.7,5.33-15.7,13.82c0,7.5,5.63,11.94,14.21,11.94c7.01,0,12.04-2.67,14.61-7.8
		c1.48,5.03,5.73,7.8,11.15,7.8c4.54,0,7.7-1.28,9.97-2.86v-8.49c-1.28,0.49-2.27,0.69-3.55,0.69c-1.68,0-2.67-0.99-2.67-3.26v-15
		c0-12.24-8.59-17.27-20.24-17.27c-13.23,0-20.43,6.71-21.81,16.39l14.81,0.99c0.69-3.26,2.47-5.53,6.02-5.53
		c3.85,0,5.53,2.17,5.53,5.82v0.69L242.46,89.51z M254.8,95.93c0,5.73-3.65,9.08-8.19,9.08c-2.67,0-4.44-1.48-4.44-3.75
		c0-2.86,2.27-4.05,6.12-4.84l6.52-1.18V95.93z"/>
	<rect x="281.35" y="52.1" width="15.99" height="62.19"/>
	<rect x="306.03" y="70.26" width="15.99" height="44.02"/>
	<rect x="305.93" y="52.1" width="16.19" height="14.02"/>
	<path d="M349.85,105.5c-4.84,0-7.8-2.07-8.39-5.73l-13.92,0.2c0.89,10.66,9.97,15.5,22.11,15.5c12.54,0,20.43-5.33,20.43-14.61
		c0-8.59-5.73-13.03-15.6-14.61l-8.59-1.48c-1.48-0.2-2.67-0.99-2.67-2.47c0-1.97,1.78-3.16,4.84-3.16c4.94,0,7.7,1.97,8.29,5.13
		l13.13-0.4c-0.89-9.18-8.39-14.81-21.12-14.81c-12.34,0-19.94,6.22-19.94,14.9c0,8.98,5.63,12.44,16.29,14.12l6.51,0.99
		c3.06,0.49,4.05,1.68,4.05,3.36C355.28,104.22,353.41,105.5,349.85,105.5z"/>
	<path d="M376.21,114.29h15.99V92.67c0-6.61,1.88-10.96,7.11-10.96c4.84,0,6.02,3.16,6.02,9.18v23.39h15.99V92.67
		c0-6.61,1.78-10.96,7.11-10.96c4.84,0,5.92,3.16,5.92,9.18v23.39h15.99V86.65c0-9.18-3.55-17.57-15.69-17.57
		c-7.4,0-12.63,3.75-15,8.69c-1.88-5.13-5.92-8.69-13.72-8.69c-6.61,0-11.35,2.96-13.72,7.8v-6.61h-15.99V114.29z"/>
	<polygon points="476.69,52.1 476.69,114.29 492.09,114.29 492.09,70.56 492.49,70.56 503.64,114.29 517.95,114.29 529.11,70.56 
		529.5,70.56 529.5,114.29 546.28,114.29 546.28,52.1 520.92,52.1 512.13,91.19 511.83,91.19 502.65,52.1 	"/>
	<path d="M599.49,91.09c0-11.94-7.8-22.01-22.5-22.01c-13.72,0-23.99,9.97-23.99,23.89c0,14.02,10.07,22.51,24.18,22.51
		c11.65,0,19.74-5.63,22.01-15.69l-12.83-1.18c-1.48,3.46-4.24,4.94-8.59,4.94c-4.84,0-8.79-2.57-9.18-8h30.9V91.09z M568.79,87.83
		c0.59-4.15,2.86-7.3,8-7.3c4.74,0,7.3,3.36,7.5,7.3H568.79z"/>
	<path d="M619.13,89.51c-9.58,1.68-15.7,5.33-15.7,13.82c0,7.5,5.63,11.94,14.21,11.94c7.01,0,12.04-2.67,14.61-7.8
		c1.48,5.03,5.73,7.8,11.15,7.8c4.54,0,7.7-1.28,9.97-2.86v-8.49c-1.28,0.49-2.27,0.69-3.55,0.69c-1.68,0-2.67-0.99-2.67-3.26v-15
		c0-12.24-8.59-17.27-20.24-17.27c-13.23,0-20.43,6.71-21.81,16.39l14.81,0.99c0.69-3.26,2.47-5.53,6.02-5.53
		c3.85,0,5.53,2.17,5.53,5.82v0.69L619.13,89.51z M631.47,95.93c0,5.73-3.65,9.08-8.19,9.08c-2.67,0-4.44-1.48-4.44-3.75
		c0-2.86,2.27-4.05,6.12-4.84l6.52-1.18V95.93z"/>
	<path d="M658.02,70.26v44.02h15.99V92.67c0-6.61,2.17-10.96,7.6-10.96c4.84,0,6.51,3.16,6.51,9.18v23.39h15.99V86.65
		c0-9.18-3.85-17.57-15.89-17.57c-6.61,0-11.84,2.96-14.21,7.8v-6.61H658.02z"/>
	<path d="M731.46,105.5c-4.84,0-7.8-2.07-8.39-5.73l-13.92,0.2c0.89,10.66,9.97,15.5,22.11,15.5c12.54,0,20.43-5.33,20.43-14.61
		c0-8.59-5.73-13.03-15.6-14.61l-8.59-1.48c-1.48-0.2-2.67-0.99-2.67-2.47c0-1.97,1.78-3.16,4.84-3.16c4.94,0,7.7,1.97,8.29,5.13
		l13.13-0.4c-0.89-9.18-8.39-14.81-21.12-14.81c-12.34,0-19.94,6.22-19.94,14.9c0,8.98,5.63,12.44,16.29,14.12l6.51,0.99
		c3.06,0.49,4.05,1.68,4.05,3.36C736.88,104.22,735.01,105.5,731.46,105.5z"/>
	<path d="M357.7,361.97c0-19.15-14.21-32.28-32.28-32.28s-32.28,13.13-32.28,32.28c0,19.15,14.21,32.28,32.28,32.28
		S357.7,381.12,357.7,361.97z M310.42,361.97c0-10.56,5.82-17.47,15-17.47s15,6.91,15,17.47c0,10.56-5.82,17.47-15,17.47
		S310.42,372.53,310.42,361.97z"/>
	<polygon points="412.29,349.04 396.79,349.04 387.21,376.38 386.82,376.38 377.25,349.04 360.46,349.04 376.85,393.06 
		395.9,393.06 	"/>
	<path d="M459.27,378.55l-12.83-1.18c-1.48,3.46-4.24,4.94-8.59,4.94c-4.84,0-8.79-2.57-9.18-8h30.9v-4.44
		c0-11.94-7.8-22.01-22.5-22.01c-13.72,0-23.99,9.97-23.99,23.89c0,14.02,10.07,22.51,24.18,22.51
		C448.91,394.25,457,388.62,459.27,378.55z M436.87,359.31c4.74,0,7.3,3.36,7.5,7.3h-15.5
		C429.46,362.46,431.73,359.31,436.87,359.31z"/>
	<path d="M466.08,349.04v44.02h15.99v-20.14c0-7.4,3.65-10.17,9.58-10.17c3.06,0,5.43,0.59,7.6,1.88l0.99-15.1
		c-1.08-0.89-3.45-1.68-6.12-1.68c-5.82,0-10.46,4.05-12.04,8.98v-7.8H466.08z"/>
</g>
</svg>
