<?xml version="1.0" encoding="utf-8"?>
<!-- Generator: Adobe Illustrator 23.1.1, SVG Export Plug-In . SVG Version: 6.00 Build 0)  -->
<svg version="1.1" xmlns="http://www.w3.org/2000/svg" xmlns:xlink="http://www.w3.org/1999/xlink" x="0px" y="0px"
	 viewBox="0 0 792 612" style="enable-background:new 0 0 792 612;" xml:space="preserve">
<style type="text/css">
	.st0{display:none;}
	.st1{display:inline;}
	
		.st2{display:inline;fill:#FFFFFF;stroke:#000000;stroke-width:16;stroke-linecap:round;stroke-linejoin:round;stroke-miterlimit:10;}
	.st3{fill:#FFFFFF;stroke:#000000;stroke-width:16;stroke-linecap:round;stroke-linejoin:round;stroke-miterlimit:10;}
	.st4{display:inline;fill:none;stroke:#000000;stroke-width:24;stroke-linejoin:round;stroke-miterlimit:10;}
	.st5{display:inline;fill:#FFFFFF;}
	.st6{fill:#FFFFFF;stroke:#000000;stroke-width:17;stroke-linecap:round;stroke-miterlimit:10;}
	.st7{fill:#FFFFFF;stroke:#000000;stroke-width:17;stroke-miterlimit:10;}
	.st8{stroke:#000000;stroke-width:16.0572;stroke-linecap:round;stroke-miterlimit:10;}
	.st9{fill:#FFFFFF;}
	.st10{fill:#FFFFFF;stroke:#000000;stroke-width:17.1072;stroke-linecap:round;stroke-linejoin:round;stroke-miterlimit:10;}
	.st11{stroke:#000000;stroke-width:17.1072;stroke-linecap:round;stroke-linejoin:round;stroke-miterlimit:10;}
	.st12{fill:#FFFFFF;stroke:#000000;stroke-width:14.7375;stroke-linecap:round;stroke-linejoin:round;stroke-miterlimit:10;}
	.st13{fill:none;stroke:#000000;stroke-width:14.7375;stroke-linecap:round;stroke-linejoin:round;stroke-miterlimit:10;}
	.st14{stroke:#000000;stroke-width:14.7375;stroke-linecap:round;stroke-linejoin:round;stroke-miterlimit:10;}
	.st15{fill:#FFFFFF;stroke:#000000;stroke-width:14.2911;stroke-linecap:round;stroke-linejoin:round;stroke-miterlimit:10;}
	.st16{font-family:'FoundersGrotesk-Bold';}
	.st17{font-size:116px;}
	.st18{font-size:255.943px;}
	.st19{letter-spacing:6;}
	.st20{fill:none;stroke:#000000;stroke-width:13.497;stroke-miterlimit:10;}
	.st21{fill:#FFFFFF;stroke:#000000;stroke-width:13.497;stroke-linecap:round;stroke-linejoin:round;stroke-miterlimit:10;}
	.st22{fill:#FFFFFF;stroke:#000000;stroke-width:13.497;stroke-miterlimit:10;}
	.st23{fill:#FFFFFF;stroke:#000000;stroke-width:14.7439;stroke-linecap:round;stroke-miterlimit:10;}
	.st24{fill:#FFFFFF;stroke:#000000;stroke-width:14.7439;stroke-miterlimit:10;}
	.st25{stroke:#000000;stroke-width:13.9262;stroke-linecap:round;stroke-miterlimit:10;}
	
		.st26{display:inline;fill:#FFFFFF;stroke:#000000;stroke-width:14.6942;stroke-linecap:round;stroke-linejoin:round;stroke-miterlimit:10;}
	.st27{fill:#FFFFFF;stroke:#000000;stroke-width:14.6942;stroke-linecap:round;stroke-linejoin:round;stroke-miterlimit:10;}
	.st28{fill:none;stroke:#000000;stroke-width:24;stroke-linejoin:round;stroke-miterlimit:10;}
	.st29{fill:none;stroke:#000000;stroke-width:30.5612;stroke-linecap:round;stroke-linejoin:round;stroke-miterlimit:10;}
	.st30{fill:#FFFFFF;stroke:#000000;stroke-width:16.2993;stroke-linecap:round;stroke-linejoin:round;stroke-miterlimit:10;}
	.st31{display:inline;fill:#FFFFFF;stroke:#000000;stroke-width:13.497;stroke-linecap:round;stroke-miterlimit:10;}
	
		.st32{display:inline;fill:none;stroke:#000000;stroke-width:13.497;stroke-linecap:round;stroke-linejoin:round;stroke-miterlimit:10;}
	
		.st33{display:inline;fill:#FFFFFF;stroke:#000000;stroke-width:13.497;stroke-linecap:round;stroke-linejoin:round;stroke-miterlimit:10;}
	
		.st34{display:inline;fill:url(#);stroke:#000000;stroke-width:13.497;stroke-linecap:round;stroke-linejoin:round;stroke-miterlimit:10;}
	.st35{fill:#FFFFFF;stroke:#000000;stroke-width:15.2362;stroke-linecap:round;stroke-linejoin:round;stroke-miterlimit:10;}
	.st36{fill:#FFFFFF;stroke:#000000;stroke-width:14.8467;stroke-linecap:round;stroke-linejoin:round;stroke-miterlimit:10;}
	.st37{stroke:#000000;stroke-width:20.1683;stroke-linecap:round;stroke-miterlimit:10;}
	.st38{fill:none;stroke:#000000;stroke-width:14.8467;stroke-linecap:round;stroke-linejoin:round;stroke-miterlimit:10;}
	.st39{fill:#FFFFFF;stroke:#FFFFFF;stroke-width:3;stroke-miterlimit:10;}
	.st40{display:inline;fill:none;stroke:#000000;stroke-width:15;stroke-linecap:round;stroke-linejoin:round;stroke-miterlimit:10;}
	
		.st41{display:inline;fill:#FFFFFF;stroke:#000000;stroke-width:15;stroke-linecap:round;stroke-linejoin:round;stroke-miterlimit:10;}
	.st42{fill:#FFFFFF;stroke:#000000;stroke-width:15;stroke-linecap:round;stroke-linejoin:round;stroke-miterlimit:10;}
	.st43{fill:#FFFFFF;stroke:#000000;stroke-width:11.7326;stroke-linecap:round;stroke-linejoin:round;stroke-miterlimit:10;}
	.st44{fill:#FFFFFF;stroke:#000000;stroke-width:13.2623;stroke-linecap:round;stroke-linejoin:round;stroke-miterlimit:10;}
	.st45{fill:none;stroke:#000000;stroke-width:16;stroke-linecap:round;stroke-miterlimit:10;}
	.st46{fill:url(#);stroke:#000000;stroke-width:16;stroke-linecap:round;stroke-linejoin:round;stroke-miterlimit:10;}
	.st47{fill:#FFFFFF;stroke:#000000;stroke-width:16;stroke-linecap:round;stroke-miterlimit:10;}
	.st48{fill:#FFFFFF;stroke:#000000;stroke-width:13.2623;stroke-linecap:round;stroke-miterlimit:10;}
	.st49{stroke:#000000;stroke-width:4.5213;stroke-miterlimit:10;}
	.st50{fill:none;stroke:#000000;stroke-width:15.2344;stroke-linecap:round;stroke-linejoin:round;stroke-miterlimit:10;}
	.st51{fill:#FFFFFF;stroke:#000000;stroke-width:15.2344;stroke-linecap:round;stroke-linejoin:round;stroke-miterlimit:10;}
	.st52{stroke:#000000;stroke-width:18.3348;stroke-linecap:round;stroke-miterlimit:10;}
	.st53{fill:none;stroke:#000000;stroke-width:13.497;stroke-linecap:round;stroke-linejoin:round;stroke-miterlimit:10;}
	.st54{font-size:20.6105px;}
	.st55{font-size:10.3052px;}
	.st56{font-size:19.2364px;}
	.st57{font-size:10px;}
	.st58{display:inline;fill:none;stroke:#000000;stroke-width:16;stroke-linecap:round;stroke-linejoin:round;stroke-miterlimit:10;}
	.st59{fill:#FFFFFF;stroke:#000000;stroke-width:13.3058;stroke-linecap:round;stroke-linejoin:round;stroke-miterlimit:10;}
	.st60{fill:#FFFFFF;stroke:#000000;stroke-width:17;stroke-linecap:round;stroke-linejoin:round;stroke-miterlimit:10;}
	.st61{fill:#FFFFFF;stroke:#000000;stroke-width:15.2517;stroke-linecap:round;stroke-linejoin:round;stroke-miterlimit:10;}
	.st62{stroke:#000000;stroke-width:3;stroke-miterlimit:10;}
	.st63{fill:#FFFFFF;stroke:#000000;stroke-width:16.0686;stroke-linecap:round;stroke-linejoin:round;stroke-miterlimit:10;}
	.st64{fill:#FFFFFF;stroke:#000000;stroke-width:15;stroke-linejoin:round;stroke-miterlimit:10;}
	.st65{fill:url(#);stroke:#000000;stroke-width:13.497;stroke-linecap:round;stroke-linejoin:round;stroke-miterlimit:10;}
	.st66{fill:#06A6FF;}
	.st67{fill:#FF0303;}
	.st68{fill:#3DFF06;}
	.st69{fill:#FFF808;}
	.st70{fill:none;stroke:#000000;stroke-width:0;stroke-linecap:round;stroke-linejoin:round;}
</style>
<g id="unexpanded" class="st0">
	<g class="st1">
		<text transform="matrix(1 0 0 1 47.76 388.0046)" class="st16 st17">for SOMEONE</text>
	</g>
	<text transform="matrix(1 0 0 1 -3.2939 509.4653)" class="st1 st16 st17">You Don’t Know</text>
	<text transform="matrix(1 0 0 1 16.5205 259.502)" class="st1 st16 st18 st19">FIGHT</text>
	<g class="st1">
		<g>
			<text transform="matrix(1 0 0 1 258.9681 599.7979)"><tspan x="0" y="0" class="st16 st54">www</tspan><tspan x="45.14" y="0" class="st16 st55"> </tspan><tspan x="46.99" y="0" class="st16 st54">.</tspan><tspan x="51.77" y="0" class="st16 st55"> </tspan><tspan x="53.63" y="0" class="st16 st54">Capitalism</tspan><tspan x="150.43" y="0" class="st16 st56"> </tspan><tspan x="153.9" y="0" class="st16 st54">Is</tspan><tspan x="168.88" y="0" class="st16 st56"> </tspan><tspan x="172.34" y="0" class="st16 st54">A</tspan><tspan x="186.6" y="0" class="st16 st55"> </tspan><tspan x="188.46" y="0" class="st16 st54">Virus</tspan><tspan x="236.15" y="0" class="st16 st55"> </tspan><tspan x="238.01" y="0" class="st16 st54">.</tspan><tspan x="242.79" y="0" class="st16 st55"> </tspan><tspan x="244.64" y="0" class="st16 st54">org</tspan></text>
		</g>
		<g>
			<text transform="matrix(1 0 0 1 299.1799 22.1245)"><tspan x="0" y="0" class="st16 st54">#</tspan><tspan x="12.7" y="0" class="st16 st57"> </tspan><tspan x="14.5" y="0" class="st16 st54">Capitalism</tspan><tspan x="111.3" y="0" class="st16 st57"> </tspan><tspan x="113.1" y="0" class="st16 st54">Is</tspan><tspan x="128.09" y="0" class="st16 st57"> </tspan><tspan x="129.89" y="0" class="st16 st54">A</tspan><tspan x="144.15" y="0" class="st16 st57"> </tspan><tspan x="145.95" y="0" class="st16 st54">Virus</tspan></text>
		</g>
	</g>
</g>
<g id="expanded">
	<path d="M74.38,388v-38.74h13.11v-12.99H74.38v-3.48c0-3.25,1.16-5.8,4.29-5.8c2.44,0,3.83,1.28,4.99,3.6l11.48-3.6
		c-2.09-8.58-8.82-13.46-18.56-13.46c-12.41,0-20.76,7.08-20.76,20.53v2.2H48.4v12.99h7.42V388H74.38z"/>
	<path d="M145.49,362.14c0-16.01-11.48-27.26-28.3-27.26c-16.94,0-28.3,11.25-28.3,27.26c0,16.12,11.37,27.26,28.3,27.26
		C134,389.4,145.49,378.26,145.49,362.14z M117.18,375.24c-6.61,0-9.4-5.34-9.4-13.11c0-7.77,2.78-13.11,9.4-13.11
		c6.5,0,9.4,5.34,9.4,13.11C126.58,369.91,123.68,375.24,117.18,375.24z"/>
	<path d="M193.05,336.85c-1.28-1.04-4.06-1.97-7.19-1.97c-6.84,0-12.3,4.76-14.15,10.56v-9.16h-18.79V388h18.79v-23.66
		c0-8.7,4.29-11.95,11.25-11.95c3.6,0,6.38,0.7,8.93,2.2L193.05,336.85z"/>
	<path d="M250.93,373.85c-8.12,0-15.2-3.13-15.89-12.3l-18.1,0.58c0,17.63,14.15,27.26,33.99,27.26c17.05,0,30.51-7.77,30.51-23.32
		c0-11.95-6.96-19.95-22.27-22.62l-13.8-2.44c-4.52-0.81-7.31-2.09-7.31-5.45c0-4.06,3.71-6.61,10.21-6.61
		c7.54,0,12.99,3.48,13.57,11.02l18.1-0.35c-0.35-16.24-11.25-26.1-31.44-26.1c-18.21,0-29.81,8.93-29.81,23.78
		c0,12.76,8.35,19.49,20.3,21.69l13.34,2.32c5.57,1.04,9.86,1.74,9.86,6.03C262.18,371.42,257.77,373.85,250.93,373.85z"/>
	<path d="M325.17,313.53c-21.23,0-37.93,15.43-37.93,37.93s16.7,37.93,37.93,37.93s37.93-15.43,37.93-37.93
		S346.4,313.53,325.17,313.53z M325.17,372c-10.79,0-17.63-8.12-17.63-20.53s6.84-20.53,17.63-20.53c10.79,0,17.63,8.12,17.63,20.53
		S335.96,372,325.17,372z"/>
	<polygon points="412.28,360.86 401.5,314.93 370.99,314.93 370.99,388 389.08,388 389.08,336.62 389.55,336.62 402.66,388 
		419.48,388 432.58,336.62 433.05,336.62 433.05,388 452.77,388 452.77,314.93 422.96,314.93 412.63,360.86 	"/>
	<polygon points="521.44,371.76 483.28,371.76 483.28,359.12 511.93,359.12 511.93,343.11 483.28,343.11 483.28,331.17 
		520.39,331.17 520.39,314.93 463.9,314.93 463.9,388 521.44,388 	"/>
	<path d="M601.13,351.47c0-22.5-16.7-37.93-37.93-37.93s-37.93,15.43-37.93,37.93s16.7,37.93,37.93,37.93
		S601.13,373.97,601.13,351.47z M563.2,372c-10.79,0-17.63-8.12-17.63-20.53s6.84-20.53,17.63-20.53c10.79,0,17.63,8.12,17.63,20.53
		S573.99,372,563.2,372z"/>
	<polygon points="674.44,388 674.44,314.93 656.34,314.93 656.34,355.41 627.81,314.93 609.02,314.93 609.02,388 627.11,388 
		627.11,344.74 658.66,388 	"/>
	<polygon points="743.11,371.76 704.95,371.76 704.95,359.12 733.6,359.12 733.6,343.11 704.95,343.11 704.95,331.17 742.07,331.17 
		742.07,314.93 685.58,314.93 685.58,388 743.11,388 	"/>
	<polygon points="30.58,509.47 49.72,509.47 49.72,481.74 77.79,436.39 56.56,436.39 40.9,462.72 24.43,436.39 2.51,436.39 
		30.58,481.74 	"/>
	<path d="M69.09,483.6c0,16.12,11.37,27.26,28.3,27.26c16.82,0,28.3-11.14,28.3-27.26c0-16.01-11.48-27.26-28.3-27.26
		C80.46,456.34,69.09,467.59,69.09,483.6z M97.39,470.49c6.5,0,9.4,5.34,9.4,13.11c0,7.77-2.9,13.11-9.4,13.11
		c-6.61,0-9.4-5.34-9.4-13.11C88,475.83,90.78,470.49,97.39,470.49z"/>
	<path d="M186.02,509.47v-51.73h-18.79v25.4c0,7.89-2.32,12.99-8.24,12.99c-5.68,0-7.66-3.83-7.66-10.79v-27.61h-18.79v32.6
		c0,10.79,4.29,20.53,18.44,20.53c7.77,0,13.46-3.36,16.24-9.16v7.77H186.02z"/>
	<path d="M285.66,472.93c0-22.85-14.96-36.54-39.21-36.54h-28.88v73.08h28.88C270.69,509.47,285.66,495.78,285.66,472.93z
		 M237.29,493.92v-41.99h7.77c12.76,0,20.3,7.66,20.3,20.88c0,13.46-7.54,21.11-20.3,21.11H237.29z"/>
	<path d="M347.48,483.6c0-16.01-11.48-27.26-28.3-27.26c-16.94,0-28.3,11.25-28.3,27.26c0,16.12,11.37,27.26,28.3,27.26
		C336,510.86,347.48,499.72,347.48,483.6z M319.18,496.71c-6.61,0-9.4-5.34-9.4-13.11c0-7.77,2.78-13.11,9.4-13.11
		c6.5,0,9.4,5.34,9.4,13.11C328.58,491.37,325.68,496.71,319.18,496.71z"/>
	<path d="M409.08,476.99c0-10.79-4.52-20.65-18.68-20.65c-7.77,0-13.92,3.48-16.7,9.16v-7.77h-18.79v51.73h18.79v-25.4
		c0-7.77,2.55-12.88,8.93-12.88c5.68,0,7.66,3.71,7.66,10.79v27.49h18.79V476.99z"/>
	<path d="M435.53,452.63v-16.24h-19.6v17.4h8.82c-0.12,4.64-3.25,6.15-8.82,6.38v8.93C428.92,468.75,435.53,463.99,435.53,452.63z"
		/>
	<path d="M478.45,494.04c-3.13,1.28-5.68,1.74-8,1.74c-3.83,0-5.92-1.74-5.92-6.15v-18.91h13.46v-12.99h-13.46v-14.27H452.7
		l-1.74,6.73c-1.28,4.76-2.9,7.54-8.12,8.35l-3.83,0.58v11.6h6.96v24.36c0,12.18,8.24,15.78,16.94,15.78
		c7.08,0,11.6-1.74,15.54-4.64V494.04z"/>
	<polygon points="576.93,509.47 547.35,467.47 575.54,436.39 552.92,436.39 526.7,465.97 526.7,436.39 506.98,436.39 506.98,509.47 
		526.7,509.47 526.7,487.31 533.08,480.35 553.38,509.47 	"/>
	<path d="M635.04,509.47v-32.48c0-10.79-4.52-20.65-18.68-20.65c-7.77,0-13.92,3.48-16.7,9.16v-7.77h-18.79v51.73h18.79v-25.4
		c0-7.77,2.55-12.88,8.93-12.88c5.68,0,7.66,3.71,7.66,10.79v27.49H635.04z"/>
	<path d="M670.19,510.86c16.82,0,28.3-11.14,28.3-27.26c0-16.01-11.48-27.26-28.3-27.26c-16.94,0-28.3,11.25-28.3,27.26
		C641.89,499.72,653.25,510.86,670.19,510.86z M670.19,470.49c6.5,0,9.4,5.34,9.4,13.11c0,7.77-2.9,13.11-9.4,13.11
		c-6.61,0-9.4-5.34-9.4-13.11C660.79,475.83,663.58,470.49,670.19,470.49z"/>
	<polygon points="759.51,487.08 759.05,487.08 751.51,457.73 736.54,457.73 729,487.08 728.54,487.08 719.26,457.73 700.58,457.73 
		716.94,509.47 735.38,509.47 742.92,480.23 743.39,480.23 750.93,509.47 769.37,509.47 785.73,457.73 768.79,457.73 	"/>
	<polygon points="72.31,200.38 131.18,200.38 131.18,165.06 72.31,165.06 72.31,134.09 150.63,134.09 150.63,98.26 28.81,98.26 
		28.81,259.5 72.31,259.5 	"/>
	<rect x="175.72" y="98.26" width="43.51" height="161.24"/>
	<path d="M243.03,178.88c0,49.91,33.78,83.69,78.32,83.69c20.73,0,37.88-6.14,46.84-20.99v17.92h37.88v-83.69h-76.78v31.22h35.57
		c-6.4,12.8-20.22,18.68-34.29,18.68c-27.9,0-42.74-18.68-42.74-46.84c0-27.39,14.08-45.04,39.41-45.04
		c20.73,0,33.02,11.26,35.32,28.92l42.23-1.54c-3.58-40.18-31.22-66.03-78.57-66.03C279.62,95.19,243.03,129.23,243.03,178.88z"/>
	<polygon points="435.75,259.5 479.26,259.5 479.26,195.77 543.5,195.77 543.5,259.5 587.01,259.5 587.01,98.26 543.5,98.26 
		543.5,160.46 479.26,160.46 479.26,98.26 435.75,98.26 	"/>
	<polygon points="766.68,98.26 612.09,98.26 612.09,134.09 667.38,134.09 667.38,259.5 710.63,259.5 710.63,134.09 766.68,134.09 	
		"/>
	<polygon points="265.16,599.8 266.5,594.6 266.58,594.6 267.92,599.8 271.2,599.8 274.07,590.74 276.93,599.8 280.21,599.8 
		281.55,594.6 281.63,594.6 282.97,599.8 286.25,599.8 289.11,590.74 291.98,599.8 295.25,599.8 296.59,594.6 296.68,594.6 
		298.02,599.8 301.29,599.8 304.2,590.6 301.19,590.6 299.54,595.82 299.46,595.82 298.12,590.6 295.46,590.6 294.12,595.82 
		294.04,595.82 292.39,590.6 289.16,590.6 289.07,590.6 286.15,590.6 284.5,595.82 284.41,595.82 283.07,590.6 280.41,590.6 
		279.07,595.82 278.99,595.82 277.34,590.6 274.11,590.6 274.02,590.6 271.1,590.6 269.45,595.82 269.37,595.82 268.03,590.6 
		265.37,590.6 264.03,595.82 263.95,595.82 262.3,590.6 258.98,590.6 261.88,599.8 	"/>
	<rect x="306.63" y="596.25" width="3.55" height="3.55"/>
	<path d="M319.7,589.68c2.02,0,2.8,1.34,3.01,2.78l3.36-0.12c-0.25-3.24-2.37-5.77-6.35-5.77c-3.79,0-6.66,2.74-6.66,6.74
		s2.87,6.74,6.66,6.74c3.98,0,6.1-2.51,6.35-5.75l-3.36-0.14c-0.21,1.44-0.99,2.78-3.01,2.78c-1.92,0-3.03-1.42-3.03-3.63
		S317.78,589.68,319.7,589.68z"/>
	<path d="M330.08,594.62c-2,0.35-3.28,1.11-3.28,2.89c0,1.57,1.18,2.49,2.97,2.49c1.46,0,2.51-0.56,3.05-1.63
		c0.31,1.05,1.2,1.63,2.33,1.63c0.95,0,1.61-0.27,2.08-0.6v-1.77c-0.27,0.1-0.47,0.14-0.74,0.14c-0.35,0-0.56-0.21-0.56-0.68v-3.13
		c0-2.56-1.79-3.61-4.23-3.61c-2.76,0-4.27,1.4-4.56,3.42l3.09,0.21c0.14-0.68,0.52-1.15,1.26-1.15c0.8,0,1.15,0.45,1.15,1.22v0.14
		L330.08,594.62z M332.66,595.96c0,1.2-0.76,1.9-1.71,1.9c-0.56,0-0.93-0.31-0.93-0.78c0-0.6,0.47-0.85,1.28-1.01l1.36-0.25V595.96z
		"/>
	<path d="M341.54,598.23c0.45,1.07,1.48,1.81,3.03,1.81c2.7,0,4.08-2.12,4.08-4.84c0-2.7-1.38-4.84-4.08-4.84
		c-1.55,0-2.58,0.74-3.03,1.83v-1.59h-3.34v12.49h3.34V598.23z M341.54,595.14c0-1.32,0.72-2.18,1.85-2.18c1.3,0,1.9,0.93,1.9,2.25
		c0,1.34-0.6,2.27-1.9,2.27c-1.13,0-1.85-0.87-1.85-2.21V595.14z"/>
	<rect x="349.95" y="586.81" width="3.38" height="2.93"/>
	<rect x="349.97" y="590.6" width="3.34" height="9.19"/>
	<path d="M358.46,600.04c1.26,0,2.06-0.31,2.76-0.82v-2.16c-0.56,0.23-1.01,0.31-1.42,0.31c-0.68,0-1.05-0.31-1.05-1.09v-3.36h2.39
		v-2.31h-2.39v-2.54h-2.1l-0.31,1.2c-0.23,0.85-0.52,1.34-1.44,1.48l-0.68,0.1v2.06h1.24v4.33
		C355.46,599.41,356.92,600.04,358.46,600.04z"/>
	<path d="M365.25,594.62c-2,0.35-3.28,1.11-3.28,2.89c0,1.57,1.17,2.49,2.97,2.49c1.46,0,2.51-0.56,3.05-1.63
		c0.31,1.05,1.2,1.63,2.33,1.63c0.95,0,1.61-0.27,2.08-0.6v-1.77c-0.27,0.1-0.47,0.14-0.74,0.14c-0.35,0-0.56-0.21-0.56-0.68v-3.13
		c0-2.56-1.79-3.61-4.23-3.61c-2.76,0-4.27,1.4-4.56,3.42l3.09,0.21c0.14-0.68,0.52-1.15,1.26-1.15c0.8,0,1.15,0.45,1.15,1.22v0.14
		L365.25,594.62z M367.82,595.96c0,1.2-0.76,1.9-1.71,1.9c-0.56,0-0.93-0.31-0.93-0.78c0-0.6,0.47-0.85,1.28-1.01l1.36-0.25V595.96z
		"/>
	<rect x="373.37" y="586.81" width="3.34" height="12.99"/>
	<rect x="378.52" y="590.6" width="3.34" height="9.19"/>
	<rect x="378.5" y="586.81" width="3.38" height="2.93"/>
	<path d="M387.67,597.96c-1.01,0-1.63-0.43-1.75-1.2l-2.91,0.04c0.19,2.23,2.08,3.24,4.62,3.24c2.62,0,4.27-1.11,4.27-3.05
		c0-1.79-1.2-2.72-3.26-3.05l-1.79-0.31c-0.31-0.04-0.56-0.21-0.56-0.52c0-0.41,0.37-0.66,1.01-0.66c1.03,0,1.61,0.41,1.73,1.07
		l2.74-0.08c-0.19-1.92-1.75-3.09-4.41-3.09c-2.58,0-4.16,1.3-4.16,3.11c0,1.88,1.17,2.6,3.4,2.95l1.36,0.21
		c0.64,0.1,0.85,0.35,0.85,0.7C388.8,597.7,388.41,597.96,387.67,597.96z"/>
	<path d="M408.65,599.8v-5.77c0-1.92-0.74-3.67-3.28-3.67c-1.55,0-2.64,0.78-3.13,1.81c-0.39-1.07-1.24-1.81-2.87-1.81
		c-1.38,0-2.37,0.62-2.87,1.63v-1.38h-3.34v9.19h3.34v-4.51c0-1.38,0.39-2.29,1.48-2.29c1.01,0,1.26,0.66,1.26,1.92v4.89h3.34v-4.51
		c0-1.38,0.37-2.29,1.48-2.29c1.01,0,1.24,0.66,1.24,1.92v4.89H408.65z"/>
	<rect x="413.91" y="586.81" width="3.5" height="12.99"/>
	<path d="M427.53,596.99c0-1.79-1.2-2.72-3.26-3.05l-1.79-0.31c-0.31-0.04-0.56-0.21-0.56-0.52c0-0.41,0.37-0.66,1.01-0.66
		c1.03,0,1.61,0.41,1.73,1.07l2.74-0.08c-0.19-1.92-1.75-3.09-4.41-3.09c-2.58,0-4.16,1.3-4.16,3.11c0,1.88,1.17,2.6,3.4,2.95
		l1.36,0.21c0.64,0.1,0.84,0.35,0.84,0.7c0,0.37-0.39,0.64-1.13,0.64c-1.01,0-1.63-0.43-1.75-1.2l-2.91,0.04
		c0.19,2.23,2.08,3.24,4.62,3.24C425.88,600.04,427.53,598.93,427.53,596.99z"/>
	<path d="M435.86,597.28h5.07l0.97,2.51h3.73l-5.17-12.99h-3.92l-5.17,12.99h3.53L435.86,597.28z M438.35,590.83h0.08l1.48,3.83
		h-3.05L438.35,590.83z"/>
	<polygon points="454.36,595.45 451.15,586.81 447.48,586.81 452.47,599.8 456.16,599.8 461.15,586.81 457.66,586.81 454.45,595.45 
			"/>
	<rect x="462.05" y="590.6" width="3.34" height="9.19"/>
	<rect x="462.03" y="586.81" width="3.38" height="2.93"/>
	<path d="M467.2,590.6v9.19h3.34v-4.21c0-1.55,0.76-2.12,2-2.12c0.64,0,1.13,0.12,1.59,0.39l0.21-3.15
		c-0.23-0.19-0.72-0.35-1.28-0.35c-1.22,0-2.19,0.85-2.52,1.88v-1.63H467.2z"/>
	<path d="M484.77,599.8v-9.19h-3.34v4.51c0,1.4-0.41,2.31-1.46,2.31c-1.01,0-1.36-0.68-1.36-1.92v-4.91h-3.34v5.79
		c0,1.92,0.76,3.65,3.28,3.65c1.38,0,2.39-0.6,2.89-1.63v1.38H484.77z"/>
	<path d="M490.58,597.96c-1.01,0-1.63-0.43-1.75-1.2l-2.91,0.04c0.19,2.23,2.08,3.24,4.62,3.24c2.62,0,4.27-1.11,4.27-3.05
		c0-1.79-1.2-2.72-3.26-3.05l-1.79-0.31c-0.31-0.04-0.56-0.21-0.56-0.52c0-0.41,0.37-0.66,1.01-0.66c1.03,0,1.61,0.41,1.73,1.07
		l2.74-0.08c-0.19-1.92-1.75-3.09-4.41-3.09c-2.58,0-4.16,1.3-4.16,3.11c0,1.88,1.18,2.6,3.4,2.95l1.36,0.21
		c0.64,0.1,0.84,0.35,0.84,0.7C491.71,597.7,491.32,597.96,490.58,597.96z"/>
	<rect x="497.64" y="596.25" width="3.55" height="3.55"/>
	<path d="M509.1,600.04c2.99,0,5.03-1.98,5.03-4.84c0-2.84-2.04-4.84-5.03-4.84c-3.01,0-5.03,2-5.03,4.84
		C504.08,598.07,506.1,600.04,509.1,600.04z M509.1,592.87c1.15,0,1.67,0.95,1.67,2.33s-0.52,2.33-1.67,2.33
		c-1.18,0-1.67-0.95-1.67-2.33S507.93,592.87,509.1,592.87z"/>
	<path d="M515.45,590.6v9.19h3.34v-4.21c0-1.55,0.76-2.12,2-2.12c0.64,0,1.13,0.12,1.59,0.39l0.21-3.15
		c-0.23-0.19-0.72-0.35-1.28-0.35c-1.22,0-2.19,0.85-2.51,1.88v-1.63H515.45z"/>
	<path d="M522.6,601.1c0,1.73,2.27,2.25,4.89,2.25c2.99,0,5.77-1.05,5.77-3.34c0-1.55-1.05-2.64-3.13-2.64h-3.81
		c-0.56,0-0.78-0.25-0.78-0.56c0-0.19,0.06-0.33,0.19-0.43c0.6,0.19,1.26,0.27,2,0.27c2.6,0,4.47-1.2,4.47-3.13
		c0-0.43-0.1-0.83-0.29-1.18c0.45-0.1,0.95-0.14,1.34-0.14v-2.52c-1.01,0-2.02,0.66-2.58,1.42c-0.78-0.47-1.83-0.74-2.95-0.74
		c-2.58,0-4.43,1.2-4.43,3.15c0,1.01,0.5,1.79,1.32,2.33c-0.99,0.37-1.57,1.05-1.57,1.94c0,0.78,0.49,1.53,1.32,1.79
		C523.33,599.65,522.6,600.29,522.6,601.1z M527.76,592.19c0.56,0,0.97,0.52,0.97,1.32c0,0.82-0.41,1.34-0.97,1.34
		s-0.97-0.52-0.97-1.34C526.79,592.71,527.2,592.19,527.76,592.19z M525.96,600.21h3.38c0.56,0,0.85,0.14,0.85,0.54
		c0,0.56-1.13,0.87-2.68,0.87c-1.24,0-2.16-0.19-2.16-0.85C525.35,600.42,525.59,600.21,525.96,600.21z"/>
	<path d="M300.03,16.64l-0.43,2.06h1.81l-0.8,3.42h2.49l0.8-3.42h1.77l-0.8,3.42h2.49l0.8-3.42h2.04l0.43-2.06h-1.98l0.49-2.02h1.88
		l0.43-2.06h-1.83l0.82-3.42h-2.49l-0.82,3.42h-1.77l0.82-3.42h-2.49l-0.82,3.42h-2.02l-0.43,2.06h1.98l-0.49,2.02H300.03z
		 M304.89,14.62h1.77l-0.5,2.02h-1.77L304.89,14.62z"/>
	<path d="M320.73,12c2.02,0,2.8,1.34,3.01,2.78l3.36-0.12c-0.25-3.24-2.37-5.77-6.35-5.77c-3.79,0-6.66,2.74-6.66,6.74
		s2.87,6.74,6.66,6.74c3.98,0,6.1-2.52,6.35-5.75l-3.36-0.14c-0.21,1.44-0.99,2.78-3.01,2.78c-1.92,0-3.03-1.42-3.03-3.63
		S318.81,12,320.73,12z"/>
	<path d="M331.11,16.95c-2,0.35-3.28,1.11-3.28,2.89c0,1.57,1.18,2.49,2.97,2.49c1.46,0,2.51-0.56,3.05-1.63
		c0.31,1.05,1.2,1.63,2.33,1.63c0.95,0,1.61-0.27,2.08-0.6v-1.77c-0.27,0.1-0.47,0.14-0.74,0.14c-0.35,0-0.56-0.21-0.56-0.68v-3.13
		c0-2.56-1.79-3.61-4.23-3.61c-2.76,0-4.27,1.4-4.56,3.42l3.09,0.21c0.14-0.68,0.52-1.15,1.26-1.15c0.8,0,1.15,0.45,1.15,1.22v0.14
		L331.11,16.95z M333.69,18.29c0,1.2-0.76,1.9-1.71,1.9c-0.56,0-0.93-0.31-0.93-0.78c0-0.6,0.47-0.85,1.28-1.01l1.36-0.25V18.29z"/>
	<path d="M339.23,12.93v12.49h3.34v-4.87c0.45,1.07,1.48,1.81,3.03,1.81c2.7,0,4.08-2.12,4.08-4.84c0-2.7-1.38-4.84-4.08-4.84
		c-1.55,0-2.58,0.74-3.03,1.83v-1.59H339.23z M344.43,15.28c1.3,0,1.9,0.93,1.9,2.25c0,1.34-0.6,2.27-1.9,2.27
		c-1.13,0-1.86-0.87-1.86-2.21v-0.12C342.57,16.15,343.29,15.28,344.43,15.28z"/>
	<rect x="351" y="12.93" width="3.34" height="9.19"/>
	<rect x="350.98" y="9.14" width="3.38" height="2.93"/>
	<path d="M357.68,10.39l-0.31,1.2c-0.23,0.85-0.52,1.34-1.44,1.48l-0.68,0.1v2.06h1.24v4.33c0,2.16,1.46,2.8,3.01,2.8
		c1.26,0,2.06-0.31,2.76-0.82v-2.16c-0.56,0.23-1.01,0.31-1.42,0.31c-0.68,0-1.05-0.31-1.05-1.09v-3.36h2.39v-2.31h-2.39v-2.54
		H357.68z"/>
	<path d="M366.27,16.95c-2,0.35-3.28,1.11-3.28,2.89c0,1.57,1.17,2.49,2.97,2.49c1.46,0,2.51-0.56,3.05-1.63
		c0.31,1.05,1.2,1.63,2.33,1.63c0.95,0,1.61-0.27,2.08-0.6v-1.77c-0.27,0.1-0.47,0.14-0.74,0.14c-0.35,0-0.56-0.21-0.56-0.68v-3.13
		c0-2.56-1.79-3.61-4.23-3.61c-2.76,0-4.27,1.4-4.56,3.42l3.09,0.21c0.14-0.68,0.52-1.15,1.26-1.15c0.8,0,1.15,0.45,1.15,1.22v0.14
		L366.27,16.95z M368.85,18.29c0,1.2-0.76,1.9-1.71,1.9c-0.56,0-0.93-0.31-0.93-0.78c0-0.6,0.47-0.85,1.28-1.01l1.36-0.25V18.29z"/>
	<rect x="374.39" y="9.14" width="3.34" height="12.99"/>
	<rect x="379.55" y="12.93" width="3.34" height="9.19"/>
	<rect x="379.53" y="9.14" width="3.38" height="2.93"/>
	<path d="M388.7,20.29c-1.01,0-1.63-0.43-1.75-1.2l-2.91,0.04c0.19,2.23,2.08,3.24,4.62,3.24c2.62,0,4.27-1.11,4.27-3.05
		c0-1.79-1.2-2.72-3.26-3.05l-1.79-0.31c-0.31-0.04-0.56-0.21-0.56-0.52c0-0.41,0.37-0.66,1.01-0.66c1.03,0,1.61,0.41,1.73,1.07
		l2.74-0.08c-0.19-1.92-1.75-3.09-4.41-3.09c-2.58,0-4.16,1.3-4.16,3.11c0,1.88,1.17,2.6,3.4,2.95l1.36,0.21
		c0.64,0.1,0.85,0.35,0.85,0.7C389.83,20.02,389.44,20.29,388.7,20.29z"/>
	<path d="M406.4,12.68c-1.55,0-2.64,0.78-3.13,1.81c-0.39-1.07-1.24-1.81-2.87-1.81c-1.38,0-2.37,0.62-2.87,1.63v-1.38h-3.34v9.19
		h3.34v-4.51c0-1.38,0.39-2.29,1.48-2.29c1.01,0,1.26,0.66,1.26,1.92v4.89h3.34v-4.51c0-1.38,0.37-2.29,1.48-2.29
		c1.01,0,1.24,0.66,1.24,1.92v4.89h3.34v-5.77C409.68,14.44,408.94,12.68,406.4,12.68z"/>
	<rect x="413.27" y="9.14" width="3.5" height="12.99"/>
	<path d="M422.67,20.29c-1.01,0-1.63-0.43-1.75-1.2l-2.91,0.04c0.19,2.23,2.08,3.24,4.62,3.24c2.62,0,4.27-1.11,4.27-3.05
		c0-1.79-1.2-2.72-3.26-3.05l-1.79-0.31c-0.31-0.04-0.56-0.21-0.56-0.52c0-0.41,0.37-0.66,1.01-0.66c1.03,0,1.61,0.41,1.73,1.07
		l2.74-0.08c-0.19-1.92-1.75-3.09-4.41-3.09c-2.58,0-4.16,1.3-4.16,3.11c0,1.88,1.17,2.6,3.4,2.95l1.36,0.21
		c0.64,0.1,0.85,0.35,0.85,0.7C423.8,20.02,423.41,20.29,422.67,20.29z"/>
	<path d="M434.24,9.14l-5.17,12.99h3.53l0.97-2.52h5.07l0.97,2.52h3.73l-5.17-12.99H434.24z M434.57,16.99l1.48-3.83h0.08l1.48,3.83
		H434.57z"/>
	<polygon points="458.8,9.14 455.31,9.14 452.1,17.77 452.01,17.77 448.8,9.14 445.13,9.14 450.12,22.12 453.81,22.12 	"/>
	<rect x="459.7" y="12.93" width="3.34" height="9.19"/>
	<rect x="459.68" y="9.14" width="3.38" height="2.93"/>
	<path d="M464.85,12.93v9.19h3.34v-4.21c0-1.55,0.76-2.12,2-2.12c0.64,0,1.13,0.12,1.59,0.39l0.21-3.15
		c-0.23-0.19-0.72-0.35-1.28-0.35c-1.22,0-2.19,0.85-2.52,1.88v-1.63H464.85z"/>
	<path d="M472.91,12.93v5.79c0,1.92,0.76,3.65,3.28,3.65c1.38,0,2.39-0.6,2.89-1.63v1.38h3.34v-9.19h-3.34v4.51
		c0,1.4-0.41,2.31-1.46,2.31c-1.01,0-1.36-0.68-1.36-1.92v-4.91H472.91z"/>
	<path d="M488.22,20.29c-1.01,0-1.63-0.43-1.75-1.2l-2.91,0.04c0.19,2.23,2.08,3.24,4.62,3.24c2.62,0,4.27-1.11,4.27-3.05
		c0-1.79-1.2-2.72-3.26-3.05l-1.79-0.31c-0.31-0.04-0.56-0.21-0.56-0.52c0-0.41,0.37-0.66,1.01-0.66c1.03,0,1.61,0.41,1.73,1.07
		l2.74-0.08c-0.19-1.92-1.75-3.09-4.41-3.09c-2.58,0-4.16,1.3-4.16,3.11c0,1.88,1.18,2.6,3.4,2.95l1.36,0.21
		c0.64,0.1,0.84,0.35,0.84,0.7C489.36,20.02,488.97,20.29,488.22,20.29z"/>
</g>
</svg>
