<?xml version="1.0" encoding="utf-8"?>
<!-- Generator: Adobe Illustrator 23.1.1, SVG Export Plug-In . SVG Version: 6.00 Build 0)  -->
<svg version="1.1" xmlns="http://www.w3.org/2000/svg" xmlns:xlink="http://www.w3.org/1999/xlink" x="0px" y="0px"
	 viewBox="0 0 792 612" style="enable-background:new 0 0 792 612;" xml:space="preserve">
<style type="text/css">
	.st0{display:none;}
	.st1{display:inline;}
	
		.st2{display:inline;fill:#FFFFFF;stroke:#000000;stroke-width:16;stroke-linecap:round;stroke-linejoin:round;stroke-miterlimit:10;}
	.st3{fill:#FFFFFF;stroke:#000000;stroke-width:16;stroke-linecap:round;stroke-linejoin:round;stroke-miterlimit:10;}
	.st4{display:inline;fill:none;stroke:#000000;stroke-width:24;stroke-linejoin:round;stroke-miterlimit:10;}
	.st5{display:inline;fill:#FFFFFF;}
	.st6{fill:#FFFFFF;stroke:#000000;stroke-width:17;stroke-linecap:round;stroke-miterlimit:10;}
	.st7{fill:#FFFFFF;stroke:#000000;stroke-width:17;stroke-miterlimit:10;}
	.st8{stroke:#000000;stroke-width:16.0572;stroke-linecap:round;stroke-miterlimit:10;}
	.st9{fill:#FFFFFF;}
	.st10{fill:#FFFFFF;stroke:#000000;stroke-width:17.1072;stroke-linecap:round;stroke-linejoin:round;stroke-miterlimit:10;}
	.st11{stroke:#000000;stroke-width:17.1072;stroke-linecap:round;stroke-linejoin:round;stroke-miterlimit:10;}
	.st12{fill:#FFFFFF;stroke:#000000;stroke-width:14.7375;stroke-linecap:round;stroke-linejoin:round;stroke-miterlimit:10;}
	.st13{fill:none;stroke:#000000;stroke-width:14.7375;stroke-linecap:round;stroke-linejoin:round;stroke-miterlimit:10;}
	.st14{stroke:#000000;stroke-width:14.7375;stroke-linecap:round;stroke-linejoin:round;stroke-miterlimit:10;}
	.st15{fill:#FFFFFF;stroke:#000000;stroke-width:14.2911;stroke-linecap:round;stroke-linejoin:round;stroke-miterlimit:10;}
	.st16{fill:none;stroke:#000000;stroke-width:13.497;stroke-miterlimit:10;}
	.st17{fill:#FFFFFF;stroke:#000000;stroke-width:13.497;stroke-linecap:round;stroke-linejoin:round;stroke-miterlimit:10;}
	.st18{fill:#FFFFFF;stroke:#000000;stroke-width:13.497;stroke-miterlimit:10;}
	.st19{fill:#FFFFFF;stroke:#000000;stroke-width:14.7439;stroke-linecap:round;stroke-miterlimit:10;}
	.st20{fill:#FFFFFF;stroke:#000000;stroke-width:14.7439;stroke-miterlimit:10;}
	.st21{stroke:#000000;stroke-width:13.9262;stroke-linecap:round;stroke-miterlimit:10;}
	
		.st22{display:inline;fill:#FFFFFF;stroke:#000000;stroke-width:14.6942;stroke-linecap:round;stroke-linejoin:round;stroke-miterlimit:10;}
	.st23{fill:#FFFFFF;stroke:#000000;stroke-width:14.6942;stroke-linecap:round;stroke-linejoin:round;stroke-miterlimit:10;}
	.st24{fill:none;stroke:#000000;stroke-width:24;stroke-linejoin:round;stroke-miterlimit:10;}
	.st25{fill:none;stroke:#000000;stroke-width:30.5612;stroke-linecap:round;stroke-linejoin:round;stroke-miterlimit:10;}
	.st26{fill:#FFFFFF;stroke:#000000;stroke-width:16.2993;stroke-linecap:round;stroke-linejoin:round;stroke-miterlimit:10;}
	.st27{display:inline;fill:#FFFFFF;stroke:#000000;stroke-width:13.497;stroke-linecap:round;stroke-miterlimit:10;}
	
		.st28{display:inline;fill:none;stroke:#000000;stroke-width:13.497;stroke-linecap:round;stroke-linejoin:round;stroke-miterlimit:10;}
	
		.st29{display:inline;fill:#FFFFFF;stroke:#000000;stroke-width:13.497;stroke-linecap:round;stroke-linejoin:round;stroke-miterlimit:10;}
	
		.st30{display:inline;fill:url(#);stroke:#000000;stroke-width:13.497;stroke-linecap:round;stroke-linejoin:round;stroke-miterlimit:10;}
	.st31{fill:#FFFFFF;stroke:#000000;stroke-width:15.2362;stroke-linecap:round;stroke-linejoin:round;stroke-miterlimit:10;}
	.st32{fill:#FFFFFF;stroke:#000000;stroke-width:14.8467;stroke-linecap:round;stroke-linejoin:round;stroke-miterlimit:10;}
	.st33{stroke:#000000;stroke-width:20.1683;stroke-linecap:round;stroke-miterlimit:10;}
	.st34{fill:none;stroke:#000000;stroke-width:14.8467;stroke-linecap:round;stroke-linejoin:round;stroke-miterlimit:10;}
	.st35{fill:#FFFFFF;stroke:#FFFFFF;stroke-width:3;stroke-miterlimit:10;}
	.st36{display:inline;fill:none;stroke:#000000;stroke-width:15;stroke-linecap:round;stroke-linejoin:round;stroke-miterlimit:10;}
	
		.st37{display:inline;fill:#FFFFFF;stroke:#000000;stroke-width:15;stroke-linecap:round;stroke-linejoin:round;stroke-miterlimit:10;}
	.st38{fill:#FFFFFF;stroke:#000000;stroke-width:15;stroke-linecap:round;stroke-linejoin:round;stroke-miterlimit:10;}
	.st39{fill:#FFFFFF;stroke:#000000;stroke-width:11.7326;stroke-linecap:round;stroke-linejoin:round;stroke-miterlimit:10;}
	.st40{fill:#FFFFFF;stroke:#000000;stroke-width:13.2623;stroke-linecap:round;stroke-linejoin:round;stroke-miterlimit:10;}
	.st41{fill:none;stroke:#000000;stroke-width:16;stroke-linecap:round;stroke-miterlimit:10;}
	.st42{fill:url(#);stroke:#000000;stroke-width:16;stroke-linecap:round;stroke-linejoin:round;stroke-miterlimit:10;}
	.st43{fill:#FFFFFF;stroke:#000000;stroke-width:16;stroke-linecap:round;stroke-miterlimit:10;}
	.st44{fill:#FFFFFF;stroke:#000000;stroke-width:13.2623;stroke-linecap:round;stroke-miterlimit:10;}
	.st45{stroke:#000000;stroke-width:4.5213;stroke-miterlimit:10;}
	.st46{fill:none;stroke:#000000;stroke-width:15.2344;stroke-linecap:round;stroke-linejoin:round;stroke-miterlimit:10;}
	.st47{fill:#FFFFFF;stroke:#000000;stroke-width:15.2344;stroke-linecap:round;stroke-linejoin:round;stroke-miterlimit:10;}
	.st48{stroke:#000000;stroke-width:18.3348;stroke-linecap:round;stroke-miterlimit:10;}
	.st49{fill:none;stroke:#000000;stroke-width:13.497;stroke-linecap:round;stroke-linejoin:round;stroke-miterlimit:10;}
	.st50{display:inline;fill:none;stroke:#000000;stroke-width:16;stroke-linecap:round;stroke-linejoin:round;stroke-miterlimit:10;}
	.st51{fill:#FFFFFF;stroke:#000000;stroke-width:13.3058;stroke-linecap:round;stroke-linejoin:round;stroke-miterlimit:10;}
	.st52{fill:#FFFFFF;stroke:#000000;stroke-width:17;stroke-linecap:round;stroke-linejoin:round;stroke-miterlimit:10;}
	.st53{font-family:'FoundersGrotesk-Bold';}
	.st54{font-size:199.2399px;}
	.st55{font-size:20.6105px;}
	.st56{font-size:10.3052px;}
	.st57{font-size:19.2364px;}
	.st58{font-size:10px;}
	.st59{fill:#FFFFFF;stroke:#000000;stroke-width:15.2517;stroke-linecap:round;stroke-linejoin:round;stroke-miterlimit:10;}
	.st60{stroke:#000000;stroke-width:3;stroke-miterlimit:10;}
	.st61{fill:#FFFFFF;stroke:#000000;stroke-width:16.0686;stroke-linecap:round;stroke-linejoin:round;stroke-miterlimit:10;}
	.st62{fill:#FFFFFF;stroke:#000000;stroke-width:15;stroke-linejoin:round;stroke-miterlimit:10;}
	.st63{fill:url(#);stroke:#000000;stroke-width:13.497;stroke-linecap:round;stroke-linejoin:round;stroke-miterlimit:10;}
	.st64{fill:#06A6FF;}
	.st65{fill:#FF0303;}
	.st66{fill:#3DFF06;}
	.st67{fill:#FFF808;}
	.st68{fill:none;stroke:#000000;stroke-width:0;stroke-linecap:round;stroke-linejoin:round;}
</style>
<g id="unexpanded" class="st0">
	<g class="st1">
		<text transform="matrix(1 0 0 1 62.814 183.1738)" class="st53 st54">Worker</text>
	</g>
	<text transform="matrix(1 0 0 1 51.4585 363.2676)" class="st1 st53 st54">POWER</text>
	<g class="st1">
		<text transform="matrix(1 0 0 1 284.8662 546.3633)" class="st53 st54">! ! !</text>
	</g>
	<g class="st1">
		<g>
			<g>
				<text transform="matrix(1 0 0 1 258.9679 599.7979)"><tspan x="0" y="0" class="st53 st55">www</tspan><tspan x="45.14" y="0" class="st53 st56"> </tspan><tspan x="46.99" y="0" class="st53 st55">.</tspan><tspan x="51.77" y="0" class="st53 st56"> </tspan><tspan x="53.63" y="0" class="st53 st55">Capitalism</tspan><tspan x="150.43" y="0" class="st53 st57"> </tspan><tspan x="153.9" y="0" class="st53 st55">Is</tspan><tspan x="168.88" y="0" class="st53 st57"> </tspan><tspan x="172.34" y="0" class="st53 st55">A</tspan><tspan x="186.6" y="0" class="st53 st56"> </tspan><tspan x="188.46" y="0" class="st53 st55">Virus</tspan><tspan x="236.15" y="0" class="st53 st56"> </tspan><tspan x="238.01" y="0" class="st53 st55">.</tspan><tspan x="242.79" y="0" class="st53 st56"> </tspan><tspan x="244.64" y="0" class="st53 st55">org</tspan></text>
			</g>
			<g>
				<text transform="matrix(1 0 0 1 299.1802 22.1245)"><tspan x="0" y="0" class="st53 st55">#</tspan><tspan x="12.7" y="0" class="st53 st58"> </tspan><tspan x="14.5" y="0" class="st53 st55">Capitalism</tspan><tspan x="111.3" y="0" class="st53 st58"> </tspan><tspan x="113.1" y="0" class="st53 st55">Is</tspan><tspan x="128.09" y="0" class="st53 st58"> </tspan><tspan x="129.89" y="0" class="st53 st55">A</tspan><tspan x="144.15" y="0" class="st53 st58"> </tspan><tspan x="145.95" y="0" class="st53 st55">Virus</tspan></text>
			</g>
		</g>
	</g>
</g>
<g id="expanded">
	<polygon points="194.81,136.35 174.09,57.66 143.6,57.66 122.88,136.35 122.09,136.35 102.16,57.66 68.29,57.66 101.17,183.17 
		136.63,183.17 157.55,103.88 158.35,103.88 179.27,183.17 215.33,183.17 248.2,57.66 215.53,57.66 195.6,136.35 	"/>
	<path d="M294.83,91.92c-29.09,0-48.61,19.33-48.61,46.82c0,27.69,19.52,46.82,48.61,46.82c28.89,0,48.61-19.13,48.61-46.82
		C343.44,111.25,323.72,91.92,294.83,91.92z M294.83,161.26c-11.36,0-16.14-9.16-16.14-22.51c0-13.35,4.78-22.51,16.14-22.51
		c11.16,0,16.14,9.16,16.14,22.51C310.96,152.09,305.98,161.26,294.83,161.26z"/>
	<path d="M356.19,183.17h32.28v-40.64c0-14.94,7.37-20.52,19.33-20.52c6.18,0,10.96,1.2,15.34,3.79l1.99-30.48
		c-2.19-1.79-6.97-3.39-12.35-3.39c-11.75,0-21.12,8.17-24.31,18.13V94.32h-32.28V183.17z"/>
	<polygon points="467.37,125 467.37,57.66 435.09,57.66 435.09,183.17 467.37,183.17 467.37,155.08 475.14,147.11 500.64,183.17 
		536.9,183.17 499.05,129.18 535.71,94.32 497.85,94.32 	"/>
	<path d="M583.13,185.56c23.51,0,39.85-11.36,44.43-31.68l-25.9-2.39c-2.99,6.97-8.57,9.96-17.33,9.96
		c-9.76,0-17.73-5.18-18.53-16.14h62.36v-8.97c0-24.11-15.74-44.43-45.42-44.43c-27.69,0-48.41,20.12-48.41,48.21
		C534.31,168.43,554.64,185.56,583.13,185.56z M582.33,115.04c9.56,0,14.74,6.77,15.14,14.74h-31.28
		C567.39,121.41,571.97,115.04,582.33,115.04z"/>
	<path d="M641.3,94.32v88.86h32.28v-40.64c0-14.94,7.37-20.52,19.33-20.52c6.18,0,10.96,1.2,15.34,3.79l1.99-30.48
		c-2.19-1.79-6.97-3.39-12.35-3.39c-11.75,0-21.12,8.17-24.31,18.13V94.32H641.3z"/>
	<path d="M61.52,363.27h33.67v-39.25h21.52c32.87,0,52-15.34,52-43.23c0-27.69-19.13-43.04-52-43.04H61.52V363.27z M95.19,264.85
		h19.92c15.14,0,20.92,5.58,20.92,16.14c0,10.56-5.78,15.94-20.92,15.94H95.19V264.85z"/>
	<path d="M240.23,235.36c-36.46,0-65.15,26.5-65.15,65.15s28.69,65.15,65.15,65.15s65.15-26.5,65.15-65.15
		S276.69,235.36,240.23,235.36z M240.23,335.77c-18.53,0-30.28-13.95-30.28-35.26s11.75-35.26,30.28-35.26s30.28,13.95,30.28,35.26
		S258.76,335.77,240.23,335.77z"/>
	<polygon points="307.38,237.75 340.25,363.27 375.71,363.27 396.63,283.97 397.43,283.97 418.35,363.27 454.41,363.27 
		487.29,237.75 454.61,237.75 434.69,316.45 433.89,316.45 413.17,237.75 382.69,237.75 361.97,316.45 361.17,316.45 341.25,237.75 
			"/>
	<polygon points="595.67,335.38 530.12,335.38 530.12,313.66 579.34,313.66 579.34,286.16 530.12,286.16 530.12,265.64 
		593.88,265.64 593.88,237.75 496.85,237.75 496.85,363.27 595.67,363.27 	"/>
	<path d="M722.79,277.6c0-24.51-16.14-39.85-48.61-39.85h-63.36v125.52h33.27v-41.64h22.51c11.36,0,17.53,3.19,18.53,17.53
		c1,12.95,2.59,20.72,5.18,24.11h34.27c-4.18-4.58-4.78-10.16-6.58-28.89c-1.39-14.54-8.96-21.92-21.92-24.51
		C711.43,307.88,722.79,295.93,722.79,277.6z M668.2,295.53h-24.11v-30.68h24.11c14.34,0,21.52,5.38,21.52,15.54
		C689.71,291.94,682.54,295.53,668.2,295.53z"/>
	<polygon points="297.62,504.52 318.34,504.52 325.11,453.12 325.11,420.85 290.84,420.85 290.84,453.12 	"/>
	<rect x="290.84" y="512.09" width="34.27" height="34.27"/>
	<rect x="372.93" y="512.09" width="34.27" height="34.27"/>
	<polygon points="407.2,453.12 407.2,420.85 372.93,420.85 372.93,453.12 379.7,504.52 400.42,504.52 	"/>
	<rect x="455.01" y="512.09" width="34.27" height="34.27"/>
	<polygon points="489.28,453.12 489.28,420.85 455.01,420.85 455.01,453.12 461.79,504.52 482.51,504.52 	"/>
	<polygon points="265.16,599.8 266.5,594.6 266.58,594.6 267.92,599.8 271.2,599.8 274.07,590.74 276.93,599.8 280.21,599.8 
		281.55,594.6 281.63,594.6 282.97,599.8 286.25,599.8 289.11,590.74 291.98,599.8 295.25,599.8 296.59,594.6 296.68,594.6 
		298.02,599.8 301.29,599.8 304.2,590.6 301.19,590.6 299.54,595.82 299.46,595.82 298.12,590.6 295.46,590.6 294.12,595.82 
		294.04,595.82 292.39,590.6 289.15,590.6 289.07,590.6 286.14,590.6 284.5,595.82 284.41,595.82 283.07,590.6 280.41,590.6 
		279.07,595.82 278.99,595.82 277.34,590.6 274.11,590.6 274.02,590.6 271.1,590.6 269.45,595.82 269.37,595.82 268.03,590.6 
		265.37,590.6 264.03,595.82 263.95,595.82 262.3,590.6 258.98,590.6 261.88,599.8 	"/>
	<rect x="306.63" y="596.25" width="3.55" height="3.55"/>
	<path d="M319.7,589.68c2.02,0,2.8,1.34,3.01,2.78l3.36-0.12c-0.25-3.24-2.37-5.77-6.35-5.77c-3.79,0-6.66,2.74-6.66,6.74
		s2.87,6.74,6.66,6.74c3.98,0,6.1-2.51,6.35-5.75l-3.36-0.14c-0.21,1.44-0.99,2.78-3.01,2.78c-1.92,0-3.03-1.42-3.03-3.63
		S317.78,589.68,319.7,589.68z"/>
	<path d="M330.08,594.62c-2,0.35-3.28,1.11-3.28,2.89c0,1.57,1.17,2.49,2.97,2.49c1.46,0,2.51-0.56,3.05-1.63
		c0.31,1.05,1.2,1.63,2.33,1.63c0.95,0,1.61-0.27,2.08-0.6v-1.77c-0.27,0.1-0.47,0.14-0.74,0.14c-0.35,0-0.56-0.21-0.56-0.68v-3.13
		c0-2.56-1.79-3.61-4.23-3.61c-2.76,0-4.27,1.4-4.56,3.42l3.09,0.21c0.14-0.68,0.52-1.15,1.26-1.15c0.8,0,1.15,0.45,1.15,1.22v0.14
		L330.08,594.62z M332.66,595.96c0,1.2-0.76,1.9-1.71,1.9c-0.56,0-0.93-0.31-0.93-0.78c0-0.6,0.47-0.85,1.28-1.01l1.36-0.25V595.96z
		"/>
	<path d="M338.2,590.6v12.49h3.34v-4.86c0.45,1.07,1.48,1.81,3.03,1.81c2.7,0,4.08-2.12,4.08-4.84c0-2.7-1.38-4.84-4.08-4.84
		c-1.55,0-2.58,0.74-3.03,1.83v-1.59H338.2z M343.4,592.95c1.3,0,1.9,0.93,1.9,2.25c0,1.34-0.6,2.27-1.9,2.27
		c-1.13,0-1.86-0.87-1.86-2.21v-0.12C341.54,593.82,342.26,592.95,343.4,592.95z"/>
	<rect x="349.97" y="590.6" width="3.34" height="9.19"/>
	<rect x="349.95" y="586.81" width="3.38" height="2.93"/>
	<path d="M358.46,600.04c1.26,0,2.06-0.31,2.76-0.82v-2.16c-0.56,0.23-1.01,0.31-1.42,0.31c-0.68,0-1.05-0.31-1.05-1.09v-3.36h2.39
		v-2.31h-2.39v-2.54h-2.1l-0.31,1.2c-0.23,0.85-0.52,1.34-1.44,1.48l-0.68,0.1v2.06h1.24v4.33
		C355.46,599.41,356.92,600.04,358.46,600.04z"/>
	<path d="M365.25,594.62c-2,0.35-3.28,1.11-3.28,2.89c0,1.57,1.17,2.49,2.97,2.49c1.46,0,2.52-0.56,3.05-1.63
		c0.31,1.05,1.2,1.63,2.33,1.63c0.95,0,1.61-0.27,2.08-0.6v-1.77c-0.27,0.1-0.47,0.14-0.74,0.14c-0.35,0-0.56-0.21-0.56-0.68v-3.13
		c0-2.56-1.79-3.61-4.23-3.61c-2.76,0-4.27,1.4-4.56,3.42l3.09,0.21c0.14-0.68,0.52-1.15,1.26-1.15c0.8,0,1.15,0.45,1.15,1.22v0.14
		L365.25,594.62z M367.82,595.96c0,1.2-0.76,1.9-1.71,1.9c-0.56,0-0.93-0.31-0.93-0.78c0-0.6,0.47-0.85,1.28-1.01l1.36-0.25V595.96z
		"/>
	<rect x="373.37" y="586.81" width="3.34" height="12.99"/>
	<rect x="378.52" y="590.6" width="3.34" height="9.19"/>
	<rect x="378.5" y="586.81" width="3.38" height="2.93"/>
	<path d="M387.67,597.96c-1.01,0-1.63-0.43-1.75-1.2l-2.91,0.04c0.19,2.23,2.08,3.24,4.62,3.24c2.62,0,4.27-1.11,4.27-3.05
		c0-1.79-1.2-2.72-3.26-3.05l-1.79-0.31c-0.31-0.04-0.56-0.21-0.56-0.52c0-0.41,0.37-0.66,1.01-0.66c1.03,0,1.61,0.41,1.73,1.07
		l2.74-0.08c-0.19-1.92-1.75-3.09-4.41-3.09c-2.58,0-4.16,1.3-4.16,3.11c0,1.88,1.17,2.6,3.4,2.95l1.36,0.21
		c0.64,0.1,0.84,0.35,0.84,0.7C388.8,597.7,388.41,597.96,387.67,597.96z"/>
	<path d="M408.65,599.8v-5.77c0-1.92-0.74-3.67-3.28-3.67c-1.55,0-2.64,0.78-3.13,1.81c-0.39-1.07-1.24-1.81-2.87-1.81
		c-1.38,0-2.37,0.62-2.87,1.63v-1.38h-3.34v9.19h3.34v-4.51c0-1.38,0.39-2.29,1.48-2.29c1.01,0,1.26,0.66,1.26,1.92v4.89h3.34v-4.51
		c0-1.38,0.37-2.29,1.48-2.29c1.01,0,1.24,0.66,1.24,1.92v4.89H408.65z"/>
	<rect x="413.91" y="586.81" width="3.5" height="12.99"/>
	<path d="M423.3,597.96c-1.01,0-1.63-0.43-1.75-1.2l-2.91,0.04c0.19,2.23,2.08,3.24,4.62,3.24c2.62,0,4.27-1.11,4.27-3.05
		c0-1.79-1.2-2.72-3.26-3.05l-1.79-0.31c-0.31-0.04-0.56-0.21-0.56-0.52c0-0.41,0.37-0.66,1.01-0.66c1.03,0,1.61,0.41,1.73,1.07
		l2.74-0.08c-0.19-1.92-1.75-3.09-4.41-3.09c-2.58,0-4.16,1.3-4.16,3.11c0,1.88,1.17,2.6,3.4,2.95l1.36,0.21
		c0.64,0.1,0.84,0.35,0.84,0.7C424.44,597.7,424.05,597.96,423.3,597.96z"/>
	<path d="M431.36,599.8h3.52l0.97-2.51h5.07l0.97,2.51h3.73l-5.17-12.99h-3.92L431.36,599.8z M438.35,590.83h0.08l1.48,3.83h-3.05
		L438.35,590.83z"/>
	<polygon points="454.36,595.45 451.15,586.81 447.48,586.81 452.47,599.8 456.16,599.8 461.15,586.81 457.66,586.81 454.45,595.45 
			"/>
	<rect x="462.05" y="590.6" width="3.34" height="9.19"/>
	<rect x="462.03" y="586.81" width="3.38" height="2.93"/>
	<path d="M467.2,590.6v9.19h3.34v-4.21c0-1.55,0.76-2.12,2-2.12c0.64,0,1.13,0.12,1.59,0.39l0.21-3.15
		c-0.23-0.19-0.72-0.35-1.28-0.35c-1.22,0-2.18,0.85-2.51,1.88v-1.63H467.2z"/>
	<path d="M484.77,599.8v-9.19h-3.34v4.51c0,1.4-0.41,2.31-1.46,2.31c-1.01,0-1.36-0.68-1.36-1.92v-4.91h-3.34v5.79
		c0,1.92,0.76,3.65,3.28,3.65c1.38,0,2.39-0.6,2.89-1.63v1.38H484.77z"/>
	<path d="M490.58,597.96c-1.01,0-1.63-0.43-1.75-1.2l-2.91,0.04c0.19,2.23,2.08,3.24,4.62,3.24c2.62,0,4.27-1.11,4.27-3.05
		c0-1.79-1.2-2.72-3.26-3.05l-1.79-0.31c-0.31-0.04-0.56-0.21-0.56-0.52c0-0.41,0.37-0.66,1.01-0.66c1.03,0,1.61,0.41,1.73,1.07
		l2.74-0.08c-0.19-1.92-1.75-3.09-4.41-3.09c-2.58,0-4.16,1.3-4.16,3.11c0,1.88,1.17,2.6,3.4,2.95l1.36,0.21
		c0.64,0.1,0.84,0.35,0.84,0.7C491.71,597.7,491.32,597.96,490.58,597.96z"/>
	<rect x="497.64" y="596.25" width="3.55" height="3.55"/>
	<path d="M504.07,595.2c0,2.87,2.02,4.84,5.03,4.84c2.99,0,5.03-1.98,5.03-4.84c0-2.84-2.04-4.84-5.03-4.84
		C506.09,590.36,504.07,592.36,504.07,595.2z M510.77,595.2c0,1.38-0.52,2.33-1.67,2.33c-1.17,0-1.67-0.95-1.67-2.33
		s0.5-2.33,1.67-2.33C510.26,592.87,510.77,593.82,510.77,595.2z"/>
	<path d="M515.45,590.6v9.19h3.34v-4.21c0-1.55,0.76-2.12,2-2.12c0.64,0,1.13,0.12,1.59,0.39l0.21-3.15
		c-0.23-0.19-0.72-0.35-1.28-0.35c-1.22,0-2.19,0.85-2.52,1.88v-1.63H515.45z"/>
	<path d="M522.6,601.1c0,1.73,2.27,2.25,4.89,2.25c2.99,0,5.77-1.05,5.77-3.34c0-1.55-1.05-2.64-3.13-2.64h-3.81
		c-0.56,0-0.78-0.25-0.78-0.56c0-0.19,0.06-0.33,0.19-0.43c0.6,0.19,1.26,0.27,2,0.27c2.6,0,4.47-1.2,4.47-3.13
		c0-0.43-0.1-0.83-0.29-1.18c0.45-0.1,0.95-0.14,1.34-0.14v-2.52c-1.01,0-2.02,0.66-2.58,1.42c-0.78-0.47-1.83-0.74-2.95-0.74
		c-2.58,0-4.43,1.2-4.43,3.15c0,1.01,0.5,1.79,1.32,2.33c-0.99,0.37-1.57,1.05-1.57,1.94c0,0.78,0.49,1.53,1.32,1.79
		C523.33,599.65,522.6,600.29,522.6,601.1z M527.76,592.19c0.56,0,0.97,0.52,0.97,1.32c0,0.82-0.41,1.34-0.97,1.34
		s-0.97-0.52-0.97-1.34C526.79,592.71,527.2,592.19,527.76,592.19z M525.96,600.21h3.38c0.56,0,0.84,0.14,0.84,0.54
		c0,0.56-1.13,0.87-2.68,0.87c-1.24,0-2.16-0.19-2.16-0.85C525.35,600.42,525.59,600.21,525.96,600.21z"/>
	<path d="M300.03,16.64l-0.43,2.06h1.81l-0.8,3.42h2.49l0.8-3.42h1.77l-0.8,3.42h2.49l0.8-3.42h2.04l0.43-2.06h-1.98l0.5-2.02h1.88
		l0.43-2.06h-1.83l0.82-3.42h-2.49l-0.82,3.42h-1.77l0.83-3.42h-2.49l-0.83,3.42h-2.02l-0.43,2.06h1.98l-0.5,2.02H300.03z
		 M304.89,14.62h1.77l-0.5,2.02h-1.77L304.89,14.62z"/>
	<path d="M320.73,12c2.02,0,2.8,1.34,3.01,2.78l3.36-0.12c-0.25-3.24-2.37-5.77-6.35-5.77c-3.79,0-6.66,2.74-6.66,6.74
		s2.87,6.74,6.66,6.74c3.98,0,6.1-2.52,6.35-5.75l-3.36-0.14c-0.21,1.44-0.99,2.78-3.01,2.78c-1.92,0-3.03-1.42-3.03-3.63
		S318.81,12,320.73,12z"/>
	<path d="M332.74,12.68c-2.76,0-4.27,1.4-4.56,3.42l3.09,0.21c0.14-0.68,0.51-1.15,1.26-1.15c0.8,0,1.15,0.45,1.15,1.22v0.14
		l-2.58,0.43c-2,0.35-3.28,1.11-3.28,2.89c0,1.57,1.17,2.49,2.97,2.49c1.46,0,2.51-0.56,3.05-1.63c0.31,1.05,1.2,1.63,2.33,1.63
		c0.95,0,1.61-0.27,2.08-0.6v-1.77c-0.27,0.1-0.47,0.14-0.74,0.14c-0.35,0-0.56-0.21-0.56-0.68v-3.13
		C336.97,13.73,335.17,12.68,332.74,12.68z M333.69,18.29c0,1.2-0.76,1.9-1.71,1.9c-0.56,0-0.93-0.31-0.93-0.78
		c0-0.6,0.47-0.85,1.28-1.01l1.36-0.25V18.29z"/>
	<path d="M339.23,12.93v12.49h3.34v-4.87c0.45,1.07,1.48,1.81,3.03,1.81c2.7,0,4.08-2.12,4.08-4.84c0-2.7-1.38-4.84-4.08-4.84
		c-1.55,0-2.58,0.74-3.03,1.83v-1.59H339.23z M344.43,15.28c1.3,0,1.9,0.93,1.9,2.25c0,1.34-0.6,2.27-1.9,2.27
		c-1.13,0-1.86-0.87-1.86-2.21v-0.12C342.57,16.15,343.29,15.28,344.43,15.28z"/>
	<rect x="351" y="12.93" width="3.34" height="9.19"/>
	<rect x="350.98" y="9.14" width="3.38" height="2.93"/>
	<path d="M357.68,10.39l-0.31,1.2c-0.23,0.85-0.51,1.34-1.44,1.48l-0.68,0.1v2.06h1.24v4.33c0,2.16,1.46,2.8,3.01,2.8
		c1.26,0,2.06-0.31,2.76-0.82v-2.16c-0.56,0.23-1.01,0.31-1.42,0.31c-0.68,0-1.05-0.31-1.05-1.09v-3.36h2.39v-2.31h-2.39v-2.54
		H357.68z"/>
	<path d="M366.27,16.95c-2,0.35-3.28,1.11-3.28,2.89c0,1.57,1.18,2.49,2.97,2.49c1.46,0,2.51-0.56,3.05-1.63
		c0.31,1.05,1.2,1.63,2.33,1.63c0.95,0,1.61-0.27,2.08-0.6v-1.77c-0.27,0.1-0.47,0.14-0.74,0.14c-0.35,0-0.56-0.21-0.56-0.68v-3.13
		c0-2.56-1.79-3.61-4.23-3.61c-2.76,0-4.27,1.4-4.56,3.42l3.09,0.21c0.14-0.68,0.51-1.15,1.26-1.15c0.8,0,1.15,0.45,1.15,1.22v0.14
		L366.27,16.95z M368.85,18.29c0,1.2-0.76,1.9-1.71,1.9c-0.56,0-0.93-0.31-0.93-0.78c0-0.6,0.47-0.85,1.28-1.01l1.36-0.25V18.29z"/>
	<rect x="374.39" y="9.14" width="3.34" height="12.99"/>
	<rect x="379.55" y="12.93" width="3.34" height="9.19"/>
	<rect x="379.53" y="9.14" width="3.38" height="2.93"/>
	<path d="M388.7,20.29c-1.01,0-1.63-0.43-1.75-1.2l-2.91,0.04c0.19,2.23,2.08,3.24,4.62,3.24c2.62,0,4.27-1.11,4.27-3.05
		c0-1.79-1.2-2.72-3.26-3.05l-1.79-0.31c-0.31-0.04-0.56-0.21-0.56-0.52c0-0.41,0.37-0.66,1.01-0.66c1.03,0,1.61,0.41,1.73,1.07
		l2.74-0.08c-0.19-1.92-1.75-3.09-4.41-3.09c-2.58,0-4.16,1.3-4.16,3.11c0,1.88,1.18,2.6,3.4,2.95l1.36,0.21
		c0.64,0.1,0.85,0.35,0.85,0.7C389.83,20.02,389.44,20.29,388.7,20.29z"/>
	<path d="M409.68,22.12v-5.77c0-1.92-0.74-3.67-3.28-3.67c-1.55,0-2.64,0.78-3.13,1.81c-0.39-1.07-1.24-1.81-2.87-1.81
		c-1.38,0-2.37,0.62-2.87,1.63v-1.38h-3.34v9.19h3.34v-4.51c0-1.38,0.39-2.29,1.48-2.29c1.01,0,1.26,0.66,1.26,1.92v4.89h3.34v-4.51
		c0-1.38,0.37-2.29,1.48-2.29c1.01,0,1.24,0.66,1.24,1.92v4.89H409.68z"/>
	<rect x="413.27" y="9.14" width="3.5" height="12.99"/>
	<path d="M422.67,20.29c-1.01,0-1.63-0.43-1.75-1.2l-2.91,0.04c0.19,2.23,2.08,3.24,4.62,3.24c2.62,0,4.27-1.11,4.27-3.05
		c0-1.79-1.2-2.72-3.26-3.05l-1.79-0.31c-0.31-0.04-0.56-0.21-0.56-0.52c0-0.41,0.37-0.66,1.01-0.66c1.03,0,1.61,0.41,1.73,1.07
		l2.74-0.08c-0.19-1.92-1.75-3.09-4.41-3.09c-2.58,0-4.16,1.3-4.16,3.11c0,1.88,1.18,2.6,3.4,2.95l1.36,0.21
		c0.64,0.1,0.85,0.35,0.85,0.7C423.8,20.02,423.41,20.29,422.67,20.29z"/>
	<path d="M439.6,22.12h3.73l-5.17-12.99h-3.92l-5.17,12.99h3.52l0.97-2.52h5.07L439.6,22.12z M434.57,16.99l1.48-3.83h0.08
		l1.48,3.83H434.57z"/>
	<polygon points="458.8,9.14 455.31,9.14 452.1,17.77 452.01,17.77 448.8,9.14 445.13,9.14 450.12,22.12 453.81,22.12 	"/>
	<rect x="459.68" y="9.14" width="3.38" height="2.93"/>
	<rect x="459.7" y="12.93" width="3.34" height="9.19"/>
	<path d="M464.85,12.93v9.19h3.34v-4.21c0-1.55,0.76-2.12,2-2.12c0.64,0,1.13,0.12,1.59,0.39l0.21-3.15
		c-0.23-0.19-0.72-0.35-1.28-0.35c-1.22,0-2.19,0.85-2.52,1.88v-1.63H464.85z"/>
	<path d="M472.91,12.93v5.79c0,1.92,0.76,3.65,3.28,3.65c1.38,0,2.39-0.6,2.89-1.63v1.38h3.34v-9.19h-3.34v4.51
		c0,1.4-0.41,2.31-1.46,2.31c-1.01,0-1.36-0.68-1.36-1.92v-4.91H472.91z"/>
	<path d="M488.22,20.29c-1.01,0-1.63-0.43-1.75-1.2l-2.91,0.04c0.19,2.23,2.08,3.24,4.62,3.24c2.62,0,4.27-1.11,4.27-3.05
		c0-1.79-1.2-2.72-3.26-3.05l-1.79-0.31c-0.31-0.04-0.56-0.21-0.56-0.52c0-0.41,0.37-0.66,1.01-0.66c1.03,0,1.61,0.41,1.73,1.07
		l2.74-0.08c-0.19-1.92-1.75-3.09-4.41-3.09c-2.58,0-4.16,1.3-4.16,3.11c0,1.88,1.17,2.6,3.4,2.95l1.36,0.21
		c0.64,0.1,0.85,0.35,0.85,0.7C489.36,20.02,488.97,20.29,488.22,20.29z"/>
</g>
</svg>
