<?xml version="1.0" encoding="utf-8"?>
<!-- Generator: Adobe Illustrator 23.1.1, SVG Export Plug-In . SVG Version: 6.00 Build 0)  -->
<svg version="1.1" xmlns="http://www.w3.org/2000/svg" xmlns:xlink="http://www.w3.org/1999/xlink" x="0px" y="0px"
	 viewBox="0 0 792 612" style="enable-background:new 0 0 792 612;" xml:space="preserve">
<style type="text/css">
	.st0{display:none;}
	.st1{display:inline;}
	
		.st2{display:inline;fill:#FFFFFF;stroke:#000000;stroke-width:16;stroke-linecap:round;stroke-linejoin:round;stroke-miterlimit:10;}
	.st3{fill:#FFFFFF;stroke:#000000;stroke-width:16;stroke-linecap:round;stroke-linejoin:round;stroke-miterlimit:10;}
	.st4{display:inline;fill:none;stroke:#000000;stroke-width:24;stroke-linejoin:round;stroke-miterlimit:10;}
	.st5{display:inline;fill:#FFFFFF;}
	.st6{fill:#FFFFFF;stroke:#000000;stroke-width:17;stroke-linecap:round;stroke-miterlimit:10;}
	.st7{fill:#FFFFFF;stroke:#000000;stroke-width:17;stroke-miterlimit:10;}
	.st8{stroke:#000000;stroke-width:16.0572;stroke-linecap:round;stroke-miterlimit:10;}
	.st9{fill:#FFFFFF;}
	.st10{fill:#FFFFFF;stroke:#000000;stroke-width:17.1072;stroke-linecap:round;stroke-linejoin:round;stroke-miterlimit:10;}
	.st11{stroke:#000000;stroke-width:17.1072;stroke-linecap:round;stroke-linejoin:round;stroke-miterlimit:10;}
	.st12{fill:#FFFFFF;stroke:#000000;stroke-width:14.7375;stroke-linecap:round;stroke-linejoin:round;stroke-miterlimit:10;}
	.st13{fill:none;stroke:#000000;stroke-width:14.7375;stroke-linecap:round;stroke-linejoin:round;stroke-miterlimit:10;}
	.st14{stroke:#000000;stroke-width:14.7375;stroke-linecap:round;stroke-linejoin:round;stroke-miterlimit:10;}
	.st15{fill:#FFFFFF;stroke:#000000;stroke-width:14.2911;stroke-linecap:round;stroke-linejoin:round;stroke-miterlimit:10;}
	.st16{font-family:'FoundersGrotesk-Bold';}
	.st17{font-size:228.2166px;}
	.st18{fill:none;stroke:#000000;stroke-width:13.497;stroke-miterlimit:10;}
	.st19{fill:#FFFFFF;stroke:#000000;stroke-width:13.497;stroke-linecap:round;stroke-linejoin:round;stroke-miterlimit:10;}
	.st20{fill:#FFFFFF;stroke:#000000;stroke-width:13.497;stroke-miterlimit:10;}
	.st21{fill:#FFFFFF;stroke:#000000;stroke-width:14.7439;stroke-linecap:round;stroke-miterlimit:10;}
	.st22{fill:#FFFFFF;stroke:#000000;stroke-width:14.7439;stroke-miterlimit:10;}
	.st23{stroke:#000000;stroke-width:13.9262;stroke-linecap:round;stroke-miterlimit:10;}
	
		.st24{display:inline;fill:#FFFFFF;stroke:#000000;stroke-width:14.6942;stroke-linecap:round;stroke-linejoin:round;stroke-miterlimit:10;}
	.st25{fill:#FFFFFF;stroke:#000000;stroke-width:14.6942;stroke-linecap:round;stroke-linejoin:round;stroke-miterlimit:10;}
	.st26{fill:none;stroke:#000000;stroke-width:24;stroke-linejoin:round;stroke-miterlimit:10;}
	.st27{font-family:'FoundersGrotesk-Semibold';}
	.st28{font-size:124.9913px;}
	.st29{fill:none;stroke:#000000;stroke-width:30.5612;stroke-linecap:round;stroke-linejoin:round;stroke-miterlimit:10;}
	.st30{fill:#FFFFFF;stroke:#000000;stroke-width:16.2993;stroke-linecap:round;stroke-linejoin:round;stroke-miterlimit:10;}
	.st31{display:inline;fill:#FFFFFF;stroke:#000000;stroke-width:13.497;stroke-linecap:round;stroke-miterlimit:10;}
	
		.st32{display:inline;fill:none;stroke:#000000;stroke-width:13.497;stroke-linecap:round;stroke-linejoin:round;stroke-miterlimit:10;}
	
		.st33{display:inline;fill:#FFFFFF;stroke:#000000;stroke-width:13.497;stroke-linecap:round;stroke-linejoin:round;stroke-miterlimit:10;}
	
		.st34{display:inline;fill:url(#);stroke:#000000;stroke-width:13.497;stroke-linecap:round;stroke-linejoin:round;stroke-miterlimit:10;}
	.st35{fill:#FFFFFF;stroke:#000000;stroke-width:15.2362;stroke-linecap:round;stroke-linejoin:round;stroke-miterlimit:10;}
	.st36{fill:#FFFFFF;stroke:#000000;stroke-width:14.8467;stroke-linecap:round;stroke-linejoin:round;stroke-miterlimit:10;}
	.st37{stroke:#000000;stroke-width:20.1683;stroke-linecap:round;stroke-miterlimit:10;}
	.st38{fill:none;stroke:#000000;stroke-width:14.8467;stroke-linecap:round;stroke-linejoin:round;stroke-miterlimit:10;}
	.st39{fill:#FFFFFF;stroke:#FFFFFF;stroke-width:3;stroke-miterlimit:10;}
	.st40{display:inline;fill:none;stroke:#000000;stroke-width:15;stroke-linecap:round;stroke-linejoin:round;stroke-miterlimit:10;}
	
		.st41{display:inline;fill:#FFFFFF;stroke:#000000;stroke-width:15;stroke-linecap:round;stroke-linejoin:round;stroke-miterlimit:10;}
	.st42{fill:#FFFFFF;stroke:#000000;stroke-width:15;stroke-linecap:round;stroke-linejoin:round;stroke-miterlimit:10;}
	.st43{fill:#FFFFFF;stroke:#000000;stroke-width:11.7326;stroke-linecap:round;stroke-linejoin:round;stroke-miterlimit:10;}
	.st44{fill:#FFFFFF;stroke:#000000;stroke-width:13.2623;stroke-linecap:round;stroke-linejoin:round;stroke-miterlimit:10;}
	.st45{fill:none;stroke:#000000;stroke-width:16;stroke-linecap:round;stroke-miterlimit:10;}
	.st46{fill:url(#);stroke:#000000;stroke-width:16;stroke-linecap:round;stroke-linejoin:round;stroke-miterlimit:10;}
	.st47{fill:#FFFFFF;stroke:#000000;stroke-width:16;stroke-linecap:round;stroke-miterlimit:10;}
	.st48{fill:#FFFFFF;stroke:#000000;stroke-width:13.2623;stroke-linecap:round;stroke-miterlimit:10;}
	.st49{stroke:#000000;stroke-width:4.5213;stroke-miterlimit:10;}
	.st50{fill:none;stroke:#000000;stroke-width:15.2344;stroke-linecap:round;stroke-linejoin:round;stroke-miterlimit:10;}
	.st51{fill:#FFFFFF;stroke:#000000;stroke-width:15.2344;stroke-linecap:round;stroke-linejoin:round;stroke-miterlimit:10;}
	.st52{stroke:#000000;stroke-width:18.3348;stroke-linecap:round;stroke-miterlimit:10;}
	.st53{fill:none;stroke:#000000;stroke-width:13.497;stroke-linecap:round;stroke-linejoin:round;stroke-miterlimit:10;}
	.st54{font-size:20.6105px;}
	.st55{font-size:10.3052px;}
	.st56{font-size:19.2364px;}
	.st57{display:inline;fill:none;stroke:#000000;stroke-width:16;stroke-linecap:round;stroke-linejoin:round;stroke-miterlimit:10;}
	.st58{fill:#FFFFFF;stroke:#000000;stroke-width:13.3058;stroke-linecap:round;stroke-linejoin:round;stroke-miterlimit:10;}
	.st59{fill:#FFFFFF;stroke:#000000;stroke-width:17;stroke-linecap:round;stroke-linejoin:round;stroke-miterlimit:10;}
	.st60{fill:#FFFFFF;stroke:#000000;stroke-width:15.2517;stroke-linecap:round;stroke-linejoin:round;stroke-miterlimit:10;}
	.st61{stroke:#000000;stroke-width:3;stroke-miterlimit:10;}
	.st62{fill:#FFFFFF;stroke:#000000;stroke-width:16.0686;stroke-linecap:round;stroke-linejoin:round;stroke-miterlimit:10;}
	.st63{fill:#FFFFFF;stroke:#000000;stroke-width:15;stroke-linejoin:round;stroke-miterlimit:10;}
	.st64{fill:url(#);stroke:#000000;stroke-width:13.497;stroke-linecap:round;stroke-linejoin:round;stroke-miterlimit:10;}
	.st65{fill:#06A6FF;}
	.st66{fill:#FF0303;}
	.st67{fill:#3DFF06;}
	.st68{fill:#FFF808;}
	.st69{fill:none;stroke:#000000;stroke-width:0;stroke-linecap:round;stroke-linejoin:round;}
</style>
<g id="unexpanded" class="st0">
	<g class="st1">
		<text transform="matrix(1 0 0 1 7.5522 -241.6138)" class="st16 st17">Medical</text>
	</g>
	<g class="st1">
		<g>
			<g>
				<path class="st18" d="M599.61,441.54c31-30.33,98.76,10.68,66.47,33.33c-32.29,22.66-37.09-57.9-3.97-59.3
					c36.52-1.54,37.67,24.69,37.67,24.69"/>
			</g>
		</g>
		<path class="st19" d="M586.55,590.18c19.08-20.71,30.15-46.17,30.15-75.36c0-79.64-46.25-147.07-183.81-147.22
			c-52.87-0.06-98.71,20.18-123.43,40.91l-51.94-38.23l-6.19,68.11c-42.94,15.12-51.73,47.2-51.73,47.2l-38.33,0.26
			c0,0,0,12.29,0,34.01c0,21.72,17.41,27.35,40.74,28.96c9.44,15.74,22.98,29.18,39.79,41.35"/>
		<g>
			<text transform="matrix(1 0 0 1 379.2617 537.9836)" class="st27 st28">$</text>
		</g>
		<g>
			<g>
				<path class="st21" d="M773.89,207.98c-18.5,11.06-30.73,18.43-31.36,20.4c-17.88,55.95-54.86,84.96-54.86,84.96l-98.55-53.27
					l6.72-69.61l75.22-51.66c0,0,36.81-46.69,103.16-106.68"/>
				<g>
					<polygon class="st22" points="748.62,367.6 407.74,196.45 424.93,158.79 774.21,312.53 					"/>
					<path class="st23" d="M506.65,48.28c-62.43,15.89-85.14,38.22-108.66,88.84c-11.04,23.76-23.07,49.65-23.12,49.75
						c0,0,15.24,11.51,6.79,29.71c-8.46,18.2-22.41,30.48-22.41,30.48L417,273.89c0,0-7.01-17.59,2.9-38.91s33.91-11.43,33.91-11.43
						l23.12-49.75C476.93,173.8,450.59,127.2,506.65,48.28z"/>
					
						<rect x="340.82" y="243.42" transform="matrix(0.9069 0.4214 -0.4214 0.9069 146.447 -139.12)" class="st23" width="94.4" height="36.8"/>
				</g>
				<path class="st22" d="M669.99,357.66c-7.49,9.48-20.45,10.62-27.9,3.32c-7.48-7.31-7.91-19.01-1.81-26.74
					c12.11-15.43,21.88-32.51,29.02-50.69c3.65-9.1,13.98-14.52,24.07-11.73c10.06,2.77,15.57,14.45,11.12,25.64
					C695.99,319.05,684.38,339.34,669.99,357.66z"/>
				<path class="st22" d="M633.97,343.6c-7.46,9.32-20.35,10.38-27.82,3.08c-7.5-7.32-7.94-19.03-1.78-26.74
					c13.87-17.28,25-36.55,33.03-57.13c3.6-9.16,13.95-14.58,24.05-11.77c10.07,2.79,15.62,14.38,11.29,25.47
					C663.31,300.68,650.24,323.31,633.97,343.6z"/>
				<path class="st22" d="M599.17,327c-7.46,9.32-20.35,10.38-27.82,3.08c-7.5-7.31-7.94-19.03-1.78-26.74
					c13.84-17.25,24.95-36.49,32.97-57.03c3.59-9.16,13.95-14.57,24.05-11.77c10.07,2.79,15.62,14.38,11.29,25.47
					C628.46,284.15,615.42,306.74,599.17,327z"/>
				<path class="st22" d="M571.01,301.81c-7.46,9.32-20.35,10.38-27.82,3.08c-7.5-7.32-7.95-19.03-1.78-26.74
					c13.87-17.28,25-36.55,33.03-57.13c3.6-9.15,13.95-14.58,24.05-11.77c10.07,2.79,15.62,14.38,11.29,25.47
					C600.35,258.89,587.29,281.52,571.01,301.81z"/>
				<path class="st21" d="M671.05,138.8c-10.65,5.55-63.58,10.06-82.28,20.05c-14.78,7.89-35.73,25.09-48.75,37.63
					c-7.21,6.95-11.72,10.73-14.3,22.42c-2.07,9.38-10.48,33.61-10.52,46.54c-0.02,8.6,8.28,10.11,12.84,9.45
					c10.64-1.55,24.63-8.73,30.66-23.95c4.64-11.72,5.75-16.24,5.75-16.24c26.88-0.67,41.12-12.56,41.12-12.56
					s16.56,12.56,52.02,7.83"/>
			</g>
		</g>
	</g>
	<text transform="matrix(8.979319e-11 -1 1 8.979319e-11 26.8613 420.5785)" class="st1"><tspan x="0" y="0" class="st16 st54">www</tspan><tspan x="45.14" y="0" class="st16 st55"> </tspan><tspan x="46.99" y="0" class="st16 st54">.</tspan><tspan x="51.77" y="0" class="st16 st55"> </tspan><tspan x="53.63" y="0" class="st16 st54">Capitalism</tspan><tspan x="150.43" y="0" class="st16 st56"> </tspan><tspan x="153.9" y="0" class="st16 st54">Is</tspan><tspan x="168.88" y="0" class="st16 st56"> </tspan><tspan x="172.34" y="0" class="st16 st54">A</tspan><tspan x="186.6" y="0" class="st16 st55"> </tspan><tspan x="188.46" y="0" class="st16 st54">Virus</tspan><tspan x="236.15" y="0" class="st16 st55"> </tspan><tspan x="238.01" y="0" class="st16 st54">.</tspan><tspan x="242.79" y="0" class="st16 st55"> </tspan><tspan x="244.64" y="0" class="st16 st54">org</tspan></text>
</g>
<g id="expanded">
	<path d="M661.83,408.83c-9.93,0.42-18.12,6.17-23.31,16.08c-13.71-2.41-26.68-0.15-36.88,6.42c-5.76-9.1-12.64-17.4-20.66-24.87
		c-32.36-30.2-82.19-45.54-148.09-45.61c-0.08,0-0.16,0-0.24,0c-53.61,0-98,19.63-123.37,39.15l-47.77-35.15
		c-1.96-1.44-4.55-1.72-6.77-0.72c-2.22,1-3.73,3.12-3.95,5.54l-5.81,63.88c-32.92,12.97-45.82,35.39-50.09,45.32l-33.68,0.23
		c-3.71,0.03-6.7,3.04-6.7,6.75v34.01c0,12.57,5.02,21.93,14.92,27.82c6.84,4.07,15.76,6.45,28.64,7.6
		c9.33,14.53,22.37,27.76,39.76,40.35c1.2,0.87,2.58,1.28,3.95,1.28c2.09,0,4.15-0.97,5.47-2.79c0.87-1.2,1.28-2.58,1.28-3.96
		c0-2.09-0.96-4.15-2.78-5.47c-17.07-12.36-29.49-25.24-37.96-39.35c-1.13-1.89-3.12-3.11-5.32-3.26
		c-28.69-1.98-34.46-9.98-34.46-22.23v-27.31l31.63-0.22c3.02-0.02,5.66-2.05,6.46-4.96c0.08-0.29,8.31-28.83,47.46-42.62
		c2.49-0.88,4.24-3.12,4.48-5.75l5.11-56.19l42.31,31.14c2.51,1.84,5.95,1.74,8.34-0.26c21.65-18.16,65.74-39.33,118.87-39.33
		c0.07,0,0.15,0,0.21,0c62.38,0.07,109.11,14.19,138.89,41.99c25.33,23.63,38.18,56.77,38.18,98.48c0,26.54-9.54,50.36-28.37,70.78
		c-1.2,1.3-1.78,2.94-1.78,4.57c0,1.82,0.72,3.63,2.17,4.96c2.74,2.53,7.01,2.35,9.54-0.39c20.89-22.68,31.94-50.31,31.94-79.93
		c0-27.2-5.09-51.15-15.17-71.62c4.88-3.26,13.42-6.98,25.74-5.34c-3.32,16.08-0.44,36.22,10.8,44.33
		c2.25,1.62,5.85,3.47,10.62,3.47c4.04,0,8.92-1.33,14.51-5.25c11.37-7.98,11.88-17.46,11.17-22.4
		c-1.68-11.68-12.99-22.94-29.16-29.28c2.32-3.38,5.67-6.2,10.43-6.4c28.5-1.21,30.52,16.32,30.65,18.24l13.48-0.59
		C706.51,439.64,704.61,407.04,661.83,408.83z M667.76,459.91c0.18,1.24,0.72,5.03-5.56,9.44c-6.13,4.3-8.65,2.49-9.48,1.89
		c-4.98-3.6-8.14-17.04-5.64-29.93C658.29,445.74,666.82,453.31,667.76,459.91z"/>
	<path d="M426.51,491.61l-5.5-1v-17.75c6,1.75,10.25,6.5,10.62,13.5l16.62-0.5c-0.25-15.75-9.87-25.87-27.25-27.75v-10.12h-9.37
		v9.87c-17.12,1.12-27.62,10.37-27.62,24.87c0,13.37,8.75,20.37,21.25,22.5l6.37,1.12v18c-6.87-1.75-12.12-6.5-12.62-15l-17,0.62
		c0,17.12,12,27.37,29.62,29.12v11.5h9.37v-11.25c16.5-0.88,28.87-9.12,28.87-24.5C449.88,501.99,442.5,494.49,426.51,491.61z
		 M411.63,488.99c-5.87-1.12-9.87-2.87-9.87-7.87c0-5.37,3.5-8.25,9.87-8.87V488.99z M421.01,524.99v-17c6.75,1.12,11,3,11,8.12
		S427.76,524.36,421.01,524.99z"/>
	<path d="M724.42,282.56c8.91-13.25,17.96-30.06,24.64-50.41c3.73-2.96,17.44-11.16,28.62-17.84c3.49-2.09,4.63-6.62,2.54-10.11
		c-1.38-2.3-3.81-3.57-6.31-3.58c-1.29,0-2.6,0.32-3.8,1.04c-30.32,18.13-33.23,20.19-34.6,24.49
		c-6.58,20.59-15.92,37.43-24.89,50.35l-0.69-0.3c-3.23-5.64-8.48-9.78-14.6-11.47c-4.25-1.18-8.57-1.3-12.64-0.52l-1.62-0.71
		c-0.46-2.34-1.22-4.61-2.3-6.75c-3.15-6.29-8.75-10.96-15.36-12.79c-6-1.67-12.21-1.16-17.69,1.05c-0.45-1.64-1.05-3.23-1.81-4.76
		c-0.32-0.64-0.67-1.26-1.04-1.87c4.88-0.02,10.1-0.34,15.7-1.09c4.04-0.54,6.87-4.25,6.33-8.28c-0.54-4.04-4.25-6.87-8.28-6.33
		c-16.52,2.21-28.34,0.32-35.35-1.64c-7.5-2.1-11.23-4.75-11.23-4.75l-4.53-3.67l-4.61,3.85c-0.13,0.1-12.95,10.29-36.62,10.88
		l-5.6,0.17l-1.37,5.42c-0.01,0.04-1.14,4.44-5.45,15.31c-4.89,12.34-16.45,18.15-24.87,19.37c-1.46,0.21-3.35-0.14-4.06-0.75
		c-0.09-0.08-0.35-0.31-0.35-1.39c0.02-8.16,4.17-22.68,7.2-33.29c1.34-4.69,2.5-8.74,3.15-11.68c1.96-8.87,4.81-11.6,11.04-17.58
		l1.18-1.13c13.06-12.58,33.44-29.13,47.11-36.44c9.71-5.18,31.72-9.11,49.41-12.27c13.26-2.36,22.27-4.03,28.15-5.9l-0.23,1.56
		l6.56-4.51l0.59-0.74c0.01-0.01,0.01-0.01,0.02-0.02l0.09-0.12c0.35-0.45,35.32-44.53,97.35-101.26c1.64-1.5,3.29-3,4.96-4.51
		c3.02-2.73,3.25-7.39,0.52-10.41c-2.73-3.02-7.39-3.25-10.41-0.52c-59.63,53.92-96.05,97.77-102.83,106.13
		c-4.75,1.76-16.7,3.89-27.36,5.79c-19.69,3.51-42.01,7.49-53.77,13.78c-15.55,8.31-37.03,25.95-50.39,38.82l-1.15,1.11
		c-1.57,1.5-3.05,2.93-4.46,4.4l-45.93-20.22l1.38-2.97l-1.76-3.12c-0.24-0.43-23.56-43.61,29.33-118.06l10.98-15.46l-18.37,4.68
		c-67.71,17.24-90.47,43.61-113.26,92.65l-14.05,30.24c-5.26,11.33-9.05,19.47-9.07,19.53l-2.4,5.06l4.48,3.38
		c1.09,0.86,10.53,8.75,4.71,21.26c-1.91,4.12-4.15,7.93-6.43,11.33l-19.3-8.97l-21.41,45.98l98.24,45.64l21.41-45.98l-25.48-11.84
		c0.7-3.7,1.9-7.7,3.85-11.9c6.82-14.68,23.14-8.65,24.95-7.93l6.16,2.54l1.11-2.38l50.39,25.3c-0.61,3.6-0.98,7-0.99,9.97
		c-0.02,6.48,2.95,10.41,5.43,12.57c3.76,3.26,8.68,4.41,12.82,4.41c1.07,0,2.08-0.08,3.02-0.21c0.69-0.1,1.39-0.22,2.1-0.36
		c-3.19,9.69-0.81,20.88,6.84,28.34c4.53,4.42,10.73,6.89,17.2,6.89c0.52,0,1.04-0.02,1.55-0.05c0.41-0.02,0.81-0.06,1.22-0.11
		c0.31,6.78,3.06,13.46,8.18,18.46c4.53,4.42,10.72,6.89,17.2,6.89c0.52,0,1.04-0.02,1.56-0.05c3.09-0.19,6.11-0.93,8.95-2.16
		c1.28,4.41,3.64,8.55,7.09,11.92c4.53,4.42,10.73,6.89,17.2,6.89c0.52,0,1.04-0.02,1.56-0.05c3.69-0.23,7.29-1.24,10.59-2.92
		c1.35,3.83,3.55,7.41,6.59,10.37c4.49,4.4,10.65,6.85,17.09,6.85c0.54,0,1.08-0.02,1.62-0.05c7.75-0.49,15.09-4.44,20.13-10.81
		l0.01-0.02c4.28-5.45,8.32-11.07,12.11-16.85l64.2,32.24l31.96-68.78L724.42,282.56z M654.71,358.32
		c-2.89,0.19-5.55-0.74-7.47-2.62c-3.5-3.42-4.63-8.56-3.22-13.02c13.89-18.3,25.31-38.28,33.99-59.55
		c2.41-2.92,6.12-4.67,9.99-4.67c1.13,0,2.27,0.15,3.4,0.46c2.6,0.72,4.74,2.54,6.02,5.13c1.57,3.16,1.65,7.05,0.2,10.7
		c-8.25,20.97-19.49,40.6-33.42,58.34C661.75,356.19,658.29,358.1,654.71,358.32z M628.22,338.99L628.22,338.99
		c-2.42,3.02-5.83,4.87-9.36,5.09c-2.92,0.18-5.61-0.77-7.56-2.68c-3.99-3.89-4.91-9.94-2.54-14.7c1.94-2.54,3.83-5.11,5.68-7.71
		c12.34-16.4,22.36-34.36,29.82-53.48c1.88-4.79,6.69-7.83,11.79-7.83c1.14,0,2.29,0.15,3.42,0.47c2.64,0.73,4.81,2.57,6.12,5.18
		c1.56,3.12,1.66,6.95,0.27,10.51C656.69,297.36,644.03,319.28,628.22,338.99z M593.42,322.39L593.42,322.39
		c-2.42,3.02-5.83,4.87-9.37,5.09c-2.92,0.18-5.61-0.77-7.56-2.67c-4.44-4.33-5.07-11.34-1.6-16.27c0.65-0.67,1.28-1.37,1.87-2.11
		c15.45-19.26,28.05-40.52,37.54-63.26c2.03-1.27,4.42-1.98,6.88-1.98c1.14,0,2.29,0.15,3.42,0.47c2.64,0.73,4.81,2.57,6.12,5.18
		c1.56,3.12,1.66,6.95,0.27,10.51C621.84,280.83,609.2,302.71,593.42,322.39z M548.34,299.61c-4.61-4.5-5.13-11.9-1.18-16.84
		c10.28-12.81,19.09-26.66,26.32-41.32c13.21-1.54,23.01-5.5,29.18-8.77c-9.15,23.28-21.72,44.99-37.39,64.52l0,0
		c-2.42,3.02-5.83,4.87-9.36,5.08C552.96,302.46,550.29,301.52,548.34,299.61z M711.33,300.18c0.84-2.12,1.42-4.3,1.75-6.5
		l51.27,22.57l-19.21,41.35l-49.47-24.84C701.67,322.31,706.91,311.42,711.33,300.18z M477.16,189.83l43.85,19.3
		c-0.96,2.36-1.8,5.04-2.49,8.17c-0.55,2.5-1.65,6.35-2.93,10.81c-1.12,3.94-2.34,8.19-3.46,12.49l-47.48-23.84L477.16,189.83z"/>
	<polygon points="17.67,378.36 22.88,380 22.88,380.09 17.67,381.43 17.67,384.09 22.88,385.43 22.88,385.51 17.67,387.16 
		17.67,390.39 17.67,390.48 17.67,393.4 22.88,395.05 22.88,395.13 17.67,396.47 17.67,399.13 22.88,400.47 22.88,400.55 
		17.67,402.2 17.67,405.44 17.67,405.52 17.67,408.45 22.88,410.1 22.88,410.18 17.67,411.52 17.67,414.18 22.88,415.52 
		22.88,415.6 17.67,417.25 17.67,420.57 26.86,417.66 26.86,414.38 21.67,413.04 21.67,412.96 26.86,411.62 26.86,408.34 
		17.8,405.48 26.86,402.62 26.86,399.34 21.67,398 21.67,397.92 26.86,396.58 26.86,393.3 17.8,390.43 26.86,387.57 26.86,384.29 
		21.67,382.95 21.67,382.87 26.86,381.53 26.86,378.25 17.67,375.35 	"/>
	<rect x="23.32" y="369.37" width="3.55" height="3.55"/>
	<path d="M21.36,353.48l-0.14,3.36c1.44,0.21,2.78,0.99,2.78,3.01c0,1.92-1.42,3.03-3.63,3.03s-3.63-1.11-3.63-3.03
		c0-2.02,1.34-2.8,2.78-3.01l-0.12-3.36c-3.24,0.25-5.77,2.37-5.77,6.35c0,3.79,2.74,6.66,6.74,6.66s6.74-2.87,6.74-6.66
		C27.11,355.85,24.59,353.73,21.36,353.48z"/>
	<path d="M24.16,343.61h-3.13c-2.56,0-3.61,1.79-3.61,4.23c0,2.76,1.4,4.27,3.42,4.56l0.21-3.09c-0.68-0.14-1.15-0.52-1.15-1.26
		c0-0.8,0.45-1.15,1.22-1.15h0.14l0.43,2.58c0.35,2,1.11,3.28,2.89,3.28c1.57,0,2.49-1.17,2.49-2.97c0-1.46-0.56-2.52-1.63-3.05
		c1.05-0.31,1.63-1.2,1.63-2.33c0-0.95-0.27-1.61-0.6-2.08H24.7c0.1,0.27,0.14,0.47,0.14,0.74
		C24.84,343.4,24.63,343.61,24.16,343.61z M24.92,348.6c0,0.56-0.31,0.93-0.78,0.93c-0.6,0-0.85-0.47-1.01-1.28l-0.25-1.36h0.14
		C24.22,346.89,24.92,347.65,24.92,348.6z"/>
	<path d="M27.11,334.97c0-2.7-2.12-4.08-4.84-4.08c-2.7,0-4.84,1.38-4.84,4.08c0,1.55,0.74,2.58,1.83,3.03h-1.59v3.34h12.49V338
		h-4.86C26.37,337.55,27.11,336.52,27.11,334.97z M22.33,338H22.2c-1.32,0-2.18-0.72-2.18-1.86c0-1.3,0.93-1.9,2.25-1.9
		c1.34,0,2.27,0.6,2.27,1.9C24.53,337.28,23.67,338,22.33,338z"/>
	<rect x="17.67" y="326.23" width="9.19" height="3.34"/>
	<rect x="13.87" y="326.21" width="2.93" height="3.38"/>
	<path d="M26.28,318.32h-2.16c0.23,0.56,0.31,1.01,0.31,1.42c0,0.68-0.31,1.05-1.09,1.05h-3.36v-2.39h-2.31v2.39h-2.54v2.1l1.2,0.31
		c0.85,0.23,1.34,0.52,1.48,1.44l0.1,0.68h2.06v-1.24h4.33c2.16,0,2.8-1.46,2.8-3.01C27.11,319.82,26.8,319.02,26.28,318.32z"/>
	<path d="M24.16,308.45h-3.13c-2.56,0-3.61,1.79-3.61,4.23c0,2.76,1.4,4.27,3.42,4.56l0.21-3.09c-0.68-0.14-1.15-0.52-1.15-1.26
		c0-0.8,0.45-1.15,1.22-1.15h0.14l0.43,2.58c0.35,2,1.11,3.28,2.89,3.28c1.57,0,2.49-1.18,2.49-2.97c0-1.46-0.56-2.51-1.63-3.05
		c1.05-0.31,1.63-1.2,1.63-2.33c0-0.95-0.27-1.61-0.6-2.08H24.7c0.1,0.27,0.14,0.47,0.14,0.74
		C24.84,308.24,24.63,308.45,24.16,308.45z M24.92,313.44c0,0.56-0.31,0.93-0.78,0.93c-0.6,0-0.85-0.47-1.01-1.28l-0.25-1.36h0.14
		C24.22,311.72,24.92,312.49,24.92,313.44z"/>
	<rect x="13.87" y="302.84" width="12.99" height="3.34"/>
	<rect x="13.87" y="297.67" width="2.93" height="3.38"/>
	<rect x="17.67" y="297.69" width="9.19" height="3.34"/>
	<path d="M24.06,287.65c-1.79,0-2.72,1.2-3.05,3.26l-0.31,1.79c-0.04,0.31-0.21,0.56-0.52,0.56c-0.41,0-0.66-0.37-0.66-1.01
		c0-1.03,0.41-1.61,1.07-1.73l-0.08-2.74c-1.92,0.19-3.09,1.75-3.09,4.41c0,2.58,1.3,4.16,3.11,4.16c1.88,0,2.6-1.18,2.95-3.4
		l0.21-1.36c0.1-0.64,0.35-0.85,0.7-0.85c0.37,0,0.64,0.39,0.64,1.13c0,1.01-0.43,1.63-1.2,1.75l0.04,2.91
		c2.23-0.19,3.24-2.08,3.24-4.62C27.11,289.3,26,287.65,24.06,287.65z"/>
	<path d="M17.42,280.17c0,1.38,0.62,2.37,1.63,2.87h-1.38v3.34h9.19v-3.34h-4.51c-1.38,0-2.29-0.39-2.29-1.48
		c0-1.01,0.66-1.26,1.92-1.26h4.89v-3.34h-4.51c-1.38,0-2.29-0.37-2.29-1.48c0-1.01,0.66-1.24,1.92-1.24h4.89v-3.34h-5.77
		c-1.92,0-3.67,0.74-3.67,3.28c0,1.55,0.78,2.64,1.81,3.13C18.16,277.7,17.42,278.54,17.42,280.17z"/>
	<rect x="13.87" y="262.14" width="12.99" height="3.5"/>
	<path d="M23.83,257.99l0.04,2.91c2.23-0.19,3.24-2.08,3.24-4.62c0-2.62-1.11-4.27-3.05-4.27c-1.79,0-2.72,1.2-3.05,3.26l-0.31,1.79
		c-0.04,0.31-0.21,0.56-0.52,0.56c-0.41,0-0.66-0.37-0.66-1.01c0-1.03,0.41-1.61,1.07-1.73l-0.08-2.74
		c-1.92,0.19-3.09,1.75-3.09,4.41c0,2.58,1.3,4.16,3.11,4.16c1.88,0,2.6-1.18,2.95-3.4l0.21-1.36c0.1-0.64,0.35-0.85,0.7-0.85
		c0.37,0,0.64,0.39,0.64,1.13C25.03,257.25,24.59,257.87,23.83,257.99z"/>
	<path d="M26.86,244.66l-2.51-0.97v-5.07l2.51-0.97v-3.73l-12.99,5.17v3.92l12.99,5.17V244.66z M21.73,242.68l-3.83-1.48v-0.08
		l3.83-1.48V242.68z"/>
	<polygon points="26.86,223.39 13.87,218.4 13.87,221.88 22.51,225.1 22.51,225.18 13.87,228.4 13.87,232.07 26.86,227.08 	"/>
	<rect x="17.67" y="214.16" width="9.19" height="3.34"/>
	<rect x="13.87" y="214.14" width="2.93" height="3.38"/>
	<path d="M19.3,209h-1.63v3.34h9.19V209h-4.21c-1.55,0-2.12-0.76-2.12-2c0-0.64,0.12-1.13,0.39-1.59l-3.15-0.21
		c-0.19,0.23-0.35,0.72-0.35,1.28C17.42,207.7,18.27,208.67,19.3,209z"/>
	<path d="M22.57,200.94h-4.91v3.34h5.79c1.92,0,3.65-0.76,3.65-3.28c0-1.38-0.6-2.39-1.63-2.89h1.38v-3.34h-9.19v3.34h4.51
		c1.4,0,2.31,0.41,2.31,1.46C24.49,200.59,23.81,200.94,22.57,200.94z"/>
	<path d="M20.53,193.44c1.88,0,2.6-1.17,2.95-3.4l0.21-1.36c0.1-0.64,0.35-0.85,0.7-0.85c0.37,0,0.64,0.39,0.64,1.13
		c0,1.01-0.43,1.63-1.2,1.75l0.04,2.91c2.23-0.19,3.24-2.08,3.24-4.62c0-2.62-1.11-4.27-3.05-4.27c-1.79,0-2.72,1.2-3.05,3.26
		l-0.31,1.79c-0.04,0.31-0.21,0.56-0.52,0.56c-0.41,0-0.66-0.37-0.66-1.01c0-1.03,0.41-1.61,1.07-1.73l-0.08-2.74
		c-1.92,0.19-3.09,1.75-3.09,4.41C17.42,191.86,18.72,193.44,20.53,193.44z"/>
	<rect x="23.32" y="178.36" width="3.55" height="3.55"/>
	<path d="M22.26,175.47c2.87,0,4.84-2.02,4.84-5.03c0-2.99-1.98-5.03-4.84-5.03c-2.84,0-4.84,2.04-4.84,5.03
		C17.42,173.45,19.42,175.47,22.26,175.47z M22.26,168.77c1.38,0,2.33,0.52,2.33,1.67c0,1.18-0.95,1.67-2.33,1.67
		s-2.33-0.49-2.33-1.67C19.93,169.29,20.88,168.77,22.26,168.77z"/>
	<path d="M17.77,156.96c-0.19,0.23-0.35,0.72-0.35,1.28c0,1.22,0.85,2.18,1.88,2.51h-1.63v3.34h9.19v-3.34h-4.21
		c-1.55,0-2.12-0.76-2.12-2c0-0.64,0.12-1.13,0.39-1.59L17.77,156.96z"/>
	<path d="M27.07,146.29c-1.55,0-2.64,1.05-2.64,3.13v3.81c0,0.56-0.25,0.78-0.56,0.78c-0.19,0-0.33-0.06-0.43-0.19
		c0.19-0.6,0.27-1.26,0.27-2c0-2.6-1.2-4.47-3.13-4.47c-0.43,0-0.83,0.1-1.18,0.29c-0.1-0.45-0.14-0.95-0.14-1.34h-2.52
		c0,1.01,0.66,2.02,1.42,2.58c-0.47,0.78-0.74,1.83-0.74,2.95c0,2.58,1.2,4.43,3.15,4.43c1.01,0,1.79-0.5,2.33-1.32
		c0.37,0.99,1.05,1.57,1.94,1.57c0.78,0,1.53-0.5,1.79-1.32c0.08,1.03,0.72,1.75,1.53,1.75c1.73,0,2.25-2.27,2.25-4.89
		C30.41,149.07,29.36,146.29,27.07,146.29z M20.57,152.76c-0.8,0-1.32-0.41-1.32-0.97s0.52-0.97,1.32-0.97
		c0.82,0,1.34,0.41,1.34,0.97S21.4,152.76,20.57,152.76z M27.83,154.2c-0.35,0-0.56-0.25-0.56-0.62v-3.38
		c0-0.56,0.14-0.85,0.54-0.85c0.56,0,0.87,1.13,0.87,2.68C28.68,153.27,28.49,154.2,27.83,154.2z"/>
</g>
</svg>
