<?xml version="1.0" encoding="utf-8"?>
<!-- Generator: Adobe Illustrator 23.1.1, SVG Export Plug-In . SVG Version: 6.00 Build 0)  -->
<svg version="1.1" xmlns="http://www.w3.org/2000/svg" xmlns:xlink="http://www.w3.org/1999/xlink" x="0px" y="0px"
	 viewBox="0 0 792 612" style="enable-background:new 0 0 792 612;" xml:space="preserve">
<style type="text/css">
	.st0{display:none;}
	.st1{display:inline;}
	
		.st2{display:inline;fill:#FFFFFF;stroke:#000000;stroke-width:16;stroke-linecap:round;stroke-linejoin:round;stroke-miterlimit:10;}
	.st3{fill:#FFFFFF;stroke:#000000;stroke-width:16;stroke-linecap:round;stroke-linejoin:round;stroke-miterlimit:10;}
	.st4{display:inline;fill:none;stroke:#000000;stroke-width:24;stroke-linejoin:round;stroke-miterlimit:10;}
	.st5{display:inline;fill:#FFFFFF;}
	.st6{fill:#FFFFFF;stroke:#000000;stroke-width:17;stroke-linecap:round;stroke-miterlimit:10;}
	.st7{fill:#FFFFFF;stroke:#000000;stroke-width:17;stroke-miterlimit:10;}
	.st8{stroke:#000000;stroke-width:16.0572;stroke-linecap:round;stroke-miterlimit:10;}
	.st9{fill:#FFFFFF;}
	.st10{fill:#FFFFFF;stroke:#000000;stroke-width:17.1072;stroke-linecap:round;stroke-linejoin:round;stroke-miterlimit:10;}
	.st11{stroke:#000000;stroke-width:17.1072;stroke-linecap:round;stroke-linejoin:round;stroke-miterlimit:10;}
	.st12{fill:#FFFFFF;stroke:#000000;stroke-width:14.7375;stroke-linecap:round;stroke-linejoin:round;stroke-miterlimit:10;}
	.st13{fill:none;stroke:#000000;stroke-width:14.7375;stroke-linecap:round;stroke-linejoin:round;stroke-miterlimit:10;}
	.st14{stroke:#000000;stroke-width:14.7375;stroke-linecap:round;stroke-linejoin:round;stroke-miterlimit:10;}
	.st15{fill:#FFFFFF;stroke:#000000;stroke-width:14.2911;stroke-linecap:round;stroke-linejoin:round;stroke-miterlimit:10;}
	.st16{fill:none;stroke:#000000;stroke-width:13.497;stroke-miterlimit:10;}
	.st17{fill:#FFFFFF;stroke:#000000;stroke-width:13.497;stroke-linecap:round;stroke-linejoin:round;stroke-miterlimit:10;}
	.st18{fill:#FFFFFF;stroke:#000000;stroke-width:13.497;stroke-miterlimit:10;}
	.st19{fill:#FFFFFF;stroke:#000000;stroke-width:14.7439;stroke-linecap:round;stroke-miterlimit:10;}
	.st20{fill:#FFFFFF;stroke:#000000;stroke-width:14.7439;stroke-miterlimit:10;}
	.st21{stroke:#000000;stroke-width:13.9262;stroke-linecap:round;stroke-miterlimit:10;}
	
		.st22{display:inline;fill:#FFFFFF;stroke:#000000;stroke-width:14.6942;stroke-linecap:round;stroke-linejoin:round;stroke-miterlimit:10;}
	.st23{fill:#FFFFFF;stroke:#000000;stroke-width:14.6942;stroke-linecap:round;stroke-linejoin:round;stroke-miterlimit:10;}
	.st24{fill:none;stroke:#000000;stroke-width:24;stroke-linejoin:round;stroke-miterlimit:10;}
	.st25{fill:none;stroke:#000000;stroke-width:30.5612;stroke-linecap:round;stroke-linejoin:round;stroke-miterlimit:10;}
	.st26{fill:#FFFFFF;stroke:#000000;stroke-width:16.2993;stroke-linecap:round;stroke-linejoin:round;stroke-miterlimit:10;}
	.st27{display:inline;fill:#FFFFFF;stroke:#000000;stroke-width:13.497;stroke-linecap:round;stroke-miterlimit:10;}
	
		.st28{display:inline;fill:none;stroke:#000000;stroke-width:13.497;stroke-linecap:round;stroke-linejoin:round;stroke-miterlimit:10;}
	
		.st29{display:inline;fill:#FFFFFF;stroke:#000000;stroke-width:13.497;stroke-linecap:round;stroke-linejoin:round;stroke-miterlimit:10;}
	
		.st30{display:inline;fill:url(#);stroke:#000000;stroke-width:13.497;stroke-linecap:round;stroke-linejoin:round;stroke-miterlimit:10;}
	.st31{fill:#FFFFFF;stroke:#000000;stroke-width:15.2362;stroke-linecap:round;stroke-linejoin:round;stroke-miterlimit:10;}
	.st32{fill:#FFFFFF;stroke:#000000;stroke-width:14.8467;stroke-linecap:round;stroke-linejoin:round;stroke-miterlimit:10;}
	.st33{stroke:#000000;stroke-width:20.1683;stroke-linecap:round;stroke-miterlimit:10;}
	.st34{fill:none;stroke:#000000;stroke-width:14.8467;stroke-linecap:round;stroke-linejoin:round;stroke-miterlimit:10;}
	.st35{fill:#FFFFFF;stroke:#FFFFFF;stroke-width:3;stroke-miterlimit:10;}
	.st36{display:inline;fill:none;stroke:#000000;stroke-width:15;stroke-linecap:round;stroke-linejoin:round;stroke-miterlimit:10;}
	
		.st37{display:inline;fill:#FFFFFF;stroke:#000000;stroke-width:15;stroke-linecap:round;stroke-linejoin:round;stroke-miterlimit:10;}
	.st38{fill:#FFFFFF;stroke:#000000;stroke-width:15;stroke-linecap:round;stroke-linejoin:round;stroke-miterlimit:10;}
	.st39{fill:#FFFFFF;stroke:#000000;stroke-width:11.7326;stroke-linecap:round;stroke-linejoin:round;stroke-miterlimit:10;}
	.st40{fill:#FFFFFF;stroke:#000000;stroke-width:13.2623;stroke-linecap:round;stroke-linejoin:round;stroke-miterlimit:10;}
	.st41{fill:none;stroke:#000000;stroke-width:16;stroke-linecap:round;stroke-miterlimit:10;}
	.st42{fill:url(#);stroke:#000000;stroke-width:16;stroke-linecap:round;stroke-linejoin:round;stroke-miterlimit:10;}
	.st43{fill:#FFFFFF;stroke:#000000;stroke-width:16;stroke-linecap:round;stroke-miterlimit:10;}
	.st44{fill:#FFFFFF;stroke:#000000;stroke-width:13.2623;stroke-linecap:round;stroke-miterlimit:10;}
	.st45{stroke:#000000;stroke-width:4.5213;stroke-miterlimit:10;}
	.st46{fill:none;stroke:#000000;stroke-width:15.2344;stroke-linecap:round;stroke-linejoin:round;stroke-miterlimit:10;}
	.st47{fill:#FFFFFF;stroke:#000000;stroke-width:15.2344;stroke-linecap:round;stroke-linejoin:round;stroke-miterlimit:10;}
	.st48{stroke:#000000;stroke-width:18.3348;stroke-linecap:round;stroke-miterlimit:10;}
	.st49{fill:none;stroke:#000000;stroke-width:13.497;stroke-linecap:round;stroke-linejoin:round;stroke-miterlimit:10;}
	.st50{display:inline;fill:none;stroke:#000000;stroke-width:16;stroke-linecap:round;stroke-linejoin:round;stroke-miterlimit:10;}
	.st51{fill:#FFFFFF;stroke:#000000;stroke-width:13.3058;stroke-linecap:round;stroke-linejoin:round;stroke-miterlimit:10;}
	.st52{font-family:'FoundersGrotesk-Bold';}
	.st53{font-size:20.6105px;}
	.st54{font-size:10.3052px;}
	.st55{font-size:19.2364px;}
	.st56{font-size:10px;}
	.st57{fill:#FFFFFF;stroke:#000000;stroke-width:17;stroke-linecap:round;stroke-linejoin:round;stroke-miterlimit:10;}
	.st58{fill:#FFFFFF;stroke:#000000;stroke-width:15.2517;stroke-linecap:round;stroke-linejoin:round;stroke-miterlimit:10;}
	.st59{stroke:#000000;stroke-width:3;stroke-miterlimit:10;}
	.st60{fill:#FFFFFF;stroke:#000000;stroke-width:16.0686;stroke-linecap:round;stroke-linejoin:round;stroke-miterlimit:10;}
	.st61{fill:#FFFFFF;stroke:#000000;stroke-width:15;stroke-linejoin:round;stroke-miterlimit:10;}
	.st62{fill:url(#);stroke:#000000;stroke-width:13.497;stroke-linecap:round;stroke-linejoin:round;stroke-miterlimit:10;}
	.st63{fill:#06A6FF;}
	.st64{fill:#FF0303;}
	.st65{fill:#3DFF06;}
	.st66{fill:#FFF808;}
	.st67{fill:none;stroke:#000000;stroke-width:0;stroke-linecap:round;stroke-linejoin:round;}
</style>
<g id="unexpanded" class="st0">
	<g class="st1">
		<g>
			<g>
				<path class="st51" d="M270.34,316.2c-10.61-61-30.67-122.53-30.67-122.53c-3.35-11.08,2.91-22.78,13.99-26.14
					c11.08-3.35,22.78,2.91,26.14,13.99c0,0,24.9,80.51,24.46,77.98c-0.44-2.53,2.83,4.24,5.36,3.82l5.29-0.87
					c2.38-0.39,4.07-2.52,3.91-4.93l-15.47-127.3c-1.43-11.75,6.49-22.88,18.18-24.73c12.28-1.94,23.62,6.69,25.11,18.92
					l15.45,125.72c0.17,2.45,2.19,4.35,4.65,4.36l4.78,0.02c2.49,0.01,4.56-1.94,4.69-4.43c3.31-63.35,10.19-138.45,10.19-138.45
					c0.63-12.04,10.91-21.3,22.95-20.66s21.3,10.91,20.66,22.95c0,0-5.1,74.13-8.34,137.47c-0.12,2.43,1.64,4.55,4.06,4.87l0,0
					c2.43,0.32,3.39-2.02,5.19-3.68c6.09-5.65,36.42-121.71,36.42-121.71c3.31-11.36,15.39-17.78,26.72-14.03
					c10.79,3.57,16.57,15.34,13.39,26.25l-38.7,137.32"/>
				<path class="st51" d="M311.82,586.08c-1-17.13,0.62-110.18,1.16-139.25c0.1-5.56-2.18-10.89-6.27-14.66
					c-0.89-0.82-1.72-1.58-2.39-2.18c-13.29-11.97-21.01-23.52-25.67-49.27c-7.32-40.44-8.22-64.52-8.22-64.52"/>
				<path class="st51" d="M459.15,392.93c10.57-40.7,9.6-112.5,9.6-112.5"/>
				<path class="st51" d="M430.03,336.2c22.93-24.07,56.34-23.93,56.34-23.93s27.5-23.86,49.47-38.72
					c15.68-10.6,35.65-0.24,39.33,11.84c2.01,6.61-11.04,18.26-11.04,18.26s-19.64,39.13-39.74,65.55
					c-13.16,17.3-57.96,48.09-76.8,61.18c-6.73,4.68,2.42,74.98,3.55,155.68"/>
			</g>
			<g>
				<path class="st9" d="M245.69,201.04c-2.8,0-5.39-1.78-6.31-4.55c-1.09-3.29-4.07-15.11-6.77-25.93
					c-0.31-1.22-0.56-2.24-0.74-2.97c-5.04-2.64-8.11-5.99-10.88-11.86c-3.26-6.9-4.98-11.73-5.54-13.4
					c-5.46-11.74-11.12-24.74-11.56-25.76c-2.54-5.6-0.09-12.24,5.5-14.84c1.24-0.58,2.54-0.92,3.88-1.02l-0.27-0.78
					c-2.03-5.91,0.91-12.28,6.68-14.49c1.32-0.5,2.69-0.76,4.1-0.76c1.5,0,2.94,0.29,4.27,0.83c1.39-3.37,4.36-6.03,8.18-6.84
					c0.79-0.17,1.59-0.25,2.4-0.25c3.13,0,6.04,1.3,8.14,3.44c2.05-2.21,4.96-3.52,7.98-3.6l0.26,0c5.94,0,10.87,4.69,11.23,10.68
					l1.5,25.39c0.76-0.97,1.56-1.97,2.39-2.97c2.31-2.78,5.75-4.37,9.42-4.37c4.23,0,8.28,2.11,10.32,5.37
					c2.63,4.21,0.5,8.14-0.3,9.62c-0.21,0.39-0.39,0.72-0.54,1.06c-1.53,3.5-5.15,11.58-5.15,11.58c-0.04,0.09-0.08,0.17-0.12,0.26
					c-0.01,0.03-1.76,3.57-3.86,9.57c-1.2,3.45-4.32,8.13-7.32,11.16c0.45,1.5,0.97,3.14,1.57,5.06c1.68,5.35,3.97,12.68,7.2,24.02
					c0.49,1.71,0.27,3.55-0.61,5.1s-2.34,2.68-4.06,3.15l-29.27,7.88C246.84,200.97,246.26,201.04,245.69,201.04z"/>
				<path d="M255,84.9c2.44,0,4.44,1.98,4.58,4.43l1.66,28.03l2.19,10.47c2.01-0.99,3.56-1.22,3.56-1.22s3.73-5.56,8.25-11
					c1.17-1.4,2.76-1.97,4.31-1.97c1.97,0,3.86,0.92,4.68,2.24c0.8,1.28-0.36,2.36-1.29,4.49c-1.52,3.48-5.12,11.53-5.12,11.53
					s-1.9,3.8-4.19,10.36c-1.04,2.98-4.48,7.74-6.8,9.62c-1.11,0.91-1.57,2.39-1.17,3.77c1.77,6.07,4.48,13.89,9.31,30.87
					l-29.27,7.88c-1.41-4.23-7-27.03-7.65-29.5c-0.57-2.2-1.33-2.29-2.82-3.05c-3.49-1.77-5.78-3.77-8.23-8.95
					c-3.85-8.13-5.41-13.16-5.41-13.16l-0.02,0.01c-5.71-12.28-11.61-25.87-11.61-25.87c-1.07-2.3-0.07-5.03,2.23-6.09
					c0.63-0.29,1.28-0.43,1.93-0.43c1.73,0,3.39,0.98,4.16,2.65c0,0,1.85,4.24,7.23,15.83c0.17,0.37,0.54,0.59,0.93,0.59
					c0.14,0,0.28-0.03,0.42-0.09l1.07-0.48c0.48-0.22,0.72-0.77,0.55-1.26l-9.19-26.8c-0.84-2.45,0.35-5.19,2.77-6.12
					c0.57-0.22,1.15-0.32,1.71-0.32c1.98,0,3.84,1.25,4.52,3.23l8.92,25.98c0.14,0.42,0.54,0.69,0.97,0.69
					c0.09,0,0.18-0.01,0.26-0.03l1.01-0.27c0.53-0.14,0.85-0.67,0.74-1.2c-2.91-13.57-6.24-28.89-6.24-28.89
					c-0.55-2.58,1.09-5.12,3.67-5.67c0.34-0.07,0.67-0.11,1-0.11c2.21,0,4.19,1.54,4.67,3.78c0,0,3.66,15.01,6.58,28.58
					c0.1,0.48,0.52,0.81,1,0.81c0.04,0,0.09,0,0.14-0.01c0.53-0.07,0.92-0.54,0.89-1.07c-0.78-13.26-1.46-27.39-1.46-27.39
					c-0.15-2.58,1.86-4.8,4.48-4.86C254.93,84.9,254.96,84.9,255,84.9 M255,71.59C255,71.59,255,71.59,255,71.59
					c-0.14,0-0.28,0-0.43,0c-2.78,0.07-5.49,0.79-7.92,2.07c-2.44-1.23-5.18-1.91-8.04-1.91c-1.27,0-2.54,0.13-3.79,0.4
					c-3.92,0.84-7.38,2.9-9.94,5.9c-0.37-0.02-0.74-0.03-1.12-0.03c-2.22,0-4.4,0.4-6.48,1.2c-7.2,2.76-11.61,9.58-11.6,16.91
					c-3.9,2.07-6.85,5.47-8.38,9.65c-1.61,4.42-1.44,9.2,0.49,13.48c0.6,1.39,6.02,13.83,11.45,25.53
					c0.73,2.13,2.51,7.01,5.72,13.78c2.91,6.15,6.26,10.22,11.12,13.35c0.02,0.08,0.04,0.15,0.06,0.23
					c3.49,13.97,5.86,23.26,6.91,26.43c1.85,5.55,7.02,9.11,12.62,9.11c1.15,0,2.31-0.15,3.47-0.46l29.27-7.88
					c3.44-0.93,6.36-3.19,8.12-6.29c1.76-3.1,2.19-6.77,1.22-10.2c-3.25-11.43-5.56-18.81-7.25-24.19
					c-0.16-0.52-0.32-1.01-0.47-1.49c2.66-3.34,5-7.27,6.15-10.55c1.93-5.53,3.53-8.79,3.55-8.82c0.09-0.17,0.15-0.31,0.23-0.48
					c0.15-0.33,3.64-8.14,5.17-11.64c0.04-0.09,0.18-0.35,0.29-0.55c0.55-1.02,1.38-2.55,1.91-4.63c1.02-4.03,0.38-8.18-1.82-11.69
					c-3.27-5.24-9.39-8.49-15.96-8.49c-2.04,0-4.04,0.32-5.93,0.94l-0.75-12.72C272.3,79.04,264.46,71.59,255,71.59L255,71.59z"/>
			</g>
			<g>
				<path class="st9" d="M312.79,143.5c-3.28,0-6.1-2.41-6.58-5.71c-0.49-3.43-1.32-15.6-2.05-26.74c-0.08-1.25-0.15-2.29-0.2-3.04
					c-4.49-3.49-6.91-7.34-8.6-13.6c-1.99-7.36-2.82-12.43-3.07-14.17c-3.28-12.52-6.54-26.32-6.8-27.4
					c-1.51-5.96,2.08-12.06,8.04-13.63c0.94-0.25,1.9-0.37,2.86-0.37c0.38,0,0.77,0.02,1.14,0.06l-0.12-0.82
					c-0.94-6.18,3.07-11.92,9.15-13.07c0.71-0.13,1.43-0.2,2.14-0.2c2.23,0,4.32,0.63,6.09,1.73c0.38-0.58,0.81-1.14,1.29-1.66
					c2.09-2.23,4.92-3.51,7.97-3.6c0.12,0,0.25-0.01,0.37-0.01c3.94,0,7.41,1.96,9.46,4.99c1.88-1.41,4.22-2.23,6.72-2.23
					c0.58,0,1.17,0.05,1.75,0.14c6.01,0.94,10.14,6.45,9.41,12.55l-3.03,25.25c0.92-0.82,1.89-1.66,2.88-2.5
					c2.21-1.85,4.9-2.83,7.79-2.83c5.03,0,9.74,3.01,11.46,7.32c1.84,4.61-0.95,8.1-2,9.41c-0.28,0.34-0.51,0.64-0.72,0.95
					C366,77.48,361,84.79,361,84.79c-0.05,0.08-0.11,0.16-0.17,0.23c-0.02,0.02-2.37,3.2-5.5,8.74c-1.77,3.12-5.73,7.23-9.19,9.68
					c0.18,1.55,0.4,3.26,0.65,5.27c0.7,5.56,1.66,13.18,2.82,24.92c0.18,1.77-0.37,3.54-1.51,4.91c-1.14,1.37-2.78,2.22-4.55,2.37
					l-30.2,2.56C313.17,143.49,312.98,143.5,312.79,143.5z"/>
				<path d="M324.4,27.92c2.57,0,4.69,2.04,4.77,4.62c0,0,0.93,15.42,1.39,29.29c0.02,0.53,0.44,0.96,0.97,0.99
					c0.02,0,0.03,0,0.05,0c0.52,0,0.95-0.38,1.02-0.9c1.59-13.19,3.43-27.21,3.43-27.21c0.28-2.33,2.26-4.04,4.55-4.04
					c0.24,0,0.48,0.02,0.72,0.06c2.46,0.38,4.13,2.72,3.83,5.19l-3.34,27.88l0.29,10.69c1.86-0.53,3.28-0.57,3.64-0.57
					c0.06,0,0.09,0,0.09,0s4.66-4.81,10.07-9.36c1.07-0.9,2.31-1.27,3.51-1.27c2.36,0,4.6,1.43,5.28,3.13
					c0.56,1.4-0.77,2.25-2.07,4.19c-2.12,3.16-7.09,10.43-7.09,10.43s-2.55,3.4-5.97,9.45c-1.55,2.74-5.79,6.82-8.4,8.26
					c-1.26,0.69-1.97,2.07-1.82,3.5c0.67,6.29,1.94,14.46,3.67,32.04l-30.2,2.56c-0.63-4.42-2.09-27.84-2.28-30.39
					c-0.17-2.27-0.9-2.49-2.23-3.5c-3.12-2.37-5.02-4.74-6.51-10.27c-2.34-8.68-2.98-13.92-2.98-13.92l-0.02,0
					c-3.44-13.1-6.83-27.52-6.83-27.52c-0.64-2.45,0.82-4.96,3.27-5.6c0.39-0.1,0.78-0.15,1.17-0.15c2.03,0,3.89,1.36,4.43,3.42
					c0,0,1.07,4.5,4.31,16.86c0.12,0.46,0.54,0.77,0.99,0.77c0.08,0,0.17-0.01,0.25-0.03l1.14-0.29c0.51-0.13,0.84-0.63,0.76-1.15
					l-4.29-28c-0.39-2.56,1.27-5.05,3.81-5.53c0.3-0.06,0.6-0.08,0.9-0.08c2.32,0,4.36,1.69,4.72,4.06l4.16,27.15
					c0.08,0.5,0.51,0.87,1.01,0.87c0.03,0,0.06,0,0.08,0l1.04-0.08c0.54-0.04,0.96-0.51,0.94-1.05
					c-0.45-13.87-1.01-29.54-1.01-29.54c-0.08-2.64,1.98-4.84,4.62-4.93C324.3,27.92,324.35,27.92,324.4,27.92 M324.4,14.62
					C324.4,14.62,324.4,14.62,324.4,14.62c-0.19,0-0.39,0-0.58,0.01c-4,0.13-7.77,1.54-10.82,4.03c-1.38-0.33-2.83-0.51-4.31-0.51
					c-1.13,0-2.27,0.11-3.38,0.32c-7.57,1.44-13.13,7.36-14.42,14.58c-4.2,1.35-7.71,4.16-9.96,8c-2.37,4.06-3.05,8.8-1.91,13.36
					c0.35,1.48,3.47,14.68,6.73,27.15c0.34,2.22,1.23,7.34,3.18,14.58c1.77,6.57,4.35,11.17,8.58,15.11
					c0.01,0.08,0.01,0.16,0.02,0.25c0.95,14.36,1.63,23.93,2.11,27.23c0.95,6.6,6.61,11.41,13.16,11.41c0.38,0,0.75-0.02,1.13-0.05
					l30.2-2.56c3.55-0.3,6.83-2.01,9.11-4.75s3.36-6.27,3.01-9.82c-1.17-11.82-2.13-19.49-2.84-25.09c-0.07-0.54-0.13-1.06-0.2-1.55
					c3.21-2.82,6.21-6.27,7.92-9.29c2.88-5.1,5.03-8.03,5.06-8.05c0.11-0.15,0.2-0.28,0.31-0.44c0.2-0.3,5.03-7.36,7.16-10.53
					c0.06-0.08,0.24-0.32,0.38-0.49c0.72-0.9,1.81-2.26,2.7-4.21c1.72-3.78,1.82-7.98,0.29-11.83c-2.75-6.88-9.84-11.5-17.64-11.5
					c-0.86,0-1.71,0.06-2.56,0.18l1.52-12.65c1.16-9.68-5.42-18.43-14.99-19.92c-0.92-0.14-1.85-0.22-2.77-0.22
					c-1.86,0-3.66,0.29-5.35,0.82C332.22,15.94,328.48,14.62,324.4,14.62L324.4,14.62z"/>
			</g>
			<g>
				<path class="st9" d="M421.39,142.63c-0.22,0-0.44-0.01-0.66-0.03l-30.16-3.01c-3.51-0.35-6.13-3.37-5.99-6.89
					c0.14-3.46,1.55-15.56,2.87-26.63c0.15-1.26,0.27-2.31,0.36-3.06c-3.77-4.25-5.46-8.48-5.97-14.95
					c-0.61-7.6-0.5-12.73-0.43-14.5c-0.94-12.92-1.62-27.08-1.67-28.18c-0.19-2.96,0.77-5.82,2.71-8.06
					c1.96-2.27,4.69-3.64,7.69-3.86c0.27-0.02,0.55-0.03,0.82-0.03c1.1,0,2.16,0.16,3.17,0.46l0.03-0.83
					c0.2-6.25,5.2-11.16,11.39-11.18c2.94,0,5.67,1.07,7.78,3.02c2.09-2.25,5.07-3.62,8.36-3.62c0.58,0,1.16,0.04,1.74,0.13
					c4,0.61,7.2,3.24,8.73,6.7c1.51-0.74,3.21-1.16,4.99-1.16c1.27,0,2.53,0.22,3.74,0.64c5.73,2.02,8.79,8.2,6.95,14.06l-7.6,24.27
					c1.05-0.64,2.16-1.29,3.29-1.93c1.81-1.03,3.87-1.57,5.93-1.57c5.77,0,11.12,4.17,12.18,9.5c0.97,4.87-2.42,7.79-3.69,8.89
					c-0.33,0.29-0.62,0.54-0.88,0.8c-2.67,2.73-8.92,9-8.92,9c-0.07,0.07-0.14,0.13-0.21,0.2c-0.02,0.02-2.92,2.71-7,7.58
					c-2.31,2.75-6.95,6.06-10.8,7.83c-0.11,1.56-0.21,3.28-0.33,5.3c-0.33,5.6-0.78,13.26-1.79,25.02
					c-0.15,1.77-1.01,3.41-2.38,4.55C424.44,142.09,422.93,142.63,421.39,142.63z"/>
				<path d="M421.67,27.92c0.24,0,0.48,0.02,0.73,0.06c2.61,0.4,4.4,2.84,4,5.45c0,0-1.91,15.33-3.99,29.06
					c-0.08,0.53,0.26,1.03,0.78,1.15c0.08,0.02,0.16,0.03,0.24,0.03c0.44,0,0.84-0.28,0.97-0.72c3.97-12.67,8.35-26.13,8.35-26.13
					c0.61-1.96,2.42-3.22,4.38-3.22c0.51,0,1.02,0.08,1.53,0.26c2.35,0.83,3.56,3.43,2.82,5.8l-8.39,26.79l-1.67,10.56
					c0.54-0.05,1.04-0.07,1.48-0.07c1.4,0,2.28,0.19,2.28,0.19s5.46-3.87,11.61-7.36c0.87-0.49,1.78-0.71,2.66-0.71
					c2.75,0,5.24,2.08,5.65,4.14c0.29,1.48-1.17,2.07-2.8,3.74c-2.66,2.72-8.88,8.96-8.88,8.96s-3.13,2.88-7.59,8.2
					c-2.03,2.41-6.94,5.64-9.77,6.58c-1.36,0.45-2.32,1.68-2.43,3.11c-0.49,6.3-0.74,14.57-2.25,32.17l-30.16-3.01
					c0.18-4.46,3.04-27.76,3.32-30.3c0.24-2.26-0.43-2.61-1.56-3.85c-2.63-2.9-4.06-5.58-4.52-11.29
					c-0.71-8.96-0.39-14.23-0.39-14.23l-0.02,0c-0.98-13.51-1.68-28.31-1.68-28.31c-0.18-2.53,1.72-4.72,4.24-4.91
					c0.11-0.01,0.23-0.01,0.34-0.01c2.38,0,4.39,1.84,4.57,4.25c0,0,0.23,4.62,1.15,17.36c0.04,0.54,0.49,0.95,1.02,0.95
					c0.02,0,0.04,0,0.06,0l1.17-0.07c0.53-0.03,0.94-0.46,0.96-0.99l0.91-28.31c0.08-2.59,2.17-4.73,4.76-4.74c0.01,0,0.01,0,0.02,0
					c2.71,0,4.87,2.24,4.78,4.93l-0.88,27.46c-0.02,0.54,0.38,1,0.92,1.05l1.04,0.11c0.04,0,0.07,0.01,0.11,0.01
					c0.5,0,0.93-0.36,1.01-0.87c2.1-13.72,4.41-29.23,4.41-29.23C417.32,29.62,419.35,27.92,421.67,27.92 M421.68,14.62
					C421.67,14.62,421.67,14.62,421.68,14.62c-3.14,0-6.11,0.79-8.69,2.19c-2.31-1.04-4.84-1.6-7.41-1.6c-0.02,0-0.04,0-0.06,0
					c-7.71,0.03-14.26,4.84-16.84,11.69c-4.38,0.56-8.35,2.68-11.25,6.05c-3.08,3.56-4.61,8.09-4.32,12.78
					c0.07,1.52,0.73,15.07,1.65,27.93c-0.08,2.25-0.14,7.44,0.46,14.91c0.54,6.78,2.23,11.78,5.67,16.43
					c-0.01,0.08-0.02,0.16-0.03,0.23c-1.69,14.3-2.77,23.83-2.91,27.17c-0.29,7.04,4.96,13.09,11.97,13.79l30.16,3.01
					c0.44,0.04,0.88,0.07,1.32,0.07c3.09,0,6.1-1.08,8.5-3.07c2.74-2.27,4.45-5.55,4.76-9.1c1.01-11.84,1.47-19.55,1.8-25.19
					c0.03-0.54,0.06-1.06,0.09-1.56c3.67-2.18,7.26-5.03,9.49-7.69c3.77-4.49,6.42-6.97,6.44-6.99c0.14-0.13,0.25-0.24,0.39-0.37
					c0.26-0.26,6.29-6.32,8.96-9.05c0.07-0.07,0.3-0.26,0.46-0.41c0.88-0.75,2.2-1.89,3.43-3.65c2.38-3.4,3.25-7.51,2.45-11.57
					c-1.62-8.18-9.18-14.41-17.78-14.83l3.81-12.16c2.91-9.3-1.96-19.11-11.09-22.32c-1.92-0.68-3.93-1.02-5.95-1.02
					c-0.74,0-1.47,0.04-2.19,0.13c-2.68-2.9-6.33-4.95-10.53-5.59C423.51,14.69,422.59,14.62,421.68,14.62L421.68,14.62
					L421.68,14.62z"/>
			</g>
			<g>
				<path class="st9" d="M495.06,170.41c-0.55,0-1.1-0.07-1.64-0.21l-26.29-6.68c-3.42-0.87-5.57-4.27-4.89-7.73
					c0.67-3.4,3.91-15.16,6.9-25.91c0.34-1.21,0.62-2.21,0.82-2.94c-3.08-4.78-4.1-9.21-3.62-15.68c0.56-7.61,1.45-12.67,1.79-14.4
					c1.05-12.91,2.53-27,2.65-28.11c0.52-5.75,5.41-10.24,11.19-10.24c0.3,0,0.6,0.01,0.91,0.04c1.36,0.11,2.67,0.46,3.87,1.02
					l0.15-0.81c1.02-5.47,5.76-9.44,11.27-9.44c0.56,0,1.13,0.04,1.69,0.13c2.89,0.44,5.44,1.91,7.24,4.18
					c1.96-1.55,4.43-2.44,7.07-2.44c1.16,0,2.32,0.18,3.44,0.53c2.91,0.92,5.29,2.91,6.7,5.62c0.39,0.75,0.7,1.53,0.91,2.33
					c1.08-0.34,2.22-0.51,3.39-0.51c1.84,0,3.68,0.46,5.31,1.34c5.36,2.87,7.44,9.45,4.73,14.96l-11.21,22.83
					c1.14-0.47,2.33-0.94,3.55-1.4c1.38-0.52,2.82-0.79,4.27-0.79c6.35,0,12.16,5.32,12.42,11.38c0.21,4.96-3.58,7.33-5,8.22
					c-0.37,0.23-0.7,0.44-0.99,0.66c-3.06,2.29-10.19,7.54-10.19,7.54c-0.08,0.06-0.16,0.11-0.23,0.17
					c-0.02,0.02-3.3,2.24-8.08,6.43c-2.77,2.42-7.84,4.98-11.95,6.12c-0.67,2.22-1.58,4.49-2.6,7.04
					c-2.05,5.12-4.61,11.5-7.08,21.67c-0.42,1.73-1.51,3.21-3.03,4.13C497.44,170.08,496.25,170.41,495.06,170.41z"/>
				<path d="M498.17,55.99c0.23,0,0.46,0.02,0.7,0.05c2.69,0.41,4.48,2.95,3.99,5.61l-5.06,27c-0.1,0.53,0.23,1.04,0.75,1.18
					l1.01,0.27c0.09,0.02,0.17,0.03,0.26,0.03c0.44,0,0.84-0.28,0.97-0.72c4.17-13.24,8.82-28.21,8.82-28.21
					c0.64-2.04,2.53-3.34,4.56-3.34c0.48,0,0.96,0.07,1.44,0.22c2.52,0.79,3.92,3.48,3.12,5.99c0,0-4.22,14.86-8.37,28.11
					c-0.16,0.51,0.1,1.05,0.59,1.25c0.13,0.05,0.26,0.07,0.38,0.07c0.38,0,0.74-0.21,0.92-0.57c5.86-11.92,12.24-24.55,12.24-24.55
					c0.8-1.62,2.43-2.57,4.12-2.57c0.73,0,1.47,0.18,2.17,0.55c2.19,1.18,2.99,3.93,1.9,6.16l-12.38,25.2l-3.26,10.18
					c2.24,0.13,3.7,0.69,3.7,0.69s5.98-2.99,12.6-5.5c0.65-0.25,1.29-0.36,1.92-0.36c3.1,0,5.67,2.72,5.77,5.02
					c0.06,1.51-1.48,1.87-3.34,3.27c-3.04,2.28-10.14,7.5-10.14,7.5s-3.53,2.37-8.76,6.95c-2.37,2.08-7.72,4.52-10.66,5.02
					c-1.41,0.24-2.55,1.3-2.88,2.7c-1.45,6.15-6.01,13.39-10.18,30.55l-26.29-6.68c0.86-4.38,7.24-26.97,7.9-29.44
					c0.59-2.2-0.03-2.65-0.95-4.04c-2.16-3.26-3.17-6.13-2.74-11.84c0.66-8.97,1.79-14.12,1.79-14.12l-0.02,0
					c1.09-13.5,2.66-28.23,2.66-28.23c0.19-2.4,2.2-4.22,4.57-4.22c0.12,0,0.25,0,0.37,0.02c2.53,0.2,4.41,2.42,4.2,4.94
					c0,0-0.48,4.6-1.51,17.34c-0.05,0.56,0.37,1.05,0.93,1.1l1.17,0.11c0.03,0,0.06,0,0.09,0c0.49,0,0.91-0.35,1.01-0.83L493.44,60
					C493.87,57.68,495.88,55.99,498.17,55.99 M498.17,42.68c-6.64,0-12.58,3.64-15.73,9.19c-0.16,0-0.32-0.01-0.47-0.01
					c-9.18,0-16.96,7.11-17.81,16.23c-0.16,1.48-1.58,14.99-2.63,27.86c-0.42,2.21-1.27,7.33-1.82,14.81
					c-0.5,6.79,0.41,11.98,3.09,17.1c-0.02,0.08-0.04,0.16-0.07,0.23c-3.86,13.87-6.38,23.12-7.02,26.4
					c-1.37,6.93,2.93,13.73,9.78,15.47l26.29,6.68c1.08,0.27,2.18,0.41,3.28,0.41c2.4,0,4.77-0.65,6.86-1.9
					c3.04-1.83,5.23-4.81,6.07-8.26c2.36-9.71,4.82-15.84,6.8-20.77c0.6-1.49,1.16-2.9,1.67-4.27c4.14-1.6,8.36-3.97,11.09-6.36
					c4.41-3.86,7.41-5.91,7.43-5.93c0.16-0.11,0.28-0.19,0.44-0.31c0.29-0.21,7.18-5.28,10.24-7.57c0.08-0.06,0.33-0.22,0.52-0.33
					c0.98-0.61,2.46-1.54,3.94-3.08c2.88-3,4.36-6.93,4.18-11.07c-0.36-8.39-7.04-15.64-15.32-17.36l5.62-11.44
					c4.3-8.75,0.98-19.18-7.55-23.75c-2.43-1.3-5.16-2.03-7.91-2.12c-2.21-3.28-5.5-5.86-9.55-7.14c-1.76-0.55-3.59-0.84-5.43-0.84
					c-2.15,0-4.22,0.37-6.15,1.07c-2.15-1.4-4.6-2.34-7.16-2.73C499.96,42.75,499.06,42.68,498.17,42.68L498.17,42.68z"/>
			</g>
			<g>
				<path class="st9" d="M544.86,331.58c-0.33,0-0.67-0.03-1.01-0.08c-2.57-0.39-4.67-2.25-5.39-4.75l-11.77-41.23
					c-0.59-2.06-0.15-4.27,1.18-5.95c2.15-2.72,10.42-11.7,18-19.91c0.84-0.91,1.55-1.67,2.05-2.22c-0.56-5.66,0.56-10.07,3.95-15.6
					c3.98-6.51,7.08-10.6,8.17-11.99c6.83-11,14.59-22.86,15.2-23.79c2.07-3.28,5.62-5.23,9.5-5.23c2.09,0,4.14,0.58,5.92,1.69
					c1.18,0.73,2.17,1.65,2.97,2.68l0.51-0.65c2.18-2.81,5.61-4.49,9.16-4.49c2.4,0,4.69,0.74,6.62,2.13
					c2.37,1.71,3.96,4.19,4.53,7.03c0.71-0.14,1.44-0.21,2.18-0.21c3.03,0,5.88,1.17,8.03,3.3c2.88,2.85,3.93,6.87,3.13,10.56
					c2.96,0.5,5.63,2.18,7.37,4.7c3.45,5,2.3,11.8-2.63,15.46l-20.41,15.18c1.23,0.1,2.51,0.23,3.8,0.37
					c3.92,0.44,7.3,2.71,9.28,6.23c1.94,3.44,2.21,7.58,0.72,10.82c-2.08,4.51-6.53,4.88-8.21,5.02c-0.44,0.04-0.82,0.07-1.18,0.13
					c-3.77,0.64-12.51,2.05-12.51,2.05c-0.1,0.02-0.19,0.03-0.29,0.04c-0.03,0-3.95,0.48-10.12,2.02c-1.71,0.43-3.82,0.64-6.27,0.64
					c0,0,0,0,0,0c-2.48,0-4.96-0.23-7.02-0.63c-5.01,6.56-19.05,27.17-29.92,43.67C549.17,330.48,547.07,331.58,544.86,331.58z"/>
				<path d="M603.29,206.71c0.95,0,1.91,0.28,2.73,0.88c2.21,1.59,2.64,4.68,0.99,6.81l-16.84,21.71c-0.33,0.42-0.27,1.03,0.13,1.39
					l0.78,0.7c0.2,0.17,0.44,0.26,0.68,0.26c0.26,0,0.53-0.1,0.73-0.3c9.76-9.88,20.74-21.06,20.74-21.06
					c0.93-0.95,2.17-1.42,3.4-1.42c1.21,0,2.43,0.46,3.36,1.38c1.88,1.85,1.89,4.88,0.04,6.76c0,0-10.55,11.29-20.29,21.17
					c-0.37,0.38-0.39,0.98-0.05,1.39c0.2,0.23,0.49,0.35,0.77,0.35c0.21,0,0.43-0.07,0.61-0.2c10.66-7.92,22.1-16.24,22.1-16.24
					c0.82-0.61,1.78-0.91,2.73-0.91c1.45,0,2.89,0.69,3.78,1.99c1.41,2.05,0.87,4.86-1.13,6.35l-22.53,16.76l-7.55,7.57
					c1.93,1.14,2.97,2.31,2.97,2.31s6.69,0.07,13.72,0.87c4.12,0.47,5.86,5.15,4.71,7.66c-0.63,1.37-2.17,0.99-4.46,1.38
					c-3.75,0.64-12.45,2.04-12.45,2.04s-4.22,0.49-10.96,2.18c-1.23,0.31-2.9,0.45-4.66,0.45c-2.62,0-5.41-0.31-7.12-0.85
					c-0.35-0.11-0.72-0.17-1.08-0.17c-1.03,0-2.03,0.44-2.71,1.25c-4.1,4.81-21.16,29.98-31.58,45.8l-11.77-41.23
					c2.77-3.5,18.76-20.68,20.48-22.57c1.53-1.69,1.19-2.37,1-4.03c-0.43-3.89-0.01-6.9,2.97-11.79c4.69-7.68,8.04-11.74,8.04-11.74
					l-0.02-0.01c7.14-11.51,15.26-23.9,15.26-23.9c0.87-1.4,2.37-2.17,3.9-2.17c0.82,0,1.66,0.22,2.41,0.69
					c2.15,1.34,2.82,4.16,1.48,6.32c0,0-2.53,3.87-9.27,14.73c-0.3,0.48-0.15,1.1,0.32,1.41l0.99,0.63
					c0.17,0.11,0.36,0.16,0.55,0.16c0.31,0,0.61-0.14,0.81-0.4l17.36-22.38C600.35,207.38,601.82,206.71,603.29,206.71
					 M603.29,193.4C603.29,193.4,603.29,193.4,603.29,193.4c-3.55,0-7.02,1.07-9.96,2.98c-2.63-1.45-5.59-2.21-8.6-2.21
					c-6.17,0-11.79,3.09-15.1,8.28c-0.83,1.27-8.26,12.62-15.07,23.58c-1.38,1.78-4.48,5.94-8.39,12.34
					c-3.55,5.81-5.11,10.84-5.06,16.62c-0.05,0.06-0.1,0.11-0.16,0.17c-9.77,10.58-16.24,17.66-18.32,20.28
					c-2.65,3.36-3.53,7.79-2.36,11.91l11.77,41.23c1.43,5,5.64,8.71,10.78,9.5c0.68,0.1,1.35,0.15,2.02,0.15
					c4.43,0,8.62-2.21,11.11-5.99c9.45-14.35,21.37-31.9,27.37-40.22c1.71,0.14,3.15,0.17,4.01,0.17c2.99,0,5.64-0.28,7.88-0.84
					c5.68-1.42,9.29-1.87,9.32-1.88c0.19-0.02,0.34-0.04,0.53-0.07c0.36-0.06,8.8-1.42,12.56-2.06c0.1-0.02,0.4-0.04,0.62-0.06
					c1.15-0.1,2.89-0.24,4.92-0.94c3.93-1.35,7.05-4.17,8.78-7.93c2.41-5.22,2.05-11.53-0.96-16.87c-1.24-2.2-2.84-4.08-4.71-5.58
					l10.21-7.6c7.82-5.82,9.63-16.61,4.13-24.58c-1.59-2.31-3.67-4.17-6.05-5.49c-0.47-4.06-2.3-7.81-5.25-10.72
					c-2.85-2.82-6.48-4.58-10.4-5.08c-1.27-2.23-3.02-4.19-5.13-5.71C610.72,194.57,607.09,193.4,603.29,193.4L603.29,193.4
					L603.29,193.4z"/>
			</g>
			<polyline class="st9" points="392.72,118.23 388.17,169.9 419.36,172.5 423.21,110.32 			"/>
			<path class="st9" d="M312.3,131.82c0,0,0.49,20.44,2.35,36.23c-0.19-0.93,30.08-5.94,30.08-5.94s-2.64-36.82-3.09-40.69"/>
			<polyline class="st9" points="245.08,192.35 255.79,224.11 281.23,207.03 273.14,180.22 			"/>
			<polyline class="st9" points="475.06,151.15 470.04,151.84 460.95,177.33 487.31,186.98 505.24,133.2 			"/>
			<polyline class="st9" points="535.9,280.43 513.8,298.18 533.09,344.72 566.73,290.88 			"/>
		</g>
		<text transform="matrix(8.979319e-11 -1 1 8.979319e-11 26.8613 333.9569)"><tspan x="0" y="0" class="st52 st53">www</tspan><tspan x="45.14" y="0" class="st52 st54"> </tspan><tspan x="46.99" y="0" class="st52 st53">.</tspan><tspan x="51.77" y="0" class="st52 st54"> </tspan><tspan x="53.63" y="0" class="st52 st53">Capitalism</tspan><tspan x="150.43" y="0" class="st52 st55"> </tspan><tspan x="153.9" y="0" class="st52 st53">Is</tspan><tspan x="168.88" y="0" class="st52 st55"> </tspan><tspan x="172.34" y="0" class="st52 st53">A</tspan><tspan x="186.6" y="0" class="st52 st54"> </tspan><tspan x="188.46" y="0" class="st52 st53">Virus</tspan><tspan x="236.15" y="0" class="st52 st54"> </tspan><tspan x="238.01" y="0" class="st52 st53">.</tspan><tspan x="242.79" y="0" class="st52 st54"> </tspan><tspan x="244.64" y="0" class="st52 st53">org</tspan></text>
		<text transform="matrix(0 1 -1 0 761.9287 381.0454)"><tspan x="0" y="0" class="st52 st53">#</tspan><tspan x="12.7" y="0" class="st52 st56"> </tspan><tspan x="14.5" y="0" class="st52 st53">Capitalism</tspan><tspan x="111.3" y="0" class="st52 st56"> </tspan><tspan x="113.1" y="0" class="st52 st53">Is</tspan><tspan x="128.09" y="0" class="st52 st56"> </tspan><tspan x="129.89" y="0" class="st52 st53">A</tspan><tspan x="144.15" y="0" class="st52 st56"> </tspan><tspan x="145.95" y="0" class="st52 st53">Virus</tspan></text>
	</g>
</g>
<g id="expanded">
	<path d="M634.58,218.3c-0.47-4.06-2.3-7.81-5.25-10.72c-2.85-2.82-6.48-4.58-10.4-5.08c-1.27-2.23-3.02-4.19-5.13-5.71
		c-3.08-2.22-6.71-3.39-10.51-3.39c0,0,0,0,0,0c-3.55,0-7.02,1.07-9.96,2.98c-2.63-1.45-5.59-2.21-8.6-2.21
		c-6.17,0-11.79,3.09-15.1,8.28c-0.83,1.27-8.26,12.62-15.07,23.58c-1.38,1.78-4.48,5.94-8.39,12.34
		c-3.55,5.81-5.11,10.84-5.06,16.62c-0.05,0.06-0.1,0.11-0.16,0.17c-8.01,8.67-13.8,14.99-16.77,18.43
		c-17.02,12.3-34.76,27.29-40.39,32.11c-1.98,0.11-4.98,0.37-8.67,0.95c0.35-12.75,0.3-22.26,0.27-25.34l31.36-111.27
		c0.53-0.99,0.95-2.03,1.22-3.14c2.36-9.71,4.82-15.84,6.8-20.77c0.6-1.49,1.16-2.9,1.67-4.27c4.14-1.6,8.36-3.97,11.09-6.36
		c4.41-3.86,7.41-5.91,7.43-5.93c0.16-0.11,0.28-0.19,0.44-0.31c0.29-0.21,7.18-5.28,10.24-7.57c0.08-0.06,0.33-0.22,0.52-0.33
		c0.98-0.61,2.46-1.54,3.94-3.08c2.88-3,4.36-6.93,4.18-11.07c-0.36-8.39-7.04-15.64-15.32-17.36l5.62-11.44
		c4.3-8.75,0.98-19.18-7.55-23.75c-2.43-1.3-5.16-2.03-7.91-2.12c-2.21-3.28-5.5-5.86-9.55-7.14c-1.76-0.55-3.59-0.84-5.43-0.84
		c-2.15,0-4.22,0.37-6.15,1.07c-2.15-1.4-4.6-2.34-7.16-2.73c-0.88-0.13-1.78-0.2-2.68-0.2c-6.64,0-12.58,3.64-15.73,9.19
		c-0.16,0-0.32-0.01-0.47-0.01c-7.66,0-14.34,4.96-16.83,11.91c-3.33-4.6-8.79-7.69-14.76-7.98l3.81-12.16
		c2.91-9.3-1.96-19.11-11.09-22.32c-1.92-0.68-3.93-1.02-5.95-1.02c-0.74,0-1.47,0.04-2.19,0.13c-2.68-2.9-6.33-4.95-10.53-5.59
		c-0.9-0.14-1.83-0.21-2.74-0.21c0,0,0,0,0,0c-3.14,0-6.11,0.79-8.69,2.19c-2.31-1.04-4.84-1.6-7.41-1.6c-0.02,0-0.04,0-0.06,0
		c-7.71,0.03-14.26,4.84-16.84,11.69c-4.38,0.56-8.35,2.68-11.25,6.05c-3.08,3.56-4.61,8.09-4.32,12.78
		c0.04,0.79,0.23,4.87,0.55,10.41c-3.52-3.82-8.7-6.17-14.25-6.17c-0.86,0-1.71,0.06-2.56,0.18l1.52-12.65
		c1.16-9.68-5.42-18.43-14.99-19.92c-0.92-0.14-1.85-0.22-2.77-0.22c-1.86,0-3.66,0.29-5.35,0.82c-3.02-2.25-6.76-3.57-10.84-3.57
		c0,0,0,0,0,0c-0.19,0-0.39,0-0.58,0.01c-4,0.13-7.77,1.54-10.82,4.03c-1.38-0.33-2.83-0.51-4.31-0.51c-1.13,0-2.27,0.11-3.38,0.32
		c-7.57,1.44-13.13,7.36-14.42,14.58c-4.2,1.35-7.71,4.16-9.96,8c-2.37,4.06-3.05,8.8-1.91,13.36c0.35,1.48,3.47,14.68,6.73,27.15
		c0.34,2.22,1.23,7.34,3.18,14.58c0.99,3.68,2.25,6.73,3.9,9.4c-3.43-3.28-8.21-5.22-13.28-5.22c-2.04,0-4.04,0.32-5.93,0.94
		l-0.75-12.72c-0.56-9.5-8.41-16.94-17.86-16.94c0,0,0,0,0,0c-0.14,0-0.28,0-0.43,0c-2.78,0.07-5.49,0.79-7.92,2.07
		c-2.44-1.23-5.18-1.91-8.04-1.91c-1.27,0-2.54,0.13-3.79,0.4c-3.92,0.84-7.38,2.9-9.94,5.9c-0.37-0.02-0.74-0.03-1.12-0.03
		c-2.22,0-4.4,0.4-6.48,1.2c-7.2,2.76-11.61,9.58-11.6,16.91c-3.9,2.07-6.85,5.47-8.38,9.65c-1.61,4.42-1.44,9.2,0.49,13.48
		c0.6,1.39,6.02,13.83,11.45,25.53c0.73,2.13,2.51,7.01,5.72,13.78c2.91,6.15,6.26,10.22,11.12,13.35c0.02,0.08,0.04,0.15,0.06,0.23
		c3.49,13.97,5.86,23.26,6.91,26.43c0.57,1.72,1.47,3.26,2.6,4.55c5.57,18.1,19.84,66.57,28.12,114.21
		c0.01,0.06,0.04,0.12,0.05,0.18c0.26,5.13,1.72,28.16,8.27,64.38c3.16,17.48,7.84,28.98,14.25,38.16
		c3.86,5.53,8.35,10.22,13.51,14.87c0.65,0.59,1.47,1.33,2.34,2.13c2.69,2.47,4.19,5.98,4.12,9.64
		c-0.41,22.03-1.11,62.43-1.37,94.62c-0.17,20.97-0.17,38.47,0.22,45.14c0.21,3.54,3.14,6.27,6.64,6.27c0.13,0,0.26,0,0.39-0.01
		c3.67-0.21,6.47-3.36,6.25-7.03c-0.99-16.92,0.65-110.47,1.17-138.74c0.14-7.46-2.93-14.63-8.42-19.68
		c-0.91-0.83-1.76-1.61-2.44-2.22c-12.16-10.95-19.14-20.99-23.58-45.51c-7.13-39.41-8.11-63.35-8.12-63.58
		c-0.01-0.32-0.05-0.64-0.11-0.95c-0.06-0.35-0.15-0.7-0.27-1.03c-5.95-33.86-14.81-68.01-21.49-91.59l-9.45-28.02l-0.07,0.02
		c-1.41-4.23-7-27.03-7.65-29.5c-0.57-2.2-1.33-2.29-2.82-3.05c-3.49-1.77-5.78-3.77-8.23-8.95c-3.85-8.13-5.41-13.16-5.41-13.16
		l-0.02,0.01c-5.71-12.28-11.61-25.87-11.61-25.87c-1.07-2.3-0.07-5.03,2.23-6.09c0.63-0.29,1.28-0.43,1.93-0.43
		c1.73,0,3.39,0.98,4.16,2.65c0,0,1.85,4.24,7.23,15.83c0.17,0.37,0.54,0.59,0.93,0.59c0.14,0,0.28-0.03,0.42-0.09l1.07-0.48
		c0.48-0.22,0.72-0.77,0.55-1.26l-9.19-26.8c-0.84-2.45,0.35-5.19,2.77-6.12c0.57-0.22,1.15-0.32,1.71-0.32
		c1.98,0,3.84,1.25,4.52,3.23l8.92,25.98c0.14,0.42,0.54,0.69,0.97,0.69c0.09,0,0.18-0.01,0.26-0.03l1.01-0.27
		c0.53-0.14,0.85-0.67,0.74-1.2c-2.91-13.57-6.24-28.89-6.24-28.89c-0.55-2.58,1.09-5.12,3.67-5.67c0.34-0.07,0.67-0.11,1-0.11
		c2.21,0,4.19,1.54,4.67,3.78c0,0,3.66,15.01,6.58,28.58c0.1,0.48,0.52,0.81,1,0.81c0.04,0,0.09,0,0.14-0.01
		c0.53-0.07,0.92-0.54,0.89-1.07c-0.78-13.26-1.46-27.39-1.46-27.39c-0.15-2.58,1.86-4.8,4.48-4.86c0.04,0,0.07,0,0.11,0
		c2.44,0,4.44,1.98,4.58,4.43l1.66,28.03l2.19,10.47c2.01-0.99,3.56-1.22,3.56-1.22s3.73-5.56,8.25-11c1.17-1.4,2.76-1.97,4.31-1.97
		c1.97,0,3.86,0.92,4.68,2.24c0.8,1.28-0.36,2.36-1.29,4.49c-1.52,3.48-5.12,11.53-5.12,11.53s-1.9,3.8-4.19,10.36
		c-1.04,2.98-4.48,7.74-6.8,9.62c-1.11,0.91-1.57,2.39-1.17,3.77c1.54,5.26,3.78,11.85,7.5,24.59h0l8.08,26.81l-0.41,0.27
		c1.5,4.83,3.12,10.04,4.74,15.24c3.04,9.77,6.09,19.53,8.4,26.85c1.16,3.68,2.13,6.74,2.83,8.88c0.36,1.11,0.64,1.97,0.85,2.56
		c0.87,2.56,2.23,3.94,3.59,4.65c1.93,2.23,5.09,5.12,9.47,4.4l5.29-0.87c5.8-0.95,9.87-6.08,9.47-11.94
		c-0.01-0.12-0.02-0.24-0.03-0.35l-12.95-106.59c0.11,0,0.21,0.01,0.32,0.01c0.11,0,0.22-0.01,0.34-0.01
		c-0.62-10.06-0.82-18.31-0.82-18.31c-0.7-8.42-1.63-23.36-1.79-25.37c-0.17-2.27-0.9-2.49-2.23-3.5
		c-3.12-2.37-5.02-4.74-6.51-10.27c-2.34-8.68-2.98-13.92-2.98-13.92l-0.02,0c-3.44-13.1-6.83-27.52-6.83-27.52
		c-0.64-2.45,0.82-4.96,3.27-5.6c0.39-0.1,0.78-0.15,1.17-0.15c2.03,0,3.89,1.36,4.43,3.42c0,0,1.07,4.5,4.31,16.86
		c0.12,0.46,0.54,0.77,0.99,0.77c0.08,0,0.17-0.01,0.25-0.03l1.14-0.29c0.51-0.13,0.84-0.63,0.76-1.15l-4.29-28
		c-0.39-2.56,1.27-5.05,3.81-5.53c0.3-0.06,0.6-0.08,0.9-0.08c2.32,0,4.36,1.69,4.72,4.06l4.16,27.15c0.08,0.5,0.51,0.87,1.01,0.87
		c0.03,0,0.06,0,0.08,0l1.04-0.08c0.54-0.04,0.96-0.51,0.94-1.05c-0.45-13.87-1.01-29.54-1.01-29.54c-0.08-2.64,1.98-4.84,4.62-4.93
		c0.05,0,0.1,0,0.16,0c2.57,0,4.69,2.04,4.77,4.62c0,0,0.93,15.42,1.39,29.29c0.02,0.53,0.44,0.96,0.97,0.99c0.02,0,0.03,0,0.05,0
		c0.52,0,0.95-0.38,1.02-0.9c1.59-13.19,3.43-27.21,3.43-27.21c0.28-2.33,2.26-4.04,4.55-4.04c0.24,0,0.48,0.02,0.72,0.06
		c2.46,0.38,4.13,2.72,3.83,5.19l-3.34,27.88l0.29,10.69c1.86-0.53,3.28-0.57,3.64-0.57c0.06,0,0.09,0,0.09,0s4.66-4.81,10.07-9.36
		c1.07-0.9,2.31-1.27,3.51-1.27c2.36,0,4.6,1.43,5.28,3.13c0.56,1.4-0.77,2.25-2.07,4.19c-2.12,3.16-7.09,10.43-7.09,10.43
		s-2.55,3.4-5.97,9.45c-1.55,2.74-5.79,6.82-8.4,8.26c-1.26,0.69-1.97,2.07-1.82,3.5c0.48,4.5,1.27,9.98,2.31,19.17l0,0
		c0,0.03,0.01,0.08,0.01,0.12c0.41,3.62,0.86,7.8,1.35,12.75l-0.31,0.03c0.91,11.99,2.04,27.79,2.04,27.79s-0.06,0.01-0.16,0.03
		l10.9,88.69c0.5,5.8,5.4,10.32,11.24,10.35l4.77,0.02c0.02,0,0.03,0,0.05,0c6.03,0,11-4.71,11.31-10.73
		c1.4-26.84,3.46-55.98,5.36-80.55l-0.04,0l0.3-3.45c0.57-7.25,1.11-14.05,1.62-20.23l0.16,0.02l1.17-13.26l-0.2-0.02
		c0.18-4.46,3.04-27.76,3.32-30.3c0.24-2.26-0.43-2.61-1.56-3.85c-2.63-2.9-4.06-5.58-4.52-11.29c-0.71-8.96-0.39-14.23-0.39-14.23
		l-0.02,0c-0.98-13.51-1.68-28.31-1.68-28.31c-0.18-2.53,1.72-4.72,4.24-4.91c0.11-0.01,0.23-0.01,0.34-0.01
		c2.38,0,4.39,1.84,4.57,4.25c0,0,0.23,4.62,1.15,17.36c0.04,0.54,0.49,0.95,1.02,0.95c0.02,0,0.04,0,0.06,0l1.17-0.07
		c0.53-0.03,0.94-0.46,0.96-0.99l0.91-28.31c0.08-2.59,2.17-4.73,4.76-4.74c0.01,0,0.01,0,0.02,0c2.71,0,4.87,2.24,4.78,4.93
		l-0.88,27.46c-0.02,0.54,0.38,1,0.92,1.05l1.04,0.11c0.04,0,0.07,0.01,0.11,0.01c0.5,0,0.93-0.36,1.01-0.87
		c2.1-13.72,4.41-29.23,4.41-29.23c0.36-2.36,2.4-4.06,4.72-4.06c0.24,0,0.48,0.02,0.73,0.06c2.61,0.4,4.4,2.84,4,5.45
		c0,0-1.91,15.33-3.99,29.06c-0.08,0.53,0.26,1.03,0.78,1.15c0.08,0.02,0.16,0.03,0.24,0.03c0.44,0,0.84-0.28,0.97-0.72
		c3.97-12.67,8.35-26.13,8.35-26.13c0.61-1.96,2.42-3.22,4.38-3.22c0.51,0,1.02,0.08,1.53,0.26c2.35,0.83,3.56,3.43,2.82,5.8
		l-8.39,26.79l-1.67,10.56c0.54-0.05,1.04-0.07,1.48-0.07c1.4,0,2.28,0.19,2.28,0.19s5.46-3.87,11.61-7.36
		c0.87-0.49,1.78-0.71,2.66-0.71c2.75,0,5.24,2.08,5.65,4.14c0.29,1.48-1.17,2.07-2.8,3.74c-2.66,2.72-8.88,8.96-8.88,8.96
		s-3.13,2.88-7.59,8.2c-2.03,2.41-6.94,5.64-9.77,6.58c-1.36,0.45-2.32,1.68-2.43,3.11c-0.15,1.92-0.28,4.02-0.42,6.51h0l0,0.03
		c-0.16,2.7-0.34,5.87-0.6,9.75l-1.8,29.15c0.07,0,0.13,0.01,0.2,0.01c-1.76,27.43-4.17,66.45-5.98,101.82
		c-0.3,5.85,4.02,11.04,9.83,11.81c5.36,0.71,8.47-2.96,9.8-4.53c0.29-0.34,0.59-0.69,0.79-0.88c2.06-1.91,5.18-4.81,22.38-66.05
		c1.31-4.66,2.6-9.31,3.85-13.84l-0.71-0.26l9.09-25.49c2.15-8.23,6.11-22.29,6.62-24.21c0.59-2.2-0.03-2.65-0.95-4.04
		c-2.16-3.26-3.17-6.13-2.74-11.84c0.66-8.97,1.79-14.12,1.79-14.12l-0.02,0c1.09-13.5,2.66-28.23,2.66-28.23
		c0.19-2.4,2.2-4.22,4.57-4.22c0.12,0,0.25,0,0.37,0.02c2.53,0.2,4.41,2.42,4.2,4.94c0,0-0.48,4.6-1.51,17.34
		c-0.05,0.56,0.37,1.05,0.93,1.1l1.17,0.11c0.03,0,0.06,0,0.09,0c0.49,0,0.91-0.35,1.01-0.83L493.44,60
		c0.43-2.31,2.44-4.01,4.73-4.01c0.23,0,0.46,0.02,0.7,0.05c2.69,0.41,4.48,2.95,3.99,5.61l-5.06,27c-0.1,0.53,0.23,1.04,0.75,1.18
		l1.01,0.27c0.09,0.02,0.17,0.03,0.26,0.03c0.44,0,0.84-0.28,0.97-0.72c4.17-13.24,8.82-28.21,8.82-28.21
		c0.64-2.04,2.53-3.34,4.56-3.34c0.48,0,0.96,0.07,1.44,0.22c2.52,0.79,3.92,3.48,3.12,5.99c0,0-4.22,14.86-8.37,28.11
		c-0.16,0.51,0.1,1.05,0.59,1.25c0.13,0.05,0.26,0.07,0.38,0.07c0.38,0,0.74-0.21,0.92-0.57c5.86-11.92,12.24-24.55,12.24-24.55
		c0.8-1.62,2.43-2.57,4.12-2.57c0.73,0,1.47,0.18,2.17,0.55c2.19,1.18,2.99,3.93,1.9,6.16l-12.38,25.2l-3.26,10.18
		c2.24,0.13,3.7,0.69,3.7,0.69s5.98-2.99,12.6-5.5c0.65-0.25,1.29-0.36,1.92-0.36c3.1,0,5.67,2.72,5.77,5.02
		c0.06,1.51-1.48,1.87-3.34,3.27c-3.04,2.28-10.14,7.5-10.14,7.5s-3.53,2.37-8.76,6.95c-2.37,2.08-7.72,4.52-10.66,5.02
		c-1.41,0.24-2.55,1.3-2.88,2.7l0,0c-0.41,1.72-1.06,3.53-1.87,5.62l-8.31,24.93c0,0,0,0,0,0l-4.22,12.66l0.29,0.07l-28.76,102.03
		c-0.01,0.02-0.01,0.04-0.02,0.06l-0.01,0.05c-0.01,0.05-0.02,0.09-0.03,0.14c-0.04,0.16-0.08,0.32-0.11,0.48
		c-0.02,0.1-0.03,0.21-0.04,0.31c-0.01,0.11-0.03,0.22-0.04,0.33c-0.01,0.16-0.02,0.31-0.02,0.47c0,0.05-0.01,0.11-0.01,0.16
		c0,0.01,0,0.04,0,0.06c0,0.01,0,0.03,0,0.04c0,0.16,0.01,0.5,0.01,1c0.02,3.35,0.05,14.06-0.4,28.1
		c-11.5,3.49-25.1,9.94-36.48,21.88c-2.53,2.66-2.43,6.87,0.23,9.41c1.43,1.37,3.32,1.96,5.15,1.81c1.56-0.13,3.09-0.81,4.26-2.03
		c20.58-21.6,51.2-21.86,51.49-21.86c0.01,0,0.02,0,0.03,0c1.6,0,3.15-0.58,4.36-1.63c0.17-0.14,10.33-8.95,23.09-19.07l-0.02-0.05
		l22.1-17.75h0c5.51-6.2,16.28-17.77,17.67-19.31c1.53-1.69,1.19-2.37,1-4.03c-0.43-3.89-0.01-6.9,2.97-11.79
		c4.69-7.68,8.04-11.74,8.04-11.74l-0.02-0.01c7.14-11.51,15.26-23.9,15.26-23.9c0.87-1.4,2.37-2.17,3.9-2.17
		c0.82,0,1.66,0.22,2.41,0.69c2.15,1.34,2.82,4.16,1.48,6.32c0,0-2.53,3.87-9.27,14.73c-0.3,0.48-0.15,1.1,0.32,1.41l0.99,0.63
		c0.17,0.11,0.36,0.16,0.55,0.16c0.31,0,0.61-0.14,0.81-0.4l17.36-22.38c0.96-1.24,2.43-1.92,3.9-1.92c0.95,0,1.91,0.28,2.73,0.88
		c2.21,1.59,2.64,4.68,0.99,6.81l-16.84,21.71c-0.33,0.42-0.27,1.03,0.13,1.39l0.78,0.7c0.2,0.17,0.44,0.26,0.68,0.26
		c0.26,0,0.53-0.1,0.73-0.3c9.76-9.88,20.74-21.06,20.74-21.06c0.93-0.95,2.17-1.42,3.4-1.42c1.21,0,2.43,0.46,3.36,1.38
		c1.88,1.85,1.89,4.88,0.04,6.76c0,0-10.55,11.29-20.29,21.17c-0.37,0.38-0.39,0.98-0.05,1.39c0.2,0.23,0.49,0.35,0.77,0.35
		c0.21,0,0.43-0.07,0.61-0.2c10.66-7.92,22.1-16.24,22.1-16.24c0.82-0.61,1.78-0.91,2.73-0.91c1.45,0,2.89,0.69,3.78,1.99
		c1.41,2.05,0.87,4.86-1.13,6.35l-22.53,16.76l-7.55,7.57c1.93,1.14,2.97,2.31,2.97,2.31s6.69,0.07,13.72,0.87
		c4.12,0.47,5.86,5.15,4.71,7.66c-0.63,1.37-2.17,0.99-4.46,1.38c-3.75,0.64-12.45,2.04-12.45,2.04s-4.22,0.49-10.96,2.18
		c-1.23,0.31-2.9,0.45-4.66,0.45c-2.62,0-5.41-0.31-7.12-0.85c-0.35-0.11-0.72-0.17-1.08-0.17c-1.03,0-2.03,0.44-2.71,1.25
		c-2.99,3.51-12.85,17.81-22.01,31.44l-16.18,25.9c0.01,0,0.01,0.01,0.02,0.01c-5.87,9.72-12.51,19.96-19.16,28.7
		c-12.04,15.83-54.85,45.54-73.13,58.24l-2.18,1.51c-2.97,2.06-4.55,5.54-5.08,14.05c-0.61,9.9,0.2,26.61,1.91,55.87
		c1.51,25.74,3.39,57.78,3.86,91.32c0.05,3.64,3.02,6.56,6.65,6.56c0.03,0,0.06,0,0.1,0c3.67-0.05,6.61-3.07,6.56-6.75
		c-0.48-33.84-2.37-66.04-3.89-91.92c-1.52-25.87-3.09-52.59-1.41-58.98l1.06-0.73c20.39-14.16,62.82-43.61,76.13-61.11
		c10.36-13.62,20.48-30.33,28.01-43.6c9.14-13.81,20-29.78,25.64-37.6c1.71,0.14,3.15,0.17,4.01,0.17c2.99,0,5.64-0.28,7.88-0.84
		c5.68-1.42,9.29-1.87,9.32-1.88c0.19-0.02,0.34-0.04,0.53-0.07c0.36-0.06,8.8-1.42,12.56-2.06c0.1-0.02,0.4-0.04,0.62-0.06
		c1.15-0.1,2.89-0.24,4.92-0.94c3.93-1.35,7.05-4.17,8.78-7.93c2.41-5.22,2.05-11.53-0.96-16.87c-1.24-2.2-2.84-4.08-4.71-5.58
		l10.21-7.6c7.82-5.82,9.63-16.61,4.13-24.58C639.04,221.48,636.96,219.62,634.58,218.3z M295.41,125.13
		c0.55-1.02,1.38-2.55,1.91-4.63c0.93-3.65,0.47-7.41-1.26-10.7c0.46,0.49,0.94,0.97,1.44,1.44c0.01,0.08,0.01,0.16,0.02,0.25
		c0.16,2.48,0.32,4.8,0.47,6.98c-1.29,3.94-1.77,8.21-1.24,12.55l15.21,125.16l-1.01,0.17c-0.14-0.17-0.27-0.34-0.37-0.46
		c-0.3-0.37-0.6-0.72-0.9-1.03c-2.93-8.98-13.39-42.61-21.42-68.54c-0.01-1.16-0.17-2.33-0.49-3.47
		c-3.25-11.43-5.56-18.81-7.25-24.19c-0.16-0.52-0.32-1.01-0.47-1.49c2.66-3.34,5-7.27,6.15-10.55c1.93-5.53,3.53-8.79,3.55-8.82
		c0.09-0.17,0.15-0.31,0.23-0.48c0.15-0.33,3.64-8.14,5.17-11.64C295.16,125.59,295.31,125.33,295.41,125.13z M379.75,111.17
		c-0.09,0.97-0.67,7.44-1.54,17.59c-0.07,0.81-0.14,1.52-0.18,2.13c-2.24,26.28-6.1,74.28-8.37,116.98l-1.14,0l-13.31-108.3
		c0.89-2.06,1.26-4.32,1.04-6.6c-1.17-11.82-2.13-19.49-2.84-25.09c-0.07-0.54-0.13-1.06-0.2-1.55c3.21-2.82,6.21-6.27,7.92-9.29
		c2.88-5.1,5.03-8.03,5.06-8.05c0.11-0.15,0.2-0.28,0.31-0.44c0.2-0.3,5.03-7.36,7.16-10.53c0.06-0.08,0.24-0.32,0.38-0.49
		c0.2-0.25,0.42-0.53,0.66-0.85c0,2.77,0.1,6.8,0.51,11.91c0.54,6.75,2.21,11.72,5.61,16.35
		C380.24,106.93,379.87,109.01,379.75,111.17z M461.97,126.14c-0.39,0.94-0.73,1.9-1.02,2.89c-0.02,0.06-0.03,0.12-0.05,0.18
		c-10.04,38.41-24.97,92.23-32.04,111.99c3.19-60.03,7.73-126.1,7.78-126.8c0-0.04,0-0.07,0.01-0.11c0.07-1.33,0.04-2.65-0.07-3.96
		c3.66-2.18,7.22-5.01,9.45-7.66c3.77-4.49,6.42-6.97,6.44-6.99c0.14-0.13,0.25-0.24,0.39-0.37c0.26-0.26,6.29-6.32,8.96-9.05
		c0.07-0.07,0.3-0.26,0.46-0.41c0.04-0.04,0.09-0.08,0.14-0.12c-0.3,3.29-0.61,6.78-0.89,10.23c-0.42,2.21-1.27,7.33-1.82,14.81
		C459.26,116.8,459.93,121.56,461.97,126.14z"/>
	<polygon points="17.67,291.73 22.88,293.38 22.88,293.47 17.67,294.81 17.67,297.46 22.88,298.8 22.88,298.89 17.67,300.54 
		17.67,303.77 17.67,303.86 17.67,306.78 22.88,308.43 22.88,308.51 17.67,309.85 17.67,312.51 22.88,313.85 22.88,313.93 
		17.67,315.58 17.67,318.82 17.67,318.9 17.67,321.83 22.88,323.47 22.88,323.56 17.67,324.9 17.67,327.56 22.88,328.9 
		22.88,328.98 17.67,330.63 17.67,333.95 26.86,331.04 26.86,327.76 21.67,326.42 21.67,326.34 26.86,325 26.86,321.72 17.8,318.86 
		26.86,315.99 26.86,312.72 21.67,311.38 21.67,311.29 26.86,309.95 26.86,306.68 17.8,303.81 26.86,300.95 26.86,297.67 
		21.67,296.33 21.67,296.25 26.86,294.91 26.86,291.63 17.67,288.72 	"/>
	<rect x="23.32" y="282.75" width="3.55" height="3.55"/>
	<path d="M21.36,266.86l-0.14,3.36c1.44,0.21,2.78,0.99,2.78,3.01c0,1.92-1.42,3.03-3.63,3.03s-3.63-1.11-3.63-3.03
		c0-2.02,1.34-2.8,2.78-3.01l-0.12-3.36c-3.24,0.25-5.77,2.37-5.77,6.35c0,3.79,2.74,6.66,6.74,6.66s6.74-2.87,6.74-6.66
		C27.11,269.23,24.59,267.1,21.36,266.86z"/>
	<path d="M24.16,256.99h-3.13c-2.56,0-3.61,1.79-3.61,4.23c0,2.76,1.4,4.27,3.42,4.56l0.21-3.09c-0.68-0.14-1.15-0.52-1.15-1.26
		c0-0.8,0.45-1.15,1.22-1.15h0.14l0.43,2.58c0.35,2,1.11,3.28,2.89,3.28c1.57,0,2.49-1.17,2.49-2.97c0-1.46-0.56-2.51-1.63-3.05
		c1.05-0.31,1.63-1.2,1.63-2.33c0-0.95-0.27-1.61-0.6-2.08H24.7c0.1,0.27,0.14,0.47,0.14,0.74
		C24.84,256.78,24.63,256.99,24.16,256.99z M24.92,261.97c0,0.56-0.31,0.93-0.78,0.93c-0.6,0-0.85-0.47-1.01-1.28l-0.25-1.36h0.14
		C24.22,260.26,24.92,261.03,24.92,261.97z"/>
	<path d="M27.11,248.35c0-2.7-2.12-4.08-4.84-4.08c-2.7,0-4.84,1.38-4.84,4.08c0,1.55,0.74,2.58,1.83,3.03h-1.59v3.34h12.49v-3.34
		h-4.86C26.37,250.93,27.11,249.9,27.11,248.35z M22.33,251.38H22.2c-1.32,0-2.18-0.72-2.18-1.85c0-1.3,0.93-1.9,2.25-1.9
		c1.34,0,2.27,0.6,2.27,1.9C24.53,250.66,23.67,251.38,22.33,251.38z"/>
	<rect x="13.87" y="239.59" width="2.93" height="3.38"/>
	<rect x="17.67" y="239.61" width="9.19" height="3.34"/>
	<path d="M26.28,231.7h-2.16c0.23,0.56,0.31,1.01,0.31,1.42c0,0.68-0.31,1.05-1.09,1.05h-3.36v-2.39h-2.31v2.39h-2.54v2.1l1.2,0.31
		c0.85,0.23,1.34,0.52,1.48,1.44l0.1,0.68h2.06v-1.24h4.33c2.16,0,2.8-1.46,2.8-3.01C27.11,233.2,26.8,232.4,26.28,231.7z"/>
	<path d="M27.07,222.61c0-0.95-0.27-1.61-0.6-2.08H24.7c0.1,0.27,0.14,0.47,0.14,0.74c0,0.35-0.21,0.56-0.68,0.56h-3.13
		c-2.56,0-3.61,1.79-3.61,4.23c0,2.76,1.4,4.27,3.42,4.56l0.21-3.09c-0.68-0.14-1.15-0.52-1.15-1.26c0-0.8,0.45-1.15,1.22-1.15h0.14
		l0.43,2.58c0.35,2,1.11,3.28,2.89,3.28c1.57,0,2.49-1.17,2.49-2.97c0-1.46-0.56-2.51-1.63-3.05
		C26.49,224.63,27.07,223.74,27.07,222.61z M24.14,227.74c-0.6,0-0.85-0.47-1.01-1.28l-0.25-1.36h0.14c1.2,0,1.9,0.76,1.9,1.71
		C24.92,227.37,24.61,227.74,24.14,227.74z"/>
	<rect x="13.87" y="216.22" width="12.99" height="3.34"/>
	<rect x="13.87" y="211.05" width="2.93" height="3.38"/>
	<rect x="17.67" y="211.07" width="9.19" height="3.34"/>
	<path d="M24.06,201.03c-1.79,0-2.72,1.2-3.05,3.26l-0.31,1.79c-0.04,0.31-0.21,0.56-0.52,0.56c-0.41,0-0.66-0.37-0.66-1.01
		c0-1.03,0.41-1.61,1.07-1.73l-0.08-2.74c-1.92,0.19-3.09,1.75-3.09,4.41c0,2.58,1.3,4.16,3.11,4.16c1.88,0,2.6-1.17,2.95-3.4
		l0.21-1.36c0.1-0.64,0.35-0.85,0.7-0.85c0.37,0,0.64,0.39,0.64,1.13c0,1.01-0.43,1.63-1.2,1.75l0.04,2.91
		c2.23-0.19,3.24-2.08,3.24-4.62C27.11,202.68,26,201.03,24.06,201.03z"/>
	<path d="M21.98,187.61h4.89v-3.34h-5.77c-1.92,0-3.67,0.74-3.67,3.28c0,1.55,0.78,2.64,1.81,3.13c-1.07,0.39-1.81,1.24-1.81,2.87
		c0,1.38,0.62,2.37,1.63,2.87h-1.38v3.34h9.19v-3.34h-4.51c-1.38,0-2.29-0.39-2.29-1.48c0-1.01,0.66-1.26,1.92-1.26h4.89v-3.34
		h-4.51c-1.38,0-2.29-0.37-2.29-1.48C20.06,187.84,20.72,187.61,21.98,187.61z"/>
	<rect x="13.87" y="175.51" width="12.99" height="3.5"/>
	<path d="M24.06,165.39c-1.79,0-2.72,1.2-3.05,3.26l-0.31,1.79c-0.04,0.31-0.21,0.56-0.52,0.56c-0.41,0-0.66-0.37-0.66-1.01
		c0-1.03,0.41-1.61,1.07-1.73l-0.08-2.74c-1.92,0.19-3.09,1.75-3.09,4.41c0,2.58,1.3,4.16,3.11,4.16c1.88,0,2.6-1.17,2.95-3.4
		l0.21-1.36c0.1-0.64,0.35-0.85,0.7-0.85c0.37,0,0.64,0.39,0.64,1.13c0,1.01-0.43,1.63-1.2,1.75l0.04,2.91
		c2.23-0.19,3.24-2.08,3.24-4.62C27.11,167.04,26,165.39,24.06,165.39z"/>
	<path d="M26.86,151.03v-3.73l-12.99,5.17v3.92l12.99,5.17v-3.53l-2.51-0.97V152L26.86,151.03z M21.73,156.06l-3.83-1.48v-0.08
		l3.83-1.48V156.06z"/>
	<polygon points="13.87,135.26 22.51,138.48 22.51,138.56 13.87,141.78 13.87,145.45 26.86,140.46 26.86,136.77 13.87,131.78 	"/>
	<rect x="13.87" y="127.51" width="2.93" height="3.38"/>
	<rect x="17.67" y="127.53" width="9.19" height="3.34"/>
	<path d="M19.3,122.38h-1.63v3.34h9.19v-3.34h-4.21c-1.55,0-2.12-0.76-2.12-2c0-0.64,0.12-1.13,0.39-1.59l-3.15-0.21
		c-0.19,0.23-0.35,0.72-0.35,1.28C17.42,121.08,18.27,122.05,19.3,122.38z"/>
	<path d="M22.57,114.32h-4.91v3.34h5.79c1.92,0,3.65-0.76,3.65-3.28c0-1.38-0.6-2.39-1.63-2.89h1.38v-3.34h-9.19v3.34h4.51
		c1.4,0,2.31,0.41,2.31,1.46C24.49,113.97,23.81,114.32,22.57,114.32z"/>
	<path d="M20.53,106.82c1.88,0,2.6-1.18,2.95-3.4l0.21-1.36c0.1-0.64,0.35-0.85,0.7-0.85c0.37,0,0.64,0.39,0.64,1.13
		c0,1.01-0.43,1.63-1.2,1.75l0.04,2.91c2.23-0.19,3.24-2.08,3.24-4.62c0-2.62-1.11-4.27-3.05-4.27c-1.79,0-2.72,1.2-3.05,3.26
		l-0.31,1.79c-0.04,0.31-0.21,0.56-0.52,0.56c-0.41,0-0.66-0.37-0.66-1.01c0-1.03,0.41-1.61,1.07-1.73l-0.08-2.74
		c-1.92,0.19-3.09,1.75-3.09,4.41C17.42,105.23,18.72,106.82,20.53,106.82z"/>
	<rect x="23.32" y="91.73" width="3.55" height="3.55"/>
	<path d="M22.26,88.85c2.87,0,4.84-2.02,4.84-5.03c0-2.99-1.98-5.03-4.84-5.03c-2.84,0-4.84,2.04-4.84,5.03
		C17.42,86.83,19.42,88.85,22.26,88.85z M22.26,82.15c1.38,0,2.33,0.52,2.33,1.67c0,1.17-0.95,1.67-2.33,1.67s-2.33-0.5-2.33-1.67
		C19.93,82.67,20.88,82.15,22.26,82.15z"/>
	<path d="M17.77,70.34c-0.19,0.23-0.35,0.72-0.35,1.28c0,1.22,0.85,2.19,1.88,2.51h-1.63v3.34h9.19v-3.34h-4.21
		c-1.55,0-2.12-0.76-2.12-2c0-0.64,0.12-1.13,0.39-1.59L17.77,70.34z"/>
	<path d="M27.07,59.66c-1.55,0-2.64,1.05-2.64,3.13v3.81c0,0.56-0.25,0.78-0.56,0.78c-0.19,0-0.33-0.06-0.43-0.19
		c0.19-0.6,0.27-1.26,0.27-2c0-2.6-1.2-4.47-3.13-4.47c-0.43,0-0.83,0.1-1.18,0.29c-0.1-0.45-0.14-0.95-0.14-1.34h-2.52
		c0,1.01,0.66,2.02,1.42,2.58c-0.47,0.78-0.74,1.83-0.74,2.95c0,2.58,1.2,4.43,3.15,4.43c1.01,0,1.79-0.49,2.33-1.32
		c0.37,0.99,1.05,1.57,1.94,1.57c0.78,0,1.53-0.5,1.79-1.32c0.08,1.03,0.72,1.75,1.53,1.75c1.73,0,2.25-2.27,2.25-4.89
		C30.41,62.45,29.36,59.66,27.07,59.66z M20.57,66.14c-0.8,0-1.32-0.41-1.32-0.97c0-0.56,0.52-0.97,1.32-0.97
		c0.82,0,1.34,0.41,1.34,0.97C21.91,65.72,21.4,66.14,20.57,66.14z M27.83,67.58c-0.35,0-0.56-0.25-0.56-0.62v-3.38
		c0-0.56,0.14-0.85,0.54-0.85c0.56,0,0.87,1.13,0.87,2.68C28.68,66.65,28.49,67.58,27.83,67.58z"/>
	<path d="M774.92,388.05v-2.49l-3.42-0.83v-2.02l-2.06-0.43v1.98l-2.02-0.5v-1.88l-2.06-0.43v1.81l-3.42-0.8v2.49l3.42,0.8v1.77
		l-3.42-0.8v2.49l3.42,0.8v2.04l2.06,0.43v-1.98l2.02,0.5v1.88l2.06,0.43v-1.83l3.42,0.82v-2.49l-3.42-0.82v-1.77L774.92,388.05z
		 M769.43,388.53l-2.02-0.5v-1.77l2.02,0.5V388.53z"/>
	<path d="M768.42,395.95c-4,0-6.74,2.87-6.74,6.66c0,3.98,2.51,6.1,5.75,6.35l0.14-3.36c-1.44-0.21-2.78-0.99-2.78-3.01
		c0-1.92,1.42-3.03,3.63-3.03s3.63,1.11,3.63,3.03c0,2.02-1.34,2.8-2.78,3.01l0.12,3.36c3.24-0.25,5.77-2.37,5.77-6.35
		C775.16,398.82,772.42,395.95,768.42,395.95z"/>
	<path d="M761.72,418.05c0,0.95,0.27,1.61,0.6,2.08h1.77c-0.1-0.27-0.14-0.47-0.14-0.74c0-0.35,0.21-0.56,0.68-0.56h3.13
		c2.56,0,3.61-1.79,3.61-4.23c0-2.76-1.4-4.27-3.42-4.56l-0.21,3.09c0.68,0.14,1.15,0.51,1.15,1.26c0,0.8-0.45,1.15-1.22,1.15h-0.14
		l-0.43-2.58c-0.35-2-1.11-3.28-2.89-3.28c-1.57,0-2.49,1.17-2.49,2.97c0,1.46,0.56,2.51,1.63,3.05
		C762.3,416.03,761.72,416.92,761.72,418.05z M764.65,412.92c0.6,0,0.85,0.47,1.01,1.28l0.25,1.36h-0.14c-1.2,0-1.9-0.76-1.9-1.71
		C763.87,413.29,764.18,412.92,764.65,412.92z"/>
	<path d="M761.68,427.47c0,2.7,2.12,4.08,4.84,4.08c2.7,0,4.84-1.38,4.84-4.08c0-1.55-0.74-2.58-1.83-3.03h1.59v-3.34h-12.49v3.34
		h4.86C762.42,424.89,761.68,425.92,761.68,427.47z M766.46,424.44h0.12c1.32,0,2.18,0.72,2.18,1.86c0,1.3-0.93,1.9-2.25,1.9
		c-1.34,0-2.27-0.6-2.27-1.9C764.26,425.16,765.12,424.44,766.46,424.44z"/>
	<rect x="771.99" y="432.85" width="2.93" height="3.38"/>
	<rect x="761.93" y="432.87" width="9.19" height="3.34"/>
	<path d="M773.66,439.54l-1.2-0.31c-0.85-0.23-1.34-0.51-1.48-1.44l-0.1-0.68h-2.06v1.24h-4.33c-2.16,0-2.8,1.46-2.8,3.01
		c0,1.26,0.31,2.06,0.82,2.76h2.16c-0.23-0.56-0.31-1.01-0.31-1.42c0-0.68,0.31-1.05,1.09-1.05h3.36v2.39h2.31v-2.39h2.54V439.54z"
		/>
	<path d="M764.63,453.99h3.13c2.56,0,3.61-1.79,3.61-4.23c0-2.76-1.4-4.27-3.42-4.56l-0.21,3.09c0.68,0.14,1.15,0.51,1.15,1.26
		c0,0.8-0.45,1.15-1.22,1.15h-0.14l-0.43-2.58c-0.35-2-1.11-3.28-2.89-3.28c-1.57,0-2.49,1.18-2.49,2.97c0,1.46,0.56,2.51,1.63,3.05
		c-1.05,0.31-1.63,1.2-1.63,2.33c0,0.95,0.27,1.61,0.6,2.08h1.77c-0.1-0.27-0.14-0.47-0.14-0.74
		C763.95,454.2,764.16,453.99,764.63,453.99z M763.87,449c0-0.56,0.31-0.93,0.78-0.93c0.6,0,0.85,0.47,1.01,1.28l0.25,1.36h-0.14
		C764.57,450.72,763.87,449.95,763.87,449z"/>
	<rect x="761.93" y="456.26" width="12.99" height="3.34"/>
	<rect x="771.99" y="461.39" width="2.93" height="3.38"/>
	<rect x="761.93" y="461.41" width="9.19" height="3.34"/>
	<path d="M768.26,466.09c-1.88,0-2.6,1.18-2.95,3.4l-0.21,1.36c-0.1,0.64-0.35,0.85-0.7,0.85c-0.37,0-0.64-0.39-0.64-1.13
		c0-1.01,0.43-1.63,1.2-1.75l-0.04-2.91c-2.23,0.19-3.24,2.08-3.24,4.62c0,2.62,1.11,4.27,3.05,4.27c1.79,0,2.72-1.2,3.05-3.26
		l0.31-1.79c0.04-0.31,0.21-0.56,0.52-0.56c0.41,0,0.66,0.37,0.66,1.01c0,1.03-0.41,1.61-1.07,1.73l0.08,2.74
		c1.92-0.19,3.09-1.75,3.09-4.41C771.37,467.68,770.07,466.09,768.26,466.09z"/>
	<path d="M771.37,482.27c0-1.38-0.62-2.37-1.63-2.87h1.38v-3.34h-9.19v3.34h4.51c1.38,0,2.29,0.39,2.29,1.48
		c0,1.01-0.66,1.26-1.92,1.26h-4.89v3.34h4.51c1.38,0,2.29,0.37,2.29,1.48c0,1.01-0.66,1.24-1.92,1.24h-4.89v3.34h5.77
		c1.92,0,3.67-0.74,3.67-3.28c0-1.55-0.78-2.64-1.81-3.13C770.63,484.74,771.37,483.9,771.37,482.27z"/>
	<rect x="761.93" y="495.14" width="12.99" height="3.5"/>
	<path d="M764.96,502.78l-0.04-2.91c-2.23,0.19-3.24,2.08-3.24,4.62c0,2.62,1.11,4.27,3.05,4.27c1.79,0,2.72-1.2,3.05-3.26
		l0.31-1.79c0.04-0.31,0.21-0.56,0.52-0.56c0.41,0,0.66,0.37,0.66,1.01c0,1.03-0.41,1.61-1.07,1.73l0.08,2.74
		c1.92-0.19,3.09-1.75,3.09-4.41c0-2.58-1.3-4.16-3.11-4.16c-1.88,0-2.6,1.18-2.95,3.4l-0.21,1.36c-0.1,0.64-0.35,0.85-0.7,0.85
		c-0.37,0-0.64-0.39-0.64-1.13C763.76,503.53,764.2,502.91,764.96,502.78z"/>
	<path d="M761.93,514.46l2.51,0.97v5.07l-2.51,0.97v3.73l12.99-5.17v-3.92l-12.99-5.17V514.46z M767.06,516.44l3.83,1.48V518
		l-3.83,1.48V516.44z"/>
	<polygon points="761.93,535.67 774.92,540.66 774.92,537.18 766.28,533.96 766.28,533.88 774.92,530.66 774.92,526.99 
		761.93,531.98 	"/>
	<rect x="761.93" y="541.56" width="9.19" height="3.34"/>
	<rect x="771.99" y="541.54" width="2.93" height="3.38"/>
	<path d="M769.49,550.06h1.63v-3.34h-9.19v3.34h4.21c1.55,0,2.12,0.76,2.12,2c0,0.64-0.12,1.13-0.39,1.59l3.15,0.21
		c0.19-0.23,0.35-0.72,0.35-1.28C771.37,551.36,770.52,550.39,769.49,550.06z"/>
	<path d="M766.22,558.12h4.91v-3.34h-5.79c-1.92,0-3.65,0.76-3.65,3.28c0,1.38,0.6,2.39,1.63,2.89h-1.38v3.34h9.19v-3.34h-4.51
		c-1.4,0-2.31-0.41-2.31-1.46C764.3,558.47,764.98,558.12,766.22,558.12z"/>
	<path d="M768.26,565.62c-1.88,0-2.6,1.17-2.95,3.4l-0.21,1.36c-0.1,0.64-0.35,0.85-0.7,0.85c-0.37,0-0.64-0.39-0.64-1.13
		c0-1.01,0.43-1.63,1.2-1.75l-0.04-2.91c-2.23,0.19-3.24,2.08-3.24,4.62c0,2.62,1.11,4.27,3.05,4.27c1.79,0,2.72-1.2,3.05-3.26
		l0.31-1.79c0.04-0.31,0.21-0.56,0.52-0.56c0.41,0,0.66,0.37,0.66,1.01c0,1.03-0.41,1.61-1.07,1.73l0.08,2.74
		c1.92-0.19,3.09-1.75,3.09-4.41C771.37,567.2,770.07,565.62,768.26,565.62z"/>
</g>
</svg>
