<?xml version="1.0" encoding="utf-8"?>
<!-- Generator: Adobe Illustrator 23.1.1, SVG Export Plug-In . SVG Version: 6.00 Build 0)  -->
<svg version="1.1" xmlns="http://www.w3.org/2000/svg" xmlns:xlink="http://www.w3.org/1999/xlink" x="0px" y="0px"
	 viewBox="0 0 792 612" style="enable-background:new 0 0 792 612;" xml:space="preserve">
<style type="text/css">
	.st0{display:none;}
	.st1{display:inline;}
	
		.st2{display:inline;fill:#FFFFFF;stroke:#000000;stroke-width:16;stroke-linecap:round;stroke-linejoin:round;stroke-miterlimit:10;}
	.st3{fill:#FFFFFF;stroke:#000000;stroke-width:16;stroke-linecap:round;stroke-linejoin:round;stroke-miterlimit:10;}
	.st4{display:inline;fill:none;stroke:#000000;stroke-width:24;stroke-linejoin:round;stroke-miterlimit:10;}
	.st5{display:inline;fill:#FFFFFF;}
	.st6{fill:#FFFFFF;stroke:#000000;stroke-width:17;stroke-linecap:round;stroke-miterlimit:10;}
	.st7{fill:#FFFFFF;stroke:#000000;stroke-width:17;stroke-miterlimit:10;}
	.st8{stroke:#000000;stroke-width:16.0572;stroke-linecap:round;stroke-miterlimit:10;}
	.st9{fill:#FFFFFF;}
	.st10{fill:#FFFFFF;stroke:#000000;stroke-width:17.1072;stroke-linecap:round;stroke-linejoin:round;stroke-miterlimit:10;}
	.st11{stroke:#000000;stroke-width:17.1072;stroke-linecap:round;stroke-linejoin:round;stroke-miterlimit:10;}
	.st12{fill:#FFFFFF;stroke:#000000;stroke-width:14.7375;stroke-linecap:round;stroke-linejoin:round;stroke-miterlimit:10;}
	.st13{fill:none;stroke:#000000;stroke-width:14.7375;stroke-linecap:round;stroke-linejoin:round;stroke-miterlimit:10;}
	.st14{stroke:#000000;stroke-width:14.7375;stroke-linecap:round;stroke-linejoin:round;stroke-miterlimit:10;}
	.st15{fill:#FFFFFF;stroke:#000000;stroke-width:14.2911;stroke-linecap:round;stroke-linejoin:round;stroke-miterlimit:10;}
	.st16{font-family:'FoundersGrotesk-Bold';}
	.st17{font-size:306.1621px;}
	.st18{letter-spacing:7;}
	.st19{font-size:162.5827px;}
	.st20{fill:none;stroke:#000000;stroke-width:13.497;stroke-miterlimit:10;}
	.st21{fill:#FFFFFF;stroke:#000000;stroke-width:13.497;stroke-linecap:round;stroke-linejoin:round;stroke-miterlimit:10;}
	.st22{fill:#FFFFFF;stroke:#000000;stroke-width:13.497;stroke-miterlimit:10;}
	.st23{fill:#FFFFFF;stroke:#000000;stroke-width:14.7439;stroke-linecap:round;stroke-miterlimit:10;}
	.st24{fill:#FFFFFF;stroke:#000000;stroke-width:14.7439;stroke-miterlimit:10;}
	.st25{stroke:#000000;stroke-width:13.9262;stroke-linecap:round;stroke-miterlimit:10;}
	
		.st26{display:inline;fill:#FFFFFF;stroke:#000000;stroke-width:14.6942;stroke-linecap:round;stroke-linejoin:round;stroke-miterlimit:10;}
	.st27{fill:#FFFFFF;stroke:#000000;stroke-width:14.6942;stroke-linecap:round;stroke-linejoin:round;stroke-miterlimit:10;}
	.st28{fill:none;stroke:#000000;stroke-width:24;stroke-linejoin:round;stroke-miterlimit:10;}
	.st29{fill:none;stroke:#000000;stroke-width:30.5612;stroke-linecap:round;stroke-linejoin:round;stroke-miterlimit:10;}
	.st30{fill:#FFFFFF;stroke:#000000;stroke-width:16.2993;stroke-linecap:round;stroke-linejoin:round;stroke-miterlimit:10;}
	.st31{display:inline;fill:#FFFFFF;stroke:#000000;stroke-width:13.497;stroke-linecap:round;stroke-miterlimit:10;}
	
		.st32{display:inline;fill:none;stroke:#000000;stroke-width:13.497;stroke-linecap:round;stroke-linejoin:round;stroke-miterlimit:10;}
	
		.st33{display:inline;fill:#FFFFFF;stroke:#000000;stroke-width:13.497;stroke-linecap:round;stroke-linejoin:round;stroke-miterlimit:10;}
	
		.st34{display:inline;fill:url(#);stroke:#000000;stroke-width:13.497;stroke-linecap:round;stroke-linejoin:round;stroke-miterlimit:10;}
	.st35{fill:#FFFFFF;stroke:#000000;stroke-width:15.2362;stroke-linecap:round;stroke-linejoin:round;stroke-miterlimit:10;}
	.st36{fill:#FFFFFF;stroke:#000000;stroke-width:14.8467;stroke-linecap:round;stroke-linejoin:round;stroke-miterlimit:10;}
	.st37{stroke:#000000;stroke-width:20.1683;stroke-linecap:round;stroke-miterlimit:10;}
	.st38{fill:none;stroke:#000000;stroke-width:14.8467;stroke-linecap:round;stroke-linejoin:round;stroke-miterlimit:10;}
	.st39{fill:#FFFFFF;stroke:#FFFFFF;stroke-width:3;stroke-miterlimit:10;}
	.st40{display:inline;fill:none;stroke:#000000;stroke-width:15;stroke-linecap:round;stroke-linejoin:round;stroke-miterlimit:10;}
	
		.st41{display:inline;fill:#FFFFFF;stroke:#000000;stroke-width:15;stroke-linecap:round;stroke-linejoin:round;stroke-miterlimit:10;}
	.st42{fill:#FFFFFF;stroke:#000000;stroke-width:15;stroke-linecap:round;stroke-linejoin:round;stroke-miterlimit:10;}
	.st43{fill:#FFFFFF;stroke:#000000;stroke-width:11.7326;stroke-linecap:round;stroke-linejoin:round;stroke-miterlimit:10;}
	.st44{fill:#FFFFFF;stroke:#000000;stroke-width:13.2623;stroke-linecap:round;stroke-linejoin:round;stroke-miterlimit:10;}
	.st45{fill:none;stroke:#000000;stroke-width:16;stroke-linecap:round;stroke-miterlimit:10;}
	.st46{fill:url(#);stroke:#000000;stroke-width:16;stroke-linecap:round;stroke-linejoin:round;stroke-miterlimit:10;}
	.st47{fill:#FFFFFF;stroke:#000000;stroke-width:16;stroke-linecap:round;stroke-miterlimit:10;}
	.st48{fill:#FFFFFF;stroke:#000000;stroke-width:13.2623;stroke-linecap:round;stroke-miterlimit:10;}
	.st49{stroke:#000000;stroke-width:4.5213;stroke-miterlimit:10;}
	.st50{fill:none;stroke:#000000;stroke-width:15.2344;stroke-linecap:round;stroke-linejoin:round;stroke-miterlimit:10;}
	.st51{fill:#FFFFFF;stroke:#000000;stroke-width:15.2344;stroke-linecap:round;stroke-linejoin:round;stroke-miterlimit:10;}
	.st52{stroke:#000000;stroke-width:18.3348;stroke-linecap:round;stroke-miterlimit:10;}
	.st53{fill:none;stroke:#000000;stroke-width:13.497;stroke-linecap:round;stroke-linejoin:round;stroke-miterlimit:10;}
	.st54{font-size:20.6105px;}
	.st55{font-size:10.3052px;}
	.st56{font-size:19.2364px;}
	.st57{font-size:10px;}
	.st58{display:inline;fill:none;stroke:#000000;stroke-width:16;stroke-linecap:round;stroke-linejoin:round;stroke-miterlimit:10;}
	.st59{fill:#FFFFFF;stroke:#000000;stroke-width:13.3058;stroke-linecap:round;stroke-linejoin:round;stroke-miterlimit:10;}
	.st60{fill:#FFFFFF;stroke:#000000;stroke-width:17;stroke-linecap:round;stroke-linejoin:round;stroke-miterlimit:10;}
	.st61{fill:#FFFFFF;stroke:#000000;stroke-width:15.2517;stroke-linecap:round;stroke-linejoin:round;stroke-miterlimit:10;}
	.st62{stroke:#000000;stroke-width:3;stroke-miterlimit:10;}
	.st63{fill:#FFFFFF;stroke:#000000;stroke-width:16.0686;stroke-linecap:round;stroke-linejoin:round;stroke-miterlimit:10;}
	.st64{fill:#FFFFFF;stroke:#000000;stroke-width:15;stroke-linejoin:round;stroke-miterlimit:10;}
	.st65{fill:url(#);stroke:#000000;stroke-width:13.497;stroke-linecap:round;stroke-linejoin:round;stroke-miterlimit:10;}
	.st66{fill:#06A6FF;}
	.st67{fill:#FF0303;}
	.st68{fill:#3DFF06;}
	.st69{fill:#FFF808;}
	.st70{fill:none;stroke:#000000;stroke-width:0;stroke-linecap:round;stroke-linejoin:round;}
</style>
<g id="unexpanded" class="st0">
	<g class="st1">
		<text transform="matrix(1 0 0 1 96.3224 246.8203)"><tspan x="0" y="0" class="st16 st17 st18">END</tspan><tspan x="-91.72" y="152.87" class="st16 st19">Healthcare</tspan><tspan x="45.41" y="305.74" class="st16 st19">GREED</tspan></text>
	</g>
	<g class="st1">
		<g>
			<text transform="matrix(1 0 0 1 258.9681 599.7979)"><tspan x="0" y="0" class="st16 st54">www</tspan><tspan x="45.14" y="0" class="st16 st55"> </tspan><tspan x="46.99" y="0" class="st16 st54">.</tspan><tspan x="51.77" y="0" class="st16 st55"> </tspan><tspan x="53.63" y="0" class="st16 st54">Capitalism</tspan><tspan x="150.43" y="0" class="st16 st56"> </tspan><tspan x="153.9" y="0" class="st16 st54">Is</tspan><tspan x="168.88" y="0" class="st16 st56"> </tspan><tspan x="172.34" y="0" class="st16 st54">A</tspan><tspan x="186.6" y="0" class="st16 st55"> </tspan><tspan x="188.46" y="0" class="st16 st54">Virus</tspan><tspan x="236.15" y="0" class="st16 st55"> </tspan><tspan x="238.01" y="0" class="st16 st54">.</tspan><tspan x="242.79" y="0" class="st16 st55"> </tspan><tspan x="244.64" y="0" class="st16 st54">org</tspan></text>
		</g>
		<g>
			<text transform="matrix(1 0 0 1 299.1799 22.1245)"><tspan x="0" y="0" class="st16 st54">#</tspan><tspan x="12.7" y="0" class="st16 st57"> </tspan><tspan x="14.5" y="0" class="st16 st54">Capitalism</tspan><tspan x="111.3" y="0" class="st16 st57"> </tspan><tspan x="113.1" y="0" class="st16 st54">Is</tspan><tspan x="128.09" y="0" class="st16 st57"> </tspan><tspan x="129.89" y="0" class="st16 st54">A</tspan><tspan x="144.15" y="0" class="st16 st57"> </tspan><tspan x="145.95" y="0" class="st16 st54">Virus</tspan></text>
		</g>
	</g>
</g>
<g id="expanded">
	<polygon points="262.88,203.96 162.15,203.96 162.15,170.58 237.77,170.58 237.77,128.33 162.15,128.33 162.15,96.8 260.12,96.8 
		260.12,53.93 111.02,53.93 111.02,246.82 262.88,246.82 	"/>
	<polygon points="341.56,132.62 424.83,246.82 466.47,246.82 466.47,53.93 418.71,53.93 418.71,160.79 343.39,53.93 293.79,53.93 
		293.79,246.82 341.56,246.82 	"/>
	<path d="M683.23,150.38c0-60.31-39.5-96.44-103.48-96.44h-76.24v192.89h76.24C643.74,246.82,683.23,210.69,683.23,150.38z
		 M576.07,205.79h-20.51V94.96h20.51c33.68,0,53.58,20.21,53.58,55.11C629.65,185.59,609.75,205.79,576.07,205.79z"/>
	<polygon points="40.7,359.21 81.5,359.21 81.5,399.69 109.14,399.69 109.14,297.26 81.5,297.26 81.5,336.77 40.7,336.77 
		40.7,297.26 13.06,297.26 13.06,399.69 40.7,399.69 	"/>
	<path d="M196.77,361.48c0-19.67-12.84-36.26-37.07-36.26c-22.6,0-39.51,16.42-39.51,39.35c0,23.09,16.58,37.07,39.83,37.07
		c19.18,0,32.52-9.27,36.26-25.85l-21.14-1.95c-2.44,5.69-6.99,8.13-14.14,8.13c-7.97,0-14.47-4.23-15.12-13.17h50.89V361.48z
		 M146.21,356.12c0.98-6.83,4.71-12.03,13.17-12.03c7.8,0,12.03,5.53,12.36,12.03H146.21z"/>
	<path d="M285.54,396.6v-13.98c-2.11,0.81-3.74,1.14-5.85,1.14c-2.76,0-4.39-1.63-4.39-5.37v-24.71c0-20.16-14.14-28.45-33.33-28.45
		c-21.79,0-33.65,11.06-35.93,26.99l24.39,1.63c1.14-5.37,4.06-9.1,9.92-9.1c6.34,0,9.1,3.58,9.1,9.59v1.14l-20.32,3.41
		c-15.77,2.76-25.85,8.78-25.85,22.76c0,12.36,9.27,19.67,23.41,19.67c11.54,0,19.83-4.39,24.06-12.84
		c2.44,8.29,9.43,12.84,18.37,12.84C276.6,401.32,281.8,399.2,285.54,396.6z M249.45,369.45c0,9.43-6.02,14.96-13.49,14.96
		c-4.39,0-7.32-2.44-7.32-6.18c0-4.71,3.74-6.67,10.08-7.97l10.73-1.95V369.45z"/>
	<rect x="293.18" y="297.26" width="26.34" height="102.43"/>
	<path d="M381.95,378.07c-4.39,1.79-7.97,2.44-11.22,2.44c-5.37,0-8.29-2.44-8.29-8.62v-26.5h18.86v-18.21h-18.86v-20h-16.58
		l-2.44,9.43c-1.79,6.67-4.06,10.57-11.38,11.71l-5.37,0.81v16.26h9.75v34.14c0,17.07,11.54,22.11,23.74,22.11
		c9.92,0,16.26-2.44,21.79-6.5V378.07z"/>
	<path d="M467.96,399.69v-45.52c0-15.12-6.34-28.94-26.18-28.94c-10.89,0-19.51,4.88-23.41,12.84v-40.81h-26.34v102.43h26.34v-35.61
		c0-10.89,3.58-18.05,12.52-18.05c7.97,0,10.73,5.2,10.73,15.12v38.53H467.96z"/>
	<path d="M552.98,370.1l-21.62-1.63c-1.79,8.94-6.18,13.33-13.82,13.33c-7.97,0-13.49-5.37-13.49-18.37
		c0-13.01,5.53-18.37,13.49-18.37c7.64,0,12.03,4.23,13.82,13.17l21.62-1.46c-1.79-17.4-13.98-31.54-35.77-31.54
		c-22.92,0-39.67,15.28-39.67,38.21c0,23.09,16.75,38.21,39.67,38.21C539,401.64,551.2,387.66,552.98,370.1z"/>
	<path d="M584.69,358.88c-15.77,2.76-25.85,8.78-25.85,22.76c0,12.36,9.27,19.67,23.41,19.67c11.54,0,19.83-4.39,24.06-12.84
		c2.44,8.29,9.43,12.84,18.37,12.84c7.48,0,12.68-2.11,16.42-4.71v-13.98c-2.11,0.81-3.74,1.14-5.85,1.14
		c-2.76,0-4.39-1.63-4.39-5.37v-24.71c0-20.16-14.14-28.45-33.33-28.45c-21.79,0-33.65,11.06-35.93,26.99l24.39,1.63
		c1.14-5.37,4.06-9.1,9.92-9.1c6.34,0,9.1,3.58,9.1,9.59v1.14L584.69,358.88z M605.01,369.45c0,9.43-6.02,14.96-13.49,14.96
		c-4.39,0-7.32-2.44-7.32-6.18c0-4.71,3.74-6.67,10.08-7.97l10.73-1.95V369.45z"/>
	<path d="M675.08,366.52c0-12.19,6.02-16.75,15.77-16.75c5.04,0,8.94,0.98,12.52,3.09l1.63-24.88c-1.79-1.46-5.69-2.76-10.08-2.76
		c-9.59,0-17.23,6.67-19.83,14.79v-12.84h-26.34v72.51h26.34V366.52z"/>
	<path d="M784.5,361.48c0-19.67-12.84-36.26-37.07-36.26c-22.6,0-39.51,16.42-39.51,39.35c0,23.09,16.58,37.07,39.83,37.07
		c19.18,0,32.52-9.27,36.26-25.85l-21.14-1.95c-2.44,5.69-6.99,8.13-14.14,8.13c-7.97,0-14.47-4.23-15.12-13.17h50.89V361.48z
		 M733.94,356.12c0.98-6.83,4.71-12.03,13.17-12.03c7.8,0,12.03,5.53,12.36,12.03H733.94z"/>
	<path d="M248.55,552.56V499.4h-48.77v19.83h22.6c-4.06,8.13-12.84,11.87-21.79,11.87c-17.72,0-27.15-11.87-27.15-29.75
		c0-17.4,8.94-28.61,25.04-28.61c13.17,0,20.97,7.15,22.44,18.37l26.83-0.98c-2.28-25.53-19.83-41.95-49.91-41.95
		c-29.59,0-52.84,21.62-52.84,53.16c0,31.7,21.46,53.16,49.75,53.16c13.17,0,24.06-3.9,29.75-13.33v11.38H248.55z"/>
	<path d="M350.82,528.99c-1.14-11.87-7.32-17.88-17.88-20c12.52-1.63,21.79-11.38,21.79-26.34c0-20-13.17-32.52-39.67-32.52h-51.7
		v102.43h27.15v-33.98h18.37c9.27,0,14.31,2.6,15.12,14.31c0.81,10.57,2.11,16.91,4.23,19.67h27.96
		C352.77,548.82,352.28,544.27,350.82,528.99z M310.17,497.28H290.5v-25.04h19.67c11.71,0,17.56,4.39,17.56,12.68
		C327.73,494.36,321.88,497.28,310.17,497.28z"/>
	<polygon points="447.55,529.8 394.06,529.8 394.06,512.08 434.22,512.08 434.22,489.64 394.06,489.64 394.06,472.89 446.09,472.89 
		446.09,450.13 366.91,450.13 366.91,552.56 447.55,552.56 	"/>
	<polygon points="540.55,529.8 487.06,529.8 487.06,512.08 527.22,512.08 527.22,489.64 487.06,489.64 487.06,472.89 539.09,472.89 
		539.09,450.13 459.91,450.13 459.91,552.56 540.55,552.56 	"/>
	<path d="M648.34,501.35c0-32.03-20.97-51.21-54.95-51.21H552.9v102.43h40.48C627.37,552.56,648.34,533.38,648.34,501.35z
		 M580.54,530.77v-58.85h10.89c17.88,0,28.45,10.73,28.45,29.27c0,18.86-10.57,29.59-28.45,29.59H580.54z"/>
	<polygon points="265.16,599.8 266.5,594.6 266.58,594.6 267.92,599.8 271.2,599.8 274.07,590.74 276.93,599.8 280.21,599.8 
		281.55,594.6 281.63,594.6 282.97,599.8 286.25,599.8 289.11,590.74 291.98,599.8 295.25,599.8 296.59,594.6 296.68,594.6 
		298.02,599.8 301.29,599.8 304.2,590.6 301.19,590.6 299.54,595.82 299.46,595.82 298.12,590.6 295.46,590.6 294.12,595.82 
		294.04,595.82 292.39,590.6 289.16,590.6 289.07,590.6 286.15,590.6 284.5,595.82 284.41,595.82 283.07,590.6 280.41,590.6 
		279.07,595.82 278.99,595.82 277.34,590.6 274.11,590.6 274.02,590.6 271.1,590.6 269.45,595.82 269.37,595.82 268.03,590.6 
		265.37,590.6 264.03,595.82 263.95,595.82 262.3,590.6 258.98,590.6 261.88,599.8 	"/>
	<rect x="306.63" y="596.25" width="3.55" height="3.55"/>
	<path d="M319.7,589.68c2.02,0,2.8,1.34,3.01,2.78l3.36-0.12c-0.25-3.24-2.37-5.77-6.35-5.77c-3.79,0-6.66,2.74-6.66,6.74
		s2.87,6.74,6.66,6.74c3.98,0,6.1-2.51,6.35-5.75l-3.36-0.14c-0.21,1.44-0.99,2.78-3.01,2.78c-1.92,0-3.03-1.42-3.03-3.63
		S317.78,589.68,319.7,589.68z"/>
	<path d="M332.83,598.38c0.31,1.05,1.2,1.63,2.33,1.63c0.95,0,1.61-0.27,2.08-0.6v-1.77c-0.27,0.1-0.47,0.14-0.74,0.14
		c-0.35,0-0.56-0.21-0.56-0.68v-3.13c0-2.56-1.79-3.61-4.23-3.61c-2.76,0-4.27,1.4-4.56,3.42l3.09,0.21
		c0.14-0.68,0.52-1.15,1.26-1.15c0.8,0,1.15,0.45,1.15,1.22v0.14l-2.58,0.43c-2,0.35-3.28,1.11-3.28,2.89
		c0,1.57,1.18,2.49,2.97,2.49C331.24,600,332.29,599.45,332.83,598.38z M330.95,597.86c-0.56,0-0.93-0.31-0.93-0.78
		c0-0.6,0.47-0.85,1.28-1.01l1.36-0.25v0.14C332.66,597.16,331.9,597.86,330.95,597.86z"/>
	<path d="M338.2,590.6v12.49h3.34v-4.86c0.45,1.07,1.48,1.81,3.03,1.81c2.7,0,4.08-2.12,4.08-4.84c0-2.7-1.38-4.84-4.08-4.84
		c-1.55,0-2.58,0.74-3.03,1.83v-1.59H338.2z M343.4,592.95c1.3,0,1.9,0.93,1.9,2.25c0,1.34-0.6,2.27-1.9,2.27
		c-1.13,0-1.85-0.87-1.85-2.21v-0.12C341.54,593.82,342.27,592.95,343.4,592.95z"/>
	<rect x="349.97" y="590.6" width="3.34" height="9.19"/>
	<rect x="349.95" y="586.81" width="3.38" height="2.93"/>
	<path d="M358.46,600.04c1.26,0,2.06-0.31,2.76-0.82v-2.16c-0.56,0.23-1.01,0.31-1.42,0.31c-0.68,0-1.05-0.31-1.05-1.09v-3.36h2.39
		v-2.31h-2.39v-2.54h-2.1l-0.31,1.2c-0.23,0.85-0.52,1.34-1.44,1.48l-0.68,0.1v2.06h1.24v4.33
		C355.46,599.41,356.92,600.04,358.46,600.04z"/>
	<path d="M365.25,594.62c-2,0.35-3.28,1.11-3.28,2.89c0,1.57,1.17,2.49,2.97,2.49c1.46,0,2.51-0.56,3.05-1.63
		c0.31,1.05,1.2,1.63,2.33,1.63c0.95,0,1.61-0.27,2.08-0.6v-1.77c-0.27,0.1-0.47,0.14-0.74,0.14c-0.35,0-0.56-0.21-0.56-0.68v-3.13
		c0-2.56-1.79-3.61-4.23-3.61c-2.76,0-4.27,1.4-4.56,3.42l3.09,0.21c0.14-0.68,0.52-1.15,1.26-1.15c0.8,0,1.15,0.45,1.15,1.22v0.14
		L365.25,594.62z M367.82,595.96c0,1.2-0.76,1.9-1.71,1.9c-0.56,0-0.93-0.31-0.93-0.78c0-0.6,0.47-0.85,1.28-1.01l1.36-0.25V595.96z
		"/>
	<rect x="373.37" y="586.81" width="3.34" height="12.99"/>
	<rect x="378.52" y="590.6" width="3.34" height="9.19"/>
	<rect x="378.5" y="586.81" width="3.38" height="2.93"/>
	<path d="M387.67,597.96c-1.01,0-1.63-0.43-1.75-1.2l-2.91,0.04c0.19,2.23,2.08,3.24,4.62,3.24c2.62,0,4.27-1.11,4.27-3.05
		c0-1.79-1.2-2.72-3.26-3.05l-1.79-0.31c-0.31-0.04-0.56-0.21-0.56-0.52c0-0.41,0.37-0.66,1.01-0.66c1.03,0,1.61,0.41,1.73,1.07
		l2.74-0.08c-0.19-1.92-1.75-3.09-4.41-3.09c-2.58,0-4.16,1.3-4.16,3.11c0,1.88,1.17,2.6,3.4,2.95l1.36,0.21
		c0.64,0.1,0.85,0.35,0.85,0.7C388.8,597.7,388.41,597.96,387.67,597.96z"/>
	<path d="M408.65,599.8v-5.77c0-1.92-0.74-3.67-3.28-3.67c-1.55,0-2.64,0.78-3.13,1.81c-0.39-1.07-1.24-1.81-2.87-1.81
		c-1.38,0-2.37,0.62-2.87,1.63v-1.38h-3.34v9.19h3.34v-4.51c0-1.38,0.39-2.29,1.48-2.29c1.01,0,1.26,0.66,1.26,1.92v4.89h3.34v-4.51
		c0-1.38,0.37-2.29,1.48-2.29c1.01,0,1.24,0.66,1.24,1.92v4.89H408.65z"/>
	<rect x="413.91" y="586.81" width="3.5" height="12.99"/>
	<path d="M423.3,597.96c-1.01,0-1.63-0.43-1.75-1.2l-2.91,0.04c0.19,2.23,2.08,3.24,4.62,3.24c2.62,0,4.27-1.11,4.27-3.05
		c0-1.79-1.2-2.72-3.26-3.05l-1.79-0.31c-0.31-0.04-0.56-0.21-0.56-0.52c0-0.41,0.37-0.66,1.01-0.66c1.03,0,1.61,0.41,1.73,1.07
		l2.74-0.08c-0.19-1.92-1.75-3.09-4.41-3.09c-2.58,0-4.16,1.3-4.16,3.11c0,1.88,1.17,2.6,3.4,2.95l1.36,0.21
		c0.64,0.1,0.84,0.35,0.84,0.7C424.44,597.7,424.05,597.96,423.3,597.96z"/>
	<path d="M431.36,599.8h3.53l0.97-2.51h5.07l0.97,2.51h3.73l-5.17-12.99h-3.92L431.36,599.8z M438.35,590.83h0.08l1.48,3.83h-3.05
		L438.35,590.83z"/>
	<polygon points="456.16,599.8 461.15,586.81 457.66,586.81 454.45,595.45 454.36,595.45 451.15,586.81 447.48,586.81 452.47,599.8 
			"/>
	<rect x="462.03" y="586.81" width="3.38" height="2.93"/>
	<rect x="462.05" y="590.6" width="3.34" height="9.19"/>
	<path d="M467.2,590.6v9.19h3.34v-4.21c0-1.55,0.76-2.12,2-2.12c0.64,0,1.13,0.12,1.59,0.39l0.21-3.15
		c-0.23-0.19-0.72-0.35-1.28-0.35c-1.22,0-2.19,0.85-2.52,1.88v-1.63H467.2z"/>
	<path d="M484.77,599.8v-9.19h-3.34v4.51c0,1.4-0.41,2.31-1.46,2.31c-1.01,0-1.36-0.68-1.36-1.92v-4.91h-3.34v5.79
		c0,1.92,0.76,3.65,3.28,3.65c1.38,0,2.39-0.6,2.89-1.63v1.38H484.77z"/>
	<path d="M490.58,597.96c-1.01,0-1.63-0.43-1.75-1.2l-2.91,0.04c0.19,2.23,2.08,3.24,4.62,3.24c2.62,0,4.27-1.11,4.27-3.05
		c0-1.79-1.2-2.72-3.26-3.05l-1.79-0.31c-0.31-0.04-0.56-0.21-0.56-0.52c0-0.41,0.37-0.66,1.01-0.66c1.03,0,1.61,0.41,1.73,1.07
		l2.74-0.08c-0.19-1.92-1.75-3.09-4.41-3.09c-2.58,0-4.16,1.3-4.16,3.11c0,1.88,1.18,2.6,3.4,2.95l1.36,0.21
		c0.64,0.1,0.84,0.35,0.84,0.7C491.71,597.7,491.32,597.96,490.58,597.96z"/>
	<rect x="497.64" y="596.25" width="3.55" height="3.55"/>
	<path d="M504.08,595.2c0,2.87,2.02,4.84,5.03,4.84c2.99,0,5.03-1.98,5.03-4.84c0-2.84-2.04-4.84-5.03-4.84
		C506.1,590.36,504.08,592.36,504.08,595.2z M510.77,595.2c0,1.38-0.52,2.33-1.67,2.33c-1.18,0-1.67-0.95-1.67-2.33
		s0.49-2.33,1.67-2.33C510.26,592.87,510.77,593.82,510.77,595.2z"/>
	<path d="M515.45,590.6v9.19h3.34v-4.21c0-1.55,0.76-2.12,2-2.12c0.64,0,1.13,0.12,1.59,0.39l0.21-3.15
		c-0.23-0.19-0.72-0.35-1.28-0.35c-1.22,0-2.19,0.85-2.51,1.88v-1.63H515.45z"/>
	<path d="M522.6,601.1c0,1.73,2.27,2.25,4.89,2.25c2.99,0,5.77-1.05,5.77-3.34c0-1.55-1.05-2.64-3.13-2.64h-3.81
		c-0.56,0-0.78-0.25-0.78-0.56c0-0.19,0.06-0.33,0.19-0.43c0.6,0.19,1.26,0.27,2,0.27c2.6,0,4.47-1.2,4.47-3.13
		c0-0.43-0.1-0.83-0.29-1.18c0.45-0.1,0.95-0.14,1.34-0.14v-2.52c-1.01,0-2.02,0.66-2.58,1.42c-0.78-0.47-1.83-0.74-2.95-0.74
		c-2.58,0-4.43,1.2-4.43,3.15c0,1.01,0.5,1.79,1.32,2.33c-0.99,0.37-1.57,1.05-1.57,1.94c0,0.78,0.49,1.53,1.32,1.79
		C523.33,599.65,522.6,600.29,522.6,601.1z M527.76,592.19c0.56,0,0.97,0.52,0.97,1.32c0,0.82-0.41,1.34-0.97,1.34
		s-0.97-0.52-0.97-1.34C526.79,592.71,527.2,592.19,527.76,592.19z M525.96,600.21h3.38c0.56,0,0.85,0.14,0.85,0.54
		c0,0.56-1.13,0.87-2.68,0.87c-1.24,0-2.16-0.19-2.16-0.85C525.35,600.42,525.59,600.21,525.96,600.21z"/>
	<path d="M311.03,14.62l0.43-2.06h-1.83l0.82-3.42h-2.49l-0.82,3.42h-1.77l0.82-3.42h-2.49l-0.82,3.42h-2.02l-0.43,2.06h1.98
		l-0.49,2.02h-1.88l-0.43,2.06h1.81l-0.8,3.42h2.49l0.8-3.42h1.77l-0.8,3.42h2.49l0.8-3.42h2.04l0.43-2.06h-1.98l0.49-2.02H311.03z
		 M306.17,16.64h-1.77l0.49-2.02h1.77L306.17,16.64z"/>
	<path d="M320.73,12c2.02,0,2.8,1.34,3.01,2.78l3.36-0.12c-0.25-3.24-2.37-5.77-6.35-5.77c-3.79,0-6.66,2.74-6.66,6.74
		s2.87,6.74,6.66,6.74c3.98,0,6.1-2.52,6.35-5.75l-3.36-0.14c-0.21,1.44-0.99,2.78-3.01,2.78c-1.92,0-3.03-1.42-3.03-3.63
		S318.81,12,320.73,12z"/>
	<path d="M331.11,16.95c-2,0.35-3.28,1.11-3.28,2.89c0,1.57,1.18,2.49,2.97,2.49c1.46,0,2.51-0.56,3.05-1.63
		c0.31,1.05,1.2,1.63,2.33,1.63c0.95,0,1.61-0.27,2.08-0.6v-1.77c-0.27,0.1-0.47,0.14-0.74,0.14c-0.35,0-0.56-0.21-0.56-0.68v-3.13
		c0-2.56-1.79-3.61-4.23-3.61c-2.76,0-4.27,1.4-4.56,3.42l3.09,0.21c0.14-0.68,0.52-1.15,1.26-1.15c0.8,0,1.15,0.45,1.15,1.22v0.14
		L331.11,16.95z M333.69,18.29c0,1.2-0.76,1.9-1.71,1.9c-0.56,0-0.93-0.31-0.93-0.78c0-0.6,0.47-0.85,1.28-1.01l1.36-0.25V18.29z"/>
	<path d="M339.23,12.93v12.49h3.34v-4.87c0.45,1.07,1.48,1.81,3.03,1.81c2.7,0,4.08-2.12,4.08-4.84c0-2.7-1.38-4.84-4.08-4.84
		c-1.55,0-2.58,0.74-3.03,1.83v-1.59H339.23z M344.43,15.28c1.3,0,1.9,0.93,1.9,2.25c0,1.34-0.6,2.27-1.9,2.27
		c-1.13,0-1.86-0.87-1.86-2.21v-0.12C342.57,16.15,343.29,15.28,344.43,15.28z"/>
	<rect x="351" y="12.93" width="3.34" height="9.19"/>
	<rect x="350.98" y="9.14" width="3.38" height="2.93"/>
	<path d="M357.68,10.39l-0.31,1.2c-0.23,0.85-0.52,1.34-1.44,1.48l-0.68,0.1v2.06h1.24v4.33c0,2.16,1.46,2.8,3.01,2.8
		c1.26,0,2.06-0.31,2.76-0.82v-2.16c-0.56,0.23-1.01,0.31-1.42,0.31c-0.68,0-1.05-0.31-1.05-1.09v-3.36h2.39v-2.31h-2.39v-2.54
		H357.68z"/>
	<path d="M366.27,16.95c-2,0.35-3.28,1.11-3.28,2.89c0,1.57,1.17,2.49,2.97,2.49c1.46,0,2.51-0.56,3.05-1.63
		c0.31,1.05,1.2,1.63,2.33,1.63c0.95,0,1.61-0.27,2.08-0.6v-1.77c-0.27,0.1-0.47,0.14-0.74,0.14c-0.35,0-0.56-0.21-0.56-0.68v-3.13
		c0-2.56-1.79-3.61-4.23-3.61c-2.76,0-4.27,1.4-4.56,3.42l3.09,0.21c0.14-0.68,0.52-1.15,1.26-1.15c0.8,0,1.15,0.45,1.15,1.22v0.14
		L366.27,16.95z M368.85,18.29c0,1.2-0.76,1.9-1.71,1.9c-0.56,0-0.93-0.31-0.93-0.78c0-0.6,0.47-0.85,1.28-1.01l1.36-0.25V18.29z"/>
	<rect x="374.39" y="9.14" width="3.34" height="12.99"/>
	<rect x="379.55" y="12.93" width="3.34" height="9.19"/>
	<rect x="379.53" y="9.14" width="3.38" height="2.93"/>
	<path d="M388.7,20.29c-1.01,0-1.63-0.43-1.75-1.2l-2.91,0.04c0.19,2.23,2.08,3.24,4.62,3.24c2.62,0,4.27-1.11,4.27-3.05
		c0-1.79-1.2-2.72-3.26-3.05l-1.79-0.31c-0.31-0.04-0.56-0.21-0.56-0.52c0-0.41,0.37-0.66,1.01-0.66c1.03,0,1.61,0.41,1.73,1.07
		l2.74-0.08c-0.19-1.92-1.75-3.09-4.41-3.09c-2.58,0-4.16,1.3-4.16,3.11c0,1.88,1.17,2.6,3.4,2.95l1.36,0.21
		c0.64,0.1,0.85,0.35,0.85,0.7C389.83,20.02,389.44,20.29,388.7,20.29z"/>
	<path d="M394.2,12.93v9.19h3.34v-4.51c0-1.38,0.39-2.29,1.48-2.29c1.01,0,1.26,0.66,1.26,1.92v4.89h3.34v-4.51
		c0-1.38,0.37-2.29,1.48-2.29c1.01,0,1.24,0.66,1.24,1.92v4.89h3.34v-5.77c0-1.92-0.74-3.67-3.28-3.67c-1.55,0-2.64,0.78-3.13,1.81
		c-0.39-1.07-1.24-1.81-2.87-1.81c-1.38,0-2.37,0.62-2.87,1.63v-1.38H394.2z"/>
	<rect x="413.27" y="9.14" width="3.5" height="12.99"/>
	<path d="M422.67,20.29c-1.01,0-1.63-0.43-1.75-1.2l-2.91,0.04c0.19,2.23,2.08,3.24,4.62,3.24c2.62,0,4.27-1.11,4.27-3.05
		c0-1.79-1.2-2.72-3.26-3.05l-1.79-0.31c-0.31-0.04-0.56-0.21-0.56-0.52c0-0.41,0.37-0.66,1.01-0.66c1.03,0,1.61,0.41,1.73,1.07
		l2.74-0.08c-0.19-1.92-1.75-3.09-4.41-3.09c-2.58,0-4.16,1.3-4.16,3.11c0,1.88,1.17,2.6,3.4,2.95l1.36,0.21
		c0.64,0.1,0.85,0.35,0.85,0.7C423.8,20.02,423.41,20.29,422.67,20.29z"/>
	<path d="M438.63,19.61l0.97,2.52h3.73l-5.17-12.99h-3.92l-5.17,12.99h3.53l0.97-2.52H438.63z M436.05,13.16h0.08l1.48,3.83h-3.05
		L436.05,13.16z"/>
	<polygon points="458.8,9.14 455.31,9.14 452.1,17.77 452.01,17.77 448.8,9.14 445.13,9.14 450.12,22.12 453.81,22.12 	"/>
	<rect x="459.7" y="12.93" width="3.34" height="9.19"/>
	<rect x="459.68" y="9.14" width="3.38" height="2.93"/>
	<path d="M468.19,17.92c0-1.55,0.76-2.12,2-2.12c0.64,0,1.13,0.12,1.59,0.39l0.21-3.15c-0.23-0.19-0.72-0.35-1.28-0.35
		c-1.22,0-2.19,0.85-2.52,1.88v-1.63h-3.34v9.19h3.34V17.92z"/>
	<path d="M482.41,22.12v-9.19h-3.34v4.51c0,1.4-0.41,2.31-1.46,2.31c-1.01,0-1.36-0.68-1.36-1.92v-4.91h-3.34v5.79
		c0,1.92,0.76,3.65,3.28,3.65c1.38,0,2.39-0.6,2.89-1.63v1.38H482.41z"/>
	<path d="M488.22,20.29c-1.01,0-1.63-0.43-1.75-1.2l-2.91,0.04c0.19,2.23,2.08,3.24,4.62,3.24c2.62,0,4.27-1.11,4.27-3.05
		c0-1.79-1.2-2.72-3.26-3.05l-1.79-0.31c-0.31-0.04-0.56-0.21-0.56-0.52c0-0.41,0.37-0.66,1.01-0.66c1.03,0,1.61,0.41,1.73,1.07
		l2.74-0.08c-0.19-1.92-1.75-3.09-4.41-3.09c-2.58,0-4.16,1.3-4.16,3.11c0,1.88,1.18,2.6,3.4,2.95l1.36,0.21
		c0.64,0.1,0.84,0.35,0.84,0.7C489.36,20.02,488.97,20.29,488.22,20.29z"/>
</g>
</svg>
