<?xml version="1.0" encoding="utf-8"?>
<!-- Generator: Adobe Illustrator 23.1.1, SVG Export Plug-In . SVG Version: 6.00 Build 0)  -->
<svg version="1.1" xmlns="http://www.w3.org/2000/svg" xmlns:xlink="http://www.w3.org/1999/xlink" x="0px" y="0px"
	 viewBox="0 0 792 612" style="enable-background:new 0 0 792 612;" xml:space="preserve">
<style type="text/css">
	.st0{display:none;}
	.st1{display:inline;}
	
		.st2{display:inline;fill:#FFFFFF;stroke:#000000;stroke-width:16;stroke-linecap:round;stroke-linejoin:round;stroke-miterlimit:10;}
	.st3{fill:#FFFFFF;stroke:#000000;stroke-width:16;stroke-linecap:round;stroke-linejoin:round;stroke-miterlimit:10;}
	.st4{display:inline;fill:none;stroke:#000000;stroke-width:24;stroke-linejoin:round;stroke-miterlimit:10;}
	.st5{display:inline;fill:#FFFFFF;}
	.st6{fill:#FFFFFF;stroke:#000000;stroke-width:17;stroke-linecap:round;stroke-miterlimit:10;}
	.st7{fill:#FFFFFF;stroke:#000000;stroke-width:17;stroke-miterlimit:10;}
	.st8{stroke:#000000;stroke-width:16.0572;stroke-linecap:round;stroke-miterlimit:10;}
	.st9{fill:#FFFFFF;}
	.st10{fill:#FFFFFF;stroke:#000000;stroke-width:17.1072;stroke-linecap:round;stroke-linejoin:round;stroke-miterlimit:10;}
	.st11{stroke:#000000;stroke-width:17.1072;stroke-linecap:round;stroke-linejoin:round;stroke-miterlimit:10;}
	.st12{fill:#FFFFFF;stroke:#000000;stroke-width:14.7375;stroke-linecap:round;stroke-linejoin:round;stroke-miterlimit:10;}
	.st13{fill:none;stroke:#000000;stroke-width:14.7375;stroke-linecap:round;stroke-linejoin:round;stroke-miterlimit:10;}
	.st14{stroke:#000000;stroke-width:14.7375;stroke-linecap:round;stroke-linejoin:round;stroke-miterlimit:10;}
	.st15{fill:#FFFFFF;stroke:#000000;stroke-width:14.2911;stroke-linecap:round;stroke-linejoin:round;stroke-miterlimit:10;}
	.st16{fill:none;stroke:#000000;stroke-width:13.497;stroke-miterlimit:10;}
	.st17{fill:#FFFFFF;stroke:#000000;stroke-width:13.497;stroke-linecap:round;stroke-linejoin:round;stroke-miterlimit:10;}
	.st18{fill:#FFFFFF;stroke:#000000;stroke-width:13.497;stroke-miterlimit:10;}
	.st19{fill:#FFFFFF;stroke:#000000;stroke-width:14.7439;stroke-linecap:round;stroke-miterlimit:10;}
	.st20{fill:#FFFFFF;stroke:#000000;stroke-width:14.7439;stroke-miterlimit:10;}
	.st21{stroke:#000000;stroke-width:13.9262;stroke-linecap:round;stroke-miterlimit:10;}
	
		.st22{display:inline;fill:#FFFFFF;stroke:#000000;stroke-width:14.6942;stroke-linecap:round;stroke-linejoin:round;stroke-miterlimit:10;}
	.st23{fill:#FFFFFF;stroke:#000000;stroke-width:14.6942;stroke-linecap:round;stroke-linejoin:round;stroke-miterlimit:10;}
	.st24{fill:none;stroke:#000000;stroke-width:24;stroke-linejoin:round;stroke-miterlimit:10;}
	.st25{fill:none;stroke:#000000;stroke-width:30.5612;stroke-linecap:round;stroke-linejoin:round;stroke-miterlimit:10;}
	.st26{fill:#FFFFFF;stroke:#000000;stroke-width:16.2993;stroke-linecap:round;stroke-linejoin:round;stroke-miterlimit:10;}
	.st27{display:inline;fill:#FFFFFF;stroke:#000000;stroke-width:13.497;stroke-linecap:round;stroke-miterlimit:10;}
	
		.st28{display:inline;fill:none;stroke:#000000;stroke-width:13.497;stroke-linecap:round;stroke-linejoin:round;stroke-miterlimit:10;}
	
		.st29{display:inline;fill:#FFFFFF;stroke:#000000;stroke-width:13.497;stroke-linecap:round;stroke-linejoin:round;stroke-miterlimit:10;}
	
		.st30{display:inline;fill:url(#);stroke:#000000;stroke-width:13.497;stroke-linecap:round;stroke-linejoin:round;stroke-miterlimit:10;}
	.st31{fill:#FFFFFF;stroke:#000000;stroke-width:15.2362;stroke-linecap:round;stroke-linejoin:round;stroke-miterlimit:10;}
	.st32{fill:#FFFFFF;stroke:#000000;stroke-width:14.8467;stroke-linecap:round;stroke-linejoin:round;stroke-miterlimit:10;}
	.st33{stroke:#000000;stroke-width:20.1683;stroke-linecap:round;stroke-miterlimit:10;}
	.st34{fill:none;stroke:#000000;stroke-width:14.8467;stroke-linecap:round;stroke-linejoin:round;stroke-miterlimit:10;}
	.st35{fill:#FFFFFF;stroke:#FFFFFF;stroke-width:3;stroke-miterlimit:10;}
	.st36{display:inline;fill:none;stroke:#000000;stroke-width:15;stroke-linecap:round;stroke-linejoin:round;stroke-miterlimit:10;}
	
		.st37{display:inline;fill:#FFFFFF;stroke:#000000;stroke-width:15;stroke-linecap:round;stroke-linejoin:round;stroke-miterlimit:10;}
	.st38{fill:#FFFFFF;stroke:#000000;stroke-width:15;stroke-linecap:round;stroke-linejoin:round;stroke-miterlimit:10;}
	.st39{fill:#FFFFFF;stroke:#000000;stroke-width:11.7326;stroke-linecap:round;stroke-linejoin:round;stroke-miterlimit:10;}
	.st40{fill:#FFFFFF;stroke:#000000;stroke-width:13.2623;stroke-linecap:round;stroke-linejoin:round;stroke-miterlimit:10;}
	.st41{fill:none;stroke:#000000;stroke-width:16;stroke-linecap:round;stroke-miterlimit:10;}
	.st42{fill:url(#);stroke:#000000;stroke-width:16;stroke-linecap:round;stroke-linejoin:round;stroke-miterlimit:10;}
	.st43{fill:#FFFFFF;stroke:#000000;stroke-width:16;stroke-linecap:round;stroke-miterlimit:10;}
	.st44{fill:#FFFFFF;stroke:#000000;stroke-width:13.2623;stroke-linecap:round;stroke-miterlimit:10;}
	.st45{stroke:#000000;stroke-width:4.5213;stroke-miterlimit:10;}
	.st46{fill:none;stroke:#000000;stroke-width:15.2344;stroke-linecap:round;stroke-linejoin:round;stroke-miterlimit:10;}
	.st47{fill:#FFFFFF;stroke:#000000;stroke-width:15.2344;stroke-linecap:round;stroke-linejoin:round;stroke-miterlimit:10;}
	.st48{stroke:#000000;stroke-width:18.3348;stroke-linecap:round;stroke-miterlimit:10;}
	.st49{fill:none;stroke:#000000;stroke-width:13.497;stroke-linecap:round;stroke-linejoin:round;stroke-miterlimit:10;}
	.st50{display:inline;fill:none;stroke:#000000;stroke-width:16;stroke-linecap:round;stroke-linejoin:round;stroke-miterlimit:10;}
	.st51{fill:#FFFFFF;stroke:#000000;stroke-width:13.3058;stroke-linecap:round;stroke-linejoin:round;stroke-miterlimit:10;}
	.st52{fill:#FFFFFF;stroke:#000000;stroke-width:17;stroke-linecap:round;stroke-linejoin:round;stroke-miterlimit:10;}
	.st53{fill:#FFFFFF;stroke:#000000;stroke-width:15.2517;stroke-linecap:round;stroke-linejoin:round;stroke-miterlimit:10;}
	.st54{stroke:#000000;stroke-width:3;stroke-miterlimit:10;}
	.st55{font-family:'FoundersGrotesk-Bold';}
	.st56{font-size:20.6105px;}
	.st57{font-size:10.3052px;}
	.st58{font-size:19.2364px;}
	.st59{font-size:10px;}
	.st60{fill:#FFFFFF;stroke:#000000;stroke-width:16.0686;stroke-linecap:round;stroke-linejoin:round;stroke-miterlimit:10;}
	.st61{fill:#FFFFFF;stroke:#000000;stroke-width:15;stroke-linejoin:round;stroke-miterlimit:10;}
	.st62{fill:url(#);stroke:#000000;stroke-width:13.497;stroke-linecap:round;stroke-linejoin:round;stroke-miterlimit:10;}
	.st63{fill:#06A6FF;}
	.st64{fill:#FF0303;}
	.st65{fill:#3DFF06;}
	.st66{fill:#FFF808;}
	.st67{fill:none;stroke:#000000;stroke-width:0;stroke-linecap:round;stroke-linejoin:round;}
</style>
<g id="unexpanded" class="st0">
	<g class="st1">
		<g>
			<g>
				<path class="st53" d="M341.74,246.22c0,0-73.69,29.47-88.84-50.6C237.75,115.56,266.31,85,284.94,70.37
					c10.35-8.13,15-23.76,16.78-45.52"/>
				<g>
					<path class="st53" d="M261.15,201.4c-0.13-13.39,11.24-24.36,25.4-24.51c14.16-0.14,25.75,10.6,25.88,23.99l0.89,88.79
						c0.13,13.39-11.24,24.36-25.4,24.51c-14.16,0.14-25.75-10.6-25.88-23.99L261.15,201.4z"/>
					<path class="st53" d="M312.43,200.89c-0.13-13.39,11.24-24.36,25.4-24.51c14.16-0.14,25.75,10.6,25.88,23.99l1.04,103.28
						c0.13,13.39-11.24,24.36-25.4,24.51c-14.16,0.14-25.75-10.6-25.88-23.99L312.43,200.89z"/>
					<path class="st53" d="M469.96,409.02c0.03,13.39-11.42,24.28-25.58,24.31s-25.67-10.8-25.7-24.19l-0.91-188.47
						c-0.03-13.39,11.42-24.28,25.58-24.31c14.16-0.03,25.67,10.8,25.7,24.19L469.96,409.02z"/>
					<path class="st53" d="M363.47,200.38c-0.13-13.39,11.24-24.36,25.4-24.51c14.16-0.14,25.75,10.6,25.88,23.99l1.18,117.76
						c0.13,13.39-11.24,24.36-25.4,24.51c-14.16,0.14-25.75-10.6-25.88-23.99L363.47,200.38z"/>
				</g>
				<path class="st53" d="M349.84,103.37c0,0-17.9,72.69,52.98,101.09c-3.33,5.9-7.27,12.9-7.27,12.9s-18.03-7.46-34.72,3.73
					c-16.7,11.19-19.09,25.13-19.09,25.13s62.22,28.87,72.88,33.13c10.67,4.26,21.96-0.27,33.12-15.05s47.19-60.98,45.37-89.51
					s-44.8-70.81-52-90.49c-4.03-11-8.91-33.77-9.81-58.27"/>
			</g>
			<g>
				<g>
					<path class="st54" d="M333.59,571.38c-9.34-6.21-15.49-16.83-15.49-28.88c0-17.33,12.72-31.69,29.34-34.25
						c2.87-16.71,18.92-29.29,38.02-29.29c5.47,0,10.78,1.03,15.66,2.99c1.64-2.41,3.51-4.68,5.61-6.78
						c8.78-8.78,20.5-13.53,32.68-13.53c10.8,0,19.51,3.71,28.07,11.61c0.26-0.04,6.58,0,12.34,1.23
						c21.5,4.87,37.95,23.07,40.19,45.45c13.31,2.57,23.37,14.29,23.37,28.36c0,9.45-4.54,17.84-11.55,23.11
						c-3.8,3.42-7.76,5.78-17.33,5.78h-86.64h-23.11h-51.99C344.36,577.16,337.7,574.58,333.59,571.38z M514.49,565.6
						c9.57,0,17.33-7.76,17.33-17.33c0-7.82-5.18-14.43-12.29-16.59c-2.96,12.81-14.43,22.36-28.14,22.36
						c-3.19,0-5.78-2.59-5.78-5.78c0-3.19,2.59-5.78,5.78-5.78c9.57,0,17.33-7.76,17.33-17.33c0-20.89-15.84-38.07-36.15-40.21
						c2.85,11.08,0.08,23.15-7.91,31.95c2.32,4.16,3.63,8.94,3.63,14.04c0,3.19-2.59,5.78-5.78,5.78s-5.78-2.59-5.78-5.78
						c0-9.57-7.76-17.33-17.33-17.33c-3.19,0-5.78-2.59-5.78-5.78s2.59-5.78,5.78-5.78c6.63,0,12.74,2.24,17.62,5.99
						c5.96-7.42,6.76-17.81,1.95-26.07c-0.26-0.44-1.97-2.54-2.65-3.06c-5.3-4.01-10.53-5.75-16.92-5.75
						c-9.14,0-17.92,3.56-24.51,10.15c-3.27,3.27-5.8,7.07-7.52,11.24c-1.74,4.2-2.63,8.72-2.63,13.27c0,3.19-2.59,5.78-5.78,5.78
						s-5.78-2.59-5.78-5.78c0-5.29,0.9-10.55,2.68-15.53c-3.25-1.18-6.78-1.8-10.41-1.8c-12.95,0-23.59,7.82-26.27,18.05
						c12.65,2.88,22.15,14.06,22.44,27.52c5.67,0.91,11.14,3.61,15.64,8.11c2.26,2.26,2.26,5.91,0,8.17c-2.26,2.26-5.91,2.26-8.17,0
						c-6.77-6.77-16.83-6.77-23.6,0c-2.26,2.26-5.91,2.26-8.17,0c-2.26-2.26-2.26-5.91,0-8.17c3.73-3.73,8.13-6.23,12.75-7.49
						c-0.01-9.56-7.77-17.31-17.33-17.31c-12.76,0-23.11,10.34-23.11,23.11S340,565.6,352.76,565.6h95.47
						c-5.49-6.13-8.82-14.23-8.82-23.11c0-3.19,2.59-5.78,5.78-5.78s5.78,2.59,5.78,5.78c0,12.76,10.34,23.11,23.11,23.11H514.49z"
						/>
				</g>
			</g>
		</g>
		<g>
			<text transform="matrix(8.979319e-11 -1 1 8.979319e-11 26.8613 443.1503)"><tspan x="0" y="0" class="st55 st56">www</tspan><tspan x="45.14" y="0" class="st55 st57"> </tspan><tspan x="46.99" y="0" class="st55 st56">.</tspan><tspan x="51.77" y="0" class="st55 st57"> </tspan><tspan x="53.63" y="0" class="st55 st56">Capitalism</tspan><tspan x="150.43" y="0" class="st55 st58"> </tspan><tspan x="153.9" y="0" class="st55 st56">Is</tspan><tspan x="168.88" y="0" class="st55 st58"> </tspan><tspan x="172.34" y="0" class="st55 st56">A</tspan><tspan x="186.6" y="0" class="st55 st57"> </tspan><tspan x="188.46" y="0" class="st55 st56">Virus</tspan><tspan x="236.15" y="0" class="st55 st57"> </tspan><tspan x="238.01" y="0" class="st55 st56">.</tspan><tspan x="242.79" y="0" class="st55 st57"> </tspan><tspan x="244.64" y="0" class="st55 st56">org</tspan></text>
			<text transform="matrix(0 1 -1 0 761.9287 209.1802)"><tspan x="0" y="0" class="st55 st56">#</tspan><tspan x="12.7" y="0" class="st55 st59"> </tspan><tspan x="14.5" y="0" class="st55 st56">Capitalism</tspan><tspan x="111.3" y="0" class="st55 st59"> </tspan><tspan x="113.1" y="0" class="st55 st56">Is</tspan><tspan x="128.09" y="0" class="st55 st59"> </tspan><tspan x="129.89" y="0" class="st55 st56">A</tspan><tspan x="144.15" y="0" class="st55 st59"> </tspan><tspan x="145.95" y="0" class="st55 st56">Virus</tspan></text>
		</g>
	</g>
</g>
<g id="expanded">
	<path d="M339.43,335.78c7.43-0.07,14.27-2.49,19.77-6.5c1.71,4.3,4.39,8.23,7.95,11.52c6.24,5.78,14.43,8.96,23.1,8.95
		c0.12,0,0.24,0,0.36,0c7.59-0.08,14.56-2.6,20.12-6.77l0.32,66.17c0.02,8.6,3.55,16.64,9.95,22.66c6.26,5.89,14.53,9.13,23.31,9.13
		c0.03,0,0.06,0,0.09,0c18.34-0.04,33.23-14.38,33.19-31.96c0-0.01,0-0.01,0-0.02l-0.83-172.25c14.08-21.74,25.12-44.37,23.97-62.42
		c-1.27-19.88-18.6-43.41-33.89-64.17c-8.33-11.3-16.19-21.98-18.56-28.46c-3.91-10.67-8.5-32.73-9.35-55.93
		c-0.15-4.21-3.69-7.5-7.9-7.34c-4.21,0.16-7.5,3.69-7.34,7.9c0.08,2.23,0.2,4.44,0.34,6.64c1.45,22.45,5.88,42.9,9.93,53.98
		c3.12,8.53,11.22,19.53,20.6,32.26c13.35,18.12,29.97,40.68,30.95,56.09c1.56,24.53-31.48,68.12-42.35,82.45l-1.5,1.98
		c-8.56,11.33-16.71,15.56-24.21,12.57c-8.36-3.34-50.05-22.58-66.15-30.03c2.08-4.02,6.11-9.68,13.77-14.82
		c12.96-8.68,27.02-3.23,27.56-3.02c3.56,1.48,7.67,0.06,9.56-3.31c0,0,3.94-7,7.26-12.89c1.08-1.91,1.28-4.2,0.56-6.28
		s-2.32-3.73-4.36-4.55c-26.67-10.69-42.93-29.22-48.32-55.1c-4.14-19.87-0.12-36.94-0.08-37.11c0.64-2.61-0.16-5.24-1.88-7.05
		c-0.97-1.02-2.23-1.8-3.7-2.16c-4.09-1.01-8.22,1.49-9.23,5.58c-0.2,0.81-4.83,20.1-0.16,43.23c1.67,8.29,4.7,17.68,10.02,27.01
		c-4.49-2.04-9.44-3.1-14.55-3.03c-3.39,0.03-6.67,0.56-9.74,1.5c-6.26,1.91-11.72,5.55-15.77,10.33c-0.72-0.82-1.49-1.61-2.31-2.36
		c-6.32-5.86-14.65-9.09-23.46-8.95c-11.72,0.12-21.97,6.06-27.81,14.92c-5.38-34.51-5.59-79.1,30.99-107.83
		c7.71-6.05,12.97-15.14,16.25-28.41c1.6-6.46,2.72-13.91,3.42-22.49c0.34-4.2-2.78-7.88-6.98-8.22c-4.19-0.36-7.88,2.78-8.22,6.98
		c-1.74,21.32-6.16,34.07-13.89,40.15c-9.28,7.29-22.6,19.5-31.08,41.32c-9.38,24.13-10.64,54.86-3.74,91.35
		c1.87,9.86,4.65,18.59,8.34,26.17l0.67,67.06c0.18,17.46,15.05,31.54,33.23,31.54c0.12,0,0.23,0,0.35,0
		c7.51-0.08,14.42-2.54,19.95-6.64c1.71,4.35,4.41,8.33,8.01,11.66c6.24,5.78,14.43,8.95,23.1,8.95
		C339.19,335.78,339.31,335.78,339.43,335.78z M453.83,268.89l1.48-1.96c2.08-2.74,4.19-5.55,6.29-8.42l0.73,150.53
		c0.02,9.16-8.05,16.63-17.97,16.65c-0.02,0-0.03,0-0.05,0c-4.87,0-9.44-1.77-12.85-4.99c-3.31-3.12-5.14-7.23-5.15-11.61
		l-0.58-120.76C434.05,287.32,443.75,282.23,453.83,268.89z M407.97,284.82l0.33,32.88c0.09,9.17-7.91,16.7-17.85,16.8
		c-0.07,0-0.13,0-0.2,0c-4.82,0-9.33-1.73-12.74-4.89c-3.34-3.09-5.2-7.2-5.24-11.55l-0.5-49.59
		C385.65,274.84,400.28,281.5,407.97,284.82z M371.09,200.3c-0.02-1.8,0.29-3.54,0.85-5.17c5.66,4.71,12.3,9.08,20.12,12.9
		c-0.07,0.12-0.14,0.25-0.21,0.37c-5.05-1.06-12.5-1.81-20.68,0.05L371.09,200.3C371.09,200.3,371.09,200.3,371.09,200.3z
		 M287.85,306.56c-0.07,0-0.13,0-0.2,0c-9.84,0-17.89-7.34-17.98-16.44l-0.89-88.79c-0.09-9.17,7.91-16.7,17.85-16.8
		c0.07,0,0.13,0,0.2,0c4.82,0,9.33,1.73,12.74,4.89c3.34,3.09,5.2,7.2,5.24,11.56l0.89,88.79
		C305.79,298.92,297.78,306.46,287.85,306.56z M321.09,304.09l-1.04-103.27c-0.09-9.17,7.91-16.71,17.85-16.81
		c4.9,0,9.49,1.69,12.94,4.89c2.79,2.59,4.53,5.88,5.06,9.44c-0.04,0.7-0.07,1.4-0.06,2.11l0.15,14.72
		c-18.66,12.8-21.65,29.07-21.76,29.76c-0.58,3.39,1.18,6.76,4.31,8.21c0.85,0.4,8.17,3.79,17.92,8.29l0.45,44.91
		c-1.28,7.94-8.66,14.11-17.63,14.2c-4.9,0.01-9.49-1.69-12.94-4.89C323,312.55,321.14,308.45,321.09,304.09z"/>
	<path d="M521.38,518.68c-2.71-22.39-19.15-40.67-41.25-45.68c-4.83-1.03-10.09-1.26-12.08-1.26c-8.86-8.02-17.72-11.6-28.65-11.6
		c-12.74,0-24.73,4.96-33.74,13.97c-1.87,1.87-3.58,3.89-5.11,6.02c-4.79-1.77-9.87-2.67-15.1-2.67c-19.45,0-35.8,12.34-39.3,29.48
		c-16.92,3.13-29.56,18.23-29.56,35.56c0,12.12,6.02,23.37,16.12,30.1c4.97,3.85,12.27,6.06,20.04,6.06h161.74
		c9.57,0,13.97-2.24,18.29-6.12c7.69-5.8,12.1-14.64,12.1-24.26C544.88,534.12,535.06,521.85,521.38,518.68z M514.49,564.1h-40.43
		c-11.91,0-21.6-9.69-21.6-21.6c0-4.01-3.26-7.28-7.28-7.28s-7.28,3.26-7.28,7.28c0,7.83,2.52,15.39,7.16,21.6h-92.31
		c-11.91,0-21.61-9.69-21.61-21.6s9.69-21.61,21.61-21.61c8.34,0,15.21,6.5,15.79,14.7c-4.55,1.45-8.77,4.04-12.27,7.54
		c-2.84,2.84-2.84,7.45,0,10.29c1.37,1.37,3.2,2.13,5.15,2.13c1.94,0,3.77-0.76,5.15-2.13c2.99-2.99,6.8-4.64,10.74-4.64
		c3.94,0,7.75,1.65,10.74,4.64c2.84,2.84,7.45,2.84,10.29,0c1.37-1.37,2.13-3.2,2.13-5.15c0-1.94-0.76-3.77-2.13-5.14
		c-4.29-4.29-9.55-7.15-15.26-8.31c-0.8-12.88-9.62-23.82-22-27.32c3.17-9.06,13.16-15.48,24.38-15.48c2.93,0,5.79,0.42,8.51,1.24
		c-1.51,4.71-2.27,9.61-2.27,14.58c0,4.01,3.26,7.28,7.28,7.28c4.01,0,7.28-3.26,7.28-7.28c0-4.39,0.85-8.66,2.52-12.7
		c1.66-4.02,4.09-7.64,7.2-10.75c6.26-6.26,14.59-9.71,23.45-9.71c6.09,0,11.03,1.68,16.01,5.45c0.47,0.36,2.02,2.22,2.26,2.62
		c4.22,7.25,3.79,16.4-0.97,23.23c-5.09-3.54-11.05-5.41-17.31-5.41c-4.01,0-7.28,3.26-7.28,7.28s3.26,7.28,7.28,7.28
		c8.73,0,15.83,7.1,15.83,15.83c0,4.01,3.26,7.28,7.28,7.28s7.28-3.26,7.28-7.28c0-4.81-1.15-9.57-3.32-13.83
		c7.21-8.41,10.14-19.56,8.04-30.39c18.8,3,32.72,19.17,32.72,38.44c0,8.73-7.1,15.83-15.83,15.83c-4.01,0-7.28,3.26-7.28,7.28
		s3.26,7.28,7.28,7.28c13.67,0,25.44-8.92,29.18-21.9c5.89,2.43,9.75,8.13,9.75,14.62C530.32,557,523.22,564.1,514.49,564.1z"/>
	<polygon points="17.67,400.93 22.88,402.58 22.88,402.66 17.67,404 17.67,406.66 22.88,408 22.88,408.08 17.67,409.73 
		17.67,412.96 17.67,413.05 17.67,415.97 22.88,417.62 22.88,417.71 17.67,419.04 17.67,421.7 22.88,423.04 22.88,423.13 
		17.67,424.78 17.67,428.01 17.67,428.09 17.67,431.02 22.88,432.67 22.88,432.75 17.67,434.09 17.67,436.75 22.88,438.09 
		22.88,438.17 17.67,439.82 17.67,443.14 26.86,440.23 26.86,436.96 21.67,435.62 21.67,435.53 26.86,434.19 26.86,430.92 
		17.8,428.05 26.86,425.19 26.86,421.91 21.67,420.57 21.67,420.49 26.86,419.15 26.86,415.87 17.8,413.01 26.86,410.14 
		26.86,406.86 21.67,405.52 21.67,405.44 26.86,404.1 26.86,400.82 17.67,397.92 	"/>
	<rect x="23.32" y="391.94" width="3.55" height="3.55"/>
	<path d="M21.36,376.05l-0.14,3.36c1.44,0.21,2.78,0.99,2.78,3.01c0,1.92-1.42,3.03-3.63,3.03s-3.63-1.11-3.63-3.03
		c0-2.02,1.34-2.8,2.78-3.01l-0.12-3.36c-3.24,0.25-5.77,2.37-5.77,6.35c0,3.79,2.74,6.66,6.74,6.66s6.74-2.87,6.74-6.66
		C27.11,378.42,24.59,376.3,21.36,376.05z"/>
	<path d="M24.16,366.18h-3.13c-2.56,0-3.61,1.79-3.61,4.23c0,2.76,1.4,4.27,3.42,4.56l0.21-3.09c-0.68-0.14-1.15-0.52-1.15-1.26
		c0-0.8,0.45-1.15,1.22-1.15h0.14l0.43,2.58c0.35,2,1.11,3.28,2.89,3.28c1.57,0,2.49-1.17,2.49-2.97c0-1.46-0.56-2.51-1.63-3.05
		c1.05-0.31,1.63-1.2,1.63-2.33c0-0.95-0.27-1.61-0.6-2.08H24.7c0.1,0.27,0.14,0.47,0.14,0.74
		C24.84,365.97,24.63,366.18,24.16,366.18z M24.92,371.17c0,0.56-0.31,0.93-0.78,0.93c-0.6,0-0.85-0.47-1.01-1.28l-0.25-1.36h0.14
		C24.22,369.46,24.92,370.22,24.92,371.17z"/>
	<path d="M27.11,357.54c0-2.7-2.12-4.08-4.84-4.08c-2.7,0-4.84,1.38-4.84,4.08c0,1.55,0.74,2.58,1.83,3.03h-1.59v3.34h12.49v-3.34
		h-4.86C26.37,360.12,27.11,359.09,27.11,357.54z M22.33,360.57H22.2c-1.32,0-2.18-0.72-2.18-1.85c0-1.3,0.93-1.9,2.25-1.9
		c1.34,0,2.27,0.6,2.27,1.9C24.53,359.85,23.67,360.57,22.33,360.57z"/>
	<rect x="17.67" y="348.81" width="9.19" height="3.34"/>
	<rect x="13.87" y="348.79" width="2.93" height="3.38"/>
	<path d="M26.28,340.89h-2.16c0.23,0.56,0.31,1.01,0.31,1.42c0,0.68-0.31,1.05-1.09,1.05h-3.36v-2.39h-2.31v2.39h-2.54v2.1l1.2,0.31
		c0.85,0.23,1.34,0.52,1.48,1.44l0.1,0.68h2.06v-1.24h4.33c2.16,0,2.8-1.46,2.8-3.01C27.11,342.4,26.8,341.59,26.28,340.89z"/>
	<path d="M27.07,331.8c0-0.95-0.27-1.61-0.6-2.08H24.7c0.1,0.27,0.14,0.47,0.14,0.74c0,0.35-0.21,0.56-0.68,0.56h-3.13
		c-2.56,0-3.61,1.79-3.61,4.23c0,2.76,1.4,4.27,3.42,4.56l0.21-3.09c-0.68-0.14-1.15-0.52-1.15-1.26c0-0.8,0.45-1.15,1.22-1.15h0.14
		l0.43,2.58c0.35,2,1.11,3.28,2.89,3.28c1.57,0,2.49-1.17,2.49-2.97c0-1.46-0.56-2.51-1.63-3.05
		C26.49,333.82,27.07,332.94,27.07,331.8z M24.14,336.93c-0.6,0-0.85-0.47-1.01-1.28l-0.25-1.36h0.14c1.2,0,1.9,0.76,1.9,1.71
		C24.92,336.56,24.61,336.93,24.14,336.93z"/>
	<rect x="13.87" y="325.41" width="12.99" height="3.34"/>
	<rect x="13.87" y="320.24" width="2.93" height="3.38"/>
	<rect x="17.67" y="320.26" width="9.19" height="3.34"/>
	<path d="M24.06,310.22c-1.79,0-2.72,1.2-3.05,3.26l-0.31,1.79c-0.04,0.31-0.21,0.56-0.52,0.56c-0.41,0-0.66-0.37-0.66-1.01
		c0-1.03,0.41-1.61,1.07-1.73l-0.08-2.74c-1.92,0.19-3.09,1.75-3.09,4.41c0,2.58,1.3,4.16,3.11,4.16c1.88,0,2.6-1.17,2.95-3.4
		l0.21-1.36c0.1-0.64,0.35-0.85,0.7-0.85c0.37,0,0.64,0.39,0.64,1.13c0,1.01-0.43,1.63-1.2,1.75l0.04,2.91
		c2.23-0.19,3.24-2.08,3.24-4.62C27.11,311.87,26,310.22,24.06,310.22z"/>
	<path d="M21.98,296.8h4.89v-3.34h-5.77c-1.92,0-3.67,0.74-3.67,3.28c0,1.55,0.78,2.64,1.81,3.13c-1.07,0.39-1.81,1.24-1.81,2.87
		c0,1.38,0.62,2.37,1.63,2.87h-1.38v3.34h9.19v-3.34h-4.51c-1.38,0-2.29-0.39-2.29-1.48c0-1.01,0.66-1.26,1.92-1.26h4.89v-3.34
		h-4.51c-1.38,0-2.29-0.37-2.29-1.48C20.06,297.03,20.72,296.8,21.98,296.8z"/>
	<rect x="13.87" y="284.71" width="12.99" height="3.5"/>
	<path d="M24.06,274.59c-1.79,0-2.72,1.2-3.05,3.26l-0.31,1.79c-0.04,0.31-0.21,0.56-0.52,0.56c-0.41,0-0.66-0.37-0.66-1.01
		c0-1.03,0.41-1.61,1.07-1.73l-0.08-2.74c-1.92,0.19-3.09,1.75-3.09,4.41c0,2.58,1.3,4.16,3.11,4.16c1.88,0,2.6-1.17,2.95-3.4
		l0.21-1.36c0.1-0.64,0.35-0.85,0.7-0.85c0.37,0,0.64,0.39,0.64,1.13c0,1.01-0.43,1.63-1.2,1.75l0.04,2.91
		c2.23-0.19,3.24-2.08,3.24-4.62C27.11,276.24,26,274.59,24.06,274.59z"/>
	<path d="M26.86,260.22v-3.73l-12.99,5.17v3.92l12.99,5.17v-3.53l-2.51-0.97v-5.07L26.86,260.22z M21.73,265.25l-3.83-1.48v-0.08
		l3.83-1.48V265.25z"/>
	<polygon points="13.87,244.46 22.51,247.67 22.51,247.75 13.87,250.97 13.87,254.64 26.86,249.65 26.86,245.96 13.87,240.97 	"/>
	<rect x="13.87" y="236.71" width="2.93" height="3.38"/>
	<rect x="17.67" y="236.73" width="9.19" height="3.34"/>
	<path d="M19.3,231.58h-1.63v3.34h9.19v-3.34h-4.21c-1.55,0-2.12-0.76-2.12-2c0-0.64,0.12-1.13,0.39-1.59l-3.15-0.21
		c-0.19,0.23-0.35,0.72-0.35,1.28C17.42,230.28,18.27,231.25,19.3,231.58z"/>
	<path d="M22.57,223.52h-4.91v3.34h5.79c1.92,0,3.65-0.76,3.65-3.28c0-1.38-0.6-2.39-1.63-2.89h1.38v-3.34h-9.19v3.34h4.51
		c1.4,0,2.31,0.41,2.31,1.46C24.49,223.17,23.81,223.52,22.57,223.52z"/>
	<path d="M20.53,216.02c1.88,0,2.6-1.18,2.95-3.4l0.21-1.36c0.1-0.64,0.35-0.85,0.7-0.85c0.37,0,0.64,0.39,0.64,1.13
		c0,1.01-0.43,1.63-1.2,1.75l0.04,2.91c2.23-0.19,3.24-2.08,3.24-4.62c0-2.62-1.11-4.27-3.05-4.27c-1.79,0-2.72,1.2-3.05,3.26
		l-0.31,1.79c-0.04,0.31-0.21,0.56-0.52,0.56c-0.41,0-0.66-0.37-0.66-1.01c0-1.03,0.41-1.61,1.07-1.73l-0.08-2.74
		c-1.92,0.19-3.09,1.75-3.09,4.41C17.42,214.43,18.72,216.02,20.53,216.02z"/>
	<rect x="23.32" y="200.93" width="3.55" height="3.55"/>
	<path d="M22.26,198.04c2.87,0,4.84-2.02,4.84-5.03c0-2.99-1.98-5.03-4.84-5.03c-2.84,0-4.84,2.04-4.84,5.03
		C17.42,196.02,19.42,198.04,22.26,198.04z M22.26,191.34c1.38,0,2.33,0.52,2.33,1.67c0,1.17-0.95,1.67-2.33,1.67
		s-2.33-0.5-2.33-1.67C19.93,191.86,20.88,191.34,22.26,191.34z"/>
	<path d="M17.77,179.53c-0.19,0.23-0.35,0.72-0.35,1.28c0,1.22,0.85,2.19,1.88,2.51h-1.63v3.34h9.19v-3.34h-4.21
		c-1.55,0-2.12-0.76-2.12-2c0-0.64,0.12-1.13,0.39-1.59L17.77,179.53z"/>
	<path d="M27.07,168.86c-1.55,0-2.64,1.05-2.64,3.13v3.81c0,0.56-0.25,0.78-0.56,0.78c-0.19,0-0.33-0.06-0.43-0.19
		c0.19-0.6,0.27-1.26,0.27-2c0-2.6-1.2-4.47-3.13-4.47c-0.43,0-0.83,0.1-1.18,0.29c-0.1-0.45-0.14-0.95-0.14-1.34h-2.52
		c0,1.01,0.66,2.02,1.42,2.58c-0.47,0.78-0.74,1.83-0.74,2.95c0,2.58,1.2,4.43,3.15,4.43c1.01,0,1.79-0.49,2.33-1.32
		c0.37,0.99,1.05,1.57,1.94,1.57c0.78,0,1.53-0.5,1.79-1.32c0.08,1.03,0.72,1.75,1.53,1.75c1.73,0,2.25-2.27,2.25-4.89
		C30.41,171.64,29.36,168.86,27.07,168.86z M20.57,175.33c-0.8,0-1.32-0.41-1.32-0.97c0-0.56,0.52-0.97,1.32-0.97
		c0.82,0,1.34,0.41,1.34,0.97C21.91,174.92,21.4,175.33,20.57,175.33z M27.83,176.77c-0.35,0-0.56-0.25-0.56-0.62v-3.38
		c0-0.56,0.14-0.85,0.54-0.85c0.56,0,0.87,1.13,0.87,2.68C28.68,175.84,28.49,176.77,27.83,176.77z"/>
	<path d="M774.92,216.19v-2.49l-3.42-0.83v-2.02l-2.06-0.43v1.98l-2.02-0.5v-1.88l-2.06-0.43v1.81l-3.42-0.8v2.49l3.42,0.8v1.77
		l-3.42-0.8v2.49l3.42,0.8v2.04l2.06,0.43v-1.98l2.02,0.5v1.88l2.06,0.43v-1.83l3.42,0.82v-2.49l-3.42-0.82v-1.77L774.92,216.19z
		 M769.43,216.66l-2.02-0.5v-1.77l2.02,0.5V216.66z"/>
	<path d="M768.42,224.09c-4,0-6.74,2.87-6.74,6.66c0,3.98,2.51,6.1,5.75,6.35l0.14-3.36c-1.44-0.21-2.78-0.99-2.78-3.01
		c0-1.92,1.42-3.03,3.63-3.03s3.63,1.11,3.63,3.03c0,2.02-1.34,2.8-2.78,3.01l0.12,3.36c3.24-0.25,5.77-2.37,5.77-6.35
		C775.16,226.95,772.42,224.09,768.42,224.09z"/>
	<path d="M761.72,246.18c0,0.95,0.27,1.61,0.6,2.08h1.77c-0.1-0.27-0.14-0.47-0.14-0.74c0-0.35,0.21-0.56,0.68-0.56h3.13
		c2.56,0,3.61-1.79,3.61-4.23c0-2.76-1.4-4.27-3.42-4.56l-0.21,3.09c0.68,0.14,1.15,0.51,1.15,1.26c0,0.8-0.45,1.15-1.22,1.15h-0.14
		l-0.43-2.58c-0.35-2-1.11-3.28-2.89-3.28c-1.57,0-2.49,1.17-2.49,2.97c0,1.46,0.56,2.51,1.63,3.05
		C762.3,244.16,761.72,245.05,761.72,246.18z M764.65,241.05c0.6,0,0.85,0.47,1.01,1.28l0.25,1.36h-0.14c-1.2,0-1.9-0.76-1.9-1.71
		C763.87,241.42,764.18,241.05,764.65,241.05z"/>
	<path d="M761.68,255.6c0,2.7,2.12,4.08,4.84,4.08c2.7,0,4.84-1.38,4.84-4.08c0-1.55-0.74-2.58-1.83-3.03h1.59v-3.34h-12.49v3.34
		h4.86C762.42,253.03,761.68,254.06,761.68,255.6z M766.46,252.57h0.12c1.32,0,2.18,0.72,2.18,1.86c0,1.3-0.93,1.9-2.25,1.9
		c-1.34,0-2.27-0.6-2.27-1.9C764.26,253.29,765.12,252.57,766.46,252.57z"/>
	<rect x="771.99" y="260.98" width="2.93" height="3.38"/>
	<rect x="761.93" y="261" width="9.19" height="3.34"/>
	<path d="M773.66,267.68l-1.2-0.31c-0.85-0.23-1.34-0.51-1.48-1.44l-0.1-0.68h-2.06v1.24h-4.33c-2.16,0-2.8,1.46-2.8,3.01
		c0,1.26,0.31,2.06,0.82,2.76h2.16c-0.23-0.56-0.31-1.01-0.31-1.42c0-0.68,0.31-1.05,1.09-1.05h3.36v2.39h2.31v-2.39h2.54V267.68z"
		/>
	<path d="M764.63,282.13h3.13c2.56,0,3.61-1.79,3.61-4.23c0-2.76-1.4-4.27-3.42-4.56l-0.21,3.09c0.68,0.14,1.15,0.51,1.15,1.26
		c0,0.8-0.45,1.15-1.22,1.15h-0.14l-0.43-2.58c-0.35-2-1.11-3.28-2.89-3.28c-1.57,0-2.49,1.18-2.49,2.97c0,1.46,0.56,2.51,1.63,3.05
		c-1.05,0.31-1.63,1.2-1.63,2.33c0,0.95,0.27,1.61,0.6,2.08h1.77c-0.1-0.27-0.14-0.47-0.14-0.74
		C763.95,282.33,764.16,282.13,764.63,282.13z M763.87,277.14c0-0.56,0.31-0.93,0.78-0.93c0.6,0,0.85,0.47,1.01,1.28l0.25,1.36
		h-0.14C764.57,278.85,763.87,278.09,763.87,277.14z"/>
	<rect x="761.93" y="284.39" width="12.99" height="3.34"/>
	<rect x="771.99" y="289.53" width="2.93" height="3.38"/>
	<rect x="761.93" y="289.55" width="9.19" height="3.34"/>
	<path d="M768.26,294.22c-1.88,0-2.6,1.18-2.95,3.4l-0.21,1.36c-0.1,0.64-0.35,0.85-0.7,0.85c-0.37,0-0.64-0.39-0.64-1.13
		c0-1.01,0.43-1.63,1.2-1.75l-0.04-2.91c-2.23,0.19-3.24,2.08-3.24,4.62c0,2.62,1.11,4.27,3.05,4.27c1.79,0,2.72-1.2,3.05-3.26
		l0.31-1.79c0.04-0.31,0.21-0.56,0.52-0.56c0.41,0,0.66,0.37,0.66,1.01c0,1.03-0.41,1.61-1.07,1.73l0.08,2.74
		c1.92-0.19,3.09-1.75,3.09-4.41C771.37,295.81,770.07,294.22,768.26,294.22z"/>
	<path d="M771.37,310.41c0-1.38-0.62-2.37-1.63-2.87h1.38v-3.34h-9.19v3.34h4.51c1.38,0,2.29,0.39,2.29,1.48
		c0,1.01-0.66,1.26-1.92,1.26h-4.89v3.34h4.51c1.38,0,2.29,0.37,2.29,1.48c0,1.01-0.66,1.24-1.92,1.24h-4.89v3.34h5.77
		c1.92,0,3.67-0.74,3.67-3.28c0-1.55-0.78-2.64-1.81-3.13C770.63,312.88,771.37,312.03,771.37,310.41z"/>
	<rect x="761.93" y="323.27" width="12.99" height="3.5"/>
	<path d="M764.96,330.92l-0.04-2.91c-2.23,0.19-3.24,2.08-3.24,4.62c0,2.62,1.11,4.27,3.05,4.27c1.79,0,2.72-1.2,3.05-3.26
		l0.31-1.79c0.04-0.31,0.21-0.56,0.52-0.56c0.41,0,0.66,0.37,0.66,1.01c0,1.03-0.41,1.61-1.07,1.73l0.08,2.74
		c1.92-0.19,3.09-1.75,3.09-4.41c0-2.58-1.3-4.16-3.11-4.16c-1.88,0-2.6,1.18-2.95,3.4l-0.21,1.36c-0.1,0.64-0.35,0.85-0.7,0.85
		c-0.37,0-0.64-0.39-0.64-1.13C763.76,331.66,764.2,331.04,764.96,330.92z"/>
	<path d="M761.93,342.59l2.51,0.97v5.07l-2.51,0.97v3.73l12.99-5.17v-3.92l-12.99-5.17V342.59z M767.06,344.57l3.83,1.48v0.08
		l-3.83,1.48V344.57z"/>
	<polygon points="761.93,363.81 774.92,368.8 774.92,365.31 766.28,362.1 766.28,362.01 774.92,358.8 774.92,355.13 761.93,360.12 	
		"/>
	<rect x="771.99" y="369.68" width="2.93" height="3.38"/>
	<rect x="761.93" y="369.7" width="9.19" height="3.34"/>
	<path d="M769.49,378.19h1.63v-3.34h-9.19v3.34h4.21c1.55,0,2.12,0.76,2.12,2c0,0.64-0.12,1.13-0.39,1.59l3.15,0.21
		c0.19-0.23,0.35-0.72,0.35-1.28C771.37,379.49,770.52,378.52,769.49,378.19z"/>
	<path d="M766.22,386.25h4.91v-3.34h-5.79c-1.92,0-3.65,0.76-3.65,3.28c0,1.38,0.6,2.39,1.63,2.89h-1.38v3.34h9.19v-3.34h-4.51
		c-1.4,0-2.31-0.41-2.31-1.46C764.3,386.6,764.98,386.25,766.22,386.25z"/>
	<path d="M768.26,393.75c-1.88,0-2.6,1.17-2.95,3.4l-0.21,1.36c-0.1,0.64-0.35,0.85-0.7,0.85c-0.37,0-0.64-0.39-0.64-1.13
		c0-1.01,0.43-1.63,1.2-1.75l-0.04-2.91c-2.23,0.19-3.24,2.08-3.24,4.62c0,2.62,1.11,4.27,3.05,4.27c1.79,0,2.72-1.2,3.05-3.26
		l0.31-1.79c0.04-0.31,0.21-0.56,0.52-0.56c0.41,0,0.66,0.37,0.66,1.01c0,1.03-0.41,1.61-1.07,1.73l0.08,2.74
		c1.92-0.19,3.09-1.75,3.09-4.41C771.37,395.34,770.07,393.75,768.26,393.75z"/>
</g>
</svg>
