<?xml version="1.0" encoding="utf-8"?>
<!-- Generator: Adobe Illustrator 23.1.1, SVG Export Plug-In . SVG Version: 6.00 Build 0)  -->
<svg version="1.1" xmlns="http://www.w3.org/2000/svg" xmlns:xlink="http://www.w3.org/1999/xlink" x="0px" y="0px"
	 viewBox="0 0 792 612" style="enable-background:new 0 0 792 612;" xml:space="preserve">
<style type="text/css">
	.st0{display:none;}
	.st1{display:inline;}
	
		.st2{display:inline;fill:#FFFFFF;stroke:#000000;stroke-width:16;stroke-linecap:round;stroke-linejoin:round;stroke-miterlimit:10;}
	.st3{fill:#FFFFFF;stroke:#000000;stroke-width:16;stroke-linecap:round;stroke-linejoin:round;stroke-miterlimit:10;}
	.st4{display:inline;fill:none;stroke:#000000;stroke-width:24;stroke-linejoin:round;stroke-miterlimit:10;}
	.st5{display:inline;fill:#FFFFFF;}
	.st6{fill:#FFFFFF;stroke:#000000;stroke-width:17;stroke-linecap:round;stroke-miterlimit:10;}
	.st7{fill:#FFFFFF;stroke:#000000;stroke-width:17;stroke-miterlimit:10;}
	.st8{stroke:#000000;stroke-width:16.0572;stroke-linecap:round;stroke-miterlimit:10;}
	.st9{fill:#FFFFFF;}
	.st10{fill:#FFFFFF;stroke:#000000;stroke-width:17.1072;stroke-linecap:round;stroke-linejoin:round;stroke-miterlimit:10;}
	.st11{stroke:#000000;stroke-width:17.1072;stroke-linecap:round;stroke-linejoin:round;stroke-miterlimit:10;}
	.st12{fill:#FFFFFF;stroke:#000000;stroke-width:14.7375;stroke-linecap:round;stroke-linejoin:round;stroke-miterlimit:10;}
	.st13{fill:none;stroke:#000000;stroke-width:14.7375;stroke-linecap:round;stroke-linejoin:round;stroke-miterlimit:10;}
	.st14{stroke:#000000;stroke-width:14.7375;stroke-linecap:round;stroke-linejoin:round;stroke-miterlimit:10;}
	.st15{fill:#FFFFFF;stroke:#000000;stroke-width:14.2911;stroke-linecap:round;stroke-linejoin:round;stroke-miterlimit:10;}
	.st16{fill:none;stroke:#000000;stroke-width:13.497;stroke-miterlimit:10;}
	.st17{fill:#FFFFFF;stroke:#000000;stroke-width:13.497;stroke-linecap:round;stroke-linejoin:round;stroke-miterlimit:10;}
	.st18{fill:#FFFFFF;stroke:#000000;stroke-width:13.497;stroke-miterlimit:10;}
	.st19{fill:#FFFFFF;stroke:#000000;stroke-width:14.7439;stroke-linecap:round;stroke-miterlimit:10;}
	.st20{fill:#FFFFFF;stroke:#000000;stroke-width:14.7439;stroke-miterlimit:10;}
	.st21{stroke:#000000;stroke-width:13.9262;stroke-linecap:round;stroke-miterlimit:10;}
	
		.st22{display:inline;fill:#FFFFFF;stroke:#000000;stroke-width:14.6942;stroke-linecap:round;stroke-linejoin:round;stroke-miterlimit:10;}
	.st23{fill:#FFFFFF;stroke:#000000;stroke-width:14.6942;stroke-linecap:round;stroke-linejoin:round;stroke-miterlimit:10;}
	.st24{fill:none;stroke:#000000;stroke-width:24;stroke-linejoin:round;stroke-miterlimit:10;}
	.st25{fill:none;stroke:#000000;stroke-width:30.5612;stroke-linecap:round;stroke-linejoin:round;stroke-miterlimit:10;}
	.st26{fill:#FFFFFF;stroke:#000000;stroke-width:16.2993;stroke-linecap:round;stroke-linejoin:round;stroke-miterlimit:10;}
	.st27{display:inline;fill:#FFFFFF;stroke:#000000;stroke-width:13.497;stroke-linecap:round;stroke-miterlimit:10;}
	
		.st28{display:inline;fill:none;stroke:#000000;stroke-width:13.497;stroke-linecap:round;stroke-linejoin:round;stroke-miterlimit:10;}
	
		.st29{display:inline;fill:#FFFFFF;stroke:#000000;stroke-width:13.497;stroke-linecap:round;stroke-linejoin:round;stroke-miterlimit:10;}
	
		.st30{display:inline;fill:url(#);stroke:#000000;stroke-width:13.497;stroke-linecap:round;stroke-linejoin:round;stroke-miterlimit:10;}
	.st31{fill:#FFFFFF;stroke:#000000;stroke-width:15.2362;stroke-linecap:round;stroke-linejoin:round;stroke-miterlimit:10;}
	.st32{fill:#FFFFFF;stroke:#000000;stroke-width:14.8467;stroke-linecap:round;stroke-linejoin:round;stroke-miterlimit:10;}
	.st33{stroke:#000000;stroke-width:20.1683;stroke-linecap:round;stroke-miterlimit:10;}
	.st34{fill:none;stroke:#000000;stroke-width:14.8467;stroke-linecap:round;stroke-linejoin:round;stroke-miterlimit:10;}
	.st35{stroke:#000000;stroke-width:1.6734;stroke-miterlimit:10;}
	.st36{font-family:'FoundersGrotesk-Semibold';}
	.st37{font-size:135.9402px;}
	.st38{letter-spacing:-4;}
	.st39{fill:#FFFFFF;stroke:#FFFFFF;stroke-width:3;stroke-miterlimit:10;}
	.st40{display:inline;fill:none;stroke:#000000;stroke-width:15;stroke-linecap:round;stroke-linejoin:round;stroke-miterlimit:10;}
	
		.st41{display:inline;fill:#FFFFFF;stroke:#000000;stroke-width:15;stroke-linecap:round;stroke-linejoin:round;stroke-miterlimit:10;}
	.st42{fill:#FFFFFF;stroke:#000000;stroke-width:15;stroke-linecap:round;stroke-linejoin:round;stroke-miterlimit:10;}
	.st43{fill:#FFFFFF;stroke:#000000;stroke-width:11.7326;stroke-linecap:round;stroke-linejoin:round;stroke-miterlimit:10;}
	.st44{fill:#FFFFFF;stroke:#000000;stroke-width:13.2623;stroke-linecap:round;stroke-linejoin:round;stroke-miterlimit:10;}
	.st45{fill:none;stroke:#000000;stroke-width:16;stroke-linecap:round;stroke-miterlimit:10;}
	.st46{fill:url(#);stroke:#000000;stroke-width:16;stroke-linecap:round;stroke-linejoin:round;stroke-miterlimit:10;}
	.st47{fill:#FFFFFF;stroke:#000000;stroke-width:16;stroke-linecap:round;stroke-miterlimit:10;}
	.st48{fill:#FFFFFF;stroke:#000000;stroke-width:13.2623;stroke-linecap:round;stroke-miterlimit:10;}
	.st49{stroke:#000000;stroke-width:4.5213;stroke-miterlimit:10;}
	.st50{fill:none;stroke:#000000;stroke-width:15.2344;stroke-linecap:round;stroke-linejoin:round;stroke-miterlimit:10;}
	.st51{fill:#FFFFFF;stroke:#000000;stroke-width:15.2344;stroke-linecap:round;stroke-linejoin:round;stroke-miterlimit:10;}
	.st52{stroke:#000000;stroke-width:18.3348;stroke-linecap:round;stroke-miterlimit:10;}
	.st53{fill:none;stroke:#000000;stroke-width:13.497;stroke-linecap:round;stroke-linejoin:round;stroke-miterlimit:10;}
	.st54{font-family:'FoundersGrotesk-Bold';}
	.st55{font-size:20.6105px;}
	.st56{font-size:10.3052px;}
	.st57{font-size:19.2364px;}
	.st58{font-size:10px;}
	.st59{display:inline;fill:none;stroke:#000000;stroke-width:16;stroke-linecap:round;stroke-linejoin:round;stroke-miterlimit:10;}
	.st60{fill:#FFFFFF;stroke:#000000;stroke-width:13.3058;stroke-linecap:round;stroke-linejoin:round;stroke-miterlimit:10;}
	.st61{fill:#FFFFFF;stroke:#000000;stroke-width:17;stroke-linecap:round;stroke-linejoin:round;stroke-miterlimit:10;}
	.st62{fill:#FFFFFF;stroke:#000000;stroke-width:15.2517;stroke-linecap:round;stroke-linejoin:round;stroke-miterlimit:10;}
	.st63{stroke:#000000;stroke-width:3;stroke-miterlimit:10;}
	.st64{fill:#FFFFFF;stroke:#000000;stroke-width:16.0686;stroke-linecap:round;stroke-linejoin:round;stroke-miterlimit:10;}
	.st65{fill:#FFFFFF;stroke:#000000;stroke-width:15;stroke-linejoin:round;stroke-miterlimit:10;}
	.st66{fill:url(#);stroke:#000000;stroke-width:13.497;stroke-linecap:round;stroke-linejoin:round;stroke-miterlimit:10;}
	.st67{fill:#06A6FF;}
	.st68{fill:#FF0303;}
	.st69{fill:#3DFF06;}
	.st70{fill:#FFF808;}
	.st71{fill:none;stroke:#000000;stroke-width:0;stroke-linecap:round;stroke-linejoin:round;}
</style>
<g id="unexpanded" class="st0">
	<g class="st1">
		<g>
			<path class="st32" d="M448.48,77.36c0,0,63.94,58.17,69.15,69.6c5.31,11.65,2.56,19.13-2.24,28.89
				c-4.68,9.53-32.58,66.76-32.58,66.76c-4.59,9.55-19,12.12-29.1,7.27c-10.1-4.85-16.6-17.53-12.01-27.09l25.7-53.49"/>
			<path class="st32" d="M408.36,200.71c1.81,9.37,11.31,15.41,21.21,13.49s16.46-11.06,14.65-20.43l-12.01-62.1
				c-1.81-9.37-11.31-15.41-21.21-13.49s-16.46,11.06-14.65,20.43L408.36,200.71z"/>
			<path class="st32" d="M240.97,43.88c0,0,170.68,1.65,183.39,3.17c12.71,1.53,30.69,14.48,34.17,29.04
				c2.57,10.76,16.02,51.61,20.69,78.42c1.65,9.45,2.56,16.75,0.08,23.48c-3.67,9.96-25.36,69.82-25.36,69.82
				c-3.56,9.98-17.62,14.06-28.17,10.3c-10.55-3.76-18.36-15.68-14.8-25.67l23.57-66.18l-14.61-32.67c-2-4.85-33.66-7.57-47.55,9.91
				"/>
			<path class="st9" d="M376.7,139.28c-3.6,3.02-11.03,11.17-13.2,17.06c-4.62,12.53,28.65,45.69,60.51,79.27
				c23.03,24.27,10.33,48.71,1.52,60.39c-3.38,4.48-9.22,4.03-14.28-1.02c-18.11-18.09-62.15-61.89-85.76-83.59
				c-75.18-22.37-111.03-69.13-111.03-69.13L18.09,166.27v-132l222.87,9.61l130.97,2.77"/>
			<polyline class="st32" points="25.01,35.28 240.97,43.88 417.55,46.65 			"/>
			<g>
				<path class="st33" d="M150.94,526.36c19.22,33.46,55.36,55.93,96.7,55.64c41.34-0.29,77.16-23.26,95.91-56.99L150.94,526.36z"/>
				<polyline class="st34" points="150.94,526.36 247.49,238.94 343.55,525 				"/>
			</g>
			<g>
				<path class="st33" d="M495.79,452.12c19.22,33.46,55.36,55.93,96.7,55.64c41.34-0.29,77.16-23.26,95.91-56.99L495.79,452.12z"/>
				<polyline class="st34" points="495.79,452.12 592.34,164.7 688.4,450.77 				"/>
				<g>
					<text transform="matrix(1 0 0 1 550.3418 405.5822)" class="st35 st36 st37 st38">$</text>
				</g>
			</g>
			<line class="st32" x1="211.83" y1="257" x2="627.48" y2="164.21"/>
			<path class="st32" d="M376.7,139.28c-3.6,3.02-11.03,11.17-13.2,17.06c-4.62,12.53,28.65,45.69,60.51,79.27
				c23.03,24.27,10.33,48.71,1.52,60.39c-3.38,4.48-9.22,4.03-14.28-1.02c-18.11-18.09-62.15-61.89-85.76-83.59
				c-75.18-22.37-111.03-69.13-111.03-69.13s-145.68,23.8-189.47,24.03"/>
		</g>
	</g>
	<g class="st1">
		<g>
			<g>
				<path d="M245.09,507.77c-5.1,0-7.61-2.51-8.31-8.03c-0.42-3.26-5.84-49.14-5.84-49.14h-3.01c-4.98,0-9.7-3.24-8.87-9.4
					c0.64-4.76,4.3-36.03,4.77-40.45c0.48-4.41,4.04-8.17,9.02-8.17h14.4h14.39c4.98,0,8.55,3.76,9.02,8.17
					c0.48,4.42,4.14,35.69,4.77,40.45c0.83,6.16-3.88,9.4-8.87,9.4h-3c0,0-5.42,45.88-5.84,49.14c-0.72,5.51-3.83,8.03-8.51,8.03
					h-1.93H245.09z"/>
			</g>
		</g>
		<circle cx="247.24" cy="368.2" r="15.51"/>
	</g>
	<g class="st1">
		<text transform="matrix(8.979319e-11 -1 1 8.979319e-11 26.8613 489.8593)"><tspan x="0" y="0" class="st54 st55">www</tspan><tspan x="45.14" y="0" class="st54 st56"> </tspan><tspan x="46.99" y="0" class="st54 st55">.</tspan><tspan x="51.77" y="0" class="st54 st56"> </tspan><tspan x="53.63" y="0" class="st54 st55">Capitalism</tspan><tspan x="150.43" y="0" class="st54 st57"> </tspan><tspan x="153.9" y="0" class="st54 st55">Is</tspan><tspan x="168.88" y="0" class="st54 st57"> </tspan><tspan x="172.34" y="0" class="st54 st55">A</tspan><tspan x="186.6" y="0" class="st54 st56"> </tspan><tspan x="188.46" y="0" class="st54 st55">Virus</tspan><tspan x="236.15" y="0" class="st54 st56"> </tspan><tspan x="238.01" y="0" class="st54 st55">.</tspan><tspan x="242.79" y="0" class="st54 st56"> </tspan><tspan x="244.64" y="0" class="st54 st55">org</tspan></text>
		<text transform="matrix(0 1 -1 0 761.9292 209.1802)"><tspan x="0" y="0" class="st54 st55">#</tspan><tspan x="12.7" y="0" class="st54 st58"> </tspan><tspan x="14.5" y="0" class="st54 st55">Capitalism</tspan><tspan x="111.3" y="0" class="st54 st58"> </tspan><tspan x="113.1" y="0" class="st54 st55">Is</tspan><tspan x="128.09" y="0" class="st54 st58"> </tspan><tspan x="129.89" y="0" class="st54 st55">A</tspan><tspan x="144.15" y="0" class="st54 st58"> </tspan><tspan x="145.95" y="0" class="st54 st55">Virus</tspan></text>
	</g>
</g>
<g id="expanded">
	<path d="M629.09,171.45c4-0.89,6.52-4.86,5.63-8.86c-0.89-4-4.86-6.52-8.86-5.63l-26.31,5.87l-0.17-0.49
		c-1.02-3.02-3.85-5.06-7.04-5.06c0,0,0,0,0,0c-3.19,0-6.02,2.04-7.04,5.06l-1.33,3.97l-62.48,13.95c0.21-0.43,0.4-0.81,0.56-1.14
		c5.22-10.63,9.01-20.62,2.33-35.25c-4.14-9.09-34.43-38.21-55.31-57.65c-1.56-5.29-2.76-9.46-3.33-11.87
		c-4.2-17.57-24.85-32.8-40.5-34.68c-1.22-0.15-3.74-0.29-7.31-0.44c-0.09,0-0.18-0.02-0.27-0.02l-0.3,0
		c-34.43-1.36-160.02-2.61-176.21-2.76L25.3,27.86c-4.1-0.16-7.55,3.03-7.71,7.12c-0.04,1.06,0.14,2.07,0.51,3
		c1.04,2.66,3.58,4.6,6.62,4.72l215.96,8.6c0.06,0,0.12,0,0.18,0l176.58,2.77c0.04,0,0.08,0,0.12,0c0.01,0,0.03,0,0.04,0
		c2.89,0.12,4.92,0.24,5.88,0.35c10.09,1.21,25.22,12.47,27.83,23.39c0.82,3.43,2.6,9.46,4.85,17.09
		c5,16.95,12.56,42.57,15.75,60.88c1.63,9.37,2.15,14.98,0.43,19.63c-1,2.72-3.37,9.23-6.28,17.22l-35.88,8.01l11.36-31.9
		c0.64-1.8,0.56-3.78-0.22-5.52l-14.58-32.61c-1.76-4.06-6.25-6.55-13.73-7.6c-8.79-1.24-24.34-0.57-36.76,7.27l0.08,1.59
		c-1.56,0.08-3.1,0.64-4.39,1.72c-3.61,3.02-12.49,12.31-15.4,20.18c-5.54,15.01,15.61,38.19,53.45,77.87
		c2.87,3.01,5.76,6.04,8.64,9.08c18.1,19.07,10.52,38.16,0.98,50.81c-0.04,0.05-0.07,0.09-0.1,0.12c-0.39-0.05-1.51-0.44-3-1.93
		c-17.94-17.93-62.24-61.98-85.98-83.81c-0.83-0.76-1.82-1.33-2.91-1.65c-71.74-21.35-106.91-66.09-107.25-66.53
		c-1.66-2.17-4.39-3.25-7.09-2.81c-1.45,0.24-145.6,23.71-188.31,23.93c-3.13,0.02-5.8,1.98-6.87,4.73
		c-0.33,0.85-0.52,1.77-0.51,2.73c0.02,4.09,3.34,7.39,7.42,7.39c0.01,0,0.03,0,0.04,0c33.16-0.17,121.72-13.31,165.54-20.14
		c9.29-1.45,16.58-2.61,20.89-3.31c0.42,0.48,0.9,1.03,1.42,1.59c11.67,12.97,47.09,47.34,108.83,66.14
		c1.86,1.72,3.85,3.58,5.93,5.53l-72.1,16.1l-1.03-3.06c-1.02-3.02-3.85-5.06-7.04-5.06c0,0,0,0,0,0c-3.19,0-6.02,2.04-7.04,5.06
		l-2.33,6.95l-27.9,6.23c-4,0.89-6.52,4.86-5.63,8.86c0.77,3.46,3.84,5.81,7.24,5.81c0.54,0,1.08-0.06,1.62-0.18l19.15-4.27
		L146.48,516.3l-12.9,0.09l8.61,14.99c21.54,37.5,61.58,60.7,104.67,60.7c0.28,0,0.56,0,0.84,0c43.41-0.3,83.51-24.13,104.65-62.18
		l8.39-15.1l-12.77,0.09L260.3,253.78l80.29-17.92c23.3,22.41,51.88,50.85,65.42,64.37c4.08,4.08,8.87,6.28,13.59,6.28
		c0.35,0,0.7-0.01,1.05-0.04c4.28-0.3,8.12-2.43,10.81-6c8.78-11.64,13.11-23.63,13.04-35.23c0.12-0.04,0.24-0.07,0.36-0.11
		c4.28-1.46,7.97-3.75,10.83-6.63c2.87,0.79,5.89,1.19,8.91,1.19c2.47,0,4.94-0.27,7.35-0.81c8.03-1.82,14.42-6.58,17.52-13.02
		c0.2-0.4,13.92-28.56,23.67-48.52l65.3-14.58l-87.11,259.31l-12.9,0.09l8.61,14.98c21.54,37.5,61.58,60.7,104.67,60.7
		c0.28,0,0.56,0,0.84,0c43.41-0.3,83.51-24.13,104.65-62.18l8.39-15.1l-12.77,0.09L604.3,176.99L629.09,171.45z M332.36,515
		l-170.17,1.19l85.31-253.94L332.36,515z M383.79,180.92c-13.38-16.46-13.38-21.41-13.3-22.08c1.03-2.71,4.17-6.83,7.14-10.09
		c0.08-0.08,0.16-0.17,0.24-0.26c1.31-1.42,2.57-2.66,3.6-3.52c0.31-0.26,0.58-0.54,0.83-0.83c2.08-1.58,4.4-2.82,6.82-3.79
		l11.57,59.82C394.38,193.34,388.63,186.87,383.79,180.92z M415.38,197.92l-11.71-60.55c4.46-0.19,8.23,0.25,10.23,0.92l12.65,28.28
		L415.38,197.92z M446.95,245.32c-0.75,2.11-2.62,3.84-5.05,5.02c-2.45-6.95-6.61-13.62-12.5-19.83c-2.39-2.52-4.79-5.03-7.18-7.54
		l2.06-5.79l35.76-7.98C453.58,227,447.07,244.97,446.95,245.32z M476.11,239.39c-1.14,2.37-3.85,4.2-7.43,5.01
		c-1.86,0.42-3.83,0.53-5.75,0.36c3.06-8.45,9.07-25.03,14.29-39.41l17.38-3.88C485.8,219.53,476.29,239.04,476.11,239.39z
		 M508.73,172.58c-1.01,2.05-3.11,6.35-5.79,11.83l-19.69,4.4c1.36-3.74,2.42-6.65,3.01-8.25c3.16-8.56,1.99-17.44,0.27-27.32
		c-2.01-11.56-5.62-25.64-9.28-38.79c17.76,17.12,31.74,31.57,33.62,35.59C514.77,158.57,513.21,163.46,508.73,172.58z
		 M677.21,440.77l-170.17,1.2l85.31-253.94L677.21,440.77z"/>
	<path d="M584.71,306.87v10.8c-18.83,1.5-30.04,11.86-30.04,27.83c0,13.7,8.45,22.68,23.8,25.29l6.24,1.1v17.77
		c-7.34-2.23-11.61-7.62-12.06-15.26l-0.05-0.82l-20.11,0.74v0.81c0,18.08,12.03,30.16,32.22,32.43v12.59h11.87v-12.28
		c19.39-1.29,31.4-11.75,31.4-27.43c0-14.41-8.54-22.95-26.11-26.11l-5.29-0.96v-17.45c5.95,2.14,9.53,7.03,9.88,13.58l0.04,0.82
		l19.72-0.59l-0.01-0.82c-0.28-17.41-11.06-28.65-29.63-30.91v-11.1H584.71z M584.71,351.27c-6.59-1.4-9.07-3.5-9.07-7.54
		c0-5.03,2.97-7.89,9.07-8.71V351.27z M606.87,381.79c0,4.73-3.73,7.88-10.29,8.72v-16.56
		C603.97,375.32,606.87,377.56,606.87,381.79z"/>
	<path d="M247.24,392.59h-14.4c-4.98,0-8.55,3.76-9.02,8.17c-0.47,4.42-4.12,35.69-4.77,40.45c-0.83,6.16,3.89,9.4,8.87,9.4h3.01
		c0,0,5.42,45.88,5.84,49.14c0.71,5.51,3.21,8.03,8.31,8.03h2.18h1.94c4.67,0,7.79-2.51,8.51-8.03c0.42-3.26,5.84-49.14,5.84-49.14
		h3c4.99,0,9.71-3.24,8.87-9.4c-0.63-4.76-4.29-36.03-4.77-40.45c-0.47-4.41-4.04-8.17-9.02-8.17H247.24z"/>
	<path d="M231.73,368.2c0,8.57,6.94,15.51,15.51,15.51c8.57,0,15.51-6.94,15.51-15.51c0-8.57-6.94-15.51-15.51-15.51
		C238.68,352.69,231.73,359.63,231.73,368.2z"/>
	<polygon points="26.86,450.81 26.86,447.53 17.67,444.63 17.67,447.64 22.88,449.29 22.88,449.37 17.67,450.71 17.67,453.37 
		22.88,454.71 22.88,454.79 17.67,456.44 17.67,459.67 17.67,459.76 17.67,462.68 22.88,464.33 22.88,464.41 17.67,465.75 
		17.67,468.41 22.88,469.75 22.88,469.84 17.67,471.48 17.67,474.72 17.67,474.8 17.67,477.73 22.88,479.38 22.88,479.46 
		17.67,480.8 17.67,483.46 22.88,484.8 22.88,484.88 17.67,486.53 17.67,489.85 26.86,486.94 26.86,483.66 21.67,482.32 
		21.67,482.24 26.86,480.9 26.86,477.62 17.8,474.76 26.86,471.9 26.86,468.62 21.67,467.28 21.67,467.2 26.86,465.86 26.86,462.58 
		17.8,459.72 26.86,456.85 26.86,453.57 21.67,452.23 21.67,452.15 	"/>
	<rect x="23.32" y="438.65" width="3.55" height="3.55"/>
	<path d="M20.37,435.77c4,0,6.74-2.87,6.74-6.66c0-3.98-2.51-6.1-5.75-6.35l-0.14,3.36c1.44,0.21,2.78,0.99,2.78,3.01
		c0,1.92-1.42,3.03-3.63,3.03s-3.63-1.11-3.63-3.03c0-2.02,1.34-2.8,2.78-3.01l-0.12-3.36c-3.24,0.25-5.77,2.37-5.77,6.35
		C13.63,432.9,16.37,435.77,20.37,435.77z"/>
	<path d="M27.07,413.67c0-0.95-0.27-1.61-0.6-2.08H24.7c0.1,0.27,0.14,0.47,0.14,0.74c0,0.35-0.21,0.56-0.68,0.56h-3.13
		c-2.56,0-3.61,1.79-3.61,4.23c0,2.76,1.4,4.27,3.42,4.56l0.21-3.09c-0.68-0.14-1.15-0.52-1.15-1.26c0-0.8,0.45-1.15,1.22-1.15h0.14
		l0.43,2.58c0.35,2,1.11,3.28,2.89,3.28c1.57,0,2.49-1.17,2.49-2.97c0-1.46-0.56-2.52-1.63-3.05
		C26.49,415.69,27.07,414.81,27.07,413.67z M24.14,418.8c-0.6,0-0.85-0.47-1.01-1.28l-0.25-1.36h0.14c1.2,0,1.9,0.76,1.9,1.71
		C24.92,418.43,24.61,418.8,24.14,418.8z"/>
	<path d="M30.16,407.28h-4.86c1.07-0.45,1.81-1.48,1.81-3.03c0-2.7-2.12-4.08-4.84-4.08c-2.7,0-4.84,1.38-4.84,4.08
		c0,1.55,0.74,2.58,1.83,3.03h-1.59v3.34h12.49V407.28z M22.33,407.28H22.2c-1.32,0-2.18-0.72-2.18-1.86c0-1.3,0.93-1.9,2.25-1.9
		c1.34,0,2.27,0.6,2.27,1.9C24.53,406.56,23.67,407.28,22.33,407.28z"/>
	<rect x="17.67" y="395.52" width="9.19" height="3.34"/>
	<rect x="13.87" y="395.49" width="2.93" height="3.38"/>
	<path d="M17.81,393.93l0.1,0.68h2.06v-1.24h4.33c2.16,0,2.8-1.46,2.8-3.01c0-1.26-0.31-2.06-0.82-2.76h-2.16
		c0.23,0.56,0.31,1.01,0.31,1.42c0,0.68-0.31,1.05-1.09,1.05h-3.36v-2.39h-2.31v2.39h-2.54v2.1l1.2,0.31
		C17.17,392.71,17.67,393,17.81,393.93z"/>
	<path d="M27.07,378.51c0-0.95-0.27-1.61-0.6-2.08H24.7c0.1,0.27,0.14,0.47,0.14,0.74c0,0.35-0.21,0.56-0.68,0.56h-3.13
		c-2.56,0-3.61,1.79-3.61,4.23c0,2.76,1.4,4.27,3.42,4.56l0.21-3.09c-0.68-0.14-1.15-0.52-1.15-1.26c0-0.8,0.45-1.15,1.22-1.15h0.14
		l0.43,2.58c0.35,2,1.11,3.28,2.89,3.28c1.57,0,2.49-1.17,2.49-2.97c0-1.46-0.56-2.52-1.63-3.05
		C26.49,380.53,27.07,379.64,27.07,378.51z M24.14,383.64c-0.6,0-0.85-0.47-1.01-1.28L22.88,381h0.14c1.2,0,1.9,0.76,1.9,1.71
		C24.92,383.27,24.61,383.64,24.14,383.64z"/>
	<rect x="13.87" y="372.12" width="12.99" height="3.34"/>
	<rect x="13.87" y="366.95" width="2.93" height="3.38"/>
	<rect x="17.67" y="366.97" width="9.19" height="3.34"/>
	<path d="M24.06,356.93c-1.79,0-2.72,1.2-3.05,3.26l-0.31,1.79c-0.04,0.31-0.21,0.56-0.52,0.56c-0.41,0-0.66-0.37-0.66-1.01
		c0-1.03,0.41-1.61,1.07-1.73l-0.08-2.74c-1.92,0.19-3.09,1.75-3.09,4.41c0,2.58,1.3,4.16,3.11,4.16c1.88,0,2.6-1.17,2.95-3.4
		l0.21-1.36c0.1-0.64,0.35-0.85,0.7-0.85c0.37,0,0.64,0.39,0.64,1.13c0,1.01-0.43,1.63-1.2,1.75l0.04,2.91
		c2.23-0.19,3.24-2.08,3.24-4.62C27.11,358.58,26,356.93,24.06,356.93z"/>
	<path d="M17.42,349.45c0,1.38,0.62,2.37,1.63,2.87h-1.38v3.34h9.19v-3.34h-4.51c-1.38,0-2.29-0.39-2.29-1.48
		c0-1.01,0.66-1.26,1.92-1.26h4.89v-3.34h-4.51c-1.38,0-2.29-0.37-2.29-1.48c0-1.01,0.66-1.24,1.92-1.24h4.89v-3.34h-5.77
		c-1.92,0-3.67,0.74-3.67,3.28c0,1.55,0.78,2.64,1.81,3.13C18.16,346.98,17.42,347.82,17.42,349.45z"/>
	<rect x="13.87" y="331.42" width="12.99" height="3.5"/>
	<path d="M23.83,327.27l0.04,2.91c2.23-0.19,3.24-2.08,3.24-4.62c0-2.62-1.11-4.27-3.05-4.27c-1.79,0-2.72,1.2-3.05,3.26l-0.31,1.79
		c-0.04,0.31-0.21,0.56-0.52,0.56c-0.41,0-0.66-0.37-0.66-1.01c0-1.03,0.41-1.61,1.07-1.73l-0.08-2.74
		c-1.92,0.19-3.09,1.75-3.09,4.41c0,2.58,1.3,4.16,3.11,4.16c1.88,0,2.6-1.18,2.95-3.4l0.21-1.36c0.1-0.64,0.35-0.85,0.7-0.85
		c0.37,0,0.64,0.39,0.64,1.13C25.03,326.53,24.59,327.15,23.83,327.27z"/>
	<path d="M13.87,312.29l12.99,5.17v-3.52l-2.51-0.97v-5.07l2.51-0.97v-3.73l-12.99,5.17V312.29z M17.89,310.39l3.83-1.48v3.05
		l-3.83-1.48V310.39z"/>
	<polygon points="13.87,297.68 13.87,301.35 26.86,296.36 26.86,292.67 13.87,287.68 13.87,291.16 22.51,294.38 22.51,294.46 	"/>
	<rect x="13.87" y="283.42" width="2.93" height="3.38"/>
	<rect x="17.67" y="283.44" width="9.19" height="3.34"/>
	<path d="M19.3,278.28h-1.63v3.34h9.19v-3.34h-4.21c-1.55,0-2.12-0.76-2.12-2c0-0.64,0.12-1.13,0.39-1.59l-3.15-0.21
		c-0.19,0.23-0.35,0.72-0.35,1.28C17.42,276.99,18.27,277.95,19.3,278.28z"/>
	<path d="M22.57,270.23h-4.91v3.34h5.79c1.92,0,3.65-0.76,3.65-3.28c0-1.38-0.6-2.39-1.63-2.89h1.38v-3.34h-9.19v3.34h4.51
		c1.4,0,2.31,0.41,2.31,1.46C24.49,269.88,23.81,270.23,22.57,270.23z"/>
	<path d="M20.53,262.72c1.88,0,2.6-1.18,2.95-3.4l0.21-1.36c0.1-0.64,0.35-0.85,0.7-0.85c0.37,0,0.64,0.39,0.64,1.13
		c0,1.01-0.43,1.63-1.2,1.75l0.04,2.91c2.23-0.19,3.24-2.08,3.24-4.62c0-2.62-1.11-4.27-3.05-4.27c-1.79,0-2.72,1.2-3.05,3.26
		l-0.31,1.79c-0.04,0.31-0.21,0.56-0.52,0.56c-0.41,0-0.66-0.37-0.66-1.01c0-1.03,0.41-1.61,1.07-1.73l-0.08-2.74
		c-1.92,0.19-3.09,1.75-3.09,4.41C17.42,261.14,18.72,262.72,20.53,262.72z"/>
	<rect x="23.32" y="247.64" width="3.55" height="3.55"/>
	<path d="M22.26,244.75c2.87,0,4.84-2.02,4.84-5.03c0-2.99-1.98-5.03-4.84-5.03c-2.84,0-4.84,2.04-4.84,5.03
		C17.42,242.73,19.42,244.75,22.26,244.75z M22.26,238.05c1.38,0,2.33,0.52,2.33,1.67c0,1.17-0.95,1.67-2.33,1.67
		s-2.33-0.49-2.33-1.67C19.93,238.57,20.88,238.05,22.26,238.05z"/>
	<path d="M17.77,226.24c-0.19,0.23-0.35,0.72-0.35,1.28c0,1.22,0.85,2.19,1.88,2.52h-1.63v3.34h9.19v-3.34h-4.21
		c-1.55,0-2.12-0.76-2.12-2c0-0.64,0.12-1.13,0.39-1.59L17.77,226.24z"/>
	<path d="M27.07,215.57c-1.55,0-2.64,1.05-2.64,3.13v3.81c0,0.56-0.25,0.78-0.56,0.78c-0.19,0-0.33-0.06-0.43-0.19
		c0.19-0.6,0.27-1.26,0.27-2c0-2.6-1.2-4.47-3.13-4.47c-0.43,0-0.83,0.1-1.18,0.29c-0.1-0.45-0.14-0.95-0.14-1.34h-2.52
		c0,1.01,0.66,2.02,1.42,2.58c-0.47,0.78-0.74,1.83-0.74,2.95c0,2.58,1.2,4.43,3.15,4.43c1.01,0,1.79-0.49,2.33-1.32
		c0.37,0.99,1.05,1.57,1.94,1.57c0.78,0,1.53-0.49,1.79-1.32c0.08,1.03,0.72,1.75,1.53,1.75c1.73,0,2.25-2.27,2.25-4.89
		C30.41,218.35,29.36,215.57,27.07,215.57z M20.57,222.04c-0.8,0-1.32-0.41-1.32-0.97c0-0.56,0.52-0.97,1.32-0.97
		c0.82,0,1.34,0.41,1.34,0.97C21.91,221.63,21.4,222.04,20.57,222.04z M27.83,223.48c-0.35,0-0.56-0.25-0.56-0.62v-3.38
		c0-0.56,0.14-0.85,0.54-0.85c0.56,0,0.87,1.13,0.87,2.68C28.68,222.55,28.49,223.48,27.83,223.48z"/>
	<path d="M765.35,209.59v1.81l-3.42-0.8v2.49l3.42,0.8v1.77l-3.42-0.8v2.49l3.42,0.8v2.04l2.06,0.43v-1.98l2.02,0.49v1.88l2.06,0.43
		v-1.83l3.42,0.82v-2.49l-3.42-0.82v-1.77l3.42,0.83v-2.49l-3.42-0.82v-2.02l-2.06-0.43v1.98l-2.02-0.49v-1.88L765.35,209.59z
		 M769.43,214.89v1.77l-2.02-0.49v-1.77L769.43,214.89z"/>
	<path d="M768.42,224.09c-4,0-6.74,2.87-6.74,6.66c0,3.98,2.52,6.1,5.75,6.35l0.14-3.36c-1.44-0.21-2.78-0.99-2.78-3.01
		c0-1.92,1.42-3.03,3.63-3.03s3.63,1.11,3.63,3.03c0,2.02-1.34,2.8-2.78,3.01l0.12,3.36c3.24-0.25,5.77-2.37,5.77-6.35
		C775.16,226.95,772.42,224.09,768.42,224.09z"/>
	<path d="M761.72,246.18c0,0.95,0.27,1.61,0.6,2.08h1.77c-0.1-0.27-0.14-0.47-0.14-0.74c0-0.35,0.21-0.56,0.68-0.56h3.13
		c2.56,0,3.61-1.79,3.61-4.23c0-2.76-1.4-4.27-3.42-4.56l-0.21,3.09c0.68,0.14,1.15,0.52,1.15,1.26c0,0.8-0.45,1.15-1.22,1.15h-0.14
		l-0.43-2.58c-0.35-2-1.11-3.28-2.89-3.28c-1.57,0-2.49,1.18-2.49,2.97c0,1.46,0.56,2.52,1.63,3.05
		C762.3,244.16,761.72,245.05,761.72,246.18z M764.65,241.05c0.6,0,0.85,0.47,1.01,1.28l0.25,1.36h-0.14c-1.2,0-1.9-0.76-1.9-1.71
		C763.87,241.42,764.18,241.05,764.65,241.05z"/>
	<path d="M758.63,252.57h4.87c-1.07,0.45-1.81,1.48-1.81,3.03c0,2.7,2.12,4.08,4.84,4.08c2.7,0,4.84-1.38,4.84-4.08
		c0-1.55-0.74-2.58-1.83-3.03h1.59v-3.34h-12.49V252.57z M766.46,252.57h0.12c1.32,0,2.19,0.72,2.19,1.86c0,1.3-0.93,1.9-2.25,1.9
		c-1.34,0-2.27-0.6-2.27-1.9C764.26,253.29,765.12,252.57,766.46,252.57z"/>
	<rect x="761.93" y="261" width="9.19" height="3.34"/>
	<rect x="771.99" y="260.98" width="2.93" height="3.38"/>
	<path d="M773.66,267.68l-1.2-0.31c-0.85-0.23-1.34-0.52-1.48-1.44l-0.1-0.68h-2.06v1.24h-4.33c-2.16,0-2.8,1.46-2.8,3.01
		c0,1.26,0.31,2.06,0.82,2.76h2.16c-0.23-0.56-0.31-1.01-0.31-1.42c0-0.68,0.31-1.05,1.09-1.05h3.36v2.39h2.31v-2.39h2.54V267.68z"
		/>
	<path d="M764.63,282.13h3.13c2.56,0,3.61-1.79,3.61-4.23c0-2.76-1.4-4.27-3.42-4.56l-0.21,3.09c0.68,0.14,1.15,0.52,1.15,1.26
		c0,0.8-0.45,1.15-1.22,1.15h-0.14l-0.43-2.58c-0.35-2-1.11-3.28-2.89-3.28c-1.57,0-2.49,1.18-2.49,2.97c0,1.46,0.56,2.51,1.63,3.05
		c-1.05,0.31-1.63,1.2-1.63,2.33c0,0.95,0.27,1.61,0.6,2.08h1.77c-0.1-0.27-0.14-0.47-0.14-0.74
		C763.95,282.33,764.16,282.13,764.63,282.13z M763.87,277.14c0-0.56,0.31-0.93,0.78-0.93c0.6,0,0.85,0.47,1.01,1.28l0.25,1.36
		h-0.14C764.57,278.85,763.87,278.09,763.87,277.14z"/>
	<rect x="761.93" y="284.39" width="12.99" height="3.34"/>
	<rect x="771.99" y="289.53" width="2.93" height="3.38"/>
	<rect x="761.93" y="289.55" width="9.19" height="3.34"/>
	<path d="M768.26,294.22c-1.88,0-2.6,1.18-2.95,3.4l-0.21,1.36c-0.1,0.64-0.35,0.85-0.7,0.85c-0.37,0-0.64-0.39-0.64-1.13
		c0-1.01,0.43-1.63,1.2-1.75l-0.04-2.91c-2.23,0.19-3.24,2.08-3.24,4.62c0,2.62,1.11,4.27,3.05,4.27c1.79,0,2.72-1.2,3.05-3.26
		l0.31-1.79c0.04-0.31,0.21-0.56,0.52-0.56c0.41,0,0.66,0.37,0.66,1.01c0,1.03-0.41,1.61-1.07,1.73l0.08,2.74
		c1.92-0.19,3.09-1.75,3.09-4.41C771.37,295.81,770.07,294.22,768.26,294.22z"/>
	<path d="M771.37,310.41c0-1.38-0.62-2.37-1.63-2.87h1.38v-3.34h-9.19v3.34h4.51c1.38,0,2.29,0.39,2.29,1.48
		c0,1.01-0.66,1.26-1.92,1.26h-4.89v3.34h4.51c1.38,0,2.29,0.37,2.29,1.48c0,1.01-0.66,1.24-1.92,1.24h-4.89v3.34h5.77
		c1.92,0,3.67-0.74,3.67-3.28c0-1.55-0.78-2.64-1.81-3.13C770.63,312.88,771.37,312.03,771.37,310.41z"/>
	<rect x="761.93" y="323.27" width="12.99" height="3.5"/>
	<path d="M764.96,330.92l-0.04-2.91c-2.23,0.19-3.24,2.08-3.24,4.62c0,2.62,1.11,4.27,3.05,4.27c1.79,0,2.72-1.2,3.05-3.26
		l0.31-1.79c0.04-0.31,0.21-0.56,0.52-0.56c0.41,0,0.66,0.37,0.66,1.01c0,1.03-0.41,1.61-1.07,1.73l0.08,2.74
		c1.92-0.19,3.09-1.75,3.09-4.41c0-2.58-1.3-4.16-3.11-4.16c-1.88,0-2.6,1.18-2.95,3.4l-0.21,1.36c-0.1,0.64-0.35,0.85-0.7,0.85
		c-0.37,0-0.64-0.39-0.64-1.13C763.76,331.66,764.2,331.04,764.96,330.92z"/>
	<path d="M774.92,344.24l-12.99-5.17v3.52l2.52,0.97v5.07l-2.52,0.97v3.73l12.99-5.17V344.24z M770.9,346.14l-3.83,1.48v-3.05
		l3.83,1.48V346.14z"/>
	<polygon points="774.92,358.8 774.92,355.13 761.93,360.12 761.93,363.81 774.92,368.8 774.92,365.31 766.28,362.1 766.28,362.01 	
		"/>
	<rect x="761.93" y="369.7" width="9.19" height="3.34"/>
	<rect x="771.99" y="369.68" width="2.93" height="3.38"/>
	<path d="M769.5,378.19h1.63v-3.34h-9.19v3.34h4.21c1.55,0,2.12,0.76,2.12,2c0,0.64-0.12,1.13-0.39,1.59l3.15,0.21
		c0.19-0.23,0.35-0.72,0.35-1.28C771.37,379.49,770.53,378.52,769.5,378.19z"/>
	<path d="M766.22,386.25h4.91v-3.34h-5.79c-1.92,0-3.65,0.76-3.65,3.28c0,1.38,0.6,2.39,1.63,2.89h-1.38v3.34h9.19v-3.34h-4.51
		c-1.4,0-2.31-0.41-2.31-1.46C764.3,386.6,764.98,386.25,766.22,386.25z"/>
	<path d="M768.2,399.59l0.08,2.74c1.92-0.19,3.09-1.75,3.09-4.41c0-2.58-1.3-4.16-3.11-4.16c-1.88,0-2.6,1.17-2.95,3.4l-0.21,1.36
		c-0.1,0.64-0.35,0.85-0.7,0.85c-0.37,0-0.64-0.39-0.64-1.13c0-1.01,0.43-1.63,1.2-1.75l-0.04-2.91c-2.23,0.19-3.24,2.08-3.24,4.62
		c0,2.62,1.11,4.27,3.05,4.27c1.79,0,2.72-1.2,3.05-3.26l0.31-1.79c0.04-0.31,0.21-0.56,0.52-0.56c0.41,0,0.66,0.37,0.66,1.01
		C769.27,398.88,768.86,399.46,768.2,399.59z"/>
</g>
</svg>
