<?xml version="1.0" encoding="utf-8"?>
<!-- Generator: Adobe Illustrator 23.1.1, SVG Export Plug-In . SVG Version: 6.00 Build 0)  -->
<svg version="1.1" xmlns="http://www.w3.org/2000/svg" xmlns:xlink="http://www.w3.org/1999/xlink" x="0px" y="0px"
	 viewBox="0 0 792 612" style="enable-background:new 0 0 792 612;" xml:space="preserve">
<style type="text/css">
	.st0{display:none;}
	.st1{display:inline;}
	
		.st2{display:inline;fill:#FFFFFF;stroke:#000000;stroke-width:16;stroke-linecap:round;stroke-linejoin:round;stroke-miterlimit:10;}
	.st3{fill:#FFFFFF;stroke:#000000;stroke-width:16;stroke-linecap:round;stroke-linejoin:round;stroke-miterlimit:10;}
	.st4{display:inline;fill:none;stroke:#000000;stroke-width:24;stroke-linejoin:round;stroke-miterlimit:10;}
	.st5{display:inline;fill:#FFFFFF;}
	.st6{fill:#FFFFFF;stroke:#000000;stroke-width:17;stroke-linecap:round;stroke-miterlimit:10;}
	.st7{fill:#FFFFFF;stroke:#000000;stroke-width:17;stroke-miterlimit:10;}
	.st8{stroke:#000000;stroke-width:16.0572;stroke-linecap:round;stroke-miterlimit:10;}
	.st9{fill:#FFFFFF;}
	.st10{fill:#FFFFFF;stroke:#000000;stroke-width:17.1072;stroke-linecap:round;stroke-linejoin:round;stroke-miterlimit:10;}
	.st11{stroke:#000000;stroke-width:17.1072;stroke-linecap:round;stroke-linejoin:round;stroke-miterlimit:10;}
	.st12{fill:#FFFFFF;stroke:#000000;stroke-width:14.7375;stroke-linecap:round;stroke-linejoin:round;stroke-miterlimit:10;}
	.st13{fill:none;stroke:#000000;stroke-width:14.7375;stroke-linecap:round;stroke-linejoin:round;stroke-miterlimit:10;}
	.st14{stroke:#000000;stroke-width:14.7375;stroke-linecap:round;stroke-linejoin:round;stroke-miterlimit:10;}
	.st15{fill:#FFFFFF;stroke:#000000;stroke-width:14.2911;stroke-linecap:round;stroke-linejoin:round;stroke-miterlimit:10;}
	.st16{fill:none;stroke:#000000;stroke-width:13.497;stroke-miterlimit:10;}
	.st17{fill:#FFFFFF;stroke:#000000;stroke-width:13.497;stroke-linecap:round;stroke-linejoin:round;stroke-miterlimit:10;}
	.st18{fill:#FFFFFF;stroke:#000000;stroke-width:13.497;stroke-miterlimit:10;}
	.st19{fill:#FFFFFF;stroke:#000000;stroke-width:14.7439;stroke-linecap:round;stroke-miterlimit:10;}
	.st20{fill:#FFFFFF;stroke:#000000;stroke-width:14.7439;stroke-miterlimit:10;}
	.st21{stroke:#000000;stroke-width:13.9262;stroke-linecap:round;stroke-miterlimit:10;}
	
		.st22{display:inline;fill:#FFFFFF;stroke:#000000;stroke-width:14.6942;stroke-linecap:round;stroke-linejoin:round;stroke-miterlimit:10;}
	.st23{fill:#FFFFFF;stroke:#000000;stroke-width:14.6942;stroke-linecap:round;stroke-linejoin:round;stroke-miterlimit:10;}
	.st24{fill:none;stroke:#000000;stroke-width:24;stroke-linejoin:round;stroke-miterlimit:10;}
	.st25{fill:none;stroke:#000000;stroke-width:30.5612;stroke-linecap:round;stroke-linejoin:round;stroke-miterlimit:10;}
	.st26{fill:#FFFFFF;stroke:#000000;stroke-width:16.2993;stroke-linecap:round;stroke-linejoin:round;stroke-miterlimit:10;}
	.st27{display:inline;fill:#FFFFFF;stroke:#000000;stroke-width:13.497;stroke-linecap:round;stroke-miterlimit:10;}
	
		.st28{display:inline;fill:none;stroke:#000000;stroke-width:13.497;stroke-linecap:round;stroke-linejoin:round;stroke-miterlimit:10;}
	
		.st29{display:inline;fill:#FFFFFF;stroke:#000000;stroke-width:13.497;stroke-linecap:round;stroke-linejoin:round;stroke-miterlimit:10;}
	
		.st30{display:inline;fill:url(#);stroke:#000000;stroke-width:13.497;stroke-linecap:round;stroke-linejoin:round;stroke-miterlimit:10;}
	.st31{fill:#FFFFFF;stroke:#000000;stroke-width:15.2362;stroke-linecap:round;stroke-linejoin:round;stroke-miterlimit:10;}
	.st32{fill:#FFFFFF;stroke:#000000;stroke-width:14.8467;stroke-linecap:round;stroke-linejoin:round;stroke-miterlimit:10;}
	.st33{stroke:#000000;stroke-width:20.1683;stroke-linecap:round;stroke-miterlimit:10;}
	.st34{fill:none;stroke:#000000;stroke-width:14.8467;stroke-linecap:round;stroke-linejoin:round;stroke-miterlimit:10;}
	.st35{fill:#FFFFFF;stroke:#FFFFFF;stroke-width:3;stroke-miterlimit:10;}
	.st36{display:inline;fill:none;stroke:#000000;stroke-width:15;stroke-linecap:round;stroke-linejoin:round;stroke-miterlimit:10;}
	
		.st37{display:inline;fill:#FFFFFF;stroke:#000000;stroke-width:15;stroke-linecap:round;stroke-linejoin:round;stroke-miterlimit:10;}
	.st38{fill:#FFFFFF;stroke:#000000;stroke-width:15;stroke-linecap:round;stroke-linejoin:round;stroke-miterlimit:10;}
	.st39{fill:#FFFFFF;stroke:#000000;stroke-width:11.7326;stroke-linecap:round;stroke-linejoin:round;stroke-miterlimit:10;}
	.st40{fill:#FFFFFF;stroke:#000000;stroke-width:13.2623;stroke-linecap:round;stroke-linejoin:round;stroke-miterlimit:10;}
	.st41{font-family:'FoundersGrotesk-Bold';}
	.st42{font-size:177.9631px;}
	.st43{fill:none;stroke:#000000;stroke-width:16;stroke-linecap:round;stroke-miterlimit:10;}
	.st44{fill:url(#);stroke:#000000;stroke-width:16;stroke-linecap:round;stroke-linejoin:round;stroke-miterlimit:10;}
	.st45{fill:#FFFFFF;stroke:#000000;stroke-width:16;stroke-linecap:round;stroke-miterlimit:10;}
	.st46{fill:#FFFFFF;stroke:#000000;stroke-width:13.2623;stroke-linecap:round;stroke-miterlimit:10;}
	.st47{stroke:#000000;stroke-width:4.5213;stroke-miterlimit:10;}
	.st48{fill:none;stroke:#000000;stroke-width:15.2344;stroke-linecap:round;stroke-linejoin:round;stroke-miterlimit:10;}
	.st49{fill:#FFFFFF;stroke:#000000;stroke-width:15.2344;stroke-linecap:round;stroke-linejoin:round;stroke-miterlimit:10;}
	.st50{stroke:#000000;stroke-width:18.3348;stroke-linecap:round;stroke-miterlimit:10;}
	.st51{fill:none;stroke:#000000;stroke-width:13.497;stroke-linecap:round;stroke-linejoin:round;stroke-miterlimit:10;}
	.st52{font-size:20.6105px;}
	.st53{font-size:10.3052px;}
	.st54{font-size:19.2364px;}
	.st55{font-size:10px;}
	.st56{display:inline;fill:none;stroke:#000000;stroke-width:16;stroke-linecap:round;stroke-linejoin:round;stroke-miterlimit:10;}
	.st57{fill:#FFFFFF;stroke:#000000;stroke-width:13.3058;stroke-linecap:round;stroke-linejoin:round;stroke-miterlimit:10;}
	.st58{fill:#FFFFFF;stroke:#000000;stroke-width:17;stroke-linecap:round;stroke-linejoin:round;stroke-miterlimit:10;}
	.st59{fill:#FFFFFF;stroke:#000000;stroke-width:15.2517;stroke-linecap:round;stroke-linejoin:round;stroke-miterlimit:10;}
	.st60{stroke:#000000;stroke-width:3;stroke-miterlimit:10;}
	.st61{fill:#FFFFFF;stroke:#000000;stroke-width:16.0686;stroke-linecap:round;stroke-linejoin:round;stroke-miterlimit:10;}
	.st62{fill:#FFFFFF;stroke:#000000;stroke-width:15;stroke-linejoin:round;stroke-miterlimit:10;}
	.st63{fill:url(#);stroke:#000000;stroke-width:13.497;stroke-linecap:round;stroke-linejoin:round;stroke-miterlimit:10;}
	.st64{fill:#06A6FF;}
	.st65{fill:#FF0303;}
	.st66{fill:#3DFF06;}
	.st67{fill:#FFF808;}
	.st68{fill:none;stroke:#000000;stroke-width:0;stroke-linecap:round;stroke-linejoin:round;}
</style>
<g id="unexpanded" class="st0">
	<g class="st1">
		<text transform="matrix(1 0 0 1 -6.6973 185.6524)" class="st41 st42">Take Care</text>
		<text transform="matrix(1 0 0 1 112.7119 356.6885)" class="st41 st42">of Each</text>
		<text transform="matrix(1 0 0 1 180.4097 527.7247)" class="st41 st42">Other</text>
	</g>
	<g class="st1">
		<g>
			<text transform="matrix(1 0 0 1 258.9679 599.7979)"><tspan x="0" y="0" class="st41 st52">www</tspan><tspan x="45.14" y="0" class="st41 st53"> </tspan><tspan x="46.99" y="0" class="st41 st52">.</tspan><tspan x="51.77" y="0" class="st41 st53"> </tspan><tspan x="53.63" y="0" class="st41 st52">Capitalism</tspan><tspan x="150.43" y="0" class="st41 st54"> </tspan><tspan x="153.9" y="0" class="st41 st52">Is</tspan><tspan x="168.88" y="0" class="st41 st54"> </tspan><tspan x="172.34" y="0" class="st41 st52">A</tspan><tspan x="186.6" y="0" class="st41 st53"> </tspan><tspan x="188.46" y="0" class="st41 st52">Virus</tspan><tspan x="236.15" y="0" class="st41 st53"> </tspan><tspan x="238.01" y="0" class="st41 st52">.</tspan><tspan x="242.79" y="0" class="st41 st53"> </tspan><tspan x="244.64" y="0" class="st41 st52">org</tspan></text>
		</g>
		<g>
			<text transform="matrix(1 0 0 1 299.1802 22.1245)"><tspan x="0" y="0" class="st41 st52">#</tspan><tspan x="12.7" y="0" class="st41 st55"> </tspan><tspan x="14.5" y="0" class="st41 st52">Capitalism</tspan><tspan x="111.3" y="0" class="st41 st55"> </tspan><tspan x="113.1" y="0" class="st41 st52">Is</tspan><tspan x="128.09" y="0" class="st41 st55"> </tspan><tspan x="129.89" y="0" class="st41 st52">A</tspan><tspan x="144.15" y="0" class="st41 st55"> </tspan><tspan x="145.95" y="0" class="st41 st52">Virus</tspan></text>
		</g>
	</g>
</g>
<g id="expanded">
	<polygon points="47.58,185.65 77.65,185.65 77.65,98.45 116.63,98.45 116.63,73.54 9.14,73.54 9.14,98.45 47.58,98.45 	"/>
	<path d="M135.67,140.98c-17.26,3.03-28.3,9.61-28.3,24.92c0,13.53,10.14,21.53,25.63,21.53c12.64,0,21.71-4.8,26.34-14.06
		c2.67,9.08,10.32,14.06,20.11,14.06c8.19,0,13.88-2.31,17.97-5.16v-15.31c-2.31,0.89-4.09,1.25-6.41,1.25
		c-3.03,0-4.81-1.78-4.81-5.87v-27.05c0-22.07-15.48-31.14-36.48-31.14c-23.85,0-36.84,12.1-39.33,29.54l26.69,1.78
		c1.25-5.87,4.45-9.97,10.86-9.97c6.94,0,9.97,3.92,9.97,10.5v1.25L135.67,140.98z M157.92,152.55c0,10.32-6.58,16.37-14.77,16.37
		c-4.81,0-8.01-2.67-8.01-6.76c0-5.16,4.09-7.3,11.03-8.72l11.75-2.14V152.55z"/>
	<polygon points="205.79,73.54 205.79,185.65 234.62,185.65 234.62,160.56 241.56,153.44 264.34,185.65 296.73,185.65 
		262.91,137.42 295.66,106.28 261.85,106.28 234.62,133.69 234.62,73.54 	"/>
	<path d="M338.02,187.79c21,0,35.59-10.14,39.69-28.3l-23.14-2.14c-2.67,6.23-7.65,8.9-15.48,8.9c-8.72,0-15.84-4.63-16.55-14.42
		h55.7v-8.01c0-21.53-14.06-39.69-40.58-39.69c-24.74,0-43.25,17.97-43.25,43.07C294.41,172.48,312.57,187.79,338.02,187.79z
		 M337.3,124.79c8.54,0,13.17,6.05,13.53,13.17h-27.94C323.96,130.48,328.05,124.79,337.3,124.79z"/>
	<path d="M475.22,187.79c34.35,0,52.68-21.71,54.81-49.65l-29.01-1.25c-1.78,12.46-8.54,24.02-25.98,24.02
		c-16.55,0-26.16-12.28-26.16-31.32s9.61-31.32,26.16-31.32c17.44,0,24.2,11.57,25.98,24.03l29.01-1.07
		c-2.14-27.94-20.47-49.83-54.81-49.83c-32.75,0-57.48,23.67-57.48,58.19C417.74,164.12,442.48,187.79,475.22,187.79z"/>
	<path d="M578.79,104.15c-23.85,0-36.84,12.1-39.33,29.54l26.69,1.78c1.25-5.87,4.45-9.97,10.86-9.97c6.94,0,9.97,3.92,9.97,10.5
		v1.25l-22.25,3.74c-17.26,3.03-28.3,9.61-28.3,24.92c0,13.53,10.14,21.53,25.63,21.53c12.64,0,21.71-4.8,26.34-14.06
		c2.67,9.08,10.32,14.06,20.11,14.06c8.19,0,13.88-2.31,17.97-5.16v-15.31c-2.31,0.89-4.09,1.25-6.41,1.25
		c-3.03,0-4.81-1.78-4.81-5.87v-27.05C615.28,113.22,599.79,104.15,578.79,104.15z M586.98,152.55c0,10.32-6.58,16.37-14.77,16.37
		c-4.81,0-8.01-2.67-8.01-6.76c0-5.16,4.09-7.3,11.03-8.72l11.75-2.14V152.55z"/>
	<path d="M694.65,134.4l1.78-27.23c-1.96-1.6-6.23-3.03-11.03-3.03c-10.5,0-18.86,7.3-21.71,16.19v-14.06h-28.83v79.37h28.83v-36.3
		c0-13.35,6.58-18.33,17.26-18.33C686.46,131.02,690.73,132.08,694.65,134.4z"/>
	<path d="M742.87,104.15c-24.74,0-43.25,17.97-43.25,43.07c0,25.27,18.15,40.58,43.6,40.58c21,0,35.59-10.14,39.69-28.3l-23.14-2.14
		c-2.67,6.23-7.65,8.9-15.48,8.9c-8.72,0-15.84-4.63-16.55-14.42h55.7v-8.01C783.45,122.3,769.39,104.15,742.87,104.15z
		 M728.1,137.96c1.07-7.47,5.16-13.17,14.42-13.17c8.54,0,13.17,6.05,13.53,13.17H728.1z"/>
	<path d="M160.14,358.82c25.8,0,43.42-17.08,43.42-41.82c0-24.56-17.62-41.82-43.42-41.82c-25.98,0-43.42,17.26-43.42,41.82
		C116.72,341.74,134.16,358.82,160.14,358.82z M160.14,296.89c9.97,0,14.42,8.19,14.42,20.11c0,11.92-4.45,20.11-14.42,20.11
		c-10.14,0-14.42-8.19-14.42-20.11C145.72,305.08,149.99,296.89,160.14,296.89z"/>
	<path d="M253.21,263.08c3.74,0,5.87,1.96,7.65,5.52l17.62-5.52c-3.2-13.17-13.53-20.64-28.47-20.64
		c-19.04,0-31.86,10.86-31.86,31.5v3.38h-11.39v19.93h11.39v59.44h28.47v-59.44h20.11v-19.93h-20.11v-5.34
		C246.63,267,248.41,263.08,253.21,263.08z"/>
	<polygon points="394.16,331.77 335.61,331.77 335.61,312.38 379.57,312.38 379.57,287.82 335.61,287.82 335.61,269.49 
		392.56,269.49 392.56,244.57 305.89,244.57 305.89,356.69 394.16,356.69 	"/>
	<path d="M492.39,353.31V338c-2.31,0.89-4.09,1.25-6.41,1.25c-3.03,0-4.81-1.78-4.81-5.87v-27.05c0-22.07-15.48-31.14-36.48-31.14
		c-23.85,0-36.84,12.1-39.33,29.54l26.69,1.78c1.25-5.87,4.45-9.97,10.86-9.97c6.94,0,9.97,3.92,9.97,10.5v1.25l-22.25,3.74
		c-17.26,3.03-28.3,9.61-28.3,24.92c0,13.53,10.14,21.53,25.63,21.53c12.64,0,21.71-4.8,26.34-14.06
		c2.67,9.08,10.32,14.06,20.11,14.06C482.6,358.47,488.3,356.15,492.39,353.31z M452.88,323.59c0,10.32-6.58,16.37-14.77,16.37
		c-4.81,0-8.01-2.67-8.01-6.76c0-5.16,4.09-7.3,11.03-8.72l11.75-2.14V323.59z"/>
	<path d="M578.17,324.3l-23.67-1.78c-1.96,9.79-6.76,14.59-15.13,14.59c-8.72,0-14.77-5.87-14.77-20.11
		c0-14.24,6.05-20.11,14.77-20.11c8.36,0,13.17,4.63,15.13,14.42l23.67-1.6c-1.96-19.04-15.3-34.52-39.15-34.52
		c-25.09,0-43.42,16.73-43.42,41.82c0,25.27,18.33,41.82,43.42,41.82C562.87,358.82,576.21,343.52,578.17,324.3z"/>
	<path d="M672.31,356.69v-49.83c0-16.55-6.94-31.68-28.65-31.68c-11.92,0-21.36,5.34-25.63,14.06v-44.67H589.2v112.12h28.83v-38.97
		c0-11.92,3.92-19.75,13.7-19.75c8.72,0,11.75,5.69,11.75,16.55v42.18H672.31z"/>
	<path d="M240.83,529.86c32.57,0,58.19-23.67,58.19-58.19c0-34.52-25.63-58.19-58.19-58.19c-32.57,0-58.19,23.67-58.19,58.19
		C182.63,506.19,208.26,529.86,240.83,529.86z M240.83,440.17c16.55,0,27.05,12.46,27.05,31.5s-10.5,31.5-27.05,31.5
		c-16.55,0-27.05-12.46-27.05-31.5S224.28,440.17,240.83,440.17z"/>
	<path d="M365.75,504.06c-4.8,1.96-8.72,2.67-12.28,2.67c-5.87,0-9.08-2.67-9.08-9.43v-29.01h20.64v-19.93H344.4v-21.89h-18.15
		l-2.67,10.32c-1.96,7.3-4.45,11.57-12.46,12.81l-5.87,0.89v17.8h10.68v37.37c0,18.69,12.64,24.2,25.98,24.2
		c10.86,0,17.8-2.67,23.85-7.12V504.06z"/>
	<path d="M459.9,477.89c0-16.55-6.94-31.68-28.65-31.68c-11.92,0-21.36,5.34-25.63,14.06v-44.67h-28.83v112.12h28.83v-38.97
		c0-11.92,3.92-19.75,13.7-19.75c8.72,0,11.75,5.69,11.75,16.55v42.18h28.83V477.89z"/>
	<path d="M554.21,485.9c0-21.53-14.06-39.69-40.58-39.69c-24.74,0-43.25,17.97-43.25,43.07c0,25.27,18.15,40.58,43.6,40.58
		c21,0,35.59-10.14,39.69-28.3l-23.14-2.14c-2.67,6.23-7.65,8.9-15.48,8.9c-8.72,0-15.84-4.63-16.55-14.42h55.7V485.9z
		 M498.87,480.03c1.07-7.47,5.16-13.17,14.42-13.17c8.54,0,13.17,6.05,13.53,13.17H498.87z"/>
	<path d="M594.79,491.42c0-13.35,6.58-18.33,17.26-18.33c5.52,0,9.79,1.07,13.7,3.38l1.78-27.23c-1.96-1.6-6.23-3.03-11.03-3.03
		c-10.5,0-18.86,7.3-21.71,16.19v-14.06h-28.83v79.37h28.83V491.42z"/>
	<polygon points="265.16,599.8 266.5,594.6 266.58,594.6 267.92,599.8 271.2,599.8 274.07,590.74 276.93,599.8 280.21,599.8 
		281.55,594.6 281.63,594.6 282.97,599.8 286.25,599.8 289.11,590.74 291.98,599.8 295.25,599.8 296.59,594.6 296.68,594.6 
		298.02,599.8 301.29,599.8 304.2,590.6 301.19,590.6 299.54,595.82 299.46,595.82 298.12,590.6 295.46,590.6 294.12,595.82 
		294.04,595.82 292.39,590.6 289.15,590.6 289.07,590.6 286.15,590.6 284.5,595.82 284.41,595.82 283.07,590.6 280.41,590.6 
		279.07,595.82 278.99,595.82 277.34,590.6 274.11,590.6 274.02,590.6 271.1,590.6 269.45,595.82 269.37,595.82 268.03,590.6 
		265.37,590.6 264.03,595.82 263.95,595.82 262.3,590.6 258.98,590.6 261.88,599.8 	"/>
	<rect x="306.63" y="596.25" width="3.55" height="3.55"/>
	<path d="M319.7,589.68c2.02,0,2.8,1.34,3.01,2.78l3.36-0.12c-0.25-3.24-2.37-5.77-6.35-5.77c-3.79,0-6.66,2.74-6.66,6.74
		c0,4,2.87,6.74,6.66,6.74c3.98,0,6.1-2.51,6.35-5.75l-3.36-0.14c-0.21,1.44-0.99,2.78-3.01,2.78c-1.92,0-3.03-1.42-3.03-3.63
		C316.67,591.1,317.78,589.68,319.7,589.68z"/>
	<path d="M330.08,594.62c-2,0.35-3.28,1.11-3.28,2.89c0,1.57,1.17,2.49,2.97,2.49c1.46,0,2.52-0.56,3.05-1.63
		c0.31,1.05,1.2,1.63,2.33,1.63c0.95,0,1.61-0.27,2.08-0.6v-1.77c-0.27,0.1-0.47,0.14-0.74,0.14c-0.35,0-0.56-0.21-0.56-0.68v-3.13
		c0-2.56-1.79-3.61-4.23-3.61c-2.76,0-4.27,1.4-4.56,3.42l3.09,0.21c0.14-0.68,0.52-1.15,1.26-1.15c0.8,0,1.15,0.45,1.15,1.22v0.14
		L330.08,594.62z M332.66,595.96c0,1.2-0.76,1.9-1.71,1.9c-0.56,0-0.93-0.31-0.93-0.78c0-0.6,0.47-0.84,1.28-1.01l1.36-0.25V595.96z
		"/>
	<path d="M338.2,590.6v12.49h3.34v-4.86c0.45,1.07,1.48,1.81,3.03,1.81c2.7,0,4.08-2.12,4.08-4.84c0-2.7-1.38-4.84-4.08-4.84
		c-1.55,0-2.58,0.74-3.03,1.83v-1.59H338.2z M343.4,592.95c1.3,0,1.9,0.93,1.9,2.25c0,1.34-0.6,2.27-1.9,2.27
		c-1.13,0-1.86-0.87-1.86-2.21v-0.12C341.54,593.82,342.27,592.95,343.4,592.95z"/>
	<rect x="349.97" y="590.6" width="3.34" height="9.19"/>
	<rect x="349.95" y="586.81" width="3.38" height="2.93"/>
	<path d="M358.46,600.04c1.26,0,2.06-0.31,2.76-0.82v-2.16c-0.56,0.23-1.01,0.31-1.42,0.31c-0.68,0-1.05-0.31-1.05-1.09v-3.36h2.39
		v-2.31h-2.39v-2.54h-2.1l-0.31,1.2c-0.23,0.85-0.52,1.34-1.44,1.48l-0.68,0.1v2.06h1.24v4.33
		C355.46,599.41,356.92,600.04,358.46,600.04z"/>
	<path d="M365.25,594.62c-2,0.35-3.28,1.11-3.28,2.89c0,1.57,1.17,2.49,2.97,2.49c1.46,0,2.52-0.56,3.05-1.63
		c0.31,1.05,1.2,1.63,2.33,1.63c0.95,0,1.61-0.27,2.08-0.6v-1.77c-0.27,0.1-0.47,0.14-0.74,0.14c-0.35,0-0.56-0.21-0.56-0.68v-3.13
		c0-2.56-1.79-3.61-4.23-3.61c-2.76,0-4.27,1.4-4.56,3.42l3.09,0.21c0.14-0.68,0.52-1.15,1.26-1.15c0.8,0,1.15,0.45,1.15,1.22v0.14
		L365.25,594.62z M367.82,595.96c0,1.2-0.76,1.9-1.71,1.9c-0.56,0-0.93-0.31-0.93-0.78c0-0.6,0.47-0.84,1.28-1.01l1.36-0.25V595.96z
		"/>
	<rect x="373.37" y="586.81" width="3.34" height="12.99"/>
	<rect x="378.52" y="590.6" width="3.34" height="9.19"/>
	<rect x="378.5" y="586.81" width="3.38" height="2.93"/>
	<path d="M387.67,597.96c-1.01,0-1.63-0.43-1.75-1.2l-2.91,0.04c0.19,2.23,2.08,3.24,4.62,3.24c2.62,0,4.27-1.11,4.27-3.05
		c0-1.79-1.2-2.72-3.26-3.05l-1.79-0.31c-0.31-0.04-0.56-0.21-0.56-0.51c0-0.41,0.37-0.66,1.01-0.66c1.03,0,1.61,0.41,1.73,1.07
		l2.74-0.08c-0.19-1.92-1.75-3.09-4.41-3.09c-2.58,0-4.16,1.3-4.16,3.11c0,1.88,1.17,2.6,3.4,2.95l1.36,0.21
		c0.64,0.1,0.85,0.35,0.85,0.7C388.8,597.7,388.41,597.96,387.67,597.96z"/>
	<path d="M393.17,590.6v9.19h3.34v-4.51c0-1.38,0.39-2.29,1.48-2.29c1.01,0,1.26,0.66,1.26,1.92v4.89h3.34v-4.51
		c0-1.38,0.37-2.29,1.48-2.29c1.01,0,1.24,0.66,1.24,1.92v4.89h3.34v-5.77c0-1.92-0.74-3.67-3.28-3.67c-1.55,0-2.64,0.78-3.13,1.81
		c-0.39-1.07-1.24-1.81-2.87-1.81c-1.38,0-2.37,0.62-2.87,1.63v-1.38H393.17z"/>
	<rect x="413.91" y="586.81" width="3.5" height="12.99"/>
	<path d="M427.53,596.99c0-1.79-1.2-2.72-3.26-3.05l-1.79-0.31c-0.31-0.04-0.56-0.21-0.56-0.51c0-0.41,0.37-0.66,1.01-0.66
		c1.03,0,1.61,0.41,1.73,1.07l2.74-0.08c-0.19-1.92-1.75-3.09-4.41-3.09c-2.58,0-4.16,1.3-4.16,3.11c0,1.88,1.18,2.6,3.4,2.95
		l1.36,0.21c0.64,0.1,0.85,0.35,0.85,0.7c0,0.37-0.39,0.64-1.13,0.64c-1.01,0-1.63-0.43-1.75-1.2l-2.91,0.04
		c0.19,2.23,2.08,3.24,4.62,3.24C425.88,600.04,427.53,598.93,427.53,596.99z"/>
	<path d="M431.36,599.8h3.52l0.97-2.51h5.07l0.97,2.51h3.73l-5.17-12.99h-3.92L431.36,599.8z M438.35,590.83h0.08l1.48,3.83h-3.05
		L438.35,590.83z"/>
	<polygon points="456.16,599.8 461.15,586.81 457.66,586.81 454.45,595.45 454.36,595.45 451.15,586.81 447.48,586.81 452.47,599.8 
			"/>
	<rect x="462.03" y="586.81" width="3.38" height="2.93"/>
	<rect x="462.05" y="590.6" width="3.34" height="9.19"/>
	<path d="M470.54,595.59c0-1.55,0.76-2.12,2-2.12c0.64,0,1.13,0.12,1.59,0.39l0.21-3.15c-0.23-0.19-0.72-0.35-1.28-0.35
		c-1.22,0-2.19,0.84-2.52,1.88v-1.63h-3.34v9.19h3.34V595.59z"/>
	<path d="M484.77,599.8v-9.19h-3.34v4.51c0,1.4-0.41,2.31-1.46,2.31c-1.01,0-1.36-0.68-1.36-1.92v-4.91h-3.34v5.79
		c0,1.92,0.76,3.65,3.28,3.65c1.38,0,2.39-0.6,2.89-1.63v1.38H484.77z"/>
	<path d="M490.58,597.96c-1.01,0-1.63-0.43-1.75-1.2l-2.91,0.04c0.19,2.23,2.08,3.24,4.62,3.24c2.62,0,4.27-1.11,4.27-3.05
		c0-1.79-1.2-2.72-3.26-3.05l-1.79-0.31c-0.31-0.04-0.56-0.21-0.56-0.51c0-0.41,0.37-0.66,1.01-0.66c1.03,0,1.61,0.41,1.73,1.07
		l2.74-0.08c-0.19-1.92-1.75-3.09-4.41-3.09c-2.58,0-4.16,1.3-4.16,3.11c0,1.88,1.18,2.6,3.4,2.95l1.36,0.21
		c0.64,0.1,0.85,0.35,0.85,0.7C491.71,597.7,491.32,597.96,490.58,597.96z"/>
	<rect x="497.64" y="596.25" width="3.55" height="3.55"/>
	<path d="M509.1,590.36c-3.01,0-5.03,2-5.03,4.84c0,2.87,2.02,4.84,5.03,4.84c2.99,0,5.03-1.98,5.03-4.84
		C514.13,592.36,512.09,590.36,509.1,590.36z M509.1,597.53c-1.17,0-1.67-0.95-1.67-2.33c0-1.38,0.49-2.33,1.67-2.33
		c1.15,0,1.67,0.95,1.67,2.33C510.77,596.58,510.26,597.53,509.1,597.53z"/>
	<path d="M515.45,590.6v9.19h3.34v-4.21c0-1.55,0.76-2.12,2-2.12c0.64,0,1.13,0.12,1.59,0.39l0.21-3.15
		c-0.23-0.19-0.72-0.35-1.28-0.35c-1.22,0-2.19,0.84-2.52,1.88v-1.63H515.45z"/>
	<path d="M522.6,601.1c0,1.73,2.27,2.25,4.89,2.25c2.99,0,5.77-1.05,5.77-3.34c0-1.55-1.05-2.64-3.13-2.64h-3.81
		c-0.56,0-0.78-0.25-0.78-0.56c0-0.19,0.06-0.33,0.19-0.43c0.6,0.19,1.26,0.27,2,0.27c2.6,0,4.47-1.2,4.47-3.13
		c0-0.43-0.1-0.83-0.29-1.17c0.45-0.1,0.95-0.14,1.34-0.14v-2.52c-1.01,0-2.02,0.66-2.58,1.42c-0.78-0.47-1.83-0.74-2.95-0.74
		c-2.58,0-4.43,1.2-4.43,3.15c0,1.01,0.49,1.79,1.32,2.33c-0.99,0.37-1.57,1.05-1.57,1.94c0,0.78,0.49,1.53,1.32,1.79
		C523.33,599.65,522.6,600.29,522.6,601.1z M527.76,592.19c0.56,0,0.97,0.52,0.97,1.32c0,0.82-0.41,1.34-0.97,1.34
		c-0.56,0-0.97-0.52-0.97-1.34C526.79,592.71,527.2,592.19,527.76,592.19z M525.96,600.21h3.38c0.56,0,0.85,0.14,0.85,0.54
		c0,0.56-1.13,0.87-2.68,0.87c-1.24,0-2.16-0.18-2.16-0.84C525.35,600.42,525.59,600.21,525.96,600.21z"/>
	<path d="M300.03,16.64l-0.43,2.06h1.81l-0.8,3.42h2.49l0.8-3.42h1.77l-0.8,3.42h2.49l0.8-3.42h2.04l0.43-2.06h-1.98l0.49-2.02h1.88
		l0.43-2.06h-1.83l0.82-3.42h-2.49l-0.82,3.42h-1.77l0.83-3.42h-2.49l-0.82,3.42h-2.02l-0.43,2.06h1.98l-0.49,2.02H300.03z
		 M304.89,14.62h1.77l-0.49,2.02h-1.77L304.89,14.62z"/>
	<path d="M320.73,12c2.02,0,2.8,1.34,3.01,2.78l3.36-0.12c-0.25-3.24-2.37-5.77-6.35-5.77c-3.79,0-6.66,2.74-6.66,6.74
		s2.87,6.74,6.66,6.74c3.98,0,6.1-2.51,6.35-5.75l-3.36-0.14c-0.21,1.44-0.99,2.78-3.01,2.78c-1.92,0-3.03-1.42-3.03-3.63
		S318.81,12,320.73,12z"/>
	<path d="M331.11,16.95c-2,0.35-3.28,1.11-3.28,2.89c0,1.57,1.18,2.49,2.97,2.49c1.46,0,2.52-0.56,3.05-1.63
		c0.31,1.05,1.2,1.63,2.33,1.63c0.95,0,1.61-0.27,2.08-0.6v-1.77c-0.27,0.1-0.47,0.14-0.74,0.14c-0.35,0-0.56-0.21-0.56-0.68v-3.13
		c0-2.56-1.79-3.61-4.23-3.61c-2.76,0-4.27,1.4-4.56,3.42l3.09,0.21c0.14-0.68,0.52-1.16,1.26-1.16c0.8,0,1.15,0.45,1.15,1.22v0.14
		L331.11,16.95z M333.69,18.29c0,1.2-0.76,1.9-1.71,1.9c-0.56,0-0.93-0.31-0.93-0.78c0-0.6,0.47-0.84,1.28-1.01l1.36-0.25V18.29z"/>
	<path d="M339.23,12.93v12.49h3.34v-4.87c0.45,1.07,1.48,1.81,3.03,1.81c2.7,0,4.08-2.12,4.08-4.84c0-2.7-1.38-4.84-4.08-4.84
		c-1.55,0-2.58,0.74-3.03,1.83v-1.59H339.23z M344.43,15.28c1.3,0,1.9,0.93,1.9,2.25c0,1.34-0.6,2.27-1.9,2.27
		c-1.13,0-1.86-0.87-1.86-2.21v-0.12C342.57,16.15,343.29,15.28,344.43,15.28z"/>
	<rect x="351" y="12.93" width="3.34" height="9.19"/>
	<rect x="350.98" y="9.14" width="3.38" height="2.93"/>
	<path d="M357.68,10.39l-0.31,1.2c-0.23,0.85-0.52,1.34-1.44,1.48l-0.68,0.1v2.06h1.24v4.33c0,2.16,1.46,2.8,3.01,2.8
		c1.26,0,2.06-0.31,2.76-0.83v-2.16c-0.56,0.23-1.01,0.31-1.42,0.31c-0.68,0-1.05-0.31-1.05-1.09v-3.36h2.39v-2.31h-2.39v-2.54
		H357.68z"/>
	<path d="M366.27,16.95c-2,0.35-3.28,1.11-3.28,2.89c0,1.57,1.18,2.49,2.97,2.49c1.46,0,2.51-0.56,3.05-1.63
		c0.31,1.05,1.2,1.63,2.33,1.63c0.95,0,1.61-0.27,2.08-0.6v-1.77c-0.27,0.1-0.47,0.14-0.74,0.14c-0.35,0-0.56-0.21-0.56-0.68v-3.13
		c0-2.56-1.79-3.61-4.23-3.61c-2.76,0-4.27,1.4-4.56,3.42l3.09,0.21c0.14-0.68,0.52-1.16,1.26-1.16c0.8,0,1.15,0.45,1.15,1.22v0.14
		L366.27,16.95z M368.85,18.29c0,1.2-0.76,1.9-1.71,1.9c-0.56,0-0.93-0.31-0.93-0.78c0-0.6,0.47-0.84,1.28-1.01l1.36-0.25V18.29z"/>
	<rect x="374.39" y="9.14" width="3.34" height="12.99"/>
	<rect x="379.55" y="12.93" width="3.34" height="9.19"/>
	<rect x="379.53" y="9.14" width="3.38" height="2.93"/>
	<path d="M388.7,20.29c-1.01,0-1.63-0.43-1.75-1.2l-2.91,0.04c0.19,2.23,2.08,3.24,4.62,3.24c2.62,0,4.27-1.11,4.27-3.05
		c0-1.79-1.2-2.72-3.26-3.05l-1.79-0.31c-0.31-0.04-0.56-0.21-0.56-0.52c0-0.41,0.37-0.66,1.01-0.66c1.03,0,1.61,0.41,1.73,1.07
		l2.74-0.08c-0.19-1.92-1.75-3.09-4.41-3.09c-2.58,0-4.16,1.3-4.16,3.11c0,1.88,1.18,2.6,3.4,2.95l1.36,0.21
		c0.64,0.1,0.85,0.35,0.85,0.7C389.83,20.02,389.44,20.29,388.7,20.29z"/>
	<path d="M394.2,12.93v9.19h3.34v-4.52c0-1.38,0.39-2.29,1.48-2.29c1.01,0,1.26,0.66,1.26,1.92v4.89h3.34v-4.52
		c0-1.38,0.37-2.29,1.48-2.29c1.01,0,1.24,0.66,1.24,1.92v4.89h3.34v-5.77c0-1.92-0.74-3.67-3.28-3.67c-1.55,0-2.64,0.78-3.13,1.81
		c-0.39-1.07-1.24-1.81-2.87-1.81c-1.38,0-2.37,0.62-2.87,1.63v-1.38H394.2z"/>
	<rect x="413.27" y="9.14" width="3.5" height="12.99"/>
	<path d="M422.67,20.29c-1.01,0-1.63-0.43-1.75-1.2l-2.91,0.04c0.19,2.23,2.08,3.24,4.62,3.24c2.62,0,4.27-1.11,4.27-3.05
		c0-1.79-1.2-2.72-3.26-3.05l-1.79-0.31c-0.31-0.04-0.56-0.21-0.56-0.52c0-0.41,0.37-0.66,1.01-0.66c1.03,0,1.61,0.41,1.73,1.07
		l2.74-0.08c-0.19-1.92-1.75-3.09-4.41-3.09c-2.58,0-4.16,1.3-4.16,3.11c0,1.88,1.18,2.6,3.4,2.95l1.36,0.21
		c0.64,0.1,0.85,0.35,0.85,0.7C423.8,20.02,423.41,20.29,422.67,20.29z"/>
	<path d="M438.63,19.61l0.97,2.52h3.73l-5.17-12.99h-3.92l-5.17,12.99h3.52l0.97-2.52H438.63z M436.05,13.16h0.08l1.48,3.83h-3.05
		L436.05,13.16z"/>
	<polygon points="458.8,9.14 455.31,9.14 452.1,17.78 452.01,17.78 448.8,9.14 445.13,9.14 450.12,22.12 453.81,22.12 	"/>
	<rect x="459.7" y="12.93" width="3.34" height="9.19"/>
	<rect x="459.68" y="9.14" width="3.38" height="2.93"/>
	<path d="M464.85,12.93v9.19h3.34v-4.21c0-1.55,0.76-2.12,2-2.12c0.64,0,1.13,0.12,1.59,0.39l0.21-3.15
		c-0.23-0.19-0.72-0.35-1.28-0.35c-1.22,0-2.19,0.84-2.52,1.88v-1.63H464.85z"/>
	<path d="M472.91,18.72c0,1.92,0.76,3.65,3.28,3.65c1.38,0,2.39-0.6,2.89-1.63v1.38h3.34v-9.19h-3.34v4.51
		c0,1.4-0.41,2.31-1.46,2.31c-1.01,0-1.36-0.68-1.36-1.92v-4.91h-3.34V18.72z"/>
	<path d="M488.23,20.29c-1.01,0-1.63-0.43-1.75-1.2l-2.91,0.04c0.19,2.23,2.08,3.24,4.62,3.24c2.62,0,4.27-1.11,4.27-3.05
		c0-1.79-1.2-2.72-3.26-3.05l-1.79-0.31c-0.31-0.04-0.56-0.21-0.56-0.52c0-0.41,0.37-0.66,1.01-0.66c1.03,0,1.61,0.41,1.73,1.07
		l2.74-0.08c-0.19-1.92-1.75-3.09-4.41-3.09c-2.58,0-4.16,1.3-4.16,3.11c0,1.88,1.17,2.6,3.4,2.95l1.36,0.21
		c0.64,0.1,0.85,0.35,0.85,0.7C489.36,20.02,488.97,20.29,488.23,20.29z"/>
</g>
</svg>
