<?xml version="1.0" encoding="utf-8"?>
<!-- Generator: Adobe Illustrator 23.1.1, SVG Export Plug-In . SVG Version: 6.00 Build 0)  -->
<svg version="1.1" xmlns="http://www.w3.org/2000/svg" xmlns:xlink="http://www.w3.org/1999/xlink" x="0px" y="0px"
	 viewBox="0 0 792 612" style="enable-background:new 0 0 792 612;" xml:space="preserve">
<style type="text/css">
	.st0{display:none;}
	.st1{display:inline;}
	.st2{font-family:'FoundersGrotesk-Bold';}
	.st3{font-size:200.8519px;}
	.st4{font-size:302.8419px;}
	
		.st5{display:inline;fill:#FFFFFF;stroke:#000000;stroke-width:16;stroke-linecap:round;stroke-linejoin:round;stroke-miterlimit:10;}
	.st6{fill:#FFFFFF;stroke:#000000;stroke-width:16;stroke-linecap:round;stroke-linejoin:round;stroke-miterlimit:10;}
	.st7{display:inline;fill:none;stroke:#000000;stroke-width:24;stroke-linejoin:round;stroke-miterlimit:10;}
	.st8{display:inline;fill:#FFFFFF;}
	.st9{fill:#FFFFFF;stroke:#000000;stroke-width:17;stroke-linecap:round;stroke-miterlimit:10;}
	.st10{fill:#FFFFFF;stroke:#000000;stroke-width:17;stroke-miterlimit:10;}
	.st11{stroke:#000000;stroke-width:16.0572;stroke-linecap:round;stroke-miterlimit:10;}
	.st12{fill:#FFFFFF;}
	.st13{fill:#FFFFFF;stroke:#000000;stroke-width:17.1072;stroke-linecap:round;stroke-linejoin:round;stroke-miterlimit:10;}
	.st14{stroke:#000000;stroke-width:17.1072;stroke-linecap:round;stroke-linejoin:round;stroke-miterlimit:10;}
	.st15{fill:#FFFFFF;stroke:#000000;stroke-width:14.7375;stroke-linecap:round;stroke-linejoin:round;stroke-miterlimit:10;}
	.st16{fill:none;stroke:#000000;stroke-width:14.7375;stroke-linecap:round;stroke-linejoin:round;stroke-miterlimit:10;}
	.st17{stroke:#000000;stroke-width:14.7375;stroke-linecap:round;stroke-linejoin:round;stroke-miterlimit:10;}
	.st18{fill:#FFFFFF;stroke:#000000;stroke-width:14.2911;stroke-linecap:round;stroke-linejoin:round;stroke-miterlimit:10;}
	.st19{fill:none;stroke:#000000;stroke-width:13.497;stroke-miterlimit:10;}
	.st20{fill:#FFFFFF;stroke:#000000;stroke-width:13.497;stroke-linecap:round;stroke-linejoin:round;stroke-miterlimit:10;}
	.st21{fill:#FFFFFF;stroke:#000000;stroke-width:13.497;stroke-miterlimit:10;}
	.st22{fill:#FFFFFF;stroke:#000000;stroke-width:14.7439;stroke-linecap:round;stroke-miterlimit:10;}
	.st23{fill:#FFFFFF;stroke:#000000;stroke-width:14.7439;stroke-miterlimit:10;}
	.st24{stroke:#000000;stroke-width:13.9262;stroke-linecap:round;stroke-miterlimit:10;}
	
		.st25{display:inline;fill:#FFFFFF;stroke:#000000;stroke-width:14.6942;stroke-linecap:round;stroke-linejoin:round;stroke-miterlimit:10;}
	.st26{fill:#FFFFFF;stroke:#000000;stroke-width:14.6942;stroke-linecap:round;stroke-linejoin:round;stroke-miterlimit:10;}
	.st27{fill:none;stroke:#000000;stroke-width:24;stroke-linejoin:round;stroke-miterlimit:10;}
	.st28{fill:none;stroke:#000000;stroke-width:30.5612;stroke-linecap:round;stroke-linejoin:round;stroke-miterlimit:10;}
	.st29{fill:#FFFFFF;stroke:#000000;stroke-width:16.2993;stroke-linecap:round;stroke-linejoin:round;stroke-miterlimit:10;}
	.st30{display:inline;fill:#FFFFFF;stroke:#000000;stroke-width:13.497;stroke-linecap:round;stroke-miterlimit:10;}
	
		.st31{display:inline;fill:none;stroke:#000000;stroke-width:13.497;stroke-linecap:round;stroke-linejoin:round;stroke-miterlimit:10;}
	
		.st32{display:inline;fill:#FFFFFF;stroke:#000000;stroke-width:13.497;stroke-linecap:round;stroke-linejoin:round;stroke-miterlimit:10;}
	
		.st33{display:inline;fill:url(#);stroke:#000000;stroke-width:13.497;stroke-linecap:round;stroke-linejoin:round;stroke-miterlimit:10;}
	.st34{fill:#FFFFFF;stroke:#000000;stroke-width:15.2362;stroke-linecap:round;stroke-linejoin:round;stroke-miterlimit:10;}
	.st35{fill:#FFFFFF;stroke:#000000;stroke-width:14.8467;stroke-linecap:round;stroke-linejoin:round;stroke-miterlimit:10;}
	.st36{stroke:#000000;stroke-width:20.1683;stroke-linecap:round;stroke-miterlimit:10;}
	.st37{fill:none;stroke:#000000;stroke-width:14.8467;stroke-linecap:round;stroke-linejoin:round;stroke-miterlimit:10;}
	.st38{fill:#FFFFFF;stroke:#FFFFFF;stroke-width:3;stroke-miterlimit:10;}
	.st39{display:inline;fill:none;stroke:#000000;stroke-width:15;stroke-linecap:round;stroke-linejoin:round;stroke-miterlimit:10;}
	
		.st40{display:inline;fill:#FFFFFF;stroke:#000000;stroke-width:15;stroke-linecap:round;stroke-linejoin:round;stroke-miterlimit:10;}
	.st41{fill:#FFFFFF;stroke:#000000;stroke-width:15;stroke-linecap:round;stroke-linejoin:round;stroke-miterlimit:10;}
	.st42{fill:#FFFFFF;stroke:#000000;stroke-width:11.7326;stroke-linecap:round;stroke-linejoin:round;stroke-miterlimit:10;}
	.st43{fill:#FFFFFF;stroke:#000000;stroke-width:13.2623;stroke-linecap:round;stroke-linejoin:round;stroke-miterlimit:10;}
	.st44{fill:none;stroke:#000000;stroke-width:16;stroke-linecap:round;stroke-miterlimit:10;}
	.st45{fill:url(#);stroke:#000000;stroke-width:16;stroke-linecap:round;stroke-linejoin:round;stroke-miterlimit:10;}
	.st46{fill:#FFFFFF;stroke:#000000;stroke-width:16;stroke-linecap:round;stroke-miterlimit:10;}
	.st47{fill:#FFFFFF;stroke:#000000;stroke-width:13.2623;stroke-linecap:round;stroke-miterlimit:10;}
	.st48{stroke:#000000;stroke-width:4.5213;stroke-miterlimit:10;}
	.st49{fill:none;stroke:#000000;stroke-width:15.2344;stroke-linecap:round;stroke-linejoin:round;stroke-miterlimit:10;}
	.st50{fill:#FFFFFF;stroke:#000000;stroke-width:15.2344;stroke-linecap:round;stroke-linejoin:round;stroke-miterlimit:10;}
	.st51{stroke:#000000;stroke-width:18.3348;stroke-linecap:round;stroke-miterlimit:10;}
	.st52{fill:none;stroke:#000000;stroke-width:13.497;stroke-linecap:round;stroke-linejoin:round;stroke-miterlimit:10;}
	.st53{font-size:20.6105px;}
	.st54{font-size:10.3052px;}
	.st55{font-size:19.2364px;}
	.st56{font-size:10px;}
	.st57{display:inline;fill:none;stroke:#000000;stroke-width:16;stroke-linecap:round;stroke-linejoin:round;stroke-miterlimit:10;}
	.st58{fill:#FFFFFF;stroke:#000000;stroke-width:13.3058;stroke-linecap:round;stroke-linejoin:round;stroke-miterlimit:10;}
	.st59{fill:#FFFFFF;stroke:#000000;stroke-width:17;stroke-linecap:round;stroke-linejoin:round;stroke-miterlimit:10;}
	.st60{fill:#FFFFFF;stroke:#000000;stroke-width:15.2517;stroke-linecap:round;stroke-linejoin:round;stroke-miterlimit:10;}
	.st61{stroke:#000000;stroke-width:3;stroke-miterlimit:10;}
	.st62{fill:#FFFFFF;stroke:#000000;stroke-width:16.0686;stroke-linecap:round;stroke-linejoin:round;stroke-miterlimit:10;}
	.st63{fill:#FFFFFF;stroke:#000000;stroke-width:15;stroke-linejoin:round;stroke-miterlimit:10;}
	.st64{fill:url(#);stroke:#000000;stroke-width:13.497;stroke-linecap:round;stroke-linejoin:round;stroke-miterlimit:10;}
	.st65{fill:#06A6FF;}
	.st66{fill:#FF0303;}
	.st67{fill:#3DFF06;}
	.st68{fill:#FFF808;}
	.st69{fill:none;stroke:#000000;stroke-width:0;stroke-linecap:round;stroke-linejoin:round;}
</style>
<g id="unexpanded" class="st0">
	<g class="st1">
		<g>
			<g>
				<text transform="matrix(1 0 0 1 69.5701 167.6948)" class="st2 st3">Protect</text>
			</g>
		</g>
		<g>
			<g>
				<text transform="matrix(1 0 0 1 19.7556 554.4812)" class="st2 st3">Workers</text>
			</g>
		</g>
		<g>
			<g>
				<text transform="matrix(1 0 0 1 138.0339 396.5078)" class="st2 st4">ALL</text>
			</g>
		</g>
	</g>
	<g class="st1">
		<g>
			<text transform="matrix(1 0 0 1 258.9681 599.7979)"><tspan x="0" y="0" class="st2 st53">www</tspan><tspan x="45.14" y="0" class="st2 st54"> </tspan><tspan x="46.99" y="0" class="st2 st53">.</tspan><tspan x="51.77" y="0" class="st2 st54"> </tspan><tspan x="53.63" y="0" class="st2 st53">Capitalism</tspan><tspan x="150.43" y="0" class="st2 st55"> </tspan><tspan x="153.9" y="0" class="st2 st53">Is</tspan><tspan x="168.88" y="0" class="st2 st55"> </tspan><tspan x="172.34" y="0" class="st2 st53">A</tspan><tspan x="186.6" y="0" class="st2 st54"> </tspan><tspan x="188.46" y="0" class="st2 st53">Virus</tspan><tspan x="236.15" y="0" class="st2 st54"> </tspan><tspan x="238.01" y="0" class="st2 st53">.</tspan><tspan x="242.79" y="0" class="st2 st54"> </tspan><tspan x="244.64" y="0" class="st2 st53">org</tspan></text>
		</g>
		<g>
			<text transform="matrix(1 0 0 1 299.1799 22.1245)"><tspan x="0" y="0" class="st2 st53">#</tspan><tspan x="12.7" y="0" class="st2 st56"> </tspan><tspan x="14.5" y="0" class="st2 st53">Capitalism</tspan><tspan x="111.3" y="0" class="st2 st56"> </tspan><tspan x="113.1" y="0" class="st2 st53">Is</tspan><tspan x="128.09" y="0" class="st2 st56"> </tspan><tspan x="129.89" y="0" class="st2 st53">A</tspan><tspan x="144.15" y="0" class="st2 st56"> </tspan><tspan x="145.95" y="0" class="st2 st53">Virus</tspan></text>
		</g>
	</g>
</g>
<g id="expanded">
	<path d="M79.51,41.16v126.54h33.94v-39.57h21.69c33.14,0,52.42-15.47,52.42-43.58c0-27.92-19.28-43.38-52.42-43.38H79.51z
		 M154.63,84.74c0,10.65-5.82,16.07-21.09,16.07h-20.08V68.47h20.08C148.81,68.47,154.63,74.1,154.63,84.74z"/>
	<path d="M230.35,126.72c0-15.06,7.43-20.69,19.48-20.69c6.23,0,11.05,1.21,15.47,3.82l2.01-30.73c-2.21-1.81-7.03-3.41-12.45-3.41
		c-11.85,0-21.29,8.23-24.5,18.28V78.12h-32.54v89.58h32.54V126.72z"/>
	<path d="M270.92,122.91c0,27.92,19.68,47.2,49.01,47.2c29.12,0,49.01-19.28,49.01-47.2c0-27.72-19.88-47.2-49.01-47.2
		C290.61,75.71,270.92,95.19,270.92,122.91z M319.93,100.21c11.25,0,16.27,9.24,16.27,22.7s-5.02,22.7-16.27,22.7
		c-11.45,0-16.27-9.24-16.27-22.7S308.48,100.21,319.93,100.21z"/>
	<path d="M372.96,100.61h12.05v42.18c0,21.09,14.26,27.32,29.32,27.32c12.25,0,20.08-3.01,26.91-8.03v-21.09
		c-5.42,2.21-9.84,3.01-13.86,3.01c-6.63,0-10.24-3.01-10.24-10.65v-32.74h23.3v-22.5h-23.3V53.41h-20.49l-3.01,11.65
		c-2.21,8.24-5.02,13.06-14.06,14.46l-6.63,1V100.61z"/>
	<path d="M498.08,170.1c23.7,0,40.17-11.45,44.79-31.94l-26.11-2.41c-3.01,7.03-8.64,10.04-17.47,10.04
		c-9.84,0-17.88-5.22-18.68-16.27h62.87v-9.04c0-24.3-15.87-44.79-45.79-44.79c-27.92,0-48.81,20.29-48.81,48.61
		C448.87,152.83,469.36,170.1,498.08,170.1z M497.28,99c9.64,0,14.86,6.83,15.27,14.86h-31.53C482.22,105.43,486.84,99,497.28,99z"
		/>
	<path d="M602.32,100.21c9.44,0,14.86,5.22,17.07,16.27l26.71-1.81c-2.21-21.49-17.27-38.96-44.19-38.96
		c-28.32,0-49.01,18.88-49.01,47.2c0,28.52,20.69,47.2,49.01,47.2c26.91,0,41.98-17.27,44.19-38.97l-26.71-2.01
		c-2.21,11.05-7.63,16.47-17.07,16.47c-9.84,0-16.67-6.63-16.67-22.7C585.65,106.84,592.48,100.21,602.32,100.21z"/>
	<path d="M673.42,53.41l-3.01,11.65c-2.21,8.24-5.02,13.06-14.06,14.46l-6.63,1v20.08h12.05v42.18c0,21.09,14.26,27.32,29.32,27.32
		c12.25,0,20.08-3.01,26.91-8.03v-21.09c-5.42,2.21-9.84,3.01-13.86,3.01c-6.63,0-10.24-3.01-10.24-10.65v-32.74h23.3v-22.5h-23.3
		V53.41H673.42z"/>
	<polygon points="94.17,554.48 115.26,474.54 116.06,474.54 137.15,554.48 173.51,554.48 206.65,427.94 173.71,427.94 
		153.62,507.28 152.82,507.28 131.93,427.94 101.2,427.94 80.31,507.28 79.51,507.28 59.42,427.94 25.28,427.94 58.42,554.48 	"/>
	<path d="M253.65,556.89c29.12,0,49.01-19.28,49.01-47.2c0-27.72-19.88-47.2-49.01-47.2c-29.32,0-49.01,19.48-49.01,47.2
		C204.64,537.61,224.32,556.89,253.65,556.89z M253.65,487c11.25,0,16.27,9.24,16.27,22.7s-5.02,22.7-16.27,22.7
		c-11.45,0-16.27-9.24-16.27-22.7S242.2,487,253.65,487z"/>
	<path d="M385,465.91c-2.21-1.81-7.03-3.41-12.45-3.41c-11.85,0-21.29,8.23-24.5,18.28V464.9h-32.54v89.58h32.54v-40.97
		c0-15.06,7.43-20.69,19.48-20.69c6.23,0,11.05,1.21,15.47,3.82L385,465.91z"/>
	<polygon points="459.52,500.05 496.48,464.9 458.31,464.9 427.58,495.83 427.58,427.94 395.05,427.94 395.05,554.48 427.58,554.48 
		427.58,526.16 435.42,518.13 461.13,554.48 497.68,554.48 	"/>
	<path d="M589.67,507.28c0-24.3-15.87-44.79-45.79-44.79c-27.92,0-48.81,20.29-48.81,48.61c0,28.52,20.49,45.79,49.21,45.79
		c23.7,0,40.17-11.45,44.79-31.94l-26.11-2.41c-3.01,7.03-8.64,10.04-17.47,10.04c-9.84,0-17.88-5.22-18.68-16.27h62.87V507.28z
		 M527.21,500.65c1.21-8.44,5.83-14.86,16.27-14.86c9.64,0,14.86,6.83,15.27,14.86H527.21z"/>
	<path d="M602.93,464.9v89.58h32.54v-40.97c0-15.06,7.43-20.69,19.48-20.69c6.23,0,11.05,1.21,15.47,3.82l2.01-30.73
		c-2.21-1.81-7.03-3.41-12.45-3.41c-11.85,0-21.29,8.23-24.5,18.28V464.9H602.93z"/>
	<path d="M717.81,482.98c10.04,0,15.67,4.02,16.87,10.44l26.71-0.8c-1.81-18.68-17.07-30.13-42.98-30.13
		c-25.11,0-40.57,12.65-40.57,30.33c0,18.28,11.45,25.31,33.14,28.72l13.26,2.01c6.23,1,8.23,3.42,8.23,6.83
		c0,3.62-3.82,6.23-11.05,6.23c-9.84,0-15.87-4.22-17.07-11.65l-28.32,0.4c1.81,21.69,20.29,31.53,44.99,31.53
		c25.51,0,41.58-10.85,41.58-29.73c0-17.47-11.65-26.51-31.73-29.73l-17.47-3.01c-3.01-0.4-5.42-2.01-5.42-5.02
		C707.97,485.39,711.59,482.98,717.81,482.98z"/>
	<path d="M138.03,396.51h51.79l14.23-36.95h74.5l14.23,36.95h54.81l-76.01-190.79h-57.54L138.03,396.51z M240.7,264.77h1.21
		l21.8,56.33h-44.82L240.7,264.77z"/>
	<polygon points="362.13,396.51 508.1,396.51 508.1,354.11 413.62,354.11 413.62,205.72 362.13,205.72 	"/>
	<polygon points="530.21,396.51 676.18,396.51 676.18,354.11 581.69,354.11 581.69,205.72 530.21,205.72 	"/>
	<polygon points="299.54,595.82 299.46,595.82 298.12,590.6 295.46,590.6 294.12,595.82 294.04,595.82 292.39,590.6 289.16,590.6 
		289.07,590.6 286.15,590.6 284.5,595.82 284.41,595.82 283.07,590.6 280.41,590.6 279.07,595.82 278.99,595.82 277.34,590.6 
		274.11,590.6 274.02,590.6 271.1,590.6 269.45,595.82 269.37,595.82 268.03,590.6 265.37,590.6 264.03,595.82 263.95,595.82 
		262.3,590.6 258.98,590.6 261.88,599.8 265.16,599.8 266.5,594.6 266.58,594.6 267.92,599.8 271.2,599.8 274.07,590.74 
		276.93,599.8 280.21,599.8 281.55,594.6 281.63,594.6 282.97,599.8 286.25,599.8 289.11,590.74 291.98,599.8 295.25,599.8 
		296.59,594.6 296.68,594.6 298.02,599.8 301.29,599.8 304.2,590.6 301.19,590.6 	"/>
	<rect x="306.63" y="596.25" width="3.55" height="3.55"/>
	<path d="M319.7,589.68c2.02,0,2.8,1.34,3.01,2.78l3.36-0.12c-0.25-3.24-2.37-5.77-6.35-5.77c-3.79,0-6.66,2.74-6.66,6.74
		s2.87,6.74,6.66,6.74c3.98,0,6.1-2.51,6.35-5.75l-3.36-0.14c-0.21,1.44-0.99,2.78-3.01,2.78c-1.92,0-3.03-1.42-3.03-3.63
		S317.78,589.68,319.7,589.68z"/>
	<path d="M330.08,594.62c-2,0.35-3.28,1.11-3.28,2.89c0,1.57,1.18,2.49,2.97,2.49c1.46,0,2.51-0.56,3.05-1.63
		c0.31,1.05,1.2,1.63,2.33,1.63c0.95,0,1.61-0.27,2.08-0.6v-1.77c-0.27,0.1-0.47,0.14-0.74,0.14c-0.35,0-0.56-0.21-0.56-0.68v-3.13
		c0-2.56-1.79-3.61-4.23-3.61c-2.76,0-4.27,1.4-4.56,3.42l3.09,0.21c0.14-0.68,0.52-1.15,1.26-1.15c0.8,0,1.15,0.45,1.15,1.22v0.14
		L330.08,594.62z M332.66,595.96c0,1.2-0.76,1.9-1.71,1.9c-0.56,0-0.93-0.31-0.93-0.78c0-0.6,0.47-0.85,1.28-1.01l1.36-0.25V595.96z
		"/>
	<path d="M338.2,590.6v12.49h3.34v-4.86c0.45,1.07,1.48,1.81,3.03,1.81c2.7,0,4.08-2.12,4.08-4.84c0-2.7-1.38-4.84-4.08-4.84
		c-1.55,0-2.58,0.74-3.03,1.83v-1.59H338.2z M343.4,592.95c1.3,0,1.9,0.93,1.9,2.25c0,1.34-0.6,2.27-1.9,2.27
		c-1.13,0-1.85-0.87-1.85-2.21v-0.12C341.54,593.82,342.27,592.95,343.4,592.95z"/>
	<rect x="349.97" y="590.6" width="3.34" height="9.19"/>
	<rect x="349.95" y="586.81" width="3.38" height="2.93"/>
	<path d="M358.46,600.04c1.26,0,2.06-0.31,2.76-0.82v-2.16c-0.56,0.23-1.01,0.31-1.42,0.31c-0.68,0-1.05-0.31-1.05-1.09v-3.36h2.39
		v-2.31h-2.39v-2.54h-2.1l-0.31,1.2c-0.23,0.85-0.52,1.34-1.44,1.48l-0.68,0.1v2.06h1.24v4.33
		C355.46,599.41,356.92,600.04,358.46,600.04z"/>
	<path d="M365.25,594.62c-2,0.35-3.28,1.11-3.28,2.89c0,1.57,1.17,2.49,2.97,2.49c1.46,0,2.51-0.56,3.05-1.63
		c0.31,1.05,1.2,1.63,2.33,1.63c0.95,0,1.61-0.27,2.08-0.6v-1.77c-0.27,0.1-0.47,0.14-0.74,0.14c-0.35,0-0.56-0.21-0.56-0.68v-3.13
		c0-2.56-1.79-3.61-4.23-3.61c-2.76,0-4.27,1.4-4.56,3.42l3.09,0.21c0.14-0.68,0.52-1.15,1.26-1.15c0.8,0,1.15,0.45,1.15,1.22v0.14
		L365.25,594.62z M367.82,595.96c0,1.2-0.76,1.9-1.71,1.9c-0.56,0-0.93-0.31-0.93-0.78c0-0.6,0.47-0.85,1.28-1.01l1.36-0.25V595.96z
		"/>
	<rect x="373.37" y="586.81" width="3.34" height="12.99"/>
	<rect x="378.52" y="590.6" width="3.34" height="9.19"/>
	<rect x="378.5" y="586.81" width="3.38" height="2.93"/>
	<path d="M387.67,597.96c-1.01,0-1.63-0.43-1.75-1.2l-2.91,0.04c0.19,2.23,2.08,3.24,4.62,3.24c2.62,0,4.27-1.11,4.27-3.05
		c0-1.79-1.2-2.72-3.26-3.05l-1.79-0.31c-0.31-0.04-0.56-0.21-0.56-0.52c0-0.41,0.37-0.66,1.01-0.66c1.03,0,1.61,0.41,1.73,1.07
		l2.74-0.08c-0.19-1.92-1.75-3.09-4.41-3.09c-2.58,0-4.16,1.3-4.16,3.11c0,1.88,1.17,2.6,3.4,2.95l1.36,0.21
		c0.64,0.1,0.85,0.35,0.85,0.7C388.8,597.7,388.41,597.96,387.67,597.96z"/>
	<path d="M408.65,599.8v-5.77c0-1.92-0.74-3.67-3.28-3.67c-1.55,0-2.64,0.78-3.13,1.81c-0.39-1.07-1.24-1.81-2.87-1.81
		c-1.38,0-2.37,0.62-2.87,1.63v-1.38h-3.34v9.19h3.34v-4.51c0-1.38,0.39-2.29,1.48-2.29c1.01,0,1.26,0.66,1.26,1.92v4.89h3.34v-4.51
		c0-1.38,0.37-2.29,1.48-2.29c1.01,0,1.24,0.66,1.24,1.92v4.89H408.65z"/>
	<rect x="413.91" y="586.81" width="3.5" height="12.99"/>
	<path d="M423.3,597.96c-1.01,0-1.63-0.43-1.75-1.2l-2.91,0.04c0.19,2.23,2.08,3.24,4.62,3.24c2.62,0,4.27-1.11,4.27-3.05
		c0-1.79-1.2-2.72-3.26-3.05l-1.79-0.31c-0.31-0.04-0.56-0.21-0.56-0.52c0-0.41,0.37-0.66,1.01-0.66c1.03,0,1.61,0.41,1.73,1.07
		l2.74-0.08c-0.19-1.92-1.75-3.09-4.41-3.09c-2.58,0-4.16,1.3-4.16,3.11c0,1.88,1.17,2.6,3.4,2.95l1.36,0.21
		c0.64,0.1,0.84,0.35,0.84,0.7C424.44,597.7,424.05,597.96,423.3,597.96z"/>
	<path d="M431.36,599.8h3.53l0.97-2.51h5.07l0.97,2.51h3.73l-5.17-12.99h-3.92L431.36,599.8z M438.35,590.83h0.08l1.48,3.83h-3.05
		L438.35,590.83z"/>
	<polygon points="454.45,595.45 454.36,595.45 451.15,586.81 447.48,586.81 452.47,599.8 456.16,599.8 461.15,586.81 457.66,586.81 
			"/>
	<rect x="462.05" y="590.6" width="3.34" height="9.19"/>
	<rect x="462.03" y="586.81" width="3.38" height="2.93"/>
	<path d="M467.2,590.6v9.19h3.34v-4.21c0-1.55,0.76-2.12,2-2.12c0.64,0,1.13,0.12,1.59,0.39l0.21-3.15
		c-0.23-0.19-0.72-0.35-1.28-0.35c-1.22,0-2.19,0.85-2.52,1.88v-1.63H467.2z"/>
	<path d="M484.77,599.8v-9.19h-3.34v4.51c0,1.4-0.41,2.31-1.46,2.31c-1.01,0-1.36-0.68-1.36-1.92v-4.91h-3.34v5.79
		c0,1.92,0.76,3.65,3.28,3.65c1.38,0,2.39-0.6,2.89-1.63v1.38H484.77z"/>
	<path d="M490.58,597.96c-1.01,0-1.63-0.43-1.75-1.2l-2.91,0.04c0.19,2.23,2.08,3.24,4.62,3.24c2.62,0,4.27-1.11,4.27-3.05
		c0-1.79-1.2-2.72-3.26-3.05l-1.79-0.31c-0.31-0.04-0.56-0.21-0.56-0.52c0-0.41,0.37-0.66,1.01-0.66c1.03,0,1.61,0.41,1.73,1.07
		l2.74-0.08c-0.19-1.92-1.75-3.09-4.41-3.09c-2.58,0-4.16,1.3-4.16,3.11c0,1.88,1.18,2.6,3.4,2.95l1.36,0.21
		c0.64,0.1,0.84,0.35,0.84,0.7C491.71,597.7,491.32,597.96,490.58,597.96z"/>
	<rect x="497.64" y="596.25" width="3.55" height="3.55"/>
	<path d="M504.08,595.2c0,2.87,2.02,4.84,5.03,4.84c2.99,0,5.03-1.98,5.03-4.84c0-2.84-2.04-4.84-5.03-4.84
		C506.1,590.36,504.08,592.36,504.08,595.2z M510.77,595.2c0,1.38-0.52,2.33-1.67,2.33c-1.18,0-1.67-0.95-1.67-2.33
		s0.49-2.33,1.67-2.33C510.26,592.87,510.77,593.82,510.77,595.2z"/>
	<path d="M515.45,590.6v9.19h3.34v-4.21c0-1.55,0.76-2.12,2-2.12c0.64,0,1.13,0.12,1.59,0.39l0.21-3.15
		c-0.23-0.19-0.72-0.35-1.28-0.35c-1.22,0-2.19,0.85-2.51,1.88v-1.63H515.45z"/>
	<path d="M522.6,601.1c0,1.73,2.27,2.25,4.89,2.25c2.99,0,5.77-1.05,5.77-3.34c0-1.55-1.05-2.64-3.13-2.64h-3.81
		c-0.56,0-0.78-0.25-0.78-0.56c0-0.19,0.06-0.33,0.19-0.43c0.6,0.19,1.26,0.27,2,0.27c2.6,0,4.47-1.2,4.47-3.13
		c0-0.43-0.1-0.83-0.29-1.18c0.45-0.1,0.95-0.14,1.34-0.14v-2.52c-1.01,0-2.02,0.66-2.58,1.42c-0.78-0.47-1.83-0.74-2.95-0.74
		c-2.58,0-4.43,1.2-4.43,3.15c0,1.01,0.5,1.79,1.32,2.33c-0.99,0.37-1.57,1.05-1.57,1.94c0,0.78,0.49,1.53,1.32,1.79
		C523.33,599.65,522.6,600.29,522.6,601.1z M527.76,592.19c0.56,0,0.97,0.52,0.97,1.32c0,0.82-0.41,1.34-0.97,1.34
		s-0.97-0.52-0.97-1.34C526.79,592.71,527.2,592.19,527.76,592.19z M525.96,600.21h3.38c0.56,0,0.85,0.14,0.85,0.54
		c0,0.56-1.13,0.87-2.68,0.87c-1.24,0-2.16-0.19-2.16-0.85C525.35,600.42,525.59,600.21,525.96,600.21z"/>
	<path d="M300.03,16.64l-0.43,2.06h1.81l-0.8,3.42h2.49l0.8-3.42h1.77l-0.8,3.42h2.49l0.8-3.42h2.04l0.43-2.06h-1.98l0.49-2.02h1.88
		l0.43-2.06h-1.83l0.82-3.42h-2.49l-0.82,3.42h-1.77l0.82-3.42h-2.49l-0.82,3.42h-2.02l-0.43,2.06h1.98l-0.49,2.02H300.03z
		 M304.89,14.62h1.77l-0.5,2.02h-1.77L304.89,14.62z"/>
	<path d="M320.73,12c2.02,0,2.8,1.34,3.01,2.78l3.36-0.12c-0.25-3.24-2.37-5.77-6.35-5.77c-3.79,0-6.66,2.74-6.66,6.74
		s2.87,6.74,6.66,6.74c3.98,0,6.1-2.52,6.35-5.75l-3.36-0.14c-0.21,1.44-0.99,2.78-3.01,2.78c-1.92,0-3.03-1.42-3.03-3.63
		S318.81,12,320.73,12z"/>
	<path d="M331.11,16.95c-2,0.35-3.28,1.11-3.28,2.89c0,1.57,1.18,2.49,2.97,2.49c1.46,0,2.51-0.56,3.05-1.63
		c0.31,1.05,1.2,1.63,2.33,1.63c0.95,0,1.61-0.27,2.08-0.6v-1.77c-0.27,0.1-0.47,0.14-0.74,0.14c-0.35,0-0.56-0.21-0.56-0.68v-3.13
		c0-2.56-1.79-3.61-4.23-3.61c-2.76,0-4.27,1.4-4.56,3.42l3.09,0.21c0.14-0.68,0.52-1.15,1.26-1.15c0.8,0,1.15,0.45,1.15,1.22v0.14
		L331.11,16.95z M333.69,18.29c0,1.2-0.76,1.9-1.71,1.9c-0.56,0-0.93-0.31-0.93-0.78c0-0.6,0.47-0.85,1.28-1.01l1.36-0.25V18.29z"/>
	<path d="M342.57,14.52v-1.59h-3.34v12.49h3.34v-4.87c0.45,1.07,1.48,1.81,3.03,1.81c2.7,0,4.08-2.12,4.08-4.84
		c0-2.7-1.38-4.84-4.08-4.84C344.06,12.68,343.03,13.42,342.57,14.52z M346.32,17.53c0,1.34-0.6,2.27-1.9,2.27
		c-1.13,0-1.86-0.87-1.86-2.21v-0.12c0-1.32,0.72-2.19,1.86-2.19C345.73,15.28,346.32,16.21,346.32,17.53z"/>
	<rect x="350.98" y="9.14" width="3.38" height="2.93"/>
	<rect x="351" y="12.93" width="3.34" height="9.19"/>
	<path d="M356.48,19.57c0,2.16,1.46,2.8,3.01,2.8c1.26,0,2.06-0.31,2.76-0.82v-2.16c-0.56,0.23-1.01,0.31-1.42,0.31
		c-0.68,0-1.05-0.31-1.05-1.09v-3.36h2.39v-2.31h-2.39v-2.54h-2.1l-0.31,1.2c-0.23,0.85-0.52,1.34-1.44,1.48l-0.68,0.1v2.06h1.24
		V19.57z"/>
	<path d="M366.27,16.95c-2,0.35-3.28,1.11-3.28,2.89c0,1.57,1.17,2.49,2.97,2.49c1.46,0,2.51-0.56,3.05-1.63
		c0.31,1.05,1.2,1.63,2.33,1.63c0.95,0,1.61-0.27,2.08-0.6v-1.77c-0.27,0.1-0.47,0.14-0.74,0.14c-0.35,0-0.56-0.21-0.56-0.68v-3.13
		c0-2.56-1.79-3.61-4.23-3.61c-2.76,0-4.27,1.4-4.56,3.42l3.09,0.21c0.14-0.68,0.52-1.15,1.26-1.15c0.8,0,1.15,0.45,1.15,1.22v0.14
		L366.27,16.95z M368.85,18.29c0,1.2-0.76,1.9-1.71,1.9c-0.56,0-0.93-0.31-0.93-0.78c0-0.6,0.47-0.85,1.28-1.01l1.36-0.25V18.29z"/>
	<rect x="374.39" y="9.14" width="3.34" height="12.99"/>
	<rect x="379.55" y="12.93" width="3.34" height="9.19"/>
	<rect x="379.53" y="9.14" width="3.38" height="2.93"/>
	<path d="M388.7,20.29c-1.01,0-1.63-0.43-1.75-1.2l-2.91,0.04c0.19,2.23,2.08,3.24,4.62,3.24c2.62,0,4.27-1.11,4.27-3.05
		c0-1.79-1.2-2.72-3.26-3.05l-1.79-0.31c-0.31-0.04-0.56-0.21-0.56-0.52c0-0.41,0.37-0.66,1.01-0.66c1.03,0,1.61,0.41,1.73,1.07
		l2.74-0.08c-0.19-1.92-1.75-3.09-4.41-3.09c-2.58,0-4.16,1.3-4.16,3.11c0,1.88,1.17,2.6,3.4,2.95l1.36,0.21
		c0.64,0.1,0.85,0.35,0.85,0.7C389.83,20.02,389.44,20.29,388.7,20.29z"/>
	<path d="M394.2,12.93v9.19h3.34v-4.51c0-1.38,0.39-2.29,1.48-2.29c1.01,0,1.26,0.66,1.26,1.92v4.89h3.34v-4.51
		c0-1.38,0.37-2.29,1.48-2.29c1.01,0,1.24,0.66,1.24,1.92v4.89h3.34v-5.77c0-1.92-0.74-3.67-3.28-3.67c-1.55,0-2.64,0.78-3.13,1.81
		c-0.39-1.07-1.24-1.81-2.87-1.81c-1.38,0-2.37,0.62-2.87,1.63v-1.38H394.2z"/>
	<rect x="413.27" y="9.14" width="3.5" height="12.99"/>
	<path d="M422.67,20.29c-1.01,0-1.63-0.43-1.75-1.2l-2.91,0.04c0.19,2.23,2.08,3.24,4.62,3.24c2.62,0,4.27-1.11,4.27-3.05
		c0-1.79-1.2-2.72-3.26-3.05l-1.79-0.31c-0.31-0.04-0.56-0.21-0.56-0.52c0-0.41,0.37-0.66,1.01-0.66c1.03,0,1.61,0.41,1.73,1.07
		l2.74-0.08c-0.19-1.92-1.75-3.09-4.41-3.09c-2.58,0-4.16,1.3-4.16,3.11c0,1.88,1.17,2.6,3.4,2.95l1.36,0.21
		c0.64,0.1,0.85,0.35,0.85,0.7C423.8,20.02,423.41,20.29,422.67,20.29z"/>
	<path d="M438.63,19.61l0.97,2.52h3.73l-5.17-12.99h-3.92l-5.17,12.99h3.53l0.97-2.52H438.63z M436.05,13.16h0.08l1.48,3.83h-3.05
		L436.05,13.16z"/>
	<polygon points="452.1,17.77 452.01,17.77 448.8,9.14 445.13,9.14 450.12,22.12 453.81,22.12 458.8,9.14 455.31,9.14 	"/>
	<rect x="459.7" y="12.93" width="3.34" height="9.19"/>
	<rect x="459.68" y="9.14" width="3.38" height="2.93"/>
	<path d="M464.85,12.93v9.19h3.34v-4.21c0-1.55,0.76-2.12,2-2.12c0.64,0,1.13,0.12,1.59,0.39l0.21-3.15
		c-0.23-0.19-0.72-0.35-1.28-0.35c-1.22,0-2.19,0.85-2.52,1.88v-1.63H464.85z"/>
	<path d="M472.91,12.93v5.79c0,1.92,0.76,3.65,3.28,3.65c1.38,0,2.39-0.6,2.89-1.63v1.38h3.34v-9.19h-3.34v4.51
		c0,1.4-0.41,2.31-1.46,2.31c-1.01,0-1.36-0.68-1.36-1.92v-4.91H472.91z"/>
	<path d="M488.22,20.29c-1.01,0-1.63-0.43-1.75-1.2l-2.91,0.04c0.19,2.23,2.08,3.24,4.62,3.24c2.62,0,4.27-1.11,4.27-3.05
		c0-1.79-1.2-2.72-3.26-3.05l-1.79-0.31c-0.31-0.04-0.56-0.21-0.56-0.52c0-0.41,0.37-0.66,1.01-0.66c1.03,0,1.61,0.41,1.73,1.07
		l2.74-0.08c-0.19-1.92-1.75-3.09-4.41-3.09c-2.58,0-4.16,1.3-4.16,3.11c0,1.88,1.18,2.6,3.4,2.95l1.36,0.21
		c0.64,0.1,0.84,0.35,0.84,0.7C489.36,20.02,488.97,20.29,488.22,20.29z"/>
</g>
</svg>
