<?xml version="1.0" encoding="utf-8"?>
<!-- Generator: Adobe Illustrator 23.1.1, SVG Export Plug-In . SVG Version: 6.00 Build 0)  -->
<svg version="1.1" xmlns="http://www.w3.org/2000/svg" xmlns:xlink="http://www.w3.org/1999/xlink" x="0px" y="0px"
	 viewBox="0 0 792 612" style="enable-background:new 0 0 792 612;" xml:space="preserve">
<style type="text/css">
	.st0{display:none;}
	.st1{display:inline;}
	
		.st2{display:inline;fill:#FFFFFF;stroke:#000000;stroke-width:16;stroke-linecap:round;stroke-linejoin:round;stroke-miterlimit:10;}
	.st3{fill:#FFFFFF;stroke:#000000;stroke-width:16;stroke-linecap:round;stroke-linejoin:round;stroke-miterlimit:10;}
	.st4{display:inline;fill:none;stroke:#000000;stroke-width:24;stroke-linejoin:round;stroke-miterlimit:10;}
	.st5{display:inline;fill:#FFFFFF;}
	.st6{fill:#FFFFFF;stroke:#000000;stroke-width:17;stroke-linecap:round;stroke-miterlimit:10;}
	.st7{fill:#FFFFFF;stroke:#000000;stroke-width:17;stroke-miterlimit:10;}
	.st8{stroke:#000000;stroke-width:16.0572;stroke-linecap:round;stroke-miterlimit:10;}
	.st9{fill:#FFFFFF;}
	.st10{fill:#FFFFFF;stroke:#000000;stroke-width:17.1072;stroke-linecap:round;stroke-linejoin:round;stroke-miterlimit:10;}
	.st11{stroke:#000000;stroke-width:17.1072;stroke-linecap:round;stroke-linejoin:round;stroke-miterlimit:10;}
	.st12{fill:#FFFFFF;stroke:#000000;stroke-width:14.7375;stroke-linecap:round;stroke-linejoin:round;stroke-miterlimit:10;}
	.st13{fill:none;stroke:#000000;stroke-width:14.7375;stroke-linecap:round;stroke-linejoin:round;stroke-miterlimit:10;}
	.st14{stroke:#000000;stroke-width:14.7375;stroke-linecap:round;stroke-linejoin:round;stroke-miterlimit:10;}
	.st15{fill:#FFFFFF;stroke:#000000;stroke-width:14.2911;stroke-linecap:round;stroke-linejoin:round;stroke-miterlimit:10;}
	.st16{fill:none;stroke:#000000;stroke-width:13.497;stroke-miterlimit:10;}
	.st17{fill:#FFFFFF;stroke:#000000;stroke-width:13.497;stroke-linecap:round;stroke-linejoin:round;stroke-miterlimit:10;}
	.st18{fill:#FFFFFF;stroke:#000000;stroke-width:13.497;stroke-miterlimit:10;}
	.st19{fill:#FFFFFF;stroke:#000000;stroke-width:14.7439;stroke-linecap:round;stroke-miterlimit:10;}
	.st20{fill:#FFFFFF;stroke:#000000;stroke-width:14.7439;stroke-miterlimit:10;}
	.st21{stroke:#000000;stroke-width:13.9262;stroke-linecap:round;stroke-miterlimit:10;}
	
		.st22{display:inline;fill:#FFFFFF;stroke:#000000;stroke-width:14.6942;stroke-linecap:round;stroke-linejoin:round;stroke-miterlimit:10;}
	.st23{fill:#FFFFFF;stroke:#000000;stroke-width:14.6942;stroke-linecap:round;stroke-linejoin:round;stroke-miterlimit:10;}
	.st24{fill:none;stroke:#000000;stroke-width:24;stroke-linejoin:round;stroke-miterlimit:10;}
	.st25{fill:none;stroke:#000000;stroke-width:30.5612;stroke-linecap:round;stroke-linejoin:round;stroke-miterlimit:10;}
	.st26{fill:#FFFFFF;stroke:#000000;stroke-width:16.2993;stroke-linecap:round;stroke-linejoin:round;stroke-miterlimit:10;}
	.st27{display:inline;fill:#FFFFFF;stroke:#000000;stroke-width:13.497;stroke-linecap:round;stroke-miterlimit:10;}
	
		.st28{display:inline;fill:none;stroke:#000000;stroke-width:13.497;stroke-linecap:round;stroke-linejoin:round;stroke-miterlimit:10;}
	
		.st29{display:inline;fill:#FFFFFF;stroke:#000000;stroke-width:13.497;stroke-linecap:round;stroke-linejoin:round;stroke-miterlimit:10;}
	
		.st30{display:inline;fill:url(#);stroke:#000000;stroke-width:13.497;stroke-linecap:round;stroke-linejoin:round;stroke-miterlimit:10;}
	.st31{fill:#FFFFFF;stroke:#000000;stroke-width:15.2362;stroke-linecap:round;stroke-linejoin:round;stroke-miterlimit:10;}
	.st32{fill:#FFFFFF;stroke:#000000;stroke-width:14.8467;stroke-linecap:round;stroke-linejoin:round;stroke-miterlimit:10;}
	.st33{stroke:#000000;stroke-width:20.1683;stroke-linecap:round;stroke-miterlimit:10;}
	.st34{fill:none;stroke:#000000;stroke-width:14.8467;stroke-linecap:round;stroke-linejoin:round;stroke-miterlimit:10;}
	.st35{fill:#FFFFFF;stroke:#FFFFFF;stroke-width:3;stroke-miterlimit:10;}
	.st36{display:inline;fill:none;stroke:#000000;stroke-width:15;stroke-linecap:round;stroke-linejoin:round;stroke-miterlimit:10;}
	
		.st37{display:inline;fill:#FFFFFF;stroke:#000000;stroke-width:15;stroke-linecap:round;stroke-linejoin:round;stroke-miterlimit:10;}
	.st38{fill:#FFFFFF;stroke:#000000;stroke-width:15;stroke-linecap:round;stroke-linejoin:round;stroke-miterlimit:10;}
	.st39{fill:#FFFFFF;stroke:#000000;stroke-width:11.7326;stroke-linecap:round;stroke-linejoin:round;stroke-miterlimit:10;}
	.st40{fill:#FFFFFF;stroke:#000000;stroke-width:13.2623;stroke-linecap:round;stroke-linejoin:round;stroke-miterlimit:10;}
	.st41{fill:none;stroke:#000000;stroke-width:16;stroke-linecap:round;stroke-miterlimit:10;}
	.st42{fill:url(#);stroke:#000000;stroke-width:16;stroke-linecap:round;stroke-linejoin:round;stroke-miterlimit:10;}
	.st43{fill:#FFFFFF;stroke:#000000;stroke-width:16;stroke-linecap:round;stroke-miterlimit:10;}
	.st44{fill:#FFFFFF;stroke:#000000;stroke-width:13.2623;stroke-linecap:round;stroke-miterlimit:10;}
	.st45{stroke:#000000;stroke-width:4.5213;stroke-miterlimit:10;}
	.st46{font-family:'FoundersGrotesk-Bold';}
	.st47{font-size:127.7623px;}
	.st48{font-size:368.6871px;}
	.st49{fill:none;stroke:#000000;stroke-width:15.2344;stroke-linecap:round;stroke-linejoin:round;stroke-miterlimit:10;}
	.st50{fill:#FFFFFF;stroke:#000000;stroke-width:15.2344;stroke-linecap:round;stroke-linejoin:round;stroke-miterlimit:10;}
	.st51{stroke:#000000;stroke-width:18.3348;stroke-linecap:round;stroke-miterlimit:10;}
	.st52{fill:none;stroke:#000000;stroke-width:13.497;stroke-linecap:round;stroke-linejoin:round;stroke-miterlimit:10;}
	.st53{font-size:20.6105px;}
	.st54{font-size:10.3052px;}
	.st55{font-size:19.2364px;}
	.st56{font-size:10px;}
	.st57{display:inline;fill:none;stroke:#000000;stroke-width:16;stroke-linecap:round;stroke-linejoin:round;stroke-miterlimit:10;}
	.st58{fill:#FFFFFF;stroke:#000000;stroke-width:13.3058;stroke-linecap:round;stroke-linejoin:round;stroke-miterlimit:10;}
	.st59{fill:#FFFFFF;stroke:#000000;stroke-width:17;stroke-linecap:round;stroke-linejoin:round;stroke-miterlimit:10;}
	.st60{fill:#FFFFFF;stroke:#000000;stroke-width:15.2517;stroke-linecap:round;stroke-linejoin:round;stroke-miterlimit:10;}
	.st61{stroke:#000000;stroke-width:3;stroke-miterlimit:10;}
	.st62{fill:#FFFFFF;stroke:#000000;stroke-width:16.0686;stroke-linecap:round;stroke-linejoin:round;stroke-miterlimit:10;}
	.st63{fill:#FFFFFF;stroke:#000000;stroke-width:15;stroke-linejoin:round;stroke-miterlimit:10;}
	.st64{fill:url(#);stroke:#000000;stroke-width:13.497;stroke-linecap:round;stroke-linejoin:round;stroke-miterlimit:10;}
	.st65{fill:#06A6FF;}
	.st66{fill:#FF0303;}
	.st67{fill:#3DFF06;}
	.st68{fill:#FFF808;}
	.st69{fill:none;stroke:#000000;stroke-width:0;stroke-linecap:round;stroke-linejoin:round;}
</style>
<g id="unexpanded" class="st0">
	<g class="st1">
		<g>
			<text transform="matrix(1 0 0 1 106.467 139.0264)" class="st46 st47">We’ll Take</text>
		</g>
		<g>
			<text transform="matrix(1 0 0 1 190.8533 263.4185)" class="st46 st47">What Is</text>
		</g>
		<text transform="matrix(1 0 0 1 0.7737 543.7256)" class="st46 st48">FAIR</text>
	</g>
	<g class="st1">
		<g>
			<g>
				<text transform="matrix(1 0 0 1 258.9679 599.7979)"><tspan x="0" y="0" class="st46 st53">www</tspan><tspan x="45.14" y="0" class="st46 st54"> </tspan><tspan x="46.99" y="0" class="st46 st53">.</tspan><tspan x="51.77" y="0" class="st46 st54"> </tspan><tspan x="53.63" y="0" class="st46 st53">Capitalism</tspan><tspan x="150.43" y="0" class="st46 st55"> </tspan><tspan x="153.9" y="0" class="st46 st53">Is</tspan><tspan x="168.88" y="0" class="st46 st55"> </tspan><tspan x="172.34" y="0" class="st46 st53">A</tspan><tspan x="186.6" y="0" class="st46 st54"> </tspan><tspan x="188.46" y="0" class="st46 st53">Virus</tspan><tspan x="236.15" y="0" class="st46 st54"> </tspan><tspan x="238.01" y="0" class="st46 st53">.</tspan><tspan x="242.79" y="0" class="st46 st54"> </tspan><tspan x="244.64" y="0" class="st46 st53">org</tspan></text>
			</g>
			<g>
				<text transform="matrix(1 0 0 1 299.1802 22.1245)"><tspan x="0" y="0" class="st46 st53">#</tspan><tspan x="12.7" y="0" class="st46 st56"> </tspan><tspan x="14.5" y="0" class="st46 st53">Capitalism</tspan><tspan x="111.3" y="0" class="st46 st56"> </tspan><tspan x="113.1" y="0" class="st46 st53">Is</tspan><tspan x="128.09" y="0" class="st46 st56"> </tspan><tspan x="129.89" y="0" class="st46 st53">A</tspan><tspan x="144.15" y="0" class="st46 st56"> </tspan><tspan x="145.95" y="0" class="st46 st53">Virus</tspan></text>
			</g>
		</g>
	</g>
</g>
<g id="expanded">
	<polygon points="159.87,139.03 173.29,88.18 173.8,88.18 187.21,139.03 210.34,139.03 231.42,58.54 210.46,58.54 197.69,109 
		197.18,109 183.89,58.54 164.34,58.54 151.05,109 150.54,109 137.77,58.54 116.05,58.54 137.13,139.03 	"/>
	<path d="M290.32,109c0-15.46-10.09-28.49-29.13-28.49c-17.76,0-31.05,12.9-31.05,30.92c0,18.14,13.03,29.13,31.3,29.13
		c15.08,0,25.55-7.28,28.49-20.31l-16.61-1.53c-1.92,4.47-5.49,6.39-11.12,6.39c-6.26,0-11.37-3.32-11.88-10.35h39.99V109z
		 M250.58,104.79c0.77-5.37,3.71-9.45,10.35-9.45c6.13,0,9.45,4.34,9.71,9.45H250.58z"/>
	<path d="M296.96,84.73v9.84c14.31-0.38,21.59-5.62,21.59-18.14V58.54h-21.59V77.7h9.71C306.54,82.81,303.09,84.47,296.96,84.73z"/>
	<rect x="328" y="58.54" width="20.7" height="80.49"/>
	<rect x="359.94" y="58.54" width="20.7" height="80.49"/>
	<polygon points="412.45,76.42 440.05,76.42 440.05,139.03 461.64,139.03 461.64,76.42 489.62,76.42 489.62,58.54 412.45,58.54 	"/>
	<path d="M547.63,125.61c-1.66,0.64-2.94,0.89-4.6,0.89c-2.17,0-3.45-1.28-3.45-4.22v-19.42c0-15.84-11.12-22.36-26.19-22.36
		c-17.12,0-26.45,8.69-28.24,21.21l19.16,1.28c0.89-4.22,3.19-7.16,7.79-7.16c4.98,0,7.16,2.81,7.16,7.54v0.89l-15.97,2.68
		c-12.39,2.17-20.31,6.9-20.31,17.89c0,9.71,7.28,15.46,18.4,15.46c9.07,0,15.59-3.45,18.91-10.09c1.92,6.52,7.41,10.09,14.44,10.09
		c5.88,0,9.97-1.66,12.9-3.71V125.61z M519.26,115.26c0,7.41-4.73,11.75-10.6,11.75c-3.45,0-5.75-1.92-5.75-4.85
		c0-3.71,2.94-5.24,7.92-6.26l8.43-1.53V115.26z"/>
	<polygon points="594.64,104.4 618.15,82.04 593.88,82.04 574.33,101.72 574.33,58.54 553.63,58.54 553.63,139.03 574.33,139.03 
		574.33,121.01 579.31,115.9 595.66,139.03 618.92,139.03 	"/>
	<path d="M677.43,109c0-15.46-10.09-28.49-29.13-28.49c-17.76,0-31.05,12.9-31.05,30.92c0,18.14,13.03,29.13,31.3,29.13
		c15.08,0,25.55-7.28,28.49-20.31l-16.61-1.53c-1.92,4.47-5.49,6.39-11.12,6.39c-6.26,0-11.37-3.32-11.88-10.35h39.99V109z
		 M637.7,104.79c0.77-5.37,3.71-9.45,10.35-9.45c6.13,0,9.46,4.34,9.71,9.45H637.7z"/>
	<polygon points="234.99,263.42 248.41,212.57 248.92,212.57 262.33,263.42 285.46,263.42 306.54,182.93 285.59,182.93 
		272.81,233.39 272.3,233.39 259.01,182.93 239.47,182.93 226.18,233.39 225.67,233.39 212.89,182.93 191.17,182.93 212.25,263.42 	
		"/>
	<path d="M371.83,263.42v-35.77c0-11.88-4.98-22.74-20.57-22.74c-8.56,0-15.33,3.83-18.4,10.09v-32.07h-20.7v80.49h20.7v-27.98
		c0-8.56,2.81-14.18,9.84-14.18c6.26,0,8.43,4.09,8.43,11.88v30.28H371.83z"/>
	<path d="M397.51,264.7c9.07,0,15.59-3.45,18.91-10.09c1.92,6.52,7.41,10.09,14.44,10.09c5.88,0,9.96-1.66,12.9-3.71V250
		c-1.66,0.64-2.94,0.89-4.6,0.89c-2.17,0-3.45-1.28-3.45-4.22v-19.42c0-15.84-11.12-22.36-26.19-22.36
		c-17.12,0-26.45,8.69-28.24,21.21l19.16,1.28c0.89-4.22,3.19-7.16,7.79-7.16c4.98,0,7.15,2.81,7.15,7.54v0.89l-15.97,2.68
		c-12.39,2.17-20.31,6.9-20.31,17.89C379.11,258.95,386.39,264.7,397.51,264.7z M406.96,240.29l8.43-1.53v0.89
		c0,7.41-4.73,11.75-10.6,11.75c-3.45,0-5.75-1.92-5.75-4.85C399.04,242.85,401.98,241.32,406.96,240.29z"/>
	<path d="M458.58,190.72l-1.92,7.41c-1.41,5.24-3.19,8.3-8.94,9.2l-4.22,0.64v12.78h7.67v26.83c0,13.42,9.07,17.38,18.65,17.38
		c7.79,0,12.78-1.92,17.12-5.11v-13.42c-3.45,1.41-6.26,1.92-8.82,1.92c-4.22,0-6.52-1.92-6.52-6.77v-20.83h14.82v-14.31h-14.82
		v-15.71H458.58z"/>
	<rect x="518.37" y="182.93" width="21.72" height="80.49"/>
	<path d="M576.62,252.05c-6.26,0-10.09-2.68-10.86-7.41l-18.01,0.25c1.15,13.8,12.9,20.06,28.62,20.06
		c16.23,0,26.45-6.9,26.45-18.91c0-11.12-7.41-16.87-20.19-18.91l-11.12-1.92c-1.92-0.26-3.45-1.28-3.45-3.19
		c0-2.55,2.3-4.09,6.26-4.09c6.39,0,9.97,2.55,10.73,6.64l16.99-0.51c-1.15-11.88-10.86-19.17-27.34-19.17
		c-15.97,0-25.81,8.05-25.81,19.29c0,11.63,7.28,16.1,21.08,18.27l8.43,1.28c3.96,0.64,5.24,2.17,5.24,4.34
		C583.65,250.39,581.22,252.05,576.62,252.05z"/>
	<polygon points="179.77,407.68 94.97,407.68 94.97,363.07 207.79,363.07 207.79,311.46 32.3,311.46 32.3,543.73 94.97,543.73 
		94.97,458.56 179.77,458.56 	"/>
	<path d="M252.4,543.73l17.33-44.98h90.7l17.33,44.98h66.73l-92.54-232.27H281.9l-92.54,232.27H252.4z M314.34,383.35h1.47
		l26.54,68.58h-54.56L314.34,383.35z"/>
	<rect x="462.18" y="311.46" width="62.68" height="232.27"/>
	<path d="M758.6,490.27c-2.58-26.91-16.59-40.56-40.56-45.35c28.39-3.69,49.4-25.81,49.4-59.73c0-45.35-29.86-73.74-89.96-73.74
		H560.25v232.27h61.57v-77.05h41.66c21.01,0,32.44,5.9,34.29,32.44c1.84,23.96,4.79,38.34,9.59,44.61h63.41
		C763.02,535.25,761.92,524.92,758.6,490.27z M666.43,418.37h-44.61V361.6h44.61c26.54,0,39.82,9.96,39.82,28.76
		C706.25,411.74,692.97,418.37,666.43,418.37z"/>
	<polygon points="265.16,599.8 266.5,594.6 266.58,594.6 267.92,599.8 271.2,599.8 274.07,590.74 276.93,599.8 280.21,599.8 
		281.55,594.6 281.63,594.6 282.97,599.8 286.25,599.8 289.11,590.74 291.98,599.8 295.25,599.8 296.59,594.6 296.68,594.6 
		298.02,599.8 301.29,599.8 304.2,590.6 301.19,590.6 299.54,595.82 299.46,595.82 298.12,590.6 295.46,590.6 294.12,595.82 
		294.04,595.82 292.39,590.6 289.15,590.6 289.07,590.6 286.15,590.6 284.5,595.82 284.41,595.82 283.07,590.6 280.41,590.6 
		279.07,595.82 278.99,595.82 277.34,590.6 274.11,590.6 274.02,590.6 271.1,590.6 269.45,595.82 269.37,595.82 268.03,590.6 
		265.37,590.6 264.03,595.82 263.95,595.82 262.3,590.6 258.98,590.6 261.88,599.8 	"/>
	<rect x="306.63" y="596.25" width="3.55" height="3.55"/>
	<path d="M319.7,589.68c2.02,0,2.8,1.34,3.01,2.78l3.36-0.12c-0.25-3.24-2.37-5.77-6.35-5.77c-3.79,0-6.66,2.74-6.66,6.74
		c0,4,2.87,6.74,6.66,6.74c3.98,0,6.1-2.51,6.35-5.75l-3.36-0.14c-0.21,1.44-0.99,2.78-3.01,2.78c-1.92,0-3.03-1.42-3.03-3.63
		C316.67,591.1,317.78,589.68,319.7,589.68z"/>
	<path d="M330.08,594.62c-2,0.35-3.28,1.11-3.28,2.89c0,1.57,1.17,2.49,2.97,2.49c1.46,0,2.52-0.56,3.05-1.63
		c0.31,1.05,1.2,1.63,2.33,1.63c0.95,0,1.61-0.27,2.08-0.6v-1.77c-0.27,0.1-0.47,0.14-0.74,0.14c-0.35,0-0.56-0.21-0.56-0.68v-3.13
		c0-2.56-1.79-3.61-4.23-3.61c-2.76,0-4.27,1.4-4.56,3.42l3.09,0.21c0.14-0.68,0.52-1.15,1.26-1.15c0.8,0,1.15,0.45,1.15,1.22v0.14
		L330.08,594.62z M332.66,595.96c0,1.2-0.76,1.9-1.71,1.9c-0.56,0-0.93-0.31-0.93-0.78c0-0.6,0.47-0.84,1.28-1.01l1.36-0.25V595.96z
		"/>
	<path d="M338.2,590.6v12.49h3.34v-4.86c0.45,1.07,1.48,1.81,3.03,1.81c2.7,0,4.08-2.12,4.08-4.84c0-2.7-1.38-4.84-4.08-4.84
		c-1.55,0-2.58,0.74-3.03,1.83v-1.59H338.2z M343.4,592.95c1.3,0,1.9,0.93,1.9,2.25c0,1.34-0.6,2.27-1.9,2.27
		c-1.13,0-1.86-0.87-1.86-2.21v-0.12C341.54,593.82,342.27,592.95,343.4,592.95z"/>
	<rect x="349.97" y="590.6" width="3.34" height="9.19"/>
	<rect x="349.95" y="586.81" width="3.38" height="2.93"/>
	<path d="M358.46,600.04c1.26,0,2.06-0.31,2.76-0.82v-2.16c-0.56,0.23-1.01,0.31-1.42,0.31c-0.68,0-1.05-0.31-1.05-1.09v-3.36h2.39
		v-2.31h-2.39v-2.54h-2.1l-0.31,1.2c-0.23,0.85-0.52,1.34-1.44,1.48l-0.68,0.1v2.06h1.24v4.33
		C355.46,599.41,356.92,600.04,358.46,600.04z"/>
	<path d="M365.25,594.62c-2,0.35-3.28,1.11-3.28,2.89c0,1.57,1.17,2.49,2.97,2.49c1.46,0,2.52-0.56,3.05-1.63
		c0.31,1.05,1.2,1.63,2.33,1.63c0.95,0,1.61-0.27,2.08-0.6v-1.77c-0.27,0.1-0.47,0.14-0.74,0.14c-0.35,0-0.56-0.21-0.56-0.68v-3.13
		c0-2.56-1.79-3.61-4.23-3.61c-2.76,0-4.27,1.4-4.56,3.42l3.09,0.21c0.14-0.68,0.52-1.15,1.26-1.15c0.8,0,1.15,0.45,1.15,1.22v0.14
		L365.25,594.62z M367.82,595.96c0,1.2-0.76,1.9-1.71,1.9c-0.56,0-0.93-0.31-0.93-0.78c0-0.6,0.47-0.84,1.28-1.01l1.36-0.25V595.96z
		"/>
	<rect x="373.37" y="586.81" width="3.34" height="12.99"/>
	<rect x="378.52" y="590.6" width="3.34" height="9.19"/>
	<rect x="378.5" y="586.81" width="3.38" height="2.93"/>
	<path d="M387.67,597.96c-1.01,0-1.63-0.43-1.75-1.2l-2.91,0.04c0.19,2.23,2.08,3.24,4.62,3.24c2.62,0,4.27-1.11,4.27-3.05
		c0-1.79-1.2-2.72-3.26-3.05l-1.79-0.31c-0.31-0.04-0.56-0.21-0.56-0.51c0-0.41,0.37-0.66,1.01-0.66c1.03,0,1.61,0.41,1.73,1.07
		l2.74-0.08c-0.19-1.92-1.75-3.09-4.41-3.09c-2.58,0-4.16,1.3-4.16,3.11c0,1.88,1.17,2.6,3.4,2.95l1.36,0.21
		c0.64,0.1,0.85,0.35,0.85,0.7C388.8,597.7,388.41,597.96,387.67,597.96z"/>
	<path d="M408.65,599.8v-5.77c0-1.92-0.74-3.67-3.28-3.67c-1.55,0-2.64,0.78-3.13,1.81c-0.39-1.07-1.24-1.81-2.87-1.81
		c-1.38,0-2.37,0.62-2.87,1.63v-1.38h-3.34v9.19h3.34v-4.51c0-1.38,0.39-2.29,1.48-2.29c1.01,0,1.26,0.66,1.26,1.92v4.89h3.34v-4.51
		c0-1.38,0.37-2.29,1.48-2.29c1.01,0,1.24,0.66,1.24,1.92v4.89H408.65z"/>
	<rect x="413.91" y="586.81" width="3.5" height="12.99"/>
	<path d="M423.3,597.96c-1.01,0-1.63-0.43-1.75-1.2l-2.91,0.04c0.19,2.23,2.08,3.24,4.62,3.24c2.62,0,4.27-1.11,4.27-3.05
		c0-1.79-1.2-2.72-3.26-3.05l-1.79-0.31c-0.31-0.04-0.56-0.21-0.56-0.51c0-0.41,0.37-0.66,1.01-0.66c1.03,0,1.61,0.41,1.73,1.07
		l2.74-0.08c-0.19-1.92-1.75-3.09-4.41-3.09c-2.58,0-4.16,1.3-4.16,3.11c0,1.88,1.18,2.6,3.4,2.95l1.36,0.21
		c0.64,0.1,0.85,0.35,0.85,0.7C424.44,597.7,424.05,597.96,423.3,597.96z"/>
	<path d="M436.54,586.81l-5.17,12.99h3.52l0.97-2.51h5.07l0.97,2.51h3.73l-5.17-12.99H436.54z M436.87,594.67l1.48-3.83h0.08
		l1.48,3.83H436.87z"/>
	<polygon points="454.36,595.45 451.15,586.81 447.48,586.81 452.47,599.8 456.16,599.8 461.15,586.81 457.66,586.81 454.45,595.45 
			"/>
	<rect x="462.05" y="590.6" width="3.34" height="9.19"/>
	<rect x="462.03" y="586.81" width="3.38" height="2.93"/>
	<path d="M467.2,590.6v9.19h3.34v-4.21c0-1.55,0.76-2.12,2-2.12c0.64,0,1.13,0.12,1.59,0.39l0.21-3.15
		c-0.23-0.19-0.72-0.35-1.28-0.35c-1.22,0-2.19,0.84-2.52,1.88v-1.63H467.2z"/>
	<path d="M484.77,599.8v-9.19h-3.34v4.51c0,1.4-0.41,2.31-1.46,2.31c-1.01,0-1.36-0.68-1.36-1.92v-4.91h-3.34v5.79
		c0,1.92,0.76,3.65,3.28,3.65c1.38,0,2.39-0.6,2.89-1.63v1.38H484.77z"/>
	<path d="M490.58,597.96c-1.01,0-1.63-0.43-1.75-1.2l-2.91,0.04c0.19,2.23,2.08,3.24,4.62,3.24c2.62,0,4.27-1.11,4.27-3.05
		c0-1.79-1.2-2.72-3.26-3.05l-1.79-0.31c-0.31-0.04-0.56-0.21-0.56-0.51c0-0.41,0.37-0.66,1.01-0.66c1.03,0,1.61,0.41,1.73,1.07
		l2.74-0.08c-0.19-1.92-1.75-3.09-4.41-3.09c-2.58,0-4.16,1.3-4.16,3.11c0,1.88,1.18,2.6,3.4,2.95l1.36,0.21
		c0.64,0.1,0.85,0.35,0.85,0.7C491.71,597.7,491.32,597.96,490.58,597.96z"/>
	<rect x="497.64" y="596.25" width="3.55" height="3.55"/>
	<path d="M504.07,595.2c0,2.87,2.02,4.84,5.03,4.84c2.99,0,5.03-1.98,5.03-4.84c0-2.85-2.04-4.84-5.03-4.84
		C506.09,590.36,504.07,592.36,504.07,595.2z M510.77,595.2c0,1.38-0.52,2.33-1.67,2.33c-1.17,0-1.67-0.95-1.67-2.33
		c0-1.38,0.49-2.33,1.67-2.33C510.26,592.87,510.77,593.82,510.77,595.2z"/>
	<path d="M515.45,590.6v9.19h3.34v-4.21c0-1.55,0.76-2.12,2-2.12c0.64,0,1.13,0.12,1.59,0.39l0.21-3.15
		c-0.23-0.19-0.72-0.35-1.28-0.35c-1.22,0-2.19,0.84-2.52,1.88v-1.63H515.45z"/>
	<path d="M522.6,601.1c0,1.73,2.27,2.25,4.89,2.25c2.99,0,5.77-1.05,5.77-3.34c0-1.55-1.05-2.64-3.13-2.64h-3.81
		c-0.56,0-0.78-0.25-0.78-0.56c0-0.19,0.06-0.33,0.19-0.43c0.6,0.19,1.26,0.27,2,0.27c2.6,0,4.47-1.2,4.47-3.13
		c0-0.43-0.1-0.83-0.29-1.17c0.45-0.1,0.95-0.14,1.34-0.14v-2.52c-1.01,0-2.02,0.66-2.58,1.42c-0.78-0.47-1.83-0.74-2.95-0.74
		c-2.58,0-4.43,1.2-4.43,3.15c0,1.01,0.49,1.79,1.32,2.33c-0.99,0.37-1.57,1.05-1.57,1.94c0,0.78,0.49,1.53,1.32,1.79
		C523.33,599.65,522.6,600.29,522.6,601.1z M527.76,592.19c0.56,0,0.97,0.52,0.97,1.32c0,0.82-0.41,1.34-0.97,1.34
		c-0.56,0-0.97-0.52-0.97-1.34C526.79,592.71,527.2,592.19,527.76,592.19z M525.96,600.21h3.38c0.56,0,0.85,0.14,0.85,0.54
		c0,0.56-1.13,0.87-2.68,0.87c-1.24,0-2.16-0.18-2.16-0.84C525.35,600.42,525.59,600.21,525.96,600.21z"/>
	<path d="M300.03,16.64l-0.43,2.06h1.81l-0.8,3.42h2.49l0.8-3.42h1.77l-0.8,3.42h2.49l0.8-3.42h2.04l0.43-2.06h-1.98l0.49-2.02h1.88
		l0.43-2.06h-1.83l0.82-3.42h-2.49l-0.82,3.42h-1.77l0.83-3.42h-2.49l-0.82,3.42h-2.02l-0.43,2.06h1.98l-0.49,2.02H300.03z
		 M304.89,14.62h1.77l-0.49,2.02h-1.77L304.89,14.62z"/>
	<path d="M320.73,12c2.02,0,2.8,1.34,3.01,2.78l3.36-0.12c-0.25-3.24-2.37-5.77-6.35-5.77c-3.79,0-6.66,2.74-6.66,6.74
		s2.87,6.74,6.66,6.74c3.98,0,6.1-2.51,6.35-5.75l-3.36-0.14c-0.21,1.44-0.99,2.78-3.01,2.78c-1.92,0-3.03-1.42-3.03-3.63
		S318.81,12,320.73,12z"/>
	<path d="M331.11,16.95c-2,0.35-3.28,1.11-3.28,2.89c0,1.57,1.18,2.49,2.97,2.49c1.46,0,2.52-0.56,3.05-1.63
		c0.31,1.05,1.2,1.63,2.33,1.63c0.95,0,1.61-0.27,2.08-0.6v-1.77c-0.27,0.1-0.47,0.14-0.74,0.14c-0.35,0-0.56-0.21-0.56-0.68v-3.13
		c0-2.56-1.79-3.61-4.23-3.61c-2.76,0-4.27,1.4-4.56,3.42l3.09,0.21c0.14-0.68,0.52-1.16,1.26-1.16c0.8,0,1.15,0.45,1.15,1.22v0.14
		L331.11,16.95z M333.69,18.29c0,1.2-0.76,1.9-1.71,1.9c-0.56,0-0.93-0.31-0.93-0.78c0-0.6,0.47-0.84,1.28-1.01l1.36-0.25V18.29z"/>
	<path d="M345.6,12.68c-1.55,0-2.58,0.74-3.03,1.83v-1.59h-3.34v12.49h3.34v-4.87c0.45,1.07,1.48,1.81,3.03,1.81
		c2.7,0,4.08-2.12,4.08-4.84C349.68,14.83,348.3,12.68,345.6,12.68z M344.43,19.79c-1.13,0-1.86-0.87-1.86-2.21v-0.12
		c0-1.32,0.72-2.19,1.86-2.19c1.3,0,1.9,0.93,1.9,2.25C346.32,18.87,345.73,19.79,344.43,19.79z"/>
	<rect x="351" y="12.93" width="3.34" height="9.19"/>
	<rect x="350.98" y="9.14" width="3.38" height="2.93"/>
	<path d="M359.49,22.37c1.26,0,2.06-0.31,2.76-0.83v-2.16c-0.56,0.23-1.01,0.31-1.42,0.31c-0.68,0-1.05-0.31-1.05-1.09v-3.36h2.39
		v-2.31h-2.39v-2.54h-2.1l-0.31,1.2c-0.23,0.85-0.52,1.34-1.44,1.48l-0.68,0.1v2.06h1.24v4.33
		C356.48,21.73,357.95,22.37,359.49,22.37z"/>
	<path d="M366.27,16.95c-2,0.35-3.28,1.11-3.28,2.89c0,1.57,1.18,2.49,2.97,2.49c1.46,0,2.51-0.56,3.05-1.63
		c0.31,1.05,1.2,1.63,2.33,1.63c0.95,0,1.61-0.27,2.08-0.6v-1.77c-0.27,0.1-0.47,0.14-0.74,0.14c-0.35,0-0.56-0.21-0.56-0.68v-3.13
		c0-2.56-1.79-3.61-4.23-3.61c-2.76,0-4.27,1.4-4.56,3.42l3.09,0.21c0.14-0.68,0.52-1.16,1.26-1.16c0.8,0,1.15,0.45,1.15,1.22v0.14
		L366.27,16.95z M368.85,18.29c0,1.2-0.76,1.9-1.71,1.9c-0.56,0-0.93-0.31-0.93-0.78c0-0.6,0.47-0.84,1.28-1.01l1.36-0.25V18.29z"/>
	<rect x="374.39" y="9.14" width="3.34" height="12.99"/>
	<rect x="379.53" y="9.14" width="3.38" height="2.93"/>
	<rect x="379.55" y="12.93" width="3.34" height="9.19"/>
	<path d="M388.7,20.29c-1.01,0-1.63-0.43-1.75-1.2l-2.91,0.04c0.19,2.23,2.08,3.24,4.62,3.24c2.62,0,4.27-1.11,4.27-3.05
		c0-1.79-1.2-2.72-3.26-3.05l-1.79-0.31c-0.31-0.04-0.56-0.21-0.56-0.52c0-0.41,0.37-0.66,1.01-0.66c1.03,0,1.61,0.41,1.73,1.07
		l2.74-0.08c-0.19-1.92-1.75-3.09-4.41-3.09c-2.58,0-4.16,1.3-4.16,3.11c0,1.88,1.18,2.6,3.4,2.95l1.36,0.21
		c0.64,0.1,0.85,0.35,0.85,0.7C389.83,20.02,389.44,20.29,388.7,20.29z"/>
	<path d="M409.68,22.12v-5.77c0-1.92-0.74-3.67-3.28-3.67c-1.55,0-2.64,0.78-3.13,1.81c-0.39-1.07-1.24-1.81-2.87-1.81
		c-1.38,0-2.37,0.62-2.87,1.63v-1.38h-3.34v9.19h3.34v-4.52c0-1.38,0.39-2.29,1.48-2.29c1.01,0,1.26,0.66,1.26,1.92v4.89h3.34v-4.52
		c0-1.38,0.37-2.29,1.48-2.29c1.01,0,1.24,0.66,1.24,1.92v4.89H409.68z"/>
	<rect x="413.27" y="9.14" width="3.5" height="12.99"/>
	<path d="M422.67,20.29c-1.01,0-1.63-0.43-1.75-1.2l-2.91,0.04c0.19,2.23,2.08,3.24,4.62,3.24c2.62,0,4.27-1.11,4.27-3.05
		c0-1.79-1.2-2.72-3.26-3.05l-1.79-0.31c-0.31-0.04-0.56-0.21-0.56-0.52c0-0.41,0.37-0.66,1.01-0.66c1.03,0,1.61,0.41,1.73,1.07
		l2.74-0.08c-0.19-1.92-1.75-3.09-4.41-3.09c-2.58,0-4.16,1.3-4.16,3.11c0,1.88,1.18,2.6,3.4,2.95l1.36,0.21
		c0.64,0.1,0.85,0.35,0.85,0.7C423.8,20.02,423.41,20.29,422.67,20.29z"/>
	<path d="M432.59,22.12l0.97-2.52h5.07l0.97,2.52h3.73l-5.17-12.99h-3.92l-5.17,12.99H432.59z M436.05,13.16h0.08l1.48,3.83h-3.05
		L436.05,13.16z"/>
	<polygon points="458.8,9.14 455.31,9.14 452.1,17.78 452.01,17.78 448.8,9.14 445.13,9.14 450.12,22.12 453.81,22.12 	"/>
	<rect x="459.68" y="9.14" width="3.38" height="2.93"/>
	<rect x="459.7" y="12.93" width="3.34" height="9.19"/>
	<path d="M468.19,14.56v-1.63h-3.34v9.19h3.34v-4.21c0-1.55,0.76-2.12,2-2.12c0.64,0,1.13,0.12,1.59,0.39l0.21-3.15
		c-0.23-0.19-0.72-0.35-1.28-0.35C469.49,12.68,468.52,13.53,468.19,14.56z"/>
	<path d="M472.91,12.93v5.79c0,1.92,0.76,3.65,3.28,3.65c1.38,0,2.39-0.6,2.89-1.63v1.38h3.34v-9.19h-3.34v4.51
		c0,1.4-0.41,2.31-1.46,2.31c-1.01,0-1.36-0.68-1.36-1.92v-4.91H472.91z"/>
	<path d="M488.23,20.29c-1.01,0-1.63-0.43-1.75-1.2l-2.91,0.04c0.19,2.23,2.08,3.24,4.62,3.24c2.62,0,4.27-1.11,4.27-3.05
		c0-1.79-1.2-2.72-3.26-3.05l-1.79-0.31c-0.31-0.04-0.56-0.21-0.56-0.52c0-0.41,0.37-0.66,1.01-0.66c1.03,0,1.61,0.41,1.73,1.07
		l2.74-0.08c-0.19-1.92-1.75-3.09-4.41-3.09c-2.58,0-4.16,1.3-4.16,3.11c0,1.88,1.17,2.6,3.4,2.95l1.36,0.21
		c0.64,0.1,0.85,0.35,0.85,0.7C489.36,20.02,488.97,20.29,488.23,20.29z"/>
</g>
</svg>
