<?xml version="1.0" encoding="utf-8"?>
<!-- Generator: Adobe Illustrator 23.1.1, SVG Export Plug-In . SVG Version: 6.00 Build 0)  -->
<svg version="1.1" xmlns="http://www.w3.org/2000/svg" xmlns:xlink="http://www.w3.org/1999/xlink" x="0px" y="0px"
	 viewBox="0 0 792 612" style="enable-background:new 0 0 792 612;" xml:space="preserve">
<style type="text/css">
	.st0{display:none;}
	.st1{display:inline;}
	
		.st2{display:inline;fill:#FFFFFF;stroke:#000000;stroke-width:16;stroke-linecap:round;stroke-linejoin:round;stroke-miterlimit:10;}
	.st3{fill:#FFFFFF;stroke:#000000;stroke-width:16;stroke-linecap:round;stroke-linejoin:round;stroke-miterlimit:10;}
	.st4{display:inline;fill:none;stroke:#000000;stroke-width:24;stroke-linejoin:round;stroke-miterlimit:10;}
	.st5{display:inline;fill:#FFFFFF;}
	.st6{fill:#FFFFFF;stroke:#000000;stroke-width:17;stroke-linecap:round;stroke-miterlimit:10;}
	.st7{fill:#FFFFFF;stroke:#000000;stroke-width:17;stroke-miterlimit:10;}
	.st8{stroke:#000000;stroke-width:16.0572;stroke-linecap:round;stroke-miterlimit:10;}
	.st9{fill:#FFFFFF;}
	.st10{fill:#FFFFFF;stroke:#000000;stroke-width:17.1072;stroke-linecap:round;stroke-linejoin:round;stroke-miterlimit:10;}
	.st11{stroke:#000000;stroke-width:17.1072;stroke-linecap:round;stroke-linejoin:round;stroke-miterlimit:10;}
	.st12{fill:#FFFFFF;stroke:#000000;stroke-width:14.7375;stroke-linecap:round;stroke-linejoin:round;stroke-miterlimit:10;}
	.st13{fill:none;stroke:#000000;stroke-width:14.7375;stroke-linecap:round;stroke-linejoin:round;stroke-miterlimit:10;}
	.st14{stroke:#000000;stroke-width:14.7375;stroke-linecap:round;stroke-linejoin:round;stroke-miterlimit:10;}
	.st15{fill:#FFFFFF;stroke:#000000;stroke-width:14.2911;stroke-linecap:round;stroke-linejoin:round;stroke-miterlimit:10;}
	.st16{fill:none;stroke:#000000;stroke-width:13.497;stroke-miterlimit:10;}
	.st17{fill:#FFFFFF;stroke:#000000;stroke-width:13.497;stroke-linecap:round;stroke-linejoin:round;stroke-miterlimit:10;}
	.st18{fill:#FFFFFF;stroke:#000000;stroke-width:13.497;stroke-miterlimit:10;}
	.st19{fill:#FFFFFF;stroke:#000000;stroke-width:14.7439;stroke-linecap:round;stroke-miterlimit:10;}
	.st20{fill:#FFFFFF;stroke:#000000;stroke-width:14.7439;stroke-miterlimit:10;}
	.st21{stroke:#000000;stroke-width:13.9262;stroke-linecap:round;stroke-miterlimit:10;}
	
		.st22{display:inline;fill:#FFFFFF;stroke:#000000;stroke-width:14.6942;stroke-linecap:round;stroke-linejoin:round;stroke-miterlimit:10;}
	.st23{fill:#FFFFFF;stroke:#000000;stroke-width:14.6942;stroke-linecap:round;stroke-linejoin:round;stroke-miterlimit:10;}
	.st24{fill:none;stroke:#000000;stroke-width:24;stroke-linejoin:round;stroke-miterlimit:10;}
	.st25{fill:none;stroke:#000000;stroke-width:30.5612;stroke-linecap:round;stroke-linejoin:round;stroke-miterlimit:10;}
	.st26{fill:#FFFFFF;stroke:#000000;stroke-width:16.2993;stroke-linecap:round;stroke-linejoin:round;stroke-miterlimit:10;}
	.st27{display:inline;fill:#FFFFFF;stroke:#000000;stroke-width:13.497;stroke-linecap:round;stroke-miterlimit:10;}
	
		.st28{display:inline;fill:none;stroke:#000000;stroke-width:13.497;stroke-linecap:round;stroke-linejoin:round;stroke-miterlimit:10;}
	
		.st29{display:inline;fill:#FFFFFF;stroke:#000000;stroke-width:13.497;stroke-linecap:round;stroke-linejoin:round;stroke-miterlimit:10;}
	
		.st30{display:inline;fill:url(#);stroke:#000000;stroke-width:13.497;stroke-linecap:round;stroke-linejoin:round;stroke-miterlimit:10;}
	.st31{fill:#FFFFFF;stroke:#000000;stroke-width:15.2362;stroke-linecap:round;stroke-linejoin:round;stroke-miterlimit:10;}
	.st32{fill:#FFFFFF;stroke:#000000;stroke-width:14.8467;stroke-linecap:round;stroke-linejoin:round;stroke-miterlimit:10;}
	.st33{stroke:#000000;stroke-width:20.1683;stroke-linecap:round;stroke-miterlimit:10;}
	.st34{fill:none;stroke:#000000;stroke-width:14.8467;stroke-linecap:round;stroke-linejoin:round;stroke-miterlimit:10;}
	.st35{fill:#FFFFFF;stroke:#FFFFFF;stroke-width:3;stroke-miterlimit:10;}
	.st36{display:inline;fill:none;stroke:#000000;stroke-width:15;stroke-linecap:round;stroke-linejoin:round;stroke-miterlimit:10;}
	
		.st37{display:inline;fill:#FFFFFF;stroke:#000000;stroke-width:15;stroke-linecap:round;stroke-linejoin:round;stroke-miterlimit:10;}
	.st38{fill:#FFFFFF;stroke:#000000;stroke-width:15;stroke-linecap:round;stroke-linejoin:round;stroke-miterlimit:10;}
	.st39{fill:#FFFFFF;stroke:#000000;stroke-width:11.7326;stroke-linecap:round;stroke-linejoin:round;stroke-miterlimit:10;}
	.st40{fill:#FFFFFF;stroke:#000000;stroke-width:13.2623;stroke-linecap:round;stroke-linejoin:round;stroke-miterlimit:10;}
	.st41{fill:none;stroke:#000000;stroke-width:16;stroke-linecap:round;stroke-miterlimit:10;}
	.st42{fill:url(#);stroke:#000000;stroke-width:16;stroke-linecap:round;stroke-linejoin:round;stroke-miterlimit:10;}
	.st43{fill:#FFFFFF;stroke:#000000;stroke-width:16;stroke-linecap:round;stroke-miterlimit:10;}
	.st44{fill:#FFFFFF;stroke:#000000;stroke-width:13.2623;stroke-linecap:round;stroke-miterlimit:10;}
	.st45{stroke:#000000;stroke-width:4.5213;stroke-miterlimit:10;}
	.st46{fill:none;stroke:#000000;stroke-width:15.2344;stroke-linecap:round;stroke-linejoin:round;stroke-miterlimit:10;}
	.st47{fill:#FFFFFF;stroke:#000000;stroke-width:15.2344;stroke-linecap:round;stroke-linejoin:round;stroke-miterlimit:10;}
	.st48{stroke:#000000;stroke-width:18.3348;stroke-linecap:round;stroke-miterlimit:10;}
	.st49{fill:none;stroke:#000000;stroke-width:13.497;stroke-linecap:round;stroke-linejoin:round;stroke-miterlimit:10;}
	.st50{font-family:'FoundersGrotesk-Bold';}
	.st51{font-size:20.6105px;}
	.st52{font-size:10.3052px;}
	.st53{font-size:19.2364px;}
	.st54{font-size:10px;}
	.st55{display:inline;fill:none;stroke:#000000;stroke-width:16;stroke-linecap:round;stroke-linejoin:round;stroke-miterlimit:10;}
	.st56{fill:#FFFFFF;stroke:#000000;stroke-width:13.3058;stroke-linecap:round;stroke-linejoin:round;stroke-miterlimit:10;}
	.st57{fill:#FFFFFF;stroke:#000000;stroke-width:17;stroke-linecap:round;stroke-linejoin:round;stroke-miterlimit:10;}
	.st58{fill:#FFFFFF;stroke:#000000;stroke-width:15.2517;stroke-linecap:round;stroke-linejoin:round;stroke-miterlimit:10;}
	.st59{stroke:#000000;stroke-width:3;stroke-miterlimit:10;}
	.st60{fill:#FFFFFF;stroke:#000000;stroke-width:16.0686;stroke-linecap:round;stroke-linejoin:round;stroke-miterlimit:10;}
	.st61{fill:#FFFFFF;stroke:#000000;stroke-width:15;stroke-linejoin:round;stroke-miterlimit:10;}
	.st62{fill:url(#);stroke:#000000;stroke-width:13.497;stroke-linecap:round;stroke-linejoin:round;stroke-miterlimit:10;}
	.st63{fill:#06A6FF;}
	.st64{fill:#FF0303;}
	.st65{fill:#3DFF06;}
	.st66{fill:#FFF808;}
	.st67{fill:none;stroke:#000000;stroke-width:0;stroke-linecap:round;stroke-linejoin:round;}
</style>
<g id="unexpanded" class="st0">
	<g class="st1">
		<polygon class="st9" points="300.94,518.18 28.94,553.18 28.94,410.18 288.94,421.18 		"/>
		<g>
			<g>
				<g>
					<path class="st31" d="M375.1,437.85l28.9-18.3c4.61-4.2,10.66-6.87,17.39-6.8c9.99,0.1,19.05,4.88,23.42,16.48l14.05-10.47
						c4.35-3.27,9.52-5.53,15.38-5.47c10.13,0.1,20.1,6.18,23.84,16.81l11.34-8.84c4.68-4.64,11.13-7.49,18.24-7.42
						c14.12,0.14,25.46,11.71,25.31,25.83c-0.07,7.07-3.01,13.44-7.69,18.02h0c0,0-102.59,89.41-120.16,104.64
						c-20.36,17.65-53.74,12.29-76.06,3.87c-22.32-8.43-102.27-38.62-102.27-38.62s-141.3,19.52-227.9,22.21"/>
					<path class="st31" d="M18.9,409.72l211.65,9.63c0,0,20.47-19.52,55.7-19.16s91.91,42.96,115.35,58.4
						c33.31,21.94,7.26,68.28-31.74,46.85l-54.44-30.68"/>
				</g>
				<line class="st31" x1="420.08" y1="489.83" x2="498.08" y2="430.09"/>
				<line class="st31" x1="401.6" y1="458.59" x2="444.81" y2="429.23"/>
			</g>
		</g>
	</g>
	<g class="st1">
		<polygon class="st9" points="488.94,86.03 760.94,51.03 760.94,194.03 500.94,183.03 		"/>
		<g>
			<g>
				<g>
					<path class="st31" d="M414.78,166.36l-28.9,18.3c-4.61,4.2-10.66,6.87-17.39,6.8c-9.99-0.1-19.05-4.88-23.42-16.48
						l-14.05,10.47c-4.35,3.27-9.52,5.53-15.38,5.47c-10.13-0.1-20.1-6.18-23.84-16.81l-11.34,8.84
						c-4.68,4.64-11.13,7.49-18.24,7.42c-14.12-0.14-25.46-11.71-25.31-25.83c0.07-7.07,3.01-13.44,7.69-18.02l0,0
						c0,0,102.59-89.41,120.16-104.64c20.36-17.65,53.74-12.29,76.06-3.87c22.32,8.43,102.27,38.62,102.27,38.62
						s141.3-19.52,227.9-22.21"/>
					<path class="st31" d="M770.98,194.5l-211.65-9.63c0,0-20.47,19.52-55.7,19.16s-91.91-42.96-115.35-58.4
						c-33.31-21.94-7.26-68.28,31.74-46.85l54.44,30.68"/>
				</g>
				<line class="st31" x1="369.8" y1="114.38" x2="291.79" y2="174.12"/>
				<line class="st31" x1="388.28" y1="145.63" x2="345.06" y2="174.98"/>
			</g>
		</g>
	</g>
	<path class="st1" d="M260.85,335.17l147.55-0.24c11.14,20.04,32.52,33.59,57.07,33.55c35.98-0.06,65.1-29.27,65.05-65.26
		c-0.06-35.98-29.27-65.1-65.26-65.05c-24.16,0.04-45.19,13.26-56.4,32.82l-10.46,0.02l-16.49,16.54l-17.16-16.49l-14.28,0.02
		l-16.49,16.54l-17.16-16.49l-11.72,0.02l-16.49,16.54l-17.16-16.49l-10.71,0.02l-29.92,32.01L260.85,335.17z"/>
	<g class="st1">
		<polygon class="st35" points="499.02,297.37 466.47,274.18 454.31,282.9 454.31,276.35 442.65,276.35 442.65,291.25 
			433.87,297.72 437.83,303.25 442.05,300.04 442.17,326.59 491.21,326.38 491.09,299.82 495.1,302.93 		"/>
		<rect x="460.05" y="307.71" width="14.24" height="24.29"/>
	</g>
	<text transform="matrix(8.979319e-11 -1 1 8.979319e-11 26.8613 310.2977)" class="st1"><tspan x="0" y="0" class="st50 st51">www</tspan><tspan x="45.14" y="0" class="st50 st52"> </tspan><tspan x="46.99" y="0" class="st50 st51">.</tspan><tspan x="51.77" y="0" class="st50 st52"> </tspan><tspan x="53.63" y="0" class="st50 st51">Capitalism</tspan><tspan x="150.43" y="0" class="st50 st53"> </tspan><tspan x="153.9" y="0" class="st50 st51">Is</tspan><tspan x="168.88" y="0" class="st50 st53"> </tspan><tspan x="172.34" y="0" class="st50 st51">A</tspan><tspan x="186.6" y="0" class="st50 st52"> </tspan><tspan x="188.46" y="0" class="st50 st51">Virus</tspan><tspan x="236.15" y="0" class="st50 st52"> </tspan><tspan x="238.01" y="0" class="st50 st51">.</tspan><tspan x="242.79" y="0" class="st50 st52"> </tspan><tspan x="244.64" y="0" class="st50 st51">org</tspan></text>
	<text transform="matrix(0 1 -1 0 761.9287 384.8604)" class="st1"><tspan x="0" y="0" class="st50 st51">#</tspan><tspan x="12.7" y="0" class="st50 st54"> </tspan><tspan x="14.5" y="0" class="st50 st51">Capitalism</tspan><tspan x="111.3" y="0" class="st50 st54"> </tspan><tspan x="113.1" y="0" class="st50 st51">Is</tspan><tspan x="128.09" y="0" class="st50 st54"> </tspan><tspan x="129.89" y="0" class="st50 st51">A</tspan><tspan x="144.15" y="0" class="st50 st54"> </tspan><tspan x="145.95" y="0" class="st50 st51">Virus</tspan></text>
</g>
<g id="expanded">
	<path d="M235.78,424.88c0.19-0.17,18.91-17.41,50.39-17.08c28.05,0.29,74.63,32.17,99.66,49.3c4.39,3.01,8.19,5.61,11.46,7.76
		c0.01,0.01,0.03,0.02,0.04,0.03c0.03,0.02,0.06,0.04,0.08,0.05c13.17,8.67,14.05,20.87,9.09,29.1c-7.14,11.84-21.7,10.9-32.9,4.75
		l-54.44-30.68c-3.66-2.07-8.31-0.77-10.38,2.9c-2.07,3.67-0.77,8.31,2.9,10.38l54.52,30.72c8.29,4.56,16.12,6.49,23.18,6.49
		c13.69,0,24.49-7.25,30.17-16.68c0.92-1.52,1.71-3.1,2.37-4.72c0.98-0.24,1.94-0.67,2.79-1.32l78-59.74
		c0.01-0.01,0.02-0.02,0.03-0.03c0.01-0.01,0.01-0.01,0.02-0.01l11.34-8.84c0.24-0.19,0.46-0.38,0.68-0.6
		c3.44-3.41,7.99-5.27,12.8-5.22c4.8,0.05,9.29,1.96,12.64,5.39c3.36,3.43,5.18,7.95,5.13,12.75c-0.05,4.73-1.91,9.17-5.25,12.51
		c-4.87,4.25-102.95,89.72-119.97,104.47c-16.78,14.54-46.32,10.83-68.38,2.5l-102.27-38.62c-1.19-0.45-2.47-0.59-3.73-0.42
		c-1.35,0.19-131.08,18.01-216.81,21.75c-3.5,0.15-6.94,0.28-10.28,0.39c-4.21,0.13-7.51,3.64-7.38,7.85
		c0.13,4.21,3.61,7.52,7.85,7.38c80.52-2.5,209.49-19.67,226.77-22.01l100.47,37.94c7.2,2.72,24.34,8.34,42.84,8.34
		c14.11,0,29.01-3.27,40.9-13.57c9.12-7.91,41.3-35.93,66.69-58.04l52.33-45.6c0.42-0.37,0.93-0.81,1.44-1.34l0.04,0.04
		c6.34-6.21,9.89-14.51,9.98-23.39c0.09-8.87-3.28-17.23-9.48-23.57c-6.21-6.33-14.5-9.87-23.37-9.96
		c-8.74-0.14-17.01,3.21-23.33,9.29l-4,3.12c-6.08-7.9-15.66-12.85-26.09-12.95c-7.03-0.06-13.77,2.29-20.01,6.98l-7.01,5.23
		c-5.93-8.09-14.96-12.64-25.83-12.75c-8.03-0.09-15.85,2.87-22.07,8.32l-26.35,16.69c-27.2-17.77-61.34-37.31-86.72-37.57
		c-0.35,0-0.69-0.01-1.04-0.01c-30.37,0-50.49,13.56-57.38,19.04l-208.66-9.49c-4.21-0.18-7.77,3.06-7.96,7.26s3.06,7.77,7.26,7.96
		l10.39,0.47l201.26,9.16C232.26,427.04,234.28,426.29,235.78,424.88z M449.09,435.53c0.05-0.04,0.1-0.08,0.15-0.11
		c0.04-0.03,0.08-0.05,0.12-0.08l14.08-10.5c3.47-2.61,7.03-3.94,10.57-3.94c0.05,0,0.1,0,0.14,0c4.9,0.05,10.59,2.28,14.2,7.03
		l-64.57,49.45c-0.08-0.38-0.15-0.77-0.24-1.15c-1.49-6.3-4.68-12.05-9.35-17L449.09,435.53z M408.08,425.99
		c0.38-0.24,0.73-0.51,1.06-0.81c3.46-3.15,7.81-4.85,12.18-4.81c5.92,0.06,10.47,2.21,13.59,6.38l-33.34,22.65
		c-2.17-1.47-4.54-3.09-7.13-4.87c-2.38-1.63-4.9-3.35-7.53-5.14L408.08,425.99z"/>
	<path d="M554.1,179.33c-0.19,0.17-18.98,17.38-50.39,17.08c-28.05-0.29-74.63-32.17-99.65-49.3c-4.45-3.05-8.29-5.68-11.58-7.85
		c-0.01-0.01-0.03-0.02-0.04-0.03c-0.01,0-0.01-0.01-0.02-0.01c-13.12-8.67-13.99-20.84-9.04-29.07c7.14-11.84,21.7-10.9,32.9-4.75
		l54.45,30.68c3.67,2.07,8.31,0.77,10.38-2.9c2.07-3.67,0.77-8.31-2.9-10.38L423.68,92.1c-24.36-13.39-44.74-4.1-53.35,10.2
		c-0.91,1.52-1.7,3.09-2.36,4.69c-0.99,0.24-1.94,0.69-2.8,1.34l-78,59.74c-0.01,0.01-0.02,0.02-0.03,0.02
		c-0.01,0.01-0.02,0.01-0.03,0.02l-11.34,8.84c-0.24,0.18-0.46,0.38-0.68,0.6c-3.45,3.41-8.03,5.25-12.8,5.22
		c-4.79-0.05-9.29-1.96-12.64-5.39s-5.18-7.95-5.13-12.75c0.05-4.73,1.91-9.17,5.25-12.51c4.87-4.25,102.95-89.72,119.97-104.47
		c16.78-14.54,46.32-10.82,68.38-2.5l102.27,38.62c1.19,0.45,2.47,0.59,3.73,0.42c1.35-0.19,131.08-18.01,216.81-21.75
		c3.5-0.15,6.94-0.28,10.28-0.39c4.21-0.13,7.51-3.65,7.38-7.85c-0.13-4.21-3.6-7.49-7.85-7.38
		c-80.52,2.5-209.49,19.67-226.77,22.01L443.5,30.9c-12.7-4.79-56.26-18.59-83.74,5.24c-9.12,7.91-41.3,35.93-66.69,58.04
		l-52.33,45.6c-0.42,0.37-0.93,0.81-1.44,1.34l-0.04-0.04c-6.34,6.21-9.89,14.51-9.98,23.39c-0.09,8.87,3.28,17.23,9.48,23.57
		c6.21,6.33,14.51,9.87,23.37,9.96c0.12,0,0.23,0,0.34,0c8.62,0,16.75-3.29,22.99-9.29l4-3.12c6.08,7.9,15.66,12.84,26.09,12.95
		c7.01,0.09,13.77-2.29,20.01-6.98l7.01-5.23c5.93,8.09,14.96,12.64,25.83,12.75c0.11,0,0.22,0,0.33,0c7.92,0,15.6-2.94,21.75-8.32
		l26.35-16.69c27.2,17.77,61.34,37.31,86.72,37.57c0.35,0,0.69,0.01,1.04,0.01c30.37,0,50.49-13.55,57.38-19.04l208.66,9.49
		c4.22,0.19,7.77-3.06,7.96-7.26c0.19-4.2-3.06-7.77-7.26-7.96l-10.39-0.47l-201.26-9.16C557.61,177.17,555.59,177.93,554.1,179.33z
		 M340.78,168.68c-0.05,0.04-0.1,0.08-0.15,0.11c-0.04,0.03-0.08,0.05-0.12,0.08l-14.08,10.5c-3.47,2.61-7.03,3.94-10.57,3.94
		c-0.05,0-0.1,0-0.14,0c-4.9-0.05-10.59-2.28-14.2-7.03l64.57-49.45c0.08,0.38,0.15,0.77,0.24,1.15c1.49,6.3,4.68,12.05,9.35,17
		L340.78,168.68z M381.8,178.23c-0.38,0.24-0.73,0.51-1.06,0.81c-3.46,3.15-7.79,4.88-12.18,4.81c-5.92-0.06-10.47-2.21-13.59-6.38
		l33.34-22.65c2.17,1.47,4.55,3.09,7.14,4.87c2.38,1.63,4.9,3.35,7.53,5.14L381.8,178.23z"/>
	<path d="M465.47,368.48c35.98-0.06,65.1-29.27,65.05-65.26c-0.06-35.98-29.27-65.1-65.26-65.05c-24.16,0.04-45.19,13.26-56.4,32.82
		l-10.46,0.02l-16.49,16.54l-17.16-16.49l-14.28,0.02l-16.49,16.54l-17.16-16.49l-11.72,0.02l-16.49,16.54l-17.16-16.49l-10.71,0.02
		l-29.92,32.01l30.03,31.92l147.55-0.24C419.54,354.97,440.93,368.52,465.47,368.48z M441.15,290.49v-15.64h14.65v5.13l10.66-7.64
		l34.64,24.67l-5.67,8.06l-2.83-2.18l0.11,24.99l-18.42,0.08v-20.24h-14.24v20.3l-19.37,0.08l-0.11-25.04l-3.06,2.32l-5.72-7.98
		L441.15,290.49z"/>
	<polygon points="26.86,271.25 26.86,267.97 17.67,265.07 17.67,268.08 22.88,269.72 22.88,269.81 17.67,271.15 17.67,273.81 
		22.88,275.15 22.88,275.23 17.67,276.88 17.67,280.11 17.67,280.2 17.67,283.12 22.88,284.77 22.88,284.85 17.67,286.19 
		17.67,288.85 22.88,290.19 22.88,290.27 17.67,291.92 17.67,295.16 17.67,295.24 17.67,298.17 22.88,299.82 22.88,299.9 
		17.67,301.24 17.67,303.9 22.88,305.24 22.88,305.32 17.67,306.97 17.67,310.29 26.86,307.38 26.86,304.1 21.67,302.76 
		21.67,302.68 26.86,301.34 26.86,298.06 17.8,295.2 26.86,292.34 26.86,289.06 21.67,287.72 21.67,287.64 26.86,286.3 
		26.86,283.02 17.8,280.15 26.86,277.29 26.86,274.01 21.67,272.67 21.67,272.59 	"/>
	<rect x="23.32" y="259.09" width="3.55" height="3.55"/>
	<path d="M21.36,243.2l-0.14,3.36c1.44,0.21,2.78,0.99,2.78,3.01c0,1.92-1.42,3.03-3.63,3.03c-2.21,0-3.63-1.11-3.63-3.03
		c0-2.02,1.34-2.8,2.78-3.01l-0.12-3.36c-3.24,0.25-5.77,2.37-5.77,6.35c0,3.79,2.74,6.66,6.74,6.66c4,0,6.74-2.87,6.74-6.66
		C27.11,245.57,24.59,243.45,21.36,243.2z"/>
	<path d="M24.16,233.33h-3.13c-2.56,0-3.61,1.79-3.61,4.23c0,2.76,1.4,4.27,3.42,4.56l0.21-3.09c-0.68-0.14-1.15-0.52-1.15-1.26
		c0-0.8,0.45-1.15,1.22-1.15h0.14l0.43,2.58c0.35,2,1.11,3.28,2.89,3.28c1.57,0,2.49-1.17,2.49-2.97c0-1.46-0.56-2.52-1.63-3.05
		c1.05-0.31,1.63-1.2,1.63-2.33c0-0.95-0.27-1.61-0.6-2.08H24.7c0.1,0.27,0.14,0.47,0.14,0.74
		C24.84,233.12,24.63,233.33,24.16,233.33z M24.92,238.32c0,0.56-0.31,0.93-0.78,0.93c-0.6,0-0.85-0.47-1.01-1.28l-0.25-1.36h0.14
		C24.22,236.6,24.92,237.37,24.92,238.32z"/>
	<path d="M30.16,227.72h-4.87c1.07-0.45,1.81-1.48,1.81-3.03c0-2.7-2.12-4.08-4.84-4.08c-2.7,0-4.84,1.38-4.84,4.08
		c0,1.55,0.74,2.58,1.83,3.03h-1.59v3.34h12.49V227.72z M22.33,227.72H22.2c-1.32,0-2.18-0.72-2.18-1.86c0-1.3,0.93-1.9,2.25-1.9
		c1.34,0,2.27,0.6,2.27,1.9C24.53,227,23.67,227.72,22.33,227.72z"/>
	<rect x="17.67" y="215.95" width="9.19" height="3.34"/>
	<rect x="13.87" y="215.93" width="2.93" height="3.38"/>
	<path d="M26.28,208.04h-2.17c0.23,0.56,0.31,1.01,0.31,1.42c0,0.68-0.31,1.05-1.09,1.05h-3.36v-2.39h-2.31v2.39h-2.54v2.1l1.2,0.31
		c0.84,0.23,1.34,0.52,1.48,1.44l0.1,0.68h2.06v-1.24h4.33c2.17,0,2.8-1.46,2.8-3.01C27.11,209.54,26.8,208.74,26.28,208.04z"/>
	<path d="M24.16,198.17h-3.13c-2.56,0-3.61,1.79-3.61,4.23c0,2.76,1.4,4.27,3.42,4.56l0.21-3.09c-0.68-0.14-1.15-0.52-1.15-1.26
		c0-0.8,0.45-1.15,1.22-1.15h0.14l0.43,2.58c0.35,2,1.11,3.28,2.89,3.28c1.57,0,2.49-1.17,2.49-2.97c0-1.46-0.56-2.52-1.63-3.05
		c1.05-0.31,1.63-1.2,1.63-2.33c0-0.95-0.27-1.61-0.6-2.08H24.7c0.1,0.27,0.14,0.47,0.14,0.74
		C24.84,197.96,24.63,198.17,24.16,198.17z M24.92,203.15c0,0.56-0.31,0.93-0.78,0.93c-0.6,0-0.85-0.47-1.01-1.28l-0.25-1.36h0.14
		C24.22,201.44,24.92,202.21,24.92,203.15z"/>
	<rect x="13.87" y="192.56" width="12.99" height="3.34"/>
	<rect x="17.67" y="187.41" width="9.19" height="3.34"/>
	<rect x="13.87" y="187.39" width="2.93" height="3.38"/>
	<path d="M24.06,177.37c-1.79,0-2.72,1.2-3.05,3.26l-0.31,1.79c-0.04,0.31-0.21,0.56-0.52,0.56c-0.41,0-0.66-0.37-0.66-1.01
		c0-1.03,0.41-1.61,1.07-1.73l-0.08-2.74c-1.92,0.19-3.09,1.75-3.09,4.41c0,2.58,1.3,4.16,3.11,4.16c1.88,0,2.6-1.17,2.95-3.4
		l0.21-1.36c0.1-0.64,0.35-0.85,0.7-0.85c0.37,0,0.64,0.39,0.64,1.13c0,1.01-0.43,1.63-1.2,1.75l0.04,2.91
		c2.23-0.19,3.24-2.08,3.24-4.62C27.11,179.02,26,177.37,24.06,177.37z"/>
	<path d="M17.42,169.89c0,1.38,0.62,2.37,1.63,2.87h-1.38v3.34h9.19v-3.34h-4.51c-1.38,0-2.29-0.39-2.29-1.48
		c0-1.01,0.66-1.26,1.92-1.26h4.89v-3.34h-4.51c-1.38,0-2.29-0.37-2.29-1.48c0-1.01,0.66-1.24,1.92-1.24h4.89v-3.34h-5.77
		c-1.92,0-3.67,0.74-3.67,3.28c0,1.55,0.78,2.64,1.81,3.13C18.16,167.42,17.42,168.26,17.42,169.89z"/>
	<rect x="13.87" y="151.86" width="12.99" height="3.5"/>
	<path d="M23.83,147.71l0.04,2.91c2.23-0.19,3.24-2.08,3.24-4.62c0-2.62-1.11-4.27-3.05-4.27c-1.79,0-2.72,1.2-3.05,3.26l-0.31,1.79
		c-0.04,0.31-0.21,0.56-0.52,0.56c-0.41,0-0.66-0.37-0.66-1.01c0-1.03,0.41-1.61,1.07-1.73l-0.08-2.74
		c-1.92,0.19-3.09,1.75-3.09,4.41c0,2.58,1.3,4.16,3.11,4.16c1.88,0,2.6-1.18,2.95-3.4l0.21-1.36c0.1-0.64,0.35-0.85,0.7-0.85
		c0.37,0,0.64,0.39,0.64,1.13C25.03,146.97,24.59,147.59,23.83,147.71z"/>
	<path d="M13.87,132.73l12.99,5.17v-3.52l-2.51-0.97v-5.07l2.51-0.97v-3.73l-12.99,5.17V132.73z M17.89,130.83l3.83-1.48v3.05
		l-3.83-1.48V130.83z"/>
	<polygon points="13.87,118.12 13.87,121.79 26.86,116.8 26.86,113.11 13.87,108.12 13.87,111.6 22.51,114.82 22.51,114.9 	"/>
	<rect x="17.67" y="103.88" width="9.19" height="3.34"/>
	<rect x="13.87" y="103.85" width="2.93" height="3.38"/>
	<path d="M19.3,98.72h-1.63v3.34h9.19v-3.34h-4.21c-1.55,0-2.12-0.76-2.12-2c0-0.64,0.12-1.13,0.39-1.59l-3.15-0.21
		c-0.19,0.23-0.35,0.72-0.35,1.28C17.42,97.42,18.27,98.39,19.3,98.72z"/>
	<path d="M22.57,90.66h-4.91V94h5.79c1.92,0,3.65-0.76,3.65-3.28c0-1.38-0.6-2.39-1.63-2.89h1.38V84.5h-9.19v3.34h4.51
		c1.4,0,2.31,0.41,2.31,1.46C24.49,90.31,23.81,90.66,22.57,90.66z"/>
	<path d="M20.53,83.16c1.88,0,2.6-1.18,2.95-3.4l0.21-1.36c0.1-0.64,0.35-0.85,0.7-0.85c0.37,0,0.64,0.39,0.64,1.13
		c0,1.01-0.43,1.63-1.2,1.75l0.04,2.91c2.23-0.19,3.24-2.08,3.24-4.62c0-2.62-1.11-4.27-3.05-4.27c-1.79,0-2.72,1.2-3.05,3.26
		l-0.31,1.79c-0.04,0.31-0.21,0.56-0.52,0.56c-0.41,0-0.66-0.37-0.66-1.01c0-1.03,0.41-1.61,1.07-1.73l-0.08-2.74
		c-1.92,0.19-3.09,1.75-3.09,4.41C17.42,81.58,18.72,83.16,20.53,83.16z"/>
	<rect x="23.32" y="68.08" width="3.55" height="3.55"/>
	<path d="M22.26,65.19c2.87,0,4.84-2.02,4.84-5.03c0-2.99-1.98-5.03-4.84-5.03c-2.84,0-4.84,2.04-4.84,5.03
		C17.42,63.17,19.42,65.19,22.26,65.19z M22.26,58.49c1.38,0,2.33,0.52,2.33,1.67c0,1.17-0.95,1.67-2.33,1.67
		c-1.38,0-2.33-0.49-2.33-1.67C19.93,59.01,20.88,58.49,22.26,58.49z"/>
	<path d="M17.77,46.68c-0.19,0.23-0.35,0.72-0.35,1.28c0,1.22,0.85,2.19,1.88,2.52h-1.63v3.34h9.19v-3.34h-4.21
		c-1.55,0-2.12-0.76-2.12-2c0-0.64,0.12-1.13,0.39-1.59L17.77,46.68z"/>
	<path d="M27.07,36c-1.55,0-2.64,1.05-2.64,3.13v3.81c0,0.56-0.25,0.78-0.56,0.78c-0.19,0-0.33-0.06-0.43-0.19
		c0.19-0.6,0.27-1.26,0.27-2c0-2.6-1.2-4.47-3.13-4.47c-0.43,0-0.83,0.1-1.18,0.29c-0.1-0.45-0.14-0.95-0.14-1.34h-2.52
		c0,1.01,0.66,2.02,1.42,2.58c-0.47,0.78-0.74,1.83-0.74,2.95c0,2.58,1.2,4.43,3.15,4.43c1.01,0,1.79-0.49,2.33-1.32
		c0.37,0.99,1.05,1.57,1.94,1.57c0.78,0,1.53-0.49,1.79-1.32c0.08,1.03,0.72,1.75,1.53,1.75c1.73,0,2.25-2.27,2.25-4.89
		C30.41,38.79,29.36,36,27.07,36z M20.57,42.48c-0.8,0-1.32-0.41-1.32-0.97c0-0.56,0.51-0.97,1.32-0.97c0.82,0,1.34,0.41,1.34,0.97
		C21.91,42.06,21.4,42.48,20.57,42.48z M27.83,43.92c-0.35,0-0.56-0.25-0.56-0.62v-3.38c0-0.56,0.14-0.85,0.54-0.85
		c0.56,0,0.87,1.13,0.87,2.68C28.68,42.99,28.49,43.92,27.83,43.92z"/>
	<path d="M761.93,390.55v2.49l3.42,0.8v2.04l2.06,0.43v-1.98l2.02,0.5v1.88l2.06,0.43v-1.83l3.42,0.82v-2.49l-3.42-0.82v-1.77
		l3.42,0.82v-2.49l-3.42-0.82v-2.02l-2.06-0.43v1.98l-2.02-0.49v-1.88l-2.06-0.43v1.81l-3.42-0.8v2.49l3.42,0.8v1.77L761.93,390.55z
		 M767.41,390.08l2.02,0.49v1.77l-2.02-0.5V390.08z"/>
	<path d="M768.42,399.77c-4,0-6.74,2.87-6.74,6.66c0,3.98,2.51,6.1,5.75,6.35l0.14-3.36c-1.44-0.21-2.78-0.99-2.78-3.01
		c0-1.92,1.42-3.03,3.63-3.03c2.21,0,3.63,1.11,3.63,3.03c0,2.02-1.34,2.8-2.78,3.01l0.12,3.36c3.24-0.25,5.77-2.37,5.77-6.35
		C775.16,402.63,772.42,399.77,768.42,399.77z"/>
	<path d="M761.72,421.86c0,0.95,0.27,1.61,0.6,2.08h1.77c-0.1-0.27-0.14-0.47-0.14-0.74c0-0.35,0.21-0.56,0.68-0.56h3.13
		c2.56,0,3.61-1.79,3.61-4.23c0-2.76-1.4-4.27-3.42-4.56l-0.21,3.09c0.68,0.14,1.15,0.52,1.15,1.26c0,0.8-0.45,1.15-1.22,1.15h-0.14
		l-0.43-2.58c-0.35-2-1.11-3.28-2.89-3.28c-1.57,0-2.49,1.17-2.49,2.97c0,1.46,0.56,2.51,1.63,3.05
		C762.3,419.84,761.72,420.73,761.72,421.86z M764.65,416.73c0.6,0,0.84,0.47,1.01,1.28l0.25,1.36h-0.14c-1.2,0-1.9-0.76-1.9-1.71
		C763.87,417.1,764.18,416.73,764.65,416.73z"/>
	<path d="M758.63,428.25h4.86c-1.07,0.45-1.81,1.48-1.81,3.03c0,2.7,2.12,4.08,4.84,4.08c2.7,0,4.84-1.38,4.84-4.08
		c0-1.55-0.74-2.58-1.83-3.03h1.59v-3.34h-12.49V428.25z M766.46,428.25h0.12c1.32,0,2.18,0.72,2.18,1.85c0,1.3-0.93,1.9-2.25,1.9
		c-1.34,0-2.27-0.6-2.27-1.9C764.26,428.97,765.12,428.25,766.46,428.25z"/>
	<rect x="771.99" y="436.66" width="2.93" height="3.38"/>
	<rect x="761.93" y="436.68" width="9.19" height="3.34"/>
	<path d="M770.98,441.61l-0.1-0.68h-2.06v1.24h-4.33c-2.16,0-2.8,1.46-2.8,3.01c0,1.26,0.31,2.06,0.82,2.76h2.16
		c-0.23-0.56-0.31-1.01-0.31-1.42c0-0.68,0.31-1.05,1.09-1.05h3.36v2.39h2.31v-2.39h2.54v-2.1l-1.2-0.31
		C771.62,442.82,771.12,442.54,770.98,441.61z"/>
	<path d="M761.72,457.03c0,0.95,0.27,1.61,0.6,2.08h1.77c-0.1-0.27-0.14-0.47-0.14-0.74c0-0.35,0.21-0.56,0.68-0.56h3.13
		c2.56,0,3.61-1.79,3.61-4.23c0-2.76-1.4-4.27-3.42-4.56l-0.21,3.09c0.68,0.14,1.15,0.52,1.15,1.26c0,0.8-0.45,1.15-1.22,1.15h-0.14
		l-0.43-2.58c-0.35-2-1.11-3.28-2.89-3.28c-1.57,0-2.49,1.17-2.49,2.97c0,1.46,0.56,2.52,1.63,3.05
		C762.3,455,761.72,455.89,761.72,457.03z M764.65,451.89c0.6,0,0.84,0.47,1.01,1.28l0.25,1.36h-0.14c-1.2,0-1.9-0.76-1.9-1.71
		C763.87,452.26,764.18,451.89,764.65,451.89z"/>
	<rect x="761.93" y="460.07" width="12.99" height="3.34"/>
	<rect x="771.99" y="465.21" width="2.93" height="3.38"/>
	<rect x="761.93" y="465.23" width="9.19" height="3.34"/>
	<path d="M764.73,478.6c1.79,0,2.72-1.2,3.05-3.26l0.31-1.79c0.04-0.31,0.21-0.56,0.51-0.56c0.41,0,0.66,0.37,0.66,1.01
		c0,1.03-0.41,1.61-1.07,1.73l0.08,2.74c1.92-0.19,3.09-1.75,3.09-4.41c0-2.58-1.3-4.16-3.11-4.16c-1.88,0-2.6,1.17-2.95,3.4
		l-0.21,1.36c-0.1,0.64-0.35,0.85-0.7,0.85c-0.37,0-0.64-0.39-0.64-1.13c0-1.01,0.43-1.63,1.2-1.75l-0.04-2.91
		c-2.23,0.19-3.24,2.08-3.24,4.62C761.68,476.96,762.79,478.6,764.73,478.6z"/>
	<path d="M771.37,486.09c0-1.38-0.62-2.37-1.63-2.87h1.38v-3.34h-9.19v3.34h4.51c1.38,0,2.29,0.39,2.29,1.48
		c0,1.01-0.66,1.26-1.92,1.26h-4.89v3.34h4.51c1.38,0,2.29,0.37,2.29,1.48c0,1.01-0.66,1.24-1.92,1.24h-4.89v3.34h5.77
		c1.92,0,3.67-0.74,3.67-3.28c0-1.55-0.78-2.64-1.81-3.13C770.63,488.56,771.37,487.71,771.37,486.09z"/>
	<rect x="761.93" y="498.95" width="12.99" height="3.5"/>
	<path d="M764.96,506.6l-0.04-2.91c-2.23,0.19-3.24,2.08-3.24,4.62c0,2.62,1.11,4.27,3.05,4.27c1.79,0,2.72-1.2,3.05-3.26l0.31-1.79
		c0.04-0.31,0.21-0.56,0.51-0.56c0.41,0,0.66,0.37,0.66,1.01c0,1.03-0.41,1.61-1.07,1.73l0.08,2.74c1.92-0.19,3.09-1.75,3.09-4.41
		c0-2.58-1.3-4.16-3.11-4.16c-1.88,0-2.6,1.17-2.95,3.4l-0.21,1.36c-0.1,0.64-0.35,0.85-0.7,0.85c-0.37,0-0.64-0.39-0.64-1.13
		C763.76,507.34,764.2,506.72,764.96,506.6z"/>
	<path d="M774.92,519.92l-12.99-5.17v3.53l2.51,0.97v5.07l-2.51,0.97v3.73l12.99-5.17V519.92z M770.9,521.82l-3.83,1.48v-3.05
		l3.83,1.48V521.82z"/>
	<polygon points="774.92,534.48 774.92,530.81 761.93,535.8 761.93,539.49 774.92,544.48 774.92,540.99 766.28,537.78 
		766.28,537.69 	"/>
	<rect x="761.93" y="545.38" width="9.19" height="3.34"/>
	<rect x="771.99" y="545.36" width="2.93" height="3.38"/>
	<path d="M769.49,553.87h1.63v-3.34h-9.19v3.34h4.21c1.55,0,2.12,0.76,2.12,2c0,0.64-0.12,1.13-0.39,1.59l3.15,0.21
		c0.19-0.23,0.35-0.72,0.35-1.28C771.37,555.17,770.53,554.2,769.49,553.87z"/>
	<path d="M766.22,561.93h4.91v-3.34h-5.79c-1.92,0-3.65,0.76-3.65,3.28c0,1.38,0.6,2.39,1.63,2.89h-1.38v3.34h9.19v-3.34h-4.51
		c-1.4,0-2.31-0.41-2.31-1.46C764.3,562.28,764.98,561.93,766.22,561.93z"/>
	<path d="M768.26,569.43c-1.88,0-2.6,1.18-2.95,3.4l-0.21,1.36c-0.1,0.64-0.35,0.85-0.7,0.85c-0.37,0-0.64-0.39-0.64-1.13
		c0-1.01,0.43-1.63,1.2-1.75l-0.04-2.91c-2.23,0.19-3.24,2.08-3.24,4.62c0,2.62,1.11,4.27,3.05,4.27c1.79,0,2.72-1.2,3.05-3.26
		l0.31-1.79c0.04-0.31,0.21-0.56,0.51-0.56c0.41,0,0.66,0.37,0.66,1.01c0,1.03-0.41,1.61-1.07,1.73l0.08,2.74
		c1.92-0.19,3.09-1.75,3.09-4.41C771.37,571.02,770.07,569.43,768.26,569.43z"/>
</g>
</svg>
