<?xml version="1.0" encoding="utf-8"?>
<!-- Generator: Adobe Illustrator 23.1.1, SVG Export Plug-In . SVG Version: 6.00 Build 0)  -->
<svg version="1.1" xmlns="http://www.w3.org/2000/svg" xmlns:xlink="http://www.w3.org/1999/xlink" x="0px" y="0px"
	 viewBox="0 0 792 612" style="enable-background:new 0 0 792 612;" xml:space="preserve">
<style type="text/css">
	.st0{display:none;}
	.st1{display:inline;}
	.st2{font-family:'FoundersGrotesk-Bold';}
	.st3{font-size:174.1762px;}
	.st4{font-size:203.5096px;}
	.st5{font-size:20.6105px;}
	.st6{font-size:10.3052px;}
	.st7{font-size:19.2364px;}
	.st8{font-size:10px;}
	
		.st9{display:inline;fill:#FFFFFF;stroke:#000000;stroke-width:16;stroke-linecap:round;stroke-linejoin:round;stroke-miterlimit:10;}
	.st10{fill:#FFFFFF;stroke:#000000;stroke-width:16;stroke-linecap:round;stroke-linejoin:round;stroke-miterlimit:10;}
	.st11{display:inline;fill:none;stroke:#000000;stroke-width:24;stroke-linejoin:round;stroke-miterlimit:10;}
	.st12{display:inline;fill:#FFFFFF;}
	.st13{fill:#FFFFFF;stroke:#000000;stroke-width:17;stroke-linecap:round;stroke-miterlimit:10;}
	.st14{fill:#FFFFFF;stroke:#000000;stroke-width:17;stroke-miterlimit:10;}
	.st15{stroke:#000000;stroke-width:16.0572;stroke-linecap:round;stroke-miterlimit:10;}
	.st16{fill:#FFFFFF;}
	.st17{fill:#FFFFFF;stroke:#000000;stroke-width:17.1072;stroke-linecap:round;stroke-linejoin:round;stroke-miterlimit:10;}
	.st18{stroke:#000000;stroke-width:17.1072;stroke-linecap:round;stroke-linejoin:round;stroke-miterlimit:10;}
	.st19{fill:#FFFFFF;stroke:#000000;stroke-width:14.7375;stroke-linecap:round;stroke-linejoin:round;stroke-miterlimit:10;}
	.st20{fill:none;stroke:#000000;stroke-width:14.7375;stroke-linecap:round;stroke-linejoin:round;stroke-miterlimit:10;}
	.st21{stroke:#000000;stroke-width:14.7375;stroke-linecap:round;stroke-linejoin:round;stroke-miterlimit:10;}
	.st22{fill:#FFFFFF;stroke:#000000;stroke-width:14.2911;stroke-linecap:round;stroke-linejoin:round;stroke-miterlimit:10;}
	.st23{fill:none;stroke:#000000;stroke-width:13.497;stroke-miterlimit:10;}
	.st24{fill:#FFFFFF;stroke:#000000;stroke-width:13.497;stroke-linecap:round;stroke-linejoin:round;stroke-miterlimit:10;}
	.st25{fill:#FFFFFF;stroke:#000000;stroke-width:13.497;stroke-miterlimit:10;}
	.st26{fill:#FFFFFF;stroke:#000000;stroke-width:14.7439;stroke-linecap:round;stroke-miterlimit:10;}
	.st27{fill:#FFFFFF;stroke:#000000;stroke-width:14.7439;stroke-miterlimit:10;}
	.st28{stroke:#000000;stroke-width:13.9262;stroke-linecap:round;stroke-miterlimit:10;}
	
		.st29{display:inline;fill:#FFFFFF;stroke:#000000;stroke-width:14.6942;stroke-linecap:round;stroke-linejoin:round;stroke-miterlimit:10;}
	.st30{fill:#FFFFFF;stroke:#000000;stroke-width:14.6942;stroke-linecap:round;stroke-linejoin:round;stroke-miterlimit:10;}
	.st31{fill:none;stroke:#000000;stroke-width:24;stroke-linejoin:round;stroke-miterlimit:10;}
	.st32{fill:none;stroke:#000000;stroke-width:30.5612;stroke-linecap:round;stroke-linejoin:round;stroke-miterlimit:10;}
	.st33{fill:#FFFFFF;stroke:#000000;stroke-width:16.2993;stroke-linecap:round;stroke-linejoin:round;stroke-miterlimit:10;}
	.st34{display:inline;fill:#FFFFFF;stroke:#000000;stroke-width:13.497;stroke-linecap:round;stroke-miterlimit:10;}
	
		.st35{display:inline;fill:none;stroke:#000000;stroke-width:13.497;stroke-linecap:round;stroke-linejoin:round;stroke-miterlimit:10;}
	
		.st36{display:inline;fill:#FFFFFF;stroke:#000000;stroke-width:13.497;stroke-linecap:round;stroke-linejoin:round;stroke-miterlimit:10;}
	
		.st37{display:inline;fill:url(#);stroke:#000000;stroke-width:13.497;stroke-linecap:round;stroke-linejoin:round;stroke-miterlimit:10;}
	.st38{fill:#FFFFFF;stroke:#000000;stroke-width:15.2362;stroke-linecap:round;stroke-linejoin:round;stroke-miterlimit:10;}
	.st39{fill:#FFFFFF;stroke:#000000;stroke-width:14.8467;stroke-linecap:round;stroke-linejoin:round;stroke-miterlimit:10;}
	.st40{stroke:#000000;stroke-width:20.1683;stroke-linecap:round;stroke-miterlimit:10;}
	.st41{fill:none;stroke:#000000;stroke-width:14.8467;stroke-linecap:round;stroke-linejoin:round;stroke-miterlimit:10;}
	.st42{fill:#FFFFFF;stroke:#FFFFFF;stroke-width:3;stroke-miterlimit:10;}
	.st43{display:inline;fill:none;stroke:#000000;stroke-width:15;stroke-linecap:round;stroke-linejoin:round;stroke-miterlimit:10;}
	
		.st44{display:inline;fill:#FFFFFF;stroke:#000000;stroke-width:15;stroke-linecap:round;stroke-linejoin:round;stroke-miterlimit:10;}
	.st45{fill:#FFFFFF;stroke:#000000;stroke-width:15;stroke-linecap:round;stroke-linejoin:round;stroke-miterlimit:10;}
	.st46{fill:#FFFFFF;stroke:#000000;stroke-width:11.7326;stroke-linecap:round;stroke-linejoin:round;stroke-miterlimit:10;}
	.st47{fill:#FFFFFF;stroke:#000000;stroke-width:13.2623;stroke-linecap:round;stroke-linejoin:round;stroke-miterlimit:10;}
	.st48{fill:none;stroke:#000000;stroke-width:16;stroke-linecap:round;stroke-miterlimit:10;}
	.st49{fill:url(#);stroke:#000000;stroke-width:16;stroke-linecap:round;stroke-linejoin:round;stroke-miterlimit:10;}
	.st50{fill:#FFFFFF;stroke:#000000;stroke-width:16;stroke-linecap:round;stroke-miterlimit:10;}
	.st51{fill:#FFFFFF;stroke:#000000;stroke-width:13.2623;stroke-linecap:round;stroke-miterlimit:10;}
	.st52{stroke:#000000;stroke-width:4.5213;stroke-miterlimit:10;}
	.st53{fill:none;stroke:#000000;stroke-width:15.2344;stroke-linecap:round;stroke-linejoin:round;stroke-miterlimit:10;}
	.st54{fill:#FFFFFF;stroke:#000000;stroke-width:15.2344;stroke-linecap:round;stroke-linejoin:round;stroke-miterlimit:10;}
	.st55{stroke:#000000;stroke-width:18.3348;stroke-linecap:round;stroke-miterlimit:10;}
	.st56{fill:none;stroke:#000000;stroke-width:13.497;stroke-linecap:round;stroke-linejoin:round;stroke-miterlimit:10;}
	.st57{display:inline;fill:none;stroke:#000000;stroke-width:16;stroke-linecap:round;stroke-linejoin:round;stroke-miterlimit:10;}
	.st58{fill:#FFFFFF;stroke:#000000;stroke-width:13.3058;stroke-linecap:round;stroke-linejoin:round;stroke-miterlimit:10;}
	.st59{fill:#FFFFFF;stroke:#000000;stroke-width:17;stroke-linecap:round;stroke-linejoin:round;stroke-miterlimit:10;}
	.st60{fill:#FFFFFF;stroke:#000000;stroke-width:15.2517;stroke-linecap:round;stroke-linejoin:round;stroke-miterlimit:10;}
	.st61{stroke:#000000;stroke-width:3;stroke-miterlimit:10;}
	.st62{fill:#FFFFFF;stroke:#000000;stroke-width:16.0686;stroke-linecap:round;stroke-linejoin:round;stroke-miterlimit:10;}
	.st63{fill:#FFFFFF;stroke:#000000;stroke-width:15;stroke-linejoin:round;stroke-miterlimit:10;}
	.st64{fill:url(#);stroke:#000000;stroke-width:13.497;stroke-linecap:round;stroke-linejoin:round;stroke-miterlimit:10;}
	.st65{fill:#06A6FF;}
	.st66{fill:#FF0303;}
	.st67{fill:#3DFF06;}
	.st68{fill:#FFF808;}
	.st69{fill:none;stroke:#000000;stroke-width:0;stroke-linecap:round;stroke-linejoin:round;}
</style>
<g id="unexpanded" class="st0">
	<g class="st1">
		<g>
			<g>
				<text transform="matrix(1 0 0 1 1.7705 176.5483)" class="st2 st3">PROTECT</text>
			</g>
		</g>
		<g>
			<g>
				<text transform="matrix(1 0 0 1 22.2495 353.8274)" class="st2 st4">Delivery</text>
			</g>
		</g>
		<g>
			<text transform="matrix(1 0 0 1 19.9644 539.5688)" class="st2 st4">Workers</text>
		</g>
	</g>
	<g class="st1">
		<g>
			<text transform="matrix(1 0 0 1 258.9679 599.7979)"><tspan x="0" y="0" class="st2 st5">www</tspan><tspan x="45.14" y="0" class="st2 st6"> </tspan><tspan x="46.99" y="0" class="st2 st5">.</tspan><tspan x="51.77" y="0" class="st2 st6"> </tspan><tspan x="53.63" y="0" class="st2 st5">Capitalism</tspan><tspan x="150.43" y="0" class="st2 st7"> </tspan><tspan x="153.9" y="0" class="st2 st5">Is</tspan><tspan x="168.88" y="0" class="st2 st7"> </tspan><tspan x="172.34" y="0" class="st2 st5">A</tspan><tspan x="186.6" y="0" class="st2 st6"> </tspan><tspan x="188.46" y="0" class="st2 st5">Virus</tspan><tspan x="236.15" y="0" class="st2 st6"> </tspan><tspan x="238.01" y="0" class="st2 st5">.</tspan><tspan x="242.79" y="0" class="st2 st6"> </tspan><tspan x="244.64" y="0" class="st2 st5">org</tspan></text>
		</g>
		<g>
			<text transform="matrix(1 0 0 1 299.1802 22.1245)"><tspan x="0" y="0" class="st2 st5">#</tspan><tspan x="12.7" y="0" class="st2 st8"> </tspan><tspan x="14.5" y="0" class="st2 st5">Capitalism</tspan><tspan x="111.3" y="0" class="st2 st8"> </tspan><tspan x="113.1" y="0" class="st2 st5">Is</tspan><tspan x="128.09" y="0" class="st2 st8"> </tspan><tspan x="129.89" y="0" class="st2 st5">A</tspan><tspan x="144.15" y="0" class="st2 st8"> </tspan><tspan x="145.95" y="0" class="st2 st5">Virus</tspan></text>
		</g>
	</g>
</g>
<g id="expanded">
	<path d="M46.1,142.24h18.81c28.74,0,45.46-13.41,45.46-37.8c0-24.21-16.72-37.62-45.46-37.62H16.66v109.73H46.1V142.24z M46.1,90.5
		h17.42c13.24,0,18.29,4.88,18.29,14.11s-5.05,13.93-18.29,13.93H46.1V90.5z"/>
	<path d="M149.03,140.15h19.68c9.93,0,15.33,2.79,16.2,15.33c0.87,11.32,2.26,18.11,4.53,21.08h29.96
		c-3.66-4.01-4.18-8.88-5.75-25.26c-1.22-12.72-7.84-19.16-19.16-21.42c13.41-1.74,23.34-12.19,23.34-28.22
		c0-21.42-14.11-34.84-42.5-34.84h-55.39v109.73h29.09V140.15z M149.03,90.5h21.08c12.54,0,18.81,4.7,18.81,13.59
		c0,10.1-6.27,13.24-18.81,13.24h-21.08V90.5z"/>
	<path d="M282.98,178.64c31.88,0,56.96-23.17,56.96-56.96c0-33.79-25.08-56.96-56.96-56.96c-31.87,0-56.96,23.17-56.96,56.96
		C226.02,155.47,251.1,178.64,282.98,178.64z M282.98,90.85c16.2,0,26.48,12.19,26.48,30.83c0,18.64-10.28,30.83-26.48,30.83
		c-16.2,0-26.48-12.19-26.48-30.83C256.5,103.04,266.78,90.85,282.98,90.85z"/>
	<polygon points="380.16,176.55 409.6,176.55 409.6,91.2 447.74,91.2 447.74,66.82 342.54,66.82 342.54,91.2 380.16,91.2 	"/>
	<polygon points="545.28,91.2 545.28,66.82 460.46,66.82 460.46,176.55 546.85,176.55 546.85,152.16 489.54,152.16 489.54,133.18 
		532.57,133.18 532.57,109.14 489.54,109.14 489.54,91.2 	"/>
	<path d="M552.59,121.68c0,33.79,24.21,56.96,56.26,56.96c33.62,0,51.56-21.25,53.65-48.6l-28.39-1.22
		c-1.74,12.19-8.36,23.51-25.43,23.51c-16.2,0-25.6-12.02-25.6-30.66c0-18.64,9.41-30.66,25.6-30.66
		c17.07,0,23.69,11.32,25.43,23.51l28.39-1.04c-2.09-27.35-20.03-48.77-53.65-48.77C576.8,64.73,552.59,87.89,552.59,121.68z"/>
	<polygon points="702.38,176.55 731.82,176.55 731.82,91.2 769.97,91.2 769.97,66.82 664.76,66.82 664.76,91.2 702.38,91.2 	"/>
	<path d="M150.97,289.72c0-40.09-26.25-64.1-68.79-64.1H31.51v128.21h50.67C124.72,353.83,150.97,329.81,150.97,289.72z
		 M66.11,326.56v-73.67h13.64c22.39,0,35.61,13.43,35.61,36.63c0,23.61-13.23,37.04-35.61,37.04H66.11z"/>
	<path d="M209.58,260.62c-28.29,0-49.45,20.55-49.45,49.25c0,28.9,20.76,46.4,49.86,46.4c24.01,0,40.7-11.6,45.38-32.36l-26.46-2.44
		c-3.05,7.12-8.75,10.18-17.71,10.18c-9.97,0-18.11-5.29-18.93-16.48h63.7V306C255.98,281.38,239.9,260.62,209.58,260.62z
		 M192.69,299.29c1.22-8.55,5.9-15.06,16.48-15.06c9.77,0,15.06,6.92,15.47,15.06H192.69z"/>
	<rect x="269.41" y="225.62" width="32.97" height="128.21"/>
	<rect x="320.28" y="263.06" width="32.97" height="90.76"/>
	<rect x="320.08" y="225.62" width="33.38" height="28.9"/>
	<polygon points="416.95,319.43 416.14,319.43 396.4,263.06 361.8,263.06 395.58,353.83 434.86,353.83 468.64,263.06 436.69,263.06 
			"/>
	<path d="M519.72,260.62c-28.29,0-49.45,20.55-49.45,49.25c0,28.9,20.76,46.4,49.86,46.4c24.01,0,40.7-11.6,45.38-32.36l-26.46-2.44
		c-3.05,7.12-8.75,10.18-17.71,10.18c-9.97,0-18.11-5.29-18.93-16.48h63.7V306C566.12,281.38,550.05,260.62,519.72,260.62z
		 M502.83,299.29c1.22-8.55,5.9-15.06,16.48-15.06c9.77,0,15.06,6.92,15.47,15.06H502.83z"/>
	<path d="M579.55,263.06v90.76h32.97v-41.52c0-15.26,7.53-20.96,19.74-20.96c6.31,0,11.19,1.22,15.67,3.87l2.04-31.14
		c-2.24-1.83-7.12-3.46-12.62-3.46c-12.01,0-21.57,8.34-24.83,18.52v-16.08H579.55z"/>
	<polygon points="709.19,386.39 761.28,263.06 728.93,263.06 708.37,316.18 707.56,316.18 687.41,263.06 652.81,263.06 
		689.85,355.05 676.83,386.39 	"/>
	<polygon points="95.36,539.57 116.73,458.57 117.54,458.57 138.91,539.57 175.75,539.57 209.33,411.36 175.95,411.36 155.6,491.75 
		154.79,491.75 133.62,411.36 102.49,411.36 81.32,491.75 80.51,491.75 60.16,411.36 25.56,411.36 59.14,539.57 	"/>
	<path d="M207.29,494.19c0,28.29,19.94,47.82,49.66,47.82c29.51,0,49.66-19.54,49.66-47.82c0-28.08-20.15-47.82-49.66-47.82
		C227.24,446.36,207.29,466.1,207.29,494.19z M273.43,494.19c0,13.63-5.09,23-16.48,23c-11.6,0-16.48-9.36-16.48-23
		c0-13.64,4.88-23,16.48-23C268.35,471.19,273.43,480.55,273.43,494.19z"/>
	<path d="M319.63,539.57h32.97v-41.52c0-15.26,7.53-20.96,19.74-20.96c6.31,0,11.19,1.22,15.67,3.87l2.04-31.14
		c-2.24-1.83-7.12-3.46-12.62-3.46c-12.01,0-21.57,8.34-24.83,18.52V448.8h-32.97V539.57z"/>
	<polygon points="465.55,484.42 502.99,448.8 464.32,448.8 433.19,480.15 433.19,411.36 400.22,411.36 400.22,539.57 433.19,539.57 
		433.19,510.87 441.12,502.73 467.17,539.57 504.21,539.57 	"/>
	<path d="M501.57,495.61c0,28.9,20.76,46.4,49.86,46.4c24.01,0,40.7-11.6,45.38-32.36l-26.46-2.44
		c-3.05,7.12-8.75,10.18-17.71,10.18c-9.97,0-18.11-5.29-18.93-16.48h63.7v-9.16c0-24.62-16.08-45.38-46.4-45.38
		C522.73,446.36,501.57,466.92,501.57,495.61z M566.08,485.03h-31.95c1.22-8.55,5.9-15.06,16.48-15.06
		C560.38,469.97,565.67,476.89,566.08,485.03z"/>
	<path d="M643.82,464.88V448.8h-32.97v90.76h32.97v-41.52c0-15.26,7.53-20.96,19.74-20.96c6.31,0,11.19,1.22,15.67,3.87l2.04-31.14
		c-2.24-1.83-7.12-3.46-12.62-3.46C656.64,446.36,647.07,454.71,643.82,464.88z"/>
	<path d="M727.26,467.12c10.18,0,15.87,4.07,17.09,10.58l27.07-0.81c-1.83-18.93-17.3-30.53-43.55-30.53
		c-25.44,0-41.11,12.82-41.11,30.73c0,18.52,11.6,25.64,33.58,29.1l13.43,2.03c6.31,1.02,8.34,3.46,8.34,6.92
		c0,3.66-3.87,6.31-11.19,6.31c-9.97,0-16.08-4.27-17.3-11.8l-28.69,0.41c1.83,21.98,20.55,31.95,45.59,31.95
		c25.85,0,42.13-10.99,42.13-30.12c0-17.71-11.8-26.86-32.15-30.12l-17.71-3.05c-3.05-0.41-5.49-2.04-5.49-5.09
		C717.29,469.56,720.95,467.12,727.26,467.12z"/>
	<polygon points="281.63,594.6 282.97,599.8 286.25,599.8 289.11,590.74 291.98,599.8 295.25,599.8 296.59,594.6 296.68,594.6 
		298.02,599.8 301.29,599.8 304.2,590.6 301.19,590.6 299.54,595.82 299.46,595.82 298.12,590.6 295.46,590.6 294.12,595.82 
		294.04,595.82 292.39,590.6 289.15,590.6 289.07,590.6 286.15,590.6 284.5,595.82 284.41,595.82 283.07,590.6 280.41,590.6 
		279.07,595.82 278.99,595.82 277.34,590.6 274.11,590.6 274.02,590.6 271.1,590.6 269.45,595.82 269.37,595.82 268.03,590.6 
		265.37,590.6 264.03,595.82 263.95,595.82 262.3,590.6 258.98,590.6 261.88,599.8 265.16,599.8 266.5,594.6 266.58,594.6 
		267.92,599.8 271.2,599.8 274.07,590.74 276.93,599.8 280.21,599.8 281.55,594.6 	"/>
	<rect x="306.63" y="596.25" width="3.55" height="3.55"/>
	<path d="M313.06,593.3c0,4,2.87,6.74,6.66,6.74c3.98,0,6.1-2.51,6.35-5.75l-3.36-0.14c-0.21,1.44-0.99,2.78-3.01,2.78
		c-1.92,0-3.03-1.42-3.03-3.63s1.11-3.63,3.03-3.63c2.02,0,2.8,1.34,3.01,2.78l3.36-0.12c-0.25-3.24-2.37-5.77-6.35-5.77
		C315.92,586.56,313.06,589.3,313.06,593.3z"/>
	<path d="M330.08,594.62c-2,0.35-3.28,1.11-3.28,2.89c0,1.57,1.17,2.49,2.97,2.49c1.46,0,2.52-0.56,3.05-1.63
		c0.31,1.05,1.2,1.63,2.33,1.63c0.95,0,1.61-0.27,2.08-0.6v-1.77c-0.27,0.1-0.47,0.14-0.74,0.14c-0.35,0-0.56-0.21-0.56-0.68v-3.13
		c0-2.56-1.79-3.61-4.23-3.61c-2.76,0-4.27,1.4-4.56,3.42l3.09,0.21c0.14-0.68,0.52-1.15,1.26-1.15c0.8,0,1.15,0.45,1.15,1.22v0.14
		L330.08,594.62z M332.66,595.96c0,1.2-0.76,1.9-1.71,1.9c-0.56,0-0.93-0.31-0.93-0.78c0-0.6,0.47-0.85,1.28-1.01l1.36-0.25V595.96z
		"/>
	<path d="M338.2,590.6v12.49h3.34v-4.86c0.45,1.07,1.48,1.81,3.03,1.81c2.7,0,4.08-2.12,4.08-4.84c0-2.7-1.38-4.84-4.08-4.84
		c-1.55,0-2.58,0.74-3.03,1.83v-1.59H338.2z M343.4,592.95c1.3,0,1.9,0.93,1.9,2.25c0,1.34-0.6,2.27-1.9,2.27
		c-1.13,0-1.86-0.87-1.86-2.21v-0.12C341.54,593.82,342.27,592.95,343.4,592.95z"/>
	<rect x="349.95" y="586.81" width="3.38" height="2.93"/>
	<rect x="349.97" y="590.6" width="3.34" height="9.19"/>
	<path d="M358.46,600.04c1.26,0,2.06-0.31,2.76-0.82v-2.16c-0.56,0.23-1.01,0.31-1.42,0.31c-0.68,0-1.05-0.31-1.05-1.09v-3.36h2.39
		v-2.31h-2.39v-2.54h-2.1l-0.31,1.2c-0.23,0.85-0.52,1.34-1.44,1.48l-0.68,0.1v2.06h1.24v4.33
		C355.46,599.41,356.92,600.04,358.46,600.04z"/>
	<path d="M365.25,594.62c-2,0.35-3.28,1.11-3.28,2.89c0,1.57,1.17,2.49,2.97,2.49c1.46,0,2.52-0.56,3.05-1.63
		c0.31,1.05,1.2,1.63,2.33,1.63c0.95,0,1.61-0.27,2.08-0.6v-1.77c-0.27,0.1-0.47,0.14-0.74,0.14c-0.35,0-0.56-0.21-0.56-0.68v-3.13
		c0-2.56-1.79-3.61-4.23-3.61c-2.76,0-4.27,1.4-4.56,3.42l3.09,0.21c0.14-0.68,0.52-1.15,1.26-1.15c0.8,0,1.15,0.45,1.15,1.22v0.14
		L365.25,594.62z M367.82,595.96c0,1.2-0.76,1.9-1.71,1.9c-0.56,0-0.93-0.31-0.93-0.78c0-0.6,0.47-0.85,1.28-1.01l1.36-0.25V595.96z
		"/>
	<rect x="373.37" y="586.81" width="3.34" height="12.99"/>
	<rect x="378.5" y="586.81" width="3.38" height="2.93"/>
	<rect x="378.52" y="590.6" width="3.34" height="9.19"/>
	<path d="M387.67,597.96c-1.01,0-1.63-0.43-1.75-1.2l-2.91,0.04c0.19,2.23,2.08,3.24,4.62,3.24c2.62,0,4.27-1.11,4.27-3.05
		c0-1.79-1.2-2.72-3.26-3.05l-1.79-0.31c-0.31-0.04-0.56-0.21-0.56-0.52c0-0.41,0.37-0.66,1.01-0.66c1.03,0,1.61,0.41,1.73,1.07
		l2.74-0.08c-0.19-1.92-1.75-3.09-4.41-3.09c-2.58,0-4.16,1.3-4.16,3.11c0,1.88,1.17,2.6,3.4,2.95l1.36,0.21
		c0.64,0.1,0.85,0.35,0.85,0.7C388.8,597.7,388.41,597.96,387.67,597.96z"/>
	<path d="M408.65,599.8v-5.77c0-1.92-0.74-3.67-3.28-3.67c-1.55,0-2.64,0.78-3.13,1.81c-0.39-1.07-1.24-1.81-2.87-1.81
		c-1.38,0-2.37,0.62-2.87,1.63v-1.38h-3.34v9.19h3.34v-4.51c0-1.38,0.39-2.29,1.48-2.29c1.01,0,1.26,0.66,1.26,1.92v4.89h3.34v-4.51
		c0-1.38,0.37-2.29,1.48-2.29c1.01,0,1.24,0.66,1.24,1.92v4.89H408.65z"/>
	<rect x="413.91" y="586.81" width="3.5" height="12.99"/>
	<path d="M423.3,597.96c-1.01,0-1.63-0.43-1.75-1.2l-2.91,0.04c0.19,2.23,2.08,3.24,4.62,3.24c2.62,0,4.27-1.11,4.27-3.05
		c0-1.79-1.2-2.72-3.26-3.05l-1.79-0.31c-0.31-0.04-0.56-0.21-0.56-0.52c0-0.41,0.37-0.66,1.01-0.66c1.03,0,1.61,0.41,1.73,1.07
		l2.74-0.08c-0.19-1.92-1.75-3.09-4.41-3.09c-2.58,0-4.16,1.3-4.16,3.11c0,1.88,1.18,2.6,3.4,2.95l1.36,0.21
		c0.64,0.1,0.85,0.35,0.85,0.7C424.44,597.7,424.05,597.96,423.3,597.96z"/>
	<path d="M436.54,586.81l-5.17,12.99h3.52l0.97-2.51h5.07l0.97,2.51h3.73l-5.17-12.99H436.54z M436.87,594.67l1.48-3.83h0.08
		l1.48,3.83H436.87z"/>
	<polygon points="454.36,595.45 451.15,586.81 447.48,586.81 452.47,599.8 456.16,599.8 461.15,586.81 457.66,586.81 454.45,595.45 
			"/>
	<rect x="462.05" y="590.6" width="3.34" height="9.19"/>
	<rect x="462.03" y="586.81" width="3.38" height="2.93"/>
	<path d="M467.2,590.6v9.19h3.34v-4.21c0-1.55,0.76-2.12,2-2.12c0.64,0,1.13,0.12,1.59,0.39l0.21-3.15
		c-0.23-0.19-0.72-0.35-1.28-0.35c-1.22,0-2.19,0.85-2.52,1.88v-1.63H467.2z"/>
	<path d="M484.77,599.8v-9.19h-3.34v4.51c0,1.4-0.41,2.31-1.46,2.31c-1.01,0-1.36-0.68-1.36-1.92v-4.91h-3.34v5.79
		c0,1.92,0.76,3.65,3.28,3.65c1.38,0,2.39-0.6,2.89-1.63v1.38H484.77z"/>
	<path d="M490.58,597.96c-1.01,0-1.63-0.43-1.75-1.2l-2.91,0.04c0.19,2.23,2.08,3.24,4.62,3.24c2.62,0,4.27-1.11,4.27-3.05
		c0-1.79-1.2-2.72-3.26-3.05l-1.79-0.31c-0.31-0.04-0.56-0.21-0.56-0.52c0-0.41,0.37-0.66,1.01-0.66c1.03,0,1.61,0.41,1.73,1.07
		l2.74-0.08c-0.19-1.92-1.75-3.09-4.41-3.09c-2.58,0-4.16,1.3-4.16,3.11c0,1.88,1.18,2.6,3.4,2.95l1.36,0.21
		c0.64,0.1,0.85,0.35,0.85,0.7C491.71,597.7,491.32,597.96,490.58,597.96z"/>
	<rect x="497.64" y="596.25" width="3.55" height="3.55"/>
	<path d="M509.1,600.04c2.99,0,5.03-1.98,5.03-4.84c0-2.84-2.04-4.84-5.03-4.84c-3.01,0-5.03,2-5.03,4.84
		C504.07,598.07,506.09,600.04,509.1,600.04z M509.1,592.87c1.15,0,1.67,0.95,1.67,2.33s-0.52,2.33-1.67,2.33
		c-1.17,0-1.67-0.95-1.67-2.33S507.93,592.87,509.1,592.87z"/>
	<path d="M515.45,590.6v9.19h3.34v-4.21c0-1.55,0.76-2.12,2-2.12c0.64,0,1.13,0.12,1.59,0.39l0.21-3.15
		c-0.23-0.19-0.72-0.35-1.28-0.35c-1.22,0-2.19,0.85-2.52,1.88v-1.63H515.45z"/>
	<path d="M522.6,601.1c0,1.73,2.27,2.25,4.89,2.25c2.99,0,5.77-1.05,5.77-3.34c0-1.55-1.05-2.64-3.13-2.64h-3.81
		c-0.56,0-0.78-0.25-0.78-0.56c0-0.19,0.06-0.33,0.19-0.43c0.6,0.19,1.26,0.27,2,0.27c2.6,0,4.47-1.2,4.47-3.13
		c0-0.43-0.1-0.83-0.29-1.18c0.45-0.1,0.95-0.14,1.34-0.14v-2.52c-1.01,0-2.02,0.66-2.58,1.42c-0.78-0.47-1.83-0.74-2.95-0.74
		c-2.58,0-4.43,1.2-4.43,3.15c0,1.01,0.49,1.79,1.32,2.33c-0.99,0.37-1.57,1.05-1.57,1.94c0,0.78,0.49,1.53,1.32,1.79
		C523.33,599.65,522.6,600.29,522.6,601.1z M527.76,592.19c0.56,0,0.97,0.52,0.97,1.32c0,0.82-0.41,1.34-0.97,1.34
		c-0.56,0-0.97-0.52-0.97-1.34C526.79,592.71,527.2,592.19,527.76,592.19z M525.96,600.21h3.38c0.56,0,0.85,0.14,0.85,0.54
		c0,0.56-1.13,0.87-2.68,0.87c-1.24,0-2.16-0.19-2.16-0.85C525.35,600.42,525.59,600.21,525.96,600.21z"/>
	<path d="M300.6,22.12h2.49l0.8-3.42h1.77l-0.8,3.42h2.49l0.8-3.42h2.04l0.43-2.06h-1.98l0.49-2.02h1.88l0.43-2.06h-1.83l0.82-3.42
		h-2.49l-0.82,3.42h-1.77l0.83-3.42h-2.49l-0.82,3.42h-2.02l-0.43,2.06h1.98l-0.49,2.02h-1.88l-0.43,2.06h1.81L300.6,22.12z
		 M304.89,14.62h1.77l-0.49,2.02h-1.77L304.89,14.62z"/>
	<path d="M320.75,22.37c3.98,0,6.1-2.52,6.35-5.75l-3.36-0.14c-0.21,1.44-0.99,2.78-3.01,2.78c-1.92,0-3.03-1.42-3.03-3.63
		s1.11-3.63,3.03-3.63c2.02,0,2.8,1.34,3.01,2.78l3.36-0.12c-0.25-3.24-2.37-5.77-6.35-5.77c-3.79,0-6.66,2.74-6.66,6.74
		S316.95,22.37,320.75,22.37z"/>
	<path d="M331.11,16.95c-2,0.35-3.28,1.11-3.28,2.89c0,1.57,1.18,2.49,2.97,2.49c1.46,0,2.52-0.56,3.05-1.63
		c0.31,1.05,1.2,1.63,2.33,1.63c0.95,0,1.61-0.27,2.08-0.6v-1.77c-0.27,0.1-0.47,0.14-0.74,0.14c-0.35,0-0.56-0.21-0.56-0.68v-3.13
		c0-2.56-1.79-3.61-4.23-3.61c-2.76,0-4.27,1.4-4.56,3.42l3.09,0.21c0.14-0.68,0.52-1.15,1.26-1.15c0.8,0,1.15,0.45,1.15,1.22v0.14
		L331.11,16.95z M333.69,18.29c0,1.2-0.76,1.9-1.71,1.9c-0.56,0-0.93-0.31-0.93-0.78c0-0.6,0.47-0.85,1.28-1.01l1.36-0.25V18.29z"/>
	<path d="M339.23,12.93v12.49h3.34v-4.87c0.45,1.07,1.48,1.81,3.03,1.81c2.7,0,4.08-2.12,4.08-4.84c0-2.7-1.38-4.84-4.08-4.84
		c-1.55,0-2.58,0.74-3.03,1.83v-1.59H339.23z M344.43,15.28c1.3,0,1.9,0.93,1.9,2.25c0,1.34-0.6,2.27-1.9,2.27
		c-1.13,0-1.86-0.87-1.86-2.21v-0.12C342.57,16.15,343.29,15.28,344.43,15.28z"/>
	<rect x="351" y="12.93" width="3.34" height="9.19"/>
	<rect x="350.98" y="9.14" width="3.38" height="2.93"/>
	<path d="M357.68,10.39l-0.31,1.2c-0.23,0.85-0.52,1.34-1.44,1.48l-0.68,0.1v2.06h1.24v4.33c0,2.16,1.46,2.8,3.01,2.8
		c1.26,0,2.06-0.31,2.76-0.82v-2.16c-0.56,0.23-1.01,0.31-1.42,0.31c-0.68,0-1.05-0.31-1.05-1.09v-3.36h2.39v-2.31h-2.39v-2.54
		H357.68z"/>
	<path d="M366.27,16.95c-2,0.35-3.28,1.11-3.28,2.89c0,1.57,1.18,2.49,2.97,2.49c1.46,0,2.51-0.56,3.05-1.63
		c0.31,1.05,1.2,1.63,2.33,1.63c0.95,0,1.61-0.27,2.08-0.6v-1.77c-0.27,0.1-0.47,0.14-0.74,0.14c-0.35,0-0.56-0.21-0.56-0.68v-3.13
		c0-2.56-1.79-3.61-4.23-3.61c-2.76,0-4.27,1.4-4.56,3.42l3.09,0.21c0.14-0.68,0.52-1.15,1.26-1.15c0.8,0,1.15,0.45,1.15,1.22v0.14
		L366.27,16.95z M368.85,18.29c0,1.2-0.76,1.9-1.71,1.9c-0.56,0-0.93-0.31-0.93-0.78c0-0.6,0.47-0.85,1.28-1.01l1.36-0.25V18.29z"/>
	<rect x="374.39" y="9.14" width="3.34" height="12.99"/>
	<rect x="379.53" y="9.14" width="3.38" height="2.93"/>
	<rect x="379.55" y="12.93" width="3.34" height="9.19"/>
	<path d="M388.7,20.29c-1.01,0-1.63-0.43-1.75-1.2l-2.91,0.04c0.19,2.23,2.08,3.24,4.62,3.24c2.62,0,4.27-1.11,4.27-3.05
		c0-1.79-1.2-2.72-3.26-3.05l-1.79-0.31c-0.31-0.04-0.56-0.21-0.56-0.52c0-0.41,0.37-0.66,1.01-0.66c1.03,0,1.61,0.41,1.73,1.07
		l2.74-0.08c-0.19-1.92-1.75-3.09-4.41-3.09c-2.58,0-4.16,1.3-4.16,3.11c0,1.88,1.18,2.6,3.4,2.95l1.36,0.21
		c0.64,0.1,0.85,0.35,0.85,0.7C389.83,20.02,389.44,20.29,388.7,20.29z"/>
	<path d="M394.2,12.93v9.19h3.34v-4.51c0-1.38,0.39-2.29,1.48-2.29c1.01,0,1.26,0.66,1.26,1.92v4.89h3.34v-4.51
		c0-1.38,0.37-2.29,1.48-2.29c1.01,0,1.24,0.66,1.24,1.92v4.89h3.34v-5.77c0-1.92-0.74-3.67-3.28-3.67c-1.55,0-2.64,0.78-3.13,1.81
		c-0.39-1.07-1.24-1.81-2.87-1.81c-1.38,0-2.37,0.62-2.87,1.63v-1.38H394.2z"/>
	<rect x="413.27" y="9.14" width="3.5" height="12.99"/>
	<path d="M422.67,20.29c-1.01,0-1.63-0.43-1.75-1.2l-2.91,0.04c0.19,2.23,2.08,3.24,4.62,3.24c2.62,0,4.27-1.11,4.27-3.05
		c0-1.79-1.2-2.72-3.26-3.05l-1.79-0.31c-0.31-0.04-0.56-0.21-0.56-0.52c0-0.41,0.37-0.66,1.01-0.66c1.03,0,1.61,0.41,1.73,1.07
		l2.74-0.08c-0.19-1.92-1.75-3.09-4.41-3.09c-2.58,0-4.16,1.3-4.16,3.11c0,1.88,1.18,2.6,3.4,2.95l1.36,0.21
		c0.64,0.1,0.85,0.35,0.85,0.7C423.8,20.02,423.41,20.29,422.67,20.29z"/>
	<path d="M438.63,19.61l0.97,2.52h3.73l-5.17-12.99h-3.92l-5.17,12.99h3.52l0.97-2.52H438.63z M436.05,13.16h0.08l1.48,3.83h-3.05
		L436.05,13.16z"/>
	<polygon points="452.1,17.77 452.01,17.77 448.8,9.14 445.13,9.14 450.12,22.12 453.81,22.12 458.8,9.14 455.31,9.14 	"/>
	<rect x="459.68" y="9.14" width="3.38" height="2.93"/>
	<rect x="459.7" y="12.93" width="3.34" height="9.19"/>
	<path d="M464.85,12.93v9.19h3.34v-4.21c0-1.55,0.76-2.12,2-2.12c0.64,0,1.13,0.12,1.59,0.39l0.21-3.15
		c-0.23-0.19-0.72-0.35-1.28-0.35c-1.22,0-2.19,0.85-2.52,1.88v-1.63H464.85z"/>
	<path d="M476.19,22.37c1.38,0,2.39-0.6,2.89-1.63v1.38h3.34v-9.19h-3.34v4.51c0,1.4-0.41,2.31-1.46,2.31
		c-1.01,0-1.36-0.68-1.36-1.92v-4.91h-3.34v5.79C472.91,20.64,473.67,22.37,476.19,22.37z"/>
	<path d="M488.23,20.29c-1.01,0-1.63-0.43-1.75-1.2l-2.91,0.04c0.19,2.23,2.08,3.24,4.62,3.24c2.62,0,4.27-1.11,4.27-3.05
		c0-1.79-1.2-2.72-3.26-3.05l-1.79-0.31c-0.31-0.04-0.56-0.21-0.56-0.52c0-0.41,0.37-0.66,1.01-0.66c1.03,0,1.61,0.41,1.73,1.07
		l2.74-0.08c-0.19-1.92-1.75-3.09-4.41-3.09c-2.58,0-4.16,1.3-4.16,3.11c0,1.88,1.17,2.6,3.4,2.95l1.36,0.21
		c0.64,0.1,0.85,0.35,0.85,0.7C489.36,20.02,488.97,20.29,488.23,20.29z"/>
</g>
</svg>
