<?xml version="1.0" encoding="utf-8"?>
<!-- Generator: Adobe Illustrator 23.1.1, SVG Export Plug-In . SVG Version: 6.00 Build 0)  -->
<svg version="1.1" xmlns="http://www.w3.org/2000/svg" xmlns:xlink="http://www.w3.org/1999/xlink" x="0px" y="0px"
	 viewBox="0 0 792 612" style="enable-background:new 0 0 792 612;" xml:space="preserve">
<style type="text/css">
	.st0{display:none;}
	.st1{display:inline;}
	
		.st2{display:inline;fill:#FFFFFF;stroke:#000000;stroke-width:16;stroke-linecap:round;stroke-linejoin:round;stroke-miterlimit:10;}
	.st3{fill:#FFFFFF;stroke:#000000;stroke-width:16;stroke-linecap:round;stroke-linejoin:round;stroke-miterlimit:10;}
	.st4{display:inline;fill:none;stroke:#000000;stroke-width:24;stroke-linejoin:round;stroke-miterlimit:10;}
	.st5{display:inline;fill:#FFFFFF;}
	.st6{fill:#FFFFFF;stroke:#000000;stroke-width:17;stroke-linecap:round;stroke-miterlimit:10;}
	.st7{fill:#FFFFFF;stroke:#000000;stroke-width:17;stroke-miterlimit:10;}
	.st8{stroke:#000000;stroke-width:16.0572;stroke-linecap:round;stroke-miterlimit:10;}
	.st9{fill:#FFFFFF;}
	.st10{fill:#FFFFFF;stroke:#000000;stroke-width:17.1072;stroke-linecap:round;stroke-linejoin:round;stroke-miterlimit:10;}
	.st11{stroke:#000000;stroke-width:17.1072;stroke-linecap:round;stroke-linejoin:round;stroke-miterlimit:10;}
	.st12{fill:#FFFFFF;stroke:#000000;stroke-width:14.7375;stroke-linecap:round;stroke-linejoin:round;stroke-miterlimit:10;}
	.st13{fill:none;stroke:#000000;stroke-width:14.7375;stroke-linecap:round;stroke-linejoin:round;stroke-miterlimit:10;}
	.st14{stroke:#000000;stroke-width:14.7375;stroke-linecap:round;stroke-linejoin:round;stroke-miterlimit:10;}
	.st15{fill:#FFFFFF;stroke:#000000;stroke-width:14.2911;stroke-linecap:round;stroke-linejoin:round;stroke-miterlimit:10;}
	.st16{fill:none;stroke:#000000;stroke-width:13.497;stroke-miterlimit:10;}
	.st17{fill:#FFFFFF;stroke:#000000;stroke-width:13.497;stroke-linecap:round;stroke-linejoin:round;stroke-miterlimit:10;}
	.st18{fill:#FFFFFF;stroke:#000000;stroke-width:13.497;stroke-miterlimit:10;}
	.st19{fill:#FFFFFF;stroke:#000000;stroke-width:14.7439;stroke-linecap:round;stroke-miterlimit:10;}
	.st20{fill:#FFFFFF;stroke:#000000;stroke-width:14.7439;stroke-miterlimit:10;}
	.st21{stroke:#000000;stroke-width:13.9262;stroke-linecap:round;stroke-miterlimit:10;}
	
		.st22{display:inline;fill:#FFFFFF;stroke:#000000;stroke-width:14.6942;stroke-linecap:round;stroke-linejoin:round;stroke-miterlimit:10;}
	.st23{fill:#FFFFFF;stroke:#000000;stroke-width:14.6942;stroke-linecap:round;stroke-linejoin:round;stroke-miterlimit:10;}
	.st24{fill:none;stroke:#000000;stroke-width:24;stroke-linejoin:round;stroke-miterlimit:10;}
	.st25{fill:none;stroke:#000000;stroke-width:30.5612;stroke-linecap:round;stroke-linejoin:round;stroke-miterlimit:10;}
	.st26{fill:#FFFFFF;stroke:#000000;stroke-width:16.2993;stroke-linecap:round;stroke-linejoin:round;stroke-miterlimit:10;}
	.st27{display:inline;fill:#FFFFFF;stroke:#000000;stroke-width:13.497;stroke-linecap:round;stroke-miterlimit:10;}
	
		.st28{display:inline;fill:none;stroke:#000000;stroke-width:13.497;stroke-linecap:round;stroke-linejoin:round;stroke-miterlimit:10;}
	
		.st29{display:inline;fill:#FFFFFF;stroke:#000000;stroke-width:13.497;stroke-linecap:round;stroke-linejoin:round;stroke-miterlimit:10;}
	
		.st30{display:inline;fill:url(#);stroke:#000000;stroke-width:13.497;stroke-linecap:round;stroke-linejoin:round;stroke-miterlimit:10;}
	.st31{fill:#FFFFFF;stroke:#000000;stroke-width:15.2362;stroke-linecap:round;stroke-linejoin:round;stroke-miterlimit:10;}
	.st32{fill:#FFFFFF;stroke:#000000;stroke-width:14.8467;stroke-linecap:round;stroke-linejoin:round;stroke-miterlimit:10;}
	.st33{stroke:#000000;stroke-width:20.1683;stroke-linecap:round;stroke-miterlimit:10;}
	.st34{fill:none;stroke:#000000;stroke-width:14.8467;stroke-linecap:round;stroke-linejoin:round;stroke-miterlimit:10;}
	.st35{fill:#FFFFFF;stroke:#FFFFFF;stroke-width:3;stroke-miterlimit:10;}
	.st36{display:inline;fill:none;stroke:#000000;stroke-width:15;stroke-linecap:round;stroke-linejoin:round;stroke-miterlimit:10;}
	
		.st37{display:inline;fill:#FFFFFF;stroke:#000000;stroke-width:15;stroke-linecap:round;stroke-linejoin:round;stroke-miterlimit:10;}
	.st38{fill:#FFFFFF;stroke:#000000;stroke-width:15;stroke-linecap:round;stroke-linejoin:round;stroke-miterlimit:10;}
	.st39{fill:#FFFFFF;stroke:#000000;stroke-width:11.7326;stroke-linecap:round;stroke-linejoin:round;stroke-miterlimit:10;}
	.st40{fill:#FFFFFF;stroke:#000000;stroke-width:13.2623;stroke-linecap:round;stroke-linejoin:round;stroke-miterlimit:10;}
	.st41{fill:none;stroke:#000000;stroke-width:16;stroke-linecap:round;stroke-miterlimit:10;}
	.st42{fill:url(#);stroke:#000000;stroke-width:16;stroke-linecap:round;stroke-linejoin:round;stroke-miterlimit:10;}
	.st43{fill:#FFFFFF;stroke:#000000;stroke-width:16;stroke-linecap:round;stroke-miterlimit:10;}
	.st44{fill:#FFFFFF;stroke:#000000;stroke-width:13.2623;stroke-linecap:round;stroke-miterlimit:10;}
	.st45{stroke:#000000;stroke-width:4.5213;stroke-miterlimit:10;}
	.st46{fill:none;stroke:#000000;stroke-width:15.2344;stroke-linecap:round;stroke-linejoin:round;stroke-miterlimit:10;}
	.st47{fill:#FFFFFF;stroke:#000000;stroke-width:15.2344;stroke-linecap:round;stroke-linejoin:round;stroke-miterlimit:10;}
	.st48{stroke:#000000;stroke-width:18.3348;stroke-linecap:round;stroke-miterlimit:10;}
	.st49{fill:none;stroke:#000000;stroke-width:13.497;stroke-linecap:round;stroke-linejoin:round;stroke-miterlimit:10;}
	.st50{font-family:'FoundersGrotesk-Bold';}
	.st51{font-size:20.6105px;}
	.st52{font-size:10.3052px;}
	.st53{font-size:19.2364px;}
	.st54{font-size:10px;}
	.st55{display:inline;fill:none;stroke:#000000;stroke-width:16;stroke-linecap:round;stroke-linejoin:round;stroke-miterlimit:10;}
	.st56{fill:#FFFFFF;stroke:#000000;stroke-width:13.3058;stroke-linecap:round;stroke-linejoin:round;stroke-miterlimit:10;}
	.st57{fill:#FFFFFF;stroke:#000000;stroke-width:17;stroke-linecap:round;stroke-linejoin:round;stroke-miterlimit:10;}
	.st58{fill:#FFFFFF;stroke:#000000;stroke-width:15.2517;stroke-linecap:round;stroke-linejoin:round;stroke-miterlimit:10;}
	.st59{stroke:#000000;stroke-width:3;stroke-miterlimit:10;}
	.st60{fill:#FFFFFF;stroke:#000000;stroke-width:16.0686;stroke-linecap:round;stroke-linejoin:round;stroke-miterlimit:10;}
	.st61{fill:#FFFFFF;stroke:#000000;stroke-width:15;stroke-linejoin:round;stroke-miterlimit:10;}
	.st62{fill:url(#);stroke:#000000;stroke-width:13.497;stroke-linecap:round;stroke-linejoin:round;stroke-miterlimit:10;}
	.st63{fill:#06A6FF;}
	.st64{fill:#FF0303;}
	.st65{fill:#3DFF06;}
	.st66{fill:#FFF808;}
	.st67{fill:none;stroke:#000000;stroke-width:0;stroke-linecap:round;stroke-linejoin:round;}
</style>
<g id="unexpanded" class="st0">
	<g class="st1">
		<g>
			<path class="st9" d="M293.97,343.07l16.99,30.03l23.55-38.85l37.52-3.75l69.67,21.88c0,0,46.4,18.97,77.02,38.13
				s35.12,12.58,35.12,12.58l220.82-15.75c0,0,2.17,146.44-5.58,147.49c-12.09,1.65-174.64-5.67-182.2-2.2
				c-2.39,0.99-25.34,33.76-96.54,24.15c-44.79-8.34-71.19-9.6-71.19-9.6l-44.5-3.67l-79.27-70.52l-18.86-43.81
				c0,0-45.05-103.71-41.51-113.23c3.55-9.52,20.95-29.33,32.53-13.94C275.32,309.52,293.97,343.07,293.97,343.07z"/>
			<path class="st46" d="M455.77,450c18.51,8.19,38.39,15.55,59.72,21.81"/>
			<path class="st46" d="M228.54,222.93c0,0,19.87,72.35,90.38,140.99"/>
			<path class="st47" d="M307.69,465c-22.18-17.23-29.06-31.46-38.2-50.22c-9.14-18.76-31.1-62.4-39.44-81.75
				c-14.4-33.42,25.54-49.1,39.34-21.44c11.95,23.95,54.11,91.64,54.11,91.64"/>
			<path class="st47" d="M423.71,546.85c-14.11,4.06-39.22-0.73-66.77-14.09c-13.67-6.63-37.32-17.22-50.62-34.54
				c-13.51-17.6-14.06-38.85-12.2-47.75c3.68-17.66,10.74-55.79,15.18-77.46c6.35-30.96,49.29-29.19,43.45,12.37
				c-4.07,28.93-9.13,65.8-9.13,65.8"/>
			<path class="st47" d="M461.19,553.07c-37.48,0.85-108.31-46.98-116.94-66.86c-8.63-19.88,6.4-59.96,16.61-82.29
				c10.2-22.33,22.04-32.72,39.47-46.1c24.92-19.14,53.49,11.01,28.64,34.12l-18.44,23.01l-13.91,31.18"/>
			<path class="st46" d="M774.65,387.34c0,0-211.33,16.45-230.16,15.93c-26.95-25.21-195.83-94.39-209.99-69.02
				c-2.22,3.98-2.87,8.61-2.23,13.61"/>
			<path class="st47" d="M468.99,480.06c-14.91-13.27-25.27-16.85-25.27-16.85l7.87-19.71c33.97-17.41,14.71-53.18-18.66-39.81
				c-24.72,9.9-39.79,45.49-42.6,63.42c-2.72,17.33,23.4,64.17,70.87,85.96c27.23,12.5,77.28,9.31,125.68-20.43l187.78,2.41"/>
			<path d="M282.5,313.74c0,0-20.62-48.69,10.97-78.47s70.83-15.61,74.42-56.14c39.54,45.87,6.76,102.64-22.21,117.53
				C319.95,309.89,298.62,302.03,282.5,313.74z"/>
			<g>
				<path class="st47" d="M135.6,109.72c-0.27-9.16,2.8-15.81,8.22-18.53l7.15-1.72c6.3-24.87,33.19-30.78,46.39-11.56
					c-0.1,0.18-0.22,0.31-0.32,0.47c0,0,10.04-11.6,9.13-15.61c12.24-4.38,24.44-3.49,31.71,5.79l2.81-0.67
					c0,0,22.95,0.89,43.18,24.58c15.35,17.98,24.58,51.14,15.64,72.93l0.02,0.01c0,0-32.7,108.02-133.02,66.95
					c-30.99-12.69-42.47-34.8-44.34-68.4C120.44,132.86,133.03,112.13,135.6,109.72z"/>
				<path class="st47" d="M143.82,91.18c-13.62,6.85-12.81,38.19,20.22,72.87c52.96,55.6,121.07,17.83,121.07,17.83
					c28.67-15.6,18.99-65.72-1.24-89.42c-20.23-23.69-43.18-24.58-43.18-24.58"/>
				<path class="st47" d="M148.49,92.16c0,0,35.45,5.66,51.41-21.63C189.08,44.52,141.11,54.76,148.49,92.16z"/>
				<path class="st46" d="M143.86,121.5c27.4,11.18,50.61,1.23,58.99-14.34c8.86-16.45,6.14-32.06,3.32-44.4
					c18.23-6.52,36.67-1.81,38.29,25.8s-23.87,82.15-84.66,70.33"/>
				<path class="st46" d="M299.53,165.4c0,0-33.1,110.06-133.02,66.94c-67.76-29.24-39.2-113.22-33.6-119.77"/>
			</g>
		</g>
	</g>
	<text transform="matrix(-4.489659e-11 1 1 4.489659e-11 27.7192 303.6926)" class="st1"><tspan x="0" y="0" class="st50 st51">www</tspan><tspan x="45.14" y="0" class="st50 st52"> </tspan><tspan x="46.99" y="0" class="st50 st51">.</tspan><tspan x="51.77" y="0" class="st50 st52"> </tspan><tspan x="53.63" y="0" class="st50 st51">Capitalism</tspan><tspan x="150.43" y="0" class="st50 st53"> </tspan><tspan x="153.9" y="0" class="st50 st51">Is</tspan><tspan x="168.88" y="0" class="st50 st53"> </tspan><tspan x="172.34" y="0" class="st50 st51">A</tspan><tspan x="186.6" y="0" class="st50 st52"> </tspan><tspan x="188.46" y="0" class="st50 st51">Virus</tspan><tspan x="236.15" y="0" class="st50 st52"> </tspan><tspan x="238.01" y="0" class="st50 st51">.</tspan><tspan x="242.79" y="0" class="st50 st52"> </tspan><tspan x="244.64" y="0" class="st50 st51">org</tspan></text>
	<text transform="matrix(0 1 -1 0 761.9287 34.3259)" class="st1"><tspan x="0" y="0" class="st50 st51">#</tspan><tspan x="12.7" y="0" class="st50 st54"> </tspan><tspan x="14.5" y="0" class="st50 st51">Capitalism</tspan><tspan x="111.3" y="0" class="st50 st54"> </tspan><tspan x="113.1" y="0" class="st50 st51">Is</tspan><tspan x="128.09" y="0" class="st50 st54"> </tspan><tspan x="129.89" y="0" class="st50 st51">A</tspan><tspan x="144.15" y="0" class="st50 st54"> </tspan><tspan x="145.95" y="0" class="st50 st51">Virus</tspan></text>
</g>
<g id="expanded">
	<path d="M774.06,379.75c-69.77,5.43-202.51,15.39-226.73,15.9c-16.59-13.55-59.9-33.67-94.74-47.24
		c-24.17-9.42-83.26-30.88-109.85-26.73c-7.23,1.13-12.24,4.11-14.89,8.87c-2.43,4.36-3.56,9.31-3.39,14.74
		c-3.13,0.9-6.18,2.34-9.01,4.33c-11.98-12.48-22.32-24.99-31.19-37.05c15.9-9.99,36.62-3.15,61.41-15.89
		c28.97-14.89,61.75-71.67,22.21-117.53c-3.59,40.53-42.83,26.35-74.42,56.14c-24.3,22.91-17.71,57-13.37,71.52
		c-17.77-25.14-29.16-47.9-35.92-63.66c0.77-0.33,1.53-0.67,2.29-1.02c41.63-19.38,58.17-67.61,60.17-73.9
		c1.29-3.17,2.29-6.59,2.97-10.26c4.15-22.42-4.24-52.05-19.94-70.43c-22.14-25.93-47.61-27.21-48.68-27.25c-0.03,0-0.06,0-0.09,0
		c0,0-0.01,0-0.01,0c-1.2-1.12-2.4-2.04-3.56-2.8c-8.14-5.39-18.99-6.35-30.79-2.82c-0.09,0.03-0.18,0.05-0.28,0.08
		c-0.88,0.27-1.77,0.56-2.66,0.87c-0.37,0.13-0.72,0.29-1.05,0.48c-0.04,0.02-0.08,0.04-0.12,0.06c-0.32,0.18-0.61,0.38-0.9,0.59
		c-0.04,0.03-0.09,0.07-0.13,0.1c-0.28,0.22-0.54,0.46-0.78,0.72c-0.03,0.03-0.05,0.06-0.08,0.09c-0.05,0.05-0.09,0.11-0.14,0.16
		c-3.12-3.14-6.94-5.59-11.28-7.19c-7.3-2.69-15.65-2.86-23.5-0.48c-8.41,2.55-15.52,7.84-20.02,14.9
		c-3.62,5.68-5.46,12.31-5.48,19.5c-0.34,0.18-0.67,0.36-1,0.55c-0.15,0.09-0.29,0.18-0.43,0.27c-0.26,0.17-0.52,0.33-0.77,0.51
		c-0.17,0.12-0.34,0.25-0.51,0.37c-0.21,0.16-0.42,0.32-0.63,0.49c-0.17,0.14-0.35,0.29-0.52,0.43c-0.2,0.17-0.4,0.36-0.59,0.54
		c-0.16,0.15-0.31,0.29-0.47,0.44c-0.31,0.31-0.61,0.63-0.9,0.96c-0.04,0.05-0.09,0.1-0.13,0.15c-0.31,0.36-0.61,0.74-0.91,1.12
		c-0.04,0.06-0.09,0.12-0.13,0.18c-0.28,0.38-0.55,0.77-0.81,1.18c-0.01,0.02-0.02,0.03-0.03,0.05c-1.86,2.9-3.18,6.35-3.86,10.25
		c-0.2,1.13-0.4,2.73-0.46,4.77c-0.3,0.26-0.59,0.53-0.85,0.84c-1.87,2.19-4.47,7.72-6.82,15.35c-3.72,10.52-6.67,24.76-5.74,41.4
		c0.02,0.41,0.06,0.8,0.08,1.2c0.23,6.3,0.99,12.72,2.46,19.03c0.26,1.11,0.54,2.2,0.84,3.28c6.29,25.09,20.94,41.37,45.69,51.51
		c0.03,0.01,0.06,0.02,0.08,0.03c16.38,7.04,31.98,10.56,46.69,10.56c6.55,0,12.93-0.7,19.12-2.1c4.67,11.1,11.55,25.58,21.28,41.96
		c-5.03-0.44-10.11,0.44-14.8,2.61c-12.73,5.91-22.21,22.07-12.94,43.58c6.35,14.73,20.51,43.39,30.84,64.3
		c3.43,6.95,6.48,13.12,8.75,17.77l0.11,0.22c6.58,13.52,12.2,25.04,23.11,37.03c-0.7,11.75,1.68,30.91,14.42,47.5
		c13.51,17.61,35.77,28.3,50.49,35.39c0.99,0.47,1.94,0.93,2.84,1.37c21.81,10.57,42.66,16.25,58.68,16.25
		c5.02,0,9.56-0.56,13.52-1.7c0.55-0.16,1.06-0.37,1.53-0.63c10.78,4.06,22.09,7.03,32.24,7.14c10.24,4.37,23.38,6.93,38.42,6.93
		c26.33,0,58.46-7.81,90.94-27.33l185.6,2.38c4.22,0.08,7.66-3.31,7.71-7.52c0.05-4.21-3.31-7.66-7.52-7.71l-3.09-0.04l-184.69-2.37
		c-1.45-0.02-2.86,0.37-4.09,1.13c-47.61,29.26-94.8,30.88-118.51,20c-44.94-20.63-68.58-64.75-66.52-77.85
		c2.47-15.75,16.13-48.8,37.91-57.53c9.58-3.84,21.29-3.34,25.11,5.06c3.22,7.07-1.79,15.28-12.76,20.9
		c-1.64,0.84-2.92,2.24-3.6,3.95l-7.87,19.71c-0.77,1.93-0.74,4.09,0.12,5.98c0.87,1.89,2.44,3.34,4.41,4.02
		c0.09,0.03,9.41,3.49,22.75,15.36c3.14,2.8,7.96,2.52,10.75-0.63c2.8-3.14,2.52-7.96-0.63-10.75
		c-8.52-7.58-15.68-12.23-20.62-14.96l0.72-1.81c18.95,8.31,38.85,15.55,59.19,21.52c0.72,0.21,1.44,0.31,2.15,0.31
		c3.29,0,6.33-2.15,7.31-5.48c1.18-4.04-1.13-8.27-5.17-9.45c-18.6-5.46-36.81-12.01-54.22-19.49c4.99-3.88,8.75-8.42,11.04-13.41
		c3.35-7.29,3.45-15.13,0.28-22.09c-5.22-11.46-19.35-19.5-37.49-15.17c5.17-5.84,8.2-12.41,8.8-19.23
		c0.42-4.77-0.38-9.47-2.27-13.74c42.41,16.29,83.78,36.48,95.51,47.46c1.36,1.27,3.13,2,4.99,2.05c0.31,0.01,0.67,0.01,1.08,0.01
		c24.18,0,215.63-14.85,229.39-15.92c0.2-0.02,0.37-0.03,0.5-0.04c4.19-0.33,7.33-3.99,7-8.19
		C781.92,382.55,778.25,379.42,774.06,379.75z M252.05,88.12c-0.22-3.83-0.76-7.22-1.5-10.24c0.46,0.16,0.92,0.33,1.4,0.52
		c6.72,2.59,16.71,7.99,26.12,19.01c12.76,14.94,19.87,39.78,16.55,57.77c-0.46,2.5-1.11,4.8-1.95,6.91
		c-0.13,0.27-0.25,0.55-0.34,0.84c-2.34,5.49-5.99,9.6-10.91,12.28c-0.16,0.09-16.37,8.88-38.31,11.08
		c-24.06,2.41-45.35-3.71-63.46-18.21c20.68-0.86,35.29-9.41,44.59-17.55C244.81,132.54,253.08,105.57,252.05,88.12z M209.55,110.78
		c8.66-16.1,7.56-31.66,5.56-42.54c4.62-0.79,9.91-0.63,14.07,2.41l0.29-0.07c5.41,4.04,7.01,12.19,7.38,18.44
		c0.84,14.3-6.66,36.08-22.63,50.05c-13.6,11.9-30.74,16.15-50.93,12.71c-6.01-7.18-10.45-14.01-13.6-20.25
		C177.56,139.21,200.45,127.69,209.55,110.78z M170.04,64.71c7.34-2.23,16.24-0.89,20.97,5.46c-5.44,7.2-13.41,11.85-23.74,13.84
		c-4.53,0.87-8.72,1.06-11.87,1.01C155.37,76.6,159.16,68.01,170.04,64.71z M143.46,104.62c0.26-1.47,0.87-3.81,2.24-5.4
		c0.51,0.2,1.03,0.37,1.59,0.46c0.47,0.07,3.93,0.6,9.07,0.6c11.47,0,31.31-2.6,44.9-18.54c0.16,7.02-1.07,14.29-5.13,21.82
		c-8.9,16.53-32.1,17.95-49.4,10.89c-1.03-0.42-2.09-0.59-3.13-0.56C143.03,110.28,143.02,107.16,143.46,104.62z M169.5,225.34
		c-18.88-8.16-31.19-21.75-36.58-40.4c-0.22-0.76-0.42-1.53-0.61-2.3c-1.2-5.27-2-11.06-2.42-17.42
		c-0.46-12.11,1.38-23.64,3.56-32.39c4.36,10.35,11.98,22.72,25.08,36.47c24.81,26.05,52.77,32.72,74.87,32.71
		c4.17,0,8.14-0.24,11.84-0.63c13.08-1.38,24.22-4.74,31.96-7.67c-8.22,12.42-20.13,25.65-36.48,33.43
		C220.25,236.89,196.29,236.28,169.5,225.34z M294.01,411.5c-1.63,8.47-3.21,16.66-4.6,23.78c-5-7.3-8.69-14.88-12.95-23.63
		l-0.11-0.22c-2.27-4.66-5.33-10.86-8.78-17.85c-10.26-20.77-24.32-49.22-30.51-63.59c-5.63-13.06-0.63-20.95,5.37-23.73
		c6.18-2.87,15.13-1.37,20.16,8.7c7.11,14.26,24.38,43.15,37.59,64.84C298.28,389.33,296.12,400.56,294.01,411.5z M341.1,338.04
		c0.01-0.01,1.45-1.4,7.53-1.64c12.27-0.48,32.11,3.89,54.53,10.81c-2.5,1.17-5.01,2.67-7.48,4.57
		c-14.44,11.09-25.97,20.79-35.77,37.44c0.13-0.93,0.26-1.86,0.39-2.77c3.37-23.98-7.57-37.71-20.62-41.34
		C339.56,342.34,340.04,339.95,341.1,338.04z M360.27,525.91c-0.92-0.45-1.88-0.91-2.89-1.39c-13.42-6.45-33.71-16.21-45.01-30.93
		c-12.55-16.35-12.04-35.54-10.79-41.55c1.87-8.95,4.55-22.89,7.39-37.65c2.75-14.32,5.6-29.12,7.8-39.84
		c1.74-8.46,8.53-16.59,17.71-15.01c8.43,1.46,12.65,11.19,10.73,24.79c-4.02,28.61-9.08,65.45-9.13,65.82
		c-0.11,0.84-0.08,1.66,0.07,2.45c-2.7,13.69-3.14,26.85,1.11,36.64c5.98,13.78,31.03,32.68,50.67,44.67c2.21,1.35,5,3,8.19,4.8
		C385.28,536.38,372.84,532.01,360.27,525.91z M423.78,386.36c-0.27,0.25-0.52,0.52-0.76,0.81l-18.44,23.01
		c-0.41,0.51-0.75,1.07-1.01,1.66l-11.3,25.33c-0.89,1.87-1.71,3.72-2.48,5.55l-0.13,0.3c-0.05,0.12-0.09,0.24-0.14,0.36
		c-3.6,8.73-5.82,16.84-6.72,22.55c-2.44,15.53,11.32,44.07,36.25,67.55c-30.99-14.72-62.96-39.13-67.81-50.31
		c-5.47-12.61,0.87-41.77,16.55-76.09c9.63-21.07,20.47-30.39,37.18-43.23c9.35-7.18,18.41-4.78,22.88,0.5
		C432.01,369.29,433.14,377.66,423.78,386.36z"/>
	<polygon points="27.72,309.89 27.72,306.61 18.53,303.7 18.53,307.02 23.74,308.67 23.74,308.75 18.53,310.09 18.53,312.75 
		23.74,314.09 23.74,314.17 18.53,315.82 18.53,318.75 18.53,318.83 18.53,322.07 23.74,323.72 23.74,323.8 18.53,325.14 
		18.53,327.8 23.74,329.14 23.74,329.22 18.53,330.87 18.53,333.79 18.53,333.88 18.53,337.11 23.74,338.76 23.74,338.84 
		18.53,340.18 18.53,342.84 23.74,344.18 23.74,344.27 18.53,345.92 18.53,348.92 27.72,346.02 27.72,342.74 22.52,341.4 
		22.52,341.32 27.72,339.98 27.72,336.7 18.66,333.84 27.72,330.97 27.72,327.7 22.52,326.36 22.52,326.27 27.72,324.93 
		27.72,321.66 18.66,318.79 27.72,315.93 27.72,312.65 22.52,311.31 22.52,311.23 	"/>
	<rect x="24.17" y="351.35" width="3.55" height="3.55"/>
	<path d="M20.26,370.79l0.12-3.36c-1.44-0.21-2.78-0.99-2.78-3.01c0-1.92,1.42-3.03,3.63-3.03s3.63,1.11,3.63,3.03
		c0,2.02-1.34,2.8-2.78,3.01l0.14,3.36c3.24-0.25,5.75-2.37,5.75-6.35c0-3.79-2.74-6.66-6.74-6.66s-6.74,2.87-6.74,6.66
		C14.48,368.42,17.02,370.54,20.26,370.79z"/>
	<path d="M21.91,374.97l-0.21-3.09c-2.02,0.29-3.42,1.79-3.42,4.56c0,2.43,1.05,4.23,3.61,4.23h3.13c0.47,0,0.68,0.21,0.68,0.56
		c0,0.27-0.04,0.47-0.14,0.74h1.77c0.33-0.47,0.6-1.13,0.6-2.08c0-1.13-0.58-2.02-1.63-2.33c1.07-0.54,1.63-1.59,1.63-3.05
		c0-1.79-0.93-2.97-2.49-2.97c-1.77,0-2.54,1.28-2.89,3.28l-0.43,2.58h-0.14c-0.76,0-1.22-0.35-1.22-1.15
		C20.75,375.49,21.23,375.12,21.91,374.97z M23.99,376.03c0.16-0.8,0.41-1.28,1.01-1.28c0.47,0,0.78,0.37,0.78,0.93
		c0,0.95-0.7,1.71-1.9,1.71h-0.14L23.99,376.03z"/>
	<path d="M18.28,389.3c0,2.7,2.14,4.08,4.84,4.08c2.72,0,4.84-1.38,4.84-4.08c0-1.55-0.74-2.58-1.81-3.03h4.87v-3.34H18.53v3.34
		h1.59C19.02,386.72,18.28,387.75,18.28,389.3z M23.06,386.27h0.12c1.34,0,2.21,0.72,2.21,1.86c0,1.3-0.93,1.9-2.27,1.9
		c-1.32,0-2.25-0.6-2.25-1.9C20.88,386.99,21.74,386.27,23.06,386.27z"/>
	<rect x="14.73" y="394.68" width="2.93" height="3.38"/>
	<rect x="18.53" y="394.7" width="9.19" height="3.34"/>
	<path d="M17.19,401.07l-1.2,0.31v2.1h2.54v2.39h2.31v-2.39h3.36c0.78,0,1.09,0.37,1.09,1.05c0,0.41-0.08,0.87-0.31,1.42h2.16
		c0.52-0.7,0.82-1.5,0.82-2.76c0-1.55-0.64-3.01-2.8-3.01h-4.33v-1.24h-2.06l-0.1,0.68C18.53,400.55,18.03,400.84,17.19,401.07z"/>
	<path d="M27.33,417.12c0.33-0.47,0.6-1.13,0.6-2.08c0-1.13-0.58-2.02-1.63-2.33c1.07-0.54,1.63-1.59,1.63-3.05
		c0-1.79-0.93-2.97-2.49-2.97c-1.77,0-2.54,1.28-2.89,3.28l-0.43,2.58h-0.14c-0.76,0-1.22-0.35-1.22-1.15
		c0-0.74,0.47-1.11,1.15-1.26l-0.21-3.09c-2.02,0.29-3.42,1.79-3.42,4.56c0,2.43,1.05,4.23,3.61,4.23h3.13
		c0.47,0,0.68,0.21,0.68,0.56c0,0.27-0.04,0.47-0.14,0.74H27.33z M23.88,412.55h-0.14l0.25-1.36c0.16-0.8,0.41-1.28,1.01-1.28
		c0.47,0,0.78,0.37,0.78,0.93C25.78,411.78,25.08,412.55,23.88,412.55z"/>
	<rect x="14.73" y="418.09" width="12.99" height="3.34"/>
	<rect x="14.73" y="423.22" width="2.93" height="3.38"/>
	<rect x="18.53" y="423.24" width="9.19" height="3.34"/>
	<path d="M21.37,436.5l0.08-2.74c-0.66-0.12-1.07-0.7-1.07-1.73c0-0.64,0.25-1.01,0.66-1.01c0.31,0,0.47,0.25,0.52,0.56l0.31,1.79
		c0.33,2.06,1.26,3.26,3.05,3.26c1.94,0,3.05-1.65,3.05-4.27c0-2.54-1.01-4.43-3.24-4.62l-0.04,2.91c0.76,0.12,1.2,0.74,1.2,1.75
		c0,0.74-0.27,1.13-0.64,1.13c-0.35,0-0.6-0.21-0.7-0.85l-0.21-1.36c-0.35-2.23-1.07-3.4-2.95-3.4c-1.81,0-3.11,1.59-3.11,4.16
		C18.28,434.74,19.45,436.31,21.37,436.5z"/>
	<path d="M18.28,450.1c0,2.54,1.75,3.28,3.67,3.28h5.77v-3.34h-4.89c-1.26,0-1.92-0.23-1.92-1.24c0-1.11,0.91-1.48,2.29-1.48h4.51
		v-3.34h-4.89c-1.26,0-1.92-0.25-1.92-1.26c0-1.09,0.91-1.48,2.29-1.48h4.51v-3.34h-9.19v3.34h1.38c-1.01,0.49-1.63,1.48-1.63,2.87
		c0,1.63,0.74,2.47,1.81,2.87C19.06,447.46,18.28,448.55,18.28,450.1z"/>
	<rect x="14.73" y="458.63" width="12.99" height="3.5"/>
	<path d="M21.04,466.65c0.31,0,0.47,0.25,0.52,0.56l0.31,1.79c0.33,2.06,1.26,3.26,3.05,3.26c1.94,0,3.05-1.65,3.05-4.27
		c0-2.54-1.01-4.43-3.24-4.62l-0.04,2.91c0.76,0.12,1.2,0.74,1.2,1.75c0,0.74-0.27,1.13-0.64,1.13c-0.35,0-0.6-0.21-0.7-0.85
		l-0.21-1.36c-0.35-2.23-1.07-3.4-2.95-3.4c-1.81,0-3.11,1.59-3.11,4.16c0,2.66,1.18,4.23,3.09,4.41l0.08-2.74
		c-0.66-0.12-1.07-0.7-1.07-1.73C20.38,467.02,20.63,466.65,21.04,466.65z"/>
	<path d="M14.73,485.18l12.99,5.17v-3.73l-2.52-0.97v-5.07l2.52-0.97v-3.53l-12.99,5.17V485.18z M18.75,483.08l3.83-1.48v3.05
		l-3.83-1.48V483.08z"/>
	<polygon points="14.73,502.39 14.73,505.87 27.72,500.88 27.72,497.19 14.73,492.2 14.73,495.87 23.37,499.09 23.37,499.17 	"/>
	<rect x="18.53" y="506.78" width="9.19" height="3.34"/>
	<rect x="14.73" y="506.76" width="2.93" height="3.38"/>
	<path d="M18.28,517.78c0,0.56,0.16,1.05,0.35,1.28l3.15-0.21c-0.27-0.45-0.39-0.95-0.39-1.59c0-1.24,0.58-2,2.12-2h4.21v-3.34
		h-9.19v3.34h1.63C19.12,515.6,18.28,516.57,18.28,517.78z"/>
	<path d="M27.97,523.26c0-2.52-1.73-3.28-3.65-3.28h-5.79v3.34h4.91c1.24,0,1.92,0.35,1.92,1.36c0,1.05-0.91,1.46-2.31,1.46h-4.51
		v3.34h9.19v-3.34h-1.38C27.37,525.66,27.97,524.65,27.97,523.26z"/>
	<path d="M21.37,539.4l0.08-2.74c-0.66-0.12-1.07-0.7-1.07-1.73c0-0.64,0.25-1.01,0.66-1.01c0.31,0,0.47,0.25,0.52,0.56l0.31,1.79
		c0.33,2.06,1.26,3.26,3.05,3.26c1.94,0,3.05-1.65,3.05-4.27c0-2.54-1.01-4.43-3.24-4.62l-0.04,2.91c0.76,0.12,1.2,0.74,1.2,1.75
		c0,0.74-0.27,1.13-0.64,1.13c-0.35,0-0.6-0.21-0.7-0.85l-0.21-1.36c-0.35-2.23-1.07-3.4-2.95-3.4c-1.81,0-3.11,1.59-3.11,4.16
		C18.28,537.65,19.45,539.22,21.37,539.4z"/>
	<rect x="24.17" y="542.37" width="3.55" height="3.55"/>
	<path d="M23.12,558.86c2.87,0,4.84-2.04,4.84-5.03c0-3.01-1.98-5.03-4.84-5.03c-2.84,0-4.84,2.02-4.84,5.03
		C18.28,556.82,20.28,558.86,23.12,558.86z M23.12,552.16c1.38,0,2.33,0.49,2.33,1.67c0,1.15-0.95,1.67-2.33,1.67
		c-1.38,0-2.33-0.52-2.33-1.67C20.79,552.65,21.74,552.16,23.12,552.16z"/>
	<path d="M18.28,566.03c0,0.56,0.16,1.05,0.35,1.28l3.15-0.21c-0.27-0.45-0.39-0.95-0.39-1.59c0-1.24,0.58-2,2.12-2h4.21v-3.34
		h-9.19v3.34h1.63C19.12,563.85,18.28,564.82,18.28,566.03z"/>
	<path d="M27.93,577.99c2.29,0,3.34-2.78,3.34-5.77c0-2.62-0.52-4.89-2.25-4.89c-0.8,0-1.44,0.72-1.53,1.75
		c-0.27-0.82-1.01-1.32-1.79-1.32c-0.89,0-1.57,0.58-1.94,1.57c-0.54-0.82-1.32-1.32-2.33-1.32c-1.96,0-3.15,1.86-3.15,4.43
		c0,1.11,0.27,2.16,0.74,2.95c-0.76,0.56-1.42,1.57-1.42,2.58h2.51c0-0.39,0.04-0.89,0.14-1.34c0.35,0.19,0.74,0.29,1.17,0.29
		c1.94,0,3.13-1.88,3.13-4.47c0-0.74-0.08-1.4-0.27-2c0.1-0.12,0.25-0.19,0.43-0.19c0.31,0,0.56,0.23,0.56,0.78v3.81
		C25.29,576.94,26.38,577.99,27.93,577.99z M28.13,570.69c0-0.37,0.21-0.62,0.56-0.62c0.66,0,0.84,0.93,0.84,2.16
		c0,1.55-0.31,2.68-0.87,2.68c-0.39,0-0.54-0.29-0.54-0.85V570.69z M21.43,573.45c-0.8,0-1.32-0.41-1.32-0.97
		c0-0.56,0.52-0.97,1.32-0.97c0.82,0,1.34,0.41,1.34,0.97C22.77,573.04,22.26,573.45,21.43,573.45z"/>
	<path d="M771.49,36l-2.06-0.43v1.98l-2.02-0.5v-1.88l-2.06-0.43v1.81l-3.42-0.8v2.49l3.42,0.8v1.77l-3.42-0.8v2.49l3.42,0.8v2.04
		l2.06,0.43v-1.98l2.02,0.5v1.88l2.06,0.43v-1.83l3.42,0.82v-2.49l-3.42-0.82v-1.77l3.42,0.82v-2.49l-3.42-0.83V36z M769.43,41.81
		l-2.02-0.49v-1.77l2.02,0.49V41.81z"/>
	<path d="M768.42,49.23c-4,0-6.74,2.87-6.74,6.66c0,3.98,2.51,6.1,5.75,6.35l0.14-3.36c-1.44-0.21-2.78-0.99-2.78-3.01
		c0-1.92,1.42-3.03,3.63-3.03s3.63,1.11,3.63,3.03c0,2.02-1.34,2.8-2.78,3.01l0.12,3.36c3.24-0.25,5.77-2.37,5.77-6.35
		C775.16,52.1,772.42,49.23,768.42,49.23z"/>
	<path d="M761.72,71.33c0,0.95,0.27,1.61,0.6,2.08h1.77c-0.1-0.27-0.14-0.47-0.14-0.74c0-0.35,0.21-0.56,0.68-0.56h3.13
		c2.56,0,3.61-1.79,3.61-4.23c0-2.76-1.4-4.27-3.42-4.56l-0.21,3.09c0.68,0.14,1.15,0.52,1.15,1.26c0,0.8-0.45,1.15-1.22,1.15h-0.14
		l-0.43-2.58c-0.35-2-1.11-3.28-2.89-3.28c-1.57,0-2.49,1.17-2.49,2.97c0,1.46,0.56,2.52,1.63,3.05
		C762.3,69.31,761.72,70.2,761.72,71.33z M764.65,66.2c0.6,0,0.85,0.47,1.01,1.28l0.25,1.36h-0.14c-1.2,0-1.9-0.76-1.9-1.71
		C763.87,66.57,764.18,66.2,764.65,66.2z"/>
	<path d="M758.63,77.72h4.86c-1.07,0.45-1.81,1.48-1.81,3.03c0,2.7,2.12,4.08,4.84,4.08c2.7,0,4.84-1.38,4.84-4.08
		c0-1.55-0.74-2.58-1.83-3.03h1.59v-3.34h-12.49V77.72z M766.46,77.72h0.12c1.32,0,2.18,0.72,2.18,1.85c0,1.3-0.93,1.9-2.25,1.9
		c-1.34,0-2.27-0.6-2.27-1.9C764.26,78.44,765.12,77.72,766.46,77.72z"/>
	<rect x="771.99" y="86.13" width="2.93" height="3.38"/>
	<rect x="761.93" y="86.15" width="9.19" height="3.34"/>
	<path d="M770.98,91.07l-0.1-0.68h-2.06v1.24h-4.33c-2.16,0-2.8,1.46-2.8,3.01c0,1.26,0.31,2.06,0.82,2.76h2.16
		c-0.23-0.56-0.31-1.01-0.31-1.42c0-0.68,0.31-1.05,1.09-1.05h3.36v2.39h2.31v-2.39h2.54v-2.1l-1.2-0.31
		C771.62,92.29,771.12,92,770.98,91.07z"/>
	<path d="M761.72,106.49c0,0.95,0.27,1.61,0.6,2.08h1.77c-0.1-0.27-0.14-0.47-0.14-0.74c0-0.35,0.21-0.56,0.68-0.56h3.13
		c2.56,0,3.61-1.79,3.61-4.23c0-2.76-1.4-4.27-3.42-4.56l-0.21,3.09c0.68,0.14,1.15,0.52,1.15,1.26c0,0.8-0.45,1.15-1.22,1.15h-0.14
		l-0.43-2.58c-0.35-2-1.11-3.28-2.89-3.28c-1.57,0-2.49,1.18-2.49,2.97c0,1.46,0.56,2.52,1.63,3.05
		C762.3,104.47,761.72,105.36,761.72,106.49z M764.65,101.36c0.6,0,0.85,0.47,1.01,1.28l0.25,1.36h-0.14c-1.2,0-1.9-0.76-1.9-1.71
		C763.87,101.73,764.18,101.36,764.65,101.36z"/>
	<rect x="761.93" y="109.54" width="12.99" height="3.34"/>
	<rect x="761.93" y="114.69" width="9.19" height="3.34"/>
	<rect x="771.99" y="114.67" width="2.93" height="3.38"/>
	<path d="M764.73,128.07c1.79,0,2.72-1.2,3.05-3.26l0.31-1.79c0.04-0.31,0.21-0.56,0.52-0.56c0.41,0,0.66,0.37,0.66,1.01
		c0,1.03-0.41,1.61-1.07,1.73l0.08,2.74c1.92-0.19,3.09-1.75,3.09-4.41c0-2.58-1.3-4.16-3.11-4.16c-1.88,0-2.6,1.18-2.95,3.4
		l-0.21,1.36c-0.1,0.64-0.35,0.84-0.7,0.84c-0.37,0-0.64-0.39-0.64-1.13c0-1.01,0.43-1.63,1.2-1.75l-0.04-2.91
		c-2.23,0.19-3.24,2.08-3.24,4.62C761.68,126.42,762.79,128.07,764.73,128.07z"/>
	<path d="M771.37,135.55c0-1.38-0.62-2.37-1.63-2.87h1.38v-3.34h-9.19v3.34h4.51c1.38,0,2.29,0.39,2.29,1.48
		c0,1.01-0.66,1.26-1.92,1.26h-4.89v3.34h4.51c1.38,0,2.29,0.37,2.29,1.48c0,1.01-0.66,1.24-1.92,1.24h-4.89v3.34h5.77
		c1.92,0,3.67-0.74,3.67-3.28c0-1.55-0.78-2.64-1.81-3.13C770.63,138.02,771.37,137.18,771.37,135.55z"/>
	<rect x="761.93" y="148.42" width="12.99" height="3.5"/>
	<path d="M764.96,156.06l-0.04-2.91c-2.23,0.19-3.24,2.08-3.24,4.62c0,2.62,1.11,4.27,3.05,4.27c1.79,0,2.72-1.2,3.05-3.26
		l0.31-1.79c0.04-0.31,0.21-0.56,0.52-0.56c0.41,0,0.66,0.37,0.66,1.01c0,1.03-0.41,1.61-1.07,1.73l0.08,2.74
		c1.92-0.19,3.09-1.75,3.09-4.41c0-2.58-1.3-4.16-3.11-4.16c-1.88,0-2.6,1.18-2.95,3.4l-0.21,1.36c-0.1,0.64-0.35,0.84-0.7,0.84
		c-0.37,0-0.64-0.39-0.64-1.13C763.76,156.81,764.2,156.19,764.96,156.06z"/>
	<path d="M774.92,169.39l-12.99-5.17v3.52l2.51,0.97v5.07l-2.51,0.97v3.73l12.99-5.17V169.39z M770.9,171.28l-3.83,1.48v-3.05
		l3.83,1.48V171.28z"/>
	<polygon points="774.92,183.94 774.92,180.27 761.93,185.26 761.93,188.95 774.92,193.94 774.92,190.46 766.28,187.24 
		766.28,187.16 	"/>
	<rect x="771.99" y="194.83" width="2.93" height="3.38"/>
	<rect x="761.93" y="194.85" width="9.19" height="3.34"/>
	<path d="M769.49,203.34h1.63V200h-9.19v3.34h4.21c1.55,0,2.12,0.76,2.12,2c0,0.64-0.12,1.13-0.39,1.59l3.15,0.21
		c0.19-0.23,0.35-0.72,0.35-1.28C771.37,204.64,770.52,203.67,769.49,203.34z"/>
	<path d="M766.22,211.4h4.91v-3.34h-5.79c-1.92,0-3.65,0.76-3.65,3.28c0,1.38,0.6,2.39,1.63,2.89h-1.38v3.34h9.19v-3.34h-4.51
		c-1.4,0-2.31-0.41-2.31-1.46C764.3,211.75,764.98,211.4,766.22,211.4z"/>
	<path d="M768.2,224.73l0.08,2.74c1.92-0.19,3.09-1.75,3.09-4.41c0-2.58-1.3-4.16-3.11-4.16c-1.88,0-2.6,1.17-2.95,3.4l-0.21,1.36
		c-0.1,0.64-0.35,0.85-0.7,0.85c-0.37,0-0.64-0.39-0.64-1.13c0-1.01,0.43-1.63,1.2-1.75l-0.04-2.91c-2.23,0.19-3.24,2.08-3.24,4.62
		c0,2.62,1.11,4.27,3.05,4.27c1.79,0,2.72-1.2,3.05-3.26l0.31-1.79c0.04-0.31,0.21-0.56,0.52-0.56c0.41,0,0.66,0.37,0.66,1.01
		C769.27,224.03,768.86,224.61,768.2,224.73z"/>
</g>
</svg>
