<?xml version="1.0" encoding="utf-8"?>
<!-- Generator: Adobe Illustrator 23.1.1, SVG Export Plug-In . SVG Version: 6.00 Build 0)  -->
<svg version="1.1" xmlns="http://www.w3.org/2000/svg" xmlns:xlink="http://www.w3.org/1999/xlink" x="0px" y="0px"
	 viewBox="0 0 792 612" style="enable-background:new 0 0 792 612;" xml:space="preserve">
<style type="text/css">
	.st0{display:none;}
	.st1{display:inline;}
	
		.st2{display:inline;fill:#FFFFFF;stroke:#000000;stroke-width:16;stroke-linecap:round;stroke-linejoin:round;stroke-miterlimit:10;}
	.st3{fill:#FFFFFF;stroke:#000000;stroke-width:16;stroke-linecap:round;stroke-linejoin:round;stroke-miterlimit:10;}
	.st4{display:inline;fill:none;stroke:#000000;stroke-width:24;stroke-linejoin:round;stroke-miterlimit:10;}
	.st5{display:inline;fill:#FFFFFF;}
	.st6{fill:#FFFFFF;stroke:#000000;stroke-width:17;stroke-linecap:round;stroke-miterlimit:10;}
	.st7{fill:#FFFFFF;stroke:#000000;stroke-width:17;stroke-miterlimit:10;}
	.st8{stroke:#000000;stroke-width:16.0572;stroke-linecap:round;stroke-miterlimit:10;}
	.st9{fill:#FFFFFF;}
	.st10{fill:#FFFFFF;stroke:#000000;stroke-width:17.1072;stroke-linecap:round;stroke-linejoin:round;stroke-miterlimit:10;}
	.st11{stroke:#000000;stroke-width:17.1072;stroke-linecap:round;stroke-linejoin:round;stroke-miterlimit:10;}
	.st12{fill:#FFFFFF;stroke:#000000;stroke-width:14.7375;stroke-linecap:round;stroke-linejoin:round;stroke-miterlimit:10;}
	.st13{fill:none;stroke:#000000;stroke-width:14.7375;stroke-linecap:round;stroke-linejoin:round;stroke-miterlimit:10;}
	.st14{stroke:#000000;stroke-width:14.7375;stroke-linecap:round;stroke-linejoin:round;stroke-miterlimit:10;}
	.st15{fill:#FFFFFF;stroke:#000000;stroke-width:14.2911;stroke-linecap:round;stroke-linejoin:round;stroke-miterlimit:10;}
	.st16{fill:none;stroke:#000000;stroke-width:13.497;stroke-miterlimit:10;}
	.st17{fill:#FFFFFF;stroke:#000000;stroke-width:13.497;stroke-linecap:round;stroke-linejoin:round;stroke-miterlimit:10;}
	.st18{fill:#FFFFFF;stroke:#000000;stroke-width:13.497;stroke-miterlimit:10;}
	.st19{fill:#FFFFFF;stroke:#000000;stroke-width:14.7439;stroke-linecap:round;stroke-miterlimit:10;}
	.st20{fill:#FFFFFF;stroke:#000000;stroke-width:14.7439;stroke-miterlimit:10;}
	.st21{stroke:#000000;stroke-width:13.9262;stroke-linecap:round;stroke-miterlimit:10;}
	
		.st22{display:inline;fill:#FFFFFF;stroke:#000000;stroke-width:14.6942;stroke-linecap:round;stroke-linejoin:round;stroke-miterlimit:10;}
	.st23{fill:#FFFFFF;stroke:#000000;stroke-width:14.6942;stroke-linecap:round;stroke-linejoin:round;stroke-miterlimit:10;}
	.st24{fill:none;stroke:#000000;stroke-width:24;stroke-linejoin:round;stroke-miterlimit:10;}
	.st25{fill:none;stroke:#000000;stroke-width:30.5612;stroke-linecap:round;stroke-linejoin:round;stroke-miterlimit:10;}
	.st26{fill:#FFFFFF;stroke:#000000;stroke-width:16.2993;stroke-linecap:round;stroke-linejoin:round;stroke-miterlimit:10;}
	.st27{display:inline;fill:#FFFFFF;stroke:#000000;stroke-width:13.497;stroke-linecap:round;stroke-miterlimit:10;}
	
		.st28{display:inline;fill:none;stroke:#000000;stroke-width:13.497;stroke-linecap:round;stroke-linejoin:round;stroke-miterlimit:10;}
	
		.st29{display:inline;fill:#FFFFFF;stroke:#000000;stroke-width:13.497;stroke-linecap:round;stroke-linejoin:round;stroke-miterlimit:10;}
	
		.st30{display:inline;fill:url(#);stroke:#000000;stroke-width:13.497;stroke-linecap:round;stroke-linejoin:round;stroke-miterlimit:10;}
	.st31{fill:#FFFFFF;stroke:#000000;stroke-width:15.2362;stroke-linecap:round;stroke-linejoin:round;stroke-miterlimit:10;}
	.st32{fill:#FFFFFF;stroke:#000000;stroke-width:14.8467;stroke-linecap:round;stroke-linejoin:round;stroke-miterlimit:10;}
	.st33{stroke:#000000;stroke-width:20.1683;stroke-linecap:round;stroke-miterlimit:10;}
	.st34{fill:none;stroke:#000000;stroke-width:14.8467;stroke-linecap:round;stroke-linejoin:round;stroke-miterlimit:10;}
	.st35{fill:#FFFFFF;stroke:#FFFFFF;stroke-width:3;stroke-miterlimit:10;}
	.st36{display:inline;fill:none;stroke:#000000;stroke-width:15;stroke-linecap:round;stroke-linejoin:round;stroke-miterlimit:10;}
	
		.st37{display:inline;fill:#FFFFFF;stroke:#000000;stroke-width:15;stroke-linecap:round;stroke-linejoin:round;stroke-miterlimit:10;}
	.st38{fill:#FFFFFF;stroke:#000000;stroke-width:15;stroke-linecap:round;stroke-linejoin:round;stroke-miterlimit:10;}
	.st39{fill:#FFFFFF;stroke:#000000;stroke-width:11.7326;stroke-linecap:round;stroke-linejoin:round;stroke-miterlimit:10;}
	.st40{fill:#FFFFFF;stroke:#000000;stroke-width:13.2623;stroke-linecap:round;stroke-linejoin:round;stroke-miterlimit:10;}
	.st41{font-family:'FoundersGrotesk-Bold';}
	.st42{font-size:156.4135px;}
	.st43{font-size:197.042px;}
	.st44{fill:none;stroke:#000000;stroke-width:16;stroke-linecap:round;stroke-miterlimit:10;}
	.st45{fill:url(#);stroke:#000000;stroke-width:16;stroke-linecap:round;stroke-linejoin:round;stroke-miterlimit:10;}
	.st46{fill:#FFFFFF;stroke:#000000;stroke-width:16;stroke-linecap:round;stroke-miterlimit:10;}
	.st47{fill:#FFFFFF;stroke:#000000;stroke-width:13.2623;stroke-linecap:round;stroke-miterlimit:10;}
	.st48{stroke:#000000;stroke-width:4.5213;stroke-miterlimit:10;}
	.st49{fill:none;stroke:#000000;stroke-width:15.2344;stroke-linecap:round;stroke-linejoin:round;stroke-miterlimit:10;}
	.st50{fill:#FFFFFF;stroke:#000000;stroke-width:15.2344;stroke-linecap:round;stroke-linejoin:round;stroke-miterlimit:10;}
	.st51{stroke:#000000;stroke-width:18.3348;stroke-linecap:round;stroke-miterlimit:10;}
	.st52{fill:none;stroke:#000000;stroke-width:13.497;stroke-linecap:round;stroke-linejoin:round;stroke-miterlimit:10;}
	.st53{font-size:20.6105px;}
	.st54{font-size:10.3052px;}
	.st55{font-size:19.2364px;}
	.st56{font-size:10px;}
	.st57{display:inline;fill:none;stroke:#000000;stroke-width:16;stroke-linecap:round;stroke-linejoin:round;stroke-miterlimit:10;}
	.st58{fill:#FFFFFF;stroke:#000000;stroke-width:13.3058;stroke-linecap:round;stroke-linejoin:round;stroke-miterlimit:10;}
	.st59{fill:#FFFFFF;stroke:#000000;stroke-width:17;stroke-linecap:round;stroke-linejoin:round;stroke-miterlimit:10;}
	.st60{fill:#FFFFFF;stroke:#000000;stroke-width:15.2517;stroke-linecap:round;stroke-linejoin:round;stroke-miterlimit:10;}
	.st61{stroke:#000000;stroke-width:3;stroke-miterlimit:10;}
	.st62{fill:#FFFFFF;stroke:#000000;stroke-width:16.0686;stroke-linecap:round;stroke-linejoin:round;stroke-miterlimit:10;}
	.st63{fill:#FFFFFF;stroke:#000000;stroke-width:15;stroke-linejoin:round;stroke-miterlimit:10;}
	.st64{fill:url(#);stroke:#000000;stroke-width:13.497;stroke-linecap:round;stroke-linejoin:round;stroke-miterlimit:10;}
	.st65{fill:#06A6FF;}
	.st66{fill:#FF0303;}
	.st67{fill:#3DFF06;}
	.st68{fill:#FFF808;}
	.st69{fill:none;stroke:#000000;stroke-width:0;stroke-linecap:round;stroke-linejoin:round;}
</style>
<g id="unexpanded" class="st0">
	<g class="st1">
		<g>
			<g>
				<text transform="matrix(1 0 0 1 210.0293 164.2469)" class="st41 st42">KEEP</text>
			</g>
		</g>
		<g>
			<g>
				<text transform="matrix(1 0 0 1 59.1709 317.5034)" class="st41 st42">FAMILIES</text>
			</g>
		</g>
		<g>
			<text transform="matrix(1 0 0 1 -0.9336 496.2734)" class="st41 st43">Together</text>
		</g>
	</g>
	<g class="st1">
		<g>
			<text transform="matrix(1 0 0 1 258.9681 599.7979)"><tspan x="0" y="0" class="st41 st53">www</tspan><tspan x="45.14" y="0" class="st41 st54"> </tspan><tspan x="46.99" y="0" class="st41 st53">.</tspan><tspan x="51.77" y="0" class="st41 st54"> </tspan><tspan x="53.63" y="0" class="st41 st53">Capitalism</tspan><tspan x="150.43" y="0" class="st41 st55"> </tspan><tspan x="153.9" y="0" class="st41 st53">Is</tspan><tspan x="168.88" y="0" class="st41 st55"> </tspan><tspan x="172.34" y="0" class="st41 st53">A</tspan><tspan x="186.6" y="0" class="st41 st54"> </tspan><tspan x="188.46" y="0" class="st41 st53">Virus</tspan><tspan x="236.15" y="0" class="st41 st54"> </tspan><tspan x="238.01" y="0" class="st41 st53">.</tspan><tspan x="242.79" y="0" class="st41 st54"> </tspan><tspan x="244.64" y="0" class="st41 st53">org</tspan></text>
		</g>
		<g>
			<text transform="matrix(1 0 0 1 299.1799 22.1245)"><tspan x="0" y="0" class="st41 st53">#</tspan><tspan x="12.7" y="0" class="st41 st56"> </tspan><tspan x="14.5" y="0" class="st41 st53">Capitalism</tspan><tspan x="111.3" y="0" class="st41 st56"> </tspan><tspan x="113.1" y="0" class="st41 st53">Is</tspan><tspan x="128.09" y="0" class="st41 st56"> </tspan><tspan x="129.89" y="0" class="st41 st53">A</tspan><tspan x="144.15" y="0" class="st41 st56"> </tspan><tspan x="145.95" y="0" class="st41 st53">Virus</tspan></text>
		</g>
	</g>
</g>
<g id="expanded">
	<polygon points="217.54,65.7 217.54,164.25 244.13,164.25 244.13,134.37 252.73,124.99 280.1,164.25 311.86,164.25 271.97,107.62 
		309.98,65.7 279.48,65.7 244.13,105.59 244.13,65.7 	"/>
	<polygon points="317.8,164.25 395.38,164.25 395.38,142.35 343.92,142.35 343.92,125.3 382.55,125.3 382.55,103.71 343.92,103.71 
		343.92,87.6 393.97,87.6 393.97,65.7 317.8,65.7 	"/>
	<polygon points="407.26,164.25 484.85,164.25 484.85,142.35 433.39,142.35 433.39,125.3 472.02,125.3 472.02,103.71 433.39,103.71 
		433.39,87.6 483.44,87.6 483.44,65.7 407.26,65.7 	"/>
	<path d="M540.06,65.7h-43.33v98.54h26.43v-30.81h16.89c25.81,0,40.83-12.04,40.83-33.94C580.88,77.75,565.87,65.7,540.06,65.7z
		 M538.81,112.16h-15.64V86.98h15.64c11.89,0,16.42,4.38,16.42,12.67S550.7,112.16,538.81,112.16z"/>
	<polygon points="147.78,240.86 147.78,218.96 73.33,218.96 73.33,317.5 99.92,317.5 99.92,281.37 135.89,281.37 135.89,259.79 
		99.92,259.79 99.92,240.86 	"/>
	<path d="M179.22,218.96l-39.26,98.54h26.75l7.35-19.08h38.48l7.35,19.08h28.31l-39.26-98.54H179.22z M181.72,278.56l11.26-29.09
		h0.63l11.26,29.09H181.72z"/>
	<polygon points="311.39,280.9 296.84,218.96 255.7,218.96 255.7,317.5 280.1,317.5 280.1,248.21 280.73,248.21 298.4,317.5 
		321.08,317.5 338.76,248.21 339.38,248.21 339.38,317.5 365.98,317.5 365.98,218.96 325.78,218.96 311.86,280.9 	"/>
	<rect x="380.99" y="218.96" width="26.59" height="98.54"/>
	<polygon points="449.18,218.96 422.59,218.96 422.59,317.5 497.99,317.5 497.99,295.6 449.18,295.6 	"/>
	<rect x="509.4" y="218.96" width="26.59" height="98.54"/>
	<polygon points="627.18,240.86 627.18,218.96 551,218.96 551,317.5 628.59,317.5 628.59,295.6 577.13,295.6 577.13,278.56 
		615.76,278.56 615.76,256.97 577.13,256.97 577.13,240.86 	"/>
	<path d="M721.5,287.94c0-16.11-9.38-26.9-30.03-30.5l-18.61-3.29c-6.1-1.09-9.85-2.82-9.85-7.35c0-5.47,5-8.92,13.76-8.92
		c10.17,0,17.52,4.69,18.3,14.86l24.4-0.47c-0.47-21.9-15.17-35.19-42.39-35.19c-24.56,0-40.2,12.04-40.2,32.07
		c0,17.21,11.26,26.28,27.37,29.25l17.99,3.13c7.51,1.41,13.29,2.35,13.29,8.13c0,5.47-5.94,8.76-15.17,8.76
		c-10.95,0-20.49-4.22-21.43-16.58l-24.4,0.78c0,23.78,19.08,36.76,45.83,36.76C703.35,319.38,721.5,308.9,721.5,287.94z"/>
	<polygon points="90.69,496.27 90.69,399.73 133.84,399.73 133.84,372.14 14.83,372.14 14.83,399.73 57.39,399.73 57.39,496.27 	"/>
	<path d="M171.08,498.64c28.57,0,48.08-18.92,48.08-46.3c0-27.19-19.51-46.3-48.08-46.3c-28.77,0-48.08,19.11-48.08,46.3
		C123,479.72,142.31,498.64,171.08,498.64z M171.08,430.07c11.03,0,15.96,9.06,15.96,22.26s-4.93,22.27-15.96,22.27
		c-11.23,0-15.96-9.06-15.96-22.27S159.85,430.07,171.08,430.07z"/>
	<path d="M324.97,498.24c0-14.78-10.05-25.22-29.95-25.22h-36.45c-5.32,0-7.49-2.37-7.49-5.32c0-1.77,0.59-3.15,1.77-4.14
		c5.71,1.77,12.02,2.56,19.11,2.56c24.83,0,42.76-11.43,42.76-29.95c0-4.14-0.99-7.88-2.76-11.23c4.33-0.99,9.06-1.38,12.81-1.38
		v-24.04c-9.65,0-19.31,6.31-24.63,13.6c-7.49-4.53-17.54-7.09-28.18-7.09c-24.63,0-42.36,11.43-42.36,30.15
		c0,9.65,4.73,17.14,12.61,22.26c-9.46,3.55-14.97,10.05-14.97,18.52c0,7.49,4.73,14.58,12.61,17.14
		c-9.85,0.79-16.75,6.9-16.75,14.58c0,16.55,21.67,21.48,46.7,21.48C298.37,530.16,324.97,520.12,324.97,498.24z M272.36,423.57
		c5.32,0,9.26,4.93,9.26,12.61c0,7.88-3.94,12.81-9.26,12.81c-5.32,0-9.26-4.93-9.26-12.81
		C263.1,428.49,267.04,423.57,272.36,423.57z M270,513.61c-11.82,0-20.69-1.77-20.69-8.08c0-3.35,2.36-5.32,5.91-5.32h32.31
		c5.32,0,8.08,1.38,8.08,5.12C295.61,510.66,284.77,513.61,270,513.61z"/>
	<path d="M393.54,464.94c-2.96,6.9-8.47,9.85-17.14,9.85c-9.65,0-17.54-5.12-18.32-15.96h61.67v-8.87
		c0-23.84-15.57-43.94-44.92-43.94c-27.39,0-47.88,19.9-47.88,47.68c0,27.98,20.1,44.92,48.27,44.92
		c23.25,0,39.41-11.23,43.94-31.33L393.54,464.94z M374.43,428.89c9.46,0,14.58,6.7,14.97,14.58h-30.93
		C359.65,435.19,364.18,428.89,374.43,428.89z"/>
	<path d="M435.91,471.84c0,20.69,13.99,26.8,28.77,26.8c12.02,0,19.7-2.96,26.4-7.88v-20.69c-5.32,2.17-9.65,2.96-13.6,2.96
		c-6.5,0-10.05-2.96-10.05-10.44v-32.12h22.86v-22.07h-22.86v-24.24h-20.1l-2.96,11.43c-2.17,8.08-4.93,12.81-13.79,14.19l-6.5,0.99
		v19.7h11.82V471.84z"/>
	<path d="M595.31,496.27V441.1c0-18.33-7.68-35.07-31.72-35.07c-13.2,0-23.64,5.91-28.37,15.57v-49.46h-31.92v124.13h31.92v-43.15
		c0-13.2,4.33-21.87,15.17-21.87c9.65,0,13,6.31,13,18.33v46.7H595.31z"/>
	<path d="M654.81,406.03c-27.39,0-47.88,19.9-47.88,47.68c0,27.98,20.1,44.92,48.27,44.92c23.25,0,39.41-11.23,43.94-31.33
		l-25.62-2.36c-2.96,6.9-8.47,9.85-17.14,9.85c-9.65,0-17.54-5.12-18.32-15.96h61.67v-8.87
		C699.74,426.13,684.17,406.03,654.81,406.03z M638.46,443.47c1.18-8.28,5.71-14.58,15.96-14.58c9.46,0,14.58,6.7,14.97,14.58
		H638.46z"/>
	<path d="M744.66,423.96v-15.57h-31.92v87.88h31.92v-40.2c0-14.78,7.29-20.29,19.11-20.29c6.11,0,10.84,1.18,15.17,3.74l1.97-30.15
		c-2.17-1.77-6.9-3.35-12.22-3.35C757.07,406.03,747.81,414.11,744.66,423.96z"/>
	<polygon points="304.2,590.6 301.19,590.6 299.54,595.82 299.46,595.82 298.12,590.6 295.46,590.6 294.12,595.82 294.04,595.82 
		292.39,590.6 289.16,590.6 289.07,590.6 286.15,590.6 284.5,595.82 284.41,595.82 283.07,590.6 280.41,590.6 279.07,595.82 
		278.99,595.82 277.34,590.6 274.11,590.6 274.02,590.6 271.1,590.6 269.45,595.82 269.37,595.82 268.03,590.6 265.37,590.6 
		264.03,595.82 263.95,595.82 262.3,590.6 258.98,590.6 261.88,599.8 265.16,599.8 266.5,594.6 266.58,594.6 267.92,599.8 
		271.2,599.8 274.07,590.74 276.93,599.8 280.21,599.8 281.55,594.6 281.63,594.6 282.97,599.8 286.25,599.8 289.11,590.74 
		291.98,599.8 295.25,599.8 296.59,594.6 296.68,594.6 298.02,599.8 301.29,599.8 	"/>
	<rect x="306.63" y="596.25" width="3.55" height="3.55"/>
	<path d="M319.72,600.04c3.98,0,6.1-2.51,6.35-5.75l-3.36-0.14c-0.21,1.44-0.99,2.78-3.01,2.78c-1.92,0-3.03-1.42-3.03-3.63
		c0-2.21,1.11-3.63,3.03-3.63c2.02,0,2.8,1.34,3.01,2.78l3.36-0.12c-0.25-3.24-2.37-5.77-6.35-5.77c-3.79,0-6.66,2.74-6.66,6.74
		C313.06,597.3,315.93,600.04,319.72,600.04z"/>
	<path d="M329.78,600c1.46,0,2.51-0.56,3.05-1.63c0.31,1.05,1.2,1.63,2.33,1.63c0.95,0,1.61-0.27,2.08-0.6v-1.77
		c-0.27,0.1-0.47,0.14-0.74,0.14c-0.35,0-0.56-0.21-0.56-0.68v-3.13c0-2.56-1.79-3.61-4.23-3.61c-2.76,0-4.27,1.4-4.56,3.42
		l3.09,0.21c0.14-0.68,0.52-1.15,1.26-1.15c0.8,0,1.15,0.45,1.15,1.22v0.14l-2.58,0.43c-2,0.35-3.28,1.11-3.28,2.89
		C326.81,599.08,327.98,600,329.78,600z M331.3,596.07l1.36-0.25v0.14c0,1.2-0.76,1.9-1.71,1.9c-0.56,0-0.93-0.31-0.93-0.78
		C330.02,596.48,330.5,596.23,331.3,596.07z"/>
	<path d="M341.54,598.23c0.45,1.07,1.48,1.81,3.03,1.81c2.7,0,4.08-2.12,4.08-4.84c0-2.7-1.38-4.84-4.08-4.84
		c-1.55,0-2.58,0.74-3.03,1.83v-1.59h-3.34v12.49h3.34V598.23z M341.54,595.14c0-1.32,0.72-2.18,1.85-2.18c1.3,0,1.9,0.93,1.9,2.25
		c0,1.34-0.6,2.27-1.9,2.27c-1.13,0-1.85-0.87-1.85-2.21V595.14z"/>
	<rect x="349.95" y="586.81" width="3.38" height="2.93"/>
	<rect x="349.97" y="590.6" width="3.34" height="9.19"/>
	<path d="M355.46,597.24c0,2.16,1.46,2.8,3.01,2.8c1.26,0,2.06-0.31,2.76-0.82v-2.16c-0.56,0.23-1.01,0.31-1.42,0.31
		c-0.68,0-1.05-0.31-1.05-1.09v-3.36h2.39v-2.31h-2.39v-2.54h-2.1l-0.31,1.2c-0.23,0.85-0.52,1.34-1.44,1.48l-0.68,0.1v2.06h1.24
		V597.24z"/>
	<path d="M364.94,600c1.46,0,2.51-0.56,3.05-1.63c0.31,1.05,1.2,1.63,2.33,1.63c0.95,0,1.61-0.27,2.08-0.6v-1.77
		c-0.27,0.1-0.47,0.14-0.74,0.14c-0.35,0-0.56-0.21-0.56-0.68v-3.13c0-2.56-1.79-3.61-4.23-3.61c-2.76,0-4.27,1.4-4.56,3.42
		l3.09,0.21c0.14-0.68,0.52-1.15,1.26-1.15c0.8,0,1.15,0.45,1.15,1.22v0.14l-2.58,0.43c-2,0.35-3.28,1.11-3.28,2.89
		C361.97,599.08,363.14,600,364.94,600z M366.46,596.07l1.36-0.25v0.14c0,1.2-0.76,1.9-1.71,1.9c-0.56,0-0.93-0.31-0.93-0.78
		C365.18,596.48,365.66,596.23,366.46,596.07z"/>
	<rect x="373.37" y="586.81" width="3.34" height="12.99"/>
	<rect x="378.5" y="586.81" width="3.38" height="2.93"/>
	<rect x="378.52" y="590.6" width="3.34" height="9.19"/>
	<path d="M387.67,597.96c-1.01,0-1.63-0.43-1.75-1.2l-2.91,0.04c0.19,2.23,2.08,3.24,4.62,3.24c2.62,0,4.27-1.11,4.27-3.05
		c0-1.79-1.2-2.72-3.26-3.05l-1.79-0.31c-0.31-0.04-0.56-0.21-0.56-0.51c0-0.41,0.37-0.66,1.01-0.66c1.03,0,1.61,0.41,1.73,1.07
		l2.74-0.08c-0.19-1.92-1.75-3.09-4.41-3.09c-2.58,0-4.16,1.3-4.16,3.11c0,1.88,1.17,2.6,3.4,2.95l1.36,0.21
		c0.64,0.1,0.85,0.35,0.85,0.7C388.8,597.7,388.41,597.96,387.67,597.96z"/>
	<path d="M393.17,590.6v9.19h3.34v-4.51c0-1.38,0.39-2.29,1.48-2.29c1.01,0,1.26,0.66,1.26,1.92v4.89h3.34v-4.51
		c0-1.38,0.37-2.29,1.48-2.29c1.01,0,1.24,0.66,1.24,1.92v4.89h3.34v-5.77c0-1.92-0.74-3.67-3.28-3.67c-1.55,0-2.64,0.78-3.13,1.81
		c-0.39-1.07-1.24-1.81-2.87-1.81c-1.38,0-2.37,0.62-2.87,1.63v-1.38H393.17z"/>
	<rect x="413.91" y="586.81" width="3.5" height="12.99"/>
	<path d="M424.27,593.94l-1.79-0.31c-0.31-0.04-0.56-0.21-0.56-0.51c0-0.41,0.37-0.66,1.01-0.66c1.03,0,1.61,0.41,1.73,1.07
		l2.74-0.08c-0.19-1.92-1.75-3.09-4.41-3.09c-2.58,0-4.16,1.3-4.16,3.11c0,1.88,1.17,2.6,3.4,2.95l1.36,0.21
		c0.64,0.1,0.84,0.35,0.84,0.7c0,0.37-0.39,0.64-1.13,0.64c-1.01,0-1.63-0.43-1.75-1.2l-2.91,0.04c0.19,2.23,2.08,3.24,4.62,3.24
		c2.62,0,4.27-1.11,4.27-3.05C427.53,595.2,426.33,594.27,424.27,593.94z"/>
	<path d="M440.45,586.81h-3.92l-5.17,12.99h3.53l0.97-2.51h5.07l0.97,2.51h3.73L440.45,586.81z M436.87,594.67l1.48-3.83h0.08
		l1.48,3.83H436.87z"/>
	<polygon points="457.66,586.81 454.45,595.45 454.36,595.45 451.15,586.81 447.48,586.81 452.47,599.8 456.16,599.8 461.15,586.81 
			"/>
	<rect x="462.05" y="590.6" width="3.34" height="9.19"/>
	<rect x="462.03" y="586.81" width="3.38" height="2.93"/>
	<path d="M474.13,593.86l0.21-3.15c-0.23-0.19-0.72-0.35-1.28-0.35c-1.22,0-2.19,0.84-2.52,1.88v-1.63h-3.34v9.19h3.34v-4.21
		c0-1.55,0.76-2.12,2-2.12C473.18,593.47,473.68,593.59,474.13,593.86z"/>
	<path d="M484.77,590.6h-3.34v4.51c0,1.4-0.41,2.31-1.46,2.31c-1.01,0-1.36-0.68-1.36-1.92v-4.91h-3.34v5.79
		c0,1.92,0.76,3.65,3.28,3.65c1.38,0,2.39-0.6,2.89-1.63v1.38h3.34V590.6z"/>
	<path d="M494.8,596.99c0-1.79-1.2-2.72-3.26-3.05l-1.79-0.31c-0.31-0.04-0.56-0.21-0.56-0.51c0-0.41,0.37-0.66,1.01-0.66
		c1.03,0,1.61,0.41,1.73,1.07l2.74-0.08c-0.19-1.92-1.75-3.09-4.41-3.09c-2.58,0-4.16,1.3-4.16,3.11c0,1.88,1.18,2.6,3.4,2.95
		l1.36,0.21c0.64,0.1,0.84,0.35,0.84,0.7c0,0.37-0.39,0.64-1.13,0.64c-1.01,0-1.63-0.43-1.75-1.2l-2.91,0.04
		c0.19,2.23,2.08,3.24,4.62,3.24C493.15,600.04,494.8,598.93,494.8,596.99z"/>
	<rect x="497.64" y="596.25" width="3.55" height="3.55"/>
	<path d="M504.08,595.2c0,2.87,2.02,4.84,5.03,4.84c2.99,0,5.03-1.98,5.03-4.84c0-2.85-2.04-4.84-5.03-4.84
		C506.1,590.36,504.08,592.36,504.08,595.2z M510.77,595.2c0,1.38-0.52,2.33-1.67,2.33c-1.18,0-1.67-0.95-1.67-2.33
		c0-1.38,0.49-2.33,1.67-2.33C510.26,592.87,510.77,593.82,510.77,595.2z"/>
	<path d="M515.45,590.6v9.19h3.34v-4.21c0-1.55,0.76-2.12,2-2.12c0.64,0,1.13,0.12,1.59,0.39l0.21-3.15
		c-0.23-0.19-0.72-0.35-1.28-0.35c-1.22,0-2.19,0.84-2.51,1.88v-1.63H515.45z"/>
	<path d="M522.6,601.1c0,1.73,2.27,2.25,4.89,2.25c2.99,0,5.77-1.05,5.77-3.34c0-1.55-1.05-2.64-3.13-2.64h-3.81
		c-0.56,0-0.78-0.25-0.78-0.56c0-0.19,0.06-0.33,0.19-0.43c0.6,0.19,1.26,0.27,2,0.27c2.6,0,4.47-1.2,4.47-3.13
		c0-0.43-0.1-0.83-0.29-1.17c0.45-0.1,0.95-0.14,1.34-0.14v-2.52c-1.01,0-2.02,0.66-2.58,1.42c-0.78-0.47-1.83-0.74-2.95-0.74
		c-2.58,0-4.43,1.2-4.43,3.15c0,1.01,0.5,1.79,1.32,2.33c-0.99,0.37-1.57,1.05-1.57,1.94c0,0.78,0.49,1.53,1.32,1.79
		C523.33,599.65,522.6,600.29,522.6,601.1z M527.76,592.19c0.56,0,0.97,0.52,0.97,1.32c0,0.82-0.41,1.34-0.97,1.34
		s-0.97-0.52-0.97-1.34C526.79,592.71,527.2,592.19,527.76,592.19z M525.96,600.21h3.38c0.56,0,0.85,0.14,0.85,0.54
		c0,0.56-1.13,0.87-2.68,0.87c-1.24,0-2.16-0.18-2.16-0.84C525.35,600.42,525.59,600.21,525.96,600.21z"/>
	<path d="M300.03,16.64l-0.43,2.06h1.81l-0.8,3.42h2.49l0.8-3.42h1.77l-0.8,3.42h2.49l0.8-3.42h2.04l0.43-2.06h-1.98l0.49-2.02h1.88
		l0.43-2.06h-1.83l0.82-3.42h-2.49l-0.82,3.42h-1.77l0.82-3.42h-2.49l-0.82,3.42h-2.02l-0.43,2.06h1.98l-0.49,2.02H300.03z
		 M304.89,14.62h1.77l-0.5,2.02h-1.77L304.89,14.62z"/>
	<path d="M320.73,12c2.02,0,2.8,1.34,3.01,2.78l3.36-0.12c-0.25-3.24-2.37-5.77-6.35-5.77c-3.79,0-6.66,2.74-6.66,6.74
		s2.87,6.74,6.66,6.74c3.98,0,6.1-2.51,6.35-5.75l-3.36-0.14c-0.21,1.44-0.99,2.78-3.01,2.78c-1.92,0-3.03-1.42-3.03-3.63
		S318.81,12,320.73,12z"/>
	<path d="M331.11,16.95c-2,0.35-3.28,1.11-3.28,2.89c0,1.57,1.18,2.49,2.97,2.49c1.46,0,2.51-0.56,3.05-1.63
		c0.31,1.05,1.2,1.63,2.33,1.63c0.95,0,1.61-0.27,2.08-0.6v-1.77c-0.27,0.1-0.47,0.14-0.74,0.14c-0.35,0-0.56-0.21-0.56-0.68v-3.13
		c0-2.56-1.79-3.61-4.23-3.61c-2.76,0-4.27,1.4-4.56,3.42l3.09,0.21c0.14-0.68,0.52-1.16,1.26-1.16c0.8,0,1.15,0.45,1.15,1.22v0.14
		L331.11,16.95z M333.69,18.29c0,1.2-0.76,1.9-1.71,1.9c-0.56,0-0.93-0.31-0.93-0.78c0-0.6,0.47-0.84,1.28-1.01l1.36-0.25V18.29z"/>
	<path d="M339.23,12.93v12.49h3.34v-4.87c0.45,1.07,1.48,1.81,3.03,1.81c2.7,0,4.08-2.12,4.08-4.84c0-2.7-1.38-4.84-4.08-4.84
		c-1.55,0-2.58,0.74-3.03,1.83v-1.59H339.23z M344.43,15.28c1.3,0,1.9,0.93,1.9,2.25c0,1.34-0.6,2.27-1.9,2.27
		c-1.13,0-1.86-0.87-1.86-2.21v-0.12C342.57,16.15,343.29,15.28,344.43,15.28z"/>
	<rect x="351" y="12.93" width="3.34" height="9.19"/>
	<rect x="350.98" y="9.14" width="3.38" height="2.93"/>
	<path d="M357.68,10.39l-0.31,1.2c-0.23,0.85-0.52,1.34-1.44,1.48l-0.68,0.1v2.06h1.24v4.33c0,2.16,1.46,2.8,3.01,2.8
		c1.26,0,2.06-0.31,2.76-0.83v-2.16c-0.56,0.23-1.01,0.31-1.42,0.31c-0.68,0-1.05-0.31-1.05-1.09v-3.36h2.39v-2.31h-2.39v-2.54
		H357.68z"/>
	<path d="M366.27,16.95c-2,0.35-3.28,1.11-3.28,2.89c0,1.57,1.17,2.49,2.97,2.49c1.46,0,2.51-0.56,3.05-1.63
		c0.31,1.05,1.2,1.63,2.33,1.63c0.95,0,1.61-0.27,2.08-0.6v-1.77c-0.27,0.1-0.47,0.14-0.74,0.14c-0.35,0-0.56-0.21-0.56-0.68v-3.13
		c0-2.56-1.79-3.61-4.23-3.61c-2.76,0-4.27,1.4-4.56,3.42l3.09,0.21c0.14-0.68,0.52-1.16,1.26-1.16c0.8,0,1.15,0.45,1.15,1.22v0.14
		L366.27,16.95z M368.85,18.29c0,1.2-0.76,1.9-1.71,1.9c-0.56,0-0.93-0.31-0.93-0.78c0-0.6,0.47-0.84,1.28-1.01l1.36-0.25V18.29z"/>
	<rect x="374.39" y="9.14" width="3.34" height="12.99"/>
	<rect x="379.55" y="12.93" width="3.34" height="9.19"/>
	<rect x="379.53" y="9.14" width="3.38" height="2.93"/>
	<path d="M388.7,20.29c-1.01,0-1.63-0.43-1.75-1.2l-2.91,0.04c0.19,2.23,2.08,3.24,4.62,3.24c2.62,0,4.27-1.11,4.27-3.05
		c0-1.79-1.2-2.72-3.26-3.05l-1.79-0.31c-0.31-0.04-0.56-0.21-0.56-0.52c0-0.41,0.37-0.66,1.01-0.66c1.03,0,1.61,0.41,1.73,1.07
		l2.74-0.08c-0.19-1.92-1.75-3.09-4.41-3.09c-2.58,0-4.16,1.3-4.16,3.11c0,1.88,1.17,2.6,3.4,2.95l1.36,0.21
		c0.64,0.1,0.85,0.35,0.85,0.7C389.83,20.02,389.44,20.29,388.7,20.29z"/>
	<path d="M394.2,12.93v9.19h3.34v-4.52c0-1.38,0.39-2.29,1.48-2.29c1.01,0,1.26,0.66,1.26,1.92v4.89h3.34v-4.52
		c0-1.38,0.37-2.29,1.48-2.29c1.01,0,1.24,0.66,1.24,1.92v4.89h3.34v-5.77c0-1.92-0.74-3.67-3.28-3.67c-1.55,0-2.64,0.78-3.13,1.81
		c-0.39-1.07-1.24-1.81-2.87-1.81c-1.38,0-2.37,0.62-2.87,1.63v-1.38H394.2z"/>
	<rect x="413.27" y="9.14" width="3.5" height="12.99"/>
	<path d="M422.67,20.29c-1.01,0-1.63-0.43-1.75-1.2l-2.91,0.04c0.19,2.23,2.08,3.24,4.62,3.24c2.62,0,4.27-1.11,4.27-3.05
		c0-1.79-1.2-2.72-3.26-3.05l-1.79-0.31c-0.31-0.04-0.56-0.21-0.56-0.52c0-0.41,0.37-0.66,1.01-0.66c1.03,0,1.61,0.41,1.73,1.07
		l2.74-0.08c-0.19-1.92-1.75-3.09-4.41-3.09c-2.58,0-4.16,1.3-4.16,3.11c0,1.88,1.17,2.6,3.4,2.95l1.36,0.21
		c0.64,0.1,0.85,0.35,0.85,0.7C423.8,20.02,423.41,20.29,422.67,20.29z"/>
	<path d="M438.63,19.61l0.97,2.52h3.73l-5.17-12.99h-3.92l-5.17,12.99h3.53l0.97-2.52H438.63z M436.05,13.16h0.08l1.48,3.83h-3.05
		L436.05,13.16z"/>
	<polygon points="458.8,9.14 455.31,9.14 452.1,17.78 452.01,17.78 448.8,9.14 445.13,9.14 450.12,22.12 453.81,22.12 	"/>
	<rect x="459.7" y="12.93" width="3.34" height="9.19"/>
	<rect x="459.68" y="9.14" width="3.38" height="2.93"/>
	<path d="M464.85,12.93v9.19h3.34v-4.21c0-1.55,0.76-2.12,2-2.12c0.64,0,1.13,0.12,1.59,0.39l0.21-3.15
		c-0.23-0.19-0.72-0.35-1.28-0.35c-1.22,0-2.19,0.84-2.52,1.88v-1.63H464.85z"/>
	<path d="M472.91,12.93v5.79c0,1.92,0.76,3.65,3.28,3.65c1.38,0,2.39-0.6,2.89-1.63v1.38h3.34v-9.19h-3.34v4.51
		c0,1.4-0.41,2.31-1.46,2.31c-1.01,0-1.36-0.68-1.36-1.92v-4.91H472.91z"/>
	<path d="M488.22,20.29c-1.01,0-1.63-0.43-1.75-1.2l-2.91,0.04c0.19,2.23,2.08,3.24,4.62,3.24c2.62,0,4.27-1.11,4.27-3.05
		c0-1.79-1.2-2.72-3.26-3.05l-1.79-0.31c-0.31-0.04-0.56-0.21-0.56-0.52c0-0.41,0.37-0.66,1.01-0.66c1.03,0,1.61,0.41,1.73,1.07
		l2.74-0.08c-0.19-1.92-1.75-3.09-4.41-3.09c-2.58,0-4.16,1.3-4.16,3.11c0,1.88,1.18,2.6,3.4,2.95l1.36,0.21
		c0.64,0.1,0.84,0.35,0.84,0.7C489.36,20.02,488.97,20.29,488.22,20.29z"/>
</g>
</svg>
