<?xml version="1.0" encoding="utf-8"?>
<!-- Generator: Adobe Illustrator 23.1.1, SVG Export Plug-In . SVG Version: 6.00 Build 0)  -->
<svg version="1.1" xmlns="http://www.w3.org/2000/svg" xmlns:xlink="http://www.w3.org/1999/xlink" x="0px" y="0px"
	 viewBox="0 0 792 612" style="enable-background:new 0 0 792 612;" xml:space="preserve">
<style type="text/css">
	.st0{display:none;}
	.st1{display:inline;}
	.st2{font-family:'FoundersGrotesk-Bold';}
	.st3{font-size:217.859px;}
	
		.st4{display:inline;fill:#FFFFFF;stroke:#000000;stroke-width:16;stroke-linecap:round;stroke-linejoin:round;stroke-miterlimit:10;}
	.st5{fill:#FFFFFF;stroke:#000000;stroke-width:16;stroke-linecap:round;stroke-linejoin:round;stroke-miterlimit:10;}
	.st6{display:inline;fill:none;stroke:#000000;stroke-width:24;stroke-linejoin:round;stroke-miterlimit:10;}
	.st7{display:inline;fill:#FFFFFF;}
	.st8{fill:#FFFFFF;stroke:#000000;stroke-width:17;stroke-linecap:round;stroke-miterlimit:10;}
	.st9{fill:#FFFFFF;stroke:#000000;stroke-width:17;stroke-miterlimit:10;}
	.st10{stroke:#000000;stroke-width:16.0572;stroke-linecap:round;stroke-miterlimit:10;}
	.st11{fill:#FFFFFF;}
	.st12{fill:#FFFFFF;stroke:#000000;stroke-width:17.1072;stroke-linecap:round;stroke-linejoin:round;stroke-miterlimit:10;}
	.st13{stroke:#000000;stroke-width:17.1072;stroke-linecap:round;stroke-linejoin:round;stroke-miterlimit:10;}
	.st14{fill:#FFFFFF;stroke:#000000;stroke-width:14.7375;stroke-linecap:round;stroke-linejoin:round;stroke-miterlimit:10;}
	.st15{fill:none;stroke:#000000;stroke-width:14.7375;stroke-linecap:round;stroke-linejoin:round;stroke-miterlimit:10;}
	.st16{stroke:#000000;stroke-width:14.7375;stroke-linecap:round;stroke-linejoin:round;stroke-miterlimit:10;}
	.st17{fill:#FFFFFF;stroke:#000000;stroke-width:14.2911;stroke-linecap:round;stroke-linejoin:round;stroke-miterlimit:10;}
	.st18{fill:none;stroke:#000000;stroke-width:13.497;stroke-miterlimit:10;}
	.st19{fill:#FFFFFF;stroke:#000000;stroke-width:13.497;stroke-linecap:round;stroke-linejoin:round;stroke-miterlimit:10;}
	.st20{fill:#FFFFFF;stroke:#000000;stroke-width:13.497;stroke-miterlimit:10;}
	.st21{fill:#FFFFFF;stroke:#000000;stroke-width:14.7439;stroke-linecap:round;stroke-miterlimit:10;}
	.st22{fill:#FFFFFF;stroke:#000000;stroke-width:14.7439;stroke-miterlimit:10;}
	.st23{stroke:#000000;stroke-width:13.9262;stroke-linecap:round;stroke-miterlimit:10;}
	
		.st24{display:inline;fill:#FFFFFF;stroke:#000000;stroke-width:14.6942;stroke-linecap:round;stroke-linejoin:round;stroke-miterlimit:10;}
	.st25{fill:#FFFFFF;stroke:#000000;stroke-width:14.6942;stroke-linecap:round;stroke-linejoin:round;stroke-miterlimit:10;}
	.st26{fill:none;stroke:#000000;stroke-width:24;stroke-linejoin:round;stroke-miterlimit:10;}
	.st27{fill:none;stroke:#000000;stroke-width:30.5612;stroke-linecap:round;stroke-linejoin:round;stroke-miterlimit:10;}
	.st28{fill:#FFFFFF;stroke:#000000;stroke-width:16.2993;stroke-linecap:round;stroke-linejoin:round;stroke-miterlimit:10;}
	.st29{display:inline;fill:#FFFFFF;stroke:#000000;stroke-width:13.497;stroke-linecap:round;stroke-miterlimit:10;}
	
		.st30{display:inline;fill:none;stroke:#000000;stroke-width:13.497;stroke-linecap:round;stroke-linejoin:round;stroke-miterlimit:10;}
	
		.st31{display:inline;fill:#FFFFFF;stroke:#000000;stroke-width:13.497;stroke-linecap:round;stroke-linejoin:round;stroke-miterlimit:10;}
	
		.st32{display:inline;fill:url(#);stroke:#000000;stroke-width:13.497;stroke-linecap:round;stroke-linejoin:round;stroke-miterlimit:10;}
	.st33{fill:#FFFFFF;stroke:#000000;stroke-width:15.2362;stroke-linecap:round;stroke-linejoin:round;stroke-miterlimit:10;}
	.st34{fill:#FFFFFF;stroke:#000000;stroke-width:14.8467;stroke-linecap:round;stroke-linejoin:round;stroke-miterlimit:10;}
	.st35{stroke:#000000;stroke-width:20.1683;stroke-linecap:round;stroke-miterlimit:10;}
	.st36{fill:none;stroke:#000000;stroke-width:14.8467;stroke-linecap:round;stroke-linejoin:round;stroke-miterlimit:10;}
	.st37{fill:#FFFFFF;stroke:#FFFFFF;stroke-width:3;stroke-miterlimit:10;}
	.st38{display:inline;fill:none;stroke:#000000;stroke-width:15;stroke-linecap:round;stroke-linejoin:round;stroke-miterlimit:10;}
	
		.st39{display:inline;fill:#FFFFFF;stroke:#000000;stroke-width:15;stroke-linecap:round;stroke-linejoin:round;stroke-miterlimit:10;}
	.st40{fill:#FFFFFF;stroke:#000000;stroke-width:15;stroke-linecap:round;stroke-linejoin:round;stroke-miterlimit:10;}
	.st41{fill:#FFFFFF;stroke:#000000;stroke-width:11.7326;stroke-linecap:round;stroke-linejoin:round;stroke-miterlimit:10;}
	.st42{fill:#FFFFFF;stroke:#000000;stroke-width:13.2623;stroke-linecap:round;stroke-linejoin:round;stroke-miterlimit:10;}
	.st43{fill:none;stroke:#000000;stroke-width:16;stroke-linecap:round;stroke-miterlimit:10;}
	.st44{fill:url(#);stroke:#000000;stroke-width:16;stroke-linecap:round;stroke-linejoin:round;stroke-miterlimit:10;}
	.st45{fill:#FFFFFF;stroke:#000000;stroke-width:16;stroke-linecap:round;stroke-miterlimit:10;}
	.st46{fill:#FFFFFF;stroke:#000000;stroke-width:13.2623;stroke-linecap:round;stroke-miterlimit:10;}
	.st47{stroke:#000000;stroke-width:4.5213;stroke-miterlimit:10;}
	.st48{fill:none;stroke:#000000;stroke-width:15.2344;stroke-linecap:round;stroke-linejoin:round;stroke-miterlimit:10;}
	.st49{fill:#FFFFFF;stroke:#000000;stroke-width:15.2344;stroke-linecap:round;stroke-linejoin:round;stroke-miterlimit:10;}
	.st50{stroke:#000000;stroke-width:18.3348;stroke-linecap:round;stroke-miterlimit:10;}
	.st51{fill:none;stroke:#000000;stroke-width:13.497;stroke-linecap:round;stroke-linejoin:round;stroke-miterlimit:10;}
	.st52{font-size:20.6105px;}
	.st53{font-size:10.3052px;}
	.st54{font-size:19.2364px;}
	.st55{font-size:10px;}
	.st56{display:inline;fill:none;stroke:#000000;stroke-width:16;stroke-linecap:round;stroke-linejoin:round;stroke-miterlimit:10;}
	.st57{fill:#FFFFFF;stroke:#000000;stroke-width:13.3058;stroke-linecap:round;stroke-linejoin:round;stroke-miterlimit:10;}
	.st58{fill:#FFFFFF;stroke:#000000;stroke-width:17;stroke-linecap:round;stroke-linejoin:round;stroke-miterlimit:10;}
	.st59{fill:#FFFFFF;stroke:#000000;stroke-width:15.2517;stroke-linecap:round;stroke-linejoin:round;stroke-miterlimit:10;}
	.st60{stroke:#000000;stroke-width:3;stroke-miterlimit:10;}
	.st61{fill:#FFFFFF;stroke:#000000;stroke-width:16.0686;stroke-linecap:round;stroke-linejoin:round;stroke-miterlimit:10;}
	.st62{fill:#FFFFFF;stroke:#000000;stroke-width:15;stroke-linejoin:round;stroke-miterlimit:10;}
	.st63{fill:url(#);stroke:#000000;stroke-width:13.497;stroke-linecap:round;stroke-linejoin:round;stroke-miterlimit:10;}
	.st64{fill:#06A6FF;}
	.st65{fill:#FF0303;}
	.st66{fill:#3DFF06;}
	.st67{fill:#FFF808;}
	.st68{fill:none;stroke:#000000;stroke-width:0;stroke-linecap:round;stroke-linejoin:round;}
</style>
<g id="unexpanded" class="st0">
	<text transform="matrix(1 0 0 1 156.5605 194.5557)" class="st1 st2 st3">ART </text>
	<text transform="matrix(1 0 0 1 97.1924 375.335)" class="st1 st2 st3">Builds</text>
	<g class="st1">
		<text transform="matrix(1 0 0 1 30.082 562.1731)" class="st2 st3">POWER</text>
	</g>
	<g class="st1">
		<g>
			<text transform="matrix(1 0 0 1 258.9679 599.7979)"><tspan x="0" y="0" class="st2 st52">www</tspan><tspan x="45.14" y="0" class="st2 st53"> </tspan><tspan x="46.99" y="0" class="st2 st52">.</tspan><tspan x="51.77" y="0" class="st2 st53"> </tspan><tspan x="53.63" y="0" class="st2 st52">Capitalism</tspan><tspan x="150.43" y="0" class="st2 st54"> </tspan><tspan x="153.9" y="0" class="st2 st52">Is</tspan><tspan x="168.88" y="0" class="st2 st54"> </tspan><tspan x="172.34" y="0" class="st2 st52">A</tspan><tspan x="186.6" y="0" class="st2 st53"> </tspan><tspan x="188.46" y="0" class="st2 st52">Virus</tspan><tspan x="236.15" y="0" class="st2 st53"> </tspan><tspan x="238.01" y="0" class="st2 st52">.</tspan><tspan x="242.79" y="0" class="st2 st53"> </tspan><tspan x="244.64" y="0" class="st2 st52">org</tspan></text>
		</g>
		<g>
			<text transform="matrix(1 0 0 1 299.1802 22.1245)"><tspan x="0" y="0" class="st2 st52">#</tspan><tspan x="12.7" y="0" class="st2 st55"> </tspan><tspan x="14.5" y="0" class="st2 st52">Capitalism</tspan><tspan x="111.3" y="0" class="st2 st55"> </tspan><tspan x="113.1" y="0" class="st2 st52">Is</tspan><tspan x="128.09" y="0" class="st2 st55"> </tspan><tspan x="129.89" y="0" class="st2 st52">A</tspan><tspan x="144.15" y="0" class="st2 st55"> </tspan><tspan x="145.95" y="0" class="st2 st52">Virus</tspan></text>
		</g>
	</g>
</g>
<g id="expanded">
	<path d="M194.9,194.56l10.24-26.58h53.59l10.24,26.58h39.43L253.73,57.3h-41.39l-54.68,137.25H194.9z M231.51,99.78h0.87
		l15.69,40.52h-32.24L231.51,99.78z"/>
	<path d="M318.86,194.56h36.38v-45.53h24.62c12.42,0,19.17,3.49,20.26,19.17c1.09,14.16,2.83,22.66,5.67,26.36h37.47
		c-4.58-5.01-5.23-11.11-7.19-31.59c-1.53-15.9-9.8-23.97-23.96-26.8c16.78-2.18,29.19-15.25,29.19-35.29
		c0-26.8-17.65-43.57-53.16-43.57h-69.28V194.56z M355.25,86.93h26.36c15.69,0,23.53,5.88,23.53,16.99
		c0,12.64-7.84,16.56-23.53,16.56h-26.36V86.93z"/>
	<polygon points="450.45,87.8 497.51,87.8 497.51,194.56 534.33,194.56 534.33,87.8 582.04,87.8 582.04,57.3 450.45,57.3 	"/>
	<path d="M225.73,275.99c0-23.09-15.9-37.91-51.2-37.91h-66.88v137.25h71.46c32.03,0,50.76-13.94,50.76-37.69
		c0-19.61-12.42-30.28-28.54-33.55C215.93,301.7,225.73,291.24,225.73,275.99z M143.6,267.49h26.14c12.64,0,17.65,5.66,17.65,12.85
		c0,6.54-5.01,12.2-17.65,12.2H143.6V267.49z M173.23,345.71H143.6v-25.49h29.41c13.07,0,18.74,5.45,18.74,12.85
		C191.75,340.48,186.08,345.71,173.23,345.71z"/>
	<path d="M243.59,278.17v61.22c0,20.26,8.06,38.56,34.64,38.56c14.6,0,25.27-6.32,30.5-17.21v14.6h35.29v-97.17h-35.29v47.71
		c0,14.81-4.36,24.4-15.47,24.4c-10.68,0-14.38-7.19-14.38-20.26v-51.85H243.59z"/>
	<rect x="362.98" y="238.08" width="35.73" height="30.94"/>
	<rect x="363.2" y="278.17" width="35.29" height="97.17"/>
	<rect x="417.66" y="238.08" width="35.29" height="137.25"/>
	<path d="M541.84,358.78v16.56h35.29V238.08h-35.29v56.86c-4.58-11.55-15.69-19.39-31.81-19.39c-28.76,0-43.14,22.66-43.14,51.2
		c0,28.76,14.38,51.2,43.14,51.2C526.16,377.95,537.27,370.11,541.84,358.78z M522.45,350.72c-13.94,0-20.04-9.8-20.04-23.97
		c0-13.94,6.1-23.75,20.04-23.75c11.76,0,19.39,9.15,19.39,23.09v1.31C541.84,341.57,534.22,350.72,522.45,350.72z"/>
	<path d="M638.57,355.95c-10.67,0-17.21-4.58-18.52-12.64l-30.72,0.44c1.96,23.53,22,34.2,48.8,34.2c27.67,0,45.1-11.76,45.1-32.24
		c0-18.95-12.64-28.76-34.42-32.24l-18.95-3.27c-3.27-0.44-5.88-2.18-5.88-5.45c0-4.36,3.92-6.97,10.68-6.97
		c10.89,0,16.99,4.36,18.3,11.33l28.98-0.87c-1.96-20.26-18.52-32.68-46.62-32.68c-27.23,0-44.01,13.73-44.01,32.9
		c0,19.83,12.42,27.45,35.95,31.15l14.38,2.18c6.75,1.09,8.93,3.7,8.93,7.41C650.55,353.11,646.41,355.95,638.57,355.95z"/>
	<path d="M77.9,519.25h23.53c35.95,0,56.86-16.78,56.86-47.28c0-30.28-20.92-47.06-56.86-47.06H41.08v137.25H77.9V519.25z
		 M77.9,454.55h21.79c16.56,0,22.88,6.1,22.88,17.65s-6.32,17.43-22.88,17.43H77.9V454.55z"/>
	<path d="M236.5,422.3c-39.87,0-71.24,28.98-71.24,71.24c0,42.27,31.37,71.24,71.24,71.24c39.87,0,71.24-28.98,71.24-71.24
		C307.74,451.28,276.37,422.3,236.5,422.3z M236.5,532.11c-20.26,0-33.12-15.25-33.12-38.56s12.85-38.56,33.12-38.56
		c20.26,0,33.12,15.25,33.12,38.56S256.76,532.11,236.5,532.11z"/>
	<polygon points="470.92,424.92 449.13,510.97 448.26,510.97 425.6,424.92 392.27,424.92 369.61,510.97 368.74,510.97 
		346.95,424.92 309.92,424.92 345.86,562.17 384.64,562.17 407.52,475.46 408.39,475.46 431.27,562.17 470.7,562.17 506.65,424.92 	
		"/>
	<polygon points="625.16,531.67 553.48,531.67 553.48,507.92 607.29,507.92 607.29,477.86 553.48,477.86 553.48,455.42 
		623.2,455.42 623.2,424.92 517.1,424.92 517.1,562.17 625.16,562.17 	"/>
	<path d="M641.71,562.17h36.38v-45.53h24.62c12.42,0,19.17,3.49,20.26,19.17c1.09,14.16,2.83,22.66,5.67,26.36h37.47
		c-4.58-5.01-5.23-11.11-7.19-31.59c-1.53-15.9-9.8-23.97-23.96-26.8c16.78-2.18,29.19-15.25,29.19-35.29
		c0-26.8-17.65-43.57-53.16-43.57h-69.28V562.17z M678.1,454.55h26.36c15.69,0,23.53,5.88,23.53,16.99
		c0,12.64-7.84,16.56-23.53,16.56H678.1V454.55z"/>
	<polygon points="299.46,595.82 298.12,590.6 295.46,590.6 294.12,595.82 294.04,595.82 292.39,590.6 289.15,590.6 289.07,590.6 
		286.14,590.6 284.5,595.82 284.41,595.82 283.07,590.6 280.41,590.6 279.07,595.82 278.99,595.82 277.34,590.6 274.11,590.6 
		274.02,590.6 271.1,590.6 269.45,595.82 269.37,595.82 268.03,590.6 265.37,590.6 264.03,595.82 263.95,595.82 262.3,590.6 
		258.98,590.6 261.88,599.8 265.16,599.8 266.5,594.6 266.58,594.6 267.92,599.8 271.2,599.8 274.07,590.74 276.93,599.8 
		280.21,599.8 281.55,594.6 281.63,594.6 282.97,599.8 286.25,599.8 289.11,590.74 291.98,599.8 295.25,599.8 296.59,594.6 
		296.68,594.6 298.02,599.8 301.29,599.8 304.2,590.6 301.19,590.6 299.54,595.82 	"/>
	<rect x="306.63" y="596.25" width="3.55" height="3.55"/>
	<path d="M319.7,589.68c2.02,0,2.8,1.34,3.01,2.78l3.36-0.12c-0.25-3.24-2.37-5.77-6.35-5.77c-3.79,0-6.66,2.74-6.66,6.74
		s2.87,6.74,6.66,6.74c3.98,0,6.1-2.51,6.35-5.75l-3.36-0.14c-0.21,1.44-0.99,2.78-3.01,2.78c-1.92,0-3.03-1.42-3.03-3.63
		S317.78,589.68,319.7,589.68z"/>
	<path d="M330.08,594.62c-2,0.35-3.28,1.11-3.28,2.89c0,1.57,1.17,2.49,2.97,2.49c1.46,0,2.51-0.56,3.05-1.63
		c0.31,1.05,1.2,1.63,2.33,1.63c0.95,0,1.61-0.27,2.08-0.6v-1.77c-0.27,0.1-0.47,0.14-0.74,0.14c-0.35,0-0.56-0.21-0.56-0.68v-3.13
		c0-2.56-1.79-3.61-4.23-3.61c-2.76,0-4.27,1.4-4.56,3.42l3.09,0.21c0.14-0.68,0.52-1.15,1.26-1.15c0.8,0,1.15,0.45,1.15,1.22v0.14
		L330.08,594.62z M332.66,595.96c0,1.2-0.76,1.9-1.71,1.9c-0.56,0-0.93-0.31-0.93-0.78c0-0.6,0.47-0.85,1.28-1.01l1.36-0.25V595.96z
		"/>
	<path d="M338.2,590.6v12.49h3.34v-4.86c0.45,1.07,1.48,1.81,3.03,1.81c2.7,0,4.08-2.12,4.08-4.84c0-2.7-1.38-4.84-4.08-4.84
		c-1.55,0-2.58,0.74-3.03,1.83v-1.59H338.2z M343.4,592.95c1.3,0,1.9,0.93,1.9,2.25c0,1.34-0.6,2.27-1.9,2.27
		c-1.13,0-1.86-0.87-1.86-2.21v-0.12C341.54,593.82,342.26,592.95,343.4,592.95z"/>
	<rect x="349.95" y="586.81" width="3.38" height="2.93"/>
	<rect x="349.97" y="590.6" width="3.34" height="9.19"/>
	<path d="M358.46,600.04c1.26,0,2.06-0.31,2.76-0.82v-2.16c-0.56,0.23-1.01,0.31-1.42,0.31c-0.68,0-1.05-0.31-1.05-1.09v-3.36h2.39
		v-2.31h-2.39v-2.54h-2.1l-0.31,1.2c-0.23,0.85-0.52,1.34-1.44,1.48l-0.68,0.1v2.06h1.24v4.33
		C355.46,599.41,356.92,600.04,358.46,600.04z"/>
	<path d="M365.25,594.62c-2,0.35-3.28,1.11-3.28,2.89c0,1.57,1.17,2.49,2.97,2.49c1.46,0,2.52-0.56,3.05-1.63
		c0.31,1.05,1.2,1.63,2.33,1.63c0.95,0,1.61-0.27,2.08-0.6v-1.77c-0.27,0.1-0.47,0.14-0.74,0.14c-0.35,0-0.56-0.21-0.56-0.68v-3.13
		c0-2.56-1.79-3.61-4.23-3.61c-2.76,0-4.27,1.4-4.56,3.42l3.09,0.21c0.14-0.68,0.52-1.15,1.26-1.15c0.8,0,1.15,0.45,1.15,1.22v0.14
		L365.25,594.62z M367.82,595.96c0,1.2-0.76,1.9-1.71,1.9c-0.56,0-0.93-0.31-0.93-0.78c0-0.6,0.47-0.85,1.28-1.01l1.36-0.25V595.96z
		"/>
	<rect x="373.37" y="586.81" width="3.34" height="12.99"/>
	<rect x="378.52" y="590.6" width="3.34" height="9.19"/>
	<rect x="378.5" y="586.81" width="3.38" height="2.93"/>
	<path d="M387.67,597.96c-1.01,0-1.63-0.43-1.75-1.2l-2.91,0.04c0.19,2.23,2.08,3.24,4.62,3.24c2.62,0,4.27-1.11,4.27-3.05
		c0-1.79-1.2-2.72-3.26-3.05l-1.79-0.31c-0.31-0.04-0.56-0.21-0.56-0.52c0-0.41,0.37-0.66,1.01-0.66c1.03,0,1.61,0.41,1.73,1.07
		l2.74-0.08c-0.19-1.92-1.75-3.09-4.41-3.09c-2.58,0-4.16,1.3-4.16,3.11c0,1.88,1.17,2.6,3.4,2.95l1.36,0.21
		c0.64,0.1,0.84,0.35,0.84,0.7C388.8,597.7,388.41,597.96,387.67,597.96z"/>
	<path d="M408.65,599.8v-5.77c0-1.92-0.74-3.67-3.28-3.67c-1.55,0-2.64,0.78-3.13,1.81c-0.39-1.07-1.24-1.81-2.87-1.81
		c-1.38,0-2.37,0.62-2.87,1.63v-1.38h-3.34v9.19h3.34v-4.51c0-1.38,0.39-2.29,1.48-2.29c1.01,0,1.26,0.66,1.26,1.92v4.89h3.34v-4.51
		c0-1.38,0.37-2.29,1.48-2.29c1.01,0,1.24,0.66,1.24,1.92v4.89H408.65z"/>
	<rect x="413.91" y="586.81" width="3.5" height="12.99"/>
	<path d="M423.3,597.96c-1.01,0-1.63-0.43-1.75-1.2l-2.91,0.04c0.19,2.23,2.08,3.24,4.62,3.24c2.62,0,4.27-1.11,4.27-3.05
		c0-1.79-1.2-2.72-3.26-3.05l-1.79-0.31c-0.31-0.04-0.56-0.21-0.56-0.52c0-0.41,0.37-0.66,1.01-0.66c1.03,0,1.61,0.41,1.73,1.07
		l2.74-0.08c-0.19-1.92-1.75-3.09-4.41-3.09c-2.58,0-4.16,1.3-4.16,3.11c0,1.88,1.17,2.6,3.4,2.95l1.36,0.21
		c0.64,0.1,0.84,0.35,0.84,0.7C424.44,597.7,424.05,597.96,423.3,597.96z"/>
	<path d="M431.36,599.8h3.52l0.97-2.51h5.07l0.97,2.51h3.73l-5.17-12.99h-3.92L431.36,599.8z M438.35,590.83h0.08l1.48,3.83h-3.05
		L438.35,590.83z"/>
	<polygon points="454.36,595.45 451.15,586.81 447.48,586.81 452.47,599.8 456.16,599.8 461.15,586.81 457.66,586.81 454.45,595.45 
			"/>
	<rect x="462.03" y="586.81" width="3.38" height="2.93"/>
	<rect x="462.05" y="590.6" width="3.34" height="9.19"/>
	<path d="M467.2,590.6v9.19h3.34v-4.21c0-1.55,0.76-2.12,2-2.12c0.64,0,1.13,0.12,1.59,0.39l0.21-3.15
		c-0.23-0.19-0.72-0.35-1.28-0.35c-1.22,0-2.18,0.85-2.51,1.88v-1.63H467.2z"/>
	<path d="M484.77,599.8v-9.19h-3.34v4.51c0,1.4-0.41,2.31-1.46,2.31c-1.01,0-1.36-0.68-1.36-1.92v-4.91h-3.34v5.79
		c0,1.92,0.76,3.65,3.28,3.65c1.38,0,2.39-0.6,2.89-1.63v1.38H484.77z"/>
	<path d="M490.58,597.96c-1.01,0-1.63-0.43-1.75-1.2l-2.91,0.04c0.19,2.23,2.08,3.24,4.62,3.24c2.62,0,4.27-1.11,4.27-3.05
		c0-1.79-1.2-2.72-3.26-3.05l-1.79-0.31c-0.31-0.04-0.56-0.21-0.56-0.52c0-0.41,0.37-0.66,1.01-0.66c1.03,0,1.61,0.41,1.73,1.07
		l2.74-0.08c-0.19-1.92-1.75-3.09-4.41-3.09c-2.58,0-4.16,1.3-4.16,3.11c0,1.88,1.17,2.6,3.4,2.95l1.36,0.21
		c0.64,0.1,0.84,0.35,0.84,0.7C491.71,597.7,491.32,597.96,490.58,597.96z"/>
	<rect x="497.64" y="596.25" width="3.55" height="3.55"/>
	<path d="M509.1,600.04c2.99,0,5.03-1.98,5.03-4.84c0-2.84-2.04-4.84-5.03-4.84c-3.01,0-5.03,2-5.03,4.84
		C504.07,598.07,506.09,600.04,509.1,600.04z M509.1,592.87c1.15,0,1.67,0.95,1.67,2.33s-0.52,2.33-1.67,2.33
		c-1.17,0-1.67-0.95-1.67-2.33S507.93,592.87,509.1,592.87z"/>
	<path d="M518.79,595.59c0-1.55,0.76-2.12,2-2.12c0.64,0,1.13,0.12,1.59,0.39l0.21-3.15c-0.23-0.19-0.72-0.35-1.28-0.35
		c-1.22,0-2.19,0.85-2.52,1.88v-1.63h-3.34v9.19h3.34V595.59z"/>
	<path d="M522.6,601.1c0,1.73,2.27,2.25,4.89,2.25c2.99,0,5.77-1.05,5.77-3.34c0-1.55-1.05-2.64-3.13-2.64h-3.81
		c-0.56,0-0.78-0.25-0.78-0.56c0-0.19,0.06-0.33,0.19-0.43c0.6,0.19,1.26,0.27,2,0.27c2.6,0,4.47-1.2,4.47-3.13
		c0-0.43-0.1-0.83-0.29-1.18c0.45-0.1,0.95-0.14,1.34-0.14v-2.52c-1.01,0-2.02,0.66-2.58,1.42c-0.78-0.47-1.83-0.74-2.95-0.74
		c-2.58,0-4.43,1.2-4.43,3.15c0,1.01,0.5,1.79,1.32,2.33c-0.99,0.37-1.57,1.05-1.57,1.94c0,0.78,0.49,1.53,1.32,1.79
		C523.33,599.65,522.6,600.29,522.6,601.1z M527.76,592.19c0.56,0,0.97,0.52,0.97,1.32c0,0.82-0.41,1.34-0.97,1.34
		s-0.97-0.52-0.97-1.34C526.79,592.71,527.2,592.19,527.76,592.19z M525.96,600.21h3.38c0.56,0,0.84,0.14,0.84,0.54
		c0,0.56-1.13,0.87-2.68,0.87c-1.24,0-2.16-0.19-2.16-0.85C525.35,600.42,525.59,600.21,525.96,600.21z"/>
	<path d="M300.6,22.12h2.49l0.8-3.42h1.77l-0.8,3.42h2.49l0.8-3.42h2.04l0.43-2.06h-1.98l0.5-2.02h1.88l0.43-2.06h-1.83l0.82-3.42
		h-2.49l-0.82,3.42h-1.77l0.83-3.42h-2.49l-0.83,3.42h-2.02l-0.43,2.06h1.98l-0.5,2.02h-1.88l-0.43,2.06h1.81L300.6,22.12z
		 M304.89,14.62h1.77l-0.5,2.02h-1.77L304.89,14.62z"/>
	<path d="M320.75,22.37c3.98,0,6.1-2.52,6.35-5.75l-3.36-0.14c-0.21,1.44-0.99,2.78-3.01,2.78c-1.92,0-3.03-1.42-3.03-3.63
		s1.11-3.63,3.03-3.63c2.02,0,2.8,1.34,3.01,2.78l3.36-0.12c-0.25-3.24-2.37-5.77-6.35-5.77c-3.79,0-6.66,2.74-6.66,6.74
		S316.95,22.37,320.75,22.37z"/>
	<path d="M331.11,16.95c-2,0.35-3.28,1.11-3.28,2.89c0,1.57,1.17,2.49,2.97,2.49c1.46,0,2.51-0.56,3.05-1.63
		c0.31,1.05,1.2,1.63,2.33,1.63c0.95,0,1.61-0.27,2.08-0.6v-1.77c-0.27,0.1-0.47,0.14-0.74,0.14c-0.35,0-0.56-0.21-0.56-0.68v-3.13
		c0-2.56-1.79-3.61-4.23-3.61c-2.76,0-4.27,1.4-4.56,3.42l3.09,0.21c0.14-0.68,0.51-1.15,1.26-1.15c0.8,0,1.15,0.45,1.15,1.22v0.14
		L331.11,16.95z M333.69,18.29c0,1.2-0.76,1.9-1.71,1.9c-0.56,0-0.93-0.31-0.93-0.78c0-0.6,0.47-0.85,1.28-1.01l1.36-0.25V18.29z"/>
	<path d="M342.57,20.56c0.45,1.07,1.48,1.81,3.03,1.81c2.7,0,4.08-2.12,4.08-4.84c0-2.7-1.38-4.84-4.08-4.84
		c-1.55,0-2.58,0.74-3.03,1.83v-1.59h-3.34v12.49h3.34V20.56z M342.57,17.47c0-1.32,0.72-2.19,1.86-2.19c1.3,0,1.9,0.93,1.9,2.25
		c0,1.34-0.6,2.27-1.9,2.27c-1.13,0-1.86-0.87-1.86-2.21V17.47z"/>
	<rect x="351" y="12.93" width="3.34" height="9.19"/>
	<rect x="350.98" y="9.14" width="3.38" height="2.93"/>
	<path d="M356.48,19.57c0,2.16,1.46,2.8,3.01,2.8c1.26,0,2.06-0.31,2.76-0.82v-2.16c-0.56,0.23-1.01,0.31-1.42,0.31
		c-0.68,0-1.05-0.31-1.05-1.09v-3.36h2.39v-2.31h-2.39v-2.54h-2.1l-0.31,1.2c-0.23,0.85-0.51,1.34-1.44,1.48l-0.68,0.1v2.06h1.24
		V19.57z"/>
	<path d="M366.27,16.95c-2,0.35-3.28,1.11-3.28,2.89c0,1.57,1.18,2.49,2.97,2.49c1.46,0,2.51-0.56,3.05-1.63
		c0.31,1.05,1.2,1.63,2.33,1.63c0.95,0,1.61-0.27,2.08-0.6v-1.77c-0.27,0.1-0.47,0.14-0.74,0.14c-0.35,0-0.56-0.21-0.56-0.68v-3.13
		c0-2.56-1.79-3.61-4.23-3.61c-2.76,0-4.27,1.4-4.56,3.42l3.09,0.21c0.14-0.68,0.51-1.15,1.26-1.15c0.8,0,1.15,0.45,1.15,1.22v0.14
		L366.27,16.95z M368.85,18.29c0,1.2-0.76,1.9-1.71,1.9c-0.56,0-0.93-0.31-0.93-0.78c0-0.6,0.47-0.85,1.28-1.01l1.36-0.25V18.29z"/>
	<rect x="374.39" y="9.14" width="3.34" height="12.99"/>
	<rect x="379.55" y="12.93" width="3.34" height="9.19"/>
	<rect x="379.53" y="9.14" width="3.38" height="2.93"/>
	<path d="M388.7,20.29c-1.01,0-1.63-0.43-1.75-1.2l-2.91,0.04c0.19,2.23,2.08,3.24,4.62,3.24c2.62,0,4.27-1.11,4.27-3.05
		c0-1.79-1.2-2.72-3.26-3.05l-1.79-0.31c-0.31-0.04-0.56-0.21-0.56-0.52c0-0.41,0.37-0.66,1.01-0.66c1.03,0,1.61,0.41,1.73,1.07
		l2.74-0.08c-0.19-1.92-1.75-3.09-4.41-3.09c-2.58,0-4.16,1.3-4.16,3.11c0,1.88,1.18,2.6,3.4,2.95l1.36,0.21
		c0.64,0.1,0.85,0.35,0.85,0.7C389.83,20.02,389.44,20.29,388.7,20.29z"/>
	<path d="M397.54,17.61c0-1.38,0.39-2.29,1.48-2.29c1.01,0,1.26,0.66,1.26,1.92v4.89h3.34v-4.51c0-1.38,0.37-2.29,1.48-2.29
		c1.01,0,1.24,0.66,1.24,1.92v4.89h3.34v-5.77c0-1.92-0.74-3.67-3.28-3.67c-1.55,0-2.64,0.78-3.13,1.81
		c-0.39-1.07-1.24-1.81-2.87-1.81c-1.38,0-2.37,0.62-2.87,1.63v-1.38h-3.34v9.19h3.34V17.61z"/>
	<rect x="413.27" y="9.14" width="3.5" height="12.99"/>
	<path d="M422.67,20.29c-1.01,0-1.63-0.43-1.75-1.2l-2.91,0.04c0.19,2.23,2.08,3.24,4.62,3.24c2.62,0,4.27-1.11,4.27-3.05
		c0-1.79-1.2-2.72-3.26-3.05l-1.79-0.31c-0.31-0.04-0.56-0.21-0.56-0.52c0-0.41,0.37-0.66,1.01-0.66c1.03,0,1.61,0.41,1.73,1.07
		l2.74-0.08c-0.19-1.92-1.75-3.09-4.41-3.09c-2.58,0-4.16,1.3-4.16,3.11c0,1.88,1.18,2.6,3.4,2.95l1.36,0.21
		c0.64,0.1,0.85,0.35,0.85,0.7C423.8,20.02,423.41,20.29,422.67,20.29z"/>
	<path d="M433.56,19.61h5.07l0.97,2.52h3.73l-5.17-12.99h-3.92l-5.17,12.99h3.52L433.56,19.61z M436.05,13.16h0.08l1.48,3.83h-3.05
		L436.05,13.16z"/>
	<polygon points="453.81,22.12 458.8,9.14 455.31,9.14 452.1,17.77 452.01,17.77 448.8,9.14 445.13,9.14 450.12,22.12 	"/>
	<rect x="459.7" y="12.93" width="3.34" height="9.19"/>
	<rect x="459.68" y="9.14" width="3.38" height="2.93"/>
	<path d="M468.19,17.92c0-1.55,0.76-2.12,2-2.12c0.64,0,1.13,0.12,1.59,0.39l0.21-3.15c-0.23-0.19-0.72-0.35-1.28-0.35
		c-1.22,0-2.19,0.85-2.52,1.88v-1.63h-3.34v9.19h3.34V17.92z"/>
	<path d="M476.19,22.37c1.38,0,2.39-0.6,2.89-1.63v1.38h3.34v-9.19h-3.34v4.51c0,1.4-0.41,2.31-1.46,2.31
		c-1.01,0-1.36-0.68-1.36-1.92v-4.91h-3.34v5.79C472.91,20.64,473.67,22.37,476.19,22.37z"/>
	<path d="M488.22,20.29c-1.01,0-1.63-0.43-1.75-1.2l-2.91,0.04c0.19,2.23,2.08,3.24,4.62,3.24c2.62,0,4.27-1.11,4.27-3.05
		c0-1.79-1.2-2.72-3.26-3.05l-1.79-0.31c-0.31-0.04-0.56-0.21-0.56-0.52c0-0.41,0.37-0.66,1.01-0.66c1.03,0,1.61,0.41,1.73,1.07
		l2.74-0.08c-0.19-1.92-1.75-3.09-4.41-3.09c-2.58,0-4.16,1.3-4.16,3.11c0,1.88,1.17,2.6,3.4,2.95l1.36,0.21
		c0.64,0.1,0.85,0.35,0.85,0.7C489.36,20.02,488.97,20.29,488.22,20.29z"/>
</g>
</svg>
