<?xml version="1.0" encoding="utf-8"?>
<!-- Generator: Adobe Illustrator 23.1.1, SVG Export Plug-In . SVG Version: 6.00 Build 0)  -->
<svg version="1.1" xmlns="http://www.w3.org/2000/svg" xmlns:xlink="http://www.w3.org/1999/xlink" x="0px" y="0px"
	 viewBox="0 0 792 612" style="enable-background:new 0 0 792 612;" xml:space="preserve">
<style type="text/css">
	.st0{display:none;}
	.st1{display:inline;}
	
		.st2{display:inline;fill:#FFFFFF;stroke:#000000;stroke-width:16;stroke-linecap:round;stroke-linejoin:round;stroke-miterlimit:10;}
	.st3{fill:#FFFFFF;stroke:#000000;stroke-width:16;stroke-linecap:round;stroke-linejoin:round;stroke-miterlimit:10;}
	.st4{display:inline;fill:none;stroke:#000000;stroke-width:24;stroke-linejoin:round;stroke-miterlimit:10;}
	.st5{display:inline;fill:#FFFFFF;}
	.st6{fill:#FFFFFF;stroke:#000000;stroke-width:17;stroke-linecap:round;stroke-miterlimit:10;}
	.st7{fill:#FFFFFF;stroke:#000000;stroke-width:17;stroke-miterlimit:10;}
	.st8{stroke:#000000;stroke-width:16.0572;stroke-linecap:round;stroke-miterlimit:10;}
	.st9{fill:#FFFFFF;}
	.st10{fill:#FFFFFF;stroke:#000000;stroke-width:17.1072;stroke-linecap:round;stroke-linejoin:round;stroke-miterlimit:10;}
	.st11{stroke:#000000;stroke-width:17.1072;stroke-linecap:round;stroke-linejoin:round;stroke-miterlimit:10;}
	.st12{fill:#FFFFFF;stroke:#000000;stroke-width:14.7375;stroke-linecap:round;stroke-linejoin:round;stroke-miterlimit:10;}
	.st13{fill:none;stroke:#000000;stroke-width:14.7375;stroke-linecap:round;stroke-linejoin:round;stroke-miterlimit:10;}
	.st14{stroke:#000000;stroke-width:14.7375;stroke-linecap:round;stroke-linejoin:round;stroke-miterlimit:10;}
	.st15{fill:#FFFFFF;stroke:#000000;stroke-width:14.2911;stroke-linecap:round;stroke-linejoin:round;stroke-miterlimit:10;}
	.st16{fill:none;stroke:#000000;stroke-width:13.497;stroke-miterlimit:10;}
	.st17{fill:#FFFFFF;stroke:#000000;stroke-width:13.497;stroke-linecap:round;stroke-linejoin:round;stroke-miterlimit:10;}
	.st18{fill:#FFFFFF;stroke:#000000;stroke-width:13.497;stroke-miterlimit:10;}
	.st19{fill:#FFFFFF;stroke:#000000;stroke-width:14.7439;stroke-linecap:round;stroke-miterlimit:10;}
	.st20{fill:#FFFFFF;stroke:#000000;stroke-width:14.7439;stroke-miterlimit:10;}
	.st21{stroke:#000000;stroke-width:13.9262;stroke-linecap:round;stroke-miterlimit:10;}
	
		.st22{display:inline;fill:#FFFFFF;stroke:#000000;stroke-width:14.6942;stroke-linecap:round;stroke-linejoin:round;stroke-miterlimit:10;}
	.st23{fill:#FFFFFF;stroke:#000000;stroke-width:14.6942;stroke-linecap:round;stroke-linejoin:round;stroke-miterlimit:10;}
	.st24{fill:none;stroke:#000000;stroke-width:24;stroke-linejoin:round;stroke-miterlimit:10;}
	.st25{fill:none;stroke:#000000;stroke-width:30.5612;stroke-linecap:round;stroke-linejoin:round;stroke-miterlimit:10;}
	.st26{fill:#FFFFFF;stroke:#000000;stroke-width:16.2993;stroke-linecap:round;stroke-linejoin:round;stroke-miterlimit:10;}
	.st27{display:inline;fill:#FFFFFF;stroke:#000000;stroke-width:13.497;stroke-linecap:round;stroke-miterlimit:10;}
	
		.st28{display:inline;fill:none;stroke:#000000;stroke-width:13.497;stroke-linecap:round;stroke-linejoin:round;stroke-miterlimit:10;}
	
		.st29{display:inline;fill:#FFFFFF;stroke:#000000;stroke-width:13.497;stroke-linecap:round;stroke-linejoin:round;stroke-miterlimit:10;}
	
		.st30{display:inline;fill:url(#);stroke:#000000;stroke-width:13.497;stroke-linecap:round;stroke-linejoin:round;stroke-miterlimit:10;}
	.st31{fill:#FFFFFF;stroke:#000000;stroke-width:15.2362;stroke-linecap:round;stroke-linejoin:round;stroke-miterlimit:10;}
	.st32{fill:#FFFFFF;stroke:#000000;stroke-width:14.8467;stroke-linecap:round;stroke-linejoin:round;stroke-miterlimit:10;}
	.st33{stroke:#000000;stroke-width:20.1683;stroke-linecap:round;stroke-miterlimit:10;}
	.st34{fill:none;stroke:#000000;stroke-width:14.8467;stroke-linecap:round;stroke-linejoin:round;stroke-miterlimit:10;}
	.st35{fill:#FFFFFF;stroke:#FFFFFF;stroke-width:3;stroke-miterlimit:10;}
	.st36{display:inline;fill:none;stroke:#000000;stroke-width:15;stroke-linecap:round;stroke-linejoin:round;stroke-miterlimit:10;}
	
		.st37{display:inline;fill:#FFFFFF;stroke:#000000;stroke-width:15;stroke-linecap:round;stroke-linejoin:round;stroke-miterlimit:10;}
	.st38{fill:#FFFFFF;stroke:#000000;stroke-width:15;stroke-linecap:round;stroke-linejoin:round;stroke-miterlimit:10;}
	.st39{fill:#FFFFFF;stroke:#000000;stroke-width:11.7326;stroke-linecap:round;stroke-linejoin:round;stroke-miterlimit:10;}
	.st40{fill:#FFFFFF;stroke:#000000;stroke-width:13.2623;stroke-linecap:round;stroke-linejoin:round;stroke-miterlimit:10;}
	.st41{fill:none;stroke:#000000;stroke-width:16;stroke-linecap:round;stroke-miterlimit:10;}
	.st42{fill:url(#);stroke:#000000;stroke-width:16;stroke-linecap:round;stroke-linejoin:round;stroke-miterlimit:10;}
	.st43{fill:#FFFFFF;stroke:#000000;stroke-width:16;stroke-linecap:round;stroke-miterlimit:10;}
	.st44{fill:#FFFFFF;stroke:#000000;stroke-width:13.2623;stroke-linecap:round;stroke-miterlimit:10;}
	.st45{stroke:#000000;stroke-width:4.5213;stroke-miterlimit:10;}
	.st46{fill:none;stroke:#000000;stroke-width:15.2344;stroke-linecap:round;stroke-linejoin:round;stroke-miterlimit:10;}
	.st47{fill:#FFFFFF;stroke:#000000;stroke-width:15.2344;stroke-linecap:round;stroke-linejoin:round;stroke-miterlimit:10;}
	.st48{stroke:#000000;stroke-width:18.3348;stroke-linecap:round;stroke-miterlimit:10;}
	.st49{fill:none;stroke:#000000;stroke-width:13.497;stroke-linecap:round;stroke-linejoin:round;stroke-miterlimit:10;}
	.st50{font-family:'FoundersGrotesk-Bold';}
	.st51{font-size:20.6105px;}
	.st52{font-size:10.3052px;}
	.st53{font-size:19.2364px;}
	.st54{display:inline;fill:none;stroke:#000000;stroke-width:16;stroke-linecap:round;stroke-linejoin:round;stroke-miterlimit:10;}
	.st55{fill:#FFFFFF;stroke:#000000;stroke-width:13.3058;stroke-linecap:round;stroke-linejoin:round;stroke-miterlimit:10;}
	.st56{fill:#FFFFFF;stroke:#000000;stroke-width:17;stroke-linecap:round;stroke-linejoin:round;stroke-miterlimit:10;}
	.st57{fill:#FFFFFF;stroke:#000000;stroke-width:15.2517;stroke-linecap:round;stroke-linejoin:round;stroke-miterlimit:10;}
	.st58{stroke:#000000;stroke-width:3;stroke-miterlimit:10;}
	.st59{fill:#FFFFFF;stroke:#000000;stroke-width:16.0686;stroke-linecap:round;stroke-linejoin:round;stroke-miterlimit:10;}
	.st60{fill:#FFFFFF;stroke:#000000;stroke-width:15;stroke-linejoin:round;stroke-miterlimit:10;}
	.st61{fill:url(#);stroke:#000000;stroke-width:13.497;stroke-linecap:round;stroke-linejoin:round;stroke-miterlimit:10;}
	.st62{fill:#06A6FF;}
	.st63{fill:#FF0303;}
	.st64{fill:#3DFF06;}
	.st65{fill:#FFF808;}
	.st66{fill:none;stroke:#000000;stroke-width:0;stroke-linecap:round;stroke-linejoin:round;}
</style>
<g id="unexpanded" class="st0">
	<g class="st1">
		<polyline class="st9" points="108.16,488.27 204.39,561.25 256.6,480.19 358.65,227.71 287.71,207.31 219.71,247.7 		"/>
		<g>
			<g>
				<path class="st10" d="M343.26,273.42c0,0,14.79,14.72,27.35,31.08c12.55,16.36,22.65,37.81,32.37,56.59
					c12,23.2-21.62,41.8-35.26,18.6c-13.63-23.2-29.65-51.95-29.65-51.95l-48.29-19.66"/>
				<path class="st10" d="M410.95,291.81c0,0,12.09,12.79,26.08,25.74c18.7,17.3-2.49,51.34-32.76,28.19
					c-21.49-16.45-33.78-28.46-33.78-28.46l-34.92-23.55"/>
				<path class="st10" d="M404.99,246.1c0,0,11.35,9.67,28.89,24c17.54,14.33-0.69,45.86-25.76,30.09
					c-25.07-15.77-67.83-43.92-67.83-43.92"/>
				<g>
					<path class="st10" d="M542.25,223.36c60.35,29.38,71.07-39.21,99.02-38.02c-15.3-11.07-71.27-41-105.31,15.72"/>
					<g>
						<path class="st11" d="M106.51,341.24c54.26-12.54,108.92-25.07,163.37-38.53c72.49-17.93,196.23-54.19,266.53-77.71
							c7.66-2.64,1.17-25.64-6.74-23.89c-68.37,15.8-187.92,52.11-255.34,73.34c-57.31,18.04-114.26,37.23-170.83,56.16
							c-7.67,2.64-13.29,6.82-12.59,9.3c0,0,0,0,0,0C91.61,342.37,98.58,343,106.51,341.24z"/>
					</g>
				</g>
				<path class="st10" d="M263.68,272.77c0.4-10.39-0.13-19.03-0.13-19.03c23.73-8.12,38.73-30.89,38.73-30.89
					s52.31,14.1,93.83,28.42c30.74,10.6,44.73-28.31,21.39-38.08c-19.05-7.97-85.58-32.83-100.67-38.79
					c-13-5.14-30.36-4.83-41.57-0.44c-11.21,4.38-75.21,39.8-91,46.91c-21.04,9.48-33.04,17.63-34.82,51.54
					c-1.01,19.2-8.66,129.36-8.66,129.36s-0.53,32.17-16.55,59.17c-16.02,27-86.8,114.44-86.8,114.44"/>
				<path class="st10" d="M208.31,583.74c0,0,34.9-82.02,48.29-103.55c0,0,65.53-32.83,69.84-122.59
					c11.59-18.36,21.34-33.02,29.55-45.09c15.84-23.25,27.21-26.68,36.02-37.02c22.9-26.87,2.38-59.88-35.72-35.95
					c-14.11,8.87-33.09,16.93-44.38,27.43s-22.43,21.66-33.97,35.61"/>
				<path class="st11" d="M274.33,274.44c-57.31,18.04-114.26,37.23-170.83,56.16c-7.67,2.64-13.29,6.82-12.59,9.3c0,0,0,0,0,0
					c0.7,2.48,7.67,3.1,15.59,1.34c54.26-12.54,108.92-25.07,163.37-38.53"/>
			</g>
		</g>
	</g>
	<text transform="matrix(0 1 -1 0 761.9287 303.6926)" class="st1"><tspan x="0" y="0" class="st50 st51">www</tspan><tspan x="45.14" y="0" class="st50 st52"> </tspan><tspan x="46.99" y="0" class="st50 st51">.</tspan><tspan x="51.77" y="0" class="st50 st52"> </tspan><tspan x="53.63" y="0" class="st50 st51">Capitalism</tspan><tspan x="150.43" y="0" class="st50 st53"> </tspan><tspan x="153.9" y="0" class="st50 st51">Is</tspan><tspan x="168.88" y="0" class="st50 st53"> </tspan><tspan x="172.34" y="0" class="st50 st51">A</tspan><tspan x="186.6" y="0" class="st50 st52"> </tspan><tspan x="188.46" y="0" class="st50 st51">Virus</tspan><tspan x="236.15" y="0" class="st50 st52"> </tspan><tspan x="238.01" y="0" class="st50 st51">.</tspan><tspan x="242.79" y="0" class="st50 st52"> </tspan><tspan x="244.64" y="0" class="st50 st51">org</tspan></text>
</g>
<g id="expanded">
	<path d="M529.15,210c-24.77,5.8-56.88,14.42-91.69,24.31c-0.31,2.45-0.91,4.86-1.78,7.16c-1.01,2.65-2.36,5.12-3.98,7.36
		c36.71-10.96,71.88-21.92,99.62-31.15C531.28,215.43,530.29,211.94,529.15,210z"/>
	<path d="M276.9,282.6c-36.94,11.63-74.1,23.86-110.71,36.06c16.87-3.92,33.85-7.9,50.82-11.94s33.95-8.14,50.81-12.31
		c1.14-0.28,2.29-0.32,3.38-0.15l0.11-0.72c1.28-0.32,2.58-0.65,3.89-0.98c4.09-4.76,8.07-9.14,11.89-13.16
		C283.66,280.47,280.26,281.54,276.9,282.6C276.9,282.6,276.9,282.6,276.9,282.6z"/>
	<path d="M32.04,582.01c1.58,1.28,3.49,1.91,5.38,1.91c2.49,0,4.96-1.08,6.65-3.17c2.23-2.75,42.91-53.05,69.09-88.68
		c8-10.89,14.64-20.4,18.42-26.78c16.41-27.66,17.66-59.74,17.74-63.14c0.24-3.5,2.28-32.86,4.33-63.02
		c24.24-5.61,48.75-11.33,73.26-17.19h0c15.04-3.59,30.07-7.23,45.02-10.93c0.83-0.2,1.67-0.41,2.51-0.62
		c3.42,1.54,7.58,0.69,10.09-2.35c12.46-15.06,24.29-26.51,33.2-34.8c6.64-6.17,16.96-11.79,26.94-17.23
		c5.46-2.97,11.11-6.05,16.17-9.23c12.63-7.94,24.16-9.17,29.38-3.14c4.43,5.12,4.23,15.8-4.71,26.29
		c-2.63,3.08-5.75,5.61-9.36,8.53c-7.27,5.89-16.32,13.22-27.22,29.22c-10.1,14.82-19.82,29.65-29.72,45.33
		c-0.79,1.25-1.24,2.68-1.31,4.16c-1.68,34.96-13.09,64.96-33.93,89.17c-15.65,18.17-31.06,26.12-31.19,26.19
		c-1.41,0.71-2.6,1.79-3.43,3.13c-7.29,11.72-20.43,40.06-31.26,64.32c-9.34,20.93-16.97,38.83-17.64,40.39
		c-1.85,4.35,0.17,9.37,4.52,11.22c1.09,0.47,2.23,0.69,3.35,0.69c3.33,0,6.49-1.95,7.87-5.21c0.34-0.79,32.9-77.21,46.56-100.51
		c5.39-3.1,19.36-12.03,33.62-28.4c16.07-18.45,35.66-50.33,38.51-97.89c2.08-3.28,4.15-6.53,6.22-9.75
		c5.63,9.95,12.74,22.39,19.27,33.49c6.14,10.45,15.52,14.85,24.66,14.85c5.01,0,9.96-1.32,14.26-3.7
		c11.33-6.26,18.86-20.2,12.51-35.43c4.28,1.61,8.39,2.34,12.24,2.34c9.06,0,16.7-4.01,21.72-9.98c4.71-5.59,7.14-12.73,6.85-20.08
		c-0.31-7.85-3.77-15.22-9.76-20.75c-1.48-1.37-2.94-2.74-4.37-4.09c2.08-1.66,3.9-3.59,5.42-5.7c8.63-12,6.95-27.85-3.78-37.31
		c36.71-10.99,71.7-21.92,99.09-31.09c0.66-0.23,1.27-0.52,1.86-0.83c10.28,4.68,19.86,7.02,28.88,7.02c7.09,0,13.83-1.44,20.3-4.32
		c12.98-5.77,22.19-16.17,30.33-25.35c7.59-8.57,14.16-15.98,20.33-15.71c3.74,0.16,7.2-2.17,8.44-5.74
		c1.24-3.57-0.01-7.52-3.07-9.74c-3.58-2.59-35.99-25.12-70.36-18.09c-17.92,3.67-32.92,14.49-44.66,32.18
		c-1.15-0.07-2.33,0-3.52,0.27c-24.96,5.77-57.67,14.51-93.23,24.6c-2.7-5.02-7.18-9.35-13.72-12.08
		c-12.3-5.15-43.81-17.12-69.13-26.73c-14.12-5.36-26.31-9.99-31.7-12.12c-14.35-5.67-34.02-5.86-47.83-0.46
		c-6.35,2.49-26.43,13.15-47.68,24.44c-17.93,9.53-36.48,19.38-43.71,22.64c-22.05,9.93-37.81,19.97-39.85,58.89
		c-0.31,5.89-1.26,20.53-2.42,37.93c-7.47,2.5-14.92,4.99-22.33,7.47l-15.44,5.17c-13.45,4.64-20.2,12-18.03,19.7
		c0.1,0.35,0.21,0.69,0.34,1.02c0.07,0.19,0.16,0.37,0.25,0.55c0.06,0.14,0.12,0.28,0.19,0.41c2.24,4.34,7.39,6.63,14.66,6.63
		c3.06,0,6.49-0.41,10.24-1.24c0.03-0.01,0.05-0.01,0.08-0.02l15.78-3.64c3.99-0.92,8.01-1.85,12.03-2.78
		c-2.03,29.83-3.95,57.46-3.99,58.01c-0.01,0.15-0.02,0.3-0.02,0.45c0,0.3-0.67,30.18-15.36,54.95
		c-15.52,26.16-85.39,112.55-86.1,113.42C27.8,573.65,28.37,579.04,32.04,582.01z M579.36,177.08c15.91-3.26,31.65,1.75,42.58,6.91
		c-5.08,3.99-9.66,9.17-14.17,14.26c-14.74,16.64-28.7,32.37-59.41,18.51c-0.09-2.42-0.48-4.99-1.24-7.68
		c-0.62-2.19-1.4-4.21-2.31-6.02C554.09,188.62,565.7,179.88,579.36,177.08z M275.22,292.56c-1.31,0.33-2.61,0.66-3.89,0.98
		l-0.11,0.72c-1.09-0.17-2.24-0.13-3.38,0.15c-16.87,4.17-33.84,8.27-50.81,12.31s-33.95,8.02-50.82,11.94
		c36.61-12.2,73.77-24.43,110.71-36.06c0,0,0,0,0.01,0c3.36-1.06,6.76-2.12,10.2-3.2C283.29,283.41,279.3,287.79,275.22,292.56z
		 M317.3,252.12c-15.54,4.77-30.64,9.47-44.92,13.97c0.01-2.49-0.01-4.74-0.05-6.65c16.07-7.28,27.7-19.81,33.32-26.81
		c6.25,1.73,17.23,4.8,30.32,8.65C329.62,244.73,323.18,248.27,317.3,252.12z M391,380.2c-4.55,2.51-11.44,2.75-15.91-4.85
		c-8.3-14.13-17.58-30.48-23.49-40.96c2.98-4.51,5.98-8.99,9.01-13.46l4.47,3.02c1.79,1.71,7.56,7.13,16.76,14.82
		c2.98,5.58,5.89,11.28,8.75,16.9c1.61,3.16,3.2,6.29,4.78,9.35C400.28,374.47,392.59,379.32,391,380.2z M432.66,341.09
		c-4.92,5.85-13.81,5.03-23.18-2.15c-20.76-15.88-32.88-27.67-32.99-27.78c-0.37-0.36-0.77-0.69-1.2-0.98l-4.51-3.04
		c4.65-5.51,8.84-9.32,12.7-12.54c7.17,4.62,14.15,9.08,20.11,12.83c5.71,3.59,11.23,5.31,16.34,5.62
		c3.45,3.38,7.3,7.06,11.31,10.78C437.05,329.22,436.31,336.75,432.66,341.09z M435.68,241.47c0.87-2.29,1.47-4.71,1.78-7.16
		c34.81-9.89,66.92-18.51,91.69-24.31c1.14,1.93,2.13,5.43,2.16,7.67c-27.74,9.24-62.91,20.2-99.62,31.15
		C433.32,246.59,434.66,244.13,435.68,241.47z M428.47,276.72c5.61,4.59,3.99,11.35,1.52,14.77c-1.84,2.56-7.21,7.82-17.32,1.45
		c-4.75-2.99-10.16-6.44-15.81-10.06c0.55-0.59,1.11-1.2,1.65-1.84c1.63-1.91,3.09-3.88,4.38-5.89c5.81-1.69,11.63-3.4,17.43-5.11
		C422.87,272.13,425.59,274.36,428.47,276.72z M157.98,272.84c1.58-30.11,11.3-35.85,29.79-44.18c7.74-3.49,25.7-13.03,44.71-23.13
		c18.96-10.08,40.46-21.49,45.89-23.62c9.8-3.83,24.98-3.65,35.31,0.43c5.5,2.18,17.74,6.82,31.92,12.21
		c25.2,9.57,56.56,21.48,68.6,26.52c6.97,2.92,7.32,9.53,5.5,14.31c-1.52,3.99-4.98,7.81-10.45,8.85c-1.09-4.32-3.1-8.32-6.09-11.77
		c-8.22-9.5-24.58-14.82-46.69-2.91c-27.98-8.48-51.62-14.87-51.97-14.97c-3.56-0.96-7.34,0.47-9.37,3.56
		c-0.13,0.2-13.63,20.42-34.35,27.5c-3.64,1.24-6,4.77-5.77,8.61c0,0.08,0.46,7.89,0.15,17.3c-27.12,8.65-54.28,17.56-81.19,26.49
		c-6,1.99-11.98,3.98-17.95,5.98C156.96,289.71,157.71,278.04,157.98,272.84z"/>
	<polygon points="761.93,309.89 767.12,311.23 767.12,311.31 761.93,312.65 761.93,315.93 770.99,318.79 761.93,321.66 
		761.93,324.93 767.12,326.27 767.12,326.36 761.93,327.7 761.93,330.97 770.99,333.84 761.93,336.7 761.93,339.98 767.12,341.32 
		767.12,341.4 761.93,342.74 761.93,346.02 771.12,348.92 771.12,345.92 765.91,344.27 765.91,344.18 771.12,342.84 771.12,340.18 
		765.91,338.84 765.91,338.76 771.12,337.11 771.12,333.88 771.12,333.79 771.12,330.87 765.91,329.22 765.91,329.14 771.12,327.8 
		771.12,325.14 765.91,323.8 765.91,323.72 771.12,322.07 771.12,318.83 771.12,318.75 771.12,315.82 765.91,314.17 765.91,314.09 
		771.12,312.75 771.12,310.09 765.91,308.75 765.91,308.67 771.12,307.02 771.12,303.7 761.93,306.61 	"/>
	<rect x="761.93" y="351.35" width="3.55" height="3.55"/>
	<path d="M761.68,364.44c0,3.98,2.51,6.1,5.75,6.35l0.14-3.36c-1.44-0.21-2.78-0.99-2.78-3.01c0-1.92,1.42-3.03,3.63-3.03
		c2.21,0,3.63,1.11,3.63,3.03c0,2.02-1.34,2.8-2.78,3.01l0.12,3.36c3.24-0.25,5.77-2.37,5.77-6.35c0-3.79-2.74-6.66-6.74-6.66
		C764.42,357.78,761.68,360.65,761.68,364.44z"/>
	<path d="M761.72,379.88c0,0.95,0.27,1.61,0.6,2.08h1.77c-0.1-0.27-0.14-0.47-0.14-0.74c0-0.35,0.21-0.56,0.68-0.56h3.13
		c2.56,0,3.61-1.79,3.61-4.23c0-2.76-1.4-4.27-3.42-4.56l-0.21,3.09c0.68,0.14,1.15,0.52,1.15,1.26c0,0.8-0.45,1.15-1.22,1.15h-0.14
		l-0.43-2.58c-0.35-2-1.11-3.28-2.89-3.28c-1.57,0-2.49,1.18-2.49,2.97c0,1.46,0.56,2.51,1.63,3.05
		C762.3,377.86,761.72,378.75,761.72,379.88z M764.65,374.75c0.6,0,0.84,0.47,1.01,1.28l0.25,1.36h-0.14c-1.2,0-1.9-0.76-1.9-1.71
		C763.87,375.12,764.18,374.75,764.65,374.75z"/>
	<path d="M758.63,386.27h4.86c-1.07,0.45-1.81,1.48-1.81,3.03c0,2.7,2.12,4.08,4.84,4.08c2.7,0,4.84-1.38,4.84-4.08
		c0-1.55-0.74-2.58-1.83-3.03h1.59v-3.34h-12.49V386.27z M766.46,386.27h0.12c1.32,0,2.18,0.72,2.18,1.86c0,1.3-0.93,1.9-2.25,1.9
		c-1.34,0-2.27-0.6-2.27-1.9C764.26,386.99,765.12,386.27,766.46,386.27z"/>
	<rect x="771.99" y="394.68" width="2.93" height="3.38"/>
	<rect x="761.93" y="394.7" width="9.19" height="3.34"/>
	<path d="M770.98,399.62l-0.1-0.68h-2.06v1.24h-4.33c-2.16,0-2.8,1.46-2.8,3.01c0,1.26,0.31,2.06,0.82,2.76h2.16
		c-0.23-0.56-0.31-1.01-0.31-1.42c0-0.68,0.31-1.05,1.09-1.05h3.36v2.39h2.31v-2.39h2.54v-2.1l-1.2-0.31
		C771.62,400.84,771.12,400.55,770.98,399.62z"/>
	<path d="M761.72,415.04c0,0.95,0.27,1.61,0.6,2.08h1.77c-0.1-0.27-0.14-0.47-0.14-0.74c0-0.35,0.21-0.56,0.68-0.56h3.13
		c2.56,0,3.61-1.79,3.61-4.23c0-2.76-1.4-4.27-3.42-4.56l-0.21,3.09c0.68,0.14,1.15,0.52,1.15,1.26c0,0.8-0.45,1.15-1.22,1.15h-0.14
		l-0.43-2.58c-0.35-2-1.11-3.28-2.89-3.28c-1.57,0-2.49,1.18-2.49,2.97c0,1.46,0.56,2.51,1.63,3.05
		C762.3,413.02,761.72,413.91,761.72,415.04z M764.65,409.91c0.6,0,0.84,0.47,1.01,1.28l0.25,1.36h-0.14c-1.2,0-1.9-0.76-1.9-1.71
		C763.87,410.28,764.18,409.91,764.65,409.91z"/>
	<rect x="761.93" y="418.09" width="12.99" height="3.34"/>
	<rect x="761.93" y="423.24" width="9.19" height="3.34"/>
	<rect x="771.99" y="423.22" width="2.93" height="3.38"/>
	<path d="M764.73,436.62c1.79,0,2.72-1.2,3.05-3.26l0.31-1.79c0.04-0.31,0.21-0.56,0.51-0.56c0.41,0,0.66,0.37,0.66,1.01
		c0,1.03-0.41,1.61-1.07,1.73l0.08,2.74c1.92-0.19,3.09-1.75,3.09-4.41c0-2.58-1.3-4.16-3.11-4.16c-1.88,0-2.6,1.18-2.95,3.4
		l-0.21,1.36c-0.1,0.64-0.35,0.85-0.7,0.85c-0.37,0-0.64-0.39-0.64-1.13c0-1.01,0.43-1.63,1.2-1.75l-0.04-2.91
		c-2.23,0.19-3.24,2.08-3.24,4.62C761.68,434.97,762.79,436.62,764.73,436.62z"/>
	<path d="M766.81,450.04h-4.89v3.34h5.77c1.92,0,3.67-0.74,3.67-3.28c0-1.55-0.78-2.64-1.81-3.13c1.07-0.39,1.81-1.24,1.81-2.87
		c0-1.38-0.62-2.37-1.63-2.87h1.38v-3.34h-9.19v3.34h4.51c1.38,0,2.29,0.39,2.29,1.48c0,1.01-0.66,1.26-1.92,1.26h-4.89v3.34h4.51
		c1.38,0,2.29,0.37,2.29,1.48C768.73,449.81,768.07,450.04,766.81,450.04z"/>
	<rect x="761.93" y="458.63" width="12.99" height="3.5"/>
	<path d="M764.73,472.26c1.79,0,2.72-1.2,3.05-3.26l0.31-1.79c0.04-0.31,0.21-0.56,0.51-0.56c0.41,0,0.66,0.37,0.66,1.01
		c0,1.03-0.41,1.61-1.07,1.73l0.08,2.74c1.92-0.19,3.09-1.75,3.09-4.41c0-2.58-1.3-4.16-3.11-4.16c-1.88,0-2.6,1.18-2.95,3.4
		l-0.21,1.36c-0.1,0.64-0.35,0.85-0.7,0.85c-0.37,0-0.64-0.39-0.64-1.13c0-1.01,0.43-1.63,1.2-1.75l-0.04-2.91
		c-2.23,0.19-3.24,2.08-3.24,4.62C761.68,470.61,762.79,472.26,764.73,472.26z"/>
	<path d="M761.93,486.62v3.73l12.99-5.17v-3.92l-12.99-5.17v3.53l2.51,0.97v5.07L761.93,486.62z M767.06,481.59l3.83,1.48v0.08
		l-3.83,1.48V481.59z"/>
	<polygon points="774.92,502.39 766.28,499.17 766.28,499.09 774.92,495.87 774.92,492.2 761.93,497.19 761.93,500.88 
		774.92,505.87 	"/>
	<rect x="761.93" y="506.78" width="9.19" height="3.34"/>
	<rect x="771.99" y="506.76" width="2.93" height="3.38"/>
	<path d="M769.49,515.27h1.63v-3.34h-9.19v3.34h4.21c1.55,0,2.12,0.76,2.12,2c0,0.64-0.12,1.13-0.39,1.59l3.15,0.21
		c0.19-0.23,0.35-0.72,0.35-1.28C771.37,516.57,770.53,515.6,769.49,515.27z"/>
	<path d="M766.22,523.33h4.91v-3.34h-5.79c-1.92,0-3.65,0.76-3.65,3.28c0,1.38,0.6,2.39,1.63,2.89h-1.38v3.34h9.19v-3.34h-4.51
		c-1.4,0-2.31-0.41-2.31-1.46C764.3,523.68,764.98,523.33,766.22,523.33z"/>
	<path d="M768.26,530.83c-1.88,0-2.6,1.18-2.95,3.4l-0.21,1.36c-0.1,0.64-0.35,0.85-0.7,0.85c-0.37,0-0.64-0.39-0.64-1.13
		c0-1.01,0.43-1.63,1.2-1.75l-0.04-2.91c-2.23,0.19-3.24,2.08-3.24,4.62c0,2.62,1.11,4.27,3.05,4.27c1.79,0,2.72-1.2,3.05-3.26
		l0.31-1.79c0.04-0.31,0.21-0.56,0.51-0.56c0.41,0,0.66,0.37,0.66,1.01c0,1.03-0.41,1.61-1.07,1.73l0.08,2.74
		c1.92-0.19,3.09-1.75,3.09-4.41C771.37,532.42,770.07,530.83,768.26,530.83z"/>
	<rect x="761.93" y="542.37" width="3.55" height="3.55"/>
	<path d="M766.53,548.8c-2.87,0-4.84,2.02-4.84,5.03c0,2.99,1.98,5.03,4.84,5.03c2.85,0,4.84-2.04,4.84-5.03
		C771.37,550.82,769.37,548.8,766.53,548.8z M766.53,555.5c-1.38,0-2.33-0.52-2.33-1.67c0-1.17,0.95-1.67,2.33-1.67
		c1.38,0,2.33,0.49,2.33,1.67C768.86,554.98,767.91,555.5,766.53,555.5z"/>
	<path d="M771.02,567.31c0.19-0.23,0.35-0.72,0.35-1.28c0-1.22-0.84-2.19-1.88-2.51h1.63v-3.34h-9.19v3.34h4.21
		c1.55,0,2.12,0.76,2.12,2c0,0.64-0.12,1.13-0.39,1.59L771.02,567.31z"/>
	<path d="M761.72,577.99c1.55,0,2.64-1.05,2.64-3.13v-3.81c0-0.56,0.25-0.78,0.56-0.78c0.19,0,0.33,0.06,0.43,0.19
		c-0.19,0.6-0.27,1.26-0.27,2c0,2.6,1.2,4.47,3.13,4.47c0.43,0,0.83-0.1,1.17-0.29c0.1,0.45,0.14,0.95,0.14,1.34h2.52
		c0-1.01-0.66-2.02-1.42-2.58c0.47-0.78,0.74-1.83,0.74-2.95c0-2.58-1.2-4.43-3.15-4.43c-1.01,0-1.79,0.49-2.33,1.32
		c-0.37-0.99-1.05-1.57-1.94-1.57c-0.78,0-1.53,0.49-1.79,1.32c-0.08-1.03-0.72-1.75-1.53-1.75c-1.73,0-2.25,2.27-2.25,4.89
		C758.38,575.2,759.43,577.99,761.72,577.99z M768.22,571.51c0.8,0,1.32,0.41,1.32,0.97c0,0.56-0.52,0.97-1.32,0.97
		c-0.82,0-1.34-0.41-1.34-0.97C766.88,571.93,767.39,571.51,768.22,571.51z M760.96,570.07c0.35,0,0.56,0.25,0.56,0.62v3.38
		c0,0.56-0.14,0.85-0.54,0.85c-0.56,0-0.87-1.13-0.87-2.68C760.12,571,760.3,570.07,760.96,570.07z"/>
</g>
</svg>
