<?xml version="1.0" encoding="utf-8"?>
<!-- Generator: Adobe Illustrator 23.1.1, SVG Export Plug-In . SVG Version: 6.00 Build 0)  -->
<svg version="1.1" xmlns="http://www.w3.org/2000/svg" xmlns:xlink="http://www.w3.org/1999/xlink" x="0px" y="0px"
	 viewBox="0 0 792 612" style="enable-background:new 0 0 792 612;" xml:space="preserve">
<style type="text/css">
	.st0{display:none;}
	.st1{display:inline;}
	
		.st2{display:inline;fill:#FFFFFF;stroke:#000000;stroke-width:16;stroke-linecap:round;stroke-linejoin:round;stroke-miterlimit:10;}
	.st3{fill:#FFFFFF;stroke:#000000;stroke-width:16;stroke-linecap:round;stroke-linejoin:round;stroke-miterlimit:10;}
	.st4{display:inline;fill:none;stroke:#000000;stroke-width:24;stroke-linejoin:round;stroke-miterlimit:10;}
	.st5{display:inline;fill:#FFFFFF;}
	.st6{fill:#FFFFFF;stroke:#000000;stroke-width:17;stroke-linecap:round;stroke-miterlimit:10;}
	.st7{fill:#FFFFFF;stroke:#000000;stroke-width:17;stroke-miterlimit:10;}
	.st8{stroke:#000000;stroke-width:16.0572;stroke-linecap:round;stroke-miterlimit:10;}
	.st9{fill:#FFFFFF;}
	.st10{fill:#FFFFFF;stroke:#000000;stroke-width:17.1072;stroke-linecap:round;stroke-linejoin:round;stroke-miterlimit:10;}
	.st11{stroke:#000000;stroke-width:17.1072;stroke-linecap:round;stroke-linejoin:round;stroke-miterlimit:10;}
	.st12{fill:#FFFFFF;stroke:#000000;stroke-width:14.7375;stroke-linecap:round;stroke-linejoin:round;stroke-miterlimit:10;}
	.st13{fill:none;stroke:#000000;stroke-width:14.7375;stroke-linecap:round;stroke-linejoin:round;stroke-miterlimit:10;}
	.st14{stroke:#000000;stroke-width:14.7375;stroke-linecap:round;stroke-linejoin:round;stroke-miterlimit:10;}
	.st15{fill:#FFFFFF;stroke:#000000;stroke-width:14.2911;stroke-linecap:round;stroke-linejoin:round;stroke-miterlimit:10;}
	.st16{fill:none;stroke:#000000;stroke-width:13.497;stroke-miterlimit:10;}
	.st17{fill:#FFFFFF;stroke:#000000;stroke-width:13.497;stroke-linecap:round;stroke-linejoin:round;stroke-miterlimit:10;}
	.st18{fill:#FFFFFF;stroke:#000000;stroke-width:13.497;stroke-miterlimit:10;}
	.st19{fill:#FFFFFF;stroke:#000000;stroke-width:14.7439;stroke-linecap:round;stroke-miterlimit:10;}
	.st20{fill:#FFFFFF;stroke:#000000;stroke-width:14.7439;stroke-miterlimit:10;}
	.st21{stroke:#000000;stroke-width:13.9262;stroke-linecap:round;stroke-miterlimit:10;}
	
		.st22{display:inline;fill:#FFFFFF;stroke:#000000;stroke-width:14.6942;stroke-linecap:round;stroke-linejoin:round;stroke-miterlimit:10;}
	.st23{fill:#FFFFFF;stroke:#000000;stroke-width:14.6942;stroke-linecap:round;stroke-linejoin:round;stroke-miterlimit:10;}
	.st24{fill:none;stroke:#000000;stroke-width:24;stroke-linejoin:round;stroke-miterlimit:10;}
	.st25{fill:none;stroke:#000000;stroke-width:30.5612;stroke-linecap:round;stroke-linejoin:round;stroke-miterlimit:10;}
	.st26{fill:#FFFFFF;stroke:#000000;stroke-width:16.2993;stroke-linecap:round;stroke-linejoin:round;stroke-miterlimit:10;}
	.st27{display:inline;fill:#FFFFFF;stroke:#000000;stroke-width:13.497;stroke-linecap:round;stroke-miterlimit:10;}
	
		.st28{display:inline;fill:none;stroke:#000000;stroke-width:13.497;stroke-linecap:round;stroke-linejoin:round;stroke-miterlimit:10;}
	
		.st29{display:inline;fill:#FFFFFF;stroke:#000000;stroke-width:13.497;stroke-linecap:round;stroke-linejoin:round;stroke-miterlimit:10;}
	
		.st30{display:inline;fill:url(#);stroke:#000000;stroke-width:13.497;stroke-linecap:round;stroke-linejoin:round;stroke-miterlimit:10;}
	.st31{fill:#FFFFFF;stroke:#000000;stroke-width:15.2362;stroke-linecap:round;stroke-linejoin:round;stroke-miterlimit:10;}
	.st32{fill:#FFFFFF;stroke:#000000;stroke-width:14.8467;stroke-linecap:round;stroke-linejoin:round;stroke-miterlimit:10;}
	.st33{stroke:#000000;stroke-width:20.1683;stroke-linecap:round;stroke-miterlimit:10;}
	.st34{fill:none;stroke:#000000;stroke-width:14.8467;stroke-linecap:round;stroke-linejoin:round;stroke-miterlimit:10;}
	.st35{fill:#FFFFFF;stroke:#FFFFFF;stroke-width:3;stroke-miterlimit:10;}
	.st36{display:inline;fill:none;stroke:#000000;stroke-width:15;stroke-linecap:round;stroke-linejoin:round;stroke-miterlimit:10;}
	
		.st37{display:inline;fill:#FFFFFF;stroke:#000000;stroke-width:15;stroke-linecap:round;stroke-linejoin:round;stroke-miterlimit:10;}
	.st38{fill:#FFFFFF;stroke:#000000;stroke-width:15;stroke-linecap:round;stroke-linejoin:round;stroke-miterlimit:10;}
	.st39{fill:#FFFFFF;stroke:#000000;stroke-width:11.7326;stroke-linecap:round;stroke-linejoin:round;stroke-miterlimit:10;}
	.st40{fill:#FFFFFF;stroke:#000000;stroke-width:13.2623;stroke-linecap:round;stroke-linejoin:round;stroke-miterlimit:10;}
	.st41{fill:none;stroke:#000000;stroke-width:16;stroke-linecap:round;stroke-miterlimit:10;}
	.st42{fill:url(#);stroke:#000000;stroke-width:16;stroke-linecap:round;stroke-linejoin:round;stroke-miterlimit:10;}
	.st43{fill:#FFFFFF;stroke:#000000;stroke-width:16;stroke-linecap:round;stroke-miterlimit:10;}
	.st44{fill:#FFFFFF;stroke:#000000;stroke-width:13.2623;stroke-linecap:round;stroke-miterlimit:10;}
	.st45{stroke:#000000;stroke-width:4.5213;stroke-miterlimit:10;}
	.st46{fill:none;stroke:#000000;stroke-width:15.2344;stroke-linecap:round;stroke-linejoin:round;stroke-miterlimit:10;}
	.st47{fill:#FFFFFF;stroke:#000000;stroke-width:15.2344;stroke-linecap:round;stroke-linejoin:round;stroke-miterlimit:10;}
	.st48{stroke:#000000;stroke-width:18.3348;stroke-linecap:round;stroke-miterlimit:10;}
	.st49{fill:none;stroke:#000000;stroke-width:13.497;stroke-linecap:round;stroke-linejoin:round;stroke-miterlimit:10;}
	.st50{display:inline;fill:none;stroke:#000000;stroke-width:16;stroke-linecap:round;stroke-linejoin:round;stroke-miterlimit:10;}
	.st51{fill:#FFFFFF;stroke:#000000;stroke-width:13.3058;stroke-linecap:round;stroke-linejoin:round;stroke-miterlimit:10;}
	.st52{fill:#FFFFFF;stroke:#000000;stroke-width:17;stroke-linecap:round;stroke-linejoin:round;stroke-miterlimit:10;}
	.st53{font-family:'FoundersGrotesk-Bold';}
	.st54{font-size:20.6105px;}
	.st55{font-size:10.3052px;}
	.st56{font-size:19.2364px;}
	.st57{font-size:10px;}
	.st58{fill:#FFFFFF;stroke:#000000;stroke-width:15.2517;stroke-linecap:round;stroke-linejoin:round;stroke-miterlimit:10;}
	.st59{stroke:#000000;stroke-width:3;stroke-miterlimit:10;}
	.st60{fill:#FFFFFF;stroke:#000000;stroke-width:16.0686;stroke-linecap:round;stroke-linejoin:round;stroke-miterlimit:10;}
	.st61{fill:#FFFFFF;stroke:#000000;stroke-width:15;stroke-linejoin:round;stroke-miterlimit:10;}
	.st62{fill:url(#);stroke:#000000;stroke-width:13.497;stroke-linecap:round;stroke-linejoin:round;stroke-miterlimit:10;}
	.st63{fill:#06A6FF;}
	.st64{fill:#FF0303;}
	.st65{fill:#3DFF06;}
	.st66{fill:#FFF808;}
	.st67{fill:none;stroke:#000000;stroke-width:0;stroke-linecap:round;stroke-linejoin:round;}
</style>
<g id="unexpanded" class="st0">
	<g class="st1">
		<path class="st52" d="M650.26,573.11c-245.27,0-437.71-5.4-470.12-30.25C147.72,518,138,487.75,138,487.75s-30.25-19.45-5.4-61.59
			c0-71.31,185.84-336.03,219.34-369.52c26.18-26.18,138.96-16.7,182.88-13.04c12.43,1.03,34.75,6.48,41.31,17.09
			c0,0,19.59,24.62,26.89,47.06s5.29,44.84-17.59,57.74l-53.73,11.72c0,0-56.22,31.81-107.19-26.57
			c-43.41,41.06-60.69,203.13-94.19,261.48c100.48-91.84,274.44-138.3,360.88-25.93"/>
		<path class="st52" d="M542.3,70.45c0,0,39.09,49.94,36.69,81.64s-41.78,19.69-44.18-5.76"/>
		<path class="st52" d="M504.16,70.45c0,0,39.09,49.94,36.69,81.64s-41.78,19.69-44.18-5.76"/>
		<path class="st52" d="M458.76,133.42c2.4,25.45,41.78,37.46,44.18,5.76S484.69,90.2,484.69,90.2"/>
		
			<ellipse transform="matrix(0.9956 -0.094 0.094 0.9956 -14.5879 53.0294)" class="st52" cx="555.58" cy="181.36" rx="24.04" ry="21.07"/>
		<g>
			<path d="M587.7,495.74l13.3-30.22l-12.34-5.43c1.48-7.46,1.48-14.98,0.51-22.32l12.69-4.93l-11.98-30.83l-12.69,4.93
				c-4.24-6.07-9.57-11.73-15.45-16.12l5.43-12.34l-30.22-13.3l-5.43,12.34c-7.46-1.48-14.98-1.48-22.32-0.51l-4.93-12.69
				l-30.83,11.98l4.93,12.69c-6.07,4.24-11.73,9.57-16.12,15.45L449.93,399l-13.3,30.22l12.34,5.43
				c-1.48,7.46-1.48,14.98-0.51,22.32l-12.69,4.93l11.98,30.83l12.69-4.93c4.24,6.07,9.57,11.73,15.45,16.12l-5.43,12.34l30.22,13.3
				l5.43-12.34c7.46,1.48,14.98,1.48,22.32,0.51l4.93,12.69l30.83-11.98l-4.93-12.69c6.07-4.24,11.73-9.57,16.12-15.45L587.7,495.74
				z M508.59,470.6c-12.79-5.63-18.63-20.66-13-33.46c5.63-12.79,20.66-18.63,33.46-13c12.79,5.63,18.63,20.66,13,33.46
				C536.41,470.39,521.38,476.23,508.59,470.6z"/>
		</g>
	</g>
	<g class="st1">
		<text transform="matrix(8.979319e-11 -1 1 8.979319e-11 26.8613 333.9569)"><tspan x="0" y="0" class="st53 st54">www</tspan><tspan x="45.14" y="0" class="st53 st55"> </tspan><tspan x="46.99" y="0" class="st53 st54">.</tspan><tspan x="51.77" y="0" class="st53 st55"> </tspan><tspan x="53.63" y="0" class="st53 st54">Capitalism</tspan><tspan x="150.43" y="0" class="st53 st56"> </tspan><tspan x="153.9" y="0" class="st53 st54">Is</tspan><tspan x="168.88" y="0" class="st53 st56"> </tspan><tspan x="172.34" y="0" class="st53 st54">A</tspan><tspan x="186.6" y="0" class="st53 st55"> </tspan><tspan x="188.46" y="0" class="st53 st54">Virus</tspan><tspan x="236.15" y="0" class="st53 st55"> </tspan><tspan x="238.01" y="0" class="st53 st54">.</tspan><tspan x="242.79" y="0" class="st53 st55"> </tspan><tspan x="244.64" y="0" class="st53 st54">org</tspan></text>
		<text transform="matrix(0 1 -1 0 761.9287 61.4146)"><tspan x="0" y="0" class="st53 st54">#</tspan><tspan x="12.7" y="0" class="st53 st57"> </tspan><tspan x="14.5" y="0" class="st53 st54">Capitalism</tspan><tspan x="111.3" y="0" class="st53 st57"> </tspan><tspan x="113.1" y="0" class="st53 st54">Is</tspan><tspan x="128.09" y="0" class="st53 st57"> </tspan><tspan x="129.89" y="0" class="st53 st54">A</tspan><tspan x="144.15" y="0" class="st53 st57"> </tspan><tspan x="145.95" y="0" class="st53 st54">Virus</tspan></text>
	</g>
</g>
<g id="expanded">
	<path d="M335.83,558.81c-107.48-5.78-141.18-15.54-150.53-22.7c-29.71-22.78-39.13-50.71-39.22-50.96c-0.6-1.9-1.75-3.43-3.43-4.5
		c-2.37-1.59-22.58-16.53-2.75-50.16c0.77-1.31,1.18-2.8,1.18-4.32c0-28.25,34.91-99.09,95.77-194.37
		C289.55,149.33,342.89,77.7,357.94,62.65c12.52-12.52,54.54-14.91,78.48-15.21c36.39-0.47,74.46,2.7,97.2,4.59l0.48,0.04
		c13.31,1.11,30.86,6.75,34.79,13.09c0.18,0.28,0.37,0.56,0.58,0.82c0.19,0.23,18.71,23.66,25.46,44.4
		c6.29,19.34,3.73,33.93-7.59,43.5c0.04-0.39,0.1-0.76,0.13-1.16c1.13-14.88-5.12-34.25-18.55-57.59
		c-9.66-16.78-19.5-29.4-19.92-29.93c-2.89-3.7-8.23-4.35-11.93-1.45c-3.7,2.89-4.35,8.23-1.46,11.93
		c10.31,13.19,36.67,52.5,34.91,75.76c-0.09,1.19-0.24,2.25-0.44,3.2c-5.18-2.27-11.1-3.31-17.28-2.73
		c-1.17,0.11-2.33,0.28-3.46,0.5c1.02-14.84-5.22-34.1-18.57-57.28c-9.66-16.78-19.5-29.4-19.92-29.93
		c-2.89-3.7-8.23-4.35-11.93-1.45c-3.7,2.89-4.35,8.23-1.46,11.93c10.31,13.19,36.67,52.5,34.91,75.76
		c-0.84,11.12-6.87,11.18-8.85,11.19c-0.04,0-0.07,0-0.1,0c-5.07,0-11.84-3.41-15.59-9.32c1.98-3.83,3.19-8.33,3.58-13.49
		c2.7-35.64-20.29-55.32-21.27-56.14c-3.6-3.01-8.96-2.54-11.97,1.06c-3.01,3.6-2.54,8.96,1.06,11.97
		c0.17,0.14,17.28,14.8,15.23,41.82c-0.84,11.12-6.87,11.18-8.85,11.19c-0.04,0-0.08,0-0.12,0c-7.89,0-17.35-7.28-18.27-17.11
		c-0.44-4.67-4.58-8.1-9.26-7.66c-4.67,0.44-8.11,4.59-7.67,9.26c1.84,19.52,19.64,32.52,35.22,32.52c0.08,0,0.17,0,0.26,0
		c3.38-0.03,6.56-0.64,9.46-1.8c3.63,4.77,8.36,8.55,13.48,11.08c-3.56,0.67-7.51,1.17-11.76,1.31
		c-24.46,0.79-46.65-10.07-66.03-32.27c-1.52-1.74-3.69-2.79-6-2.9c-2.29-0.11-4.57,0.73-6.25,2.32
		c-26.59,25.15-43.13,89.18-59.12,151.1c-11.73,45.42-22.82,88.32-36.59,112.32c-2.08,3.63-1.21,8.24,2.06,10.86
		c3.27,2.62,7.96,2.47,11.05-0.36c66.22-60.53,157.36-95.4,232.19-88.86c48.85,4.28,87.95,25.08,116.22,61.83
		c1.27,1.65,3.03,2.7,4.92,3.12c2.36,0.52,4.93,0.03,7-1.56c3.72-2.86,4.42-8.2,1.55-11.92c-30.85-40.11-75.19-63.76-128.21-68.4
		c-69.25-6.06-151.41,21.06-217.44,70.36c8.39-23.83,15.92-52.94,23.72-83.15c13.44-52.01,28.51-110.37,48.64-136.59
		c26.55,26.55,53.94,31.69,72.85,31.08c10.8-0.35,20-2.55,26.69-4.78c3.71,12.55,16.27,21.42,30.8,21.42c1.12,0,2.25-0.05,3.39-0.16
		c17.87-1.69,31.15-16.26,29.62-32.5c-0.15-1.54-0.42-3.04-0.81-4.49l0.07-0.02c0.83-0.18,1.62-0.48,2.36-0.9
		c23.73-13.38,31.37-37.45,21.5-67.78c-7.28-22.37-25.42-46.01-28.04-49.36C571.72,38.33,537,35.25,535.52,35.13l-0.48-0.04
		c-79.24-6.59-163.67-9.9-189.11,15.54c-17.67,17.67-72.69,92.66-123.38,172.01c-78.64,123.1-97.23,177.3-98.38,201.14
		c-22.24,39.6-1.05,62.55,6.68,69.13c3.21,8.24,15.15,34.47,44.13,56.68c10.59,8.12,38.69,19.66,159.96,26.19
		c73.78,3.97,173.98,5.82,315.34,5.82c4.69,0,8.5-3.81,8.5-8.5c0-4.07-2.86-7.47-6.68-8.3c-0.59-0.13-1.19-0.2-1.82-0.2
		C509.22,564.61,409.3,562.77,335.83,558.81z M556.76,193.87c-8.54,0.8-16-4.15-16.66-11.05c-0.65-6.9,5.76-13.17,14.29-13.97
		c0.61-0.06,1.22-0.09,1.81-0.09c7.75,0,14.24,4.73,14.84,11.14C571.71,186.79,565.29,193.06,556.76,193.87z"/>
	<path d="M589.89,402.01l-12.69,4.93c-4.24-6.07-9.57-11.73-15.45-16.12l5.43-12.34l-30.22-13.3l-5.43,12.34
		c-7.46-1.48-14.98-1.48-22.32-0.51l-4.93-12.69l-30.83,11.98l4.93,12.69c-6.07,4.24-11.73,9.57-16.12,15.45L449.93,399l-13.3,30.22
		l12.34,5.43c-1.48,7.46-1.48,14.98-0.51,22.32l-12.69,4.93l11.98,30.83l12.69-4.93c4.24,6.08,9.57,11.73,15.45,16.12l-5.43,12.34
		l30.22,13.3l5.43-12.34c7.46,1.48,14.98,1.48,22.32,0.51l4.93,12.69l30.83-11.98l-4.93-12.69c6.07-4.24,11.73-9.57,16.12-15.45
		l12.34,5.43l13.3-30.22l-12.34-5.43c1.48-7.46,1.48-14.98,0.51-22.32l12.69-4.93L589.89,402.01z M542.04,457.6
		c-5.63,12.79-20.66,18.63-33.46,13c-12.79-5.63-18.63-20.66-13-33.46c5.63-12.79,20.66-18.63,33.46-13
		C541.84,429.77,547.68,444.81,542.04,457.6z"/>
	<polygon points="26.86,294.91 26.86,291.63 17.67,288.72 17.67,291.73 22.88,293.38 22.88,293.47 17.67,294.81 17.67,297.46 
		22.88,298.81 22.88,298.89 17.67,300.54 17.67,303.77 17.67,303.86 17.67,306.78 22.88,308.43 22.88,308.51 17.67,309.85 
		17.67,312.51 22.88,313.85 22.88,313.93 17.67,315.58 17.67,318.82 17.67,318.9 17.67,321.83 22.88,323.47 22.88,323.56 
		17.67,324.9 17.67,327.56 22.88,328.9 22.88,328.98 17.67,330.63 17.67,333.95 26.86,331.04 26.86,327.76 21.67,326.42 
		21.67,326.34 26.86,325 26.86,321.72 17.8,318.86 26.86,315.99 26.86,312.72 21.67,311.38 21.67,311.29 26.86,309.95 26.86,306.68 
		17.8,303.81 26.86,300.95 26.86,297.67 21.67,296.33 21.67,296.25 	"/>
	<rect x="23.32" y="282.75" width="3.55" height="3.55"/>
	<path d="M20.37,279.87c4,0,6.74-2.87,6.74-6.66c0-3.98-2.51-6.1-5.75-6.35l-0.14,3.36c1.44,0.21,2.78,0.99,2.78,3.01
		c0,1.92-1.42,3.03-3.63,3.03c-2.21,0-3.63-1.11-3.63-3.03c0-2.02,1.34-2.8,2.78-3.01l-0.12-3.36c-3.24,0.25-5.77,2.37-5.77,6.35
		C13.63,277,16.37,279.87,20.37,279.87z"/>
	<path d="M27.07,257.77c0-0.95-0.27-1.61-0.6-2.08H24.7c0.1,0.27,0.14,0.47,0.14,0.74c0,0.35-0.21,0.56-0.68,0.56h-3.13
		c-2.56,0-3.61,1.79-3.61,4.23c0,2.76,1.4,4.27,3.42,4.56l0.21-3.09c-0.68-0.14-1.15-0.52-1.15-1.26c0-0.8,0.45-1.15,1.22-1.15h0.14
		l0.43,2.58c0.35,2,1.11,3.28,2.89,3.28c1.57,0,2.49-1.17,2.49-2.97c0-1.46-0.56-2.52-1.63-3.05
		C26.49,259.79,27.07,258.9,27.07,257.77z M24.14,262.9c-0.6,0-0.85-0.47-1.01-1.28l-0.25-1.36h0.14c1.2,0,1.9,0.76,1.9,1.71
		C24.92,262.53,24.61,262.9,24.14,262.9z"/>
	<path d="M30.16,251.38h-4.87c1.07-0.45,1.81-1.48,1.81-3.03c0-2.7-2.12-4.08-4.84-4.08c-2.7,0-4.84,1.38-4.84,4.08
		c0,1.55,0.74,2.58,1.83,3.03h-1.59v3.34h12.49V251.38z M22.33,251.38H22.2c-1.32,0-2.18-0.72-2.18-1.86c0-1.3,0.93-1.9,2.25-1.9
		c1.34,0,2.27,0.6,2.27,1.9C24.53,250.66,23.67,251.38,22.33,251.38z"/>
	<rect x="17.67" y="239.61" width="9.19" height="3.34"/>
	<rect x="13.87" y="239.59" width="2.93" height="3.38"/>
	<path d="M17.81,238.03l0.1,0.68h2.06v-1.24h4.33c2.17,0,2.8-1.46,2.8-3.01c0-1.26-0.31-2.06-0.82-2.76h-2.17
		c0.23,0.56,0.31,1.01,0.31,1.42c0,0.68-0.31,1.05-1.09,1.05h-3.36v-2.39h-2.31v2.39h-2.54v2.1l1.2,0.31
		C17.17,236.81,17.67,237.1,17.81,238.03z"/>
	<path d="M27.07,222.61c0-0.95-0.27-1.61-0.6-2.08H24.7c0.1,0.27,0.14,0.47,0.14,0.74c0,0.35-0.21,0.56-0.68,0.56h-3.13
		c-2.56,0-3.61,1.79-3.61,4.23c0,2.76,1.4,4.27,3.42,4.56l0.21-3.09c-0.68-0.14-1.15-0.52-1.15-1.26c0-0.8,0.45-1.15,1.22-1.15h0.14
		l0.43,2.58c0.35,2,1.11,3.28,2.89,3.28c1.57,0,2.49-1.17,2.49-2.97c0-1.46-0.56-2.52-1.63-3.05
		C26.49,224.63,27.07,223.74,27.07,222.61z M24.14,227.74c-0.6,0-0.85-0.47-1.01-1.28l-0.25-1.36h0.14c1.2,0,1.9,0.76,1.9,1.71
		C24.92,227.37,24.61,227.74,24.14,227.74z"/>
	<rect x="13.87" y="216.22" width="12.99" height="3.34"/>
	<rect x="17.67" y="211.07" width="9.19" height="3.34"/>
	<rect x="13.87" y="211.05" width="2.93" height="3.38"/>
	<path d="M24.06,201.03c-1.79,0-2.72,1.2-3.05,3.26l-0.31,1.79c-0.04,0.31-0.21,0.56-0.52,0.56c-0.41,0-0.66-0.37-0.66-1.01
		c0-1.03,0.41-1.61,1.07-1.73l-0.08-2.74c-1.92,0.19-3.09,1.75-3.09,4.41c0,2.58,1.3,4.16,3.11,4.16c1.88,0,2.6-1.17,2.95-3.4
		l0.21-1.36c0.1-0.64,0.35-0.85,0.7-0.85c0.37,0,0.64,0.39,0.64,1.13c0,1.01-0.43,1.63-1.2,1.75l0.04,2.91
		c2.23-0.19,3.24-2.08,3.24-4.62C27.11,202.68,26,201.03,24.06,201.03z"/>
	<path d="M17.42,193.55c0,1.38,0.62,2.37,1.63,2.87h-1.38v3.34h9.19v-3.34h-4.51c-1.38,0-2.29-0.39-2.29-1.48
		c0-1.01,0.66-1.26,1.92-1.26h4.89v-3.34h-4.51c-1.38,0-2.29-0.37-2.29-1.48c0-1.01,0.66-1.24,1.92-1.24h4.89v-3.34h-5.77
		c-1.92,0-3.67,0.74-3.67,3.28c0,1.55,0.78,2.64,1.81,3.13C18.16,191.07,17.42,191.92,17.42,193.55z"/>
	<rect x="13.87" y="175.51" width="12.99" height="3.5"/>
	<path d="M23.83,171.37l0.04,2.91c2.23-0.19,3.24-2.08,3.24-4.62c0-2.62-1.11-4.27-3.05-4.27c-1.79,0-2.72,1.2-3.05,3.26l-0.31,1.79
		c-0.04,0.31-0.21,0.56-0.52,0.56c-0.41,0-0.66-0.37-0.66-1.01c0-1.03,0.41-1.61,1.07-1.73l-0.08-2.74
		c-1.92,0.19-3.09,1.75-3.09,4.41c0,2.58,1.3,4.16,3.11,4.16c1.88,0,2.6-1.18,2.95-3.4l0.21-1.36c0.1-0.64,0.35-0.85,0.7-0.85
		c0.37,0,0.64,0.39,0.64,1.13C25.03,170.63,24.59,171.25,23.83,171.37z"/>
	<path d="M13.87,156.39l12.99,5.17v-3.52l-2.51-0.97V152l2.51-0.97v-3.73l-12.99,5.17V156.39z M17.89,154.49l3.83-1.48v3.05
		l-3.83-1.48V154.49z"/>
	<polygon points="13.87,141.78 13.87,145.45 26.86,140.46 26.86,136.77 13.87,131.78 13.87,135.26 22.51,138.48 22.51,138.56 	"/>
	<rect x="17.67" y="127.53" width="9.19" height="3.34"/>
	<rect x="13.87" y="127.51" width="2.93" height="3.38"/>
	<path d="M17.77,118.59c-0.19,0.23-0.35,0.72-0.35,1.28c0,1.22,0.85,2.19,1.88,2.52h-1.63v3.34h9.19v-3.34h-4.21
		c-1.55,0-2.12-0.76-2.12-2c0-0.64,0.12-1.13,0.39-1.59L17.77,118.59z"/>
	<path d="M25.48,111.5h1.38v-3.34h-9.19v3.34h4.51c1.4,0,2.31,0.41,2.31,1.46c0,1.01-0.68,1.36-1.92,1.36h-4.91v3.34h5.79
		c1.92,0,3.65-0.76,3.65-3.28C27.11,113,26.51,111.99,25.48,111.5z"/>
	<path d="M24.06,98.12c-1.79,0-2.72,1.2-3.05,3.26l-0.31,1.79c-0.04,0.31-0.21,0.56-0.52,0.56c-0.41,0-0.66-0.37-0.66-1.01
		c0-1.03,0.41-1.61,1.07-1.73l-0.08-2.74c-1.92,0.19-3.09,1.75-3.09,4.41c0,2.58,1.3,4.16,3.11,4.16c1.88,0,2.6-1.18,2.95-3.4
		l0.21-1.36c0.1-0.64,0.35-0.85,0.7-0.85c0.37,0,0.64,0.39,0.64,1.13c0,1.01-0.43,1.63-1.2,1.75l0.04,2.91
		c2.23-0.19,3.24-2.08,3.24-4.62C27.11,99.77,26,98.12,24.06,98.12z"/>
	<rect x="23.32" y="91.73" width="3.55" height="3.55"/>
	<path d="M22.26,78.79c-2.84,0-4.84,2.04-4.84,5.03c0,3.01,2,5.03,4.84,5.03c2.87,0,4.84-2.02,4.84-5.03
		C27.11,80.83,25.13,78.79,22.26,78.79z M22.26,85.49c-1.38,0-2.33-0.49-2.33-1.67c0-1.15,0.95-1.67,2.33-1.67
		c1.38,0,2.33,0.52,2.33,1.67C24.59,85,23.65,85.49,22.26,85.49z"/>
	<path d="M17.77,70.34c-0.19,0.23-0.35,0.72-0.35,1.28c0,1.22,0.85,2.19,1.88,2.52h-1.63v3.34h9.19v-3.34h-4.21
		c-1.55,0-2.12-0.76-2.12-2c0-0.64,0.12-1.13,0.39-1.59L17.77,70.34z"/>
	<path d="M18.16,62.26c-0.47,0.78-0.74,1.83-0.74,2.95c0,2.58,1.2,4.43,3.15,4.43c1.01,0,1.79-0.49,2.33-1.32
		c0.37,0.99,1.05,1.57,1.94,1.57c0.78,0,1.53-0.49,1.79-1.32c0.08,1.03,0.72,1.75,1.53,1.75c1.73,0,2.25-2.27,2.25-4.89
		c0-2.99-1.05-5.77-3.34-5.77c-1.55,0-2.64,1.05-2.64,3.13v3.81c0,0.56-0.25,0.78-0.56,0.78c-0.19,0-0.33-0.06-0.43-0.19
		c0.19-0.6,0.27-1.26,0.27-2c0-2.6-1.2-4.47-3.13-4.47c-0.43,0-0.83,0.1-1.18,0.29c-0.1-0.45-0.14-0.95-0.14-1.34h-2.52
		C16.74,60.69,17.4,61.7,18.16,62.26z M27.27,63.58c0-0.56,0.14-0.85,0.54-0.85c0.56,0,0.87,1.13,0.87,2.68
		c0,1.24-0.19,2.16-0.85,2.16c-0.35,0-0.56-0.25-0.56-0.62V63.58z M20.57,64.2c0.82,0,1.34,0.41,1.34,0.97
		c0,0.56-0.52,0.97-1.34,0.97c-0.8,0-1.32-0.41-1.32-0.97C19.25,64.61,19.77,64.2,20.57,64.2z"/>
	<path d="M774.92,68.42v-2.49l-3.42-0.82v-2.02l-2.06-0.43v1.98l-2.02-0.49v-1.88l-2.06-0.43v1.81l-3.42-0.8v2.49l3.42,0.8v1.77
		l-3.42-0.8v2.49l3.42,0.8v2.04l2.06,0.43V70.9l2.02,0.49v1.88l2.06,0.43v-1.83l3.42,0.82V70.2l-3.42-0.82V67.6L774.92,68.42z
		 M769.43,68.9l-2.02-0.49v-1.77l2.02,0.5V68.9z"/>
	<path d="M768.42,76.32c-4,0-6.74,2.87-6.74,6.66c0,3.98,2.51,6.1,5.75,6.35l0.14-3.36c-1.44-0.21-2.78-0.99-2.78-3.01
		c0-1.92,1.42-3.03,3.63-3.03c2.21,0,3.63,1.11,3.63,3.03c0,2.02-1.34,2.8-2.78,3.01l0.12,3.36c3.24-0.25,5.77-2.37,5.77-6.35
		C775.16,79.19,772.42,76.32,768.42,76.32z"/>
	<path d="M764.63,99.2h3.13c2.56,0,3.61-1.79,3.61-4.23c0-2.76-1.4-4.27-3.42-4.56l-0.21,3.09c0.68,0.14,1.15,0.52,1.15,1.26
		c0,0.8-0.45,1.15-1.22,1.15h-0.14l-0.43-2.58c-0.35-2-1.11-3.28-2.89-3.28c-1.57,0-2.49,1.18-2.49,2.97c0,1.46,0.56,2.52,1.63,3.05
		c-1.05,0.31-1.63,1.2-1.63,2.33c0,0.95,0.27,1.61,0.6,2.08h1.77c-0.1-0.27-0.14-0.47-0.14-0.74
		C763.95,99.41,764.16,99.2,764.63,99.2z M763.87,94.21c0-0.56,0.31-0.93,0.78-0.93c0.6,0,0.84,0.47,1.01,1.28l0.25,1.36h-0.14
		C764.57,95.92,763.87,95.16,763.87,94.21z"/>
	<path d="M758.63,104.81h4.86c-1.07,0.45-1.81,1.48-1.81,3.03c0,2.7,2.12,4.08,4.84,4.08c2.7,0,4.84-1.38,4.84-4.08
		c0-1.55-0.74-2.58-1.83-3.03h1.59v-3.34h-12.49V104.81z M766.46,104.81h0.12c1.32,0,2.18,0.72,2.18,1.86c0,1.3-0.93,1.9-2.25,1.9
		c-1.34,0-2.27-0.6-2.27-1.9C764.26,105.53,765.12,104.81,766.46,104.81z"/>
	<rect x="761.93" y="113.24" width="9.19" height="3.34"/>
	<rect x="771.99" y="113.22" width="2.93" height="3.38"/>
	<path d="M762.51,124.49h2.16c-0.23-0.56-0.31-1.01-0.31-1.42c0-0.68,0.31-1.05,1.09-1.05h3.36v2.39h2.31v-2.39h2.54v-2.1l-1.2-0.31
		c-0.85-0.23-1.34-0.52-1.48-1.44l-0.1-0.68h-2.06v1.24h-4.33c-2.16,0-2.8,1.46-2.8,3.01C761.68,122.99,761.99,123.79,762.51,124.49
		z"/>
	<path d="M764.63,134.36h3.13c2.56,0,3.61-1.79,3.61-4.23c0-2.76-1.4-4.27-3.42-4.56l-0.21,3.09c0.68,0.14,1.15,0.52,1.15,1.26
		c0,0.8-0.45,1.15-1.22,1.15h-0.14l-0.43-2.58c-0.35-2-1.11-3.28-2.89-3.28c-1.57,0-2.49,1.18-2.49,2.97c0,1.46,0.56,2.51,1.63,3.05
		c-1.05,0.31-1.63,1.2-1.63,2.33c0,0.95,0.27,1.61,0.6,2.08h1.77c-0.1-0.27-0.14-0.47-0.14-0.74
		C763.95,134.57,764.16,134.36,764.63,134.36z M763.87,129.37c0-0.56,0.31-0.93,0.78-0.93c0.6,0,0.84,0.47,1.01,1.28l0.25,1.36
		h-0.14C764.57,131.08,763.87,130.32,763.87,129.37z"/>
	<rect x="761.93" y="136.63" width="12.99" height="3.34"/>
	<rect x="761.93" y="141.78" width="9.19" height="3.34"/>
	<rect x="771.99" y="141.76" width="2.93" height="3.38"/>
	<path d="M764.73,155.16c1.79,0,2.72-1.2,3.05-3.26l0.31-1.79c0.04-0.31,0.21-0.56,0.51-0.56c0.41,0,0.66,0.37,0.66,1.01
		c0,1.03-0.41,1.61-1.07,1.73l0.08,2.74c1.92-0.19,3.09-1.75,3.09-4.41c0-2.58-1.3-4.16-3.11-4.16c-1.88,0-2.6,1.18-2.95,3.4
		l-0.21,1.36c-0.1,0.64-0.35,0.85-0.7,0.85c-0.37,0-0.64-0.39-0.64-1.13c0-1.01,0.43-1.63,1.2-1.75l-0.04-2.91
		c-2.23,0.19-3.24,2.08-3.24,4.62C761.68,153.51,762.79,155.16,764.73,155.16z"/>
	<path d="M771.37,162.64c0-1.38-0.62-2.37-1.63-2.87h1.38v-3.34h-9.19v3.34h4.51c1.38,0,2.29,0.39,2.29,1.48
		c0,1.01-0.66,1.26-1.92,1.26h-4.89v3.34h4.51c1.38,0,2.29,0.37,2.29,1.48c0,1.01-0.66,1.24-1.92,1.24h-4.89v3.34h5.77
		c1.92,0,3.67-0.74,3.67-3.28c0-1.55-0.78-2.64-1.81-3.13C770.63,165.11,771.37,164.27,771.37,162.64z"/>
	<rect x="761.93" y="175.51" width="12.99" height="3.5"/>
	<path d="M764.96,183.15l-0.04-2.91c-2.23,0.19-3.24,2.08-3.24,4.62c0,2.62,1.11,4.27,3.05,4.27c1.79,0,2.72-1.2,3.05-3.26
		l0.31-1.79c0.04-0.31,0.21-0.56,0.51-0.56c0.41,0,0.66,0.37,0.66,1.01c0,1.03-0.41,1.61-1.07,1.73l0.08,2.74
		c1.92-0.19,3.09-1.75,3.09-4.41c0-2.58-1.3-4.16-3.11-4.16c-1.88,0-2.6,1.18-2.95,3.4l-0.21,1.36c-0.1,0.64-0.35,0.85-0.7,0.85
		c-0.37,0-0.64-0.39-0.64-1.13C763.76,183.9,764.2,183.28,764.96,183.15z"/>
	<path d="M774.92,196.47l-12.99-5.17v3.52l2.51,0.97v5.07l-2.51,0.97v3.73l12.99-5.17V196.47z M770.9,198.37l-3.83,1.48v-3.05
		l3.83,1.48V198.37z"/>
	<polygon points="774.92,211.03 774.92,207.36 761.93,212.35 761.93,216.04 774.92,221.03 774.92,217.55 766.28,214.33 
		766.28,214.25 	"/>
	<rect x="761.93" y="221.93" width="9.19" height="3.34"/>
	<rect x="771.99" y="221.91" width="2.93" height="3.38"/>
	<path d="M769.49,230.43h1.63v-3.34h-9.19v3.34h4.21c1.55,0,2.12,0.76,2.12,2c0,0.64-0.12,1.13-0.39,1.59l3.15,0.21
		c0.19-0.23,0.35-0.72,0.35-1.28C771.37,231.73,770.53,230.76,769.49,230.43z"/>
	<path d="M766.22,238.48h4.91v-3.34h-5.79c-1.92,0-3.65,0.76-3.65,3.28c0,1.38,0.6,2.39,1.63,2.89h-1.38v3.34h9.19v-3.34h-4.51
		c-1.4,0-2.31-0.41-2.31-1.46C764.3,238.83,764.98,238.48,766.22,238.48z"/>
	<path d="M768.2,251.82l0.08,2.74c1.92-0.19,3.09-1.75,3.09-4.41c0-2.58-1.3-4.16-3.11-4.16c-1.88,0-2.6,1.17-2.95,3.4l-0.21,1.36
		c-0.1,0.64-0.35,0.85-0.7,0.85c-0.37,0-0.64-0.39-0.64-1.13c0-1.01,0.43-1.63,1.2-1.75l-0.04-2.91c-2.23,0.19-3.24,2.08-3.24,4.62
		c0,2.62,1.11,4.27,3.05,4.27c1.79,0,2.72-1.2,3.05-3.26l0.31-1.79c0.04-0.31,0.21-0.56,0.51-0.56c0.41,0,0.66,0.37,0.66,1.01
		C769.27,251.12,768.86,251.7,768.2,251.82z"/>
</g>
</svg>
