<?xml version="1.0" encoding="utf-8"?>
<!-- Generator: Adobe Illustrator 23.1.1, SVG Export Plug-In . SVG Version: 6.00 Build 0)  -->
<svg version="1.1" xmlns="http://www.w3.org/2000/svg" xmlns:xlink="http://www.w3.org/1999/xlink" x="0px" y="0px"
	 viewBox="0 0 792 612" style="enable-background:new 0 0 792 612;" xml:space="preserve">
<style type="text/css">
	.st0{display:none;}
	.st1{display:inline;}
	.st2{font-family:'FoundersGrotesk-Bold';}
	.st3{font-size:20.6105px;}
	.st4{font-size:10.3052px;}
	.st5{font-size:19.2364px;}
	.st6{font-size:10px;}
	
		.st7{display:inline;fill:#FFFFFF;stroke:#000000;stroke-width:16;stroke-linecap:round;stroke-linejoin:round;stroke-miterlimit:10;}
	.st8{fill:#FFFFFF;stroke:#000000;stroke-width:16;stroke-linecap:round;stroke-linejoin:round;stroke-miterlimit:10;}
	.st9{display:inline;fill:none;stroke:#000000;stroke-width:24;stroke-linejoin:round;stroke-miterlimit:10;}
	.st10{display:inline;fill:#FFFFFF;}
	.st11{fill:#FFFFFF;stroke:#000000;stroke-width:17;stroke-linecap:round;stroke-miterlimit:10;}
	.st12{fill:#FFFFFF;stroke:#000000;stroke-width:17;stroke-miterlimit:10;}
	.st13{stroke:#000000;stroke-width:16.0572;stroke-linecap:round;stroke-miterlimit:10;}
	.st14{fill:#FFFFFF;}
	.st15{fill:#FFFFFF;stroke:#000000;stroke-width:17.1072;stroke-linecap:round;stroke-linejoin:round;stroke-miterlimit:10;}
	.st16{stroke:#000000;stroke-width:17.1072;stroke-linecap:round;stroke-linejoin:round;stroke-miterlimit:10;}
	.st17{fill:#FFFFFF;stroke:#000000;stroke-width:14.7375;stroke-linecap:round;stroke-linejoin:round;stroke-miterlimit:10;}
	.st18{fill:none;stroke:#000000;stroke-width:14.7375;stroke-linecap:round;stroke-linejoin:round;stroke-miterlimit:10;}
	.st19{stroke:#000000;stroke-width:14.7375;stroke-linecap:round;stroke-linejoin:round;stroke-miterlimit:10;}
	.st20{fill:#FFFFFF;stroke:#000000;stroke-width:14.2911;stroke-linecap:round;stroke-linejoin:round;stroke-miterlimit:10;}
	.st21{fill:none;stroke:#000000;stroke-width:13.497;stroke-miterlimit:10;}
	.st22{fill:#FFFFFF;stroke:#000000;stroke-width:13.497;stroke-linecap:round;stroke-linejoin:round;stroke-miterlimit:10;}
	.st23{fill:#FFFFFF;stroke:#000000;stroke-width:13.497;stroke-miterlimit:10;}
	.st24{fill:#FFFFFF;stroke:#000000;stroke-width:14.7439;stroke-linecap:round;stroke-miterlimit:10;}
	.st25{fill:#FFFFFF;stroke:#000000;stroke-width:14.7439;stroke-miterlimit:10;}
	.st26{stroke:#000000;stroke-width:13.9262;stroke-linecap:round;stroke-miterlimit:10;}
	
		.st27{display:inline;fill:#FFFFFF;stroke:#000000;stroke-width:14.6942;stroke-linecap:round;stroke-linejoin:round;stroke-miterlimit:10;}
	.st28{fill:#FFFFFF;stroke:#000000;stroke-width:14.6942;stroke-linecap:round;stroke-linejoin:round;stroke-miterlimit:10;}
	.st29{fill:none;stroke:#000000;stroke-width:24;stroke-linejoin:round;stroke-miterlimit:10;}
	.st30{fill:none;stroke:#000000;stroke-width:30.5612;stroke-linecap:round;stroke-linejoin:round;stroke-miterlimit:10;}
	.st31{fill:#FFFFFF;stroke:#000000;stroke-width:16.2993;stroke-linecap:round;stroke-linejoin:round;stroke-miterlimit:10;}
	.st32{display:inline;fill:#FFFFFF;stroke:#000000;stroke-width:13.497;stroke-linecap:round;stroke-miterlimit:10;}
	
		.st33{display:inline;fill:none;stroke:#000000;stroke-width:13.497;stroke-linecap:round;stroke-linejoin:round;stroke-miterlimit:10;}
	
		.st34{display:inline;fill:#FFFFFF;stroke:#000000;stroke-width:13.497;stroke-linecap:round;stroke-linejoin:round;stroke-miterlimit:10;}
	
		.st35{display:inline;fill:url(#);stroke:#000000;stroke-width:13.497;stroke-linecap:round;stroke-linejoin:round;stroke-miterlimit:10;}
	.st36{fill:#FFFFFF;stroke:#000000;stroke-width:15.2362;stroke-linecap:round;stroke-linejoin:round;stroke-miterlimit:10;}
	.st37{fill:#FFFFFF;stroke:#000000;stroke-width:14.8467;stroke-linecap:round;stroke-linejoin:round;stroke-miterlimit:10;}
	.st38{stroke:#000000;stroke-width:20.1683;stroke-linecap:round;stroke-miterlimit:10;}
	.st39{fill:none;stroke:#000000;stroke-width:14.8467;stroke-linecap:round;stroke-linejoin:round;stroke-miterlimit:10;}
	.st40{fill:#FFFFFF;stroke:#FFFFFF;stroke-width:3;stroke-miterlimit:10;}
	.st41{display:inline;fill:none;stroke:#000000;stroke-width:15;stroke-linecap:round;stroke-linejoin:round;stroke-miterlimit:10;}
	
		.st42{display:inline;fill:#FFFFFF;stroke:#000000;stroke-width:15;stroke-linecap:round;stroke-linejoin:round;stroke-miterlimit:10;}
	.st43{fill:#FFFFFF;stroke:#000000;stroke-width:15;stroke-linecap:round;stroke-linejoin:round;stroke-miterlimit:10;}
	.st44{fill:#FFFFFF;stroke:#000000;stroke-width:11.7326;stroke-linecap:round;stroke-linejoin:round;stroke-miterlimit:10;}
	.st45{fill:#FFFFFF;stroke:#000000;stroke-width:13.2623;stroke-linecap:round;stroke-linejoin:round;stroke-miterlimit:10;}
	.st46{fill:none;stroke:#000000;stroke-width:16;stroke-linecap:round;stroke-miterlimit:10;}
	.st47{fill:url(#);stroke:#000000;stroke-width:16;stroke-linecap:round;stroke-linejoin:round;stroke-miterlimit:10;}
	.st48{fill:#FFFFFF;stroke:#000000;stroke-width:16;stroke-linecap:round;stroke-miterlimit:10;}
	.st49{fill:#FFFFFF;stroke:#000000;stroke-width:13.2623;stroke-linecap:round;stroke-miterlimit:10;}
	.st50{stroke:#000000;stroke-width:4.5213;stroke-miterlimit:10;}
	.st51{fill:none;stroke:#000000;stroke-width:15.2344;stroke-linecap:round;stroke-linejoin:round;stroke-miterlimit:10;}
	.st52{fill:#FFFFFF;stroke:#000000;stroke-width:15.2344;stroke-linecap:round;stroke-linejoin:round;stroke-miterlimit:10;}
	.st53{stroke:#000000;stroke-width:18.3348;stroke-linecap:round;stroke-miterlimit:10;}
	.st54{fill:none;stroke:#000000;stroke-width:13.497;stroke-linecap:round;stroke-linejoin:round;stroke-miterlimit:10;}
	.st55{display:inline;fill:none;stroke:#000000;stroke-width:16;stroke-linecap:round;stroke-linejoin:round;stroke-miterlimit:10;}
	.st56{fill:#FFFFFF;stroke:#000000;stroke-width:13.3058;stroke-linecap:round;stroke-linejoin:round;stroke-miterlimit:10;}
	.st57{fill:#FFFFFF;stroke:#000000;stroke-width:17;stroke-linecap:round;stroke-linejoin:round;stroke-miterlimit:10;}
	.st58{fill:#FFFFFF;stroke:#000000;stroke-width:15.2517;stroke-linecap:round;stroke-linejoin:round;stroke-miterlimit:10;}
	.st59{stroke:#000000;stroke-width:3;stroke-miterlimit:10;}
	.st60{fill:#FFFFFF;stroke:#000000;stroke-width:16.0686;stroke-linecap:round;stroke-linejoin:round;stroke-miterlimit:10;}
	.st61{fill:#FFFFFF;stroke:#000000;stroke-width:15;stroke-linejoin:round;stroke-miterlimit:10;}
	.st62{fill:url(#);stroke:#000000;stroke-width:13.497;stroke-linecap:round;stroke-linejoin:round;stroke-miterlimit:10;}
	.st63{fill:#06A6FF;}
	.st64{fill:#FF0303;}
	.st65{fill:#3DFF06;}
	.st66{fill:#FFF808;}
	.st67{fill:none;stroke:#000000;stroke-width:0;stroke-linecap:round;stroke-linejoin:round;}
</style>
<g id="unexpanded" class="st0">
	<text transform="matrix(-4.489659e-11 1 1 4.489659e-11 27.7192 303.6926)" class="st1"><tspan x="0" y="0" class="st2 st3">www</tspan><tspan x="45.14" y="0" class="st2 st4"> </tspan><tspan x="46.99" y="0" class="st2 st3">.</tspan><tspan x="51.77" y="0" class="st2 st4"> </tspan><tspan x="53.63" y="0" class="st2 st3">Capitalism</tspan><tspan x="150.43" y="0" class="st2 st5"> </tspan><tspan x="153.9" y="0" class="st2 st3">Is</tspan><tspan x="168.88" y="0" class="st2 st5"> </tspan><tspan x="172.34" y="0" class="st2 st3">A</tspan><tspan x="186.6" y="0" class="st2 st4"> </tspan><tspan x="188.46" y="0" class="st2 st3">Virus</tspan><tspan x="236.15" y="0" class="st2 st4"> </tspan><tspan x="238.01" y="0" class="st2 st3">.</tspan><tspan x="242.79" y="0" class="st2 st4"> </tspan><tspan x="244.64" y="0" class="st2 st3">org</tspan></text>
	<text transform="matrix(0 1 -1 0 761.9287 34.3259)" class="st1"><tspan x="0" y="0" class="st2 st3">#</tspan><tspan x="12.7" y="0" class="st2 st6"> </tspan><tspan x="14.5" y="0" class="st2 st3">Capitalism</tspan><tspan x="111.3" y="0" class="st2 st6"> </tspan><tspan x="113.1" y="0" class="st2 st3">Is</tspan><tspan x="128.09" y="0" class="st2 st6"> </tspan><tspan x="129.89" y="0" class="st2 st3">A</tspan><tspan x="144.15" y="0" class="st2 st6"> </tspan><tspan x="145.95" y="0" class="st2 st3">Virus</tspan></text>
	<g class="st1">
		<path class="st17" d="M772.94,551.41c-98.23-72.56-235.48-136.86-235.48-136.86l-161.11-40.48c0,0-40.89,64.23,0.58,116.48
			c39.81,50.17,89.23,27.87,125.52,31.78c5.2,3.81,44.7,36.34,87.42,71.68"/>
		<path class="st18" d="M350.16,204.54c0,0-37.03-11.39-32-49.76c5.03-38.37,0.92-49.75-8.8-51.82
			c11.45-13.6,40.78-4.87,60.53,14.83c-13.02-36.95,24.57-63.44-9.18-103.01c42.06-4.94,86.52,54.18,79.42,100.05
			c0,0,19.43-32.91,19.43-56.36c27.98,23.11,34.83,54.38,12.69,98.27c-15.68,31.07-11.94,46.93-11.94,46.93L350.16,204.54z"/>
		<path class="st19" d="M511.59,208.1c0-7.53-10.48-13.63-23.06-13.63c-9,0-41.53,0-50.52,0c-9,0-31.62,0-40.62,0
			c-9,0-31.62,0-40.62,0c-9,0-31.62,0-40.62,0c-12.57,0-23.06,6.1-23.06,13.63c28.81,34.01-4.65,52.97-4.65,52.97
			c41.8,0,65.63,23.33,65.63,39.68l11.44,247.67c0,0,0.55,45.6,36.84,45.6s35.16-45.6,35.16-45.6l13.12-247.67
			c0-16.35,23.83-39.68,65.63-39.68C516.24,261.06,482.78,242.11,511.59,208.1z"/>
		<path class="st20" d="M417.64,523.17c12.48,2.4,23.7-5.61,24.74-16.65c1.05-11.07-6.7-20.83-17.03-22.82
			c-23.19-4.42-45.5-12.33-66.15-23.42c-9.21-4.92-21.29-2.15-27.54,7.05c-6.23,9.18-2.78,22.33,8.35,28.31
			C364.27,508.66,390.44,517.97,417.64,523.17z"/>
		<path class="st20" d="M425.64,483.46c12.32,2.26,23.39-5.74,24.44-16.79c1.06-11.07-6.68-20.84-17.05-22.75
			c-27.04-4.93-49.85-14.29-73.78-27.39c-9.18-5-21.28-2.24-27.5,6.98c-6.22,9.19-2.87,22.25,8.04,28.23
			C367.49,466.92,394.38,477.74,425.64,483.46z"/>
		<path class="st20" d="M433.52,400.61c12.26,2.54,23.51-5.22,24.81-16.24c1.31-11.04-6.22-20.98-16.54-23.13
			c-26.92-5.53-52.68-15.33-76.31-28.95c-9.07-5.2-21.22-2.71-27.65,6.37c-6.42,9.05-3.37,22.18,7.42,28.4
			C372.6,382.85,402.4,394.2,433.52,400.61z"/>
		<path class="st20" d="M439.88,445.03c12.18,2.16,23.13-5.85,24.19-16.89c1.07-11.07-6.67-20.85-17.06-22.69
			c-30.88-5.43-60.52-15.96-87.71-31.08c-9.16-5.08-21.26-2.3-27.47,6.92c-6.2,9.2-2.95,22.19,7.79,28.16
			C370.71,426.75,404.59,438.81,439.88,445.03z"/>
		<path class="st17" d="M451.55,463.88c0,0-33.93-44.97-14.68-92.28c-5.07-2.24-6.8-1.71-6.8-1.71s-8.18,13.72-24.62,14.54
			c-16.43,0.82-24.82-7.16-24.82-7.16s26.72-49.39,31.64-57.4c4.92-8.01,14.55-10.56,29.11-6.32s56.52,13.75,69.29,33.36
			c12.76,19.62,21.9,51.2,26.8,67.64l50.92,25.37"/>
	</g>
</g>
<g id="expanded">
	<polygon points="27.72,309.89 27.72,306.61 18.53,303.7 18.53,307.02 23.74,308.67 23.74,308.75 18.53,310.09 18.53,312.75 
		23.74,314.09 23.74,314.17 18.53,315.82 18.53,318.75 18.53,318.83 18.53,322.07 23.74,323.72 23.74,323.8 18.53,325.14 
		18.53,327.8 23.74,329.14 23.74,329.22 18.53,330.87 18.53,333.79 18.53,333.88 18.53,337.11 23.74,338.76 23.74,338.84 
		18.53,340.18 18.53,342.84 23.74,344.18 23.74,344.27 18.53,345.92 18.53,348.92 27.72,346.02 27.72,342.74 22.52,341.4 
		22.52,341.32 27.72,339.98 27.72,336.7 18.66,333.84 27.72,330.97 27.72,327.7 22.52,326.36 22.52,326.27 27.72,324.93 
		27.72,321.66 18.66,318.79 27.72,315.93 27.72,312.65 22.52,311.31 22.52,311.23 	"/>
	<rect x="24.17" y="351.35" width="3.55" height="3.55"/>
	<path d="M20.26,370.79l0.12-3.36c-1.44-0.21-2.78-0.99-2.78-3.01c0-1.92,1.42-3.03,3.63-3.03s3.63,1.11,3.63,3.03
		c0,2.02-1.34,2.8-2.78,3.01l0.14,3.36c3.24-0.25,5.75-2.37,5.75-6.35c0-3.79-2.74-6.66-6.74-6.66s-6.74,2.87-6.74,6.66
		C14.48,368.42,17.02,370.54,20.26,370.79z"/>
	<path d="M21.91,374.97l-0.21-3.09c-2.02,0.29-3.42,1.79-3.42,4.56c0,2.43,1.05,4.23,3.61,4.23h3.13c0.47,0,0.68,0.21,0.68,0.56
		c0,0.27-0.04,0.47-0.14,0.74h1.77c0.33-0.47,0.6-1.13,0.6-2.08c0-1.13-0.58-2.02-1.63-2.33c1.07-0.54,1.63-1.59,1.63-3.05
		c0-1.79-0.93-2.97-2.49-2.97c-1.77,0-2.54,1.28-2.89,3.28l-0.43,2.58h-0.14c-0.76,0-1.22-0.35-1.22-1.15
		C20.75,375.49,21.23,375.12,21.91,374.97z M23.99,376.03c0.16-0.8,0.41-1.28,1.01-1.28c0.47,0,0.78,0.37,0.78,0.93
		c0,0.95-0.7,1.71-1.9,1.71h-0.14L23.99,376.03z"/>
	<path d="M18.28,389.3c0,2.7,2.14,4.08,4.84,4.08c2.72,0,4.84-1.38,4.84-4.08c0-1.55-0.74-2.58-1.81-3.03h4.87v-3.34H18.53v3.34
		h1.59C19.02,386.72,18.28,387.75,18.28,389.3z M23.06,386.27h0.12c1.34,0,2.21,0.72,2.21,1.86c0,1.3-0.93,1.9-2.27,1.9
		c-1.32,0-2.25-0.6-2.25-1.9C20.88,386.99,21.74,386.27,23.06,386.27z"/>
	<rect x="14.73" y="394.68" width="2.93" height="3.38"/>
	<rect x="18.53" y="394.7" width="9.19" height="3.34"/>
	<path d="M17.19,401.07l-1.2,0.31v2.1h2.54v2.39h2.31v-2.39h3.36c0.78,0,1.09,0.37,1.09,1.05c0,0.41-0.08,0.87-0.31,1.42h2.16
		c0.52-0.7,0.82-1.5,0.82-2.76c0-1.55-0.64-3.01-2.8-3.01h-4.33v-1.24h-2.06l-0.1,0.68C18.53,400.55,18.03,400.84,17.19,401.07z"/>
	<path d="M27.33,417.12c0.33-0.47,0.6-1.13,0.6-2.08c0-1.13-0.58-2.02-1.63-2.33c1.07-0.54,1.63-1.59,1.63-3.05
		c0-1.79-0.93-2.97-2.49-2.97c-1.77,0-2.54,1.28-2.89,3.28l-0.43,2.58h-0.14c-0.76,0-1.22-0.35-1.22-1.15
		c0-0.74,0.47-1.11,1.15-1.26l-0.21-3.09c-2.02,0.29-3.42,1.79-3.42,4.56c0,2.43,1.05,4.23,3.61,4.23h3.13
		c0.47,0,0.68,0.21,0.68,0.56c0,0.27-0.04,0.47-0.14,0.74H27.33z M23.88,412.55h-0.14l0.25-1.36c0.16-0.8,0.41-1.28,1.01-1.28
		c0.47,0,0.78,0.37,0.78,0.93C25.78,411.78,25.08,412.55,23.88,412.55z"/>
	<rect x="14.73" y="418.09" width="12.99" height="3.34"/>
	<rect x="18.53" y="423.24" width="9.19" height="3.34"/>
	<rect x="14.73" y="423.22" width="2.93" height="3.38"/>
	<path d="M24.73,427.74l-0.04,2.91c0.76,0.12,1.2,0.74,1.2,1.75c0,0.74-0.27,1.13-0.64,1.13c-0.35,0-0.6-0.21-0.7-0.85l-0.21-1.36
		c-0.35-2.23-1.07-3.4-2.95-3.4c-1.81,0-3.11,1.59-3.11,4.16c0,2.66,1.18,4.23,3.09,4.41l0.08-2.74c-0.66-0.12-1.07-0.7-1.07-1.73
		c0-0.64,0.25-1.01,0.66-1.01c0.31,0,0.47,0.25,0.52,0.56l0.31,1.79c0.33,2.06,1.26,3.26,3.05,3.26c1.94,0,3.05-1.65,3.05-4.27
		C27.97,429.82,26.96,427.92,24.73,427.74z"/>
	<path d="M18.28,450.1c0,2.54,1.75,3.28,3.67,3.28h5.77v-3.34h-4.89c-1.26,0-1.92-0.23-1.92-1.24c0-1.11,0.91-1.48,2.29-1.48h4.51
		v-3.34h-4.89c-1.26,0-1.92-0.25-1.92-1.26c0-1.09,0.91-1.48,2.29-1.48h4.51v-3.34h-9.19v3.34h1.38c-1.01,0.49-1.63,1.48-1.63,2.87
		c0,1.63,0.74,2.47,1.81,2.87C19.06,447.46,18.28,448.55,18.28,450.1z"/>
	<rect x="14.73" y="458.63" width="12.99" height="3.5"/>
	<path d="M21.04,466.65c0.31,0,0.47,0.25,0.52,0.56l0.31,1.79c0.33,2.06,1.26,3.26,3.05,3.26c1.94,0,3.05-1.65,3.05-4.27
		c0-2.54-1.01-4.43-3.24-4.62l-0.04,2.91c0.76,0.12,1.2,0.74,1.2,1.75c0,0.74-0.27,1.13-0.64,1.13c-0.35,0-0.6-0.21-0.7-0.85
		l-0.21-1.36c-0.35-2.23-1.07-3.4-2.95-3.4c-1.81,0-3.11,1.59-3.11,4.16c0,2.66,1.18,4.23,3.09,4.41l0.08-2.74
		c-0.66-0.12-1.07-0.7-1.07-1.73C20.38,467.02,20.63,466.65,21.04,466.65z"/>
	<path d="M14.73,485.18l12.99,5.17v-3.73l-2.52-0.97v-5.07l2.52-0.97v-3.53l-12.99,5.17V485.18z M18.75,483.08l3.83-1.48v3.05
		l-3.83-1.48V483.08z"/>
	<polygon points="14.73,502.39 14.73,505.87 27.72,500.88 27.72,497.19 14.73,492.2 14.73,495.87 23.37,499.09 23.37,499.17 	"/>
	<rect x="18.53" y="506.78" width="9.19" height="3.34"/>
	<rect x="14.73" y="506.76" width="2.93" height="3.38"/>
	<path d="M18.28,517.78c0,0.56,0.16,1.05,0.35,1.28l3.15-0.21c-0.27-0.45-0.39-0.95-0.39-1.59c0-1.24,0.58-2,2.12-2h4.21v-3.34
		h-9.19v3.34h1.63C19.12,515.6,18.28,516.57,18.28,517.78z"/>
	<path d="M27.97,523.26c0-2.52-1.73-3.28-3.65-3.28h-5.79v3.34h4.91c1.24,0,1.92,0.35,1.92,1.36c0,1.05-0.91,1.46-2.31,1.46h-4.51
		v3.34h9.19v-3.34h-1.38C27.37,525.66,27.97,524.65,27.97,523.26z"/>
	<path d="M24.73,530.64l-0.04,2.91c0.76,0.12,1.2,0.74,1.2,1.75c0,0.74-0.27,1.13-0.64,1.13c-0.35,0-0.6-0.21-0.7-0.85l-0.21-1.36
		c-0.35-2.23-1.07-3.4-2.95-3.4c-1.81,0-3.11,1.59-3.11,4.16c0,2.66,1.18,4.23,3.09,4.41l0.08-2.74c-0.66-0.12-1.07-0.7-1.07-1.73
		c0-0.64,0.25-1.01,0.66-1.01c0.31,0,0.47,0.25,0.52,0.56l0.31,1.79c0.33,2.06,1.26,3.26,3.05,3.26c1.94,0,3.05-1.65,3.05-4.27
		C27.97,532.72,26.96,530.83,24.73,530.64z"/>
	<rect x="24.17" y="542.37" width="3.55" height="3.55"/>
	<path d="M23.12,548.8c-2.84,0-4.84,2.02-4.84,5.03c0,2.99,2,5.03,4.84,5.03c2.87,0,4.84-2.04,4.84-5.03
		C27.97,550.82,25.99,548.8,23.12,548.8z M23.12,555.5c-1.38,0-2.33-0.52-2.33-1.67c0-1.17,0.95-1.67,2.33-1.67
		c1.38,0,2.33,0.49,2.33,1.67C25.45,554.98,24.5,555.5,23.12,555.5z"/>
	<path d="M23.51,563.52h4.21v-3.34h-9.19v3.34h1.63c-1.03,0.33-1.88,1.3-1.88,2.51c0,0.56,0.16,1.05,0.35,1.28l3.15-0.21
		c-0.27-0.45-0.39-0.95-0.39-1.59C21.39,564.28,21.97,563.52,23.51,563.52z"/>
	<path d="M27.93,577.99c2.29,0,3.34-2.78,3.34-5.77c0-2.62-0.52-4.89-2.25-4.89c-0.8,0-1.44,0.72-1.53,1.75
		c-0.27-0.82-1.01-1.32-1.79-1.32c-0.89,0-1.57,0.58-1.94,1.57c-0.54-0.82-1.32-1.32-2.33-1.32c-1.96,0-3.15,1.86-3.15,4.43
		c0,1.11,0.27,2.16,0.74,2.95c-0.76,0.56-1.42,1.57-1.42,2.58h2.51c0-0.39,0.04-0.89,0.14-1.34c0.35,0.19,0.74,0.29,1.17,0.29
		c1.94,0,3.13-1.88,3.13-4.47c0-0.74-0.08-1.4-0.27-2c0.1-0.12,0.25-0.19,0.43-0.19c0.31,0,0.56,0.23,0.56,0.78v3.81
		C25.29,576.94,26.38,577.99,27.93,577.99z M28.13,570.69c0-0.37,0.21-0.62,0.56-0.62c0.66,0,0.84,0.93,0.84,2.16
		c0,1.55-0.31,2.68-0.87,2.68c-0.39,0-0.54-0.29-0.54-0.85V570.69z M21.43,573.45c-0.8,0-1.32-0.41-1.32-0.97
		c0-0.56,0.52-0.97,1.32-0.97c0.82,0,1.34,0.41,1.34,0.97C22.77,573.04,22.26,573.45,21.43,573.45z"/>
	<path d="M771.49,36l-2.06-0.43v1.98l-2.02-0.5v-1.88l-2.06-0.43v1.81l-3.42-0.8v2.49l3.42,0.8v1.77l-3.42-0.8v2.49l3.42,0.8v2.04
		l2.06,0.43v-1.98l2.02,0.5v1.88l2.06,0.43v-1.83l3.42,0.82v-2.49l-3.42-0.82v-1.77l3.42,0.82v-2.49l-3.42-0.83V36z M769.43,41.81
		l-2.02-0.49v-1.77l2.02,0.49V41.81z"/>
	<path d="M768.42,49.23c-4,0-6.74,2.87-6.74,6.66c0,3.98,2.51,6.1,5.75,6.35l0.14-3.36c-1.44-0.21-2.78-0.99-2.78-3.01
		c0-1.92,1.42-3.03,3.63-3.03s3.63,1.11,3.63,3.03c0,2.02-1.34,2.8-2.78,3.01l0.12,3.36c3.24-0.25,5.77-2.37,5.77-6.35
		C775.16,52.1,772.42,49.23,768.42,49.23z"/>
	<path d="M761.72,71.33c0,0.95,0.27,1.61,0.6,2.08h1.77c-0.1-0.27-0.14-0.47-0.14-0.74c0-0.35,0.21-0.56,0.68-0.56h3.13
		c2.56,0,3.61-1.79,3.61-4.23c0-2.76-1.4-4.27-3.42-4.56l-0.21,3.09c0.68,0.14,1.15,0.52,1.15,1.26c0,0.8-0.45,1.15-1.22,1.15h-0.14
		l-0.43-2.58c-0.35-2-1.11-3.28-2.89-3.28c-1.57,0-2.49,1.17-2.49,2.97c0,1.46,0.56,2.52,1.63,3.05
		C762.3,69.31,761.72,70.2,761.72,71.33z M764.65,66.2c0.6,0,0.85,0.47,1.01,1.28l0.25,1.36h-0.14c-1.2,0-1.9-0.76-1.9-1.71
		C763.87,66.57,764.18,66.2,764.65,66.2z"/>
	<path d="M758.63,77.72h4.86c-1.07,0.45-1.81,1.48-1.81,3.03c0,2.7,2.12,4.08,4.84,4.08c2.7,0,4.84-1.38,4.84-4.08
		c0-1.55-0.74-2.58-1.83-3.03h1.59v-3.34h-12.49V77.72z M766.46,77.72h0.12c1.32,0,2.18,0.72,2.18,1.85c0,1.3-0.93,1.9-2.25,1.9
		c-1.34,0-2.27-0.6-2.27-1.9C764.26,78.44,765.12,77.72,766.46,77.72z"/>
	<rect x="771.99" y="86.13" width="2.93" height="3.38"/>
	<rect x="761.93" y="86.15" width="9.19" height="3.34"/>
	<path d="M770.98,91.07l-0.1-0.68h-2.06v1.24h-4.33c-2.16,0-2.8,1.46-2.8,3.01c0,1.26,0.31,2.06,0.82,2.76h2.16
		c-0.23-0.56-0.31-1.01-0.31-1.42c0-0.68,0.31-1.05,1.09-1.05h3.36v2.39h2.31v-2.39h2.54v-2.1l-1.2-0.31
		C771.62,92.29,771.12,92,770.98,91.07z"/>
	<path d="M761.72,106.49c0,0.95,0.27,1.61,0.6,2.08h1.77c-0.1-0.27-0.14-0.47-0.14-0.74c0-0.35,0.21-0.56,0.68-0.56h3.13
		c2.56,0,3.61-1.79,3.61-4.23c0-2.76-1.4-4.27-3.42-4.56l-0.21,3.09c0.68,0.14,1.15,0.52,1.15,1.26c0,0.8-0.45,1.15-1.22,1.15h-0.14
		l-0.43-2.58c-0.35-2-1.11-3.28-2.89-3.28c-1.57,0-2.49,1.18-2.49,2.97c0,1.46,0.56,2.52,1.63,3.05
		C762.3,104.47,761.72,105.36,761.72,106.49z M764.65,101.36c0.6,0,0.85,0.47,1.01,1.28l0.25,1.36h-0.14c-1.2,0-1.9-0.76-1.9-1.71
		C763.87,101.73,764.18,101.36,764.65,101.36z"/>
	<rect x="761.93" y="109.54" width="12.99" height="3.34"/>
	<rect x="771.99" y="114.67" width="2.93" height="3.38"/>
	<rect x="761.93" y="114.69" width="9.19" height="3.34"/>
	<path d="M764.73,128.07c1.79,0,2.72-1.2,3.05-3.26l0.31-1.79c0.04-0.31,0.21-0.56,0.52-0.56c0.41,0,0.66,0.37,0.66,1.01
		c0,1.03-0.41,1.61-1.07,1.73l0.08,2.74c1.92-0.19,3.09-1.75,3.09-4.41c0-2.58-1.3-4.16-3.11-4.16c-1.88,0-2.6,1.18-2.95,3.4
		l-0.21,1.36c-0.1,0.64-0.35,0.84-0.7,0.84c-0.37,0-0.64-0.39-0.64-1.13c0-1.01,0.43-1.63,1.2-1.75l-0.04-2.91
		c-2.23,0.19-3.24,2.08-3.24,4.62C761.68,126.42,762.79,128.07,764.73,128.07z"/>
	<path d="M771.37,135.55c0-1.38-0.62-2.37-1.63-2.87h1.38v-3.34h-9.19v3.34h4.51c1.38,0,2.29,0.39,2.29,1.48
		c0,1.01-0.66,1.26-1.92,1.26h-4.89v3.34h4.51c1.38,0,2.29,0.37,2.29,1.48c0,1.01-0.66,1.24-1.92,1.24h-4.89v3.34h5.77
		c1.92,0,3.67-0.74,3.67-3.28c0-1.55-0.78-2.64-1.81-3.13C770.63,138.02,771.37,137.18,771.37,135.55z"/>
	<rect x="761.93" y="148.42" width="12.99" height="3.5"/>
	<path d="M764.96,156.06l-0.04-2.91c-2.23,0.19-3.24,2.08-3.24,4.62c0,2.62,1.11,4.27,3.05,4.27c1.79,0,2.72-1.2,3.05-3.26
		l0.31-1.79c0.04-0.31,0.21-0.56,0.52-0.56c0.41,0,0.66,0.37,0.66,1.01c0,1.03-0.41,1.61-1.07,1.73l0.08,2.74
		c1.92-0.19,3.09-1.75,3.09-4.41c0-2.58-1.3-4.16-3.11-4.16c-1.88,0-2.6,1.18-2.95,3.4l-0.21,1.36c-0.1,0.64-0.35,0.84-0.7,0.84
		c-0.37,0-0.64-0.39-0.64-1.13C763.76,156.81,764.2,156.19,764.96,156.06z"/>
	<path d="M774.92,169.39l-12.99-5.17v3.52l2.51,0.97v5.07l-2.51,0.97v3.73l12.99-5.17V169.39z M770.9,171.28l-3.83,1.48v-3.05
		l3.83,1.48V171.28z"/>
	<polygon points="774.92,183.94 774.92,180.27 761.93,185.26 761.93,188.95 774.92,193.94 774.92,190.46 766.28,187.24 
		766.28,187.16 	"/>
	<rect x="771.99" y="194.83" width="2.93" height="3.38"/>
	<rect x="761.93" y="194.85" width="9.19" height="3.34"/>
	<path d="M769.49,203.34h1.63V200h-9.19v3.34h4.21c1.55,0,2.12,0.76,2.12,2c0,0.64-0.12,1.13-0.39,1.59l3.15,0.21
		c0.19-0.23,0.35-0.72,0.35-1.28C771.37,204.64,770.52,203.67,769.49,203.34z"/>
	<path d="M766.22,211.4h4.91v-3.34h-5.79c-1.92,0-3.65,0.76-3.65,3.28c0,1.38,0.6,2.39,1.63,2.89h-1.38v3.34h9.19v-3.34h-4.51
		c-1.4,0-2.31-0.41-2.31-1.46C764.3,211.75,764.98,211.4,766.22,211.4z"/>
	<path d="M768.2,224.73l0.08,2.74c1.92-0.19,3.09-1.75,3.09-4.41c0-2.58-1.3-4.16-3.11-4.16c-1.88,0-2.6,1.17-2.95,3.4l-0.21,1.36
		c-0.1,0.64-0.35,0.85-0.7,0.85c-0.37,0-0.64-0.39-0.64-1.13c0-1.01,0.43-1.63,1.2-1.75l-0.04-2.91c-2.23,0.19-3.24,2.08-3.24,4.62
		c0,2.62,1.11,4.27,3.05,4.27c1.79,0,2.72-1.2,3.05-3.26l0.31-1.79c0.04-0.31,0.21-0.56,0.52-0.56c0.41,0,0.66,0.37,0.66,1.01
		C769.27,224.03,768.86,224.61,768.2,224.73z"/>
	<path d="M499.18,254.96c-2.76-3.91-5.13-8.71-6.14-14.41c-1.96-11.02,1.51-22.44,10.33-34c-1.96-2.07-7.24-4.71-14.85-4.71H316.15
		c-7.61,0-12.89,2.64-14.84,4.71c8.82,11.56,12.3,22.98,10.33,34c-1.01,5.7-3.39,10.5-6.14,14.41c16.59,2.56,28.25,8.55,35.68,13.78
		c12.62,8.89,20.18,20.76,20.26,31.81l1.06,22.86c2.26,0.6,4.46,1.48,6.55,2.68c7.92,4.56,16.05,8.66,24.38,12.31
		c5.55-10.11,10.64-19.24,12.57-22.39c9.11-14.85,26.84-12.54,36.95-9.68l0.31-5.8c0.1-11.04,7.65-22.9,20.26-31.78
		C470.93,263.52,482.59,257.52,499.18,254.96z"/>
	<path d="M416.3,530.19c-15.32-2.93-30.3-7.13-44.84-12.53l1.4,30.42c0,0.08,0.01,0.17,0.01,0.25c0,0.09,0.22,10.45,4.4,20.42
		c5.05,12.05,13.25,17.9,25.07,17.9c7.32,0,13.03-2.2,17.46-6.71c10.62-10.83,10.33-31.15,10.33-31.35c0-0.18,0-0.38,0.01-0.56
		l0.99-18.72c-2.9,0.94-5.97,1.42-9.09,1.42C420.13,530.73,418.21,530.55,416.3,530.19z"/>
	<path d="M591.66,433.32l-2.08-1.03c-22.71-11.74-39.47-19.86-46-22.98c-5.07-17.02-14.19-47.11-26.75-66.41
		c-11.17-17.18-39.52-26.82-59.36-32.5l0.49-9.26c0.01-0.13,0.01-0.26,0.01-0.39c0-11.27,20.01-32.31,58.26-32.31
		c3.33,0,6.23-2.25,7.1-5.46s-0.55-6.62-3.43-8.3c-0.11-0.06-10.55-6.25-12.37-16.81c-1.29-7.49,1.97-15.9,9.68-25
		c1.13-1.33,1.75-3.02,1.75-4.76c0-11.77-13.36-21-30.43-21h-19.79c1.48-6.77,4.41-15.8,10.09-27.05
		c22.51-44.6,17.6-80.69-14.57-107.27c-2.2-1.82-5.25-2.2-7.83-0.98c-2.58,1.22-4.23,3.81-4.23,6.67c0,8.26-2.78,18.05-6.19,26.94
		c-4.27-18.91-14.46-37.96-29.12-53.17c-17.32-17.97-38.11-27-57.04-24.77c-2.7,0.32-5.01,2.1-6,4.63s-0.51,5.4,1.25,7.47
		c17.24,20.22,13.37,35.9,8.89,54.05c-2.03,8.21-4.22,17.08-4.31,26.64c-11.84-7.49-24.71-11.67-35.67-11.2
		c-8.53,0.37-15.55,3.54-20.29,9.17c-1.67,1.98-2.17,4.69-1.33,7.14c0.84,2.45,2.9,4.28,5.43,4.82c1.13,0.24,3.03,0.65,4.24,6.57
		c1.49,7.31,1.1,19.45-1.22,37.09c-1.78,13.6,1.14,24.61,6.24,33.28h-0.94c-17.06,0-30.42,9.22-30.42,21c0,1.74,0.62,3.43,1.75,4.76
		c7.71,9.1,10.97,17.52,9.68,25c-1.82,10.56-12.27,16.75-12.34,16.79c-2.91,1.65-4.35,5.05-3.49,8.29c0.85,3.24,3.78,5.49,7.13,5.49
		c38.25,0,58.26,21.03,58.26,32.31c0,0.11,0,0.23,0.01,0.34l1.04,22.45c-6.17,1.7-11.81,5.46-15.74,10.99
		c-4.12,5.81-5.59,13.21-4.04,20.32c1.12,5.13,3.75,9.84,7.49,13.61c-3.73,2.11-7.03,5.08-9.56,8.83c-4.05,6-5.33,13.26-3.62,20.43
		c1.43,5.96,4.9,11.31,9.76,15.21c-2.36,1.81-4.47,4.02-6.21,6.59c-3.99,5.9-5.3,13.33-3.59,20.4c1.54,6.38,5.43,12.05,10.85,16.01
		c-2.82,1.95-5.33,4.43-7.34,7.39c-3.99,5.88-5.28,13.3-3.55,20.37c1.89,7.68,7.15,14.33,14.43,18.25
		c6.48,3.48,13.08,6.69,19.79,9.64l1.71,37.09c0.03,1.53,0.45,13.39,5.36,25.36c7.24,17.65,21.03,27.37,38.84,27.37
		c11.36,0,20.8-3.77,28.05-11.2c14.23-14.59,14.51-38.43,14.48-41.63l0.91-17.25c9.24,0.18,18.2-0.48,26.6-1.09
		c9.75-0.71,18.99-1.39,27.27-0.74c7.88,6.17,37.86,30.79,85.52,70.22c1.37,1.14,3.04,1.69,4.69,1.69c2.12,0,4.22-0.91,5.68-2.67
		c1.52-1.84,1.99-4.2,1.49-6.37c-0.35-1.52-1.18-2.94-2.47-4.01c-36.82-30.47-81.94-67.68-87.76-71.95
		c-1.05-0.77-2.28-1.24-3.57-1.38c-10.11-1.09-20.71-0.31-31.94,0.51c-8.18,0.6-16.43,1.2-24.66,1.09c1.56-2.89,2.53-6.07,2.85-9.42
		c0.42-4.43-0.24-8.76-1.77-12.72l0.54-10.18c4.75-4.05,7.8-9.45,8.73-15.45c2.34-2.57,2.6-6.52,0.43-9.39
		c-0.31-0.42-31.21-42.13-13.73-85.06c1.5-3.69-0.2-7.91-3.85-9.52c-5.03-2.22-9.05-2.9-11.94-2.02c-1.75,0.54-3.2,1.65-4.14,3.22
		c-0.26,0.42-6.56,10.4-18.69,11c-6.55,0.33-11.43-0.99-14.67-2.39c7.29-13.43,24.39-44.87,28.13-50.96
		c3.16-5.15,10.15-6.19,20.76-3.1c1.64,0.48,3.62,1.02,5.87,1.64c16.06,4.4,49.48,13.57,59.3,28.67
		c11.72,18.02,20.6,47.86,25.37,63.89l0.55,1.83c0.58,1.96,1.95,3.58,3.78,4.49l48.97,24.4c47.39,24.5,120.69,64.79,180.33,108.07
		c1.71,1.24,3.41,2.48,5.09,3.72c3.27,2.42,7.89,1.72,10.31-1.55c2.42-3.27,1.72-7.89-1.55-10.31
		C717.1,501,641.7,459.32,592.38,433.74C592.15,433.59,591.91,433.45,591.66,433.32z M324.65,103.77
		c11.71-0.5,28.18,7.4,40.04,19.23c2.43,2.43,6.23,2.85,9.14,1.02c2.91-1.83,4.16-5.44,3.02-8.68c-4.69-13.31-1.7-25.4,1.46-38.2
		c3.94-15.95,8.31-33.67-2.8-54c10.39,2.64,21.1,9.28,30.78,19.32c19.38,20.1,30.06,48.73,26.57,71.24
		c-0.54,3.49,1.47,6.88,4.8,8.07c3.33,1.19,7.03-0.15,8.83-3.19c0.67-1.14,13.44-22.96,18.46-44.54
		c17.34,20.62,17.48,46.21,0.73,79.39c-7.09,14.05-10.47,25.29-11.99,33.69H335.63c-8.4-8.23-11.82-18.77-10.17-31.37
		c2.56-19.56,2.9-32.89,1.04-41.96c-0.79-3.89-2.05-7.17-3.75-9.85C323.36,103.85,323.99,103.79,324.65,103.77z M343.66,342.79
		c2.76-3.9,7.21-6.04,11.66-6.04c2.27,0,4.55,0.56,6.6,1.74c8,4.61,16.22,8.78,24.62,12.51c-6.36,11.66-11.88,21.86-12.38,22.77
		c-0.02,0.03-0.02,0.06-0.04,0.09c-1.57-0.71-3.13-1.43-4.69-2.17c-2.23-1.16-4.46-2.35-6.67-3.57c-1.36-0.75-2.77-1.37-4.2-1.87
		c-3.28-1.73-6.53-3.52-9.74-5.37c-3.57-2.06-6.08-5.37-6.89-9.08C341.22,348.56,341.83,345.36,343.66,342.79z M430.14,548.02
		c-0.01,0.18-0.01,0.38-0.01,0.56c0,0.2,0.29,20.52-10.33,31.35c-4.43,4.52-10.14,6.71-17.46,6.71c-11.82,0-20.03-5.86-25.07-17.9
		c-4.18-9.97-4.4-20.33-4.4-20.42c0-0.08,0-0.17-0.01-0.25l-1.4-30.42c14.54,5.41,29.52,9.6,44.84,12.53
		c1.91,0.37,3.83,0.55,5.74,0.55c3.12,0,6.19-0.48,9.09-1.42L430.14,548.02z M435.27,505.85c-0.29,3.05-1.9,5.83-4.55,7.82
		c-3.2,2.4-7.47,3.31-11.73,2.49c0,0,0,0-0.01,0c-26.46-5.06-51.89-14.08-75.58-26.82c-3.73-2-6.39-5.31-7.32-9.06
		c-0.78-3.19-0.25-6.36,1.5-8.93c2.75-4.06,7.34-6.33,11.94-6.33c0.08,0,0.16,0.01,0.24,0.01c17.24,8.62,33.53,15.05,50.09,19.76
		c7.93,2.39,15.99,4.37,24.16,5.93C431,492.05,435.94,498.7,435.27,505.85z M431.74,450.95c1.65,0.3,3.17,0.91,4.54,1.74
		c2.56,5.09,4.98,9.09,6.74,11.79c0.01,0.5-0.01,1.01-0.06,1.52c-0.29,3.1-1.92,5.91-4.58,7.91c-3.13,2.37-7.31,3.29-11.46,2.52
		c0,0,0,0,0,0c-28.26-5.17-54.07-14.72-83.7-30.96c-3.61-1.98-6.2-5.23-7.09-8.93c-0.78-3.21-0.23-6.42,1.54-9.03
		c2.24-3.31,5.68-5.39,9.34-6.06c18.19,9.25,37.14,16.76,56.69,22.46C412.96,446.9,422.21,449.21,431.74,450.95z M425.17,385.17
		c-0.39,2.02-0.69,4.02-0.93,6.02c-2.34-0.58-4.67-1.18-7-1.81C420.24,388.21,422.89,386.75,425.17,385.17z M423.71,407.7
		c0.58,10.2,2.73,19.67,5.49,27.95c-30.18-6.53-59.1-17.41-86.11-32.45c-3.57-1.98-6.02-5.11-6.91-8.81
		c-0.77-3.23-0.22-6.46,1.57-9.11c2.72-4.04,7.23-6.29,11.74-6.29c2.18,0,4.36,0.52,6.34,1.62
		C377.27,392.53,400.03,401.6,423.71,407.7z M443.24,300.53l-0.31,5.8c-10.1-2.85-27.83-5.17-36.95,9.68
		c-1.93,3.15-7.02,12.29-12.57,22.39c-8.33-3.65-16.47-7.75-24.38-12.31c-2.09-1.2-4.3-2.08-6.55-2.68l-1.06-22.86
		c-0.08-11.04-7.65-22.92-20.26-31.81c-7.42-5.23-19.09-11.22-35.68-13.78c2.76-3.91,5.13-8.72,6.14-14.41
		c1.96-11.02-1.51-22.44-10.33-34c1.96-2.07,7.24-4.71,14.84-4.71h172.38c7.61,0,12.89,2.64,14.85,4.71
		c-8.82,11.56-12.3,22.98-10.33,34c1.01,5.7,3.39,10.5,6.14,14.41c-16.59,2.56-28.25,8.55-35.68,13.78
		C450.9,277.63,443.34,289.49,443.24,300.53z"/>
</g>
</svg>
