<?xml version="1.0" encoding="utf-8"?>
<!-- Generator: Adobe Illustrator 23.1.1, SVG Export Plug-In . SVG Version: 6.00 Build 0)  -->
<svg version="1.1" xmlns="http://www.w3.org/2000/svg" xmlns:xlink="http://www.w3.org/1999/xlink" x="0px" y="0px"
	 viewBox="0 0 792 612" style="enable-background:new 0 0 792 612;" xml:space="preserve">
<style type="text/css">
	.st0{display:none;}
	.st1{display:inline;}
	.st2{font-family:'FoundersGrotesk-Bold';}
	.st3{font-size:174.1762px;}
	.st4{font-size:164.5935px;}
	.st5{font-size:203.5096px;}
	
		.st6{display:inline;fill:#FFFFFF;stroke:#000000;stroke-width:16;stroke-linecap:round;stroke-linejoin:round;stroke-miterlimit:10;}
	.st7{fill:#FFFFFF;stroke:#000000;stroke-width:16;stroke-linecap:round;stroke-linejoin:round;stroke-miterlimit:10;}
	.st8{display:inline;fill:none;stroke:#000000;stroke-width:24;stroke-linejoin:round;stroke-miterlimit:10;}
	.st9{display:inline;fill:#FFFFFF;}
	.st10{fill:#FFFFFF;stroke:#000000;stroke-width:17;stroke-linecap:round;stroke-miterlimit:10;}
	.st11{fill:#FFFFFF;stroke:#000000;stroke-width:17;stroke-miterlimit:10;}
	.st12{stroke:#000000;stroke-width:16.0572;stroke-linecap:round;stroke-miterlimit:10;}
	.st13{fill:#FFFFFF;}
	.st14{fill:#FFFFFF;stroke:#000000;stroke-width:17.1072;stroke-linecap:round;stroke-linejoin:round;stroke-miterlimit:10;}
	.st15{stroke:#000000;stroke-width:17.1072;stroke-linecap:round;stroke-linejoin:round;stroke-miterlimit:10;}
	.st16{fill:#FFFFFF;stroke:#000000;stroke-width:14.7375;stroke-linecap:round;stroke-linejoin:round;stroke-miterlimit:10;}
	.st17{fill:none;stroke:#000000;stroke-width:14.7375;stroke-linecap:round;stroke-linejoin:round;stroke-miterlimit:10;}
	.st18{stroke:#000000;stroke-width:14.7375;stroke-linecap:round;stroke-linejoin:round;stroke-miterlimit:10;}
	.st19{fill:#FFFFFF;stroke:#000000;stroke-width:14.2911;stroke-linecap:round;stroke-linejoin:round;stroke-miterlimit:10;}
	.st20{fill:none;stroke:#000000;stroke-width:13.497;stroke-miterlimit:10;}
	.st21{fill:#FFFFFF;stroke:#000000;stroke-width:13.497;stroke-linecap:round;stroke-linejoin:round;stroke-miterlimit:10;}
	.st22{fill:#FFFFFF;stroke:#000000;stroke-width:13.497;stroke-miterlimit:10;}
	.st23{fill:#FFFFFF;stroke:#000000;stroke-width:14.7439;stroke-linecap:round;stroke-miterlimit:10;}
	.st24{fill:#FFFFFF;stroke:#000000;stroke-width:14.7439;stroke-miterlimit:10;}
	.st25{stroke:#000000;stroke-width:13.9262;stroke-linecap:round;stroke-miterlimit:10;}
	
		.st26{display:inline;fill:#FFFFFF;stroke:#000000;stroke-width:14.6942;stroke-linecap:round;stroke-linejoin:round;stroke-miterlimit:10;}
	.st27{fill:#FFFFFF;stroke:#000000;stroke-width:14.6942;stroke-linecap:round;stroke-linejoin:round;stroke-miterlimit:10;}
	.st28{fill:none;stroke:#000000;stroke-width:24;stroke-linejoin:round;stroke-miterlimit:10;}
	.st29{fill:none;stroke:#000000;stroke-width:30.5612;stroke-linecap:round;stroke-linejoin:round;stroke-miterlimit:10;}
	.st30{fill:#FFFFFF;stroke:#000000;stroke-width:16.2993;stroke-linecap:round;stroke-linejoin:round;stroke-miterlimit:10;}
	.st31{display:inline;fill:#FFFFFF;stroke:#000000;stroke-width:13.497;stroke-linecap:round;stroke-miterlimit:10;}
	
		.st32{display:inline;fill:none;stroke:#000000;stroke-width:13.497;stroke-linecap:round;stroke-linejoin:round;stroke-miterlimit:10;}
	
		.st33{display:inline;fill:#FFFFFF;stroke:#000000;stroke-width:13.497;stroke-linecap:round;stroke-linejoin:round;stroke-miterlimit:10;}
	
		.st34{display:inline;fill:url(#);stroke:#000000;stroke-width:13.497;stroke-linecap:round;stroke-linejoin:round;stroke-miterlimit:10;}
	.st35{fill:#FFFFFF;stroke:#000000;stroke-width:15.2362;stroke-linecap:round;stroke-linejoin:round;stroke-miterlimit:10;}
	.st36{fill:#FFFFFF;stroke:#000000;stroke-width:14.8467;stroke-linecap:round;stroke-linejoin:round;stroke-miterlimit:10;}
	.st37{stroke:#000000;stroke-width:20.1683;stroke-linecap:round;stroke-miterlimit:10;}
	.st38{fill:none;stroke:#000000;stroke-width:14.8467;stroke-linecap:round;stroke-linejoin:round;stroke-miterlimit:10;}
	.st39{fill:#FFFFFF;stroke:#FFFFFF;stroke-width:3;stroke-miterlimit:10;}
	.st40{display:inline;fill:none;stroke:#000000;stroke-width:15;stroke-linecap:round;stroke-linejoin:round;stroke-miterlimit:10;}
	
		.st41{display:inline;fill:#FFFFFF;stroke:#000000;stroke-width:15;stroke-linecap:round;stroke-linejoin:round;stroke-miterlimit:10;}
	.st42{fill:#FFFFFF;stroke:#000000;stroke-width:15;stroke-linecap:round;stroke-linejoin:round;stroke-miterlimit:10;}
	.st43{fill:#FFFFFF;stroke:#000000;stroke-width:11.7326;stroke-linecap:round;stroke-linejoin:round;stroke-miterlimit:10;}
	.st44{fill:#FFFFFF;stroke:#000000;stroke-width:13.2623;stroke-linecap:round;stroke-linejoin:round;stroke-miterlimit:10;}
	.st45{fill:none;stroke:#000000;stroke-width:16;stroke-linecap:round;stroke-miterlimit:10;}
	.st46{fill:url(#);stroke:#000000;stroke-width:16;stroke-linecap:round;stroke-linejoin:round;stroke-miterlimit:10;}
	.st47{fill:#FFFFFF;stroke:#000000;stroke-width:16;stroke-linecap:round;stroke-miterlimit:10;}
	.st48{fill:#FFFFFF;stroke:#000000;stroke-width:13.2623;stroke-linecap:round;stroke-miterlimit:10;}
	.st49{stroke:#000000;stroke-width:4.5213;stroke-miterlimit:10;}
	.st50{fill:none;stroke:#000000;stroke-width:15.2344;stroke-linecap:round;stroke-linejoin:round;stroke-miterlimit:10;}
	.st51{fill:#FFFFFF;stroke:#000000;stroke-width:15.2344;stroke-linecap:round;stroke-linejoin:round;stroke-miterlimit:10;}
	.st52{stroke:#000000;stroke-width:18.3348;stroke-linecap:round;stroke-miterlimit:10;}
	.st53{fill:none;stroke:#000000;stroke-width:13.497;stroke-linecap:round;stroke-linejoin:round;stroke-miterlimit:10;}
	.st54{font-size:20.6105px;}
	.st55{font-size:10.3052px;}
	.st56{font-size:19.2364px;}
	.st57{font-size:10px;}
	.st58{display:inline;fill:none;stroke:#000000;stroke-width:16;stroke-linecap:round;stroke-linejoin:round;stroke-miterlimit:10;}
	.st59{fill:#FFFFFF;stroke:#000000;stroke-width:13.3058;stroke-linecap:round;stroke-linejoin:round;stroke-miterlimit:10;}
	.st60{fill:#FFFFFF;stroke:#000000;stroke-width:17;stroke-linecap:round;stroke-linejoin:round;stroke-miterlimit:10;}
	.st61{fill:#FFFFFF;stroke:#000000;stroke-width:15.2517;stroke-linecap:round;stroke-linejoin:round;stroke-miterlimit:10;}
	.st62{stroke:#000000;stroke-width:3;stroke-miterlimit:10;}
	.st63{fill:#FFFFFF;stroke:#000000;stroke-width:16.0686;stroke-linecap:round;stroke-linejoin:round;stroke-miterlimit:10;}
	.st64{fill:#FFFFFF;stroke:#000000;stroke-width:15;stroke-linejoin:round;stroke-miterlimit:10;}
	.st65{fill:url(#);stroke:#000000;stroke-width:13.497;stroke-linecap:round;stroke-linejoin:round;stroke-miterlimit:10;}
	.st66{fill:#06A6FF;}
	.st67{fill:#FF0303;}
	.st68{fill:#3DFF06;}
	.st69{fill:#FFF808;}
	.st70{fill:none;stroke:#000000;stroke-width:0;stroke-linecap:round;stroke-linejoin:round;}
</style>
<g id="unexpanded" class="st0">
	<g class="st1">
		<g>
			<g>
				<text transform="matrix(1 0 0 1 6.208 193.0491)" class="st2 st3">PROTECT</text>
			</g>
		</g>
		<g>
			<g>
				<text transform="matrix(1 0 0 1 -1.1636 349.2119)" class="st2 st4">Healthcare</text>
			</g>
		</g>
		<g>
			<text transform="matrix(1 0 0 1 23.5273 539.5688)" class="st2 st5">Workers</text>
		</g>
	</g>
	<g class="st1">
		<g>
			<text transform="matrix(1 0 0 1 258.9681 599.7979)"><tspan x="0" y="0" class="st2 st54">www</tspan><tspan x="45.14" y="0" class="st2 st55"> </tspan><tspan x="46.99" y="0" class="st2 st54">.</tspan><tspan x="51.77" y="0" class="st2 st55"> </tspan><tspan x="53.63" y="0" class="st2 st54">Capitalism</tspan><tspan x="150.43" y="0" class="st2 st56"> </tspan><tspan x="153.9" y="0" class="st2 st54">Is</tspan><tspan x="168.88" y="0" class="st2 st56"> </tspan><tspan x="172.34" y="0" class="st2 st54">A</tspan><tspan x="186.6" y="0" class="st2 st55"> </tspan><tspan x="188.46" y="0" class="st2 st54">Virus</tspan><tspan x="236.15" y="0" class="st2 st55"> </tspan><tspan x="238.01" y="0" class="st2 st54">.</tspan><tspan x="242.79" y="0" class="st2 st55"> </tspan><tspan x="244.64" y="0" class="st2 st54">org</tspan></text>
		</g>
		<g>
			<text transform="matrix(1 0 0 1 299.1799 22.1245)"><tspan x="0" y="0" class="st2 st54">#</tspan><tspan x="12.7" y="0" class="st2 st57"> </tspan><tspan x="14.5" y="0" class="st2 st54">Capitalism</tspan><tspan x="111.3" y="0" class="st2 st57"> </tspan><tspan x="113.1" y="0" class="st2 st54">Is</tspan><tspan x="128.09" y="0" class="st2 st57"> </tspan><tspan x="129.89" y="0" class="st2 st54">A</tspan><tspan x="144.15" y="0" class="st2 st57"> </tspan><tspan x="145.95" y="0" class="st2 st54">Virus</tspan></text>
		</g>
	</g>
</g>
<g id="expanded">
	<path d="M50.54,158.74h18.81c28.74,0,45.46-13.41,45.46-37.8c0-24.21-16.72-37.62-45.46-37.62H21.1v109.73h29.44V158.74z
		 M50.54,107h17.42c13.24,0,18.29,4.88,18.29,14.11s-5.05,13.93-18.29,13.93H50.54V107z"/>
	<path d="M124.38,83.32v109.73h29.09v-36.4h19.68c9.93,0,15.33,2.79,16.2,15.33c0.87,11.32,2.26,18.11,4.53,21.08h29.96
		c-3.66-4.01-4.18-8.88-5.75-25.26c-1.22-12.71-7.84-19.16-19.16-21.42c13.41-1.74,23.34-12.19,23.34-28.22
		c0-21.42-14.11-34.84-42.5-34.84H124.38z M193.36,120.59c0,10.1-6.27,13.24-18.81,13.24h-21.08V107h21.08
		C187.09,107,193.36,111.71,193.36,120.59z"/>
	<path d="M287.41,195.14c31.88,0,56.96-23.17,56.96-56.96s-25.08-56.96-56.96-56.96c-31.87,0-56.96,23.17-56.96,56.96
		S255.54,195.14,287.41,195.14z M287.41,107.35c16.2,0,26.48,12.19,26.48,30.83s-10.28,30.83-26.48,30.83
		c-16.2,0-26.48-12.19-26.48-30.83S271.21,107.35,287.41,107.35z"/>
	<polygon points="346.98,107.7 384.6,107.7 384.6,193.05 414.04,193.05 414.04,107.7 452.18,107.7 452.18,83.32 346.98,83.32 	"/>
	<polygon points="549.72,107.7 549.72,83.32 464.89,83.32 464.89,193.05 551.29,193.05 551.29,168.66 493.98,168.66 493.98,149.68 
		537,149.68 537,125.64 493.98,125.64 493.98,107.7 	"/>
	<path d="M613.29,195.14c33.62,0,51.56-21.25,53.65-48.6l-28.39-1.22c-1.74,12.19-8.36,23.51-25.43,23.51
		c-16.2,0-25.6-12.02-25.6-30.66s9.41-30.66,25.6-30.66c17.07,0,23.69,11.32,25.43,23.51l28.39-1.04
		c-2.09-27.35-20.03-48.77-53.65-48.77c-32.05,0-56.26,23.17-56.26,56.96S581.24,195.14,613.29,195.14z"/>
	<polygon points="706.82,193.05 736.26,193.05 736.26,107.7 774.4,107.7 774.4,83.32 669.2,83.32 669.2,107.7 706.82,107.7 	"/>
	<polygon points="35.38,308.23 76.69,308.23 76.69,349.21 104.67,349.21 104.67,245.52 76.69,245.52 76.69,285.51 35.38,285.51 
		35.38,245.52 7.39,245.52 7.39,349.21 35.38,349.21 	"/>
	<path d="M193.39,310.53c0-19.92-13-36.71-37.53-36.71c-22.88,0-40,16.62-40,39.83c0,23.37,16.79,37.53,40.33,37.53
		c19.42,0,32.92-9.38,36.71-26.17l-21.4-1.98c-2.47,5.76-7.08,8.23-14.32,8.23c-8.06,0-14.65-4.28-15.31-13.33h51.52V310.53z
		 M142.2,305.1c0.99-6.91,4.77-12.18,13.33-12.18c7.9,0,12.18,5.6,12.51,12.18H142.2z"/>
	<path d="M226.14,307.9c-15.97,2.8-26.17,8.89-26.17,23.04c0,12.51,9.38,19.92,23.7,19.92c11.69,0,20.08-4.44,24.36-13
		c2.47,8.39,9.55,13,18.6,13c7.57,0,12.84-2.14,16.62-4.77v-14.16c-2.14,0.82-3.79,1.15-5.93,1.15c-2.8,0-4.44-1.65-4.44-5.43
		v-25.02c0-20.41-14.32-28.8-33.74-28.8c-22.06,0-34.07,11.19-36.38,27.32l24.69,1.65c1.15-5.43,4.12-9.22,10.04-9.22
		c6.42,0,9.22,3.62,9.22,9.71v1.15L226.14,307.9z M246.71,318.6c0,9.55-6.09,15.14-13.66,15.14c-4.44,0-7.41-2.47-7.41-6.25
		c0-4.77,3.79-6.75,10.21-8.07l10.86-1.98V318.6z"/>
	<rect x="290.99" y="245.52" width="26.66" height="103.7"/>
	<path d="M341.84,265.1c-1.81,6.75-4.12,10.7-11.52,11.85l-5.43,0.82v16.46h9.88v34.57c0,17.28,11.69,22.39,24.03,22.39
		c10.04,0,16.46-2.47,22.06-6.58v-17.28c-4.44,1.81-8.07,2.47-11.36,2.47c-5.43,0-8.39-2.47-8.39-8.72v-26.83h19.09V275.8H361.1
		v-20.25h-16.79L341.84,265.1z"/>
	<path d="M417.72,286.83v-41.31h-26.66v103.7h26.66v-36.05c0-11.03,3.62-18.27,12.67-18.27c8.06,0,10.86,5.27,10.86,15.31v39.01
		h26.66v-46.09c0-15.31-6.42-29.3-26.5-29.3C430.39,273.83,421.67,278.76,417.72,286.83z"/>
	<path d="M518.12,293.91c7.74,0,12.18,4.28,13.99,13.33l21.89-1.48c-1.81-17.61-14.16-31.93-36.21-31.93
		c-23.21,0-40.16,15.47-40.16,38.68c0,23.37,16.95,38.68,40.16,38.68c22.06,0,34.4-14.16,36.21-31.93l-21.89-1.65
		c-1.81,9.05-6.25,13.5-13.99,13.5c-8.07,0-13.66-5.43-13.66-18.6S510.06,293.91,518.12,293.91z"/>
	<path d="M586.1,307.9c-15.97,2.8-26.17,8.89-26.17,23.04c0,12.51,9.38,19.92,23.7,19.92c11.69,0,20.08-4.44,24.36-13
		c2.47,8.39,9.55,13,18.6,13c7.57,0,12.84-2.14,16.62-4.77v-14.16c-2.14,0.82-3.79,1.15-5.93,1.15c-2.8,0-4.44-1.65-4.44-5.43
		v-25.02c0-20.41-14.32-28.8-33.74-28.8c-22.06,0-34.07,11.19-36.38,27.32l24.69,1.65c1.15-5.43,4.12-9.22,10.04-9.22
		c6.42,0,9.22,3.62,9.22,9.71v1.15L586.1,307.9z M606.67,318.6c0,9.55-6.09,15.14-13.66,15.14c-4.44,0-7.41-2.47-7.41-6.25
		c0-4.77,3.79-6.75,10.21-8.07l10.86-1.98V318.6z"/>
	<path d="M677.61,288.8v-13h-26.66v73.41h26.66v-33.58c0-12.34,6.09-16.95,15.97-16.95c5.1,0,9.05,0.99,12.67,3.13l1.65-25.18
		c-1.81-1.48-5.76-2.8-10.21-2.8C687.98,273.83,680.24,280.58,677.61,288.8z"/>
	<path d="M750.85,273.83c-22.88,0-40,16.62-40,39.83c0,23.37,16.79,37.53,40.33,37.53c19.42,0,32.92-9.38,36.71-26.17l-21.4-1.98
		c-2.47,5.76-7.08,8.23-14.32,8.23c-8.06,0-14.65-4.28-15.31-13.33h51.52v-7.41C788.38,290.62,775.38,273.83,750.85,273.83z
		 M737.19,305.1c0.99-6.91,4.77-12.18,13.33-12.18c7.9,0,12.18,5.6,12.51,12.18H737.19z"/>
	<polygon points="84.88,491.75 84.07,491.75 63.72,411.36 29.12,411.36 62.7,539.57 98.93,539.57 120.29,458.57 121.11,458.57 
		142.48,539.57 179.31,539.57 212.89,411.36 179.51,411.36 159.16,491.75 158.35,491.75 137.19,411.36 106.05,411.36 	"/>
	<path d="M210.86,494.19c0,28.29,19.94,47.82,49.66,47.82c29.51,0,49.66-19.54,49.66-47.82c0-28.08-20.15-47.82-49.66-47.82
		C230.8,446.36,210.86,466.1,210.86,494.19z M277,494.19c0,13.63-5.09,23-16.48,23c-11.6,0-16.48-9.36-16.48-23
		c0-13.64,4.88-23,16.48-23C271.91,471.19,277,480.55,277,494.19z"/>
	<path d="M323.19,539.57h32.97v-41.52c0-15.26,7.53-20.96,19.74-20.96c6.31,0,11.19,1.22,15.67,3.87l2.04-31.14
		c-2.24-1.83-7.12-3.46-12.62-3.46c-12.01,0-21.57,8.34-24.83,18.52V448.8h-32.97V539.57z"/>
	<polygon points="506.55,448.8 467.89,448.8 436.75,480.15 436.75,411.36 403.78,411.36 403.78,539.57 436.75,539.57 436.75,510.87 
		444.69,502.73 470.74,539.57 507.78,539.57 469.11,484.42 	"/>
	<path d="M505.13,495.61c0,28.9,20.76,46.4,49.86,46.4c24.01,0,40.7-11.6,45.38-32.36l-26.46-2.44
		c-3.05,7.12-8.75,10.18-17.71,10.18c-9.97,0-18.11-5.29-18.93-16.48h63.7v-9.16c0-24.62-16.08-45.38-46.4-45.38
		C526.3,446.36,505.13,466.92,505.13,495.61z M554.18,469.97c9.77,0,15.06,6.92,15.47,15.06h-31.95
		C538.91,476.48,543.59,469.97,554.18,469.97z"/>
	<path d="M614.41,448.8v90.76h32.97v-41.52c0-15.26,7.53-20.96,19.74-20.96c6.31,0,11.19,1.22,15.67,3.87l2.04-31.14
		c-2.24-1.83-7.12-3.46-12.62-3.46c-12.01,0-21.57,8.34-24.83,18.52V448.8H614.41z"/>
	<path d="M730.82,467.12c10.18,0,15.87,4.07,17.09,10.58l27.07-0.81c-1.83-18.93-17.3-30.53-43.55-30.53
		c-25.44,0-41.11,12.82-41.11,30.73c0,18.52,11.6,25.64,33.58,29.1l13.43,2.03c6.31,1.02,8.34,3.46,8.34,6.92
		c0,3.66-3.87,6.31-11.19,6.31c-9.97,0-16.08-4.27-17.3-11.8l-28.69,0.41c1.83,21.98,20.55,31.95,45.59,31.95
		c25.85,0,42.13-10.99,42.13-30.12c0-17.71-11.8-26.86-32.15-30.12l-17.71-3.05c-3.05-0.41-5.49-2.04-5.49-5.09
		C720.85,469.56,724.51,467.12,730.82,467.12z"/>
	<polygon points="266.5,594.6 266.58,594.6 267.92,599.8 271.2,599.8 274.07,590.74 276.93,599.8 280.21,599.8 281.55,594.6 
		281.63,594.6 282.97,599.8 286.25,599.8 289.11,590.74 291.98,599.8 295.25,599.8 296.59,594.6 296.68,594.6 298.02,599.8 
		301.29,599.8 304.2,590.6 301.19,590.6 299.54,595.82 299.46,595.82 298.12,590.6 295.46,590.6 294.12,595.82 294.04,595.82 
		292.39,590.6 289.16,590.6 289.07,590.6 286.15,590.6 284.5,595.82 284.41,595.82 283.07,590.6 280.41,590.6 279.07,595.82 
		278.99,595.82 277.34,590.6 274.11,590.6 274.02,590.6 271.1,590.6 269.45,595.82 269.37,595.82 268.03,590.6 265.37,590.6 
		264.03,595.82 263.95,595.82 262.3,590.6 258.98,590.6 261.88,599.8 265.16,599.8 	"/>
	<rect x="306.63" y="596.25" width="3.55" height="3.55"/>
	<path d="M313.06,593.3c0,4,2.87,6.74,6.66,6.74c3.98,0,6.1-2.51,6.35-5.75l-3.36-0.14c-0.21,1.44-0.99,2.78-3.01,2.78
		c-1.92,0-3.03-1.42-3.03-3.63s1.11-3.63,3.03-3.63c2.02,0,2.8,1.34,3.01,2.78l3.36-0.12c-0.25-3.24-2.37-5.77-6.35-5.77
		C315.93,586.56,313.06,589.3,313.06,593.3z"/>
	<path d="M330.08,594.62c-2,0.35-3.28,1.11-3.28,2.89c0,1.57,1.18,2.49,2.97,2.49c1.46,0,2.51-0.56,3.05-1.63
		c0.31,1.05,1.2,1.63,2.33,1.63c0.95,0,1.61-0.27,2.08-0.6v-1.77c-0.27,0.1-0.47,0.14-0.74,0.14c-0.35,0-0.56-0.21-0.56-0.68v-3.13
		c0-2.56-1.79-3.61-4.23-3.61c-2.76,0-4.27,1.4-4.56,3.42l3.09,0.21c0.14-0.68,0.52-1.15,1.26-1.15c0.8,0,1.15,0.45,1.15,1.22v0.14
		L330.08,594.62z M332.66,595.96c0,1.2-0.76,1.9-1.71,1.9c-0.56,0-0.93-0.31-0.93-0.78c0-0.6,0.47-0.85,1.28-1.01l1.36-0.25V595.96z
		"/>
	<path d="M338.2,590.6v12.49h3.34v-4.86c0.45,1.07,1.48,1.81,3.03,1.81c2.7,0,4.08-2.12,4.08-4.84c0-2.7-1.38-4.84-4.08-4.84
		c-1.55,0-2.58,0.74-3.03,1.83v-1.59H338.2z M343.4,592.95c1.3,0,1.9,0.93,1.9,2.25c0,1.34-0.6,2.27-1.9,2.27
		c-1.13,0-1.85-0.87-1.85-2.21v-0.12C341.54,593.82,342.27,592.95,343.4,592.95z"/>
	<rect x="349.95" y="586.81" width="3.38" height="2.93"/>
	<rect x="349.97" y="590.6" width="3.34" height="9.19"/>
	<path d="M356.65,588.07l-0.31,1.2c-0.23,0.85-0.52,1.34-1.44,1.48l-0.68,0.1v2.06h1.24v4.33c0,2.16,1.46,2.8,3.01,2.8
		c1.26,0,2.06-0.31,2.76-0.82v-2.16c-0.56,0.23-1.01,0.31-1.42,0.31c-0.68,0-1.05-0.31-1.05-1.09v-3.36h2.39v-2.31h-2.39v-2.54
		H356.65z"/>
	<path d="M365.25,594.62c-2,0.35-3.28,1.11-3.28,2.89c0,1.57,1.17,2.49,2.97,2.49c1.46,0,2.51-0.56,3.05-1.63
		c0.31,1.05,1.2,1.63,2.33,1.63c0.95,0,1.61-0.27,2.08-0.6v-1.77c-0.27,0.1-0.47,0.14-0.74,0.14c-0.35,0-0.56-0.21-0.56-0.68v-3.13
		c0-2.56-1.79-3.61-4.23-3.61c-2.76,0-4.27,1.4-4.56,3.42l3.09,0.21c0.14-0.68,0.52-1.15,1.26-1.15c0.8,0,1.15,0.45,1.15,1.22v0.14
		L365.25,594.62z M367.82,595.96c0,1.2-0.76,1.9-1.71,1.9c-0.56,0-0.93-0.31-0.93-0.78c0-0.6,0.47-0.85,1.28-1.01l1.36-0.25V595.96z
		"/>
	<rect x="373.37" y="586.81" width="3.34" height="12.99"/>
	<rect x="378.52" y="590.6" width="3.34" height="9.19"/>
	<rect x="378.5" y="586.81" width="3.38" height="2.93"/>
	<path d="M387.67,597.96c-1.01,0-1.63-0.43-1.75-1.2l-2.91,0.04c0.19,2.23,2.08,3.24,4.62,3.24c2.62,0,4.27-1.11,4.27-3.05
		c0-1.79-1.2-2.72-3.26-3.05l-1.79-0.31c-0.31-0.04-0.56-0.21-0.56-0.52c0-0.41,0.37-0.66,1.01-0.66c1.03,0,1.61,0.41,1.73,1.07
		l2.74-0.08c-0.19-1.92-1.75-3.09-4.41-3.09c-2.58,0-4.16,1.3-4.16,3.11c0,1.88,1.17,2.6,3.4,2.95l1.36,0.21
		c0.64,0.1,0.85,0.35,0.85,0.7C388.8,597.7,388.41,597.96,387.67,597.96z"/>
	<path d="M393.17,590.6v9.19h3.34v-4.51c0-1.38,0.39-2.29,1.48-2.29c1.01,0,1.26,0.66,1.26,1.92v4.89h3.34v-4.51
		c0-1.38,0.37-2.29,1.48-2.29c1.01,0,1.24,0.66,1.24,1.92v4.89h3.34v-5.77c0-1.92-0.74-3.67-3.28-3.67c-1.55,0-2.64,0.78-3.13,1.81
		c-0.39-1.07-1.24-1.81-2.87-1.81c-1.38,0-2.37,0.62-2.87,1.63v-1.38H393.17z"/>
	<rect x="413.91" y="586.81" width="3.5" height="12.99"/>
	<path d="M423.3,597.96c-1.01,0-1.63-0.43-1.75-1.2l-2.91,0.04c0.19,2.23,2.08,3.24,4.62,3.24c2.62,0,4.27-1.11,4.27-3.05
		c0-1.79-1.2-2.72-3.26-3.05l-1.79-0.31c-0.31-0.04-0.56-0.21-0.56-0.52c0-0.41,0.37-0.66,1.01-0.66c1.03,0,1.61,0.41,1.73,1.07
		l2.74-0.08c-0.19-1.92-1.75-3.09-4.41-3.09c-2.58,0-4.16,1.3-4.16,3.11c0,1.88,1.17,2.6,3.4,2.95l1.36,0.21
		c0.64,0.1,0.84,0.35,0.84,0.7C424.44,597.7,424.05,597.96,423.3,597.96z"/>
	<path d="M435.86,597.28h5.07l0.97,2.51h3.73l-5.17-12.99h-3.92l-5.17,12.99h3.53L435.86,597.28z M438.35,590.83h0.08l1.48,3.83
		h-3.05L438.35,590.83z"/>
	<polygon points="456.16,599.8 461.15,586.81 457.66,586.81 454.45,595.45 454.36,595.45 451.15,586.81 447.48,586.81 452.47,599.8 
			"/>
	<rect x="462.03" y="586.81" width="3.38" height="2.93"/>
	<rect x="462.05" y="590.6" width="3.34" height="9.19"/>
	<path d="M467.2,590.6v9.19h3.34v-4.21c0-1.55,0.76-2.12,2-2.12c0.64,0,1.13,0.12,1.59,0.39l0.21-3.15
		c-0.23-0.19-0.72-0.35-1.28-0.35c-1.22,0-2.19,0.85-2.52,1.88v-1.63H467.2z"/>
	<path d="M475.26,590.6v5.79c0,1.92,0.76,3.65,3.28,3.65c1.38,0,2.39-0.6,2.89-1.63v1.38h3.34v-9.19h-3.34v4.51
		c0,1.4-0.41,2.31-1.46,2.31c-1.01,0-1.36-0.68-1.36-1.92v-4.91H475.26z"/>
	<path d="M490.58,597.96c-1.01,0-1.63-0.43-1.75-1.2l-2.91,0.04c0.19,2.23,2.08,3.24,4.62,3.24c2.62,0,4.27-1.11,4.27-3.05
		c0-1.79-1.2-2.72-3.26-3.05l-1.79-0.31c-0.31-0.04-0.56-0.21-0.56-0.52c0-0.41,0.37-0.66,1.01-0.66c1.03,0,1.61,0.41,1.73,1.07
		l2.74-0.08c-0.19-1.92-1.75-3.09-4.41-3.09c-2.58,0-4.16,1.3-4.16,3.11c0,1.88,1.18,2.6,3.4,2.95l1.36,0.21
		c0.64,0.1,0.84,0.35,0.84,0.7C491.71,597.7,491.32,597.96,490.58,597.96z"/>
	<rect x="497.64" y="596.25" width="3.55" height="3.55"/>
	<path d="M509.1,590.36c-3.01,0-5.03,2-5.03,4.84c0,2.87,2.02,4.84,5.03,4.84c2.99,0,5.03-1.98,5.03-4.84
		C514.13,592.36,512.09,590.36,509.1,590.36z M509.1,597.53c-1.18,0-1.67-0.95-1.67-2.33s0.49-2.33,1.67-2.33
		c1.15,0,1.67,0.95,1.67,2.33S510.26,597.53,509.1,597.53z"/>
	<path d="M515.45,590.6v9.19h3.34v-4.21c0-1.55,0.76-2.12,2-2.12c0.64,0,1.13,0.12,1.59,0.39l0.21-3.15
		c-0.23-0.19-0.72-0.35-1.28-0.35c-1.22,0-2.19,0.85-2.51,1.88v-1.63H515.45z"/>
	<path d="M522.6,601.1c0,1.73,2.27,2.25,4.89,2.25c2.99,0,5.77-1.05,5.77-3.34c0-1.55-1.05-2.64-3.13-2.64h-3.81
		c-0.56,0-0.78-0.25-0.78-0.56c0-0.19,0.06-0.33,0.19-0.43c0.6,0.19,1.26,0.27,2,0.27c2.6,0,4.47-1.2,4.47-3.13
		c0-0.43-0.1-0.83-0.29-1.18c0.45-0.1,0.95-0.14,1.34-0.14v-2.52c-1.01,0-2.02,0.66-2.58,1.42c-0.78-0.47-1.83-0.74-2.95-0.74
		c-2.58,0-4.43,1.2-4.43,3.15c0,1.01,0.5,1.79,1.32,2.33c-0.99,0.37-1.57,1.05-1.57,1.94c0,0.78,0.49,1.53,1.32,1.79
		C523.33,599.65,522.6,600.29,522.6,601.1z M527.76,592.19c0.56,0,0.97,0.52,0.97,1.32c0,0.82-0.41,1.34-0.97,1.34
		s-0.97-0.52-0.97-1.34C526.79,592.71,527.2,592.19,527.76,592.19z M525.96,600.21h3.38c0.56,0,0.85,0.14,0.85,0.54
		c0,0.56-1.13,0.87-2.68,0.87c-1.24,0-2.16-0.19-2.16-0.85C525.35,600.42,525.59,600.21,525.96,600.21z"/>
	<path d="M311.03,14.62l0.43-2.06h-1.83l0.82-3.42h-2.49l-0.82,3.42h-1.77l0.82-3.42h-2.49l-0.82,3.42h-2.02l-0.43,2.06h1.98
		l-0.49,2.02h-1.88l-0.43,2.06h1.81l-0.8,3.42h2.49l0.8-3.42h1.77l-0.8,3.42h2.49l0.8-3.42h2.04l0.43-2.06h-1.98l0.49-2.02H311.03z
		 M306.17,16.64h-1.77l0.49-2.02h1.77L306.17,16.64z"/>
	<path d="M320.73,12c2.02,0,2.8,1.34,3.01,2.78l3.36-0.12c-0.25-3.24-2.37-5.77-6.35-5.77c-3.79,0-6.66,2.74-6.66,6.74
		s2.87,6.74,6.66,6.74c3.98,0,6.1-2.52,6.35-5.75l-3.36-0.14c-0.21,1.44-0.99,2.78-3.01,2.78c-1.92,0-3.03-1.42-3.03-3.63
		S318.81,12,320.73,12z"/>
	<path d="M331.11,16.95c-2,0.35-3.28,1.11-3.28,2.89c0,1.57,1.18,2.49,2.97,2.49c1.46,0,2.51-0.56,3.05-1.63
		c0.31,1.05,1.2,1.63,2.33,1.63c0.95,0,1.61-0.27,2.08-0.6v-1.77c-0.27,0.1-0.47,0.14-0.74,0.14c-0.35,0-0.56-0.21-0.56-0.68v-3.13
		c0-2.56-1.79-3.61-4.23-3.61c-2.76,0-4.27,1.4-4.56,3.42l3.09,0.21c0.14-0.68,0.52-1.15,1.26-1.15c0.8,0,1.15,0.45,1.15,1.22v0.14
		L331.11,16.95z M333.69,18.29c0,1.2-0.76,1.9-1.71,1.9c-0.56,0-0.93-0.31-0.93-0.78c0-0.6,0.47-0.85,1.28-1.01l1.36-0.25V18.29z"/>
	<path d="M339.23,12.93v12.49h3.34v-4.87c0.45,1.07,1.48,1.81,3.03,1.81c2.7,0,4.08-2.12,4.08-4.84c0-2.7-1.38-4.84-4.08-4.84
		c-1.55,0-2.58,0.74-3.03,1.83v-1.59H339.23z M344.43,15.28c1.3,0,1.9,0.93,1.9,2.25c0,1.34-0.6,2.27-1.9,2.27
		c-1.13,0-1.86-0.87-1.86-2.21v-0.12C342.57,16.15,343.29,15.28,344.43,15.28z"/>
	<rect x="350.98" y="9.14" width="3.38" height="2.93"/>
	<rect x="351" y="12.93" width="3.34" height="9.19"/>
	<path d="M357.68,10.39l-0.31,1.2c-0.23,0.85-0.52,1.34-1.44,1.48l-0.68,0.1v2.06h1.24v4.33c0,2.16,1.46,2.8,3.01,2.8
		c1.26,0,2.06-0.31,2.76-0.82v-2.16c-0.56,0.23-1.01,0.31-1.42,0.31c-0.68,0-1.05-0.31-1.05-1.09v-3.36h2.39v-2.31h-2.39v-2.54
		H357.68z"/>
	<path d="M363.35,16.1l3.09,0.21c0.14-0.68,0.52-1.15,1.26-1.15c0.8,0,1.15,0.45,1.15,1.22v0.14l-2.58,0.43
		c-2,0.35-3.28,1.11-3.28,2.89c0,1.57,1.17,2.49,2.97,2.49c1.46,0,2.51-0.56,3.05-1.63c0.31,1.05,1.2,1.63,2.33,1.63
		c0.95,0,1.61-0.27,2.08-0.6v-1.77c-0.27,0.1-0.47,0.14-0.74,0.14c-0.35,0-0.56-0.21-0.56-0.68v-3.13c0-2.56-1.79-3.61-4.23-3.61
		C365.14,12.68,363.63,14.08,363.35,16.1z M368.85,18.29c0,1.2-0.76,1.9-1.71,1.9c-0.56,0-0.93-0.31-0.93-0.78
		c0-0.6,0.47-0.85,1.28-1.01l1.36-0.25V18.29z"/>
	<rect x="374.39" y="9.14" width="3.34" height="12.99"/>
	<rect x="379.55" y="12.93" width="3.34" height="9.19"/>
	<rect x="379.53" y="9.14" width="3.38" height="2.93"/>
	<path d="M388.7,20.29c-1.01,0-1.63-0.43-1.75-1.2l-2.91,0.04c0.19,2.23,2.08,3.24,4.62,3.24c2.62,0,4.27-1.11,4.27-3.05
		c0-1.79-1.2-2.72-3.26-3.05l-1.79-0.31c-0.31-0.04-0.56-0.21-0.56-0.52c0-0.41,0.37-0.66,1.01-0.66c1.03,0,1.61,0.41,1.73,1.07
		l2.74-0.08c-0.19-1.92-1.75-3.09-4.41-3.09c-2.58,0-4.16,1.3-4.16,3.11c0,1.88,1.17,2.6,3.4,2.95l1.36,0.21
		c0.64,0.1,0.85,0.35,0.85,0.7C389.83,20.02,389.44,20.29,388.7,20.29z"/>
	<path d="M397.54,17.61c0-1.38,0.39-2.29,1.48-2.29c1.01,0,1.26,0.66,1.26,1.92v4.89h3.34v-4.51c0-1.38,0.37-2.29,1.48-2.29
		c1.01,0,1.24,0.66,1.24,1.92v4.89h3.34v-5.77c0-1.92-0.74-3.67-3.28-3.67c-1.55,0-2.64,0.78-3.13,1.81
		c-0.39-1.07-1.24-1.81-2.87-1.81c-1.38,0-2.37,0.62-2.87,1.63v-1.38h-3.34v9.19h3.34V17.61z"/>
	<rect x="413.27" y="9.14" width="3.5" height="12.99"/>
	<path d="M422.67,20.29c-1.01,0-1.63-0.43-1.75-1.2l-2.91,0.04c0.19,2.23,2.08,3.24,4.62,3.24c2.62,0,4.27-1.11,4.27-3.05
		c0-1.79-1.2-2.72-3.26-3.05l-1.79-0.31c-0.31-0.04-0.56-0.21-0.56-0.52c0-0.41,0.37-0.66,1.01-0.66c1.03,0,1.61,0.41,1.73,1.07
		l2.74-0.08c-0.19-1.92-1.75-3.09-4.41-3.09c-2.58,0-4.16,1.3-4.16,3.11c0,1.88,1.17,2.6,3.4,2.95l1.36,0.21
		c0.64,0.1,0.85,0.35,0.85,0.7C423.8,20.02,423.41,20.29,422.67,20.29z"/>
	<path d="M433.56,19.61h5.07l0.97,2.52h3.73l-5.17-12.99h-3.92l-5.17,12.99h3.53L433.56,19.61z M436.05,13.16h0.08l1.48,3.83h-3.05
		L436.05,13.16z"/>
	<polygon points="453.81,22.12 458.8,9.14 455.31,9.14 452.1,17.77 452.01,17.77 448.8,9.14 445.13,9.14 450.12,22.12 	"/>
	<rect x="459.7" y="12.93" width="3.34" height="9.19"/>
	<rect x="459.68" y="9.14" width="3.38" height="2.93"/>
	<path d="M468.19,17.92c0-1.55,0.76-2.12,2-2.12c0.64,0,1.13,0.12,1.59,0.39l0.21-3.15c-0.23-0.19-0.72-0.35-1.28-0.35
		c-1.22,0-2.19,0.85-2.52,1.88v-1.63h-3.34v9.19h3.34V17.92z"/>
	<path d="M476.19,22.37c1.38,0,2.39-0.6,2.89-1.63v1.38h3.34v-9.19h-3.34v4.51c0,1.4-0.41,2.31-1.46,2.31
		c-1.01,0-1.36-0.68-1.36-1.92v-4.91h-3.34v5.79C472.91,20.64,473.67,22.37,476.19,22.37z"/>
	<path d="M488.22,20.29c-1.01,0-1.63-0.43-1.75-1.2l-2.91,0.04c0.19,2.23,2.08,3.24,4.62,3.24c2.62,0,4.27-1.11,4.27-3.05
		c0-1.79-1.2-2.72-3.26-3.05l-1.79-0.31c-0.31-0.04-0.56-0.21-0.56-0.52c0-0.41,0.37-0.66,1.01-0.66c1.03,0,1.61,0.41,1.73,1.07
		l2.74-0.08c-0.19-1.92-1.75-3.09-4.41-3.09c-2.58,0-4.16,1.3-4.16,3.11c0,1.88,1.18,2.6,3.4,2.95l1.36,0.21
		c0.64,0.1,0.84,0.35,0.84,0.7C489.36,20.02,488.97,20.29,488.22,20.29z"/>
</g>
</svg>
