<?xml version="1.0" encoding="utf-8"?>
<!-- Generator: Adobe Illustrator 23.1.1, SVG Export Plug-In . SVG Version: 6.00 Build 0)  -->
<svg version="1.1" xmlns="http://www.w3.org/2000/svg" xmlns:xlink="http://www.w3.org/1999/xlink" x="0px" y="0px"
	 viewBox="0 0 792 612" style="enable-background:new 0 0 792 612;" xml:space="preserve">
<style type="text/css">
	.st0{display:none;}
	.st1{display:inline;}
	
		.st2{display:inline;fill:#FFFFFF;stroke:#000000;stroke-width:16;stroke-linecap:round;stroke-linejoin:round;stroke-miterlimit:10;}
	.st3{fill:#FFFFFF;stroke:#000000;stroke-width:16;stroke-linecap:round;stroke-linejoin:round;stroke-miterlimit:10;}
	.st4{display:inline;fill:none;stroke:#000000;stroke-width:24;stroke-linejoin:round;stroke-miterlimit:10;}
	.st5{display:inline;fill:#FFFFFF;}
	.st6{fill:#FFFFFF;stroke:#000000;stroke-width:17;stroke-linecap:round;stroke-miterlimit:10;}
	.st7{fill:#FFFFFF;stroke:#000000;stroke-width:17;stroke-miterlimit:10;}
	.st8{stroke:#000000;stroke-width:16.0572;stroke-linecap:round;stroke-miterlimit:10;}
	.st9{fill:#FFFFFF;}
	.st10{fill:#FFFFFF;stroke:#000000;stroke-width:17.1072;stroke-linecap:round;stroke-linejoin:round;stroke-miterlimit:10;}
	.st11{stroke:#000000;stroke-width:17.1072;stroke-linecap:round;stroke-linejoin:round;stroke-miterlimit:10;}
	.st12{fill:#FFFFFF;stroke:#000000;stroke-width:14.7375;stroke-linecap:round;stroke-linejoin:round;stroke-miterlimit:10;}
	.st13{fill:none;stroke:#000000;stroke-width:14.7375;stroke-linecap:round;stroke-linejoin:round;stroke-miterlimit:10;}
	.st14{stroke:#000000;stroke-width:14.7375;stroke-linecap:round;stroke-linejoin:round;stroke-miterlimit:10;}
	.st15{fill:#FFFFFF;stroke:#000000;stroke-width:14.2911;stroke-linecap:round;stroke-linejoin:round;stroke-miterlimit:10;}
	.st16{fill:none;stroke:#000000;stroke-width:13.497;stroke-miterlimit:10;}
	.st17{fill:#FFFFFF;stroke:#000000;stroke-width:13.497;stroke-linecap:round;stroke-linejoin:round;stroke-miterlimit:10;}
	.st18{fill:#FFFFFF;stroke:#000000;stroke-width:13.497;stroke-miterlimit:10;}
	.st19{fill:#FFFFFF;stroke:#000000;stroke-width:14.7439;stroke-linecap:round;stroke-miterlimit:10;}
	.st20{fill:#FFFFFF;stroke:#000000;stroke-width:14.7439;stroke-miterlimit:10;}
	.st21{stroke:#000000;stroke-width:13.9262;stroke-linecap:round;stroke-miterlimit:10;}
	
		.st22{display:inline;fill:#FFFFFF;stroke:#000000;stroke-width:14.6942;stroke-linecap:round;stroke-linejoin:round;stroke-miterlimit:10;}
	.st23{fill:#FFFFFF;stroke:#000000;stroke-width:14.6942;stroke-linecap:round;stroke-linejoin:round;stroke-miterlimit:10;}
	.st24{fill:none;stroke:#000000;stroke-width:24;stroke-linejoin:round;stroke-miterlimit:10;}
	.st25{fill:none;stroke:#000000;stroke-width:30.5612;stroke-linecap:round;stroke-linejoin:round;stroke-miterlimit:10;}
	.st26{fill:#FFFFFF;stroke:#000000;stroke-width:16.2993;stroke-linecap:round;stroke-linejoin:round;stroke-miterlimit:10;}
	.st27{display:inline;fill:#FFFFFF;stroke:#000000;stroke-width:13.497;stroke-linecap:round;stroke-miterlimit:10;}
	
		.st28{display:inline;fill:none;stroke:#000000;stroke-width:13.497;stroke-linecap:round;stroke-linejoin:round;stroke-miterlimit:10;}
	
		.st29{display:inline;fill:#FFFFFF;stroke:#000000;stroke-width:13.497;stroke-linecap:round;stroke-linejoin:round;stroke-miterlimit:10;}
	
		.st30{display:inline;fill:url(#);stroke:#000000;stroke-width:13.497;stroke-linecap:round;stroke-linejoin:round;stroke-miterlimit:10;}
	.st31{fill:#FFFFFF;stroke:#000000;stroke-width:15.2362;stroke-linecap:round;stroke-linejoin:round;stroke-miterlimit:10;}
	.st32{fill:#FFFFFF;stroke:#000000;stroke-width:14.8467;stroke-linecap:round;stroke-linejoin:round;stroke-miterlimit:10;}
	.st33{stroke:#000000;stroke-width:20.1683;stroke-linecap:round;stroke-miterlimit:10;}
	.st34{fill:none;stroke:#000000;stroke-width:14.8467;stroke-linecap:round;stroke-linejoin:round;stroke-miterlimit:10;}
	.st35{fill:#FFFFFF;stroke:#FFFFFF;stroke-width:3;stroke-miterlimit:10;}
	.st36{display:inline;fill:none;stroke:#000000;stroke-width:15;stroke-linecap:round;stroke-linejoin:round;stroke-miterlimit:10;}
	
		.st37{display:inline;fill:#FFFFFF;stroke:#000000;stroke-width:15;stroke-linecap:round;stroke-linejoin:round;stroke-miterlimit:10;}
	.st38{fill:#FFFFFF;stroke:#000000;stroke-width:15;stroke-linecap:round;stroke-linejoin:round;stroke-miterlimit:10;}
	.st39{fill:#FFFFFF;stroke:#000000;stroke-width:11.7326;stroke-linecap:round;stroke-linejoin:round;stroke-miterlimit:10;}
	.st40{font-family:'FoundersGrotesk-Bold';}
	.st41{font-size:143px;}
	.st42{fill:#FFFFFF;stroke:#000000;stroke-width:13.2623;stroke-linecap:round;stroke-linejoin:round;stroke-miterlimit:10;}
	.st43{fill:none;stroke:#000000;stroke-width:16;stroke-linecap:round;stroke-miterlimit:10;}
	.st44{fill:url(#);stroke:#000000;stroke-width:16;stroke-linecap:round;stroke-linejoin:round;stroke-miterlimit:10;}
	.st45{fill:#FFFFFF;stroke:#000000;stroke-width:16;stroke-linecap:round;stroke-miterlimit:10;}
	.st46{fill:#FFFFFF;stroke:#000000;stroke-width:13.2623;stroke-linecap:round;stroke-miterlimit:10;}
	.st47{stroke:#000000;stroke-width:4.5213;stroke-miterlimit:10;}
	.st48{fill:none;stroke:#000000;stroke-width:15.2344;stroke-linecap:round;stroke-linejoin:round;stroke-miterlimit:10;}
	.st49{fill:#FFFFFF;stroke:#000000;stroke-width:15.2344;stroke-linecap:round;stroke-linejoin:round;stroke-miterlimit:10;}
	.st50{stroke:#000000;stroke-width:18.3348;stroke-linecap:round;stroke-miterlimit:10;}
	.st51{fill:none;stroke:#000000;stroke-width:13.497;stroke-linecap:round;stroke-linejoin:round;stroke-miterlimit:10;}
	.st52{font-size:20.6105px;}
	.st53{font-size:10.3052px;}
	.st54{font-size:19.2364px;}
	.st55{font-size:10px;}
	.st56{display:inline;fill:none;stroke:#000000;stroke-width:16;stroke-linecap:round;stroke-linejoin:round;stroke-miterlimit:10;}
	.st57{fill:#FFFFFF;stroke:#000000;stroke-width:13.3058;stroke-linecap:round;stroke-linejoin:round;stroke-miterlimit:10;}
	.st58{fill:#FFFFFF;stroke:#000000;stroke-width:17;stroke-linecap:round;stroke-linejoin:round;stroke-miterlimit:10;}
	.st59{fill:#FFFFFF;stroke:#000000;stroke-width:15.2517;stroke-linecap:round;stroke-linejoin:round;stroke-miterlimit:10;}
	.st60{stroke:#000000;stroke-width:3;stroke-miterlimit:10;}
	.st61{fill:#FFFFFF;stroke:#000000;stroke-width:16.0686;stroke-linecap:round;stroke-linejoin:round;stroke-miterlimit:10;}
	.st62{fill:#FFFFFF;stroke:#000000;stroke-width:15;stroke-linejoin:round;stroke-miterlimit:10;}
	.st63{fill:url(#);stroke:#000000;stroke-width:13.497;stroke-linecap:round;stroke-linejoin:round;stroke-miterlimit:10;}
	.st64{fill:#06A6FF;}
	.st65{fill:#FF0303;}
	.st66{fill:#3DFF06;}
	.st67{fill:#FFF808;}
	.st68{fill:none;stroke:#000000;stroke-width:0;stroke-linecap:round;stroke-linejoin:round;}
</style>
<g id="unexpanded" class="st0">
	<g class="st1">
		<g>
			<text transform="matrix(1 0 0 1 101.6997 142.4304)"><tspan x="0" y="0" class="st40 st41">¡El pueblo</tspan><tspan x="126.48" y="130.9" class="st40 st41">unido</tspan><tspan x="-33.25" y="261.79" class="st40 st41">jamás será</tspan><tspan x="38.97" y="392.69" class="st40 st41">vencido!</tspan></text>
		</g>
	</g>
	<g class="st1">
		<g>
			<text transform="matrix(1 0 0 1 258.9679 599.7979)"><tspan x="0" y="0" class="st40 st52">www</tspan><tspan x="45.14" y="0" class="st40 st53"> </tspan><tspan x="46.99" y="0" class="st40 st52">.</tspan><tspan x="51.77" y="0" class="st40 st53"> </tspan><tspan x="53.63" y="0" class="st40 st52">Capitalism</tspan><tspan x="150.43" y="0" class="st40 st54"> </tspan><tspan x="153.9" y="0" class="st40 st52">Is</tspan><tspan x="168.88" y="0" class="st40 st54"> </tspan><tspan x="172.34" y="0" class="st40 st52">A</tspan><tspan x="186.6" y="0" class="st40 st53"> </tspan><tspan x="188.46" y="0" class="st40 st52">Virus</tspan><tspan x="236.15" y="0" class="st40 st53"> </tspan><tspan x="238.01" y="0" class="st40 st52">.</tspan><tspan x="242.79" y="0" class="st40 st53"> </tspan><tspan x="244.64" y="0" class="st40 st52">org</tspan></text>
		</g>
		<g>
			<text transform="matrix(1 0 0 1 299.1802 22.1245)"><tspan x="0" y="0" class="st40 st52">#</tspan><tspan x="12.7" y="0" class="st40 st55"> </tspan><tspan x="14.5" y="0" class="st40 st52">Capitalism</tspan><tspan x="111.3" y="0" class="st40 st55"> </tspan><tspan x="113.1" y="0" class="st40 st52">Is</tspan><tspan x="128.09" y="0" class="st40 st55"> </tspan><tspan x="129.89" y="0" class="st40 st52">A</tspan><tspan x="144.15" y="0" class="st40 st55"> </tspan><tspan x="145.95" y="0" class="st40 st52">Virus</tspan></text>
		</g>
	</g>
</g>
<g id="expanded">
	<rect x="106.35" y="68.35" width="24.6" height="24.6"/>
	<polygon points="106.35,158.45 130.94,158.45 130.94,135.28 126.08,98.38 111.21,98.38 106.35,135.28 	"/>
	<polygon points="211.03,72.36 211.03,52.34 141.38,52.34 141.38,142.43 212.31,142.43 212.31,122.41 165.26,122.41 165.26,106.82 
		200.59,106.82 200.59,87.09 165.26,87.09 165.26,72.36 	"/>
	<rect x="222.61" y="52.34" width="23.17" height="90.09"/>
	<path d="M284.09,165.31h23.17v-33.75c3.15,7.44,10.3,12.58,21.02,12.58c18.73,0,28.31-14.73,28.31-33.61
		c0-18.73-9.58-33.61-28.31-33.61c-10.73,0-17.88,5.15-21.02,12.73V78.65h-23.17V165.31z M307.26,110.11c0-9.15,5-15.16,12.87-15.16
		c9.01,0,13.16,6.43,13.16,15.59c0,9.3-4.15,15.73-13.16,15.73c-7.87,0-12.87-6.01-12.87-15.3V110.11z"/>
	<path d="M365.03,118.83c0,13.3,5.29,25.31,22.74,25.31c9.58,0,16.59-4.15,20.02-11.3v9.58h23.17V78.65h-23.17v31.32
		c0,9.72-2.86,16.02-10.15,16.02c-7.01,0-9.44-4.72-9.44-13.3V78.65h-23.17V118.83z"/>
	<path d="M440.11,111.54c0,20.31,14.59,32.6,35.04,32.6c16.88,0,28.6-8.15,31.89-22.74l-18.59-1.72c-2.14,5.01-6.15,7.15-12.44,7.15
		c-7.01,0-12.73-3.72-13.3-11.58h44.76v-6.44c0-17.3-11.3-31.89-32.61-31.89C454.98,76.93,440.11,91.38,440.11,111.54z
		 M474.57,93.52c6.86,0,10.58,4.86,10.87,10.58h-22.45C463.84,98.1,467.13,93.52,474.57,93.52z"/>
	<path d="M561.08,76.93c-10.72,0-17.88,5.15-21.02,12.73V52.34h-23.17v90.09h17.88l4-11.01c3.58,7.72,11.58,12.73,21.88,12.73
		c19.16,0,28.74-14.73,28.74-33.61C589.4,91.81,579.82,76.93,561.08,76.93z M552.93,126.27c-7.87,0-12.87-6.01-12.87-15.3v-0.86
		c0-9.15,5.01-15.16,12.87-15.16c9.01,0,13.16,6.43,13.16,15.59C566.09,119.84,561.94,126.27,552.93,126.27z"/>
	<rect x="598.55" y="52.34" width="23.17" height="90.09"/>
	<path d="M665.76,76.93c-20.88,0-34.89,13.87-34.89,33.61c0,19.88,14.02,33.61,34.89,33.61c20.73,0,34.89-13.73,34.89-33.61
		C700.65,90.81,686.49,76.93,665.76,76.93z M665.76,126.7c-8.15,0-11.58-6.58-11.58-16.16c0-9.58,3.43-16.16,11.58-16.16
		c8.01,0,11.58,6.58,11.58,16.16C677.34,120.12,673.77,126.7,665.76,126.7z"/>
	<path d="M233.76,209.55v40.18c0,13.3,5.29,25.31,22.74,25.31c9.58,0,16.59-4.15,20.02-11.3v9.58h23.17v-63.78h-23.17v31.32
		c0,9.72-2.86,16.02-10.15,16.02c-7.01,0-9.44-4.72-9.44-13.3v-34.04H233.76z"/>
	<path d="M379.05,233.29c0-13.3-5.58-25.46-23.02-25.46c-9.58,0-17.16,4.29-20.59,11.3v-9.58h-23.17v63.78h23.17v-31.32
		c0-9.58,3.15-15.87,11.01-15.87c7.01,0,9.44,4.58,9.44,13.3v33.89h23.17V233.29z"/>
	<rect x="390.91" y="209.55" width="23.17" height="63.78"/>
	<rect x="390.77" y="183.23" width="23.45" height="20.31"/>
	<path d="M495.59,273.33v-90.09h-23.17v37.33c-3-7.58-10.29-12.73-20.88-12.73c-18.88,0-28.31,14.87-28.31,33.61
		c0,18.88,9.44,33.61,28.31,33.61c10.58,0,17.88-5.15,20.88-12.58v10.87H495.59z M459.7,257.17c-9.15,0-13.16-6.44-13.16-15.73
		c0-9.15,4-15.59,13.16-15.59c7.72,0,12.73,6.01,12.73,15.16v0.86C472.42,251.16,467.42,257.17,459.7,257.17z"/>
	<path d="M539.63,275.04c20.74,0,34.89-13.73,34.89-33.61c0-19.73-14.16-33.61-34.89-33.61c-20.88,0-34.89,13.87-34.89,33.61
		C504.74,261.31,518.75,275.04,539.63,275.04z M539.63,225.28c8.01,0,11.58,6.58,11.58,16.16c0,9.58-3.58,16.16-11.58,16.16
		c-8.15,0-11.58-6.58-11.58-16.16C528.05,231.86,531.48,225.28,539.63,225.28z"/>
	<rect x="75.32" y="314.13" width="23.45" height="20.31"/>
	<path d="M69.31,412.95c-3,0-6.01-0.71-9.3-2.72l-3.58,14.01c4.15,3,11.15,4.58,18.3,4.58c14.73,0,23.88-6.72,23.88-22.45v-65.93
		H75.46v64.78C75.46,410.66,73.31,412.95,69.31,412.95z"/>
	<path d="M109.92,362.46l21.45,1.43c1-4.72,3.58-8.01,8.72-8.01c5.58,0,8.01,3.15,8.01,8.44v1l-17.88,3
		c-13.87,2.43-22.74,7.72-22.74,20.02c0,10.87,8.15,17.3,20.59,17.3c10.15,0,17.45-3.86,21.16-11.3c2.15,7.29,8.29,11.3,16.16,11.3
		c6.58,0,11.15-1.86,14.44-4.15v-12.3c-1.86,0.71-3.29,1-5.15,1c-2.43,0-3.86-1.43-3.86-4.72v-21.74
		c0-17.73-12.44-25.03-29.32-25.03C122.36,338.73,111.92,348.45,109.92,362.46z M148.1,377.62c0,8.29-5.29,13.16-11.87,13.16
		c-3.86,0-6.44-2.15-6.44-5.43c0-4.15,3.29-5.86,8.87-7.01l9.44-1.72V377.62z"/>
	<path d="M209.74,350.02v-9.58h-23.17v63.78h23.17V372.9c0-9.58,2.72-15.87,10.3-15.87c7.01,0,8.72,4.58,8.72,13.3v33.89h23.17
		V372.9c0-9.58,2.57-15.87,10.3-15.87c7.01,0,8.58,4.58,8.58,13.3v33.89h23.17v-40.04c0-13.3-5.15-25.45-22.74-25.45
		c-10.73,0-18.3,5.43-21.74,12.58c-2.72-7.44-8.58-12.58-19.88-12.58C220.03,338.73,213.17,343.02,209.74,350.02z"/>
	<polygon points="328,334.44 344.59,334.44 358.46,314.13 335.72,314.13 	"/>
	<path d="M374.47,389.21c-1.86,0.71-3.29,1-5.15,1c-2.43,0-3.86-1.43-3.86-4.72v-21.74c0-17.73-12.44-25.03-29.32-25.03
		c-19.16,0-29.6,9.72-31.6,23.74L326,363.9c1-4.72,3.58-8.01,8.72-8.01c5.58,0,8.01,3.15,8.01,8.44v1l-17.88,3
		c-13.87,2.43-22.74,7.72-22.74,20.02c0,10.87,8.15,17.3,20.59,17.3c10.15,0,17.45-3.86,21.17-11.3c2.14,7.29,8.29,11.3,16.16,11.3
		c6.58,0,11.15-1.86,14.44-4.15V389.21z M342.73,377.62c0,8.29-5.29,13.16-11.87,13.16c-3.86,0-6.44-2.15-6.44-5.43
		c0-4.15,3.29-5.86,8.87-7.01l9.44-1.72V377.62z"/>
	<path d="M408.93,391.5c-7.01,0-11.3-3-12.15-8.29l-20.16,0.29c1.29,15.44,14.44,22.45,32.03,22.45c18.16,0,29.6-7.72,29.6-21.16
		c0-12.44-8.29-18.88-22.59-21.17l-12.44-2.15c-2.15-0.29-3.86-1.43-3.86-3.58c0-2.86,2.57-4.58,7.01-4.58
		c7.15,0,11.15,2.86,12.01,7.44l19.02-0.57c-1.29-13.3-12.16-21.45-30.6-21.45c-17.88,0-28.89,9.01-28.89,21.59
		c0,13.01,8.15,18.02,23.6,20.45l9.44,1.43c4.43,0.71,5.86,2.43,5.86,4.86C416.8,389.64,414.08,391.5,408.93,391.5z"/>
	<path d="M500.31,405.94c18.16,0,29.6-7.72,29.6-21.16c0-12.44-8.29-18.88-22.59-21.17l-12.44-2.15c-2.15-0.29-3.86-1.43-3.86-3.58
		c0-2.86,2.57-4.58,7.01-4.58c7.15,0,11.15,2.86,12.01,7.44l19.02-0.57c-1.29-13.3-12.16-21.45-30.6-21.45
		c-17.88,0-28.89,9.01-28.89,21.59c0,13.01,8.15,18.02,23.6,20.45l9.44,1.43c4.43,0.71,5.86,2.43,5.86,4.86
		c0,2.57-2.72,4.43-7.87,4.43c-7.01,0-11.3-3-12.15-8.29l-20.16,0.29C469.56,398.93,482.72,405.94,500.31,405.94z"/>
	<path d="M570.09,338.73c-19.88,0-34.75,14.44-34.75,34.61c0,20.31,14.59,32.61,35.04,32.61c16.88,0,28.6-8.15,31.89-22.74
		l-18.59-1.72c-2.14,5.01-6.15,7.15-12.44,7.15c-7.01,0-12.73-3.72-13.3-11.58h44.76v-6.44C602.7,353.31,591.4,338.73,570.09,338.73
		z M558.22,365.9c0.86-6.01,4.15-10.58,11.58-10.58c6.86,0,10.58,4.86,10.87,10.58H558.22z"/>
	<path d="M612.13,404.22h23.17v-29.17c0-10.73,5.29-14.73,13.87-14.73c4.43,0,7.87,0.86,11.01,2.72l1.43-21.88
		c-1.57-1.29-5.01-2.43-8.87-2.43c-8.44,0-15.16,5.86-17.45,13.01v-11.3h-23.17V404.22z"/>
	<path d="M697.65,338.73c-19.16,0-29.6,9.72-31.61,23.74l21.45,1.43c1-4.72,3.58-8.01,8.72-8.01c5.58,0,8.01,3.15,8.01,8.44v1
		l-17.88,3c-13.87,2.43-22.74,7.72-22.74,20.02c0,10.87,8.15,17.3,20.59,17.3c10.15,0,17.45-3.86,21.17-11.3
		c2.14,7.29,8.29,11.3,16.16,11.3c6.58,0,11.15-1.86,14.44-4.15v-12.3c-1.86,0.71-3.29,1-5.15,1c-2.43,0-3.86-1.43-3.86-4.72v-21.74
		C726.96,346.02,714.52,338.73,697.65,338.73z M704.23,377.62c0,8.29-5.29,13.16-11.87,13.16c-3.86,0-6.44-2.15-6.44-5.43
		c0-4.15,3.29-5.86,8.87-7.01l9.44-1.72V377.62z"/>
	<polygon points="689.5,334.44 706.09,334.44 719.96,314.13 697.22,314.13 	"/>
	<polygon points="179.85,510.95 179.28,510.95 165.41,471.34 141.1,471.34 164.83,535.12 192.43,535.12 216.17,471.34 
		193.72,471.34 	"/>
	<path d="M252.35,536.83c16.87,0,28.6-8.15,31.89-22.74l-18.59-1.72c-2.14,5.01-6.15,7.15-12.44,7.15c-7.01,0-12.73-3.72-13.3-11.58
		h44.76v-6.44c0-17.3-11.3-31.89-32.61-31.89c-19.88,0-34.75,14.44-34.75,34.61C217.31,524.54,231.9,536.83,252.35,536.83z
		 M251.78,486.21c6.86,0,10.58,4.86,10.87,10.58H240.2C241.05,490.79,244.34,486.21,251.78,486.21z"/>
	<path d="M360.89,495.08c0-13.3-5.58-25.45-23.02-25.45c-9.58,0-17.16,4.29-20.59,11.3v-9.58H294.1v63.78h23.17V503.8
		c0-9.58,3.15-15.87,11.01-15.87c7.01,0,9.44,4.58,9.44,13.3v33.89h23.17V495.08z"/>
	<path d="M416.65,507.66c-1.57,7.87-5.43,11.73-12.16,11.73c-7.01,0-11.87-4.72-11.87-16.16s4.86-16.16,11.87-16.16
		c6.72,0,10.58,3.72,12.16,11.58l19.02-1.29c-1.57-15.3-12.3-27.74-31.46-27.74c-20.16,0-34.89,13.44-34.89,33.61
		c0,20.31,14.73,33.61,34.89,33.61c19.16,0,29.89-12.3,31.46-27.74L416.65,507.66z"/>
	<rect x="444.54" y="471.34" width="23.17" height="63.78"/>
	<rect x="444.39" y="445.03" width="23.45" height="20.31"/>
	<path d="M549.22,445.03h-23.17v37.33c-3-7.58-10.29-12.73-20.88-12.73c-18.88,0-28.31,14.87-28.31,33.61
		c0,18.88,9.44,33.61,28.31,33.61c10.58,0,17.88-5.15,20.88-12.58v10.87h23.17V445.03z M526.05,503.66c0,9.29-5,15.3-12.73,15.3
		c-9.15,0-13.16-6.44-13.16-15.73c0-9.15,4-15.59,13.16-15.59c7.72,0,12.73,6.01,12.73,15.16V503.66z"/>
	<path d="M558.37,503.23c0,19.88,14.01,33.61,34.89,33.61c20.74,0,34.89-13.73,34.89-33.61c0-19.73-14.16-33.61-34.89-33.61
		C572.38,469.62,558.37,483.49,558.37,503.23z M604.84,503.23c0,9.58-3.58,16.16-11.58,16.16c-8.15,0-11.58-6.58-11.58-16.16
		c0-9.58,3.43-16.16,11.58-16.16C601.27,487.07,604.84,493.65,604.84,503.23z"/>
	<polygon points="659.89,445.03 635.3,445.03 635.3,468.19 640.16,505.09 655.03,505.09 659.89,468.19 	"/>
	<rect x="635.3" y="510.52" width="24.6" height="24.6"/>
	<polygon points="265.16,599.8 266.5,594.6 266.58,594.6 267.92,599.8 271.2,599.8 274.07,590.74 276.93,599.8 280.21,599.8 
		281.55,594.6 281.63,594.6 282.97,599.8 286.25,599.8 289.11,590.74 291.98,599.8 295.25,599.8 296.59,594.6 296.68,594.6 
		298.02,599.8 301.29,599.8 304.2,590.6 301.19,590.6 299.54,595.82 299.46,595.82 298.12,590.6 295.46,590.6 294.12,595.82 
		294.04,595.82 292.39,590.6 289.15,590.6 289.07,590.6 286.14,590.6 284.5,595.82 284.41,595.82 283.07,590.6 280.41,590.6 
		279.07,595.82 278.99,595.82 277.34,590.6 274.11,590.6 274.02,590.6 271.1,590.6 269.45,595.82 269.37,595.82 268.03,590.6 
		265.37,590.6 264.03,595.82 263.95,595.82 262.3,590.6 258.98,590.6 261.88,599.8 	"/>
	<rect x="306.63" y="596.25" width="3.55" height="3.55"/>
	<path d="M319.7,589.68c2.02,0,2.8,1.34,3.01,2.78l3.36-0.12c-0.25-3.24-2.37-5.77-6.35-5.77c-3.79,0-6.66,2.74-6.66,6.74
		c0,4,2.87,6.74,6.66,6.74c3.98,0,6.1-2.51,6.35-5.75l-3.36-0.14c-0.21,1.44-0.99,2.78-3.01,2.78c-1.92,0-3.03-1.42-3.03-3.63
		C316.67,591.1,317.78,589.68,319.7,589.68z"/>
	<path d="M330.08,594.62c-2,0.35-3.28,1.11-3.28,2.89c0,1.57,1.17,2.49,2.97,2.49c1.46,0,2.51-0.56,3.05-1.63
		c0.31,1.05,1.2,1.63,2.33,1.63c0.95,0,1.61-0.27,2.08-0.6v-1.77c-0.27,0.1-0.47,0.14-0.74,0.14c-0.35,0-0.56-0.21-0.56-0.68v-3.13
		c0-2.56-1.79-3.61-4.23-3.61c-2.76,0-4.27,1.4-4.56,3.42l3.09,0.21c0.14-0.68,0.52-1.15,1.26-1.15c0.8,0,1.15,0.45,1.15,1.22v0.14
		L330.08,594.62z M332.66,595.96c0,1.2-0.76,1.9-1.71,1.9c-0.56,0-0.93-0.31-0.93-0.78c0-0.6,0.47-0.84,1.28-1.01l1.36-0.25V595.96z
		"/>
	<path d="M338.2,590.6v12.49h3.34v-4.86c0.45,1.07,1.48,1.81,3.03,1.81c2.7,0,4.08-2.12,4.08-4.84c0-2.7-1.38-4.84-4.08-4.84
		c-1.55,0-2.58,0.74-3.03,1.83v-1.59H338.2z M343.4,592.95c1.3,0,1.9,0.93,1.9,2.25c0,1.34-0.6,2.27-1.9,2.27
		c-1.13,0-1.86-0.87-1.86-2.21v-0.12C341.54,593.82,342.26,592.95,343.4,592.95z"/>
	<rect x="349.95" y="586.81" width="3.38" height="2.93"/>
	<rect x="349.97" y="590.6" width="3.34" height="9.19"/>
	<path d="M358.46,600.04c1.26,0,2.06-0.31,2.76-0.82v-2.16c-0.56,0.23-1.01,0.31-1.42,0.31c-0.68,0-1.05-0.31-1.05-1.09v-3.36h2.39
		v-2.31h-2.39v-2.54h-2.1l-0.31,1.2c-0.23,0.85-0.52,1.34-1.44,1.48l-0.68,0.1v2.06h1.24v4.33
		C355.46,599.41,356.92,600.04,358.46,600.04z"/>
	<path d="M365.25,594.62c-2,0.35-3.28,1.11-3.28,2.89c0,1.57,1.17,2.49,2.97,2.49c1.46,0,2.52-0.56,3.05-1.63
		c0.31,1.05,1.2,1.63,2.33,1.63c0.95,0,1.61-0.27,2.08-0.6v-1.77c-0.27,0.1-0.47,0.14-0.74,0.14c-0.35,0-0.56-0.21-0.56-0.68v-3.13
		c0-2.56-1.79-3.61-4.23-3.61c-2.76,0-4.27,1.4-4.56,3.42l3.09,0.21c0.14-0.68,0.52-1.15,1.26-1.15c0.8,0,1.15,0.45,1.15,1.22v0.14
		L365.25,594.62z M367.82,595.96c0,1.2-0.76,1.9-1.71,1.9c-0.56,0-0.93-0.31-0.93-0.78c0-0.6,0.47-0.84,1.28-1.01l1.36-0.25V595.96z
		"/>
	<rect x="373.37" y="586.81" width="3.34" height="12.99"/>
	<rect x="378.5" y="586.81" width="3.38" height="2.93"/>
	<rect x="378.52" y="590.6" width="3.34" height="9.19"/>
	<path d="M387.67,597.96c-1.01,0-1.63-0.43-1.75-1.2l-2.91,0.04c0.19,2.23,2.08,3.24,4.62,3.24c2.62,0,4.27-1.11,4.27-3.05
		c0-1.79-1.2-2.72-3.26-3.05l-1.79-0.31c-0.31-0.04-0.56-0.21-0.56-0.51c0-0.41,0.37-0.66,1.01-0.66c1.03,0,1.61,0.41,1.73,1.07
		l2.74-0.08c-0.19-1.92-1.75-3.09-4.41-3.09c-2.58,0-4.16,1.3-4.16,3.11c0,1.88,1.17,2.6,3.4,2.95l1.36,0.21
		c0.64,0.1,0.84,0.35,0.84,0.7C388.8,597.7,388.41,597.96,387.67,597.96z"/>
	<path d="M408.65,599.8v-5.77c0-1.92-0.74-3.67-3.28-3.67c-1.55,0-2.64,0.78-3.13,1.81c-0.39-1.07-1.24-1.81-2.87-1.81
		c-1.38,0-2.37,0.62-2.87,1.63v-1.38h-3.34v9.19h3.34v-4.51c0-1.38,0.39-2.29,1.48-2.29c1.01,0,1.26,0.66,1.26,1.92v4.89h3.34v-4.51
		c0-1.38,0.37-2.29,1.48-2.29c1.01,0,1.24,0.66,1.24,1.92v4.89H408.65z"/>
	<rect x="413.91" y="586.81" width="3.5" height="12.99"/>
	<path d="M423.3,597.96c-1.01,0-1.63-0.43-1.75-1.2l-2.91,0.04c0.19,2.23,2.08,3.24,4.62,3.24c2.62,0,4.27-1.11,4.27-3.05
		c0-1.79-1.2-2.72-3.26-3.05l-1.79-0.31c-0.31-0.04-0.56-0.21-0.56-0.51c0-0.41,0.37-0.66,1.01-0.66c1.03,0,1.61,0.41,1.73,1.07
		l2.74-0.08c-0.19-1.92-1.75-3.09-4.41-3.09c-2.58,0-4.16,1.3-4.16,3.11c0,1.88,1.17,2.6,3.4,2.95l1.36,0.21
		c0.64,0.1,0.84,0.35,0.84,0.7C424.44,597.7,424.05,597.96,423.3,597.96z"/>
	<path d="M435.86,597.28h5.07l0.97,2.51h3.73l-5.17-12.99h-3.92l-5.17,12.99h3.52L435.86,597.28z M438.35,590.83h0.08l1.48,3.83
		h-3.05L438.35,590.83z"/>
	<polygon points="454.36,595.45 451.15,586.81 447.48,586.81 452.47,599.8 456.16,599.8 461.15,586.81 457.66,586.81 454.45,595.45 
			"/>
	<rect x="462.03" y="586.81" width="3.38" height="2.93"/>
	<rect x="462.05" y="590.6" width="3.34" height="9.19"/>
	<path d="M470.54,595.59c0-1.55,0.76-2.12,2-2.12c0.64,0,1.13,0.12,1.59,0.39l0.21-3.15c-0.23-0.19-0.72-0.35-1.28-0.35
		c-1.22,0-2.18,0.84-2.51,1.88v-1.63h-3.34v9.19h3.34V595.59z"/>
	<path d="M484.77,599.8v-9.19h-3.34v4.51c0,1.4-0.41,2.31-1.46,2.31c-1.01,0-1.36-0.68-1.36-1.92v-4.91h-3.34v5.79
		c0,1.92,0.76,3.65,3.28,3.65c1.38,0,2.39-0.6,2.89-1.63v1.38H484.77z"/>
	<path d="M490.58,597.96c-1.01,0-1.63-0.43-1.75-1.2l-2.91,0.04c0.19,2.23,2.08,3.24,4.62,3.24c2.62,0,4.27-1.11,4.27-3.05
		c0-1.79-1.2-2.72-3.26-3.05l-1.79-0.31c-0.31-0.04-0.56-0.21-0.56-0.51c0-0.41,0.37-0.66,1.01-0.66c1.03,0,1.61,0.41,1.73,1.07
		l2.74-0.08c-0.19-1.92-1.75-3.09-4.41-3.09c-2.58,0-4.16,1.3-4.16,3.11c0,1.88,1.17,2.6,3.4,2.95l1.36,0.21
		c0.64,0.1,0.84,0.35,0.84,0.7C491.71,597.7,491.32,597.96,490.58,597.96z"/>
	<rect x="497.64" y="596.25" width="3.55" height="3.55"/>
	<path d="M504.07,595.2c0,2.87,2.02,4.84,5.03,4.84c2.99,0,5.03-1.98,5.03-4.84c0-2.85-2.04-4.84-5.03-4.84
		C506.09,590.36,504.07,592.36,504.07,595.2z M510.77,595.2c0,1.38-0.52,2.33-1.67,2.33c-1.17,0-1.67-0.95-1.67-2.33
		c0-1.38,0.5-2.33,1.67-2.33C510.26,592.87,510.77,593.82,510.77,595.2z"/>
	<path d="M515.45,590.6v9.19h3.34v-4.21c0-1.55,0.76-2.12,2-2.12c0.64,0,1.13,0.12,1.59,0.39l0.21-3.15
		c-0.23-0.19-0.72-0.35-1.28-0.35c-1.22,0-2.19,0.84-2.52,1.88v-1.63H515.45z"/>
	<path d="M522.6,601.1c0,1.73,2.27,2.25,4.89,2.25c2.99,0,5.77-1.05,5.77-3.34c0-1.55-1.05-2.64-3.13-2.64h-3.81
		c-0.56,0-0.78-0.25-0.78-0.56c0-0.19,0.06-0.33,0.19-0.43c0.6,0.19,1.26,0.27,2,0.27c2.6,0,4.47-1.2,4.47-3.13
		c0-0.43-0.1-0.83-0.29-1.17c0.45-0.1,0.95-0.14,1.34-0.14v-2.52c-1.01,0-2.02,0.66-2.58,1.42c-0.78-0.47-1.83-0.74-2.95-0.74
		c-2.58,0-4.43,1.2-4.43,3.15c0,1.01,0.5,1.79,1.32,2.33c-0.99,0.37-1.57,1.05-1.57,1.94c0,0.78,0.49,1.53,1.32,1.79
		C523.33,599.65,522.6,600.29,522.6,601.1z M527.76,592.19c0.56,0,0.97,0.52,0.97,1.32c0,0.82-0.41,1.34-0.97,1.34
		s-0.97-0.52-0.97-1.34C526.79,592.71,527.2,592.19,527.76,592.19z M525.96,600.21h3.38c0.56,0,0.84,0.14,0.84,0.54
		c0,0.56-1.13,0.87-2.68,0.87c-1.24,0-2.16-0.18-2.16-0.84C525.35,600.42,525.59,600.21,525.96,600.21z"/>
	<path d="M300.03,16.64l-0.43,2.06h1.81l-0.8,3.42h2.49l0.8-3.42h1.77l-0.8,3.42h2.49l0.8-3.42h2.04l0.43-2.06h-1.98l0.5-2.02h1.88
		l0.43-2.06h-1.83l0.82-3.42h-2.49l-0.82,3.42h-1.77l0.83-3.42h-2.49l-0.83,3.42h-2.02l-0.43,2.06h1.98l-0.5,2.02H300.03z
		 M304.89,14.62h1.77l-0.5,2.02h-1.77L304.89,14.62z"/>
	<path d="M314.09,15.63c0,4,2.87,6.74,6.66,6.74c3.98,0,6.1-2.51,6.35-5.75l-3.36-0.14c-0.21,1.44-0.99,2.78-3.01,2.78
		c-1.92,0-3.03-1.42-3.03-3.63s1.11-3.63,3.03-3.63c2.02,0,2.8,1.34,3.01,2.78l3.36-0.12c-0.25-3.24-2.37-5.77-6.35-5.77
		C316.95,8.89,314.09,11.63,314.09,15.63z"/>
	<path d="M331.11,16.95c-2,0.35-3.28,1.11-3.28,2.89c0,1.57,1.17,2.49,2.97,2.49c1.46,0,2.51-0.56,3.05-1.63
		c0.31,1.05,1.2,1.63,2.33,1.63c0.95,0,1.61-0.27,2.08-0.6v-1.77c-0.27,0.1-0.47,0.14-0.74,0.14c-0.35,0-0.56-0.21-0.56-0.68v-3.13
		c0-2.56-1.79-3.61-4.23-3.61c-2.76,0-4.27,1.4-4.56,3.42l3.09,0.21c0.14-0.68,0.51-1.16,1.26-1.16c0.8,0,1.15,0.45,1.15,1.22v0.14
		L331.11,16.95z M333.69,18.29c0,1.2-0.76,1.9-1.71,1.9c-0.56,0-0.93-0.31-0.93-0.78c0-0.6,0.47-0.84,1.28-1.01l1.36-0.25V18.29z"/>
	<path d="M339.23,12.93v12.49h3.34v-4.87c0.45,1.07,1.48,1.81,3.03,1.81c2.7,0,4.08-2.12,4.08-4.84c0-2.7-1.38-4.84-4.08-4.84
		c-1.55,0-2.58,0.74-3.03,1.83v-1.59H339.23z M344.43,15.28c1.3,0,1.9,0.93,1.9,2.25c0,1.34-0.6,2.27-1.9,2.27
		c-1.13,0-1.86-0.87-1.86-2.21v-0.12C342.57,16.15,343.29,15.28,344.43,15.28z"/>
	<rect x="351" y="12.93" width="3.34" height="9.19"/>
	<rect x="350.98" y="9.14" width="3.38" height="2.93"/>
	<path d="M359.49,22.37c1.26,0,2.06-0.31,2.76-0.83v-2.16c-0.56,0.23-1.01,0.31-1.42,0.31c-0.68,0-1.05-0.31-1.05-1.09v-3.36h2.39
		v-2.31h-2.39v-2.54h-2.1l-0.31,1.2c-0.23,0.85-0.51,1.34-1.44,1.48l-0.68,0.1v2.06h1.24v4.33
		C356.48,21.73,357.95,22.37,359.49,22.37z"/>
	<path d="M366.27,16.95c-2,0.35-3.28,1.11-3.28,2.89c0,1.57,1.18,2.49,2.97,2.49c1.46,0,2.51-0.56,3.05-1.63
		c0.31,1.05,1.2,1.63,2.33,1.63c0.95,0,1.61-0.27,2.08-0.6v-1.77c-0.27,0.1-0.47,0.14-0.74,0.14c-0.35,0-0.56-0.21-0.56-0.68v-3.13
		c0-2.56-1.79-3.61-4.23-3.61c-2.76,0-4.27,1.4-4.56,3.42l3.09,0.21c0.14-0.68,0.51-1.16,1.26-1.16c0.8,0,1.15,0.45,1.15,1.22v0.14
		L366.27,16.95z M368.85,18.29c0,1.2-0.76,1.9-1.71,1.9c-0.56,0-0.93-0.31-0.93-0.78c0-0.6,0.47-0.84,1.28-1.01l1.36-0.25V18.29z"/>
	<rect x="374.39" y="9.14" width="3.34" height="12.99"/>
	<rect x="379.55" y="12.93" width="3.34" height="9.19"/>
	<rect x="379.53" y="9.14" width="3.38" height="2.93"/>
	<path d="M388.7,20.29c-1.01,0-1.63-0.43-1.75-1.2l-2.91,0.04c0.19,2.23,2.08,3.24,4.62,3.24c2.62,0,4.27-1.11,4.27-3.05
		c0-1.79-1.2-2.72-3.26-3.05l-1.79-0.31c-0.31-0.04-0.56-0.21-0.56-0.52c0-0.41,0.37-0.66,1.01-0.66c1.03,0,1.61,0.41,1.73,1.07
		l2.74-0.08c-0.19-1.92-1.75-3.09-4.41-3.09c-2.58,0-4.16,1.3-4.16,3.11c0,1.88,1.18,2.6,3.4,2.95l1.36,0.21
		c0.64,0.1,0.85,0.35,0.85,0.7C389.83,20.02,389.44,20.29,388.7,20.29z"/>
	<path d="M394.2,12.93v9.19h3.34v-4.52c0-1.38,0.39-2.29,1.48-2.29c1.01,0,1.26,0.66,1.26,1.92v4.89h3.34v-4.52
		c0-1.38,0.37-2.29,1.48-2.29c1.01,0,1.24,0.66,1.24,1.92v4.89h3.34v-5.77c0-1.92-0.74-3.67-3.28-3.67c-1.55,0-2.64,0.78-3.13,1.81
		c-0.39-1.07-1.24-1.81-2.87-1.81c-1.38,0-2.37,0.62-2.87,1.63v-1.38H394.2z"/>
	<rect x="413.27" y="9.14" width="3.5" height="12.99"/>
	<path d="M422.67,20.29c-1.01,0-1.63-0.43-1.75-1.2l-2.91,0.04c0.19,2.23,2.08,3.24,4.62,3.24c2.62,0,4.27-1.11,4.27-3.05
		c0-1.79-1.2-2.72-3.26-3.05l-1.79-0.31c-0.31-0.04-0.56-0.21-0.56-0.52c0-0.41,0.37-0.66,1.01-0.66c1.03,0,1.61,0.41,1.73,1.07
		l2.74-0.08c-0.19-1.92-1.75-3.09-4.41-3.09c-2.58,0-4.16,1.3-4.16,3.11c0,1.88,1.18,2.6,3.4,2.95l1.36,0.21
		c0.64,0.1,0.85,0.35,0.85,0.7C423.8,20.02,423.41,20.29,422.67,20.29z"/>
	<path d="M433.56,19.61h5.07l0.97,2.52h3.73l-5.17-12.99h-3.92l-5.17,12.99h3.52L433.56,19.61z M436.05,13.16h0.08l1.48,3.83h-3.05
		L436.05,13.16z"/>
	<polygon points="452.1,17.78 452.01,17.78 448.8,9.14 445.13,9.14 450.12,22.12 453.81,22.12 458.8,9.14 455.31,9.14 	"/>
	<rect x="459.68" y="9.14" width="3.38" height="2.93"/>
	<rect x="459.7" y="12.93" width="3.34" height="9.19"/>
	<path d="M464.85,12.93v9.19h3.34v-4.21c0-1.55,0.76-2.12,2-2.12c0.64,0,1.13,0.12,1.59,0.39l0.21-3.15
		c-0.23-0.19-0.72-0.35-1.28-0.35c-1.22,0-2.19,0.84-2.52,1.88v-1.63H464.85z"/>
	<path d="M472.91,12.93v5.79c0,1.92,0.76,3.65,3.28,3.65c1.38,0,2.39-0.6,2.89-1.63v1.38h3.34v-9.19h-3.34v4.51
		c0,1.4-0.41,2.31-1.46,2.31c-1.01,0-1.36-0.68-1.36-1.92v-4.91H472.91z"/>
	<path d="M488.22,20.29c-1.01,0-1.63-0.43-1.75-1.2l-2.91,0.04c0.19,2.23,2.08,3.24,4.62,3.24c2.62,0,4.27-1.11,4.27-3.05
		c0-1.79-1.2-2.72-3.26-3.05l-1.79-0.31c-0.31-0.04-0.56-0.21-0.56-0.52c0-0.41,0.37-0.66,1.01-0.66c1.03,0,1.61,0.41,1.73,1.07
		l2.74-0.08c-0.19-1.92-1.75-3.09-4.41-3.09c-2.58,0-4.16,1.3-4.16,3.11c0,1.88,1.17,2.6,3.4,2.95l1.36,0.21
		c0.64,0.1,0.85,0.35,0.85,0.7C489.36,20.02,488.97,20.29,488.22,20.29z"/>
</g>
</svg>
