<?xml version="1.0" encoding="utf-8"?>
<!-- Generator: Adobe Illustrator 23.1.1, SVG Export Plug-In . SVG Version: 6.00 Build 0)  -->
<svg version="1.1" xmlns="http://www.w3.org/2000/svg" xmlns:xlink="http://www.w3.org/1999/xlink" x="0px" y="0px"
	 viewBox="0 0 792 612" style="enable-background:new 0 0 792 612;" xml:space="preserve">
<style type="text/css">
	.st0{display:none;}
	.st1{display:inline;}
	
		.st2{display:inline;fill:#FFFFFF;stroke:#000000;stroke-width:16;stroke-linecap:round;stroke-linejoin:round;stroke-miterlimit:10;}
	.st3{fill:#FFFFFF;stroke:#000000;stroke-width:16;stroke-linecap:round;stroke-linejoin:round;stroke-miterlimit:10;}
	.st4{display:inline;fill:none;stroke:#000000;stroke-width:24;stroke-linejoin:round;stroke-miterlimit:10;}
	.st5{display:inline;fill:#FFFFFF;}
	.st6{fill:#FFFFFF;stroke:#000000;stroke-width:17;stroke-linecap:round;stroke-miterlimit:10;}
	.st7{fill:#FFFFFF;stroke:#000000;stroke-width:17;stroke-miterlimit:10;}
	.st8{stroke:#000000;stroke-width:16.0572;stroke-linecap:round;stroke-miterlimit:10;}
	.st9{fill:#FFFFFF;}
	.st10{fill:#FFFFFF;stroke:#000000;stroke-width:17.1072;stroke-linecap:round;stroke-linejoin:round;stroke-miterlimit:10;}
	.st11{stroke:#000000;stroke-width:17.1072;stroke-linecap:round;stroke-linejoin:round;stroke-miterlimit:10;}
	.st12{fill:#FFFFFF;stroke:#000000;stroke-width:14.7375;stroke-linecap:round;stroke-linejoin:round;stroke-miterlimit:10;}
	.st13{fill:none;stroke:#000000;stroke-width:14.7375;stroke-linecap:round;stroke-linejoin:round;stroke-miterlimit:10;}
	.st14{stroke:#000000;stroke-width:14.7375;stroke-linecap:round;stroke-linejoin:round;stroke-miterlimit:10;}
	.st15{fill:#FFFFFF;stroke:#000000;stroke-width:14.2911;stroke-linecap:round;stroke-linejoin:round;stroke-miterlimit:10;}
	.st16{fill:none;stroke:#000000;stroke-width:13.497;stroke-miterlimit:10;}
	.st17{fill:#FFFFFF;stroke:#000000;stroke-width:13.497;stroke-linecap:round;stroke-linejoin:round;stroke-miterlimit:10;}
	.st18{fill:#FFFFFF;stroke:#000000;stroke-width:13.497;stroke-miterlimit:10;}
	.st19{fill:#FFFFFF;stroke:#000000;stroke-width:14.7439;stroke-linecap:round;stroke-miterlimit:10;}
	.st20{fill:#FFFFFF;stroke:#000000;stroke-width:14.7439;stroke-miterlimit:10;}
	.st21{stroke:#000000;stroke-width:13.9262;stroke-linecap:round;stroke-miterlimit:10;}
	
		.st22{display:inline;fill:#FFFFFF;stroke:#000000;stroke-width:14.6942;stroke-linecap:round;stroke-linejoin:round;stroke-miterlimit:10;}
	.st23{fill:#FFFFFF;stroke:#000000;stroke-width:14.6942;stroke-linecap:round;stroke-linejoin:round;stroke-miterlimit:10;}
	.st24{fill:none;stroke:#000000;stroke-width:24;stroke-linejoin:round;stroke-miterlimit:10;}
	.st25{fill:none;stroke:#000000;stroke-width:30.5612;stroke-linecap:round;stroke-linejoin:round;stroke-miterlimit:10;}
	.st26{fill:#FFFFFF;stroke:#000000;stroke-width:16.2993;stroke-linecap:round;stroke-linejoin:round;stroke-miterlimit:10;}
	.st27{display:inline;fill:#FFFFFF;stroke:#000000;stroke-width:13.497;stroke-linecap:round;stroke-miterlimit:10;}
	
		.st28{display:inline;fill:none;stroke:#000000;stroke-width:13.497;stroke-linecap:round;stroke-linejoin:round;stroke-miterlimit:10;}
	
		.st29{display:inline;fill:#FFFFFF;stroke:#000000;stroke-width:13.497;stroke-linecap:round;stroke-linejoin:round;stroke-miterlimit:10;}
	
		.st30{display:inline;fill:url(#);stroke:#000000;stroke-width:13.497;stroke-linecap:round;stroke-linejoin:round;stroke-miterlimit:10;}
	.st31{fill:#FFFFFF;stroke:#000000;stroke-width:15.2362;stroke-linecap:round;stroke-linejoin:round;stroke-miterlimit:10;}
	.st32{fill:#FFFFFF;stroke:#000000;stroke-width:14.8467;stroke-linecap:round;stroke-linejoin:round;stroke-miterlimit:10;}
	.st33{stroke:#000000;stroke-width:20.1683;stroke-linecap:round;stroke-miterlimit:10;}
	.st34{fill:none;stroke:#000000;stroke-width:14.8467;stroke-linecap:round;stroke-linejoin:round;stroke-miterlimit:10;}
	.st35{fill:#FFFFFF;stroke:#FFFFFF;stroke-width:3;stroke-miterlimit:10;}
	.st36{display:inline;fill:none;stroke:#000000;stroke-width:15;stroke-linecap:round;stroke-linejoin:round;stroke-miterlimit:10;}
	
		.st37{display:inline;fill:#FFFFFF;stroke:#000000;stroke-width:15;stroke-linecap:round;stroke-linejoin:round;stroke-miterlimit:10;}
	.st38{fill:#FFFFFF;stroke:#000000;stroke-width:15;stroke-linecap:round;stroke-linejoin:round;stroke-miterlimit:10;}
	.st39{fill:#FFFFFF;stroke:#000000;stroke-width:11.7326;stroke-linecap:round;stroke-linejoin:round;stroke-miterlimit:10;}
	.st40{fill:#FFFFFF;stroke:#000000;stroke-width:13.2623;stroke-linecap:round;stroke-linejoin:round;stroke-miterlimit:10;}
	.st41{font-family:'FoundersGrotesk-Bold';}
	.st42{font-size:20.6105px;}
	.st43{font-size:10.3052px;}
	.st44{font-size:19.2364px;}
	.st45{font-size:10px;}
	.st46{fill:none;stroke:#000000;stroke-width:16;stroke-linecap:round;stroke-miterlimit:10;}
	.st47{fill:url(#);stroke:#000000;stroke-width:16;stroke-linecap:round;stroke-linejoin:round;stroke-miterlimit:10;}
	.st48{fill:#FFFFFF;stroke:#000000;stroke-width:16;stroke-linecap:round;stroke-miterlimit:10;}
	.st49{fill:#FFFFFF;stroke:#000000;stroke-width:13.2623;stroke-linecap:round;stroke-miterlimit:10;}
	.st50{stroke:#000000;stroke-width:4.5213;stroke-miterlimit:10;}
	.st51{fill:none;stroke:#000000;stroke-width:15.2344;stroke-linecap:round;stroke-linejoin:round;stroke-miterlimit:10;}
	.st52{fill:#FFFFFF;stroke:#000000;stroke-width:15.2344;stroke-linecap:round;stroke-linejoin:round;stroke-miterlimit:10;}
	.st53{stroke:#000000;stroke-width:18.3348;stroke-linecap:round;stroke-miterlimit:10;}
	.st54{fill:none;stroke:#000000;stroke-width:13.497;stroke-linecap:round;stroke-linejoin:round;stroke-miterlimit:10;}
	.st55{display:inline;fill:none;stroke:#000000;stroke-width:16;stroke-linecap:round;stroke-linejoin:round;stroke-miterlimit:10;}
	.st56{fill:#FFFFFF;stroke:#000000;stroke-width:13.3058;stroke-linecap:round;stroke-linejoin:round;stroke-miterlimit:10;}
	.st57{fill:#FFFFFF;stroke:#000000;stroke-width:17;stroke-linecap:round;stroke-linejoin:round;stroke-miterlimit:10;}
	.st58{fill:#FFFFFF;stroke:#000000;stroke-width:15.2517;stroke-linecap:round;stroke-linejoin:round;stroke-miterlimit:10;}
	.st59{stroke:#000000;stroke-width:3;stroke-miterlimit:10;}
	.st60{fill:#FFFFFF;stroke:#000000;stroke-width:16.0686;stroke-linecap:round;stroke-linejoin:round;stroke-miterlimit:10;}
	.st61{fill:#FFFFFF;stroke:#000000;stroke-width:15;stroke-linejoin:round;stroke-miterlimit:10;}
	.st62{fill:url(#);stroke:#000000;stroke-width:13.497;stroke-linecap:round;stroke-linejoin:round;stroke-miterlimit:10;}
	.st63{fill:#06A6FF;}
	.st64{fill:#FF0303;}
	.st65{fill:#3DFF06;}
	.st66{fill:#FFF808;}
	.st67{fill:none;stroke:#000000;stroke-width:0;stroke-linecap:round;stroke-linejoin:round;}
</style>
<g id="unexpanded" class="st0">
	<path class="st5" d="M486.72,370.24l-19.39-41.08l-36.93-7.62l-71.57,14.55c0,0-48.11,14.06-80.55,29.94
		c-32.44,15.88-36.23,8.87-36.23,8.87l-218-38.55c0,0-7.33,145.42,0.27,147.28c11.86,2.89,164.28,2.46,171.45,6.69
		c2.27,1.23,21.71,46.2,93.52,44.02c45.41-3.66,71.81-2.18,71.81-2.18l44.64,0.96l86.15-61.93l23.3-41.62"/>
	<path class="st36" d="M701.48,124.84C529.56,346.48,396.31,413.2,319.85,441.22"/>
	<path class="st37" d="M748.48,40.4C728,71.31,689.8,134.47,689,134.08"/>
	<g class="st1">
		<path class="st38" d="M675.81,154c19.77-2.87,60.23-27.81,87.01-64.08"/>
		<path class="st38" d="M575.97,263.88c19.79,1.47,64.1-13.93,97.29-42.86"/>
		<path class="st38" d="M602.95,238.57c19.86,0.41,63.38-17.39,95.11-48.2"/>
		<path class="st38" d="M628.63,211.79c19.88-0.67,62.5-20.86,92.67-53.52"/>
		<path class="st38" d="M652.94,183.58c19.85-1.77,61.45-24.33,89.97-58.81"/>
	</g>
	<g class="st1">
		<path class="st9" d="M686.2,148.03c-2.8,0-5.37-1.56-6.66-4.06c-1.21-2.33-1.87-3.62,3.48-17.64c2.51-6.57,6.79-16.52,12.96-26.57
			c9.91-16.08,21.8-27.73,26.45-32l0.07-0.07c1.43-1.4,3.32-2.13,5.24-2.13c1.46,0,2.93,0.42,4.22,1.3
			c2.54,1.73,3.69,4.77,3.14,7.62c-0.79,4.97-4.19,22.55-14.94,40c-6.43,10.48-14.07,18.62-19.35,23.6
			C690.29,148.03,688.12,148.03,686.2,148.03z"/>
		<path d="M727.74,73.06L727.74,73.06L727.74,73.06 M727.74,73.06c-0.06,0.09-2.4,18.73-13.96,37.49
			c-11.6,18.92-27.49,29.97-27.58,29.97c0,0,0,0,0,0c0,0,0,0,0,0c-0.05,0,4.82-18.36,16.17-36.84
			C713.62,85.43,727.63,73.22,727.74,73.06 M727.75,58.06c-3.81,0-7.58,1.45-10.43,4.2c-4.91,4.5-17.35,16.72-27.72,33.55
			c-6.48,10.56-10.97,20.97-13.59,27.84c-1.51,3.96-2.58,7.19-3.21,9.21c-0.36,1.14-0.72,2.29-1,3.47c-0.39,1.34-0.59,2.72-0.6,4.1
			c-0.06,2.21,0.38,4.55,1.73,7.08c0.08,0.15,0.16,0.3,0.25,0.45c2.67,4.67,7.64,7.55,13.02,7.55c5.37,0,8.6-2.55,12.02-5.26
			c1.75-1.39,4.52-3.68,7.75-6.72c5.61-5.29,13.73-13.95,20.6-25.15c11.05-17.94,14.8-35.61,15.92-42.56
			c1.06-5.65-1.19-11.64-6.2-15.11C733.68,58.93,730.7,58.06,727.75,58.06L727.75,58.06z M727.74,88.06L727.74,88.06L727.74,88.06
			L727.74,88.06z"/>
	</g>
	<g class="st1">
		<path class="st9" d="M685.17,161.24c-5.57,0-11.44-0.78-12.71-6.59c-0.6-2.72,0.36-5.47,2.37-7.24
			c3.8-3.93,17.04-16.67,32.05-25.62c0.03-0.02,0.06-0.04,0.09-0.06c13.83-7.97,26.08-12.73,30.7-14.52
			c0.47-0.18,0.83-0.32,1.08-0.42c1.04-0.52,2.19-0.81,3.38-0.81c2.22,0,4.32,0.98,5.75,2.68c1.43,1.7,2.02,3.95,1.64,6.13
			c-0.21,1.19-0.71,2.3-1.43,3.25l-0.04,0.05c-3.77,5.08-17.37,22.52-34.19,33.43C701.59,159.55,691.49,161.24,685.17,161.24
			C685.17,161.24,685.17,161.24,685.17,161.24z"/>
		<path d="M742.13,113.49C742.13,113.49,742.13,113.49,742.13,113.49c0,0,0,0.01-0.01,0.01
			C742.12,113.5,742.13,113.49,742.13,113.49 M742.11,113.51c-0.46,0.61-14.73,20.31-32.35,31.75c-10.77,7.04-19.41,8.49-24.59,8.49
			c-3.52,0-5.45-0.67-5.39-0.69c0.11-0.15,14.19-14.83,30.93-24.8C727.23,118.73,741.66,113.86,742.11,113.51 M742.13,98.49
			c-0.55,0-1.1,0.03-1.66,0.09c-1.66,0.19-3.27,0.65-4.76,1.35c-0.21,0.08-0.46,0.18-0.77,0.3c-4.76,1.85-17.4,6.76-31.72,15.01
			c-0.06,0.04-0.13,0.07-0.19,0.11c-15.07,8.97-28.41,21.46-33.37,26.61c-3.87,3.53-5.71,8.95-4.54,14.28
			c0.81,3.69,3.62,10.14,13.37,11.92c2.07,0.38,4.32,0.57,6.67,0.57c7.33,0,18.97-1.89,32.77-10.91
			c17.87-11.6,32.16-29.91,36.12-35.25l0.02-0.03c0.42-0.56,0.81-1.15,1.15-1.77l0,0c2.58-4.65,2.51-10.31-0.18-14.89
			C752.34,101.27,747.4,98.49,742.13,98.49L742.13,98.49z"/>
	</g>
	<g class="st1">
		<path class="st9" d="M663.76,191.47c-3.54,0-12.95,0-14.38-7.06c-0.55-2.74,0.47-5.49,2.52-7.22c3.52-3.3,17.7-15.63,33.44-23.83
			c0.03-0.02,0.06-0.03,0.1-0.05c14.18-7.12,26.64-11.14,31.33-12.65c0.47-0.15,0.84-0.27,1.09-0.35c0.93-0.41,1.95-0.62,2.99-0.62
			c2.28,0,4.44,1.04,5.87,2.83s1.95,4.12,1.44,6.35c-0.27,1.18-0.83,2.28-1.61,3.2c-4.06,4.89-18.47,21.43-35.85,31.35
			C679.13,190.07,669.66,191.47,663.76,191.47C663.76,191.47,663.76,191.47,663.76,191.47z"/>
		<path d="M720.84,147.19C720.84,147.19,720.84,147.19,720.84,147.19c0,0,0,0.01-0.01,0.01
			C720.84,147.19,720.84,147.19,720.84,147.19 M720.83,147.2c-0.49,0.58-15.71,19.33-33.85,29.7c-9.95,5.73-17.95,7.08-23.22,7.08
			c-4.59,0-7.1-1.02-7.03-1.05c0.13-0.14,14.9-13.96,32.07-22.91C705.73,151.51,720.36,147.53,720.83,147.2 M720.84,132.19
			c-0.55,0-1.1,0.03-1.66,0.09c-1.37,0.15-2.7,0.49-3.96,1c-0.21,0.07-0.46,0.15-0.77,0.25c-4.84,1.56-17.69,5.7-32.39,13.08
			c-0.07,0.03-0.13,0.07-0.2,0.1c-16.08,8.37-29.97,20.26-34.73,24.67c-4.16,3.45-6.23,8.98-5.12,14.5
			c0.9,4.48,3.96,10.25,13.4,12.26c2.58,0.55,5.39,0.83,8.33,0.83c6.81,0,17.67-1.57,30.69-9.07
			c18.47-10.56,33.63-27.94,37.84-33.02l0.02-0.02c0.41-0.49,0.79-1,1.13-1.53l0,0c2.98-4.61,3.21-10.49,0.58-15.32
			C731.37,135.16,726.29,132.19,720.84,132.19L720.84,132.19z"/>
	</g>
	<g class="st1">
		<path class="st9" d="M641.01,220.39c-6.8,0-15.13-1.35-16.19-7.78c-0.47-2.87,0.75-5.67,3.01-7.3
			c4.03-3.38,18.4-14.53,34.43-21.76c0.03-0.01,0.07-0.03,0.1-0.04c14.53-6.3,27.15-9.56,31.9-10.79c0.46-0.12,0.82-0.21,1.08-0.28
			c0.82-0.3,1.69-0.46,2.58-0.46c2.39,0,4.63,1.14,6.04,3.06c1.41,1.92,1.83,4.41,1.11,6.68c-0.34,1.1-0.94,2.1-1.72,2.92
			c-3.07,3.32-19.02,20.03-37.35,29.18C657.36,218.18,648.94,220.39,641.01,220.39C641.01,220.39,641.01,220.39,641.01,220.39z"/>
		<path d="M697.91,179.48C697.91,179.48,697.91,179.48,697.91,179.48c0,0,0,0.01-0.01,0.01
			C697.9,179.49,697.91,179.48,697.91,179.48 M697.9,179.49c-0.5,0.53-16.63,18.33-35.25,27.62c-9.07,4.57-16.43,5.77-21.64,5.77
			c-5.75,0-8.88-1.47-8.79-1.5c0.13-0.14,15.56-13.08,33.12-21C682.65,182.89,697.43,179.79,697.9,179.49 M697.91,164.48
			c-0.62,0-1.24,0.04-1.87,0.12c-1,0.13-1.98,0.35-2.93,0.67c-0.2,0.05-0.45,0.12-0.74,0.19c-4.9,1.27-17.93,4.64-33,11.17
			c-0.07,0.03-0.13,0.06-0.2,0.09c-16.21,7.31-30.33,18.04-35.67,22.46c-4.56,3.25-7.04,8.89-6.09,14.66
			c0.43,2.58,2.27,8.91,10.1,11.86c1.04,0.39,2.19,0.74,3.4,1.04c3.12,0.77,6.51,1.15,10.09,1.15c9.11,0,18.65-2.48,28.36-7.37
			c19-9.49,35-25.94,39.45-30.75l0.01-0.01c0.38-0.41,0.74-0.83,1.07-1.28l0,0c3.41-4.55,3.96-10.63,1.42-15.71
			C708.76,167.65,703.54,164.48,697.91,164.48L697.91,164.48z"/>
	</g>
	<g class="st1">
		<path class="st9" d="M616.99,247.96c-5.08,0-17-0.83-18.08-8.49c-0.42-2.96,0.95-5.8,3.35-7.35c4.14-3.1,19.25-13.54,35.46-19.78
			c0.03-0.01,0.07-0.03,0.1-0.04c14.81-5.46,27.55-7.98,32.35-8.93c0.46-0.09,0.82-0.16,1.07-0.21c0.7-0.21,1.43-0.32,2.17-0.32
			c2.43,0,4.72,1.18,6.12,3.17s1.76,4.53,0.95,6.83c-0.4,1.14-1.07,2.16-1.94,2.97c-4.53,4.38-20.51,19.09-38.71,26.95
			C631.91,246.2,624.22,247.96,616.99,247.96C616.99,247.96,616.99,247.96,616.99,247.96z"/>
		<path d="M673.4,210.33C673.41,210.33,673.4,210.33,673.4,210.33c0,0-0.01,0.01-0.01,0.01C673.4,210.33,673.4,210.33,673.4,210.33
			 M673.39,210.34c-0.54,0.51-17.52,17.32-36.54,25.53c-8.15,3.55-14.85,4.59-19.87,4.59c-7,0-10.75-2.02-10.66-2.05
			c0.14-0.13,16.18-12.18,34.08-19.08C658.02,212.83,672.89,210.61,673.39,210.34 M673.41,195.33c-1.35,0-2.68,0.18-3.95,0.53
			c-0.2,0.04-0.45,0.09-0.75,0.15c-4.96,0.98-18.12,3.58-33.49,9.25c-0.07,0.02-0.14,0.05-0.2,0.08
			c-16.47,6.35-31.2,16.32-36.74,20.42c-4.85,3.09-7.64,8.81-6.8,14.76c0.45,3.16,2.3,8.92,9.69,12.06c1.19,0.5,2.5,0.96,3.89,1.34
			c3.67,1.02,7.69,1.54,11.93,1.54c8.26,0,16.95-1.96,25.83-5.83c19.37-8.37,36.2-23.86,40.9-28.41l0.02-0.02
			c0.47-0.44,0.91-0.92,1.31-1.42l0,0c3.65-4.49,4.39-10.68,1.9-15.91C684.46,198.66,679.19,195.33,673.41,195.33L673.41,195.33z"/>
	</g>
	<g class="st1">
		<path class="st9" d="M591.74,274.13c-4.2,0-8.11-0.55-11.62-1.65c-2.74-0.85-7.84-2.44-8.44-7.69c-0.36-3.1,1.24-6.02,3.87-7.45
			c4.2-2.77,19.29-12.23,36.22-17.69c0.03-0.01,0.07-0.02,0.1-0.03c15.04-4.62,27.87-6.4,32.7-7.07c0.45-0.06,0.81-0.11,1.07-0.15
			c0.58-0.14,1.17-0.21,1.77-0.21c2.5,0,4.83,1.24,6.23,3.32c1.39,2.08,1.66,4.71,0.71,7.02c-0.46,1.13-1.2,2.13-2.12,2.9
			l-0.04,0.04c-4.68,4.06-21.39,17.85-39.92,24.67C605.14,272.79,598.23,274.13,591.74,274.13
			C591.74,274.13,591.74,274.13,591.74,274.13z"/>
		<path d="M647.4,239.69C647.4,239.69,647.4,239.69,647.4,239.69c0,0-0.01,0.01-0.01,0.01C647.39,239.69,647.4,239.69,647.4,239.69
			 M647.39,239.7c-0.57,0.48-18.35,16.28-37.72,23.41c-7.19,2.67-13.2,3.53-17.92,3.53c-8.35,0-12.72-2.67-12.61-2.69
			c0.15-0.12,16.75-11.27,34.94-17.15C631.95,241.3,646.87,239.94,647.39,239.7 M647.41,224.69c-0.5,0-1,0.02-1.5,0.07
			c-0.56,0.06-1.11,0.14-1.66,0.26c-0.2,0.03-0.44,0.06-0.72,0.1c-4.99,0.69-18.25,2.54-33.86,7.33c-0.07,0.02-0.14,0.04-0.21,0.07
			c-16.96,5.48-32.5,14.9-37.91,18.47c-5.01,2.93-8.02,8.62-7.33,14.65c1.15,10.1,10.57,13.04,13.67,14
			c4.24,1.32,8.9,1.99,13.85,1.99c7.38,0,15.16-1.5,23.13-4.46c19.72-7.26,37.31-21.77,42.23-26.04l0.02-0.02
			c0.56-0.48,1.08-1,1.57-1.55l0,0c3.88-4.43,4.8-10.72,2.37-16.08C658.61,228.09,653.24,224.69,647.41,224.69L647.41,224.69z"/>
	</g>
	<g class="st1">
		<path class="st38" d="M675.24,153.58c-2.67-19.99,4.7-63.51,17.06-101.24"/>
		<path class="st38" d="M575.5,263.35c1.44-19.97,17.34-60.54,36.86-94.07"/>
		<path class="st38" d="M602.45,238.06c0.41-20.04,14.23-61.47,32.04-96.13"/>
		<path class="st38" d="M628.1,211.31c-0.62-20.07,11.09-62.27,27.13-98.01"/>
		<path class="st38" d="M652.39,183.14c-1.65-20.05,7.91-62.95,22.14-99.71"/>
	</g>
	<g class="st1">
		<path class="st9" d="M674.91,157.03c-1.32,0-3.84-0.36-5.86-2.79c-2.64-3.17-8.7-15.83-5.01-36.1
			c1.48-8.21,4.94-21.94,13.05-40.57c0.12-0.28,0.22-0.5,0.28-0.64c0.72-1.89,2.19-3.47,4.11-4.28c0.94-0.4,1.93-0.59,2.91-0.59
			c2.35,0,4.63,1.1,6.07,3.09c0.81,1.12,1.29,2.44,1.4,3.79c0.03,0.17,0.07,0.39,0.12,0.66c0.77,4.27,3.12,17.25,1.79,33.55
			c-0.95,10.67-4.19,20.89-6.73,27.58c-3.44,9.05-5.39,12.47-6.74,13.99l0.01,0.01c-0.12,0.12-0.24,0.24-0.36,0.35
			c-0.5,0.48-0.91,0.72-1.3,0.94C677.51,156.68,676.23,157.03,674.91,157.03z"/>
		<path d="M684.38,79.57c0,0,0,0.01-0.01,0.04C684.37,79.58,684.38,79.57,684.38,79.57L684.38,79.57 M684.37,79.61
			c-0.01,0.84,3.39,14.77,1.91,32.94c-1.68,18.83-11.25,36.91-11.38,36.98c0,0,0,0-0.01,0c-0.27,0-7.11-10.19-3.49-30.05
			C674.88,100.22,684.01,80.61,684.37,79.61 M684.38,64.57c-1.91,0-3.84,0.37-5.7,1.13c-3.85,1.58-6.79,4.66-8.26,8.4
			c-0.05,0.13-0.12,0.29-0.21,0.49c-8.4,19.29-12.01,33.62-13.56,42.25c-1.8,9.9-1.73,19.21,0.23,27.65
			c1.39,5.98,3.78,11.42,6.4,14.57c2.91,3.49,7.14,5.49,11.62,5.49c2.64,0,5.21-0.7,7.46-1.99v0c4.25-2.43,5.77-5.68,7.71-9.79
			c0.96-2.03,2.42-5.3,3.96-9.35c3.95-10.39,6.37-20.32,7.19-29.53c0-0.04,0.01-0.08,0.01-0.12c1.4-17.27-1.08-30.98-1.89-35.49
			c-0.02-0.13-0.04-0.25-0.06-0.35c-0.27-2.47-1.15-4.88-2.62-6.96C693.79,66.85,689.16,64.57,684.38,64.57L684.38,64.57z"/>
	</g>
	<g class="st1">
		<path class="st9" d="M650.42,186.22c-2.36,0-4.64-1.17-6.06-3.06c-2.29-3.04-7.49-16.3-1.62-36.56
			c2.29-7.94,7.1-21.09,17.01-38.57c0.15-0.27,0.27-0.48,0.35-0.61c0.92-1.82,2.55-3.24,4.57-3.84c0.71-0.21,1.42-0.31,2.13-0.31
			c2.51,0,4.92,1.27,6.32,3.46c0.8,1.25,1.19,2.7,1.17,4.15c0.01,0.17,0.03,0.38,0.05,0.65c0.35,4.29,1.4,17.35-1.55,33.31
			c-2.01,10.43-6.25,20.17-9.46,26.51c-4.35,8.6-6.64,11.77-8.15,13.13l0.01,0.02c-0.12,0.1-0.24,0.19-0.37,0.29
			c-0.55,0.43-1,0.63-1.41,0.81C652.48,186,651.46,186.22,650.42,186.22z"/>
		<path d="M666.81,110.78c0,0,0,0.01-0.01,0.04C666.8,110.79,666.8,110.78,666.81,110.78L666.81,110.78 M666.79,110.81
			c-0.09,0.83,1.91,14.91-1.37,32.66c-3.54,18.37-14.87,35.19-15,35.25c0,0,0,0,0,0c-0.25,0-6.05-10.8-0.47-30.03
			C655.31,130.06,666.33,111.76,666.79,110.81 M666.81,95.77c-1.36,0-2.74,0.19-4.09,0.57c-4.05,1.15-7.34,3.93-9.22,7.53
			c-0.07,0.12-0.15,0.27-0.26,0.46c-10.28,18.12-15.3,31.87-17.7,40.21c-6.51,22.45-1,38.03,2.83,43.12
			c2.89,3.85,7.28,6.05,12.06,6.05c2.08,0,4.13-0.43,6.02-1.26v0c4.5-1.97,6.36-5.03,8.71-8.91c1.16-1.9,2.94-4.98,4.88-8.82
			c4.98-9.85,8.38-19.41,10.12-28.42c0.01-0.04,0.01-0.08,0.02-0.11c3.13-16.94,2.02-30.74,1.65-35.27
			c-0.01-0.12-0.02-0.24-0.03-0.34c-0.03-2.71-0.8-5.41-2.28-7.78C676.72,98.35,671.88,95.77,666.81,95.77L666.81,95.77z"/>
	</g>
	<g class="st1">
		<path class="st9" d="M628.12,215.22c-2.36,0-4.64-1.17-6.06-3.06c-2.29-3.04-7.49-16.3-1.62-36.56
			c2.29-7.94,7.1-21.09,17.02-38.57c0.15-0.27,0.27-0.48,0.35-0.61c0.92-1.82,2.55-3.23,4.56-3.83c0.71-0.21,1.43-0.31,2.14-0.31
			c2.51,0,4.92,1.27,6.32,3.46c0.8,1.25,1.19,2.7,1.17,4.15c0.01,0.17,0.03,0.38,0.05,0.65c0.35,4.29,1.4,17.35-1.55,33.31
			c-2.01,10.43-6.25,20.17-9.46,26.51c-4.34,8.59-6.63,11.76-8.14,13.13l0.01,0.02c-0.12,0.1-0.25,0.2-0.38,0.29
			c-0.55,0.43-1,0.63-1.41,0.81C630.18,215,629.16,215.22,628.12,215.22z"/>
		<path d="M644.51,139.77c0,0,0,0.01-0.01,0.04C644.5,139.79,644.5,139.78,644.51,139.77L644.51,139.77 M644.5,139.81
			c-0.09,0.83,1.91,14.91-1.37,32.66c-3.54,18.37-14.87,35.19-15,35.25c0,0,0,0,0,0c-0.25,0-6.05-10.8-0.47-30.03
			C633.01,159.06,644.04,140.76,644.5,139.81 M644.51,124.77c-1.36,0-2.74,0.19-4.09,0.57c-4.05,1.15-7.34,3.93-9.22,7.53
			c-0.07,0.12-0.15,0.27-0.26,0.46c-10.28,18.12-15.3,31.87-17.7,40.21c-6.51,22.45-1,38.03,2.83,43.12
			c2.89,3.85,7.28,6.05,12.06,6.05c2.09,0,4.13-0.44,6.02-1.26l0,0c4.5-1.97,6.36-5.03,8.71-8.91c1.16-1.9,2.94-4.98,4.88-8.82
			c4.98-9.85,8.38-19.41,10.12-28.42c0.01-0.04,0.01-0.08,0.02-0.11c3.13-16.94,2.02-30.74,1.65-35.27
			c-0.01-0.13-0.02-0.24-0.03-0.34c-0.03-2.71-0.8-5.41-2.28-7.78C654.43,127.35,649.58,124.77,644.51,124.77L644.51,124.77z"/>
	</g>
	<g class="st1">
		<path class="st9" d="M602.61,242.2c-2.43,0-4.75-1.23-6.16-3.2c-2.2-3.09-6.9-16.46,0.11-36.68c2.69-7.8,8.16-20.66,18.94-37.51
			c0.16-0.25,0.28-0.44,0.36-0.57c1.01-1.76,2.71-3.08,4.75-3.58c0.59-0.14,1.18-0.21,1.77-0.21c2.59,0,5.06,1.35,6.44,3.65
			c0.79,1.32,1.13,2.83,1.04,4.32c0,0.17,0.01,0.38,0.02,0.64c0.13,4.29,0.54,17.34-3.22,33.09c-2.53,10.28-7.26,19.75-10.78,25.9
			c-4.74,8.28-7.19,11.33-8.75,12.62l0.01,0.02c-0.13,0.1-0.26,0.19-0.39,0.27c-0.58,0.41-1.04,0.59-1.46,0.75
			C604.43,242.03,603.53,242.2,602.61,242.2z"/>
		<path d="M622.38,167.95c0,0,0,0.01-0.02,0.04C622.36,167.97,622.37,167.96,622.38,167.95
			C622.38,167.95,622.38,167.95,622.38,167.95 M622.36,167.99c-0.13,0.81,1.17,14.93-3,32.43c-4.46,18.09-16.61,34.23-16.75,34.29
			c0,0,0,0,0,0c-0.25,0-5.5-11.07,1.03-29.93C609.93,186.51,621.86,168.9,622.36,167.99 M622.38,152.95c-1.13,0-2.27,0.13-3.4,0.39
			c-4.06,0.95-7.47,3.53-9.52,7c-0.07,0.11-0.16,0.25-0.27,0.43c-11.18,17.48-16.9,30.92-19.72,39.12
			c-3.32,9.59-4.63,18.88-3.88,27.59c0.56,6.54,2.34,12.47,4.76,15.87c2.83,3.98,7.42,6.35,12.27,6.35c1.84,0,3.65-0.34,5.34-0.98
			l0,0c4.56-1.74,6.57-4.68,9.11-8.41c1.25-1.84,3.19-4.81,5.32-8.53c5.47-9.54,9.35-18.89,11.54-27.78
			c0.01-0.04,0.02-0.08,0.03-0.11c3.98-16.71,3.56-30.52,3.42-35.06c0-0.12-0.01-0.24-0.01-0.34c0.1-2.82-0.59-5.67-2.06-8.17
			C632.56,155.69,627.6,152.95,622.38,152.95L622.38,152.95z"/>
	</g>
	<g class="st1">
		<path class="st9" d="M575.78,267.73c-2.49,0-4.87-1.28-6.26-3.35c-2.66-3.94-5.7-18.11,1.84-36.73
			c3.07-7.63,9.18-20.15,20.8-36.35c0.17-0.24,0.31-0.43,0.39-0.55c1.09-1.68,2.82-2.9,4.84-3.31c0.49-0.1,0.99-0.15,1.47-0.15
			c2.67,0,5.19,1.43,6.54,3.83c0.78,1.39,1.08,2.97,0.9,4.51c0,0.16-0.01,0.37-0.01,0.63c-0.08,4.28-0.32,17.3-4.87,32.81
			c-3.05,10.11-8.24,19.3-12.07,25.24c-5.11,7.93-7.72,10.87-9.37,12.1l0.01,0.02c-0.15,0.1-0.31,0.2-0.46,0.29
			c-0.6,0.38-1.07,0.53-1.51,0.66C577.3,267.61,576.55,267.73,575.78,267.73z"/>
		<path d="M598.86,194.8c0,0,0,0.01-0.02,0.04C598.85,194.81,598.85,194.8,598.86,194.8C598.86,194.8,598.86,194.8,598.86,194.8
			 M598.84,194.83c-0.17,0.79,0.43,14.92-4.61,32.13c-5.36,17.78-18.3,33.22-18.45,33.26c0,0,0,0,0,0c-0.24,0-4.94-11.31,2.53-29.76
			C585.51,212.6,598.3,195.71,598.84,194.83 M598.86,179.8c-0.96,0-1.92,0.09-2.89,0.28c-4.01,0.78-7.44,3.16-9.62,6.44
			c-0.08,0.11-0.17,0.24-0.29,0.41c-12.05,16.81-18.44,29.91-21.67,37.94c-8.41,20.76-5.27,37.52-1.1,43.7
			c2.81,4.17,7.48,6.66,12.48,6.66c1.53,0,3.04-0.23,4.48-0.68l0,0c4.73-1.48,7.01-4.48,9.65-7.95c1.34-1.76,3.43-4.62,5.75-8.22
			c5.95-9.23,10.3-18.34,12.93-27.08c0.01-0.04,0.02-0.07,0.03-0.11c4.83-16.47,5.08-30.25,5.17-34.78c0-0.12,0-0.23,0.01-0.33
			c0.25-2.93-0.36-5.92-1.83-8.57C609.28,182.68,604.23,179.8,598.86,179.8L598.86,179.8z"/>
	</g>
	<path class="st37" d="M482.21,459.87c24.76-13.26,33.93-26.14,46.08-43.1c12.15-16.96,41.13-56.3,52.6-73.98
		c19.81-30.53-16.94-52.69-35.18-27.74c-15.8,21.61-68.72,81.26-68.72,81.26"/>
	<path class="st37" d="M356.57,531.37c13.62,5.5,39.08,3.34,67.87-7.1c14.28-5.17,38.9-13.26,53.92-29.11
		c15.26-16.11,18.01-37.18,17.08-46.23c-1.83-17.94-4.9-56.6-7.08-78.62c-3.11-31.46-46-34.14-44.5,7.81
		c1.05,29.2,2.26,66.39,2.26,66.39"/>
	<path class="st37" d="M318.64,533.67c37.19,4.72,112.6-35.51,123.24-54.38c10.64-18.88-0.16-60.3-7.99-83.56
		c-7.83-23.27-18.54-34.83-34.48-49.95c-22.8-21.62-54.34,5.4-32.02,30.97l15.96,24.8l10.6,32.45"/>
	<path class="st36" d="M24.04,336.35c0,0,208.48,38.26,227.27,39.69c29.41-22.28,204.56-73.59,216.01-46.89
		c1.8,4.19,1.96,8.86,0.81,13.77"/>
	<path class="st37" d="M318.45,460.25c16.21-11.65,26.88-14.14,26.88-14.14l-5.79-20.42c-31.98-20.84-9.12-54.42,22.69-37.66
		c23.56,12.41,34.86,49.37,35.8,67.49c0.91,17.52-29.92,61.4-79.39,78.15c-28.38,9.61-77.83-8.75-122.88-43.35l-177.02-7.06"/>
	<path class="st36" d="M341.21,435.97c-45.77,17.19-125.47,18.04-125.47,18.04"/>
	<text transform="matrix(-1.795864e-10 1 -1 -1.795864e-10 761.9292 289.4841)" class="st1"><tspan x="0" y="0" class="st41 st42">www</tspan><tspan x="45.14" y="0" class="st41 st43"> </tspan><tspan x="46.99" y="0" class="st41 st42">.</tspan><tspan x="51.77" y="0" class="st41 st43"> </tspan><tspan x="53.63" y="0" class="st41 st42">Capitalism</tspan><tspan x="150.43" y="0" class="st41 st44"> </tspan><tspan x="153.9" y="0" class="st41 st42">Is</tspan><tspan x="168.88" y="0" class="st41 st44"> </tspan><tspan x="172.34" y="0" class="st41 st42">A</tspan><tspan x="186.6" y="0" class="st41 st43"> </tspan><tspan x="188.46" y="0" class="st41 st42">Virus</tspan><tspan x="236.15" y="0" class="st41 st43"> </tspan><tspan x="238.01" y="0" class="st41 st42">.</tspan><tspan x="242.79" y="0" class="st41 st43"> </tspan><tspan x="244.64" y="0" class="st41 st42">org</tspan></text>
	<text transform="matrix(8.979319e-11 -1 1 8.979319e-11 26.8613 266.106)" class="st1"><tspan x="0" y="0" class="st41 st42">#</tspan><tspan x="12.7" y="0" class="st41 st45"> </tspan><tspan x="14.5" y="0" class="st41 st42">Capitalism</tspan><tspan x="111.3" y="0" class="st41 st45"> </tspan><tspan x="113.1" y="0" class="st41 st42">Is</tspan><tspan x="128.09" y="0" class="st41 st45"> </tspan><tspan x="129.89" y="0" class="st41 st42">A</tspan><tspan x="144.15" y="0" class="st41 st45"> </tspan><tspan x="145.95" y="0" class="st41 st42">Virus</tspan></text>
</g>
<g id="expanded">
	<path d="M18.44,490.76l174.66,6.97c8.1,6.12,16.25,11.69,24.36,16.67c7.84,4.82,15.64,9.09,23.3,12.78
		c22.29,10.73,43.39,16.5,60.9,16.5c6.43,0,12.37-0.79,17.72-2.38c1.85,0.17,3.75,0.26,5.69,0.26c8.66,0,18.07-1.64,27.2-4.04
		c0.45,0.32,0.95,0.59,1.48,0.81c5.78,2.34,13.05,3.48,21.39,3.48c14.71,0,32.77-3.57,51.84-10.48c0.95-0.34,1.94-0.7,2.97-1.07
		c15.37-5.51,38.6-13.84,53.84-29.93c13.95-14.72,18.45-32.85,19.17-44.63c14.18-10.52,22-21.42,31.27-34.35l0.14-0.2
		c3.01-4.2,7.05-9.77,11.6-16.05c13.7-18.89,32.46-44.76,41.19-58.21c12.7-19.58,6.1-37.04-5.42-44.97
		c-6.27-4.32-13.85-6-21.37-4.72c-2.03,0.34-4,0.89-5.89,1.63c6.99-6.48,13.99-13.14,20.99-19.98c0.96,0.37,1.79,0.63,2.39,0.81
		c4.24,1.32,8.9,1.99,13.85,1.99c7.38,0,15.16-1.5,23.13-4.46c19.72-7.26,37.31-21.77,42.23-26.04l0.02-0.02
		c0.56-0.48,1.08-1,1.57-1.55l0,0c2.59-2.96,3.86-6.76,3.69-10.55c5.45-3.81,10.76-7.93,15.81-12.33c0.55-0.48,1.02-1.03,1.39-1.62
		c1.8-1.61,3.2-2.94,4.13-3.84l0.02-0.02c0.47-0.44,0.91-0.92,1.31-1.42l0,0c2.55-3.14,3.68-7.11,3.27-11
		c5.18-4.07,10.2-8.41,14.96-13.03c0.45-0.44,0.83-0.92,1.15-1.44c1.94-1.93,3.43-3.5,4.39-4.54l0.01-0.01
		c0.38-0.41,0.74-0.83,1.07-1.28l0,0c2.49-3.31,3.44-7.44,2.8-11.41c4.9-4.31,9.64-8.88,14.1-13.72c0.36-0.39,0.67-0.82,0.94-1.26
		c2.03-2.23,3.57-4.05,4.54-5.21l0.02-0.02c0.41-0.49,0.79-1,1.13-1.53l0,0c2.22-3.43,2.91-7.55,2.04-11.42
		c4.61-4.54,9.05-9.33,13.21-14.36c0.25-0.31,0.47-0.63,0.67-0.96c2.13-2.6,3.73-4.7,4.71-6.02l0.02-0.03
		c0.42-0.56,0.81-1.15,1.15-1.77l0,0c1.96-3.53,2.39-7.64,1.3-11.42c4.32-4.77,8.46-9.77,12.32-14.98
		c2.46-3.33,1.75-8.03-1.58-10.49c-3.33-2.46-8.03-1.75-10.49,1.58c-3.48,4.72-7.2,9.21-11.05,13.47c-1.17-0.29-2.38-0.45-3.61-0.45
		c-0.55,0-1.1,0.03-1.66,0.09c-1.65,0.18-3.23,0.64-4.7,1.33c4.18-10.62,6-19.58,6.72-24.07c0.64-3.39,0.07-6.9-1.56-9.91
		c5.02-7.9,9.76-15.29,13.8-21.38c2.29-3.45,1.34-8.11-2.11-10.4c-3.45-2.29-8.11-1.34-10.39,2.11
		c-4.13,6.23-8.97,13.77-14.08,21.82c-0.13,0-0.26-0.01-0.39-0.01c-3.81,0-7.58,1.45-10.43,4.2c-3.34,3.07-10.17,9.71-17.47,18.94
		c-0.2-1.2-0.38-2.2-0.51-2.94c-0.02-0.13-0.04-0.25-0.06-0.35c-0.27-2.47-1.15-4.88-2.62-6.96c-0.49-0.69-1.04-1.32-1.62-1.91
		c1.38-4.86,2.84-9.67,4.38-14.37c1.29-3.94-0.85-8.17-4.79-9.46c-3.94-1.29-8.17,0.85-9.46,4.79c-1.63,4.97-3.17,10.01-4.61,15.07
		c-0.63,0.17-1.26,0.36-1.88,0.62c-3.85,1.58-6.79,4.66-8.26,8.4c-0.05,0.13-0.12,0.29-0.21,0.49c-0.74,1.69-1.43,3.34-2.09,4.96
		c-0.23,0.37-0.43,0.76-0.59,1.18c-2.03,5.25-3.96,10.59-5.78,15.95c-3.6,1.29-6.54,3.89-8.26,7.2c-0.07,0.12-0.15,0.27-0.26,0.46
		c-0.42,0.75-0.82,1.47-1.23,2.2c-1.55,0.74-2.85,2-3.61,3.69c-2.18,4.84-4.26,9.78-6.25,14.74c-0.58,0.09-1.15,0.21-1.73,0.37
		c-4.05,1.15-7.34,3.93-9.22,7.53c-0.07,0.12-0.15,0.27-0.26,0.46c-0.68,1.2-1.34,2.38-1.97,3.54c-0.44,0.48-0.83,1.02-1.15,1.63
		c-2.45,4.77-4.81,9.64-7.08,14.54c-0.59,0.06-1.18,0.16-1.77,0.3c-4.06,0.95-7.47,3.53-9.52,7c-0.07,0.11-0.16,0.25-0.27,0.43
		c-0.64,1-1.26,1.99-1.87,2.96c-0.55,0.5-1.04,1.1-1.44,1.78c-2.71,4.66-5.36,9.46-7.9,14.33c-0.66,0.04-1.33,0.11-1.99,0.24
		c-4.01,0.78-7.44,3.16-9.62,6.44c-0.08,0.11-0.17,0.24-0.29,0.41c-12.05,16.81-18.44,29.91-21.67,37.94
		c-8.41,20.76-5.27,37.52-1.1,43.7c0.19,0.28,0.39,0.55,0.59,0.81c-28.24,27.48-56.39,51.93-84.54,73.43
		c-1.08-0.6-2.19-1.12-3.31-1.57c0.74-5.39,0.14-10.44-1.83-15.04c-2.13-4.97-6.78-8.44-13.81-10.3
		c-25.98-6.88-86.96,8.34-111.97,15.2c-36.08,9.9-81.26,25.43-99.13,37.18c-23.94-3-155.05-26.68-223.92-39.31
		c-4.07-0.75-7.98,1.95-8.73,6.02c-0.75,4.07,1.95,7.98,6.02,8.73c0.21,0.04,0.55,0.1,0.99,0.18
		c17.41,3.19,208.57,38.2,227.06,39.61c0.19,0.01,0.38,0.02,0.57,0.02c1.63,0,3.22-0.53,4.53-1.52
		c12.99-9.84,56.36-25.7,100.29-37.5c-2.44,4.12-3.79,8.82-3.87,13.72c-0.11,6.92,2.28,13.86,6.95,20.27
		c-17.68-6.37-32.67,0.14-39.06,11.03c-3.85,6.56-4.56,14.34-2,21.9c2.17,6.41,6.62,12.35,12.98,17.42
		c-4.62,1.85-9.24,3.62-13.86,5.32c-1.06,0.39-1.97,0.99-2.72,1.74c-43.61,9.87-98.24,10.59-98.89,10.6
		c-4.14,0.04-7.46,3.44-7.42,7.58c0.04,4.11,3.39,7.42,7.5,7.42c0.03,0,0.05,0,0.08,0c2.79-0.03,58.93-0.77,104.32-11.48
		c-1.93,1.24-3.95,2.61-6.06,4.13c-3.36,2.42-4.13,7.1-1.71,10.47c2.42,3.36,7.1,4.13,10.47,1.71
		c14.53-10.44,24.17-12.91,24.21-12.92c2-0.47,3.72-1.73,4.76-3.49c1.04-1.77,1.31-3.88,0.76-5.85l-5.79-20.42
		c-0.49-1.74-1.6-3.25-3.12-4.24c-10.39-6.77-14.53-15.51-10.56-22.27c4.71-8.02,16.47-7.31,25.66-2.48
		c20.8,10.96,30.98,45.3,31.81,61.24c0.26,4.96-4.56,18.09-18.88,33.95c-15.06,16.67-34.74,29.71-55.43,36.71
		c-25.31,8.57-71.89-8.38-115.91-42.19c-1.23-0.94-2.72-1.48-4.27-1.55l-174.04-6.94l-2.98-0.12c-4.15-0.16-7.63,3.06-7.79,7.2
		C11.08,487.1,14.3,490.59,18.44,490.76z M701.23,113.88c0-0.04,0.01-0.08,0.01-0.12c0.25-3.08,0.37-6.05,0.41-8.87
		c0.24-0.4,0.48-0.8,0.73-1.2c11.25-18.26,25.25-30.47,25.37-30.62c-0.06,0.09-2.28,17.8-13.11,36.08c-3.59,1.78-7.42,3.81-11.4,6.1
		c-0.06,0.04-0.13,0.07-0.19,0.11c-0.71,0.42-1.41,0.86-2.11,1.3C701.04,115.72,701.15,114.79,701.23,113.88z M695.71,138.73
		c4.47-3.55,9.59-7.26,15-10.48c16.51-9.51,30.95-14.39,31.4-14.74c0.01-0.01,0.01-0.01,0.01-0.01c0,0,0,0,0,0c0,0,0,0.01-0.01,0.01
		c-0.32,0.42-7.1,9.78-17,19.31c-1.37-0.41-2.8-0.63-4.27-0.63c-0.55,0-1.1,0.03-1.66,0.09c-1.37,0.15-2.7,0.49-3.96,1
		c-0.21,0.07-0.46,0.15-0.77,0.25c-3.34,1.07-10.49,3.38-19.42,7.12C695.27,140.01,695.5,139.37,695.71,138.73z M684.37,79.61
		c0-0.02,0-0.04,0.01-0.04h0C684.39,79.57,684.38,79.58,684.37,79.61c-0.01,0.84,3.39,14.77,1.91,32.94
		c-0.64,7.14-2.41,14.18-4.37,20.16c0.81-10.51,0.17-18.53-0.09-21.78c-0.01-0.12-0.02-0.24-0.03-0.34
		c-0.03-2.71-0.8-5.41-2.28-7.78c-0.79-1.27-1.76-2.38-2.85-3.33C680.31,88.54,684.14,80.25,684.37,79.61z M672.08,170.47
		c4.92-3.55,10.67-7.31,16.72-10.46c16.93-8.51,31.56-12.49,32.03-12.81c0.01-0.01,0.01-0.01,0.01-0.01c0,0,0,0,0,0
		c0,0,0,0.01-0.01,0.01c-0.33,0.4-7.54,9.27-17.86,18.16c-1.6-0.57-3.31-0.88-5.05-0.88c-0.62,0-1.24,0.04-1.87,0.12
		c-1,0.13-1.98,0.35-2.93,0.67c-0.2,0.05-0.45,0.12-0.74,0.19c-3.53,0.91-11.28,2.92-20.95,6.4
		C671.65,171.4,671.87,170.94,672.08,170.47z M666.79,110.81c0-0.02,0.01-0.04,0.01-0.04h0
		C666.81,110.78,666.81,110.79,666.79,110.81c-0.09,0.83,1.91,14.91-1.37,32.66c-1.24,6.45-3.45,12.71-5.79,18.12
		c0.79-10.45,0.16-18.42-0.1-21.66c-0.01-0.13-0.02-0.24-0.03-0.34c-0.03-2.71-0.8-5.41-2.28-7.78c-0.21-0.33-0.42-0.64-0.65-0.95
		C661.47,119.82,666.49,111.45,666.79,110.81z M650.2,198.56c4.6-2.85,9.77-5.75,15.14-8.17c17.31-7.5,32.09-10.6,32.56-10.9
		c0.01-0.01,0.01-0.01,0.01-0.01c0,0,0,0,0,0c0,0,0,0.01-0.01,0.01c-0.34,0.36-7.96,8.76-18.68,17.02
		c-1.81-0.76-3.78-1.18-5.81-1.18c-1.35,0-2.68,0.18-3.95,0.53c-0.2,0.04-0.45,0.09-0.75,0.15c-3.35,0.66-10.47,2.07-19.48,4.67
		C649.56,199.97,649.88,199.26,650.2,198.56z M644.5,139.81c0-0.02,0.01-0.04,0.01-0.04h0C644.51,139.77,644.51,139.79,644.5,139.81
		c-0.09,0.83,1.91,14.91-1.37,32.66c-1.49,7.73-4.36,15.18-7.19,21.23c1.83-11.96,1.55-21.29,1.44-24.86c0-0.12-0.01-0.24-0.01-0.34
		c0.1-2.82-0.59-5.67-2.06-8.17c-0.23-0.39-0.48-0.75-0.73-1.11C639.37,148.5,644.2,140.44,644.5,139.81z M625.29,226.41
		c4.63-2.52,9.79-5.03,15.12-7.08c17.62-6.5,32.49-8.72,32.99-8.99c0.01-0.01,0.01-0.01,0.01-0.01c0,0,0,0,0,0c0,0,0,0.01-0.01,0.01
		c-0.37,0.35-8.37,8.26-19.44,15.86c-2.01-0.98-4.24-1.51-6.54-1.51c-0.5,0-1,0.02-1.5,0.07c-0.56,0.06-1.11,0.14-1.66,0.26
		c-0.2,0.03-0.44,0.06-0.72,0.1c-3.34,0.46-10.41,1.45-19.39,3.49C624.53,227.88,624.91,227.14,625.29,226.41z M611.97,187.5
		c-0.15-0.27-0.31-0.53-0.48-0.79c5.33-10.39,10.54-18.13,10.87-18.72c0-0.02,0.01-0.04,0.02-0.04c0,0,0,0,0,0c0,0,0,0.01-0.02,0.04
		c-0.13,0.81,1.17,14.93-3,32.43c-1.88,7.63-5.12,14.9-8.26,20.77c2.44-11.87,2.63-21.21,2.69-24.78c0-0.12,0-0.23,0.01-0.33
		C614.05,193.15,613.44,190.15,611.97,187.5z M614.07,246.79c17.88-5.49,32.81-6.86,33.32-7.1c0.01-0.01,0.01-0.01,0.01-0.01
		c0,0,0,0,0,0c0,0-0.01,0.01-0.01,0.01c-0.57,0.48-18.35,16.28-37.72,23.41c-7.19,2.67-13.2,3.53-17.92,3.53
		c-0.63,0-1.23-0.02-1.82-0.05c1.34-1.77,3.43-4.62,5.74-8.21c1.2-1.85,2.31-3.7,3.37-5.55
		C603.67,250.64,608.8,248.49,614.07,246.79z M578.31,230.47c7.19-17.87,19.99-34.76,20.53-35.64c0-0.02,0.01-0.03,0.02-0.04
		c0,0,0,0,0,0c0,0,0,0.01-0.02,0.04c-0.17,0.79,0.43,14.92-4.61,32.13c-5.36,17.78-18.3,33.22-18.45,33.26c0,0,0,0,0,0
		C575.54,260.23,570.84,248.92,578.31,230.47z M573.25,314.26c5.49,3.78,9.13,12.45,1.34,24.46c-8.52,13.13-27.15,38.81-40.75,57.57
		c-4.57,6.3-8.63,11.9-11.65,16.12l-0.14,0.2c-6.69,9.34-12.33,17.2-20.2,24.53c-0.72-7.83-1.53-17.2-2.37-26.92
		c-0.75-8.67-1.51-17.5-2.24-25.55c16.94-19.38,43.82-50.53,54.52-65.17C558.45,310.33,567.59,310.36,573.25,314.26z M535.73,315.8
		c-9.81,12.6-26.72,32.41-40.75,48.59c-0.97-4.24-2.55-7.95-4.57-11.13C505.46,341.64,520.58,329.16,535.73,315.8z M480.9,371.06
		c1.08,10.89,2.38,25.91,3.63,40.44c1.29,14.97,2.52,29.11,3.45,38.2c0.63,6.13-0.86,25.31-15.07,40.31
		c-12.79,13.49-33.99,21.1-48.02,26.13c-1.05,0.38-2.05,0.74-3.02,1.09c-13.45,4.87-26.57,7.97-37.78,9.11
		c3.66-1.58,6.84-3.04,9.34-4.23c20.76-9.89,47.61-26.07,54.97-39.13c5.23-9.28,6.16-22.41,4.89-36.29
		c0.23-0.76,0.35-1.57,0.32-2.41c-0.01-0.37-1.22-37.54-2.26-66.41c-0.5-13.8,4.75-23.09,13.36-23.67
		C474.08,353.55,480.04,362.41,480.9,371.06z M453.51,329.78c5.74,0.89,6.92,2.36,6.91,2.33c0.91,2.12,1.14,4.61,0.72,7.41
		c-12.37,2.05-23.85,12.94-24.75,33.8c-1.02,0.67-2.04,1.34-3.07,2c-7.58-14.21-17.1-23.94-28.75-34.99
		c-2.36-2.24-4.8-4.06-7.28-5.51C420.73,330.18,441.3,327.88,453.51,329.78z M405.53,455.13c-0.3-5.8-1.65-14.14-4.42-23.37
		c-0.01-0.03-0.02-0.07-0.03-0.1l-0.04-0.11c-0.54-1.78-1.13-3.6-1.78-5.44l-8.79-26.9c-0.2-0.61-0.48-1.19-0.82-1.73l-15.96-24.8
		c-0.2-0.31-0.42-0.6-0.66-0.87c-5.29-6.06-8.93-15.59-1.76-22.47c5.02-4.82,14.35-6.29,22.97,1.88
		c15.3,14.51,25.13,24.91,32.53,46.9c9.44,28.05,16.65,63.14,8.56,77.49c-6.03,10.7-40.83,31.9-73.41,43.29
		C389.48,498.1,406.35,470.91,405.53,455.13z"/>
	<polygon points="761.93,295.68 767.12,297.02 767.12,297.1 761.93,298.44 761.93,301.72 770.99,304.58 761.93,307.45 
		761.93,310.72 767.12,312.06 767.12,312.15 761.93,313.49 761.93,316.76 770.99,319.63 761.93,322.49 761.93,325.77 767.12,327.11 
		767.12,327.19 761.93,328.53 761.93,331.81 771.12,334.72 771.12,331.71 765.91,330.06 765.91,329.98 771.12,328.64 771.12,325.98 
		765.91,324.64 765.91,324.55 771.12,322.9 771.12,319.67 771.12,319.59 771.12,316.66 765.91,315.01 765.91,314.93 771.12,313.59 
		771.12,310.93 765.91,309.59 765.91,309.51 771.12,307.86 771.12,304.63 771.12,304.54 771.12,301.62 765.91,299.97 765.91,299.88 
		771.12,298.54 771.12,295.88 765.91,294.54 765.91,294.46 771.12,292.81 771.12,289.49 761.93,292.4 	"/>
	<rect x="761.93" y="337.15" width="3.55" height="3.55"/>
	<path d="M768.42,343.58c-4,0-6.74,2.87-6.74,6.66c0,3.98,2.52,6.1,5.75,6.35l0.14-3.36c-1.44-0.21-2.78-0.99-2.78-3.01
		c0-1.92,1.42-3.03,3.63-3.03s3.63,1.11,3.63,3.03c0,2.02-1.34,2.8-2.78,3.01l0.12,3.36c3.24-0.25,5.77-2.37,5.77-6.35
		C775.16,346.44,772.42,343.58,768.42,343.58z"/>
	<path d="M761.72,365.67c0,0.95,0.27,1.61,0.6,2.08h1.77c-0.1-0.27-0.14-0.47-0.14-0.74c0-0.35,0.21-0.56,0.68-0.56h3.13
		c2.56,0,3.61-1.79,3.61-4.23c0-2.76-1.4-4.27-3.42-4.56l-0.21,3.09c0.68,0.14,1.15,0.52,1.15,1.26c0,0.8-0.45,1.15-1.22,1.15h-0.14
		l-0.43-2.58c-0.35-2-1.11-3.28-2.89-3.28c-1.57,0-2.49,1.18-2.49,2.97c0,1.46,0.56,2.52,1.63,3.05
		C762.3,363.65,761.72,364.54,761.72,365.67z M764.65,360.54c0.6,0,0.85,0.47,1.01,1.28l0.25,1.36h-0.14c-1.2,0-1.9-0.76-1.9-1.71
		C763.87,360.91,764.18,360.54,764.65,360.54z"/>
	<path d="M758.63,372.06h4.87c-1.07,0.45-1.81,1.48-1.81,3.03c0,2.7,2.12,4.08,4.84,4.08c2.7,0,4.84-1.38,4.84-4.08
		c0-1.55-0.74-2.58-1.83-3.03h1.59v-3.34h-12.49V372.06z M766.46,372.06h0.12c1.32,0,2.19,0.72,2.19,1.86c0,1.3-0.93,1.9-2.25,1.9
		c-1.34,0-2.27-0.6-2.27-1.9C764.26,372.78,765.12,372.06,766.46,372.06z"/>
	<rect x="761.93" y="380.49" width="9.19" height="3.34"/>
	<rect x="771.99" y="380.47" width="2.93" height="3.38"/>
	<path d="M773.66,387.17l-1.2-0.31c-0.85-0.23-1.34-0.52-1.48-1.44l-0.1-0.68h-2.06v1.24h-4.33c-2.16,0-2.8,1.46-2.8,3.01
		c0,1.26,0.31,2.06,0.82,2.76h2.16c-0.23-0.56-0.31-1.01-0.31-1.42c0-0.68,0.31-1.05,1.09-1.05h3.36v2.39h2.31v-2.39h2.54V387.17z"
		/>
	<path d="M764.63,401.62h3.13c2.56,0,3.61-1.79,3.61-4.23c0-2.76-1.4-4.27-3.42-4.56l-0.21,3.09c0.68,0.14,1.15,0.52,1.15,1.26
		c0,0.8-0.45,1.15-1.22,1.15h-0.14l-0.43-2.58c-0.35-2-1.11-3.28-2.89-3.28c-1.57,0-2.49,1.17-2.49,2.97c0,1.46,0.56,2.52,1.63,3.05
		c-1.05,0.31-1.63,1.2-1.63,2.33c0,0.95,0.27,1.61,0.6,2.08h1.77c-0.1-0.27-0.14-0.47-0.14-0.74
		C763.95,401.82,764.16,401.62,764.63,401.62z M763.87,396.63c0-0.56,0.31-0.93,0.78-0.93c0.6,0,0.85,0.47,1.01,1.28l0.25,1.36
		h-0.14C764.57,398.34,763.87,397.58,763.87,396.63z"/>
	<rect x="761.93" y="403.88" width="12.99" height="3.34"/>
	<rect x="771.99" y="409.01" width="2.93" height="3.38"/>
	<rect x="761.93" y="409.03" width="9.19" height="3.34"/>
	<path d="M768.26,413.71c-1.88,0-2.6,1.17-2.95,3.4l-0.21,1.36c-0.1,0.64-0.35,0.85-0.7,0.85c-0.37,0-0.64-0.39-0.64-1.13
		c0-1.01,0.43-1.63,1.2-1.75l-0.04-2.91c-2.23,0.19-3.24,2.08-3.24,4.62c0,2.62,1.11,4.27,3.05,4.27c1.79,0,2.72-1.2,3.05-3.26
		l0.31-1.79c0.04-0.31,0.21-0.56,0.52-0.56c0.41,0,0.66,0.37,0.66,1.01c0,1.03-0.41,1.61-1.07,1.73l0.08,2.74
		c1.92-0.19,3.09-1.75,3.09-4.41C771.37,415.3,770.07,413.71,768.26,413.71z"/>
	<path d="M771.37,429.89c0-1.38-0.62-2.37-1.63-2.87h1.38v-3.34h-9.19v3.34h4.51c1.38,0,2.29,0.39,2.29,1.48
		c0,1.01-0.66,1.26-1.92,1.26h-4.89v3.34h4.51c1.38,0,2.29,0.37,2.29,1.48c0,1.01-0.66,1.24-1.92,1.24h-4.89v3.34h5.77
		c1.92,0,3.67-0.74,3.67-3.28c0-1.55-0.78-2.64-1.81-3.13C770.63,432.37,771.37,431.52,771.37,429.89z"/>
	<rect x="761.93" y="444.42" width="12.99" height="3.5"/>
	<path d="M764.96,452.07l-0.04-2.91c-2.23,0.19-3.24,2.08-3.24,4.62c0,2.62,1.11,4.27,3.05,4.27c1.79,0,2.72-1.2,3.05-3.26
		l0.31-1.79c0.04-0.31,0.21-0.56,0.52-0.56c0.41,0,0.66,0.37,0.66,1.01c0,1.03-0.41,1.61-1.07,1.73l0.08,2.74
		c1.92-0.19,3.09-1.75,3.09-4.41c0-2.58-1.3-4.16-3.11-4.16c-1.88,0-2.6,1.18-2.95,3.4l-0.21,1.36c-0.1,0.64-0.35,0.85-0.7,0.85
		c-0.37,0-0.64-0.39-0.64-1.13C763.76,452.81,764.2,452.19,764.96,452.07z"/>
	<path d="M774.92,467.05l-12.99-5.17v3.52l2.52,0.97v5.07l-2.52,0.97v3.73l12.99-5.17V467.05z M770.9,468.95l-3.83,1.48v-3.05
		l3.83,1.48V468.95z"/>
	<polygon points="774.92,481.66 774.92,478 761.93,482.98 761.93,486.67 774.92,491.66 774.92,488.18 766.28,484.96 766.28,484.88 	
		"/>
	<rect x="761.93" y="492.57" width="9.19" height="3.34"/>
	<rect x="771.99" y="492.55" width="2.93" height="3.38"/>
	<path d="M769.5,501.06h1.63v-3.34h-9.19v3.34h4.21c1.55,0,2.12,0.76,2.12,2c0,0.64-0.12,1.13-0.39,1.59l3.15,0.21
		c0.19-0.23,0.35-0.72,0.35-1.28C771.37,502.36,770.53,501.39,769.5,501.06z"/>
	<path d="M766.22,509.12h4.91v-3.34h-5.79c-1.92,0-3.65,0.76-3.65,3.28c0,1.38,0.6,2.39,1.63,2.89h-1.38v3.34h9.19v-3.34h-4.51
		c-1.4,0-2.31-0.41-2.31-1.46C764.3,509.47,764.98,509.12,766.22,509.12z"/>
	<path d="M768.26,516.62c-1.88,0-2.6,1.17-2.95,3.4l-0.21,1.36c-0.1,0.64-0.35,0.85-0.7,0.85c-0.37,0-0.64-0.39-0.64-1.13
		c0-1.01,0.43-1.63,1.2-1.75l-0.04-2.91c-2.23,0.19-3.24,2.08-3.24,4.62c0,2.62,1.11,4.27,3.05,4.27c1.79,0,2.72-1.2,3.05-3.26
		l0.31-1.79c0.04-0.31,0.21-0.56,0.52-0.56c0.41,0,0.66,0.37,0.66,1.01c0,1.03-0.41,1.61-1.07,1.73l0.08,2.74
		c1.92-0.19,3.09-1.75,3.09-4.41C771.37,518.21,770.07,516.62,768.26,516.62z"/>
	<rect x="761.93" y="528.16" width="3.55" height="3.55"/>
	<path d="M766.53,534.59c-2.87,0-4.84,2.02-4.84,5.03c0,2.99,1.98,5.03,4.84,5.03c2.84,0,4.84-2.04,4.84-5.03
		C771.37,536.61,769.37,534.59,766.53,534.59z M766.53,541.29c-1.38,0-2.33-0.52-2.33-1.67c0-1.18,0.95-1.67,2.33-1.67
		c1.38,0,2.33,0.49,2.33,1.67C768.86,540.78,767.91,541.29,766.53,541.29z"/>
	<path d="M771.02,553.1c0.19-0.23,0.35-0.72,0.35-1.28c0-1.22-0.85-2.19-1.88-2.52h1.63v-3.34h-9.19v3.34h4.21
		c1.55,0,2.12,0.76,2.12,2c0,0.64-0.12,1.13-0.39,1.59L771.02,553.1z"/>
	<path d="M768.22,562.71c0.43,0,0.82-0.1,1.17-0.29c0.1,0.45,0.14,0.95,0.14,1.34h2.51c0-1.01-0.66-2.02-1.42-2.58
		c0.47-0.78,0.74-1.83,0.74-2.95c0-2.58-1.2-4.43-3.15-4.43c-1.01,0-1.79,0.49-2.33,1.32c-0.37-0.99-1.05-1.57-1.94-1.57
		c-0.78,0-1.53,0.5-1.79,1.32c-0.08-1.03-0.72-1.75-1.53-1.75c-1.73,0-2.25,2.27-2.25,4.89c0,2.99,1.05,5.77,3.34,5.77
		c1.55,0,2.64-1.05,2.64-3.13v-3.81c0-0.56,0.25-0.78,0.56-0.78c0.19,0,0.33,0.06,0.43,0.19c-0.19,0.6-0.27,1.26-0.27,2
		C765.08,560.83,766.28,562.71,768.22,562.71z M768.22,557.3c0.8,0,1.32,0.41,1.32,0.97c0,0.56-0.52,0.97-1.32,0.97
		c-0.82,0-1.34-0.41-1.34-0.97C766.88,557.72,767.39,557.3,768.22,557.3z M761.52,559.86c0,0.56-0.14,0.85-0.54,0.85
		c-0.56,0-0.87-1.13-0.87-2.68c0-1.24,0.19-2.16,0.84-2.16c0.35,0,0.56,0.25,0.56,0.62V559.86z"/>
	<path d="M26.86,260.42v-2.49l-3.42-0.8v-2.04l-2.06-0.43v1.98l-2.02-0.49v-1.88l-2.06-0.43v1.83l-3.42-0.82v2.49l3.42,0.82v1.77
		l-3.42-0.83v2.49l3.42,0.82v2.02l2.06,0.43v-1.98l2.02,0.49v1.88l2.06,0.43v-1.81l3.42,0.8v-2.49l-3.42-0.8v-1.77L26.86,260.42z
		 M21.38,260.89l-2.02-0.5v-1.77l2.02,0.49V260.89z"/>
	<path d="M20.37,251.2c4,0,6.74-2.87,6.74-6.66c0-3.98-2.51-6.1-5.75-6.35l-0.14,3.36c1.44,0.21,2.78,0.99,2.78,3.01
		c0,1.92-1.42,3.03-3.63,3.03s-3.63-1.11-3.63-3.03c0-2.02,1.34-2.8,2.78-3.01l-0.12-3.36c-3.24,0.25-5.77,2.37-5.77,6.35
		C13.63,248.33,16.37,251.2,20.37,251.2z"/>
	<path d="M27.07,229.1c0-0.95-0.27-1.61-0.6-2.08H24.7c0.1,0.27,0.14,0.47,0.14,0.74c0,0.35-0.21,0.56-0.68,0.56h-3.13
		c-2.56,0-3.61,1.79-3.61,4.23c0,2.76,1.4,4.27,3.42,4.56l0.21-3.09c-0.68-0.14-1.15-0.52-1.15-1.26c0-0.8,0.45-1.15,1.22-1.15h0.14
		l0.43,2.58c0.35,2,1.11,3.28,2.89,3.28c1.57,0,2.49-1.18,2.49-2.97c0-1.46-0.56-2.52-1.63-3.05
		C26.49,231.12,27.07,230.24,27.07,229.1z M24.14,234.23c-0.6,0-0.85-0.47-1.01-1.28l-0.25-1.36h0.14c1.2,0,1.9,0.76,1.9,1.71
		C24.92,233.86,24.61,234.23,24.14,234.23z"/>
	<path d="M30.16,222.71h-4.86c1.07-0.45,1.81-1.48,1.81-3.03c0-2.7-2.12-4.08-4.84-4.08c-2.7,0-4.84,1.38-4.84,4.08
		c0,1.55,0.74,2.58,1.83,3.03h-1.59v3.34h12.49V222.71z M22.33,222.71H22.2c-1.32,0-2.18-0.72-2.18-1.86c0-1.3,0.93-1.9,2.25-1.9
		c1.34,0,2.27,0.6,2.27,1.9C24.53,221.99,23.67,222.71,22.33,222.71z"/>
	<rect x="17.67" y="210.95" width="9.19" height="3.34"/>
	<rect x="13.87" y="210.92" width="2.93" height="3.38"/>
	<path d="M15.13,207.61l1.2,0.31c0.85,0.23,1.34,0.52,1.48,1.44l0.1,0.68h2.06v-1.24h4.33c2.16,0,2.8-1.46,2.8-3.01
		c0-1.26-0.31-2.06-0.82-2.76h-2.16c0.23,0.56,0.31,1.01,0.31,1.42c0,0.68-0.31,1.05-1.09,1.05h-3.36v-2.39h-2.31v2.39h-2.54V207.61
		z"/>
	<path d="M24.16,193.16h-3.13c-2.56,0-3.61,1.79-3.61,4.23c0,2.76,1.4,4.27,3.42,4.56l0.21-3.09c-0.68-0.14-1.15-0.52-1.15-1.26
		c0-0.8,0.45-1.15,1.22-1.15h0.14l0.43,2.58c0.35,2,1.11,3.28,2.89,3.28c1.57,0,2.49-1.18,2.49-2.97c0-1.46-0.56-2.51-1.63-3.05
		c1.05-0.31,1.63-1.2,1.63-2.33c0-0.95-0.27-1.61-0.6-2.08H24.7c0.1,0.27,0.14,0.47,0.14,0.74
		C24.84,192.95,24.63,193.16,24.16,193.16z M24.92,198.15c0,0.56-0.31,0.93-0.78,0.93c-0.6,0-0.85-0.47-1.01-1.28l-0.25-1.36h0.14
		C24.22,196.44,24.92,197.2,24.92,198.15z"/>
	<rect x="13.87" y="187.55" width="12.99" height="3.34"/>
	<rect x="17.67" y="182.4" width="9.19" height="3.34"/>
	<rect x="13.87" y="182.38" width="2.93" height="3.38"/>
	<path d="M20.53,181.06c1.88,0,2.6-1.18,2.95-3.4l0.21-1.36c0.1-0.64,0.35-0.85,0.7-0.85c0.37,0,0.64,0.39,0.64,1.13
		c0,1.01-0.43,1.63-1.2,1.75l0.04,2.91c2.23-0.19,3.24-2.08,3.24-4.62c0-2.62-1.11-4.27-3.05-4.27c-1.79,0-2.72,1.2-3.05,3.26
		l-0.31,1.79c-0.04,0.31-0.21,0.56-0.52,0.56c-0.41,0-0.66-0.37-0.66-1.01c0-1.03,0.41-1.61,1.07-1.73l-0.08-2.74
		c-1.92,0.19-3.09,1.75-3.09,4.41C17.42,179.47,18.72,181.06,20.53,181.06z"/>
	<path d="M17.42,164.88c0,1.38,0.62,2.37,1.63,2.87h-1.38v3.34h9.19v-3.34h-4.51c-1.38,0-2.29-0.39-2.29-1.48
		c0-1.01,0.66-1.26,1.92-1.26h4.89v-3.34h-4.51c-1.38,0-2.29-0.37-2.29-1.48c0-1.01,0.66-1.24,1.92-1.24h4.89v-3.34h-5.77
		c-1.92,0-3.67,0.74-3.67,3.28c0,1.55,0.78,2.64,1.81,3.13C18.16,162.41,17.42,163.25,17.42,164.88z"/>
	<rect x="13.87" y="148.51" width="12.99" height="3.5"/>
	<path d="M23.83,144.37l0.04,2.91c2.23-0.19,3.24-2.08,3.24-4.62c0-2.62-1.11-4.27-3.05-4.27c-1.79,0-2.72,1.2-3.05,3.26l-0.31,1.79
		c-0.04,0.31-0.21,0.56-0.52,0.56c-0.41,0-0.66-0.37-0.66-1.01c0-1.03,0.41-1.61,1.07-1.73l-0.08-2.74
		c-1.92,0.19-3.09,1.75-3.09,4.41c0,2.58,1.3,4.16,3.11,4.16c1.88,0,2.6-1.18,2.95-3.4l0.21-1.36c0.1-0.64,0.35-0.85,0.7-0.85
		c0.37,0,0.64,0.39,0.64,1.13C25.03,143.62,24.59,144.24,23.83,144.37z"/>
	<path d="M13.87,131.05l12.99,5.17v-3.52l-2.51-0.97v-5.07l2.51-0.97v-3.73l-12.99,5.17V131.05z M17.89,129.15l3.83-1.48v3.05
		l-3.83-1.48V129.15z"/>
	<polygon points="13.87,116.49 13.87,120.16 26.86,115.17 26.86,111.48 13.87,106.49 13.87,109.97 22.51,113.19 22.51,113.27 	"/>
	<rect x="17.67" y="102.25" width="9.19" height="3.34"/>
	<rect x="13.87" y="102.23" width="2.93" height="3.38"/>
	<path d="M19.3,97.09h-1.63v3.34h9.19v-3.34h-4.21c-1.55,0-2.12-0.76-2.12-2c0-0.64,0.12-1.13,0.39-1.59l-3.15-0.21
		c-0.19,0.23-0.35,0.72-0.35,1.28C17.42,95.8,18.27,96.76,19.3,97.09z"/>
	<path d="M22.57,89.04h-4.91v3.34h5.79c1.92,0,3.65-0.76,3.65-3.28c0-1.38-0.6-2.39-1.63-2.89h1.38v-3.34h-9.19v3.34h4.51
		c1.4,0,2.31,0.41,2.31,1.46C24.49,88.69,23.81,89.04,22.57,89.04z"/>
	<path d="M20.59,75.7l-0.08-2.74c-1.92,0.19-3.09,1.75-3.09,4.41c0,2.58,1.3,4.16,3.11,4.16c1.88,0,2.6-1.17,2.95-3.4l0.21-1.36
		c0.1-0.64,0.35-0.85,0.7-0.85c0.37,0,0.64,0.39,0.64,1.13c0,1.01-0.43,1.63-1.2,1.75l0.04,2.91c2.23-0.19,3.24-2.08,3.24-4.62
		c0-2.62-1.11-4.27-3.05-4.27c-1.79,0-2.72,1.2-3.05,3.26l-0.31,1.79c-0.04,0.31-0.21,0.56-0.52,0.56c-0.41,0-0.66-0.37-0.66-1.01
		C19.52,76.4,19.93,75.82,20.59,75.7z"/>
</g>
</svg>
