<?xml version="1.0" encoding="utf-8"?>
<!-- Generator: Adobe Illustrator 23.1.1, SVG Export Plug-In . SVG Version: 6.00 Build 0)  -->
<svg version="1.1" xmlns="http://www.w3.org/2000/svg" xmlns:xlink="http://www.w3.org/1999/xlink" x="0px" y="0px"
	 viewBox="0 0 792 612" style="enable-background:new 0 0 792 612;" xml:space="preserve">
<style type="text/css">
	.st0{display:none;}
	.st1{display:inline;}
	
		.st2{display:inline;fill:#FFFFFF;stroke:#000000;stroke-width:16;stroke-linecap:round;stroke-linejoin:round;stroke-miterlimit:10;}
	.st3{fill:#FFFFFF;stroke:#000000;stroke-width:16;stroke-linecap:round;stroke-linejoin:round;stroke-miterlimit:10;}
	.st4{display:inline;fill:none;stroke:#000000;stroke-width:24;stroke-linejoin:round;stroke-miterlimit:10;}
	.st5{display:inline;fill:#FFFFFF;}
	.st6{fill:#FFFFFF;stroke:#000000;stroke-width:17;stroke-linecap:round;stroke-miterlimit:10;}
	.st7{fill:#FFFFFF;stroke:#000000;stroke-width:17;stroke-miterlimit:10;}
	.st8{stroke:#000000;stroke-width:16.0572;stroke-linecap:round;stroke-miterlimit:10;}
	.st9{fill:#FFFFFF;}
	.st10{fill:#FFFFFF;stroke:#000000;stroke-width:17.1072;stroke-linecap:round;stroke-linejoin:round;stroke-miterlimit:10;}
	.st11{stroke:#000000;stroke-width:17.1072;stroke-linecap:round;stroke-linejoin:round;stroke-miterlimit:10;}
	.st12{fill:#FFFFFF;stroke:#000000;stroke-width:14.7375;stroke-linecap:round;stroke-linejoin:round;stroke-miterlimit:10;}
	.st13{fill:none;stroke:#000000;stroke-width:14.7375;stroke-linecap:round;stroke-linejoin:round;stroke-miterlimit:10;}
	.st14{stroke:#000000;stroke-width:14.7375;stroke-linecap:round;stroke-linejoin:round;stroke-miterlimit:10;}
	.st15{fill:#FFFFFF;stroke:#000000;stroke-width:14.2911;stroke-linecap:round;stroke-linejoin:round;stroke-miterlimit:10;}
	.st16{fill:none;stroke:#000000;stroke-width:13.497;stroke-miterlimit:10;}
	.st17{fill:#FFFFFF;stroke:#000000;stroke-width:13.497;stroke-linecap:round;stroke-linejoin:round;stroke-miterlimit:10;}
	.st18{font-family:'FoundersGrotesk-Semibold';}
	.st19{font-size:124.9913px;}
	.st20{fill:#FFFFFF;stroke:#000000;stroke-width:13.497;stroke-miterlimit:10;}
	.st21{fill:#FFFFFF;stroke:#000000;stroke-width:14.7439;stroke-linecap:round;stroke-miterlimit:10;}
	.st22{fill:#FFFFFF;stroke:#000000;stroke-width:14.7439;stroke-miterlimit:10;}
	.st23{stroke:#000000;stroke-width:13.9262;stroke-linecap:round;stroke-miterlimit:10;}
	
		.st24{display:inline;fill:#FFFFFF;stroke:#000000;stroke-width:14.6942;stroke-linecap:round;stroke-linejoin:round;stroke-miterlimit:10;}
	.st25{fill:#FFFFFF;stroke:#000000;stroke-width:14.6942;stroke-linecap:round;stroke-linejoin:round;stroke-miterlimit:10;}
	.st26{fill:none;stroke:#000000;stroke-width:24;stroke-linejoin:round;stroke-miterlimit:10;}
	.st27{fill:none;stroke:#000000;stroke-width:30.5612;stroke-linecap:round;stroke-linejoin:round;stroke-miterlimit:10;}
	.st28{fill:#FFFFFF;stroke:#000000;stroke-width:16.2993;stroke-linecap:round;stroke-linejoin:round;stroke-miterlimit:10;}
	.st29{display:inline;fill:#FFFFFF;stroke:#000000;stroke-width:13.497;stroke-linecap:round;stroke-miterlimit:10;}
	
		.st30{display:inline;fill:none;stroke:#000000;stroke-width:13.497;stroke-linecap:round;stroke-linejoin:round;stroke-miterlimit:10;}
	
		.st31{display:inline;fill:#FFFFFF;stroke:#000000;stroke-width:13.497;stroke-linecap:round;stroke-linejoin:round;stroke-miterlimit:10;}
	
		.st32{display:inline;fill:url(#);stroke:#000000;stroke-width:13.497;stroke-linecap:round;stroke-linejoin:round;stroke-miterlimit:10;}
	.st33{fill:#FFFFFF;stroke:#000000;stroke-width:15.2362;stroke-linecap:round;stroke-linejoin:round;stroke-miterlimit:10;}
	.st34{fill:#FFFFFF;stroke:#000000;stroke-width:14.8467;stroke-linecap:round;stroke-linejoin:round;stroke-miterlimit:10;}
	.st35{stroke:#000000;stroke-width:20.1683;stroke-linecap:round;stroke-miterlimit:10;}
	.st36{fill:none;stroke:#000000;stroke-width:14.8467;stroke-linecap:round;stroke-linejoin:round;stroke-miterlimit:10;}
	.st37{fill:#FFFFFF;stroke:#FFFFFF;stroke-width:3;stroke-miterlimit:10;}
	.st38{display:inline;fill:none;stroke:#000000;stroke-width:15;stroke-linecap:round;stroke-linejoin:round;stroke-miterlimit:10;}
	
		.st39{display:inline;fill:#FFFFFF;stroke:#000000;stroke-width:15;stroke-linecap:round;stroke-linejoin:round;stroke-miterlimit:10;}
	.st40{fill:#FFFFFF;stroke:#000000;stroke-width:15;stroke-linecap:round;stroke-linejoin:round;stroke-miterlimit:10;}
	.st41{fill:#FFFFFF;stroke:#000000;stroke-width:11.7326;stroke-linecap:round;stroke-linejoin:round;stroke-miterlimit:10;}
	.st42{fill:#FFFFFF;stroke:#000000;stroke-width:13.2623;stroke-linecap:round;stroke-linejoin:round;stroke-miterlimit:10;}
	.st43{fill:none;stroke:#000000;stroke-width:16;stroke-linecap:round;stroke-miterlimit:10;}
	.st44{fill:url(#);stroke:#000000;stroke-width:16;stroke-linecap:round;stroke-linejoin:round;stroke-miterlimit:10;}
	.st45{fill:#FFFFFF;stroke:#000000;stroke-width:16;stroke-linecap:round;stroke-miterlimit:10;}
	.st46{fill:#FFFFFF;stroke:#000000;stroke-width:13.2623;stroke-linecap:round;stroke-miterlimit:10;}
	.st47{stroke:#000000;stroke-width:4.5213;stroke-miterlimit:10;}
	.st48{fill:none;stroke:#000000;stroke-width:15.2344;stroke-linecap:round;stroke-linejoin:round;stroke-miterlimit:10;}
	.st49{fill:#FFFFFF;stroke:#000000;stroke-width:15.2344;stroke-linecap:round;stroke-linejoin:round;stroke-miterlimit:10;}
	.st50{stroke:#000000;stroke-width:18.3348;stroke-linecap:round;stroke-miterlimit:10;}
	.st51{fill:none;stroke:#000000;stroke-width:13.497;stroke-linecap:round;stroke-linejoin:round;stroke-miterlimit:10;}
	.st52{font-family:'FoundersGrotesk-Bold';}
	.st53{font-size:20.6105px;}
	.st54{font-size:10.3052px;}
	.st55{font-size:19.2364px;}
	.st56{display:inline;fill:none;stroke:#000000;stroke-width:16;stroke-linecap:round;stroke-linejoin:round;stroke-miterlimit:10;}
	.st57{fill:#FFFFFF;stroke:#000000;stroke-width:13.3058;stroke-linecap:round;stroke-linejoin:round;stroke-miterlimit:10;}
	.st58{fill:#FFFFFF;stroke:#000000;stroke-width:17;stroke-linecap:round;stroke-linejoin:round;stroke-miterlimit:10;}
	.st59{fill:#FFFFFF;stroke:#000000;stroke-width:15.2517;stroke-linecap:round;stroke-linejoin:round;stroke-miterlimit:10;}
	.st60{stroke:#000000;stroke-width:3;stroke-miterlimit:10;}
	.st61{fill:#FFFFFF;stroke:#000000;stroke-width:16.0686;stroke-linecap:round;stroke-linejoin:round;stroke-miterlimit:10;}
	.st62{fill:#FFFFFF;stroke:#000000;stroke-width:15;stroke-linejoin:round;stroke-miterlimit:10;}
	.st63{fill:url(#);stroke:#000000;stroke-width:13.497;stroke-linecap:round;stroke-linejoin:round;stroke-miterlimit:10;}
	.st64{fill:#06A6FF;}
	.st65{fill:#FF0303;}
	.st66{fill:#3DFF06;}
	.st67{fill:#FFF808;}
	.st68{fill:none;stroke:#000000;stroke-width:0;stroke-linecap:round;stroke-linejoin:round;}
</style>
<g id="unexpanded" class="st0">
	<g class="st1">
		<g>
			<g>
				<path class="st16" d="M603.61,441.54c31-30.33,98.76,10.68,66.47,33.33c-32.29,22.66-37.09-57.9-3.97-59.3
					c36.52-1.54,37.67,24.69,37.67,24.69"/>
			</g>
		</g>
		<path class="st17" d="M590.55,590.18c19.08-20.71,30.15-46.17,30.15-75.36c0-79.64-46.25-147.07-183.81-147.22
			c-52.87-0.06-98.71,20.18-123.43,40.91l-51.94-38.23l-6.19,68.11c-42.94,15.12-51.73,47.2-51.73,47.2l-38.33,0.26
			c0,0,0,12.29,0,34.01c0,21.72,17.41,27.35,40.74,28.96c9.44,15.74,22.98,29.18,39.79,41.35"/>
		<g>
			<text transform="matrix(1 0 0 1 383.2617 537.9836)" class="st18 st19">$</text>
		</g>
		<g>
			<g>
				<path class="st21" d="M777.89,207.98c-18.5,11.06-30.73,18.43-31.36,20.4c-17.88,55.95-54.86,84.96-54.86,84.96l-98.55-53.27
					l6.72-69.61l75.22-51.66c0,0,36.81-46.69,103.16-106.68"/>
				<g>
					<polygon class="st22" points="752.62,367.6 411.74,196.45 428.93,158.79 778.21,312.53 					"/>
					<path class="st23" d="M510.65,48.28c-62.43,15.89-85.14,38.22-108.66,88.84c-11.04,23.76-23.07,49.65-23.12,49.75
						c0,0,15.24,11.51,6.79,29.71c-8.46,18.2-22.41,30.48-22.41,30.48L421,273.89c0,0-7.01-17.59,2.9-38.91s33.91-11.43,33.91-11.43
						l23.12-49.75C480.93,173.8,454.59,127.2,510.65,48.28z"/>
					
						<rect x="344.82" y="243.42" transform="matrix(0.9069 0.4214 -0.4214 0.9069 146.8194 -140.8054)" class="st23" width="94.4" height="36.8"/>
				</g>
				<path class="st22" d="M673.99,357.66c-7.49,9.48-20.45,10.62-27.9,3.32c-7.48-7.31-7.91-19.01-1.81-26.74
					c12.11-15.43,21.88-32.51,29.02-50.69c3.65-9.1,13.98-14.52,24.07-11.73c10.06,2.77,15.57,14.45,11.12,25.64
					C699.99,319.05,688.38,339.34,673.99,357.66z"/>
				<path class="st22" d="M637.97,343.6c-7.46,9.32-20.35,10.38-27.82,3.08c-7.5-7.32-7.94-19.03-1.78-26.74
					c13.87-17.28,25-36.55,33.03-57.13c3.6-9.16,13.95-14.58,24.05-11.77c10.07,2.79,15.62,14.38,11.29,25.47
					C667.31,300.68,654.24,323.31,637.97,343.6z"/>
				<path class="st22" d="M603.17,327c-7.46,9.32-20.35,10.38-27.82,3.08c-7.5-7.31-7.94-19.03-1.78-26.74
					c13.84-17.25,24.95-36.49,32.97-57.03c3.59-9.16,13.95-14.57,24.05-11.77c10.07,2.79,15.62,14.38,11.29,25.47
					C632.46,284.15,619.42,306.74,603.17,327z"/>
				<path class="st22" d="M575.01,301.81c-7.46,9.32-20.35,10.38-27.82,3.08c-7.5-7.32-7.95-19.03-1.78-26.74
					c13.87-17.28,25-36.55,33.03-57.13c3.6-9.15,13.95-14.58,24.05-11.77c10.07,2.79,15.62,14.38,11.29,25.47
					C604.35,258.89,591.29,281.52,575.01,301.81z"/>
				<path class="st21" d="M675.05,138.8c-10.65,5.55-63.58,10.06-82.28,20.05c-14.78,7.89-35.73,25.09-48.75,37.63
					c-7.21,6.95-11.72,10.73-14.3,22.42c-2.07,9.38-10.48,33.61-10.52,46.54c-0.02,8.6,8.28,10.11,12.84,9.45
					c10.64-1.55,24.63-8.73,30.66-23.95c4.64-11.72,5.75-16.24,5.75-16.24c26.88-0.67,41.12-12.56,41.12-12.56
					s16.56,12.56,52.02,7.83"/>
			</g>
		</g>
	</g>
	<text transform="matrix(8.979319e-11 -1 1 8.979319e-11 26.8613 443.1503)" class="st1"><tspan x="0" y="0" class="st52 st53">www</tspan><tspan x="45.14" y="0" class="st52 st54"> </tspan><tspan x="46.99" y="0" class="st52 st53">.</tspan><tspan x="51.77" y="0" class="st52 st54"> </tspan><tspan x="53.63" y="0" class="st52 st53">Capitalism</tspan><tspan x="150.43" y="0" class="st52 st55"> </tspan><tspan x="153.9" y="0" class="st52 st53">Is</tspan><tspan x="168.88" y="0" class="st52 st55"> </tspan><tspan x="172.34" y="0" class="st52 st53">A</tspan><tspan x="186.6" y="0" class="st52 st54"> </tspan><tspan x="188.46" y="0" class="st52 st53">Virus</tspan><tspan x="236.15" y="0" class="st52 st54"> </tspan><tspan x="238.01" y="0" class="st52 st53">.</tspan><tspan x="242.79" y="0" class="st52 st54"> </tspan><tspan x="244.64" y="0" class="st52 st53">org</tspan></text>
</g>
<g id="expanded">
	<path d="M665.83,408.83c-9.93,0.42-18.12,6.17-23.31,16.08c-13.71-2.41-26.68-0.15-36.88,6.42c-5.76-9.1-12.64-17.4-20.66-24.87
		c-32.36-30.2-82.19-45.54-148.09-45.61c-0.08,0-0.16,0-0.24,0c-53.61,0-97.99,19.63-123.37,39.15l-47.77-35.15
		c-1.96-1.44-4.55-1.72-6.77-0.72s-3.73,3.12-3.95,5.54l-5.81,63.88c-32.92,12.97-45.82,35.39-50.09,45.32l-33.68,0.23
		c-3.71,0.03-6.7,3.04-6.7,6.75v34.01c0,12.57,5.02,21.93,14.92,27.82c6.84,4.07,15.76,6.45,28.64,7.6
		c9.33,14.53,22.37,27.76,39.76,40.35c1.2,0.87,2.58,1.28,3.95,1.28c2.09,0,4.15-0.97,5.47-2.79c0.87-1.2,1.28-2.58,1.28-3.96
		c0-2.09-0.96-4.15-2.78-5.47c-17.07-12.36-29.49-25.24-37.96-39.35c-1.13-1.89-3.12-3.11-5.32-3.26
		c-28.69-1.98-34.46-9.98-34.46-22.23v-27.31l31.63-0.22c3.02-0.02,5.66-2.05,6.46-4.96c0.08-0.29,8.31-28.83,47.46-42.62
		c2.49-0.88,4.24-3.12,4.48-5.75l5.11-56.19l42.31,31.14c2.51,1.85,5.95,1.74,8.34-0.26c21.65-18.16,65.74-39.33,118.87-39.33
		c0.07,0,0.15,0,0.21,0c62.38,0.07,109.11,14.19,138.89,41.99c25.33,23.63,38.18,56.77,38.18,98.48c0,26.54-9.54,50.36-28.37,70.78
		c-1.2,1.3-1.78,2.94-1.78,4.57c0,1.82,0.72,3.63,2.17,4.96c2.74,2.53,7.01,2.35,9.54-0.39c20.89-22.68,31.94-50.31,31.94-79.93
		c0-27.2-5.09-51.15-15.17-71.62c4.88-3.26,13.42-6.99,25.74-5.34c-3.32,16.08-0.44,36.22,10.8,44.33
		c2.25,1.62,5.85,3.47,10.62,3.47c4.04,0,8.92-1.33,14.52-5.25c11.37-7.98,11.88-17.46,11.17-22.4
		c-1.68-11.68-12.99-22.94-29.16-29.28c2.32-3.38,5.67-6.2,10.43-6.4c28.5-1.22,30.52,16.32,30.65,18.24l13.48-0.59
		C710.51,439.64,708.57,407.05,665.83,408.83z M671.76,459.91c0.18,1.24,0.72,5.03-5.56,9.44c-6.14,4.31-8.65,2.49-9.48,1.89
		c-4.98-3.6-8.14-17.04-5.64-29.93C662.29,445.74,670.82,453.31,671.76,459.91z"/>
	<path d="M430.51,491.61l-5.5-1v-17.75c6,1.75,10.25,6.5,10.62,13.5l16.62-0.5c-0.25-15.75-9.87-25.87-27.25-27.75v-10.12h-9.37
		v9.87c-17.12,1.12-27.62,10.37-27.62,24.87c0,13.37,8.75,20.37,21.25,22.5l6.37,1.12v18c-6.87-1.75-12.12-6.5-12.62-15l-17,0.62
		c0,17.12,12,27.37,29.62,29.12v11.5h9.37v-11.25c16.5-0.88,28.87-9.12,28.87-24.5C453.88,501.99,446.5,494.49,430.51,491.61z
		 M415.63,488.99c-5.87-1.12-9.87-2.87-9.87-7.87c0-5.37,3.5-8.25,9.87-8.87V488.99z M425.01,524.99v-17c6.75,1.12,11,3,11,8.12
		S431.76,524.36,425.01,524.99z"/>
	<path d="M753.06,232.15c3.73-2.96,17.44-11.16,28.62-17.84c3.49-2.09,4.63-6.62,2.54-10.11c-1.38-2.3-3.81-3.57-6.31-3.58
		c-1.29,0-2.6,0.32-3.8,1.04c-30.32,18.13-33.23,20.19-34.6,24.49c-6.58,20.59-15.92,37.43-24.89,50.35l-0.69-0.3
		c-3.23-5.64-8.48-9.78-14.6-11.47c-4.26-1.18-8.57-1.3-12.64-0.52l-1.62-0.71c-0.46-2.34-1.22-4.61-2.3-6.76
		c-3.15-6.29-8.75-10.96-15.36-12.79c-6-1.67-12.21-1.16-17.69,1.05c-0.45-1.64-1.05-3.23-1.81-4.76c-0.32-0.64-0.67-1.26-1.04-1.87
		c4.88-0.02,10.1-0.34,15.7-1.09c4.04-0.54,6.87-4.25,6.33-8.28c-0.54-4.03-4.25-6.87-8.28-6.33c-16.52,2.21-28.34,0.32-35.35-1.64
		c-7.5-2.1-11.23-4.75-11.23-4.75l-4.68-3.55l-4.5,3.76c-0.12,0.1-12.93,10.26-36.58,10.85l-5.6,0.17l-1.37,5.42
		c-0.01,0.04-1.14,4.44-5.45,15.31c-4.89,12.34-16.45,18.15-24.87,19.37c-1.46,0.21-3.35-0.14-4.06-0.75
		c-0.09-0.08-0.35-0.31-0.35-1.39c0.02-8.16,4.17-22.68,7.2-33.29c1.34-4.69,2.5-8.74,3.14-11.67c1.96-8.87,4.81-11.6,11.04-17.57
		l1.18-1.13c13.06-12.58,33.44-29.13,47.11-36.44c9.71-5.18,31.72-9.11,49.41-12.27c13.26-2.36,22.27-4.03,28.15-5.9l-0.23,1.57
		l6.57-4.51l0.69-0.88c0.35-0.45,35.32-44.53,97.35-101.26c1.64-1.5,3.29-3,4.96-4.51c3.02-2.73,3.25-7.39,0.52-10.41
		c-2.73-3.02-7.39-3.25-10.41-0.52c-59.63,53.91-96.04,97.77-102.83,106.13c-4.75,1.75-16.7,3.89-27.36,5.79
		c-19.69,3.51-42.01,7.49-53.77,13.78c-15.55,8.31-37.03,25.95-50.39,38.82l-1.15,1.11c-1.57,1.5-3.05,2.93-4.45,4.4l-45.93-20.22
		l1.38-2.98l-1.76-3.12c-0.24-0.43-23.56-43.61,29.33-118.06l10.98-15.46l-18.37,4.68c-67.71,17.24-90.47,43.61-113.26,92.65
		l-17.93,38.6c-3.14,6.76-5.17,11.12-5.19,11.16l-2.36,5.1l4.48,3.39c0.44,0.33,10.68,8.27,4.67,21.22
		c-1.92,4.12-4.15,7.93-6.43,11.33l-19.3-8.97l-21.41,45.98l98.24,45.64l21.41-45.98l-25.48-11.84c0.7-3.7,1.9-7.7,3.85-11.9
		c6.82-14.68,23.14-8.65,24.95-7.93l6.16,2.54l1.11-2.38l50.39,25.3c-0.61,3.6-0.98,7-0.99,9.97c-0.02,6.48,2.94,10.41,5.43,12.57
		c3.76,3.26,8.68,4.41,12.82,4.41c1.07,0,2.08-0.08,3.02-0.21c0.69-0.1,1.39-0.22,2.1-0.36c-3.19,9.69-0.81,20.88,6.84,28.34
		c4.53,4.42,10.73,6.89,17.2,6.89c0.52,0,1.04-0.02,1.56-0.05c0.41-0.02,0.81-0.06,1.22-0.11c0.31,6.78,3.06,13.46,8.18,18.46
		c4.53,4.42,10.72,6.89,17.2,6.89c0.52,0,1.04-0.02,1.56-0.05c3.09-0.19,6.11-0.93,8.95-2.16c1.28,4.41,3.64,8.55,7.09,11.92
		c4.53,4.42,10.73,6.89,17.2,6.89c0.52,0,1.04-0.02,1.56-0.05c3.69-0.23,7.29-1.24,10.59-2.92c1.35,3.83,3.55,7.41,6.59,10.37
		c4.49,4.4,10.65,6.85,17.09,6.85c0.54,0,1.08-0.02,1.62-0.05c7.76-0.49,15.09-4.44,20.13-10.81l0.01-0.02
		c4.28-5.45,8.32-11.07,12.11-16.85l64.2,32.24l31.96-68.78l-59.65-26.25C737.33,269.31,746.38,252.5,753.06,232.15z M522.52,217.31
		c-0.55,2.5-1.65,6.35-2.93,10.81c-1.12,3.94-2.34,8.19-3.46,12.49l-47.48-23.84l12.51-26.93l43.85,19.3
		C524.05,211.5,523.21,214.17,522.52,217.31z M569.26,297.2L569.26,297.2c-2.42,3.02-5.83,4.87-9.37,5.09
		c-2.93,0.18-5.61-0.77-7.56-2.68c-4.61-4.5-5.13-11.9-1.18-16.84c10.28-12.81,19.09-26.66,26.32-41.32
		c13.21-1.54,23.01-5.5,29.18-8.77C597.5,255.96,584.93,277.67,569.26,297.2z M597.42,322.39L597.42,322.39
		c-2.42,3.02-5.83,4.87-9.37,5.09c-2.93,0.18-5.61-0.77-7.56-2.67c-4.44-4.33-5.07-11.34-1.6-16.27c0.65-0.67,1.28-1.37,1.87-2.11
		c15.45-19.26,28.05-40.52,37.54-63.26c2.03-1.27,4.42-1.98,6.88-1.98c1.14,0,2.29,0.15,3.42,0.47c2.64,0.73,4.81,2.57,6.12,5.18
		c1.56,3.12,1.66,6.95,0.27,10.51C625.84,280.83,613.2,302.71,597.42,322.39z M632.22,338.99L632.22,338.99
		c-2.42,3.02-5.83,4.87-9.36,5.09c-2.92,0.17-5.61-0.77-7.56-2.68c-3.99-3.89-4.91-9.94-2.54-14.7c1.94-2.54,3.83-5.11,5.67-7.71
		c12.34-16.4,22.37-34.36,29.83-53.48c1.88-4.79,6.69-7.83,11.79-7.83c1.14,0,2.29,0.15,3.42,0.47c2.64,0.73,4.81,2.57,6.12,5.18
		c1.56,3.12,1.66,6.95,0.27,10.51C660.69,297.36,648.03,319.28,632.22,338.99z M668.2,353.09c-2.45,3.1-5.91,5-9.5,5.23
		c-2.9,0.19-5.55-0.74-7.47-2.62c-3.5-3.42-4.63-8.56-3.22-13.02c13.9-18.3,25.31-38.29,33.99-59.55c2.41-2.92,6.12-4.67,9.98-4.67
		c1.13,0,2.27,0.15,3.4,0.46c2.6,0.72,4.74,2.54,6.02,5.13c1.57,3.16,1.65,7.05,0.2,10.7C693.38,315.73,682.13,335.35,668.2,353.09z
		 M768.35,316.25l-19.21,41.35l-49.47-24.84c6.01-10.45,11.25-21.34,15.67-32.58c0.84-2.12,1.42-4.3,1.75-6.5L768.35,316.25z"/>
	<polygon points="17.67,439.82 17.67,443.14 26.86,440.23 26.86,436.96 21.67,435.62 21.67,435.53 26.86,434.19 26.86,430.92 
		17.8,428.05 26.86,425.19 26.86,421.91 21.67,420.57 21.67,420.49 26.86,419.15 26.86,415.87 17.8,413.01 26.86,410.14 
		26.86,406.86 21.67,405.52 21.67,405.44 26.86,404.1 26.86,400.82 17.67,397.92 17.67,400.93 22.88,402.58 22.88,402.66 17.67,404 
		17.67,406.66 22.88,408 22.88,408.08 17.67,409.73 17.67,412.96 17.67,413.05 17.67,415.97 22.88,417.62 22.88,417.71 
		17.67,419.04 17.67,421.7 22.88,423.04 22.88,423.13 17.67,424.78 17.67,428.01 17.67,428.09 17.67,431.02 22.88,432.67 
		22.88,432.75 17.67,434.09 17.67,436.75 22.88,438.09 22.88,438.17 	"/>
	<rect x="23.32" y="391.94" width="3.55" height="3.55"/>
	<path d="M20.37,389.06c4,0,6.74-2.87,6.74-6.66c0-3.98-2.51-6.1-5.75-6.35l-0.14,3.36c1.44,0.21,2.78,0.99,2.78,3.01
		c0,1.92-1.42,3.03-3.63,3.03s-3.63-1.11-3.63-3.03c0-2.02,1.34-2.8,2.78-3.01l-0.12-3.36c-3.24,0.25-5.77,2.37-5.77,6.35
		C13.63,386.19,16.37,389.06,20.37,389.06z"/>
	<path d="M27.07,366.96c0-0.95-0.27-1.61-0.6-2.08H24.7c0.1,0.27,0.14,0.47,0.14,0.74c0,0.35-0.21,0.56-0.68,0.56h-3.13
		c-2.56,0-3.61,1.79-3.61,4.23c0,2.76,1.4,4.27,3.42,4.56l0.21-3.09c-0.68-0.14-1.15-0.52-1.15-1.26c0-0.8,0.45-1.15,1.22-1.15h0.14
		l0.43,2.58c0.35,2,1.11,3.28,2.89,3.28c1.57,0,2.49-1.17,2.49-2.97c0-1.46-0.56-2.52-1.63-3.05
		C26.49,368.98,27.07,368.1,27.07,366.96z M24.14,372.1c-0.6,0-0.85-0.47-1.01-1.28l-0.25-1.36h0.14c1.2,0,1.9,0.76,1.9,1.71
		C24.92,371.72,24.61,372.1,24.14,372.1z"/>
	<path d="M30.16,360.57h-4.86c1.07-0.45,1.81-1.48,1.81-3.03c0-2.7-2.12-4.08-4.84-4.08c-2.7,0-4.84,1.38-4.84,4.08
		c0,1.55,0.74,2.58,1.83,3.03h-1.59v3.34h12.49V360.57z M22.33,360.57H22.2c-1.32,0-2.18-0.72-2.18-1.86c0-1.3,0.93-1.9,2.25-1.9
		c1.34,0,2.27,0.6,2.27,1.9C24.53,359.85,23.67,360.57,22.33,360.57z"/>
	<rect x="13.87" y="348.79" width="2.93" height="3.38"/>
	<rect x="17.67" y="348.81" width="9.19" height="3.34"/>
	<path d="M15.13,345.47l1.2,0.31c0.85,0.23,1.34,0.52,1.48,1.44l0.1,0.68h2.06v-1.24h4.33c2.16,0,2.8-1.46,2.8-3.01
		c0-1.26-0.31-2.06-0.82-2.76h-2.16c0.23,0.56,0.31,1.01,0.31,1.42c0,0.68-0.31,1.05-1.09,1.05h-3.36v-2.39h-2.31v2.39h-2.54V345.47
		z"/>
	<path d="M24.16,331.02h-3.13c-2.56,0-3.61,1.79-3.61,4.23c0,2.76,1.4,4.27,3.42,4.56l0.21-3.09c-0.68-0.14-1.15-0.52-1.15-1.26
		c0-0.8,0.45-1.15,1.22-1.15h0.14l0.43,2.58c0.35,2,1.11,3.28,2.89,3.28c1.57,0,2.49-1.17,2.49-2.97c0-1.46-0.56-2.52-1.63-3.05
		c1.05-0.31,1.63-1.2,1.63-2.33c0-0.95-0.27-1.61-0.6-2.08H24.7c0.1,0.27,0.14,0.47,0.14,0.74
		C24.84,330.81,24.63,331.02,24.16,331.02z M24.92,336.01c0,0.56-0.31,0.93-0.78,0.93c-0.6,0-0.85-0.47-1.01-1.28l-0.25-1.36h0.14
		C24.22,334.3,24.92,335.06,24.92,336.01z"/>
	<rect x="13.87" y="325.41" width="12.99" height="3.34"/>
	<rect x="13.87" y="320.24" width="2.93" height="3.38"/>
	<rect x="17.67" y="320.26" width="9.19" height="3.34"/>
	<path d="M20.53,318.92c1.88,0,2.6-1.17,2.95-3.4l0.21-1.36c0.1-0.64,0.35-0.85,0.7-0.85c0.37,0,0.64,0.39,0.64,1.13
		c0,1.01-0.43,1.63-1.2,1.75l0.04,2.91c2.23-0.19,3.24-2.08,3.24-4.62c0-2.62-1.11-4.27-3.05-4.27c-1.79,0-2.72,1.2-3.05,3.26
		l-0.31,1.79c-0.04,0.31-0.21,0.56-0.52,0.56c-0.41,0-0.66-0.37-0.66-1.01c0-1.03,0.41-1.61,1.07-1.73l-0.08-2.74
		c-1.92,0.19-3.09,1.75-3.09,4.41C17.42,317.33,18.72,318.92,20.53,318.92z"/>
	<path d="M17.42,302.74c0,1.38,0.62,2.37,1.63,2.87h-1.38v3.34h9.19v-3.34h-4.51c-1.38,0-2.29-0.39-2.29-1.48
		c0-1.01,0.66-1.26,1.92-1.26h4.89v-3.34h-4.51c-1.38,0-2.29-0.37-2.29-1.48c0-1.01,0.66-1.24,1.92-1.24h4.89v-3.34h-5.77
		c-1.92,0-3.67,0.74-3.67,3.28c0,1.55,0.78,2.64,1.81,3.13C18.16,300.27,17.42,301.11,17.42,302.74z"/>
	<rect x="13.87" y="284.71" width="12.99" height="3.5"/>
	<path d="M23.83,280.57l0.04,2.91c2.23-0.19,3.24-2.08,3.24-4.62c0-2.62-1.11-4.27-3.05-4.27c-1.79,0-2.72,1.2-3.05,3.26l-0.31,1.79
		c-0.04,0.31-0.21,0.56-0.52,0.56c-0.41,0-0.66-0.37-0.66-1.01c0-1.03,0.41-1.61,1.07-1.73l-0.08-2.74
		c-1.92,0.19-3.09,1.75-3.09,4.41c0,2.58,1.3,4.16,3.11,4.16c1.88,0,2.6-1.18,2.95-3.4l0.21-1.36c0.1-0.64,0.35-0.85,0.7-0.85
		c0.37,0,0.64,0.39,0.64,1.13C25.03,279.82,24.59,280.44,23.83,280.57z"/>
	<path d="M13.87,265.58l12.99,5.17v-3.52l-2.51-0.97v-5.07l2.51-0.97v-3.73l-12.99,5.17V265.58z M17.89,263.69l3.83-1.48v3.05
		l-3.83-1.48V263.69z"/>
	<polygon points="13.87,250.97 13.87,254.64 26.86,249.65 26.86,245.96 13.87,240.97 13.87,244.46 22.51,247.67 22.51,247.75 	"/>
	<rect x="13.87" y="236.71" width="2.93" height="3.38"/>
	<rect x="17.67" y="236.73" width="9.19" height="3.34"/>
	<path d="M19.3,231.58h-1.63v3.34h9.19v-3.34h-4.21c-1.55,0-2.12-0.76-2.12-2c0-0.64,0.12-1.13,0.39-1.59l-3.15-0.21
		c-0.19,0.23-0.35,0.72-0.35,1.28C17.42,230.28,18.27,231.25,19.3,231.58z"/>
	<path d="M22.57,223.52h-4.91v3.34h5.79c1.92,0,3.65-0.76,3.65-3.28c0-1.38-0.6-2.39-1.63-2.89h1.38v-3.34h-9.19v3.34h4.51
		c1.4,0,2.31,0.41,2.31,1.46C24.49,223.17,23.81,223.52,22.57,223.52z"/>
	<path d="M20.53,216.02c1.88,0,2.6-1.18,2.95-3.4l0.21-1.36c0.1-0.64,0.35-0.85,0.7-0.85c0.37,0,0.64,0.39,0.64,1.13
		c0,1.01-0.43,1.63-1.2,1.75l0.04,2.91c2.23-0.19,3.24-2.08,3.24-4.62c0-2.62-1.11-4.27-3.05-4.27c-1.79,0-2.72,1.2-3.05,3.26
		l-0.31,1.79c-0.04,0.31-0.21,0.56-0.52,0.56c-0.41,0-0.66-0.37-0.66-1.01c0-1.03,0.41-1.61,1.07-1.73l-0.08-2.74
		c-1.92,0.19-3.09,1.75-3.09,4.41C17.42,214.43,18.72,216.02,20.53,216.02z"/>
	<rect x="23.32" y="200.93" width="3.55" height="3.55"/>
	<path d="M22.26,198.04c2.87,0,4.84-2.02,4.84-5.03c0-2.99-1.98-5.03-4.84-5.03c-2.84,0-4.84,2.04-4.84,5.03
		C17.42,196.02,19.42,198.04,22.26,198.04z M22.26,191.34c1.38,0,2.33,0.52,2.33,1.67c0,1.17-0.95,1.67-2.33,1.67
		s-2.33-0.49-2.33-1.67C19.93,191.86,20.88,191.34,22.26,191.34z"/>
	<path d="M17.77,179.53c-0.19,0.23-0.35,0.72-0.35,1.28c0,1.22,0.85,2.19,1.88,2.52h-1.63v3.34h9.19v-3.34h-4.21
		c-1.55,0-2.12-0.76-2.12-2c0-0.64,0.12-1.13,0.39-1.59L17.77,179.53z"/>
	<path d="M20.57,169.93c-0.43,0-0.83,0.1-1.18,0.29c-0.1-0.45-0.14-0.95-0.14-1.34h-2.52c0,1.01,0.66,2.02,1.42,2.58
		c-0.47,0.78-0.74,1.83-0.74,2.95c0,2.58,1.2,4.43,3.15,4.43c1.01,0,1.79-0.49,2.33-1.32c0.37,0.99,1.05,1.57,1.94,1.57
		c0.78,0,1.53-0.49,1.79-1.32c0.08,1.03,0.72,1.75,1.53,1.75c1.73,0,2.25-2.27,2.25-4.89c0-2.99-1.05-5.77-3.34-5.77
		c-1.55,0-2.64,1.05-2.64,3.13v3.81c0,0.56-0.25,0.78-0.56,0.78c-0.19,0-0.33-0.06-0.43-0.19c0.19-0.6,0.27-1.26,0.27-2
		C23.71,171.8,22.51,169.93,20.57,169.93z M20.57,175.33c-0.8,0-1.32-0.41-1.32-0.97c0-0.56,0.52-0.97,1.32-0.97
		c0.82,0,1.34,0.41,1.34,0.97C21.91,174.92,21.4,175.33,20.57,175.33z M27.27,172.77c0-0.56,0.14-0.85,0.54-0.85
		c0.56,0,0.87,1.13,0.87,2.68c0,1.24-0.19,2.16-0.85,2.16c-0.35,0-0.56-0.25-0.56-0.62V172.77z"/>
</g>
</svg>
