<?xml version="1.0" encoding="utf-8"?>
<!-- Generator: Adobe Illustrator 23.1.1, SVG Export Plug-In . SVG Version: 6.00 Build 0)  -->
<svg version="1.1" xmlns="http://www.w3.org/2000/svg" xmlns:xlink="http://www.w3.org/1999/xlink" x="0px" y="0px"
	 viewBox="0 0 792 612" style="enable-background:new 0 0 792 612;" xml:space="preserve">
<style type="text/css">
	.st0{display:none;}
	.st1{display:inline;}
	
		.st2{display:inline;fill:#FFFFFF;stroke:#000000;stroke-width:16;stroke-linecap:round;stroke-linejoin:round;stroke-miterlimit:10;}
	.st3{fill:#FFFFFF;stroke:#000000;stroke-width:16;stroke-linecap:round;stroke-linejoin:round;stroke-miterlimit:10;}
	.st4{display:inline;fill:none;stroke:#000000;stroke-width:24;stroke-linejoin:round;stroke-miterlimit:10;}
	.st5{display:inline;fill:#FFFFFF;}
	.st6{fill:#FFFFFF;stroke:#000000;stroke-width:17;stroke-linecap:round;stroke-miterlimit:10;}
	.st7{fill:#FFFFFF;stroke:#000000;stroke-width:17;stroke-miterlimit:10;}
	.st8{stroke:#000000;stroke-width:16.0572;stroke-linecap:round;stroke-miterlimit:10;}
	.st9{fill:#FFFFFF;}
	.st10{fill:#FFFFFF;stroke:#000000;stroke-width:17.1072;stroke-linecap:round;stroke-linejoin:round;stroke-miterlimit:10;}
	.st11{stroke:#000000;stroke-width:17.1072;stroke-linecap:round;stroke-linejoin:round;stroke-miterlimit:10;}
	.st12{fill:#FFFFFF;stroke:#000000;stroke-width:14.7375;stroke-linecap:round;stroke-linejoin:round;stroke-miterlimit:10;}
	.st13{fill:none;stroke:#000000;stroke-width:14.7375;stroke-linecap:round;stroke-linejoin:round;stroke-miterlimit:10;}
	.st14{stroke:#000000;stroke-width:14.7375;stroke-linecap:round;stroke-linejoin:round;stroke-miterlimit:10;}
	.st15{fill:#FFFFFF;stroke:#000000;stroke-width:14.2911;stroke-linecap:round;stroke-linejoin:round;stroke-miterlimit:10;}
	.st16{fill:none;stroke:#000000;stroke-width:13.497;stroke-miterlimit:10;}
	.st17{fill:#FFFFFF;stroke:#000000;stroke-width:13.497;stroke-linecap:round;stroke-linejoin:round;stroke-miterlimit:10;}
	.st18{fill:#FFFFFF;stroke:#000000;stroke-width:13.497;stroke-miterlimit:10;}
	.st19{fill:#FFFFFF;stroke:#000000;stroke-width:14.7439;stroke-linecap:round;stroke-miterlimit:10;}
	.st20{fill:#FFFFFF;stroke:#000000;stroke-width:14.7439;stroke-miterlimit:10;}
	.st21{stroke:#000000;stroke-width:13.9262;stroke-linecap:round;stroke-miterlimit:10;}
	
		.st22{display:inline;fill:#FFFFFF;stroke:#000000;stroke-width:14.6942;stroke-linecap:round;stroke-linejoin:round;stroke-miterlimit:10;}
	.st23{fill:#FFFFFF;stroke:#000000;stroke-width:14.6942;stroke-linecap:round;stroke-linejoin:round;stroke-miterlimit:10;}
	.st24{fill:none;stroke:#000000;stroke-width:24;stroke-linejoin:round;stroke-miterlimit:10;}
	.st25{fill:none;stroke:#000000;stroke-width:30.5612;stroke-linecap:round;stroke-linejoin:round;stroke-miterlimit:10;}
	.st26{fill:#FFFFFF;stroke:#000000;stroke-width:16.2993;stroke-linecap:round;stroke-linejoin:round;stroke-miterlimit:10;}
	.st27{display:inline;fill:#FFFFFF;stroke:#000000;stroke-width:13.497;stroke-linecap:round;stroke-miterlimit:10;}
	
		.st28{display:inline;fill:none;stroke:#000000;stroke-width:13.497;stroke-linecap:round;stroke-linejoin:round;stroke-miterlimit:10;}
	
		.st29{display:inline;fill:#FFFFFF;stroke:#000000;stroke-width:13.497;stroke-linecap:round;stroke-linejoin:round;stroke-miterlimit:10;}
	
		.st30{display:inline;fill:url(#);stroke:#000000;stroke-width:13.497;stroke-linecap:round;stroke-linejoin:round;stroke-miterlimit:10;}
	.st31{fill:#FFFFFF;stroke:#000000;stroke-width:15.2362;stroke-linecap:round;stroke-linejoin:round;stroke-miterlimit:10;}
	.st32{fill:#FFFFFF;stroke:#000000;stroke-width:14.8467;stroke-linecap:round;stroke-linejoin:round;stroke-miterlimit:10;}
	.st33{stroke:#000000;stroke-width:20.1683;stroke-linecap:round;stroke-miterlimit:10;}
	.st34{fill:none;stroke:#000000;stroke-width:14.8467;stroke-linecap:round;stroke-linejoin:round;stroke-miterlimit:10;}
	.st35{fill:#FFFFFF;stroke:#FFFFFF;stroke-width:3;stroke-miterlimit:10;}
	.st36{display:inline;fill:none;stroke:#000000;stroke-width:15;stroke-linecap:round;stroke-linejoin:round;stroke-miterlimit:10;}
	
		.st37{display:inline;fill:#FFFFFF;stroke:#000000;stroke-width:15;stroke-linecap:round;stroke-linejoin:round;stroke-miterlimit:10;}
	.st38{fill:#FFFFFF;stroke:#000000;stroke-width:15;stroke-linecap:round;stroke-linejoin:round;stroke-miterlimit:10;}
	.st39{fill:#FFFFFF;stroke:#000000;stroke-width:11.7326;stroke-linecap:round;stroke-linejoin:round;stroke-miterlimit:10;}
	.st40{fill:#FFFFFF;stroke:#000000;stroke-width:13.2623;stroke-linecap:round;stroke-linejoin:round;stroke-miterlimit:10;}
	.st41{fill:none;stroke:#000000;stroke-width:16;stroke-linecap:round;stroke-miterlimit:10;}
	.st42{fill:url(#);stroke:#000000;stroke-width:16;stroke-linecap:round;stroke-linejoin:round;stroke-miterlimit:10;}
	.st43{fill:#FFFFFF;stroke:#000000;stroke-width:16;stroke-linecap:round;stroke-miterlimit:10;}
	.st44{fill:#FFFFFF;stroke:#000000;stroke-width:13.2623;stroke-linecap:round;stroke-miterlimit:10;}
	.st45{stroke:#000000;stroke-width:4.5213;stroke-miterlimit:10;}
	.st46{fill:none;stroke:#000000;stroke-width:15.2344;stroke-linecap:round;stroke-linejoin:round;stroke-miterlimit:10;}
	.st47{fill:#FFFFFF;stroke:#000000;stroke-width:15.2344;stroke-linecap:round;stroke-linejoin:round;stroke-miterlimit:10;}
	.st48{stroke:#000000;stroke-width:18.3348;stroke-linecap:round;stroke-miterlimit:10;}
	.st49{fill:none;stroke:#000000;stroke-width:13.497;stroke-linecap:round;stroke-linejoin:round;stroke-miterlimit:10;}
	.st50{font-family:'FoundersGrotesk-Bold';}
	.st51{font-size:20.6105px;}
	.st52{font-size:10.3052px;}
	.st53{font-size:19.2364px;}
	.st54{display:inline;fill:none;stroke:#000000;stroke-width:16;stroke-linecap:round;stroke-linejoin:round;stroke-miterlimit:10;}
	.st55{fill:#FFFFFF;stroke:#000000;stroke-width:13.3058;stroke-linecap:round;stroke-linejoin:round;stroke-miterlimit:10;}
	.st56{fill:#FFFFFF;stroke:#000000;stroke-width:17;stroke-linecap:round;stroke-linejoin:round;stroke-miterlimit:10;}
	.st57{fill:#FFFFFF;stroke:#000000;stroke-width:15.2517;stroke-linecap:round;stroke-linejoin:round;stroke-miterlimit:10;}
	.st58{stroke:#000000;stroke-width:3;stroke-miterlimit:10;}
	.st59{fill:#FFFFFF;stroke:#000000;stroke-width:16.0686;stroke-linecap:round;stroke-linejoin:round;stroke-miterlimit:10;}
	.st60{fill:#FFFFFF;stroke:#000000;stroke-width:15;stroke-linejoin:round;stroke-miterlimit:10;}
	.st61{fill:url(#);stroke:#000000;stroke-width:13.497;stroke-linecap:round;stroke-linejoin:round;stroke-miterlimit:10;}
	.st62{fill:#06A6FF;}
	.st63{fill:#FF0303;}
	.st64{fill:#3DFF06;}
	.st65{fill:#FFF808;}
	.st66{fill:none;stroke:#000000;stroke-width:0;stroke-linecap:round;stroke-linejoin:round;}
</style>
<g id="unexpanded" class="st0">
	<g class="st1">
		<g>
			<g>
				<g>
					<path class="st9" d="M618.44,78.68c0,0-38.64,17.14-13.75,52.69s47.17,36.03,59.67,34.37c12.51-1.66,83.32,77.84,103.72,99.05
						l0.35-86.9"/>
					<g>
						<path class="st9" d="M625.25,140c6.56,1.61,13.26-2.7,14.97-9.64c1.71-6.94-2.23-13.87-8.79-15.48l-43.5-10.69
							c-6.56-1.61-13.26,2.7-14.97,9.64c-1.71,6.94,2.23,13.87,8.79,15.48L625.25,140z"/>
						<path class="st9" d="M631.42,114.88c6.56,1.61,13.26-2.7,14.97-9.64c1.71-6.94-2.23-13.87-8.79-15.48L587,77.31
							c-6.56-1.61-13.26,2.7-14.97,9.64c-1.71,6.94,2.23,13.87,8.79,15.48L631.42,114.88z"/>
						<path class="st9" d="M643.74,64.75c6.56,1.61,13.26-2.7,14.97-9.64c1.71-6.94-2.23-13.87-8.79-15.48l-50.6-12.44
							c-6.56-1.61-13.26,2.7-14.97,9.64c-1.71,6.94,2.23,13.87,8.79,15.48L643.74,64.75z"/>
						<path class="st9" d="M637.57,89.87c6.56,1.61,13.26-2.7,14.97-9.64c1.71-6.94-2.23-13.87-8.79-15.48l-57.7-14.18
							c-6.56-1.61-13.26,2.7-14.97,9.64c-1.71,6.94,2.23,13.87,8.79,15.48L637.57,89.87z"/>
					</g>
				</g>
				<g>
					<path class="st39" d="M618.44,78.68c0,0-38.64,17.14-13.75,52.69s47.07,34.9,59.67,34.37c17.99-0.76,46.09,32.91,106.08,98.54"
						/>
					<g>
						<path class="st39" d="M625.25,140c6.56,1.61,13.26-2.7,14.97-9.64c1.71-6.94-2.23-13.87-8.79-15.48l-43.5-10.69
							c-6.56-1.61-13.26,2.7-14.97,9.64c-1.71,6.94,2.23,13.87,8.79,15.48L625.25,140z"/>
						<path class="st39" d="M631.42,114.88c6.56,1.61,13.26-2.7,14.97-9.64c1.71-6.94-2.23-13.87-8.79-15.48L587,77.31
							c-6.56-1.61-13.26,2.7-14.97,9.64c-1.71,6.94,2.23,13.87,8.79,15.48L631.42,114.88z"/>
						<path class="st39" d="M643.74,64.75c6.56,1.61,13.26-2.7,14.97-9.64c1.71-6.94-2.23-13.87-8.79-15.48l-50.6-12.44
							c-6.56-1.61-13.26,2.7-14.97,9.64c-1.71,6.94,2.23,13.87,8.79,15.48L643.74,64.75z"/>
						<path class="st39" d="M637.57,89.87c6.56,1.61,13.26-2.7,14.97-9.64c1.71-6.94-2.23-13.87-8.79-15.48l-57.7-14.18
							c-6.56-1.61-13.26,2.7-14.97,9.64c-1.71,6.94,2.23,13.87,8.79,15.48L637.57,89.87z"/>
					</g>
					<path class="st9" d="M767.87,156.15l2.59,98.13l-94.53-125.56c0,0-34.38-20.21-18.84-57.8c-3.49-0.92-7.62-2.03-7.62-2.03
						s-3.86,9.65-14.34,11.85c-10.48,2.21-16.68-2.07-16.68-2.07s12.13-34.46,14.47-40.11c2.34-5.65,8.27-8.27,18.06-7.03
						c9.79,1.24,40.8,4.69,51,15.99c10.2,11.3,10.34,43.42,15.16,53.48C720.65,108.34,714.37,104.95,767.87,156.15z"/>
					<path class="st39" d="M675.92,128.72c0,0-34.38-20.21-18.84-57.8c-3.49-0.92-7.62-2.03-7.62-2.03s-3.86,9.65-14.34,11.85
						c-10.48,2.21-16.68-2.07-16.68-2.07s12.13-34.46,14.47-40.11s8.27-8.27,18.06-7.03c9.79,1.24,40.8,4.69,51,15.99
						c10.2,11.3,12.1,42.75,15.16,53.48c2.63,9.22,21.41,28.06,50.73,55.14"/>
				</g>
			</g>
			<line class="st39" x1="647.81" y1="80.87" x2="639.85" y2="83.84"/>
		</g>
		<g>
			<g>
				<g>
					<path class="st9" d="M380.56,355.48c0,0-41.57-7.69-41.11,35.71s18.57,56.38,29.82,62.07c11.26,5.7,27.07,112.44,31.92,141.47
						l50.5-9.45"/>
					<g>
						<path class="st9" d="M351.53,409.92c4.5,5.04,12.47,5.26,17.8,0.5s5.99-12.71,1.49-17.74l-29.86-33.4
							c-4.5-5.04-12.47-5.26-17.8-0.5c-5.33,4.76-5.99,12.71-1.49,17.74L351.53,409.92z"/>
						<path class="st9" d="M370.82,392.68c4.5,5.04,12.47,5.26,17.8,0.5c5.33-4.76,5.99-12.71,1.49-17.74l-34.73-38.85
							c-4.5-5.04-12.47-5.26-17.8-0.5c-5.33,4.76-5.99,12.71-1.49,17.74L370.82,392.68z"/>
						<path class="st9" d="M409.31,358.28c4.5,5.04,12.47,5.26,17.8,0.5s5.99-12.71,1.49-17.74l-34.73-38.85
							c-4.5-5.04-12.47-5.26-17.8-0.5c-5.33,4.76-5.99,12.71-1.49,17.74L409.31,358.28z"/>
						<path class="st9" d="M390.02,375.52c4.5,5.04,12.47,5.26,17.8,0.5c5.33-4.76,5.99-12.71,1.49-17.74l-39.6-44.3
							c-4.5-5.04-12.47-5.26-17.8-0.5s-5.99,12.71-1.49,17.74L390.02,375.52z"/>
					</g>
				</g>
				<g>
					<path class="st39" d="M380.56,355.48c0,0-41.57-7.69-41.11,35.71s19.12,55.39,29.82,62.07c15.42,9.62,19.52,54.03,32.22,143.76
						"/>
					<g>
						<path class="st39" d="M351.53,409.92c4.5,5.04,12.47,5.26,17.8,0.5s5.99-12.71,1.49-17.74l-29.86-33.4
							c-4.5-5.04-12.47-5.26-17.8-0.5c-5.33,4.76-5.99,12.71-1.49,17.74L351.53,409.92z"/>
						<path class="st39" d="M370.82,392.68c4.5,5.04,12.47,5.26,17.8,0.5c5.33-4.76,5.99-12.71,1.49-17.74l-34.73-38.85
							c-4.5-5.04-12.47-5.26-17.8-0.5c-5.33,4.76-5.99,12.71-1.49,17.74L370.82,392.68z"/>
						<path class="st39" d="M409.31,358.28c4.5,5.04,12.47,5.26,17.8,0.5s5.99-12.71,1.49-17.74l-34.73-38.85
							c-4.5-5.04-12.47-5.26-17.8-0.5c-5.33,4.76-5.99,12.71-1.49,17.74L409.31,358.28z"/>
						<path class="st39" d="M390.02,375.52c4.5,5.04,12.47,5.26,17.8,0.5c5.33-4.76,5.99-12.71,1.49-17.74l-39.6-44.3
							c-4.5-5.04-12.47-5.26-17.8-0.5s-5.99,12.71-1.49,17.74L390.02,375.52z"/>
					</g>
					<path class="st9" d="M484.61,579.12l-63.05,11.8l-21.84-161.68c0,0-16.95-36.1,17.1-58.34c-2.36-2.73-5.15-5.98-5.15-5.98
						s-8.64,5.78-18.53,1.68c-9.89-4.1-12.59-11.13-12.59-11.13s29.48-21.58,34.6-24.92c5.13-3.34,11.5-2.15,18.87,4.4
						c7.37,6.55,31.02,26.92,33.05,42.01c2.03,15.09-16,41.67-17.7,52.7C448.14,437.7,469.4,506.65,484.61,579.12z"/>
					<path class="st39" d="M399.72,429.24c0,0-16.95-36.1,17.1-58.34c-2.36-2.73-5.15-5.98-5.15-5.98s-8.64,5.78-18.53,1.68
						s-12.59-11.13-12.59-11.13s29.48-21.58,34.6-24.92c5.13-3.34,11.5-2.15,18.87,4.4c7.37,6.55,31.02,26.92,33.05,42.01
						c2.03,15.09-14.16,42.11-17.7,52.7c-4.98,14.89,11.23,75.56,31.65,163.08"/>
				</g>
			</g>
			<line class="st39" x1="403.55" y1="373.88" x2="395.31" y2="371.83"/>
		</g>
		<g>
			<g>
				<g>
					<path class="st9" d="M630.3,254.1c0,0-41.29,9.06-24.01,48.88c17.28,39.81,39.01,44.74,51.59,45.61
						c-15.31-1.06,96.56,151.18,111.07,174.11l17.29-78.45"/>
					<g>
						<path class="st9" d="M624.71,315.54c6.11,2.89,13.54,0,16.59-6.45s0.59-14.04-5.52-16.93l-40.48-19.18
							c-6.11-2.89-13.54,0-16.59,6.45s-0.59,14.04,5.52,16.93L624.71,315.54z"/>
						<path class="st9" d="M635.78,292.16c6.11,2.89,13.54,0,16.59-6.45s0.59-14.04-5.52-16.93l-47.09-22.31
							c-6.11-2.89-13.54,0-16.59,6.45c-3.06,6.46-0.59,14.04,5.52,16.93L635.78,292.16z"/>
						<path class="st9" d="M657.88,245.51c6.11,2.89,13.54,0,16.59-6.45s0.59-14.04-5.52-16.93l-47.09-22.31
							c-6.11-2.89-13.54,0-16.59,6.45s-0.59,14.04,5.52,16.93L657.88,245.51z"/>
						<path class="st9" d="M646.81,268.89c6.11,2.89,13.54,0,16.59-6.45c3.06-6.46,0.59-14.04-5.52-16.93l-53.7-25.44
							c-6.11-2.89-13.54,0-16.59,6.45s-0.59,14.04,5.52,16.93L646.81,268.89z"/>
					</g>
				</g>
				<g>
					<path class="st39" d="M630.3,254.1c0,0-41.29,9.06-24.01,48.88c17.28,39.81,39.14,43.61,51.59,45.61
						c21.47,3.44,40.72,59.01,106.92,170.08"/>
					<g>
						<path class="st39" d="M624.71,315.54c6.11,2.89,13.54,0,16.59-6.45s0.59-14.04-5.52-16.93l-40.48-19.18
							c-6.11-2.89-13.54,0-16.59,6.45s-0.59,14.04,5.52,16.93L624.71,315.54z"/>
						<path class="st39" d="M635.78,292.16c6.11,2.89,13.54,0,16.59-6.45s0.59-14.04-5.52-16.93l-47.09-22.31
							c-6.11-2.89-13.54,0-16.59,6.45c-3.06,6.46-0.59,14.04,5.52,16.93L635.78,292.16z"/>
						<path class="st39" d="M657.88,245.51c6.11,2.89,13.54,0,16.59-6.45s0.59-14.04-5.52-16.93l-47.09-22.31
							c-6.11-2.89-13.54,0-16.59,6.45s-0.59,14.04,5.52,16.93L657.88,245.51z"/>
						<path class="st39" d="M646.81,268.89c6.11,2.89,13.54,0,16.59-6.45c3.06-6.46,0.59-14.04-5.52-16.93l-53.7-25.44
							c-6.11-2.89-13.54,0-16.59,6.45s-0.59,14.04,5.52,16.93L646.81,268.89z"/>
					</g>
					<path class="st9" d="M767.7,368.87l18.55,142.4L676.61,314.62c0,0-29.64-26.68-6.9-60.4c-3.23-1.6-7.07-3.51-7.07-3.51
						s-5.71,8.68-16.42,8.75c-10.71,0.07-15.93-5.36-15.93-5.36s18.78-31.34,22.2-36.41s9.76-6.45,19.1-3.28
						c9.34,3.17,39.04,12.75,46.77,25.87c7.73,13.11,1.44,44.61,4.16,55.43C724.51,303.61,725.53,308,767.7,368.87z"/>
					<path class="st39" d="M676.61,314.62c0,0-29.64-26.68-6.9-60.4c-3.23-1.6-7.06-3.51-7.06-3.51s-5.71,8.68-16.42,8.75
						c-10.71,0.07-15.93-5.36-15.93-5.36s18.78-31.34,22.2-36.41c3.43-5.07,9.76-6.45,19.1-3.28c9.34,3.17,39.04,12.75,46.77,25.87
						c7.73,13.11,3.31,44.31,4.16,55.43c0.8,10.42,18.11,35.87,45.16,73.15"/>
				</g>
			</g>
			<line class="st39" x1="658.64" y1="262.12" x2="650.25" y2="263.44"/>
		</g>
		<g>
			<g>
				<g>
					<path class="st9" d="M469.22,205.41c0,0-42.18-2.82-36.7,40.23s24.97,53.84,36.82,58.2c11.84,4.35,78.35,265.79,86.52,294.07
						l57.06-15.24"/>
					<g>
						<path class="st9" d="M446.7,262.85c5.06,4.48,13,3.78,17.74-1.57s4.48-13.31-0.58-17.8l-33.52-29.71
							c-5.06-4.48-13-3.78-17.74,1.57c-4.74,5.35-4.48,13.31,0.58,17.8L446.7,262.85z"/>
						<path class="st9" d="M463.86,243.49c5.06,4.48,13,3.78,17.74-1.57c4.74-5.35,4.48-13.31-0.58-17.8l-39-34.56
							c-5.06-4.48-13-3.78-17.74,1.57c-4.74,5.35-4.48,13.31,0.58,17.8L463.86,243.49z"/>
						<path class="st9" d="M498.1,204.86c5.06,4.48,13,3.78,17.74-1.57c4.74-5.35,4.48-13.31-0.58-17.8l-39-34.56
							c-5.06-4.48-13-3.78-17.74,1.57c-4.74,5.35-4.48,13.31,0.58,17.8L498.1,204.86z"/>
						<path class="st9" d="M480.94,224.22c5.06,4.48,13,3.78,17.74-1.57s4.48-13.31-0.58-17.8l-44.47-39.41
							c-5.06-4.48-13-3.78-17.74,1.57c-4.74,5.35-4.48,13.31,0.58,17.8L480.94,224.22z"/>
					</g>
				</g>
				<g>
					<path class="st39" d="M469.22,205.41c0,0-42.18-2.82-36.7,40.23s25.41,52.8,36.82,58.2c24.17,11.43,24.72,100.41,84.51,292.88"
						/>
					<g>
						<path class="st39" d="M446.7,262.85c5.06,4.48,13,3.78,17.74-1.57s4.48-13.31-0.58-17.8l-33.52-29.71
							c-5.06-4.48-13-3.78-17.74,1.57c-4.74,5.35-4.48,13.31,0.58,17.8L446.7,262.85z"/>
						<path class="st39" d="M463.86,243.49c5.06,4.48,13,3.78,17.74-1.57c4.74-5.35,4.48-13.31-0.58-17.8l-39-34.56
							c-5.06-4.48-13-3.78-17.74,1.57c-4.74,5.35-4.48,13.31,0.58,17.8L463.86,243.49z"/>
						<path class="st39" d="M498.1,204.86c5.06,4.48,13,3.78,17.74-1.57c4.74-5.35,4.48-13.31-0.58-17.8l-39-34.56
							c-5.06-4.48-13-3.78-17.74,1.57c-4.74,5.35-4.48,13.31,0.58,17.8L498.1,204.86z"/>
						<path class="st39" d="M480.94,224.22c5.06,4.48,13,3.78,17.74-1.57s4.48-13.31-0.58-17.8l-44.47-39.41
							c-5.06-4.48-13-3.78-17.74,1.57c-4.74,5.35-4.48,13.31,0.58,17.8L480.94,224.22z"/>
					</g>
					<path class="st9" d="M660.91,594.73l-77.26-2.97L496.8,276.46c0,0-21.02-33.89,10.23-59.93c-2.66-2.44-5.81-5.34-5.81-5.34
						s-7.91,6.74-18.21,3.82c-10.3-2.92-13.8-9.59-13.8-9.59s26.78-24.85,31.48-28.76c4.7-3.91,11.17-3.47,19.25,2.18
						c8.08,5.65,33.93,23.14,37.7,37.89c3.77,14.75-11.06,43.24-11.48,54.39C545.87,279.25,637.4,524.52,660.91,594.73z"/>
					<path class="st39" d="M496.8,276.46c0,0-21.02-33.89,10.23-59.93c-2.66-2.44-5.8-5.34-5.8-5.34s-7.91,6.74-18.21,3.82
						c-10.3-2.92-13.8-9.59-13.8-9.59s26.78-24.85,31.48-28.76c4.7-3.91,11.17-3.47,19.25,2.18c8.08,5.65,33.93,23.14,37.7,37.89
						c3.77,14.75-9.19,43.47-11.48,54.39c-4.81,22.92,65.01,163.53,114.23,321.96"/>
				</g>
			</g>
			<line class="st39" x1="494.19" y1="221.02" x2="485.76" y2="219.95"/>
		</g>
		<g>
			<g>
				<g>
					<path class="st9" d="M232.54,286.19c0,0-39.58-14.84-46.72,27.97c-7.14,42.81,8.42,58.75,18.51,66.33
						c10.09,7.58,6.2,183.16,5.9,212.59l51.37-0.48"/>
					<g>
						<path class="st9" d="M194.44,334.72c3.55,5.75,11.36,7.36,17.44,3.6c6.08-3.76,8.12-11.46,4.57-17.21l-23.55-38.1
							c-3.55-5.75-11.36-7.36-17.44-3.6c-6.08,3.76-8.12,11.46-4.57,17.21L194.44,334.72z"/>
						<path class="st9" d="M216.45,321.11c3.55,5.75,11.36,7.36,17.44,3.6c6.08-3.76,8.12-11.46,4.57-17.21l-27.4-44.32
							c-3.55-5.75-11.36-7.36-17.44-3.6c-6.08,3.76-8.12,11.46-4.57,17.21L216.45,321.11z"/>
						<path class="st9" d="M260.36,293.97c3.55,5.75,11.36,7.36,17.44,3.6s8.12-11.46,4.57-17.21l-27.4-44.32
							c-3.55-5.75-11.36-7.36-17.44-3.6c-6.08,3.76-8.12,11.46-4.57,17.21L260.36,293.97z"/>
						<path class="st9" d="M238.35,307.57c3.55,5.75,11.36,7.36,17.44,3.6c6.08-3.76,8.12-11.46,4.57-17.21l-31.24-50.54
							c-3.55-5.75-11.36-7.36-17.44-3.6c-6.08,3.76-8.12,11.46-4.57,17.21L238.35,307.57z"/>
					</g>
				</g>
				<g>
					<path class="st39" d="M232.54,286.19c0,0-39.58-14.84-46.72,27.97c-7.14,42.81,9.14,57.88,18.51,66.33
						c16.41,14.79,7.36,77.23,4.79,212.19"/>
					<g>
						<path class="st39" d="M194.44,334.72c3.55,5.75,11.36,7.36,17.44,3.6c6.08-3.76,8.12-11.46,4.57-17.21l-23.55-38.1
							c-3.55-5.75-11.36-7.36-17.44-3.6c-6.08,3.76-8.12,11.46-4.57,17.21L194.44,334.72z"/>
						<path class="st39" d="M216.45,321.11c3.55,5.75,11.36,7.36,17.44,3.6c6.08-3.76,8.12-11.46,4.57-17.21l-27.4-44.32
							c-3.55-5.75-11.36-7.36-17.44-3.6c-6.08,3.76-8.12,11.46-4.57,17.21L216.45,321.11z"/>
						<path class="st39" d="M260.36,293.97c3.55,5.75,11.36,7.36,17.44,3.6s8.12-11.46,4.57-17.21l-27.4-44.32
							c-3.55-5.75-11.36-7.36-17.44-3.6c-6.08,3.76-8.12,11.46-4.57,17.21L260.36,293.97z"/>
						<path class="st39" d="M238.35,307.57c3.55,5.75,11.36,7.36,17.44,3.6c6.08-3.76,8.12-11.46,4.57-17.21l-31.24-50.54
							c-3.55-5.75-11.36-7.36-17.44-3.6c-6.08,3.76-8.12,11.46-4.57,17.21L238.35,307.57z"/>
					</g>
					<path class="st9" d="M295.09,592.29l-64.15,0.6l7.56-230.72c0,0-10.37-38.5,27.04-54.45c-1.84-3.1-4.02-6.79-4.02-6.79
						s-9.51,4.18-18.53-1.58c-9.02-5.76-10.45-13.16-10.45-13.16s32.8-16.09,38.43-18.49c5.63-2.39,11.7-0.11,17.81,7.63
						s25.83,31.93,25.2,47.14c-0.64,15.21-23.04,38.23-26.64,48.79C284.7,378.96,292.79,518.27,295.09,592.29z"/>
					<path class="st39" d="M238.51,362.16c0,0-10.37-38.5,27.04-54.45c-1.84-3.1-4.02-6.79-4.02-6.79s-9.51,4.18-18.53-1.58
						c-9.02-5.76-10.45-13.16-10.45-13.16s32.8-16.1,38.43-18.49c5.63-2.39,11.7-0.11,17.81,7.63s25.83,31.93,25.2,47.14
						c-0.64,15.21-21.31,38.99-26.64,48.79c-8.97,16.48,0.41,102.58,5.3,221.46"/>
				</g>
			</g>
			<line class="st39" x1="251.96" y1="308.32" x2="244.2" y2="304.87"/>
		</g>
		<g>
			<g>
				<g>
					<path class="st9" d="M85.01,419.38c0,0-38.09-18.33-49.04,23.67s3.12,59.27,12.49,67.72c9.37,8.45-0.65,52.46-3.6,81.74
						l51.21,4.13"/>
					<g>
						<path class="st9" d="M42.72,464.3c3.02,6.04,10.65,8.35,17.04,5.15s9.12-10.69,6.1-16.73l-20.04-40.06
							c-3.02-6.04-10.65-8.35-17.04-5.15s-9.12,10.69-6.1,16.73L42.72,464.3z"/>
						<path class="st9" d="M65.85,452.72c3.02,6.04,10.65,8.35,17.04,5.15c6.39-3.2,9.12-10.69,6.1-16.73l-23.31-46.6
							c-3.02-6.04-10.65-8.35-17.04-5.15s-9.12,10.69-6.1,16.73L65.85,452.72z"/>
						<path class="st9" d="M112.02,429.62c3.02,6.04,10.65,8.35,17.04,5.15c6.39-3.2,9.12-10.69,6.1-16.73l-23.31-46.6
							c-3.02-6.04-10.65-8.35-17.04-5.15c-6.39,3.2-9.12,10.69-6.1,16.73L112.02,429.62z"/>
						<path class="st9" d="M88.88,441.2c3.02,6.04,10.65,8.35,17.04,5.15c6.39-3.2,9.12-10.69,6.1-16.73l-26.58-53.14
							c-3.02-6.04-10.65-8.35-17.04-5.15c-6.39,3.2-9.12,10.69-6.1,16.73L88.88,441.2z"/>
					</g>
				</g>
				<g>
					<path class="st39" d="M85.01,419.38c0,0-38.09-18.33-49.04,23.67s3.91,58.47,12.49,67.72c9.08,9.8,7.32,36.15,1.27,85.15"/>
					<g>
						<path class="st39" d="M42.72,464.3c3.02,6.04,10.65,8.35,17.04,5.15s9.12-10.69,6.1-16.73l-20.04-40.06
							c-3.02-6.04-10.65-8.35-17.04-5.15s-9.12,10.69-6.1,16.73L42.72,464.3z"/>
						<path class="st39" d="M65.85,452.72c3.02,6.04,10.65,8.35,17.04,5.15c6.39-3.2,9.12-10.69,6.1-16.73l-23.31-46.6
							c-3.02-6.04-10.65-8.35-17.04-5.15s-9.12,10.69-6.1,16.73L65.85,452.72z"/>
						<path class="st39" d="M112.02,429.62c3.02,6.04,10.65,8.35,17.04,5.15c6.39-3.2,9.12-10.69,6.1-16.73l-23.31-46.6
							c-3.02-6.04-10.65-8.35-17.04-5.15c-6.39,3.2-9.12,10.69-6.1,16.73L112.02,429.62z"/>
						<path class="st39" d="M88.88,441.2c3.02,6.04,10.65,8.35,17.04,5.15c6.39-3.2,9.12-10.69,6.1-16.73l-26.58-53.14
							c-3.02-6.04-10.65-8.35-17.04-5.15c-6.39,3.2-9.12,10.69-6.1,16.73L88.88,441.2z"/>
					</g>
					<path class="st9" d="M129.46,599.34l-63.94-5.16l18.63-98.59c0,0-6.88-39.28,31.82-51.8c-1.56-3.26-3.4-7.12-3.4-7.12
						s-9.85,3.31-18.32-3.24c-8.47-6.55-9.23-14.04-9.23-14.04s34.11-13.09,39.93-14.97s11.66,0.94,17.05,9.2
						c5.4,8.26,22.87,34.12,20.87,49.21c-2,15.09-26.37,36.01-30.91,46.2C128.64,516.45,133.8,525.41,129.46,599.34z"/>
					<path class="st39" d="M84.14,495.58c0,0-6.88-39.28,31.82-51.8c-1.56-3.25-3.4-7.12-3.4-7.12s-9.85,3.31-18.32-3.24
						c-8.47-6.55-9.23-14.04-9.23-14.04s34.11-13.09,39.93-14.97c5.82-1.88,11.66,0.94,17.05,9.2s22.87,34.11,20.87,49.21
						c-2,15.09-24.72,36.92-30.91,46.2c-5.81,8.71-7.87,39.52-9.57,85.71"/>
				</g>
			</g>
			<line class="st39" x1="102.37" y1="443.17" x2="94.95" y2="439.03"/>
		</g>
	</g>
	<g class="st1">
		<text transform="matrix(8.979319e-11 -1 1 8.979319e-11 26.8613 308.9091)"><tspan x="0" y="0" class="st50 st51">www</tspan><tspan x="45.14" y="0" class="st50 st52"> </tspan><tspan x="46.99" y="0" class="st50 st51">.</tspan><tspan x="51.77" y="0" class="st50 st52"> </tspan><tspan x="53.63" y="0" class="st50 st51">Capitalism</tspan><tspan x="150.43" y="0" class="st50 st53"> </tspan><tspan x="153.9" y="0" class="st50 st51">Is</tspan><tspan x="168.88" y="0" class="st50 st53"> </tspan><tspan x="172.34" y="0" class="st50 st51">A</tspan><tspan x="186.6" y="0" class="st50 st52"> </tspan><tspan x="188.46" y="0" class="st50 st51">Virus</tspan><tspan x="236.15" y="0" class="st50 st52"> </tspan><tspan x="238.01" y="0" class="st50 st51">.</tspan><tspan x="242.79" y="0" class="st50 st52"> </tspan><tspan x="244.64" y="0" class="st50 st51">org</tspan></text>
	</g>
</g>
<g id="expanded">
	<path d="M569.15,126.46c2.47,4.34,6.44,7.38,11.2,8.54l24.11,5.93c21.87,28.09,41.8,31.46,60.16,30.67
		c13.08-0.6,38.85,27.75,81.49,74.66c6.25,6.88,12.91,14.2,20.02,21.98c1.16,1.27,2.74,1.91,4.33,1.91c1.41,0,2.83-0.51,3.96-1.54
		c2.39-2.19,2.56-5.9,0.37-8.29c-2.27-2.48-4.47-4.9-6.65-7.28c-4.64-5.09-9.1-9.99-13.35-14.67
		c-49.48-54.44-72.05-79.28-90.67-78.49c-9.03,0.39-22.75,0.95-39.2-13.95c1.04,0.19,2.07,0.28,3.09,0.28
		c8.22,0,15.78-5.82,17.9-14.45c1.2-4.86,0.43-9.73-1.76-13.74c3.14-2.1,5.68-5.18,7.14-8.93c1.36,3.05,2.93,5.77,4.53,8.13
		c7.31,10.71,16.72,16.32,17.12,16.55c2.79,1.64,6.39,0.71,8.03-2.08c1.64-2.79,0.71-6.39-2.08-8.03
		c-0.07-0.04-7.62-4.62-13.37-13.05c-7.64-11.2-8.66-23.8-3.02-37.45c0.65-1.56,0.59-3.33-0.17-4.85c-0.75-1.52-2.12-2.63-3.76-3.07
		c-3.48-0.92-7.61-2.02-7.61-2.02c-2.86-0.77-5.83,0.68-6.94,3.44c-0.12,0.28-2.97,6.84-10.12,8.34c-3.31,0.69-6.02,0.58-8.03,0.22
		c4.42-12.51,10.89-30.65,12.45-34.41c1.3-3.13,5.3-4.29,11.9-3.46l1.32,0.17c9.34,1.17,37.75,4.72,46.06,13.94
		c6.17,6.83,9.2,25.22,11.2,37.39c0.92,5.59,1.72,10.42,2.67,13.77c2.7,9.47,16.41,24.6,52.39,57.84c1.13,1.04,2.56,1.56,3.98,1.56
		c0.05,0,0.1-0.01,0.16-0.01c1.53-0.04,3.04-0.67,4.16-1.88c2.2-2.38,2.05-6.09-0.33-8.29c-15.03-13.89-46.32-42.78-49.07-52.44
		c-0.77-2.71-1.52-7.23-2.38-12.46c-2.49-15.12-5.59-33.95-14.07-43.34c-9.97-11.04-33.73-15.27-53.32-17.72l-1.3-0.16
		c-9.28-1.18-15.16,0.82-18.89,3.66l-32.1-7.89c-4.76-1.17-9.69-0.33-13.88,2.38c-4.09,2.64-7,6.74-8.18,11.56
		c-0.79,3.2-0.74,6.47,0.08,9.55c-6.33,1.7-11.63,6.84-13.35,13.83c-1.71,6.97,0.58,13.97,5.37,18.41
		c-2.07,2.28-3.63,5.11-4.42,8.34c-1.72,7,0.6,14.01,5.42,18.45c-2.15,2.35-3.71,5.22-4.49,8.42
		C566.07,117.24,566.74,122.23,569.15,126.46z M634.52,128.96c-0.93,3.79-4.46,6.18-7.87,5.35l-43.5-10.69
		c-1.59-0.39-2.94-1.44-3.79-2.94c-0.92-1.62-1.17-3.55-0.7-5.44c0.47-1.89,1.58-3.49,3.14-4.5c1.46-0.94,3.14-1.24,4.73-0.85
		l43.5,10.69C633.43,121.41,635.45,125.17,634.52,128.96z M636.17,95.57c0.32,0.08,0.65,0.15,0.97,0.21
		c1.18,0.52,2.18,1.42,2.86,2.62c0.92,1.62,1.17,3.55,0.7,5.44c-0.93,3.79-4.46,6.18-7.87,5.35l-50.6-12.44
		c-3.41-0.84-5.43-4.6-4.5-8.39c0.8-3.28,3.56-5.51,6.49-5.51c0.08,0,0.16,0.01,0.24,0.01L636.17,95.57z M590.04,38.23
		c0.47-1.89,1.58-3.49,3.14-4.5c1.46-0.94,3.14-1.24,4.73-0.85l28.22,6.94c-1.25,3.33-3.02,8.22-4.87,13.36l-26.73-6.57
		c-1.59-0.39-2.94-1.44-3.8-2.94C589.83,42.05,589.58,40.12,590.04,38.23z M576.77,61.61c0.8-3.28,3.56-5.51,6.49-5.51
		c0.46,0,0.92,0.05,1.38,0.17l32.67,8.03c-2.35,6.61-4.21,11.9-4.4,12.44c-0.11,0.32-0.19,0.65-0.25,0.97l-31.39-7.71
		C577.86,69.15,575.84,65.39,576.77,61.61z"/>
	<path d="M483.9,579.25c-2.52-10.7-4.95-20.95-7.33-30.94c-5.77-24.26-11.19-47.09-15.25-66.16c-5.46-25.67-8.44-44.49-6.38-50.64
		c0.89-2.67,2.83-6.82,5.08-11.63c6.49-13.89,14.56-31.17,12.87-43.71c-1.98-14.75-19.21-31.66-33.99-44.74l-0.98-0.87
		c-6.99-6.21-12.98-7.89-17.66-7.65l-22.03-24.64c-6.65-7.44-18.35-7.87-26.08-0.96c-2.51,2.24-4.28,4.99-5.32,7.92
		c-6.18-2.18-13.47-0.93-18.84,3.87c-5.35,4.79-7.41,11.86-5.97,18.23c-3,0.72-5.88,2.17-8.36,4.38c-5.37,4.8-7.42,11.9-5.95,18.28
		c-3.1,0.73-6.01,2.22-8.46,4.42c-7.73,6.91-8.61,18.58-1.95,26.03l16.56,18.53c2.57,40.7,21.72,52.68,32.3,59.28
		c11.14,6.95,16.38,44.85,25.06,107.63c1.38,9.94,2.85,20.59,4.46,31.97c0.42,2.93,2.93,5.04,5.8,5.04c0.27,0,0.55-0.02,0.83-0.06
		c3.21-0.45,5.44-3.42,4.99-6.63c-0.12-0.85-0.24-1.7-0.36-2.54c-1.47-10.41-2.82-20.21-4.09-29.39
		c-10.08-72.87-14.67-106.12-30.47-115.98c-7.67-4.79-19.33-12.08-24.47-33.7c3.2,3.17,7.43,4.99,12.05,5.12
		c0.18,0,0.35,0.01,0.53,0.01c4.68,0,9.19-1.74,12.75-4.92c3.62-3.24,5.85-7.61,6.33-12.34c0.07,0,0.14,0.01,0.21,0.01
		c3.7,0,7.45-1.12,10.71-3.34c-0.6,3.29-0.85,6.42-0.85,9.28c-0.02,12.97,4.58,22.91,4.77,23.33c1.38,2.93,4.87,4.19,7.8,2.82
		c2.93-1.38,4.19-4.87,2.82-7.8c-0.04-0.08-3.68-8.12-3.66-18.33c0.02-13.56,6.3-24.53,18.66-32.61c1.42-0.92,2.36-2.42,2.6-4.09
		s-0.26-3.37-1.37-4.65c-2.35-2.73-5.14-5.97-5.14-5.97c-1.93-2.25-5.25-2.7-7.71-1.05c-0.06,0.04-6.22,3.96-13.02,1.14
		c-3.12-1.29-5.29-2.92-6.75-4.36c10.72-7.83,26.3-19.14,29.72-21.36c2.84-1.85,6.8-0.55,11.77,3.87l0.99,0.88
		c7.04,6.24,28.48,25.21,30.14,37.52c1.23,9.12-6.66,26.01-11.88,37.18c-2.4,5.13-4.47,9.57-5.58,12.88
		c-4.45,13.3,3.79,49.39,21.34,123.23c2.33,9.82,4.72,19.88,7.2,30.38c0.98,4.15,1.97,8.36,2.97,12.67
		c0.63,2.71,3.04,4.54,5.71,4.53c0.44,0,0.89-0.05,1.34-0.15c3.16-0.74,5.12-3.89,4.38-7.05
		C485.78,587.28,484.84,583.24,483.9,579.25z M367.92,401.16c-0.16,1.85-1.04,3.59-2.5,4.89c-1.46,1.3-3.29,1.98-5.13,1.93
		c-1.73-0.05-3.29-0.75-4.38-1.97l-29.86-33.4c-2.34-2.62-1.88-6.86,1.03-9.46c1.45-1.3,3.25-1.98,5.13-1.93
		c1.73,0.05,3.29,0.75,4.38,1.97l29.86,33.4c0,0,0,0,0,0C367.54,397.81,368.06,399.44,367.92,401.16z M384.71,388.81
		c-2.91,2.6-7.17,2.58-9.52-0.04l-34.73-38.85c-2.34-2.62-1.88-6.86,1.03-9.46c2.58-2.31,6.23-2.55,8.65-0.74l35.5,39.71
		c0.2,0.22,0.42,0.42,0.63,0.63C387.97,382.69,387.37,386.43,384.71,388.81z M377.09,350.75c-0.27,0.2-0.53,0.42-0.76,0.66
		l-21.54-24.1c-2.34-2.62-1.88-6.86,1.03-9.46c1.45-1.29,3.23-1.94,4.94-1.94c1.73,0,3.4,0.66,4.57,1.97l22.42,25.08
		C382.08,347.09,377.56,350.41,377.09,350.75z M397.3,336.04l-18.35-20.52c-2.34-2.62-1.88-6.86,1.03-9.46
		c1.45-1.29,3.23-1.94,4.94-1.94c1.73,0,3.4,0.66,4.57,1.97l19.37,21.67C405.95,329.81,401.73,332.84,397.3,336.04z"/>
	<path d="M714.82,418.07c-27.01-49.85-39.34-72.6-56.01-75.27c-8.93-1.43-22.5-3.63-35.64-21.55c2.1,0.85,4.3,1.3,6.53,1.3
		c2.2,0,4.42-0.42,6.57-1.25c4.54-1.76,8.21-5.21,10.33-9.69c2.08-4.39,2.43-9.28,1.03-13.83c3.49-1.43,6.59-3.92,8.78-7.29
		c0.72,3.26,1.71,6.23,2.81,8.86c5.02,11.96,13.12,19.34,13.46,19.64c2.41,2.17,6.12,1.97,8.29-0.44s1.97-6.12-0.44-8.29
		c-0.06-0.06-6.54-6.05-10.49-15.46c-5.25-12.51-3.72-25.05,4.53-37.3c0.95-1.4,1.24-3.15,0.81-4.78c-0.43-1.64-1.55-3-3.07-3.76
		c-3.23-1.6-7.05-3.5-7.05-3.5c-2.66-1.32-5.89-0.45-7.52,2.03c-0.04,0.06-4.19,6.06-11.55,6.1c-0.05,0-0.1,0-0.16,0
		c-3.31,0-5.88-0.65-7.76-1.39c6.84-11.38,16.8-27.85,19.08-31.22c1.9-2.81,6.06-3.14,12.35-1.01l1.26,0.43
		c8.91,3.01,36.04,12.17,42.35,22.87c4.68,7.93,3.97,26.55,3.5,38.87c-0.22,5.66-0.4,10.55-0.14,14.03
		c0.89,11.71,16.28,34.83,46.27,76.15c1.15,1.58,2.94,2.42,4.75,2.42c0.25,0,0.5-0.03,0.75-0.06c0.94-0.12,1.87-0.46,2.69-1.06
		c2.62-1.9,3.21-5.57,1.3-8.19c-15.12-20.83-43.26-59.61-44.06-70.15c-0.21-2.81-0.04-7.39,0.16-12.69
		c0.58-15.32,1.31-34.38-5.12-45.28c-7.56-12.81-29.99-21.71-48.7-28.02l-1.24-0.42c-8.85-3.01-15.02-2.22-19.24-0.19l-29.87-14.15
		c-4.43-2.1-9.43-2.26-14.08-0.45c-4.54,1.76-8.21,5.21-10.33,9.69c-1.41,2.97-2.01,6.18-1.83,9.35c-1.86,0.11-3.71,0.51-5.52,1.21
		c-4.54,1.76-8.21,5.2-10.33,9.69c-3.07,6.49-2.23,13.81,1.58,19.12c-2.48,1.82-4.58,4.28-6,7.28c-3.08,6.51-2.22,13.85,1.62,19.16
		c-2.57,1.87-4.68,4.37-6.09,7.35c-2.12,4.48-2.46,9.5-0.95,14.13c1.55,4.75,4.84,8.51,9.26,10.61l22.45,10.64
		c18.18,36.52,40.49,40.1,52.8,42.08c0.2,0.03,0.4,0.09,0.6,0.14c10.86,2.56,24.55,27.8,46.95,69.15
		c4.94,9.11,10.31,19.03,16.21,29.75c10.92,19.84,23.68,42.49,39.05,68.26c1.1,1.84,3.05,2.86,5.04,2.86c1.02,0,2.06-0.27,3-0.83
		c2.48-1.48,3.46-4.49,2.49-7.09c-0.12-0.32-0.27-0.64-0.45-0.95C746.3,476.16,728.85,443.95,714.82,418.07z M610.57,208.78
		c0.83-1.76,2.25-3.1,3.98-3.78c1.62-0.63,3.32-0.59,4.8,0.11l26.27,12.44c-1.89,3.02-4.61,7.45-7.44,12.12L613.3,217.9
		c-1.48-0.7-2.59-2-3.13-3.64C609.6,212.49,609.74,210.55,610.57,208.78z M592.89,229.04c0.83-1.76,2.25-3.1,3.98-3.78
		c1.62-0.63,3.32-0.59,4.8,0.11l30.4,14.4c-3.62,6.01-6.5,10.81-6.8,11.31c-0.18,0.29-0.32,0.6-0.44,0.91l-29.21-13.84
		C592.45,236.65,591.22,232.56,592.89,229.04z M588.47,255.44c1.48-3.13,4.75-4.76,7.68-4.05l48.14,22.8
		c0.27,0.13,0.54,0.22,0.81,0.33c2.6,1.76,3.5,5.45,1.97,8.68c-1.67,3.52-5.61,5.17-8.78,3.66l-47.09-22.31
		C588.03,263.05,586.8,258.96,588.47,255.44z M586.73,291.06c-1.48-0.7-2.59-2-3.13-3.64c-0.58-1.77-0.43-3.71,0.4-5.47
		c0.83-1.76,2.25-3.1,3.98-3.78c1.62-0.63,3.32-0.59,4.8,0.11l40.48,19.18c1.48,0.7,2.59,2,3.13,3.64c0.58,1.77,0.43,3.71-0.4,5.47
		c-0.83,1.76-2.25,3.1-3.98,3.78c-1.62,0.63-3.32,0.59-4.8-0.11L586.73,291.06z"/>
	<path d="M588.61,379.44c-19.92-50.07-38.74-97.37-36.7-107.12c0.58-2.75,2.02-7.1,3.7-12.14c4.83-14.55,10.85-32.65,7.72-44.91
		c-3.68-14.42-22.75-29.22-38.95-40.51l-1.06-0.74c-7.66-5.36-13.8-6.33-18.42-5.56l-24.74-21.92c-3.66-3.25-8.42-4.79-13.39-4.36
		c-4.85,0.43-9.33,2.71-12.62,6.42c-2.23,2.52-3.67,5.45-4.37,8.48c-6.39-1.45-13.48,0.64-18.26,6.03
		c-4.76,5.38-5.99,12.64-3.81,18.8c-2.89,1.06-5.59,2.83-7.8,5.32c-3.29,3.71-5.02,8.44-4.86,13.3c0.06,1.94,0.43,3.81,1.05,5.56
		c-2.93,1.06-5.66,2.84-7.89,5.35c-6.88,7.76-6.39,19.46,1.08,26.08l18.59,16.48c2.95,16.34,8.32,29.02,16.34,38.62
		c8.03,9.62,16.81,13.77,22.62,16.52c10.2,4.83,16.76,34.35,27.62,83.26c10.81,48.66,25.6,115.3,53.8,206.06
		c0.78,2.51,3.1,4.13,5.6,4.13c0.58,0,1.16-0.09,1.74-0.27c2.46-0.77,4.05-3,4.12-5.45c0.02-0.63-0.06-1.26-0.26-1.9
		c-28.05-90.29-42.79-156.66-53.55-205.12c-12.81-57.7-18.66-84.04-34.06-91.32c-8.18-3.87-20.59-9.76-28.21-30.62
		c3.11,2.44,6.9,3.76,10.91,3.76c0.55,0,1.1-0.02,1.65-0.07c4.85-0.43,9.33-2.71,12.62-6.42c3.22-3.63,4.93-8.23,4.85-12.98
		c3.75-0.4,7.42-1.95,10.46-4.58c-0.22,3.33-0.1,6.48,0.23,9.31c1.48,12.88,7.2,22.23,7.45,22.62c1.7,2.75,5.3,3.59,8.06,1.9
		c2.75-1.69,3.61-5.3,1.92-8.06c-0.74-1.21-17.85-29.97,8.99-52.34c1.3-1.08,2.07-2.67,2.11-4.37c0.04-1.69-0.65-3.32-1.9-4.46
		c-2.65-2.44-5.79-5.33-5.8-5.33c-2.18-2.01-5.52-2.08-7.78-0.15c-0.05,0.05-5.72,4.65-12.8,2.64c-3.25-0.92-5.59-2.28-7.21-3.54
		c9.74-9.02,23.91-22.05,27.04-24.66c2.61-2.16,6.69-1.33,12.14,2.48l1.08,0.75c7.72,5.38,31.22,21.75,34.29,33.78
		c2.28,8.92-3.6,26.6-7.49,38.3c-1.79,5.38-3.33,10.02-4.05,13.43c-2.65,12.65,10.23,45.89,37.28,113.86
		c23.4,58.81,52.51,131.99,76.99,210.71c0.03,0.11,0.07,0.22,0.1,0.33c0.78,2.51,3.1,4.13,5.6,4.13c0.58,0,1.16-0.09,1.74-0.27
		c3.09-0.96,4.82-4.25,3.86-7.34C641.37,512.06,612.12,438.53,588.61,379.44z M440.28,170.91c1.48-1.67,3.51-2.54,5.46-2.54
		c1.45,0,2.87,0.48,3.99,1.48l25.17,22.31c-5.16,4.76-9.26,8.57-9.69,8.96c-0.25,0.23-0.47,0.48-0.68,0.75l-24.19-21.44
		C437.73,178.09,437.7,173.82,440.28,170.91z M460.04,257.4c-1.29,1.46-3.02,2.35-4.87,2.52c-1.73,0.15-3.35-0.36-4.58-1.45l0,0
		l-33.52-29.71c-2.63-2.33-2.66-6.6-0.08-9.51c2.58-2.92,6.82-3.39,9.45-1.07l5.93,5.25l27.6,24.46c1.23,1.09,1.93,2.64,1.99,4.37
		C462.02,254.11,461.34,255.94,460.04,257.4z M477.76,229.19c1.98,2.41,1.8,6.19-0.55,8.85c-2.59,2.92-6.83,3.4-9.46,1.07v0
		l-38.99-34.56c-1.23-1.09-1.93-2.64-1.99-4.37c-0.06-1.86,0.62-3.68,1.91-5.14c2.29-2.59,5.89-3.25,8.51-1.74l39.86,35.33h0
		C477.28,228.82,477.52,229,477.76,229.19z M483.59,184.17l-20.6-18.26c-2.63-2.33-2.66-6.6-0.08-9.51
		c1.29-1.46,3.03-2.35,4.88-2.52c1.72-0.15,3.35,0.36,4.58,1.45l21.75,19.28C491.46,176.97,487.62,180.47,483.59,184.17z"/>
	<path d="M299.52,363.5c8.82-12.54,19.79-28.15,20.32-40.79c0.62-14.86-13.38-34.53-25.64-50l-0.81-1.02
		c-5.79-7.33-11.4-10.03-16.04-10.62l-17.38-28.12c-5.25-8.49-16.69-10.96-25.51-5.51c-2.85,1.77-5.08,4.15-6.62,6.86
		c-1.62-0.92-3.4-1.59-5.29-1.99c-4.77-0.98-9.72-0.09-13.94,2.52c-6.11,3.78-9.37,10.38-9.06,16.91c-3.07,0.18-6.17,1.11-9,2.85
		c-6.13,3.79-9.39,10.42-9.06,16.96c-3.18,0.17-6.3,1.13-9.1,2.86c-4.22,2.61-7.23,6.64-8.48,11.34c-1.28,4.83-0.57,9.78,2.01,13.94
		l13.06,21.12c-4.07,35.37,7.8,51.72,21.45,64.03c9.75,8.79,8.28,47.03,5.85,110.37c-1.01,26.43-2.28,59.33-3,97.35
		c-0.06,3.24,2.51,5.92,5.75,5.98c0.04,0,0.08,0,0.11,0c3.11,0,5.66-2.43,5.85-5.52c0-0.08,0.01-0.16,0.02-0.24
		c0.72-37.91,1.98-70.74,3-97.12c2.82-73.51,4.11-107.07-9.72-119.54c-6.72-6.06-16.92-15.27-18.2-37.46
		c2.59,3.68,6.44,6.22,10.97,7.15c1.26,0.26,2.54,0.39,3.82,0.39c3.53,0,7.02-0.99,10.12-2.91c4.26-2.63,7.12-6.65,8.37-11.04
		c1.15,0.22,2.33,0.33,3.52,0.33c2.63,0,5.3-0.55,7.83-1.69c-1.17,3.12-1.95,6.16-2.45,8.96c-2.29,12.77,0.5,23.36,0.62,23.81
		c0.84,3.13,4.06,4.98,7.19,4.14c3.13-0.84,4.98-4.06,4.14-7.19c-0.02-0.08-2.2-8.64-0.4-18.68c2.39-13.35,10.5-23.05,24.08-28.84
		c1.56-0.66,2.75-1.97,3.28-3.57c0.53-1.61,0.33-3.37-0.53-4.82c-1.84-3.1-4.01-6.77-4.01-6.78c-1.51-2.56-4.69-3.58-7.41-2.38
		c-0.07,0.03-6.81,2.81-13.01-1.16c-2.85-1.82-4.7-3.8-5.89-5.47c11.92-5.83,29.25-14.24,32.99-15.83
		c3.12-1.33,6.79,0.65,10.91,5.87l0.82,1.04c5.85,7.37,23.64,29.81,23.12,42.22c-0.39,9.2-11.1,24.44-18.19,34.53
		c-3.26,4.64-6.08,8.64-7.74,11.7c-6.71,12.32-4.91,49.29-0.54,125.08c1.69,29.29,3.6,62.46,5.1,98.83c0.01,0.2,0.02,0.4,0.02,0.6
		c0.13,3.16,2.73,5.63,5.86,5.63c0.08,0,0.16,0,0.24,0c3.24-0.13,5.75-2.87,5.62-6.1c-1.51-36.7-3.43-70.13-5.13-99.62
		c-3.37-58.42-6.28-108.87-0.87-118.79C293.83,371.59,296.46,367.84,299.52,363.5z M208.79,333.33c-1.66,1.03-3.57,1.38-5.39,1.01
		c-1.7-0.35-3.11-1.31-3.97-2.71l-23.56-38.1c-0.86-1.39-1.09-3.08-0.65-4.76c0.48-1.79,1.65-3.35,3.31-4.37s3.57-1.38,5.39-1.01
		c1.7,0.35,3.11,1.31,3.97,2.7l23.56,38.11C213.3,327.18,212.11,331.28,208.79,333.33z M230.8,319.73c-3.32,2.05-7.52,1.29-9.36-1.7
		v0l-27.4-44.32c-1.85-2.99-0.65-7.08,2.66-9.13c1.26-0.78,2.64-1.15,3.98-1.15c1.8,0,3.5,0.69,4.69,1.96l27.99,45.27
		c0.16,0.25,0.34,0.49,0.51,0.73C235.08,314.27,233.83,317.85,230.8,319.73z M229.95,280.92c-0.31,0.15-0.59,0.33-0.86,0.52
		l-17-27.49c-1.85-2.99-0.65-7.08,2.67-9.13c1.66-1.03,3.57-1.38,5.39-1.01c1.7,0.35,3.11,1.31,3.97,2.71l17.69,28.61
		C235.5,278.2,230.47,280.67,229.95,280.92z M252.42,269.98l-14.48-23.42c-1.84-2.99-0.65-7.08,2.67-9.13
		c1.26-0.78,2.64-1.15,3.98-1.15c2.18,0,4.24,1,5.38,2.85l15.28,24.72C262.03,265.35,257.34,267.6,252.42,269.98z"/>
	<path d="M146.91,410.4c-5.11-7.83-10.45-11.02-15.03-12.02l-14.79-29.56c-2.19-4.38-6.03-7.59-10.81-9.03
		c-4.66-1.41-9.67-0.96-14.11,1.26c-3.01,1.5-5.44,3.69-7.22,6.25c-5.39-3.72-12.75-4.43-19.19-1.21c-4.44,2.22-7.8,5.96-9.46,10.54
		c-0.66,1.8-1.02,3.65-1.09,5.48c-3.14-0.09-6.29,0.59-9.2,2.04c-4.44,2.22-7.8,5.96-9.46,10.54c-0.66,1.82-1.02,3.69-1.09,5.54
		c-3.18-0.11-6.37,0.56-9.31,2.03c-4.44,2.22-7.8,5.96-9.46,10.54c-1.71,4.69-1.44,9.69,0.75,14.07l11.11,22.21
		c-7.23,34.86,3.13,52.22,15.62,65.69c7.91,8.53,4.57,41.48-0.25,80.44c-0.4,3.22,1.89,6.14,5.1,6.54c0.24,0.03,0.49,0.04,0.73,0.04
		c2.92,0,5.45-2.18,5.81-5.15c0.14-1.1,0.27-2.17,0.4-3.24c6.32-51.77,7.16-75.46-3.18-86.62c-6.15-6.63-15.47-16.72-14.77-38.91
		c3.28,5.65,9.36,8.88,15.76,8.88c2.89,0,5.85-0.66,8.64-2.05c4.48-2.24,7.69-5.98,9.33-10.24c1.69,0.48,3.43,0.73,5.16,0.73
		c2.11,0,4.23-0.36,6.26-1.06c-1.44,3.01-2.5,5.96-3.25,8.71c-3.42,12.51-1.6,23.31-1.52,23.77c0.56,3.19,3.6,5.32,6.79,4.77
		c3.19-0.56,5.33-3.6,4.77-6.79c-0.01-0.09-1.42-8.8,1.28-18.64c3.58-13.08,12.52-22.02,26.57-26.57c1.61-0.52,2.92-1.71,3.58-3.27
		c0.67-1.55,0.63-3.32-0.1-4.85c-1.56-3.25-3.39-7.11-3.39-7.11c-1.28-2.68-4.35-3.98-7.17-3.04c-0.07,0.02-7.04,2.19-12.86-2.32
		c-2.68-2.07-4.34-4.2-5.37-5.98c12.4-4.74,30.4-11.56,34.28-12.81c3.23-1.04,6.71,1.26,10.34,6.83l0.73,1.11
		c5.16,7.87,20.87,31.81,19.24,44.12c-1.21,9.13-13.25,23.35-21.22,32.76c-3.66,4.33-6.82,8.06-8.76,10.96
		c-6.52,9.78-8.67,37.56-10.55,88.75c-0.05,1.46,0.44,2.82,1.28,3.88c1.03,1.29,2.59,2.14,4.36,2.2c0.07,0,0.15,0,0.22,0
		c1.51,0,2.88-0.58,3.93-1.52c1.13-1.02,1.87-2.48,1.93-4.13c0.54-14.74,1.35-36.74,3.04-54.53c1.27-13.36,3.03-24.36,5.55-28.14
		c1.56-2.34,4.52-5.84,7.95-9.89c9.91-11.7,22.23-26.26,23.9-38.8c1.95-14.75-10.23-35.59-21.06-52.1L146.91,410.4z M57.13,464.2
		c-3.49,1.74-7.6,0.61-9.17-2.53l-20.04-40.06c-0.73-1.47-0.81-3.17-0.22-4.8c0.64-1.75,1.95-3.19,3.69-4.06
		c1.75-0.87,3.69-1.06,5.46-0.52c1.66,0.5,2.98,1.58,3.71,3.05l20.04,40.06C62.18,458.49,60.62,462.46,57.13,464.2z M83.96,448.57
		c-0.64,1.75-1.95,3.19-3.69,4.06c-1.74,0.87-3.68,1.06-5.46,0.52c-1.66-0.5-2.98-1.59-3.71-3.05l-23.31-46.6
		c-0.73-1.47-0.81-3.17-0.22-4.8c0.64-1.75,1.95-3.19,3.69-4.06c1.75-0.87,3.69-1.05,5.46-0.52c1.26,0.38,2.32,1.1,3.08,2.07
		l23.83,47.63c0.14,0.29,0.3,0.56,0.46,0.84C84.48,445.91,84.44,447.26,83.96,448.57z M82.91,413.9c-0.32,0.12-0.62,0.27-0.9,0.44
		l-14.46-28.91c-0.73-1.47-0.81-3.17-0.22-4.8c0.64-1.75,1.95-3.19,3.69-4.06c3.49-1.74,7.6-0.61,9.17,2.53l15.05,30.08
		C88.68,411.69,83.45,413.7,82.91,413.9z M106.27,405.02L93.95,380.4c-1.57-3.14-0.01-7.12,3.47-8.86c1.74-0.87,3.68-1.06,5.46-0.52
		c1.66,0.5,2.98,1.59,3.71,3.05l13,25.99C116.25,401.27,111.38,403.09,106.27,405.02z"/>
	<polygon points="26.86,269.86 26.86,266.58 17.67,263.68 17.67,266.69 22.88,268.34 22.88,268.42 17.67,269.76 17.67,272.42 
		22.88,273.76 22.88,273.84 17.67,275.49 17.67,278.72 17.67,278.81 17.67,281.73 22.88,283.38 22.88,283.46 17.67,284.8 
		17.67,287.46 22.88,288.8 22.88,288.88 17.67,290.53 17.67,293.77 17.67,293.85 17.67,296.78 22.88,298.43 22.88,298.51 
		17.67,299.85 17.67,302.51 22.88,303.85 22.88,303.93 17.67,305.58 17.67,308.9 26.86,305.99 26.86,302.71 21.67,301.38 
		21.67,301.29 26.86,299.95 26.86,296.67 17.8,293.81 26.86,290.95 26.86,287.67 21.67,286.33 21.67,286.25 26.86,284.91 
		26.86,281.63 17.8,278.77 26.86,275.9 26.86,272.62 21.67,271.28 21.67,271.2 	"/>
	<rect x="23.32" y="257.7" width="3.55" height="3.55"/>
	<path d="M27.11,248.16c0-3.98-2.51-6.1-5.75-6.35l-0.14,3.36c1.44,0.21,2.78,0.99,2.78,3.01c0,1.92-1.42,3.03-3.63,3.03
		c-2.21,0-3.63-1.11-3.63-3.03c0-2.02,1.34-2.8,2.78-3.01l-0.12-3.36c-3.24,0.25-5.77,2.37-5.77,6.35c0,3.79,2.74,6.66,6.74,6.66
		C24.37,254.82,27.11,251.95,27.11,248.16z"/>
	<path d="M27.07,232.72c0-0.95-0.27-1.61-0.6-2.08H24.7c0.1,0.27,0.14,0.47,0.14,0.74c0,0.35-0.21,0.56-0.68,0.56h-3.13
		c-2.56,0-3.61,1.79-3.61,4.23c0,2.76,1.4,4.27,3.42,4.56l0.21-3.09c-0.68-0.14-1.15-0.52-1.15-1.26c0-0.8,0.45-1.15,1.22-1.15h0.14
		l0.43,2.58c0.35,2,1.11,3.28,2.89,3.28c1.57,0,2.49-1.17,2.49-2.97c0-1.46-0.56-2.51-1.63-3.05
		C26.49,234.74,27.07,233.86,27.07,232.72z M24.14,237.85c-0.6,0-0.85-0.47-1.01-1.28l-0.25-1.36h0.14c1.2,0,1.9,0.76,1.9,1.71
		C24.92,237.48,24.61,237.85,24.14,237.85z"/>
	<path d="M30.16,226.33h-4.87c1.07-0.45,1.81-1.48,1.81-3.03c0-2.7-2.12-4.08-4.84-4.08c-2.7,0-4.84,1.38-4.84,4.08
		c0,1.55,0.74,2.58,1.83,3.03h-1.59v3.34h12.49V226.33z M22.33,226.33H22.2c-1.32,0-2.18-0.72-2.18-1.86c0-1.3,0.93-1.9,2.25-1.9
		c1.34,0,2.27,0.6,2.27,1.9C24.53,225.61,23.67,226.33,22.33,226.33z"/>
	<rect x="17.67" y="214.56" width="9.19" height="3.34"/>
	<rect x="13.87" y="214.54" width="2.93" height="3.38"/>
	<path d="M17.81,212.98l0.1,0.68h2.06v-1.24h4.33c2.17,0,2.8-1.46,2.8-3.01c0-1.26-0.31-2.06-0.82-2.76h-2.17
		c0.23,0.56,0.31,1.01,0.31,1.42c0,0.68-0.31,1.05-1.09,1.05h-3.36v-2.39h-2.31v2.39h-2.54v2.1l1.2,0.31
		C17.17,211.76,17.67,212.05,17.81,212.98z"/>
	<path d="M27.07,197.56c0-0.95-0.27-1.61-0.6-2.08H24.7c0.1,0.27,0.14,0.47,0.14,0.74c0,0.35-0.21,0.56-0.68,0.56h-3.13
		c-2.56,0-3.61,1.79-3.61,4.23c0,2.76,1.4,4.27,3.42,4.56l0.21-3.09c-0.68-0.14-1.15-0.52-1.15-1.26c0-0.8,0.45-1.15,1.22-1.15h0.14
		l0.43,2.58c0.35,2,1.11,3.28,2.89,3.28c1.57,0,2.49-1.17,2.49-2.97c0-1.46-0.56-2.52-1.63-3.05
		C26.49,199.58,27.07,198.69,27.07,197.56z M24.14,202.69c-0.6,0-0.85-0.47-1.01-1.28l-0.25-1.36h0.14c1.2,0,1.9,0.76,1.9,1.71
		C24.92,202.32,24.61,202.69,24.14,202.69z"/>
	<rect x="13.87" y="191.17" width="12.99" height="3.34"/>
	<rect x="13.87" y="186" width="2.93" height="3.38"/>
	<rect x="17.67" y="186.02" width="9.19" height="3.34"/>
	<path d="M24.06,175.98c-1.79,0-2.72,1.2-3.05,3.26l-0.31,1.79c-0.04,0.31-0.21,0.56-0.52,0.56c-0.41,0-0.66-0.37-0.66-1.01
		c0-1.03,0.41-1.61,1.07-1.73l-0.08-2.74c-1.92,0.19-3.09,1.75-3.09,4.41c0,2.58,1.3,4.16,3.11,4.16c1.88,0,2.6-1.17,2.95-3.4
		l0.21-1.36c0.1-0.64,0.35-0.84,0.7-0.84c0.37,0,0.64,0.39,0.64,1.13c0,1.01-0.43,1.63-1.2,1.75l0.04,2.91
		c2.23-0.19,3.24-2.08,3.24-4.62C27.11,177.63,26,175.98,24.06,175.98z"/>
	<path d="M17.42,168.5c0,1.38,0.62,2.37,1.63,2.87h-1.38v3.34h9.19v-3.34h-4.51c-1.38,0-2.29-0.39-2.29-1.48
		c0-1.01,0.66-1.26,1.92-1.26h4.89v-3.34h-4.51c-1.38,0-2.29-0.37-2.29-1.48c0-1.01,0.66-1.24,1.92-1.24h4.89v-3.34h-5.77
		c-1.92,0-3.67,0.74-3.67,3.28c0,1.55,0.78,2.64,1.81,3.13C18.16,166.03,17.42,166.87,17.42,168.5z"/>
	<rect x="13.87" y="150.47" width="12.99" height="3.5"/>
	<path d="M23.83,146.32l0.04,2.91c2.23-0.19,3.24-2.08,3.24-4.62c0-2.62-1.11-4.27-3.05-4.27c-1.79,0-2.72,1.2-3.05,3.26l-0.31,1.79
		c-0.04,0.31-0.21,0.56-0.52,0.56c-0.41,0-0.66-0.37-0.66-1.01c0-1.03,0.41-1.61,1.07-1.73l-0.08-2.74
		c-1.92,0.19-3.09,1.75-3.09,4.41c0,2.58,1.3,4.16,3.11,4.16c1.88,0,2.6-1.17,2.95-3.4l0.21-1.36c0.1-0.64,0.35-0.84,0.7-0.84
		c0.37,0,0.64,0.39,0.64,1.13C25.03,145.58,24.59,146.2,23.83,146.32z"/>
	<path d="M13.87,131.34l12.99,5.17v-3.52l-2.51-0.97v-5.07l2.51-0.97v-3.73l-12.99,5.17V131.34z M17.89,129.44l3.83-1.48v3.05
		l-3.83-1.48V129.44z"/>
	<polygon points="13.87,116.73 13.87,120.4 26.86,115.41 26.86,111.72 13.87,106.73 13.87,110.21 22.51,113.43 22.51,113.51 	"/>
	<rect x="13.87" y="102.47" width="2.93" height="3.38"/>
	<rect x="17.67" y="102.49" width="9.19" height="3.34"/>
	<path d="M19.3,97.33h-1.63v3.34h9.19v-3.34h-4.21c-1.55,0-2.12-0.76-2.12-2c0-0.64,0.12-1.13,0.39-1.59l-3.15-0.21
		c-0.19,0.23-0.35,0.72-0.35,1.28C17.42,96.04,18.27,97,19.3,97.33z"/>
	<path d="M22.57,89.28h-4.91v3.34h5.79c1.92,0,3.65-0.76,3.65-3.28c0-1.38-0.6-2.39-1.63-2.89h1.38v-3.34h-9.19v3.34h4.51
		c1.4,0,2.31,0.41,2.31,1.46C24.49,88.92,23.81,89.28,22.57,89.28z"/>
	<path d="M20.53,81.77c1.88,0,2.6-1.17,2.95-3.4l0.21-1.36c0.1-0.64,0.35-0.84,0.7-0.84c0.37,0,0.64,0.39,0.64,1.13
		c0,1.01-0.43,1.63-1.2,1.75l0.04,2.91c2.23-0.19,3.24-2.08,3.24-4.62c0-2.62-1.11-4.27-3.05-4.27c-1.79,0-2.72,1.2-3.05,3.26
		l-0.31,1.79c-0.04,0.31-0.21,0.56-0.52,0.56c-0.41,0-0.66-0.37-0.66-1.01c0-1.03,0.41-1.61,1.07-1.73l-0.08-2.74
		c-1.92,0.19-3.09,1.75-3.09,4.41C17.42,80.19,18.72,81.77,20.53,81.77z"/>
	<rect x="23.32" y="66.69" width="3.55" height="3.55"/>
	<path d="M22.26,63.8c2.87,0,4.84-2.02,4.84-5.03c0-2.99-1.98-5.03-4.84-5.03c-2.84,0-4.84,2.04-4.84,5.03
		C17.42,61.78,19.42,63.8,22.26,63.8z M22.26,57.1c1.38,0,2.33,0.52,2.33,1.67c0,1.17-0.95,1.67-2.33,1.67
		c-1.38,0-2.33-0.5-2.33-1.67C19.93,57.62,20.88,57.1,22.26,57.1z"/>
	<path d="M17.77,45.29c-0.19,0.23-0.35,0.72-0.35,1.28c0,1.22,0.85,2.19,1.88,2.52h-1.63v3.34h9.19v-3.34h-4.21
		c-1.55,0-2.12-0.76-2.12-2c0-0.64,0.12-1.13,0.39-1.59L17.77,45.29z"/>
	<path d="M27.07,34.62c-1.55,0-2.64,1.05-2.64,3.13v3.81c0,0.56-0.25,0.78-0.56,0.78c-0.19,0-0.33-0.06-0.43-0.19
		c0.19-0.6,0.27-1.26,0.27-2c0-2.6-1.2-4.47-3.13-4.47c-0.43,0-0.83,0.1-1.18,0.29c-0.1-0.45-0.14-0.95-0.14-1.34h-2.52
		c0,1.01,0.66,2.02,1.42,2.58c-0.47,0.78-0.74,1.83-0.74,2.95c0,2.58,1.2,4.43,3.15,4.43c1.01,0,1.79-0.5,2.33-1.32
		c0.37,0.99,1.05,1.57,1.94,1.57c0.78,0,1.53-0.49,1.79-1.32c0.08,1.03,0.72,1.75,1.53,1.75c1.73,0,2.25-2.27,2.25-4.89
		C30.41,37.4,29.36,34.62,27.07,34.62z M20.57,41.09c-0.8,0-1.32-0.41-1.32-0.97s0.51-0.97,1.32-0.97c0.82,0,1.34,0.41,1.34,0.97
		S21.4,41.09,20.57,41.09z M27.83,42.53c-0.35,0-0.56-0.25-0.56-0.62v-3.38c0-0.56,0.14-0.84,0.54-0.84c0.56,0,0.87,1.13,0.87,2.68
		C28.68,41.6,28.49,42.53,27.83,42.53z"/>
</g>
</svg>
