<?xml version="1.0" encoding="utf-8"?>
<!-- Generator: Adobe Illustrator 23.1.1, SVG Export Plug-In . SVG Version: 6.00 Build 0)  -->
<svg version="1.1" xmlns="http://www.w3.org/2000/svg" xmlns:xlink="http://www.w3.org/1999/xlink" x="0px" y="0px"
	 viewBox="0 0 792 612" style="enable-background:new 0 0 792 612;" xml:space="preserve">
<style type="text/css">
	.st0{display:none;}
	.st1{display:inline;}
	
		.st2{display:inline;fill:#FFFFFF;stroke:#000000;stroke-width:16;stroke-linecap:round;stroke-linejoin:round;stroke-miterlimit:10;}
	.st3{fill:#FFFFFF;stroke:#000000;stroke-width:16;stroke-linecap:round;stroke-linejoin:round;stroke-miterlimit:10;}
	.st4{display:inline;fill:none;stroke:#000000;stroke-width:24;stroke-linejoin:round;stroke-miterlimit:10;}
	.st5{display:inline;fill:#FFFFFF;}
	.st6{fill:#FFFFFF;stroke:#000000;stroke-width:17;stroke-linecap:round;stroke-miterlimit:10;}
	.st7{fill:#FFFFFF;stroke:#000000;stroke-width:17;stroke-miterlimit:10;}
	.st8{stroke:#000000;stroke-width:16.0572;stroke-linecap:round;stroke-miterlimit:10;}
	.st9{fill:#FFFFFF;}
	.st10{fill:#FFFFFF;stroke:#000000;stroke-width:17.1072;stroke-linecap:round;stroke-linejoin:round;stroke-miterlimit:10;}
	.st11{stroke:#000000;stroke-width:17.1072;stroke-linecap:round;stroke-linejoin:round;stroke-miterlimit:10;}
	.st12{fill:#FFFFFF;stroke:#000000;stroke-width:14.7375;stroke-linecap:round;stroke-linejoin:round;stroke-miterlimit:10;}
	.st13{fill:none;stroke:#000000;stroke-width:14.7375;stroke-linecap:round;stroke-linejoin:round;stroke-miterlimit:10;}
	.st14{stroke:#000000;stroke-width:14.7375;stroke-linecap:round;stroke-linejoin:round;stroke-miterlimit:10;}
	.st15{fill:#FFFFFF;stroke:#000000;stroke-width:14.2911;stroke-linecap:round;stroke-linejoin:round;stroke-miterlimit:10;}
	.st16{fill:none;stroke:#000000;stroke-width:13.497;stroke-miterlimit:10;}
	.st17{fill:#FFFFFF;stroke:#000000;stroke-width:13.497;stroke-linecap:round;stroke-linejoin:round;stroke-miterlimit:10;}
	.st18{fill:#FFFFFF;stroke:#000000;stroke-width:13.497;stroke-miterlimit:10;}
	.st19{fill:#FFFFFF;stroke:#000000;stroke-width:14.7439;stroke-linecap:round;stroke-miterlimit:10;}
	.st20{fill:#FFFFFF;stroke:#000000;stroke-width:14.7439;stroke-miterlimit:10;}
	.st21{stroke:#000000;stroke-width:13.9262;stroke-linecap:round;stroke-miterlimit:10;}
	
		.st22{display:inline;fill:#FFFFFF;stroke:#000000;stroke-width:14.6942;stroke-linecap:round;stroke-linejoin:round;stroke-miterlimit:10;}
	.st23{fill:#FFFFFF;stroke:#000000;stroke-width:14.6942;stroke-linecap:round;stroke-linejoin:round;stroke-miterlimit:10;}
	.st24{fill:none;stroke:#000000;stroke-width:24;stroke-linejoin:round;stroke-miterlimit:10;}
	.st25{fill:none;stroke:#000000;stroke-width:30.5612;stroke-linecap:round;stroke-linejoin:round;stroke-miterlimit:10;}
	.st26{fill:#FFFFFF;stroke:#000000;stroke-width:16.2993;stroke-linecap:round;stroke-linejoin:round;stroke-miterlimit:10;}
	.st27{display:inline;fill:#FFFFFF;stroke:#000000;stroke-width:13.497;stroke-linecap:round;stroke-miterlimit:10;}
	
		.st28{display:inline;fill:none;stroke:#000000;stroke-width:13.497;stroke-linecap:round;stroke-linejoin:round;stroke-miterlimit:10;}
	
		.st29{display:inline;fill:#FFFFFF;stroke:#000000;stroke-width:13.497;stroke-linecap:round;stroke-linejoin:round;stroke-miterlimit:10;}
	
		.st30{display:inline;fill:url(#);stroke:#000000;stroke-width:13.497;stroke-linecap:round;stroke-linejoin:round;stroke-miterlimit:10;}
	.st31{fill:#FFFFFF;stroke:#000000;stroke-width:15.2362;stroke-linecap:round;stroke-linejoin:round;stroke-miterlimit:10;}
	.st32{fill:#FFFFFF;stroke:#000000;stroke-width:14.8467;stroke-linecap:round;stroke-linejoin:round;stroke-miterlimit:10;}
	.st33{stroke:#000000;stroke-width:20.1683;stroke-linecap:round;stroke-miterlimit:10;}
	.st34{fill:none;stroke:#000000;stroke-width:14.8467;stroke-linecap:round;stroke-linejoin:round;stroke-miterlimit:10;}
	.st35{fill:#FFFFFF;stroke:#FFFFFF;stroke-width:3;stroke-miterlimit:10;}
	.st36{display:inline;fill:none;stroke:#000000;stroke-width:15;stroke-linecap:round;stroke-linejoin:round;stroke-miterlimit:10;}
	
		.st37{display:inline;fill:#FFFFFF;stroke:#000000;stroke-width:15;stroke-linecap:round;stroke-linejoin:round;stroke-miterlimit:10;}
	.st38{fill:#FFFFFF;stroke:#000000;stroke-width:15;stroke-linecap:round;stroke-linejoin:round;stroke-miterlimit:10;}
	.st39{fill:#FFFFFF;stroke:#000000;stroke-width:11.7326;stroke-linecap:round;stroke-linejoin:round;stroke-miterlimit:10;}
	.st40{fill:#FFFFFF;stroke:#000000;stroke-width:13.2623;stroke-linecap:round;stroke-linejoin:round;stroke-miterlimit:10;}
	.st41{font-family:'FoundersGrotesk-Bold';}
	.st42{font-size:20.6105px;}
	.st43{font-size:10.3052px;}
	.st44{font-size:19.2364px;}
	.st45{fill:none;stroke:#000000;stroke-width:16;stroke-linecap:round;stroke-miterlimit:10;}
	.st46{fill:url(#);stroke:#000000;stroke-width:16;stroke-linecap:round;stroke-linejoin:round;stroke-miterlimit:10;}
	.st47{fill:#FFFFFF;stroke:#000000;stroke-width:16;stroke-linecap:round;stroke-miterlimit:10;}
	.st48{fill:#FFFFFF;stroke:#000000;stroke-width:13.2623;stroke-linecap:round;stroke-miterlimit:10;}
	.st49{stroke:#000000;stroke-width:4.5213;stroke-miterlimit:10;}
	.st50{fill:none;stroke:#000000;stroke-width:15.2344;stroke-linecap:round;stroke-linejoin:round;stroke-miterlimit:10;}
	.st51{fill:#FFFFFF;stroke:#000000;stroke-width:15.2344;stroke-linecap:round;stroke-linejoin:round;stroke-miterlimit:10;}
	.st52{stroke:#000000;stroke-width:18.3348;stroke-linecap:round;stroke-miterlimit:10;}
	.st53{fill:none;stroke:#000000;stroke-width:13.497;stroke-linecap:round;stroke-linejoin:round;stroke-miterlimit:10;}
	.st54{display:inline;fill:none;stroke:#000000;stroke-width:16;stroke-linecap:round;stroke-linejoin:round;stroke-miterlimit:10;}
	.st55{fill:#FFFFFF;stroke:#000000;stroke-width:13.3058;stroke-linecap:round;stroke-linejoin:round;stroke-miterlimit:10;}
	.st56{fill:#FFFFFF;stroke:#000000;stroke-width:17;stroke-linecap:round;stroke-linejoin:round;stroke-miterlimit:10;}
	.st57{fill:#FFFFFF;stroke:#000000;stroke-width:15.2517;stroke-linecap:round;stroke-linejoin:round;stroke-miterlimit:10;}
	.st58{stroke:#000000;stroke-width:3;stroke-miterlimit:10;}
	.st59{fill:#FFFFFF;stroke:#000000;stroke-width:16.0686;stroke-linecap:round;stroke-linejoin:round;stroke-miterlimit:10;}
	.st60{fill:#FFFFFF;stroke:#000000;stroke-width:15;stroke-linejoin:round;stroke-miterlimit:10;}
	.st61{fill:url(#);stroke:#000000;stroke-width:13.497;stroke-linecap:round;stroke-linejoin:round;stroke-miterlimit:10;}
	.st62{fill:#06A6FF;}
	.st63{fill:#FF0303;}
	.st64{fill:#3DFF06;}
	.st65{fill:#FFF808;}
	.st66{fill:none;stroke:#000000;stroke-width:0;stroke-linecap:round;stroke-linejoin:round;}
</style>
<g id="unexpanded" class="st0">
	<g class="st1">
		<g>
			<path class="st6" d="M768.94,431.12c-95.37-2.44-208.48-18.23-214.61-16.27c-54.59,17.43-106.28,31.73-106.28,31.73
				l-49.94-119.13l56.39-57.63l84.17,6.18c0,0,106.41-17.73,233.19-21.05"/>
			<g>
				<polygon class="st7" points="463.53,539.39 281.32,139.11 324,117.75 526.34,508.47 				"/>
				<path class="st8" d="M477.31,77.65c-67.54-30.9-104.09-27.29-161.83,1.14c-27.1,13.34-56.63,27.88-56.75,27.94
					c0,0,5.36,21.36-15.4,31.58s-42.17,11.15-42.17,11.15l32.44,65.87c0,0,6.43-20.86,30.75-32.83
					c24.32-11.98,38.72,14.27,38.72,14.27l56.75-27.94C359.83,168.84,369.89,107.94,477.31,77.65z"/>
				
					<rect x="161.9" y="162.33" transform="matrix(0.4418 0.8971 -0.8971 0.4418 285.4212 -91.6106)" class="st8" width="108.84" height="42.43"/>
			</g>
			<path class="st7" d="M400.13,473.58c-13.58,3.09-26.04-5.26-27.45-17.21c-1.43-11.98,6.65-22.79,17.72-25.32
				c22.04-5.09,43.17-13.36,62.73-24.51c9.86-5.53,23.05-2.92,30.09,6.88c7.02,9.76,3.53,24.24-8.56,31.06
				C451.4,457.73,426.3,467.54,400.13,473.58z"/>
			<path class="st7" d="M377.96,434.9c-13.44,2.97-25.78-5.4-27.2-17.37c-1.44-11.99,6.63-22.83,17.74-25.29
				c24.96-5.48,48.89-14.73,70.99-27.4c9.85-5.62,23.07-2.99,30.11,6.83c7.02,9.79,3.62,24.21-8.29,31.03
				C435.35,417.6,407.25,428.46,377.96,434.9z"/>
			<path class="st7" d="M358.73,394.82c-13.44,2.97-25.78-5.4-27.21-17.37c-1.44-11.99,6.63-22.83,17.74-25.29
				c24.91-5.47,48.8-14.7,70.86-27.35c9.85-5.62,23.07-2.99,30.11,6.83c7.02,9.79,3.62,24.21-8.3,31.04
				C416.02,377.54,387.97,388.38,358.73,394.82z"/>
			<path class="st7" d="M351.67,351.83c-13.44,2.97-25.78-5.4-27.2-17.37c-1.44-11.99,6.63-22.83,17.74-25.29
				c24.96-5.48,48.89-14.73,70.99-27.4c9.85-5.62,23.07-2.99,30.11,6.83c7.02,9.79,3.62,24.21-8.29,31.03
				C409.06,334.53,380.96,345.39,351.67,351.83z"/>
			<path class="st6" d="M538.68,276c-13.58-2.72-43.62-35.11-67.63-39.67c-18.98-3.6-50.23-3.33-70.99-1.49
				c-11.5,1.02-18.29,1.16-29.07,9.78c-8.65,6.93-33.73,22.59-43.11,34.17c-6.24,7.7,0.12,15.07,4.69,17.77
				c10.67,6.31,28.43,9.99,44.86,0.68c12.65-7.16,16.91-10.42,16.91-10.42c24.62,18.85,46,18.47,46,18.47s5.78,23.26,41.04,44.66"/>
		</g>
	</g>
	<text transform="matrix(8.979319e-11 -1 1 8.979319e-11 26.8613 443.1503)" class="st1"><tspan x="0" y="0" class="st41 st42">www</tspan><tspan x="45.14" y="0" class="st41 st43"> </tspan><tspan x="46.99" y="0" class="st41 st42">.</tspan><tspan x="51.77" y="0" class="st41 st43"> </tspan><tspan x="53.63" y="0" class="st41 st42">Capitalism</tspan><tspan x="150.43" y="0" class="st41 st44"> </tspan><tspan x="153.9" y="0" class="st41 st42">Is</tspan><tspan x="168.88" y="0" class="st41 st44"> </tspan><tspan x="172.34" y="0" class="st41 st42">A</tspan><tspan x="186.6" y="0" class="st41 st43"> </tspan><tspan x="188.46" y="0" class="st41 st42">Virus</tspan><tspan x="236.15" y="0" class="st41 st43"> </tspan><tspan x="238.01" y="0" class="st41 st42">.</tspan><tspan x="242.79" y="0" class="st41 st43"> </tspan><tspan x="244.64" y="0" class="st41 st42">org</tspan></text>
</g>
<g id="expanded">
	<path d="M551.75,406.76c-19.95,6.37-39.6,12.35-56.46,17.35c-0.13-5.63-1.89-11.1-5.16-15.65c-2.97-4.14-6.75-7.37-10.97-9.61
		l-0.94-1.81c1.28-2.43,2.24-5.03,2.83-7.73c1.72-7.93,0.07-16.17-4.54-22.59c-4.18-5.84-10.12-9.87-16.64-11.85
		c0.78-1.8,1.39-3.66,1.81-5.58c0.17-0.8,0.3-1.6,0.41-2.4c4.33,3.45,9.26,6.93,14.89,10.34c1.38,0.84,2.9,1.23,4.4,1.23
		c2.87,0,5.68-1.46,7.27-4.09c2.44-4.01,1.16-9.24-2.86-11.68c-31.31-19-37.17-39.33-37.2-39.44l-1.41-6.57l-6.93,0.12c0,0,0,0,0,0
		c-0.27,0-19.12-0.17-40.74-16.72l-5.15-3.9l-5.15,3.87c-0.04,0.03-4.24,3.16-15.97,9.8c-13.31,7.54-27.9,4.39-36.34-0.6
		c-1.46-0.86-2.91-2.55-3.1-3.6c-0.02-0.13-0.1-0.53,0.69-1.5c5.92-7.31,20.16-17.35,30.55-24.68c4.6-3.24,8.56-6.04,11.27-8.21
		c8.17-6.54,12.7-6.93,22.63-7.79l1.87-0.16c20.82-1.84,51.09-1.96,68.66,1.37c11.83,2.25,27.16,13.69,39.48,22.89
		c9.53,7.11,17.37,12.96,24.18,15.59l-0.7,0.9l6.64,0.49l1-0.17c1.06-0.18,107.13-17.64,231.66-20.93c0.12,0,0.24-0.01,0.36-0.01
		c4.69-0.12,8.4-4.03,8.27-8.72s-4.04-8.39-8.72-8.27c-116.75,3.06-217.55,18.49-232.46,20.86c-4.38-1.64-12.67-7.83-20.07-13.35
		c-14.44-10.78-30.8-22.99-46.48-25.97c-19.98-3.79-52.01-3.49-73.33-1.61l-1.84,0.16c-2.49,0.21-4.86,0.42-7.18,0.73l-26.61-51.37
		l3.38-1.62l0.67-4.07c0.03-0.14,2.69-14.14,17.53-31.42c25.13-29.27,65.11-45.2,94.23-53.41l21.04-5.93l-19.88-9.09
		c-35.22-16.11-62.39-23.02-88.12-22.4c-24,0.58-48.1,7.65-80.59,23.64L272.2,91.16c-10.03,4.94-16.84,8.29-16.99,8.37l-5.85,2.79
		l1.58,6.3c0.36,1.56,3.12,15.47-11.15,22.5c-4.7,2.31-9.46,4.12-13.97,5.52l-10.84-22.02l-52.49,25.8l55.18,112.05l52.49-25.8
		l-14.31-29.06c3.3-2.81,7.28-5.54,12.06-7.9c16.75-8.24,27.03,8.98,28.13,10.93l3.69,6.73l2.72-1.34l26.94,59.17
		c-3.15,2.8-5.94,5.57-8.1,8.24c-4.7,5.8-4.89,11.48-4.22,15.21c1.28,7.11,6.61,12.53,11.18,15.23c0.69,0.41,1.4,0.8,2.13,1.19
		c-9.87,6.39-15.82,18.17-14.35,30.4c0.93,7.83,5.27,15.01,11.89,19.71c0.38,0.27,0.78,0.51,1.17,0.76
		c-4.63,6.31-6.99,14.31-6.01,22.51c0.93,7.83,5.27,15.01,11.89,19.71c2.9,2.06,6.15,3.56,9.57,4.52
		c-2.04,4.89-2.89,10.32-2.23,15.85c0.93,7.83,5.27,15.01,11.89,19.71c3.48,2.47,7.44,4.15,11.62,5.03
		c-1.56,4.42-2.17,9.22-1.59,14.09c0.92,7.8,5.25,14.96,11.88,19.64c5.31,3.75,11.74,5.71,18.35,5.71c2.5,0,5.04-0.28,7.54-0.85
		l0.02-0.01c7.79-1.8,15.48-3.93,23.06-6.36l34.32,75.39l78.45-38.63l-37.28-71.99c16.65-4.95,35.97-10.82,55.6-17.09
		c4.29-0.12,22.87,1.76,42.5,3.75c43.8,4.44,110,11.15,170.03,12.69c4.7,0.1,8.59-3.59,8.71-8.28c0.12-4.69-3.59-8.59-8.28-8.71
		c-0.03,0-0.05,0-0.08,0c-59.37-1.52-125.14-8.19-168.67-12.61C560.32,405.95,555.31,405.62,551.75,406.76z M317.71,198.52
		l30.72-15.13l25.41,49.06c-2.57,1.42-5.26,3.22-8.15,5.53c-2.3,1.84-6.07,4.5-10.44,7.59c-3.86,2.72-8.03,5.66-12.15,8.71
		L317.71,198.52z M332.91,333.45c-0.89-7.38,4.01-14.4,11.12-15.98c18.5-4.06,36.42-10.12,53.52-18.05
		c12.97,8.18,24.64,11.71,32.54,13.23c-25.06,14.29-52.05,24.68-80.25,30.88l0,0c-4.35,0.96-8.75,0.15-12.08-2.21
		C335,339.37,333.28,336.57,332.91,333.45z M356.9,386.52c-4.35,0.96-8.75,0.16-12.08-2.21c-2.76-1.96-4.48-4.75-4.85-7.87
		c-0.85-7.11,3.67-13.87,10.37-15.77c1.06-0.13,2.12-0.3,3.17-0.53c27.81-6.12,54.51-16.08,79.48-29.64c4,0.48,7.84,2.6,10.34,6.1
		c1.84,2.56,2.46,5.79,1.74,9.08c-0.86,3.93-3.54,7.44-7.36,9.63C412.49,369.77,385.3,380.27,356.9,386.52L356.9,386.52z
		 M376.13,426.6c-4.35,0.96-8.75,0.15-12.08-2.21c-2.76-1.96-4.48-4.75-4.85-7.87c-0.77-6.38,2.79-12.48,8.36-15.04
		c3.57-0.88,7.13-1.81,10.67-2.82c22.94-5.79,44.94-14.67,65.47-26.44c2.14-1.22,4.52-1.81,6.9-1.81c4.61,0,9.22,2.2,12.09,6.21
		c1.84,2.56,2.46,5.79,1.74,9.08c-0.85,3.93-3.54,7.44-7.36,9.63C431.81,409.82,404.58,420.34,376.13,426.6L376.13,426.6z
		 M398.23,465.29c-4.44,1-8.92,0.21-12.3-2.17c-2.74-1.93-4.45-4.68-4.81-7.75c-0.67-5.61,2.04-11.03,6.53-14.02
		c25.71-6.38,50.42-16.06,73.6-28.87c0.96-0.2,1.93-0.3,2.91-0.3c4.64,0,9.28,2.2,12.15,6.2c1.81,2.52,2.42,5.7,1.7,8.96
		c-0.88,3.98-3.62,7.53-7.57,9.75C447.87,449.96,423.57,459.45,398.23,465.29z M514.8,504.67l-47.17,23.23l-26.44-58.09
		c12.96-5.04,25.54-11.02,37.64-17.91c2.29-1.29,4.39-2.84,6.27-4.57L514.8,504.67z"/>
	<polygon points="26.86,404.1 26.86,400.82 17.67,397.92 17.67,400.93 22.88,402.58 22.88,402.66 17.67,404 17.67,406.66 22.88,408 
		22.88,408.08 17.67,409.73 17.67,412.96 17.67,413.05 17.67,415.97 22.88,417.62 22.88,417.71 17.67,419.04 17.67,421.7 
		22.88,423.04 22.88,423.13 17.67,424.78 17.67,428.01 17.67,428.09 17.67,431.02 22.88,432.67 22.88,432.75 17.67,434.09 
		17.67,436.75 22.88,438.09 22.88,438.17 17.67,439.82 17.67,443.14 26.86,440.23 26.86,436.96 21.67,435.62 21.67,435.53 
		26.86,434.19 26.86,430.92 17.8,428.05 26.86,425.19 26.86,421.91 21.67,420.57 21.67,420.49 26.86,419.15 26.86,415.87 
		17.8,413.01 26.86,410.14 26.86,406.86 21.67,405.52 21.67,405.44 	"/>
	<rect x="23.32" y="391.94" width="3.55" height="3.55"/>
	<path d="M21.36,376.05l-0.14,3.36c1.44,0.21,2.78,0.99,2.78,3.01c0,1.92-1.42,3.03-3.63,3.03s-3.63-1.11-3.63-3.03
		c0-2.02,1.34-2.8,2.78-3.01l-0.12-3.36c-3.24,0.25-5.77,2.37-5.77,6.35c0,3.79,2.74,6.66,6.74,6.66s6.74-2.87,6.74-6.66
		C27.11,378.42,24.59,376.3,21.36,376.05z"/>
	<path d="M24.16,366.18h-3.13c-2.56,0-3.61,1.79-3.61,4.23c0,2.76,1.4,4.27,3.42,4.56l0.21-3.09c-0.68-0.14-1.15-0.52-1.15-1.26
		c0-0.8,0.45-1.15,1.22-1.15h0.14l0.43,2.58c0.35,2,1.11,3.28,2.89,3.28c1.57,0,2.49-1.17,2.49-2.97c0-1.46-0.56-2.52-1.63-3.05
		c1.05-0.31,1.63-1.2,1.63-2.33c0-0.95-0.27-1.61-0.6-2.08H24.7c0.1,0.27,0.14,0.47,0.14,0.74
		C24.84,365.97,24.63,366.18,24.16,366.18z M24.92,371.17c0,0.56-0.31,0.93-0.78,0.93c-0.6,0-0.85-0.47-1.01-1.28l-0.25-1.36h0.14
		C24.22,369.46,24.92,370.22,24.92,371.17z"/>
	<path d="M30.16,360.57h-4.86c1.07-0.45,1.81-1.48,1.81-3.03c0-2.7-2.12-4.08-4.84-4.08c-2.7,0-4.84,1.38-4.84,4.08
		c0,1.55,0.74,2.58,1.83,3.03h-1.59v3.34h12.49V360.57z M22.33,360.57H22.2c-1.32,0-2.18-0.72-2.18-1.86c0-1.3,0.93-1.9,2.25-1.9
		c1.34,0,2.27,0.6,2.27,1.9C24.53,359.85,23.67,360.57,22.33,360.57z"/>
	<rect x="13.87" y="348.79" width="2.93" height="3.38"/>
	<rect x="17.67" y="348.81" width="9.19" height="3.34"/>
	<path d="M26.28,340.89h-2.16c0.23,0.56,0.31,1.01,0.31,1.42c0,0.68-0.31,1.05-1.09,1.05h-3.36v-2.39h-2.31v2.39h-2.54v2.1l1.2,0.31
		c0.85,0.23,1.34,0.52,1.48,1.44l0.1,0.68h2.06v-1.24h4.33c2.16,0,2.8-1.46,2.8-3.01C27.11,342.4,26.8,341.59,26.28,340.89z"/>
	<path d="M24.16,331.02h-3.13c-2.56,0-3.61,1.79-3.61,4.23c0,2.76,1.4,4.27,3.42,4.56l0.21-3.09c-0.68-0.14-1.15-0.52-1.15-1.26
		c0-0.8,0.45-1.15,1.22-1.15h0.14l0.43,2.58c0.35,2,1.11,3.28,2.89,3.28c1.57,0,2.49-1.17,2.49-2.97c0-1.46-0.56-2.52-1.63-3.05
		c1.05-0.31,1.63-1.2,1.63-2.33c0-0.95-0.27-1.61-0.6-2.08H24.7c0.1,0.27,0.14,0.47,0.14,0.74
		C24.84,330.81,24.63,331.02,24.16,331.02z M24.92,336.01c0,0.56-0.31,0.93-0.78,0.93c-0.6,0-0.85-0.47-1.01-1.28l-0.25-1.36h0.14
		C24.22,334.3,24.92,335.06,24.92,336.01z"/>
	<rect x="13.87" y="325.41" width="12.99" height="3.34"/>
	<rect x="17.67" y="320.26" width="9.19" height="3.34"/>
	<rect x="13.87" y="320.24" width="2.93" height="3.38"/>
	<path d="M24.06,310.22c-1.79,0-2.72,1.2-3.05,3.26l-0.31,1.79c-0.04,0.31-0.21,0.56-0.52,0.56c-0.41,0-0.66-0.37-0.66-1.01
		c0-1.03,0.41-1.61,1.07-1.73l-0.08-2.74c-1.92,0.19-3.09,1.75-3.09,4.41c0,2.58,1.3,4.16,3.11,4.16c1.88,0,2.6-1.17,2.95-3.4
		l0.21-1.36c0.1-0.64,0.35-0.85,0.7-0.85c0.37,0,0.64,0.39,0.64,1.13c0,1.01-0.43,1.63-1.2,1.75l0.04,2.91
		c2.23-0.19,3.24-2.08,3.24-4.62C27.11,311.87,26,310.22,24.06,310.22z"/>
	<path d="M17.42,302.74c0,1.38,0.62,2.37,1.63,2.87h-1.38v3.34h9.19v-3.34h-4.51c-1.38,0-2.29-0.39-2.29-1.48
		c0-1.01,0.66-1.26,1.92-1.26h4.89v-3.34h-4.51c-1.38,0-2.29-0.37-2.29-1.48c0-1.01,0.66-1.24,1.92-1.24h4.89v-3.34h-5.77
		c-1.92,0-3.67,0.74-3.67,3.28c0,1.55,0.78,2.64,1.81,3.13C18.16,300.27,17.42,301.11,17.42,302.74z"/>
	<rect x="13.87" y="284.71" width="12.99" height="3.5"/>
	<path d="M23.83,280.57l0.04,2.91c2.23-0.19,3.24-2.08,3.24-4.62c0-2.62-1.11-4.27-3.05-4.27c-1.79,0-2.72,1.2-3.05,3.26l-0.31,1.79
		c-0.04,0.31-0.21,0.56-0.52,0.56c-0.41,0-0.66-0.37-0.66-1.01c0-1.03,0.41-1.61,1.07-1.73l-0.08-2.74
		c-1.92,0.19-3.09,1.75-3.09,4.41c0,2.58,1.3,4.16,3.11,4.16c1.88,0,2.6-1.18,2.95-3.4l0.21-1.36c0.1-0.64,0.35-0.85,0.7-0.85
		c0.37,0,0.64,0.39,0.64,1.13C25.03,279.82,24.59,280.44,23.83,280.57z"/>
	<path d="M13.87,265.58l12.99,5.17v-3.52l-2.51-0.97v-5.07l2.51-0.97v-3.73l-12.99,5.17V265.58z M17.89,263.69l3.83-1.48v3.05
		l-3.83-1.48V263.69z"/>
	<polygon points="13.87,250.97 13.87,254.64 26.86,249.65 26.86,245.96 13.87,240.97 13.87,244.46 22.51,247.67 22.51,247.75 	"/>
	<rect x="13.87" y="236.71" width="2.93" height="3.38"/>
	<rect x="17.67" y="236.73" width="9.19" height="3.34"/>
	<path d="M19.3,231.58h-1.63v3.34h9.19v-3.34h-4.21c-1.55,0-2.12-0.76-2.12-2c0-0.64,0.12-1.13,0.39-1.59l-3.15-0.21
		c-0.19,0.23-0.35,0.72-0.35,1.28C17.42,230.28,18.27,231.25,19.3,231.58z"/>
	<path d="M22.57,223.52h-4.91v3.34h5.79c1.92,0,3.65-0.76,3.65-3.28c0-1.38-0.6-2.39-1.63-2.89h1.38v-3.34h-9.19v3.34h4.51
		c1.4,0,2.31,0.41,2.31,1.46C24.49,223.17,23.81,223.52,22.57,223.52z"/>
	<path d="M20.53,216.02c1.88,0,2.6-1.18,2.95-3.4l0.21-1.36c0.1-0.64,0.35-0.85,0.7-0.85c0.37,0,0.64,0.39,0.64,1.13
		c0,1.01-0.43,1.63-1.2,1.75l0.04,2.91c2.23-0.19,3.24-2.08,3.24-4.62c0-2.62-1.11-4.27-3.05-4.27c-1.79,0-2.72,1.2-3.05,3.26
		l-0.31,1.79c-0.04,0.31-0.21,0.56-0.52,0.56c-0.41,0-0.66-0.37-0.66-1.01c0-1.03,0.41-1.61,1.07-1.73l-0.08-2.74
		c-1.92,0.19-3.09,1.75-3.09,4.41C17.42,214.43,18.72,216.02,20.53,216.02z"/>
	<rect x="23.32" y="200.93" width="3.55" height="3.55"/>
	<path d="M22.26,198.04c2.87,0,4.84-2.02,4.84-5.03c0-2.99-1.98-5.03-4.84-5.03c-2.84,0-4.84,2.04-4.84,5.03
		C17.42,196.02,19.42,198.04,22.26,198.04z M22.26,191.34c1.38,0,2.33,0.52,2.33,1.67c0,1.17-0.95,1.67-2.33,1.67
		s-2.33-0.49-2.33-1.67C19.93,191.86,20.88,191.34,22.26,191.34z"/>
	<path d="M17.77,179.53c-0.19,0.23-0.35,0.72-0.35,1.28c0,1.22,0.85,2.19,1.88,2.52h-1.63v3.34h9.19v-3.34h-4.21
		c-1.55,0-2.12-0.76-2.12-2c0-0.64,0.12-1.13,0.39-1.59L17.77,179.53z"/>
	<path d="M27.07,168.86c-1.55,0-2.64,1.05-2.64,3.13v3.81c0,0.56-0.25,0.78-0.56,0.78c-0.19,0-0.33-0.06-0.43-0.19
		c0.19-0.6,0.27-1.26,0.27-2c0-2.6-1.2-4.47-3.13-4.47c-0.43,0-0.83,0.1-1.18,0.29c-0.1-0.45-0.14-0.95-0.14-1.34h-2.52
		c0,1.01,0.66,2.02,1.42,2.58c-0.47,0.78-0.74,1.83-0.74,2.95c0,2.58,1.2,4.43,3.15,4.43c1.01,0,1.79-0.49,2.33-1.32
		c0.37,0.99,1.05,1.57,1.94,1.57c0.78,0,1.53-0.49,1.79-1.32c0.08,1.03,0.72,1.75,1.53,1.75c1.73,0,2.25-2.27,2.25-4.89
		C30.41,171.64,29.36,168.86,27.07,168.86z M20.57,175.33c-0.8,0-1.32-0.41-1.32-0.97c0-0.56,0.52-0.97,1.32-0.97
		c0.82,0,1.34,0.41,1.34,0.97C21.91,174.92,21.4,175.33,20.57,175.33z M27.83,176.77c-0.35,0-0.56-0.25-0.56-0.62v-3.38
		c0-0.56,0.14-0.85,0.54-0.85c0.56,0,0.87,1.13,0.87,2.68C28.68,175.84,28.49,176.77,27.83,176.77z"/>
</g>
</svg>
