<?xml version="1.0" encoding="utf-8"?>
<!-- Generator: Adobe Illustrator 23.1.1, SVG Export Plug-In . SVG Version: 6.00 Build 0)  -->
<svg version="1.1" xmlns="http://www.w3.org/2000/svg" xmlns:xlink="http://www.w3.org/1999/xlink" x="0px" y="0px"
	 viewBox="0 0 792 612" style="enable-background:new 0 0 792 612;" xml:space="preserve">
<style type="text/css">
	.st0{display:none;}
	.st1{display:inline;}
	
		.st2{display:inline;fill:#FFFFFF;stroke:#000000;stroke-width:16;stroke-linecap:round;stroke-linejoin:round;stroke-miterlimit:10;}
	.st3{fill:#FFFFFF;stroke:#000000;stroke-width:16;stroke-linecap:round;stroke-linejoin:round;stroke-miterlimit:10;}
	.st4{display:inline;fill:none;stroke:#000000;stroke-width:24;stroke-linejoin:round;stroke-miterlimit:10;}
	.st5{display:inline;fill:#FFFFFF;}
	.st6{fill:#FFFFFF;stroke:#000000;stroke-width:17;stroke-linecap:round;stroke-miterlimit:10;}
	.st7{fill:#FFFFFF;stroke:#000000;stroke-width:17;stroke-miterlimit:10;}
	.st8{stroke:#000000;stroke-width:16.0572;stroke-linecap:round;stroke-miterlimit:10;}
	.st9{fill:#FFFFFF;}
	.st10{fill:#FFFFFF;stroke:#000000;stroke-width:17.1072;stroke-linecap:round;stroke-linejoin:round;stroke-miterlimit:10;}
	.st11{stroke:#000000;stroke-width:17.1072;stroke-linecap:round;stroke-linejoin:round;stroke-miterlimit:10;}
	.st12{fill:#FFFFFF;stroke:#000000;stroke-width:14.7375;stroke-linecap:round;stroke-linejoin:round;stroke-miterlimit:10;}
	.st13{fill:none;stroke:#000000;stroke-width:14.7375;stroke-linecap:round;stroke-linejoin:round;stroke-miterlimit:10;}
	.st14{stroke:#000000;stroke-width:14.7375;stroke-linecap:round;stroke-linejoin:round;stroke-miterlimit:10;}
	.st15{fill:#FFFFFF;stroke:#000000;stroke-width:14.2911;stroke-linecap:round;stroke-linejoin:round;stroke-miterlimit:10;}
	.st16{fill:none;stroke:#000000;stroke-width:13.497;stroke-miterlimit:10;}
	.st17{fill:#FFFFFF;stroke:#000000;stroke-width:13.497;stroke-linecap:round;stroke-linejoin:round;stroke-miterlimit:10;}
	.st18{fill:#FFFFFF;stroke:#000000;stroke-width:13.497;stroke-miterlimit:10;}
	.st19{fill:#FFFFFF;stroke:#000000;stroke-width:14.7439;stroke-linecap:round;stroke-miterlimit:10;}
	.st20{fill:#FFFFFF;stroke:#000000;stroke-width:14.7439;stroke-miterlimit:10;}
	.st21{stroke:#000000;stroke-width:13.9262;stroke-linecap:round;stroke-miterlimit:10;}
	
		.st22{display:inline;fill:#FFFFFF;stroke:#000000;stroke-width:14.6942;stroke-linecap:round;stroke-linejoin:round;stroke-miterlimit:10;}
	.st23{fill:#FFFFFF;stroke:#000000;stroke-width:14.6942;stroke-linecap:round;stroke-linejoin:round;stroke-miterlimit:10;}
	.st24{fill:none;stroke:#000000;stroke-width:24;stroke-linejoin:round;stroke-miterlimit:10;}
	.st25{fill:none;stroke:#000000;stroke-width:30.5612;stroke-linecap:round;stroke-linejoin:round;stroke-miterlimit:10;}
	.st26{fill:#FFFFFF;stroke:#000000;stroke-width:16.2993;stroke-linecap:round;stroke-linejoin:round;stroke-miterlimit:10;}
	.st27{display:inline;fill:#FFFFFF;stroke:#000000;stroke-width:13.497;stroke-linecap:round;stroke-miterlimit:10;}
	
		.st28{display:inline;fill:none;stroke:#000000;stroke-width:13.497;stroke-linecap:round;stroke-linejoin:round;stroke-miterlimit:10;}
	
		.st29{display:inline;fill:#FFFFFF;stroke:#000000;stroke-width:13.497;stroke-linecap:round;stroke-linejoin:round;stroke-miterlimit:10;}
	
		.st30{display:inline;fill:url(#);stroke:#000000;stroke-width:13.497;stroke-linecap:round;stroke-linejoin:round;stroke-miterlimit:10;}
	.st31{fill:#FFFFFF;stroke:#000000;stroke-width:15.2362;stroke-linecap:round;stroke-linejoin:round;stroke-miterlimit:10;}
	.st32{fill:#FFFFFF;stroke:#000000;stroke-width:14.8467;stroke-linecap:round;stroke-linejoin:round;stroke-miterlimit:10;}
	.st33{stroke:#000000;stroke-width:20.1683;stroke-linecap:round;stroke-miterlimit:10;}
	.st34{fill:none;stroke:#000000;stroke-width:14.8467;stroke-linecap:round;stroke-linejoin:round;stroke-miterlimit:10;}
	.st35{fill:#FFFFFF;stroke:#FFFFFF;stroke-width:3;stroke-miterlimit:10;}
	.st36{display:inline;fill:none;stroke:#000000;stroke-width:15;stroke-linecap:round;stroke-linejoin:round;stroke-miterlimit:10;}
	
		.st37{display:inline;fill:#FFFFFF;stroke:#000000;stroke-width:15;stroke-linecap:round;stroke-linejoin:round;stroke-miterlimit:10;}
	.st38{fill:#FFFFFF;stroke:#000000;stroke-width:15;stroke-linecap:round;stroke-linejoin:round;stroke-miterlimit:10;}
	.st39{fill:#FFFFFF;stroke:#000000;stroke-width:11.7326;stroke-linecap:round;stroke-linejoin:round;stroke-miterlimit:10;}
	.st40{fill:#FFFFFF;stroke:#000000;stroke-width:13.2623;stroke-linecap:round;stroke-linejoin:round;stroke-miterlimit:10;}
	.st41{font-family:'FoundersGrotesk-Bold';}
	.st42{font-size:20.6105px;}
	.st43{font-size:10.3052px;}
	.st44{font-size:19.2364px;}
	.st45{fill:none;stroke:#000000;stroke-width:16;stroke-linecap:round;stroke-miterlimit:10;}
	.st46{fill:url(#);stroke:#000000;stroke-width:16;stroke-linecap:round;stroke-linejoin:round;stroke-miterlimit:10;}
	.st47{fill:#FFFFFF;stroke:#000000;stroke-width:16;stroke-linecap:round;stroke-miterlimit:10;}
	.st48{fill:#FFFFFF;stroke:#000000;stroke-width:13.2623;stroke-linecap:round;stroke-miterlimit:10;}
	.st49{stroke:#000000;stroke-width:4.5213;stroke-miterlimit:10;}
	.st50{fill:none;stroke:#000000;stroke-width:15.2344;stroke-linecap:round;stroke-linejoin:round;stroke-miterlimit:10;}
	.st51{fill:#FFFFFF;stroke:#000000;stroke-width:15.2344;stroke-linecap:round;stroke-linejoin:round;stroke-miterlimit:10;}
	.st52{stroke:#000000;stroke-width:18.3348;stroke-linecap:round;stroke-miterlimit:10;}
	.st53{fill:none;stroke:#000000;stroke-width:13.497;stroke-linecap:round;stroke-linejoin:round;stroke-miterlimit:10;}
	.st54{stroke:#000000;stroke-width:1.5213;stroke-miterlimit:10;}
	.st55{font-family:'FoundersGrotesk-Semibold';}
	.st56{font-size:137.7381px;}
	.st57{letter-spacing:-4;}
	.st58{font-size:10px;}
	.st59{display:inline;fill:none;stroke:#000000;stroke-width:16;stroke-linecap:round;stroke-linejoin:round;stroke-miterlimit:10;}
	.st60{fill:#FFFFFF;stroke:#000000;stroke-width:13.3058;stroke-linecap:round;stroke-linejoin:round;stroke-miterlimit:10;}
	.st61{fill:#FFFFFF;stroke:#000000;stroke-width:17;stroke-linecap:round;stroke-linejoin:round;stroke-miterlimit:10;}
	.st62{fill:#FFFFFF;stroke:#000000;stroke-width:15.2517;stroke-linecap:round;stroke-linejoin:round;stroke-miterlimit:10;}
	.st63{stroke:#000000;stroke-width:3;stroke-miterlimit:10;}
	.st64{fill:#FFFFFF;stroke:#000000;stroke-width:16.0686;stroke-linecap:round;stroke-linejoin:round;stroke-miterlimit:10;}
	.st65{fill:#FFFFFF;stroke:#000000;stroke-width:15;stroke-linejoin:round;stroke-miterlimit:10;}
	.st66{fill:url(#);stroke:#000000;stroke-width:13.497;stroke-linecap:round;stroke-linejoin:round;stroke-miterlimit:10;}
	.st67{fill:#06A6FF;}
	.st68{fill:#FF0303;}
	.st69{fill:#3DFF06;}
	.st70{fill:#FFF808;}
	.st71{fill:none;stroke:#000000;stroke-width:0;stroke-linecap:round;stroke-linejoin:round;}
</style>
<g id="unexpanded" class="st0">
	<text transform="matrix(8.979319e-11 -1 1 8.979319e-11 26.8613 544.682)" class="st1"><tspan x="0" y="0" class="st41 st42">www</tspan><tspan x="45.14" y="0" class="st41 st43"> </tspan><tspan x="46.99" y="0" class="st41 st42">.</tspan><tspan x="51.77" y="0" class="st41 st43"> </tspan><tspan x="53.63" y="0" class="st41 st42">Capitalism</tspan><tspan x="150.43" y="0" class="st41 st44"> </tspan><tspan x="153.9" y="0" class="st41 st42">Is</tspan><tspan x="168.88" y="0" class="st41 st44"> </tspan><tspan x="172.34" y="0" class="st41 st42">A</tspan><tspan x="186.6" y="0" class="st41 st43"> </tspan><tspan x="188.46" y="0" class="st41 st42">Virus</tspan><tspan x="236.15" y="0" class="st41 st43"> </tspan><tspan x="238.01" y="0" class="st41 st42">.</tspan><tspan x="242.79" y="0" class="st41 st43"> </tspan><tspan x="244.64" y="0" class="st41 st42">org</tspan></text>
	<g class="st1">
		<path class="st17" d="M455.08,77.37c0,0,64.79,58.94,70.07,70.52c5.38,11.8,2.59,19.38-2.27,29.28
			c-4.75,9.66-33.01,67.64-33.01,67.64c-4.65,9.68-19.25,12.28-29.49,7.37c-10.23-4.92-16.82-17.77-12.17-27.44l26.04-54.2"/>
		<path class="st17" d="M414.42,202.35c1.84,9.49,11.46,15.61,21.49,13.67s16.68-11.21,14.85-20.7l-12.17-62.92
			c-1.84-9.49-11.46-15.61-21.49-13.67s-16.68,11.21-14.85,20.7L414.42,202.35z"/>
		<path class="st17" d="M244.82,43.45c0,0,172.94,1.67,185.82,3.22c12.88,1.55,31.09,14.67,34.62,29.42
			c2.61,10.91,16.23,52.3,20.96,79.46c1.67,9.57,2.6,16.97,0.08,23.79c-3.72,10.09-25.69,70.74-25.69,70.74
			c-3.6,10.11-17.85,14.25-28.54,10.44s-18.6-15.89-15-26.01l23.88-67.05l-14.8-33.1c-2.03-4.91-34.1-7.67-48.17,10.04"/>
		<path class="st9" d="M382.35,140.12c-3.64,3.06-11.17,11.31-13.38,17.29c-4.68,12.7,29.03,46.3,61.31,80.32
			c23.34,24.59,10.46,49.36,1.54,61.19c-3.42,4.54-9.34,4.08-14.46-1.04c-18.35-18.33-62.97-62.71-86.89-84.7
			c-76.17-22.67-102.5-65.04-102.5-65.04L19,169.46V33.72l225.82,9.73l132.71,2.81"/>
		<polyline class="st17" points="26,34.74 244.82,43.45 423.74,46.26 		"/>
		<g>
			<path class="st52" d="M153.6,532.31c19.47,33.91,56.09,56.67,97.98,56.38c41.89-0.29,78.18-23.57,97.18-57.75L153.6,532.31z"/>
			<g>
				<g>
					<g>
						<path d="M249.03,511.18c-5.1,0-7.61-2.51-8.31-8.03c-0.42-3.26-5.84-49.14-5.84-49.14h-3.01c-4.98,0-9.7-3.24-8.87-9.4
							c0.64-4.76,4.3-36.03,4.77-40.45c0.48-4.41,4.04-8.17,9.02-8.17h14.4h14.39c4.98,0,8.55,3.76,9.02,8.17
							c0.48,4.42,4.14,35.69,4.77,40.45c0.83,6.16-3.88,9.4-8.87,9.4h-3c0,0-5.42,45.88-5.84,49.14c-0.72,5.51-3.83,8.03-8.51,8.03
							h-1.93H249.03z"/>
					</g>
				</g>
				<circle cx="251.18" cy="371.61" r="15.51"/>
			</g>
			<polyline class="st53" points="153.6,532.31 251.43,241.09 348.76,530.94 			"/>
		</g>
		<g>
			<path class="st52" d="M503.01,457.1c19.47,33.91,56.09,56.67,97.98,56.38c41.89-0.29,78.18-23.57,97.18-57.75L503.01,457.1z"/>
			<polyline class="st53" points="503.01,457.1 600.84,165.88 698.17,455.73 			"/>
			<g>
				<text transform="matrix(1 0 0 1 558.2871 409.9404)" class="st54 st55 st56 st57">$</text>
			</g>
		</g>
		<line class="st17" x1="215.3" y1="259.39" x2="636.44" y2="165.37"/>
		<path class="st17" d="M382.35,140.12c-3.64,3.06-11.17,11.31-13.38,17.29c-4.68,12.7,29.03,46.3,61.31,80.32
			c23.34,24.59,10.46,49.36,1.54,61.19c-3.42,4.54-9.34,4.08-14.46-1.04c-18.35-18.33-62.97-62.71-86.89-84.7
			c-76.17-22.67-102.5-65.04-102.5-65.04S70.37,169.26,26,169.48"/>
	</g>
	<text transform="matrix(0 1 -1 0 761.9287 43.2971)" class="st1"><tspan x="0" y="0" class="st41 st42">#</tspan><tspan x="12.7" y="0" class="st41 st58"> </tspan><tspan x="14.5" y="0" class="st41 st42">Capitalism</tspan><tspan x="111.3" y="0" class="st41 st58"> </tspan><tspan x="113.1" y="0" class="st41 st42">Is</tspan><tspan x="128.09" y="0" class="st41 st58"> </tspan><tspan x="129.89" y="0" class="st41 st42">A</tspan><tspan x="144.15" y="0" class="st41 st58"> </tspan><tspan x="145.95" y="0" class="st41 st42">Virus</tspan></text>
</g>
<g id="expanded">
	<polygon points="17.67,541.35 17.67,544.67 26.86,541.77 26.86,538.49 21.67,537.15 21.67,537.06 26.86,535.73 26.86,532.45 
		17.8,529.58 26.86,526.72 26.86,523.44 21.67,522.1 21.67,522.02 26.86,520.68 26.86,517.4 17.8,514.54 26.86,511.67 26.86,508.4 
		21.67,507.06 21.67,506.97 26.86,505.63 26.86,502.36 17.67,499.45 17.67,502.46 22.88,504.11 22.88,504.19 17.67,505.53 
		17.67,508.19 22.88,509.53 22.88,509.61 17.67,511.26 17.67,514.5 17.67,514.58 17.67,517.5 22.88,519.15 22.88,519.24 
		17.67,520.58 17.67,523.24 22.88,524.58 22.88,524.66 17.67,526.31 17.67,529.54 17.67,529.63 17.67,532.55 22.88,534.2 
		22.88,534.28 17.67,535.62 17.67,538.28 22.88,539.62 22.88,539.7 	"/>
	<rect x="23.32" y="493.48" width="3.55" height="3.55"/>
	<path d="M20.37,490.59c4,0,6.74-2.87,6.74-6.66c0-3.98-2.51-6.1-5.75-6.35l-0.14,3.36c1.44,0.21,2.78,0.99,2.78,3.01
		c0,1.92-1.42,3.03-3.63,3.03c-2.21,0-3.63-1.11-3.63-3.03c0-2.02,1.34-2.8,2.78-3.01l-0.12-3.36c-3.24,0.25-5.77,2.37-5.77,6.35
		C13.63,487.73,16.37,490.59,20.37,490.59z"/>
	<path d="M27.07,468.49c0-0.95-0.27-1.61-0.6-2.08H24.7c0.1,0.27,0.14,0.47,0.14,0.74c0,0.35-0.21,0.56-0.68,0.56h-3.13
		c-2.56,0-3.61,1.79-3.61,4.23c0,2.76,1.4,4.27,3.42,4.56l0.21-3.09c-0.68-0.14-1.15-0.52-1.15-1.26c0-0.8,0.45-1.15,1.22-1.15h0.14
		l0.43,2.58c0.35,2,1.11,3.28,2.89,3.28c1.57,0,2.49-1.17,2.49-2.97c0-1.46-0.56-2.52-1.63-3.05
		C26.49,470.51,27.07,469.63,27.07,468.49z M24.14,473.63c-0.6,0-0.85-0.47-1.01-1.28l-0.25-1.36h0.14c1.2,0,1.9,0.76,1.9,1.71
		C24.92,473.26,24.61,473.63,24.14,473.63z"/>
	<path d="M30.16,462.11h-4.87c1.07-0.45,1.81-1.48,1.81-3.03c0-2.7-2.12-4.08-4.84-4.08c-2.7,0-4.84,1.38-4.84,4.08
		c0,1.55,0.74,2.58,1.83,3.03h-1.59v3.34h12.49V462.11z M22.33,462.11H22.2c-1.32,0-2.18-0.72-2.18-1.86c0-1.3,0.93-1.9,2.25-1.9
		c1.34,0,2.27,0.6,2.27,1.9C24.53,461.38,23.67,462.11,22.33,462.11z"/>
	<rect x="17.67" y="450.34" width="9.19" height="3.34"/>
	<rect x="13.87" y="450.32" width="2.93" height="3.38"/>
	<path d="M15.13,447l1.2,0.31c0.84,0.23,1.34,0.52,1.48,1.44l0.1,0.68h2.06v-1.24h4.33c2.17,0,2.8-1.46,2.8-3.01
		c0-1.26-0.31-2.06-0.82-2.76h-2.17c0.23,0.56,0.31,1.01,0.31,1.42c0,0.68-0.31,1.05-1.09,1.05h-3.36v-2.39h-2.31v2.39h-2.54V447z"
		/>
	<path d="M24.16,432.55h-3.13c-2.56,0-3.61,1.79-3.61,4.23c0,2.76,1.4,4.27,3.42,4.56l0.21-3.09c-0.68-0.14-1.15-0.52-1.15-1.26
		c0-0.8,0.45-1.15,1.22-1.15h0.14l0.43,2.58c0.35,2,1.11,3.28,2.89,3.28c1.57,0,2.49-1.18,2.49-2.97c0-1.46-0.56-2.51-1.63-3.05
		c1.05-0.31,1.63-1.2,1.63-2.33c0-0.95-0.27-1.61-0.6-2.08H24.7c0.1,0.27,0.14,0.47,0.14,0.74
		C24.84,432.34,24.63,432.55,24.16,432.55z M24.92,437.54c0,0.56-0.31,0.93-0.78,0.93c-0.6,0-0.85-0.47-1.01-1.28l-0.25-1.36h0.14
		C24.22,435.83,24.92,436.59,24.92,437.54z"/>
	<rect x="13.87" y="426.95" width="12.99" height="3.34"/>
	<rect x="13.87" y="421.77" width="2.93" height="3.38"/>
	<rect x="17.67" y="421.79" width="9.19" height="3.34"/>
	<path d="M20.53,420.45c1.88,0,2.6-1.18,2.95-3.4l0.21-1.36c0.1-0.64,0.35-0.85,0.7-0.85c0.37,0,0.64,0.39,0.64,1.13
		c0,1.01-0.43,1.63-1.2,1.75l0.04,2.91c2.23-0.19,3.24-2.08,3.24-4.62c0-2.62-1.11-4.27-3.05-4.27c-1.79,0-2.72,1.2-3.05,3.26
		l-0.31,1.79c-0.04,0.31-0.21,0.56-0.52,0.56c-0.41,0-0.66-0.37-0.66-1.01c0-1.03,0.41-1.61,1.07-1.73l-0.08-2.74
		c-1.92,0.19-3.09,1.75-3.09,4.41C17.42,418.87,18.72,420.45,20.53,420.45z"/>
	<path d="M17.42,404.27c0,1.38,0.62,2.37,1.63,2.87h-1.38v3.34h9.19v-3.34h-4.51c-1.38,0-2.29-0.39-2.29-1.48
		c0-1.01,0.66-1.26,1.92-1.26h4.89v-3.34h-4.51c-1.38,0-2.29-0.37-2.29-1.48c0-1.01,0.66-1.24,1.92-1.24h4.89V395h-5.77
		c-1.92,0-3.67,0.74-3.67,3.28c0,1.55,0.78,2.64,1.81,3.13C18.16,401.8,17.42,402.64,17.42,404.27z"/>
	<rect x="13.87" y="386.24" width="12.99" height="3.5"/>
	<path d="M23.83,382.1l0.04,2.91c2.23-0.19,3.24-2.08,3.24-4.62c0-2.62-1.11-4.27-3.05-4.27c-1.79,0-2.72,1.2-3.05,3.26l-0.31,1.79
		c-0.04,0.31-0.21,0.56-0.52,0.56c-0.41,0-0.66-0.37-0.66-1.01c0-1.03,0.41-1.61,1.07-1.73l-0.08-2.74
		c-1.92,0.19-3.09,1.75-3.09,4.41c0,2.58,1.3,4.16,3.11,4.16c1.88,0,2.6-1.18,2.95-3.4l0.21-1.36c0.1-0.64,0.35-0.85,0.7-0.85
		c0.37,0,0.64,0.39,0.64,1.13C25.03,381.36,24.59,381.97,23.83,382.1z"/>
	<path d="M26.86,368.76l-2.51-0.97v-5.07l2.51-0.97v-3.73l-12.99,5.17v3.92l12.99,5.17V368.76z M21.73,366.78l-3.83-1.48v-0.08
		l3.83-1.48V366.78z"/>
	<polygon points="26.86,347.49 13.87,342.5 13.87,345.99 22.51,349.2 22.51,349.29 13.87,352.5 13.87,356.17 26.86,351.18 	"/>
	<rect x="17.67" y="338.26" width="9.19" height="3.34"/>
	<rect x="13.87" y="338.24" width="2.93" height="3.38"/>
	<path d="M19.3,333.11h-1.63v3.34h9.19v-3.34h-4.21c-1.55,0-2.12-0.76-2.12-2c0-0.64,0.12-1.13,0.39-1.59l-3.15-0.21
		c-0.19,0.23-0.35,0.72-0.35,1.28C17.42,331.81,18.27,332.78,19.3,333.11z"/>
	<path d="M22.57,325.05h-4.91v3.34h5.79c1.92,0,3.65-0.76,3.65-3.28c0-1.38-0.6-2.39-1.63-2.89h1.38v-3.34h-9.19v3.34h4.51
		c1.4,0,2.31,0.41,2.31,1.46C24.49,324.7,23.81,325.05,22.57,325.05z"/>
	<path d="M24.06,308.85c-1.79,0-2.72,1.2-3.05,3.26l-0.31,1.79c-0.04,0.31-0.21,0.56-0.52,0.56c-0.41,0-0.66-0.37-0.66-1.01
		c0-1.03,0.41-1.61,1.07-1.73l-0.08-2.74c-1.92,0.19-3.09,1.75-3.09,4.41c0,2.58,1.3,4.16,3.11,4.16c1.88,0,2.6-1.17,2.95-3.4
		l0.21-1.36c0.1-0.64,0.35-0.85,0.7-0.85c0.37,0,0.64,0.39,0.64,1.13c0,1.01-0.43,1.63-1.2,1.75l0.04,2.91
		c2.23-0.19,3.24-2.08,3.24-4.62C27.11,310.5,26,308.85,24.06,308.85z"/>
	<rect x="23.32" y="302.46" width="3.55" height="3.55"/>
	<path d="M22.26,289.52c-2.84,0-4.84,2.04-4.84,5.03c0,3.01,2,5.03,4.84,5.03c2.87,0,4.84-2.02,4.84-5.03
		C27.11,291.56,25.13,289.52,22.26,289.52z M22.26,296.21c-1.38,0-2.33-0.49-2.33-1.67c0-1.15,0.95-1.67,2.33-1.67
		c1.38,0,2.33,0.52,2.33,1.67C24.59,295.72,23.65,296.21,22.26,296.21z"/>
	<path d="M17.77,281.07c-0.19,0.23-0.35,0.72-0.35,1.28c0,1.22,0.85,2.18,1.88,2.51h-1.63v3.34h9.19v-3.34h-4.21
		c-1.55,0-2.12-0.76-2.12-2c0-0.64,0.12-1.13,0.39-1.59L17.77,281.07z"/>
	<path d="M18.16,272.99c-0.47,0.78-0.74,1.83-0.74,2.95c0,2.58,1.2,4.43,3.15,4.43c1.01,0,1.79-0.5,2.33-1.32
		c0.37,0.99,1.05,1.57,1.94,1.57c0.78,0,1.53-0.5,1.79-1.32c0.08,1.03,0.72,1.75,1.53,1.75c1.73,0,2.25-2.27,2.25-4.89
		c0-2.99-1.05-5.77-3.34-5.77c-1.55,0-2.64,1.05-2.64,3.13v3.81c0,0.56-0.25,0.78-0.56,0.78c-0.19,0-0.33-0.06-0.43-0.19
		c0.19-0.6,0.27-1.26,0.27-2c0-2.6-1.2-4.47-3.13-4.47c-0.43,0-0.83,0.1-1.18,0.29c-0.1-0.45-0.14-0.95-0.14-1.34h-2.52
		C16.74,271.42,17.4,272.43,18.16,272.99z M27.27,274.31c0-0.56,0.14-0.85,0.54-0.85c0.56,0,0.87,1.13,0.87,2.68
		c0,1.24-0.19,2.17-0.85,2.17c-0.35,0-0.56-0.25-0.56-0.62V274.31z M20.57,274.92c0.82,0,1.34,0.41,1.34,0.97s-0.52,0.97-1.34,0.97
		c-0.8,0-1.32-0.41-1.32-0.97S19.77,274.92,20.57,274.92z"/>
	<path d="M19.33,33.73c-0.04,0.24-0.06,0.49-0.07,0.74c-0.15,3.72,2.75,6.86,6.47,7.01l218.82,8.71c0.05,0,0.11,0,0.16,0L423.63,53
		c0.04,0,0.07,0,0.11,0c0.01,0,0.02,0,0.03,0c2.98,0.12,5.07,0.24,6.06,0.36c10.68,1.28,26.1,12.74,28.86,24.29
		c0.83,3.46,2.63,9.56,4.9,17.28c5.07,17.19,12.74,43.17,15.97,61.77c1.43,8.23,2.37,14.95,0.4,20.29
		c-1.03,2.81-3.5,9.56-6.51,17.84l-38.14,8.51l11.98-33.64c0.58-1.64,0.51-3.43-0.2-5.02l-14.77-33.05
		c-1.66-3.85-6.02-6.23-13.32-7.25c-7.16-1.01-15.56-0.46-23.04,1.5c-5.24,1.37-9.96,3.42-14.05,6.04l0.07,1.44
		c-1.42,0.07-2.82,0.58-3.99,1.56c-3.6,3.02-12.48,12.29-15.37,20.12c-5.45,14.77,15.86,38.11,53.99,78.1
		c2.91,3.05,5.84,6.13,8.76,9.2c18.71,19.72,10.89,39.42,1.05,52.48c-0.32,0.42-0.48,0.43-0.56,0.44c-0.47,0.03-1.94-0.37-3.75-2.19
		c-18.18-18.17-63.07-62.81-87.09-84.89c-0.76-0.69-1.66-1.21-2.64-1.5c-72.44-21.56-98.44-61.75-98.69-62.13
		c-1.4-2.26-3.99-3.48-6.63-3.13c-1.57,0.21-157.68,21.06-201.11,21.29c-3.7,0.02-6.69,3.01-6.71,6.7c0,0.03,0,0.05,0,0.08
		c0.02,3.71,3.04,6.71,6.75,6.71c0.01,0,0.02,0,0.04,0c40.83-0.21,173.28-17.49,198.78-20.87c8.35,11.08,37.74,44.26,102.22,63.83
		c2.24,2.07,4.66,4.33,7.2,6.73l-75.16,16.78l-1.26-3.76c-0.92-2.75-3.5-4.6-6.4-4.6c-2.9,0-5.47,1.85-6.4,4.6l-2.5,7.46l-28.7,6.41
		c-3.64,0.81-5.93,4.42-5.12,8.06c0.7,3.14,3.49,5.28,6.58,5.28c0.49,0,0.98-0.05,1.48-0.16l20.73-4.63l-87.95,261.82l-11.72,0.08
		l7.82,13.62c21.64,37.67,61.87,60.98,105.15,60.98c0.28,0,0.56,0,0.85,0c43.6-0.31,83.88-24.24,105.13-62.46l7.63-13.73
		l-11.61,0.08l-89.38-266.18L346,237.13c23.66,22.75,52.82,51.76,66.59,65.52c3.99,3.98,8.65,6.14,13.22,6.14
		c0.34,0,0.67-0.01,1.01-0.04c4.11-0.29,7.8-2.34,10.39-5.77c5.11-6.78,13.21-20.04,13.04-35.81c0.3-0.09,0.61-0.17,0.91-0.27
		c4.38-1.49,8.14-3.87,10.99-6.86c2.97,0.86,6.11,1.31,9.25,1.31c2.45,0,4.9-0.27,7.28-0.8c7.9-1.79,14.19-6.46,17.23-12.78
		c0.2-0.41,14.26-29.25,24.15-49.5l67.86-15.15l-88.97,264.84l-11.72,0.08l7.82,13.62c21.63,37.67,61.86,60.98,105.15,60.98
		c0.28,0,0.56,0,0.85,0c43.6-0.31,83.88-24.24,105.13-62.46l7.63-13.73l-11.61,0.08l-90.25-268.78l25.96-5.8
		c3.64-0.81,5.93-4.42,5.12-8.06c-0.81-3.64-4.41-5.93-8.06-5.12l-27.34,6.1l-0.39-1.16c-0.92-2.75-3.5-4.6-6.4-4.6
		s-5.47,1.85-6.4,4.6l-1.49,4.44l-65.3,14.58c0.52-1.06,0.95-1.95,1.27-2.6c5.2-10.59,8.97-20.54,2.36-35.05
		c-4.14-9.08-35.6-39.26-56.01-58.29c-1.61-5.48-2.86-9.79-3.45-12.29c-4.18-17.5-24.77-32.67-40.38-34.55
		c-1.2-0.14-3.7-0.29-7.24-0.43c-0.12-0.01-0.24-0.02-0.36-0.02l-0.39-0.01c-36.05-1.41-170.88-2.73-178.46-2.8L26.27,27.99
		C22.79,27.85,19.83,30.37,19.33,33.73z M338.58,521.85l-174.76,1.23l87.6-260.79L338.58,521.85z M600.84,187.07L688,446.63
		l-174.76,1.23L600.84,187.07z M388.36,182.08c-14.16-17.56-13.1-22.17-13.05-22.34c1.07-2.9,4.33-7.18,7.4-10.54
		c0.13-0.13,0.26-0.27,0.38-0.41c1.32-1.42,2.58-2.65,3.6-3.5c0.3-0.25,0.56-0.52,0.8-0.8c2.43-1.85,5.19-3.26,8.05-4.32
		c0.03,0.18,0.06,0.37,0.09,0.55l12.17,62.92c0,0,0,0,0,0c0.05,0.25,0.12,0.49,0.18,0.74C400.57,196.41,393.85,188.9,388.36,182.08z
		 M421.38,202.3c-0.13-0.4-0.25-0.8-0.33-1.22l-12.17-62.92c-0.04-0.22-0.06-0.45-0.09-0.67c5.25-0.32,9.7,0.21,11.82,1l13.08,29.25
		L421.38,202.3z M454.25,247.81c-0.9,2.52-3.25,4.55-6.25,5.83c-2.23-6.71-6.26-13.65-12.81-20.56c-2.53-2.67-5.07-5.33-7.6-7.98
		l2.39-6.72l38.02-8.49C461.3,228.35,454.38,247.45,454.25,247.81z M483.77,241.89c-1.26,2.62-4.19,4.62-8.05,5.5
		c-2.28,0.52-4.72,0.59-7.05,0.27c3.01-8.3,9.44-26.04,14.96-41.25l19.59-4.37C494.1,220.7,483.95,241.52,483.77,241.89z
		 M519,150.69c4.08,8.95,2.47,14.03-2.19,23.5c-1.04,2.12-3.24,6.61-6.02,12.31l-21.7,4.84c1.61-4.43,2.87-7.88,3.54-9.68
		c3.14-8.5,2.02-17.02,0.24-27.28c-2.17-12.48-6.19-27.89-10.15-41.96C501.81,130.77,517.08,146.47,519,150.69z"/>
	<path d="M251.18,396h-14.4c-4.98,0-8.55,3.76-9.02,8.17c-0.47,4.42-4.12,35.69-4.77,40.45c-0.83,6.16,3.89,9.4,8.87,9.4h3.01
		c0,0,5.42,45.88,5.84,49.14c0.71,5.51,3.21,8.03,8.31,8.03h2.18h1.94c4.67,0,7.79-2.51,8.51-8.03c0.42-3.26,5.84-49.14,5.84-49.14
		h3c4.99,0,9.71-3.24,8.87-9.4c-0.63-4.76-4.29-36.03-4.77-40.45c-0.47-4.41-4.04-8.17-9.02-8.17H251.18z"/>
	<path d="M235.67,371.61c0,8.57,6.94,15.51,15.51,15.51s15.51-6.94,15.51-15.51s-6.94-15.51-15.51-15.51
		S235.67,363.05,235.67,371.61z"/>
	<path d="M580.81,378.35l-0.04-0.74l-20.21,0.74v0.73c0,18.29,12.19,30.51,32.64,32.78v12.75h11.85v-12.44
		c19.65-1.28,31.82-11.85,31.82-27.71c0-14.76-8.38-23.13-26.38-26.37l-5.44-0.99v-17.88c6.13,2.16,9.83,7.16,10.19,13.87l0.04,0.74
		l19.81-0.6l-0.01-0.75c-0.28-17.62-11.21-28.98-30.03-31.25v-11.24H593.2v10.93c-19.08,1.49-30.44,11.96-30.44,28.12
		c0,13.84,8.54,22.91,24.04,25.54l6.4,1.13v18.2C585.66,391.67,581.27,386.18,580.81,378.35z M605.05,377.79
		c7.61,1.39,10.6,3.69,10.6,8.05c0,4.86-3.85,8.09-10.6,8.93V377.79z M583.84,347.27c0-5.17,3.06-8.1,9.36-8.93v16.68
		C587.4,353.81,583.84,352,583.84,347.27z"/>
	<path d="M761.93,48.99v2.49l3.42,0.8v2.04l2.06,0.43v-1.98l2.02,0.49v1.88l2.06,0.43v-1.83l3.42,0.82v-2.49l-3.42-0.82v-1.77
		l3.42,0.82v-2.49l-3.42-0.82v-2.02l-2.06-0.43v1.98l-2.02-0.49v-1.88l-2.06-0.43v1.81l-3.42-0.8v2.49l3.42,0.8v1.77L761.93,48.99z
		 M767.41,48.51l2.02,0.49v1.77l-2.02-0.5V48.51z"/>
	<path d="M767.43,71.21l0.14-3.36c-1.44-0.21-2.78-0.99-2.78-3.01c0-1.92,1.42-3.03,3.63-3.03c2.21,0,3.63,1.11,3.63,3.03
		c0,2.02-1.34,2.8-2.78,3.01l0.12,3.36c3.24-0.25,5.77-2.37,5.77-6.35c0-3.79-2.74-6.66-6.74-6.66c-4,0-6.74,2.87-6.74,6.66
		C761.68,68.84,764.2,70.97,767.43,71.21z"/>
	<path d="M764.63,81.08h3.13c2.56,0,3.61-1.79,3.61-4.23c0-2.76-1.4-4.27-3.42-4.56l-0.21,3.09c0.68,0.14,1.15,0.52,1.15,1.26
		c0,0.8-0.45,1.15-1.22,1.15h-0.14l-0.43-2.58c-0.35-2-1.11-3.28-2.89-3.28c-1.57,0-2.49,1.18-2.49,2.97c0,1.46,0.56,2.51,1.63,3.05
		c-1.05,0.31-1.63,1.2-1.63,2.33c0,0.95,0.27,1.61,0.6,2.08h1.77c-0.1-0.27-0.14-0.47-0.14-0.74
		C763.95,81.29,764.16,81.08,764.63,81.08z M763.87,76.1c0-0.56,0.31-0.93,0.78-0.93c0.6,0,0.84,0.47,1.01,1.28l0.25,1.36h-0.14
		C764.57,77.81,763.87,77.04,763.87,76.1z"/>
	<path d="M758.63,86.69h4.86c-1.07,0.45-1.81,1.48-1.81,3.03c0,2.7,2.12,4.08,4.84,4.08c2.7,0,4.84-1.38,4.84-4.08
		c0-1.55-0.74-2.58-1.83-3.03h1.59v-3.34h-12.49V86.69z M766.46,86.69h0.12c1.32,0,2.18,0.72,2.18,1.86c0,1.3-0.93,1.9-2.25,1.9
		c-1.34,0-2.27-0.6-2.27-1.9C764.26,87.41,765.12,86.69,766.46,86.69z"/>
	<rect x="761.93" y="95.12" width="9.19" height="3.34"/>
	<rect x="771.99" y="95.1" width="2.93" height="3.38"/>
	<path d="M762.51,106.37h2.16c-0.23-0.56-0.31-1.01-0.31-1.42c0-0.68,0.31-1.05,1.09-1.05h3.36v2.39h2.31v-2.39h2.54v-2.1l-1.2-0.31
		c-0.85-0.23-1.34-0.52-1.48-1.44l-0.1-0.68h-2.06v1.24h-4.33c-2.16,0-2.8,1.46-2.8,3.01C761.68,104.87,761.99,105.67,762.51,106.37
		z"/>
	<path d="M761.72,115.46c0,0.95,0.27,1.61,0.6,2.08h1.77c-0.1-0.27-0.14-0.47-0.14-0.74c0-0.35,0.21-0.56,0.68-0.56h3.13
		c2.56,0,3.61-1.79,3.61-4.23c0-2.76-1.4-4.27-3.42-4.56l-0.21,3.09c0.68,0.14,1.15,0.52,1.15,1.26c0,0.8-0.45,1.15-1.22,1.15h-0.14
		l-0.43-2.58c-0.35-2-1.11-3.28-2.89-3.28c-1.57,0-2.49,1.17-2.49,2.97c0,1.46,0.56,2.51,1.63,3.05
		C762.3,113.44,761.72,114.33,761.72,115.46z M764.65,110.33c0.6,0,0.84,0.47,1.01,1.28l0.25,1.36h-0.14c-1.2,0-1.9-0.76-1.9-1.71
		C763.87,110.7,764.18,110.33,764.65,110.33z"/>
	<rect x="761.93" y="118.51" width="12.99" height="3.34"/>
	<rect x="761.93" y="123.66" width="9.19" height="3.34"/>
	<rect x="771.99" y="123.64" width="2.93" height="3.38"/>
	<path d="M764.73,137.04c1.79,0,2.72-1.2,3.05-3.26l0.31-1.79c0.04-0.31,0.21-0.56,0.51-0.56c0.41,0,0.66,0.37,0.66,1.01
		c0,1.03-0.41,1.61-1.07,1.73l0.08,2.74c1.92-0.19,3.09-1.75,3.09-4.41c0-2.58-1.3-4.16-3.11-4.16c-1.88,0-2.6,1.17-2.95,3.4
		l-0.21,1.36c-0.1,0.64-0.35,0.85-0.7,0.85c-0.37,0-0.64-0.39-0.64-1.13c0-1.01,0.43-1.63,1.2-1.75l-0.04-2.91
		c-2.23,0.19-3.24,2.08-3.24,4.62C761.68,135.39,762.79,137.04,764.73,137.04z"/>
	<path d="M766.81,150.46h-4.89v3.34h5.77c1.92,0,3.67-0.74,3.67-3.28c0-1.55-0.78-2.64-1.81-3.13c1.07-0.39,1.81-1.24,1.81-2.87
		c0-1.38-0.62-2.37-1.63-2.87h1.38v-3.34h-9.19v3.34h4.51c1.38,0,2.29,0.39,2.29,1.48c0,1.01-0.66,1.26-1.92,1.26h-4.89v3.34h4.51
		c1.38,0,2.29,0.37,2.29,1.48C768.73,150.23,768.07,150.46,766.81,150.46z"/>
	<rect x="761.93" y="157.39" width="12.99" height="3.5"/>
	<path d="M764.73,171.01c1.79,0,2.72-1.2,3.05-3.26l0.31-1.79c0.04-0.31,0.21-0.56,0.51-0.56c0.41,0,0.66,0.37,0.66,1.01
		c0,1.03-0.41,1.61-1.07,1.73l0.08,2.74c1.92-0.19,3.09-1.75,3.09-4.41c0-2.58-1.3-4.16-3.11-4.16c-1.88,0-2.6,1.17-2.95,3.4
		l-0.21,1.36c-0.1,0.64-0.35,0.85-0.7,0.85c-0.37,0-0.64-0.39-0.64-1.13c0-1.01,0.43-1.63,1.2-1.75l-0.04-2.91
		c-2.23,0.19-3.24,2.08-3.24,4.62C761.68,169.36,762.79,171.01,764.73,171.01z"/>
	<path d="M774.92,178.36l-12.99-5.17v3.53l2.51,0.97v5.07l-2.51,0.97v3.73l12.99-5.17V178.36z M770.9,180.25l-3.83,1.48v-3.05
		l3.83,1.48V180.25z"/>
	<polygon points="774.92,192.91 774.92,189.25 761.93,194.23 761.93,197.92 774.92,202.91 774.92,199.43 766.28,196.21 
		766.28,196.13 	"/>
	<rect x="761.93" y="203.82" width="9.19" height="3.34"/>
	<rect x="771.99" y="203.8" width="2.93" height="3.38"/>
	<path d="M771.02,216.1c0.19-0.23,0.35-0.72,0.35-1.28c0-1.22-0.84-2.19-1.88-2.52h1.63v-3.34h-9.19v3.34h4.21
		c1.55,0,2.12,0.76,2.12,2c0,0.64-0.12,1.13-0.39,1.59L771.02,216.1z"/>
	<path d="M763.31,223.19h-1.38v3.34h9.19v-3.34h-4.51c-1.4,0-2.31-0.41-2.31-1.46c0-1.01,0.68-1.36,1.92-1.36h4.91v-3.34h-5.79
		c-1.92,0-3.65,0.76-3.65,3.28C761.68,221.69,762.28,222.7,763.31,223.19z"/>
	<path d="M764.73,236.57c1.79,0,2.72-1.2,3.05-3.26l0.31-1.79c0.04-0.31,0.21-0.56,0.51-0.56c0.41,0,0.66,0.37,0.66,1.01
		c0,1.03-0.41,1.61-1.07,1.73l0.08,2.74c1.92-0.19,3.09-1.75,3.09-4.41c0-2.58-1.3-4.16-3.11-4.16c-1.88,0-2.6,1.18-2.95,3.4
		l-0.21,1.36c-0.1,0.64-0.35,0.84-0.7,0.84c-0.37,0-0.64-0.39-0.64-1.13c0-1.01,0.43-1.63,1.2-1.75l-0.04-2.91
		c-2.23,0.19-3.24,2.08-3.24,4.62C761.68,234.92,762.79,236.57,764.73,236.57z"/>
</g>
</svg>
