<?xml version="1.0" encoding="utf-8"?>
<!-- Generator: Adobe Illustrator 23.1.1, SVG Export Plug-In . SVG Version: 6.00 Build 0)  -->
<svg version="1.1" xmlns="http://www.w3.org/2000/svg" xmlns:xlink="http://www.w3.org/1999/xlink" x="0px" y="0px"
	 viewBox="0 0 792 612" style="enable-background:new 0 0 792 612;" xml:space="preserve">
<style type="text/css">
	.st0{display:none;}
	.st1{display:inline;}
	
		.st2{display:inline;fill:#FFFFFF;stroke:#000000;stroke-width:16;stroke-linecap:round;stroke-linejoin:round;stroke-miterlimit:10;}
	.st3{fill:#FFFFFF;stroke:#000000;stroke-width:16;stroke-linecap:round;stroke-linejoin:round;stroke-miterlimit:10;}
	.st4{display:inline;fill:none;stroke:#000000;stroke-width:24;stroke-linejoin:round;stroke-miterlimit:10;}
	.st5{display:inline;fill:#FFFFFF;}
	.st6{fill:#FFFFFF;stroke:#000000;stroke-width:17;stroke-linecap:round;stroke-miterlimit:10;}
	.st7{fill:#FFFFFF;stroke:#000000;stroke-width:17;stroke-miterlimit:10;}
	.st8{stroke:#000000;stroke-width:16.0572;stroke-linecap:round;stroke-miterlimit:10;}
	.st9{fill:#FFFFFF;}
	.st10{fill:#FFFFFF;stroke:#000000;stroke-width:17.1072;stroke-linecap:round;stroke-linejoin:round;stroke-miterlimit:10;}
	.st11{stroke:#000000;stroke-width:17.1072;stroke-linecap:round;stroke-linejoin:round;stroke-miterlimit:10;}
	.st12{fill:#FFFFFF;stroke:#000000;stroke-width:14.7375;stroke-linecap:round;stroke-linejoin:round;stroke-miterlimit:10;}
	.st13{fill:none;stroke:#000000;stroke-width:14.7375;stroke-linecap:round;stroke-linejoin:round;stroke-miterlimit:10;}
	.st14{stroke:#000000;stroke-width:14.7375;stroke-linecap:round;stroke-linejoin:round;stroke-miterlimit:10;}
	.st15{fill:#FFFFFF;stroke:#000000;stroke-width:14.2911;stroke-linecap:round;stroke-linejoin:round;stroke-miterlimit:10;}
	.st16{font-family:'FoundersGrotesk-Bold';}
	.st17{font-size:20.6105px;}
	.st18{font-size:10.3052px;}
	.st19{font-size:19.2364px;}
	.st20{fill:none;stroke:#000000;stroke-width:13.497;stroke-miterlimit:10;}
	.st21{fill:#FFFFFF;stroke:#000000;stroke-width:13.497;stroke-linecap:round;stroke-linejoin:round;stroke-miterlimit:10;}
	.st22{fill:#FFFFFF;stroke:#000000;stroke-width:13.497;stroke-miterlimit:10;}
	.st23{fill:#FFFFFF;stroke:#000000;stroke-width:14.7439;stroke-linecap:round;stroke-miterlimit:10;}
	.st24{fill:#FFFFFF;stroke:#000000;stroke-width:14.7439;stroke-miterlimit:10;}
	.st25{stroke:#000000;stroke-width:13.9262;stroke-linecap:round;stroke-miterlimit:10;}
	
		.st26{display:inline;fill:#FFFFFF;stroke:#000000;stroke-width:14.6942;stroke-linecap:round;stroke-linejoin:round;stroke-miterlimit:10;}
	.st27{fill:#FFFFFF;stroke:#000000;stroke-width:14.6942;stroke-linecap:round;stroke-linejoin:round;stroke-miterlimit:10;}
	.st28{fill:none;stroke:#000000;stroke-width:24;stroke-linejoin:round;stroke-miterlimit:10;}
	.st29{fill:none;stroke:#000000;stroke-width:30.5612;stroke-linecap:round;stroke-linejoin:round;stroke-miterlimit:10;}
	.st30{fill:#FFFFFF;stroke:#000000;stroke-width:16.2993;stroke-linecap:round;stroke-linejoin:round;stroke-miterlimit:10;}
	.st31{display:inline;fill:#FFFFFF;stroke:#000000;stroke-width:13.497;stroke-linecap:round;stroke-miterlimit:10;}
	
		.st32{display:inline;fill:none;stroke:#000000;stroke-width:13.497;stroke-linecap:round;stroke-linejoin:round;stroke-miterlimit:10;}
	
		.st33{display:inline;fill:#FFFFFF;stroke:#000000;stroke-width:13.497;stroke-linecap:round;stroke-linejoin:round;stroke-miterlimit:10;}
	
		.st34{display:inline;fill:url(#);stroke:#000000;stroke-width:13.497;stroke-linecap:round;stroke-linejoin:round;stroke-miterlimit:10;}
	.st35{fill:#FFFFFF;stroke:#000000;stroke-width:15.2362;stroke-linecap:round;stroke-linejoin:round;stroke-miterlimit:10;}
	.st36{fill:#FFFFFF;stroke:#000000;stroke-width:14.8467;stroke-linecap:round;stroke-linejoin:round;stroke-miterlimit:10;}
	.st37{stroke:#000000;stroke-width:20.1683;stroke-linecap:round;stroke-miterlimit:10;}
	.st38{fill:none;stroke:#000000;stroke-width:14.8467;stroke-linecap:round;stroke-linejoin:round;stroke-miterlimit:10;}
	.st39{fill:#FFFFFF;stroke:#FFFFFF;stroke-width:3;stroke-miterlimit:10;}
	.st40{display:inline;fill:none;stroke:#000000;stroke-width:15;stroke-linecap:round;stroke-linejoin:round;stroke-miterlimit:10;}
	
		.st41{display:inline;fill:#FFFFFF;stroke:#000000;stroke-width:15;stroke-linecap:round;stroke-linejoin:round;stroke-miterlimit:10;}
	.st42{fill:#FFFFFF;stroke:#000000;stroke-width:15;stroke-linecap:round;stroke-linejoin:round;stroke-miterlimit:10;}
	.st43{fill:#FFFFFF;stroke:#000000;stroke-width:11.7326;stroke-linecap:round;stroke-linejoin:round;stroke-miterlimit:10;}
	.st44{fill:#FFFFFF;stroke:#000000;stroke-width:13.2623;stroke-linecap:round;stroke-linejoin:round;stroke-miterlimit:10;}
	.st45{fill:none;stroke:#000000;stroke-width:16;stroke-linecap:round;stroke-miterlimit:10;}
	.st46{fill:url(#);stroke:#000000;stroke-width:16;stroke-linecap:round;stroke-linejoin:round;stroke-miterlimit:10;}
	.st47{fill:#FFFFFF;stroke:#000000;stroke-width:16;stroke-linecap:round;stroke-miterlimit:10;}
	.st48{fill:#FFFFFF;stroke:#000000;stroke-width:13.2623;stroke-linecap:round;stroke-miterlimit:10;}
	.st49{stroke:#000000;stroke-width:4.5213;stroke-miterlimit:10;}
	.st50{fill:none;stroke:#000000;stroke-width:15.2344;stroke-linecap:round;stroke-linejoin:round;stroke-miterlimit:10;}
	.st51{fill:#FFFFFF;stroke:#000000;stroke-width:15.2344;stroke-linecap:round;stroke-linejoin:round;stroke-miterlimit:10;}
	.st52{stroke:#000000;stroke-width:18.3348;stroke-linecap:round;stroke-miterlimit:10;}
	.st53{fill:none;stroke:#000000;stroke-width:13.497;stroke-linecap:round;stroke-linejoin:round;stroke-miterlimit:10;}
	.st54{font-size:10px;}
	.st55{display:inline;fill:none;stroke:#000000;stroke-width:16;stroke-linecap:round;stroke-linejoin:round;stroke-miterlimit:10;}
	.st56{fill:#FFFFFF;stroke:#000000;stroke-width:13.3058;stroke-linecap:round;stroke-linejoin:round;stroke-miterlimit:10;}
	.st57{fill:#FFFFFF;stroke:#000000;stroke-width:17;stroke-linecap:round;stroke-linejoin:round;stroke-miterlimit:10;}
	.st58{fill:#FFFFFF;stroke:#000000;stroke-width:15.2517;stroke-linecap:round;stroke-linejoin:round;stroke-miterlimit:10;}
	.st59{stroke:#000000;stroke-width:3;stroke-miterlimit:10;}
	.st60{fill:#FFFFFF;stroke:#000000;stroke-width:16.0686;stroke-linecap:round;stroke-linejoin:round;stroke-miterlimit:10;}
	.st61{fill:#FFFFFF;stroke:#000000;stroke-width:15;stroke-linejoin:round;stroke-miterlimit:10;}
	.st62{fill:url(#);stroke:#000000;stroke-width:13.497;stroke-linecap:round;stroke-linejoin:round;stroke-miterlimit:10;}
	.st63{fill:#06A6FF;}
	.st64{fill:#FF0303;}
	.st65{fill:#3DFF06;}
	.st66{fill:#FFF808;}
	.st67{fill:none;stroke:#000000;stroke-width:0;stroke-linecap:round;stroke-linejoin:round;}
</style>
<g id="unexpanded" class="st0">
	<text transform="matrix(8.979319e-11 -1 1 8.979319e-11 26.8615 443.1503)" class="st1"><tspan x="0" y="0" class="st16 st17">www</tspan><tspan x="45.14" y="0" class="st16 st18"> </tspan><tspan x="46.99" y="0" class="st16 st17">.</tspan><tspan x="51.77" y="0" class="st16 st18"> </tspan><tspan x="53.63" y="0" class="st16 st17">Capitalism</tspan><tspan x="150.43" y="0" class="st16 st19"> </tspan><tspan x="153.9" y="0" class="st16 st17">Is</tspan><tspan x="168.88" y="0" class="st16 st19"> </tspan><tspan x="172.34" y="0" class="st16 st17">A</tspan><tspan x="186.6" y="0" class="st16 st18"> </tspan><tspan x="188.46" y="0" class="st16 st17">Virus</tspan><tspan x="236.15" y="0" class="st16 st18"> </tspan><tspan x="238.01" y="0" class="st16 st17">.</tspan><tspan x="242.79" y="0" class="st16 st18"> </tspan><tspan x="244.64" y="0" class="st16 st17">org</tspan></text>
	<g class="st1">
		<g>
			<path class="st9" d="M291.55,343.07l16.99,30.03l23.55-38.85l37.52-3.75l69.67,21.88c0,0,46.4,18.97,77.02,38.13
				s35.12,12.58,35.12,12.58l220.82-15.75c0,0,2.17,146.44-5.58,147.49c-12.09,1.65-174.64-5.67-182.2-2.2
				c-2.39,0.99-25.34,33.76-96.54,24.15c-44.79-8.34-71.19-9.6-71.19-9.6l-44.5-3.67l-79.27-70.52l-18.86-43.81
				c0,0-45.05-103.71-41.51-113.23c3.55-9.52,20.95-29.33,32.53-13.94C272.91,309.52,291.55,343.07,291.55,343.07z"/>
			<path class="st50" d="M453.36,450c18.51,8.19,38.39,15.55,59.72,21.81"/>
			<path class="st50" d="M226.13,222.93c0,0,19.87,72.35,90.38,140.99"/>
			<path class="st51" d="M305.28,465c-22.18-17.23-29.06-31.46-38.2-50.22c-9.14-18.76-31.1-62.4-39.44-81.75
				c-14.4-33.42,25.54-49.1,39.34-21.44c11.95,23.95,54.11,91.64,54.11,91.64"/>
			<path class="st51" d="M421.3,546.85c-14.11,4.06-39.22-0.73-66.77-14.09c-13.67-6.63-37.32-17.22-50.62-34.54
				c-13.51-17.6-14.06-38.85-12.2-47.75c3.68-17.66,10.74-55.79,15.18-77.46c6.35-30.96,49.29-29.19,43.45,12.37
				c-4.07,28.93-9.13,65.8-9.13,65.8"/>
			<path class="st51" d="M458.78,553.07c-37.48,0.85-108.31-46.98-116.94-66.86c-8.63-19.88,6.4-59.96,16.61-82.29
				c10.2-22.33,22.04-32.72,39.47-46.1c24.92-19.14,53.49,11.01,28.64,34.12l-18.44,23.01l-13.91,31.18"/>
			<path class="st50" d="M772.24,387.34c0,0-211.33,16.45-230.16,15.93c-26.95-25.21-195.83-94.39-209.99-69.02
				c-2.22,3.98-2.87,8.61-2.23,13.61"/>
			<path class="st51" d="M466.58,480.06c-14.91-13.27-25.27-16.85-25.27-16.85l7.87-19.71c33.97-17.41,14.71-53.18-18.66-39.81
				c-24.72,9.9-39.79,45.49-42.6,63.42c-2.72,17.33,23.4,64.17,70.87,85.96c27.23,12.5,77.28,9.31,125.68-20.43l187.78,2.41"/>
			<path d="M280.08,313.74c0,0-20.62-48.69,10.97-78.47s70.83-15.61,74.42-56.14c39.54,45.87,6.76,102.64-22.21,117.53
				C317.54,309.89,296.2,302.03,280.08,313.74z"/>
			<g>
				<path class="st51" d="M133.18,109.72c-0.27-9.16,2.8-15.81,8.22-18.53l7.15-1.72c6.3-24.87,33.19-30.78,46.39-11.56
					c-0.1,0.18-0.22,0.31-0.32,0.47c0,0,10.04-11.6,9.13-15.61c12.24-4.38,24.44-3.49,31.71,5.79l2.81-0.67
					c0,0,22.95,0.89,43.18,24.58c15.35,17.98,24.58,51.14,15.64,72.93l0.02,0.01c0,0-32.7,108.02-133.02,66.95
					c-30.99-12.69-42.47-34.8-44.34-68.4C118.03,132.86,130.61,112.13,133.18,109.72z"/>
				<path class="st51" d="M141.41,91.18c-13.62,6.85-12.81,38.19,20.22,72.87c52.96,55.6,121.07,17.83,121.07,17.83
					c28.67-15.6,18.99-65.72-1.24-89.42c-20.23-23.69-43.18-24.58-43.18-24.58"/>
				<path class="st51" d="M146.08,92.16c0,0,35.45,5.66,51.41-21.63C186.66,44.52,138.7,54.76,146.08,92.16z"/>
				<path class="st50" d="M141.44,121.5c27.4,11.18,50.61,1.23,58.99-14.34c8.86-16.45,6.14-32.06,3.32-44.4
					c18.23-6.52,36.67-1.81,38.29,25.8s-23.87,82.15-84.66,70.33"/>
				<path class="st50" d="M297.12,165.4c0,0-33.1,110.06-133.02,66.94c-67.76-29.24-39.2-113.22-33.6-119.77"/>
			</g>
		</g>
	</g>
	<text transform="matrix(0 1 -1 0 761.9287 63.73)" class="st1"><tspan x="0" y="0" class="st16 st17">#</tspan><tspan x="12.7" y="0" class="st16 st54"> </tspan><tspan x="14.5" y="0" class="st16 st17">Capitalism</tspan><tspan x="111.3" y="0" class="st16 st54"> </tspan><tspan x="113.1" y="0" class="st16 st17">Is</tspan><tspan x="128.09" y="0" class="st16 st54"> </tspan><tspan x="129.89" y="0" class="st16 st17">A</tspan><tspan x="144.15" y="0" class="st16 st54"> </tspan><tspan x="145.95" y="0" class="st16 st17">Virus</tspan></text>
</g>
<g id="expanded">
	<polygon points="26.86,404.1 26.86,400.82 17.67,397.92 17.67,400.93 22.88,402.58 22.88,402.66 17.67,404 17.67,406.66 22.88,408 
		22.88,408.08 17.67,409.73 17.67,412.96 17.67,413.05 17.67,415.97 22.88,417.62 22.88,417.71 17.67,419.04 17.67,421.7 
		22.88,423.04 22.88,423.13 17.67,424.78 17.67,428.01 17.67,428.09 17.67,431.02 22.88,432.67 22.88,432.75 17.67,434.09 
		17.67,436.75 22.88,438.09 22.88,438.17 17.67,439.82 17.67,443.14 26.86,440.23 26.86,436.96 21.67,435.62 21.67,435.53 
		26.86,434.19 26.86,430.92 17.8,428.05 26.86,425.19 26.86,421.91 21.67,420.57 21.67,420.49 26.86,419.15 26.86,415.87 
		17.8,413.01 26.86,410.14 26.86,406.86 21.67,405.52 21.67,405.44 	"/>
	<rect x="23.32" y="391.94" width="3.55" height="3.55"/>
	<path d="M21.36,376.05l-0.14,3.36c1.44,0.21,2.78,0.99,2.78,3.01c0,1.92-1.42,3.03-3.63,3.03c-2.21,0-3.63-1.11-3.63-3.03
		c0-2.02,1.34-2.8,2.78-3.01l-0.12-3.36c-3.24,0.25-5.77,2.37-5.77,6.35c0,3.79,2.74,6.66,6.74,6.66c4,0,6.74-2.87,6.74-6.66
		C27.11,378.42,24.59,376.3,21.36,376.05z"/>
	<path d="M24.16,366.18h-3.13c-2.56,0-3.61,1.79-3.61,4.23c0,2.76,1.4,4.27,3.42,4.56l0.21-3.09c-0.68-0.14-1.15-0.52-1.15-1.26
		c0-0.8,0.45-1.15,1.22-1.15h0.14l0.43,2.58c0.35,2,1.11,3.28,2.89,3.28c1.57,0,2.49-1.17,2.49-2.97c0-1.46-0.56-2.52-1.63-3.05
		c1.05-0.31,1.63-1.2,1.63-2.33c0-0.95-0.27-1.61-0.6-2.08H24.7c0.1,0.27,0.14,0.47,0.14,0.74
		C24.84,365.97,24.64,366.18,24.16,366.18z M24.92,371.17c0,0.56-0.31,0.93-0.78,0.93c-0.6,0-0.85-0.47-1.01-1.28l-0.25-1.36h0.14
		C24.22,369.46,24.92,370.22,24.92,371.17z"/>
	<path d="M30.16,360.57h-4.86c1.07-0.45,1.81-1.48,1.81-3.03c0-2.7-2.12-4.08-4.84-4.08c-2.7,0-4.84,1.38-4.84,4.08
		c0,1.55,0.74,2.58,1.83,3.03h-1.59v3.34h12.49V360.57z M22.33,360.57H22.2c-1.32,0-2.19-0.72-2.19-1.86c0-1.3,0.93-1.9,2.25-1.9
		c1.34,0,2.27,0.6,2.27,1.9C24.53,359.85,23.67,360.57,22.33,360.57z"/>
	<rect x="13.87" y="348.79" width="2.93" height="3.38"/>
	<rect x="17.67" y="348.81" width="9.19" height="3.34"/>
	<path d="M26.28,340.89h-2.16c0.23,0.56,0.31,1.01,0.31,1.42c0,0.68-0.31,1.05-1.09,1.05h-3.36v-2.39h-2.31v2.39h-2.54v2.1l1.2,0.31
		c0.85,0.23,1.34,0.52,1.48,1.44l0.1,0.68h2.06v-1.24h4.33c2.16,0,2.8-1.46,2.8-3.01C27.11,342.4,26.8,341.59,26.28,340.89z"/>
	<path d="M27.07,331.8c0-0.95-0.27-1.61-0.6-2.08H24.7c0.1,0.27,0.14,0.47,0.14,0.74c0,0.35-0.21,0.56-0.68,0.56h-3.13
		c-2.56,0-3.61,1.79-3.61,4.23c0,2.76,1.4,4.27,3.42,4.56l0.21-3.09c-0.68-0.14-1.15-0.52-1.15-1.26c0-0.8,0.45-1.15,1.22-1.15h0.14
		l0.43,2.58c0.35,2,1.11,3.28,2.89,3.28c1.57,0,2.49-1.17,2.49-2.97c0-1.46-0.56-2.52-1.63-3.05
		C26.49,333.82,27.07,332.94,27.07,331.8z M24.14,336.93c-0.6,0-0.85-0.47-1.01-1.28l-0.25-1.36h0.14c1.2,0,1.9,0.76,1.9,1.71
		C24.92,336.56,24.61,336.93,24.14,336.93z"/>
	<rect x="13.87" y="325.41" width="12.99" height="3.34"/>
	<rect x="17.67" y="320.26" width="9.19" height="3.34"/>
	<rect x="13.87" y="320.24" width="2.93" height="3.38"/>
	<path d="M24.06,310.22c-1.79,0-2.72,1.2-3.05,3.26l-0.31,1.79c-0.04,0.31-0.21,0.56-0.52,0.56c-0.41,0-0.66-0.37-0.66-1.01
		c0-1.03,0.41-1.61,1.07-1.73l-0.08-2.74c-1.92,0.19-3.09,1.75-3.09,4.41c0,2.58,1.3,4.16,3.11,4.16c1.88,0,2.6-1.17,2.95-3.4
		l0.21-1.36c0.1-0.64,0.35-0.85,0.7-0.85c0.37,0,0.64,0.39,0.64,1.13c0,1.01-0.43,1.63-1.2,1.75l0.04,2.91
		c2.23-0.19,3.24-2.08,3.24-4.62C27.11,311.87,26,310.22,24.06,310.22z"/>
	<path d="M21.98,296.8h4.89v-3.34h-5.77c-1.92,0-3.67,0.74-3.67,3.28c0,1.55,0.78,2.64,1.81,3.13c-1.07,0.39-1.81,1.24-1.81,2.87
		c0,1.38,0.62,2.37,1.63,2.87h-1.38v3.34h9.19v-3.34h-4.51c-1.38,0-2.29-0.39-2.29-1.48c0-1.01,0.66-1.26,1.92-1.26h4.89v-3.34
		h-4.51c-1.38,0-2.29-0.37-2.29-1.48C20.06,297.03,20.72,296.8,21.98,296.8z"/>
	<rect x="13.87" y="284.71" width="12.99" height="3.5"/>
	<path d="M24.06,274.59c-1.79,0-2.72,1.2-3.05,3.26l-0.31,1.79c-0.04,0.31-0.21,0.56-0.52,0.56c-0.41,0-0.66-0.37-0.66-1.01
		c0-1.03,0.41-1.61,1.07-1.73l-0.08-2.74c-1.92,0.19-3.09,1.75-3.09,4.41c0,2.58,1.3,4.16,3.11,4.16c1.88,0,2.6-1.18,2.95-3.4
		l0.21-1.36c0.1-0.64,0.35-0.85,0.7-0.85c0.37,0,0.64,0.39,0.64,1.13c0,1.01-0.43,1.63-1.2,1.75l0.04,2.91
		c2.23-0.19,3.24-2.08,3.24-4.62C27.11,276.24,26,274.59,24.06,274.59z"/>
	<path d="M26.86,260.22v-3.73l-12.99,5.17v3.92l12.99,5.17v-3.52l-2.51-0.97v-5.07L26.86,260.22z M21.73,265.25l-3.83-1.48v-0.08
		l3.83-1.48V265.25z"/>
	<polygon points="13.87,244.46 22.51,247.67 22.51,247.75 13.87,250.97 13.87,254.64 26.86,249.65 26.86,245.96 13.87,240.97 	"/>
	<rect x="13.87" y="236.71" width="2.93" height="3.38"/>
	<rect x="17.67" y="236.73" width="9.19" height="3.34"/>
	<path d="M19.3,231.58h-1.63v3.34h9.19v-3.34h-4.21c-1.55,0-2.12-0.76-2.12-2c0-0.64,0.12-1.13,0.39-1.59l-3.15-0.21
		c-0.19,0.23-0.35,0.72-0.35,1.28C17.42,230.28,18.27,231.25,19.3,231.58z"/>
	<path d="M22.57,223.52h-4.91v3.34h5.79c1.92,0,3.65-0.76,3.65-3.28c0-1.38-0.6-2.39-1.63-2.89h1.38v-3.34h-9.19v3.34h4.51
		c1.4,0,2.31,0.41,2.31,1.46C24.49,223.17,23.81,223.52,22.57,223.52z"/>
	<path d="M20.53,216.02c1.88,0,2.6-1.18,2.95-3.4l0.21-1.36c0.1-0.64,0.35-0.85,0.7-0.85c0.37,0,0.64,0.39,0.64,1.13
		c0,1.01-0.43,1.63-1.2,1.75l0.04,2.91c2.23-0.19,3.24-2.08,3.24-4.62c0-2.62-1.11-4.27-3.05-4.27c-1.79,0-2.72,1.2-3.05,3.26
		l-0.31,1.79c-0.04,0.31-0.21,0.56-0.52,0.56c-0.41,0-0.66-0.37-0.66-1.01c0-1.03,0.41-1.61,1.07-1.73l-0.08-2.74
		c-1.92,0.19-3.09,1.75-3.09,4.41C17.42,214.43,18.72,216.02,20.53,216.02z"/>
	<rect x="23.32" y="200.93" width="3.55" height="3.55"/>
	<path d="M22.26,198.04c2.87,0,4.84-2.02,4.84-5.03c0-2.99-1.98-5.03-4.84-5.03c-2.84,0-4.84,2.04-4.84,5.03
		C17.42,196.02,19.42,198.04,22.26,198.04z M22.26,191.34c1.38,0,2.33,0.52,2.33,1.67c0,1.17-0.95,1.67-2.33,1.67
		c-1.38,0-2.33-0.49-2.33-1.67C19.94,191.86,20.88,191.34,22.26,191.34z"/>
	<path d="M17.77,179.53c-0.19,0.23-0.35,0.72-0.35,1.28c0,1.22,0.85,2.19,1.88,2.52h-1.63v3.34h9.19v-3.34h-4.21
		c-1.55,0-2.12-0.76-2.12-2c0-0.64,0.12-1.13,0.39-1.59L17.77,179.53z"/>
	<path d="M27.07,168.86c-1.55,0-2.64,1.05-2.64,3.13v3.81c0,0.56-0.25,0.78-0.56,0.78c-0.19,0-0.33-0.06-0.43-0.19
		c0.19-0.6,0.27-1.26,0.27-2c0-2.6-1.2-4.47-3.13-4.47c-0.43,0-0.82,0.1-1.18,0.29c-0.1-0.45-0.14-0.95-0.14-1.34h-2.52
		c0,1.01,0.66,2.02,1.42,2.58c-0.47,0.78-0.74,1.83-0.74,2.95c0,2.58,1.2,4.43,3.15,4.43c1.01,0,1.79-0.49,2.33-1.32
		c0.37,0.99,1.05,1.57,1.94,1.57c0.78,0,1.53-0.49,1.79-1.32c0.08,1.03,0.72,1.75,1.53,1.75c1.73,0,2.25-2.27,2.25-4.89
		C30.41,171.64,29.36,168.86,27.07,168.86z M20.57,175.33c-0.8,0-1.32-0.41-1.32-0.97c0-0.56,0.52-0.97,1.32-0.97
		c0.82,0,1.34,0.41,1.34,0.97C21.91,174.92,21.4,175.33,20.57,175.33z M27.83,176.77c-0.35,0-0.56-0.25-0.56-0.62v-3.38
		c0-0.56,0.14-0.85,0.54-0.85c0.56,0,0.87,1.13,0.87,2.68C28.68,175.84,28.49,176.77,27.83,176.77z"/>
	<path d="M779.83,386.75c-0.33-4.19-3.99-7.33-8.19-7c-69.77,5.43-202.51,15.39-226.73,15.9c-16.59-13.55-59.9-33.67-94.74-47.25
		c-24.17-9.42-83.27-30.88-109.85-26.73c-7.23,1.13-12.24,4.11-14.89,8.87c-2.43,4.36-3.56,9.31-3.39,14.74
		c-3.13,0.9-6.19,2.34-9.01,4.33c-11.98-12.48-22.32-24.99-31.19-37.05c15.9-9.99,36.62-3.15,61.41-15.89
		c28.97-14.89,61.75-71.67,22.21-117.53c-3.59,40.53-42.83,26.35-74.42,56.14c-24.3,22.91-17.71,57-13.37,71.52
		c-17.77-25.14-29.16-47.9-35.92-63.67c0.77-0.33,1.53-0.67,2.29-1.02c41.63-19.38,58.17-67.61,60.17-73.9
		c1.29-3.17,2.29-6.59,2.97-10.25c4.15-22.42-4.24-52.05-19.94-70.43c-22.14-25.93-47.61-27.21-48.68-27.25c-0.02,0-0.04,0-0.06,0
		c-0.01,0-0.03,0-0.04,0c-1.2-1.12-2.4-2.04-3.56-2.8c-8.14-5.39-18.99-6.35-30.8-2.82c-0.09,0.03-0.18,0.05-0.27,0.08
		c-0.88,0.27-1.77,0.56-2.66,0.87c-0.37,0.13-0.71,0.29-1.05,0.47c-0.04,0.02-0.08,0.04-0.12,0.06c-0.32,0.18-0.61,0.38-0.9,0.59
		c-0.05,0.04-0.09,0.07-0.14,0.11c-0.28,0.22-0.54,0.46-0.78,0.72c-0.03,0.03-0.05,0.06-0.08,0.09c-0.05,0.05-0.09,0.1-0.14,0.16
		c-3.12-3.14-6.94-5.59-11.28-7.19c-7.3-2.69-15.65-2.86-23.5-0.48c-8.41,2.55-15.52,7.84-20.02,14.9
		c-3.62,5.68-5.46,12.31-5.48,19.5c-0.34,0.18-0.68,0.36-1.01,0.56c-0.14,0.08-0.27,0.17-0.41,0.26c-0.27,0.17-0.54,0.34-0.8,0.53
		c-0.17,0.12-0.33,0.24-0.5,0.36c-0.22,0.16-0.43,0.33-0.65,0.5c-0.17,0.14-0.34,0.28-0.5,0.42c-0.21,0.18-0.41,0.37-0.61,0.56
		c-0.15,0.14-0.3,0.28-0.45,0.42c-0.33,0.33-0.64,0.66-0.95,1.01c-0.02,0.02-0.03,0.04-0.05,0.06c-0.32,0.37-0.63,0.76-0.94,1.16
		c-0.04,0.05-0.08,0.11-0.12,0.16c-0.29,0.39-0.56,0.78-0.82,1.19c-0.01,0.01-0.01,0.02-0.02,0.03c-1.86,2.9-3.18,6.35-3.86,10.26
		c-0.2,1.13-0.4,2.73-0.46,4.77c-0.3,0.26-0.59,0.53-0.85,0.84c-1.87,2.19-4.47,7.72-6.82,15.35c-3.72,10.52-6.67,24.76-5.74,41.39
		c0.02,0.41,0.06,0.81,0.08,1.21c0.23,6.3,1,12.72,2.46,19.02c0.25,1.1,0.54,2.18,0.83,3.26c6.29,25.1,20.94,41.39,45.69,51.53
		c0.02,0.01,0.05,0.02,0.07,0.03c16.38,7.04,31.99,10.57,46.7,10.57c6.55,0,12.93-0.7,19.12-2.1c4.67,11.1,11.55,25.58,21.28,41.96
		c-5.03-0.44-10.11,0.44-14.8,2.61c-12.73,5.91-22.21,22.07-12.94,43.58c6.35,14.73,20.5,43.37,30.83,64.28
		c3.44,6.96,6.49,13.14,8.76,17.79l0.11,0.22c6.58,13.52,12.2,25.04,23.11,37.03c-0.7,11.75,1.68,30.91,14.42,47.5
		c13.52,17.61,35.77,28.31,50.5,35.39c0.99,0.47,1.94,0.93,2.84,1.37c21.81,10.58,42.66,16.25,58.68,16.25
		c5.02,0,9.57-0.56,13.52-1.7c0.55-0.16,1.06-0.37,1.54-0.63c10.78,4.06,22.09,7.03,32.24,7.14c10.24,4.37,23.38,6.93,38.42,6.93
		c26.33,0,58.46-7.81,90.94-27.33l185.6,2.38c4.18,0.06,7.66-3.31,7.71-7.52c0.05-4.21-3.31-7.66-7.52-7.71l-3.09-0.04l-184.69-2.37
		c-1.45-0.02-2.86,0.37-4.09,1.13c-47.61,29.26-94.8,30.88-118.51,20c-44.94-20.63-68.58-64.75-66.52-77.85
		c2.47-15.75,16.13-48.8,37.91-57.53c9.59-3.84,21.29-3.33,25.11,5.06c3.22,7.07-1.79,15.28-12.76,20.9
		c-1.64,0.84-2.92,2.24-3.6,3.95l-7.87,19.71c-0.77,1.93-0.74,4.09,0.12,5.98c0.87,1.89,2.44,3.34,4.41,4.02
		c0.09,0.03,9.41,3.49,22.75,15.36c3.14,2.8,7.96,2.52,10.75-0.63c2.8-3.14,2.52-7.96-0.63-10.75
		c-8.52-7.58-15.68-12.23-20.62-14.96l0.72-1.81c18.95,8.31,38.85,15.55,59.19,21.52c0.72,0.21,1.44,0.31,2.15,0.31
		c3.29,0,6.33-2.15,7.31-5.48c1.18-4.04-1.13-8.27-5.17-9.45c-18.6-5.46-36.81-12.01-54.22-19.49c4.99-3.88,8.75-8.42,11.04-13.41
		c3.35-7.29,3.45-15.13,0.28-22.09c-5.22-11.46-19.35-19.5-37.49-15.17c5.17-5.84,8.2-12.41,8.8-19.23
		c0.42-4.77-0.38-9.46-2.27-13.74c42.41,16.29,83.78,36.48,95.51,47.45c1.36,1.27,3.13,2,4.99,2.05c0.31,0.01,0.67,0.01,1.08,0.01
		c24.18,0,215.63-14.85,229.39-15.92c0.2-0.02,0.37-0.03,0.5-0.04C777.02,394.61,780.16,390.94,779.83,386.75z M249.64,88.12
		c-0.23-3.85-0.76-7.25-1.51-10.28c7.38,2.6,17.72,8.08,27.53,19.57c12.76,14.94,19.87,39.78,16.55,57.77
		c-0.46,2.51-1.12,4.82-1.96,6.94c-0.12,0.26-0.23,0.52-0.33,0.8c-2.34,5.49-5.99,9.62-10.92,12.3
		c-0.16,0.09-15.92,8.72-37.78,11.02c-24.28,2.56-45.74-3.55-63.99-18.16c20.68-0.86,35.29-9.41,44.59-17.55
		C242.4,132.54,250.66,105.57,249.64,88.12z M207.14,110.78c8.67-16.09,7.56-31.66,5.56-42.54c4.62-0.79,9.91-0.63,14.07,2.41
		l0.29-0.07c5.41,4.04,7.01,12.19,7.38,18.44c0.84,14.3-6.67,36.08-22.63,50.05c-13.6,11.9-30.73,16.15-50.92,12.71
		c-6-7.18-10.45-14.01-13.6-20.25C175.15,139.21,198.03,127.69,207.14,110.78z M167.63,64.71c7.34-2.23,16.24-0.89,20.97,5.46
		c-5.44,7.2-13.41,11.85-23.74,13.84c-4.53,0.87-8.72,1.06-11.87,1.01C152.96,76.6,156.75,68.01,167.63,64.71z M141.04,104.62
		c0.26-1.47,0.87-3.81,2.24-5.4c0.51,0.2,1.03,0.37,1.59,0.46c0.47,0.07,3.93,0.6,9.07,0.6c11.47,0,31.31-2.6,44.9-18.54
		c0.16,7.02-1.07,14.29-5.13,21.82c-8.9,16.54-32.1,17.95-49.4,10.89c-1.03-0.42-2.09-0.59-3.13-0.56
		C140.61,110.28,140.6,107.16,141.04,104.62z M167.1,225.34c-18.88-8.15-31.19-21.75-36.58-40.4c-0.22-0.76-0.42-1.53-0.61-2.29
		c-1.21-5.28-2-11.08-2.43-17.45c-0.45-12.1,1.39-23.62,3.56-32.37c4.36,10.35,11.98,22.72,25.08,36.47
		c24.81,26.05,52.76,32.72,74.87,32.72c4.17,0,8.14-0.24,11.84-0.63c13.04-1.38,24.16-4.72,31.9-7.65
		c-8.25,12.45-20.18,25.7-36.5,33.45C217.77,236.89,193.84,236.26,167.1,225.34z M291.6,411.5c-1.63,8.47-3.21,16.66-4.6,23.78
		c-5-7.3-8.69-14.88-12.95-23.63l-0.11-0.22c-2.27-4.67-5.34-10.88-8.79-17.87c-10.26-20.76-24.31-49.2-30.5-63.56
		c-5.63-13.06-0.63-20.95,5.37-23.73c6.18-2.87,15.13-1.37,20.16,8.7c7.11,14.26,24.38,43.15,37.59,64.84
		C295.86,389.33,293.7,400.56,291.6,411.5z M338.69,338.04c0.01-0.01,1.45-1.4,7.53-1.64c12.27-0.48,32.11,3.89,54.53,10.81
		c-2.5,1.16-5,2.67-7.47,4.57c-14.44,11.09-25.97,20.79-35.77,37.44c0.13-0.93,0.26-1.86,0.39-2.77
		c3.37-23.98-7.57-37.71-20.62-41.34C337.15,342.34,337.63,339.95,338.69,338.04z M357.85,525.91c-0.92-0.45-1.88-0.91-2.88-1.39
		c-13.42-6.45-33.71-16.21-45.01-30.93c-12.55-16.35-12.04-35.54-10.79-41.55c1.87-8.95,4.55-22.89,7.39-37.65
		c2.75-14.32,5.6-29.12,7.8-39.84c1.74-8.46,8.53-16.59,17.71-15.01c8.43,1.46,12.65,11.19,10.73,24.79
		c-4.02,28.61-9.08,65.45-9.13,65.82c-0.11,0.84-0.08,1.66,0.07,2.45c-2.7,13.69-3.14,26.85,1.11,36.64
		c5.98,13.78,31.03,32.68,50.67,44.67c2.21,1.35,5,3,8.19,4.8C382.86,536.38,370.43,532,357.85,525.91z M421.36,386.36
		c-0.27,0.25-0.52,0.52-0.76,0.81l-18.44,23.01c-0.41,0.51-0.75,1.07-1.01,1.66l-11.32,25.37c-0.88,1.84-1.69,3.68-2.45,5.48
		l-0.14,0.32c-0.06,0.13-0.1,0.26-0.15,0.39c-3.59,8.72-5.81,16.81-6.71,22.52c-2.44,15.53,11.31,44.05,36.22,67.52
		c-30.98-14.73-62.93-39.11-67.78-50.28c-5.47-12.61,0.87-41.77,16.55-76.09c9.63-21.07,20.47-30.39,37.18-43.23
		c9.35-7.18,18.41-4.78,22.88,0.5C429.6,369.29,430.72,377.66,421.36,386.36z"/>
	<path d="M761.93,69.42v2.49l3.42,0.8v2.04l2.06,0.43v-1.98l2.02,0.49v1.88l2.06,0.43v-1.83l3.42,0.82v-2.49l-3.42-0.82v-1.77
		l3.42,0.83v-2.49l-3.42-0.82V65.4l-2.06-0.43v1.98l-2.02-0.49v-1.88l-2.06-0.43v1.81l-3.42-0.8v2.49l3.42,0.8v1.77L761.93,69.42z
		 M767.41,68.95l2.02,0.5v1.77l-2.02-0.49V68.95z"/>
	<path d="M768.42,78.64c-4,0-6.74,2.87-6.74,6.66c0,3.98,2.51,6.1,5.75,6.35l0.14-3.36c-1.44-0.21-2.78-0.99-2.78-3.01
		c0-1.92,1.42-3.03,3.63-3.03s3.63,1.11,3.63,3.03c0,2.02-1.34,2.8-2.78,3.01l0.12,3.36c3.24-0.25,5.77-2.37,5.77-6.35
		C775.16,81.5,772.42,78.64,768.42,78.64z"/>
	<path d="M761.72,100.73c0,0.95,0.27,1.61,0.6,2.08h1.77c-0.1-0.27-0.14-0.47-0.14-0.74c0-0.35,0.21-0.56,0.68-0.56h3.13
		c2.56,0,3.61-1.79,3.61-4.23c0-2.76-1.4-4.27-3.42-4.56l-0.21,3.09c0.68,0.14,1.15,0.52,1.15,1.26c0,0.8-0.45,1.15-1.22,1.15h-0.14
		l-0.43-2.58c-0.35-2-1.11-3.28-2.89-3.28c-1.57,0-2.49,1.18-2.49,2.97c0,1.46,0.56,2.52,1.63,3.05
		C762.3,98.71,761.72,99.6,761.72,100.73z M764.65,95.6c0.6,0,0.85,0.47,1.01,1.28l0.25,1.36h-0.14c-1.2,0-1.9-0.76-1.9-1.71
		C763.87,95.97,764.18,95.6,764.65,95.6z"/>
	<path d="M758.63,107.12h4.86c-1.07,0.45-1.81,1.48-1.81,3.03c0,2.7,2.12,4.08,4.84,4.08c2.7,0,4.84-1.38,4.84-4.08
		c0-1.55-0.74-2.58-1.83-3.03h1.59v-3.34h-12.49V107.12z M766.46,107.12h0.12c1.32,0,2.18,0.72,2.18,1.86c0,1.3-0.93,1.9-2.25,1.9
		c-1.34,0-2.27-0.6-2.27-1.9C764.26,107.84,765.12,107.12,766.46,107.12z"/>
	<rect x="761.93" y="115.55" width="9.19" height="3.34"/>
	<rect x="771.99" y="115.53" width="2.93" height="3.38"/>
	<path d="M773.66,122.23l-1.2-0.31c-0.85-0.23-1.34-0.52-1.48-1.44l-0.1-0.68h-2.06v1.24h-4.33c-2.16,0-2.8,1.46-2.8,3.01
		c0,1.26,0.31,2.06,0.82,2.76h2.16c-0.23-0.56-0.31-1.01-0.31-1.42c0-0.68,0.31-1.05,1.09-1.05h3.36v2.39h2.31v-2.39h2.54V122.23z"
		/>
	<path d="M764.63,136.68h3.13c2.56,0,3.61-1.79,3.61-4.23c0-2.76-1.4-4.27-3.42-4.56l-0.21,3.09c0.68,0.14,1.15,0.52,1.15,1.26
		c0,0.8-0.45,1.15-1.22,1.15h-0.14l-0.43-2.58c-0.35-2-1.11-3.28-2.89-3.28c-1.57,0-2.49,1.18-2.49,2.97c0,1.46,0.56,2.51,1.63,3.05
		c-1.05,0.31-1.63,1.2-1.63,2.33c0,0.95,0.27,1.61,0.6,2.08h1.77c-0.1-0.27-0.14-0.47-0.14-0.74
		C763.95,136.88,764.16,136.68,764.63,136.68z M763.87,131.69c0-0.56,0.31-0.93,0.78-0.93c0.6,0,0.85,0.47,1.01,1.28l0.25,1.36
		h-0.14C764.57,133.4,763.87,132.64,763.87,131.69z"/>
	<rect x="761.93" y="138.94" width="12.99" height="3.34"/>
	<rect x="771.99" y="144.08" width="2.93" height="3.38"/>
	<rect x="761.93" y="144.1" width="9.19" height="3.34"/>
	<path d="M768.26,148.77c-1.88,0-2.6,1.18-2.95,3.4l-0.21,1.36c-0.1,0.64-0.35,0.85-0.7,0.85c-0.37,0-0.64-0.39-0.64-1.13
		c0-1.01,0.43-1.63,1.2-1.75l-0.04-2.91c-2.23,0.19-3.24,2.08-3.24,4.62c0,2.62,1.11,4.27,3.05,4.27c1.79,0,2.72-1.2,3.05-3.26
		l0.31-1.79c0.04-0.31,0.21-0.56,0.52-0.56c0.41,0,0.66,0.37,0.66,1.01c0,1.03-0.41,1.61-1.07,1.73l0.08,2.74
		c1.92-0.19,3.09-1.75,3.09-4.41C771.37,150.36,770.07,148.77,768.26,148.77z"/>
	<path d="M771.37,164.96c0-1.38-0.62-2.37-1.63-2.87h1.38v-3.34h-9.19v3.34h4.51c1.38,0,2.29,0.39,2.29,1.48
		c0,1.01-0.66,1.26-1.92,1.26h-4.89v3.34h4.51c1.38,0,2.29,0.37,2.29,1.48c0,1.01-0.66,1.24-1.92,1.24h-4.89v3.34h5.77
		c1.92,0,3.67-0.74,3.67-3.28c0-1.55-0.78-2.64-1.81-3.13C770.63,167.43,771.37,166.58,771.37,164.96z"/>
	<rect x="761.93" y="177.82" width="12.99" height="3.5"/>
	<path d="M764.96,185.47l-0.04-2.91c-2.23,0.19-3.24,2.08-3.24,4.62c0,2.62,1.11,4.27,3.05,4.27c1.79,0,2.72-1.2,3.05-3.26
		l0.31-1.79c0.04-0.31,0.21-0.56,0.52-0.56c0.41,0,0.66,0.37,0.66,1.01c0,1.03-0.41,1.61-1.07,1.73l0.08,2.74
		c1.92-0.19,3.09-1.75,3.09-4.41c0-2.58-1.3-4.16-3.11-4.16c-1.88,0-2.6,1.18-2.95,3.4l-0.21,1.36c-0.1,0.64-0.35,0.85-0.7,0.85
		c-0.37,0-0.64-0.39-0.64-1.13C763.76,186.21,764.2,185.59,764.96,185.47z"/>
	<path d="M774.92,198.79l-12.99-5.17v3.52l2.51,0.97v5.07l-2.51,0.97v3.73l12.99-5.17V198.79z M770.9,200.69l-3.83,1.48v-3.05
		l3.83,1.48V200.69z"/>
	<polygon points="774.92,213.35 774.92,209.68 761.93,214.67 761.93,218.36 774.92,223.35 774.92,219.86 766.28,216.65 
		766.28,216.56 	"/>
	<rect x="771.99" y="224.23" width="2.93" height="3.38"/>
	<rect x="761.93" y="224.25" width="9.19" height="3.34"/>
	<path d="M769.49,232.74h1.63v-3.34h-9.19v3.34h4.21c1.55,0,2.12,0.76,2.12,2c0,0.64-0.12,1.13-0.39,1.59l3.15,0.21
		c0.19-0.23,0.35-0.72,0.35-1.28C771.37,234.04,770.52,233.07,769.49,232.74z"/>
	<path d="M766.22,240.8h4.91v-3.34h-5.79c-1.92,0-3.65,0.76-3.65,3.28c0,1.38,0.6,2.39,1.63,2.89h-1.38v3.34h9.19v-3.34h-4.51
		c-1.4,0-2.31-0.41-2.31-1.46C764.3,241.15,764.98,240.8,766.22,240.8z"/>
	<path d="M768.2,254.14l0.08,2.74c1.92-0.19,3.09-1.75,3.09-4.41c0-2.58-1.3-4.16-3.11-4.16c-1.88,0-2.6,1.17-2.95,3.4l-0.21,1.36
		c-0.1,0.64-0.35,0.85-0.7,0.85c-0.37,0-0.64-0.39-0.64-1.13c0-1.01,0.43-1.63,1.2-1.75l-0.04-2.91c-2.23,0.19-3.24,2.08-3.24,4.62
		c0,2.62,1.11,4.27,3.05,4.27c1.79,0,2.72-1.2,3.05-3.26l0.31-1.79c0.04-0.31,0.21-0.56,0.52-0.56c0.41,0,0.66,0.37,0.66,1.01
		C769.27,253.43,768.86,254.01,768.2,254.14z"/>
</g>
</svg>
