<?xml version="1.0" encoding="utf-8"?>
<!-- Generator: Adobe Illustrator 23.1.1, SVG Export Plug-In . SVG Version: 6.00 Build 0)  -->
<svg version="1.1" xmlns="http://www.w3.org/2000/svg" xmlns:xlink="http://www.w3.org/1999/xlink" x="0px" y="0px"
	 viewBox="0 0 792 612" style="enable-background:new 0 0 792 612;" xml:space="preserve">
<style type="text/css">
	.st0{display:none;}
	.st1{display:inline;}
	
		.st2{display:inline;fill:#FFFFFF;stroke:#000000;stroke-width:16;stroke-linecap:round;stroke-linejoin:round;stroke-miterlimit:10;}
	.st3{fill:#FFFFFF;stroke:#000000;stroke-width:16;stroke-linecap:round;stroke-linejoin:round;stroke-miterlimit:10;}
	.st4{display:inline;fill:none;stroke:#000000;stroke-width:24;stroke-linejoin:round;stroke-miterlimit:10;}
	.st5{display:inline;fill:#FFFFFF;}
	.st6{fill:#FFFFFF;stroke:#000000;stroke-width:17;stroke-linecap:round;stroke-miterlimit:10;}
	.st7{fill:#FFFFFF;stroke:#000000;stroke-width:17;stroke-miterlimit:10;}
	.st8{stroke:#000000;stroke-width:16.0572;stroke-linecap:round;stroke-miterlimit:10;}
	.st9{fill:#FFFFFF;}
	.st10{fill:#FFFFFF;stroke:#000000;stroke-width:17.1072;stroke-linecap:round;stroke-linejoin:round;stroke-miterlimit:10;}
	.st11{stroke:#000000;stroke-width:17.1072;stroke-linecap:round;stroke-linejoin:round;stroke-miterlimit:10;}
	.st12{fill:#FFFFFF;stroke:#000000;stroke-width:14.7375;stroke-linecap:round;stroke-linejoin:round;stroke-miterlimit:10;}
	.st13{fill:none;stroke:#000000;stroke-width:14.7375;stroke-linecap:round;stroke-linejoin:round;stroke-miterlimit:10;}
	.st14{stroke:#000000;stroke-width:14.7375;stroke-linecap:round;stroke-linejoin:round;stroke-miterlimit:10;}
	.st15{fill:#FFFFFF;stroke:#000000;stroke-width:14.2911;stroke-linecap:round;stroke-linejoin:round;stroke-miterlimit:10;}
	.st16{fill:none;stroke:#000000;stroke-width:13.497;stroke-miterlimit:10;}
	.st17{fill:#FFFFFF;stroke:#000000;stroke-width:13.497;stroke-linecap:round;stroke-linejoin:round;stroke-miterlimit:10;}
	.st18{fill:#FFFFFF;stroke:#000000;stroke-width:13.497;stroke-miterlimit:10;}
	.st19{fill:#FFFFFF;stroke:#000000;stroke-width:14.7439;stroke-linecap:round;stroke-miterlimit:10;}
	.st20{fill:#FFFFFF;stroke:#000000;stroke-width:14.7439;stroke-miterlimit:10;}
	.st21{stroke:#000000;stroke-width:13.9262;stroke-linecap:round;stroke-miterlimit:10;}
	
		.st22{display:inline;fill:#FFFFFF;stroke:#000000;stroke-width:14.6942;stroke-linecap:round;stroke-linejoin:round;stroke-miterlimit:10;}
	.st23{fill:#FFFFFF;stroke:#000000;stroke-width:14.6942;stroke-linecap:round;stroke-linejoin:round;stroke-miterlimit:10;}
	.st24{fill:none;stroke:#000000;stroke-width:24;stroke-linejoin:round;stroke-miterlimit:10;}
	.st25{fill:none;stroke:#000000;stroke-width:30.5612;stroke-linecap:round;stroke-linejoin:round;stroke-miterlimit:10;}
	.st26{fill:#FFFFFF;stroke:#000000;stroke-width:16.2993;stroke-linecap:round;stroke-linejoin:round;stroke-miterlimit:10;}
	.st27{display:inline;fill:#FFFFFF;stroke:#000000;stroke-width:13.497;stroke-linecap:round;stroke-miterlimit:10;}
	
		.st28{display:inline;fill:none;stroke:#000000;stroke-width:13.497;stroke-linecap:round;stroke-linejoin:round;stroke-miterlimit:10;}
	
		.st29{display:inline;fill:#FFFFFF;stroke:#000000;stroke-width:13.497;stroke-linecap:round;stroke-linejoin:round;stroke-miterlimit:10;}
	
		.st30{display:inline;fill:url(#);stroke:#000000;stroke-width:13.497;stroke-linecap:round;stroke-linejoin:round;stroke-miterlimit:10;}
	.st31{fill:#FFFFFF;stroke:#000000;stroke-width:15.2362;stroke-linecap:round;stroke-linejoin:round;stroke-miterlimit:10;}
	.st32{fill:#FFFFFF;stroke:#000000;stroke-width:14.8467;stroke-linecap:round;stroke-linejoin:round;stroke-miterlimit:10;}
	.st33{stroke:#000000;stroke-width:20.1683;stroke-linecap:round;stroke-miterlimit:10;}
	.st34{fill:none;stroke:#000000;stroke-width:14.8467;stroke-linecap:round;stroke-linejoin:round;stroke-miterlimit:10;}
	.st35{fill:#FFFFFF;stroke:#FFFFFF;stroke-width:3;stroke-miterlimit:10;}
	.st36{display:inline;fill:none;stroke:#000000;stroke-width:15;stroke-linecap:round;stroke-linejoin:round;stroke-miterlimit:10;}
	
		.st37{display:inline;fill:#FFFFFF;stroke:#000000;stroke-width:15;stroke-linecap:round;stroke-linejoin:round;stroke-miterlimit:10;}
	.st38{fill:#FFFFFF;stroke:#000000;stroke-width:15;stroke-linecap:round;stroke-linejoin:round;stroke-miterlimit:10;}
	.st39{fill:#FFFFFF;stroke:#000000;stroke-width:11.7326;stroke-linecap:round;stroke-linejoin:round;stroke-miterlimit:10;}
	.st40{fill:#FFFFFF;stroke:#000000;stroke-width:13.2623;stroke-linecap:round;stroke-linejoin:round;stroke-miterlimit:10;}
	.st41{font-family:'FoundersGrotesk-Bold';}
	.st42{font-size:151.687px;}
	.st43{font-size:228.7117px;}
	.st44{font-size:20.6105px;}
	.st45{font-size:10.3052px;}
	.st46{font-size:19.2364px;}
	.st47{font-size:10px;}
	.st48{fill:none;stroke:#000000;stroke-width:16;stroke-linecap:round;stroke-miterlimit:10;}
	.st49{fill:url(#);stroke:#000000;stroke-width:16;stroke-linecap:round;stroke-linejoin:round;stroke-miterlimit:10;}
	.st50{fill:#FFFFFF;stroke:#000000;stroke-width:16;stroke-linecap:round;stroke-miterlimit:10;}
	.st51{fill:#FFFFFF;stroke:#000000;stroke-width:13.2623;stroke-linecap:round;stroke-miterlimit:10;}
	.st52{stroke:#000000;stroke-width:4.5213;stroke-miterlimit:10;}
	.st53{fill:none;stroke:#000000;stroke-width:15.2344;stroke-linecap:round;stroke-linejoin:round;stroke-miterlimit:10;}
	.st54{fill:#FFFFFF;stroke:#000000;stroke-width:15.2344;stroke-linecap:round;stroke-linejoin:round;stroke-miterlimit:10;}
	.st55{stroke:#000000;stroke-width:18.3348;stroke-linecap:round;stroke-miterlimit:10;}
	.st56{fill:none;stroke:#000000;stroke-width:13.497;stroke-linecap:round;stroke-linejoin:round;stroke-miterlimit:10;}
	.st57{display:inline;fill:none;stroke:#000000;stroke-width:16;stroke-linecap:round;stroke-linejoin:round;stroke-miterlimit:10;}
	.st58{fill:#FFFFFF;stroke:#000000;stroke-width:13.3058;stroke-linecap:round;stroke-linejoin:round;stroke-miterlimit:10;}
	.st59{fill:#FFFFFF;stroke:#000000;stroke-width:17;stroke-linecap:round;stroke-linejoin:round;stroke-miterlimit:10;}
	.st60{fill:#FFFFFF;stroke:#000000;stroke-width:15.2517;stroke-linecap:round;stroke-linejoin:round;stroke-miterlimit:10;}
	.st61{stroke:#000000;stroke-width:3;stroke-miterlimit:10;}
	.st62{fill:#FFFFFF;stroke:#000000;stroke-width:16.0686;stroke-linecap:round;stroke-linejoin:round;stroke-miterlimit:10;}
	.st63{fill:#FFFFFF;stroke:#000000;stroke-width:15;stroke-linejoin:round;stroke-miterlimit:10;}
	.st64{fill:url(#);stroke:#000000;stroke-width:13.497;stroke-linecap:round;stroke-linejoin:round;stroke-miterlimit:10;}
	.st65{fill:#06A6FF;}
	.st66{fill:#FF0303;}
	.st67{fill:#3DFF06;}
	.st68{fill:#FFF808;}
	.st69{fill:none;stroke:#000000;stroke-width:0;stroke-linecap:round;stroke-linejoin:round;}
</style>
<g id="unexpanded" class="st0">
	<g class="st1">
		<g>
			<text transform="matrix(1 0 0 1 72.4009 163.6187)" class="st41 st42">When We</text>
		</g>
	</g>
	<g class="st1">
		<g>
			<text transform="matrix(1 0 0 1 134.0596 520.0239)" class="st41 st42">We Win</text>
		</g>
	</g>
	<g class="st1">
		<g>
			<text transform="matrix(1 0 0 1 9.6416 369.3911)" class="st41 st43">STRIKE</text>
		</g>
	</g>
	<g class="st1">
		<g>
			<text transform="matrix(1 0 0 1 258.9679 599.7979)"><tspan x="0" y="0" class="st41 st44">www</tspan><tspan x="45.14" y="0" class="st41 st45"> </tspan><tspan x="46.99" y="0" class="st41 st44">.</tspan><tspan x="51.77" y="0" class="st41 st45"> </tspan><tspan x="53.63" y="0" class="st41 st44">Capitalism</tspan><tspan x="150.43" y="0" class="st41 st46"> </tspan><tspan x="153.9" y="0" class="st41 st44">Is</tspan><tspan x="168.88" y="0" class="st41 st46"> </tspan><tspan x="172.34" y="0" class="st41 st44">A</tspan><tspan x="186.6" y="0" class="st41 st45"> </tspan><tspan x="188.46" y="0" class="st41 st44">Virus</tspan><tspan x="236.15" y="0" class="st41 st45"> </tspan><tspan x="238.01" y="0" class="st41 st44">.</tspan><tspan x="242.79" y="0" class="st41 st45"> </tspan><tspan x="244.64" y="0" class="st41 st44">org</tspan></text>
		</g>
		<g>
			<text transform="matrix(1 0 0 1 299.1802 22.1245)"><tspan x="0" y="0" class="st41 st44">#</tspan><tspan x="12.7" y="0" class="st41 st47"> </tspan><tspan x="14.5" y="0" class="st41 st44">Capitalism</tspan><tspan x="111.3" y="0" class="st41 st47"> </tspan><tspan x="113.1" y="0" class="st41 st44">Is</tspan><tspan x="128.09" y="0" class="st41 st47"> </tspan><tspan x="129.89" y="0" class="st41 st44">A</tspan><tspan x="144.15" y="0" class="st41 st47"> </tspan><tspan x="145.95" y="0" class="st41 st44">Virus</tspan></text>
		</g>
	</g>
</g>
<g id="expanded">
	<polygon points="126.71,163.62 142.63,103.25 143.24,103.25 159.17,163.62 186.62,163.62 211.65,68.06 186.77,68.06 171.6,127.97 
		171,127.97 155.22,68.06 132.01,68.06 116.24,127.97 115.63,127.97 100.46,68.06 74.68,68.06 99.71,163.62 	"/>
	<path d="M218.32,163.62h24.57V130.4c0-10.16,3.34-16.84,11.68-16.84c7.43,0,10.01,4.85,10.01,14.11v35.95h24.57v-42.47
		c0-14.11-5.92-27-24.42-27c-10.16,0-18.2,4.55-21.84,11.98V68.06h-24.57V163.62z"/>
	<path d="M335.27,165.44c17.9,0,30.34-8.65,33.83-24.12l-19.72-1.82c-2.28,5.31-6.52,7.58-13.2,7.58c-7.43,0-13.5-3.94-14.11-12.29
		h47.48v-6.83c0-18.35-11.98-33.83-34.58-33.83c-21.08,0-36.86,15.32-36.86,36.71C298.11,152.39,313.58,165.44,335.27,165.44z
		 M334.67,111.74c7.28,0,11.22,5.16,11.53,11.22h-23.82C323.29,116.6,326.78,111.74,334.67,111.74z"/>
	<path d="M404.14,106.13V95.97h-24.57v67.65h24.57V130.4c0-10.16,3.34-16.84,11.68-16.84c7.43,0,10.01,4.85,10.01,14.11v35.95h24.57
		v-42.47c0-14.11-5.92-27-24.42-27C415.82,94.15,407.78,98.7,404.14,106.13z"/>
	<polygon points="508.65,163.62 535.65,163.62 551.57,103.25 552.18,103.25 568.11,163.62 595.56,163.62 620.59,68.06 595.71,68.06 
		580.54,127.97 579.94,127.97 564.16,68.06 540.96,68.06 525.18,127.97 524.57,127.97 509.4,68.06 483.62,68.06 	"/>
	<path d="M656.24,165.44c17.9,0,30.34-8.65,33.83-24.12l-19.72-1.82c-2.28,5.31-6.52,7.58-13.2,7.58c-7.43,0-13.5-3.94-14.11-12.29
		h47.48v-6.83c0-18.35-11.98-33.83-34.58-33.83c-21.08,0-36.86,15.32-36.86,36.71C619.07,152.39,634.55,165.44,656.24,165.44z
		 M655.63,111.74c7.28,0,11.22,5.16,11.53,11.22h-23.81C644.25,116.6,647.74,111.74,655.63,111.74z"/>
	<polygon points="161.36,520.02 188.36,520.02 204.29,459.65 204.9,459.65 220.83,520.02 248.28,520.02 273.31,424.46 
		248.43,424.46 233.26,484.38 232.66,484.38 216.88,424.46 193.67,424.46 177.9,484.38 177.29,484.38 162.12,424.46 136.33,424.46 	
		"/>
	<path d="M271.79,487.26c0,21.54,15.47,34.58,37.16,34.58c17.9,0,30.34-8.65,33.83-24.12l-19.72-1.82
		c-2.28,5.31-6.52,7.58-13.2,7.58c-7.43,0-13.5-3.94-14.11-12.29h47.48v-6.83c0-18.35-11.98-33.83-34.58-33.83
		C287.57,450.55,271.79,465.87,271.79,487.26z M319.88,479.37h-23.82c0.91-6.37,4.4-11.22,12.29-11.22
		C315.63,468.15,319.57,473.3,319.88,479.37z"/>
	<polygon points="398.9,520.02 425.9,520.02 441.83,459.65 442.44,459.65 458.36,520.02 485.82,520.02 510.85,424.46 485.97,424.46 
		470.8,484.38 470.2,484.38 454.42,424.46 431.21,424.46 415.44,484.38 414.83,484.38 399.66,424.46 373.87,424.46 	"/>
	<rect x="517.37" y="424.46" width="24.88" height="21.54"/>
	<rect x="517.52" y="452.37" width="24.57" height="67.65"/>
	<path d="M555.44,520.02h24.57V486.8c0-10.16,3.34-16.84,11.68-16.84c7.43,0,10.01,4.85,10.01,14.11v35.95h24.57v-42.47
		c0-14.11-5.92-27-24.42-27c-10.16,0-18.2,4.55-21.84,11.98v-10.16h-24.57V520.02z"/>
	<path d="M84.66,341.49c-16.01,0-29.96-6.17-31.33-24.24l-35.68,1.14c0,34.76,27.9,53.75,67.01,53.75
		c33.62,0,60.15-15.32,60.15-45.97c0-23.56-13.72-39.34-43.91-44.6l-27.22-4.8c-8.92-1.6-14.41-4.12-14.41-10.75
		c0-8,7.32-13.04,20.13-13.04c14.87,0,25.62,6.86,26.76,21.73l35.68-0.69c-0.69-32.02-22.19-51.46-61.98-51.46
		c-35.91,0-58.78,17.61-58.78,46.89c0,25.16,16.47,38.42,40.02,42.77l26.3,4.57c10.98,2.06,19.44,3.43,19.44,11.89
		C106.85,336.69,98.15,341.49,84.66,341.49z"/>
	<polygon points="150.53,225.3 150.53,257.32 199.93,257.32 199.93,369.39 238.58,369.39 238.58,257.32 288.67,257.32 288.67,225.3 
			"/>
	<path d="M305.36,369.39h38.2v-47.8h25.84c13.04,0,20.13,3.66,21.27,20.13c1.14,14.87,2.97,23.79,5.95,27.67h39.34
		c-4.8-5.26-5.49-11.66-7.55-33.16c-1.6-16.7-10.29-25.16-25.16-28.13c17.61-2.29,30.65-16.01,30.65-37.05
		c0-28.13-18.53-45.74-55.81-45.74h-72.73V369.39z M371.23,256.41c16.47,0,24.7,6.17,24.7,17.84c0,13.26-8.23,17.38-24.7,17.38
		h-27.67v-35.22H371.23z"/>
	<rect x="451.05" y="225.3" width="38.88" height="144.09"/>
	<polygon points="511.88,369.39 550.77,369.39 550.77,325.71 563.35,311.98 603.37,369.39 649.8,369.39 591.48,286.6 647.05,225.3 
		602.46,225.3 550.77,283.62 550.77,225.3 511.88,225.3 	"/>
	<polygon points="658.49,369.39 771.93,369.39 771.93,337.37 696.68,337.37 696.68,312.44 753.17,312.44 753.17,280.88 
		696.68,280.88 696.68,257.32 769.87,257.32 769.87,225.3 658.49,225.3 	"/>
	<polygon points="265.16,599.8 266.5,594.6 266.58,594.6 267.92,599.8 271.2,599.8 274.07,590.74 276.93,599.8 280.21,599.8 
		281.55,594.6 281.63,594.6 282.97,599.8 286.25,599.8 289.11,590.74 291.98,599.8 295.25,599.8 296.59,594.6 296.68,594.6 
		298.02,599.8 301.29,599.8 304.2,590.6 301.19,590.6 299.54,595.82 299.46,595.82 298.12,590.6 295.46,590.6 294.12,595.82 
		294.04,595.82 292.39,590.6 289.15,590.6 289.07,590.6 286.14,590.6 284.5,595.82 284.41,595.82 283.07,590.6 280.41,590.6 
		279.07,595.82 278.99,595.82 277.34,590.6 274.11,590.6 274.02,590.6 271.1,590.6 269.45,595.82 269.37,595.82 268.03,590.6 
		265.37,590.6 264.03,595.82 263.95,595.82 262.3,590.6 258.98,590.6 261.88,599.8 	"/>
	<rect x="306.63" y="596.25" width="3.55" height="3.55"/>
	<path d="M313.06,593.3c0,4,2.87,6.74,6.66,6.74c3.98,0,6.1-2.51,6.35-5.75l-3.36-0.14c-0.21,1.44-0.99,2.78-3.01,2.78
		c-1.92,0-3.03-1.42-3.03-3.63s1.11-3.63,3.03-3.63c2.02,0,2.8,1.34,3.01,2.78l3.36-0.12c-0.25-3.24-2.37-5.77-6.35-5.77
		C315.92,586.56,313.06,589.3,313.06,593.3z"/>
	<path d="M327.16,593.78l3.09,0.21c0.14-0.68,0.52-1.15,1.26-1.15c0.8,0,1.15,0.45,1.15,1.22v0.14l-2.58,0.43
		c-2,0.35-3.28,1.11-3.28,2.89c0,1.57,1.17,2.49,2.97,2.49c1.46,0,2.51-0.56,3.05-1.63c0.31,1.05,1.2,1.63,2.33,1.63
		c0.95,0,1.61-0.27,2.08-0.6v-1.77c-0.27,0.1-0.47,0.14-0.74,0.14c-0.35,0-0.56-0.21-0.56-0.68v-3.13c0-2.56-1.79-3.61-4.23-3.61
		C328.95,590.36,327.45,591.76,327.16,593.78z M332.66,595.96c0,1.2-0.76,1.9-1.71,1.9c-0.56,0-0.93-0.31-0.93-0.78
		c0-0.6,0.47-0.85,1.28-1.01l1.36-0.25V595.96z"/>
	<path d="M341.54,598.23c0.45,1.07,1.48,1.81,3.03,1.81c2.7,0,4.08-2.12,4.08-4.84c0-2.7-1.38-4.84-4.08-4.84
		c-1.55,0-2.58,0.74-3.03,1.83v-1.59h-3.34v12.49h3.34V598.23z M341.54,595.14c0-1.32,0.72-2.18,1.86-2.18c1.3,0,1.9,0.93,1.9,2.25
		c0,1.34-0.6,2.27-1.9,2.27c-1.13,0-1.86-0.87-1.86-2.21V595.14z"/>
	<rect x="349.97" y="590.6" width="3.34" height="9.19"/>
	<rect x="349.95" y="586.81" width="3.38" height="2.93"/>
	<path d="M361.14,592.91v-2.31h-2.39v-2.54h-2.1l-0.31,1.2c-0.23,0.85-0.52,1.34-1.44,1.48l-0.68,0.1v2.06h1.24v4.33
		c0,2.16,1.46,2.8,3.01,2.8c1.26,0,2.06-0.31,2.76-0.82v-2.16c-0.56,0.23-1.01,0.31-1.42,0.31c-0.68,0-1.05-0.31-1.05-1.09v-3.36
		H361.14z"/>
	<path d="M365.25,594.62c-2,0.35-3.28,1.11-3.28,2.89c0,1.57,1.17,2.49,2.97,2.49c1.46,0,2.52-0.56,3.05-1.63
		c0.31,1.05,1.2,1.63,2.33,1.63c0.95,0,1.61-0.27,2.08-0.6v-1.77c-0.27,0.1-0.47,0.14-0.74,0.14c-0.35,0-0.56-0.21-0.56-0.68v-3.13
		c0-2.56-1.79-3.61-4.23-3.61c-2.76,0-4.27,1.4-4.56,3.42l3.09,0.21c0.14-0.68,0.52-1.15,1.26-1.15c0.8,0,1.15,0.45,1.15,1.22v0.14
		L365.25,594.62z M366.11,597.86c-0.56,0-0.93-0.31-0.93-0.78c0-0.6,0.47-0.85,1.28-1.01l1.36-0.25v0.14
		C367.82,597.16,367.06,597.86,366.11,597.86z"/>
	<rect x="373.37" y="586.81" width="3.34" height="12.99"/>
	<rect x="378.5" y="586.81" width="3.38" height="2.93"/>
	<rect x="378.52" y="590.6" width="3.34" height="9.19"/>
	<path d="M389.03,593.53l2.74-0.08c-0.19-1.92-1.75-3.09-4.41-3.09c-2.58,0-4.16,1.3-4.16,3.11c0,1.88,1.17,2.6,3.4,2.95l1.36,0.21
		c0.64,0.1,0.84,0.35,0.84,0.7c0,0.37-0.39,0.64-1.13,0.64c-1.01,0-1.63-0.43-1.75-1.2l-2.91,0.04c0.19,2.23,2.08,3.24,4.62,3.24
		c2.62,0,4.27-1.11,4.27-3.05c0-1.79-1.2-2.72-3.26-3.05l-1.79-0.31c-0.31-0.04-0.56-0.21-0.56-0.52c0-0.41,0.37-0.66,1.01-0.66
		C388.33,592.46,388.91,592.87,389.03,593.53z"/>
	<path d="M396.51,599.8v-4.51c0-1.38,0.39-2.29,1.48-2.29c1.01,0,1.26,0.66,1.26,1.92v4.89h3.34v-4.51c0-1.38,0.37-2.29,1.48-2.29
		c1.01,0,1.24,0.66,1.24,1.92v4.89h3.34v-5.77c0-1.92-0.74-3.67-3.28-3.67c-1.55,0-2.64,0.78-3.13,1.81
		c-0.39-1.07-1.24-1.81-2.87-1.81c-1.38,0-2.37,0.62-2.87,1.63v-1.38h-3.34v9.19H396.51z"/>
	<rect x="413.91" y="586.81" width="3.5" height="12.99"/>
	<path d="M421.55,596.77l-2.91,0.04c0.19,2.23,2.08,3.24,4.62,3.24c2.62,0,4.27-1.11,4.27-3.05c0-1.79-1.2-2.72-3.26-3.05
		l-1.79-0.31c-0.31-0.04-0.56-0.21-0.56-0.52c0-0.41,0.37-0.66,1.01-0.66c1.03,0,1.61,0.41,1.73,1.07l2.74-0.08
		c-0.19-1.92-1.75-3.09-4.41-3.09c-2.58,0-4.16,1.3-4.16,3.11c0,1.88,1.17,2.6,3.4,2.95l1.36,0.21c0.64,0.1,0.84,0.35,0.84,0.7
		c0,0.37-0.39,0.64-1.13,0.64C422.29,597.96,421.68,597.53,421.55,596.77z"/>
	<path d="M434.89,599.8l0.97-2.51h5.07l0.97,2.51h3.73l-5.17-12.99h-3.92l-5.17,12.99H434.89z M438.43,590.83l1.48,3.83h-3.05
		l1.48-3.83H438.43z"/>
	<polygon points="457.66,586.81 454.45,595.45 454.36,595.45 451.15,586.81 447.48,586.81 452.47,599.8 456.16,599.8 461.15,586.81 
			"/>
	<rect x="462.03" y="586.81" width="3.38" height="2.93"/>
	<rect x="462.05" y="590.6" width="3.34" height="9.19"/>
	<path d="M473.06,590.36c-1.22,0-2.18,0.85-2.51,1.88v-1.63h-3.34v9.19h3.34v-4.21c0-1.55,0.76-2.12,2-2.12
		c0.64,0,1.13,0.12,1.59,0.39l0.21-3.15C474.11,590.52,473.61,590.36,473.06,590.36z"/>
	<path d="M475.26,590.6v5.79c0,1.92,0.76,3.65,3.28,3.65c1.38,0,2.39-0.6,2.89-1.63v1.38h3.34v-9.19h-3.34v4.51
		c0,1.4-0.41,2.31-1.46,2.31c-1.01,0-1.36-0.68-1.36-1.92v-4.91H475.26z"/>
	<path d="M494.8,596.99c0-1.79-1.2-2.72-3.26-3.05l-1.79-0.31c-0.31-0.04-0.56-0.21-0.56-0.52c0-0.41,0.37-0.66,1.01-0.66
		c1.03,0,1.61,0.41,1.73,1.07l2.74-0.08c-0.19-1.92-1.75-3.09-4.41-3.09c-2.58,0-4.16,1.3-4.16,3.11c0,1.88,1.17,2.6,3.4,2.95
		l1.36,0.21c0.64,0.1,0.84,0.35,0.84,0.7c0,0.37-0.39,0.64-1.13,0.64c-1.01,0-1.63-0.43-1.75-1.2l-2.91,0.04
		c0.19,2.23,2.08,3.24,4.62,3.24C493.15,600.04,494.8,598.93,494.8,596.99z"/>
	<rect x="497.64" y="596.25" width="3.55" height="3.55"/>
	<path d="M509.1,590.36c-3.01,0-5.03,2-5.03,4.84c0,2.87,2.02,4.84,5.03,4.84c2.99,0,5.03-1.98,5.03-4.84
		C514.13,592.36,512.09,590.36,509.1,590.36z M507.43,595.2c0-1.38,0.5-2.33,1.67-2.33c1.15,0,1.67,0.95,1.67,2.33
		s-0.52,2.33-1.67,2.33C507.93,597.53,507.43,596.58,507.43,595.2z"/>
	<path d="M515.45,590.6v9.19h3.34v-4.21c0-1.55,0.76-2.12,2-2.12c0.64,0,1.13,0.12,1.59,0.39l0.21-3.15
		c-0.23-0.19-0.72-0.35-1.28-0.35c-1.22,0-2.19,0.85-2.52,1.88v-1.63H515.45z"/>
	<path d="M530.13,597.37h-3.81c-0.56,0-0.78-0.25-0.78-0.56c0-0.19,0.06-0.33,0.19-0.43c0.6,0.19,1.26,0.27,2,0.27
		c2.6,0,4.47-1.2,4.47-3.13c0-0.43-0.1-0.83-0.29-1.18c0.45-0.1,0.95-0.14,1.34-0.14v-2.52c-1.01,0-2.02,0.66-2.58,1.42
		c-0.78-0.47-1.83-0.74-2.95-0.74c-2.58,0-4.43,1.2-4.43,3.15c0,1.01,0.5,1.79,1.32,2.33c-0.99,0.37-1.57,1.05-1.57,1.94
		c0,0.78,0.49,1.53,1.32,1.79c-1.03,0.08-1.75,0.72-1.75,1.53c0,1.73,2.27,2.25,4.89,2.25c2.99,0,5.77-1.05,5.77-3.34
		C533.26,598.46,532.21,597.37,530.13,597.37z M527.76,592.19c0.56,0,0.97,0.52,0.97,1.32c0,0.82-0.41,1.34-0.97,1.34
		s-0.97-0.52-0.97-1.34C526.79,592.71,527.2,592.19,527.76,592.19z M527.51,601.61c-1.24,0-2.16-0.19-2.16-0.85
		c0-0.35,0.25-0.56,0.62-0.56h3.38c0.56,0,0.84,0.14,0.84,0.54C530.19,601.3,529.06,601.61,527.51,601.61z"/>
	<path d="M300.6,22.12h2.49l0.8-3.42h1.77l-0.8,3.42h2.49l0.8-3.42h2.04l0.43-2.06h-1.98l0.5-2.02h1.88l0.43-2.06h-1.83l0.82-3.42
		h-2.49l-0.82,3.42h-1.77l0.83-3.42h-2.49l-0.83,3.42h-2.02l-0.43,2.06h1.98l-0.5,2.02h-1.88l-0.43,2.06h1.81L300.6,22.12z
		 M304.89,14.62h1.77l-0.5,2.02h-1.77L304.89,14.62z"/>
	<path d="M320.75,22.37c3.98,0,6.1-2.52,6.35-5.75l-3.36-0.14c-0.21,1.44-0.99,2.78-3.01,2.78c-1.92,0-3.03-1.42-3.03-3.63
		s1.11-3.63,3.03-3.63c2.02,0,2.8,1.34,3.01,2.78l3.36-0.12c-0.25-3.24-2.37-5.77-6.35-5.77c-3.79,0-6.66,2.74-6.66,6.74
		S316.95,22.37,320.75,22.37z"/>
	<path d="M331.11,16.95c-2,0.35-3.28,1.11-3.28,2.89c0,1.57,1.17,2.49,2.97,2.49c1.46,0,2.51-0.56,3.05-1.63
		c0.31,1.05,1.2,1.63,2.33,1.63c0.95,0,1.61-0.27,2.08-0.6v-1.77c-0.27,0.1-0.47,0.14-0.74,0.14c-0.35,0-0.56-0.21-0.56-0.68v-3.13
		c0-2.56-1.79-3.61-4.23-3.61c-2.76,0-4.27,1.4-4.56,3.42l3.09,0.21c0.14-0.68,0.51-1.15,1.26-1.15c0.8,0,1.15,0.45,1.15,1.22v0.14
		L331.11,16.95z M333.69,18.29c0,1.2-0.76,1.9-1.71,1.9c-0.56,0-0.93-0.31-0.93-0.78c0-0.6,0.47-0.85,1.28-1.01l1.36-0.25V18.29z"/>
	<path d="M342.57,20.56c0.45,1.07,1.48,1.81,3.03,1.81c2.7,0,4.08-2.12,4.08-4.84c0-2.7-1.38-4.84-4.08-4.84
		c-1.55,0-2.58,0.74-3.03,1.83v-1.59h-3.34v12.49h3.34V20.56z M342.57,17.47c0-1.32,0.72-2.19,1.86-2.19c1.3,0,1.9,0.93,1.9,2.25
		c0,1.34-0.6,2.27-1.9,2.27c-1.13,0-1.86-0.87-1.86-2.21V17.47z"/>
	<rect x="350.98" y="9.14" width="3.38" height="2.93"/>
	<rect x="351" y="12.93" width="3.34" height="9.19"/>
	<path d="M356.48,19.57c0,2.16,1.46,2.8,3.01,2.8c1.26,0,2.06-0.31,2.76-0.82v-2.16c-0.56,0.23-1.01,0.31-1.42,0.31
		c-0.68,0-1.05-0.31-1.05-1.09v-3.36h2.39v-2.31h-2.39v-2.54h-2.1l-0.31,1.2c-0.23,0.85-0.51,1.34-1.44,1.48l-0.68,0.1v2.06h1.24
		V19.57z"/>
	<path d="M366.27,16.95c-2,0.35-3.28,1.11-3.28,2.89c0,1.57,1.18,2.49,2.97,2.49c1.46,0,2.51-0.56,3.05-1.63
		c0.31,1.05,1.2,1.63,2.33,1.63c0.95,0,1.61-0.27,2.08-0.6v-1.77c-0.27,0.1-0.47,0.14-0.74,0.14c-0.35,0-0.56-0.21-0.56-0.68v-3.13
		c0-2.56-1.79-3.61-4.23-3.61c-2.76,0-4.27,1.4-4.56,3.42l3.09,0.21c0.14-0.68,0.51-1.15,1.26-1.15c0.8,0,1.15,0.45,1.15,1.22v0.14
		L366.27,16.95z M368.85,18.29c0,1.2-0.76,1.9-1.71,1.9c-0.56,0-0.93-0.31-0.93-0.78c0-0.6,0.47-0.85,1.28-1.01l1.36-0.25V18.29z"/>
	<rect x="374.39" y="9.14" width="3.34" height="12.99"/>
	<rect x="379.53" y="9.14" width="3.38" height="2.93"/>
	<rect x="379.55" y="12.93" width="3.34" height="9.19"/>
	<path d="M388.7,20.29c-1.01,0-1.63-0.43-1.75-1.2l-2.91,0.04c0.19,2.23,2.08,3.24,4.62,3.24c2.62,0,4.27-1.11,4.27-3.05
		c0-1.79-1.2-2.72-3.26-3.05l-1.79-0.31c-0.31-0.04-0.56-0.21-0.56-0.52c0-0.41,0.37-0.66,1.01-0.66c1.03,0,1.61,0.41,1.73,1.07
		l2.74-0.08c-0.19-1.92-1.75-3.09-4.41-3.09c-2.58,0-4.16,1.3-4.16,3.11c0,1.88,1.18,2.6,3.4,2.95l1.36,0.21
		c0.64,0.1,0.85,0.35,0.85,0.7C389.83,20.02,389.44,20.29,388.7,20.29z"/>
	<path d="M397.54,17.61c0-1.38,0.39-2.29,1.48-2.29c1.01,0,1.26,0.66,1.26,1.92v4.89h3.34v-4.51c0-1.38,0.37-2.29,1.48-2.29
		c1.01,0,1.24,0.66,1.24,1.92v4.89h3.34v-5.77c0-1.92-0.74-3.67-3.28-3.67c-1.55,0-2.64,0.78-3.13,1.81
		c-0.39-1.07-1.24-1.81-2.87-1.81c-1.38,0-2.37,0.62-2.87,1.63v-1.38h-3.34v9.19h3.34V17.61z"/>
	<rect x="413.27" y="9.14" width="3.5" height="12.99"/>
	<path d="M422.67,20.29c-1.01,0-1.63-0.43-1.75-1.2l-2.91,0.04c0.19,2.23,2.08,3.24,4.62,3.24c2.62,0,4.27-1.11,4.27-3.05
		c0-1.79-1.2-2.72-3.26-3.05l-1.79-0.31c-0.31-0.04-0.56-0.21-0.56-0.52c0-0.41,0.37-0.66,1.01-0.66c1.03,0,1.61,0.41,1.73,1.07
		l2.74-0.08c-0.19-1.92-1.75-3.09-4.41-3.09c-2.58,0-4.16,1.3-4.16,3.11c0,1.88,1.18,2.6,3.4,2.95l1.36,0.21
		c0.64,0.1,0.85,0.35,0.85,0.7C423.8,20.02,423.41,20.29,422.67,20.29z"/>
	<path d="M433.56,19.61h5.07l0.97,2.52h3.73l-5.17-12.99h-3.92l-5.17,12.99h3.52L433.56,19.61z M436.05,13.16h0.08l1.48,3.83h-3.05
		L436.05,13.16z"/>
	<polygon points="453.81,22.12 458.8,9.14 455.31,9.14 452.1,17.77 452.01,17.77 448.8,9.14 445.13,9.14 450.12,22.12 	"/>
	<rect x="459.68" y="9.14" width="3.38" height="2.93"/>
	<rect x="459.7" y="12.93" width="3.34" height="9.19"/>
	<path d="M468.19,17.92c0-1.55,0.76-2.12,2-2.12c0.64,0,1.13,0.12,1.59,0.39l0.21-3.15c-0.23-0.19-0.72-0.35-1.28-0.35
		c-1.22,0-2.19,0.85-2.52,1.88v-1.63h-3.34v9.19h3.34V17.92z"/>
	<path d="M476.19,22.37c1.38,0,2.39-0.6,2.89-1.63v1.38h3.34v-9.19h-3.34v4.51c0,1.4-0.41,2.31-1.46,2.31
		c-1.01,0-1.36-0.68-1.36-1.92v-4.91h-3.34v5.79C472.91,20.64,473.67,22.37,476.19,22.37z"/>
	<path d="M488.22,20.29c-1.01,0-1.63-0.43-1.75-1.2l-2.91,0.04c0.19,2.23,2.08,3.24,4.62,3.24c2.62,0,4.27-1.11,4.27-3.05
		c0-1.79-1.2-2.72-3.26-3.05l-1.79-0.31c-0.31-0.04-0.56-0.21-0.56-0.52c0-0.41,0.37-0.66,1.01-0.66c1.03,0,1.61,0.41,1.73,1.07
		l2.74-0.08c-0.19-1.92-1.75-3.09-4.41-3.09c-2.58,0-4.16,1.3-4.16,3.11c0,1.88,1.17,2.6,3.4,2.95l1.36,0.21
		c0.64,0.1,0.85,0.35,0.85,0.7C489.36,20.02,488.97,20.29,488.22,20.29z"/>
</g>
</svg>
