<?xml version="1.0" encoding="utf-8"?>
<!-- Generator: Adobe Illustrator 23.1.1, SVG Export Plug-In . SVG Version: 6.00 Build 0)  -->
<svg version="1.1" xmlns="http://www.w3.org/2000/svg" xmlns:xlink="http://www.w3.org/1999/xlink" x="0px" y="0px"
	 viewBox="0 0 792 612" style="enable-background:new 0 0 792 612;" xml:space="preserve">
<style type="text/css">
	.st0{display:none;}
	.st1{display:inline;}
	
		.st2{display:inline;fill:#FFFFFF;stroke:#000000;stroke-width:16;stroke-linecap:round;stroke-linejoin:round;stroke-miterlimit:10;}
	.st3{fill:#FFFFFF;stroke:#000000;stroke-width:16;stroke-linecap:round;stroke-linejoin:round;stroke-miterlimit:10;}
	.st4{display:inline;fill:none;stroke:#000000;stroke-width:24;stroke-linejoin:round;stroke-miterlimit:10;}
	.st5{display:inline;fill:#FFFFFF;}
	.st6{fill:#FFFFFF;stroke:#000000;stroke-width:17;stroke-linecap:round;stroke-miterlimit:10;}
	.st7{fill:#FFFFFF;stroke:#000000;stroke-width:17;stroke-miterlimit:10;}
	.st8{stroke:#000000;stroke-width:16.0572;stroke-linecap:round;stroke-miterlimit:10;}
	.st9{fill:#FFFFFF;}
	.st10{fill:#FFFFFF;stroke:#000000;stroke-width:17.1072;stroke-linecap:round;stroke-linejoin:round;stroke-miterlimit:10;}
	.st11{stroke:#000000;stroke-width:17.1072;stroke-linecap:round;stroke-linejoin:round;stroke-miterlimit:10;}
	.st12{fill:#FFFFFF;stroke:#000000;stroke-width:14.7375;stroke-linecap:round;stroke-linejoin:round;stroke-miterlimit:10;}
	.st13{fill:none;stroke:#000000;stroke-width:14.7375;stroke-linecap:round;stroke-linejoin:round;stroke-miterlimit:10;}
	.st14{stroke:#000000;stroke-width:14.7375;stroke-linecap:round;stroke-linejoin:round;stroke-miterlimit:10;}
	.st15{fill:#FFFFFF;stroke:#000000;stroke-width:14.2911;stroke-linecap:round;stroke-linejoin:round;stroke-miterlimit:10;}
	.st16{fill:none;stroke:#000000;stroke-width:13.497;stroke-miterlimit:10;}
	.st17{fill:#FFFFFF;stroke:#000000;stroke-width:13.497;stroke-linecap:round;stroke-linejoin:round;stroke-miterlimit:10;}
	.st18{fill:#FFFFFF;stroke:#000000;stroke-width:13.497;stroke-miterlimit:10;}
	.st19{fill:#FFFFFF;stroke:#000000;stroke-width:14.7439;stroke-linecap:round;stroke-miterlimit:10;}
	.st20{fill:#FFFFFF;stroke:#000000;stroke-width:14.7439;stroke-miterlimit:10;}
	.st21{stroke:#000000;stroke-width:13.9262;stroke-linecap:round;stroke-miterlimit:10;}
	
		.st22{display:inline;fill:#FFFFFF;stroke:#000000;stroke-width:14.6942;stroke-linecap:round;stroke-linejoin:round;stroke-miterlimit:10;}
	.st23{fill:#FFFFFF;stroke:#000000;stroke-width:14.6942;stroke-linecap:round;stroke-linejoin:round;stroke-miterlimit:10;}
	.st24{fill:none;stroke:#000000;stroke-width:24;stroke-linejoin:round;stroke-miterlimit:10;}
	.st25{fill:none;stroke:#000000;stroke-width:30.5612;stroke-linecap:round;stroke-linejoin:round;stroke-miterlimit:10;}
	.st26{fill:#FFFFFF;stroke:#000000;stroke-width:16.2993;stroke-linecap:round;stroke-linejoin:round;stroke-miterlimit:10;}
	.st27{display:inline;fill:#FFFFFF;stroke:#000000;stroke-width:13.497;stroke-linecap:round;stroke-miterlimit:10;}
	
		.st28{display:inline;fill:none;stroke:#000000;stroke-width:13.497;stroke-linecap:round;stroke-linejoin:round;stroke-miterlimit:10;}
	
		.st29{display:inline;fill:#FFFFFF;stroke:#000000;stroke-width:13.497;stroke-linecap:round;stroke-linejoin:round;stroke-miterlimit:10;}
	
		.st30{display:inline;fill:url(#);stroke:#000000;stroke-width:13.497;stroke-linecap:round;stroke-linejoin:round;stroke-miterlimit:10;}
	.st31{fill:#FFFFFF;stroke:#000000;stroke-width:15.2362;stroke-linecap:round;stroke-linejoin:round;stroke-miterlimit:10;}
	.st32{fill:#FFFFFF;stroke:#000000;stroke-width:14.8467;stroke-linecap:round;stroke-linejoin:round;stroke-miterlimit:10;}
	.st33{stroke:#000000;stroke-width:20.1683;stroke-linecap:round;stroke-miterlimit:10;}
	.st34{fill:none;stroke:#000000;stroke-width:14.8467;stroke-linecap:round;stroke-linejoin:round;stroke-miterlimit:10;}
	.st35{fill:#FFFFFF;stroke:#FFFFFF;stroke-width:3;stroke-miterlimit:10;}
	.st36{display:inline;fill:none;stroke:#000000;stroke-width:15;stroke-linecap:round;stroke-linejoin:round;stroke-miterlimit:10;}
	
		.st37{display:inline;fill:#FFFFFF;stroke:#000000;stroke-width:15;stroke-linecap:round;stroke-linejoin:round;stroke-miterlimit:10;}
	.st38{fill:#FFFFFF;stroke:#000000;stroke-width:15;stroke-linecap:round;stroke-linejoin:round;stroke-miterlimit:10;}
	.st39{fill:#FFFFFF;stroke:#000000;stroke-width:11.7326;stroke-linecap:round;stroke-linejoin:round;stroke-miterlimit:10;}
	.st40{fill:#FFFFFF;stroke:#000000;stroke-width:13.2623;stroke-linecap:round;stroke-linejoin:round;stroke-miterlimit:10;}
	.st41{fill:none;stroke:#000000;stroke-width:16;stroke-linecap:round;stroke-miterlimit:10;}
	.st42{fill:url(#);stroke:#000000;stroke-width:16;stroke-linecap:round;stroke-linejoin:round;stroke-miterlimit:10;}
	.st43{fill:#FFFFFF;stroke:#000000;stroke-width:16;stroke-linecap:round;stroke-miterlimit:10;}
	.st44{fill:#FFFFFF;stroke:#000000;stroke-width:13.2623;stroke-linecap:round;stroke-miterlimit:10;}
	.st45{stroke:#000000;stroke-width:4.5213;stroke-miterlimit:10;}
	.st46{fill:none;stroke:#000000;stroke-width:15.2344;stroke-linecap:round;stroke-linejoin:round;stroke-miterlimit:10;}
	.st47{fill:#FFFFFF;stroke:#000000;stroke-width:15.2344;stroke-linecap:round;stroke-linejoin:round;stroke-miterlimit:10;}
	.st48{stroke:#000000;stroke-width:18.3348;stroke-linecap:round;stroke-miterlimit:10;}
	.st49{fill:none;stroke:#000000;stroke-width:13.497;stroke-linecap:round;stroke-linejoin:round;stroke-miterlimit:10;}
	.st50{font-family:'FoundersGrotesk-Bold';}
	.st51{font-size:20.6105px;}
	.st52{font-size:10.3052px;}
	.st53{font-size:19.2364px;}
	.st54{font-size:10px;}
	.st55{display:inline;fill:none;stroke:#000000;stroke-width:16;stroke-linecap:round;stroke-linejoin:round;stroke-miterlimit:10;}
	.st56{fill:#FFFFFF;stroke:#000000;stroke-width:13.3058;stroke-linecap:round;stroke-linejoin:round;stroke-miterlimit:10;}
	.st57{fill:#FFFFFF;stroke:#000000;stroke-width:17;stroke-linecap:round;stroke-linejoin:round;stroke-miterlimit:10;}
	.st58{fill:#FFFFFF;stroke:#000000;stroke-width:15.2517;stroke-linecap:round;stroke-linejoin:round;stroke-miterlimit:10;}
	.st59{stroke:#000000;stroke-width:3;stroke-miterlimit:10;}
	.st60{fill:#FFFFFF;stroke:#000000;stroke-width:16.0686;stroke-linecap:round;stroke-linejoin:round;stroke-miterlimit:10;}
	.st61{fill:#FFFFFF;stroke:#000000;stroke-width:15;stroke-linejoin:round;stroke-miterlimit:10;}
	.st62{fill:url(#);stroke:#000000;stroke-width:13.497;stroke-linecap:round;stroke-linejoin:round;stroke-miterlimit:10;}
	.st63{fill:#06A6FF;}
	.st64{fill:#FF0303;}
	.st65{fill:#3DFF06;}
	.st66{fill:#FFF808;}
	.st67{fill:none;stroke:#000000;stroke-width:0;stroke-linecap:round;stroke-linejoin:round;}
</style>
<g id="unexpanded" class="st0">
	<g class="st1">
		<g>
			<g>
				<g>
					<g>
						<g>
							<g>
								<g>
									<g>
										<path class="st9" d="M453.93,497.08c-4.54,7.5-14.66,9.69-22.59,4.89c-7.93-4.8-10.68-14.78-6.14-22.28l30.12-49.75
											c4.54-7.5,14.66-9.69,22.59-4.89c7.93,4.8,10.68,14.78,6.14,22.28L453.93,497.08z"/>
										<path class="st9" d="M425.2,479.68c-4.54,7.5-14.66,9.69-22.59,4.89c-7.93-4.8-10.68-14.78-6.14-22.28l35.03-57.86
											c4.54-7.5,14.66-9.69,22.59-4.89c7.93,4.8,10.68,14.78,6.14,22.28L425.2,479.68z"/>
										<path class="st9" d="M367.87,444.98c-4.54,7.5-14.66,9.69-22.59,4.89c-7.93-4.8-10.68-14.78-6.14-22.28l35.03-57.86
											c4.54-7.5,14.66-9.69,22.59-4.89c7.93,4.8,10.68,14.78,6.14,22.28L367.87,444.98z"/>
										<path class="st9" d="M396.6,462.37c-4.54,7.5-14.66,9.69-22.59,4.89c-7.93-4.8-10.68-14.78-6.14-22.28l39.95-65.98
											c4.54-7.5,14.66-9.69,22.59-4.89c7.93,4.8,10.68,14.78,6.14,22.28L396.6,462.37z"/>
									</g>
									<path class="st9" d="M397.05,533.23c0,0,13-50.11-35.76-70.35c2.36-4.05,5.14-8.86,5.14-8.86s12.4,5.31,24.04-2.28
										s13.41-17.21,13.41-17.21s-42.77-20.5-50.11-23.53s-15.18,0-23.03,10.12c-7.84,10.12-33.15,41.75-32.14,61.49
										s30.37,49.35,35.17,63.01c2.05,5.82,2.79-17.4,2.63,48.21l93.33,1.29c0-8.62-1.1-28.56,11.9-38.52s33.01-30.84,23.23-86.32
										s-60.99-35.75-60.99-35.75"/>
								</g>
								<g>
									<path class="st40" d="M403.89,434.54c0,0,51.2-19.74,60.99,35.75s-11.17,75.24-23.23,86.32
										c-15.04,13.82-10.41,34.98-10.41,34.98"/>
									<g>
										<path class="st40" d="M453.93,497.08c-4.54,7.5-14.66,9.69-22.59,4.89c-7.93-4.8-10.68-14.78-6.14-22.28l30.12-49.75
											c4.54-7.5,14.66-9.69,22.59-4.89c7.93,4.8,10.68,14.78,6.14,22.28L453.93,497.08z"/>
										<path class="st40" d="M425.2,479.68c-4.54,7.5-14.66,9.69-22.59,4.89c-7.93-4.8-10.68-14.78-6.14-22.28l35.03-57.86
											c4.54-7.5,14.66-9.69,22.59-4.89c7.93,4.8,10.68,14.78,6.14,22.28L425.2,479.68z"/>
										<path class="st40" d="M367.87,444.98c-4.54,7.5-14.66,9.69-22.59,4.89c-7.93-4.8-10.68-14.78-6.14-22.28l35.03-57.86
											c4.54-7.5,14.66-9.69,22.59-4.89c7.93,4.8,10.68,14.78,6.14,22.28L367.87,444.98z"/>
										<path class="st40" d="M396.6,462.37c-4.54,7.5-14.66,9.69-22.59,4.89c-7.93-4.8-10.68-14.78-6.14-22.28l39.95-65.98
											c4.54-7.5,14.66-9.69,22.59-4.89c7.93,4.8,10.68,14.78,6.14,22.28L396.6,462.37z"/>
									</g>
									<path class="st40" d="M397.05,533.23c0,0,13-50.11-35.76-70.35c2.36-4.05,5.14-8.86,5.14-8.86s12.4,5.31,24.04-2.28
										s13.41-17.21,13.41-17.21s-42.77-20.5-50.11-23.53s-15.18,0-23.03,10.12c-7.84,10.12-33.15,41.75-32.14,61.49
										s28.13,50.35,35.17,63.01c8.95,16.08,3.88,33.77,2.63,48.21"/>
								</g>
							</g>
							<line class="st40" x1="378.54" y1="463.51" x2="391.58" y2="459.13"/>
						</g>
						<g>
							<g>
								<g>
									<path class="st9" d="M592.42,297.92c0,0,51.2-19.74,60.99,35.75c9.78,55.49-10.22,76.37-23.23,86.32
										c-13,9.96-6.84,136.79-6.09,174.99h-64.54"/>
									<g>
										<path class="st9" d="M642.46,360.46c-4.54,7.5-14.66,9.69-22.59,4.89s-10.68-14.78-6.14-22.28l30.12-49.75
											c4.54-7.5,14.66-9.69,22.59-4.89c7.93,4.8,10.68,14.78,6.14,22.28L642.46,360.46z"/>
										<path class="st9" d="M613.73,343.06c-4.54,7.5-14.66,9.69-22.59,4.89s-10.68-14.78-6.14-22.28l35.03-57.86
											c4.54-7.5,14.66-9.69,22.59-4.89c7.93,4.8,10.68,14.78,6.14,22.28L613.73,343.06z"/>
										<path class="st9" d="M556.4,308.36c-4.54,7.5-14.66,9.69-22.59,4.89c-7.93-4.8-10.68-14.78-6.14-22.28l35.03-57.86
											c4.54-7.5,14.66-9.69,22.59-4.89c7.93,4.8,10.68,14.78,6.14,22.28L556.4,308.36z"/>
										<path class="st9" d="M585.13,325.75c-4.54,7.5-14.66,9.69-22.59,4.89s-10.68-14.78-6.14-22.28l39.95-65.98
											c4.54-7.5,14.66-9.69,22.59-4.89c7.93,4.8,10.68,14.78,6.14,22.28L585.13,325.75z"/>
									</g>
								</g>
								<g>
									<path class="st40" d="M592.42,297.92c0,0,51.2-19.74,60.99,35.75c9.78,55.49-11.17,75.24-23.23,86.32
										c-25.56,23.48-4.56,46.93-4.05,172.74"/>
									<g>
										<path class="st40" d="M642.46,360.46c-4.54,7.5-14.66,9.69-22.59,4.89s-10.68-14.78-6.14-22.28l30.12-49.75
											c4.54-7.5,14.66-9.69,22.59-4.89c7.93,4.8,10.68,14.78,6.14,22.28L642.46,360.46z"/>
										<path class="st40" d="M613.73,343.06c-4.54,7.5-14.66,9.69-22.59,4.89s-10.68-14.78-6.14-22.28l35.03-57.86
											c4.54-7.5,14.66-9.69,22.59-4.89c7.93,4.8,10.68,14.78,6.14,22.28L613.73,343.06z"/>
										<path class="st40" d="M556.4,308.36c-4.54,7.5-14.66,9.69-22.59,4.89c-7.93-4.8-10.68-14.78-6.14-22.28l35.03-57.86
											c4.54-7.5,14.66-9.69,22.59-4.89c7.93,4.8,10.68,14.78,6.14,22.28L556.4,308.36z"/>
										<path class="st40" d="M585.13,325.75c-4.54,7.5-14.66,9.69-22.59,4.89s-10.68-14.78-6.14-22.28l39.95-65.98
											c4.54-7.5,14.66-9.69,22.59-4.89c7.93,4.8,10.68,14.78,6.14,22.28L585.13,325.75z"/>
									</g>
									<path class="st9" d="M516.07,594.98h81.12l-11.6-198.37c0,0,13-50.11-35.76-70.35c2.36-4.05,5.14-8.86,5.14-8.86
										s12.4,5.32,24.04-2.28c11.64-7.59,13.41-17.21,13.41-17.21s-42.77-20.5-50.11-23.53c-7.34-3.04-15.18,0-23.03,10.12
										s-33.15,41.76-32.14,61.49c1.01,19.74,30.37,49.35,35.17,63.01C525.83,418.97,518.17,498.88,516.07,594.98z"/>
									<path class="st40" d="M585.59,396.61c0,0,13-50.11-35.76-70.35c2.36-4.05,5.14-8.86,5.14-8.86s12.4,5.31,24.04-2.28
										c11.64-7.59,13.41-17.21,13.41-17.21s-42.77-20.5-50.11-23.53c-7.34-3.04-15.18,0-23.03,10.12
										c-7.84,10.12-33.15,41.75-32.14,61.49c1.01,19.74,28.13,50.35,35.17,63.01c14.78,26.57-8.88,58.19-6.26,183.72"/>
								</g>
							</g>
							<line class="st40" x1="567.47" y1="326.89" x2="577.5" y2="322.31"/>
						</g>
						<g>
							<g>
								<g>
									<path class="st9" d="M222.54,297.92c0,0,51.2-19.74,60.99,35.75s-10.22,76.37-23.23,86.32
										c-13,9.96-6.84,136.79-6.09,174.99h-64.54"/>
									<g>
										<path class="st9" d="M272.58,360.46c-4.54,7.5-14.66,9.69-22.59,4.89c-7.93-4.8-10.68-14.78-6.14-22.28l30.12-49.75
											c4.54-7.5,14.66-9.69,22.59-4.89c7.93,4.8,10.68,14.78,6.14,22.28L272.58,360.46z"/>
										<path class="st9" d="M243.84,343.06c-4.54,7.5-14.66,9.69-22.59,4.89c-7.93-4.8-10.68-14.78-6.14-22.28l35.03-57.86
											c4.54-7.5,14.66-9.69,22.59-4.89c7.93,4.8,10.68,14.78,6.14,22.28L243.84,343.06z"/>
										<path class="st9" d="M186.52,308.36c-4.54,7.5-14.66,9.69-22.59,4.89c-7.93-4.8-10.68-14.78-6.14-22.28l35.03-57.86
											c4.54-7.5,14.66-9.69,22.59-4.89c7.93,4.8,10.68,14.78,6.14,22.28L186.52,308.36z"/>
										<path class="st9" d="M215.25,325.75c-4.54,7.5-14.66,9.69-22.59,4.89s-10.68-14.78-6.14-22.28l39.95-65.98
											c4.54-7.5,14.66-9.69,22.59-4.89c7.93,4.8,10.68,14.78,6.14,22.28L215.25,325.75z"/>
									</g>
								</g>
								<g>
									<path class="st40" d="M222.54,297.92c0,0,51.2-19.74,60.99,35.75s-11.17,75.24-23.23,86.32
										c-25.56,23.48-4.56,46.93-4.05,172.74"/>
									<g>
										<path class="st40" d="M272.58,360.46c-4.54,7.5-14.66,9.69-22.59,4.89c-7.93-4.8-10.68-14.78-6.14-22.28l30.12-49.75
											c4.54-7.5,14.66-9.69,22.59-4.89c7.93,4.8,10.68,14.78,6.14,22.28L272.58,360.46z"/>
										<path class="st40" d="M243.84,343.06c-4.54,7.5-14.66,9.69-22.59,4.89c-7.93-4.8-10.68-14.78-6.14-22.28l35.03-57.86
											c4.54-7.5,14.66-9.69,22.59-4.89c7.93,4.8,10.68,14.78,6.14,22.28L243.84,343.06z"/>
										<path class="st40" d="M186.52,308.36c-4.54,7.5-14.66,9.69-22.59,4.89c-7.93-4.8-10.68-14.78-6.14-22.28l35.03-57.86
											c4.54-7.5,14.66-9.69,22.59-4.89c7.93,4.8,10.68,14.78,6.14,22.28L186.52,308.36z"/>
										<path class="st40" d="M215.25,325.75c-4.54,7.5-14.66,9.69-22.59,4.89s-10.68-14.78-6.14-22.28l39.95-65.98
											c4.54-7.5,14.66-9.69,22.59-4.89c7.93,4.8,10.68,14.78,6.14,22.28L215.25,325.75z"/>
									</g>
									<path class="st9" d="M146.18,594.98h81.12l-11.6-198.37c0,0,13-50.11-35.76-70.35c2.36-4.05,5.14-8.86,5.14-8.86
										s12.4,5.32,24.04-2.28c11.64-7.59,13.41-17.21,13.41-17.21s-42.77-20.5-50.11-23.53c-7.34-3.04-15.18,0-23.03,10.12
										s-33.15,41.76-32.14,61.49c1.01,19.74,30.37,49.35,35.17,63.01C155.94,418.97,148.29,498.88,146.18,594.98z"/>
									<path class="st40" d="M215.7,396.61c0,0,13-50.11-35.76-70.35c2.36-4.05,5.14-8.86,5.14-8.86s12.4,5.31,24.04-2.28
										c11.64-7.59,13.41-17.21,13.41-17.21s-42.77-20.5-50.11-23.53c-7.34-3.04-15.18,0-23.03,10.12s-33.15,41.75-32.14,61.49
										c1.01,19.74,28.13,50.35,35.17,63.01c14.78,26.57-8.88,58.19-6.26,183.72"/>
								</g>
							</g>
							<line class="st40" x1="197.85" y1="326.89" x2="208.39" y2="324.6"/>
						</g>
					</g>
				</g>
			</g>
		</g>
		<g>
			<rect x="285.04" y="111.77" width="78.99" height="78.99"/>
			<rect x="364.4" y="111.77" width="78.99" height="78.99"/>
			<rect x="442.98" y="111.77" width="78.99" height="78.99"/>
			
				<rect x="364.01" y="190.73" transform="matrix(4.490281e-11 -1 1 4.490281e-11 173.2757 633.7349)" width="78.99" height="78.99"/>
			
				<rect x="364.01" y="111.37" transform="matrix(4.490281e-11 -1 1 4.490281e-11 252.6347 554.3759)" width="78.99" height="78.99"/>
			<rect x="364.01" y="32.8" transform="matrix(4.490281e-11 -1 1 4.490281e-11 331.2082 475.8025)" width="78.99" height="78.99"/>
		</g>
	</g>
	<g class="st1">
		<text transform="matrix(8.979319e-11 -1 1 8.979319e-11 26.8613 489.8593)"><tspan x="0" y="0" class="st50 st51">www</tspan><tspan x="45.14" y="0" class="st50 st52"> </tspan><tspan x="46.99" y="0" class="st50 st51">.</tspan><tspan x="51.77" y="0" class="st50 st52"> </tspan><tspan x="53.63" y="0" class="st50 st51">Capitalism</tspan><tspan x="150.43" y="0" class="st50 st53"> </tspan><tspan x="153.9" y="0" class="st50 st51">Is</tspan><tspan x="168.88" y="0" class="st50 st53"> </tspan><tspan x="172.34" y="0" class="st50 st51">A</tspan><tspan x="186.6" y="0" class="st50 st52"> </tspan><tspan x="188.46" y="0" class="st50 st51">Virus</tspan><tspan x="236.15" y="0" class="st50 st52"> </tspan><tspan x="238.01" y="0" class="st50 st51">.</tspan><tspan x="242.79" y="0" class="st50 st52"> </tspan><tspan x="244.64" y="0" class="st50 st51">org</tspan></text>
		<text transform="matrix(0 1 -1 0 761.9287 209.1802)"><tspan x="0" y="0" class="st50 st51">#</tspan><tspan x="12.7" y="0" class="st50 st54"> </tspan><tspan x="14.5" y="0" class="st50 st51">Capitalism</tspan><tspan x="111.3" y="0" class="st50 st54"> </tspan><tspan x="113.1" y="0" class="st50 st51">Is</tspan><tspan x="128.09" y="0" class="st50 st54"> </tspan><tspan x="129.89" y="0" class="st50 st51">A</tspan><tspan x="144.15" y="0" class="st50 st54"> </tspan><tspan x="145.95" y="0" class="st50 st51">Virus</tspan></text>
	</g>
</g>
<g id="expanded">
	<path d="M457.52,393.86c-3.77-2.28-7.98-3.45-12.24-3.49c0.71-8.45-3.47-17.12-11.44-21.94c-5.29-3.2-11.47-4.26-17.4-2.98
		c-2.7,0.58-5.18,1.64-7.4,3.07c-1.96-3.72-4.94-7-8.84-9.36c-11.05-6.69-25.27-3.49-31.7,7.13l-22.46,37.09
		c-9.22,1.08-16.48,8.46-20.53,13.69l-1.04,1.34c-15.63,20.09-33.45,45.59-32.48,64.55c0.83,16.11,15.16,36.11,26.69,52.18
		c4.03,5.62,7.51,10.48,9.32,13.72c6.12,11,4.48,23.33,2.9,35.25c-0.42,3.17-0.82,6.17-1.08,9.16c-0.32,3.65,2.38,6.86,6.03,7.18
		c0.2,0.02,0.39,0.03,0.58,0.03c3.4,0,6.3-2.6,6.6-6.06c0.01-0.16,0.03-0.32,0.05-0.48c0.24-2.55,0.59-5.24,0.97-8.08
		c1.7-12.75,3.81-28.61-4.45-43.45c-2.17-3.9-5.86-9.05-10.13-15c-9.39-13.1-23.59-32.9-24.22-45.13
		c-0.84-16.46,22.15-46.02,29.7-55.73l1.06-1.36c5.6-7.22,10.73-9.93,15.25-8.06c5.51,2.28,32.22,15,44.09,20.67
		c-1.53,2.46-4.13,5.56-8.48,8.39c-8.4,5.48-17.47,1.87-17.81,1.74c-3.08-1.32-6.67-0.13-8.35,2.77c0,0-2.78,4.8-5.13,8.84
		c-0.96,1.65-1.16,3.64-0.55,5.45c0.61,1.81,1.97,3.27,3.74,4.01c42.67,17.71,32.36,60.68,31.88,62.57
		c-0.91,3.54,1.22,7.15,4.76,8.07c3.55,0.92,7.16-1.21,8.08-4.75c0.15-0.57,3.59-14.15,0.5-30.48c-0.78-4.15-2.04-8.69-4-13.34
		c-0.07-0.17-0.15-0.34-0.22-0.5c0.08,0.05,0.16,0.09,0.24,0.14c3.61,2,7.59,3.05,11.61,3.05c1.66,0,3.32-0.18,4.97-0.53
		c0.17-0.04,0.33-0.09,0.5-0.14c1.46,5.81,5.19,11.14,10.82,14.55c3.91,2.37,8.22,3.5,12.44,3.5c7.7,0,15.11-3.76,19.26-10.62
		l1.17-1.93c-0.43,31.83-14.48,44.77-23.61,53.15c-17.65,16.21-12.62,40.27-12.4,41.29c0.16,0.75,0.45,1.44,0.83,2.06
		c1.19,1.93,3.32,3.14,5.63,3.14c0.46,0,0.93-0.05,1.4-0.15c3.57-0.76,5.85-4.29,5.1-7.86c-0.04-0.18-3.55-17.72,8.41-28.71
		c11.81-10.85,33.21-30.54,26.7-82.84l16.89-27.89c3.15-5.21,3.98-11.37,2.33-17.35c-1.61-5.85-5.41-10.84-10.71-14.04
		c-3.81-2.31-8.08-3.48-12.38-3.49C469.69,407.41,465.52,398.7,457.52,393.86z M359.73,406.37l20.11-33.22
		c1.66-2.75,4.68-4.24,7.88-4.24c1.88,0,3.83,0.51,5.6,1.59c4.79,2.9,6.54,8.81,3.9,13.18L378.27,415
		C371.03,411.58,364.08,408.34,359.73,406.37z M390.31,420.71l23.18-38.29c1.24-2.05,3.29-3.48,5.75-4.01
		c0.71-0.15,1.43-0.23,2.15-0.23c1.92,0,3.85,0.54,5.58,1.59c4.79,2.9,6.54,8.81,3.9,13.18l-22.32,36.87
		c-0.51-0.51-1.12-0.94-1.8-1.27C406.05,428.22,398.99,424.84,390.31,420.71z M419.52,476.25c-1.24,2.05-3.29,3.48-5.75,4.01
		c-2.6,0.56-5.35,0.08-7.73-1.36c-2.38-1.44-4.08-3.65-4.79-6.22c-0.55-1.98-0.43-3.98,0.3-5.77c0.25-0.36,0.49-0.73,0.72-1.1
		l35.86-59.23c1.23-1.36,2.88-2.31,4.79-2.73c0.71-0.15,1.43-0.23,2.15-0.23c1.92,0,3.85,0.54,5.58,1.59
		c4.79,2.9,6.54,8.81,3.9,13.18L419.52,476.25z M474.47,430.72c2.38,1.44,4.08,3.65,4.79,6.22c0.67,2.43,0.35,4.91-0.89,6.96
		l-30.12,49.75c-2.64,4.36-8.69,5.56-13.48,2.65c-4.79-2.9-6.54-8.81-3.9-13.18l30.12-49.75c1.24-2.05,3.29-3.48,5.75-4.01
		c0.71-0.15,1.43-0.23,2.15-0.23C470.81,429.13,472.74,429.67,474.47,430.72z"/>
	<path d="M669.87,282.75c-3.89-2.35-8.17-3.48-12.37-3.49c0.23-2.63-0.01-5.32-0.74-7.98c-1.61-5.85-5.41-10.84-10.71-14.04
		c-3.76-2.28-7.97-3.45-12.22-3.49c0.22-2.6-0.03-5.27-0.75-7.9c-1.61-5.85-5.41-10.84-10.71-14.04c-5.29-3.2-11.47-4.26-17.4-2.98
		c-2.7,0.58-5.18,1.64-7.4,3.06c-2-3.81-5.03-7.05-8.84-9.36c-5.29-3.2-11.47-4.27-17.4-2.98c-6.07,1.31-11.14,4.9-14.29,10.11
		l-22.45,37.09c-9.22,1.08-16.48,8.46-20.53,13.69l-1.04,1.34c-15.63,20.1-33.45,45.59-32.48,64.56
		c0.83,16.11,15.16,36.11,26.69,52.17c4.03,5.62,7.51,10.48,9.32,13.72c6.16,11.07,4.4,23.73,0.89,48.95
		c-3.72,26.72-9.33,67.09-7.98,131.69c0.08,3.61,3.03,6.49,6.63,6.49c0.05,0,0.09,0,0.14,0c2.82-0.06,5.19-1.88,6.1-4.39
		c0.27-0.74,0.41-1.54,0.4-2.38c-1.33-63.54,4.2-103.29,7.86-129.58c3.67-26.36,5.88-42.28-2.44-57.23c-2.17-3.9-5.86-9.05-10.13-15
		c-9.39-13.1-23.59-32.9-24.22-45.13c-0.84-16.47,22.15-46.02,29.7-55.74l1.05-1.36c5.59-7.22,10.72-9.93,15.25-8.06
		c5.5,2.28,32.22,15,44.08,20.67c-1.53,2.46-4.13,5.56-8.48,8.39c-8.4,5.48-17.47,1.87-17.81,1.74c-3.08-1.32-6.67-0.13-8.35,2.77
		c0,0-2.78,4.8-5.13,8.84c-0.96,1.65-1.16,3.64-0.55,5.45c0.61,1.81,1.97,3.27,3.74,4.01c42.67,17.71,32.36,60.68,31.88,62.57
		c-0.91,3.54,1.22,7.15,4.76,8.07c3.55,0.92,7.16-1.21,8.08-4.75c0.15-0.57,3.59-14.15,0.5-30.48c-0.81-4.3-2.13-9.02-4.22-13.85
		c3.75,2.14,7.84,3.17,11.85,3.17c1.85,0,3.68-0.22,5.46-0.65c0.04,0.17,0.08,0.34,0.13,0.51c1.61,5.85,5.41,10.84,10.71,14.04
		c3.91,2.37,8.22,3.5,12.44,3.5c7.7,0,15.11-3.76,19.26-10.62l1.17-1.93c-0.43,31.83-14.48,44.77-23.61,53.15
		c-17.8,16.35-16.08,33.16-12.3,70c2.49,24.36,5.91,57.72,6.11,107.65c0,0.78,0.15,1.52,0.4,2.22c0.92,2.56,3.36,4.39,6.23,4.39
		c0.01,0,0.02,0,0.03,0c3.66-0.01,6.62-3,6.6-6.66c-0.2-50.58-3.66-84.32-6.18-108.95c-3.82-37.28-4.3-47.51,8.08-58.88
		c11.81-10.85,33.21-30.53,26.7-82.84l16.89-27.89C684.68,303.52,680.92,289.44,669.87,282.75z M548.26,269.76l20.11-33.22
		c1.24-2.05,3.29-3.48,5.75-4.01c0.71-0.15,1.43-0.23,2.15-0.23c1.92,0,3.85,0.54,5.58,1.59c2.38,1.44,4.08,3.65,4.79,6.22
		c0.67,2.43,0.35,4.9-0.89,6.96l-18.97,31.33C559.56,274.97,552.61,271.72,548.26,269.76z M578.84,284.09l23.18-38.29
		c1.24-2.05,3.29-3.48,5.75-4.01c0.71-0.15,1.43-0.23,2.15-0.23c1.92,0,3.85,0.54,5.58,1.59c2.38,1.44,4.08,3.65,4.79,6.22
		c0.67,2.43,0.35,4.91-0.89,6.96l-22.32,36.87c-0.51-0.51-1.12-0.94-1.8-1.27C594.58,291.6,587.52,288.22,578.84,284.09z
		 M608.05,339.63c-2.64,4.36-8.69,5.56-13.48,2.65c-4.41-2.67-6.23-7.88-4.45-12.09c0.23-0.33,0.47-0.66,0.68-1.01l35.86-59.23
		c1.23-1.36,2.88-2.31,4.79-2.73c0.71-0.15,1.43-0.23,2.15-0.23c1.92,0,3.85,0.54,5.58,1.59c2.38,1.44,4.08,3.65,4.79,6.22
		c0.67,2.43,0.35,4.91-0.89,6.96L608.05,339.63z M666.9,307.28l-30.12,49.75c-2.64,4.36-8.69,5.55-13.48,2.65
		c-2.38-1.44-4.08-3.65-4.79-6.22c-0.67-2.43-0.35-4.91,0.89-6.96l30.12-49.75c1.66-2.75,4.68-4.24,7.88-4.24
		c1.88,0,3.83,0.51,5.6,1.59C667.79,297,669.54,302.91,666.9,307.28z"/>
	<path d="M139.55,592.88c0.08,3.61,3.03,6.49,6.63,6.49c0.05,0,0.09,0,0.14,0c2.82-0.06,5.19-1.88,6.1-4.39
		c0.27-0.74,0.41-1.54,0.4-2.38c-1.33-63.54,4.2-103.29,7.86-129.58c3.67-26.37,5.88-42.28-2.44-57.23c-2.17-3.9-5.86-9.05-10.13-15
		c-9.39-13.1-23.59-32.9-24.22-45.13c-0.84-16.47,22.15-46.02,29.7-55.74l1.05-1.36c5.59-7.22,10.73-9.93,15.25-8.06
		c5.5,2.28,32.22,15,44.08,20.67c-1.53,2.46-4.13,5.56-8.48,8.39c-8.4,5.48-17.47,1.87-17.81,1.74c-3.08-1.32-6.67-0.13-8.35,2.77
		c0,0-2.78,4.8-5.13,8.84c-0.96,1.65-1.16,3.64-0.55,5.45c0.61,1.81,1.97,3.27,3.74,4.01c42.67,17.71,32.36,60.68,31.88,62.57
		c-0.91,3.54,1.22,7.15,4.76,8.07c3.55,0.92,7.16-1.21,8.08-4.75c0.15-0.57,3.59-14.15,0.5-30.48c-0.81-4.3-2.13-9.02-4.22-13.85
		c3.68,2.09,7.75,3.18,11.85,3.18c1.66,0,3.32-0.18,4.97-0.53c0.17-0.04,0.33-0.09,0.5-0.14c1.46,5.81,5.19,11.14,10.82,14.55
		c3.91,2.37,8.22,3.5,12.44,3.5c7.7,0,15.11-3.76,19.26-10.62c0,0,0,0,0,0l1.17-1.93c-0.43,31.83-14.48,44.76-23.61,53.15
		c-17.8,16.35-16.08,33.16-12.3,70c2.49,24.36,5.91,57.72,6.11,107.65c0,0.78,0.15,1.52,0.4,2.22c0.92,2.56,3.36,4.39,6.23,4.39
		c0.01,0,0.02,0,0.03,0c3.66-0.01,6.62-3,6.6-6.66c-0.2-50.58-3.66-84.32-6.18-108.95c-3.82-37.28-4.3-47.51,8.08-58.88
		c11.81-10.85,33.21-30.53,26.7-82.84l16.89-27.89c3.15-5.21,3.98-11.37,2.33-17.35c-1.61-5.85-5.41-10.84-10.71-14.04
		c-3.89-2.35-8.17-3.48-12.37-3.49c0.23-2.63-0.01-5.32-0.74-7.98c-1.61-5.85-5.42-10.84-10.71-14.04
		c-3.76-2.28-7.97-3.45-12.22-3.49c0.22-2.6-0.03-5.27-0.75-7.9c-1.61-5.85-5.42-10.84-10.71-14.04s-11.47-4.26-17.4-2.98
		c-2.7,0.58-5.18,1.64-7.4,3.06c-1.96-3.72-4.94-7-8.84-9.36c-5.29-3.2-11.47-4.27-17.4-2.98c-6.07,1.31-11.14,4.9-14.29,10.11
		l-22.45,37.09c-9.22,1.08-16.48,8.46-20.53,13.69l-1.04,1.34c-15.63,20.1-33.45,45.59-32.48,64.56
		c0.83,16.11,15.16,36.11,26.69,52.17c4.03,5.62,7.51,10.48,9.32,13.72c6.16,11.07,4.4,23.73,0.89,48.95
		C143.82,487.9,138.21,528.27,139.55,592.88z M279.63,296.75c1.66-2.75,4.68-4.24,7.88-4.24c1.88,0,3.83,0.51,5.6,1.59
		c2.38,1.44,4.08,3.65,4.79,6.22c0.67,2.43,0.35,4.91-0.89,6.96l-30.12,49.75h0c-2.64,4.36-8.69,5.55-13.48,2.65
		c-4.79-2.9-6.54-8.81-3.9-13.18L279.63,296.75z M256.78,269.95c1.23-1.36,2.88-2.31,4.79-2.73c0.71-0.15,1.43-0.23,2.15-0.23
		c1.92,0,3.85,0.54,5.58,1.59c2.38,1.44,4.08,3.65,4.79,6.22c0.67,2.43,0.35,4.9-0.89,6.96l-35.03,57.86c0,0,0,0,0,0
		c-1.24,2.05-3.29,3.48-5.75,4.01c-2.6,0.56-5.35,0.08-7.73-1.36c-4.41-2.67-6.23-7.88-4.45-12.09c0.23-0.33,0.47-0.66,0.68-1
		L256.78,269.95z M232.14,245.81c1.24-2.05,3.29-3.48,5.75-4.01c0.71-0.15,1.43-0.23,2.15-0.23c1.92,0,3.85,0.54,5.58,1.59
		c2.38,1.44,4.08,3.65,4.79,6.22c0.67,2.43,0.35,4.9-0.89,6.96l-22.32,36.87c-0.51-0.51-1.12-0.94-1.8-1.27
		c-0.7-0.34-7.76-3.72-16.44-7.85L232.14,245.81z M198.49,236.53c1.24-2.05,3.29-3.48,5.75-4.01c0.71-0.15,1.43-0.23,2.15-0.23
		c1.92,0,3.85,0.54,5.58,1.59c4.79,2.9,6.54,8.81,3.9,13.18l-18.97,31.33c-7.24-3.42-14.19-6.67-18.53-8.63L198.49,236.53z"/>
	<path d="M521.97,111.77h-78.57H443v-0.39V32.8h-78.99v78.57v0.39h-78.97v78.99h78.97v78.97H443v-78.97h0.39h78.57V111.77z
		 M364.4,190.73h-0.37v-0.37h0.37V190.73z"/>
	<polygon points="26.86,450.81 26.86,447.53 17.67,444.63 17.67,447.64 22.88,449.29 22.88,449.37 17.67,450.71 17.67,453.37 
		22.88,454.71 22.88,454.79 17.67,456.44 17.67,459.67 17.67,459.76 17.67,462.68 22.88,464.33 22.88,464.41 17.67,465.75 
		17.67,468.41 22.88,469.75 22.88,469.84 17.67,471.48 17.67,474.72 17.67,474.8 17.67,477.73 22.88,479.38 22.88,479.46 
		17.67,480.8 17.67,483.46 22.88,484.8 22.88,484.88 17.67,486.53 17.67,489.85 26.86,486.94 26.86,483.67 21.67,482.32 
		21.67,482.24 26.86,480.9 26.86,477.62 17.8,474.76 26.86,471.9 26.86,468.62 21.67,467.28 21.67,467.2 26.86,465.86 26.86,462.58 
		17.8,459.71 26.86,456.85 26.86,453.57 21.67,452.23 21.67,452.15 	"/>
	<rect x="23.32" y="438.65" width="3.55" height="3.55"/>
	<path d="M21.36,422.76l-0.14,3.36c1.44,0.21,2.78,0.99,2.78,3.01c0,1.92-1.42,3.03-3.63,3.03s-3.63-1.11-3.63-3.03
		c0-2.02,1.34-2.8,2.78-3.01l-0.12-3.36c-3.24,0.25-5.77,2.37-5.77,6.35c0,3.79,2.74,6.66,6.74,6.66s6.74-2.87,6.74-6.66
		C27.11,425.13,24.59,423.01,21.36,422.76z"/>
	<path d="M24.16,412.89h-3.13c-2.56,0-3.61,1.79-3.61,4.23c0,2.76,1.4,4.27,3.42,4.56l0.21-3.09c-0.68-0.14-1.15-0.52-1.15-1.26
		c0-0.8,0.45-1.15,1.22-1.15h0.14l0.43,2.58c0.35,2,1.11,3.28,2.89,3.28c1.57,0,2.49-1.17,2.49-2.97c0-1.46-0.56-2.51-1.63-3.05
		c1.05-0.31,1.63-1.2,1.63-2.33c0-0.95-0.27-1.61-0.6-2.08H24.7c0.1,0.27,0.14,0.47,0.14,0.74
		C24.84,412.68,24.63,412.89,24.16,412.89z M24.92,417.88c0,0.56-0.31,0.93-0.78,0.93c-0.6,0-0.85-0.47-1.01-1.28l-0.25-1.36h0.14
		C24.22,416.17,24.92,416.93,24.92,417.88z"/>
	<path d="M30.16,407.28h-4.86c1.07-0.45,1.81-1.48,1.81-3.03c0-2.7-2.12-4.08-4.84-4.08c-2.7,0-4.84,1.38-4.84,4.08
		c0,1.55,0.74,2.58,1.83,3.03h-1.59v3.34h12.49V407.28z M22.33,407.28H22.2c-1.32,0-2.18-0.72-2.18-1.85c0-1.3,0.93-1.9,2.25-1.9
		c1.34,0,2.27,0.6,2.27,1.9C24.53,406.56,23.67,407.28,22.33,407.28z"/>
	<rect x="17.67" y="395.52" width="9.19" height="3.34"/>
	<rect x="13.87" y="395.49" width="2.93" height="3.38"/>
	<path d="M26.28,387.6h-2.16c0.23,0.56,0.31,1.01,0.31,1.42c0,0.68-0.31,1.05-1.09,1.05h-3.36v-2.39h-2.31v2.39h-2.54v2.1l1.2,0.31
		c0.85,0.23,1.34,0.52,1.48,1.44l0.1,0.68h2.06v-1.24h4.33c2.16,0,2.8-1.46,2.8-3.01C27.11,389.1,26.8,388.3,26.28,387.6z"/>
	<path d="M24.16,377.73h-3.13c-2.56,0-3.61,1.79-3.61,4.23c0,2.76,1.4,4.27,3.42,4.56l0.21-3.09c-0.68-0.14-1.15-0.52-1.15-1.26
		c0-0.8,0.45-1.15,1.22-1.15h0.14l0.43,2.58c0.35,2,1.11,3.28,2.89,3.28c1.57,0,2.49-1.17,2.49-2.97c0-1.46-0.56-2.51-1.63-3.05
		c1.05-0.31,1.63-1.2,1.63-2.33c0-0.95-0.27-1.61-0.6-2.08H24.7c0.1,0.27,0.14,0.47,0.14,0.74
		C24.84,377.52,24.63,377.73,24.16,377.73z M24.92,382.72c0,0.56-0.31,0.93-0.78,0.93c-0.6,0-0.85-0.47-1.01-1.28L22.88,381h0.14
		C24.22,381,24.92,381.77,24.92,382.72z"/>
	<rect x="13.87" y="372.12" width="12.99" height="3.34"/>
	<rect x="13.87" y="366.95" width="2.93" height="3.38"/>
	<rect x="17.67" y="366.97" width="9.19" height="3.34"/>
	<path d="M24.06,356.93c-1.79,0-2.72,1.2-3.05,3.26l-0.31,1.79c-0.04,0.31-0.21,0.56-0.52,0.56c-0.41,0-0.66-0.37-0.66-1.01
		c0-1.03,0.41-1.61,1.07-1.73l-0.08-2.74c-1.92,0.19-3.09,1.75-3.09,4.41c0,2.58,1.3,4.16,3.11,4.16c1.88,0,2.6-1.17,2.95-3.4
		l0.21-1.36c0.1-0.64,0.35-0.85,0.7-0.85c0.37,0,0.64,0.39,0.64,1.13c0,1.01-0.43,1.63-1.2,1.75l0.04,2.91
		c2.23-0.19,3.24-2.08,3.24-4.62C27.11,358.58,26,356.93,24.06,356.93z"/>
	<path d="M17.42,349.45c0,1.38,0.62,2.37,1.63,2.87h-1.38v3.34h9.19v-3.34h-4.51c-1.38,0-2.29-0.39-2.29-1.48
		c0-1.01,0.66-1.26,1.92-1.26h4.89v-3.34h-4.51c-1.38,0-2.29-0.37-2.29-1.48c0-1.01,0.66-1.24,1.92-1.24h4.89v-3.34h-5.77
		c-1.92,0-3.67,0.74-3.67,3.28c0,1.55,0.78,2.64,1.81,3.13C18.16,346.98,17.42,347.82,17.42,349.45z"/>
	<rect x="13.87" y="331.42" width="12.99" height="3.5"/>
	<path d="M24.06,321.3c-1.79,0-2.72,1.2-3.05,3.26l-0.31,1.79c-0.04,0.31-0.21,0.56-0.52,0.56c-0.41,0-0.66-0.37-0.66-1.01
		c0-1.03,0.41-1.61,1.07-1.73l-0.08-2.74c-1.92,0.19-3.09,1.75-3.09,4.41c0,2.58,1.3,4.16,3.11,4.16c1.88,0,2.6-1.17,2.95-3.4
		l0.21-1.36c0.1-0.64,0.35-0.85,0.7-0.85c0.37,0,0.64,0.39,0.64,1.13c0,1.01-0.43,1.63-1.2,1.75l0.04,2.91
		c2.23-0.19,3.24-2.08,3.24-4.62C27.11,322.95,26,321.3,24.06,321.3z"/>
	<path d="M13.87,312.29l12.99,5.17v-3.53l-2.51-0.97v-5.07l2.51-0.97v-3.73l-12.99,5.17V312.29z M17.89,310.39l3.83-1.48v3.05
		l-3.83-1.48V310.39z"/>
	<polygon points="13.87,291.16 22.51,294.38 22.51,294.46 13.87,297.68 13.87,301.35 26.86,296.36 26.86,292.67 13.87,287.68 	"/>
	<rect x="17.67" y="283.44" width="9.19" height="3.34"/>
	<rect x="13.87" y="283.42" width="2.93" height="3.38"/>
	<path d="M19.3,278.28h-1.63v3.34h9.19v-3.34h-4.21c-1.55,0-2.12-0.76-2.12-2c0-0.64,0.12-1.13,0.39-1.59l-3.15-0.21
		c-0.19,0.23-0.35,0.72-0.35,1.28C17.42,276.99,18.27,277.95,19.3,278.28z"/>
	<path d="M22.57,270.23h-4.91v3.34h5.79c1.92,0,3.65-0.76,3.65-3.28c0-1.38-0.6-2.39-1.63-2.89h1.38v-3.34h-9.19v3.34h4.51
		c1.4,0,2.31,0.41,2.31,1.46C24.49,269.88,23.81,270.23,22.57,270.23z"/>
	<path d="M20.53,262.72c1.88,0,2.6-1.18,2.95-3.4l0.21-1.36c0.1-0.64,0.35-0.85,0.7-0.85c0.37,0,0.64,0.39,0.64,1.13
		c0,1.01-0.43,1.63-1.2,1.75l0.04,2.91c2.23-0.19,3.24-2.08,3.24-4.62c0-2.62-1.11-4.27-3.05-4.27c-1.79,0-2.72,1.2-3.05,3.26
		l-0.31,1.79c-0.04,0.31-0.21,0.56-0.52,0.56c-0.41,0-0.66-0.37-0.66-1.01c0-1.03,0.41-1.61,1.07-1.73l-0.08-2.74
		c-1.92,0.19-3.09,1.75-3.09,4.41C17.42,261.14,18.72,262.72,20.53,262.72z"/>
	<rect x="23.32" y="247.64" width="3.55" height="3.55"/>
	<path d="M22.26,244.75c2.87,0,4.84-2.02,4.84-5.03c0-2.99-1.98-5.03-4.84-5.03c-2.84,0-4.84,2.04-4.84,5.03
		C17.42,242.73,19.42,244.75,22.26,244.75z M22.26,238.05c1.38,0,2.33,0.52,2.33,1.67c0,1.17-0.95,1.67-2.33,1.67
		s-2.33-0.5-2.33-1.67C19.93,238.57,20.88,238.05,22.26,238.05z"/>
	<path d="M17.77,226.24c-0.19,0.23-0.35,0.72-0.35,1.28c0,1.22,0.85,2.19,1.88,2.51h-1.63v3.34h9.19v-3.34h-4.21
		c-1.55,0-2.12-0.76-2.12-2c0-0.64,0.12-1.13,0.39-1.59L17.77,226.24z"/>
	<path d="M27.07,215.57c-1.55,0-2.64,1.05-2.64,3.13v3.81c0,0.56-0.25,0.78-0.56,0.78c-0.19,0-0.33-0.06-0.43-0.19
		c0.19-0.6,0.27-1.26,0.27-2c0-2.6-1.2-4.47-3.13-4.47c-0.43,0-0.83,0.1-1.18,0.29c-0.1-0.45-0.14-0.95-0.14-1.34h-2.52
		c0,1.01,0.66,2.02,1.42,2.58c-0.47,0.78-0.74,1.83-0.74,2.95c0,2.58,1.2,4.43,3.15,4.43c1.01,0,1.79-0.49,2.33-1.32
		c0.37,0.99,1.05,1.57,1.94,1.57c0.78,0,1.53-0.5,1.79-1.32c0.08,1.03,0.72,1.75,1.53,1.75c1.73,0,2.25-2.27,2.25-4.89
		C30.41,218.35,29.36,215.57,27.07,215.57z M20.57,222.04c-0.8,0-1.32-0.41-1.32-0.97c0-0.56,0.52-0.97,1.32-0.97
		c0.82,0,1.34,0.41,1.34,0.97C21.91,221.63,21.4,222.04,20.57,222.04z M27.83,223.48c-0.35,0-0.56-0.25-0.56-0.62v-3.38
		c0-0.56,0.14-0.85,0.54-0.85c0.56,0,0.87,1.13,0.87,2.68C28.68,222.55,28.49,223.48,27.83,223.48z"/>
	<path d="M774.92,216.19v-2.49l-3.42-0.83v-2.02l-2.06-0.43v1.98l-2.02-0.5v-1.88l-2.06-0.43v1.81l-3.42-0.8v2.49l3.42,0.8v1.77
		l-3.42-0.8v2.49l3.42,0.8v2.04l2.06,0.43v-1.98l2.02,0.5v1.88l2.06,0.43v-1.83l3.42,0.82v-2.49l-3.42-0.82v-1.77L774.92,216.19z
		 M769.43,216.66l-2.02-0.5v-1.77l2.02,0.5V216.66z"/>
	<path d="M768.42,224.09c-4,0-6.74,2.87-6.74,6.66c0,3.98,2.51,6.1,5.75,6.35l0.14-3.36c-1.44-0.21-2.78-0.99-2.78-3.01
		c0-1.92,1.42-3.03,3.63-3.03s3.63,1.11,3.63,3.03c0,2.02-1.34,2.8-2.78,3.01l0.12,3.36c3.24-0.25,5.77-2.37,5.77-6.35
		C775.16,226.95,772.42,224.09,768.42,224.09z"/>
	<path d="M761.72,246.18c0,0.95,0.27,1.61,0.6,2.08h1.77c-0.1-0.27-0.14-0.47-0.14-0.74c0-0.35,0.21-0.56,0.68-0.56h3.13
		c2.56,0,3.61-1.79,3.61-4.23c0-2.76-1.4-4.27-3.42-4.56l-0.21,3.09c0.68,0.14,1.15,0.51,1.15,1.26c0,0.8-0.45,1.15-1.22,1.15h-0.14
		l-0.43-2.58c-0.35-2-1.11-3.28-2.89-3.28c-1.57,0-2.49,1.17-2.49,2.97c0,1.46,0.56,2.51,1.63,3.05
		C762.3,244.16,761.72,245.05,761.72,246.18z M764.65,241.05c0.6,0,0.85,0.47,1.01,1.28l0.25,1.36h-0.14c-1.2,0-1.9-0.76-1.9-1.71
		C763.87,241.42,764.18,241.05,764.65,241.05z"/>
	<path d="M758.63,252.57h4.86c-1.07,0.45-1.81,1.48-1.81,3.03c0,2.7,2.12,4.08,4.84,4.08c2.7,0,4.84-1.38,4.84-4.08
		c0-1.55-0.74-2.58-1.83-3.03h1.59v-3.34h-12.49V252.57z M766.46,252.57h0.12c1.32,0,2.18,0.72,2.18,1.86c0,1.3-0.93,1.9-2.25,1.9
		c-1.34,0-2.27-0.6-2.27-1.9C764.26,253.29,765.12,252.57,766.46,252.57z"/>
	<rect x="771.99" y="260.98" width="2.93" height="3.38"/>
	<rect x="761.93" y="261" width="9.19" height="3.34"/>
	<path d="M770.98,265.93l-0.1-0.68h-2.06v1.24h-4.33c-2.16,0-2.8,1.46-2.8,3.01c0,1.26,0.31,2.06,0.82,2.76h2.16
		c-0.23-0.56-0.31-1.01-0.31-1.42c0-0.68,0.31-1.05,1.09-1.05h3.36v2.39h2.31v-2.39h2.54v-2.1l-1.2-0.31
		C771.62,267.14,771.12,266.86,770.98,265.93z"/>
	<path d="M761.72,281.35c0,0.95,0.27,1.61,0.6,2.08h1.77c-0.1-0.27-0.14-0.47-0.14-0.74c0-0.35,0.21-0.56,0.68-0.56h3.13
		c2.56,0,3.61-1.79,3.61-4.23c0-2.76-1.4-4.27-3.42-4.56l-0.21,3.09c0.68,0.14,1.15,0.51,1.15,1.26c0,0.8-0.45,1.15-1.22,1.15h-0.14
		l-0.43-2.58c-0.35-2-1.11-3.28-2.89-3.28c-1.57,0-2.49,1.18-2.49,2.97c0,1.46,0.56,2.51,1.63,3.05
		C762.3,279.33,761.72,280.21,761.72,281.35z M764.65,276.21c0.6,0,0.85,0.47,1.01,1.28l0.25,1.36h-0.14c-1.2,0-1.9-0.76-1.9-1.71
		C763.87,276.58,764.18,276.21,764.65,276.21z"/>
	<rect x="761.93" y="284.39" width="12.99" height="3.34"/>
	<rect x="761.93" y="289.55" width="9.19" height="3.34"/>
	<rect x="771.99" y="289.53" width="2.93" height="3.38"/>
	<path d="M764.73,302.92c1.79,0,2.72-1.2,3.05-3.26l0.31-1.79c0.04-0.31,0.21-0.56,0.52-0.56c0.41,0,0.66,0.37,0.66,1.01
		c0,1.03-0.41,1.61-1.07,1.73l0.08,2.74c1.92-0.19,3.09-1.75,3.09-4.41c0-2.58-1.3-4.16-3.11-4.16c-1.88,0-2.6,1.18-2.95,3.4
		l-0.21,1.36c-0.1,0.64-0.35,0.85-0.7,0.85c-0.37,0-0.64-0.39-0.64-1.13c0-1.01,0.43-1.63,1.2-1.75l-0.04-2.91
		c-2.23,0.19-3.24,2.08-3.24,4.62C761.68,301.28,762.79,302.92,764.73,302.92z"/>
	<path d="M771.37,310.41c0-1.38-0.62-2.37-1.63-2.87h1.38v-3.34h-9.19v3.34h4.51c1.38,0,2.29,0.39,2.29,1.48
		c0,1.01-0.66,1.26-1.92,1.26h-4.89v3.34h4.51c1.38,0,2.29,0.37,2.29,1.48c0,1.01-0.66,1.24-1.92,1.24h-4.89v3.34h5.77
		c1.92,0,3.67-0.74,3.67-3.28c0-1.55-0.78-2.64-1.81-3.13C770.63,312.88,771.37,312.03,771.37,310.41z"/>
	<rect x="761.93" y="323.27" width="12.99" height="3.5"/>
	<path d="M764.96,330.92l-0.04-2.91c-2.23,0.19-3.24,2.08-3.24,4.62c0,2.62,1.11,4.27,3.05,4.27c1.79,0,2.72-1.2,3.05-3.26
		l0.31-1.79c0.04-0.31,0.21-0.56,0.52-0.56c0.41,0,0.66,0.37,0.66,1.01c0,1.03-0.41,1.61-1.07,1.73l0.08,2.74
		c1.92-0.19,3.09-1.75,3.09-4.41c0-2.58-1.3-4.16-3.11-4.16c-1.88,0-2.6,1.18-2.95,3.4l-0.21,1.36c-0.1,0.64-0.35,0.85-0.7,0.85
		c-0.37,0-0.64-0.39-0.64-1.13C763.76,331.66,764.2,331.04,764.96,330.92z"/>
	<path d="M774.92,344.24l-12.99-5.17v3.52l2.51,0.97v5.07l-2.51,0.97v3.73l12.99-5.17V344.24z M770.9,346.14l-3.83,1.48v-3.05
		l3.83,1.48V346.14z"/>
	<polygon points="774.92,358.8 774.92,355.13 761.93,360.12 761.93,363.81 774.92,368.8 774.92,365.31 766.28,362.1 766.28,362.01 	
		"/>
	<rect x="771.99" y="369.68" width="2.93" height="3.38"/>
	<rect x="761.93" y="369.7" width="9.19" height="3.34"/>
	<path d="M771.02,381.99c0.19-0.23,0.35-0.72,0.35-1.28c0-1.22-0.85-2.19-1.88-2.52h1.63v-3.34h-9.19v3.34h4.21
		c1.55,0,2.12,0.76,2.12,2c0,0.64-0.12,1.13-0.39,1.59L771.02,381.99z"/>
	<path d="M763.31,389.07h-1.38v3.34h9.19v-3.34h-4.51c-1.4,0-2.31-0.41-2.31-1.46c0-1.01,0.68-1.36,1.92-1.36h4.91v-3.34h-5.79
		c-1.92,0-3.65,0.76-3.65,3.28C761.68,387.57,762.28,388.58,763.31,389.07z"/>
	<path d="M764.73,402.45c1.79,0,2.72-1.2,3.05-3.26l0.31-1.79c0.04-0.31,0.21-0.56,0.52-0.56c0.41,0,0.66,0.37,0.66,1.01
		c0,1.03-0.41,1.61-1.07,1.73l0.08,2.74c1.92-0.19,3.09-1.75,3.09-4.41c0-2.58-1.3-4.16-3.11-4.16c-1.88,0-2.6,1.17-2.95,3.4
		l-0.21,1.36c-0.1,0.64-0.35,0.85-0.7,0.85c-0.37,0-0.64-0.39-0.64-1.13c0-1.01,0.43-1.63,1.2-1.75l-0.04-2.91
		c-2.23,0.19-3.24,2.08-3.24,4.62C761.68,400.8,762.79,402.45,764.73,402.45z"/>
</g>
</svg>
