<?xml version="1.0" encoding="utf-8"?>
<!-- Generator: Adobe Illustrator 23.1.1, SVG Export Plug-In . SVG Version: 6.00 Build 0)  -->
<svg version="1.1" xmlns="http://www.w3.org/2000/svg" xmlns:xlink="http://www.w3.org/1999/xlink" x="0px" y="0px"
	 viewBox="0 0 792 612" style="enable-background:new 0 0 792 612;" xml:space="preserve">
<style type="text/css">
	.st0{display:none;}
	.st1{display:inline;}
	
		.st2{display:inline;fill:#FFFFFF;stroke:#000000;stroke-width:16;stroke-linecap:round;stroke-linejoin:round;stroke-miterlimit:10;}
	.st3{fill:#FFFFFF;stroke:#000000;stroke-width:16;stroke-linecap:round;stroke-linejoin:round;stroke-miterlimit:10;}
	.st4{display:inline;fill:none;stroke:#000000;stroke-width:24;stroke-linejoin:round;stroke-miterlimit:10;}
	.st5{display:inline;fill:#FFFFFF;}
	.st6{fill:#FFFFFF;stroke:#000000;stroke-width:17;stroke-linecap:round;stroke-miterlimit:10;}
	.st7{fill:#FFFFFF;stroke:#000000;stroke-width:17;stroke-miterlimit:10;}
	.st8{stroke:#000000;stroke-width:16.0572;stroke-linecap:round;stroke-miterlimit:10;}
	.st9{fill:#FFFFFF;}
	.st10{fill:#FFFFFF;stroke:#000000;stroke-width:17.1072;stroke-linecap:round;stroke-linejoin:round;stroke-miterlimit:10;}
	.st11{stroke:#000000;stroke-width:17.1072;stroke-linecap:round;stroke-linejoin:round;stroke-miterlimit:10;}
	.st12{fill:#FFFFFF;stroke:#000000;stroke-width:14.7375;stroke-linecap:round;stroke-linejoin:round;stroke-miterlimit:10;}
	.st13{fill:none;stroke:#000000;stroke-width:14.7375;stroke-linecap:round;stroke-linejoin:round;stroke-miterlimit:10;}
	.st14{stroke:#000000;stroke-width:14.7375;stroke-linecap:round;stroke-linejoin:round;stroke-miterlimit:10;}
	.st15{fill:#FFFFFF;stroke:#000000;stroke-width:14.2911;stroke-linecap:round;stroke-linejoin:round;stroke-miterlimit:10;}
	.st16{fill:none;stroke:#000000;stroke-width:13.497;stroke-miterlimit:10;}
	.st17{fill:#FFFFFF;stroke:#000000;stroke-width:13.497;stroke-linecap:round;stroke-linejoin:round;stroke-miterlimit:10;}
	.st18{fill:#FFFFFF;stroke:#000000;stroke-width:13.497;stroke-miterlimit:10;}
	.st19{fill:#FFFFFF;stroke:#000000;stroke-width:14.7439;stroke-linecap:round;stroke-miterlimit:10;}
	.st20{fill:#FFFFFF;stroke:#000000;stroke-width:14.7439;stroke-miterlimit:10;}
	.st21{stroke:#000000;stroke-width:13.9262;stroke-linecap:round;stroke-miterlimit:10;}
	
		.st22{display:inline;fill:#FFFFFF;stroke:#000000;stroke-width:14.6942;stroke-linecap:round;stroke-linejoin:round;stroke-miterlimit:10;}
	.st23{fill:#FFFFFF;stroke:#000000;stroke-width:14.6942;stroke-linecap:round;stroke-linejoin:round;stroke-miterlimit:10;}
	.st24{fill:none;stroke:#000000;stroke-width:24;stroke-linejoin:round;stroke-miterlimit:10;}
	.st25{fill:none;stroke:#000000;stroke-width:30.5612;stroke-linecap:round;stroke-linejoin:round;stroke-miterlimit:10;}
	.st26{fill:#FFFFFF;stroke:#000000;stroke-width:16.2993;stroke-linecap:round;stroke-linejoin:round;stroke-miterlimit:10;}
	.st27{display:inline;fill:#FFFFFF;stroke:#000000;stroke-width:13.497;stroke-linecap:round;stroke-miterlimit:10;}
	
		.st28{display:inline;fill:none;stroke:#000000;stroke-width:13.497;stroke-linecap:round;stroke-linejoin:round;stroke-miterlimit:10;}
	
		.st29{display:inline;fill:#FFFFFF;stroke:#000000;stroke-width:13.497;stroke-linecap:round;stroke-linejoin:round;stroke-miterlimit:10;}
	
		.st30{display:inline;fill:url(#);stroke:#000000;stroke-width:13.497;stroke-linecap:round;stroke-linejoin:round;stroke-miterlimit:10;}
	.st31{fill:#FFFFFF;stroke:#000000;stroke-width:15.2362;stroke-linecap:round;stroke-linejoin:round;stroke-miterlimit:10;}
	.st32{fill:#FFFFFF;stroke:#000000;stroke-width:14.8467;stroke-linecap:round;stroke-linejoin:round;stroke-miterlimit:10;}
	.st33{stroke:#000000;stroke-width:20.1683;stroke-linecap:round;stroke-miterlimit:10;}
	.st34{fill:none;stroke:#000000;stroke-width:14.8467;stroke-linecap:round;stroke-linejoin:round;stroke-miterlimit:10;}
	.st35{fill:#FFFFFF;stroke:#FFFFFF;stroke-width:3;stroke-miterlimit:10;}
	.st36{display:inline;fill:none;stroke:#000000;stroke-width:15;stroke-linecap:round;stroke-linejoin:round;stroke-miterlimit:10;}
	
		.st37{display:inline;fill:#FFFFFF;stroke:#000000;stroke-width:15;stroke-linecap:round;stroke-linejoin:round;stroke-miterlimit:10;}
	.st38{fill:#FFFFFF;stroke:#000000;stroke-width:15;stroke-linecap:round;stroke-linejoin:round;stroke-miterlimit:10;}
	.st39{fill:#FFFFFF;stroke:#000000;stroke-width:11.7326;stroke-linecap:round;stroke-linejoin:round;stroke-miterlimit:10;}
	.st40{fill:#FFFFFF;stroke:#000000;stroke-width:13.2623;stroke-linecap:round;stroke-linejoin:round;stroke-miterlimit:10;}
	.st41{fill:none;stroke:#000000;stroke-width:16;stroke-linecap:round;stroke-miterlimit:10;}
	.st42{fill:url(#);stroke:#000000;stroke-width:16;stroke-linecap:round;stroke-linejoin:round;stroke-miterlimit:10;}
	.st43{fill:#FFFFFF;stroke:#000000;stroke-width:16;stroke-linecap:round;stroke-miterlimit:10;}
	.st44{fill:#FFFFFF;stroke:#000000;stroke-width:13.2623;stroke-linecap:round;stroke-miterlimit:10;}
	.st45{stroke:#000000;stroke-width:4.5213;stroke-miterlimit:10;}
	.st46{fill:none;stroke:#000000;stroke-width:15.2344;stroke-linecap:round;stroke-linejoin:round;stroke-miterlimit:10;}
	.st47{fill:#FFFFFF;stroke:#000000;stroke-width:15.2344;stroke-linecap:round;stroke-linejoin:round;stroke-miterlimit:10;}
	.st48{stroke:#000000;stroke-width:18.3348;stroke-linecap:round;stroke-miterlimit:10;}
	.st49{fill:none;stroke:#000000;stroke-width:13.497;stroke-linecap:round;stroke-linejoin:round;stroke-miterlimit:10;}
	.st50{font-family:'FoundersGrotesk-Bold';}
	.st51{font-size:20.6105px;}
	.st52{font-size:10.3052px;}
	.st53{font-size:19.2364px;}
	.st54{display:inline;fill:none;stroke:#000000;stroke-width:16;stroke-linecap:round;stroke-linejoin:round;stroke-miterlimit:10;}
	.st55{fill:#FFFFFF;stroke:#000000;stroke-width:13.3058;stroke-linecap:round;stroke-linejoin:round;stroke-miterlimit:10;}
	.st56{fill:#FFFFFF;stroke:#000000;stroke-width:17;stroke-linecap:round;stroke-linejoin:round;stroke-miterlimit:10;}
	.st57{fill:#FFFFFF;stroke:#000000;stroke-width:15.2517;stroke-linecap:round;stroke-linejoin:round;stroke-miterlimit:10;}
	.st58{stroke:#000000;stroke-width:3;stroke-miterlimit:10;}
	.st59{fill:#FFFFFF;stroke:#000000;stroke-width:16.0686;stroke-linecap:round;stroke-linejoin:round;stroke-miterlimit:10;}
	.st60{fill:#FFFFFF;stroke:#000000;stroke-width:15;stroke-linejoin:round;stroke-miterlimit:10;}
	.st61{fill:url(#);stroke:#000000;stroke-width:13.497;stroke-linecap:round;stroke-linejoin:round;stroke-miterlimit:10;}
	.st62{fill:#06A6FF;}
	.st63{fill:#FF0303;}
	.st64{fill:#3DFF06;}
	.st65{fill:#FFF808;}
	.st66{fill:none;stroke:#000000;stroke-width:0;stroke-linecap:round;stroke-linejoin:round;}
</style>
<g id="unexpanded" class="st0">
	<g class="st1">
		<g>
			<g>
				<g>
					<path class="st9" d="M170.07,80.56c0,0,38.64,17.14,13.75,52.69s-47.17,36.03-59.67,34.37
						c-12.51-1.66-83.32,77.84-103.72,99.05l-0.35-86.9"/>
					<g>
						<path class="st9" d="M163.27,141.88c-6.56,1.61-13.26-2.7-14.97-9.64c-1.71-6.94,2.23-13.87,8.79-15.48l43.5-10.69
							c6.56-1.61,13.26,2.7,14.97,9.64c1.71,6.94-2.23,13.87-8.79,15.48L163.27,141.88z"/>
						<path class="st9" d="M157.09,116.75c-6.56,1.61-13.26-2.7-14.97-9.64c-1.71-6.94,2.23-13.87,8.79-15.48l50.6-12.44
							c6.56-1.61,13.26,2.7,14.97,9.64c1.71,6.94-2.23,13.87-8.79,15.48L157.09,116.75z"/>
						<path class="st9" d="M144.77,66.62c-6.56,1.61-13.26-2.7-14.97-9.64c-1.71-6.94,2.23-13.87,8.79-15.48l50.6-12.44
							c6.56-1.61,13.26,2.7,14.97,9.64s-2.23,13.87-8.79,15.48L144.77,66.62z"/>
						<path class="st9" d="M150.95,91.75c-6.56,1.61-13.26-2.7-14.97-9.64c-1.71-6.94,2.23-13.87,8.79-15.48l57.7-14.18
							c6.56-1.61,13.26,2.7,14.97,9.64c1.71,6.94-2.23,13.87-8.79,15.48L150.95,91.75z"/>
					</g>
				</g>
				<g>
					<path class="st39" d="M170.07,80.56c0,0,38.64,17.14,13.75,52.69s-47.07,34.9-59.67,34.37
						c-17.99-0.76-46.09,32.91-106.08,98.54"/>
					<g>
						<path class="st39" d="M163.27,141.88c-6.56,1.61-13.26-2.7-14.97-9.64c-1.71-6.94,2.23-13.87,8.79-15.48l43.5-10.69
							c6.56-1.61,13.26,2.7,14.97,9.64c1.71,6.94-2.23,13.87-8.79,15.48L163.27,141.88z"/>
						<path class="st39" d="M157.09,116.75c-6.56,1.61-13.26-2.7-14.97-9.64c-1.71-6.94,2.23-13.87,8.79-15.48l50.6-12.44
							c6.56-1.61,13.26,2.7,14.97,9.64c1.71,6.94-2.23,13.87-8.79,15.48L157.09,116.75z"/>
						<path class="st39" d="M144.77,66.62c-6.56,1.61-13.26-2.7-14.97-9.64c-1.71-6.94,2.23-13.87,8.79-15.48l50.6-12.44
							c6.56-1.61,13.26,2.7,14.97,9.64s-2.23,13.87-8.79,15.48L144.77,66.62z"/>
						<path class="st39" d="M150.95,91.75c-6.56,1.61-13.26-2.7-14.97-9.64c-1.71-6.94,2.23-13.87,8.79-15.48l57.7-14.18
							c6.56-1.61,13.26,2.7,14.97,9.64c1.71,6.94-2.23,13.87-8.79,15.48L150.95,91.75z"/>
					</g>
					<path class="st9" d="M20.65,158.03l-2.59,98.13l94.53-125.56c0,0,34.38-20.21,18.84-57.8c3.49-0.92,7.62-2.03,7.62-2.03
						s3.86,9.65,14.34,11.85c10.48,2.21,16.68-2.07,16.68-2.07S157.94,46.1,155.6,40.45c-2.34-5.65-8.27-8.27-18.06-7.03
						c-9.79,1.24-40.8,4.69-51,15.99c-10.2,11.3-10.34,43.42-15.16,53.48C67.86,110.22,74.14,106.83,20.65,158.03z"/>
					<path class="st39" d="M112.59,130.59c0,0,34.38-20.21,18.84-57.8c3.49-0.92,7.62-2.03,7.62-2.03s3.86,9.65,14.34,11.85
						c10.48,2.21,16.68-2.07,16.68-2.07S157.94,46.1,155.6,40.45c-2.34-5.65-8.27-8.27-18.06-7.03s-40.8,4.69-51,15.99
						s-12.1,42.75-15.16,53.48c-2.63,9.22-21.41,28.06-50.73,55.14"/>
				</g>
			</g>
			<line class="st39" x1="140.71" y1="82.75" x2="148.67" y2="85.72"/>
		</g>
		<g>
			<g>
				<g>
					<path class="st9" d="M407.96,357.36c0,0,41.57-7.69,41.11,35.71s-18.57,56.38-29.82,62.07
						c-11.26,5.7-27.07,112.44-31.92,141.47l-50.5-9.45"/>
					<g>
						<path class="st9" d="M436.98,411.8c-4.5,5.04-12.47,5.26-17.8,0.5s-5.99-12.71-1.49-17.74l29.86-33.4
							c4.5-5.04,12.47-5.26,17.8-0.5c5.33,4.76,5.99,12.71,1.49,17.74L436.98,411.8z"/>
						<path class="st9" d="M417.69,394.56c-4.5,5.04-12.47,5.26-17.8,0.5s-5.99-12.71-1.49-17.74l34.73-38.85
							c4.5-5.04,12.47-5.26,17.8-0.5c5.33,4.76,5.99,12.71,1.49,17.74L417.69,394.56z"/>
						<path class="st9" d="M379.21,360.15c-4.5,5.04-12.47,5.26-17.8,0.5s-5.99-12.71-1.49-17.74l34.73-38.85
							c4.5-5.04,12.47-5.26,17.8-0.5c5.33,4.76,5.99,12.71,1.49,17.74L379.21,360.15z"/>
						<path class="st9" d="M398.49,377.4c-4.5,5.04-12.47,5.26-17.8,0.5s-5.99-12.71-1.49-17.74l39.6-44.3
							c4.5-5.04,12.47-5.26,17.8-0.5s5.99,12.71,1.49,17.74L398.49,377.4z"/>
					</g>
				</g>
				<g>
					<path class="st39" d="M407.96,357.36c0,0,41.57-7.69,41.11,35.71s-19.12,55.39-29.82,62.07
						c-15.42,9.62-19.52,54.03-32.22,143.76"/>
					<g>
						<path class="st39" d="M436.98,411.8c-4.5,5.04-12.47,5.26-17.8,0.5s-5.99-12.71-1.49-17.74l29.86-33.4
							c4.5-5.04,12.47-5.26,17.8-0.5c5.33,4.76,5.99,12.71,1.49,17.74L436.98,411.8z"/>
						<path class="st39" d="M417.69,394.56c-4.5,5.04-12.47,5.26-17.8,0.5s-5.99-12.71-1.49-17.74l34.73-38.85
							c4.5-5.04,12.47-5.26,17.8-0.5c5.33,4.76,5.99,12.71,1.49,17.74L417.69,394.56z"/>
						<path class="st39" d="M379.21,360.15c-4.5,5.04-12.47,5.26-17.8,0.5s-5.99-12.71-1.49-17.74l34.73-38.85
							c4.5-5.04,12.47-5.26,17.8-0.5c5.33,4.76,5.99,12.71,1.49,17.74L379.21,360.15z"/>
						<path class="st39" d="M398.49,377.4c-4.5,5.04-12.47,5.26-17.8,0.5s-5.99-12.71-1.49-17.74l39.6-44.3
							c4.5-5.04,12.47-5.26,17.8-0.5s5.99,12.71,1.49,17.74L398.49,377.4z"/>
					</g>
					<path class="st9" d="M303.9,580.99l63.05,11.8l21.84-161.68c0,0,16.95-36.1-17.1-58.34c2.36-2.73,5.15-5.98,5.15-5.98
						s8.64,5.78,18.53,1.68c9.89-4.1,12.59-11.13,12.59-11.13s-29.48-21.58-34.6-24.92c-5.13-3.34-11.5-2.15-18.87,4.4
						c-7.37,6.55-31.02,26.92-33.05,42.01c-2.03,15.09,16,41.67,17.7,52.7C340.38,439.58,319.12,508.53,303.9,580.99z"/>
					<path class="st39" d="M388.79,431.12c0,0,16.95-36.1-17.1-58.34c2.36-2.73,5.15-5.98,5.15-5.98s8.64,5.78,18.53,1.68
						s12.59-11.13,12.59-11.13s-29.48-21.58-34.6-24.92c-5.13-3.34-11.5-2.15-18.87,4.4c-7.37,6.55-31.02,26.92-33.05,42.01
						c-2.03,15.09,14.16,42.11,17.7,52.7c4.98,14.89-11.23,75.56-31.65,163.08"/>
				</g>
			</g>
			<line class="st39" x1="384.96" y1="375.75" x2="393.21" y2="373.71"/>
		</g>
		<g>
			<g>
				<g>
					<path class="st9" d="M158.21,255.98c0,0,41.29,9.06,24.01,48.88s-39.01,44.74-51.59,45.61
						c15.31-1.06-96.56,151.18-111.07,174.11L2.27,446.12"/>
					<g>
						<path class="st9" d="M163.81,317.42c-6.11,2.89-13.54,0-16.59-6.45c-3.06-6.46-0.59-14.04,5.52-16.93l40.48-19.18
							c6.11-2.89,13.54,0,16.59,6.45s0.59,14.04-5.52,16.93L163.81,317.42z"/>
						<path class="st9" d="M152.73,294.04c-6.11,2.89-13.54,0-16.59-6.45c-3.06-6.46-0.59-14.04,5.52-16.93l47.09-22.31
							c6.11-2.89,13.54,0,16.59,6.45c3.06,6.46,0.59,14.04-5.52,16.93L152.73,294.04z"/>
						<path class="st9" d="M130.63,247.39c-6.11,2.89-13.54,0-16.59-6.45c-3.06-6.46-0.59-14.04,5.52-16.93l47.09-22.31
							c6.11-2.89,13.54,0,16.59,6.45s0.59,14.04-5.52,16.93L130.63,247.39z"/>
						<path class="st9" d="M141.71,270.77c-6.11,2.89-13.54,0-16.59-6.45s-0.59-14.04,5.52-16.93l53.7-25.44
							c6.11-2.89,13.54,0,16.59,6.45c3.06,6.46,0.59,14.04-5.52,16.93L141.71,270.77z"/>
					</g>
				</g>
				<g>
					<path class="st39" d="M158.21,255.98c0,0,41.29,9.06,24.01,48.88s-39.14,43.61-51.59,45.61
						c-21.47,3.44-40.72,59.01-106.92,170.08"/>
					<g>
						<path class="st39" d="M163.81,317.42c-6.11,2.89-13.54,0-16.59-6.45c-3.06-6.46-0.59-14.04,5.52-16.93l40.48-19.18
							c6.11-2.89,13.54,0,16.59,6.45s0.59,14.04-5.52,16.93L163.81,317.42z"/>
						<path class="st39" d="M152.73,294.04c-6.11,2.89-13.54,0-16.59-6.45c-3.06-6.46-0.59-14.04,5.52-16.93l47.09-22.31
							c6.11-2.89,13.54,0,16.59,6.45c3.06,6.46,0.59,14.04-5.52,16.93L152.73,294.04z"/>
						<path class="st39" d="M130.63,247.39c-6.11,2.89-13.54,0-16.59-6.45c-3.06-6.46-0.59-14.04,5.52-16.93l47.09-22.31
							c6.11-2.89,13.54,0,16.59,6.45s0.59,14.04-5.52,16.93L130.63,247.39z"/>
						<path class="st39" d="M141.71,270.77c-6.11,2.89-13.54,0-16.59-6.45s-0.59-14.04,5.52-16.93l53.7-25.44
							c6.11-2.89,13.54,0,16.59,6.45c3.06,6.46,0.59,14.04-5.52,16.93L141.71,270.77z"/>
					</g>
					<path class="st9" d="M20.81,370.75L2.27,513.14L111.9,316.5c0,0,29.64-26.68,6.9-60.4c3.23-1.6,7.07-3.51,7.07-3.51
						s5.71,8.68,16.42,8.75c10.71,0.07,15.93-5.36,15.93-5.36s-18.78-31.34-22.2-36.41c-3.43-5.07-9.76-6.45-19.1-3.28
						s-39.04,12.75-46.77,25.87c-7.73,13.11-1.44,44.61-4.16,55.43C64,305.49,62.98,309.88,20.81,370.75z"/>
					<path class="st39" d="M111.9,316.5c0,0,29.64-26.68,6.9-60.4c3.23-1.6,7.06-3.51,7.06-3.51s5.71,8.68,16.42,8.75
						c10.71,0.07,15.93-5.36,15.93-5.36s-18.78-31.34-22.2-36.41s-9.76-6.45-19.1-3.28s-39.04,12.75-46.77,25.87
						c-7.73,13.11-3.31,44.31-4.16,55.43c-0.8,10.42-18.11,35.87-45.16,73.15"/>
				</g>
			</g>
			<line class="st39" x1="129.88" y1="263.99" x2="138.27" y2="265.31"/>
		</g>
		<g>
			<g>
				<g>
					<path class="st9" d="M319.3,207.29c0,0,42.18-2.82,36.7,40.23s-24.97,53.84-36.82,58.2c-11.84,4.35-78.35,265.79-86.52,294.07
						l-57.06-15.24"/>
					<g>
						<path class="st9" d="M341.82,264.73c-5.06,4.48-13,3.78-17.74-1.57c-4.74-5.35-4.48-13.31,0.58-17.8l33.52-29.71
							c5.06-4.48,13-3.78,17.74,1.57c4.74,5.35,4.48,13.31-0.58,17.8L341.82,264.73z"/>
						<path class="st9" d="M324.66,245.37c-5.06,4.48-13,3.78-17.74-1.57c-4.74-5.35-4.48-13.31,0.58-17.8l39-34.56
							c5.06-4.48,13-3.78,17.74,1.57s4.48,13.31-0.58,17.8L324.66,245.37z"/>
						<path class="st9" d="M290.42,206.74c-5.06,4.48-13,3.78-17.74-1.57c-4.74-5.35-4.48-13.31,0.58-17.8l39-34.56
							c5.06-4.48,13-3.78,17.74,1.57s4.48,13.31-0.58,17.8L290.42,206.74z"/>
						<path class="st9" d="M307.58,226.1c-5.06,4.48-13,3.78-17.74-1.57c-4.74-5.35-4.48-13.31,0.58-17.8l44.47-39.41
							c5.06-4.48,13-3.78,17.74,1.57c4.74,5.35,4.48,13.31-0.58,17.8L307.58,226.1z"/>
					</g>
				</g>
				<g>
					<path class="st39" d="M319.3,207.29c0,0,42.18-2.82,36.7,40.23s-25.41,52.8-36.82,58.2c-24.17,11.43-24.72,100.41-84.51,292.88
						"/>
					<g>
						<path class="st39" d="M341.82,264.73c-5.06,4.48-13,3.78-17.74-1.57c-4.74-5.35-4.48-13.31,0.58-17.8l33.52-29.71
							c5.06-4.48,13-3.78,17.74,1.57c4.74,5.35,4.48,13.31-0.58,17.8L341.82,264.73z"/>
						<path class="st39" d="M324.66,245.37c-5.06,4.48-13,3.78-17.74-1.57c-4.74-5.35-4.48-13.31,0.58-17.8l39-34.56
							c5.06-4.48,13-3.78,17.74,1.57s4.48,13.31-0.58,17.8L324.66,245.37z"/>
						<path class="st39" d="M290.42,206.74c-5.06,4.48-13,3.78-17.74-1.57c-4.74-5.35-4.48-13.31,0.58-17.8l39-34.56
							c5.06-4.48,13-3.78,17.74,1.57s4.48,13.31-0.58,17.8L290.42,206.74z"/>
						<path class="st39" d="M307.58,226.1c-5.06,4.48-13,3.78-17.74-1.57c-4.74-5.35-4.48-13.31,0.58-17.8l44.47-39.41
							c5.06-4.48,13-3.78,17.74,1.57c4.74,5.35,4.48,13.31-0.58,17.8L307.58,226.1z"/>
					</g>
					<path class="st9" d="M127.6,596.61l77.26-2.97l86.85-315.31c0,0,21.02-33.89-10.23-59.93c2.66-2.44,5.81-5.34,5.81-5.34
						s7.91,6.74,18.21,3.82c10.3-2.92,13.8-9.59,13.8-9.59s-26.78-24.85-31.48-28.76c-4.7-3.91-11.17-3.47-19.25,2.18
						c-8.08,5.65-33.93,23.14-37.7,37.89c-3.77,14.75,11.06,43.24,11.48,54.39C242.64,281.13,151.11,526.39,127.6,596.61z"/>
					<path class="st39" d="M291.72,278.33c0,0,21.02-33.89-10.23-59.93c2.66-2.44,5.8-5.34,5.8-5.34s7.91,6.74,18.21,3.82
						c10.3-2.92,13.8-9.59,13.8-9.59s-26.78-24.85-31.48-28.76c-4.7-3.91-11.17-3.47-19.25,2.18c-8.08,5.65-33.93,23.14-37.7,37.89
						c-3.77,14.75,9.19,43.47,11.48,54.39c4.81,22.92-65.01,163.53-114.23,321.96"/>
				</g>
			</g>
			<line class="st39" x1="294.32" y1="222.9" x2="302.75" y2="221.82"/>
		</g>
		<g>
			<g>
				<g>
					<path class="st9" d="M555.98,288.07c0,0,39.58-14.84,46.72,27.97c7.14,42.81-8.42,58.75-18.51,66.33
						c-10.09,7.58-6.2,183.16-5.9,212.59l-51.37-0.48"/>
					<g>
						<path class="st9" d="M594.07,336.59c-3.55,5.75-11.36,7.36-17.44,3.6c-6.08-3.76-8.12-11.46-4.57-17.21l23.55-38.1
							c3.55-5.75,11.36-7.36,17.44-3.6c6.08,3.76,8.12,11.46,4.57,17.21L594.07,336.59z"/>
						<path class="st9" d="M572.07,322.99c-3.55,5.75-11.36,7.36-17.44,3.6c-6.08-3.76-8.12-11.46-4.57-17.21l27.4-44.32
							c3.55-5.75,11.36-7.36,17.44-3.6c6.08,3.76,8.12,11.46,4.57,17.21L572.07,322.99z"/>
						<path class="st9" d="M528.16,295.85c-3.55,5.75-11.36,7.36-17.44,3.6c-6.08-3.76-8.12-11.46-4.57-17.21l27.4-44.32
							c3.55-5.75,11.36-7.36,17.44-3.6c6.08,3.76,8.12,11.46,4.57,17.21L528.16,295.85z"/>
						<path class="st9" d="M550.16,309.45c-3.55,5.75-11.36,7.36-17.44,3.6c-6.08-3.76-8.12-11.46-4.57-17.21l31.24-50.54
							c3.55-5.75,11.36-7.36,17.44-3.6c6.08,3.76,8.12,11.46,4.57,17.21L550.16,309.45z"/>
					</g>
				</g>
				<g>
					<path class="st39" d="M555.98,288.07c0,0,39.58-14.84,46.72,27.97c7.14,42.81-9.14,57.88-18.51,66.33
						c-16.41,14.79-7.36,77.23-4.79,212.19"/>
					<g>
						<path class="st39" d="M594.07,336.59c-3.55,5.75-11.36,7.36-17.44,3.6c-6.08-3.76-8.12-11.46-4.57-17.21l23.55-38.1
							c3.55-5.75,11.36-7.36,17.44-3.6c6.08,3.76,8.12,11.46,4.57,17.21L594.07,336.59z"/>
						<path class="st39" d="M572.07,322.99c-3.55,5.75-11.36,7.36-17.44,3.6c-6.08-3.76-8.12-11.46-4.57-17.21l27.4-44.32
							c3.55-5.75,11.36-7.36,17.44-3.6c6.08,3.76,8.12,11.46,4.57,17.21L572.07,322.99z"/>
						<path class="st39" d="M528.16,295.85c-3.55,5.75-11.36,7.36-17.44,3.6c-6.08-3.76-8.12-11.46-4.57-17.21l27.4-44.32
							c3.55-5.75,11.36-7.36,17.44-3.6c6.08,3.76,8.12,11.46,4.57,17.21L528.16,295.85z"/>
						<path class="st39" d="M550.16,309.45c-3.55,5.75-11.36,7.36-17.44,3.6c-6.08-3.76-8.12-11.46-4.57-17.21l31.24-50.54
							c3.55-5.75,11.36-7.36,17.44-3.6c6.08,3.76,8.12,11.46,4.57,17.21L550.16,309.45z"/>
					</g>
					<path class="st9" d="M493.42,594.16l64.15,0.6l-7.56-230.72c0,0,10.37-38.5-27.04-54.45c1.84-3.1,4.02-6.79,4.02-6.79
						s9.51,4.18,18.53-1.58s10.45-13.16,10.45-13.16s-32.8-16.09-38.43-18.49c-5.63-2.39-11.7-0.11-17.81,7.63
						s-25.83,31.93-25.2,47.14c0.64,15.21,23.04,38.23,26.64,48.79C503.81,380.84,495.73,520.15,493.42,594.16z"/>
					<path class="st39" d="M550.01,364.04c0,0,10.37-38.5-27.04-54.45c1.84-3.1,4.02-6.79,4.02-6.79s9.51,4.18,18.53-1.58
						c9.02-5.76,10.45-13.16,10.45-13.16s-32.8-16.1-38.43-18.49c-5.63-2.39-11.7-0.11-17.81,7.63s-25.83,31.93-25.2,47.14
						c0.64,15.21,21.31,38.99,26.64,48.79c8.97,16.48-0.41,102.58-5.3,221.46"/>
				</g>
			</g>
			<line class="st39" x1="536.55" y1="310.2" x2="544.31" y2="306.74"/>
		</g>
		<g>
			<g>
				<g>
					<path class="st9" d="M703.5,421.26c0,0,38.09-18.33,49.04,23.67c10.95,42-3.12,59.27-12.49,67.72
						c-9.37,8.45,0.65,52.46,3.6,81.74l-51.21,4.13"/>
					<g>
						<path class="st9" d="M745.8,466.17c-3.02,6.04-10.65,8.35-17.04,5.15c-6.39-3.2-9.12-10.69-6.1-16.73l20.04-40.06
							c3.02-6.04,10.65-8.35,17.04-5.15s9.12,10.69,6.1,16.73L745.8,466.17z"/>
						<path class="st9" d="M722.66,454.6c-3.02,6.04-10.65,8.35-17.04,5.15s-9.12-10.69-6.1-16.73l23.31-46.6
							c3.02-6.04,10.65-8.35,17.04-5.15c6.39,3.2,9.12,10.69,6.1,16.73L722.66,454.6z"/>
						<path class="st9" d="M676.49,431.5c-3.02,6.04-10.65,8.35-17.04,5.15c-6.39-3.2-9.12-10.69-6.1-16.73l23.31-46.6
							c3.02-6.04,10.65-8.35,17.04-5.15c6.39,3.2,9.12,10.69,6.1,16.73L676.49,431.5z"/>
						<path class="st9" d="M699.63,443.08c-3.02,6.04-10.65,8.35-17.04,5.15c-6.39-3.2-9.12-10.69-6.1-16.73l26.58-53.14
							c3.02-6.04,10.65-8.35,17.04-5.15c6.39,3.2,9.12,10.69,6.1,16.73L699.63,443.08z"/>
					</g>
				</g>
				<g>
					<path class="st39" d="M703.5,421.26c0,0,38.09-18.33,49.04,23.67c10.95,42-3.91,58.47-12.49,67.72
						c-9.08,9.8-7.32,36.15-1.27,85.15"/>
					<g>
						<path class="st39" d="M745.8,466.17c-3.02,6.04-10.65,8.35-17.04,5.15c-6.39-3.2-9.12-10.69-6.1-16.73l20.04-40.06
							c3.02-6.04,10.65-8.35,17.04-5.15s9.12,10.69,6.1,16.73L745.8,466.17z"/>
						<path class="st39" d="M722.66,454.6c-3.02,6.04-10.65,8.35-17.04,5.15s-9.12-10.69-6.1-16.73l23.31-46.6
							c3.02-6.04,10.65-8.35,17.04-5.15c6.39,3.2,9.12,10.69,6.1,16.73L722.66,454.6z"/>
						<path class="st39" d="M676.49,431.5c-3.02,6.04-10.65,8.35-17.04,5.15c-6.39-3.2-9.12-10.69-6.1-16.73l23.31-46.6
							c3.02-6.04,10.65-8.35,17.04-5.15c6.39,3.2,9.12,10.69,6.1,16.73L676.49,431.5z"/>
						<path class="st39" d="M699.63,443.08c-3.02,6.04-10.65,8.35-17.04,5.15c-6.39-3.2-9.12-10.69-6.1-16.73l26.58-53.14
							c3.02-6.04,10.65-8.35,17.04-5.15c6.39,3.2,9.12,10.69,6.1,16.73L699.63,443.08z"/>
					</g>
					<path class="st9" d="M659.06,601.21l63.94-5.16l-18.63-98.59c0,0,6.88-39.28-31.82-51.8c1.56-3.26,3.4-7.12,3.4-7.12
						s9.85,3.31,18.32-3.24c8.47-6.55,9.23-14.04,9.23-14.04s-34.11-13.09-39.93-14.97s-11.66,0.94-17.05,9.2
						c-5.4,8.26-22.87,34.12-20.87,49.21c2,15.09,26.37,36.01,30.91,46.2C659.87,518.33,654.72,527.29,659.06,601.21z"/>
					<path class="st39" d="M704.37,497.46c0,0,6.88-39.28-31.82-51.8c1.56-3.25,3.4-7.12,3.4-7.12s9.85,3.31,18.32-3.24
						c8.47-6.55,9.23-14.04,9.23-14.04s-34.11-13.09-39.93-14.97s-11.66,0.94-17.05,9.2c-5.4,8.26-22.87,34.11-20.87,49.21
						c2,15.09,24.72,36.92,30.91,46.2c5.81,8.71,7.87,39.52,9.57,85.71"/>
				</g>
			</g>
			<line class="st39" x1="686.14" y1="445.04" x2="693.56" y2="440.91"/>
		</g>
	</g>
	<text transform="matrix(0 1 -1 0 761.9287 42.6057)" class="st1"><tspan x="0" y="0" class="st50 st51">www</tspan><tspan x="45.14" y="0" class="st50 st52"> </tspan><tspan x="46.99" y="0" class="st50 st51">.</tspan><tspan x="51.77" y="0" class="st50 st52"> </tspan><tspan x="53.63" y="0" class="st50 st51">Capitalism</tspan><tspan x="150.43" y="0" class="st50 st53"> </tspan><tspan x="153.9" y="0" class="st50 st51">Is</tspan><tspan x="168.88" y="0" class="st50 st53"> </tspan><tspan x="172.34" y="0" class="st50 st51">A</tspan><tspan x="186.6" y="0" class="st50 st52"> </tspan><tspan x="188.46" y="0" class="st50 st51">Virus</tspan><tspan x="236.15" y="0" class="st50 st52"> </tspan><tspan x="238.01" y="0" class="st50 st51">.</tspan><tspan x="242.79" y="0" class="st50 st52"> </tspan><tspan x="244.64" y="0" class="st50 st51">org</tspan></text>
</g>
<g id="expanded">
	<path d="M221.24,74.72c2.4-4.23,3.08-9.22,1.89-14.04c-1.72-7-7.02-12.14-13.35-13.84c0.81-3.08,0.86-6.34,0.08-9.54
		c-1.18-4.82-4.09-8.92-8.18-11.56c-4.2-2.7-9.12-3.55-13.88-2.38l-32.1,7.89c-3.73-2.84-9.62-4.84-18.89-3.66l-1.3,0.16
		c-19.59,2.45-43.35,6.67-53.32,17.72c-8.47,9.39-11.58,28.22-14.07,43.34c-0.86,5.24-1.61,9.76-2.38,12.46
		c-2.75,9.65-34.04,38.55-49.07,52.44c-2.38,2.2-2.53,5.91-0.33,8.29c1.12,1.21,2.63,1.84,4.16,1.88c0.05,0,0.1,0.01,0.16,0.01
		c1.42,0,2.85-0.51,3.98-1.56c35.98-33.24,49.69-48.38,52.39-57.84c0.96-3.35,1.75-8.18,2.67-13.77
		c2.01-12.17,5.04-30.55,11.2-37.39c8.32-9.22,36.73-12.77,46.06-13.93l1.32-0.17c6.6-0.84,10.6,0.33,11.9,3.46
		c1.56,3.76,8.03,21.9,12.45,34.41c-2.02,0.37-4.72,0.48-8.03-0.22c-7.15-1.51-10-8.07-10.1-8.29c-1.1-2.76-4.09-4.26-6.96-3.49
		c0,0-4.13,1.1-7.61,2.02c-1.64,0.43-3,1.55-3.76,3.07c-0.75,1.52-0.81,3.28-0.17,4.85c13.34,32.29-15.19,49.78-16.41,50.51
		c-2.78,1.65-3.71,5.23-2.07,8.02c1.64,2.79,5.24,3.73,8.03,2.08c0.4-0.23,9.81-5.84,17.12-16.55c1.61-2.36,3.18-5.08,4.54-8.14
		c1.42,3.65,3.89,6.76,7.14,8.93c-2.19,4.01-2.96,8.88-1.76,13.74c2.12,8.62,9.68,14.45,17.9,14.45c1.02,0,2.06-0.09,3.1-0.28
		c-16.44,14.9-30.16,14.34-39.2,13.95c-0.29-0.01-0.57-0.02-0.86-0.02c-18.44,0-41.09,24.92-89.81,78.51
		c-4.25,4.67-8.7,9.57-13.34,14.66c-2.18,2.39-4.38,4.81-6.65,7.28c-2.19,2.39-2.02,6.1,0.37,8.29c1.13,1.03,2.54,1.54,3.96,1.54
		c1.59,0,3.17-0.64,4.33-1.91c7.11-7.77,13.76-15.1,20.01-21.97c42.23-46.46,67.88-74.67,81.11-74.67c0.13,0,0.26,0,0.38,0.01
		c18.37,0.79,38.29-2.58,60.16-30.67l24.11-5.93c4.76-1.17,8.73-4.2,11.2-8.54c2.41-4.23,3.08-9.22,1.89-14.04
		c-0.8-3.26-2.39-6.12-4.5-8.42c4.82-4.44,7.14-11.46,5.42-18.45c-0.79-3.22-2.35-6.05-4.41-8.33
		C219.12,77.86,220.3,76.39,221.24,74.72z M162.37,41.7l28.22-6.94c0.46-0.11,0.92-0.17,1.38-0.17c1.16,0,2.31,0.35,3.35,1.02
		c1.56,1.01,2.68,2.6,3.14,4.5c0.47,1.89,0.22,3.83-0.7,5.44c-0.86,1.51-2.2,2.55-3.79,2.94l-26.73,6.57
		C165.4,49.92,163.62,45.03,162.37,41.7z M209.17,122.54c-0.86,1.51-2.21,2.55-3.8,2.95l-43.5,10.69c-3.41,0.83-6.94-1.56-7.87-5.35
		c-0.93-3.79,1.09-7.55,4.5-8.39l43.5-10.69c0.46-0.11,0.92-0.17,1.38-0.17c2.94,0,5.69,2.24,6.49,5.51
		C210.33,119,210.08,120.93,209.17,122.54z M206.29,98.62l-50.6,12.44c-1.59,0.39-3.27,0.09-4.73-0.85c-1.56-1.01-2.68-2.6-3.14-4.5
		c-0.47-1.89-0.22-3.83,0.7-5.44c0.68-1.2,1.68-2.1,2.86-2.62c0.32-0.06,0.65-0.13,0.97-0.21l51.71-12.71
		c0.08,0,0.16-0.01,0.24-0.01c2.94,0,5.69,2.24,6.5,5.51C211.72,94.02,209.7,97.78,206.29,98.62z M211.04,68.92
		c-0.86,1.51-2.2,2.55-3.8,2.95l-31.39,7.71c-0.06-0.33-0.14-0.65-0.25-0.98c-0.19-0.54-2.05-5.83-4.4-12.44l32.67-8.03
		c0.46-0.11,0.92-0.17,1.38-0.17c2.94,0,5.69,2.24,6.49,5.51C212.21,65.38,211.96,67.31,211.04,68.92z"/>
	<path d="M469.25,356.29c-2.45-2.19-5.37-3.69-8.46-4.42c1.47-6.38-0.59-13.48-5.95-18.28c-2.47-2.21-5.35-3.66-8.34-4.38
		c0.41-1.8,0.55-3.67,0.39-5.58c-0.41-4.85-2.67-9.34-6.37-12.65c-3.7-3.31-8.44-5.04-13.28-4.91c-1.94,0.05-3.81,0.41-5.56,1.03
		c-1.04-2.93-2.81-5.67-5.32-7.91c-3.7-3.31-8.44-5.08-13.28-4.92c-4.99,0.14-9.54,2.23-12.8,5.88l-22.03,24.64
		c-4.68-0.23-10.67,1.44-17.66,7.65l-0.98,0.87c-14.78,13.09-32,30-33.99,44.74c-1.69,12.54,6.39,29.82,12.88,43.71
		c2.25,4.81,4.19,8.96,5.08,11.63c2.06,6.15-0.92,24.96-6.38,50.62c-4.06,19.07-9.49,41.92-15.26,66.19
		c-2.37,9.98-4.8,20.22-7.32,30.91c-0.94,3.99-1.89,8.03-2.85,12.16c-0.74,3.16,1.22,6.31,4.38,7.05c0.45,0.1,0.9,0.15,1.34,0.15
		c2.67,0,5.08-1.83,5.71-4.53c1-4.3,1.99-8.51,2.97-12.67c2.47-10.49,4.86-20.55,7.19-30.36c17.55-73.85,25.79-109.94,21.34-123.25
		c-1.11-3.3-3.18-7.74-5.58-12.87c-5.22-11.17-13.11-28.05-11.88-37.18c1.66-12.31,23.09-31.29,30.14-37.52l1-0.88
		c4.97-4.42,8.93-5.72,11.77-3.87c3.41,2.22,19,13.53,29.72,21.36c-1.46,1.44-3.63,3.06-6.75,4.36c-6.75,2.8-12.81-1-13.02-1.14
		c-2.47-1.65-5.78-1.2-7.71,1.05c0,0-2.79,3.24-5.14,5.97c-1.11,1.28-1.6,2.98-1.37,4.65c0.24,1.68,1.18,3.17,2.6,4.09
		c29.23,19.09,15.62,49.6,15,50.95c-1.37,2.93-0.1,6.42,2.82,7.79c2.93,1.37,6.43,0.12,7.8-2.82c0.2-0.42,4.79-10.36,4.77-23.33
		c0-2.85-0.25-5.99-0.85-9.27c3.18,2.17,6.88,3.35,10.71,3.35c0.07,0,0.14,0,0.21,0c0.48,4.73,2.71,9.09,6.32,12.32
		c3.56,3.19,8.07,4.92,12.75,4.92c0.18,0,0.35,0,0.53-0.01c4.63-0.13,8.86-1.95,12.05-5.13c-5.14,21.62-16.79,28.91-24.47,33.7
		c-15.8,9.86-20.4,43.12-30.47,116c-1.27,9.18-2.62,18.97-4.09,29.38c-0.12,0.85-0.24,1.69-0.36,2.54
		c-0.45,3.21,1.78,6.18,4.99,6.63c0.28,0.04,0.56,0.06,0.83,0.06c2.88,0,5.39-2.12,5.8-5.04c1.61-11.37,3.08-22.02,4.46-31.95
		c8.68-62.79,13.92-100.7,25.06-107.65c10.57-6.6,29.73-18.57,32.3-59.28l16.56-18.53C477.86,374.87,476.98,363.2,469.25,356.29z
		 M391.21,337.92c-4.43-3.2-8.65-6.23-11.57-8.28l19.37-21.67c1.09-1.22,2.65-1.92,4.38-1.97c0.07,0,0.13,0,0.2,0
		c1.79,0,3.53,0.68,4.94,1.94c2.91,2.6,3.37,6.84,1.03,9.46L391.21,337.92z M423.18,319.77c1.09-1.22,2.65-1.92,4.38-1.97
		c0.07,0,0.13,0,0.2,0c1.79,0,3.53,0.68,4.94,1.94c1.45,1.3,2.34,3.04,2.5,4.89c0.14,1.73-0.38,3.35-1.47,4.57l-21.54,24.1
		c-0.23-0.24-0.48-0.46-0.76-0.66c-0.47-0.34-4.99-3.65-10.66-7.78L423.18,319.77z M413.32,390.65c-1.09,1.22-2.65,1.92-4.38,1.97
		c-1.88,0.06-3.68-0.63-5.13-1.93c-2.66-2.37-3.26-6.12-1.56-8.74c0.21-0.21,0.43-0.41,0.63-0.63l35.5-39.71
		c1.07-0.79,2.37-1.2,3.71-1.2c1.71,0,3.5,0.65,4.94,1.94c2.91,2.6,3.37,6.84,1.03,9.46L413.32,390.65z M462.46,374.49l-29.86,33.4
		c0,0,0,0,0,0c-1.09,1.22-2.65,1.92-4.38,1.97c-1.86,0.05-3.68-0.63-5.13-1.93c-1.45-1.3-2.34-3.03-2.49-4.88
		c-0.15-1.73,0.38-3.35,1.47-4.57l29.85-33.4c1.09-1.22,2.65-1.92,4.38-1.97c0.07,0,0.13,0,0.2,0c1.79,0,3.53,0.68,4.94,1.94
		C464.34,367.63,464.8,371.88,462.46,374.49z"/>
	<path d="M130.96,356.39c0.2-0.05,0.4-0.1,0.6-0.13c12.31-1.97,34.61-5.56,52.79-42.08l22.45-10.64c4.42-2.1,7.71-5.87,9.26-10.61
		c1.51-4.63,1.17-9.65-0.95-14.13c-1.41-2.98-3.51-5.48-6.09-7.35c3.84-5.31,4.7-12.65,1.62-19.16c-1.42-3-3.52-5.46-6-7.28
		c3.81-5.31,4.66-12.62,1.58-19.12c-2.12-4.48-5.79-7.92-10.33-9.69c-1.81-0.7-3.66-1.1-5.52-1.21c0.18-3.17-0.43-6.38-1.83-9.35
		c-2.12-4.48-5.79-7.92-10.33-9.69c-4.65-1.81-9.65-1.65-14.08,0.45l-29.87,14.15c-4.22-2.03-10.39-2.81-19.24,0.19l-1.24,0.42
		c-18.71,6.32-41.14,15.21-48.7,28.02c-6.43,10.9-5.7,29.96-5.12,45.28c0.2,5.3,0.38,9.88,0.16,12.69
		c-0.8,10.54-28.94,49.32-44.06,70.15c-1.9,2.62-1.32,6.29,1.3,8.19c0.82,0.6,1.75,0.94,2.69,1.06c0.25,0.03,0.5,0.06,0.75,0.06
		c1.82,0,3.61-0.84,4.75-2.42c29.98-41.32,45.37-64.44,46.27-76.15c0.26-3.47,0.08-8.37-0.14-14.03
		c-0.47-12.32-1.18-30.94,3.5-38.87c6.31-10.7,33.43-19.86,42.35-22.87l1.26-0.43c6.3-2.14,10.46-1.8,12.35,1.01
		c2.28,3.37,12.25,19.85,19.08,31.22c-1.9,0.76-4.58,1.39-7.91,1.39c-7.31-0.04-11.41-5.9-11.55-6.11
		c-1.63-2.48-4.86-3.35-7.51-2.03c0,0-3.83,1.91-7.05,3.5c-1.52,0.75-2.63,2.12-3.07,3.76c-0.43,1.63-0.14,3.38,0.81,4.78
		c19.53,28.97-4.92,51.81-5.97,52.77c-2.39,2.17-2.58,5.87-0.42,8.27c2.17,2.41,5.88,2.6,8.29,0.44c0.34-0.31,8.44-7.69,13.46-19.64
		c1.1-2.63,2.09-5.6,2.81-8.86c2.18,3.37,5.29,5.87,8.78,7.29c-1.4,4.55-1.04,9.44,1.04,13.83c2.12,4.48,5.79,7.92,10.33,9.69
		c2.15,0.83,4.37,1.25,6.57,1.25c2.23,0,4.43-0.45,6.53-1.3c-13.14,17.93-26.71,20.12-35.64,21.55
		c-16.66,2.67-28.99,25.42-56.01,75.27c-14.02,25.88-31.48,58.09-55.03,97.59c-0.18,0.31-0.33,0.63-0.45,0.95
		c-0.98,2.61,0.01,5.62,2.49,7.09c0.94,0.56,1.98,0.83,3,0.83c2,0,3.95-1.02,5.04-2.86c15.37-25.78,28.13-48.43,39.05-68.26
		c5.9-10.72,11.28-20.63,16.22-29.75C106.41,384.19,120.1,358.95,130.96,356.39z M186.84,227.25c0.78-0.37,1.63-0.56,2.49-0.56
		c0.77,0,1.55,0.15,2.31,0.44c1.73,0.67,3.14,2.01,3.98,3.78c1.67,3.52,0.45,7.61-2.73,9.12l-29.21,13.84
		c-0.12-0.31-0.26-0.61-0.44-0.9c-0.3-0.5-3.18-5.3-6.8-11.31L186.84,227.25z M142.89,219.44L169.16,207
		c0.78-0.37,1.63-0.56,2.49-0.56c0.77,0,1.55,0.15,2.31,0.44c1.73,0.67,3.14,2.01,3.98,3.78c0.83,1.76,0.98,3.7,0.4,5.47
		c-0.54,1.65-1.65,2.94-3.13,3.64l-24.88,11.78C147.5,226.89,144.78,222.46,142.89,219.44z M141.44,285.07
		c-0.83-1.76-0.98-3.71-0.4-5.47c0.45-1.39,1.33-2.5,2.48-3.25c0.23-0.1,0.47-0.18,0.7-0.29l48.14-22.8
		c0.46-0.11,0.92-0.17,1.39-0.17c2.52,0,5.04,1.58,6.29,4.22c1.67,3.52,0.45,7.61-2.73,9.12l-47.09,22.31
		C147.05,290.24,143.11,288.6,141.44,285.07z M161.3,312.12c-1.48,0.7-3.18,0.74-4.8,0.11c-1.73-0.67-3.14-2.01-3.98-3.78
		c-0.83-1.76-0.98-3.7-0.4-5.47c0.54-1.65,1.65-2.94,3.13-3.64l40.49-19.18c0.78-0.37,1.63-0.56,2.49-0.56
		c0.77,0,1.55,0.15,2.31,0.44c1.73,0.67,3.14,2.01,3.98,3.78c0.83,1.76,0.98,3.7,0.4,5.47c-0.54,1.65-1.65,2.94-3.13,3.64
		L161.3,312.12z"/>
	<path d="M321.68,311.03c11.27-5.33,31.68-15,38.95-55.13l18.6-16.48c3.67-3.25,5.77-7.79,5.93-12.77c0.16-4.87-1.57-9.59-4.86-13.3
		c-2.23-2.52-4.97-4.3-7.9-5.35c2.2-6.17,0.99-13.46-3.79-18.85c-2.2-2.49-4.9-4.26-7.79-5.32c2.18-6.16,0.95-13.42-3.81-18.8
		c-4.78-5.39-11.87-7.47-18.26-6.03c-0.71-3.1-2.19-6.02-4.37-8.48c-3.29-3.71-7.77-5.99-12.62-6.42
		c-4.97-0.43-9.73,1.11-13.39,4.36l-24.74,21.92c-4.62-0.77-10.76,0.2-18.42,5.55l-1.06,0.74c-16.2,11.29-35.27,26.09-38.95,40.51
		c-3.13,12.26,2.89,30.36,7.72,44.91c1.67,5.04,3.12,9.38,3.7,12.14c2.04,9.75-16.77,57.05-36.7,107.12
		c-23.51,59.08-52.76,132.61-77.39,211.9c-0.96,3.09,0.77,6.38,3.86,7.34c0.58,0.18,1.17,0.27,1.74,0.27c2.5,0,4.82-1.61,5.6-4.13
		c0.03-0.11,0.07-0.22,0.1-0.33c24.47-78.73,53.59-151.9,76.99-210.71c27.05-67.98,39.93-101.21,37.28-113.86
		c-0.71-3.41-2.26-8.05-4.04-13.43c-3.89-11.7-9.77-29.39-7.49-38.31c0.76-2.98,3.07-12.04,34.29-33.78l1.08-0.75
		c5.45-3.81,9.53-4.64,12.14-2.48c3.13,2.6,17.3,15.64,27.04,24.66c-1.62,1.26-3.96,2.62-7.21,3.54c-7.03,2-12.6-2.48-12.8-2.64
		c-2.26-1.92-5.6-1.86-7.78,0.15c0,0-3.14,2.9-5.8,5.33c-1.25,1.14-1.94,2.77-1.9,4.46c0.04,1.69,0.81,3.28,2.11,4.37
		c26.81,22.34,9.78,51.05,8.99,52.34c-1.7,2.75-0.85,6.36,1.9,8.07c2.75,1.71,6.37,0.86,8.08-1.89c0.24-0.39,5.96-9.74,7.45-22.62
		c0.33-2.83,0.45-5.98,0.23-9.31c3.04,2.63,6.71,4.19,10.46,4.58c-0.07,4.75,1.64,9.35,4.85,12.98c3.79,4.28,9.05,6.48,14.25,6.48
		c3.89,0,7.73-1.24,10.93-3.75c-7.62,20.87-20.03,26.76-28.21,30.63c-15.4,7.28-21.24,33.62-34.06,91.32
		c-10.76,48.46-25.5,114.83-53.55,205.12c-0.2,0.63-0.27,1.27-0.26,1.9c0.07,2.44,1.66,4.68,4.12,5.45
		c0.58,0.18,1.17,0.27,1.74,0.27c2.5,0,4.82-1.61,5.6-4.13c28.19-90.75,42.99-157.4,53.8-206.06
		C304.93,345.38,311.48,315.85,321.68,311.03z M338.77,171.72c1.12-0.99,2.54-1.48,3.99-1.48c1.95,0,3.98,0.87,5.46,2.54
		c2.59,2.92,2.55,7.19-0.08,9.52l-24.19,21.44c-0.2-0.26-0.43-0.52-0.67-0.75c-0.42-0.39-4.53-4.21-9.69-8.96L338.77,171.72z
		 M304.92,186.04c-4.03-3.69-7.87-7.19-10.53-9.56l21.75-19.28c1.08-0.96,2.48-1.48,3.99-1.48c0.2,0,0.39,0.01,0.59,0.03
		c1.85,0.16,3.58,1.06,4.87,2.52c1.29,1.46,1.97,3.29,1.91,5.14c-0.06,1.73-0.76,3.28-1.99,4.37L304.92,186.04z M320.77,240.98
		c-2.63,2.33-6.87,1.85-9.46-1.07c-2.36-2.66-2.53-6.44-0.55-8.85c0.24-0.19,0.48-0.37,0.71-0.57l39.86-35.33
		c0.93-0.53,1.97-0.8,3.04-0.8c1.96,0,3.98,0.87,5.46,2.54c2.58,2.92,2.55,7.18-0.08,9.51L320.77,240.98z M337.93,260.34
		c-2.63,2.33-6.87,1.85-9.46-1.07c-1.29-1.46-1.97-3.29-1.91-5.14c0.06-1.73,0.76-3.28,1.98-4.37c0,0,0,0,0.01,0c0,0,0,0,0,0
		l33.52-29.71c1.12-0.99,2.54-1.48,3.99-1.48c1.96,0,3.98,0.87,5.46,2.54c1.29,1.46,1.97,3.29,1.91,5.14
		c-0.06,1.73-0.76,3.29-1.99,4.37L337.93,260.34z"/>
	<path d="M622.62,301.58c2.57-4.17,3.29-9.12,2.01-13.94c-1.25-4.71-4.26-8.73-8.48-11.34c-2.8-1.73-5.93-2.69-9.11-2.86
		c0.33-6.54-2.93-13.17-9.06-16.96c-2.82-1.74-5.91-2.67-8.98-2.85c0.09-1.84-0.1-3.71-0.6-5.56c-1.25-4.71-4.26-8.73-8.48-11.34
		c-6.13-3.79-13.52-3.74-19.23-0.52c-1.54-2.71-3.77-5.1-6.63-6.87c-8.82-5.45-20.26-2.98-25.51,5.51l-17.38,28.12
		c-4.65,0.59-10.25,3.29-16.04,10.62l-0.81,1.02c-12.27,15.47-26.27,35.13-25.64,50c0.53,12.64,11.5,28.25,20.32,40.79
		c3.05,4.34,5.69,8.09,7.03,10.56c5.4,9.93,2.5,60.38-0.87,118.79c-1.7,29.49-3.63,62.92-5.13,99.62c-0.13,3.24,2.38,5.97,5.62,6.1
		c0.08,0,0.16,0,0.24,0c3.13,0,5.73-2.47,5.86-5.63c0.01-0.2,0.02-0.4,0.02-0.6c1.5-36.37,3.41-69.54,5.1-98.83
		c4.37-75.78,6.17-112.76-0.54-125.08c-1.67-3.06-4.48-7.07-7.74-11.7c-7.09-10.09-17.81-25.33-18.19-34.53
		c-0.52-12.41,17.27-34.84,23.12-42.22l0.82-1.04c4.12-5.22,7.79-7.2,10.91-5.87c3.75,1.59,21.07,10,32.99,15.83
		c-1.19,1.67-3.04,3.65-5.89,5.47c-6.16,3.94-12.79,1.25-13.01,1.16c-2.72-1.2-5.9-0.17-7.41,2.38c0,0-2.17,3.68-4.02,6.77
		c-0.86,1.46-1.06,3.21-0.53,4.82s1.72,2.91,3.28,3.57c32.06,13.66,24.07,46,23.68,47.53c-0.84,3.13,1.01,6.34,4.14,7.18
		c3.12,0.84,6.35-1.01,7.19-4.14c0.12-0.45,2.91-11.04,0.62-23.81c-0.5-2.8-1.29-5.84-2.45-8.96c2.53,1.13,5.2,1.69,7.83,1.69
		c1.19,0,2.36-0.11,3.52-0.33c1.25,4.4,4.11,8.41,8.37,11.04c3.1,1.92,6.59,2.91,10.12,2.91c1.27,0,2.55-0.13,3.82-0.39
		c4.53-0.94,8.38-3.47,10.97-7.15c-1.28,22.18-11.48,31.4-18.2,37.46c-13.83,12.47-12.54,46.02-9.72,119.53
		c1.01,26.38,2.27,59.22,3,97.13c0,0.08,0.01,0.16,0.02,0.24c0.18,3.09,2.74,5.52,5.85,5.52c0.04,0,0.08,0,0.11,0
		c3.24-0.06,5.81-2.74,5.75-5.98c-0.73-38.03-1.99-70.92-3-97.36c-2.43-63.34-3.9-101.57,5.85-110.37
		c13.65-12.3,25.52-28.66,21.45-64.03L622.62,301.58z M536.09,271.85c-4.92-2.38-9.61-4.62-12.83-6.13L538.54,241
		c1.15-1.85,3.2-2.85,5.38-2.85c1.34,0,2.72,0.37,3.98,1.15c3.31,2.05,4.51,6.14,2.67,9.13l-11.68,18.89L536.09,271.85z M546.7,277
		l17.69-28.61c1.15-1.85,3.2-2.85,5.38-2.85c1.34,0,2.72,0.37,3.98,1.15c1.66,1.03,2.83,2.58,3.31,4.38
		c0.44,1.68,0.21,3.37-0.65,4.76l-17,27.49c-0.27-0.19-0.55-0.37-0.86-0.52C558.04,282.54,553.01,280.08,546.7,277z M567.08,319.91
		L567.08,319.91c-1.85,2.99-6.05,3.75-9.36,1.7c-3.03-1.87-4.28-5.45-3.07-8.34c0.17-0.24,0.35-0.48,0.51-0.73l27.99-45.27
		c1.19-1.28,2.89-1.96,4.69-1.96c1.34,0,2.72,0.37,3.98,1.15c3.32,2.05,4.51,6.15,2.67,9.13L567.08,319.91z M589.08,333.51
		c-0.86,1.39-2.27,2.36-3.97,2.71c-1.82,0.38-3.73,0.02-5.39-1.01c-3.32-2.05-4.51-6.15-2.67-9.13l23.56-38.1
		c0.86-1.39,2.27-2.35,3.97-2.71c0.47-0.1,0.95-0.15,1.43-0.15c1.37,0,2.74,0.39,3.97,1.15c1.66,1.02,2.83,2.58,3.31,4.37
		c0.45,1.68,0.22,3.37-0.65,4.76L589.08,333.51z"/>
	<path d="M762.37,404.13c-3-1.5-6.2-2.14-9.31-2.03c-0.07-1.86-0.43-3.73-1.09-5.55c-1.67-4.57-5.03-8.32-9.46-10.54
		c-2.97-1.49-6.14-2.13-9.22-2.04c-0.27-6.53-4.12-12.81-10.54-16.02c-6.44-3.23-13.8-2.51-19.19,1.21
		c-1.78-2.56-4.21-4.74-7.21-6.25c-4.44-2.22-9.45-2.67-14.11-1.26c-4.78,1.45-8.62,4.65-10.81,9.03l-14.79,29.56
		c-4.58,1-9.91,4.19-15.03,12.02l-0.72,1.09c-10.83,16.51-23.01,37.35-21.06,52.1c1.66,12.54,13.99,27.1,23.9,38.8
		c3.43,4.05,6.39,7.55,7.95,9.89c2.52,3.78,4.28,14.77,5.55,28.14c1.69,17.79,2.5,39.79,3.04,54.53c0.06,1.65,0.8,3.11,1.93,4.13
		c1.04,0.94,2.42,1.52,3.93,1.52c0.07,0,0.15,0,0.22,0c1.78-0.07,3.33-0.92,4.36-2.2c0.85-1.06,1.34-2.41,1.28-3.88
		c-1.88-51.19-4.03-78.98-10.55-88.75c-1.93-2.9-5.1-6.63-8.76-10.96c-7.97-9.41-20.01-23.63-21.22-32.76
		c-1.63-12.31,14.07-36.25,19.24-44.12l0.73-1.11c3.64-5.57,7.12-7.86,10.34-6.83c3.88,1.25,21.88,8.07,34.28,12.81
		c-1.03,1.76-2.7,3.9-5.37,5.97c-5.78,4.47-12.62,2.39-12.86,2.32c-2.81-0.95-5.89,0.36-7.17,3.04c0,0-1.84,3.86-3.39,7.11
		c-0.73,1.53-0.77,3.29-0.1,4.85c0.67,1.55,1.97,2.75,3.58,3.27c33.23,10.76,28.08,43.8,27.84,45.23c-0.55,3.19,1.58,6.22,4.77,6.77
		c3.19,0.55,6.23-1.58,6.79-4.77c0.08-0.45,1.91-11.26-1.52-23.77c-0.75-2.75-1.81-5.7-3.25-8.71c2.03,0.7,4.15,1.06,6.26,1.06
		c1.74,0,3.47-0.25,5.16-0.73c1.64,4.26,4.85,8,9.33,10.24c2.78,1.39,5.74,2.05,8.63,2.05c6.39,0,12.48-3.22,15.76-8.87
		c0.7,22.19-8.62,32.28-14.77,38.91c-10.34,11.16-9.5,34.85-3.18,86.62c0.13,1.07,0.26,2.14,0.4,3.24c0.37,2.97,2.9,5.15,5.81,5.15
		c0.24,0,0.48-0.01,0.73-0.04c3.21-0.4,5.5-3.33,5.1-6.54c-4.82-38.96-8.16-71.91-0.25-80.44c12.49-13.48,22.84-30.84,15.62-65.69
		l11.11-22.21c2.19-4.38,2.46-9.38,0.75-14.07C770.17,410.1,766.81,406.35,762.37,404.13z M668.91,401.94l13-25.99
		c0.73-1.47,2.05-2.55,3.71-3.05c0.67-0.2,1.36-0.3,2.05-0.3c1.15,0,2.32,0.28,3.41,0.82c3.48,1.74,5.04,5.71,3.48,8.85
		l-12.32,24.62C677.13,404.97,672.26,403.15,668.91,401.94z M693.27,411.07l15.05-30.08c1.07-2.14,3.33-3.35,5.76-3.35
		c1.13,0,2.31,0.26,3.42,0.82c3.49,1.74,5.04,5.72,3.47,8.86l-14.46,28.91c-0.29-0.17-0.59-0.32-0.9-0.44
		C705.06,415.57,699.83,413.57,693.27,411.07z M717.41,451.97C717.41,451.97,717.41,451.97,717.41,451.97
		c-0.73,1.47-2.05,2.55-3.71,3.05c-1.78,0.54-3.72,0.35-5.46-0.52c-1.74-0.87-3.05-2.31-3.69-4.06c-0.48-1.33-0.51-2.71-0.11-3.97
		c0.15-0.26,0.31-0.51,0.44-0.78l23.82-47.6c1.2-1.54,3.1-2.4,5.14-2.4c1.13,0,2.31,0.26,3.42,0.82c1.74,0.87,3.05,2.31,3.69,4.06
		c0.59,1.63,0.52,3.33-0.22,4.8L717.41,451.97z M760.59,423.49l-20.04,40.06c-1.57,3.14-5.68,4.28-9.17,2.53
		c-3.49-1.74-5.04-5.72-3.47-8.86l20.04-40.06c1.07-2.14,3.33-3.35,5.76-3.35c1.13,0,2.31,0.26,3.42,0.82
		c1.74,0.87,3.05,2.31,3.69,4.06C761.41,420.32,761.33,422.02,760.59,423.49z"/>
	<polygon points="771.12,45.93 771.12,42.62 761.93,45.52 761.93,48.8 767.12,50.14 767.12,50.22 761.93,51.56 761.93,54.84 
		770.99,57.7 761.93,60.57 761.93,63.85 767.12,65.19 767.12,65.27 761.93,66.61 761.93,69.89 770.99,72.75 761.93,75.61 
		761.93,78.89 767.12,80.23 767.12,80.31 761.93,81.65 761.93,84.93 771.12,87.84 771.12,84.83 765.91,83.18 765.91,83.1 
		771.12,81.76 771.12,79.1 765.91,77.76 765.91,77.67 771.12,76.03 771.12,72.79 771.12,72.71 771.12,69.78 765.91,68.13 
		765.91,68.05 771.12,66.71 771.12,64.05 765.91,62.71 765.91,62.63 771.12,60.98 771.12,57.75 771.12,57.66 771.12,54.74 
		765.91,53.09 765.91,53.01 771.12,51.67 771.12,49.01 765.91,47.67 765.91,47.58 	"/>
	<rect x="761.93" y="90.27" width="3.55" height="3.55"/>
	<path d="M768.42,96.7c-4,0-6.74,2.87-6.74,6.66c0,3.98,2.51,6.1,5.75,6.35l0.14-3.36c-1.44-0.21-2.78-0.99-2.78-3.01
		c0-1.92,1.42-3.03,3.63-3.03c2.21,0,3.63,1.11,3.63,3.03c0,2.02-1.34,2.8-2.78,3.01l0.12,3.36c3.24-0.25,5.77-2.37,5.77-6.35
		C775.16,99.56,772.42,96.7,768.42,96.7z"/>
	<path d="M761.72,118.79c0,0.95,0.27,1.61,0.6,2.08h1.77c-0.1-0.27-0.14-0.47-0.14-0.74c0-0.35,0.21-0.56,0.68-0.56h3.13
		c2.56,0,3.61-1.79,3.61-4.23c0-2.76-1.4-4.27-3.42-4.56l-0.21,3.09c0.68,0.14,1.15,0.52,1.15,1.26c0,0.8-0.45,1.15-1.22,1.15h-0.14
		l-0.43-2.58c-0.35-2-1.11-3.28-2.89-3.28c-1.57,0-2.49,1.17-2.49,2.97c0,1.46,0.56,2.51,1.63,3.05
		C762.3,116.77,761.72,117.66,761.72,118.79z M764.65,113.66c0.6,0,0.84,0.47,1.01,1.28l0.25,1.36h-0.14c-1.2,0-1.9-0.76-1.9-1.71
		C763.87,114.03,764.18,113.66,764.65,113.66z"/>
	<path d="M758.63,125.18h4.86c-1.07,0.45-1.81,1.48-1.81,3.03c0,2.7,2.12,4.08,4.84,4.08c2.7,0,4.84-1.38,4.84-4.08
		c0-1.55-0.74-2.58-1.83-3.03h1.59v-3.34h-12.49V125.18z M766.46,125.18h0.12c1.32,0,2.18,0.72,2.18,1.85c0,1.3-0.93,1.9-2.25,1.9
		c-1.34,0-2.27-0.6-2.27-1.9C764.26,125.9,765.12,125.18,766.46,125.18z"/>
	<rect x="761.93" y="133.61" width="9.19" height="3.34"/>
	<rect x="771.99" y="133.59" width="2.93" height="3.38"/>
	<path d="M773.66,140.29l-1.2-0.31c-0.85-0.23-1.34-0.52-1.48-1.44l-0.1-0.68h-2.06v1.24h-4.33c-2.16,0-2.8,1.46-2.8,3.01
		c0,1.26,0.31,2.06,0.82,2.76h2.16c-0.23-0.56-0.31-1.01-0.31-1.42c0-0.68,0.31-1.05,1.09-1.05h3.36v2.39h2.31v-2.39h2.54V140.29z"
		/>
	<path d="M764.63,154.74h3.13c2.56,0,3.61-1.79,3.61-4.23c0-2.76-1.4-4.27-3.42-4.56l-0.21,3.09c0.68,0.14,1.15,0.52,1.15,1.26
		c0,0.8-0.45,1.15-1.22,1.15h-0.14l-0.43-2.58c-0.35-2-1.11-3.28-2.89-3.28c-1.57,0-2.49,1.17-2.49,2.97c0,1.46,0.56,2.51,1.63,3.05
		c-1.05,0.31-1.63,1.2-1.63,2.33c0,0.95,0.27,1.61,0.6,2.08h1.77c-0.1-0.27-0.14-0.47-0.14-0.74
		C763.95,154.94,764.16,154.74,764.63,154.74z M763.87,149.75c0-0.56,0.31-0.93,0.78-0.93c0.6,0,0.84,0.47,1.01,1.28l0.25,1.36
		h-0.14C764.57,151.46,763.87,150.7,763.87,149.75z"/>
	<rect x="761.93" y="157" width="12.99" height="3.34"/>
	<rect x="771.99" y="162.13" width="2.93" height="3.38"/>
	<rect x="761.93" y="162.16" width="9.19" height="3.34"/>
	<path d="M768.26,166.83c-1.88,0-2.6,1.17-2.95,3.4l-0.21,1.36c-0.1,0.64-0.35,0.85-0.7,0.85c-0.37,0-0.64-0.39-0.64-1.13
		c0-1.01,0.43-1.63,1.2-1.75l-0.04-2.91c-2.23,0.19-3.24,2.08-3.24,4.62c0,2.62,1.11,4.27,3.05,4.27c1.79,0,2.72-1.2,3.05-3.26
		l0.31-1.79c0.04-0.31,0.21-0.56,0.51-0.56c0.41,0,0.66,0.37,0.66,1.01c0,1.03-0.41,1.61-1.07,1.73l0.08,2.74
		c1.92-0.19,3.09-1.75,3.09-4.41C771.37,168.42,770.07,166.83,768.26,166.83z"/>
	<path d="M771.37,183.01c0-1.38-0.62-2.37-1.63-2.87h1.38v-3.34h-9.19v3.34h4.51c1.38,0,2.29,0.39,2.29,1.48
		c0,1.01-0.66,1.26-1.92,1.26h-4.89v3.34h4.51c1.38,0,2.29,0.37,2.29,1.48c0,1.01-0.66,1.24-1.92,1.24h-4.89v3.34h5.77
		c1.92,0,3.67-0.74,3.67-3.28c0-1.55-0.78-2.64-1.81-3.13C770.63,185.49,771.37,184.64,771.37,183.01z"/>
	<rect x="761.93" y="197.54" width="12.99" height="3.5"/>
	<path d="M764.96,205.19l-0.04-2.91c-2.23,0.19-3.24,2.08-3.24,4.62c0,2.62,1.11,4.27,3.05,4.27c1.79,0,2.72-1.2,3.05-3.26
		l0.31-1.79c0.04-0.31,0.21-0.56,0.51-0.56c0.41,0,0.66,0.37,0.66,1.01c0,1.03-0.41,1.61-1.07,1.73l0.08,2.74
		c1.92-0.19,3.09-1.75,3.09-4.41c0-2.58-1.3-4.17-3.11-4.17c-1.88,0-2.6,1.17-2.95,3.4l-0.21,1.36c-0.1,0.64-0.35,0.84-0.7,0.84
		c-0.37,0-0.64-0.39-0.64-1.13C763.76,205.93,764.2,205.31,764.96,205.19z"/>
	<path d="M761.93,218.53l2.51,0.97v5.07l-2.51,0.97v3.73l12.99-5.17v-3.92L761.93,215V218.53z M767.06,220.5l3.83,1.48v0.08
		l-3.83,1.48V220.5z"/>
	<polygon points="761.93,239.8 774.92,244.78 774.92,241.3 766.28,238.08 766.28,238 774.92,234.79 774.92,231.12 761.93,236.11 	
		"/>
	<rect x="761.93" y="245.69" width="9.19" height="3.34"/>
	<rect x="771.99" y="245.67" width="2.93" height="3.38"/>
	<path d="M769.49,254.18h1.63v-3.34h-9.19v3.34h4.21c1.55,0,2.12,0.76,2.12,2c0,0.64-0.12,1.13-0.39,1.59l3.15,0.21
		c0.19-0.23,0.35-0.72,0.35-1.28C771.37,255.48,770.53,254.51,769.49,254.18z"/>
	<path d="M766.22,262.24h4.91v-3.34h-5.79c-1.92,0-3.65,0.76-3.65,3.28c0,1.38,0.6,2.39,1.63,2.89h-1.38v3.34h9.19v-3.34h-4.51
		c-1.4,0-2.31-0.41-2.31-1.46C764.3,262.59,764.98,262.24,766.22,262.24z"/>
	<path d="M768.26,269.74c-1.88,0-2.6,1.17-2.95,3.4l-0.21,1.36c-0.1,0.64-0.35,0.84-0.7,0.84c-0.37,0-0.64-0.39-0.64-1.13
		c0-1.01,0.43-1.63,1.2-1.75l-0.04-2.91c-2.23,0.19-3.24,2.08-3.24,4.62c0,2.62,1.11,4.27,3.05,4.27c1.79,0,2.72-1.2,3.05-3.26
		l0.31-1.79c0.04-0.31,0.21-0.56,0.51-0.56c0.41,0,0.66,0.37,0.66,1.01c0,1.03-0.41,1.61-1.07,1.73l0.08,2.74
		c1.92-0.19,3.09-1.75,3.09-4.41C771.37,271.33,770.07,269.74,768.26,269.74z"/>
	<rect x="761.93" y="281.28" width="3.55" height="3.55"/>
	<path d="M766.53,287.71c-2.87,0-4.84,2.02-4.84,5.03c0,2.99,1.98,5.03,4.84,5.03c2.85,0,4.84-2.04,4.84-5.03
		C771.37,289.73,769.37,287.71,766.53,287.71z M766.53,294.41c-1.38,0-2.33-0.52-2.33-1.67c0-1.18,0.95-1.67,2.33-1.67
		c1.38,0,2.33,0.49,2.33,1.67C768.86,293.9,767.91,294.41,766.53,294.41z"/>
	<path d="M771.02,306.22c0.19-0.23,0.35-0.72,0.35-1.28c0-1.22-0.84-2.19-1.88-2.51h1.63v-3.34h-9.19v3.34h4.21
		c1.55,0,2.12,0.76,2.12,2c0,0.64-0.12,1.13-0.39,1.59L771.02,306.22z"/>
	<path d="M761.72,316.9c1.55,0,2.64-1.05,2.64-3.13v-3.81c0-0.56,0.25-0.78,0.56-0.78c0.19,0,0.33,0.06,0.43,0.19
		c-0.19,0.6-0.27,1.26-0.27,2c0,2.6,1.2,4.47,3.13,4.47c0.43,0,0.83-0.1,1.17-0.29c0.1,0.45,0.14,0.95,0.14,1.34h2.52
		c0-1.01-0.66-2.02-1.42-2.58c0.47-0.78,0.74-1.83,0.74-2.95c0-2.58-1.2-4.43-3.15-4.43c-1.01,0-1.79,0.5-2.33,1.32
		c-0.37-0.99-1.05-1.57-1.94-1.57c-0.78,0-1.53,0.49-1.79,1.32c-0.08-1.03-0.72-1.75-1.53-1.75c-1.73,0-2.25,2.27-2.25,4.89
		C758.38,314.12,759.43,316.9,761.72,316.9z M768.22,310.43c0.8,0,1.32,0.41,1.32,0.97s-0.52,0.97-1.32,0.97
		c-0.82,0-1.34-0.41-1.34-0.97S767.39,310.43,768.22,310.43z M760.96,308.98c0.35,0,0.56,0.25,0.56,0.62v3.38
		c0,0.56-0.14,0.85-0.54,0.85c-0.56,0-0.87-1.13-0.87-2.68C760.12,309.91,760.3,308.98,760.96,308.98z"/>
</g>
</svg>
