<?xml version="1.0" encoding="utf-8"?>
<!-- Generator: Adobe Illustrator 23.1.1, SVG Export Plug-In . SVG Version: 6.00 Build 0)  -->
<svg version="1.1" xmlns="http://www.w3.org/2000/svg" xmlns:xlink="http://www.w3.org/1999/xlink" x="0px" y="0px"
	 viewBox="0 0 792 612" style="enable-background:new 0 0 792 612;" xml:space="preserve">
<style type="text/css">
	.st0{display:none;}
	.st1{display:inline;}
	
		.st2{display:inline;fill:#FFFFFF;stroke:#000000;stroke-width:16;stroke-linecap:round;stroke-linejoin:round;stroke-miterlimit:10;}
	.st3{fill:#FFFFFF;stroke:#000000;stroke-width:16;stroke-linecap:round;stroke-linejoin:round;stroke-miterlimit:10;}
	.st4{display:inline;fill:none;stroke:#000000;stroke-width:24;stroke-linejoin:round;stroke-miterlimit:10;}
	.st5{display:inline;fill:#FFFFFF;}
	.st6{fill:#FFFFFF;stroke:#000000;stroke-width:17;stroke-linecap:round;stroke-miterlimit:10;}
	.st7{fill:#FFFFFF;stroke:#000000;stroke-width:17;stroke-miterlimit:10;}
	.st8{stroke:#000000;stroke-width:16.0572;stroke-linecap:round;stroke-miterlimit:10;}
	.st9{fill:#FFFFFF;}
	.st10{fill:#FFFFFF;stroke:#000000;stroke-width:17.1072;stroke-linecap:round;stroke-linejoin:round;stroke-miterlimit:10;}
	.st11{stroke:#000000;stroke-width:17.1072;stroke-linecap:round;stroke-linejoin:round;stroke-miterlimit:10;}
	.st12{fill:#FFFFFF;stroke:#000000;stroke-width:14.7375;stroke-linecap:round;stroke-linejoin:round;stroke-miterlimit:10;}
	.st13{fill:none;stroke:#000000;stroke-width:14.7375;stroke-linecap:round;stroke-linejoin:round;stroke-miterlimit:10;}
	.st14{stroke:#000000;stroke-width:14.7375;stroke-linecap:round;stroke-linejoin:round;stroke-miterlimit:10;}
	.st15{fill:#FFFFFF;stroke:#000000;stroke-width:14.2911;stroke-linecap:round;stroke-linejoin:round;stroke-miterlimit:10;}
	.st16{fill:none;stroke:#000000;stroke-width:13.497;stroke-miterlimit:10;}
	.st17{fill:#FFFFFF;stroke:#000000;stroke-width:13.497;stroke-linecap:round;stroke-linejoin:round;stroke-miterlimit:10;}
	.st18{fill:#FFFFFF;stroke:#000000;stroke-width:13.497;stroke-miterlimit:10;}
	.st19{fill:#FFFFFF;stroke:#000000;stroke-width:14.7439;stroke-linecap:round;stroke-miterlimit:10;}
	.st20{fill:#FFFFFF;stroke:#000000;stroke-width:14.7439;stroke-miterlimit:10;}
	.st21{stroke:#000000;stroke-width:13.9262;stroke-linecap:round;stroke-miterlimit:10;}
	
		.st22{display:inline;fill:#FFFFFF;stroke:#000000;stroke-width:14.6942;stroke-linecap:round;stroke-linejoin:round;stroke-miterlimit:10;}
	.st23{fill:#FFFFFF;stroke:#000000;stroke-width:14.6942;stroke-linecap:round;stroke-linejoin:round;stroke-miterlimit:10;}
	.st24{fill:none;stroke:#000000;stroke-width:24;stroke-linejoin:round;stroke-miterlimit:10;}
	.st25{fill:none;stroke:#000000;stroke-width:30.5612;stroke-linecap:round;stroke-linejoin:round;stroke-miterlimit:10;}
	.st26{fill:#FFFFFF;stroke:#000000;stroke-width:16.2993;stroke-linecap:round;stroke-linejoin:round;stroke-miterlimit:10;}
	.st27{display:inline;fill:#FFFFFF;stroke:#000000;stroke-width:13.497;stroke-linecap:round;stroke-miterlimit:10;}
	
		.st28{display:inline;fill:none;stroke:#000000;stroke-width:13.497;stroke-linecap:round;stroke-linejoin:round;stroke-miterlimit:10;}
	
		.st29{display:inline;fill:#FFFFFF;stroke:#000000;stroke-width:13.497;stroke-linecap:round;stroke-linejoin:round;stroke-miterlimit:10;}
	
		.st30{display:inline;fill:url(#);stroke:#000000;stroke-width:13.497;stroke-linecap:round;stroke-linejoin:round;stroke-miterlimit:10;}
	.st31{fill:#FFFFFF;stroke:#000000;stroke-width:15.2362;stroke-linecap:round;stroke-linejoin:round;stroke-miterlimit:10;}
	.st32{fill:#FFFFFF;stroke:#000000;stroke-width:14.8467;stroke-linecap:round;stroke-linejoin:round;stroke-miterlimit:10;}
	.st33{stroke:#000000;stroke-width:20.1683;stroke-linecap:round;stroke-miterlimit:10;}
	.st34{fill:none;stroke:#000000;stroke-width:14.8467;stroke-linecap:round;stroke-linejoin:round;stroke-miterlimit:10;}
	.st35{fill:#FFFFFF;stroke:#FFFFFF;stroke-width:3;stroke-miterlimit:10;}
	.st36{display:inline;fill:none;stroke:#000000;stroke-width:15;stroke-linecap:round;stroke-linejoin:round;stroke-miterlimit:10;}
	
		.st37{display:inline;fill:#FFFFFF;stroke:#000000;stroke-width:15;stroke-linecap:round;stroke-linejoin:round;stroke-miterlimit:10;}
	.st38{fill:#FFFFFF;stroke:#000000;stroke-width:15;stroke-linecap:round;stroke-linejoin:round;stroke-miterlimit:10;}
	.st39{fill:#FFFFFF;stroke:#000000;stroke-width:11.7326;stroke-linecap:round;stroke-linejoin:round;stroke-miterlimit:10;}
	.st40{fill:#FFFFFF;stroke:#000000;stroke-width:13.2623;stroke-linecap:round;stroke-linejoin:round;stroke-miterlimit:10;}
	.st41{fill:none;stroke:#000000;stroke-width:16;stroke-linecap:round;stroke-miterlimit:10;}
	.st42{fill:url(#);stroke:#000000;stroke-width:16;stroke-linecap:round;stroke-linejoin:round;stroke-miterlimit:10;}
	.st43{fill:#FFFFFF;stroke:#000000;stroke-width:16;stroke-linecap:round;stroke-miterlimit:10;}
	.st44{fill:#FFFFFF;stroke:#000000;stroke-width:13.2623;stroke-linecap:round;stroke-miterlimit:10;}
	.st45{stroke:#000000;stroke-width:4.5213;stroke-miterlimit:10;}
	.st46{fill:none;stroke:#000000;stroke-width:15.2344;stroke-linecap:round;stroke-linejoin:round;stroke-miterlimit:10;}
	.st47{fill:#FFFFFF;stroke:#000000;stroke-width:15.2344;stroke-linecap:round;stroke-linejoin:round;stroke-miterlimit:10;}
	.st48{stroke:#000000;stroke-width:18.3348;stroke-linecap:round;stroke-miterlimit:10;}
	.st49{fill:none;stroke:#000000;stroke-width:13.497;stroke-linecap:round;stroke-linejoin:round;stroke-miterlimit:10;}
	.st50{display:inline;fill:none;stroke:#000000;stroke-width:16;stroke-linecap:round;stroke-linejoin:round;stroke-miterlimit:10;}
	.st51{fill:#FFFFFF;stroke:#000000;stroke-width:13.3058;stroke-linecap:round;stroke-linejoin:round;stroke-miterlimit:10;}
	.st52{fill:#FFFFFF;stroke:#000000;stroke-width:17;stroke-linecap:round;stroke-linejoin:round;stroke-miterlimit:10;}
	.st53{fill:#FFFFFF;stroke:#000000;stroke-width:15.2517;stroke-linecap:round;stroke-linejoin:round;stroke-miterlimit:10;}
	.st54{stroke:#000000;stroke-width:3;stroke-miterlimit:10;}
	.st55{font-family:'FoundersGrotesk-Bold';}
	.st56{font-size:20.6105px;}
	.st57{font-size:10.3052px;}
	.st58{font-size:19.2364px;}
	.st59{font-size:10px;}
	.st60{fill:#FFFFFF;stroke:#000000;stroke-width:16.0686;stroke-linecap:round;stroke-linejoin:round;stroke-miterlimit:10;}
	.st61{fill:#FFFFFF;stroke:#000000;stroke-width:15;stroke-linejoin:round;stroke-miterlimit:10;}
	.st62{fill:url(#);stroke:#000000;stroke-width:13.497;stroke-linecap:round;stroke-linejoin:round;stroke-miterlimit:10;}
	.st63{fill:#06A6FF;}
	.st64{fill:#FF0303;}
	.st65{fill:#3DFF06;}
	.st66{fill:#FFF808;}
	.st67{fill:none;stroke:#000000;stroke-width:0;stroke-linecap:round;stroke-linejoin:round;}
</style>
<g id="unexpanded" class="st0">
	<g class="st1">
		<path class="st3" d="M765.78,177.52C616.55,185.44,503.31,225.2,467.41,224l108.73,130.4c0,0,73.18,23.36,189.65,16.89"/>
		<path class="st3" d="M14.39,378.86c166.18,12.01,344.6-14.56,344.6-14.56s62.88,41.6,92.57,46.03
			c32.29,4.82,50.23-13.22,50.23-13.22s19.98,11.86,51.13,13.19c31.15,1.33,54.44-34.81,54.44-34.81l-28.57-40.53
			c0,0,92.15,29.13,136,39.09c43.85,9.97,53.64-41.51,23.09-53.61C713.07,310.61,625,284.95,584.47,271
			c-40.53-13.95-67.48-18.43-60.84-36.16c6.65-17.73,46.4-36.35,75.63-38.63c0,0,0.57-25.06-42.83-31.46
			c-32.87-4.85-45.84,7.97-89.03,26.58c-43.19,18.6-70.64,42-109.87,43.31c-39.87,1.33-163.08-47.84-343.14-47.84"/>
		<path class="st3" d="M287.18,220.9c-28.46-9.55-53.76-12.41-53.76-12.41s-34.2,29.6-58.78,38.9c-24.58,9.3-54.3-10.11-45-24.06
			s21.26-27.91,43.85-57.14s53.15-29.23,95.01-3.99c26.66,16.08,91.37,55.59,126.18,64.42c6.2,1.57-22.62,8.01-37.14,8.01
			S320.18,231.97,287.18,220.9z"/>
		<path class="st3" d="M535.3,368.51c0,0,41.83,15.79,66.41,22.43c24.58,6.64,57.95,1.7,81.9-22.01l-104.83-33.98"/>
		<path class="st3" d="M102.34,375.89c-20.26-37.32-71.96-33.53-69.85,0.52c1.56,25.04,64.87,25.66,92.77,5.74
			c0,0-1.78-12.64-0.21-20.09"/>
		<path class="st3" d="M170.44,379.43v-14.16c0,0,9.47-23.25,22.26-43.14c15.79-24.56-33.01-56.15-54.27-23.94
			c-19.75,29.91-30.16,47.85-30.39,59.97c-0.32,17.31,3.08,45.64,22.04,46.36c18.97,0.72,44.73,3.77,64.7-31.33"/>
		<path class="st3" d="M231.81,360.49L231.81,360.49c0,0,20.25-37.97,33.21-57.76c17.87-27.28-28.72-61.13-54.45-25.65
			c-21.04,29.02-43.1,61.6-44.4,78.86c-1.64,21.72,4.96,48.25,23.92,48.97s40.79,1.96,60.76-33.13"/>
		<path class="st3" d="M321.64,365.8l-22.37-7.81c0,0,2.68-5.22,15.39-25.16c19.88-31.19-23.12-67.38-49.65-30.09
			c-20.78,29.21-29.86,40.77-33.21,57.76c-4.08,20.68-2.11,39.91,16.41,44.04C269.36,409.24,292.21,411.71,321.64,365.8z"/>
	</g>
	<g class="st1">
		<g>
			<text transform="matrix(1 0 0 1 258.9681 599.7979)"><tspan x="0" y="0" class="st55 st56">www</tspan><tspan x="45.14" y="0" class="st55 st57"> </tspan><tspan x="46.99" y="0" class="st55 st56">.</tspan><tspan x="51.77" y="0" class="st55 st57"> </tspan><tspan x="53.63" y="0" class="st55 st56">Capitalism</tspan><tspan x="150.43" y="0" class="st55 st58"> </tspan><tspan x="153.9" y="0" class="st55 st56">Is</tspan><tspan x="168.88" y="0" class="st55 st58"> </tspan><tspan x="172.34" y="0" class="st55 st56">A</tspan><tspan x="186.6" y="0" class="st55 st57"> </tspan><tspan x="188.46" y="0" class="st55 st56">Virus</tspan><tspan x="236.15" y="0" class="st55 st57"> </tspan><tspan x="238.01" y="0" class="st55 st56">.</tspan><tspan x="242.79" y="0" class="st55 st57"> </tspan><tspan x="244.64" y="0" class="st55 st56">org</tspan></text>
		</g>
		<g>
			<text transform="matrix(1 0 0 1 299.1799 22.1245)"><tspan x="0" y="0" class="st55 st56">#</tspan><tspan x="12.7" y="0" class="st55 st59"> </tspan><tspan x="14.5" y="0" class="st55 st56">Capitalism</tspan><tspan x="111.3" y="0" class="st55 st59"> </tspan><tspan x="113.1" y="0" class="st55 st56">Is</tspan><tspan x="128.09" y="0" class="st55 st59"> </tspan><tspan x="129.89" y="0" class="st55 st56">A</tspan><tspan x="144.15" y="0" class="st55 st59"> </tspan><tspan x="145.95" y="0" class="st55 st56">Virus</tspan></text>
		</g>
	</g>
</g>
<g id="expanded">
	<path d="M765.78,363.3c-0.15,0-0.29,0-0.44,0c-1.94,0.11-3.87,0.21-5.79,0.3c0.94-1.84,1.73-3.77,2.36-5.79
		c4.88-15.74-0.85-36.8-21.08-44.81c-14.05-5.57-46.78-15.73-81.42-26.49c-26.75-8.31-54.41-16.9-72.33-23.07
		c-7.16-2.46-14-4.67-20.04-6.62c-16.58-5.34-33.72-10.87-36.18-15.96c-0.16-0.32-0.52-1.08,0.28-3.21
		c1.81-4.84,9.44-12.83,25.41-20.75c0.99-0.49,1.99-0.97,3-1.44c54.06-11.67,124.11-25.53,206.24-29.92
		c0.14-0.01,0.28-0.02,0.42-0.02c4.41-0.23,7.8-4,7.56-8.41c-0.23-4.41-4-7.77-8.41-7.57c-59.36,3.15-113.65,11.43-159.11,20.07
		c-2.72-9.85-12.64-27.45-48.64-32.76c-27.32-4.04-42.21,3.11-66.86,14.93c-7.59,3.64-16.18,7.76-26.51,12.21
		c-13.94,6-26,12.35-37.67,18.5c-11.24,5.92-21.76,11.45-32.36,15.73c-33.03-9.39-92.8-45.47-118.69-61.1l-2.9-1.75
		c-46.3-27.93-80.8-25.98-105.47,5.95c-7.93,10.26-14.45,18.51-20.2,25.79c-0.09,0.11-0.17,0.22-0.26,0.33
		c-39.65-5.12-83.87-8.63-132.3-8.63c-4.42,0-8,3.58-8,8s3.58,8,8,8c43.81,0,84.17,2.93,120.78,7.33
		c-4.71,6.11-8.6,11.39-12.19,16.78c-4.74,7.1-4,15.83,1.98,23.33c7.01,8.8,21.11,15.59,36.08,15.59c5.46,0,11.04-0.9,16.43-2.94
		c20.37-7.71,46.12-27.87,56.54-36.44c20.28,4.18,38.54,8.37,54.64,12.08c3.09,0.71,6.08,1.4,9,2.07
		c19.61,5.78,37.33,9.09,52.9,9.86c2.47,0.17,4.78,0.24,6.89,0.19c0.03,0,0.07,0,0.1,0c6.44,0,15.93-1.14,25.38-3.04
		c10.23-2.06,16.12-3.8,18.83-7.14c10.66-4.43,21.15-9.95,32.29-15.82c11.4-6,23.18-12.2,36.54-17.96
		c10.62-4.58,19.37-8.77,27.1-12.48c23.39-11.22,35.13-16.85,57.61-13.53c21.53,3.18,30.19,11.03,33.66,16.8
		c-29.98,5.16-65.48,23.05-72.79,42.57c-2.12,5.67-2.02,10.98,0.3,15.79c5.44,11.26,21.45,16.42,45.68,24.23
		c6.26,2.02,12.74,4.11,19.74,6.52c18.15,6.25,45.93,14.88,72.79,23.22c32.83,10.2,66.78,20.74,80.27,26.09
		c11.4,4.52,14.51,16.1,11.69,25.2c-4.27,13.78-18.33,15.84-30.06,13.17c-42.59-9.68-132.61-38.05-135.3-38.9l-0.01,0c0,0,0,0,0,0
		c-0.02-0.01-0.05-0.01-0.05-0.02c-0.02-0.01-0.04-0.01-0.06-0.01c-0.35-0.11-0.7-0.19-1.05-0.24c-0.07-0.01-0.14-0.02-0.21-0.03
		c-0.37-0.05-0.75-0.08-1.12-0.08c-0.04,0-0.08,0-0.12,0c-0.36,0.01-0.71,0.04-1.06,0.09c-0.04,0.01-0.08,0.01-0.12,0.02
		c-0.36,0.06-0.72,0.15-1.07,0.26c-0.06,0.02-0.13,0.04-0.19,0.07c-0.35,0.12-0.69,0.25-1.01,0.42c0,0-0.01,0-0.01,0.01
		c-0.33,0.17-0.64,0.36-0.94,0.57c-0.06,0.04-0.12,0.08-0.18,0.13c-0.29,0.22-0.58,0.45-0.84,0.71c-0.03,0.03-0.06,0.07-0.1,0.1
		c-0.26,0.26-0.5,0.54-0.72,0.83c-0.02,0.02-0.03,0.04-0.05,0.06c-0.01,0.01-0.01,0.02-0.02,0.03c-0.22,0.3-0.42,0.63-0.59,0.96
		c-0.04,0.07-0.07,0.14-0.11,0.21c-0.15,0.31-0.29,0.64-0.41,0.97c-0.01,0.02-0.02,0.04-0.03,0.07c0,0,0,0.01,0,0.01
		c-0.11,0.35-0.19,0.71-0.26,1.06c-0.01,0.08-0.03,0.16-0.04,0.24c-0.11,0.75-0.11,1.49-0.02,2.22c0.01,0.06,0.02,0.13,0.03,0.19
		c0.06,0.36,0.13,0.72,0.24,1.07c0.02,0.05,0.04,0.11,0.05,0.16c0.1,0.32,0.23,0.64,0.37,0.94c0.02,0.05,0.04,0.1,0.07,0.15
		c0.17,0.33,0.36,0.65,0.57,0.96c0.02,0.03,0.03,0.06,0.05,0.09l0.2,0.28l0.01-0.01c0.95,1.24,2.27,2.21,3.87,2.72l91.02,29.5
		c-21.61,14.83-46.81,15.67-63.54,11.15c-23.92-6.47-65.26-22.04-65.68-22.19c-4.13-1.56-8.75,0.53-10.31,4.66s0.53,8.75,4.66,10.31
		c1.31,0.5,25.31,9.53,47.57,16.76c-7.61,5.6-16.82,9.98-26.78,9.55c-28.54-1.22-47.22-11.98-47.39-12.07
		c-3.15-1.87-7.13-1.4-9.71,1.2c-0.63,0.62-15.85,15.11-43.42,10.99c-22.9-3.42-72.25-33.49-89.34-44.79
		c-1.65-1.09-3.64-1.53-5.59-1.24c-0.44,0.06-11.5,1.69-30.36,3.92c-0.87-0.92-1.95-1.64-3.18-2.07l-13.19-4.6
		c2.28-3.76,5.6-9.09,10.33-16.51c13.07-20.51,4.41-42.17-10.37-52.13c-9.69-6.53-22.64-8.59-34.97-2.54
		c-0.12-0.49-0.25-0.97-0.39-1.46c-2.34-7.81-7.65-14.88-14.96-19.92c-15.55-10.72-39.9-11.75-56.62,11.31
		c-3.91,5.39-7.77,10.78-11.5,16.13c-1.82-1.69-3.84-3.28-6.07-4.73c-16.74-10.91-40.94-10.97-54.79,10
		c-21.28,32.23-31.45,50.07-31.71,64.23c-0.01,0.37,0,0.73-0.01,1.1c-5.33-5.66-11.65-10.16-18.75-13.27
		c-10.94-4.79-22.62-5.8-32.89-2.85c-13.98,4.02-22.76,14.71-23.84,28.53c-3.2-0.2-6.39-0.42-9.58-0.65
		c-0.19-0.01-0.39-0.01-0.58-0.01c-4.16,0.01-7.67,3.2-7.98,7.41c-0.32,4.41,3,8.24,7.4,8.56c4.78,0.35,9.57,0.66,14.37,0.94
		c2.77,4.17,7.03,7.7,12.6,10.36c8.72,4.15,20.21,6.12,32.36,6.12c11.74,0,24.09-1.84,35.14-5.31c5.08,8.47,12.37,13.23,21.49,13.58
		c0.95,0.04,1.92,0.08,2.9,0.12c2.97,0.13,6.17,0.27,9.55,0.27c9.45,0,20.26-1.1,30.98-6.58c4.73,4.08,10.39,6.34,16.58,6.58
		l0.63,0.02c2.71,0.1,5.55,0.21,8.51,0.21c10.11,0,21.52-1.28,32.96-8.41c4.63,4.46,10.1,6.6,14.6,7.6
		c6.4,1.43,12.95,2.56,19.69,2.56c17.58,0,36.5-7.72,57.71-38.06c16.5-1.9,28.09-3.46,33.27-4.19c12.4,8.03,65.32,41.43,93.24,45.6
		c4.23,0.63,8.24,0.91,12.03,0.91c19.89,0,33.67-7.69,40.39-12.55c8.23,3.85,25.95,10.67,49.78,11.68c0.68,0.03,1.36,0.04,2.03,0.04
		c17.96,0,33.14-10.15,43.68-20.03c0.45,0.12,0.89,0.25,1.33,0.36c6.75,1.82,14.62,2.93,23.1,2.93c19.53,0,42.23-5.88,61.46-22.32
		c6.97,0.4,14.23,0.71,21.77,0.91c2.46,0.6,4.83,1.16,7.06,1.67c10.55,2.4,20.35,1.83,28.6-1.61c7.97-0.18,16.17-0.49,24.6-0.96
		c4.41-0.24,7.79-4.02,7.54-8.43C773.53,366.58,770,363.28,765.78,363.3z M357.53,226.63c-12.83,0-35.02-2.31-67.81-13.31
		c-28.93-9.71-54.34-12.65-55.41-12.77c-2.22-0.25-4.44,0.44-6.13,1.9c-0.33,0.29-33.39,28.77-56.38,37.47
		c-13.98,5.29-29.17-1.16-34.33-7.64c-2.28-2.86-1.48-4.05-1.18-4.5c5.85-8.77,12.76-17.52,23.22-30.76
		c5.78-7.31,12.33-15.6,20.31-25.93c7.62-9.87,18.11-19.25,35.58-19.25c12.35,0,28.19,4.69,48.97,17.23l2.89,1.75
		c23.39,14.12,66.88,40.38,101.19,54.99C364.56,226.3,360.74,226.63,357.53,226.63z M47.66,383.69c-4.58-2.18-7-4.8-7.19-7.78
		c-0.74-11.96,7.41-16.12,12.33-17.53c2.37-0.68,4.96-1.03,7.66-1.03c12.07,0,26.48,6.96,34.84,22.36c1.47,2.7,4.26,4.18,7.13,4.16
		c0.01,0.05,0.02,0.1,0.04,0.15C83.28,389.7,59.68,389.42,47.66,383.69z M163.74,393.07c-10.18,4.46-20.64,4.01-30.38,3.59
		c-1.01-0.04-2.01-0.09-2.98-0.12c-11.87-0.45-14.61-24.24-14.35-38.22c0.19-10.05,10.8-28.04,29.06-55.71
		c4.99-7.57,11.48-10.09,17.63-10.09c5.84,0,11.38,2.28,15.07,4.68c1.8,1.17,3.84,2.83,5.61,4.83
		c-13.83,20.95-24.22,40.12-25.22,53.32C157.32,366.89,158.55,381.44,163.74,393.07z M223.96,358.94
		C223.96,358.94,223.96,358.95,223.96,358.94c-0.01,0.05-0.01,0.08-0.02,0.12c-2.72,13.87-2.29,24.19-0.08,31.87
		c-10.73,6.85-21.59,6.44-32.83,6.02l-0.63-0.02c-3.18-0.12-5.75-1.41-8.12-4.05c-6-6.72-9.27-21.32-8.14-36.32
		c1.31-17.41,31.53-59.08,42.9-74.77c11.19-15.44,25.63-13.71,34.58-7.53c10.59,7.3,10.92,17.54,6.74,24.01
		c-1.73,2.43-3.38,4.75-4.95,6.95C236.07,329.52,227.36,341.72,223.96,358.94z M249.96,396.72c-4.06-0.91-16.43-3.66-10.3-34.68
		c2.73-13.84,9.77-23.7,26.79-47.53c1.61-2.26,3.31-4.63,5.09-7.14c6.48-9.1,13.57-12.46,19.9-12.46c3.96,0,7.63,1.31,10.66,3.36
		c8.73,5.88,13.53,18.16,5.82,30.26c-12.55,19.69-15.47,25.24-15.76,25.81c-1.06,2.06-1.17,4.47-0.31,6.62s2.61,3.82,4.79,4.58
		l12.54,4.38C284.28,404.37,266.11,400.32,249.96,396.72z"/>
	<polygon points="299.54,595.82 299.46,595.82 298.12,590.6 295.46,590.6 294.12,595.82 294.04,595.82 292.39,590.6 289.16,590.6 
		289.07,590.6 286.15,590.6 284.5,595.82 284.41,595.82 283.07,590.6 280.41,590.6 279.07,595.82 278.99,595.82 277.34,590.6 
		274.11,590.6 274.02,590.6 271.1,590.6 269.45,595.82 269.37,595.82 268.03,590.6 265.37,590.6 264.03,595.82 263.95,595.82 
		262.3,590.6 258.98,590.6 261.88,599.8 265.16,599.8 266.5,594.6 266.58,594.6 267.92,599.8 271.2,599.8 274.07,590.74 
		276.93,599.8 280.21,599.8 281.55,594.6 281.63,594.6 282.97,599.8 286.25,599.8 289.11,590.74 291.98,599.8 295.25,599.8 
		296.59,594.6 296.68,594.6 298.02,599.8 301.29,599.8 304.2,590.6 301.19,590.6 	"/>
	<rect x="306.63" y="596.25" width="3.55" height="3.55"/>
	<path d="M319.7,589.68c2.02,0,2.8,1.34,3.01,2.78l3.36-0.12c-0.25-3.24-2.37-5.77-6.35-5.77c-3.79,0-6.66,2.74-6.66,6.74
		c0,4,2.87,6.74,6.66,6.74c3.98,0,6.1-2.51,6.35-5.75l-3.36-0.14c-0.21,1.44-0.99,2.78-3.01,2.78c-1.92,0-3.03-1.42-3.03-3.63
		C316.67,591.1,317.78,589.68,319.7,589.68z"/>
	<path d="M335.94,597.1v-3.13c0-2.56-1.79-3.61-4.23-3.61c-2.76,0-4.27,1.4-4.56,3.42l3.09,0.21c0.14-0.68,0.52-1.15,1.26-1.15
		c0.8,0,1.15,0.45,1.15,1.22v0.14l-2.58,0.43c-2,0.35-3.28,1.11-3.28,2.89c0,1.57,1.18,2.49,2.97,2.49c1.46,0,2.51-0.56,3.05-1.63
		c0.31,1.05,1.2,1.63,2.33,1.63c0.95,0,1.61-0.27,2.08-0.6v-1.77c-0.27,0.1-0.47,0.14-0.74,0.14
		C336.15,597.78,335.94,597.57,335.94,597.1z M332.66,595.96c0,1.2-0.76,1.9-1.71,1.9c-0.56,0-0.93-0.31-0.93-0.78
		c0-0.6,0.47-0.84,1.28-1.01l1.36-0.25V595.96z"/>
	<path d="M344.57,590.36c-1.55,0-2.58,0.74-3.03,1.83v-1.59h-3.34v12.49h3.34v-4.86c0.45,1.07,1.48,1.81,3.03,1.81
		c2.7,0,4.08-2.12,4.08-4.84C348.66,592.5,347.27,590.36,344.57,590.36z M343.4,597.47c-1.13,0-1.85-0.87-1.85-2.21v-0.12
		c0-1.32,0.72-2.18,1.85-2.18c1.3,0,1.9,0.93,1.9,2.25C345.3,596.54,344.7,597.47,343.4,597.47z"/>
	<rect x="349.95" y="586.81" width="3.38" height="2.93"/>
	<rect x="349.97" y="590.6" width="3.34" height="9.19"/>
	<path d="M358.75,596.27v-3.36h2.39v-2.31h-2.39v-2.54h-2.1l-0.31,1.2c-0.23,0.85-0.52,1.34-1.44,1.48l-0.68,0.1v2.06h1.24v4.33
		c0,2.16,1.46,2.8,3.01,2.8c1.26,0,2.06-0.31,2.76-0.82v-2.16c-0.56,0.23-1.01,0.31-1.42,0.31
		C359.12,597.37,358.75,597.06,358.75,596.27z"/>
	<path d="M371.1,597.1v-3.13c0-2.56-1.79-3.61-4.23-3.61c-2.76,0-4.27,1.4-4.56,3.42l3.09,0.21c0.14-0.68,0.52-1.15,1.26-1.15
		c0.8,0,1.15,0.45,1.15,1.22v0.14l-2.58,0.43c-2,0.35-3.28,1.11-3.28,2.89c0,1.57,1.17,2.49,2.97,2.49c1.46,0,2.51-0.56,3.05-1.63
		c0.31,1.05,1.2,1.63,2.33,1.63c0.95,0,1.61-0.27,2.08-0.6v-1.77c-0.27,0.1-0.47,0.14-0.74,0.14
		C371.31,597.78,371.1,597.57,371.1,597.1z M367.82,595.96c0,1.2-0.76,1.9-1.71,1.9c-0.56,0-0.93-0.31-0.93-0.78
		c0-0.6,0.47-0.84,1.28-1.01l1.36-0.25V595.96z"/>
	<rect x="373.37" y="586.81" width="3.34" height="12.99"/>
	<rect x="378.5" y="586.81" width="3.38" height="2.93"/>
	<rect x="378.52" y="590.6" width="3.34" height="9.19"/>
	<path d="M388.64,593.94l-1.79-0.31c-0.31-0.04-0.56-0.21-0.56-0.51c0-0.41,0.37-0.66,1.01-0.66c1.03,0,1.61,0.41,1.73,1.07
		l2.74-0.08c-0.19-1.92-1.75-3.09-4.41-3.09c-2.58,0-4.16,1.3-4.16,3.11c0,1.88,1.17,2.6,3.4,2.95l1.36,0.21
		c0.64,0.1,0.85,0.35,0.85,0.7c0,0.37-0.39,0.64-1.13,0.64c-1.01,0-1.63-0.43-1.75-1.2l-2.91,0.04c0.19,2.23,2.08,3.24,4.62,3.24
		c2.62,0,4.27-1.11,4.27-3.05C391.9,595.2,390.7,594.27,388.64,593.94z"/>
	<path d="M405.38,590.36c-1.55,0-2.64,0.78-3.13,1.81c-0.39-1.07-1.24-1.81-2.87-1.81c-1.38,0-2.37,0.62-2.87,1.63v-1.38h-3.34v9.19
		h3.34v-4.51c0-1.38,0.39-2.29,1.48-2.29c1.01,0,1.26,0.66,1.26,1.92v4.89h3.34v-4.51c0-1.38,0.37-2.29,1.48-2.29
		c1.01,0,1.24,0.66,1.24,1.92v4.89h3.34v-5.77C408.65,592.11,407.91,590.36,405.38,590.36z"/>
	<rect x="413.91" y="586.81" width="3.5" height="12.99"/>
	<path d="M424.27,593.94l-1.79-0.31c-0.31-0.04-0.56-0.21-0.56-0.51c0-0.41,0.37-0.66,1.01-0.66c1.03,0,1.61,0.41,1.73,1.07
		l2.74-0.08c-0.19-1.92-1.75-3.09-4.41-3.09c-2.58,0-4.16,1.3-4.16,3.11c0,1.88,1.17,2.6,3.4,2.95l1.36,0.21
		c0.64,0.1,0.84,0.35,0.84,0.7c0,0.37-0.39,0.64-1.13,0.64c-1.01,0-1.63-0.43-1.75-1.2l-2.91,0.04c0.19,2.23,2.08,3.24,4.62,3.24
		c2.62,0,4.27-1.11,4.27-3.05C427.53,595.2,426.33,594.27,424.27,593.94z"/>
	<path d="M436.54,586.81l-5.17,12.99h3.53l0.97-2.51h5.07l0.97,2.51h3.73l-5.17-12.99H436.54z M436.87,594.67l1.48-3.83h0.08
		l1.48,3.83H436.87z"/>
	<polygon points="454.45,595.45 454.36,595.45 451.15,586.81 447.48,586.81 452.47,599.8 456.16,599.8 461.15,586.81 457.66,586.81 
			"/>
	<rect x="462.03" y="586.81" width="3.38" height="2.93"/>
	<rect x="462.05" y="590.6" width="3.34" height="9.19"/>
	<path d="M470.54,592.23v-1.63h-3.34v9.19h3.34v-4.21c0-1.55,0.76-2.12,2-2.12c0.64,0,1.13,0.12,1.59,0.39l0.21-3.15
		c-0.23-0.19-0.72-0.35-1.28-0.35C471.84,590.36,470.87,591.2,470.54,592.23z"/>
	<path d="M481.43,595.12c0,1.4-0.41,2.31-1.46,2.31c-1.01,0-1.36-0.68-1.36-1.92v-4.91h-3.34v5.79c0,1.92,0.76,3.65,3.28,3.65
		c1.38,0,2.39-0.6,2.89-1.63v1.38h3.34v-9.19h-3.34V595.12z"/>
	<path d="M491.55,593.94l-1.79-0.31c-0.31-0.04-0.56-0.21-0.56-0.51c0-0.41,0.37-0.66,1.01-0.66c1.03,0,1.61,0.41,1.73,1.07
		l2.74-0.08c-0.19-1.92-1.75-3.09-4.41-3.09c-2.58,0-4.16,1.3-4.16,3.11c0,1.88,1.18,2.6,3.4,2.95l1.36,0.21
		c0.64,0.1,0.84,0.35,0.84,0.7c0,0.37-0.39,0.64-1.13,0.64c-1.01,0-1.63-0.43-1.75-1.2l-2.91,0.04c0.19,2.23,2.08,3.24,4.62,3.24
		c2.62,0,4.27-1.11,4.27-3.05C494.8,595.2,493.61,594.27,491.55,593.94z"/>
	<rect x="497.64" y="596.25" width="3.55" height="3.55"/>
	<path d="M509.1,590.36c-3.01,0-5.03,2-5.03,4.84c0,2.87,2.02,4.84,5.03,4.84c2.99,0,5.03-1.98,5.03-4.84
		C514.13,592.36,512.09,590.36,509.1,590.36z M509.1,597.53c-1.18,0-1.67-0.95-1.67-2.33c0-1.38,0.49-2.33,1.67-2.33
		c1.15,0,1.67,0.95,1.67,2.33C510.77,596.58,510.26,597.53,509.1,597.53z"/>
	<path d="M518.79,592.23v-1.63h-3.34v9.19h3.34v-4.21c0-1.55,0.76-2.12,2-2.12c0.64,0,1.13,0.12,1.59,0.39l0.21-3.15
		c-0.23-0.19-0.72-0.35-1.28-0.35C520.09,590.36,519.12,591.2,518.79,592.23z"/>
	<path d="M530.13,597.37h-3.81c-0.56,0-0.78-0.25-0.78-0.56c0-0.19,0.06-0.33,0.19-0.43c0.6,0.19,1.26,0.27,2,0.27
		c2.6,0,4.47-1.2,4.47-3.13c0-0.43-0.1-0.83-0.29-1.17c0.45-0.1,0.95-0.14,1.34-0.14v-2.52c-1.01,0-2.02,0.66-2.58,1.42
		c-0.78-0.47-1.83-0.74-2.95-0.74c-2.58,0-4.43,1.2-4.43,3.15c0,1.01,0.5,1.79,1.32,2.33c-0.99,0.37-1.57,1.05-1.57,1.94
		c0,0.78,0.49,1.53,1.32,1.79c-1.03,0.08-1.75,0.72-1.75,1.53c0,1.73,2.27,2.25,4.89,2.25c2.99,0,5.77-1.05,5.77-3.34
		C533.26,598.46,532.21,597.37,530.13,597.37z M527.76,592.19c0.56,0,0.97,0.52,0.97,1.32c0,0.82-0.41,1.34-0.97,1.34
		s-0.97-0.52-0.97-1.34C526.79,592.71,527.2,592.19,527.76,592.19z M527.51,601.61c-1.24,0-2.16-0.18-2.16-0.84
		c0-0.35,0.25-0.56,0.62-0.56h3.38c0.56,0,0.85,0.14,0.85,0.54C530.19,601.3,529.06,601.61,527.51,601.61z"/>
	<path d="M311.03,14.62l0.43-2.06h-1.83l0.82-3.42h-2.49l-0.82,3.42h-1.77l0.82-3.42h-2.49l-0.82,3.42h-2.02l-0.43,2.06h1.98
		l-0.49,2.02h-1.88l-0.43,2.06h1.81l-0.8,3.42h2.49l0.8-3.42h1.77l-0.8,3.42h2.49l0.8-3.42h2.04l0.43-2.06h-1.98l0.49-2.02H311.03z
		 M306.17,16.64h-1.77l0.49-2.02h1.77L306.17,16.64z"/>
	<path d="M320.73,12c2.02,0,2.8,1.34,3.01,2.78l3.36-0.12c-0.25-3.24-2.37-5.77-6.35-5.77c-3.79,0-6.66,2.74-6.66,6.74
		s2.87,6.74,6.66,6.74c3.98,0,6.1-2.51,6.35-5.75l-3.36-0.14c-0.21,1.44-0.99,2.78-3.01,2.78c-1.92,0-3.03-1.42-3.03-3.63
		S318.81,12,320.73,12z"/>
	<path d="M331.11,16.95c-2,0.35-3.28,1.11-3.28,2.89c0,1.57,1.18,2.49,2.97,2.49c1.46,0,2.51-0.56,3.05-1.63
		c0.31,1.05,1.2,1.63,2.33,1.63c0.95,0,1.61-0.27,2.08-0.6v-1.77c-0.27,0.1-0.47,0.14-0.74,0.14c-0.35,0-0.56-0.21-0.56-0.68v-3.13
		c0-2.56-1.79-3.61-4.23-3.61c-2.76,0-4.27,1.4-4.56,3.42l3.09,0.21c0.14-0.68,0.52-1.16,1.26-1.16c0.8,0,1.15,0.45,1.15,1.22v0.14
		L331.11,16.95z M333.69,18.29c0,1.2-0.76,1.9-1.71,1.9c-0.56,0-0.93-0.31-0.93-0.78c0-0.6,0.47-0.84,1.28-1.01l1.36-0.25V18.29z"/>
	<path d="M342.57,20.56c0.45,1.07,1.48,1.81,3.03,1.81c2.7,0,4.08-2.12,4.08-4.84c0-2.7-1.38-4.84-4.08-4.84
		c-1.55,0-2.58,0.74-3.03,1.83v-1.59h-3.34v12.49h3.34V20.56z M342.57,17.47c0-1.32,0.72-2.19,1.86-2.19c1.3,0,1.9,0.93,1.9,2.25
		c0,1.34-0.6,2.27-1.9,2.27c-1.13,0-1.86-0.87-1.86-2.21V17.47z"/>
	<rect x="350.98" y="9.14" width="3.38" height="2.93"/>
	<rect x="351" y="12.93" width="3.34" height="9.19"/>
	<path d="M359.49,22.37c1.26,0,2.06-0.31,2.76-0.83v-2.16c-0.56,0.23-1.01,0.31-1.42,0.31c-0.68,0-1.05-0.31-1.05-1.09v-3.36h2.39
		v-2.31h-2.39v-2.54h-2.1l-0.31,1.2c-0.23,0.85-0.52,1.34-1.44,1.48l-0.68,0.1v2.06h1.24v4.33
		C356.48,21.73,357.95,22.37,359.49,22.37z"/>
	<path d="M366.27,16.95c-2,0.35-3.28,1.11-3.28,2.89c0,1.57,1.17,2.49,2.97,2.49c1.46,0,2.51-0.56,3.05-1.63
		c0.31,1.05,1.2,1.63,2.33,1.63c0.95,0,1.61-0.27,2.08-0.6v-1.77c-0.27,0.1-0.47,0.14-0.74,0.14c-0.35,0-0.56-0.21-0.56-0.68v-3.13
		c0-2.56-1.79-3.61-4.23-3.61c-2.76,0-4.27,1.4-4.56,3.42l3.09,0.21c0.14-0.68,0.52-1.16,1.26-1.16c0.8,0,1.15,0.45,1.15,1.22v0.14
		L366.27,16.95z M368.85,18.29c0,1.2-0.76,1.9-1.71,1.9c-0.56,0-0.93-0.31-0.93-0.78c0-0.6,0.47-0.84,1.28-1.01l1.36-0.25V18.29z"/>
	<rect x="374.39" y="9.14" width="3.34" height="12.99"/>
	<rect x="379.55" y="12.93" width="3.34" height="9.19"/>
	<rect x="379.53" y="9.14" width="3.38" height="2.93"/>
	<path d="M388.7,20.29c-1.01,0-1.63-0.43-1.75-1.2l-2.91,0.04c0.19,2.23,2.08,3.24,4.62,3.24c2.62,0,4.27-1.11,4.27-3.05
		c0-1.79-1.2-2.72-3.26-3.05l-1.79-0.31c-0.31-0.04-0.56-0.21-0.56-0.52c0-0.41,0.37-0.66,1.01-0.66c1.03,0,1.61,0.41,1.73,1.07
		l2.74-0.08c-0.19-1.92-1.75-3.09-4.41-3.09c-2.58,0-4.16,1.3-4.16,3.11c0,1.88,1.17,2.6,3.4,2.95l1.36,0.21
		c0.64,0.1,0.85,0.35,0.85,0.7C389.83,20.02,389.44,20.29,388.7,20.29z"/>
	<path d="M409.68,22.12v-5.77c0-1.92-0.74-3.67-3.28-3.67c-1.55,0-2.64,0.78-3.13,1.81c-0.39-1.07-1.24-1.81-2.87-1.81
		c-1.38,0-2.37,0.62-2.87,1.63v-1.38h-3.34v9.19h3.34v-4.52c0-1.38,0.39-2.29,1.48-2.29c1.01,0,1.26,0.66,1.26,1.92v4.89h3.34v-4.52
		c0-1.38,0.37-2.29,1.48-2.29c1.01,0,1.24,0.66,1.24,1.92v4.89H409.68z"/>
	<rect x="413.27" y="9.14" width="3.5" height="12.99"/>
	<path d="M422.67,20.29c-1.01,0-1.63-0.43-1.75-1.2l-2.91,0.04c0.19,2.23,2.08,3.24,4.62,3.24c2.62,0,4.27-1.11,4.27-3.05
		c0-1.79-1.2-2.72-3.26-3.05l-1.79-0.31c-0.31-0.04-0.56-0.21-0.56-0.52c0-0.41,0.37-0.66,1.01-0.66c1.03,0,1.61,0.41,1.73,1.07
		l2.74-0.08c-0.19-1.92-1.75-3.09-4.41-3.09c-2.58,0-4.16,1.3-4.16,3.11c0,1.88,1.17,2.6,3.4,2.95l1.36,0.21
		c0.64,0.1,0.85,0.35,0.85,0.7C423.8,20.02,423.41,20.29,422.67,20.29z"/>
	<path d="M433.56,19.61h5.07l0.97,2.52h3.73l-5.17-12.99h-3.92l-5.17,12.99h3.53L433.56,19.61z M436.05,13.16h0.08l1.48,3.83h-3.05
		L436.05,13.16z"/>
	<polygon points="453.81,22.12 458.8,9.14 455.31,9.14 452.1,17.78 452.01,17.78 448.8,9.14 445.13,9.14 450.12,22.12 	"/>
	<rect x="459.7" y="12.93" width="3.34" height="9.19"/>
	<rect x="459.68" y="9.14" width="3.38" height="2.93"/>
	<path d="M468.19,17.92c0-1.55,0.76-2.12,2-2.12c0.64,0,1.13,0.12,1.59,0.39l0.21-3.15c-0.23-0.19-0.72-0.35-1.28-0.35
		c-1.22,0-2.19,0.84-2.52,1.88v-1.63h-3.34v9.19h3.34V17.92z"/>
	<path d="M482.41,22.12v-9.19h-3.34v4.51c0,1.4-0.41,2.31-1.46,2.31c-1.01,0-1.36-0.68-1.36-1.92v-4.91h-3.34v5.79
		c0,1.92,0.76,3.65,3.28,3.65c1.38,0,2.39-0.6,2.89-1.63v1.38H482.41z"/>
	<path d="M488.22,20.29c-1.01,0-1.63-0.43-1.75-1.2l-2.91,0.04c0.19,2.23,2.08,3.24,4.62,3.24c2.62,0,4.27-1.11,4.27-3.05
		c0-1.79-1.2-2.72-3.26-3.05l-1.79-0.31c-0.31-0.04-0.56-0.21-0.56-0.52c0-0.41,0.37-0.66,1.01-0.66c1.03,0,1.61,0.41,1.73,1.07
		l2.74-0.08c-0.19-1.92-1.75-3.09-4.41-3.09c-2.58,0-4.16,1.3-4.16,3.11c0,1.88,1.18,2.6,3.4,2.95l1.36,0.21
		c0.64,0.1,0.84,0.35,0.84,0.7C489.36,20.02,488.97,20.29,488.22,20.29z"/>
</g>
</svg>
