<?xml version="1.0" encoding="utf-8"?>
<!-- Generator: Adobe Illustrator 23.1.1, SVG Export Plug-In . SVG Version: 6.00 Build 0)  -->
<svg version="1.1" xmlns="http://www.w3.org/2000/svg" xmlns:xlink="http://www.w3.org/1999/xlink" x="0px" y="0px"
	 viewBox="0 0 792 612" style="enable-background:new 0 0 792 612;" xml:space="preserve">
<style type="text/css">
	.st0{display:none;}
	.st1{display:inline;}
	
		.st2{display:inline;fill:#FFFFFF;stroke:#000000;stroke-width:16;stroke-linecap:round;stroke-linejoin:round;stroke-miterlimit:10;}
	.st3{fill:#FFFFFF;stroke:#000000;stroke-width:16;stroke-linecap:round;stroke-linejoin:round;stroke-miterlimit:10;}
	.st4{display:inline;fill:none;stroke:#000000;stroke-width:24;stroke-linejoin:round;stroke-miterlimit:10;}
	.st5{display:inline;fill:#FFFFFF;}
	.st6{fill:#FFFFFF;stroke:#000000;stroke-width:17;stroke-linecap:round;stroke-miterlimit:10;}
	.st7{fill:#FFFFFF;stroke:#000000;stroke-width:17;stroke-miterlimit:10;}
	.st8{stroke:#000000;stroke-width:16.0572;stroke-linecap:round;stroke-miterlimit:10;}
	.st9{fill:#FFFFFF;}
	.st10{fill:#FFFFFF;stroke:#000000;stroke-width:17.1072;stroke-linecap:round;stroke-linejoin:round;stroke-miterlimit:10;}
	.st11{stroke:#000000;stroke-width:17.1072;stroke-linecap:round;stroke-linejoin:round;stroke-miterlimit:10;}
	.st12{fill:#FFFFFF;stroke:#000000;stroke-width:14.7375;stroke-linecap:round;stroke-linejoin:round;stroke-miterlimit:10;}
	.st13{fill:none;stroke:#000000;stroke-width:14.7375;stroke-linecap:round;stroke-linejoin:round;stroke-miterlimit:10;}
	.st14{stroke:#000000;stroke-width:14.7375;stroke-linecap:round;stroke-linejoin:round;stroke-miterlimit:10;}
	.st15{fill:#FFFFFF;stroke:#000000;stroke-width:14.2911;stroke-linecap:round;stroke-linejoin:round;stroke-miterlimit:10;}
	.st16{fill:none;stroke:#000000;stroke-width:13.497;stroke-miterlimit:10;}
	.st17{fill:#FFFFFF;stroke:#000000;stroke-width:13.497;stroke-linecap:round;stroke-linejoin:round;stroke-miterlimit:10;}
	.st18{fill:#FFFFFF;stroke:#000000;stroke-width:13.497;stroke-miterlimit:10;}
	.st19{fill:#FFFFFF;stroke:#000000;stroke-width:14.7439;stroke-linecap:round;stroke-miterlimit:10;}
	.st20{fill:#FFFFFF;stroke:#000000;stroke-width:14.7439;stroke-miterlimit:10;}
	.st21{stroke:#000000;stroke-width:13.9262;stroke-linecap:round;stroke-miterlimit:10;}
	
		.st22{display:inline;fill:#FFFFFF;stroke:#000000;stroke-width:14.6942;stroke-linecap:round;stroke-linejoin:round;stroke-miterlimit:10;}
	.st23{fill:#FFFFFF;stroke:#000000;stroke-width:14.6942;stroke-linecap:round;stroke-linejoin:round;stroke-miterlimit:10;}
	.st24{fill:none;stroke:#000000;stroke-width:24;stroke-linejoin:round;stroke-miterlimit:10;}
	.st25{font-family:'FoundersGrotesk-Bold';}
	.st26{font-size:194.6451px;}
	.st27{font-size:140px;}
	.st28{font-size:198.8532px;}
	.st29{fill:none;stroke:#000000;stroke-width:30.5612;stroke-linecap:round;stroke-linejoin:round;stroke-miterlimit:10;}
	.st30{fill:#FFFFFF;stroke:#000000;stroke-width:16.2993;stroke-linecap:round;stroke-linejoin:round;stroke-miterlimit:10;}
	.st31{display:inline;fill:#FFFFFF;stroke:#000000;stroke-width:13.497;stroke-linecap:round;stroke-miterlimit:10;}
	
		.st32{display:inline;fill:none;stroke:#000000;stroke-width:13.497;stroke-linecap:round;stroke-linejoin:round;stroke-miterlimit:10;}
	
		.st33{display:inline;fill:#FFFFFF;stroke:#000000;stroke-width:13.497;stroke-linecap:round;stroke-linejoin:round;stroke-miterlimit:10;}
	
		.st34{display:inline;fill:url(#);stroke:#000000;stroke-width:13.497;stroke-linecap:round;stroke-linejoin:round;stroke-miterlimit:10;}
	.st35{fill:#FFFFFF;stroke:#000000;stroke-width:15.2362;stroke-linecap:round;stroke-linejoin:round;stroke-miterlimit:10;}
	.st36{fill:#FFFFFF;stroke:#000000;stroke-width:14.8467;stroke-linecap:round;stroke-linejoin:round;stroke-miterlimit:10;}
	.st37{stroke:#000000;stroke-width:20.1683;stroke-linecap:round;stroke-miterlimit:10;}
	.st38{fill:none;stroke:#000000;stroke-width:14.8467;stroke-linecap:round;stroke-linejoin:round;stroke-miterlimit:10;}
	.st39{fill:#FFFFFF;stroke:#FFFFFF;stroke-width:3;stroke-miterlimit:10;}
	.st40{display:inline;fill:none;stroke:#000000;stroke-width:15;stroke-linecap:round;stroke-linejoin:round;stroke-miterlimit:10;}
	
		.st41{display:inline;fill:#FFFFFF;stroke:#000000;stroke-width:15;stroke-linecap:round;stroke-linejoin:round;stroke-miterlimit:10;}
	.st42{fill:#FFFFFF;stroke:#000000;stroke-width:15;stroke-linecap:round;stroke-linejoin:round;stroke-miterlimit:10;}
	.st43{fill:#FFFFFF;stroke:#000000;stroke-width:11.7326;stroke-linecap:round;stroke-linejoin:round;stroke-miterlimit:10;}
	.st44{fill:#FFFFFF;stroke:#000000;stroke-width:13.2623;stroke-linecap:round;stroke-linejoin:round;stroke-miterlimit:10;}
	.st45{fill:none;stroke:#000000;stroke-width:16;stroke-linecap:round;stroke-miterlimit:10;}
	.st46{fill:url(#);stroke:#000000;stroke-width:16;stroke-linecap:round;stroke-linejoin:round;stroke-miterlimit:10;}
	.st47{fill:#FFFFFF;stroke:#000000;stroke-width:16;stroke-linecap:round;stroke-miterlimit:10;}
	.st48{fill:#FFFFFF;stroke:#000000;stroke-width:13.2623;stroke-linecap:round;stroke-miterlimit:10;}
	.st49{stroke:#000000;stroke-width:4.5213;stroke-miterlimit:10;}
	.st50{fill:none;stroke:#000000;stroke-width:15.2344;stroke-linecap:round;stroke-linejoin:round;stroke-miterlimit:10;}
	.st51{fill:#FFFFFF;stroke:#000000;stroke-width:15.2344;stroke-linecap:round;stroke-linejoin:round;stroke-miterlimit:10;}
	.st52{stroke:#000000;stroke-width:18.3348;stroke-linecap:round;stroke-miterlimit:10;}
	.st53{fill:none;stroke:#000000;stroke-width:13.497;stroke-linecap:round;stroke-linejoin:round;stroke-miterlimit:10;}
	.st54{font-size:20.6105px;}
	.st55{font-size:10.3052px;}
	.st56{font-size:19.2364px;}
	.st57{font-size:10px;}
	.st58{display:inline;fill:none;stroke:#000000;stroke-width:16;stroke-linecap:round;stroke-linejoin:round;stroke-miterlimit:10;}
	.st59{fill:#FFFFFF;stroke:#000000;stroke-width:13.3058;stroke-linecap:round;stroke-linejoin:round;stroke-miterlimit:10;}
	.st60{fill:#FFFFFF;stroke:#000000;stroke-width:17;stroke-linecap:round;stroke-linejoin:round;stroke-miterlimit:10;}
	.st61{fill:#FFFFFF;stroke:#000000;stroke-width:15.2517;stroke-linecap:round;stroke-linejoin:round;stroke-miterlimit:10;}
	.st62{stroke:#000000;stroke-width:3;stroke-miterlimit:10;}
	.st63{fill:#FFFFFF;stroke:#000000;stroke-width:16.0686;stroke-linecap:round;stroke-linejoin:round;stroke-miterlimit:10;}
	.st64{fill:#FFFFFF;stroke:#000000;stroke-width:15;stroke-linejoin:round;stroke-miterlimit:10;}
	.st65{fill:url(#);stroke:#000000;stroke-width:13.497;stroke-linecap:round;stroke-linejoin:round;stroke-miterlimit:10;}
	.st66{fill:#06A6FF;}
	.st67{fill:#FF0303;}
	.st68{fill:#3DFF06;}
	.st69{fill:#FFF808;}
	.st70{fill:none;stroke:#000000;stroke-width:0;stroke-linecap:round;stroke-linejoin:round;}
</style>
<g id="unexpanded" class="st0">
	<g class="st1">
		<text transform="matrix(1 0 0 1 -0.5449 199.441)" class="st25 st26">Medicare</text>
		<g>
			<text transform="matrix(1 0 0 1 49.8105 338.6764)" class="st25 st27">para Todos</text>
		</g>
		<g>
			<text transform="matrix(1 0 0 1 57.5029 523.2064)" class="st25 st28">AHORA</text>
		</g>
	</g>
	<g class="st1">
		<g>
			<text transform="matrix(1 0 0 1 258.9681 599.7979)"><tspan x="0" y="0" class="st25 st54">www</tspan><tspan x="45.14" y="0" class="st25 st55"> </tspan><tspan x="46.99" y="0" class="st25 st54">.</tspan><tspan x="51.77" y="0" class="st25 st55"> </tspan><tspan x="53.63" y="0" class="st25 st54">Capitalism</tspan><tspan x="150.43" y="0" class="st25 st56"> </tspan><tspan x="153.9" y="0" class="st25 st54">Is</tspan><tspan x="168.88" y="0" class="st25 st56"> </tspan><tspan x="172.34" y="0" class="st25 st54">A</tspan><tspan x="186.6" y="0" class="st25 st55"> </tspan><tspan x="188.46" y="0" class="st25 st54">Virus</tspan><tspan x="236.15" y="0" class="st25 st55"> </tspan><tspan x="238.01" y="0" class="st25 st54">.</tspan><tspan x="242.79" y="0" class="st25 st55"> </tspan><tspan x="244.64" y="0" class="st25 st54">org</tspan></text>
		</g>
		<g>
			<text transform="matrix(1 0 0 1 299.1799 22.1245)"><tspan x="0" y="0" class="st25 st54">#</tspan><tspan x="12.7" y="0" class="st25 st57"> </tspan><tspan x="14.5" y="0" class="st25 st54">Capitalism</tspan><tspan x="111.3" y="0" class="st25 st57"> </tspan><tspan x="113.1" y="0" class="st25 st54">Is</tspan><tspan x="128.09" y="0" class="st25 st57"> </tspan><tspan x="129.89" y="0" class="st25 st54">A</tspan><tspan x="144.15" y="0" class="st25 st57"> </tspan><tspan x="145.95" y="0" class="st25 st54">Virus</tspan></text>
		</g>
	</g>
</g>
<g id="expanded">
	<polygon points="39.45,113.21 40.23,113.21 62.23,199.44 90.45,199.44 112.44,113.21 113.22,113.21 113.22,199.44 146.31,199.44 
		146.31,76.82 96.29,76.82 78.97,153.9 78.38,153.9 60.28,76.82 9.09,76.82 9.09,199.44 39.45,199.44 	"/>
	<path d="M207.24,201.78c22.97,0,38.93-11.09,43.4-30.95l-25.3-2.34c-2.92,6.81-8.37,9.73-16.93,9.73c-9.54,0-17.32-5.06-18.1-15.77
		h60.92v-8.76c0-23.55-15.38-43.4-44.38-43.4c-27.05,0-47.3,19.66-47.3,47.1C159.55,185.04,179.4,201.78,207.24,201.78z
		 M206.46,132.87c9.34,0,14.4,6.62,14.79,14.4h-30.56C191.86,139.1,196.34,132.87,206.46,132.87z"/>
	<path d="M260.37,156.04c0,25.69,12.85,45.74,38.54,45.74c14.4,0,24.33-7.01,28.42-17.13v14.79h31.53V76.82h-31.53v50.8
		c-4.09-10.32-14.01-17.32-28.42-17.32C273.22,110.3,260.37,130.54,260.37,156.04z M327.33,155.45v1.17
		c0,12.65-6.81,20.83-17.32,20.83c-12.46,0-17.91-8.76-17.91-21.41c0-12.46,5.45-21.22,17.91-21.22
		C320.52,134.82,327.33,143,327.33,155.45z"/>
	<rect x="375.79" y="76.82" width="31.92" height="27.64"/>
	<rect x="375.99" y="112.63" width="31.53" height="86.81"/>
	<path d="M419.98,156.04c0,27.64,20.05,45.74,47.49,45.74c26.08,0,40.68-16.74,42.82-37.76l-25.89-1.95
		c-2.14,10.71-7.4,15.96-16.54,15.96c-9.54,0-16.16-6.42-16.16-21.99s6.62-21.99,16.16-21.99c9.15,0,14.4,5.06,16.54,15.77
		l25.89-1.75c-2.14-20.83-16.74-37.76-42.82-37.76C440.03,110.3,419.98,128.59,419.98,156.04z"/>
	<path d="M615.79,179c-2.53,0.97-4.48,1.36-7.01,1.36c-3.31,0-5.26-1.95-5.26-6.42v-29.59c0-24.14-16.93-34.06-39.9-34.06
		c-26.08,0-40.29,13.24-43.02,32.31l29.2,1.95c1.36-6.42,4.87-10.9,11.87-10.9c7.59,0,10.9,4.28,10.9,11.48v1.36l-24.33,4.09
		c-18.88,3.31-30.95,10.51-30.95,27.25c0,14.79,11.09,23.55,28.03,23.55c13.82,0,23.75-5.26,28.81-15.38
		c2.92,9.93,11.29,15.38,21.99,15.38c8.95,0,15.18-2.53,19.66-5.64V179z M572.58,163.24c0,11.29-7.2,17.91-16.16,17.91
		c-5.25,0-8.76-2.92-8.76-7.4c0-5.65,4.48-7.98,12.07-9.54l12.85-2.34V163.24z"/>
	<path d="M656.47,128.01v-15.38h-31.53v86.81h31.53v-39.71c0-14.6,7.2-20.05,18.88-20.05c6.03,0,10.71,1.17,14.99,3.7l1.95-29.78
		c-2.14-1.75-6.81-3.31-12.07-3.31C668.73,110.3,659.58,118.28,656.47,128.01z"/>
	<path d="M743.09,110.3c-27.05,0-47.3,19.66-47.3,47.1c0,27.64,19.85,44.38,47.69,44.38c22.97,0,38.93-11.09,43.41-30.95l-25.3-2.34
		c-2.92,6.81-8.37,9.73-16.93,9.73c-9.54,0-17.32-5.06-18.1-15.77h60.92v-8.76C787.46,130.15,772.09,110.3,743.09,110.3z
		 M726.93,147.28c1.17-8.17,5.64-14.4,15.77-14.4c9.34,0,14.4,6.62,14.79,14.4H726.93z"/>
	<path d="M63.46,276.24v84.84h22.68v-33.04c3.08,7.28,10.08,12.32,20.58,12.32c18.34,0,27.72-14.42,27.72-32.9
		c0-18.34-9.38-32.9-27.72-32.9c-10.5,0-17.5,5.04-20.58,12.46v-10.78H63.46z M98.74,292.2c8.82,0,12.88,6.3,12.88,15.26
		c0,9.1-4.06,15.4-12.88,15.4c-7.7,0-12.6-5.88-12.6-14.98v-0.84C86.14,298.08,91.04,292.2,98.74,292.2z"/>
	<path d="M162.02,303.54c-13.58,2.38-22.26,7.56-22.26,19.6c0,10.64,7.98,16.94,20.16,16.94c9.94,0,17.08-3.78,20.72-11.06
		c2.1,7.14,8.12,11.06,15.82,11.06c6.44,0,10.92-1.82,14.14-4.06v-12.04c-1.82,0.7-3.22,0.98-5.04,0.98c-2.38,0-3.78-1.4-3.78-4.62
		v-21.28c0-17.36-12.18-24.5-28.7-24.5c-18.76,0-28.98,9.52-30.94,23.24l21,1.4c0.98-4.62,3.5-7.84,8.54-7.84
		c5.46,0,7.84,3.08,7.84,8.26v0.98L162.02,303.54z M179.52,312.64c0,8.12-5.18,12.88-11.62,12.88c-3.78,0-6.3-2.1-6.3-5.32
		c0-4.06,3.22-5.74,8.68-6.86l9.24-1.68V312.64z"/>
	<path d="M217.18,276.24v62.44h22.68v-28.56c0-10.5,5.18-14.42,13.58-14.42c4.34,0,7.7,0.84,10.78,2.66l1.4-21.42
		c-1.54-1.26-4.9-2.38-8.68-2.38c-8.26,0-14.84,5.74-17.08,12.74v-11.06H217.18z"/>
	<path d="M289.84,303.54c-13.58,2.38-22.26,7.56-22.26,19.6c0,10.64,7.98,16.94,20.16,16.94c9.94,0,17.08-3.78,20.72-11.06
		c2.1,7.14,8.12,11.06,15.82,11.06c6.44,0,10.92-1.82,14.14-4.06v-12.04c-1.82,0.7-3.22,0.98-5.04,0.98c-2.38,0-3.78-1.4-3.78-4.62
		v-21.28c0-17.36-12.18-24.5-28.7-24.5c-18.76,0-28.98,9.52-30.94,23.24l21,1.4c0.98-4.62,3.5-7.84,8.54-7.84
		c5.46,0,7.84,3.08,7.84,8.26v0.98L289.84,303.54z M307.34,312.64c0,8.12-5.18,12.88-11.62,12.88c-3.78,0-6.3-2.1-6.3-5.32
		c0-4.06,3.22-5.74,8.68-6.86l9.24-1.68V312.64z"/>
	<polygon points="367.54,270.08 397.78,270.08 397.78,338.68 421.44,338.68 421.44,270.08 452.1,270.08 452.1,250.48 367.54,250.48 
			"/>
	<path d="M478.56,274.56c-20.44,0-34.16,13.58-34.16,32.9c0,19.46,13.72,32.9,34.16,32.9c20.3,0,34.16-13.44,34.16-32.9
		C512.72,288.14,498.86,274.56,478.56,274.56z M478.56,323.28c-7.98,0-11.34-6.44-11.34-15.82s3.36-15.82,11.34-15.82
		c7.84,0,11.34,6.44,11.34,15.82S486.4,323.28,478.56,323.28z"/>
	<path d="M589.58,338.68v-88.2H566.9v36.54c-2.94-7.42-10.08-12.46-20.44-12.46c-18.48,0-27.72,14.56-27.72,32.9
		c0,18.48,9.24,32.9,27.72,32.9c10.36,0,17.5-5.04,20.44-12.32v10.64H589.58z M554.44,322.86c-8.96,0-12.88-6.3-12.88-15.4
		c0-8.96,3.92-15.26,12.88-15.26c7.56,0,12.46,5.88,12.46,14.84v0.84C566.9,316.98,562,322.86,554.44,322.86z"/>
	<path d="M632.69,340.36c20.3,0,34.16-13.44,34.16-32.9c0-19.32-13.86-32.9-34.16-32.9c-20.44,0-34.16,13.58-34.16,32.9
		C598.53,326.92,612.25,340.36,632.69,340.36z M632.69,291.64c7.84,0,11.34,6.44,11.34,15.82s-3.5,15.82-11.34,15.82
		c-7.98,0-11.34-6.44-11.34-15.82S624.71,291.64,632.69,291.64z"/>
	<path d="M700.45,288.84c7,0,10.92,2.8,11.76,7.28l18.62-0.56c-1.26-13.02-11.9-21-29.96-21c-17.5,0-28.28,8.82-28.28,21.14
		c0,12.74,7.98,17.64,23.1,20.02l9.24,1.4c4.34,0.7,5.74,2.38,5.74,4.76c0,2.52-2.66,4.34-7.7,4.34c-6.86,0-11.06-2.94-11.9-8.12
		l-19.74,0.28c1.26,15.12,14.14,21.98,31.36,21.98c17.78,0,28.98-7.56,28.98-20.72c0-12.18-8.12-18.48-22.12-20.72l-12.18-2.1
		c-2.1-0.28-3.78-1.4-3.78-3.5C693.59,290.52,696.11,288.84,700.45,288.84z"/>
	<path d="M91.51,523.21l9.35-24.26h48.92l9.35,24.26h35.99L145.2,397.93h-37.78L57.5,523.21H91.51z M124.91,436.71h0.79l14.32,36.99
		H110.6L124.91,436.71z"/>
	<polygon points="204.65,523.21 238.46,523.21 238.46,473.69 288.37,473.69 288.37,523.21 322.17,523.21 322.17,397.93 
		288.37,397.93 288.37,446.25 238.46,446.25 238.46,397.93 204.65,397.93 	"/>
	<path d="M335.69,460.57c0,38.58,28.63,65.02,65.03,65.02c36.39,0,65.02-26.45,65.02-65.02c0-38.58-28.63-65.02-65.02-65.02
		C364.33,395.54,335.69,421.99,335.69,460.57z M400.72,425.37c18.49,0,30.23,13.92,30.23,35.2c0,21.28-11.73,35.2-30.23,35.2
		s-30.23-13.92-30.23-35.2C370.49,439.29,382.23,425.37,400.72,425.37z"/>
	<path d="M479.26,523.21h33.21v-41.56h22.47c11.33,0,17.5,3.18,18.49,17.5c0.99,12.93,2.58,20.68,5.17,24.06h34.2
		c-4.18-4.57-4.77-10.14-6.56-28.83c-1.39-14.52-8.95-21.87-21.87-24.46c15.31-1.99,26.65-13.92,26.65-32.21
		c0-24.46-16.11-39.77-48.52-39.77h-63.24V523.21z M512.47,424.97h24.06c14.32,0,21.48,5.37,21.48,15.51
		c0,11.53-7.16,15.11-21.48,15.11h-24.06V424.97z"/>
	<path d="M646.3,397.93l-49.91,125.28h34l9.35-24.26h48.92l9.35,24.26h35.99l-49.91-125.28H646.3z M649.48,473.69l14.32-36.99h0.79
		l14.32,36.99H649.48z"/>
	<polygon points="299.46,595.82 298.12,590.6 295.46,590.6 294.12,595.82 294.04,595.82 292.39,590.6 289.16,590.6 289.07,590.6 
		286.15,590.6 284.5,595.82 284.41,595.82 283.07,590.6 280.41,590.6 279.07,595.82 278.99,595.82 277.34,590.6 274.11,590.6 
		274.02,590.6 271.1,590.6 269.45,595.82 269.37,595.82 268.03,590.6 265.37,590.6 264.03,595.82 263.95,595.82 262.3,590.6 
		258.98,590.6 261.88,599.8 265.16,599.8 266.5,594.6 266.58,594.6 267.92,599.8 271.2,599.8 274.07,590.74 276.93,599.8 
		280.21,599.8 281.55,594.6 281.63,594.6 282.97,599.8 286.25,599.8 289.11,590.74 291.98,599.8 295.25,599.8 296.59,594.6 
		296.68,594.6 298.02,599.8 301.29,599.8 304.2,590.6 301.19,590.6 299.54,595.82 	"/>
	<rect x="306.63" y="596.25" width="3.55" height="3.55"/>
	<path d="M319.7,589.68c2.02,0,2.8,1.34,3.01,2.78l3.36-0.12c-0.25-3.24-2.37-5.77-6.35-5.77c-3.79,0-6.66,2.74-6.66,6.74
		s2.87,6.74,6.66,6.74c3.98,0,6.1-2.51,6.35-5.75l-3.36-0.14c-0.21,1.44-0.99,2.78-3.01,2.78c-1.92,0-3.03-1.42-3.03-3.63
		S317.78,589.68,319.7,589.68z"/>
	<path d="M330.08,594.62c-2,0.35-3.28,1.11-3.28,2.89c0,1.57,1.18,2.49,2.97,2.49c1.46,0,2.51-0.56,3.05-1.63
		c0.31,1.05,1.2,1.63,2.33,1.63c0.95,0,1.61-0.27,2.08-0.6v-1.77c-0.27,0.1-0.47,0.14-0.74,0.14c-0.35,0-0.56-0.21-0.56-0.68v-3.13
		c0-2.56-1.79-3.61-4.23-3.61c-2.76,0-4.27,1.4-4.56,3.42l3.09,0.21c0.14-0.68,0.52-1.15,1.26-1.15c0.8,0,1.15,0.45,1.15,1.22v0.14
		L330.08,594.62z M332.66,595.96c0,1.2-0.76,1.9-1.71,1.9c-0.56,0-0.93-0.31-0.93-0.78c0-0.6,0.47-0.85,1.28-1.01l1.36-0.25V595.96z
		"/>
	<path d="M338.2,590.6v12.49h3.34v-4.86c0.45,1.07,1.48,1.81,3.03,1.81c2.7,0,4.08-2.12,4.08-4.84c0-2.7-1.38-4.84-4.08-4.84
		c-1.55,0-2.58,0.74-3.03,1.83v-1.59H338.2z M343.4,592.95c1.3,0,1.9,0.93,1.9,2.25c0,1.34-0.6,2.27-1.9,2.27
		c-1.13,0-1.85-0.87-1.85-2.21v-0.12C341.54,593.82,342.27,592.95,343.4,592.95z"/>
	<rect x="349.95" y="586.81" width="3.38" height="2.93"/>
	<rect x="349.97" y="590.6" width="3.34" height="9.19"/>
	<path d="M358.46,600.04c1.26,0,2.06-0.31,2.76-0.82v-2.16c-0.56,0.23-1.01,0.31-1.42,0.31c-0.68,0-1.05-0.31-1.05-1.09v-3.36h2.39
		v-2.31h-2.39v-2.54h-2.1l-0.31,1.2c-0.23,0.85-0.52,1.34-1.44,1.48l-0.68,0.1v2.06h1.24v4.33
		C355.46,599.41,356.92,600.04,358.46,600.04z"/>
	<path d="M365.25,594.62c-2,0.35-3.28,1.11-3.28,2.89c0,1.57,1.17,2.49,2.97,2.49c1.46,0,2.51-0.56,3.05-1.63
		c0.31,1.05,1.2,1.63,2.33,1.63c0.95,0,1.61-0.27,2.08-0.6v-1.77c-0.27,0.1-0.47,0.14-0.74,0.14c-0.35,0-0.56-0.21-0.56-0.68v-3.13
		c0-2.56-1.79-3.61-4.23-3.61c-2.76,0-4.27,1.4-4.56,3.42l3.09,0.21c0.14-0.68,0.52-1.15,1.26-1.15c0.8,0,1.15,0.45,1.15,1.22v0.14
		L365.25,594.62z M367.82,595.96c0,1.2-0.76,1.9-1.71,1.9c-0.56,0-0.93-0.31-0.93-0.78c0-0.6,0.47-0.85,1.28-1.01l1.36-0.25V595.96z
		"/>
	<rect x="373.37" y="586.81" width="3.34" height="12.99"/>
	<rect x="378.5" y="586.81" width="3.38" height="2.93"/>
	<rect x="378.52" y="590.6" width="3.34" height="9.19"/>
	<path d="M387.67,597.96c-1.01,0-1.63-0.43-1.75-1.2l-2.91,0.04c0.19,2.23,2.08,3.24,4.62,3.24c2.62,0,4.27-1.11,4.27-3.05
		c0-1.79-1.2-2.72-3.26-3.05l-1.79-0.31c-0.31-0.04-0.56-0.21-0.56-0.52c0-0.41,0.37-0.66,1.01-0.66c1.03,0,1.61,0.41,1.73,1.07
		l2.74-0.08c-0.19-1.92-1.75-3.09-4.41-3.09c-2.58,0-4.16,1.3-4.16,3.11c0,1.88,1.17,2.6,3.4,2.95l1.36,0.21
		c0.64,0.1,0.85,0.35,0.85,0.7C388.8,597.7,388.41,597.96,387.67,597.96z"/>
	<path d="M408.65,599.8v-5.77c0-1.92-0.74-3.67-3.28-3.67c-1.55,0-2.64,0.78-3.13,1.81c-0.39-1.07-1.24-1.81-2.87-1.81
		c-1.38,0-2.37,0.62-2.87,1.63v-1.38h-3.34v9.19h3.34v-4.51c0-1.38,0.39-2.29,1.48-2.29c1.01,0,1.26,0.66,1.26,1.92v4.89h3.34v-4.51
		c0-1.38,0.37-2.29,1.48-2.29c1.01,0,1.24,0.66,1.24,1.92v4.89H408.65z"/>
	<rect x="413.91" y="586.81" width="3.5" height="12.99"/>
	<path d="M423.3,597.96c-1.01,0-1.63-0.43-1.75-1.2l-2.91,0.04c0.19,2.23,2.08,3.24,4.62,3.24c2.62,0,4.27-1.11,4.27-3.05
		c0-1.79-1.2-2.72-3.26-3.05l-1.79-0.31c-0.31-0.04-0.56-0.21-0.56-0.52c0-0.41,0.37-0.66,1.01-0.66c1.03,0,1.61,0.41,1.73,1.07
		l2.74-0.08c-0.19-1.92-1.75-3.09-4.41-3.09c-2.58,0-4.16,1.3-4.16,3.11c0,1.88,1.17,2.6,3.4,2.95l1.36,0.21
		c0.64,0.1,0.84,0.35,0.84,0.7C424.44,597.7,424.05,597.96,423.3,597.96z"/>
	<path d="M431.36,599.8h3.53l0.97-2.51h5.07l0.97,2.51h3.73l-5.17-12.99h-3.92L431.36,599.8z M438.35,590.83h0.08l1.48,3.83h-3.05
		L438.35,590.83z"/>
	<polygon points="454.36,595.45 451.15,586.81 447.48,586.81 452.47,599.8 456.16,599.8 461.15,586.81 457.66,586.81 454.45,595.45 
			"/>
	<rect x="462.03" y="586.81" width="3.38" height="2.93"/>
	<rect x="462.05" y="590.6" width="3.34" height="9.19"/>
	<path d="M467.2,590.6v9.19h3.34v-4.21c0-1.55,0.76-2.12,2-2.12c0.64,0,1.13,0.12,1.59,0.39l0.21-3.15
		c-0.23-0.19-0.72-0.35-1.28-0.35c-1.22,0-2.19,0.85-2.52,1.88v-1.63H467.2z"/>
	<path d="M484.77,599.8v-9.19h-3.34v4.51c0,1.4-0.41,2.31-1.46,2.31c-1.01,0-1.36-0.68-1.36-1.92v-4.91h-3.34v5.79
		c0,1.92,0.76,3.65,3.28,3.65c1.38,0,2.39-0.6,2.89-1.63v1.38H484.77z"/>
	<path d="M490.58,597.96c-1.01,0-1.63-0.43-1.75-1.2l-2.91,0.04c0.19,2.23,2.08,3.24,4.62,3.24c2.62,0,4.27-1.11,4.27-3.05
		c0-1.79-1.2-2.72-3.26-3.05l-1.79-0.31c-0.31-0.04-0.56-0.21-0.56-0.52c0-0.41,0.37-0.66,1.01-0.66c1.03,0,1.61,0.41,1.73,1.07
		l2.74-0.08c-0.19-1.92-1.75-3.09-4.41-3.09c-2.58,0-4.16,1.3-4.16,3.11c0,1.88,1.18,2.6,3.4,2.95l1.36,0.21
		c0.64,0.1,0.84,0.35,0.84,0.7C491.71,597.7,491.32,597.96,490.58,597.96z"/>
	<rect x="497.64" y="596.25" width="3.55" height="3.55"/>
	<path d="M504.08,595.2c0,2.87,2.02,4.84,5.03,4.84c2.99,0,5.03-1.98,5.03-4.84c0-2.84-2.04-4.84-5.03-4.84
		C506.1,590.36,504.08,592.36,504.08,595.2z M510.77,595.2c0,1.38-0.52,2.33-1.67,2.33c-1.18,0-1.67-0.95-1.67-2.33
		s0.49-2.33,1.67-2.33C510.26,592.87,510.77,593.82,510.77,595.2z"/>
	<path d="M515.45,590.6v9.19h3.34v-4.21c0-1.55,0.76-2.12,2-2.12c0.64,0,1.13,0.12,1.59,0.39l0.21-3.15
		c-0.23-0.19-0.72-0.35-1.28-0.35c-1.22,0-2.19,0.85-2.51,1.88v-1.63H515.45z"/>
	<path d="M522.6,601.1c0,1.73,2.27,2.25,4.89,2.25c2.99,0,5.77-1.05,5.77-3.34c0-1.55-1.05-2.64-3.13-2.64h-3.81
		c-0.56,0-0.78-0.25-0.78-0.56c0-0.19,0.06-0.33,0.19-0.43c0.6,0.19,1.26,0.27,2,0.27c2.6,0,4.47-1.2,4.47-3.13
		c0-0.43-0.1-0.83-0.29-1.18c0.45-0.1,0.95-0.14,1.34-0.14v-2.52c-1.01,0-2.02,0.66-2.58,1.42c-0.78-0.47-1.83-0.74-2.95-0.74
		c-2.58,0-4.43,1.2-4.43,3.15c0,1.01,0.5,1.79,1.32,2.33c-0.99,0.37-1.57,1.05-1.57,1.94c0,0.78,0.49,1.53,1.32,1.79
		C523.33,599.65,522.6,600.29,522.6,601.1z M527.76,592.19c0.56,0,0.97,0.52,0.97,1.32c0,0.82-0.41,1.34-0.97,1.34
		s-0.97-0.52-0.97-1.34C526.79,592.71,527.2,592.19,527.76,592.19z M525.96,600.21h3.38c0.56,0,0.85,0.14,0.85,0.54
		c0,0.56-1.13,0.87-2.68,0.87c-1.24,0-2.16-0.19-2.16-0.85C525.35,600.42,525.59,600.21,525.96,600.21z"/>
	<path d="M300.03,16.64l-0.43,2.06h1.81l-0.8,3.42h2.49l0.8-3.42h1.77l-0.8,3.42h2.49l0.8-3.42h2.04l0.43-2.06h-1.98l0.49-2.02h1.88
		l0.43-2.06h-1.83l0.82-3.42h-2.49l-0.82,3.42h-1.77l0.82-3.42h-2.49l-0.82,3.42h-2.02l-0.43,2.06h1.98l-0.49,2.02H300.03z
		 M304.89,14.62h1.77l-0.5,2.02h-1.77L304.89,14.62z"/>
	<path d="M320.73,12c2.02,0,2.8,1.34,3.01,2.78l3.36-0.12c-0.25-3.24-2.37-5.77-6.35-5.77c-3.79,0-6.66,2.74-6.66,6.74
		s2.87,6.74,6.66,6.74c3.98,0,6.1-2.52,6.35-5.75l-3.36-0.14c-0.21,1.44-0.99,2.78-3.01,2.78c-1.92,0-3.03-1.42-3.03-3.63
		S318.81,12,320.73,12z"/>
	<path d="M331.11,16.95c-2,0.35-3.28,1.11-3.28,2.89c0,1.57,1.18,2.49,2.97,2.49c1.46,0,2.51-0.56,3.05-1.63
		c0.31,1.05,1.2,1.63,2.33,1.63c0.95,0,1.61-0.27,2.08-0.6v-1.77c-0.27,0.1-0.47,0.14-0.74,0.14c-0.35,0-0.56-0.21-0.56-0.68v-3.13
		c0-2.56-1.79-3.61-4.23-3.61c-2.76,0-4.27,1.4-4.56,3.42l3.09,0.21c0.14-0.68,0.52-1.15,1.26-1.15c0.8,0,1.15,0.45,1.15,1.22v0.14
		L331.11,16.95z M333.69,18.29c0,1.2-0.76,1.9-1.71,1.9c-0.56,0-0.93-0.31-0.93-0.78c0-0.6,0.47-0.85,1.28-1.01l1.36-0.25V18.29z"/>
	<path d="M339.23,12.93v12.49h3.34v-4.87c0.45,1.07,1.48,1.81,3.03,1.81c2.7,0,4.08-2.12,4.08-4.84c0-2.7-1.38-4.84-4.08-4.84
		c-1.55,0-2.58,0.74-3.03,1.83v-1.59H339.23z M344.43,15.28c1.3,0,1.9,0.93,1.9,2.25c0,1.34-0.6,2.27-1.9,2.27
		c-1.13,0-1.86-0.87-1.86-2.21v-0.12C342.57,16.15,343.29,15.28,344.43,15.28z"/>
	<rect x="350.98" y="9.14" width="3.38" height="2.93"/>
	<rect x="351" y="12.93" width="3.34" height="9.19"/>
	<path d="M359.49,22.37c1.26,0,2.06-0.31,2.76-0.82v-2.16c-0.56,0.23-1.01,0.31-1.42,0.31c-0.68,0-1.05-0.31-1.05-1.09v-3.36h2.39
		v-2.31h-2.39v-2.54h-2.1l-0.31,1.2c-0.23,0.85-0.52,1.34-1.44,1.48l-0.68,0.1v2.06h1.24v4.33
		C356.48,21.73,357.95,22.37,359.49,22.37z"/>
	<path d="M366.27,16.95c-2,0.35-3.28,1.11-3.28,2.89c0,1.57,1.17,2.49,2.97,2.49c1.46,0,2.51-0.56,3.05-1.63
		c0.31,1.05,1.2,1.63,2.33,1.63c0.95,0,1.61-0.27,2.08-0.6v-1.77c-0.27,0.1-0.47,0.14-0.74,0.14c-0.35,0-0.56-0.21-0.56-0.68v-3.13
		c0-2.56-1.79-3.61-4.23-3.61c-2.76,0-4.27,1.4-4.56,3.42l3.09,0.21c0.14-0.68,0.52-1.15,1.26-1.15c0.8,0,1.15,0.45,1.15,1.22v0.14
		L366.27,16.95z M368.85,18.29c0,1.2-0.76,1.9-1.71,1.9c-0.56,0-0.93-0.31-0.93-0.78c0-0.6,0.47-0.85,1.28-1.01l1.36-0.25V18.29z"/>
	<rect x="374.39" y="9.14" width="3.34" height="12.99"/>
	<rect x="379.55" y="12.93" width="3.34" height="9.19"/>
	<rect x="379.53" y="9.14" width="3.38" height="2.93"/>
	<path d="M388.7,20.29c-1.01,0-1.63-0.43-1.75-1.2l-2.91,0.04c0.19,2.23,2.08,3.24,4.62,3.24c2.62,0,4.27-1.11,4.27-3.05
		c0-1.79-1.2-2.72-3.26-3.05l-1.79-0.31c-0.31-0.04-0.56-0.21-0.56-0.52c0-0.41,0.37-0.66,1.01-0.66c1.03,0,1.61,0.41,1.73,1.07
		l2.74-0.08c-0.19-1.92-1.75-3.09-4.41-3.09c-2.58,0-4.16,1.3-4.16,3.11c0,1.88,1.17,2.6,3.4,2.95l1.36,0.21
		c0.64,0.1,0.85,0.35,0.85,0.7C389.83,20.02,389.44,20.29,388.7,20.29z"/>
	<path d="M394.2,12.93v9.19h3.34v-4.51c0-1.38,0.39-2.29,1.48-2.29c1.01,0,1.26,0.66,1.26,1.92v4.89h3.34v-4.51
		c0-1.38,0.37-2.29,1.48-2.29c1.01,0,1.24,0.66,1.24,1.92v4.89h3.34v-5.77c0-1.92-0.74-3.67-3.28-3.67c-1.55,0-2.64,0.78-3.13,1.81
		c-0.39-1.07-1.24-1.81-2.87-1.81c-1.38,0-2.37,0.62-2.87,1.63v-1.38H394.2z"/>
	<rect x="413.27" y="9.14" width="3.5" height="12.99"/>
	<path d="M422.67,20.29c-1.01,0-1.63-0.43-1.75-1.2l-2.91,0.04c0.19,2.23,2.08,3.24,4.62,3.24c2.62,0,4.27-1.11,4.27-3.05
		c0-1.79-1.2-2.72-3.26-3.05l-1.79-0.31c-0.31-0.04-0.56-0.21-0.56-0.52c0-0.41,0.37-0.66,1.01-0.66c1.03,0,1.61,0.41,1.73,1.07
		l2.74-0.08c-0.19-1.92-1.75-3.09-4.41-3.09c-2.58,0-4.16,1.3-4.16,3.11c0,1.88,1.17,2.6,3.4,2.95l1.36,0.21
		c0.64,0.1,0.85,0.35,0.85,0.7C423.8,20.02,423.41,20.29,422.67,20.29z"/>
	<path d="M433.56,19.61h5.07l0.97,2.52h3.73l-5.17-12.99h-3.92l-5.17,12.99h3.53L433.56,19.61z M436.05,13.16h0.08l1.48,3.83h-3.05
		L436.05,13.16z"/>
	<polygon points="458.8,9.14 455.31,9.14 452.1,17.77 452.01,17.77 448.8,9.14 445.13,9.14 450.12,22.12 453.81,22.12 	"/>
	<rect x="459.68" y="9.14" width="3.38" height="2.93"/>
	<rect x="459.7" y="12.93" width="3.34" height="9.19"/>
	<path d="M464.85,12.93v9.19h3.34v-4.21c0-1.55,0.76-2.12,2-2.12c0.64,0,1.13,0.12,1.59,0.39l0.21-3.15
		c-0.23-0.19-0.72-0.35-1.28-0.35c-1.22,0-2.19,0.85-2.52,1.88v-1.63H464.85z"/>
	<path d="M472.91,12.93v5.79c0,1.92,0.76,3.65,3.28,3.65c1.38,0,2.39-0.6,2.89-1.63v1.38h3.34v-9.19h-3.34v4.51
		c0,1.4-0.41,2.31-1.46,2.31c-1.01,0-1.36-0.68-1.36-1.92v-4.91H472.91z"/>
	<path d="M488.22,20.29c-1.01,0-1.63-0.43-1.75-1.2l-2.91,0.04c0.19,2.23,2.08,3.24,4.62,3.24c2.62,0,4.27-1.11,4.27-3.05
		c0-1.79-1.2-2.72-3.26-3.05l-1.79-0.31c-0.31-0.04-0.56-0.21-0.56-0.52c0-0.41,0.37-0.66,1.01-0.66c1.03,0,1.61,0.41,1.73,1.07
		l2.74-0.08c-0.19-1.92-1.75-3.09-4.41-3.09c-2.58,0-4.16,1.3-4.16,3.11c0,1.88,1.18,2.6,3.4,2.95l1.36,0.21
		c0.64,0.1,0.84,0.35,0.84,0.7C489.36,20.02,488.97,20.29,488.22,20.29z"/>
</g>
</svg>
