<?xml version="1.0" encoding="utf-8"?>
<!-- Generator: Adobe Illustrator 23.1.1, SVG Export Plug-In . SVG Version: 6.00 Build 0)  -->
<svg version="1.1" xmlns="http://www.w3.org/2000/svg" xmlns:xlink="http://www.w3.org/1999/xlink" x="0px" y="0px"
	 viewBox="0 0 792 612" style="enable-background:new 0 0 792 612;" xml:space="preserve">
<style type="text/css">
	.st0{display:none;}
	.st1{display:inline;}
	
		.st2{display:inline;fill:#FFFFFF;stroke:#000000;stroke-width:16;stroke-linecap:round;stroke-linejoin:round;stroke-miterlimit:10;}
	.st3{fill:#FFFFFF;stroke:#000000;stroke-width:16;stroke-linecap:round;stroke-linejoin:round;stroke-miterlimit:10;}
	.st4{display:inline;fill:none;stroke:#000000;stroke-width:24;stroke-linejoin:round;stroke-miterlimit:10;}
	.st5{display:inline;fill:#FFFFFF;}
	.st6{fill:#FFFFFF;stroke:#000000;stroke-width:17;stroke-linecap:round;stroke-miterlimit:10;}
	.st7{fill:#FFFFFF;stroke:#000000;stroke-width:17;stroke-miterlimit:10;}
	.st8{stroke:#000000;stroke-width:16.0572;stroke-linecap:round;stroke-miterlimit:10;}
	.st9{fill:#FFFFFF;}
	.st10{fill:#FFFFFF;stroke:#000000;stroke-width:17.1072;stroke-linecap:round;stroke-linejoin:round;stroke-miterlimit:10;}
	.st11{stroke:#000000;stroke-width:17.1072;stroke-linecap:round;stroke-linejoin:round;stroke-miterlimit:10;}
	.st12{fill:#FFFFFF;stroke:#000000;stroke-width:14.7375;stroke-linecap:round;stroke-linejoin:round;stroke-miterlimit:10;}
	.st13{fill:none;stroke:#000000;stroke-width:14.7375;stroke-linecap:round;stroke-linejoin:round;stroke-miterlimit:10;}
	.st14{stroke:#000000;stroke-width:14.7375;stroke-linecap:round;stroke-linejoin:round;stroke-miterlimit:10;}
	.st15{fill:#FFFFFF;stroke:#000000;stroke-width:14.2911;stroke-linecap:round;stroke-linejoin:round;stroke-miterlimit:10;}
	.st16{fill:none;stroke:#000000;stroke-width:13.497;stroke-miterlimit:10;}
	.st17{fill:#FFFFFF;stroke:#000000;stroke-width:13.497;stroke-linecap:round;stroke-linejoin:round;stroke-miterlimit:10;}
	.st18{fill:#FFFFFF;stroke:#000000;stroke-width:13.497;stroke-miterlimit:10;}
	.st19{fill:#FFFFFF;stroke:#000000;stroke-width:14.7439;stroke-linecap:round;stroke-miterlimit:10;}
	.st20{fill:#FFFFFF;stroke:#000000;stroke-width:14.7439;stroke-miterlimit:10;}
	.st21{stroke:#000000;stroke-width:13.9262;stroke-linecap:round;stroke-miterlimit:10;}
	
		.st22{display:inline;fill:#FFFFFF;stroke:#000000;stroke-width:14.6942;stroke-linecap:round;stroke-linejoin:round;stroke-miterlimit:10;}
	.st23{fill:#FFFFFF;stroke:#000000;stroke-width:14.6942;stroke-linecap:round;stroke-linejoin:round;stroke-miterlimit:10;}
	.st24{fill:none;stroke:#000000;stroke-width:24;stroke-linejoin:round;stroke-miterlimit:10;}
	.st25{fill:none;stroke:#000000;stroke-width:30.5612;stroke-linecap:round;stroke-linejoin:round;stroke-miterlimit:10;}
	.st26{fill:#FFFFFF;stroke:#000000;stroke-width:16.2993;stroke-linecap:round;stroke-linejoin:round;stroke-miterlimit:10;}
	.st27{display:inline;fill:#FFFFFF;stroke:#000000;stroke-width:13.497;stroke-linecap:round;stroke-miterlimit:10;}
	
		.st28{display:inline;fill:none;stroke:#000000;stroke-width:13.497;stroke-linecap:round;stroke-linejoin:round;stroke-miterlimit:10;}
	
		.st29{display:inline;fill:#FFFFFF;stroke:#000000;stroke-width:13.497;stroke-linecap:round;stroke-linejoin:round;stroke-miterlimit:10;}
	
		.st30{display:inline;fill:url(#);stroke:#000000;stroke-width:13.497;stroke-linecap:round;stroke-linejoin:round;stroke-miterlimit:10;}
	.st31{font-family:'FoundersGrotesk-Bold';}
	.st32{font-size:199.4794px;}
	.st33{font-size:135px;}
	.st34{font-size:177px;}
	.st35{fill:#FFFFFF;stroke:#000000;stroke-width:15.2362;stroke-linecap:round;stroke-linejoin:round;stroke-miterlimit:10;}
	.st36{fill:#FFFFFF;stroke:#000000;stroke-width:14.8467;stroke-linecap:round;stroke-linejoin:round;stroke-miterlimit:10;}
	.st37{stroke:#000000;stroke-width:20.1683;stroke-linecap:round;stroke-miterlimit:10;}
	.st38{fill:none;stroke:#000000;stroke-width:14.8467;stroke-linecap:round;stroke-linejoin:round;stroke-miterlimit:10;}
	.st39{fill:#FFFFFF;stroke:#FFFFFF;stroke-width:3;stroke-miterlimit:10;}
	.st40{display:inline;fill:none;stroke:#000000;stroke-width:15;stroke-linecap:round;stroke-linejoin:round;stroke-miterlimit:10;}
	
		.st41{display:inline;fill:#FFFFFF;stroke:#000000;stroke-width:15;stroke-linecap:round;stroke-linejoin:round;stroke-miterlimit:10;}
	.st42{fill:#FFFFFF;stroke:#000000;stroke-width:15;stroke-linecap:round;stroke-linejoin:round;stroke-miterlimit:10;}
	.st43{fill:#FFFFFF;stroke:#000000;stroke-width:11.7326;stroke-linecap:round;stroke-linejoin:round;stroke-miterlimit:10;}
	.st44{fill:#FFFFFF;stroke:#000000;stroke-width:13.2623;stroke-linecap:round;stroke-linejoin:round;stroke-miterlimit:10;}
	.st45{fill:none;stroke:#000000;stroke-width:16;stroke-linecap:round;stroke-miterlimit:10;}
	.st46{fill:url(#);stroke:#000000;stroke-width:16;stroke-linecap:round;stroke-linejoin:round;stroke-miterlimit:10;}
	.st47{fill:#FFFFFF;stroke:#000000;stroke-width:16;stroke-linecap:round;stroke-miterlimit:10;}
	.st48{fill:#FFFFFF;stroke:#000000;stroke-width:13.2623;stroke-linecap:round;stroke-miterlimit:10;}
	.st49{stroke:#000000;stroke-width:4.5213;stroke-miterlimit:10;}
	.st50{fill:none;stroke:#000000;stroke-width:15.2344;stroke-linecap:round;stroke-linejoin:round;stroke-miterlimit:10;}
	.st51{fill:#FFFFFF;stroke:#000000;stroke-width:15.2344;stroke-linecap:round;stroke-linejoin:round;stroke-miterlimit:10;}
	.st52{stroke:#000000;stroke-width:18.3348;stroke-linecap:round;stroke-miterlimit:10;}
	.st53{fill:none;stroke:#000000;stroke-width:13.497;stroke-linecap:round;stroke-linejoin:round;stroke-miterlimit:10;}
	.st54{font-size:20.6105px;}
	.st55{font-size:10.3052px;}
	.st56{font-size:19.2364px;}
	.st57{font-size:10px;}
	.st58{display:inline;fill:none;stroke:#000000;stroke-width:16;stroke-linecap:round;stroke-linejoin:round;stroke-miterlimit:10;}
	.st59{fill:#FFFFFF;stroke:#000000;stroke-width:13.3058;stroke-linecap:round;stroke-linejoin:round;stroke-miterlimit:10;}
	.st60{fill:#FFFFFF;stroke:#000000;stroke-width:17;stroke-linecap:round;stroke-linejoin:round;stroke-miterlimit:10;}
	.st61{fill:#FFFFFF;stroke:#000000;stroke-width:15.2517;stroke-linecap:round;stroke-linejoin:round;stroke-miterlimit:10;}
	.st62{stroke:#000000;stroke-width:3;stroke-miterlimit:10;}
	.st63{fill:#FFFFFF;stroke:#000000;stroke-width:16.0686;stroke-linecap:round;stroke-linejoin:round;stroke-miterlimit:10;}
	.st64{fill:#FFFFFF;stroke:#000000;stroke-width:15;stroke-linejoin:round;stroke-miterlimit:10;}
	.st65{fill:url(#);stroke:#000000;stroke-width:13.497;stroke-linecap:round;stroke-linejoin:round;stroke-miterlimit:10;}
	.st66{fill:#06A6FF;}
	.st67{fill:#FF0303;}
	.st68{fill:#3DFF06;}
	.st69{fill:#FFF808;}
	.st70{fill:none;stroke:#000000;stroke-width:0;stroke-linecap:round;stroke-linejoin:round;}
</style>
<g id="unexpanded" class="st0">
	<g class="st1">
		<g>
			<text transform="matrix(1 0 0 1 18.5015 220.1792)" class="st31 st32">HOUSES</text>
			<text transform="matrix(1 0 0 1 202.6279 347.9033)" class="st31 st33">for the</text>
			<text transform="matrix(1 0 0 1 5.0107 495.8103)" class="st31 st34">Houseless</text>
		</g>
	</g>
	<g class="st1">
		<g>
			<text transform="matrix(1 0 0 1 258.9679 599.7979)"><tspan x="0" y="0" class="st31 st54">www</tspan><tspan x="45.14" y="0" class="st31 st55"> </tspan><tspan x="46.99" y="0" class="st31 st54">.</tspan><tspan x="51.77" y="0" class="st31 st55"> </tspan><tspan x="53.63" y="0" class="st31 st54">Capitalism</tspan><tspan x="150.43" y="0" class="st31 st56"> </tspan><tspan x="153.9" y="0" class="st31 st54">Is</tspan><tspan x="168.88" y="0" class="st31 st56"> </tspan><tspan x="172.34" y="0" class="st31 st54">A</tspan><tspan x="186.6" y="0" class="st31 st55"> </tspan><tspan x="188.46" y="0" class="st31 st54">Virus</tspan><tspan x="236.15" y="0" class="st31 st55"> </tspan><tspan x="238.01" y="0" class="st31 st54">.</tspan><tspan x="242.79" y="0" class="st31 st55"> </tspan><tspan x="244.64" y="0" class="st31 st54">org</tspan></text>
		</g>
		<g>
			<text transform="matrix(1 0 0 1 299.1802 22.1245)"><tspan x="0" y="0" class="st31 st54">#</tspan><tspan x="12.7" y="0" class="st31 st57"> </tspan><tspan x="14.5" y="0" class="st31 st54">Capitalism</tspan><tspan x="111.3" y="0" class="st31 st57"> </tspan><tspan x="113.1" y="0" class="st31 st54">Is</tspan><tspan x="128.09" y="0" class="st31 st57"> </tspan><tspan x="129.89" y="0" class="st31 st54">A</tspan><tspan x="144.15" y="0" class="st31 st57"> </tspan><tspan x="145.95" y="0" class="st31 st54">Virus</tspan></text>
		</g>
	</g>
</g>
<g id="expanded">
	<polygon points="146.96,220.18 146.96,94.51 113.05,94.51 113.05,142.98 62.98,142.98 62.98,94.51 29.07,94.51 29.07,220.18 
		62.98,220.18 62.98,170.51 113.05,170.51 113.05,220.18 	"/>
	<path d="M160.53,157.34c0,38.7,28.72,65.23,65.23,65.23s65.23-26.53,65.23-65.23s-28.72-65.23-65.23-65.23
		S160.53,118.65,160.53,157.34z M256.08,157.34c0,21.34-11.77,35.31-30.32,35.31s-30.32-13.96-30.32-35.31s11.77-35.31,30.32-35.31
		S256.08,136,256.08,157.34z"/>
	<path d="M418.05,170.31v-75.8h-33.91v70.22c0,19.15-5.79,29.32-23.34,29.32c-17.35,0-23.34-10.17-23.34-29.32V94.51h-33.71v75.8
		c0,36.7,24.74,52.26,57.05,52.26S418.05,207.01,418.05,170.31z"/>
	<path d="M489.07,222.57c29.32,0,52.46-13.36,52.46-40.09c0-20.55-11.97-34.31-38.3-38.9l-23.74-4.19
		c-7.78-1.4-12.57-3.59-12.57-9.38c0-6.98,6.38-11.37,17.55-11.37c12.97,0,22.34,5.98,23.34,18.95l31.12-0.6
		c-0.6-27.93-19.35-44.88-54.06-44.88c-31.32,0-51.27,15.36-51.27,40.89c0,21.94,14.36,33.51,34.91,37.3l22.94,3.99
		c9.57,1.8,16.96,2.99,16.96,10.37c0,6.98-7.58,11.17-19.35,11.17c-13.96,0-26.13-5.39-27.33-21.14l-31.12,1
		C430.62,206.02,454.96,222.57,489.07,222.57z"/>
	<polygon points="656.03,192.25 590.4,192.25 590.4,170.51 639.67,170.51 639.67,142.98 590.4,142.98 590.4,122.44 654.23,122.44 
		654.23,94.51 557.09,94.51 557.09,220.18 656.03,220.18 	"/>
	<path d="M774.52,182.48c0-20.55-11.97-34.31-38.3-38.9l-23.74-4.19c-7.78-1.4-12.57-3.59-12.57-9.38c0-6.98,6.38-11.37,17.55-11.37
		c12.97,0,22.34,5.98,23.34,18.95l31.12-0.6c-0.6-27.93-19.35-44.88-54.06-44.88c-31.32,0-51.27,15.36-51.27,40.89
		c0,21.94,14.36,33.51,34.91,37.3l22.94,3.99c9.57,1.8,16.96,2.99,16.96,10.37c0,6.98-7.58,11.17-19.35,11.17
		c-13.96,0-26.13-5.39-27.33-21.14l-31.12,1c0,30.32,24.34,46.88,58.45,46.88C751.38,222.57,774.52,209.21,774.52,182.48z"/>
	<path d="M232.6,302.81h15.25V287.7H232.6v-4.05c0-3.78,1.35-6.75,5-6.75c2.83,0,4.46,1.49,5.8,4.19l13.36-4.19
		c-2.43-9.99-10.26-15.66-21.6-15.66c-14.45,0-24.16,8.23-24.16,23.89v2.56h-8.64v15.12H211v45.09h21.6V302.81z"/>
	<path d="M282.41,286.08c-19.71,0-32.94,13.09-32.94,31.72c0,18.76,13.23,31.72,32.94,31.72c19.57,0,32.94-12.96,32.94-31.72
		C315.35,299.17,301.99,286.08,282.41,286.08z M282.41,333.05c-7.69,0-10.93-6.21-10.93-15.25c0-9.04,3.24-15.25,10.93-15.25
		c7.56,0,10.93,6.21,10.93,15.25C293.35,326.84,289.97,333.05,282.41,333.05z"/>
	<path d="M323.99,287.7v60.21h21.87v-27.54c0-10.12,4.99-13.9,13.09-13.9c4.19,0,7.43,0.81,10.39,2.56l1.35-20.65
		c-1.49-1.21-4.73-2.29-8.37-2.29c-7.96,0-14.31,5.54-16.47,12.28V287.7H323.99z"/>
	<path d="M423.62,349.52c8.23,0,13.5-2.02,18.09-5.4v-14.17c-3.64,1.48-6.62,2.02-9.31,2.02c-4.46,0-6.88-2.02-6.88-7.15v-22h15.66
		V287.7h-15.66v-16.6h-13.77l-2.03,7.83c-1.48,5.54-3.37,8.77-9.45,9.72l-4.46,0.68v13.5h8.1v28.35
		C403.91,345.34,413.5,349.52,423.62,349.52z"/>
	<path d="M513.12,310.1c0-12.55-5.26-24.03-21.73-24.03c-9.04,0-16.2,4.05-19.44,10.66v-33.88h-21.87v85.05h21.87v-29.56
		c0-9.04,2.97-14.98,10.39-14.98c6.61,0,8.91,4.32,8.91,12.55v31.99h21.87V310.1z"/>
	<path d="M584.26,328.06l-17.55-1.62c-2.02,4.73-5.8,6.75-11.74,6.75c-6.62,0-12.01-3.51-12.55-10.93h42.25v-6.07
		c0-16.33-10.67-30.1-30.78-30.1c-18.76,0-32.8,13.63-32.8,32.67c0,19.17,13.77,30.78,33.07,30.78
		C570.09,349.52,581.16,341.83,584.26,328.06z M553.62,301.74c6.48,0,9.99,4.59,10.26,9.99h-21.2
		C543.5,306.06,546.6,301.74,553.62,301.74z"/>
	<polygon points="43.6,451.74 88.03,451.74 88.03,495.81 118.12,495.81 118.12,384.3 88.03,384.3 88.03,427.31 43.6,427.31 
		43.6,384.3 13.51,384.3 13.51,495.81 43.6,495.81 	"/>
	<path d="M173.34,497.93c25.66,0,43.19-16.99,43.19-41.6c0-24.43-17.52-41.6-43.19-41.6c-25.84,0-43.19,17.17-43.19,41.6
		C130.15,480.94,147.5,497.93,173.34,497.93z M173.34,436.34c9.91,0,14.34,8.14,14.34,20s-4.42,20-14.34,20
		c-10.09,0-14.34-8.14-14.34-20S163.25,436.34,173.34,436.34z"/>
	<path d="M308.57,416.87h-28.67v38.76c0,12.04-3.54,19.82-12.57,19.82c-8.67,0-11.68-5.84-11.68-16.46v-42.13h-28.67v49.74
		c0,16.46,6.55,31.33,28.14,31.33c11.86,0,20.53-5.13,24.78-13.98v11.86h28.67V416.87z"/>
	<path d="M366.8,445.54l-15.4-2.66c-2.66-0.35-4.78-1.77-4.78-4.42c0-3.54,3.19-5.66,8.67-5.66c8.85,0,13.81,3.54,14.87,9.2
		l23.54-0.71c-1.59-16.46-15.04-26.55-37.88-26.55c-22.12,0-35.75,11.15-35.75,26.73c0,16.11,10.09,22.3,29.21,25.31l11.68,1.77
		c5.49,0.89,7.26,3.01,7.26,6.02c0,3.19-3.36,5.49-9.73,5.49c-8.67,0-13.98-3.72-15.04-10.27l-24.96,0.35
		c1.59,19.12,17.88,27.79,39.65,27.79c22.48,0,36.64-9.56,36.64-26.2C394.76,456.34,384.5,448.37,366.8,445.54z"/>
	<path d="M484.86,454.21c0-21.42-13.98-39.47-40.36-39.47c-24.6,0-43.01,17.88-43.01,42.83c0,25.13,18.05,40.36,43.37,40.36
		c20.89,0,35.4-10.09,39.47-28.14l-23.01-2.12c-2.65,6.2-7.61,8.85-15.4,8.85c-8.67,0-15.75-4.6-16.46-14.34h55.4V454.21z
		 M429.81,448.37c1.06-7.43,5.13-13.1,14.34-13.1c8.5,0,13.1,6.02,13.45,13.1H429.81z"/>
	<rect x="496.54" y="384.3" width="28.67" height="111.51"/>
	<path d="M619.9,454.21c0-21.42-13.98-39.47-40.36-39.47c-24.6,0-43.01,17.88-43.01,42.83c0,25.13,18.05,40.36,43.37,40.36
		c20.89,0,35.4-10.09,39.47-28.14l-23.01-2.12c-2.65,6.2-7.61,8.85-15.4,8.85c-8.67,0-15.75-4.6-16.46-14.34h55.4V454.21z
		 M564.86,448.37c1.06-7.43,5.13-13.1,14.34-13.1c8.5,0,13.1,6.02,13.45,13.1H564.86z"/>
	<path d="M665.92,480.06c-8.67,0-13.98-3.72-15.04-10.27l-24.96,0.35c1.59,19.12,17.88,27.79,39.65,27.79
		c22.48,0,36.64-9.56,36.64-26.2c0-15.4-10.27-23.36-27.97-26.2l-15.4-2.66c-2.66-0.35-4.78-1.77-4.78-4.42
		c0-3.54,3.19-5.66,8.67-5.66c8.85,0,13.81,3.54,14.87,9.2l23.54-0.71c-1.59-16.46-15.04-26.55-37.88-26.55
		c-22.12,0-35.75,11.15-35.75,26.73c0,16.11,10.09,22.3,29.21,25.31l11.68,1.77c5.49,0.89,7.26,3.01,7.26,6.02
		C675.66,477.76,672.29,480.06,665.92,480.06z"/>
	<path d="M744.33,432.8c8.85,0,13.81,3.54,14.87,9.2l23.54-0.71c-1.59-16.46-15.05-26.55-37.88-26.55
		c-22.12,0-35.75,11.15-35.75,26.73c0,16.11,10.09,22.3,29.21,25.31l11.68,1.77c5.49,0.89,7.26,3.01,7.26,6.02
		c0,3.19-3.36,5.49-9.74,5.49c-8.67,0-13.98-3.72-15.04-10.27l-24.96,0.35c1.59,19.12,17.88,27.79,39.65,27.79
		c22.48,0,36.64-9.56,36.64-26.2c0-15.4-10.27-23.36-27.96-26.2l-15.4-2.66c-2.65-0.35-4.78-1.77-4.78-4.42
		C735.66,434.92,738.85,432.8,744.33,432.8z"/>
	<polygon points="299.46,595.82 298.12,590.6 295.46,590.6 294.12,595.82 294.04,595.82 292.39,590.6 289.15,590.6 289.07,590.6 
		286.14,590.6 284.5,595.82 284.41,595.82 283.07,590.6 280.41,590.6 279.07,595.82 278.99,595.82 277.34,590.6 274.11,590.6 
		274.02,590.6 271.1,590.6 269.45,595.82 269.37,595.82 268.03,590.6 265.37,590.6 264.03,595.82 263.95,595.82 262.3,590.6 
		258.98,590.6 261.88,599.8 265.16,599.8 266.5,594.6 266.58,594.6 267.92,599.8 271.2,599.8 274.07,590.74 276.93,599.8 
		280.21,599.8 281.55,594.6 281.63,594.6 282.97,599.8 286.25,599.8 289.11,590.74 291.98,599.8 295.25,599.8 296.59,594.6 
		296.68,594.6 298.02,599.8 301.29,599.8 304.2,590.6 301.19,590.6 299.54,595.82 	"/>
	<rect x="306.63" y="596.25" width="3.55" height="3.55"/>
	<path d="M319.7,589.68c2.02,0,2.8,1.34,3.01,2.78l3.36-0.12c-0.25-3.24-2.37-5.77-6.35-5.77c-3.79,0-6.66,2.74-6.66,6.74
		s2.87,6.74,6.66,6.74c3.98,0,6.1-2.51,6.35-5.75l-3.36-0.14c-0.21,1.44-0.99,2.78-3.01,2.78c-1.92,0-3.03-1.42-3.03-3.63
		S317.78,589.68,319.7,589.68z"/>
	<path d="M330.08,594.62c-2,0.35-3.28,1.11-3.28,2.89c0,1.57,1.17,2.49,2.97,2.49c1.46,0,2.51-0.56,3.05-1.63
		c0.31,1.05,1.2,1.63,2.33,1.63c0.95,0,1.61-0.27,2.08-0.6v-1.77c-0.27,0.1-0.47,0.14-0.74,0.14c-0.35,0-0.56-0.21-0.56-0.68v-3.13
		c0-2.56-1.79-3.61-4.23-3.61c-2.76,0-4.27,1.4-4.56,3.42l3.09,0.21c0.14-0.68,0.52-1.15,1.26-1.15c0.8,0,1.15,0.45,1.15,1.22v0.14
		L330.08,594.62z M332.66,595.96c0,1.2-0.76,1.9-1.71,1.9c-0.56,0-0.93-0.31-0.93-0.78c0-0.6,0.47-0.85,1.28-1.01l1.36-0.25V595.96z
		"/>
	<path d="M338.2,590.6v12.49h3.34v-4.86c0.45,1.07,1.48,1.81,3.03,1.81c2.7,0,4.08-2.12,4.08-4.84c0-2.7-1.38-4.84-4.08-4.84
		c-1.55,0-2.58,0.74-3.03,1.83v-1.59H338.2z M343.4,592.95c1.3,0,1.9,0.93,1.9,2.25c0,1.34-0.6,2.27-1.9,2.27
		c-1.13,0-1.86-0.87-1.86-2.21v-0.12C341.54,593.82,342.26,592.95,343.4,592.95z"/>
	<rect x="349.95" y="586.81" width="3.38" height="2.93"/>
	<rect x="349.97" y="590.6" width="3.34" height="9.19"/>
	<path d="M358.46,600.04c1.26,0,2.06-0.31,2.76-0.82v-2.16c-0.56,0.23-1.01,0.31-1.42,0.31c-0.68,0-1.05-0.31-1.05-1.09v-3.36h2.39
		v-2.31h-2.39v-2.54h-2.1l-0.31,1.2c-0.23,0.85-0.52,1.34-1.44,1.48l-0.68,0.1v2.06h1.24v4.33
		C355.46,599.41,356.92,600.04,358.46,600.04z"/>
	<path d="M365.25,594.62c-2,0.35-3.28,1.11-3.28,2.89c0,1.57,1.17,2.49,2.97,2.49c1.46,0,2.52-0.56,3.05-1.63
		c0.31,1.05,1.2,1.63,2.33,1.63c0.95,0,1.61-0.27,2.08-0.6v-1.77c-0.27,0.1-0.47,0.14-0.74,0.14c-0.35,0-0.56-0.21-0.56-0.68v-3.13
		c0-2.56-1.79-3.61-4.23-3.61c-2.76,0-4.27,1.4-4.56,3.42l3.09,0.21c0.14-0.68,0.52-1.15,1.26-1.15c0.8,0,1.15,0.45,1.15,1.22v0.14
		L365.25,594.62z M367.82,595.96c0,1.2-0.76,1.9-1.71,1.9c-0.56,0-0.93-0.31-0.93-0.78c0-0.6,0.47-0.85,1.28-1.01l1.36-0.25V595.96z
		"/>
	<rect x="373.37" y="586.81" width="3.34" height="12.99"/>
	<rect x="378.5" y="586.81" width="3.38" height="2.93"/>
	<rect x="378.52" y="590.6" width="3.34" height="9.19"/>
	<path d="M387.67,597.96c-1.01,0-1.63-0.43-1.75-1.2l-2.91,0.04c0.19,2.23,2.08,3.24,4.62,3.24c2.62,0,4.27-1.11,4.27-3.05
		c0-1.79-1.2-2.72-3.26-3.05l-1.79-0.31c-0.31-0.04-0.56-0.21-0.56-0.52c0-0.41,0.37-0.66,1.01-0.66c1.03,0,1.61,0.41,1.73,1.07
		l2.74-0.08c-0.19-1.92-1.75-3.09-4.41-3.09c-2.58,0-4.16,1.3-4.16,3.11c0,1.88,1.17,2.6,3.4,2.95l1.36,0.21
		c0.64,0.1,0.84,0.35,0.84,0.7C388.8,597.7,388.41,597.96,387.67,597.96z"/>
	<path d="M408.65,599.8v-5.77c0-1.92-0.74-3.67-3.28-3.67c-1.55,0-2.64,0.78-3.13,1.81c-0.39-1.07-1.24-1.81-2.87-1.81
		c-1.38,0-2.37,0.62-2.87,1.63v-1.38h-3.34v9.19h3.34v-4.51c0-1.38,0.39-2.29,1.48-2.29c1.01,0,1.26,0.66,1.26,1.92v4.89h3.34v-4.51
		c0-1.38,0.37-2.29,1.48-2.29c1.01,0,1.24,0.66,1.24,1.92v4.89H408.65z"/>
	<rect x="413.91" y="586.81" width="3.5" height="12.99"/>
	<path d="M423.3,597.96c-1.01,0-1.63-0.43-1.75-1.2l-2.91,0.04c0.19,2.23,2.08,3.24,4.62,3.24c2.62,0,4.27-1.11,4.27-3.05
		c0-1.79-1.2-2.72-3.26-3.05l-1.79-0.31c-0.31-0.04-0.56-0.21-0.56-0.52c0-0.41,0.37-0.66,1.01-0.66c1.03,0,1.61,0.41,1.73,1.07
		l2.74-0.08c-0.19-1.92-1.75-3.09-4.41-3.09c-2.58,0-4.16,1.3-4.16,3.11c0,1.88,1.17,2.6,3.4,2.95l1.36,0.21
		c0.64,0.1,0.84,0.35,0.84,0.7C424.44,597.7,424.05,597.96,423.3,597.96z"/>
	<path d="M436.54,586.81l-5.17,12.99h3.52l0.97-2.51h5.07l0.97,2.51h3.73l-5.17-12.99H436.54z M436.87,594.67l1.48-3.83h0.08
		l1.48,3.83H436.87z"/>
	<polygon points="454.36,595.45 451.15,586.81 447.48,586.81 452.47,599.8 456.16,599.8 461.15,586.81 457.66,586.81 454.45,595.45 
			"/>
	<rect x="462.03" y="586.81" width="3.38" height="2.93"/>
	<rect x="462.05" y="590.6" width="3.34" height="9.19"/>
	<path d="M467.2,590.6v9.19h3.34v-4.21c0-1.55,0.76-2.12,2-2.12c0.64,0,1.13,0.12,1.59,0.39l0.21-3.15
		c-0.23-0.19-0.72-0.35-1.28-0.35c-1.22,0-2.18,0.85-2.51,1.88v-1.63H467.2z"/>
	<path d="M484.77,599.8v-9.19h-3.34v4.51c0,1.4-0.41,2.31-1.46,2.31c-1.01,0-1.36-0.68-1.36-1.92v-4.91h-3.34v5.79
		c0,1.92,0.76,3.65,3.28,3.65c1.38,0,2.39-0.6,2.89-1.63v1.38H484.77z"/>
	<path d="M490.58,597.96c-1.01,0-1.63-0.43-1.75-1.2l-2.91,0.04c0.19,2.23,2.08,3.24,4.62,3.24c2.62,0,4.27-1.11,4.27-3.05
		c0-1.79-1.2-2.72-3.26-3.05l-1.79-0.31c-0.31-0.04-0.56-0.21-0.56-0.52c0-0.41,0.37-0.66,1.01-0.66c1.03,0,1.61,0.41,1.73,1.07
		l2.74-0.08c-0.19-1.92-1.75-3.09-4.41-3.09c-2.58,0-4.16,1.3-4.16,3.11c0,1.88,1.17,2.6,3.4,2.95l1.36,0.21
		c0.64,0.1,0.84,0.35,0.84,0.7C491.71,597.7,491.32,597.96,490.58,597.96z"/>
	<rect x="497.64" y="596.25" width="3.55" height="3.55"/>
	<path d="M504.07,595.2c0,2.87,2.02,4.84,5.03,4.84c2.99,0,5.03-1.98,5.03-4.84c0-2.84-2.04-4.84-5.03-4.84
		C506.09,590.36,504.07,592.36,504.07,595.2z M510.77,595.2c0,1.38-0.52,2.33-1.67,2.33c-1.17,0-1.67-0.95-1.67-2.33
		s0.5-2.33,1.67-2.33C510.26,592.87,510.77,593.82,510.77,595.2z"/>
	<path d="M515.45,590.6v9.19h3.34v-4.21c0-1.55,0.76-2.12,2-2.12c0.64,0,1.13,0.12,1.59,0.39l0.21-3.15
		c-0.23-0.19-0.72-0.35-1.28-0.35c-1.22,0-2.19,0.85-2.52,1.88v-1.63H515.45z"/>
	<path d="M522.6,601.1c0,1.73,2.27,2.25,4.89,2.25c2.99,0,5.77-1.05,5.77-3.34c0-1.55-1.05-2.64-3.13-2.64h-3.81
		c-0.56,0-0.78-0.25-0.78-0.56c0-0.19,0.06-0.33,0.19-0.43c0.6,0.19,1.26,0.27,2,0.27c2.6,0,4.47-1.2,4.47-3.13
		c0-0.43-0.1-0.83-0.29-1.18c0.45-0.1,0.95-0.14,1.34-0.14v-2.52c-1.01,0-2.02,0.66-2.58,1.42c-0.78-0.47-1.83-0.74-2.95-0.74
		c-2.58,0-4.43,1.2-4.43,3.15c0,1.01,0.5,1.79,1.32,2.33c-0.99,0.37-1.57,1.05-1.57,1.94c0,0.78,0.49,1.53,1.32,1.79
		C523.33,599.65,522.6,600.29,522.6,601.1z M527.76,592.19c0.56,0,0.97,0.52,0.97,1.32c0,0.82-0.41,1.34-0.97,1.34
		s-0.97-0.52-0.97-1.34C526.79,592.71,527.2,592.19,527.76,592.19z M525.96,600.21h3.38c0.56,0,0.84,0.14,0.84,0.54
		c0,0.56-1.13,0.87-2.68,0.87c-1.24,0-2.16-0.19-2.16-0.85C525.35,600.42,525.59,600.21,525.96,600.21z"/>
	<path d="M303.1,22.12l0.8-3.42h1.77l-0.8,3.42h2.49l0.8-3.42h2.04l0.43-2.06h-1.98l0.5-2.02h1.88l0.43-2.06h-1.83l0.82-3.42h-2.49
		l-0.82,3.42h-1.77l0.83-3.42h-2.49l-0.83,3.42h-2.02l-0.43,2.06h1.98l-0.5,2.02h-1.88l-0.43,2.06h1.81l-0.8,3.42H303.1z
		 M304.89,14.62h1.77l-0.5,2.02h-1.77L304.89,14.62z"/>
	<path d="M320.73,12c2.02,0,2.8,1.34,3.01,2.78l3.36-0.12c-0.25-3.24-2.37-5.77-6.35-5.77c-3.79,0-6.66,2.74-6.66,6.74
		s2.87,6.74,6.66,6.74c3.98,0,6.1-2.52,6.35-5.75l-3.36-0.14c-0.21,1.44-0.99,2.78-3.01,2.78c-1.92,0-3.03-1.42-3.03-3.63
		S318.81,12,320.73,12z"/>
	<path d="M331.11,16.95c-2,0.35-3.28,1.11-3.28,2.89c0,1.57,1.17,2.49,2.97,2.49c1.46,0,2.51-0.56,3.05-1.63
		c0.31,1.05,1.2,1.63,2.33,1.63c0.95,0,1.61-0.27,2.08-0.6v-1.77c-0.27,0.1-0.47,0.14-0.74,0.14c-0.35,0-0.56-0.21-0.56-0.68v-3.13
		c0-2.56-1.79-3.61-4.23-3.61c-2.76,0-4.27,1.4-4.56,3.42l3.09,0.21c0.14-0.68,0.51-1.15,1.26-1.15c0.8,0,1.15,0.45,1.15,1.22v0.14
		L331.11,16.95z M333.69,18.29c0,1.2-0.76,1.9-1.71,1.9c-0.56,0-0.93-0.31-0.93-0.78c0-0.6,0.47-0.85,1.28-1.01l1.36-0.25V18.29z"/>
	<path d="M339.23,12.93v12.49h3.34v-4.87c0.45,1.07,1.48,1.81,3.03,1.81c2.7,0,4.08-2.12,4.08-4.84c0-2.7-1.38-4.84-4.08-4.84
		c-1.55,0-2.58,0.74-3.03,1.83v-1.59H339.23z M344.43,15.28c1.3,0,1.9,0.93,1.9,2.25c0,1.34-0.6,2.27-1.9,2.27
		c-1.13,0-1.86-0.87-1.86-2.21v-0.12C342.57,16.15,343.29,15.28,344.43,15.28z"/>
	<rect x="351" y="12.93" width="3.34" height="9.19"/>
	<rect x="350.98" y="9.14" width="3.38" height="2.93"/>
	<path d="M359.49,22.37c1.26,0,2.06-0.31,2.76-0.82v-2.16c-0.56,0.23-1.01,0.31-1.42,0.31c-0.68,0-1.05-0.31-1.05-1.09v-3.36h2.39
		v-2.31h-2.39v-2.54h-2.1l-0.31,1.2c-0.23,0.85-0.51,1.34-1.44,1.48l-0.68,0.1v2.06h1.24v4.33
		C356.48,21.73,357.95,22.37,359.49,22.37z"/>
	<path d="M366.27,16.95c-2,0.35-3.28,1.11-3.28,2.89c0,1.57,1.18,2.49,2.97,2.49c1.46,0,2.51-0.56,3.05-1.63
		c0.31,1.05,1.2,1.63,2.33,1.63c0.95,0,1.61-0.27,2.08-0.6v-1.77c-0.27,0.1-0.47,0.14-0.74,0.14c-0.35,0-0.56-0.21-0.56-0.68v-3.13
		c0-2.56-1.79-3.61-4.23-3.61c-2.76,0-4.27,1.4-4.56,3.42l3.09,0.21c0.14-0.68,0.51-1.15,1.26-1.15c0.8,0,1.15,0.45,1.15,1.22v0.14
		L366.27,16.95z M368.85,18.29c0,1.2-0.76,1.9-1.71,1.9c-0.56,0-0.93-0.31-0.93-0.78c0-0.6,0.47-0.85,1.28-1.01l1.36-0.25V18.29z"/>
	<rect x="374.39" y="9.14" width="3.34" height="12.99"/>
	<rect x="379.53" y="9.14" width="3.38" height="2.93"/>
	<rect x="379.55" y="12.93" width="3.34" height="9.19"/>
	<path d="M388.7,20.29c-1.01,0-1.63-0.43-1.75-1.2l-2.91,0.04c0.19,2.23,2.08,3.24,4.62,3.24c2.62,0,4.27-1.11,4.27-3.05
		c0-1.79-1.2-2.72-3.26-3.05l-1.79-0.31c-0.31-0.04-0.56-0.21-0.56-0.52c0-0.41,0.37-0.66,1.01-0.66c1.03,0,1.61,0.41,1.73,1.07
		l2.74-0.08c-0.19-1.92-1.75-3.09-4.41-3.09c-2.58,0-4.16,1.3-4.16,3.11c0,1.88,1.18,2.6,3.4,2.95l1.36,0.21
		c0.64,0.1,0.85,0.35,0.85,0.7C389.83,20.02,389.44,20.29,388.7,20.29z"/>
	<path d="M409.68,22.12v-5.77c0-1.92-0.74-3.67-3.28-3.67c-1.55,0-2.64,0.78-3.13,1.81c-0.39-1.07-1.24-1.81-2.87-1.81
		c-1.38,0-2.37,0.62-2.87,1.63v-1.38h-3.34v9.19h3.34v-4.51c0-1.38,0.39-2.29,1.48-2.29c1.01,0,1.26,0.66,1.26,1.92v4.89h3.34v-4.51
		c0-1.38,0.37-2.29,1.48-2.29c1.01,0,1.24,0.66,1.24,1.92v4.89H409.68z"/>
	<rect x="413.27" y="9.14" width="3.5" height="12.99"/>
	<path d="M422.67,20.29c-1.01,0-1.63-0.43-1.75-1.2l-2.91,0.04c0.19,2.23,2.08,3.24,4.62,3.24c2.62,0,4.27-1.11,4.27-3.05
		c0-1.79-1.2-2.72-3.26-3.05l-1.79-0.31c-0.31-0.04-0.56-0.21-0.56-0.52c0-0.41,0.37-0.66,1.01-0.66c1.03,0,1.61,0.41,1.73,1.07
		l2.74-0.08c-0.19-1.92-1.75-3.09-4.41-3.09c-2.58,0-4.16,1.3-4.16,3.11c0,1.88,1.18,2.6,3.4,2.95l1.36,0.21
		c0.64,0.1,0.85,0.35,0.85,0.7C423.8,20.02,423.41,20.29,422.67,20.29z"/>
	<path d="M433.56,19.61h5.07l0.97,2.52h3.73l-5.17-12.99h-3.92l-5.17,12.99h3.52L433.56,19.61z M436.05,13.16h0.08l1.48,3.83h-3.05
		L436.05,13.16z"/>
	<polygon points="458.8,9.14 455.31,9.14 452.1,17.77 452.01,17.77 448.8,9.14 445.13,9.14 450.12,22.12 453.81,22.12 	"/>
	<rect x="459.7" y="12.93" width="3.34" height="9.19"/>
	<rect x="459.68" y="9.14" width="3.38" height="2.93"/>
	<path d="M464.85,12.93v9.19h3.34v-4.21c0-1.55,0.76-2.12,2-2.12c0.64,0,1.13,0.12,1.59,0.39l0.21-3.15
		c-0.23-0.19-0.72-0.35-1.28-0.35c-1.22,0-2.19,0.85-2.52,1.88v-1.63H464.85z"/>
	<path d="M472.91,12.93v5.79c0,1.92,0.76,3.65,3.28,3.65c1.38,0,2.39-0.6,2.89-1.63v1.38h3.34v-9.19h-3.34v4.51
		c0,1.4-0.41,2.31-1.46,2.31c-1.01,0-1.36-0.68-1.36-1.92v-4.91H472.91z"/>
	<path d="M488.22,20.29c-1.01,0-1.63-0.43-1.75-1.2l-2.91,0.04c0.19,2.23,2.08,3.24,4.62,3.24c2.62,0,4.27-1.11,4.27-3.05
		c0-1.79-1.2-2.72-3.26-3.05l-1.79-0.31c-0.31-0.04-0.56-0.21-0.56-0.52c0-0.41,0.37-0.66,1.01-0.66c1.03,0,1.61,0.41,1.73,1.07
		l2.74-0.08c-0.19-1.92-1.75-3.09-4.41-3.09c-2.58,0-4.16,1.3-4.16,3.11c0,1.88,1.17,2.6,3.4,2.95l1.36,0.21
		c0.64,0.1,0.85,0.35,0.85,0.7C489.36,20.02,488.97,20.29,488.22,20.29z"/>
</g>
</svg>
