<?xml version="1.0" encoding="utf-8"?>
<!-- Generator: Adobe Illustrator 23.1.1, SVG Export Plug-In . SVG Version: 6.00 Build 0)  -->
<svg version="1.1" xmlns="http://www.w3.org/2000/svg" xmlns:xlink="http://www.w3.org/1999/xlink" x="0px" y="0px"
	 viewBox="0 0 792 612" style="enable-background:new 0 0 792 612;" xml:space="preserve">
<style type="text/css">
	.st0{display:none;}
	.st1{display:inline;}
	
		.st2{display:inline;fill:#FFFFFF;stroke:#000000;stroke-width:16;stroke-linecap:round;stroke-linejoin:round;stroke-miterlimit:10;}
	.st3{fill:#FFFFFF;stroke:#000000;stroke-width:16;stroke-linecap:round;stroke-linejoin:round;stroke-miterlimit:10;}
	.st4{display:inline;fill:none;stroke:#000000;stroke-width:24;stroke-linejoin:round;stroke-miterlimit:10;}
	.st5{display:inline;fill:#FFFFFF;}
	.st6{fill:#FFFFFF;stroke:#000000;stroke-width:17;stroke-linecap:round;stroke-miterlimit:10;}
	.st7{fill:#FFFFFF;stroke:#000000;stroke-width:17;stroke-miterlimit:10;}
	.st8{stroke:#000000;stroke-width:16.0572;stroke-linecap:round;stroke-miterlimit:10;}
	.st9{fill:#FFFFFF;}
	.st10{fill:#FFFFFF;stroke:#000000;stroke-width:17.1072;stroke-linecap:round;stroke-linejoin:round;stroke-miterlimit:10;}
	.st11{stroke:#000000;stroke-width:17.1072;stroke-linecap:round;stroke-linejoin:round;stroke-miterlimit:10;}
	.st12{fill:#FFFFFF;stroke:#000000;stroke-width:14.7375;stroke-linecap:round;stroke-linejoin:round;stroke-miterlimit:10;}
	.st13{fill:none;stroke:#000000;stroke-width:14.7375;stroke-linecap:round;stroke-linejoin:round;stroke-miterlimit:10;}
	.st14{stroke:#000000;stroke-width:14.7375;stroke-linecap:round;stroke-linejoin:round;stroke-miterlimit:10;}
	.st15{fill:#FFFFFF;stroke:#000000;stroke-width:14.2911;stroke-linecap:round;stroke-linejoin:round;stroke-miterlimit:10;}
	.st16{fill:none;stroke:#000000;stroke-width:13.497;stroke-miterlimit:10;}
	.st17{fill:#FFFFFF;stroke:#000000;stroke-width:13.497;stroke-linecap:round;stroke-linejoin:round;stroke-miterlimit:10;}
	.st18{fill:#FFFFFF;stroke:#000000;stroke-width:13.497;stroke-miterlimit:10;}
	.st19{fill:#FFFFFF;stroke:#000000;stroke-width:14.7439;stroke-linecap:round;stroke-miterlimit:10;}
	.st20{fill:#FFFFFF;stroke:#000000;stroke-width:14.7439;stroke-miterlimit:10;}
	.st21{stroke:#000000;stroke-width:13.9262;stroke-linecap:round;stroke-miterlimit:10;}
	
		.st22{display:inline;fill:#FFFFFF;stroke:#000000;stroke-width:14.6942;stroke-linecap:round;stroke-linejoin:round;stroke-miterlimit:10;}
	.st23{fill:#FFFFFF;stroke:#000000;stroke-width:14.6942;stroke-linecap:round;stroke-linejoin:round;stroke-miterlimit:10;}
	.st24{fill:none;stroke:#000000;stroke-width:24;stroke-linejoin:round;stroke-miterlimit:10;}
	.st25{fill:none;stroke:#000000;stroke-width:30.5612;stroke-linecap:round;stroke-linejoin:round;stroke-miterlimit:10;}
	.st26{fill:#FFFFFF;stroke:#000000;stroke-width:16.2993;stroke-linecap:round;stroke-linejoin:round;stroke-miterlimit:10;}
	.st27{display:inline;fill:#FFFFFF;stroke:#000000;stroke-width:13.497;stroke-linecap:round;stroke-miterlimit:10;}
	
		.st28{display:inline;fill:none;stroke:#000000;stroke-width:13.497;stroke-linecap:round;stroke-linejoin:round;stroke-miterlimit:10;}
	
		.st29{display:inline;fill:#FFFFFF;stroke:#000000;stroke-width:13.497;stroke-linecap:round;stroke-linejoin:round;stroke-miterlimit:10;}
	
		.st30{display:inline;fill:url(#);stroke:#000000;stroke-width:13.497;stroke-linecap:round;stroke-linejoin:round;stroke-miterlimit:10;}
	.st31{fill:#FFFFFF;stroke:#000000;stroke-width:15.2362;stroke-linecap:round;stroke-linejoin:round;stroke-miterlimit:10;}
	.st32{fill:#FFFFFF;stroke:#000000;stroke-width:14.8467;stroke-linecap:round;stroke-linejoin:round;stroke-miterlimit:10;}
	.st33{stroke:#000000;stroke-width:20.1683;stroke-linecap:round;stroke-miterlimit:10;}
	.st34{fill:none;stroke:#000000;stroke-width:14.8467;stroke-linecap:round;stroke-linejoin:round;stroke-miterlimit:10;}
	.st35{fill:#FFFFFF;stroke:#FFFFFF;stroke-width:3;stroke-miterlimit:10;}
	.st36{display:inline;fill:none;stroke:#000000;stroke-width:15;stroke-linecap:round;stroke-linejoin:round;stroke-miterlimit:10;}
	
		.st37{display:inline;fill:#FFFFFF;stroke:#000000;stroke-width:15;stroke-linecap:round;stroke-linejoin:round;stroke-miterlimit:10;}
	.st38{fill:#FFFFFF;stroke:#000000;stroke-width:15;stroke-linecap:round;stroke-linejoin:round;stroke-miterlimit:10;}
	.st39{fill:#FFFFFF;stroke:#000000;stroke-width:11.7326;stroke-linecap:round;stroke-linejoin:round;stroke-miterlimit:10;}
	.st40{fill:#FFFFFF;stroke:#000000;stroke-width:13.2623;stroke-linecap:round;stroke-linejoin:round;stroke-miterlimit:10;}
	.st41{fill:none;stroke:#000000;stroke-width:16;stroke-linecap:round;stroke-miterlimit:10;}
	.st42{fill:url(#);stroke:#000000;stroke-width:16;stroke-linecap:round;stroke-linejoin:round;stroke-miterlimit:10;}
	.st43{fill:#FFFFFF;stroke:#000000;stroke-width:16;stroke-linecap:round;stroke-miterlimit:10;}
	.st44{fill:#FFFFFF;stroke:#000000;stroke-width:13.2623;stroke-linecap:round;stroke-miterlimit:10;}
	.st45{stroke:#000000;stroke-width:4.5213;stroke-miterlimit:10;}
	.st46{fill:none;stroke:#000000;stroke-width:15.2344;stroke-linecap:round;stroke-linejoin:round;stroke-miterlimit:10;}
	.st47{fill:#FFFFFF;stroke:#000000;stroke-width:15.2344;stroke-linecap:round;stroke-linejoin:round;stroke-miterlimit:10;}
	.st48{stroke:#000000;stroke-width:18.3348;stroke-linecap:round;stroke-miterlimit:10;}
	.st49{fill:none;stroke:#000000;stroke-width:13.497;stroke-linecap:round;stroke-linejoin:round;stroke-miterlimit:10;}
	.st50{display:inline;fill:none;stroke:#000000;stroke-width:16;stroke-linecap:round;stroke-linejoin:round;stroke-miterlimit:10;}
	.st51{fill:#FFFFFF;stroke:#000000;stroke-width:13.3058;stroke-linecap:round;stroke-linejoin:round;stroke-miterlimit:10;}
	.st52{font-family:'FoundersGrotesk-Bold';}
	.st53{font-size:160.6062px;}
	.st54{font-size:269px;}
	.st55{font-size:20.6105px;}
	.st56{font-size:10.3052px;}
	.st57{font-size:19.2364px;}
	.st58{font-size:10px;}
	.st59{fill:#FFFFFF;stroke:#000000;stroke-width:17;stroke-linecap:round;stroke-linejoin:round;stroke-miterlimit:10;}
	.st60{fill:#FFFFFF;stroke:#000000;stroke-width:15.2517;stroke-linecap:round;stroke-linejoin:round;stroke-miterlimit:10;}
	.st61{stroke:#000000;stroke-width:3;stroke-miterlimit:10;}
	.st62{fill:#FFFFFF;stroke:#000000;stroke-width:16.0686;stroke-linecap:round;stroke-linejoin:round;stroke-miterlimit:10;}
	.st63{fill:#FFFFFF;stroke:#000000;stroke-width:15;stroke-linejoin:round;stroke-miterlimit:10;}
	.st64{fill:url(#);stroke:#000000;stroke-width:13.497;stroke-linecap:round;stroke-linejoin:round;stroke-miterlimit:10;}
	.st65{fill:#06A6FF;}
	.st66{fill:#FF0303;}
	.st67{fill:#3DFF06;}
	.st68{fill:#FFF808;}
	.st69{fill:none;stroke:#000000;stroke-width:0;stroke-linecap:round;stroke-linejoin:round;}
</style>
<g id="unexpanded" class="st0">
	<g class="st1">
		<g>
			<g>
				<text transform="matrix(1 0 0 1 81.165 172.3035)"><tspan x="0" y="0" class="st52 st53">IMAGINE</tspan><tspan x="157.87" y="153.25" class="st52 st53">OUR</tspan></text>
			</g>
		</g>
		<text transform="matrix(1 0 0 1 22.5381 527.5967)" class="st52 st54">Power</text>
		<g>
			<g>
				<text transform="matrix(1 0 0 1 258.9679 599.7979)"><tspan x="0" y="0" class="st52 st55">www</tspan><tspan x="45.14" y="0" class="st52 st56"> </tspan><tspan x="46.99" y="0" class="st52 st55">.</tspan><tspan x="51.77" y="0" class="st52 st56"> </tspan><tspan x="53.63" y="0" class="st52 st55">Capitalism</tspan><tspan x="150.43" y="0" class="st52 st57"> </tspan><tspan x="153.9" y="0" class="st52 st55">Is</tspan><tspan x="168.88" y="0" class="st52 st57"> </tspan><tspan x="172.34" y="0" class="st52 st55">A</tspan><tspan x="186.6" y="0" class="st52 st56"> </tspan><tspan x="188.46" y="0" class="st52 st55">Virus</tspan><tspan x="236.15" y="0" class="st52 st56"> </tspan><tspan x="238.01" y="0" class="st52 st55">.</tspan><tspan x="242.79" y="0" class="st52 st56"> </tspan><tspan x="244.64" y="0" class="st52 st55">org</tspan></text>
			</g>
			<g>
				<text transform="matrix(1 0 0 1 299.1802 22.1245)"><tspan x="0" y="0" class="st52 st55">#</tspan><tspan x="12.7" y="0" class="st52 st58"> </tspan><tspan x="14.5" y="0" class="st52 st55">Capitalism</tspan><tspan x="111.3" y="0" class="st52 st58"> </tspan><tspan x="113.1" y="0" class="st52 st55">Is</tspan><tspan x="128.09" y="0" class="st52 st58"> </tspan><tspan x="129.89" y="0" class="st52 st55">A</tspan><tspan x="144.15" y="0" class="st52 st58"> </tspan><tspan x="145.95" y="0" class="st52 st55">Virus</tspan></text>
			</g>
		</g>
	</g>
</g>
<g id="expanded">
	<rect x="91.28" y="71.13" width="27.3" height="101.18"/>
	<polygon points="247.22,172.3 247.22,71.13 205.95,71.13 191.66,134.72 191.18,134.72 176.24,71.13 134,71.13 134,172.3 
		159.06,172.3 159.06,101.16 159.7,101.16 177.85,172.3 201.13,172.3 219.28,101.16 219.92,101.16 219.92,172.3 	"/>
	<path d="M254.94,172.3h27.46l7.55-19.59h39.51L337,172.3h29.07L325.76,71.13h-30.51L254.94,172.3z M309.38,102.44h0.64l11.56,29.87
		h-23.77L309.38,102.44z"/>
	<path d="M364.47,121.71c0,31.32,21.2,52.52,49.14,52.52c13.01,0,23.77-3.85,29.39-13.17v11.24h23.77v-52.52h-48.18v19.59h22.32
		c-4.01,8.03-12.69,11.72-21.52,11.72c-17.51,0-26.82-11.72-26.82-29.39c0-17.18,8.83-28.26,24.73-28.26
		c13.01,0,20.72,7.07,22.16,18.15l26.5-0.96c-2.25-25.21-19.59-41.43-49.3-41.43C387.44,69.2,364.47,90.56,364.47,121.71z"/>
	<rect x="481.39" y="71.13" width="27.3" height="101.18"/>
	<polygon points="549.16,112.4 592.85,172.3 614.69,172.3 614.69,71.13 589.63,71.13 589.63,127.18 550.13,71.13 524.11,71.13 
		524.11,172.3 549.16,172.3 	"/>
	<polygon points="708.32,93.61 708.32,71.13 630.11,71.13 630.11,172.3 709.77,172.3 709.77,149.82 656.93,149.82 656.93,132.31 
		696.6,132.31 696.6,110.15 656.93,110.15 656.93,93.61 	"/>
	<path d="M294.77,327.48c29.39,0,52.52-21.36,52.52-52.52s-23.13-52.52-52.52-52.52c-29.39,0-52.52,21.36-52.52,52.52
		S265.38,327.48,294.77,327.48z M294.77,246.54c14.94,0,24.41,11.24,24.41,28.43c0,17.18-9.48,28.43-24.41,28.43
		c-14.94,0-24.41-11.24-24.41-28.43C270.36,257.78,279.83,246.54,294.77,246.54z"/>
	<path d="M357.56,224.38v61.03c0,29.55,19.91,42.08,45.93,42.08s46.09-12.53,46.09-42.08v-61.03h-27.3v56.53
		c0,15.42-4.66,23.61-18.79,23.61c-13.97,0-18.79-8.19-18.79-23.61v-56.53H357.56z"/>
	<path d="M464.2,325.56h26.82v-33.57h18.15c9.15,0,14.13,2.57,14.94,14.13c0.8,10.44,2.09,16.7,4.18,19.43h27.62
		c-3.37-3.69-3.85-8.19-5.3-23.29c-1.12-11.72-7.23-17.67-17.67-19.75c12.37-1.61,21.52-11.24,21.52-26.02
		c0-19.75-13.01-32.12-39.19-32.12H464.2V325.56z M491.02,246.22h19.43c11.56,0,17.34,4.34,17.34,12.53
		c0,9.31-5.78,12.21-17.34,12.21h-19.43V246.22z"/>
	<path d="M111.98,358.13H37.46V527.6h45.46V474.6h29.05c44.38,0,70.21-20.71,70.21-58.37C182.19,378.84,156.36,358.13,111.98,358.13
		z M109.83,438.02h-26.9v-43.31h26.9c20.44,0,28.24,7.53,28.24,21.79S130.27,438.02,109.83,438.02z"/>
	<path d="M252.39,530.82c39,0,65.63-25.82,65.63-63.21c0-37.12-26.63-63.21-65.63-63.21c-39.27,0-65.64,26.09-65.64,63.21
		C186.76,505,213.12,530.82,252.39,530.82z M252.39,437.21c15.06,0,21.79,12.37,21.79,30.4s-6.72,30.4-21.79,30.4
		c-15.33,0-21.79-12.37-21.79-30.4S237.06,437.21,252.39,437.21z"/>
	<polygon points="481.04,407.62 459.52,475.68 458.45,475.68 440.96,407.62 406.26,407.62 388.78,475.68 387.7,475.68 
		366.18,407.62 322.87,407.62 360.8,527.6 403.57,527.6 421.06,459.81 422.13,459.81 439.62,527.6 482.39,527.6 520.32,407.62 	"/>
	<path d="M589.18,404.4c-37.39,0-65.37,27.17-65.37,65.1c0,38.2,27.44,61.33,65.9,61.33c31.74,0,53.8-15.33,59.99-42.77l-34.97-3.23
		c-4.04,9.42-11.57,13.45-23.4,13.45c-13.18,0-23.94-6.99-25.02-21.79h84.2v-12.1C650.51,431.83,629.26,404.4,589.18,404.4z
		 M566.86,455.51c1.61-11.3,7.8-19.91,21.79-19.91c12.91,0,19.91,9.15,20.44,19.91H566.86z"/>
	<path d="M761.34,408.97c-2.96-2.42-9.42-4.57-16.68-4.57c-15.87,0-28.51,11.03-32.82,24.48v-21.25h-43.58V527.6h43.58v-54.88
		c0-20.17,9.95-27.71,26.09-27.71c8.34,0,14.79,1.61,20.71,5.11L761.34,408.97z"/>
	<polygon points="299.46,595.82 298.12,590.6 295.46,590.6 294.12,595.82 294.04,595.82 292.39,590.6 289.15,590.6 289.07,590.6 
		286.15,590.6 284.5,595.82 284.41,595.82 283.07,590.6 280.41,590.6 279.07,595.82 278.99,595.82 277.34,590.6 274.11,590.6 
		274.02,590.6 271.1,590.6 269.45,595.82 269.37,595.82 268.03,590.6 265.37,590.6 264.03,595.82 263.95,595.82 262.3,590.6 
		258.98,590.6 261.88,599.8 265.16,599.8 266.5,594.6 266.58,594.6 267.92,599.8 271.2,599.8 274.07,590.74 276.93,599.8 
		280.21,599.8 281.55,594.6 281.63,594.6 282.97,599.8 286.25,599.8 289.11,590.74 291.98,599.8 295.25,599.8 296.59,594.6 
		296.68,594.6 298.02,599.8 301.29,599.8 304.2,590.6 301.19,590.6 299.54,595.82 	"/>
	<rect x="306.63" y="596.25" width="3.55" height="3.55"/>
	<path d="M319.7,589.68c2.02,0,2.8,1.34,3.01,2.78l3.36-0.12c-0.25-3.24-2.37-5.77-6.35-5.77c-3.79,0-6.66,2.74-6.66,6.74
		c0,4,2.87,6.74,6.66,6.74c3.98,0,6.1-2.51,6.35-5.75l-3.36-0.14c-0.21,1.44-0.99,2.78-3.01,2.78c-1.92,0-3.03-1.42-3.03-3.63
		C316.67,591.1,317.78,589.68,319.7,589.68z"/>
	<path d="M330.08,594.62c-2,0.35-3.28,1.11-3.28,2.89c0,1.57,1.17,2.49,2.97,2.49c1.46,0,2.52-0.56,3.05-1.63
		c0.31,1.05,1.2,1.63,2.33,1.63c0.95,0,1.61-0.27,2.08-0.6v-1.77c-0.27,0.1-0.47,0.14-0.74,0.14c-0.35,0-0.56-0.21-0.56-0.68v-3.13
		c0-2.56-1.79-3.61-4.23-3.61c-2.76,0-4.27,1.4-4.56,3.42l3.09,0.21c0.14-0.68,0.52-1.15,1.26-1.15c0.8,0,1.15,0.45,1.15,1.22v0.14
		L330.08,594.62z M332.66,595.96c0,1.2-0.76,1.9-1.71,1.9c-0.56,0-0.93-0.31-0.93-0.78c0-0.6,0.47-0.84,1.28-1.01l1.36-0.25V595.96z
		"/>
	<path d="M338.2,590.6v12.49h3.34v-4.86c0.45,1.07,1.48,1.81,3.03,1.81c2.7,0,4.08-2.12,4.08-4.84c0-2.7-1.38-4.84-4.08-4.84
		c-1.55,0-2.58,0.74-3.03,1.83v-1.59H338.2z M343.4,592.95c1.3,0,1.9,0.93,1.9,2.25c0,1.34-0.6,2.27-1.9,2.27
		c-1.13,0-1.86-0.87-1.86-2.21v-0.12C341.54,593.82,342.27,592.95,343.4,592.95z"/>
	<rect x="349.97" y="590.6" width="3.34" height="9.19"/>
	<rect x="349.95" y="586.81" width="3.38" height="2.93"/>
	<path d="M358.46,600.04c1.26,0,2.06-0.31,2.76-0.82v-2.16c-0.56,0.23-1.01,0.31-1.42,0.31c-0.68,0-1.05-0.31-1.05-1.09v-3.36h2.39
		v-2.31h-2.39v-2.54h-2.1l-0.31,1.2c-0.23,0.85-0.52,1.34-1.44,1.48l-0.68,0.1v2.06h1.24v4.33
		C355.46,599.41,356.92,600.04,358.46,600.04z"/>
	<path d="M365.25,594.62c-2,0.35-3.28,1.11-3.28,2.89c0,1.57,1.17,2.49,2.97,2.49c1.46,0,2.52-0.56,3.05-1.63
		c0.31,1.05,1.2,1.63,2.33,1.63c0.95,0,1.61-0.27,2.08-0.6v-1.77c-0.27,0.1-0.47,0.14-0.74,0.14c-0.35,0-0.56-0.21-0.56-0.68v-3.13
		c0-2.56-1.79-3.61-4.23-3.61c-2.76,0-4.27,1.4-4.56,3.42l3.09,0.21c0.14-0.68,0.52-1.15,1.26-1.15c0.8,0,1.15,0.45,1.15,1.22v0.14
		L365.25,594.62z M367.82,595.96c0,1.2-0.76,1.9-1.71,1.9c-0.56,0-0.93-0.31-0.93-0.78c0-0.6,0.47-0.84,1.28-1.01l1.36-0.25V595.96z
		"/>
	<rect x="373.37" y="586.81" width="3.34" height="12.99"/>
	<rect x="378.5" y="586.81" width="3.38" height="2.93"/>
	<rect x="378.52" y="590.6" width="3.34" height="9.19"/>
	<path d="M387.67,597.96c-1.01,0-1.63-0.43-1.75-1.2l-2.91,0.04c0.19,2.23,2.08,3.24,4.62,3.24c2.62,0,4.27-1.11,4.27-3.05
		c0-1.79-1.2-2.72-3.26-3.05l-1.79-0.31c-0.31-0.04-0.56-0.21-0.56-0.51c0-0.41,0.37-0.66,1.01-0.66c1.03,0,1.61,0.41,1.73,1.07
		l2.74-0.08c-0.19-1.92-1.75-3.09-4.41-3.09c-2.58,0-4.16,1.3-4.16,3.11c0,1.88,1.17,2.6,3.4,2.95l1.36,0.21
		c0.64,0.1,0.85,0.35,0.85,0.7C388.8,597.7,388.41,597.96,387.67,597.96z"/>
	<path d="M408.65,599.8v-5.77c0-1.92-0.74-3.67-3.28-3.67c-1.55,0-2.64,0.78-3.13,1.81c-0.39-1.07-1.24-1.81-2.87-1.81
		c-1.38,0-2.37,0.62-2.87,1.63v-1.38h-3.34v9.19h3.34v-4.51c0-1.38,0.39-2.29,1.48-2.29c1.01,0,1.26,0.66,1.26,1.92v4.89h3.34v-4.51
		c0-1.38,0.37-2.29,1.48-2.29c1.01,0,1.24,0.66,1.24,1.92v4.89H408.65z"/>
	<rect x="413.91" y="586.81" width="3.5" height="12.99"/>
	<path d="M423.3,597.96c-1.01,0-1.63-0.43-1.75-1.2l-2.91,0.04c0.19,2.23,2.08,3.24,4.62,3.24c2.62,0,4.27-1.11,4.27-3.05
		c0-1.79-1.2-2.72-3.26-3.05l-1.79-0.31c-0.31-0.04-0.56-0.21-0.56-0.51c0-0.41,0.37-0.66,1.01-0.66c1.03,0,1.61,0.41,1.73,1.07
		l2.74-0.08c-0.19-1.92-1.75-3.09-4.41-3.09c-2.58,0-4.16,1.3-4.16,3.11c0,1.88,1.18,2.6,3.4,2.95l1.36,0.21
		c0.64,0.1,0.85,0.35,0.85,0.7C424.44,597.7,424.05,597.96,423.3,597.96z"/>
	<path d="M431.36,599.8h3.52l0.97-2.51h5.07l0.97,2.51h3.73l-5.17-12.99h-3.92L431.36,599.8z M438.35,590.83h0.08l1.48,3.83h-3.05
		L438.35,590.83z"/>
	<polygon points="454.36,595.45 451.15,586.81 447.48,586.81 452.47,599.8 456.16,599.8 461.15,586.81 457.66,586.81 454.45,595.45 
			"/>
	<rect x="462.03" y="586.81" width="3.38" height="2.93"/>
	<rect x="462.05" y="590.6" width="3.34" height="9.19"/>
	<path d="M467.2,590.6v9.19h3.34v-4.21c0-1.55,0.76-2.12,2-2.12c0.64,0,1.13,0.12,1.59,0.39l0.21-3.15
		c-0.23-0.19-0.72-0.35-1.28-0.35c-1.22,0-2.19,0.84-2.52,1.88v-1.63H467.2z"/>
	<path d="M484.77,599.8v-9.19h-3.34v4.51c0,1.4-0.41,2.31-1.46,2.31c-1.01,0-1.36-0.68-1.36-1.92v-4.91h-3.34v5.79
		c0,1.92,0.76,3.65,3.28,3.65c1.38,0,2.39-0.6,2.89-1.63v1.38H484.77z"/>
	<path d="M490.58,597.96c-1.01,0-1.63-0.43-1.75-1.2l-2.91,0.04c0.19,2.23,2.08,3.24,4.62,3.24c2.62,0,4.27-1.11,4.27-3.05
		c0-1.79-1.2-2.72-3.26-3.05l-1.79-0.31c-0.31-0.04-0.56-0.21-0.56-0.51c0-0.41,0.37-0.66,1.01-0.66c1.03,0,1.61,0.41,1.73,1.07
		l2.74-0.08c-0.19-1.92-1.75-3.09-4.41-3.09c-2.58,0-4.16,1.3-4.16,3.11c0,1.88,1.18,2.6,3.4,2.95l1.36,0.21
		c0.64,0.1,0.85,0.35,0.85,0.7C491.71,597.7,491.32,597.96,490.58,597.96z"/>
	<rect x="497.64" y="596.25" width="3.55" height="3.55"/>
	<path d="M504.07,595.2c0,2.87,2.02,4.84,5.03,4.84c2.99,0,5.03-1.98,5.03-4.84c0-2.85-2.04-4.84-5.03-4.84
		C506.09,590.36,504.07,592.36,504.07,595.2z M510.77,595.2c0,1.38-0.52,2.33-1.67,2.33c-1.17,0-1.67-0.95-1.67-2.33
		c0-1.38,0.49-2.33,1.67-2.33C510.26,592.87,510.77,593.82,510.77,595.2z"/>
	<path d="M518.79,595.59c0-1.55,0.76-2.12,2-2.12c0.64,0,1.13,0.12,1.59,0.39l0.21-3.15c-0.23-0.19-0.72-0.35-1.28-0.35
		c-1.22,0-2.19,0.84-2.52,1.88v-1.63h-3.34v9.19h3.34V595.59z"/>
	<path d="M533.24,589.68c-1.01,0-2.02,0.66-2.58,1.42c-0.78-0.47-1.83-0.74-2.95-0.74c-2.58,0-4.43,1.2-4.43,3.15
		c0,1.01,0.49,1.79,1.32,2.33c-0.99,0.37-1.57,1.05-1.57,1.94c0,0.78,0.49,1.53,1.32,1.79c-1.03,0.08-1.75,0.72-1.75,1.53
		c0,1.73,2.27,2.25,4.89,2.25c2.99,0,5.77-1.05,5.77-3.34c0-1.55-1.05-2.64-3.13-2.64h-3.81c-0.56,0-0.78-0.25-0.78-0.56
		c0-0.19,0.06-0.33,0.19-0.43c0.6,0.19,1.26,0.27,2,0.27c2.6,0,4.47-1.2,4.47-3.13c0-0.43-0.1-0.83-0.29-1.17
		c0.45-0.1,0.95-0.14,1.34-0.14V589.68z M525.96,600.21h3.38c0.56,0,0.85,0.14,0.85,0.54c0,0.56-1.13,0.87-2.68,0.87
		c-1.24,0-2.16-0.18-2.16-0.84C525.35,600.42,525.59,600.21,525.96,600.21z M527.76,594.85c-0.56,0-0.97-0.52-0.97-1.34
		c0-0.8,0.41-1.32,0.97-1.32c0.56,0,0.97,0.52,0.97,1.32C528.73,594.33,528.31,594.85,527.76,594.85z"/>
	<path d="M300.03,16.64l-0.43,2.06h1.81l-0.8,3.42h2.49l0.8-3.42h1.77l-0.8,3.42h2.49l0.8-3.42h2.04l0.43-2.06h-1.98l0.49-2.02h1.88
		l0.43-2.06h-1.83l0.82-3.42h-2.49l-0.82,3.42h-1.77l0.83-3.42h-2.49l-0.82,3.42h-2.02l-0.43,2.06h1.98l-0.49,2.02H300.03z
		 M304.89,14.62h1.77l-0.49,2.02h-1.77L304.89,14.62z"/>
	<path d="M320.73,12c2.02,0,2.8,1.34,3.01,2.78l3.36-0.12c-0.25-3.24-2.37-5.77-6.35-5.77c-3.79,0-6.66,2.74-6.66,6.74
		s2.87,6.74,6.66,6.74c3.98,0,6.1-2.51,6.35-5.75l-3.36-0.14c-0.21,1.44-0.99,2.78-3.01,2.78c-1.92,0-3.03-1.42-3.03-3.63
		S318.81,12,320.73,12z"/>
	<path d="M331.11,16.95c-2,0.35-3.28,1.11-3.28,2.89c0,1.57,1.18,2.49,2.97,2.49c1.46,0,2.52-0.56,3.05-1.63
		c0.31,1.05,1.2,1.63,2.33,1.63c0.95,0,1.61-0.27,2.08-0.6v-1.77c-0.27,0.1-0.47,0.14-0.74,0.14c-0.35,0-0.56-0.21-0.56-0.68v-3.13
		c0-2.56-1.79-3.61-4.23-3.61c-2.76,0-4.27,1.4-4.56,3.42l3.09,0.21c0.14-0.68,0.52-1.16,1.26-1.16c0.8,0,1.15,0.45,1.15,1.22v0.14
		L331.11,16.95z M333.69,18.29c0,1.2-0.76,1.9-1.71,1.9c-0.56,0-0.93-0.31-0.93-0.78c0-0.6,0.47-0.84,1.28-1.01l1.36-0.25V18.29z"/>
	<path d="M339.23,12.93v12.49h3.34v-4.87c0.45,1.07,1.48,1.81,3.03,1.81c2.7,0,4.08-2.12,4.08-4.84c0-2.7-1.38-4.84-4.08-4.84
		c-1.55,0-2.58,0.74-3.03,1.83v-1.59H339.23z M344.43,15.28c1.3,0,1.9,0.93,1.9,2.25c0,1.34-0.6,2.27-1.9,2.27
		c-1.13,0-1.86-0.87-1.86-2.21v-0.12C342.57,16.15,343.29,15.28,344.43,15.28z"/>
	<rect x="351" y="12.93" width="3.34" height="9.19"/>
	<rect x="350.98" y="9.14" width="3.38" height="2.93"/>
	<path d="M357.68,10.39l-0.31,1.2c-0.23,0.85-0.52,1.34-1.44,1.48l-0.68,0.1v2.06h1.24v4.33c0,2.16,1.46,2.8,3.01,2.8
		c1.26,0,2.06-0.31,2.76-0.83v-2.16c-0.56,0.23-1.01,0.31-1.42,0.31c-0.68,0-1.05-0.31-1.05-1.09v-3.36h2.39v-2.31h-2.39v-2.54
		H357.68z"/>
	<path d="M366.27,16.95c-2,0.35-3.28,1.11-3.28,2.89c0,1.57,1.18,2.49,2.97,2.49c1.46,0,2.51-0.56,3.05-1.63
		c0.31,1.05,1.2,1.63,2.33,1.63c0.95,0,1.61-0.27,2.08-0.6v-1.77c-0.27,0.1-0.47,0.14-0.74,0.14c-0.35,0-0.56-0.21-0.56-0.68v-3.13
		c0-2.56-1.79-3.61-4.23-3.61c-2.76,0-4.27,1.4-4.56,3.42l3.09,0.21c0.14-0.68,0.52-1.16,1.26-1.16c0.8,0,1.15,0.45,1.15,1.22v0.14
		L366.27,16.95z M368.85,18.29c0,1.2-0.76,1.9-1.71,1.9c-0.56,0-0.93-0.31-0.93-0.78c0-0.6,0.47-0.84,1.28-1.01l1.36-0.25V18.29z"/>
	<rect x="374.39" y="9.14" width="3.34" height="12.99"/>
	<rect x="379.53" y="9.14" width="3.38" height="2.93"/>
	<rect x="379.55" y="12.93" width="3.34" height="9.19"/>
	<path d="M388.7,20.29c-1.01,0-1.63-0.43-1.75-1.2l-2.91,0.04c0.19,2.23,2.08,3.24,4.62,3.24c2.62,0,4.27-1.11,4.27-3.05
		c0-1.79-1.2-2.72-3.26-3.05l-1.79-0.31c-0.31-0.04-0.56-0.21-0.56-0.52c0-0.41,0.37-0.66,1.01-0.66c1.03,0,1.61,0.41,1.73,1.07
		l2.74-0.08c-0.19-1.92-1.75-3.09-4.41-3.09c-2.58,0-4.16,1.3-4.16,3.11c0,1.88,1.18,2.6,3.4,2.95l1.36,0.21
		c0.64,0.1,0.85,0.35,0.85,0.7C389.83,20.02,389.44,20.29,388.7,20.29z"/>
	<path d="M394.2,12.93v9.19h3.34v-4.52c0-1.38,0.39-2.29,1.48-2.29c1.01,0,1.26,0.66,1.26,1.92v4.89h3.34v-4.52
		c0-1.38,0.37-2.29,1.48-2.29c1.01,0,1.24,0.66,1.24,1.92v4.89h3.34v-5.77c0-1.92-0.74-3.67-3.28-3.67c-1.55,0-2.64,0.78-3.13,1.81
		c-0.39-1.07-1.24-1.81-2.87-1.81c-1.38,0-2.37,0.62-2.87,1.63v-1.38H394.2z"/>
	<rect x="413.27" y="9.14" width="3.5" height="12.99"/>
	<path d="M422.3,14.79c1.03,0,1.61,0.41,1.73,1.07l2.74-0.08c-0.19-1.92-1.75-3.09-4.41-3.09c-2.58,0-4.16,1.3-4.16,3.11
		c0,1.88,1.18,2.6,3.4,2.95l1.36,0.21c0.64,0.1,0.85,0.35,0.85,0.7c0,0.37-0.39,0.64-1.13,0.64c-1.01,0-1.63-0.43-1.75-1.2
		l-2.91,0.04c0.19,2.23,2.08,3.24,4.62,3.24c2.62,0,4.27-1.11,4.27-3.05c0-1.79-1.2-2.72-3.26-3.05l-1.79-0.31
		c-0.31-0.04-0.56-0.21-0.56-0.52C421.29,15.03,421.66,14.79,422.3,14.79z"/>
	<path d="M438.63,19.61l0.97,2.52h3.73l-5.17-12.99h-3.92l-5.17,12.99h3.52l0.97-2.52H438.63z M436.05,13.16h0.08l1.48,3.83h-3.05
		L436.05,13.16z"/>
	<polygon points="458.8,9.14 455.31,9.14 452.1,17.78 452.01,17.78 448.8,9.14 445.13,9.14 450.12,22.12 453.81,22.12 	"/>
	<rect x="459.68" y="9.14" width="3.38" height="2.93"/>
	<rect x="459.7" y="12.93" width="3.34" height="9.19"/>
	<path d="M464.85,12.93v9.19h3.34v-4.21c0-1.55,0.76-2.12,2-2.12c0.64,0,1.13,0.12,1.59,0.39l0.21-3.15
		c-0.23-0.19-0.72-0.35-1.28-0.35c-1.22,0-2.19,0.84-2.52,1.88v-1.63H464.85z"/>
	<path d="M472.91,12.93v5.79c0,1.92,0.76,3.65,3.28,3.65c1.38,0,2.39-0.6,2.89-1.63v1.38h3.34v-9.19h-3.34v4.51
		c0,1.4-0.41,2.31-1.46,2.31c-1.01,0-1.36-0.68-1.36-1.92v-4.91H472.91z"/>
	<path d="M488.23,20.29c-1.01,0-1.63-0.43-1.75-1.2l-2.91,0.04c0.19,2.23,2.08,3.24,4.62,3.24c2.62,0,4.27-1.11,4.27-3.05
		c0-1.79-1.2-2.72-3.26-3.05l-1.79-0.31c-0.31-0.04-0.56-0.21-0.56-0.52c0-0.41,0.37-0.66,1.01-0.66c1.03,0,1.61,0.41,1.73,1.07
		l2.74-0.08c-0.19-1.92-1.75-3.09-4.41-3.09c-2.58,0-4.16,1.3-4.16,3.11c0,1.88,1.17,2.6,3.4,2.95l1.36,0.21
		c0.64,0.1,0.85,0.35,0.85,0.7C489.36,20.02,488.97,20.29,488.23,20.29z"/>
</g>
</svg>
